<svg xmlns="http://www.w3.org/2000/svg" viewBox="0 0 74.285 84.262"><circle fill="#FFF" cx="16.564" cy="18.093" r="7.808"/><path fill="#FFF" d="M3.558 66.522c1.036 0 1.702.313 2.392.912.355.31.716.688 1.137 1.146 1.306 1.423 2.931 3.192 6.11 3.192 3.179 0 4.803-1.771 6.109-3.191.421-.46.782-.838 1.137-1.146.69-.599 1.356-.912 2.392-.912 1.035 0 1.702.313 2.393.912.355.31.716.688 1.138 1.146 1.305 1.422 2.931 3.191 6.11 3.191 3.18 0 4.805-1.771 6.109-3.19.422-.461.783-.839 1.14-1.147.69-.599 1.358-.912 2.396-.912s1.701.313 2.394.912c.354.31.716.688 1.138 1.146 1.307 1.422 2.932 3.191 6.11 3.191 3.181 0 4.807-1.771 6.112-3.19.422-.461.783-.839 1.14-1.147.69-.599 1.358-.912 2.396-.912s1.704.313 2.396.912c.355.31.717.688 1.14 1.147 1.308 1.421 2.933 3.19 6.113 3.19a1.75 1.75 0 100-3.5c-.995 0-1.649-.286-2.312-.839-.384-.317-.77-.726-1.226-1.221-1.308-1.423-2.933-3.191-6.112-3.191-3.179 0-4.807 1.77-6.111 3.19-.455.496-.842.903-1.225 1.222-.662.552-1.316.839-2.312.839-.994 0-1.647-.286-2.31-.839-.383-.317-.768-.726-1.223-1.22-1.307-1.424-2.932-3.192-6.109-3.192-3.182 0-4.806 1.77-6.112 3.192-.455.494-.839.901-1.222 1.22-.662.553-1.316.839-2.31.839s-1.647-.286-2.31-.839c-.382-.317-.768-.726-1.222-1.22-1.305-1.424-2.931-3.192-6.109-3.192-3.18 0-4.804 1.77-6.109 3.192-.455.494-.84.901-1.222 1.22-.661.553-1.314.839-2.307.839-.994 0-1.647-.286-2.309-.839-.382-.317-.767-.726-1.222-1.22-1.306-1.424-2.93-3.192-6.108-3.192a1.75 1.75 0 100 3.501zM3.558 49.79c1.036 0 1.702.313 2.392.911.355.31.716.688 1.137 1.146 1.306 1.423 2.931 3.192 6.11 3.192 3.179 0 4.803-1.771 6.109-3.192.421-.459.782-.837 1.137-1.146.69-.598 1.356-.911 2.392-.911 1.035 0 1.702.313 2.393.911.355.31.716.688 1.138 1.146 1.305 1.423 2.931 3.192 6.11 3.192 3.18 0 4.805-1.771 6.109-3.191.422-.46.783-.838 1.14-1.146.69-.598 1.358-.911 2.396-.911s1.701.313 2.394.911c.354.31.716.688 1.138 1.146 1.307 1.423 2.932 3.192 6.11 3.192 3.181 0 4.807-1.771 6.112-3.191.422-.46.783-.838 1.14-1.146.69-.598 1.358-.911 2.396-.911s1.704.313 2.396.911c.355.31.717.688 1.14 1.146 1.308 1.422 2.933 3.191 6.113 3.191a1.75 1.75 0 100-3.5c-.995 0-1.649-.286-2.312-.839-.384-.318-.77-.726-1.226-1.222-1.308-1.422-2.933-3.19-6.112-3.19-3.179 0-4.807 1.77-6.111 3.189-.455.497-.842.903-1.225 1.223-.662.553-1.316.839-2.312.839-.994 0-1.647-.286-2.31-.839-.383-.317-.768-.726-1.223-1.221-1.307-1.423-2.932-3.191-6.109-3.191-3.182 0-4.806 1.77-6.112 3.191-.455.495-.839.902-1.222 1.221-.662.553-1.316.839-2.31.839s-1.647-.286-2.31-.839c-.382-.317-.768-.726-1.222-1.221-1.305-1.423-2.931-3.191-6.109-3.191-3.18 0-4.804 1.77-6.109 3.191-.455.495-.84.902-1.222 1.221-.661.553-1.314.839-2.307.839-.994 0-1.647-.286-2.309-.839-.382-.317-.767-.726-1.222-1.221-1.306-1.423-2.93-3.191-6.108-3.191a1.75 1.75 0 000 3.501z"/></svg>