<svg xmlns="http://www.w3.org/2000/svg" viewBox="0 0 44.922 18.486"><path d="M28.697 12.463c0 .128-.1.228-.227.228h-.684v.91a1.365 1.365 0 11-2.73 0v-.91h-7.281v.91a1.365 1.365 0 11-2.73 0v-.91h-.683a.225.225 0 01-.228-.228v-2.73a1.59 1.59 0 011.593-1.593h.199l.747-2.979c.22-.896 1.088-1.571 2.012-1.571h5.46c.926 0 1.793.675 2.014 1.571l.746 2.979h.199a1.59 1.59 0 011.592 1.593v2.73zM16.411 9.277c-.626 0-1.138.512-1.138 1.138s.512 1.138 1.138 1.138c.626 0 1.138-.512 1.138-1.138s-.512-1.138-1.138-1.138zm8.618-1.138L24.396 5.6c-.021-.078-.164-.192-.25-.192h-5.46c-.085 0-.228.114-.249.192l-.633 2.539h7.225zm1.393 1.138c-.625 0-1.137.512-1.137 1.138s.512 1.138 1.137 1.138c.627 0 1.139-.512 1.139-1.138s-.512-1.138-1.139-1.138z" opacity=".6"/></svg>