<?xml version="1.0" encoding="utf-8"?>
<!-- Generator: Adobe Illustrator 25.2.1, SVG Export Plug-In . SVG Version: 6.00 Build 0)  -->
<svg version="1.1" id="Layer_1" xmlns="http://www.w3.org/2000/svg" xmlns:xlink="http://www.w3.org/1999/xlink" x="0px" y="0px"
	 viewBox="0 0 128 128" style="enable-background:new 0 0 128 128;" xml:space="preserve">
<style type="text/css">
	.st0{fill:#FFFFFF;}
	.st1{fill:none;stroke:#FFFFFF;stroke-width:6.5;stroke-miterlimit:10;}
</style>
<path class="st0" d="M64,11c26.2,0,47.5,21.3,47.5,47.5S90.2,106,64,106S16.5,84.7,16.5,58.5C16.5,32.3,37.8,11,64,11 M64,4.5
	c-29.8,0-54,24.2-54,54s24.2,54,54,54s54-24.2,54-54S93.8,4.5,64,4.5z"/>
<path class="st0" d="M65.1,11c2.1,0,5.8,3.7,8.9,11.7c3.7,9.5,5.8,22.2,5.8,35.8s-2,26.3-5.8,35.8c-3.2,8-6.8,11.7-8.9,11.7
	s-5.8-3.7-8.9-11.7c-3.7-9.5-5.8-22.2-5.8-35.8s2-26.3,5.8-35.8C59.3,14.6,63,11,65.1,11 M65.1,4.5c-11.7,0-21.2,24.2-21.2,54
	s9.5,54,21.2,54s21.2-24.2,21.2-54S76.8,4.5,65.1,4.5z"/>
<line class="st1" x1="17.7" y1="75.4" x2="112.5" y2="75.4"/>
<line class="st1" x1="17.7" y1="41.6" x2="112.5" y2="41.6"/>
<rect x="15" y="109" class="st0" width="102" height="16"/>
</svg>
