<?xml version="1.0" encoding="utf-8"?>
<!-- Generator: Adobe Illustrator 25.2.1, SVG Export Plug-In . SVG Version: 6.00 Build 0)  -->
<svg version="1.1" id="Layer_1" xmlns="http://www.w3.org/2000/svg" xmlns:xlink="http://www.w3.org/1999/xlink" x="0px" y="0px"
	 viewBox="0 0 128 128" style="enable-background:new 0 0 128 128;" xml:space="preserve">
<style type="text/css">
	.st0{fill:#FFFFFF;}
</style>
<path class="st0" d="M97.3,27.3L47.5,77.1c-1.8,2-4.8,2.2-6.8,0.5c-2-1.8-2.2-4.8-0.5-6.8c0.2-0.2,0.3-0.4,0.5-0.5l49.7-49.7H73.2
	c-2.7,0-4.8-2.2-4.8-4.8s2.2-4.8,4.8-4.8h29c2.7,0,4.8,2.2,4.8,4.8v29c0,2.7-2.2,4.8-4.8,4.8c-2.7,0-4.8-2.2-4.8-4.8V27.3z M87.7,64
	c0-2.7,2.2-4.8,4.8-4.8s4.8,2.2,4.8,4.8v42.5c0,5.3-4.3,9.7-9.7,9.7h-58c-5.3,0-9.7-4.3-9.7-9.7V30.2c0-5.3,4.4-9.7,9.7-9.7h24.2
	c2.7,0,4.8,2.2,4.8,4.8s-2.2,4.8-4.8,4.8H29.7v76.4h58V64z"/>
</svg>
