<?xml version="1.0" encoding="utf-8"?>
<!-- Generator: Adobe Illustrator 25.2.1, SVG Export Plug-In . SVG Version: 6.00 Build 0)  -->
<svg version="1.1" id="Layer_1" xmlns="http://www.w3.org/2000/svg" xmlns:xlink="http://www.w3.org/1999/xlink" x="0px" y="0px"
	 viewBox="0 0 128 128" style="enable-background:new 0 0 128 128;" xml:space="preserve">
<style type="text/css">
	.st0{fill:none;stroke:#FFFFFF;stroke-width:8;stroke-miterlimit:10;}
</style>
<g>
	<g>
		<path class="st0" d="M97.9,112H29.1c-7.8,0-14.1-6.3-14.1-14.1c0-7.8,6.3-14.1,14.1-14.1h68.7c7.8,0,14.1,6.3,14.1,14.1
			C112,105.7,105.7,112,97.9,112z M29.1,87.7c-5.6,0-10.1,4.5-10.1,10.1c0,5.6,4.5,10.1,10.1,10.1h68.7c5.6,0,10.1-4.5,10.1-10.1
			c0-5.6-4.5-10.1-10.1-10.1H29.1z"/>
	</g>
	<g>
		<g>
			<path class="st0" d="M95.8,26.4c-0.9-4.1-4.7-7.4-8.4-7.4H39.6c-3.8,0-7.5,3.3-8.4,7.4l-3.9-0.9C28.6,19.6,34,15,39.6,15h47.8
				c5.6,0,11.1,4.6,12.4,10.5L95.8,26.4z"/>
		</g>
		<g>
			
				<rect x="101.9" y="25.3" transform="matrix(0.9767 -0.2146 0.2146 0.9767 -9.112 23.5438)" class="st0" width="4" height="56.9"/>
		</g>
		<g>
			
				<rect x="-5.3" y="51.7" transform="matrix(0.2149 -0.9766 0.9766 0.2149 -34.3264 64.7761)" class="st0" width="56.9" height="4"/>
		</g>
	</g>
</g>
</svg>
