<?xml version="1.0" encoding="utf-8"?>
<!-- Generator: Adobe Illustrator 16.0.0, SVG Export Plug-In . SVG Version: 6.00 Build 0)  -->
<!DOCTYPE svg PUBLIC "-//W3C//DTD SVG 1.1//EN" "http://www.w3.org/Graphics/SVG/1.1/DTD/svg11.dtd">
<svg version="1.1" id="Ebene_1" xmlns="http://www.w3.org/2000/svg" xmlns:xlink="http://www.w3.org/1999/xlink" x="0px" y="0px"
	 width="16px" height="16px" viewBox="208.596 461.332 16 16" enable-background="new 208.596 461.332 16 16" xml:space="preserve">
<g>
	<path fill="#FFFFFF" d="M223.096,467.993v1.879c0,0.068-0.022,0.133-0.067,0.195c-0.045,0.062-0.102,0.099-0.17,0.109l-1.565,0.237
		c-0.107,0.305-0.218,0.562-0.33,0.771c0.197,0.281,0.499,0.671,0.905,1.168c0.057,0.067,0.085,0.138,0.085,0.211
		c0,0.074-0.025,0.139-0.076,0.195c-0.152,0.209-0.432,0.514-0.838,0.914s-0.671,0.601-0.796,0.601c-0.067,0-0.141-0.025-0.22-0.076
		l-1.168-0.914c-0.248,0.13-0.505,0.237-0.771,0.321c-0.09,0.768-0.172,1.293-0.245,1.574c-0.04,0.158-0.142,0.237-0.305,0.237
		h-1.879c-0.079,0-0.148-0.023-0.207-0.072c-0.06-0.048-0.092-0.108-0.098-0.182l-0.237-1.558c-0.276-0.09-0.53-0.194-0.762-0.312
		l-1.193,0.905c-0.057,0.051-0.127,0.076-0.211,0.076c-0.079,0-0.15-0.031-0.212-0.093c-0.711-0.644-1.177-1.117-1.396-1.422
		c-0.04-0.057-0.06-0.121-0.06-0.195c0-0.067,0.023-0.133,0.068-0.194c0.084-0.118,0.229-0.307,0.432-0.562
		c0.203-0.257,0.355-0.456,0.457-0.597c-0.152-0.282-0.269-0.562-0.348-0.838l-1.549-0.229c-0.073-0.012-0.133-0.047-0.178-0.106
		c-0.045-0.059-0.067-0.125-0.067-0.198v-1.879c0-0.068,0.022-0.133,0.067-0.195c0.045-0.062,0.1-0.099,0.161-0.109l1.574-0.237
		c0.079-0.26,0.188-0.519,0.33-0.778c-0.226-0.322-0.527-0.711-0.905-1.168c-0.057-0.068-0.085-0.136-0.085-0.203
		c0-0.057,0.025-0.121,0.076-0.195c0.146-0.203,0.425-0.506,0.834-0.909c0.408-0.404,0.675-0.605,0.8-0.605
		c0.073,0,0.146,0.028,0.22,0.085l1.168,0.905c0.248-0.13,0.505-0.237,0.771-0.321c0.09-0.768,0.172-1.293,0.245-1.574
		c0.04-0.158,0.142-0.237,0.305-0.237h1.879c0.079,0,0.148,0.023,0.207,0.072c0.06,0.048,0.092,0.108,0.098,0.182l0.237,1.558
		c0.276,0.09,0.53,0.194,0.762,0.312l1.201-0.905c0.051-0.051,0.119-0.076,0.203-0.076c0.074,0,0.145,0.028,0.212,0.085
		c0.728,0.671,1.193,1.15,1.396,1.438c0.04,0.045,0.06,0.107,0.06,0.187c0,0.067-0.023,0.133-0.068,0.194
		c-0.084,0.118-0.229,0.307-0.432,0.562c-0.203,0.257-0.355,0.456-0.457,0.597c0.146,0.282,0.263,0.559,0.348,0.83l1.549,0.236
		c0.073,0.012,0.133,0.047,0.178,0.106C223.073,467.854,223.096,467.92,223.096,467.993z M218.128,470.448
		c0.423-0.424,0.635-0.934,0.635-1.532s-0.212-1.108-0.635-1.532c-0.424-0.423-0.934-0.635-1.532-0.635s-1.108,0.212-1.532,0.635
		c-0.423,0.424-0.635,0.934-0.635,1.532s0.212,1.108,0.635,1.532c0.424,0.423,0.934,0.635,1.532,0.635
		S217.704,470.871,218.128,470.448z"/>
</g>
</svg>
