<svg xmlns="http://www.w3.org/2000/svg" viewBox="0 0 64.971 64.973"><circle fill="#304354" stroke="#FFF" stroke-width="3" stroke-miterlimit="10" cx="32.486" cy="32.486" r="30.986"/><path fill="#FFF" d="M41.717 32.594c0 .472-.162.87-.485 1.193l-8.536 8.536a1.681 1.681 0 01-1.193.485c-.446 0-.839-.162-1.18-.485l-.983-.983c-.333-.333-.499-.73-.499-1.193s.166-.861.499-1.193l3.842-3.842H23.95c-.455 0-.824-.164-1.108-.492a1.75 1.75 0 01-.426-1.187v-1.679c0-.463.142-.858.426-1.187.284-.328.653-.492 1.108-.492h9.231l-3.842-3.855c-.333-.314-.499-.708-.499-1.18s.166-.865.499-1.18l.983-.983a1.614 1.614 0 011.18-.498c.463 0 .861.166 1.193.498l8.536 8.536c.324.307.486.701.486 1.181z"/></svg>