<?xml version="1.0" encoding="utf-8"?>
<!-- Generator: Adobe Illustrator 25.2.3, SVG Export Plug-In . SVG Version: 6.00 Build 0)  -->
<svg version="1.1" id="Ebene_1" xmlns="http://www.w3.org/2000/svg" xmlns:xlink="http://www.w3.org/1999/xlink" x="0px" y="0px"
	 width="300px" height="300px" viewBox="0 0 300 300" style="enable-background:new 0 0 300 300;" xml:space="preserve">
<style type="text/css">
	.st0{fill:none;stroke:#FFFFFF;stroke-width:3;stroke-linecap:round;stroke-linejoin:round;stroke-miterlimit:10;}
	.st1{fill:none;stroke:#FFFFFF;stroke-width:3.0001;stroke-linecap:round;stroke-linejoin:round;stroke-miterlimit:10.0005;}
</style>
<g>
	<ellipse class="st0" cx="112.6" cy="148.6" rx="60.8" ry="60.8"/>
	<ellipse class="st1" cx="112.6" cy="148.6" rx="47.6" ry="47.6"/>
	<path class="st0" d="M161.3,93.6c7.9-3.7,16.6-5.8,25.9-5.8c33.6,0,60.8,27.2,60.8,60.8c0,33.6-27.2,60.8-60.8,60.8
		c-11.4,0-22.1-3.2-31.2-8.6"/>
	<path class="st0" d="M135.5,180.6c-5.8-9.3-9.1-20.3-9.1-32c0-11.3,3.1-21.9,8.5-30.9"/>
	<path class="st0" d="M178.9,101.8c2.7-0.5,5.4-0.7,8.3-0.7c26.3,0,47.6,21.4,47.6,47.6s-21.4,47.6-47.6,47.6
		c-6.4,0-12.6-1.3-18.2-3.6"/>
	<path class="st0" d="M144.8,170.2c-3.3-6.5-5.2-13.8-5.2-21.5c0-7.4,1.7-14.4,4.7-20.7"/>
</g>
</svg>
