<?xml version="1.0" encoding="utf-8"?>
<!-- Generator: Adobe Illustrator 25.2.1, SVG Export Plug-In . SVG Version: 6.00 Build 0)  -->
<svg version="1.1" id="Ebene_1" xmlns="http://www.w3.org/2000/svg" xmlns:xlink="http://www.w3.org/1999/xlink" x="0px" y="0px"
	 viewBox="0 0 58.58 58.58" style="enable-background:new 0 0 58.58 58.58;" xml:space="preserve">
<style type="text/css">
	.st0{fill:#2B2B2B;}
	.st1{fill:#FFFFFF;}
</style>
<circle class="fill-accent" cx="29.29" cy="29.29" r="29.29"/>
<g>
	<path class="st1" d="M28.8,28.25c0,1.72-0.28,3-0.85,3.83c-0.56,0.83-1.43,1.24-2.61,1.24c-1.14,0-2-0.43-2.57-1.28
		c-0.58-0.85-0.87-2.12-0.87-3.79c0-1.74,0.28-3.02,0.84-3.85c0.56-0.83,1.43-1.24,2.6-1.24c1.14,0,2,0.43,2.58,1.3
		C28.5,25.32,28.8,26.59,28.8,28.25z M23.97,28.25c0,1.21,0.1,2.08,0.31,2.6c0.21,0.52,0.56,0.79,1.06,0.79
		c0.49,0,0.84-0.27,1.05-0.8c0.22-0.53,0.32-1.39,0.32-2.59c0-1.21-0.11-2.08-0.33-2.61s-0.57-0.79-1.05-0.79
		c-0.49,0-0.84,0.26-1.05,0.79S23.97,27.04,23.97,28.25z"/>
	<path class="st1" d="M29.77,28.99c0-1.95,0.41-3.4,1.24-4.36c0.83-0.95,2.06-1.43,3.71-1.43c0.56,0,1,0.03,1.32,0.1v1.67
		c-0.4-0.09-0.8-0.13-1.19-0.13c-0.71,0-1.3,0.11-1.75,0.32c-0.45,0.22-0.79,0.54-1.02,0.96s-0.36,1.02-0.4,1.8h0.09
		c0.45-0.76,1.16-1.15,2.14-1.15c0.88,0,1.57,0.28,2.07,0.83c0.5,0.55,0.75,1.32,0.75,2.29c0,1.05-0.3,1.89-0.89,2.5
		c-0.59,0.61-1.42,0.92-2.47,0.92c-0.73,0-1.36-0.17-1.91-0.51s-0.96-0.83-1.25-1.48C29.92,30.69,29.77,29.91,29.77,28.99z
		 M33.34,31.65c0.45,0,0.79-0.15,1.03-0.45c0.24-0.3,0.36-0.72,0.36-1.28c0-0.48-0.11-0.86-0.33-1.14s-0.56-0.42-1.01-0.42
		c-0.42,0-0.78,0.14-1.08,0.41c-0.3,0.27-0.45,0.59-0.45,0.96c0,0.54,0.14,0.99,0.42,1.36C32.55,31.47,32.9,31.65,33.34,31.65z"/>
</g>
</svg>
