<svg xmlns="http://www.w3.org/2000/svg" viewBox="0 0 36.256 36.667"><path fill="#FFF" d="M12.964 6.091a12.993 12.993 0 015.164-1.055c1.801 0 3.522.352 5.164 1.055 1.644.702 3.059 1.646 4.245 2.834 1.188 1.188 2.132 2.603 2.834 4.244a12.993 12.993 0 011.055 5.164c0 1.802-.352 3.523-1.055 5.165-.702 1.642-1.646 3.057-2.834 4.244-1.187 1.187-2.602 2.133-4.245 2.835a13 13 0 01-5.164 1.053c-1.8 0-3.521-.351-5.164-1.053s-3.057-1.648-4.244-2.835c-1.188-1.188-2.132-2.603-2.834-4.244a12.987 12.987 0 01-1.055-5.165c0-1.8.352-3.521 1.055-5.164.702-1.642 1.646-3.057 2.834-4.244s2.601-2.132 4.244-2.834zm-4.898 17.6l2.88-2.879a7.62 7.62 0 01-.416-2.479c0-.84.139-1.666.416-2.478l-2.88-2.879a11.335 11.335 0 00-1.336 5.356c0 1.882.446 3.668 1.336 5.359zm6.034-1.327c1.112 1.112 2.456 1.669 4.028 1.669 1.574 0 2.917-.557 4.029-1.669 1.113-1.113 1.67-2.457 1.67-4.03 0-1.572-.557-2.915-1.67-4.028-1.112-1.113-2.455-1.67-4.029-1.67-1.572 0-2.916.557-4.028 1.67-1.113 1.113-1.67 2.456-1.67 4.028 0 1.573.556 2.916 1.67 4.03zm4.028-15.428c-1.879 0-3.665.446-5.356 1.337l2.879 2.879a7.627 7.627 0 012.478-.416c.842 0 1.667.139 2.479.416l2.879-2.879a11.345 11.345 0 00-5.359-1.337zm0 22.795a11.33 11.33 0 005.357-1.335l-2.879-2.879a7.65 7.65 0 01-2.479.415c-.84 0-1.666-.139-2.478-.415l-2.879 2.879a11.345 11.345 0 005.358 1.335zm7.184-8.919l2.879 2.879a11.345 11.345 0 001.336-5.357c0-1.879-.446-3.665-1.336-5.356l-2.879 2.879c.276.812.416 1.638.416 2.478 0 .84-.14 1.666-.416 2.477z"/></svg>