<svg xmlns="http://www.w3.org/2000/svg" viewBox="0 0 179.596 153.559"><g fill="#333"><path d="M51.584 113.78h76.679V82.281l3.771 4.106V41.97H99.715v3.31l-9.647-10.505-9.355 10.188V41.97h-32.61v44.417l3.481-3.791v31.184zm34.536-4V81.076h10.166v28.703H86.12v.001zm41.914-63.81v30.146L100.35 45.97h27.684zm-37.966-5.281l34.194 37.235v31.854h-23.977V77.076H82.12v32.703H55.584V78.24l34.484-37.551zM52.103 45.97h27.686L52.103 76.117V45.97z"/><path d="M26.727 0v153.559H153.41V0H26.727zM149.41 149.559H30.727V4H149.41v145.559z"/></g></svg>