<svg version="1.1" id="Ebene_1" xmlns="http://www.w3.org/2000/svg" xmlns:xlink="http://www.w3.org/1999/xlink" x="0px" y="0px"
	 width="16px" height="16px" viewBox="0 0 16 16" enable-background="new 0 0 16 16" xml:space="preserve">
<linearGradient id="SVGID_1_" gradientUnits="userSpaceOnUse" x1="18363.4297" y1="-26108.6953" x2="18675.3164" y2="-26420.582" gradientTransform="matrix(0.39 0 0 -0.3895 -7123.1372 -10131.2793)">
	<stop  offset="0" style="stop-color:#C9473D"/>
	<stop  offset="1" style="stop-color:#9E3939"/>
</linearGradient>
<path fill="url(#SVGID_1_)" d="M11.348,2.056L8.341,5.061c-0.191,0.189-0.498,0.189-0.689,0l-3-2.984
	c-0.191-0.189-0.498-0.189-0.689,0L2.056,3.985c-0.189,0.19-0.188,0.498,0.002,0.687l3.009,2.974
	c0.19,0.189,0.191,0.499,0.001,0.688l-3.02,3.02c-0.188,0.19-0.188,0.498,0,0.688l1.895,1.896c0.191,0.188,0.498,0.188,0.689,0
	l3.02-3.021c0.191-0.188,0.498-0.188,0.689,0l3.028,3.026c0.188,0.189,0.5,0.189,0.688,0l1.896-1.895
	c0.188-0.191,0.188-0.498,0-0.689l-3.028-3.026c-0.189-0.19-0.189-0.499,0-0.689l3.005-3.006c0.189-0.191,0.189-0.499,0-0.689
	l-1.895-1.895C11.844,1.865,11.537,1.866,11.348,2.056z"/>
<linearGradient id="SVGID_2_" gradientUnits="userSpaceOnUse" x1="-2.7432" y1="98.1982" x2="139.7957" y2="-44.3417" gradientTransform="matrix(7.3136 0 0 -7.3804 1885.1812 2604.928)">
	<stop  offset="0" style="stop-color:#EDAD3B"/>
	<stop  offset="1" style="stop-color:#DBA049"/>
</linearGradient>
<path fill="url(#SVGID_2_)" stroke="#FFFFFF" stroke-width="0.5" stroke-miterlimit="10" d="M11.915,14.242
	c-0.24,0-0.467-0.096-0.636-0.271l-2.607-2.702c-0.391-0.405-0.475-0.569-0.393-0.763c0.052-0.121,0.17-0.2,0.303-0.2H10
	c0.005-0.069,0.009-0.159,0.009-0.265V7.767c0-0.499,0.406-0.905,0.904-0.905h2.005c0.499,0,0.904,0.406,0.904,0.905v2.274
	c0,0.106,0.005,0.195,0.011,0.265h1.396c0.135,0,0.254,0.079,0.307,0.202c0.082,0.194-0.009,0.379-0.377,0.761l-2.607,2.702
	C12.383,14.146,12.157,14.242,11.915,14.242L11.915,14.242z"/>
</svg>
