<?xml version="1.0" encoding="UTF-8"?>
<svg width="600px" height="121px" viewBox="0 0 600 121" version="1.1" xmlns="http://www.w3.org/2000/svg" xmlns:xlink="http://www.w3.org/1999/xlink">
    <!-- Generator: Sketch 44.1 (41455) - http://www.bohemiancoding.com/sketch -->
    <title>calltoaction11</title>
    <desc>Created with Sketch.</desc>
    <defs></defs>
    <g id="Calltoaction" stroke="none" stroke-width="1" fill="none" fill-rule="evenodd">
        <g id="11">
            <rect id="Rectangle-11" fill="#4990E2" x="0" y="0" width="600" height="120.264317"></rect>
            <g id="Group-11" transform="translate(478.414097, 42.290749)">
                <rect id="Rectangle" stroke="#FFFFFF" x="0.5" y="0.5" width="95.1453744" height="35.9789902"></rect>
                <path d="M17.1806167,18.1508205 C17.1806167,17.5802847 17.2686611,17.0713884 17.4447524,16.6241165 C17.6208437,16.1768446 17.8585634,15.798254 18.1579186,15.4883333 C18.4572738,15.1784125 18.8059294,14.9424537 19.2038958,14.7804497 C19.6018621,14.6184457 20.0227141,14.5374449 20.4664642,14.5374449 C20.8961269,14.5374449 21.2852829,14.6272502 21.6339437,14.8068633 C21.9826045,14.9864764 22.2731508,15.1960219 22.5055913,15.4355061 L21.6497918,16.3969599 C21.4737005,16.2349559 21.295851,16.108172 21.1162378,16.0166045 C20.9366247,15.9250371 20.7270792,15.879254 20.487595,15.879254 C20.2481108,15.879254 20.0244782,15.9303197 19.8166905,16.0324527 C19.6089027,16.1345856 19.4275314,16.2807392 19.272571,16.4709178 C19.1176107,16.6610965 18.9961095,16.8935335 18.9080639,17.1682359 C18.8200182,17.4429384 18.775996,17.7528544 18.775996,18.0979934 C18.775996,18.8094023 18.9274323,19.3605598 19.2303093,19.7514825 C19.5331864,20.1424053 19.9381903,20.3378637 20.4453333,20.3378637 C20.7270794,20.3378637 20.9736035,20.2815153 21.1849131,20.1688169 C21.3962227,20.0561184 21.5863984,19.9082039 21.7554461,19.725069 L22.6112456,20.6653919 C22.3224558,21.0034872 21.99317,21.2570549 21.6233783,21.4261025 C21.2535865,21.5951502 20.8538652,21.6796728 20.4242024,21.6796728 C19.9804523,21.6796728 19.5613613,21.6039546 19.1669168,21.4525161 C18.7724722,21.3010776 18.4273385,21.077445 18.1315051,20.7816116 C17.8356717,20.4857782 17.6032346,20.1177528 17.434187,19.6775246 C17.2651393,19.2372963 17.1806167,18.7284 17.1806167,18.1508205 Z M26.4570606,21.6796728 C25.9921795,21.6796728 25.5678058,21.5969111 25.1839268,21.4313852 C24.8000477,21.2658594 24.4707619,21.0281397 24.1960594,20.718219 C23.921357,20.4082983 23.7082897,20.0314685 23.5568512,19.5877184 C23.4054127,19.1439683 23.3296945,18.6403548 23.3296945,18.0768626 C23.3296945,17.5133704 23.4054127,17.0115177 23.5568512,16.5712894 C23.7082897,16.1310611 23.921357,15.7612749 24.1960594,15.4619197 C24.4707619,15.1625645 24.8000477,14.9336492 25.1839268,14.775167 C25.5678058,14.6166848 25.9921795,14.5374449 26.4570606,14.5374449 C26.9219416,14.5374449 27.3463153,14.6166848 27.7301944,14.775167 C28.1140734,14.9336492 28.4433592,15.1643253 28.7180617,15.4672024 C28.9927641,15.7700795 29.2058314,16.1416265 29.3572699,16.5818548 C29.5087085,17.0220831 29.5844266,17.520414 29.5844266,18.0768626 C29.5844266,18.6403548 29.5087085,19.1439683 29.3572699,19.5877184 C29.2058314,20.0314685 28.9927641,20.4082983 28.7180617,20.718219 C28.4433592,21.0281397 28.1140734,21.2658594 27.7301944,21.4313852 C27.3463153,21.5969111 26.9219416,21.6796728 26.4570606,21.6796728 Z M26.4570606,20.3378637 C26.9289853,20.3378637 27.3022932,20.1353617 27.5769957,19.7303517 C27.8516981,19.3253417 27.9890473,18.7741842 27.9890473,18.0768626 C27.9890473,17.3865846 27.8516981,16.8477533 27.5769957,16.4603524 C27.3022932,16.0729515 26.9289853,15.879254 26.4570606,15.879254 C25.9851359,15.879254 25.6118279,16.0729515 25.3371254,16.4603524 C25.062423,16.8477533 24.9250738,17.3865846 24.9250738,18.0768626 C24.9250738,18.7741842 25.062423,19.3253417 25.3371254,19.7303517 C25.6118279,20.1353617 25.9851359,20.3378637 26.4570606,20.3378637 Z M30.883974,14.66423 L32.4793532,14.66423 L34.2754756,18.087428 L34.9516629,19.6088493 L34.9939246,19.6088493 C34.9587063,19.2425794 34.9182059,18.8340537 34.8724222,18.3832599 C34.8266384,17.9324662 34.8037469,17.5028098 34.8037469,17.094278 L34.8037469,14.66423 L36.2829065,14.66423 L36.2829065,21.5528876 L34.6875272,21.5528876 L32.8914049,18.1191243 L32.2152176,16.6188338 L32.1729559,16.6188338 C32.2081742,16.999191 32.2486746,17.4077167 32.2944583,17.8444232 C32.340242,18.2811296 32.3631336,18.7037425 32.3631336,19.1122743 L32.3631336,21.5528876 L30.883974,21.5528876 L30.883974,14.66423 Z M39.2517912,15.9743428 L37.3605799,15.9743428 L37.3605799,14.66423 L42.7066854,14.66423 L42.7066854,15.9743428 L40.8154742,15.9743428 L40.8154742,21.5528876 L39.2517912,21.5528876 L39.2517912,15.9743428 Z M46.7004163,18.7002227 L46.5419349,18.0662971 C46.4433238,17.7211582 46.3482359,17.3548937 46.2566684,16.9674929 C46.165101,16.580092 46.0735349,16.206784 45.9819674,15.8475577 L45.9397057,15.8475577 C45.8551818,16.2138277 45.7688984,16.5888965 45.6808527,16.9727756 C45.5928071,17.3566546 45.4994801,17.7211582 45.400869,18.0662971 L45.2318221,18.7002227 L46.7004163,18.7002227 Z M47.0173791,19.9152466 L44.9148594,19.9152466 L44.4922423,21.5528876 L42.9074285,21.5528876 L45.0627753,14.66423 L46.9328557,14.66423 L49.0882025,21.5528876 L47.4399961,21.5528876 L47.0173791,19.9152466 Z M49.5108196,18.1508205 C49.5108196,17.5802847 49.5988639,17.0713884 49.7749552,16.6241165 C49.9510465,16.1768446 50.1887662,15.798254 50.4881215,15.4883333 C50.7874767,15.1784125 51.1361323,14.9424537 51.5340986,14.7804497 C51.932065,14.6184457 52.3529169,14.5374449 52.796667,14.5374449 C53.2263298,14.5374449 53.6154857,14.6272502 53.9641465,14.8068633 C54.3128073,14.9864764 54.6033536,15.1960219 54.8357942,15.4355061 L53.9799947,16.3969599 C53.8039034,16.2349559 53.6260538,16.108172 53.4464407,16.0166045 C53.2668275,15.9250371 53.057282,15.879254 52.8177978,15.879254 C52.5783137,15.879254 52.3546811,15.9303197 52.1468933,16.0324527 C51.9391056,16.1345856 51.7577342,16.2807392 51.6027739,16.4709178 C51.4478135,16.6610965 51.3263123,16.8935335 51.2382667,17.1682359 C51.150221,17.4429384 51.1061989,17.7528544 51.1061989,18.0979934 C51.1061989,18.8094023 51.2576351,19.3605598 51.5605122,19.7514825 C51.8633892,20.1424053 52.2683932,20.3378637 52.7755361,20.3378637 C53.0572822,20.3378637 53.3038064,20.2815153 53.5151159,20.1688169 C53.7264255,20.0561184 53.9166013,19.9082039 54.0856489,19.725069 L54.9414484,20.6653919 C54.6526587,21.0034872 54.3233729,21.2570549 53.9535811,21.4261025 C53.5837894,21.5951502 53.1840681,21.6796728 52.7544053,21.6796728 C52.3106552,21.6796728 51.8915642,21.6039546 51.4971196,21.4525161 C51.1026751,21.3010776 50.7575413,21.077445 50.4617079,20.7816116 C50.1658745,20.4857782 49.9334375,20.1177528 49.7643898,19.6775246 C49.5953421,19.2372963 49.5108196,18.7284 49.5108196,18.1508205 Z M57.3292346,15.9743428 L55.4380234,15.9743428 L55.4380234,14.66423 L60.7841289,14.66423 L60.7841289,15.9743428 L58.8929177,15.9743428 L58.8929177,21.5528876 L57.3292346,21.5528876 L57.3292346,15.9743428 Z M64.0171492,14.66423 L65.5808322,14.66423 L65.5808322,18.5206104 C65.5808322,19.1968011 65.6829636,19.6687187 65.8872295,19.9363775 C66.0914954,20.2040363 66.3873244,20.3378637 66.7747253,20.3378637 C67.1621262,20.3378637 67.4614769,20.2040363 67.6727865,19.9363775 C67.884096,19.6687187 67.9897492,19.1968011 67.9897492,18.5206104 L67.9897492,14.66423 L69.4900397,14.66423 L69.4900397,18.3621291 C69.4900397,19.5172881 69.2593635,20.3589919 68.7980043,20.8872658 C68.3366451,21.4155397 67.6622255,21.6796728 66.7747253,21.6796728 C65.8801814,21.6796728 65.1969574,21.4155397 64.7250327,20.8872658 C64.253108,20.3589919 64.0171492,19.5172881 64.0171492,18.3621291 L64.0171492,14.66423 Z M71.5291669,19.6194147 C71.7756947,19.8307243 72.0486321,20.0032912 72.3479874,20.1371206 C72.6473426,20.27095 72.9414107,20.3378637 73.2302004,20.3378637 C73.5542084,20.3378637 73.7954499,20.2779935 73.9539321,20.1582514 C74.1124143,20.0385093 74.1916542,19.8765078 74.1916542,19.6722419 C74.1916542,19.5665871 74.1687626,19.475021 74.1229789,19.3975408 C74.0771952,19.3200606 74.0102815,19.251386 73.9222358,19.191515 C73.8341901,19.1316439 73.7285369,19.0752956 73.605273,19.0224682 L73.1985041,18.8481386 L72.3004429,18.4677833 C72.1243516,18.3973468 71.9535456,18.3057807 71.7880198,18.1930822 C71.622494,18.0803838 71.4745795,17.9483173 71.3442719,17.7968788 C71.2139643,17.6454403 71.110072,17.4693516 71.0325919,17.2686075 C70.9551117,17.0678634 70.9163722,16.840709 70.9163722,16.5871375 C70.9163722,16.3053914 70.9762423,16.0394975 71.0959844,15.7894479 C71.2157265,15.5393982 71.3847716,15.3210483 71.6031248,15.1343915 C71.8214781,14.9477347 72.0803284,14.8015811 72.3796836,14.6959263 C72.6790389,14.5902715 73.0083247,14.5374449 73.367551,14.5374449 C73.7690391,14.5374449 74.1652386,14.6149239 74.5561613,14.7698843 C74.9470841,14.9248447 75.290457,15.1502381 75.5862904,15.4460715 L74.7938834,16.4286561 C74.5684866,16.2525648 74.3430931,16.1169766 74.1176962,16.0218873 C73.8922993,15.9267979 73.6422534,15.879254 73.367551,15.879254 C73.0998922,15.879254 72.8868249,15.9338415 72.7283427,16.0430181 C72.5698605,16.1521947 72.4906206,16.3053919 72.4906206,16.5026141 C72.4906206,16.6082689 72.5170339,16.6980741 72.5698613,16.7720325 C72.6226887,16.8459908 72.6966459,16.9129045 72.7917352,16.9727756 C72.8868246,17.0326466 72.9977604,17.088995 73.1245462,17.1418224 C73.2513319,17.1946498 73.3886811,17.252759 73.5365978,17.3161519 L74.4240935,17.6753764 C74.8467127,17.844424 75.1795203,18.0768611 75.4225263,18.3726945 C75.6655323,18.6685279 75.7870335,19.0594447 75.7870335,19.5454567 C75.7870335,19.8342465 75.7289242,20.1071839 75.6127039,20.3642772 C75.4964837,20.6213706 75.3274385,20.8467641 75.1055635,21.0404645 C74.8836884,21.2341649 74.610751,21.389123 74.286743,21.5053432 C73.962735,21.6215635 73.5964706,21.6796728 73.1879387,21.6796728 C72.737145,21.6796728 72.2881189,21.5969111 71.8408469,21.4313852 C71.393575,21.2658594 70.9938537,21.0175744 70.6416711,20.6865227 L71.5291669,19.6194147 Z" id="CONTACT-US" fill="#FFFFFF"></path>
            </g>
            <path d="M41.9312775,61.3321586 C41.9312775,60.3577044 42.066959,59.4819422 42.338326,58.7048458 C42.609693,57.9277494 42.9859007,57.2678441 43.4669604,56.7251101 C43.94802,56.1823761 44.5184989,55.7660807 45.1784141,55.4762115 C45.8383293,55.1863422 46.5568243,55.0414097 47.3339207,55.0414097 C48.0740125,55.0414097 48.7215831,55.1925095 49.276652,55.4947137 C49.8317208,55.7969178 50.2881039,56.1453725 50.645815,56.5400881 L49.7762115,57.5207048 C49.455505,57.1753287 49.100883,56.9008821 48.7123348,56.6973568 C48.3237866,56.4938316 47.8704872,56.3920705 47.3524229,56.3920705 C46.7726843,56.3920705 46.2484605,56.5061663 45.7797357,56.7343612 C45.3110109,56.9625562 44.9101338,57.2894252 44.5770925,57.714978 C44.2440512,58.1405308 43.985023,58.6555036 43.8,59.2599119 C43.614977,59.8643202 43.522467,60.5427275 43.522467,61.2951542 C43.522467,62.0599157 43.6118934,62.747574 43.7907489,63.3581498 C43.9696044,63.9687255 44.2193817,64.4898657 44.5400881,64.9215859 C44.8607946,65.3533061 45.2524206,65.6863424 45.714978,65.9207048 C46.1775354,66.1550673 46.6986755,66.2722467 47.2784141,66.2722467 C47.8704875,66.2722467 48.3854604,66.1550673 48.823348,65.9207048 C49.2612357,65.6863424 49.6775311,65.3533061 50.0722467,64.9215859 L50.9418502,65.8651982 C50.4607905,66.4202671 49.9180647,66.8519808 49.3136564,67.1603524 C48.7092481,67.468724 48.0185061,67.6229075 47.2414097,67.6229075 C46.4766482,67.6229075 45.7704878,67.4810587 45.1229075,67.1973568 C44.4753272,66.913655 43.9140993,66.5035269 43.439207,65.9669604 C42.9643148,65.4303938 42.5942745,64.7704885 42.3290749,63.9872247 C42.0638753,63.2039608 41.9312775,62.3189477 41.9312775,61.3321586 Z M52.6070485,65.0696035 C52.6070485,64.0828144 53.0480132,63.3273154 53.9299559,62.8030837 C54.8118987,62.278852 56.2149684,61.9118953 58.139207,61.7022026 C58.139207,61.4185008 58.111454,61.1409705 58.0559471,60.8696035 C58.0004403,60.5982365 57.9017628,60.3577103 57.7599119,60.1480176 C57.618061,59.9383249 57.4299571,59.7687231 57.1955947,59.639207 C56.9612323,59.509691 56.6590327,59.4449339 56.2889868,59.4449339 C55.7585877,59.4449339 55.2682842,59.5436113 54.8180617,59.7409692 C54.3678392,59.938327 53.9638784,60.1603512 53.6061674,60.4070485 L52.9955947,59.3524229 C53.4149801,59.0810559 53.9268692,58.818944 54.5312775,58.5660793 C55.1356858,58.3132146 55.8017585,58.1867841 56.5295154,58.1867841 C57.6273183,58.1867841 58.422905,58.5229041 58.9162996,59.1951542 C59.4096941,59.8674042 59.6563877,60.7647521 59.6563877,61.8872247 L59.6563877,67.4008811 L58.3982379,67.4008811 L58.2687225,66.3277533 L58.2317181,66.3277533 C57.7999978,66.6854643 57.3343637,66.9907476 56.8348018,67.2436123 C56.3352398,67.496477 55.8079323,67.6229075 55.2528634,67.6229075 C54.4881019,67.6229075 53.8559496,67.4008833 53.3563877,66.9568282 C52.8568257,66.5127731 52.6070485,65.8837045 52.6070485,65.0696035 Z M54.1057269,64.9585903 C54.1057269,65.4766546 54.2568267,65.8466949 54.5590308,66.0687225 C54.861235,66.29075 55.234359,66.4017621 55.6784141,66.4017621 C56.1101343,66.4017621 56.5202624,66.300001 56.9088106,66.0964758 C57.2973588,65.8929505 57.7074868,65.5938346 58.139207,65.1991189 L58.139207,62.7013216 C57.3867804,62.8000005 56.7515444,62.9171799 56.2334802,63.0528634 C55.7154159,63.1885469 55.2991205,63.3488978 54.9845815,63.5339207 C54.6700425,63.7189437 54.4449346,63.9317169 54.3092511,64.1722467 C54.1735676,64.4127765 54.1057269,64.6748884 54.1057269,64.9585903 Z M62.5242291,54.2273128 L64.0414097,54.2273128 L64.0414097,65.6986784 C64.0414097,65.9453757 64.0845811,66.1180612 64.1709251,66.2167401 C64.2572692,66.315419 64.3559466,66.3647577 64.4669604,66.3647577 L64.6057269,66.3647577 C64.6488989,66.3647577 64.713656,66.352423 64.8,66.3277533 L65.0035242,67.4748899 C64.9048453,67.5242293 64.7876659,67.5612334 64.6519824,67.5859031 C64.5162989,67.6105728 64.3436134,67.6229075 64.1339207,67.6229075 C63.5541821,67.6229075 63.1409704,67.450222 62.8942731,67.1048458 C62.6475759,66.7594696 62.5242291,66.2537478 62.5242291,65.5876652 L62.5242291,54.2273128 Z M67.2422907,54.2273128 L68.7594714,54.2273128 L68.7594714,65.6986784 C68.7594714,65.9453757 68.8026427,66.1180612 68.8889868,66.2167401 C68.9753308,66.315419 69.0740083,66.3647577 69.185022,66.3647577 L69.3237885,66.3647577 C69.3669606,66.3647577 69.4317176,66.352423 69.5180617,66.3277533 L69.7215859,67.4748899 C69.622907,67.5242293 69.5057276,67.5612334 69.3700441,67.5859031 C69.2343606,67.6105728 69.0616751,67.6229075 68.8519824,67.6229075 C68.2722438,67.6229075 67.8590321,67.450222 67.6123348,67.1048458 C67.3656375,66.7594696 67.2422907,66.2537478 67.2422907,65.5876652 L67.2422907,54.2273128 Z M75.5682819,58.4088106 L77.1039648,58.4088106 L77.1039648,63.9039648 C77.1039648,64.7550703 77.2365626,65.3687206 77.5017621,65.7449339 C77.7669617,66.1211473 78.1955918,66.3092511 78.7876652,66.3092511 C79.25639,66.3092511 79.6696017,66.188988 80.0273128,65.9484581 C80.3850238,65.7079283 80.7797335,65.3224696 81.2114537,64.7920705 L81.2114537,58.4088106 L82.7286344,58.4088106 L82.7286344,67.4008811 L81.4704846,67.4008811 L81.3409692,65.9947137 L81.2854626,65.9947137 C80.8660772,66.4881082 80.4251124,66.8828179 79.9625551,67.1788546 C79.4999977,67.4748913 78.9541882,67.6229075 78.3251101,67.6229075 C77.3629908,67.6229075 76.6629978,67.3268752 76.2251101,66.7348018 C75.7872225,66.1427283 75.5682819,65.2669661 75.5682819,64.107489 L75.5682819,58.4088106 Z M85.522467,65.3656388 C85.9171826,65.6863452 86.3211433,65.9453735 86.7343612,66.1427313 C87.1475792,66.3400891 87.6255479,66.4387665 88.1682819,66.4387665 C88.7603554,66.4387665 89.2044038,66.3030851 89.5004405,66.0317181 C89.7964773,65.7603511 89.9444934,65.4273147 89.9444934,65.0325991 C89.9444934,64.7982367 89.88282,64.5947145 89.7594714,64.4220264 C89.6361227,64.2493383 89.4788556,64.0982385 89.2876652,63.9687225 C89.0964748,63.8392064 88.8775343,63.7251106 88.630837,63.6264317 L87.8907489,63.3303965 C87.5700424,63.2193827 87.2493408,63.0929523 86.9286344,62.9511013 C86.6079279,62.8092504 86.3211466,62.6365649 86.0682819,62.4330396 C85.8154172,62.2295144 85.6088114,61.9920718 85.4484581,61.7207048 C85.2881049,61.4493379 85.2079295,61.1224689 85.2079295,60.7400881 C85.2079295,60.3823771 85.2788539,60.0462571 85.4207048,59.7317181 C85.5625558,59.417179 85.766078,59.1458161 86.0312775,58.9176211 C86.2964771,58.6894262 86.6202624,58.5105733 87.0026432,58.3810573 C87.3850239,58.2515412 87.8167377,58.1867841 88.2977974,58.1867841 C88.8652011,58.1867841 89.3863412,58.2854616 89.8612335,58.4828194 C90.3361257,58.6801772 90.7462538,58.9207034 91.09163,59.2044053 L90.3700441,60.1665198 C90.0616725,59.9321574 89.7409708,59.7409699 89.4079295,59.5929515 C89.0748882,59.4449332 88.7110152,59.3709251 88.3162996,59.3709251 C87.7488958,59.3709251 87.3326004,59.5004392 87.0674009,59.7594714 C86.8022013,60.0185035 86.6696035,60.3207031 86.6696035,60.6660793 C86.6696035,60.875772 86.7251096,61.0577085 86.8361233,61.2118943 C86.9471371,61.3660801 87.0951533,61.5017615 87.2801762,61.6189427 C87.4651992,61.7361239 87.6779724,61.8409687 87.9185022,61.9334802 C88.159032,62.0259917 88.4088093,62.1215854 88.6678414,62.2202643 C88.9885479,62.343613 89.3123332,62.4731271 89.639207,62.6088106 C89.9660809,62.7444941 90.2590295,62.9140959 90.5180617,63.1176211 C90.7770938,63.3211464 90.989867,63.5709236 91.1563877,63.8669604 C91.3229083,64.1629971 91.4061674,64.5207027 91.4061674,64.9400881 C91.4061674,65.310134 91.335243,65.655505 91.1933921,65.9762115 C91.0515411,66.2969179 90.8418516,66.5806155 90.5643172,66.8273128 C90.2867828,67.07401 89.9414118,67.2682812 89.5281938,67.4101322 C89.1149759,67.5519831 88.6431745,67.6229075 88.1127753,67.6229075 C87.4713624,67.6229075 86.8607959,67.505728 86.2810573,67.2713656 C85.7013187,67.0370032 85.1955969,66.740971 84.7638767,66.3832599 L85.522467,65.3656388 Z M93.9409692,56.7436123 L93.9039648,55.0044053 L95.4396476,55.0044053 L95.4026432,56.7436123 L95.1991189,63.7374449 L94.1444934,63.7374449 L93.9409692,56.7436123 Z M93.5709251,66.4757709 C93.5709251,66.1180599 93.6788535,65.8312786 93.8947137,65.6154185 C94.1105738,65.3995584 94.3726857,65.29163 94.6810573,65.29163 C94.977094,65.29163 95.2330386,65.3995584 95.4488987,65.6154185 C95.6647588,65.8312786 95.7726872,66.1180599 95.7726872,66.4757709 C95.7726872,66.8088122 95.6647588,67.0832588 95.4488987,67.2991189 C95.2330386,67.5149791 94.977094,67.6229075 94.6810573,67.6229075 C94.3726857,67.6229075 94.1105738,67.5149791 93.8947137,67.2991189 C93.6788535,67.0832588 93.5709251,66.8088122 93.5709251,66.4757709 Z" id="Call-us!" fill="#FFFFFF"></path>
            <g id="Group-12" transform="translate(157.268722, 48.898678)" stroke="#FFFFFF" stroke-width="4" stroke-linecap="square">
                <path d="M0.660792952,2.64317181 L258.424257,2.64317181" id="Line"></path>
                <path d="M0.660792952,22.4669604 L190.312975,22.4669604" id="Line"></path>
            </g>
        </g>
    </g>
</svg>