<?xml version="1.0" encoding="UTF-8"?>
<svg width="600px" height="121px" viewBox="0 0 600 121" version="1.1" xmlns="http://www.w3.org/2000/svg" xmlns:xlink="http://www.w3.org/1999/xlink">
    <!-- Generator: Sketch 44.1 (41455) - http://www.bohemiancoding.com/sketch -->
    <title>calltoaction02</title>
    <desc>Created with Sketch.</desc>
    <defs></defs>
    <g id="Calltoaction" stroke="none" stroke-width="1" fill="none" fill-rule="evenodd">
        <g id="02">
            <rect id="Rectangle-20" fill="#4990E2" x="0" y="0" width="600" height="120.264317"></rect>
            <path d="M46.8025808,44.2201559 L46.35819,44.2201559 C46.4371932,43.6939969 46.4766942,43.2336147 46.4766942,42.8389954 C46.4766942,42.2076046 46.3713581,41.6715881 46.1606829,41.2309299 C45.9105061,40.7310789 45.5467677,40.3430424 45.0694566,40.0668089 C44.5921456,39.7905754 44.0704031,39.6524608 43.5042135,39.6524608 C42.3850014,39.6524608 41.3036613,40.1786119 40.2601606,41.2309299 C39.21666,42.283248 38.37068,43.6068469 37.7221954,45.2017664 C37.0737108,46.7966859 36.7494733,48.3406107 36.7494733,49.8335869 C36.7494733,51.1358304 37.004584,52.1223638 37.514813,52.7932165 C38.0250421,53.4640693 38.7344143,53.7994906 39.6429512,53.7994906 C40.2354752,53.7994906 40.8625537,53.661376 41.5242056,53.3851425 C42.1858574,53.108909 42.7602679,52.7208725 43.2474544,52.2210215 C43.5898016,51.8724411 43.8909968,51.464674 44.151049,50.9977079 C44.4111012,50.5307417 44.7155881,49.8730528 45.064519,49.0246214 L45.5089098,49.0246214 C44.8966349,51.2607972 44.4983331,52.878712 44.3139923,53.8784141 L43.8696015,53.8784141 C43.9091031,53.5890266 43.9288536,53.3588355 43.9288536,53.1878338 C43.9288536,52.8458305 43.8498516,52.6748314 43.6918452,52.6748314 C43.5865075,52.6748314 43.4449623,52.7340234 43.2672051,52.8524091 C42.7866022,53.1615276 42.3833628,53.401584 42.0574745,53.5725857 C41.7315863,53.7435874 41.3546809,53.8849905 40.9267468,53.9967993 C40.4988128,54.1086081 40.0050502,54.1645116 39.4454442,54.1645116 C37.9443833,54.1645116 36.7823953,53.760033 35.9594452,52.9510635 C35.1364952,52.142094 34.7250263,50.9615424 34.7250263,49.4093733 C34.7250263,47.8572042 35.1134529,46.2935488 35.8903178,44.7183602 C36.6671826,43.1431717 37.732064,41.8442361 39.0849939,40.8215145 C40.4379237,39.7987929 41.9241492,39.2874398 43.5437149,39.2874398 C44.0901537,39.2874398 44.5477071,39.3466318 44.9163887,39.4650176 C45.2850703,39.5834033 45.5829738,39.7297391 45.810108,39.9040293 C46.0372422,40.0783195 46.2890611,40.3101548 46.5655723,40.5995423 C46.6840771,40.717928 46.7861214,40.77712 46.8717082,40.77712 C47.1087178,40.77712 47.3753496,40.3759298 47.6716117,39.5735373 L48.0962518,39.5735373 C47.6485669,40.7376641 47.2173476,42.2865215 46.8025808,44.2201559 Z M48.3776993,47.5694702 C48.8484267,46.3494389 49.5281732,45.3185116 50.4169593,44.4766571 C51.3057453,43.6348027 52.3393551,43.2138818 53.5178195,43.2138818 C54.3802712,43.2138818 55.056726,43.4802458 55.5472042,44.0129818 C56.0376824,44.5457178 56.2829178,45.3349445 56.2829178,46.3806856 C56.2829178,47.4395806 56.0475577,48.5790266 55.5768302,49.7990579 C55.1061028,51.0190891 54.4280021,52.0516607 53.5425079,52.8968036 C52.6570137,53.7419465 51.6250498,54.1645116 50.4465853,54.1645116 C49.5841337,54.1645116 48.906033,53.8965034 48.412263,53.3604789 C47.918493,52.8244544 47.6716117,52.0335835 47.6716117,50.9878424 C47.6716117,49.9289474 47.9069718,48.7895014 48.3776993,47.5694702 Z M51.4390581,44.930467 C50.8234915,45.8052064 50.3313747,46.9002584 49.9626931,48.215656 C49.5940115,49.5310535 49.4096735,50.7938162 49.4096735,52.003982 C49.4096735,53.1746858 49.7948083,53.7600289 50.5650895,53.7600289 C51.2563676,53.7600289 51.9081342,53.3226658 52.5204091,52.4479264 C53.1326839,51.573187 53.6231548,50.4797792 53.9918364,49.1676702 C54.360518,47.8555611 54.544856,46.5911542 54.544856,45.3744115 C54.544856,44.7693286 54.4510411,44.3253886 54.2634085,44.0425781 C54.0757759,43.7597677 53.7877477,43.6183645 53.3993153,43.6183645 C52.7080373,43.6183645 52.0546247,44.0557277 51.4390581,44.930467 Z M67.3235604,52.0829054 C66.8495412,53.4706498 66.033187,54.1645116 64.8744733,54.1645116 C64.2687821,54.1645116 63.8441462,53.967205 63.600553,53.5725857 C63.4952154,53.401584 63.4425474,53.1812582 63.4425474,52.9116017 C63.4425474,52.5301364 63.5577587,52.0039853 63.7881847,51.3331326 L65.7040028,45.5519893 C65.8422584,45.150793 65.9113852,44.8186601 65.9113852,44.5555806 C65.9113852,44.0886145 65.6941296,43.8551349 65.259612,43.8551349 C64.7395076,43.8551349 64.1535759,44.2316618 63.5017995,44.9847269 C62.8500231,45.737792 62.2097775,46.7720078 61.5810437,48.0874054 C60.9523099,49.4028029 60.4042334,50.8628723 59.9367978,52.4676573 L59.5812851,53.8784141 L57.8234726,53.8784141 L60.2429336,45.2066991 C60.3416876,44.8844267 60.3910639,44.6312165 60.3910639,44.4470608 C60.3910639,44.1182115 60.2429351,43.9537892 59.9466731,43.9537892 C59.7425815,43.9537892 59.5598893,44.0179139 59.3985911,44.1461652 C59.2372929,44.2744164 59.0759971,44.4865211 58.9146989,44.7824855 C58.7534007,45.07845 58.577292,45.4895056 58.3863676,46.0156646 L58.1197331,46.7654374 L57.7345945,46.7654374 L58.2481127,45.295488 C58.7221319,43.9077436 59.5220274,43.2138818 60.647823,43.2138818 C61.4444387,43.2138818 61.8427405,43.6117836 61.8427405,44.4075991 C61.8427405,44.7693334 61.7505715,45.3119268 61.5662307,46.0353954 L60.8650808,48.7977165 C61.4444376,47.429703 62.0023893,46.3379394 62.5389528,45.522393 C63.0755162,44.7068465 63.6170092,44.1182149 64.163448,43.7564806 C64.7098869,43.3947463 65.2991103,43.2138818 65.9311359,43.2138818 C67.0174299,43.2138818 67.5605688,43.7203023 67.5605688,44.7331584 C67.5605688,45.1343546 67.4618163,45.6440635 67.2643083,46.2623004 L65.2991134,52.1618289 C65.1937758,52.4775243 65.1411078,52.7307345 65.1411078,52.9214672 C65.1411078,53.2503166 65.3024036,53.4147388 65.625,53.4147388 C65.9015112,53.4147388 66.1648513,53.2618261 66.4150281,52.9559962 C66.6652049,52.6501663 66.9219615,52.115794 67.1853055,51.3528634 L67.45194,50.6030906 L67.8272033,50.6030906 L67.3235604,52.0829054 Z M71.2243241,52.6156388 C71.2243241,52.8852953 71.304972,53.0858904 71.4662702,53.2174301 C71.6275684,53.3489699 71.8398863,53.4147388 72.1032303,53.4147388 C72.438994,53.4147388 72.7533562,53.2700472 73.0463264,52.9806598 C73.3392966,52.6912723 73.624033,52.1618327 73.9005442,51.3923252 L74.1869294,50.6030906 L74.5720681,50.6030906 L74.147428,51.8757313 C73.8643332,52.7110088 73.4956571,53.3012846 73.0413887,53.6465764 C72.5871203,53.9918683 72.0308144,54.1645116 71.3724544,54.1645116 C70.7667631,54.1645116 70.3141474,54.0165316 70.0145936,53.7205672 C69.7150398,53.4246027 69.5652651,53.0135472 69.5652651,52.4873881 C69.5652651,52.1651157 69.6278084,51.7803677 69.7528968,51.3331326 L71.895848,43.8945966 L70.0787834,43.8945966 L70.1775369,43.4901139 L72.0143522,43.4901139 L72.8932584,40.4219645 C73.6372053,40.4022335 74.2428874,40.3068686 74.710323,40.1358669 L73.752414,43.4901139 L76.4286341,43.4901139 L76.369382,43.8945966 L73.6437851,43.8945966 L71.2934515,52.1618289 C71.2473663,52.3196766 71.2243241,52.470945 71.2243241,52.6156388 Z M85.227572,50.5833597 L84.7239291,52.0631746 C84.4474179,52.8129512 84.101784,53.3506118 83.6870172,53.6761727 C83.2722504,54.0017336 82.841031,54.1645116 82.3933462,54.1645116 C82.1431694,54.1645116 81.9209762,54.1168292 81.72676,54.0214629 C81.5325438,53.9260965 81.3827691,53.796203 81.2774315,53.6317783 C81.1655103,53.4344687 81.1095506,53.1977007 81.1095506,52.9214672 C81.1095506,52.7241575 81.1325928,52.5186298 81.178678,52.3048777 C81.2247632,52.0911255 81.2741395,51.887242 81.3268083,51.6932208 C81.3794771,51.4991997 81.4123946,51.3725946 81.4255618,51.3134017 L81.7909498,49.8434523 C81.145757,51.3561595 80.4890527,52.4545 79.8208172,53.1385067 C79.1525818,53.8225134 78.4530848,54.1645116 77.7223051,54.1645116 C77.1034467,54.1645116 76.6310805,53.9425416 76.3051922,53.498595 C75.979304,53.0546483 75.8163624,52.461084 75.8163624,51.7178844 C75.8163624,50.6261045 76.1076823,49.4060915 76.6903309,48.0578091 C77.2729796,46.7095266 78.0267905,45.5651479 78.9517863,44.6246386 C79.8767822,43.6841294 80.8231605,43.2138818 81.7909498,43.2138818 C82.1464642,43.2138818 82.4410759,43.3454196 82.6747937,43.6084991 C82.9085115,43.8715786 83.0451192,44.2431728 83.0846208,44.723293 L83.400632,43.4901139 C84.1511625,43.470383 84.7733034,43.3783065 85.2670734,43.2138818 L82.7389835,52.142098 C82.6402295,52.4972554 82.5908532,52.7471771 82.5908532,52.8918709 C82.5908532,53.2272972 82.7422738,53.3950079 83.0451194,53.3950079 C83.6376434,53.3950079 84.1544483,52.707723 84.5955495,51.3331326 L84.8424333,50.5833597 L85.227572,50.5833597 Z M82.837737,45.3546806 C82.837737,44.8153676 82.7406304,44.3878698 82.5464142,44.0721744 C82.3521979,43.756479 82.0773367,43.5986337 81.7218223,43.5986337 C81.1490491,43.5986337 80.5384293,44.0442179 79.8899447,44.9353997 C79.2414601,45.8265816 78.6983212,46.9298547 78.2605118,48.2452523 C77.8227023,49.5606498 77.6038009,50.797105 77.6038009,51.9546548 C77.6038009,52.5136988 77.6630524,52.9132448 77.7815572,53.1533048 C77.900062,53.3933649 78.0745248,53.5133931 78.3049508,53.5133931 C78.6802161,53.5133931 79.12954,53.2256542 79.6529363,52.6501678 C80.1763325,52.0746814 80.6898456,51.3068296 81.193491,50.3465893 C81.6971365,49.3863491 82.1135429,48.3603544 82.442723,47.2685745 L82.8179863,45.7986251 C82.8311535,45.5881615 82.837737,45.4401815 82.837737,45.3546806 Z M92.2686973,52.7784184 C91.8473469,53.1894801 91.3749807,53.5232573 90.8515844,53.7797598 C90.3281882,54.0362623 89.7932787,54.1645116 89.2468399,54.1645116 C88.4173062,54.1645116 87.7655396,53.9113014 87.2915204,53.4048733 C86.8175011,52.8984453 86.5804951,52.1618337 86.5804951,51.1950165 C86.5804951,50.1032366 86.8372516,48.9292619 87.3507725,47.6730572 C87.8642933,46.4168525 88.5851867,45.3596176 89.5134744,44.5013207 C90.441762,43.6430238 91.498414,43.2138818 92.6834621,43.2138818 C93.0850617,43.2138818 93.4520919,43.2829391 93.7845637,43.4210559 C94.1170355,43.5591726 94.3820215,43.7581235 94.5795295,44.0179145 C94.7770375,44.2777056 94.87579,44.5818867 94.87579,44.930467 C94.87579,45.1935465 94.8165385,45.4500452 94.6980337,45.6999707 C94.5795289,45.9498963 94.4100037,46.1537798 94.1894531,46.3116275 C93.9689025,46.4694753 93.7170836,46.5483979 93.4339888,46.5483979 C93.1640612,46.5483979 92.9583267,46.4727637 92.8167793,46.321493 C92.6752319,46.1702223 92.6044593,45.9827809 92.6044593,45.7591633 C92.6044593,45.3776981 92.7542339,45.0472094 93.0537877,44.7676874 C93.3533416,44.4881654 93.7104965,44.3122336 94.1252633,44.2398868 C93.8355849,43.8255365 93.3780316,43.6183645 92.7525895,43.6183645 C92.0744787,43.6183645 91.4013157,43.9817377 90.7330802,44.7084948 C90.0648448,45.4352519 89.5184142,46.397122 89.0937719,47.5941337 C88.6691297,48.7911455 88.4568118,50.0506198 88.4568118,51.3725943 C88.4568118,52.0302931 88.5818983,52.5186271 88.8320751,52.837611 C89.082252,53.1565949 89.4311775,53.3160845 89.8788624,53.3160845 C90.97174,53.3160845 91.9823075,52.6419533 92.9105952,51.2936708 L93.3154846,51.4515178 C93.0389733,51.9250609 92.6900478,52.3673567 92.2686973,52.7784184 Z M97.3347525,52.6156388 C97.3347525,52.8852953 97.4154004,53.0858904 97.5766986,53.2174301 C97.7379968,53.3489699 97.9503147,53.4147388 98.2136587,53.4147388 C98.5494223,53.4147388 98.8637845,53.2700472 99.1567547,52.9806598 C99.449725,52.6912723 99.7344614,52.1618327 100.010973,51.3923252 L100.297358,50.6030906 L100.682496,50.6030906 L100.257856,51.8757313 C99.9747616,52.7110088 99.6060855,53.3012846 99.1518171,53.6465764 C98.6975486,53.9918683 98.1412428,54.1645116 97.4828827,54.1645116 C96.8771915,54.1645116 96.4245758,54.0165316 96.1250219,53.7205672 C95.8254681,53.4246027 95.6756935,53.0135472 95.6756935,52.4873881 C95.6756935,52.1651157 95.7382367,51.7803677 95.8633251,51.3331326 L98.0062763,43.8945966 L96.1892117,43.8945966 L96.2879652,43.4901139 L98.1247805,43.4901139 L99.0036868,40.4219645 C99.7476336,40.4022335 100.353316,40.3068686 100.820751,40.1358669 L99.8628423,43.4901139 L102.539062,43.4901139 L102.47981,43.8945966 L99.7542135,43.8945966 L97.4038799,52.1618289 C97.3577947,52.3196766 97.3347525,52.470945 97.3347525,52.6156388 Z M117.342214,50.6030906 L116.838571,52.0829054 C116.351385,53.4706498 115.53503,54.1645116 114.389484,54.1645116 C114.165641,54.1645116 113.959907,54.1168292 113.772274,54.0214629 C113.584642,53.9260965 113.444742,53.7896261 113.352572,53.6120474 C113.273569,53.4476227 113.234068,53.2404507 113.234068,52.9905252 C113.234068,52.6353679 113.329529,52.0829092 113.520453,51.3331326 L114.162351,48.7977165 C113.622496,50.09996 113.100753,51.1440412 112.597108,51.9299912 C112.093462,52.7159413 111.586533,53.2848422 111.076304,53.636711 C110.566075,53.9885798 110.017998,54.1645116 109.432058,54.1645116 C108.293095,54.1645116 107.723622,53.6449374 107.723622,52.6057733 C107.723622,52.1848461 107.822374,51.6850025 108.019882,51.1062276 L109.975202,45.2066991 C110.08054,44.8778497 110.133208,44.6246395 110.133208,44.4470608 C110.133208,44.1182115 109.975203,43.9537892 109.659191,43.9537892 C109.382679,43.9537892 109.119339,44.1067019 108.869163,44.4125318 C108.618986,44.7183618 108.362229,45.252734 108.098885,46.0156646 L107.832251,46.7654374 L107.447112,46.7654374 L107.96063,45.295488 C108.434649,43.9077436 109.247712,43.2138818 110.399842,43.2138818 C111.34788,43.2138818 111.821893,43.6315143 111.821893,44.4667917 C111.821893,44.835103 111.713265,45.3579657 111.496006,46.0353954 L109.570312,51.8165388 C109.43864,52.211158 109.372805,52.5465794 109.372805,52.8228128 C109.372805,53.283202 109.586769,53.5133931 110.014703,53.5133931 C110.528224,53.5133931 111.099343,53.1385104 111.728077,52.3887338 C112.356811,51.6389572 112.97566,50.5932319 113.584643,49.2515264 C114.193626,47.9098209 114.728535,46.3905595 115.189387,44.6936967 L115.495523,43.4901139 C116.265804,43.470383 116.881362,43.3783065 117.342214,43.2138818 L114.833875,52.1618289 C114.735121,52.5038322 114.685744,52.7669078 114.685744,52.9510635 C114.685744,53.2601819 114.830581,53.4147388 115.12026,53.4147388 C115.416522,53.4147388 115.688091,53.2552492 115.934976,52.9362653 C116.181861,52.6172814 116.43368,52.0894861 116.690441,51.3528634 L116.957075,50.6030906 L117.342214,50.6030906 Z M120.462825,53.7600289 C121.0751,53.7600289 121.568862,53.5775202 121.944127,53.2124974 C122.319393,52.8474746 122.507022,52.3361215 122.507022,51.6784227 C122.507022,51.2509185 122.426375,50.8299976 122.265076,50.4156474 C122.103778,50.0012971 121.832209,49.5310496 121.45036,49.0048906 C121.127763,48.5642324 120.889112,48.2255226 120.734397,47.988751 C120.579682,47.7519795 120.441429,47.4691732 120.319632,47.1403239 C120.197836,46.8114745 120.136938,46.4563225 120.136938,46.0748572 C120.136938,45.5158132 120.276838,45.0192581 120.556641,44.5851769 C120.836444,44.1510957 121.216641,43.8140301 121.697244,43.5739701 C122.177847,43.33391 122.704527,43.2138818 123.2773,43.2138818 C123.975161,43.2138818 124.561093,43.3437754 125.035112,43.6035664 C125.509132,43.8633574 125.746138,44.318807 125.746138,44.9699288 C125.746138,45.1146225 125.71322,45.2675352 125.647384,45.4286714 C125.581548,45.5898076 125.477858,45.7279222 125.336311,45.8430195 C125.194763,45.9581168 125.018654,46.0156646 124.807979,46.0156646 C124.577553,46.0156646 124.384986,45.9367419 124.230271,45.7788942 C124.075557,45.6210465 123.9982,45.4171629 123.9982,45.1672374 C123.9982,44.7331562 124.189122,44.2826393 124.570971,43.8156732 C124.301043,43.6578255 123.961993,43.5789028 123.55381,43.5789028 C123.040289,43.5789028 122.618945,43.7499019 122.289765,44.0919053 C121.960585,44.4339086 121.795997,44.9008678 121.795997,45.4927967 C121.795997,45.847954 121.855249,46.1521351 121.973754,46.4053492 C122.092258,46.6585632 122.263429,46.9446579 122.487272,47.2636418 C122.711114,47.5826257 122.885577,47.8341917 123.010665,48.0183473 C123.412265,48.6431612 123.711814,49.1758892 123.909322,49.6165474 C124.10683,50.0572055 124.205583,50.5142993 124.205583,50.9878424 C124.205583,51.5995023 124.047579,52.1470283 123.731566,52.6304369 C123.415553,53.1138455 122.992563,53.4903724 122.462583,53.7600289 C121.932604,54.0296854 121.354901,54.1645116 120.729459,54.1645116 C119.952594,54.1645116 119.302474,54.0000894 118.779077,53.67124 C118.255681,53.3423906 117.993987,52.8392586 117.993987,52.1618289 C117.993987,51.9250573 118.058176,51.7145969 118.186556,51.5304412 C118.314937,51.3462856 118.514087,51.2542091 118.784015,51.2542091 C119.086861,51.2542091 119.3107,51.3758816 119.455539,51.6192301 C119.600378,51.8625787 119.672797,52.1651156 119.672797,52.5268499 C119.672797,52.7636214 119.626712,53.1121966 119.534542,53.5725857 C119.784719,53.6975485 120.094143,53.7600289 120.462825,53.7600289 Z M43.9091029,79.0221125 C43.4350837,80.4098569 42.6187295,81.1037187 41.4600158,81.1037187 C40.8543246,81.1037187 40.4296887,80.906412 40.1860955,80.5117927 C40.0807579,80.3407911 40.0280899,80.1204653 40.0280899,79.8508088 C40.0280899,79.4693435 40.1433012,78.9431924 40.3737272,78.2723396 L42.2895453,72.4911963 C42.4278009,72.0900001 42.4969277,71.7578672 42.4969277,71.4947877 C42.4969277,71.0278215 42.2796721,70.794342 41.8451545,70.794342 C41.3250501,70.794342 40.7391184,71.1708689 40.087342,71.923934 C39.4355656,72.6769991 38.79532,73.7112149 38.1665862,75.0266124 C37.5378524,76.3420099 36.9897759,77.8020793 36.5223402,79.4068643 L36.1668276,80.8176211 L34.4090151,80.8176211 L36.8284761,72.1459062 C36.9272301,71.8236338 36.9766064,71.5704236 36.9766064,71.3862679 C36.9766064,71.0574185 36.8284776,70.8929963 36.5322156,70.8929963 C36.328124,70.8929963 36.1454318,70.957121 35.9841336,71.0853722 C35.8228354,71.2136235 35.6615396,71.4257281 35.5002414,71.7216926 C35.3389432,72.017657 35.1628345,72.4287126 34.9719101,72.9548716 L34.7052756,73.7046445 L34.3201369,73.7046445 L34.8336552,72.2346951 C35.3076744,70.8469507 36.1075699,70.1530889 37.2333655,70.1530889 C38.0299812,70.1530889 38.428283,70.5509907 38.428283,71.3468062 C38.428283,71.7085405 38.336114,72.2511338 38.1517732,72.9746025 L37.4506232,75.7369235 C38.0299801,74.3689101 38.5879318,73.2771465 39.1244953,72.4616 C39.6610587,71.6460535 40.2025517,71.057422 40.7489905,70.6956876 C41.2954293,70.3339533 41.8846527,70.1530889 42.5166784,70.1530889 C43.6029724,70.1530889 44.1461113,70.6595093 44.1461113,71.6723654 C44.1461113,72.0735617 44.0473588,72.5832706 43.8498508,73.2015074 L41.8846559,79.1010359 C41.7793183,79.4167313 41.7266503,79.6699416 41.7266503,79.8606742 C41.7266503,80.1895236 41.8879461,80.3539458 42.2105425,80.3539458 C42.4870537,80.3539458 42.7503938,80.2010332 43.0005706,79.8952032 C43.2507474,79.5893733 43.507504,79.0550011 43.770848,78.2920705 L44.0374824,77.5422976 L44.4127458,77.5422976 L43.9091029,79.0221125 Z M46.5606347,74.5086772 C47.0313621,73.288646 47.7111086,72.2577186 48.5998947,71.4158642 C49.4886807,70.5740098 50.5222905,70.1530889 51.7007549,70.1530889 C52.5632066,70.1530889 53.2396613,70.4194529 53.7301396,70.9521889 C54.2206178,71.4849249 54.4658532,72.2741516 54.4658532,73.3198926 C54.4658532,74.3787876 54.230493,75.5182337 53.7597656,76.7382649 C53.2890382,77.9582961 52.6109375,78.9908677 51.7254433,79.8360106 C50.839949,80.6811536 49.8079852,81.1037187 48.6295207,81.1037187 C47.7670691,81.1037187 47.0889684,80.8357105 46.5951984,80.299686 C46.1014284,79.7636615 45.8545471,78.9727905 45.8545471,77.9270495 C45.8545471,76.8681545 46.0899072,75.7287084 46.5606347,74.5086772 Z M49.6219935,71.8696741 C49.0064269,72.7444134 48.5143101,73.8394655 48.1456285,75.154863 C47.7769469,76.4702606 47.5926088,77.7330233 47.5926088,78.943189 C47.5926088,80.1138928 47.9777437,80.699236 48.7480249,80.699236 C49.439303,80.699236 50.0910696,80.2618728 50.7033445,79.3871335 C51.3156193,78.5123941 51.8060902,77.4189863 52.1747718,76.1068772 C52.5434534,74.7947682 52.7277914,73.5303613 52.7277914,72.3136185 C52.7277914,71.7085357 52.6339765,71.2645956 52.4463439,70.9817852 C52.2587113,70.6989747 51.9706831,70.5575716 51.5822507,70.5575716 C50.8909727,70.5575716 50.2375601,70.9949347 49.6219935,71.8696741 Z M59.0529538,74.3261667 C58.0423712,75.7402191 57.5370874,77.1904231 57.5370874,78.6768223 C57.5370874,79.3279441 57.6325482,79.793259 57.8234726,80.072781 C58.014397,80.352303 58.2909041,80.4920619 58.6530021,80.4920619 C59.3376965,80.4920619 60.0355477,80.1697943 60.7465765,79.5252495 C60.6478225,79.1832462 60.5984463,78.7853444 60.5984463,78.3315322 C60.5984463,77.5751786 60.7630338,76.8287017 61.0922138,76.0920791 C61.4213939,75.3554565 61.8196957,74.7503827 62.2871313,74.2768396 C62.7545669,73.8032964 63.175911,73.5665284 63.5511763,73.5665284 C63.8145203,73.5665284 63.9972124,73.7062873 64.0992583,73.9858093 C64.2013041,74.2653313 64.2523262,74.59582 64.2523262,74.9772852 C64.2523262,75.7139079 64.056467,76.4488752 63.6647428,77.1822094 C63.2730186,77.9155435 62.6953163,78.5814535 61.9316187,79.1799594 C62.2344643,80.0678527 62.7743114,80.5117927 63.5511763,80.5117927 C64.4070443,80.5117927 65.1361671,80.1813041 65.7385665,79.5203168 C66.340966,78.8593295 66.7919358,78.0437953 67.0914896,77.0736896 C67.3910435,76.1035839 67.5408181,75.1614445 67.5408181,74.2472433 C67.5408181,73.7210842 67.4914419,73.2771442 67.3926879,72.9154099 C67.0964258,72.862794 66.8018141,72.7624964 66.5088439,72.6145142 C66.2158737,72.466532 65.9689924,72.2675811 65.7681926,72.0176556 C65.5673928,71.76773 65.4669944,71.4684816 65.4669944,71.1199012 C65.4669944,70.7910518 65.5525799,70.5477069 65.7237535,70.3898592 C65.8949271,70.2320115 66.0924322,70.1530889 66.3162746,70.1530889 C67.0273034,70.1530889 67.5276495,70.945604 67.8173279,72.530658 C67.9292492,73.0502401 67.9852089,73.6125641 67.9852089,74.217647 C67.9852089,75.3094269 67.8058085,76.3831041 67.4470023,77.4387106 C67.0881961,78.4943171 66.5335361,79.3690434 65.7830056,80.0629156 C65.0324752,80.7567878 64.1042015,81.1037187 62.9981566,81.1037187 C61.9381969,81.1037187 61.2271788,80.6893747 60.8650808,79.8606742 C59.9631275,80.6893747 59.031562,81.1037187 58.0703564,81.1037187 C57.2013211,81.1037187 56.5660132,80.8850371 56.1644136,80.4476674 C55.762814,80.0102978 55.5620172,79.4594833 55.5620172,78.7952075 C55.5620172,77.6508117 56.1298442,76.4077796 57.2655153,75.0660741 C58.4011863,73.7243686 59.7722005,72.4517406 61.378599,71.2481518 C61.2271762,71.3402297 61.0082748,71.4734117 60.7218882,71.6477019 C60.4355016,71.821992 60.1853285,71.9568183 59.9713615,72.0521846 C59.7573945,72.1475509 59.5681188,72.1952333 59.4035288,72.1952333 C59.2916076,72.1952333 59.1862716,72.1738585 59.0875176,72.131108 C58.9887636,72.0883576 58.8422806,72.0028581 58.6480644,71.8746068 C58.4538482,71.7463555 58.2810313,71.6822309 58.1296085,71.6822309 C57.9123497,71.6822309 57.7296575,71.7743073 57.5815265,71.958463 C57.4333955,72.1426186 57.2836208,72.4681746 57.132198,72.9351408 L56.8951896,73.6849136 L56.5100509,73.6849136 L56.9741924,72.2149642 C57.2177856,71.4651876 57.4959386,70.9341038 57.8086596,70.6216969 C58.1213806,70.30929 58.4686603,70.1530889 58.8505091,70.1530889 C59.1072695,70.1530889 59.3557967,70.2402326 59.5960981,70.4145228 C59.8363996,70.588813 60.028967,70.7203508 60.1738062,70.8091401 C60.3186454,70.8979294 60.4996917,70.9423234 60.7169505,70.9423234 C61.3160581,70.9423234 61.8559053,70.731863 62.3365081,70.3109358 L62.6130179,69.9261839 L63.037658,70.133358 C61.3917579,71.5145254 60.0635365,72.9121144 59.0529538,74.3261667 Z M62.6623947,74.5333408 C62.392467,74.8819211 62.1620445,75.3291496 61.9711201,75.8750396 C61.7801957,76.4209296 61.6847349,76.9700998 61.6847349,77.5225668 C61.6847349,77.9961099 61.7308194,78.4268961 61.8229898,78.8149384 C62.4220974,78.3150873 62.8994013,77.7198789 63.2549157,77.0292952 C63.6104301,76.3387114 63.7881847,75.6481381 63.7881847,74.9575544 C63.7881847,74.3261636 63.6598064,74.0104729 63.403046,74.0104729 C63.1792036,74.0104729 62.9323223,74.1847604 62.6623947,74.5333408 Z M71.7724061,73.6306537 C71.9732059,72.5816242 72.2200872,71.1856795 72.5130574,69.4427777 C72.8060276,67.699876 73.0446796,66.48644 73.2290204,65.8024332 C73.2948564,65.5525077 73.4084218,65.3584895 73.56972,65.2203727 C73.7310182,65.082256 73.9202939,65.0131987 74.1375527,65.0131987 C74.4469819,65.0131987 74.6790503,65.0888329 74.8337649,65.2401036 C74.9884795,65.3913743 75.0658357,65.588681 75.0658357,65.8320295 C75.0658357,65.9635693 75.0395017,66.1082608 74.9868329,66.2661085 C74.8288265,66.8119985 74.4749632,67.8281279 73.9252326,69.3145271 C73.375502,70.8009263 72.9014899,72.1179484 72.5031821,73.2656327 C72.1048742,74.4133171 71.7444275,75.6119551 71.4218311,76.8615828 L71.0663185,76.7925248 C71.3362461,75.7336298 71.5716063,74.6796833 71.7724061,73.6306537 Z M69.506013,79.3131427 C69.6508522,79.0730827 69.8401279,78.8807087 70.0738457,78.7360149 C70.3075635,78.5913212 70.5495072,78.5189754 70.799684,78.5189754 C71.1025296,78.5189754 71.3494109,78.619273 71.5403353,78.8198711 C71.7312597,79.0204692 71.8267205,79.2720352 71.8267205,79.5745767 C71.8267205,79.8376562 71.7559479,80.0859338 71.6144005,80.3194168 C71.472853,80.5528999 71.2835774,80.7419854 71.0465678,80.8866792 C70.8095582,81.0313729 70.5626768,81.1037187 70.3059164,81.1037187 C70.0096544,81.1037187 69.7660649,81.0050653 69.5751404,80.8077557 C69.384216,80.6104461 69.2887553,80.3638127 69.2887553,80.0678483 C69.2887553,79.8047688 69.3611738,79.5532028 69.506013,79.3131427 Z" id="Contact-us-now!" fill="#FFFFFF"></path>
            <path d="M370.304976,41.8519824 L569.665248,41.8519824" id="Line" stroke="#FFFFFF" stroke-width="3" stroke-linecap="square"></path>
            <path d="M370.304976,53.3973568 L569.665248,53.3973568" id="Line" stroke="#FFFFFF" stroke-width="3" stroke-linecap="square"></path>
            <path d="M370.304976,63.9806167 L477.207063,63.9806167" id="Line" stroke="#FFFFFF" stroke-width="3" stroke-linecap="square"></path>
            <ellipse id="Oval-7" stroke="#FFFFFF" stroke-width="2" cx="288.527871" cy="57.2193833" rx="30.8186196" ry="30.7876652"></ellipse>
            <g id="Group-4" transform="translate(273.568282, 47.577093)" stroke="#FFFFFF">
                <path d="M19.8652508,7.95066079 L27.7450115,17.5718062" id="Line" stroke-linecap="square"></path>
                <path d="M11.2334802,8.59030837 L3.49285917,17.5718062" id="Line" stroke-linecap="square"></path>
                <rect id="Rectangle-21" stroke-width="2" x="1.91004872" y="1.52863436" width="26.8924559" height="17.2422907"></rect>
                <path d="M2.58232169,2.56228923 C2.58232169,2.56228923 6.91891219,4.97891101 15.5920932,9.81215458 L28.5762783,2.10054469" id="Path-2"></path>
            </g>
        </g>
    </g>
</svg>