<?xml version="1.0" encoding="UTF-8"?>
<svg width="600px" height="279px" viewBox="0 0 600 279" version="1.1" xmlns="http://www.w3.org/2000/svg" xmlns:xlink="http://www.w3.org/1999/xlink">
    <!-- Generator: Sketch 44.1 (41455) - http://www.bohemiancoding.com/sketch -->
    <title>calltoaction01</title>
    <desc>Created with Sketch.</desc>
    <defs></defs>
    <g id="Calltoaction" stroke="none" stroke-width="1" fill="none" fill-rule="evenodd">
        <g id="01">
            <rect id="Rectangle-11" fill="#4A4A4A" x="0" y="0" width="600" height="278.854626"></rect>
            <path d="M253.657522,73.6431718 L346.171806,73.6431718" id="Line" stroke="#FFFFFF" stroke-width="4" stroke-linecap="square"></path>
            <g id="Group-3" transform="translate(167.000000, 186.000000)">
                <g id="Group">
                    <rect id="Rectangle" fill="#4990E2" x="0" y="0" width="120.264317" height="46.2555066"></rect>
                    <path d="M23.0748899,23.4977974 C23.0748899,22.7841374 23.1850209,22.1475799 23.4052863,21.5881057 C23.6255518,21.0286316 23.9229056,20.555068 24.2973568,20.1674009 C24.671808,19.7797337 25.107927,19.4845825 25.6057269,19.2819383 C26.1035267,19.0792941 26.6299532,18.9779736 27.185022,18.9779736 C27.7224696,18.9779736 28.2092489,19.0903072 28.6453744,19.314978 C29.0815,19.5396487 29.4449325,19.8017606 29.7356828,20.1013216 L28.6651982,21.3039648 C28.4449328,21.1013206 28.2224681,20.9427319 27.9977974,20.8281938 C27.7731266,20.7136558 27.5110147,20.6563877 27.2114537,20.6563877 C26.9118928,20.6563877 26.6321599,20.7202637 26.3722467,20.8480176 C26.1123335,20.9757716 25.8854635,21.1585891 25.69163,21.3964758 C25.4977964,21.6343624 25.3458155,21.9251084 25.2356828,22.2687225 C25.1255501,22.6123365 25.0704846,22.9999978 25.0704846,23.4317181 C25.0704846,24.3215904 25.25991,25.0110108 25.6387665,25.5 C26.017623,25.9889892 26.5242259,26.2334802 27.1585903,26.2334802 C27.511015,26.2334802 27.8193819,26.1629963 28.0837004,26.0220264 C28.3480189,25.8810566 28.585902,25.6960364 28.7973568,25.4669604 L29.8678414,26.6431718 C29.5066061,27.0660814 29.094716,27.3832589 28.6321586,27.5947137 C28.1696012,27.8061685 27.6696062,27.9118943 27.1321586,27.9118943 C26.5770897,27.9118943 26.0528659,27.8171816 25.5594714,27.6277533 C25.0660768,27.438325 24.6343631,27.1585922 24.2643172,26.7885463 C23.8942713,26.4185004 23.6035253,25.9581525 23.3920705,25.407489 C23.1806157,24.8568254 23.0748899,24.2202679 23.0748899,23.4977974 Z M34.6784141,27.9118943 C34.0969134,27.9118943 33.5660817,27.8083711 33.0859031,27.6013216 C32.6057245,27.3942721 32.1938343,27.0969182 31.8502203,26.7092511 C31.5066062,26.321584 31.2400891,25.850223 31.0506608,25.2951542 C30.8612325,24.7400853 30.7665198,24.1101357 30.7665198,23.4052863 C30.7665198,22.700437 30.8612325,22.07269 31.0506608,21.5220264 C31.2400891,20.9713629 31.5066062,20.5088124 31.8502203,20.1343612 C32.1938343,19.75991 32.6057245,19.4735693 33.0859031,19.2753304 C33.5660817,19.0770915 34.0969134,18.9779736 34.6784141,18.9779736 C35.2599148,18.9779736 35.7907465,19.0770915 36.2709251,19.2753304 C36.7511037,19.4735693 37.1629939,19.7621126 37.5066079,20.1409692 C37.850222,20.5198257 38.1167391,20.9845787 38.3061674,21.5352423 C38.4955957,22.0859058 38.5903084,22.7092476 38.5903084,23.4052863 C38.5903084,24.1101357 38.4955957,24.7400853 38.3061674,25.2951542 C38.1167391,25.850223 37.850222,26.321584 37.5066079,26.7092511 C37.1629939,27.0969182 36.7511037,27.3942721 36.2709251,27.6013216 C35.7907465,27.8083711 35.2599148,27.9118943 34.6784141,27.9118943 Z M34.6784141,26.2334802 C35.2687254,26.2334802 35.7356811,25.9801787 36.0792952,25.4735683 C36.4229092,24.9669578 36.5947137,24.2775374 36.5947137,23.4052863 C36.5947137,22.5418459 36.4229092,21.8678438 36.0792952,21.3832599 C35.7356811,20.898676 35.2687254,20.6563877 34.6784141,20.6563877 C34.0881028,20.6563877 33.6211471,20.898676 33.277533,21.3832599 C32.933919,21.8678438 32.7621145,22.5418459 32.7621145,23.4052863 C32.7621145,24.2775374 32.933919,24.9669578 33.277533,25.4735683 C33.6211471,25.9801787 34.0881028,26.2334802 34.6784141,26.2334802 Z M40.215859,19.1365639 L42.2114537,19.1365639 L44.4581498,23.4185022 L45.3039648,25.3215859 L45.3568282,25.3215859 C45.3127751,24.8634338 45.2621148,24.3524257 45.2048458,23.7885463 C45.1475768,23.2246668 45.1189427,22.6872272 45.1189427,22.1762115 L45.1189427,19.1365639 L46.969163,19.1365639 L46.969163,27.753304 L44.9735683,27.753304 L42.7268722,23.4581498 L41.8810573,21.5814978 L41.8281938,21.5814978 C41.8722469,22.0572711 41.9229072,22.5682792 41.9801762,23.1145374 C42.0374452,23.6607957 42.0660793,24.1894248 42.0660793,24.7004405 L42.0660793,27.753304 L40.215859,27.753304 L40.215859,19.1365639 Z M50.6828194,20.7753304 L48.3171806,20.7753304 L48.3171806,19.1365639 L55.0044053,19.1365639 L55.0044053,20.7753304 L52.6387665,20.7753304 L52.6387665,27.753304 L50.6828194,27.753304 L50.6828194,20.7753304 Z M60,24.185022 L59.8017621,23.3920705 C59.6784135,22.9603503 59.5594719,22.5022051 59.4449339,22.0176211 C59.3303959,21.5330372 59.2158596,21.0660815 59.1013216,20.6167401 L59.0484581,20.6167401 C58.9427307,21.0748922 58.8348023,21.5440505 58.7246696,22.0242291 C58.6145369,22.5044077 58.497798,22.9603503 58.3744493,23.3920705 L58.1629956,24.185022 L60,24.185022 Z M60.3964758,25.7048458 L57.7665198,25.7048458 L57.2378855,27.753304 L55.2555066,27.753304 L57.9515419,19.1365639 L60.2907489,19.1365639 L62.9867841,27.753304 L60.9251101,27.753304 L60.3964758,25.7048458 Z M63.5154185,23.4977974 C63.5154185,22.7841374 63.6255496,22.1475799 63.845815,21.5881057 C64.0660804,21.0286316 64.3634343,20.555068 64.7378855,20.1674009 C65.1123367,19.7797337 65.5484557,19.4845825 66.0462555,19.2819383 C66.5440554,19.0792941 67.0704818,18.9779736 67.6255507,18.9779736 C68.1629983,18.9779736 68.6497776,19.0903072 69.0859031,19.314978 C69.5220286,19.5396487 69.8854611,19.8017606 70.1762115,20.1013216 L69.1057269,21.3039648 C68.8854615,21.1013206 68.6629967,20.9427319 68.438326,20.8281938 C68.2136553,20.7136558 67.9515433,20.6563877 67.6519824,20.6563877 C67.3524214,20.6563877 67.0726885,20.7202637 66.8127753,20.8480176 C66.5528621,20.9757716 66.3259922,21.1585891 66.1321586,21.3964758 C65.938325,21.6343624 65.7863442,21.9251084 65.6762115,22.2687225 C65.5660787,22.6123365 65.5110132,22.9999978 65.5110132,23.4317181 C65.5110132,24.3215904 65.7004386,25.0110108 66.0792952,25.5 C66.4581517,25.9889892 66.9647545,26.2334802 67.5991189,26.2334802 C67.9515436,26.2334802 68.2599106,26.1629963 68.5242291,26.0220264 C68.7885476,25.8810566 69.0264307,25.6960364 69.2378855,25.4669604 L70.30837,26.6431718 C69.9471348,27.0660814 69.5352446,27.3832589 69.0726872,27.5947137 C68.6101298,27.8061685 68.1101348,27.9118943 67.5726872,27.9118943 C67.0176184,27.9118943 66.4933945,27.8171816 66,27.6277533 C65.5066055,27.438325 65.0748917,27.1585922 64.7048458,26.7885463 C64.3347999,26.4185004 64.0440539,25.9581525 63.8325991,25.407489 C63.6211443,24.8568254 63.5154185,24.2202679 63.5154185,23.4977974 Z M73.2951542,20.7753304 L70.9295154,20.7753304 L70.9295154,19.1365639 L77.6167401,19.1365639 L77.6167401,20.7753304 L75.2511013,20.7753304 L75.2511013,27.753304 L73.2951542,27.753304 L73.2951542,20.7753304 Z M81.660793,19.1365639 L83.6167401,19.1365639 L83.6167401,23.9603524 C83.6167401,24.8061716 83.7444921,25.3964741 84,25.7312775 C84.2555079,26.066081 84.6255482,26.2334802 85.1101322,26.2334802 C85.5947161,26.2334802 85.9691617,26.066081 86.2334802,25.7312775 C86.4977987,25.3964741 86.6299559,24.8061716 86.6299559,23.9603524 L86.6299559,19.1365639 L88.5066079,19.1365639 L88.5066079,23.7621145 C88.5066079,25.2070557 88.2180646,26.2599086 87.6409692,26.9207048 C87.0638738,27.5815011 86.2202699,27.9118943 85.1101322,27.9118943 C83.9911838,27.9118943 83.1365668,27.5815011 82.5462555,26.9207048 C81.9559442,26.2599086 81.660793,25.2070557 81.660793,23.7621145 L81.660793,19.1365639 Z M91.0572687,25.3348018 C91.3656403,25.5991203 91.7070466,25.8149771 92.0814978,25.9823789 C92.455949,26.1497806 92.8237867,26.2334802 93.185022,26.2334802 C93.5903104,26.2334802 93.8920695,26.1585911 94.0903084,26.0088106 C94.2885472,25.8590301 94.3876652,25.6563889 94.3876652,25.4008811 C94.3876652,25.2687218 94.3590311,25.1541855 94.3017621,25.0572687 C94.2444931,24.9603519 94.1607935,24.8744497 94.0506608,24.7995595 C93.9405281,24.7246692 93.8083708,24.6541854 93.654185,24.5881057 L93.1453744,24.3700441 L92.0220264,23.8942731 C91.801761,23.806167 91.5881068,23.6916307 91.3810573,23.5506608 C91.1740078,23.4096909 90.9889876,23.2444943 90.8259912,23.0550661 C90.6629948,22.8656378 90.5330401,22.6453757 90.4361233,22.3942731 C90.3392066,22.1431706 90.2907489,21.8590324 90.2907489,21.5418502 C90.2907489,21.1894256 90.365638,20.8568298 90.5154185,20.5440529 C90.665199,20.231276 90.8766506,19.9581509 91.1497797,19.7246696 C91.4229089,19.4911883 91.7466942,19.3083707 92.1211454,19.1762115 C92.4955966,19.0440522 92.9074867,18.9779736 93.3568282,18.9779736 C93.8590333,18.9779736 94.3546231,19.0748889 94.8436123,19.2687225 C95.3326016,19.462556 95.7621127,19.7444915 96.1321586,20.1145374 L95.1409692,21.3436123 C94.8590294,21.1233469 94.5770939,20.9537451 94.2951542,20.8348018 C94.0132144,20.7158584 93.7004422,20.6563877 93.3568282,20.6563877 C93.0220248,20.6563877 92.7555076,20.7246689 92.5572687,20.8612335 C92.3590298,20.997798 92.2599119,21.1894261 92.2599119,21.4361233 C92.2599119,21.5682826 92.2929512,21.6806163 92.3590308,21.7731278 C92.4251105,21.8656392 92.5176206,21.9493388 92.6365639,22.0242291 C92.7555072,22.0991193 92.8942723,22.1696032 93.0528634,22.2356828 C93.2114545,22.3017624 93.383259,22.3744489 93.5682819,22.4537445 L94.6784141,22.9030837 C95.2070511,23.1145385 95.6233465,23.4052845 95.9273128,23.7753304 C96.2312791,24.1453763 96.3832599,24.6343582 96.3832599,25.2422907 C96.3832599,25.603526 96.3105734,25.9449323 96.1651982,26.2665198 C96.0198231,26.5881073 95.8083714,26.8700428 95.530837,27.1123348 C95.2533026,27.3546268 94.9118963,27.5484574 94.5066079,27.6938326 C94.1013196,27.8392078 93.6431744,27.9118943 93.1321586,27.9118943 C92.5682791,27.9118943 92.0066107,27.8083711 91.4471366,27.6013216 C90.8876624,27.3942721 90.3876674,27.0837025 89.9471366,26.6696035 L91.0572687,25.3348018 Z" id="CONTACT-US" fill="#FFFFFF"></path>
                </g>
                <g id="Group-2" transform="translate(146.696035, 0.000000)">
                    <rect id="Rectangle" fill="#4990E2" x="0" y="0" width="120.264317" height="46.2555066"></rect>
                    <path d="M33.2907489,25.3348018 C33.5991205,25.5991203 33.9405268,25.8149771 34.314978,25.9823789 C34.6894292,26.1497806 35.0572669,26.2334802 35.4185022,26.2334802 C35.8237906,26.2334802 36.1255497,26.1585911 36.3237885,26.0088106 C36.5220274,25.8590301 36.6211454,25.6563889 36.6211454,25.4008811 C36.6211454,25.2687218 36.5925113,25.1541855 36.5352423,25.0572687 C36.4779733,24.9603519 36.3942737,24.8744497 36.284141,24.7995595 C36.1740083,24.7246692 36.041851,24.6541854 35.8876652,24.5881057 L35.3788546,24.3700441 L34.2555066,23.8942731 C34.0352412,23.806167 33.8215869,23.6916307 33.6145374,23.5506608 C33.407488,23.4096909 33.2224678,23.2444943 33.0594714,23.0550661 C32.896475,22.8656378 32.7665203,22.6453757 32.6696035,22.3942731 C32.5726867,22.1431706 32.5242291,21.8590324 32.5242291,21.5418502 C32.5242291,21.1894256 32.5991182,20.8568298 32.7488987,20.5440529 C32.8986792,20.231276 33.1101308,19.9581509 33.3832599,19.7246696 C33.656389,19.4911883 33.9801743,19.3083707 34.3546256,19.1762115 C34.7290768,19.0440522 35.1409669,18.9779736 35.5903084,18.9779736 C36.0925135,18.9779736 36.5881033,19.0748889 37.0770925,19.2687225 C37.5660817,19.462556 37.9955929,19.7444915 38.3656388,20.1145374 L37.3744493,21.3436123 C37.0925096,21.1233469 36.8105741,20.9537451 36.5286344,20.8348018 C36.2466946,20.7158584 35.9339224,20.6563877 35.5903084,20.6563877 C35.2555049,20.6563877 34.9889878,20.7246689 34.7907489,20.8612335 C34.59251,20.997798 34.4933921,21.1894261 34.4933921,21.4361233 C34.4933921,21.5682826 34.5264314,21.6806163 34.592511,21.7731278 C34.6585906,21.8656392 34.7511007,21.9493388 34.8700441,22.0242291 C34.9889874,22.0991193 35.1277525,22.1696032 35.2863436,22.2356828 C35.4449347,22.3017624 35.6167392,22.3744489 35.8017621,22.4537445 L36.9118943,22.9030837 C37.4405313,23.1145385 37.8568267,23.4052845 38.160793,23.7753304 C38.4647592,24.1453763 38.6167401,24.6343582 38.6167401,25.2422907 C38.6167401,25.603526 38.5440536,25.9449323 38.3986784,26.2665198 C38.2533032,26.5881073 38.0418516,26.8700428 37.7643172,27.1123348 C37.4867828,27.3546268 37.1453765,27.5484574 36.7400881,27.6938326 C36.3347997,27.8392078 35.8766545,27.9118943 35.3656388,27.9118943 C34.8017593,27.9118943 34.2400909,27.8083711 33.6806167,27.6013216 C33.1211426,27.3942721 32.6211476,27.0837025 32.1806167,26.6696035 L33.2907489,25.3348018 Z M40.0837004,19.1365639 L45.4757709,19.1365639 L45.4757709,20.7753304 L42.0264317,20.7753304 L42.0264317,22.5066079 L44.9603524,22.5066079 L44.9603524,24.1321586 L42.0264317,24.1321586 L42.0264317,26.1145374 L45.6079295,26.1145374 L45.6079295,27.753304 L40.0837004,27.753304 L40.0837004,19.1365639 Z M49.2687225,23.1013216 L50.2731278,23.1013216 C50.7841435,23.1013216 51.1740075,22.9933931 51.4427313,22.777533 C51.7114551,22.5616729 51.845815,22.2422929 51.845815,21.8193833 C51.845815,21.3964737 51.7114551,21.1013224 51.4427313,20.9339207 C51.1740075,20.766519 50.7841435,20.6828194 50.2731278,20.6828194 L49.2687225,20.6828194 L49.2687225,23.1013216 Z M51.9911894,27.753304 L50.339207,24.6475771 L49.2687225,24.6475771 L49.2687225,27.753304 L47.3259912,27.753304 L47.3259912,19.1365639 L50.4317181,19.1365639 C50.8898701,19.1365639 51.3193813,19.1806163 51.7202643,19.2687225 C52.1211474,19.3568286 52.4713641,19.5044043 52.7709251,19.7114537 C53.0704861,19.9185032 53.3083692,20.1938309 53.4845815,20.5374449 C53.6607938,20.881059 53.7488987,21.3083675 53.7488987,21.8193833 C53.7488987,22.4537477 53.6101335,22.9757689 53.3325991,23.3854626 C53.0550647,23.7951562 52.6828217,24.1013206 52.215859,24.3039648 L54.1718062,27.753304 L51.9911894,27.753304 Z M54.3568282,19.1365639 L56.4185022,19.1365639 L57.4493392,23.154185 C57.5814985,23.6299583 57.6982374,24.0903061 57.7995595,24.5352423 C57.9008816,24.9801784 58.0176205,25.4405263 58.1497797,25.9162996 L58.2026432,25.9162996 C58.3259918,25.4405263 58.4405281,24.9801784 58.5462555,24.5352423 C58.6519829,24.0903061 58.7665192,23.6299583 58.8898678,23.154185 L59.907489,19.1365639 L61.8898678,19.1365639 L59.2995595,27.753304 L56.9603524,27.753304 L54.3568282,19.1365639 Z M62.814978,19.1365639 L64.7577093,19.1365639 L64.7577093,27.753304 L62.814978,27.753304 L62.814978,19.1365639 Z M66.3832599,23.4977974 C66.3832599,22.7841374 66.493391,22.1475799 66.7136564,21.5881057 C66.9339218,21.0286316 67.2312757,20.555068 67.6057269,20.1674009 C67.9801781,19.7797337 68.4162971,19.4845825 68.9140969,19.2819383 C69.4118968,19.0792941 69.9383232,18.9779736 70.4933921,18.9779736 C71.0308397,18.9779736 71.517619,19.0903072 71.9537445,19.314978 C72.38987,19.5396487 72.7533025,19.8017606 73.0440529,20.1013216 L71.9735683,21.3039648 C71.7533029,21.1013206 71.5308381,20.9427319 71.3061674,20.8281938 C71.0814967,20.7136558 70.8193848,20.6563877 70.5198238,20.6563877 C70.2202628,20.6563877 69.9405299,20.7202637 69.6806167,20.8480176 C69.4207035,20.9757716 69.1938336,21.1585891 69,21.3964758 C68.8061664,21.6343624 68.6541856,21.9251084 68.5440529,22.2687225 C68.4339202,22.6123365 68.3788546,22.9999978 68.3788546,23.4317181 C68.3788546,24.3215904 68.56828,25.0110108 68.9471366,25.5 C69.3259931,25.9889892 69.8325959,26.2334802 70.4669604,26.2334802 C70.819385,26.2334802 71.127752,26.1629963 71.3920705,26.0220264 C71.656389,25.8810566 71.8942721,25.6960364 72.1057269,25.4669604 L73.1762115,26.6431718 C72.8149762,27.0660814 72.403086,27.3832589 71.9405286,27.5947137 C71.4779713,27.8061685 70.9779763,27.9118943 70.4405286,27.9118943 C69.8854598,27.9118943 69.3612359,27.8171816 68.8678414,27.6277533 C68.3744469,27.438325 67.9427331,27.1585922 67.5726872,26.7885463 C67.2026413,26.4185004 66.9118953,25.9581525 66.7004405,25.407489 C66.4889857,24.8568254 66.3832599,24.2202679 66.3832599,23.4977974 Z M74.4845815,19.1365639 L79.876652,19.1365639 L79.876652,20.7753304 L76.4273128,20.7753304 L76.4273128,22.5066079 L79.3612335,22.5066079 L79.3612335,24.1321586 L76.4273128,24.1321586 L76.4273128,26.1145374 L80.0088106,26.1145374 L80.0088106,27.753304 L74.4845815,27.753304 L74.4845815,19.1365639 Z M82.2819383,25.3348018 C82.5903099,25.5991203 82.9317162,25.8149771 83.3061674,25.9823789 C83.6806186,26.1497806 84.0484563,26.2334802 84.4096916,26.2334802 C84.81498,26.2334802 85.1167391,26.1585911 85.314978,26.0088106 C85.5132169,25.8590301 85.6123348,25.6563889 85.6123348,25.4008811 C85.6123348,25.2687218 85.5837007,25.1541855 85.5264317,25.0572687 C85.4691627,24.9603519 85.3854631,24.8744497 85.2753304,24.7995595 C85.1651977,24.7246692 85.0330404,24.6541854 84.8788546,24.5881057 L84.3700441,24.3700441 L83.246696,23.8942731 C83.0264306,23.806167 82.8127764,23.6916307 82.6057269,23.5506608 C82.3986774,23.4096909 82.2136572,23.2444943 82.0506608,23.0550661 C81.8876644,22.8656378 81.7577097,22.6453757 81.660793,22.3942731 C81.5638762,22.1431706 81.5154185,21.8590324 81.5154185,21.5418502 C81.5154185,21.1894256 81.5903076,20.8568298 81.7400881,20.5440529 C81.8898686,20.231276 82.1013202,19.9581509 82.3744493,19.7246696 C82.6475785,19.4911883 82.9713638,19.3083707 83.345815,19.1762115 C83.7202662,19.0440522 84.1321563,18.9779736 84.5814978,18.9779736 C85.083703,18.9779736 85.5792927,19.0748889 86.0682819,19.2687225 C86.5572712,19.462556 86.9867823,19.7444915 87.3568282,20.1145374 L86.3656388,21.3436123 C86.083699,21.1233469 85.8017635,20.9537451 85.5198238,20.8348018 C85.2378841,20.7158584 84.9251119,20.6563877 84.5814978,20.6563877 C84.2466944,20.6563877 83.9801772,20.7246689 83.7819383,20.8612335 C83.5836994,20.997798 83.4845815,21.1894261 83.4845815,21.4361233 C83.4845815,21.5682826 83.5176208,21.6806163 83.5837004,21.7731278 C83.6497801,21.8656392 83.7422902,21.9493388 83.8612335,22.0242291 C83.9801768,22.0991193 84.1189419,22.1696032 84.277533,22.2356828 C84.4361241,22.3017624 84.6079286,22.3744489 84.7929515,22.4537445 L85.9030837,22.9030837 C86.4317207,23.1145385 86.8480161,23.4052845 87.1519824,23.7753304 C87.4559487,24.1453763 87.6079295,24.6343582 87.6079295,25.2422907 C87.6079295,25.603526 87.535243,25.9449323 87.3898678,26.2665198 C87.2444927,26.5881073 87.033041,26.8700428 86.7555066,27.1123348 C86.4779722,27.3546268 86.1365659,27.5484574 85.7312775,27.6938326 C85.3259892,27.8392078 84.867844,27.9118943 84.3568282,27.9118943 C83.7929487,27.9118943 83.2312803,27.8083711 82.6718062,27.6013216 C82.112332,27.3942721 81.612337,27.0837025 81.1718062,26.6696035 L82.2819383,25.3348018 Z" id="SERVICES" fill="#FFFFFF"></path>
                </g>
            </g>
            <path d="M219.727753,111.6837 C219.727753,110.470479 219.914976,109.388331 220.289427,108.437225 C220.663879,107.486119 221.16938,106.681061 221.805947,106.022026 C222.442514,105.362992 223.183916,104.861235 224.030176,104.51674 C224.876436,104.172245 225.771361,104 226.714978,104 C227.628639,104 228.456164,104.190967 229.197577,104.572907 C229.93899,104.954848 230.556826,105.400438 231.051101,105.909692 L229.231278,107.954185 C228.856826,107.60969 228.478636,107.340089 228.096696,107.145374 C227.714756,106.95066 227.269166,106.853304 226.759912,106.853304 C226.250658,106.853304 225.775112,106.961893 225.33326,107.179075 C224.891407,107.396257 224.505729,107.707046 224.176211,108.111454 C223.846694,108.515861 223.588327,109.010129 223.401101,109.594273 C223.213876,110.178417 223.120264,110.837441 223.120264,111.571366 C223.120264,113.084149 223.442288,114.256163 224.086344,115.087445 C224.7304,115.918727 225.591625,116.334361 226.670044,116.334361 C227.269166,116.334361 227.79339,116.214539 228.242731,115.97489 C228.692073,115.735241 229.096474,115.420707 229.455947,115.031278 L231.275771,117.030837 C230.661671,117.749783 229.961458,118.288985 229.17511,118.648458 C228.388763,119.007931 227.538771,119.187665 226.62511,119.187665 C225.681493,119.187665 224.790313,119.026654 223.951542,118.704626 C223.112771,118.382598 222.378858,117.907052 221.74978,117.277974 C221.120702,116.648896 220.626434,115.866304 220.26696,114.930176 C219.907487,113.994048 219.727753,112.9119 219.727753,111.6837 Z M239.700881,112.851982 L239.363877,111.503965 C239.154184,110.77004 238.951983,109.991194 238.757269,109.167401 C238.562554,108.343608 238.367842,107.549784 238.173128,106.785903 L238.08326,106.785903 C237.903523,107.564762 237.720045,108.362331 237.532819,109.178634 C237.345594,109.994938 237.147138,110.77004 236.937445,111.503965 L236.577974,112.851982 L239.700881,112.851982 Z M240.37489,115.435683 L235.903965,115.435683 L235.005286,118.918062 L231.635242,118.918062 L236.218502,104.269604 L240.195154,104.269604 L244.778414,118.918062 L241.273568,118.918062 L240.37489,115.435683 Z M246.373568,104.269604 L249.676211,104.269604 L249.676211,116.132159 L255.472687,116.132159 L255.472687,118.918062 L246.373568,118.918062 L246.373568,104.269604 Z M258.011454,104.269604 L261.314097,104.269604 L261.314097,116.132159 L267.110573,116.132159 L267.110573,118.918062 L258.011454,118.918062 L258.011454,104.269604 Z M277.175771,107.055507 L273.154185,107.055507 L273.154185,104.269604 L284.522467,104.269604 L284.522467,107.055507 L280.500881,107.055507 L280.500881,118.918062 L277.175771,118.918062 L277.175771,107.055507 Z M292.767841,119.187665 C291.77929,119.187665 290.876876,119.011676 290.060573,118.659692 C289.244269,118.307707 288.544056,117.802206 287.959912,117.143172 C287.375768,116.484138 286.922689,115.682824 286.600661,114.739207 C286.278633,113.79559 286.117621,112.724676 286.117621,111.526432 C286.117621,110.328188 286.278633,109.261018 286.600661,108.32489 C286.922689,107.388762 287.375768,106.602426 287.959912,105.965859 C288.544056,105.329292 289.244269,104.842513 290.060573,104.505507 C290.876876,104.168501 291.77929,104 292.767841,104 C293.756393,104 294.658806,104.168501 295.47511,104.505507 C296.291414,104.842513 296.991627,105.333036 297.575771,105.977093 C298.159915,106.621149 298.612994,107.411229 298.935022,108.347357 C299.25705,109.283485 299.418062,110.343166 299.418062,111.526432 C299.418062,112.724676 299.25705,113.79559 298.935022,114.739207 C298.612994,115.682824 298.159915,116.484138 297.575771,117.143172 C296.991627,117.802206 296.291414,118.307707 295.47511,118.659692 C294.658806,119.011676 293.756393,119.187665 292.767841,119.187665 Z M292.767841,116.334361 C293.771371,116.334361 294.565195,115.903749 295.149339,115.042511 C295.733483,114.181273 296.025551,113.009259 296.025551,111.526432 C296.025551,110.058583 295.733483,108.912779 295.149339,108.088987 C294.565195,107.265194 293.771371,106.853304 292.767841,106.853304 C291.764312,106.853304 290.970488,107.265194 290.386344,108.088987 C289.8022,108.912779 289.510132,110.058583 289.510132,111.526432 C289.510132,113.009259 289.8022,114.181273 290.386344,115.042511 C290.970488,115.903749 291.764312,116.334361 292.767841,116.334361 Z M313.055507,112.851982 L312.718502,111.503965 C312.50881,110.77004 312.306609,109.991194 312.111894,109.167401 C311.91718,108.343608 311.722468,107.549784 311.527753,106.785903 L311.437885,106.785903 C311.258149,107.564762 311.074671,108.362331 310.887445,109.178634 C310.700219,109.994938 310.501763,110.77004 310.29207,111.503965 L309.932599,112.851982 L313.055507,112.851982 Z M313.729515,115.435683 L309.25859,115.435683 L308.359912,118.918062 L304.989868,118.918062 L309.573128,104.269604 L313.54978,104.269604 L318.13304,118.918062 L314.628194,118.918062 L313.729515,115.435683 Z M319.031718,111.6837 C319.031718,110.470479 319.218941,109.388331 319.593392,108.437225 C319.967843,107.486119 320.473345,106.681061 321.109912,106.022026 C321.746479,105.362992 322.487881,104.861235 323.334141,104.51674 C324.180401,104.172245 325.075326,104 326.018943,104 C326.932604,104 327.760128,104.190967 328.501542,104.572907 C329.242955,104.954848 329.86079,105.400438 330.355066,105.909692 L328.535242,107.954185 C328.160791,107.60969 327.782601,107.340089 327.400661,107.145374 C327.018721,106.95066 326.57313,106.853304 326.063877,106.853304 C325.554623,106.853304 325.079077,106.961893 324.637225,107.179075 C324.195372,107.396257 323.809693,107.707046 323.480176,108.111454 C323.150659,108.515861 322.892292,109.010129 322.705066,109.594273 C322.51784,110.178417 322.424229,110.837441 322.424229,111.571366 C322.424229,113.084149 322.746252,114.256163 323.390308,115.087445 C324.034364,115.918727 324.895589,116.334361 325.974009,116.334361 C326.573131,116.334361 327.097355,116.214539 327.546696,115.97489 C327.996037,115.735241 328.400439,115.420707 328.759912,115.031278 L330.579736,117.030837 C329.965636,117.749783 329.265422,118.288985 328.479075,118.648458 C327.692727,119.007931 326.842736,119.187665 325.929075,119.187665 C324.985458,119.187665 324.094277,119.026654 323.255507,118.704626 C322.416736,118.382598 321.682823,117.907052 321.053744,117.277974 C320.424666,116.648896 319.930398,115.866304 319.570925,114.930176 C319.211452,113.994048 319.031718,112.9119 319.031718,111.6837 Z M335.657269,107.055507 L331.635683,107.055507 L331.635683,104.269604 L343.003965,104.269604 L343.003965,107.055507 L338.982379,107.055507 L338.982379,118.918062 L335.657269,118.918062 L335.657269,107.055507 Z M345.295595,104.269604 L348.598238,104.269604 L348.598238,118.918062 L345.295595,118.918062 L345.295595,104.269604 Z M358.011894,119.187665 C357.023343,119.187665 356.120929,119.011676 355.304626,118.659692 C354.488322,118.307707 353.788109,117.802206 353.203965,117.143172 C352.619821,116.484138 352.166742,115.682824 351.844714,114.739207 C351.522686,113.79559 351.361674,112.724676 351.361674,111.526432 C351.361674,110.328188 351.522686,109.261018 351.844714,108.32489 C352.166742,107.388762 352.619821,106.602426 353.203965,105.965859 C353.788109,105.329292 354.488322,104.842513 355.304626,104.505507 C356.120929,104.168501 357.023343,104 358.011894,104 C359.000445,104 359.902859,104.168501 360.719163,104.505507 C361.535467,104.842513 362.23568,105.333036 362.819824,105.977093 C363.403968,106.621149 363.857047,107.411229 364.179075,108.347357 C364.501103,109.283485 364.662115,110.343166 364.662115,111.526432 C364.662115,112.724676 364.501103,113.79559 364.179075,114.739207 C363.857047,115.682824 363.403968,116.484138 362.819824,117.143172 C362.23568,117.802206 361.535467,118.307707 360.719163,118.659692 C359.902859,119.011676 359.000445,119.187665 358.011894,119.187665 Z M358.011894,116.334361 C359.015424,116.334361 359.809248,115.903749 360.393392,115.042511 C360.977536,114.181273 361.269604,113.009259 361.269604,111.526432 C361.269604,110.058583 360.977536,108.912779 360.393392,108.088987 C359.809248,107.265194 359.015424,106.853304 358.011894,106.853304 C357.008365,106.853304 356.21454,107.265194 355.630396,108.088987 C355.046253,108.912779 354.754185,110.058583 354.754185,111.526432 C354.754185,113.009259 355.046253,114.181273 355.630396,115.042511 C356.21454,115.903749 357.008365,116.334361 358.011894,116.334361 Z M367.425551,104.269604 L370.818062,104.269604 L374.637445,111.548899 L376.07533,114.784141 L376.165198,114.784141 C376.090308,114.005282 376.004186,113.136569 375.906828,112.177974 C375.809471,111.219378 375.760793,110.305731 375.760793,109.437004 L375.760793,104.269604 L378.906167,104.269604 L378.906167,118.918062 L375.513656,118.918062 L371.694273,111.6163 L370.256388,108.425991 L370.16652,108.425991 C370.24141,109.234806 370.327533,110.10352 370.42489,111.032159 C370.522247,111.960798 370.570925,112.859467 370.570925,113.728194 L370.570925,118.918062 L367.425551,118.918062 L367.425551,104.269604 Z M157,133.344493 L162.010132,133.344493 C162.774013,133.344493 163.481715,133.40066 164.13326,133.512996 C164.784805,133.625331 165.353962,133.823787 165.840749,134.10837 C166.327535,134.392953 166.70947,134.767399 166.986564,135.231718 C167.263658,135.696038 167.402203,136.280173 167.402203,136.984141 C167.402203,137.313658 167.353525,137.64317 167.256167,137.972687 C167.15881,138.302204 167.012776,138.60925 166.818062,138.893833 C166.623347,139.178416 166.368724,139.433039 166.054185,139.657709 C165.739646,139.88238 165.372689,140.047136 164.953304,140.151982 L164.953304,140.24185 C166.001767,140.436565 166.791848,140.81101 167.323568,141.365198 C167.855289,141.919386 168.121145,142.690744 168.121145,143.679295 C168.121145,144.428198 167.975112,145.072244 167.68304,145.611454 C167.390968,146.150663 166.986566,146.596254 166.469824,146.948238 C165.953081,147.300222 165.350224,147.562334 164.661233,147.734581 C163.972243,147.906829 163.230841,147.992952 162.437004,147.992952 L157,147.992952 L157,133.344493 Z M161.852863,139.253304 C162.661678,139.253304 163.249558,139.092292 163.61652,138.770264 C163.983482,138.448236 164.16696,138.010135 164.16696,137.455947 C164.16696,136.901759 163.979738,136.504847 163.605286,136.265198 C163.230835,136.025549 162.654189,135.905727 161.87533,135.905727 L160.302643,135.905727 L160.302643,139.253304 L161.852863,139.253304 Z M162.167401,145.431718 C163.979745,145.431718 164.885903,144.765205 164.885903,143.432159 C164.885903,142.788103 164.661236,142.320046 164.211894,142.027974 C163.762553,141.735902 163.081062,141.589868 162.167401,141.589868 L160.302643,141.589868 L160.302643,145.431718 L162.167401,145.431718 Z M176.793392,141.926872 L176.456388,140.578855 C176.246695,139.84493 176.044494,139.066083 175.84978,138.242291 C175.655065,137.418498 175.460353,136.624673 175.265639,135.860793 L175.175771,135.860793 C174.996034,136.639651 174.812556,137.437221 174.62533,138.253524 C174.438105,139.069828 174.239649,139.84493 174.029956,140.578855 L173.670485,141.926872 L176.793392,141.926872 Z M177.467401,144.510573 L172.996476,144.510573 L172.097797,147.992952 L168.727753,147.992952 L173.311013,133.344493 L177.287665,133.344493 L181.870925,147.992952 L178.366079,147.992952 L177.467401,144.510573 Z M182.769604,140.75859 C182.769604,139.545368 182.956826,138.463221 183.331278,137.512115 C183.705729,136.561008 184.21123,135.75595 184.847797,135.096916 C185.484364,134.437882 186.225767,133.936125 187.072026,133.59163 C187.918286,133.247135 188.813211,133.07489 189.756828,133.07489 C190.670489,133.07489 191.498014,133.265857 192.239427,133.647797 C192.980841,134.029738 193.598676,134.475328 194.092952,134.984581 L192.273128,137.029075 C191.898677,136.68458 191.520486,136.414979 191.138546,136.220264 C190.756606,136.02555 190.311016,135.928194 189.801762,135.928194 C189.292508,135.928194 188.816963,136.036783 188.37511,136.253965 C187.933258,136.471146 187.547579,136.781936 187.218062,137.186344 C186.888545,137.590751 186.630177,138.085019 186.442952,138.669163 C186.255726,139.253307 186.162115,139.912331 186.162115,140.646256 C186.162115,142.159038 186.484138,143.331053 187.128194,144.162335 C187.77225,144.993616 188.633475,145.409251 189.711894,145.409251 C190.311016,145.409251 190.83524,145.289429 191.284581,145.04978 C191.733923,144.810131 192.138324,144.495597 192.497797,144.106167 L194.317621,146.105727 C193.703521,146.824673 193.003308,147.363875 192.21696,147.723348 C191.430613,148.082821 190.580621,148.262555 189.66696,148.262555 C188.723343,148.262555 187.832163,148.101543 186.993392,147.779515 C186.154621,147.457487 185.420708,146.981941 184.79163,146.352863 C184.162552,145.723785 183.668284,144.941194 183.308811,144.005066 C182.949337,143.068938 182.769604,141.98679 182.769604,140.75859 Z M196.54185,133.344493 L199.844493,133.344493 L199.844493,139.343172 L199.934361,139.343172 L204.292952,133.344493 L207.932599,133.344493 L203.506608,139.185903 L208.74141,147.992952 L205.124229,147.992952 L201.551982,141.814537 L199.844493,144.061233 L199.844493,147.992952 L196.54185,147.992952 L196.54185,133.344493 Z M209.640088,140.75859 C209.640088,139.545368 209.831055,138.463221 210.212996,137.512115 C210.594936,136.561008 211.111671,135.75595 211.763216,135.096916 C212.414761,134.437882 213.17863,133.936125 214.054846,133.59163 C214.931062,133.247135 215.863431,133.07489 216.851982,133.07489 C217.885468,133.07489 218.780393,133.269602 219.536784,133.659031 C220.293176,134.04846 220.911011,134.490306 221.390308,134.984581 L219.570485,137.029075 C219.211011,136.68458 218.832821,136.414979 218.435903,136.220264 C218.038985,136.02555 217.525994,135.928194 216.896916,135.928194 C216.32775,135.928194 215.807271,136.036783 215.335463,136.253965 C214.863654,136.471146 214.455508,136.781936 214.111013,137.186344 C213.766518,137.590751 213.500662,138.085019 213.313436,138.669163 C213.126211,139.253307 213.032599,139.912331 213.032599,140.646256 C213.032599,142.159038 213.373345,143.331053 214.054846,144.162335 C214.736347,144.993616 215.766072,145.409251 217.144053,145.409251 C217.443614,145.409251 217.735681,145.371807 218.020264,145.296916 C218.304847,145.222026 218.537004,145.109692 218.71674,144.959912 L218.71674,142.443612 L216.290308,142.443612 L216.290308,139.747577 L221.637445,139.747577 L221.637445,146.487665 C221.113213,146.981941 220.424233,147.40132 219.570485,147.745815 C218.716736,148.09031 217.773133,148.262555 216.739648,148.262555 C215.751096,148.262555 214.826216,148.101543 213.964978,147.779515 C213.10374,147.457487 212.351105,146.981941 211.707048,146.352863 C211.062992,145.723785 210.557491,144.941194 210.190529,144.005066 C209.823566,143.068938 209.640088,141.98679 209.640088,140.75859 Z M227.973128,140.084581 L229.680617,140.084581 C230.549344,140.084581 231.212112,139.901103 231.668943,139.534141 C232.125773,139.167179 232.354185,138.624233 232.354185,137.905286 C232.354185,137.18634 232.125773,136.684583 231.668943,136.4 C231.212112,136.115417 230.549344,135.973128 229.680617,135.973128 L227.973128,135.973128 L227.973128,140.084581 Z M232.601322,147.992952 L229.792952,142.713216 L227.973128,142.713216 L227.973128,147.992952 L224.670485,147.992952 L224.670485,133.344493 L229.95022,133.344493 C230.729079,133.344493 231.459248,133.419383 232.140749,133.569163 C232.82225,133.718943 233.417619,133.969822 233.926872,134.321806 C234.436126,134.67379 234.840527,135.141847 235.140088,135.725991 C235.439649,136.310135 235.589427,137.03656 235.589427,137.905286 C235.589427,138.983706 235.353527,139.871142 234.881718,140.567621 C234.40991,141.2641 233.777096,141.78458 232.98326,142.129075 L236.30837,147.992952 L232.601322,147.992952 Z M244.463877,148.262555 C243.475325,148.262555 242.572912,148.086566 241.756608,147.734581 C240.940304,147.382597 240.240091,146.877096 239.655947,146.218062 C239.071803,145.559028 238.618724,144.757714 238.296696,143.814097 C237.974668,142.87048 237.813656,141.799565 237.813656,140.601322 C237.813656,139.403078 237.974668,138.335908 238.296696,137.39978 C238.618724,136.463652 239.071803,135.677316 239.655947,135.040749 C240.240091,134.404182 240.940304,133.917403 241.756608,133.580396 C242.572912,133.24339 243.475325,133.07489 244.463877,133.07489 C245.452428,133.07489 246.354842,133.24339 247.171145,133.580396 C247.987449,133.917403 248.687662,134.407926 249.271806,135.051982 C249.85595,135.696038 250.309029,136.486119 250.631057,137.422247 C250.953085,138.358375 251.114097,139.418056 251.114097,140.601322 C251.114097,141.799565 250.953085,142.87048 250.631057,143.814097 C250.309029,144.757714 249.85595,145.559028 249.271806,146.218062 C248.687662,146.877096 247.987449,147.382597 247.171145,147.734581 C246.354842,148.086566 245.452428,148.262555 244.463877,148.262555 Z M244.463877,145.409251 C245.467406,145.409251 246.261231,144.978639 246.845374,144.117401 C247.429518,143.256163 247.721586,142.084148 247.721586,140.601322 C247.721586,139.133473 247.429518,137.987669 246.845374,137.163877 C246.261231,136.340084 245.467406,135.928194 244.463877,135.928194 C243.460347,135.928194 242.666523,136.340084 242.082379,137.163877 C241.498235,137.987669 241.206167,139.133473 241.206167,140.601322 C241.206167,142.084148 241.498235,143.256163 242.082379,144.117401 C242.666523,144.978639 243.460347,145.409251 244.463877,145.409251 Z M253.787665,133.344493 L257.112775,133.344493 L257.112775,141.544934 C257.112775,142.982827 257.329954,143.986341 257.764317,144.555507 C258.198681,145.124672 258.827749,145.409251 259.651542,145.409251 C260.475335,145.409251 261.111892,145.124672 261.561233,144.555507 C262.010575,143.986341 262.235242,142.982827 262.235242,141.544934 L262.235242,133.344493 L265.425551,133.344493 L265.425551,141.20793 C265.425551,143.664329 264.935027,145.454179 263.953965,146.577533 C262.972903,147.700887 261.538776,148.262555 259.651542,148.262555 C257.74933,148.262555 256.296481,147.700887 255.292952,146.577533 C254.289422,145.454179 253.787665,143.664329 253.787665,141.20793 L253.787665,133.344493 Z M268.818062,133.344493 L272.210573,133.344493 L276.029956,140.623789 L277.467841,143.859031 L277.557709,143.859031 C277.482819,143.080172 277.396697,142.211459 277.299339,141.252863 C277.201982,140.294268 277.153304,139.380621 277.153304,138.511894 L277.153304,133.344493 L280.298678,133.344493 L280.298678,147.992952 L276.906167,147.992952 L273.086784,140.691189 L271.648899,137.500881 L271.559031,137.500881 C271.633921,138.309696 271.720044,139.178409 271.817401,140.107048 C271.914758,141.035687 271.963436,141.934357 271.963436,142.803084 L271.963436,147.992952 L268.818062,147.992952 L268.818062,133.344493 Z M283.75859,133.344493 L287.892511,133.344493 C289.015865,133.344493 290.026868,133.486783 290.925551,133.771366 C291.824234,134.055949 292.595591,134.49405 293.239648,135.085683 C293.883704,135.677316 294.377972,136.429951 294.722467,137.343612 C295.066962,138.257273 295.239207,139.343166 295.239207,140.601322 C295.239207,141.859478 295.066962,142.952859 294.722467,143.881498 C294.377972,144.810137 293.891193,145.57775 293.262115,146.184361 C292.633037,146.790972 291.880401,147.244051 291.004185,147.543612 C290.127969,147.843173 289.150666,147.992952 288.072247,147.992952 L283.75859,147.992952 L283.75859,133.344493 Z M287.690308,145.319383 C288.319386,145.319383 288.888544,145.237005 289.397797,145.072247 C289.907051,144.907488 290.341408,144.641632 290.700881,144.27467 C291.060354,143.907707 291.341188,143.424673 291.543392,142.825551 C291.745596,142.226429 291.846696,141.485026 291.846696,140.601322 C291.846696,139.732595 291.745596,139.002426 291.543392,138.410793 C291.341188,137.81916 291.060354,137.347359 290.700881,136.995374 C290.341408,136.64339 289.907051,136.392512 289.397797,136.242731 C288.888544,136.092951 288.319386,136.018062 287.690308,136.018062 L287.061233,136.018062 L287.061233,145.319383 L287.690308,145.319383 Z M297.261233,141.140529 L302.788106,141.140529 L302.788106,143.477093 L297.261233,143.477093 L297.261233,141.140529 Z M305.484141,133.344493 L308.786784,133.344493 L308.786784,147.992952 L305.484141,147.992952 L305.484141,133.344493 Z M312.246696,133.344493 L315.751542,133.344493 L318.200441,139.927313 L319.076652,142.488546 L319.16652,142.488546 L320.042731,139.927313 L322.424229,133.344493 L325.906608,133.344493 L325.906608,147.992952 L322.828634,147.992952 L322.828634,142.623348 C322.828634,142.263875 322.843612,141.866963 322.873568,141.432599 C322.903524,140.998236 322.940969,140.560134 322.985903,140.118282 C323.030837,139.67643 323.075771,139.242073 323.120705,138.815198 C323.165639,138.388324 323.210572,137.995156 323.255507,137.635683 L323.165639,137.635683 L321.952423,141.028194 L319.705727,146.712335 L318.380176,146.712335 L316.13348,141.028194 L314.965198,137.635683 L314.87533,137.635683 C314.920265,137.995156 314.965198,138.388324 315.010132,138.815198 C315.055066,139.242073 315.096255,139.67643 315.1337,140.118282 C315.171146,140.560134 315.204846,140.998236 315.234802,141.432599 C315.264758,141.866963 315.279736,142.263875 315.279736,142.623348 L315.279736,147.992952 L312.246696,147.992952 L312.246696,133.344493 Z M335.567401,141.926872 L335.230396,140.578855 C335.020704,139.84493 334.818503,139.066083 334.623789,138.242291 C334.429074,137.418498 334.234362,136.624673 334.039648,135.860793 L333.94978,135.860793 C333.770043,136.639651 333.586565,137.437221 333.399339,138.253524 C333.212114,139.069828 333.013657,139.84493 332.803965,140.578855 L332.444493,141.926872 L335.567401,141.926872 Z M336.24141,144.510573 L331.770485,144.510573 L330.871806,147.992952 L327.501762,147.992952 L332.085022,133.344493 L336.061674,133.344493 L340.644934,147.992952 L337.140088,147.992952 L336.24141,144.510573 Z M341.543612,140.75859 C341.543612,139.545368 341.73458,138.463221 342.11652,137.512115 C342.49846,136.561008 343.015195,135.75595 343.66674,135.096916 C344.318285,134.437882 345.082154,133.936125 345.95837,133.59163 C346.834586,133.247135 347.766955,133.07489 348.755507,133.07489 C349.788992,133.07489 350.683917,133.269602 351.440308,133.659031 C352.1967,134.04846 352.814535,134.490306 353.293833,134.984581 L351.474009,137.029075 C351.114536,136.68458 350.736346,136.414979 350.339427,136.220264 C349.942509,136.02555 349.429519,135.928194 348.800441,135.928194 C348.231275,135.928194 347.710795,136.036783 347.238987,136.253965 C346.767178,136.471146 346.359033,136.781936 346.014537,137.186344 C345.670042,137.590751 345.404186,138.085019 345.21696,138.669163 C345.029735,139.253307 344.936123,139.912331 344.936123,140.646256 C344.936123,142.159038 345.276869,143.331053 345.95837,144.162335 C346.639871,144.993616 347.669597,145.409251 349.047577,145.409251 C349.347138,145.409251 349.639206,145.371807 349.923789,145.296916 C350.208371,145.222026 350.440528,145.109692 350.620264,144.959912 L350.620264,142.443612 L348.193833,142.443612 L348.193833,139.747577 L353.540969,139.747577 L353.540969,146.487665 C353.016737,146.981941 352.327758,147.40132 351.474009,147.745815 C350.62026,148.09031 349.676657,148.262555 348.643172,148.262555 C347.654621,148.262555 346.72974,148.101543 345.868502,147.779515 C345.007264,147.457487 344.254629,146.981941 343.610573,146.352863 C342.966517,145.723785 342.461015,144.941194 342.094053,144.005066 C341.727091,143.068938 341.543612,141.98679 341.543612,140.75859 Z M356.574009,133.344493 L365.740529,133.344493 L365.740529,136.130396 L359.876652,136.130396 L359.876652,139.073568 L364.864317,139.073568 L364.864317,141.837004 L359.876652,141.837004 L359.876652,145.207048 L365.965198,145.207048 L365.965198,147.992952 L356.574009,147.992952 L356.574009,133.344493 Z M371.963877,132.04141 L374.120705,132.04141 L369.604846,151.587665 L367.448018,151.587665 L371.963877,132.04141 Z M375.805727,140.75859 C375.805727,139.545368 375.99295,138.463221 376.367401,137.512115 C376.741852,136.561008 377.247354,135.75595 377.883921,135.096916 C378.520488,134.437882 379.26189,133.936125 380.10815,133.59163 C380.95441,133.247135 381.849334,133.07489 382.792952,133.07489 C383.706612,133.07489 384.534137,133.265857 385.275551,133.647797 C386.016964,134.029738 386.634799,134.475328 387.129075,134.984581 L385.309251,137.029075 C384.9348,136.68458 384.55661,136.414979 384.17467,136.220264 C383.792729,136.02555 383.347139,135.928194 382.837885,135.928194 C382.328632,135.928194 381.853086,136.036783 381.411233,136.253965 C380.969381,136.471146 380.583702,136.781936 380.254185,137.186344 C379.924668,137.590751 379.6663,138.085019 379.479075,138.669163 C379.291849,139.253307 379.198238,139.912331 379.198238,140.646256 C379.198238,142.159038 379.520261,143.331053 380.164317,144.162335 C380.808373,144.993616 381.669598,145.409251 382.748018,145.409251 C383.34714,145.409251 383.871363,145.289429 384.320705,145.04978 C384.770046,144.810131 385.174448,144.495597 385.533921,144.106167 L387.353744,146.105727 C386.739645,146.824673 386.039431,147.363875 385.253084,147.723348 C384.466736,148.082821 383.616745,148.262555 382.703084,148.262555 C381.759467,148.262555 380.868286,148.101543 380.029515,147.779515 C379.190745,147.457487 378.456831,146.981941 377.827753,146.352863 C377.198675,145.723785 376.704407,144.941194 376.344934,144.005066 C375.985461,143.068938 375.805727,141.98679 375.805727,140.75859 Z M395.531718,148.262555 C394.543167,148.262555 393.640753,148.086566 392.824449,147.734581 C392.008146,147.382597 391.307932,146.877096 390.723789,146.218062 C390.139645,145.559028 389.686565,144.757714 389.364537,143.814097 C389.042509,142.87048 388.881498,141.799565 388.881498,140.601322 C388.881498,139.403078 389.042509,138.335908 389.364537,137.39978 C389.686565,136.463652 390.139645,135.677316 390.723789,135.040749 C391.307932,134.404182 392.008146,133.917403 392.824449,133.580396 C393.640753,133.24339 394.543167,133.07489 395.531718,133.07489 C396.520269,133.07489 397.422683,133.24339 398.238987,133.580396 C399.05529,133.917403 399.755504,134.407926 400.339648,135.051982 C400.923791,135.696038 401.376871,136.486119 401.698899,137.422247 C402.020927,138.358375 402.181938,139.418056 402.181938,140.601322 C402.181938,141.799565 402.020927,142.87048 401.698899,143.814097 C401.376871,144.757714 400.923791,145.559028 400.339648,146.218062 C399.755504,146.877096 399.05529,147.382597 398.238987,147.734581 C397.422683,148.086566 396.520269,148.262555 395.531718,148.262555 Z M395.531718,145.409251 C396.535247,145.409251 397.329072,144.978639 397.913216,144.117401 C398.49736,143.256163 398.789427,142.084148 398.789427,140.601322 C398.789427,139.133473 398.49736,137.987669 397.913216,137.163877 C397.329072,136.340084 396.535247,135.928194 395.531718,135.928194 C394.528189,135.928194 393.734364,136.340084 393.15022,137.163877 C392.566076,137.987669 392.274009,139.133473 392.274009,140.601322 C392.274009,142.084148 392.566076,143.256163 393.15022,144.117401 C393.734364,144.978639 394.528189,145.409251 395.531718,145.409251 Z M404.945374,133.344493 L408.248018,133.344493 L408.248018,145.207048 L414.044493,145.207048 L414.044493,147.992952 L404.945374,147.992952 L404.945374,133.344493 Z M422.537004,148.262555 C421.548453,148.262555 420.646039,148.086566 419.829736,147.734581 C419.013432,147.382597 418.313219,146.877096 417.729075,146.218062 C417.144931,145.559028 416.691852,144.757714 416.369824,143.814097 C416.047796,142.87048 415.886784,141.799565 415.886784,140.601322 C415.886784,139.403078 416.047796,138.335908 416.369824,137.39978 C416.691852,136.463652 417.144931,135.677316 417.729075,135.040749 C418.313219,134.404182 419.013432,133.917403 419.829736,133.580396 C420.646039,133.24339 421.548453,133.07489 422.537004,133.07489 C423.525556,133.07489 424.427969,133.24339 425.244273,133.580396 C426.060577,133.917403 426.76079,134.407926 427.344934,135.051982 C427.929078,135.696038 428.382157,136.486119 428.704185,137.422247 C429.026213,138.358375 429.187225,139.418056 429.187225,140.601322 C429.187225,141.799565 429.026213,142.87048 428.704185,143.814097 C428.382157,144.757714 427.929078,145.559028 427.344934,146.218062 C426.76079,146.877096 426.060577,147.382597 425.244273,147.734581 C424.427969,148.086566 423.525556,148.262555 422.537004,148.262555 Z M422.537004,145.409251 C423.540534,145.409251 424.334358,144.978639 424.918502,144.117401 C425.502646,143.256163 425.794714,142.084148 425.794714,140.601322 C425.794714,139.133473 425.502646,137.987669 424.918502,137.163877 C424.334358,136.340084 423.540534,135.928194 422.537004,135.928194 C421.533475,135.928194 420.73965,136.340084 420.155507,137.163877 C419.571363,137.987669 419.279295,139.133473 419.279295,140.601322 C419.279295,142.084148 419.571363,143.256163 420.155507,144.117401 C420.73965,144.978639 421.533475,145.409251 422.537004,145.409251 Z M435.253304,140.084581 L436.960793,140.084581 C437.82952,140.084581 438.492288,139.901103 438.949119,139.534141 C439.405949,139.167179 439.634361,138.624233 439.634361,137.905286 C439.634361,137.18634 439.405949,136.684583 438.949119,136.4 C438.492288,136.115417 437.82952,135.973128 436.960793,135.973128 L435.253304,135.973128 L435.253304,140.084581 Z M439.881498,147.992952 L437.073128,142.713216 L435.253304,142.713216 L435.253304,147.992952 L431.950661,147.992952 L431.950661,133.344493 L437.230396,133.344493 C438.009255,133.344493 438.739424,133.419383 439.420925,133.569163 C440.102426,133.718943 440.697795,133.969822 441.207048,134.321806 C441.716302,134.67379 442.120703,135.141847 442.420264,135.725991 C442.719825,136.310135 442.869604,137.03656 442.869604,137.905286 C442.869604,138.983706 442.633703,139.871142 442.161894,140.567621 C441.690086,141.2641 441.057273,141.78458 440.263436,142.129075 L443.588546,147.992952 L439.881498,147.992952 Z" id="CALL-TO-ACTION-BACKG" fill="#FFFFFF"></path>
        </g>
    </g>
</svg>