<?xml version="1.0" encoding="UTF-8"?>
<svg width="600px" height="320px" viewBox="0 0 600 320" version="1.1" xmlns="http://www.w3.org/2000/svg" xmlns:xlink="http://www.w3.org/1999/xlink">
    <!-- Generator: Sketch 44.1 (41455) - http://www.bohemiancoding.com/sketch -->
    <title>calltoaction16</title>
    <desc>Created with Sketch.</desc>
    <defs></defs>
    <g id="Calltoaction" stroke="none" stroke-width="1" fill="none" fill-rule="evenodd">
        <g id="16">
            <rect id="Rectangle-14" fill="#F8F8F8" x="0" y="0" width="600" height="319.663866"></rect>
            <g id="Group-14" transform="translate(76.638655, 13.109244)">
                <path d="M28.7681492,301.934912 C28.7681492,299.662909 28.5586973,294.52551 26.1855015,290.026054 C23.8123057,285.526598 24.8631149,281.139406 22.7827967,277.564789 C20.7024784,273.990171 13.7461925,269.497843 11.6676492,265.661277 C9.58910602,261.824711 10.0204348,265.958865 10.844042,257.79213 C11.6676492,249.625394 9.71868215,247.863033 8.79922409,242.828988 C7.87976603,237.794943 5.49769515,224.278755 5.7781476,221.882015 C6.05860006,219.485276 1.64946141,211.616128 1.1009816,208.984169 C0.552501791,206.35221 -1.5562167,191.380158 2.11096545,178.929585 C5.7781476,166.479011 11.9108264,163.123575 15.1910551,161.681967 C18.4712839,160.240359 21.5970863,160.687631 22.1899415,156.968675 C22.7827967,153.249719 20.3616755,132.409664 19.057039,121.938851 C17.7524026,111.468037 7.08633407,53.8750002 19.2984411,33.7299109 C31.5105482,13.5848216 43.6605297,-3.42044925 69.8828346,0.590748976 C96.1051395,4.6019472 108.787626,26.6091876 110.857294,35.01827 C112.926962,43.4273524 116.201866,113.189413 115.781187,134.155988 C115.360508,155.122562 119.400444,171.68056 122.327444,175.305072 C125.254445,178.929585 138.258209,190.743998 149.281056,201.319947 C160.303902,211.895896 167.059612,223.181066 167.492715,226.45275 C167.925819,229.724434 169.005029,237.604273 171.024996,240.216631 C173.044964,242.828988 181.218911,249.046256 183.132377,253.419193 C185.045844,257.79213 196.512445,266.538003 199.357795,269.5317 C202.203145,272.525398 207.297439,272.158314 209.399058,274.861551 C211.500676,277.564789 220.219553,290.655087 220.49113,296.294999 C220.672182,300.054941 220.747324,303.299301 220.716557,306.02808 L29.0592517,306.49139 C28.8651833,304.968406 28.7681492,303.44958 28.7681492,301.934912 Z" id="Path-4" fill="#B3B4B7"></path>
                <path d="M75.4115625,28.2833133 C57.8732254,32.3877676 48.0627144,35.9665429 45.9800295,39.0196391 C42.8560021,43.5992835 29.9693891,67.6165779 29.9906893,85.519958 C30.0119895,103.423338 32.2236589,112.689545 41.3117386,119.143814 C50.3998182,125.598083 65.4519502,130.487789 68.8120547,129.826681 C72.1721591,129.165572 86.4947597,121.080807 91.5304788,110.187669 C96.566198,99.2945303 102.107797,82.6902011 100.851086,76.7633929 C99.5943745,70.8365846 97.480331,68.8799895 97.4022303,65.7882841 C97.3241296,62.6965786 98.6695914,44.8341837 91.1790258,36.5587485 C86.1853153,31.0417917 80.9294942,28.2833133 75.4115625,28.2833133 Z" id="Path-5" fill="#FFFFFF" transform="translate(65.511114, 79.084959) rotate(-7.000000) translate(-65.511114, -79.084959) "></path>
                <path d="M48.6412037,145.903387 C99.3368315,195.307711 127.639455,223.483512 133.549073,230.430791 C142.413501,240.85171 86.7312627,175.808286 86.9389395,160.855836 C87.0773907,150.887537 88.1157748,143.336766 90.0540918,138.203525 C85.4840184,141.813782 81.4565081,143.999656 77.9715609,144.761149 C72.74414,145.903387 53.8135991,138.788009 47.4430682,134.917586 C43.1960477,132.337304 43.5954262,135.999237 48.6412037,145.903387 Z" id="Path-6" fill="#FFFFFF"></path>
            </g>
            <path d="M309.07563,97.3109244 L567.297784,97.3109244" id="Line" stroke="#D7D9D9" stroke-width="5" stroke-linecap="square"></path>
            <path d="M309.07563,114.453782 L509.750433,114.453782" id="Line" stroke="#D7D9D9" stroke-width="5" stroke-linecap="square"></path>
            <path d="M307.343193,64.0598319 C307.343193,63.134113 307.486049,62.308407 307.771765,61.5826891 C308.05748,60.8569712 308.443191,60.2426916 308.928908,59.7398319 C309.414624,59.2369723 309.980333,58.854119 310.62605,58.5912605 C311.271768,58.328402 311.954618,58.1969748 312.674622,58.1969748 C313.371768,58.1969748 314.00319,58.3426876 314.568908,58.6341176 C315.134625,58.9255477 315.606049,59.2655443 315.983193,59.6541176 L314.594622,61.2141176 C314.308906,60.9512592 314.020338,60.745547 313.728908,60.5969748 C313.437478,60.4484026 313.097481,60.3741176 312.708908,60.3741176 C312.320334,60.3741176 311.957481,60.456974 311.620336,60.6226891 C311.283192,60.7884042 310.988909,61.0255447 310.737479,61.3341176 C310.486049,61.6426906 310.288908,62.0198297 310.14605,62.4655462 C310.003193,62.9112627 309.931765,63.4141148 309.931765,63.9741176 C309.931765,65.1284091 310.177477,66.0226859 310.668908,66.6569748 C311.160339,67.2912637 311.817475,67.6084034 312.640336,67.6084034 C313.097481,67.6084034 313.497477,67.5169757 313.840336,67.3341176 C314.183195,67.1512596 314.491763,66.911262 314.76605,66.6141176 L316.154622,68.1398319 C315.686048,68.6884061 315.151768,69.0998306 314.551765,69.3741176 C313.951762,69.6484047 313.303197,69.7855462 312.60605,69.7855462 C311.886047,69.7855462 311.206054,69.6626903 310.56605,69.4169748 C309.926047,69.1712593 309.366053,68.8084058 308.88605,68.3284034 C308.406048,67.848401 308.028909,67.2512641 307.754622,66.5369748 C307.480335,65.8226855 307.343193,64.9969795 307.343193,64.0598319 Z M317.337479,67.2141176 C317.337479,66.3226846 317.714618,65.6255487 318.468908,65.1226891 C319.223197,64.6198294 320.440328,64.2826899 322.120336,64.1112605 C322.097479,63.7341158 321.983194,63.4341188 321.777479,63.2112605 C321.571764,62.9884022 321.240338,62.8769748 320.783193,62.8769748 C320.417477,62.8769748 320.051767,62.9455455 319.68605,63.0826891 C319.320334,63.2198326 318.931767,63.4084022 318.520336,63.6484034 L317.628908,61.9855462 C318.177482,61.654116 318.751762,61.3855472 319.351765,61.1798319 C319.951768,60.9741166 320.588904,60.8712605 321.263193,60.8712605 C322.360342,60.8712605 323.197476,61.182686 323.774622,61.8055462 C324.351768,62.4284065 324.640336,63.3969682 324.640336,64.7112605 L324.640336,69.5798319 L322.583193,69.5798319 L322.394622,68.7055462 L322.343193,68.7055462 C321.977477,69.0255478 321.591767,69.2855452 321.18605,69.4855462 C320.780334,69.6855472 320.337481,69.7855462 319.857479,69.7855462 C319.468906,69.7855462 319.120338,69.7198326 318.811765,69.5884034 C318.503192,69.4569741 318.240337,69.2741188 318.023193,69.0398319 C317.806049,68.805545 317.63748,68.5341192 317.517479,68.2255462 C317.397478,67.9169732 317.337479,67.5798338 317.337479,67.2141176 Z M319.737479,67.0255462 C319.737479,67.2998333 319.82605,67.5026884 320.003193,67.6341176 C320.180337,67.7655469 320.417478,67.8312605 320.714622,67.8312605 C321.011766,67.8312605 321.263192,67.768404 321.468908,67.6426891 C321.674623,67.5169742 321.891764,67.3398331 322.120336,67.1112605 L322.120336,65.6198319 C321.217474,65.7455468 320.594624,65.9284022 320.251765,66.1684034 C319.908906,66.4084046 319.737479,66.694116 319.737479,67.0255462 Z M326.800336,57.5626891 L329.320336,57.5626891 L329.320336,67.0426891 C329.320336,67.3055475 329.368907,67.4884028 329.46605,67.5912605 C329.563194,67.6941182 329.663193,67.7455462 329.76605,67.7455462 L329.911765,67.7455462 C329.951765,67.7455462 330.00605,67.7341178 330.074622,67.7112605 L330.383193,69.5798319 C330.24605,69.6369751 330.071766,69.685546 329.860336,69.7255462 C329.648907,69.7655464 329.400338,69.7855462 329.114622,69.7855462 C328.680334,69.7855462 328.314623,69.7169755 328.017479,69.5798319 C327.720335,69.4426884 327.483194,69.2512617 327.30605,69.0055462 C327.128907,68.7598307 327.000337,68.4626908 326.920336,68.1141176 C326.840336,67.7655445 326.800336,67.3741198 326.800336,66.9398319 L326.800336,57.5626891 Z M331.703193,57.5626891 L334.223193,57.5626891 L334.223193,67.0426891 C334.223193,67.3055475 334.271764,67.4884028 334.368908,67.5912605 C334.466051,67.6941182 334.56605,67.7455462 334.668908,67.7455462 L334.814622,67.7455462 C334.854622,67.7455462 334.908907,67.7341178 334.977479,67.7112605 L335.28605,69.5798319 C335.148907,69.6369751 334.974623,69.685546 334.763193,69.7255462 C334.551764,69.7655464 334.303195,69.7855462 334.017479,69.7855462 C333.583191,69.7855462 333.21748,69.7169755 332.920336,69.5798319 C332.623192,69.4426884 332.386051,69.2512617 332.208908,69.0055462 C332.031764,68.7598307 331.903194,68.4626908 331.823193,68.1141176 C331.743193,67.7655445 331.703193,67.3741198 331.703193,66.9398319 L331.703193,57.5626891 Z M340.514622,63.0484034 L339.348908,63.0484034 L339.348908,61.1798319 L340.651765,61.0769748 L340.943193,58.8141176 L343.034622,58.8141176 L343.034622,61.0769748 L345.074622,61.0769748 L345.074622,63.0484034 L343.034622,63.0484034 L343.034622,66.4598319 C343.034622,66.9398343 343.134621,67.2855452 343.334622,67.4969748 C343.534623,67.7084044 343.800334,67.8141176 344.131765,67.8141176 C344.268908,67.8141176 344.408907,67.796975 344.551765,67.7626891 C344.694623,67.7284032 344.823193,67.6884036 344.937479,67.6426891 L345.331765,69.4769748 C345.103192,69.5455466 344.834623,69.6141173 344.52605,69.6826891 C344.217477,69.7512608 343.857481,69.7855462 343.44605,69.7855462 C342.920334,69.7855462 342.471767,69.705547 342.100336,69.5455462 C341.728906,69.3855454 341.426052,69.1626905 341.191765,68.8769748 C340.957478,68.5912591 340.786051,68.2455482 340.677479,67.8398319 C340.568907,67.4341156 340.514622,66.9855487 340.514622,66.4941176 L340.514622,63.0484034 Z M346.068908,65.3284034 C346.068908,64.6198284 346.183192,63.9884061 346.411765,63.4341176 C346.640337,62.8798292 346.946049,62.4141195 347.328908,62.0369748 C347.711767,61.65983 348.154619,61.3712615 348.657479,61.1712605 C349.160339,60.9712595 349.680333,60.8712605 350.217479,60.8712605 C350.754625,60.8712605 351.271762,60.9712595 351.768908,61.1712605 C352.266053,61.3712615 352.706049,61.65983 353.088908,62.0369748 C353.471767,62.4141195 353.777478,62.8798292 354.00605,63.4341176 C354.234623,63.9884061 354.348908,64.6198284 354.348908,65.3284034 C354.348908,66.0369783 354.234623,66.6684006 354.00605,67.2226891 C353.777478,67.7769776 353.471767,68.2426872 353.088908,68.6198319 C352.706049,68.9969767 352.266053,69.2855452 351.768908,69.4855462 C351.271762,69.6855472 350.754625,69.7855462 350.217479,69.7855462 C349.680333,69.7855462 349.160339,69.6855472 348.657479,69.4855462 C348.154619,69.2855452 347.711767,68.9969767 347.328908,68.6198319 C346.946049,68.2426872 346.640337,67.7769776 346.411765,67.2226891 C346.183192,66.6684006 346.068908,66.0369783 346.068908,65.3284034 Z M348.657479,65.3284034 C348.657479,66.0712642 348.786049,66.6598298 349.043193,67.0941176 C349.300337,67.5284055 349.691762,67.7455462 350.217479,67.7455462 C350.731767,67.7455462 351.120335,67.5284055 351.383193,67.0941176 C351.646052,66.6598298 351.777479,66.0712642 351.777479,65.3284034 C351.777479,64.5855425 351.646052,63.996977 351.383193,63.5626891 C351.120335,63.1284012 350.731767,62.9112605 350.217479,62.9112605 C349.691762,62.9112605 349.300337,63.1284012 349.043193,63.5626891 C348.786049,63.996977 348.657479,64.5855425 348.657479,65.3284034 Z M364.583193,64.9512605 L364.32605,63.9226891 C364.16605,63.3626863 364.011765,62.7684065 363.863193,62.1398319 C363.714621,61.5112574 363.566051,60.9055491 363.417479,60.3226891 L363.348908,60.3226891 C363.211764,60.9169778 363.071765,61.5255431 362.928908,62.1484034 C362.78605,62.7712636 362.634623,63.3626863 362.474622,63.9226891 L362.200336,64.9512605 L364.583193,64.9512605 Z M365.097479,66.9226891 L361.68605,66.9226891 L361.000336,69.5798319 L358.428908,69.5798319 L361.92605,58.4026891 L364.960336,58.4026891 L368.457479,69.5798319 L365.783193,69.5798319 L365.097479,66.9226891 Z M368.971765,65.3284034 C368.971765,64.6198284 369.091764,63.9884061 369.331765,63.4341176 C369.571766,62.8798292 369.89462,62.4141195 370.300336,62.0369748 C370.706052,61.65983 371.177476,61.3712615 371.714622,61.1712605 C372.251767,60.9712595 372.811762,60.8712605 373.394622,60.8712605 C373.920339,60.8712605 374.39462,60.959831 374.817479,61.1369748 C375.240338,61.3141185 375.59462,61.551259 375.880336,61.8484034 L374.731765,63.4084034 C374.331763,63.0769731 373.937481,62.9112605 373.548908,62.9112605 C372.931762,62.9112605 372.446052,63.1284012 372.091765,63.5626891 C371.737477,63.996977 371.560336,64.5855425 371.560336,65.3284034 C371.560336,66.0712642 371.740334,66.6598298 372.100336,67.0941176 C372.460338,67.5284055 372.914619,67.7455462 373.463193,67.7455462 C373.771766,67.7455462 374.051763,67.6826897 374.303193,67.5569748 C374.554623,67.4312599 374.783192,67.2884042 374.988908,67.1284034 L376.000336,68.7226891 C375.588906,69.0884052 375.131767,69.3569739 374.628908,69.5284034 C374.126048,69.6998328 373.640338,69.7855462 373.171765,69.7855462 C372.577476,69.7855462 372.026053,69.6855472 371.517479,69.4855462 C371.008905,69.2855452 370.566052,68.9969767 370.188908,68.6198319 C369.811763,68.2426872 369.514623,67.7769776 369.297479,67.2226891 C369.080335,66.6684006 368.971765,66.0369783 368.971765,65.3284034 Z M377.817479,63.0484034 L376.651765,63.0484034 L376.651765,61.1798319 L377.954622,61.0769748 L378.24605,58.8141176 L380.337479,58.8141176 L380.337479,61.0769748 L382.377479,61.0769748 L382.377479,63.0484034 L380.337479,63.0484034 L380.337479,66.4598319 C380.337479,66.9398343 380.437478,67.2855452 380.637479,67.4969748 C380.83748,67.7084044 381.103192,67.8141176 381.434622,67.8141176 C381.571765,67.8141176 381.711764,67.796975 381.854622,67.7626891 C381.99748,67.7284032 382.12605,67.6884036 382.240336,67.6426891 L382.634622,69.4769748 C382.406049,69.5455466 382.137481,69.6141173 381.828908,69.6826891 C381.520335,69.7512608 381.160338,69.7855462 380.748908,69.7855462 C380.223191,69.7855462 379.774624,69.705547 379.403193,69.5455462 C379.031763,69.3855454 378.728909,69.1626905 378.494622,68.8769748 C378.260335,68.5912591 378.088908,68.2455482 377.980336,67.8398319 C377.871764,67.4341156 377.817479,66.9855487 377.817479,66.4941176 L377.817479,63.0484034 Z M385.291765,59.8255462 C384.868905,59.8255462 384.520338,59.7026903 384.24605,59.4569748 C383.971763,59.2112593 383.834622,58.8941196 383.834622,58.5055462 C383.834622,58.1169728 383.971763,57.8026903 384.24605,57.5626891 C384.520338,57.3226879 384.868905,57.2026891 385.291765,57.2026891 C385.726053,57.2026891 386.077478,57.3226879 386.34605,57.5626891 C386.614623,57.8026903 386.748908,58.1169728 386.748908,58.5055462 C386.748908,58.8941196 386.614623,59.2112593 386.34605,59.4569748 C386.077478,59.7026903 385.726053,59.8255462 385.291765,59.8255462 Z M384.040336,61.0769748 L386.560336,61.0769748 L386.560336,69.5798319 L384.040336,69.5798319 L384.040336,61.0769748 Z M388.274622,65.3284034 C388.274622,64.6198284 388.388906,63.9884061 388.617479,63.4341176 C388.846052,62.8798292 389.151763,62.4141195 389.534622,62.0369748 C389.917481,61.65983 390.360334,61.3712615 390.863193,61.1712605 C391.366053,60.9712595 391.886048,60.8712605 392.423193,60.8712605 C392.960339,60.8712605 393.477477,60.9712595 393.974622,61.1712605 C394.471767,61.3712615 394.911763,61.65983 395.294622,62.0369748 C395.677481,62.4141195 395.983192,62.8798292 396.211765,63.4341176 C396.440337,63.9884061 396.554622,64.6198284 396.554622,65.3284034 C396.554622,66.0369783 396.440337,66.6684006 396.211765,67.2226891 C395.983192,67.7769776 395.677481,68.2426872 395.294622,68.6198319 C394.911763,68.9969767 394.471767,69.2855452 393.974622,69.4855462 C393.477477,69.6855472 392.960339,69.7855462 392.423193,69.7855462 C391.886048,69.7855462 391.366053,69.6855472 390.863193,69.4855462 C390.360334,69.2855452 389.917481,68.9969767 389.534622,68.6198319 C389.151763,68.2426872 388.846052,67.7769776 388.617479,67.2226891 C388.388906,66.6684006 388.274622,66.0369783 388.274622,65.3284034 Z M390.863193,65.3284034 C390.863193,66.0712642 390.991763,66.6598298 391.248908,67.0941176 C391.506052,67.5284055 391.897476,67.7455462 392.423193,67.7455462 C392.937482,67.7455462 393.326049,67.5284055 393.588908,67.0941176 C393.851766,66.6598298 393.983193,66.0712642 393.983193,65.3284034 C393.983193,64.5855425 393.851766,63.996977 393.588908,63.5626891 C393.326049,63.1284012 392.937482,62.9112605 392.423193,62.9112605 C391.897476,62.9112605 391.506052,63.1284012 391.248908,63.5626891 C390.991763,63.996977 390.863193,64.5855425 390.863193,65.3284034 Z M398.28605,61.0769748 L400.343193,61.0769748 L400.514622,62.1569748 L400.583193,62.1569748 C400.948909,61.8141159 401.348905,61.5141189 401.783193,61.2569748 C402.217481,60.9998306 402.726048,60.8712605 403.308908,60.8712605 C404.234626,60.8712605 404.906048,61.1741146 405.323193,61.7798319 C405.740338,62.3855492 405.948908,63.2255408 405.948908,64.2998319 L405.948908,69.5798319 L403.428908,69.5798319 L403.428908,64.6255462 C403.428908,64.0084003 403.346051,63.5855474 403.180336,63.3569748 C403.014621,63.1284022 402.748909,63.0141176 402.383193,63.0141176 C402.063192,63.0141176 401.788909,63.0855455 401.560336,63.2284034 C401.331764,63.3712612 401.080338,63.5741163 400.80605,63.8369748 L400.80605,69.5798319 L398.28605,69.5798319 L398.28605,61.0769748 Z" id="Call-to-Action" fill="#79797B"></path>
            <path d="M308.067227,138.655462 L575.387331,138.655462" id="Line" stroke="#979797" stroke-width="5" stroke-linecap="square"></path>
            <path d="M308.067227,152.773109 L575.387331,152.773109" id="Line" stroke="#979797" stroke-width="5" stroke-linecap="square"></path>
            <path d="M308.067227,166.890756 L575.387331,166.890756" id="Line" stroke="#979797" stroke-width="5" stroke-linecap="square"></path>
            <path d="M308.067227,180 L378.720258,180" id="Line" stroke="#979797" stroke-width="5" stroke-linecap="square"></path>
            <path d="M337.815126,242.016807 L338.852773,242.016807 L338.852773,245.743866 L340.67395,245.743866 L340.67395,246.61916 L337.815126,246.61916 L337.815126,242.016807 Z M341.083361,244.868571 C341.083361,244.586217 341.13042,244.330926 341.224538,244.102689 C341.318656,243.874453 341.442184,243.681513 341.595126,243.523866 C341.748068,243.366218 341.92336,243.245042 342.121008,243.160336 C342.318656,243.07563 342.52336,243.033277 342.735126,243.033277 C342.984539,243.033277 343.202184,243.07563 343.388067,243.160336 C343.573951,243.245042 343.729243,243.362688 343.85395,243.513277 C343.978656,243.663866 344.071596,243.841512 344.132773,244.046218 C344.19395,244.250925 344.224538,244.473276 344.224538,244.713277 C344.224538,244.807395 344.219832,244.893277 344.21042,244.970924 C344.201008,245.048572 344.191597,245.108571 344.182185,245.150924 L342.085714,245.150924 C342.132773,245.419161 342.237478,245.613277 342.399832,245.733277 C342.562186,245.853278 342.761007,245.913277 342.996303,245.913277 C343.245716,245.913277 343.497478,245.835631 343.751597,245.680336 L344.097479,246.308571 C343.918655,246.430925 343.719833,246.527395 343.501008,246.597983 C343.282184,246.668572 343.066892,246.703866 342.855126,246.703866 C342.605713,246.703866 342.372774,246.662689 342.156303,246.580336 C341.939831,246.497983 341.751597,246.377984 341.591597,246.220336 C341.431596,246.062688 341.306891,245.870925 341.217479,245.645042 C341.128067,245.419159 341.083361,245.160338 341.083361,244.868571 Z M343.342185,244.508571 C343.342185,244.306217 343.297479,244.141513 343.208067,244.014454 C343.118655,243.887394 342.968068,243.823866 342.756303,243.823866 C342.591596,243.823866 342.446891,243.879159 342.322185,243.989748 C342.197478,244.100337 342.116303,244.273276 342.078655,244.508571 L343.342185,244.508571 Z M344.739832,245.645042 C344.739832,245.277981 344.895124,244.990925 345.205714,244.783866 C345.516304,244.576806 346.017476,244.437984 346.709244,244.367395 C346.699832,244.2121 346.652774,244.088572 346.568067,243.996807 C346.483361,243.905042 346.346892,243.85916 346.158655,243.85916 C346.008066,243.85916 345.85748,243.887395 345.706891,243.943866 C345.556302,244.000336 345.396303,244.077983 345.226891,244.176807 L344.859832,243.492101 C345.085715,243.35563 345.322184,243.245042 345.569244,243.160336 C345.816304,243.07563 346.078654,243.033277 346.356303,243.033277 C346.808069,243.033277 347.152772,243.161511 347.39042,243.417983 C347.628068,243.674455 347.746891,244.073275 347.746891,244.614454 L347.746891,246.61916 L346.899832,246.61916 L346.822185,246.25916 L346.801008,246.25916 C346.650419,246.390925 346.491597,246.497983 346.324538,246.580336 C346.157478,246.662689 345.975127,246.703866 345.777479,246.703866 C345.617478,246.703866 345.47395,246.676807 345.346891,246.622689 C345.219831,246.568571 345.111597,246.493278 345.022185,246.396807 C344.932773,246.300336 344.863362,246.188572 344.81395,246.061513 C344.764538,245.934453 344.739832,245.795631 344.739832,245.645042 Z M345.728067,245.567395 C345.728067,245.680337 345.764537,245.763865 345.837479,245.817983 C345.910421,245.872101 346.008067,245.89916 346.13042,245.89916 C346.252774,245.89916 346.356302,245.873278 346.441008,245.821513 C346.525715,245.769748 346.615126,245.696807 346.709244,245.602689 L346.709244,244.988571 C346.337477,245.040336 346.081009,245.11563 345.939832,245.214454 C345.798655,245.313278 345.728067,245.430924 345.728067,245.567395 Z M348.636303,243.117983 L349.483361,243.117983 L349.55395,243.732101 L349.582185,243.732101 C349.709244,243.4921 349.862184,243.315631 350.041008,243.202689 C350.219833,243.089747 350.398655,243.033277 350.577479,243.033277 C350.676303,243.033277 350.757479,243.03916 350.821008,243.050924 C350.884538,243.062689 350.942185,243.080336 350.99395,243.103866 L350.824538,244.000336 C350.758655,243.981513 350.697479,243.967395 350.641008,243.957983 C350.584538,243.948571 350.518656,243.943866 350.443361,243.943866 C350.311596,243.943866 350.17395,243.990924 350.03042,244.085042 C349.88689,244.17916 349.768068,244.346217 349.67395,244.586218 L349.67395,246.61916 L348.636303,246.61916 L348.636303,243.117983 Z M351.445714,243.117983 L352.292773,243.117983 L352.363361,243.562689 L352.391597,243.562689 C352.542186,243.421512 352.70689,243.297984 352.885714,243.192101 C353.064539,243.086218 353.273948,243.033277 353.51395,243.033277 C353.895128,243.033277 354.171596,243.157982 354.343361,243.407395 C354.515127,243.656808 354.601008,244.002687 354.601008,244.445042 L354.601008,246.61916 L353.563361,246.61916 L353.563361,244.57916 C353.563361,244.325041 353.529244,244.150925 353.461008,244.056807 C353.392773,243.962689 353.283362,243.91563 353.132773,243.91563 C353.001008,243.91563 352.888068,243.945042 352.79395,244.003866 C352.699831,244.062689 352.596303,244.146218 352.483361,244.254454 L352.483361,246.61916 L351.445714,246.61916 L351.445714,243.117983 Z M356.951597,243.117983 L357.798655,243.117983 L357.869244,243.569748 L357.897479,243.569748 C358.043362,243.423865 358.198655,243.297984 358.363361,243.192101 C358.528068,243.086218 358.725713,243.033277 358.956303,243.033277 C359.205716,243.033277 359.40689,243.083865 359.559832,243.185042 C359.712774,243.286219 359.833949,243.430923 359.923361,243.61916 C360.078656,243.459159 360.242184,243.321513 360.41395,243.206218 C360.585715,243.090924 360.789243,243.033277 361.024538,243.033277 C361.40101,243.033277 361.677478,243.159158 361.85395,243.410924 C362.030421,243.66269 362.118655,244.007393 362.118655,244.445042 L362.118655,246.61916 L361.081008,246.61916 L361.081008,244.57916 C361.081008,244.325041 361.046891,244.150925 360.978655,244.056807 C360.91042,243.962689 360.801009,243.91563 360.65042,243.91563 C360.476302,243.91563 360.276304,244.02857 360.05042,244.254454 L360.05042,246.61916 L359.012773,246.61916 L359.012773,244.57916 C359.012773,244.325041 358.978656,244.150925 358.91042,244.056807 C358.842185,243.962689 358.732774,243.91563 358.582185,243.91563 C358.40336,243.91563 358.205715,244.02857 357.989244,244.254454 L357.989244,246.61916 L356.951597,246.61916 L356.951597,243.117983 Z M362.796303,244.868571 C362.796303,244.576805 362.843361,244.316808 362.937479,244.088571 C363.031597,243.860335 363.157478,243.668572 363.315126,243.513277 C363.472774,243.357982 363.655125,243.23916 363.862185,243.156807 C364.069245,243.074453 364.28336,243.033277 364.504538,243.033277 C364.725715,243.033277 364.938654,243.074453 365.143361,243.156807 C365.348068,243.23916 365.529243,243.357982 365.686891,243.513277 C365.844539,243.668572 365.97042,243.860335 366.064538,244.088571 C366.158656,244.316808 366.205714,244.576805 366.205714,244.868571 C366.205714,245.160338 366.158656,245.420335 366.064538,245.648571 C365.97042,245.876808 365.844539,246.068571 365.686891,246.223866 C365.529243,246.37916 365.348068,246.497983 365.143361,246.580336 C364.938654,246.662689 364.725715,246.703866 364.504538,246.703866 C364.28336,246.703866 364.069245,246.662689 363.862185,246.580336 C363.655125,246.497983 363.472774,246.37916 363.315126,246.223866 C363.157478,246.068571 363.031597,245.876808 362.937479,245.648571 C362.843361,245.420335 362.796303,245.160338 362.796303,244.868571 Z M363.862185,244.868571 C363.862185,245.174455 363.915126,245.416806 364.021008,245.59563 C364.126891,245.774455 364.288066,245.863866 364.504538,245.863866 C364.716304,245.863866 364.876302,245.774455 364.984538,245.59563 C365.092774,245.416806 365.146891,245.174455 365.146891,244.868571 C365.146891,244.562688 365.092774,244.320337 364.984538,244.141513 C364.876302,243.962688 364.716304,243.873277 364.504538,243.873277 C364.288066,243.873277 364.126891,243.962688 364.021008,244.141513 C363.915126,244.320337 363.862185,244.562688 363.862185,244.868571 Z M366.918655,243.117983 L367.765714,243.117983 L367.836303,243.732101 L367.864538,243.732101 C367.991597,243.4921 368.144537,243.315631 368.323361,243.202689 C368.502186,243.089747 368.681008,243.033277 368.859832,243.033277 C368.958656,243.033277 369.039832,243.03916 369.103361,243.050924 C369.166891,243.062689 369.224538,243.080336 369.276303,243.103866 L369.106891,244.000336 C369.041008,243.981513 368.979832,243.967395 368.923361,243.957983 C368.86689,243.948571 368.801009,243.943866 368.725714,243.943866 C368.593949,243.943866 368.456303,243.990924 368.312773,244.085042 C368.169243,244.17916 368.050421,244.346217 367.956303,244.586218 L367.956303,246.61916 L366.918655,246.61916 L366.918655,243.117983 Z M369.452773,244.868571 C369.452773,244.586217 369.499831,244.330926 369.59395,244.102689 C369.688068,243.874453 369.811596,243.681513 369.964538,243.523866 C370.11748,243.366218 370.292772,243.245042 370.49042,243.160336 C370.688068,243.07563 370.892772,243.033277 371.104538,243.033277 C371.353951,243.033277 371.571596,243.07563 371.757479,243.160336 C371.943362,243.245042 372.098655,243.362688 372.223361,243.513277 C372.348068,243.663866 372.441008,243.841512 372.502185,244.046218 C372.563362,244.250925 372.59395,244.473276 372.59395,244.713277 C372.59395,244.807395 372.589244,244.893277 372.579832,244.970924 C372.57042,245.048572 372.561008,245.108571 372.551597,245.150924 L370.455126,245.150924 C370.502185,245.419161 370.60689,245.613277 370.769244,245.733277 C370.931597,245.853278 371.130419,245.913277 371.365714,245.913277 C371.615127,245.913277 371.866889,245.835631 372.121008,245.680336 L372.466891,246.308571 C372.288066,246.430925 372.089245,246.527395 371.87042,246.597983 C371.651596,246.668572 371.436304,246.703866 371.224538,246.703866 C370.975125,246.703866 370.742186,246.662689 370.525714,246.580336 C370.309243,246.497983 370.121009,246.377984 369.961008,246.220336 C369.801008,246.062688 369.676303,245.870925 369.586891,245.645042 C369.497479,245.419159 369.452773,245.160338 369.452773,244.868571 Z M371.711597,244.508571 C371.711597,244.306217 371.666891,244.141513 371.577479,244.014454 C371.488067,243.887394 371.33748,243.823866 371.125714,243.823866 C370.961008,243.823866 370.816303,243.879159 370.691597,243.989748 C370.56689,244.100337 370.485714,244.273276 370.448067,244.508571 L371.711597,244.508571 Z" id="Learn-more" fill="#4990E2"></path>
            <rect id="Rectangle-13" stroke="#4990E2" x="307.054622" y="231.42437" width="97.8235294" height="26.2268908"></rect>
            <g id="signature_dark" transform="translate(306.554622, 197.647059)" fill-rule="nonzero" fill="#D7D9D9">
                <path d="M6.62890756,13.5102857 C6.30255969,13.0592358 5.88103338,12.432004 5.36431597,11.6285714 C1.78808744,11.2620934 0,10.4868631 0,9.30285714 C0,9.03504629 0.132576825,8.81657229 0.397734454,8.64742857 C0.662892085,8.47828486 1.06742137,8.39371429 1.61133445,8.39371429 C2.97111716,8.39371429 4.32408066,9.28875297 5.67026555,11.0788571 C7.03004826,11.2198102 8.5733785,11.2902857 10.3003025,11.2902857 L10.5246655,11.2902857 C12.2651874,10.204947 13.8833046,9.11257691 15.3790655,8.01314286 C15.9909678,6.85732754 16.5212751,5.90238474 16.9700034,5.14828571 C17.4187317,4.39418671 17.9626366,3.60838504 18.6017345,2.79085714 C19.8663324,1.12761073 21.1988994,0.296 22.5994756,0.296 C22.9666169,0.296 23.1501849,0.465141166 23.1501849,0.803428571 C23.1501849,1.62095647 22.4974989,2.69218385 21.1921076,4.01714286 C19.8867162,5.34210186 18.1530192,6.76570669 15.9909647,8.288 C15.338269,9.5847684 14.8487546,10.5291399 14.5224067,11.1211429 C16.4261025,10.9660945 17.7994624,10.7264778 18.6425277,10.4022857 L18.7037176,10.4022857 C18.758109,10.4022857 18.7853042,10.4410473 18.7853042,10.5185714 C18.7853042,10.5960956 18.7377125,10.7053326 18.6425277,10.8462857 C17.6226907,11.1704778 16.1541474,11.4241895 14.2368538,11.6074286 C13.5025711,12.9182923 12.7920953,13.936663 12.105405,14.6625714 C11.4187148,15.3884798 10.7286354,15.7514286 10.0351462,15.7514286 C8.92012439,15.7514286 7.86630862,15.1101017 6.87366723,13.8274286 C4.92917795,14.8422908 3.20907863,15.6175211 1.71331765,16.1531429 C1.50935024,16.2236194 1.27479124,16.2588571 1.00963361,16.2588571 C0.744475982,16.2588571 0.61189916,16.1531439 0.61189916,15.9417143 C0.61189916,15.8289518 0.666289652,15.7267623 0.775072269,15.6351429 C0.883854886,15.5435234 1.02662993,15.4977143 1.20340168,15.4977143 C2.29122785,15.4977143 4.09971172,14.8352447 6.62890756,13.5102857 Z M10.5246655,11.8188571 C9.49123071,12.4249554 8.47140897,12.9958069 7.46516975,13.5314286 C8.37622415,14.7013392 9.2056792,15.2862857 9.95355966,15.2862857 C10.5110706,15.2862857 11.0651737,14.9761936 11.6158857,14.356 C12.1665977,13.7358064 12.7750914,12.8407678 13.4413849,11.6708571 C12.6119174,11.7413337 11.6396874,11.7906665 10.5246655,11.8188571 Z M22.0283697,0.803428571 C21.0901197,0.803428571 20.1450849,1.45180304 19.193237,2.74857143 C18.404563,3.8480055 17.5411139,5.2998005 16.6028639,7.104 C18.3161901,5.79313629 19.68955,4.59857682 20.7229849,3.52028571 C21.7564197,2.44199461 22.2731294,1.6068601 22.2731294,1.01485714 C22.2731294,0.873904057 22.1915437,0.803428571 22.0283697,0.803428571 Z M0.979038655,9.21828571 C0.979038655,10.0217183 2.29120929,10.6066649 4.91558992,10.9731429 C3.8549594,9.50723074 2.78754599,8.77428571 1.71331765,8.77428571 C1.22379587,8.77428571 0.979038655,8.92228423 0.979038655,9.21828571 Z M7.22041008,13.2142857 C8.06347537,12.7491405 8.87253396,12.2840023 9.64761008,11.8188571 L9.56602353,11.8188571 C8.38301259,11.8188571 7.24081224,11.7765718 6.13938824,11.692 C6.65610565,12.4390514 7.01644271,12.9464749 7.22041008,13.2142857 Z M14.8283563,9.09142857 C14.0940736,9.59885966 12.9518733,10.3318047 11.401721,11.2902857 C12.4487537,11.2620951 13.2170194,11.2268574 13.7065412,11.1845714 C13.9648999,10.7194262 14.3388345,10.0217189 14.8283563,9.09142857 Z M20.9167529,9.34514286 C20.991541,9.42971469 21.0289345,9.54952303 21.0289345,9.70457143 C21.0289345,9.85961983 20.9269523,10.0569512 20.7229849,10.2965714 C20.5190174,10.5361917 20.3422484,10.656 20.1926723,10.656 C20.0430962,10.656 19.9343152,10.6101909 19.8663261,10.5185714 C19.7983369,10.4269519 19.7643429,10.3212387 19.7643429,10.2014286 C19.7643429,10.0816185 19.8731239,9.88781086 20.0906891,9.62 C20.3082543,9.35218914 20.481624,9.21828571 20.6108034,9.21828571 C20.7399827,9.21828571 20.8419649,9.26057103 20.9167529,9.34514286 Z M22.2935261,12.0725714 C22.4023087,12.0020949 22.4872938,11.9668571 22.548484,11.9668571 C22.6096743,11.9668571 22.6402689,12.0091425 22.6402689,12.0937143 L22.6402689,12.1571429 C22.6946602,12.1571429 22.3309238,12.467235 21.5490487,13.0874286 C20.7671737,13.7076222 19.9309198,14.3278064 19.0402622,14.948 C18.1496045,15.5681936 17.5887025,15.8782857 17.3575395,15.8782857 C16.9632025,15.8782857 16.766037,15.7091446 16.766037,15.3708571 C16.766037,14.9620932 17.1059776,14.1903866 17.7858689,13.0557143 C18.4657603,11.9210419 18.9620735,11.3537143 19.2748235,11.3537143 C19.5059866,11.3537143 19.6215664,11.4453324 19.6215664,11.6285714 C19.6215664,11.8118105 19.308821,12.3121864 18.683321,13.1297143 C18.057821,13.9472422 17.7450756,14.5321887 17.7450756,14.8845714 C17.7450756,15.0819058 17.8164631,15.1805714 17.9592403,15.1805714 C18.1020175,15.1805714 18.4589551,14.9832401 19.0300639,14.5885714 C20.0499009,13.883806 20.9881369,13.1720036 21.8448,12.4531429 L22.2935261,12.0725714 Z M22.354716,11.9245714 L22.3139227,11.692 C22.3139227,11.6215235 22.4566977,11.5862857 22.7422521,11.5862857 C22.905426,11.5862857 22.9870118,11.691999 22.9870118,11.9034286 C22.9870118,12.1148582 22.7524528,12.5835202 22.2833277,13.3094286 C21.8142027,14.035337 21.5796437,14.4123808 21.5796437,14.4405714 C21.5796437,14.4687621 21.6068389,14.4828571 21.6612303,14.4828571 C21.7156216,14.4828571 22.3445116,13.9895287 23.5479193,13.0028571 C24.751327,12.0161855 25.4754005,11.5228571 25.7201613,11.5228571 C25.9649222,11.5228571 26.0873008,11.6109515 26.0873008,11.7871429 C26.0873008,11.9633342 26.0193127,12.1606656 25.8833345,12.3791429 C25.7473562,12.5976201 25.4618061,12.9922829 25.0266756,13.5631429 C24.5915452,14.1340029 24.3603856,14.4405712 24.3331899,14.4828571 C24.3059943,14.5251431 24.2923966,14.5744759 24.2923966,14.6308571 C24.2923966,14.6872384 24.3365889,14.7154286 24.4249748,14.7154286 C24.5133606,14.7154286 25.1830436,14.2361953 26.4340437,13.2777143 C27.6850438,12.3192333 28.398919,11.84 28.5756908,11.84 C28.7524625,11.84 28.8408471,11.917523 28.8408471,12.0725714 C28.8408471,12.3544776 28.5416994,12.847806 27.943395,13.5525714 C27.3450905,14.2573369 27.0459429,14.7048562 27.0459429,14.8951429 C27.0459429,15.0854295 27.1173304,15.1805714 27.2601076,15.1805714 C27.4028848,15.1805714 27.7598223,14.9832401 28.3309311,14.5885714 C29.3507682,13.883806 30.2890041,13.1720036 31.1456672,12.4531429 L31.5943933,12.0725714 C31.7031759,12.0020949 31.7949599,11.9668571 31.8697479,11.9668571 C31.9445359,11.9668571 31.9819294,12.0091425 31.9819294,12.0937143 L31.9819294,12.1571429 C29.1127879,14.6379171 27.3382981,15.8782857 26.6584067,15.8782857 C26.2640697,15.8782857 26.0669042,15.7091446 26.0669042,15.3708571 C26.0669042,15.088951 26.2640697,14.6731456 26.6584067,14.1234286 C27.0527437,13.5737115 27.2499092,13.2741907 27.2499092,13.2248571 C27.2499092,13.1755235 27.2329122,13.1508571 27.1989176,13.1508571 C27.1649231,13.1508571 26.6074205,13.5525674 25.5263933,14.356 C24.445366,15.1594326 23.8028784,15.5611429 23.5989109,15.5611429 C23.5037262,15.5611429 23.4221404,15.5223813 23.3541513,15.4448571 C23.2861621,15.367333 23.2521681,15.2862861 23.2521681,15.2017143 C23.2521681,14.9479987 23.5445169,14.4335277 24.1292235,13.6582857 C24.7139301,12.897139 25.006279,12.4813337 25.006279,12.4108571 C25.006279,12.3403806 24.9654861,12.3051429 24.8838992,12.3051429 C24.7887144,12.3051429 23.8232832,13.0803732 21.9875765,14.6308571 L20.9677445,15.4765714 C20.7909728,15.6316198 20.6583959,15.7091429 20.5700101,15.7091429 C20.4816242,15.7091429 20.396639,15.6844765 20.3150521,15.6351429 C20.2334652,15.5858093 20.1926723,15.51181 20.1926723,15.4131429 C20.1926723,15.3144757 20.3116515,15.074859 20.5496134,14.6942857 C20.7875754,14.3137124 21.0969214,13.8485742 21.4776605,13.2988571 C22.0623671,12.4813293 22.354716,12.0232386 22.354716,11.9245714 Z M33.1445378,13.7851429 C33.9060161,13.7851429 34.8170569,13.3411473 35.8776874,12.4531429 L36.2244303,12.5588571 C34.8918432,13.7146725 33.742844,14.2925714 32.7773983,14.2925714 C32.6686157,14.2925714 32.58703,14.2855239 32.5326387,14.2714286 C32.1654973,14.7365738 31.7643675,15.1136176 31.329237,15.4025714 C30.8941065,15.6915253 30.5133731,15.836 30.1870252,15.836 C29.6703078,15.836 29.4119529,15.5364792 29.4119529,14.9374286 C29.4119529,14.3383779 29.8946686,13.5384812 30.8601143,12.5377143 C30.6969403,12.1289503 30.6153546,11.6990499 30.6153546,11.248 C30.6153546,10.7969501 30.7717273,10.4304776 31.0844773,10.1485714 C31.3972274,9.86666526 31.7609637,9.72571429 32.1756975,9.72571429 C32.5904312,9.72571429 32.94057,9.86666526 33.2261244,10.1485714 C33.5116787,10.4304776 33.6544538,10.8321879 33.6544538,11.3537143 C33.6544538,12.1571469 33.4028977,12.9605674 32.8997782,13.764 C32.9541695,13.7780953 33.0357552,13.7851429 33.1445378,13.7851429 Z M32.4918454,13.5737143 C32.913378,12.8407582 33.1241412,12.2170502 33.1241412,11.7025714 C33.1241412,11.1880927 33.0017626,10.807525 32.7570017,10.5608571 C32.5122408,10.3141893 32.2742824,10.1908571 32.0431193,10.1908571 C31.5671954,10.1908571 31.329237,10.4445689 31.329237,10.952 C31.329237,11.4594311 31.438018,11.9633309 31.6555832,12.4637143 C31.8731484,12.9640977 32.1518997,13.3340941 32.4918454,13.5737143 Z M30.2482151,14.8211429 C30.2482151,15.103049 30.4249842,15.244 30.7785277,15.244 C31.1320712,15.244 31.5807928,14.8704799 32.1247059,14.1234286 C31.7575646,13.9260942 31.4312216,13.5807643 31.1456672,13.0874286 C30.5473628,13.7640034 30.2482151,14.3419023 30.2482151,14.8211429 Z M44.5666555,12.1571429 C41.6975139,14.6379171 39.9230241,15.8782857 39.2431328,15.8782857 C38.8487958,15.8782857 38.6516303,15.7091446 38.6516303,15.3708571 C38.6516303,15.0325697 38.7978047,14.6308595 39.090158,14.1657143 C39.3825113,13.7005691 39.6748602,13.2882875 39.9672134,12.9288571 C40.2595667,12.5694268 40.4057412,12.3544765 40.4057412,12.284 C40.4057412,12.2135234 40.3853448,12.1782857 40.3445513,12.1782857 C39.0799533,13.0521949 38.3286846,13.5878085 38.0907227,13.7851429 C37.8527607,13.9824772 37.4652285,14.3066644 36.9281143,14.7577143 C36.3910001,15.2087642 36.0408613,15.4906661 35.8776874,15.6034286 C35.7145135,15.716191 35.5377444,15.7725714 35.3473748,15.7725714 C35.1570052,15.7725714 35.0618218,15.6880009 35.0618218,15.5188571 C35.0618218,15.3215228 35.4425553,14.7013386 36.2040336,13.6582857 C36.9383163,12.6152329 37.3054521,12.0302863 37.3054521,11.9034286 C37.3054521,11.8752379 37.2816563,11.8611429 37.2340639,11.8611429 C37.1864715,11.8611429 36.5983743,12.2910433 35.4697546,13.1508571 L35.3881681,12.8337143 C36.3536138,12.0302817 37.0062997,11.5158106 37.3462454,11.2902857 C37.686191,11.0647608 37.9615429,10.952 38.1723092,10.952 C38.3830755,10.952 38.4884571,11.0577132 38.4884571,11.2691429 C38.4884571,11.4100959 38.1043243,11.9844711 37.3360471,12.9922857 C36.5677698,14.0001003 36.183637,14.5427615 36.183637,14.6202857 C36.183637,14.6978099 36.2074328,14.7365714 36.2550252,14.7365714 C36.3026176,14.7365714 37.0776821,14.1692438 38.580242,13.0345714 C40.0828019,11.8998991 40.997242,11.3325714 41.3235899,11.3325714 C41.4187747,11.3325714 41.5105587,11.371333 41.5989445,11.4488571 C41.6873304,11.5263813 41.7315227,11.6003806 41.7315227,11.6708571 C41.7315227,11.8400009 41.3711857,12.400281 40.6505008,13.3517143 C39.929816,14.3031476 39.569479,14.8422851 39.569479,14.9691429 C39.569479,15.0960006 39.6544641,15.1594286 39.824437,15.1594286 C39.9944098,15.1594286 40.3581462,14.9691447 40.9156571,14.5885714 C41.9354942,13.8979013 42.8737302,13.1860989 43.7303933,12.4531429 L44.1791193,12.0725714 C44.2743041,12.0020949 44.3626887,11.9668571 44.4442756,11.9668571 C44.5258626,11.9668571 44.5666555,12.0091425 44.5666555,12.0937143 L44.5666555,12.1571429 Z M55.2137008,15.7937143 C55.0505269,15.7937143 54.9689412,15.6950486 54.9689412,15.4977143 C54.9689412,15.0607597 55.686216,13.3164914 57.1207866,10.2648571 C58.5553571,7.21322286 59.2726319,5.44781192 59.2726319,4.96857143 C59.2726319,4.77123711 59.1706498,4.67257143 58.9666824,4.67257143 C58.3819758,4.67257143 57.0834028,5.59580029 55.0709244,7.44228571 C54.1462721,9.61296326 52.8748944,11.755418 51.2567529,13.8697143 C49.6386115,15.9840106 48.4080266,17.0411429 47.5649613,17.0411429 C47.279407,17.0411429 47.1366319,16.8649542 47.1366319,16.5125714 C47.367795,15.4836139 48.1224631,14.1939125 49.4006588,12.6434286 C50.6788546,11.0929446 52.1745931,9.54953149 53.8879193,8.01314286 C54.5950063,6.33580114 54.9485445,5.0249571 54.9485445,4.08057143 C54.9485445,1.62798774 53.2828357,0.401714286 49.9513681,0.401714286 C49.0539115,0.401714286 48.2720481,0.47923732 47.6057546,0.634285714 C46.3275589,0.902096577 45.6340801,1.37428233 45.5252975,2.05085714 C45.5524931,2.84019442 46.3071612,3.41104586 47.7893244,3.76342857 C48.4148244,3.90438166 49.0403151,4.05238018 49.6658151,4.20742857 C50.2913152,4.36247697 50.8216225,4.60209362 51.2567529,4.92628571 C51.6918834,5.25047781 51.9094454,5.66628318 51.9094454,6.17371429 C51.9094454,6.28647674 51.8686525,6.43799903 51.7870655,6.62828571 C51.7054786,6.8185724 51.6068958,6.91371429 51.4913143,6.91371429 C51.3757328,6.91371429 51.3179429,6.8432388 51.3179429,6.70228571 C51.3179429,6.61771389 51.3485375,6.52609571 51.4097277,6.42742857 C51.470918,6.32876143 51.5015126,6.2512384 51.5015126,6.19485714 C51.5015126,5.80018851 50.6992528,5.39847823 49.0947092,4.98971429 C48.4148179,4.82057058 47.7383361,4.62676299 47.0652437,4.40828571 C46.3921513,4.18980843 45.8210511,3.88676385 45.3519261,3.49914286 C44.882801,3.11152187 44.648242,2.68514518 44.648242,2.22 C44.648242,1.75485482 44.8692034,1.37076342 45.3111328,1.06771429 C45.7530622,0.764665154 46.3071653,0.542667371 46.9734588,0.401714286 C48.2652524,0.133903423 49.4074527,0 50.4000941,0 C52.0862247,0 53.4323893,0.352377429 54.4386286,1.05714286 C55.4448675,1.76190829 55.9479798,2.80494547 55.9479798,4.18628571 C55.9479798,4.8205746 55.7508143,5.67332798 55.3564773,6.74457143 C57.5457274,4.92627662 58.9462824,4.01714286 59.5581849,4.01714286 C59.7349565,4.01714286 59.8879296,4.08761834 60.0171092,4.22857143 C60.1462889,4.36952451 60.2108773,4.54218945 60.2108773,4.74657143 C60.2108773,4.95095341 60.0816999,5.41256783 59.8233412,6.13142857 C59.5649825,6.85028931 58.9768851,8.2316088 58.0590319,10.2754286 C57.1411788,12.3192483 56.6822588,13.3552379 56.6822588,13.3834286 C56.6822588,13.4116192 56.7026555,13.4398094 56.7434487,13.468 C56.8250358,13.468 56.9542133,13.3411441 57.1309849,13.0874286 C58.4499743,11.1845619 60.4284284,8.97515543 63.0664067,6.45914286 C65.704385,3.94313027 67.988786,2.24819485 69.9196773,1.37428571 C70.3140143,1.20514201 70.6131619,1.12057143 70.8171294,1.12057143 C71.0210969,1.12057143 71.123079,1.19457069 71.123079,1.34257143 C71.123079,1.49057217 71.0346943,1.61742804 70.8579227,1.72314286 C70.6811511,1.82885767 70.3786039,2.03323658 69.9502723,2.33628571 C69.5219407,2.63933485 69.2397901,2.85428508 69.1038118,2.98114286 C68.9678334,3.10800063 68.87265,3.17142857 68.8182588,3.17142857 C68.7638676,3.17142857 68.7298736,3.12914328 68.7162756,3.04457143 C68.7026777,2.95999958 68.6720833,2.91771429 68.6244908,2.91771429 C68.5768982,2.91771429 68.4987119,2.93885693 68.3899294,2.98114286 C66.7445921,3.78457545 64.6505585,5.45484446 62.1077647,7.992 C59.4289926,10.6842039 57.5389232,12.868944 56.4374992,14.5462857 C56.0431621,15.1382887 55.7610116,15.4941899 55.5910387,15.614 C55.4210657,15.7338101 55.2952879,15.7937143 55.2137008,15.7937143 Z M48.1156706,16.28 C48.6187902,16.28 49.4176505,15.5223885 50.5122756,14.0071429 C51.6069007,12.4918972 52.589329,10.8251519 53.4595899,9.00685714 C51.9502311,10.5150551 50.6618563,11.9457075 49.5944269,13.2988571 C48.5269975,14.6520067 47.9932908,15.6034258 47.9932908,16.1531429 C47.9932908,16.2377147 48.0340836,16.28 48.1156706,16.28 Z M67.5128739,12.0937143 C67.608059,12.0232378 67.6964431,11.988 67.7780303,11.988 C67.8596174,11.988 67.9004101,12.0373329 67.9004101,12.136 L67.9004101,12.1782857 C66.4862362,13.3904822 65.3100419,14.299616 64.3717916,14.9057143 C63.4335413,15.5118126 62.5836899,15.8148571 61.8222118,15.8148571 C61.2103093,15.8148571 60.904363,15.504765 60.904363,14.8845714 C60.904363,13.9683764 61.3530847,13.0275286 62.2505412,12.062 C63.1479977,11.0964714 63.9026656,10.6137143 64.5145681,10.6137143 C64.8545139,10.6137143 65.024484,10.8110457 65.024484,11.2057143 C64.9564949,11.9809563 63.8822827,13.0239934 61.8018151,14.3348571 L61.8018151,14.5462857 C61.8018151,15.0114309 62.0363743,15.244 62.5054992,15.244 C62.9746241,15.244 63.4811354,15.0819064 64.0250487,14.7577143 C65.0856795,14.1093301 66.0783056,13.3693375 67.002958,12.5377143 L67.5128739,12.0937143 Z M63.9842555,11.2691429 C63.6851035,11.2691429 63.3009703,11.5299022 62.8318454,12.0514286 C62.3627205,12.572955 62.0465753,13.1649491 61.8834017,13.8274286 C62.5360974,13.4186646 63.0868012,12.9852404 63.5355294,12.5271429 C63.9842577,12.0690453 64.2086185,11.7448581 64.2086185,11.5545714 C64.2086185,11.3642847 64.1338317,11.2691429 63.9842555,11.2691429 Z M72.1837042,12.1782857 L72.6528269,12.1782857 C71.3882292,13.3622917 70.1372477,14.0388563 68.8998454,14.208 C68.6006934,14.6590499 68.2505542,15.046665 67.8494185,15.3708571 C67.4482828,15.6950493 67.1117415,15.8571429 66.8397849,15.8571429 C66.513437,15.8571429 66.3502655,15.6598115 66.3502655,15.2651429 C66.3502655,14.8704742 66.5202357,14.3066703 66.8601815,13.5737143 C66.261877,13.0239973 65.9627294,12.4108605 65.9627294,11.7342857 C65.9627294,11.3678077 66.0851081,11.0718106 66.3298689,10.8462857 C66.5746297,10.6207608 66.9213692,10.508 67.3700975,10.508 C67.8188257,10.508 68.1791627,10.5784755 68.4511193,10.7194286 C69.7837062,8.57694166 71.3134392,6.31467857 73.040363,3.93257143 L73.9174185,2.72742857 C74.0533968,2.57238018 74.1893729,2.49485714 74.3253513,2.49485714 C74.5293187,2.49485714 74.6448982,2.60057037 74.6720941,2.812 L74.6720941,2.96 C74.6720941,2.98819062 74.6381001,3.05161855 74.5701109,3.15028571 C71.8913388,6.80097063 70.021666,9.43675377 68.9610353,11.0577143 C69.3145791,11.4241923 69.4913479,11.8540927 69.4913479,12.3474286 C69.4913479,12.8407643 69.3757679,13.3270452 69.144605,13.8062857 C70.0692574,13.6935233 71.0822802,13.150862 72.1837042,12.1782857 Z M66.5746286,11.7765714 C66.5746286,12.1994307 66.7581967,12.6152361 67.1253378,13.024 C67.3836965,12.5306642 67.7576314,11.8822897 68.2471529,11.0788571 C68.0567834,10.9660947 67.84602,10.9097143 67.6148571,10.9097143 C66.9213681,10.9097143 66.5746286,11.1986638 66.5746286,11.7765714 Z M67.5944605,13.4257143 C67.9208084,13.6371439 68.25395,13.7639998 68.5938958,13.8062857 C68.8386566,13.3552358 68.9610353,12.9394305 68.9610353,12.5588571 C68.9610353,12.1782838 68.8658519,11.8329539 68.6754824,11.5228571 C68.2131562,12.2276226 67.8528192,12.8619019 67.5944605,13.4257143 Z M67.5128739,14.9268571 C67.7440368,14.9268571 68.0227883,14.6942881 68.3491361,14.2291429 C68.0227883,14.2291429 67.6964454,14.1375247 67.3700975,13.9542857 C67.3021083,14.1939059 67.2681143,14.3700947 67.2681143,14.4828571 C67.2681143,14.7788586 67.3497003,14.9268571 67.5128739,14.9268571 Z M77.5072269,12.0937143 C77.6024119,12.0232378 77.6907961,11.988 77.7723832,11.988 C77.8539703,11.988 77.894763,12.0373329 77.894763,12.136 L77.894763,12.1782857 C76.4805891,13.3904822 75.3043949,14.299616 74.3661445,14.9057143 C73.4278942,15.5118126 72.5780429,15.8148571 71.8165647,15.8148571 C71.2046622,15.8148571 70.898716,15.504765 70.898716,14.8845714 C70.898716,13.9683764 71.3474376,13.0275286 72.2448941,12.062 C73.1423506,11.0964714 73.8970185,10.6137143 74.508921,10.6137143 C74.8488668,10.6137143 75.018837,10.8110457 75.018837,11.2057143 C74.9508478,11.9809563 73.8766357,13.0239934 71.7961681,14.3348571 L71.7961681,14.5462857 C71.7961681,15.0114309 72.0307272,15.244 72.4998521,15.244 C72.968977,15.244 73.4754884,15.0819064 74.0194017,14.7577143 C75.0800324,14.1093301 76.0726585,13.3693375 76.9973109,12.5377143 L77.5072269,12.0937143 Z M73.9786084,11.2691429 C73.6794564,11.2691429 73.2953232,11.5299022 72.8261983,12.0514286 C72.3570734,12.572955 72.0409283,13.1649491 71.8777546,13.8274286 C72.5304504,13.4186646 73.0811541,12.9852404 73.5298824,12.5271429 C73.9786106,12.0690453 74.2029714,11.7448581 74.2029714,11.5545714 C74.2029714,11.3642847 74.1281847,11.2691429 73.9786084,11.2691429 Z M82.0352807,12.0937143 C82.1304657,12.0232377 82.2188499,11.988 82.300437,11.988 C82.3820241,11.988 82.4228168,12.0373329 82.4228168,12.136 L82.4228168,12.1782857 C81.4029799,13.0240042 80.3967558,13.8168534 79.4041143,14.5568571 C78.4114727,15.2968609 77.6840001,15.6668571 77.2216739,15.6668571 C76.8817281,15.6668571 76.711758,15.4765733 76.711758,15.096 C76.711758,14.7154267 76.8749294,14.334859 77.2012773,13.9542857 C77.5276252,13.5737124 77.8505685,13.2424776 78.1701176,12.9605714 C78.4896668,12.6786653 78.6494387,12.4919052 78.6494387,12.4002857 C78.6494387,12.3086662 78.5984476,12.202953 78.4964639,12.0831429 C78.3944801,11.9633327 78.309495,11.8822859 78.2415059,11.84 C78.0103431,12.0796202 77.5072307,12.5165682 76.7321546,13.1508571 L76.6505681,12.8337143 C77.5072313,12.1289489 78.0035444,11.6567631 78.1395227,11.4171429 L78.1395227,11.2268571 C78.1395227,10.8744744 78.1735167,10.6348578 78.2415059,10.508 C78.309495,10.3811422 78.4726665,10.2049535 78.7310252,9.97942857 C78.9893839,9.75390366 79.1661528,9.64114286 79.2613378,9.64114286 C79.3565229,9.64114286 79.4415079,9.67638057 79.5162958,9.74685714 C79.5910837,9.81733366 79.6284773,9.8878092 79.6284773,9.95828571 C79.6284773,10.0287622 79.6046816,10.1098091 79.5570891,10.2014286 C79.5094966,10.2930481 79.4619051,10.3705711 79.4143126,10.434 C79.3667201,10.4974289 79.3021316,10.5749519 79.2205445,10.6665714 C79.1389574,10.7581909 79.0879664,10.8216189 79.0675697,10.8568571 C79.0471731,10.8920954 79.0267765,10.9519996 79.0063798,11.0365714 C78.9859832,11.1211433 78.9417908,11.1916187 78.8738017,11.248 C78.8058125,11.3043813 78.7718185,11.3748567 78.7718185,11.4594286 C78.7718185,11.5440004 78.8262092,11.7307605 78.9349916,12.0197143 C79.043774,12.3086681 79.0981647,12.5200946 79.0981647,12.654 C79.0981647,12.7879054 78.8466086,13.1050451 78.3434891,13.6054286 C77.8403696,14.105812 77.5888134,14.5110461 77.5888134,14.8211429 C77.5888134,14.9902866 77.6636002,15.0748571 77.8131765,15.0748571 C78.003546,15.0748571 78.3570843,14.8986684 78.8738017,14.5462857 L79.1185613,14.3771429 C80.0024199,13.7428539 80.8318751,13.101527 81.6069513,12.4531429 L82.0352807,12.0937143 Z" id="Simon-Weber"></path>
            </g>
        </g>
    </g>
</svg>