<?xml version="1.0" encoding="UTF-8"?>
<svg width="600px" height="195px" viewBox="0 0 600 195" version="1.1" xmlns="http://www.w3.org/2000/svg" xmlns:xlink="http://www.w3.org/1999/xlink">
    <!-- Generator: Sketch 44.1 (41455) - http://www.bohemiancoding.com/sketch -->
    <title>calltoaction05</title>
    <desc>Created with Sketch.</desc>
    <defs>
        <rect id="path-1" x="297.391304" y="0" width="302.608696" height="194.347826"></rect>
        <mask id="mask-2" maskContentUnits="userSpaceOnUse" maskUnits="objectBoundingBox" x="0" y="0" width="302.608696" height="194.347826" fill="white">
            <use xlink:href="#path-1"></use>
        </mask>
    </defs>
    <g id="Calltoaction" stroke="none" stroke-width="1" fill="none" fill-rule="evenodd">
        <g id="05">
            <path d="M3.26086957,62.6086957 L274.577759,62.6086957" id="Line" stroke="#D7D9D9" stroke-width="4" stroke-linecap="square"></path>
            <use id="Rectangle-9" stroke="#979797" mask="url(#mask-2)" stroke-width="2" fill="#F2F2F2" stroke-dasharray="4" xlink:href="#path-1"></use>
            <g id="icon-picture" opacity="0.699999988" transform="translate(400.373321, 63.720599)" stroke="#979797">
                <polyline id="Path-15" stroke-width="2" points="2.01348391 58.7149558 34.2252319 24.9735416 56.8659662 48.8895766 70.1271301 34.8814417 95.230034 61.3983346"></polyline>
                <ellipse id="Oval-6" fill="#D8D8D8" cx="79.216936" cy="17.5231646" rx="4.75301616" ry="4.7790449"></ellipse>
                <rect id="Rectangle-10" stroke-width="2" x="1" y="1" width="94.644662" height="66.4996436" rx="3"></rect>
            </g>
            <path d="M3.26086957,75.6521739 L274.577759,75.6521739" id="Line" stroke="#D7D9D9" stroke-width="4" stroke-linecap="square"></path>
            <path d="M3.26086957,90 L274.577759,90" id="Line" stroke="#D7D9D9" stroke-width="4" stroke-linecap="square"></path>
            <path d="M3.26086957,103.043478 L76.2256952,103.043478" id="Line" stroke="#D7D9D9" stroke-width="4" stroke-linecap="square"></path>
            <path d="M3.56869565,16.7582609 C3.56869565,15.6312987 3.74260696,14.6260914 4.09043478,13.7426087 C4.43826261,12.859126 4.90782313,12.1113074 5.49913043,11.4991304 C6.09043774,10.8869535 6.7791265,10.4208712 7.56521739,10.1008696 C8.35130828,9.78086797 9.18260431,9.62086957 10.0591304,9.62086957 C10.9078303,9.62086957 11.6765183,9.7982591 12.3652174,10.1530435 C13.0539165,10.5078279 13.6278238,10.9217368 14.0869565,11.3947826 L12.3965217,13.293913 C12.0486939,12.9739114 11.6973931,12.7234792 11.3426087,12.5426087 C10.9878243,12.3617382 10.5739154,12.2713043 10.1008696,12.2713043 C9.62782372,12.2713043 9.18608901,12.3721729 8.77565217,12.573913 C8.36521534,12.7756532 8.00695805,13.0643459 7.70086957,13.44 C7.39478108,13.8156541 7.15478348,14.2747799 6.98086957,14.8173913 C6.80695565,15.3600027 6.72,15.9721705 6.72,16.653913 C6.72,18.0591375 7.01912744,19.1478222 7.6173913,19.92 C8.21565517,20.6921778 9.01564717,21.0782609 10.0173913,21.0782609 C10.5739158,21.0782609 11.0608675,20.9669576 11.4782609,20.7443478 C11.8956543,20.521738 12.2713027,20.229567 12.6052174,19.8678261 L14.2956522,21.7252174 C13.7252145,22.3930468 13.0747863,22.8939114 12.3443478,23.2278261 C11.6139094,23.5617408 10.8243521,23.7286957 9.97565217,23.7286957 C9.09912605,23.7286957 8.27130824,23.5791319 7.49217391,23.28 C6.71303958,22.9808681 6.03130727,22.5391334 5.44695652,21.9547826 C4.86260577,21.3704319 4.40347993,20.6434826 4.06956522,19.773913 C3.7356505,18.9043435 3.56869565,17.8991361 3.56869565,16.7582609 Z M15.7356522,20.5982609 C15.7356522,19.5130381 16.194778,18.6643509 17.1130435,18.0521739 C18.0313089,17.4399969 19.5130333,17.0295663 21.5582609,16.8208696 C21.5304346,16.3617368 21.3913056,15.9965231 21.1408696,15.7252174 C20.8904335,15.4539117 20.4869593,15.3182609 19.9304348,15.3182609 C19.4852152,15.3182609 19.0400022,15.4017383 18.5947826,15.5686957 C18.149563,15.735653 17.6765242,15.9652159 17.1756522,16.2573913 L16.0904348,14.2330435 C16.7582642,13.8295632 17.4573877,13.5026099 18.1878261,13.2521739 C18.9182645,13.0017379 19.6939089,12.8765217 20.5147826,12.8765217 C21.8504415,12.8765217 22.8695617,13.2556484 23.5721739,14.013913 C24.2747861,14.7721777 24.626087,15.9512963 24.626087,17.5513043 L24.626087,23.4782609 L22.1217391,23.4782609 L21.8921739,22.413913 L21.8295652,22.413913 C21.3843456,22.8034802 20.9147851,23.1199988 20.4208696,23.3634783 C19.9269541,23.6069577 19.387829,23.7286957 18.8034783,23.7286957 C18.3304324,23.7286957 17.9060888,23.6486965 17.5304348,23.4886957 C17.1547807,23.3286949 16.8347839,23.1060884 16.5704348,22.8208696 C16.3060856,22.5356507 16.1008703,22.2052193 15.9547826,21.8295652 C15.8086949,21.4539112 15.7356522,21.0434805 15.7356522,20.5982609 Z M18.6573913,20.3686957 C18.6573913,20.7026104 18.7652163,20.9495644 18.9808696,21.1095652 C19.1965228,21.269566 19.4852156,21.3495652 19.8469565,21.3495652 C20.2086975,21.3495652 20.5147814,21.2730442 20.7652174,21.12 C21.0156534,20.9669558 21.2799986,20.7513057 21.5582609,20.4730435 L21.5582609,18.6573913 C20.4591249,18.8104355 19.7008717,19.033042 19.2834783,19.3252174 C18.8660849,19.6173928 18.6573913,19.9652154 18.6573913,20.3686957 Z M27.2556522,8.84869565 L30.3234783,8.84869565 L30.3234783,20.3895652 C30.3234783,20.7095668 30.3826081,20.9321733 30.5008696,21.0573913 C30.619131,21.1826093 30.7408689,21.2452174 30.866087,21.2452174 L31.0434783,21.2452174 C31.0921742,21.2452174 31.1582605,21.2313045 31.2417391,21.2034783 L31.6173913,23.4782609 C31.4504339,23.5478264 31.2382622,23.6069563 30.9808696,23.6556522 C30.723477,23.7043481 30.4208713,23.7286957 30.0730435,23.7286957 C29.5443452,23.7286957 29.0991322,23.6452182 28.7373913,23.4782609 C28.3756504,23.3113035 28.0869576,23.0782624 27.8713043,22.7791304 C27.6556511,22.4799985 27.4991309,22.118263 27.4017391,21.693913 C27.3043473,21.2695631 27.2556522,20.7930461 27.2556522,20.2643478 L27.2556522,8.84869565 Z M33.2243478,8.84869565 L36.2921739,8.84869565 L36.2921739,20.3895652 C36.2921739,20.7095668 36.3513038,20.9321733 36.4695652,21.0573913 C36.5878267,21.1826093 36.7095646,21.2452174 36.8347826,21.2452174 L37.0121739,21.2452174 C37.0608698,21.2452174 37.1269561,21.2313045 37.2104348,21.2034783 L37.586087,23.4782609 C37.4191296,23.5478264 37.2069578,23.6069563 36.9495652,23.6556522 C36.6921726,23.7043481 36.389567,23.7286957 36.0417391,23.7286957 C35.5130408,23.7286957 35.0678279,23.6452182 34.706087,23.4782609 C34.344346,23.3113035 34.0556533,23.0782624 33.84,22.7791304 C33.6243467,22.4799985 33.4678266,22.118263 33.3704348,21.693913 C33.273043,21.2695631 33.2243478,20.7930461 33.2243478,20.2643478 L33.2243478,8.84869565 Z M43.9513043,15.5269565 L42.5321739,15.5269565 L42.5321739,13.2521739 L44.1182609,13.1269565 L44.4730435,10.3721739 L47.0191304,10.3721739 L47.0191304,13.1269565 L49.5026087,13.1269565 L49.5026087,15.5269565 L47.0191304,15.5269565 L47.0191304,19.68 C47.0191304,20.2643507 47.1408683,20.6852161 47.3843478,20.9426087 C47.6278273,21.2000013 47.9513023,21.3286957 48.3547826,21.3286957 C48.52174,21.3286957 48.692173,21.3078263 48.866087,21.266087 C49.0400009,21.2243476 49.196521,21.1756525 49.3356522,21.12 L49.8156522,23.3530435 C49.5373899,23.4365222 49.2104367,23.5199996 48.8347826,23.6034783 C48.4591286,23.6869569 48.0208721,23.7286957 47.52,23.7286957 C46.8799968,23.7286957 46.3339153,23.6313053 45.8817391,23.4365217 C45.429563,23.2417382 45.060871,22.9704365 44.7756522,22.6226087 C44.4904334,22.2747809 44.2817398,21.8539155 44.1495652,21.36 C44.0173906,20.8660845 43.9513043,20.320003 43.9513043,19.7217391 L43.9513043,15.5269565 Z M50.9217391,18.3026087 C50.9217391,17.4399957 51.0608682,16.6713077 51.3391304,15.9965217 C51.6173927,15.3217358 51.9895629,14.7547849 52.4556522,14.2956522 C52.9217415,13.8365194 53.4608665,13.4852186 54.0730435,13.2417391 C54.6852205,12.9982597 55.3182576,12.8765217 55.9721739,12.8765217 C56.6260902,12.8765217 57.2556491,12.9982597 57.8608696,13.2417391 C58.46609,13.4852186 59.0017368,13.8365194 59.4678261,14.2956522 C59.9339154,14.7547849 60.3060856,15.3217358 60.5843478,15.9965217 C60.8626101,16.6713077 61.0017391,17.4399957 61.0017391,18.3026087 C61.0017391,19.1652217 60.8626101,19.9339097 60.5843478,20.6086957 C60.3060856,21.2834816 59.9339154,21.8504325 59.4678261,22.3095652 C59.0017368,22.7686979 58.46609,23.1199988 57.8608696,23.3634783 C57.2556491,23.6069577 56.6260902,23.7286957 55.9721739,23.7286957 C55.3182576,23.7286957 54.6852205,23.6069577 54.0730435,23.3634783 C53.4608665,23.1199988 52.9217415,22.7686979 52.4556522,22.3095652 C51.9895629,21.8504325 51.6173927,21.2834816 51.3391304,20.6086957 C51.0608682,19.9339097 50.9217391,19.1652217 50.9217391,18.3026087 Z M54.0730435,18.3026087 C54.0730435,19.206961 54.2295637,19.9234756 54.5426087,20.4521739 C54.8556537,20.9808722 55.3321707,21.2452174 55.9721739,21.2452174 C56.598264,21.2452174 57.0713027,20.9808722 57.3913043,20.4521739 C57.7113059,19.9234756 57.8713043,19.206961 57.8713043,18.3026087 C57.8713043,17.3982563 57.7113059,16.6817418 57.3913043,16.1530435 C57.0713027,15.6243452 56.598264,15.36 55.9721739,15.36 C55.3321707,15.36 54.8556537,15.6243452 54.5426087,16.1530435 C54.2295637,16.6817418 54.0730435,17.3982563 54.0730435,18.3026087 Z M73.4608696,17.8434783 L73.1478261,16.5913043 C72.9530425,15.9095618 72.7652183,15.1860908 72.5843478,14.4208696 C72.4034774,13.6556483 72.2226096,12.9182644 72.0417391,12.2086957 L71.9582609,12.2086957 C71.7913035,12.9321775 71.6208704,13.6730397 71.4469565,14.4313043 C71.2730426,15.189569 71.0886966,15.9095618 70.893913,16.5913043 L70.56,17.8434783 L73.4608696,17.8434783 Z M74.0869565,20.2434783 L69.933913,20.2434783 L69.0991304,23.4782609 L65.9686957,23.4782609 L70.226087,9.87130435 L73.92,9.87130435 L78.1773913,23.4782609 L74.9217391,23.4782609 L74.0869565,20.2434783 Z M78.8034783,18.3026087 C78.8034783,17.4399957 78.9495638,16.6713077 79.2417391,15.9965217 C79.5339145,15.3217358 79.9269541,14.7547849 80.4208696,14.2956522 C80.9147851,13.8365194 81.4886924,13.4852186 82.1426087,13.2417391 C82.796525,12.9982597 83.4782573,12.8765217 84.1878261,12.8765217 C84.8278293,12.8765217 85.4052148,12.9843467 85.92,13.2 C86.4347852,13.4156533 86.8660852,13.704346 87.213913,14.066087 L85.8156522,15.9652174 C85.3286932,15.5617371 84.848698,15.36 84.3756522,15.36 C83.6243441,15.36 83.0330456,15.6243452 82.6017391,16.1530435 C82.1704326,16.6817418 81.9547826,17.3982563 81.9547826,18.3026087 C81.9547826,19.206961 82.1739109,19.9234756 82.6121739,20.4521739 C83.050437,20.9808722 83.6034749,21.2452174 84.2713043,21.2452174 C84.6469584,21.2452174 84.9878246,21.1686964 85.293913,21.0156522 C85.6000015,20.8626079 85.8782596,20.6886966 86.1286957,20.493913 L87.36,22.4347826 C86.8591279,22.8800022 86.3026118,23.2069555 85.6904348,23.4156522 C85.0782578,23.6243489 84.4869594,23.7286957 83.9165217,23.7286957 C83.1930399,23.7286957 82.5217422,23.6069577 81.9026087,23.3634783 C81.2834752,23.1199988 80.7443501,22.7686979 80.2852174,22.3095652 C79.8260847,21.8504325 79.4643491,21.2834816 79.2,20.6086957 C78.9356509,19.9339097 78.8034783,19.1652217 78.8034783,18.3026087 Z M89.5721739,15.5269565 L88.1530435,15.5269565 L88.1530435,13.2521739 L89.7391304,13.1269565 L90.093913,10.3721739 L92.64,10.3721739 L92.64,13.1269565 L95.1234783,13.1269565 L95.1234783,15.5269565 L92.64,15.5269565 L92.64,19.68 C92.64,20.2643507 92.7617379,20.6852161 93.0052174,20.9426087 C93.2486969,21.2000013 93.5721719,21.3286957 93.9756522,21.3286957 C94.1426095,21.3286957 94.3130426,21.3078263 94.4869565,21.266087 C94.6608704,21.2243476 94.8173906,21.1756525 94.9565217,21.12 L95.4365217,23.3530435 C95.1582595,23.4365222 94.8313062,23.5199996 94.4556522,23.6034783 C94.0799981,23.6869569 93.6417416,23.7286957 93.1408696,23.7286957 C92.5008664,23.7286957 91.9547849,23.6313053 91.5026087,23.4365217 C91.0504325,23.2417382 90.6817406,22.9704365 90.3965217,22.6226087 C90.1113029,22.2747809 89.9026094,21.8539155 89.7704348,21.36 C89.6382602,20.8660845 89.5721739,20.320003 89.5721739,19.7217391 L89.5721739,15.5269565 Z M98.6713043,11.6034783 C98.1565192,11.6034783 97.7321756,11.4539145 97.3982609,11.1547826 C97.0643462,10.8556507 96.8973913,10.4695676 96.8973913,9.99652174 C96.8973913,9.5234759 97.0643462,9.14087103 97.3982609,8.84869565 C97.7321756,8.55652028 98.1565192,8.41043478 98.6713043,8.41043478 C99.2000026,8.41043478 99.6278245,8.55652028 99.9547826,8.84869565 C100.281741,9.14087103 100.445217,9.5234759 100.445217,9.99652174 C100.445217,10.4695676 100.281741,10.8556507 99.9547826,11.1547826 C99.6278245,11.4539145 99.2000026,11.6034783 98.6713043,11.6034783 Z M97.1478261,13.1269565 L100.215652,13.1269565 L100.215652,23.4782609 L97.1478261,23.4782609 L97.1478261,13.1269565 Z M102.302609,18.3026087 C102.302609,17.4399957 102.441738,16.6713077 102.72,15.9965217 C102.998262,15.3217358 103.370432,14.7547849 103.836522,14.2956522 C104.302611,13.8365194 104.841736,13.4852186 105.453913,13.2417391 C106.06609,12.9982597 106.699127,12.8765217 107.353043,12.8765217 C108.00696,12.8765217 108.636519,12.9982597 109.241739,13.2417391 C109.84696,13.4852186 110.382606,13.8365194 110.848696,14.2956522 C111.314785,14.7547849 111.686955,15.3217358 111.965217,15.9965217 C112.24348,16.6713077 112.382609,17.4399957 112.382609,18.3026087 C112.382609,19.1652217 112.24348,19.9339097 111.965217,20.6086957 C111.686955,21.2834816 111.314785,21.8504325 110.848696,22.3095652 C110.382606,22.7686979 109.84696,23.1199988 109.241739,23.3634783 C108.636519,23.6069577 108.00696,23.7286957 107.353043,23.7286957 C106.699127,23.7286957 106.06609,23.6069577 105.453913,23.3634783 C104.841736,23.1199988 104.302611,22.7686979 103.836522,22.3095652 C103.370432,21.8504325 102.998262,21.2834816 102.72,20.6086957 C102.441738,19.9339097 102.302609,19.1652217 102.302609,18.3026087 Z M105.453913,18.3026087 C105.453913,19.206961 105.610433,19.9234756 105.923478,20.4521739 C106.236523,20.9808722 106.71304,21.2452174 107.353043,21.2452174 C107.979134,21.2452174 108.452172,20.9808722 108.772174,20.4521739 C109.092176,19.9234756 109.252174,19.206961 109.252174,18.3026087 C109.252174,17.3982563 109.092176,16.6817418 108.772174,16.1530435 C108.452172,15.6243452 107.979134,15.36 107.353043,15.36 C106.71304,15.36 106.236523,15.6243452 105.923478,16.1530435 C105.610433,16.6817418 105.453913,17.3982563 105.453913,18.3026087 Z M114.490435,13.1269565 L116.994783,13.1269565 L117.203478,14.4417391 L117.286957,14.4417391 C117.732176,14.0243457 118.219128,13.659132 118.747826,13.346087 C119.276524,13.0330419 119.895649,12.8765217 120.605217,12.8765217 C121.73218,12.8765217 122.549563,13.2452137 123.057391,13.9826087 C123.56522,14.7200037 123.81913,15.7426022 123.81913,17.0504348 L123.81913,23.4782609 L120.751304,23.4782609 L120.751304,17.4469565 C120.751304,16.6956484 120.650436,16.180871 120.448696,15.9026087 C120.246956,15.6243464 119.92348,15.4852174 119.478261,15.4852174 C119.088694,15.4852174 118.754784,15.572173 118.476522,15.746087 C118.198259,15.9200009 117.892176,16.1669549 117.558261,16.4869565 L117.558261,23.4782609 L114.490435,23.4782609 L114.490435,13.1269565 Z" id="Call-to-Action" fill="#79797B"></path>
            <rect id="Rectangle-4" fill="#4990E2" x="0" y="134.347826" width="100.434783" height="27.3913043" rx="4"></rect>
            <path d="M20.8695652,148.351304 C20.8695652,147.787823 20.9565209,147.28522 21.1304348,146.843478 C21.3043487,146.401737 21.539129,146.027828 21.8347826,145.721739 C22.1304363,145.415651 22.4747806,145.182609 22.8678261,145.022609 C23.2608715,144.862608 23.6765195,144.782609 24.1147826,144.782609 C24.5391326,144.782609 24.9234765,144.871303 25.2678261,145.048696 C25.6121756,145.226088 25.8991293,145.433042 26.1286957,145.669565 L25.2834783,146.61913 C25.1095643,146.45913 24.9339139,146.333913 24.7565217,146.243478 C24.5791295,146.153043 24.3721751,146.107826 24.1356522,146.107826 C23.8991293,146.107826 23.6782619,146.15826 23.4730435,146.25913 C23.2678251,146.360001 23.0886964,146.504347 22.9356522,146.692174 C22.7826079,146.880001 22.6626091,147.109564 22.5756522,147.38087 C22.4886952,147.652175 22.4452174,147.958259 22.4452174,148.29913 C22.4452174,149.001743 22.5947811,149.546085 22.893913,149.932174 C23.193045,150.318263 23.593041,150.511304 24.093913,150.511304 C24.3721753,150.511304 24.6156511,150.455653 24.8243478,150.344348 C25.0330445,150.233043 25.2208687,150.086957 25.3878261,149.906087 L26.2330435,150.834783 C25.9478247,151.168697 25.6226105,151.41913 25.2573913,151.586087 C24.8921721,151.753044 24.4973934,151.836522 24.0730435,151.836522 C23.6347804,151.836522 23.2208715,151.76174 22.8313043,151.612174 C22.4417372,151.462608 22.100871,151.241741 21.8086957,150.949565 C21.5165203,150.65739 21.2869574,150.293915 21.12,149.85913 C20.9530426,149.424346 20.8695652,148.921742 20.8695652,148.351304 Z M30.0313043,151.836522 C29.5721716,151.836522 29.1530454,151.754783 28.773913,151.591304 C28.3947807,151.427825 28.0695666,151.193045 27.7982609,150.886957 C27.5269552,150.580868 27.3165225,150.208698 27.1669565,149.770435 C27.0173906,149.332172 26.9426087,148.834785 26.9426087,148.278261 C26.9426087,147.721736 27.0173906,147.226089 27.1669565,146.791304 C27.3165225,146.35652 27.5269552,145.991306 27.7982609,145.695652 C28.0695666,145.399999 28.3947807,145.173914 28.773913,145.017391 C29.1530454,144.860869 29.5721716,144.782609 30.0313043,144.782609 C30.4904371,144.782609 30.9095633,144.860869 31.2886957,145.017391 C31.667828,145.173914 31.9930421,145.401738 32.2643478,145.70087 C32.5356535,146.000001 32.7460862,146.366954 32.8956522,146.801739 C33.0452181,147.236524 33.12,147.728693 33.12,148.278261 C33.12,148.834785 33.0452181,149.332172 32.8956522,149.770435 C32.7460862,150.208698 32.5356535,150.580868 32.2643478,150.886957 C31.9930421,151.193045 31.667828,151.427825 31.2886957,151.591304 C30.9095633,151.754783 30.4904371,151.836522 30.0313043,151.836522 Z M30.0313043,150.511304 C30.4973936,150.511304 30.8660856,150.311306 31.1373913,149.911304 C31.408697,149.511302 31.5443478,148.96696 31.5443478,148.278261 C31.5443478,147.596518 31.408697,147.06435 31.1373913,146.681739 C30.8660856,146.299129 30.4973936,146.107826 30.0313043,146.107826 C29.5652151,146.107826 29.1965231,146.299129 28.9252174,146.681739 C28.6539117,147.06435 28.5182609,147.596518 28.5182609,148.278261 C28.5182609,148.96696 28.6539117,149.511302 28.9252174,149.911304 C29.1965231,150.311306 29.5652151,150.511304 30.0313043,150.511304 Z M34.4034783,144.907826 L35.9791304,144.907826 L37.7530435,148.288696 L38.4208696,149.791304 L38.4626087,149.791304 C38.4278259,149.429563 38.3878263,149.026089 38.3426087,148.58087 C38.2973911,148.13565 38.2747826,147.711306 38.2747826,147.307826 L38.2747826,144.907826 L39.7356522,144.907826 L39.7356522,151.711304 L38.16,151.711304 L36.386087,148.32 L35.7182609,146.838261 L35.6765217,146.838261 C35.7113045,147.213915 35.7513041,147.617389 35.7965217,148.048696 C35.8417394,148.480002 35.8643478,148.897389 35.8643478,149.30087 L35.8643478,151.711304 L34.4034783,151.711304 L34.4034783,144.907826 Z M42.6678261,146.201739 L40.8,146.201739 L40.8,144.907826 L46.08,144.907826 L46.08,146.201739 L44.2121739,146.201739 L44.2121739,151.711304 L42.6678261,151.711304 L42.6678261,146.201739 Z M50.0243478,148.893913 L49.8678261,148.267826 C49.7704343,147.926955 49.6765222,147.565219 49.586087,147.182609 C49.4956517,146.799998 49.4052178,146.431306 49.3147826,146.076522 L49.2730435,146.076522 C49.1895648,146.438263 49.1043483,146.808694 49.0173913,147.187826 C48.9304343,147.566958 48.8382614,147.926955 48.7408696,148.267826 L48.573913,148.893913 L50.0243478,148.893913 Z M50.3373913,150.093913 L48.2608696,150.093913 L47.8434783,151.711304 L46.2782609,151.711304 L48.4069565,144.907826 L50.253913,144.907826 L52.3826087,151.711304 L50.7547826,151.711304 L50.3373913,150.093913 Z M52.8,148.351304 C52.8,147.787823 52.8869557,147.28522 53.0608696,146.843478 C53.2347835,146.401737 53.4695637,146.027828 53.7652174,145.721739 C54.060871,145.415651 54.4052154,145.182609 54.7982609,145.022609 C55.1913063,144.862608 55.6069543,144.782609 56.0452174,144.782609 C56.4695673,144.782609 56.8539113,144.871303 57.1982609,145.048696 C57.5426104,145.226088 57.8295641,145.433042 58.0591304,145.669565 L57.213913,146.61913 C57.0399991,146.45913 56.8643487,146.333913 56.6869565,146.243478 C56.5095643,146.153043 56.3026099,146.107826 56.066087,146.107826 C55.829564,146.107826 55.6086967,146.15826 55.4034783,146.25913 C55.1982598,146.360001 55.0191312,146.504347 54.866087,146.692174 C54.7130427,146.880001 54.5930439,147.109564 54.506087,147.38087 C54.41913,147.652175 54.3756522,147.958259 54.3756522,148.29913 C54.3756522,149.001743 54.5252159,149.546085 54.8243478,149.932174 C55.1234798,150.318263 55.5234758,150.511304 56.0243478,150.511304 C56.3026101,150.511304 56.5460859,150.455653 56.7547826,150.344348 C56.9634793,150.233043 57.1513035,150.086957 57.3182609,149.906087 L58.1634783,150.834783 C57.8782594,151.168697 57.5530453,151.41913 57.1878261,151.586087 C56.8226069,151.753044 56.4278282,151.836522 56.0034783,151.836522 C55.5652152,151.836522 55.1513063,151.76174 54.7617391,151.612174 C54.372172,151.462608 54.0313058,151.241741 53.7391304,150.949565 C53.4469551,150.65739 53.2173921,150.293915 53.0504348,149.85913 C52.8834774,149.424346 52.8,148.921742 52.8,148.351304 Z M60.5217391,146.201739 L58.653913,146.201739 L58.653913,144.907826 L63.933913,144.907826 L63.933913,146.201739 L62.066087,146.201739 L62.066087,151.711304 L60.5217391,151.711304 L60.5217391,146.201739 Z M67.1269565,144.907826 L68.6713043,144.907826 L68.6713043,148.716522 C68.6713043,149.384351 68.7721729,149.850433 68.973913,150.114783 C69.1756532,150.379132 69.4678242,150.511304 69.8504348,150.511304 C70.2330454,150.511304 70.5286946,150.379132 70.7373913,150.114783 C70.946088,149.850433 71.0504348,149.384351 71.0504348,148.716522 L71.0504348,144.907826 L72.5321739,144.907826 L72.5321739,148.56 C72.5321739,149.700875 72.3043501,150.532171 71.8486957,151.053913 C71.3930412,151.575655 70.7269609,151.836522 69.8504348,151.836522 C68.9669521,151.836522 68.2921762,151.575655 67.826087,151.053913 C67.3599977,150.532171 67.1269565,149.700875 67.1269565,148.56 L67.1269565,144.907826 Z M74.546087,149.801739 C74.7895664,150.010436 75.059129,150.180869 75.3547826,150.313043 C75.6504363,150.445218 75.9408681,150.511304 76.226087,150.511304 C76.5460886,150.511304 76.784347,150.452175 76.9408696,150.333913 C77.0973921,150.215652 77.1756522,150.055653 77.1756522,149.853913 C77.1756522,149.749565 77.1530437,149.659131 77.1078261,149.582609 C77.0626085,149.506087 76.9965222,149.438261 76.9095652,149.37913 C76.8226083,149.32 76.7182615,149.264348 76.5965217,149.212174 L76.1947826,149.04 L75.3078261,148.664348 C75.1339122,148.594782 74.9652182,148.504348 74.8017391,148.393043 C74.6382601,148.281739 74.4921746,148.151305 74.3634783,148.001739 C74.234782,147.852173 74.1321743,147.678262 74.0556522,147.48 C73.9791301,147.281738 73.9408696,147.057393 73.9408696,146.806957 C73.9408696,146.528694 73.9999994,146.266088 74.1182609,146.01913 C74.2365223,145.772173 74.4034772,145.556523 74.6191304,145.372174 C74.8347837,145.187825 75.0904333,145.043479 75.386087,144.93913 C75.6817406,144.834782 76.0069547,144.782609 76.3617391,144.782609 C76.7582629,144.782609 77.1495633,144.85913 77.5356522,145.012174 C77.9217411,145.165218 78.2608681,145.387825 78.5530435,145.68 L77.7704348,146.650435 C77.547825,146.476521 77.3252185,146.342609 77.1026087,146.248696 C76.8799989,146.154782 76.6330448,146.107826 76.3617391,146.107826 C76.09739,146.107826 75.8869573,146.161739 75.7304348,146.269565 C75.5739123,146.377392 75.4956522,146.528695 75.4956522,146.723478 C75.4956522,146.827827 75.5217389,146.916521 75.573913,146.989565 C75.6260872,147.062609 75.69913,147.128695 75.7930435,147.187826 C75.886957,147.246957 75.9965211,147.302608 76.1217391,147.354783 C76.2469571,147.406957 76.382608,147.464348 76.5286957,147.526957 L77.4052174,147.881739 C77.8226108,148.048696 78.1513031,148.278259 78.3913043,148.570435 C78.6313055,148.86261 78.7513043,149.248693 78.7513043,149.728696 C78.7513043,150.013914 78.6939136,150.283477 78.5791304,150.537391 C78.4643473,150.791306 78.2973924,151.013912 78.0782609,151.205217 C77.8591293,151.396523 77.5895668,151.549565 77.2695652,151.664348 C76.9495636,151.779131 76.5878281,151.836522 76.1843478,151.836522 C75.7391282,151.836522 75.2956544,151.754783 74.853913,151.591304 C74.4121717,151.427825 74.017393,151.18261 73.6695652,150.855652 L74.546087,149.801739 Z" id="CONTACT-US" fill="#FFFFFF"></path>
            <path d="M129.790435,150.597391 C129.790435,149.822605 129.909999,149.131525 130.14913,148.52413 C130.388262,147.916736 130.711085,147.402611 131.117609,146.981739 C131.524132,146.560867 131.997606,146.240436 132.538043,146.020435 C133.078481,145.800434 133.649997,145.690435 134.252609,145.690435 C134.83609,145.690435 135.364563,145.81239 135.838043,146.056304 C136.311524,146.300219 136.706085,146.584781 137.021739,146.91 L135.859565,148.215652 C135.620434,147.995651 135.378914,147.823479 135.135,147.69913 C134.891086,147.574782 134.606523,147.512609 134.281304,147.512609 C133.956085,147.512609 133.652393,147.581956 133.370217,147.720652 C133.088042,147.859349 132.84174,148.057825 132.631304,148.316087 C132.420869,148.574349 132.25587,148.889998 132.136304,149.263043 C132.016739,149.636089 131.956957,150.056954 131.956957,150.525652 C131.956957,151.491744 132.162607,152.240215 132.573913,152.771087 C132.985219,153.301959 133.535214,153.567391 134.223913,153.567391 C134.606524,153.567391 134.941303,153.49087 135.228261,153.337826 C135.515219,153.184782 135.773477,152.983914 136.003043,152.735217 L137.165217,154.012174 C136.773042,154.471307 136.325872,154.815651 135.823696,155.045217 C135.321519,155.274784 134.778699,155.389565 134.195217,155.389565 C133.592606,155.389565 133.023481,155.28674 132.487826,155.081087 C131.952171,154.875434 131.48348,154.571741 131.081739,154.17 C130.679998,153.768259 130.364349,153.268481 130.134783,152.670652 C129.905216,152.072823 129.790435,151.381743 129.790435,150.597391 Z M138.155217,153.237391 C138.155217,152.491301 138.470866,151.907828 139.102174,151.486957 C139.733481,151.066085 140.752167,150.783914 142.158261,150.640435 C142.13913,150.324781 142.043479,150.073697 141.871304,149.887174 C141.69913,149.700651 141.421741,149.607391 141.03913,149.607391 C140.733042,149.607391 140.426958,149.664782 140.12087,149.779565 C139.814781,149.894348 139.489567,150.052173 139.145217,150.253043 L138.39913,148.861304 C138.858263,148.583912 139.338911,148.359131 139.841087,148.186957 C140.343263,148.014782 140.876519,147.928696 141.44087,147.928696 C142.359135,147.928696 143.05978,148.189345 143.542826,148.710652 C144.025872,149.231959 144.267391,150.042603 144.267391,151.142609 L144.267391,155.217391 L142.545652,155.217391 L142.387826,154.485652 L142.344783,154.485652 C142.038694,154.75348 141.715871,154.971086 141.376304,155.138478 C141.036737,155.30587 140.666089,155.389565 140.264348,155.389565 C139.939129,155.389565 139.647393,155.334566 139.38913,155.224565 C139.130868,155.114565 138.91087,154.961523 138.72913,154.765435 C138.54739,154.569347 138.406305,154.342175 138.30587,154.083913 C138.205434,153.825651 138.155217,153.54348 138.155217,153.237391 Z M140.163913,153.079565 C140.163913,153.309132 140.238043,153.478912 140.386304,153.588913 C140.534566,153.698914 140.733042,153.753913 140.981739,153.753913 C141.230436,153.753913 141.440869,153.701305 141.613043,153.596087 C141.785218,153.490869 141.966956,153.34261 142.158261,153.151304 L142.158261,151.903043 C141.402605,152.008261 140.881306,152.161303 140.594348,152.362174 C140.30739,152.563044 140.163913,152.802173 140.163913,153.079565 Z M146.075217,145.159565 L148.184348,145.159565 L148.184348,153.093913 C148.184348,153.313914 148.225,153.466956 148.306304,153.553043 C148.387609,153.639131 148.471304,153.682174 148.557391,153.682174 L148.679348,153.682174 C148.712826,153.682174 148.758261,153.672609 148.815652,153.653478 L149.073913,155.217391 C148.95913,155.265218 148.813262,155.305869 148.636304,155.339348 C148.459347,155.372826 148.251306,155.389565 148.012174,155.389565 C147.648694,155.389565 147.34261,155.332174 147.093913,155.217391 C146.845216,155.102608 146.64674,154.942392 146.498478,154.736739 C146.350217,154.531086 146.242609,154.282393 146.175652,153.990652 C146.108695,153.698912 146.075217,153.371306 146.075217,153.007826 L146.075217,145.159565 Z M150.178696,145.159565 L152.287826,145.159565 L152.287826,153.093913 C152.287826,153.313914 152.328478,153.466956 152.409783,153.553043 C152.491087,153.639131 152.574782,153.682174 152.66087,153.682174 L152.782826,153.682174 C152.816305,153.682174 152.861739,153.672609 152.91913,153.653478 L153.177391,155.217391 C153.062608,155.265218 152.91674,155.305869 152.739783,155.339348 C152.562825,155.372826 152.354784,155.389565 152.115652,155.389565 C151.752172,155.389565 151.446088,155.332174 151.197391,155.217391 C150.948694,155.102608 150.750218,154.942392 150.601957,154.736739 C150.453695,154.531086 150.346087,154.282393 150.27913,153.990652 C150.212174,153.698912 150.178696,153.371306 150.178696,153.007826 L150.178696,145.159565 Z M159.906522,155.389565 C158.978691,155.389565 158.256524,154.978265 157.74,154.155652 C157.223476,153.333039 156.965217,152.151747 156.965217,150.611739 C156.965217,149.071731 157.223476,147.900004 157.74,147.096522 C158.256524,146.293039 158.978691,145.891304 159.906522,145.891304 C160.824787,145.891304 161.542171,146.293039 162.058696,147.096522 C162.57522,147.900004 162.833478,149.071731 162.833478,150.611739 C162.833478,152.151747 162.57522,153.333039 162.058696,154.155652 C161.542171,154.978265 160.824787,155.389565 159.906522,155.389565 Z M159.906522,154.442609 C160.174349,154.442609 160.415868,154.368479 160.631087,154.220217 C160.846305,154.071956 161.032825,153.842393 161.190652,153.531522 C161.348479,153.220651 161.470434,152.823698 161.556522,152.340652 C161.642609,151.857606 161.685652,151.281308 161.685652,150.611739 C161.685652,149.942171 161.642609,149.368263 161.556522,148.89 C161.470434,148.411737 161.348479,148.021958 161.190652,147.720652 C161.032825,147.419346 160.846305,147.196957 160.631087,147.053478 C160.415868,146.909999 160.174349,146.838261 159.906522,146.838261 C159.638694,146.838261 159.394784,146.909999 159.174783,147.053478 C158.954782,147.196957 158.76587,147.419346 158.608043,147.720652 C158.450217,148.021958 158.328261,148.411737 158.242174,148.89 C158.156087,149.368263 158.113043,149.942171 158.113043,150.611739 C158.113043,151.950876 158.278042,152.924127 158.608043,153.531522 C158.938045,154.138916 159.370867,154.442609 159.906522,154.442609 Z M165.114783,152.763913 C165.114783,153.022175 165.164999,153.256521 165.265435,153.466957 C165.36587,153.677392 165.504564,153.861521 165.681522,154.019348 C165.858479,154.177175 166.066521,154.29913 166.305652,154.385217 C166.544784,154.471305 166.803042,154.514348 167.080435,154.514348 C167.61609,154.514348 168.048911,154.366088 168.378913,154.069565 C168.708915,153.773042 168.873913,153.385655 168.873913,152.907391 C168.873913,152.610868 168.806957,152.357392 168.673043,152.146957 C168.53913,151.936521 168.357392,151.752392 168.127826,151.594565 C167.89826,151.436738 167.632828,151.293262 167.331522,151.16413 C167.030216,151.034999 166.716958,150.903479 166.391739,150.769565 C166.028259,151.018262 165.724566,151.307607 165.480652,151.637609 C165.236738,151.96761 165.114783,152.343041 165.114783,152.763913 Z M167.697391,150.224348 C168.00348,149.946955 168.240217,149.655219 168.407609,149.34913 C168.575001,149.043042 168.658696,148.72261 168.658696,148.387826 C168.658696,147.928693 168.520001,147.543697 168.242609,147.232826 C167.965216,146.921955 167.573046,146.766522 167.066087,146.766522 C166.63565,146.766522 166.281741,146.900433 166.004348,147.168261 C165.726955,147.436088 165.588261,147.79478 165.588261,148.244348 C165.588261,148.521741 165.645652,148.758477 165.760435,148.954565 C165.875218,149.150653 166.030651,149.325217 166.226739,149.478261 C166.422827,149.631305 166.647607,149.767608 166.901087,149.887174 C167.154566,150.00674 167.419999,150.11913 167.697391,150.224348 Z M164.053043,152.878696 C164.053043,152.582172 164.10326,152.307175 164.203696,152.053696 C164.304131,151.800216 164.43326,151.570653 164.591087,151.365 C164.748914,151.159347 164.930651,150.977609 165.136304,150.819783 C165.341958,150.661956 165.554782,150.525653 165.774783,150.41087 L165.774783,150.353478 C165.439998,150.114347 165.14348,149.825002 164.885217,149.485435 C164.626955,149.145868 164.497826,148.732176 164.497826,148.244348 C164.497826,147.890433 164.564782,147.570001 164.698696,147.283043 C164.832609,146.996086 165.014347,146.749784 165.243913,146.54413 C165.473479,146.338477 165.746085,146.178261 166.061739,146.063478 C166.377393,145.948695 166.721737,145.891304 167.094783,145.891304 C167.496524,145.891304 167.855216,145.951086 168.17087,146.070652 C168.486523,146.190218 168.756738,146.357608 168.981522,146.572826 C169.206305,146.788045 169.378478,147.046303 169.498043,147.347609 C169.617609,147.648915 169.677391,147.97652 169.677391,148.330435 C169.677391,148.569566 169.63674,148.799129 169.555435,149.01913 C169.47413,149.239132 169.373696,149.444782 169.25413,149.636087 C169.134565,149.827392 169.000653,149.999564 168.852391,150.152609 C168.70413,150.305653 168.558262,150.434782 168.414783,150.54 L168.414783,150.597391 C168.615653,150.712174 168.811738,150.843695 169.003043,150.991957 C169.194349,151.140218 169.36413,151.307608 169.512391,151.49413 C169.660653,151.680653 169.780217,151.893477 169.871087,152.132609 C169.961957,152.37174 170.007391,152.644346 170.007391,152.950435 C170.007391,153.294784 169.935653,153.615216 169.792174,153.911739 C169.648695,154.208262 169.447827,154.466521 169.189565,154.686522 C168.931303,154.906523 168.620437,155.078695 168.256957,155.203043 C167.893476,155.327392 167.491741,155.389565 167.051739,155.389565 C166.621302,155.389565 166.221958,155.327392 165.853696,155.203043 C165.485433,155.078695 165.169784,154.904132 164.906739,154.679348 C164.643694,154.454564 164.435653,154.189132 164.282609,153.883043 C164.129564,153.576955 164.053043,153.242176 164.053043,152.878696 Z M174.168261,155.389565 C173.24043,155.389565 172.518263,154.978265 172.001739,154.155652 C171.485215,153.333039 171.226957,152.151747 171.226957,150.611739 C171.226957,149.071731 171.485215,147.900004 172.001739,147.096522 C172.518263,146.293039 173.24043,145.891304 174.168261,145.891304 C175.086526,145.891304 175.80391,146.293039 176.320435,147.096522 C176.836959,147.900004 177.095217,149.071731 177.095217,150.611739 C177.095217,152.151747 176.836959,153.333039 176.320435,154.155652 C175.80391,154.978265 175.086526,155.389565 174.168261,155.389565 Z M174.168261,154.442609 C174.436088,154.442609 174.677608,154.368479 174.892826,154.220217 C175.108045,154.071956 175.294564,153.842393 175.452391,153.531522 C175.610218,153.220651 175.732173,152.823698 175.818261,152.340652 C175.904348,151.857606 175.947391,151.281308 175.947391,150.611739 C175.947391,149.942171 175.904348,149.368263 175.818261,148.89 C175.732173,148.411737 175.610218,148.021958 175.452391,147.720652 C175.294564,147.419346 175.108045,147.196957 174.892826,147.053478 C174.677608,146.909999 174.436088,146.838261 174.168261,146.838261 C173.900433,146.838261 173.656523,146.909999 173.436522,147.053478 C173.216521,147.196957 173.027609,147.419346 172.869783,147.720652 C172.711956,148.021958 172.59,148.411737 172.503913,148.89 C172.417826,149.368263 172.374783,149.942171 172.374783,150.611739 C172.374783,151.950876 172.539781,152.924127 172.869783,153.531522 C173.199784,154.138916 173.632606,154.442609 174.168261,154.442609 Z M181.29913,155.389565 C180.3713,155.389565 179.649133,154.978265 179.132609,154.155652 C178.616084,153.333039 178.357826,152.151747 178.357826,150.611739 C178.357826,149.071731 178.616084,147.900004 179.132609,147.096522 C179.649133,146.293039 180.3713,145.891304 181.29913,145.891304 C182.217396,145.891304 182.93478,146.293039 183.451304,147.096522 C183.967829,147.900004 184.226087,149.071731 184.226087,150.611739 C184.226087,152.151747 183.967829,153.333039 183.451304,154.155652 C182.93478,154.978265 182.217396,155.389565 181.29913,155.389565 Z M181.29913,154.442609 C181.566958,154.442609 181.808477,154.368479 182.023696,154.220217 C182.238914,154.071956 182.425434,153.842393 182.583261,153.531522 C182.741088,153.220651 182.863043,152.823698 182.94913,152.340652 C183.035218,151.857606 183.078261,151.281308 183.078261,150.611739 C183.078261,149.942171 183.035218,149.368263 182.94913,148.89 C182.863043,148.411737 182.741088,148.021958 182.583261,147.720652 C182.425434,147.419346 182.238914,147.196957 182.023696,147.053478 C181.808477,146.909999 181.566958,146.838261 181.29913,146.838261 C181.031303,146.838261 180.787392,146.909999 180.567391,147.053478 C180.34739,147.196957 180.158479,147.419346 180.000652,147.720652 C179.842825,148.021958 179.72087,148.411737 179.634783,148.89 C179.548695,149.368263 179.505652,149.942171 179.505652,150.611739 C179.505652,151.950876 179.670651,152.924127 180.000652,153.531522 C180.330654,154.138916 180.763476,154.442609 181.29913,154.442609 Z M192.117391,151.745217 L192.117391,149.09087 C192.117391,148.842173 192.124565,148.548045 192.138913,148.208478 C192.153261,147.868911 192.17,147.574784 192.18913,147.326087 L192.131739,147.326087 C192.016956,147.546088 191.897392,147.761303 191.773043,147.971739 C191.648695,148.182175 191.519566,148.39739 191.385652,148.617391 L189.247826,151.745217 L192.117391,151.745217 Z M194.484783,152.692174 L193.236522,152.692174 L193.236522,155.217391 L192.117391,155.217391 L192.117391,152.692174 L187.999565,152.692174 L187.999565,151.917391 L191.916522,146.063478 L193.236522,146.063478 L193.236522,151.745217 L194.484783,151.745217 L194.484783,152.692174 Z M199.248261,151.745217 L199.248261,149.09087 C199.248261,148.842173 199.255435,148.548045 199.269783,148.208478 C199.284131,147.868911 199.300869,147.574784 199.32,147.326087 L199.262609,147.326087 C199.147826,147.546088 199.028261,147.761303 198.903913,147.971739 C198.779565,148.182175 198.650435,148.39739 198.516522,148.617391 L196.378696,151.745217 L199.248261,151.745217 Z M201.615652,152.692174 L200.367391,152.692174 L200.367391,155.217391 L199.248261,155.217391 L199.248261,152.692174 L195.130435,152.692174 L195.130435,151.917391 L199.047391,146.063478 L200.367391,146.063478 L200.367391,151.745217 L201.615652,151.745217 L201.615652,152.692174 Z M206.37913,151.745217 L206.37913,149.09087 C206.37913,148.842173 206.386304,148.548045 206.400652,148.208478 C206.415,147.868911 206.431739,147.574784 206.45087,147.326087 L206.393478,147.326087 C206.278695,147.546088 206.159131,147.761303 206.034783,147.971739 C205.910434,148.182175 205.781305,148.39739 205.647391,148.617391 L203.509565,151.745217 L206.37913,151.745217 Z M208.746522,152.692174 L207.498261,152.692174 L207.498261,155.217391 L206.37913,155.217391 L206.37913,152.692174 L202.261304,152.692174 L202.261304,151.917391 L206.178261,146.063478 L207.498261,146.063478 L207.498261,151.745217 L208.746522,151.745217 L208.746522,152.692174 Z M212.620435,154.514348 C213.309134,153.825649 213.921302,153.203916 214.456957,152.64913 C214.992611,152.094345 215.442172,151.58022 215.805652,151.106739 C216.169132,150.633259 216.446521,150.198045 216.637826,149.801087 C216.829131,149.404128 216.924783,149.019132 216.924783,148.646087 C216.924783,148.119997 216.781306,147.689567 216.494348,147.354783 C216.20739,147.019998 215.772177,146.852609 215.188696,146.852609 C214.806085,146.852609 214.452176,146.960216 214.126957,147.175435 C213.801738,147.390653 213.505219,147.651303 213.237391,147.957391 L212.563043,147.283043 C212.945654,146.862172 213.352172,146.525001 213.782609,146.271522 C214.213046,146.018042 214.729562,145.891304 215.332174,145.891304 C216.183483,145.891304 216.853041,146.137606 217.34087,146.630217 C217.828698,147.122829 218.072609,147.775648 218.072609,148.588696 C218.072609,149.019133 217.979349,149.451954 217.792826,149.887174 C217.606303,150.322393 217.348045,150.771954 217.018043,151.23587 C216.688042,151.699785 216.295872,152.182824 215.841522,152.685 C215.387172,153.187176 214.887394,153.720432 214.342174,154.284783 C214.590871,154.265652 214.849129,154.246522 215.116957,154.227391 C215.384784,154.208261 215.63826,154.198696 215.877391,154.198696 L218.531739,154.198696 L218.531739,155.217391 L212.620435,155.217391 L212.620435,154.514348 Z M219.751304,154.514348 C220.440003,153.825649 221.052171,153.203916 221.587826,152.64913 C222.123481,152.094345 222.573042,151.58022 222.936522,151.106739 C223.300002,150.633259 223.57739,150.198045 223.768696,149.801087 C223.960001,149.404128 224.055652,149.019132 224.055652,148.646087 C224.055652,148.119997 223.912175,147.689567 223.625217,147.354783 C223.338259,147.019998 222.903046,146.852609 222.319565,146.852609 C221.936955,146.852609 221.583045,146.960216 221.257826,147.175435 C220.932607,147.390653 220.636088,147.651303 220.368261,147.957391 L219.693913,147.283043 C220.076524,146.862172 220.483041,146.525001 220.913478,146.271522 C221.343915,146.018042 221.860432,145.891304 222.463043,145.891304 C223.314352,145.891304 223.983911,146.137606 224.471739,146.630217 C224.959568,147.122829 225.203478,147.775648 225.203478,148.588696 C225.203478,149.019133 225.110218,149.451954 224.923696,149.887174 C224.737173,150.322393 224.478915,150.771954 224.148913,151.23587 C223.818911,151.699785 223.426741,152.182824 222.972391,152.685 C222.518041,153.187176 222.018264,153.720432 221.473043,154.284783 C221.72174,154.265652 221.979999,154.246522 222.247826,154.227391 C222.515654,154.208261 222.769129,154.198696 223.008261,154.198696 L225.662609,154.198696 L225.662609,155.217391 L219.751304,155.217391 L219.751304,154.514348 Z M226.882174,154.514348 C227.570873,153.825649 228.183041,153.203916 228.718696,152.64913 C229.254351,152.094345 229.703911,151.58022 230.067391,151.106739 C230.430871,150.633259 230.70826,150.198045 230.899565,149.801087 C231.090871,149.404128 231.186522,149.019132 231.186522,148.646087 C231.186522,148.119997 231.043045,147.689567 230.756087,147.354783 C230.469129,147.019998 230.033916,146.852609 229.450435,146.852609 C229.067824,146.852609 228.713915,146.960216 228.388696,147.175435 C228.063477,147.390653 227.766958,147.651303 227.49913,147.957391 L226.824783,147.283043 C227.207393,146.862172 227.613911,146.525001 228.044348,146.271522 C228.474785,146.018042 228.991301,145.891304 229.593913,145.891304 C230.445222,145.891304 231.11478,146.137606 231.602609,146.630217 C232.090437,147.122829 232.334348,147.775648 232.334348,148.588696 C232.334348,149.019133 232.241088,149.451954 232.054565,149.887174 C231.868043,150.322393 231.609784,150.771954 231.279783,151.23587 C230.949781,151.699785 230.557611,152.182824 230.103261,152.685 C229.648911,153.187176 229.149133,153.720432 228.603913,154.284783 C228.85261,154.265652 229.110868,154.246522 229.378696,154.227391 C229.646523,154.208261 229.899999,154.198696 230.13913,154.198696 L232.793478,154.198696 L232.793478,155.217391 L226.882174,155.217391 L226.882174,154.514348 Z" id="Call-0800-444-222" fill="#79797B"></path>
        </g>
    </g>
</svg>