<?xml version="1.0" encoding="UTF-8"?>
<svg width="600px" height="365px" viewBox="0 0 600 365" version="1.1" xmlns="http://www.w3.org/2000/svg" xmlns:xlink="http://www.w3.org/1999/xlink">
    <!-- Generator: Sketch 44.1 (41455) - http://www.bohemiancoding.com/sketch -->
    <title>charts04</title>
    <desc>Created with Sketch.</desc>
    <defs>
        <rect id="path-1" x="0" y="0" width="300.500835" height="364.607679"></rect>
        <mask id="mask-2" maskContentUnits="userSpaceOnUse" maskUnits="objectBoundingBox" x="0" y="0" width="300.500835" height="364.607679" fill="white">
            <use xlink:href="#path-1"></use>
        </mask>
    </defs>
    <g id="Charts" stroke="none" stroke-width="1" fill="none" fill-rule="evenodd">
        <g id="04">
            <use id="Rectangle-9" stroke="#979797" mask="url(#mask-2)" stroke-width="2" fill="#F2F2F2" stroke-dasharray="4" xlink:href="#path-1"></use>
            <g id="icon-picture" opacity="0.699999988" transform="translate(119.198664, 161.268781)" stroke="#979797">
                <polyline id="Path-15" stroke-width="2" points="1.27298872 36.9192874 21.6382827 15.7030751 35.9524768 30.7412022 44.3366074 21.9330485 60.2074635 38.606565"></polyline>
                <circle id="Oval-6" fill="#D8D8D8" cx="50.0834725" cy="11.0183639" r="3.00500835"></circle>
                <rect id="Rectangle-10" stroke-width="2" x="1" y="1" width="59.1018364" height="41.0717863" rx="3"></rect>
            </g>
            <rect id="Rectangle-6" fill="#4990E2" x="299.499165" y="0" width="300.500835" height="364.607679"></rect>
            <path d="M341.467112,106.659766 L341.136561,105.337563 C340.930884,104.617693 340.732555,103.85376 340.541569,103.045743 C340.350583,102.237726 340.1596,101.459102 339.968614,100.70985 L339.880467,100.70985 C339.704173,101.473793 339.524208,102.256089 339.340568,103.056761 C339.156927,103.857433 338.962271,104.617693 338.756594,105.337563 L338.404007,106.659766 L341.467112,106.659766 Z M342.128214,109.19399 L337.742905,109.19399 L336.861436,112.609683 L333.555927,112.609683 L338.051419,98.2417362 L341.95192,98.2417362 L346.447412,112.609683 L343.009683,112.609683 L342.128214,109.19399 Z M347.747579,97.1619366 L350.986978,97.1619366 L350.986978,100.952254 L350.898831,102.627045 C351.324877,102.245073 351.783971,101.94758 352.276127,101.734558 C352.768283,101.521535 353.27145,101.415025 353.785643,101.415025 C354.446748,101.415025 355.041734,101.547244 355.570618,101.811686 C356.099502,102.076128 356.55125,102.447076 356.925876,102.924541 C357.300503,103.402006 357.586977,103.9823 357.785309,104.665442 C357.98364,105.348584 358.082805,106.108844 358.082805,106.946244 C358.082805,107.886482 357.954258,108.723869 357.697162,109.458431 C357.440065,110.192992 357.094827,110.813687 356.661436,111.320534 C356.228045,111.827381 355.735896,112.21302 355.184975,112.477462 C354.634054,112.741904 354.064778,112.874124 353.477129,112.874124 C352.992318,112.874124 352.503842,112.756595 352.011686,112.521536 C351.51953,112.286476 351.060436,111.933892 350.634391,111.463773 L350.546244,111.463773 L350.281803,112.609683 L347.747579,112.609683 L347.747579,97.1619366 Z M350.986978,109.524541 C351.280803,109.788983 351.574623,109.972621 351.868447,110.075459 C352.162272,110.178298 352.448747,110.229716 352.72788,110.229716 C353.286146,110.229716 353.763604,109.976296 354.160267,109.469449 C354.55693,108.962602 354.755259,108.143578 354.755259,107.012354 C354.755259,105.04373 354.123546,104.059432 352.8601,104.059432 C352.213686,104.059432 351.589319,104.38998 350.986978,105.051085 L350.986978,109.524541 Z M359.735559,107.144574 C359.735559,106.233718 359.882469,105.42204 360.176294,104.709516 C360.470118,103.996991 360.863103,103.398333 361.355259,102.913523 C361.847415,102.428712 362.416691,102.057764 363.063105,101.800668 C363.709519,101.543571 364.37796,101.415025 365.068447,101.415025 C365.758935,101.415025 366.423703,101.543571 367.062771,101.800668 C367.70184,102.057764 368.267443,102.428712 368.759599,102.913523 C369.251755,103.398333 369.64474,103.996991 369.938564,104.709516 C370.232389,105.42204 370.379299,106.233718 370.379299,107.144574 C370.379299,108.05543 370.232389,108.867108 369.938564,109.579633 C369.64474,110.292157 369.251755,110.890816 368.759599,111.375626 C368.267443,111.860436 367.70184,112.231384 367.062771,112.488481 C366.423703,112.745577 365.758935,112.874124 365.068447,112.874124 C364.37796,112.874124 363.709519,112.745577 363.063105,112.488481 C362.416691,112.231384 361.847415,111.860436 361.355259,111.375626 C360.863103,110.890816 360.470118,110.292157 360.176294,109.579633 C359.882469,108.867108 359.735559,108.05543 359.735559,107.144574 Z M363.063105,107.144574 C363.063105,108.099504 363.228379,108.856091 363.558932,109.414357 C363.889484,109.972624 364.392651,110.251753 365.068447,110.251753 C365.729553,110.251753 366.229047,109.972624 366.566945,109.414357 C366.904843,108.856091 367.07379,108.099504 367.07379,107.144574 C367.07379,106.189645 366.904843,105.433058 366.566945,104.874791 C366.229047,104.316525 365.729553,104.037396 365.068447,104.037396 C364.392651,104.037396 363.889484,104.316525 363.558932,104.874791 C363.228379,105.433058 363.063105,106.189645 363.063105,107.144574 Z M372.494825,101.679466 L375.734224,101.679466 L375.734224,108.04808 C375.734224,108.841406 375.844406,109.384973 376.064775,109.678798 C376.285143,109.972623 376.630382,110.119533 377.100501,110.119533 C377.511855,110.119533 377.857094,110.024041 378.136227,109.833055 C378.41536,109.642069 378.716526,109.333558 379.039733,108.907513 L379.039733,101.679466 L382.279132,101.679466 L382.279132,112.609683 L379.634725,112.609683 L379.392321,111.089149 L379.32621,111.089149 C378.856091,111.647415 378.352924,112.084473 377.816694,112.400334 C377.280465,112.716195 376.637733,112.874124 375.888481,112.874124 C374.698492,112.874124 373.835395,112.484812 373.299165,111.706177 C372.762936,110.927542 372.494825,109.847753 372.494825,108.466778 L372.494825,101.679466 Z M385.562604,104.213689 L384.064107,104.213689 L384.064107,101.811686 L385.738898,101.679466 L386.113523,98.7706177 L388.802003,98.7706177 L388.802003,101.679466 L391.424374,101.679466 L391.424374,104.213689 L388.802003,104.213689 L388.802003,108.598998 C388.802003,109.21603 388.93055,109.660433 389.187646,109.93222 C389.444743,110.204008 389.786308,110.3399 390.212354,110.3399 C390.388649,110.3399 390.568613,110.317863 390.752254,110.27379 C390.935894,110.229716 391.101168,110.178297 391.24808,110.119533 L391.754925,112.477462 C391.4611,112.56561 391.115862,112.653756 390.719199,112.741903 C390.322536,112.830051 389.859769,112.874124 389.330885,112.874124 C388.655088,112.874124 388.078466,112.771287 387.601002,112.565609 C387.123537,112.359932 386.734225,112.073458 386.433055,111.706177 C386.131885,111.338896 385.91152,110.894493 385.771953,110.372955 C385.632387,109.851416 385.562604,109.274794 385.562604,108.643072 L385.562604,104.213689 Z M398.035392,101.679466 L401.274791,101.679466 L401.274791,108.04808 C401.274791,108.841406 401.384974,109.384973 401.605342,109.678798 C401.825711,109.972623 402.170949,110.119533 402.641068,110.119533 C403.052423,110.119533 403.397661,110.024041 403.676795,109.833055 C403.955928,109.642069 404.257094,109.333558 404.580301,108.907513 L404.580301,101.679466 L407.819699,101.679466 L407.819699,112.609683 L405.175292,112.609683 L404.932888,111.089149 L404.866778,111.089149 C404.396659,111.647415 403.893492,112.084473 403.357262,112.400334 C402.821032,112.716195 402.178301,112.874124 401.429048,112.874124 C400.239059,112.874124 399.375963,112.484812 398.839733,111.706177 C398.303503,110.927542 398.035392,109.847753 398.035392,108.466778 L398.035392,101.679466 Z M411.147245,109.32621 C411.646747,109.708182 412.124205,109.994657 412.579633,110.185643 C413.035061,110.376629 413.497827,110.47212 413.967947,110.47212 C414.452757,110.47212 414.805341,110.39132 415.02571,110.229716 C415.246078,110.068113 415.35626,109.840402 415.35626,109.546578 C415.35626,109.370283 415.293824,109.212355 415.168948,109.072788 C415.044073,108.933221 414.875126,108.804675 414.662104,108.687145 C414.449081,108.569615 414.210352,108.463106 413.94591,108.367613 C413.681468,108.27212 413.409684,108.16561 413.130551,108.04808 C412.792653,107.915859 412.45476,107.761604 412.116861,107.585309 C411.778963,107.409014 411.470452,107.192322 411.191319,106.935225 C410.912186,106.678129 410.684475,106.376963 410.50818,106.03172 C410.331886,105.686476 410.24374,105.286146 410.24374,104.830718 C410.24374,104.331216 410.342904,103.86845 410.541235,103.442404 C410.739567,103.016358 411.022369,102.656429 411.389649,102.362604 C411.75693,102.06878 412.19766,101.837397 412.711853,101.668447 C413.226046,101.499498 413.798995,101.415025 414.430718,101.415025 C415.268118,101.415025 416.002668,101.558262 416.634391,101.844741 C417.266113,102.13122 417.817026,102.450749 418.287145,102.803339 L416.832721,104.742571 C416.436058,104.448746 416.046746,104.221036 415.664775,104.059432 C415.282803,103.897829 414.900837,103.817028 414.518865,103.817028 C413.696156,103.817028 413.284808,104.103503 413.284808,104.676461 C413.284808,104.852755 413.343572,105.003338 413.461102,105.128214 C413.578632,105.253089 413.73656,105.366944 413.934891,105.469783 C414.133223,105.572622 414.360934,105.671786 414.61803,105.767279 C414.875126,105.862772 415.143237,105.961936 415.422371,106.064775 C415.77496,106.196996 416.123871,106.347578 416.469115,106.516528 C416.814359,106.685477 417.130216,106.894823 417.416694,107.144574 C417.703173,107.394325 417.934557,107.699163 418.110851,108.059098 C418.287146,108.419034 418.375292,108.848745 418.375292,109.348247 C418.375292,109.847749 418.279801,110.310515 418.088815,110.736561 C417.897829,111.162606 417.611354,111.533554 417.229382,111.849416 C416.84741,112.165277 416.377298,112.415024 415.819032,112.598664 C415.260765,112.782305 414.614361,112.874124 413.8798,112.874124 C413.15993,112.874124 412.421707,112.734559 411.665109,112.455426 C410.90851,112.176292 410.251088,111.809017 409.692821,111.353589 L411.147245,109.32621 Z" id="About-us" fill="#FFFFFF"></path>
            <path d="M333.876008,211.853088 L569.526159,211.853088" id="Line" stroke="#D7D9D9" stroke-width="3" stroke-linecap="square"></path>
            <path d="M333.876008,211.853088 L508.644993,211.853088" id="Line" stroke="#000000" stroke-width="3" stroke-linecap="square"></path>
            <path d="M334.056761,200.834725 L368.113523,200.834725" id="Line" stroke="#FFFFFF" stroke-width="3" stroke-linecap="square"></path>
            <path d="M557.860768,205.017696 C557.879466,204.596993 557.916861,204.211354 557.972955,203.860768 C558.029049,203.510182 558.107345,203.17713 558.207846,202.861603 C558.308348,202.546075 558.436894,202.24107 558.593489,201.946578 C558.750084,201.652085 558.938229,201.350586 559.15793,201.04207 L556.928214,201.04207 L556.928214,200.54424 L559.810017,200.54424 L559.810017,200.901836 C559.543571,201.238399 559.32738,201.560933 559.161436,201.869449 C558.995492,202.177965 558.86344,202.492319 558.765275,202.812521 C558.667111,203.132723 558.595827,203.471618 558.551419,203.829215 C558.507011,204.186813 558.475459,204.582969 558.456761,205.017696 L557.860768,205.017696 Z M560.560267,204.113189 C560.691153,204.248749 560.846577,204.367946 561.026544,204.470785 C561.206512,204.573623 561.427378,204.625042 561.689149,204.625042 C561.824709,204.625042 561.952086,204.600501 562.071285,204.551419 C562.190485,204.502337 562.29449,204.433389 562.383306,204.344574 C562.472121,204.255759 562.542237,204.148248 562.593656,204.022037 C562.645075,203.895826 562.670785,203.755593 562.670785,203.601336 C562.670785,203.29282 562.584308,203.052088 562.411352,202.879132 C562.238396,202.706176 562.007013,202.619699 561.717195,202.619699 C561.562937,202.619699 561.430885,202.643072 561.321035,202.689816 C561.211185,202.736561 561.088481,202.80434 560.952922,202.893155 L560.644407,202.696828 L560.791653,200.54424 L563.028381,200.54424 L563.028381,201.04207 L561.296494,201.04207 L561.177295,202.367279 C561.284809,202.311185 561.39232,202.266778 561.499833,202.234057 C561.607346,202.201335 561.728881,202.184975 561.864441,202.184975 C562.056094,202.184975 562.236059,202.213021 562.404341,202.269115 C562.572622,202.325209 562.719866,202.410517 562.846077,202.525042 C562.972288,202.639567 563.071619,202.784473 563.144073,202.959766 C563.216528,203.135059 563.252755,203.344239 563.252755,203.587312 C563.252755,203.830385 563.210685,204.045408 563.126544,204.232387 C563.042404,204.419367 562.930218,204.577128 562.789983,204.705676 C562.649749,204.834224 562.48965,204.932387 562.309683,205.000167 C562.129715,205.067947 561.94157,205.101836 561.745242,205.101836 C561.567612,205.101836 561.405176,205.084307 561.25793,205.049249 C561.110684,205.01419 560.977463,204.968615 560.858264,204.912521 C560.739065,204.856427 560.631553,204.792154 560.535726,204.719699 C560.439899,204.647245 560.354591,204.571286 560.2798,204.49182 L560.560267,204.113189 Z M564.879466,203.236728 C564.561601,203.236728 564.308014,203.110519 564.118698,202.858097 C563.929381,202.605675 563.834725,202.245745 563.834725,201.778297 C563.834725,201.315524 563.929381,200.9591 564.118698,200.709015 C564.308014,200.45893 564.561601,200.33389 564.879466,200.33389 C565.192656,200.33389 565.445074,200.45893 565.636728,200.709015 C565.828382,200.9591 565.924207,201.315524 565.924207,201.778297 C565.924207,202.245745 565.828382,202.605675 565.636728,202.858097 C565.445074,203.110519 565.192656,203.236728 564.879466,203.236728 Z M564.879466,202.879132 C565.057096,202.879132 565.202003,202.786812 565.31419,202.60217 C565.426378,202.417528 565.482471,202.142907 565.482471,201.778297 C565.482471,201.413688 565.426378,201.141403 565.31419,200.961436 C565.202003,200.781468 565.057096,200.691486 564.879466,200.691486 C564.697161,200.691486 564.549917,200.781468 564.43773,200.961436 C564.325542,201.141403 564.269449,201.413688 564.269449,201.778297 C564.269449,202.142907 564.325542,202.417528 564.43773,202.60217 C564.549917,202.786812 564.697161,202.879132 564.879466,202.879132 Z M565.005676,205.101836 L567.543907,200.33389 L567.936561,200.33389 L565.398331,205.101836 L565.005676,205.101836 Z M568.083806,205.101836 C567.765942,205.101836 567.512355,204.975627 567.323038,204.723205 C567.133722,204.470783 567.039065,204.110854 567.039065,203.643406 C567.039065,203.180632 567.133722,202.824208 567.323038,202.574124 C567.512355,202.324039 567.765942,202.198998 568.083806,202.198998 C568.396997,202.198998 568.649415,202.324039 568.841068,202.574124 C569.032722,202.824208 569.128548,203.180632 569.128548,203.643406 C569.128548,204.110854 569.032722,204.470783 568.841068,204.723205 C568.649415,204.975627 568.396997,205.101836 568.083806,205.101836 Z M568.083806,204.74424 C568.261437,204.74424 568.406343,204.651921 568.518531,204.467279 C568.630718,204.282637 568.686811,204.008015 568.686811,203.643406 C568.686811,203.278796 568.630718,203.006512 568.518531,202.826544 C568.406343,202.646577 568.261437,202.556594 568.083806,202.556594 C567.901502,202.556594 567.754258,202.646577 567.64207,202.826544 C567.529883,203.006512 567.47379,203.278796 567.47379,203.643406 C567.47379,204.008015 567.529883,204.282637 567.64207,204.467279 C567.754258,204.651921 567.901502,204.74424 568.083806,204.74424 Z" id="75%" fill="#FFFFFF"></path>
            <path d="M333.876008,238.898164 L569.526159,238.898164" id="Line" stroke="#D7D9D9" stroke-width="3" stroke-linecap="square"></path>
            <path d="M333.876008,238.898164 L508.644993,238.898164" id="Line" stroke="#000000" stroke-width="3" stroke-linecap="square"></path>
            <path d="M334.056761,227.8798 L368.113523,227.8798" id="Line" stroke="#FFFFFF" stroke-width="3" stroke-linecap="square"></path>
            <path d="M557.860768,232.062771 C557.879466,231.642068 557.916861,231.256429 557.972955,230.905843 C558.029049,230.555257 558.107345,230.222205 558.207846,229.906678 C558.308348,229.59115 558.436894,229.286145 558.593489,228.991653 C558.750084,228.69716 558.938229,228.395661 559.15793,228.087145 L556.928214,228.087145 L556.928214,227.589316 L559.810017,227.589316 L559.810017,227.946912 C559.543571,228.283474 559.32738,228.606008 559.161436,228.914524 C558.995492,229.22304 558.86344,229.537394 558.765275,229.857596 C558.667111,230.177798 558.595827,230.516693 558.551419,230.87429 C558.507011,231.231888 558.475459,231.628045 558.456761,232.062771 L557.860768,232.062771 Z M560.560267,231.158264 C560.691153,231.293824 560.846577,231.413021 561.026544,231.51586 C561.206512,231.618698 561.427378,231.670117 561.689149,231.670117 C561.824709,231.670117 561.952086,231.645576 562.071285,231.596494 C562.190485,231.547412 562.29449,231.478465 562.383306,231.389649 C562.472121,231.300834 562.542237,231.193323 562.593656,231.067112 C562.645075,230.940901 562.670785,230.800669 562.670785,230.646411 C562.670785,230.337895 562.584308,230.097163 562.411352,229.924207 C562.238396,229.751251 562.007013,229.664775 561.717195,229.664775 C561.562937,229.664775 561.430885,229.688147 561.321035,229.734891 C561.211185,229.781636 561.088481,229.849415 560.952922,229.93823 L560.644407,229.741903 L560.791653,227.589316 L563.028381,227.589316 L563.028381,228.087145 L561.296494,228.087145 L561.177295,229.412354 C561.284809,229.35626 561.39232,229.311853 561.499833,229.279132 C561.607346,229.246411 561.728881,229.23005 561.864441,229.23005 C562.056094,229.23005 562.236059,229.258097 562.404341,229.31419 C562.572622,229.370284 562.719866,229.455592 562.846077,229.570117 C562.972288,229.684642 563.071619,229.829548 563.144073,230.004841 C563.216528,230.180134 563.252755,230.389314 563.252755,230.632387 C563.252755,230.87546 563.210685,231.090483 563.126544,231.277462 C563.042404,231.464442 562.930218,231.622203 562.789983,231.750751 C562.649749,231.879299 562.48965,231.977462 562.309683,232.045242 C562.129715,232.113022 561.94157,232.146912 561.745242,232.146912 C561.567612,232.146912 561.405176,232.129382 561.25793,232.094324 C561.110684,232.059265 560.977463,232.01369 560.858264,231.957596 C560.739065,231.901502 560.631553,231.837229 560.535726,231.764775 C560.439899,231.69232 560.354591,231.616361 560.2798,231.536895 L560.560267,231.158264 Z M564.879466,230.281803 C564.561601,230.281803 564.308014,230.155594 564.118698,229.903172 C563.929381,229.65075 563.834725,229.29082 563.834725,228.823372 C563.834725,228.360599 563.929381,228.004175 564.118698,227.75409 C564.308014,227.504005 564.561601,227.378965 564.879466,227.378965 C565.192656,227.378965 565.445074,227.504005 565.636728,227.75409 C565.828382,228.004175 565.924207,228.360599 565.924207,228.823372 C565.924207,229.29082 565.828382,229.65075 565.636728,229.903172 C565.445074,230.155594 565.192656,230.281803 564.879466,230.281803 Z M564.879466,229.924207 C565.057096,229.924207 565.202003,229.831887 565.31419,229.647245 C565.426378,229.462603 565.482471,229.187982 565.482471,228.823372 C565.482471,228.458763 565.426378,228.186478 565.31419,228.006511 C565.202003,227.826543 565.057096,227.736561 564.879466,227.736561 C564.697161,227.736561 564.549917,227.826543 564.43773,228.006511 C564.325542,228.186478 564.269449,228.458763 564.269449,228.823372 C564.269449,229.187982 564.325542,229.462603 564.43773,229.647245 C564.549917,229.831887 564.697161,229.924207 564.879466,229.924207 Z M565.005676,232.146912 L567.543907,227.378965 L567.936561,227.378965 L565.398331,232.146912 L565.005676,232.146912 Z M568.083806,232.146912 C567.765942,232.146912 567.512355,232.020702 567.323038,231.76828 C567.133722,231.515859 567.039065,231.155929 567.039065,230.688481 C567.039065,230.225707 567.133722,229.869283 567.323038,229.619199 C567.512355,229.369114 567.765942,229.244073 568.083806,229.244073 C568.396997,229.244073 568.649415,229.369114 568.841068,229.619199 C569.032722,229.869283 569.128548,230.225707 569.128548,230.688481 C569.128548,231.155929 569.032722,231.515859 568.841068,231.76828 C568.649415,232.020702 568.396997,232.146912 568.083806,232.146912 Z M568.083806,231.789316 C568.261437,231.789316 568.406343,231.696996 568.518531,231.512354 C568.630718,231.327712 568.686811,231.05309 568.686811,230.688481 C568.686811,230.323871 568.630718,230.051587 568.518531,229.871619 C568.406343,229.691652 568.261437,229.601669 568.083806,229.601669 C567.901502,229.601669 567.754258,229.691652 567.64207,229.871619 C567.529883,230.051587 567.47379,230.323871 567.47379,230.688481 C567.47379,231.05309 567.529883,231.327712 567.64207,231.512354 C567.754258,231.696996 567.901502,231.789316 568.083806,231.789316 Z" id="75%" fill="#FFFFFF"></path>
            <path d="M333.876008,265.943239 L569.526159,265.943239" id="Line" stroke="#D7D9D9" stroke-width="3" stroke-linecap="square"></path>
            <path d="M333.876008,265.943239 L508.644993,265.943239" id="Line" stroke="#000000" stroke-width="3" stroke-linecap="square"></path>
            <path d="M334.056761,254.924875 L368.113523,254.924875" id="Line" stroke="#FFFFFF" stroke-width="3" stroke-linecap="square"></path>
            <path d="M558.470785,258.736227 C558.582972,258.736227 558.685809,258.712855 558.779299,258.66611 C558.872788,258.619365 558.954591,258.552755 559.024708,258.466277 C559.094825,258.379799 559.149749,258.276962 559.189482,258.157763 C559.229216,258.038564 559.249082,257.904174 559.249082,257.754591 C559.249082,257.460099 559.181303,257.228715 559.045743,257.060434 C558.910183,256.892153 558.702172,256.808013 558.421703,256.808013 C558.281468,256.808013 558.128381,256.853589 557.962437,256.944741 C557.796493,257.035894 557.638732,257.186643 557.489149,257.396995 C557.526544,257.836396 557.628213,258.169448 557.794157,258.39616 C557.960101,258.622873 558.185641,258.736227 558.470785,258.736227 Z M559.389316,255.384641 C559.295826,255.277128 559.184809,255.19182 559.05626,255.128715 C558.927712,255.065609 558.793323,255.034057 558.653088,255.034057 C558.498831,255.034057 558.351587,255.066778 558.211352,255.13222 C558.071118,255.197663 557.947246,255.305175 557.839733,255.454758 C557.73222,255.604341 557.645743,255.799498 557.580301,256.040234 C557.514858,256.280969 557.4798,256.578963 557.475125,256.934224 C557.61536,256.761268 557.778964,256.624541 557.965943,256.52404 C558.152922,256.423539 558.337562,256.373289 558.519866,256.373289 C558.907848,256.373289 559.217528,256.487812 559.448915,256.716861 C559.680302,256.945911 559.795993,257.291817 559.795993,257.754591 C559.795993,257.969617 559.760935,258.164774 559.690818,258.340067 C559.620701,258.51536 559.524875,258.66611 559.403339,258.792321 C559.281802,258.918532 559.14157,259.016694 558.982638,259.086811 C558.823705,259.156929 558.653089,259.191987 558.470785,259.191987 C558.251084,259.191987 558.047747,259.14758 557.860768,259.058765 C557.673789,258.969949 557.511353,258.83556 557.373456,258.655593 C557.235559,258.475625 557.126879,258.251253 557.047412,257.982471 C556.967946,257.713688 556.928214,257.399334 556.928214,257.039399 C556.928214,256.590649 556.974958,256.208516 557.068447,255.892988 C557.161937,255.577461 557.288146,255.320368 557.447078,255.121703 C557.606011,254.923037 557.787144,254.778131 557.990484,254.686978 C558.193824,254.595826 558.407678,254.55025 558.632053,254.55025 C558.875126,254.55025 559.084306,254.595826 559.259599,254.686978 C559.434892,254.778131 559.585642,254.891485 559.711853,255.027045 L559.389316,255.384641 Z M560.53222,258.203339 C560.663106,258.338899 560.81853,258.458096 560.998497,258.560935 C561.178465,258.663773 561.399331,258.715192 561.661102,258.715192 C561.796662,258.715192 561.924039,258.690651 562.043239,258.641569 C562.162438,258.592487 562.266444,258.52354 562.355259,258.434725 C562.444074,258.345909 562.51419,258.238398 562.565609,258.112187 C562.617029,257.985976 562.642738,257.845744 562.642738,257.691486 C562.642738,257.38297 562.556261,257.142238 562.383306,256.969282 C562.21035,256.796326 561.978966,256.70985 561.689149,256.70985 C561.534891,256.70985 561.402839,256.733222 561.292988,256.779967 C561.183138,256.826711 561.060435,256.89449 560.924875,256.983306 L560.616361,256.786978 L560.763606,254.634391 L563.000334,254.634391 L563.000334,255.13222 L561.268447,255.13222 L561.149249,256.457429 C561.256762,256.401335 561.364273,256.356928 561.471786,256.324207 C561.579299,256.291486 561.700834,256.275125 561.836394,256.275125 C562.028048,256.275125 562.208013,256.303172 562.376294,256.359265 C562.544575,256.415359 562.691819,256.500667 562.81803,256.615192 C562.944241,256.729717 563.043572,256.874623 563.116027,257.049917 C563.188481,257.22521 563.224708,257.434389 563.224708,257.677462 C563.224708,257.920535 563.182638,258.135558 563.098497,258.322538 C563.014357,258.509517 562.902171,258.667278 562.761937,258.795826 C562.621702,258.924375 562.461604,259.022537 562.281636,259.090317 C562.101669,259.158097 561.913524,259.191987 561.717195,259.191987 C561.539565,259.191987 561.377129,259.174458 561.229883,259.139399 C561.082637,259.10434 560.949416,259.058765 560.830217,259.002671 C560.711018,258.946577 560.603506,258.882304 560.507679,258.80985 C560.411853,258.737395 560.326545,258.661436 560.251753,258.58197 L560.53222,258.203339 Z M564.851419,257.326878 C564.533554,257.326878 564.279968,257.200669 564.090651,256.948247 C563.901335,256.695825 563.806678,256.335895 563.806678,255.868447 C563.806678,255.405674 563.901335,255.04925 564.090651,254.799165 C564.279968,254.549081 564.533554,254.42404 564.851419,254.42404 C565.164609,254.42404 565.417027,254.549081 565.608681,254.799165 C565.800335,255.04925 565.89616,255.405674 565.89616,255.868447 C565.89616,256.335895 565.800335,256.695825 565.608681,256.948247 C565.417027,257.200669 565.164609,257.326878 564.851419,257.326878 Z M564.851419,256.969282 C565.029049,256.969282 565.173956,256.876963 565.286144,256.692321 C565.398331,256.507679 565.454424,256.233057 565.454424,255.868447 C565.454424,255.503838 565.398331,255.231553 565.286144,255.051586 C565.173956,254.871618 565.029049,254.781636 564.851419,254.781636 C564.669114,254.781636 564.52187,254.871618 564.409683,255.051586 C564.297495,255.231553 564.241402,255.503838 564.241402,255.868447 C564.241402,256.233057 564.297495,256.507679 564.409683,256.692321 C564.52187,256.876963 564.669114,256.969282 564.851419,256.969282 Z M564.977629,259.191987 L567.51586,254.42404 L567.908514,254.42404 L565.370284,259.191987 L564.977629,259.191987 Z M568.05576,259.191987 C567.737895,259.191987 567.484308,259.065778 567.294992,258.813356 C567.105675,258.560934 567.011018,258.201004 567.011018,257.733556 C567.011018,257.270782 567.105675,256.914359 567.294992,256.664274 C567.484308,256.414189 567.737895,256.289149 568.05576,256.289149 C568.36895,256.289149 568.621368,256.414189 568.813022,256.664274 C569.004675,256.914359 569.100501,257.270782 569.100501,257.733556 C569.100501,258.201004 569.004675,258.560934 568.813022,258.813356 C568.621368,259.065778 568.36895,259.191987 568.05576,259.191987 Z M568.05576,258.834391 C568.23339,258.834391 568.378297,258.742071 568.490484,258.557429 C568.602672,258.372787 568.658765,258.098165 568.658765,257.733556 C568.658765,257.368946 568.602672,257.096662 568.490484,256.916694 C568.378297,256.736727 568.23339,256.646745 568.05576,256.646745 C567.873455,256.646745 567.726211,256.736727 567.614023,256.916694 C567.501836,257.096662 567.445743,257.368946 567.445743,257.733556 C567.445743,258.098165 567.501836,258.372787 567.614023,258.557429 C567.726211,258.742071 567.873455,258.834391 568.05576,258.834391 Z" id="65%" fill="#FFFFFF"></path>
            <path d="M332.053422,137.228715 L537.434745,137.228715" id="Line" stroke="#FFFFFF" stroke-width="4" stroke-linecap="square"></path>
            <path d="M332.053422,151.252087 L537.434745,151.252087" id="Line" stroke="#FFFFFF" stroke-width="4" stroke-linecap="square"></path>
            <path d="M332.053422,164.27379 L462.805821,164.27379" id="Line" stroke="#FFFFFF" stroke-width="4" stroke-linecap="square"></path>
        </g>
    </g>
</svg>