<?xml version="1.0" encoding="UTF-8"?>
<svg width="600px" height="284px" viewBox="0 0 600 284" version="1.1" xmlns="http://www.w3.org/2000/svg" xmlns:xlink="http://www.w3.org/1999/xlink">
    <!-- Generator: Sketch 44.1 (41455) - http://www.bohemiancoding.com/sketch -->
    <title>charts05</title>
    <desc>Created with Sketch.</desc>
    <defs></defs>
    <g id="Charts" stroke="none" stroke-width="1" fill="none" fill-rule="evenodd">
        <g id="05">
            <rect id="Rectangle-7" fill="#F8F8F8" x="0" y="0" width="600" height="283.472454"></rect>
            <path d="M229.152922,51.0891486 L238.621703,51.0891486 L238.621703,53.9459098 L232.539566,53.9459098 L232.539566,57.4247078 L237.746244,57.4247078 L237.746244,60.2814691 L232.539566,60.2814691 L232.539566,66.1101836 L229.152922,66.1101836 L229.152922,51.0891486 Z M239.658431,62.9308848 C239.658431,61.7328822 240.16527,60.7959967 241.178965,60.1202003 C242.192659,59.444404 243.828369,58.99132 246.086144,58.7609349 C246.055426,58.2540876 245.901838,57.8509197 245.625376,57.551419 C245.348913,57.2519184 244.903509,57.1021703 244.289149,57.1021703 C243.79766,57.1021703 243.306179,57.194323 242.814691,57.3786311 C242.323203,57.5629392 241.801004,57.816359 241.24808,58.1388982 L240.050083,55.9041736 C240.787316,55.4587624 241.559094,55.0978311 242.365442,54.8213689 C243.17179,54.5449068 244.028042,54.4066778 244.934224,54.4066778 C246.408689,54.4066778 247.533719,54.8252045 248.309349,55.6622705 C249.084979,56.4993364 249.472788,57.8009928 249.472788,59.5672788 L249.472788,66.1101836 L246.70818,66.1101836 L246.454758,64.9352254 L246.385643,64.9352254 C245.894154,65.3652776 245.375796,65.7146898 244.830551,65.9834725 C244.285306,66.2522551 243.690153,66.3866444 243.045075,66.3866444 C242.522869,66.3866444 242.054426,66.2983314 241.639733,66.1217028 C241.22504,65.9450742 240.871788,65.6993338 240.579967,65.3844741 C240.288145,65.0696145 240.061603,64.7048435 239.900334,64.2901503 C239.739064,63.875457 239.658431,63.4223731 239.658431,62.9308848 Z M242.883806,62.6774624 C242.883806,63.0460786 243.002837,63.3186969 243.240902,63.4953255 C243.478966,63.6719541 243.797661,63.7602671 244.196995,63.7602671 C244.596329,63.7602671 244.934222,63.6757938 245.210684,63.5068447 C245.487147,63.3378956 245.778963,63.0998346 246.086144,62.7926544 L246.086144,60.7883139 C244.872782,60.9572629 244.035729,61.2030034 243.574958,61.5255426 C243.114188,61.8480817 242.883806,62.2320512 242.883806,62.6774624 Z M251.707513,60.3966611 C251.707513,59.4444026 251.86878,58.5958301 252.191319,57.8509182 C252.513858,57.1060063 252.947744,56.4801361 253.492988,55.9732888 C254.038233,55.4664415 254.671783,55.0786324 255.393656,54.8098497 C256.115529,54.5410671 256.86811,54.4066778 257.651419,54.4066778 C258.357933,54.4066778 258.995323,54.5257083 259.563606,54.763773 C260.131889,55.0018376 260.608011,55.3205322 260.991987,55.7198664 L259.448414,57.8163606 C258.910849,57.3709494 258.380971,57.1482471 257.858765,57.1482471 C257.029378,57.1482471 256.37663,57.4400639 255.900501,58.0237062 C255.424372,58.6073485 255.186311,59.3983256 255.186311,60.3966611 C255.186311,61.3949966 255.428211,62.1859737 255.91202,62.769616 C256.395829,63.3532583 257.00634,63.6450751 257.743573,63.6450751 C258.158266,63.6450751 258.534556,63.5606018 258.872454,63.3916528 C259.210352,63.2227037 259.517528,63.0307189 259.79399,62.8156928 L261.153255,64.9582638 C260.600331,65.449752 259.98598,65.8106833 259.310184,66.0410684 C258.634387,66.2714536 257.981639,66.3866444 257.35192,66.3866444 C256.553251,66.3866444 255.81219,66.2522551 255.128715,65.9834725 C254.445239,65.7146898 253.850086,65.3268807 253.343239,64.8200334 C252.836391,64.3131861 252.437063,63.6873159 252.145242,62.942404 C251.853421,62.1974921 251.707513,61.3489196 251.707513,60.3966611 Z M263.595326,57.3325543 L262.028715,57.3325543 L262.028715,54.8213689 L263.779633,54.6831386 L264.171285,51.6420701 L266.98197,51.6420701 L266.98197,54.6831386 L269.723539,54.6831386 L269.723539,57.3325543 L266.98197,57.3325543 L266.98197,61.9171953 C266.98197,62.5622737 267.116359,63.0268767 267.385142,63.3110184 C267.653925,63.59516 268.011016,63.7372287 268.456427,63.7372287 C268.640735,63.7372287 268.828881,63.7141905 269.020868,63.6681135 C269.212856,63.6220365 269.385642,63.5682808 269.539232,63.5068447 L270.069115,65.9719533 C269.761935,66.0641073 269.401004,66.15626 268.986311,66.248414 C268.571617,66.3405681 268.087816,66.3866444 267.534891,66.3866444 C266.828377,66.3866444 266.225545,66.279133 265.726377,66.0641068 C265.22721,65.8490807 264.820202,65.5495846 264.505342,65.1656093 C264.190483,64.7816341 263.960101,64.3170311 263.81419,63.7717863 C263.66828,63.2265415 263.595326,62.6237095 263.595326,61.9632721 L263.595326,57.3325543 Z M272.465109,62.6774624 C272.987315,63.0767967 273.486475,63.3762928 273.962604,63.5759599 C274.438734,63.775627 274.922535,63.8754591 275.414023,63.8754591 C275.920871,63.8754591 276.289481,63.7909858 276.519866,63.6220367 C276.750252,63.4530876 276.865442,63.2150266 276.865442,62.9078464 C276.865442,62.7235383 276.800168,62.5584314 276.669616,62.4125209 C276.539064,62.2666103 276.362439,62.132221 276.139733,62.0093489 C275.917027,61.8864768 275.667447,61.7751257 275.390985,61.6752922 C275.114523,61.5754586 274.830385,61.4641075 274.538564,61.3412354 C274.185307,61.2030043 273.832055,61.0417371 273.478798,60.857429 C273.125541,60.6731209 272.803006,60.446579 272.511185,60.1777963 C272.219364,59.9090137 271.981303,59.5941587 271.796995,59.233222 C271.612687,58.8722853 271.520534,58.4537586 271.520534,57.9776294 C271.520534,57.4554231 271.624206,56.9716216 271.831553,56.5262104 C272.038899,56.0807991 272.334556,55.704509 272.718531,55.3973289 C273.102506,55.0901487 273.563269,54.848248 274.100835,54.6716194 C274.6384,54.4949908 275.237392,54.4066778 275.89783,54.4066778 C276.773293,54.4066778 277.541232,54.5564259 278.201669,54.8559265 C278.862107,55.1554272 279.438061,55.4894806 279.929549,55.8580968 L278.409015,57.8854758 C277.994322,57.5782956 277.587314,57.3402346 277.18798,57.1712855 C276.788646,57.0023364 276.389318,56.9178631 275.989983,56.9178631 C275.129879,56.9178631 274.699833,57.2173593 274.699833,57.8163606 C274.699833,58.0006687 274.761268,58.1580962 274.88414,58.2886477 C275.007012,58.4191993 275.172119,58.5382298 275.379466,58.6457429 C275.586812,58.753256 275.824873,58.8569277 276.093656,58.9567613 C276.362439,59.0565948 276.642736,59.1602666 276.934558,59.2677796 C277.303174,59.4060107 277.667945,59.5634382 278.028881,59.7400668 C278.389818,59.9166954 278.720032,60.135558 279.019533,60.3966611 C279.319033,60.6577642 279.560934,60.9764589 279.745242,61.3527546 C279.92955,61.7290503 280.021703,62.1782946 280.021703,62.7005008 C280.021703,63.2227071 279.921871,63.7065086 279.722204,64.1519199 C279.522537,64.5973311 279.22304,64.9851403 278.823706,65.3153589 C278.424372,65.6455776 277.932891,65.9066768 277.349249,66.0986644 C276.765606,66.290652 276.08982,66.3866444 275.32187,66.3866444 C274.569278,66.3866444 273.7975,66.240736 273.006511,65.9489149 C272.215522,65.6570937 271.528217,65.2731243 270.944574,64.796995 L272.465109,62.6774624 Z M286.541569,62.9308848 C286.541569,61.7328822 287.048409,60.7959967 288.062104,60.1202003 C289.075798,59.444404 290.711508,58.99132 292.969282,58.7609349 C292.938564,58.2540876 292.784976,57.8509197 292.508514,57.551419 C292.232052,57.2519184 291.786647,57.1021703 291.172287,57.1021703 C290.680799,57.1021703 290.189318,57.194323 289.69783,57.3786311 C289.206341,57.5629392 288.684143,57.816359 288.131219,58.1388982 L286.933222,55.9041736 C287.670454,55.4587624 288.442233,55.0978311 289.248581,54.8213689 C290.054929,54.5449068 290.911181,54.4066778 291.817362,54.4066778 C293.291827,54.4066778 294.416858,54.8252045 295.192487,55.6622705 C295.968117,56.4993364 296.355927,57.8009928 296.355927,59.5672788 L296.355927,66.1101836 L293.591319,66.1101836 L293.337896,64.9352254 L293.268781,64.9352254 C292.777293,65.3652776 292.258934,65.7146898 291.713689,65.9834725 C291.168445,66.2522551 290.573292,66.3866444 289.928214,66.3866444 C289.406007,66.3866444 288.937565,66.2983314 288.522871,66.1217028 C288.108178,65.9450742 287.754926,65.6993338 287.463105,65.3844741 C287.171284,65.0696145 286.944742,64.7048435 286.783472,64.2901503 C286.622203,63.875457 286.541569,63.4223731 286.541569,62.9308848 Z M289.766945,62.6774624 C289.766945,63.0460786 289.885975,63.3186969 290.12404,63.4953255 C290.362105,63.6719541 290.680799,63.7602671 291.080134,63.7602671 C291.479468,63.7602671 291.817361,63.6757938 292.093823,63.5068447 C292.370285,63.3378956 292.662102,63.0998346 292.969282,62.7926544 L292.969282,60.7883139 C291.75592,60.9572629 290.918867,61.2030034 290.458097,61.5255426 C289.997327,61.8480817 289.766945,62.2320512 289.766945,62.6774624 Z M299.258765,49.9602671 L302.645409,49.9602671 L302.645409,53.9228715 L302.553255,55.6737896 C302.998667,55.2744554 303.478628,54.9634402 303.993155,54.7407346 C304.507682,54.5180289 305.03372,54.4066778 305.571285,54.4066778 C306.262441,54.4066778 306.884471,54.5449068 307.437396,54.8213689 C307.99032,55.0978311 308.462602,55.4856402 308.854257,55.984808 C309.245912,56.4839758 309.545408,57.0906475 309.752755,57.8048414 C309.960101,58.5190353 310.063773,59.3138521 310.063773,60.1893155 C310.063773,61.1722921 309.929384,62.0477424 309.660601,62.8156928 C309.391818,63.5836432 309.030887,64.2325516 308.577796,64.7624374 C308.124706,65.2923232 307.610187,65.6954911 307.034224,65.9719533 C306.458261,66.2484154 305.863108,66.3866444 305.248748,66.3866444 C304.741901,66.3866444 304.231221,66.2637742 303.716694,66.0180301 C303.202168,65.7722859 302.722206,65.4036752 302.276795,64.912187 L302.184641,64.912187 L301.90818,66.1101836 L299.258765,66.1101836 L299.258765,49.9602671 Z M302.645409,62.884808 C302.952589,63.1612702 303.259765,63.3532549 303.566945,63.4607679 C303.874125,63.568281 304.173621,63.6220367 304.465442,63.6220367 C305.049085,63.6220367 305.548245,63.3570978 305.962938,62.827212 C306.377631,62.2973262 306.584975,61.4410744 306.584975,60.2584307 C306.584975,58.2003236 305.924548,57.1712855 304.603673,57.1712855 C303.927876,57.1712855 303.275128,57.516858 302.645409,58.2080134 L302.645409,62.884808 Z M311.791653,60.3966611 C311.791653,59.4444026 311.945241,58.5958301 312.252421,57.8509182 C312.559601,57.1060063 312.970448,56.4801361 313.484975,55.9732888 C313.999502,55.4664415 314.594654,55.0786324 315.270451,54.8098497 C315.946247,54.5410671 316.645072,54.4066778 317.366945,54.4066778 C318.088818,54.4066778 318.783803,54.5410671 319.45192,54.8098497 C320.120037,55.0786324 320.71135,55.4664415 321.225876,55.9732888 C321.740403,56.4801361 322.151251,57.1060063 322.458431,57.8509182 C322.765611,58.5958301 322.919199,59.4444026 322.919199,60.3966611 C322.919199,61.3489196 322.765611,62.1974921 322.458431,62.942404 C322.151251,63.6873159 321.740403,64.3131861 321.225876,64.8200334 C320.71135,65.3268807 320.120037,65.7146898 319.45192,65.9834725 C318.783803,66.2522551 318.088818,66.3866444 317.366945,66.3866444 C316.645072,66.3866444 315.946247,66.2522551 315.270451,65.9834725 C314.594654,65.7146898 313.999502,65.3268807 313.484975,64.8200334 C312.970448,64.3131861 312.559601,63.6873159 312.252421,62.942404 C311.945241,62.1974921 311.791653,61.3489196 311.791653,60.3966611 Z M315.270451,60.3966611 C315.270451,61.3949966 315.443237,62.1859737 315.788815,62.769616 C316.134392,63.3532583 316.660431,63.6450751 317.366945,63.6450751 C318.0581,63.6450751 318.580299,63.3532583 318.933556,62.769616 C319.286813,62.1859737 319.463439,61.3949966 319.463439,60.3966611 C319.463439,59.3983256 319.286813,58.6073485 318.933556,58.0237062 C318.580299,57.4400639 318.0581,57.1482471 317.366945,57.1482471 C316.660431,57.1482471 316.134392,57.4400639 315.788815,58.0237062 C315.443237,58.6073485 315.270451,59.3983256 315.270451,60.3966611 Z M325.130885,54.6831386 L328.517529,54.6831386 L328.517529,61.3412354 C328.517529,62.1706218 328.63272,62.7388966 328.863105,63.0460768 C329.09349,63.353257 329.454422,63.5068447 329.94591,63.5068447 C330.375962,63.5068447 330.736893,63.4070127 331.028715,63.2073456 C331.320536,63.0076785 331.635391,62.6851441 331.973289,62.2397329 L331.973289,54.6831386 L335.359933,54.6831386 L335.359933,66.1101836 L332.595326,66.1101836 L332.341903,64.5205342 L332.272788,64.5205342 C331.7813,65.1041765 331.255262,65.5611002 330.694658,65.8913189 C330.134054,66.2215375 329.462107,66.3866444 328.678798,66.3866444 C327.434718,66.3866444 326.53239,65.9796368 325.971786,65.1656093 C325.411183,64.3515819 325.130885,63.2227117 325.130885,61.7789649 L325.130885,54.6831386 Z M338.792654,57.3325543 L337.226043,57.3325543 L337.226043,54.8213689 L338.976962,54.6831386 L339.368614,51.6420701 L342.179299,51.6420701 L342.179299,54.6831386 L344.920868,54.6831386 L344.920868,57.3325543 L342.179299,57.3325543 L342.179299,61.9171953 C342.179299,62.5622737 342.313688,63.0268767 342.582471,63.3110184 C342.851253,63.59516 343.208345,63.7372287 343.653756,63.7372287 C343.838064,63.7372287 344.026209,63.7141905 344.218197,63.6681135 C344.410185,63.6220365 344.582971,63.5682808 344.736561,63.5068447 L345.266444,65.9719533 C344.959264,66.0641073 344.598333,66.15626 344.183639,66.248414 C343.768946,66.3405681 343.285145,66.3866444 342.73222,66.3866444 C342.025706,66.3866444 341.422874,66.279133 340.923706,66.0641068 C340.424538,65.8490807 340.017531,65.5495846 339.702671,65.1656093 C339.387811,64.7816341 339.15743,64.3170311 339.011519,63.7717863 C338.865609,63.2265415 338.792654,62.6237095 338.792654,61.9632721 L338.792654,57.3325543 Z M351.832387,54.6831386 L355.219032,54.6831386 L355.219032,61.3412354 C355.219032,62.1706218 355.334223,62.7388966 355.564608,63.0460768 C355.794993,63.353257 356.155924,63.5068447 356.647412,63.5068447 C357.077465,63.5068447 357.438396,63.4070127 357.730217,63.2073456 C358.022038,63.0076785 358.336893,62.6851441 358.674791,62.2397329 L358.674791,54.6831386 L362.061436,54.6831386 L362.061436,66.1101836 L359.296828,66.1101836 L359.043406,64.5205342 L358.97429,64.5205342 C358.482802,65.1041765 357.956764,65.5611002 357.39616,65.8913189 C356.835556,66.2215375 356.16361,66.3866444 355.380301,66.3866444 C354.136221,66.3866444 353.233893,65.9796368 352.673289,65.1656093 C352.112685,64.3515819 351.832387,63.2227117 351.832387,61.7789649 L351.832387,54.6831386 Z M365.540234,62.6774624 C366.06244,63.0767967 366.5616,63.3762928 367.03773,63.5759599 C367.513859,63.775627 367.99766,63.8754591 368.489149,63.8754591 C368.995996,63.8754591 369.364607,63.7909858 369.594992,63.6220367 C369.825377,63.4530876 369.940568,63.2150266 369.940568,62.9078464 C369.940568,62.7235383 369.875293,62.5584314 369.744741,62.4125209 C369.61419,62.2666103 369.437564,62.132221 369.214858,62.0093489 C368.992152,61.8864768 368.742572,61.7751257 368.46611,61.6752922 C368.189648,61.5754586 367.905511,61.4641075 367.613689,61.3412354 C367.260432,61.2030043 366.90718,61.0417371 366.553923,60.857429 C366.200666,60.6731209 365.878132,60.446579 365.586311,60.1777963 C365.294489,59.9090137 365.056428,59.5941587 364.87212,59.233222 C364.687812,58.8722853 364.595659,58.4537586 364.595659,57.9776294 C364.595659,57.4554231 364.699331,56.9716216 364.906678,56.5262104 C365.114024,56.0807991 365.409681,55.704509 365.793656,55.3973289 C366.177631,55.0901487 366.638395,54.848248 367.17596,54.6716194 C367.713525,54.4949908 368.312518,54.4066778 368.972955,54.4066778 C369.848418,54.4066778 370.616357,54.5564259 371.276795,54.8559265 C371.937232,55.1554272 372.513186,55.4894806 373.004674,55.8580968 L371.48414,57.8854758 C371.069447,57.5782956 370.662439,57.3402346 370.263105,57.1712855 C369.863771,57.0023364 369.464443,56.9178631 369.065109,56.9178631 C368.205004,56.9178631 367.774958,57.2173593 367.774958,57.8163606 C367.774958,58.0006687 367.836393,58.1580962 367.959265,58.2886477 C368.082138,58.4191993 368.247244,58.5382298 368.454591,58.6457429 C368.661938,58.753256 368.899999,58.8569277 369.168781,58.9567613 C369.437564,59.0565948 369.717862,59.1602666 370.009683,59.2677796 C370.378299,59.4060107 370.74307,59.5634382 371.104007,59.7400668 C371.464943,59.9166954 371.795157,60.135558 372.094658,60.3966611 C372.394158,60.6577642 372.636059,60.9764589 372.820367,61.3527546 C373.004675,61.7290503 373.096828,62.1782946 373.096828,62.7005008 C373.096828,63.2227071 372.996996,63.7065086 372.797329,64.1519199 C372.597662,64.5973311 372.298166,64.9851403 371.898831,65.3153589 C371.499497,65.6455776 371.008016,65.9066768 370.424374,66.0986644 C369.840732,66.290652 369.164945,66.3866444 368.396995,66.3866444 C367.644404,66.3866444 366.872625,66.240736 366.081636,65.9489149 C365.290647,65.6570937 364.603342,65.2731243 364.019699,64.796995 L365.540234,62.6774624 Z" id="Facts-about-us" fill="#79797B"></path>
            <g id="Group-2" transform="translate(42.070117, 106.176962)">
                <circle id="Oval-3" stroke="#4990E2" stroke-width="2" cx="44.0734558" cy="44.0734558" r="44.0734558"></circle>
                <path d="M22.0367279,49.081803 L24.9616027,49.081803 L24.9616027,39.6661102 L22.6377295,39.6661102 L22.6377295,38.6043406 C23.2253786,38.4974953 23.7362249,38.3672796 24.1702838,38.2136895 C24.6043427,38.0600994 24.9949899,37.8764618 25.3422371,37.6627713 L26.6043406,37.6627713 L26.6043406,49.081803 L29.2487479,49.081803 L29.2487479,50.4440735 L22.0367279,50.4440735 L22.0367279,49.081803 Z M35.3989983,50.6844741 C34.1034994,50.6844741 33.0951622,50.1101894 32.3739566,48.9616027 C31.652751,47.813016 31.2921536,46.1636168 31.2921536,44.0133556 C31.2921536,41.8630944 31.652751,40.2270507 32.3739566,39.1051753 C33.0951622,37.9832999 34.1034994,37.4223706 35.3989983,37.4223706 C36.6811416,37.4223706 37.6828011,37.9832999 38.4040067,39.1051753 C39.1252123,40.2270507 39.4858097,41.8630944 39.4858097,44.0133556 C39.4858097,46.1636168 39.1252123,47.813016 38.4040067,48.9616027 C37.6828011,50.1101894 36.6811416,50.6844741 35.3989983,50.6844741 Z M35.3989983,49.3622705 C35.7729568,49.3622705 36.1101821,49.2587656 36.4106845,49.0517529 C36.7111868,48.8447402 36.9716183,48.5242092 37.1919866,48.0901503 C37.412355,47.6560913 37.5826371,47.1018398 37.7028381,46.427379 C37.823039,45.7529182 37.8831386,44.9482518 37.8831386,44.0133556 C37.8831386,43.0784594 37.823039,42.2771319 37.7028381,41.6093489 C37.5826371,40.9415659 37.412355,40.397331 37.1919866,39.9766277 C36.9716183,39.5559244 36.7111868,39.24541 36.4106845,39.0450751 C36.1101821,38.8447402 35.7729568,38.7445743 35.3989983,38.7445743 C35.0250399,38.7445743 34.6844757,38.8447402 34.3772955,39.0450751 C34.0701153,39.24541 33.806345,39.5559244 33.5859766,39.9766277 C33.3656082,40.397331 33.1953261,40.9415659 33.0751252,41.6093489 C32.9549243,42.2771319 32.8948247,43.0784594 32.8948247,44.0133556 C32.8948247,45.8831479 33.1252064,47.2420659 33.5859766,48.0901503 C34.0467469,48.9382346 34.6510814,49.3622705 35.3989983,49.3622705 Z M45.3555927,50.6844741 C44.0600937,50.6844741 43.0517565,50.1101894 42.3305509,48.9616027 C41.6093453,47.813016 41.2487479,46.1636168 41.2487479,44.0133556 C41.2487479,41.8630944 41.6093453,40.2270507 42.3305509,39.1051753 C43.0517565,37.9832999 44.0600937,37.4223706 45.3555927,37.4223706 C46.637736,37.4223706 47.6393954,37.9832999 48.360601,39.1051753 C49.0818066,40.2270507 49.442404,41.8630944 49.442404,44.0133556 C49.442404,46.1636168 49.0818066,47.813016 48.360601,48.9616027 C47.6393954,50.1101894 46.637736,50.6844741 45.3555927,50.6844741 Z M45.3555927,49.3622705 C45.7295511,49.3622705 46.0667765,49.2587656 46.3672788,49.0517529 C46.6677811,48.8447402 46.9282126,48.5242092 47.148581,48.0901503 C47.3689493,47.6560913 47.5392315,47.1018398 47.6594324,46.427379 C47.7796333,45.7529182 47.8397329,44.9482518 47.8397329,44.0133556 C47.8397329,43.0784594 47.7796333,42.2771319 47.6594324,41.6093489 C47.5392315,40.9415659 47.3689493,40.397331 47.148581,39.9766277 C46.9282126,39.5559244 46.6677811,39.24541 46.3672788,39.0450751 C46.0667765,38.8447402 45.7295511,38.7445743 45.3555927,38.7445743 C44.9816342,38.7445743 44.64107,38.8447402 44.3338898,39.0450751 C44.0267096,39.24541 43.7629393,39.5559244 43.542571,39.9766277 C43.3222026,40.397331 43.1519205,40.9415659 43.0317195,41.6093489 C42.9115186,42.2771319 42.851419,43.0784594 42.851419,44.0133556 C42.851419,45.8831479 43.0818007,47.2420659 43.542571,48.0901503 C44.0033412,48.9382346 44.6076757,49.3622705 45.3555927,49.3622705 Z M54.0100167,45.3555927 C53.1018319,45.3555927 52.3772982,44.9949953 51.836394,44.2737896 C51.2954898,43.552584 51.0250417,42.5242137 51.0250417,41.1886477 C51.0250417,39.8664375 51.2954898,38.8480837 51.836394,38.1335559 C52.3772982,37.4190281 53.1018319,37.0617696 54.0100167,37.0617696 C54.9048459,37.0617696 55.6260407,37.4190281 56.1736227,38.1335559 C56.7212047,38.8480837 56.9949917,39.8664375 56.9949917,41.1886477 C56.9949917,42.5242137 56.7212047,43.552584 56.1736227,44.2737896 C55.6260407,44.9949953 54.9048459,45.3555927 54.0100167,45.3555927 Z M54.0100167,44.3338898 C54.5175318,44.3338898 54.931551,44.0701195 55.2520868,43.542571 C55.5726226,43.0150224 55.7328881,42.2303892 55.7328881,41.1886477 C55.7328881,40.1469063 55.5726226,39.3689508 55.2520868,38.8547579 C54.931551,38.340565 54.5175318,38.0834725 54.0100167,38.0834725 C53.489146,38.0834725 53.068449,38.340565 52.7479132,38.8547579 C52.4273774,39.3689508 52.2671119,40.1469063 52.2671119,41.1886477 C52.2671119,42.2303892 52.4273774,43.0150224 52.7479132,43.542571 C53.068449,44.0701195 53.489146,44.3338898 54.0100167,44.3338898 Z M54.3706177,50.6844741 L61.6227045,37.0617696 L62.7445743,37.0617696 L55.4924875,50.6844741 L54.3706177,50.6844741 Z M63.1652755,50.6844741 C62.2570906,50.6844741 61.532557,50.3238767 60.9916528,49.6026711 C60.4507485,48.8814655 60.1803005,47.8530952 60.1803005,46.5175292 C60.1803005,45.1953189 60.4507485,44.1769652 60.9916528,43.4624374 C61.532557,42.7479096 62.2570906,42.3906511 63.1652755,42.3906511 C64.0601046,42.3906511 64.7812994,42.7479096 65.3288815,43.4624374 C65.8764635,44.1769652 66.1502504,45.1953189 66.1502504,46.5175292 C66.1502504,47.8530952 65.8764635,48.8814655 65.3288815,49.6026711 C64.7812994,50.3238767 64.0601046,50.6844741 63.1652755,50.6844741 Z M63.1652755,49.6627713 C63.6727905,49.6627713 64.0868097,49.399001 64.4073456,48.8714524 C64.7278814,48.3439039 64.8881469,47.5592707 64.8881469,46.5175292 C64.8881469,45.4757878 64.7278814,44.6978323 64.4073456,44.1836394 C64.0868097,43.6694465 63.6727905,43.4123539 63.1652755,43.4123539 C62.6444047,43.4123539 62.2237078,43.6694465 61.903172,44.1836394 C61.5826361,44.6978323 61.4223706,45.4757878 61.4223706,46.5175292 C61.4223706,47.5592707 61.5826361,48.3439039 61.903172,48.8714524 C62.2237078,49.399001 62.6444047,49.6627713 63.1652755,49.6627713 Z" id="100%" fill="#79797B"></path>
                <path d="M15.5258765,104.674457 L76.6277129,104.674457" id="Line" stroke="#979797" stroke-width="3" stroke-linecap="square"></path>
            </g>
            <g id="Group-2" transform="translate(184.641068, 106.176962)">
                <circle id="Oval-3" stroke="#4990E2" stroke-width="2" cx="44.0734558" cy="44.0734558" r="44.0734558"></circle>
                <path d="M22.0367279,49.081803 L24.9616027,49.081803 L24.9616027,39.6661102 L22.6377295,39.6661102 L22.6377295,38.6043406 C23.2253786,38.4974953 23.7362249,38.3672796 24.1702838,38.2136895 C24.6043427,38.0600994 24.9949899,37.8764618 25.3422371,37.6627713 L26.6043406,37.6627713 L26.6043406,49.081803 L29.2487479,49.081803 L29.2487479,50.4440735 L22.0367279,50.4440735 L22.0367279,49.081803 Z M35.3989983,50.6844741 C34.1034994,50.6844741 33.0951622,50.1101894 32.3739566,48.9616027 C31.652751,47.813016 31.2921536,46.1636168 31.2921536,44.0133556 C31.2921536,41.8630944 31.652751,40.2270507 32.3739566,39.1051753 C33.0951622,37.9832999 34.1034994,37.4223706 35.3989983,37.4223706 C36.6811416,37.4223706 37.6828011,37.9832999 38.4040067,39.1051753 C39.1252123,40.2270507 39.4858097,41.8630944 39.4858097,44.0133556 C39.4858097,46.1636168 39.1252123,47.813016 38.4040067,48.9616027 C37.6828011,50.1101894 36.6811416,50.6844741 35.3989983,50.6844741 Z M35.3989983,49.3622705 C35.7729568,49.3622705 36.1101821,49.2587656 36.4106845,49.0517529 C36.7111868,48.8447402 36.9716183,48.5242092 37.1919866,48.0901503 C37.412355,47.6560913 37.5826371,47.1018398 37.7028381,46.427379 C37.823039,45.7529182 37.8831386,44.9482518 37.8831386,44.0133556 C37.8831386,43.0784594 37.823039,42.2771319 37.7028381,41.6093489 C37.5826371,40.9415659 37.412355,40.397331 37.1919866,39.9766277 C36.9716183,39.5559244 36.7111868,39.24541 36.4106845,39.0450751 C36.1101821,38.8447402 35.7729568,38.7445743 35.3989983,38.7445743 C35.0250399,38.7445743 34.6844757,38.8447402 34.3772955,39.0450751 C34.0701153,39.24541 33.806345,39.5559244 33.5859766,39.9766277 C33.3656082,40.397331 33.1953261,40.9415659 33.0751252,41.6093489 C32.9549243,42.2771319 32.8948247,43.0784594 32.8948247,44.0133556 C32.8948247,45.8831479 33.1252064,47.2420659 33.5859766,48.0901503 C34.0467469,48.9382346 34.6510814,49.3622705 35.3989983,49.3622705 Z M45.3555927,50.6844741 C44.0600937,50.6844741 43.0517565,50.1101894 42.3305509,48.9616027 C41.6093453,47.813016 41.2487479,46.1636168 41.2487479,44.0133556 C41.2487479,41.8630944 41.6093453,40.2270507 42.3305509,39.1051753 C43.0517565,37.9832999 44.0600937,37.4223706 45.3555927,37.4223706 C46.637736,37.4223706 47.6393954,37.9832999 48.360601,39.1051753 C49.0818066,40.2270507 49.442404,41.8630944 49.442404,44.0133556 C49.442404,46.1636168 49.0818066,47.813016 48.360601,48.9616027 C47.6393954,50.1101894 46.637736,50.6844741 45.3555927,50.6844741 Z M45.3555927,49.3622705 C45.7295511,49.3622705 46.0667765,49.2587656 46.3672788,49.0517529 C46.6677811,48.8447402 46.9282126,48.5242092 47.148581,48.0901503 C47.3689493,47.6560913 47.5392315,47.1018398 47.6594324,46.427379 C47.7796333,45.7529182 47.8397329,44.9482518 47.8397329,44.0133556 C47.8397329,43.0784594 47.7796333,42.2771319 47.6594324,41.6093489 C47.5392315,40.9415659 47.3689493,40.397331 47.148581,39.9766277 C46.9282126,39.5559244 46.6677811,39.24541 46.3672788,39.0450751 C46.0667765,38.8447402 45.7295511,38.7445743 45.3555927,38.7445743 C44.9816342,38.7445743 44.64107,38.8447402 44.3338898,39.0450751 C44.0267096,39.24541 43.7629393,39.5559244 43.542571,39.9766277 C43.3222026,40.397331 43.1519205,40.9415659 43.0317195,41.6093489 C42.9115186,42.2771319 42.851419,43.0784594 42.851419,44.0133556 C42.851419,45.8831479 43.0818007,47.2420659 43.542571,48.0901503 C44.0033412,48.9382346 44.6076757,49.3622705 45.3555927,49.3622705 Z M54.0100167,45.3555927 C53.1018319,45.3555927 52.3772982,44.9949953 51.836394,44.2737896 C51.2954898,43.552584 51.0250417,42.5242137 51.0250417,41.1886477 C51.0250417,39.8664375 51.2954898,38.8480837 51.836394,38.1335559 C52.3772982,37.4190281 53.1018319,37.0617696 54.0100167,37.0617696 C54.9048459,37.0617696 55.6260407,37.4190281 56.1736227,38.1335559 C56.7212047,38.8480837 56.9949917,39.8664375 56.9949917,41.1886477 C56.9949917,42.5242137 56.7212047,43.552584 56.1736227,44.2737896 C55.6260407,44.9949953 54.9048459,45.3555927 54.0100167,45.3555927 Z M54.0100167,44.3338898 C54.5175318,44.3338898 54.931551,44.0701195 55.2520868,43.542571 C55.5726226,43.0150224 55.7328881,42.2303892 55.7328881,41.1886477 C55.7328881,40.1469063 55.5726226,39.3689508 55.2520868,38.8547579 C54.931551,38.340565 54.5175318,38.0834725 54.0100167,38.0834725 C53.489146,38.0834725 53.068449,38.340565 52.7479132,38.8547579 C52.4273774,39.3689508 52.2671119,40.1469063 52.2671119,41.1886477 C52.2671119,42.2303892 52.4273774,43.0150224 52.7479132,43.542571 C53.068449,44.0701195 53.489146,44.3338898 54.0100167,44.3338898 Z M54.3706177,50.6844741 L61.6227045,37.0617696 L62.7445743,37.0617696 L55.4924875,50.6844741 L54.3706177,50.6844741 Z M63.1652755,50.6844741 C62.2570906,50.6844741 61.532557,50.3238767 60.9916528,49.6026711 C60.4507485,48.8814655 60.1803005,47.8530952 60.1803005,46.5175292 C60.1803005,45.1953189 60.4507485,44.1769652 60.9916528,43.4624374 C61.532557,42.7479096 62.2570906,42.3906511 63.1652755,42.3906511 C64.0601046,42.3906511 64.7812994,42.7479096 65.3288815,43.4624374 C65.8764635,44.1769652 66.1502504,45.1953189 66.1502504,46.5175292 C66.1502504,47.8530952 65.8764635,48.8814655 65.3288815,49.6026711 C64.7812994,50.3238767 64.0601046,50.6844741 63.1652755,50.6844741 Z M63.1652755,49.6627713 C63.6727905,49.6627713 64.0868097,49.399001 64.4073456,48.8714524 C64.7278814,48.3439039 64.8881469,47.5592707 64.8881469,46.5175292 C64.8881469,45.4757878 64.7278814,44.6978323 64.4073456,44.1836394 C64.0868097,43.6694465 63.6727905,43.4123539 63.1652755,43.4123539 C62.6444047,43.4123539 62.2237078,43.6694465 61.903172,44.1836394 C61.5826361,44.6978323 61.4223706,45.4757878 61.4223706,46.5175292 C61.4223706,47.5592707 61.5826361,48.3439039 61.903172,48.8714524 C62.2237078,49.399001 62.6444047,49.6627713 63.1652755,49.6627713 Z" id="100%" fill="#79797B"></path>
                <path d="M15.5258765,104.674457 L76.6277129,104.674457" id="Line" stroke="#979797" stroke-width="3" stroke-linecap="square"></path>
            </g>
            <g id="Group-2" transform="translate(327.212020, 106.176962)">
                <circle id="Oval-3" stroke="#4990E2" stroke-width="2" cx="44.0734558" cy="44.0734558" r="44.0734558"></circle>
                <path d="M22.0367279,49.081803 L24.9616027,49.081803 L24.9616027,39.6661102 L22.6377295,39.6661102 L22.6377295,38.6043406 C23.2253786,38.4974953 23.7362249,38.3672796 24.1702838,38.2136895 C24.6043427,38.0600994 24.9949899,37.8764618 25.3422371,37.6627713 L26.6043406,37.6627713 L26.6043406,49.081803 L29.2487479,49.081803 L29.2487479,50.4440735 L22.0367279,50.4440735 L22.0367279,49.081803 Z M35.3989983,50.6844741 C34.1034994,50.6844741 33.0951622,50.1101894 32.3739566,48.9616027 C31.652751,47.813016 31.2921536,46.1636168 31.2921536,44.0133556 C31.2921536,41.8630944 31.652751,40.2270507 32.3739566,39.1051753 C33.0951622,37.9832999 34.1034994,37.4223706 35.3989983,37.4223706 C36.6811416,37.4223706 37.6828011,37.9832999 38.4040067,39.1051753 C39.1252123,40.2270507 39.4858097,41.8630944 39.4858097,44.0133556 C39.4858097,46.1636168 39.1252123,47.813016 38.4040067,48.9616027 C37.6828011,50.1101894 36.6811416,50.6844741 35.3989983,50.6844741 Z M35.3989983,49.3622705 C35.7729568,49.3622705 36.1101821,49.2587656 36.4106845,49.0517529 C36.7111868,48.8447402 36.9716183,48.5242092 37.1919866,48.0901503 C37.412355,47.6560913 37.5826371,47.1018398 37.7028381,46.427379 C37.823039,45.7529182 37.8831386,44.9482518 37.8831386,44.0133556 C37.8831386,43.0784594 37.823039,42.2771319 37.7028381,41.6093489 C37.5826371,40.9415659 37.412355,40.397331 37.1919866,39.9766277 C36.9716183,39.5559244 36.7111868,39.24541 36.4106845,39.0450751 C36.1101821,38.8447402 35.7729568,38.7445743 35.3989983,38.7445743 C35.0250399,38.7445743 34.6844757,38.8447402 34.3772955,39.0450751 C34.0701153,39.24541 33.806345,39.5559244 33.5859766,39.9766277 C33.3656082,40.397331 33.1953261,40.9415659 33.0751252,41.6093489 C32.9549243,42.2771319 32.8948247,43.0784594 32.8948247,44.0133556 C32.8948247,45.8831479 33.1252064,47.2420659 33.5859766,48.0901503 C34.0467469,48.9382346 34.6510814,49.3622705 35.3989983,49.3622705 Z M45.3555927,50.6844741 C44.0600937,50.6844741 43.0517565,50.1101894 42.3305509,48.9616027 C41.6093453,47.813016 41.2487479,46.1636168 41.2487479,44.0133556 C41.2487479,41.8630944 41.6093453,40.2270507 42.3305509,39.1051753 C43.0517565,37.9832999 44.0600937,37.4223706 45.3555927,37.4223706 C46.637736,37.4223706 47.6393954,37.9832999 48.360601,39.1051753 C49.0818066,40.2270507 49.442404,41.8630944 49.442404,44.0133556 C49.442404,46.1636168 49.0818066,47.813016 48.360601,48.9616027 C47.6393954,50.1101894 46.637736,50.6844741 45.3555927,50.6844741 Z M45.3555927,49.3622705 C45.7295511,49.3622705 46.0667765,49.2587656 46.3672788,49.0517529 C46.6677811,48.8447402 46.9282126,48.5242092 47.148581,48.0901503 C47.3689493,47.6560913 47.5392315,47.1018398 47.6594324,46.427379 C47.7796333,45.7529182 47.8397329,44.9482518 47.8397329,44.0133556 C47.8397329,43.0784594 47.7796333,42.2771319 47.6594324,41.6093489 C47.5392315,40.9415659 47.3689493,40.397331 47.148581,39.9766277 C46.9282126,39.5559244 46.6677811,39.24541 46.3672788,39.0450751 C46.0667765,38.8447402 45.7295511,38.7445743 45.3555927,38.7445743 C44.9816342,38.7445743 44.64107,38.8447402 44.3338898,39.0450751 C44.0267096,39.24541 43.7629393,39.5559244 43.542571,39.9766277 C43.3222026,40.397331 43.1519205,40.9415659 43.0317195,41.6093489 C42.9115186,42.2771319 42.851419,43.0784594 42.851419,44.0133556 C42.851419,45.8831479 43.0818007,47.2420659 43.542571,48.0901503 C44.0033412,48.9382346 44.6076757,49.3622705 45.3555927,49.3622705 Z M54.0100167,45.3555927 C53.1018319,45.3555927 52.3772982,44.9949953 51.836394,44.2737896 C51.2954898,43.552584 51.0250417,42.5242137 51.0250417,41.1886477 C51.0250417,39.8664375 51.2954898,38.8480837 51.836394,38.1335559 C52.3772982,37.4190281 53.1018319,37.0617696 54.0100167,37.0617696 C54.9048459,37.0617696 55.6260407,37.4190281 56.1736227,38.1335559 C56.7212047,38.8480837 56.9949917,39.8664375 56.9949917,41.1886477 C56.9949917,42.5242137 56.7212047,43.552584 56.1736227,44.2737896 C55.6260407,44.9949953 54.9048459,45.3555927 54.0100167,45.3555927 Z M54.0100167,44.3338898 C54.5175318,44.3338898 54.931551,44.0701195 55.2520868,43.542571 C55.5726226,43.0150224 55.7328881,42.2303892 55.7328881,41.1886477 C55.7328881,40.1469063 55.5726226,39.3689508 55.2520868,38.8547579 C54.931551,38.340565 54.5175318,38.0834725 54.0100167,38.0834725 C53.489146,38.0834725 53.068449,38.340565 52.7479132,38.8547579 C52.4273774,39.3689508 52.2671119,40.1469063 52.2671119,41.1886477 C52.2671119,42.2303892 52.4273774,43.0150224 52.7479132,43.542571 C53.068449,44.0701195 53.489146,44.3338898 54.0100167,44.3338898 Z M54.3706177,50.6844741 L61.6227045,37.0617696 L62.7445743,37.0617696 L55.4924875,50.6844741 L54.3706177,50.6844741 Z M63.1652755,50.6844741 C62.2570906,50.6844741 61.532557,50.3238767 60.9916528,49.6026711 C60.4507485,48.8814655 60.1803005,47.8530952 60.1803005,46.5175292 C60.1803005,45.1953189 60.4507485,44.1769652 60.9916528,43.4624374 C61.532557,42.7479096 62.2570906,42.3906511 63.1652755,42.3906511 C64.0601046,42.3906511 64.7812994,42.7479096 65.3288815,43.4624374 C65.8764635,44.1769652 66.1502504,45.1953189 66.1502504,46.5175292 C66.1502504,47.8530952 65.8764635,48.8814655 65.3288815,49.6026711 C64.7812994,50.3238767 64.0601046,50.6844741 63.1652755,50.6844741 Z M63.1652755,49.6627713 C63.6727905,49.6627713 64.0868097,49.399001 64.4073456,48.8714524 C64.7278814,48.3439039 64.8881469,47.5592707 64.8881469,46.5175292 C64.8881469,45.4757878 64.7278814,44.6978323 64.4073456,44.1836394 C64.0868097,43.6694465 63.6727905,43.4123539 63.1652755,43.4123539 C62.6444047,43.4123539 62.2237078,43.6694465 61.903172,44.1836394 C61.5826361,44.6978323 61.4223706,45.4757878 61.4223706,46.5175292 C61.4223706,47.5592707 61.5826361,48.3439039 61.903172,48.8714524 C62.2237078,49.399001 62.6444047,49.6627713 63.1652755,49.6627713 Z" id="100%" fill="#79797B"></path>
                <path d="M15.5258765,104.674457 L76.6277129,104.674457" id="Line" stroke="#979797" stroke-width="3" stroke-linecap="square"></path>
            </g>
            <g id="Group-2" transform="translate(469.782972, 106.176962)">
                <circle id="Oval-3" stroke="#4990E2" stroke-width="2" cx="44.0734558" cy="44.0734558" r="44.0734558"></circle>
                <path d="M22.0367279,49.081803 L24.9616027,49.081803 L24.9616027,39.6661102 L22.6377295,39.6661102 L22.6377295,38.6043406 C23.2253786,38.4974953 23.7362249,38.3672796 24.1702838,38.2136895 C24.6043427,38.0600994 24.9949899,37.8764618 25.3422371,37.6627713 L26.6043406,37.6627713 L26.6043406,49.081803 L29.2487479,49.081803 L29.2487479,50.4440735 L22.0367279,50.4440735 L22.0367279,49.081803 Z M35.3989983,50.6844741 C34.1034994,50.6844741 33.0951622,50.1101894 32.3739566,48.9616027 C31.652751,47.813016 31.2921536,46.1636168 31.2921536,44.0133556 C31.2921536,41.8630944 31.652751,40.2270507 32.3739566,39.1051753 C33.0951622,37.9832999 34.1034994,37.4223706 35.3989983,37.4223706 C36.6811416,37.4223706 37.6828011,37.9832999 38.4040067,39.1051753 C39.1252123,40.2270507 39.4858097,41.8630944 39.4858097,44.0133556 C39.4858097,46.1636168 39.1252123,47.813016 38.4040067,48.9616027 C37.6828011,50.1101894 36.6811416,50.6844741 35.3989983,50.6844741 Z M35.3989983,49.3622705 C35.7729568,49.3622705 36.1101821,49.2587656 36.4106845,49.0517529 C36.7111868,48.8447402 36.9716183,48.5242092 37.1919866,48.0901503 C37.412355,47.6560913 37.5826371,47.1018398 37.7028381,46.427379 C37.823039,45.7529182 37.8831386,44.9482518 37.8831386,44.0133556 C37.8831386,43.0784594 37.823039,42.2771319 37.7028381,41.6093489 C37.5826371,40.9415659 37.412355,40.397331 37.1919866,39.9766277 C36.9716183,39.5559244 36.7111868,39.24541 36.4106845,39.0450751 C36.1101821,38.8447402 35.7729568,38.7445743 35.3989983,38.7445743 C35.0250399,38.7445743 34.6844757,38.8447402 34.3772955,39.0450751 C34.0701153,39.24541 33.806345,39.5559244 33.5859766,39.9766277 C33.3656082,40.397331 33.1953261,40.9415659 33.0751252,41.6093489 C32.9549243,42.2771319 32.8948247,43.0784594 32.8948247,44.0133556 C32.8948247,45.8831479 33.1252064,47.2420659 33.5859766,48.0901503 C34.0467469,48.9382346 34.6510814,49.3622705 35.3989983,49.3622705 Z M45.3555927,50.6844741 C44.0600937,50.6844741 43.0517565,50.1101894 42.3305509,48.9616027 C41.6093453,47.813016 41.2487479,46.1636168 41.2487479,44.0133556 C41.2487479,41.8630944 41.6093453,40.2270507 42.3305509,39.1051753 C43.0517565,37.9832999 44.0600937,37.4223706 45.3555927,37.4223706 C46.637736,37.4223706 47.6393954,37.9832999 48.360601,39.1051753 C49.0818066,40.2270507 49.442404,41.8630944 49.442404,44.0133556 C49.442404,46.1636168 49.0818066,47.813016 48.360601,48.9616027 C47.6393954,50.1101894 46.637736,50.6844741 45.3555927,50.6844741 Z M45.3555927,49.3622705 C45.7295511,49.3622705 46.0667765,49.2587656 46.3672788,49.0517529 C46.6677811,48.8447402 46.9282126,48.5242092 47.148581,48.0901503 C47.3689493,47.6560913 47.5392315,47.1018398 47.6594324,46.427379 C47.7796333,45.7529182 47.8397329,44.9482518 47.8397329,44.0133556 C47.8397329,43.0784594 47.7796333,42.2771319 47.6594324,41.6093489 C47.5392315,40.9415659 47.3689493,40.397331 47.148581,39.9766277 C46.9282126,39.5559244 46.6677811,39.24541 46.3672788,39.0450751 C46.0667765,38.8447402 45.7295511,38.7445743 45.3555927,38.7445743 C44.9816342,38.7445743 44.64107,38.8447402 44.3338898,39.0450751 C44.0267096,39.24541 43.7629393,39.5559244 43.542571,39.9766277 C43.3222026,40.397331 43.1519205,40.9415659 43.0317195,41.6093489 C42.9115186,42.2771319 42.851419,43.0784594 42.851419,44.0133556 C42.851419,45.8831479 43.0818007,47.2420659 43.542571,48.0901503 C44.0033412,48.9382346 44.6076757,49.3622705 45.3555927,49.3622705 Z M54.0100167,45.3555927 C53.1018319,45.3555927 52.3772982,44.9949953 51.836394,44.2737896 C51.2954898,43.552584 51.0250417,42.5242137 51.0250417,41.1886477 C51.0250417,39.8664375 51.2954898,38.8480837 51.836394,38.1335559 C52.3772982,37.4190281 53.1018319,37.0617696 54.0100167,37.0617696 C54.9048459,37.0617696 55.6260407,37.4190281 56.1736227,38.1335559 C56.7212047,38.8480837 56.9949917,39.8664375 56.9949917,41.1886477 C56.9949917,42.5242137 56.7212047,43.552584 56.1736227,44.2737896 C55.6260407,44.9949953 54.9048459,45.3555927 54.0100167,45.3555927 Z M54.0100167,44.3338898 C54.5175318,44.3338898 54.931551,44.0701195 55.2520868,43.542571 C55.5726226,43.0150224 55.7328881,42.2303892 55.7328881,41.1886477 C55.7328881,40.1469063 55.5726226,39.3689508 55.2520868,38.8547579 C54.931551,38.340565 54.5175318,38.0834725 54.0100167,38.0834725 C53.489146,38.0834725 53.068449,38.340565 52.7479132,38.8547579 C52.4273774,39.3689508 52.2671119,40.1469063 52.2671119,41.1886477 C52.2671119,42.2303892 52.4273774,43.0150224 52.7479132,43.542571 C53.068449,44.0701195 53.489146,44.3338898 54.0100167,44.3338898 Z M54.3706177,50.6844741 L61.6227045,37.0617696 L62.7445743,37.0617696 L55.4924875,50.6844741 L54.3706177,50.6844741 Z M63.1652755,50.6844741 C62.2570906,50.6844741 61.532557,50.3238767 60.9916528,49.6026711 C60.4507485,48.8814655 60.1803005,47.8530952 60.1803005,46.5175292 C60.1803005,45.1953189 60.4507485,44.1769652 60.9916528,43.4624374 C61.532557,42.7479096 62.2570906,42.3906511 63.1652755,42.3906511 C64.0601046,42.3906511 64.7812994,42.7479096 65.3288815,43.4624374 C65.8764635,44.1769652 66.1502504,45.1953189 66.1502504,46.5175292 C66.1502504,47.8530952 65.8764635,48.8814655 65.3288815,49.6026711 C64.7812994,50.3238767 64.0601046,50.6844741 63.1652755,50.6844741 Z M63.1652755,49.6627713 C63.6727905,49.6627713 64.0868097,49.399001 64.4073456,48.8714524 C64.7278814,48.3439039 64.8881469,47.5592707 64.8881469,46.5175292 C64.8881469,45.4757878 64.7278814,44.6978323 64.4073456,44.1836394 C64.0868097,43.6694465 63.6727905,43.4123539 63.1652755,43.4123539 C62.6444047,43.4123539 62.2237078,43.6694465 61.903172,44.1836394 C61.5826361,44.6978323 61.4223706,45.4757878 61.4223706,46.5175292 C61.4223706,47.5592707 61.5826361,48.3439039 61.903172,48.8714524 C62.2237078,49.399001 62.6444047,49.6627713 63.1652755,49.6627713 Z" id="100%" fill="#79797B"></path>
                <path d="M15.5258765,104.674457 L76.6277129,104.674457" id="Line" stroke="#979797" stroke-width="3" stroke-linecap="square"></path>
            </g>
        </g>
    </g>
</svg>