<?xml version="1.0" encoding="UTF-8"?>
<svg width="600px" height="243px" viewBox="0 0 600 243" version="1.1" xmlns="http://www.w3.org/2000/svg" xmlns:xlink="http://www.w3.org/1999/xlink">
    <!-- Generator: Sketch 44.1 (41455) - http://www.bohemiancoding.com/sketch -->
    <title>charts02</title>
    <desc>Created with Sketch.</desc>
    <defs></defs>
    <g id="Charts" stroke="none" stroke-width="1" fill="none" fill-rule="evenodd">
        <g id="02">
            <rect id="Rectangle-2" fill="#5F5F5F" x="0" y="0" width="600" height="242.404007"></rect>
            <path d="M63.6260434,111.397663 C64.1682832,111.921205 64.7619333,112.35125 65.4070117,112.687813 C66.05209,113.024376 66.7579261,113.192654 67.5245409,113.192654 C68.4033433,113.192654 69.1045049,113.010352 69.6280467,112.645743 C70.1515886,112.281133 70.4133556,111.762274 70.4133556,111.089149 C70.4133556,110.696492 70.3432394,110.341237 70.203005,110.023372 C70.0627706,109.705508 69.8150268,109.439066 69.4597663,109.22404 C69.1045057,109.009014 68.618367,108.840735 68.0013356,108.719199 C67.3843041,108.597662 66.5896543,108.536895 65.6173623,108.536895 L65.6173623,105.620033 C66.421373,105.620033 67.0898137,105.56394 67.6227045,105.451753 C68.1555953,105.339565 68.5856411,105.175961 68.9128548,104.960935 C69.2400684,104.745909 69.4737889,104.493491 69.6140234,104.203673 C69.7542578,103.913855 69.824374,103.591321 69.824374,103.23606 C69.824374,102.619029 69.6373975,102.137564 69.2634391,101.791653 C68.8894806,101.445741 68.347249,101.272788 67.6367279,101.272788 C67.0009985,101.272788 66.426046,101.41302 65.9118531,101.693489 C65.3976602,101.973958 64.860103,102.35726 64.2991653,102.843406 L62.2237062,100.319199 C63.0464148,99.6086776 63.9111808,99.0524227 64.8180301,98.6504174 C65.7248793,98.248412 66.7298776,98.0474124 67.8330551,98.0474124 C68.7492533,98.0474124 69.5859728,98.1549238 70.3432387,98.3699499 C71.1005046,98.584976 71.7455733,98.902836 72.2784641,99.3235392 C72.8113549,99.7442425 73.2273775,100.253753 73.5265442,100.852087 C73.825711,101.45042 73.9752922,102.142233 73.9752922,102.927546 C73.9752922,103.862442 73.7181996,104.652417 73.2040067,105.297496 C72.6898138,105.942574 71.9559313,106.470783 71.0023372,106.882137 L71.0023372,106.994324 C72.030723,107.293491 72.8767913,107.803001 73.5405676,108.522871 C74.2043439,109.242741 74.536227,110.182298 74.536227,111.341569 C74.536227,112.164278 74.3585994,112.89816 74.0033389,113.543239 C73.6480784,114.188317 73.1712885,114.730549 72.5729549,115.16995 C71.9746214,115.609351 71.2734598,115.945909 70.4694491,116.179633 C69.6654384,116.413357 68.8146956,116.530217 67.9171953,116.530217 C66.4587573,116.530217 65.2247129,116.301171 64.215025,115.843072 C63.2053372,115.384973 62.3732921,114.772625 61.7188648,114.00601 L63.6260434,111.397663 Z M85.0818031,106.601669 C85.5305533,106.601669 85.9886456,106.470786 86.4560936,106.209015 C86.9235417,105.947244 87.3535875,105.489152 87.7462439,104.834725 C87.5592647,103.43238 87.2086838,102.464777 86.694491,101.931886 C86.1802981,101.398996 85.6053456,101.132554 84.9696162,101.132554 C84.3712826,101.132554 83.8477486,101.3616 83.3989985,101.819699 C82.9502483,102.277799 82.7258766,103.011681 82.7258766,104.021369 C82.7258766,104.974963 82.9502483,105.643404 83.3989985,106.026711 C83.8477486,106.410019 84.4086779,106.601669 85.0818031,106.601669 Z M81.4076796,111.930551 C81.7068464,112.267114 82.1088457,112.561601 82.6136896,112.814023 C83.1185336,113.066445 83.6327187,113.192654 84.1562606,113.192654 C84.6611045,113.192654 85.1285456,113.099166 85.5585978,112.912187 C85.98865,112.725208 86.3672773,112.412022 86.694491,111.972621 C87.0217046,111.53322 87.2834716,110.962942 87.4797998,110.26177 C87.676128,109.560597 87.7929883,108.686483 87.8303841,107.639399 C87.606009,107.938566 87.344242,108.205007 87.0450753,108.438731 C86.7459085,108.672455 86.4373974,108.868781 86.1195327,109.027713 C85.801668,109.186645 85.4838081,109.30818 85.1659434,109.392321 C84.8480787,109.476461 84.5489164,109.518531 84.2684476,109.518531 C83.5018327,109.518531 82.7959967,109.406345 82.1509183,109.18197 C81.50584,108.957595 80.9495851,108.621037 80.482137,108.172287 C80.014689,107.723537 79.6454105,107.153259 79.3742906,106.461436 C79.1031707,105.769613 78.9676128,104.956265 78.9676128,104.021369 C78.9676128,103.105171 79.1265428,102.2778 79.4444075,101.539232 C79.7622722,100.800664 80.1876436,100.169619 80.7205344,99.6460768 C81.2534252,99.1225349 81.8797962,98.72521 82.5996663,98.4540902 C83.3195363,98.1829703 84.0814652,98.0474124 84.8854759,98.0474124 C85.7455804,98.0474124 86.5822999,98.2156911 87.3956596,98.5522538 C88.2090192,98.8888164 88.9288785,99.4123504 89.5552589,100.122871 C90.1816393,100.833393 90.6864757,101.744903 91.0697831,102.857429 C91.4530905,103.969955 91.6447414,105.311511 91.6447414,106.882137 C91.6447414,108.546252 91.4437417,109.985971 91.0417364,111.201336 C90.639731,112.416701 90.1068482,113.417024 89.4430719,114.202337 C88.7792957,114.98765 88.0126923,115.571951 87.1432389,115.955259 C86.2737854,116.338566 85.3716242,116.530217 84.436728,116.530217 C83.2587589,116.530217 82.2350629,116.315194 81.3656095,115.885142 C80.4961561,115.45509 79.7809712,114.959602 79.2200335,114.398664 L81.4076796,111.930551 Z M102.330551,116.530217 C101.376957,116.530217 100.507517,116.329217 99.722204,115.927212 C98.9368912,115.525207 98.2684505,114.931557 97.7168617,114.146244 C97.165273,113.360931 96.7352272,112.388654 96.4267115,111.229382 C96.1181957,110.070111 95.9639402,108.73323 95.9639402,107.218698 C95.9639402,105.704166 96.1181957,104.376633 96.4267115,103.23606 C96.7352272,102.095487 97.165273,101.137233 97.7168617,100.361269 C98.2684505,99.585305 98.9368912,99.005678 99.722204,98.6223706 C100.507517,98.2390632 101.376957,98.0474124 102.330551,98.0474124 C103.284145,98.0474124 104.153586,98.2390632 104.938898,98.6223706 C105.724211,99.005678 106.392652,99.585305 106.944241,100.361269 C107.495829,101.137233 107.925875,102.095487 108.234391,103.23606 C108.542907,104.376633 108.697162,105.704166 108.697162,107.218698 C108.697162,108.73323 108.542907,110.070111 108.234391,111.229382 C107.925875,112.388654 107.495829,113.360931 106.944241,114.146244 C106.392652,114.931557 105.724211,115.525207 104.938898,115.927212 C104.153586,116.329217 103.284145,116.530217 102.330551,116.530217 Z M102.330551,113.332888 C102.685812,113.332888 103.01302,113.244074 103.312187,113.066444 C103.611354,112.888814 103.873121,112.566279 104.097496,112.098831 C104.321871,111.631383 104.494824,111.005012 104.616361,110.219699 C104.737897,109.434387 104.798665,108.434063 104.798665,107.218698 C104.798665,106.003333 104.737897,105.007683 104.616361,104.23172 C104.494824,103.455756 104.321871,102.848082 104.097496,102.408681 C103.873121,101.96928 103.611354,101.665443 103.312187,101.497162 C103.01302,101.328881 102.685812,101.244741 102.330551,101.244741 C101.993989,101.244741 101.676129,101.328881 101.376962,101.497162 C101.077795,101.665443 100.816028,101.96928 100.591653,102.408681 C100.367278,102.848082 100.18965,103.455756 100.058765,104.23172 C99.9278794,105.007683 99.8624377,106.003333 99.8624377,107.218698 C99.8624377,108.434063 99.9278794,109.434387 100.058765,110.219699 C100.18965,111.005012 100.367278,111.631383 100.591653,112.098831 C100.816028,112.566279 101.077795,112.888814 101.376962,113.066444 C101.676129,113.244074 101.993989,113.332888 102.330551,113.332888 Z" id="390" fill="#FFFFFF"></path>
            <path d="M67.6126878,140.734558 L103.672788,140.734558" id="Line" stroke="#FFFFFF" stroke-width="5" stroke-linecap="square"></path>
            <path d="M203.374958,114.839399 C204.515532,113.773617 205.557925,112.777968 206.50217,111.852421 C207.446415,110.926874 208.259763,110.057433 208.942237,109.244073 C209.624711,108.430714 210.157594,107.673459 210.540902,106.972287 C210.924209,106.271115 211.11586,105.602674 211.11586,104.966945 C211.11586,104.088143 210.891488,103.419702 210.442738,102.961603 C209.993988,102.503504 209.376966,102.274457 208.591653,102.274457 C207.937225,102.274457 207.357599,102.456759 206.852755,102.821369 C206.347911,103.185978 205.871121,103.61135 205.422371,104.097496 L203.178631,101.881803 C204.057433,100.946907 204.95492,100.241071 205.871119,99.7642738 C206.787317,99.2874767 207.881129,99.0490818 209.152588,99.0490818 C210.03139,99.0490818 210.830714,99.1846397 211.550584,99.4557596 C212.270454,99.7268795 212.892151,100.110181 213.415693,100.605676 C213.939235,101.101171 214.341234,101.694821 214.621703,102.386644 C214.902172,103.078468 215.042404,103.85442 215.042404,104.714524 C215.042404,105.462441 214.883474,106.22437 214.565609,107.000334 C214.247745,107.776298 213.822373,108.55225 213.289482,109.328214 C212.756592,110.104178 212.148918,110.88013 211.466444,111.656093 C210.78397,112.432057 210.078134,113.193986 209.348915,113.941903 C209.797665,113.885809 210.297827,113.834391 210.849416,113.787646 C211.401004,113.740901 211.891818,113.717529 212.32187,113.717529 L215.911853,113.717529 L215.911853,117.195326 L203.374958,117.195326 L203.374958,114.839399 Z M223.708848,117.195326 C223.78364,115.71819 223.919198,114.357936 224.115526,113.114524 C224.311854,111.871112 224.592319,110.683812 224.956928,109.552588 C225.321538,108.421363 225.788979,107.313528 226.359266,106.229048 C226.929552,105.144569 227.635388,104.02271 228.476795,102.863439 L220.483473,102.863439 L220.483473,99.3856427 L232.880134,99.3856427 L232.880134,101.90985 C231.851748,103.162611 231.024377,104.335888 230.397997,105.429716 C229.771616,106.523545 229.285478,107.654752 228.939566,108.823372 C228.593655,109.991992 228.345911,111.244735 228.196327,112.581636 C228.046744,113.918538 227.934558,115.456419 227.859766,117.195326 L223.708848,117.195326 Z M243.229383,107.603339 C243.678133,107.603339 244.136225,107.472455 244.603673,107.210684 C245.071121,106.948914 245.501167,106.490821 245.893823,105.836394 C245.706844,104.43405 245.356263,103.466447 244.84207,102.933556 C244.327878,102.400665 243.752925,102.134224 243.117196,102.134224 C242.518862,102.134224 241.995328,102.36327 241.546578,102.821369 C241.097828,103.279468 240.873456,104.013351 240.873456,105.023038 C240.873456,105.976632 241.097828,106.645073 241.546578,107.028381 C241.995328,107.411688 242.556257,107.603339 243.229383,107.603339 Z M239.555259,112.93222 C239.854426,113.268783 240.256425,113.563271 240.761269,113.815693 C241.266113,114.068115 241.780298,114.194324 242.30384,114.194324 C242.808684,114.194324 243.276125,114.100836 243.706177,113.913856 C244.136229,113.726877 244.514857,113.413692 244.84207,112.97429 C245.169284,112.534889 245.431051,111.964611 245.627379,111.263439 C245.823707,110.562267 245.940568,109.688152 245.977964,108.641068 C245.753588,108.940235 245.491821,109.206677 245.192655,109.440401 C244.893488,109.674125 244.584977,109.87045 244.267112,110.029382 C243.949247,110.188315 243.631388,110.309849 243.313523,110.39399 C242.995658,110.478131 242.696496,110.5202 242.416027,110.5202 C241.649412,110.5202 240.943576,110.408014 240.298498,110.183639 C239.653419,109.959264 239.097165,109.622707 238.629716,109.173957 C238.162268,108.725206 237.79299,108.154928 237.52187,107.463105 C237.25075,106.771282 237.115192,105.957935 237.115192,105.023038 C237.115192,104.10684 237.274122,103.279469 237.591987,102.540902 C237.909852,101.802334 238.335223,101.171288 238.868114,100.647746 C239.401005,100.124204 240.027376,99.7268795 240.747246,99.4557596 C241.467116,99.1846397 242.229045,99.0490818 243.033055,99.0490818 C243.89316,99.0490818 244.729879,99.2173606 245.543239,99.5539232 C246.356599,99.8904858 247.076458,100.41402 247.702838,101.124541 C248.329219,101.835062 248.834055,102.746572 249.217363,103.859098 C249.60067,104.971625 249.792321,106.313181 249.792321,107.883806 C249.792321,109.547922 249.591321,110.98764 249.189316,112.203005 C248.78731,113.41837 248.254428,114.418694 247.590651,115.204007 C246.926875,115.989319 246.160272,116.573621 245.290818,116.956928 C244.421365,117.340236 243.519204,117.531886 242.584307,117.531886 C241.406338,117.531886 240.382642,117.316864 239.513189,116.886811 C238.643736,116.456759 237.928551,115.961272 237.367613,115.400334 L239.555259,112.93222 Z" id="279" fill="#FFFFFF"></path>
            <path d="M206.844741,138.731219 L242.904841,138.731219" id="Line" stroke="#FFFFFF" stroke-width="5" stroke-linecap="square"></path>
            <path d="M348.540902,110.852755 L352.411352,110.852755 L352.411352,100.559599 L349.07379,100.559599 L349.07379,98.0073456 C350.046082,97.8203663 350.868778,97.5959946 351.541903,97.3342237 C352.215028,97.0724528 352.869446,96.7545929 353.505175,96.3806344 L356.534224,96.3806344 L356.534224,110.852755 L359.871786,110.852755 L359.871786,114.190317 L348.540902,114.190317 L348.540902,110.852755 Z M371.286811,111.441736 C371.903843,111.441736 372.432051,111.21269 372.871453,110.754591 C373.310854,110.296492 373.530551,109.562609 373.530551,108.552922 C373.530551,107.599327 373.310854,106.930887 372.871453,106.547579 C372.432051,106.164272 371.875796,105.972621 371.202671,105.972621 C370.753921,105.972621 370.295829,106.103505 369.828381,106.365275 C369.360933,106.627046 368.921538,107.085139 368.510184,107.739566 C368.603673,108.450087 368.743906,109.039063 368.930885,109.506511 C369.117864,109.973959 369.332887,110.352586 369.57596,110.642404 C369.819033,110.932222 370.085474,111.137896 370.375292,111.259432 C370.66511,111.380969 370.968947,111.441736 371.286811,111.441736 Z M374.876795,100.64374 C374.55893,100.307177 374.147582,100.012689 373.642738,99.7602671 C373.137894,99.5078451 372.623709,99.3816361 372.100167,99.3816361 C371.614021,99.3816361 371.155929,99.4751243 370.725877,99.6621035 C370.295824,99.8490827 369.917197,100.162268 369.589983,100.601669 C369.26277,101.041071 368.996328,101.616023 368.790651,102.326544 C368.584974,103.037065 368.463439,103.906506 368.426044,104.934891 C368.650419,104.635725 368.912186,104.369283 369.211352,104.135559 C369.510519,103.901835 369.81903,103.70551 370.136895,103.546578 C370.45476,103.387645 370.77262,103.266111 371.090484,103.18197 C371.408349,103.097829 371.707511,103.05576 371.98798,103.05576 C372.754595,103.05576 373.460431,103.167945 374.105509,103.392321 C374.750588,103.616696 375.311517,103.953253 375.788314,104.402003 C376.265111,104.850753 376.634389,105.421032 376.89616,106.112855 C377.157931,106.804678 377.288815,107.618025 377.288815,108.552922 C377.288815,109.487818 377.129885,110.319863 376.81202,111.049082 C376.494155,111.778301 376.068784,112.404672 375.535893,112.928214 C375.003002,113.451756 374.376631,113.84908 373.656761,114.1202 C372.936891,114.39132 372.174962,114.526878 371.370952,114.526878 C370.510847,114.526878 369.674128,114.358599 368.860768,114.022037 C368.047408,113.685474 367.327549,113.16194 366.701169,112.451419 C366.074788,111.740898 365.574626,110.829388 365.200668,109.716861 C364.826709,108.604335 364.639733,107.262779 364.639733,105.692154 C364.639733,104.028038 364.840733,102.58832 365.242738,101.372955 C365.644743,100.15759 366.177626,99.157266 366.841402,98.3719533 C367.505179,97.5866405 368.271782,97.0023391 369.141236,96.6190317 C370.010689,96.2357243 370.91285,96.0440735 371.847746,96.0440735 C373.025716,96.0440735 374.044737,96.2544219 374.904842,96.6751252 C375.764946,97.0958285 376.475456,97.5959904 377.036394,98.175626 L374.876795,100.64374 Z M382.898164,109.422371 C383.440404,109.908517 384.024705,110.324539 384.651085,110.670451 C385.277466,111.016362 385.973953,111.189316 386.740568,111.189316 C387.656766,111.189316 388.385974,110.955595 388.928214,110.488147 C389.470454,110.020699 389.74157,109.328886 389.74157,108.412688 C389.74157,107.515187 389.484477,106.832724 388.970284,106.365275 C388.456091,105.897827 387.778302,105.664107 386.936895,105.664107 C386.675124,105.664107 386.441404,105.67813 386.235726,105.706177 C386.030049,105.734224 385.82905,105.785642 385.632721,105.860434 C385.436393,105.935226 385.230719,106.028714 385.015693,106.140902 C384.800667,106.253089 384.562272,106.393321 384.300501,106.561603 L382.449416,105.383639 L382.954257,96.3806344 L393.051085,96.3806344 L393.051085,99.8584307 L386.516194,99.8584307 L386.20768,103.195993 C386.544242,103.04641 386.866777,102.938898 387.175292,102.873456 C387.483808,102.808013 387.82504,102.775292 388.198999,102.775292 C388.965613,102.775292 389.690147,102.887478 390.372621,103.111853 C391.055096,103.336228 391.658094,103.672786 392.181636,104.121536 C392.705178,104.570286 393.116526,105.140564 393.415693,105.832387 C393.71486,106.52421 393.864441,107.346907 393.864441,108.300501 C393.864441,109.291491 393.686813,110.17028 393.331553,110.936895 C392.976292,111.70351 392.499502,112.353253 391.901169,112.886144 C391.302835,113.419034 390.606348,113.825708 389.811686,114.106177 C389.017025,114.386646 388.189654,114.526878 387.32955,114.526878 C385.871112,114.526878 384.637067,114.288483 383.627379,113.811686 C382.617691,113.334889 381.7576,112.741239 381.047079,112.030718 L382.898164,109.422371 Z" id="165" fill="#FFFFFF"></path>
            <path d="M353.088481,138.731219 L389.148581,138.731219" id="Line" stroke="#FFFFFF" stroke-width="5" stroke-linecap="square"></path>
            <path d="M496.864107,111.834391 C498.00468,110.768609 499.047074,109.77296 499.991319,108.847412 C500.935564,107.921865 501.748911,107.052425 502.431386,106.239065 C503.11386,105.425705 503.646743,104.668451 504.03005,103.967279 C504.413358,103.266107 504.605008,102.597666 504.605008,101.961937 C504.605008,101.083134 504.380637,100.414693 503.931886,99.9565943 C503.483136,99.4984952 502.866114,99.2694491 502.080801,99.2694491 C501.426374,99.2694491 500.846747,99.4517511 500.341903,99.8163606 C499.837059,100.18097 499.360269,100.606341 498.911519,101.092487 L496.66778,98.8767947 C497.546582,97.9418985 498.444069,97.2360625 499.360267,96.7592654 C500.276465,96.2824684 501.370277,96.0440735 502.641736,96.0440735 C503.520539,96.0440735 504.319863,96.1796314 505.039733,96.4507513 C505.759603,96.7218711 506.3813,97.1051728 506.904841,97.6006678 C507.428383,98.0961627 507.830383,98.6898129 508.110851,99.3816361 C508.39132,100.073459 508.531553,100.849411 508.531553,101.709516 C508.531553,102.457433 508.372623,103.219362 508.054758,103.995326 C507.736893,104.771289 507.311522,105.547242 506.778631,106.323205 C506.24574,107.099169 505.638067,107.875121 504.955593,108.651085 C504.273118,109.427049 503.567282,110.188978 502.838063,110.936895 C503.286814,110.880801 503.786976,110.829383 504.338564,110.782638 C504.890153,110.735893 505.380966,110.712521 505.811018,110.712521 L509.401002,110.712521 L509.401002,114.190317 L496.864107,114.190317 L496.864107,111.834391 Z M515.234725,109.422371 C515.776964,109.908517 516.361266,110.324539 516.987646,110.670451 C517.614027,111.016362 518.310514,111.189316 519.077129,111.189316 C519.993327,111.189316 520.722535,110.955595 521.264775,110.488147 C521.807015,110.020699 522.07813,109.328886 522.07813,108.412688 C522.07813,107.515187 521.821038,106.832724 521.306845,106.365275 C520.792652,105.897827 520.114862,105.664107 519.273456,105.664107 C519.011685,105.664107 518.777964,105.67813 518.572287,105.706177 C518.36661,105.734224 518.16561,105.785642 517.969282,105.860434 C517.772954,105.935226 517.56728,106.028714 517.352254,106.140902 C517.137228,106.253089 516.898833,106.393321 516.637062,106.561603 L514.785977,105.383639 L515.290818,96.3806344 L525.387646,96.3806344 L525.387646,99.8584307 L518.852755,99.8584307 L518.544241,103.195993 C518.880803,103.04641 519.203337,102.938898 519.511853,102.873456 C519.820369,102.808013 520.161601,102.775292 520.535559,102.775292 C521.302174,102.775292 522.026708,102.887478 522.709182,103.111853 C523.391656,103.336228 523.994655,103.672786 524.518197,104.121536 C525.041739,104.570286 525.453087,105.140564 525.752254,105.832387 C526.051421,106.52421 526.201002,107.346907 526.201002,108.300501 C526.201002,109.291491 526.023374,110.17028 525.668114,110.936895 C525.312853,111.70351 524.836063,112.353253 524.23773,112.886144 C523.639396,113.419034 522.942909,113.825708 522.148247,114.106177 C521.353585,114.386646 520.526215,114.526878 519.66611,114.526878 C518.207672,114.526878 516.973628,114.288483 515.96394,113.811686 C514.954252,113.334889 514.094161,112.741239 513.38364,112.030718 L515.234725,109.422371 Z" id="25" fill="#FFFFFF"></path>
            <path d="M492.320534,138.731219 L528.380634,138.731219" id="Line" stroke="#FFFFFF" stroke-width="5" stroke-linecap="square"></path>
        </g>
    </g>
</svg>