<?xml version="1.0" encoding="UTF-8"?>
<svg width="600px" height="167px" viewBox="0 0 600 167" version="1.1" xmlns="http://www.w3.org/2000/svg" xmlns:xlink="http://www.w3.org/1999/xlink">
    <!-- Generator: Sketch 44.1 (41455) - http://www.bohemiancoding.com/sketch -->
    <title>colorboxes03</title>
    <desc>Created with Sketch.</desc>
    <defs>
        <rect id="path-1" x="8" y="23" width="11" height="1" rx="0.5"></rect>
    </defs>
    <g id="Colorboxes" stroke="none" stroke-width="1" fill="none" fill-rule="evenodd">
        <g id="03">
            <rect id="Rectangle-6" fill="#89BD56" x="0" y="0" width="151" height="167"></rect>
            <g id="Group" transform="translate(63.000000, 18.000000)">
                <rect id="Rectangle-3" stroke="#FFFFFF" x="0.5" y="0.5" width="26" height="19" rx="2"></rect>
                <path d="M0.5,15.5 L26.5,15.5" id="Line" stroke="#FFFFFF" stroke-linecap="square"></path>
                <path d="M10.5,19.5 L10.5,22.5" id="Line" stroke="#FFFFFF" stroke-linecap="square"></path>
                <path d="M16.5,19.5 L16.5,22.5" id="Line" stroke="#FFFFFF" stroke-linecap="square"></path>
                <g id="Rectangle-4">
                    <use fill="#D8D8D8" fill-rule="evenodd" xlink:href="#path-1"></use>
                    <rect stroke="#FFFFFF" stroke-width="1" x="8.5" y="23.5" width="10" height="1" rx="0.5"></rect>
                </g>
                <circle id="Oval" stroke="#FFFFFF" fill="#D8D8D8" cx="13.5" cy="17.5" r="1"></circle>
            </g>
            <path d="M58.5,58 L94.5,58" id="Line" stroke="#FFFFFF" stroke-width="6" stroke-linecap="square"></path>
            <path d="M33.5,78 L119.523253,78" id="Line" stroke="#FFFFFF" stroke-width="4" stroke-linecap="square"></path>
            <path d="M21,92 L133,92" id="Line" stroke="#FFFFFF" stroke-width="4" stroke-linecap="square"></path>
            <path d="M33.5,105 L119.523253,105" id="Line" stroke="#FFFFFF" stroke-width="4" stroke-linecap="square"></path>
            <path d="M51.5,119 L102.0099,119" id="Line" stroke="#FFFFFF" stroke-width="4" stroke-linecap="square"></path>
            <path d="M58.664,146.584 L59.544,146.584 C59.9546687,146.584 60.2693322,146.500001 60.488,146.332 C60.7066678,146.163999 60.816,145.909335 60.816,145.568 C60.816,145.221332 60.7066678,144.978667 60.488,144.84 C60.2693322,144.701333 59.9546687,144.632 59.544,144.632 L58.664,144.632 L58.664,146.584 Z M60.88,149.344 L59.616,147.128 L58.664,147.128 L58.664,149.344 L58,149.344 L58,144.096 L59.64,144.096 C59.906668,144.096 60.1533322,144.121333 60.38,144.172 C60.6066678,144.222667 60.8013325,144.306666 60.964,144.424 C61.1266675,144.541334 61.2533329,144.693332 61.344,144.88 C61.4346671,145.066668 61.48,145.295999 61.48,145.568 C61.48,145.978669 61.3733344,146.306665 61.16,146.552 C60.9466656,146.797335 60.6613351,146.965333 60.304,147.056 L61.632,149.344 L60.88,149.344 Z M62.648,144.096 L65.672,144.096 L65.672,144.656 L63.312,144.656 L63.312,146.304 L65.304,146.304 L65.304,146.872 L63.312,146.872 L63.312,148.776 L65.752,148.776 L65.752,149.344 L62.648,149.344 L62.648,144.096 Z M69.096,147.208 L68.848,146.408 C68.7519995,146.114665 68.6613338,145.822668 68.576,145.532 C68.4906662,145.241332 68.4053338,144.944002 68.32,144.64 L68.288,144.64 C68.2079996,144.944002 68.1253338,145.241332 68.04,145.532 C67.9546662,145.822668 67.8640005,146.114665 67.768,146.408 L67.52,147.208 L69.096,147.208 Z M69.264,147.744 L67.352,147.744 L66.848,149.344 L66.168,149.344 L67.944,144.096 L68.696,144.096 L70.472,149.344 L69.76,149.344 L69.264,147.744 Z M71.216,144.096 L72.528,144.096 C73.3386707,144.096 73.9546646,144.319998 74.376,144.768 C74.7973354,145.216002 75.008,145.858662 75.008,146.696 C75.008,147.112002 74.9546672,147.483998 74.848,147.812 C74.7413328,148.140002 74.584001,148.417332 74.376,148.644 C74.167999,148.870668 73.9120015,149.043999 73.608,149.164 C73.3039985,149.284001 72.9546686,149.344 72.56,149.344 L71.216,149.344 L71.216,144.096 Z M72.48,148.8 C73.0933364,148.8 73.5533318,148.616002 73.86,148.248 C74.1666682,147.879998 74.32,147.36267 74.32,146.696 C74.32,146.02933 74.1666682,145.520002 73.86,145.168 C73.5533318,144.815998 73.0933364,144.64 72.48,144.64 L71.88,144.64 L71.88,148.8 L72.48,148.8 Z M77.752,144.096 L78.536,144.096 L79.552,146.912 L79.936,147.984 L79.968,147.984 L80.336,146.912 L81.344,144.096 L82.128,144.096 L82.128,149.344 L81.496,149.344 L81.496,146.456 C81.496,146.221332 81.5053332,145.962668 81.524,145.68 C81.5426668,145.397332 81.5626666,145.138668 81.584,144.904 L81.552,144.904 L81.128,146.072 L80.12,148.816 L79.744,148.816 L78.728,146.072 L78.312,144.904 L78.28,144.904 C78.2960001,145.138668 78.3146666,145.397332 78.336,145.68 C78.3573334,145.962668 78.368,146.221332 78.368,146.456 L78.368,149.344 L77.752,149.344 L77.752,144.096 Z M85.504,149.44 C85.1733317,149.44 84.870668,149.376001 84.596,149.248 C84.321332,149.119999 84.0853343,148.937335 83.888,148.7 C83.6906657,148.462665 83.5373339,148.174668 83.428,147.836 C83.3186661,147.497332 83.264,147.117335 83.264,146.696 C83.264,146.274665 83.3186661,145.897335 83.428,145.564 C83.5373339,145.230665 83.6906657,144.948001 83.888,144.716 C84.0853343,144.483999 84.321332,144.306667 84.596,144.184 C84.870668,144.061333 85.1733317,144 85.504,144 C85.8346683,144 86.137332,144.062666 86.412,144.188 C86.686668,144.313334 86.923999,144.491999 87.124,144.724 C87.324001,144.956001 87.4786661,145.238665 87.588,145.572 C87.6973339,145.905335 87.752,146.279998 87.752,146.696 C87.752,147.117335 87.6973339,147.497332 87.588,147.836 C87.4786661,148.174668 87.324001,148.462665 87.124,148.7 C86.923999,148.937335 86.686668,149.119999 86.412,149.248 C86.137332,149.376001 85.8346683,149.44 85.504,149.44 Z M85.504,148.856 C85.7386678,148.856 85.9506657,148.805334 86.14,148.704 C86.3293343,148.602666 86.4919993,148.457334 86.628,148.268 C86.7640007,148.078666 86.869333,147.852001 86.944,147.588 C87.018667,147.323999 87.056,147.026668 87.056,146.696 C87.056,146.370665 87.018667,146.077335 86.944,145.816 C86.869333,145.554665 86.7640007,145.333334 86.628,145.152 C86.4919993,144.970666 86.3293343,144.830667 86.14,144.732 C85.9506657,144.633333 85.7386678,144.584 85.504,144.584 C85.2693322,144.584 85.0573343,144.633333 84.868,144.732 C84.6786657,144.830667 84.5160007,144.970666 84.38,145.152 C84.2439993,145.333334 84.138667,145.554665 84.064,145.816 C83.989333,146.077335 83.952,146.370665 83.952,146.696 C83.952,147.026668 83.989333,147.323999 84.064,147.588 C84.138667,147.852001 84.2439993,148.078666 84.38,148.268 C84.5160007,148.457334 84.6786657,148.602666 84.868,148.704 C85.0573343,148.805334 85.2693322,148.856 85.504,148.856 Z M89.544,146.584 L90.424,146.584 C90.8346687,146.584 91.1493322,146.500001 91.368,146.332 C91.5866678,146.163999 91.696,145.909335 91.696,145.568 C91.696,145.221332 91.5866678,144.978667 91.368,144.84 C91.1493322,144.701333 90.8346687,144.632 90.424,144.632 L89.544,144.632 L89.544,146.584 Z M91.76,149.344 L90.496,147.128 L89.544,147.128 L89.544,149.344 L88.88,149.344 L88.88,144.096 L90.52,144.096 C90.786668,144.096 91.0333322,144.121333 91.26,144.172 C91.4866678,144.222667 91.6813325,144.306666 91.844,144.424 C92.0066675,144.541334 92.1333329,144.693332 92.224,144.88 C92.3146671,145.066668 92.36,145.295999 92.36,145.568 C92.36,145.978669 92.2533344,146.306665 92.04,146.552 C91.8266656,146.797335 91.5413351,146.965333 91.184,147.056 L92.512,149.344 L91.76,149.344 Z M93.528,144.096 L96.552,144.096 L96.552,144.656 L94.192,144.656 L94.192,146.304 L96.184,146.304 L96.184,146.872 L94.192,146.872 L94.192,148.776 L96.632,148.776 L96.632,149.344 L93.528,149.344 L93.528,144.096 Z" id="READ-MORE" fill="#FFFFFF"></path>
            <rect id="Rectangle-6" fill="#FFC001" x="150" y="0" width="151" height="167"></rect>
            <path d="M208.5,58 L244.5,58" id="Line" stroke="#FFFFFF" stroke-width="6" stroke-linecap="square"></path>
            <path d="M183.5,78 L269.523253,78" id="Line" stroke="#FFFFFF" stroke-width="4" stroke-linecap="square"></path>
            <path d="M171,92 L283,92" id="Line" stroke="#FFFFFF" stroke-width="4" stroke-linecap="square"></path>
            <path d="M183.5,105 L269.523253,105" id="Line" stroke="#FFFFFF" stroke-width="4" stroke-linecap="square"></path>
            <path d="M201.5,119 L252.0099,119" id="Line" stroke="#FFFFFF" stroke-width="4" stroke-linecap="square"></path>
            <path d="M208.664,146.584 L209.544,146.584 C209.954669,146.584 210.269332,146.500001 210.488,146.332 C210.706668,146.163999 210.816,145.909335 210.816,145.568 C210.816,145.221332 210.706668,144.978667 210.488,144.84 C210.269332,144.701333 209.954669,144.632 209.544,144.632 L208.664,144.632 L208.664,146.584 Z M210.88,149.344 L209.616,147.128 L208.664,147.128 L208.664,149.344 L208,149.344 L208,144.096 L209.64,144.096 C209.906668,144.096 210.153332,144.121333 210.38,144.172 C210.606668,144.222667 210.801333,144.306666 210.964,144.424 C211.126667,144.541334 211.253333,144.693332 211.344,144.88 C211.434667,145.066668 211.48,145.295999 211.48,145.568 C211.48,145.978669 211.373334,146.306665 211.16,146.552 C210.946666,146.797335 210.661335,146.965333 210.304,147.056 L211.632,149.344 L210.88,149.344 Z M212.648,144.096 L215.672,144.096 L215.672,144.656 L213.312,144.656 L213.312,146.304 L215.304,146.304 L215.304,146.872 L213.312,146.872 L213.312,148.776 L215.752,148.776 L215.752,149.344 L212.648,149.344 L212.648,144.096 Z M219.096,147.208 L218.848,146.408 C218.752,146.114665 218.661334,145.822668 218.576,145.532 C218.490666,145.241332 218.405334,144.944002 218.32,144.64 L218.288,144.64 C218.208,144.944002 218.125334,145.241332 218.04,145.532 C217.954666,145.822668 217.864,146.114665 217.768,146.408 L217.52,147.208 L219.096,147.208 Z M219.264,147.744 L217.352,147.744 L216.848,149.344 L216.168,149.344 L217.944,144.096 L218.696,144.096 L220.472,149.344 L219.76,149.344 L219.264,147.744 Z M221.216,144.096 L222.528,144.096 C223.338671,144.096 223.954665,144.319998 224.376,144.768 C224.797335,145.216002 225.008,145.858662 225.008,146.696 C225.008,147.112002 224.954667,147.483998 224.848,147.812 C224.741333,148.140002 224.584001,148.417332 224.376,148.644 C224.167999,148.870668 223.912002,149.043999 223.608,149.164 C223.303998,149.284001 222.954669,149.344 222.56,149.344 L221.216,149.344 L221.216,144.096 Z M222.48,148.8 C223.093336,148.8 223.553332,148.616002 223.86,148.248 C224.166668,147.879998 224.32,147.36267 224.32,146.696 C224.32,146.02933 224.166668,145.520002 223.86,145.168 C223.553332,144.815998 223.093336,144.64 222.48,144.64 L221.88,144.64 L221.88,148.8 L222.48,148.8 Z M227.752,144.096 L228.536,144.096 L229.552,146.912 L229.936,147.984 L229.968,147.984 L230.336,146.912 L231.344,144.096 L232.128,144.096 L232.128,149.344 L231.496,149.344 L231.496,146.456 C231.496,146.221332 231.505333,145.962668 231.524,145.68 C231.542667,145.397332 231.562667,145.138668 231.584,144.904 L231.552,144.904 L231.128,146.072 L230.12,148.816 L229.744,148.816 L228.728,146.072 L228.312,144.904 L228.28,144.904 C228.296,145.138668 228.314667,145.397332 228.336,145.68 C228.357333,145.962668 228.368,146.221332 228.368,146.456 L228.368,149.344 L227.752,149.344 L227.752,144.096 Z M235.504,149.44 C235.173332,149.44 234.870668,149.376001 234.596,149.248 C234.321332,149.119999 234.085334,148.937335 233.888,148.7 C233.690666,148.462665 233.537334,148.174668 233.428,147.836 C233.318666,147.497332 233.264,147.117335 233.264,146.696 C233.264,146.274665 233.318666,145.897335 233.428,145.564 C233.537334,145.230665 233.690666,144.948001 233.888,144.716 C234.085334,144.483999 234.321332,144.306667 234.596,144.184 C234.870668,144.061333 235.173332,144 235.504,144 C235.834668,144 236.137332,144.062666 236.412,144.188 C236.686668,144.313334 236.923999,144.491999 237.124,144.724 C237.324001,144.956001 237.478666,145.238665 237.588,145.572 C237.697334,145.905335 237.752,146.279998 237.752,146.696 C237.752,147.117335 237.697334,147.497332 237.588,147.836 C237.478666,148.174668 237.324001,148.462665 237.124,148.7 C236.923999,148.937335 236.686668,149.119999 236.412,149.248 C236.137332,149.376001 235.834668,149.44 235.504,149.44 Z M235.504,148.856 C235.738668,148.856 235.950666,148.805334 236.14,148.704 C236.329334,148.602666 236.491999,148.457334 236.628,148.268 C236.764001,148.078666 236.869333,147.852001 236.944,147.588 C237.018667,147.323999 237.056,147.026668 237.056,146.696 C237.056,146.370665 237.018667,146.077335 236.944,145.816 C236.869333,145.554665 236.764001,145.333334 236.628,145.152 C236.491999,144.970666 236.329334,144.830667 236.14,144.732 C235.950666,144.633333 235.738668,144.584 235.504,144.584 C235.269332,144.584 235.057334,144.633333 234.868,144.732 C234.678666,144.830667 234.516001,144.970666 234.38,145.152 C234.243999,145.333334 234.138667,145.554665 234.064,145.816 C233.989333,146.077335 233.952,146.370665 233.952,146.696 C233.952,147.026668 233.989333,147.323999 234.064,147.588 C234.138667,147.852001 234.243999,148.078666 234.38,148.268 C234.516001,148.457334 234.678666,148.602666 234.868,148.704 C235.057334,148.805334 235.269332,148.856 235.504,148.856 Z M239.544,146.584 L240.424,146.584 C240.834669,146.584 241.149332,146.500001 241.368,146.332 C241.586668,146.163999 241.696,145.909335 241.696,145.568 C241.696,145.221332 241.586668,144.978667 241.368,144.84 C241.149332,144.701333 240.834669,144.632 240.424,144.632 L239.544,144.632 L239.544,146.584 Z M241.76,149.344 L240.496,147.128 L239.544,147.128 L239.544,149.344 L238.88,149.344 L238.88,144.096 L240.52,144.096 C240.786668,144.096 241.033332,144.121333 241.26,144.172 C241.486668,144.222667 241.681333,144.306666 241.844,144.424 C242.006667,144.541334 242.133333,144.693332 242.224,144.88 C242.314667,145.066668 242.36,145.295999 242.36,145.568 C242.36,145.978669 242.253334,146.306665 242.04,146.552 C241.826666,146.797335 241.541335,146.965333 241.184,147.056 L242.512,149.344 L241.76,149.344 Z M243.528,144.096 L246.552,144.096 L246.552,144.656 L244.192,144.656 L244.192,146.304 L246.184,146.304 L246.184,146.872 L244.192,146.872 L244.192,148.776 L246.632,148.776 L246.632,149.344 L243.528,149.344 L243.528,144.096 Z" id="READ-MORE" fill="#FFFFFF"></path>
            <rect id="Rectangle-6" fill="#5A9BD1" x="301" y="0" width="151" height="167"></rect>
            <path d="M359.5,58 L395.5,58" id="Line" stroke="#FFFFFF" stroke-width="6" stroke-linecap="square"></path>
            <path d="M334.5,78 L420.523253,78" id="Line" stroke="#FFFFFF" stroke-width="4" stroke-linecap="square"></path>
            <path d="M322,92 L434,92" id="Line" stroke="#FFFFFF" stroke-width="4" stroke-linecap="square"></path>
            <path d="M334.5,105 L420.523253,105" id="Line" stroke="#FFFFFF" stroke-width="4" stroke-linecap="square"></path>
            <path d="M352.5,119 L403.0099,119" id="Line" stroke="#FFFFFF" stroke-width="4" stroke-linecap="square"></path>
            <path d="M359.664,146.584 L360.544,146.584 C360.954669,146.584 361.269332,146.500001 361.488,146.332 C361.706668,146.163999 361.816,145.909335 361.816,145.568 C361.816,145.221332 361.706668,144.978667 361.488,144.84 C361.269332,144.701333 360.954669,144.632 360.544,144.632 L359.664,144.632 L359.664,146.584 Z M361.88,149.344 L360.616,147.128 L359.664,147.128 L359.664,149.344 L359,149.344 L359,144.096 L360.64,144.096 C360.906668,144.096 361.153332,144.121333 361.38,144.172 C361.606668,144.222667 361.801333,144.306666 361.964,144.424 C362.126667,144.541334 362.253333,144.693332 362.344,144.88 C362.434667,145.066668 362.48,145.295999 362.48,145.568 C362.48,145.978669 362.373334,146.306665 362.16,146.552 C361.946666,146.797335 361.661335,146.965333 361.304,147.056 L362.632,149.344 L361.88,149.344 Z M363.648,144.096 L366.672,144.096 L366.672,144.656 L364.312,144.656 L364.312,146.304 L366.304,146.304 L366.304,146.872 L364.312,146.872 L364.312,148.776 L366.752,148.776 L366.752,149.344 L363.648,149.344 L363.648,144.096 Z M370.096,147.208 L369.848,146.408 C369.752,146.114665 369.661334,145.822668 369.576,145.532 C369.490666,145.241332 369.405334,144.944002 369.32,144.64 L369.288,144.64 C369.208,144.944002 369.125334,145.241332 369.04,145.532 C368.954666,145.822668 368.864,146.114665 368.768,146.408 L368.52,147.208 L370.096,147.208 Z M370.264,147.744 L368.352,147.744 L367.848,149.344 L367.168,149.344 L368.944,144.096 L369.696,144.096 L371.472,149.344 L370.76,149.344 L370.264,147.744 Z M372.216,144.096 L373.528,144.096 C374.338671,144.096 374.954665,144.319998 375.376,144.768 C375.797335,145.216002 376.008,145.858662 376.008,146.696 C376.008,147.112002 375.954667,147.483998 375.848,147.812 C375.741333,148.140002 375.584001,148.417332 375.376,148.644 C375.167999,148.870668 374.912002,149.043999 374.608,149.164 C374.303998,149.284001 373.954669,149.344 373.56,149.344 L372.216,149.344 L372.216,144.096 Z M373.48,148.8 C374.093336,148.8 374.553332,148.616002 374.86,148.248 C375.166668,147.879998 375.32,147.36267 375.32,146.696 C375.32,146.02933 375.166668,145.520002 374.86,145.168 C374.553332,144.815998 374.093336,144.64 373.48,144.64 L372.88,144.64 L372.88,148.8 L373.48,148.8 Z M378.752,144.096 L379.536,144.096 L380.552,146.912 L380.936,147.984 L380.968,147.984 L381.336,146.912 L382.344,144.096 L383.128,144.096 L383.128,149.344 L382.496,149.344 L382.496,146.456 C382.496,146.221332 382.505333,145.962668 382.524,145.68 C382.542667,145.397332 382.562667,145.138668 382.584,144.904 L382.552,144.904 L382.128,146.072 L381.12,148.816 L380.744,148.816 L379.728,146.072 L379.312,144.904 L379.28,144.904 C379.296,145.138668 379.314667,145.397332 379.336,145.68 C379.357333,145.962668 379.368,146.221332 379.368,146.456 L379.368,149.344 L378.752,149.344 L378.752,144.096 Z M386.504,149.44 C386.173332,149.44 385.870668,149.376001 385.596,149.248 C385.321332,149.119999 385.085334,148.937335 384.888,148.7 C384.690666,148.462665 384.537334,148.174668 384.428,147.836 C384.318666,147.497332 384.264,147.117335 384.264,146.696 C384.264,146.274665 384.318666,145.897335 384.428,145.564 C384.537334,145.230665 384.690666,144.948001 384.888,144.716 C385.085334,144.483999 385.321332,144.306667 385.596,144.184 C385.870668,144.061333 386.173332,144 386.504,144 C386.834668,144 387.137332,144.062666 387.412,144.188 C387.686668,144.313334 387.923999,144.491999 388.124,144.724 C388.324001,144.956001 388.478666,145.238665 388.588,145.572 C388.697334,145.905335 388.752,146.279998 388.752,146.696 C388.752,147.117335 388.697334,147.497332 388.588,147.836 C388.478666,148.174668 388.324001,148.462665 388.124,148.7 C387.923999,148.937335 387.686668,149.119999 387.412,149.248 C387.137332,149.376001 386.834668,149.44 386.504,149.44 Z M386.504,148.856 C386.738668,148.856 386.950666,148.805334 387.14,148.704 C387.329334,148.602666 387.491999,148.457334 387.628,148.268 C387.764001,148.078666 387.869333,147.852001 387.944,147.588 C388.018667,147.323999 388.056,147.026668 388.056,146.696 C388.056,146.370665 388.018667,146.077335 387.944,145.816 C387.869333,145.554665 387.764001,145.333334 387.628,145.152 C387.491999,144.970666 387.329334,144.830667 387.14,144.732 C386.950666,144.633333 386.738668,144.584 386.504,144.584 C386.269332,144.584 386.057334,144.633333 385.868,144.732 C385.678666,144.830667 385.516001,144.970666 385.38,145.152 C385.243999,145.333334 385.138667,145.554665 385.064,145.816 C384.989333,146.077335 384.952,146.370665 384.952,146.696 C384.952,147.026668 384.989333,147.323999 385.064,147.588 C385.138667,147.852001 385.243999,148.078666 385.38,148.268 C385.516001,148.457334 385.678666,148.602666 385.868,148.704 C386.057334,148.805334 386.269332,148.856 386.504,148.856 Z M390.544,146.584 L391.424,146.584 C391.834669,146.584 392.149332,146.500001 392.368,146.332 C392.586668,146.163999 392.696,145.909335 392.696,145.568 C392.696,145.221332 392.586668,144.978667 392.368,144.84 C392.149332,144.701333 391.834669,144.632 391.424,144.632 L390.544,144.632 L390.544,146.584 Z M392.76,149.344 L391.496,147.128 L390.544,147.128 L390.544,149.344 L389.88,149.344 L389.88,144.096 L391.52,144.096 C391.786668,144.096 392.033332,144.121333 392.26,144.172 C392.486668,144.222667 392.681333,144.306666 392.844,144.424 C393.006667,144.541334 393.133333,144.693332 393.224,144.88 C393.314667,145.066668 393.36,145.295999 393.36,145.568 C393.36,145.978669 393.253334,146.306665 393.04,146.552 C392.826666,146.797335 392.541335,146.965333 392.184,147.056 L393.512,149.344 L392.76,149.344 Z M394.528,144.096 L397.552,144.096 L397.552,144.656 L395.192,144.656 L395.192,146.304 L397.184,146.304 L397.184,146.872 L395.192,146.872 L395.192,148.776 L397.632,148.776 L397.632,149.344 L394.528,149.344 L394.528,144.096 Z" id="READ-MORE" fill="#FFFFFF"></path>
            <rect id="Rectangle-6" fill="#EE6555" x="449" y="0" width="151" height="167"></rect>
            <path d="M507.5,58 L543.5,58" id="Line" stroke="#FFFFFF" stroke-width="6" stroke-linecap="square"></path>
            <g id="Group-3" transform="translate(213.000000, 18.000000)" stroke="#FFFFFF">
                <polygon id="Path-2" points="20.18335 0.654358408 26.7016739 9.15439276 13.8178415 23.4213329 0.0905938441 9.26310945 7.24136652 0.588591523"></polygon>
                <polyline id="Path-3" points="7.40500079 0.777839091 7.40500079 9.64783913 20.3736989 9.64783913 20.3736989 0.906096387"></polyline>
                <polygon id="Path-4" points="13.4977855 1.48695823 7.23821104 9.2089748 13.9007856 23.4504135 20.7558445 9.58433818"></polygon>
                <path d="M0.909090909,9.47368421 L25.0909091,9.47368421" id="Line" stroke-linecap="square"></path>
            </g>
            <path d="M482.5,78 L568.523253,78" id="Line" stroke="#FFFFFF" stroke-width="4" stroke-linecap="square"></path>
            <path d="M470,92 L582,92" id="Line" stroke="#FFFFFF" stroke-width="4" stroke-linecap="square"></path>
            <path d="M482.5,105 L568.523253,105" id="Line" stroke="#FFFFFF" stroke-width="4" stroke-linecap="square"></path>
            <g id="Group-2" transform="translate(364.000000, 18.000000)" stroke="#FFFFFF">
                <path d="M7.339588,17.994226 C6.20721513,10.0790844 7.90680699,6.08135217 12.4383636,6.00102938 C19.2356984,5.88054519 18.0963087,16.3737137 17.8453969,17.994226" id="Path-5"></path>
                <path d="M4,22.6905511 C4,19.9093745 5.77761738,18.6495339 7.49443494,17.8554604 C8.63897998,17.3260781 9.38635804,17.1917563 9.73656914,17.4524949 C9.86035058,18.2761783 10.0098019,18.8541518 10.1849232,19.1864152 C10.6364448,20.0431027 11.2817228,20.4751497 12.120757,20.4825565 C14.111496,20.5001302 15.0923168,18.6816012 15.0923168,17.0208842 C15.0940036,16.942154 15.7724633,17.0860242 17.127696,17.4524949 C19.9691303,19.7087636 21.3835822,21.4127888 21.3710516,22.5645707" id="Path-6"></path>
                <path d="M10.8945222,10 C11.8431128,11.2076664 12.8029689,12.0578831 13.7740905,12.5506504 C15.2307729,13.2898012 15.724346,14.370761 15.6171732,15.271063 C15.5100004,16.1713649 13.3356399,19.2314775 12.5409709,19.269964 C11.7463018,19.3084504 8.84125065,17.0424944 9.00679917,15.3148215 C9.11716484,14.1630396 9.74640585,12.3914324 10.8945222,10 Z" id="Path-7"></path>
                <circle id="Oval-2" cx="13" cy="13" r="13"></circle>
            </g>
            <g id="Group-4" transform="translate(511.000000, 19.000000)" stroke="#FFFFFF">
                <rect id="Rectangle-5" x="0.5" y="0.5" width="28" height="24"></rect>
                <polygon id="Triangle" transform="translate(14.500000, 10.500000) rotate(90.000000) translate(-14.500000, -10.500000) " points="14.5 7 19 14 10 14"></polygon>
                <path d="M28.5,20.5 L8.5,20.5" id="Line" stroke-linecap="square"></path>
                <path d="M7.5,19.5 L7.5,21.5" id="Line" stroke-linecap="square"></path>
                <path d="M5.5,20.5 L0.5,20.5" id="Line" stroke-linecap="square"></path>
            </g>
            <path d="M500.5,119 L551.0099,119" id="Line" stroke="#FFFFFF" stroke-width="4" stroke-linecap="square"></path>
            <path d="M507.664,146.584 L508.544,146.584 C508.954669,146.584 509.269332,146.500001 509.488,146.332 C509.706668,146.163999 509.816,145.909335 509.816,145.568 C509.816,145.221332 509.706668,144.978667 509.488,144.84 C509.269332,144.701333 508.954669,144.632 508.544,144.632 L507.664,144.632 L507.664,146.584 Z M509.88,149.344 L508.616,147.128 L507.664,147.128 L507.664,149.344 L507,149.344 L507,144.096 L508.64,144.096 C508.906668,144.096 509.153332,144.121333 509.38,144.172 C509.606668,144.222667 509.801333,144.306666 509.964,144.424 C510.126667,144.541334 510.253333,144.693332 510.344,144.88 C510.434667,145.066668 510.48,145.295999 510.48,145.568 C510.48,145.978669 510.373334,146.306665 510.16,146.552 C509.946666,146.797335 509.661335,146.965333 509.304,147.056 L510.632,149.344 L509.88,149.344 Z M511.648,144.096 L514.672,144.096 L514.672,144.656 L512.312,144.656 L512.312,146.304 L514.304,146.304 L514.304,146.872 L512.312,146.872 L512.312,148.776 L514.752,148.776 L514.752,149.344 L511.648,149.344 L511.648,144.096 Z M518.096,147.208 L517.848,146.408 C517.752,146.114665 517.661334,145.822668 517.576,145.532 C517.490666,145.241332 517.405334,144.944002 517.32,144.64 L517.288,144.64 C517.208,144.944002 517.125334,145.241332 517.04,145.532 C516.954666,145.822668 516.864,146.114665 516.768,146.408 L516.52,147.208 L518.096,147.208 Z M518.264,147.744 L516.352,147.744 L515.848,149.344 L515.168,149.344 L516.944,144.096 L517.696,144.096 L519.472,149.344 L518.76,149.344 L518.264,147.744 Z M520.216,144.096 L521.528,144.096 C522.338671,144.096 522.954665,144.319998 523.376,144.768 C523.797335,145.216002 524.008,145.858662 524.008,146.696 C524.008,147.112002 523.954667,147.483998 523.848,147.812 C523.741333,148.140002 523.584001,148.417332 523.376,148.644 C523.167999,148.870668 522.912002,149.043999 522.608,149.164 C522.303998,149.284001 521.954669,149.344 521.56,149.344 L520.216,149.344 L520.216,144.096 Z M521.48,148.8 C522.093336,148.8 522.553332,148.616002 522.86,148.248 C523.166668,147.879998 523.32,147.36267 523.32,146.696 C523.32,146.02933 523.166668,145.520002 522.86,145.168 C522.553332,144.815998 522.093336,144.64 521.48,144.64 L520.88,144.64 L520.88,148.8 L521.48,148.8 Z M526.752,144.096 L527.536,144.096 L528.552,146.912 L528.936,147.984 L528.968,147.984 L529.336,146.912 L530.344,144.096 L531.128,144.096 L531.128,149.344 L530.496,149.344 L530.496,146.456 C530.496,146.221332 530.505333,145.962668 530.524,145.68 C530.542667,145.397332 530.562667,145.138668 530.584,144.904 L530.552,144.904 L530.128,146.072 L529.12,148.816 L528.744,148.816 L527.728,146.072 L527.312,144.904 L527.28,144.904 C527.296,145.138668 527.314667,145.397332 527.336,145.68 C527.357333,145.962668 527.368,146.221332 527.368,146.456 L527.368,149.344 L526.752,149.344 L526.752,144.096 Z M534.504,149.44 C534.173332,149.44 533.870668,149.376001 533.596,149.248 C533.321332,149.119999 533.085334,148.937335 532.888,148.7 C532.690666,148.462665 532.537334,148.174668 532.428,147.836 C532.318666,147.497332 532.264,147.117335 532.264,146.696 C532.264,146.274665 532.318666,145.897335 532.428,145.564 C532.537334,145.230665 532.690666,144.948001 532.888,144.716 C533.085334,144.483999 533.321332,144.306667 533.596,144.184 C533.870668,144.061333 534.173332,144 534.504,144 C534.834668,144 535.137332,144.062666 535.412,144.188 C535.686668,144.313334 535.923999,144.491999 536.124,144.724 C536.324001,144.956001 536.478666,145.238665 536.588,145.572 C536.697334,145.905335 536.752,146.279998 536.752,146.696 C536.752,147.117335 536.697334,147.497332 536.588,147.836 C536.478666,148.174668 536.324001,148.462665 536.124,148.7 C535.923999,148.937335 535.686668,149.119999 535.412,149.248 C535.137332,149.376001 534.834668,149.44 534.504,149.44 Z M534.504,148.856 C534.738668,148.856 534.950666,148.805334 535.14,148.704 C535.329334,148.602666 535.491999,148.457334 535.628,148.268 C535.764001,148.078666 535.869333,147.852001 535.944,147.588 C536.018667,147.323999 536.056,147.026668 536.056,146.696 C536.056,146.370665 536.018667,146.077335 535.944,145.816 C535.869333,145.554665 535.764001,145.333334 535.628,145.152 C535.491999,144.970666 535.329334,144.830667 535.14,144.732 C534.950666,144.633333 534.738668,144.584 534.504,144.584 C534.269332,144.584 534.057334,144.633333 533.868,144.732 C533.678666,144.830667 533.516001,144.970666 533.38,145.152 C533.243999,145.333334 533.138667,145.554665 533.064,145.816 C532.989333,146.077335 532.952,146.370665 532.952,146.696 C532.952,147.026668 532.989333,147.323999 533.064,147.588 C533.138667,147.852001 533.243999,148.078666 533.38,148.268 C533.516001,148.457334 533.678666,148.602666 533.868,148.704 C534.057334,148.805334 534.269332,148.856 534.504,148.856 Z M538.544,146.584 L539.424,146.584 C539.834669,146.584 540.149332,146.500001 540.368,146.332 C540.586668,146.163999 540.696,145.909335 540.696,145.568 C540.696,145.221332 540.586668,144.978667 540.368,144.84 C540.149332,144.701333 539.834669,144.632 539.424,144.632 L538.544,144.632 L538.544,146.584 Z M540.76,149.344 L539.496,147.128 L538.544,147.128 L538.544,149.344 L537.88,149.344 L537.88,144.096 L539.52,144.096 C539.786668,144.096 540.033332,144.121333 540.26,144.172 C540.486668,144.222667 540.681333,144.306666 540.844,144.424 C541.006667,144.541334 541.133333,144.693332 541.224,144.88 C541.314667,145.066668 541.36,145.295999 541.36,145.568 C541.36,145.978669 541.253334,146.306665 541.04,146.552 C540.826666,146.797335 540.541335,146.965333 540.184,147.056 L541.512,149.344 L540.76,149.344 Z M542.528,144.096 L545.552,144.096 L545.552,144.656 L543.192,144.656 L543.192,146.304 L545.184,146.304 L545.184,146.872 L543.192,146.872 L543.192,148.776 L545.632,148.776 L545.632,149.344 L542.528,149.344 L542.528,144.096 Z" id="READ-MORE" fill="#FFFFFF"></path>
        </g>
    </g>
</svg>