<?xml version="1.0" encoding="UTF-8"?>
<svg width="600px" height="256px" viewBox="0 0 600 256" version="1.1" xmlns="http://www.w3.org/2000/svg" xmlns:xlink="http://www.w3.org/1999/xlink">
    <!-- Generator: Sketch 44.1 (41455) - http://www.bohemiancoding.com/sketch -->
    <title>headerimages08</title>
    <desc>Created with Sketch.</desc>
    <defs></defs>
    <g id="Page-1" stroke="none" stroke-width="1" fill="none" fill-rule="evenodd">
        <g id="08">
            <rect id="Rectangle-2" fill="#404951" x="0" y="0" width="600" height="255.852843"></rect>
            <path d="M230.805351,116.018729 L233.137124,116.018729 L233.137124,123.744482 L241.705686,123.744482 L241.705686,116.018729 L244.065552,116.018729 L244.065552,134.448161 L241.705686,134.448161 L241.705686,125.767224 L233.137124,125.767224 L233.137124,134.448161 L230.805351,134.448161 L230.805351,116.018729 Z M247.886288,127.649498 C247.886288,126.525747 248.05953,125.519068 248.40602,124.629431 C248.75251,123.739795 249.211368,122.985956 249.782609,122.367893 C250.353849,121.74983 251.004679,121.276925 251.735117,120.949164 C252.465555,120.621403 253.224076,120.457525 254.010702,120.457525 C254.872245,120.457525 255.644813,120.607356 256.328428,120.907023 C257.012044,121.20669 257.583275,121.637455 258.04214,122.199331 C258.501006,122.761207 258.852173,123.435448 259.095652,124.222074 C259.339132,125.0087 259.46087,125.888958 259.46087,126.862876 C259.46087,127.368564 259.432776,127.789965 259.376589,128.12709 L250.161873,128.12709 C250.255519,129.606696 250.709695,130.777253 251.524415,131.638796 C252.339135,132.500339 253.402,132.931104 254.713043,132.931104 C255.368565,132.931104 255.972572,132.832777 256.525084,132.63612 C257.077595,132.439464 257.606686,132.181941 258.112375,131.863545 L258.92709,133.380602 C258.327756,133.755186 257.66288,134.082942 256.932441,134.36388 C256.202003,134.644817 255.368567,134.785284 254.432107,134.785284 C253.514377,134.785284 252.657529,134.621406 251.861538,134.293645 C251.065548,133.965885 250.372578,133.497662 249.782609,132.888963 C249.192639,132.280265 248.729099,131.53579 248.391973,130.655518 C248.054848,129.775246 247.886288,128.77325 247.886288,127.649498 Z M257.438127,126.610033 C257.438127,125.205344 257.143147,124.133114 256.553177,123.393311 C255.963208,122.653508 255.134453,122.283612 254.06689,122.283612 C253.579931,122.283612 253.11639,122.381939 252.676254,122.578595 C252.236118,122.775252 251.838129,123.056185 251.482274,123.421405 C251.12642,123.786624 250.831439,124.236118 250.597324,124.7699 C250.36321,125.303682 250.208696,125.917053 250.133779,126.610033 L257.438127,126.610033 Z M262.15786,130.908361 C262.15786,129.410026 262.827418,128.26288 264.166555,127.46689 C265.505692,126.670899 267.636106,126.113714 270.55786,125.795318 C270.55786,125.364546 270.515719,124.943146 270.431438,124.531104 C270.347157,124.119061 270.197325,123.753848 269.98194,123.435452 C269.766554,123.117055 269.480938,122.859533 269.125084,122.662876 C268.769229,122.46622 268.310371,122.367893 267.748495,122.367893 C266.94314,122.367893 266.198666,122.517724 265.51505,122.817391 C264.831435,123.117058 264.218063,123.454179 263.674916,123.828763 L262.747826,122.227425 C263.384619,121.815383 264.161868,121.417393 265.079599,121.033445 C265.997329,120.649496 267.00869,120.457525 268.113712,120.457525 C269.78061,120.457525 270.988625,120.967888 271.737793,121.988629 C272.48696,123.00937 272.861538,124.371898 272.861538,126.076254 L272.861538,134.448161 L270.951171,134.448161 L270.754515,132.818729 L270.698328,132.818729 C270.042806,133.361876 269.33579,133.825416 268.577258,134.209365 C267.818725,134.593313 267.018064,134.785284 266.175251,134.785284 C265.014041,134.785284 264.054184,134.448164 263.295652,133.773913 C262.53712,133.099662 262.15786,132.144488 262.15786,130.908361 Z M264.433445,130.739799 C264.433445,131.526425 264.662874,132.088293 265.121739,132.425418 C265.580604,132.762543 266.147154,132.931104 266.821405,132.931104 C267.476926,132.931104 268.099663,132.77659 268.689632,132.467559 C269.279602,132.158527 269.902338,131.704351 270.55786,131.105017 L270.55786,127.312375 C269.415379,127.462208 268.45084,127.640133 267.664214,127.846154 C266.877588,128.052175 266.245487,128.295651 265.767893,128.576589 C265.290299,128.857526 264.948496,129.1806 264.742475,129.545819 C264.536454,129.911039 264.433445,130.309028 264.433445,130.739799 Z M276.232776,127.649498 C276.232776,126.544476 276.396654,125.547162 276.724415,124.657525 C277.052176,123.767889 277.487623,123.01405 278.030769,122.395987 C278.573916,121.777923 279.201334,121.300336 279.913043,120.963211 C280.624753,120.626085 281.373909,120.457525 282.160535,120.457525 C282.947161,120.457525 283.630766,120.597992 284.211371,120.87893 C284.791976,121.159868 285.381937,121.54381 285.981271,122.030769 L285.868896,119.698997 L285.868896,114.445485 L288.200669,114.445485 L288.200669,134.448161 L286.290301,134.448161 L286.093645,132.846823 L286.009365,132.846823 C285.466218,133.37124 284.843482,133.825416 284.141137,134.209365 C283.438792,134.593313 282.684954,134.785284 281.879599,134.785284 C280.156513,134.785284 278.78462,134.16723 277.76388,132.931104 C276.743139,131.694977 276.232776,129.93446 276.232776,127.649498 Z M278.620736,127.621405 C278.620736,129.269573 278.948492,130.552504 279.604013,131.470234 C280.259535,132.387964 281.186616,132.846823 282.385284,132.846823 C283.022077,132.846823 283.621402,132.692309 284.183278,132.383278 C284.745153,132.074246 285.307021,131.601341 285.868896,130.964548 L285.868896,123.828763 C285.288291,123.304345 284.731106,122.934449 284.197324,122.719064 C283.663542,122.503678 283.115722,122.395987 282.553846,122.395987 C282.0107,122.395987 281.500337,122.522407 281.022742,122.775251 C280.545148,123.028095 280.12843,123.383944 279.772575,123.842809 C279.416721,124.301675 279.135787,124.849495 278.929766,125.486288 C278.723745,126.12308 278.620736,126.834779 278.620736,127.621405 Z M291.796656,127.649498 C291.796656,126.525747 291.969898,125.519068 292.316388,124.629431 C292.662878,123.739795 293.121736,122.985956 293.692977,122.367893 C294.264217,121.74983 294.915047,121.276925 295.645485,120.949164 C296.375923,120.621403 297.134444,120.457525 297.92107,120.457525 C298.782613,120.457525 299.555181,120.607356 300.238796,120.907023 C300.922411,121.20669 301.493643,121.637455 301.952508,122.199331 C302.411374,122.761207 302.762541,123.435448 303.00602,124.222074 C303.2495,125.0087 303.371237,125.888958 303.371237,126.862876 C303.371237,127.368564 303.343144,127.789965 303.286957,128.12709 L294.072241,128.12709 C294.165887,129.606696 294.620063,130.777253 295.434783,131.638796 C296.249502,132.500339 297.312368,132.931104 298.623411,132.931104 C299.278933,132.931104 299.88294,132.832777 300.435452,132.63612 C300.987963,132.439464 301.517054,132.181941 302.022742,131.863545 L302.837458,133.380602 C302.238124,133.755186 301.573248,134.082942 300.842809,134.36388 C300.112371,134.644817 299.278934,134.785284 298.342475,134.785284 C297.424745,134.785284 296.567897,134.621406 295.771906,134.293645 C294.975916,133.965885 294.282946,133.497662 293.692977,132.888963 C293.103007,132.280265 292.639467,131.53579 292.302341,130.655518 C291.965216,129.775246 291.796656,128.77325 291.796656,127.649498 Z M301.348495,126.610033 C301.348495,125.205344 301.053515,124.133114 300.463545,123.393311 C299.873576,122.653508 299.044821,122.283612 297.977258,122.283612 C297.490299,122.283612 297.026758,122.381939 296.586622,122.578595 C296.146486,122.775252 295.748497,123.056185 295.392642,123.421405 C295.036788,123.786624 294.741807,124.236118 294.507692,124.7699 C294.273577,125.303682 294.119064,125.917053 294.044147,126.610033 L301.348495,126.610033 Z M306.742475,120.794649 L308.652843,120.794649 L308.849498,123.26689 L308.933779,123.26689 C309.402009,122.405347 309.968559,121.721742 310.633445,121.216054 C311.298331,120.710365 312.024076,120.457525 312.810702,120.457525 C313.353849,120.457525 313.840801,120.55117 314.271572,120.738462 L313.822074,122.761204 C313.597323,122.686287 313.391305,122.630101 313.204013,122.592642 C313.016721,122.555184 312.78261,122.536455 312.501672,122.536455 C311.921067,122.536455 311.31706,122.770566 310.689632,123.238796 C310.062204,123.707026 309.514384,124.521733 309.046154,125.682943 L309.046154,134.448161 L306.742475,134.448161 L306.742475,120.794649 Z M320.536455,120.794649 L322.896321,120.794649 L324.919064,128.688963 C325.068897,129.344485 325.209364,129.981268 325.340468,130.599331 C325.471573,131.217394 325.602675,131.844813 325.733779,132.481605 L325.846154,132.481605 C325.995987,131.844813 326.145819,131.212712 326.295652,130.585284 C326.445486,129.957856 326.604681,129.325756 326.773244,128.688963 L328.880268,120.794649 L331.127759,120.794649 L333.262876,128.688963 C333.431439,129.344485 333.595317,129.981268 333.754515,130.599331 C333.913713,131.217394 334.068227,131.844813 334.21806,132.481605 L334.330435,132.481605 C334.480268,131.844813 334.620735,131.217394 334.751839,130.599331 C334.882944,129.981268 335.023411,129.344485 335.173244,128.688963 L337.167893,120.794649 L339.359197,120.794649 L335.707023,134.448161 L332.897659,134.448161 L330.931104,127.115719 C330.762541,126.460197 330.608027,125.81405 330.467559,125.177258 C330.32709,124.540465 330.172576,123.875589 330.004013,123.182609 L329.891639,123.182609 C329.741805,123.875589 329.591974,124.545147 329.44214,125.191304 C329.292307,125.837461 329.123747,126.488291 328.936455,127.143813 L327.026087,134.448161 L324.329097,134.448161 L320.536455,120.794649 Z M343.517057,117.985284 C343.067556,117.985284 342.688296,117.844817 342.379264,117.56388 C342.070233,117.282942 341.915719,116.927092 341.915719,116.496321 C341.915719,116.04682 342.070233,115.686289 342.379264,115.414716 C342.688296,115.143142 343.067556,115.007358 343.517057,115.007358 C343.966557,115.007358 344.345818,115.143142 344.654849,115.414716 C344.963881,115.686289 345.118395,116.04682 345.118395,116.496321 C345.118395,116.927092 344.963881,117.282942 344.654849,117.56388 C344.345818,117.844817 343.966557,117.985284 343.517057,117.985284 Z M342.337124,120.794649 L344.640803,120.794649 L344.640803,134.448161 L342.337124,134.448161 L342.337124,120.794649 Z M349.641472,122.676923 L347.618729,122.676923 L347.618729,120.935117 L349.753846,120.794649 L350.034783,116.973913 L351.973244,116.973913 L351.973244,120.794649 L355.653512,120.794649 L355.653512,122.676923 L351.973244,122.676923 L351.973244,130.262207 C351.973244,131.105021 352.127758,131.755851 352.436789,132.214716 C352.745821,132.673581 353.293642,132.90301 354.080268,132.90301 C354.323747,132.90301 354.585952,132.865552 354.86689,132.790635 C355.147827,132.715719 355.400668,132.631439 355.625418,132.537793 L356.074916,134.279599 C355.700333,134.410703 355.292979,134.527759 354.852843,134.630769 C354.412707,134.73378 353.97726,134.785284 353.546488,134.785284 C352.81605,134.785284 352.202678,134.672911 351.706355,134.448161 C351.210031,134.22341 350.807359,133.914383 350.498328,133.52107 C350.189296,133.127757 349.969231,132.65017 349.838127,132.088294 C349.707023,131.526419 349.641472,130.908365 349.641472,130.234114 L349.641472,122.676923 Z M358.743813,114.445485 L361.047492,114.445485 L361.047492,119.895652 L360.963211,122.705017 C361.618732,122.086953 362.302338,121.557862 363.014047,121.117726 C363.725756,120.67759 364.559193,120.457525 365.514381,120.457525 C366.956529,120.457525 368.01003,120.907019 368.674916,121.80602 C369.339803,122.705021 369.672241,124.034774 369.672241,125.795318 L369.672241,134.448161 L367.368562,134.448161 L367.368562,126.104348 C367.368562,124.812034 367.162544,123.88027 366.750502,123.30903 C366.338459,122.73779 365.682948,122.452174 364.783946,122.452174 C364.072237,122.452174 363.444819,122.630099 362.901672,122.985953 C362.358526,123.341808 361.740472,123.866217 361.047492,124.559197 L361.047492,134.448161 L358.743813,134.448161 L358.743813,114.445485 Z M198.343144,150.565886 L200.646823,150.565886 L200.646823,156.016054 L200.590635,158.488294 C201.208699,157.945148 201.882939,157.490972 202.613378,157.125753 C203.343816,156.760533 204.092973,156.577926 204.86087,156.577926 C205.741142,156.577926 206.518391,156.741804 207.192642,157.069565 C207.866893,157.397326 208.433443,157.865549 208.892308,158.474247 C209.351173,159.082946 209.697658,159.813374 209.931773,160.665552 C210.165887,161.51773 210.282943,162.468222 210.282943,163.517057 C210.282943,164.678267 210.123747,165.717721 209.805351,166.635452 C209.486955,167.553182 209.05619,168.330432 208.513043,168.967224 C207.969897,169.604017 207.342478,170.086286 206.630769,170.414047 C205.91906,170.741808 205.169904,170.905686 204.383278,170.905686 C203.746485,170.905686 203.086291,170.760537 202.402676,170.470234 C201.71906,170.179932 201.077595,169.763213 200.478261,169.220067 L200.39398,169.220067 L200.197324,170.568562 L198.343144,170.568562 L198.343144,150.565886 Z M200.646823,167.534448 C201.246157,168.058865 201.8408,168.428761 202.430769,168.644147 C203.020739,168.859533 203.540466,168.967224 203.989967,168.967224 C204.551842,168.967224 205.07157,168.840804 205.549164,168.58796 C206.026758,168.335116 206.438794,167.979267 206.785284,167.520401 C207.131774,167.061536 207.403343,166.494987 207.6,165.820736 C207.796657,165.146485 207.894983,164.387964 207.894983,163.545151 C207.894983,162.795983 207.829432,162.112378 207.698328,161.494314 C207.567223,160.876251 207.356523,160.347159 207.066221,159.907023 C206.775918,159.466887 206.40134,159.125085 205.942475,158.881605 C205.48361,158.638126 204.935789,158.516388 204.298997,158.516388 C203.193974,158.516388 201.976595,159.134442 200.646823,160.370569 L200.646823,167.534448 Z M213.26087,167.028763 C213.26087,165.530427 213.930428,164.383282 215.269565,163.587291 C216.608702,162.7913 218.739116,162.234115 221.66087,161.915719 C221.66087,161.484948 221.61873,161.063547 221.534448,160.651505 C221.450167,160.239463 221.300336,159.874249 221.08495,159.555853 C220.869564,159.237457 220.583948,158.979934 220.228094,158.783278 C219.872239,158.586621 219.413381,158.488294 218.851505,158.488294 C218.04615,158.488294 217.301676,158.638126 216.61806,158.937793 C215.934445,159.23746 215.321073,159.57458 214.777926,159.949164 L213.850836,158.347826 C214.487629,157.935784 215.264878,157.537795 216.182609,157.153846 C217.100339,156.769898 218.1117,156.577926 219.216722,156.577926 C220.88362,156.577926 222.091635,157.088289 222.840803,158.10903 C223.58997,159.129771 223.964548,160.492299 223.964548,162.196656 L223.964548,170.568562 L222.054181,170.568562 L221.857525,168.93913 L221.801338,168.93913 C221.145816,169.482277 220.4388,169.945817 219.680268,170.329766 C218.921735,170.713714 218.121074,170.905686 217.278261,170.905686 C216.117051,170.905686 215.157194,170.568565 214.398662,169.894314 C213.64013,169.220064 213.26087,168.264889 213.26087,167.028763 Z M215.536455,166.860201 C215.536455,167.646827 215.765884,168.208694 216.224749,168.545819 C216.683614,168.882945 217.250164,169.051505 217.924415,169.051505 C218.579936,169.051505 219.202673,168.896992 219.792642,168.58796 C220.382612,168.278928 221.005348,167.824752 221.66087,167.225418 L221.66087,163.432776 C220.518389,163.582609 219.55385,163.760534 218.767224,163.966555 C217.980598,164.172576 217.348497,164.416052 216.870903,164.69699 C216.393309,164.977928 216.051506,165.301002 215.845485,165.666221 C215.639464,166.03144 215.536455,166.429429 215.536455,166.860201 Z M227.307692,163.7699 C227.307692,162.627419 227.485617,161.611376 227.841472,160.721739 C228.197326,159.832103 228.674913,159.078264 229.274247,158.460201 C229.873582,157.842137 230.571233,157.373915 231.367224,157.055518 C232.163215,156.737122 233.001333,156.577926 233.881605,156.577926 C234.780607,156.577926 235.553174,156.741804 236.199331,157.069565 C236.845488,157.397326 237.402673,157.776586 237.870903,158.207358 L236.719064,159.696321 C236.307021,159.340466 235.880939,159.050168 235.440803,158.825418 C235.000667,158.600668 234.509033,158.488294 233.965886,158.488294 C233.347823,158.488294 232.776591,158.614714 232.252174,158.867559 C231.727757,159.120403 231.278263,159.480934 230.903679,159.949164 C230.529095,160.417394 230.234115,160.974579 230.018729,161.620736 C229.803343,162.266893 229.695652,162.983274 229.695652,163.7699 C229.695652,164.556526 229.798661,165.268224 230.004682,165.905017 C230.210703,166.541809 230.496319,167.08963 230.861538,167.548495 C231.226758,168.00736 231.671569,168.363209 232.195987,168.616054 C232.720404,168.868898 233.291636,168.995318 233.909699,168.995318 C234.565221,168.995318 235.159864,168.859533 235.693645,168.58796 C236.227427,168.316387 236.700332,167.993313 237.112375,167.618729 L238.151839,169.135786 C237.533776,169.678932 236.845489,170.109697 236.086957,170.428094 C235.328424,170.74649 234.537128,170.905686 233.713043,170.905686 C232.814042,170.905686 231.971241,170.74649 231.184615,170.428094 C230.397989,170.109697 229.719066,169.646157 229.147826,169.037458 C228.576586,168.428759 228.127092,167.679603 227.799331,166.789967 C227.47157,165.90033 227.307692,164.893651 227.307692,163.7699 Z M241.129766,150.565886 L243.405351,150.565886 L243.405351,164.107023 L243.489632,164.107023 L249.305017,156.91505 L251.861538,156.91505 L247.282274,162.393311 L252.479599,170.568562 L249.951171,170.568562 L245.961873,163.994649 L243.405351,166.972575 L243.405351,170.568562 L241.129766,170.568562 L241.129766,150.565886 Z M256.019398,172.872241 C256.019398,173.602679 256.370565,174.183275 257.07291,174.614047 C257.775254,175.044818 258.744475,175.260201 259.980602,175.260201 C260.636124,175.260201 261.230767,175.180603 261.764548,175.021405 C262.29833,174.862207 262.752506,174.656189 263.12709,174.403344 C263.501674,174.1505 263.791972,173.85552 263.997993,173.518395 C264.204014,173.181269 264.307023,172.834784 264.307023,172.47893 C264.307023,171.842137 264.072912,171.402008 263.604682,171.158528 C263.136453,170.915049 262.452847,170.793311 261.553846,170.793311 L259.19398,170.793311 C258.931771,170.793311 258.646155,170.779264 258.337124,170.751171 C258.028092,170.723077 257.723747,170.662208 257.42408,170.568562 C256.937121,170.924416 256.581272,171.298995 256.356522,171.692308 C256.131771,172.085621 256.019398,172.478928 256.019398,172.872241 Z M253.996656,173.181271 C253.996656,172.600666 254.17458,172.048163 254.530435,171.523746 C254.886289,170.999328 255.373241,170.521741 255.991304,170.09097 L255.991304,169.978595 C255.654179,169.772574 255.368563,169.486958 255.134448,169.121739 C254.900333,168.75652 254.783278,168.302344 254.783278,167.759197 C254.783278,167.178592 254.942473,166.672912 255.26087,166.24214 C255.579266,165.811369 255.916386,165.474249 256.272241,165.230769 L256.272241,165.118395 C255.82274,164.743811 255.415386,164.242813 255.050167,163.615385 C254.684948,162.987957 254.502341,162.262211 254.502341,161.438127 C254.502341,160.688959 254.638126,160.014719 254.909699,159.415385 C255.181272,158.816051 255.551168,158.305688 256.019398,157.884281 C256.487628,157.462874 257.035448,157.1398 257.662876,156.91505 C258.290304,156.6903 258.950498,156.577926 259.643478,156.577926 C260.018062,156.577926 260.369229,156.610702 260.69699,156.676254 C261.024751,156.741806 261.319731,156.821404 261.58194,156.91505 L266.329766,156.91505 L266.329766,158.68495 L263.520401,158.68495 C263.838798,159.003346 264.105685,159.406018 264.32107,159.892977 C264.536456,160.379936 264.644147,160.913709 264.644147,161.494314 C264.644147,162.224753 264.513045,162.884947 264.250836,163.474916 C263.988627,164.064886 263.632778,164.561202 263.183278,164.96388 C262.733777,165.366557 262.204685,165.680266 261.595987,165.905017 C260.987288,166.129767 260.336458,166.24214 259.643478,166.24214 C259.306353,166.24214 258.959868,166.2 258.604013,166.115719 C258.248159,166.031438 257.911038,165.914382 257.592642,165.764548 C257.349163,165.97057 257.143145,166.199999 256.974582,166.452843 C256.806019,166.705687 256.721739,167.019396 256.721739,167.39398 C256.721739,167.824751 256.890299,168.180601 257.227425,168.461538 C257.56455,168.742476 258.201333,168.882943 259.137793,168.882943 L261.778595,168.882943 C263.370577,168.882943 264.564545,169.140466 265.360535,169.655518 C266.156526,170.170571 266.554515,170.999325 266.554515,172.141806 C266.554515,172.778599 266.395319,173.382606 266.076923,173.953846 C265.758527,174.525086 265.299669,175.026085 264.700334,175.456856 C264.101,175.887628 263.375255,176.22943 262.523077,176.482274 C261.670899,176.735118 260.711042,176.861538 259.643478,176.861538 C258.800665,176.861538 258.032779,176.781941 257.339799,176.622742 C256.646819,176.463544 256.052176,176.224751 255.555853,175.906355 C255.059529,175.587958 254.675587,175.204016 254.404013,174.754515 C254.13244,174.305014 253.996656,173.780605 253.996656,173.181271 Z M259.643478,164.69699 C260.036791,164.69699 260.406687,164.622074 260.753177,164.472241 C261.099667,164.322407 261.408694,164.107025 261.680268,163.826087 C261.951841,163.545149 262.162541,163.203346 262.312375,162.800669 C262.462208,162.397991 262.537124,161.943815 262.537124,161.438127 C262.537124,160.426751 262.25619,159.644819 261.694314,159.092308 C261.132439,158.539797 260.448833,158.263545 259.643478,158.263545 C258.838123,158.263545 258.154518,158.539797 257.592642,159.092308 C257.030766,159.644819 256.749833,160.426751 256.749833,161.438127 C256.749833,161.943815 256.824748,162.397991 256.974582,162.800669 C257.124415,163.203346 257.335116,163.545149 257.606689,163.826087 C257.878262,164.107025 258.187289,164.322407 258.533779,164.472241 C258.880269,164.622074 259.250165,164.69699 259.643478,164.69699 Z M269.195318,156.91505 L271.105686,156.91505 L271.302341,159.387291 L271.386622,159.387291 C271.854852,158.525748 272.421401,157.842143 273.086288,157.336455 C273.751174,156.830767 274.476919,156.577926 275.263545,156.577926 C275.806692,156.577926 276.293643,156.671571 276.724415,156.858863 L276.274916,158.881605 C276.050166,158.806689 275.844148,158.750502 275.656856,158.713043 C275.469564,158.675585 275.235453,158.656856 274.954515,158.656856 C274.37391,158.656856 273.769903,158.890968 273.142475,159.359197 C272.515047,159.827427 271.967226,160.642135 271.498997,161.803344 L271.498997,170.568562 L269.195318,170.568562 L269.195318,156.91505 Z M277.932441,163.7699 C277.932441,162.627419 278.105684,161.611376 278.452174,160.721739 C278.798664,159.832103 279.262204,159.078264 279.842809,158.460201 C280.423414,157.842137 281.092973,157.373915 281.851505,157.055518 C282.610037,156.737122 283.410698,156.577926 284.253512,156.577926 C285.096325,156.577926 285.896986,156.737122 286.655518,157.055518 C287.414051,157.373915 288.083609,157.842137 288.664214,158.460201 C289.244819,159.078264 289.708359,159.832103 290.054849,160.721739 C290.40134,161.611376 290.574582,162.627419 290.574582,163.7699 C290.574582,164.893651 290.40134,165.90033 290.054849,166.789967 C289.708359,167.679603 289.244819,168.428759 288.664214,169.037458 C288.083609,169.646157 287.414051,170.109697 286.655518,170.428094 C285.896986,170.74649 285.096325,170.905686 284.253512,170.905686 C283.410698,170.905686 282.610037,170.74649 281.851505,170.428094 C281.092973,170.109697 280.423414,169.646157 279.842809,169.037458 C279.262204,168.428759 278.798664,167.679603 278.452174,166.789967 C278.105684,165.90033 277.932441,164.893651 277.932441,163.7699 Z M280.320401,163.7699 C280.320401,164.556526 280.414046,165.268224 280.601338,165.905017 C280.78863,166.541809 281.055517,167.08963 281.402007,167.548495 C281.748497,168.00736 282.165215,168.363209 282.652174,168.616054 C283.139133,168.868898 283.672907,168.995318 284.253512,168.995318 C284.834117,168.995318 285.367891,168.868898 285.854849,168.616054 C286.341808,168.363209 286.758527,168.00736 287.105017,167.548495 C287.451507,167.08963 287.718394,166.541809 287.905686,165.905017 C288.092978,165.268224 288.186622,164.556526 288.186622,163.7699 C288.186622,162.983274 288.092978,162.266893 287.905686,161.620736 C287.718394,160.974579 287.451507,160.417394 287.105017,159.949164 C286.758527,159.480934 286.341808,159.120403 285.854849,158.867559 C285.367891,158.614714 284.834117,158.488294 284.253512,158.488294 C283.672907,158.488294 283.139133,158.614714 282.652174,158.867559 C282.165215,159.120403 281.748497,159.480934 281.402007,159.949164 C281.055517,160.417394 280.78863,160.974579 280.601338,161.620736 C280.414046,162.266893 280.320401,162.983274 280.320401,163.7699 Z M293.973913,156.91505 L296.305686,156.91505 L296.305686,165.258863 C296.305686,166.551177 296.507021,167.48294 296.909699,168.054181 C297.312377,168.625421 297.963206,168.911037 298.862207,168.911037 C299.573917,168.911037 300.201335,168.72843 300.744482,168.363211 C301.287628,167.997991 301.886953,167.412713 302.542475,166.607358 L302.542475,156.91505 L304.846154,156.91505 L304.846154,170.568562 L302.935786,170.568562 L302.73913,168.433445 L302.654849,168.433445 C302.018057,169.182612 301.348498,169.781938 300.646154,170.231438 C299.943809,170.680939 299.115055,170.905686 298.159866,170.905686 C296.698989,170.905686 295.636124,170.456192 294.971237,169.557191 C294.306351,168.658189 293.973913,167.328437 293.973913,165.567893 L293.973913,156.91505 Z M309.453512,156.91505 L311.36388,156.91505 L311.560535,158.881605 L311.644816,158.881605 C312.300338,158.226084 312.988625,157.678263 313.709699,157.238127 C314.430773,156.797991 315.268892,156.577926 316.22408,156.577926 C317.666228,156.577926 318.719729,157.02742 319.384615,157.926421 C320.049502,158.825423 320.38194,160.155175 320.38194,161.915719 L320.38194,170.568562 L318.078261,170.568562 L318.078261,162.224749 C318.078261,160.932435 317.872243,160.000672 317.460201,159.429431 C317.048158,158.858191 316.392647,158.572575 315.493645,158.572575 C314.781936,158.572575 314.154518,158.7505 313.611371,159.106355 C313.068225,159.462209 312.450171,159.986619 311.757191,160.679599 L311.757191,170.568562 L309.453512,170.568562 L309.453512,156.91505 Z M323.837458,163.7699 C323.837458,162.664877 324.001336,161.667563 324.329097,160.777926 C324.656858,159.88829 325.092305,159.134451 325.635452,158.516388 C326.178598,157.898325 326.806017,157.420737 327.517726,157.083612 C328.229435,156.746487 328.978591,156.577926 329.765217,156.577926 C330.551843,156.577926 331.235449,156.718393 331.816054,156.999331 C332.396658,157.280269 332.986619,157.664212 333.585953,158.151171 L333.473579,155.819398 L333.473579,150.565886 L335.805351,150.565886 L335.805351,170.568562 L333.894983,170.568562 L333.698328,168.967224 L333.614047,168.967224 C333.0709,169.491641 332.448164,169.945817 331.745819,170.329766 C331.043475,170.713714 330.289636,170.905686 329.484281,170.905686 C327.761195,170.905686 326.389303,170.287632 325.368562,169.051505 C324.347821,167.815378 323.837458,166.054861 323.837458,163.7699 Z M326.225418,163.741806 C326.225418,165.389975 326.553174,166.672905 327.208696,167.590635 C327.864217,168.508366 328.791298,168.967224 329.989967,168.967224 C330.626759,168.967224 331.226084,168.812711 331.78796,168.503679 C332.349836,168.194647 332.911703,167.721742 333.473579,167.08495 L333.473579,159.949164 C332.892974,159.424747 332.335789,159.054851 331.802007,158.839465 C331.268225,158.624079 330.720404,158.516388 330.158528,158.516388 C329.615382,158.516388 329.105019,158.642808 328.627425,158.895652 C328.14983,159.148496 327.733112,159.504346 327.377258,159.963211 C327.021403,160.422076 326.740469,160.969896 326.534448,161.606689 C326.328427,162.243481 326.225418,162.95518 326.225418,163.741806 Z M345.076254,163.7699 C345.076254,162.627419 345.254179,161.611376 345.610033,160.721739 C345.965888,159.832103 346.443475,159.078264 347.042809,158.460201 C347.642143,157.842137 348.339795,157.373915 349.135786,157.055518 C349.931777,156.737122 350.769895,156.577926 351.650167,156.577926 C352.549168,156.577926 353.321736,156.741804 353.967893,157.069565 C354.61405,157.397326 355.171235,157.776586 355.639465,158.207358 L354.487625,159.696321 C354.075583,159.340466 353.649501,159.050168 353.209365,158.825418 C352.769229,158.600668 352.277595,158.488294 351.734448,158.488294 C351.116385,158.488294 350.545153,158.614714 350.020736,158.867559 C349.496318,159.120403 349.046825,159.480934 348.672241,159.949164 C348.297657,160.417394 348.002677,160.974579 347.787291,161.620736 C347.571905,162.266893 347.464214,162.983274 347.464214,163.7699 C347.464214,164.556526 347.567223,165.268224 347.773244,165.905017 C347.979265,166.541809 348.264881,167.08963 348.6301,167.548495 C348.99532,168.00736 349.440131,168.363209 349.964548,168.616054 C350.488966,168.868898 351.060198,168.995318 351.678261,168.995318 C352.333783,168.995318 352.928425,168.859533 353.462207,168.58796 C353.995989,168.316387 354.468894,167.993313 354.880936,167.618729 L355.920401,169.135786 C355.302338,169.678932 354.614051,170.109697 353.855518,170.428094 C353.096986,170.74649 352.30569,170.905686 351.481605,170.905686 C350.582604,170.905686 349.739803,170.74649 348.953177,170.428094 C348.166551,170.109697 347.487628,169.646157 346.916388,169.037458 C346.345148,168.428759 345.895654,167.679603 345.567893,166.789967 C345.240132,165.90033 345.076254,164.893651 345.076254,163.7699 Z M357.886957,163.7699 C357.886957,162.627419 358.060199,161.611376 358.406689,160.721739 C358.753179,159.832103 359.21672,159.078264 359.797324,158.460201 C360.377929,157.842137 361.047488,157.373915 361.80602,157.055518 C362.564552,156.737122 363.365213,156.577926 364.208027,156.577926 C365.05084,156.577926 365.851501,156.737122 366.610033,157.055518 C367.368566,157.373915 368.038124,157.842137 368.618729,158.460201 C369.199334,159.078264 369.662875,159.832103 370.009365,160.721739 C370.355855,161.611376 370.529097,162.627419 370.529097,163.7699 C370.529097,164.893651 370.355855,165.90033 370.009365,166.789967 C369.662875,167.679603 369.199334,168.428759 368.618729,169.037458 C368.038124,169.646157 367.368566,170.109697 366.610033,170.428094 C365.851501,170.74649 365.05084,170.905686 364.208027,170.905686 C363.365213,170.905686 362.564552,170.74649 361.80602,170.428094 C361.047488,170.109697 360.377929,169.646157 359.797324,169.037458 C359.21672,168.428759 358.753179,167.679603 358.406689,166.789967 C358.060199,165.90033 357.886957,164.893651 357.886957,163.7699 Z M360.274916,163.7699 C360.274916,164.556526 360.368561,165.268224 360.555853,165.905017 C360.743145,166.541809 361.010032,167.08963 361.356522,167.548495 C361.703012,168.00736 362.11973,168.363209 362.606689,168.616054 C363.093648,168.868898 363.627422,168.995318 364.208027,168.995318 C364.788632,168.995318 365.322406,168.868898 365.809365,168.616054 C366.296324,168.363209 366.713042,168.00736 367.059532,167.548495 C367.406022,167.08963 367.672909,166.541809 367.860201,165.905017 C368.047493,165.268224 368.141137,164.556526 368.141137,163.7699 C368.141137,162.983274 368.047493,162.266893 367.860201,161.620736 C367.672909,160.974579 367.406022,160.417394 367.059532,159.949164 C366.713042,159.480934 366.296324,159.120403 365.809365,158.867559 C365.322406,158.614714 364.788632,158.488294 364.208027,158.488294 C363.627422,158.488294 363.093648,158.614714 362.606689,158.867559 C362.11973,159.120403 361.703012,159.480934 361.356522,159.949164 C361.010032,160.417394 360.743145,160.974579 360.555853,161.620736 C360.368561,162.266893 360.274916,162.983274 360.274916,163.7699 Z M374.125084,150.565886 L376.428763,150.565886 L376.428763,167.983946 C376.428763,168.35853 376.494314,168.620735 376.625418,168.770569 C376.756522,168.920402 376.906354,168.995318 377.074916,168.995318 L377.285619,168.995318 C377.351171,168.995318 377.449498,168.976589 377.580602,168.93913 L377.889632,170.680936 C377.739799,170.755853 377.561874,170.81204 377.355853,170.849498 C377.149832,170.886957 376.887627,170.905686 376.569231,170.905686 C375.688959,170.905686 375.06154,170.643481 374.686957,170.119064 C374.312373,169.594646 374.125084,168.826761 374.125084,167.815385 L374.125084,150.565886 Z M380.277592,163.7699 C380.277592,162.627419 380.450834,161.611376 380.797324,160.721739 C381.143814,159.832103 381.607355,159.078264 382.18796,158.460201 C382.768565,157.842137 383.438123,157.373915 384.196656,157.055518 C384.955188,156.737122 385.755849,156.577926 386.598662,156.577926 C387.441476,156.577926 388.242137,156.737122 389.000669,157.055518 C389.759201,157.373915 390.42876,157.842137 391.009365,158.460201 C391.589969,159.078264 392.05351,159.832103 392.4,160.721739 C392.74649,161.611376 392.919732,162.627419 392.919732,163.7699 C392.919732,164.893651 392.74649,165.90033 392.4,166.789967 C392.05351,167.679603 391.589969,168.428759 391.009365,169.037458 C390.42876,169.646157 389.759201,170.109697 389.000669,170.428094 C388.242137,170.74649 387.441476,170.905686 386.598662,170.905686 C385.755849,170.905686 384.955188,170.74649 384.196656,170.428094 C383.438123,170.109697 382.768565,169.646157 382.18796,169.037458 C381.607355,168.428759 381.143814,167.679603 380.797324,166.789967 C380.450834,165.90033 380.277592,164.893651 380.277592,163.7699 Z M382.665552,163.7699 C382.665552,164.556526 382.759196,165.268224 382.946488,165.905017 C383.13378,166.541809 383.400667,167.08963 383.747157,167.548495 C384.093647,168.00736 384.510365,168.363209 384.997324,168.616054 C385.484283,168.868898 386.018057,168.995318 386.598662,168.995318 C387.179267,168.995318 387.713041,168.868898 388.2,168.616054 C388.686959,168.363209 389.103677,168.00736 389.450167,167.548495 C389.796657,167.08963 390.063544,166.541809 390.250836,165.905017 C390.438128,165.268224 390.531773,164.556526 390.531773,163.7699 C390.531773,162.983274 390.438128,162.266893 390.250836,161.620736 C390.063544,160.974579 389.796657,160.417394 389.450167,159.949164 C389.103677,159.480934 388.686959,159.120403 388.2,158.867559 C387.713041,158.614714 387.179267,158.488294 386.598662,158.488294 C386.018057,158.488294 385.484283,158.614714 384.997324,158.867559 C384.510365,159.120403 384.093647,159.480934 383.747157,159.949164 C383.400667,160.417394 383.13378,160.974579 382.946488,161.620736 C382.759196,162.266893 382.665552,162.983274 382.665552,163.7699 Z M396.515719,156.91505 L398.426087,156.91505 L398.622742,159.387291 L398.707023,159.387291 C399.175253,158.525748 399.741803,157.842143 400.406689,157.336455 C401.071575,156.830767 401.79732,156.577926 402.583946,156.577926 C403.127093,156.577926 403.614045,156.671571 404.044816,156.858863 L403.595318,158.881605 C403.370567,158.806689 403.164549,158.750502 402.977258,158.713043 C402.789966,158.675585 402.555854,158.656856 402.274916,158.656856 C401.694311,158.656856 401.090304,158.890968 400.462876,159.359197 C399.835448,159.827427 399.287628,160.642135 398.819398,161.803344 L398.819398,170.568562 L396.515719,170.568562 L396.515719,156.91505 Z" id="Header-with-backgrou" fill="#FFFFFF"></path>
            <path d="M255.278428,79.4568562 L253.302843,79.4568562 L253.302843,78.0882943 L258.887458,78.0882943 L258.887458,79.4568562 L256.911873,79.4568562 L256.911873,85.2842809 L255.278428,85.2842809 L255.278428,79.4568562 Z M260.013211,78.0882943 L261.635619,78.0882943 L261.635619,80.8585284 L264.118896,80.8585284 L264.118896,78.0882943 L265.752341,78.0882943 L265.752341,85.2842809 L264.118896,85.2842809 L264.118896,82.2822742 L261.635619,82.2822742 L261.635619,85.2842809 L260.013211,85.2842809 L260.013211,78.0882943 Z M267.452007,78.0882943 L269.074415,78.0882943 L269.074415,85.2842809 L267.452007,85.2842809 L267.452007,78.0882943 Z M271.237625,83.2645485 C271.495152,83.4852854 271.780266,83.6655511 272.092977,83.8053512 C272.405687,83.9451512 272.712875,84.0150502 273.014548,84.0150502 C273.353012,84.0150502 273.605016,83.952509 273.770569,83.8274247 C273.936121,83.7023405 274.018896,83.5331114 274.018896,83.3197324 C274.018896,83.209364 273.994984,83.1137128 273.947157,83.0327759 C273.899331,82.9518391 273.829432,82.8801006 273.737458,82.8175585 C273.645484,82.7550164 273.535118,82.6961541 273.406355,82.6409699 L272.981438,82.4588629 L272.043311,82.0615385 C271.859364,81.9879595 271.680937,81.8923083 271.508027,81.7745819 C271.335116,81.6568556 271.180603,81.5188971 271.044482,81.3607023 C270.908361,81.2025076 270.799833,81.0185629 270.718896,80.8088629 C270.637959,80.5991628 270.597492,80.3618742 270.597492,80.09699 C270.597492,79.8026741 270.660033,79.5249177 270.785117,79.2637124 C270.910201,79.0025071 271.086788,78.7744157 271.314883,78.5794314 C271.542978,78.3844472 271.813376,78.2317731 272.126087,78.1214047 C272.438798,78.0110362 272.782774,77.9558528 273.158027,77.9558528 C273.577427,77.9558528 273.991302,78.0367885 274.399666,78.1986622 C274.808029,78.3605359 275.166721,78.5959851 275.475753,78.9050167 L274.647993,79.9314381 C274.412541,79.7474907 274.177091,79.6058533 273.941639,79.5065217 C273.706186,79.4071901 273.444985,79.3575251 273.158027,79.3575251 C272.878427,79.3575251 272.655854,79.4145479 272.490301,79.5285953 C272.324748,79.6426427 272.241973,79.8026746 272.241973,80.0086957 C272.241973,80.1190641 272.269565,80.2128759 272.324749,80.2901338 C272.379933,80.3673917 272.45719,80.4372907 272.556522,80.4998328 C272.655853,80.5623749 272.771738,80.6212372 272.904181,80.6764214 C273.036623,80.7316056 273.1801,80.7923074 273.334615,80.8585284 L274.261706,81.2337793 C274.703179,81.4103688 275.050835,81.6531757 275.304682,81.9622074 C275.55853,82.271239 275.685452,82.6795961 275.685452,83.187291 C275.685452,83.4889647 275.62475,83.7740789 275.503344,84.0426421 C275.381939,84.3112054 275.205352,84.5466545 274.973579,84.7489967 C274.741805,84.9513388 274.456691,85.1132101 274.118227,85.2346154 C273.779764,85.3560207 273.397159,85.4167224 272.970401,85.4167224 C272.499496,85.4167224 272.030437,85.3302684 271.563211,85.1573579 C271.095984,84.9844473 270.67843,84.7250853 270.310535,84.3792642 L271.237625,83.2645485 Z M279.206187,78.0882943 L280.828595,78.0882943 L280.828595,85.2842809 L279.206187,85.2842809 L279.206187,78.0882943 Z M282.991806,83.2645485 C283.249332,83.4852854 283.534447,83.6655511 283.847157,83.8053512 C284.159868,83.9451512 284.467055,84.0150502 284.768729,84.0150502 C285.107192,84.0150502 285.359196,83.952509 285.524749,83.8274247 C285.690302,83.7023405 285.773077,83.5331114 285.773077,83.3197324 C285.773077,83.209364 285.749164,83.1137128 285.701338,83.0327759 C285.653511,82.9518391 285.583612,82.8801006 285.491639,82.8175585 C285.399665,82.7550164 285.289298,82.6961541 285.160535,82.6409699 L284.735619,82.4588629 L283.797492,82.0615385 C283.613544,81.9879595 283.435118,81.8923083 283.262207,81.7745819 C283.089297,81.6568556 282.934783,81.5188971 282.798662,81.3607023 C282.662541,81.2025076 282.554014,81.0185629 282.473077,80.8088629 C282.39214,80.5991628 282.351672,80.3618742 282.351672,80.09699 C282.351672,79.8026741 282.414213,79.5249177 282.539298,79.2637124 C282.664382,79.0025071 282.840969,78.7744157 283.069064,78.5794314 C283.297158,78.3844472 283.567557,78.2317731 283.880268,78.1214047 C284.192978,78.0110362 284.536955,77.9558528 284.912207,77.9558528 C285.331607,77.9558528 285.745483,78.0367885 286.153846,78.1986622 C286.562209,78.3605359 286.920901,78.5959851 287.229933,78.9050167 L286.402174,79.9314381 C286.166721,79.7474907 285.931272,79.6058533 285.695819,79.5065217 C285.460367,79.4071901 285.199165,79.3575251 284.912207,79.3575251 C284.632607,79.3575251 284.410034,79.4145479 284.244482,79.5285953 C284.078929,79.6426427 283.996154,79.8026746 283.996154,80.0086957 C283.996154,80.1190641 284.023746,80.2128759 284.07893,80.2901338 C284.134114,80.3673917 284.211371,80.4372907 284.310702,80.4998328 C284.410034,80.5623749 284.525919,80.6212372 284.658361,80.6764214 C284.790803,80.7316056 284.93428,80.7923074 285.088796,80.8585284 L286.015886,81.2337793 C286.45736,81.4103688 286.805015,81.6531757 287.058863,81.9622074 C287.31271,82.271239 287.439632,82.6795961 287.439632,83.187291 C287.439632,83.4889647 287.37893,83.7740789 287.257525,84.0426421 C287.13612,84.3112054 286.959533,84.5466545 286.727759,84.7489967 C286.495985,84.9513388 286.210871,85.1132101 285.872408,85.2346154 C285.533945,85.3560207 285.15134,85.4167224 284.724582,85.4167224 C284.253677,85.4167224 283.784618,85.3302684 283.317391,85.1573579 C282.850165,84.9844473 282.432611,84.7250853 282.064716,84.3792642 L282.991806,83.2645485 Z M294.006522,82.3043478 L293.84097,81.6421405 C293.737959,81.2816035 293.638629,80.8989987 293.542977,80.4943144 C293.447324,80.0896301 293.351673,79.6996674 293.25602,79.3244147 L293.211873,79.3244147 C293.123578,79.7070253 293.033445,80.0988274 292.941472,80.4998328 C292.849498,80.9008381 292.752007,81.2816035 292.648997,81.6421405 L292.472408,82.3043478 L294.006522,82.3043478 Z M294.337625,83.5735786 L292.141304,83.5735786 L291.699833,85.2842809 L290.044314,85.2842809 L292.295819,78.0882943 L294.249331,78.0882943 L296.500836,85.2842809 L294.779097,85.2842809 L294.337625,83.5735786 Z M299.5801,78.0882943 L301.202508,78.0882943 L301.202508,80.8585284 L303.685786,80.8585284 L303.685786,78.0882943 L305.319231,78.0882943 L305.319231,85.2842809 L303.685786,85.2842809 L303.685786,82.2822742 L301.202508,82.2822742 L301.202508,85.2842809 L299.5801,85.2842809 L299.5801,78.0882943 Z M307.018896,78.0882943 L311.521906,78.0882943 L311.521906,79.4568562 L308.641304,79.4568562 L308.641304,80.9026756 L311.091472,80.9026756 L311.091472,82.2602007 L308.641304,82.2602007 L308.641304,83.9157191 L311.632274,83.9157191 L311.632274,85.2842809 L307.018896,85.2842809 L307.018896,78.0882943 Z M316.113211,82.3043478 L315.947659,81.6421405 C315.844648,81.2816035 315.745318,80.8989987 315.649666,80.4943144 C315.554013,80.0896301 315.458362,79.6996674 315.362709,79.3244147 L315.318562,79.3244147 C315.230267,79.7070253 315.140134,80.0988274 315.048161,80.4998328 C314.956187,80.9008381 314.858696,81.2816035 314.755686,81.6421405 L314.579097,82.3043478 L316.113211,82.3043478 Z M316.444314,83.5735786 L314.247993,83.5735786 L313.806522,85.2842809 L312.151003,85.2842809 L314.402508,78.0882943 L316.35602,78.0882943 L318.607525,85.2842809 L316.885786,85.2842809 L316.444314,83.5735786 Z M319.391137,78.0882943 L321.421906,78.0882943 C321.973749,78.0882943 322.470399,78.1581933 322.911873,78.2979933 C323.353347,78.4377933 323.732273,78.6530086 324.048662,78.9436455 C324.365052,79.2342824 324.607859,79.6040111 324.77709,80.0528428 C324.946322,80.5016745 325.030936,81.035114 325.030936,81.6531773 C325.030936,82.2712405 324.946322,82.8083589 324.77709,83.2645485 C324.607859,83.7207381 324.368731,84.0978246 324.059699,84.3958194 C323.750667,84.6938142 323.380939,84.9163872 322.950502,85.0635452 C322.520065,85.2107031 322.039969,85.2842809 321.510201,85.2842809 L319.391137,85.2842809 L319.391137,78.0882943 Z M321.322575,83.970903 C321.631607,83.970903 321.911203,83.9304352 322.161371,83.8494983 C322.41154,83.7685615 322.624916,83.6379608 322.801505,83.4576923 C322.978095,83.2774238 323.116053,83.0401353 323.215385,82.7458194 C323.314716,82.4515035 323.364381,82.0872931 323.364381,81.6531773 C323.364381,81.2264193 323.314716,80.8677272 323.215385,80.5770903 C323.116053,80.2864534 322.978095,80.0546831 322.801505,79.8817726 C322.624916,79.708862 322.41154,79.5856191 322.161371,79.5120401 C321.911203,79.4384612 321.631607,79.4016722 321.322575,79.4016722 L321.013545,79.4016722 L321.013545,83.970903 L321.322575,83.970903 Z M326.399498,78.0882943 L328.021906,78.0882943 L328.021906,83.9157191 L330.869398,83.9157191 L330.869398,85.2842809 L326.399498,85.2842809 L326.399498,78.0882943 Z M332.116555,78.0882943 L333.738963,78.0882943 L333.738963,85.2842809 L332.116555,85.2842809 L332.116555,78.0882943 Z M335.438629,78.0882943 L337.105184,78.0882943 L338.981438,81.664214 L339.687793,83.2535117 L339.73194,83.2535117 C339.69515,82.8709011 339.652843,82.4441495 339.605017,81.9732441 C339.55719,81.5023388 339.533278,81.0535138 339.533278,80.6267559 L339.533278,78.0882943 L341.078428,78.0882943 L341.078428,85.2842809 L339.411873,85.2842809 L337.535619,81.6973244 L336.829264,80.1301003 L336.785117,80.1301003 C336.821907,80.5274267 336.864214,80.9541783 336.91204,81.4103679 C336.959866,81.8665575 336.983779,82.3080246 336.983779,82.7347826 L336.983779,85.2842809 L335.438629,85.2842809 L335.438629,78.0882943 Z M342.778094,78.0882943 L347.281104,78.0882943 L347.281104,79.4568562 L344.400502,79.4568562 L344.400502,80.9026756 L346.850669,80.9026756 L346.850669,82.2602007 L344.400502,82.2602007 L344.400502,83.9157191 L347.391472,83.9157191 L347.391472,85.2842809 L342.778094,85.2842809 L342.778094,78.0882943 Z" id="THIS-IS-A-HEADLINE" fill="#4990E2"></path>
        </g>
    </g>
</svg>