<?xml version="1.0" encoding="UTF-8"?>
<svg width="600px" height="279px" viewBox="0 0 600 279" version="1.1" xmlns="http://www.w3.org/2000/svg" xmlns:xlink="http://www.w3.org/1999/xlink">
    <!-- Generator: Sketch 44.1 (41455) - http://www.bohemiancoding.com/sketch -->
    <title>headerimages17</title>
    <desc>Created with Sketch.</desc>
    <defs>
        <rect id="path-1" x="364.217252" y="39.2971246" width="177.316294" height="184.984026" rx="13"></rect>
    </defs>
    <g id="Page-1" stroke="none" stroke-width="1" fill="none" fill-rule="evenodd">
        <g id="17">
            <rect id="Rectangle-13" fill="#4990E2" x="0" y="0" width="600" height="278.913738"></rect>
            <path d="M27.3162939,99.6805112 L230.990415,99.6805112" id="Line" stroke-opacity="0.541383605" stroke="#FFFFFF" stroke-width="6" stroke-linecap="square"></path>
            <path d="M27.3162939,112.140575 L139.972803,112.140575" id="Line" stroke-opacity="0.541383605" stroke="#FFFFFF" stroke-width="6" stroke-linecap="square"></path>
            <g id="Group-6" transform="translate(27.795527, 195.527157)">
                <rect id="READ-MORE" fill="#27323A" x="0" y="0" width="96.8051118" height="33.5463259" rx="7"></rect>
                <path d="M19.1693291,12.5980831 L21.285623,12.5980831 C21.8607058,12.5980831 22.3782725,12.6709258 22.8383387,12.8166134 C23.2984049,12.962301 23.6932891,13.18658 24.0230032,13.4894569 C24.3527173,13.7923338 24.6057499,14.1776334 24.7821086,14.6453674 C24.9584673,15.1131014 25.0466454,15.6690064 25.0466454,16.313099 C25.0466454,16.9571917 24.9584673,17.5169305 24.7821086,17.9923323 C24.6057499,18.467734 24.3565511,18.8607013 24.0345048,19.171246 C23.7124585,19.4817907 23.3271588,19.7137373 22.8785942,19.8670927 C22.4300297,20.0204481 21.9297152,20.0971246 21.3776358,20.0971246 L19.1693291,20.0971246 L19.1693291,12.5980831 Z M21.1821086,18.7284345 C21.504155,18.7284345 21.7955259,18.6862624 22.05623,18.6019169 C22.3169342,18.5175715 22.5392962,18.3814706 22.7233227,18.1936102 C22.9073492,18.0057499 23.0511177,17.758468 23.1546326,17.4517572 C23.2581475,17.1450464 23.3099042,16.7654975 23.3099042,16.313099 C23.3099042,15.8683684 23.2581475,15.4945702 23.1546326,15.1916933 C23.0511177,14.8888164 22.9073492,14.6472852 22.7233227,14.4670927 C22.5392962,14.2869001 22.3169342,14.1584668 22.05623,14.0817891 C21.7955259,14.0051114 21.504155,13.9667732 21.1821086,13.9667732 L20.8600639,13.9667732 L20.8600639,18.7284345 L21.1821086,18.7284345 Z M29.5207668,20.2351438 C29.014694,20.2351438 28.5527177,20.1450488 28.1348243,19.9648562 C27.7169308,19.7846636 27.3584679,19.5258803 27.0594249,19.1884984 C26.7603819,18.8511165 26.5284353,18.440897 26.3635783,17.9578275 C26.1987212,17.474758 26.1162939,16.9265206 26.1162939,16.313099 C26.1162939,15.6996774 26.1987212,15.153357 26.3635783,14.6741214 C26.5284353,14.1948858 26.7603819,13.7923339 27.0594249,13.4664537 C27.3584679,13.1405735 27.7169308,12.8913747 28.1348243,12.7188498 C28.5527177,12.546325 29.014694,12.4600639 29.5207668,12.4600639 C30.0268396,12.4600639 30.4888158,12.546325 30.9067093,12.7188498 C31.3246027,12.8913747 31.6830656,13.1424904 31.9821086,13.4722045 C32.2811517,13.8019186 32.5130982,14.2063874 32.6779553,14.685623 C32.8428123,15.1648586 32.9252396,15.7073452 32.9252396,16.313099 C32.9252396,16.9265206 32.8428123,17.474758 32.6779553,17.9578275 C32.5130982,18.440897 32.2811517,18.8511165 31.9821086,19.1884984 C31.6830656,19.5258803 31.3246027,19.7846636 30.9067093,19.9648562 C30.4888158,20.1450488 30.0268396,20.2351438 29.5207668,20.2351438 Z M29.5207668,18.7744409 C30.0345074,18.7744409 30.4408931,18.5539958 30.7399361,18.113099 C31.0389791,17.6722023 31.1884984,17.0722083 31.1884984,16.313099 C31.1884984,15.5616576 31.0389791,14.975082 30.7399361,14.5533546 C30.4408931,14.1316273 30.0345074,13.9207668 29.5207668,13.9207668 C29.0070262,13.9207668 28.6006405,14.1316273 28.3015974,14.5533546 C28.0025544,14.975082 27.8530351,15.5616576 27.8530351,16.313099 C27.8530351,17.0722083 28.0025544,17.6722023 28.3015974,18.113099 C28.6006405,18.5539958 29.0070262,18.7744409 29.5207668,18.7744409 Z M33.6153355,12.5980831 L35.3520767,12.5980831 L35.8696486,16.1060703 C35.9156552,16.4971266 35.9654949,16.8900939 36.0191693,17.284984 C36.0728437,17.6798742 36.1226835,18.0766753 36.1686901,18.4753994 L36.2146965,18.4753994 C36.2913742,18.0766753 36.3661338,17.6798742 36.4389776,17.284984 C36.5118215,16.8900939 36.5865811,16.4971266 36.6632588,16.1060703 L37.4683706,12.5980831 L38.9060703,12.5980831 L39.7111821,16.1060703 C39.7878598,16.4894588 39.8626194,16.8785923 39.9354633,17.2734824 C40.0083071,17.6683726 40.0830667,18.0690076 40.1597444,18.4753994 L40.2057508,18.4753994 C40.2594252,18.0690076 40.3111819,17.6702895 40.3610224,17.2792332 C40.4108629,16.888177 40.4626195,16.4971266 40.5162939,16.1060703 L41.0338658,12.5980831 L42.6555911,12.5980831 L41.3214058,20.0971246 L39.1936102,20.0971246 L38.457508,16.6926518 C38.3961658,16.4012765 38.3405753,16.1079887 38.2907348,15.8127796 C38.2408943,15.5175704 38.1968053,15.2319503 38.1584665,14.9559105 L38.1124601,14.9559105 C38.0664534,15.2319503 38.0185306,15.5175704 37.9686901,15.8127796 C37.9188496,16.1079887 37.8632591,16.4012765 37.8019169,16.6926518 L37.1003195,20.0971246 L35.0070288,20.0971246 L33.6153355,12.5980831 Z M43.6907348,12.5980831 L45.427476,12.5980831 L47.3827476,16.3246006 L48.1188498,17.9808307 L48.1648562,17.9808307 C48.1265174,17.5821066 48.0824284,17.1373826 48.0325879,16.6466454 C47.9827474,16.1559081 47.9578275,15.6881811 47.9578275,15.2434505 L47.9578275,12.5980831 L49.5680511,12.5980831 L49.5680511,20.0971246 L47.8313099,20.0971246 L45.8760383,16.3591054 L45.1399361,14.7258786 L45.0939297,14.7258786 C45.1322686,15.1399382 45.1763576,15.5846622 45.2261981,16.0600639 C45.2760386,16.5354656 45.3009585,16.9955249 45.3009585,17.4402556 L45.3009585,20.0971246 L43.6907348,20.0971246 L43.6907348,12.5980831 Z M51.3392971,12.5980831 L53.0300319,12.5980831 L53.0300319,18.6709265 L55.9974441,18.6709265 L55.9974441,20.0971246 L51.3392971,20.0971246 L51.3392971,12.5980831 Z M60.3450479,20.2351438 C59.8389751,20.2351438 59.3769989,20.1450488 58.9591054,19.9648562 C58.541212,19.7846636 58.1827491,19.5258803 57.8837061,19.1884984 C57.584663,18.8511165 57.3527165,18.440897 57.1878594,17.9578275 C57.0230024,17.474758 56.9405751,16.9265206 56.9405751,16.313099 C56.9405751,15.6996774 57.0230024,15.153357 57.1878594,14.6741214 C57.3527165,14.1948858 57.584663,13.7923339 57.8837061,13.4664537 C58.1827491,13.1405735 58.541212,12.8913747 58.9591054,12.7188498 C59.3769989,12.546325 59.8389751,12.4600639 60.3450479,12.4600639 C60.8511207,12.4600639 61.313097,12.546325 61.7309904,12.7188498 C62.1488839,12.8913747 62.5073467,13.1424904 62.8063898,13.4722045 C63.1054328,13.8019186 63.3373794,14.2063874 63.5022364,14.685623 C63.6670935,15.1648586 63.7495208,15.7073452 63.7495208,16.313099 C63.7495208,16.9265206 63.6670935,17.474758 63.5022364,17.9578275 C63.3373794,18.440897 63.1054328,18.8511165 62.8063898,19.1884984 C62.5073467,19.5258803 62.1488839,19.7846636 61.7309904,19.9648562 C61.313097,20.1450488 60.8511207,20.2351438 60.3450479,20.2351438 Z M60.3450479,18.7744409 C60.8587885,18.7744409 61.2651742,18.5539958 61.5642173,18.113099 C61.8632603,17.6722023 62.0127796,17.0722083 62.0127796,16.313099 C62.0127796,15.5616576 61.8632603,14.975082 61.5642173,14.5533546 C61.2651742,14.1316273 60.8587885,13.9207668 60.3450479,13.9207668 C59.8313073,13.9207668 59.4249216,14.1316273 59.1258786,14.5533546 C58.8268356,14.975082 58.6773163,15.5616576 58.6773163,16.313099 C58.6773163,17.0722083 58.8268356,17.6722023 59.1258786,18.113099 C59.4249216,18.5539958 59.8313073,18.7744409 60.3450479,18.7744409 Z M68.3386581,16.9916933 L68.1661342,16.3015974 C68.0587854,15.9258767 67.9552721,15.5271587 67.8555911,15.1054313 C67.75591,14.683704 67.6562305,14.2773182 67.5565495,13.886262 L67.5105431,13.886262 C67.4185299,14.284986 67.3246011,14.6932886 67.228754,15.1111821 C67.1329069,15.5290756 67.0313104,15.9258767 66.9239617,16.3015974 L66.7399361,16.9916933 L68.3386581,16.9916933 Z M68.6837061,18.314377 L66.3948882,18.314377 L65.9348243,20.0971246 L64.2095847,20.0971246 L66.5559105,12.5980831 L68.5916933,12.5980831 L70.9380192,20.0971246 L69.14377,20.0971246 L68.6837061,18.314377 Z M71.7546326,12.5980831 L73.8709265,12.5980831 C74.4460093,12.5980831 74.963576,12.6709258 75.4236422,12.8166134 C75.8837084,12.962301 76.2785926,13.18658 76.6083067,13.4894569 C76.9380208,13.7923338 77.1910534,14.1776334 77.3674121,14.6453674 C77.5437708,15.1131014 77.6319489,15.6690064 77.6319489,16.313099 C77.6319489,16.9571917 77.5437708,17.5169305 77.3674121,17.9923323 C77.1910534,18.467734 76.9418546,18.8607013 76.6198083,19.171246 C76.297762,19.4817907 75.9124623,19.7137373 75.4638978,19.8670927 C75.0153332,20.0204481 74.5150187,20.0971246 73.9629393,20.0971246 L71.7546326,20.0971246 L71.7546326,12.5980831 Z M73.7674121,18.7284345 C74.0894585,18.7284345 74.3808294,18.6862624 74.6415335,18.6019169 C74.9022377,18.5175715 75.1245997,18.3814706 75.3086262,18.1936102 C75.4926527,18.0057499 75.6364212,17.758468 75.7399361,17.4517572 C75.843451,17.1450464 75.8952077,16.7654975 75.8952077,16.313099 C75.8952077,15.8683684 75.843451,15.4945702 75.7399361,15.1916933 C75.6364212,14.8888164 75.4926527,14.6472852 75.3086262,14.4670927 C75.1245997,14.2869001 74.9022377,14.1584668 74.6415335,14.0817891 C74.3808294,14.0051114 74.0894585,13.9667732 73.7674121,13.9667732 L73.4453674,13.9667732 L73.4453674,18.7284345 L73.7674121,18.7284345 Z" id="DOWNLOAD" fill="#FFFFFF"></path>
            </g>
            <path d="M43.6102236,147.124601 L108.785942,147.124601" id="Line" stroke="#FFFFFF" stroke-width="3" stroke-linecap="square"></path>
            <polyline id="Path-12" stroke="#FFFFFF" stroke-width="2" points="26.8370607 146.131158 29.4903314 148.784429 34.5047923 143.769968"></polyline>
            <path d="M43.6102236,160.543131 L109.744409,160.543131" id="Line" stroke="#FFFFFF" stroke-width="3" stroke-linecap="square"></path>
            <path d="M166.29393,147.124601 L231.469649,147.124601" id="Line" stroke="#FFFFFF" stroke-width="3" stroke-linecap="square"></path>
            <path d="M166.29393,160.543131 L232.428115,160.543131" id="Line" stroke="#FFFFFF" stroke-width="3" stroke-linecap="square"></path>
            <polyline id="Path-12" stroke="#FFFFFF" stroke-width="2" points="26.8370607 159.549689 29.4903314 162.202959 34.5047923 157.188498"></polyline>
            <polyline id="Path-12" stroke="#FFFFFF" stroke-width="2" points="148.5623 146.131158 151.215571 148.784429 156.230032 143.769968"></polyline>
            <polyline id="Path-12" stroke="#FFFFFF" stroke-width="2" points="148.5623 159.549689 151.215571 162.202959 156.230032 157.188498"></polyline>
            <rect id="Rectangle-15" fill="#FFFFFF" x="331.629393" y="55.5910543" width="177.316294" height="184.984026" rx="13"></rect>
            <g id="Rectangle-15">
                <use fill="#F8F8F8" fill-rule="evenodd" xlink:href="#path-1"></use>
                <rect stroke="#E2E2E2" stroke-width="1" x="364.717252" y="39.7971246" width="176.316294" height="183.984026" rx="13"></rect>
            </g>
            <path d="M24.700639,62.3041534 L27.9412141,62.3041534 L27.9412141,67.8373802 L32.901278,67.8373802 L32.901278,62.3041534 L36.1638978,62.3041534 L36.1638978,76.6773163 L32.901278,76.6773163 L32.901278,70.6811502 L27.9412141,70.6811502 L27.9412141,76.6773163 L24.700639,76.6773163 L24.700639,62.3041534 Z M39.5587859,62.3041534 L48.5530351,62.3041534 L48.5530351,65.0376997 L42.799361,65.0376997 L42.799361,67.9255591 L47.6932907,67.9255591 L47.6932907,70.6370607 L42.799361,70.6370607 L42.799361,73.94377 L48.7734824,73.94377 L48.7734824,76.6773163 L39.5587859,76.6773163 L39.5587859,62.3041534 Z M57.7236422,70.7252396 L57.3929712,69.4025559 C57.1872194,68.6824245 56.9888188,67.9182149 56.7977636,67.1099042 C56.6067083,66.3015934 56.4156559,65.5226875 56.2246006,64.7731629 L56.1364217,64.7731629 C55.960063,65.537384 55.7800329,66.319964 55.5963259,67.1209265 C55.4126189,67.921889 55.2178924,68.6824245 55.0121406,69.4025559 L54.6594249,70.7252396 L57.7236422,70.7252396 Z M58.384984,73.2603834 L53.9980831,73.2603834 L53.1162939,76.6773163 L49.8095847,76.6773163 L54.3067093,62.3041534 L58.2086262,62.3041534 L62.7057508,76.6773163 L59.2667732,76.6773163 L58.384984,73.2603834 Z M64.2709265,62.3041534 L68.3271565,62.3041534 C69.4293985,62.3041534 70.4214013,62.4437686 71.3031949,62.7230032 C72.1849884,63.0022378 72.9418499,63.4321057 73.5738019,64.0126198 C74.205754,64.5931339 74.6907331,65.3316249 75.028754,66.228115 C75.3667749,67.1246051 75.5357827,68.1900897 75.5357827,69.4246006 C75.5357827,70.6591116 75.3667749,71.7319443 75.028754,72.643131 C74.6907331,73.5543177 74.2131021,74.307505 73.5958466,74.9027157 C72.9785912,75.4979263 72.2401001,75.9424905 71.3803514,76.2364217 C70.5206027,76.5303529 69.5616666,76.6773163 68.5035144,76.6773163 L64.2709265,76.6773163 L64.2709265,62.3041534 Z M68.128754,74.0539936 C68.7460095,74.0539936 69.3044703,73.9731637 69.8041534,73.8115016 C70.3038364,73.6498394 70.7300302,73.3889794 71.0827476,73.0289137 C71.435465,72.668848 71.7110214,72.1948911 71.9094249,71.6070288 C72.1078285,71.0191664 72.2070288,70.2916976 72.2070288,69.4246006 C72.2070288,68.5722002 72.1078285,67.8557537 71.9094249,67.2752396 C71.7110214,66.6947255 71.435465,66.2317909 71.0827476,65.8864217 C70.7300302,65.5410526 70.3038364,65.2948889 69.8041534,65.1479233 C69.3044703,65.0009577 68.7460095,64.927476 68.128754,64.927476 L67.5115016,64.927476 L67.5115016,74.0539936 L68.128754,74.0539936 Z M78.2693291,62.3041534 L87.2635783,62.3041534 L87.2635783,65.0376997 L81.5099042,65.0376997 L81.5099042,67.9255591 L86.4038339,67.9255591 L86.4038339,70.6370607 L81.5099042,70.6370607 L81.5099042,73.94377 L87.4840256,73.94377 L87.4840256,76.6773163 L78.2693291,76.6773163 L78.2693291,62.3041534 Z M93.5904153,68.9175719 L95.2658147,68.9175719 C96.1182151,68.9175719 96.7685281,68.7375417 97.2167732,68.377476 C97.6650182,68.0174103 97.8891374,67.4846681 97.8891374,66.7792332 C97.8891374,66.0737984 97.6650182,65.581471 97.2167732,65.3022364 C96.7685281,65.0230018 96.1182151,64.8833866 95.2658147,64.8833866 L93.5904153,64.8833866 L93.5904153,68.9175719 Z M98.1316294,76.6773163 L95.3760383,71.4968051 L93.5904153,71.4968051 L93.5904153,76.6773163 L90.3498403,76.6773163 L90.3498403,62.3041534 L95.5303514,62.3041534 C96.2945725,62.3041534 97.011019,62.377635 97.6797125,62.5246006 C98.3484059,62.6715662 98.9325854,62.9177299 99.4322684,63.263099 C99.9319514,63.6084682 100.328753,64.0677288 100.622684,64.6408946 C100.916615,65.2140604 101.063578,65.9268328 101.063578,66.7792332 C101.063578,67.8373855 100.832111,68.7081435 100.369169,69.3915335 C99.9062277,70.0749235 99.2853074,70.5856213 98.5063898,70.9236422 L101.76901,76.6773163 L98.1316294,76.6773163 Z M108.514696,62.3041534 L111.755272,62.3041534 L111.755272,76.6773163 L108.514696,76.6773163 L108.514696,62.3041534 Z M115.15016,62.3041534 L118.589137,62.3041534 L120.992013,68.7632588 L121.851757,71.2763578 L121.939936,71.2763578 L122.799681,68.7632588 L125.136422,62.3041534 L128.553355,62.3041534 L128.553355,76.6773163 L125.533227,76.6773163 L125.533227,71.4086262 C125.533227,71.0559088 125.547923,70.6664558 125.577316,70.2402556 C125.606709,69.8140554 125.64345,69.3841875 125.68754,68.950639 C125.73163,68.5170905 125.775719,68.0908967 125.819808,67.6720447 C125.863898,67.2531928 125.907987,66.8674139 125.952077,66.5146965 L125.863898,66.5146965 L124.673482,69.8434505 L122.46901,75.4207668 L121.168371,75.4207668 L118.963898,69.8434505 L117.817572,66.5146965 L117.729393,66.5146965 C117.773483,66.8674139 117.817572,67.2531928 117.861661,67.6720447 C117.905751,68.0908967 117.946166,68.5170905 117.982907,68.950639 C118.019649,69.3841875 118.052716,69.8140554 118.082109,70.2402556 C118.111502,70.6664558 118.126198,71.0559088 118.126198,71.4086262 L118.126198,76.6773163 L115.15016,76.6773163 L115.15016,62.3041534 Z M138.032588,70.7252396 L137.701917,69.4025559 C137.496165,68.6824245 137.297765,67.9182149 137.106709,67.1099042 C136.915654,66.3015934 136.724602,65.5226875 136.533546,64.7731629 L136.445367,64.7731629 C136.269009,65.537384 136.088979,66.319964 135.905272,67.1209265 C135.721565,67.921889 135.526838,68.6824245 135.321086,69.4025559 L134.968371,70.7252396 L138.032588,70.7252396 Z M138.69393,73.2603834 L134.307029,73.2603834 L133.42524,76.6773163 L130.11853,76.6773163 L134.615655,62.3041534 L138.517572,62.3041534 L143.014696,76.6773163 L139.575719,76.6773163 L138.69393,73.2603834 Z M143.896486,69.5789137 C143.896486,68.3884925 144.083864,67.326682 144.458626,66.3934505 C144.833388,65.460219 145.340412,64.6702908 145.979712,64.0236422 C146.619013,63.3769936 147.368526,62.8846662 148.228275,62.5466454 C149.088023,62.2086245 150.002871,62.0396166 150.972843,62.0396166 C151.986906,62.0396166 152.865012,62.230669 153.607188,62.6127796 C154.349365,62.9948901 154.955589,63.4284321 155.425879,63.9134185 L153.640256,65.9194888 C153.287538,65.581468 152.916456,65.3169339 152.526997,65.1258786 C152.137538,64.9348233 151.634188,64.8392971 151.016933,64.8392971 C150.458464,64.8392971 149.947766,64.9458456 149.484824,65.1589457 C149.021883,65.3720458 148.621407,65.6769948 148.283387,66.0738019 C147.945366,66.470609 147.684506,66.9555882 147.500799,67.528754 C147.317092,68.1019198 147.22524,68.7485587 147.22524,69.4686901 C147.22524,70.9530426 147.559581,72.1030311 148.228275,72.9186901 C148.896968,73.7343491 149.907341,74.1421725 151.259425,74.1421725 C151.553356,74.1421725 151.839935,74.1054317 152.119169,74.0319489 C152.398404,73.9584661 152.626197,73.8482435 152.802556,73.701278 L152.802556,71.2322684 L150.421725,71.2322684 L150.421725,68.586901 L155.668371,68.586901 L155.668371,75.2003195 C155.153991,75.6853059 154.477959,76.0968034 153.640256,76.4348243 C152.802552,76.7728451 151.876682,76.941853 150.86262,76.941853 C149.892647,76.941853 148.985148,76.7838674 148.140096,76.4678914 C147.295044,76.1519154 146.556553,75.6853066 145.924601,75.0680511 C145.292649,74.4507956 144.796647,73.6829119 144.436581,72.764377 C144.076516,71.8458421 143.896486,70.7840316 143.896486,69.5789137 Z M158.644409,62.3041534 L167.638658,62.3041534 L167.638658,65.0376997 L161.884984,65.0376997 L161.884984,67.9255591 L166.778914,67.9255591 L166.778914,70.6370607 L161.884984,70.6370607 L161.884984,73.94377 L167.859105,73.94377 L167.859105,76.6773163 L158.644409,76.6773163 L158.644409,62.3041534 Z M178.550799,68.9175719 L180.226198,68.9175719 C181.078599,68.9175719 181.728911,68.7375417 182.177157,68.377476 C182.625402,68.0174103 182.849521,67.4846681 182.849521,66.7792332 C182.849521,66.0737984 182.625402,65.581471 182.177157,65.3022364 C181.728911,65.0230018 181.078599,64.8833866 180.226198,64.8833866 L178.550799,64.8833866 L178.550799,68.9175719 Z M183.092013,76.6773163 L180.336422,71.4968051 L178.550799,71.4968051 L178.550799,76.6773163 L175.310224,76.6773163 L175.310224,62.3041534 L180.490735,62.3041534 C181.254956,62.3041534 181.971402,62.377635 182.640096,62.5246006 C183.308789,62.6715662 183.892969,62.9177299 184.392652,63.263099 C184.892335,63.6084682 185.289136,64.0677288 185.583067,64.6408946 C185.876998,65.2140604 186.023962,65.9268328 186.023962,66.7792332 C186.023962,67.8373855 185.792494,68.7081435 185.329553,69.3915335 C184.866611,70.0749235 184.245691,70.5856213 183.466773,70.9236422 L186.729393,76.6773163 L183.092013,76.6773163 Z M188.889776,62.3041534 L192.130351,62.3041534 L192.130351,76.6773163 L188.889776,76.6773163 L188.889776,62.3041534 Z M194.841853,69.5789137 C194.841853,68.3884925 195.029231,67.326682 195.403994,66.3934505 C195.778756,65.460219 196.28578,64.6702908 196.92508,64.0236422 C197.56438,63.3769936 198.313893,62.8846662 199.173642,62.5466454 C200.033391,62.2086245 200.948238,62.0396166 201.918211,62.0396166 C202.932273,62.0396166 203.81038,62.230669 204.552556,62.6127796 C205.294732,62.9948901 205.900956,63.4284321 206.371246,63.9134185 L204.585623,65.9194888 C204.232906,65.581468 203.861823,65.3169339 203.472364,65.1258786 C203.082905,64.9348233 202.579556,64.8392971 201.9623,64.8392971 C201.403831,64.8392971 200.893133,64.9458456 200.430192,65.1589457 C199.96725,65.3720458 199.566775,65.6769948 199.228754,66.0738019 C198.890733,66.470609 198.629873,66.9555882 198.446166,67.528754 C198.262459,68.1019198 198.170607,68.7485587 198.170607,69.4686901 C198.170607,70.9530426 198.504949,72.1030311 199.173642,72.9186901 C199.842336,73.7343491 200.852709,74.1421725 202.204792,74.1421725 C202.498724,74.1421725 202.785302,74.1054317 203.064537,74.0319489 C203.343771,73.9584661 203.571565,73.8482435 203.747923,73.701278 L203.747923,71.2322684 L201.367093,71.2322684 L201.367093,68.586901 L206.613738,68.586901 L206.613738,75.2003195 C206.099358,75.6853059 205.423327,76.0968034 204.585623,76.4348243 C203.747919,76.7728451 202.82205,76.941853 201.807987,76.941853 C200.838014,76.941853 199.930515,76.7838674 199.085463,76.4678914 C198.240411,76.1519154 197.50192,75.6853066 196.869968,75.0680511 C196.238016,74.4507956 195.742015,73.6829119 195.381949,72.764377 C195.021883,71.8458421 194.841853,70.7840316 194.841853,69.5789137 Z M209.589776,62.3041534 L212.830351,62.3041534 L212.830351,67.8373802 L217.790415,67.8373802 L217.790415,62.3041534 L221.053035,62.3041534 L221.053035,76.6773163 L217.790415,76.6773163 L217.790415,70.6811502 L212.830351,70.6811502 L212.830351,76.6773163 L209.589776,76.6773163 L209.589776,62.3041534 Z M227.247604,65.0376997 L223.301597,65.0376997 L223.301597,62.3041534 L234.45623,62.3041534 L234.45623,65.0376997 L230.510224,65.0376997 L230.510224,76.6773163 L227.247604,76.6773163 L227.247604,65.0376997 Z" id="HEADER-IMAGE-RIGHT" fill="#FFFFFF"></path>
        </g>
    </g>
</svg>