<?xml version="1.0" encoding="UTF-8"?>
<svg width="600px" height="256px" viewBox="0 0 600 256" version="1.1" xmlns="http://www.w3.org/2000/svg" xmlns:xlink="http://www.w3.org/1999/xlink">
    <!-- Generator: Sketch 44.1 (41455) - http://www.bohemiancoding.com/sketch -->
    <title>headerimages10</title>
    <desc>Created with Sketch.</desc>
    <defs></defs>
    <g id="Page-1" stroke="none" stroke-width="1" fill="none" fill-rule="evenodd">
        <g id="10">
            <rect id="Rectangle-2" fill="#4A4A4A" x="0" y="0" width="600" height="255.852843"></rect>
            <path d="M167.711037,102.911037 L169.543144,102.911037 L169.543144,108.981271 L176.275585,108.981271 L176.275585,102.911037 L178.129766,102.911037 L178.129766,117.391304 L176.275585,117.391304 L176.275585,110.570569 L169.543144,110.570569 L169.543144,117.391304 L167.711037,117.391304 L167.711037,102.911037 Z M181.131773,112.049498 C181.131773,111.166551 181.267892,110.375589 181.540134,109.676589 C181.812376,108.977588 182.172907,108.385287 182.621739,107.899666 C183.070571,107.414044 183.581937,107.042476 184.155853,106.78495 C184.729769,106.527423 185.325749,106.398662 185.943813,106.398662 C186.620739,106.398662 187.227757,106.516387 187.764883,106.751839 C188.302009,106.987292 188.750834,107.32575 189.111371,107.767224 C189.471908,108.208698 189.747825,108.738458 189.93913,109.356522 C190.130436,109.974585 190.226087,110.666217 190.226087,111.431438 C190.226087,111.828765 190.204014,112.159865 190.159866,112.424749 L182.919732,112.424749 C182.993311,113.587297 183.350164,114.50702 183.990301,115.183946 C184.630438,115.860873 185.465547,116.199331 186.495652,116.199331 C187.010705,116.199331 187.485282,116.122074 187.919398,115.967559 C188.353514,115.813043 188.769229,115.610704 189.166555,115.360535 L189.806689,116.552508 C189.335784,116.846824 188.813381,117.104347 188.239465,117.325084 C187.665549,117.545821 187.010706,117.656187 186.274916,117.656187 C185.553843,117.656187 184.880605,117.527426 184.255184,117.2699 C183.629763,117.012373 183.085287,116.644484 182.621739,116.166221 C182.158192,115.687957 181.793981,115.103013 181.529097,114.411371 C181.264213,113.719729 181.131773,112.932446 181.131773,112.049498 Z M188.636789,111.232776 C188.636789,110.129091 188.405019,109.286625 187.941472,108.705351 C187.477924,108.124077 186.82676,107.833445 185.98796,107.833445 C185.605349,107.833445 185.241139,107.910702 184.895318,108.065217 C184.549497,108.219733 184.236791,108.440467 183.957191,108.727425 C183.677591,109.014383 183.44582,109.367556 183.261873,109.786957 C183.077926,110.206357 182.956522,110.688292 182.897659,111.232776 L188.636789,111.232776 Z M192.345151,114.610033 C192.345151,113.43277 192.871232,112.531441 193.923411,111.90602 C194.975591,111.280599 196.649487,110.842811 198.945151,110.592642 C198.945151,110.254179 198.91204,109.923079 198.845819,109.599331 C198.779598,109.275584 198.661874,108.98863 198.492642,108.738462 C198.323411,108.488293 198.098998,108.285954 197.819398,108.131438 C197.539798,107.976922 197.179266,107.899666 196.737793,107.899666 C196.105014,107.899666 195.52007,108.01739 194.982943,108.252843 C194.445817,108.488295 193.963882,108.753176 193.537124,109.047492 L192.808696,107.789298 C193.309033,107.46555 193.919729,107.152844 194.640803,106.851171 C195.361877,106.549497 196.156517,106.398662 197.024749,106.398662 C198.334455,106.398662 199.283609,106.799662 199.872241,107.601672 C200.460873,108.403683 200.755184,109.474241 200.755184,110.813378 L200.755184,117.391304 L199.254181,117.391304 L199.099666,116.111037 L199.055518,116.111037 C198.540466,116.537795 197.984953,116.902005 197.388963,117.203679 C196.792974,117.505353 196.163883,117.656187 195.501672,117.656187 C194.589293,117.656187 193.83512,117.391307 193.23913,116.861538 C192.643141,116.33177 192.345151,115.581276 192.345151,114.610033 Z M194.13311,114.477592 C194.13311,115.095655 194.313376,115.537122 194.673913,115.802007 C195.03445,116.066891 195.479596,116.199331 196.009365,116.199331 C196.524417,116.199331 197.01371,116.077928 197.477258,115.835117 C197.940805,115.592306 198.430098,115.235454 198.945151,114.764548 L198.945151,111.784615 C198.047487,111.902342 197.289635,112.04214 196.671572,112.204013 C196.053509,112.365887 195.556858,112.55719 195.181605,112.777926 C194.806353,112.998663 194.537793,113.252507 194.37592,113.539465 C194.214046,113.826423 194.13311,114.139129 194.13311,114.477592 Z M203.404013,112.049498 C203.404013,111.181267 203.532775,110.397662 203.790301,109.698662 C204.047827,108.999662 204.389964,108.40736 204.816722,107.921739 C205.24348,107.436118 205.736452,107.060871 206.295652,106.795987 C206.854852,106.531102 207.443475,106.398662 208.061538,106.398662 C208.679602,106.398662 209.21672,106.509029 209.67291,106.729766 C210.129099,106.950503 210.59264,107.252172 211.063545,107.634783 L210.975251,105.802676 L210.975251,101.674916 L212.807358,101.674916 L212.807358,117.391304 L211.306355,117.391304 L211.151839,116.13311 L211.085619,116.13311 C210.658861,116.545153 210.169568,116.902005 209.617726,117.203679 C209.065884,117.505353 208.473582,117.656187 207.840803,117.656187 C206.48695,117.656187 205.409034,117.170573 204.607023,116.199331 C203.805013,115.228089 203.404013,113.844825 203.404013,112.049498 Z M205.280268,112.027425 C205.280268,113.322415 205.53779,114.330431 206.052843,115.051505 C206.567896,115.772579 207.296316,116.13311 208.238127,116.13311 C208.738464,116.13311 209.209362,116.011707 209.650836,115.768896 C210.09231,115.526086 210.533777,115.154518 210.975251,114.654181 L210.975251,109.047492 C210.519061,108.635449 210.081273,108.344817 209.661873,108.175585 C209.242473,108.006354 208.812042,107.921739 208.370569,107.921739 C207.943811,107.921739 207.542811,108.021069 207.167559,108.219732 C206.792306,108.418396 206.464884,108.697992 206.185284,109.058528 C205.905684,109.419065 205.684951,109.849496 205.523077,110.349833 C205.361203,110.85017 205.280268,111.409361 205.280268,112.027425 Z M215.632776,112.049498 C215.632776,111.166551 215.768895,110.375589 216.041137,109.676589 C216.313379,108.977588 216.673911,108.385287 217.122742,107.899666 C217.571574,107.414044 218.08294,107.042476 218.656856,106.78495 C219.230772,106.527423 219.826753,106.398662 220.444816,106.398662 C221.121743,106.398662 221.72876,106.516387 222.265886,106.751839 C222.803013,106.987292 223.251838,107.32575 223.612375,107.767224 C223.972912,108.208698 224.248828,108.738458 224.440134,109.356522 C224.631439,109.974585 224.72709,110.666217 224.72709,111.431438 C224.72709,111.828765 224.705017,112.159865 224.66087,112.424749 L217.420736,112.424749 C217.494315,113.587297 217.851167,114.50702 218.491304,115.183946 C219.131441,115.860873 219.96655,116.199331 220.996656,116.199331 C221.511708,116.199331 221.986285,116.122074 222.420401,115.967559 C222.854517,115.813043 223.270232,115.610704 223.667559,115.360535 L224.307692,116.552508 C223.836787,116.846824 223.314384,117.104347 222.740468,117.325084 C222.166552,117.545821 221.511709,117.656187 220.77592,117.656187 C220.054846,117.656187 219.381608,117.527426 218.756187,117.2699 C218.130766,117.012373 217.58629,116.644484 217.122742,116.166221 C216.659195,115.687957 216.294985,115.103013 216.0301,114.411371 C215.765216,113.719729 215.632776,112.932446 215.632776,112.049498 Z M223.137793,111.232776 C223.137793,110.129091 222.906022,109.286625 222.442475,108.705351 C221.978927,108.124077 221.327763,107.833445 220.488963,107.833445 C220.106353,107.833445 219.742142,107.910702 219.396321,108.065217 C219.0505,108.219733 218.737794,108.440467 218.458194,108.727425 C218.178594,109.014383 217.946824,109.367556 217.762876,109.786957 C217.578929,110.206357 217.457525,110.688292 217.398662,111.232776 L223.137793,111.232776 Z M227.37592,106.663545 L228.876923,106.663545 L229.031438,108.60602 L229.097659,108.60602 C229.465554,107.929094 229.9107,107.391975 230.43311,106.994649 C230.955521,106.597322 231.525749,106.398662 232.143813,106.398662 C232.570571,106.398662 232.953176,106.47224 233.291639,106.619398 L232.938462,108.208696 C232.761872,108.149832 232.600001,108.105686 232.452843,108.076254 C232.305685,108.046823 232.12174,108.032107 231.901003,108.032107 C231.444814,108.032107 230.970237,108.216052 230.477258,108.583946 C229.984278,108.951841 229.553848,109.591969 229.185953,110.504348 L229.185953,117.391304 L227.37592,117.391304 L227.37592,106.663545 Z M238.214047,106.663545 L240.068227,106.663545 L241.657525,112.866221 C241.775251,113.381273 241.885618,113.881603 241.988629,114.367224 C242.091639,114.852845 242.194648,115.345817 242.297659,115.846154 L242.385953,115.846154 C242.50368,115.345817 242.621404,114.849166 242.73913,114.356187 C242.856857,113.863208 242.981939,113.366558 243.114381,112.866221 L244.7699,106.663545 L246.535786,106.663545 L248.213378,112.866221 C248.34582,113.381273 248.474581,113.881603 248.599666,114.367224 C248.72475,114.852845 248.846153,115.345817 248.96388,115.846154 L249.052174,115.846154 C249.1699,115.345817 249.280267,114.852845 249.383278,114.367224 C249.486288,113.881603 249.596655,113.381273 249.714381,112.866221 L251.281605,106.663545 L253.003344,106.663545 L250.133779,117.391304 L247.926421,117.391304 L246.381271,111.6301 C246.248829,111.115048 246.127425,110.60736 246.017057,110.107023 C245.906688,109.606686 245.785285,109.084284 245.652843,108.539799 L245.564548,108.539799 C245.446822,109.084284 245.329098,109.610365 245.211371,110.11806 C245.093645,110.625755 244.961205,111.137121 244.814047,111.652174 L243.313043,117.391304 L241.19398,117.391304 L238.214047,106.663545 Z M259.647492,101.719064 L260.971906,101.719064 L255.078261,120.923077 L253.753846,120.923077 L259.647492,101.719064 Z M263.068896,101.674916 L264.87893,101.674916 L264.87893,105.957191 L264.834783,107.899666 C265.320404,107.472908 265.850164,107.116055 266.42408,106.829097 C266.997996,106.542139 267.586619,106.398662 268.189967,106.398662 C268.881609,106.398662 269.492305,106.527423 270.022074,106.78495 C270.551842,107.042476 270.996988,107.410366 271.357525,107.888629 C271.718062,108.366892 271.9903,108.940799 272.174247,109.610368 C272.358195,110.279936 272.450167,111.026752 272.450167,111.850836 C272.450167,112.763215 272.325085,113.57993 272.074916,114.301003 C271.824748,115.022077 271.48629,115.632773 271.059532,116.13311 C270.632774,116.633447 270.139802,117.012373 269.580602,117.2699 C269.021402,117.527426 268.432779,117.656187 267.814716,117.656187 C267.314379,117.656187 266.795655,117.542142 266.258528,117.314047 C265.721402,117.085952 265.217394,116.758531 264.746488,116.331773 L264.680268,116.331773 L264.525753,117.391304 L263.068896,117.391304 L263.068896,101.674916 Z M264.87893,115.007358 C265.349835,115.4194 265.817055,115.710033 266.280602,115.879264 C266.744149,116.048496 267.152507,116.13311 267.505686,116.13311 C267.947159,116.13311 268.355517,116.03378 268.730769,115.835117 C269.106022,115.636454 269.429765,115.356858 269.702007,114.996321 C269.974249,114.635784 270.187625,114.190638 270.34214,113.66087 C270.496656,113.131101 270.573913,112.53512 270.573913,111.87291 C270.573913,111.284278 270.522409,110.74716 270.419398,110.261538 C270.316387,109.775917 270.150837,109.360202 269.922742,109.014381 C269.694648,108.66856 269.400336,108.400001 269.039799,108.208696 C268.679262,108.01739 268.248832,107.921739 267.748495,107.921739 C266.880263,107.921739 265.923751,108.407353 264.87893,109.378595 L264.87893,115.007358 Z M274.789967,114.610033 C274.789967,113.43277 275.316048,112.531441 276.368227,111.90602 C277.420407,111.280599 279.094303,110.842811 281.389967,110.592642 C281.389967,110.254179 281.356857,109.923079 281.290635,109.599331 C281.224414,109.275584 281.10669,108.98863 280.937458,108.738462 C280.768227,108.488293 280.543814,108.285954 280.264214,108.131438 C279.984614,107.976922 279.624082,107.899666 279.182609,107.899666 C278.54983,107.899666 277.964886,108.01739 277.427759,108.252843 C276.890633,108.488295 276.408698,108.753176 275.98194,109.047492 L275.253512,107.789298 C275.753849,107.46555 276.364545,107.152844 277.085619,106.851171 C277.806693,106.549497 278.601333,106.398662 279.469565,106.398662 C280.779271,106.398662 281.728425,106.799662 282.317057,107.601672 C282.905689,108.403683 283.2,109.474241 283.2,110.813378 L283.2,117.391304 L281.698997,117.391304 L281.544482,116.111037 L281.500334,116.111037 C280.985282,116.537795 280.429769,116.902005 279.833779,117.203679 C279.23779,117.505353 278.608699,117.656187 277.946488,117.656187 C277.034109,117.656187 276.279936,117.391307 275.683946,116.861538 C275.087957,116.33177 274.789967,115.581276 274.789967,114.610033 Z M276.577926,114.477592 C276.577926,115.095655 276.758192,115.537122 277.118729,115.802007 C277.479266,116.066891 277.924412,116.199331 278.454181,116.199331 C278.969233,116.199331 279.458526,116.077928 279.922074,115.835117 C280.385621,115.592306 280.874914,115.235454 281.389967,114.764548 L281.389967,111.784615 C280.492303,111.902342 279.734451,112.04214 279.116388,112.204013 C278.498325,112.365887 278.001674,112.55719 277.626421,112.777926 C277.251169,112.998663 276.98261,113.252507 276.820736,113.539465 C276.658862,113.826423 276.577926,114.139129 276.577926,114.477592 Z M285.826756,112.049498 C285.826756,111.151835 285.966554,110.353515 286.246154,109.654515 C286.525754,108.955515 286.901001,108.363213 287.371906,107.877592 C287.842812,107.391971 288.390967,107.024082 289.016388,106.773913 C289.641809,106.523745 290.300331,106.398662 290.991973,106.398662 C291.698331,106.398662 292.305349,106.527423 292.813043,106.78495 C293.320738,107.042476 293.758527,107.340467 294.126421,107.67893 L293.221405,108.848829 C292.897657,108.569229 292.562878,108.341138 292.217057,108.164548 C291.871236,107.987959 291.484952,107.899666 291.058194,107.899666 C290.572573,107.899666 290.123748,107.998996 289.711706,108.197659 C289.299663,108.396322 288.94649,108.679597 288.652174,109.047492 C288.357858,109.415386 288.126088,109.853175 287.956856,110.36087 C287.787625,110.868564 287.70301,111.431435 287.70301,112.049498 C287.70301,112.667562 287.783946,113.226753 287.945819,113.72709 C288.107693,114.227427 288.332106,114.657858 288.619064,115.018395 C288.906022,115.378932 289.255516,115.658527 289.667559,115.857191 C290.079601,116.055854 290.528426,116.155184 291.014047,116.155184 C291.5291,116.155184 291.996319,116.048496 292.415719,115.835117 C292.835119,115.621738 293.206687,115.367894 293.530435,115.073579 L294.347157,116.265552 C293.861536,116.69231 293.320739,117.030768 292.724749,117.280936 C292.12876,117.531105 291.507027,117.656187 290.859532,117.656187 C290.153174,117.656187 289.490973,117.531105 288.87291,117.280936 C288.254846,117.030768 287.721407,116.666558 287.272575,116.188294 C286.823744,115.710031 286.47057,115.121408 286.213043,114.422408 C285.955517,113.723408 285.826756,112.932446 285.826756,112.049498 Z M296.686957,101.674916 L298.474916,101.674916 L298.474916,112.314381 L298.541137,112.314381 L303.110368,106.663545 L305.119064,106.663545 L301.52107,110.967893 L305.604682,117.391304 L303.61806,117.391304 L300.483612,112.226087 L298.474916,114.565886 L298.474916,117.391304 L296.686957,117.391304 L296.686957,101.674916 Z M308.385953,119.201338 C308.385953,119.775254 308.66187,120.231436 309.213712,120.5699 C309.765555,120.908363 310.527085,121.077592 311.498328,121.077592 C312.013381,121.077592 312.4806,121.015051 312.9,120.889967 C313.3194,120.764882 313.676253,120.603011 313.970569,120.404348 C314.264884,120.205685 314.492976,119.973914 314.654849,119.70903 C314.816723,119.444146 314.897659,119.171908 314.897659,118.892308 C314.897659,118.391971 314.713714,118.046155 314.345819,117.854849 C313.977925,117.663544 313.440806,117.567893 312.734448,117.567893 L310.880268,117.567893 C310.674246,117.567893 310.449834,117.556856 310.207023,117.534783 C309.964213,117.512709 309.725085,117.464883 309.489632,117.391304 C309.107021,117.670904 308.827426,117.965216 308.650836,118.274247 C308.474247,118.583279 308.385953,118.892306 308.385953,119.201338 Z M306.796656,119.444147 C306.796656,118.987958 306.936453,118.553848 307.216054,118.141806 C307.495654,117.729764 307.878258,117.354517 308.36388,117.016054 L308.36388,116.927759 C308.098995,116.765885 307.874583,116.541473 307.690635,116.254515 C307.506688,115.967557 307.414716,115.610704 307.414716,115.183946 C307.414716,114.727757 307.539798,114.330436 307.789967,113.991973 C308.040135,113.65351 308.305015,113.38863 308.584615,113.197324 L308.584615,113.10903 C308.231436,112.814714 307.911373,112.421073 307.624415,111.928094 C307.337457,111.435115 307.19398,110.864886 307.19398,110.217391 C307.19398,109.62876 307.300668,109.098999 307.514047,108.628094 C307.727426,108.157188 308.018058,107.756189 308.385953,107.425084 C308.753848,107.093978 309.184278,106.840135 309.677258,106.663545 C310.170237,106.486956 310.68896,106.398662 311.233445,106.398662 C311.527761,106.398662 311.803678,106.424414 312.061204,106.47592 C312.31873,106.527425 312.550501,106.589966 312.756522,106.663545 L316.486957,106.663545 L316.486957,108.054181 L314.279599,108.054181 C314.529767,108.304349 314.739464,108.620734 314.908696,109.003344 C315.077927,109.385955 315.162542,109.805349 315.162542,110.261538 C315.162542,110.835454 315.059533,111.354178 314.853512,111.817726 C314.647491,112.281273 314.367895,112.671236 314.014716,112.987625 C313.661537,113.304015 313.245822,113.550501 312.767559,113.72709 C312.289295,113.90368 311.777929,113.991973 311.233445,113.991973 C310.968561,113.991973 310.696322,113.958863 310.416722,113.892642 C310.137122,113.826421 309.872242,113.734449 309.622074,113.616722 C309.430768,113.778596 309.268897,113.958862 309.136455,114.157525 C309.004013,114.356188 308.937793,114.602674 308.937793,114.89699 C308.937793,115.235453 309.070233,115.515049 309.335117,115.735786 C309.600001,115.956523 310.100331,116.06689 310.83612,116.06689 L312.911037,116.06689 C314.161879,116.06689 315.099997,116.269229 315.725418,116.673913 C316.350839,117.078597 316.663545,117.729761 316.663545,118.627425 C316.663545,119.127762 316.538463,119.602339 316.288294,120.051171 C316.038126,120.500002 315.677594,120.893644 315.206689,121.232107 C314.735784,121.57057 314.165555,121.839129 313.495987,122.037793 C312.826418,122.236456 312.072245,122.335786 311.233445,122.335786 C310.571234,122.335786 309.967896,122.273245 309.423411,122.148161 C308.878927,122.023076 308.411708,121.835453 308.021739,121.585284 C307.631771,121.335116 307.330101,121.033447 307.116722,120.680268 C306.903343,120.327089 306.796656,119.915053 306.796656,119.444147 Z M311.233445,112.777926 C311.542476,112.777926 311.833109,112.719064 312.105351,112.601338 C312.377593,112.483611 312.6204,112.314382 312.833779,112.093645 C313.047158,111.872909 313.212708,111.604349 313.330435,111.28796 C313.448161,110.97157 313.507023,110.614718 313.507023,110.217391 C313.507023,109.422739 313.28629,108.808363 312.844816,108.374247 C312.403342,107.940132 311.866224,107.723077 311.233445,107.723077 C310.600666,107.723077 310.063547,107.940132 309.622074,108.374247 C309.1806,108.808363 308.959866,109.422739 308.959866,110.217391 C308.959866,110.614718 309.018729,110.97157 309.136455,111.28796 C309.254181,111.604349 309.419731,111.872909 309.63311,112.093645 C309.846489,112.314382 310.089296,112.483611 310.361538,112.601338 C310.633781,112.719064 310.924413,112.777926 311.233445,112.777926 Z M318.738462,106.663545 L320.239465,106.663545 L320.39398,108.60602 L320.460201,108.60602 C320.828095,107.929094 321.273242,107.391975 321.795652,106.994649 C322.318063,106.597322 322.888291,106.398662 323.506355,106.398662 C323.933113,106.398662 324.315717,106.47224 324.654181,106.619398 L324.301003,108.208696 C324.124414,108.149832 323.962543,108.105686 323.815385,108.076254 C323.668227,108.046823 323.484282,108.032107 323.263545,108.032107 C322.807356,108.032107 322.332778,108.216052 321.839799,108.583946 C321.34682,108.951841 320.91639,109.591969 320.548495,110.504348 L320.548495,117.391304 L318.738462,117.391304 L318.738462,106.663545 Z M325.603344,112.049498 C325.603344,111.151835 325.739464,110.353515 326.011706,109.654515 C326.283948,108.955515 326.648158,108.363213 327.104348,107.877592 C327.560537,107.391971 328.086619,107.024082 328.682609,106.773913 C329.278598,106.523745 329.907689,106.398662 330.5699,106.398662 C331.23211,106.398662 331.861201,106.523745 332.457191,106.773913 C333.05318,107.024082 333.579262,107.391971 334.035452,107.877592 C334.491641,108.363213 334.855851,108.955515 335.128094,109.654515 C335.400336,110.353515 335.536455,111.151835 335.536455,112.049498 C335.536455,112.932446 335.400336,113.723408 335.128094,114.422408 C334.855851,115.121408 334.491641,115.710031 334.035452,116.188294 C333.579262,116.666558 333.05318,117.030768 332.457191,117.280936 C331.861201,117.531105 331.23211,117.656187 330.5699,117.656187 C329.907689,117.656187 329.278598,117.531105 328.682609,117.280936 C328.086619,117.030768 327.560537,116.666558 327.104348,116.188294 C326.648158,115.710031 326.283948,115.121408 326.011706,114.422408 C325.739464,113.723408 325.603344,112.932446 325.603344,112.049498 Z M327.479599,112.049498 C327.479599,112.667562 327.553177,113.226753 327.700334,113.72709 C327.847492,114.227427 328.057189,114.657858 328.329431,115.018395 C328.601674,115.378932 328.929095,115.658527 329.311706,115.857191 C329.694316,116.055854 330.11371,116.155184 330.5699,116.155184 C331.026089,116.155184 331.445483,116.055854 331.828094,115.857191 C332.210704,115.658527 332.538126,115.378932 332.810368,115.018395 C333.08261,114.657858 333.292307,114.227427 333.439465,113.72709 C333.586623,113.226753 333.660201,112.667562 333.660201,112.049498 C333.660201,111.431435 333.586623,110.868564 333.439465,110.36087 C333.292307,109.853175 333.08261,109.415386 332.810368,109.047492 C332.538126,108.679597 332.210704,108.396322 331.828094,108.197659 C331.445483,107.998996 331.026089,107.899666 330.5699,107.899666 C330.11371,107.899666 329.694316,107.998996 329.311706,108.197659 C328.929095,108.396322 328.601674,108.679597 328.329431,109.047492 C328.057189,109.415386 327.847492,109.853175 327.700334,110.36087 C327.553177,110.868564 327.479599,111.431435 327.479599,112.049498 Z M338.207358,106.663545 L340.039465,106.663545 L340.039465,113.219398 C340.039465,114.234788 340.197657,114.966887 340.514047,115.415719 C340.830436,115.864551 341.341802,116.088963 342.048161,116.088963 C342.607361,116.088963 343.100332,115.945486 343.52709,115.658528 C343.953848,115.37157 344.424747,114.911709 344.939799,114.27893 L344.939799,106.663545 L346.749833,106.663545 L346.749833,117.391304 L345.248829,117.391304 L345.094314,115.713712 L345.028094,115.713712 C344.527757,116.302344 344.001675,116.773242 343.449833,117.126421 C342.897991,117.4796 342.246826,117.656187 341.496321,117.656187 C340.348489,117.656187 339.513381,117.303014 338.99097,116.596656 C338.468559,115.890297 338.207358,114.845492 338.207358,113.462207 L338.207358,106.663545 Z M350.3699,106.663545 L351.870903,106.663545 L352.025418,108.208696 L352.091639,108.208696 C352.606692,107.693643 353.147489,107.263212 353.714047,106.917391 C354.280605,106.57157 354.939127,106.398662 355.689632,106.398662 C356.822748,106.398662 357.650499,106.751836 358.17291,107.458194 C358.69532,108.164552 358.956522,109.209358 358.956522,110.592642 L358.956522,117.391304 L357.146488,117.391304 L357.146488,110.835452 C357.146488,109.820062 356.984617,109.087962 356.66087,108.63913 C356.337122,108.190299 355.822077,107.965886 355.115719,107.965886 C354.556519,107.965886 354.063547,108.105684 353.636789,108.385284 C353.210031,108.664884 352.724417,109.07692 352.179933,109.621405 L352.179933,117.391304 L350.3699,117.391304 L350.3699,106.663545 Z M361.671572,112.049498 C361.671572,111.181267 361.800333,110.397662 362.05786,109.698662 C362.315386,108.999662 362.657523,108.40736 363.084281,107.921739 C363.511039,107.436118 364.004011,107.060871 364.563211,106.795987 C365.122411,106.531102 365.711034,106.398662 366.329097,106.398662 C366.94716,106.398662 367.484279,106.509029 367.940468,106.729766 C368.396658,106.950503 368.860198,107.252172 369.331104,107.634783 L369.242809,105.802676 L369.242809,101.674916 L371.074916,101.674916 L371.074916,117.391304 L369.573913,117.391304 L369.419398,116.13311 L369.353177,116.13311 C368.926419,116.545153 368.437127,116.902005 367.885284,117.203679 C367.333442,117.505353 366.74114,117.656187 366.108361,117.656187 C364.754508,117.656187 363.676593,117.170573 362.874582,116.199331 C362.072571,115.228089 361.671572,113.844825 361.671572,112.049498 Z M363.547826,112.027425 C363.547826,113.322415 363.805349,114.330431 364.320401,115.051505 C364.835454,115.772579 365.563875,116.13311 366.505686,116.13311 C367.006023,116.13311 367.476921,116.011707 367.918395,115.768896 C368.359868,115.526086 368.801336,115.154518 369.242809,114.654181 L369.242809,109.047492 C368.78662,108.635449 368.348832,108.344817 367.929431,108.175585 C367.510031,108.006354 367.079601,107.921739 366.638127,107.921739 C366.211369,107.921739 365.81037,108.021069 365.435117,108.219732 C365.059864,108.418396 364.732443,108.697992 364.452843,109.058528 C364.173243,109.419065 363.952509,109.849496 363.790635,110.349833 C363.628762,110.85017 363.547826,111.409361 363.547826,112.027425 Z M380.080936,104.456187 C379.727757,104.456187 379.429767,104.345821 379.186957,104.125084 C378.944146,103.904347 378.822742,103.624751 378.822742,103.286288 C378.822742,102.933109 378.944146,102.649834 379.186957,102.436455 C379.429767,102.223076 379.727757,102.116388 380.080936,102.116388 C380.434115,102.116388 380.732106,102.223076 380.974916,102.436455 C381.217727,102.649834 381.33913,102.933109 381.33913,103.286288 C381.33913,103.624751 381.217727,103.904347 380.974916,104.125084 C380.732106,104.345821 380.434115,104.456187 380.080936,104.456187 Z M379.153846,106.663545 L380.96388,106.663545 L380.96388,117.391304 L379.153846,117.391304 L379.153846,106.663545 Z M384.583946,106.663545 L386.08495,106.663545 L386.239465,108.208696 L386.305686,108.208696 C386.776591,107.693643 387.287957,107.263212 387.839799,106.917391 C388.391642,106.57157 388.991301,106.398662 389.638796,106.398662 C390.46288,106.398662 391.106687,106.578928 391.570234,106.939465 C392.033782,107.300002 392.375919,107.80401 392.596656,108.451505 C393.155856,107.833442 393.718726,107.336791 394.285284,106.961538 C394.851842,106.586286 395.466217,106.398662 396.128428,106.398662 C397.232113,106.398662 398.052506,106.751836 398.589632,107.458194 C399.126759,108.164552 399.395318,109.209358 399.395318,110.592642 L399.395318,117.391304 L397.585284,117.391304 L397.585284,110.835452 C397.585284,109.820062 397.423413,109.087962 397.099666,108.63913 C396.775918,108.190299 396.275589,107.965886 395.598662,107.965886 C394.789294,107.965886 393.891644,108.51772 392.905686,109.621405 L392.905686,117.391304 L391.095652,117.391304 L391.095652,110.835452 C391.095652,109.820062 390.933781,109.087962 390.610033,108.63913 C390.286286,108.190299 389.778599,107.965886 389.086957,107.965886 C388.277588,107.965886 387.379938,108.51772 386.39398,109.621405 L386.39398,117.391304 L384.583946,117.391304 L384.583946,106.663545 Z M402.353177,114.610033 C402.353177,113.43277 402.879259,112.531441 403.931438,111.90602 C404.983617,111.280599 406.657514,110.842811 408.953177,110.592642 C408.953177,110.254179 408.920067,109.923079 408.853846,109.599331 C408.787625,109.275584 408.669901,108.98863 408.500669,108.738462 C408.331437,108.488293 408.107025,108.285954 407.827425,108.131438 C407.547825,107.976922 407.187293,107.899666 406.745819,107.899666 C406.11304,107.899666 405.528096,108.01739 404.99097,108.252843 C404.453843,108.488295 403.971908,108.753176 403.545151,109.047492 L402.816722,107.789298 C403.317059,107.46555 403.927756,107.152844 404.648829,106.851171 C405.369903,106.549497 406.164544,106.398662 407.032776,106.398662 C408.342481,106.398662 409.291636,106.799662 409.880268,107.601672 C410.468899,108.403683 410.763211,109.474241 410.763211,110.813378 L410.763211,117.391304 L409.262207,117.391304 L409.107692,116.111037 L409.063545,116.111037 C408.548492,116.537795 407.99298,116.902005 407.39699,117.203679 C406.801,117.505353 406.17191,117.656187 405.509699,117.656187 C404.59732,117.656187 403.843147,117.391307 403.247157,116.861538 C402.651168,116.33177 402.353177,115.581276 402.353177,114.610033 Z M404.141137,114.477592 C404.141137,115.095655 404.321403,115.537122 404.68194,115.802007 C405.042477,116.066891 405.487623,116.199331 406.017391,116.199331 C406.532444,116.199331 407.021737,116.077928 407.485284,115.835117 C407.948832,115.592306 408.438125,115.235454 408.953177,114.764548 L408.953177,111.784615 C408.055514,111.902342 407.297662,112.04214 406.679599,112.204013 C406.061535,112.365887 405.564885,112.55719 405.189632,112.777926 C404.814379,112.998663 404.54582,113.252507 404.383946,113.539465 C404.222073,113.826423 404.141137,114.139129 404.141137,114.477592 Z M414.957191,119.201338 C414.957191,119.775254 415.233108,120.231436 415.78495,120.5699 C416.336792,120.908363 417.098323,121.077592 418.069565,121.077592 C418.584618,121.077592 419.051837,121.015051 419.471237,120.889967 C419.890638,120.764882 420.24749,120.603011 420.541806,120.404348 C420.836122,120.205685 421.064213,119.973914 421.226087,119.70903 C421.387961,119.444146 421.468896,119.171908 421.468896,118.892308 C421.468896,118.391971 421.284952,118.046155 420.917057,117.854849 C420.549162,117.663544 420.012044,117.567893 419.305686,117.567893 L417.451505,117.567893 C417.245484,117.567893 417.021071,117.556856 416.778261,117.534783 C416.53545,117.512709 416.296322,117.464883 416.06087,117.391304 C415.678259,117.670904 415.398663,117.965216 415.222074,118.274247 C415.045484,118.583279 414.957191,118.892306 414.957191,119.201338 Z M413.367893,119.444147 C413.367893,118.987958 413.507691,118.553848 413.787291,118.141806 C414.066891,117.729764 414.449496,117.354517 414.935117,117.016054 L414.935117,116.927759 C414.670233,116.765885 414.44582,116.541473 414.261873,116.254515 C414.077926,115.967557 413.985953,115.610704 413.985953,115.183946 C413.985953,114.727757 414.111036,114.330436 414.361204,113.991973 C414.611372,113.65351 414.876253,113.38863 415.155853,113.197324 L415.155853,113.10903 C414.802674,112.814714 414.48261,112.421073 414.195652,111.928094 C413.908694,111.435115 413.765217,110.864886 413.765217,110.217391 C413.765217,109.62876 413.871905,109.098999 414.085284,108.628094 C414.298663,108.157188 414.589296,107.756189 414.957191,107.425084 C415.325085,107.093978 415.755516,106.840135 416.248495,106.663545 C416.741474,106.486956 417.260198,106.398662 417.804682,106.398662 C418.098998,106.398662 418.374915,106.424414 418.632441,106.47592 C418.889968,106.527425 419.121738,106.589966 419.327759,106.663545 L423.058194,106.663545 L423.058194,108.054181 L420.850836,108.054181 C421.101005,108.304349 421.310701,108.620734 421.479933,109.003344 C421.649165,109.385955 421.733779,109.805349 421.733779,110.261538 C421.733779,110.835454 421.63077,111.354178 421.424749,111.817726 C421.218728,112.281273 420.939132,112.671236 420.585953,112.987625 C420.232774,113.304015 419.817059,113.550501 419.338796,113.72709 C418.860533,113.90368 418.349167,113.991973 417.804682,113.991973 C417.539798,113.991973 417.26756,113.958863 416.98796,113.892642 C416.70836,113.826421 416.44348,113.734449 416.193311,113.616722 C416.002006,113.778596 415.840134,113.958862 415.707692,114.157525 C415.57525,114.356188 415.50903,114.602674 415.50903,114.89699 C415.50903,115.235453 415.64147,115.515049 415.906355,115.735786 C416.171239,115.956523 416.671568,116.06689 417.407358,116.06689 L419.482274,116.06689 C420.733117,116.06689 421.671234,116.269229 422.296656,116.673913 C422.922077,117.078597 423.234783,117.729761 423.234783,118.627425 C423.234783,119.127762 423.1097,119.602339 422.859532,120.051171 C422.609363,120.500002 422.248832,120.893644 421.777926,121.232107 C421.307021,121.57057 420.736793,121.839129 420.067224,122.037793 C419.397656,122.236456 418.643482,122.335786 417.804682,122.335786 C417.142472,122.335786 416.539133,122.273245 415.994649,122.148161 C415.450165,122.023076 414.982945,121.835453 414.592977,121.585284 C414.203008,121.335116 413.901339,121.033447 413.68796,120.680268 C413.474581,120.327089 413.367893,119.915053 413.367893,119.444147 Z M417.804682,112.777926 C418.113714,112.777926 418.404346,112.719064 418.676589,112.601338 C418.948831,112.483611 419.191638,112.314382 419.405017,112.093645 C419.618396,111.872909 419.783946,111.604349 419.901672,111.28796 C420.019399,110.97157 420.078261,110.614718 420.078261,110.217391 C420.078261,109.422739 419.857527,108.808363 419.416054,108.374247 C418.97458,107.940132 418.437461,107.723077 417.804682,107.723077 C417.171903,107.723077 416.634785,107.940132 416.193311,108.374247 C415.751837,108.808363 415.531104,109.422739 415.531104,110.217391 C415.531104,110.614718 415.589966,110.97157 415.707692,111.28796 C415.825419,111.604349 415.990969,111.872909 416.204348,112.093645 C416.417727,112.314382 416.660534,112.483611 416.932776,112.601338 C417.205018,112.719064 417.495651,112.777926 417.804682,112.777926 Z M424.51505,112.049498 C424.51505,111.166551 424.651169,110.375589 424.923411,109.676589 C425.195654,108.977588 425.556185,108.385287 426.005017,107.899666 C426.453848,107.414044 426.965215,107.042476 427.53913,106.78495 C428.113046,106.527423 428.709027,106.398662 429.32709,106.398662 C430.004017,106.398662 430.611034,106.516387 431.148161,106.751839 C431.685287,106.987292 432.134112,107.32575 432.494649,107.767224 C432.855186,108.208698 433.131103,108.738458 433.322408,109.356522 C433.513713,109.974585 433.609365,110.666217 433.609365,111.431438 C433.609365,111.828765 433.587291,112.159865 433.543144,112.424749 L426.30301,112.424749 C426.376589,113.587297 426.733442,114.50702 427.373579,115.183946 C428.013716,115.860873 428.848824,116.199331 429.87893,116.199331 C430.393983,116.199331 430.86856,116.122074 431.302676,115.967559 C431.736791,115.813043 432.152506,115.610704 432.549833,115.360535 L433.189967,116.552508 C432.719061,116.846824 432.196658,117.104347 431.622742,117.325084 C431.048827,117.545821 430.393984,117.656187 429.658194,117.656187 C428.93712,117.656187 428.263883,117.527426 427.638462,117.2699 C427.01304,117.012373 426.468564,116.644484 426.005017,116.166221 C425.541469,115.687957 425.177259,115.103013 424.912375,114.411371 C424.64749,113.719729 424.51505,112.932446 424.51505,112.049498 Z M432.020067,111.232776 C432.020067,110.129091 431.788297,109.286625 431.324749,108.705351 C430.861202,108.124077 430.210038,107.833445 429.371237,107.833445 C428.988627,107.833445 428.624416,107.910702 428.278595,108.065217 C427.932774,108.219733 427.620068,108.440467 427.340468,108.727425 C427.060868,109.014383 426.829098,109.367556 426.645151,109.786957 C426.461203,110.206357 426.3398,110.688292 426.280936,111.232776 L432.020067,111.232776 Z" id="Header-w/background" fill="#FFFFFF"></path>
            <path d="M205.183946,141.973244 L395.822038,141.973244" id="Line" stroke="#979797" stroke-width="5" stroke-linecap="square"></path>
        </g>
    </g>
</svg>