<?xml version="1.0" encoding="UTF-8"?>
<svg width="600px" height="257px" viewBox="0 0 600 257" version="1.1" xmlns="http://www.w3.org/2000/svg" xmlns:xlink="http://www.w3.org/1999/xlink">
    <!-- Generator: Sketch 44.1 (41455) - http://www.bohemiancoding.com/sketch -->
    <title>headerimages03</title>
    <desc>Created with Sketch.</desc>
    <defs></defs>
    <g id="Page-1" stroke="none" stroke-width="1" fill="none" fill-rule="evenodd">
        <g id="03">
            <rect id="Rectangle-2" fill="#4A4A4A" x="0" y="0.955183946" width="600" height="255.852843"></rect>
            <path d="M36.6220736,114.882943 L338.955256,114.882943" id="Line" stroke="#979797" stroke-width="5" stroke-linecap="square"></path>
            <path d="M36.6220736,136.406689 L176.094566,136.406689" id="Line" stroke="#979797" stroke-width="5" stroke-linecap="square"></path>
            <g id="Group-3" transform="translate(32.107023, 163.545151)">
                <path d="M27.090301,16.4749164 C27.090301,15.7879564 27.1859522,15.1705713 27.3772575,14.6227425 C27.5685628,14.0749136 27.8337776,13.6097009 28.1729097,13.2270903 C28.5120418,12.8444797 28.9142117,12.5510044 29.3794314,12.3466555 C29.8446512,12.1423067 30.3511678,12.0401338 30.8989967,12.0401338 C31.4207384,12.0401338 31.8772556,12.1466545 32.2685619,12.359699 C32.6598682,12.5727435 32.9816041,12.8183933 33.2337793,13.0966555 L32.6207358,13.7879599 C32.3946477,13.5444804 32.1446502,13.3510041 31.8707358,13.2075251 C31.5968214,13.0640461 31.2772594,12.9923077 30.9120401,12.9923077 C30.5033424,12.9923077 30.1337809,13.0727417 29.8033445,13.233612 C29.472908,13.3944824 29.1903022,13.6249149 28.9555184,13.9249164 C28.7207346,14.2249179 28.5381277,14.5879577 28.4076923,15.0140468 C28.2772569,15.4401359 28.2120401,15.918392 28.2120401,16.4488294 C28.2120401,16.9879626 28.275083,17.4727403 28.4011706,17.9031773 C28.5272582,18.3336142 28.7033434,18.7010018 28.9294314,19.0053512 C29.1555195,19.3097005 29.4316037,19.5444808 29.7576923,19.709699 C30.0837809,19.8749172 30.4511685,19.9575251 30.8598662,19.9575251 C31.2772596,19.9575251 31.6402995,19.8749172 31.9489967,19.709699 C32.2576939,19.5444808 32.5511692,19.3097005 32.8294314,19.0053512 L33.4424749,19.6705686 C33.1033428,20.0618749 32.7207379,20.3662196 32.2946488,20.583612 C31.8685597,20.8010044 31.3816081,20.909699 30.8337793,20.909699 C30.2946461,20.909699 29.796825,20.8097 29.340301,20.609699 C28.883777,20.409698 28.4881288,20.1205705 28.1533445,19.7423077 C27.8185602,19.3640449 27.5576932,18.8988322 27.3707358,18.3466555 C27.1837783,17.7944788 27.090301,17.170572 27.090301,16.4749164 Z M34.4598662,17.5966555 C34.4598662,17.0662181 34.5403002,16.5944837 34.7011706,16.1814381 C34.8620409,15.7683926 35.0772562,15.4183961 35.3468227,15.1314381 C35.6163893,14.8444802 35.9272558,14.627091 36.2794314,14.4792642 C36.6316071,14.3314374 37.0033425,14.2575251 37.3946488,14.2575251 C37.7859551,14.2575251 38.1576905,14.3314374 38.5098662,14.4792642 C38.8620419,14.627091 39.1729084,14.8444802 39.4424749,15.1314381 C39.7120415,15.4183961 39.9272567,15.7683926 40.0881271,16.1814381 C40.2489975,16.5944837 40.3294314,17.0662181 40.3294314,17.5966555 C40.3294314,18.1183973 40.2489975,18.5857839 40.0881271,18.9988294 C39.9272567,19.411875 39.7120415,19.7596976 39.4424749,20.0423077 C39.1729084,20.3249178 38.8620419,20.540133 38.5098662,20.6879599 C38.1576905,20.8357867 37.7859551,20.909699 37.3946488,20.909699 C37.0033425,20.909699 36.6316071,20.8357867 36.2794314,20.6879599 C35.9272558,20.540133 35.6163893,20.3249178 35.3468227,20.0423077 C35.0772562,19.7596976 34.8620409,19.411875 34.7011706,18.9988294 C34.5403002,18.5857839 34.4598662,18.1183973 34.4598662,17.5966555 Z M35.5685619,17.5966555 C35.5685619,17.9618747 35.6120397,18.2923062 35.6989967,18.5879599 C35.7859536,18.8836135 35.9098654,19.1379588 36.0707358,19.3510033 C36.2316062,19.5640479 36.4250825,19.7292636 36.6511706,19.8466555 C36.8772587,19.9640474 37.1250823,20.0227425 37.3946488,20.0227425 C37.6642154,20.0227425 37.912039,19.9640474 38.1381271,19.8466555 C38.3642152,19.7292636 38.5576915,19.5640479 38.7185619,19.3510033 C38.8794322,19.1379588 39.003344,18.8836135 39.090301,18.5879599 C39.177258,18.2923062 39.2207358,17.9618747 39.2207358,17.5966555 C39.2207358,17.2314363 39.177258,16.8988309 39.090301,16.5988294 C39.003344,16.2988279 38.8794322,16.0401349 38.7185619,15.8227425 C38.5576915,15.6053501 38.3642152,15.4379605 38.1381271,15.3205686 C37.912039,15.2031767 37.6642154,15.1444816 37.3946488,15.1444816 C37.1250823,15.1444816 36.8772587,15.2031767 36.6511706,15.3205686 C36.4250825,15.4379605 36.2316062,15.6053501 36.0707358,15.8227425 C35.9098654,16.0401349 35.7859536,16.2988279 35.6989967,16.5988294 C35.6120397,16.8988309 35.5685619,17.2314363 35.5685619,17.5966555 Z M41.9989967,14.4140468 L42.8859532,14.4140468 L42.9772575,15.3270903 L43.016388,15.3270903 C43.3207373,15.022741 43.6402993,14.7683957 43.9750836,14.5640468 C44.3098679,14.359698 44.6989944,14.2575251 45.1424749,14.2575251 C45.8120435,14.2575251 46.301169,14.4662186 46.6098662,14.883612 C46.9185634,15.3010054 47.0729097,15.9183906 47.0729097,16.735786 L47.0729097,20.7531773 L46.0033445,20.7531773 L46.0033445,16.8792642 C46.0033445,16.2792612 45.9076933,15.8466568 45.716388,15.5814381 C45.5250827,15.3162194 45.2207379,15.183612 44.8033445,15.183612 C44.472908,15.183612 44.1816066,15.2662199 43.9294314,15.4314381 C43.6772563,15.5966563 43.3903026,15.8401322 43.0685619,16.1618729 L43.0685619,20.7531773 L41.9989967,20.7531773 L41.9989967,14.4140468 Z M49.316388,15.2879599 L48.3772575,15.2879599 L48.3772575,14.4792642 L49.3685619,14.4140468 L49.4989967,12.6401338 L50.3989967,12.6401338 L50.3989967,14.4140468 L52.1076923,14.4140468 L52.1076923,15.2879599 L50.3989967,15.2879599 L50.3989967,18.809699 C50.3989967,19.2010053 50.4707351,19.5031762 50.614214,19.7162207 C50.757693,19.9292653 51.0120383,20.035786 51.3772575,20.035786 C51.4903016,20.035786 51.6120395,20.0183948 51.7424749,19.983612 C51.8729104,19.9488293 51.9903005,19.9096992 52.0946488,19.8662207 L52.3033445,20.6749164 C52.1294306,20.7357863 51.940302,20.7901335 51.7359532,20.8379599 C51.5316043,20.8857862 51.3294324,20.909699 51.1294314,20.909699 C50.7902993,20.909699 50.5055195,20.8575256 50.2750836,20.7531773 C50.0446477,20.6488289 49.857693,20.5053521 49.714214,20.3227425 C49.5707351,20.1401329 49.4685622,19.918396 49.4076923,19.6575251 C49.3468224,19.3966542 49.316388,19.1097006 49.316388,18.7966555 L49.316388,15.2879599 Z M52.9946488,19.109699 C52.9946488,18.4140433 53.3055153,17.88144 53.9272575,17.5118729 C54.5489998,17.1423058 55.5381203,16.8836128 56.8946488,16.735786 C56.8946488,16.535785 56.8750838,16.3401347 56.8359532,16.1488294 C56.7968225,15.9575241 56.727258,15.7879606 56.6272575,15.6401338 C56.527257,15.492307 56.3946497,15.3727429 56.2294314,15.2814381 C56.0642132,15.1901333 55.8511719,15.1444816 55.590301,15.1444816 C55.2163861,15.1444816 54.8707374,15.2140461 54.5533445,15.3531773 C54.2359516,15.4923084 53.9511718,15.6488286 53.6989967,15.8227425 L53.2685619,15.0792642 C53.5642155,14.8879589 53.9250815,14.7031781 54.3511706,14.5249164 C54.7772597,14.3466546 55.2468202,14.2575251 55.7598662,14.2575251 C56.5337831,14.2575251 57.0946471,14.4944792 57.4424749,14.9683946 C57.7903027,15.4423101 57.964214,16.0749124 57.964214,16.8662207 L57.964214,20.7531773 L57.0772575,20.7531773 L56.9859532,19.9966555 L56.9598662,19.9966555 C56.6555169,20.2488307 56.3272593,20.4640459 55.9750836,20.6423077 C55.6229079,20.8205695 55.2511725,20.909699 54.8598662,20.909699 C54.3207331,20.909699 53.8750854,20.7531788 53.5229097,20.4401338 C53.170734,20.1270887 52.9946488,19.6836149 52.9946488,19.109699 Z M54.0511706,19.0314381 C54.0511706,19.3966573 54.1576912,19.6575243 54.3707358,19.8140468 C54.5837803,19.9705693 54.8468212,20.0488294 55.1598662,20.0488294 C55.4642156,20.0488294 55.7533431,19.977091 56.0272575,19.833612 C56.3011719,19.6901331 56.5902995,19.4792656 56.8946488,19.2010033 L56.8946488,17.4401338 C56.3642114,17.5096993 55.9163898,17.5923072 55.5511706,17.6879599 C55.1859514,17.7836125 54.892476,17.8966549 54.6707358,18.0270903 C54.4489955,18.1575257 54.2903015,18.3075242 54.1946488,18.4770903 C54.0989962,18.6466564 54.0511706,18.8314371 54.0511706,19.0314381 Z M59.516388,17.5966555 C59.516388,17.0662181 59.5989958,16.5944837 59.764214,16.1814381 C59.9294323,15.7683926 60.1511692,15.4183961 60.4294314,15.1314381 C60.7076937,14.8444802 61.0316035,14.627091 61.4011706,14.4792642 C61.7707376,14.3314374 62.1598642,14.2575251 62.5685619,14.2575251 C62.9859553,14.2575251 63.3446473,14.3336113 63.6446488,14.485786 C63.9446503,14.6379606 64.2033434,14.8140458 64.4207358,15.0140468 L63.8859532,15.7053512 C63.6946479,15.540133 63.4968238,15.4053517 63.2924749,15.3010033 C63.0881261,15.196655 62.8598675,15.1444816 62.6076923,15.1444816 C62.3207344,15.1444816 62.0555196,15.2031767 61.8120401,15.3205686 C61.5685607,15.4379605 61.3598671,15.6053501 61.1859532,15.8227425 C61.0120393,16.0401349 60.8750841,16.2988279 60.7750836,16.5988294 C60.6750831,16.8988309 60.6250836,17.2314363 60.6250836,17.5966555 C60.6250836,17.9618747 60.6729092,18.2923062 60.7685619,18.5879599 C60.8642145,18.8836135 60.9968219,19.1379588 61.166388,19.3510033 C61.335954,19.5640479 61.5424737,19.7292636 61.7859532,19.8466555 C62.0294327,19.9640474 62.2946474,20.0227425 62.5816054,20.0227425 C62.8859547,20.0227425 63.1620389,19.9596996 63.4098662,19.833612 C63.6576935,19.7075245 63.8772566,19.557526 64.0685619,19.383612 L64.5511706,20.0879599 C64.2642126,20.340135 63.9446506,20.540133 63.5924749,20.6879599 C63.2402992,20.8357867 62.8729116,20.909699 62.490301,20.909699 C62.0729076,20.909699 61.6816072,20.8357867 61.316388,20.6879599 C60.9511687,20.540133 60.6359545,20.3249178 60.3707358,20.0423077 C60.1055171,19.7596976 59.8968235,19.411875 59.7446488,18.9988294 C59.5924742,18.5857839 59.516388,18.1183973 59.516388,17.5966555 Z M66.116388,15.2879599 L65.1772575,15.2879599 L65.1772575,14.4792642 L66.1685619,14.4140468 L66.2989967,12.6401338 L67.1989967,12.6401338 L67.1989967,14.4140468 L68.9076923,14.4140468 L68.9076923,15.2879599 L67.1989967,15.2879599 L67.1989967,18.809699 C67.1989967,19.2010053 67.2707351,19.5031762 67.414214,19.7162207 C67.557693,19.9292653 67.8120383,20.035786 68.1772575,20.035786 C68.2903016,20.035786 68.4120395,20.0183948 68.5424749,19.983612 C68.6729104,19.9488293 68.7903005,19.9096992 68.8946488,19.8662207 L69.1033445,20.6749164 C68.9294306,20.7357863 68.740302,20.7901335 68.5359532,20.8379599 C68.3316043,20.8857862 68.1294324,20.909699 67.9294314,20.909699 C67.5902993,20.909699 67.3055195,20.8575256 67.0750836,20.7531773 C66.8446477,20.6488289 66.657693,20.5053521 66.514214,20.3227425 C66.3707351,20.1401329 66.2685622,19.918396 66.2076923,19.6575251 C66.1468224,19.3966542 66.116388,19.1097006 66.116388,18.7966555 L66.116388,15.2879599 Z M72.8859532,14.4140468 L73.9685619,14.4140468 L73.9685619,18.2879599 C73.9685619,18.8879629 74.0620392,19.3205672 74.2489967,19.585786 C74.4359541,19.8510047 74.738125,19.983612 75.1555184,19.983612 C75.4859548,19.983612 75.7772563,19.8988303 76.0294314,19.7292642 C76.2816066,19.5596981 76.5598647,19.2879617 76.864214,18.9140468 L76.864214,14.4140468 L77.9337793,14.4140468 L77.9337793,20.7531773 L77.0468227,20.7531773 L76.9555184,19.7618729 L76.916388,19.7618729 C76.6207343,20.1097007 76.3098679,20.3879588 75.9837793,20.5966555 C75.6576907,20.8053522 75.2729119,20.909699 74.8294314,20.909699 C74.1511672,20.909699 73.6576939,20.7010054 73.3489967,20.283612 C73.0402995,19.8662186 72.8859532,19.2488335 72.8859532,18.4314381 L72.8859532,14.4140468 Z M79.9033445,19.3183946 C80.1816067,19.5444827 80.4663865,19.7270896 80.7576923,19.8662207 C81.0489981,20.0053519 81.3859513,20.0749164 81.7685619,20.0749164 C82.1859553,20.0749164 82.4989956,19.9792652 82.7076923,19.7879599 C82.916389,19.5966546 83.0207358,19.3618743 83.0207358,19.083612 C83.0207358,18.9183938 82.977258,18.774917 82.890301,18.6531773 C82.803344,18.5314375 82.6924756,18.4249168 82.5576923,18.333612 C82.422909,18.2423072 82.2685627,18.1618733 82.0946488,18.0923077 L81.5729097,17.883612 C81.3468216,17.8053508 81.1207369,17.7162212 80.8946488,17.6162207 C80.6685607,17.5162202 80.4663889,17.3944823 80.2881271,17.2510033 C80.1098653,17.1075244 79.9642146,16.9401347 79.8511706,16.7488294 C79.7381265,16.5575241 79.6816054,16.3270916 79.6816054,16.0575251 C79.6816054,15.8053499 79.7316049,15.5683958 79.8316054,15.3466555 C79.9316059,15.1249153 80.0750827,14.9336128 80.2620401,14.7727425 C80.4489976,14.6118721 80.6772562,14.4857864 80.9468227,14.3944816 C81.2163893,14.3031768 81.5207341,14.2575251 81.8598662,14.2575251 C82.2598682,14.2575251 82.6272559,14.3270896 82.9620401,14.4662207 C83.2968244,14.6053519 83.585952,14.7749154 83.8294314,14.9749164 L83.3207358,15.6531773 C83.1033434,15.487959 82.8772587,15.3531778 82.6424749,15.2488294 C82.4076911,15.1444811 82.151172,15.0923077 81.8729097,15.0923077 C81.4729077,15.0923077 81.1794324,15.1836111 80.9924749,15.3662207 C80.8055175,15.5488303 80.7120401,15.7618717 80.7120401,16.0053512 C80.7120401,16.153178 80.7511702,16.2814376 80.8294314,16.3901338 C80.9076927,16.49883 81.0120395,16.5944812 81.1424749,16.6770903 C81.2729104,16.7596994 81.4229089,16.8336117 81.5924749,16.8988294 C81.762041,16.9640471 81.9381262,17.0314378 82.1207358,17.1010033 C82.3468239,17.1879603 82.5750825,17.2792637 82.8055184,17.3749164 C83.0359543,17.470569 83.242474,17.5901331 83.4250836,17.733612 C83.6076932,17.877091 83.7576917,18.0531762 83.8750836,18.2618729 C83.9924755,18.4705696 84.0511706,18.722741 84.0511706,19.0183946 C84.0511706,19.2792655 84.0011711,19.5227413 83.9011706,19.7488294 C83.8011701,19.9749175 83.6533455,20.1749155 83.4576923,20.3488294 C83.2620392,20.5227433 83.0185633,20.6596985 82.7272575,20.759699 C82.4359517,20.8596995 82.1033464,20.909699 81.7294314,20.909699 C81.2772553,20.909699 80.8468248,20.8270911 80.4381271,20.6618729 C80.0294294,20.4966547 79.6729112,20.2879611 79.3685619,20.035786 L79.9033445,19.3183946 Z" id="Contact-us" fill="#FFFFFF"></path>
                <rect id="Rectangle-3" stroke="#FFFFFF" x="0.5" y="0.5" width="110.371237" height="32.1103679"></rect>
            </g>
            <path d="M35.5043478,67.4889632 L38.1591973,67.4889632 L38.1591973,72.0220736 L42.2227425,72.0220736 L42.2227425,67.4889632 L44.8956522,67.4889632 L44.8956522,79.264214 L42.2227425,79.264214 L42.2227425,74.3518395 L38.1591973,74.3518395 L38.1591973,79.264214 L35.5043478,79.264214 L35.5043478,67.4889632 Z M47.6769231,67.4889632 L55.0454849,67.4889632 L55.0454849,69.7284281 L50.3317726,69.7284281 L50.3317726,72.0943144 L54.3411371,72.0943144 L54.3411371,74.3157191 L50.3317726,74.3157191 L50.3317726,77.0247492 L55.226087,77.0247492 L55.226087,79.264214 L47.6769231,79.264214 L47.6769231,67.4889632 Z M62.5585284,74.3879599 L62.2876254,73.3043478 C62.1190627,72.7143783 61.9565225,72.0882976 61.8,71.426087 C61.6434775,70.7638763 61.4869573,70.1257556 61.3304348,69.5117057 L61.258194,69.5117057 C61.1137117,70.1377958 60.9662215,70.7789265 60.8157191,71.4351171 C60.6652166,72.0913076 60.5056865,72.7143783 60.3371237,73.3043478 L60.0481605,74.3879599 L62.5585284,74.3879599 Z M63.1003344,76.4648829 L59.5063545,76.4648829 L58.7839465,79.264214 L56.0749164,79.264214 L59.7591973,67.4889632 L62.9558528,67.4889632 L66.6401338,79.264214 L63.8227425,79.264214 L63.1003344,76.4648829 Z M67.922408,67.4889632 L71.2454849,67.4889632 C72.1484995,67.4889632 72.9612004,67.6033433 73.683612,67.832107 C74.4060237,68.0608707 75.0260844,68.4130411 75.5438127,68.8886288 C76.0615411,69.3642164 76.4588615,69.9692271 76.735786,70.7036789 C77.0127104,71.4381308 77.1511706,72.3110317 77.1511706,73.322408 C77.1511706,74.3337843 77.0127104,75.2127053 76.735786,75.9591973 C76.4588615,76.7056894 76.0675611,77.32274 75.5618729,77.8103679 C75.0561848,78.2979957 74.4511741,78.6622062 73.7468227,78.90301 C73.0424714,79.1438139 72.2568605,79.264214 71.3899666,79.264214 L67.922408,79.264214 L67.922408,67.4889632 Z M71.0829431,77.1150502 C71.5886313,77.1150502 72.0461518,77.0488301 72.4555184,76.916388 C72.864885,76.7839458 73.2140454,76.5702356 73.50301,76.2752508 C73.7919747,75.9802661 74.0177249,75.5919757 74.1802676,75.1103679 C74.3428102,74.6287601 74.4240803,74.0327795 74.4240803,73.322408 C74.4240803,72.6240768 74.3428102,72.0371261 74.1802676,71.5615385 C74.0177249,71.0859508 73.7919747,70.7066904 73.50301,70.4237458 C73.2140454,70.1408013 72.864885,69.939131 72.4555184,69.8187291 C72.0461518,69.6983272 71.5886313,69.6381271 71.0829431,69.6381271 L70.5772575,69.6381271 L70.5772575,77.1150502 L71.0829431,77.1150502 Z M79.3906355,67.4889632 L86.7591973,67.4889632 L86.7591973,69.7284281 L82.0454849,69.7284281 L82.0454849,72.0943144 L86.0548495,72.0943144 L86.0548495,74.3157191 L82.0454849,74.3157191 L82.0454849,77.0247492 L86.9397993,77.0247492 L86.9397993,79.264214 L79.3906355,79.264214 L79.3906355,67.4889632 Z M91.9424749,72.9070234 L93.3150502,72.9070234 C94.0133814,72.9070234 94.546152,72.7595332 94.9133779,72.4645485 C95.2806038,72.1695637 95.464214,71.7331133 95.464214,71.1551839 C95.464214,70.5772546 95.2806038,70.1739142 94.9133779,69.9451505 C94.546152,69.7163868 94.0133814,69.6020067 93.3150502,69.6020067 L91.9424749,69.6020067 L91.9424749,72.9070234 Z M95.6628763,79.264214 L93.4053512,75.0200669 L91.9424749,75.0200669 L91.9424749,79.264214 L89.2876254,79.264214 L89.2876254,67.4889632 L93.5317726,67.4889632 C94.1578627,67.4889632 94.7448133,67.5491633 95.2926421,67.6695652 C95.840471,67.7899672 96.3190615,67.9916374 96.7284281,68.2745819 C97.1377947,68.5575265 97.4628751,68.9337769 97.7036789,69.4033445 C97.9444828,69.872912 98.0648829,70.4568527 98.0648829,71.1551839 C98.0648829,72.0220779 97.8752527,72.7354487 97.4959866,73.2953177 C97.1167205,73.8551867 96.6080299,74.2735772 95.9698997,74.5505017 L98.6428094,79.264214 L95.6628763,79.264214 Z M103.031438,67.4889632 L105.758528,67.4889632 L106.571237,72.9973244 C106.643479,73.6113743 106.721739,74.228425 106.80602,74.848495 C106.890301,75.468565 106.968562,76.0916357 107.040803,76.7177258 L107.113043,76.7177258 C107.233445,76.0916357 107.350836,75.468565 107.465217,74.848495 C107.579599,74.228425 107.696989,73.6113743 107.817391,72.9973244 L109.081605,67.4889632 L111.33913,67.4889632 L112.603344,72.9973244 C112.723746,73.5993341 112.841137,74.2103648 112.955518,74.8304348 C113.0699,75.4505048 113.18729,76.0795955 113.307692,76.7177258 L113.379933,76.7177258 C113.464214,76.0795955 113.545485,75.4535148 113.623746,74.8394649 C113.702007,74.225415 113.783277,73.6113743 113.867559,72.9973244 L114.680268,67.4889632 L117.226756,67.4889632 L115.131773,79.264214 L111.790635,79.264214 L110.634783,73.9183946 C110.538461,73.4608673 110.451171,73.0003368 110.37291,72.5367893 C110.294648,72.0732418 110.225418,71.6247513 110.165217,71.1913043 L110.092977,71.1913043 C110.020735,71.6247513 109.945485,72.0732418 109.867224,72.5367893 C109.788963,73.0003368 109.701673,73.4608673 109.605351,73.9183946 L108.503679,79.264214 L105.216722,79.264214 L103.031438,67.4889632 Z M118.852174,67.4889632 L121.507023,67.4889632 L121.507023,79.264214 L118.852174,79.264214 L118.852174,67.4889632 Z M126.58194,69.7284281 L123.349164,69.7284281 L123.349164,67.4889632 L132.487625,67.4889632 L132.487625,69.7284281 L129.254849,69.7284281 L129.254849,79.264214 L126.58194,79.264214 L126.58194,69.7284281 Z M134.329766,67.4889632 L136.984615,67.4889632 L136.984615,72.0220736 L141.048161,72.0220736 L141.048161,67.4889632 L143.72107,67.4889632 L143.72107,79.264214 L141.048161,79.264214 L141.048161,74.3518395 L136.984615,74.3518395 L136.984615,79.264214 L134.329766,79.264214 L134.329766,67.4889632 Z M150.258863,67.4889632 L154.286288,67.4889632 C154.900338,67.4889632 155.469228,67.5341133 155.992977,67.6244147 C156.516725,67.7147162 156.974246,67.8742463 157.365552,68.10301 C157.756858,68.3317737 158.063878,68.6327741 158.286622,69.0060201 C158.509366,69.3792661 158.620736,69.8488266 158.620736,70.4147157 C158.620736,70.6796 158.581606,70.9444803 158.503344,71.2093645 C158.425083,71.4742488 158.307693,71.7210691 158.151171,71.9498328 C157.994648,72.1785965 157.789968,72.3832767 157.537124,72.5638796 C157.28428,72.7444825 156.989299,72.8769227 156.652174,72.961204 L156.652174,73.0334448 C157.494987,73.1899673 158.130098,73.4909677 158.557525,73.9364548 C158.984952,74.381942 159.198662,75.0020027 159.198662,75.7966555 C159.198662,76.3986652 159.081272,76.9163858 158.846488,77.3498328 C158.611705,77.7832798 158.286624,78.1414702 157.871237,78.4244147 C157.455851,78.7073593 156.97124,78.9180595 156.417391,79.0565217 C155.863542,79.194984 155.267562,79.264214 154.629431,79.264214 L150.258863,79.264214 L150.258863,67.4889632 Z M154.159866,72.238796 C154.810037,72.238796 155.282607,72.1093658 155.577592,71.8505017 C155.872577,71.5916375 156.020067,71.2394671 156.020067,70.7939799 C156.020067,70.3484928 155.869567,70.0294324 155.568562,69.8367893 C155.267557,69.6441462 154.804017,69.5478261 154.177926,69.5478261 L152.913712,69.5478261 L152.913712,72.238796 L154.159866,72.238796 Z M154.412709,77.2053512 C155.869573,77.2053512 156.597993,76.6695706 156.597993,75.5979933 C156.597993,75.080265 156.417393,74.7040146 156.056187,74.4692308 C155.694981,74.234447 155.147161,74.1170569 154.412709,74.1170569 L152.913712,74.1170569 L152.913712,77.2053512 L154.412709,77.2053512 Z M166.1699,74.3879599 L165.898997,73.3043478 C165.730434,72.7143783 165.567894,72.0882976 165.411371,71.426087 C165.254849,70.7638763 165.098329,70.1257556 164.941806,69.5117057 L164.869565,69.5117057 C164.725083,70.1377958 164.577593,70.7789265 164.42709,71.4351171 C164.276588,72.0913076 164.117058,72.7143783 163.948495,73.3043478 L163.659532,74.3879599 L166.1699,74.3879599 Z M166.711706,76.4648829 L163.117726,76.4648829 L162.395318,79.264214 L159.686288,79.264214 L163.370569,67.4889632 L166.567224,67.4889632 L170.251505,79.264214 L167.434114,79.264214 L166.711706,76.4648829 Z M170.973913,73.4488294 C170.973913,72.4735737 171.124413,71.6036828 171.425418,70.8391304 C171.726423,70.0745781 172.132773,69.4274274 172.644482,68.8976589 C173.15619,68.3678903 173.752171,67.9645499 174.432441,67.6876254 C175.112712,67.410701 175.832103,67.2722408 176.590635,67.2722408 C177.325087,67.2722408 177.990298,67.425751 178.586288,67.7327759 C179.182277,68.0398009 179.678928,68.3979913 180.076254,68.8073579 L178.613378,70.4508361 C178.312373,70.1739117 178.008363,69.9571914 177.701338,69.8006689 C177.394313,69.6441464 177.036122,69.5658863 176.626756,69.5658863 C176.217389,69.5658863 175.835119,69.6531764 175.479933,69.8277592 C175.124747,70.002342 174.814717,70.2521723 174.549833,70.5772575 C174.284949,70.9023428 174.077258,71.2996632 173.926756,71.7692308 C173.776253,72.2387983 173.701003,72.7685589 173.701003,73.3585284 C173.701003,74.574588 173.959864,75.5167191 174.477592,76.1849498 C174.99532,76.8531806 175.687621,77.187291 176.554515,77.187291 C177.036123,77.187291 177.457523,77.0909709 177.818729,76.8983278 C178.179935,76.7056847 178.505015,76.4528444 178.79398,76.1397993 L180.256856,77.7471572 C179.763208,78.3250865 179.200338,78.758527 178.568227,79.0474916 C177.936117,79.3364563 177.252846,79.4809365 176.518395,79.4809365 C175.759862,79.4809365 175.043482,79.3515063 174.369231,79.0926421 C173.69498,78.833778 173.105019,78.4515075 172.599331,77.9458194 C172.093643,77.4401313 171.696323,76.8110406 171.407358,76.0585284 C171.118393,75.3060163 170.973913,74.4361253 170.973913,73.4488294 Z M182.044816,67.4889632 L184.699666,67.4889632 L184.699666,72.3110368 L184.771906,72.3110368 L188.275585,67.4889632 L191.201338,67.4889632 L187.643478,72.1846154 L191.851505,79.264214 L188.943813,79.264214 L186.072241,74.2976589 L184.699666,76.1036789 L184.699666,79.264214 L182.044816,79.264214 L182.044816,67.4889632 Z M192.573913,73.4488294 C192.573913,72.4735737 192.727423,71.6036828 193.034448,70.8391304 C193.341473,70.0745781 193.756854,69.4274274 194.280602,68.8976589 C194.80435,68.3678903 195.418391,67.9645499 196.122742,67.6876254 C196.827094,67.410701 197.576585,67.2722408 198.371237,67.2722408 C199.202011,67.2722408 199.921402,67.428761 200.529431,67.741806 C201.137461,68.0548511 201.634112,68.4100315 202.019398,68.8073579 L200.556522,70.4508361 C200.267557,70.1739117 199.963547,69.9571914 199.644482,69.8006689 C199.325416,69.6441464 198.913046,69.5658863 198.407358,69.5658863 C197.94983,69.5658863 197.53144,69.6531764 197.152174,69.8277592 C196.772908,70.002342 196.444817,70.2521723 196.167893,70.5772575 C195.890969,70.9023428 195.677258,71.2996632 195.526756,71.7692308 C195.376253,72.2387983 195.301003,72.7685589 195.301003,73.3585284 C195.301003,74.574588 195.574914,75.5167191 196.122742,76.1849498 C196.670571,76.8531806 197.498322,77.187291 198.60602,77.187291 C198.846824,77.187291 199.081604,77.1571909 199.310368,77.09699 C199.539132,77.036789 199.725752,76.9464889 199.870234,76.826087 L199.870234,74.8033445 L197.919732,74.8033445 L197.919732,72.6361204 L202.21806,72.6361204 L202.21806,78.0541806 C201.796653,78.451507 201.242813,78.7886274 200.556522,79.0655518 C199.870231,79.3424763 199.11171,79.4809365 198.280936,79.4809365 C197.486284,79.4809365 196.742813,79.3515063 196.050502,79.0926421 C195.358191,78.833778 194.75318,78.4515075 194.235452,77.9458194 C193.717723,77.4401313 193.311373,76.8110406 193.016388,76.0585284 C192.721403,75.3060163 192.573913,74.4361253 192.573913,73.4488294 Z M207.311037,72.9070234 L208.683612,72.9070234 C209.381943,72.9070234 209.914714,72.7595332 210.28194,72.4645485 C210.649166,72.1695637 210.832776,71.7331133 210.832776,71.1551839 C210.832776,70.5772546 210.649166,70.1739142 210.28194,69.9451505 C209.914714,69.7163868 209.381943,69.6020067 208.683612,69.6020067 L207.311037,69.6020067 L207.311037,72.9070234 Z M211.031438,79.264214 L208.773913,75.0200669 L207.311037,75.0200669 L207.311037,79.264214 L204.656187,79.264214 L204.656187,67.4889632 L208.900334,67.4889632 C209.526425,67.4889632 210.113375,67.5491633 210.661204,67.6695652 C211.209033,67.7899672 211.687623,67.9916374 212.09699,68.2745819 C212.506357,68.5575265 212.831437,68.9337769 213.072241,69.4033445 C213.313045,69.872912 213.433445,70.4568527 213.433445,71.1551839 C213.433445,72.0220779 213.243815,72.7354487 212.864548,73.2953177 C212.485282,73.8551867 211.976592,74.2735772 211.338462,74.5505017 L214.011371,79.264214 L211.031438,79.264214 Z M220.567224,79.4809365 C219.772571,79.4809365 219.04716,79.3394663 218.39097,79.0565217 C217.734779,78.7735772 217.171909,78.3672267 216.702341,77.8374582 C216.232774,77.3076897 215.868563,76.6635489 215.609699,75.9050167 C215.350835,75.1464845 215.221405,74.2856235 215.221405,73.322408 C215.221405,72.3591925 215.350835,71.5013416 215.609699,70.7488294 C215.868563,69.9963173 216.232774,69.3642166 216.702341,68.8525084 C217.171909,68.3408001 217.734779,67.9494997 218.39097,67.6785953 C219.04716,67.407691 219.772571,67.2722408 220.567224,67.2722408 C221.361877,67.2722408 222.087288,67.407691 222.743478,67.6785953 C223.399669,67.9494997 223.962539,68.3438101 224.432107,68.8615385 C224.901675,69.3792668 225.265885,70.0143775 225.524749,70.7668896 C225.783613,71.5194018 225.913043,72.3712327 225.913043,73.322408 C225.913043,74.2856235 225.783613,75.1464845 225.524749,75.9050167 C225.265885,76.6635489 224.901675,77.3076897 224.432107,77.8374582 C223.962539,78.3672267 223.399669,78.7735772 222.743478,79.0565217 C222.087288,79.3394663 221.361877,79.4809365 220.567224,79.4809365 Z M220.567224,77.187291 C221.373917,77.187291 222.012038,76.8411406 222.481605,76.1488294 C222.951173,75.4565183 223.185953,74.5143872 223.185953,73.322408 C223.185953,72.142469 222.951173,71.221408 222.481605,70.5591973 C222.012038,69.8969867 221.373917,69.5658863 220.567224,69.5658863 C219.760531,69.5658863 219.12241,69.8969867 218.652843,70.5591973 C218.183275,71.221408 217.948495,72.142469 217.948495,73.322408 C217.948495,74.5143872 218.183275,75.4565183 218.652843,76.1488294 C219.12241,76.8411406 219.760531,77.187291 220.567224,77.187291 Z M228.062207,67.4889632 L230.735117,67.4889632 L230.735117,74.0809365 C230.735117,75.2367951 230.909697,76.043476 231.258863,76.5010033 C231.608029,76.9585307 232.113709,77.187291 232.77592,77.187291 C233.43813,77.187291 233.949831,76.9585307 234.311037,76.5010033 C234.672243,76.043476 234.852843,75.2367951 234.852843,74.0809365 L234.852843,67.4889632 L237.417391,67.4889632 L237.417391,73.8100334 C237.417391,75.7846253 237.023081,77.2234069 236.234448,78.1264214 C235.445815,79.029436 234.292984,79.4809365 232.77592,79.4809365 C231.246815,79.4809365 230.078934,79.029436 229.272241,78.1264214 C228.465548,77.2234069 228.062207,75.7846253 228.062207,73.8100334 L228.062207,67.4889632 Z M240.144482,67.4889632 L242.871572,67.4889632 L245.941806,73.3404682 L247.097659,75.9411371 L247.1699,75.9411371 C247.109699,75.315047 247.040469,74.6167263 246.962207,73.8461538 C246.883946,73.0755814 246.844816,72.3411406 246.844816,71.6428094 L246.844816,67.4889632 L249.373244,67.4889632 L249.373244,79.264214 L246.646154,79.264214 L243.57592,73.3946488 L242.420067,70.8301003 L242.347826,70.8301003 C242.408027,71.4802708 242.477257,72.1785916 242.555518,72.9250836 C242.63378,73.6715756 242.67291,74.3939764 242.67291,75.0923077 L242.67291,79.264214 L240.144482,79.264214 L240.144482,67.4889632 Z M252.154515,67.4889632 L255.477592,67.4889632 C256.380607,67.4889632 257.193307,67.6033433 257.915719,67.832107 C258.638131,68.0608707 259.258191,68.4130411 259.77592,68.8886288 C260.293648,69.3642164 260.690969,69.9692271 260.967893,70.7036789 C261.244817,71.4381308 261.383278,72.3110317 261.383278,73.322408 C261.383278,74.3337843 261.244817,75.2127053 260.967893,75.9591973 C260.690969,76.7056894 260.299668,77.32274 259.79398,77.8103679 C259.288292,78.2979957 258.683281,78.6622062 257.97893,78.90301 C257.274578,79.1438139 256.488968,79.264214 255.622074,79.264214 L252.154515,79.264214 L252.154515,67.4889632 Z M255.31505,77.1150502 C255.820738,77.1150502 256.278259,77.0488301 256.687625,76.916388 C257.096992,76.7839458 257.446152,76.5702356 257.735117,76.2752508 C258.024082,75.9802661 258.249832,75.5919757 258.412375,75.1103679 C258.574917,74.6287601 258.656187,74.0327795 258.656187,73.322408 C258.656187,72.6240768 258.574917,72.0371261 258.412375,71.5615385 C258.249832,71.0859508 258.024082,70.7066904 257.735117,70.4237458 C257.446152,70.1408013 257.096992,69.939131 256.687625,69.8187291 C256.278259,69.6983272 255.820738,69.6381271 255.31505,69.6381271 L254.809365,69.6381271 L254.809365,77.1150502 L255.31505,77.1150502 Z M263.008696,73.7558528 L267.451505,73.7558528 L267.451505,75.6341137 L263.008696,75.6341137 L263.008696,73.7558528 Z M269.618729,67.4889632 L272.273579,67.4889632 L272.273579,79.264214 L269.618729,79.264214 L269.618729,67.4889632 Z M275.054849,67.4889632 L277.872241,67.4889632 L279.840803,72.780602 L280.545151,74.8394649 L280.617391,74.8394649 L281.321739,72.780602 L283.23612,67.4889632 L286.035452,67.4889632 L286.035452,79.264214 L283.561204,79.264214 L283.561204,74.9478261 C283.561204,74.6588614 283.573244,74.3398011 283.597324,73.9906355 C283.621405,73.6414698 283.651505,73.2892994 283.687625,72.9341137 C283.723746,72.578928 283.759866,72.2297676 283.795987,71.8866221 C283.832107,71.5434765 283.868227,71.2274262 283.904348,70.9384615 L283.832107,70.9384615 L282.856856,73.6655518 L281.050836,78.2347826 L279.985284,78.2347826 L278.179264,73.6655518 L277.240134,70.9384615 L277.167893,70.9384615 C277.204014,71.2274262 277.240134,71.5434765 277.276254,71.8866221 C277.312375,72.2297676 277.345485,72.578928 277.375585,72.9341137 C277.405686,73.2892994 277.432776,73.6414698 277.456856,73.9906355 C277.480937,74.3398011 277.492977,74.6588614 277.492977,74.9478261 L277.492977,79.264214 L275.054849,79.264214 L275.054849,67.4889632 Z M293.801338,74.3879599 L293.530435,73.3043478 C293.361872,72.7143783 293.199332,72.0882976 293.042809,71.426087 C292.886287,70.7638763 292.729767,70.1257556 292.573244,69.5117057 L292.501003,69.5117057 C292.356521,70.1377958 292.209031,70.7789265 292.058528,71.4351171 C291.908026,72.0913076 291.748496,72.7143783 291.579933,73.3043478 L291.29097,74.3879599 L293.801338,74.3879599 Z M294.343144,76.4648829 L290.749164,76.4648829 L290.026756,79.264214 L287.317726,79.264214 L291.002007,67.4889632 L294.198662,67.4889632 L297.882943,79.264214 L295.065552,79.264214 L294.343144,76.4648829 Z M298.605351,73.4488294 C298.605351,72.4735737 298.758861,71.6036828 299.065886,70.8391304 C299.372911,70.0745781 299.788292,69.4274274 300.31204,68.8976589 C300.835789,68.3678903 301.449829,67.9645499 302.154181,67.6876254 C302.858532,67.410701 303.608023,67.2722408 304.402676,67.2722408 C305.233449,67.2722408 305.95284,67.428761 306.56087,67.741806 C307.168899,68.0548511 307.66555,68.4100315 308.050836,68.8073579 L306.58796,70.4508361 C306.298995,70.1739117 305.994985,69.9571914 305.67592,69.8006689 C305.356855,69.6441464 304.944484,69.5658863 304.438796,69.5658863 C303.981269,69.5658863 303.562878,69.6531764 303.183612,69.8277592 C302.804346,70.002342 302.476256,70.2521723 302.199331,70.5772575 C301.922407,70.9023428 301.708696,71.2996632 301.558194,71.7692308 C301.407692,72.2387983 301.332441,72.7685589 301.332441,73.3585284 C301.332441,74.574588 301.606352,75.5167191 302.154181,76.1849498 C302.702009,76.8531806 303.52976,77.187291 304.637458,77.187291 C304.878262,77.187291 305.113042,77.1571909 305.341806,77.09699 C305.57057,77.036789 305.75719,76.9464889 305.901672,76.826087 L305.901672,74.8033445 L303.951171,74.8033445 L303.951171,72.6361204 L308.249498,72.6361204 L308.249498,78.0541806 C307.828092,78.451507 307.274251,78.7886274 306.58796,79.0655518 C305.901669,79.3424763 305.143148,79.4809365 304.312375,79.4809365 C303.517722,79.4809365 302.774251,79.3515063 302.08194,79.0926421 C301.389629,78.833778 300.784618,78.4515075 300.26689,77.9458194 C299.749161,77.4401313 299.342811,76.8110406 299.047826,76.0585284 C298.752841,75.3060163 298.605351,74.4361253 298.605351,73.4488294 Z M310.687625,67.4889632 L318.056187,67.4889632 L318.056187,69.7284281 L313.342475,69.7284281 L313.342475,72.0943144 L317.351839,72.0943144 L317.351839,74.3157191 L313.342475,74.3157191 L313.342475,77.0247492 L318.236789,77.0247492 L318.236789,79.264214 L310.687625,79.264214 L310.687625,67.4889632 Z" id="HEADER-WITH-BACKGROU" fill="#FFFFFF"></path>
        </g>
    </g>
</svg>