<?xml version="1.0" encoding="UTF-8"?>
<svg width="600px" height="256px" viewBox="0 0 600 256" version="1.1" xmlns="http://www.w3.org/2000/svg" xmlns:xlink="http://www.w3.org/1999/xlink">
    <!-- Generator: Sketch 44.1 (41455) - http://www.bohemiancoding.com/sketch -->
    <title>headerimages02</title>
    <desc>Created with Sketch.</desc>
    <defs></defs>
    <g id="Page-1" stroke="none" stroke-width="1" fill="none" fill-rule="evenodd">
        <g id="02">
            <rect id="Rectangle-2" fill="#4A4A4A" x="0" y="0" width="600" height="255.852843"></rect>
            <path d="M33.4615385,112.535117 L36.4866221,112.535117 C37.0284308,112.535117 37.5250814,112.585284 37.9765886,112.685619 C38.4280959,112.785954 38.8118713,112.948996 39.1279264,113.174749 C39.4439815,113.400503 39.6897985,113.698995 39.8653846,114.070234 C40.0409708,114.441473 40.1287625,114.897991 40.1287625,115.439799 C40.1287625,115.961541 40.0409708,116.413042 39.8653846,116.794314 C39.6897985,117.175587 39.4414732,117.491638 39.1204013,117.742475 C38.7993295,117.993312 38.4155541,118.181438 37.9690635,118.306856 C37.522573,118.432275 37.0284308,118.494983 36.4866221,118.494983 L34.7107023,118.494983 L34.7107023,122.408027 L33.4615385,122.408027 L33.4615385,112.535117 Z M36.3361204,117.471572 C37.199001,117.471572 37.8386267,117.30853 38.2550167,116.982441 C38.6714068,116.656353 38.8795987,116.142144 38.8795987,115.439799 C38.8795987,114.727421 38.6688984,114.233279 38.2474916,113.957358 C37.8260848,113.681437 37.1889675,113.543478 36.3361204,113.543478 L34.7107023,113.543478 L34.7107023,117.471572 L36.3361204,117.471572 Z M41.0016722,120.511706 C41.0016722,119.709026 41.3603643,119.094484 42.0777592,118.66806 C42.7951541,118.241637 43.936447,117.943145 45.5016722,117.772575 C45.5016722,117.541805 45.4790972,117.316055 45.4339465,117.095318 C45.3887958,116.874581 45.308529,116.678931 45.1931438,116.508361 C45.0777586,116.337792 44.9247501,116.199833 44.7341137,116.094482 C44.5434773,115.98913 44.2976604,115.936455 43.9966555,115.936455 C43.5652152,115.936455 43.1663898,116.016722 42.8001672,116.177258 C42.4339447,116.337793 42.1053526,116.518394 41.8143813,116.719064 L41.3177258,115.861204 C41.6588646,115.640467 42.0752484,115.427259 42.5668896,115.221572 C43.0585309,115.015885 43.6003315,114.913043 44.1923077,114.913043 C45.0852887,114.913043 45.7324395,115.186452 46.1337793,115.733278 C46.5351191,116.280103 46.735786,117.010029 46.735786,117.923077 L46.735786,122.408027 L45.7123746,122.408027 L45.6070234,121.535117 L45.5769231,121.535117 C45.2257508,121.826088 44.846992,122.074414 44.4406355,122.2801 C44.0342789,122.485787 43.6053534,122.588629 43.1538462,122.588629 C42.5317695,122.588629 42.0175606,122.408029 41.611204,122.046823 C41.2048475,121.685617 41.0016722,121.173916 41.0016722,120.511706 Z M42.2207358,120.421405 C42.2207358,120.842811 42.3436443,121.143812 42.5894649,121.324415 C42.8352855,121.505018 43.1387942,121.595318 43.5,121.595318 C43.8511723,121.595318 44.184781,121.512543 44.5008361,121.34699 C44.8168912,121.181437 45.1504999,120.938129 45.5016722,120.617057 L45.5016722,118.585284 C44.889629,118.665552 44.3729118,118.760869 43.951505,118.871237 C43.5300982,118.981606 43.1914729,119.112039 42.9356187,119.262542 C42.6797646,119.413044 42.4966561,119.586119 42.3862876,119.781773 C42.2759192,119.977426 42.2207358,120.190634 42.2207358,120.421405 Z M49.5953177,123.64214 C49.5953177,124.033447 49.7834429,124.34448 50.159699,124.575251 C50.5359551,124.806021 51.0551806,124.921405 51.7173913,124.921405 C52.0685636,124.921405 52.3871223,124.878763 52.6730769,124.793478 C52.9590315,124.708194 53.2023401,124.597827 53.40301,124.462375 C53.6036799,124.326922 53.7591968,124.168897 53.8695652,123.988294 C53.9799337,123.807691 54.0351171,123.622075 54.0351171,123.431438 C54.0351171,123.090299 53.9097003,122.854516 53.6588629,122.72408 C53.4080255,122.593645 53.0418084,122.528428 52.5602007,122.528428 L51.2959866,122.528428 C51.1555177,122.528428 51.0025092,122.520903 50.8369565,122.505853 C50.6714039,122.490803 50.508362,122.458194 50.3478261,122.408027 C50.0869552,122.598663 49.8963217,122.79933 49.7759197,123.010033 C49.6555178,123.220737 49.5953177,123.431437 49.5953177,123.64214 Z M48.5117057,123.807692 C48.5117057,123.496654 48.6070225,123.20067 48.7976589,122.919732 C48.9882953,122.638795 49.2491622,122.382944 49.5802676,122.152174 L49.5802676,122.091973 C49.3996646,121.981605 49.2466561,121.828596 49.1212375,121.632943 C48.9958188,121.43729 48.9331104,121.193981 48.9331104,120.90301 C48.9331104,120.591972 49.0183938,120.321071 49.1889632,120.090301 C49.3595326,119.859531 49.5401328,119.67893 49.7307692,119.548495 L49.7307692,119.488294 C49.4899654,119.287624 49.2717401,119.019232 49.076087,118.68311 C48.8804338,118.346988 48.7826087,117.958196 48.7826087,117.516722 C48.7826087,117.115383 48.8553504,116.754182 49.0008361,116.43311 C49.1463218,116.112039 49.3444804,115.83863 49.5953177,115.612876 C49.8461551,115.387123 50.1396304,115.214047 50.4757525,115.093645 C50.8118746,114.973244 51.16555,114.913043 51.5367893,114.913043 C51.7374592,114.913043 51.9255844,114.930602 52.1011706,114.965719 C52.2767567,115.000836 52.4347819,115.043478 52.5752508,115.093645 L55.1187291,115.093645 L55.1187291,116.041806 L53.6137124,116.041806 C53.7842818,116.212375 53.9272569,116.428092 54.0426421,116.688963 C54.1580273,116.949834 54.2157191,117.235784 54.2157191,117.546823 C54.2157191,117.938129 54.1454857,118.291804 54.0050167,118.60786 C53.8645478,118.923915 53.6739142,119.189798 53.4331104,119.405518 C53.1923065,119.621239 52.9088645,119.789297 52.5827759,119.909699 C52.2566873,120.030101 51.9080286,120.090301 51.5367893,120.090301 C51.3561864,120.090301 51.1705695,120.067726 50.9799331,120.022575 C50.7892967,119.977425 50.6086965,119.914716 50.4381271,119.834448 C50.3076917,119.944817 50.1973249,120.067725 50.1070234,120.203177 C50.016722,120.338629 49.9715719,120.506688 49.9715719,120.707358 C49.9715719,120.938128 50.061872,121.128762 50.2424749,121.279264 C50.4230778,121.429767 50.7642115,121.505017 51.2658863,121.505017 L52.680602,121.505017 C53.5334491,121.505017 54.1730748,121.642975 54.5994983,121.918896 C55.0259219,122.194817 55.2391304,122.638793 55.2391304,123.250836 C55.2391304,123.591975 55.153847,123.91555 54.9832776,124.221572 C54.8127082,124.527594 54.5668912,124.795985 54.2458194,125.026756 C53.9247476,125.257526 53.5359555,125.440635 53.0794314,125.576087 C52.6229074,125.711539 52.1086985,125.779264 51.5367893,125.779264 C51.085282,125.779264 50.6739149,125.736623 50.3026756,125.651338 C49.9314363,125.566053 49.6128776,125.438128 49.34699,125.267559 C49.0811023,125.096989 48.8754188,124.891306 48.7299331,124.650502 C48.5844474,124.409698 48.5117057,124.128764 48.5117057,123.807692 Z M51.5367893,119.262542 C51.7474927,119.262542 51.9456512,119.222408 52.1312709,119.14214 C52.3168906,119.061873 52.4824407,118.946489 52.6279264,118.795987 C52.7734121,118.645484 52.8862872,118.462376 52.9665552,118.246656 C53.0468231,118.030935 53.0869565,117.787627 53.0869565,117.516722 C53.0869565,116.974914 52.9364564,116.556022 52.6354515,116.260033 C52.3344467,115.964045 51.9682296,115.816054 51.5367893,115.816054 C51.105349,115.816054 50.7391319,115.964045 50.4381271,116.260033 C50.1371222,116.556022 49.9866221,116.974914 49.9866221,117.516722 C49.9866221,117.787627 50.0267555,118.030935 50.1070234,118.246656 C50.1872914,118.462376 50.3001665,118.645484 50.4456522,118.795987 C50.5911379,118.946489 50.756688,119.061873 50.9423077,119.14214 C51.1279273,119.222408 51.3260859,119.262542 51.5367893,119.262542 Z M55.9013378,118.765886 C55.9013378,118.163877 55.9941462,117.624584 56.1797659,117.147993 C56.3653855,116.671402 56.6112025,116.26756 56.9172241,115.936455 C57.2232457,115.60535 57.5719044,115.352008 57.9632107,115.176421 C58.354517,115.000835 58.7608675,114.913043 59.1822742,114.913043 C59.643815,114.913043 60.0576905,114.99331 60.423913,115.153846 C60.7901356,115.314382 61.0961526,115.545149 61.3419732,115.846154 C61.5877939,116.147159 61.7759191,116.508359 61.9063545,116.929766 C62.0367899,117.351173 62.1020067,117.82274 62.1020067,118.344482 C62.1020067,118.615386 62.0869567,118.841136 62.0568562,119.021739 L57.1204013,119.021739 C57.1705688,119.814385 57.4138774,120.441469 57.8503344,120.90301 C58.2867915,121.364551 58.8561838,121.595318 59.5585284,121.595318 C59.9097008,121.595318 60.2332761,121.542643 60.5292642,121.437291 C60.8252523,121.331939 61.1086943,121.193981 61.3795987,121.023411 L61.8160535,121.83612 C61.4949817,122.03679 61.1387979,122.212374 60.7474916,122.362876 C60.3561853,122.513379 59.9097015,122.588629 59.4080268,122.588629 C58.9163855,122.588629 58.45736,122.500837 58.0309365,122.325251 C57.6045129,122.149665 57.2332792,121.898831 56.9172241,121.572742 C56.601169,121.246654 56.3528437,120.847828 56.1722408,120.376254 C55.9916379,119.90468 55.9013378,119.367896 55.9013378,118.765886 Z M61.0183946,118.20903 C61.0183946,117.456518 60.8603695,116.882109 60.5443144,116.485786 C60.2282593,116.089463 59.7842838,115.891304 59.2123746,115.891304 C58.9515037,115.891304 58.7031784,115.943979 58.4673913,116.049331 C58.2316042,116.154683 58.0183956,116.305183 57.8277592,116.500836 C57.6371228,116.696489 57.4790976,116.93729 57.3536789,117.223244 C57.2282602,117.509199 57.1454852,117.837791 57.1053512,118.20903 L61.0183946,118.20903 Z M67.1588629,116.102007 L66.0752508,116.102007 L66.0752508,115.168896 L67.2190635,115.093645 L67.3695652,113.046823 L68.4080268,113.046823 L68.4080268,115.093645 L70.3795987,115.093645 L70.3795987,116.102007 L68.4080268,116.102007 L68.4080268,120.165552 C68.4080268,120.617059 68.4908018,120.965718 68.6563545,121.211538 C68.8219072,121.457359 69.1153825,121.580268 69.5367893,121.580268 C69.6672247,121.580268 69.8076916,121.560201 69.958194,121.520067 C70.1086964,121.479933 70.2441466,121.434783 70.3645485,121.384615 L70.6053512,122.317726 C70.4046813,122.38796 70.186456,122.450669 69.9506689,122.505853 C69.7148818,122.561037 69.4816065,122.588629 69.2508361,122.588629 C68.8595298,122.588629 68.5309378,122.528429 68.2650502,122.408027 C67.9991626,122.287625 67.7834456,122.122075 67.617893,121.911371 C67.4523403,121.700668 67.3344485,121.444818 67.264214,121.143813 C67.1939796,120.842808 67.1588629,120.511707 67.1588629,120.150502 L67.1588629,116.102007 Z M72.6672241,113.588629 C72.4264202,113.588629 72.223245,113.513379 72.0576923,113.362876 C71.8921396,113.212374 71.8093645,113.02174 71.8093645,112.79097 C71.8093645,112.550166 71.8921396,112.357024 72.0576923,112.211538 C72.223245,112.066053 72.4264202,111.993311 72.6672241,111.993311 C72.908028,111.993311 73.1112032,112.066053 73.2767559,112.211538 C73.4423085,112.357024 73.5250836,112.550166 73.5250836,112.79097 C73.5250836,113.02174 73.4423085,113.212374 73.2767559,113.362876 C73.1112032,113.513379 72.908028,113.588629 72.6672241,113.588629 Z M72.0351171,115.093645 L73.2692308,115.093645 L73.2692308,122.408027 L72.0351171,122.408027 L72.0351171,115.093645 Z M75.9481605,116.102007 L74.8645485,116.102007 L74.8645485,115.168896 L76.0083612,115.093645 L76.1588629,113.046823 L77.1973244,113.046823 L77.1973244,115.093645 L79.1688963,115.093645 L79.1688963,116.102007 L77.1973244,116.102007 L77.1973244,120.165552 C77.1973244,120.617059 77.2800995,120.965718 77.4456522,121.211538 C77.6112048,121.457359 77.9046802,121.580268 78.326087,121.580268 C78.4565224,121.580268 78.5969892,121.560201 78.7474916,121.520067 C78.8979941,121.479933 79.0334442,121.434783 79.1538462,121.384615 L79.3946488,122.317726 C79.1939789,122.38796 78.9757537,122.450669 78.7399666,122.505853 C78.5041794,122.561037 78.2709042,122.588629 78.0401338,122.588629 C77.6488275,122.588629 77.3202354,122.528429 77.0543478,122.408027 C76.7884602,122.287625 76.5727433,122.122075 76.4071906,121.911371 C76.241638,121.700668 76.1237462,121.444818 76.0535117,121.143813 C75.9832772,120.842808 75.9481605,120.511707 75.9481605,120.150502 L75.9481605,116.102007 Z M80.8244147,111.692308 L82.0585284,111.692308 L82.0585284,121.023411 C82.0585284,121.224081 82.0936451,121.364548 82.1638796,121.444816 C82.2341141,121.525084 82.3143808,121.565217 82.4046823,121.565217 L82.5175585,121.565217 C82.5526758,121.565217 82.6053508,121.555184 82.6755853,121.535117 L82.8411371,122.468227 C82.7608692,122.508361 82.6655524,122.538461 82.5551839,122.558528 C82.4448155,122.578595 82.3043487,122.588629 82.1337793,122.588629 C81.662205,122.588629 81.326088,122.448162 81.1254181,122.167224 C80.9247482,121.886286 80.8244147,121.474919 80.8244147,120.93311 L80.8244147,111.692308 Z M84.1204013,118.765886 C84.1204013,118.163877 84.2132098,117.624584 84.3988294,117.147993 C84.5844491,116.671402 84.830266,116.26756 85.1362876,115.936455 C85.4423092,115.60535 85.7909679,115.352008 86.1822742,115.176421 C86.5735806,115.000835 86.979931,114.913043 87.4013378,114.913043 C87.8628786,114.913043 88.276754,114.99331 88.6429766,115.153846 C89.0091992,115.314382 89.3152162,115.545149 89.5610368,115.846154 C89.8068574,116.147159 89.9949826,116.508359 90.1254181,116.929766 C90.2558535,117.351173 90.3210702,117.82274 90.3210702,118.344482 C90.3210702,118.615386 90.3060202,118.841136 90.2759197,119.021739 L85.3394649,119.021739 C85.3896324,119.814385 85.632941,120.441469 86.069398,120.90301 C86.505855,121.364551 87.0752473,121.595318 87.777592,121.595318 C88.1287643,121.595318 88.4523397,121.542643 88.7483278,121.437291 C89.0443159,121.331939 89.3277578,121.193981 89.5986622,121.023411 L90.0351171,121.83612 C89.7140452,122.03679 89.3578615,122.212374 88.9665552,122.362876 C88.5752489,122.513379 88.1287651,122.588629 87.6270903,122.588629 C87.135449,122.588629 86.6764235,122.500837 86.25,122.325251 C85.8235765,122.149665 85.4523427,121.898831 85.1362876,121.572742 C84.8202325,121.246654 84.5719073,120.847828 84.3913043,120.376254 C84.2107014,119.90468 84.1204013,119.367896 84.1204013,118.765886 Z M89.2374582,118.20903 C89.2374582,117.456518 89.079433,116.882109 88.7633779,116.485786 C88.4473228,116.089463 88.0033473,115.891304 87.4314381,115.891304 C87.1705673,115.891304 86.922242,115.943979 86.6864548,116.049331 C86.4506677,116.154683 86.2374591,116.305183 86.0468227,116.500836 C85.8561863,116.696489 85.6981612,116.93729 85.5727425,117.223244 C85.4473238,117.509199 85.3645487,117.837791 85.3244147,118.20903 L89.2374582,118.20903 Z" id="Page-title" fill="#FFFFFF"></path>
            <path d="M33.6521739,135.411371 L36.6020067,135.411371 L36.6020067,140.448161 L41.1170569,140.448161 L41.1170569,135.411371 L44.0869565,135.411371 L44.0869565,148.494983 L41.1170569,148.494983 L41.1170569,143.036789 L36.6020067,143.036789 L36.6020067,148.494983 L33.6521739,148.494983 L33.6521739,135.411371 Z M47.1772575,135.411371 L55.3645485,135.411371 L55.3645485,137.899666 L50.1270903,137.899666 L50.1270903,140.528428 L54.5819398,140.528428 L54.5819398,142.996656 L50.1270903,142.996656 L50.1270903,146.006689 L55.5652174,146.006689 L55.5652174,148.494983 L47.1772575,148.494983 L47.1772575,135.411371 Z M63.7123746,143.076923 L63.4113712,141.87291 C63.2240793,141.217388 63.0434791,140.521743 62.8695652,139.785953 C62.6956513,139.050164 62.52174,138.341141 62.3478261,137.658863 L62.2675585,137.658863 C62.1070226,138.354519 61.9431446,139.066886 61.7759197,139.795987 C61.6086948,140.525087 61.4314391,141.217388 61.2441472,141.87291 L60.9230769,143.076923 L63.7123746,143.076923 Z M64.3143813,145.384615 L60.3210702,145.384615 L59.5183946,148.494983 L56.5083612,148.494983 L60.6020067,135.411371 L64.1538462,135.411371 L68.2474916,148.494983 L65.1170569,148.494983 L64.3143813,145.384615 Z M69.6722408,135.411371 L73.3645485,135.411371 C74.367898,135.411371 75.270899,135.53846 76.0735786,135.792642 C76.8762582,136.046824 77.5652145,136.438124 78.1404682,136.966555 C78.7157219,137.494986 79.1571891,138.16722 79.4648829,138.983278 C79.7725768,139.799335 79.9264214,140.769225 79.9264214,141.892977 C79.9264214,143.016728 79.7725768,143.993307 79.4648829,144.822742 C79.1571891,145.652178 78.7224108,146.33779 78.1605351,146.879599 C77.5986594,147.421407 76.9264253,147.826086 76.1438127,148.093645 C75.3612001,148.361205 74.4882991,148.494983 73.5250836,148.494983 L69.6722408,148.494983 L69.6722408,135.411371 Z M73.1839465,146.107023 C73.7458222,146.107023 74.2541783,146.033446 74.7090301,145.886288 C75.1638819,145.73913 75.5518379,145.501674 75.8729097,145.173913 C76.1939815,144.846152 76.4448152,144.414718 76.6254181,143.879599 C76.806021,143.344479 76.8963211,142.682278 76.8963211,141.892977 C76.8963211,141.117053 76.806021,140.464886 76.6254181,139.936455 C76.4448152,139.408024 76.1939815,138.986624 75.8729097,138.672241 C75.5518379,138.357858 75.1638819,138.13378 74.7090301,138 C74.2541783,137.86622 73.7458222,137.799331 73.1839465,137.799331 L72.6220736,137.799331 L72.6220736,146.107023 L73.1839465,146.107023 Z M82.4147157,135.411371 L90.6020067,135.411371 L90.6020067,137.899666 L85.3645485,137.899666 L85.3645485,140.528428 L89.819398,140.528428 L89.819398,142.996656 L85.3645485,142.996656 L85.3645485,146.006689 L90.8026756,146.006689 L90.8026756,148.494983 L82.4147157,148.494983 L82.4147157,135.411371 Z M96.361204,141.431438 L97.8862876,141.431438 C98.6622112,141.431438 99.2541786,141.26756 99.6622074,140.939799 C100.070236,140.612038 100.274247,140.127094 100.274247,139.48495 C100.274247,138.842806 100.070236,138.39465 99.6622074,138.140468 C99.2541786,137.886286 98.6622112,137.759197 97.8862876,137.759197 L96.361204,137.759197 L96.361204,141.431438 Z M100.494983,148.494983 L97.9866221,143.779264 L96.361204,143.779264 L96.361204,148.494983 L93.4113712,148.494983 L93.4113712,135.411371 L98.1270903,135.411371 C98.822746,135.411371 99.4749133,135.47826 100.083612,135.61204 C100.692311,135.74582 101.224078,135.969898 101.67893,136.284281 C102.133782,136.598664 102.494982,137.01672 102.762542,137.538462 C103.030102,138.060203 103.16388,138.709026 103.16388,139.48495 C103.16388,140.448165 102.953179,141.2408 102.531773,141.862876 C102.110366,142.484953 101.545154,142.949831 100.83612,143.257525 L103.80602,148.494983 L100.494983,148.494983 Z M108.682274,135.411371 L111.712375,135.411371 L112.615385,141.531773 C112.695653,142.21405 112.782608,142.899662 112.876254,143.588629 C112.9699,144.277595 113.056856,144.969896 113.137124,145.665552 L113.217391,145.665552 C113.351171,144.969896 113.481605,144.277595 113.608696,143.588629 C113.735787,142.899662 113.86622,142.21405 114,141.531773 L115.404682,135.411371 L117.913043,135.411371 L119.317726,141.531773 C119.451506,142.200672 119.581939,142.879595 119.70903,143.568562 C119.836121,144.257529 119.966555,144.956518 120.100334,145.665552 L120.180602,145.665552 C120.274248,144.956518 120.364548,144.260873 120.451505,143.578595 C120.538462,142.896318 120.628762,142.21405 120.722408,141.531773 L121.625418,135.411371 L124.454849,135.411371 L122.12709,148.494983 L118.414716,148.494983 L117.130435,142.555184 C117.023411,142.04682 116.926422,141.53512 116.839465,141.020067 C116.752508,140.505014 116.675586,140.006691 116.608696,139.525084 L116.528428,139.525084 C116.44816,140.006691 116.364549,140.505014 116.277592,141.020067 C116.190635,141.53512 116.093646,142.04682 115.986622,142.555184 L114.762542,148.494983 L111.110368,148.494983 L108.682274,135.411371 Z M126.26087,135.411371 L129.210702,135.411371 L129.210702,148.494983 L126.26087,148.494983 L126.26087,135.411371 Z M134.849498,137.899666 L131.257525,137.899666 L131.257525,135.411371 L141.411371,135.411371 L141.411371,137.899666 L137.819398,137.899666 L137.819398,148.494983 L134.849498,148.494983 L134.849498,137.899666 Z M143.458194,135.411371 L146.408027,135.411371 L146.408027,140.448161 L150.923077,140.448161 L150.923077,135.411371 L153.892977,135.411371 L153.892977,148.494983 L150.923077,148.494983 L150.923077,143.036789 L146.408027,143.036789 L146.408027,148.494983 L143.458194,148.494983 L143.458194,135.411371 Z M161.157191,135.411371 L165.632107,135.411371 C166.314385,135.411371 166.946485,135.461538 167.528428,135.561873 C168.110371,135.662208 168.618727,135.839464 169.053512,136.093645 C169.488296,136.347827 169.82943,136.682272 170.076923,137.09699 C170.324416,137.511708 170.448161,138.033442 170.448161,138.662207 C170.448161,138.956523 170.404683,139.250835 170.317726,139.545151 C170.230769,139.839466 170.100335,140.113711 169.926421,140.367893 C169.752507,140.622075 169.525085,140.849497 169.244147,141.050167 C168.963209,141.250837 168.635453,141.397993 168.26087,141.491639 L168.26087,141.571906 C169.197329,141.74582 169.903008,142.080265 170.377926,142.575251 C170.852845,143.070237 171.090301,143.759193 171.090301,144.64214 C171.090301,145.31104 170.959868,145.886285 170.698997,146.367893 C170.438126,146.849501 170.076925,147.24749 169.615385,147.561873 C169.153844,147.876256 168.615388,148.110367 168,148.264214 C167.384612,148.418061 166.722412,148.494983 166.013378,148.494983 L161.157191,148.494983 L161.157191,135.411371 Z M165.491639,140.688963 C166.21405,140.688963 166.739129,140.545152 167.06689,140.257525 C167.39465,139.969898 167.558528,139.578598 167.558528,139.083612 C167.558528,138.588626 167.391306,138.234115 167.056856,138.020067 C166.722406,137.806019 166.207361,137.698997 165.511706,137.698997 L164.107023,137.698997 L164.107023,140.688963 L165.491639,140.688963 Z M165.772575,146.207358 C167.391312,146.207358 168.200669,145.612046 168.200669,144.421405 C168.200669,143.846151 168.000002,143.428095 167.598662,143.167224 C167.197322,142.906353 166.588633,142.77592 165.772575,142.77592 L164.107023,142.77592 L164.107023,146.207358 L165.772575,146.207358 Z M178.83612,143.076923 L178.535117,141.87291 C178.347825,141.217388 178.167225,140.521743 177.993311,139.785953 C177.819397,139.050164 177.645486,138.341141 177.471572,137.658863 L177.391304,137.658863 C177.230768,138.354519 177.06689,139.066886 176.899666,139.795987 C176.732441,140.525087 176.555185,141.217388 176.367893,141.87291 L176.046823,143.076923 L178.83612,143.076923 Z M179.438127,145.384615 L175.444816,145.384615 L174.64214,148.494983 L171.632107,148.494983 L175.725753,135.411371 L179.277592,135.411371 L183.371237,148.494983 L180.240803,148.494983 L179.438127,145.384615 Z M184.173913,142.033445 C184.173913,140.949827 184.341135,139.983282 184.675585,139.133779 C185.010035,138.284277 185.461536,137.56522 186.0301,136.976589 C186.598665,136.387957 187.260866,135.939801 188.016722,135.632107 C188.772579,135.324413 189.571902,135.170569 190.414716,135.170569 C191.230773,135.170569 191.969896,135.341135 192.632107,135.682274 C193.294318,136.023413 193.846152,136.421402 194.287625,136.876254 L192.662207,138.702341 C192.327758,138.394647 191.989968,138.153847 191.648829,137.979933 C191.307691,137.806019 190.909701,137.719064 190.454849,137.719064 C189.999998,137.719064 189.575253,137.816053 189.180602,138.010033 C188.785951,138.204014 188.441473,138.481604 188.147157,138.842809 C187.852841,139.204015 187.622074,139.645482 187.454849,140.167224 C187.287625,140.688966 187.204013,141.277589 187.204013,141.93311 C187.204013,143.284288 187.491636,144.3311 188.06689,145.073579 C188.642143,145.816057 189.411366,146.187291 190.374582,146.187291 C190.909702,146.187291 191.377924,146.080269 191.779264,145.866221 C192.180604,145.652173 192.541804,145.371239 192.862876,145.023411 L194.488294,146.809365 C193.939797,147.451508 193.314385,147.933109 192.61204,148.254181 C191.909695,148.575252 191.150506,148.735786 190.334448,148.735786 C189.491635,148.735786 188.695656,148.591975 187.946488,148.304348 C187.197321,148.016721 186.541809,147.591976 185.979933,147.0301 C185.418057,146.468225 184.97659,145.769235 184.655518,144.93311 C184.334447,144.096986 184.173913,143.13044 184.173913,142.033445 Z M196.474916,135.411371 L199.424749,135.411371 L199.424749,140.769231 L199.505017,140.769231 L203.397993,135.411371 L206.648829,135.411371 L202.695652,140.628763 L207.371237,148.494983 L204.140468,148.494983 L200.949833,142.976589 L199.424749,144.983278 L199.424749,148.494983 L196.474916,148.494983 L196.474916,135.411371 Z M208.173913,142.033445 C208.173913,140.949827 208.34448,139.983282 208.685619,139.133779 C209.026758,138.284277 209.488291,137.56522 210.070234,136.976589 C210.652177,136.387957 211.334444,135.939801 212.117057,135.632107 C212.899669,135.324413 213.732437,135.170569 214.615385,135.170569 C215.538466,135.170569 216.337789,135.34448 217.013378,135.692308 C217.688967,136.040136 218.240801,136.43478 218.668896,136.876254 L217.043478,138.702341 C216.722406,138.394647 216.384617,138.153847 216.0301,137.979933 C215.675584,137.806019 215.217394,137.719064 214.655518,137.719064 C214.147155,137.719064 213.682276,137.816053 213.26087,138.010033 C212.839463,138.204014 212.474918,138.481604 212.167224,138.842809 C211.85953,139.204015 211.622074,139.645482 211.454849,140.167224 C211.287625,140.688966 211.204013,141.277589 211.204013,141.93311 C211.204013,143.284288 211.508358,144.3311 212.117057,145.073579 C212.725756,145.816057 213.645479,146.187291 214.876254,146.187291 C215.143814,146.187291 215.404681,146.153846 215.658863,146.086957 C215.913045,146.020067 216.120401,145.919733 216.280936,145.785953 L216.280936,143.538462 L214.113712,143.538462 L214.113712,141.130435 L218.889632,141.130435 L218.889632,147.150502 C218.421402,147.591975 217.806024,147.966554 217.043478,148.274247 C216.280933,148.581941 215.438132,148.735786 214.51505,148.735786 C213.632103,148.735786 212.806024,148.591975 212.036789,148.304348 C211.267555,148.016721 210.595321,147.591976 210.020067,147.0301 C209.444813,146.468225 208.993313,145.769235 208.665552,144.93311 C208.337791,144.096986 208.173913,143.13044 208.173913,142.033445 Z M224.548495,141.431438 L226.073579,141.431438 C226.849502,141.431438 227.44147,141.26756 227.849498,140.939799 C228.257527,140.612038 228.461538,140.127094 228.461538,139.48495 C228.461538,138.842806 228.257527,138.39465 227.849498,138.140468 C227.44147,137.886286 226.849502,137.759197 226.073579,137.759197 L224.548495,137.759197 L224.548495,141.431438 Z M228.682274,148.494983 L226.173913,143.779264 L224.548495,143.779264 L224.548495,148.494983 L221.598662,148.494983 L221.598662,135.411371 L226.314381,135.411371 C227.010037,135.411371 227.662204,135.47826 228.270903,135.61204 C228.879602,135.74582 229.411369,135.969898 229.866221,136.284281 C230.321073,136.598664 230.682273,137.01672 230.949833,137.538462 C231.217393,138.060203 231.351171,138.709026 231.351171,139.48495 C231.351171,140.448165 231.14047,141.2408 230.719064,141.862876 C230.297657,142.484953 229.732445,142.949831 229.023411,143.257525 L231.993311,148.494983 L228.682274,148.494983 Z M239.277592,148.735786 C238.394644,148.735786 237.588632,148.578597 236.859532,148.264214 C236.130431,147.949831 235.505019,147.498331 234.983278,146.909699 C234.461536,146.321067 234.056858,145.605355 233.769231,144.762542 C233.481604,143.919728 233.337793,142.963216 233.337793,141.892977 C233.337793,140.822737 233.481604,139.869569 233.769231,139.033445 C234.056858,138.19732 234.461536,137.494986 234.983278,136.926421 C235.505019,136.357857 236.130431,135.923078 236.859532,135.622074 C237.588632,135.321069 238.394644,135.170569 239.277592,135.170569 C240.16054,135.170569 240.966552,135.321069 241.695652,135.622074 C242.424753,135.923078 243.050165,136.361201 243.571906,136.936455 C244.093648,137.511709 244.498326,138.217387 244.785953,139.053512 C245.07358,139.889636 245.217391,140.836115 245.217391,141.892977 C245.217391,142.963216 245.07358,143.919728 244.785953,144.762542 C244.498326,145.605355 244.093648,146.321067 243.571906,146.909699 C243.050165,147.498331 242.424753,147.949831 241.695652,148.264214 C240.966552,148.578597 240.16054,148.735786 239.277592,148.735786 Z M239.277592,146.187291 C240.173918,146.187291 240.882941,145.802679 241.404682,145.033445 C241.926424,144.26421 242.187291,143.217398 242.187291,141.892977 C242.187291,140.581933 241.926424,139.558532 241.404682,138.822742 C240.882941,138.086953 240.173918,137.719064 239.277592,137.719064 C238.381266,137.719064 237.672243,138.086953 237.150502,138.822742 C236.62876,139.558532 236.367893,140.581933 236.367893,141.892977 C236.367893,143.217398 236.62876,144.26421 237.150502,145.033445 C237.672243,145.802679 238.381266,146.187291 239.277592,146.187291 Z M247.605351,135.411371 L250.575251,135.411371 L250.575251,142.735786 C250.575251,144.020073 250.769229,144.916385 251.157191,145.424749 C251.545152,145.933113 252.10702,146.187291 252.842809,146.187291 C253.578599,146.187291 254.147155,145.933113 254.548495,145.424749 C254.949835,144.916385 255.150502,144.020073 255.150502,142.735786 L255.150502,135.411371 L258,135.411371 L258,142.434783 C258,144.628774 257.561877,146.22742 256.685619,147.230769 C255.80936,148.234119 254.528437,148.735786 252.842809,148.735786 C251.143804,148.735786 249.846158,148.234119 248.949833,147.230769 C248.053507,146.22742 247.605351,144.628774 247.605351,142.434783 L247.605351,135.411371 Z M261.0301,135.411371 L264.060201,135.411371 L267.471572,141.913043 L268.755853,144.802676 L268.83612,144.802676 C268.76923,144.10702 268.692308,143.331108 268.605351,142.474916 C268.518394,141.618725 268.474916,140.802679 268.474916,140.026756 L268.474916,135.411371 L271.284281,135.411371 L271.284281,148.494983 L268.254181,148.494983 L264.842809,141.973244 L263.558528,139.123746 L263.478261,139.123746 C263.545151,139.846157 263.622073,140.622069 263.70903,141.451505 C263.795987,142.280941 263.839465,143.083608 263.839465,143.859532 L263.839465,148.494983 L261.0301,148.494983 L261.0301,135.411371 Z M274.374582,135.411371 L278.06689,135.411371 C279.070239,135.411371 279.97324,135.53846 280.77592,135.792642 C281.578599,136.046824 282.267556,136.438124 282.842809,136.966555 C283.418063,137.494986 283.85953,138.16722 284.167224,138.983278 C284.474918,139.799335 284.628763,140.769225 284.628763,141.892977 C284.628763,143.016728 284.474918,143.993307 284.167224,144.822742 C283.85953,145.652178 283.424752,146.33779 282.862876,146.879599 C282.301001,147.421407 281.628766,147.826086 280.846154,148.093645 C280.063541,148.361205 279.19064,148.494983 278.227425,148.494983 L274.374582,148.494983 L274.374582,135.411371 Z M277.886288,146.107023 C278.448163,146.107023 278.956519,146.033446 279.411371,145.886288 C279.866223,145.73913 280.254179,145.501674 280.575251,145.173913 C280.896323,144.846152 281.147156,144.414718 281.327759,143.879599 C281.508362,143.344479 281.598662,142.682278 281.598662,141.892977 C281.598662,141.117053 281.508362,140.464886 281.327759,139.936455 C281.147156,139.408024 280.896323,138.986624 280.575251,138.672241 C280.254179,138.357858 279.866223,138.13378 279.411371,138 C278.956519,137.86622 278.448163,137.799331 277.886288,137.799331 L277.324415,137.799331 L277.324415,146.107023 L277.886288,146.107023 Z M286.434783,142.374582 L291.371237,142.374582 L291.371237,144.461538 L286.434783,144.461538 L286.434783,142.374582 Z M293.779264,135.411371 L296.729097,135.411371 L296.729097,148.494983 L293.779264,148.494983 L293.779264,135.411371 Z M299.819398,135.411371 L302.949833,135.411371 L305.137124,141.29097 L305.919732,143.578595 L306,143.578595 L306.782609,141.29097 L308.909699,135.411371 L312.020067,135.411371 L312.020067,148.494983 L309.270903,148.494983 L309.270903,143.698997 C309.270903,143.377925 309.284281,143.023413 309.311037,142.635452 C309.337793,142.24749 309.371237,141.856189 309.411371,141.461538 C309.451505,141.066888 309.491639,140.678932 309.531773,140.297659 C309.571907,139.916386 309.61204,139.565219 309.652174,139.244147 L309.571906,139.244147 L308.488294,142.274247 L306.481605,147.351171 L305.297659,147.351171 L303.29097,142.274247 L302.247492,139.244147 L302.167224,139.244147 C302.207358,139.565219 302.247491,139.916386 302.287625,140.297659 C302.327759,140.678932 302.364548,141.066888 302.397993,141.461538 C302.431438,141.856189 302.461538,142.24749 302.488294,142.635452 C302.51505,143.023413 302.528428,143.377925 302.528428,143.698997 L302.528428,148.494983 L299.819398,148.494983 L299.819398,135.411371 Z M320.648829,143.076923 L320.347826,141.87291 C320.160534,141.217388 319.979934,140.521743 319.80602,139.785953 C319.632106,139.050164 319.458195,138.341141 319.284281,137.658863 L319.204013,137.658863 C319.043477,138.354519 318.879599,139.066886 318.712375,139.795987 C318.54515,140.525087 318.367894,141.217388 318.180602,141.87291 L317.859532,143.076923 L320.648829,143.076923 Z M321.250836,145.384615 L317.257525,145.384615 L316.454849,148.494983 L313.444816,148.494983 L317.538462,135.411371 L321.090301,135.411371 L325.183946,148.494983 L322.053512,148.494983 L321.250836,145.384615 Z M325.986622,142.033445 C325.986622,140.949827 326.157189,139.983282 326.498328,139.133779 C326.839467,138.284277 327.301,137.56522 327.882943,136.976589 C328.464886,136.387957 329.147153,135.939801 329.929766,135.632107 C330.712378,135.324413 331.545146,135.170569 332.428094,135.170569 C333.351175,135.170569 334.150498,135.34448 334.826087,135.692308 C335.501676,136.040136 336.05351,136.43478 336.481605,136.876254 L334.856187,138.702341 C334.535115,138.394647 334.197326,138.153847 333.842809,137.979933 C333.488293,137.806019 333.030103,137.719064 332.468227,137.719064 C331.959864,137.719064 331.494985,137.816053 331.073579,138.010033 C330.652172,138.204014 330.287627,138.481604 329.979933,138.842809 C329.672239,139.204015 329.434783,139.645482 329.267559,140.167224 C329.100334,140.688966 329.016722,141.277589 329.016722,141.93311 C329.016722,143.284288 329.321067,144.3311 329.929766,145.073579 C330.538465,145.816057 331.458188,146.187291 332.688963,146.187291 C332.956523,146.187291 333.21739,146.153846 333.471572,146.086957 C333.725754,146.020067 333.93311,145.919733 334.093645,145.785953 L334.093645,143.538462 L331.926421,143.538462 L331.926421,141.130435 L336.702341,141.130435 L336.702341,147.150502 C336.234111,147.591975 335.618733,147.966554 334.856187,148.274247 C334.093642,148.581941 333.250841,148.735786 332.327759,148.735786 C331.444812,148.735786 330.618733,148.591975 329.849498,148.304348 C329.080264,148.016721 328.40803,147.591976 327.832776,147.0301 C327.257522,146.468225 326.806022,145.769235 326.478261,144.93311 C326.1505,144.096986 325.986622,143.13044 325.986622,142.033445 Z M339.411371,135.411371 L347.598662,135.411371 L347.598662,137.899666 L342.361204,137.899666 L342.361204,140.528428 L346.816054,140.528428 L346.816054,142.996656 L342.361204,142.996656 L342.361204,146.006689 L347.799331,146.006689 L347.799331,148.494983 L339.411371,148.494983 L339.411371,135.411371 Z" id="HEADER-WITH-BACKGROU" fill="#FFFFFF"></path>
        </g>
    </g>
</svg>