<?xml version="1.0" encoding="UTF-8"?>
<svg width="600px" height="256px" viewBox="0 0 600 256" version="1.1" xmlns="http://www.w3.org/2000/svg" xmlns:xlink="http://www.w3.org/1999/xlink">
    <!-- Generator: Sketch 44.1 (41455) - http://www.bohemiancoding.com/sketch -->
    <title>headerimages04</title>
    <desc>Created with Sketch.</desc>
    <defs></defs>
    <g id="Page-1" stroke="none" stroke-width="1" fill="none" fill-rule="evenodd">
        <g id="04">
            <rect id="Rectangle-2" fill="#4A4A4A" x="0" y="0" width="600" height="255.852843"></rect>
            <path d="M150.650531,92.8093645 L450.790178,92.8093645" id="Line" stroke="#FFFFFF" stroke-linecap="square"></path>
            <path d="M150.650531,165.050167 L450.790178,165.050167" id="Line" stroke="#FFFFFF" stroke-linecap="square"></path>
            <path d="M160.535117,119.799331 L163.48495,119.799331 L163.48495,124.83612 L168,124.83612 L168,119.799331 L170.9699,119.799331 L170.9699,132.882943 L168,132.882943 L168,127.424749 L163.48495,127.424749 L163.48495,132.882943 L160.535117,132.882943 L160.535117,119.799331 Z M173.237458,127.906355 C173.237458,127.103675 173.371236,126.37793 173.638796,125.729097 C173.906356,125.080264 174.257523,124.531775 174.692308,124.083612 C175.127092,123.635449 175.625415,123.290971 176.187291,123.050167 C176.749167,122.809363 177.331101,122.688963 177.93311,122.688963 C178.642144,122.688963 179.260867,122.809363 179.789298,123.050167 C180.317728,123.290971 180.759196,123.625416 181.113712,124.053512 C181.468229,124.481607 181.732441,124.986619 181.906355,125.568562 C182.080268,126.150505 182.167224,126.782605 182.167224,127.464883 C182.167224,127.732443 182.153846,127.976588 182.12709,128.197324 C182.100334,128.418061 182.073579,128.588628 182.046823,128.70903 L176.086957,128.70903 C176.220736,129.471576 176.518392,130.02341 176.979933,130.364548 C177.441474,130.705687 178.006686,130.876254 178.675585,130.876254 C179.384619,130.876254 180.100331,130.655521 180.822742,130.214047 L181.80602,132 C181.297656,132.347828 180.732445,132.622073 180.110368,132.822742 C179.488291,133.023412 178.876257,133.123746 178.274247,133.123746 C177.565214,133.123746 176.903013,133.00669 176.287625,132.772575 C175.672238,132.53846 175.137126,132.197327 174.682274,131.749164 C174.227422,131.301001 173.872911,130.755856 173.618729,130.113712 C173.364547,129.471569 173.237458,128.73579 173.237458,127.906355 Z M179.658863,126.882943 C179.658863,126.307689 179.531774,125.839467 179.277592,125.478261 C179.02341,125.117055 178.595321,124.936455 177.993311,124.936455 C177.525081,124.936455 177.113714,125.093644 176.759197,125.408027 C176.404681,125.72241 176.173914,126.214043 176.06689,126.882943 L179.658863,126.882943 Z M183.852843,130.113712 C183.852843,129.070229 184.29431,128.254184 185.177258,127.665552 C186.060205,127.07692 187.48494,126.682275 189.451505,126.481605 C189.424749,126.040132 189.290971,125.688965 189.050167,125.428094 C188.809363,125.167223 188.421407,125.036789 187.886288,125.036789 C187.458192,125.036789 187.030102,125.117056 186.602007,125.277592 C186.173911,125.438128 185.719066,125.658861 185.237458,125.939799 L184.19398,123.993311 C184.836124,123.605349 185.508358,123.290971 186.210702,123.050167 C186.913047,122.809363 187.658859,122.688963 188.448161,122.688963 C189.732448,122.688963 190.712371,123.053508 191.38796,123.782609 C192.063549,124.511709 192.401338,125.645477 192.401338,127.183946 L192.401338,132.882943 L189.993311,132.882943 L189.772575,131.859532 L189.712375,131.859532 C189.284279,132.234116 188.832778,132.53846 188.35786,132.772575 C187.882941,133.00669 187.364551,133.123746 186.802676,133.123746 C186.347824,133.123746 185.939801,133.046824 185.578595,132.892977 C185.217389,132.73913 184.9097,132.525085 184.655518,132.250836 C184.401337,131.976587 184.204014,131.658865 184.063545,131.297659 C183.923076,130.936453 183.852843,130.541808 183.852843,130.113712 Z M186.662207,129.892977 C186.662207,130.214048 186.765885,130.451504 186.973244,130.605351 C187.180603,130.759198 187.458192,130.83612 187.80602,130.83612 C188.153848,130.83612 188.448159,130.762543 188.688963,130.615385 C188.929767,130.468227 189.183945,130.260871 189.451505,129.993311 L189.451505,128.247492 C188.394644,128.39465 187.665554,128.608694 187.264214,128.889632 C186.862874,129.17057 186.662207,129.505015 186.662207,129.892977 Z M194.408027,127.906355 C194.408027,127.090297 194.525082,126.361207 194.759197,125.719064 C194.993312,125.07692 195.301001,124.531775 195.682274,124.083612 C196.063547,123.635449 196.505014,123.290971 197.006689,123.050167 C197.508364,122.809363 198.020064,122.688963 198.541806,122.688963 C199.103682,122.688963 199.565216,122.782608 199.926421,122.9699 C200.287627,123.157192 200.642139,123.41137 200.989967,123.732441 L200.869565,122.207358 L200.869565,118.816054 L203.819398,118.816054 L203.819398,132.882943 L201.411371,132.882943 L201.210702,131.899666 L201.130435,131.899666 C200.782607,132.247493 200.374584,132.53846 199.906355,132.772575 C199.438125,133.00669 198.963213,133.123746 198.481605,133.123746 C197.866218,133.123746 197.307695,133.003346 196.80602,132.762542 C196.304345,132.521738 195.876256,132.17726 195.521739,131.729097 C195.167222,131.280934 194.892978,130.735789 194.698997,130.093645 C194.505016,129.451502 194.408027,128.722412 194.408027,127.906355 Z M197.438127,127.866221 C197.438127,128.856192 197.595316,129.578593 197.909699,130.033445 C198.224082,130.488297 198.668893,130.715719 199.244147,130.715719 C199.565219,130.715719 199.856186,130.64883 200.117057,130.51505 C200.377928,130.38127 200.628761,130.147159 200.869565,129.812709 L200.869565,125.73913 C200.602005,125.498327 200.327761,125.331104 200.046823,125.237458 C199.765885,125.143812 199.49164,125.09699 199.22408,125.09699 C198.755851,125.09699 198.341139,125.321068 197.979933,125.769231 C197.618727,126.217394 197.438127,126.916383 197.438127,127.866221 Z M205.846154,127.906355 C205.846154,127.103675 205.979932,126.37793 206.247492,125.729097 C206.515052,125.080264 206.866219,124.531775 207.301003,124.083612 C207.735788,123.635449 208.234111,123.290971 208.795987,123.050167 C209.357862,122.809363 209.939796,122.688963 210.541806,122.688963 C211.25084,122.688963 211.869563,122.809363 212.397993,123.050167 C212.926424,123.290971 213.367891,123.625416 213.722408,124.053512 C214.076925,124.481607 214.341136,124.986619 214.51505,125.568562 C214.688964,126.150505 214.77592,126.782605 214.77592,127.464883 C214.77592,127.732443 214.762542,127.976588 214.735786,128.197324 C214.70903,128.418061 214.682274,128.588628 214.655518,128.70903 L208.695652,128.70903 C208.829432,129.471576 209.127088,130.02341 209.588629,130.364548 C210.05017,130.705687 210.615381,130.876254 211.284281,130.876254 C211.993315,130.876254 212.709026,130.655521 213.431438,130.214047 L214.414716,132 C213.906352,132.347828 213.34114,132.622073 212.719064,132.822742 C212.096987,133.023412 211.484953,133.123746 210.882943,133.123746 C210.173909,133.123746 209.511709,133.00669 208.896321,132.772575 C208.280933,132.53846 207.745822,132.197327 207.29097,131.749164 C206.836118,131.301001 206.481607,130.755856 206.227425,130.113712 C205.973243,129.471569 205.846154,128.73579 205.846154,127.906355 Z M212.267559,126.882943 C212.267559,126.307689 212.140469,125.839467 211.886288,125.478261 C211.632106,125.117055 211.204016,124.936455 210.602007,124.936455 C210.133777,124.936455 209.72241,125.093644 209.367893,125.408027 C209.013376,125.72241 208.782609,126.214043 208.675585,126.882943 L212.267559,126.882943 Z M216.822742,122.929766 L219.230769,122.929766 L219.431438,124.675585 L219.511706,124.675585 C219.872912,123.993308 220.30769,123.49164 220.816054,123.170569 C221.324417,122.849497 221.832773,122.688963 222.341137,122.688963 C222.622075,122.688963 222.852842,122.705685 223.033445,122.73913 C223.214048,122.772575 223.377926,122.822742 223.525084,122.889632 L223.043478,125.438127 C222.856186,125.384615 222.682275,125.344482 222.521739,125.317726 C222.361203,125.29097 222.173914,125.277592 221.959866,125.277592 C221.585282,125.277592 221.193982,125.41137 220.785953,125.67893 C220.377924,125.94649 220.040135,126.421401 219.772575,127.103679 L219.772575,132.882943 L216.822742,132.882943 L216.822742,122.929766 Z M228.160535,122.929766 L231.090301,122.929766 L232.053512,127.545151 C232.13378,128.040136 232.207358,128.528426 232.274247,129.010033 C232.341137,129.491641 232.414715,129.98662 232.494983,130.494983 L232.575251,130.494983 C232.668897,129.98662 232.759197,129.484952 232.846154,128.989967 C232.933111,128.494981 233.036789,128.01338 233.157191,127.545151 L234.26087,122.929766 L236.809365,122.929766 L237.93311,127.545151 C238.053512,128.040136 238.160535,128.528426 238.254181,129.010033 C238.347827,129.491641 238.44816,129.98662 238.555184,130.494983 L238.635452,130.494983 C238.729097,129.98662 238.80602,129.491641 238.866221,129.010033 C238.926422,128.528426 239.003344,128.040136 239.09699,127.545151 L240.040134,122.929766 L242.769231,122.929766 L240.381271,132.882943 L236.929766,132.882943 L236.026756,128.909699 C235.919732,128.441469 235.826087,127.973246 235.745819,127.505017 C235.665551,127.036787 235.578596,126.53512 235.48495,126 L235.404682,126 C235.311036,126.53512 235.227425,127.036787 235.153846,127.505017 C235.080267,127.973246 234.996656,128.441469 234.90301,128.909699 L234.020067,132.882943 L230.648829,132.882943 L228.160535,122.929766 Z M246.020067,121.464883 C245.525081,121.464883 245.117058,121.321072 244.795987,121.033445 C244.474915,120.745818 244.314381,120.374584 244.314381,119.919732 C244.314381,119.464881 244.474915,119.096991 244.795987,118.816054 C245.117058,118.535116 245.525081,118.394649 246.020067,118.394649 C246.528431,118.394649 246.939798,118.535116 247.254181,118.816054 C247.568563,119.096991 247.725753,119.464881 247.725753,119.919732 C247.725753,120.374584 247.568563,120.745818 247.254181,121.033445 C246.939798,121.321072 246.528431,121.464883 246.020067,121.464883 Z M244.555184,122.929766 L247.505017,122.929766 L247.505017,132.882943 L244.555184,132.882943 L244.555184,122.929766 Z M250.494983,125.237458 L249.130435,125.237458 L249.130435,123.050167 L250.655518,122.929766 L250.996656,120.280936 L253.444816,120.280936 L253.444816,122.929766 L255.832776,122.929766 L255.832776,125.237458 L253.444816,125.237458 L253.444816,129.230769 C253.444816,129.792645 253.561872,130.197323 253.795987,130.444816 C254.030102,130.692309 254.341135,130.816054 254.729097,130.816054 C254.889633,130.816054 255.053511,130.795987 255.220736,130.755853 C255.387961,130.715719 255.538461,130.668897 255.672241,130.615385 L256.133779,132.762542 C255.866219,132.84281 255.551841,132.923077 255.190635,133.003344 C254.82943,133.083612 254.408029,133.123746 253.926421,133.123746 C253.311034,133.123746 252.785955,133.030101 252.351171,132.842809 C251.916386,132.655517 251.561874,132.394651 251.287625,132.060201 C251.013377,131.725751 250.81271,131.321073 250.685619,130.846154 C250.558528,130.371235 250.494983,129.846157 250.494983,129.270903 L250.494983,125.237458 Z M257.779264,118.816054 L260.729097,118.816054 L260.729097,122.267559 L260.588629,124.053512 C260.963213,123.719062 261.397991,123.408028 261.892977,123.120401 C262.387962,122.832774 262.976585,122.688963 263.658863,122.688963 C264.74248,122.688963 265.528426,123.043475 266.016722,123.752508 C266.505019,124.461542 266.749164,125.44481 266.749164,126.702341 L266.749164,132.882943 L263.799331,132.882943 L263.799331,127.083612 C263.799331,126.3612 263.702342,125.866222 263.508361,125.598662 C263.31438,125.331102 263.003347,125.197324 262.575251,125.197324 C262.200667,125.197324 261.8796,125.280936 261.61204,125.448161 C261.34448,125.615385 261.050169,125.852841 260.729097,126.160535 L260.729097,132.882943 L257.779264,132.882943 L257.779264,118.816054 Z M273.411371,118.816054 L276.361204,118.816054 L276.361204,122.267559 L276.280936,123.792642 C276.668898,123.444814 277.086954,123.173914 277.535117,122.979933 C277.98328,122.785952 278.441469,122.688963 278.909699,122.688963 C279.511709,122.688963 280.053509,122.809363 280.535117,123.050167 C281.016725,123.290971 281.428092,123.62876 281.769231,124.063545 C282.11037,124.49833 282.371237,125.026753 282.551839,125.648829 C282.732442,126.270906 282.822742,126.963207 282.822742,127.725753 C282.822742,128.581944 282.705687,129.344478 282.471572,130.013378 C282.237457,130.682278 281.923079,131.247489 281.528428,131.70903 C281.133777,132.170571 280.685621,132.521738 280.183946,132.762542 C279.682272,133.003346 279.163882,133.123746 278.628763,133.123746 C278.187289,133.123746 277.742477,133.016723 277.294314,132.802676 C276.846152,132.588628 276.428096,132.267561 276.040134,131.839465 L275.959866,131.839465 L275.719064,132.882943 L273.411371,132.882943 L273.411371,118.816054 Z M276.361204,130.073579 C276.628764,130.314382 276.89632,130.481605 277.16388,130.575251 C277.431439,130.668897 277.692306,130.715719 277.946488,130.715719 C278.454852,130.715719 278.88963,130.484952 279.250836,130.023411 C279.612042,129.561871 279.792642,128.816059 279.792642,127.785953 C279.792642,125.993302 279.217397,125.09699 278.06689,125.09699 C277.478258,125.09699 276.909702,125.39799 276.361204,126 L276.361204,130.073579 Z M284.548495,130.113712 C284.548495,129.070229 284.989962,128.254184 285.87291,127.665552 C286.755857,127.07692 288.180592,126.682275 290.147157,126.481605 C290.120401,126.040132 289.986623,125.688965 289.745819,125.428094 C289.505016,125.167223 289.11706,125.036789 288.58194,125.036789 C288.153844,125.036789 287.725755,125.117056 287.297659,125.277592 C286.869563,125.438128 286.414718,125.658861 285.93311,125.939799 L284.889632,123.993311 C285.531776,123.605349 286.20401,123.290971 286.906355,123.050167 C287.608699,122.809363 288.354511,122.688963 289.143813,122.688963 C290.4281,122.688963 291.408023,123.053508 292.083612,123.782609 C292.759201,124.511709 293.09699,125.645477 293.09699,127.183946 L293.09699,132.882943 L290.688963,132.882943 L290.468227,131.859532 L290.408027,131.859532 C289.979931,132.234116 289.52843,132.53846 289.053512,132.772575 C288.578593,133.00669 288.060203,133.123746 287.498328,133.123746 C287.043476,133.123746 286.635453,133.046824 286.274247,132.892977 C285.913042,132.73913 285.605352,132.525085 285.351171,132.250836 C285.096989,131.976587 284.899666,131.658865 284.759197,131.297659 C284.618728,130.936453 284.548495,130.541808 284.548495,130.113712 Z M287.35786,129.892977 C287.35786,130.214048 287.461537,130.451504 287.668896,130.605351 C287.876255,130.759198 288.153844,130.83612 288.501672,130.83612 C288.8495,130.83612 289.143812,130.762543 289.384615,130.615385 C289.625419,130.468227 289.879597,130.260871 290.147157,129.993311 L290.147157,128.247492 C289.090296,128.39465 288.361206,128.608694 287.959866,128.889632 C287.558526,129.17057 287.35786,129.505015 287.35786,129.892977 Z M295.043478,127.906355 C295.043478,127.076919 295.183945,126.337796 295.464883,125.688963 C295.745821,125.040131 296.123743,124.494985 296.598662,124.053512 C297.073581,123.612038 297.625415,123.274249 298.254181,123.040134 C298.882946,122.806019 299.538458,122.688963 300.220736,122.688963 C300.836123,122.688963 301.391302,122.792641 301.886288,123 C302.381273,123.207359 302.795985,123.484948 303.130435,123.832776 L301.785953,125.658863 C301.317723,125.270901 300.85619,125.076923 300.401338,125.076923 C299.678926,125.076923 299.11037,125.331101 298.695652,125.839465 C298.280934,126.347829 298.073579,127.036785 298.073579,127.906355 C298.073579,128.775924 298.284279,129.46488 298.705686,129.973244 C299.127092,130.481608 299.65886,130.735786 300.301003,130.735786 C300.662209,130.735786 300.989965,130.662208 301.284281,130.51505 C301.578597,130.367892 301.846153,130.20067 302.086957,130.013378 L303.270903,131.879599 C302.789295,132.307694 302.254184,132.622073 301.665552,132.822742 C301.07692,133.023412 300.508364,133.123746 299.959866,133.123746 C299.264211,133.123746 298.618732,133.00669 298.023411,132.772575 C297.428091,132.53846 296.909701,132.200671 296.468227,131.759197 C296.026754,131.317724 295.678931,130.772578 295.424749,130.123746 C295.170567,129.474913 295.043478,128.73579 295.043478,127.906355 Z M304.996656,118.816054 L307.866221,118.816054 L307.866221,126.882943 L307.946488,126.882943 L311.09699,122.929766 L314.307692,122.929766 L310.816054,127.023411 L314.568562,132.882943 L311.377926,132.882943 L309.130435,129.010033 L307.866221,130.434783 L307.866221,132.882943 L304.996656,132.882943 L304.996656,118.816054 Z M317.799331,134.12709 C317.799331,134.501674 317.999998,134.785952 318.401338,134.979933 C318.802678,135.173914 319.337789,135.270903 320.006689,135.270903 C320.675589,135.270903 321.224078,135.153847 321.652174,134.919732 C322.08027,134.685618 322.294314,134.394651 322.294314,134.046823 C322.294314,133.739129 322.163881,133.531773 321.90301,133.424749 C321.642139,133.317725 321.264217,133.264214 320.769231,133.264214 L319.745819,133.264214 C319.397992,133.264214 319.117058,133.254181 318.90301,133.234114 C318.688962,133.214047 318.501673,133.183947 318.341137,133.143813 C317.979931,133.464885 317.799331,133.79264 317.799331,134.12709 Z M315.371237,134.588629 C315.371237,133.785949 315.846149,133.11706 316.795987,132.58194 L316.795987,132.501672 C316.528427,132.327758 316.307693,132.107025 316.133779,131.839465 C315.959865,131.571905 315.87291,131.230771 315.87291,130.816054 C315.87291,130.454848 315.979932,130.11037 316.19398,129.782609 C316.408028,129.454848 316.675584,129.177259 316.996656,128.949833 L316.996656,128.869565 C316.648828,128.628761 316.337794,128.284283 316.063545,127.83612 C315.789296,127.387958 315.652174,126.869568 315.652174,126.280936 C315.652174,125.678927 315.765885,125.153848 315.993311,124.705686 C316.220737,124.257523 316.525082,123.882945 316.906355,123.58194 C317.287627,123.280935 317.72575,123.056857 318.220736,122.909699 C318.715722,122.762541 319.230767,122.688963 319.765886,122.688963 C320.354518,122.688963 320.869563,122.76923 321.311037,122.929766 L324.943144,122.929766 L324.943144,125.076923 L323.35786,125.076923 C323.451505,125.224081 323.528428,125.41137 323.588629,125.638796 C323.64883,125.866222 323.67893,126.113711 323.67893,126.381271 C323.67893,126.956525 323.578596,127.454847 323.377926,127.876254 C323.177257,128.297661 322.899667,128.645484 322.545151,128.919732 C322.190634,129.193981 321.775922,129.397993 321.301003,129.531773 C320.826085,129.665553 320.314384,129.732441 319.765886,129.732441 C319.377924,129.732441 318.976591,129.665553 318.561873,129.531773 C318.428093,129.638797 318.334448,129.745819 318.280936,129.852843 C318.227424,129.959867 318.200669,130.100334 318.200669,130.274247 C318.200669,130.528429 318.311036,130.715718 318.531773,130.83612 C318.752509,130.956522 319.14381,131.016722 319.705686,131.016722 L321.311037,131.016722 C322.541812,131.016722 323.481602,131.214045 324.130435,131.608696 C324.779267,132.003346 325.103679,132.648825 325.103679,133.545151 C325.103679,134.066892 324.973245,134.545148 324.712375,134.979933 C324.451504,135.414718 324.08027,135.789296 323.598662,136.103679 C323.117054,136.418062 322.53512,136.665551 321.852843,136.846154 C321.170565,137.026757 320.401342,137.117057 319.545151,137.117057 C318.956519,137.117057 318.411374,137.06689 317.909699,136.966555 C317.408024,136.86622 316.966557,136.71572 316.585284,136.51505 C316.204011,136.31438 315.906356,136.053513 315.692308,135.732441 C315.47826,135.41137 315.371237,135.030103 315.371237,134.588629 Z M319.765886,127.946488 C320.153848,127.946488 320.47826,127.809366 320.73913,127.535117 C321.000001,127.260868 321.130435,126.842812 321.130435,126.280936 C321.130435,125.759195 321.000001,125.361205 320.73913,125.086957 C320.47826,124.812708 320.153848,124.675585 319.765886,124.675585 C319.377924,124.675585 319.053513,124.809363 318.792642,125.076923 C318.531771,125.344483 318.401338,125.745817 318.401338,126.280936 C318.401338,126.842812 318.531771,127.260868 318.792642,127.535117 C319.053513,127.809366 319.377924,127.946488 319.765886,127.946488 Z M326.70903,122.929766 L329.117057,122.929766 L329.317726,124.675585 L329.397993,124.675585 C329.759199,123.993308 330.193977,123.49164 330.702341,123.170569 C331.210705,122.849497 331.719061,122.688963 332.227425,122.688963 C332.508363,122.688963 332.73913,122.705685 332.919732,122.73913 C333.100335,122.772575 333.264213,122.822742 333.411371,122.889632 L332.929766,125.438127 C332.742474,125.384615 332.568563,125.344482 332.408027,125.317726 C332.247491,125.29097 332.060202,125.277592 331.846154,125.277592 C331.47157,125.277592 331.08027,125.41137 330.672241,125.67893 C330.264212,125.94649 329.926423,126.421401 329.658863,127.103679 L329.658863,132.882943 L326.70903,132.882943 L326.70903,122.929766 Z M334.113712,127.906355 C334.113712,127.076919 334.24749,126.337796 334.51505,125.688963 C334.78261,125.040131 335.140466,124.494985 335.588629,124.053512 C336.036792,123.612038 336.555181,123.274249 337.143813,123.040134 C337.732444,122.806019 338.341134,122.688963 338.9699,122.688963 C339.598665,122.688963 340.20401,122.806019 340.785953,123.040134 C341.367896,123.274249 341.882941,123.612038 342.331104,124.053512 C342.779266,124.494985 343.137122,125.040131 343.404682,125.688963 C343.672242,126.337796 343.80602,127.076919 343.80602,127.906355 C343.80602,128.73579 343.672242,129.474913 343.404682,130.123746 C343.137122,130.772578 342.779266,131.317724 342.331104,131.759197 C341.882941,132.200671 341.367896,132.53846 340.785953,132.772575 C340.20401,133.00669 339.598665,133.123746 338.9699,133.123746 C338.341134,133.123746 337.732444,133.00669 337.143813,132.772575 C336.555181,132.53846 336.036792,132.200671 335.588629,131.759197 C335.140466,131.317724 334.78261,130.772578 334.51505,130.123746 C334.24749,129.474913 334.113712,128.73579 334.113712,127.906355 Z M337.143813,127.906355 C337.143813,128.775924 337.294313,129.46488 337.595318,129.973244 C337.896323,130.481608 338.354512,130.735786 338.9699,130.735786 C339.571909,130.735786 340.026754,130.481608 340.334448,129.973244 C340.642142,129.46488 340.795987,128.775924 340.795987,127.906355 C340.795987,127.036785 340.642142,126.347829 340.334448,125.839465 C340.026754,125.331101 339.571909,125.076923 338.9699,125.076923 C338.354512,125.076923 337.896323,125.331101 337.595318,125.839465 C337.294313,126.347829 337.143813,127.036785 337.143813,127.906355 Z M345.732441,122.929766 L348.682274,122.929766 L348.682274,128.729097 C348.682274,129.451509 348.782608,129.946487 348.983278,130.214047 C349.183947,130.481607 349.498326,130.615385 349.926421,130.615385 C350.301005,130.615385 350.615383,130.528429 350.869565,130.354515 C351.123747,130.180601 351.397992,129.899667 351.692308,129.511706 L351.692308,122.929766 L354.64214,122.929766 L354.64214,132.882943 L352.234114,132.882943 L352.013378,131.498328 L351.953177,131.498328 C351.525081,132.006692 351.066892,132.404681 350.578595,132.692308 C350.090299,132.979935 349.50502,133.123746 348.822742,133.123746 C347.739125,133.123746 346.95318,132.769234 346.464883,132.060201 C345.976586,131.351167 345.732441,130.367899 345.732441,129.110368 L345.732441,122.929766 Z M357.230769,122.929766 L359.638796,122.929766 L359.839465,124.19398 L359.919732,124.19398 C360.347828,123.79264 360.816051,123.441473 361.324415,123.140468 C361.832778,122.839463 362.42809,122.688963 363.110368,122.688963 C364.193985,122.688963 364.979931,123.043475 365.468227,123.752508 C365.956524,124.461542 366.200669,125.44481 366.200669,126.702341 L366.200669,132.882943 L363.250836,132.882943 L363.250836,127.083612 C363.250836,126.3612 363.153847,125.866222 362.959866,125.598662 C362.765885,125.331102 362.454852,125.197324 362.026756,125.197324 C361.652172,125.197324 361.331105,125.280936 361.063545,125.448161 C360.795985,125.615385 360.501674,125.852841 360.180602,126.160535 L360.180602,132.882943 L357.230769,132.882943 L357.230769,122.929766 Z M368.187291,127.906355 C368.187291,127.090297 368.304347,126.361207 368.538462,125.719064 C368.772576,125.07692 369.080266,124.531775 369.461538,124.083612 C369.842811,123.635449 370.284278,123.290971 370.785953,123.050167 C371.287628,122.809363 371.799328,122.688963 372.32107,122.688963 C372.882946,122.688963 373.34448,122.782608 373.705686,122.9699 C374.066891,123.157192 374.421403,123.41137 374.769231,123.732441 L374.648829,122.207358 L374.648829,118.816054 L377.598662,118.816054 L377.598662,132.882943 L375.190635,132.882943 L374.989967,131.899666 L374.909699,131.899666 C374.561871,132.247493 374.153848,132.53846 373.685619,132.772575 C373.217389,133.00669 372.742477,133.123746 372.26087,133.123746 C371.645482,133.123746 371.086959,133.003346 370.585284,132.762542 C370.08361,132.521738 369.65552,132.17726 369.301003,131.729097 C368.946487,131.280934 368.672242,130.735789 368.478261,130.093645 C368.28428,129.451502 368.187291,128.722412 368.187291,127.906355 Z M371.217391,127.866221 C371.217391,128.856192 371.37458,129.578593 371.688963,130.033445 C372.003346,130.488297 372.448158,130.715719 373.023411,130.715719 C373.344483,130.715719 373.63545,130.64883 373.896321,130.51505 C374.157192,130.38127 374.408026,130.147159 374.648829,129.812709 L374.648829,125.73913 C374.38127,125.498327 374.107025,125.331104 373.826087,125.237458 C373.545149,125.143812 373.270904,125.09699 373.003344,125.09699 C372.535115,125.09699 372.120403,125.321068 371.759197,125.769231 C371.397992,126.217394 371.217391,126.916383 371.217391,127.866221 Z M379.765886,126.762542 L384.702341,126.762542 L384.702341,128.849498 L379.765886,128.849498 L379.765886,126.762542 Z M388.334448,121.464883 C387.839462,121.464883 387.43144,121.321072 387.110368,121.033445 C386.789296,120.745818 386.628763,120.374584 386.628763,119.919732 C386.628763,119.464881 386.789296,119.096991 387.110368,118.816054 C387.43144,118.535116 387.839462,118.394649 388.334448,118.394649 C388.842812,118.394649 389.254179,118.535116 389.568562,118.816054 C389.882945,119.096991 390.040134,119.464881 390.040134,119.919732 C390.040134,120.374584 389.882945,120.745818 389.568562,121.033445 C389.254179,121.321072 388.842812,121.464883 388.334448,121.464883 Z M386.869565,122.929766 L389.819398,122.929766 L389.819398,132.882943 L386.869565,132.882943 L386.869565,122.929766 Z M392.408027,122.929766 L394.816054,122.929766 L395.016722,124.214047 L395.09699,124.214047 C395.511708,123.799329 395.953175,123.441473 396.421405,123.140468 C396.889634,122.839463 397.451502,122.688963 398.107023,122.688963 C398.816057,122.688963 399.387958,122.832774 399.822742,123.120401 C400.257527,123.408028 400.602005,123.819395 400.856187,124.354515 C401.297661,123.899663 401.762539,123.508363 402.250836,123.180602 C402.739133,122.852841 403.317722,122.688963 403.986622,122.688963 C405.056862,122.688963 405.842807,123.046819 406.344482,123.762542 C406.846156,124.478264 407.09699,125.458188 407.09699,126.702341 L407.09699,132.882943 L404.147157,132.882943 L404.147157,127.083612 C404.147157,126.3612 404.050168,125.866222 403.856187,125.598662 C403.662206,125.331102 403.351173,125.197324 402.923077,125.197324 C402.428091,125.197324 401.859535,125.518391 401.217391,126.160535 L401.217391,132.882943 L398.267559,132.882943 L398.267559,127.083612 C398.267559,126.3612 398.17057,125.866222 397.976589,125.598662 C397.782608,125.331102 397.471574,125.197324 397.043478,125.197324 C396.535115,125.197324 395.973247,125.518391 395.35786,126.160535 L395.35786,132.882943 L392.408027,132.882943 L392.408027,122.929766 Z M409.244147,130.113712 C409.244147,129.070229 409.685614,128.254184 410.568562,127.665552 C411.451509,127.07692 412.876244,126.682275 414.842809,126.481605 C414.816053,126.040132 414.682275,125.688965 414.441472,125.428094 C414.200668,125.167223 413.812712,125.036789 413.277592,125.036789 C412.849496,125.036789 412.421407,125.117056 411.993311,125.277592 C411.565215,125.438128 411.11037,125.658861 410.628763,125.939799 L409.585284,123.993311 C410.227428,123.605349 410.899662,123.290971 411.602007,123.050167 C412.304351,122.809363 413.050163,122.688963 413.839465,122.688963 C415.123752,122.688963 416.103676,123.053508 416.779264,123.782609 C417.454853,124.511709 417.792642,125.645477 417.792642,127.183946 L417.792642,132.882943 L415.384615,132.882943 L415.16388,131.859532 L415.103679,131.859532 C414.675583,132.234116 414.224083,132.53846 413.749164,132.772575 C413.274245,133.00669 412.755856,133.123746 412.19398,133.123746 C411.739128,133.123746 411.331105,133.046824 410.9699,132.892977 C410.608694,132.73913 410.301005,132.525085 410.046823,132.250836 C409.792641,131.976587 409.595318,131.658865 409.454849,131.297659 C409.314381,130.936453 409.244147,130.541808 409.244147,130.113712 Z M412.053512,129.892977 C412.053512,130.214048 412.15719,130.451504 412.364548,130.605351 C412.571907,130.759198 412.849497,130.83612 413.197324,130.83612 C413.545152,130.83612 413.839464,130.762543 414.080268,130.615385 C414.321071,130.468227 414.575249,130.260871 414.842809,129.993311 L414.842809,128.247492 C413.785948,128.39465 413.056858,128.608694 412.655518,128.889632 C412.254179,129.17057 412.053512,129.505015 412.053512,129.892977 Z M422.12709,134.12709 C422.12709,134.501674 422.327757,134.785952 422.729097,134.979933 C423.130437,135.173914 423.665548,135.270903 424.334448,135.270903 C425.003348,135.270903 425.551837,135.153847 425.979933,134.919732 C426.408029,134.685618 426.622074,134.394651 426.622074,134.046823 C426.622074,133.739129 426.49164,133.531773 426.230769,133.424749 C425.969898,133.317725 425.591976,133.264214 425.09699,133.264214 L424.073579,133.264214 C423.725751,133.264214 423.444817,133.254181 423.230769,133.234114 C423.016721,133.214047 422.829432,133.183947 422.668896,133.143813 C422.307691,133.464885 422.12709,133.79264 422.12709,134.12709 Z M419.698997,134.588629 C419.698997,133.785949 420.173908,133.11706 421.123746,132.58194 L421.123746,132.501672 C420.856186,132.327758 420.635452,132.107025 420.461538,131.839465 C420.287625,131.571905 420.200669,131.230771 420.200669,130.816054 C420.200669,130.454848 420.307691,130.11037 420.521739,129.782609 C420.735787,129.454848 421.003343,129.177259 421.324415,128.949833 L421.324415,128.869565 C420.976587,128.628761 420.665553,128.284283 420.391304,127.83612 C420.117055,127.387958 419.979933,126.869568 419.979933,126.280936 C419.979933,125.678927 420.093644,125.153848 420.32107,124.705686 C420.548496,124.257523 420.852841,123.882945 421.234114,123.58194 C421.615387,123.280935 422.053509,123.056857 422.548495,122.909699 C423.043481,122.762541 423.558526,122.688963 424.093645,122.688963 C424.682277,122.688963 425.197322,122.76923 425.638796,122.929766 L429.270903,122.929766 L429.270903,125.076923 L427.685619,125.076923 C427.779265,125.224081 427.856187,125.41137 427.916388,125.638796 C427.976589,125.866222 428.006689,126.113711 428.006689,126.381271 C428.006689,126.956525 427.906356,127.454847 427.705686,127.876254 C427.505016,128.297661 427.227427,128.645484 426.87291,128.919732 C426.518393,129.193981 426.103681,129.397993 425.628763,129.531773 C425.153844,129.665553 424.642143,129.732441 424.093645,129.732441 C423.705684,129.732441 423.30435,129.665553 422.889632,129.531773 C422.755852,129.638797 422.662208,129.745819 422.608696,129.852843 C422.555184,129.959867 422.528428,130.100334 422.528428,130.274247 C422.528428,130.528429 422.638795,130.715718 422.859532,130.83612 C423.080269,130.956522 423.471569,131.016722 424.033445,131.016722 L425.638796,131.016722 C426.869571,131.016722 427.809361,131.214045 428.458194,131.608696 C429.107027,132.003346 429.431438,132.648825 429.431438,133.545151 C429.431438,134.066892 429.301005,134.545148 429.040134,134.979933 C428.779263,135.414718 428.408029,135.789296 427.926421,136.103679 C427.444814,136.418062 426.86288,136.665551 426.180602,136.846154 C425.498324,137.026757 424.729101,137.117057 423.87291,137.117057 C423.284278,137.117057 422.739133,137.06689 422.237458,136.966555 C421.735783,136.86622 421.294316,136.71572 420.913043,136.51505 C420.531771,136.31438 420.234115,136.053513 420.020067,135.732441 C419.806019,135.41137 419.698997,135.030103 419.698997,134.588629 Z M424.093645,127.946488 C424.481607,127.946488 424.806019,127.809366 425.06689,127.535117 C425.327761,127.260868 425.458194,126.842812 425.458194,126.280936 C425.458194,125.759195 425.327761,125.361205 425.06689,125.086957 C424.806019,124.812708 424.481607,124.675585 424.093645,124.675585 C423.705684,124.675585 423.381272,124.809363 423.120401,125.076923 C422.85953,125.344483 422.729097,125.745817 422.729097,126.280936 C422.729097,126.842812 422.85953,127.260868 423.120401,127.535117 C423.381272,127.809366 423.705684,127.946488 424.093645,127.946488 Z M430.454849,127.906355 C430.454849,127.103675 430.588627,126.37793 430.856187,125.729097 C431.123747,125.080264 431.474914,124.531775 431.909699,124.083612 C432.344484,123.635449 432.842807,123.290971 433.404682,123.050167 C433.966558,122.809363 434.548492,122.688963 435.150502,122.688963 C435.859535,122.688963 436.478258,122.809363 437.006689,123.050167 C437.53512,123.290971 437.976587,123.625416 438.331104,124.053512 C438.685621,124.481607 438.949832,124.986619 439.123746,125.568562 C439.29766,126.150505 439.384615,126.782605 439.384615,127.464883 C439.384615,127.732443 439.371238,127.976588 439.344482,128.197324 C439.317726,128.418061 439.29097,128.588628 439.264214,128.70903 L433.304348,128.70903 C433.438128,129.471576 433.735784,130.02341 434.197324,130.364548 C434.658865,130.705687 435.224077,130.876254 435.892977,130.876254 C436.60201,130.876254 437.317722,130.655521 438.040134,130.214047 L439.023411,132 C438.515048,132.347828 437.949836,132.622073 437.327759,132.822742 C436.705683,133.023412 436.093648,133.123746 435.491639,133.123746 C434.782605,133.123746 434.120404,133.00669 433.505017,132.772575 C432.889629,132.53846 432.354517,132.197327 431.899666,131.749164 C431.444814,131.301001 431.090302,130.755856 430.83612,130.113712 C430.581939,129.471569 430.454849,128.73579 430.454849,127.906355 Z M436.876254,126.882943 C436.876254,126.307689 436.749165,125.839467 436.494983,125.478261 C436.240801,125.117055 435.812712,124.936455 435.210702,124.936455 C434.742473,124.936455 434.331105,125.093644 433.976589,125.408027 C433.622072,125.72241 433.391305,126.214043 433.284281,126.882943 L436.876254,126.882943 Z" id="Header-with-backgrou" fill="#FFFFFF"></path>
        </g>
    </g>
</svg>