<?xml version="1.0" encoding="UTF-8"?>
<svg width="600px" height="256px" viewBox="0 0 600 256" version="1.1" xmlns="http://www.w3.org/2000/svg" xmlns:xlink="http://www.w3.org/1999/xlink">
    <!-- Generator: Sketch 44.1 (41455) - http://www.bohemiancoding.com/sketch -->
    <title>headerimages06</title>
    <desc>Created with Sketch.</desc>
    <defs></defs>
    <g id="Page-1" stroke="none" stroke-width="1" fill="none" fill-rule="evenodd">
        <g id="06">
            <rect id="Rectangle-2" fill="#4A4A4A" x="0" y="0" width="600" height="255.852843"></rect>
            <path d="M248.251505,100.559197 L250.000334,100.559197 L250.000334,106.353512 L256.426756,106.353512 L256.426756,100.559197 L258.196656,100.559197 L258.196656,114.381271 L256.426756,114.381271 L256.426756,107.870569 L250.000334,107.870569 L250.000334,114.381271 L248.251505,114.381271 L248.251505,100.559197 Z M261.062207,109.282274 C261.062207,108.439461 261.192139,107.684451 261.452007,107.017224 C261.711874,106.349997 262.056018,105.784618 262.484448,105.32107 C262.912878,104.857523 263.401001,104.502844 263.948829,104.257023 C264.496658,104.011203 265.065549,103.888294 265.655518,103.888294 C266.301675,103.888294 266.881101,104.000668 267.393813,104.225418 C267.906524,104.450168 268.334948,104.773242 268.679097,105.194649 C269.023246,105.616056 269.286621,106.121736 269.469231,106.711706 C269.65184,107.301675 269.743144,107.961869 269.743144,108.692308 C269.743144,109.071574 269.722074,109.387624 269.679933,109.640468 L262.768896,109.640468 C262.839131,110.750173 263.179763,111.62809 263.790803,112.274247 C264.401843,112.920405 265.198992,113.243478 266.182274,113.243478 C266.673916,113.243478 267.126921,113.169733 267.541304,113.022241 C267.955688,112.874748 268.352506,112.681607 268.731773,112.442809 L269.342809,113.580602 C268.893309,113.86154 268.394652,114.107357 267.846823,114.31806 C267.298994,114.528764 266.673917,114.634114 265.971572,114.634114 C265.283274,114.634114 264.640638,114.511205 264.043645,114.265385 C263.446653,114.019564 262.926925,113.668397 262.484448,113.211873 C262.041971,112.755349 261.694316,112.196993 261.441472,111.536789 C261.188627,110.876585 261.062207,110.125088 261.062207,109.282274 Z M268.226087,108.502676 C268.226087,107.449159 268.004852,106.644986 267.562375,106.090134 C267.119897,105.535282 266.498332,105.25786 265.697659,105.25786 C265.33244,105.25786 264.984784,105.331605 264.654682,105.479097 C264.32458,105.626589 264.026088,105.83729 263.759197,106.111204 C263.492306,106.385118 263.271071,106.722239 263.095485,107.122575 C262.919899,107.522912 262.804014,107.982941 262.747826,108.502676 L268.226087,108.502676 Z M271.470903,111.726421 C271.470903,110.60267 271.973072,109.742311 272.977425,109.145318 C273.981778,108.548325 275.579588,108.130436 277.770903,107.891639 C277.770903,107.56856 277.739298,107.25251 277.676087,106.943478 C277.612876,106.634447 277.500502,106.360536 277.338963,106.121739 C277.177424,105.882942 276.963212,105.6898 276.696321,105.542308 C276.42943,105.394815 276.085286,105.32107 275.66388,105.32107 C275.059863,105.32107 274.501508,105.433444 273.988796,105.658194 C273.476084,105.882944 273.016056,106.135785 272.608696,106.416722 L271.913378,105.215719 C272.390972,104.906687 272.97391,104.608195 273.662207,104.320234 C274.350505,104.032273 275.109026,103.888294 275.937793,103.888294 C277.187966,103.888294 278.093977,104.271066 278.655853,105.036622 C279.217729,105.802178 279.498662,106.824074 279.498662,108.102341 L279.498662,114.381271 L278.065886,114.381271 L277.918395,113.159197 L277.876254,113.159197 C277.384613,113.566557 276.854351,113.914213 276.285452,114.202174 C275.716552,114.490135 275.116057,114.634114 274.483946,114.634114 C273.613039,114.634114 272.893147,114.381273 272.324247,113.875585 C271.755348,113.369897 271.470903,112.653516 271.470903,111.726421 Z M273.177592,111.6 C273.177592,112.18997 273.349664,112.61137 273.693813,112.864214 C274.037962,113.117058 274.462874,113.243478 274.968562,113.243478 C275.460203,113.243478 275.927255,113.127593 276.369732,112.895819 C276.81221,112.664046 277.279262,112.323414 277.770903,111.873913 L277.770903,109.029431 C276.914043,109.141807 276.190638,109.27525 275.600669,109.429766 C275.010699,109.584282 274.536624,109.766889 274.178428,109.977592 C273.820232,110.188295 273.56388,110.430601 273.409365,110.704515 C273.254849,110.978429 273.177592,111.276921 273.177592,111.6 Z M282.02709,109.282274 C282.02709,108.453508 282.149999,107.705522 282.395819,107.038294 C282.64164,106.371067 282.968225,105.805688 283.375585,105.34214 C283.782945,104.878593 284.253509,104.520403 284.787291,104.267559 C285.321073,104.014714 285.88294,103.888294 286.47291,103.888294 C287.062879,103.888294 287.575583,103.993644 288.011037,104.204348 C288.44649,104.415051 288.888961,104.703008 289.338462,105.068227 L289.254181,103.319398 L289.254181,99.3792642 L291.00301,99.3792642 L291.00301,114.381271 L289.570234,114.381271 L289.422742,113.180268 L289.359532,113.180268 C288.952172,113.573581 288.48512,113.914213 287.958361,114.202174 C287.431603,114.490135 286.866224,114.634114 286.262207,114.634114 C284.969893,114.634114 283.940974,114.170573 283.175418,113.243478 C282.409862,112.316383 282.02709,110.995995 282.02709,109.282274 Z M283.81806,109.261204 C283.81806,110.497331 284.063877,111.459528 284.555518,112.147826 C285.04716,112.836124 285.74247,113.180268 286.641472,113.180268 C287.119066,113.180268 287.56856,113.064382 287.989967,112.832609 C288.411373,112.600835 288.832774,112.246156 289.254181,111.768562 L289.254181,106.416722 C288.818727,106.023409 288.400838,105.745987 288.000502,105.584448 C287.600165,105.422909 287.1893,105.34214 286.767893,105.34214 C286.360533,105.34214 285.977761,105.436956 285.619565,105.626589 C285.261369,105.816222 284.948831,106.083109 284.68194,106.427258 C284.415049,106.771406 284.204349,107.182272 284.049833,107.659866 C283.895317,108.137461 283.81806,108.671235 283.81806,109.261204 Z M293.7,109.282274 C293.7,108.439461 293.829932,107.684451 294.089799,107.017224 C294.349667,106.349997 294.693811,105.784618 295.122241,105.32107 C295.550671,104.857523 296.038793,104.502844 296.586622,104.257023 C297.134451,104.011203 297.703342,103.888294 298.293311,103.888294 C298.939468,103.888294 299.518894,104.000668 300.031605,104.225418 C300.544317,104.450168 300.972741,104.773242 301.31689,105.194649 C301.661039,105.616056 301.924414,106.121736 302.107023,106.711706 C302.289633,107.301675 302.380936,107.961869 302.380936,108.692308 C302.380936,109.071574 302.359866,109.387624 302.317726,109.640468 L295.406689,109.640468 C295.476923,110.750173 295.817555,111.62809 296.428595,112.274247 C297.039635,112.920405 297.836784,113.243478 298.820067,113.243478 C299.311708,113.243478 299.764714,113.169733 300.179097,113.022241 C300.59348,112.874748 300.990299,112.681607 301.369565,112.442809 L301.980602,113.580602 C301.531101,113.86154 301.032444,114.107357 300.484615,114.31806 C299.936787,114.528764 299.311709,114.634114 298.609365,114.634114 C297.921067,114.634114 297.278431,114.511205 296.681438,114.265385 C296.084445,114.019564 295.564718,113.668397 295.122241,113.211873 C294.679764,112.755349 294.332108,112.196993 294.079264,111.536789 C293.82642,110.876585 293.7,110.125088 293.7,109.282274 Z M300.86388,108.502676 C300.86388,107.449159 300.642644,106.644986 300.200167,106.090134 C299.75769,105.535282 299.136124,105.25786 298.335452,105.25786 C297.970232,105.25786 297.622577,105.331605 297.292475,105.479097 C296.962373,105.626589 296.663881,105.83729 296.39699,106.111204 C296.130099,106.385118 295.908864,106.722239 295.733278,107.122575 C295.557691,107.522912 295.441806,107.982941 295.385619,108.502676 L300.86388,108.502676 Z M304.909365,104.141137 L306.34214,104.141137 L306.489632,105.995318 L306.552843,105.995318 C306.904015,105.349161 307.328927,104.836457 307.827592,104.457191 C308.326257,104.077925 308.870566,103.888294 309.460535,103.888294 C309.867895,103.888294 310.233109,103.958528 310.556187,104.098997 L310.219064,105.616054 C310.050501,105.559866 309.895987,105.517726 309.755518,105.489632 C309.615049,105.461538 309.439466,105.447492 309.228763,105.447492 C308.793309,105.447492 308.340303,105.623075 307.869732,105.974247 C307.399162,106.32542 306.988296,106.93645 306.637124,107.807358 L306.637124,114.381271 L304.909365,114.381271 L304.909365,104.141137 Z M315.254849,104.141137 L317.024749,104.141137 L318.541806,110.061873 C318.654181,110.553514 318.759531,111.031101 318.85786,111.494649 C318.956188,111.958196 319.054515,112.42876 319.152843,112.906355 L319.237124,112.906355 C319.349499,112.42876 319.461872,111.954685 319.574247,111.484114 C319.686623,111.013543 319.806019,110.539467 319.932441,110.061873 L321.512709,104.141137 L323.198328,104.141137 L324.799666,110.061873 C324.926088,110.553514 325.048996,111.031101 325.168395,111.494649 C325.287793,111.958196 325.403678,112.42876 325.516054,112.906355 L325.600334,112.906355 C325.71271,112.42876 325.81806,111.958196 325.916388,111.494649 C326.014716,111.031101 326.120066,110.553514 326.232441,110.061873 L327.728428,104.141137 L329.371906,104.141137 L326.632776,114.381271 L324.525753,114.381271 L323.050836,108.88194 C322.924414,108.390299 322.808529,107.905688 322.703177,107.428094 C322.597826,106.950499 322.48194,106.451842 322.355518,105.932107 L322.271237,105.932107 C322.158862,106.451842 322.046489,106.954011 321.934114,107.438629 C321.821739,107.923247 321.695318,108.411369 321.554849,108.90301 L320.122074,114.381271 L318.099331,114.381271 L315.254849,104.141137 Z M332.490301,102.034114 C332.153176,102.034114 331.86873,101.928764 331.636957,101.71806 C331.405183,101.507357 331.289298,101.24047 331.289298,100.917391 C331.289298,100.580266 331.405183,100.309867 331.636957,100.106187 C331.86873,99.9025073 332.153176,99.8006689 332.490301,99.8006689 C332.827426,99.8006689 333.111872,99.9025073 333.343645,100.106187 C333.575419,100.309867 333.691304,100.580266 333.691304,100.917391 C333.691304,101.24047 333.575419,101.507357 333.343645,101.71806 C333.111872,101.928764 332.827426,102.034114 332.490301,102.034114 Z M331.605351,104.141137 L333.33311,104.141137 L333.33311,114.381271 L331.605351,114.381271 L331.605351,104.141137 Z M337.083612,105.552843 L335.566555,105.552843 L335.566555,104.246488 L337.167893,104.141137 L337.378595,101.275585 L338.832441,101.275585 L338.832441,104.141137 L341.592642,104.141137 L341.592642,105.552843 L338.832441,105.552843 L338.832441,111.241806 C338.832441,111.873916 338.948327,112.362038 339.1801,112.706187 C339.411874,113.050336 339.82274,113.222408 340.412709,113.222408 C340.595319,113.222408 340.791972,113.194315 341.002676,113.138127 C341.213379,113.08194 341.403009,113.018729 341.571572,112.948495 L341.908696,114.254849 C341.627758,114.353178 341.322242,114.44097 340.99214,114.518227 C340.662038,114.595485 340.335453,114.634114 340.012375,114.634114 C339.464546,114.634114 339.004517,114.549834 338.632274,114.381271 C338.260032,114.212708 337.958028,113.980938 337.726254,113.685953 C337.49448,113.390968 337.329432,113.032778 337.231104,112.611371 C337.132775,112.189964 337.083612,111.726424 337.083612,111.220736 L337.083612,105.552843 Z M343.910368,99.3792642 L345.638127,99.3792642 L345.638127,103.46689 L345.574916,105.573913 C346.066558,105.110366 346.579262,104.713547 347.113043,104.383445 C347.646825,104.053343 348.271903,103.888294 348.988294,103.888294 C350.069905,103.888294 350.860031,104.225415 351.358696,104.899666 C351.85736,105.573916 352.106689,106.571231 352.106689,107.891639 L352.106689,114.381271 L350.37893,114.381271 L350.37893,108.123411 C350.37893,107.154176 350.224416,106.455353 349.915385,106.026923 C349.606353,105.598493 349.114719,105.384281 348.440468,105.384281 C347.906686,105.384281 347.436122,105.517724 347.028763,105.784615 C346.621403,106.051506 346.157862,106.444813 345.638127,106.964548 L345.638127,114.381271 L343.910368,114.381271 L343.910368,99.3792642 Z M219.574916,129.479599 L221.302676,129.479599 L221.302676,133.567224 L221.260535,135.421405 C221.724083,135.014045 222.229763,134.673413 222.777592,134.399498 C223.325421,134.125584 223.887288,133.988629 224.463211,133.988629 C225.123415,133.988629 225.706352,134.111537 226.21204,134.357358 C226.717728,134.603178 227.14264,134.954346 227.486789,135.41087 C227.830938,135.867394 228.090802,136.415214 228.266388,137.054348 C228.441974,137.693481 228.529766,138.406351 228.529766,139.192977 C228.529766,140.063884 228.410369,140.843475 228.171572,141.531773 C227.932775,142.22007 227.609701,142.803008 227.202341,143.280602 C226.794981,143.758196 226.324417,144.119898 225.790635,144.365719 C225.256854,144.61154 224.694986,144.734448 224.105017,144.734448 C223.627422,144.734448 223.132277,144.625586 222.619565,144.40786 C222.106854,144.190133 221.625755,143.877594 221.176254,143.470234 L221.113043,143.470234 L220.965552,144.481605 L219.574916,144.481605 L219.574916,129.479599 Z M221.302676,142.20602 C221.752176,142.599333 222.198158,142.876755 222.640635,143.038294 C223.083113,143.199834 223.472908,143.280602 223.810033,143.280602 C224.23144,143.280602 224.621236,143.185787 224.979431,142.996154 C225.337627,142.806521 225.646654,142.539634 225.906522,142.195485 C226.166389,141.851336 226.370066,141.426424 226.517559,140.920736 C226.665051,140.415048 226.738796,139.846157 226.738796,139.214047 C226.738796,138.652171 226.689633,138.139467 226.591304,137.67592 C226.492976,137.212372 226.334951,136.815553 226.117224,136.485452 C225.899497,136.15535 225.618564,135.898998 225.274415,135.716388 C224.930266,135.533778 224.5194,135.442475 224.041806,135.442475 C223.213039,135.442475 222.300005,135.906015 221.302676,136.83311 L221.302676,142.20602 Z M230.468227,141.826756 C230.468227,140.703004 230.970396,139.842645 231.974749,139.245652 C232.979102,138.648659 234.576912,138.23077 236.768227,137.991973 C236.768227,137.668895 236.736622,137.352844 236.673411,137.043813 C236.6102,136.734781 236.497827,136.460871 236.336288,136.222074 C236.174748,135.983276 235.960536,135.790135 235.693645,135.642642 C235.426755,135.49515 235.082611,135.421405 234.661204,135.421405 C234.057188,135.421405 233.498832,135.533778 232.98612,135.758528 C232.473409,135.983279 232.01338,136.236119 231.60602,136.517057 L230.910702,135.316054 C231.388297,135.007022 231.971234,134.70853 232.659532,134.420569 C233.34783,134.132607 234.10635,133.988629 234.935117,133.988629 C236.185291,133.988629 237.091302,134.371401 237.653177,135.136957 C238.215053,135.902512 238.495987,136.924408 238.495987,138.202676 L238.495987,144.481605 L237.063211,144.481605 L236.915719,143.259532 L236.873579,143.259532 C236.381937,143.666892 235.851675,144.014547 235.282776,144.302508 C234.713877,144.59047 234.113381,144.734448 233.481271,144.734448 C232.610364,144.734448 231.890471,144.481608 231.321572,143.97592 C230.752673,143.470232 230.468227,142.753851 230.468227,141.826756 Z M232.174916,141.700334 C232.174916,142.290304 232.346988,142.711704 232.691137,142.964548 C233.035286,143.217393 233.460198,143.343813 233.965886,143.343813 C234.457528,143.343813 234.92458,143.227928 235.367057,142.996154 C235.809534,142.76438 236.276586,142.423748 236.768227,141.974247 L236.768227,139.129766 C235.911367,139.242141 235.187963,139.375585 234.597993,139.5301 C234.008024,139.684616 233.533948,139.867223 233.175753,140.077926 C232.817557,140.28863 232.561205,140.530935 232.406689,140.804849 C232.252173,141.078764 232.174916,141.377256 232.174916,141.700334 Z M241.003344,139.382609 C241.003344,138.525748 241.136788,137.763716 241.403679,137.096488 C241.67057,136.429261 242.02876,135.863882 242.478261,135.400334 C242.927761,134.936787 243.451,134.58562 244.047993,134.346823 C244.644986,134.108026 245.273575,133.988629 245.933779,133.988629 C246.60803,133.988629 247.187456,134.111537 247.672074,134.357358 C248.156691,134.603178 248.57458,134.887624 248.925753,135.210702 L248.061873,136.327425 C247.752841,136.060534 247.433279,135.84281 247.103177,135.674247 C246.773075,135.505685 246.40435,135.421405 245.99699,135.421405 C245.533442,135.421405 245.105019,135.51622 244.711706,135.705853 C244.318393,135.895486 243.981272,136.165885 243.700334,136.517057 C243.419397,136.868229 243.198161,137.286118 243.036622,137.770736 C242.875083,138.255354 242.794314,138.792639 242.794314,139.382609 C242.794314,139.972578 242.871571,140.506352 243.026087,140.983946 C243.180603,141.461541 243.394815,141.872406 243.668729,142.216555 C243.942644,142.560704 244.276252,142.827591 244.669565,143.017224 C245.062878,143.206857 245.491302,143.301672 245.954849,143.301672 C246.446491,143.301672 246.892473,143.199834 247.292809,142.996154 C247.693146,142.792474 248.047825,142.550169 248.356856,142.269231 L249.136455,143.407023 C248.672907,143.814383 248.156692,144.137457 247.587793,144.376254 C247.018893,144.615051 246.425421,144.734448 245.807358,144.734448 C245.133107,144.734448 244.501006,144.615051 243.911037,144.376254 C243.321067,144.137457 242.811875,143.789802 242.383445,143.333278 C241.955015,142.876754 241.617894,142.314886 241.372074,141.647659 C241.126253,140.980431 241.003344,140.225422 241.003344,139.382609 Z M251.3699,129.479599 L253.076589,129.479599 L253.076589,139.635452 L253.139799,139.635452 L257.501338,134.241472 L259.418729,134.241472 L255.984281,138.350167 L259.882274,144.481605 L257.985953,144.481605 L254.99398,139.551171 L253.076589,141.784615 L253.076589,144.481605 L251.3699,144.481605 L251.3699,129.479599 Z M262.326421,146.209365 C262.326421,146.757193 262.589797,147.192641 263.116555,147.515719 C263.643314,147.838798 264.370229,148.000334 265.297324,148.000334 C265.788966,148.000334 266.234948,147.940636 266.635284,147.821237 C267.035621,147.701839 267.376253,147.547325 267.657191,147.357692 C267.938128,147.168059 268.155852,146.946824 268.310368,146.69398 C268.464884,146.441136 268.54214,146.181272 268.54214,145.914381 C268.54214,145.436787 268.366557,145.10669 268.015385,144.92408 C267.664212,144.741471 267.151508,144.650167 266.477258,144.650167 L264.707358,144.650167 C264.510701,144.650167 264.296489,144.639632 264.064716,144.618562 C263.832942,144.597492 263.604683,144.55184 263.379933,144.481605 C263.014714,144.748496 262.747827,145.02943 262.579264,145.324415 C262.410701,145.619399 262.326421,145.91438 262.326421,146.209365 Z M260.809365,146.441137 C260.809365,146.005683 260.942808,145.591306 261.209699,145.197993 C261.47659,144.80468 261.841804,144.44649 262.305351,144.123411 L262.305351,144.03913 C262.052507,143.884615 261.838295,143.670403 261.662709,143.396488 C261.487123,143.122574 261.399331,142.781942 261.399331,142.374582 C261.399331,141.939128 261.518728,141.559868 261.757525,141.236789 C261.996322,140.913711 262.249163,140.66087 262.516054,140.478261 L262.516054,140.39398 C262.178928,140.113042 261.873413,139.737293 261.599498,139.266722 C261.325584,138.796151 261.188629,138.251843 261.188629,137.633779 C261.188629,137.071904 261.290467,136.566223 261.494147,136.116722 C261.697827,135.667222 261.975249,135.28445 262.326421,134.968395 C262.677594,134.65234 263.088459,134.410034 263.55903,134.241472 C264.029601,134.072909 264.524747,133.988629 265.044482,133.988629 C265.325419,133.988629 265.588795,134.01321 265.834615,134.062375 C266.080436,134.111539 266.301671,134.171237 266.498328,134.241472 L270.059197,134.241472 L270.059197,135.568896 L267.952174,135.568896 C268.190971,135.807694 268.391136,136.109697 268.552676,136.474916 C268.714215,136.840136 268.794983,137.240466 268.794983,137.67592 C268.794983,138.223749 268.696657,138.718894 268.5,139.161371 C268.303343,139.603848 268.036457,139.976085 267.699331,140.278094 C267.362206,140.580102 266.965387,140.815384 266.508863,140.983946 C266.052339,141.152509 265.564217,141.236789 265.044482,141.236789 C264.791638,141.236789 264.531774,141.205184 264.264883,141.141973 C263.997992,141.078762 263.745152,140.99097 263.506355,140.878595 C263.323745,141.033111 263.169231,141.205183 263.042809,141.394816 C262.916387,141.584449 262.853177,141.819731 262.853177,142.100669 C262.853177,142.423747 262.979597,142.690634 263.232441,142.901338 C263.485286,143.112041 263.962873,143.217391 264.665217,143.217391 L266.645819,143.217391 C267.839805,143.217391 268.735281,143.410533 269.332274,143.796823 C269.929267,144.183112 270.227759,144.804678 270.227759,145.661538 C270.227759,146.139133 270.108362,146.592138 269.869565,147.020569 C269.630768,147.448999 269.286624,147.824748 268.837124,148.147826 C268.387623,148.470905 267.843314,148.727257 267.204181,148.91689 C266.565047,149.106523 265.845155,149.201338 265.044482,149.201338 C264.412371,149.201338 263.836457,149.141639 263.316722,149.022241 C262.796987,148.902842 262.351005,148.723747 261.978763,148.48495 C261.60652,148.246153 261.318563,147.958196 261.114883,147.62107 C260.911203,147.283945 260.809365,146.890638 260.809365,146.441137 Z M265.044482,140.077926 C265.339466,140.077926 265.616888,140.02174 265.876756,139.909365 C266.136623,139.796989 266.368394,139.635453 266.572074,139.424749 C266.775754,139.214046 266.933779,138.957694 267.046154,138.655686 C267.158529,138.353677 267.214716,138.013045 267.214716,137.633779 C267.214716,136.875247 267.004015,136.288798 266.582609,135.874415 C266.161202,135.460031 265.648498,135.252843 265.044482,135.252843 C264.440465,135.252843 263.927761,135.460031 263.506355,135.874415 C263.084948,136.288798 262.874247,136.875247 262.874247,137.633779 C262.874247,138.013045 262.930434,138.353677 263.042809,138.655686 C263.155185,138.957694 263.31321,139.214046 263.51689,139.424749 C263.72057,139.635453 263.95234,139.796989 264.212207,139.909365 C264.472075,140.02174 264.749497,140.077926 265.044482,140.077926 Z M272.208361,134.241472 L273.641137,134.241472 L273.788629,136.095652 L273.851839,136.095652 C274.203012,135.449495 274.627924,134.936791 275.126589,134.557525 C275.625253,134.178259 276.169562,133.988629 276.759532,133.988629 C277.166892,133.988629 277.532105,134.058862 277.855184,134.199331 L277.51806,135.716388 C277.349497,135.6602 277.194984,135.61806 277.054515,135.589967 C276.914046,135.561873 276.738463,135.547826 276.527759,135.547826 C276.092306,135.547826 275.6393,135.72341 275.168729,136.074582 C274.698158,136.425754 274.287293,137.036785 273.93612,137.907692 L273.93612,144.481605 L272.208361,144.481605 L272.208361,134.241472 Z M278.550502,139.382609 C278.550502,138.525748 278.680433,137.763716 278.940301,137.096488 C279.200169,136.429261 279.547824,135.863882 279.983278,135.400334 C280.418731,134.936787 280.9209,134.58562 281.489799,134.346823 C282.058698,134.108026 282.659194,133.988629 283.291304,133.988629 C283.923415,133.988629 284.52391,134.108026 285.092809,134.346823 C285.661709,134.58562 286.163877,134.936787 286.599331,135.400334 C287.034785,135.863882 287.38244,136.429261 287.642308,137.096488 C287.902175,137.763716 288.032107,138.525748 288.032107,139.382609 C288.032107,140.225422 287.902175,140.980431 287.642308,141.647659 C287.38244,142.314886 287.034785,142.876754 286.599331,143.333278 C286.163877,143.789802 285.661709,144.137457 285.092809,144.376254 C284.52391,144.615051 283.923415,144.734448 283.291304,144.734448 C282.659194,144.734448 282.058698,144.615051 281.489799,144.376254 C280.9209,144.137457 280.418731,143.789802 279.983278,143.333278 C279.547824,142.876754 279.200169,142.314886 278.940301,141.647659 C278.680433,140.980431 278.550502,140.225422 278.550502,139.382609 Z M280.341472,139.382609 C280.341472,139.972578 280.411705,140.506352 280.552174,140.983946 C280.692643,141.461541 280.892808,141.872406 281.152676,142.216555 C281.412543,142.560704 281.725082,142.827591 282.090301,143.017224 C282.45552,143.206857 282.855851,143.301672 283.291304,143.301672 C283.726758,143.301672 284.127088,143.206857 284.492308,143.017224 C284.857527,142.827591 285.170066,142.560704 285.429933,142.216555 C285.689801,141.872406 285.889966,141.461541 286.030435,140.983946 C286.170904,140.506352 286.241137,139.972578 286.241137,139.382609 C286.241137,138.792639 286.170904,138.255354 286.030435,137.770736 C285.889966,137.286118 285.689801,136.868229 285.429933,136.517057 C285.170066,136.165885 284.857527,135.895486 284.492308,135.705853 C284.127088,135.51622 283.726758,135.421405 283.291304,135.421405 C282.855851,135.421405 282.45552,135.51622 282.090301,135.705853 C281.725082,135.895486 281.412543,136.165885 281.152676,136.517057 C280.892808,136.868229 280.692643,137.286118 280.552174,137.770736 C280.411705,138.255354 280.341472,138.792639 280.341472,139.382609 Z M290.581605,134.241472 L292.330435,134.241472 L292.330435,140.499331 C292.330435,141.468567 292.481437,142.167389 292.783445,142.595819 C293.085453,143.02425 293.573575,143.238462 294.247826,143.238462 C294.781608,143.238462 295.252172,143.101506 295.659532,142.827592 C296.066892,142.553678 296.516386,142.114719 297.008027,141.510702 L297.008027,134.241472 L298.735786,134.241472 L298.735786,144.481605 L297.30301,144.481605 L297.155518,142.880268 L297.092308,142.880268 C296.614713,143.442143 296.112544,143.891637 295.585786,144.228763 C295.059027,144.565888 294.437462,144.734448 293.72107,144.734448 C292.625413,144.734448 291.828263,144.397328 291.329599,143.723077 C290.830934,143.048826 290.581605,142.051512 290.581605,140.731104 L290.581605,134.241472 Z M302.191304,134.241472 L303.62408,134.241472 L303.771572,135.716388 L303.834783,135.716388 C304.326424,135.224747 304.842639,134.813881 305.383445,134.483779 C305.92425,134.153677 306.552839,133.988629 307.269231,133.988629 C308.350842,133.988629 309.140967,134.325749 309.639632,135 C310.138297,135.674251 310.387625,136.671565 310.387625,137.991973 L310.387625,144.481605 L308.659866,144.481605 L308.659866,138.223746 C308.659866,137.25451 308.505353,136.555688 308.196321,136.127258 C307.887289,135.698827 307.395656,135.484615 306.721405,135.484615 C306.187623,135.484615 305.717059,135.618059 305.309699,135.88495 C304.902339,136.151841 304.438799,136.545148 303.919064,137.064883 L303.919064,144.481605 L302.191304,144.481605 L302.191304,134.241472 Z M312.979264,139.382609 C312.979264,138.553842 313.102173,137.805856 313.347993,137.138629 C313.593814,136.471401 313.920399,135.906022 314.327759,135.442475 C314.735119,134.978927 315.205683,134.620737 315.739465,134.367893 C316.273247,134.115049 316.835114,133.988629 317.425084,133.988629 C318.015053,133.988629 318.527757,134.093979 318.963211,134.304682 C319.398664,134.515386 319.841135,134.803343 320.290635,135.168562 L320.206355,133.419732 L320.206355,129.479599 L321.955184,129.479599 L321.955184,144.481605 L320.522408,144.481605 L320.374916,143.280602 L320.311706,143.280602 C319.904346,143.673915 319.437294,144.014547 318.910535,144.302508 C318.383777,144.59047 317.818398,144.734448 317.214381,144.734448 C315.922067,144.734448 314.893148,144.270908 314.127592,143.343813 C313.362036,142.416718 312.979264,141.09633 312.979264,139.382609 Z M314.770234,139.361538 C314.770234,140.597665 315.016051,141.559863 315.507692,142.248161 C315.999334,142.936458 316.694644,143.280602 317.593645,143.280602 C318.07124,143.280602 318.520734,143.164717 318.94214,142.932943 C319.363547,142.701169 319.784948,142.346491 320.206355,141.868896 L320.206355,136.517057 C319.770901,136.123744 319.353012,135.846322 318.952676,135.684783 C318.552339,135.523243 318.141474,135.442475 317.720067,135.442475 C317.312707,135.442475 316.929935,135.53729 316.571739,135.726923 C316.213543,135.916556 315.901005,136.183443 315.634114,136.527592 C315.367223,136.871741 315.156523,137.282606 315.002007,137.760201 C314.847491,138.237795 314.770234,138.771569 314.770234,139.361538 Z M330.551839,132.134448 C330.214714,132.134448 329.930269,132.029098 329.698495,131.818395 C329.466721,131.607691 329.350836,131.340804 329.350836,131.017726 C329.350836,130.6806 329.466721,130.410202 329.698495,130.206522 C329.930269,130.002842 330.214714,129.901003 330.551839,129.901003 C330.888965,129.901003 331.17341,130.002842 331.405184,130.206522 C331.636958,130.410202 331.752843,130.6806 331.752843,131.017726 C331.752843,131.340804 331.636958,131.607691 331.405184,131.818395 C331.17341,132.029098 330.888965,132.134448 330.551839,132.134448 Z M329.66689,134.241472 L331.394649,134.241472 L331.394649,144.481605 L329.66689,144.481605 L329.66689,134.241472 Z M334.850167,134.241472 L336.282943,134.241472 L336.430435,135.716388 L336.493645,135.716388 C336.943146,135.224747 337.431268,134.813881 337.958027,134.483779 C338.484785,134.153677 339.057188,133.988629 339.675251,133.988629 C340.461877,133.988629 341.076419,134.160701 341.518896,134.504849 C341.961373,134.848998 342.287959,135.330097 342.498662,135.948161 C343.032444,135.358191 343.56973,134.884116 344.110535,134.52592 C344.65134,134.167724 345.237789,133.988629 345.8699,133.988629 C346.923417,133.988629 347.706519,134.325749 348.219231,135 C348.731942,135.674251 348.988294,136.671565 348.988294,137.991973 L348.988294,144.481605 L347.260535,144.481605 L347.260535,138.223746 C347.260535,137.25451 347.106022,136.555688 346.79699,136.127258 C346.487958,135.698827 346.010371,135.484615 345.364214,135.484615 C344.591635,135.484615 343.734787,136.011366 342.793645,137.064883 L342.793645,144.481605 L341.065886,144.481605 L341.065886,138.223746 C341.065886,137.25451 340.911373,136.555688 340.602341,136.127258 C340.293309,135.698827 339.808699,135.484615 339.148495,135.484615 C338.375916,135.484615 337.519068,136.011366 336.577926,137.064883 L336.577926,144.481605 L334.850167,144.481605 L334.850167,134.241472 Z M351.811706,141.826756 C351.811706,140.703004 352.313875,139.842645 353.318227,139.245652 C354.32258,138.648659 355.92039,138.23077 358.111706,137.991973 C358.111706,137.668895 358.080101,137.352844 358.01689,137.043813 C357.953679,136.734781 357.841305,136.460871 357.679766,136.222074 C357.518227,135.983276 357.304015,135.790135 357.037124,135.642642 C356.770233,135.49515 356.426089,135.421405 356.004682,135.421405 C355.400666,135.421405 354.84231,135.533778 354.329599,135.758528 C353.816887,135.983279 353.356858,136.236119 352.949498,136.517057 L352.254181,135.316054 C352.731775,135.007022 353.314712,134.70853 354.00301,134.420569 C354.691308,134.132607 355.449829,133.988629 356.278595,133.988629 C357.528769,133.988629 358.43478,134.371401 358.996656,135.136957 C359.558531,135.902512 359.839465,136.924408 359.839465,138.202676 L359.839465,144.481605 L358.406689,144.481605 L358.259197,143.259532 L358.217057,143.259532 C357.725416,143.666892 357.195153,144.014547 356.626254,144.302508 C356.057355,144.59047 355.456859,144.734448 354.824749,144.734448 C353.953842,144.734448 353.233949,144.481608 352.66505,143.97592 C352.096151,143.470232 351.811706,142.753851 351.811706,141.826756 Z M353.518395,141.700334 C353.518395,142.290304 353.690467,142.711704 354.034615,142.964548 C354.378764,143.217393 354.803676,143.343813 355.309365,143.343813 C355.801006,143.343813 356.268058,143.227928 356.710535,142.996154 C357.153012,142.76438 357.620064,142.423748 358.111706,141.974247 L358.111706,139.129766 C357.254845,139.242141 356.531441,139.375585 355.941472,139.5301 C355.351502,139.684616 354.877427,139.867223 354.519231,140.077926 C354.161035,140.28863 353.904683,140.530935 353.750167,140.804849 C353.595651,141.078764 353.518395,141.377256 353.518395,141.700334 Z M363.842809,146.209365 C363.842809,146.757193 364.106185,147.192641 364.632943,147.515719 C365.159702,147.838798 365.886617,148.000334 366.813712,148.000334 C367.305354,148.000334 367.751336,147.940636 368.151672,147.821237 C368.552009,147.701839 368.892641,147.547325 369.173579,147.357692 C369.454516,147.168059 369.67224,146.946824 369.826756,146.69398 C369.981272,146.441136 370.058528,146.181272 370.058528,145.914381 C370.058528,145.436787 369.882945,145.10669 369.531773,144.92408 C369.1806,144.741471 368.667896,144.650167 367.993645,144.650167 L366.223746,144.650167 C366.027089,144.650167 365.812877,144.639632 365.581104,144.618562 C365.34933,144.597492 365.121071,144.55184 364.896321,144.481605 C364.531102,144.748496 364.264215,145.02943 364.095652,145.324415 C363.927089,145.619399 363.842809,145.91438 363.842809,146.209365 Z M362.325753,146.441137 C362.325753,146.005683 362.459196,145.591306 362.726087,145.197993 C362.992978,144.80468 363.358192,144.44649 363.821739,144.123411 L363.821739,144.03913 C363.568895,143.884615 363.354683,143.670403 363.179097,143.396488 C363.003511,143.122574 362.915719,142.781942 362.915719,142.374582 C362.915719,141.939128 363.035116,141.559868 363.273913,141.236789 C363.51271,140.913711 363.765551,140.66087 364.032441,140.478261 L364.032441,140.39398 C363.695316,140.113042 363.389801,139.737293 363.115886,139.266722 C362.841972,138.796151 362.705017,138.251843 362.705017,137.633779 C362.705017,137.071904 362.806855,136.566223 363.010535,136.116722 C363.214215,135.667222 363.491637,135.28445 363.842809,134.968395 C364.193982,134.65234 364.604847,134.410034 365.075418,134.241472 C365.545989,134.072909 366.041135,133.988629 366.56087,133.988629 C366.841807,133.988629 367.105183,134.01321 367.351003,134.062375 C367.596824,134.111539 367.818059,134.171237 368.014716,134.241472 L371.575585,134.241472 L371.575585,135.568896 L369.468562,135.568896 C369.707359,135.807694 369.907524,136.109697 370.069064,136.474916 C370.230603,136.840136 370.311371,137.240466 370.311371,137.67592 C370.311371,138.223749 370.213044,138.718894 370.016388,139.161371 C369.819731,139.603848 369.552844,139.976085 369.215719,140.278094 C368.878594,140.580102 368.481775,140.815384 368.025251,140.983946 C367.568727,141.152509 367.080605,141.236789 366.56087,141.236789 C366.308025,141.236789 366.048162,141.205184 365.781271,141.141973 C365.51438,141.078762 365.26154,140.99097 365.022742,140.878595 C364.840133,141.033111 364.685619,141.205183 364.559197,141.394816 C364.432775,141.584449 364.369565,141.819731 364.369565,142.100669 C364.369565,142.423747 364.495985,142.690634 364.748829,142.901338 C365.001674,143.112041 365.479261,143.217391 366.181605,143.217391 L368.162207,143.217391 C369.356193,143.217391 370.251669,143.410533 370.848662,143.796823 C371.445655,144.183112 371.744147,144.804678 371.744147,145.661538 C371.744147,146.139133 371.62475,146.592138 371.385953,147.020569 C371.147156,147.448999 370.803012,147.824748 370.353512,148.147826 C369.904011,148.470905 369.359702,148.727257 368.720569,148.91689 C368.081435,149.106523 367.361542,149.201338 366.56087,149.201338 C365.928759,149.201338 365.352845,149.141639 364.83311,149.022241 C364.313375,148.902842 363.867393,148.723747 363.495151,148.48495 C363.122908,148.246153 362.834951,147.958196 362.631271,147.62107 C362.427591,147.283945 362.325753,146.890638 362.325753,146.441137 Z M366.56087,140.077926 C366.855854,140.077926 367.133276,140.02174 367.393144,139.909365 C367.653011,139.796989 367.884782,139.635453 368.088462,139.424749 C368.292141,139.214046 368.450167,138.957694 368.562542,138.655686 C368.674917,138.353677 368.731104,138.013045 368.731104,137.633779 C368.731104,136.875247 368.520403,136.288798 368.098997,135.874415 C367.67759,135.460031 367.164886,135.252843 366.56087,135.252843 C365.956853,135.252843 365.444149,135.460031 365.022742,135.874415 C364.601336,136.288798 364.390635,136.875247 364.390635,137.633779 C364.390635,138.013045 364.446822,138.353677 364.559197,138.655686 C364.671572,138.957694 364.829598,139.214046 365.033278,139.424749 C365.236958,139.635453 365.468728,139.796989 365.728595,139.909365 C365.988463,140.02174 366.265885,140.077926 366.56087,140.077926 Z M372.671237,139.382609 C372.671237,138.539795 372.801169,137.784786 373.061037,137.117559 C373.320904,136.450331 373.665048,135.884952 374.093478,135.421405 C374.521908,134.957857 375.010031,134.603178 375.55786,134.357358 C376.105688,134.111537 376.674579,133.988629 377.264548,133.988629 C377.910706,133.988629 378.490131,134.101002 379.002843,134.325753 C379.515554,134.550503 379.943978,134.873576 380.288127,135.294983 C380.632276,135.71639 380.895651,136.222071 381.078261,136.81204 C381.26087,137.40201 381.352174,138.062204 381.352174,138.792642 C381.352174,139.171908 381.331104,139.487959 381.288963,139.740803 L374.377926,139.740803 C374.448161,140.850507 374.788793,141.728425 375.399833,142.374582 C376.010873,143.020739 376.808022,143.343813 377.791304,143.343813 C378.282946,143.343813 378.735951,143.270068 379.150334,143.122575 C379.564718,142.975083 379.961537,142.781941 380.340803,142.543144 L380.951839,143.680936 C380.502339,143.961874 380.003682,144.207691 379.455853,144.418395 C378.908024,144.629098 378.282947,144.734448 377.580602,144.734448 C376.892304,144.734448 376.249669,144.61154 375.652676,144.365719 C375.055683,144.119898 374.535955,143.768731 374.093478,143.312207 C373.651001,142.855683 373.303346,142.297328 373.050502,141.637124 C372.797658,140.97692 372.671237,140.225422 372.671237,139.382609 Z M379.835117,138.60301 C379.835117,137.549493 379.613882,136.745321 379.171405,136.190468 C378.728928,135.635616 378.107362,135.358194 377.306689,135.358194 C376.94147,135.358194 376.593814,135.431939 376.263712,135.579431 C375.93361,135.726924 375.635118,135.937624 375.368227,136.211538 C375.101336,136.485453 374.880101,136.822573 374.704515,137.22291 C374.528929,137.623246 374.413044,138.083275 374.356856,138.60301 L379.835117,138.60301 Z M241.224582,175.445819 L241.224582,178.901338 L239.496823,178.901338 L239.496823,164.341806 L240.929599,164.341806 L241.07709,165.521739 L241.140301,165.521739 C241.603848,165.128426 242.113041,164.791306 242.667893,164.510368 C243.222745,164.22943 243.802171,164.088963 244.406187,164.088963 C245.066391,164.088963 245.649329,164.211872 246.155017,164.457692 C246.660705,164.703513 247.082105,165.05468 247.419231,165.511204 C247.756356,165.967728 248.012708,166.515549 248.188294,167.154682 C248.36388,167.793816 248.451672,168.513708 248.451672,169.314381 C248.451672,170.185289 248.332275,170.961368 248.093478,171.642642 C247.854681,172.323916 247.531607,172.903342 247.124247,173.380936 C246.716888,173.858531 246.246324,174.220233 245.712542,174.466054 C245.17876,174.711874 244.616893,174.834783 244.026923,174.834783 C243.549329,174.834783 243.075253,174.729432 242.604682,174.518729 C242.134111,174.308026 241.660036,174.020069 241.182441,173.654849 L241.224582,175.445819 Z M241.224582,172.306355 C241.688129,172.699668 242.137623,172.977089 242.573077,173.138629 C243.008531,173.300168 243.394814,173.380936 243.73194,173.380936 C244.153347,173.380936 244.543142,173.286121 244.901338,173.096488 C245.259534,172.906855 245.568561,172.639968 245.828428,172.295819 C246.088296,171.951671 246.291973,171.526758 246.439465,171.02107 C246.586957,170.515382 246.660702,169.946491 246.660702,169.314381 C246.660702,168.752506 246.611539,168.239802 246.513211,167.776254 C246.414882,167.312707 246.256857,166.915888 246.03913,166.585786 C245.821404,166.255684 245.54047,165.999332 245.196321,165.816722 C244.852172,165.634113 244.441307,165.542809 243.963712,165.542809 C243.528259,165.542809 243.0893,165.662206 242.646823,165.901003 C242.204346,166.139801 241.73027,166.483944 241.224582,166.933445 L241.224582,172.306355 Z M250.390134,171.92709 C250.390134,170.803339 250.892303,169.94298 251.896656,169.345987 C252.901008,168.748994 254.498818,168.331105 256.690134,168.092308 C256.690134,167.769229 256.658529,167.453179 256.595318,167.144147 C256.532107,166.835116 256.419733,166.561205 256.258194,166.322408 C256.096655,166.083611 255.882443,165.890469 255.615552,165.742977 C255.348661,165.595484 255.004517,165.521739 254.58311,165.521739 C253.979094,165.521739 253.420738,165.634113 252.908027,165.858863 C252.395315,166.083613 251.935286,166.336453 251.527926,166.617391 L250.832609,165.416388 C251.310203,165.107356 251.89314,164.808864 252.581438,164.520903 C253.269736,164.232942 254.028257,164.088963 254.857023,164.088963 C256.107197,164.088963 257.013208,164.471735 257.575084,165.237291 C258.136959,166.002847 258.417893,167.024743 258.417893,168.30301 L258.417893,174.58194 L256.985117,174.58194 L256.837625,173.359866 L256.795485,173.359866 C256.303844,173.767226 255.773581,174.114882 255.204682,174.402843 C254.635783,174.690804 254.035287,174.834783 253.403177,174.834783 C252.53227,174.834783 251.812377,174.581942 251.243478,174.076254 C250.674579,173.570566 250.390134,172.854185 250.390134,171.92709 Z M252.096823,171.800669 C252.096823,172.390638 252.268895,172.812039 252.613043,173.064883 C252.957192,173.317727 253.382104,173.444147 253.887793,173.444147 C254.379434,173.444147 254.846486,173.328262 255.288963,173.096488 C255.73144,172.864715 256.198493,172.524083 256.690134,172.074582 L256.690134,169.2301 C255.833273,169.342475 255.109869,169.475919 254.5199,169.630435 C253.92993,169.784951 253.455855,169.967557 253.097659,170.178261 C252.739463,170.388964 252.483111,170.63127 252.328595,170.905184 C252.174079,171.179098 252.096823,171.47759 252.096823,171.800669 Z M261.683779,164.341806 L263.116555,164.341806 L263.264047,166.195987 L263.327258,166.195987 C263.67843,165.54983 264.103342,165.037126 264.602007,164.65786 C265.100671,164.278593 265.64498,164.088963 266.23495,164.088963 C266.64231,164.088963 267.007523,164.159197 267.330602,164.299666 L266.993478,165.816722 C266.824916,165.760535 266.670402,165.718395 266.529933,165.690301 C266.389464,165.662207 266.213881,165.648161 266.003177,165.648161 C265.567724,165.648161 265.114718,165.823744 264.644147,166.174916 C264.173576,166.526089 263.762711,167.137119 263.411538,168.008027 L263.411538,174.58194 L261.683779,174.58194 L261.683779,164.341806 Z M267.962709,171.92709 C267.962709,170.803339 268.464878,169.94298 269.469231,169.345987 C270.473584,168.748994 272.071394,168.331105 274.262709,168.092308 C274.262709,167.769229 274.231104,167.453179 274.167893,167.144147 C274.104682,166.835116 273.992308,166.561205 273.830769,166.322408 C273.66923,166.083611 273.455018,165.890469 273.188127,165.742977 C272.921236,165.595484 272.577092,165.521739 272.155686,165.521739 C271.551669,165.521739 270.993314,165.634113 270.480602,165.858863 C269.96789,166.083613 269.507862,166.336453 269.100502,166.617391 L268.405184,165.416388 C268.882778,165.107356 269.465716,164.808864 270.154013,164.520903 C270.842311,164.232942 271.600832,164.088963 272.429599,164.088963 C273.679772,164.088963 274.585783,164.471735 275.147659,165.237291 C275.709535,166.002847 275.990468,167.024743 275.990468,168.30301 L275.990468,174.58194 L274.557692,174.58194 L274.410201,173.359866 L274.36806,173.359866 C273.876419,173.767226 273.346157,174.114882 272.777258,174.402843 C272.208358,174.690804 271.607863,174.834783 270.975753,174.834783 C270.104845,174.834783 269.384953,174.581942 268.816054,174.076254 C268.247154,173.570566 267.962709,172.854185 267.962709,171.92709 Z M269.669398,171.800669 C269.669398,172.390638 269.84147,172.812039 270.185619,173.064883 C270.529768,173.317727 270.95468,173.444147 271.460368,173.444147 C271.952009,173.444147 272.419061,173.328262 272.861538,173.096488 C273.304016,172.864715 273.771068,172.524083 274.262709,172.074582 L274.262709,169.2301 C273.405849,169.342475 272.682444,169.475919 272.092475,169.630435 C271.502505,169.784951 271.02843,169.967557 270.670234,170.178261 C270.312038,170.388964 270.055686,170.63127 269.901171,170.905184 C269.746655,171.179098 269.669398,171.47759 269.669398,171.800669 Z M279.256355,159.579933 L280.984114,159.579933 L280.984114,172.643478 C280.984114,172.924416 281.033277,173.12107 281.131605,173.233445 C281.229934,173.34582 281.342307,173.402007 281.468729,173.402007 L281.626756,173.402007 C281.67592,173.402007 281.749665,173.38796 281.847993,173.359866 L282.079766,174.666221 C281.967391,174.722408 281.833947,174.764548 281.679431,174.792642 C281.524916,174.820736 281.328262,174.834783 281.089465,174.834783 C280.429261,174.834783 279.958697,174.638129 279.677759,174.244816 C279.396821,173.851503 279.256355,173.275589 279.256355,172.517057 L279.256355,159.579933 Z M284.629264,159.579933 L286.357023,159.579933 L286.357023,172.643478 C286.357023,172.924416 286.406187,173.12107 286.504515,173.233445 C286.602843,173.34582 286.715217,173.402007 286.841639,173.402007 L286.999666,173.402007 C287.04883,173.402007 287.122575,173.38796 287.220903,173.359866 L287.452676,174.666221 C287.3403,174.722408 287.206857,174.764548 287.052341,174.792642 C286.897825,174.820736 286.701172,174.834783 286.462375,174.834783 C285.802171,174.834783 285.331607,174.638129 285.050669,174.244816 C284.769731,173.851503 284.629264,173.275589 284.629264,172.517057 L284.629264,159.579933 Z M289.496488,171.92709 C289.496488,170.803339 289.998657,169.94298 291.00301,169.345987 C292.007363,168.748994 293.605173,168.331105 295.796488,168.092308 C295.796488,167.769229 295.764883,167.453179 295.701672,167.144147 C295.638461,166.835116 295.526088,166.561205 295.364548,166.322408 C295.203009,166.083611 294.988797,165.890469 294.721906,165.742977 C294.455015,165.595484 294.110872,165.521739 293.689465,165.521739 C293.085448,165.521739 292.527093,165.634113 292.014381,165.858863 C291.50167,166.083613 291.041641,166.336453 290.634281,166.617391 L289.938963,165.416388 C290.416558,165.107356 290.999495,164.808864 291.687793,164.520903 C292.37609,164.232942 293.134611,164.088963 293.963378,164.088963 C295.213551,164.088963 296.119562,164.471735 296.681438,165.237291 C297.243314,166.002847 297.524247,167.024743 297.524247,168.30301 L297.524247,174.58194 L296.091472,174.58194 L295.94398,173.359866 L295.901839,173.359866 C295.410198,173.767226 294.879936,174.114882 294.311037,174.402843 C293.742138,174.690804 293.141642,174.834783 292.509532,174.834783 C291.638624,174.834783 290.918732,174.581942 290.349833,174.076254 C289.780934,173.570566 289.496488,172.854185 289.496488,171.92709 Z M291.203177,171.800669 C291.203177,172.390638 291.375249,172.812039 291.719398,173.064883 C292.063547,173.317727 292.488459,173.444147 292.994147,173.444147 C293.485788,173.444147 293.952841,173.328262 294.395318,173.096488 C294.837795,172.864715 295.304847,172.524083 295.796488,172.074582 L295.796488,169.2301 C294.939628,169.342475 294.216224,169.475919 293.626254,169.630435 C293.036285,169.784951 292.562209,169.967557 292.204013,170.178261 C291.845818,170.388964 291.589466,170.63127 291.43495,170.905184 C291.280434,171.179098 291.203177,171.47759 291.203177,171.800669 Z M302.707525,169.2301 L299.610201,164.341806 L301.485452,164.341806 L302.855017,166.596321 C303.009533,166.877259 303.171069,167.161704 303.339632,167.449666 C303.508195,167.737627 303.683778,168.022072 303.866388,168.30301 L303.950669,168.30301 C304.105185,168.022072 304.259698,167.737627 304.414214,167.449666 C304.56873,167.161704 304.723243,166.877259 304.877759,166.596321 L306.120903,164.341806 L307.932943,164.341806 L304.835619,169.419732 L308.164716,174.58194 L306.289465,174.58194 L304.793478,172.201003 L304.245652,171.273913 C304.063043,170.964881 303.873412,170.662878 303.676756,170.367893 L303.592475,170.367893 C303.409865,170.662878 303.234282,170.96137 303.065719,171.263378 C302.897156,171.565386 302.728596,171.877925 302.560033,172.201003 L301.169398,174.58194 L299.357358,174.58194 L302.707525,169.2301 Z M313.685117,169.482943 C313.685117,168.64013 313.815049,167.88512 314.074916,167.217893 C314.334784,166.550666 314.678928,165.985287 315.107358,165.521739 C315.535788,165.058192 316.02391,164.703513 316.571739,164.457692 C317.119568,164.211872 317.688459,164.088963 318.278428,164.088963 C318.924585,164.088963 319.504011,164.201337 320.016722,164.426087 C320.529434,164.650837 320.957858,164.973911 321.302007,165.395318 C321.646156,165.816725 321.909531,166.322405 322.09214,166.912375 C322.27475,167.502344 322.366054,168.162538 322.366054,168.892977 C322.366054,169.272243 322.344983,169.588293 322.302843,169.841137 L315.391806,169.841137 C315.46204,170.950842 315.802673,171.828759 316.413712,172.474916 C317.024752,173.121073 317.821901,173.444147 318.805184,173.444147 C319.296825,173.444147 319.749831,173.370402 320.164214,173.22291 C320.578597,173.075417 320.975416,172.882275 321.354682,172.643478 L321.965719,173.781271 C321.516218,174.062209 321.017561,174.308026 320.469732,174.518729 C319.921904,174.729432 319.296826,174.834783 318.594482,174.834783 C317.906184,174.834783 317.263548,174.711874 316.666555,174.466054 C316.069562,174.220233 315.549835,173.869066 315.107358,173.412542 C314.664881,172.956018 314.317225,172.397662 314.064381,171.737458 C313.811537,171.077254 313.685117,170.325757 313.685117,169.482943 Z M320.848997,168.703344 C320.848997,167.649828 320.627761,166.845655 320.185284,166.290803 C319.742807,165.73595 319.121241,165.458528 318.320569,165.458528 C317.955349,165.458528 317.607694,165.532274 317.277592,165.679766 C316.94749,165.827258 316.648998,166.037958 316.382107,166.311873 C316.115216,166.585787 315.893981,166.922908 315.718395,167.323244 C315.542808,167.723581 315.426923,168.183609 315.370736,168.703344 L320.848997,168.703344 Z M335.51388,160.991639 C335.10652,160.823076 334.720236,160.738796 334.355017,160.738796 C333.385781,160.738796 332.901171,161.39899 332.901171,162.719398 L332.901171,164.341806 L335.071405,164.341806 L335.071405,165.753512 L332.901171,165.753512 L332.901171,174.58194 L331.173411,174.58194 L331.173411,165.753512 L326.917224,165.753512 L326.917224,174.58194 L325.189465,174.58194 L325.189465,165.753512 L323.798829,165.753512 L323.798829,164.447157 L325.189465,164.341806 L325.189465,162.993311 C325.189465,161.925747 325.45284,161.082946 325.979599,160.464883 C326.506357,159.84682 327.303506,159.537793 328.37107,159.537793 C328.708196,159.537793 329.041804,159.572909 329.371906,159.643144 C329.702008,159.713378 329.993477,159.804682 330.246321,159.917057 L329.888127,161.223411 C329.46672,161.040802 329.010203,160.949498 328.518562,160.949498 C328.012874,160.949498 327.619567,161.128594 327.338629,161.486789 C327.057691,161.844985 326.917224,162.361201 326.917224,163.035452 L326.917224,164.341806 L331.173411,164.341806 L331.173411,162.719398 C331.173411,161.665881 331.415717,160.837127 331.900334,160.23311 C332.384952,159.629094 333.139961,159.32709 334.165385,159.32709 C334.488463,159.32709 334.793978,159.358695 335.08194,159.421906 C335.369901,159.485117 335.633276,159.565886 335.872074,159.664214 L335.51388,160.991639 Z M336.019565,169.482943 C336.019565,168.64013 336.149497,167.88512 336.409365,167.217893 C336.669232,166.550666 337.013376,165.985287 337.441806,165.521739 C337.870236,165.058192 338.358358,164.703513 338.906187,164.457692 C339.454016,164.211872 340.022907,164.088963 340.612876,164.088963 C341.259033,164.088963 341.838459,164.201337 342.351171,164.426087 C342.863882,164.650837 343.292306,164.973911 343.636455,165.395318 C343.980604,165.816725 344.243979,166.322405 344.426589,166.912375 C344.609198,167.502344 344.700502,168.162538 344.700502,168.892977 C344.700502,169.272243 344.679432,169.588293 344.637291,169.841137 L337.726254,169.841137 C337.796489,170.950842 338.137121,171.828759 338.748161,172.474916 C339.3592,173.121073 340.15635,173.444147 341.139632,173.444147 C341.631273,173.444147 342.084279,173.370402 342.498662,173.22291 C342.913046,173.075417 343.309864,172.882275 343.68913,172.643478 L344.300167,173.781271 C343.850667,174.062209 343.352009,174.308026 342.804181,174.518729 C342.256352,174.729432 341.631274,174.834783 340.92893,174.834783 C340.240632,174.834783 339.597996,174.711874 339.001003,174.466054 C338.40401,174.220233 337.884283,173.869066 337.441806,173.412542 C336.999329,172.956018 336.651674,172.397662 336.398829,171.737458 C336.145985,171.077254 336.019565,170.325757 336.019565,169.482943 Z M343.183445,168.703344 C343.183445,167.649828 342.96221,166.845655 342.519732,166.290803 C342.077255,165.73595 341.45569,165.458528 340.655017,165.458528 C340.289798,165.458528 339.942142,165.532274 339.61204,165.679766 C339.281938,165.827258 338.983446,166.037958 338.716555,166.311873 C338.449664,166.585787 338.228429,166.922908 338.052843,167.323244 C337.877257,167.723581 337.761372,168.183609 337.705184,168.703344 L343.183445,168.703344 Z M346.470401,169.482943 C346.470401,168.626083 346.603845,167.86405 346.870736,167.196823 C347.137627,166.529595 347.495817,165.964216 347.945318,165.500669 C348.394818,165.037121 348.918057,164.685954 349.51505,164.447157 C350.112043,164.20836 350.740632,164.088963 351.400836,164.088963 C352.075087,164.088963 352.654513,164.211872 353.13913,164.457692 C353.623748,164.703513 354.041637,164.987958 354.392809,165.311037 L353.52893,166.427759 C353.219898,166.160868 352.900336,165.943145 352.570234,165.774582 C352.240132,165.606019 351.871407,165.521739 351.464047,165.521739 C351.000499,165.521739 350.572076,165.616554 350.178763,165.806187 C349.78545,165.99582 349.448329,166.266219 349.167391,166.617391 C348.886453,166.968564 348.665218,167.386452 348.503679,167.87107 C348.34214,168.355688 348.261371,168.892974 348.261371,169.482943 C348.261371,170.072913 348.338628,170.606687 348.493144,171.084281 C348.64766,171.561875 348.861872,171.972741 349.135786,172.31689 C349.4097,172.661039 349.743309,172.927925 350.136622,173.117559 C350.529935,173.307192 350.958359,173.402007 351.421906,173.402007 C351.913548,173.402007 352.35953,173.300168 352.759866,173.096488 C353.160203,172.892808 353.514881,172.650503 353.823913,172.369565 L354.603512,173.507358 C354.139964,173.914718 353.623749,174.237791 353.054849,174.476589 C352.48595,174.715386 351.892478,174.834783 351.274415,174.834783 C350.600164,174.834783 349.968063,174.715386 349.378094,174.476589 C348.788124,174.237791 348.278932,173.890136 347.850502,173.433612 C347.422071,172.977088 347.084951,172.415221 346.83913,171.747993 C346.59331,171.080766 346.470401,170.325757 346.470401,169.482943 Z M357.13194,165.753512 L355.614883,165.753512 L355.614883,164.447157 L357.216221,164.341806 L357.426923,161.476254 L358.880769,161.476254 L358.880769,164.341806 L361.64097,164.341806 L361.64097,165.753512 L358.880769,165.753512 L358.880769,171.442475 C358.880769,172.074585 358.996654,172.562707 359.228428,172.906856 C359.460202,173.251005 359.871067,173.423077 360.461037,173.423077 C360.643646,173.423077 360.8403,173.394984 361.051003,173.338796 C361.261707,173.282608 361.451337,173.219398 361.6199,173.149164 L361.957023,174.455518 C361.676086,174.553847 361.37057,174.641638 361.040468,174.718896 C360.710366,174.796154 360.383781,174.834783 360.060702,174.834783 C359.512874,174.834783 359.052845,174.750503 358.680602,174.58194 C358.308359,174.413377 358.006356,174.181607 357.774582,173.886622 C357.542808,173.591637 357.37776,173.233447 357.279431,172.81204 C357.181103,172.390633 357.13194,171.927093 357.13194,171.421405 L357.13194,165.753512 Z" id="Header-with-backgrou" fill="#FFFFFF"></path>
            <path d="M267.892977,67.3204013 L269.506355,67.3204013 C269.795319,67.3204013 270.060199,67.3471569 270.301003,67.4006689 C270.541807,67.4541809 270.746487,67.5411365 270.91505,67.6615385 C271.083613,67.7819404 271.214715,67.9411361 271.308361,68.1391304 C271.402007,68.3371247 271.448829,68.5806006 271.448829,68.8695652 C271.448829,69.1478275 271.402007,69.3886277 271.308361,69.5919732 C271.214715,69.7953187 271.082275,69.9638789 270.911037,70.0976589 C270.739798,70.2314388 270.535118,70.3317722 270.29699,70.3986622 C270.058862,70.4655522 269.795319,70.4989967 269.506355,70.4989967 L268.559197,70.4989967 L268.559197,72.5859532 L267.892977,72.5859532 L267.892977,67.3204013 Z M269.426087,69.9531773 C269.88629,69.9531773 270.227424,69.8662216 270.449498,69.6923077 C270.671573,69.5183938 270.782609,69.244149 270.782609,68.8695652 C270.782609,68.4896302 270.670235,68.2260877 270.445485,68.0789298 C270.220735,67.9317718 269.880939,67.858194 269.426087,67.858194 L268.559197,67.858194 L268.559197,69.9531773 L269.426087,69.9531773 Z M277.364548,70.4428094 L277.115719,69.6401338 C277.019398,69.3458179 276.928429,69.0528443 276.842809,68.761204 C276.75719,68.4695638 276.671572,68.171239 276.585953,67.8662207 L276.553846,67.8662207 C276.473578,68.171239 276.390636,68.4695638 276.305017,68.761204 C276.219398,69.0528443 276.128429,69.3458179 276.032107,69.6401338 L275.783278,70.4428094 L277.364548,70.4428094 Z M277.53311,70.980602 L275.614716,70.980602 L275.10903,72.5859532 L274.426756,72.5859532 L276.208696,67.3204013 L276.963211,67.3204013 L278.745151,72.5859532 L278.030769,72.5859532 L277.53311,70.980602 Z M282.116388,69.9531773 C282.116388,69.5304327 282.176588,69.1505034 282.29699,68.8133779 C282.417392,68.4762525 282.585952,68.1899677 282.802676,67.9545151 C283.019399,67.7190624 283.274915,67.5384622 283.569231,67.412709 C283.863547,67.2869559 284.187289,67.2240803 284.540468,67.2240803 C284.90435,67.2240803 285.208026,67.292307 285.451505,67.4287625 C285.694984,67.5652181 285.894314,67.7137116 286.049498,67.8742475 L285.672241,68.2996656 C285.538461,68.1605344 285.384616,68.0441476 285.210702,67.9505017 C285.036788,67.8568557 284.816055,67.8100334 284.548495,67.8100334 C284.280935,67.8100334 284.040135,67.8595313 283.826087,67.9585284 C283.612039,68.0575256 283.430101,68.1993302 283.280268,68.3839465 C283.130434,68.5685628 283.014047,68.7919719 282.931104,69.0541806 C282.84816,69.3163893 282.806689,69.6107007 282.806689,69.9371237 C282.806689,70.268898 282.845485,70.5672228 282.923077,70.832107 C283.000669,71.0969913 283.113043,71.323076 283.260201,71.5103679 C283.407359,71.6976598 283.589297,71.84214 283.80602,71.9438127 C284.022744,72.0454855 284.272908,72.0963211 284.556522,72.0963211 C284.743814,72.0963211 284.921738,72.0682277 285.090301,72.0120401 C285.258864,71.9558526 285.396655,71.8795991 285.503679,71.7832776 L285.503679,70.4107023 L284.38796,70.4107023 L284.38796,69.8568562 L286.113712,69.8568562 L286.113712,72.0722408 C285.942474,72.2488303 285.716389,72.3946483 285.435452,72.509699 C285.154514,72.6247497 284.83746,72.6822742 284.484281,72.6822742 C284.136453,72.6822742 283.818062,72.6207364 283.529097,72.4976589 C283.240132,72.3745813 282.991305,72.1966567 282.782609,71.9638796 C282.573912,71.7311025 282.410703,71.4448178 282.292977,71.1050167 C282.17525,70.7652157 282.116388,70.381273 282.116388,69.9531773 Z M290.383946,67.3204013 L293.41806,67.3204013 L293.41806,67.8822742 L291.050167,67.8822742 L291.050167,69.535786 L293.048829,69.535786 L293.048829,70.1056856 L291.050167,70.1056856 L291.050167,72.0160535 L293.498328,72.0160535 L293.498328,72.5859532 L290.383946,72.5859532 L290.383946,67.3204013 Z M303.347157,67.8822742 L301.75786,67.8822742 L301.75786,67.3204013 L305.610702,67.3204013 L305.610702,67.8822742 L304.021405,67.8822742 L304.021405,72.5859532 L303.347157,72.5859532 L303.347157,67.8822742 Z M309.567893,67.3204013 L310.234114,67.3204013 L310.234114,72.5859532 L309.567893,72.5859532 L309.567893,67.3204013 Z M315.780602,67.8822742 L314.191304,67.8822742 L314.191304,67.3204013 L318.044147,67.3204013 L318.044147,67.8822742 L316.454849,67.8822742 L316.454849,72.5859532 L315.780602,72.5859532 L315.780602,67.8822742 Z M322.001338,67.3204013 L322.667559,67.3204013 L322.667559,72.0160535 L324.971237,72.0160535 L324.971237,72.5859532 L322.001338,72.5859532 L322.001338,67.3204013 Z M328.912375,67.3204013 L331.946488,67.3204013 L331.946488,67.8822742 L329.578595,67.8822742 L329.578595,69.535786 L331.577258,69.535786 L331.577258,70.1056856 L329.578595,70.1056856 L329.578595,72.0160535 L332.026756,72.0160535 L332.026756,72.5859532 L328.912375,72.5859532 L328.912375,67.3204013 Z" id="PAGE-TITLE" fill="#FFFFFF"></path>
        </g>
    </g>
</svg>