<?xml version="1.0" encoding="UTF-8"?>
<svg width="600px" height="279px" viewBox="0 0 600 279" version="1.1" xmlns="http://www.w3.org/2000/svg" xmlns:xlink="http://www.w3.org/1999/xlink">
    <!-- Generator: Sketch 44.1 (41455) - http://www.bohemiancoding.com/sketch -->
    <title>headerimages16</title>
    <desc>Created with Sketch.</desc>
    <defs></defs>
    <g id="Page-1" stroke="none" stroke-width="1" fill="none" fill-rule="evenodd">
        <g id="16">
            <rect id="Rectangle-2" fill="#4A4A4A" x="0" y="0" width="600" height="278.913738"></rect>
            <path d="M180.191693,106.389776 L186.35655,106.389776 C187.460708,106.389776 188.472839,106.492012 189.392971,106.696486 C190.313104,106.900959 191.095204,107.233225 191.739297,107.693291 C192.38339,108.153357 192.884343,108.761658 193.242173,109.518211 C193.600002,110.274764 193.778914,111.205106 193.778914,112.309265 C193.778914,113.372529 193.600002,114.292648 193.242173,115.069649 C192.884343,115.846649 192.378278,116.490732 191.723962,117.001917 C191.069645,117.513102 190.287544,117.896484 189.377636,118.152077 C188.467727,118.407669 187.460708,118.535463 186.35655,118.535463 L182.73738,118.535463 L182.73738,126.509904 L180.191693,126.509904 L180.191693,106.389776 Z M186.04984,116.44984 C187.808316,116.44984 189.111817,116.117575 189.960383,115.453035 C190.80895,114.788495 191.233227,113.740582 191.233227,112.309265 C191.233227,110.857501 190.803838,109.850482 189.945048,109.288179 C189.086258,108.725876 187.787868,108.444728 186.04984,108.444728 L182.73738,108.444728 L182.73738,116.44984 L186.04984,116.44984 Z M206.415335,118.320767 L205.464537,115.253674 C205.096484,114.129068 204.748883,113.00959 204.421725,111.895208 C204.094567,110.780825 203.767414,109.6409 203.440256,108.475399 L203.317572,108.475399 C203.010861,109.6409 202.693931,110.780825 202.366773,111.895208 C202.039615,113.00959 201.692015,114.129068 201.323962,115.253674 L200.373163,118.320767 L206.415335,118.320767 Z M207.059425,120.375719 L199.729073,120.375719 L197.796805,126.509904 L195.189776,126.509904 L201.998722,106.389776 L204.881789,106.389776 L211.690735,126.509904 L208.961022,126.509904 L207.059425,120.375719 Z M217.088818,115.928435 L220.46262,115.928435 C222.037069,115.928435 223.243446,115.606393 224.081789,114.9623 C224.920132,114.318208 225.339297,113.34186 225.339297,112.033227 C225.339297,110.704147 224.920132,109.773805 224.081789,109.242173 C223.243446,108.71054 222.037069,108.444728 220.46262,108.444728 L217.088818,108.444728 L217.088818,115.928435 Z M225.584665,126.509904 L220.738658,118.014058 L217.088818,118.014058 L217.088818,126.509904 L214.543131,126.509904 L214.543131,106.389776 L220.830671,106.389776 C221.85304,106.389776 222.798718,106.4869 223.667732,106.68115 C224.536746,106.8754 225.283064,107.197442 225.906709,107.647284 C226.530355,108.097127 227.015973,108.679869 227.363578,109.395527 C227.711184,110.111186 227.884984,110.99041 227.884984,112.033227 C227.884984,113.607676 227.476042,114.865171 226.658147,115.805751 C225.840252,116.746331 224.746333,117.390414 223.376358,117.738019 L228.467732,126.509904 L225.584665,126.509904 Z M240.920128,118.320767 L239.969329,115.253674 C239.601276,114.129068 239.253676,113.00959 238.926518,111.895208 C238.599359,110.780825 238.272206,109.6409 237.945048,108.475399 L237.822364,108.475399 C237.515653,109.6409 237.198724,110.780825 236.871565,111.895208 C236.544407,113.00959 236.196807,114.129068 235.828754,115.253674 L234.877955,118.320767 L240.920128,118.320767 Z M241.564217,120.375719 L234.233866,120.375719 L232.301597,126.509904 L229.694569,126.509904 L236.503514,106.389776 L239.386581,106.389776 L246.195527,126.509904 L243.465815,126.509904 L241.564217,120.375719 Z M249.047923,106.389776 L251.59361,106.389776 L251.59361,124.332268 L260.396166,124.332268 L260.396166,126.509904 L249.047923,126.509904 L249.047923,106.389776 Z M263.953994,106.389776 L266.499681,106.389776 L266.499681,124.332268 L275.302236,124.332268 L275.302236,126.509904 L263.953994,126.509904 L263.953994,106.389776 Z M287.417252,118.320767 L286.466454,115.253674 C286.098401,114.129068 285.7508,113.00959 285.423642,111.895208 C285.096484,110.780825 284.769331,109.6409 284.442173,108.475399 L284.319489,108.475399 C284.012778,109.6409 283.695848,110.780825 283.36869,111.895208 C283.041532,113.00959 282.693932,114.129068 282.325879,115.253674 L281.37508,118.320767 L287.417252,118.320767 Z M288.061342,120.375719 L280.73099,120.375719 L278.798722,126.509904 L276.191693,126.509904 L283.000639,106.389776 L285.883706,106.389776 L292.692652,126.509904 L289.962939,126.509904 L288.061342,120.375719 Z M299.102875,116.11246 L293.64345,106.389776 L296.465176,106.389776 L299.194888,111.542492 C299.460704,112.012782 299.711181,112.467729 299.946326,112.907348 C300.181471,113.346967 300.452395,113.863256 300.759105,114.45623 L300.881789,114.45623 C301.168053,113.863256 301.418529,113.346967 301.633227,112.907348 C301.847924,112.467729 302.077954,112.012782 302.323323,111.542492 L304.991693,106.389776 L307.690735,106.389776 L302.200639,116.235144 L308.058786,126.509904 L305.237061,126.509904 L302.292652,121.08115 C302.026836,120.590413 301.755912,120.084348 301.479872,119.562939 C301.203832,119.041531 300.902238,118.474124 300.57508,117.860703 L300.452396,117.860703 C300.166133,118.474124 299.890097,119.041531 299.624281,119.562939 C299.358465,120.084348 299.102877,120.590413 298.857508,121.08115 L295.94377,126.509904 L293.244728,126.509904 L299.102875,116.11246 Z M317.47476,106.389776 L320.020447,106.389776 L320.020447,114.824281 L329.37508,114.824281 L329.37508,106.389776 L331.951438,106.389776 L331.951438,126.509904 L329.37508,126.509904 L329.37508,117.032588 L320.020447,117.032588 L320.020447,126.509904 L317.47476,126.509904 L317.47476,106.389776 Z M337.472204,106.389776 L349.065815,106.389776 L349.065815,108.536741 L340.017891,108.536741 L340.017891,114.854952 L347.654952,114.854952 L347.654952,117.032588 L340.017891,117.032588 L340.017891,124.332268 L349.372524,124.332268 L349.372524,126.509904 L337.472204,126.509904 L337.472204,106.389776 Z M362.192971,118.320767 L361.242173,115.253674 C360.87412,114.129068 360.526519,113.00959 360.199361,111.895208 C359.872203,110.780825 359.54505,109.6409 359.217891,108.475399 L359.095208,108.475399 C358.788497,109.6409 358.471567,110.780825 358.144409,111.895208 C357.817251,113.00959 357.46965,114.129068 357.101597,115.253674 L356.150799,118.320767 L362.192971,118.320767 Z M362.837061,120.375719 L355.506709,120.375719 L353.574441,126.509904 L350.967412,126.509904 L357.776358,106.389776 L360.659425,106.389776 L367.468371,126.509904 L364.738658,126.509904 L362.837061,120.375719 Z M370.320767,106.389776 L375.350799,106.389776 C378.458801,106.389776 380.820439,107.248554 382.435783,108.966134 C384.051126,110.683715 384.858786,113.147588 384.858786,116.357827 C384.858786,117.952724 384.654315,119.378907 384.245367,120.636422 C383.83642,121.893936 383.233231,122.957184 382.435783,123.826198 C381.638335,124.695212 380.656875,125.359742 379.491374,125.819808 C378.325873,126.279875 376.986589,126.509904 375.473482,126.509904 L370.320767,126.509904 L370.320767,106.389776 Z M375.166773,124.424281 C377.518223,124.424281 379.281783,123.718857 380.457508,122.307987 C381.633233,120.897118 382.221086,118.913751 382.221086,116.357827 C382.221086,113.801904 381.633233,111.849208 380.457508,110.499681 C379.281783,109.150153 377.518223,108.475399 375.166773,108.475399 L372.866454,108.475399 L372.866454,124.424281 L375.166773,124.424281 Z M389.183387,106.389776 L400.776997,106.389776 L400.776997,108.536741 L391.729073,108.536741 L391.729073,114.854952 L399.366134,114.854952 L399.366134,117.032588 L391.729073,117.032588 L391.729073,124.332268 L401.083706,124.332268 L401.083706,126.509904 L389.183387,126.509904 L389.183387,106.389776 Z M407.892652,115.928435 L411.266454,115.928435 C412.840902,115.928435 414.04728,115.606393 414.885623,114.9623 C415.723966,114.318208 416.143131,113.34186 416.143131,112.033227 C416.143131,110.704147 415.723966,109.773805 414.885623,109.242173 C414.04728,108.71054 412.840902,108.444728 411.266454,108.444728 L407.892652,108.444728 L407.892652,115.928435 Z M416.388498,126.509904 L411.542492,118.014058 L407.892652,118.014058 L407.892652,126.509904 L405.346965,126.509904 L405.346965,106.389776 L411.634505,106.389776 C412.656874,106.389776 413.602552,106.4869 414.471565,106.68115 C415.340579,106.8754 416.086898,107.197442 416.710543,107.647284 C417.334188,108.097127 417.819807,108.679869 418.167412,109.395527 C418.515018,110.111186 418.688818,110.99041 418.688818,112.033227 C418.688818,113.607676 418.279876,114.865171 417.461981,115.805751 C416.644085,116.746331 415.550167,117.390414 414.180192,117.738019 L419.271565,126.509904 L416.388498,126.509904 Z" id="PARALLAX-HEADER" fill="#FFFFFF"></path>
            <path d="M280.351438,148.083067 L319.648562,148.083067" id="Line" stroke="#FFFFFF" stroke-linecap="square"></path>
            <path d="M164.376997,173.482428 L435.629777,173.482428" id="Line" stroke="#FFFFFF" stroke-width="6" stroke-linecap="square"></path>
        </g>
    </g>
</svg>