<?xml version="1.0" encoding="UTF-8"?>
<svg width="600px" height="455px" viewBox="0 0 600 455" version="1.1" xmlns="http://www.w3.org/2000/svg" xmlns:xlink="http://www.w3.org/1999/xlink">
    <!-- Generator: Sketch 44.1 (41455) - http://www.bohemiancoding.com/sketch -->
    <title>image_text24</title>
    <desc>Created with Sketch.</desc>
    <defs>
        <rect id="path-1" x="0" y="0" width="161.635714" height="108.585075"></rect>
        <mask id="mask-2" maskContentUnits="userSpaceOnUse" maskUnits="objectBoundingBox" x="0" y="0" width="161.635714" height="108.585075" fill="white">
            <use xlink:href="#path-1"></use>
        </mask>
        <rect id="path-3" x="0" y="0" width="161.635714" height="108.585075"></rect>
        <mask id="mask-4" maskContentUnits="userSpaceOnUse" maskUnits="objectBoundingBox" x="0" y="0" width="161.635714" height="108.585075" fill="white">
            <use xlink:href="#path-3"></use>
        </mask>
    </defs>
    <g id="Image/Text-Blocks" stroke="none" stroke-width="1" fill="none" fill-rule="evenodd">
        <g id="24">
            <rect id="Rectangle-19" fill="#F8F8F8" x="0" y="0" width="600" height="455"></rect>
            <path d="M248.527634,43 L575.058724,43" id="Line" stroke="#979797" stroke-width="6" stroke-linecap="square"></path>
            <path d="M248.5,121 L378,121" id="Line" stroke="#4990E2" stroke-width="6" stroke-linecap="square"></path>
            <g id="Group-15" transform="translate(247.000000, 146.000000)" stroke-width="4" stroke-linecap="square">
                <path d="M0.509211245,2 L133.938105,2" id="Line" stroke="#979797"></path>
                <path d="M145.125205,2 L326.913619,2" id="Line" stroke="#D7D9D9"></path>
                <path d="M1.01400228,15.3333333 L326.913619,15.3333333" id="Line" stroke="#D7D9D9"></path>
                <path d="M1.01400228,28.6666667 L145.659914,28.6666667" id="Line" stroke="#D7D9D9"></path>
            </g>
            <g id="Group-15" transform="translate(247.000000, 195.500000)" stroke-width="4" stroke-linecap="square">
                <path d="M0.509211245,2 L133.938105,2" id="Line" stroke="#979797"></path>
                <path d="M145.125205,2 L326.913619,2" id="Line" stroke="#D7D9D9"></path>
                <path d="M1.01400228,15.3333333 L326.913619,15.3333333" id="Line" stroke="#D7D9D9"></path>
                <path d="M1.01400228,28.6666667 L145.659914,28.6666667" id="Line" stroke="#D7D9D9"></path>
            </g>
            <path d="M247.5,247 L378.515266,247" id="Line" stroke="#979797" stroke-width="4" stroke-linecap="square"></path>
            <path d="M393.143627,248 L574.932042,248" id="Line" stroke="#D7D9D9" stroke-width="4" stroke-linecap="square"></path>
            <path d="M247.99566,260.333333 L390.025036,260.333333" id="Line" stroke="#D7D9D9" stroke-width="4" stroke-linecap="square"></path>
            <path d="M248.527634,59 L575.058724,59" id="Line" stroke="#979797" stroke-width="6" stroke-linecap="square"></path>
            <path d="M248.527634,75 L575.058724,75" id="Line" stroke="#979797" stroke-width="6" stroke-linecap="square"></path>
            <g id="Group-16" transform="translate(247.000000, 292.000000)" stroke="#979797">
                <use id="Rectangle-9" mask="url(#mask-2)" stroke-width="2" fill="#F2F2F2" stroke-dasharray="4" xlink:href="#path-1"></use>
                <g id="icon-picture" opacity="0.699999988" transform="translate(63.000000, 42.000000)">
                    <polyline id="Path-15" stroke-width="2" points="0.720763183 21.0642217 12.2515442 8.95935644 20.3562067 17.5393282 25.1032815 12.5138546 34.0893225 22.0268944"></polyline>
                    <ellipse id="Oval-6" fill="#D8D8D8" cx="28.3571429" cy="6.28650435" rx="1.70142857" ry="1.71450119"></ellipse>
                    <rect id="Rectangle-10" stroke-width="2" x="1" y="1" width="32.5957143" height="22.574517" rx="3"></rect>
                </g>
            </g>
            <g id="Group-16" transform="translate(416.000000, 292.000000)" stroke="#979797">
                <use id="Rectangle-9" mask="url(#mask-4)" stroke-width="2" fill="#F2F2F2" stroke-dasharray="4" xlink:href="#path-3"></use>
                <g id="icon-picture" opacity="0.699999988" transform="translate(63.000000, 42.000000)">
                    <polyline id="Path-15" stroke-width="2" points="0.720763183 21.0642217 12.2515442 8.95935644 20.3562067 17.5393282 25.1032815 12.5138546 34.0893225 22.0268944"></polyline>
                    <ellipse id="Oval-6" fill="#D8D8D8" cx="28.3571429" cy="6.28650435" rx="1.70142857" ry="1.71450119"></ellipse>
                    <rect id="Rectangle-10" stroke-width="2" x="1" y="1" width="32.5957143" height="22.574517" rx="3"></rect>
                </g>
            </g>
            <path d="M248.5,91 L311.644675,91" id="Line" stroke="#979797" stroke-width="6" stroke-linecap="square"></path>
            <path d="M23.117,43.852 L19,43.852 L19,41 L30.638,41 L30.638,43.852 L26.521,43.852 L26.521,55.996 L23.117,55.996 L23.117,43.852 Z M32.984,41 L42.368,41 L42.368,43.852 L36.365,43.852 L36.365,46.865 L41.471,46.865 L41.471,49.694 L36.365,49.694 L36.365,53.144 L42.598,53.144 L42.598,55.996 L32.984,55.996 L32.984,41 Z M48.233,48.291 L44.323,41 L48.095,41 L49.406,43.829 C49.5746675,44.1816684 49.7433325,44.553498 49.912,44.9445 C50.0806675,45.335502 50.2723323,45.7686643 50.487,46.244 L50.579,46.244 C50.7476675,45.7686643 50.9124992,45.335502 51.0735,44.9445 C51.2345008,44.553498 51.3916659,44.1816684 51.545,43.829 L52.741,41 L56.352,41 L52.465,48.452 L56.605,55.996 L52.833,55.996 L51.338,52.937 C51.1539991,52.5383313 50.9738342,52.143502 50.7975,51.7525 C50.6211658,51.361498 50.4256677,50.9360023 50.211,50.476 L50.119,50.476 C49.9503325,50.9360023 49.7816675,51.361498 49.613,51.7525 C49.4443325,52.143502 49.2756675,52.5383313 49.107,52.937 L47.704,55.996 L44.07,55.996 L48.233,48.291 Z M61.09,43.852 L56.973,43.852 L56.973,41 L68.611,41 L68.611,43.852 L64.494,43.852 L64.494,55.996 L61.09,55.996 L61.09,43.852 Z M74.292,41 L77.765,41 L78.8,48.015 C78.8920005,48.7970039 78.9916661,49.5828294 79.099,50.3725 C79.2063339,51.1621706 79.3059995,51.9556627 79.398,52.753 L79.49,52.753 C79.6433341,51.9556627 79.7928326,51.1621706 79.9385,50.3725 C80.0841674,49.5828294 80.2336659,48.7970039 80.387,48.015 L81.997,41 L84.872,41 L86.482,48.015 C86.6353341,48.7816705 86.7848326,49.5598294 86.9305,50.3495 C87.0761674,51.1391706 87.2256659,51.9403293 87.379,52.753 L87.471,52.753 C87.5783339,51.9403293 87.6818328,51.1430039 87.7815,50.361 C87.8811672,49.5789961 87.9846661,48.7970039 88.092,48.015 L89.127,41 L92.37,41 L89.702,55.996 L85.447,55.996 L83.975,49.188 C83.8523327,48.6053304 83.7411672,48.0188363 83.6415,47.4285 C83.5418328,46.8381637 83.453667,46.2670028 83.377,45.715 L83.285,45.715 C83.1929995,46.2670028 83.0971672,46.8381637 82.9975,47.4285 C82.8978328,48.0188363 82.7866673,48.6053304 82.664,49.188 L81.261,55.996 L77.075,55.996 L74.292,41 Z M94.44,41 L97.821,41 L97.821,55.996 L94.44,55.996 L94.44,41 Z M104.284,43.852 L100.167,43.852 L100.167,41 L111.805,41 L111.805,43.852 L107.688,43.852 L107.688,55.996 L104.284,55.996 L104.284,43.852 Z M114.151,41 L117.532,41 L117.532,46.773 L122.707,46.773 L122.707,41 L126.111,41 L126.111,55.996 L122.707,55.996 L122.707,49.74 L117.532,49.74 L117.532,55.996 L114.151,55.996 L114.151,41 Z M20.196,70 L23.577,70 L23.577,84.996 L20.196,84.996 L20.196,70 Z M27.119,70 L30.707,70 L33.214,76.739 L34.111,79.361 L34.203,79.361 L35.1,76.739 L37.538,70 L41.103,70 L41.103,84.996 L37.952,84.996 L37.952,79.499 C37.952,79.1309982 37.9673332,78.7246689 37.998,78.28 C38.0286668,77.8353311 38.0669998,77.3868356 38.113,76.9345 C38.1590002,76.4821644 38.2049998,76.0375022 38.251,75.6005 C38.2970002,75.1634978 38.3429998,74.7610018 38.389,74.393 L38.297,74.393 L37.055,77.866 L34.755,83.685 L33.398,83.685 L31.098,77.866 L29.902,74.393 L29.81,74.393 C29.8560002,74.7610018 29.9019998,75.1634978 29.948,75.6005 C29.9940002,76.0375022 30.0361665,76.4821644 30.0745,76.9345 C30.1128335,77.3868356 30.1473332,77.8353311 30.178,78.28 C30.2086668,78.7246689 30.224,79.1309982 30.224,79.499 L30.224,84.996 L27.119,84.996 L27.119,70 Z M50.993,78.786 L50.648,77.406 C50.4333323,76.6546629 50.2263343,75.8573376 50.027,75.014 C49.8276657,74.1706624 49.6283343,73.3580039 49.429,72.576 L49.337,72.576 C49.1529991,73.3733373 48.9651676,74.1898292 48.7735,75.0255 C48.5818324,75.8611708 48.3786677,76.6546629 48.164,77.406 L47.796,78.786 L50.993,78.786 Z M51.683,81.431 L47.106,81.431 L46.186,84.996 L42.736,84.996 L47.428,70 L51.499,70 L56.191,84.996 L52.603,84.996 L51.683,81.431 Z M56.881,77.59 C56.881,76.3479938 57.076498,75.2401715 57.4675,74.2665 C57.858502,73.2928285 58.3874967,72.46867 59.0545,71.794 C59.7215033,71.11933 60.5034955,70.6056684 61.4005,70.253 C62.2975045,69.9003316 63.2519949,69.724 64.264,69.724 C65.3220053,69.724 66.2381628,69.9233313 67.0125,70.322 C67.7868372,70.7206687 68.4193309,71.1729975 68.91,71.679 L67.047,73.772 C66.6789982,73.4193316 66.2918354,73.1433343 65.8855,72.944 C65.4791646,72.7446657 64.9540032,72.645 64.31,72.645 C63.7273304,72.645 63.1945024,72.7561656 62.7115,72.9785 C62.2284976,73.2008344 61.8106684,73.5189979 61.458,73.933 C61.1053316,74.3470021 60.8331676,74.852997 60.6415,75.451 C60.4498324,76.049003 60.354,76.7236629 60.354,77.475 C60.354,79.0236744 60.7028298,80.2234957 61.4005,81.0745 C62.0981702,81.9255043 63.1523263,82.351 64.563,82.351 C64.8696682,82.351 65.1686652,82.312667 65.46,82.236 C65.7513348,82.1593329 65.9889991,82.0443341 66.173,81.891 L66.173,79.315 L63.689,79.315 L63.689,76.555 L69.163,76.555 L69.163,83.455 C68.6263306,83.9610025 67.9210044,84.3903316 67.047,84.743 C66.1729956,85.0956684 65.2070053,85.272 64.149,85.272 C63.1369949,85.272 62.1901711,85.1071683 61.3085,84.7775 C60.4268289,84.4478317 59.6563366,83.9610032 58.997,83.317 C58.3376634,82.6729968 57.8201685,81.8718381 57.4445,80.9135 C57.0688315,79.9551619 56.881,78.8473396 56.881,77.59 Z M72.268,70 L81.652,70 L81.652,72.852 L75.649,72.852 L75.649,75.865 L80.755,75.865 L80.755,78.694 L75.649,78.694 L75.649,82.144 L81.882,82.144 L81.882,84.996 L72.268,84.996 L72.268,70 Z M85.838,80.787 C86.3746693,81.2470023 86.9688301,81.6226652 87.6205,81.914 C88.2721699,82.2053348 88.9123302,82.351 89.541,82.351 C90.2463369,82.351 90.7714983,82.220668 91.1165,81.96 C91.4615017,81.699332 91.634,81.3466689 91.634,80.902 C91.634,80.6719988 91.5841672,80.4726675 91.4845,80.304 C91.3848328,80.1353325 91.2391676,79.985834 91.0475,79.8555 C90.8558324,79.725166 90.6258347,79.6025006 90.3575,79.4875 L89.472,79.108 L87.517,78.28 C87.1336647,78.1266659 86.7618351,77.9273346 86.4015,77.682 C86.0411649,77.4366654 85.7191681,77.1491683 85.4355,76.8195 C85.1518319,76.4898317 84.9256675,76.1065022 84.757,75.6695 C84.5883325,75.2324978 84.504,74.7380028 84.504,74.186 C84.504,73.5726636 84.634332,72.9938361 84.895,72.4495 C85.155668,71.9051639 85.5236643,71.4298354 85.999,71.0235 C86.4743357,70.6171646 87.0378301,70.2990011 87.6895,70.069 C88.3411699,69.8389988 89.0579961,69.724 89.84,69.724 C90.7140044,69.724 91.5764957,69.892665 92.4275,70.23 C93.2785043,70.567335 94.0259968,71.0579968 94.67,71.702 L92.945,73.841 C92.4543309,73.4576647 91.9636691,73.162501 91.473,72.9555 C90.9823309,72.748499 90.438003,72.645 89.84,72.645 C89.2573304,72.645 88.7935017,72.7638321 88.4485,73.0015 C88.1034983,73.2391679 87.931,73.5726645 87.931,74.002 C87.931,74.2320011 87.9884994,74.4274992 88.1035,74.5885 C88.2185006,74.7495008 88.379499,74.895166 88.5865,75.0255 C88.793501,75.155834 89.0349986,75.2784994 89.311,75.3935 C89.5870014,75.5085006 89.8859984,75.6349993 90.208,75.773 L92.14,76.555 C93.0600046,76.9230018 93.7844974,77.4289968 94.3135,78.073 C94.8425026,78.7170032 95.107,79.5679947 95.107,80.626 C95.107,81.2546698 94.9805013,81.8488305 94.7275,82.4085 C94.4744987,82.9681695 94.1065024,83.4588312 93.6235,83.8805 C93.1404976,84.3021688 92.5463369,84.6394987 91.841,84.8925 C91.1356631,85.1455013 90.3383378,85.272 89.449,85.272 C88.4676618,85.272 87.4901715,85.0918351 86.5165,84.7315 C85.5428285,84.3711649 84.6726705,83.8306703 83.906,83.11 L85.838,80.787 Z" id="TEXT-WITH-IMAGES" fill="#79797B"></path>
            <path d="M21.5,102.5 L62.5121933,102.5" id="Line" stroke="#D7D9D9" stroke-width="3" stroke-linecap="square"></path>
        </g>
    </g>
</svg>