<?xml version="1.0" encoding="UTF-8"?>
<svg width="600px" height="297px" viewBox="0 0 600 297" version="1.1" xmlns="http://www.w3.org/2000/svg" xmlns:xlink="http://www.w3.org/1999/xlink">
    <!-- Generator: Sketch 44.1 (41455) - http://www.bohemiancoding.com/sketch -->
    <title>image_text13</title>
    <desc>Created with Sketch.</desc>
    <defs>
        <rect id="path-1" x="294.054054" y="0" width="305.945946" height="297"></rect>
        <mask id="mask-2" maskContentUnits="userSpaceOnUse" maskUnits="objectBoundingBox" x="0" y="0" width="305.945946" height="297" fill="white">
            <use xlink:href="#path-1"></use>
        </mask>
    </defs>
    <g id="Image/Text-Blocks" stroke="none" stroke-width="1" fill="none" fill-rule="evenodd">
        <g id="13">
            <rect id="Rectangle-17" fill="#F8F8F8" x="0" y="0" width="294.054054" height="297"></rect>
            <use id="Rectangle-9" stroke="#979797" mask="url(#mask-2)" stroke-width="2" fill="#F2F2F2" stroke-dasharray="4" xlink:href="#path-1"></use>
            <g id="icon-picture" opacity="0.699999988" transform="translate(411.891892, 115.560000)" stroke="#979797">
                <polyline id="Path-15" stroke-width="2" points="1.31431105 37.2943299 22.3406804 15.8625939 37.1195258 31.053485 45.7758127 22.1558541 62.1618507 38.9987477"></polyline>
                <ellipse id="Oval-6" fill="#D8D8D8" cx="51.709226" cy="11.1302934" rx="3.10255356" ry="3.03553456"></ellipse>
                <rect id="Rectangle-10" stroke-width="2" x="1" y="1" width="61.0852558" height="41.5093287" rx="3"></rect>
            </g>
            <path d="M124.574154,44.4447458 L168.898478,44.4447458" id="Line" stroke="#979797" stroke-width="4" stroke-linecap="square"></path>
            <path d="M82.9278655,60.9374545 L80.0638655,60.9374545 L80.0638655,58.9534545 L88.1598655,58.9534545 L88.1598655,60.9374545 L85.2958655,60.9374545 L85.2958655,69.3854545 L82.9278655,69.3854545 L82.9278655,60.9374545 Z M89.7918655,58.9534545 L96.3198655,58.9534545 L96.3198655,60.9374545 L92.1438655,60.9374545 L92.1438655,63.0334545 L95.6958655,63.0334545 L95.6958655,65.0014545 L92.1438655,65.0014545 L92.1438655,67.4014545 L96.4798655,67.4014545 L96.4798655,69.3854545 L89.7918655,69.3854545 L89.7918655,58.9534545 Z M100.399866,64.0254545 L97.6798655,58.9534545 L100.303866,58.9534545 L101.215866,60.9214545 C101.333199,61.1667891 101.450532,61.4254532 101.567866,61.6974545 C101.685199,61.9694559 101.818531,62.2707862 101.967866,62.6014545 L102.031866,62.6014545 C102.149199,62.2707862 102.263865,61.9694559 102.375866,61.6974545 C102.487866,61.4254532 102.597198,61.1667891 102.703866,60.9214545 L103.535866,58.9534545 L106.047866,58.9534545 L103.343866,64.1374545 L106.223866,69.3854545 L103.599866,69.3854545 L102.559866,67.2574545 C102.431865,66.9801198 102.306533,66.7054559 102.183866,66.4334545 C102.061198,66.1614532 101.9252,65.8654561 101.775866,65.5454545 L101.711866,65.5454545 C101.594532,65.8654561 101.477199,66.1614532 101.359866,66.4334545 C101.242532,66.7054559 101.125199,66.9801198 101.007866,67.2574545 L100.031866,69.3854545 L97.5038655,69.3854545 L100.399866,64.0254545 Z M109.663866,60.9374545 L106.799866,60.9374545 L106.799866,58.9534545 L114.895866,58.9534545 L114.895866,60.9374545 L112.031866,60.9374545 L112.031866,69.3854545 L109.663866,69.3854545 L109.663866,60.9374545 Z M118.847866,58.9534545 L121.263866,58.9534545 L121.983866,63.8334545 C122.047866,64.3774573 122.117199,64.9241185 122.191866,65.4734545 C122.266533,66.0227906 122.335865,66.5747851 122.399866,67.1294545 L122.463866,67.1294545 C122.570533,66.5747851 122.674532,66.0227906 122.775866,65.4734545 C122.877199,64.9241185 122.981198,64.3774573 123.087866,63.8334545 L124.207866,58.9534545 L126.207866,58.9534545 L127.327866,63.8334545 C127.434533,64.3667905 127.538532,64.9081185 127.639866,65.4574545 C127.741199,66.0067906 127.845198,66.5641184 127.951866,67.1294545 L128.015866,67.1294545 C128.090533,66.5641184 128.162532,66.0094573 128.231866,65.4654545 C128.301199,64.9214518 128.373199,64.3774573 128.447866,63.8334545 L129.167866,58.9534545 L131.423866,58.9534545 L129.567866,69.3854545 L126.607866,69.3854545 L125.583866,64.6494545 C125.498532,64.2441192 125.421199,63.8361233 125.351866,63.4254545 C125.282532,63.0147858 125.221199,62.6174565 125.167866,62.2334545 L125.103866,62.2334545 C125.039865,62.6174565 124.973199,63.0147858 124.903866,63.4254545 C124.834532,63.8361233 124.757199,64.2441192 124.671866,64.6494545 L123.695866,69.3854545 L120.783866,69.3854545 L118.847866,58.9534545 Z M132.863866,58.9534545 L135.215866,58.9534545 L135.215866,69.3854545 L132.863866,69.3854545 L132.863866,58.9534545 Z M139.711866,60.9374545 L136.847866,60.9374545 L136.847866,58.9534545 L144.943866,58.9534545 L144.943866,60.9374545 L142.079866,60.9374545 L142.079866,69.3854545 L139.711866,69.3854545 L139.711866,60.9374545 Z M146.575866,58.9534545 L148.927866,58.9534545 L148.927866,62.9694545 L152.527866,62.9694545 L152.527866,58.9534545 L154.895866,58.9534545 L154.895866,69.3854545 L152.527866,69.3854545 L152.527866,65.0334545 L148.927866,65.0334545 L148.927866,69.3854545 L146.575866,69.3854545 L146.575866,58.9534545 Z M160.687866,58.9534545 L163.039866,58.9534545 L163.039866,69.3854545 L160.687866,69.3854545 L160.687866,58.9534545 Z M165.503866,58.9534545 L167.999866,58.9534545 L169.743866,63.6414545 L170.367866,65.4654545 L170.431866,65.4654545 L171.055866,63.6414545 L172.751866,58.9534545 L175.231866,58.9534545 L175.231866,69.3854545 L173.039866,69.3854545 L173.039866,65.5614545 C173.039866,65.3054533 173.050532,65.0227894 173.071866,64.7134545 C173.093199,64.4041197 173.119865,64.0921228 173.151866,63.7774545 C173.183866,63.4627863 173.215865,63.1534561 173.247866,62.8494545 C173.279866,62.545453 173.311865,62.2654558 173.343866,62.0094545 L173.279866,62.0094545 L172.415866,64.4254545 L170.815866,68.4734545 L169.871866,68.4734545 L168.271866,64.4254545 L167.439866,62.0094545 L167.375866,62.0094545 C167.407866,62.2654558 167.439865,62.545453 167.471866,62.8494545 C167.503866,63.1534561 167.533199,63.4627863 167.559866,63.7774545 C167.586532,64.0921228 167.610532,64.4041197 167.631866,64.7134545 C167.653199,65.0227894 167.663866,65.3054533 167.663866,65.5614545 L167.663866,69.3854545 L165.503866,69.3854545 L165.503866,58.9534545 Z M182.111866,65.0654545 L181.871866,64.1054545 C181.722531,63.5827853 181.578533,63.0281241 181.439866,62.4414545 C181.301198,61.8547849 181.162533,61.2894573 181.023866,60.7454545 L180.959866,60.7454545 C180.831865,61.300124 180.7012,61.8681183 180.567866,62.4494545 C180.434532,63.0307908 180.2932,63.5827853 180.143866,64.1054545 L179.887866,65.0654545 L182.111866,65.0654545 Z M182.591866,66.9054545 L179.407866,66.9054545 L178.767866,69.3854545 L176.367866,69.3854545 L179.631866,58.9534545 L182.463866,58.9534545 L185.727866,69.3854545 L183.231866,69.3854545 L182.591866,66.9054545 Z M186.367866,64.2334545 C186.367866,63.3694502 186.503864,62.5987913 186.775866,61.9214545 C187.047867,61.2441178 187.415863,60.6707902 187.879866,60.2014545 C188.343868,59.7321189 188.887862,59.3747891 189.511866,59.1294545 C190.135869,58.88412 190.799862,58.7614545 191.503866,58.7614545 C192.239869,58.7614545 192.877196,58.9001198 193.415866,59.1774545 C193.954535,59.4547893 194.394531,59.7694528 194.735866,60.1214545 L193.439866,61.5774545 C193.183864,61.33212 192.914534,61.1401219 192.631866,61.0014545 C192.349197,60.8627872 191.983868,60.7934545 191.535866,60.7934545 C191.13053,60.7934545 190.759867,60.8707871 190.423866,61.0254545 C190.087864,61.180122 189.7972,61.4014531 189.551866,61.6894545 C189.306531,61.977456 189.1172,62.3294525 188.983866,62.7454545 C188.850532,63.1614566 188.783866,63.6307853 188.783866,64.1534545 C188.783866,65.2307933 189.02653,66.0654516 189.511866,66.6574545 C189.997201,67.2494575 190.730527,67.5454545 191.711866,67.5454545 C191.9252,67.5454545 192.133198,67.5187881 192.335866,67.4654545 C192.538533,67.4121209 192.703865,67.3321217 192.831866,67.2254545 L192.831866,65.4334545 L191.103866,65.4334545 L191.103866,63.5134545 L194.911866,63.5134545 L194.911866,68.3134545 C194.53853,68.6654563 194.047869,68.96412 193.439866,69.2094545 C192.831863,69.4547891 192.159869,69.5774545 191.423866,69.5774545 C190.719862,69.5774545 190.061202,69.462789 189.447866,69.2334545 C188.834529,69.0041201 188.298535,68.6654568 187.839866,68.2174545 C187.381197,67.7694523 187.0212,67.2121245 186.759866,66.5454545 C186.498531,65.8787845 186.367866,65.1081256 186.367866,64.2334545 Z M197.071866,58.9534545 L203.599866,58.9534545 L203.599866,60.9374545 L199.423866,60.9374545 L199.423866,63.0334545 L202.975866,63.0334545 L202.975866,65.0014545 L199.423866,65.0014545 L199.423866,67.4014545 L203.759866,67.4014545 L203.759866,69.3854545 L197.071866,69.3854545 L197.071866,58.9534545 Z" id="TEXT-WITH-IMAGE" fill="#79797B"></path>
            <g id="Group-7" transform="translate(47.394958, 104.705085)" stroke="#D7D9D9" stroke-width="4" stroke-linecap="square">
                <path d="M0.540540541,2.16 L197.442774,2.16" id="Line"></path>
                <path d="M8.60776743,15.2481356 L190.13437,15.2481356" id="Line"></path>
                <path d="M11.6329775,29.3430508 L188.134039,29.3430508" id="Line"></path>
                <path d="M6.59096071,43.4379661 L193.159967,43.4379661" id="Line"></path>
                <path d="M6.59096071,57.5328814 L192.157197,57.5328814" id="Line"></path>
                <path d="M26.7590279,71.6277966 L172.992319,71.6277966" id="Line"></path>
            </g>
            <path d="M128.571429,86.079661 L165.895978,86.079661" id="Line" stroke="#4990E2" stroke-linecap="square"></path>
            <rect id="Rectangle-13" fill="#4990E2" x="104.87395" y="212.430508" width="89.7478992" height="32.2169492" rx="5"></rect>
            <path d="M129.793468,228.309364 L130.744819,228.309364 C131.188786,228.309364 131.528962,228.218645 131.76536,228.037204 C132.001758,227.855763 132.119955,227.580726 132.119955,227.212084 C132.119955,226.837682 132.001758,226.575605 131.76536,226.425844 C131.528962,226.276083 131.188786,226.201204 130.744819,226.201204 L129.793468,226.201204 L129.793468,228.309364 Z M132.189144,231.290164 L130.822657,228.896884 L129.793468,228.896884 L129.793468,231.290164 L129.07563,231.290164 L129.07563,225.622324 L130.848603,225.622324 C131.136893,225.622324 131.403557,225.649684 131.648603,225.704404 C131.893649,225.759124 132.104098,225.849843 132.279955,225.976564 C132.455811,226.103285 132.592747,226.267443 132.690765,226.469044 C132.788784,226.670645 132.837792,226.918323 132.837792,227.212084 C132.837792,227.655606 132.722478,228.009843 132.491846,228.274804 C132.261215,228.539765 131.952749,228.721204 131.566441,228.819124 L133.002117,231.290164 L132.189144,231.290164 Z M134.100495,225.622324 L137.369684,225.622324 L137.369684,226.227124 L134.818333,226.227124 L134.818333,228.006964 L136.971846,228.006964 L136.971846,228.620404 L134.818333,228.620404 L134.818333,230.676724 L137.456171,230.676724 L137.456171,231.290164 L134.100495,231.290164 L134.100495,225.622324 Z M141.071306,228.983284 L140.803198,228.119284 C140.699414,227.802482 140.601396,227.487126 140.509144,227.173204 C140.416891,226.859282 140.32464,226.538166 140.232387,226.209844 L140.197792,226.209844 C140.111305,226.538166 140.021937,226.859282 139.929684,227.173204 C139.837432,227.487126 139.739415,227.802482 139.63563,228.119284 L139.367522,228.983284 L141.071306,228.983284 Z M141.252928,229.562164 L139.185901,229.562164 L138.641036,231.290164 L137.905901,231.290164 L139.825901,225.622324 L140.638873,225.622324 L142.558873,231.290164 L141.789144,231.290164 L141.252928,229.562164 Z M143.363198,225.622324 L144.781576,225.622324 C145.657977,225.622324 146.323916,225.864242 146.779414,226.348084 C147.234912,226.831926 147.462657,227.526 147.462657,228.430324 C147.462657,228.879606 147.405,229.281362 147.289684,229.635604 C147.174368,229.989846 147.00428,230.289363 146.779414,230.534164 C146.554548,230.778965 146.277794,230.966163 145.949144,231.095764 C145.620493,231.225365 145.24284,231.290164 144.816171,231.290164 L143.363198,231.290164 L143.363198,225.622324 Z M144.729684,230.702644 C145.392751,230.702644 145.890043,230.503926 146.221576,230.106484 C146.553109,229.709042 146.718873,229.150328 146.718873,228.430324 C146.718873,227.71032 146.553109,227.160246 146.221576,226.780084 C145.890043,226.399922 145.392751,226.209844 144.729684,226.209844 L144.081036,226.209844 L144.081036,230.702644 L144.729684,230.702644 Z M150.429144,225.622324 L151.276711,225.622324 L152.37509,228.663604 L152.790225,229.821364 L152.824819,229.821364 L153.222657,228.663604 L154.312387,225.622324 L155.159955,225.622324 L155.159955,231.290164 L154.476711,231.290164 L154.476711,228.171124 C154.476711,227.917683 154.486801,227.638326 154.506982,227.333044 C154.527162,227.027763 154.548783,226.748405 154.571846,226.494964 L154.537252,226.494964 L154.078873,227.756404 L152.989144,230.719924 L152.582657,230.719924 L151.484279,227.756404 L151.034549,226.494964 L150.999955,226.494964 C151.017252,226.748405 151.037432,227.027763 151.060495,227.333044 C151.083558,227.638326 151.09509,227.917683 151.09509,228.171124 L151.09509,231.290164 L150.429144,231.290164 L150.429144,225.622324 Z M158.809684,231.393844 C158.452205,231.393844 158.125001,231.324725 157.828063,231.186484 C157.531124,231.048243 157.275992,230.850965 157.062657,230.594644 C156.849323,230.338323 156.683559,230.027286 156.56536,229.661524 C156.447161,229.295762 156.388063,228.885366 156.388063,228.430324 C156.388063,227.975282 156.447161,227.567766 156.56536,227.207764 C156.683559,226.847762 156.849323,226.542485 157.062657,226.291924 C157.275992,226.041363 157.531124,225.849845 157.828063,225.717364 C158.125001,225.584883 158.452205,225.518644 158.809684,225.518644 C159.167164,225.518644 159.494368,225.586323 159.791306,225.721684 C160.088244,225.857045 160.344818,226.050003 160.561036,226.300564 C160.777253,226.551125 160.944458,226.856402 161.062657,227.216404 C161.180856,227.576406 161.239955,227.981042 161.239955,228.430324 C161.239955,228.885366 161.180856,229.295762 161.062657,229.661524 C160.944458,230.027286 160.777253,230.338323 160.561036,230.594644 C160.344818,230.850965 160.088244,231.048243 159.791306,231.186484 C159.494368,231.324725 159.167164,231.393844 158.809684,231.393844 Z M158.809684,230.763124 C159.063379,230.763124 159.292566,230.708405 159.497252,230.598964 C159.701938,230.489524 159.877792,230.332565 160.024819,230.128084 C160.171847,229.923603 160.28572,229.678805 160.366441,229.393684 C160.447162,229.108563 160.487522,228.787446 160.487522,228.430324 C160.487522,228.078962 160.447162,227.762165 160.366441,227.479924 C160.28572,227.197683 160.171847,226.958645 160.024819,226.762804 C159.877792,226.566963 159.701938,226.415765 159.497252,226.309204 C159.292566,226.202644 159.063379,226.149364 158.809684,226.149364 C158.555989,226.149364 158.326802,226.202644 158.122117,226.309204 C157.917431,226.415765 157.741577,226.566963 157.594549,226.762804 C157.447521,226.958645 157.333649,227.197683 157.252928,227.479924 C157.172206,227.762165 157.131846,228.078962 157.131846,228.430324 C157.131846,228.787446 157.172206,229.108563 157.252928,229.393684 C157.333649,229.678805 157.447521,229.923603 157.594549,230.128084 C157.741577,230.332565 157.917431,230.489524 158.122117,230.598964 C158.326802,230.708405 158.555989,230.763124 158.809684,230.763124 Z M163.177252,228.309364 L164.128603,228.309364 C164.572569,228.309364 164.912746,228.218645 165.149144,228.037204 C165.385541,227.855763 165.503738,227.580726 165.503738,227.212084 C165.503738,226.837682 165.385541,226.575605 165.149144,226.425844 C164.912746,226.276083 164.572569,226.201204 164.128603,226.201204 L163.177252,226.201204 L163.177252,228.309364 Z M165.572928,231.290164 L164.206441,228.896884 L163.177252,228.896884 L163.177252,231.290164 L162.459414,231.290164 L162.459414,225.622324 L164.232387,225.622324 C164.520677,225.622324 164.787341,225.649684 165.032387,225.704404 C165.277433,225.759124 165.487882,225.849843 165.663738,225.976564 C165.839595,226.103285 165.976531,226.267443 166.074549,226.469044 C166.172568,226.670645 166.221576,226.918323 166.221576,227.212084 C166.221576,227.655606 166.106262,228.009843 165.87563,228.274804 C165.644998,228.539765 165.336533,228.721204 164.950225,228.819124 L166.385901,231.290164 L165.572928,231.290164 Z M167.484279,225.622324 L170.753468,225.622324 L170.753468,226.227124 L168.202117,226.227124 L168.202117,228.006964 L170.35563,228.006964 L170.35563,228.620404 L168.202117,228.620404 L168.202117,230.676724 L170.839955,230.676724 L170.839955,231.290164 L167.484279,231.290164 L167.484279,225.622324 Z" id="READ-MORE" fill="#FFFFFF"></path>
        </g>
    </g>
</svg>