<?xml version="1.0" encoding="UTF-8"?>
<svg width="600px" height="218px" viewBox="0 0 600 218" version="1.1" xmlns="http://www.w3.org/2000/svg" xmlns:xlink="http://www.w3.org/1999/xlink">
    <!-- Generator: Sketch 44.1 (41455) - http://www.bohemiancoding.com/sketch -->
    <title>imageboxes04</title>
    <desc>Created with Sketch.</desc>
    <defs></defs>
    <g id="Imageboxes" stroke="none" stroke-width="1" fill="none" fill-rule="evenodd">
        <g id="04">
            <rect id="Rectangle-3" fill="#5F5F5F" x="0" y="90" width="194" height="128"></rect>
            <path d="M221,1.26 L223.646,1.26 L223.646,12.996 L221,12.996 L221,1.26 Z M226.202,4.068 L228.362,4.068 L228.542,5.22 L228.614,5.22 C228.986002,4.84799814 229.381998,4.52700135 229.802,4.257 C230.222002,3.98699865 230.725997,3.852 231.314,3.852 C231.950003,3.852 232.462998,3.98099871 232.853,4.239 C233.243002,4.49700129 233.551999,4.8659976 233.78,5.346 C234.176002,4.93799796 234.592998,4.58700147 235.031,4.293 C235.469002,3.99899853 235.987997,3.852 236.588,3.852 C237.548005,3.852 238.252998,4.17299679 238.703,4.815 C239.153002,5.45700321 239.378,6.33599442 239.378,7.452 L239.378,12.996 L236.732,12.996 L236.732,7.794 C236.732,7.14599676 236.645001,6.7020012 236.471,6.462 C236.296999,6.2219988 236.018002,6.102 235.634,6.102 C235.189998,6.102 234.680003,6.38999712 234.104,6.966 L234.104,12.996 L231.458,12.996 L231.458,7.794 C231.458,7.14599676 231.371001,6.7020012 231.197,6.462 C231.022999,6.2219988 230.744002,6.102 230.36,6.102 C229.903998,6.102 229.400003,6.38999712 228.848,6.966 L228.848,12.996 L226.202,12.996 L226.202,4.068 Z M241.304,10.512 C241.304,9.57599532 241.699996,8.84400264 242.492,8.316 C243.284004,7.78799736 244.561991,7.4340009 246.326,7.254 C246.302,6.85799802 246.182001,6.54300117 245.966,6.309 C245.749999,6.07499883 245.402002,5.958 244.922,5.958 C244.537998,5.958 244.154002,6.02999928 243.77,6.174 C243.385998,6.31800072 242.978002,6.51599874 242.546,6.768 L241.61,5.022 C242.186003,4.67399826 242.788997,4.39200108 243.419,4.176 C244.049003,3.95999892 244.717996,3.852 245.426,3.852 C246.578006,3.852 247.456997,4.17899673 248.063,4.833 C248.669003,5.48700327 248.972,6.5039931 248.972,7.884 L248.972,12.996 L246.812,12.996 L246.614,12.078 L246.56,12.078 C246.175998,12.4140017 245.771002,12.6869989 245.345,12.897 C244.918998,13.1070011 244.454003,13.212 243.95,13.212 C243.541998,13.212 243.176002,13.1430007 242.852,13.005 C242.527998,12.8669993 242.252001,12.6750012 242.024,12.429 C241.795999,12.1829988 241.619001,11.8980016 241.493,11.574 C241.366999,11.2499984 241.304,10.8960019 241.304,10.512 Z M243.824,10.314 C243.824,10.6020014 243.916999,10.8149993 244.103,10.953 C244.289001,11.0910007 244.537998,11.16 244.85,11.16 C245.162002,11.16 245.425999,11.0940007 245.642,10.962 C245.858001,10.8299993 246.085999,10.6440012 246.326,10.404 L246.326,8.838 C245.377995,8.97000066 244.724002,9.16199874 244.364,9.414 C244.003998,9.66600126 243.824,9.96599826 243.824,10.314 Z M252.86,14.112 C252.86,14.4480017 253.039998,14.7029991 253.4,14.877 C253.760002,15.0510009 254.239997,15.138 254.84,15.138 C255.440003,15.138 255.931998,15.033001 256.316,14.823 C256.700002,14.612999 256.892,14.3520016 256.892,14.04 C256.892,13.7639986 256.775001,13.5780005 256.541,13.482 C256.306999,13.3859995 255.968002,13.338 255.524,13.338 L254.606,13.338 C254.293998,13.338 254.042001,13.3290001 253.85,13.311 C253.657999,13.2929999 253.490001,13.2660002 253.346,13.23 C253.021998,13.5180014 252.86,13.8119985 252.86,14.112 Z M250.682,14.526 C250.682,13.8059964 251.107996,13.2060024 251.96,12.726 L251.96,12.654 C251.719999,12.4979992 251.522001,12.3000012 251.366,12.06 C251.209999,11.8199988 251.132,11.5140019 251.132,11.142 C251.132,10.8179984 251.227999,10.5090015 251.42,10.215 C251.612001,9.92099853 251.851999,9.67200102 252.14,9.468 L252.14,9.396 C251.827998,9.17999892 251.549001,8.87100201 251.303,8.469 C251.056999,8.06699799 250.934,7.60200264 250.934,7.074 C250.934,6.5339973 251.035999,6.06300201 251.24,5.661 C251.444001,5.25899799 251.716998,4.92300135 252.059,4.653 C252.401002,4.38299865 252.793998,4.18200066 253.238,4.05 C253.682002,3.91799934 254.143998,3.852 254.624,3.852 C255.152003,3.852 255.613998,3.92399928 256.01,4.068 L259.268,4.068 L259.268,5.994 L257.846,5.994 C257.93,6.12600066 257.999,6.29399898 258.053,6.498 C258.107,6.70200102 258.134,6.9239988 258.134,7.164 C258.134,7.68000258 258.044001,8.12699811 257.864,8.505 C257.683999,8.88300189 257.435002,9.19499877 257.117,9.441 C256.798998,9.68700123 256.427002,9.8699994 256.001,9.99 C255.574998,10.1100006 255.116002,10.17 254.624,10.17 C254.275998,10.17 253.916002,10.1100006 253.544,9.99 C253.423999,10.0860005 253.34,10.1819995 253.292,10.278 C253.244,10.3740005 253.22,10.4999992 253.22,10.656 C253.22,10.8840011 253.318999,11.0519995 253.517,11.16 C253.715001,11.2680005 254.065997,11.322 254.57,11.322 L256.01,11.322 C257.114006,11.322 257.956997,11.4989982 258.539,11.853 C259.121003,12.2070018 259.412,12.785996 259.412,13.59 C259.412,14.0580023 259.295001,14.4869981 259.061,14.877 C258.826999,15.267002 258.494002,15.6029986 258.062,15.885 C257.629998,16.1670014 257.108003,16.3889992 256.496,16.551 C255.883997,16.7130008 255.194004,16.794 254.426,16.794 C253.897997,16.794 253.409002,16.7490004 252.959,16.659 C252.508998,16.5689995 252.113002,16.4340009 251.771,16.254 C251.428998,16.0739991 251.162001,15.8400014 250.97,15.552 C250.777999,15.2639986 250.682,14.922002 250.682,14.526 Z M254.624,8.568 C254.972002,8.568 255.262999,8.44500123 255.497,8.199 C255.731001,7.95299877 255.848,7.57800252 255.848,7.074 C255.848,6.60599766 255.731001,6.24900123 255.497,6.003 C255.262999,5.75699877 254.972002,5.634 254.624,5.634 C254.275998,5.634 253.985001,5.7539988 253.751,5.994 C253.516999,6.2340012 253.4,6.5939976 253.4,7.074 C253.4,7.57800252 253.516999,7.95299877 253.751,8.199 C253.985001,8.44500123 254.275998,8.568 254.624,8.568 Z M260.33,8.532 C260.33,7.8119964 260.449999,7.16100291 260.69,6.579 C260.930001,5.99699709 261.244998,5.50500201 261.635,5.103 C262.025002,4.70099799 262.471997,4.39200108 262.976,4.176 C263.480003,3.95999892 264.001997,3.852 264.542,3.852 C265.178003,3.852 265.732998,3.95999892 266.207,4.176 C266.681002,4.39200108 267.076998,4.69199808 267.395,5.076 C267.713002,5.46000192 267.949999,5.91299739 268.106,6.435 C268.262001,6.95700261 268.34,7.52399694 268.34,8.136 C268.34,8.3760012 268.328,8.59499901 268.304,8.793 C268.28,8.99100099 268.256,9.14399946 268.232,9.252 L262.886,9.252 C263.006001,9.93600342 263.272998,10.4309985 263.687,10.737 C264.101002,11.0430015 264.607997,11.196 265.208,11.196 C265.844003,11.196 266.485997,10.998002 267.134,10.602 L268.016,12.204 C267.559998,12.5160016 267.053003,12.7619991 266.495,12.942 C265.936997,13.1220009 265.388003,13.212 264.848,13.212 C264.211997,13.212 263.618003,13.1070011 263.066,12.897 C262.513997,12.6869989 262.034002,12.381002 261.626,11.979 C261.217998,11.576998 260.900001,11.0880029 260.672,10.512 C260.443999,9.93599712 260.33,9.27600372 260.33,8.532 Z M266.09,7.614 C266.09,7.09799742 265.976001,6.67800162 265.748,6.354 C265.519999,6.02999838 265.136003,5.868 264.596,5.868 C264.175998,5.868 263.807002,6.00899859 263.489,6.291 C263.170998,6.57300141 262.964,7.013997 262.868,7.614 L266.09,7.614 Z M270.176,0.378 L272.822,0.378 L272.822,3.474 L272.75,4.842 C273.098002,4.52999844 273.472998,4.28700087 273.875,4.113 C274.277002,3.93899913 274.687998,3.852 275.108,3.852 C275.648003,3.852 276.133998,3.95999892 276.566,4.176 C276.998002,4.39200108 277.366998,4.69499805 277.673,5.085 C277.979002,5.47500195 278.212999,5.94899721 278.375,6.507 C278.537001,7.06500279 278.618,7.68599658 278.618,8.37 C278.618,9.13800384 278.513001,9.821997 278.303,10.422 C278.092999,11.022003 277.811002,11.5289979 277.457,11.943 C277.102998,12.3570021 276.701002,12.6719989 276.251,12.888 C275.800998,13.1040011 275.336002,13.212 274.856,13.212 C274.459998,13.212 274.061002,13.116001 273.659,12.924 C273.256998,12.731999 272.882002,12.4440019 272.534,12.06 L272.462,12.06 L272.246,12.996 L270.176,12.996 L270.176,0.378 Z M272.822,10.476 C273.062001,10.6920011 273.301999,10.8419996 273.542,10.926 C273.782001,11.0100004 274.015999,11.052 274.244,11.052 C274.700002,11.052 275.089998,10.8450021 275.414,10.431 C275.738002,10.0169979 275.9,9.34800462 275.9,8.424 C275.9,6.81599196 275.384005,6.012 274.352,6.012 C273.823997,6.012 273.314002,6.2819973 272.822,6.822 L272.822,10.476 Z M279.968,8.532 C279.968,7.78799628 280.087999,7.12500291 280.328,6.543 C280.568001,5.96099709 280.888998,5.47200198 281.291,5.076 C281.693002,4.67999802 282.157997,4.37700105 282.686,4.167 C283.214003,3.95699895 283.759997,3.852 284.324,3.852 C284.888003,3.852 285.430997,3.95699895 285.953,4.167 C286.475003,4.37700105 286.936998,4.67999802 287.339,5.076 C287.741002,5.47200198 288.061999,5.96099709 288.302,6.543 C288.542001,7.12500291 288.662,7.78799628 288.662,8.532 C288.662,9.27600372 288.542001,9.93899709 288.302,10.521 C288.061999,11.1030029 287.741002,11.591998 287.339,11.988 C286.936998,12.384002 286.475003,12.6869989 285.953,12.897 C285.430997,13.1070011 284.888003,13.212 284.324,13.212 C283.759997,13.212 283.214003,13.1070011 282.686,12.897 C282.157997,12.6869989 281.693002,12.384002 281.291,11.988 C280.888998,11.591998 280.568001,11.1030029 280.328,10.521 C280.087999,9.93899709 279.968,9.27600372 279.968,8.532 Z M282.686,8.532 C282.686,9.3120039 282.820999,9.92999772 283.091,10.386 C283.361001,10.8420023 283.771997,11.07 284.324,11.07 C284.864003,11.07 285.271999,10.8420023 285.548,10.386 C285.824001,9.92999772 285.962,9.3120039 285.962,8.532 C285.962,7.7519961 285.824001,7.13400228 285.548,6.678 C285.271999,6.22199772 284.864003,5.994 284.324,5.994 C283.771997,5.994 283.361001,6.22199772 283.091,6.678 C282.820999,7.13400228 282.686,7.7519961 282.686,8.532 Z M292.298,8.352 L289.724,4.068 L292.568,4.068 L293.36,5.508 C293.480001,5.76000126 293.602999,6.01499871 293.729,6.273 C293.855001,6.53100129 293.983999,6.78599874 294.116,7.038 L294.188,7.038 C294.284,6.78599874 294.385999,6.53100129 294.494,6.273 C294.602001,6.01499871 294.704,5.76000126 294.8,5.508 L295.412,4.068 L298.148,4.068 L295.556,8.658 L298.31,12.996 L295.466,12.996 L294.602,11.52 C294.457999,11.2679987 294.317001,11.0100013 294.179,10.746 C294.040999,10.4819987 293.900001,10.2240013 293.756,9.972 L293.684,9.972 C293.575999,10.2240013 293.462001,10.4789987 293.342,10.737 C293.221999,10.9950013 293.108001,11.2559987 293,11.52 L292.298,12.996 L289.562,12.996 L292.298,8.352 Z M299.21,8.532 C299.21,7.8119964 299.329999,7.16100291 299.57,6.579 C299.810001,5.99699709 300.124998,5.50500201 300.515,5.103 C300.905002,4.70099799 301.351997,4.39200108 301.856,4.176 C302.360003,3.95999892 302.881997,3.852 303.422,3.852 C304.058003,3.852 304.612998,3.95999892 305.087,4.176 C305.561002,4.39200108 305.956998,4.69199808 306.275,5.076 C306.593002,5.46000192 306.829999,5.91299739 306.986,6.435 C307.142001,6.95700261 307.22,7.52399694 307.22,8.136 C307.22,8.3760012 307.208,8.59499901 307.184,8.793 C307.16,8.99100099 307.136,9.14399946 307.112,9.252 L301.766,9.252 C301.886001,9.93600342 302.152998,10.4309985 302.567,10.737 C302.981002,11.0430015 303.487997,11.196 304.088,11.196 C304.724003,11.196 305.365997,10.998002 306.014,10.602 L306.896,12.204 C306.439998,12.5160016 305.933003,12.7619991 305.375,12.942 C304.816997,13.1220009 304.268003,13.212 303.728,13.212 C303.091997,13.212 302.498003,13.1070011 301.946,12.897 C301.393997,12.6869989 300.914002,12.381002 300.506,11.979 C300.097998,11.576998 299.780001,11.0880029 299.552,10.512 C299.323999,9.93599712 299.21,9.27600372 299.21,8.532 Z M304.97,7.614 C304.97,7.09799742 304.856001,6.67800162 304.628,6.354 C304.399999,6.02999838 304.016003,5.868 303.476,5.868 C303.055998,5.868 302.687002,6.00899859 302.369,6.291 C302.050998,6.57300141 301.844,7.013997 301.748,7.614 L304.97,7.614 Z M309.452,10.314 C309.860002,10.6260016 310.249998,10.8599992 310.622,11.016 C310.994002,11.1720008 311.371998,11.25 311.756,11.25 C312.152002,11.25 312.439999,11.1840007 312.62,11.052 C312.800001,10.9199993 312.89,10.7340012 312.89,10.494 C312.89,10.3499993 312.839001,10.2210006 312.737,10.107 C312.634999,9.99299943 312.497001,9.88800048 312.323,9.792 C312.148999,9.69599952 311.954001,9.60900039 311.738,9.531 C311.521999,9.45299961 311.300001,9.36600048 311.072,9.27 C310.795999,9.16199946 310.520001,9.03600072 310.244,8.892 C309.967999,8.74799928 309.716001,8.57100105 309.488,8.361 C309.259999,8.15099895 309.074001,7.90500141 308.93,7.623 C308.785999,7.34099859 308.714,7.01400186 308.714,6.642 C308.714,6.23399796 308.794999,5.85600174 308.957,5.508 C309.119001,5.15999826 309.349998,4.8660012 309.65,4.626 C309.950001,4.3859988 310.309998,4.19700069 310.73,4.059 C311.150002,3.92099931 311.617997,3.852 312.134,3.852 C312.818003,3.852 313.417997,3.96899883 313.934,4.203 C314.450003,4.43700117 314.899998,4.69799856 315.284,4.986 L314.096,6.57 C313.771998,6.3299988 313.454002,6.14400066 313.142,6.012 C312.829998,5.87999934 312.518002,5.814 312.206,5.814 C311.533997,5.814 311.198,6.04799766 311.198,6.516 C311.198,6.66000072 311.246,6.78299949 311.342,6.885 C311.438,6.98700051 311.566999,7.07999958 311.729,7.164 C311.891001,7.24800042 312.076999,7.32899961 312.287,7.407 C312.497001,7.48500039 312.715999,7.56599958 312.944,7.65 C313.232001,7.75800054 313.516999,7.88099931 313.799,8.019 C314.081001,8.15700069 314.338999,8.32799898 314.573,8.532 C314.807001,8.73600102 314.995999,8.98499853 315.14,9.279 C315.284001,9.57300147 315.356,9.92399796 315.356,10.332 C315.356,10.740002 315.278001,11.1179983 315.122,11.466 C314.965999,11.8140017 314.732002,12.1169987 314.42,12.375 C314.107998,12.6330013 313.724002,12.8369992 313.268,12.987 C312.811998,13.1370007 312.284003,13.212 311.684,13.212 C311.095997,13.212 310.493003,13.0980011 309.875,12.87 C309.256997,12.6419989 308.720002,12.3420019 308.264,11.97 L309.452,10.314 Z M321.746,9.702 C322.166002,10.0620018 322.630997,10.3559989 323.141,10.584 C323.651003,10.8120011 324.151998,10.926 324.644,10.926 C325.196003,10.926 325.606999,10.824001 325.877,10.62 C326.147001,10.415999 326.282,10.1400017 326.282,9.792 C326.282,9.6119991 326.243,9.45600066 326.165,9.324 C326.087,9.19199934 325.973001,9.07500051 325.823,8.973 C325.672999,8.87099949 325.493001,8.77500045 325.283,8.685 L324.59,8.388 L323.06,7.74 C322.759998,7.6199994 322.469001,7.46400096 322.187,7.272 C321.904999,7.07999904 321.653001,6.85500129 321.431,6.597 C321.208999,6.33899871 321.032001,6.03900171 320.9,5.697 C320.767999,5.35499829 320.702,4.96800216 320.702,4.536 C320.702,4.0559976 320.803999,3.60300213 321.008,3.177 C321.212001,2.75099787 321.499998,2.37900159 321.872,2.061 C322.244002,1.74299841 322.684997,1.4940009 323.195,1.314 C323.705003,1.1339991 324.265997,1.044 324.878,1.044 C325.562003,1.044 326.236997,1.17599868 326.903,1.44 C327.569003,1.70400132 328.153997,2.08799748 328.658,2.592 L327.308,4.266 C326.923998,3.9659985 326.540002,3.73500081 326.156,3.573 C325.771998,3.41099919 325.346002,3.33 324.878,3.33 C324.421998,3.33 324.059001,3.42299907 323.789,3.609 C323.518999,3.79500093 323.384,4.05599832 323.384,4.392 C323.384,4.5720009 323.429,4.72499937 323.519,4.851 C323.609,4.97700063 323.734999,5.09099949 323.897,5.193 C324.059001,5.29500051 324.247999,5.39099955 324.464,5.481 C324.680001,5.57100045 324.913999,5.66999946 325.166,5.778 L326.678,6.39 C327.398004,6.67800144 327.964998,7.07399748 328.379,7.578 C328.793002,8.08200252 329,8.74799586 329,9.576 C329,10.0680025 328.901001,10.5329978 328.703,10.971 C328.504999,11.4090022 328.217002,11.7929983 327.839,12.123 C327.460998,12.4530017 326.996003,12.716999 326.444,12.915 C325.891997,13.113001 325.268003,13.212 324.572,13.212 C323.803996,13.212 323.039004,13.0710014 322.277,12.789 C321.514996,12.5069986 320.834003,12.0840028 320.234,11.52 L321.746,9.702 Z M330.26,8.532 C330.26,7.8119964 330.379999,7.16100291 330.62,6.579 C330.860001,5.99699709 331.174998,5.50500201 331.565,5.103 C331.955002,4.70099799 332.401997,4.39200108 332.906,4.176 C333.410003,3.95999892 333.931997,3.852 334.472,3.852 C335.108003,3.852 335.662998,3.95999892 336.137,4.176 C336.611002,4.39200108 337.006998,4.69199808 337.325,5.076 C337.643002,5.46000192 337.879999,5.91299739 338.036,6.435 C338.192001,6.95700261 338.27,7.52399694 338.27,8.136 C338.27,8.3760012 338.258,8.59499901 338.234,8.793 C338.21,8.99100099 338.186,9.14399946 338.162,9.252 L332.816,9.252 C332.936001,9.93600342 333.202998,10.4309985 333.617,10.737 C334.031002,11.0430015 334.537997,11.196 335.138,11.196 C335.774003,11.196 336.415997,10.998002 337.064,10.602 L337.946,12.204 C337.489998,12.5160016 336.983003,12.7619991 336.425,12.942 C335.866997,13.1220009 335.318003,13.212 334.778,13.212 C334.141997,13.212 333.548003,13.1070011 332.996,12.897 C332.443997,12.6869989 331.964002,12.381002 331.556,11.979 C331.147998,11.576998 330.830001,11.0880029 330.602,10.512 C330.373999,9.93599712 330.26,9.27600372 330.26,8.532 Z M336.02,7.614 C336.02,7.09799742 335.906001,6.67800162 335.678,6.354 C335.449999,6.02999838 335.066003,5.868 334.526,5.868 C334.105998,5.868 333.737002,6.00899859 333.419,6.291 C333.100998,6.57300141 332.894,7.013997 332.798,7.614 L336.02,7.614 Z M339.584,8.532 C339.584,7.78799628 339.709999,7.12500291 339.962,6.543 C340.214001,5.96099709 340.552998,5.47200198 340.979,5.076 C341.405002,4.67999802 341.899997,4.37700105 342.464,4.167 C343.028003,3.95699895 343.615997,3.852 344.228,3.852 C344.780003,3.852 345.277998,3.94499907 345.722,4.131 C346.166002,4.31700093 346.537999,4.56599844 346.838,4.878 L345.632,6.516 C345.211998,6.16799826 344.798002,5.994 344.39,5.994 C343.741997,5.994 343.232002,6.22199772 342.86,6.678 C342.487998,7.13400228 342.302,7.7519961 342.302,8.532 C342.302,9.3120039 342.490998,9.92999772 342.869,10.386 C343.247002,10.8420023 343.723997,11.07 344.3,11.07 C344.624002,11.07 344.917999,11.0040007 345.182,10.872 C345.446001,10.7399993 345.685999,10.5900008 345.902,10.422 L346.964,12.096 C346.531998,12.4800019 346.052003,12.7619991 345.524,12.942 C344.995997,13.1220009 344.486002,13.212 343.994,13.212 C343.369997,13.212 342.791003,13.1070011 342.257,12.897 C341.722997,12.6869989 341.258002,12.384002 340.862,11.988 C340.465998,11.591998 340.154001,11.1030029 339.926,10.521 C339.697999,9.93899709 339.584,9.27600372 339.584,8.532 Z M348.872,6.138 L347.648,6.138 L347.648,4.176 L349.016,4.068 L349.322,1.692 L351.518,1.692 L351.518,4.068 L353.66,4.068 L353.66,6.138 L351.518,6.138 L351.518,9.72 C351.518,10.2240025 351.622999,10.5869989 351.833,10.809 C352.043001,11.0310011 352.321998,11.142 352.67,11.142 C352.814001,11.142 352.960999,11.1240002 353.111,11.088 C353.261001,11.0519998 353.395999,11.0100002 353.516,10.962 L353.93,12.888 C353.689999,12.9600004 353.408002,13.0319996 353.084,13.104 C352.759998,13.1760004 352.382002,13.212 351.95,13.212 C351.397997,13.212 350.927002,13.1280008 350.537,12.96 C350.146998,12.7919992 349.829001,12.5580015 349.583,12.258 C349.336999,11.9579985 349.157001,11.5950021 349.043,11.169 C348.928999,10.7429979 348.872,10.2720026 348.872,9.756 L348.872,6.138 Z M356.72,2.754 C356.275998,2.754 355.910001,2.62500129 355.622,2.367 C355.333999,2.10899871 355.19,1.77600204 355.19,1.368 C355.19,0.95999796 355.333999,0.63000126 355.622,0.378 C355.910001,0.12599874 356.275998,0 356.72,0 C357.176002,0 357.544999,0.12599874 357.827,0.378 C358.109001,0.63000126 358.25,0.95999796 358.25,1.368 C358.25,1.77600204 358.109001,2.10899871 357.827,2.367 C357.544999,2.62500129 357.176002,2.754 356.72,2.754 Z M355.406,4.068 L358.052,4.068 L358.052,12.996 L355.406,12.996 L355.406,4.068 Z M359.852,8.532 C359.852,7.78799628 359.971999,7.12500291 360.212,6.543 C360.452001,5.96099709 360.772998,5.47200198 361.175,5.076 C361.577002,4.67999802 362.041997,4.37700105 362.57,4.167 C363.098003,3.95699895 363.643997,3.852 364.208,3.852 C364.772003,3.852 365.314997,3.95699895 365.837,4.167 C366.359003,4.37700105 366.820998,4.67999802 367.223,5.076 C367.625002,5.47200198 367.945999,5.96099709 368.186,6.543 C368.426001,7.12500291 368.546,7.78799628 368.546,8.532 C368.546,9.27600372 368.426001,9.93899709 368.186,10.521 C367.945999,11.1030029 367.625002,11.591998 367.223,11.988 C366.820998,12.384002 366.359003,12.6869989 365.837,12.897 C365.314997,13.1070011 364.772003,13.212 364.208,13.212 C363.643997,13.212 363.098003,13.1070011 362.57,12.897 C362.041997,12.6869989 361.577002,12.384002 361.175,11.988 C360.772998,11.591998 360.452001,11.1030029 360.212,10.521 C359.971999,9.93899709 359.852,9.27600372 359.852,8.532 Z M362.57,8.532 C362.57,9.3120039 362.704999,9.92999772 362.975,10.386 C363.245001,10.8420023 363.655997,11.07 364.208,11.07 C364.748003,11.07 365.155999,10.8420023 365.432,10.386 C365.708001,9.92999772 365.846,9.3120039 365.846,8.532 C365.846,7.7519961 365.708001,7.13400228 365.432,6.678 C365.155999,6.22199772 364.748003,5.994 364.208,5.994 C363.655997,5.994 363.245001,6.22199772 362.975,6.678 C362.704999,7.13400228 362.57,7.7519961 362.57,8.532 Z M370.364,4.068 L372.524,4.068 L372.704,5.202 L372.776,5.202 C373.160002,4.8419982 373.579998,4.52700135 374.036,4.257 C374.492002,3.98699865 375.025997,3.852 375.638,3.852 C376.610005,3.852 377.314998,4.16999682 377.753,4.806 C378.191002,5.44200318 378.41,6.32399436 378.41,7.452 L378.41,12.996 L375.764,12.996 L375.764,7.794 C375.764,7.14599676 375.677001,6.7020012 375.503,6.462 C375.328999,6.2219988 375.050002,6.102 374.666,6.102 C374.329998,6.102 374.042001,6.17699925 373.802,6.327 C373.561999,6.47700075 373.298001,6.68999862 373.01,6.966 L373.01,12.996 L370.364,12.996 L370.364,4.068 Z" id="Imageboxes-Section" fill="#79797B"></path>
            <path d="M245.5,33 L353.541659,33" id="Line" stroke="#979797" stroke-width="4" stroke-linecap="square"></path>
            <path d="M266.5,44 L332.000311,44" id="Line" stroke="#979797" stroke-width="4" stroke-linecap="square"></path>
            <g id="Group-3" transform="translate(67.000000, 136.000000)">
                <path d="M1.666,11.438 C1.9926683,11.7180014 2.35433135,11.9466658 2.751,12.124 C3.14766865,12.3013342 3.53733142,12.39 3.92,12.39 C4.34933548,12.39 4.66899895,12.3106675 4.879,12.152 C5.08900105,11.9933325 5.194,11.778668 5.194,11.508 C5.194,11.3679993 5.16366697,11.2466672 5.103,11.144 C5.04233303,11.0413328 4.95366725,10.9503337 4.837,10.871 C4.72033275,10.7916663 4.58033415,10.7170003 4.417,10.647 L3.878,10.416 L2.688,9.912 C2.4546655,9.8186662 2.22833443,9.69733408 2.009,9.548 C1.78966557,9.39866592 1.59366753,9.22366767 1.421,9.023 C1.24833247,8.82233233 1.11066718,8.58900133 1.008,8.323 C0.90533282,8.05699867 0.854,7.75600168 0.854,7.42 C0.854,7.0466648 0.93333254,6.69433499 1.092,6.363 C1.25066746,6.03166501 1.47466522,5.74233457 1.764,5.495 C2.05333478,5.24766543 2.39633135,5.0540007 2.793,4.914 C3.18966865,4.7739993 3.62599762,4.704 4.102,4.704 C4.63400266,4.704 5.15899741,4.80666564 5.677,5.012 C6.19500259,5.21733436 6.64999804,5.51599804 7.042,5.908 L5.992,7.21 C5.69333184,6.9766655 5.39466816,6.79700063 5.096,6.671 C4.79733184,6.54499937 4.46600182,6.482 4.102,6.482 C3.74733156,6.482 3.46500105,6.55433261 3.255,6.699 C3.04499895,6.84366739 2.94,7.04666536 2.94,7.308 C2.94,7.4480007 2.97499965,7.56699951 3.045,7.665 C3.11500035,7.76300049 3.21299937,7.85166627 3.339,7.931 C3.46500063,8.01033373 3.61199916,8.08499965 3.78,8.155 C3.94800084,8.22500035 4.12999902,8.30199958 4.326,8.386 L5.502,8.862 C6.0620028,9.08600112 6.50299839,9.39399804 6.825,9.786 C7.14700161,10.178002 7.308,10.6959968 7.308,11.34 C7.308,11.7226686 7.23100077,12.0843316 7.077,12.425 C6.92299923,12.7656684 6.69900147,13.0643321 6.405,13.321 C6.11099853,13.577668 5.74933548,13.7829992 5.32,13.937 C4.89066452,14.0910008 4.40533604,14.168 3.864,14.168 C3.26666368,14.168 2.67166963,14.0583344 2.079,13.839 C1.48633037,13.6196656 0.956669,13.2906689 0.49,12.852 L1.666,11.438 Z M8.288,10.528 C8.288,9.94933044 8.3813324,9.43366893 8.568,8.981 C8.7546676,8.52833107 9.00433177,8.14800154 9.317,7.84 C9.62966823,7.53199846 9.99133128,7.29633415 10.402,7.133 C10.8126687,6.96966585 11.2373311,6.888 11.676,6.888 C12.1146689,6.888 12.536998,6.96966585 12.943,7.133 C13.349002,7.29633415 13.7083318,7.53199846 14.021,7.84 C14.3336682,8.14800154 14.5833324,8.52833107 14.77,8.981 C14.9566676,9.43366893 15.05,9.94933044 15.05,10.528 C15.05,11.1066696 14.9566676,11.6223311 14.77,12.075 C14.5833324,12.5276689 14.3336682,12.9079985 14.021,13.216 C13.7083318,13.5240015 13.349002,13.7596659 12.943,13.923 C12.536998,14.0863341 12.1146689,14.168 11.676,14.168 C11.2373311,14.168 10.8126687,14.0863341 10.402,13.923 C9.99133128,13.7596659 9.62966823,13.5240015 9.317,13.216 C9.00433177,12.9079985 8.7546676,12.5276689 8.568,12.075 C8.3813324,11.6223311 8.288,11.1066696 8.288,10.528 Z M10.402,10.528 C10.402,11.1346697 10.5069989,11.6153316 10.717,11.97 C10.927001,12.3246684 11.2466645,12.502 11.676,12.502 C12.0960021,12.502 12.4133323,12.3246684 12.628,11.97 C12.8426677,11.6153316 12.95,11.1346697 12.95,10.528 C12.95,9.9213303 12.8426677,9.44066844 12.628,9.086 C12.4133323,8.73133156 12.0960021,8.554 11.676,8.554 C11.2466645,8.554 10.927001,8.73133156 10.717,9.086 C10.5069989,9.44066844 10.402,9.9213303 10.402,10.528 Z M16.464,4.186 L18.522,4.186 L18.522,11.928 C18.522,12.1426677 18.5616663,12.2919996 18.641,12.376 C18.7203337,12.4600004 18.8019996,12.502 18.886,12.502 L19.005,12.502 C19.0376668,12.502 19.0819997,12.4926668 19.138,12.474 L19.39,14 C19.2779994,14.0466669 19.1356675,14.0863332 18.963,14.119 C18.7903325,14.1516668 18.5873345,14.168 18.354,14.168 C17.9993316,14.168 17.7006679,14.1120006 17.458,14 C17.2153321,13.8879994 17.0216674,13.7316677 16.877,13.531 C16.7323326,13.3303323 16.6273337,13.0876681 16.562,12.803 C16.4966663,12.5183319 16.464,12.1986684 16.464,11.844 L16.464,4.186 Z M20.398,7.056 L22.456,7.056 L22.456,11.102 C22.456,11.6060025 22.5259993,11.9513324 22.666,12.138 C22.8060007,12.3246676 23.0253318,12.418 23.324,12.418 C23.5853346,12.418 23.8046658,12.3573339 23.982,12.236 C24.1593342,12.1146661 24.3506656,11.918668 24.556,11.648 L24.556,7.056 L26.614,7.056 L26.614,14 L24.934,14 L24.78,13.034 L24.738,13.034 C24.4393318,13.3886684 24.1196684,13.6663323 23.779,13.867 C23.4383316,14.0676677 23.0300024,14.168 22.554,14.168 C21.7979962,14.168 21.2496684,13.9206691 20.909,13.426 C20.5683316,12.9313309 20.398,12.2453377 20.398,11.368 L20.398,7.056 Z M28.7,8.666 L27.748,8.666 L27.748,7.14 L28.812,7.056 L29.05,5.208 L30.758,5.208 L30.758,7.056 L32.424,7.056 L32.424,8.666 L30.758,8.666 L30.758,11.452 C30.758,11.844002 30.8396658,12.1263325 31.003,12.299 C31.1663341,12.4716675 31.383332,12.558 31.654,12.558 C31.7660006,12.558 31.8803327,12.5440001 31.997,12.516 C32.1136673,12.4879999 32.2186662,12.4553335 32.312,12.418 L32.634,13.916 C32.4473324,13.9720003 32.2280013,14.0279997 31.976,14.084 C31.7239987,14.1400003 31.4300017,14.168 31.094,14.168 C30.6646645,14.168 30.2983348,14.1026673 29.995,13.972 C29.6916651,13.8413327 29.4443343,13.6593345 29.253,13.426 C29.0616657,13.1926655 28.9216671,12.910335 28.833,12.579 C28.7443329,12.247665 28.7,11.8813353 28.7,11.48 L28.7,8.666 Z M34.804,6.034 C34.4586649,6.034 34.1740011,5.93366767 33.95,5.733 C33.7259989,5.53233233 33.614,5.27333492 33.614,4.956 C33.614,4.63866508 33.7259989,4.38200098 33.95,4.186 C34.1740011,3.98999902 34.4586649,3.892 34.804,3.892 C35.1586684,3.892 35.4456656,3.98999902 35.665,4.186 C35.8843344,4.38200098 35.994,4.63866508 35.994,4.956 C35.994,5.27333492 35.8843344,5.53233233 35.665,5.733 C35.4456656,5.93366767 35.1586684,6.034 34.804,6.034 Z M33.782,7.056 L35.84,7.056 L35.84,14 L33.782,14 L33.782,7.056 Z M37.24,10.528 C37.24,9.94933044 37.3333324,9.43366893 37.52,8.981 C37.7066676,8.52833107 37.9563318,8.14800154 38.269,7.84 C38.5816682,7.53199846 38.9433313,7.29633415 39.354,7.133 C39.7646687,6.96966585 40.1893311,6.888 40.628,6.888 C41.0666689,6.888 41.488998,6.96966585 41.895,7.133 C42.301002,7.29633415 42.6603318,7.53199846 42.973,7.84 C43.2856682,8.14800154 43.5353324,8.52833107 43.722,8.981 C43.9086676,9.43366893 44.002,9.94933044 44.002,10.528 C44.002,11.1066696 43.9086676,11.6223311 43.722,12.075 C43.5353324,12.5276689 43.2856682,12.9079985 42.973,13.216 C42.6603318,13.5240015 42.301002,13.7596659 41.895,13.923 C41.488998,14.0863341 41.0666689,14.168 40.628,14.168 C40.1893311,14.168 39.7646687,14.0863341 39.354,13.923 C38.9433313,13.7596659 38.5816682,13.5240015 38.269,13.216 C37.9563318,12.9079985 37.7066676,12.5276689 37.52,12.075 C37.3333324,11.6223311 37.24,11.1066696 37.24,10.528 Z M39.354,10.528 C39.354,11.1346697 39.4589989,11.6153316 39.669,11.97 C39.879001,12.3246684 40.1986645,12.502 40.628,12.502 C41.0480021,12.502 41.3653323,12.3246684 41.58,11.97 C41.7946677,11.6153316 41.902,11.1346697 41.902,10.528 C41.902,9.9213303 41.7946677,9.44066844 41.58,9.086 C41.3653323,8.73133156 41.0480021,8.554 40.628,8.554 C40.1986645,8.554 39.879001,8.73133156 39.669,9.086 C39.4589989,9.44066844 39.354,9.9213303 39.354,10.528 Z M45.416,7.056 L47.096,7.056 L47.236,7.938 L47.292,7.938 C47.5906682,7.6579986 47.9173316,7.41300105 48.272,7.203 C48.6266684,6.99299895 49.0419976,6.888 49.518,6.888 C50.2740038,6.888 50.8223316,7.13533086 51.163,7.63 C51.5036684,8.12466914 51.674,8.81066228 51.674,9.688 L51.674,14 L49.616,14 L49.616,9.954 C49.616,9.44999748 49.548334,9.1046676 49.413,8.918 C49.277666,8.7313324 49.0606682,8.638 48.762,8.638 C48.5006654,8.638 48.2766676,8.69633275 48.09,8.813 C47.9033324,8.92966725 47.6980011,9.09533226 47.474,9.31 L47.474,14 L45.416,14 L45.416,7.056 Z M53.732,11.914 C54.0493349,12.1566679 54.3526652,12.3386661 54.642,12.46 C54.9313348,12.5813339 55.2253318,12.642 55.524,12.642 C55.8320015,12.642 56.0559993,12.5906672 56.196,12.488 C56.3360007,12.3853328 56.406,12.2406676 56.406,12.054 C56.406,11.9419994 56.3663337,11.8416671 56.287,11.753 C56.2076663,11.6643329 56.100334,11.582667 55.965,11.508 C55.829666,11.433333 55.6780008,11.365667 55.51,11.305 C55.3419992,11.244333 55.1693342,11.176667 54.992,11.102 C54.7773323,11.0179996 54.5626677,10.9200006 54.348,10.808 C54.1333323,10.6959994 53.9373342,10.5583341 53.76,10.395 C53.5826658,10.2316658 53.4380006,10.0403344 53.326,9.821 C53.2139994,9.60166557 53.158,9.34733478 53.158,9.058 C53.158,8.74066508 53.2209994,8.44666802 53.347,8.176 C53.4730006,7.90533198 53.6526655,7.6766676 53.886,7.49 C54.1193345,7.3033324 54.3993317,7.15633387 54.726,7.049 C55.0526683,6.94166613 55.4166647,6.888 55.818,6.888 C56.3500027,6.888 56.8166647,6.97899909 57.218,7.161 C57.6193353,7.34300091 57.9693318,7.54599888 58.268,7.77 L57.344,9.002 C57.0919987,8.8153324 56.8446679,8.67066718 56.602,8.568 C56.3593321,8.46533282 56.1166679,8.414 55.874,8.414 C55.3513307,8.414 55.09,8.59599818 55.09,8.96 C55.09,9.07200056 55.127333,9.16766627 55.202,9.247 C55.276667,9.32633373 55.3769994,9.39866634 55.503,9.464 C55.6290006,9.52933366 55.7736658,9.59233303 55.937,9.653 C56.1003341,9.71366697 56.2706658,9.77666634 56.448,9.842 C56.6720011,9.92600042 56.8936656,10.0216661 57.113,10.129 C57.3323344,10.2363339 57.5329991,10.3693325 57.715,10.528 C57.8970009,10.6866675 58.0439994,10.8803322 58.156,11.109 C58.2680006,11.3376678 58.324,11.6106651 58.324,11.928 C58.324,12.2453349 58.2633339,12.539332 58.142,12.81 C58.0206661,13.080668 57.8386679,13.3163323 57.596,13.517 C57.3533321,13.7176677 57.0546684,13.8763327 56.7,13.993 C56.3453316,14.1096673 55.934669,14.168 55.468,14.168 C55.0106644,14.168 54.5416691,14.0793342 54.061,13.902 C53.5803309,13.7246658 53.1626684,13.4913348 52.808,13.202 L53.732,11.914 Z" id="Solutions" fill="#FFFFFF"></path>
                <path d="M1.5,30 L57.5089279,30" id="Line" stroke="#FFFFFF" stroke-width="4" stroke-linecap="square"></path>
            </g>
            <rect id="Rectangle-3" fill="#5F5F5F" x="406" y="90" width="194" height="128"></rect>
            <g id="Group-3" transform="translate(470.000000, 136.000000)">
                <path d="M0.644,9.492 C0.644,8.73599622 0.7606655,8.06166963 0.994,7.469 C1.2273345,6.87633037 1.54233135,6.37466872 1.939,5.964 C2.33566865,5.55333128 2.79766403,5.24066774 3.325,5.026 C3.85233597,4.81133226 4.40999706,4.704 4.998,4.704 C5.56733618,4.704 6.08299769,4.82299881 6.545,5.061 C7.00700231,5.29900119 7.39199846,5.57666508 7.7,5.894 L6.566,7.168 C6.3326655,6.95333226 6.09700119,6.78533394 5.859,6.664 C5.62099881,6.54266606 5.34333492,6.482 5.026,6.482 C4.70866508,6.482 4.41233471,6.54966599 4.137,6.685 C3.86166529,6.82033401 3.62133436,7.01399874 3.416,7.266 C3.21066564,7.51800126 3.04966725,7.82599818 2.933,8.19 C2.81633275,8.55400182 2.758,8.96466438 2.758,9.422 C2.758,10.3646714 2.95866466,11.0949974 3.36,11.613 C3.76133534,12.1310026 4.29799664,12.39 4.97,12.39 C5.3433352,12.39 5.6699986,12.3153341 5.95,12.166 C6.2300014,12.0166659 6.48199888,11.8206679 6.706,11.578 L7.84,12.824 C7.45733142,13.2720022 7.02100245,13.6079989 6.531,13.832 C6.04099755,14.0560011 5.51133618,14.168 4.942,14.168 C4.35399706,14.168 3.79866928,14.0676677 3.276,13.867 C2.75333072,13.6663323 2.29600196,13.370002 1.904,12.978 C1.51199804,12.585998 1.20400112,12.0983362 0.98,11.515 C0.75599888,10.9316638 0.644,10.2573372 0.644,9.492 Z M8.652,10.528 C8.652,9.94933044 8.7453324,9.43366893 8.932,8.981 C9.1186676,8.52833107 9.36833177,8.14800154 9.681,7.84 C9.99366823,7.53199846 10.3553313,7.29633415 10.766,7.133 C11.1766687,6.96966585 11.6013311,6.888 12.04,6.888 C12.4786689,6.888 12.900998,6.96966585 13.307,7.133 C13.713002,7.29633415 14.0723318,7.53199846 14.385,7.84 C14.6976682,8.14800154 14.9473324,8.52833107 15.134,8.981 C15.3206676,9.43366893 15.414,9.94933044 15.414,10.528 C15.414,11.1066696 15.3206676,11.6223311 15.134,12.075 C14.9473324,12.5276689 14.6976682,12.9079985 14.385,13.216 C14.0723318,13.5240015 13.713002,13.7596659 13.307,13.923 C12.900998,14.0863341 12.4786689,14.168 12.04,14.168 C11.6013311,14.168 11.1766687,14.0863341 10.766,13.923 C10.3553313,13.7596659 9.99366823,13.5240015 9.681,13.216 C9.36833177,12.9079985 9.1186676,12.5276689 8.932,12.075 C8.7453324,11.6223311 8.652,11.1066696 8.652,10.528 Z M10.766,10.528 C10.766,11.1346697 10.870999,11.6153316 11.081,11.97 C11.2910011,12.3246684 11.6106645,12.502 12.04,12.502 C12.4600021,12.502 12.7773323,12.3246684 12.992,11.97 C13.2066677,11.6153316 13.314,11.1346697 13.314,10.528 C13.314,9.9213303 13.2066677,9.44066844 12.992,9.086 C12.7773323,8.73133156 12.4600021,8.554 12.04,8.554 C11.6106645,8.554 11.2910011,8.73133156 11.081,9.086 C10.870999,9.44066844 10.766,9.9213303 10.766,10.528 Z M16.828,7.056 L18.508,7.056 L18.648,7.938 L18.704,7.938 C19.0026682,7.6579986 19.3293316,7.41300105 19.684,7.203 C20.0386684,6.99299895 20.4539976,6.888 20.93,6.888 C21.6860038,6.888 22.2343316,7.13533086 22.575,7.63 C22.9156684,8.12466914 23.086,8.81066228 23.086,9.688 L23.086,14 L21.028,14 L21.028,9.954 C21.028,9.44999748 20.960334,9.1046676 20.825,8.918 C20.689666,8.7313324 20.4726682,8.638 20.174,8.638 C19.9126654,8.638 19.6886676,8.69633275 19.502,8.813 C19.3153324,8.92966725 19.1100011,9.09533226 18.886,9.31 L18.886,14 L16.828,14 L16.828,7.056 Z M25.116,8.666 L24.164,8.666 L24.164,7.14 L25.228,7.056 L25.466,5.208 L27.174,5.208 L27.174,7.056 L28.84,7.056 L28.84,8.666 L27.174,8.666 L27.174,11.452 C27.174,11.844002 27.2556658,12.1263325 27.419,12.299 C27.5823341,12.4716675 27.799332,12.558 28.07,12.558 C28.1820006,12.558 28.2963327,12.5440001 28.413,12.516 C28.5296672,12.4879999 28.6346662,12.4553335 28.728,12.418 L29.05,13.916 C28.8633324,13.9720003 28.6440013,14.0279997 28.392,14.084 C28.1399987,14.1400003 27.8460017,14.168 27.51,14.168 C27.0806645,14.168 26.7143349,14.1026673 26.411,13.972 C26.1076651,13.8413327 25.8603343,13.6593345 25.669,13.426 C25.4776657,13.1926655 25.3376671,12.910335 25.249,12.579 C25.1603329,12.247665 25.116,11.8813353 25.116,11.48 L25.116,8.666 Z M29.946,12.068 C29.946,11.3399964 30.2539969,10.7706687 30.87,10.36 C31.4860031,9.94933128 32.4799931,9.6740007 33.852,9.534 C33.8333332,9.22599846 33.7400008,8.98100091 33.572,8.799 C33.4039992,8.61699909 33.1333352,8.526 32.76,8.526 C32.4613318,8.526 32.1626682,8.58199944 31.864,8.694 C31.5653318,8.80600056 31.2480017,8.95999902 30.912,9.156 L30.184,7.798 C30.6320022,7.52733198 31.1009976,7.30800084 31.591,7.14 C32.0810025,6.97199916 32.6013306,6.888 33.152,6.888 C34.0480045,6.888 34.7316643,7.14233079 35.203,7.651 C35.6743357,8.15966921 35.91,8.9506613 35.91,10.024 L35.91,14 L34.23,14 L34.076,13.286 L34.034,13.286 C33.7353318,13.5473346 33.420335,13.7596659 33.089,13.923 C32.757665,14.0863341 32.396002,14.168 32.004,14.168 C31.6866651,14.168 31.4020013,14.1143339 31.15,14.007 C30.8979987,13.8996661 30.6833342,13.7503343 30.506,13.559 C30.3286658,13.3676657 30.1910005,13.1460013 30.093,12.894 C29.9949995,12.6419987 29.946,12.3666682 29.946,12.068 Z M31.906,11.914 C31.906,12.1380011 31.9783326,12.3036661 32.123,12.411 C32.2676674,12.5183339 32.4613321,12.572 32.704,12.572 C32.9466679,12.572 33.1519992,12.5206672 33.32,12.418 C33.4880008,12.3153328 33.6653324,12.1706676 33.852,11.984 L33.852,10.766 C33.114663,10.8686672 32.6060014,11.017999 32.326,11.214 C32.0459986,11.410001 31.906,11.643332 31.906,11.914 Z M37.268,10.528 C37.268,9.94933044 37.365999,9.43366893 37.562,8.981 C37.758001,8.52833107 38.021665,8.14800154 38.353,7.84 C38.684335,7.53199846 39.0693311,7.29633415 39.508,7.133 C39.9466689,6.96966585 40.4039976,6.888 40.88,6.888 C41.3093355,6.888 41.6966649,6.96033261 42.042,7.105 C42.3873351,7.24966739 42.6766655,7.44333212 42.91,7.686 L41.972,8.96 C41.6453317,8.68933198 41.3233349,8.554 41.006,8.554 C40.5019975,8.554 40.1053348,8.73133156 39.816,9.086 C39.5266652,9.44066844 39.382,9.9213303 39.382,10.528 C39.382,11.1346697 39.5289985,11.6153316 39.823,11.97 C40.1170015,12.3246684 40.4879978,12.502 40.936,12.502 C41.1880013,12.502 41.4166656,12.4506672 41.622,12.348 C41.8273344,12.2453328 42.0139992,12.1286673 42.182,11.998 L43.008,13.3 C42.6719983,13.5986682 42.2986687,13.8179993 41.888,13.958 C41.4773313,14.0980007 41.0806686,14.168 40.698,14.168 C40.2126642,14.168 39.7623354,14.0863341 39.347,13.923 C38.9316646,13.7596659 38.5700015,13.5240015 38.262,13.216 C37.9539985,12.9079985 37.7113342,12.5276689 37.534,12.075 C37.3566658,11.6223311 37.268,11.1066696 37.268,10.528 Z M44.492,8.666 L43.54,8.666 L43.54,7.14 L44.604,7.056 L44.842,5.208 L46.55,5.208 L46.55,7.056 L48.216,7.056 L48.216,8.666 L46.55,8.666 L46.55,11.452 C46.55,11.844002 46.6316659,12.1263325 46.795,12.299 C46.9583342,12.4716675 47.175332,12.558 47.446,12.558 C47.5580006,12.558 47.6723328,12.5440001 47.789,12.516 C47.9056673,12.4879999 48.0106662,12.4553335 48.104,12.418 L48.426,13.916 C48.2393324,13.9720003 48.0200013,14.0279997 47.768,14.084 C47.5159987,14.1400003 47.2220017,14.168 46.886,14.168 C46.4566645,14.168 46.0903349,14.1026673 45.787,13.972 C45.4836652,13.8413327 45.2363343,13.6593345 45.045,13.426 C44.8536657,13.1926655 44.7136671,12.910335 44.625,12.579 C44.5363329,12.247665 44.492,11.8813353 44.492,11.48 L44.492,8.666 Z M52.416,7.056 L54.474,7.056 L54.474,11.102 C54.474,11.6060025 54.5439993,11.9513324 54.684,12.138 C54.8240007,12.3246676 55.0433318,12.418 55.342,12.418 C55.6033346,12.418 55.8226658,12.3573339 56,12.236 C56.1773342,12.1146661 56.3686656,11.918668 56.574,11.648 L56.574,7.056 L58.632,7.056 L58.632,14 L56.952,14 L56.798,13.034 L56.756,13.034 C56.4573318,13.3886684 56.1376684,13.6663323 55.797,13.867 C55.4563316,14.0676677 55.0480024,14.168 54.572,14.168 C53.8159962,14.168 53.2676684,13.9206691 52.927,13.426 C52.5863316,12.9313309 52.416,12.2453377 52.416,11.368 L52.416,7.056 Z M60.746,11.914 C61.0633349,12.1566679 61.3666652,12.3386661 61.656,12.46 C61.9453348,12.5813339 62.2393318,12.642 62.538,12.642 C62.8460015,12.642 63.0699993,12.5906672 63.21,12.488 C63.3500007,12.3853328 63.42,12.2406676 63.42,12.054 C63.42,11.9419994 63.3803337,11.8416671 63.301,11.753 C63.2216663,11.6643329 63.114334,11.582667 62.979,11.508 C62.843666,11.433333 62.6920008,11.365667 62.524,11.305 C62.3559992,11.244333 62.1833342,11.176667 62.006,11.102 C61.7913323,11.0179996 61.5766677,10.9200006 61.362,10.808 C61.1473323,10.6959994 60.9513342,10.5583341 60.774,10.395 C60.5966658,10.2316658 60.4520006,10.0403344 60.34,9.821 C60.2279994,9.60166557 60.172,9.34733478 60.172,9.058 C60.172,8.74066508 60.2349994,8.44666802 60.361,8.176 C60.4870006,7.90533198 60.6666655,7.6766676 60.9,7.49 C61.1333345,7.3033324 61.4133317,7.15633387 61.74,7.049 C62.0666683,6.94166613 62.4306647,6.888 62.832,6.888 C63.3640027,6.888 63.8306647,6.97899909 64.232,7.161 C64.6333353,7.34300091 64.9833318,7.54599888 65.282,7.77 L64.358,9.002 C64.1059987,8.8153324 63.8586679,8.67066718 63.616,8.568 C63.3733321,8.46533282 63.1306679,8.414 62.888,8.414 C62.3653307,8.414 62.104,8.59599818 62.104,8.96 C62.104,9.07200056 62.141333,9.16766627 62.216,9.247 C62.290667,9.32633373 62.3909994,9.39866634 62.517,9.464 C62.6430006,9.52933366 62.7876659,9.59233303 62.951,9.653 C63.1143342,9.71366697 63.2846658,9.77666634 63.462,9.842 C63.6860011,9.92600042 63.9076656,10.0216661 64.127,10.129 C64.3463344,10.2363339 64.5469991,10.3693325 64.729,10.528 C64.9110009,10.6866675 65.0579994,10.8803322 65.17,11.109 C65.2820006,11.3376678 65.338,11.6106651 65.338,11.928 C65.338,12.2453349 65.2773339,12.539332 65.156,12.81 C65.0346661,13.080668 64.8526679,13.3163323 64.61,13.517 C64.3673321,13.7176677 64.0686684,13.8763327 63.714,13.993 C63.3593316,14.1096673 62.948669,14.168 62.482,14.168 C62.0246644,14.168 61.5556691,14.0793342 61.075,13.902 C60.5943309,13.7246658 60.1766684,13.4913348 59.822,13.202 L60.746,11.914 Z" id="Contact-us" fill="#FFFFFF"></path>
                <path d="M4.5,30 L60.5089279,30" id="Line" stroke="#FFFFFF" stroke-width="4" stroke-linecap="square"></path>
            </g>
            <rect id="Rectangle-3" fill="#5F5F5F" x="203" y="90" width="194" height="128"></rect>
            <g id="Group-3" transform="translate(271.000000, 139.000000)">
                <path d="M4.666,8.438 C4.9926683,8.7180014 5.35433135,8.94666578 5.751,9.124 C6.14766865,9.30133422 6.53733142,9.39 6.92,9.39 C7.34933548,9.39 7.66899895,9.31066746 7.879,9.152 C8.08900105,8.99333254 8.194,8.77866802 8.194,8.508 C8.194,8.3679993 8.16366697,8.24666718 8.103,8.144 C8.04233303,8.04133282 7.95366725,7.95033373 7.837,7.871 C7.72033275,7.79166627 7.58033415,7.71700035 7.417,7.647 L6.878,7.416 L5.688,6.912 C5.4546655,6.8186662 5.22833443,6.69733408 5.009,6.548 C4.78966557,6.39866592 4.59366753,6.22366767 4.421,6.023 C4.24833247,5.82233233 4.11066718,5.58900133 4.008,5.323 C3.90533282,5.05699867 3.854,4.75600168 3.854,4.42 C3.854,4.0466648 3.93333254,3.69433499 4.092,3.363 C4.25066746,3.03166501 4.47466522,2.74233457 4.764,2.495 C5.05333478,2.24766543 5.39633135,2.0540007 5.793,1.914 C6.18966865,1.7739993 6.62599762,1.704 7.102,1.704 C7.63400266,1.704 8.15899741,1.80666564 8.677,2.012 C9.19500259,2.21733436 9.64999804,2.51599804 10.042,2.908 L8.992,4.21 C8.69333184,3.9766655 8.39466816,3.79700063 8.096,3.671 C7.79733184,3.54499937 7.46600182,3.482 7.102,3.482 C6.74733156,3.482 6.46500105,3.55433261 6.255,3.699 C6.04499895,3.84366739 5.94,4.04666536 5.94,4.308 C5.94,4.4480007 5.97499965,4.56699951 6.045,4.665 C6.11500035,4.76300049 6.21299937,4.85166627 6.339,4.931 C6.46500063,5.01033373 6.61199916,5.08499965 6.78,5.155 C6.94800084,5.22500035 7.12999902,5.30199958 7.326,5.386 L8.502,5.862 C9.0620028,6.08600112 9.50299839,6.39399804 9.825,6.786 C10.1470016,7.17800196 10.308,7.69599678 10.308,8.34 C10.308,8.72266858 10.2310008,9.08433163 10.077,9.425 C9.92299923,9.76566837 9.69900147,10.0643321 9.405,10.321 C9.11099853,10.577668 8.74933548,10.7829992 8.32,10.937 C7.89066452,11.0910008 7.40533604,11.168 6.864,11.168 C6.26666368,11.168 5.67166963,11.0583344 5.079,10.839 C4.48633037,10.6196656 3.956669,10.2906689 3.49,9.852 L4.666,8.438 Z M11.288,7.528 C11.288,6.9679972 11.3813324,6.46166893 11.568,6.009 C11.7546676,5.55633107 11.9996652,5.17366823 12.303,4.861 C12.6063348,4.54833177 12.953998,4.30800084 13.346,4.14 C13.738002,3.97199916 14.1439979,3.888 14.564,3.888 C15.0586691,3.888 15.4903315,3.97199916 15.859,4.14 C16.2276685,4.30800084 16.5356654,4.54133184 16.783,4.84 C17.0303346,5.13866816 17.2146661,5.49099797 17.336,5.897 C17.4573339,6.30300203 17.518,6.74399762 17.518,7.22 C17.518,7.4066676 17.5086668,7.57699923 17.49,7.731 C17.4713332,7.88500077 17.4526668,8.00399958 17.434,8.088 L13.276,8.088 C13.3693338,8.62000266 13.5769984,9.00499881 13.899,9.243 C14.2210016,9.48100119 14.615331,9.6 15.082,9.6 C15.5766691,9.6 16.0759975,9.44600154 16.58,9.138 L17.266,10.384 C16.9113316,10.6266679 16.5170022,10.8179993 16.083,10.958 C15.6489978,11.0980007 15.2220021,11.168 14.802,11.168 C14.3073309,11.168 13.8453355,11.0863342 13.416,10.923 C12.9866645,10.7596659 12.6133349,10.5216682 12.296,10.209 C11.9786651,9.89633177 11.7313342,9.51600224 11.554,9.068 C11.3766658,8.61999776 11.288,8.10666956 11.288,7.528 Z M15.768,6.814 C15.768,6.41266466 15.6793342,6.08600126 15.502,5.834 C15.3246658,5.58199874 15.0260021,5.456 14.606,5.456 C14.2793317,5.456 13.9923346,5.56566557 13.745,5.785 C13.4976654,6.00433443 13.336667,6.347331 13.262,6.814 L15.768,6.814 Z M18.946,4.056 L20.626,4.056 L20.766,5.274 L20.822,5.274 C21.0740013,4.79799762 21.3773316,4.44800112 21.732,4.224 C22.0866684,3.99999888 22.4413316,3.888 22.796,3.888 C22.992001,3.888 23.1529994,3.89966655 23.279,3.923 C23.4050006,3.94633345 23.5193328,3.9813331 23.622,4.028 L23.286,5.806 C23.1553327,5.76866648 23.0340006,5.74066676 22.922,5.722 C22.8099994,5.70333324 22.6793341,5.694 22.53,5.694 C22.2686654,5.694 21.9956681,5.7873324 21.711,5.974 C21.4263319,6.1606676 21.1906676,6.49199762 21.004,6.968 L21.004,11 L18.946,11 L18.946,4.056 Z M23.776,4.056 L25.848,4.056 L26.744,7.332 C26.8373338,7.67733506 26.9283329,8.02966487 27.017,8.389 C27.1056671,8.74833513 27.1966662,9.10999818 27.29,9.474 L27.346,9.474 C27.4300004,9.10999818 27.5163329,8.74833513 27.605,8.389 C27.6936671,8.02966487 27.7846662,7.67733506 27.878,7.332 L28.788,4.056 L30.762,4.056 L28.494,11 L26.114,11 L23.776,4.056 Z M32.862,3.034 C32.5166649,3.034 32.2320011,2.93366767 32.008,2.733 C31.7839989,2.53233233 31.672,2.27333492 31.672,1.956 C31.672,1.63866508 31.7839989,1.38200098 32.008,1.186 C32.2320011,0.98999902 32.5166649,0.892 32.862,0.892 C33.2166684,0.892 33.5036656,0.98999902 33.723,1.186 C33.9423344,1.38200098 34.052,1.63866508 34.052,1.956 C34.052,2.27333492 33.9423344,2.53233233 33.723,2.733 C33.5036656,2.93366767 33.2166684,3.034 32.862,3.034 Z M31.84,4.056 L33.898,4.056 L33.898,11 L31.84,11 L31.84,4.056 Z M35.298,7.528 C35.298,6.94933044 35.395999,6.43366893 35.592,5.981 C35.788001,5.52833107 36.051665,5.14800154 36.383,4.84 C36.714335,4.53199846 37.0993311,4.29633415 37.538,4.133 C37.9766689,3.96966585 38.4339976,3.888 38.91,3.888 C39.3393355,3.888 39.7266649,3.96033261 40.072,4.105 C40.4173351,4.24966739 40.7066655,4.44333212 40.94,4.686 L40.002,5.96 C39.6753317,5.68933198 39.3533349,5.554 39.036,5.554 C38.5319975,5.554 38.1353348,5.73133156 37.846,6.086 C37.5566652,6.44066844 37.412,6.9213303 37.412,7.528 C37.412,8.1346697 37.5589985,8.61533156 37.853,8.97 C38.1470015,9.32466844 38.5179978,9.502 38.966,9.502 C39.2180013,9.502 39.4466656,9.45066718 39.652,9.348 C39.8573344,9.24533282 40.0439992,9.12866732 40.212,8.998 L41.038,10.3 C40.7019983,10.5986682 40.3286687,10.8179993 39.918,10.958 C39.5073313,11.0980007 39.1106686,11.168 38.728,11.168 C38.2426642,11.168 37.7923354,11.0863342 37.377,10.923 C36.9616646,10.7596659 36.6000015,10.5240015 36.292,10.216 C35.9839985,9.90799846 35.7413342,9.52766893 35.564,9.075 C35.3866658,8.62233107 35.298,8.10666956 35.298,7.528 Z M41.836,7.528 C41.836,6.9679972 41.9293324,6.46166893 42.116,6.009 C42.3026676,5.55633107 42.5476652,5.17366823 42.851,4.861 C43.1543348,4.54833177 43.501998,4.30800084 43.894,4.14 C44.286002,3.97199916 44.6919979,3.888 45.112,3.888 C45.6066691,3.888 46.0383315,3.97199916 46.407,4.14 C46.7756685,4.30800084 47.0836654,4.54133184 47.331,4.84 C47.5783346,5.13866816 47.7626661,5.49099797 47.884,5.897 C48.0053339,6.30300203 48.066,6.74399762 48.066,7.22 C48.066,7.4066676 48.0566668,7.57699923 48.038,7.731 C48.0193332,7.88500077 48.0006668,8.00399958 47.982,8.088 L43.824,8.088 C43.9173338,8.62000266 44.1249984,9.00499881 44.447,9.243 C44.7690016,9.48100119 45.163331,9.6 45.63,9.6 C46.1246691,9.6 46.6239975,9.44600154 47.128,9.138 L47.814,10.384 C47.4593316,10.6266679 47.0650022,10.8179993 46.631,10.958 C46.1969978,11.0980007 45.7700021,11.168 45.35,11.168 C44.8553309,11.168 44.3933355,11.0863342 43.964,10.923 C43.5346645,10.7596659 43.1613349,10.5216682 42.844,10.209 C42.5266651,9.89633177 42.2793342,9.51600224 42.102,9.068 C41.9246658,8.61999776 41.836,8.10666956 41.836,7.528 Z M46.316,6.814 C46.316,6.41266466 46.2273342,6.08600126 46.05,5.834 C45.8726658,5.58199874 45.5740021,5.456 45.154,5.456 C44.8273317,5.456 44.5403346,5.56566557 44.293,5.785 C44.0456654,6.00433443 43.884667,6.347331 43.81,6.814 L46.316,6.814 Z M49.802,8.914 C50.1193349,9.15666788 50.4226652,9.33866606 50.712,9.46 C51.0013348,9.58133394 51.2953318,9.642 51.594,9.642 C51.9020015,9.642 52.1259993,9.59066718 52.266,9.488 C52.4060007,9.38533282 52.476,9.2406676 52.476,9.054 C52.476,8.94199944 52.4363337,8.84166711 52.357,8.753 C52.2776663,8.66433289 52.170334,8.58266704 52.035,8.508 C51.899666,8.43333296 51.7480008,8.36566697 51.58,8.305 C51.4119992,8.24433303 51.2393342,8.17666704 51.062,8.102 C50.8473323,8.01799958 50.6326677,7.92000056 50.418,7.808 C50.2033323,7.69599944 50.0073342,7.55833415 49.83,7.395 C49.6526658,7.23166585 49.5080006,7.04033443 49.396,6.821 C49.2839994,6.60166557 49.228,6.34733478 49.228,6.058 C49.228,5.74066508 49.2909994,5.44666802 49.417,5.176 C49.5430006,4.90533198 49.7226655,4.6766676 49.956,4.49 C50.1893345,4.3033324 50.4693317,4.15633387 50.796,4.049 C51.1226683,3.94166613 51.4866647,3.888 51.888,3.888 C52.4200027,3.888 52.8866647,3.97899909 53.288,4.161 C53.6893353,4.34300091 54.0393318,4.54599888 54.338,4.77 L53.414,6.002 C53.1619987,5.8153324 52.9146679,5.67066718 52.672,5.568 C52.4293321,5.46533282 52.1866679,5.414 51.944,5.414 C51.4213307,5.414 51.16,5.59599818 51.16,5.96 C51.16,6.07200056 51.197333,6.16766627 51.272,6.247 C51.346667,6.32633373 51.4469994,6.39866634 51.573,6.464 C51.6990006,6.52933366 51.8436659,6.59233303 52.007,6.653 C52.1703342,6.71366697 52.3406658,6.77666634 52.518,6.842 C52.7420011,6.92600042 52.9636656,7.02166613 53.183,7.129 C53.4023344,7.23633387 53.6029991,7.36933254 53.785,7.528 C53.9670009,7.68666746 54.1139994,7.88033219 54.226,8.109 C54.3380006,8.33766781 54.394,8.61066508 54.394,8.928 C54.394,9.24533492 54.3333339,9.53933198 54.212,9.81 C54.0906661,10.080668 53.9086679,10.3163323 53.666,10.517 C53.4233321,10.7176677 53.1246684,10.8763328 52.77,10.993 C52.4153316,11.1096673 52.004669,11.168 51.538,11.168 C51.0806644,11.168 50.6116691,11.0793342 50.131,10.902 C49.6503309,10.7246658 49.2326684,10.4913348 48.878,10.202 L49.802,8.914 Z" id="Services" fill="#FFFFFF"></path>
                <path d="M0.5,27 L56.5089279,27" id="Line" stroke="#FFFFFF" stroke-width="4" stroke-linecap="square"></path>
            </g>
        </g>
    </g>
</svg>