<?xml version="1.0" encoding="UTF-8"?>
<svg width="600px" height="232px" viewBox="0 0 600 232" version="1.1" xmlns="http://www.w3.org/2000/svg" xmlns:xlink="http://www.w3.org/1999/xlink">
    <!-- Generator: Sketch 44.1 (41455) - http://www.bohemiancoding.com/sketch -->
    <title>imageboxes08</title>
    <desc>Created with Sketch.</desc>
    <defs></defs>
    <g id="Imageboxes" stroke="none" stroke-width="1" fill="none" fill-rule="evenodd">
        <g id="08">
            <rect id="Rectangle-7" fill="#6A6A6A" x="0" y="0" width="294" height="232"></rect>
            <g id="Group-6" transform="translate(18.000000, 86.000000)">
                <path d="M1.463,1.612 L4.256,1.612 L4.256,14 L1.463,14 L1.463,1.612 Z M6.954,4.576 L9.234,4.576 L9.424,5.792 L9.5,5.792 C9.89266863,5.39933137 10.3106644,5.06050142 10.754,4.7755 C11.1973356,4.49049857 11.7293302,4.348 12.35,4.348 C13.0213367,4.348 13.5628313,4.4841653 13.9745,4.7565 C14.3861687,5.0288347 14.7123321,5.4183308 14.953,5.925 C15.3710021,5.49433118 15.8111644,5.12383489 16.2735,4.8135 C16.7358356,4.50316512 17.2836635,4.348 17.917,4.348 C18.9303384,4.348 19.6744976,4.68682995 20.1495,5.3645 C20.6245024,6.04217006 20.862,6.96999411 20.862,8.148 L20.862,14 L18.069,14 L18.069,8.509 C18.069,7.82499658 17.9771676,7.3563346 17.7935,7.103 C17.6098324,6.8496654 17.3153354,6.723 16.91,6.723 C16.441331,6.723 15.903003,7.02699696 15.295,7.635 L15.295,14 L12.502,14 L12.502,8.509 C12.502,7.82499658 12.4101676,7.3563346 12.2265,7.103 C12.0428324,6.8496654 11.7483354,6.723 11.343,6.723 C10.8616643,6.723 10.3296696,7.02699696 9.747,7.635 L9.747,14 L6.954,14 L6.954,4.576 Z M22.895,11.378 C22.895,10.3899951 23.3129958,9.61733612 24.149,9.06 C24.9850042,8.50266388 26.3339907,8.12900095 28.196,7.939 C28.1706665,7.52099791 28.0440011,7.18850123 27.816,6.9415 C27.5879989,6.69449876 27.2206692,6.571 26.714,6.571 C26.3086646,6.571 25.9033354,6.64699924 25.498,6.799 C25.0926646,6.95100076 24.6620023,7.15999867 24.206,7.426 L23.218,5.583 C23.826003,5.21566483 24.4624967,4.91800114 25.1275,4.69 C25.7925033,4.46199886 26.4986629,4.348 27.246,4.348 C28.4620061,4.348 29.3898301,4.69316321 30.0295,5.3835 C30.6691699,6.07383678 30.989,7.14732605 30.989,8.604 L30.989,14 L28.709,14 L28.5,13.031 L28.443,13.031 C28.0376646,13.3856684 27.6101689,13.6738322 27.1605,13.8955 C26.7108311,14.1171678 26.2200027,14.228 25.688,14.228 C25.2573312,14.228 24.8710017,14.1551674 24.529,14.0095 C24.1869983,13.8638326 23.8956679,13.661168 23.655,13.4015 C23.4143321,13.141832 23.2275007,12.8410017 23.0945,12.499 C22.9614993,12.1569983 22.895,11.7833354 22.895,11.378 Z M25.555,11.169 C25.555,11.4730015 25.6531657,11.6978326 25.8495,11.8435 C26.0458343,11.9891674 26.308665,12.062 26.638,12.062 C26.967335,12.062 27.2459989,11.992334 27.474,11.853 C27.7020011,11.713666 27.9426654,11.5173346 28.196,11.264 L28.196,9.611 C27.1953283,9.75033403 26.5050019,9.95299867 26.125,10.219 C25.7449981,10.4850013 25.555,10.8016648 25.555,11.169 Z M35.093,15.178 C35.093,15.5326684 35.2829981,15.8018324 35.663,15.9855 C36.0430019,16.1691676 36.5496635,16.261 37.183,16.261 C37.8163365,16.261 38.3356646,16.1501678 38.741,15.9285 C39.1463354,15.7068322 39.349,15.431335 39.349,15.102 C39.349,14.8106652 39.2255012,14.6143338 38.9785,14.513 C38.7314988,14.4116662 38.373669,14.361 37.905,14.361 L36.936,14.361 C36.606665,14.361 36.3406677,14.3515001 36.138,14.3325 C35.9353323,14.3134999 35.7580008,14.2850002 35.606,14.247 C35.2639983,14.5510015 35.093,14.8613317 35.093,15.178 Z M32.794,15.615 C32.794,14.8549962 33.2436622,14.2216692 34.143,13.715 L34.143,13.639 C33.8896654,13.4743325 33.6806675,13.2653346 33.516,13.012 C33.3513325,12.7586654 33.269,12.4356686 33.269,12.043 C33.269,11.7009983 33.3703323,11.3748349 33.573,11.0645 C33.7756677,10.7541651 34.0289985,10.4913344 34.333,10.276 L34.333,10.2 C34.003665,9.97199886 33.709168,9.64583545 33.4495,9.2215 C33.189832,8.79716455 33.06,8.30633612 33.06,7.749 C33.06,7.17899715 33.1676656,6.68183546 33.383,6.2575 C33.5983344,5.83316454 33.8864982,5.47850143 34.2475,5.1935 C34.6085018,4.90849858 35.023331,4.69633403 35.492,4.557 C35.960669,4.41766597 36.4483308,4.348 36.955,4.348 C37.5123361,4.348 37.9999979,4.42399924 38.418,4.576 L41.857,4.576 L41.857,6.609 L40.356,6.609 C40.4446671,6.74833403 40.5174997,6.92566559 40.5745,7.141 C40.6315003,7.35633441 40.66,7.5906654 40.66,7.844 C40.66,8.38866939 40.565001,8.860498 40.375,9.2595 C40.184999,9.65850199 39.9221683,9.98783203 39.5865,10.2475 C39.2508317,10.507168 38.8581689,10.7003327 38.4085,10.827 C37.9588311,10.9536673 37.4743359,11.017 36.955,11.017 C36.5876648,11.017 36.2076686,10.9536673 35.815,10.827 C35.6883327,10.9283338 35.5996669,11.0296662 35.549,11.131 C35.4983331,11.2323338 35.473,11.3653325 35.473,11.53 C35.473,11.7706679 35.577499,11.9479994 35.7865,12.062 C35.995501,12.1760006 36.3659973,12.233 36.898,12.233 L38.418,12.233 C39.5833392,12.233 40.4731636,12.4198315 41.0875,12.7935 C41.7018364,13.1671685 42.009,13.7783291 42.009,14.627 C42.009,15.1210025 41.8855012,15.5738313 41.6385,15.9855 C41.3914988,16.3971687 41.0400023,16.7518318 40.584,17.0495 C40.1279977,17.3471682 39.5770032,17.5814991 38.931,17.7525 C38.2849968,17.9235009 37.5566707,18.009 36.746,18.009 C36.1886639,18.009 35.6725024,17.9615005 35.1975,17.8665 C34.7224976,17.7714995 34.3045018,17.6290009 33.9435,17.439 C33.5824982,17.248999 33.3006677,17.0020015 33.098,16.698 C32.8953323,16.3939985 32.794,16.0330021 32.794,15.615 Z M36.955,9.326 C37.3223352,9.326 37.6294988,9.19616796 37.8765,8.9365 C38.1235012,8.67683204 38.247,8.28100266 38.247,7.749 C38.247,7.25499753 38.1235012,6.87816797 37.8765,6.6185 C37.6294988,6.35883203 37.3223352,6.229 36.955,6.229 C36.5876648,6.229 36.2805012,6.3556654 36.0335,6.609 C35.7864988,6.8623346 35.663,7.2423308 35.663,7.749 C35.663,8.28100266 35.7864988,8.67683204 36.0335,8.9365 C36.2805012,9.19616796 36.5876648,9.326 36.955,9.326 Z M42.636,9.288 C42.636,8.5279962 42.7626654,7.84083641 43.016,7.2265 C43.2693346,6.61216359 43.6018313,6.09283546 44.0135,5.6685 C44.4251687,5.24416454 44.8969973,4.91800114 45.429,4.69 C45.9610027,4.46199886 46.5119971,4.348 47.082,4.348 C47.7533367,4.348 48.3391642,4.46199886 48.8395,4.69 C49.3398358,4.91800114 49.7578317,5.23466464 50.0935,5.64 C50.4291683,6.04533536 50.6793325,6.52349724 50.844,7.0745 C51.0086675,7.62550276 51.091,8.22399677 51.091,8.87 C51.091,9.1233346 51.0783335,9.35449896 51.053,9.5635 C51.0276665,9.77250104 51.0023335,9.93399943 50.977,10.048 L45.334,10.048 C45.4606673,10.7700036 45.7424978,11.2924984 46.1795,11.6155 C46.6165022,11.9385016 47.1516635,12.1 47.785,12.1 C48.4563367,12.1 49.1339966,11.8910021 49.818,11.473 L50.749,13.164 C50.2676643,13.493335 49.7325029,13.7529991 49.1435,13.943 C48.5544971,14.133001 47.9750029,14.228 47.405,14.228 C46.7336633,14.228 46.1066696,14.1171678 45.524,13.8955 C44.9413304,13.6738322 44.4346688,13.3508355 44.004,12.9265 C43.5733312,12.5021645 43.2376679,11.986003 42.997,11.378 C42.7563321,10.769997 42.636,10.0733373 42.636,9.288 Z M48.716,8.319 C48.716,7.77433061 48.5956679,7.33100171 48.355,6.989 C48.1143321,6.64699829 47.7090029,6.476 47.139,6.476 C46.6956644,6.476 46.3061683,6.62483184 45.9705,6.9225 C45.6348317,7.22016816 45.4163338,7.6856635 45.315,8.319 L48.716,8.319 Z M53.029,0.681 L55.822,0.681 L55.822,3.949 L55.746,5.393 C56.1133352,5.06366502 56.5091645,4.80716759 56.9335,4.6235 C57.3578355,4.43983242 57.7916644,4.348 58.235,4.348 C58.8050028,4.348 59.3179977,4.46199886 59.774,4.69 C60.2300023,4.91800114 60.6194984,5.23783128 60.9425,5.6495 C61.2655016,6.06116872 61.5124991,6.56149706 61.6835,7.1505 C61.8545009,7.73950294 61.94,8.39499639 61.94,9.117 C61.94,9.92767072 61.8291678,10.6496635 61.6075,11.283 C61.3858322,11.9163365 61.0881685,12.4514978 60.7145,12.8885 C60.3408315,13.3255022 59.9165024,13.6579989 59.4415,13.886 C58.9664976,14.1140011 58.4756692,14.228 57.969,14.228 C57.5509979,14.228 57.1298355,14.1266677 56.7055,13.924 C56.2811645,13.7213323 55.8853352,13.4173354 55.518,13.012 L55.442,13.012 L55.214,14 L53.029,14 L53.029,0.681 Z M55.822,11.34 C56.0753346,11.5680011 56.3286654,11.7263329 56.582,11.815 C56.8353346,11.9036671 57.0823321,11.948 57.323,11.948 C57.8043357,11.948 58.2159983,11.7295022 58.558,11.2925 C58.9000017,10.8554978 59.071,10.1493382 59.071,9.174 C59.071,7.47665818 58.5263388,6.628 57.437,6.628 C56.8796639,6.628 56.3413359,6.91299715 55.822,7.483 L55.822,11.34 Z M63.365,9.288 C63.365,8.50266274 63.4916654,7.80283641 63.745,7.1885 C63.9983346,6.57416359 64.3371645,6.05800209 64.7615,5.64 C65.1858355,5.22199791 65.6766639,4.90216778 66.234,4.6805 C66.7913361,4.45883223 67.3676637,4.348 67.963,4.348 C68.5583363,4.348 69.1314972,4.45883223 69.6825,4.6805 C70.2335028,4.90216778 70.7211645,5.22199791 71.1455,5.64 C71.5698355,6.05800209 71.9086654,6.57416359 72.162,7.1885 C72.4153346,7.80283641 72.542,8.50266274 72.542,9.288 C72.542,10.0733373 72.4153346,10.7731636 72.162,11.3875 C71.9086654,12.0018364 71.5698355,12.5179979 71.1455,12.936 C70.7211645,13.3540021 70.2335028,13.6738322 69.6825,13.8955 C69.1314972,14.1171678 68.5583363,14.228 67.963,14.228 C67.3676637,14.228 66.7913361,14.1171678 66.234,13.8955 C65.6766639,13.6738322 65.1858355,13.3540021 64.7615,12.936 C64.3371645,12.5179979 63.9983346,12.0018364 63.745,11.3875 C63.4916654,10.7731636 63.365,10.0733373 63.365,9.288 Z M66.234,9.288 C66.234,10.1113375 66.3764986,10.7636643 66.6615,11.245 C66.9465014,11.7263357 67.3803304,11.967 67.963,11.967 C68.5330029,11.967 68.9636652,11.7263357 69.255,11.245 C69.5463348,10.7636643 69.692,10.1113375 69.692,9.288 C69.692,8.46466255 69.5463348,7.81233574 69.255,7.331 C68.9636652,6.84966426 68.5330029,6.609 67.963,6.609 C67.3803304,6.609 66.9465014,6.84966426 66.6615,7.331 C66.3764986,7.81233574 66.234,8.46466255 66.234,9.288 Z M75.886,9.098 L73.169,4.576 L76.171,4.576 L77.007,6.096 C77.1336673,6.36200133 77.2634993,6.63116531 77.3965,6.9035 C77.5295007,7.1758347 77.665666,7.44499867 77.805,7.711 L77.881,7.711 C77.9823338,7.44499867 78.0899994,7.1758347 78.204,6.9035 C78.3180006,6.63116531 78.4256662,6.36200133 78.527,6.096 L79.173,4.576 L82.061,4.576 L79.325,9.421 L82.232,14 L79.23,14 L78.318,12.442 C78.1659992,12.1759987 78.0171674,11.9036681 77.8715,11.625 C77.7258326,11.3463319 77.5770008,11.0740013 77.425,10.808 L77.349,10.808 C77.2349994,11.0740013 77.1146673,11.3431653 76.988,11.6155 C76.8613327,11.8878347 76.7410006,12.1633319 76.627,12.442 L75.886,14 L72.998,14 L75.886,9.098 Z" id="Imagebox" fill="#FFFFFF"></path>
                <path d="M0.5,32.5 L257.624483,32.5" id="Line" stroke="#FFFFFF" stroke-width="5" stroke-linecap="square"></path>
                <path d="M0.5,45.5 L257.624483,45.5" id="Line" stroke="#FFFFFF" stroke-width="5" stroke-linecap="square"></path>
                <path d="M0.5,58.5 L101.50495,58.5" id="Line" stroke="#FFFFFF" stroke-width="5" stroke-linecap="square"></path>
            </g>
            <rect id="Rectangle-7" fill="#6A6A6A" x="306" y="0" width="294" height="232"></rect>
            <g id="Group-6" transform="translate(324.000000, 86.000000)">
                <path d="M1.463,1.612 L4.256,1.612 L4.256,14 L1.463,14 L1.463,1.612 Z M6.954,4.576 L9.234,4.576 L9.424,5.792 L9.5,5.792 C9.89266863,5.39933137 10.3106644,5.06050142 10.754,4.7755 C11.1973356,4.49049857 11.7293302,4.348 12.35,4.348 C13.0213367,4.348 13.5628313,4.4841653 13.9745,4.7565 C14.3861687,5.0288347 14.7123321,5.4183308 14.953,5.925 C15.3710021,5.49433118 15.8111644,5.12383489 16.2735,4.8135 C16.7358356,4.50316512 17.2836635,4.348 17.917,4.348 C18.9303384,4.348 19.6744976,4.68682995 20.1495,5.3645 C20.6245024,6.04217006 20.862,6.96999411 20.862,8.148 L20.862,14 L18.069,14 L18.069,8.509 C18.069,7.82499658 17.9771676,7.3563346 17.7935,7.103 C17.6098324,6.8496654 17.3153354,6.723 16.91,6.723 C16.441331,6.723 15.903003,7.02699696 15.295,7.635 L15.295,14 L12.502,14 L12.502,8.509 C12.502,7.82499658 12.4101676,7.3563346 12.2265,7.103 C12.0428324,6.8496654 11.7483354,6.723 11.343,6.723 C10.8616643,6.723 10.3296696,7.02699696 9.747,7.635 L9.747,14 L6.954,14 L6.954,4.576 Z M22.895,11.378 C22.895,10.3899951 23.3129958,9.61733612 24.149,9.06 C24.9850042,8.50266388 26.3339907,8.12900095 28.196,7.939 C28.1706665,7.52099791 28.0440011,7.18850123 27.816,6.9415 C27.5879989,6.69449876 27.2206692,6.571 26.714,6.571 C26.3086646,6.571 25.9033354,6.64699924 25.498,6.799 C25.0926646,6.95100076 24.6620023,7.15999867 24.206,7.426 L23.218,5.583 C23.826003,5.21566483 24.4624967,4.91800114 25.1275,4.69 C25.7925033,4.46199886 26.4986629,4.348 27.246,4.348 C28.4620061,4.348 29.3898301,4.69316321 30.0295,5.3835 C30.6691699,6.07383678 30.989,7.14732605 30.989,8.604 L30.989,14 L28.709,14 L28.5,13.031 L28.443,13.031 C28.0376646,13.3856684 27.6101689,13.6738322 27.1605,13.8955 C26.7108311,14.1171678 26.2200027,14.228 25.688,14.228 C25.2573312,14.228 24.8710017,14.1551674 24.529,14.0095 C24.1869983,13.8638326 23.8956679,13.661168 23.655,13.4015 C23.4143321,13.141832 23.2275007,12.8410017 23.0945,12.499 C22.9614993,12.1569983 22.895,11.7833354 22.895,11.378 Z M25.555,11.169 C25.555,11.4730015 25.6531657,11.6978326 25.8495,11.8435 C26.0458343,11.9891674 26.308665,12.062 26.638,12.062 C26.967335,12.062 27.2459989,11.992334 27.474,11.853 C27.7020011,11.713666 27.9426654,11.5173346 28.196,11.264 L28.196,9.611 C27.1953283,9.75033403 26.5050019,9.95299867 26.125,10.219 C25.7449981,10.4850013 25.555,10.8016648 25.555,11.169 Z M35.093,15.178 C35.093,15.5326684 35.2829981,15.8018324 35.663,15.9855 C36.0430019,16.1691676 36.5496635,16.261 37.183,16.261 C37.8163365,16.261 38.3356646,16.1501678 38.741,15.9285 C39.1463354,15.7068322 39.349,15.431335 39.349,15.102 C39.349,14.8106652 39.2255012,14.6143338 38.9785,14.513 C38.7314988,14.4116662 38.373669,14.361 37.905,14.361 L36.936,14.361 C36.606665,14.361 36.3406677,14.3515001 36.138,14.3325 C35.9353323,14.3134999 35.7580008,14.2850002 35.606,14.247 C35.2639983,14.5510015 35.093,14.8613317 35.093,15.178 Z M32.794,15.615 C32.794,14.8549962 33.2436622,14.2216692 34.143,13.715 L34.143,13.639 C33.8896654,13.4743325 33.6806675,13.2653346 33.516,13.012 C33.3513325,12.7586654 33.269,12.4356686 33.269,12.043 C33.269,11.7009983 33.3703323,11.3748349 33.573,11.0645 C33.7756677,10.7541651 34.0289985,10.4913344 34.333,10.276 L34.333,10.2 C34.003665,9.97199886 33.709168,9.64583545 33.4495,9.2215 C33.189832,8.79716455 33.06,8.30633612 33.06,7.749 C33.06,7.17899715 33.1676656,6.68183546 33.383,6.2575 C33.5983344,5.83316454 33.8864982,5.47850143 34.2475,5.1935 C34.6085018,4.90849858 35.023331,4.69633403 35.492,4.557 C35.960669,4.41766597 36.4483308,4.348 36.955,4.348 C37.5123361,4.348 37.9999979,4.42399924 38.418,4.576 L41.857,4.576 L41.857,6.609 L40.356,6.609 C40.4446671,6.74833403 40.5174997,6.92566559 40.5745,7.141 C40.6315003,7.35633441 40.66,7.5906654 40.66,7.844 C40.66,8.38866939 40.565001,8.860498 40.375,9.2595 C40.184999,9.65850199 39.9221683,9.98783203 39.5865,10.2475 C39.2508317,10.507168 38.8581689,10.7003327 38.4085,10.827 C37.9588311,10.9536673 37.4743359,11.017 36.955,11.017 C36.5876648,11.017 36.2076686,10.9536673 35.815,10.827 C35.6883327,10.9283338 35.5996669,11.0296662 35.549,11.131 C35.4983331,11.2323338 35.473,11.3653325 35.473,11.53 C35.473,11.7706679 35.577499,11.9479994 35.7865,12.062 C35.995501,12.1760006 36.3659973,12.233 36.898,12.233 L38.418,12.233 C39.5833392,12.233 40.4731636,12.4198315 41.0875,12.7935 C41.7018364,13.1671685 42.009,13.7783291 42.009,14.627 C42.009,15.1210025 41.8855012,15.5738313 41.6385,15.9855 C41.3914988,16.3971687 41.0400023,16.7518318 40.584,17.0495 C40.1279977,17.3471682 39.5770032,17.5814991 38.931,17.7525 C38.2849968,17.9235009 37.5566707,18.009 36.746,18.009 C36.1886639,18.009 35.6725024,17.9615005 35.1975,17.8665 C34.7224976,17.7714995 34.3045018,17.6290009 33.9435,17.439 C33.5824982,17.248999 33.3006677,17.0020015 33.098,16.698 C32.8953323,16.3939985 32.794,16.0330021 32.794,15.615 Z M36.955,9.326 C37.3223352,9.326 37.6294988,9.19616796 37.8765,8.9365 C38.1235012,8.67683204 38.247,8.28100266 38.247,7.749 C38.247,7.25499753 38.1235012,6.87816797 37.8765,6.6185 C37.6294988,6.35883203 37.3223352,6.229 36.955,6.229 C36.5876648,6.229 36.2805012,6.3556654 36.0335,6.609 C35.7864988,6.8623346 35.663,7.2423308 35.663,7.749 C35.663,8.28100266 35.7864988,8.67683204 36.0335,8.9365 C36.2805012,9.19616796 36.5876648,9.326 36.955,9.326 Z M42.636,9.288 C42.636,8.5279962 42.7626654,7.84083641 43.016,7.2265 C43.2693346,6.61216359 43.6018313,6.09283546 44.0135,5.6685 C44.4251687,5.24416454 44.8969973,4.91800114 45.429,4.69 C45.9610027,4.46199886 46.5119971,4.348 47.082,4.348 C47.7533367,4.348 48.3391642,4.46199886 48.8395,4.69 C49.3398358,4.91800114 49.7578317,5.23466464 50.0935,5.64 C50.4291683,6.04533536 50.6793325,6.52349724 50.844,7.0745 C51.0086675,7.62550276 51.091,8.22399677 51.091,8.87 C51.091,9.1233346 51.0783335,9.35449896 51.053,9.5635 C51.0276665,9.77250104 51.0023335,9.93399943 50.977,10.048 L45.334,10.048 C45.4606673,10.7700036 45.7424978,11.2924984 46.1795,11.6155 C46.6165022,11.9385016 47.1516635,12.1 47.785,12.1 C48.4563367,12.1 49.1339966,11.8910021 49.818,11.473 L50.749,13.164 C50.2676643,13.493335 49.7325029,13.7529991 49.1435,13.943 C48.5544971,14.133001 47.9750029,14.228 47.405,14.228 C46.7336633,14.228 46.1066696,14.1171678 45.524,13.8955 C44.9413304,13.6738322 44.4346688,13.3508355 44.004,12.9265 C43.5733312,12.5021645 43.2376679,11.986003 42.997,11.378 C42.7563321,10.769997 42.636,10.0733373 42.636,9.288 Z M48.716,8.319 C48.716,7.77433061 48.5956679,7.33100171 48.355,6.989 C48.1143321,6.64699829 47.7090029,6.476 47.139,6.476 C46.6956644,6.476 46.3061683,6.62483184 45.9705,6.9225 C45.6348317,7.22016816 45.4163338,7.6856635 45.315,8.319 L48.716,8.319 Z M53.029,0.681 L55.822,0.681 L55.822,3.949 L55.746,5.393 C56.1133352,5.06366502 56.5091645,4.80716759 56.9335,4.6235 C57.3578355,4.43983242 57.7916644,4.348 58.235,4.348 C58.8050028,4.348 59.3179977,4.46199886 59.774,4.69 C60.2300023,4.91800114 60.6194984,5.23783128 60.9425,5.6495 C61.2655016,6.06116872 61.5124991,6.56149706 61.6835,7.1505 C61.8545009,7.73950294 61.94,8.39499639 61.94,9.117 C61.94,9.92767072 61.8291678,10.6496635 61.6075,11.283 C61.3858322,11.9163365 61.0881685,12.4514978 60.7145,12.8885 C60.3408315,13.3255022 59.9165024,13.6579989 59.4415,13.886 C58.9664976,14.1140011 58.4756692,14.228 57.969,14.228 C57.5509979,14.228 57.1298355,14.1266677 56.7055,13.924 C56.2811645,13.7213323 55.8853352,13.4173354 55.518,13.012 L55.442,13.012 L55.214,14 L53.029,14 L53.029,0.681 Z M55.822,11.34 C56.0753346,11.5680011 56.3286654,11.7263329 56.582,11.815 C56.8353346,11.9036671 57.0823321,11.948 57.323,11.948 C57.8043357,11.948 58.2159983,11.7295022 58.558,11.2925 C58.9000017,10.8554978 59.071,10.1493382 59.071,9.174 C59.071,7.47665818 58.5263388,6.628 57.437,6.628 C56.8796639,6.628 56.3413359,6.91299715 55.822,7.483 L55.822,11.34 Z M63.365,9.288 C63.365,8.50266274 63.4916654,7.80283641 63.745,7.1885 C63.9983346,6.57416359 64.3371645,6.05800209 64.7615,5.64 C65.1858355,5.22199791 65.6766639,4.90216778 66.234,4.6805 C66.7913361,4.45883223 67.3676637,4.348 67.963,4.348 C68.5583363,4.348 69.1314972,4.45883223 69.6825,4.6805 C70.2335028,4.90216778 70.7211645,5.22199791 71.1455,5.64 C71.5698355,6.05800209 71.9086654,6.57416359 72.162,7.1885 C72.4153346,7.80283641 72.542,8.50266274 72.542,9.288 C72.542,10.0733373 72.4153346,10.7731636 72.162,11.3875 C71.9086654,12.0018364 71.5698355,12.5179979 71.1455,12.936 C70.7211645,13.3540021 70.2335028,13.6738322 69.6825,13.8955 C69.1314972,14.1171678 68.5583363,14.228 67.963,14.228 C67.3676637,14.228 66.7913361,14.1171678 66.234,13.8955 C65.6766639,13.6738322 65.1858355,13.3540021 64.7615,12.936 C64.3371645,12.5179979 63.9983346,12.0018364 63.745,11.3875 C63.4916654,10.7731636 63.365,10.0733373 63.365,9.288 Z M66.234,9.288 C66.234,10.1113375 66.3764986,10.7636643 66.6615,11.245 C66.9465014,11.7263357 67.3803304,11.967 67.963,11.967 C68.5330029,11.967 68.9636652,11.7263357 69.255,11.245 C69.5463348,10.7636643 69.692,10.1113375 69.692,9.288 C69.692,8.46466255 69.5463348,7.81233574 69.255,7.331 C68.9636652,6.84966426 68.5330029,6.609 67.963,6.609 C67.3803304,6.609 66.9465014,6.84966426 66.6615,7.331 C66.3764986,7.81233574 66.234,8.46466255 66.234,9.288 Z M75.886,9.098 L73.169,4.576 L76.171,4.576 L77.007,6.096 C77.1336673,6.36200133 77.2634993,6.63116531 77.3965,6.9035 C77.5295007,7.1758347 77.665666,7.44499867 77.805,7.711 L77.881,7.711 C77.9823338,7.44499867 78.0899994,7.1758347 78.204,6.9035 C78.3180006,6.63116531 78.4256662,6.36200133 78.527,6.096 L79.173,4.576 L82.061,4.576 L79.325,9.421 L82.232,14 L79.23,14 L78.318,12.442 C78.1659992,12.1759987 78.0171674,11.9036681 77.8715,11.625 C77.7258326,11.3463319 77.5770008,11.0740013 77.425,10.808 L77.349,10.808 C77.2349994,11.0740013 77.1146673,11.3431653 76.988,11.6155 C76.8613327,11.8878347 76.7410006,12.1633319 76.627,12.442 L75.886,14 L72.998,14 L75.886,9.098 Z" id="Imagebox" fill="#FFFFFF"></path>
                <path d="M0.5,32.5 L257.624483,32.5" id="Line" stroke="#FFFFFF" stroke-width="5" stroke-linecap="square"></path>
                <path d="M0.5,45.5 L257.624483,45.5" id="Line" stroke="#FFFFFF" stroke-width="5" stroke-linecap="square"></path>
                <path d="M0.5,58.5 L101.50495,58.5" id="Line" stroke="#FFFFFF" stroke-width="5" stroke-linecap="square"></path>
            </g>
        </g>
    </g>
</svg>