<?xml version="1.0" encoding="UTF-8"?>
<svg width="600px" height="85px" viewBox="0 0 600 85" version="1.1" xmlns="http://www.w3.org/2000/svg" xmlns:xlink="http://www.w3.org/1999/xlink">
    <!-- Generator: Sketch 44.1 (41455) - http://www.bohemiancoding.com/sketch -->
    <title>imageboxes02</title>
    <desc>Created with Sketch.</desc>
    <defs></defs>
    <g id="Imageboxes" stroke="none" stroke-width="1" fill="none" fill-rule="evenodd">
        <g id="02">
            <rect id="Rectangle" fill="#545454" x="0" y="0" width="201" height="85"></rect>
            <path d="M14.4934211,34 L63.5102016,34" id="Line" stroke="#FFFFFF" stroke-width="4" stroke-linecap="square"></path>
            <path d="M12.924,48.176 L17.856,48.176 L17.856,49.664 L14.688,49.664 L14.688,51.476 L17.4,51.476 L17.4,52.964 L14.688,52.964 L14.688,56 L12.924,56 L12.924,48.176 Z M18.78,50.048 L20.544,50.048 L20.544,53.516 C20.544,53.9480022 20.6039994,54.2439992 20.724,54.404 C20.8440006,54.5640008 21.0319987,54.644 21.288,54.644 C21.5120011,54.644 21.6999992,54.5920005 21.852,54.488 C22.0040008,54.3839995 22.1679991,54.2160012 22.344,53.984 L22.344,50.048 L24.108,50.048 L24.108,56 L22.668,56 L22.536,55.172 L22.5,55.172 C22.2439987,55.4760015 21.9700015,55.7139991 21.678,55.886 C21.3859985,56.0580009 21.036002,56.144 20.628,56.144 C19.9799968,56.144 19.5100015,55.9320021 19.218,55.508 C18.9259985,55.0839979 18.78,54.4960038 18.78,53.744 L18.78,50.048 Z M25.656,47.588 L27.42,47.588 L27.42,54.224 C27.42,54.4080009 27.4539997,54.5359996 27.522,54.608 C27.5900003,54.6800004 27.6599996,54.716 27.732,54.716 L27.834,54.716 C27.8620001,54.716 27.8999998,54.7080001 27.948,54.692 L28.164,56 C28.0679995,56.0400002 27.9460007,56.0739999 27.798,56.102 C27.6499993,56.1300001 27.476001,56.144 27.276,56.144 C26.9719985,56.144 26.716001,56.0960005 26.508,56 C26.299999,55.9039995 26.1340006,55.7700009 26.01,55.598 C25.8859994,55.4259991 25.7960003,55.2180012 25.74,54.974 C25.6839997,54.7299988 25.656,54.4560015 25.656,54.152 L25.656,47.588 Z M29.088,47.588 L30.852,47.588 L30.852,54.224 C30.852,54.4080009 30.8859997,54.5359996 30.954,54.608 C31.0220003,54.6800004 31.0919996,54.716 31.164,54.716 L31.266,54.716 C31.2940001,54.716 31.3319998,54.7080001 31.38,54.692 L31.596,56 C31.4999995,56.0400002 31.3780007,56.0739999 31.23,56.102 C31.0819993,56.1300001 30.908001,56.144 30.708,56.144 C30.4039985,56.144 30.148001,56.0960005 29.94,56 C29.731999,55.9039995 29.5660006,55.7700009 29.442,55.598 C29.3179994,55.4259991 29.2280003,55.2180012 29.172,54.974 C29.1159997,54.7299988 29.088,54.4560015 29.088,54.152 L29.088,47.588 Z M35.664,53.804 C35.9440014,54.0440012 36.2539983,54.2399992 36.594,54.392 C36.9340017,54.5440008 37.2679984,54.62 37.596,54.62 C37.9640018,54.62 38.2379991,54.5520007 38.418,54.416 C38.5980009,54.2799993 38.688,54.0960012 38.688,53.864 C38.688,53.7439994 38.6620003,53.6400004 38.61,53.552 C38.5579997,53.4639996 38.4820005,53.3860003 38.382,53.318 C38.2819995,53.2499997 38.1620007,53.1860003 38.022,53.126 L37.56,52.928 L36.54,52.496 C36.339999,52.4159996 36.1460009,52.3120006 35.958,52.184 C35.7699991,52.0559994 35.6020007,51.9060009 35.454,51.734 C35.3059993,51.5619991 35.1880004,51.3620011 35.1,51.134 C35.0119996,50.9059989 34.968,50.6480014 34.968,50.36 C34.968,50.0399984 35.0359993,49.7380014 35.172,49.454 C35.3080007,49.1699986 35.4999988,48.9220011 35.748,48.71 C35.9960012,48.4979989 36.2899983,48.3320006 36.63,48.212 C36.9700017,48.0919994 37.343998,48.032 37.752,48.032 C38.2080023,48.032 38.6579978,48.1199991 39.102,48.296 C39.5460022,48.4720009 39.9359983,48.7279983 40.272,49.064 L39.372,50.18 C39.1159987,49.979999 38.8600013,49.8260005 38.604,49.718 C38.3479987,49.6099995 38.0640016,49.556 37.752,49.556 C37.4479985,49.556 37.2060009,49.6179994 37.026,49.742 C36.8459991,49.8660006 36.756,50.0399989 36.756,50.264 C36.756,50.3840006 36.7859997,50.4859996 36.846,50.57 C36.9060003,50.6540004 36.9899995,50.7299997 37.098,50.798 C37.2060005,50.8660003 37.3319993,50.9299997 37.476,50.99 C37.6200007,51.0500003 37.7759992,51.1159996 37.944,51.188 L38.952,51.596 C39.4320024,51.788001 39.8099986,52.0519983 40.086,52.388 C40.3620014,52.7240017 40.5,53.1679972 40.5,53.72 C40.5,54.0480016 40.4340007,54.3579985 40.302,54.65 C40.1699993,54.9420015 39.9780013,55.1979989 39.726,55.418 C39.4739987,55.6380011 39.1640018,55.8139993 38.796,55.946 C38.4279982,56.0780007 38.0120023,56.144 37.548,56.144 C37.0359974,56.144 36.5260025,56.0500009 36.018,55.862 C35.5099975,55.6739991 35.056002,55.3920019 34.656,55.016 L35.664,53.804 Z M41.34,53.024 C41.34,52.5439976 41.4199992,52.1100019 41.58,51.722 C41.7400008,51.3339981 41.9499987,51.0060013 42.21,50.738 C42.4700013,50.4699987 42.7679983,50.2640007 43.104,50.12 C43.4400017,49.9759993 43.7879982,49.904 44.148,49.904 C44.5720021,49.904 44.9419984,49.9759993 45.258,50.12 C45.5740016,50.2640007 45.8379989,50.4639987 46.05,50.72 C46.2620011,50.9760013 46.4199995,51.2779983 46.524,51.626 C46.6280005,51.9740017 46.68,52.351998 46.68,52.76 C46.68,52.9200008 46.6720001,53.0659993 46.656,53.198 C46.6399999,53.3300007 46.6240001,53.4319996 46.608,53.504 L43.044,53.504 C43.1240004,53.9600023 43.3019986,54.289999 43.578,54.494 C43.8540014,54.698001 44.191998,54.8 44.592,54.8 C45.0160021,54.8 45.4439978,54.6680013 45.876,54.404 L46.464,55.472 C46.1599985,55.680001 45.8220019,55.8439994 45.45,55.964 C45.0779981,56.0840006 44.7120018,56.144 44.352,56.144 C43.9279979,56.144 43.5320018,56.0740007 43.164,55.934 C42.7959982,55.7939993 42.4760014,55.5900013 42.204,55.322 C41.9319986,55.0539987 41.7200008,54.7280019 41.568,54.344 C41.4159992,53.9599981 41.34,53.5200025 41.34,53.024 Z M45.18,52.412 C45.18,52.0679983 45.1040008,51.7880011 44.952,51.572 C44.7999992,51.3559989 44.5440018,51.248 44.184,51.248 C43.9039986,51.248 43.6580011,51.3419991 43.446,51.53 C43.2339989,51.7180009 43.0960003,52.011998 43.032,52.412 L45.18,52.412 Z M47.904,50.048 L49.344,50.048 L49.464,51.092 L49.512,51.092 C49.7280011,50.683998 49.9879985,50.384001 50.292,50.192 C50.5960015,49.999999 50.8999985,49.904 51.204,49.904 C51.3720008,49.904 51.5099995,49.9139999 51.618,49.934 C51.7260005,49.9540001 51.8239996,49.9839998 51.912,50.024 L51.624,51.548 C51.5119994,51.5159998 51.4080005,51.4920001 51.312,51.476 C51.2159995,51.4599999 51.1040006,51.452 50.976,51.452 C50.7519989,51.452 50.5180012,51.5319992 50.274,51.692 C50.0299988,51.8520008 49.8280008,52.135998 49.668,52.544 L49.668,56 L47.904,56 L47.904,50.048 Z M52.104,50.048 L53.88,50.048 L54.648,52.856 C54.7280004,53.1520015 54.8059996,53.4539985 54.882,53.762 C54.9580004,54.0700015 55.0359996,54.3799984 55.116,54.692 L55.164,54.692 C55.2360004,54.3799984 55.3099996,54.0700015 55.386,53.762 C55.4620004,53.4539985 55.5399996,53.1520015 55.62,52.856 L56.4,50.048 L58.092,50.048 L56.148,56 L54.108,56 L52.104,50.048 Z M59.892,49.172 C59.5959985,49.172 59.352001,49.0860009 59.16,48.914 C58.967999,48.7419991 58.872,48.5200014 58.872,48.248 C58.872,47.9759986 58.967999,47.7560008 59.16,47.588 C59.352001,47.4199992 59.5959985,47.336 59.892,47.336 C60.1960015,47.336 60.4419991,47.4199992 60.63,47.588 C60.8180009,47.7560008 60.912,47.9759986 60.912,48.248 C60.912,48.5200014 60.8180009,48.7419991 60.63,48.914 C60.4419991,49.0860009 60.1960015,49.172 59.892,49.172 Z M59.016,50.048 L60.78,50.048 L60.78,56 L59.016,56 L59.016,50.048 Z M61.98,53.024 C61.98,52.5279975 62.0639992,52.0860019 62.232,51.698 C62.4000008,51.3099981 62.6259986,50.9840013 62.91,50.72 C63.1940014,50.4559987 63.5239981,50.2540007 63.9,50.114 C64.2760019,49.9739993 64.667998,49.904 65.076,49.904 C65.4440018,49.904 65.7759985,49.9659994 66.072,50.09 C66.3680015,50.2140006 66.615999,50.379999 66.816,50.588 L66.012,51.68 C65.7319986,51.4479988 65.4560014,51.332 65.184,51.332 C64.7519978,51.332 64.4120012,51.4839985 64.164,51.788 C63.9159988,52.0920015 63.792,52.5039974 63.792,53.024 C63.792,53.5440026 63.9179987,53.9559985 64.17,54.26 C64.4220013,54.5640015 64.7399981,54.716 65.124,54.716 C65.3400011,54.716 65.5359991,54.6720004 65.712,54.584 C65.8880009,54.4959996 66.0479993,54.3960006 66.192,54.284 L66.9,55.4 C66.6119986,55.6560013 66.2920018,55.8439994 65.94,55.964 C65.5879982,56.0840006 65.2480016,56.144 64.92,56.144 C64.5039979,56.144 64.1180018,56.0740007 63.762,55.934 C63.4059982,55.7939993 63.0960013,55.5920013 62.832,55.328 C62.5679987,55.0639987 62.3600008,54.7380019 62.208,54.35 C62.0559992,53.9619981 61.98,53.5200025 61.98,53.024 Z M67.248,53.024 C67.248,52.5439976 67.3279992,52.1100019 67.488,51.722 C67.6480008,51.3339981 67.8579987,51.0060013 68.118,50.738 C68.3780013,50.4699987 68.6759983,50.2640007 69.012,50.12 C69.3480017,49.9759993 69.6959982,49.904 70.056,49.904 C70.4800021,49.904 70.8499984,49.9759993 71.166,50.12 C71.4820016,50.2640007 71.7459989,50.4639987 71.958,50.72 C72.1700011,50.9760013 72.3279995,51.2779983 72.432,51.626 C72.5360005,51.9740017 72.588,52.351998 72.588,52.76 C72.588,52.9200008 72.5800001,53.0659993 72.564,53.198 C72.5479999,53.3300007 72.5320001,53.4319996 72.516,53.504 L68.952,53.504 C69.0320004,53.9600023 69.2099986,54.289999 69.486,54.494 C69.7620014,54.698001 70.099998,54.8 70.5,54.8 C70.9240021,54.8 71.3519978,54.6680013 71.784,54.404 L72.372,55.472 C72.0679985,55.680001 71.7300019,55.8439994 71.358,55.964 C70.9859981,56.0840006 70.6200018,56.144 70.26,56.144 C69.8359979,56.144 69.4400018,56.0740007 69.072,55.934 C68.7039982,55.7939993 68.3840014,55.5900013 68.112,55.322 C67.8399986,55.0539987 67.6280008,54.7280019 67.476,54.344 C67.3239992,53.9599981 67.248,53.5200025 67.248,53.024 Z M71.088,52.412 C71.088,52.0679983 71.0120008,51.7880011 70.86,51.572 C70.7079992,51.3559989 70.4520018,51.248 70.092,51.248 C69.8119986,51.248 69.5660011,51.3419991 69.354,51.53 C69.1419989,51.7180009 69.0040003,52.011998 68.94,52.412 L71.088,52.412 Z M76.08,52.136 C76.08,51.4879968 76.179999,50.9100025 76.38,50.402 C76.580001,49.8939975 76.8499983,49.4640018 77.19,49.112 C77.5300017,48.7599982 77.9259977,48.4920009 78.378,48.308 C78.8300023,48.1239991 79.3079975,48.032 79.812,48.032 C80.3000024,48.032 80.741998,48.133999 81.138,48.338 C81.534002,48.542001 81.8639987,48.7799986 82.128,49.052 L81.156,50.144 C80.955999,49.9599991 80.754001,49.8160005 80.55,49.712 C80.345999,49.6079995 80.1080014,49.556 79.836,49.556 C79.5639986,49.556 79.3100012,49.6139994 79.074,49.73 C78.8379988,49.8460006 78.6320009,50.0119989 78.456,50.228 C78.2799991,50.4440011 78.1420005,50.7079984 78.042,51.02 C77.9419995,51.3320016 77.892,51.683998 77.892,52.076 C77.892,52.884004 78.0639983,53.5099978 78.408,53.954 C78.7520017,54.3980022 79.2119971,54.62 79.788,54.62 C80.1080016,54.62 80.3879988,54.5560006 80.628,54.428 C80.8680012,54.2999994 81.083999,54.132001 81.276,53.924 L82.248,54.992 C81.9199984,55.3760019 81.5460021,55.663999 81.126,55.856 C80.7059979,56.048001 80.2520024,56.144 79.764,56.144 C79.2599975,56.144 78.7840022,56.0580009 78.336,55.886 C77.8879978,55.7139991 77.4960017,55.4600017 77.16,55.124 C76.8239983,54.7879983 76.560001,54.3700025 76.368,53.87 C76.175999,53.3699975 76.08,52.7920033 76.08,52.136 Z M83.076,54.344 C83.076,53.7199969 83.3399974,53.2320018 83.868,52.88 C84.3960026,52.5279982 85.2479941,52.2920006 86.424,52.172 C86.4079999,51.9079987 86.3280007,51.6980008 86.184,51.542 C86.0399993,51.3859992 85.8080016,51.308 85.488,51.308 C85.2319987,51.308 84.9760013,51.3559995 84.72,51.452 C84.4639987,51.5480005 84.1920014,51.6799992 83.904,51.848 L83.28,50.684 C83.6640019,50.4519988 84.0659979,50.2640007 84.486,50.12 C84.9060021,49.9759993 85.3519976,49.904 85.824,49.904 C86.5920038,49.904 87.177998,50.1219978 87.582,50.558 C87.986002,50.9940022 88.188,51.6719954 88.188,52.592 L88.188,56 L86.748,56 L86.616,55.388 L86.58,55.388 C86.3239987,55.6120011 86.0540014,55.7939993 85.77,55.934 C85.4859986,56.0740007 85.1760017,56.144 84.84,56.144 C84.5679986,56.144 84.3240011,56.0980005 84.108,56.006 C83.8919989,55.9139995 83.7080008,55.7860008 83.556,55.622 C83.4039992,55.4579992 83.2860004,55.2680011 83.202,55.052 C83.1179996,54.8359989 83.076,54.6000013 83.076,54.344 Z M84.756,54.212 C84.756,54.404001 84.8179994,54.5459995 84.942,54.638 C85.0660006,54.7300005 85.231999,54.776 85.44,54.776 C85.648001,54.776 85.8239993,54.7320004 85.968,54.644 C86.1120007,54.5559996 86.2639992,54.4320008 86.424,54.272 L86.424,53.228 C85.7919968,53.3160004 85.3560012,53.4439992 85.116,53.612 C84.8759988,53.7800008 84.756,53.9799988 84.756,54.212 Z M89.7,50.048 L91.14,50.048 L91.26,51.092 L91.308,51.092 C91.5240011,50.683998 91.7839985,50.384001 92.088,50.192 C92.3920015,49.999999 92.6959985,49.904 93,49.904 C93.1680008,49.904 93.3059995,49.9139999 93.414,49.934 C93.5220005,49.9540001 93.6199996,49.9839998 93.708,50.024 L93.42,51.548 C93.3079994,51.5159998 93.2040005,51.4920001 93.108,51.476 C93.0119995,51.4599999 92.9000006,51.452 92.772,51.452 C92.5479989,51.452 92.3140012,51.5319992 92.07,51.692 C91.8259988,51.8520008 91.6240008,52.135998 91.464,52.544 L91.464,56 L89.7,56 L89.7,50.048 Z M94.008,53.024 C94.008,52.5439976 94.0879992,52.1100019 94.248,51.722 C94.4080008,51.3339981 94.6179987,51.0060013 94.878,50.738 C95.1380013,50.4699987 95.4359983,50.2640007 95.772,50.12 C96.1080017,49.9759993 96.4559982,49.904 96.816,49.904 C97.2400021,49.904 97.6099984,49.9759993 97.926,50.12 C98.2420016,50.2640007 98.5059989,50.4639987 98.718,50.72 C98.9300011,50.9760013 99.0879995,51.2779983 99.192,51.626 C99.2960005,51.9740017 99.348,52.351998 99.348,52.76 C99.348,52.9200008 99.3400001,53.0659993 99.324,53.198 C99.3079999,53.3300007 99.2920001,53.4319996 99.276,53.504 L95.712,53.504 C95.7920004,53.9600023 95.9699986,54.289999 96.246,54.494 C96.5220014,54.698001 96.859998,54.8 97.26,54.8 C97.6840021,54.8 98.1119978,54.6680013 98.544,54.404 L99.132,55.472 C98.8279985,55.680001 98.4900019,55.8439994 98.118,55.964 C97.7459981,56.0840006 97.3800018,56.144 97.02,56.144 C96.5959979,56.144 96.2000018,56.0740007 95.832,55.934 C95.4639982,55.7939993 95.1440014,55.5900013 94.872,55.322 C94.5999986,55.0539987 94.3880008,54.7280019 94.236,54.344 C94.0839992,53.9599981 94.008,53.5200025 94.008,53.024 Z M97.848,52.412 C97.848,52.0679983 97.7720008,51.7880011 97.62,51.572 C97.4679992,51.3559989 97.2120018,51.248 96.852,51.248 C96.5719986,51.248 96.3260011,51.3419991 96.114,51.53 C95.9019989,51.7180009 95.7640003,52.011998 95.7,52.412 L97.848,52.412 Z" id="Full-Service-Care" fill="#FFFFFF"></path>
            <rect id="Rectangle" fill="#6A6A6A" x="201" y="0" width="201" height="85"></rect>
            <path d="M215.493421,34 L264.510202,34" id="Line" stroke="#FFFFFF" stroke-width="4" stroke-linecap="square"></path>
            <path d="M215.448,49.664 L213.3,49.664 L213.3,48.176 L219.372,48.176 L219.372,49.664 L217.224,49.664 L217.224,56 L215.448,56 L215.448,49.664 Z M219.948,50.048 L221.388,50.048 L221.508,51.092 L221.556,51.092 C221.772001,50.683998 222.031998,50.384001 222.336,50.192 C222.640002,49.999999 222.943998,49.904 223.248,49.904 C223.416001,49.904 223.553999,49.9139999 223.662,49.934 C223.770001,49.9540001 223.868,49.9839998 223.956,50.024 L223.668,51.548 C223.555999,51.5159998 223.452,51.4920001 223.356,51.476 C223.26,51.4599999 223.148001,51.452 223.02,51.452 C222.795999,51.452 222.562001,51.5319992 222.318,51.692 C222.073999,51.8520008 221.872001,52.135998 221.712,52.544 L221.712,56 L219.948,56 L219.948,50.048 Z M224.256,53.024 C224.256,52.5279975 224.335999,52.0860019 224.496,51.698 C224.656001,51.3099981 224.869999,50.9840013 225.138,50.72 C225.406001,50.4559987 225.715998,50.2540007 226.068,50.114 C226.420002,49.9739993 226.783998,49.904 227.16,49.904 C227.536002,49.904 227.897998,49.9739993 228.246,50.114 C228.594002,50.2540007 228.901999,50.4559987 229.17,50.72 C229.438001,50.9840013 229.651999,51.3099981 229.812,51.698 C229.972001,52.0860019 230.052,52.5279975 230.052,53.024 C230.052,53.5200025 229.972001,53.9619981 229.812,54.35 C229.651999,54.7380019 229.438001,55.0639987 229.17,55.328 C228.901999,55.5920013 228.594002,55.7939993 228.246,55.934 C227.897998,56.0740007 227.536002,56.144 227.16,56.144 C226.783998,56.144 226.420002,56.0740007 226.068,55.934 C225.715998,55.7939993 225.406001,55.5920013 225.138,55.328 C224.869999,55.0639987 224.656001,54.7380019 224.496,54.35 C224.335999,53.9619981 224.256,53.5200025 224.256,53.024 Z M226.068,53.024 C226.068,53.5440026 226.157999,53.9559985 226.338,54.26 C226.518001,54.5640015 226.791998,54.716 227.16,54.716 C227.520002,54.716 227.791999,54.5640015 227.976,54.26 C228.160001,53.9559985 228.252,53.5440026 228.252,53.024 C228.252,52.5039974 228.160001,52.0920015 227.976,51.788 C227.791999,51.4839985 227.520002,51.332 227.16,51.332 C226.791998,51.332 226.518001,51.4839985 226.338,51.788 C226.157999,52.0920015 226.068,52.5039974 226.068,53.024 Z M231.204,50.048 L232.968,50.048 L232.968,53.516 C232.968,53.9480022 233.027999,54.2439992 233.148,54.404 C233.268001,54.5640008 233.455999,54.644 233.712,54.644 C233.936001,54.644 234.123999,54.5920005 234.276,54.488 C234.428001,54.3839995 234.591999,54.2160012 234.768,53.984 L234.768,50.048 L236.532,50.048 L236.532,56 L235.092,56 L234.96,55.172 L234.924,55.172 C234.667999,55.4760015 234.394001,55.7139991 234.102,55.886 C233.809999,56.0580009 233.460002,56.144 233.052,56.144 C232.403997,56.144 231.934001,55.9320021 231.642,55.508 C231.349999,55.0839979 231.204,54.4960038 231.204,53.744 L231.204,50.048 Z M238.08,47.588 L239.844,47.588 L239.844,49.652 L239.796,50.564 C240.028001,50.355999 240.277999,50.1940006 240.546,50.078 C240.814001,49.9619994 241.087999,49.904 241.368,49.904 C241.728002,49.904 242.051999,49.9759993 242.34,50.12 C242.628001,50.2640007 242.873999,50.4659987 243.078,50.726 C243.282001,50.9860013 243.437999,51.3019981 243.546,51.674 C243.654001,52.0460019 243.708,52.4599977 243.708,52.916 C243.708,53.4280026 243.638001,53.883998 243.498,54.284 C243.357999,54.684002 243.170001,55.0219986 242.934,55.298 C242.697999,55.5740014 242.430002,55.7839993 242.13,55.928 C241.829998,56.0720007 241.520002,56.144 241.2,56.144 C240.935999,56.144 240.670001,56.0800006 240.402,55.952 C240.133999,55.8239994 239.884001,55.6320013 239.652,55.376 L239.604,55.376 L239.46,56 L238.08,56 L238.08,47.588 Z M239.844,54.32 C240.004001,54.4640007 240.163999,54.5639997 240.324,54.62 C240.484001,54.6760003 240.639999,54.704 240.792,54.704 C241.096002,54.704 241.355999,54.5660014 241.572,54.29 C241.788001,54.0139986 241.896,53.5680031 241.896,52.952 C241.896,51.8799946 241.552003,51.344 240.864,51.344 C240.511998,51.344 240.172002,51.5239982 239.844,51.884 L239.844,54.32 Z M244.956,47.588 L246.72,47.588 L246.72,54.224 C246.72,54.4080009 246.754,54.5359996 246.822,54.608 C246.89,54.6800004 246.96,54.716 247.032,54.716 L247.134,54.716 C247.162,54.716 247.2,54.7080001 247.248,54.692 L247.464,56 C247.368,56.0400002 247.246001,56.0739999 247.098,56.102 C246.949999,56.1300001 246.776001,56.144 246.576,56.144 C246.271998,56.144 246.016001,56.0960005 245.808,56 C245.599999,55.9039995 245.434001,55.7700009 245.31,55.598 C245.185999,55.4259991 245.096,55.2180012 245.04,54.974 C244.984,54.7299988 244.956,54.4560015 244.956,54.152 L244.956,47.588 Z M248.04,53.024 C248.04,52.5439976 248.119999,52.1100019 248.28,51.722 C248.440001,51.3339981 248.649999,51.0060013 248.91,50.738 C249.170001,50.4699987 249.467998,50.2640007 249.804,50.12 C250.140002,49.9759993 250.487998,49.904 250.848,49.904 C251.272002,49.904 251.641998,49.9759993 251.958,50.12 C252.274002,50.2640007 252.537999,50.4639987 252.75,50.72 C252.962001,50.9760013 253.119999,51.2779983 253.224,51.626 C253.328001,51.9740017 253.38,52.351998 253.38,52.76 C253.38,52.9200008 253.372,53.0659993 253.356,53.198 C253.34,53.3300007 253.324,53.4319996 253.308,53.504 L249.744,53.504 C249.824,53.9600023 250.001999,54.289999 250.278,54.494 C250.554001,54.698001 250.891998,54.8 251.292,54.8 C251.716002,54.8 252.143998,54.6680013 252.576,54.404 L253.164,55.472 C252.859998,55.680001 252.522002,55.8439994 252.15,55.964 C251.777998,56.0840006 251.412002,56.144 251.052,56.144 C250.627998,56.144 250.232002,56.0740007 249.864,55.934 C249.495998,55.7939993 249.176001,55.5900013 248.904,55.322 C248.631999,55.0539987 248.420001,54.7280019 248.268,54.344 C248.115999,53.9599981 248.04,53.5200025 248.04,53.024 Z M251.88,52.412 C251.88,52.0679983 251.804001,51.7880011 251.652,51.572 C251.499999,51.3559989 251.244002,51.248 250.884,51.248 C250.603999,51.248 250.358001,51.3419991 250.146,51.53 C249.933999,51.7180009 249.796,52.011998 249.732,52.412 L251.88,52.412 Z M257.748,53.804 C258.028001,54.0440012 258.337998,54.2399992 258.678,54.392 C259.018002,54.5440008 259.351998,54.62 259.68,54.62 C260.048002,54.62 260.321999,54.5520007 260.502,54.416 C260.682001,54.2799993 260.772,54.0960012 260.772,53.864 C260.772,53.7439994 260.746,53.6400004 260.694,53.552 C260.642,53.4639996 260.566,53.3860003 260.466,53.318 C260.365999,53.2499997 260.246001,53.1860003 260.106,53.126 L259.644,52.928 L258.624,52.496 C258.423999,52.4159996 258.230001,52.3120006 258.042,52.184 C257.853999,52.0559994 257.686001,51.9060009 257.538,51.734 C257.389999,51.5619991 257.272,51.3620011 257.184,51.134 C257.096,50.9059989 257.052,50.6480014 257.052,50.36 C257.052,50.0399984 257.119999,49.7380014 257.256,49.454 C257.392001,49.1699986 257.583999,48.9220011 257.832,48.71 C258.080001,48.4979989 258.373998,48.3320006 258.714,48.212 C259.054002,48.0919994 259.427998,48.032 259.836,48.032 C260.292002,48.032 260.741998,48.1199991 261.186,48.296 C261.630002,48.4720009 262.019998,48.7279983 262.356,49.064 L261.456,50.18 C261.199999,49.979999 260.944001,49.8260005 260.688,49.718 C260.431999,49.6099995 260.148002,49.556 259.836,49.556 C259.531998,49.556 259.290001,49.6179994 259.11,49.742 C258.929999,49.8660006 258.84,50.0399989 258.84,50.264 C258.84,50.3840006 258.87,50.4859996 258.93,50.57 C258.99,50.6540004 259.073999,50.7299997 259.182,50.798 C259.290001,50.8660003 259.415999,50.9299997 259.56,50.99 C259.704001,51.0500003 259.859999,51.1159996 260.028,51.188 L261.036,51.596 C261.516002,51.788001 261.893999,52.0519983 262.17,52.388 C262.446001,52.7240017 262.584,53.1679972 262.584,53.72 C262.584,54.0480016 262.518001,54.3579985 262.386,54.65 C262.253999,54.9420015 262.062001,55.1979989 261.81,55.418 C261.557999,55.6380011 261.248002,55.8139993 260.88,55.946 C260.511998,56.0780007 260.096002,56.144 259.632,56.144 C259.119997,56.144 258.610003,56.0500009 258.102,55.862 C257.593997,55.6739991 257.140002,55.3920019 256.74,55.016 L257.748,53.804 Z M263.772,47.588 L265.536,47.588 L265.536,49.652 L265.452,50.72 C265.676001,50.519999 265.935999,50.3340009 266.232,50.162 C266.528001,49.9899991 266.879998,49.904 267.288,49.904 C267.936003,49.904 268.405999,50.1159979 268.698,50.54 C268.990001,50.9640021 269.136,51.5519962 269.136,52.304 L269.136,56 L267.372,56 L267.372,52.532 C267.372,52.0999978 267.314001,51.8040008 267.198,51.644 C267.081999,51.4839992 266.896001,51.404 266.64,51.404 C266.415999,51.404 266.224001,51.4539995 266.064,51.554 C265.903999,51.6540005 265.728001,51.7959991 265.536,51.98 L265.536,56 L263.772,56 L263.772,47.588 Z M270.276,53.024 C270.276,52.5279975 270.355999,52.0860019 270.516,51.698 C270.676001,51.3099981 270.889999,50.9840013 271.158,50.72 C271.426001,50.4559987 271.735998,50.2540007 272.088,50.114 C272.440002,49.9739993 272.803998,49.904 273.18,49.904 C273.556002,49.904 273.917998,49.9739993 274.266,50.114 C274.614002,50.2540007 274.921999,50.4559987 275.19,50.72 C275.458001,50.9840013 275.671999,51.3099981 275.832,51.698 C275.992001,52.0860019 276.072,52.5279975 276.072,53.024 C276.072,53.5200025 275.992001,53.9619981 275.832,54.35 C275.671999,54.7380019 275.458001,55.0639987 275.19,55.328 C274.921999,55.5920013 274.614002,55.7939993 274.266,55.934 C273.917998,56.0740007 273.556002,56.144 273.18,56.144 C272.803998,56.144 272.440002,56.0740007 272.088,55.934 C271.735998,55.7939993 271.426001,55.5920013 271.158,55.328 C270.889999,55.0639987 270.676001,54.7380019 270.516,54.35 C270.355999,53.9619981 270.276,53.5200025 270.276,53.024 Z M272.088,53.024 C272.088,53.5440026 272.177999,53.9559985 272.358,54.26 C272.538001,54.5640015 272.811998,54.716 273.18,54.716 C273.540002,54.716 273.811999,54.5640015 273.996,54.26 C274.180001,53.9559985 274.272,53.5440026 274.272,53.024 C274.272,52.5039974 274.180001,52.0920015 273.996,51.788 C273.811999,51.4839985 273.540002,51.332 273.18,51.332 C272.811998,51.332 272.538001,51.4839985 272.358,51.788 C272.177999,52.0920015 272.088,52.5039974 272.088,53.024 Z M276.936,53.024 C276.936,52.5279975 277.015999,52.0860019 277.176,51.698 C277.336001,51.3099981 277.549999,50.9840013 277.818,50.72 C278.086001,50.4559987 278.395998,50.2540007 278.748,50.114 C279.100002,49.9739993 279.463998,49.904 279.84,49.904 C280.216002,49.904 280.577998,49.9739993 280.926,50.114 C281.274002,50.2540007 281.581999,50.4559987 281.85,50.72 C282.118001,50.9840013 282.331999,51.3099981 282.492,51.698 C282.652001,52.0860019 282.732,52.5279975 282.732,53.024 C282.732,53.5200025 282.652001,53.9619981 282.492,54.35 C282.331999,54.7380019 282.118001,55.0639987 281.85,55.328 C281.581999,55.5920013 281.274002,55.7939993 280.926,55.934 C280.577998,56.0740007 280.216002,56.144 279.84,56.144 C279.463998,56.144 279.100002,56.0740007 278.748,55.934 C278.395998,55.7939993 278.086001,55.5920013 277.818,55.328 C277.549999,55.0639987 277.336001,54.7380019 277.176,54.35 C277.015999,53.9619981 276.936,53.5200025 276.936,53.024 Z M278.748,53.024 C278.748,53.5440026 278.837999,53.9559985 279.018,54.26 C279.198001,54.5640015 279.471998,54.716 279.84,54.716 C280.200002,54.716 280.471999,54.5640015 280.656,54.26 C280.840001,53.9559985 280.932,53.5440026 280.932,53.024 C280.932,52.5039974 280.840001,52.0920015 280.656,51.788 C280.471999,51.4839985 280.200002,51.332 279.84,51.332 C279.471998,51.332 279.198001,51.4839985 279.018,51.788 C278.837999,52.0920015 278.748,52.5039974 278.748,53.024 Z M284.184,51.428 L283.368,51.428 L283.368,50.12 L284.28,50.048 L284.484,48.464 L285.948,48.464 L285.948,50.048 L287.376,50.048 L287.376,51.428 L285.948,51.428 L285.948,53.816 C285.948,54.1520017 286.017999,54.3939993 286.158,54.542 C286.298001,54.6900007 286.483999,54.764 286.716,54.764 C286.812,54.764 286.909999,54.7520001 287.01,54.728 C287.11,54.7039999 287.2,54.6760002 287.28,54.644 L287.556,55.928 C287.395999,55.9760002 287.208001,56.0239998 286.992,56.072 C286.775999,56.1200002 286.524001,56.144 286.236,56.144 C285.867998,56.144 285.554001,56.0880006 285.294,55.976 C285.033999,55.8639994 284.822001,55.708001 284.658,55.508 C284.493999,55.307999 284.374,55.0660014 284.298,54.782 C284.222,54.4979986 284.184,54.1840017 284.184,53.84 L284.184,51.428 Z M289.416,49.172 C289.119999,49.172 288.876001,49.0860009 288.684,48.914 C288.491999,48.7419991 288.396,48.5200014 288.396,48.248 C288.396,47.9759986 288.491999,47.7560008 288.684,47.588 C288.876001,47.4199992 289.119999,47.336 289.416,47.336 C289.720002,47.336 289.965999,47.4199992 290.154,47.588 C290.342001,47.7560008 290.436,47.9759986 290.436,48.248 C290.436,48.5200014 290.342001,48.7419991 290.154,48.914 C289.965999,49.0860009 289.720002,49.172 289.416,49.172 Z M288.54,50.048 L290.304,50.048 L290.304,56 L288.54,56 L288.54,50.048 Z M291.852,50.048 L293.292,50.048 L293.412,50.804 L293.46,50.804 C293.716001,50.5639988 293.995998,50.3540009 294.3,50.174 C294.604002,49.9939991 294.959998,49.904 295.368,49.904 C296.016003,49.904 296.485999,50.1159979 296.778,50.54 C297.070001,50.9640021 297.216,51.5519962 297.216,52.304 L297.216,56 L295.452,56 L295.452,52.532 C295.452,52.0999978 295.394001,51.8040008 295.278,51.644 C295.161999,51.4839992 294.976001,51.404 294.72,51.404 C294.495999,51.404 294.304001,51.4539995 294.144,51.554 C293.983999,51.6540005 293.808001,51.7959991 293.616,51.98 L293.616,56 L291.852,56 L291.852,50.048 Z M299.796,56.744 C299.796,56.9680011 299.915999,57.1379994 300.156,57.254 C300.396001,57.3700006 300.715998,57.428 301.116,57.428 C301.516002,57.428 301.843999,57.3580007 302.1,57.218 C302.356001,57.0779993 302.484,56.904001 302.484,56.696 C302.484,56.5119991 302.406001,56.3880003 302.25,56.324 C302.093999,56.2599997 301.868001,56.228 301.572,56.228 L300.96,56.228 C300.751999,56.228 300.584001,56.2220001 300.456,56.21 C300.327999,56.1979999 300.216,56.1800001 300.12,56.156 C299.903999,56.348001 299.796,56.543999 299.796,56.744 Z M298.344,57.02 C298.344,56.5399976 298.627997,56.1400016 299.196,55.82 L299.196,55.772 C299.035999,55.6679995 298.904001,55.5360008 298.8,55.376 C298.695999,55.2159992 298.644,55.0120012 298.644,54.764 C298.644,54.5479989 298.707999,54.342001 298.836,54.146 C298.964001,53.949999 299.123999,53.7840007 299.316,53.648 L299.316,53.6 C299.107999,53.4559993 298.922001,53.2500013 298.758,52.982 C298.593999,52.7139987 298.512,52.4040018 298.512,52.052 C298.512,51.6919982 298.579999,51.3780013 298.716,51.11 C298.852001,50.8419987 299.033999,50.6180009 299.262,50.438 C299.490001,50.2579991 299.751999,50.1240004 300.048,50.036 C300.344001,49.9479996 300.651998,49.904 300.972,49.904 C301.324002,49.904 301.631999,49.9519995 301.896,50.048 L304.068,50.048 L304.068,51.332 L303.12,51.332 C303.176,51.4200004 303.222,51.5319993 303.258,51.668 C303.294,51.8040007 303.312,51.9519992 303.312,52.112 C303.312,52.4560017 303.252001,52.7539987 303.132,53.006 C303.011999,53.2580013 302.846001,53.4659992 302.634,53.63 C302.421999,53.7940008 302.174001,53.9159996 301.89,53.996 C301.605999,54.0760004 301.300002,54.116 300.972,54.116 C300.739999,54.116 300.500001,54.0760004 300.252,53.996 C300.172,54.0600003 300.116,54.1239997 300.084,54.188 C300.052,54.2520003 300.036,54.3359995 300.036,54.44 C300.036,54.5920008 300.101999,54.7039996 300.234,54.776 C300.366001,54.8480004 300.599998,54.884 300.936,54.884 L301.896,54.884 C302.632004,54.884 303.193998,55.0019988 303.582,55.238 C303.970002,55.4740012 304.164,55.8599973 304.164,56.396 C304.164,56.7080016 304.086001,56.9939987 303.93,57.254 C303.773999,57.5140013 303.552001,57.7379991 303.264,57.926 C302.975999,58.1140009 302.628002,58.2619995 302.22,58.37 C301.811998,58.4780005 301.352003,58.532 300.84,58.532 C300.487998,58.532 300.162001,58.5020003 299.862,58.442 C299.561998,58.3819997 299.298001,58.2920006 299.07,58.172 C298.841999,58.0519994 298.664001,57.896001 298.536,57.704 C298.407999,57.511999 298.344,57.2840013 298.344,57.02 Z M300.972,53.048 C301.204001,53.048 301.397999,52.9660008 301.554,52.802 C301.710001,52.6379992 301.788,52.3880017 301.788,52.052 C301.788,51.7399984 301.710001,51.5020008 301.554,51.338 C301.397999,51.1739992 301.204001,51.092 300.972,51.092 C300.739999,51.092 300.546001,51.1719992 300.39,51.332 C300.233999,51.4920008 300.156,51.7319984 300.156,52.052 C300.156,52.3880017 300.233999,52.6379992 300.39,52.802 C300.546001,52.9660008 300.739999,53.048 300.972,53.048 Z" id="Trouble-Shooting" fill="#FFFFFF"></path>
            <rect id="Rectangle" fill="#545454" x="399" y="0" width="201" height="85"></rect>
            <path d="M413.493421,34 L462.510202,34" id="Line" stroke="#FFFFFF" stroke-width="4" stroke-linecap="square"></path>
            <path d="M411.924,48.176 L413.688,48.176 L413.688,51.188 L416.388,51.188 L416.388,48.176 L418.164,48.176 L418.164,56 L416.388,56 L416.388,52.736 L413.688,52.736 L413.688,56 L411.924,56 L411.924,48.176 Z M420.744,49.172 C420.447999,49.172 420.204001,49.0860009 420.012,48.914 C419.819999,48.7419991 419.724,48.5200014 419.724,48.248 C419.724,47.9759986 419.819999,47.7560008 420.012,47.588 C420.204001,47.4199992 420.447999,47.336 420.744,47.336 C421.048002,47.336 421.293999,47.4199992 421.482,47.588 C421.670001,47.7560008 421.764,47.9759986 421.764,48.248 C421.764,48.5200014 421.670001,48.7419991 421.482,48.914 C421.293999,49.0860009 421.048002,49.172 420.744,49.172 Z M419.868,50.048 L421.632,50.048 L421.632,56 L419.868,56 L419.868,50.048 Z M424.26,56.744 C424.26,56.9680011 424.379999,57.1379994 424.62,57.254 C424.860001,57.3700006 425.179998,57.428 425.58,57.428 C425.980002,57.428 426.307999,57.3580007 426.564,57.218 C426.820001,57.0779993 426.948,56.904001 426.948,56.696 C426.948,56.5119991 426.870001,56.3880003 426.714,56.324 C426.557999,56.2599997 426.332001,56.228 426.036,56.228 L425.424,56.228 C425.215999,56.228 425.048001,56.2220001 424.92,56.21 C424.791999,56.1979999 424.68,56.1800001 424.584,56.156 C424.367999,56.348001 424.26,56.543999 424.26,56.744 Z M422.808,57.02 C422.808,56.5399976 423.091997,56.1400016 423.66,55.82 L423.66,55.772 C423.499999,55.6679995 423.368001,55.5360008 423.264,55.376 C423.159999,55.2159992 423.108,55.0120012 423.108,54.764 C423.108,54.5479989 423.171999,54.342001 423.3,54.146 C423.428001,53.949999 423.587999,53.7840007 423.78,53.648 L423.78,53.6 C423.571999,53.4559993 423.386001,53.2500013 423.222,52.982 C423.057999,52.7139987 422.976,52.4040018 422.976,52.052 C422.976,51.6919982 423.043999,51.3780013 423.18,51.11 C423.316001,50.8419987 423.497999,50.6180009 423.726,50.438 C423.954001,50.2579991 424.215999,50.1240004 424.512,50.036 C424.808001,49.9479996 425.115998,49.904 425.436,49.904 C425.788002,49.904 426.095999,49.9519995 426.36,50.048 L428.532,50.048 L428.532,51.332 L427.584,51.332 C427.64,51.4200004 427.686,51.5319993 427.722,51.668 C427.758,51.8040007 427.776,51.9519992 427.776,52.112 C427.776,52.4560017 427.716001,52.7539987 427.596,53.006 C427.475999,53.2580013 427.310001,53.4659992 427.098,53.63 C426.885999,53.7940008 426.638001,53.9159996 426.354,53.996 C426.069999,54.0760004 425.764002,54.116 425.436,54.116 C425.203999,54.116 424.964001,54.0760004 424.716,53.996 C424.636,54.0600003 424.58,54.1239997 424.548,54.188 C424.516,54.2520003 424.5,54.3359995 424.5,54.44 C424.5,54.5920008 424.565999,54.7039996 424.698,54.776 C424.830001,54.8480004 425.063998,54.884 425.4,54.884 L426.36,54.884 C427.096004,54.884 427.657998,55.0019988 428.046,55.238 C428.434002,55.4740012 428.628,55.8599973 428.628,56.396 C428.628,56.7080016 428.550001,56.9939987 428.394,57.254 C428.237999,57.5140013 428.016001,57.7379991 427.728,57.926 C427.439999,58.1140009 427.092002,58.2619995 426.684,58.37 C426.275998,58.4780005 425.816003,58.532 425.304,58.532 C424.951998,58.532 424.626002,58.5020003 424.326,58.442 C424.025999,58.3819997 423.762001,58.2920006 423.534,58.172 C423.305999,58.0519994 423.128001,57.896001 423,57.704 C422.871999,57.511999 422.808,57.2840013 422.808,57.02 Z M425.436,53.048 C425.668001,53.048 425.861999,52.9660008 426.018,52.802 C426.174001,52.6379992 426.252,52.3880017 426.252,52.052 C426.252,51.7399984 426.174001,51.5020008 426.018,51.338 C425.861999,51.1739992 425.668001,51.092 425.436,51.092 C425.203999,51.092 425.010001,51.1719992 424.854,51.332 C424.697999,51.4920008 424.62,51.7319984 424.62,52.052 C424.62,52.3880017 424.697999,52.6379992 424.854,52.802 C425.010001,52.9660008 425.203999,53.048 425.436,53.048 Z M429.588,47.588 L431.352,47.588 L431.352,49.652 L431.268,50.72 C431.492001,50.519999 431.751999,50.3340009 432.048,50.162 C432.344001,49.9899991 432.695998,49.904 433.104,49.904 C433.752003,49.904 434.221999,50.1159979 434.514,50.54 C434.806001,50.9640021 434.952,51.5519962 434.952,52.304 L434.952,56 L433.188,56 L433.188,52.532 C433.188,52.0999978 433.130001,51.8040008 433.014,51.644 C432.897999,51.4839992 432.712001,51.404 432.456,51.404 C432.231999,51.404 432.040001,51.4539995 431.88,51.554 C431.719999,51.6540005 431.544001,51.7959991 431.352,51.98 L431.352,56 L429.588,56 L429.588,47.588 Z M436.176,52.34 L439.128,52.34 L439.128,53.588 L436.176,53.588 L436.176,52.34 Z M440.568,48.176 L445.464,48.176 L445.464,49.664 L442.332,49.664 L442.332,51.236 L444.996,51.236 L444.996,52.712 L442.332,52.712 L442.332,54.512 L445.584,54.512 L445.584,56 L440.568,56 L440.568,48.176 Z M447,50.048 L448.44,50.048 L448.56,50.804 L448.608,50.804 C448.864001,50.5639988 449.143998,50.3540009 449.448,50.174 C449.752002,49.9939991 450.107998,49.904 450.516,49.904 C451.164003,49.904 451.633999,50.1159979 451.926,50.54 C452.218001,50.9640021 452.364,51.5519962 452.364,52.304 L452.364,56 L450.6,56 L450.6,52.532 C450.6,52.0999978 450.542001,51.8040008 450.426,51.644 C450.309999,51.4839992 450.124001,51.404 449.868,51.404 C449.643999,51.404 449.452001,51.4539995 449.292,51.554 C449.131999,51.6540005 448.956001,51.7959991 448.764,51.98 L448.764,56 L447,56 L447,50.048 Z M453.552,53.024 C453.552,52.5359976 453.621999,52.1000019 453.762,51.716 C453.902001,51.3319981 454.085999,51.0060013 454.314,50.738 C454.542001,50.4699987 454.805998,50.2640007 455.106,50.12 C455.406002,49.9759993 455.711998,49.904 456.024,49.904 C456.360002,49.904 456.635999,49.9599994 456.852,50.072 C457.068001,50.1840006 457.279999,50.335999 457.488,50.528 L457.416,49.616 L457.416,47.588 L459.18,47.588 L459.18,56 L457.74,56 L457.62,55.412 L457.572,55.412 C457.363999,55.620001 457.120001,55.7939993 456.84,55.934 C456.559999,56.0740007 456.276001,56.144 455.988,56.144 C455.619998,56.144 455.286001,56.0720007 454.986,55.928 C454.685998,55.7839993 454.430001,55.5780013 454.218,55.31 C454.005999,55.0419987 453.842001,54.7160019 453.726,54.332 C453.609999,53.9479981 453.552,53.5120024 453.552,53.024 Z M455.364,53 C455.364,53.592003 455.457999,54.0239986 455.646,54.296 C455.834001,54.5680014 456.099998,54.704 456.444,54.704 C456.636001,54.704 456.809999,54.6640004 456.966,54.584 C457.122001,54.5039996 457.271999,54.364001 457.416,54.164 L457.416,51.728 C457.255999,51.5839993 457.092001,51.4840003 456.924,51.428 C456.755999,51.3719997 456.592001,51.344 456.432,51.344 C456.151999,51.344 455.904001,51.4779987 455.688,51.746 C455.471999,52.0140013 455.364,52.4319972 455.364,53 Z M463.884,53.804 C464.164001,54.0440012 464.473998,54.2399992 464.814,54.392 C465.154002,54.5440008 465.487998,54.62 465.816,54.62 C466.184002,54.62 466.457999,54.5520007 466.638,54.416 C466.818001,54.2799993 466.908,54.0960012 466.908,53.864 C466.908,53.7439994 466.882,53.6400004 466.83,53.552 C466.778,53.4639996 466.702,53.3860003 466.602,53.318 C466.502,53.2499997 466.382001,53.1860003 466.242,53.126 L465.78,52.928 L464.76,52.496 C464.559999,52.4159996 464.366001,52.3120006 464.178,52.184 C463.989999,52.0559994 463.822001,51.9060009 463.674,51.734 C463.525999,51.5619991 463.408,51.3620011 463.32,51.134 C463.232,50.9059989 463.188,50.6480014 463.188,50.36 C463.188,50.0399984 463.255999,49.7380014 463.392,49.454 C463.528001,49.1699986 463.719999,48.9220011 463.968,48.71 C464.216001,48.4979989 464.509998,48.3320006 464.85,48.212 C465.190002,48.0919994 465.563998,48.032 465.972,48.032 C466.428002,48.032 466.877998,48.1199991 467.322,48.296 C467.766002,48.4720009 468.155998,48.7279983 468.492,49.064 L467.592,50.18 C467.335999,49.979999 467.080001,49.8260005 466.824,49.718 C466.567999,49.6099995 466.284002,49.556 465.972,49.556 C465.667998,49.556 465.426001,49.6179994 465.246,49.742 C465.065999,49.8660006 464.976,50.0399989 464.976,50.264 C464.976,50.3840006 465.006,50.4859996 465.066,50.57 C465.126,50.6540004 465.209999,50.7299997 465.318,50.798 C465.426001,50.8660003 465.551999,50.9299997 465.696,50.99 C465.840001,51.0500003 465.995999,51.1159996 466.164,51.188 L467.172,51.596 C467.652002,51.788001 468.029999,52.0519983 468.306,52.388 C468.582001,52.7240017 468.72,53.1679972 468.72,53.72 C468.72,54.0480016 468.654001,54.3579985 468.522,54.65 C468.389999,54.9420015 468.198001,55.1979989 467.946,55.418 C467.693999,55.6380011 467.384002,55.8139993 467.016,55.946 C466.647998,56.0780007 466.232002,56.144 465.768,56.144 C465.255997,56.144 464.746003,56.0500009 464.238,55.862 C463.729997,55.6739991 463.276002,55.3920019 462.876,55.016 L463.884,53.804 Z M469.56,53.024 C469.56,52.5279975 469.639999,52.0860019 469.8,51.698 C469.960001,51.3099981 470.173999,50.9840013 470.442,50.72 C470.710001,50.4559987 471.019998,50.2540007 471.372,50.114 C471.724002,49.9739993 472.087998,49.904 472.464,49.904 C472.840002,49.904 473.201998,49.9739993 473.55,50.114 C473.898002,50.2540007 474.205999,50.4559987 474.474,50.72 C474.742001,50.9840013 474.955999,51.3099981 475.116,51.698 C475.276001,52.0860019 475.356,52.5279975 475.356,53.024 C475.356,53.5200025 475.276001,53.9619981 475.116,54.35 C474.955999,54.7380019 474.742001,55.0639987 474.474,55.328 C474.205999,55.5920013 473.898002,55.7939993 473.55,55.934 C473.201998,56.0740007 472.840002,56.144 472.464,56.144 C472.087998,56.144 471.724002,56.0740007 471.372,55.934 C471.019998,55.7939993 470.710001,55.5920013 470.442,55.328 C470.173999,55.0639987 469.960001,54.7380019 469.8,54.35 C469.639999,53.9619981 469.56,53.5200025 469.56,53.024 Z M471.372,53.024 C471.372,53.5440026 471.461999,53.9559985 471.642,54.26 C471.822001,54.5640015 472.095998,54.716 472.464,54.716 C472.824002,54.716 473.095999,54.5640015 473.28,54.26 C473.464001,53.9559985 473.556,53.5440026 473.556,53.024 C473.556,52.5039974 473.464001,52.0920015 473.28,51.788 C473.095999,51.4839985 472.824002,51.332 472.464,51.332 C472.095998,51.332 471.822001,51.4839985 471.642,51.788 C471.461999,52.0920015 471.372,52.5039974 471.372,53.024 Z M476.568,47.588 L478.332,47.588 L478.332,54.224 C478.332,54.4080009 478.366,54.5359996 478.434,54.608 C478.502,54.6800004 478.572,54.716 478.644,54.716 L478.746,54.716 C478.774,54.716 478.812,54.7080001 478.86,54.692 L479.076,56 C478.98,56.0400002 478.858001,56.0739999 478.71,56.102 C478.561999,56.1300001 478.388001,56.144 478.188,56.144 C477.883998,56.144 477.628001,56.0960005 477.42,56 C477.211999,55.9039995 477.046001,55.7700009 476.922,55.598 C476.797999,55.4259991 476.708,55.2180012 476.652,54.974 C476.596,54.7299988 476.568,54.4560015 476.568,54.152 L476.568,47.588 Z M479.94,50.048 L481.704,50.048 L481.704,53.516 C481.704,53.9480022 481.763999,54.2439992 481.884,54.404 C482.004001,54.5640008 482.191999,54.644 482.448,54.644 C482.672001,54.644 482.859999,54.5920005 483.012,54.488 C483.164001,54.3839995 483.327999,54.2160012 483.504,53.984 L483.504,50.048 L485.268,50.048 L485.268,56 L483.828,56 L483.696,55.172 L483.66,55.172 C483.403999,55.4760015 483.130001,55.7139991 482.838,55.886 C482.545999,56.0580009 482.196002,56.144 481.788,56.144 C481.139997,56.144 480.670001,55.9320021 480.378,55.508 C480.085999,55.0839979 479.94,54.4960038 479.94,53.744 L479.94,50.048 Z M487.056,51.428 L486.24,51.428 L486.24,50.12 L487.152,50.048 L487.356,48.464 L488.82,48.464 L488.82,50.048 L490.248,50.048 L490.248,51.428 L488.82,51.428 L488.82,53.816 C488.82,54.1520017 488.889999,54.3939993 489.03,54.542 C489.170001,54.6900007 489.355999,54.764 489.588,54.764 C489.684,54.764 489.781999,54.7520001 489.882,54.728 C489.982001,54.7039999 490.072,54.6760002 490.152,54.644 L490.428,55.928 C490.267999,55.9760002 490.080001,56.0239998 489.864,56.072 C489.647999,56.1200002 489.396001,56.144 489.108,56.144 C488.739998,56.144 488.426001,56.0880006 488.166,55.976 C487.905999,55.8639994 487.694001,55.708001 487.53,55.508 C487.365999,55.307999 487.246,55.0660014 487.17,54.782 C487.094,54.4979986 487.056,54.1840017 487.056,53.84 L487.056,51.428 Z M492.288,49.172 C491.991999,49.172 491.748001,49.0860009 491.556,48.914 C491.363999,48.7419991 491.268,48.5200014 491.268,48.248 C491.268,47.9759986 491.363999,47.7560008 491.556,47.588 C491.748001,47.4199992 491.991999,47.336 492.288,47.336 C492.592002,47.336 492.837999,47.4199992 493.026,47.588 C493.214001,47.7560008 493.308,47.9759986 493.308,48.248 C493.308,48.5200014 493.214001,48.7419991 493.026,48.914 C492.837999,49.0860009 492.592002,49.172 492.288,49.172 Z M491.412,50.048 L493.176,50.048 L493.176,56 L491.412,56 L491.412,50.048 Z M494.376,53.024 C494.376,52.5279975 494.455999,52.0860019 494.616,51.698 C494.776001,51.3099981 494.989999,50.9840013 495.258,50.72 C495.526001,50.4559987 495.835998,50.2540007 496.188,50.114 C496.540002,49.9739993 496.903998,49.904 497.28,49.904 C497.656002,49.904 498.017998,49.9739993 498.366,50.114 C498.714002,50.2540007 499.021999,50.4559987 499.29,50.72 C499.558001,50.9840013 499.771999,51.3099981 499.932,51.698 C500.092001,52.0860019 500.172,52.5279975 500.172,53.024 C500.172,53.5200025 500.092001,53.9619981 499.932,54.35 C499.771999,54.7380019 499.558001,55.0639987 499.29,55.328 C499.021999,55.5920013 498.714002,55.7939993 498.366,55.934 C498.017998,56.0740007 497.656002,56.144 497.28,56.144 C496.903998,56.144 496.540002,56.0740007 496.188,55.934 C495.835998,55.7939993 495.526001,55.5920013 495.258,55.328 C494.989999,55.0639987 494.776001,54.7380019 494.616,54.35 C494.455999,53.9619981 494.376,53.5200025 494.376,53.024 Z M496.188,53.024 C496.188,53.5440026 496.277999,53.9559985 496.458,54.26 C496.638001,54.5640015 496.911998,54.716 497.28,54.716 C497.640002,54.716 497.911999,54.5640015 498.096,54.26 C498.280001,53.9559985 498.372,53.5440026 498.372,53.024 C498.372,52.5039974 498.280001,52.0920015 498.096,51.788 C497.911999,51.4839985 497.640002,51.332 497.28,51.332 C496.911998,51.332 496.638001,51.4839985 496.458,51.788 C496.277999,52.0920015 496.188,52.5039974 496.188,53.024 Z M501.384,50.048 L502.824,50.048 L502.944,50.804 L502.992,50.804 C503.248001,50.5639988 503.527998,50.3540009 503.832,50.174 C504.136002,49.9939991 504.491998,49.904 504.9,49.904 C505.548003,49.904 506.017999,50.1159979 506.31,50.54 C506.602001,50.9640021 506.748,51.5519962 506.748,52.304 L506.748,56 L504.984,56 L504.984,52.532 C504.984,52.0999978 504.926001,51.8040008 504.81,51.644 C504.693999,51.4839992 504.508001,51.404 504.252,51.404 C504.027999,51.404 503.836001,51.4539995 503.676,51.554 C503.515999,51.6540005 503.340001,51.7959991 503.148,51.98 L503.148,56 L501.384,56 L501.384,50.048 Z M508.512,54.212 C508.784001,54.420001 509.043999,54.5759995 509.292,54.68 C509.540001,54.7840005 509.791999,54.836 510.048,54.836 C510.312001,54.836 510.503999,54.7920004 510.624,54.704 C510.744001,54.6159996 510.804,54.4920008 510.804,54.332 C510.804,54.2359995 510.77,54.1500004 510.702,54.074 C510.634,53.9979996 510.542001,53.9280003 510.426,53.864 C510.309999,53.7999997 510.180001,53.7420003 510.036,53.69 C509.891999,53.6379997 509.744001,53.5800003 509.592,53.516 C509.407999,53.4439996 509.224001,53.3600005 509.04,53.264 C508.855999,53.1679995 508.688001,53.0500007 508.536,52.91 C508.383999,52.7699993 508.26,52.6060009 508.164,52.418 C508.068,52.2299991 508.02,52.0120012 508.02,51.764 C508.02,51.4919986 508.073999,51.2400012 508.182,51.008 C508.290001,50.7759988 508.443999,50.5800008 508.644,50.42 C508.844001,50.2599992 509.083999,50.1340005 509.364,50.042 C509.644001,49.9499995 509.955998,49.904 510.3,49.904 C510.756002,49.904 511.155998,49.9819992 511.5,50.138 C511.844002,50.2940008 512.143999,50.467999 512.4,50.66 L511.608,51.716 C511.391999,51.5559992 511.180001,51.4320004 510.972,51.344 C510.763999,51.2559996 510.556001,51.212 510.348,51.212 C509.899998,51.212 509.676,51.3679984 509.676,51.68 C509.676,51.7760005 509.708,51.8579997 509.772,51.926 C509.836,51.9940003 509.921999,52.0559997 510.03,52.112 C510.138001,52.1680003 510.261999,52.2219997 510.402,52.274 C510.542001,52.3260003 510.687999,52.3799997 510.84,52.436 C511.032001,52.5080004 511.221999,52.5899995 511.41,52.682 C511.598001,52.7740005 511.769999,52.8879993 511.926,53.024 C512.082001,53.1600007 512.208,53.325999 512.304,53.522 C512.4,53.718001 512.448,53.9519986 512.448,54.224 C512.448,54.4960014 512.396001,54.7479988 512.292,54.98 C512.187999,55.2120012 512.032001,55.4139991 511.824,55.586 C511.615999,55.7580009 511.360002,55.8939995 511.056,55.994 C510.751998,56.0940005 510.400002,56.144 510,56.144 C509.607998,56.144 509.206002,56.0680008 508.794,55.916 C508.381998,55.7639992 508.024002,55.5640012 507.72,55.316 L508.512,54.212 Z" id="High-End-Solutions" fill="#FFFFFF"></path>
        </g>
    </g>
</svg>