<?xml version="1.0" encoding="UTF-8"?>
<svg width="600px" height="219px" viewBox="0 0 600 219" version="1.1" xmlns="http://www.w3.org/2000/svg" xmlns:xlink="http://www.w3.org/1999/xlink">
    <!-- Generator: Sketch 44.1 (41455) - http://www.bohemiancoding.com/sketch -->
    <title>image_text06</title>
    <desc>Created with Sketch.</desc>
    <defs>
        <rect id="path-1" x="414" y="0" width="186" height="219"></rect>
        <mask id="mask-2" maskContentUnits="userSpaceOnUse" maskUnits="objectBoundingBox" x="0" y="0" width="186" height="219" fill="white">
            <use xlink:href="#path-1"></use>
        </mask>
    </defs>
    <g id="Image/Text-Blocks" stroke="none" stroke-width="1" fill="none" fill-rule="evenodd">
        <g id="06">
            <path d="M2.63219136,113 L359.331568,113" id="Line" stroke="#979797" stroke-width="4" stroke-linecap="square"></path>
            <path d="M2.63219136,126 L359.331568,126" id="Line" stroke="#979797" stroke-width="4" stroke-linecap="square"></path>
            <path d="M2.63219136,139 L359.331568,139" id="Line" stroke="#979797" stroke-width="4" stroke-linecap="square"></path>
            <path d="M2.63219136,152 L359.331568,152" id="Line" stroke="#979797" stroke-width="4" stroke-linecap="square"></path>
            <use id="Rectangle-9" stroke="#979797" mask="url(#mask-2)" stroke-width="2" fill="#F2F2F2" stroke-dasharray="4" xlink:href="#path-1"></use>
            <g id="icon-picture" opacity="0.699999988" transform="translate(476.000000, 88.000000)" stroke="#979797">
                <polyline id="Path-15" stroke-width="2" points="1.27086707 36.8577552 21.6022189 15.6769033 35.892556 30.6899669 44.262713 21.8964934 60.1071177 38.5422208"></polyline>
                <circle id="Oval-6" fill="#D8D8D8" cx="50" cy="11" r="3"></circle>
                <rect id="Rectangle-10" stroke-width="2" x="1" y="1" width="59" height="41" rx="3"></rect>
            </g>
            <path d="M5.424,36.936 L0.672,36.936 L0.672,35.256 L12.192,35.256 L12.192,36.936 L7.44,36.936 L7.44,51 L5.424,51 L5.424,36.936 Z M13.968,45.192 C13.968,44.2319952 14.1159985,43.3720038 14.412,42.612 C14.7080015,41.8519962 15.0999976,41.2080026 15.588,40.68 C16.0760024,40.1519974 16.6319969,39.7480014 17.256,39.468 C17.8800031,39.1879986 18.5279966,39.048 19.2,39.048 C19.9360037,39.048 20.5959971,39.1759987 21.18,39.432 C21.7640029,39.6880013 22.251998,40.0559976 22.644,40.536 C23.036002,41.0160024 23.335999,41.5919966 23.544,42.264 C23.752001,42.9360034 23.856,43.6879958 23.856,44.52 C23.856,44.9520022 23.8320002,45.3119986 23.784,45.6 L15.912,45.6 C15.9920004,46.8640063 16.3799965,47.8639963 17.076,48.6 C17.7720035,49.3360037 18.6799944,49.704 19.8,49.704 C20.3600028,49.704 20.8759976,49.6200008 21.348,49.452 C21.8200024,49.2839992 22.2719978,49.0640014 22.704,48.792 L23.4,50.088 C22.8879974,50.4080016 22.3200031,50.6879988 21.696,50.928 C21.0719969,51.1680012 20.360004,51.288 19.56,51.288 C18.7759961,51.288 18.0440034,51.1480014 17.364,50.868 C16.6839966,50.5879986 16.0920025,50.1880026 15.588,49.668 C15.0839975,49.1479974 14.6880014,48.5120038 14.4,47.76 C14.1119986,47.0079962 13.968,46.1520048 13.968,45.192 Z M22.128,44.304 C22.128,43.103994 21.8760025,42.1880032 21.372,41.556 C20.8679975,40.9239968 20.1600046,40.608 19.248,40.608 C18.8319979,40.608 18.4360019,40.6919992 18.06,40.86 C17.6839981,41.0280008 17.3440015,41.2679984 17.04,41.58 C16.7359985,41.8920016 16.484001,42.2759977 16.284,42.732 C16.083999,43.1880023 15.9520003,43.711997 15.888,44.304 L22.128,44.304 Z M28.92,44.904 L25.392,39.336 L27.528,39.336 L29.088,41.904 C29.2640009,42.2240016 29.447999,42.5479984 29.64,42.876 C29.832001,43.2040016 30.031999,43.5279984 30.24,43.848 L30.336,43.848 C30.5120009,43.5279984 30.6879991,43.2040016 30.864,42.876 C31.0400009,42.5479984 31.2159991,42.2240016 31.392,41.904 L32.808,39.336 L34.872,39.336 L31.344,45.12 L35.136,51 L33,51 L31.296,48.288 L30.672,47.232 C30.463999,46.8799982 30.2480011,46.5360017 30.024,46.2 L29.928,46.2 C29.719999,46.5360017 29.520001,46.8759983 29.328,47.22 C29.135999,47.5640017 28.944001,47.9199982 28.752,48.288 L27.168,51 L25.104,51 L28.92,44.904 Z M37.776,40.944 L36.048,40.944 L36.048,39.456 L37.872,39.336 L38.112,36.072 L39.768,36.072 L39.768,39.336 L42.912,39.336 L42.912,40.944 L39.768,40.944 L39.768,47.424 C39.768,48.1440036 39.8999987,48.699998 40.164,49.092 C40.4280013,49.484002 40.8959966,49.68 41.568,49.68 C41.776001,49.68 41.9999988,49.6480003 42.24,49.584 C42.4800012,49.5199997 42.695999,49.4480004 42.888,49.368 L43.272,50.856 C42.9519984,50.9680006 42.6040019,51.0679996 42.228,51.156 C41.8519981,51.2440004 41.4800018,51.288 41.112,51.288 C40.4879969,51.288 39.9640021,51.192001 39.54,51 C39.1159979,50.807999 38.7720013,50.5440017 38.508,50.208 C38.2439987,49.8719983 38.0560006,49.4640024 37.944,48.984 C37.8319994,48.5039976 37.776,47.9760029 37.776,47.4 L37.776,40.944 Z M49.008,39.336 L51.024,39.336 L52.752,46.08 C52.8800006,46.6400028 52.9999994,47.1839974 53.112,47.712 C53.2240006,48.2400026 53.3359994,48.7759973 53.448,49.32 L53.544,49.32 C53.6720006,48.7759973 53.7999994,48.2360027 53.928,47.7 C54.0560006,47.1639973 54.1919993,46.6240027 54.336,46.08 L56.136,39.336 L58.056,39.336 L59.88,46.08 C60.0240007,46.6400028 60.1639993,47.1839974 60.3,47.712 C60.4360007,48.2400026 60.5679994,48.7759973 60.696,49.32 L60.792,49.32 C60.9200006,48.7759973 61.0399994,48.2400026 61.152,47.712 C61.2640006,47.1839974 61.3839994,46.6400028 61.512,46.08 L63.216,39.336 L65.088,39.336 L61.968,51 L59.568,51 L57.888,44.736 C57.7439993,44.1759972 57.6120006,43.6240027 57.492,43.08 C57.3719994,42.5359973 57.2400007,41.968003 57.096,41.376 L57,41.376 C56.8719994,41.968003 56.7440006,42.5399972 56.616,43.092 C56.4879994,43.6440028 56.3440008,44.1999972 56.184,44.76 L54.552,51 L52.248,51 L49.008,39.336 Z M68.64,36.936 C68.2559981,36.936 67.9320013,36.8160012 67.668,36.576 C67.4039987,36.3359988 67.272,36.0320018 67.272,35.664 C67.272,35.2799981 67.4039987,34.9720012 67.668,34.74 C67.9320013,34.5079988 68.2559981,34.392 68.64,34.392 C69.0240019,34.392 69.3479987,34.5079988 69.612,34.74 C69.8760013,34.9720012 70.008,35.2799981 70.008,35.664 C70.008,36.0320018 69.8760013,36.3359988 69.612,36.576 C69.3479987,36.8160012 69.0240019,36.936 68.64,36.936 Z M67.632,39.336 L69.6,39.336 L69.6,51 L67.632,51 L67.632,39.336 Z M73.872,40.944 L72.144,40.944 L72.144,39.456 L73.968,39.336 L74.208,36.072 L75.864,36.072 L75.864,39.336 L79.008,39.336 L79.008,40.944 L75.864,40.944 L75.864,47.424 C75.864,48.1440036 75.9959987,48.699998 76.26,49.092 C76.5240013,49.484002 76.9919966,49.68 77.664,49.68 C77.872001,49.68 78.0959988,49.6480003 78.336,49.584 C78.5760012,49.5199997 78.791999,49.4480004 78.984,49.368 L79.368,50.856 C79.0479984,50.9680006 78.7000019,51.0679996 78.324,51.156 C77.9479981,51.2440004 77.5760018,51.288 77.208,51.288 C76.5839969,51.288 76.0600021,51.192001 75.636,51 C75.2119979,50.807999 74.8680013,50.5440017 74.604,50.208 C74.3399987,49.8719983 74.1520006,49.4640024 74.04,48.984 C73.9279994,48.5039976 73.872,47.9760029 73.872,47.4 L73.872,40.944 Z M81.648,33.912 L83.616,33.912 L83.616,38.568 L83.544,40.968 C84.1040028,40.4399974 84.687997,39.9880019 85.296,39.612 C85.904003,39.2359981 86.6159959,39.048 87.432,39.048 C88.6640062,39.048 89.5639972,39.4319962 90.132,40.2 C90.7000028,40.9680038 90.984,42.1039925 90.984,43.608 L90.984,51 L89.016,51 L89.016,43.872 C89.016,42.7679945 88.8400018,41.9720024 88.488,41.484 C88.1359982,40.9959976 87.5760038,40.752 86.808,40.752 C86.199997,40.752 85.6640023,40.9039985 85.2,41.208 C84.7359977,41.5120015 84.208003,41.959997 83.616,42.552 L83.616,51 L81.648,51 L81.648,33.912 Z M2.976,63.936 C2.59199808,63.936 2.26800132,63.8160012 2.004,63.576 C1.73999868,63.3359988 1.608,63.0320018 1.608,62.664 C1.608,62.2799981 1.73999868,61.9720012 2.004,61.74 C2.26800132,61.5079988 2.59199808,61.392 2.976,61.392 C3.36000192,61.392 3.68399868,61.5079988 3.948,61.74 C4.21200132,61.9720012 4.344,62.2799981 4.344,62.664 C4.344,63.0320018 4.21200132,63.3359988 3.948,63.576 C3.68399868,63.8160012 3.36000192,63.936 2.976,63.936 Z M1.968,66.336 L3.936,66.336 L3.936,78 L1.968,78 L1.968,66.336 Z M7.872,66.336 L9.504,66.336 L9.672,68.016 L9.744,68.016 C10.2560026,67.4559972 10.811997,66.9880019 11.412,66.612 C12.012003,66.2359981 12.6639965,66.048 13.368,66.048 C14.2640045,66.048 14.9639975,66.243998 15.468,66.636 C15.9720025,67.028002 16.3439988,67.5759965 16.584,68.28 C17.192003,67.6079966 17.8039969,67.068002 18.42,66.66 C19.0360031,66.251998 19.7039964,66.048 20.424,66.048 C21.624006,66.048 22.5159971,66.4319962 23.1,67.2 C23.6840029,67.9680038 23.976,69.1039925 23.976,70.608 L23.976,78 L22.008,78 L22.008,70.872 C22.008,69.7679945 21.8320018,68.9720024 21.48,68.484 C21.1279982,67.9959976 20.5840037,67.752 19.848,67.752 C18.9679956,67.752 17.9920054,68.351994 16.92,69.552 L16.92,78 L14.952,78 L14.952,70.872 C14.952,69.7679945 14.7760018,68.9720024 14.424,68.484 C14.0719982,67.9959976 13.5200038,67.752 12.768,67.752 C11.8879956,67.752 10.9120054,68.351994 9.84,69.552 L9.84,78 L7.872,78 L7.872,66.336 Z M27.192,74.976 C27.192,73.6959936 27.7639943,72.7160034 28.908,72.036 C30.0520057,71.3559966 31.8719875,70.8800014 34.368,70.608 C34.368,70.2399982 34.3320004,69.8800018 34.26,69.528 C34.1879996,69.1759982 34.0600009,68.8640014 33.876,68.592 C33.6919991,68.3199986 33.4480015,68.1000008 33.144,67.932 C32.8399985,67.7639992 32.4480024,67.68 31.968,67.68 C31.2799966,67.68 30.6440029,67.8079987 30.06,68.064 C29.4759971,68.3200013 28.9520023,68.6079984 28.488,68.928 L27.696,67.56 C28.2400027,67.2079982 28.9039961,66.8680016 29.688,66.54 C30.4720039,66.2119984 31.3359953,66.048 32.28,66.048 C33.7040071,66.048 34.7359968,66.4839956 35.376,67.356 C36.0160032,68.2280044 36.336,69.3919927 36.336,70.848 L36.336,78 L34.704,78 L34.536,76.608 L34.488,76.608 C33.9279972,77.0720023 33.3240032,77.4679984 32.676,77.796 C32.0279968,78.1240016 31.3440036,78.288 30.624,78.288 C29.631995,78.288 28.8120032,78.0000029 28.164,77.424 C27.5159968,76.8479971 27.192,76.0320053 27.192,74.976 Z M29.136,74.832 C29.136,75.5040034 29.331998,75.9839986 29.724,76.272 C30.116002,76.5600014 30.5999971,76.704 31.176,76.704 C31.7360028,76.704 32.2679975,76.5720013 32.772,76.308 C33.2760025,76.0439987 33.8079972,75.6560026 34.368,75.144 L34.368,71.904 C33.3919951,72.0320006 32.5680034,72.1839991 31.896,72.36 C31.2239966,72.5360009 30.684002,72.7439988 30.276,72.984 C29.867998,73.2240012 29.5760009,73.4999984 29.4,73.812 C29.2239991,74.1240016 29.136,74.4639982 29.136,74.832 Z M40.896,79.968 C40.896,80.5920031 41.195997,81.0879982 41.796,81.456 C42.396003,81.8240018 43.2239947,82.008 44.28,82.008 C44.8400028,82.008 45.3479977,81.9400007 45.804,81.804 C46.2600023,81.6679993 46.6479984,81.4920011 46.968,81.276 C47.2880016,81.0599989 47.5359991,80.8080014 47.712,80.52 C47.8880009,80.2319986 47.976,79.9360015 47.976,79.632 C47.976,79.0879973 47.776002,78.712001 47.376,78.504 C46.975998,78.295999 46.3920038,78.192 45.624,78.192 L43.608,78.192 C43.3839989,78.192 43.1400013,78.1800001 42.876,78.156 C42.6119987,78.1319999 42.3520013,78.0800004 42.096,78 C41.6799979,78.3040015 41.376001,78.6239983 41.184,78.96 C40.991999,79.2960017 40.896,79.6319983 40.896,79.968 Z M39.168,80.232 C39.168,79.7359975 39.3199985,79.2640022 39.624,78.816 C39.9280015,78.3679978 40.3439974,77.9600018 40.872,77.592 L40.872,77.496 C40.5839986,77.3199991 40.340001,77.0760016 40.14,76.764 C39.939999,76.4519984 39.84,76.0640023 39.84,75.6 C39.84,75.1039975 39.9759986,74.6720018 40.248,74.304 C40.5200014,73.9359982 40.8079985,73.648001 41.112,73.44 L41.112,73.344 C40.7279981,73.0239984 40.3800016,72.5960027 40.068,72.06 C39.7559984,71.5239973 39.6,70.9040035 39.6,70.2 C39.6,69.5599968 39.7159988,68.9840026 39.948,68.472 C40.1800012,67.9599974 40.495998,67.5240018 40.896,67.164 C41.296002,66.8039982 41.7639973,66.528001 42.3,66.336 C42.8360027,66.143999 43.399997,66.048 43.992,66.048 C44.3120016,66.048 44.6119986,66.0759997 44.892,66.132 C45.1720014,66.1880003 45.4239989,66.2559996 45.648,66.336 L49.704,66.336 L49.704,67.848 L47.304,67.848 C47.5760014,68.1200014 47.8039991,68.4639979 47.988,68.88 C48.1720009,69.2960021 48.264,69.7519975 48.264,70.248 C48.264,70.8720031 48.1520011,71.4359975 47.928,71.94 C47.7039989,72.4440025 47.4000019,72.8679983 47.016,73.212 C46.6319981,73.5560017 46.1800026,73.823999 45.66,74.016 C45.1399974,74.208001 44.584003,74.304 43.992,74.304 C43.7039986,74.304 43.4080015,74.2680004 43.104,74.196 C42.7999985,74.1239996 42.5120014,74.0240006 42.24,73.896 C42.031999,74.0720009 41.8560007,74.2679989 41.712,74.484 C41.5679993,74.7000011 41.496,74.9679984 41.496,75.288 C41.496,75.6560018 41.6399986,75.9599988 41.928,76.2 C42.2160014,76.4400012 42.759996,76.56 43.56,76.56 L45.816,76.56 C47.1760068,76.56 48.1959966,76.7799978 48.876,77.22 C49.5560034,77.6600022 49.896,78.3679951 49.896,79.344 C49.896,79.8880027 49.7600014,80.4039976 49.488,80.892 C49.2159986,81.3800024 48.8240026,81.8079982 48.312,82.176 C47.7999974,82.5440018 47.1800036,82.8359989 46.452,83.052 C45.7239964,83.2680011 44.9040046,83.376 43.992,83.376 C43.2719964,83.376 42.616003,83.3080007 42.024,83.172 C41.431997,83.0359993 40.9240021,82.8320014 40.5,82.56 C40.0759979,82.2879986 39.7480012,81.9600019 39.516,81.576 C39.2839988,81.1919981 39.168,80.7440026 39.168,80.232 Z M43.992,72.984 C44.3280017,72.984 44.6439985,72.9200006 44.94,72.792 C45.2360015,72.6639994 45.4999988,72.4800012 45.732,72.24 C45.9640012,71.9999988 46.1439994,71.7080017 46.272,71.364 C46.4000006,71.0199983 46.464,70.6320022 46.464,70.2 C46.464,69.3359957 46.2240024,68.6680024 45.744,68.196 C45.2639976,67.7239976 44.6800034,67.488 43.992,67.488 C43.3039966,67.488 42.7200024,67.7239976 42.24,68.196 C41.7599976,68.6680024 41.52,69.3359957 41.52,70.2 C41.52,70.6320022 41.5839994,71.0199983 41.712,71.364 C41.8400006,71.7080017 42.0199988,71.9999988 42.252,72.24 C42.4840012,72.4800012 42.7479985,72.6639994 43.044,72.792 C43.3400015,72.9200006 43.6559983,72.984 43.992,72.984 Z M51.288,72.192 C51.288,71.2319952 51.4359985,70.3720038 51.732,69.612 C52.0280015,68.8519962 52.4199976,68.2080026 52.908,67.68 C53.3960024,67.1519974 53.9519969,66.7480014 54.576,66.468 C55.2000031,66.1879986 55.8479966,66.048 56.52,66.048 C57.2560037,66.048 57.9159971,66.1759987 58.5,66.432 C59.0840029,66.6880013 59.571998,67.0559976 59.964,67.536 C60.356002,68.0160024 60.655999,68.5919966 60.864,69.264 C61.072001,69.9360034 61.176,70.6879958 61.176,71.52 C61.176,71.9520022 61.1520002,72.3119986 61.104,72.6 L53.232,72.6 C53.3120004,73.8640063 53.6999965,74.8639963 54.396,75.6 C55.0920035,76.3360037 55.9999944,76.704 57.12,76.704 C57.6800028,76.704 58.1959976,76.6200008 58.668,76.452 C59.1400024,76.2839992 59.5919978,76.0640014 60.024,75.792 L60.72,77.088 C60.2079974,77.4080016 59.6400031,77.6879988 59.016,77.928 C58.3919969,78.1680012 57.680004,78.288 56.88,78.288 C56.0959961,78.288 55.3640034,78.1480014 54.684,77.868 C54.0039966,77.5879986 53.4120025,77.1880026 52.908,76.668 C52.4039975,76.1479974 52.0080014,75.5120038 51.72,74.76 C51.4319986,74.0079962 51.288,73.1520048 51.288,72.192 Z M59.448,71.304 C59.448,70.103994 59.1960025,69.1880032 58.692,68.556 C58.1879975,67.9239968 57.4800046,67.608 56.568,67.608 C56.1519979,67.608 55.7560019,67.6919992 55.38,67.86 C55.0039981,68.0280008 54.6640015,68.2679984 54.36,68.58 C54.0559985,68.8920016 53.804001,69.2759977 53.604,69.732 C53.403999,70.1880023 53.2720003,70.711997 53.208,71.304 L59.448,71.304 Z M68.592,75.36 C69.1040026,75.7760021 69.6279973,76.1119987 70.164,76.368 C70.7000027,76.6240013 71.3199965,76.752 72.024,76.752 C72.7920038,76.752 73.3679981,76.5760018 73.752,76.224 C74.1360019,75.8719982 74.328,75.4400026 74.328,74.928 C74.328,74.6239985 74.2480008,74.3600011 74.088,74.136 C73.9279992,73.9119989 73.7240012,73.7160008 73.476,73.548 C73.2279988,73.3799992 72.9440016,73.2320006 72.624,73.104 L71.664,72.72 C71.2479979,72.5759993 70.8320021,72.4120009 70.416,72.228 C69.9999979,72.0439991 69.6280016,71.8200013 69.3,71.556 C68.9719984,71.2919987 68.704001,70.9840018 68.496,70.632 C68.287999,70.2799982 68.184,69.8560025 68.184,69.36 C68.184,68.8959977 68.2759991,68.460002 68.46,68.052 C68.6440009,67.643998 68.9079983,67.2920015 69.252,66.996 C69.5960017,66.6999985 70.0159975,66.4680008 70.512,66.3 C71.0080025,66.1319992 71.5679969,66.048 72.192,66.048 C72.9280037,66.048 73.6039969,66.1759987 74.22,66.432 C74.8360031,66.6880013 75.3679978,66.9999982 75.816,67.368 L74.88,68.616 C74.479998,68.3119985 74.0640022,68.064001 73.632,67.872 C73.1999978,67.679999 72.7280026,67.584 72.216,67.584 C71.4799963,67.584 70.9400017,67.7519983 70.596,68.088 C70.2519983,68.4240017 70.08,68.8159978 70.08,69.264 C70.08,69.5360014 70.1519993,69.771999 70.296,69.972 C70.4400007,70.172001 70.6319988,70.3479992 70.872,70.5 C71.1120012,70.6520008 71.3879984,70.7879994 71.7,70.908 C72.0120016,71.0280006 72.3359983,71.1519994 72.672,71.28 C73.0880021,71.4400008 73.5079979,71.6079991 73.932,71.784 C74.3560021,71.9600009 74.7359983,72.1799987 75.072,72.444 C75.4080017,72.7080013 75.6839989,73.0319981 75.9,73.416 C76.1160011,73.8000019 76.224,74.2639973 76.224,74.808 C76.224,75.2880024 76.1320009,75.7359979 75.948,76.152 C75.7639991,76.5680021 75.4920018,76.9359984 75.132,77.256 C74.7719982,77.5760016 74.3240027,77.8279991 73.788,78.012 C73.2519973,78.1960009 72.6400034,78.288 71.952,78.288 C71.1199958,78.288 70.3280038,78.1360015 69.576,77.832 C68.8239962,77.5279985 68.1680028,77.1440023 67.608,76.68 L68.592,75.36 Z M78.096,72.192 C78.096,71.2319952 78.2439985,70.3720038 78.54,69.612 C78.8360015,68.8519962 79.2279976,68.2080026 79.716,67.68 C80.2040024,67.1519974 80.7599969,66.7480014 81.384,66.468 C82.0080031,66.1879986 82.6559966,66.048 83.328,66.048 C84.0640037,66.048 84.7239971,66.1759987 85.308,66.432 C85.8920029,66.6880013 86.379998,67.0559976 86.772,67.536 C87.164002,68.0160024 87.463999,68.5919966 87.672,69.264 C87.880001,69.9360034 87.984,70.6879958 87.984,71.52 C87.984,71.9520022 87.9600002,72.3119986 87.912,72.6 L80.04,72.6 C80.1200004,73.8640063 80.5079965,74.8639963 81.204,75.6 C81.9000035,76.3360037 82.8079944,76.704 83.928,76.704 C84.4880028,76.704 85.0039976,76.6200008 85.476,76.452 C85.9480024,76.2839992 86.3999978,76.0640014 86.832,75.792 L87.528,77.088 C87.0159974,77.4080016 86.4480031,77.6879988 85.824,77.928 C85.1999969,78.1680012 84.488004,78.288 83.688,78.288 C82.9039961,78.288 82.1720034,78.1480014 81.492,77.868 C80.8119966,77.5879986 80.2200025,77.1880026 79.716,76.668 C79.2119975,76.1479974 78.8160014,75.5120038 78.528,74.76 C78.2399986,74.0079962 78.096,73.1520048 78.096,72.192 Z M86.256,71.304 C86.256,70.103994 86.0040025,69.1880032 85.5,68.556 C84.9959975,67.9239968 84.2880046,67.608 83.376,67.608 C82.9599979,67.608 82.5640019,67.6919992 82.188,67.86 C81.8119981,68.0280008 81.4720015,68.2679984 81.168,68.58 C80.8639985,68.8920016 80.612001,69.2759977 80.412,69.732 C80.211999,70.1880023 80.0800003,70.711997 80.016,71.304 L86.256,71.304 Z M90,72.192 C90,71.2159951 90.1519985,70.3480038 90.456,69.588 C90.7600015,68.8279962 91.1679974,68.1840026 91.68,67.656 C92.1920026,67.1279974 92.7879966,66.7280014 93.468,66.456 C94.1480034,66.1839986 94.8639962,66.048 95.616,66.048 C96.3840038,66.048 97.0439972,66.1879986 97.596,66.468 C98.1480028,66.7480014 98.623998,67.0719982 99.024,67.44 L98.04,68.712 C97.6879982,68.4079985 97.3240019,68.160001 96.948,67.968 C96.5719981,67.775999 96.1520023,67.68 95.688,67.68 C95.1599974,67.68 94.6720022,67.7879989 94.224,68.004 C93.7759978,68.2200011 93.3920016,68.527998 93.072,68.928 C92.7519984,69.328002 92.5000009,69.8039972 92.316,70.356 C92.1319991,70.9080028 92.04,71.5199966 92.04,72.192 C92.04,72.8640034 92.1279991,73.4719973 92.304,74.016 C92.4800009,74.5600027 92.7239984,75.027998 93.036,75.42 C93.3480016,75.812002 93.7279978,76.1159989 94.176,76.332 C94.6240022,76.5480011 95.1119974,76.656 95.64,76.656 C96.2000028,76.656 96.7079977,76.5400012 97.164,76.308 C97.6200023,76.0759988 98.0239982,75.8000016 98.376,75.48 L99.264,76.776 C98.7359974,77.2400023 98.1480032,77.6079986 97.5,77.88 C96.8519968,78.1520014 96.1760035,78.288 95.472,78.288 C94.7039962,78.288 93.9840034,78.1520014 93.312,77.88 C92.6399966,77.6079986 92.0600024,77.2120026 91.572,76.692 C91.0839976,76.1719974 90.7000014,75.5320038 90.42,74.772 C90.1399986,74.0119962 90,73.1520048 90,72.192 Z M102.144,67.944 L100.416,67.944 L100.416,66.456 L102.24,66.336 L102.48,63.072 L104.136,63.072 L104.136,66.336 L107.28,66.336 L107.28,67.944 L104.136,67.944 L104.136,74.424 C104.136,75.1440036 104.267999,75.699998 104.532,76.092 C104.796001,76.484002 105.263997,76.68 105.936,76.68 C106.144001,76.68 106.367999,76.6480003 106.608,76.584 C106.848001,76.5199997 107.063999,76.4480004 107.256,76.368 L107.64,77.856 C107.319998,77.9680006 106.972002,78.0679996 106.596,78.156 C106.219998,78.2440004 105.848002,78.288 105.48,78.288 C104.855997,78.288 104.332002,78.192001 103.908,78 C103.483998,77.807999 103.140001,77.5440017 102.876,77.208 C102.611999,76.8719983 102.424001,76.4640024 102.312,75.984 C102.199999,75.5039976 102.144,74.9760029 102.144,74.4 L102.144,67.944 Z M110.928,63.936 C110.543998,63.936 110.220001,63.8160012 109.956,63.576 C109.691999,63.3359988 109.56,63.0320018 109.56,62.664 C109.56,62.2799981 109.691999,61.9720012 109.956,61.74 C110.220001,61.5079988 110.543998,61.392 110.928,61.392 C111.312002,61.392 111.635999,61.5079988 111.9,61.74 C112.164001,61.9720012 112.296,62.2799981 112.296,62.664 C112.296,63.0320018 112.164001,63.3359988 111.9,63.576 C111.635999,63.8160012 111.312002,63.936 110.928,63.936 Z M109.92,66.336 L111.888,66.336 L111.888,78 L109.92,78 L109.92,66.336 Z M114.96,72.192 C114.96,71.2159951 115.107999,70.3480038 115.404,69.588 C115.700001,68.8279962 116.095998,68.1840026 116.592,67.656 C117.088002,67.1279974 117.659997,66.7280014 118.308,66.456 C118.956003,66.1839986 119.639996,66.048 120.36,66.048 C121.080004,66.048 121.763997,66.1839986 122.412,66.456 C123.060003,66.7280014 123.631998,67.1279974 124.128,67.656 C124.624002,68.1840026 125.019999,68.8279962 125.316,69.588 C125.612001,70.3480038 125.76,71.2159951 125.76,72.192 C125.76,73.1520048 125.612001,74.0119962 125.316,74.772 C125.019999,75.5320038 124.624002,76.1719974 124.128,76.692 C123.631998,77.2120026 123.060003,77.6079986 122.412,77.88 C121.763997,78.1520014 121.080004,78.288 120.36,78.288 C119.639996,78.288 118.956003,78.1520014 118.308,77.88 C117.659997,77.6079986 117.088002,77.2120026 116.592,76.692 C116.095998,76.1719974 115.700001,75.5320038 115.404,74.772 C115.107999,74.0119962 114.96,73.1520048 114.96,72.192 Z M117,72.192 C117,72.8640034 117.079999,73.4719973 117.24,74.016 C117.400001,74.5600027 117.627999,75.027998 117.924,75.42 C118.220001,75.812002 118.575998,76.1159989 118.992,76.332 C119.408002,76.5480011 119.863998,76.656 120.36,76.656 C120.856002,76.656 121.311998,76.5480011 121.728,76.332 C122.144002,76.1159989 122.499999,75.812002 122.796,75.42 C123.092001,75.027998 123.319999,74.5600027 123.48,74.016 C123.640001,73.4719973 123.72,72.8640034 123.72,72.192 C123.72,71.5199966 123.640001,70.9080028 123.48,70.356 C123.319999,69.8039972 123.092001,69.328002 122.796,68.928 C122.499999,68.527998 122.144002,68.2200011 121.728,68.004 C121.311998,67.7879989 120.856002,67.68 120.36,67.68 C119.863998,67.68 119.408002,67.7879989 118.992,68.004 C118.575998,68.2200011 118.220001,68.527998 117.924,68.928 C117.627999,69.328002 117.400001,69.8039972 117.24,70.356 C117.079999,70.9080028 117,71.5199966 117,72.192 Z M128.832,66.336 L130.464,66.336 L130.632,68.016 L130.704,68.016 C131.264003,67.4559972 131.851997,66.9880019 132.468,66.612 C133.084003,66.2359981 133.799996,66.048 134.616,66.048 C135.848006,66.048 136.747997,66.4319962 137.316,67.2 C137.884003,67.9680038 138.168,69.1039925 138.168,70.608 L138.168,78 L136.2,78 L136.2,70.872 C136.2,69.7679945 136.024002,68.9720024 135.672,68.484 C135.319998,67.9959976 134.760004,67.752 133.992,67.752 C133.383997,67.752 132.848002,67.9039985 132.384,68.208 C131.919998,68.5120015 131.392003,68.959997 130.8,69.552 L130.8,78 L128.832,78 L128.832,66.336 Z" id="Text-with-image-sect" fill="#79797B"></path>
            <path d="M2.5,10 L173.511696,10" id="Line" stroke="#4990E2" stroke-width="4" stroke-linecap="square"></path>
        </g>
    </g>
</svg>