<?xml version="1.0" encoding="UTF-8"?>
<svg width="602px" height="531px" viewBox="0 0 602 531" version="1.1" xmlns="http://www.w3.org/2000/svg" xmlns:xlink="http://www.w3.org/1999/xlink">
    <!-- Generator: Sketch 44.1 (41455) - http://www.bohemiancoding.com/sketch -->
    <title>image_text04</title>
    <desc>Created with Sketch.</desc>
    <defs>
        <rect id="path-1" x="0" y="0" width="284.52579" height="189.68386"></rect>
        <mask id="mask-2" maskContentUnits="userSpaceOnUse" maskUnits="objectBoundingBox" x="0" y="0" width="284.52579" height="189.68386" fill="white">
            <use xlink:href="#path-1"></use>
        </mask>
        <rect id="path-3" x="0" y="0" width="284.52579" height="189.68386"></rect>
        <mask id="mask-4" maskContentUnits="userSpaceOnUse" maskUnits="objectBoundingBox" x="0" y="0" width="284.52579" height="189.68386" fill="white">
            <use xlink:href="#path-3"></use>
        </mask>
    </defs>
    <g id="Image/Text-Blocks" stroke="none" stroke-width="1" fill="none" fill-rule="evenodd">
        <g id="04" transform="translate(1.000000, -8.000000)">
            <path d="M6.99434276,12.8126456 L0.86655574,12.8126456 L0.86655574,10.6462562 L15.721797,10.6462562 L15.721797,12.8126456 L9.59400998,12.8126456 L9.59400998,30.9484193 L6.99434276,30.9484193 L6.99434276,12.8126456 Z M18.01198,23.4589018 C18.01198,22.2209589 18.2028267,21.1119849 18.5845258,20.1319468 C18.9662249,19.1519086 19.4717107,18.3214676 20.1009983,17.640599 C20.730286,16.9597304 21.4472506,16.4387705 22.2519135,16.0777038 C23.0565764,15.7166371 23.8921754,15.5361065 24.7587354,15.5361065 C25.707825,15.5361065 26.5588981,15.7011631 27.31198,16.0312812 C28.065062,16.3613993 28.6943402,16.835937 29.1998336,17.4549085 C29.705327,18.07388 30.0921784,18.8166346 30.3603993,19.6831947 C30.6286203,20.5497547 30.7627288,21.5194622 30.7627288,22.5923461 C30.7627288,23.1494204 30.7317807,23.6136421 30.6698835,23.985025 L20.518802,23.985025 C20.6219639,25.6149832 21.1222917,26.9044878 22.0198003,27.8535774 C22.917309,28.802667 24.0881791,29.2772047 25.5324459,29.2772047 C26.2545793,29.2772047 26.9199637,29.1688863 27.528619,28.9522463 C28.1372743,28.7356062 28.7201303,28.4519152 29.2772047,28.1011647 L30.1747088,29.7723794 C29.5144726,30.185027 28.782034,30.5460883 27.977371,30.855574 C27.1727081,31.1650598 26.2545809,31.3198003 25.2229617,31.3198003 C24.211975,31.3198003 23.2680576,31.1392697 22.3911814,30.778203 C21.5143051,30.4171363 20.7509184,29.9013345 20.1009983,29.230782 C19.4510783,28.5602296 18.9404345,27.7401047 18.5690516,26.7703827 C18.1976687,25.8006607 18.01198,24.6968448 18.01198,23.4589018 Z M28.5344426,22.3138103 C28.5344426,20.7663816 28.2094874,19.5851954 27.5595674,18.7702163 C26.9096473,17.9552372 25.9966781,17.5477537 24.8206323,17.5477537 C24.2841903,17.5477537 23.7735465,17.6560721 23.2886855,17.8727121 C22.8038245,18.0893522 22.365393,18.3988333 21.9733777,18.8011647 C21.5813624,19.2034962 21.2564073,19.6986659 20.9985025,20.2866889 C20.7405977,20.8747118 20.5703831,21.5504122 20.4878536,22.3138103 L28.5344426,22.3138103 Z M37.2928453,23.0875208 L32.7434276,15.9074875 L35.4978369,15.9074875 L37.5094842,19.2189684 C37.7364404,19.631616 37.9737092,20.0494155 38.2212978,20.4723794 C38.4688864,20.8953432 38.7267873,21.3131427 38.9950083,21.7257903 L39.118802,21.7257903 C39.3457582,21.3131427 39.572711,20.8953432 39.7996672,20.4723794 C40.0266234,20.0494155 40.2535762,19.631616 40.4805324,19.2189684 L42.3064892,15.9074875 L44.9680532,15.9074875 L40.4186356,23.3660566 L45.3084859,30.9484193 L42.5540765,30.9484193 L40.3567388,27.4512479 L39.5520799,26.0895175 C39.2838589,25.6356051 39.0053259,25.1920155 38.7164725,24.7587354 L38.5926789,24.7587354 C38.3244579,25.1920155 38.066557,25.630447 37.8189684,26.0740433 C37.5713798,26.5176395 37.3237949,26.9767031 37.0762063,27.4512479 L35.0336106,30.9484193 L32.3720466,30.9484193 L37.2928453,23.0875208 Z M48.712812,17.9810316 L46.4845258,17.9810316 L46.4845258,16.0622296 L48.8366057,15.9074875 L49.1460899,11.6985025 L51.2815308,11.6985025 L51.2815308,15.9074875 L55.3357737,15.9074875 L55.3357737,17.9810316 L51.2815308,17.9810316 L51.2815308,26.3371048 C51.2815308,27.265562 51.4517454,27.9825266 51.7921797,28.48802 C52.132614,28.9935133 52.7361022,29.2462562 53.6026622,29.2462562 C53.8708832,29.2462562 54.1597322,29.2049921 54.469218,29.1224626 C54.7787037,29.039933 55.0572367,28.9470887 55.3048253,28.8439268 L55.8,30.7627288 C55.3873523,30.9071555 54.9386048,31.0361059 54.4537438,31.149584 C53.9688828,31.2630621 53.4891871,31.3198003 53.0146423,31.3198003 C52.2099793,31.3198003 51.5342789,31.1960079 50.9875208,30.9484193 C50.4407627,30.7008307 49.9971731,30.3604015 49.6567388,29.9271215 C49.3163045,29.4938414 49.0738776,28.9677236 48.9294509,28.3487521 C48.7850242,27.7297806 48.712812,27.0489222 48.712812,26.3061564 L48.712812,17.9810316 Z M63.1966722,15.9074875 L65.7963394,15.9074875 L68.0246256,24.6039933 C68.1896847,25.3261267 68.3444252,26.0276172 68.4888519,26.7084859 C68.6332786,27.3893545 68.7777031,28.0805289 68.9221298,28.78203 L69.0459235,28.78203 C69.2109825,28.0805289 69.3760391,27.3841965 69.5410982,26.6930116 C69.7061572,26.0018268 69.8815299,25.3054944 70.0672213,24.6039933 L72.3883527,15.9074875 L74.8642263,15.9074875 L77.2163062,24.6039933 C77.4019976,25.3261267 77.5825282,26.0276172 77.7579035,26.7084859 C77.9332787,27.3893545 78.1034934,28.0805289 78.2685524,28.78203 L78.3923461,28.78203 C78.5574052,28.0805289 78.7121457,27.3893545 78.8565724,26.7084859 C79.0009991,26.0276172 79.1557396,25.3261267 79.3207987,24.6039933 L81.5181364,15.9074875 L83.9321131,15.9074875 L79.9088186,30.9484193 L76.8139767,30.9484193 L74.6475874,22.8708819 C74.4618959,22.1487485 74.2916813,21.4369419 74.1369384,20.7354409 C73.9821956,20.0339399 73.811981,19.3015013 73.6262895,18.5381032 L73.5024958,18.5381032 C73.3374368,19.3015013 73.1723802,20.0390979 73.0073211,20.7509151 C72.8422621,21.4627323 72.6565734,22.1796969 72.4502496,22.9018303 L70.3457571,30.9484193 L67.3747088,30.9484193 L63.1966722,15.9074875 Z M88.5124792,12.8126456 C88.017302,12.8126456 87.5995025,12.657905 87.2590682,12.3484193 C86.9186339,12.0389336 86.7484193,11.6469242 86.7484193,11.1723794 C86.7484193,10.6772022 86.9186339,10.2800348 87.2590682,9.98086522 C87.5995025,9.68169568 88.017302,9.53211314 88.5124792,9.53211314 C89.0076564,9.53211314 89.4254559,9.68169568 89.7658902,9.98086522 C90.1063245,10.2800348 90.2765391,10.6772022 90.2765391,11.1723794 C90.2765391,11.6469242 90.1063245,12.0389336 89.7658902,12.3484193 C89.4254559,12.657905 89.0076564,12.8126456 88.5124792,12.8126456 Z M87.2126456,15.9074875 L89.750416,15.9074875 L89.750416,30.9484193 L87.2126456,30.9484193 L87.2126456,15.9074875 Z M95.2592346,17.9810316 L93.0309484,17.9810316 L93.0309484,16.0622296 L95.3830283,15.9074875 L95.6925125,11.6985025 L97.8279534,11.6985025 L97.8279534,15.9074875 L101.882196,15.9074875 L101.882196,17.9810316 L97.8279534,17.9810316 L97.8279534,26.3371048 C97.8279534,27.265562 97.998168,27.9825266 98.3386023,28.48802 C98.6790366,28.9935133 99.2825248,29.2462562 100.149085,29.2462562 C100.417306,29.2462562 100.706155,29.2049921 101.015641,29.1224626 C101.325126,29.039933 101.603659,28.9470887 101.851248,28.8439268 L102.346423,30.7627288 C101.933775,30.9071555 101.485027,31.0361059 101.000166,31.149584 C100.515305,31.2630621 100.03561,31.3198003 99.5610649,31.3198003 C98.756402,31.3198003 98.0807016,31.1960079 97.5339434,30.9484193 C96.9871853,30.7008307 96.5435957,30.3604015 96.2031614,29.9271215 C95.8627271,29.4938414 95.6203002,28.9677236 95.4758735,28.3487521 C95.3314469,27.7297806 95.2592346,27.0489222 95.2592346,26.3061564 L95.2592346,17.9810316 Z M105.286522,8.91314476 L107.824293,8.91314476 L107.824293,14.9171381 L107.731448,18.01198 C108.453581,17.3311114 109.206652,16.7482553 109.990682,16.2633943 C110.774713,15.7785333 111.69284,15.5361065 112.745092,15.5361065 C114.333785,15.5361065 115.494339,16.0312762 116.226789,17.0216306 C116.959238,18.011985 117.325458,19.4768622 117.325458,21.4163062 L117.325458,30.9484193 L114.787687,30.9484193 L114.787687,21.7567388 C114.787687,20.3331044 114.560734,19.3066587 114.106822,18.677371 C113.65291,18.0480834 112.930787,17.7334443 111.940433,17.7334443 C111.156402,17.7334443 110.465228,17.929449 109.866889,18.3214642 C109.268549,18.7134795 108.587691,19.2911775 107.824293,20.0545757 L107.824293,30.9484193 L105.286522,30.9484193 L105.286522,8.91314476 Z M129.673877,12.8126456 C129.1787,12.8126456 128.7609,12.657905 128.420466,12.3484193 C128.080032,12.0389336 127.909817,11.6469242 127.909817,11.1723794 C127.909817,10.6772022 128.080032,10.2800348 128.420466,9.98086522 C128.7609,9.68169568 129.1787,9.53211314 129.673877,9.53211314 C130.169054,9.53211314 130.586854,9.68169568 130.927288,9.98086522 C131.267722,10.2800348 131.437937,10.6772022 131.437937,11.1723794 C131.437937,11.6469242 131.267722,12.0389336 130.927288,12.3484193 C130.586854,12.657905 130.169054,12.8126456 129.673877,12.8126456 Z M128.374043,15.9074875 L130.911814,15.9074875 L130.911814,30.9484193 L128.374043,30.9484193 L128.374043,15.9074875 Z M135.987354,15.9074875 L138.091847,15.9074875 L138.308486,18.0738769 L138.401331,18.0738769 C139.061567,17.3517435 139.778532,16.7482553 140.552246,16.2633943 C141.325961,15.7785333 142.166718,15.5361065 143.074542,15.5361065 C144.229956,15.5361065 145.132609,15.7888494 145.782529,16.2943428 C146.432449,16.7998361 146.912145,17.5064846 147.221631,18.4143095 C148.005661,17.5477494 148.794838,16.8514169 149.589185,16.3252912 C150.383531,15.7991654 151.24492,15.5361065 152.173378,15.5361065 C153.720806,15.5361065 154.871044,16.0312762 155.624126,17.0216306 C156.377208,18.011985 156.753744,19.4768622 156.753744,21.4163062 L156.753744,30.9484193 L154.215973,30.9484193 L154.215973,21.7567388 C154.215973,20.3331044 153.989021,19.3066587 153.535108,18.677371 C153.081196,18.0480834 152.379705,17.7334443 151.430616,17.7334443 C150.295835,17.7334443 149.037278,18.507147 147.654908,20.0545757 L147.654908,30.9484193 L145.117138,30.9484193 L145.117138,21.7567388 C145.117138,20.3331044 144.890185,19.3066587 144.436273,18.677371 C143.98236,18.0480834 143.270554,17.7334443 142.300832,17.7334443 C141.166051,17.7334443 139.907494,18.507147 138.525125,20.0545757 L138.525125,30.9484193 L135.987354,30.9484193 L135.987354,15.9074875 Z M160.900832,27.0489185 C160.900832,25.3983279 161.638429,24.1346134 163.113644,23.2577371 C164.588859,22.3808608 166.935758,21.7670567 170.154409,21.4163062 C170.154409,20.9417614 170.107987,20.4775397 170.015141,20.0236273 C169.922296,19.5697149 169.757239,19.1673894 169.519967,18.8166389 C169.282694,18.4658884 168.968055,18.1821974 168.57604,17.9655574 C168.184025,17.7489174 167.678539,17.640599 167.059567,17.640599 C166.172375,17.640599 165.35225,17.8056556 164.599168,18.1357737 C163.846086,18.4658918 163.170386,18.8372692 162.572047,19.2499168 L161.550749,17.4858569 C162.25225,17.0319445 163.108481,16.5935129 164.119468,16.1705491 C165.130454,15.7475852 166.244586,15.5361065 167.461897,15.5361065 C169.298179,15.5361065 170.628948,16.0983305 171.454243,17.2227953 C172.279538,18.3472602 172.69218,19.8482435 172.69218,21.7257903 L172.69218,30.9484193 L170.587687,30.9484193 L170.371048,29.153411 L170.309151,29.153411 C169.587018,29.7517501 168.808157,30.2623939 167.972546,30.6853577 C167.136934,31.1083216 166.254913,31.3198003 165.326456,31.3198003 C164.047248,31.3198003 162.989854,30.948423 162.154243,30.2056572 C161.318631,29.4628915 160.900832,28.4106557 160.900832,27.0489185 Z M163.407654,26.863228 C163.407654,27.729788 163.660397,28.3487502 164.16589,28.7201331 C164.671384,29.091516 165.295504,29.2772047 166.03827,29.2772047 C166.760403,29.2772047 167.446419,29.1069901 168.096339,28.7665557 C168.746259,28.4261214 169.432276,27.9257937 170.154409,27.2655574 L170.154409,23.0875208 C168.895834,23.2525799 167.833282,23.4485846 166.966722,23.6755408 C166.100162,23.902497 165.40383,24.1707139 164.877704,24.4801997 C164.351578,24.7896854 163.975043,25.1455887 163.748087,25.5479201 C163.52113,25.9502516 163.407654,26.3886832 163.407654,26.863228 Z M178.572379,33.4861897 C178.572379,34.2908526 178.959231,34.9304469 179.732945,35.4049917 C180.506659,35.8795365 181.574369,36.1168053 182.936106,36.1168053 C183.65824,36.1168053 184.313308,36.029119 184.901331,35.8537438 C185.489354,35.6783685 185.989682,35.4514157 186.402329,35.1728785 C186.814977,34.8943414 187.134774,34.5693862 187.36173,34.1980033 C187.588687,33.8266204 187.702163,33.4449271 187.702163,33.0529118 C187.702163,32.3514108 187.444262,31.8665571 186.928453,31.5983361 C186.412643,31.3301151 185.659572,31.1960067 184.669218,31.1960067 L182.069551,31.1960067 C181.780697,31.1960067 181.466058,31.1805326 181.125624,31.149584 C180.78519,31.1186355 180.449918,31.0515812 180.1198,30.9484193 C179.583358,31.3404346 179.191349,31.753076 178.94376,32.1863561 C178.696172,32.6196361 178.572379,33.0529096 178.572379,33.4861897 Z M176.344093,33.8266223 C176.344093,33.1870184 176.540098,32.5783723 176.932113,32.0006656 C177.324128,31.4229588 177.860562,30.896841 178.541431,30.4222962 L178.541431,30.2985025 C178.170048,30.0715463 177.855409,29.7569072 177.597504,29.3545757 C177.339599,28.9522442 177.210649,28.4519165 177.210649,27.8535774 C177.210649,27.2139735 177.386022,26.6569075 177.736772,26.1823627 C178.087523,25.7078179 178.4589,25.3364406 178.850915,25.0682196 L178.850915,24.944426 C178.355738,24.5317783 177.90699,23.9798703 177.504659,23.2886855 C177.102327,22.5975007 176.901165,21.7980079 176.901165,20.890183 C176.901165,20.0648877 177.050747,19.3221331 177.349917,18.6618968 C177.649086,18.0016606 178.05657,17.4394366 178.572379,16.975208 C179.088189,16.5109794 179.691677,16.1550761 180.382862,15.9074875 C181.074047,15.6598989 181.801327,15.5361065 182.564725,15.5361065 C182.977373,15.5361065 183.364224,15.5722126 183.725291,15.644426 C184.086358,15.7166393 184.411313,15.8043256 184.700166,15.9074875 L189.930449,15.9074875 L189.930449,17.8572379 L186.835607,17.8572379 C187.186358,18.2079884 187.480365,18.651578 187.717637,19.18802 C187.95491,19.7244619 188.073544,20.312476 188.073544,20.9520799 C188.073544,21.7567428 187.92912,22.4840234 187.640266,23.1339434 C187.351413,23.7838635 186.959403,24.3306134 186.464226,24.7742097 C185.969049,25.2178059 185.386193,25.5633931 184.715641,25.8109817 C184.045088,26.0585703 183.328124,26.1823627 182.564725,26.1823627 C182.193343,26.1823627 181.811649,26.1359406 181.419634,26.0430948 C181.027619,25.9502491 180.656241,25.8212987 180.305491,25.6562396 C180.03727,25.8831958 179.810317,26.1359387 179.624626,26.4144759 C179.438934,26.693013 179.34609,27.0386003 179.34609,27.4512479 C179.34609,27.9257927 179.531779,28.3178021 179.903161,28.6272879 C180.274544,28.9367736 180.976035,29.0915141 182.007654,29.0915141 L184.916805,29.0915141 C186.670558,29.0915141 187.985853,29.3752051 188.862729,29.9425957 C189.739605,30.5099862 190.178037,31.4229554 190.178037,32.6815308 C190.178037,33.3830318 190.002664,34.0484162 189.651913,34.6777038 C189.301163,35.3069915 188.795677,35.8588995 188.135441,36.3334443 C187.475205,36.8079891 186.675712,37.1845244 185.736938,37.4630616 C184.798165,37.7415987 183.740771,37.8808652 182.564725,37.8808652 C181.636268,37.8808652 180.790353,37.7931789 180.026955,37.6178037 C179.263557,37.4424284 178.608489,37.1793695 178.06173,36.828619 C177.514972,36.4778685 177.092015,36.054911 176.792845,35.5597338 C176.493676,35.0645566 176.344093,34.4868585 176.344093,33.8266223 Z M182.564725,24.4801997 C182.998005,24.4801997 183.405489,24.3976714 183.787188,24.2326123 C184.168887,24.0675533 184.509316,23.8302844 184.808486,23.5207987 C185.107655,23.2113129 185.339766,22.8347776 185.504825,22.3911814 C185.669884,21.9475851 185.752413,21.4472574 185.752413,20.890183 C185.752413,19.7760344 185.442932,18.9146453 184.82396,18.30599 C184.204989,17.6973347 183.451918,17.3930116 182.564725,17.3930116 C181.677533,17.3930116 180.924462,17.6973347 180.305491,18.30599 C179.686519,18.9146453 179.377038,19.7760344 179.377038,20.890183 C179.377038,21.4472574 179.459567,21.9475851 179.624626,22.3911814 C179.789685,22.8347776 180.021796,23.2113129 180.320965,23.5207987 C180.620135,23.8302844 180.960564,24.0675533 181.342263,24.2326123 C181.723962,24.3976714 182.131445,24.4801997 182.564725,24.4801997 Z M191.973045,23.4589018 C191.973045,22.2209589 192.163892,21.1119849 192.545591,20.1319468 C192.92729,19.1519086 193.432776,18.3214676 194.062063,17.640599 C194.691351,16.9597304 195.408315,16.4387705 196.212978,16.0777038 C197.017641,15.7166371 197.85324,15.5361065 198.7198,15.5361065 C199.66889,15.5361065 200.519963,15.7011631 201.273045,16.0312812 C202.026127,16.3613993 202.655405,16.835937 203.160899,17.4549085 C203.666392,18.07388 204.053243,18.8166346 204.321464,19.6831947 C204.589685,20.5497547 204.723794,21.5194622 204.723794,22.5923461 C204.723794,23.1494204 204.692846,23.6136421 204.630948,23.985025 L194.479867,23.985025 C194.583029,25.6149832 195.083357,26.9044878 195.980865,27.8535774 C196.878374,28.802667 198.049244,29.2772047 199.493511,29.2772047 C200.215644,29.2772047 200.881029,29.1688863 201.489684,28.9522463 C202.098339,28.7356062 202.681195,28.4519152 203.23827,28.1011647 L204.135774,29.7723794 C203.475537,30.185027 202.743099,30.5460883 201.938436,30.855574 C201.133773,31.1650598 200.215646,31.3198003 199.184027,31.3198003 C198.17304,31.3198003 197.229123,31.1392697 196.352246,30.778203 C195.47537,30.4171363 194.711983,29.9013345 194.062063,29.230782 C193.412143,28.5602296 192.901499,27.7401047 192.530116,26.7703827 C192.158734,25.8006607 191.973045,24.6968448 191.973045,23.4589018 Z M202.495507,22.3138103 C202.495507,20.7663816 202.170552,19.5851954 201.520632,18.7702163 C200.870712,17.9552372 199.957743,17.5477537 198.781697,17.5477537 C198.245255,17.5477537 197.734611,17.6560721 197.24975,17.8727121 C196.764889,18.0893522 196.326458,18.3988333 195.934443,18.8011647 C195.542427,19.2034962 195.217472,19.6986659 194.959567,20.2866889 C194.701663,20.8747118 194.531448,21.5504122 194.448918,22.3138103 L202.495507,22.3138103 Z M208.035275,27.5440932 C208.695511,28.0805351 209.371211,28.5138087 210.062396,28.8439268 C210.753581,29.1740449 211.553074,29.3391015 212.460899,29.3391015 C213.451253,29.3391015 214.194008,29.1121487 214.689185,28.6582363 C215.184362,28.2043239 215.431947,27.6472579 215.431947,26.9870216 C215.431947,26.5950064 215.328786,26.2545772 215.122463,25.9657238 C214.916139,25.6768704 214.65308,25.4241275 214.333278,25.2074875 C214.013476,24.9908475 213.647257,24.8000008 213.234609,24.6349418 L211.996672,24.1397671 C211.46023,23.9540756 210.923796,23.7425969 210.387354,23.5053245 C209.850912,23.2680521 209.371217,22.979203 208.948253,22.6387687 C208.525289,22.2983344 208.179702,21.901167 207.911481,21.4472546 C207.64326,20.9933422 207.509151,20.4465922 207.509151,19.8069884 C207.509151,19.2086493 207.627786,18.6464253 207.865058,18.1202995 C208.102331,17.5941737 208.44276,17.1402681 208.886356,16.7585691 C209.329952,16.37687 209.871544,16.0777049 210.511148,15.8610649 C211.150752,15.6444249 211.872875,15.5361065 212.677537,15.5361065 C213.626627,15.5361065 214.498332,15.7011631 215.292679,16.0312812 C216.087026,16.3613993 216.773042,16.7637247 217.350749,17.2382696 L216.14376,18.8475874 C215.627951,18.4555721 215.091517,18.1357749 214.534443,17.8881864 C213.977368,17.6405978 213.368722,17.5168053 212.708486,17.5168053 C211.759396,17.5168053 211.063064,17.7334421 210.619468,18.1667221 C210.175871,18.6000022 209.954077,19.105488 209.954077,19.6831947 C209.954077,20.0339452 210.046921,20.3382683 210.232612,20.596173 C210.418304,20.8540778 210.665889,21.0810306 210.975374,21.2770383 C211.28486,21.4730459 211.640763,21.6484185 212.043095,21.8031614 C212.445426,21.9579043 212.863226,22.1178028 213.296506,22.2828619 C213.832948,22.4891857 214.37454,22.7058225 214.921298,22.9327787 C215.468056,23.1597349 215.958068,23.4434259 216.391348,23.7838602 C216.824628,24.1242945 217.180531,24.542094 217.459068,25.0372712 C217.737605,25.5324484 217.876872,26.1307785 217.876872,26.8322795 C217.876872,27.451251 217.758237,28.0289491 217.520965,28.565391 C217.283693,29.101833 216.932947,29.5763706 216.468719,29.9890183 C216.00449,30.401666 215.426792,30.7266211 214.735607,30.9638935 C214.044423,31.2011659 213.255246,31.3198003 212.368053,31.3198003 C211.295169,31.3198003 210.273882,31.1237956 209.30416,30.7317804 C208.334438,30.3397651 207.488523,29.8445953 206.766389,29.2462562 L208.035275,27.5440932 Z" id="Text-with-images" fill="#79797B"></path>
            <path d="M0.499168053,66.3893511 L59.5362107,66.3893511" id="Line" stroke="#4990E2" stroke-linecap="square"></path>
            <path d="M0.998336106,98.8352745 L406.823199,98.8352745" id="Line" stroke="#4990E2" stroke-width="4" stroke-linecap="square"></path>
            <path d="M442.876529,98.8352745 L598.129001,98.8352745" id="Line" stroke="#979797" stroke-width="4" stroke-linecap="square"></path>
            <path d="M2.51222057,123.793677 L598.489683,123.793677" id="Line" stroke="#979797" stroke-width="4" stroke-linecap="square"></path>
            <path d="M2.51222057,148.75208 L598.489683,148.75208" id="Line" stroke="#979797" stroke-width="4" stroke-linecap="square"></path>
            <path d="M2.49584027,173.710483 L175.733046,173.710483" id="Line" stroke="#979797" stroke-width="4" stroke-linecap="square"></path>
            <path d="M2.51222057,210.648918 L598.489683,210.648918" id="Line" stroke="#979797" stroke-width="4" stroke-linecap="square"></path>
            <path d="M2.51222057,230.615641 L598.489683,230.615641" id="Line" stroke="#979797" stroke-width="4" stroke-linecap="square"></path>
            <path d="M2.51222057,271.547421 L598.489683,271.547421" id="Line" stroke="#979797" stroke-width="4" stroke-linecap="square"></path>
            <g id="Group-2" transform="translate(0.998336, 348.419301)" stroke="#979797">
                <use id="Rectangle-9" mask="url(#mask-2)" stroke-width="2" fill="#F2F2F2" stroke-dasharray="4" xlink:href="#path-1"></use>
                <g id="icon-picture" opacity="0.699999988" transform="translate(111.813644, 73.876872)">
                    <polyline id="Path-15" stroke-width="2" points="1.26875249 36.7964279 21.5662751 15.6508186 35.8328346 30.638902 44.1890646 21.86006 60.0071059 38.4780906"></polyline>
                    <circle id="Oval-6" fill="#D8D8D8" cx="49.9168053" cy="10.9816972" r="2.99500832"></circle>
                    <rect id="Rectangle-10" stroke-width="2" x="1" y="1" width="58.8985025" height="40.9284526" rx="3"></rect>
                </g>
            </g>
            <g id="Group-2" transform="translate(315.474210, 348.419301)" stroke="#979797">
                <use id="Rectangle-9" mask="url(#mask-4)" stroke-width="2" fill="#F2F2F2" stroke-dasharray="4" xlink:href="#path-3"></use>
                <g id="icon-picture" opacity="0.699999988" transform="translate(111.813644, 73.876872)">
                    <polyline id="Path-15" stroke-width="2" points="1.26875249 36.7964279 21.5662751 15.6508186 35.8328346 30.638902 44.1890646 21.86006 60.0071059 38.4780906"></polyline>
                    <circle id="Oval-6" fill="#D8D8D8" cx="49.9168053" cy="10.9816972" r="2.99500832"></circle>
                    <rect id="Rectangle-10" stroke-width="2" x="1" y="1" width="58.8985025" height="40.9284526" rx="3"></rect>
                </g>
            </g>
            <path d="M2.51222057,251.580699 L598.489683,251.580699" id="Line" stroke="#979797" stroke-width="4" stroke-linecap="square"></path>
            <path d="M2.51222057,292.512479 L598.489683,292.512479" id="Line" stroke="#979797" stroke-width="4" stroke-linecap="square"></path>
            <path d="M2.49584027,312.81198 L200.712772,312.81198" id="Line" stroke="#979797" stroke-width="4" stroke-linecap="square"></path>
        </g>
    </g>
</svg>