<?xml version="1.0" encoding="UTF-8"?>
<svg width="600px" height="195px" viewBox="0 0 600 195" version="1.1" xmlns="http://www.w3.org/2000/svg" xmlns:xlink="http://www.w3.org/1999/xlink">
    <!-- Generator: Sketch 44.1 (41455) - http://www.bohemiancoding.com/sketch -->
    <title>image_text03</title>
    <desc>Created with Sketch.</desc>
    <defs>
        <rect id="path-1" x="307.666099" y="0" width="292.333901" height="194.207836"></rect>
        <mask id="mask-2" maskContentUnits="userSpaceOnUse" maskUnits="objectBoundingBox" x="0" y="0" width="292.333901" height="194.207836" fill="white">
            <use xlink:href="#path-1"></use>
        </mask>
    </defs>
    <g id="Image/Text-Blocks" stroke="none" stroke-width="1" fill="none" fill-rule="evenodd">
        <g id="03">
            <path d="M3.75332198,7.66201022 L0.459965928,7.66201022 L0.459965928,5.38057922 L9.76967632,5.38057922 L9.76967632,7.66201022 L6.47632027,7.66201022 L6.47632027,17.3764906 L3.75332198,17.3764906 L3.75332198,7.66201022 Z M10.8919932,12.8136286 C10.8919932,12.0776795 11.0146495,11.4122687 11.2599659,10.8173765 C11.5052823,10.2224842 11.8272552,9.7195932 12.2258944,9.30868825 C12.6245335,8.89778329 13.0814284,8.58194318 13.5965928,8.36115843 C14.1117573,8.14037368 14.6453124,8.02998296 15.1972743,8.02998296 C15.8473627,8.02998296 16.4146483,8.14037368 16.8991482,8.36115843 C17.3836481,8.58194318 17.788414,8.88858407 18.1134583,9.28109029 C18.4385025,9.67359651 18.6807488,10.1366242 18.8402044,10.6701874 C18.9996601,11.2037505 19.0793867,11.7833018 19.0793867,12.4088586 C19.0793867,12.654175 19.0671211,12.8780228 19.0425894,13.0804089 C19.0180578,13.2827949 18.9935265,13.4391817 18.9689949,13.5495741 L13.5045997,13.5495741 C13.6272579,14.2487258 13.9001682,14.7546833 14.323339,15.0674617 C14.7465098,15.3802401 15.2647329,15.5366269 15.8780239,15.5366269 C16.5281123,15.5366269 17.1843238,15.3342439 17.846678,14.9294719 L18.7482112,16.5669506 C18.2821101,16.8858619 17.763887,17.1373074 17.1935264,17.3212947 C16.6231658,17.505282 16.062013,17.5972743 15.5100511,17.5972743 C14.8599627,17.5972743 14.2528137,17.48995 13.688586,17.2752981 C13.1243583,17.0606463 12.6337329,16.7478726 12.2166951,16.3369676 C11.7996572,15.9260627 11.4746179,15.426238 11.2415673,14.8374787 C11.0085167,14.2487194 10.8919932,13.5741094 10.8919932,12.8136286 Z M16.7795571,11.8752981 C16.7795571,11.3478679 16.6630335,10.9185707 16.429983,10.5873935 C16.1969324,10.2562164 15.8044321,10.0906303 15.2524702,10.0906303 C14.8231665,10.0906303 14.4459982,10.2347515 14.120954,10.5229983 C13.7959098,10.8112451 13.5843276,11.2620072 13.486201,11.8752981 L16.7795571,11.8752981 Z M22.8143101,12.6296422 L20.1833049,8.25076661 L23.0902896,8.25076661 L23.8998296,9.72265758 C24.0224878,9.98023979 24.1482106,10.2408845 24.2770017,10.5045997 C24.4057928,10.7683148 24.5376484,11.0289595 24.6725724,11.2865417 L24.746167,11.2865417 C24.8442935,11.0289595 24.9485514,10.7683148 25.0589438,10.5045997 C25.1693362,10.2408845 25.2735941,9.98023979 25.3717206,9.72265758 L25.9972743,8.25076661 L28.7938671,8.25076661 L26.1444634,12.9424191 L28.9594549,17.3764906 L26.0524702,17.3764906 L25.1693356,15.8678024 C25.0221458,15.6102202 24.8780246,15.346509 24.7369676,15.076661 C24.5959107,14.806813 24.4517895,14.5431018 24.3045997,14.2855196 L24.2310051,14.2855196 C24.1206127,14.5431018 24.0040892,14.8037466 23.881431,15.0674617 C23.7587728,15.3311768 23.6422493,15.5979544 23.5318569,15.8678024 L22.8143101,17.3764906 L20.0177172,17.3764906 L22.8143101,12.6296422 Z M30.7809199,10.3666099 L29.5298126,10.3666099 L29.5298126,8.36115843 L30.928109,8.25076661 L31.2408859,5.82214651 L33.4855196,5.82214651 L33.4855196,8.25076661 L35.6749574,8.25076661 L35.6749574,10.3666099 L33.4855196,10.3666099 L33.4855196,14.0279387 C33.4855196,14.5431031 33.5928439,14.9141386 33.8074957,15.1410562 C34.0221476,15.3679739 34.3073236,15.481431 34.6630324,15.481431 C34.8102222,15.481431 34.9604762,15.4630326 35.113799,15.4262351 C35.2671217,15.3894376 35.4051101,15.3465079 35.5277683,15.2974446 L35.950937,17.2660988 C35.7056206,17.3396937 35.4173781,17.4132875 35.086201,17.4868825 C34.7550239,17.5604774 34.3686564,17.5972743 33.9270869,17.5972743 C33.3628592,17.5972743 32.881433,17.5114148 32.4827939,17.3396934 C32.0841547,17.1679719 31.7591154,16.928792 31.5076661,16.6221465 C31.2562168,16.315501 31.0722323,15.9444656 30.955707,15.509029 C30.8391817,15.0735924 30.7809199,14.5921662 30.7809199,14.0647359 L30.7809199,10.3666099 Z M40.5321976,8.25076661 L43.2183986,8.25076661 L44.1015332,12.4824532 C44.1751281,12.9362885 44.2425891,13.3839842 44.3039182,13.8255537 C44.3652473,14.2671232 44.4327083,14.7209517 44.5063032,15.1870528 L44.5798978,15.1870528 C44.6657585,14.7209517 44.7485516,14.2609903 44.8282794,13.807155 C44.9080072,13.3533197 45.0030659,12.9117568 45.1134583,12.4824532 L46.1253833,8.25076661 L48.4620102,8.25076661 L49.4923339,12.4824532 C49.6027263,12.9362885 49.7008514,13.3839842 49.7867121,13.8255537 C49.8725728,14.2671232 49.9645651,14.7209517 50.0626917,15.1870528 L50.1362862,15.1870528 C50.2221469,14.7209517 50.2926743,14.2671232 50.3478705,13.8255537 C50.4030667,13.3839842 50.4735941,12.9362885 50.5594549,12.4824532 L51.4241908,8.25076661 L53.9264055,8.25076661 L51.7369676,17.3764906 L48.572402,17.3764906 L47.7444634,13.7335605 C47.6463368,13.3042568 47.5604774,12.8749596 47.4868825,12.4456559 C47.4132875,12.0163522 47.3335609,11.5563909 47.2477002,11.0657581 L47.1741056,11.0657581 C47.0882449,11.5563909 47.0115847,12.0163522 46.9441227,12.4456559 C46.8766607,12.8749596 46.8000004,13.3042568 46.7141397,13.7335605 L45.9045997,17.3764906 L42.8136286,17.3764906 L40.5321976,8.25076661 Z M56.9069847,6.9076661 C56.4531493,6.9076661 56.0790475,6.77581052 55.7846678,6.5120954 C55.4902881,6.24838028 55.3431005,5.9080089 55.3431005,5.49097104 C55.3431005,5.07393318 55.4902881,4.7366282 55.7846678,4.479046 C56.0790475,4.22146379 56.4531493,4.09267462 56.9069847,4.09267462 C57.3730858,4.09267462 57.7502541,4.22146379 58.0385009,4.479046 C58.3267476,4.7366282 58.4708688,5.07393318 58.4708688,5.49097104 C58.4708688,5.9080089 58.3267476,6.24838028 58.0385009,6.5120954 C57.7502541,6.77581052 57.3730858,6.9076661 56.9069847,6.9076661 Z M55.5638842,8.25076661 L58.2684838,8.25076661 L58.2684838,17.3764906 L55.5638842,17.3764906 L55.5638842,8.25076661 Z M61.0098807,10.3666099 L59.7587734,10.3666099 L59.7587734,8.36115843 L61.1570698,8.25076661 L61.4698467,5.82214651 L63.7144804,5.82214651 L63.7144804,8.25076661 L65.9039182,8.25076661 L65.9039182,10.3666099 L63.7144804,10.3666099 L63.7144804,14.0279387 C63.7144804,14.5431031 63.8218047,14.9141386 64.0364566,15.1410562 C64.2511084,15.3679739 64.5362844,15.481431 64.8919932,15.481431 C65.039183,15.481431 65.1894371,15.4630326 65.3427598,15.4262351 C65.4960825,15.3894376 65.6340709,15.3465079 65.7567291,15.2974446 L66.1798978,17.2660988 C65.9345814,17.3396937 65.646339,17.4132875 65.3151618,17.4868825 C64.9839847,17.5604774 64.5976172,17.5972743 64.1560477,17.5972743 C63.59182,17.5972743 63.1103938,17.5114148 62.7117547,17.3396934 C62.3131156,17.1679719 61.9880762,16.928792 61.7366269,16.6221465 C61.4851776,16.315501 61.3011931,15.9444656 61.1846678,15.509029 C61.0681425,15.0735924 61.0098807,14.5921662 61.0098807,14.0647359 L61.0098807,10.3666099 Z M67.688586,4.479046 L70.3931857,4.479046 L70.3931857,7.64361158 L70.2643952,9.28109029 C70.6078382,8.9744448 71.0064713,8.68926878 71.4603066,8.42555366 C71.914142,8.16183855 72.4538299,8.02998296 73.0793867,8.02998296 C74.0729181,8.02998296 74.7935242,8.3550223 75.2412266,9.00511073 C75.688929,9.65519916 75.9127768,10.5567234 75.9127768,11.7097104 L75.9127768,17.3764906 L73.2081772,17.3764906 L73.2081772,12.0592845 C73.2081772,11.3969302 73.1192513,10.9431017 72.9413969,10.6977853 C72.7635426,10.452469 72.4783665,10.3298126 72.0858603,10.3298126 C71.7424174,10.3298126 71.4480421,10.4064728 71.2027257,10.5597956 C70.9574093,10.7131183 70.6875654,10.9308333 70.3931857,11.2129472 L70.3931857,17.3764906 L67.688586,17.3764906 L67.688586,4.479046 Z M83.3642249,6.9076661 C82.9103896,6.9076661 82.5362877,6.77581052 82.241908,6.5120954 C81.9475283,6.24838028 81.8003407,5.9080089 81.8003407,5.49097104 C81.8003407,5.07393318 81.9475283,4.7366282 82.241908,4.479046 C82.5362877,4.22146379 82.9103896,4.09267462 83.3642249,4.09267462 C83.830326,4.09267462 84.2074943,4.22146379 84.4957411,4.479046 C84.7839878,4.7366282 84.928109,5.07393318 84.928109,5.49097104 C84.928109,5.9080089 84.7839878,6.24838028 84.4957411,6.5120954 C84.2074943,6.77581052 83.830326,6.9076661 83.3642249,6.9076661 Z M82.0211244,8.25076661 L84.725724,8.25076661 L84.725724,17.3764906 L82.0211244,17.3764906 L82.0211244,8.25076661 Z M87.0991482,8.25076661 L89.3069847,8.25076661 L89.490971,9.42827939 L89.5645656,9.42827939 C89.944806,9.04803898 90.349572,8.71993324 90.7788756,8.4439523 C91.2081793,8.16797136 91.723336,8.02998296 92.3243612,8.02998296 C92.9744496,8.02998296 93.4988055,8.16183855 93.8974446,8.42555366 C94.2960838,8.68926878 94.6119239,9.06643707 94.8449744,9.55706985 C95.2497465,9.14003199 95.6759773,8.78126215 96.1236797,8.48074957 C96.5713821,8.180237 97.1018709,8.02998296 97.7151618,8.02998296 C98.6964274,8.02998296 99.4170335,8.35808871 99.8770017,9.01431005 C100.33697,9.67053139 100.566951,10.5689892 100.566951,11.7097104 L100.566951,17.3764906 L97.8623509,17.3764906 L97.8623509,12.0592845 C97.8623509,11.3969302 97.7734251,10.9431017 97.5955707,10.6977853 C97.4177163,10.452469 97.1325403,10.3298126 96.7400341,10.3298126 C96.2861988,10.3298126 95.7649092,10.6241879 95.1761499,11.2129472 L95.1761499,17.3764906 L92.4715503,17.3764906 L92.4715503,12.0592845 C92.4715503,11.3969302 92.3826244,10.9431017 92.20477,10.6977853 C92.0269156,10.452469 91.7417396,10.3298126 91.3492334,10.3298126 C90.8831323,10.3298126 90.3679756,10.6241879 89.8037479,11.2129472 L89.8037479,17.3764906 L87.0991482,17.3764906 L87.0991482,8.25076661 Z M102.535605,14.8374787 C102.535605,13.8807448 102.940371,13.132541 103.749915,12.592845 C104.559459,12.0531489 105.865749,11.6913127 107.668825,11.5073254 C107.644293,11.1025533 107.521637,10.7805804 107.300852,10.5413969 C107.080067,10.3022135 106.724364,10.1826235 106.233731,10.1826235 C105.841225,10.1826235 105.448724,10.2562173 105.056218,10.4034072 C104.663712,10.550597 104.24668,10.75298 103.805111,11.0105622 L102.848382,9.22589438 C103.437141,8.87018561 104.053489,8.58194318 104.697445,8.36115843 C105.3414,8.14037368 106.025209,8.02998296 106.748893,8.02998296 C107.926411,8.02998296 108.824869,8.36422153 109.444293,9.03270869 C110.063717,9.70119585 110.373424,10.7407084 110.373424,12.1512777 L110.373424,17.3764906 L108.165588,17.3764906 L107.963203,16.4381601 L107.908007,16.4381601 C107.515501,16.7816031 107.101535,17.0606463 106.666099,17.2752981 C106.230662,17.48995 105.755369,17.5972743 105.240204,17.5972743 C104.823167,17.5972743 104.449065,17.5267469 104.117888,17.3856899 C103.78671,17.244633 103.504601,17.0483829 103.27155,16.7969336 C103.0385,16.5454843 102.857582,16.2541754 102.72879,15.9229983 C102.599999,15.5918212 102.535605,15.2299849 102.535605,14.8374787 Z M105.111414,14.6350937 C105.111414,14.9294734 105.206473,15.1471884 105.396593,15.2882453 C105.586713,15.4293022 105.841225,15.4998296 106.160136,15.4998296 C106.479048,15.4998296 106.748892,15.4323686 106.969676,15.2974446 C107.190461,15.1625206 107.423508,14.9724033 107.668825,14.7270869 L107.668825,13.1264055 C106.699825,13.2613295 106.031348,13.4575796 105.663373,13.7151618 C105.295399,13.972744 105.111414,14.2793849 105.111414,14.6350937 Z M114.34753,18.5172061 C114.34753,18.8606491 114.531514,19.1212938 114.899489,19.2991482 C115.267464,19.4770026 115.758089,19.5659284 116.37138,19.5659284 C116.984671,19.5659284 117.487562,19.4586041 117.880068,19.2439523 C118.272574,19.0293005 118.468825,18.7625229 118.468825,18.4436116 C118.468825,18.1614977 118.349235,17.9713804 118.110051,17.8732538 C117.870868,17.7751273 117.524363,17.7260647 117.070528,17.7260647 L116.132198,17.7260647 C115.813286,17.7260647 115.555708,17.7168655 115.359455,17.6984668 C115.163202,17.6800681 114.991483,17.6524704 114.844293,17.6156729 C114.513116,17.9100526 114.34753,18.2105606 114.34753,18.5172061 Z M112.121295,18.9403748 C112.121295,18.2044256 112.556725,17.5911439 113.427598,17.1005111 L113.427598,17.0269165 C113.182282,16.8674609 112.979899,16.6650779 112.820443,16.4197615 C112.660987,16.1744451 112.581261,15.8616714 112.581261,15.481431 C112.581261,15.1502539 112.679386,14.8344138 112.875639,14.5339012 C113.071892,14.2333886 113.317205,13.9788767 113.611584,13.7703578 L113.611584,13.6967632 C113.292673,13.4759785 113.007497,13.1601383 112.756048,12.7492334 C112.504598,12.3383284 112.378876,11.8630351 112.378876,11.323339 C112.378876,10.7713771 112.483134,10.2899509 112.691652,9.879046 C112.900171,9.46814105 113.179215,9.12470325 113.52879,8.84872232 C113.878366,8.57274138 114.280066,8.36729199 114.733901,8.23236797 C115.187737,8.09744396 115.659963,8.02998296 116.150596,8.02998296 C116.690292,8.02998296 117.162519,8.10357678 117.567291,8.25076661 L120.897445,8.25076661 L120.897445,10.2194208 L119.443952,10.2194208 C119.529813,10.3543448 119.60034,10.5260637 119.655537,10.7345826 C119.710733,10.9431016 119.73833,11.1700158 119.73833,11.4153322 C119.73833,11.9427624 119.646338,12.3996574 119.462351,12.7860307 C119.278364,13.172404 119.023852,13.4913105 118.698807,13.7427598 C118.373763,13.9942091 117.993529,14.18126 117.558092,14.3039182 C117.122655,14.4265764 116.653495,14.4879046 116.150596,14.4879046 C115.794887,14.4879046 115.426918,14.4265764 115.046678,14.3039182 C114.92402,14.4020448 114.83816,14.5001699 114.789097,14.5982964 C114.740034,14.696423 114.715503,14.8252121 114.715503,14.9846678 C114.715503,15.2177184 114.816694,15.3894373 115.01908,15.4998296 C115.221466,15.610222 115.580236,15.6654174 116.0954,15.6654174 L117.567291,15.6654174 C118.695747,15.6654174 119.557408,15.8463355 120.1523,16.2081772 C120.747192,16.5700188 121.044634,17.1618358 121.044634,17.9836457 C121.044634,18.4620126 120.925044,18.9005091 120.68586,19.2991482 C120.446677,19.6977873 120.106305,20.0412251 119.664736,20.3294719 C119.223166,20.6177186 118.689611,20.8446329 118.064055,21.0102215 C117.438498,21.17581 116.733224,21.2586031 115.948211,21.2586031 C115.408515,21.2586031 114.908691,21.2126069 114.448722,21.1206133 C113.988754,21.0286196 113.583988,20.8906312 113.234412,20.706644 C112.884836,20.5226567 112.611926,20.2834768 112.415673,19.9890971 C112.21942,19.6947174 112.121295,19.3451468 112.121295,18.9403748 Z M116.150596,12.8504259 C116.506305,12.8504259 116.803747,12.7247031 117.04293,12.4732538 C117.282114,12.2218045 117.401704,11.8385034 117.401704,11.323339 C117.401704,10.8449721 117.282114,10.4800694 117.04293,10.2286201 C116.803747,9.9771708 116.506305,9.85144804 116.150596,9.85144804 C115.794887,9.85144804 115.497446,9.9741044 115.258262,10.2194208 C115.019079,10.4647372 114.899489,10.8327062 114.899489,11.323339 C114.899489,11.8385034 115.019079,12.2218045 115.258262,12.4732538 C115.497446,12.7247031 115.794887,12.8504259 116.150596,12.8504259 Z M121.982964,12.8136286 C121.982964,12.0776795 122.105621,11.4122687 122.350937,10.8173765 C122.596253,10.2224842 122.918226,9.7195932 123.316865,9.30868825 C123.715505,8.89778329 124.172399,8.58194318 124.687564,8.36115843 C125.202728,8.14037368 125.736283,8.02998296 126.288245,8.02998296 C126.938334,8.02998296 127.505619,8.14037368 127.990119,8.36115843 C128.474619,8.58194318 128.879385,8.88858407 129.204429,9.28109029 C129.529474,9.67359651 129.77172,10.1366242 129.931175,10.6701874 C130.090631,11.2037505 130.170358,11.7833018 130.170358,12.4088586 C130.170358,12.654175 130.158092,12.8780228 130.13356,13.0804089 C130.109029,13.2827949 130.084498,13.4391817 130.059966,13.5495741 L124.595571,13.5495741 C124.718229,14.2487258 124.991139,14.7546833 125.41431,15.0674617 C125.837481,15.3802401 126.355704,15.5366269 126.968995,15.5366269 C127.619083,15.5366269 128.275295,15.3342439 128.937649,14.9294719 L129.839182,16.5669506 C129.373081,16.8858619 128.854858,17.1373074 128.284497,17.3212947 C127.714137,17.505282 127.152984,17.5972743 126.601022,17.5972743 C125.950934,17.5972743 125.343785,17.48995 124.779557,17.2752981 C124.215329,17.0606463 123.724704,16.7478726 123.307666,16.3369676 C122.890628,15.9260627 122.565589,15.426238 122.332538,14.8374787 C122.099488,14.2487194 121.982964,13.5741094 121.982964,12.8136286 Z M127.870528,11.8752981 C127.870528,11.3478679 127.754005,10.9185707 127.520954,10.5873935 C127.287903,10.2562164 126.895403,10.0906303 126.343441,10.0906303 C125.914138,10.0906303 125.536969,10.2347515 125.211925,10.5229983 C124.886881,10.8112451 124.675299,11.2620072 124.577172,11.8752981 L127.870528,11.8752981 Z" id="Text-with-image" fill="#79797B"></path>
            <path d="M2.55536627,40.8858603 L290.916646,40.8858603" id="Line" stroke="#979797" stroke-width="4" stroke-linecap="square"></path>
            <path d="M2.55536627,76.0517888 L290.916646,76.0517888" id="Line" stroke="#979797" stroke-width="4" stroke-linecap="square"></path>
            <path d="M2.55536627,89.2020443 L290.916646,89.2020443" id="Line" stroke="#979797" stroke-width="4" stroke-linecap="square"></path>
            <path d="M2.55536627,102.3523 L290.916646,102.3523" id="Line" stroke="#979797" stroke-width="4" stroke-linecap="square"></path>
            <path d="M2.55536627,115.502555 L290.916646,115.502555" id="Line" stroke="#979797" stroke-width="4" stroke-linecap="square"></path>
            <path d="M2.55536627,55.402385 L64.3955747,55.402385" id="Line" stroke="#979797" stroke-width="4" stroke-linecap="square"></path>
            <use id="Rectangle-9" stroke="#979797" mask="url(#mask-2)" stroke-width="2" fill="#F2F2F2" stroke-dasharray="4" xlink:href="#path-1"></use>
            <g id="icon-picture" opacity="0.699999988" transform="translate(422.146508, 75.638842)" stroke="#979797">
                <polyline id="Path-15" stroke-width="2" points="1.29901234 37.6740258 22.0806326 16.024092 36.6874507 31.3696425 45.2429776 22.3814243 61.4382804 39.3957963"></polyline>
                <circle id="Oval-6" fill="#D8D8D8" cx="51.1073254" cy="11.2436116" r="3.06643952"></circle>
                <rect id="Rectangle-10" stroke-width="2" x="1" y="1" width="60.350937" height="41.9522998" rx="3"></rect>
            </g>
            <g id="Group" transform="translate(0.000000, 145.144804)">
                <rect id="Rectangle" fill="#4990E2" x="0" y="0" width="99.1482112" height="28.6201022" rx="3"></rect>
                <path d="M27.928109,14.113799 L28.6272572,14.113799 C28.982966,14.113799 29.2543432,14.038672 29.4413969,13.8884157 C29.6284507,13.7381594 29.7219761,13.5158447 29.7219761,13.2214651 C29.7219761,12.9270854 29.6284507,12.721636 29.4413969,12.6051107 C29.2543432,12.4885854 28.982966,12.4303237 28.6272572,12.4303237 L27.928109,12.4303237 L27.928109,14.113799 Z M29.8231687,17.3519591 L28.6732538,15.1901193 L27.928109,15.1901193 L27.928109,17.3519591 L26.5758092,17.3519591 L26.5758092,11.3540034 L28.7376491,11.3540034 C29.0565604,11.3540034 29.3555352,11.3846675 29.6345826,11.4459966 C29.91363,11.5073257 30.1574095,11.6100504 30.3659284,11.7541738 C30.5744474,11.8982971 30.7400335,12.0899477 30.8626917,12.3291312 C30.9853498,12.5683147 31.046678,12.8657563 31.046678,13.2214651 C31.046678,13.6630346 30.9500861,14.026404 30.7568995,14.3115843 C30.5637128,14.5967646 30.3046013,14.80988 29.9795571,14.950937 L31.3410562,17.3519591 L29.8231687,17.3519591 Z M32.2425894,11.3540034 L35.9959114,11.3540034 L35.9959114,12.4947189 L33.5948893,12.4947189 L33.5948893,13.6998296 L35.637138,13.6998296 L35.637138,14.8313458 L33.5948893,14.8313458 L33.5948893,16.2112436 L36.0879046,16.2112436 L36.0879046,17.3519591 L32.2425894,17.3519591 L32.2425894,11.3540034 Z M39.8228279,14.8681431 L39.6848382,14.316184 C39.5989774,14.0156714 39.5161844,13.6967649 39.4364566,13.3594549 C39.3567287,13.0221448 39.2770021,12.6971055 39.1972743,12.3843271 L39.160477,12.3843271 C39.0868821,12.7032384 39.0117551,13.0298109 38.9350937,13.3640545 C38.8584323,13.6982981 38.7771725,14.0156714 38.6913118,14.316184 L38.5441227,14.8681431 L39.8228279,14.8681431 Z M40.0988075,15.9260647 L38.2681431,15.9260647 L37.9001704,17.3519591 L36.5202726,17.3519591 L38.3969336,11.3540034 L40.0252129,11.3540034 L41.9018739,17.3519591 L40.4667802,17.3519591 L40.0988075,15.9260647 Z M42.5550256,11.3540034 L44.2477002,11.3540034 C44.7076684,11.3540034 45.1216336,11.4122652 45.4896082,11.5287905 C45.8575828,11.6453157 46.1734229,11.8247007 46.437138,12.0669506 C46.7008531,12.3092005 46.9032361,12.6173746 47.044293,12.9914821 C47.1853499,13.3655896 47.2558773,13.8102189 47.2558773,14.3253833 C47.2558773,14.8405477 47.1853499,15.2882434 47.044293,15.6684838 C46.9032361,16.0487242 46.7039195,16.3630311 46.4463373,16.611414 C46.1887551,16.8597968 45.880581,17.0453145 45.5218058,17.1679727 C45.1630306,17.2906309 44.7628642,17.3519591 44.3212947,17.3519591 L42.5550256,17.3519591 L42.5550256,11.3540034 Z M44.1649063,16.2572402 C44.4224885,16.2572402 44.6555356,16.2235097 44.8640545,16.1560477 C45.0725734,16.0885857 45.2504252,15.9797282 45.397615,15.8294719 C45.5448048,15.6792156 45.6597952,15.4814322 45.7425894,15.2361158 C45.8253837,14.9907995 45.8667802,14.687225 45.8667802,14.3253833 C45.8667802,13.9696745 45.8253837,13.6706997 45.7425894,13.4284497 C45.6597952,13.1861998 45.5448048,12.9930161 45.397615,12.8488927 C45.2504252,12.7047693 45.0725734,12.6020446 44.8640545,12.5407155 C44.6555356,12.4793864 44.4224885,12.4487223 44.1649063,12.4487223 L43.9073254,12.4487223 L43.9073254,16.2572402 L44.1649063,16.2572402 Z M50.3100511,11.3540034 L51.7451448,11.3540034 L52.7478705,14.0494037 L53.106644,15.0981261 L53.1434412,15.0981261 L53.5022147,14.0494037 L54.4773424,11.3540034 L55.9032368,11.3540034 L55.9032368,17.3519591 L54.6429302,17.3519591 L54.6429302,15.153322 C54.6429302,15.0061321 54.649063,14.8436125 54.6613288,14.6657581 C54.6735946,14.4879037 54.6889267,14.3085188 54.7073254,14.127598 C54.7257241,13.9466771 54.7441226,13.7688254 54.7625213,13.5940375 C54.78092,13.4192496 54.7993185,13.2582631 54.8177172,13.1110733 L54.7809199,13.1110733 L54.2841567,14.5001704 L53.3642249,16.827598 L52.8214651,16.827598 L51.9015332,14.5001704 L51.4231687,13.1110733 L51.3863714,13.1110733 C51.4047701,13.2582631 51.4231686,13.4192496 51.4415673,13.5940375 C51.459966,13.7688254 51.4768313,13.9466771 51.4921635,14.127598 C51.5074958,14.3085188 51.5212947,14.4879037 51.5335605,14.6657581 C51.5458263,14.8436125 51.5519591,15.0061321 51.5519591,15.153322 L51.5519591,17.3519591 L50.3100511,17.3519591 L50.3100511,11.3540034 Z M59.7577513,17.4623509 C59.3529792,17.4623509 58.983477,17.3902903 58.6492334,17.246167 C58.3149898,17.1020436 58.0282806,16.895061 57.7890971,16.6252129 C57.5499136,16.3553649 57.3643959,16.0272592 57.2325383,15.6408859 C57.1006808,15.2545125 57.034753,14.8160161 57.034753,14.3253833 C57.034753,13.8347505 57.1006808,13.3977873 57.2325383,13.0144804 C57.3643959,12.6311736 57.5499136,12.3092006 57.7890971,12.048552 C58.0282806,11.7879033 58.3149898,11.5885867 58.6492334,11.4505963 C58.983477,11.3126058 59.3529792,11.2436116 59.7577513,11.2436116 C60.1625233,11.2436116 60.5320256,11.3126058 60.8662692,11.4505963 C61.2005127,11.5885867 61.487222,11.7894365 61.7264055,12.0531516 C61.9655889,12.3168667 62.1511067,12.6403729 62.2829642,13.0236797 C62.4148218,13.4069866 62.4807496,13.8408834 62.4807496,14.3253833 C62.4807496,14.8160161 62.4148218,15.2545125 62.2829642,15.6408859 C62.1511067,16.0272592 61.9655889,16.3553649 61.7264055,16.6252129 C61.487222,16.895061 61.2005127,17.1020436 60.8662692,17.246167 C60.5320256,17.3902903 60.1625233,17.4623509 59.7577513,17.4623509 Z M59.7577513,16.2940375 C60.1686562,16.2940375 60.4936956,16.117719 60.732879,15.7650767 C60.9720625,15.4124344 61.0916525,14.9325414 61.0916525,14.3253833 C61.0916525,13.7243582 60.9720625,13.2551976 60.732879,12.9178876 C60.4936956,12.5805775 60.1686562,12.411925 59.7577513,12.411925 C59.3468463,12.411925 59.021807,12.5805775 58.7826235,12.9178876 C58.54344,13.2551976 58.4238501,13.7243582 58.4238501,14.3253833 C58.4238501,14.9325414 58.54344,15.4124344 58.7826235,15.7650767 C59.021807,16.117719 59.3468463,16.2940375 59.7577513,16.2940375 Z M64.9645656,14.113799 L65.6637138,14.113799 C66.0194226,14.113799 66.2907997,14.038672 66.4778535,13.8884157 C66.6649072,13.7381594 66.7584327,13.5158447 66.7584327,13.2214651 C66.7584327,12.9270854 66.6649072,12.721636 66.4778535,12.6051107 C66.2907997,12.4885854 66.0194226,12.4303237 65.6637138,12.4303237 L64.9645656,12.4303237 L64.9645656,14.113799 Z M66.8596252,17.3519591 L65.7097104,15.1901193 L64.9645656,15.1901193 L64.9645656,17.3519591 L63.6122658,17.3519591 L63.6122658,11.3540034 L65.7741056,11.3540034 C66.0930169,11.3540034 66.3919918,11.3846675 66.6710392,11.4459966 C66.9500866,11.5073257 67.1938661,11.6100504 67.402385,11.7541738 C67.6109039,11.8982971 67.77649,12.0899477 67.8991482,12.3291312 C68.0218064,12.5683147 68.0831346,12.8657563 68.0831346,13.2214651 C68.0831346,13.6630346 67.9865427,14.026404 67.793356,14.3115843 C67.6001694,14.5967646 67.3410578,14.80988 67.0160136,14.950937 L68.3775128,17.3519591 L66.8596252,17.3519591 Z M69.279046,11.3540034 L73.032368,11.3540034 L73.032368,12.4947189 L70.6313458,12.4947189 L70.6313458,13.6998296 L72.6735945,13.6998296 L72.6735945,14.8313458 L70.6313458,14.8313458 L70.6313458,16.2112436 L73.1243612,16.2112436 L73.1243612,17.3519591 L69.279046,17.3519591 L69.279046,11.3540034 Z" id="READ-MORE" fill="#FFFFFF"></path>
            </g>
        </g>
    </g>
</svg>