<?xml version="1.0" encoding="UTF-8"?>
<svg width="600px" height="397px" viewBox="0 0 600 397" version="1.1" xmlns="http://www.w3.org/2000/svg" xmlns:xlink="http://www.w3.org/1999/xlink">
    <!-- Generator: Sketch 44.1 (41455) - http://www.bohemiancoding.com/sketch -->
    <title>image_text23</title>
    <desc>Created with Sketch.</desc>
    <defs>
        <rect id="path-1" x="303" y="74" width="279" height="246"></rect>
        <mask id="mask-2" maskContentUnits="userSpaceOnUse" maskUnits="objectBoundingBox" x="0" y="0" width="279" height="246" fill="white">
            <use xlink:href="#path-1"></use>
        </mask>
    </defs>
    <g id="Image/Text-Blocks" stroke="none" stroke-width="1" fill="none" fill-rule="evenodd">
        <g id="23">
            <rect id="Rectangle-18" fill="#F8F8F8" x="0" y="0" width="600" height="397"></rect>
            <path d="M24.468,86.024 L21.425,86.024 L21.425,83.916 L30.027,83.916 L30.027,86.024 L26.984,86.024 L26.984,95 L24.468,95 L24.468,86.024 Z M29.772,90.784 C29.772,90.1039966 29.8853322,89.4891694 30.112,88.9395 C30.3386678,88.3898306 30.6361648,87.9251686 31.0045,87.5455 C31.3728352,87.1658314 31.7949976,86.874001 32.271,86.67 C32.7470024,86.465999 33.2399975,86.364 33.75,86.364 C34.3506697,86.364 34.8748311,86.465999 35.3225,86.67 C35.7701689,86.874001 36.1441652,87.1573315 36.4445,87.52 C36.7448348,87.8826685 36.9686659,88.3104975 37.116,88.8035 C37.2633341,89.2965025 37.337,89.8319971 37.337,90.41 C37.337,90.6366678 37.3256668,90.8434991 37.303,91.0305 C37.2803332,91.2175009 37.2576668,91.3619995 37.235,91.464 L32.186,91.464 C32.2993339,92.1100032 32.551498,92.5774986 32.9425,92.8665 C33.333502,93.1555014 33.8123305,93.3 34.379,93.3 C34.9796697,93.3 35.5859969,93.1130019 36.198,92.739 L37.031,94.252 C36.6003312,94.5466681 36.1215026,94.7789991 35.5945,94.949 C35.0674974,95.1190008 34.5490025,95.204 34.039,95.204 C33.4383303,95.204 32.8773359,95.1048343 32.356,94.9065 C31.8346641,94.7081657 31.3813353,94.4191686 30.996,94.0395 C30.6106647,93.6598314 30.3103344,93.1980027 30.095,92.654 C29.8796656,92.1099973 29.772,91.4866702 29.772,90.784 Z M35.212,89.917 C35.212,89.4296642 35.1043344,89.0330015 34.889,88.727 C34.6736656,88.4209985 34.3110026,88.268 33.801,88.268 C33.4043314,88.268 33.0558348,88.4011653 32.7555,88.6675 C32.4551652,88.9338347 32.2596671,89.3503305 32.169,89.917 L35.212,89.917 Z M40.516,90.614 L38.085,86.568 L40.771,86.568 L41.519,87.928 C41.6323339,88.1660012 41.7484994,88.4068321 41.8675,88.6505 C41.9865006,88.8941679 42.1083327,89.1349988 42.233,89.373 L42.301,89.373 C42.3916671,89.1349988 42.4879995,88.8941679 42.59,88.6505 C42.6920005,88.4068321 42.7883329,88.1660012 42.879,87.928 L43.457,86.568 L46.041,86.568 L43.593,90.903 L46.194,95 L43.508,95 L42.692,93.606 C42.5559993,93.3679988 42.422834,93.1243346 42.2925,92.875 C42.162166,92.6256654 42.0290007,92.3820012 41.893,92.144 L41.825,92.144 C41.7229995,92.3820012 41.6153339,92.6228321 41.502,92.8665 C41.3886661,93.1101679 41.2810005,93.3566654 41.179,93.606 L40.516,95 L37.932,95 L40.516,90.614 Z M47.877,88.523 L46.721,88.523 L46.721,86.67 L48.013,86.568 L48.302,84.324 L50.376,84.324 L50.376,86.568 L52.399,86.568 L52.399,88.523 L50.376,88.523 L50.376,91.906 C50.376,92.3820024 50.4751657,92.7248323 50.6735,92.9345 C50.8718343,93.1441677 51.1353317,93.249 51.464,93.249 C51.6000007,93.249 51.7388326,93.2320002 51.8805,93.198 C52.0221674,93.1639998 52.1496661,93.1243336 52.263,93.079 L52.654,94.898 C52.4273322,94.9660003 52.1610015,95.0339997 51.855,95.102 C51.5489985,95.1700003 51.192002,95.204 50.784,95.204 C50.2626641,95.204 49.8178352,95.1246675 49.4495,94.966 C49.0811648,94.8073325 48.7808345,94.5863347 48.5485,94.303 C48.3161655,94.0196652 48.1461672,93.6768353 48.0385,93.2745 C47.9308328,92.8721647 47.877,92.4273358 47.877,91.94 L47.877,88.523 Z M56.887,86.568 L59.369,86.568 L60.185,90.478 C60.2530003,90.8973354 60.3153331,91.310998 60.372,91.719 C60.4286669,92.127002 60.4909997,92.5463312 60.559,92.977 L60.627,92.977 C60.7063337,92.5463312 60.782833,92.1213354 60.8565,91.702 C60.930167,91.2826646 61.0179995,90.8746686 61.12,90.478 L62.055,86.568 L64.214,86.568 L65.166,90.478 C65.2680005,90.8973354 65.3586663,91.310998 65.438,91.719 C65.5173337,92.127002 65.6023329,92.5463312 65.693,92.977 L65.761,92.977 C65.8403337,92.5463312 65.9054997,92.127002 65.9565,91.719 C66.0075003,91.310998 66.0726663,90.8973354 66.152,90.478 L66.951,86.568 L69.263,86.568 L67.24,95 L64.316,95 L63.551,91.634 C63.4603329,91.2373313 63.3810003,90.8406687 63.313,90.444 C63.2449997,90.0473314 63.1713337,89.6223356 63.092,89.169 L63.024,89.169 C62.9446663,89.6223356 62.8738336,90.0473314 62.8115,90.444 C62.7491664,90.8406687 62.6783337,91.2373313 62.599,91.634 L61.851,95 L58.995,95 L56.887,86.568 Z M72.017,85.327 C71.5976646,85.327 71.2520014,85.2051679 70.98,84.9615 C70.7079986,84.7178321 70.572,84.4033353 70.572,84.018 C70.572,83.6326647 70.7079986,83.3210012 70.98,83.083 C71.2520014,82.8449988 71.5976646,82.726 72.017,82.726 C72.4476688,82.726 72.7961653,82.8449988 73.0625,83.083 C73.3288347,83.3210012 73.462,83.6326647 73.462,84.018 C73.462,84.4033353 73.3288347,84.7178321 73.0625,84.9615 C72.7961653,85.2051679 72.4476688,85.327 72.017,85.327 Z M70.776,86.568 L73.275,86.568 L73.275,95 L70.776,95 L70.776,86.568 Z M75.808,88.523 L74.652,88.523 L74.652,86.67 L75.944,86.568 L76.233,84.324 L78.307,84.324 L78.307,86.568 L80.33,86.568 L80.33,88.523 L78.307,88.523 L78.307,91.906 C78.307,92.3820024 78.4061657,92.7248323 78.6045,92.9345 C78.8028343,93.1441677 79.0663317,93.249 79.395,93.249 C79.5310007,93.249 79.6698326,93.2320002 79.8115,93.198 C79.9531674,93.1639998 80.0806661,93.1243336 80.194,93.079 L80.585,94.898 C80.3583322,94.9660003 80.0920015,95.0339997 79.786,95.102 C79.4799985,95.1700003 79.123002,95.204 78.715,95.204 C78.1936641,95.204 77.7488352,95.1246675 77.3805,94.966 C77.0121648,94.8073325 76.7118345,94.5863347 76.4795,94.303 C76.2471655,94.0196652 76.0771672,93.6768353 75.9695,93.2745 C75.8618328,92.8721647 75.808,92.4273358 75.808,91.94 L75.808,88.523 Z M81.979,83.083 L84.478,83.083 L84.478,86.007 L84.359,87.52 C84.6763349,87.2366653 85.0446646,86.9731679 85.464,86.7295 C85.8833354,86.4858321 86.3819971,86.364 86.96,86.364 C87.8780046,86.364 88.5438313,86.6643303 88.9575,87.265 C89.3711687,87.8656697 89.578,88.6986613 89.578,89.764 L89.578,95 L87.079,95 L87.079,90.087 C87.079,89.4749969 86.9968342,89.0556678 86.8325,88.829 C86.6681658,88.6023322 86.4046685,88.489 86.042,88.489 C85.7246651,88.489 85.4526678,88.5598326 85.226,88.7015 C84.9993322,88.8431674 84.7500014,89.044332 84.478,89.305 L84.478,95 L81.979,95 L81.979,83.083 Z M96.463,85.327 C96.0436646,85.327 95.6980014,85.2051679 95.426,84.9615 C95.1539986,84.7178321 95.018,84.4033353 95.018,84.018 C95.018,83.6326647 95.1539986,83.3210012 95.426,83.083 C95.6980014,82.8449988 96.0436646,82.726 96.463,82.726 C96.8936688,82.726 97.2421653,82.8449988 97.5085,83.083 C97.7748347,83.3210012 97.908,83.6326647 97.908,84.018 C97.908,84.4033353 97.7748347,84.7178321 97.5085,84.9615 C97.2421653,85.2051679 96.8936688,85.327 96.463,85.327 Z M95.222,86.568 L97.721,86.568 L97.721,95 L95.222,95 L95.222,86.568 Z M99.914,86.568 L101.954,86.568 L102.124,87.656 L102.192,87.656 C102.543335,87.3046649 102.917331,87.0015013 103.314,86.7465 C103.710669,86.4914987 104.186664,86.364 104.742,86.364 C105.34267,86.364 105.827165,86.4858321 106.1955,86.7295 C106.563835,86.9731679 106.855666,87.3216644 107.071,87.775 C107.445002,87.3896647 107.838831,87.0581681 108.2525,86.7805 C108.666169,86.5028319 109.15633,86.364 109.723,86.364 C110.629671,86.364 111.295498,86.6671636 111.7205,87.2735 C112.145502,87.8798364 112.358,88.7099947 112.358,89.764 L112.358,95 L109.859,95 L109.859,90.087 C109.859,89.4749969 109.776834,89.0556678 109.6125,88.829 C109.448166,88.6023322 109.184668,88.489 108.822,88.489 C108.402665,88.489 107.921003,88.7609973 107.377,89.305 L107.377,95 L104.878,95 L104.878,90.087 C104.878,89.4749969 104.795834,89.0556678 104.6315,88.829 C104.467166,88.6023322 104.203668,88.489 103.841,88.489 C103.410331,88.489 102.934336,88.7609973 102.413,89.305 L102.413,95 L99.914,95 L99.914,86.568 Z M114.177,92.654 C114.177,91.7699956 114.550996,91.0786692 115.299,90.58 C116.047004,90.0813308 117.253992,89.7470009 118.92,89.577 C118.897333,89.2029981 118.784001,88.9055011 118.58,88.6845 C118.375999,88.4634989 118.047336,88.353 117.594,88.353 C117.231332,88.353 116.868668,88.4209993 116.506,88.557 C116.143332,88.6930007 115.758002,88.8799988 115.35,89.118 L114.466,87.469 C115.010003,87.1403317 115.579497,86.874001 116.1745,86.67 C116.769503,86.465999 117.40133,86.364 118.07,86.364 C119.158005,86.364 119.988164,86.6728302 120.5605,87.2905 C121.132836,87.9081698 121.419,88.8686601 121.419,90.172 L121.419,95 L119.379,95 L119.192,94.133 L119.141,94.133 C118.778332,94.4503349 118.395835,94.7081657 117.9935,94.9065 C117.591165,95.1048343 117.152002,95.204 116.676,95.204 C116.290665,95.204 115.945002,95.138834 115.639,95.0085 C115.332998,94.878166 115.072334,94.6968345 114.857,94.4645 C114.641666,94.2321655 114.474501,93.9630015 114.3555,93.657 C114.236499,93.3509985 114.177,93.0166685 114.177,92.654 Z M116.557,92.467 C116.557,92.7390014 116.644832,92.940166 116.8205,93.0705 C116.996168,93.200834 117.231332,93.266 117.526,93.266 C117.820668,93.266 118.069999,93.2036673 118.274,93.079 C118.478001,92.9543327 118.693332,92.7786678 118.92,92.552 L118.92,91.073 C118.024662,91.1976673 117.407002,91.3789988 117.067,91.617 C116.726998,91.8550012 116.557,92.1383317 116.557,92.467 Z M125.091,96.054 C125.091,96.3713349 125.260998,96.6121658 125.601,96.7765 C125.941002,96.9408342 126.394331,97.023 126.961,97.023 C127.52767,97.023 127.992332,96.9238343 128.355,96.7255 C128.717668,96.5271657 128.899,96.2806681 128.899,95.986 C128.899,95.725332 128.788501,95.5496671 128.5675,95.459 C128.346499,95.3683329 128.026335,95.323 127.607,95.323 L126.74,95.323 C126.445332,95.323 126.207334,95.3145001 126.026,95.2975 C125.844666,95.2804999 125.686001,95.2550002 125.55,95.221 C125.243998,95.4930014 125.091,95.7706653 125.091,96.054 Z M123.034,96.445 C123.034,95.7649966 123.436329,95.1983356 124.241,94.745 L124.241,94.677 C124.014332,94.5296659 123.827334,94.3426678 123.68,94.116 C123.532666,93.8893322 123.459,93.6003351 123.459,93.249 C123.459,92.9429985 123.549666,92.6511681 123.731,92.3735 C123.912334,92.0958319 124.138999,91.8606676 124.411,91.668 L124.411,91.6 C124.116332,91.395999 123.852834,91.1041686 123.6205,90.7245 C123.388166,90.3448314 123.272,89.9056692 123.272,89.407 C123.272,88.8969974 123.368332,88.4521686 123.561,88.0725 C123.753668,87.6928314 124.011498,87.3755013 124.3345,87.1205 C124.657502,86.8654987 125.028665,86.6756673 125.448,86.551 C125.867335,86.4263327 126.303664,86.364 126.757,86.364 C127.255669,86.364 127.691998,86.4319993 128.066,86.568 L131.143,86.568 L131.143,88.387 L129.8,88.387 C129.879334,88.5116673 129.9445,88.6703324 129.9955,88.863 C130.0465,89.0556676 130.072,89.2653322 130.072,89.492 C130.072,89.9793358 129.987001,90.4014982 129.817,90.7585 C129.646999,91.1155018 129.411835,91.4101655 129.1115,91.6425 C128.811165,91.8748345 128.459835,92.0476661 128.0575,92.161 C127.655165,92.2743339 127.221669,92.331 126.757,92.331 C126.428332,92.331 126.088335,92.2743339 125.737,92.161 C125.623666,92.2516671 125.544334,92.3423329 125.499,92.433 C125.453666,92.5236671 125.431,92.6426659 125.431,92.79 C125.431,93.0053344 125.524499,93.1639995 125.7115,93.266 C125.898501,93.3680005 126.229998,93.419 126.706,93.419 L128.066,93.419 C129.108672,93.419 129.904831,93.586165 130.4545,93.9205 C131.004169,94.254835 131.279,94.8016629 131.279,95.561 C131.279,96.0030022 131.168501,96.4081648 130.9475,96.7765 C130.726499,97.1448352 130.412002,97.4621653 130.004,97.7285 C129.595998,97.9948347 129.103003,98.2044992 128.525,98.3575 C127.946997,98.5105008 127.295337,98.587 126.57,98.587 C126.071331,98.587 125.609502,98.5445004 125.1845,98.4595 C124.759498,98.3744996 124.385502,98.2470009 124.0625,98.077 C123.739498,97.9069992 123.487334,97.6860014 123.306,97.414 C123.124666,97.1419986 123.034,96.8190019 123.034,96.445 Z M126.757,90.818 C127.085668,90.818 127.360499,90.7018345 127.5815,90.4695 C127.802501,90.2371655 127.913,89.8830024 127.913,89.407 C127.913,88.9649978 127.802501,88.6278345 127.5815,88.3955 C127.360499,88.1631655 127.085668,88.047 126.757,88.047 C126.428332,88.047 126.153501,88.1603322 125.9325,88.387 C125.711499,88.6136678 125.601,88.9536644 125.601,89.407 C125.601,89.8830024 125.711499,90.2371655 125.9325,90.4695 C126.153501,90.7018345 126.428332,90.818 126.757,90.818 Z M131.84,90.784 C131.84,90.1039966 131.953332,89.4891694 132.18,88.9395 C132.406668,88.3898306 132.704165,87.9251686 133.0725,87.5455 C133.440835,87.1658314 133.862998,86.874001 134.339,86.67 C134.815002,86.465999 135.307997,86.364 135.818,86.364 C136.41867,86.364 136.942831,86.465999 137.3905,86.67 C137.838169,86.874001 138.212165,87.1573315 138.5125,87.52 C138.812835,87.8826685 139.036666,88.3104975 139.184,88.8035 C139.331334,89.2965025 139.405,89.8319971 139.405,90.41 C139.405,90.6366678 139.393667,90.8434991 139.371,91.0305 C139.348333,91.2175009 139.325667,91.3619995 139.303,91.464 L134.254,91.464 C134.367334,92.1100032 134.619498,92.5774986 135.0105,92.8665 C135.401502,93.1555014 135.880331,93.3 136.447,93.3 C137.04767,93.3 137.653997,93.1130019 138.266,92.739 L139.099,94.252 C138.668331,94.5466681 138.189503,94.7789991 137.6625,94.949 C137.135497,95.1190008 136.617003,95.204 136.107,95.204 C135.50633,95.204 134.945336,95.1048343 134.424,94.9065 C133.902664,94.7081657 133.449335,94.4191686 133.064,94.0395 C132.678665,93.6598314 132.378334,93.1980027 132.163,92.654 C131.947666,92.1099973 131.84,91.4866702 131.84,90.784 Z M137.28,89.917 C137.28,89.4296642 137.172334,89.0330015 136.957,88.727 C136.741666,88.4209985 136.379003,88.268 135.869,88.268 C135.472331,88.268 135.123835,88.4011653 134.8235,88.6675 C134.523165,88.9338347 134.327667,89.3503305 134.237,89.917 L137.28,89.917 Z" id="Text-with-image" fill="#79797B"></path>
            <path d="M21.5,110.5 L56.5142828,110.5" id="Line" stroke="#4990E2" stroke-linecap="square"></path>
            <path d="M24.5,128.5 L148.504032,128.5" id="Line" stroke="#979797" stroke-width="7" stroke-linecap="square"></path>
            <path d="M22.5,161 L238.502315,161" id="Line" stroke="#D7D9D9" stroke-width="4" stroke-linecap="square"></path>
            <path d="M22.5,175 L238.502315,175" id="Line" stroke="#D7D9D9" stroke-width="4" stroke-linecap="square"></path>
            <path d="M22.5,189 L238.502315,189" id="Line" stroke="#D7D9D9" stroke-width="4" stroke-linecap="square"></path>
            <path d="M22.5,203 L238.502315,203" id="Line" stroke="#D7D9D9" stroke-width="4" stroke-linecap="square"></path>
            <path d="M22.5,217 L197.011461,217" id="Line" stroke="#D7D9D9" stroke-width="4" stroke-linecap="square"></path>
            <circle id="Oval-2" fill="#4990E2" cx="23.5" cy="240.5" r="1.5"></circle>
            <circle id="Oval-2" fill="#4990E2" cx="31" cy="240.5" r="1.5"></circle>
            <circle id="Oval-2" fill="#4990E2" cx="38.5" cy="240.5" r="1.5"></circle>
            <use id="Rectangle-9" stroke="#979797" mask="url(#mask-2)" stroke-width="2" fill="#F2F2F2" stroke-dasharray="4" xlink:href="#path-1"></use>
            <g id="icon-picture" opacity="0.699999988" transform="translate(412.000000, 176.000000)" stroke="#979797">
                <polyline id="Path-15" stroke-width="2" points="1.27086707 36.8577552 21.6022189 15.6769033 35.892556 30.6899669 44.262713 21.8964934 60.1071177 38.5422208"></polyline>
                <circle id="Oval-6" fill="#D8D8D8" cx="50" cy="11" r="3"></circle>
                <rect id="Rectangle-10" stroke-width="2" x="1" y="1" width="59" height="41" rx="3"></rect>
            </g>
            <path d="M21.5,266 L89.5,266" id="Line" stroke="#979797" stroke-width="4" stroke-linecap="square"></path>
            <path d="M21.5,283.2065 L89.5,283.2065" id="Line" stroke="#4990E2" stroke-width="4" stroke-linecap="square"></path>
            <path d="M21.5,300.413 L89.5,300.413" id="Line" stroke="#4990E2" stroke-width="4" stroke-linecap="square"></path>
        </g>
    </g>
</svg>