<?xml version="1.0" encoding="UTF-8"?>
<svg width="600px" height="236px" viewBox="0 0 600 236" version="1.1" xmlns="http://www.w3.org/2000/svg" xmlns:xlink="http://www.w3.org/1999/xlink">
    <!-- Generator: Sketch 44.1 (41455) - http://www.bohemiancoding.com/sketch -->
    <title>image_text17</title>
    <desc>Created with Sketch.</desc>
    <defs>
        <rect id="path-1" x="420" y="0" width="180" height="236"></rect>
        <mask id="mask-2" maskContentUnits="userSpaceOnUse" maskUnits="objectBoundingBox" x="0" y="0" width="180" height="236" fill="white">
            <use xlink:href="#path-1"></use>
        </mask>
    </defs>
    <g id="Image/Text-Blocks" stroke="none" stroke-width="1" fill="none" fill-rule="evenodd">
        <g id="17">
            <use id="Rectangle-9" stroke="#979797" mask="url(#mask-2)" stroke-width="2" fill="#F2F2F2" stroke-dasharray="4" xlink:href="#path-1"></use>
            <g id="icon-picture" opacity="0.699999988" transform="translate(479.000000, 97.000000)" stroke="#979797">
                <polyline id="Path-15" stroke-width="2" points="1.27086707 36.8577552 21.6022189 15.6769033 35.892556 30.6899669 44.262713 21.8964934 60.1071177 38.5422208"></polyline>
                <circle id="Oval-6" fill="#D8D8D8" cx="50" cy="11" r="3"></circle>
                <rect id="Rectangle-10" stroke-width="2" x="1" y="1" width="59" height="41" rx="3"></rect>
            </g>
            <path d="M5.424,10.936 L0.672,10.936 L0.672,9.256 L12.192,9.256 L12.192,10.936 L7.44,10.936 L7.44,25 L5.424,25 L5.424,10.936 Z M14.832,7.912 L16.8,7.912 L16.8,12.568 L16.728,14.968 C17.2880028,14.4399974 17.871997,13.9880019 18.48,13.612 C19.088003,13.2359981 19.7999959,13.048 20.616,13.048 C21.8480062,13.048 22.7479972,13.4319962 23.316,14.2 C23.8840028,14.9680038 24.168,16.1039925 24.168,17.608 L24.168,25 L22.2,25 L22.2,17.872 C22.2,16.7679945 22.0240018,15.9720024 21.672,15.484 C21.3199982,14.9959976 20.7600038,14.752 19.992,14.752 C19.383997,14.752 18.8480023,14.9039985 18.384,15.208 C17.9199977,15.5120015 17.392003,15.959997 16.8,16.552 L16.8,25 L14.832,25 L14.832,7.912 Z M27.024,19.192 C27.024,18.2319952 27.1719985,17.3720038 27.468,16.612 C27.7640015,15.8519962 28.1559976,15.2080026 28.644,14.68 C29.1320024,14.1519974 29.6879969,13.7480014 30.312,13.468 C30.9360031,13.1879986 31.5839966,13.048 32.256,13.048 C32.9920037,13.048 33.6519971,13.1759987 34.236,13.432 C34.8200029,13.6880013 35.307998,14.0559976 35.7,14.536 C36.092002,15.0160024 36.391999,15.5919966 36.6,16.264 C36.808001,16.9360034 36.912,17.6879958 36.912,18.52 C36.912,18.9520022 36.8880002,19.3119986 36.84,19.6 L28.968,19.6 C29.0480004,20.8640063 29.4359965,21.8639963 30.132,22.6 C30.8280035,23.3360037 31.7359944,23.704 32.856,23.704 C33.4160028,23.704 33.9319976,23.6200008 34.404,23.452 C34.8760024,23.2839992 35.3279978,23.0640014 35.76,22.792 L36.456,24.088 C35.9439974,24.4080016 35.3760031,24.6879988 34.752,24.928 C34.1279969,25.1680012 33.416004,25.288 32.616,25.288 C31.8319961,25.288 31.1000034,25.1480014 30.42,24.868 C29.7399966,24.5879986 29.1480025,24.1880026 28.644,23.668 C28.1399975,23.1479974 27.7440014,22.5120038 27.456,21.76 C27.1679986,21.0079962 27.024,20.1520048 27.024,19.192 Z M35.184,18.304 C35.184,17.103994 34.9320025,16.1880032 34.428,15.556 C33.9239975,14.9239968 33.2160046,14.608 32.304,14.608 C31.8879979,14.608 31.4920019,14.6919992 31.116,14.86 C30.7399981,15.0280008 30.4000015,15.2679984 30.096,15.58 C29.7919985,15.8920016 29.540001,16.2759977 29.34,16.732 C29.139999,17.1880023 29.0080003,17.711997 28.944,18.304 L35.184,18.304 Z M43.776,19.192 C43.776,18.2319952 43.9239985,17.3720038 44.22,16.612 C44.5160015,15.8519962 44.9079976,15.2080026 45.396,14.68 C45.8840024,14.1519974 46.4399969,13.7480014 47.064,13.468 C47.6880031,13.1879986 48.3359966,13.048 49.008,13.048 C49.7440037,13.048 50.4039971,13.1759987 50.988,13.432 C51.5720029,13.6880013 52.059998,14.0559976 52.452,14.536 C52.844002,15.0160024 53.143999,15.5919966 53.352,16.264 C53.560001,16.9360034 53.664,17.6879958 53.664,18.52 C53.664,18.9520022 53.6400002,19.3119986 53.592,19.6 L45.72,19.6 C45.8000004,20.8640063 46.1879965,21.8639963 46.884,22.6 C47.5800035,23.3360037 48.4879944,23.704 49.608,23.704 C50.1680028,23.704 50.6839976,23.6200008 51.156,23.452 C51.6280024,23.2839992 52.0799978,23.0640014 52.512,22.792 L53.208,24.088 C52.6959974,24.4080016 52.1280031,24.6879988 51.504,24.928 C50.8799969,25.1680012 50.168004,25.288 49.368,25.288 C48.5839961,25.288 47.8520034,25.1480014 47.172,24.868 C46.4919966,24.5879986 45.9000025,24.1880026 45.396,23.668 C44.8919975,23.1479974 44.4960014,22.5120038 44.208,21.76 C43.9199986,21.0079962 43.776,20.1520048 43.776,19.192 Z M51.936,18.304 C51.936,17.103994 51.6840025,16.1880032 51.18,15.556 C50.6759975,14.9239968 49.9680046,14.608 49.056,14.608 C48.6399979,14.608 48.2440019,14.6919992 47.868,14.86 C47.4919981,15.0280008 47.1520015,15.2679984 46.848,15.58 C46.5439985,15.8920016 46.292001,16.2759977 46.092,16.732 C45.891999,17.1880023 45.7600003,17.711997 45.696,18.304 L51.936,18.304 Z M54.864,13.336 L56.904,13.336 L59.112,19.96 C59.2880009,20.5360029 59.4679991,21.1119971 59.652,21.688 C59.8360009,22.2640029 60.0159991,22.8319972 60.192,23.392 L60.288,23.392 C60.4640009,22.8319972 60.6399991,22.2640029 60.816,21.688 L61.344,19.96 L63.552,13.336 L65.496,13.336 L61.368,25 L59.064,25 L54.864,13.336 Z M66.888,19.192 C66.888,18.2319952 67.0359985,17.3720038 67.332,16.612 C67.6280015,15.8519962 68.0199976,15.2080026 68.508,14.68 C68.9960024,14.1519974 69.5519969,13.7480014 70.176,13.468 C70.8000031,13.1879986 71.4479966,13.048 72.12,13.048 C72.8560037,13.048 73.5159971,13.1759987 74.1,13.432 C74.6840029,13.6880013 75.171998,14.0559976 75.564,14.536 C75.956002,15.0160024 76.255999,15.5919966 76.464,16.264 C76.672001,16.9360034 76.776,17.6879958 76.776,18.52 C76.776,18.9520022 76.7520002,19.3119986 76.704,19.6 L68.832,19.6 C68.9120004,20.8640063 69.2999965,21.8639963 69.996,22.6 C70.6920035,23.3360037 71.5999944,23.704 72.72,23.704 C73.2800028,23.704 73.7959976,23.6200008 74.268,23.452 C74.7400024,23.2839992 75.1919978,23.0640014 75.624,22.792 L76.32,24.088 C75.8079974,24.4080016 75.2400031,24.6879988 74.616,24.928 C73.9919969,25.1680012 73.280004,25.288 72.48,25.288 C71.6959961,25.288 70.9640034,25.1480014 70.284,24.868 C69.6039966,24.5879986 69.0120025,24.1880026 68.508,23.668 C68.0039975,23.1479974 67.6080014,22.5120038 67.32,21.76 C67.0319986,21.0079962 66.888,20.1520048 66.888,19.192 Z M75.048,18.304 C75.048,17.103994 74.7960025,16.1880032 74.292,15.556 C73.7879975,14.9239968 73.0800046,14.608 72.168,14.608 C71.7519979,14.608 71.3560019,14.6919992 70.98,14.86 C70.6039981,15.0280008 70.2640015,15.2679984 69.96,15.58 C69.6559985,15.8920016 69.404001,16.2759977 69.204,16.732 C69.003999,17.1880023 68.8720003,17.711997 68.808,18.304 L75.048,18.304 Z M79.656,13.336 L81.288,13.336 L81.456,15.016 L81.528,15.016 C82.0880028,14.4559972 82.6759969,13.9880019 83.292,13.612 C83.9080031,13.2359981 84.6239959,13.048 85.44,13.048 C86.6720062,13.048 87.5719972,13.4319962 88.14,14.2 C88.7080028,14.9680038 88.992,16.1039925 88.992,17.608 L88.992,25 L87.024,25 L87.024,17.872 C87.024,16.7679945 86.8480018,15.9720024 86.496,15.484 C86.1439982,14.9959976 85.5840038,14.752 84.816,14.752 C84.207997,14.752 83.6720023,14.9039985 83.208,15.208 C82.7439977,15.5120015 82.216003,15.959997 81.624,16.552 L81.624,25 L79.656,25 L79.656,13.336 Z M93.12,14.944 L91.392,14.944 L91.392,13.456 L93.216,13.336 L93.456,10.072 L95.112,10.072 L95.112,13.336 L98.256,13.336 L98.256,14.944 L95.112,14.944 L95.112,21.424 C95.112,22.1440036 95.2439987,22.699998 95.508,23.092 C95.7720013,23.484002 96.2399966,23.68 96.912,23.68 C97.120001,23.68 97.3439988,23.6480003 97.584,23.584 C97.8240012,23.5199997 98.039999,23.4480004 98.232,23.368 L98.616,24.856 C98.2959984,24.9680006 97.9480019,25.0679996 97.572,25.156 C97.1959981,25.2440004 96.8240018,25.288 96.456,25.288 C95.8319969,25.288 95.3080021,25.192001 94.884,25 C94.4599979,24.807999 94.1160013,24.5440017 93.852,24.208 C93.5879987,23.8719983 93.4000006,23.4640024 93.288,22.984 C93.1759994,22.5039976 93.12,21.9760029 93.12,21.4 L93.12,14.944 Z M100.584,22.36 C101.096003,22.7760021 101.619997,23.1119987 102.156,23.368 C102.692003,23.6240013 103.311996,23.752 104.016,23.752 C104.784004,23.752 105.359998,23.5760018 105.744,23.224 C106.128002,22.8719982 106.32,22.4400026 106.32,21.928 C106.32,21.6239985 106.240001,21.3600011 106.08,21.136 C105.919999,20.9119989 105.716001,20.7160008 105.468,20.548 C105.219999,20.3799992 104.936002,20.2320006 104.616,20.104 L103.656,19.72 C103.239998,19.5759993 102.824002,19.4120009 102.408,19.228 C101.991998,19.0439991 101.620002,18.8200013 101.292,18.556 C100.963998,18.2919987 100.696001,17.9840018 100.488,17.632 C100.279999,17.2799982 100.176,16.8560025 100.176,16.36 C100.176,15.8959977 100.267999,15.460002 100.452,15.052 C100.636001,14.643998 100.899998,14.2920015 101.244,13.996 C101.588002,13.6999985 102.007998,13.4680008 102.504,13.3 C103.000002,13.1319992 103.559997,13.048 104.184,13.048 C104.920004,13.048 105.595997,13.1759987 106.212,13.432 C106.828003,13.6880013 107.359998,13.9999982 107.808,14.368 L106.872,15.616 C106.471998,15.3119985 106.056002,15.064001 105.624,14.872 C105.191998,14.679999 104.720003,14.584 104.208,14.584 C103.471996,14.584 102.932002,14.7519983 102.588,15.088 C102.243998,15.4240017 102.072,15.8159978 102.072,16.264 C102.072,16.5360014 102.143999,16.771999 102.288,16.972 C102.432001,17.172001 102.623999,17.3479992 102.864,17.5 C103.104001,17.6520008 103.379998,17.7879994 103.692,17.908 C104.004002,18.0280006 104.327998,18.1519994 104.664,18.28 C105.080002,18.4400008 105.499998,18.6079991 105.924,18.784 C106.348002,18.9600009 106.727998,19.1799987 107.064,19.444 C107.400002,19.7080013 107.675999,20.0319981 107.892,20.416 C108.108001,20.8000019 108.216,21.2639973 108.216,21.808 C108.216,22.2880024 108.124001,22.7359979 107.94,23.152 C107.755999,23.5680021 107.484002,23.9359984 107.124,24.256 C106.763998,24.5760016 106.316003,24.8279991 105.78,25.012 C105.243997,25.1960009 104.632003,25.288 103.944,25.288 C103.111996,25.288 102.320004,25.1360015 101.568,24.832 C100.815996,24.5279985 100.160003,24.1440023 99.6,23.68 L100.584,22.36 Z M114.936,19.192 C114.936,18.2159951 115.083999,17.3480038 115.38,16.588 C115.676001,15.8279962 116.071998,15.1840026 116.568,14.656 C117.064002,14.1279974 117.635997,13.7280014 118.284,13.456 C118.932003,13.1839986 119.615996,13.048 120.336,13.048 C121.056004,13.048 121.739997,13.1839986 122.388,13.456 C123.036003,13.7280014 123.607998,14.1279974 124.104,14.656 C124.600002,15.1840026 124.995999,15.8279962 125.292,16.588 C125.588001,17.3480038 125.736,18.2159951 125.736,19.192 C125.736,20.1520048 125.588001,21.0119962 125.292,21.772 C124.995999,22.5320038 124.600002,23.1719974 124.104,23.692 C123.607998,24.2120026 123.036003,24.6079986 122.388,24.88 C121.739997,25.1520014 121.056004,25.288 120.336,25.288 C119.615996,25.288 118.932003,25.1520014 118.284,24.88 C117.635997,24.6079986 117.064002,24.2120026 116.568,23.692 C116.071998,23.1719974 115.676001,22.5320038 115.38,21.772 C115.083999,21.0119962 114.936,20.1520048 114.936,19.192 Z M116.976,19.192 C116.976,19.8640034 117.055999,20.4719973 117.216,21.016 C117.376001,21.5600027 117.603999,22.027998 117.9,22.42 C118.196001,22.812002 118.551998,23.1159989 118.968,23.332 C119.384002,23.5480011 119.839998,23.656 120.336,23.656 C120.832002,23.656 121.287998,23.5480011 121.704,23.332 C122.120002,23.1159989 122.475999,22.812002 122.772,22.42 C123.068001,22.027998 123.295999,21.5600027 123.456,21.016 C123.616001,20.4719973 123.696,19.8640034 123.696,19.192 C123.696,18.5199966 123.616001,17.9080028 123.456,17.356 C123.295999,16.8039972 123.068001,16.328002 122.772,15.928 C122.475999,15.527998 122.120002,15.2200011 121.704,15.004 C121.287998,14.7879989 120.832002,14.68 120.336,14.68 C119.839998,14.68 119.384002,14.7879989 118.968,15.004 C118.551998,15.2200011 118.196001,15.527998 117.9,15.928 C117.603999,16.328002 117.376001,16.8039972 117.216,17.356 C117.055999,17.9080028 116.976,18.5199966 116.976,19.192 Z M134.064,9.52 C133.631998,9.32799904 133.192002,9.232 132.744,9.232 C131.655995,9.232 131.112,9.98399248 131.112,11.488 L131.112,13.336 L133.584,13.336 L133.584,14.944 L131.112,14.944 L131.112,25 L129.144,25 L129.144,14.944 L127.56,14.944 L127.56,13.456 L129.144,13.336 L129.144,11.488 C129.144,10.287994 129.419997,9.34400344 129.972,8.656 C130.524003,7.96799656 131.383994,7.624 132.552,7.624 C132.920002,7.624 133.267998,7.65999964 133.596,7.732 C133.924002,7.80400036 134.223999,7.89599944 134.496,8.008 L134.064,9.52 Z M141,14.944 L139.272,14.944 L139.272,13.456 L141.096,13.336 L141.336,10.072 L142.992,10.072 L142.992,13.336 L146.136,13.336 L146.136,14.944 L142.992,14.944 L142.992,21.424 C142.992,22.1440036 143.123999,22.699998 143.388,23.092 C143.652001,23.484002 144.119997,23.68 144.792,23.68 C145.000001,23.68 145.223999,23.6480003 145.464,23.584 C145.704001,23.5199997 145.919999,23.4480004 146.112,23.368 L146.496,24.856 C146.175998,24.9680006 145.828002,25.0679996 145.452,25.156 C145.075998,25.2440004 144.704002,25.288 144.336,25.288 C143.711997,25.288 143.188002,25.192001 142.764,25 C142.339998,24.807999 141.996001,24.5440017 141.732,24.208 C141.467999,23.8719983 141.280001,23.4640024 141.168,22.984 C141.055999,22.5039976 141,21.9760029 141,21.4 L141,14.944 Z M148.776,7.912 L150.744,7.912 L150.744,12.568 L150.672,14.968 C151.232003,14.4399974 151.815997,13.9880019 152.424,13.612 C153.032003,13.2359981 153.743996,13.048 154.56,13.048 C155.792006,13.048 156.691997,13.4319962 157.26,14.2 C157.828003,14.9680038 158.112,16.1039925 158.112,17.608 L158.112,25 L156.144,25 L156.144,17.872 C156.144,16.7679945 155.968002,15.9720024 155.616,15.484 C155.263998,14.9959976 154.704004,14.752 153.936,14.752 C153.327997,14.752 152.792002,14.9039985 152.328,15.208 C151.863998,15.5120015 151.336003,15.959997 150.744,16.552 L150.744,25 L148.776,25 L148.776,7.912 Z M160.968,19.192 C160.968,18.2319952 161.115999,17.3720038 161.412,16.612 C161.708001,15.8519962 162.099998,15.2080026 162.588,14.68 C163.076002,14.1519974 163.631997,13.7480014 164.256,13.468 C164.880003,13.1879986 165.527997,13.048 166.2,13.048 C166.936004,13.048 167.595997,13.1759987 168.18,13.432 C168.764003,13.6880013 169.251998,14.0559976 169.644,14.536 C170.036002,15.0160024 170.335999,15.5919966 170.544,16.264 C170.752001,16.9360034 170.856,17.6879958 170.856,18.52 C170.856,18.9520022 170.832,19.3119986 170.784,19.6 L162.912,19.6 C162.992,20.8640063 163.379997,21.8639963 164.076,22.6 C164.772003,23.3360037 165.679994,23.704 166.8,23.704 C167.360003,23.704 167.875998,23.6200008 168.348,23.452 C168.820002,23.2839992 169.271998,23.0640014 169.704,22.792 L170.4,24.088 C169.887997,24.4080016 169.320003,24.6879988 168.696,24.928 C168.071997,25.1680012 167.360004,25.288 166.56,25.288 C165.775996,25.288 165.044003,25.1480014 164.364,24.868 C163.683997,24.5879986 163.092003,24.1880026 162.588,23.668 C162.083997,23.1479974 161.688001,22.5120038 161.4,21.76 C161.111999,21.0079962 160.968,20.1520048 160.968,19.192 Z M169.128,18.304 C169.128,17.103994 168.876003,16.1880032 168.372,15.556 C167.867997,14.9239968 167.160005,14.608 166.248,14.608 C165.831998,14.608 165.436002,14.6919992 165.06,14.86 C164.683998,15.0280008 164.344002,15.2679984 164.04,15.58 C163.735998,15.8920016 163.484001,16.2759977 163.284,16.732 C163.083999,17.1880023 162.952,17.711997 162.888,18.304 L169.128,18.304 Z M1.128,50.192 C1.128,49.2479953 1.2679986,48.3960038 1.548,47.636 C1.8280014,46.8759962 2.19999768,46.2320026 2.664,45.704 C3.12800232,45.1759974 3.66399696,44.7680014 4.272,44.48 C4.88000304,44.1919986 5.51999664,44.048 6.192,44.048 C6.86400336,44.048 7.44799752,44.1679988 7.944,44.408 C8.44000248,44.6480012 8.94399744,44.9759979 9.456,45.392 L9.36,43.4 L9.36,38.912 L11.352,38.912 L11.352,56 L9.72,56 L9.552,54.632 L9.48,54.632 C9.01599768,55.0800022 8.484003,55.4679984 7.884,55.796 C7.283997,56.1240016 6.64000344,56.288 5.952,56.288 C4.47999264,56.288 3.30800436,55.7600053 2.436,54.704 C1.56399564,53.6479947 1.128,52.1440098 1.128,50.192 Z M3.168,50.168 C3.168,51.576007 3.4479972,52.6719961 4.008,53.456 C4.5680028,54.2400039 5.35999488,54.632 6.384,54.632 C6.92800272,54.632 7.4399976,54.5000013 7.92,54.236 C8.4000024,53.9719987 8.8799976,53.5680027 9.36,53.024 L9.36,46.928 C8.86399752,46.4799978 8.38800228,46.1640009 7.932,45.98 C7.47599772,45.7959991 7.0080024,45.704 6.528,45.704 C6.06399768,45.704 5.62800204,45.8119989 5.22,46.028 C4.81199796,46.2440011 4.45600152,46.547998 4.152,46.94 C3.84799848,47.332002 3.60800088,47.7999973 3.432,48.344 C3.25599912,48.8880027 3.168,49.4959966 3.168,50.168 Z M14.712,52.976 C14.712,51.6959936 15.2839943,50.7160034 16.428,50.036 C17.5720057,49.3559966 19.3919875,48.8800014 21.888,48.608 C21.888,48.2399982 21.8520004,47.8800018 21.78,47.528 C21.7079996,47.1759982 21.5800009,46.8640014 21.396,46.592 C21.2119991,46.3199986 20.9680015,46.1000008 20.664,45.932 C20.3599985,45.7639992 19.9680024,45.68 19.488,45.68 C18.7999966,45.68 18.1640029,45.8079987 17.58,46.064 C16.9959971,46.3200013 16.4720023,46.6079984 16.008,46.928 L15.216,45.56 C15.7600027,45.2079982 16.4239961,44.8680016 17.208,44.54 C17.9920039,44.2119984 18.8559953,44.048 19.8,44.048 C21.2240071,44.048 22.2559968,44.4839956 22.896,45.356 C23.5360032,46.2280044 23.856,47.3919927 23.856,48.848 L23.856,56 L22.224,56 L22.056,54.608 L22.008,54.608 C21.4479972,55.0720023 20.8440032,55.4679984 20.196,55.796 C19.5479968,56.1240016 18.8640036,56.288 18.144,56.288 C17.151995,56.288 16.3320032,56.0000029 15.684,55.424 C15.0359968,54.8479971 14.712,54.0320053 14.712,52.976 Z M16.656,52.832 C16.656,53.5040034 16.851998,53.9839986 17.244,54.272 C17.636002,54.5600014 18.1199971,54.704 18.696,54.704 C19.2560028,54.704 19.7879975,54.5720013 20.292,54.308 C20.7960025,54.0439987 21.3279972,53.6560026 21.888,53.144 L21.888,49.904 C20.9119951,50.0320006 20.0880034,50.1839991 19.416,50.36 C18.7439966,50.5360009 18.204002,50.7439988 17.796,50.984 C17.387998,51.2240012 17.0960009,51.4999984 16.92,51.812 C16.7439991,52.1240016 16.656,52.4639982 16.656,52.832 Z M26.784,59.216 L27.216,59.324 C27.3760008,59.3640002 27.5279993,59.384 27.672,59.384 C28.3440034,59.384 28.8919979,59.1480024 29.316,58.676 C29.7400021,58.2039976 30.0719988,57.6080036 30.312,56.888 L30.576,56.024 L25.896,44.336 L27.936,44.336 L30.312,50.792 C30.4880009,51.3040026 30.675999,51.8439972 30.876,52.412 C31.076001,52.9800028 31.2639991,53.5359973 31.44,54.08 L31.536,54.08 C31.7120009,53.5519974 31.8799992,53.0000029 32.04,52.424 C32.2000008,51.8479971 32.3599992,51.3040026 32.52,50.792 L34.608,44.336 L36.528,44.336 L32.136,56.96 C31.927999,57.5360029 31.6960013,58.0719975 31.44,58.568 C31.1839987,59.0640025 30.8800018,59.4919982 30.528,59.852 C30.1759982,60.2120018 29.7760022,60.495999 29.328,60.704 C28.8799978,60.912001 28.360003,61.016 27.768,61.016 C27.4959986,61.016 27.2480011,60.9960002 27.024,60.956 C26.7999989,60.9159998 26.592001,60.8560004 26.4,60.776 L26.784,59.216 Z M44.64,41.936 C44.2559981,41.936 43.9320013,41.8160012 43.668,41.576 C43.4039987,41.3359988 43.272,41.0320018 43.272,40.664 C43.272,40.2799981 43.4039987,39.9720012 43.668,39.74 C43.9320013,39.5079988 44.2559981,39.392 44.64,39.392 C45.0240019,39.392 45.3479987,39.5079988 45.612,39.74 C45.8760013,39.9720012 46.008,40.2799981 46.008,40.664 C46.008,41.0320018 45.8760013,41.3359988 45.612,41.576 C45.3479987,41.8160012 45.0240019,41.936 44.64,41.936 Z M43.632,44.336 L45.6,44.336 L45.6,56 L43.632,56 L43.632,44.336 Z M49.536,44.336 L51.168,44.336 L51.336,46.016 L51.408,46.016 C51.9680028,45.4559972 52.5559969,44.9880019 53.172,44.612 C53.7880031,44.2359981 54.5039959,44.048 55.32,44.048 C56.5520062,44.048 57.4519972,44.4319962 58.02,45.2 C58.5880028,45.9680038 58.872,47.1039925 58.872,48.608 L58.872,56 L56.904,56 L56.904,48.872 C56.904,47.7679945 56.7280018,46.9720024 56.376,46.484 C56.0239982,45.9959976 55.4640038,45.752 54.696,45.752 C54.087997,45.752 53.5520023,45.9039985 53.088,46.208 C52.6239977,46.5120015 52.096003,46.959997 51.504,47.552 L51.504,56 L49.536,56 L49.536,44.336 Z M62.352,53.36 C62.8640026,53.7760021 63.3879973,54.1119987 63.924,54.368 C64.4600027,54.6240013 65.0799965,54.752 65.784,54.752 C66.5520038,54.752 67.1279981,54.5760018 67.512,54.224 C67.8960019,53.8719982 68.088,53.4400026 68.088,52.928 C68.088,52.6239985 68.0080008,52.3600011 67.848,52.136 C67.6879992,51.9119989 67.4840012,51.7160008 67.236,51.548 C66.9879988,51.3799992 66.7040016,51.2320006 66.384,51.104 L65.424,50.72 C65.0079979,50.5759993 64.5920021,50.4120009 64.176,50.228 C63.7599979,50.0439991 63.3880016,49.8200013 63.06,49.556 C62.7319984,49.2919987 62.464001,48.9840018 62.256,48.632 C62.047999,48.2799982 61.944,47.8560025 61.944,47.36 C61.944,46.8959977 62.0359991,46.460002 62.22,46.052 C62.4040009,45.643998 62.6679983,45.2920015 63.012,44.996 C63.3560017,44.6999985 63.7759975,44.4680008 64.272,44.3 C64.7680025,44.1319992 65.3279969,44.048 65.952,44.048 C66.6880037,44.048 67.3639969,44.1759987 67.98,44.432 C68.5960031,44.6880013 69.1279978,44.9999982 69.576,45.368 L68.64,46.616 C68.239998,46.3119985 67.8240022,46.064001 67.392,45.872 C66.9599978,45.679999 66.4880026,45.584 65.976,45.584 C65.2399963,45.584 64.7000017,45.7519983 64.356,46.088 C64.0119983,46.4240017 63.84,46.8159978 63.84,47.264 C63.84,47.5360014 63.9119993,47.771999 64.056,47.972 C64.2000007,48.172001 64.3919988,48.3479992 64.632,48.5 C64.8720012,48.6520008 65.1479984,48.7879994 65.46,48.908 C65.7720016,49.0280006 66.0959983,49.1519994 66.432,49.28 C66.8480021,49.4400008 67.2679979,49.6079991 67.692,49.784 C68.1160021,49.9600009 68.4959983,50.1799987 68.832,50.444 C69.1680017,50.7080013 69.4439989,51.0319981 69.66,51.416 C69.8760011,51.8000019 69.984,52.2639973 69.984,52.808 C69.984,53.2880024 69.8920009,53.7359979 69.708,54.152 C69.5239991,54.5680021 69.2520018,54.9359984 68.892,55.256 C68.5319982,55.5760016 68.0840027,55.8279991 67.548,56.012 C67.0119973,56.1960009 66.4000034,56.288 65.712,56.288 C64.8799958,56.288 64.0880038,56.1360015 63.336,55.832 C62.5839962,55.5279985 61.9280028,55.1440023 61.368,54.68 L62.352,53.36 Z M74.688,56.984 L74.688,60.92 L72.72,60.92 L72.72,44.336 L74.352,44.336 L74.52,45.68 L74.592,45.68 C75.1200026,45.2319978 75.6999968,44.8480016 76.332,44.528 C76.9640032,44.2079984 77.6239966,44.048 78.312,44.048 C79.0640038,44.048 79.7279971,44.1879986 80.304,44.468 C80.8800029,44.7480014 81.3599981,45.1479974 81.744,45.668 C82.1280019,46.1880026 82.419999,46.8119964 82.62,47.54 C82.820001,48.2680036 82.92,49.0879954 82.92,50 C82.92,50.992005 82.7840014,51.8759961 82.512,52.652 C82.2399986,53.4280039 81.8720023,54.0879973 81.408,54.632 C80.9439977,55.1760027 80.408003,55.5879986 79.8,55.868 C79.191997,56.1480014 78.5520034,56.288 77.88,56.288 C77.3359973,56.288 76.7960027,56.1680012 76.26,55.928 C75.7239973,55.6879988 75.1840027,55.3600021 74.64,54.944 L74.688,56.984 Z M74.688,53.408 C75.2160026,53.8560022 75.7279975,54.1719991 76.224,54.356 C76.7200025,54.5400009 77.1599981,54.632 77.544,54.632 C78.0240024,54.632 78.467998,54.5240011 78.876,54.308 C79.284002,54.0919989 79.6359985,53.788002 79.932,53.396 C80.2280015,53.003998 80.4599992,52.5200029 80.628,51.944 C80.7960008,51.3679971 80.88,50.7200036 80.88,50 C80.88,49.3599968 80.8240006,48.7760026 80.712,48.248 C80.5999994,47.7199974 80.4200012,47.2680019 80.172,46.892 C79.9239988,46.5159981 79.604002,46.224001 79.212,46.016 C78.819998,45.807999 78.3520027,45.704 77.808,45.704 C77.3119975,45.704 76.8120025,45.8399986 76.308,46.112 C75.8039975,46.3840014 75.2640029,46.7759974 74.688,47.288 L74.688,53.408 Z M87.048,41.936 C86.6639981,41.936 86.3400013,41.8160012 86.076,41.576 C85.8119987,41.3359988 85.68,41.0320018 85.68,40.664 C85.68,40.2799981 85.8119987,39.9720012 86.076,39.74 C86.3400013,39.5079988 86.6639981,39.392 87.048,39.392 C87.4320019,39.392 87.7559987,39.5079988 88.02,39.74 C88.2840013,39.9720012 88.416,40.2799981 88.416,40.664 C88.416,41.0320018 88.2840013,41.3359988 88.02,41.576 C87.7559987,41.8160012 87.4320019,41.936 87.048,41.936 Z M86.04,44.336 L88.008,44.336 L88.008,56 L86.04,56 L86.04,44.336 Z M91.944,44.336 L93.576,44.336 L93.744,46.448 L93.816,46.448 C94.216002,45.7119963 94.6999972,45.1280022 95.268,44.696 C95.8360028,44.2639978 96.4559966,44.048 97.128,44.048 C97.5920023,44.048 98.0079982,44.1279992 98.376,44.288 L97.992,46.016 C97.799999,45.9519997 97.6240008,45.9040002 97.464,45.872 C97.3039992,45.8399998 97.1040012,45.824 96.864,45.824 C96.3679975,45.824 95.8520027,46.023998 95.316,46.424 C94.7799973,46.824002 94.312002,47.519995 93.912,48.512 L93.912,56 L91.944,56 L91.944,44.336 Z M99.408,50.192 C99.408,49.2319952 99.5559985,48.3720038 99.852,47.612 C100.148001,46.8519962 100.539998,46.2080026 101.028,45.68 C101.516002,45.1519974 102.071997,44.7480014 102.696,44.468 C103.320003,44.1879986 103.967997,44.048 104.64,44.048 C105.376004,44.048 106.035997,44.1759987 106.62,44.432 C107.204003,44.6880013 107.691998,45.0559976 108.084,45.536 C108.476002,46.0160024 108.775999,46.5919966 108.984,47.264 C109.192001,47.9360034 109.296,48.6879958 109.296,49.52 C109.296,49.9520022 109.272,50.3119986 109.224,50.6 L101.352,50.6 C101.432,51.8640063 101.819997,52.8639963 102.516,53.6 C103.212003,54.3360037 104.119994,54.704 105.24,54.704 C105.800003,54.704 106.315998,54.6200008 106.788,54.452 C107.260002,54.2839992 107.711998,54.0640014 108.144,53.792 L108.84,55.088 C108.327997,55.4080016 107.760003,55.6879988 107.136,55.928 C106.511997,56.1680012 105.800004,56.288 105,56.288 C104.215996,56.288 103.484003,56.1480014 102.804,55.868 C102.123997,55.5879986 101.532003,55.1880026 101.028,54.668 C100.523997,54.1479974 100.128001,53.5120038 99.84,52.76 C99.5519986,52.0079962 99.408,51.1520048 99.408,50.192 Z M107.568,49.304 C107.568,48.103994 107.316003,47.1880032 106.812,46.556 C106.307997,45.9239968 105.600005,45.608 104.688,45.608 C104.271998,45.608 103.876002,45.6919992 103.5,45.86 C103.123998,46.0280008 102.784002,46.2679984 102.48,46.58 C102.175998,46.8920016 101.924001,47.2759977 101.724,47.732 C101.523999,48.1880023 101.392,48.711997 101.328,49.304 L107.568,49.304 Z M111.336,50.192 C111.336,49.2479953 111.475999,48.3960038 111.756,47.636 C112.036001,46.8759962 112.407998,46.2320026 112.872,45.704 C113.336002,45.1759974 113.871997,44.7680014 114.48,44.48 C115.088003,44.1919986 115.727997,44.048 116.4,44.048 C117.072003,44.048 117.655998,44.1679988 118.152,44.408 C118.648002,44.6480012 119.151997,44.9759979 119.664,45.392 L119.568,43.4 L119.568,38.912 L121.56,38.912 L121.56,56 L119.928,56 L119.76,54.632 L119.688,54.632 C119.223998,55.0800022 118.692003,55.4679984 118.092,55.796 C117.491997,56.1240016 116.848003,56.288 116.16,56.288 C114.687993,56.288 113.516004,55.7600053 112.644,54.704 C111.771996,53.6479947 111.336,52.1440098 111.336,50.192 Z M113.376,50.168 C113.376,51.576007 113.655997,52.6719961 114.216,53.456 C114.776003,54.2400039 115.567995,54.632 116.592,54.632 C117.136003,54.632 117.647998,54.5000013 118.128,54.236 C118.608002,53.9719987 119.087998,53.5680027 119.568,53.024 L119.568,46.928 C119.071998,46.4799978 118.596002,46.1640009 118.14,45.98 C117.683998,45.7959991 117.216002,45.704 116.736,45.704 C116.271998,45.704 115.836002,45.8119989 115.428,46.028 C115.019998,46.2440011 114.664002,46.547998 114.36,46.94 C114.055998,47.332002 113.816001,47.7999973 113.64,48.344 C113.463999,48.8880027 113.376,49.4959966 113.376,50.168 Z M130.344,44.336 L131.976,44.336 L132.144,46.016 L132.216,46.016 C132.728003,45.4559972 133.283997,44.9880019 133.884,44.612 C134.484003,44.2359981 135.135996,44.048 135.84,44.048 C136.736004,44.048 137.435997,44.243998 137.94,44.636 C138.444003,45.028002 138.815999,45.5759965 139.056,46.28 C139.664003,45.6079966 140.275997,45.068002 140.892,44.66 C141.508003,44.251998 142.175996,44.048 142.896,44.048 C144.096006,44.048 144.987997,44.4319962 145.572,45.2 C146.156003,45.9680038 146.448,47.1039925 146.448,48.608 L146.448,56 L144.48,56 L144.48,48.872 C144.48,47.7679945 144.304002,46.9720024 143.952,46.484 C143.599998,45.9959976 143.056004,45.752 142.32,45.752 C141.439996,45.752 140.464005,46.351994 139.392,47.552 L139.392,56 L137.424,56 L137.424,48.872 C137.424,47.7679945 137.248002,46.9720024 136.896,46.484 C136.543998,45.9959976 135.992004,45.752 135.24,45.752 C134.359996,45.752 133.384005,46.351994 132.312,47.552 L132.312,56 L130.344,56 L130.344,44.336 Z M149.376,50.192 C149.376,49.2319952 149.523999,48.3720038 149.82,47.612 C150.116001,46.8519962 150.507998,46.2080026 150.996,45.68 C151.484002,45.1519974 152.039997,44.7480014 152.664,44.468 C153.288003,44.1879986 153.935997,44.048 154.608,44.048 C155.344004,44.048 156.003997,44.1759987 156.588,44.432 C157.172003,44.6880013 157.659998,45.0559976 158.052,45.536 C158.444002,46.0160024 158.743999,46.5919966 158.952,47.264 C159.160001,47.9360034 159.264,48.6879958 159.264,49.52 C159.264,49.9520022 159.24,50.3119986 159.192,50.6 L151.32,50.6 C151.4,51.8640063 151.787997,52.8639963 152.484,53.6 C153.180003,54.3360037 154.087994,54.704 155.208,54.704 C155.768003,54.704 156.283998,54.6200008 156.756,54.452 C157.228002,54.2839992 157.679998,54.0640014 158.112,53.792 L158.808,55.088 C158.295997,55.4080016 157.728003,55.6879988 157.104,55.928 C156.479997,56.1680012 155.768004,56.288 154.968,56.288 C154.183996,56.288 153.452003,56.1480014 152.772,55.868 C152.091997,55.5879986 151.500003,55.1880026 150.996,54.668 C150.491997,54.1479974 150.096001,53.5120038 149.808,52.76 C149.519999,52.0079962 149.376,51.1520048 149.376,50.192 Z M157.536,49.304 C157.536,48.103994 157.284003,47.1880032 156.78,46.556 C156.275997,45.9239968 155.568005,45.608 154.656,45.608 C154.239998,45.608 153.844002,45.6919992 153.468,45.86 C153.091998,46.0280008 152.752002,46.2679984 152.448,46.58 C152.143998,46.8920016 151.892001,47.2759977 151.692,47.732 C151.491999,48.1880023 151.36,48.711997 151.296,49.304 L157.536,49.304 Z M2.304,76.944 L0.576,76.944 L0.576,75.456 L2.4,75.336 L2.64,72.072 L4.296,72.072 L4.296,75.336 L7.44,75.336 L7.44,76.944 L4.296,76.944 L4.296,83.424 C4.296,84.1440036 4.42799868,84.699998 4.692,85.092 C4.95600132,85.484002 5.42399664,85.68 6.096,85.68 C6.30400104,85.68 6.5279988,85.6480003 6.768,85.584 C7.0080012,85.5199997 7.22399904,85.4480004 7.416,85.368 L7.8,86.856 C7.4799984,86.9680006 7.13200188,87.0679996 6.756,87.156 C6.37999812,87.2440004 6.00800184,87.288 5.64,87.288 C5.01599688,87.288 4.49200212,87.192001 4.068,87 C3.64399788,86.807999 3.30000132,86.5440017 3.036,86.208 C2.77199868,85.8719983 2.58400056,85.4640024 2.472,84.984 C2.35999944,84.5039976 2.304,83.9760029 2.304,83.4 L2.304,76.944 Z M9.216,81.192 C9.216,80.2159951 9.36399852,79.3480038 9.66,78.588 C9.95600148,77.8279962 10.3519975,77.1840026 10.848,76.656 C11.3440025,76.1279974 11.9159968,75.7280014 12.564,75.456 C13.2120032,75.1839986 13.8959964,75.048 14.616,75.048 C15.3360036,75.048 16.0199968,75.1839986 16.668,75.456 C17.3160032,75.7280014 17.8879975,76.1279974 18.384,76.656 C18.8800025,77.1840026 19.2759985,77.8279962 19.572,78.588 C19.8680015,79.3480038 20.016,80.2159951 20.016,81.192 C20.016,82.1520048 19.8680015,83.0119962 19.572,83.772 C19.2759985,84.5320038 18.8800025,85.1719974 18.384,85.692 C17.8879975,86.2120026 17.3160032,86.6079986 16.668,86.88 C16.0199968,87.1520014 15.3360036,87.288 14.616,87.288 C13.8959964,87.288 13.2120032,87.1520014 12.564,86.88 C11.9159968,86.6079986 11.3440025,86.2120026 10.848,85.692 C10.3519975,85.1719974 9.95600148,84.5320038 9.66,83.772 C9.36399852,83.0119962 9.216,82.1520048 9.216,81.192 Z M11.256,81.192 C11.256,81.8640034 11.3359992,82.4719973 11.496,83.016 C11.6560008,83.5600027 11.8839985,84.027998 12.18,84.42 C12.4760015,84.812002 12.8319979,85.1159989 13.248,85.332 C13.6640021,85.5480011 14.1199975,85.656 14.616,85.656 C15.1120025,85.656 15.5679979,85.5480011 15.984,85.332 C16.4000021,85.1159989 16.7559985,84.812002 17.052,84.42 C17.3480015,84.027998 17.5759992,83.5600027 17.736,83.016 C17.8960008,82.4719973 17.976,81.8640034 17.976,81.192 C17.976,80.5199966 17.8960008,79.9080028 17.736,79.356 C17.5759992,78.8039972 17.3480015,78.328002 17.052,77.928 C16.7559985,77.527998 16.4000021,77.2200011 15.984,77.004 C15.5679979,76.7879989 15.1120025,76.68 14.616,76.68 C14.1199975,76.68 13.6640021,76.7879989 13.248,77.004 C12.8319979,77.2200011 12.4760015,77.527998 12.18,77.928 C11.8839985,78.328002 11.6560008,78.8039972 11.496,79.356 C11.3359992,79.9080028 11.256,80.5199966 11.256,81.192 Z M27.936,69.912 L29.904,69.912 L29.904,74.568 L29.856,76.68 C30.3840026,76.2159977 30.9599969,75.8280016 31.584,75.516 C32.2080031,75.2039984 32.8479967,75.048 33.504,75.048 C34.2560038,75.048 34.9199971,75.1879986 35.496,75.468 C36.0720029,75.7480014 36.555998,76.1479974 36.948,76.668 C37.340002,77.1880026 37.635999,77.8119964 37.836,78.54 C38.036001,79.2680036 38.136,80.0799955 38.136,80.976 C38.136,81.968005 38.0000014,82.8559961 37.728,83.64 C37.4559986,84.4240039 37.0880023,85.0879973 36.624,85.632 C36.1599977,86.1760027 35.624003,86.5879986 35.016,86.868 C34.407997,87.1480014 33.7680034,87.288 33.096,87.288 C32.5519973,87.288 31.9880029,87.1640012 31.404,86.916 C30.8199971,86.6679988 30.2720026,86.3120023 29.76,85.848 L29.688,85.848 L29.52,87 L27.936,87 L27.936,69.912 Z M29.904,84.408 C30.4160026,84.8560022 30.9239975,85.1719991 31.428,85.356 C31.9320025,85.5400009 32.3759981,85.632 32.76,85.632 C33.2400024,85.632 33.683998,85.5240011 34.092,85.308 C34.500002,85.0919989 34.8519985,84.788002 35.148,84.396 C35.4440015,84.003998 35.6759992,83.5200029 35.844,82.944 C36.0120008,82.3679971 36.096,81.7200036 36.096,81 C36.096,80.3599968 36.0400006,79.7760026 35.928,79.248 C35.8159994,78.7199974 35.6360012,78.2680019 35.388,77.892 C35.1399988,77.5159981 34.820002,77.224001 34.428,77.016 C34.035998,76.807999 33.5680027,76.704 33.024,76.704 C32.0799953,76.704 31.0400057,77.2319947 29.904,78.288 L29.904,84.408 Z M40.392,81.192 C40.392,80.2319952 40.5399985,79.3720038 40.836,78.612 C41.1320015,77.8519962 41.5239976,77.2080026 42.012,76.68 C42.5000024,76.1519974 43.0559969,75.7480014 43.68,75.468 C44.3040031,75.1879986 44.9519966,75.048 45.624,75.048 C46.3600037,75.048 47.0199971,75.1759987 47.604,75.432 C48.1880029,75.6880013 48.675998,76.0559976 49.068,76.536 C49.460002,77.0160024 49.759999,77.5919966 49.968,78.264 C50.176001,78.9360034 50.28,79.6879958 50.28,80.52 C50.28,80.9520022 50.2560002,81.3119986 50.208,81.6 L42.336,81.6 C42.4160004,82.8640063 42.8039965,83.8639963 43.5,84.6 C44.1960035,85.3360037 45.1039944,85.704 46.224,85.704 C46.7840028,85.704 47.2999976,85.6200008 47.772,85.452 C48.2440024,85.2839992 48.6959978,85.0640014 49.128,84.792 L49.824,86.088 C49.3119974,86.4080016 48.7440031,86.6879988 48.12,86.928 C47.4959969,87.1680012 46.784004,87.288 45.984,87.288 C45.1999961,87.288 44.4680034,87.1480014 43.788,86.868 C43.1079966,86.5879986 42.5160025,86.1880026 42.012,85.668 C41.5079975,85.1479974 41.1120014,84.5120038 40.824,83.76 C40.5359986,83.0079962 40.392,82.1520048 40.392,81.192 Z M48.552,80.304 C48.552,79.103994 48.3000025,78.1880032 47.796,77.556 C47.2919975,76.9239968 46.5840046,76.608 45.672,76.608 C45.2559979,76.608 44.8600019,76.6919992 44.484,76.86 C44.1079981,77.0280008 43.7680015,77.2679984 43.464,77.58 C43.1599985,77.8920016 42.908001,78.2759977 42.708,78.732 C42.507999,79.1880023 42.3760003,79.711997 42.312,80.304 L48.552,80.304 Z M52.296,81.192 C52.296,80.2159951 52.4479985,79.3480038 52.752,78.588 C53.0560015,77.8279962 53.4639974,77.1840026 53.976,76.656 C54.4880026,76.1279974 55.0839966,75.7280014 55.764,75.456 C56.4440034,75.1839986 57.1599962,75.048 57.912,75.048 C58.6800038,75.048 59.3399972,75.1879986 59.892,75.468 C60.4440028,75.7480014 60.919998,76.0719982 61.32,76.44 L60.336,77.712 C59.9839982,77.4079985 59.6200019,77.160001 59.244,76.968 C58.8679981,76.775999 58.4480023,76.68 57.984,76.68 C57.4559974,76.68 56.9680022,76.7879989 56.52,77.004 C56.0719978,77.2200011 55.6880016,77.527998 55.368,77.928 C55.0479984,78.328002 54.7960009,78.8039972 54.612,79.356 C54.4279991,79.9080028 54.336,80.5199966 54.336,81.192 C54.336,81.8640034 54.4239991,82.4719973 54.6,83.016 C54.7760009,83.5600027 55.0199984,84.027998 55.332,84.42 C55.6440016,84.812002 56.0239978,85.1159989 56.472,85.332 C56.9200022,85.5480011 57.4079974,85.656 57.936,85.656 C58.4960028,85.656 59.0039977,85.5400012 59.46,85.308 C59.9160023,85.0759988 60.3199982,84.8000016 60.672,84.48 L61.56,85.776 C61.0319974,86.2400023 60.4440032,86.6079986 59.796,86.88 C59.1479968,87.1520014 58.4720035,87.288 57.768,87.288 C56.9999962,87.288 56.2800034,87.1520014 55.608,86.88 C54.9359966,86.6079986 54.3560024,86.2120026 53.868,85.692 C53.3799976,85.1719974 52.9960014,84.5320038 52.716,83.772 C52.4359986,83.0119962 52.296,82.1520048 52.296,81.192 Z M63.24,81.192 C63.24,80.2159951 63.3879985,79.3480038 63.684,78.588 C63.9800015,77.8279962 64.3759975,77.1840026 64.872,76.656 C65.3680025,76.1279974 65.9399968,75.7280014 66.588,75.456 C67.2360032,75.1839986 67.9199964,75.048 68.64,75.048 C69.3600036,75.048 70.0439968,75.1839986 70.692,75.456 C71.3400032,75.7280014 71.9119975,76.1279974 72.408,76.656 C72.9040025,77.1840026 73.2999985,77.8279962 73.596,78.588 C73.8920015,79.3480038 74.04,80.2159951 74.04,81.192 C74.04,82.1520048 73.8920015,83.0119962 73.596,83.772 C73.2999985,84.5320038 72.9040025,85.1719974 72.408,85.692 C71.9119975,86.2120026 71.3400032,86.6079986 70.692,86.88 C70.0439968,87.1520014 69.3600036,87.288 68.64,87.288 C67.9199964,87.288 67.2360032,87.1520014 66.588,86.88 C65.9399968,86.6079986 65.3680025,86.2120026 64.872,85.692 C64.3759975,85.1719974 63.9800015,84.5320038 63.684,83.772 C63.3879985,83.0119962 63.24,82.1520048 63.24,81.192 Z M65.28,81.192 C65.28,81.8640034 65.3599992,82.4719973 65.52,83.016 C65.6800008,83.5600027 65.9079985,84.027998 66.204,84.42 C66.5000015,84.812002 66.8559979,85.1159989 67.272,85.332 C67.6880021,85.5480011 68.1439975,85.656 68.64,85.656 C69.1360025,85.656 69.5919979,85.5480011 70.008,85.332 C70.4240021,85.1159989 70.7799985,84.812002 71.076,84.42 C71.3720015,84.027998 71.5999992,83.5600027 71.76,83.016 C71.9200008,82.4719973 72,81.8640034 72,81.192 C72,80.5199966 71.9200008,79.9080028 71.76,79.356 C71.5999992,78.8039972 71.3720015,78.328002 71.076,77.928 C70.7799985,77.527998 70.4240021,77.2200011 70.008,77.004 C69.5919979,76.7879989 69.1360025,76.68 68.64,76.68 C68.1439975,76.68 67.6880021,76.7879989 67.272,77.004 C66.8559979,77.2200011 66.5000015,77.527998 66.204,77.928 C65.9079985,78.328002 65.6800008,78.8039972 65.52,79.356 C65.3599992,79.9080028 65.28,80.5199966 65.28,81.192 Z M77.112,75.336 L78.744,75.336 L78.912,77.016 L78.984,77.016 C79.4960026,76.4559972 80.051997,75.9880019 80.652,75.612 C81.252003,75.2359981 81.9039965,75.048 82.608,75.048 C83.5040045,75.048 84.2039975,75.243998 84.708,75.636 C85.2120025,76.028002 85.5839988,76.5759965 85.824,77.28 C86.432003,76.6079966 87.0439969,76.068002 87.66,75.66 C88.2760031,75.251998 88.9439964,75.048 89.664,75.048 C90.864006,75.048 91.7559971,75.4319962 92.34,76.2 C92.9240029,76.9680038 93.216,78.1039925 93.216,79.608 L93.216,87 L91.248,87 L91.248,79.872 C91.248,78.7679945 91.0720018,77.9720024 90.72,77.484 C90.3679982,76.9959976 89.8240037,76.752 89.088,76.752 C88.2079956,76.752 87.2320054,77.351994 86.16,78.552 L86.16,87 L84.192,87 L84.192,79.872 C84.192,78.7679945 84.0160018,77.9720024 83.664,77.484 C83.3119982,76.9959976 82.7600038,76.752 82.008,76.752 C81.1279956,76.752 80.1520054,77.351994 79.08,78.552 L79.08,87 L77.112,87 L77.112,75.336 Z M96.144,81.192 C96.144,80.2319952 96.2919985,79.3720038 96.588,78.612 C96.8840015,77.8519962 97.2759976,77.2080026 97.764,76.68 C98.2520024,76.1519974 98.8079969,75.7480014 99.432,75.468 C100.056003,75.1879986 100.703997,75.048 101.376,75.048 C102.112004,75.048 102.771997,75.1759987 103.356,75.432 C103.940003,75.6880013 104.427998,76.0559976 104.82,76.536 C105.212002,77.0160024 105.511999,77.5919966 105.72,78.264 C105.928001,78.9360034 106.032,79.6879958 106.032,80.52 C106.032,80.9520022 106.008,81.3119986 105.96,81.6 L98.088,81.6 C98.1680004,82.8640063 98.5559965,83.8639963 99.252,84.6 C99.9480035,85.3360037 100.855994,85.704 101.976,85.704 C102.536003,85.704 103.051998,85.6200008 103.524,85.452 C103.996002,85.2839992 104.447998,85.0640014 104.88,84.792 L105.576,86.088 C105.063997,86.4080016 104.496003,86.6879988 103.872,86.928 C103.247997,87.1680012 102.536004,87.288 101.736,87.288 C100.951996,87.288 100.220003,87.1480014 99.54,86.868 C98.8599966,86.5879986 98.2680025,86.1880026 97.764,85.668 C97.2599975,85.1479974 96.8640014,84.5120038 96.576,83.76 C96.2879986,83.0079962 96.144,82.1520048 96.144,81.192 Z M104.304,80.304 C104.304,79.103994 104.052003,78.1880032 103.548,77.556 C103.043997,76.9239968 102.336005,76.608 101.424,76.608 C101.007998,76.608 100.612002,76.6919992 100.236,76.86 C99.8599981,77.0280008 99.5200015,77.2679984 99.216,77.58 C98.9119985,77.8920016 98.660001,78.2759977 98.46,78.732 C98.259999,79.1880023 98.1280003,79.711997 98.064,80.304 L104.304,80.304 Z M113.184,83.976 C113.184,82.6959936 113.755994,81.7160034 114.9,81.036 C116.044006,80.3559966 117.863988,79.8800014 120.36,79.608 C120.36,79.2399982 120.324,78.8800018 120.252,78.528 C120.18,78.1759982 120.052001,77.8640014 119.868,77.592 C119.683999,77.3199986 119.440002,77.1000008 119.136,76.932 C118.831998,76.7639992 118.440002,76.68 117.96,76.68 C117.271997,76.68 116.636003,76.8079987 116.052,77.064 C115.467997,77.3200013 114.944002,77.6079984 114.48,77.928 L113.688,76.56 C114.232003,76.2079982 114.895996,75.8680016 115.68,75.54 C116.464004,75.2119984 117.327995,75.048 118.272,75.048 C119.696007,75.048 120.727997,75.4839956 121.368,76.356 C122.008003,77.2280044 122.328,78.3919927 122.328,79.848 L122.328,87 L120.696,87 L120.528,85.608 L120.48,85.608 C119.919997,86.0720023 119.316003,86.4679984 118.668,86.796 C118.019997,87.1240016 117.336004,87.288 116.616,87.288 C115.623995,87.288 114.804003,87.0000029 114.156,86.424 C113.507997,85.8479971 113.184,85.0320053 113.184,83.976 Z M115.128,83.832 C115.128,84.5040034 115.323998,84.9839986 115.716,85.272 C116.108002,85.5600014 116.591997,85.704 117.168,85.704 C117.728003,85.704 118.259997,85.5720013 118.764,85.308 C119.268003,85.0439987 119.799997,84.6560026 120.36,84.144 L120.36,80.904 C119.383995,81.0320006 118.560003,81.1839991 117.888,81.36 C117.215997,81.5360009 116.676002,81.7439988 116.268,81.984 C115.859998,82.2240012 115.568001,82.4999984 115.392,82.812 C115.215999,83.1240016 115.128,83.4639982 115.128,83.832 Z M1.104,112.192 C1.104,111.215995 1.25599848,110.348004 1.56,109.588 C1.86400152,108.827996 2.27199744,108.184003 2.784,107.656 C3.29600256,107.127997 3.8919966,106.728001 4.572,106.456 C5.2520034,106.183999 5.96799624,106.048 6.72,106.048 C7.48800384,106.048 8.14799724,106.187999 8.7,106.468 C9.25200276,106.748001 9.727998,107.071998 10.128,107.44 L9.144,108.712 C8.79199824,108.407998 8.42800188,108.160001 8.052,107.968 C7.67599812,107.775999 7.25600232,107.68 6.792,107.68 C6.26399736,107.68 5.77600224,107.787999 5.328,108.004 C4.87999776,108.220001 4.4960016,108.527998 4.176,108.928 C3.8559984,109.328002 3.60400092,109.803997 3.42,110.356 C3.23599908,110.908003 3.144,111.519997 3.144,112.192 C3.144,112.864003 3.23199912,113.471997 3.408,114.016 C3.58400088,114.560003 3.82799844,115.027998 4.14,115.42 C4.45200156,115.812002 4.83199776,116.115999 5.28,116.332 C5.72800224,116.548001 6.21599736,116.656 6.744,116.656 C7.3040028,116.656 7.81199772,116.540001 8.268,116.308 C8.72400228,116.075999 9.12799824,115.800002 9.48,115.48 L10.368,116.776 C9.83999736,117.240002 9.25200324,117.607999 8.604,117.88 C7.95599676,118.152001 7.28000352,118.288 6.576,118.288 C5.80799616,118.288 5.08800336,118.152001 4.416,117.88 C3.74399664,117.607999 3.16400244,117.212003 2.676,116.692 C2.18799756,116.171997 1.8040014,115.532004 1.524,114.772 C1.2439986,114.011996 1.104,113.152005 1.104,112.192 Z M12.048,112.192 C12.048,111.215995 12.1959985,110.348004 12.492,109.588 C12.7880015,108.827996 13.1839975,108.184003 13.68,107.656 C14.1760025,107.127997 14.7479968,106.728001 15.396,106.456 C16.0440032,106.183999 16.7279964,106.048 17.448,106.048 C18.1680036,106.048 18.8519968,106.183999 19.5,106.456 C20.1480032,106.728001 20.7199975,107.127997 21.216,107.656 C21.7120025,108.184003 22.1079985,108.827996 22.404,109.588 C22.7000015,110.348004 22.848,111.215995 22.848,112.192 C22.848,113.152005 22.7000015,114.011996 22.404,114.772 C22.1079985,115.532004 21.7120025,116.171997 21.216,116.692 C20.7199975,117.212003 20.1480032,117.607999 19.5,117.88 C18.8519968,118.152001 18.1680036,118.288 17.448,118.288 C16.7279964,118.288 16.0440032,118.152001 15.396,117.88 C14.7479968,117.607999 14.1760025,117.212003 13.68,116.692 C13.1839975,116.171997 12.7880015,115.532004 12.492,114.772 C12.1959985,114.011996 12.048,113.152005 12.048,112.192 Z M14.088,112.192 C14.088,112.864003 14.1679992,113.471997 14.328,114.016 C14.4880008,114.560003 14.7159985,115.027998 15.012,115.42 C15.3080015,115.812002 15.6639979,116.115999 16.08,116.332 C16.4960021,116.548001 16.9519975,116.656 17.448,116.656 C17.9440025,116.656 18.3999979,116.548001 18.816,116.332 C19.2320021,116.115999 19.5879985,115.812002 19.884,115.42 C20.1800015,115.027998 20.4079992,114.560003 20.568,114.016 C20.7280008,113.471997 20.808,112.864003 20.808,112.192 C20.808,111.519997 20.7280008,110.908003 20.568,110.356 C20.4079992,109.803997 20.1800015,109.328002 19.884,108.928 C19.5879985,108.527998 19.2320021,108.220001 18.816,108.004 C18.3999979,107.787999 17.9440025,107.68 17.448,107.68 C16.9519975,107.68 16.4960021,107.787999 16.08,108.004 C15.6639979,108.220001 15.3080015,108.527998 15.012,108.928 C14.7159985,109.328002 14.4880008,109.803997 14.328,110.356 C14.1679992,110.908003 14.088,111.519997 14.088,112.192 Z M25.92,106.336 L27.552,106.336 L27.72,108.016 L27.792,108.016 C28.3520028,107.455997 28.9399969,106.988002 29.556,106.612 C30.1720031,106.235998 30.8879959,106.048 31.704,106.048 C32.9360062,106.048 33.8359972,106.431996 34.404,107.2 C34.9720028,107.968004 35.256,109.103992 35.256,110.608 L35.256,118 L33.288,118 L33.288,110.872 C33.288,109.767994 33.1120018,108.972002 32.76,108.484 C32.4079982,107.995998 31.8480038,107.752 31.08,107.752 C30.471997,107.752 29.9360023,107.903998 29.472,108.208 C29.0079977,108.512002 28.480003,108.959997 27.888,109.552 L27.888,118 L25.92,118 L25.92,106.336 Z M38.736,115.36 C39.2480026,115.776002 39.7719973,116.111999 40.308,116.368 C40.8440027,116.624001 41.4639965,116.752 42.168,116.752 C42.9360038,116.752 43.5119981,116.576002 43.896,116.224 C44.2800019,115.871998 44.472,115.440003 44.472,114.928 C44.472,114.623998 44.3920008,114.360001 44.232,114.136 C44.0719992,113.911999 43.8680012,113.716001 43.62,113.548 C43.3719988,113.379999 43.0880016,113.232001 42.768,113.104 L41.808,112.72 C41.3919979,112.575999 40.9760021,112.412001 40.56,112.228 C40.1439979,112.043999 39.7720016,111.820001 39.444,111.556 C39.1159984,111.291999 38.848001,110.984002 38.64,110.632 C38.431999,110.279998 38.328,109.856002 38.328,109.36 C38.328,108.895998 38.4199991,108.460002 38.604,108.052 C38.7880009,107.643998 39.0519983,107.292001 39.396,106.996 C39.7400017,106.699999 40.1599975,106.468001 40.656,106.3 C41.1520025,106.131999 41.7119969,106.048 42.336,106.048 C43.0720037,106.048 43.7479969,106.175999 44.364,106.432 C44.9800031,106.688001 45.5119978,106.999998 45.96,107.368 L45.024,108.616 C44.623998,108.311998 44.2080022,108.064001 43.776,107.872 C43.3439978,107.679999 42.8720026,107.584 42.36,107.584 C41.6239963,107.584 41.0840017,107.751998 40.74,108.088 C40.3959983,108.424002 40.224,108.815998 40.224,109.264 C40.224,109.536001 40.2959993,109.771999 40.44,109.972 C40.5840007,110.172001 40.7759988,110.347999 41.016,110.5 C41.2560012,110.652001 41.5319984,110.787999 41.844,110.908 C42.1560016,111.028001 42.4799983,111.151999 42.816,111.28 C43.2320021,111.440001 43.6519979,111.607999 44.076,111.784 C44.5000021,111.960001 44.8799983,112.179999 45.216,112.444 C45.5520017,112.708001 45.8279989,113.031998 46.044,113.416 C46.2600011,113.800002 46.368,114.263997 46.368,114.808 C46.368,115.288002 46.2760009,115.735998 46.092,116.152 C45.9079991,116.568002 45.6360018,116.935998 45.276,117.256 C44.9159982,117.576002 44.4680027,117.827999 43.932,118.012 C43.3959973,118.196001 42.7840034,118.288 42.096,118.288 C41.2639958,118.288 40.4720038,118.136002 39.72,117.832 C38.9679962,117.527998 38.3120028,117.144002 37.752,116.68 L38.736,115.36 Z M48.936,106.336 L50.928,106.336 L50.928,113.464 C50.928,114.568006 51.0999983,115.363998 51.444,115.852 C51.7880017,116.340002 52.3439962,116.584 53.112,116.584 C53.720003,116.584 54.2559977,116.428002 54.72,116.116 C55.1840023,115.803998 55.6959972,115.304003 56.256,114.616 L56.256,106.336 L58.224,106.336 L58.224,118 L56.592,118 L56.424,116.176 L56.352,116.176 C55.8079973,116.816003 55.236003,117.327998 54.636,117.712 C54.035997,118.096002 53.3280041,118.288 52.512,118.288 C51.2639938,118.288 50.3560028,117.904004 49.788,117.136 C49.2199972,116.367996 48.936,115.232008 48.936,113.728 L48.936,106.336 Z M62.16,100.912 L64.128,100.912 L64.128,115.792 C64.128,116.112002 64.1839994,116.335999 64.296,116.464 C64.4080006,116.592001 64.5359993,116.656 64.68,116.656 L64.86,116.656 C64.9160003,116.656 64.9999994,116.64 65.112,116.608 L65.376,118.096 C65.2479994,118.16 65.0960009,118.208 64.92,118.24 C64.7439991,118.272 64.5200014,118.288 64.248,118.288 C63.4959962,118.288 62.9600016,118.064002 62.64,117.616 C62.3199984,117.167998 62.16,116.512004 62.16,115.648 L62.16,100.912 Z M68.616,107.944 L66.888,107.944 L66.888,106.456 L68.712,106.336 L68.952,103.072 L70.608,103.072 L70.608,106.336 L73.752,106.336 L73.752,107.944 L70.608,107.944 L70.608,114.424 C70.608,115.144004 70.7399987,115.699998 71.004,116.092 C71.2680013,116.484002 71.7359966,116.68 72.408,116.68 C72.616001,116.68 72.8399988,116.648 73.08,116.584 C73.3200012,116.52 73.535999,116.448 73.728,116.368 L74.112,117.856 C73.7919984,117.968001 73.4440019,118.068 73.068,118.156 C72.6919981,118.244 72.3200018,118.288 71.952,118.288 C71.3279969,118.288 70.8040021,118.192001 70.38,118 C69.9559979,117.807999 69.6120013,117.544002 69.348,117.208 C69.0839987,116.871998 68.8960006,116.464002 68.784,115.984 C68.6719994,115.503998 68.616,114.976003 68.616,114.4 L68.616,107.944 Z M75.816,114.976 C75.816,113.695994 76.3879943,112.716003 77.532,112.036 C78.6760057,111.355997 80.4959875,110.880001 82.992,110.608 C82.992,110.239998 82.9560004,109.880002 82.884,109.528 C82.8119996,109.175998 82.6840009,108.864001 82.5,108.592 C82.3159991,108.319999 82.0720015,108.100001 81.768,107.932 C81.4639985,107.763999 81.0720024,107.68 80.592,107.68 C79.9039966,107.68 79.2680029,107.807999 78.684,108.064 C78.0999971,108.320001 77.5760023,108.607998 77.112,108.928 L76.32,107.56 C76.8640027,107.207998 77.5279961,106.868002 78.312,106.54 C79.0960039,106.211998 79.9599953,106.048 80.904,106.048 C82.3280071,106.048 83.3599968,106.483996 84,107.356 C84.6400032,108.228004 84.96,109.391993 84.96,110.848 L84.96,118 L83.328,118 L83.16,116.608 L83.112,116.608 C82.5519972,117.072002 81.9480032,117.467998 81.3,117.796 C80.6519968,118.124002 79.9680036,118.288 79.248,118.288 C78.255995,118.288 77.4360032,118.000003 76.788,117.424 C76.1399968,116.847997 75.816,116.032005 75.816,114.976 Z M77.76,114.832 C77.76,115.504003 77.955998,115.983999 78.348,116.272 C78.740002,116.560001 79.2239971,116.704 79.8,116.704 C80.3600028,116.704 80.8919975,116.572001 81.396,116.308 C81.9000025,116.043999 82.4319972,115.656003 82.992,115.144 L82.992,111.904 C82.0159951,112.032001 81.1920034,112.183999 80.52,112.36 C79.8479966,112.536001 79.308002,112.743999 78.9,112.984 C78.491998,113.224001 78.2000009,113.499998 78.024,113.812 C77.8479991,114.124002 77.76,114.463998 77.76,114.832 Z M88.68,106.336 L90.312,106.336 L90.48,108.016 L90.552,108.016 C91.1120028,107.455997 91.6999969,106.988002 92.316,106.612 C92.9320031,106.235998 93.6479959,106.048 94.464,106.048 C95.6960062,106.048 96.5959972,106.431996 97.164,107.2 C97.7320028,107.968004 98.016,109.103992 98.016,110.608 L98.016,118 L96.048,118 L96.048,110.872 C96.048,109.767994 95.8720018,108.972002 95.52,108.484 C95.1679982,107.995998 94.6080038,107.752 93.84,107.752 C93.231997,107.752 92.6960023,107.903998 92.232,108.208 C91.7679977,108.512002 91.240003,108.959997 90.648,109.552 L90.648,118 L88.68,118 L88.68,106.336 Z M102.144,107.944 L100.416,107.944 L100.416,106.456 L102.24,106.336 L102.48,103.072 L104.136,103.072 L104.136,106.336 L107.28,106.336 L107.28,107.944 L104.136,107.944 L104.136,114.424 C104.136,115.144004 104.267999,115.699998 104.532,116.092 C104.796001,116.484002 105.263997,116.68 105.936,116.68 C106.144001,116.68 106.367999,116.648 106.608,116.584 C106.848001,116.52 107.063999,116.448 107.256,116.368 L107.64,117.856 C107.319998,117.968001 106.972002,118.068 106.596,118.156 C106.219998,118.244 105.848002,118.288 105.48,118.288 C104.855997,118.288 104.332002,118.192001 103.908,118 C103.483998,117.807999 103.140001,117.544002 102.876,117.208 C102.611999,116.871998 102.424001,116.464002 102.312,115.984 C102.199999,115.503998 102.144,114.976003 102.144,114.4 L102.144,107.944 Z" id="The-events-of-the-da" fill="#79797B"></path>
            <path d="M2.5,150 L185.67478,150" id="Line" stroke="#979797" stroke-width="4" stroke-linecap="square"></path>
            <path d="M2.5,164 L185.67478,164" id="Line" stroke="#979797" stroke-width="4" stroke-linecap="square"></path>
            <path d="M2.5,178 L185.67478,178" id="Line" stroke="#979797" stroke-width="4" stroke-linecap="square"></path>
            <path d="M2.5,192 L185.67478,192" id="Line" stroke="#979797" stroke-width="4" stroke-linecap="square"></path>
            <path d="M2.5,206 L185.67478,206" id="Line" stroke="#979797" stroke-width="4" stroke-linecap="square"></path>
            <path d="M2.5,220 L185.67478,220" id="Line" stroke="#979797" stroke-width="4" stroke-linecap="square"></path>
            <path d="M2.5,234 L71.0291909,234" id="Line" stroke="#979797" stroke-width="4" stroke-linecap="square"></path>
            <path d="M213.48913,9 L392.68185,9" id="Line" stroke="#979797" stroke-width="4" stroke-linecap="square"></path>
            <path d="M213.48913,23 L392.68185,23" id="Line" stroke="#979797" stroke-width="4" stroke-linecap="square"></path>
            <path d="M213.48913,37 L392.68185,37" id="Line" stroke="#979797" stroke-width="4" stroke-linecap="square"></path>
            <path d="M213.48913,182 L392.68185,182" id="Line" stroke="#979797" stroke-width="4" stroke-linecap="square"></path>
            <path d="M213.48913,196 L392.68185,196" id="Line" stroke="#979797" stroke-width="4" stroke-linecap="square"></path>
            <path d="M213.48913,210 L325,210" id="Line" stroke="#979797" stroke-width="4" stroke-linecap="square"></path>
            <path d="M213.48913,51 L392.68185,51" id="Line" stroke="#979797" stroke-width="4" stroke-linecap="square"></path>
            <path d="M213.48913,65 L392.68185,65" id="Line" stroke="#979797" stroke-width="4" stroke-linecap="square"></path>
            <path d="M213.48913,79 L392.68185,79" id="Line" stroke="#979797" stroke-width="4" stroke-linecap="square"></path>
            <path d="M213.48913,94 L280.528556,94" id="Line" stroke="#979797" stroke-width="4" stroke-linecap="square"></path>
            <path d="M213,136.455 C214.650008,135.611662 215.887496,134.649172 216.7125,133.5675 C217.537504,132.485828 217.95,131.120008 217.95,129.47 C217.839999,129.506667 217.675001,129.525 217.455,129.525 C216.281661,129.525 215.282504,129.167504 214.4575,128.4525 C213.632496,127.737496 213.22,126.756673 213.22,125.51 C213.22,124.11666 213.614163,123.016671 214.4025,122.21 C215.190837,121.403329 216.208327,121 217.455,121 C219.141675,121 220.424996,121.623327 221.305,122.87 C222.185004,124.116673 222.625,125.894988 222.625,128.205 C222.625,130.808346 221.974173,133.09999 220.6725,135.08 C219.370827,137.06001 217.400013,138.69166 214.76,139.975 L213,136.455 Z M225.98,136.455 C227.630008,135.611662 228.867496,134.649172 229.6925,133.5675 C230.517504,132.485828 230.93,131.120008 230.93,129.47 C230.819999,129.506667 230.655001,129.525 230.435,129.525 C229.261661,129.525 228.262504,129.167504 227.4375,128.4525 C226.612496,127.737496 226.2,126.756673 226.2,125.51 C226.2,124.11666 226.594163,123.016671 227.3825,122.21 C228.170837,121.403329 229.188327,121 230.435,121 C232.121675,121 233.404996,121.623327 234.285,122.87 C235.165004,124.116673 235.605,125.894988 235.605,128.205 C235.605,130.808346 234.954173,133.09999 233.6525,135.08 C232.350827,137.06001 230.380013,138.69166 227.74,139.975 L225.98,136.455 Z" id="" fill="#D7D9D9"></path>
            <path d="M223.444766,128 L372.212209,128" id="Line" stroke="#B3B4B7" stroke-width="4" stroke-linecap="square"></path>
            <path d="M223.444766,141 L372.212209,141" id="Line" stroke="#B3B4B7" stroke-width="4" stroke-linecap="square"></path>
            <path d="M223.444766,155 L372.212209,155" id="Line" stroke="#B3B4B7" stroke-width="4" stroke-linecap="square"></path>
        </g>
    </g>
</svg>