<?xml version="1.0" encoding="UTF-8"?>
<svg width="603px" height="374px" viewBox="0 0 603 374" version="1.1" xmlns="http://www.w3.org/2000/svg" xmlns:xlink="http://www.w3.org/1999/xlink">
    <!-- Generator: Sketch 44.1 (41455) - http://www.bohemiancoding.com/sketch -->
    <title>image_text14</title>
    <desc>Created with Sketch.</desc>
    <defs>
        <rect id="path-1" x="0" y="0" width="181.697171" height="123.793677"></rect>
        <mask id="mask-2" maskContentUnits="userSpaceOnUse" maskUnits="objectBoundingBox" x="0" y="0" width="181.697171" height="123.793677" fill="white">
            <use xlink:href="#path-1"></use>
        </mask>
        <rect id="path-3" x="0" y="0" width="181.697171" height="123.793677"></rect>
        <mask id="mask-4" maskContentUnits="userSpaceOnUse" maskUnits="objectBoundingBox" x="0" y="0" width="181.697171" height="123.793677" fill="white">
            <use xlink:href="#path-3"></use>
        </mask>
        <rect id="path-5" x="0" y="0" width="181.697171" height="123.793677"></rect>
        <mask id="mask-6" maskContentUnits="userSpaceOnUse" maskUnits="objectBoundingBox" x="0" y="0" width="181.697171" height="123.793677" fill="white">
            <use xlink:href="#path-5"></use>
        </mask>
    </defs>
    <g id="Image/Text-Blocks" stroke="none" stroke-width="1" fill="none" fill-rule="evenodd">
        <g id="14" transform="translate(1.000000, 0.000000)">
            <path d="M299.001664,88.3527454 L299.001664,113.331107" id="Line" stroke="#A1A1A1" stroke-linecap="square"></path>
            <path d="M299.001664,0.499168053 L299.001664,25.4775295" id="Line" stroke="#A1A1A1" stroke-linecap="square"></path>
            <path d="M236.415973,43.0242928 L238.221963,43.0242928 C238.545426,43.0242928 238.841929,43.0542426 239.111481,43.1141431 C239.381033,43.1740436 239.610149,43.2713804 239.798835,43.4061564 C239.987522,43.5409325 240.134276,43.7191337 240.239101,43.9407654 C240.343927,44.1623971 240.396339,44.4349401 240.396339,44.7584027 C240.396339,45.0698851 240.343927,45.3394331 240.239101,45.5670549 C240.134276,45.7946767 239.986024,45.9833603 239.794343,46.1331115 C239.602661,46.2828626 239.373545,46.3951743 239.106988,46.4700499 C238.840431,46.5449255 238.545426,46.5823627 238.221963,46.5823627 L237.16173,46.5823627 L237.16173,48.9184692 L236.415973,48.9184692 L236.415973,43.0242928 Z M238.132113,45.971381 C238.647257,45.971381 239.029117,45.8740442 239.277704,45.6793677 C239.526291,45.4846912 239.650582,45.1777059 239.650582,44.7584027 C239.650582,44.3331094 239.524793,44.038104 239.273211,43.8733777 C239.021629,43.7086514 238.641267,43.6262895 238.132113,43.6262895 L237.16173,43.6262895 L237.16173,45.971381 L238.132113,45.971381 Z M242.789351,43.0242928 L243.535108,43.0242928 L243.535108,48.2805324 L246.11381,48.2805324 L246.11381,48.9184692 L242.789351,48.9184692 L242.789351,43.0242928 Z M250.887854,46.5194676 L250.609318,45.6209651 C250.501497,45.2915125 250.399668,44.9635624 250.303827,44.6371048 C250.207986,44.3106473 250.112147,43.9767072 250.016306,43.6352745 L249.980366,43.6352745 C249.890515,43.9767072 249.797671,44.3106473 249.70183,44.6371048 C249.60599,44.9635624 249.50416,45.2915125 249.39634,45.6209651 L249.117804,46.5194676 L250.887854,46.5194676 Z M251.076539,47.1214642 L248.929118,47.1214642 L248.363062,48.9184692 L247.599335,48.9184692 L249.59401,43.0242928 L250.438602,43.0242928 L252.433278,48.9184692 L251.633611,48.9184692 L251.076539,47.1214642 Z M254.466889,43.0242928 L255.239601,43.0242928 L257.369052,46.7261231 L258.006988,47.9480865 L258.042929,47.9480865 C258.024958,47.6485842 258.005491,47.3386039 257.984526,47.0181364 C257.963561,46.6976689 257.953078,46.3816987 257.953078,46.0702163 L257.953078,43.0242928 L258.662895,43.0242928 L258.662895,48.9184692 L257.890183,48.9184692 L255.751747,45.2076539 L255.11381,43.9946755 L255.07787,43.9946755 C255.101831,44.2941779 255.124293,44.5981682 255.145258,44.9066556 C255.166223,45.215143 255.176706,45.5251232 255.176706,45.8366057 L255.176706,48.9184692 L254.466889,48.9184692 L254.466889,43.0242928 Z M261.478203,43.0242928 L262.250915,43.0242928 L264.380366,46.7261231 L265.018303,47.9480865 L265.054243,47.9480865 C265.036273,47.6485842 265.016806,47.3386039 264.99584,47.0181364 C264.974875,46.6976689 264.964393,46.3816987 264.964393,46.0702163 L264.964393,43.0242928 L265.67421,43.0242928 L265.67421,48.9184692 L264.901498,48.9184692 L262.763062,45.2076539 L262.125125,43.9946755 L262.089185,43.9946755 C262.113145,44.2941779 262.135607,44.5981682 262.156573,44.9066556 C262.177538,45.215143 262.18802,45.5251232 262.18802,45.8366057 L262.18802,48.9184692 L261.478203,48.9184692 L261.478203,43.0242928 Z M268.489518,43.0242928 L269.235275,43.0242928 L269.235275,48.9184692 L268.489518,48.9184692 L268.489518,43.0242928 Z M272.050583,43.0242928 L272.823295,43.0242928 L274.952746,46.7261231 L275.590682,47.9480865 L275.626623,47.9480865 C275.608652,47.6485842 275.589185,47.3386039 275.56822,47.0181364 C275.547255,46.6976689 275.536772,46.3816987 275.536772,46.0702163 L275.536772,43.0242928 L276.246589,43.0242928 L276.246589,48.9184692 L275.473877,48.9184692 L273.335441,45.2076539 L272.697504,43.9946755 L272.661564,43.9946755 C272.685525,44.2941779 272.707987,44.5981682 272.728952,44.9066556 C272.749917,45.215143 272.7604,45.5251232 272.7604,45.8366057 L272.7604,48.9184692 L272.050583,48.9184692 L272.050583,43.0242928 Z M278.720466,45.971381 C278.720466,45.4981674 278.787853,45.0728804 278.922629,44.6955075 C279.057405,44.3181346 279.246089,43.9976719 279.488686,43.7341098 C279.731283,43.4705478 280.017303,43.2683867 280.346756,43.1276206 C280.676208,42.9868545 281.038601,42.9164725 281.433944,42.9164725 C281.841267,42.9164725 282.181197,42.9928445 282.453744,43.1455907 C282.726291,43.2983369 282.949417,43.4645582 283.123128,43.6442596 L282.700832,44.1204659 C282.551081,43.9647247 282.37887,43.8344431 282.184193,43.7296173 C281.989517,43.6247915 281.742431,43.5723794 281.442929,43.5723794 C281.143426,43.5723794 280.873878,43.6277865 280.634277,43.7386023 C280.394675,43.8494182 280.191016,44.008152 280.023295,44.2148087 C279.855574,44.4214653 279.725292,44.671546 279.632446,44.9650582 C279.539601,45.2585705 279.493178,45.5880181 279.493178,45.953411 C279.493178,46.3247939 279.536606,46.658734 279.623461,46.9552413 C279.710317,47.2517486 279.836106,47.5048242 280.000832,47.7144759 C280.165559,47.9241275 280.369217,48.0858563 280.611814,48.1996672 C280.854411,48.3134781 281.134441,48.3703827 281.451914,48.3703827 C281.661565,48.3703827 281.860732,48.3389354 282.049418,48.2760399 C282.238104,48.2131444 282.392346,48.1277876 282.512147,48.0199667 L282.512147,46.4835275 L281.263228,46.4835275 L281.263228,45.8635607 L283.195009,45.8635607 L283.195009,48.3434276 C283.003327,48.5410992 282.750251,48.7043255 282.435774,48.8331115 C282.121297,48.9618975 281.766392,49.0262895 281.371049,49.0262895 C280.981696,49.0262895 280.625293,48.957405 280.301831,48.8196339 C279.978368,48.6818629 279.699835,48.4826968 279.466223,48.2221298 C279.232611,47.9615628 279.049918,47.6411001 278.918137,47.2607321 C278.786356,46.8803642 278.720466,46.4505848 278.720466,45.971381 Z M289.01431,47.3460899 C289.01431,47.5078211 289.04426,47.6560725 289.10416,47.7908486 C289.164061,47.9256246 289.246423,48.0409313 289.351248,48.136772 C289.456074,48.2326128 289.578868,48.3059898 289.719634,48.3569052 C289.8604,48.4078206 290.011647,48.4332779 290.173378,48.4332779 C290.37704,48.4332779 290.571713,48.3913482 290.757405,48.3074875 C290.943096,48.2236269 291.122795,48.1068227 291.296506,47.9570715 C291.008984,47.7054896 290.731949,47.4299516 290.465391,47.1304493 C290.198834,46.8309469 289.960734,46.5224641 289.751082,46.2049917 C289.54143,46.372713 289.366224,46.5479192 289.225458,46.7306156 C289.084692,46.9133121 289.01431,47.1184681 289.01431,47.3460899 Z M289.706157,44.3001664 C289.706157,44.4618976 289.731614,44.6296164 289.78253,44.8033278 C289.833445,44.9770391 289.900832,45.1537429 289.984693,45.3334443 C290.116474,45.2435936 290.24376,45.1522467 290.366556,45.059401 C290.489352,44.9665553 290.597171,44.870716 290.690017,44.7718802 C290.782863,44.6730444 290.85624,44.5682202 290.91015,44.4574043 C290.964061,44.3465885 290.991015,44.2252918 290.991015,44.0935108 C290.991015,43.9197995 290.947588,43.7685531 290.860733,43.6397671 C290.773877,43.5109811 290.631615,43.446589 290.433944,43.446589 C290.212312,43.446589 290.035608,43.5274534 289.903827,43.6891847 C289.772046,43.850916 289.706157,44.0545745 289.706157,44.3001664 Z M293.147421,49.0262895 C292.93777,48.9663891 292.719136,48.8810322 292.491515,48.7702163 C292.263893,48.6594004 292.030284,48.520134 291.790683,48.3524126 C291.563061,48.5560742 291.309985,48.7193006 291.031448,48.8420965 C290.752911,48.9648925 290.439936,49.0262895 290.092513,49.0262895 C289.822961,49.0262895 289.57887,48.9858573 289.360233,48.9049917 C289.141597,48.8241261 288.952913,48.7118144 288.794177,48.5680532 C288.635441,48.4242921 288.512646,48.2520809 288.425791,48.0514143 C288.338935,47.8507477 288.295508,47.6306168 288.295508,47.391015 C288.295508,47.1933434 288.326955,47.0136447 288.389851,46.8519135 C288.452746,46.6901822 288.538103,46.5404333 288.645924,46.4026622 C288.753745,46.2648912 288.878036,46.1376046 289.018802,46.0207987 C289.159569,45.9039928 289.304825,45.794676 289.454576,45.6928453 C289.334775,45.4472533 289.240433,45.2091526 289.171548,44.9785358 C289.102662,44.747919 289.06822,44.5247931 289.06822,44.3091514 C289.06822,44.1114799 289.101165,43.9287862 289.167055,43.7610649 C289.232946,43.5933436 289.32579,43.4465896 289.445591,43.3207987 C289.565392,43.1950077 289.709151,43.0961734 289.876872,43.0242928 C290.044594,42.9524123 290.230282,42.9164725 290.433944,42.9164725 C290.799337,42.9164725 291.08386,43.0242918 291.287521,43.2399334 C291.491183,43.4555751 291.593012,43.7371031 291.593012,44.0845258 C291.593012,44.2762073 291.554077,44.452911 291.476207,44.6146423 C291.398336,44.7763735 291.296507,44.9276199 291.170716,45.068386 C291.044925,45.2091521 290.902663,45.3409312 290.743927,45.4637271 C290.585191,45.5865231 290.42496,45.7078197 290.263228,45.8276206 C290.45491,46.133113 290.681031,46.4266209 290.941598,46.7081531 C291.202165,46.9896853 291.47321,47.2472534 291.754743,47.4808652 C291.934444,47.2352733 292.094675,46.9687202 292.235441,46.681198 C292.376207,46.3936758 292.491514,46.079203 292.581365,45.7377704 L293.273212,45.7377704 C293.153411,46.1271234 293.009652,46.4985007 292.841931,46.8519135 C292.674209,47.2053262 292.473546,47.5377688 292.239934,47.8492512 C292.443595,47.9870223 292.638269,48.1038265 292.82396,48.1996672 C293.009652,48.295508 293.183361,48.3673874 293.345092,48.4153078 L293.147421,49.0262895 Z M298.517471,47.6336106 C298.727123,47.8552424 298.974209,48.0334436 299.258736,48.1682196 C299.543263,48.3029957 299.838269,48.3703827 300.143761,48.3703827 C300.533114,48.3703827 300.835607,48.2820308 301.051248,48.1053245 C301.26689,47.9286181 301.374709,47.6965073 301.374709,47.408985 C301.374709,47.2592339 301.349252,47.1319473 301.298337,47.0271215 C301.247421,46.9222956 301.178537,46.8324463 301.091681,46.7575707 C301.004825,46.6826951 300.901499,46.6153081 300.781698,46.5554077 C300.661897,46.4955072 300.533113,46.4326126 300.395342,46.3667221 L299.550749,45.9983361 C299.412978,45.9384356 299.272214,45.8665562 299.128453,45.7826955 C298.984692,45.6988349 298.855908,45.5970056 298.742097,45.4772047 C298.628286,45.3574037 298.535442,45.2151423 298.463561,45.050416 C298.391681,44.8856897 298.355741,44.6955086 298.355741,44.4798669 C298.355741,44.2582352 298.402163,44.0515817 298.495009,43.8599002 C298.587855,43.6682187 298.716639,43.5019974 298.881365,43.3612313 C299.046091,43.2204652 299.240765,43.1111485 299.465392,43.0332779 C299.690018,42.9554073 299.937104,42.9164725 300.206656,42.9164725 C300.560069,42.9164725 300.886521,42.9838596 301.186024,43.1186356 C301.485526,43.2534117 301.740099,43.4286179 301.949751,43.6442596 L301.545425,44.1294509 C301.365723,43.9557396 301.166557,43.819468 300.947921,43.7206323 C300.729284,43.6217965 300.482198,43.5723794 300.206656,43.5723794 C299.877204,43.5723794 299.612148,43.6487513 299.411481,43.8014975 C299.210815,43.9542437 299.110483,44.1653897 299.110483,44.4349418 C299.110483,44.5787029 299.138935,44.6999995 299.195841,44.7988353 C299.252746,44.897671 299.329118,44.9845254 299.424959,45.059401 C299.5208,45.1342766 299.625624,45.2001661 299.739435,45.2570715 C299.853246,45.313977 299.97005,45.3663891 300.089851,45.4143095 L300.925458,45.7737105 C301.093179,45.845591 301.251913,45.9279529 301.401664,46.0207987 C301.551416,46.1136444 301.6802,46.2214636 301.78802,46.3442596 C301.895841,46.4670555 301.981198,46.6108145 302.044094,46.7755408 C302.106989,46.940267 302.138436,47.1304482 302.138436,47.3460899 C302.138436,47.5797017 302.092014,47.7983351 301.999169,48.0019967 C301.906323,48.2056583 301.773046,48.3838595 301.599335,48.5366057 C301.425624,48.6893518 301.215975,48.809151 300.970383,48.8960067 C300.724791,48.9828623 300.446258,49.0262895 300.134776,49.0262895 C299.721463,49.0262895 299.338105,48.9484201 298.984693,48.7926789 C298.63128,48.6369377 298.325792,48.4242942 298.06822,48.1547421 L298.517471,47.6336106 Z M304.468553,43.0242928 L305.21431,43.0242928 L305.21431,46.5014975 C305.21431,46.8549103 305.25025,47.1514131 305.32213,47.391015 C305.394011,47.6306168 305.491348,47.8222955 305.614144,47.9660566 C305.73694,48.1098177 305.882196,48.2131444 306.049917,48.2760399 C306.217639,48.3389354 306.397337,48.3703827 306.589019,48.3703827 C306.78669,48.3703827 306.969384,48.3389354 307.137105,48.2760399 C307.304827,48.2131444 307.451581,48.1098177 307.577372,47.9660566 C307.703163,47.8222955 307.801997,47.6306168 307.873877,47.391015 C307.945758,47.1514131 307.981698,46.8549103 307.981698,46.5014975 L307.981698,43.0242928 L308.7005,43.0242928 L308.7005,46.4835275 C308.7005,46.9567411 308.64659,47.3550733 308.538769,47.6785358 C308.430948,48.0019983 308.282697,48.2640589 308.094011,48.4647255 C307.905324,48.665392 307.682198,48.809151 307.424626,48.8960067 C307.167054,48.9828623 306.888521,49.0262895 306.589019,49.0262895 C306.289517,49.0262895 306.009486,48.9828623 305.748919,48.8960067 C305.488352,48.809151 305.263729,48.665392 305.075042,48.4647255 C304.886356,48.2640589 304.738104,48.0019983 304.630283,47.6785358 C304.522463,47.3550733 304.468553,46.9567411 304.468553,46.4835275 L304.468553,43.0242928 Z M311.488853,43.0242928 L313.294843,43.0242928 C313.618305,43.0242928 313.914808,43.0542426 314.18436,43.1141431 C314.453912,43.1740436 314.683028,43.2713804 314.871714,43.4061564 C315.060401,43.5409325 315.207155,43.7191337 315.311981,43.9407654 C315.416806,44.1623971 315.469219,44.4349401 315.469219,44.7584027 C315.469219,45.0698851 315.416806,45.3394331 315.311981,45.5670549 C315.207155,45.7946767 315.058903,45.9833603 314.867222,46.1331115 C314.67554,46.2828626 314.446425,46.3951743 314.179868,46.4700499 C313.91331,46.5449255 313.618305,46.5823627 313.294843,46.5823627 L312.23461,46.5823627 L312.23461,48.9184692 L311.488853,48.9184692 L311.488853,43.0242928 Z M313.204992,45.971381 C313.720136,45.971381 314.101996,45.8740442 314.350583,45.6793677 C314.59917,45.4846912 314.723462,45.1777059 314.723462,44.7584027 C314.723462,44.3331094 314.597672,44.038104 314.34609,43.8733777 C314.094509,43.7086514 313.714146,43.6262895 313.204992,43.6262895 L312.23461,43.6262895 L312.23461,45.971381 L313.204992,45.971381 Z M317.86223,43.0242928 L321.25857,43.0242928 L321.25857,43.6532446 L318.607987,43.6532446 L318.607987,45.5041597 L320.845259,45.5041597 L320.845259,46.1420965 L318.607987,46.1420965 L318.607987,48.2805324 L321.34842,48.2805324 L321.34842,48.9184692 L317.86223,48.9184692 L317.86223,43.0242928 Z M324.541099,45.8186356 L325.529452,45.8186356 C325.990685,45.8186356 326.344093,45.7242938 326.589685,45.5356073 C326.835276,45.3469209 326.958071,45.0609004 326.958071,44.6775374 C326.958071,44.2881844 326.835276,44.0156414 326.589685,43.8599002 C326.344093,43.704159 325.990685,43.6262895 325.529452,43.6262895 L324.541099,43.6262895 L324.541099,45.8186356 Z M327.029951,48.9184692 L325.610317,46.4296173 L324.541099,46.4296173 L324.541099,48.9184692 L323.795342,48.9184692 L323.795342,43.0242928 L325.637272,43.0242928 C325.936774,43.0242928 326.21381,43.0527451 326.468387,43.1096506 C326.722964,43.166556 326.941597,43.2608978 327.124294,43.3926789 C327.30699,43.5244599 327.449251,43.6951737 327.551082,43.9048253 C327.652913,44.1144769 327.703828,44.3720451 327.703828,44.6775374 C327.703828,45.138771 327.584029,45.5071534 327.344427,45.7826955 C327.104825,46.0582377 326.784362,46.2469213 326.383029,46.3487521 L327.874543,48.9184692 L327.029951,48.9184692 Z M329.279202,43.0242928 L330.078869,43.0242928 L331.022297,46.2049917 C331.130118,46.5584044 331.22446,46.8848571 331.305325,47.1843594 C331.386191,47.4838617 331.483528,47.8073194 331.597339,48.1547421 L331.633279,48.1547421 C331.741099,47.8073194 331.836939,47.4838617 331.920799,47.1843594 C332.00466,46.8848571 332.097504,46.5584044 332.199335,46.2049917 L333.142763,43.0242928 L333.90649,43.0242928 L332.037605,48.9184692 L331.166057,48.9184692 L329.279202,43.0242928 Z M335.913146,43.0242928 L336.658903,43.0242928 L336.658903,48.9184692 L335.913146,48.9184692 L335.913146,43.0242928 Z M339.492181,47.6336106 C339.701832,47.8552424 339.948918,48.0334436 340.233445,48.1682196 C340.517972,48.3029957 340.812978,48.3703827 341.11847,48.3703827 C341.507823,48.3703827 341.810316,48.2820308 342.025958,48.1053245 C342.241599,47.9286181 342.349418,47.6965073 342.349418,47.408985 C342.349418,47.2592339 342.323961,47.1319473 342.273046,47.0271215 C342.22213,46.9222956 342.153246,46.8324463 342.06639,46.7575707 C341.979535,46.6826951 341.876208,46.6153081 341.756407,46.5554077 C341.636606,46.4955072 341.507822,46.4326126 341.370051,46.3667221 L340.525458,45.9983361 C340.387687,45.9384356 340.246923,45.8665562 340.103162,45.7826955 C339.959401,45.6988349 339.830617,45.5970056 339.716806,45.4772047 C339.602995,45.3574037 339.510151,45.2151423 339.43827,45.050416 C339.36639,44.8856897 339.33045,44.6955086 339.33045,44.4798669 C339.33045,44.2582352 339.376872,44.0515817 339.469718,43.8599002 C339.562564,43.6682187 339.691348,43.5019974 339.856074,43.3612313 C340.0208,43.2204652 340.215474,43.1111485 340.440101,43.0332779 C340.664727,42.9554073 340.911813,42.9164725 341.181365,42.9164725 C341.534778,42.9164725 341.861231,42.9838596 342.160733,43.1186356 C342.460235,43.2534117 342.714808,43.4286179 342.92446,43.6442596 L342.520134,44.1294509 C342.340433,43.9557396 342.141267,43.819468 341.92263,43.7206323 C341.703993,43.6217965 341.456907,43.5723794 341.181365,43.5723794 C340.851913,43.5723794 340.586857,43.6487513 340.386191,43.8014975 C340.185524,43.9542437 340.085192,44.1653897 340.085192,44.4349418 C340.085192,44.5787029 340.113644,44.6999995 340.17055,44.7988353 C340.227455,44.897671 340.303827,44.9845254 340.399668,45.059401 C340.495509,45.1342766 340.600333,45.2001661 340.714144,45.2570715 C340.827955,45.313977 340.944759,45.3663891 341.06456,45.4143095 L341.900167,45.7737105 C342.067889,45.845591 342.226622,45.9279529 342.376374,46.0207987 C342.526125,46.1136444 342.654909,46.2214636 342.76273,46.3442596 C342.87055,46.4670555 342.955907,46.6108145 343.018803,46.7755408 C343.081698,46.940267 343.113146,47.1304482 343.113146,47.3460899 C343.113146,47.5797017 343.066723,47.7983351 342.973878,48.0019967 C342.881032,48.2056583 342.747755,48.3838595 342.574044,48.5366057 C342.400333,48.6893518 342.190684,48.809151 341.945092,48.8960067 C341.6995,48.9828623 341.420967,49.0262895 341.109485,49.0262895 C340.696172,49.0262895 340.312815,48.9484201 339.959402,48.7926789 C339.605989,48.6369377 339.300501,48.4242942 339.042929,48.1547421 L339.492181,47.6336106 Z M345.470217,43.0242928 L346.215974,43.0242928 L346.215974,48.9184692 L345.470217,48.9184692 L345.470217,43.0242928 Z M351.205658,49.0262895 C350.834275,49.0262895 350.494345,48.95441 350.185858,48.8106489 C349.87737,48.6668878 349.612315,48.4617318 349.390683,48.1951747 C349.169051,47.9286176 348.99684,47.60516 348.874044,47.224792 C348.751248,46.8444241 348.689851,46.4176396 348.689851,45.944426 C348.689851,45.4712123 348.751248,45.0474228 348.874044,44.6730449 C348.99684,44.298667 349.169051,43.9811993 349.390683,43.7206323 C349.612315,43.4600653 349.87737,43.2608992 350.185858,43.1231281 C350.494345,42.985357 350.834275,42.9164725 351.205658,42.9164725 C351.577041,42.9164725 351.916971,42.9868545 352.225459,43.1276206 C352.533946,43.2683867 352.800499,43.4690503 353.025126,43.7296173 C353.249752,43.9901843 353.423461,44.307652 353.546257,44.68203 C353.669053,45.0564079 353.73045,45.4772023 353.73045,45.944426 C353.73045,46.4176396 353.669053,46.8444241 353.546257,47.224792 C353.423461,47.60516 353.249752,47.9286176 353.025126,48.1951747 C352.800499,48.4617318 352.533946,48.6668878 352.225459,48.8106489 C351.916971,48.95441 351.577041,49.0262895 351.205658,49.0262895 Z M351.205658,48.3703827 C351.46922,48.3703827 351.707321,48.3134781 351.919968,48.1996672 C352.132614,48.0858563 352.315308,47.92263 352.468054,47.7099834 C352.6208,47.4973367 352.739102,47.2427635 352.822963,46.9462562 C352.906823,46.6497489 352.948753,46.3158088 352.948753,45.944426 C352.948753,45.5790331 352.906823,45.2495855 352.822963,44.9560732 C352.739102,44.6625609 352.6208,44.4139777 352.468054,44.2103161 C352.315308,44.0066546 352.132614,43.8494182 351.919968,43.7386023 C351.707321,43.6277865 351.46922,43.5723794 351.205658,43.5723794 C350.942096,43.5723794 350.703995,43.6277865 350.491349,43.7386023 C350.278702,43.8494182 350.096008,44.0066546 349.943262,44.2103161 C349.790516,44.4139777 349.672214,44.6625609 349.588354,44.9560732 C349.504493,45.2495855 349.462563,45.5790331 349.462563,45.944426 C349.462563,46.3158088 349.504493,46.6497489 349.588354,46.9462562 C349.672214,47.2427635 349.790516,47.4973367 349.943262,47.7099834 C350.096008,47.92263 350.278702,48.0858563 350.491349,48.1996672 C350.703995,48.3134781 350.942096,48.3703827 351.205658,48.3703827 Z M356.195342,43.0242928 L356.968054,43.0242928 L359.097505,46.7261231 L359.735442,47.9480865 L359.771382,47.9480865 C359.753412,47.6485842 359.733945,47.3386039 359.712979,47.0181364 C359.692014,46.6976689 359.681532,46.3816987 359.681532,46.0702163 L359.681532,43.0242928 L360.391349,43.0242928 L360.391349,48.9184692 L359.618637,48.9184692 L357.480201,45.2076539 L356.842264,43.9946755 L356.806324,43.9946755 C356.830284,44.2941779 356.852746,44.5981682 356.873711,44.9066556 C356.894677,45.215143 356.905159,45.5251232 356.905159,45.8366057 L356.905159,48.9184692 L356.195342,48.9184692 L356.195342,43.0242928 Z" id="PLANNING-&amp;-SUPERVISI" fill="#D7D9D9"></path>
            <path d="M198.866556,59.4229617 L194.320133,59.4229617 L194.320133,57.8156406 L205.341764,57.8156406 L205.341764,59.4229617 L200.795341,59.4229617 L200.795341,72.8785358 L198.866556,72.8785358 L198.866556,59.4229617 Z M209.773378,57.8156406 L218.452912,57.8156406 L218.452912,59.4229617 L211.679202,59.4229617 L211.679202,64.1530782 L217.396673,64.1530782 L217.396673,65.7833611 L211.679202,65.7833611 L211.679202,71.2482529 L218.682529,71.2482529 L218.682529,72.8785358 L209.773378,72.8785358 L209.773378,57.8156406 Z M226.259901,65.0945092 L222.172713,57.8156406 L224.285192,57.8156406 L226.328786,61.6732113 C226.527789,62.0252929 226.715308,62.3658885 226.891349,62.6950083 C227.067389,63.0241281 227.270216,63.4106467 227.499834,63.8545757 L227.591681,63.8545757 C227.805992,63.4106467 227.993511,63.0241281 228.154244,62.6950083 C228.314977,62.3658885 228.487188,62.0252929 228.670883,61.6732113 L230.668553,57.8156406 L232.689185,57.8156406 L228.579036,65.1863561 L232.964726,72.8785358 L230.852247,72.8785358 L228.647921,68.8143095 C228.448918,68.44692 228.246092,68.0680552 228.039435,67.6777038 C227.832778,67.2873525 227.60699,66.8625647 227.362064,66.4033278 L227.270217,66.4033278 C227.055907,66.8625647 226.849253,67.2873525 226.65025,67.6777038 C226.451248,68.0680552 226.259902,68.44692 226.076207,68.8143095 L223.894843,72.8785358 L221.87421,72.8785358 L226.259901,65.0945092 Z M239.761399,59.4229617 L235.214976,59.4229617 L235.214976,57.8156406 L246.236607,57.8156406 L246.236607,59.4229617 L241.690184,59.4229617 L241.690184,72.8785358 L239.761399,72.8785358 L239.761399,59.4229617 Z M255.490185,57.8156406 L257.464894,57.8156406 L259.049253,66.0129784 C259.187024,66.8396048 259.332447,67.6509112 259.485526,68.4469218 C259.638605,69.2429324 259.784028,70.0542388 259.921799,70.8808652 L260.013646,70.8808652 C260.182033,70.0542388 260.358071,69.2391055 260.541766,68.4354409 C260.72546,67.6317763 260.901499,66.8242969 261.069885,66.0129784 L263.159403,57.8156406 L264.904494,57.8156406 L266.994012,66.0129784 C267.177707,66.808989 267.361399,67.6126415 267.545093,68.4239601 C267.728788,69.2352786 267.91248,70.0542388 268.096175,70.8808652 L268.188022,70.8808652 C268.325793,70.0542388 268.463562,69.2391055 268.601333,68.4354409 C268.739104,67.6317763 268.884527,66.8242969 269.037606,66.0129784 L270.621965,57.8156406 L272.458904,57.8156406 L269.336108,72.8785358 L267.039935,72.8785358 L264.766724,63.8086522 C264.628953,63.2269522 264.502665,62.6567416 264.387855,62.0980033 C264.273046,61.5392651 264.154412,60.9690545 264.031949,60.3873544 L263.940102,60.3873544 C263.817639,60.9690545 263.69135,61.5392651 263.561233,62.0980033 C263.431116,62.6567416 263.304828,63.2269522 263.182365,63.8086522 L260.955077,72.8785358 L258.681865,72.8785358 L255.490185,57.8156406 Z M276.798671,57.8156406 L278.704495,57.8156406 L278.704495,72.8785358 L276.798671,72.8785358 L276.798671,57.8156406 Z M287.682532,59.4229617 L283.136109,59.4229617 L283.136109,57.8156406 L294.15774,57.8156406 L294.15774,59.4229617 L289.611317,59.4229617 L289.611317,72.8785358 L287.682532,72.8785358 L287.682532,59.4229617 Z M298.589354,57.8156406 L300.495178,57.8156406 L300.495178,64.1301165 L307.498506,64.1301165 L307.498506,57.8156406 L309.427291,57.8156406 L309.427291,72.8785358 L307.498506,72.8785358 L307.498506,65.7833611 L300.495178,65.7833611 L300.495178,72.8785358 L298.589354,72.8785358 L298.589354,57.8156406 Z M321.642932,57.8156406 L323.548756,57.8156406 L323.548756,72.8785358 L321.642932,72.8785358 L321.642932,57.8156406 Z M329.403998,57.8156406 L331.654247,57.8156406 L334.570387,65.8981697 L335.67255,68.9750416 L335.764397,68.9750416 L336.820636,65.8981697 L339.713815,57.8156406 L341.964064,57.8156406 L341.964064,72.8785358 L340.150087,72.8785358 L340.150087,64.5893511 C340.150087,63.9158036 340.176876,63.1733818 340.230453,62.3620632 C340.284031,61.5507447 340.341435,60.8083228 340.402666,60.1347754 L340.310819,60.1347754 L339.093848,63.487188 L336.20067,71.3630616 L335.121468,71.3630616 L332.205329,63.487188 L331.011319,60.1347754 L330.919472,60.1347754 C330.965395,60.8083228 331.018972,61.5507447 331.080204,62.3620632 C331.141435,63.1733818 331.172051,63.9158036 331.172051,64.5893511 L331.172051,72.8785358 L329.403998,72.8785358 L329.403998,57.8156406 Z M354.225629,66.7477537 L353.513815,64.4515807 C353.238273,63.6096464 352.978042,62.7715516 352.733116,61.9372712 C352.48819,61.1029908 352.243267,60.2495884 351.998341,59.3770383 L351.906494,59.3770383 C351.676875,60.2495884 351.439606,61.1029908 351.19468,61.9372712 C350.949754,62.7715516 350.689523,63.6096464 350.413981,64.4515807 L349.702168,66.7477537 L354.225629,66.7477537 Z M354.707825,68.2861897 L349.219971,68.2861897 L347.773382,72.8785358 L345.821635,72.8785358 L350.919139,57.8156406 L353.077542,57.8156406 L358.175046,72.8785358 L356.131452,72.8785358 L354.707825,68.2861897 Z M360.930454,65.3470882 C360.930454,64.1377643 361.102665,63.05092 361.447093,62.0865225 C361.791521,61.122125 362.273712,60.3031648 362.893682,59.6296173 C363.513652,58.9560698 364.244593,58.4394361 365.086527,58.0797005 C365.928462,57.7199649 366.854576,57.5400998 367.864897,57.5400998 C368.905834,57.5400998 369.774544,57.7352726 370.471053,58.125624 C371.167563,58.5159753 371.737773,58.9407631 372.181702,59.4 L371.102501,60.6169717 C370.719803,60.2189664 370.279708,59.8860246 369.782201,59.6181364 C369.284695,59.3502482 368.653253,59.2163062 367.887859,59.2163062 C367.122464,59.2163062 366.433619,59.3579021 365.821303,59.6410982 C365.208987,59.9242943 364.688526,60.3299474 364.259905,60.8580699 C363.831284,61.3861923 363.498342,62.0252874 363.26107,62.7753744 C363.023797,63.5254613 362.905163,64.367383 362.905163,65.3011647 C362.905163,66.2502543 363.016144,67.1036568 363.238108,67.8613977 C363.460073,68.6191386 363.781534,69.2658875 364.202501,69.8016639 C364.623468,70.3374403 365.143929,70.7507473 365.763898,71.0415973 C366.383868,71.3324474 367.099502,71.4778702 367.91082,71.4778702 C368.446597,71.4778702 368.955577,71.397505 369.437775,71.236772 C369.919974,71.0760391 370.314147,70.8579049 370.620304,70.5823627 L370.620304,66.6559068 L367.428624,66.6559068 L367.428624,65.0715474 L372.365396,65.0715474 L372.365396,71.408985 C371.875543,71.9141456 371.228794,72.3312796 370.42513,72.6603993 C369.621465,72.9895191 368.714486,73.1540765 367.704165,73.1540765 C366.709151,73.1540765 365.798345,72.9780384 364.971719,72.6259567 C364.145092,72.2738751 363.433286,71.7648952 362.836278,71.0990017 C362.23927,70.4331082 361.772386,69.614148 361.435612,68.6420965 C361.098839,67.6700451 360.930454,66.5717199 360.930454,65.3470882 Z M377.692518,57.8156406 L386.372052,57.8156406 L386.372052,59.4229617 L379.598341,59.4229617 L379.598341,64.1530782 L385.315812,64.1530782 L385.315812,65.7833611 L379.598341,65.7833611 L379.598341,71.2482529 L386.601669,71.2482529 L386.601669,72.8785358 L377.692518,72.8785358 L377.692518,57.8156406 Z M391.561403,69.5950083 C392.09718,70.1614005 392.728621,70.6168036 393.455746,70.9612313 C394.182871,71.305659 394.936774,71.4778702 395.717477,71.4778702 C396.71249,71.4778702 397.485527,71.2520821 398.036611,70.8004992 C398.587696,70.3489162 398.863234,69.7557441 398.863234,69.0209651 C398.863234,68.6382676 398.798176,68.3129797 398.668059,68.0450915 C398.537942,67.7772033 398.361904,67.5475883 398.139939,67.3562396 C397.917975,67.1648909 397.653917,66.9926796 397.347759,66.8396007 C397.041602,66.6865217 396.712487,66.5257912 396.360405,66.3574043 L394.202002,65.4159734 C393.849921,65.2628944 393.490191,65.0792024 393.122801,64.8648918 C392.755412,64.6505813 392.426297,64.3903509 392.135447,64.084193 C391.844597,63.7780351 391.607328,63.414478 391.423633,62.9935108 C391.239938,62.5725437 391.148092,62.0865252 391.148092,61.5354409 C391.148092,60.9690487 391.266727,60.4409342 391.503999,59.9510815 C391.741271,59.4612288 392.070386,59.0364411 392.491353,58.6767055 C392.912321,58.3169699 393.40982,58.037605 393.983866,57.8386023 C394.557912,57.6395997 395.189353,57.5400998 395.878209,57.5400998 C396.781375,57.5400998 397.615642,57.7123111 398.381037,58.0567388 C399.146432,58.4011664 399.797008,58.8489157 400.332784,59.4 L399.299507,60.6399334 C398.84027,60.1960044 398.33129,59.847755 397.772551,59.5951747 C397.213813,59.3425944 396.582372,59.2163062 395.878209,59.2163062 C395.036274,59.2163062 394.35891,59.4114789 393.846096,59.8018303 C393.333281,60.1921817 393.076878,60.7317769 393.076878,61.4206323 C393.076878,61.7880218 393.149589,62.0980021 393.295014,62.3505824 C393.440439,62.6031627 393.635612,62.8251238 393.880538,63.0164725 C394.125465,63.2078213 394.393349,63.3762056 394.684199,63.5216306 C394.975049,63.6670556 395.273548,63.8009977 395.579706,63.9234609 L397.715147,64.8419301 C398.143768,65.0256249 398.549421,65.2361053 398.932119,65.4733777 C399.314816,65.7106501 399.643931,65.9861881 399.919473,66.3 C400.195015,66.6138119 400.41315,66.9811959 400.573883,67.4021631 C400.734616,67.8231302 400.814981,68.3091487 400.814981,68.8602329 C400.814981,69.4572409 400.696346,70.0159708 400.459074,70.5364393 C400.221802,71.0569078 399.881206,71.5123109 399.437277,71.9026622 C398.993348,72.2930136 398.45758,72.5991669 397.829956,72.8211314 C397.202332,73.043096 396.490525,73.1540765 395.694515,73.1540765 C394.63827,73.1540765 393.658579,72.9550769 392.755413,72.5570715 C391.852247,72.1590662 391.071556,71.615644 390.413317,70.9267887 L391.561403,69.5950083 Z" id="TEXT-WITH-IMAGES" fill="#79797B"></path>
            <path d="M132.279534,131.780366 L464.725458,131.780366" id="Line" stroke="#979797" stroke-width="4" stroke-linecap="square"></path>
            <path d="M169.21797,144.758735 L428.28619,144.758735" id="Line" stroke="#979797" stroke-width="4" stroke-linecap="square"></path>
            <g id="Group-8" transform="translate(0.000000, 187.687188)">
                <path d="M3.49417637,135.77371 L42.4420816,135.77371" id="Line" stroke="#4990E2" stroke-width="6" stroke-linecap="square"></path>
                <path d="M1.49750416,155.740433 L182.196339,155.740433" id="Line" stroke="#979797" stroke-width="4" stroke-linecap="square"></path>
                <path d="M1.49750416,170.216306 L182.196339,170.216306" id="Line" stroke="#979797" stroke-width="4" stroke-linecap="square"></path>
                <path d="M1.49750416,183.693844 L40.9444155,183.693844" id="Line" stroke="#979797" stroke-width="4" stroke-linecap="square"></path>
                <use id="Rectangle-9" stroke="#979797" mask="url(#mask-2)" stroke-width="2" fill="#F2F2F2" stroke-dasharray="4" xlink:href="#path-1"></use>
                <g id="icon-picture" opacity="0.699999988" transform="translate(67.886855, 47.920133)" stroke="#979797">
                    <polyline id="Path-15" stroke-width="2" points="0.956764169 27.3833882 16.2630927 11.6471208 27.0214818 22.8010434 33.3229012 16.2679516 45.2512602 28.6348581"></polyline>
                    <ellipse id="Oval-6" fill="#D8D8D8" cx="37.6421811" cy="8.1724258" rx="2.25853086" ry="2.2288434"></ellipse>
                    <rect id="Rectangle-10" stroke-width="2" x="1" y="1" width="43.9234609" height="29.9467554" rx="3"></rect>
                </g>
            </g>
            <g id="Group-8" transform="translate(417.304493, 187.687188)">
                <path d="M3.49417637,135.77371 L42.4420816,135.77371" id="Line" stroke="#4990E2" stroke-width="6" stroke-linecap="square"></path>
                <path d="M1.49750416,155.740433 L182.196339,155.740433" id="Line" stroke="#979797" stroke-width="4" stroke-linecap="square"></path>
                <path d="M1.49750416,170.216306 L182.196339,170.216306" id="Line" stroke="#979797" stroke-width="4" stroke-linecap="square"></path>
                <path d="M1.49750416,183.693844 L40.9444155,183.693844" id="Line" stroke="#979797" stroke-width="4" stroke-linecap="square"></path>
                <use id="Rectangle-9" stroke="#979797" mask="url(#mask-4)" stroke-width="2" fill="#F2F2F2" stroke-dasharray="4" xlink:href="#path-3"></use>
                <g id="icon-picture" opacity="0.699999988" transform="translate(67.886855, 47.920133)" stroke="#979797">
                    <polyline id="Path-15" stroke-width="2" points="0.956764169 27.3833882 16.2630927 11.6471208 27.0214818 22.8010434 33.3229012 16.2679516 45.2512602 28.6348581"></polyline>
                    <ellipse id="Oval-6" fill="#D8D8D8" cx="37.6421811" cy="8.1724258" rx="2.25853086" ry="2.2288434"></ellipse>
                    <rect id="Rectangle-10" stroke-width="2" x="1" y="1" width="43.9234609" height="29.9467554" rx="3"></rect>
                </g>
            </g>
            <g id="Group-8" transform="translate(208.652246, 187.687188)">
                <path d="M3.49417637,135.77371 L42.4420816,135.77371" id="Line" stroke="#4990E2" stroke-width="6" stroke-linecap="square"></path>
                <path d="M1.49750416,155.740433 L182.196339,155.740433" id="Line" stroke="#979797" stroke-width="4" stroke-linecap="square"></path>
                <path d="M1.49750416,170.216306 L182.196339,170.216306" id="Line" stroke="#979797" stroke-width="4" stroke-linecap="square"></path>
                <path d="M1.49750416,183.693844 L40.9444155,183.693844" id="Line" stroke="#979797" stroke-width="4" stroke-linecap="square"></path>
                <use id="Rectangle-9" stroke="#979797" mask="url(#mask-6)" stroke-width="2" fill="#F2F2F2" stroke-dasharray="4" xlink:href="#path-5"></use>
                <g id="icon-picture" opacity="0.699999988" transform="translate(67.886855, 47.920133)" stroke="#979797">
                    <polyline id="Path-15" stroke-width="2" points="0.956764169 27.3833882 16.2630927 11.6471208 27.0214818 22.8010434 33.3229012 16.2679516 45.2512602 28.6348581"></polyline>
                    <ellipse id="Oval-6" fill="#D8D8D8" cx="37.6421811" cy="8.1724258" rx="2.25853086" ry="2.2288434"></ellipse>
                    <rect id="Rectangle-10" stroke-width="2" x="1" y="1" width="43.9234609" height="29.9467554" rx="3"></rect>
                </g>
            </g>
        </g>
    </g>
</svg>