<?xml version="1.0" encoding="UTF-8"?>
<svg width="600px" height="235px" viewBox="0 0 600 235" version="1.1" xmlns="http://www.w3.org/2000/svg" xmlns:xlink="http://www.w3.org/1999/xlink">
    <!-- Generator: Sketch 44.1 (41455) - http://www.bohemiancoding.com/sketch -->
    <title>imageboxes01</title>
    <desc>Created with Sketch.</desc>
    <defs></defs>
    <g id="Imageboxes" stroke="none" stroke-width="1" fill="none" fill-rule="evenodd">
        <g id="01">
            <rect id="Rectangle" fill="#545454" x="0" y="0" width="150" height="235"></rect>
            <path d="M16.2828947,122.5 L133.920103,122.5" id="Line" stroke="#FFFFFF" stroke-width="3" stroke-linecap="square"></path>
            <path d="M33.0592105,134.5 L115.953947,134.5" id="Line" stroke="#FFFFFF" stroke-width="3" stroke-linecap="square"></path>
            <path d="M61.192,105.22 L60.982,104.38 C60.8513327,103.922664 60.7253339,103.437336 60.604,102.924 C60.4826661,102.410664 60.3613339,101.916002 60.24,101.44 L60.184,101.44 C60.0719994,101.925336 59.9576672,102.422331 59.841,102.931 C59.7243328,103.439669 59.6006673,103.922664 59.47,104.38 L59.246,105.22 L61.192,105.22 Z M61.612,106.83 L58.826,106.83 L58.266,109 L56.166,109 L59.022,99.872 L61.5,99.872 L64.356,109 L62.172,109 L61.612,106.83 Z M65.182,99.186 L67.24,99.186 L67.24,101.594 L67.184,102.658 C67.454668,102.415332 67.7463318,102.226334 68.059,102.091 C68.3716682,101.955666 68.6913317,101.888 69.018,101.888 C69.4380021,101.888 69.8159983,101.971999 70.152,102.14 C70.4880017,102.308001 70.7749988,102.543665 71.013,102.847 C71.2510012,103.150335 71.4329994,103.518998 71.559,103.953 C71.6850006,104.387002 71.748,104.869997 71.748,105.402 C71.748,105.999336 71.6663342,106.531331 71.503,106.998 C71.3396658,107.464669 71.1203347,107.858998 70.845,108.181 C70.5696653,108.503002 70.2570017,108.747999 69.907,108.916 C69.5569982,109.084001 69.1953352,109.168 68.822,109.168 C68.5139985,109.168 68.2036682,109.093334 67.891,108.944 C67.5783318,108.794666 67.286668,108.570668 67.016,108.272 L66.96,108.272 L66.792,109 L65.182,109 L65.182,99.186 Z M67.24,107.04 C67.4266676,107.208001 67.6133324,107.324666 67.8,107.39 C67.9866676,107.455334 68.1686658,107.488 68.346,107.488 C68.7006684,107.488 69.0039987,107.327002 69.256,107.005 C69.5080013,106.682998 69.634,106.16267 69.634,105.444 C69.634,104.193327 69.2326707,103.568 68.43,103.568 C68.0193313,103.568 67.6226686,103.777998 67.24,104.198 L67.24,107.04 Z M72.798,105.528 C72.798,104.94933 72.8913324,104.433669 73.078,103.981 C73.2646676,103.528331 73.5143318,103.148002 73.827,102.84 C74.1396682,102.531998 74.5013313,102.296334 74.912,102.133 C75.3226687,101.969666 75.7473311,101.888 76.186,101.888 C76.6246689,101.888 77.046998,101.969666 77.453,102.133 C77.859002,102.296334 78.2183318,102.531998 78.531,102.84 C78.8436682,103.148002 79.0933324,103.528331 79.28,103.981 C79.4666676,104.433669 79.56,104.94933 79.56,105.528 C79.56,106.10667 79.4666676,106.622331 79.28,107.075 C79.0933324,107.527669 78.8436682,107.907998 78.531,108.216 C78.2183318,108.524002 77.859002,108.759666 77.453,108.923 C77.046998,109.086334 76.6246689,109.168 76.186,109.168 C75.7473311,109.168 75.3226687,109.086334 74.912,108.923 C74.5013313,108.759666 74.1396682,108.524002 73.827,108.216 C73.5143318,107.907998 73.2646676,107.527669 73.078,107.075 C72.8913324,106.622331 72.798,106.10667 72.798,105.528 Z M74.912,105.528 C74.912,106.13467 75.016999,106.615332 75.227,106.97 C75.4370011,107.324668 75.7566645,107.502 76.186,107.502 C76.6060021,107.502 76.9233323,107.324668 77.138,106.97 C77.3526677,106.615332 77.46,106.13467 77.46,105.528 C77.46,104.92133 77.3526677,104.440668 77.138,104.086 C76.9233323,103.731332 76.6060021,103.554 76.186,103.554 C75.7566645,103.554 75.4370011,103.731332 75.227,104.086 C75.016999,104.440668 74.912,104.92133 74.912,105.528 Z M80.904,102.056 L82.962,102.056 L82.962,106.102 C82.962,106.606003 83.0319993,106.951332 83.172,107.138 C83.3120007,107.324668 83.5313318,107.418 83.83,107.418 C84.0913346,107.418 84.3106658,107.357334 84.488,107.236 C84.6653342,107.114666 84.8566656,106.918668 85.062,106.648 L85.062,102.056 L87.12,102.056 L87.12,109 L85.44,109 L85.286,108.034 L85.244,108.034 C84.9453318,108.388668 84.6256684,108.666332 84.285,108.867 C83.9443316,109.067668 83.5360024,109.168 83.06,109.168 C82.3039962,109.168 81.7556684,108.920669 81.415,108.426 C81.0743316,107.931331 80.904,107.245338 80.904,106.368 L80.904,102.056 Z M89.206,103.666 L88.254,103.666 L88.254,102.14 L89.318,102.056 L89.556,100.208 L91.264,100.208 L91.264,102.056 L92.93,102.056 L92.93,103.666 L91.264,103.666 L91.264,106.452 C91.264,106.844002 91.3456659,107.126332 91.509,107.299 C91.6723341,107.471668 91.889332,107.558 92.16,107.558 C92.2720006,107.558 92.3863327,107.544 92.503,107.516 C92.6196673,107.488 92.7246662,107.455334 92.818,107.418 L93.14,108.916 C92.9533324,108.972 92.7340013,109.028 92.482,109.084 C92.2299987,109.14 91.9360017,109.168 91.6,109.168 C91.1706645,109.168 90.8043349,109.102667 90.501,108.972 C90.1976652,108.841333 89.9503343,108.659334 89.759,108.426 C89.5676657,108.192666 89.4276671,107.910335 89.339,107.579 C89.2503329,107.247665 89.206,106.881335 89.206,106.48 L89.206,103.666 Z" id="About" fill="#FFFFFF"></path>
            <rect id="Rectangle" fill="#545454" opacity="0.900000036" x="150" y="0" width="150" height="235"></rect>
            <path d="M166.493421,122.5 L284.13063,122.5" id="Line" stroke="#FFFFFF" stroke-width="3" stroke-linecap="square"></path>
            <path d="M183.493421,134.5 L266.388158,134.5" id="Line" stroke="#FFFFFF" stroke-width="3" stroke-linecap="square"></path>
            <path d="M200.666,106.438 C200.992668,106.718001 201.354331,106.946666 201.751,107.124 C202.147669,107.301334 202.537331,107.39 202.92,107.39 C203.349335,107.39 203.668999,107.310667 203.879,107.152 C204.089001,106.993333 204.194,106.778668 204.194,106.508 C204.194,106.367999 204.163667,106.246667 204.103,106.144 C204.042333,106.041333 203.953667,105.950334 203.837,105.871 C203.720333,105.791666 203.580334,105.717 203.417,105.647 L202.878,105.416 L201.688,104.912 C201.454665,104.818666 201.228334,104.697334 201.009,104.548 C200.789666,104.398666 200.593668,104.223668 200.421,104.023 C200.248332,103.822332 200.110667,103.589001 200.008,103.323 C199.905333,103.056999 199.854,102.756002 199.854,102.42 C199.854,102.046665 199.933333,101.694335 200.092,101.363 C200.250667,101.031665 200.474665,100.742335 200.764,100.495 C201.053335,100.247665 201.396331,100.054001 201.793,99.914 C202.189669,99.7739993 202.625998,99.704 203.102,99.704 C203.634003,99.704 204.158997,99.8066656 204.677,100.012 C205.195003,100.217334 205.649998,100.515998 206.042,100.908 L204.992,102.21 C204.693332,101.976665 204.394668,101.797001 204.096,101.671 C203.797332,101.544999 203.466002,101.482 203.102,101.482 C202.747332,101.482 202.465001,101.554333 202.255,101.699 C202.044999,101.843667 201.94,102.046665 201.94,102.308 C201.94,102.448001 201.975,102.567 202.045,102.665 C202.115,102.763 202.212999,102.851666 202.339,102.931 C202.465001,103.010334 202.611999,103.085 202.78,103.155 C202.948001,103.225 203.129999,103.302 203.326,103.386 L204.502,103.862 C205.062003,104.086001 205.502998,104.393998 205.825,104.786 C206.147002,105.178002 206.308,105.695997 206.308,106.34 C206.308,106.722669 206.231001,107.084332 206.077,107.425 C205.922999,107.765668 205.699001,108.064332 205.405,108.321 C205.110999,108.577668 204.749335,108.782999 204.32,108.937 C203.890665,109.091001 203.405336,109.168 202.864,109.168 C202.266664,109.168 201.67167,109.058334 201.079,108.839 C200.48633,108.619666 199.956669,108.290669 199.49,107.852 L200.666,106.438 Z M207.288,105.528 C207.288,104.967997 207.381332,104.461669 207.568,104.009 C207.754668,103.556331 207.999665,103.173668 208.303,102.861 C208.606335,102.548332 208.953998,102.308001 209.346,102.14 C209.738002,101.971999 210.143998,101.888 210.564,101.888 C211.058669,101.888 211.490331,101.971999 211.859,102.14 C212.227669,102.308001 212.535665,102.541332 212.783,102.84 C213.030335,103.138668 213.214666,103.490998 213.336,103.897 C213.457334,104.303002 213.518,104.743998 213.518,105.22 C213.518,105.406668 213.508667,105.576999 213.49,105.731 C213.471333,105.885001 213.452667,106.004 213.434,106.088 L209.276,106.088 C209.369334,106.620003 209.576998,107.004999 209.899,107.243 C210.221002,107.481001 210.615331,107.6 211.082,107.6 C211.576669,107.6 212.075997,107.446002 212.58,107.138 L213.266,108.384 C212.911332,108.626668 212.517002,108.817999 212.083,108.958 C211.648998,109.098001 211.222002,109.168 210.802,109.168 C210.307331,109.168 209.845335,109.086334 209.416,108.923 C208.986665,108.759666 208.613335,108.521668 208.296,108.209 C207.978665,107.896332 207.731334,107.516002 207.554,107.068 C207.376666,106.619998 207.288,106.10667 207.288,105.528 Z M211.768,104.814 C211.768,104.412665 211.679334,104.086001 211.502,103.834 C211.324666,103.581999 211.026002,103.456 210.606,103.456 C210.279332,103.456 209.992335,103.565666 209.745,103.785 C209.497665,104.004334 209.336667,104.347331 209.262,104.814 L211.768,104.814 Z M214.946,102.056 L216.626,102.056 L216.766,103.274 L216.822,103.274 C217.074001,102.797998 217.377332,102.448001 217.732,102.224 C218.086668,101.999999 218.441332,101.888 218.796,101.888 C218.992001,101.888 219.152999,101.899667 219.279,101.923 C219.405001,101.946333 219.519333,101.981333 219.622,102.028 L219.286,103.806 C219.155333,103.768666 219.034001,103.740667 218.922,103.722 C218.809999,103.703333 218.679334,103.694 218.53,103.694 C218.268665,103.694 217.995668,103.787332 217.711,103.974 C217.426332,104.160668 217.190668,104.491998 217.004,104.968 L217.004,109 L214.946,109 L214.946,102.056 Z M219.846,102.056 L221.918,102.056 L222.814,105.332 C222.907334,105.677335 222.998333,106.029665 223.087,106.389 C223.175667,106.748335 223.266666,107.109998 223.36,107.474 L223.416,107.474 C223.5,107.109998 223.586333,106.748335 223.675,106.389 C223.763667,106.029665 223.854666,105.677335 223.948,105.332 L224.858,102.056 L226.832,102.056 L224.564,109 L222.184,109 L219.846,102.056 Z M228.932,101.034 C228.586665,101.034 228.302001,100.933668 228.078,100.733 C227.853999,100.532332 227.742,100.273335 227.742,99.956 C227.742,99.6386651 227.853999,99.382001 228.078,99.186 C228.302001,98.989999 228.586665,98.892 228.932,98.892 C229.286668,98.892 229.573666,98.989999 229.793,99.186 C230.012334,99.382001 230.122,99.6386651 230.122,99.956 C230.122,100.273335 230.012334,100.532332 229.793,100.733 C229.573666,100.933668 229.286668,101.034 228.932,101.034 Z M227.91,102.056 L229.968,102.056 L229.968,109 L227.91,109 L227.91,102.056 Z M231.368,105.528 C231.368,104.94933 231.465999,104.433669 231.662,103.981 C231.858001,103.528331 232.121665,103.148002 232.453,102.84 C232.784335,102.531998 233.169331,102.296334 233.608,102.133 C234.046669,101.969666 234.503998,101.888 234.98,101.888 C235.409335,101.888 235.796665,101.960333 236.142,102.105 C236.487335,102.249667 236.776665,102.443332 237.01,102.686 L236.072,103.96 C235.745332,103.689332 235.423335,103.554 235.106,103.554 C234.601997,103.554 234.205335,103.731332 233.916,104.086 C233.626665,104.440668 233.482,104.92133 233.482,105.528 C233.482,106.13467 233.628999,106.615332 233.923,106.97 C234.217001,107.324668 234.587998,107.502 235.036,107.502 C235.288001,107.502 235.516666,107.450667 235.722,107.348 C235.927334,107.245333 236.113999,107.128667 236.282,106.998 L237.108,108.3 C236.771998,108.598668 236.398669,108.817999 235.988,108.958 C235.577331,109.098001 235.180669,109.168 234.798,109.168 C234.312664,109.168 233.862335,109.086334 233.447,108.923 C233.031665,108.759666 232.670002,108.524002 232.362,108.216 C232.053998,107.907998 231.811334,107.527669 231.634,107.075 C231.456666,106.622331 231.368,106.10667 231.368,105.528 Z M237.514,105.528 C237.514,104.967997 237.607332,104.461669 237.794,104.009 C237.980668,103.556331 238.225665,103.173668 238.529,102.861 C238.832335,102.548332 239.179998,102.308001 239.572,102.14 C239.964002,101.971999 240.369998,101.888 240.79,101.888 C241.284669,101.888 241.716331,101.971999 242.085,102.14 C242.453669,102.308001 242.761665,102.541332 243.009,102.84 C243.256335,103.138668 243.440666,103.490998 243.562,103.897 C243.683334,104.303002 243.744,104.743998 243.744,105.22 C243.744,105.406668 243.734667,105.576999 243.716,105.731 C243.697333,105.885001 243.678667,106.004 243.66,106.088 L239.502,106.088 C239.595334,106.620003 239.802998,107.004999 240.125,107.243 C240.447002,107.481001 240.841331,107.6 241.308,107.6 C241.802669,107.6 242.301997,107.446002 242.806,107.138 L243.492,108.384 C243.137332,108.626668 242.743002,108.817999 242.309,108.958 C241.874998,109.098001 241.448002,109.168 241.028,109.168 C240.533331,109.168 240.071335,109.086334 239.642,108.923 C239.212665,108.759666 238.839335,108.521668 238.522,108.209 C238.204665,107.896332 237.957334,107.516002 237.78,107.068 C237.602666,106.619998 237.514,106.10667 237.514,105.528 Z M241.994,104.814 C241.994,104.412665 241.905334,104.086001 241.728,103.834 C241.550666,103.581999 241.252002,103.456 240.832,103.456 C240.505332,103.456 240.218335,103.565666 239.971,103.785 C239.723665,104.004334 239.562667,104.347331 239.488,104.814 L241.994,104.814 Z M245.48,106.914 C245.797335,107.156668 246.100665,107.338666 246.39,107.46 C246.679335,107.581334 246.973332,107.642 247.272,107.642 C247.580002,107.642 247.803999,107.590667 247.944,107.488 C248.084001,107.385333 248.154,107.240668 248.154,107.054 C248.154,106.941999 248.114334,106.841667 248.035,106.753 C247.955666,106.664333 247.848334,106.582667 247.713,106.508 C247.577666,106.433333 247.426001,106.365667 247.258,106.305 C247.089999,106.244333 246.917334,106.176667 246.74,106.102 C246.525332,106.018 246.310668,105.920001 246.096,105.808 C245.881332,105.695999 245.685334,105.558334 245.508,105.395 C245.330666,105.231666 245.186001,105.040334 245.074,104.821 C244.961999,104.601666 244.906,104.347335 244.906,104.058 C244.906,103.740665 244.968999,103.446668 245.095,103.176 C245.221001,102.905332 245.400666,102.676668 245.634,102.49 C245.867334,102.303332 246.147332,102.156334 246.474,102.049 C246.800668,101.941666 247.164665,101.888 247.566,101.888 C248.098003,101.888 248.564665,101.978999 248.966,102.161 C249.367335,102.343001 249.717332,102.545999 250.016,102.77 L249.092,104.002 C248.839999,103.815332 248.592668,103.670667 248.35,103.568 C248.107332,103.465333 247.864668,103.414 247.622,103.414 C247.099331,103.414 246.838,103.595998 246.838,103.96 C246.838,104.072001 246.875333,104.167666 246.95,104.247 C247.024667,104.326334 247.124999,104.398666 247.251,104.464 C247.377001,104.529334 247.521666,104.592333 247.685,104.653 C247.848334,104.713667 248.018666,104.776666 248.196,104.842 C248.420001,104.926 248.641666,105.021666 248.861,105.129 C249.080334,105.236334 249.280999,105.369333 249.463,105.528 C249.645001,105.686667 249.791999,105.880332 249.904,106.109 C250.016001,106.337668 250.072,106.610665 250.072,106.928 C250.072,107.245335 250.011334,107.539332 249.89,107.81 C249.768666,108.080668 249.586668,108.316332 249.344,108.517 C249.101332,108.717668 248.802668,108.876333 248.448,108.993 C248.093332,109.109667 247.682669,109.168 247.216,109.168 C246.758664,109.168 246.289669,109.079334 245.809,108.902 C245.328331,108.724666 244.910668,108.491335 244.556,108.202 L245.48,106.914 Z" id="Services" fill="#FFFFFF"></path>
            <rect id="Rectangle" fill="#545454" x="300" y="0" width="150" height="235"></rect>
            <path d="M316.493421,121.5 L434.13063,121.5" id="Line" stroke="#FFFFFF" stroke-width="3" stroke-linecap="square"></path>
            <path d="M333.493421,134.5 L416.388158,134.5" id="Line" stroke="#FFFFFF" stroke-width="3" stroke-linecap="square"></path>
            <path d="M353.078,99.872 L356.41,99.872 C356.904669,99.872 357.368998,99.9209995 357.803,100.019 C358.237002,100.117 358.614998,100.280332 358.937,100.509 C359.259002,100.737668 359.513332,101.040998 359.7,101.419 C359.886668,101.797002 359.98,102.261331 359.98,102.812 C359.98,103.344003 359.884334,103.805998 359.693,104.198 C359.501666,104.590002 359.242668,104.911999 358.916,105.164 C358.589332,105.416001 358.211335,105.602666 357.782,105.724 C357.352665,105.845334 356.895336,105.906 356.41,105.906 L355.136,105.906 L355.136,109 L353.078,109 L353.078,99.872 Z M356.284,104.268 C357.404006,104.268 357.964,103.782672 357.964,102.812 C357.964,102.335998 357.821668,102.000001 357.537,101.804 C357.252332,101.607999 356.834669,101.51 356.284,101.51 L355.136,101.51 L355.136,104.268 L356.284,104.268 Z M361.394,102.056 L363.074,102.056 L363.214,103.274 L363.27,103.274 C363.522001,102.797998 363.825332,102.448001 364.18,102.224 C364.534668,101.999999 364.889332,101.888 365.244,101.888 C365.440001,101.888 365.600999,101.899667 365.727,101.923 C365.853001,101.946333 365.967333,101.981333 366.07,102.028 L365.734,103.806 C365.603333,103.768666 365.482001,103.740667 365.37,103.722 C365.257999,103.703333 365.127334,103.694 364.978,103.694 C364.716665,103.694 364.443668,103.787332 364.159,103.974 C363.874332,104.160668 363.638668,104.491998 363.452,104.968 L363.452,109 L361.394,109 L361.394,102.056 Z M367.988,101.034 C367.642665,101.034 367.358001,100.933668 367.134,100.733 C366.909999,100.532332 366.798,100.273335 366.798,99.956 C366.798,99.6386651 366.909999,99.382001 367.134,99.186 C367.358001,98.989999 367.642665,98.892 367.988,98.892 C368.342668,98.892 368.629666,98.989999 368.849,99.186 C369.068334,99.382001 369.178,99.6386651 369.178,99.956 C369.178,100.273335 369.068334,100.532332 368.849,100.733 C368.629666,100.933668 368.342668,101.034 367.988,101.034 Z M366.966,102.056 L369.024,102.056 L369.024,109 L366.966,109 L366.966,102.056 Z M370.424,105.528 C370.424,104.94933 370.521999,104.433669 370.718,103.981 C370.914001,103.528331 371.177665,103.148002 371.509,102.84 C371.840335,102.531998 372.225331,102.296334 372.664,102.133 C373.102669,101.969666 373.559998,101.888 374.036,101.888 C374.465335,101.888 374.852665,101.960333 375.198,102.105 C375.543335,102.249667 375.832666,102.443332 376.066,102.686 L375.128,103.96 C374.801332,103.689332 374.479335,103.554 374.162,103.554 C373.657997,103.554 373.261335,103.731332 372.972,104.086 C372.682665,104.440668 372.538,104.92133 372.538,105.528 C372.538,106.13467 372.684999,106.615332 372.979,106.97 C373.273001,107.324668 373.643998,107.502 374.092,107.502 C374.344001,107.502 374.572666,107.450667 374.778,107.348 C374.983334,107.245333 375.169999,107.128667 375.338,106.998 L376.164,108.3 C375.827998,108.598668 375.454669,108.817999 375.044,108.958 C374.633331,109.098001 374.236669,109.168 373.854,109.168 C373.368664,109.168 372.918335,109.086334 372.503,108.923 C372.087665,108.759666 371.726002,108.524002 371.418,108.216 C371.109998,107.907998 370.867334,107.527669 370.69,107.075 C370.512666,106.622331 370.424,106.10667 370.424,105.528 Z M378.39,101.034 C378.044665,101.034 377.760001,100.933668 377.536,100.733 C377.311999,100.532332 377.2,100.273335 377.2,99.956 C377.2,99.6386651 377.311999,99.382001 377.536,99.186 C377.760001,98.989999 378.044665,98.892 378.39,98.892 C378.744668,98.892 379.031666,98.989999 379.251,99.186 C379.470334,99.382001 379.58,99.6386651 379.58,99.956 C379.58,100.273335 379.470334,100.532332 379.251,100.733 C379.031666,100.933668 378.744668,101.034 378.39,101.034 Z M377.368,102.056 L379.426,102.056 L379.426,109 L377.368,109 L377.368,102.056 Z M381.232,102.056 L382.912,102.056 L383.052,102.938 L383.108,102.938 C383.406668,102.657999 383.733332,102.413001 384.088,102.203 C384.442668,101.992999 384.857998,101.888 385.334,101.888 C386.090004,101.888 386.638332,102.135331 386.979,102.63 C387.319668,103.124669 387.49,103.810662 387.49,104.688 L387.49,109 L385.432,109 L385.432,104.954 C385.432,104.449997 385.364334,104.104668 385.229,103.918 C385.093666,103.731332 384.876668,103.638 384.578,103.638 C384.316665,103.638 384.092668,103.696333 383.906,103.813 C383.719332,103.929667 383.514001,104.095332 383.29,104.31 L383.29,109 L381.232,109 L381.232,102.056 Z M390.5,109.868 C390.5,110.129335 390.639999,110.327666 390.92,110.463 C391.200001,110.598334 391.573331,110.666 392.04,110.666 C392.506669,110.666 392.889332,110.584334 393.188,110.421 C393.486668,110.257666 393.636,110.054668 393.636,109.812 C393.636,109.597332 393.545001,109.452667 393.363,109.378 C393.180999,109.303333 392.917335,109.266 392.572,109.266 L391.858,109.266 C391.615332,109.266 391.419334,109.259 391.27,109.245 C391.120666,109.231 390.990001,109.21 390.878,109.182 C390.625999,109.406001 390.5,109.634665 390.5,109.868 Z M388.806,110.19 C388.806,109.629997 389.13733,109.163335 389.8,108.79 L389.8,108.734 C389.613332,108.612666 389.459334,108.458668 389.338,108.272 C389.216666,108.085332 389.156,107.847335 389.156,107.558 C389.156,107.305999 389.230666,107.065668 389.38,106.837 C389.529334,106.608332 389.715999,106.414667 389.94,106.256 L389.94,106.2 C389.697332,106.031999 389.480334,105.791668 389.289,105.479 C389.097666,105.166332 389.002,104.804669 389.002,104.394 C389.002,103.973998 389.081333,103.607668 389.24,103.295 C389.398667,102.982332 389.610999,102.721001 389.877,102.511 C390.143001,102.300999 390.448665,102.144667 390.794,102.042 C391.139335,101.939333 391.498665,101.888 391.872,101.888 C392.282669,101.888 392.641998,101.943999 392.95,102.056 L395.484,102.056 L395.484,103.554 L394.378,103.554 C394.443334,103.656667 394.497,103.787333 394.539,103.946 C394.581,104.104667 394.602,104.277332 394.602,104.464 C394.602,104.865335 394.532001,105.212999 394.392,105.507 C394.251999,105.801001 394.058335,106.043666 393.811,106.235 C393.563665,106.426334 393.274335,106.568666 392.943,106.662 C392.611665,106.755334 392.254669,106.802 391.872,106.802 C391.601332,106.802 391.321335,106.755334 391.032,106.662 C390.938666,106.736667 390.873334,106.811333 390.836,106.886 C390.798666,106.960667 390.78,107.058666 390.78,107.18 C390.78,107.357334 390.856999,107.488 391.011,107.572 C391.165001,107.656 391.437998,107.698 391.83,107.698 L392.95,107.698 C393.808671,107.698 394.464331,107.835665 394.917,108.111 C395.369669,108.386335 395.596,108.836664 395.596,109.462 C395.596,109.826002 395.505001,110.159665 395.323,110.463 C395.140999,110.766335 394.882002,111.027666 394.546,111.247 C394.209998,111.466334 393.804002,111.638999 393.328,111.765 C392.851998,111.891001 392.315336,111.954 391.718,111.954 C391.307331,111.954 390.927002,111.919 390.577,111.849 C390.226998,111.779 389.919001,111.674001 389.653,111.534 C389.386999,111.393999 389.179334,111.212001 389.03,110.988 C388.880666,110.763999 388.806,110.498002 388.806,110.19 Z M391.872,105.556 C392.142668,105.556 392.368999,105.460334 392.551,105.269 C392.733001,105.077666 392.824,104.786002 392.824,104.394 C392.824,104.029998 392.733001,103.752334 392.551,103.561 C392.368999,103.369666 392.142668,103.274 391.872,103.274 C391.601332,103.274 391.375001,103.367332 391.193,103.554 C391.010999,103.740668 390.92,104.020665 390.92,104.394 C390.92,104.786002 391.010999,105.077666 391.193,105.269 C391.375001,105.460334 391.601332,105.556 391.872,105.556 Z" id="Pricing" fill="#FFFFFF"></path>
            <rect id="Rectangle" fill="#545454" opacity="0.900000036" x="450" y="0" width="150" height="235"></rect>
            <path d="M466.493421,121.5 L584.13063,121.5" id="Line" stroke="#FFFFFF" stroke-width="3" stroke-linecap="square"></path>
            <path d="M483.493421,134.5 L566.388158,134.5" id="Line" stroke="#FFFFFF" stroke-width="3" stroke-linecap="square"></path>
            <path d="M500.644,104.492 C500.644,103.735996 500.760665,103.06167 500.994,102.469 C501.227334,101.87633 501.542331,101.374669 501.939,100.964 C502.335669,100.553331 502.797664,100.240668 503.325,100.026 C503.852336,99.8113323 504.409997,99.704 504.998,99.704 C505.567336,99.704 506.082998,99.8229988 506.545,100.061 C507.007002,100.299001 507.391998,100.576665 507.7,100.894 L506.566,102.168 C506.332665,101.953332 506.097001,101.785334 505.859,101.664 C505.620999,101.542666 505.343335,101.482 505.026,101.482 C504.708665,101.482 504.412335,101.549666 504.137,101.685 C503.861665,101.820334 503.621334,102.013999 503.416,102.266 C503.210666,102.518001 503.049667,102.825998 502.933,103.19 C502.816333,103.554002 502.758,103.964664 502.758,104.422 C502.758,105.364671 502.958665,106.094997 503.36,106.613 C503.761335,107.131003 504.297997,107.39 504.97,107.39 C505.343335,107.39 505.669999,107.315334 505.95,107.166 C506.230001,107.016666 506.481999,106.820668 506.706,106.578 L507.84,107.824 C507.457331,108.272002 507.021002,108.607999 506.531,108.832 C506.040998,109.056001 505.511336,109.168 504.942,109.168 C504.353997,109.168 503.798669,109.067668 503.276,108.867 C502.753331,108.666332 502.296002,108.370002 501.904,107.978 C501.511998,107.585998 501.204001,107.098336 500.98,106.515 C500.755999,105.931664 500.644,105.257337 500.644,104.492 Z M508.652,105.528 C508.652,104.94933 508.745332,104.433669 508.932,103.981 C509.118668,103.528331 509.368332,103.148002 509.681,102.84 C509.993668,102.531998 510.355331,102.296334 510.766,102.133 C511.176669,101.969666 511.601331,101.888 512.04,101.888 C512.478669,101.888 512.900998,101.969666 513.307,102.133 C513.713002,102.296334 514.072332,102.531998 514.385,102.84 C514.697668,103.148002 514.947332,103.528331 515.134,103.981 C515.320668,104.433669 515.414,104.94933 515.414,105.528 C515.414,106.10667 515.320668,106.622331 515.134,107.075 C514.947332,107.527669 514.697668,107.907998 514.385,108.216 C514.072332,108.524002 513.713002,108.759666 513.307,108.923 C512.900998,109.086334 512.478669,109.168 512.04,109.168 C511.601331,109.168 511.176669,109.086334 510.766,108.923 C510.355331,108.759666 509.993668,108.524002 509.681,108.216 C509.368332,107.907998 509.118668,107.527669 508.932,107.075 C508.745332,106.622331 508.652,106.10667 508.652,105.528 Z M510.766,105.528 C510.766,106.13467 510.870999,106.615332 511.081,106.97 C511.291001,107.324668 511.610665,107.502 512.04,107.502 C512.460002,107.502 512.777332,107.324668 512.992,106.97 C513.206668,106.615332 513.314,106.13467 513.314,105.528 C513.314,104.92133 513.206668,104.440668 512.992,104.086 C512.777332,103.731332 512.460002,103.554 512.04,103.554 C511.610665,103.554 511.291001,103.731332 511.081,104.086 C510.870999,104.440668 510.766,104.92133 510.766,105.528 Z M516.828,102.056 L518.508,102.056 L518.648,102.938 L518.704,102.938 C519.002668,102.657999 519.329332,102.413001 519.684,102.203 C520.038668,101.992999 520.453998,101.888 520.93,101.888 C521.686004,101.888 522.234332,102.135331 522.575,102.63 C522.915668,103.124669 523.086,103.810662 523.086,104.688 L523.086,109 L521.028,109 L521.028,104.954 C521.028,104.449997 520.960334,104.104668 520.825,103.918 C520.689666,103.731332 520.472668,103.638 520.174,103.638 C519.912665,103.638 519.688668,103.696333 519.502,103.813 C519.315332,103.929667 519.110001,104.095332 518.886,104.31 L518.886,109 L516.828,109 L516.828,102.056 Z M525.116,103.666 L524.164,103.666 L524.164,102.14 L525.228,102.056 L525.466,100.208 L527.174,100.208 L527.174,102.056 L528.84,102.056 L528.84,103.666 L527.174,103.666 L527.174,106.452 C527.174,106.844002 527.255666,107.126332 527.419,107.299 C527.582334,107.471668 527.799332,107.558 528.07,107.558 C528.182001,107.558 528.296333,107.544 528.413,107.516 C528.529667,107.488 528.634666,107.455334 528.728,107.418 L529.05,108.916 C528.863332,108.972 528.644001,109.028 528.392,109.084 C528.139999,109.14 527.846002,109.168 527.51,109.168 C527.080665,109.168 526.714335,109.102667 526.411,108.972 C526.107665,108.841333 525.860334,108.659334 525.669,108.426 C525.477666,108.192666 525.337667,107.910335 525.249,107.579 C525.160333,107.247665 525.116,106.881335 525.116,106.48 L525.116,103.666 Z M529.778,107.068 C529.778,106.339996 530.085997,105.770669 530.702,105.36 C531.318003,104.949331 532.311993,104.674001 533.684,104.534 C533.665333,104.225998 533.572001,103.981001 533.404,103.799 C533.235999,103.616999 532.965335,103.526 532.592,103.526 C532.293332,103.526 531.994668,103.581999 531.696,103.694 C531.397332,103.806001 531.080002,103.959999 530.744,104.156 L530.016,102.798 C530.464002,102.527332 530.932998,102.308001 531.423,102.14 C531.913002,101.971999 532.433331,101.888 532.984,101.888 C533.880004,101.888 534.563664,102.142331 535.035,102.651 C535.506336,103.159669 535.742,103.950661 535.742,105.024 L535.742,109 L534.062,109 L533.908,108.286 L533.866,108.286 C533.567332,108.547335 533.252335,108.759666 532.921,108.923 C532.589665,109.086334 532.228002,109.168 531.836,109.168 C531.518665,109.168 531.234001,109.114334 530.982,109.007 C530.729999,108.899666 530.515334,108.750334 530.338,108.559 C530.160666,108.367666 530.023,108.146001 529.925,107.894 C529.827,107.641999 529.778,107.366668 529.778,107.068 Z M531.738,106.914 C531.738,107.138001 531.810333,107.303666 531.955,107.411 C532.099667,107.518334 532.293332,107.572 532.536,107.572 C532.778668,107.572 532.983999,107.520667 533.152,107.418 C533.320001,107.315333 533.497332,107.170668 533.684,106.984 L533.684,105.766 C532.946663,105.868667 532.438001,106.017999 532.158,106.214 C531.877999,106.410001 531.738,106.643332 531.738,106.914 Z M537.1,105.528 C537.1,104.94933 537.197999,104.433669 537.394,103.981 C537.590001,103.528331 537.853665,103.148002 538.185,102.84 C538.516335,102.531998 538.901331,102.296334 539.34,102.133 C539.778669,101.969666 540.235998,101.888 540.712,101.888 C541.141335,101.888 541.528665,101.960333 541.874,102.105 C542.219335,102.249667 542.508666,102.443332 542.742,102.686 L541.804,103.96 C541.477332,103.689332 541.155335,103.554 540.838,103.554 C540.333997,103.554 539.937335,103.731332 539.648,104.086 C539.358665,104.440668 539.214,104.92133 539.214,105.528 C539.214,106.13467 539.360999,106.615332 539.655,106.97 C539.949001,107.324668 540.319998,107.502 540.768,107.502 C541.020001,107.502 541.248666,107.450667 541.454,107.348 C541.659334,107.245333 541.845999,107.128667 542.014,106.998 L542.84,108.3 C542.503998,108.598668 542.130669,108.817999 541.72,108.958 C541.309331,109.098001 540.912669,109.168 540.53,109.168 C540.044664,109.168 539.594335,109.086334 539.179,108.923 C538.763665,108.759666 538.402002,108.524002 538.094,108.216 C537.785998,107.907998 537.543334,107.527669 537.366,107.075 C537.188666,106.622331 537.1,106.10667 537.1,105.528 Z M544.324,103.666 L543.372,103.666 L543.372,102.14 L544.436,102.056 L544.674,100.208 L546.382,100.208 L546.382,102.056 L548.048,102.056 L548.048,103.666 L546.382,103.666 L546.382,106.452 C546.382,106.844002 546.463666,107.126332 546.627,107.299 C546.790334,107.471668 547.007332,107.558 547.278,107.558 C547.390001,107.558 547.504333,107.544 547.621,107.516 C547.737667,107.488 547.842666,107.455334 547.936,107.418 L548.258,108.916 C548.071332,108.972 547.852001,109.028 547.6,109.084 C547.347999,109.14 547.054002,109.168 546.718,109.168 C546.288665,109.168 545.922335,109.102667 545.619,108.972 C545.315665,108.841333 545.068334,108.659334 544.877,108.426 C544.685666,108.192666 544.545667,107.910335 544.457,107.579 C544.368333,107.247665 544.324,106.881335 544.324,106.48 L544.324,103.666 Z" id="Contact" fill="#FFFFFF"></path>
        </g>
    </g>
</svg>