<?xml version="1.0" encoding="UTF-8"?>
<svg width="600px" height="334px" viewBox="0 0 600 334" version="1.1" xmlns="http://www.w3.org/2000/svg" xmlns:xlink="http://www.w3.org/1999/xlink">
    <!-- Generator: Sketch 44.1 (41455) - http://www.bohemiancoding.com/sketch -->
    <title>imageboxes07</title>
    <desc>Created with Sketch.</desc>
    <defs></defs>
    <g id="Imageboxes" stroke="none" stroke-width="1" fill="none" fill-rule="evenodd">
        <g id="07">
            <rect id="Rectangle-3" fill="#5F5F5F" x="0" y="65" width="194" height="128"></rect>
            <path d="M202,1.55288736 L205.261063,1.55288736 L205.261063,16.016924 L202,16.016924 L202,1.55288736 Z M208.411206,5.01360778 L211.073299,5.01360778 L211.29514,6.43339051 L211.383877,6.43339051 C211.84235,5.97491671 212.330396,5.57930412 212.848027,5.24654088 C213.365659,4.91377764 213.986808,4.74739851 214.711492,4.74739851 C215.495335,4.74739851 216.127575,4.90638301 216.608233,5.22435678 C217.088891,5.54233054 217.469715,5.99710015 217.750715,6.58867925 C218.238767,6.08583701 218.752694,5.65325129 219.29251,5.29090909 C219.832326,4.92856689 220.471961,4.74739851 221.211435,4.74739851 C222.394593,4.74739851 223.263462,5.1430111 223.818067,5.93424814 C224.372673,6.72548518 224.649971,7.80879815 224.649971,9.18421955 L224.649971,16.016924 L221.388908,16.016924 L221.388908,9.60571755 C221.388908,8.80708577 221.281686,8.25988332 221.067238,7.96409377 C220.852791,7.66830422 220.508941,7.52041166 220.035678,7.52041166 C219.488467,7.52041166 218.859924,7.8753538 218.150029,8.58524871 L218.150029,16.016924 L214.888965,16.016924 L214.888965,9.60571755 C214.888965,8.80708577 214.781743,8.25988332 214.567296,7.96409377 C214.352848,7.66830422 214.008998,7.52041166 213.535735,7.52041166 C212.973735,7.52041166 212.352586,7.8753538 211.67227,8.58524871 L211.67227,16.016924 L208.411206,16.016924 L208.411206,5.01360778 Z M227.023671,12.9555174 C227.023671,11.8019382 227.511716,10.8997936 228.487822,10.2490566 C229.463927,9.5983196 231.038983,9.16203656 233.213036,8.9401944 C233.183457,8.45214164 233.035565,8.06392368 232.769354,7.77552887 C232.503143,7.48713406 232.074255,7.34293882 231.482676,7.34293882 C231.009413,7.34293882 230.536156,7.43167436 230.062893,7.60914808 C229.58963,7.78662181 229.086795,8.03064453 228.554374,8.34122356 L227.4008,6.18936535 C228.110695,5.76047051 228.853855,5.412923 229.630303,5.14671241 C230.406751,4.88050181 231.231252,4.74739851 232.103831,4.74739851 C233.523621,4.74739851 234.606934,5.15040573 235.353802,5.95643225 C236.100671,6.76245877 236.474099,8.01584818 236.474099,9.71663808 L236.474099,16.016924 L233.812007,16.016924 L233.567982,14.8855346 L233.501429,14.8855346 C233.028166,15.29964 232.529029,15.6360955 232.004002,15.8949114 C231.478976,16.1537272 230.905892,16.2831332 230.284734,16.2831332 C229.781892,16.2831332 229.33082,16.198095 228.931504,16.028016 C228.532188,15.857937 228.192035,15.6213089 227.911035,15.3181246 C227.630035,15.0149404 227.411893,14.6636955 227.256604,14.2643796 C227.101314,13.8650638 227.023671,13.4287807 227.023671,12.9555174 Z M230.129445,12.7114923 C230.129445,13.0664397 230.244062,13.328949 230.473299,13.499028 C230.702536,13.669107 231.009413,13.7541452 231.393939,13.7541452 C231.778466,13.7541452 232.103829,13.6728043 232.37004,13.5101201 C232.636251,13.3474358 232.917246,13.1182024 233.213036,12.8224128 L233.213036,10.8923957 C232.044667,11.0550799 231.238653,11.291708 230.794969,11.602287 C230.351284,11.912866 230.129445,12.2825974 230.129445,12.7114923 Z M241.265866,17.3923385 C241.265866,17.8064438 241.487705,18.1207155 241.931389,18.335163 C242.375074,18.5496104 242.966644,18.6568325 243.706118,18.6568325 C244.445592,18.6568325 245.051951,18.5274265 245.525214,18.2686106 C245.998478,18.0097948 246.235106,17.6881285 246.235106,17.3036021 C246.235106,16.9634441 246.090911,16.7342106 245.802516,16.6158948 C245.514121,16.497579 245.096324,16.438422 244.549114,16.438422 L243.417724,16.438422 C243.033198,16.438422 242.722624,16.42733 242.485992,16.4051458 C242.24936,16.3829616 242.042311,16.3496858 241.864837,16.3053173 C241.465521,16.6602648 241.265866,17.0226015 241.265866,17.3923385 Z M238.581589,17.9025729 C238.581589,17.0152043 239.106608,16.2757415 240.156661,15.6841624 L240.156661,15.595426 C239.860871,15.4031628 239.616849,15.15914 239.424585,14.8633505 C239.232322,14.5675609 239.136192,14.1904349 239.136192,13.7319611 C239.136192,13.3326452 239.254506,12.9518219 239.491138,12.5894797 C239.727769,12.2271375 240.023555,11.9202605 240.378502,11.6688393 L240.378502,11.5801029 C239.993976,11.3138923 239.650125,10.933069 239.346941,10.4376215 C239.043757,9.942174 238.892167,9.36909035 238.892167,8.71835334 C238.892167,8.05282686 239.017876,7.47234858 239.269297,6.97690109 C239.520718,6.48145359 239.857173,6.06735444 240.278674,5.73459119 C240.700174,5.40182795 241.184522,5.15410792 241.731732,4.99142367 C242.278943,4.82873942 242.848329,4.74739851 243.439909,4.74739851 C244.090646,4.74739851 244.660032,4.83613405 245.148085,5.01360778 L249.163408,5.01360778 L249.163408,7.38730703 L247.410863,7.38730703 C247.51439,7.54999128 247.599428,7.75704086 247.665981,8.00846198 C247.732533,8.25988309 247.765809,8.53348432 247.765809,8.82927387 C247.765809,9.4652214 247.65489,10.0161212 247.433047,10.4819897 C247.211205,10.9478582 246.904328,11.3323789 246.512407,11.6355632 C246.120486,11.9387475 245.662019,12.1642836 245.136993,12.3121784 C244.611966,12.4600732 244.046277,12.5340194 243.439909,12.5340194 C243.011014,12.5340194 242.567336,12.4600732 242.108862,12.3121784 C241.960967,12.4304942 241.857443,12.5488083 241.798285,12.6671241 C241.739127,12.7854399 241.709548,12.9407271 241.709548,13.1329903 C241.709548,13.4139904 241.83156,13.6210399 242.075586,13.7541452 C242.319612,13.8872505 242.752198,13.9538022 243.373356,13.9538022 L245.148085,13.9538022 C246.508717,13.9538022 247.547662,14.1719437 248.264951,14.6082333 C248.982241,15.0445229 249.340881,15.7581044 249.340881,16.7489994 C249.340881,17.325789 249.196685,17.8545049 248.90829,18.335163 C248.619896,18.815821 248.209494,19.2299201 247.677073,19.5774728 C247.144651,19.9250256 246.501319,20.1986268 245.747055,20.3982847 C244.992792,20.5979427 244.14241,20.6977702 243.195883,20.6977702 C242.545146,20.6977702 241.942484,20.6423104 241.387879,20.5313894 C240.833273,20.4204683 240.345228,20.2540892 239.923728,20.032247 C239.502228,19.8104048 239.173167,19.5220144 238.936535,19.1670669 C238.699904,18.8121194 238.581589,18.3906257 238.581589,17.9025729 Z M243.439909,10.5596341 C243.868803,10.5596341 244.227443,10.4080442 244.515838,10.1048599 C244.804232,9.80167563 244.948428,9.3395114 244.948428,8.71835334 C244.948428,8.14156373 244.804232,7.70158337 244.515838,7.39839909 C244.227443,7.0952148 243.868803,6.94362493 243.439909,6.94362493 C243.011014,6.94362493 242.652374,7.09151748 242.363979,7.38730703 C242.075585,7.68309658 241.931389,8.12677425 241.931389,8.71835334 C241.931389,9.3395114 242.075585,9.80167563 242.363979,10.1048599 C242.652374,10.4080442 243.011014,10.5596341 243.439909,10.5596341 Z M250.47227,10.5152659 C250.47227,9.62789722 250.620162,8.82558011 250.915952,8.10829045 C251.211742,7.3910008 251.599959,6.78464132 252.080617,6.28919383 C252.561276,5.79374633 253.112175,5.412923 253.733333,5.14671241 C254.354491,4.88050181 254.997824,4.74739851 255.66335,4.74739851 C256.447193,4.74739851 257.131196,4.88050181 257.71538,5.14671241 C258.299565,5.412923 258.78761,5.78265439 259.179531,6.25591767 C259.571452,6.72918094 259.86354,7.28747534 260.055803,7.93081761 C260.248067,8.57415988 260.344197,9.2729522 260.344197,10.0272156 C260.344197,10.3230051 260.329407,10.592909 260.299828,10.8369354 C260.27025,11.0809618 260.240671,11.2695248 260.211092,11.4026301 L253.622413,11.4026301 C253.770308,12.2456303 254.099369,12.8556871 254.609605,13.2328188 C255.119842,13.6099504 255.744689,13.7985134 256.484162,13.7985134 C257.268005,13.7985134 258.05923,13.5544907 258.857862,13.066438 L259.944883,15.0408233 C259.382883,15.4253497 258.758037,15.7285295 258.070326,15.9503716 C257.382615,16.1722138 256.706007,16.2831332 256.04048,16.2831332 C255.256638,16.2831332 254.52457,16.1537272 253.844254,15.8949114 C253.163938,15.6360955 252.572368,15.2589695 252.069525,14.763522 C251.566683,14.2680745 251.174768,13.6654124 250.893768,12.9555174 C250.612768,12.2456225 250.47227,11.4322135 250.47227,10.5152659 Z M257.571184,9.3838765 C257.571184,8.74792897 257.430686,8.23030503 257.149686,7.83098914 C256.868685,7.43167325 256.395429,7.2320183 255.729903,7.2320183 C255.212271,7.2320183 254.757501,7.40579205 254.36558,7.75334477 C253.973659,8.10089749 253.718545,8.64440263 253.600229,9.3838765 L257.571184,9.3838765 Z M262.606975,0.465866209 L265.868039,0.465866209 L265.868039,4.2815323 L265.779302,5.9675243 C266.208197,5.58299789 266.670362,5.28351546 267.165809,5.06906804 C267.661257,4.85462062 268.167789,4.74739851 268.68542,4.74739851 C269.350947,4.74739851 269.949912,4.88050181 270.482333,5.14671241 C271.014754,5.412923 271.469524,5.7863517 271.846655,6.26700972 C272.223787,6.74766774 272.512177,7.33184333 272.711835,8.01955403 C272.911493,8.70726473 273.011321,9.47260871 273.011321,10.3156089 C273.011321,11.2621355 272.881915,12.105123 272.623099,12.8445969 C272.364283,13.5840708 272.016736,14.2089168 271.580446,14.7191538 C271.144156,15.2293908 270.648716,15.6176087 270.094111,15.8838193 C269.539506,16.1500299 268.966422,16.2831332 268.374843,16.2831332 C267.88679,16.2831332 267.395047,16.1648192 266.8996,15.9281875 C266.404152,15.6915559 265.941988,15.3366138 265.513093,14.8633505 L265.424357,14.8633505 L265.158148,16.016924 L262.606975,16.016924 L262.606975,0.465866209 Z M265.868039,12.9111492 C266.163828,13.1773598 266.459614,13.3622255 266.755403,13.4657519 C267.051193,13.5692782 267.339583,13.6210406 267.620583,13.6210406 C268.182583,13.6210406 268.663234,13.3659259 269.06255,12.855689 C269.461866,12.345452 269.661521,11.520951 269.661521,10.3821612 C269.661521,8.40037126 269.025583,7.40949114 267.753688,7.40949114 C267.102951,7.40949114 266.474407,7.74224939 265.868039,8.40777587 L265.868039,12.9111492 Z M274.675129,10.5152659 C274.675129,9.59831827 274.823021,8.7812119 275.118811,8.06392224 C275.4146,7.34663259 275.810213,6.74397042 276.30566,6.25591767 C276.801108,5.76786491 277.374192,5.39443621 278.024929,5.13562035 C278.675666,4.8768045 279.348577,4.74739851 280.043682,4.74739851 C280.738788,4.74739851 281.408001,4.8768045 282.051344,5.13562035 C282.694686,5.39443621 283.264072,5.76786491 283.75952,6.25591767 C284.254967,6.74397042 284.65058,7.34663259 284.946369,8.06392224 C285.242159,8.7812119 285.390051,9.59831827 285.390051,10.5152659 C285.390051,11.4322135 285.242159,12.2493198 284.946369,12.9666095 C284.65058,13.6838991 284.254967,14.2865613 283.75952,14.7746141 C283.264072,15.2626668 282.694686,15.6360955 282.051344,15.8949114 C281.408001,16.1537272 280.738788,16.2831332 280.043682,16.2831332 C279.348577,16.2831332 278.675666,16.1537272 278.024929,15.8949114 C277.374192,15.6360955 276.801108,15.2626668 276.30566,14.7746141 C275.810213,14.2865613 275.4146,13.6838991 275.118811,12.9666095 C274.823021,12.2493198 274.675129,11.4322135 274.675129,10.5152659 Z M278.024929,10.5152659 C278.024929,11.4765819 278.191308,12.2382286 278.524071,12.8002287 C278.856834,13.3622288 279.363366,13.6432247 280.043682,13.6432247 C280.709209,13.6432247 281.212043,13.3622288 281.552201,12.8002287 C281.892359,12.2382286 282.062436,11.4765819 282.062436,10.5152659 C282.062436,9.55394983 281.892359,8.79230317 281.552201,8.23030303 C281.212043,7.66830289 280.709209,7.38730703 280.043682,7.38730703 C279.363366,7.38730703 278.856834,7.66830289 278.524071,8.23030303 C278.191308,8.79230317 278.024929,9.55394983 278.024929,10.5152659 Z M289.871241,10.2934248 L286.698914,5.01360778 L290.204002,5.01360778 L291.180103,6.78833619 C291.327998,7.09891522 291.479588,7.4131869 291.634877,7.73116066 C291.790167,8.04913443 291.949151,8.36340611 292.111835,8.67398513 L292.200572,8.67398513 C292.318888,8.36340611 292.444596,8.04913443 292.577702,7.73116066 C292.710807,7.4131869 292.836516,7.09891522 292.954831,6.78833619 L293.709091,5.01360778 L297.081075,5.01360778 L293.886564,10.6705546 L297.280732,16.016924 L293.775643,16.016924 L292.710806,14.1978273 C292.533332,13.8872483 292.359559,13.5692793 292.18948,13.2439108 C292.019401,12.9185423 291.845627,12.6005733 291.668153,12.2899943 L291.579417,12.2899943 C291.446312,12.6005733 291.305814,12.914845 291.157919,13.2328188 C291.010024,13.5507925 290.869526,13.8724588 290.736421,14.1978273 L289.871241,16.016924 L286.499257,16.016924 L289.871241,10.2934248 Z M298.389937,10.5152659 C298.389937,9.62789722 298.53783,8.82558011 298.833619,8.10829045 C299.129409,7.3910008 299.517627,6.78464132 299.998285,6.28919383 C300.478943,5.79374633 301.029843,5.412923 301.651001,5.14671241 C302.272159,4.88050181 302.915491,4.74739851 303.581018,4.74739851 C304.36486,4.74739851 305.048863,4.88050181 305.633047,5.14671241 C306.217232,5.412923 306.705277,5.78265439 307.097198,6.25591767 C307.48912,6.72918094 307.781207,7.28747534 307.973471,7.93081761 C308.165734,8.57415988 308.261864,9.2729522 308.261864,10.0272156 C308.261864,10.3230051 308.247075,10.592909 308.217496,10.8369354 C308.187917,11.0809618 308.158338,11.2695248 308.128759,11.4026301 L301.54008,11.4026301 C301.687975,12.2456303 302.017036,12.8556871 302.527273,13.2328188 C303.03751,13.6099504 303.662356,13.7985134 304.40183,13.7985134 C305.185672,13.7985134 305.976897,13.5544907 306.775529,13.066438 L307.86255,15.0408233 C307.30055,15.4253497 306.675704,15.7285295 305.987993,15.9503716 C305.300282,16.1722138 304.623674,16.2831332 303.958148,16.2831332 C303.174305,16.2831332 302.442237,16.1537272 301.761921,15.8949114 C301.081605,15.6360955 300.490035,15.2589695 299.987193,14.763522 C299.48435,14.2680745 299.092435,13.6654124 298.811435,12.9555174 C298.530435,12.2456225 298.389937,11.4322135 298.389937,10.5152659 Z M305.488851,9.3838765 C305.488851,8.74792897 305.348353,8.23030503 305.067353,7.83098914 C304.786353,7.43167325 304.313097,7.2320183 303.64757,7.2320183 C303.129938,7.2320183 302.675169,7.40579205 302.283248,7.75334477 C301.891326,8.10089749 301.636212,8.64440263 301.517896,9.3838765 L305.488851,9.3838765 Z M311.012693,12.7114923 C311.515535,13.0960187 311.996186,13.3844092 312.45466,13.5766724 C312.913134,13.7689356 313.378995,13.8650658 313.852258,13.8650658 C314.340311,13.8650658 314.695253,13.7837248 314.917095,13.6210406 C315.138938,13.4583563 315.249857,13.2291229 315.249857,12.9333333 C315.249857,12.7558596 315.187003,12.5968751 315.061292,12.4563751 C314.935582,12.315875 314.765505,12.186469 314.551058,12.0681532 C314.33661,11.9498374 314.096285,11.8426153 313.830074,11.7464837 C313.563864,11.6503521 313.290263,11.54313 313.009262,11.4248142 C312.669104,11.2917089 312.328952,11.1364217 311.988794,10.958948 C311.648636,10.7814742 311.338061,10.5633327 311.057061,10.3045169 C310.776061,10.045701 310.546828,9.74252127 310.369354,9.39496855 C310.19188,9.04741583 310.103145,8.64440862 310.103145,8.18593482 C310.103145,7.68309259 310.202972,7.21723104 310.40263,6.78833619 C310.602288,6.35944135 310.886981,5.99710459 311.256718,5.70131504 C311.626455,5.40552549 312.070133,5.17259471 312.587764,5.00251572 C313.105396,4.83243673 313.682177,4.74739851 314.318125,4.74739851 C315.161125,4.74739851 315.900588,4.89159376 316.536535,5.17998856 C317.172483,5.46838337 317.72708,5.79004968 318.200343,6.14499714 L316.736192,8.0971984 C316.336876,7.80140885 315.944961,7.57217539 315.560435,7.40949114 C315.175908,7.24680689 314.791387,7.16546598 314.406861,7.16546598 C313.57865,7.16546598 313.164551,7.45385646 313.164551,8.03064608 C313.164551,8.20811981 313.223708,8.35970968 313.342024,8.48542024 C313.46034,8.6111308 313.619324,8.72574753 313.818982,8.82927387 C314.01864,8.93280021 314.247874,9.03262769 314.50669,9.12875929 C314.765505,9.22489089 315.035409,9.32471837 315.316409,9.42824471 C315.671357,9.56135001 316.022602,9.71293988 316.370154,9.88301887 C316.717707,10.0530979 317.035676,10.2638448 317.324071,10.5152659 C317.612466,10.766687 317.845396,11.073564 318.02287,11.4359062 C318.200344,11.7982484 318.289079,12.2308342 318.289079,12.7336764 C318.289079,13.2365186 318.192949,13.7023802 318.000686,14.131275 C317.808423,14.5601699 317.520032,14.9335986 317.135506,15.2515723 C316.75098,15.5695461 316.277723,15.8209634 315.715723,16.0058319 C315.153723,16.1907004 314.502996,16.2831332 313.763522,16.2831332 C313.038838,16.2831332 312.295678,16.1426353 311.534019,15.8616352 C310.772361,15.5806351 310.110542,15.2109038 309.548542,14.75243 L311.012693,12.7114923 Z M326.164437,11.9572327 C326.682069,12.400917 327.255152,12.7632538 327.883705,13.0442539 C328.512258,13.3252539 329.129709,13.4657519 329.736078,13.4657519 C330.416394,13.4657519 330.922926,13.3400432 331.255689,13.0886221 C331.588452,12.837201 331.754831,12.4970481 331.754831,12.0681532 C331.754831,11.8463111 331.706766,11.6540507 331.610635,11.4913665 C331.514503,11.3286822 331.374005,11.184487 331.189137,11.0587764 C331.004268,10.9330659 330.782429,10.8147518 330.523613,10.7038308 L329.669525,10.337793 L327.783877,9.53916524 C327.41414,9.39127046 327.0555,9.19901014 326.707947,8.9623785 C326.360395,8.72574686 326.04982,8.44844832 325.776215,8.13047456 C325.50261,7.81250079 325.284468,7.4427694 325.121784,7.0212693 C324.9591,6.59976919 324.877759,6.1228157 324.877759,5.59039451 C324.877759,4.99881541 325.003467,4.44052102 325.254889,3.91549457 C325.50631,3.39046812 325.861252,2.9320012 326.319726,2.54008005 C326.778199,2.14815889 327.321704,1.84128184 327.950257,1.61943968 C328.57881,1.39759752 329.270208,1.2866781 330.024471,1.2866781 C330.867471,1.2866781 331.699367,1.44935991 332.520183,1.77472842 C333.340999,2.10009692 334.061975,2.5733531 334.683133,3.19451115 L333.019325,5.25763293 C332.546062,4.887896 332.072806,4.60320283 331.599543,4.40354488 C331.126279,4.20388694 330.601261,4.10405946 330.024471,4.10405946 C329.462471,4.10405946 329.015096,4.21867619 328.682333,4.44791309 C328.34957,4.67714999 328.18319,4.9988163 328.18319,5.41292167 C328.18319,5.63476383 328.23865,5.82332684 328.349571,5.97861635 C328.460492,6.13390587 328.615779,6.27440379 328.815437,6.40011435 C329.015095,6.52582491 329.248026,6.64413895 329.514237,6.75506003 C329.780447,6.86598111 330.068838,6.98799247 330.379417,7.12109777 L332.242882,7.87535735 C333.13025,8.23030481 333.829043,8.71835024 334.33928,9.33950829 C334.849517,9.96066634 335.104631,10.78147 335.104631,11.801944 C335.104631,12.4083125 334.98262,12.9813962 334.738593,13.5212121 C334.494567,14.061028 334.139625,14.5342842 333.673756,14.9409949 C333.207888,15.3477055 332.634804,15.6730691 331.954488,15.9170955 C331.274172,16.1611219 330.505131,16.2831332 329.647341,16.2831332 C328.700815,16.2831332 327.758,16.1093595 326.818868,15.7618067 C325.879736,15.414254 325.040446,14.8929328 324.300972,14.1978273 L326.164437,11.9572327 Z M336.657519,10.5152659 C336.657519,9.62789722 336.805411,8.82558011 337.101201,8.10829045 C337.39699,7.3910008 337.785208,6.78464132 338.265866,6.28919383 C338.746524,5.79374633 339.297424,5.412923 339.918582,5.14671241 C340.53974,4.88050181 341.183073,4.74739851 341.848599,4.74739851 C342.632442,4.74739851 343.316445,4.88050181 343.900629,5.14671241 C344.484813,5.412923 344.972859,5.78265439 345.36478,6.25591767 C345.756701,6.72918094 346.048789,7.28747534 346.241052,7.93081761 C346.433315,8.57415988 346.529445,9.2729522 346.529445,10.0272156 C346.529445,10.3230051 346.514656,10.592909 346.485077,10.8369354 C346.455498,11.0809618 346.42592,11.2695248 346.396341,11.4026301 L339.807662,11.4026301 C339.955556,12.2456303 340.284617,12.8556871 340.794854,13.2328188 C341.305091,13.6099504 341.929937,13.7985134 342.669411,13.7985134 C343.453253,13.7985134 344.244479,13.5544907 345.04311,13.066438 L346.130132,15.0408233 C345.568131,15.4253497 344.943285,15.7285295 344.255575,15.9503716 C343.567864,16.1722138 342.891255,16.2831332 342.225729,16.2831332 C341.441887,16.2831332 340.709819,16.1537272 340.029503,15.8949114 C339.349187,15.6360955 338.757616,15.2589695 338.254774,14.763522 C337.751932,14.2680745 337.360017,13.6654124 337.079017,12.9555174 C336.798017,12.2456225 336.657519,11.4322135 336.657519,10.5152659 Z M343.756432,9.3838765 C343.756432,8.74792897 343.615934,8.23030503 343.334934,7.83098914 C343.053934,7.43167325 342.580678,7.2320183 341.915152,7.2320183 C341.39752,7.2320183 340.94275,7.40579205 340.550829,7.75334477 C340.158908,8.10089749 339.903793,8.64440263 339.785477,9.3838765 L343.756432,9.3838765 Z M348.148885,10.5152659 C348.148885,9.59831827 348.304172,8.7812119 348.614751,8.06392224 C348.92533,7.34663259 349.343127,6.74397042 349.868153,6.25591767 C350.39318,5.76786491 351.003236,5.39443621 351.698342,5.13562035 C352.393447,4.8768045 353.118121,4.74739851 353.872384,4.74739851 C354.5527,4.74739851 355.166454,4.86201524 355.713665,5.09125214 C356.260876,5.32048904 356.719343,5.6273661 357.089079,6.01189251 L355.602744,8.03064608 C355.085113,7.60175124 354.574883,7.38730703 354.072041,7.38730703 C353.273409,7.38730703 352.644866,7.66830289 352.186392,8.23030303 C351.727918,8.79230317 351.498685,9.55394983 351.498685,10.5152659 C351.498685,11.4765819 351.731616,12.2382286 352.197484,12.8002287 C352.663353,13.3622288 353.251226,13.6432247 353.961121,13.6432247 C354.360437,13.6432247 354.722773,13.5618838 355.048142,13.3991995 C355.37351,13.2365153 355.669295,13.0516496 355.935506,12.8445969 L357.244368,14.9077187 C356.711947,15.380982 356.120377,15.7285295 355.46964,15.9503716 C354.818903,16.1722138 354.190359,16.2831332 353.583991,16.2831332 C352.814938,16.2831332 352.101356,16.1537272 351.443225,15.8949114 C350.785093,15.6360955 350.212009,15.2626668 349.723957,14.7746141 C349.235904,14.2865613 348.851383,13.6838991 348.570383,12.9666095 C348.289383,12.2493198 348.148885,11.4322135 348.148885,10.5152659 Z M359.595883,7.56477987 L358.087364,7.56477987 L358.087364,5.14671241 L359.773356,5.01360778 L360.150486,2.08530589 L362.856947,2.08530589 L362.856947,5.01360778 L365.496855,5.01360778 L365.496855,7.56477987 L362.856947,7.56477987 L362.856947,11.9794168 C362.856947,12.6005749 362.986353,13.0479498 363.245169,13.3215552 C363.503985,13.5951605 363.847835,13.7319611 364.27673,13.7319611 C364.454203,13.7319611 364.635372,13.7097772 364.82024,13.6654088 C365.005109,13.6210404 365.171488,13.569278 365.319383,13.5101201 L365.829617,15.8838193 C365.533827,15.9725562 365.18628,16.0612917 364.786964,16.1500286 C364.387648,16.2387655 363.921787,16.2831332 363.389365,16.2831332 C362.709049,16.2831332 362.128571,16.1796084 361.647913,15.9725557 C361.167255,15.7655031 360.77534,15.4771126 360.472156,15.1073756 C360.168971,14.7376387 359.947132,14.2902637 359.806632,13.7652373 C359.666132,13.2402108 359.595883,12.6597325 359.595883,12.023785 L359.595883,7.56477987 Z M369.268153,3.3941681 C368.720943,3.3941681 368.26987,3.2351836 367.914923,2.91720983 C367.559975,2.59923607 367.382504,2.18883423 367.382504,1.685992 C367.382504,1.18314976 367.559975,0.776445235 367.914923,0.465866209 C368.26987,0.155287184 368.720943,0 369.268153,0 C369.830153,0 370.284923,0.155287184 370.632476,0.465866209 C370.980028,0.776445235 371.153802,1.18314976 371.153802,1.685992 C371.153802,2.18883423 370.980028,2.59923607 370.632476,2.91720983 C370.284923,3.2351836 369.830153,3.3941681 369.268153,3.3941681 Z M367.648714,5.01360778 L370.909777,5.01360778 L370.909777,16.016924 L367.648714,16.016924 L367.648714,5.01360778 Z M373.128188,10.5152659 C373.128188,9.59831827 373.27608,8.7812119 373.57187,8.06392224 C373.867659,7.34663259 374.263272,6.74397042 374.758719,6.25591767 C375.254167,5.76786491 375.82725,5.39443621 376.477987,5.13562035 C377.128724,4.8768045 377.801636,4.74739851 378.496741,4.74739851 C379.191846,4.74739851 379.86106,4.8768045 380.504403,5.13562035 C381.147745,5.39443621 381.717131,5.76786491 382.212579,6.25591767 C382.708026,6.74397042 383.103639,7.34663259 383.399428,8.06392224 C383.695218,8.7812119 383.84311,9.59831827 383.84311,10.5152659 C383.84311,11.4322135 383.695218,12.2493198 383.399428,12.9666095 C383.103639,13.6838991 382.708026,14.2865613 382.212579,14.7746141 C381.717131,15.2626668 381.147745,15.6360955 380.504403,15.8949114 C379.86106,16.1537272 379.191846,16.2831332 378.496741,16.2831332 C377.801636,16.2831332 377.128724,16.1537272 376.477987,15.8949114 C375.82725,15.6360955 375.254167,15.2626668 374.758719,14.7746141 C374.263272,14.2865613 373.867659,13.6838991 373.57187,12.9666095 C373.27608,12.2493198 373.128188,11.4322135 373.128188,10.5152659 Z M376.477987,10.5152659 C376.477987,11.4765819 376.644367,12.2382286 376.97713,12.8002287 C377.309893,13.3622288 377.816425,13.6432247 378.496741,13.6432247 C379.162267,13.6432247 379.665102,13.3622288 380.00526,12.8002287 C380.345418,12.2382286 380.515495,11.4765819 380.515495,10.5152659 C380.515495,9.55394983 380.345418,8.79230317 380.00526,8.23030303 C379.665102,7.66830289 379.162267,7.38730703 378.496741,7.38730703 C377.816425,7.38730703 377.309893,7.66830289 376.97713,8.23030303 C376.644367,8.79230317 376.477987,9.55394983 376.477987,10.5152659 Z M386.083705,5.01360778 L388.745798,5.01360778 L388.967639,6.4112064 L389.056375,6.4112064 C389.529638,5.96752208 390.047262,5.57930412 390.609262,5.24654088 C391.171263,4.91377764 391.829384,4.74739851 392.583648,4.74739851 C393.781595,4.74739851 394.650464,5.13931379 395.19028,5.92315609 C395.730096,6.70699839 396,7.79400868 396,9.18421955 L396,16.016924 L392.738937,16.016924 L392.738937,9.60571755 C392.738937,8.80708577 392.631714,8.25988332 392.417267,7.96409377 C392.20282,7.66830422 391.858969,7.52041166 391.385706,7.52041166 C390.971601,7.52041166 390.616659,7.61284451 390.320869,7.79771298 C390.02508,7.98258145 389.699716,8.24509073 389.344768,8.58524871 L389.344768,16.016924 L386.083705,16.016924 L386.083705,5.01360778 Z" id="Imageboxes-Section" fill="#79797B"></path>
            <path d="M62.69,130.17 C62.69,129.359996 62.8149987,128.637503 63.065,128.0025 C63.3150013,127.367497 63.6524979,126.830002 64.0775,126.39 C64.5025021,125.949998 64.9974972,125.615001 65.5625,125.385 C66.1275028,125.154999 66.7249969,125.04 67.355,125.04 C67.965003,125.04 68.5174975,125.167499 69.0125,125.4225 C69.5075025,125.677501 69.9199984,125.974998 70.25,126.315 L69.035,127.68 C68.7849987,127.449999 68.5325013,127.270001 68.2775,127.14 C68.0224987,127.009999 67.7250017,126.945 67.385,126.945 C67.0449983,126.945 66.7275015,127.017499 66.4325,127.1625 C66.1374985,127.307501 65.8800011,127.514999 65.66,127.785 C65.4399989,128.055001 65.2675006,128.384998 65.1425,128.775 C65.0174994,129.165002 64.955,129.604998 64.955,130.095 C64.955,131.105005 65.1699978,131.887497 65.6,132.4425 C66.0300021,132.997503 66.6049964,133.275 67.325,133.275 C67.725002,133.275 68.0749985,133.195001 68.375,133.035 C68.6750015,132.874999 68.9449988,132.665001 69.185,132.405 L70.4,133.74 C69.9899979,134.220002 69.5225026,134.579999 68.9975,134.82 C68.4724974,135.060001 67.9050031,135.18 67.295,135.18 C66.6649968,135.18 66.0700028,135.072501 65.51,134.8575 C64.9499972,134.642499 64.4600021,134.325002 64.04,133.905 C63.6199979,133.484998 63.2900012,132.962503 63.05,132.3375 C62.8099988,131.712497 62.69,130.990004 62.69,130.17 Z M71.48,127.56 L73.685,127.56 L73.685,131.895 C73.685,132.435003 73.7599992,132.804999 73.91,133.005 C74.0600007,133.205001 74.2949984,133.305 74.615,133.305 C74.8950014,133.305 75.1299991,133.240001 75.32,133.11 C75.5100009,132.979999 75.7149989,132.770001 75.935,132.48 L75.935,127.56 L78.14,127.56 L78.14,135 L76.34,135 L76.175,133.965 L76.13,133.965 C75.8099984,134.345002 75.4675018,134.642499 75.1025,134.8575 C74.7374982,135.072501 74.3000026,135.18 73.79,135.18 C72.9799959,135.18 72.3925018,134.915003 72.0275,134.385 C71.6624982,133.854997 71.48,133.120005 71.48,132.18 L71.48,127.56 Z M80.405,132.765 C80.7450017,133.025001 81.0699984,133.219999 81.38,133.35 C81.6900016,133.480001 82.0049984,133.545 82.325,133.545 C82.6550017,133.545 82.8949992,133.490001 83.045,133.38 C83.1950007,133.269999 83.27,133.115001 83.27,132.915 C83.27,132.794999 83.2275004,132.6875 83.1425,132.5925 C83.0574996,132.4975 82.9425007,132.41 82.7975,132.33 C82.6524993,132.25 82.4900009,132.1775 82.31,132.1125 C82.1299991,132.0475 81.945001,131.975 81.755,131.895 C81.5249988,131.805 81.2950011,131.700001 81.065,131.58 C80.8349989,131.459999 80.6250009,131.312501 80.435,131.1375 C80.2449991,130.962499 80.0900006,130.757501 79.97,130.5225 C79.8499994,130.287499 79.79,130.015002 79.79,129.705 C79.79,129.364998 79.8574993,129.050001 79.9925,128.76 C80.1275007,128.469999 80.3199987,128.225001 80.57,128.025 C80.8200013,127.824999 81.1199982,127.667501 81.47,127.5525 C81.8200017,127.437499 82.2099979,127.38 82.64,127.38 C83.2100029,127.38 83.7099979,127.477499 84.14,127.6725 C84.5700022,127.867501 84.9449984,128.084999 85.265,128.325 L84.275,129.645 C84.0049986,129.444999 83.7400013,129.290001 83.48,129.18 C83.2199987,129.069999 82.9600013,129.015 82.7,129.015 C82.1399972,129.015 81.86,129.209998 81.86,129.6 C81.86,129.720001 81.8999996,129.8225 81.98,129.9075 C82.0600004,129.9925 82.1674993,130.07 82.3025,130.14 C82.4375007,130.21 82.5924991,130.2775 82.7675,130.3425 C82.9425009,130.4075 83.1249991,130.475 83.315,130.545 C83.5550012,130.635 83.7924988,130.737499 84.0275,130.8525 C84.2625012,130.967501 84.477499,131.109999 84.6725,131.28 C84.867501,131.450001 85.0249994,131.657499 85.145,131.9025 C85.2650006,132.147501 85.325,132.439998 85.325,132.78 C85.325,133.120002 85.2600007,133.434999 85.13,133.725 C84.9999994,134.015001 84.8050013,134.267499 84.545,134.4825 C84.2849987,134.697501 83.9650019,134.867499 83.585,134.9925 C83.2049981,135.117501 82.7650025,135.18 82.265,135.18 C81.7749975,135.18 81.2725026,135.085001 80.7575,134.895 C80.2424974,134.704999 79.7950019,134.455002 79.415,134.145 L80.405,132.765 Z M87.02,129.285 L86,129.285 L86,127.65 L87.14,127.56 L87.395,125.58 L89.225,125.58 L89.225,127.56 L91.01,127.56 L91.01,129.285 L89.225,129.285 L89.225,132.27 C89.225,132.690002 89.3124991,132.992499 89.4875,133.1775 C89.6625009,133.362501 89.8949985,133.455 90.185,133.455 C90.3050006,133.455 90.4274994,133.44 90.5525,133.41 C90.6775006,133.38 90.7899995,133.345 90.89,133.305 L91.235,134.91 C91.034999,134.97 90.8000014,135.03 90.53,135.09 C90.2599986,135.15 89.9450018,135.18 89.585,135.18 C89.1249977,135.18 88.7325016,135.110001 88.4075,134.97 C88.0824984,134.829999 87.817501,134.635001 87.6125,134.385 C87.407499,134.134999 87.2575005,133.832502 87.1625,133.4775 C87.0674995,133.122498 87.02,132.730002 87.02,132.3 L87.02,129.285 Z M91.88,131.28 C91.88,130.659997 91.979999,130.107502 92.18,129.6225 C92.380001,129.137498 92.6474983,128.730002 92.9825,128.4 C93.3175017,128.069998 93.7049978,127.817501 94.145,127.6425 C94.5850022,127.467499 95.0399977,127.38 95.51,127.38 C95.9800023,127.38 96.4324978,127.467499 96.8675,127.6425 C97.3025022,127.817501 97.6874983,128.069998 98.0225,128.4 C98.3575017,128.730002 98.624999,129.137498 98.825,129.6225 C99.025001,130.107502 99.125,130.659997 99.125,131.28 C99.125,131.900003 99.025001,132.452498 98.825,132.9375 C98.624999,133.422502 98.3575017,133.829998 98.0225,134.16 C97.6874983,134.490002 97.3025022,134.742499 96.8675,134.9175 C96.4324978,135.092501 95.9800023,135.18 95.51,135.18 C95.0399977,135.18 94.5850022,135.092501 94.145,134.9175 C93.7049978,134.742499 93.3175017,134.490002 92.9825,134.16 C92.6474983,133.829998 92.380001,133.422502 92.18,132.9375 C91.979999,132.452498 91.88,131.900003 91.88,131.28 Z M94.145,131.28 C94.145,131.930003 94.2574989,132.444998 94.4825,132.825 C94.7075011,133.205002 95.0499977,133.395 95.51,133.395 C95.9600023,133.395 96.2999988,133.205002 96.53,132.825 C96.7600011,132.444998 96.875,131.930003 96.875,131.28 C96.875,130.629997 96.7600011,130.115002 96.53,129.735 C96.2999988,129.354998 95.9600023,129.165 95.51,129.165 C95.0499977,129.165 94.7075011,129.354998 94.4825,129.735 C94.2574989,130.115002 94.145,130.629997 94.145,131.28 Z M100.64,127.56 L102.44,127.56 L102.59,128.52 L102.65,128.52 C102.960002,128.209998 103.289998,127.942501 103.64,127.7175 C103.990002,127.492499 104.409998,127.38 104.9,127.38 C105.430003,127.38 105.857498,127.487499 106.1825,127.7025 C106.507502,127.917501 106.764999,128.224998 106.955,128.625 C107.285002,128.284998 107.632498,127.992501 107.9975,127.7475 C108.362502,127.502499 108.794998,127.38 109.295,127.38 C110.095004,127.38 110.682498,127.647497 111.0575,128.1825 C111.432502,128.717503 111.62,129.449995 111.62,130.38 L111.62,135 L109.415,135 L109.415,130.665 C109.415,130.124997 109.342501,129.755001 109.1975,129.555 C109.052499,129.354999 108.820002,129.255 108.5,129.255 C108.129998,129.255 107.705002,129.494998 107.225,129.975 L107.225,135 L105.02,135 L105.02,130.665 C105.02,130.124997 104.947501,129.755001 104.8025,129.555 C104.657499,129.354999 104.425002,129.255 104.105,129.255 C103.724998,129.255 103.305002,129.494998 102.845,129.975 L102.845,135 L100.64,135 L100.64,127.56 Z M114.59,126.465 C114.219998,126.465 113.915001,126.357501 113.675,126.1425 C113.434999,125.927499 113.315,125.650002 113.315,125.31 C113.315,124.969998 113.434999,124.695001 113.675,124.485 C113.915001,124.274999 114.219998,124.17 114.59,124.17 C114.970002,124.17 115.277499,124.274999 115.5125,124.485 C115.747501,124.695001 115.865,124.969998 115.865,125.31 C115.865,125.650002 115.747501,125.927499 115.5125,126.1425 C115.277499,126.357501 114.970002,126.465 114.59,126.465 Z M113.495,127.56 L115.7,127.56 L115.7,135 L113.495,135 L113.495,127.56 Z M117.23,133.815 L120.35,129.285 L117.575,129.285 L117.575,127.56 L123.095,127.56 L123.095,128.73 L119.975,133.275 L123.2,133.275 L123.2,135 L117.23,135 L117.23,133.815 Z M123.95,131.28 C123.95,130.679997 124.049999,130.137502 124.25,129.6525 C124.450001,129.167498 124.712498,128.757502 125.0375,128.4225 C125.362502,128.087498 125.734998,127.830001 126.155,127.65 C126.575002,127.469999 127.009998,127.38 127.46,127.38 C127.990003,127.38 128.452498,127.469999 128.8475,127.65 C129.242502,127.830001 129.572499,128.079998 129.8375,128.4 C130.102501,128.720002 130.299999,129.097498 130.43,129.5325 C130.560001,129.967502 130.625,130.439997 130.625,130.95 C130.625,131.150001 130.615,131.332499 130.595,131.4975 C130.575,131.662501 130.555,131.79 130.535,131.88 L126.08,131.88 C126.180001,132.450003 126.402498,132.862499 126.7475,133.1175 C127.092502,133.372501 127.514997,133.5 128.015,133.5 C128.545003,133.5 129.079997,133.335002 129.62,133.005 L130.355,134.34 C129.974998,134.600001 129.552502,134.804999 129.0875,134.955 C128.622498,135.105001 128.165002,135.18 127.715,135.18 C127.184997,135.18 126.690002,135.092501 126.23,134.9175 C125.769998,134.742499 125.370002,134.487502 125.03,134.1525 C124.689998,133.817498 124.425001,133.410002 124.235,132.93 C124.044999,132.449998 123.95,131.900003 123.95,131.28 Z M128.75,130.515 C128.75,130.084998 128.655001,129.735001 128.465,129.465 C128.274999,129.194999 127.955002,129.06 127.505,129.06 C127.154998,129.06 126.847501,129.177499 126.5825,129.4125 C126.317499,129.647501 126.145,130.014997 126.065,130.515 L128.75,130.515 Z" id="Customize" fill="#FFFFFF"></path>
            <rect id="Rectangle-3" fill="#5F5F5F" x="406" y="65" width="194" height="128"></rect>
            <path d="M465.155,125.22 L467.36,125.22 L467.36,135 L465.155,135 L465.155,125.22 Z M469.49,127.56 L471.29,127.56 L471.44,128.505 L471.5,128.505 C471.820002,128.204998 472.169998,127.942501 472.55,127.7175 C472.930002,127.492499 473.374997,127.38 473.885,127.38 C474.695004,127.38 475.282498,127.644997 475.6475,128.175 C476.012502,128.705003 476.195,129.439995 476.195,130.38 L476.195,135 L473.99,135 L473.99,130.665 C473.99,130.124997 473.917501,129.755001 473.7725,129.555 C473.627499,129.354999 473.395002,129.255 473.075,129.255 C472.794999,129.255 472.555001,129.317499 472.355,129.4425 C472.154999,129.567501 471.935001,129.744999 471.695,129.975 L471.695,135 L469.49,135 L469.49,127.56 Z M478.4,132.765 C478.740002,133.025001 479.064998,133.219999 479.375,133.35 C479.685002,133.480001 479.999998,133.545 480.32,133.545 C480.650002,133.545 480.889999,133.490001 481.04,133.38 C481.190001,133.269999 481.265,133.115001 481.265,132.915 C481.265,132.794999 481.2225,132.6875 481.1375,132.5925 C481.0525,132.4975 480.937501,132.41 480.7925,132.33 C480.647499,132.25 480.485001,132.1775 480.305,132.1125 C480.124999,132.0475 479.940001,131.975 479.75,131.895 C479.519999,131.805 479.290001,131.700001 479.06,131.58 C478.829999,131.459999 478.620001,131.312501 478.43,131.1375 C478.239999,130.962499 478.085001,130.757501 477.965,130.5225 C477.844999,130.287499 477.785,130.015002 477.785,129.705 C477.785,129.364998 477.852499,129.050001 477.9875,128.76 C478.122501,128.469999 478.314999,128.225001 478.565,128.025 C478.815001,127.824999 479.114998,127.667501 479.465,127.5525 C479.815002,127.437499 480.204998,127.38 480.635,127.38 C481.205003,127.38 481.704998,127.477499 482.135,127.6725 C482.565002,127.867501 482.939998,128.084999 483.26,128.325 L482.27,129.645 C481.999999,129.444999 481.735001,129.290001 481.475,129.18 C481.214999,129.069999 480.955001,129.015 480.695,129.015 C480.134997,129.015 479.855,129.209998 479.855,129.6 C479.855,129.720001 479.895,129.8225 479.975,129.9075 C480.055,129.9925 480.162499,130.07 480.2975,130.14 C480.432501,130.21 480.587499,130.2775 480.7625,130.3425 C480.937501,130.4075 481.119999,130.475 481.31,130.545 C481.550001,130.635 481.787499,130.737499 482.0225,130.8525 C482.257501,130.967501 482.472499,131.109999 482.6675,131.28 C482.862501,131.450001 483.019999,131.657499 483.14,131.9025 C483.260001,132.147501 483.32,132.439998 483.32,132.78 C483.32,133.120002 483.255001,133.434999 483.125,133.725 C482.994999,134.015001 482.800001,134.267499 482.54,134.4825 C482.279999,134.697501 481.960002,134.867499 481.58,134.9925 C481.199998,135.117501 480.760002,135.18 480.26,135.18 C479.769998,135.18 479.267503,135.085001 478.7525,134.895 C478.237497,134.704999 477.790002,134.455002 477.41,134.145 L478.4,132.765 Z M485.015,129.285 L483.995,129.285 L483.995,127.65 L485.135,127.56 L485.39,125.58 L487.22,125.58 L487.22,127.56 L489.005,127.56 L489.005,129.285 L487.22,129.285 L487.22,132.27 C487.22,132.690002 487.307499,132.992499 487.4825,133.1775 C487.657501,133.362501 487.889999,133.455 488.18,133.455 C488.300001,133.455 488.422499,133.44 488.5475,133.41 C488.672501,133.38 488.784999,133.345 488.885,133.305 L489.23,134.91 C489.029999,134.97 488.795001,135.03 488.525,135.09 C488.254999,135.15 487.940002,135.18 487.58,135.18 C487.119998,135.18 486.727502,135.110001 486.4025,134.97 C486.077498,134.829999 485.812501,134.635001 485.6075,134.385 C485.402499,134.134999 485.2525,133.832502 485.1575,133.4775 C485.0625,133.122498 485.015,132.730002 485.015,132.3 L485.015,129.285 Z M490.01,132.93 C490.01,132.149996 490.339997,131.540002 491,131.1 C491.660003,130.659998 492.724993,130.365001 494.195,130.215 C494.175,129.884998 494.075001,129.622501 493.895,129.4275 C493.714999,129.232499 493.425002,129.135 493.025,129.135 C492.704998,129.135 492.385002,129.194999 492.065,129.315 C491.744998,129.435001 491.405002,129.599999 491.045,129.81 L490.265,128.355 C490.745002,128.064999 491.247497,127.830001 491.7725,127.65 C492.297503,127.469999 492.854997,127.38 493.445,127.38 C494.405005,127.38 495.137497,127.652497 495.6425,128.1975 C496.147503,128.742503 496.4,129.589994 496.4,130.74 L496.4,135 L494.6,135 L494.435,134.235 L494.39,134.235 C494.069998,134.515001 493.732502,134.742499 493.3775,134.9175 C493.022498,135.092501 492.635002,135.18 492.215,135.18 C491.874998,135.18 491.570001,135.122501 491.3,135.0075 C491.029999,134.892499 490.800001,134.732501 490.61,134.5275 C490.419999,134.322499 490.272501,134.085001 490.1675,133.815 C490.062499,133.544999 490.01,133.250002 490.01,132.93 Z M492.11,132.765 C492.11,133.005001 492.187499,133.182499 492.3425,133.2975 C492.497501,133.412501 492.704999,133.47 492.965,133.47 C493.225001,133.47 493.444999,133.415001 493.625,133.305 C493.805001,133.194999 493.994999,133.040001 494.195,132.84 L494.195,131.535 C493.404996,131.645001 492.860001,131.804999 492.56,132.015 C492.259998,132.225001 492.11,132.474999 492.11,132.765 Z M498.29,124.485 L500.495,124.485 L500.495,132.78 C500.495,133.010001 500.5375,133.17 500.6225,133.26 C500.7075,133.35 500.795,133.395 500.885,133.395 L501.0125,133.395 C501.0475,133.395 501.095,133.385 501.155,133.365 L501.425,135 C501.304999,135.05 501.152501,135.0925 500.9675,135.1275 C500.782499,135.1625 500.565001,135.18 500.315,135.18 C499.934998,135.18 499.615001,135.120001 499.355,135 C499.094999,134.879999 498.887501,134.712501 498.7325,134.4975 C498.577499,134.282499 498.465,134.022502 498.395,133.7175 C498.325,133.412498 498.29,133.070002 498.29,132.69 L498.29,124.485 Z M502.58,124.485 L504.785,124.485 L504.785,132.78 C504.785,133.010001 504.8275,133.17 504.9125,133.26 C504.9975,133.35 505.085,133.395 505.175,133.395 L505.3025,133.395 C505.3375,133.395 505.385,133.385 505.445,133.365 L505.715,135 C505.594999,135.05 505.442501,135.0925 505.2575,135.1275 C505.072499,135.1625 504.855001,135.18 504.605,135.18 C504.224998,135.18 503.905001,135.120001 503.645,135 C503.384999,134.879999 503.177501,134.712501 503.0225,134.4975 C502.867499,134.282499 502.755,134.022502 502.685,133.7175 C502.615,133.412498 502.58,133.070002 502.58,132.69 L502.58,124.485 Z M506.6,132.93 C506.6,132.149996 506.929997,131.540002 507.59,131.1 C508.250003,130.659998 509.314993,130.365001 510.785,130.215 C510.765,129.884998 510.665001,129.622501 510.485,129.4275 C510.304999,129.232499 510.015002,129.135 509.615,129.135 C509.294998,129.135 508.975002,129.194999 508.655,129.315 C508.334998,129.435001 507.995002,129.599999 507.635,129.81 L506.855,128.355 C507.335002,128.064999 507.837497,127.830001 508.3625,127.65 C508.887503,127.469999 509.444997,127.38 510.035,127.38 C510.995005,127.38 511.727497,127.652497 512.2325,128.1975 C512.737503,128.742503 512.99,129.589994 512.99,130.74 L512.99,135 L511.19,135 L511.025,134.235 L510.98,134.235 C510.659998,134.515001 510.322502,134.742499 509.9675,134.9175 C509.612498,135.092501 509.225002,135.18 508.805,135.18 C508.464998,135.18 508.160001,135.122501 507.89,135.0075 C507.619999,134.892499 507.390001,134.732501 507.2,134.5275 C507.009999,134.322499 506.862501,134.085001 506.7575,133.815 C506.652499,133.544999 506.6,133.250002 506.6,132.93 Z M508.7,132.765 C508.7,133.005001 508.777499,133.182499 508.9325,133.2975 C509.087501,133.412501 509.294999,133.47 509.555,133.47 C509.815001,133.47 510.034999,133.415001 510.215,133.305 C510.395001,133.194999 510.584999,133.040001 510.785,132.84 L510.785,131.535 C509.994996,131.645001 509.450001,131.804999 509.15,132.015 C508.849998,132.225001 508.7,132.474999 508.7,132.765 Z M515.18,129.285 L514.16,129.285 L514.16,127.65 L515.3,127.56 L515.555,125.58 L517.385,125.58 L517.385,127.56 L519.17,127.56 L519.17,129.285 L517.385,129.285 L517.385,132.27 C517.385,132.690002 517.472499,132.992499 517.6475,133.1775 C517.822501,133.362501 518.054999,133.455 518.345,133.455 C518.465001,133.455 518.587499,133.44 518.7125,133.41 C518.837501,133.38 518.949999,133.345 519.05,133.305 L519.395,134.91 C519.194999,134.97 518.960001,135.03 518.69,135.09 C518.419999,135.15 518.105002,135.18 517.745,135.18 C517.284998,135.18 516.892502,135.110001 516.5675,134.97 C516.242498,134.829999 515.977501,134.635001 515.7725,134.385 C515.567499,134.134999 515.4175,133.832502 515.3225,133.4775 C515.2275,133.122498 515.18,132.730002 515.18,132.3 L515.18,129.285 Z M521.72,126.465 C521.349998,126.465 521.045001,126.357501 520.805,126.1425 C520.564999,125.927499 520.445,125.650002 520.445,125.31 C520.445,124.969998 520.564999,124.695001 520.805,124.485 C521.045001,124.274999 521.349998,124.17 521.72,124.17 C522.100002,124.17 522.407499,124.274999 522.6425,124.485 C522.877501,124.695001 522.995,124.969998 522.995,125.31 C522.995,125.650002 522.877501,125.927499 522.6425,126.1425 C522.407499,126.357501 522.100002,126.465 521.72,126.465 Z M520.625,127.56 L522.83,127.56 L522.83,135 L520.625,135 L520.625,127.56 Z M524.33,131.28 C524.33,130.659997 524.429999,130.107502 524.63,129.6225 C524.830001,129.137498 525.097498,128.730002 525.4325,128.4 C525.767502,128.069998 526.154998,127.817501 526.595,127.6425 C527.035002,127.467499 527.489998,127.38 527.96,127.38 C528.430002,127.38 528.882498,127.467499 529.3175,127.6425 C529.752502,127.817501 530.137498,128.069998 530.4725,128.4 C530.807502,128.730002 531.074999,129.137498 531.275,129.6225 C531.475001,130.107502 531.575,130.659997 531.575,131.28 C531.575,131.900003 531.475001,132.452498 531.275,132.9375 C531.074999,133.422502 530.807502,133.829998 530.4725,134.16 C530.137498,134.490002 529.752502,134.742499 529.3175,134.9175 C528.882498,135.092501 528.430002,135.18 527.96,135.18 C527.489998,135.18 527.035002,135.092501 526.595,134.9175 C526.154998,134.742499 525.767502,134.490002 525.4325,134.16 C525.097498,133.829998 524.830001,133.422502 524.63,132.9375 C524.429999,132.452498 524.33,131.900003 524.33,131.28 Z M526.595,131.28 C526.595,131.930003 526.707499,132.444998 526.9325,132.825 C527.157501,133.205002 527.499998,133.395 527.96,133.395 C528.410002,133.395 528.749999,133.205002 528.98,132.825 C529.210001,132.444998 529.325,131.930003 529.325,131.28 C529.325,130.629997 529.210001,130.115002 528.98,129.735 C528.749999,129.354998 528.410002,129.165 527.96,129.165 C527.499998,129.165 527.157501,129.354998 526.9325,129.735 C526.707499,130.115002 526.595,130.629997 526.595,131.28 Z M533.09,127.56 L534.89,127.56 L535.04,128.505 L535.1,128.505 C535.420002,128.204998 535.769998,127.942501 536.15,127.7175 C536.530002,127.492499 536.974997,127.38 537.485,127.38 C538.295004,127.38 538.882498,127.644997 539.2475,128.175 C539.612502,128.705003 539.795,129.439995 539.795,130.38 L539.795,135 L537.59,135 L537.59,130.665 C537.59,130.124997 537.517501,129.755001 537.3725,129.555 C537.227499,129.354999 536.995002,129.255 536.675,129.255 C536.394999,129.255 536.155001,129.317499 535.955,129.4425 C535.754999,129.567501 535.535001,129.744999 535.295,129.975 L535.295,135 L533.09,135 L533.09,127.56 Z" id="Installation" fill="#FFFFFF"></path>
            <rect id="Rectangle-3" fill="#5F5F5F" x="203" y="65" width="194" height="128"></rect>
            <path d="M273.785,132.255 C274.135002,132.555001 274.522498,132.799999 274.9475,132.99 C275.372502,133.180001 275.789998,133.275 276.2,133.275 C276.660002,133.275 277.002499,133.190001 277.2275,133.02 C277.452501,132.849999 277.565,132.620001 277.565,132.33 C277.565,132.179999 277.5325,132.050001 277.4675,131.94 C277.4025,131.829999 277.307501,131.7325 277.1825,131.6475 C277.057499,131.5625 276.907501,131.4825 276.7325,131.4075 L276.155,131.16 L274.88,130.62 C274.629999,130.519999 274.387501,130.390001 274.1525,130.23 C273.917499,130.069999 273.707501,129.882501 273.5225,129.6675 C273.337499,129.452499 273.190001,129.202501 273.08,128.9175 C272.969999,128.632499 272.915,128.310002 272.915,127.95 C272.915,127.549998 272.999999,127.172502 273.17,126.8175 C273.340001,126.462498 273.579998,126.152501 273.89,125.8875 C274.200002,125.622499 274.567498,125.415001 274.9925,125.265 C275.417502,125.114999 275.884997,125.04 276.395,125.04 C276.965003,125.04 277.527497,125.149999 278.0825,125.37 C278.637503,125.590001 279.124998,125.909998 279.545,126.33 L278.42,127.725 C278.099998,127.474999 277.780002,127.282501 277.46,127.1475 C277.139998,127.012499 276.785002,126.945 276.395,126.945 C276.014998,126.945 275.712501,127.022499 275.4875,127.1775 C275.262499,127.332501 275.15,127.549999 275.15,127.83 C275.15,127.980001 275.1875,128.107499 275.2625,128.2125 C275.3375,128.317501 275.442499,128.4125 275.5775,128.4975 C275.712501,128.5825 275.869999,128.6625 276.05,128.7375 C276.230001,128.8125 276.424999,128.895 276.635,128.985 L277.895,129.495 C278.495003,129.735001 278.967498,130.064998 279.3125,130.485 C279.657502,130.905002 279.83,131.459997 279.83,132.15 C279.83,132.560002 279.747501,132.947498 279.5825,133.3125 C279.417499,133.677502 279.177502,133.997499 278.8625,134.2725 C278.547498,134.547501 278.160002,134.767499 277.7,134.9325 C277.239998,135.097501 276.720003,135.18 276.14,135.18 C275.499997,135.18 274.862503,135.062501 274.2275,134.8275 C273.592497,134.592499 273.025003,134.240002 272.525,133.77 L273.785,132.255 Z M281.24,127.56 L283.445,127.56 L283.445,131.895 C283.445,132.435003 283.519999,132.804999 283.67,133.005 C283.820001,133.205001 284.054998,133.305 284.375,133.305 C284.655001,133.305 284.889999,133.240001 285.08,133.11 C285.270001,132.979999 285.474999,132.770001 285.695,132.48 L285.695,127.56 L287.9,127.56 L287.9,135 L286.1,135 L285.935,133.965 L285.89,133.965 C285.569998,134.345002 285.227502,134.642499 284.8625,134.8575 C284.497498,135.072501 284.060003,135.18 283.55,135.18 C282.739996,135.18 282.152502,134.915003 281.7875,134.385 C281.422498,133.854997 281.24,133.120005 281.24,132.18 L281.24,127.56 Z M292.04,135.585 L292.04,137.76 L289.835,137.76 L289.835,127.56 L291.635,127.56 L291.785,128.295 L291.845,128.295 C292.135001,128.034999 292.462498,127.817501 292.8275,127.6425 C293.192502,127.467499 293.569998,127.38 293.96,127.38 C294.410002,127.38 294.814998,127.469999 295.175,127.65 C295.535002,127.830001 295.839999,128.084998 296.09,128.415 C296.340001,128.745002 296.532499,129.142498 296.6675,129.6075 C296.802501,130.072502 296.87,130.589997 296.87,131.16 C296.87,131.800003 296.782501,132.367498 296.6075,132.8625 C296.432499,133.357502 296.197501,133.777498 295.9025,134.1225 C295.607499,134.467502 295.272502,134.729999 294.8975,134.91 C294.522498,135.090001 294.135002,135.18 293.735,135.18 C293.414998,135.18 293.105002,135.112501 292.805,134.9775 C292.504998,134.842499 292.225001,134.650001 291.965,134.4 L292.04,135.585 Z M292.04,132.9 C292.240001,133.080001 292.439999,133.205 292.64,133.275 C292.840001,133.345 293.034999,133.38 293.225,133.38 C293.605002,133.38 293.929999,133.207502 294.2,132.8625 C294.470001,132.517498 294.605,131.960004 294.605,131.19 C294.605,129.849993 294.175004,129.18 293.315,129.18 C292.884998,129.18 292.460002,129.404998 292.04,129.855 L292.04,132.9 Z M300.635,135.585 L300.635,137.76 L298.43,137.76 L298.43,127.56 L300.23,127.56 L300.38,128.295 L300.44,128.295 C300.730001,128.034999 301.057498,127.817501 301.4225,127.6425 C301.787502,127.467499 302.164998,127.38 302.555,127.38 C303.005002,127.38 303.409998,127.469999 303.77,127.65 C304.130002,127.830001 304.434999,128.084998 304.685,128.415 C304.935001,128.745002 305.127499,129.142498 305.2625,129.6075 C305.397501,130.072502 305.465,130.589997 305.465,131.16 C305.465,131.800003 305.377501,132.367498 305.2025,132.8625 C305.027499,133.357502 304.792501,133.777498 304.4975,134.1225 C304.202499,134.467502 303.867502,134.729999 303.4925,134.91 C303.117498,135.090001 302.730002,135.18 302.33,135.18 C302.009998,135.18 301.700001,135.112501 301.4,134.9775 C301.099998,134.842499 300.820001,134.650001 300.56,134.4 L300.635,135.585 Z M300.635,132.9 C300.835001,133.080001 301.034999,133.205 301.235,133.275 C301.435001,133.345 301.629999,133.38 301.82,133.38 C302.200002,133.38 302.524999,133.207502 302.795,132.8625 C303.065001,132.517498 303.2,131.960004 303.2,131.19 C303.2,129.849993 302.770004,129.18 301.91,129.18 C301.479998,129.18 301.055002,129.404998 300.635,129.855 L300.635,132.9 Z M306.59,131.28 C306.59,130.659997 306.689999,130.107502 306.89,129.6225 C307.090001,129.137498 307.357498,128.730002 307.6925,128.4 C308.027502,128.069998 308.414998,127.817501 308.855,127.6425 C309.295002,127.467499 309.749998,127.38 310.22,127.38 C310.690002,127.38 311.142498,127.467499 311.5775,127.6425 C312.012502,127.817501 312.397498,128.069998 312.7325,128.4 C313.067502,128.730002 313.334999,129.137498 313.535,129.6225 C313.735001,130.107502 313.835,130.659997 313.835,131.28 C313.835,131.900003 313.735001,132.452498 313.535,132.9375 C313.334999,133.422502 313.067502,133.829998 312.7325,134.16 C312.397498,134.490002 312.012502,134.742499 311.5775,134.9175 C311.142498,135.092501 310.690002,135.18 310.22,135.18 C309.749998,135.18 309.295002,135.092501 308.855,134.9175 C308.414998,134.742499 308.027502,134.490002 307.6925,134.16 C307.357498,133.829998 307.090001,133.422502 306.89,132.9375 C306.689999,132.452498 306.59,131.900003 306.59,131.28 Z M308.855,131.28 C308.855,131.930003 308.967499,132.444998 309.1925,132.825 C309.417501,133.205002 309.759998,133.395 310.22,133.395 C310.670002,133.395 311.009999,133.205002 311.24,132.825 C311.470001,132.444998 311.585,131.930003 311.585,131.28 C311.585,130.629997 311.470001,130.115002 311.24,129.735 C311.009999,129.354998 310.670002,129.165 310.22,129.165 C309.759998,129.165 309.417501,129.354998 309.1925,129.735 C308.967499,130.115002 308.855,130.629997 308.855,131.28 Z M315.35,127.56 L317.15,127.56 L317.3,128.865 L317.36,128.865 C317.630001,128.354997 317.954998,127.980001 318.335,127.74 C318.715002,127.499999 319.094998,127.38 319.475,127.38 C319.685001,127.38 319.857499,127.3925 319.9925,127.4175 C320.127501,127.4425 320.249999,127.48 320.36,127.53 L320,129.435 C319.859999,129.395 319.730001,129.365 319.61,129.345 C319.489999,129.325 319.350001,129.315 319.19,129.315 C318.909999,129.315 318.617502,129.414999 318.3125,129.615 C318.007498,129.815001 317.755001,130.169997 317.555,130.68 L317.555,135 L315.35,135 L315.35,127.56 Z M321.62,129.285 L320.6,129.285 L320.6,127.65 L321.74,127.56 L321.995,125.58 L323.825,125.58 L323.825,127.56 L325.61,127.56 L325.61,129.285 L323.825,129.285 L323.825,132.27 C323.825,132.690002 323.912499,132.992499 324.0875,133.1775 C324.262501,133.362501 324.494999,133.455 324.785,133.455 C324.905001,133.455 325.027499,133.44 325.1525,133.41 C325.277501,133.38 325.389999,133.345 325.49,133.305 L325.835,134.91 C325.634999,134.97 325.400001,135.03 325.13,135.09 C324.859999,135.15 324.545002,135.18 324.185,135.18 C323.724998,135.18 323.332502,135.110001 323.0075,134.97 C322.682498,134.829999 322.417501,134.635001 322.2125,134.385 C322.007499,134.134999 321.8575,133.832502 321.7625,133.4775 C321.6675,133.122498 321.62,132.730002 321.62,132.3 L321.62,129.285 Z" id="Support" fill="#FFFFFF"></path>
            <rect id="Rectangle-3" fill="#5F5F5F" x="0" y="206" width="194" height="128"></rect>
            <path d="M54.69,271.17 C54.69,270.359996 54.8149987,269.637503 55.065,269.0025 C55.3150013,268.367497 55.6524979,267.830002 56.0775,267.39 C56.5025021,266.949998 56.9974972,266.615001 57.5625,266.385 C58.1275028,266.154999 58.7249969,266.04 59.355,266.04 C59.965003,266.04 60.5174975,266.167499 61.0125,266.4225 C61.5075025,266.677501 61.9199984,266.974998 62.25,267.315 L61.035,268.68 C60.7849987,268.449999 60.5325013,268.270001 60.2775,268.14 C60.0224987,268.009999 59.7250017,267.945 59.385,267.945 C59.0449983,267.945 58.7275015,268.017499 58.4325,268.1625 C58.1374985,268.307501 57.8800011,268.514999 57.66,268.785 C57.4399989,269.055001 57.2675006,269.384998 57.1425,269.775 C57.0174994,270.165002 56.955,270.604998 56.955,271.095 C56.955,272.105005 57.1699978,272.887497 57.6,273.4425 C58.0300021,273.997503 58.6049964,274.275 59.325,274.275 C59.725002,274.275 60.0749985,274.195001 60.375,274.035 C60.6750015,273.874999 60.9449988,273.665001 61.185,273.405 L62.4,274.74 C61.9899979,275.220002 61.5225026,275.579999 60.9975,275.82 C60.4724974,276.060001 59.905003,276.18 59.295,276.18 C58.6649968,276.18 58.0700028,276.072501 57.51,275.8575 C56.9499972,275.642499 56.4600021,275.325002 56.04,274.905 C55.6199979,274.484998 55.2900012,273.962503 55.05,273.3375 C54.8099988,272.712497 54.69,271.990004 54.69,271.17 Z M63.48,268.56 L65.685,268.56 L65.685,272.895 C65.685,273.435003 65.7599992,273.804999 65.91,274.005 C66.0600007,274.205001 66.2949984,274.305 66.615,274.305 C66.8950014,274.305 67.1299991,274.240001 67.32,274.11 C67.5100009,273.979999 67.7149989,273.770001 67.935,273.48 L67.935,268.56 L70.14,268.56 L70.14,276 L68.34,276 L68.175,274.965 L68.13,274.965 C67.8099984,275.345002 67.4675018,275.642499 67.1025,275.8575 C66.7374982,276.072501 66.3000026,276.18 65.79,276.18 C64.9799959,276.18 64.3925018,275.915003 64.0275,275.385 C63.6624982,274.854997 63.48,274.120005 63.48,273.18 L63.48,268.56 Z M72.405,273.765 C72.7450017,274.025001 73.0699984,274.219999 73.38,274.35 C73.6900016,274.480001 74.0049984,274.545 74.325,274.545 C74.6550017,274.545 74.8949992,274.490001 75.045,274.38 C75.1950007,274.269999 75.27,274.115001 75.27,273.915 C75.27,273.794999 75.2275004,273.6875 75.1425,273.5925 C75.0574996,273.4975 74.9425007,273.41 74.7975,273.33 C74.6524993,273.25 74.4900009,273.1775 74.31,273.1125 C74.1299991,273.0475 73.945001,272.975 73.755,272.895 C73.5249988,272.805 73.2950011,272.700001 73.065,272.58 C72.8349989,272.459999 72.6250009,272.312501 72.435,272.1375 C72.2449991,271.962499 72.0900006,271.757501 71.97,271.5225 C71.8499994,271.287499 71.79,271.015002 71.79,270.705 C71.79,270.364998 71.8574993,270.050001 71.9925,269.76 C72.1275007,269.469999 72.3199987,269.225001 72.57,269.025 C72.8200013,268.824999 73.1199982,268.667501 73.47,268.5525 C73.8200017,268.437499 74.2099979,268.38 74.64,268.38 C75.2100029,268.38 75.7099979,268.477499 76.14,268.6725 C76.5700022,268.867501 76.9449984,269.084999 77.265,269.325 L76.275,270.645 C76.0049986,270.444999 75.7400013,270.290001 75.48,270.18 C75.2199987,270.069999 74.9600013,270.015 74.7,270.015 C74.1399972,270.015 73.86,270.209998 73.86,270.6 C73.86,270.720001 73.8999996,270.8225 73.98,270.9075 C74.0600004,270.9925 74.1674993,271.07 74.3025,271.14 C74.4375007,271.21 74.5924991,271.2775 74.7675,271.3425 C74.9425009,271.4075 75.1249991,271.475 75.315,271.545 C75.5550012,271.635 75.7924988,271.737499 76.0275,271.8525 C76.2625012,271.967501 76.477499,272.109999 76.6725,272.28 C76.867501,272.450001 77.0249994,272.657499 77.145,272.9025 C77.2650006,273.147501 77.325,273.439998 77.325,273.78 C77.325,274.120002 77.2600007,274.434999 77.13,274.725 C76.9999994,275.015001 76.8050013,275.267499 76.545,275.4825 C76.2849987,275.697501 75.9650019,275.867499 75.585,275.9925 C75.2049981,276.117501 74.7650025,276.18 74.265,276.18 C73.7749975,276.18 73.2725026,276.085001 72.7575,275.895 C72.2424974,275.704999 71.7950019,275.455002 71.415,275.145 L72.405,273.765 Z M79.02,270.285 L78,270.285 L78,268.65 L79.14,268.56 L79.395,266.58 L81.225,266.58 L81.225,268.56 L83.01,268.56 L83.01,270.285 L81.225,270.285 L81.225,273.27 C81.225,273.690002 81.3124991,273.992499 81.4875,274.1775 C81.6625009,274.362501 81.8949985,274.455 82.185,274.455 C82.3050006,274.455 82.4274994,274.44 82.5525,274.41 C82.6775006,274.38 82.7899995,274.345 82.89,274.305 L83.235,275.91 C83.034999,275.97 82.8000014,276.03 82.53,276.09 C82.2599986,276.15 81.9450018,276.18 81.585,276.18 C81.1249977,276.18 80.7325016,276.110001 80.4075,275.97 C80.0824984,275.829999 79.817501,275.635001 79.6125,275.385 C79.407499,275.134999 79.2575005,274.832502 79.1625,274.4775 C79.0674995,274.122498 79.02,273.730002 79.02,273.3 L79.02,270.285 Z M83.88,272.28 C83.88,271.659997 83.979999,271.107502 84.18,270.6225 C84.380001,270.137498 84.6474983,269.730002 84.9825,269.4 C85.3175017,269.069998 85.7049978,268.817501 86.145,268.6425 C86.5850022,268.467499 87.0399977,268.38 87.51,268.38 C87.9800023,268.38 88.4324978,268.467499 88.8675,268.6425 C89.3025022,268.817501 89.6874983,269.069998 90.0225,269.4 C90.3575017,269.730002 90.624999,270.137498 90.825,270.6225 C91.025001,271.107502 91.125,271.659997 91.125,272.28 C91.125,272.900003 91.025001,273.452498 90.825,273.9375 C90.624999,274.422502 90.3575017,274.829998 90.0225,275.16 C89.6874983,275.490002 89.3025022,275.742499 88.8675,275.9175 C88.4324978,276.092501 87.9800023,276.18 87.51,276.18 C87.0399977,276.18 86.5850022,276.092501 86.145,275.9175 C85.7049978,275.742499 85.3175017,275.490002 84.9825,275.16 C84.6474983,274.829998 84.380001,274.422502 84.18,273.9375 C83.979999,273.452498 83.88,272.900003 83.88,272.28 Z M86.145,272.28 C86.145,272.930003 86.2574989,273.444998 86.4825,273.825 C86.7075011,274.205002 87.0499977,274.395 87.51,274.395 C87.9600023,274.395 88.2999988,274.205002 88.53,273.825 C88.7600011,273.444998 88.875,272.930003 88.875,272.28 C88.875,271.629997 88.7600011,271.115002 88.53,270.735 C88.2999988,270.354998 87.9600023,270.165 87.51,270.165 C87.0499977,270.165 86.7075011,270.354998 86.4825,270.735 C86.2574989,271.115002 86.145,271.629997 86.145,272.28 Z M92.64,268.56 L94.44,268.56 L94.59,269.52 L94.65,269.52 C94.9600016,269.209998 95.2899983,268.942501 95.64,268.7175 C95.9900018,268.492499 96.4099975,268.38 96.9,268.38 C97.4300027,268.38 97.8574984,268.487499 98.1825,268.7025 C98.5075016,268.917501 98.7649991,269.224998 98.955,269.625 C99.2850017,269.284998 99.6324982,268.992501 99.9975,268.7475 C100.362502,268.502499 100.794998,268.38 101.295,268.38 C102.095004,268.38 102.682498,268.647497 103.0575,269.1825 C103.432502,269.717503 103.62,270.449995 103.62,271.38 L103.62,276 L101.415,276 L101.415,271.665 C101.415,271.124997 101.342501,270.755001 101.1975,270.555 C101.052499,270.354999 100.820002,270.255 100.5,270.255 C100.129998,270.255 99.7050024,270.494998 99.225,270.975 L99.225,276 L97.02,276 L97.02,271.665 C97.02,271.124997 96.9475007,270.755001 96.8025,270.555 C96.6574993,270.354999 96.4250016,270.255 96.105,270.255 C95.7249981,270.255 95.3050023,270.494998 94.845,270.975 L94.845,276 L92.64,276 L92.64,268.56 Z M109.38,273.3 C109.560001,273.630002 109.769999,273.874999 110.01,274.035 C110.250001,274.195001 110.494999,274.275 110.745,274.275 C111.145002,274.275 111.447499,274.152501 111.6525,273.9075 C111.857501,273.662499 111.96,273.215003 111.96,272.565 L111.96,266.22 L114.165,266.22 L114.165,272.745 C114.165,273.215002 114.102501,273.659998 113.9775,274.08 C113.852499,274.500002 113.662501,274.864998 113.4075,275.175 C113.152499,275.485002 112.827502,275.729999 112.4325,275.91 C112.037498,276.090001 111.570003,276.18 111.03,276.18 C110.279996,276.18 109.652503,276.035001 109.1475,275.745 C108.642497,275.454999 108.220002,275.010003 107.88,274.41 L109.38,273.3 Z M115.815,272.28 C115.815,271.659997 115.914999,271.107502 116.115,270.6225 C116.315001,270.137498 116.582498,269.730002 116.9175,269.4 C117.252502,269.069998 117.639998,268.817501 118.08,268.6425 C118.520002,268.467499 118.974998,268.38 119.445,268.38 C119.915002,268.38 120.367498,268.467499 120.8025,268.6425 C121.237502,268.817501 121.622498,269.069998 121.9575,269.4 C122.292502,269.730002 122.559999,270.137498 122.76,270.6225 C122.960001,271.107502 123.06,271.659997 123.06,272.28 C123.06,272.900003 122.960001,273.452498 122.76,273.9375 C122.559999,274.422502 122.292502,274.829998 121.9575,275.16 C121.622498,275.490002 121.237502,275.742499 120.8025,275.9175 C120.367498,276.092501 119.915002,276.18 119.445,276.18 C118.974998,276.18 118.520002,276.092501 118.08,275.9175 C117.639998,275.742499 117.252502,275.490002 116.9175,275.16 C116.582498,274.829998 116.315001,274.422502 116.115,273.9375 C115.914999,273.452498 115.815,272.900003 115.815,272.28 Z M118.08,272.28 C118.08,272.930003 118.192499,273.444998 118.4175,273.825 C118.642501,274.205002 118.984998,274.395 119.445,274.395 C119.895002,274.395 120.234999,274.205002 120.465,273.825 C120.695001,273.444998 120.81,272.930003 120.81,272.28 C120.81,271.629997 120.695001,271.115002 120.465,270.735 C120.234999,270.354998 119.895002,270.165 119.445,270.165 C118.984998,270.165 118.642501,270.354998 118.4175,270.735 C118.192499,271.115002 118.08,271.629997 118.08,272.28 Z M124.575,265.485 L126.78,265.485 L126.78,268.065 L126.72,269.205 C127.010001,268.944999 127.322498,268.742501 127.6575,268.5975 C127.992502,268.452499 128.334998,268.38 128.685,268.38 C129.135002,268.38 129.539998,268.469999 129.9,268.65 C130.260002,268.830001 130.567499,269.082498 130.8225,269.4075 C131.077501,269.732502 131.272499,270.127498 131.4075,270.5925 C131.542501,271.057502 131.61,271.574997 131.61,272.145 C131.61,272.785003 131.522501,273.354998 131.3475,273.855 C131.172499,274.355002 130.937501,274.777498 130.6425,275.1225 C130.347499,275.467502 130.012502,275.729999 129.6375,275.91 C129.262498,276.090001 128.875002,276.18 128.475,276.18 C128.144998,276.18 127.812502,276.100001 127.4775,275.94 C127.142498,275.779999 126.830001,275.540002 126.54,275.22 L126.48,275.22 L126.3,276 L124.575,276 L124.575,265.485 Z M126.78,273.9 C126.980001,274.080001 127.179999,274.205 127.38,274.275 C127.580001,274.345 127.774999,274.38 127.965,274.38 C128.345002,274.38 128.669999,274.207502 128.94,273.8625 C129.210001,273.517498 129.345,272.960004 129.345,272.19 C129.345,270.849993 128.915004,270.18 128.055,270.18 C127.614998,270.18 127.190002,270.404998 126.78,270.855 L126.78,273.9 Z M133.425,273.765 C133.765002,274.025001 134.089998,274.219999 134.4,274.35 C134.710002,274.480001 135.024998,274.545 135.345,274.545 C135.675002,274.545 135.914999,274.490001 136.065,274.38 C136.215001,274.269999 136.29,274.115001 136.29,273.915 C136.29,273.794999 136.2475,273.6875 136.1625,273.5925 C136.0775,273.4975 135.962501,273.41 135.8175,273.33 C135.672499,273.25 135.510001,273.1775 135.33,273.1125 C135.149999,273.0475 134.965001,272.975 134.775,272.895 C134.544999,272.805 134.315001,272.700001 134.085,272.58 C133.854999,272.459999 133.645001,272.312501 133.455,272.1375 C133.264999,271.962499 133.110001,271.757501 132.99,271.5225 C132.869999,271.287499 132.81,271.015002 132.81,270.705 C132.81,270.364998 132.877499,270.050001 133.0125,269.76 C133.147501,269.469999 133.339999,269.225001 133.59,269.025 C133.840001,268.824999 134.139998,268.667501 134.49,268.5525 C134.840002,268.437499 135.229998,268.38 135.66,268.38 C136.230003,268.38 136.729998,268.477499 137.16,268.6725 C137.590002,268.867501 137.964998,269.084999 138.285,269.325 L137.295,270.645 C137.024999,270.444999 136.760001,270.290001 136.5,270.18 C136.239999,270.069999 135.980001,270.015 135.72,270.015 C135.159997,270.015 134.88,270.209998 134.88,270.6 C134.88,270.720001 134.92,270.8225 135,270.9075 C135.08,270.9925 135.187499,271.07 135.3225,271.14 C135.457501,271.21 135.612499,271.2775 135.7875,271.3425 C135.962501,271.4075 136.144999,271.475 136.335,271.545 C136.575001,271.635 136.812499,271.737499 137.0475,271.8525 C137.282501,271.967501 137.497499,272.109999 137.6925,272.28 C137.887501,272.450001 138.044999,272.657499 138.165,272.9025 C138.285001,273.147501 138.345,273.439998 138.345,273.78 C138.345,274.120002 138.280001,274.434999 138.15,274.725 C138.019999,275.015001 137.825001,275.267499 137.565,275.4825 C137.304999,275.697501 136.985002,275.867499 136.605,275.9925 C136.224998,276.117501 135.785003,276.18 135.285,276.18 C134.794998,276.18 134.292503,276.085001 133.7775,275.895 C133.262497,275.704999 132.815002,275.455002 132.435,275.145 L133.425,273.765 Z" id="Custom-Jobs" fill="#FFFFFF"></path>
            <rect id="Rectangle-3" fill="#5F5F5F" x="406" y="206" width="194" height="128"></rect>
            <path d="M478.155,266.22 L480.36,266.22 L480.36,269.985 L483.735,269.985 L483.735,266.22 L485.955,266.22 L485.955,276 L483.735,276 L483.735,271.92 L480.36,271.92 L480.36,276 L478.155,276 L478.155,266.22 Z M487.65,272.28 C487.65,271.659997 487.749999,271.107502 487.95,270.6225 C488.150001,270.137498 488.417498,269.730002 488.7525,269.4 C489.087502,269.069998 489.474998,268.817501 489.915,268.6425 C490.355002,268.467499 490.809998,268.38 491.28,268.38 C491.750002,268.38 492.202498,268.467499 492.6375,268.6425 C493.072502,268.817501 493.457498,269.069998 493.7925,269.4 C494.127502,269.730002 494.394999,270.137498 494.595,270.6225 C494.795001,271.107502 494.895,271.659997 494.895,272.28 C494.895,272.900003 494.795001,273.452498 494.595,273.9375 C494.394999,274.422502 494.127502,274.829998 493.7925,275.16 C493.457498,275.490002 493.072502,275.742499 492.6375,275.9175 C492.202498,276.092501 491.750002,276.18 491.28,276.18 C490.809998,276.18 490.355002,276.092501 489.915,275.9175 C489.474998,275.742499 489.087502,275.490002 488.7525,275.16 C488.417498,274.829998 488.150001,274.422502 487.95,273.9375 C487.749999,273.452498 487.65,272.900003 487.65,272.28 Z M489.915,272.28 C489.915,272.930003 490.027499,273.444998 490.2525,273.825 C490.477501,274.205002 490.819998,274.395 491.28,274.395 C491.730002,274.395 492.069999,274.205002 492.3,273.825 C492.530001,273.444998 492.645,272.930003 492.645,272.28 C492.645,271.629997 492.530001,271.115002 492.3,270.735 C492.069999,270.354998 491.730002,270.165 491.28,270.165 C490.819998,270.165 490.477501,270.354998 490.2525,270.735 C490.027499,271.115002 489.915,271.629997 489.915,272.28 Z M496.665,273.765 C497.005002,274.025001 497.329998,274.219999 497.64,274.35 C497.950002,274.480001 498.264998,274.545 498.585,274.545 C498.915002,274.545 499.154999,274.490001 499.305,274.38 C499.455001,274.269999 499.53,274.115001 499.53,273.915 C499.53,273.794999 499.4875,273.6875 499.4025,273.5925 C499.3175,273.4975 499.202501,273.41 499.0575,273.33 C498.912499,273.25 498.750001,273.1775 498.57,273.1125 C498.389999,273.0475 498.205001,272.975 498.015,272.895 C497.784999,272.805 497.555001,272.700001 497.325,272.58 C497.094999,272.459999 496.885001,272.312501 496.695,272.1375 C496.504999,271.962499 496.350001,271.757501 496.23,271.5225 C496.109999,271.287499 496.05,271.015002 496.05,270.705 C496.05,270.364998 496.117499,270.050001 496.2525,269.76 C496.387501,269.469999 496.579999,269.225001 496.83,269.025 C497.080001,268.824999 497.379998,268.667501 497.73,268.5525 C498.080002,268.437499 498.469998,268.38 498.9,268.38 C499.470003,268.38 499.969998,268.477499 500.4,268.6725 C500.830002,268.867501 501.204998,269.084999 501.525,269.325 L500.535,270.645 C500.264999,270.444999 500.000001,270.290001 499.74,270.18 C499.479999,270.069999 499.220001,270.015 498.96,270.015 C498.399997,270.015 498.12,270.209998 498.12,270.6 C498.12,270.720001 498.16,270.8225 498.24,270.9075 C498.32,270.9925 498.427499,271.07 498.5625,271.14 C498.697501,271.21 498.852499,271.2775 499.0275,271.3425 C499.202501,271.4075 499.384999,271.475 499.575,271.545 C499.815001,271.635 500.052499,271.737499 500.2875,271.8525 C500.522501,271.967501 500.737499,272.109999 500.9325,272.28 C501.127501,272.450001 501.284999,272.657499 501.405,272.9025 C501.525001,273.147501 501.585,273.439998 501.585,273.78 C501.585,274.120002 501.520001,274.434999 501.39,274.725 C501.259999,275.015001 501.065001,275.267499 500.805,275.4825 C500.544999,275.697501 500.225002,275.867499 499.845,275.9925 C499.464998,276.117501 499.025002,276.18 498.525,276.18 C498.034998,276.18 497.532503,276.085001 497.0175,275.895 C496.502497,275.704999 496.055002,275.455002 495.675,275.145 L496.665,273.765 Z M503.28,270.285 L502.26,270.285 L502.26,268.65 L503.4,268.56 L503.655,266.58 L505.485,266.58 L505.485,268.56 L507.27,268.56 L507.27,270.285 L505.485,270.285 L505.485,273.27 C505.485,273.690002 505.572499,273.992499 505.7475,274.1775 C505.922501,274.362501 506.154999,274.455 506.445,274.455 C506.565001,274.455 506.687499,274.44 506.8125,274.41 C506.937501,274.38 507.05,274.345 507.15,274.305 L507.495,275.91 C507.294999,275.97 507.060001,276.03 506.79,276.09 C506.519999,276.15 506.205002,276.18 505.845,276.18 C505.384998,276.18 504.992502,276.110001 504.6675,275.97 C504.342498,275.829999 504.077501,275.635001 503.8725,275.385 C503.667499,275.134999 503.5175,274.832502 503.4225,274.4775 C503.3275,274.122498 503.28,273.730002 503.28,273.3 L503.28,270.285 Z M509.82,267.465 C509.449998,267.465 509.145001,267.357501 508.905,267.1425 C508.664999,266.927499 508.545,266.650002 508.545,266.31 C508.545,265.969998 508.664999,265.695001 508.905,265.485 C509.145001,265.274999 509.449998,265.17 509.82,265.17 C510.200002,265.17 510.507499,265.274999 510.7425,265.485 C510.977501,265.695001 511.095,265.969998 511.095,266.31 C511.095,266.650002 510.977501,266.927499 510.7425,267.1425 C510.507499,267.357501 510.200002,267.465 509.82,267.465 Z M508.725,268.56 L510.93,268.56 L510.93,276 L508.725,276 L508.725,268.56 Z M512.865,268.56 L514.665,268.56 L514.815,269.505 L514.875,269.505 C515.195002,269.204998 515.544998,268.942501 515.925,268.7175 C516.305002,268.492499 516.749997,268.38 517.26,268.38 C518.070004,268.38 518.657498,268.644997 519.0225,269.175 C519.387502,269.705003 519.57,270.439995 519.57,271.38 L519.57,276 L517.365,276 L517.365,271.665 C517.365,271.124997 517.292501,270.755001 517.1475,270.555 C517.002499,270.354999 516.770002,270.255 516.45,270.255 C516.169999,270.255 515.930001,270.317499 515.73,270.4425 C515.529999,270.567501 515.310001,270.744999 515.07,270.975 L515.07,276 L512.865,276 L512.865,268.56 Z M522.795,276.93 C522.795,277.210001 522.944998,277.422499 523.245,277.5675 C523.545002,277.712501 523.944997,277.785 524.445,277.785 C524.945002,277.785 525.354998,277.697501 525.675,277.5225 C525.995002,277.347499 526.155,277.130001 526.155,276.87 C526.155,276.639999 526.057501,276.485 525.8625,276.405 C525.667499,276.325 525.385002,276.285 525.015,276.285 L524.25,276.285 C523.989999,276.285 523.780001,276.2775 523.62,276.2625 C523.459999,276.2475 523.320001,276.225 523.2,276.195 C522.929999,276.435001 522.795,276.679999 522.795,276.93 Z M520.98,277.275 C520.98,276.674997 521.334996,276.175002 522.045,275.775 L522.045,275.715 C521.844999,275.584999 521.680001,275.420001 521.55,275.22 C521.419999,275.019999 521.355,274.765002 521.355,274.455 C521.355,274.184999 521.434999,273.927501 521.595,273.6825 C521.755001,273.437499 521.954999,273.230001 522.195,273.06 L522.195,273 C521.934999,272.819999 521.702501,272.562502 521.4975,272.2275 C521.292499,271.892498 521.19,271.505002 521.19,271.065 C521.19,270.614998 521.274999,270.222502 521.445,269.8875 C521.615001,269.552498 521.842499,269.272501 522.1275,269.0475 C522.412501,268.822499 522.739998,268.655001 523.11,268.545 C523.480002,268.434999 523.864998,268.38 524.265,268.38 C524.705002,268.38 525.089998,268.439999 525.42,268.56 L528.135,268.56 L528.135,270.165 L526.95,270.165 C527.02,270.275001 527.0775,270.414999 527.1225,270.585 C527.1675,270.755001 527.19,270.939999 527.19,271.14 C527.19,271.570002 527.115001,271.942498 526.965,272.2575 C526.814999,272.572502 526.607501,272.832499 526.3425,273.0375 C526.077499,273.242501 525.767502,273.394999 525.4125,273.495 C525.057498,273.595 524.675002,273.645 524.265,273.645 C523.974999,273.645 523.675002,273.595 523.365,273.495 C523.264999,273.575 523.195,273.655 523.155,273.735 C523.115,273.815 523.095,273.919999 523.095,274.05 C523.095,274.240001 523.177499,274.38 523.3425,274.47 C523.507501,274.56 523.799998,274.605 524.22,274.605 L525.42,274.605 C526.340005,274.605 527.042498,274.752499 527.5275,275.0475 C528.012502,275.342501 528.255,275.824997 528.255,276.495 C528.255,276.885002 528.157501,277.242498 527.9625,277.5675 C527.767499,277.892502 527.490002,278.172499 527.13,278.4075 C526.769998,278.642501 526.335003,278.827499 525.825,278.9625 C525.314997,279.097501 524.740003,279.165 524.1,279.165 C523.659998,279.165 523.252502,279.1275 522.8775,279.0525 C522.502498,278.9775 522.172501,278.865001 521.8875,278.715 C521.602499,278.564999 521.380001,278.370001 521.22,278.13 C521.059999,277.889999 520.98,277.605002 520.98,277.275 Z M524.265,272.31 C524.555001,272.31 524.797499,272.207501 524.9925,272.0025 C525.187501,271.797499 525.285,271.485002 525.285,271.065 C525.285,270.674998 525.187501,270.377501 524.9925,270.1725 C524.797499,269.967499 524.555001,269.865 524.265,269.865 C523.974999,269.865 523.732501,269.964999 523.5375,270.165 C523.342499,270.365001 523.245,270.664998 523.245,271.065 C523.245,271.485002 523.342499,271.797499 523.5375,272.0025 C523.732501,272.207501 523.974999,272.31 524.265,272.31 Z" id="Hosting" fill="#FFFFFF"></path>
            <rect id="Rectangle-3" fill="#5F5F5F" x="203" y="206" width="194" height="128"></rect>
            <path d="M276.155,266.22 L278.495,266.22 L280.13,270.615 L280.715,272.325 L280.775,272.325 L281.36,270.615 L282.95,266.22 L285.275,266.22 L285.275,276 L283.22,276 L283.22,272.415 C283.22,272.174999 283.23,271.910001 283.25,271.62 C283.27,271.329999 283.295,271.037501 283.325,270.7425 C283.355,270.447499 283.385,270.157501 283.415,269.8725 C283.445,269.587499 283.475,269.325001 283.505,269.085 L283.445,269.085 L282.635,271.35 L281.135,275.145 L280.25,275.145 L278.75,271.35 L277.97,269.085 L277.91,269.085 C277.94,269.325001 277.97,269.587499 278,269.8725 C278.03,270.157501 278.0575,270.447499 278.0825,270.7425 C278.1075,271.037501 278.13,271.329999 278.15,271.62 C278.17,271.910001 278.18,272.174999 278.18,272.415 L278.18,276 L276.155,276 L276.155,266.22 Z M286.97,272.28 C286.97,271.659997 287.069999,271.107502 287.27,270.6225 C287.470001,270.137498 287.737498,269.730002 288.0725,269.4 C288.407502,269.069998 288.794998,268.817501 289.235,268.6425 C289.675002,268.467499 290.129998,268.38 290.6,268.38 C291.070002,268.38 291.522498,268.467499 291.9575,268.6425 C292.392502,268.817501 292.777498,269.069998 293.1125,269.4 C293.447502,269.730002 293.714999,270.137498 293.915,270.6225 C294.115001,271.107502 294.215,271.659997 294.215,272.28 C294.215,272.900003 294.115001,273.452498 293.915,273.9375 C293.714999,274.422502 293.447502,274.829998 293.1125,275.16 C292.777498,275.490002 292.392502,275.742499 291.9575,275.9175 C291.522498,276.092501 291.070002,276.18 290.6,276.18 C290.129998,276.18 289.675002,276.092501 289.235,275.9175 C288.794998,275.742499 288.407502,275.490002 288.0725,275.16 C287.737498,274.829998 287.470001,274.422502 287.27,273.9375 C287.069999,273.452498 286.97,272.900003 286.97,272.28 Z M289.235,272.28 C289.235,272.930003 289.347499,273.444998 289.5725,273.825 C289.797501,274.205002 290.139998,274.395 290.6,274.395 C291.050002,274.395 291.389999,274.205002 291.62,273.825 C291.850001,273.444998 291.965,272.930003 291.965,272.28 C291.965,271.629997 291.850001,271.115002 291.62,270.735 C291.389999,270.354998 291.050002,270.165 290.6,270.165 C290.139998,270.165 289.797501,270.354998 289.5725,270.735 C289.347499,271.115002 289.235,271.629997 289.235,272.28 Z M295.34,272.28 C295.34,271.669997 295.427499,271.125002 295.6025,270.645 C295.777501,270.164998 296.007499,269.757502 296.2925,269.4225 C296.577501,269.087498 296.907498,268.830001 297.2825,268.65 C297.657502,268.469999 298.039998,268.38 298.43,268.38 C298.850002,268.38 299.194999,268.449999 299.465,268.59 C299.735001,268.730001 299.999999,268.919999 300.26,269.16 L300.17,268.02 L300.17,265.485 L302.375,265.485 L302.375,276 L300.575,276 L300.425,275.265 L300.365,275.265 C300.104999,275.525001 299.800002,275.742499 299.45,275.9175 C299.099998,276.092501 298.745002,276.18 298.385,276.18 C297.924998,276.18 297.507502,276.090001 297.1325,275.91 C296.757498,275.729999 296.437501,275.472502 296.1725,275.1375 C295.907499,274.802498 295.702501,274.395002 295.5575,273.915 C295.412499,273.434998 295.34,272.890003 295.34,272.28 Z M297.605,272.25 C297.605,272.990004 297.722499,273.529998 297.9575,273.87 C298.192501,274.210002 298.524998,274.38 298.955,274.38 C299.195001,274.38 299.412499,274.330001 299.6075,274.23 C299.802501,274.129999 299.989999,273.955001 300.17,273.705 L300.17,270.66 C299.969999,270.479999 299.765001,270.355 299.555,270.285 C299.344999,270.215 299.140001,270.18 298.94,270.18 C298.589998,270.18 298.280001,270.347498 298.01,270.6825 C297.739999,271.017502 297.605,271.539996 297.605,272.25 Z M304.25,268.56 L306.455,268.56 L306.455,272.895 C306.455,273.435003 306.529999,273.804999 306.68,274.005 C306.830001,274.205001 307.064998,274.305 307.385,274.305 C307.665001,274.305 307.899999,274.240001 308.09,274.11 C308.280001,273.979999 308.484999,273.770001 308.705,273.48 L308.705,268.56 L310.91,268.56 L310.91,276 L309.11,276 L308.945,274.965 L308.9,274.965 C308.579998,275.345002 308.237502,275.642499 307.8725,275.8575 C307.507498,276.072501 307.070003,276.18 306.56,276.18 C305.749996,276.18 305.162502,275.915003 304.7975,275.385 C304.432498,274.854997 304.25,274.120005 304.25,273.18 L304.25,268.56 Z M312.845,265.485 L315.05,265.485 L315.05,273.78 C315.05,274.010001 315.0925,274.17 315.1775,274.26 C315.2625,274.35 315.35,274.395 315.44,274.395 L315.5675,274.395 C315.6025,274.395 315.65,274.385 315.71,274.365 L315.98,276 C315.859999,276.05 315.707501,276.0925 315.5225,276.1275 C315.337499,276.1625 315.120001,276.18 314.87,276.18 C314.489998,276.18 314.170001,276.120001 313.91,276 C313.649999,275.879999 313.442501,275.712501 313.2875,275.4975 C313.132499,275.282499 313.02,275.022502 312.95,274.7175 C312.88,274.412498 312.845,274.070002 312.845,273.69 L312.845,265.485 Z M316.7,272.28 C316.7,271.679997 316.799999,271.137502 317,270.6525 C317.200001,270.167498 317.462498,269.757502 317.7875,269.4225 C318.112502,269.087498 318.484998,268.830001 318.905,268.65 C319.325002,268.469999 319.759998,268.38 320.21,268.38 C320.740003,268.38 321.202498,268.469999 321.5975,268.65 C321.992502,268.830001 322.322499,269.079998 322.5875,269.4 C322.852501,269.720002 323.049999,270.097498 323.18,270.5325 C323.310001,270.967502 323.375,271.439997 323.375,271.95 C323.375,272.150001 323.365,272.332499 323.345,272.4975 C323.325,272.662501 323.305,272.79 323.285,272.88 L318.83,272.88 C318.930001,273.450003 319.152498,273.862499 319.4975,274.1175 C319.842502,274.372501 320.264997,274.5 320.765,274.5 C321.295003,274.5 321.829997,274.335002 322.37,274.005 L323.105,275.34 C322.724998,275.600001 322.302502,275.804999 321.8375,275.955 C321.372498,276.105001 320.915002,276.18 320.465,276.18 C319.934997,276.18 319.440002,276.092501 318.98,275.9175 C318.519998,275.742499 318.120002,275.487502 317.78,275.1525 C317.439998,274.817498 317.175001,274.410002 316.985,273.93 C316.794999,273.449998 316.7,272.900003 316.7,272.28 Z M321.5,271.515 C321.5,271.084998 321.405001,270.735001 321.215,270.465 C321.024999,270.194999 320.705002,270.06 320.255,270.06 C319.904998,270.06 319.597501,270.177499 319.3325,270.4125 C319.067499,270.647501 318.895,271.014997 318.815,271.515 L321.5,271.515 Z" id="Module" fill="#FFFFFF"></path>
        </g>
    </g>
</svg>