<?xml version="1.0" encoding="UTF-8"?>
<svg width="600px" height="236px" viewBox="0 0 600 236" version="1.1" xmlns="http://www.w3.org/2000/svg" xmlns:xlink="http://www.w3.org/1999/xlink">
    <!-- Generator: Sketch 44.1 (41455) - http://www.bohemiancoding.com/sketch -->
    <title>image_text10</title>
    <desc>Created with Sketch.</desc>
    <defs>
        <rect id="path-1" x="0" y="0" width="192" height="128"></rect>
        <mask id="mask-2" maskContentUnits="userSpaceOnUse" maskUnits="objectBoundingBox" x="0" y="0" width="192" height="128" fill="white">
            <use xlink:href="#path-1"></use>
        </mask>
        <rect id="path-3" x="0" y="0" width="192" height="128"></rect>
        <mask id="mask-4" maskContentUnits="userSpaceOnUse" maskUnits="objectBoundingBox" x="0" y="0" width="192" height="128" fill="white">
            <use xlink:href="#path-3"></use>
        </mask>
        <rect id="path-5" x="0" y="0" width="192" height="128"></rect>
        <mask id="mask-6" maskContentUnits="userSpaceOnUse" maskUnits="objectBoundingBox" x="0" y="0" width="192" height="128" fill="white">
            <use xlink:href="#path-5"></use>
        </mask>
    </defs>
    <g id="Image/Text-Blocks" stroke="none" stroke-width="1" fill="none" fill-rule="evenodd">
        <g id="10">
            <g id="Group-6">
                <use id="Rectangle-9" stroke="#979797" mask="url(#mask-2)" stroke-width="2" fill="#F2F2F2" stroke-dasharray="4" xlink:href="#path-1"></use>
                <g id="icon-picture" opacity="0.699999988" transform="translate(65.000000, 43.000000)" stroke="#979797">
                    <polyline id="Path-15" stroke-width="2" points="1.27086707 36.8577552 21.6022189 15.6769033 35.892556 30.6899669 44.262713 21.8964934 60.1071177 38.5422208"></polyline>
                    <circle id="Oval-6" fill="#D8D8D8" cx="50" cy="11" r="3"></circle>
                    <rect id="Rectangle-10" stroke-width="2" x="1" y="1" width="59" height="41" rx="3"></rect>
                </g>
                <path d="M1.666,152.438 C1.9926683,152.718001 2.35433135,152.946666 2.751,153.124 C3.14766865,153.301334 3.53733142,153.39 3.92,153.39 C4.34933548,153.39 4.66899895,153.310667 4.879,153.152 C5.08900105,152.993333 5.194,152.778668 5.194,152.508 C5.194,152.367999 5.16366697,152.246667 5.103,152.144 C5.04233303,152.041333 4.95366725,151.950334 4.837,151.871 C4.72033275,151.791666 4.58033415,151.717 4.417,151.647 L3.878,151.416 L2.688,150.912 C2.4546655,150.818666 2.22833443,150.697334 2.009,150.548 C1.78966557,150.398666 1.59366753,150.223668 1.421,150.023 C1.24833247,149.822332 1.11066718,149.589001 1.008,149.323 C0.90533282,149.056999 0.854,148.756002 0.854,148.42 C0.854,148.046665 0.93333254,147.694335 1.092,147.363 C1.25066746,147.031665 1.47466522,146.742335 1.764,146.495 C2.05333478,146.247665 2.39633135,146.054001 2.793,145.914 C3.18966865,145.773999 3.62599762,145.704 4.102,145.704 C4.63400266,145.704 5.15899741,145.806666 5.677,146.012 C6.19500259,146.217334 6.64999804,146.515998 7.042,146.908 L5.992,148.21 C5.69333184,147.976665 5.39466816,147.797001 5.096,147.671 C4.79733184,147.544999 4.46600182,147.482 4.102,147.482 C3.74733156,147.482 3.46500105,147.554333 3.255,147.699 C3.04499895,147.843667 2.94,148.046665 2.94,148.308 C2.94,148.448001 2.97499965,148.567 3.045,148.665 C3.11500035,148.763 3.21299937,148.851666 3.339,148.931 C3.46500063,149.010334 3.61199916,149.085 3.78,149.155 C3.94800084,149.225 4.12999902,149.302 4.326,149.386 L5.502,149.862 C6.0620028,150.086001 6.50299839,150.393998 6.825,150.786 C7.14700161,151.178002 7.308,151.695997 7.308,152.34 C7.308,152.722669 7.23100077,153.084332 7.077,153.425 C6.92299923,153.765668 6.69900147,154.064332 6.405,154.321 C6.11099853,154.577668 5.74933548,154.782999 5.32,154.937 C4.89066452,155.091001 4.40533604,155.168 3.864,155.168 C3.26666368,155.168 2.67166963,155.058334 2.079,154.839 C1.48633037,154.619666 0.956669,154.290669 0.49,153.852 L1.666,152.438 Z M8.288,151.528 C8.288,150.94933 8.3813324,150.433669 8.568,149.981 C8.7546676,149.528331 9.00433177,149.148002 9.317,148.84 C9.62966823,148.531998 9.99133128,148.296334 10.402,148.133 C10.8126687,147.969666 11.2373311,147.888 11.676,147.888 C12.1146689,147.888 12.536998,147.969666 12.943,148.133 C13.349002,148.296334 13.7083318,148.531998 14.021,148.84 C14.3336682,149.148002 14.5833324,149.528331 14.77,149.981 C14.9566676,150.433669 15.05,150.94933 15.05,151.528 C15.05,152.10667 14.9566676,152.622331 14.77,153.075 C14.5833324,153.527669 14.3336682,153.907998 14.021,154.216 C13.7083318,154.524002 13.349002,154.759666 12.943,154.923 C12.536998,155.086334 12.1146689,155.168 11.676,155.168 C11.2373311,155.168 10.8126687,155.086334 10.402,154.923 C9.99133128,154.759666 9.62966823,154.524002 9.317,154.216 C9.00433177,153.907998 8.7546676,153.527669 8.568,153.075 C8.3813324,152.622331 8.288,152.10667 8.288,151.528 Z M10.402,151.528 C10.402,152.13467 10.5069989,152.615332 10.717,152.97 C10.927001,153.324668 11.2466645,153.502 11.676,153.502 C12.0960021,153.502 12.4133323,153.324668 12.628,152.97 C12.8426677,152.615332 12.95,152.13467 12.95,151.528 C12.95,150.92133 12.8426677,150.440668 12.628,150.086 C12.4133323,149.731332 12.0960021,149.554 11.676,149.554 C11.2466645,149.554 10.927001,149.731332 10.717,150.086 C10.5069989,150.440668 10.402,150.92133 10.402,151.528 Z M16.464,145.186 L18.522,145.186 L18.522,152.928 C18.522,153.142668 18.5616663,153.292 18.641,153.376 C18.7203337,153.46 18.8019996,153.502 18.886,153.502 L19.005,153.502 C19.0376668,153.502 19.0819997,153.492667 19.138,153.474 L19.39,155 C19.2779994,155.046667 19.1356675,155.086333 18.963,155.119 C18.7903325,155.151667 18.5873345,155.168 18.354,155.168 C17.9993316,155.168 17.7006679,155.112001 17.458,155 C17.2153321,154.887999 17.0216674,154.731668 16.877,154.531 C16.7323326,154.330332 16.6273337,154.087668 16.562,153.803 C16.4966663,153.518332 16.464,153.198668 16.464,152.844 L16.464,145.186 Z M20.398,148.056 L22.456,148.056 L22.456,152.102 C22.456,152.606003 22.5259993,152.951332 22.666,153.138 C22.8060007,153.324668 23.0253318,153.418 23.324,153.418 C23.5853346,153.418 23.8046658,153.357334 23.982,153.236 C24.1593342,153.114666 24.3506656,152.918668 24.556,152.648 L24.556,148.056 L26.614,148.056 L26.614,155 L24.934,155 L24.78,154.034 L24.738,154.034 C24.4393318,154.388668 24.1196684,154.666332 23.779,154.867 C23.4383316,155.067668 23.0300024,155.168 22.554,155.168 C21.7979962,155.168 21.2496684,154.920669 20.909,154.426 C20.5683316,153.931331 20.398,153.245338 20.398,152.368 L20.398,148.056 Z M28.7,149.666 L27.748,149.666 L27.748,148.14 L28.812,148.056 L29.05,146.208 L30.758,146.208 L30.758,148.056 L32.424,148.056 L32.424,149.666 L30.758,149.666 L30.758,152.452 C30.758,152.844002 30.8396658,153.126332 31.003,153.299 C31.1663341,153.471668 31.383332,153.558 31.654,153.558 C31.7660006,153.558 31.8803327,153.544 31.997,153.516 C32.1136673,153.488 32.2186662,153.455334 32.312,153.418 L32.634,154.916 C32.4473324,154.972 32.2280013,155.028 31.976,155.084 C31.7239987,155.14 31.4300017,155.168 31.094,155.168 C30.6646645,155.168 30.2983348,155.102667 29.995,154.972 C29.6916651,154.841333 29.4443343,154.659334 29.253,154.426 C29.0616657,154.192666 28.9216671,153.910335 28.833,153.579 C28.7443329,153.247665 28.7,152.881335 28.7,152.48 L28.7,149.666 Z M34.804,147.034 C34.4586649,147.034 34.1740011,146.933668 33.95,146.733 C33.7259989,146.532332 33.614,146.273335 33.614,145.956 C33.614,145.638665 33.7259989,145.382001 33.95,145.186 C34.1740011,144.989999 34.4586649,144.892 34.804,144.892 C35.1586684,144.892 35.4456656,144.989999 35.665,145.186 C35.8843344,145.382001 35.994,145.638665 35.994,145.956 C35.994,146.273335 35.8843344,146.532332 35.665,146.733 C35.4456656,146.933668 35.1586684,147.034 34.804,147.034 Z M33.782,148.056 L35.84,148.056 L35.84,155 L33.782,155 L33.782,148.056 Z M37.24,151.528 C37.24,150.94933 37.3333324,150.433669 37.52,149.981 C37.7066676,149.528331 37.9563318,149.148002 38.269,148.84 C38.5816682,148.531998 38.9433313,148.296334 39.354,148.133 C39.7646687,147.969666 40.1893311,147.888 40.628,147.888 C41.0666689,147.888 41.488998,147.969666 41.895,148.133 C42.301002,148.296334 42.6603318,148.531998 42.973,148.84 C43.2856682,149.148002 43.5353324,149.528331 43.722,149.981 C43.9086676,150.433669 44.002,150.94933 44.002,151.528 C44.002,152.10667 43.9086676,152.622331 43.722,153.075 C43.5353324,153.527669 43.2856682,153.907998 42.973,154.216 C42.6603318,154.524002 42.301002,154.759666 41.895,154.923 C41.488998,155.086334 41.0666689,155.168 40.628,155.168 C40.1893311,155.168 39.7646687,155.086334 39.354,154.923 C38.9433313,154.759666 38.5816682,154.524002 38.269,154.216 C37.9563318,153.907998 37.7066676,153.527669 37.52,153.075 C37.3333324,152.622331 37.24,152.10667 37.24,151.528 Z M39.354,151.528 C39.354,152.13467 39.4589989,152.615332 39.669,152.97 C39.879001,153.324668 40.1986645,153.502 40.628,153.502 C41.0480021,153.502 41.3653323,153.324668 41.58,152.97 C41.7946677,152.615332 41.902,152.13467 41.902,151.528 C41.902,150.92133 41.7946677,150.440668 41.58,150.086 C41.3653323,149.731332 41.0480021,149.554 40.628,149.554 C40.1986645,149.554 39.879001,149.731332 39.669,150.086 C39.4589989,150.440668 39.354,150.92133 39.354,151.528 Z M45.416,148.056 L47.096,148.056 L47.236,148.938 L47.292,148.938 C47.5906682,148.657999 47.9173316,148.413001 48.272,148.203 C48.6266684,147.992999 49.0419976,147.888 49.518,147.888 C50.2740038,147.888 50.8223316,148.135331 51.163,148.63 C51.5036684,149.124669 51.674,149.810662 51.674,150.688 L51.674,155 L49.616,155 L49.616,150.954 C49.616,150.449997 49.548334,150.104668 49.413,149.918 C49.277666,149.731332 49.0606682,149.638 48.762,149.638 C48.5006654,149.638 48.2766676,149.696333 48.09,149.813 C47.9033324,149.929667 47.6980011,150.095332 47.474,150.31 L47.474,155 L45.416,155 L45.416,148.056 Z M53.732,152.914 C54.0493349,153.156668 54.3526652,153.338666 54.642,153.46 C54.9313348,153.581334 55.2253318,153.642 55.524,153.642 C55.8320015,153.642 56.0559993,153.590667 56.196,153.488 C56.3360007,153.385333 56.406,153.240668 56.406,153.054 C56.406,152.941999 56.3663337,152.841667 56.287,152.753 C56.2076663,152.664333 56.100334,152.582667 55.965,152.508 C55.829666,152.433333 55.6780008,152.365667 55.51,152.305 C55.3419992,152.244333 55.1693342,152.176667 54.992,152.102 C54.7773323,152.018 54.5626677,151.920001 54.348,151.808 C54.1333323,151.695999 53.9373342,151.558334 53.76,151.395 C53.5826658,151.231666 53.4380006,151.040334 53.326,150.821 C53.2139994,150.601666 53.158,150.347335 53.158,150.058 C53.158,149.740665 53.2209994,149.446668 53.347,149.176 C53.4730006,148.905332 53.6526655,148.676668 53.886,148.49 C54.1193345,148.303332 54.3993317,148.156334 54.726,148.049 C55.0526683,147.941666 55.4166647,147.888 55.818,147.888 C56.3500027,147.888 56.8166647,147.978999 57.218,148.161 C57.6193353,148.343001 57.9693318,148.545999 58.268,148.77 L57.344,150.002 C57.0919987,149.815332 56.8446679,149.670667 56.602,149.568 C56.3593321,149.465333 56.1166679,149.414 55.874,149.414 C55.3513307,149.414 55.09,149.595998 55.09,149.96 C55.09,150.072001 55.127333,150.167666 55.202,150.247 C55.276667,150.326334 55.3769994,150.398666 55.503,150.464 C55.6290006,150.529334 55.7736658,150.592333 55.937,150.653 C56.1003341,150.713667 56.2706658,150.776666 56.448,150.842 C56.6720011,150.926 56.8936656,151.021666 57.113,151.129 C57.3323344,151.236334 57.5329991,151.369333 57.715,151.528 C57.8970009,151.686667 58.0439994,151.880332 58.156,152.109 C58.2680006,152.337668 58.324,152.610665 58.324,152.928 C58.324,153.245335 58.2633339,153.539332 58.142,153.81 C58.0206661,154.080668 57.8386679,154.316332 57.596,154.517 C57.3533321,154.717668 57.0546684,154.876333 56.7,154.993 C56.3453316,155.109667 55.934669,155.168 55.468,155.168 C55.0106644,155.168 54.5416691,155.079334 54.061,154.902 C53.5803309,154.724666 53.1626684,154.491335 52.808,154.202 L53.732,152.914 Z" id="Solutions" fill="#79797B"></path>
                <path d="M2.5,178 L180.570211,178" id="Line" stroke="#979797" stroke-width="4" stroke-linecap="square"></path>
                <path d="M2.5,192 L42.0126562,192" id="Line" stroke="#979797" stroke-width="4" stroke-linecap="square"></path>
                <rect id="Rectangle-12" stroke="#4990E2" x="0.5" y="213.5" width="57" height="22"></rect>
                <path d="M9.176,224.496 L9.784,224.496 C10.0933349,224.496 10.3293325,224.430667 10.492,224.3 C10.6546675,224.169333 10.736,223.976001 10.736,223.72 C10.736,223.463999 10.6546675,223.285334 10.492,223.184 C10.3293325,223.082666 10.0933349,223.032 9.784,223.032 L9.176,223.032 L9.176,224.496 Z M10.824,227.312 L9.824,225.432 L9.176,225.432 L9.176,227.312 L8,227.312 L8,222.096 L9.88,222.096 C10.1573347,222.096 10.4173321,222.122666 10.66,222.176 C10.9026679,222.229334 11.1146658,222.318666 11.296,222.444 C11.4773342,222.569334 11.6213328,222.735999 11.728,222.944 C11.8346672,223.152001 11.888,223.410665 11.888,223.72 C11.888,224.104002 11.8040008,224.419999 11.636,224.668 C11.4679992,224.916001 11.2426681,225.101333 10.96,225.224 L12.144,227.312 L10.824,227.312 Z M12.928,222.096 L16.192,222.096 L16.192,223.088 L14.104,223.088 L14.104,224.136 L15.88,224.136 L15.88,225.12 L14.104,225.12 L14.104,226.32 L16.272,226.32 L16.272,227.312 L12.928,227.312 L12.928,222.096 Z M19.52,225.152 L19.4,224.672 C19.325333,224.410665 19.2533337,224.133335 19.184,223.84 C19.1146663,223.546665 19.0453337,223.264001 18.976,222.992 L18.944,222.992 C18.8799997,223.269335 18.814667,223.553332 18.748,223.844 C18.681333,224.134668 18.610667,224.410665 18.536,224.672 L18.408,225.152 L19.52,225.152 Z M19.76,226.072 L18.168,226.072 L17.848,227.312 L16.648,227.312 L18.28,222.096 L19.696,222.096 L21.328,227.312 L20.08,227.312 L19.76,226.072 Z M21.896,222.096 L23.368,222.096 C23.768002,222.096 24.1279984,222.146666 24.448,222.248 C24.7680016,222.349334 25.0426655,222.505332 25.272,222.716 C25.5013345,222.926668 25.6773327,223.194665 25.8,223.52 C25.9226673,223.845335 25.984,224.231998 25.984,224.68 C25.984,225.128002 25.9226673,225.517332 25.8,225.848 C25.6773327,226.178668 25.5040011,226.451999 25.28,226.668 C25.0559989,226.884001 24.7880016,227.045333 24.476,227.152 C24.1639984,227.258667 23.8160019,227.312 23.432,227.312 L21.896,227.312 L21.896,222.096 Z M23.296,226.36 C23.5200011,226.36 23.7226658,226.330667 23.904,226.272 C24.0853342,226.213333 24.2399994,226.118667 24.368,225.988 C24.4960006,225.857333 24.5959996,225.685334 24.668,225.472 C24.7400004,225.258666 24.776,224.994668 24.776,224.68 C24.776,224.370665 24.7400004,224.110668 24.668,223.9 C24.5959996,223.689332 24.4960006,223.521334 24.368,223.396 C24.2399994,223.270666 24.0853342,223.181334 23.904,223.128 C23.7226658,223.074666 23.5200011,223.048 23.296,223.048 L23.072,223.048 L23.072,226.36 L23.296,226.36 Z M28.64,222.096 L29.888,222.096 L30.76,224.44 L31.072,225.352 L31.104,225.352 L31.416,224.44 L32.264,222.096 L33.504,222.096 L33.504,227.312 L32.408,227.312 L32.408,225.4 C32.408,225.271999 32.4133333,225.130667 32.424,224.976 C32.4346667,224.821333 32.4479999,224.665334 32.464,224.508 C32.4800001,224.350666 32.4959999,224.196001 32.512,224.044 C32.5280001,223.891999 32.5439999,223.752001 32.56,223.624 L32.528,223.624 L32.096,224.832 L31.296,226.856 L30.824,226.856 L30.024,224.832 L29.608,223.624 L29.576,223.624 C29.5920001,223.752001 29.6079999,223.891999 29.624,224.044 C29.6400001,224.196001 29.6546666,224.350666 29.668,224.508 C29.6813334,224.665334 29.6933333,224.821333 29.704,224.976 C29.7146667,225.130667 29.72,225.271999 29.72,225.4 L29.72,227.312 L28.64,227.312 L28.64,222.096 Z M36.856,227.408 C36.5039982,227.408 36.1826681,227.345334 35.892,227.22 C35.6013319,227.094666 35.352001,226.914668 35.144,226.68 C34.935999,226.445332 34.7746672,226.160002 34.66,225.824 C34.5453328,225.487998 34.488,225.106669 34.488,224.68 C34.488,224.253331 34.5453328,223.873335 34.66,223.54 C34.7746672,223.206665 34.935999,222.926668 35.144,222.7 C35.352001,222.473332 35.6013319,222.300001 35.892,222.18 C36.1826681,222.059999 36.5039982,222 36.856,222 C37.2080018,222 37.5293319,222.059999 37.82,222.18 C38.1106681,222.300001 38.359999,222.474666 38.568,222.704 C38.776001,222.933334 38.9373328,223.214665 39.052,223.548 C39.1666672,223.881335 39.224,224.258665 39.224,224.68 C39.224,225.106669 39.1666672,225.487998 39.052,225.824 C38.9373328,226.160002 38.776001,226.445332 38.568,226.68 C38.359999,226.914668 38.1106681,227.094666 37.82,227.22 C37.5293319,227.345334 37.2080018,227.408 36.856,227.408 Z M36.856,226.392 C37.2133351,226.392 37.495999,226.238668 37.704,225.932 C37.912001,225.625332 38.016,225.208003 38.016,224.68 C38.016,224.157331 37.912001,223.749335 37.704,223.456 C37.495999,223.162665 37.2133351,223.016 36.856,223.016 C36.4986649,223.016 36.216001,223.162665 36.008,223.456 C35.799999,223.749335 35.696,224.157331 35.696,224.68 C35.696,225.208003 35.799999,225.625332 36.008,225.932 C36.216001,226.238668 36.4986649,226.392 36.856,226.392 Z M41.384,224.496 L41.992,224.496 C42.3013349,224.496 42.5373325,224.430667 42.7,224.3 C42.8626675,224.169333 42.944,223.976001 42.944,223.72 C42.944,223.463999 42.8626675,223.285334 42.7,223.184 C42.5373325,223.082666 42.3013349,223.032 41.992,223.032 L41.384,223.032 L41.384,224.496 Z M43.032,227.312 L42.032,225.432 L41.384,225.432 L41.384,227.312 L40.208,227.312 L40.208,222.096 L42.088,222.096 C42.3653347,222.096 42.6253321,222.122666 42.868,222.176 C43.1106679,222.229334 43.3226658,222.318666 43.504,222.444 C43.6853342,222.569334 43.8293328,222.735999 43.936,222.944 C44.0426672,223.152001 44.096,223.410665 44.096,223.72 C44.096,224.104002 44.0120008,224.419999 43.844,224.668 C43.6759992,224.916001 43.4506681,225.101333 43.168,225.224 L44.352,227.312 L43.032,227.312 Z M45.136,222.096 L48.4,222.096 L48.4,223.088 L46.312,223.088 L46.312,224.136 L48.088,224.136 L48.088,225.12 L46.312,225.12 L46.312,226.32 L48.48,226.32 L48.48,227.312 L45.136,227.312 L45.136,222.096 Z" id="READ-MORE" fill="#4990E2"></path>
            </g>
            <g id="Group-6" transform="translate(408.000000, 0.000000)">
                <use id="Rectangle-9" stroke="#979797" mask="url(#mask-4)" stroke-width="2" fill="#F2F2F2" stroke-dasharray="4" xlink:href="#path-3"></use>
                <g id="icon-picture" opacity="0.699999988" transform="translate(65.000000, 43.000000)" stroke="#979797">
                    <polyline id="Path-15" stroke-width="2" points="1.27086707 36.8577552 21.6022189 15.6769033 35.892556 30.6899669 44.262713 21.8964934 60.1071177 38.5422208"></polyline>
                    <circle id="Oval-6" fill="#D8D8D8" cx="50" cy="11" r="3"></circle>
                    <rect id="Rectangle-10" stroke-width="2" x="1" y="1" width="59" height="41" rx="3"></rect>
                </g>
                <path d="M1.666,152.438 C1.9926683,152.718001 2.35433135,152.946666 2.751,153.124 C3.14766865,153.301334 3.53733142,153.39 3.92,153.39 C4.34933548,153.39 4.66899895,153.310667 4.879,153.152 C5.08900105,152.993333 5.194,152.778668 5.194,152.508 C5.194,152.367999 5.16366697,152.246667 5.103,152.144 C5.04233303,152.041333 4.95366725,151.950334 4.837,151.871 C4.72033275,151.791666 4.58033415,151.717 4.417,151.647 L3.878,151.416 L2.688,150.912 C2.4546655,150.818666 2.22833443,150.697334 2.009,150.548 C1.78966557,150.398666 1.59366753,150.223668 1.421,150.023 C1.24833247,149.822332 1.11066718,149.589001 1.008,149.323 C0.90533282,149.056999 0.854,148.756002 0.854,148.42 C0.854,148.046665 0.93333254,147.694335 1.092,147.363 C1.25066746,147.031665 1.47466522,146.742335 1.764,146.495 C2.05333478,146.247665 2.39633135,146.054001 2.793,145.914 C3.18966865,145.773999 3.62599762,145.704 4.102,145.704 C4.63400266,145.704 5.15899741,145.806666 5.677,146.012 C6.19500259,146.217334 6.64999804,146.515998 7.042,146.908 L5.992,148.21 C5.69333184,147.976665 5.39466816,147.797001 5.096,147.671 C4.79733184,147.544999 4.46600182,147.482 4.102,147.482 C3.74733156,147.482 3.46500105,147.554333 3.255,147.699 C3.04499895,147.843667 2.94,148.046665 2.94,148.308 C2.94,148.448001 2.97499965,148.567 3.045,148.665 C3.11500035,148.763 3.21299937,148.851666 3.339,148.931 C3.46500063,149.010334 3.61199916,149.085 3.78,149.155 C3.94800084,149.225 4.12999902,149.302 4.326,149.386 L5.502,149.862 C6.0620028,150.086001 6.50299839,150.393998 6.825,150.786 C7.14700161,151.178002 7.308,151.695997 7.308,152.34 C7.308,152.722669 7.23100077,153.084332 7.077,153.425 C6.92299923,153.765668 6.69900147,154.064332 6.405,154.321 C6.11099853,154.577668 5.74933548,154.782999 5.32,154.937 C4.89066452,155.091001 4.40533604,155.168 3.864,155.168 C3.26666368,155.168 2.67166963,155.058334 2.079,154.839 C1.48633037,154.619666 0.956669,154.290669 0.49,153.852 L1.666,152.438 Z M8.624,148.056 L10.682,148.056 L10.682,152.102 C10.682,152.606003 10.7519993,152.951332 10.892,153.138 C11.0320007,153.324668 11.2513318,153.418 11.55,153.418 C11.8113346,153.418 12.0306658,153.357334 12.208,153.236 C12.3853342,153.114666 12.5766656,152.918668 12.782,152.648 L12.782,148.056 L14.84,148.056 L14.84,155 L13.16,155 L13.006,154.034 L12.964,154.034 C12.6653318,154.388668 12.3456684,154.666332 12.005,154.867 C11.6643316,155.067668 11.2560024,155.168 10.78,155.168 C10.0239962,155.168 9.47566837,154.920669 9.135,154.426 C8.79433163,153.931331 8.624,153.245338 8.624,152.368 L8.624,148.056 Z M18.704,155.546 L18.704,157.576 L16.646,157.576 L16.646,148.056 L18.326,148.056 L18.466,148.742 L18.522,148.742 C18.792668,148.499332 19.0983316,148.296334 19.439,148.133 C19.7796684,147.969666 20.1319982,147.888 20.496,147.888 C20.9160021,147.888 21.2939983,147.971999 21.63,148.14 C21.9660017,148.308001 22.2506655,148.545998 22.484,148.854 C22.7173345,149.162002 22.8969994,149.532998 23.023,149.967 C23.1490006,150.401002 23.212,150.883997 23.212,151.416 C23.212,152.013336 23.1303341,152.542998 22.967,153.005 C22.8036658,153.467002 22.5843347,153.858998 22.309,154.181 C22.0336653,154.503002 21.7210017,154.747999 21.371,154.916 C21.0209982,155.084001 20.6593352,155.168 20.286,155.168 C19.9873318,155.168 19.6980014,155.105001 19.418,154.979 C19.1379986,154.852999 18.8766679,154.673335 18.634,154.44 L18.704,155.546 Z M18.704,153.04 C18.8906676,153.208001 19.0773324,153.324666 19.264,153.39 C19.4506676,153.455334 19.6326658,153.488 19.81,153.488 C20.1646684,153.488 20.4679987,153.327002 20.72,153.005 C20.9720013,152.682998 21.098,152.16267 21.098,151.444 C21.098,150.193327 20.6966707,149.568 19.894,149.568 C19.4926647,149.568 19.096002,149.777998 18.704,150.198 L18.704,153.04 Z M26.726,155.546 L26.726,157.576 L24.668,157.576 L24.668,148.056 L26.348,148.056 L26.488,148.742 L26.544,148.742 C26.814668,148.499332 27.1203316,148.296334 27.461,148.133 C27.8016684,147.969666 28.1539982,147.888 28.518,147.888 C28.9380021,147.888 29.3159983,147.971999 29.652,148.14 C29.9880017,148.308001 30.2726655,148.545998 30.506,148.854 C30.7393345,149.162002 30.9189994,149.532998 31.045,149.967 C31.1710006,150.401002 31.234,150.883997 31.234,151.416 C31.234,152.013336 31.1523341,152.542998 30.989,153.005 C30.8256658,153.467002 30.6063347,153.858998 30.331,154.181 C30.0556653,154.503002 29.7430017,154.747999 29.393,154.916 C29.0429982,155.084001 28.6813352,155.168 28.308,155.168 C28.0093318,155.168 27.7200014,155.105001 27.44,154.979 C27.1599986,154.852999 26.8986679,154.673335 26.656,154.44 L26.726,155.546 Z M26.726,153.04 C26.9126676,153.208001 27.0993324,153.324666 27.286,153.39 C27.4726676,153.455334 27.6546658,153.488 27.832,153.488 C28.1866684,153.488 28.4899987,153.327002 28.742,153.005 C28.9940013,152.682998 29.12,152.16267 29.12,151.444 C29.12,150.193327 28.7186707,149.568 27.916,149.568 C27.5146647,149.568 27.118002,149.777998 26.726,150.198 L26.726,153.04 Z M32.284,151.528 C32.284,150.94933 32.3773324,150.433669 32.564,149.981 C32.7506676,149.528331 33.0003318,149.148002 33.313,148.84 C33.6256682,148.531998 33.9873313,148.296334 34.398,148.133 C34.8086687,147.969666 35.2333311,147.888 35.672,147.888 C36.1106689,147.888 36.532998,147.969666 36.939,148.133 C37.345002,148.296334 37.7043318,148.531998 38.017,148.84 C38.3296682,149.148002 38.5793324,149.528331 38.766,149.981 C38.9526676,150.433669 39.046,150.94933 39.046,151.528 C39.046,152.10667 38.9526676,152.622331 38.766,153.075 C38.5793324,153.527669 38.3296682,153.907998 38.017,154.216 C37.7043318,154.524002 37.345002,154.759666 36.939,154.923 C36.532998,155.086334 36.1106689,155.168 35.672,155.168 C35.2333311,155.168 34.8086687,155.086334 34.398,154.923 C33.9873313,154.759666 33.6256682,154.524002 33.313,154.216 C33.0003318,153.907998 32.7506676,153.527669 32.564,153.075 C32.3773324,152.622331 32.284,152.10667 32.284,151.528 Z M34.398,151.528 C34.398,152.13467 34.5029989,152.615332 34.713,152.97 C34.923001,153.324668 35.2426645,153.502 35.672,153.502 C36.0920021,153.502 36.4093323,153.324668 36.624,152.97 C36.8386677,152.615332 36.946,152.13467 36.946,151.528 C36.946,150.92133 36.8386677,150.440668 36.624,150.086 C36.4093323,149.731332 36.0920021,149.554 35.672,149.554 C35.2426645,149.554 34.923001,149.731332 34.713,150.086 C34.5029989,150.440668 34.398,150.92133 34.398,151.528 Z M40.46,148.056 L42.14,148.056 L42.28,149.274 L42.336,149.274 C42.5880013,148.797998 42.8913316,148.448001 43.246,148.224 C43.6006684,147.999999 43.9553316,147.888 44.31,147.888 C44.506001,147.888 44.6669994,147.899667 44.793,147.923 C44.9190006,147.946333 45.0333328,147.981333 45.136,148.028 L44.8,149.806 C44.6693327,149.768666 44.5480006,149.740667 44.436,149.722 C44.3239994,149.703333 44.1933341,149.694 44.044,149.694 C43.7826654,149.694 43.5096681,149.787332 43.225,149.974 C42.9403319,150.160668 42.7046676,150.491998 42.518,150.968 L42.518,155 L40.46,155 L40.46,148.056 Z M46.312,149.666 L45.36,149.666 L45.36,148.14 L46.424,148.056 L46.662,146.208 L48.37,146.208 L48.37,148.056 L50.036,148.056 L50.036,149.666 L48.37,149.666 L48.37,152.452 C48.37,152.844002 48.4516659,153.126332 48.615,153.299 C48.7783342,153.471668 48.995332,153.558 49.266,153.558 C49.3780006,153.558 49.4923328,153.544 49.609,153.516 C49.7256673,153.488 49.8306662,153.455334 49.924,153.418 L50.246,154.916 C50.0593324,154.972 49.8400013,155.028 49.588,155.084 C49.3359987,155.14 49.0420017,155.168 48.706,155.168 C48.2766645,155.168 47.9103349,155.102667 47.607,154.972 C47.3036652,154.841333 47.0563343,154.659334 46.865,154.426 C46.6736657,154.192666 46.5336671,153.910335 46.445,153.579 C46.3563329,153.247665 46.312,152.881335 46.312,152.48 L46.312,149.666 Z" id="Support" fill="#79797B"></path>
                <path d="M2.5,178 L180.570211,178" id="Line" stroke="#979797" stroke-width="4" stroke-linecap="square"></path>
                <path d="M2.5,192 L42.0126562,192" id="Line" stroke="#979797" stroke-width="4" stroke-linecap="square"></path>
                <rect id="Rectangle-12" stroke="#4990E2" x="0.5" y="213.5" width="57" height="22"></rect>
                <path d="M9.176,224.496 L9.784,224.496 C10.0933349,224.496 10.3293325,224.430667 10.492,224.3 C10.6546675,224.169333 10.736,223.976001 10.736,223.72 C10.736,223.463999 10.6546675,223.285334 10.492,223.184 C10.3293325,223.082666 10.0933349,223.032 9.784,223.032 L9.176,223.032 L9.176,224.496 Z M10.824,227.312 L9.824,225.432 L9.176,225.432 L9.176,227.312 L8,227.312 L8,222.096 L9.88,222.096 C10.1573347,222.096 10.4173321,222.122666 10.66,222.176 C10.9026679,222.229334 11.1146658,222.318666 11.296,222.444 C11.4773342,222.569334 11.6213328,222.735999 11.728,222.944 C11.8346672,223.152001 11.888,223.410665 11.888,223.72 C11.888,224.104002 11.8040008,224.419999 11.636,224.668 C11.4679992,224.916001 11.2426681,225.101333 10.96,225.224 L12.144,227.312 L10.824,227.312 Z M12.928,222.096 L16.192,222.096 L16.192,223.088 L14.104,223.088 L14.104,224.136 L15.88,224.136 L15.88,225.12 L14.104,225.12 L14.104,226.32 L16.272,226.32 L16.272,227.312 L12.928,227.312 L12.928,222.096 Z M19.52,225.152 L19.4,224.672 C19.325333,224.410665 19.2533337,224.133335 19.184,223.84 C19.1146663,223.546665 19.0453337,223.264001 18.976,222.992 L18.944,222.992 C18.8799997,223.269335 18.814667,223.553332 18.748,223.844 C18.681333,224.134668 18.610667,224.410665 18.536,224.672 L18.408,225.152 L19.52,225.152 Z M19.76,226.072 L18.168,226.072 L17.848,227.312 L16.648,227.312 L18.28,222.096 L19.696,222.096 L21.328,227.312 L20.08,227.312 L19.76,226.072 Z M21.896,222.096 L23.368,222.096 C23.768002,222.096 24.1279984,222.146666 24.448,222.248 C24.7680016,222.349334 25.0426655,222.505332 25.272,222.716 C25.5013345,222.926668 25.6773327,223.194665 25.8,223.52 C25.9226673,223.845335 25.984,224.231998 25.984,224.68 C25.984,225.128002 25.9226673,225.517332 25.8,225.848 C25.6773327,226.178668 25.5040011,226.451999 25.28,226.668 C25.0559989,226.884001 24.7880016,227.045333 24.476,227.152 C24.1639984,227.258667 23.8160019,227.312 23.432,227.312 L21.896,227.312 L21.896,222.096 Z M23.296,226.36 C23.5200011,226.36 23.7226658,226.330667 23.904,226.272 C24.0853342,226.213333 24.2399994,226.118667 24.368,225.988 C24.4960006,225.857333 24.5959996,225.685334 24.668,225.472 C24.7400004,225.258666 24.776,224.994668 24.776,224.68 C24.776,224.370665 24.7400004,224.110668 24.668,223.9 C24.5959996,223.689332 24.4960006,223.521334 24.368,223.396 C24.2399994,223.270666 24.0853342,223.181334 23.904,223.128 C23.7226658,223.074666 23.5200011,223.048 23.296,223.048 L23.072,223.048 L23.072,226.36 L23.296,226.36 Z M28.64,222.096 L29.888,222.096 L30.76,224.44 L31.072,225.352 L31.104,225.352 L31.416,224.44 L32.264,222.096 L33.504,222.096 L33.504,227.312 L32.408,227.312 L32.408,225.4 C32.408,225.271999 32.4133333,225.130667 32.424,224.976 C32.4346667,224.821333 32.4479999,224.665334 32.464,224.508 C32.4800001,224.350666 32.4959999,224.196001 32.512,224.044 C32.5280001,223.891999 32.5439999,223.752001 32.56,223.624 L32.528,223.624 L32.096,224.832 L31.296,226.856 L30.824,226.856 L30.024,224.832 L29.608,223.624 L29.576,223.624 C29.5920001,223.752001 29.6079999,223.891999 29.624,224.044 C29.6400001,224.196001 29.6546666,224.350666 29.668,224.508 C29.6813334,224.665334 29.6933333,224.821333 29.704,224.976 C29.7146667,225.130667 29.72,225.271999 29.72,225.4 L29.72,227.312 L28.64,227.312 L28.64,222.096 Z M36.856,227.408 C36.5039982,227.408 36.1826681,227.345334 35.892,227.22 C35.6013319,227.094666 35.352001,226.914668 35.144,226.68 C34.935999,226.445332 34.7746672,226.160002 34.66,225.824 C34.5453328,225.487998 34.488,225.106669 34.488,224.68 C34.488,224.253331 34.5453328,223.873335 34.66,223.54 C34.7746672,223.206665 34.935999,222.926668 35.144,222.7 C35.352001,222.473332 35.6013319,222.300001 35.892,222.18 C36.1826681,222.059999 36.5039982,222 36.856,222 C37.2080018,222 37.5293319,222.059999 37.82,222.18 C38.1106681,222.300001 38.359999,222.474666 38.568,222.704 C38.776001,222.933334 38.9373328,223.214665 39.052,223.548 C39.1666672,223.881335 39.224,224.258665 39.224,224.68 C39.224,225.106669 39.1666672,225.487998 39.052,225.824 C38.9373328,226.160002 38.776001,226.445332 38.568,226.68 C38.359999,226.914668 38.1106681,227.094666 37.82,227.22 C37.5293319,227.345334 37.2080018,227.408 36.856,227.408 Z M36.856,226.392 C37.2133351,226.392 37.495999,226.238668 37.704,225.932 C37.912001,225.625332 38.016,225.208003 38.016,224.68 C38.016,224.157331 37.912001,223.749335 37.704,223.456 C37.495999,223.162665 37.2133351,223.016 36.856,223.016 C36.4986649,223.016 36.216001,223.162665 36.008,223.456 C35.799999,223.749335 35.696,224.157331 35.696,224.68 C35.696,225.208003 35.799999,225.625332 36.008,225.932 C36.216001,226.238668 36.4986649,226.392 36.856,226.392 Z M41.384,224.496 L41.992,224.496 C42.3013349,224.496 42.5373325,224.430667 42.7,224.3 C42.8626675,224.169333 42.944,223.976001 42.944,223.72 C42.944,223.463999 42.8626675,223.285334 42.7,223.184 C42.5373325,223.082666 42.3013349,223.032 41.992,223.032 L41.384,223.032 L41.384,224.496 Z M43.032,227.312 L42.032,225.432 L41.384,225.432 L41.384,227.312 L40.208,227.312 L40.208,222.096 L42.088,222.096 C42.3653347,222.096 42.6253321,222.122666 42.868,222.176 C43.1106679,222.229334 43.3226658,222.318666 43.504,222.444 C43.6853342,222.569334 43.8293328,222.735999 43.936,222.944 C44.0426672,223.152001 44.096,223.410665 44.096,223.72 C44.096,224.104002 44.0120008,224.419999 43.844,224.668 C43.6759992,224.916001 43.4506681,225.101333 43.168,225.224 L44.352,227.312 L43.032,227.312 Z M45.136,222.096 L48.4,222.096 L48.4,223.088 L46.312,223.088 L46.312,224.136 L48.088,224.136 L48.088,225.12 L46.312,225.12 L46.312,226.32 L48.48,226.32 L48.48,227.312 L45.136,227.312 L45.136,222.096 Z" id="READ-MORE" fill="#4990E2"></path>
            </g>
            <g id="Group-6" transform="translate(204.000000, 0.000000)">
                <use id="Rectangle-9" stroke="#979797" mask="url(#mask-6)" stroke-width="2" fill="#F2F2F2" stroke-dasharray="4" xlink:href="#path-5"></use>
                <g id="icon-picture" opacity="0.699999988" transform="translate(65.000000, 43.000000)" stroke="#979797">
                    <polyline id="Path-15" stroke-width="2" points="1.27086707 36.8577552 21.6022189 15.6769033 35.892556 30.6899669 44.262713 21.8964934 60.1071177 38.5422208"></polyline>
                    <circle id="Oval-6" fill="#D8D8D8" cx="50" cy="11" r="3"></circle>
                    <rect id="Rectangle-10" stroke-width="2" x="1" y="1" width="59" height="41" rx="3"></rect>
                </g>
                <path d="M1.666,152.438 C1.9926683,152.718001 2.35433135,152.946666 2.751,153.124 C3.14766865,153.301334 3.53733142,153.39 3.92,153.39 C4.34933548,153.39 4.66899895,153.310667 4.879,153.152 C5.08900105,152.993333 5.194,152.778668 5.194,152.508 C5.194,152.367999 5.16366697,152.246667 5.103,152.144 C5.04233303,152.041333 4.95366725,151.950334 4.837,151.871 C4.72033275,151.791666 4.58033415,151.717 4.417,151.647 L3.878,151.416 L2.688,150.912 C2.4546655,150.818666 2.22833443,150.697334 2.009,150.548 C1.78966557,150.398666 1.59366753,150.223668 1.421,150.023 C1.24833247,149.822332 1.11066718,149.589001 1.008,149.323 C0.90533282,149.056999 0.854,148.756002 0.854,148.42 C0.854,148.046665 0.93333254,147.694335 1.092,147.363 C1.25066746,147.031665 1.47466522,146.742335 1.764,146.495 C2.05333478,146.247665 2.39633135,146.054001 2.793,145.914 C3.18966865,145.773999 3.62599762,145.704 4.102,145.704 C4.63400266,145.704 5.15899741,145.806666 5.677,146.012 C6.19500259,146.217334 6.64999804,146.515998 7.042,146.908 L5.992,148.21 C5.69333184,147.976665 5.39466816,147.797001 5.096,147.671 C4.79733184,147.544999 4.46600182,147.482 4.102,147.482 C3.74733156,147.482 3.46500105,147.554333 3.255,147.699 C3.04499895,147.843667 2.94,148.046665 2.94,148.308 C2.94,148.448001 2.97499965,148.567 3.045,148.665 C3.11500035,148.763 3.21299937,148.851666 3.339,148.931 C3.46500063,149.010334 3.61199916,149.085 3.78,149.155 C3.94800084,149.225 4.12999902,149.302 4.326,149.386 L5.502,149.862 C6.0620028,150.086001 6.50299839,150.393998 6.825,150.786 C7.14700161,151.178002 7.308,151.695997 7.308,152.34 C7.308,152.722669 7.23100077,153.084332 7.077,153.425 C6.92299923,153.765668 6.69900147,154.064332 6.405,154.321 C6.11099853,154.577668 5.74933548,154.782999 5.32,154.937 C4.89066452,155.091001 4.40533604,155.168 3.864,155.168 C3.26666368,155.168 2.67166963,155.058334 2.079,154.839 C1.48633037,154.619666 0.956669,154.290669 0.49,153.852 L1.666,152.438 Z M8.288,151.528 C8.288,150.967997 8.3813324,150.461669 8.568,150.009 C8.7546676,149.556331 8.99966515,149.173668 9.303,148.861 C9.60633485,148.548332 9.95399804,148.308001 10.346,148.14 C10.738002,147.971999 11.1439979,147.888 11.564,147.888 C12.0586691,147.888 12.4903315,147.971999 12.859,148.14 C13.2276685,148.308001 13.5356654,148.541332 13.783,148.84 C14.0303346,149.138668 14.2146661,149.490998 14.336,149.897 C14.4573339,150.303002 14.518,150.743998 14.518,151.22 C14.518,151.406668 14.5086668,151.576999 14.49,151.731 C14.4713332,151.885001 14.4526668,152.004 14.434,152.088 L10.276,152.088 C10.3693338,152.620003 10.5769984,153.004999 10.899,153.243 C11.2210016,153.481001 11.615331,153.6 12.082,153.6 C12.5766691,153.6 13.0759975,153.446002 13.58,153.138 L14.266,154.384 C13.9113316,154.626668 13.5170022,154.817999 13.083,154.958 C12.6489978,155.098001 12.2220021,155.168 11.802,155.168 C11.3073309,155.168 10.8453355,155.086334 10.416,154.923 C9.98666452,154.759666 9.61333492,154.521668 9.296,154.209 C8.97866508,153.896332 8.73133422,153.516002 8.554,153.068 C8.37666578,152.619998 8.288,152.10667 8.288,151.528 Z M12.768,150.814 C12.768,150.412665 12.6793342,150.086001 12.502,149.834 C12.3246658,149.581999 12.0260021,149.456 11.606,149.456 C11.2793317,149.456 10.9923346,149.565666 10.745,149.785 C10.4976654,150.004334 10.336667,150.347331 10.262,150.814 L12.768,150.814 Z M15.946,148.056 L17.626,148.056 L17.766,149.274 L17.822,149.274 C18.0740013,148.797998 18.3773316,148.448001 18.732,148.224 C19.0866684,147.999999 19.4413316,147.888 19.796,147.888 C19.992001,147.888 20.1529994,147.899667 20.279,147.923 C20.4050006,147.946333 20.5193328,147.981333 20.622,148.028 L20.286,149.806 C20.1553327,149.768666 20.0340006,149.740667 19.922,149.722 C19.8099994,149.703333 19.6793341,149.694 19.53,149.694 C19.2686654,149.694 18.9956681,149.787332 18.711,149.974 C18.4263319,150.160668 18.1906676,150.491998 18.004,150.968 L18.004,155 L15.946,155 L15.946,148.056 Z M20.776,148.056 L22.848,148.056 L23.744,151.332 C23.8373338,151.677335 23.9283329,152.029665 24.017,152.389 C24.1056671,152.748335 24.1966662,153.109998 24.29,153.474 L24.346,153.474 C24.4300004,153.109998 24.5163329,152.748335 24.605,152.389 C24.6936671,152.029665 24.7846662,151.677335 24.878,151.332 L25.788,148.056 L27.762,148.056 L25.494,155 L23.114,155 L20.776,148.056 Z M29.862,147.034 C29.5166649,147.034 29.2320011,146.933668 29.008,146.733 C28.7839989,146.532332 28.672,146.273335 28.672,145.956 C28.672,145.638665 28.7839989,145.382001 29.008,145.186 C29.2320011,144.989999 29.5166649,144.892 29.862,144.892 C30.2166684,144.892 30.5036656,144.989999 30.723,145.186 C30.9423344,145.382001 31.052,145.638665 31.052,145.956 C31.052,146.273335 30.9423344,146.532332 30.723,146.733 C30.5036656,146.933668 30.2166684,147.034 29.862,147.034 Z M28.84,148.056 L30.898,148.056 L30.898,155 L28.84,155 L28.84,148.056 Z M32.298,151.528 C32.298,150.94933 32.395999,150.433669 32.592,149.981 C32.788001,149.528331 33.051665,149.148002 33.383,148.84 C33.714335,148.531998 34.0993311,148.296334 34.538,148.133 C34.9766689,147.969666 35.4339976,147.888 35.91,147.888 C36.3393355,147.888 36.7266649,147.960333 37.072,148.105 C37.4173351,148.249667 37.7066655,148.443332 37.94,148.686 L37.002,149.96 C36.6753317,149.689332 36.3533349,149.554 36.036,149.554 C35.5319975,149.554 35.1353348,149.731332 34.846,150.086 C34.5566652,150.440668 34.412,150.92133 34.412,151.528 C34.412,152.13467 34.5589985,152.615332 34.853,152.97 C35.1470015,153.324668 35.5179978,153.502 35.966,153.502 C36.2180013,153.502 36.4466656,153.450667 36.652,153.348 C36.8573344,153.245333 37.0439992,153.128667 37.212,152.998 L38.038,154.3 C37.7019983,154.598668 37.3286687,154.817999 36.918,154.958 C36.5073313,155.098001 36.1106686,155.168 35.728,155.168 C35.2426642,155.168 34.7923354,155.086334 34.377,154.923 C33.9616646,154.759666 33.6000015,154.524002 33.292,154.216 C32.9839985,153.907998 32.7413342,153.527669 32.564,153.075 C32.3866658,152.622331 32.298,152.10667 32.298,151.528 Z M38.836,151.528 C38.836,150.967997 38.9293324,150.461669 39.116,150.009 C39.3026676,149.556331 39.5476652,149.173668 39.851,148.861 C40.1543348,148.548332 40.501998,148.308001 40.894,148.14 C41.286002,147.971999 41.6919979,147.888 42.112,147.888 C42.6066691,147.888 43.0383315,147.971999 43.407,148.14 C43.7756685,148.308001 44.0836654,148.541332 44.331,148.84 C44.5783346,149.138668 44.7626661,149.490998 44.884,149.897 C45.0053339,150.303002 45.066,150.743998 45.066,151.22 C45.066,151.406668 45.0566668,151.576999 45.038,151.731 C45.0193332,151.885001 45.0006668,152.004 44.982,152.088 L40.824,152.088 C40.9173338,152.620003 41.1249984,153.004999 41.447,153.243 C41.7690016,153.481001 42.163331,153.6 42.63,153.6 C43.1246691,153.6 43.6239975,153.446002 44.128,153.138 L44.814,154.384 C44.4593316,154.626668 44.0650022,154.817999 43.631,154.958 C43.1969978,155.098001 42.7700021,155.168 42.35,155.168 C41.8553309,155.168 41.3933355,155.086334 40.964,154.923 C40.5346645,154.759666 40.1613349,154.521668 39.844,154.209 C39.5266651,153.896332 39.2793342,153.516002 39.102,153.068 C38.9246658,152.619998 38.836,152.10667 38.836,151.528 Z M43.316,150.814 C43.316,150.412665 43.2273342,150.086001 43.05,149.834 C42.8726658,149.581999 42.5740021,149.456 42.154,149.456 C41.8273317,149.456 41.5403346,149.565666 41.293,149.785 C41.0456654,150.004334 40.884667,150.347331 40.81,150.814 L43.316,150.814 Z M46.802,152.914 C47.1193349,153.156668 47.4226652,153.338666 47.712,153.46 C48.0013348,153.581334 48.2953318,153.642 48.594,153.642 C48.9020015,153.642 49.1259993,153.590667 49.266,153.488 C49.4060007,153.385333 49.476,153.240668 49.476,153.054 C49.476,152.941999 49.4363337,152.841667 49.357,152.753 C49.2776663,152.664333 49.170334,152.582667 49.035,152.508 C48.899666,152.433333 48.7480008,152.365667 48.58,152.305 C48.4119992,152.244333 48.2393342,152.176667 48.062,152.102 C47.8473323,152.018 47.6326677,151.920001 47.418,151.808 C47.2033323,151.695999 47.0073342,151.558334 46.83,151.395 C46.6526658,151.231666 46.5080006,151.040334 46.396,150.821 C46.2839994,150.601666 46.228,150.347335 46.228,150.058 C46.228,149.740665 46.2909994,149.446668 46.417,149.176 C46.5430006,148.905332 46.7226655,148.676668 46.956,148.49 C47.1893345,148.303332 47.4693317,148.156334 47.796,148.049 C48.1226683,147.941666 48.4866647,147.888 48.888,147.888 C49.4200027,147.888 49.8866647,147.978999 50.288,148.161 C50.6893353,148.343001 51.0393318,148.545999 51.338,148.77 L50.414,150.002 C50.1619987,149.815332 49.9146679,149.670667 49.672,149.568 C49.4293321,149.465333 49.1866679,149.414 48.944,149.414 C48.4213307,149.414 48.16,149.595998 48.16,149.96 C48.16,150.072001 48.197333,150.167666 48.272,150.247 C48.346667,150.326334 48.4469994,150.398666 48.573,150.464 C48.6990006,150.529334 48.8436659,150.592333 49.007,150.653 C49.1703342,150.713667 49.3406658,150.776666 49.518,150.842 C49.7420011,150.926 49.9636656,151.021666 50.183,151.129 C50.4023344,151.236334 50.6029991,151.369333 50.785,151.528 C50.9670009,151.686667 51.1139994,151.880332 51.226,152.109 C51.3380006,152.337668 51.394,152.610665 51.394,152.928 C51.394,153.245335 51.3333339,153.539332 51.212,153.81 C51.0906661,154.080668 50.9086679,154.316332 50.666,154.517 C50.4233321,154.717668 50.1246684,154.876333 49.77,154.993 C49.4153316,155.109667 49.004669,155.168 48.538,155.168 C48.0806644,155.168 47.6116691,155.079334 47.131,154.902 C46.6503309,154.724666 46.2326684,154.491335 45.878,154.202 L46.802,152.914 Z" id="Services" fill="#79797B"></path>
                <path d="M2.5,178 L180.570211,178" id="Line" stroke="#979797" stroke-width="4" stroke-linecap="square"></path>
                <path d="M2.5,192 L42.0126562,192" id="Line" stroke="#979797" stroke-width="4" stroke-linecap="square"></path>
                <rect id="Rectangle-12" stroke="#4990E2" x="0.5" y="213.5" width="57" height="22"></rect>
                <path d="M9.176,224.496 L9.784,224.496 C10.0933349,224.496 10.3293325,224.430667 10.492,224.3 C10.6546675,224.169333 10.736,223.976001 10.736,223.72 C10.736,223.463999 10.6546675,223.285334 10.492,223.184 C10.3293325,223.082666 10.0933349,223.032 9.784,223.032 L9.176,223.032 L9.176,224.496 Z M10.824,227.312 L9.824,225.432 L9.176,225.432 L9.176,227.312 L8,227.312 L8,222.096 L9.88,222.096 C10.1573347,222.096 10.4173321,222.122666 10.66,222.176 C10.9026679,222.229334 11.1146658,222.318666 11.296,222.444 C11.4773342,222.569334 11.6213328,222.735999 11.728,222.944 C11.8346672,223.152001 11.888,223.410665 11.888,223.72 C11.888,224.104002 11.8040008,224.419999 11.636,224.668 C11.4679992,224.916001 11.2426681,225.101333 10.96,225.224 L12.144,227.312 L10.824,227.312 Z M12.928,222.096 L16.192,222.096 L16.192,223.088 L14.104,223.088 L14.104,224.136 L15.88,224.136 L15.88,225.12 L14.104,225.12 L14.104,226.32 L16.272,226.32 L16.272,227.312 L12.928,227.312 L12.928,222.096 Z M19.52,225.152 L19.4,224.672 C19.325333,224.410665 19.2533337,224.133335 19.184,223.84 C19.1146663,223.546665 19.0453337,223.264001 18.976,222.992 L18.944,222.992 C18.8799997,223.269335 18.814667,223.553332 18.748,223.844 C18.681333,224.134668 18.610667,224.410665 18.536,224.672 L18.408,225.152 L19.52,225.152 Z M19.76,226.072 L18.168,226.072 L17.848,227.312 L16.648,227.312 L18.28,222.096 L19.696,222.096 L21.328,227.312 L20.08,227.312 L19.76,226.072 Z M21.896,222.096 L23.368,222.096 C23.768002,222.096 24.1279984,222.146666 24.448,222.248 C24.7680016,222.349334 25.0426655,222.505332 25.272,222.716 C25.5013345,222.926668 25.6773327,223.194665 25.8,223.52 C25.9226673,223.845335 25.984,224.231998 25.984,224.68 C25.984,225.128002 25.9226673,225.517332 25.8,225.848 C25.6773327,226.178668 25.5040011,226.451999 25.28,226.668 C25.0559989,226.884001 24.7880016,227.045333 24.476,227.152 C24.1639984,227.258667 23.8160019,227.312 23.432,227.312 L21.896,227.312 L21.896,222.096 Z M23.296,226.36 C23.5200011,226.36 23.7226658,226.330667 23.904,226.272 C24.0853342,226.213333 24.2399994,226.118667 24.368,225.988 C24.4960006,225.857333 24.5959996,225.685334 24.668,225.472 C24.7400004,225.258666 24.776,224.994668 24.776,224.68 C24.776,224.370665 24.7400004,224.110668 24.668,223.9 C24.5959996,223.689332 24.4960006,223.521334 24.368,223.396 C24.2399994,223.270666 24.0853342,223.181334 23.904,223.128 C23.7226658,223.074666 23.5200011,223.048 23.296,223.048 L23.072,223.048 L23.072,226.36 L23.296,226.36 Z M28.64,222.096 L29.888,222.096 L30.76,224.44 L31.072,225.352 L31.104,225.352 L31.416,224.44 L32.264,222.096 L33.504,222.096 L33.504,227.312 L32.408,227.312 L32.408,225.4 C32.408,225.271999 32.4133333,225.130667 32.424,224.976 C32.4346667,224.821333 32.4479999,224.665334 32.464,224.508 C32.4800001,224.350666 32.4959999,224.196001 32.512,224.044 C32.5280001,223.891999 32.5439999,223.752001 32.56,223.624 L32.528,223.624 L32.096,224.832 L31.296,226.856 L30.824,226.856 L30.024,224.832 L29.608,223.624 L29.576,223.624 C29.5920001,223.752001 29.6079999,223.891999 29.624,224.044 C29.6400001,224.196001 29.6546666,224.350666 29.668,224.508 C29.6813334,224.665334 29.6933333,224.821333 29.704,224.976 C29.7146667,225.130667 29.72,225.271999 29.72,225.4 L29.72,227.312 L28.64,227.312 L28.64,222.096 Z M36.856,227.408 C36.5039982,227.408 36.1826681,227.345334 35.892,227.22 C35.6013319,227.094666 35.352001,226.914668 35.144,226.68 C34.935999,226.445332 34.7746672,226.160002 34.66,225.824 C34.5453328,225.487998 34.488,225.106669 34.488,224.68 C34.488,224.253331 34.5453328,223.873335 34.66,223.54 C34.7746672,223.206665 34.935999,222.926668 35.144,222.7 C35.352001,222.473332 35.6013319,222.300001 35.892,222.18 C36.1826681,222.059999 36.5039982,222 36.856,222 C37.2080018,222 37.5293319,222.059999 37.82,222.18 C38.1106681,222.300001 38.359999,222.474666 38.568,222.704 C38.776001,222.933334 38.9373328,223.214665 39.052,223.548 C39.1666672,223.881335 39.224,224.258665 39.224,224.68 C39.224,225.106669 39.1666672,225.487998 39.052,225.824 C38.9373328,226.160002 38.776001,226.445332 38.568,226.68 C38.359999,226.914668 38.1106681,227.094666 37.82,227.22 C37.5293319,227.345334 37.2080018,227.408 36.856,227.408 Z M36.856,226.392 C37.2133351,226.392 37.495999,226.238668 37.704,225.932 C37.912001,225.625332 38.016,225.208003 38.016,224.68 C38.016,224.157331 37.912001,223.749335 37.704,223.456 C37.495999,223.162665 37.2133351,223.016 36.856,223.016 C36.4986649,223.016 36.216001,223.162665 36.008,223.456 C35.799999,223.749335 35.696,224.157331 35.696,224.68 C35.696,225.208003 35.799999,225.625332 36.008,225.932 C36.216001,226.238668 36.4986649,226.392 36.856,226.392 Z M41.384,224.496 L41.992,224.496 C42.3013349,224.496 42.5373325,224.430667 42.7,224.3 C42.8626675,224.169333 42.944,223.976001 42.944,223.72 C42.944,223.463999 42.8626675,223.285334 42.7,223.184 C42.5373325,223.082666 42.3013349,223.032 41.992,223.032 L41.384,223.032 L41.384,224.496 Z M43.032,227.312 L42.032,225.432 L41.384,225.432 L41.384,227.312 L40.208,227.312 L40.208,222.096 L42.088,222.096 C42.3653347,222.096 42.6253321,222.122666 42.868,222.176 C43.1106679,222.229334 43.3226658,222.318666 43.504,222.444 C43.6853342,222.569334 43.8293328,222.735999 43.936,222.944 C44.0426672,223.152001 44.096,223.410665 44.096,223.72 C44.096,224.104002 44.0120008,224.419999 43.844,224.668 C43.6759992,224.916001 43.4506681,225.101333 43.168,225.224 L44.352,227.312 L43.032,227.312 Z M45.136,222.096 L48.4,222.096 L48.4,223.088 L46.312,223.088 L46.312,224.136 L48.088,224.136 L48.088,225.12 L46.312,225.12 L46.312,226.32 L48.48,226.32 L48.48,227.312 L45.136,227.312 L45.136,222.096 Z" id="READ-MORE" fill="#4990E2"></path>
            </g>
        </g>
    </g>
</svg>