<?xml version="1.0" encoding="UTF-8"?>
<svg width="600px" height="674px" viewBox="0 0 600 674" version="1.1" xmlns="http://www.w3.org/2000/svg" xmlns:xlink="http://www.w3.org/1999/xlink">
    <!-- Generator: Sketch 44.1 (41455) - http://www.bohemiancoding.com/sketch -->
    <title>image_text18</title>
    <desc>Created with Sketch.</desc>
    <defs>
        <rect id="path-1" x="0" y="0" width="301" height="337"></rect>
        <mask id="mask-2" maskContentUnits="userSpaceOnUse" maskUnits="objectBoundingBox" x="0" y="0" width="301" height="337" fill="white">
            <use xlink:href="#path-1"></use>
        </mask>
        <rect id="path-3" x="0" y="0" width="301" height="337"></rect>
        <mask id="mask-4" maskContentUnits="userSpaceOnUse" maskUnits="objectBoundingBox" x="0" y="0" width="301" height="337" fill="white">
            <use xlink:href="#path-3"></use>
        </mask>
    </defs>
    <g id="Image/Text-Blocks" stroke="none" stroke-width="1" fill="none" fill-rule="evenodd">
        <g id="18">
            <g id="Group-10">
                <rect id="Rectangle-9" fill="#F8F8F8" x="299" y="0" width="301" height="337"></rect>
                <path d="M337.08,101.44 L333.5,101.44 L333.5,98.96 L343.62,98.96 L343.62,101.44 L340.04,101.44 L340.04,112 L337.08,112 L337.08,101.44 Z M343.32,107.04 C343.32,106.239996 343.453332,105.51667 343.72,104.87 C343.986668,104.22333 344.336664,103.676669 344.77,103.23 C345.203335,102.783331 345.699997,102.440001 346.26,102.2 C346.820003,101.959999 347.399997,101.84 348,101.84 C348.70667,101.84 349.323331,101.959999 349.85,102.2 C350.376669,102.440001 350.816665,102.773331 351.17,103.2 C351.523335,103.626669 351.786666,104.129997 351.96,104.71 C352.133334,105.290003 352.22,105.919997 352.22,106.6 C352.22,106.866668 352.206667,107.109999 352.18,107.33 C352.153333,107.550001 352.126667,107.719999 352.1,107.84 L346.16,107.84 C346.293334,108.600004 346.589998,109.149998 347.05,109.49 C347.510002,109.830002 348.07333,110 348.74,110 C349.44667,110 350.159996,109.780002 350.88,109.34 L351.86,111.12 C351.353331,111.466668 350.790003,111.739999 350.17,111.94 C349.549997,112.140001 348.940003,112.24 348.34,112.24 C347.63333,112.24 346.973336,112.123334 346.36,111.89 C345.746664,111.656666 345.213336,111.316669 344.76,110.87 C344.306664,110.423331 343.953335,109.880003 343.7,109.24 C343.446665,108.599997 343.32,107.866671 343.32,107.04 Z M349.72,106.02 C349.72,105.446664 349.593335,104.980002 349.34,104.62 C349.086665,104.259998 348.660003,104.08 348.06,104.08 C347.593331,104.08 347.183335,104.236665 346.83,104.55 C346.476665,104.863335 346.246667,105.35333 346.14,106.02 L349.72,106.02 Z M355.96,106.84 L353.1,102.08 L356.26,102.08 L357.14,103.68 C357.273334,103.960001 357.409999,104.243332 357.55,104.53 C357.690001,104.816668 357.833333,105.099999 357.98,105.38 L358.06,105.38 C358.166667,105.099999 358.279999,104.816668 358.4,104.53 C358.520001,104.243332 358.633333,103.960001 358.74,103.68 L359.42,102.08 L362.46,102.08 L359.58,107.18 L362.64,112 L359.48,112 L358.52,110.36 C358.359999,110.079999 358.203334,109.793335 358.05,109.5 C357.896666,109.206665 357.740001,108.920001 357.58,108.64 L357.5,108.64 C357.379999,108.920001 357.253334,109.203332 357.12,109.49 C356.986666,109.776668 356.860001,110.066665 356.74,110.36 L355.96,112 L352.92,112 L355.96,106.84 Z M364.62,104.38 L363.26,104.38 L363.26,102.2 L364.78,102.08 L365.12,99.44 L367.56,99.44 L367.56,102.08 L369.94,102.08 L369.94,104.38 L367.56,104.38 L367.56,108.36 C367.56,108.920003 367.676666,109.323332 367.91,109.57 C368.143334,109.816668 368.453331,109.94 368.84,109.94 C369.000001,109.94 369.163333,109.92 369.33,109.88 C369.496668,109.84 369.646666,109.793334 369.78,109.74 L370.24,111.88 C369.973332,111.96 369.660002,112.04 369.3,112.12 C368.939998,112.2 368.520002,112.24 368.04,112.24 C367.426664,112.24 366.903336,112.146668 366.47,111.96 C366.036665,111.773332 365.683335,111.513335 365.41,111.18 C365.136665,110.846665 364.936667,110.443336 364.81,109.97 C364.683333,109.496664 364.62,108.973336 364.62,108.4 L364.62,104.38 Z M374.94,97.8 L376.86,97.8 L372.84,115.2 L370.92,115.2 L374.94,97.8 Z M378.98,98.96 L381.92,98.96 L381.92,112 L378.98,112 L378.98,98.96 Z M384.76,102.08 L387.16,102.08 L387.36,103.36 L387.44,103.36 C387.853335,102.946665 388.293331,102.590001 388.76,102.29 C389.226669,101.989998 389.786663,101.84 390.44,101.84 C391.14667,101.84 391.716664,101.983332 392.15,102.27 C392.583336,102.556668 392.926665,102.966664 393.18,103.5 C393.620002,103.046664 394.083331,102.656668 394.57,102.33 C395.056669,102.003332 395.63333,101.84 396.3,101.84 C397.366672,101.84 398.149997,102.196663 398.65,102.91 C399.150003,103.623337 399.4,104.599994 399.4,105.84 L399.4,112 L396.46,112 L396.46,106.22 C396.46,105.499996 396.363334,105.006668 396.17,104.74 C395.976666,104.473332 395.666669,104.34 395.24,104.34 C394.746664,104.34 394.180003,104.659997 393.54,105.3 L393.54,112 L390.6,112 L390.6,106.22 C390.6,105.499996 390.503334,105.006668 390.31,104.74 C390.116666,104.473332 389.806669,104.34 389.38,104.34 C388.873331,104.34 388.313336,104.659997 387.7,105.3 L387.7,112 L384.76,112 L384.76,102.08 Z M401.54,109.24 C401.54,108.199995 401.979996,107.38667 402.86,106.8 C403.740004,106.21333 405.15999,105.820001 407.12,105.62 C407.093333,105.179998 406.960001,104.830001 406.72,104.57 C406.479999,104.309999 406.093336,104.18 405.56,104.18 C405.133331,104.18 404.706669,104.259999 404.28,104.42 C403.853331,104.580001 403.400002,104.799999 402.92,105.08 L401.88,103.14 C402.520003,102.753331 403.189997,102.440001 403.89,102.2 C404.590004,101.959999 405.333329,101.84 406.12,101.84 C407.400006,101.84 408.376663,102.20333 409.05,102.93 C409.723337,103.65667 410.06,104.786659 410.06,106.32 L410.06,112 L407.66,112 L407.44,110.98 L407.38,110.98 C406.953331,111.353335 406.503336,111.656666 406.03,111.89 C405.556664,112.123334 405.040003,112.24 404.48,112.24 C404.026664,112.24 403.620002,112.163334 403.26,112.01 C402.899998,111.856666 402.593335,111.643335 402.34,111.37 C402.086665,111.096665 401.890001,110.780002 401.75,110.42 C401.609999,110.059998 401.54,109.666669 401.54,109.24 Z M404.34,109.02 C404.34,109.340002 404.443332,109.576666 404.65,109.73 C404.856668,109.883334 405.133332,109.96 405.48,109.96 C405.826668,109.96 406.119999,109.886667 406.36,109.74 C406.600001,109.593333 406.853332,109.386668 407.12,109.12 L407.12,107.38 C406.066661,107.526667 405.340002,107.739999 404.94,108.02 C404.539998,108.300001 404.34,108.633331 404.34,109.02 Z M414.38,113.24 C414.38,113.613335 414.579998,113.896666 414.98,114.09 C415.380002,114.283334 415.91333,114.38 416.58,114.38 C417.24667,114.38 417.793331,114.263334 418.22,114.03 C418.646669,113.796666 418.86,113.506668 418.86,113.16 C418.86,112.853332 418.730001,112.646667 418.47,112.54 C418.209999,112.433333 417.833336,112.38 417.34,112.38 L416.32,112.38 C415.973332,112.38 415.693334,112.37 415.48,112.35 C415.266666,112.33 415.080001,112.3 414.92,112.26 C414.559998,112.580002 414.38,112.906665 414.38,113.24 Z M411.96,113.7 C411.96,112.899996 412.433329,112.233336 413.38,111.7 L413.38,111.62 C413.113332,111.446666 412.893334,111.226668 412.72,110.96 C412.546666,110.693332 412.46,110.353335 412.46,109.94 C412.46,109.579998 412.566666,109.236668 412.78,108.91 C412.993334,108.583332 413.259998,108.306668 413.58,108.08 L413.58,108 C413.233332,107.759999 412.923335,107.416669 412.65,106.97 C412.376665,106.523331 412.24,106.00667 412.24,105.42 C412.24,104.819997 412.353332,104.296669 412.58,103.85 C412.806668,103.403331 413.109998,103.030001 413.49,102.73 C413.870002,102.429998 414.306664,102.206667 414.8,102.06 C415.293336,101.913333 415.806664,101.84 416.34,101.84 C416.92667,101.84 417.439998,101.919999 417.88,102.08 L421.5,102.08 L421.5,104.22 L419.92,104.22 C420.013334,104.366667 420.09,104.553332 420.15,104.78 C420.21,105.006668 420.24,105.253332 420.24,105.52 C420.24,106.093336 420.140001,106.589998 419.94,107.01 C419.739999,107.430002 419.463335,107.776665 419.11,108.05 C418.756665,108.323335 418.343336,108.526666 417.87,108.66 C417.396664,108.793334 416.886669,108.86 416.34,108.86 C415.953331,108.86 415.553335,108.793334 415.14,108.66 C415.006666,108.766667 414.913334,108.873333 414.86,108.98 C414.806666,109.086667 414.78,109.226666 414.78,109.4 C414.78,109.653335 414.889999,109.839999 415.11,109.96 C415.330001,110.080001 415.719997,110.14 416.28,110.14 L417.88,110.14 C419.106673,110.14 420.04333,110.336665 420.69,110.73 C421.33667,111.123335 421.66,111.766662 421.66,112.66 C421.66,113.180003 421.530001,113.656665 421.27,114.09 C421.009999,114.523336 420.640002,114.896665 420.16,115.21 C419.679998,115.523335 419.100003,115.769999 418.42,115.95 C417.739997,116.130001 416.973338,116.22 416.12,116.22 C415.53333,116.22 414.990003,116.170001 414.49,116.07 C413.989997,115.97 413.550002,115.820001 413.17,115.62 C412.789998,115.419999 412.493334,115.160002 412.28,114.84 C412.066666,114.519998 411.96,114.140002 411.96,113.7 Z M416.34,107.08 C416.726669,107.08 417.049999,106.943335 417.31,106.67 C417.570001,106.396665 417.7,105.980003 417.7,105.42 C417.7,104.899997 417.570001,104.503335 417.31,104.23 C417.049999,103.956665 416.726669,103.82 416.34,103.82 C415.953331,103.82 415.630001,103.953332 415.37,104.22 C415.109999,104.486668 414.98,104.886664 414.98,105.42 C414.98,105.980003 415.109999,106.396665 415.37,106.67 C415.630001,106.943335 415.953331,107.08 416.34,107.08 Z M422.32,107.04 C422.32,106.239996 422.453332,105.51667 422.72,104.87 C422.986668,104.22333 423.336664,103.676669 423.77,103.23 C424.203335,102.783331 424.699997,102.440001 425.26,102.2 C425.820003,101.959999 426.399997,101.84 427,101.84 C427.70667,101.84 428.323331,101.959999 428.85,102.2 C429.376669,102.440001 429.816665,102.773331 430.17,103.2 C430.523335,103.626669 430.786666,104.129997 430.96,104.71 C431.133334,105.290003 431.22,105.919997 431.22,106.6 C431.22,106.866668 431.206667,107.109999 431.18,107.33 C431.153333,107.550001 431.126667,107.719999 431.1,107.84 L425.16,107.84 C425.293334,108.600004 425.589998,109.149998 426.05,109.49 C426.510002,109.830002 427.07333,110 427.74,110 C428.44667,110 429.159996,109.780002 429.88,109.34 L430.86,111.12 C430.353331,111.466668 429.790003,111.739999 429.17,111.94 C428.549997,112.140001 427.940003,112.24 427.34,112.24 C426.63333,112.24 425.973336,112.123334 425.36,111.89 C424.746664,111.656666 424.213336,111.316669 423.76,110.87 C423.306664,110.423331 422.953335,109.880003 422.7,109.24 C422.446665,108.599997 422.32,107.866671 422.32,107.04 Z M428.72,106.02 C428.72,105.446664 428.593335,104.980002 428.34,104.62 C428.086665,104.259998 427.660003,104.08 427.06,104.08 C426.593331,104.08 426.183335,104.236665 425.83,104.55 C425.476665,104.863335 425.246667,105.35333 425.14,106.02 L428.72,106.02 Z M433.26,97.98 L436.2,97.98 L436.2,101.42 L436.12,102.94 C436.506669,102.593332 436.923331,102.323334 437.37,102.13 C437.816669,101.936666 438.273331,101.84 438.74,101.84 C439.340003,101.84 439.879998,101.959999 440.36,102.2 C440.840002,102.440001 441.249998,102.776664 441.59,103.21 C441.930002,103.643336 442.189999,104.169997 442.37,104.79 C442.550001,105.410003 442.64,106.099996 442.64,106.86 C442.64,107.713338 442.523334,108.47333 442.29,109.14 C442.056666,109.80667 441.743335,110.369998 441.35,110.83 C440.956665,111.290002 440.510002,111.639999 440.01,111.88 C439.509997,112.120001 438.993336,112.24 438.46,112.24 C438.019998,112.24 437.576669,112.133334 437.13,111.92 C436.683331,111.706666 436.266669,111.386669 435.88,110.96 L435.8,110.96 L435.56,112 L433.26,112 L433.26,97.98 Z M436.2,109.2 C436.466668,109.440001 436.733332,109.606666 437,109.7 C437.266668,109.793334 437.526665,109.84 437.78,109.84 C438.286669,109.84 438.719998,109.610002 439.08,109.15 C439.440002,108.689998 439.62,107.946672 439.62,106.92 C439.62,105.133324 439.046672,104.24 437.9,104.24 C437.31333,104.24 436.746669,104.539997 436.2,105.14 L436.2,109.2 Z M444.14,109.24 C444.14,108.199995 444.579996,107.38667 445.46,106.8 C446.340004,106.21333 447.75999,105.820001 449.72,105.62 C449.693333,105.179998 449.560001,104.830001 449.32,104.57 C449.079999,104.309999 448.693336,104.18 448.16,104.18 C447.733331,104.18 447.306669,104.259999 446.88,104.42 C446.453331,104.580001 446.000002,104.799999 445.52,105.08 L444.48,103.14 C445.120003,102.753331 445.789996,102.440001 446.49,102.2 C447.190003,101.959999 447.933329,101.84 448.72,101.84 C450.000006,101.84 450.976663,102.20333 451.65,102.93 C452.323337,103.65667 452.66,104.786659 452.66,106.32 L452.66,112 L450.26,112 L450.04,110.98 L449.98,110.98 C449.553331,111.353335 449.103336,111.656666 448.63,111.89 C448.156664,112.123334 447.640003,112.24 447.08,112.24 C446.626664,112.24 446.220002,112.163334 445.86,112.01 C445.499998,111.856666 445.193335,111.643335 444.94,111.37 C444.686665,111.096665 444.490001,110.780002 444.35,110.42 C444.209999,110.059998 444.14,109.666669 444.14,109.24 Z M446.94,109.02 C446.94,109.340002 447.043332,109.576666 447.25,109.73 C447.456668,109.883334 447.733332,109.96 448.08,109.96 C448.426668,109.96 448.719999,109.886667 448.96,109.74 C449.200001,109.593333 449.453332,109.386668 449.72,109.12 L449.72,107.38 C448.666661,107.526667 447.940002,107.739999 447.54,108.02 C447.139998,108.300001 446.94,108.633331 446.94,109.02 Z M455.18,102.08 L457.58,102.08 L457.78,103.82 L457.86,103.82 C458.220002,103.139997 458.653331,102.640002 459.16,102.32 C459.666669,101.999998 460.173331,101.84 460.68,101.84 C460.960001,101.84 461.189999,101.856667 461.37,101.89 C461.550001,101.923333 461.713333,101.973333 461.86,102.04 L461.38,104.58 C461.193332,104.526666 461.020001,104.486667 460.86,104.46 C460.699999,104.433333 460.513334,104.42 460.3,104.42 C459.926665,104.42 459.536669,104.553332 459.13,104.82 C458.723331,105.086668 458.386668,105.559997 458.12,106.24 L458.12,112 L455.18,112 L455.18,102.08 Z" id="Text/Imagebar" fill="#79797B"></path>
                <path d="M332.5,82.5 L426.54786,82.5" id="Line" stroke="#D7D9D9" stroke-width="5" stroke-linecap="square"></path>
                <path d="M331.5,140 L539.502404,140" id="Line" stroke="#979797" stroke-width="4" stroke-linecap="square"></path>
                <path d="M331.5,154 L539.502404,154" id="Line" stroke="#979797" stroke-width="4" stroke-linecap="square"></path>
                <path d="M331.5,168 L539.502404,168" id="Line" stroke="#979797" stroke-width="4" stroke-linecap="square"></path>
                <path d="M331.5,182 L539.502404,182" id="Line" stroke="#979797" stroke-width="4" stroke-linecap="square"></path>
                <path d="M331.5,196 L539.502404,196" id="Line" stroke="#979797" stroke-width="4" stroke-linecap="square"></path>
                <path d="M331.5,209 L396.007751,209" id="Line" stroke="#979797" stroke-width="4" stroke-linecap="square"></path>
                <rect id="Rectangle-14" fill="#4990E2" x="331" y="234" width="73" height="28"></rect>
                <path d="M347.322,248.746 C347.322,248.367998 347.380333,248.030835 347.497,247.7345 C347.613667,247.438165 347.771166,247.187334 347.9695,246.982 C348.167834,246.776666 348.398832,246.620334 348.6625,246.513 C348.926168,246.405666 349.204999,246.352 349.499,246.352 C349.783668,246.352 350.041499,246.411499 350.2725,246.5305 C350.503501,246.649501 350.695999,246.788333 350.85,246.947 L350.283,247.584 C350.166333,247.476666 350.048501,247.392667 349.9295,247.332 C349.810499,247.271333 349.671667,247.241 349.513,247.241 C349.354333,247.241 349.206167,247.274833 349.0685,247.3425 C348.930833,247.410167 348.810667,247.506999 348.708,247.633 C348.605333,247.759001 348.524834,247.912999 348.4665,248.095 C348.408166,248.277001 348.379,248.482332 348.379,248.711 C348.379,249.182336 348.479332,249.547499 348.68,249.8065 C348.880668,250.065501 349.148998,250.195 349.485,250.195 C349.671668,250.195 349.834999,250.157667 349.975,250.083 C350.115001,250.008333 350.240999,249.910334 350.353,249.789 L350.92,250.412 C350.728666,250.636001 350.510501,250.803999 350.2655,250.916 C350.020499,251.028001 349.755668,251.084 349.471,251.084 C349.176999,251.084 348.899335,251.033834 348.638,250.9335 C348.376665,250.833166 348.148001,250.685001 347.952,250.489 C347.755999,250.292999 347.602001,250.049168 347.49,249.7575 C347.377999,249.465832 347.322,249.128669 347.322,248.746 Z M353.209,251.084 C352.900998,251.084 352.619835,251.029167 352.3655,250.9195 C352.111165,250.809833 351.893001,250.652334 351.711,250.447 C351.528999,250.241666 351.387834,249.992001 351.2875,249.698 C351.187166,249.403999 351.137,249.070335 351.137,248.697 C351.137,248.323665 351.187166,247.991168 351.2875,247.6995 C351.387834,247.407832 351.528999,247.162834 351.711,246.9645 C351.893001,246.766166 352.111165,246.614501 352.3655,246.5095 C352.619835,246.404499 352.900998,246.352 353.209,246.352 C353.517002,246.352 353.798165,246.404499 354.0525,246.5095 C354.306835,246.614501 354.524999,246.767332 354.707,246.968 C354.889001,247.168668 355.030166,247.414832 355.1305,247.7065 C355.230834,247.998168 355.281,248.328331 355.281,248.697 C355.281,249.070335 355.230834,249.403999 355.1305,249.698 C355.030166,249.992001 354.889001,250.241666 354.707,250.447 C354.524999,250.652334 354.306835,250.809833 354.0525,250.9195 C353.798165,251.029167 353.517002,251.084 353.209,251.084 Z M353.209,250.195 C353.521668,250.195 353.768999,250.060835 353.951,249.7925 C354.133001,249.524165 354.224,249.159002 354.224,248.697 C354.224,248.239664 354.133001,247.882668 353.951,247.626 C353.768999,247.369332 353.521668,247.241 353.209,247.241 C352.896332,247.241 352.649001,247.369332 352.467,247.626 C352.284999,247.882668 352.194,248.239664 352.194,248.697 C352.194,249.159002 352.284999,249.524165 352.467,249.7925 C352.649001,250.060835 352.896332,250.195 353.209,250.195 Z M356.142,246.436 L357.199,246.436 L358.389,248.704 L358.837,249.712 L358.865,249.712 C358.841667,249.469332 358.814833,249.198668 358.7845,248.9 C358.754167,248.601332 358.739,248.316668 358.739,248.046 L358.739,246.436 L359.719,246.436 L359.719,251 L358.662,251 L357.472,248.725 L357.024,247.731 L356.996,247.731 C357.019333,247.983001 357.046167,248.253665 357.0765,248.543 C357.106833,248.832335 357.122,249.112332 357.122,249.383 L357.122,251 L356.142,251 L356.142,246.436 Z M361.686,247.304 L360.433,247.304 L360.433,246.436 L363.975,246.436 L363.975,247.304 L362.722,247.304 L362.722,251 L361.686,251 L361.686,247.304 Z M366.341,249.11 L366.236,248.69 C366.170666,248.461332 366.107667,248.218668 366.047,247.962 C365.986333,247.705332 365.925667,247.458001 365.865,247.22 L365.837,247.22 C365.781,247.462668 365.723834,247.711165 365.6655,247.9655 C365.607166,248.219835 365.545334,248.461332 365.48,248.69 L365.368,249.11 L366.341,249.11 Z M366.551,249.915 L365.158,249.915 L364.878,251 L363.828,251 L365.256,246.436 L366.495,246.436 L367.923,251 L366.831,251 L366.551,249.915 Z M368.133,248.746 C368.133,248.367998 368.191333,248.030835 368.308,247.7345 C368.424667,247.438165 368.582166,247.187334 368.7805,246.982 C368.978834,246.776666 369.209832,246.620334 369.4735,246.513 C369.737168,246.405666 370.015999,246.352 370.31,246.352 C370.594668,246.352 370.852499,246.411499 371.0835,246.5305 C371.314501,246.649501 371.506999,246.788333 371.661,246.947 L371.094,247.584 C370.977333,247.476666 370.859501,247.392667 370.7405,247.332 C370.621499,247.271333 370.482667,247.241 370.324,247.241 C370.165333,247.241 370.017167,247.274833 369.8795,247.3425 C369.741833,247.410167 369.621667,247.506999 369.519,247.633 C369.416333,247.759001 369.335834,247.912999 369.2775,248.095 C369.219166,248.277001 369.19,248.482332 369.19,248.711 C369.19,249.182336 369.290332,249.547499 369.491,249.8065 C369.691668,250.065501 369.959998,250.195 370.296,250.195 C370.482668,250.195 370.645999,250.157667 370.786,250.083 C370.926001,250.008333 371.051999,249.910334 371.164,249.789 L371.731,250.412 C371.539666,250.636001 371.321501,250.803999 371.0765,250.916 C370.831499,251.028001 370.566668,251.084 370.282,251.084 C369.987999,251.084 369.710335,251.033834 369.449,250.9335 C369.187665,250.833166 368.959001,250.685001 368.763,250.489 C368.566999,250.292999 368.413001,250.049168 368.301,249.7575 C368.188999,249.465832 368.133,249.128669 368.133,248.746 Z M373.229,247.304 L371.976,247.304 L371.976,246.436 L375.518,246.436 L375.518,247.304 L374.265,247.304 L374.265,251 L373.229,251 L373.229,247.304 Z M377.66,246.436 L378.696,246.436 L378.696,248.991 C378.696,249.439002 378.763666,249.751666 378.899,249.929 C379.034334,250.106334 379.230332,250.195 379.487,250.195 C379.743668,250.195 379.941999,250.106334 380.082,249.929 C380.222001,249.751666 380.292,249.439002 380.292,248.991 L380.292,246.436 L381.286,246.436 L381.286,248.886 C381.286,249.651337 381.133168,250.208998 380.8275,250.559 C380.521832,250.909002 380.075003,251.084 379.487,251.084 C378.89433,251.084 378.441668,250.909002 378.129,250.559 C377.816332,250.208998 377.66,249.651337 377.66,248.886 L377.66,246.436 Z M382.567,249.719 C382.730334,249.859001 382.911166,249.973333 383.1095,250.062 C383.307834,250.150667 383.502666,250.195 383.694,250.195 C383.908668,250.195 384.068499,250.155334 384.1735,250.076 C384.278501,249.996666 384.331,249.889334 384.331,249.754 C384.331,249.684 384.315833,249.623334 384.2855,249.572 C384.255167,249.520666 384.210834,249.475167 384.1525,249.4355 C384.094166,249.395833 384.024167,249.3585 383.9425,249.3235 L383.673,249.208 L383.078,248.956 C382.961333,248.909333 382.848167,248.848667 382.7385,248.774 C382.628833,248.699333 382.530834,248.611834 382.4445,248.5115 C382.358166,248.411166 382.289334,248.294501 382.238,248.1615 C382.186666,248.028499 382.161,247.878001 382.161,247.71 C382.161,247.523332 382.200666,247.347167 382.28,247.1815 C382.359334,247.015833 382.471333,246.871167 382.616,246.7475 C382.760667,246.623833 382.932166,246.527 383.1305,246.457 C383.328834,246.387 383.546999,246.352 383.785,246.352 C384.051001,246.352 384.313499,246.403333 384.5725,246.506 C384.831501,246.608667 385.058999,246.757999 385.255,246.954 L384.73,247.605 C384.580666,247.488333 384.431334,247.3985 384.282,247.3355 C384.132666,247.2725 383.967001,247.241 383.785,247.241 C383.607666,247.241 383.466501,247.277166 383.3615,247.3495 C383.256499,247.421834 383.204,247.523333 383.204,247.654 C383.204,247.724 383.2215,247.7835 383.2565,247.8325 C383.2915,247.8815 383.3405,247.925833 383.4035,247.9655 C383.4665,248.005167 383.54,248.0425 383.624,248.0775 C383.708,248.1125 383.799,248.151 383.897,248.193 L384.485,248.431 C384.765001,248.543001 384.985499,248.696999 385.1465,248.893 C385.307501,249.089001 385.388,249.347998 385.388,249.67 C385.388,249.861334 385.3495,250.042166 385.2725,250.2125 C385.1955,250.382834 385.083501,250.532166 384.9365,250.6605 C384.789499,250.788834 384.608668,250.8915 384.394,250.9685 C384.179332,251.0455 383.936668,251.084 383.666,251.084 C383.367332,251.084 383.069835,251.029167 382.7735,250.9195 C382.477165,250.809833 382.212334,250.645334 381.979,250.426 L382.567,249.719 Z" id="CONTACT-US" fill="#FFFFFF"></path>
                <use id="Rectangle-9" stroke="#979797" mask="url(#mask-2)" stroke-width="2" fill="#F2F2F2" stroke-dasharray="4" xlink:href="#path-1"></use>
                <g id="icon-picture" opacity="0.699999988" transform="translate(120.000000, 147.000000)" stroke="#979797">
                    <polyline id="Path-15" stroke-width="2" points="1.27086707 36.8577552 21.6022189 15.6769033 35.892556 30.6899669 44.262713 21.8964934 60.1071177 38.5422208"></polyline>
                    <circle id="Oval-6" fill="#D8D8D8" cx="50" cy="11" r="3"></circle>
                    <rect id="Rectangle-10" stroke-width="2" x="1" y="1" width="59" height="41" rx="3"></rect>
                </g>
            </g>
            <g id="Group-11" transform="translate(0.000000, 337.000000)">
                <rect id="Rectangle-9" fill="#F8F8F8" x="0" y="0" width="301" height="337"></rect>
                <path d="M38.08,101.44 L34.5,101.44 L34.5,98.96 L44.62,98.96 L44.62,101.44 L41.04,101.44 L41.04,112 L38.08,112 L38.08,101.44 Z M44.32,107.04 C44.32,106.239996 44.453332,105.51667 44.72,104.87 C44.986668,104.22333 45.3366645,103.676669 45.77,103.23 C46.2033355,102.783331 46.6999972,102.440001 47.26,102.2 C47.8200028,101.959999 48.399997,101.84 49,101.84 C49.7066702,101.84 50.3233307,101.959999 50.85,102.2 C51.3766693,102.440001 51.8166649,102.773331 52.17,103.2 C52.5233351,103.626669 52.7866658,104.129997 52.96,104.71 C53.1333342,105.290003 53.22,105.919997 53.22,106.6 C53.22,106.866668 53.2066668,107.109999 53.18,107.33 C53.1533332,107.550001 53.1266668,107.719999 53.1,107.84 L47.16,107.84 C47.293334,108.600004 47.5899977,109.149998 48.05,109.49 C48.5100023,109.830002 49.07333,110 49.74,110 C50.4466702,110 51.1599964,109.780002 51.88,109.34 L52.86,111.12 C52.3533308,111.466668 51.7900031,111.739999 51.17,111.94 C50.5499969,112.140001 49.940003,112.24 49.34,112.24 C48.6333298,112.24 47.9733364,112.123334 47.36,111.89 C46.7466636,111.656666 46.2133356,111.316669 45.76,110.87 C45.3066644,110.423331 44.9533346,109.880003 44.7,109.24 C44.4466654,108.599997 44.32,107.866671 44.32,107.04 Z M50.72,106.02 C50.72,105.446664 50.5933346,104.980002 50.34,104.62 C50.0866654,104.259998 49.660003,104.08 49.06,104.08 C48.593331,104.08 48.1833351,104.236665 47.83,104.55 C47.4766649,104.863335 47.2466672,105.35333 47.14,106.02 L50.72,106.02 Z M56.96,106.84 L54.1,102.08 L57.26,102.08 L58.14,103.68 C58.273334,103.960001 58.4099993,104.243332 58.55,104.53 C58.6900007,104.816668 58.8333326,105.099999 58.98,105.38 L59.06,105.38 C59.1666672,105.099999 59.2799994,104.816668 59.4,104.53 C59.5200006,104.243332 59.6333328,103.960001 59.74,103.68 L60.42,102.08 L63.46,102.08 L60.58,107.18 L63.64,112 L60.48,112 L59.52,110.36 C59.3599992,110.079999 59.2033341,109.793335 59.05,109.5 C58.8966659,109.206665 58.7400008,108.920001 58.58,108.64 L58.5,108.64 C58.3799994,108.920001 58.253334,109.203332 58.12,109.49 C57.986666,109.776668 57.8600006,110.066665 57.74,110.36 L56.96,112 L53.92,112 L56.96,106.84 Z M65.62,104.38 L64.26,104.38 L64.26,102.2 L65.78,102.08 L66.12,99.44 L68.56,99.44 L68.56,102.08 L70.94,102.08 L70.94,104.38 L68.56,104.38 L68.56,108.36 C68.56,108.920003 68.6766655,109.323332 68.91,109.57 C69.1433345,109.816668 69.4533314,109.94 69.84,109.94 C70.0000008,109.94 70.1633325,109.92 70.33,109.88 C70.4966675,109.84 70.646666,109.793334 70.78,109.74 L71.24,111.88 C70.973332,111.96 70.6600018,112.04 70.3,112.12 C69.9399982,112.2 69.5200024,112.24 69.04,112.24 C68.4266636,112.24 67.9033355,112.146668 67.47,111.96 C67.0366645,111.773332 66.6833347,111.513335 66.41,111.18 C66.1366653,110.846665 65.9366673,110.443336 65.81,109.97 C65.6833327,109.496664 65.62,108.973336 65.62,108.4 L65.62,104.38 Z M75.94,97.8 L77.86,97.8 L73.84,115.2 L71.92,115.2 L75.94,97.8 Z M79.98,98.96 L82.92,98.96 L82.92,112 L79.98,112 L79.98,98.96 Z M85.76,102.08 L88.16,102.08 L88.36,103.36 L88.44,103.36 C88.8533354,102.946665 89.293331,102.590001 89.76,102.29 C90.226669,101.989998 90.7866634,101.84 91.44,101.84 C92.1466702,101.84 92.7166645,101.983332 93.15,102.27 C93.5833355,102.556668 93.9266654,102.966664 94.18,103.5 C94.6200022,103.046664 95.0833309,102.656668 95.57,102.33 C96.0566691,102.003332 96.63333,101.84 97.3,101.84 C98.366672,101.84 99.1499975,102.196663 99.65,102.91 C100.150002,103.623337 100.4,104.599994 100.4,105.84 L100.4,112 L97.46,112 L97.46,106.22 C97.46,105.499996 97.3633343,105.006668 97.17,104.74 C96.9766657,104.473332 96.6666688,104.34 96.24,104.34 C95.7466642,104.34 95.1800032,104.659997 94.54,105.3 L94.54,112 L91.6,112 L91.6,106.22 C91.6,105.499996 91.5033343,105.006668 91.31,104.74 C91.1166657,104.473332 90.8066688,104.34 90.38,104.34 C89.8733308,104.34 89.3133364,104.659997 88.7,105.3 L88.7,112 L85.76,112 L85.76,102.08 Z M102.54,109.24 C102.54,108.199995 102.979996,107.38667 103.86,106.8 C104.740004,106.21333 106.15999,105.820001 108.12,105.62 C108.093333,105.179998 107.960001,104.830001 107.72,104.57 C107.479999,104.309999 107.093336,104.18 106.56,104.18 C106.133331,104.18 105.706669,104.259999 105.28,104.42 C104.853331,104.580001 104.400002,104.799999 103.92,105.08 L102.88,103.14 C103.520003,102.753331 104.189997,102.440001 104.89,102.2 C105.590004,101.959999 106.333329,101.84 107.12,101.84 C108.400006,101.84 109.376663,102.20333 110.05,102.93 C110.723337,103.65667 111.06,104.786659 111.06,106.32 L111.06,112 L108.66,112 L108.44,110.98 L108.38,110.98 C107.953331,111.353335 107.503336,111.656666 107.03,111.89 C106.556664,112.123334 106.040003,112.24 105.48,112.24 C105.026664,112.24 104.620002,112.163334 104.26,112.01 C103.899998,111.856666 103.593335,111.643335 103.34,111.37 C103.086665,111.096665 102.890001,110.780002 102.75,110.42 C102.609999,110.059998 102.54,109.666669 102.54,109.24 Z M105.34,109.02 C105.34,109.340002 105.443332,109.576666 105.65,109.73 C105.856668,109.883334 106.133332,109.96 106.48,109.96 C106.826668,109.96 107.119999,109.886667 107.36,109.74 C107.600001,109.593333 107.853332,109.386668 108.12,109.12 L108.12,107.38 C107.066661,107.526667 106.340002,107.739999 105.94,108.02 C105.539998,108.300001 105.34,108.633331 105.34,109.02 Z M115.38,113.24 C115.38,113.613335 115.579998,113.896666 115.98,114.09 C116.380002,114.283334 116.91333,114.38 117.58,114.38 C118.24667,114.38 118.793331,114.263334 119.22,114.03 C119.646669,113.796666 119.86,113.506668 119.86,113.16 C119.86,112.853332 119.730001,112.646667 119.47,112.54 C119.209999,112.433333 118.833336,112.38 118.34,112.38 L117.32,112.38 C116.973332,112.38 116.693334,112.37 116.48,112.35 C116.266666,112.33 116.080001,112.3 115.92,112.26 C115.559998,112.580002 115.38,112.906665 115.38,113.24 Z M112.96,113.7 C112.96,112.899996 113.433329,112.233336 114.38,111.7 L114.38,111.62 C114.113332,111.446666 113.893334,111.226668 113.72,110.96 C113.546666,110.693332 113.46,110.353335 113.46,109.94 C113.46,109.579998 113.566666,109.236668 113.78,108.91 C113.993334,108.583332 114.259998,108.306668 114.58,108.08 L114.58,108 C114.233332,107.759999 113.923335,107.416669 113.65,106.97 C113.376665,106.523331 113.24,106.00667 113.24,105.42 C113.24,104.819997 113.353332,104.296669 113.58,103.85 C113.806668,103.403331 114.109998,103.030001 114.49,102.73 C114.870002,102.429998 115.306664,102.206667 115.8,102.06 C116.293336,101.913333 116.806664,101.84 117.34,101.84 C117.92667,101.84 118.439998,101.919999 118.88,102.08 L122.5,102.08 L122.5,104.22 L120.92,104.22 C121.013334,104.366667 121.09,104.553332 121.15,104.78 C121.21,105.006668 121.24,105.253332 121.24,105.52 C121.24,106.093336 121.140001,106.589998 120.94,107.01 C120.739999,107.430002 120.463335,107.776665 120.11,108.05 C119.756665,108.323335 119.343336,108.526666 118.87,108.66 C118.396664,108.793334 117.886669,108.86 117.34,108.86 C116.953331,108.86 116.553335,108.793334 116.14,108.66 C116.006666,108.766667 115.913334,108.873333 115.86,108.98 C115.806666,109.086667 115.78,109.226666 115.78,109.4 C115.78,109.653335 115.889999,109.839999 116.11,109.96 C116.330001,110.080001 116.719997,110.14 117.28,110.14 L118.88,110.14 C120.106673,110.14 121.04333,110.336665 121.69,110.73 C122.33667,111.123335 122.66,111.766662 122.66,112.66 C122.66,113.180003 122.530001,113.656665 122.27,114.09 C122.009999,114.523336 121.640002,114.896665 121.16,115.21 C120.679998,115.523335 120.100003,115.769999 119.42,115.95 C118.739997,116.130001 117.973338,116.22 117.12,116.22 C116.53333,116.22 115.990003,116.170001 115.49,116.07 C114.989997,115.97 114.550002,115.820001 114.17,115.62 C113.789998,115.419999 113.493334,115.160002 113.28,114.84 C113.066666,114.519998 112.96,114.140002 112.96,113.7 Z M117.34,107.08 C117.726669,107.08 118.049999,106.943335 118.31,106.67 C118.570001,106.396665 118.7,105.980003 118.7,105.42 C118.7,104.899997 118.570001,104.503335 118.31,104.23 C118.049999,103.956665 117.726669,103.82 117.34,103.82 C116.953331,103.82 116.630001,103.953332 116.37,104.22 C116.109999,104.486668 115.98,104.886664 115.98,105.42 C115.98,105.980003 116.109999,106.396665 116.37,106.67 C116.630001,106.943335 116.953331,107.08 117.34,107.08 Z M123.32,107.04 C123.32,106.239996 123.453332,105.51667 123.72,104.87 C123.986668,104.22333 124.336664,103.676669 124.77,103.23 C125.203335,102.783331 125.699997,102.440001 126.26,102.2 C126.820003,101.959999 127.399997,101.84 128,101.84 C128.70667,101.84 129.323331,101.959999 129.85,102.2 C130.376669,102.440001 130.816665,102.773331 131.17,103.2 C131.523335,103.626669 131.786666,104.129997 131.96,104.71 C132.133334,105.290003 132.22,105.919997 132.22,106.6 C132.22,106.866668 132.206667,107.109999 132.18,107.33 C132.153333,107.550001 132.126667,107.719999 132.1,107.84 L126.16,107.84 C126.293334,108.600004 126.589998,109.149998 127.05,109.49 C127.510002,109.830002 128.07333,110 128.74,110 C129.44667,110 130.159996,109.780002 130.88,109.34 L131.86,111.12 C131.353331,111.466668 130.790003,111.739999 130.17,111.94 C129.549997,112.140001 128.940003,112.24 128.34,112.24 C127.63333,112.24 126.973336,112.123334 126.36,111.89 C125.746664,111.656666 125.213336,111.316669 124.76,110.87 C124.306664,110.423331 123.953335,109.880003 123.7,109.24 C123.446665,108.599997 123.32,107.866671 123.32,107.04 Z M129.72,106.02 C129.72,105.446664 129.593335,104.980002 129.34,104.62 C129.086665,104.259998 128.660003,104.08 128.06,104.08 C127.593331,104.08 127.183335,104.236665 126.83,104.55 C126.476665,104.863335 126.246667,105.35333 126.14,106.02 L129.72,106.02 Z M134.26,97.98 L137.2,97.98 L137.2,101.42 L137.12,102.94 C137.506669,102.593332 137.923331,102.323334 138.37,102.13 C138.816669,101.936666 139.273331,101.84 139.74,101.84 C140.340003,101.84 140.879998,101.959999 141.36,102.2 C141.840002,102.440001 142.249998,102.776664 142.59,103.21 C142.930002,103.643336 143.189999,104.169997 143.37,104.79 C143.550001,105.410003 143.64,106.099996 143.64,106.86 C143.64,107.713338 143.523334,108.47333 143.29,109.14 C143.056666,109.80667 142.743335,110.369998 142.35,110.83 C141.956665,111.290002 141.510002,111.639999 141.01,111.88 C140.509997,112.120001 139.993336,112.24 139.46,112.24 C139.019998,112.24 138.576669,112.133334 138.13,111.92 C137.683331,111.706666 137.266669,111.386669 136.88,110.96 L136.8,110.96 L136.56,112 L134.26,112 L134.26,97.98 Z M137.2,109.2 C137.466668,109.440001 137.733332,109.606666 138,109.7 C138.266668,109.793334 138.526665,109.84 138.78,109.84 C139.286669,109.84 139.719998,109.610002 140.08,109.15 C140.440002,108.689998 140.62,107.946672 140.62,106.92 C140.62,105.133324 140.046672,104.24 138.9,104.24 C138.31333,104.24 137.746669,104.539997 137.2,105.14 L137.2,109.2 Z M145.14,109.24 C145.14,108.199995 145.579996,107.38667 146.46,106.8 C147.340004,106.21333 148.75999,105.820001 150.72,105.62 C150.693333,105.179998 150.560001,104.830001 150.32,104.57 C150.079999,104.309999 149.693336,104.18 149.16,104.18 C148.733331,104.18 148.306669,104.259999 147.88,104.42 C147.453331,104.580001 147.000002,104.799999 146.52,105.08 L145.48,103.14 C146.120003,102.753331 146.789996,102.440001 147.49,102.2 C148.190003,101.959999 148.933329,101.84 149.72,101.84 C151.000006,101.84 151.976663,102.20333 152.65,102.93 C153.323337,103.65667 153.66,104.786659 153.66,106.32 L153.66,112 L151.26,112 L151.04,110.98 L150.98,110.98 C150.553331,111.353335 150.103336,111.656666 149.63,111.89 C149.156664,112.123334 148.640003,112.24 148.08,112.24 C147.626664,112.24 147.220002,112.163334 146.86,112.01 C146.499998,111.856666 146.193335,111.643335 145.94,111.37 C145.686665,111.096665 145.490001,110.780002 145.35,110.42 C145.209999,110.059998 145.14,109.666669 145.14,109.24 Z M147.94,109.02 C147.94,109.340002 148.043332,109.576666 148.25,109.73 C148.456668,109.883334 148.733332,109.96 149.08,109.96 C149.426668,109.96 149.719999,109.886667 149.96,109.74 C150.200001,109.593333 150.453332,109.386668 150.72,109.12 L150.72,107.38 C149.666661,107.526667 148.940002,107.739999 148.54,108.02 C148.139998,108.300001 147.94,108.633331 147.94,109.02 Z M156.18,102.08 L158.58,102.08 L158.78,103.82 L158.86,103.82 C159.220002,103.139997 159.653331,102.640002 160.16,102.32 C160.666669,101.999998 161.173331,101.84 161.68,101.84 C161.960001,101.84 162.189999,101.856667 162.37,101.89 C162.550001,101.923333 162.713333,101.973333 162.86,102.04 L162.38,104.58 C162.193332,104.526666 162.020001,104.486667 161.86,104.46 C161.699999,104.433333 161.513334,104.42 161.3,104.42 C160.926665,104.42 160.536669,104.553332 160.13,104.82 C159.723331,105.086668 159.386668,105.559997 159.12,106.24 L159.12,112 L156.18,112 L156.18,102.08 Z" id="Text/Imagebar" fill="#79797B"></path>
                <path d="M33.5,82.5 L127.54786,82.5" id="Line" stroke="#D7D9D9" stroke-width="5" stroke-linecap="square"></path>
                <path d="M32.5,140 L240.502404,140" id="Line" stroke="#979797" stroke-width="4" stroke-linecap="square"></path>
                <path d="M32.5,154 L240.502404,154" id="Line" stroke="#979797" stroke-width="4" stroke-linecap="square"></path>
                <path d="M32.5,168 L240.502404,168" id="Line" stroke="#979797" stroke-width="4" stroke-linecap="square"></path>
                <path d="M32.5,182 L240.502404,182" id="Line" stroke="#979797" stroke-width="4" stroke-linecap="square"></path>
                <path d="M32.5,196 L240.502404,196" id="Line" stroke="#979797" stroke-width="4" stroke-linecap="square"></path>
                <path d="M32.5,209 L97.0077515,209" id="Line" stroke="#979797" stroke-width="4" stroke-linecap="square"></path>
                <rect id="Rectangle-14" fill="#4990E2" x="32" y="234" width="73" height="28"></rect>
                <path d="M48.322,248.746 C48.322,248.367998 48.3803327,248.030835 48.497,247.7345 C48.6136672,247.438165 48.7711657,247.187334 48.9695,246.982 C49.1678343,246.776666 49.398832,246.620334 49.6625,246.513 C49.926168,246.405666 50.2049985,246.352 50.499,246.352 C50.7836681,246.352 51.0414988,246.411499 51.2725,246.5305 C51.5035012,246.649501 51.6959992,246.788333 51.85,246.947 L51.283,247.584 C51.1663327,247.476666 51.0485006,247.392667 50.9295,247.332 C50.8104994,247.271333 50.6716675,247.241 50.513,247.241 C50.3543325,247.241 50.2061674,247.274833 50.0685,247.3425 C49.9308326,247.410167 49.8106672,247.506999 49.708,247.633 C49.6053328,247.759001 49.5248336,247.912999 49.4665,248.095 C49.4081664,248.277001 49.379,248.482332 49.379,248.711 C49.379,249.182336 49.4793323,249.547499 49.68,249.8065 C49.8806677,250.065501 50.1489983,250.195 50.485,250.195 C50.6716676,250.195 50.8349993,250.157667 50.975,250.083 C51.1150007,250.008333 51.2409994,249.910334 51.353,249.789 L51.92,250.412 C51.7286657,250.636001 51.5105012,250.803999 51.2655,250.916 C51.0204988,251.028001 50.7556681,251.084 50.471,251.084 C50.1769985,251.084 49.8993346,251.033834 49.638,250.9335 C49.3766654,250.833166 49.148001,250.685001 48.952,250.489 C48.755999,250.292999 48.6020006,250.049168 48.49,249.7575 C48.3779994,249.465832 48.322,249.128669 48.322,248.746 Z M54.209,251.084 C53.9009985,251.084 53.6198346,251.029167 53.3655,250.9195 C53.1111654,250.809833 52.8930009,250.652334 52.711,250.447 C52.5289991,250.241666 52.3878338,249.992001 52.2875,249.698 C52.1871662,249.403999 52.137,249.070335 52.137,248.697 C52.137,248.323665 52.1871662,247.991168 52.2875,247.6995 C52.3878338,247.407832 52.5289991,247.162834 52.711,246.9645 C52.8930009,246.766166 53.1111654,246.614501 53.3655,246.5095 C53.6198346,246.404499 53.9009985,246.352 54.209,246.352 C54.5170015,246.352 54.7981654,246.404499 55.0525,246.5095 C55.3068346,246.614501 55.5249991,246.767332 55.707,246.968 C55.8890009,247.168668 56.0301662,247.414832 56.1305,247.7065 C56.2308338,247.998168 56.281,248.328331 56.281,248.697 C56.281,249.070335 56.2308338,249.403999 56.1305,249.698 C56.0301662,249.992001 55.8890009,250.241666 55.707,250.447 C55.5249991,250.652334 55.3068346,250.809833 55.0525,250.9195 C54.7981654,251.029167 54.5170015,251.084 54.209,251.084 Z M54.209,250.195 C54.5216682,250.195 54.7689991,250.060835 54.951,249.7925 C55.1330009,249.524165 55.224,249.159002 55.224,248.697 C55.224,248.239664 55.1330009,247.882668 54.951,247.626 C54.7689991,247.369332 54.5216682,247.241 54.209,247.241 C53.8963318,247.241 53.6490009,247.369332 53.467,247.626 C53.2849991,247.882668 53.194,248.239664 53.194,248.697 C53.194,249.159002 53.2849991,249.524165 53.467,249.7925 C53.6490009,250.060835 53.8963318,250.195 54.209,250.195 Z M57.142,246.436 L58.199,246.436 L59.389,248.704 L59.837,249.712 L59.865,249.712 C59.8416666,249.469332 59.8148335,249.198668 59.7845,248.9 C59.7541665,248.601332 59.739,248.316668 59.739,248.046 L59.739,246.436 L60.719,246.436 L60.719,251 L59.662,251 L58.472,248.725 L58.024,247.731 L57.996,247.731 C58.0193334,247.983001 58.0461665,248.253665 58.0765,248.543 C58.1068335,248.832335 58.122,249.112332 58.122,249.383 L58.122,251 L57.142,251 L57.142,246.436 Z M62.686,247.304 L61.433,247.304 L61.433,246.436 L64.975,246.436 L64.975,247.304 L63.722,247.304 L63.722,251 L62.686,251 L62.686,247.304 Z M67.341,249.11 L67.236,248.69 C67.1706663,248.461332 67.107667,248.218668 67.047,247.962 C66.986333,247.705332 66.925667,247.458001 66.865,247.22 L66.837,247.22 C66.7809997,247.462668 66.7238336,247.711165 66.6655,247.9655 C66.6071664,248.219835 66.5453337,248.461332 66.48,248.69 L66.368,249.11 L67.341,249.11 Z M67.551,249.915 L66.158,249.915 L65.878,251 L64.828,251 L66.256,246.436 L67.495,246.436 L68.923,251 L67.831,251 L67.551,249.915 Z M69.133,248.746 C69.133,248.367998 69.1913328,248.030835 69.308,247.7345 C69.4246672,247.438165 69.5821657,247.187334 69.7805,246.982 C69.9788343,246.776666 70.209832,246.620334 70.4735,246.513 C70.737168,246.405666 71.0159985,246.352 71.31,246.352 C71.5946681,246.352 71.8524988,246.411499 72.0835,246.5305 C72.3145012,246.649501 72.5069992,246.788333 72.661,246.947 L72.094,247.584 C71.9773328,247.476666 71.8595006,247.392667 71.7405,247.332 C71.6214994,247.271333 71.4826675,247.241 71.324,247.241 C71.1653325,247.241 71.0171674,247.274833 70.8795,247.3425 C70.7418326,247.410167 70.6216672,247.506999 70.519,247.633 C70.4163328,247.759001 70.3358336,247.912999 70.2775,248.095 C70.2191664,248.277001 70.19,248.482332 70.19,248.711 C70.19,249.182336 70.2903323,249.547499 70.491,249.8065 C70.6916677,250.065501 70.9599983,250.195 71.296,250.195 C71.4826676,250.195 71.6459993,250.157667 71.786,250.083 C71.9260007,250.008333 72.0519994,249.910334 72.164,249.789 L72.731,250.412 C72.5396657,250.636001 72.3215012,250.803999 72.0765,250.916 C71.8314988,251.028001 71.5666681,251.084 71.282,251.084 C70.9879985,251.084 70.7103346,251.033834 70.449,250.9335 C70.1876654,250.833166 69.959001,250.685001 69.763,250.489 C69.566999,250.292999 69.4130006,250.049168 69.301,249.7575 C69.1889994,249.465832 69.133,249.128669 69.133,248.746 Z M74.229,247.304 L72.976,247.304 L72.976,246.436 L76.518,246.436 L76.518,247.304 L75.265,247.304 L75.265,251 L74.229,251 L74.229,247.304 Z M78.66,246.436 L79.696,246.436 L79.696,248.991 C79.696,249.439002 79.763666,249.751666 79.899,249.929 C80.034334,250.106334 80.2303321,250.195 80.487,250.195 C80.7436679,250.195 80.9419993,250.106334 81.082,249.929 C81.2220007,249.751666 81.292,249.439002 81.292,248.991 L81.292,246.436 L82.286,246.436 L82.286,248.886 C82.286,249.651337 82.1331682,250.208998 81.8275,250.559 C81.5218318,250.909002 81.0750029,251.084 80.487,251.084 C79.8943304,251.084 79.4416682,250.909002 79.129,250.559 C78.8163318,250.208998 78.66,249.651337 78.66,248.886 L78.66,246.436 Z M83.567,249.719 C83.7303341,249.859001 83.9111657,249.973333 84.1095,250.062 C84.3078343,250.150667 84.5026657,250.195 84.694,250.195 C84.9086677,250.195 85.0684995,250.155334 85.1735,250.076 C85.2785005,249.996666 85.331,249.889334 85.331,249.754 C85.331,249.684 85.3158335,249.623334 85.2855,249.572 C85.2551665,249.520666 85.2108336,249.475167 85.1525,249.4355 C85.0941664,249.395833 85.0241671,249.3585 84.9425,249.3235 L84.673,249.208 L84.078,248.956 C83.9613327,248.909333 83.8481672,248.848667 83.7385,248.774 C83.6288328,248.699333 83.5308338,248.611834 83.4445,248.5115 C83.3581662,248.411166 83.2893336,248.294501 83.238,248.1615 C83.1866664,248.028499 83.161,247.878001 83.161,247.71 C83.161,247.523332 83.2006663,247.347167 83.28,247.1815 C83.3593337,247.015833 83.4713326,246.871167 83.616,246.7475 C83.7606674,246.623833 83.9321657,246.527 84.1305,246.457 C84.3288343,246.387 84.5469988,246.352 84.785,246.352 C85.0510013,246.352 85.3134987,246.403333 85.5725,246.506 C85.8315013,246.608667 86.058999,246.757999 86.255,246.954 L85.73,247.605 C85.5806659,247.488333 85.4313341,247.3985 85.282,247.3355 C85.1326659,247.2725 84.9670009,247.241 84.785,247.241 C84.6076658,247.241 84.4665005,247.277166 84.3615,247.3495 C84.2564995,247.421834 84.204,247.523333 84.204,247.654 C84.204,247.724 84.2214998,247.7835 84.2565,247.8325 C84.2915002,247.8815 84.3404997,247.925833 84.4035,247.9655 C84.4665003,248.005167 84.5399996,248.0425 84.624,248.0775 C84.7080004,248.1125 84.7989995,248.151 84.897,248.193 L85.485,248.431 C85.7650014,248.543001 85.9854992,248.696999 86.1465,248.893 C86.3075008,249.089001 86.388,249.347998 86.388,249.67 C86.388,249.861334 86.3495004,250.042166 86.2725,250.2125 C86.1954996,250.382834 86.0835007,250.532166 85.9365,250.6605 C85.7894993,250.788834 85.6086677,250.8915 85.394,250.9685 C85.1793323,251.0455 84.936668,251.084 84.666,251.084 C84.3673318,251.084 84.0698348,251.029167 83.7735,250.9195 C83.4771652,250.809833 83.2123345,250.645334 82.979,250.426 L83.567,249.719 Z" id="CONTACT-US" fill="#FFFFFF"></path>
            </g>
            <g id="Group-12" transform="translate(299.000000, 337.000000)" stroke="#979797">
                <use id="Rectangle-9" mask="url(#mask-4)" stroke-width="2" fill="#F2F2F2" stroke-dasharray="4" xlink:href="#path-3"></use>
                <g id="icon-picture" opacity="0.699999988" transform="translate(120.000000, 147.000000)">
                    <polyline id="Path-15" stroke-width="2" points="1.27086707 36.8577552 21.6022189 15.6769033 35.892556 30.6899669 44.262713 21.8964934 60.1071177 38.5422208"></polyline>
                    <circle id="Oval-6" fill="#D8D8D8" cx="50" cy="11" r="3"></circle>
                    <rect id="Rectangle-10" stroke-width="2" x="1" y="1" width="59" height="41" rx="3"></rect>
                </g>
            </g>
        </g>
    </g>
</svg>