<?xml version="1.0" encoding="UTF-8"?>
<svg width="600px" height="332px" viewBox="0 0 600 332" version="1.1" xmlns="http://www.w3.org/2000/svg" xmlns:xlink="http://www.w3.org/1999/xlink">
    <!-- Generator: Sketch 44.1 (41455) - http://www.bohemiancoding.com/sketch -->
    <title>image_text15</title>
    <desc>Created with Sketch.</desc>
    <defs>
        <rect id="path-1" x="0" y="96" width="192" height="128"></rect>
        <mask id="mask-2" maskContentUnits="userSpaceOnUse" maskUnits="objectBoundingBox" x="0" y="0" width="192" height="128" fill="white">
            <use xlink:href="#path-1"></use>
        </mask>
        <rect id="path-3" x="408" y="96" width="192" height="128"></rect>
        <mask id="mask-4" maskContentUnits="userSpaceOnUse" maskUnits="objectBoundingBox" x="0" y="0" width="192" height="128" fill="white">
            <use xlink:href="#path-3"></use>
        </mask>
        <rect id="path-5" x="204" y="96" width="192" height="128"></rect>
        <mask id="mask-6" maskContentUnits="userSpaceOnUse" maskUnits="objectBoundingBox" x="0" y="0" width="192" height="128" fill="white">
            <use xlink:href="#path-5"></use>
        </mask>
    </defs>
    <g id="Image/Text-Blocks" stroke="none" stroke-width="1" fill="none" fill-rule="evenodd">
        <g id="15">
            <use id="Rectangle-9" stroke="#979797" mask="url(#mask-2)" stroke-width="2" fill="#F2F2F2" stroke-dasharray="4" xlink:href="#path-1"></use>
            <g id="icon-picture" opacity="0.699999988" transform="translate(65.000000, 139.000000)" stroke="#979797">
                <polyline id="Path-15" stroke-width="2" points="1.27086707 36.8577552 21.6022189 15.6769033 35.892556 30.6899669 44.262713 21.8964934 60.1071177 38.5422208"></polyline>
                <circle id="Oval-6" fill="#D8D8D8" cx="50" cy="11" r="3"></circle>
                <rect id="Rectangle-10" stroke-width="2" x="1" y="1" width="59" height="41" rx="3"></rect>
            </g>
            <path d="M1.666,248.438 C1.9926683,248.718001 2.35433135,248.946666 2.751,249.124 C3.14766865,249.301334 3.53733142,249.39 3.92,249.39 C4.34933548,249.39 4.66899895,249.310667 4.879,249.152 C5.08900105,248.993333 5.194,248.778668 5.194,248.508 C5.194,248.367999 5.16366697,248.246667 5.103,248.144 C5.04233303,248.041333 4.95366725,247.950334 4.837,247.871 C4.72033275,247.791666 4.58033415,247.717 4.417,247.647 L3.878,247.416 L2.688,246.912 C2.4546655,246.818666 2.22833443,246.697334 2.009,246.548 C1.78966557,246.398666 1.59366753,246.223668 1.421,246.023 C1.24833247,245.822332 1.11066718,245.589001 1.008,245.323 C0.90533282,245.056999 0.854,244.756002 0.854,244.42 C0.854,244.046665 0.93333254,243.694335 1.092,243.363 C1.25066746,243.031665 1.47466522,242.742335 1.764,242.495 C2.05333478,242.247665 2.39633135,242.054001 2.793,241.914 C3.18966865,241.773999 3.62599762,241.704 4.102,241.704 C4.63400266,241.704 5.15899741,241.806666 5.677,242.012 C6.19500259,242.217334 6.64999804,242.515998 7.042,242.908 L5.992,244.21 C5.69333184,243.976665 5.39466816,243.797001 5.096,243.671 C4.79733184,243.544999 4.46600182,243.482 4.102,243.482 C3.74733156,243.482 3.46500105,243.554333 3.255,243.699 C3.04499895,243.843667 2.94,244.046665 2.94,244.308 C2.94,244.448001 2.97499965,244.567 3.045,244.665 C3.11500035,244.763 3.21299937,244.851666 3.339,244.931 C3.46500063,245.010334 3.61199916,245.085 3.78,245.155 C3.94800084,245.225 4.12999902,245.302 4.326,245.386 L5.502,245.862 C6.0620028,246.086001 6.50299839,246.393998 6.825,246.786 C7.14700161,247.178002 7.308,247.695997 7.308,248.34 C7.308,248.722669 7.23100077,249.084332 7.077,249.425 C6.92299923,249.765668 6.69900147,250.064332 6.405,250.321 C6.11099853,250.577668 5.74933548,250.782999 5.32,250.937 C4.89066452,251.091001 4.40533604,251.168 3.864,251.168 C3.26666368,251.168 2.67166963,251.058334 2.079,250.839 C1.48633037,250.619666 0.956669,250.290669 0.49,249.852 L1.666,248.438 Z M8.288,247.528 C8.288,246.94933 8.3813324,246.433669 8.568,245.981 C8.7546676,245.528331 9.00433177,245.148002 9.317,244.84 C9.62966823,244.531998 9.99133128,244.296334 10.402,244.133 C10.8126687,243.969666 11.2373311,243.888 11.676,243.888 C12.1146689,243.888 12.536998,243.969666 12.943,244.133 C13.349002,244.296334 13.7083318,244.531998 14.021,244.84 C14.3336682,245.148002 14.5833324,245.528331 14.77,245.981 C14.9566676,246.433669 15.05,246.94933 15.05,247.528 C15.05,248.10667 14.9566676,248.622331 14.77,249.075 C14.5833324,249.527669 14.3336682,249.907998 14.021,250.216 C13.7083318,250.524002 13.349002,250.759666 12.943,250.923 C12.536998,251.086334 12.1146689,251.168 11.676,251.168 C11.2373311,251.168 10.8126687,251.086334 10.402,250.923 C9.99133128,250.759666 9.62966823,250.524002 9.317,250.216 C9.00433177,249.907998 8.7546676,249.527669 8.568,249.075 C8.3813324,248.622331 8.288,248.10667 8.288,247.528 Z M10.402,247.528 C10.402,248.13467 10.506999,248.615332 10.717,248.97 C10.9270011,249.324668 11.2466645,249.502 11.676,249.502 C12.0960021,249.502 12.4133323,249.324668 12.628,248.97 C12.8426677,248.615332 12.95,248.13467 12.95,247.528 C12.95,246.92133 12.8426677,246.440668 12.628,246.086 C12.4133323,245.731332 12.0960021,245.554 11.676,245.554 C11.2466645,245.554 10.9270011,245.731332 10.717,246.086 C10.506999,246.440668 10.402,246.92133 10.402,247.528 Z M16.464,241.186 L18.522,241.186 L18.522,248.928 C18.522,249.142668 18.5616663,249.292 18.641,249.376 C18.7203337,249.46 18.8019996,249.502 18.886,249.502 L19.005,249.502 C19.0376668,249.502 19.0819997,249.492667 19.138,249.474 L19.39,251 C19.2779994,251.046667 19.1356675,251.086333 18.963,251.119 C18.7903325,251.151667 18.5873345,251.168 18.354,251.168 C17.9993316,251.168 17.7006679,251.112001 17.458,251 C17.2153321,250.887999 17.0216674,250.731668 16.877,250.531 C16.7323326,250.330332 16.6273337,250.087668 16.562,249.803 C16.4966663,249.518332 16.464,249.198668 16.464,248.844 L16.464,241.186 Z M20.398,244.056 L22.456,244.056 L22.456,248.102 C22.456,248.606003 22.5259993,248.951332 22.666,249.138 C22.8060007,249.324668 23.0253318,249.418 23.324,249.418 C23.5853346,249.418 23.8046658,249.357334 23.982,249.236 C24.1593342,249.114666 24.3506656,248.918668 24.556,248.648 L24.556,244.056 L26.614,244.056 L26.614,251 L24.934,251 L24.78,250.034 L24.738,250.034 C24.4393318,250.388668 24.1196684,250.666332 23.779,250.867 C23.4383316,251.067668 23.0300024,251.168 22.554,251.168 C21.7979962,251.168 21.2496684,250.920669 20.909,250.426 C20.5683316,249.931331 20.398,249.245338 20.398,248.368 L20.398,244.056 Z M28.7,245.666 L27.748,245.666 L27.748,244.14 L28.812,244.056 L29.05,242.208 L30.758,242.208 L30.758,244.056 L32.424,244.056 L32.424,245.666 L30.758,245.666 L30.758,248.452 C30.758,248.844002 30.8396659,249.126332 31.003,249.299 C31.1663342,249.471668 31.383332,249.558 31.654,249.558 C31.7660006,249.558 31.8803328,249.544 31.997,249.516 C32.1136673,249.488 32.2186662,249.455334 32.312,249.418 L32.634,250.916 C32.4473324,250.972 32.2280013,251.028 31.976,251.084 C31.7239987,251.14 31.4300017,251.168 31.094,251.168 C30.6646645,251.168 30.2983349,251.102667 29.995,250.972 C29.6916652,250.841333 29.4443343,250.659334 29.253,250.426 C29.0616657,250.192665 28.9216671,249.910335 28.833,249.579 C28.7443329,249.247665 28.7,248.881335 28.7,248.48 L28.7,245.666 Z M34.804,243.034 C34.4586649,243.034 34.1740011,242.933668 33.95,242.733 C33.7259989,242.532332 33.614,242.273335 33.614,241.956 C33.614,241.638665 33.7259989,241.382001 33.95,241.186 C34.1740011,240.989999 34.4586649,240.892 34.804,240.892 C35.1586684,240.892 35.4456656,240.989999 35.665,241.186 C35.8843344,241.382001 35.994,241.638665 35.994,241.956 C35.994,242.273335 35.8843344,242.532332 35.665,242.733 C35.4456656,242.933668 35.1586684,243.034 34.804,243.034 Z M33.782,244.056 L35.84,244.056 L35.84,251 L33.782,251 L33.782,244.056 Z M37.24,247.528 C37.24,246.94933 37.3333324,246.433669 37.52,245.981 C37.7066676,245.528331 37.9563318,245.148002 38.269,244.84 C38.5816682,244.531998 38.9433313,244.296334 39.354,244.133 C39.7646687,243.969666 40.1893311,243.888 40.628,243.888 C41.0666689,243.888 41.488998,243.969666 41.895,244.133 C42.301002,244.296334 42.6603318,244.531998 42.973,244.84 C43.2856682,245.148002 43.5353324,245.528331 43.722,245.981 C43.9086676,246.433669 44.002,246.94933 44.002,247.528 C44.002,248.10667 43.9086676,248.622331 43.722,249.075 C43.5353324,249.527669 43.2856682,249.907998 42.973,250.216 C42.6603318,250.524002 42.301002,250.759666 41.895,250.923 C41.488998,251.086334 41.0666689,251.168 40.628,251.168 C40.1893311,251.168 39.7646687,251.086334 39.354,250.923 C38.9433313,250.759666 38.5816682,250.524002 38.269,250.216 C37.9563318,249.907998 37.7066676,249.527669 37.52,249.075 C37.3333324,248.622331 37.24,248.10667 37.24,247.528 Z M39.354,247.528 C39.354,248.13467 39.4589989,248.615332 39.669,248.97 C39.879001,249.324668 40.1986645,249.502 40.628,249.502 C41.0480021,249.502 41.3653323,249.324668 41.58,248.97 C41.7946677,248.615332 41.902,248.13467 41.902,247.528 C41.902,246.92133 41.7946677,246.440668 41.58,246.086 C41.3653323,245.731332 41.0480021,245.554 40.628,245.554 C40.1986645,245.554 39.879001,245.731332 39.669,246.086 C39.4589989,246.440668 39.354,246.92133 39.354,247.528 Z M45.416,244.056 L47.096,244.056 L47.236,244.938 L47.292,244.938 C47.5906682,244.657999 47.9173316,244.413001 48.272,244.203 C48.6266684,243.992999 49.0419976,243.888 49.518,243.888 C50.2740038,243.888 50.8223316,244.135331 51.163,244.63 C51.5036684,245.124669 51.674,245.810662 51.674,246.688 L51.674,251 L49.616,251 L49.616,246.954 C49.616,246.449997 49.548334,246.104668 49.413,245.918 C49.277666,245.731332 49.0606682,245.638 48.762,245.638 C48.5006654,245.638 48.2766676,245.696333 48.09,245.813 C47.9033324,245.929667 47.6980011,246.095332 47.474,246.31 L47.474,251 L45.416,251 L45.416,244.056 Z M53.732,248.914 C54.0493349,249.156668 54.3526652,249.338666 54.642,249.46 C54.9313348,249.581334 55.2253318,249.642 55.524,249.642 C55.8320015,249.642 56.0559993,249.590667 56.196,249.488 C56.3360007,249.385333 56.406,249.240668 56.406,249.054 C56.406,248.941999 56.3663337,248.841667 56.287,248.753 C56.2076663,248.664333 56.100334,248.582667 55.965,248.508 C55.829666,248.433333 55.6780008,248.365667 55.51,248.305 C55.3419992,248.244333 55.1693342,248.176667 54.992,248.102 C54.7773323,248.018 54.5626677,247.920001 54.348,247.808 C54.1333323,247.695999 53.9373342,247.558334 53.76,247.395 C53.5826658,247.231666 53.4380006,247.040334 53.326,246.821 C53.2139994,246.601666 53.158,246.347335 53.158,246.058 C53.158,245.740665 53.2209994,245.446668 53.347,245.176 C53.4730006,244.905332 53.6526655,244.676668 53.886,244.49 C54.1193345,244.303332 54.3993317,244.156334 54.726,244.049 C55.0526683,243.941666 55.4166647,243.888 55.818,243.888 C56.3500027,243.888 56.8166647,243.978999 57.218,244.161 C57.6193353,244.343001 57.9693318,244.545999 58.268,244.77 L57.344,246.002 C57.0919987,245.815332 56.8446679,245.670667 56.602,245.568 C56.3593321,245.465333 56.1166679,245.414 55.874,245.414 C55.3513307,245.414 55.09,245.595998 55.09,245.96 C55.09,246.072001 55.127333,246.167666 55.202,246.247 C55.276667,246.326334 55.3769994,246.398666 55.503,246.464 C55.6290006,246.529334 55.7736659,246.592333 55.937,246.653 C56.1003342,246.713667 56.2706658,246.776666 56.448,246.842 C56.6720011,246.926 56.8936656,247.021666 57.113,247.129 C57.3323344,247.236334 57.5329991,247.369333 57.715,247.528 C57.8970009,247.686667 58.0439994,247.880332 58.156,248.109 C58.2680006,248.337668 58.324,248.610665 58.324,248.928 C58.324,249.245335 58.2633339,249.539332 58.142,249.81 C58.0206661,250.080668 57.8386679,250.316332 57.596,250.517 C57.3533321,250.717668 57.0546684,250.876333 56.7,250.993 C56.3453316,251.109667 55.934669,251.168 55.468,251.168 C55.0106644,251.168 54.5416691,251.079334 54.061,250.902 C53.5803309,250.724666 53.1626684,250.491335 52.808,250.202 L53.732,248.914 Z" id="Solutions" fill="#79797B"></path>
            <path d="M2.5,274 L180.570211,274" id="Line" stroke="#979797" stroke-width="4" stroke-linecap="square"></path>
            <path d="M2.5,288 L42.0126562,288" id="Line" stroke="#979797" stroke-width="4" stroke-linecap="square"></path>
            <rect id="Rectangle-12" stroke="#79797B" x="0.5" y="309.5" width="57" height="22"></rect>
            <path d="M9.176,320.496 L9.784,320.496 C10.0933349,320.496 10.3293325,320.430667 10.492,320.3 C10.6546675,320.169333 10.736,319.976001 10.736,319.72 C10.736,319.463999 10.6546675,319.285334 10.492,319.184 C10.3293325,319.082666 10.0933349,319.032 9.784,319.032 L9.176,319.032 L9.176,320.496 Z M10.824,323.312 L9.824,321.432 L9.176,321.432 L9.176,323.312 L8,323.312 L8,318.096 L9.88,318.096 C10.1573347,318.096 10.4173321,318.122666 10.66,318.176 C10.9026679,318.229334 11.1146658,318.318666 11.296,318.444 C11.4773342,318.569334 11.6213328,318.735999 11.728,318.944 C11.8346672,319.152001 11.888,319.410665 11.888,319.72 C11.888,320.104002 11.8040008,320.419999 11.636,320.668 C11.4679992,320.916001 11.2426681,321.101333 10.96,321.224 L12.144,323.312 L10.824,323.312 Z M12.928,318.096 L16.192,318.096 L16.192,319.088 L14.104,319.088 L14.104,320.136 L15.88,320.136 L15.88,321.12 L14.104,321.12 L14.104,322.32 L16.272,322.32 L16.272,323.312 L12.928,323.312 L12.928,318.096 Z M19.52,321.152 L19.4,320.672 C19.325333,320.410665 19.2533337,320.133335 19.184,319.84 C19.1146663,319.546665 19.0453337,319.264001 18.976,318.992 L18.944,318.992 C18.8799997,319.269335 18.814667,319.553332 18.748,319.844 C18.681333,320.134668 18.610667,320.410665 18.536,320.672 L18.408,321.152 L19.52,321.152 Z M19.76,322.072 L18.168,322.072 L17.848,323.312 L16.648,323.312 L18.28,318.096 L19.696,318.096 L21.328,323.312 L20.08,323.312 L19.76,322.072 Z M21.896,318.096 L23.368,318.096 C23.768002,318.096 24.1279984,318.146666 24.448,318.248 C24.7680016,318.349334 25.0426655,318.505332 25.272,318.716 C25.5013345,318.926668 25.6773327,319.194665 25.8,319.52 C25.9226673,319.845335 25.984,320.231998 25.984,320.68 C25.984,321.128002 25.9226673,321.517332 25.8,321.848 C25.6773327,322.178668 25.5040011,322.451999 25.28,322.668 C25.0559989,322.884001 24.7880016,323.045333 24.476,323.152 C24.1639984,323.258667 23.8160019,323.312 23.432,323.312 L21.896,323.312 L21.896,318.096 Z M23.296,322.36 C23.5200011,322.36 23.7226658,322.330667 23.904,322.272 C24.0853342,322.213333 24.2399994,322.118667 24.368,321.988 C24.4960006,321.857333 24.5959996,321.685334 24.668,321.472 C24.7400004,321.258666 24.776,320.994668 24.776,320.68 C24.776,320.370665 24.7400004,320.110668 24.668,319.9 C24.5959996,319.689332 24.4960006,319.521334 24.368,319.396 C24.2399994,319.270666 24.0853342,319.181334 23.904,319.128 C23.7226658,319.074666 23.5200011,319.048 23.296,319.048 L23.072,319.048 L23.072,322.36 L23.296,322.36 Z M28.64,318.096 L29.888,318.096 L30.76,320.44 L31.072,321.352 L31.104,321.352 L31.416,320.44 L32.264,318.096 L33.504,318.096 L33.504,323.312 L32.408,323.312 L32.408,321.4 C32.408,321.271999 32.4133333,321.130667 32.424,320.976 C32.4346667,320.821333 32.4479999,320.665334 32.464,320.508 C32.4800001,320.350666 32.4959999,320.196001 32.512,320.044 C32.5280001,319.891999 32.5439999,319.752001 32.56,319.624 L32.528,319.624 L32.096,320.832 L31.296,322.856 L30.824,322.856 L30.024,320.832 L29.608,319.624 L29.576,319.624 C29.5920001,319.752001 29.6079999,319.891999 29.624,320.044 C29.6400001,320.196001 29.6546666,320.350666 29.668,320.508 C29.6813334,320.665334 29.6933333,320.821333 29.704,320.976 C29.7146667,321.130667 29.72,321.271999 29.72,321.4 L29.72,323.312 L28.64,323.312 L28.64,318.096 Z M36.856,323.408 C36.5039982,323.408 36.1826681,323.345334 35.892,323.22 C35.6013319,323.094666 35.352001,322.914668 35.144,322.68 C34.935999,322.445332 34.7746672,322.160002 34.66,321.824 C34.5453328,321.487998 34.488,321.106669 34.488,320.68 C34.488,320.253331 34.5453328,319.873335 34.66,319.54 C34.7746672,319.206665 34.935999,318.926668 35.144,318.7 C35.352001,318.473332 35.6013319,318.300001 35.892,318.18 C36.1826681,318.059999 36.5039982,318 36.856,318 C37.2080018,318 37.5293319,318.059999 37.82,318.18 C38.1106681,318.300001 38.359999,318.474666 38.568,318.704 C38.776001,318.933334 38.9373328,319.214665 39.052,319.548 C39.1666672,319.881335 39.224,320.258665 39.224,320.68 C39.224,321.106669 39.1666672,321.487998 39.052,321.824 C38.9373328,322.160002 38.776001,322.445332 38.568,322.68 C38.359999,322.914668 38.1106681,323.094666 37.82,323.22 C37.5293319,323.345334 37.2080018,323.408 36.856,323.408 Z M36.856,322.392 C37.2133351,322.392 37.495999,322.238668 37.704,321.932 C37.912001,321.625332 38.016,321.208003 38.016,320.68 C38.016,320.157331 37.912001,319.749335 37.704,319.456 C37.495999,319.162665 37.2133351,319.016 36.856,319.016 C36.4986649,319.016 36.216001,319.162665 36.008,319.456 C35.799999,319.749335 35.696,320.157331 35.696,320.68 C35.696,321.208003 35.799999,321.625332 36.008,321.932 C36.216001,322.238668 36.4986649,322.392 36.856,322.392 Z M41.384,320.496 L41.992,320.496 C42.3013349,320.496 42.5373325,320.430667 42.7,320.3 C42.8626675,320.169333 42.944,319.976001 42.944,319.72 C42.944,319.463999 42.8626675,319.285334 42.7,319.184 C42.5373325,319.082666 42.3013349,319.032 41.992,319.032 L41.384,319.032 L41.384,320.496 Z M43.032,323.312 L42.032,321.432 L41.384,321.432 L41.384,323.312 L40.208,323.312 L40.208,318.096 L42.088,318.096 C42.3653347,318.096 42.6253321,318.122666 42.868,318.176 C43.1106679,318.229334 43.3226658,318.318666 43.504,318.444 C43.6853342,318.569334 43.8293328,318.735999 43.936,318.944 C44.0426672,319.152001 44.096,319.410665 44.096,319.72 C44.096,320.104002 44.0120008,320.419999 43.844,320.668 C43.6759992,320.916001 43.4506681,321.101333 43.168,321.224 L44.352,323.312 L43.032,323.312 Z M45.136,318.096 L48.4,318.096 L48.4,319.088 L46.312,319.088 L46.312,320.136 L48.088,320.136 L48.088,321.12 L46.312,321.12 L46.312,322.32 L48.48,322.32 L48.48,323.312 L45.136,323.312 L45.136,318.096 Z" id="READ-MORE" fill="#79797B"></path>
            <use id="Rectangle-9" stroke="#979797" mask="url(#mask-4)" stroke-width="2" fill="#F2F2F2" stroke-dasharray="4" xlink:href="#path-3"></use>
            <g id="icon-picture" opacity="0.699999988" transform="translate(473.000000, 139.000000)" stroke="#979797">
                <polyline id="Path-15" stroke-width="2" points="1.27086707 36.8577552 21.6022189 15.6769033 35.892556 30.6899669 44.262713 21.8964934 60.1071177 38.5422208"></polyline>
                <circle id="Oval-6" fill="#D8D8D8" cx="50" cy="11" r="3"></circle>
                <rect id="Rectangle-10" stroke-width="2" x="1" y="1" width="59" height="41" rx="3"></rect>
            </g>
            <path d="M409.666,248.438 C409.992668,248.718001 410.354331,248.946666 410.751,249.124 C411.147669,249.301334 411.537331,249.39 411.92,249.39 C412.349335,249.39 412.668999,249.310667 412.879,249.152 C413.089001,248.993333 413.194,248.778668 413.194,248.508 C413.194,248.367999 413.163667,248.246667 413.103,248.144 C413.042333,248.041333 412.953667,247.950334 412.837,247.871 C412.720333,247.791666 412.580334,247.717 412.417,247.647 L411.878,247.416 L410.688,246.912 C410.454666,246.818666 410.228334,246.697334 410.009,246.548 C409.789666,246.398666 409.593668,246.223668 409.421,246.023 C409.248332,245.822332 409.110667,245.589001 409.008,245.323 C408.905333,245.056999 408.854,244.756002 408.854,244.42 C408.854,244.046665 408.933333,243.694335 409.092,243.363 C409.250667,243.031665 409.474665,242.742335 409.764,242.495 C410.053335,242.247665 410.396331,242.054001 410.793,241.914 C411.189669,241.773999 411.625998,241.704 412.102,241.704 C412.634003,241.704 413.158997,241.806666 413.677,242.012 C414.195003,242.217334 414.649998,242.515998 415.042,242.908 L413.992,244.21 C413.693332,243.976665 413.394668,243.797001 413.096,243.671 C412.797332,243.544999 412.466002,243.482 412.102,243.482 C411.747332,243.482 411.465001,243.554333 411.255,243.699 C411.044999,243.843667 410.94,244.046665 410.94,244.308 C410.94,244.448001 410.975,244.567 411.045,244.665 C411.115,244.763 411.212999,244.851666 411.339,244.931 C411.465001,245.010334 411.611999,245.085 411.78,245.155 C411.948001,245.225 412.129999,245.302 412.326,245.386 L413.502,245.862 C414.062003,246.086001 414.502998,246.393998 414.825,246.786 C415.147002,247.178002 415.308,247.695997 415.308,248.34 C415.308,248.722669 415.231001,249.084332 415.077,249.425 C414.922999,249.765668 414.699001,250.064332 414.405,250.321 C414.110999,250.577668 413.749335,250.782999 413.32,250.937 C412.890665,251.091001 412.405336,251.168 411.864,251.168 C411.266664,251.168 410.67167,251.058334 410.079,250.839 C409.48633,250.619666 408.956669,250.290669 408.49,249.852 L409.666,248.438 Z M416.624,244.056 L418.682,244.056 L418.682,248.102 C418.682,248.606003 418.751999,248.951332 418.892,249.138 C419.032001,249.324668 419.251332,249.418 419.55,249.418 C419.811335,249.418 420.030666,249.357334 420.208,249.236 C420.385334,249.114666 420.576666,248.918668 420.782,248.648 L420.782,244.056 L422.84,244.056 L422.84,251 L421.16,251 L421.006,250.034 L420.964,250.034 C420.665332,250.388668 420.345668,250.666332 420.005,250.867 C419.664332,251.067668 419.256002,251.168 418.78,251.168 C418.023996,251.168 417.475668,250.920669 417.135,250.426 C416.794332,249.931331 416.624,249.245338 416.624,248.368 L416.624,244.056 Z M426.704,251.546 L426.704,253.576 L424.646,253.576 L424.646,244.056 L426.326,244.056 L426.466,244.742 L426.522,244.742 C426.792668,244.499332 427.098332,244.296334 427.439,244.133 C427.779668,243.969666 428.131998,243.888 428.496,243.888 C428.916002,243.888 429.293998,243.971999 429.63,244.14 C429.966002,244.308001 430.250666,244.545998 430.484,244.854 C430.717334,245.162002 430.896999,245.532998 431.023,245.967 C431.149001,246.401002 431.212,246.883997 431.212,247.416 C431.212,248.013336 431.130334,248.542998 430.967,249.005 C430.803666,249.467002 430.584335,249.858998 430.309,250.181 C430.033665,250.503002 429.721002,250.747999 429.371,250.916 C429.020998,251.084001 428.659335,251.168 428.286,251.168 C427.987332,251.168 427.698001,251.105001 427.418,250.979 C427.137999,250.852999 426.876668,250.673334 426.634,250.44 L426.704,251.546 Z M426.704,249.04 C426.890668,249.208001 427.077332,249.324666 427.264,249.39 C427.450668,249.455334 427.632666,249.488 427.81,249.488 C428.164668,249.488 428.467999,249.327002 428.72,249.005 C428.972001,248.682998 429.098,248.16267 429.098,247.444 C429.098,246.193327 428.696671,245.568 427.894,245.568 C427.492665,245.568 427.096002,245.777998 426.704,246.198 L426.704,249.04 Z M434.726,251.546 L434.726,253.576 L432.668,253.576 L432.668,244.056 L434.348,244.056 L434.488,244.742 L434.544,244.742 C434.814668,244.499332 435.120332,244.296334 435.461,244.133 C435.801668,243.969666 436.153998,243.888 436.518,243.888 C436.938002,243.888 437.315998,243.971999 437.652,244.14 C437.988002,244.308001 438.272666,244.545998 438.506,244.854 C438.739334,245.162002 438.918999,245.532998 439.045,245.967 C439.171001,246.401002 439.234,246.883997 439.234,247.416 C439.234,248.013336 439.152334,248.542998 438.989,249.005 C438.825666,249.467002 438.606335,249.858998 438.331,250.181 C438.055665,250.503002 437.743002,250.747999 437.393,250.916 C437.042998,251.084001 436.681335,251.168 436.308,251.168 C436.009332,251.168 435.720001,251.105001 435.44,250.979 C435.159999,250.852999 434.898668,250.673334 434.656,250.44 L434.726,251.546 Z M434.726,249.04 C434.912668,249.208001 435.099332,249.324666 435.286,249.39 C435.472668,249.455334 435.654666,249.488 435.832,249.488 C436.186668,249.488 436.489999,249.327002 436.742,249.005 C436.994001,248.682998 437.12,248.16267 437.12,247.444 C437.12,246.193327 436.718671,245.568 435.916,245.568 C435.514665,245.568 435.118002,245.777998 434.726,246.198 L434.726,249.04 Z M440.284,247.528 C440.284,246.94933 440.377332,246.433669 440.564,245.981 C440.750668,245.528331 441.000332,245.148002 441.313,244.84 C441.625668,244.531998 441.987331,244.296334 442.398,244.133 C442.808669,243.969666 443.233331,243.888 443.672,243.888 C444.110669,243.888 444.532998,243.969666 444.939,244.133 C445.345002,244.296334 445.704332,244.531998 446.017,244.84 C446.329668,245.148002 446.579332,245.528331 446.766,245.981 C446.952668,246.433669 447.046,246.94933 447.046,247.528 C447.046,248.10667 446.952668,248.622331 446.766,249.075 C446.579332,249.527669 446.329668,249.907998 446.017,250.216 C445.704332,250.524002 445.345002,250.759666 444.939,250.923 C444.532998,251.086334 444.110669,251.168 443.672,251.168 C443.233331,251.168 442.808669,251.086334 442.398,250.923 C441.987331,250.759666 441.625668,250.524002 441.313,250.216 C441.000332,249.907998 440.750668,249.527669 440.564,249.075 C440.377332,248.622331 440.284,248.10667 440.284,247.528 Z M442.398,247.528 C442.398,248.13467 442.502999,248.615332 442.713,248.97 C442.923001,249.324668 443.242665,249.502 443.672,249.502 C444.092002,249.502 444.409332,249.324668 444.624,248.97 C444.838668,248.615332 444.946,248.13467 444.946,247.528 C444.946,246.92133 444.838668,246.440668 444.624,246.086 C444.409332,245.731332 444.092002,245.554 443.672,245.554 C443.242665,245.554 442.923001,245.731332 442.713,246.086 C442.502999,246.440668 442.398,246.92133 442.398,247.528 Z M448.46,244.056 L450.14,244.056 L450.28,245.274 L450.336,245.274 C450.588001,244.797998 450.891332,244.448001 451.246,244.224 C451.600668,243.999999 451.955332,243.888 452.31,243.888 C452.506001,243.888 452.666999,243.899667 452.793,243.923 C452.919001,243.946333 453.033333,243.981333 453.136,244.028 L452.8,245.806 C452.669333,245.768666 452.548001,245.740667 452.436,245.722 C452.323999,245.703333 452.193334,245.694 452.044,245.694 C451.782665,245.694 451.509668,245.787332 451.225,245.974 C450.940332,246.160668 450.704668,246.491998 450.518,246.968 L450.518,251 L448.46,251 L448.46,244.056 Z M454.312,245.666 L453.36,245.666 L453.36,244.14 L454.424,244.056 L454.662,242.208 L456.37,242.208 L456.37,244.056 L458.036,244.056 L458.036,245.666 L456.37,245.666 L456.37,248.452 C456.37,248.844002 456.451666,249.126332 456.615,249.299 C456.778334,249.471668 456.995332,249.558 457.266,249.558 C457.378001,249.558 457.492333,249.544 457.609,249.516 C457.725667,249.488 457.830666,249.455334 457.924,249.418 L458.246,250.916 C458.059332,250.972 457.840001,251.028 457.588,251.084 C457.335999,251.14 457.042002,251.168 456.706,251.168 C456.276665,251.168 455.910335,251.102667 455.607,250.972 C455.303665,250.841333 455.056334,250.659334 454.865,250.426 C454.673666,250.192665 454.533667,249.910335 454.445,249.579 C454.356333,249.247665 454.312,248.881335 454.312,248.48 L454.312,245.666 Z" id="Support" fill="#79797B"></path>
            <path d="M410.5,274 L588.570211,274" id="Line" stroke="#979797" stroke-width="4" stroke-linecap="square"></path>
            <path d="M410.5,288 L450.012656,288" id="Line" stroke="#979797" stroke-width="4" stroke-linecap="square"></path>
            <rect id="Rectangle-12" stroke="#79797B" x="408.5" y="309.5" width="57" height="22"></rect>
            <path d="M417.176,320.496 L417.784,320.496 C418.093335,320.496 418.329333,320.430667 418.492,320.3 C418.654667,320.169333 418.736,319.976001 418.736,319.72 C418.736,319.463999 418.654667,319.285334 418.492,319.184 C418.329333,319.082666 418.093335,319.032 417.784,319.032 L417.176,319.032 L417.176,320.496 Z M418.824,323.312 L417.824,321.432 L417.176,321.432 L417.176,323.312 L416,323.312 L416,318.096 L417.88,318.096 C418.157335,318.096 418.417332,318.122666 418.66,318.176 C418.902668,318.229334 419.114666,318.318666 419.296,318.444 C419.477334,318.569334 419.621333,318.735999 419.728,318.944 C419.834667,319.152001 419.888,319.410665 419.888,319.72 C419.888,320.104002 419.804001,320.419999 419.636,320.668 C419.467999,320.916001 419.242668,321.101333 418.96,321.224 L420.144,323.312 L418.824,323.312 Z M420.928,318.096 L424.192,318.096 L424.192,319.088 L422.104,319.088 L422.104,320.136 L423.88,320.136 L423.88,321.12 L422.104,321.12 L422.104,322.32 L424.272,322.32 L424.272,323.312 L420.928,323.312 L420.928,318.096 Z M427.52,321.152 L427.4,320.672 C427.325333,320.410665 427.253334,320.133335 427.184,319.84 C427.114666,319.546665 427.045334,319.264001 426.976,318.992 L426.944,318.992 C426.88,319.269335 426.814667,319.553332 426.748,319.844 C426.681333,320.134668 426.610667,320.410665 426.536,320.672 L426.408,321.152 L427.52,321.152 Z M427.76,322.072 L426.168,322.072 L425.848,323.312 L424.648,323.312 L426.28,318.096 L427.696,318.096 L429.328,323.312 L428.08,323.312 L427.76,322.072 Z M429.896,318.096 L431.368,318.096 C431.768002,318.096 432.127998,318.146666 432.448,318.248 C432.768002,318.349334 433.042666,318.505332 433.272,318.716 C433.501334,318.926668 433.677333,319.194665 433.8,319.52 C433.922667,319.845335 433.984,320.231998 433.984,320.68 C433.984,321.128002 433.922667,321.517332 433.8,321.848 C433.677333,322.178668 433.504001,322.451999 433.28,322.668 C433.055999,322.884001 432.788002,323.045333 432.476,323.152 C432.163998,323.258667 431.816002,323.312 431.432,323.312 L429.896,323.312 L429.896,318.096 Z M431.296,322.36 C431.520001,322.36 431.722666,322.330667 431.904,322.272 C432.085334,322.213333 432.239999,322.118667 432.368,321.988 C432.496001,321.857333 432.596,321.685334 432.668,321.472 C432.74,321.258666 432.776,320.994668 432.776,320.68 C432.776,320.370665 432.74,320.110668 432.668,319.9 C432.596,319.689332 432.496001,319.521334 432.368,319.396 C432.239999,319.270666 432.085334,319.181334 431.904,319.128 C431.722666,319.074666 431.520001,319.048 431.296,319.048 L431.072,319.048 L431.072,322.36 L431.296,322.36 Z M436.64,318.096 L437.888,318.096 L438.76,320.44 L439.072,321.352 L439.104,321.352 L439.416,320.44 L440.264,318.096 L441.504,318.096 L441.504,323.312 L440.408,323.312 L440.408,321.4 C440.408,321.271999 440.413333,321.130667 440.424,320.976 C440.434667,320.821333 440.448,320.665334 440.464,320.508 C440.48,320.350666 440.496,320.196001 440.512,320.044 C440.528,319.891999 440.544,319.752001 440.56,319.624 L440.528,319.624 L440.096,320.832 L439.296,322.856 L438.824,322.856 L438.024,320.832 L437.608,319.624 L437.576,319.624 C437.592,319.752001 437.608,319.891999 437.624,320.044 C437.64,320.196001 437.654667,320.350666 437.668,320.508 C437.681333,320.665334 437.693333,320.821333 437.704,320.976 C437.714667,321.130667 437.72,321.271999 437.72,321.4 L437.72,323.312 L436.64,323.312 L436.64,318.096 Z M444.856,323.408 C444.503998,323.408 444.182668,323.345334 443.892,323.22 C443.601332,323.094666 443.352001,322.914668 443.144,322.68 C442.935999,322.445332 442.774667,322.160002 442.66,321.824 C442.545333,321.487998 442.488,321.106669 442.488,320.68 C442.488,320.253331 442.545333,319.873335 442.66,319.54 C442.774667,319.206665 442.935999,318.926668 443.144,318.7 C443.352001,318.473332 443.601332,318.300001 443.892,318.18 C444.182668,318.059999 444.503998,318 444.856,318 C445.208002,318 445.529332,318.059999 445.82,318.18 C446.110668,318.300001 446.359999,318.474666 446.568,318.704 C446.776001,318.933334 446.937333,319.214665 447.052,319.548 C447.166667,319.881335 447.224,320.258665 447.224,320.68 C447.224,321.106669 447.166667,321.487998 447.052,321.824 C446.937333,322.160002 446.776001,322.445332 446.568,322.68 C446.359999,322.914668 446.110668,323.094666 445.82,323.22 C445.529332,323.345334 445.208002,323.408 444.856,323.408 Z M444.856,322.392 C445.213335,322.392 445.495999,322.238668 445.704,321.932 C445.912001,321.625332 446.016,321.208003 446.016,320.68 C446.016,320.157331 445.912001,319.749335 445.704,319.456 C445.495999,319.162665 445.213335,319.016 444.856,319.016 C444.498665,319.016 444.216001,319.162665 444.008,319.456 C443.799999,319.749335 443.696,320.157331 443.696,320.68 C443.696,321.208003 443.799999,321.625332 444.008,321.932 C444.216001,322.238668 444.498665,322.392 444.856,322.392 Z M449.384,320.496 L449.992,320.496 C450.301335,320.496 450.537333,320.430667 450.7,320.3 C450.862667,320.169333 450.944,319.976001 450.944,319.72 C450.944,319.463999 450.862667,319.285334 450.7,319.184 C450.537333,319.082666 450.301335,319.032 449.992,319.032 L449.384,319.032 L449.384,320.496 Z M451.032,323.312 L450.032,321.432 L449.384,321.432 L449.384,323.312 L448.208,323.312 L448.208,318.096 L450.088,318.096 C450.365335,318.096 450.625332,318.122666 450.868,318.176 C451.110668,318.229334 451.322666,318.318666 451.504,318.444 C451.685334,318.569334 451.829333,318.735999 451.936,318.944 C452.042667,319.152001 452.096,319.410665 452.096,319.72 C452.096,320.104002 452.012001,320.419999 451.844,320.668 C451.675999,320.916001 451.450668,321.101333 451.168,321.224 L452.352,323.312 L451.032,323.312 Z M453.136,318.096 L456.4,318.096 L456.4,319.088 L454.312,319.088 L454.312,320.136 L456.088,320.136 L456.088,321.12 L454.312,321.12 L454.312,322.32 L456.48,322.32 L456.48,323.312 L453.136,323.312 L453.136,318.096 Z" id="READ-MORE" fill="#79797B"></path>
            <use id="Rectangle-9" stroke="#979797" mask="url(#mask-6)" stroke-width="2" fill="#F2F2F2" stroke-dasharray="4" xlink:href="#path-5"></use>
            <g id="icon-picture" opacity="0.699999988" transform="translate(269.000000, 139.000000)" stroke="#979797">
                <polyline id="Path-15" stroke-width="2" points="1.27086707 36.8577552 21.6022189 15.6769033 35.892556 30.6899669 44.262713 21.8964934 60.1071177 38.5422208"></polyline>
                <circle id="Oval-6" fill="#D8D8D8" cx="50" cy="11" r="3"></circle>
                <rect id="Rectangle-10" stroke-width="2" x="1" y="1" width="59" height="41" rx="3"></rect>
            </g>
            <path d="M205.666,248.438 C205.992668,248.718001 206.354331,248.946666 206.751,249.124 C207.147669,249.301334 207.537331,249.39 207.92,249.39 C208.349335,249.39 208.668999,249.310667 208.879,249.152 C209.089001,248.993333 209.194,248.778668 209.194,248.508 C209.194,248.367999 209.163667,248.246667 209.103,248.144 C209.042333,248.041333 208.953667,247.950334 208.837,247.871 C208.720333,247.791666 208.580334,247.717 208.417,247.647 L207.878,247.416 L206.688,246.912 C206.454666,246.818666 206.228334,246.697334 206.009,246.548 C205.789666,246.398666 205.593668,246.223668 205.421,246.023 C205.248332,245.822332 205.110667,245.589001 205.008,245.323 C204.905333,245.056999 204.854,244.756002 204.854,244.42 C204.854,244.046665 204.933333,243.694335 205.092,243.363 C205.250667,243.031665 205.474665,242.742335 205.764,242.495 C206.053335,242.247665 206.396331,242.054001 206.793,241.914 C207.189669,241.773999 207.625998,241.704 208.102,241.704 C208.634003,241.704 209.158997,241.806666 209.677,242.012 C210.195003,242.217334 210.649998,242.515998 211.042,242.908 L209.992,244.21 C209.693332,243.976665 209.394668,243.797001 209.096,243.671 C208.797332,243.544999 208.466002,243.482 208.102,243.482 C207.747332,243.482 207.465001,243.554333 207.255,243.699 C207.044999,243.843667 206.94,244.046665 206.94,244.308 C206.94,244.448001 206.975,244.567 207.045,244.665 C207.115,244.763 207.212999,244.851666 207.339,244.931 C207.465001,245.010334 207.611999,245.085 207.78,245.155 C207.948001,245.225 208.129999,245.302 208.326,245.386 L209.502,245.862 C210.062003,246.086001 210.502998,246.393998 210.825,246.786 C211.147002,247.178002 211.308,247.695997 211.308,248.34 C211.308,248.722669 211.231001,249.084332 211.077,249.425 C210.922999,249.765668 210.699001,250.064332 210.405,250.321 C210.110999,250.577668 209.749335,250.782999 209.32,250.937 C208.890665,251.091001 208.405336,251.168 207.864,251.168 C207.266664,251.168 206.67167,251.058334 206.079,250.839 C205.48633,250.619666 204.956669,250.290669 204.49,249.852 L205.666,248.438 Z M212.288,247.528 C212.288,246.967997 212.381332,246.461669 212.568,246.009 C212.754668,245.556331 212.999665,245.173668 213.303,244.861 C213.606335,244.548332 213.953998,244.308001 214.346,244.14 C214.738002,243.971999 215.143998,243.888 215.564,243.888 C216.058669,243.888 216.490331,243.971999 216.859,244.14 C217.227669,244.308001 217.535665,244.541332 217.783,244.84 C218.030335,245.138668 218.214666,245.490998 218.336,245.897 C218.457334,246.303002 218.518,246.743998 218.518,247.22 C218.518,247.406668 218.508667,247.576999 218.49,247.731 C218.471333,247.885001 218.452667,248.004 218.434,248.088 L214.276,248.088 C214.369334,248.620003 214.576998,249.004999 214.899,249.243 C215.221002,249.481001 215.615331,249.6 216.082,249.6 C216.576669,249.6 217.075997,249.446002 217.58,249.138 L218.266,250.384 C217.911332,250.626668 217.517002,250.817999 217.083,250.958 C216.648998,251.098001 216.222002,251.168 215.802,251.168 C215.307331,251.168 214.845335,251.086334 214.416,250.923 C213.986665,250.759666 213.613335,250.521668 213.296,250.209 C212.978665,249.896332 212.731334,249.516002 212.554,249.068 C212.376666,248.619998 212.288,248.10667 212.288,247.528 Z M216.768,246.814 C216.768,246.412665 216.679334,246.086001 216.502,245.834 C216.324666,245.581999 216.026002,245.456 215.606,245.456 C215.279332,245.456 214.992335,245.565666 214.745,245.785 C214.497665,246.004334 214.336667,246.347331 214.262,246.814 L216.768,246.814 Z M219.946,244.056 L221.626,244.056 L221.766,245.274 L221.822,245.274 C222.074001,244.797998 222.377332,244.448001 222.732,244.224 C223.086668,243.999999 223.441332,243.888 223.796,243.888 C223.992001,243.888 224.152999,243.899667 224.279,243.923 C224.405001,243.946333 224.519333,243.981333 224.622,244.028 L224.286,245.806 C224.155333,245.768666 224.034001,245.740667 223.922,245.722 C223.809999,245.703333 223.679334,245.694 223.53,245.694 C223.268665,245.694 222.995668,245.787332 222.711,245.974 C222.426332,246.160668 222.190668,246.491998 222.004,246.968 L222.004,251 L219.946,251 L219.946,244.056 Z M224.776,244.056 L226.848,244.056 L227.744,247.332 C227.837334,247.677335 227.928333,248.029665 228.017,248.389 C228.105667,248.748335 228.196666,249.109998 228.29,249.474 L228.346,249.474 C228.43,249.109998 228.516333,248.748335 228.605,248.389 C228.693667,248.029665 228.784666,247.677335 228.878,247.332 L229.788,244.056 L231.762,244.056 L229.494,251 L227.114,251 L224.776,244.056 Z M233.862,243.034 C233.516665,243.034 233.232001,242.933668 233.008,242.733 C232.783999,242.532332 232.672,242.273335 232.672,241.956 C232.672,241.638665 232.783999,241.382001 233.008,241.186 C233.232001,240.989999 233.516665,240.892 233.862,240.892 C234.216668,240.892 234.503666,240.989999 234.723,241.186 C234.942334,241.382001 235.052,241.638665 235.052,241.956 C235.052,242.273335 234.942334,242.532332 234.723,242.733 C234.503666,242.933668 234.216668,243.034 233.862,243.034 Z M232.84,244.056 L234.898,244.056 L234.898,251 L232.84,251 L232.84,244.056 Z M236.298,247.528 C236.298,246.94933 236.395999,246.433669 236.592,245.981 C236.788001,245.528331 237.051665,245.148002 237.383,244.84 C237.714335,244.531998 238.099331,244.296334 238.538,244.133 C238.976669,243.969666 239.433998,243.888 239.91,243.888 C240.339335,243.888 240.726665,243.960333 241.072,244.105 C241.417335,244.249667 241.706665,244.443332 241.94,244.686 L241.002,245.96 C240.675332,245.689332 240.353335,245.554 240.036,245.554 C239.531997,245.554 239.135335,245.731332 238.846,246.086 C238.556665,246.440668 238.412,246.92133 238.412,247.528 C238.412,248.13467 238.558999,248.615332 238.853,248.97 C239.147001,249.324668 239.517998,249.502 239.966,249.502 C240.218001,249.502 240.446666,249.450667 240.652,249.348 C240.857334,249.245333 241.043999,249.128667 241.212,248.998 L242.038,250.3 C241.701998,250.598668 241.328669,250.817999 240.918,250.958 C240.507331,251.098001 240.110669,251.168 239.728,251.168 C239.242664,251.168 238.792335,251.086334 238.377,250.923 C237.961665,250.759666 237.600002,250.524002 237.292,250.216 C236.983998,249.907998 236.741334,249.527669 236.564,249.075 C236.386666,248.622331 236.298,248.10667 236.298,247.528 Z M242.836,247.528 C242.836,246.967997 242.929332,246.461669 243.116,246.009 C243.302668,245.556331 243.547665,245.173668 243.851,244.861 C244.154335,244.548332 244.501998,244.308001 244.894,244.14 C245.286002,243.971999 245.691998,243.888 246.112,243.888 C246.606669,243.888 247.038331,243.971999 247.407,244.14 C247.775669,244.308001 248.083665,244.541332 248.331,244.84 C248.578335,245.138668 248.762666,245.490998 248.884,245.897 C249.005334,246.303002 249.066,246.743998 249.066,247.22 C249.066,247.406668 249.056667,247.576999 249.038,247.731 C249.019333,247.885001 249.000667,248.004 248.982,248.088 L244.824,248.088 C244.917334,248.620003 245.124998,249.004999 245.447,249.243 C245.769002,249.481001 246.163331,249.6 246.63,249.6 C247.124669,249.6 247.623997,249.446002 248.128,249.138 L248.814,250.384 C248.459332,250.626668 248.065002,250.817999 247.631,250.958 C247.196998,251.098001 246.770002,251.168 246.35,251.168 C245.855331,251.168 245.393335,251.086334 244.964,250.923 C244.534665,250.759666 244.161335,250.521668 243.844,250.209 C243.526665,249.896332 243.279334,249.516002 243.102,249.068 C242.924666,248.619998 242.836,248.10667 242.836,247.528 Z M247.316,246.814 C247.316,246.412665 247.227334,246.086001 247.05,245.834 C246.872666,245.581999 246.574002,245.456 246.154,245.456 C245.827332,245.456 245.540335,245.565666 245.293,245.785 C245.045665,246.004334 244.884667,246.347331 244.81,246.814 L247.316,246.814 Z M250.802,248.914 C251.119335,249.156668 251.422665,249.338666 251.712,249.46 C252.001335,249.581334 252.295332,249.642 252.594,249.642 C252.902002,249.642 253.125999,249.590667 253.266,249.488 C253.406001,249.385333 253.476,249.240668 253.476,249.054 C253.476,248.941999 253.436334,248.841667 253.357,248.753 C253.277666,248.664333 253.170334,248.582667 253.035,248.508 C252.899666,248.433333 252.748001,248.365667 252.58,248.305 C252.411999,248.244333 252.239334,248.176667 252.062,248.102 C251.847332,248.018 251.632668,247.920001 251.418,247.808 C251.203332,247.695999 251.007334,247.558334 250.83,247.395 C250.652666,247.231666 250.508001,247.040334 250.396,246.821 C250.283999,246.601666 250.228,246.347335 250.228,246.058 C250.228,245.740665 250.290999,245.446668 250.417,245.176 C250.543001,244.905332 250.722666,244.676668 250.956,244.49 C251.189335,244.303332 251.469332,244.156334 251.796,244.049 C252.122668,243.941666 252.486665,243.888 252.888,243.888 C253.420003,243.888 253.886665,243.978999 254.288,244.161 C254.689335,244.343001 255.039332,244.545999 255.338,244.77 L254.414,246.002 C254.161999,245.815332 253.914668,245.670667 253.672,245.568 C253.429332,245.465333 253.186668,245.414 252.944,245.414 C252.421331,245.414 252.16,245.595998 252.16,245.96 C252.16,246.072001 252.197333,246.167666 252.272,246.247 C252.346667,246.326334 252.446999,246.398666 252.573,246.464 C252.699001,246.529334 252.843666,246.592333 253.007,246.653 C253.170334,246.713667 253.340666,246.776666 253.518,246.842 C253.742001,246.926 253.963666,247.021666 254.183,247.129 C254.402334,247.236334 254.602999,247.369333 254.785,247.528 C254.967001,247.686667 255.113999,247.880332 255.226,248.109 C255.338001,248.337668 255.394,248.610665 255.394,248.928 C255.394,249.245335 255.333334,249.539332 255.212,249.81 C255.090666,250.080668 254.908668,250.316332 254.666,250.517 C254.423332,250.717668 254.124668,250.876333 253.77,250.993 C253.415332,251.109667 253.004669,251.168 252.538,251.168 C252.080664,251.168 251.611669,251.079334 251.131,250.902 C250.650331,250.724666 250.232668,250.491335 249.878,250.202 L250.802,248.914 Z" id="Services" fill="#79797B"></path>
            <path d="M206.5,274 L384.570211,274" id="Line" stroke="#979797" stroke-width="4" stroke-linecap="square"></path>
            <path d="M206.5,288 L246.012656,288" id="Line" stroke="#979797" stroke-width="4" stroke-linecap="square"></path>
            <rect id="Rectangle-12" stroke="#79797B" x="204.5" y="309.5" width="57" height="22"></rect>
            <path d="M213.176,320.496 L213.784,320.496 C214.093335,320.496 214.329333,320.430667 214.492,320.3 C214.654667,320.169333 214.736,319.976001 214.736,319.72 C214.736,319.463999 214.654667,319.285334 214.492,319.184 C214.329333,319.082666 214.093335,319.032 213.784,319.032 L213.176,319.032 L213.176,320.496 Z M214.824,323.312 L213.824,321.432 L213.176,321.432 L213.176,323.312 L212,323.312 L212,318.096 L213.88,318.096 C214.157335,318.096 214.417332,318.122666 214.66,318.176 C214.902668,318.229334 215.114666,318.318666 215.296,318.444 C215.477334,318.569334 215.621333,318.735999 215.728,318.944 C215.834667,319.152001 215.888,319.410665 215.888,319.72 C215.888,320.104002 215.804001,320.419999 215.636,320.668 C215.467999,320.916001 215.242668,321.101333 214.96,321.224 L216.144,323.312 L214.824,323.312 Z M216.928,318.096 L220.192,318.096 L220.192,319.088 L218.104,319.088 L218.104,320.136 L219.88,320.136 L219.88,321.12 L218.104,321.12 L218.104,322.32 L220.272,322.32 L220.272,323.312 L216.928,323.312 L216.928,318.096 Z M223.52,321.152 L223.4,320.672 C223.325333,320.410665 223.253334,320.133335 223.184,319.84 C223.114666,319.546665 223.045334,319.264001 222.976,318.992 L222.944,318.992 C222.88,319.269335 222.814667,319.553332 222.748,319.844 C222.681333,320.134668 222.610667,320.410665 222.536,320.672 L222.408,321.152 L223.52,321.152 Z M223.76,322.072 L222.168,322.072 L221.848,323.312 L220.648,323.312 L222.28,318.096 L223.696,318.096 L225.328,323.312 L224.08,323.312 L223.76,322.072 Z M225.896,318.096 L227.368,318.096 C227.768002,318.096 228.127998,318.146666 228.448,318.248 C228.768002,318.349334 229.042666,318.505332 229.272,318.716 C229.501334,318.926668 229.677333,319.194665 229.8,319.52 C229.922667,319.845335 229.984,320.231998 229.984,320.68 C229.984,321.128002 229.922667,321.517332 229.8,321.848 C229.677333,322.178668 229.504001,322.451999 229.28,322.668 C229.055999,322.884001 228.788002,323.045333 228.476,323.152 C228.163998,323.258667 227.816002,323.312 227.432,323.312 L225.896,323.312 L225.896,318.096 Z M227.296,322.36 C227.520001,322.36 227.722666,322.330667 227.904,322.272 C228.085334,322.213333 228.239999,322.118667 228.368,321.988 C228.496001,321.857333 228.596,321.685334 228.668,321.472 C228.74,321.258666 228.776,320.994668 228.776,320.68 C228.776,320.370665 228.74,320.110668 228.668,319.9 C228.596,319.689332 228.496001,319.521334 228.368,319.396 C228.239999,319.270666 228.085334,319.181334 227.904,319.128 C227.722666,319.074666 227.520001,319.048 227.296,319.048 L227.072,319.048 L227.072,322.36 L227.296,322.36 Z M232.64,318.096 L233.888,318.096 L234.76,320.44 L235.072,321.352 L235.104,321.352 L235.416,320.44 L236.264,318.096 L237.504,318.096 L237.504,323.312 L236.408,323.312 L236.408,321.4 C236.408,321.271999 236.413333,321.130667 236.424,320.976 C236.434667,320.821333 236.448,320.665334 236.464,320.508 C236.48,320.350666 236.496,320.196001 236.512,320.044 C236.528,319.891999 236.544,319.752001 236.56,319.624 L236.528,319.624 L236.096,320.832 L235.296,322.856 L234.824,322.856 L234.024,320.832 L233.608,319.624 L233.576,319.624 C233.592,319.752001 233.608,319.891999 233.624,320.044 C233.64,320.196001 233.654667,320.350666 233.668,320.508 C233.681333,320.665334 233.693333,320.821333 233.704,320.976 C233.714667,321.130667 233.72,321.271999 233.72,321.4 L233.72,323.312 L232.64,323.312 L232.64,318.096 Z M240.856,323.408 C240.503998,323.408 240.182668,323.345334 239.892,323.22 C239.601332,323.094666 239.352001,322.914668 239.144,322.68 C238.935999,322.445332 238.774667,322.160002 238.66,321.824 C238.545333,321.487998 238.488,321.106669 238.488,320.68 C238.488,320.253331 238.545333,319.873335 238.66,319.54 C238.774667,319.206665 238.935999,318.926668 239.144,318.7 C239.352001,318.473332 239.601332,318.300001 239.892,318.18 C240.182668,318.059999 240.503998,318 240.856,318 C241.208002,318 241.529332,318.059999 241.82,318.18 C242.110668,318.300001 242.359999,318.474666 242.568,318.704 C242.776001,318.933334 242.937333,319.214665 243.052,319.548 C243.166667,319.881335 243.224,320.258665 243.224,320.68 C243.224,321.106669 243.166667,321.487998 243.052,321.824 C242.937333,322.160002 242.776001,322.445332 242.568,322.68 C242.359999,322.914668 242.110668,323.094666 241.82,323.22 C241.529332,323.345334 241.208002,323.408 240.856,323.408 Z M240.856,322.392 C241.213335,322.392 241.495999,322.238668 241.704,321.932 C241.912001,321.625332 242.016,321.208003 242.016,320.68 C242.016,320.157331 241.912001,319.749335 241.704,319.456 C241.495999,319.162665 241.213335,319.016 240.856,319.016 C240.498665,319.016 240.216001,319.162665 240.008,319.456 C239.799999,319.749335 239.696,320.157331 239.696,320.68 C239.696,321.208003 239.799999,321.625332 240.008,321.932 C240.216001,322.238668 240.498665,322.392 240.856,322.392 Z M245.384,320.496 L245.992,320.496 C246.301335,320.496 246.537333,320.430667 246.7,320.3 C246.862667,320.169333 246.944,319.976001 246.944,319.72 C246.944,319.463999 246.862667,319.285334 246.7,319.184 C246.537333,319.082666 246.301335,319.032 245.992,319.032 L245.384,319.032 L245.384,320.496 Z M247.032,323.312 L246.032,321.432 L245.384,321.432 L245.384,323.312 L244.208,323.312 L244.208,318.096 L246.088,318.096 C246.365335,318.096 246.625332,318.122666 246.868,318.176 C247.110668,318.229334 247.322666,318.318666 247.504,318.444 C247.685334,318.569334 247.829333,318.735999 247.936,318.944 C248.042667,319.152001 248.096,319.410665 248.096,319.72 C248.096,320.104002 248.012001,320.419999 247.844,320.668 C247.675999,320.916001 247.450668,321.101333 247.168,321.224 L248.352,323.312 L247.032,323.312 Z M249.136,318.096 L252.4,318.096 L252.4,319.088 L250.312,319.088 L250.312,320.136 L252.088,320.136 L252.088,321.12 L250.312,321.12 L250.312,322.32 L252.48,322.32 L252.48,323.312 L249.136,323.312 L249.136,318.096 Z" id="READ-MORE" fill="#79797B"></path>
            <path d="M218.424,39.936 L213.672,39.936 L213.672,38.256 L225.192,38.256 L225.192,39.936 L220.44,39.936 L220.44,54 L218.424,54 L218.424,39.936 Z M226.968,48.192 C226.968,47.2319952 227.115999,46.3720038 227.412,45.612 C227.708001,44.8519962 228.099998,44.2080026 228.588,43.68 C229.076002,43.1519974 229.631997,42.7480014 230.256,42.468 C230.880003,42.1879986 231.527997,42.048 232.2,42.048 C232.936004,42.048 233.595997,42.1759987 234.18,42.432 C234.764003,42.6880013 235.251998,43.0559976 235.644,43.536 C236.036002,44.0160024 236.335999,44.5919966 236.544,45.264 C236.752001,45.9360034 236.856,46.6879958 236.856,47.52 C236.856,47.9520022 236.832,48.3119986 236.784,48.6 L228.912,48.6 C228.992,49.8640063 229.379997,50.8639963 230.076,51.6 C230.772003,52.3360037 231.679994,52.704 232.8,52.704 C233.360003,52.704 233.875998,52.6200008 234.348,52.452 C234.820002,52.2839992 235.271998,52.0640014 235.704,51.792 L236.4,53.088 C235.887997,53.4080016 235.320003,53.6879988 234.696,53.928 C234.071997,54.1680012 233.360004,54.288 232.56,54.288 C231.775996,54.288 231.044003,54.1480014 230.364,53.868 C229.683997,53.5879986 229.092003,53.1880026 228.588,52.668 C228.083997,52.1479974 227.688001,51.5120038 227.4,50.76 C227.111999,50.0079962 226.968,49.1520048 226.968,48.192 Z M235.128,47.304 C235.128,46.103994 234.876003,45.1880032 234.372,44.556 C233.867997,43.9239968 233.160005,43.608 232.248,43.608 C231.831998,43.608 231.436002,43.6919992 231.06,43.86 C230.683998,44.0280008 230.344002,44.2679984 230.04,44.58 C229.735998,44.8920016 229.484001,45.2759977 229.284,45.732 C229.083999,46.1880023 228.952,46.711997 228.888,47.304 L235.128,47.304 Z M241.92,47.904 L238.392,42.336 L240.528,42.336 L242.088,44.904 C242.264001,45.2240016 242.447999,45.5479984 242.64,45.876 C242.832001,46.2040016 243.031999,46.5279984 243.24,46.848 L243.336,46.848 C243.512001,46.5279984 243.687999,46.2040016 243.864,45.876 C244.040001,45.5479984 244.215999,45.2240016 244.392,44.904 L245.808,42.336 L247.872,42.336 L244.344,48.12 L248.136,54 L246,54 L244.296,51.288 L243.672,50.232 C243.463999,49.8799982 243.248001,49.5360017 243.024,49.2 L242.928,49.2 C242.719999,49.5360017 242.520001,49.8759983 242.328,50.22 C242.135999,50.5640017 241.944001,50.9199982 241.752,51.288 L240.168,54 L238.104,54 L241.92,47.904 Z M250.776,43.944 L249.048,43.944 L249.048,42.456 L250.872,42.336 L251.112,39.072 L252.768,39.072 L252.768,42.336 L255.912,42.336 L255.912,43.944 L252.768,43.944 L252.768,50.424 C252.768,51.1440036 252.899999,51.699998 253.164,52.092 C253.428001,52.484002 253.895997,52.68 254.568,52.68 C254.776001,52.68 254.999999,52.6480003 255.24,52.584 C255.480001,52.5199997 255.695999,52.4480004 255.888,52.368 L256.272,53.856 C255.951998,53.9680006 255.604002,54.0679996 255.228,54.156 C254.851998,54.2440004 254.480002,54.288 254.112,54.288 C253.487997,54.288 252.964002,54.192001 252.54,54 C252.115998,53.807999 251.772001,53.5440017 251.508,53.208 C251.243999,52.8719983 251.056001,52.4640024 250.944,51.984 C250.831999,51.5039976 250.776,50.9760029 250.776,50.4 L250.776,43.944 Z M262.824,50.976 C262.824,49.6959936 263.395994,48.7160034 264.54,48.036 C265.684006,47.3559966 267.503988,46.8800014 270,46.608 C270,46.2399982 269.964,45.8800018 269.892,45.528 C269.82,45.1759982 269.692001,44.8640014 269.508,44.592 C269.323999,44.3199986 269.080002,44.1000008 268.776,43.932 C268.471998,43.7639992 268.080002,43.68 267.6,43.68 C266.911997,43.68 266.276003,43.8079987 265.692,44.064 C265.107997,44.3200013 264.584002,44.6079984 264.12,44.928 L263.328,43.56 C263.872003,43.2079982 264.535996,42.8680016 265.32,42.54 C266.104004,42.2119984 266.967995,42.048 267.912,42.048 C269.336007,42.048 270.367997,42.4839956 271.008,43.356 C271.648003,44.2280044 271.968,45.3919927 271.968,46.848 L271.968,54 L270.336,54 L270.168,52.608 L270.12,52.608 C269.559997,53.0720023 268.956003,53.4679984 268.308,53.796 C267.659997,54.1240016 266.976004,54.288 266.256,54.288 C265.263995,54.288 264.444003,54.0000029 263.796,53.424 C263.147997,52.8479971 262.824,52.0320053 262.824,50.976 Z M264.768,50.832 C264.768,51.5040034 264.963998,51.9839986 265.356,52.272 C265.748002,52.5600014 266.231997,52.704 266.808,52.704 C267.368003,52.704 267.899997,52.5720013 268.404,52.308 C268.908003,52.0439987 269.439997,51.6560026 270,51.144 L270,47.904 C269.023995,48.0320006 268.200003,48.1839991 267.528,48.36 C266.855997,48.5360009 266.316002,48.7439988 265.908,48.984 C265.499998,49.2240012 265.208001,49.4999984 265.032,49.812 C264.855999,50.1240016 264.768,50.4639982 264.768,50.832 Z M275.688,42.336 L277.32,42.336 L277.488,44.016 L277.56,44.016 C278.120003,43.4559972 278.707997,42.9880019 279.324,42.612 C279.940003,42.2359981 280.655996,42.048 281.472,42.048 C282.704006,42.048 283.603997,42.4319962 284.172,43.2 C284.740003,43.9680038 285.024,45.1039925 285.024,46.608 L285.024,54 L283.056,54 L283.056,46.872 C283.056,45.7679945 282.880002,44.9720024 282.528,44.484 C282.175998,43.9959976 281.616004,43.752 280.848,43.752 C280.239997,43.752 279.704002,43.9039985 279.24,44.208 C278.775998,44.5120015 278.248003,44.959997 277.656,45.552 L277.656,54 L275.688,54 L275.688,42.336 Z M287.976,48.192 C287.976,47.2479953 288.115999,46.3960038 288.396,45.636 C288.676001,44.8759962 289.047998,44.2320026 289.512,43.704 C289.976002,43.1759974 290.511997,42.7680014 291.12,42.48 C291.728003,42.1919986 292.367997,42.048 293.04,42.048 C293.712003,42.048 294.295998,42.1679988 294.792,42.408 C295.288002,42.6480012 295.791997,42.9759979 296.304,43.392 L296.208,41.4 L296.208,36.912 L298.2,36.912 L298.2,54 L296.568,54 L296.4,52.632 L296.328,52.632 C295.863998,53.0800022 295.332003,53.4679984 294.732,53.796 C294.131997,54.1240016 293.488003,54.288 292.8,54.288 C291.327993,54.288 290.156004,53.7600053 289.284,52.704 C288.411996,51.6479947 287.976,50.1440098 287.976,48.192 Z M290.016,48.168 C290.016,49.576007 290.295997,50.6719961 290.856,51.456 C291.416003,52.2400039 292.207995,52.632 293.232,52.632 C293.776003,52.632 294.287998,52.5000013 294.768,52.236 C295.248002,51.9719987 295.727998,51.5680027 296.208,51.024 L296.208,44.928 C295.711998,44.4799978 295.236002,44.1640009 294.78,43.98 C294.323998,43.7959991 293.856002,43.704 293.376,43.704 C292.911998,43.704 292.476002,43.8119989 292.068,44.028 C291.659998,44.2440011 291.304002,44.547998 291,44.94 C290.695998,45.332002 290.456001,45.7999973 290.28,46.344 C290.103999,46.8880027 290.016,47.4959966 290.016,48.168 Z M307.176,38.256 L309.168,38.256 L309.168,54 L307.176,54 L307.176,38.256 Z M313.296,42.336 L314.928,42.336 L315.096,44.016 L315.168,44.016 C315.680003,43.4559972 316.235997,42.9880019 316.836,42.612 C317.436003,42.2359981 318.087996,42.048 318.792,42.048 C319.688004,42.048 320.387997,42.243998 320.892,42.636 C321.396003,43.028002 321.767999,43.5759965 322.008,44.28 C322.616003,43.6079966 323.227997,43.068002 323.844,42.66 C324.460003,42.251998 325.127996,42.048 325.848,42.048 C327.048006,42.048 327.939997,42.4319962 328.524,43.2 C329.108003,43.9680038 329.4,45.1039925 329.4,46.608 L329.4,54 L327.432,54 L327.432,46.872 C327.432,45.7679945 327.256002,44.9720024 326.904,44.484 C326.551998,43.9959976 326.008004,43.752 325.272,43.752 C324.391996,43.752 323.416005,44.351994 322.344,45.552 L322.344,54 L320.376,54 L320.376,46.872 C320.376,45.7679945 320.200002,44.9720024 319.848,44.484 C319.495998,43.9959976 318.944004,43.752 318.192,43.752 C317.311996,43.752 316.336005,44.351994 315.264,45.552 L315.264,54 L313.296,54 L313.296,42.336 Z M332.616,50.976 C332.616,49.6959936 333.187994,48.7160034 334.332,48.036 C335.476006,47.3559966 337.295988,46.8800014 339.792,46.608 C339.792,46.2399982 339.756,45.8800018 339.684,45.528 C339.612,45.1759982 339.484001,44.8640014 339.3,44.592 C339.115999,44.3199986 338.872002,44.1000008 338.568,43.932 C338.263998,43.7639992 337.872002,43.68 337.392,43.68 C336.703997,43.68 336.068003,43.8079987 335.484,44.064 C334.899997,44.3200013 334.376002,44.6079984 333.912,44.928 L333.12,43.56 C333.664003,43.2079982 334.327996,42.8680016 335.112,42.54 C335.896004,42.2119984 336.759995,42.048 337.704,42.048 C339.128007,42.048 340.159997,42.4839956 340.8,43.356 C341.440003,44.2280044 341.76,45.3919927 341.76,46.848 L341.76,54 L340.128,54 L339.96,52.608 L339.912,52.608 C339.351997,53.0720023 338.748003,53.4679984 338.1,53.796 C337.451997,54.1240016 336.768004,54.288 336.048,54.288 C335.055995,54.288 334.236003,54.0000029 333.588,53.424 C332.939997,52.8479971 332.616,52.0320053 332.616,50.976 Z M334.56,50.832 C334.56,51.5040034 334.755998,51.9839986 335.148,52.272 C335.540002,52.5600014 336.023997,52.704 336.6,52.704 C337.160003,52.704 337.691997,52.5720013 338.196,52.308 C338.700003,52.0439987 339.231997,51.6560026 339.792,51.144 L339.792,47.904 C338.815995,48.0320006 337.992003,48.1839991 337.32,48.36 C336.647997,48.5360009 336.108002,48.7439988 335.7,48.984 C335.291998,49.2240012 335.000001,49.4999984 334.824,49.812 C334.647999,50.1240016 334.56,50.4639982 334.56,50.832 Z M346.32,55.968 C346.32,56.5920031 346.619997,57.0879982 347.22,57.456 C347.820003,57.8240018 348.647995,58.008 349.704,58.008 C350.264003,58.008 350.771998,57.9400007 351.228,57.804 C351.684002,57.6679993 352.071998,57.4920011 352.392,57.276 C352.712002,57.0599989 352.959999,56.8080014 353.136,56.52 C353.312001,56.2319986 353.4,55.9360015 353.4,55.632 C353.4,55.0879973 353.200002,54.712001 352.8,54.504 C352.399998,54.295999 351.816004,54.192 351.048,54.192 L349.032,54.192 C348.807999,54.192 348.564001,54.1800001 348.3,54.156 C348.035999,54.1319999 347.776001,54.0800004 347.52,54 C347.103998,54.3040015 346.800001,54.6239983 346.608,54.96 C346.415999,55.2960017 346.32,55.6319983 346.32,55.968 Z M344.592,56.232 C344.592,55.7359975 344.743998,55.2640022 345.048,54.816 C345.352002,54.3679978 345.767997,53.9600018 346.296,53.592 L346.296,53.496 C346.007999,53.3199991 345.764001,53.0760016 345.564,52.764 C345.363999,52.4519984 345.264,52.0640023 345.264,51.6 C345.264,51.1039975 345.399999,50.6720018 345.672,50.304 C345.944001,49.9359982 346.231998,49.648001 346.536,49.44 L346.536,49.344 C346.151998,49.0239984 345.804002,48.5960027 345.492,48.06 C345.179998,47.5239973 345.024,46.9040035 345.024,46.2 C345.024,45.5599968 345.139999,44.9840026 345.372,44.472 C345.604001,43.9599974 345.919998,43.5240018 346.32,43.164 C346.720002,42.8039982 347.187997,42.528001 347.724,42.336 C348.260003,42.143999 348.823997,42.048 349.416,42.048 C349.736002,42.048 350.035999,42.0759997 350.316,42.132 C350.596001,42.1880003 350.847999,42.2559996 351.072,42.336 L355.128,42.336 L355.128,43.848 L352.728,43.848 C353.000001,44.1200014 353.227999,44.4639979 353.412,44.88 C353.596001,45.2960021 353.688,45.7519975 353.688,46.248 C353.688,46.8720031 353.576001,47.4359975 353.352,47.94 C353.127999,48.4440025 352.824002,48.8679983 352.44,49.212 C352.055998,49.5560017 351.604003,49.823999 351.084,50.016 C350.563997,50.208001 350.008003,50.304 349.416,50.304 C349.127999,50.304 348.832002,50.2680004 348.528,50.196 C348.223998,50.1239996 347.936001,50.0240006 347.664,49.896 C347.455999,50.0720009 347.280001,50.2679989 347.136,50.484 C346.991999,50.7000011 346.92,50.9679984 346.92,51.288 C346.92,51.6560018 347.063999,51.9599988 347.352,52.2 C347.640001,52.4400012 348.183996,52.56 348.984,52.56 L351.24,52.56 C352.600007,52.56 353.619997,52.7799978 354.3,53.22 C354.980003,53.6600022 355.32,54.3679951 355.32,55.344 C355.32,55.8880027 355.184001,56.4039976 354.912,56.892 C354.639999,57.3800024 354.248003,57.8079982 353.736,58.176 C353.223997,58.5440018 352.604004,58.8359989 351.876,59.052 C351.147996,59.2680011 350.328005,59.376 349.416,59.376 C348.695996,59.376 348.040003,59.3080007 347.448,59.172 C346.855997,59.0359993 346.348002,58.8320014 345.924,58.56 C345.499998,58.2879986 345.172001,57.9600019 344.94,57.576 C344.707999,57.1919981 344.592,56.7440026 344.592,56.232 Z M349.416,48.984 C349.752002,48.984 350.067999,48.9200006 350.364,48.792 C350.660001,48.6639994 350.923999,48.4800012 351.156,48.24 C351.388001,47.9999988 351.567999,47.7080017 351.696,47.364 C351.824001,47.0199983 351.888,46.6320022 351.888,46.2 C351.888,45.3359957 351.648002,44.6680024 351.168,44.196 C350.687998,43.7239976 350.104003,43.488 349.416,43.488 C348.727997,43.488 348.144002,43.7239976 347.664,44.196 C347.183998,44.6680024 346.944,45.3359957 346.944,46.2 C346.944,46.6320022 347.007999,47.0199983 347.136,47.364 C347.264001,47.7080017 347.443999,47.9999988 347.676,48.24 C347.908001,48.4800012 348.171999,48.6639994 348.468,48.792 C348.764001,48.9200006 349.079998,48.984 349.416,48.984 Z M356.712,48.192 C356.712,47.2319952 356.859999,46.3720038 357.156,45.612 C357.452001,44.8519962 357.843998,44.2080026 358.332,43.68 C358.820002,43.1519974 359.375997,42.7480014 360,42.468 C360.624003,42.1879986 361.271997,42.048 361.944,42.048 C362.680004,42.048 363.339997,42.1759987 363.924,42.432 C364.508003,42.6880013 364.995998,43.0559976 365.388,43.536 C365.780002,44.0160024 366.079999,44.5919966 366.288,45.264 C366.496001,45.9360034 366.6,46.6879958 366.6,47.52 C366.6,47.9520022 366.576,48.3119986 366.528,48.6 L358.656,48.6 C358.736,49.8640063 359.123997,50.8639963 359.82,51.6 C360.516003,52.3360037 361.423994,52.704 362.544,52.704 C363.104003,52.704 363.619998,52.6200008 364.092,52.452 C364.564002,52.2839992 365.015998,52.0640014 365.448,51.792 L366.144,53.088 C365.631997,53.4080016 365.064003,53.6879988 364.44,53.928 C363.815997,54.1680012 363.104004,54.288 362.304,54.288 C361.519996,54.288 360.788003,54.1480014 360.108,53.868 C359.427997,53.5879986 358.836003,53.1880026 358.332,52.668 C357.827997,52.1479974 357.432001,51.5120038 357.144,50.76 C356.855999,50.0079962 356.712,49.1520048 356.712,48.192 Z M364.872,47.304 C364.872,46.103994 364.620003,45.1880032 364.116,44.556 C363.611997,43.9239968 362.904005,43.608 361.992,43.608 C361.575998,43.608 361.180002,43.6919992 360.804,43.86 C360.427998,44.0280008 360.088002,44.2679984 359.784,44.58 C359.479998,44.8920016 359.228001,45.2759977 359.028,45.732 C358.827999,46.1880023 358.696,46.711997 358.632,47.304 L364.872,47.304 Z M369.168,51.36 C369.680003,51.7760021 370.203997,52.1119987 370.74,52.368 C371.276003,52.6240013 371.895996,52.752 372.6,52.752 C373.368004,52.752 373.943998,52.5760018 374.328,52.224 C374.712002,51.8719982 374.904,51.4400026 374.904,50.928 C374.904,50.6239985 374.824001,50.3600011 374.664,50.136 C374.503999,49.9119989 374.300001,49.7160008 374.052,49.548 C373.803999,49.3799992 373.520002,49.2320006 373.2,49.104 L372.24,48.72 C371.823998,48.5759993 371.408002,48.4120009 370.992,48.228 C370.575998,48.0439991 370.204002,47.8200013 369.876,47.556 C369.547998,47.2919987 369.280001,46.9840018 369.072,46.632 C368.863999,46.2799982 368.76,45.8560025 368.76,45.36 C368.76,44.8959977 368.851999,44.460002 369.036,44.052 C369.220001,43.643998 369.483998,43.2920015 369.828,42.996 C370.172002,42.6999985 370.591998,42.4680008 371.088,42.3 C371.584002,42.1319992 372.143997,42.048 372.768,42.048 C373.504004,42.048 374.179997,42.1759987 374.796,42.432 C375.412003,42.6880013 375.943998,42.9999982 376.392,43.368 L375.456,44.616 C375.055998,44.3119985 374.640002,44.064001 374.208,43.872 C373.775998,43.679999 373.304003,43.584 372.792,43.584 C372.055996,43.584 371.516002,43.7519983 371.172,44.088 C370.827998,44.4240017 370.656,44.8159978 370.656,45.264 C370.656,45.5360014 370.727999,45.771999 370.872,45.972 C371.016001,46.172001 371.207999,46.3479992 371.448,46.5 C371.688001,46.6520008 371.963998,46.7879994 372.276,46.908 C372.588002,47.0280006 372.911998,47.1519994 373.248,47.28 C373.664002,47.4400008 374.083998,47.6079991 374.508,47.784 C374.932002,47.9600009 375.311998,48.1799987 375.648,48.444 C375.984002,48.7080013 376.259999,49.0319981 376.476,49.416 C376.692001,49.8000019 376.8,50.2639973 376.8,50.808 C376.8,51.2880024 376.708001,51.7359979 376.524,52.152 C376.339999,52.5680021 376.068002,52.9359984 375.708,53.256 C375.347998,53.5760016 374.900003,53.8279991 374.364,54.012 C373.827997,54.1960009 373.216003,54.288 372.528,54.288 C371.695996,54.288 370.904004,54.1360015 370.152,53.832 C369.399996,53.5279985 368.744003,53.1440023 368.184,52.68 L369.168,51.36 Z" id="Text-and-Images" fill="#79797B"></path>
            <path d="M240.5,2 L349.518347,2" id="Line" stroke="#4990E2" stroke-width="4" stroke-linecap="square"></path>
            <path d="M254.5,13 L335.055881,13" id="Line" stroke="#4990E2" stroke-width="4" stroke-linecap="square"></path>
            <polygon id="Path-3" fill="#4990E2" points="125 96 151.801536 96 192.403629 136.602093 192.403629 165.919941"></polygon>
        </g>
    </g>
</svg>