<?xml version="1.0" encoding="UTF-8"?>
<svg width="602px" height="189px" viewBox="0 0 602 189" version="1.1" xmlns="http://www.w3.org/2000/svg" xmlns:xlink="http://www.w3.org/1999/xlink">
    <!-- Generator: Sketch 44.1 (41455) - http://www.bohemiancoding.com/sketch -->
    <title>image_text27</title>
    <desc>Created with Sketch.</desc>
    <defs>
        <rect id="path-1" x="0" y="1.00166945" width="271.452421" height="179.298831"></rect>
        <mask id="mask-2" maskContentUnits="userSpaceOnUse" maskUnits="objectBoundingBox" x="0" y="0" width="271.452421" height="179.298831" fill="white">
            <use xlink:href="#path-1"></use>
        </mask>
    </defs>
    <g id="Image/Text-Blocks" stroke="none" stroke-width="1" fill="none" fill-rule="evenodd">
        <g id="27">
            <path d="M315.994658,4.03071786 L312.946578,4.03071786 L312.946578,1.91919866 L321.562938,1.91919866 L321.562938,4.03071786 L318.514858,4.03071786 L318.514858,13.0217028 L315.994658,13.0217028 L315.994658,4.03071786 Z M321.307513,8.79866444 C321.307513,8.11752581 321.421034,7.5016722 321.64808,6.95108514 C321.875126,6.40049808 322.17312,5.93506033 322.54207,5.55475793 C322.91102,5.17445553 323.333887,4.88213792 323.810684,4.67779633 C324.287482,4.47345474 324.7813,4.37128548 325.292154,4.37128548 C325.893826,4.37128548 326.418863,4.47345474 326.867279,4.67779633 C327.315695,4.88213792 327.690316,5.16594142 327.991152,5.52921536 C328.291988,5.8924893 328.516193,6.32103259 328.663773,6.8148581 C328.811353,7.3086836 328.885142,7.84507223 328.885142,8.42404007 C328.885142,8.65108628 328.87379,8.85826284 328.851085,9.04557596 C328.828381,9.23288908 328.805676,9.37762887 328.782972,9.47979967 L323.725543,9.47979967 C323.839066,10.1268814 324.091651,10.5951572 324.483306,10.8846411 C324.87496,11.174125 325.354588,11.3188648 325.922204,11.3188648 C326.523876,11.3188648 327.131216,11.1315545 327.74424,10.7569282 L328.578631,12.2724541 C328.147243,12.5676142 327.667615,12.800333 327.139733,12.9706177 C326.61185,13.1409024 326.09249,13.2260434 325.581636,13.2260434 C324.979964,13.2260434 324.418033,13.1267122 323.895826,12.9280467 C323.37362,12.7293813 322.919534,12.4399017 322.533556,12.0595993 C322.147577,11.6792969 321.846746,11.2166972 321.631052,10.6717863 C321.415358,10.1268754 321.307513,9.50250769 321.307513,8.79866444 Z M326.756594,7.93021703 C326.756594,7.44206768 326.648749,7.04474277 326.433055,6.73823038 C326.217361,6.431718 325.854093,6.27846411 325.343239,6.27846411 C324.945908,6.27846411 324.59683,6.41185175 324.295993,6.67863105 C323.995157,6.94541035 323.799333,7.3626015 323.708514,7.93021703 L326.756594,7.93021703 Z M332.069449,8.62838063 L329.634391,4.57562604 L332.324875,4.57562604 L333.074124,5.93789649 C333.187647,6.17629502 333.304006,6.41752799 333.423205,6.66160267 C333.542405,6.90567735 333.66444,7.14691033 333.789316,7.38530885 L333.857429,7.38530885 C333.948248,7.14691033 334.044741,6.90567735 334.146912,6.66160267 C334.249082,6.41752799 334.345576,6.17629502 334.436394,5.93789649 L335.015359,4.57562604 L337.603673,4.57562604 L335.151586,8.91786311 L337.756928,13.0217028 L335.066444,13.0217028 L334.249082,11.6253756 C334.112854,11.3869771 333.979466,11.1429061 333.848915,10.8931553 C333.718363,10.6434044 333.584976,10.3993334 333.448748,10.1609349 L333.380634,10.1609349 C333.278464,10.3993334 333.170618,10.6405664 333.057095,10.8846411 C332.943572,11.1287157 332.835727,11.3756248 332.733556,11.6253756 L332.069449,13.0217028 L329.481135,13.0217028 L332.069449,8.62838063 Z M339.442738,6.53388982 L338.284808,6.53388982 L338.284808,4.67779633 L339.578965,4.57562604 L339.868447,2.3278798 L341.94591,2.3278798 L341.94591,4.57562604 L343.972287,4.57562604 L343.972287,6.53388982 L341.94591,6.53388982 L341.94591,9.92253756 C341.94591,10.3993346 342.045241,10.7427368 342.243907,10.9527546 C342.442572,11.1627723 342.706509,11.2677796 343.035726,11.2677796 C343.171954,11.2677796 343.311018,11.2507514 343.452922,11.2166945 C343.594825,11.1826376 343.722537,11.1429051 343.83606,11.0974958 L344.227713,12.9195326 C344.000667,12.9876464 343.733891,13.0557593 343.427379,13.1238731 C343.120867,13.191987 342.763274,13.2260434 342.354591,13.2260434 C341.832385,13.2260434 341.386813,13.1465784 341.017863,12.9876461 C340.648913,12.8287137 340.348081,12.607347 340.115359,12.3235392 C339.882637,12.0397315 339.712354,11.6963292 339.604508,11.2933222 C339.496661,10.8903152 339.442738,10.4447437 339.442738,9.95659432 L339.442738,6.53388982 Z M348.46778,4.57562604 L350.953923,4.57562604 L351.771285,8.49215359 C351.839399,8.91218908 351.901836,9.3265422 351.958598,9.73522538 C352.015359,10.1439086 352.077796,10.5639377 352.14591,10.9953255 L352.214023,10.9953255 C352.29349,10.5639377 352.370116,10.1382325 352.443907,9.71819699 C352.517697,9.29816151 352.605676,8.88948446 352.707846,8.49215359 L353.644407,4.57562604 L355.807012,4.57562604 L356.760601,8.49215359 C356.862772,8.91218908 356.953589,9.3265422 357.033055,9.73522538 C357.112521,10.1439086 357.197662,10.5639377 357.288481,10.9953255 L357.356594,10.9953255 C357.43606,10.5639377 357.501335,10.1439086 357.552421,9.73522538 C357.603506,9.3265422 357.668781,8.91218908 357.748247,8.49215359 L358.548581,4.57562604 L360.864441,4.57562604 L358.838063,13.0217028 L355.909182,13.0217028 L355.142905,9.65008347 C355.052086,9.2527526 354.972621,8.8554277 354.904508,8.45809683 C354.836394,8.06076596 354.762605,7.6350607 354.683139,7.18096828 L354.615025,7.18096828 C354.535559,7.6350607 354.464608,8.06076596 354.40217,8.45809683 C354.339733,8.8554277 354.268782,9.2527526 354.189316,9.65008347 L353.440067,13.0217028 L350.579299,13.0217028 L348.46778,4.57562604 Z M363.623038,3.33255426 C363.203003,3.33255426 362.856763,3.21051875 362.584307,2.96644407 C362.311852,2.7223694 362.175626,2.40734751 362.175626,2.02136895 C362.175626,1.63539039 362.311852,1.32320653 362.584307,1.08480801 C362.856763,0.846409492 363.203003,0.72721202 363.623038,0.72721202 C364.054426,0.72721202 364.403505,0.846409492 364.670284,1.08480801 C364.937063,1.32320653 365.070451,1.63539039 365.070451,2.02136895 C365.070451,2.40734751 364.937063,2.7223694 364.670284,2.96644407 C364.403505,3.21051875 364.054426,3.33255426 363.623038,3.33255426 Z M362.379967,4.57562604 L364.883139,4.57562604 L364.883139,13.0217028 L362.379967,13.0217028 L362.379967,4.57562604 Z M367.420367,6.53388982 L366.262437,6.53388982 L366.262437,4.67779633 L367.556594,4.57562604 L367.846077,2.3278798 L369.923539,2.3278798 L369.923539,4.57562604 L371.949917,4.57562604 L371.949917,6.53388982 L369.923539,6.53388982 L369.923539,9.92253756 C369.923539,10.3993346 370.02287,10.7427368 370.221536,10.9527546 C370.420201,11.1627723 370.684139,11.2677796 371.013356,11.2677796 C371.149583,11.2677796 371.288647,11.2507514 371.430551,11.2166945 C371.572455,11.1826376 371.700166,11.1429051 371.813689,11.0974958 L372.205342,12.9195326 C371.978296,12.9876464 371.711521,13.0557593 371.405008,13.1238731 C371.098496,13.191987 370.740904,13.2260434 370.33222,13.2260434 C369.810014,13.2260434 369.364443,13.1465784 368.995492,12.9876461 C368.626542,12.8287137 368.325711,12.607347 368.092988,12.3235392 C367.860266,12.0397315 367.689984,11.6963292 367.582137,11.2933222 C367.47429,10.8903152 367.420367,10.4447437 367.420367,9.95659432 L367.420367,6.53388982 Z M373.601669,1.08480801 L376.104841,1.08480801 L376.104841,4.01368948 L375.985643,5.52921536 C376.303507,5.2454076 376.672452,4.98147034 377.092487,4.73739566 C377.512523,4.49332098 378.012017,4.37128548 378.590985,4.37128548 C379.510522,4.37128548 380.17746,4.67211719 380.59182,5.27378965 C381.006179,5.87546211 381.213356,6.70984441 381.213356,7.7769616 L381.213356,13.0217028 L378.710184,13.0217028 L378.710184,8.10050083 C378.710184,7.48747607 378.627881,7.06744688 378.463272,6.84040067 C378.298664,6.61335446 378.034726,6.49983306 377.671452,6.49983306 C377.353588,6.49983306 377.081136,6.57078393 376.85409,6.71268781 C376.627044,6.85459169 376.377297,7.05609218 376.104841,7.31719533 L376.104841,13.0217028 L373.601669,13.0217028 L373.601669,1.08480801 Z M388.10985,3.33255426 C387.689814,3.33255426 387.343574,3.21051875 387.071119,2.96644407 C386.798663,2.7223694 386.662437,2.40734751 386.662437,2.02136895 C386.662437,1.63539039 386.798663,1.32320653 387.071119,1.08480801 C387.343574,0.846409492 387.689814,0.72721202 388.10985,0.72721202 C388.541238,0.72721202 388.890316,0.846409492 389.157095,1.08480801 C389.423874,1.32320653 389.557262,1.63539039 389.557262,2.02136895 C389.557262,2.40734751 389.423874,2.7223694 389.157095,2.96644407 C388.890316,3.21051875 388.541238,3.33255426 388.10985,3.33255426 Z M386.866778,4.57562604 L389.36995,4.57562604 L389.36995,13.0217028 L386.866778,13.0217028 L386.866778,4.57562604 Z M391.566611,4.57562604 L393.610017,4.57562604 L393.780301,5.6654424 L393.848414,5.6654424 C394.200336,5.31352078 394.574956,5.00985103 394.972287,4.75442404 C395.369618,4.49899705 395.846408,4.37128548 396.402671,4.37128548 C397.004344,4.37128548 397.489648,4.49332098 397.858598,4.73739566 C398.227548,4.98147034 398.519865,5.33054865 398.735559,5.78464107 C399.110186,5.39866251 399.504672,5.06661241 399.919032,4.7884808 C400.333391,4.51034919 400.824371,4.37128548 401.391987,4.37128548 C402.300171,4.37128548 402.96711,4.67495523 403.392821,5.28230384 C403.818533,5.88965245 404.031386,6.72119672 404.031386,7.7769616 L404.031386,13.0217028 L401.528214,13.0217028 L401.528214,8.10050083 C401.528214,7.48747607 401.445911,7.06744688 401.281302,6.84040067 C401.116694,6.61335446 400.852756,6.49983306 400.489482,6.49983306 C400.069447,6.49983306 399.586981,6.77228442 399.04207,7.31719533 L399.04207,13.0217028 L396.538898,13.0217028 L396.538898,8.10050083 C396.538898,7.48747607 396.456595,7.06744688 396.291987,6.84040067 C396.127378,6.61335446 395.863441,6.49983306 395.500167,6.49983306 C395.068779,6.49983306 394.591989,6.77228442 394.069783,7.31719533 L394.069783,13.0217028 L391.566611,13.0217028 L391.566611,4.57562604 Z M405.853422,10.6717863 C405.853422,9.78630609 406.228043,9.09382554 406.977295,8.59432387 C407.726548,8.09482221 408.935551,7.75993407 410.604341,7.58964942 C410.581636,7.21502317 410.468115,6.91702949 410.263773,6.69565943 C410.059431,6.47428938 409.730219,6.36360601 409.276127,6.36360601 C408.912853,6.36360601 408.549584,6.43171885 408.186311,6.56794658 C407.823037,6.7041743 407.437064,6.89148462 407.028381,7.12988314 L406.142905,5.47813022 C406.687816,5.14891321 407.258261,4.88213792 407.854257,4.67779633 C408.450253,4.47345474 409.083135,4.37128548 409.752922,4.37128548 C410.842743,4.37128548 411.674288,4.6806313 412.247579,5.29933222 C412.820871,5.91803314 413.107513,6.88012703 413.107513,8.18564274 L413.107513,13.0217028 L411.064107,13.0217028 L410.876795,12.1532554 L410.82571,12.1532554 C410.462436,12.4711201 410.079301,12.7293813 409.676294,12.9280467 C409.273287,13.1267122 408.833391,13.2260434 408.356594,13.2260434 C407.970616,13.2260434 407.624375,13.1607686 407.317863,13.030217 C407.011351,12.8996655 406.750251,12.7180312 406.534558,12.4853088 C406.318864,12.2525865 406.15142,11.9829732 406.03222,11.6764608 C405.913021,11.3699484 405.853422,11.0350602 405.853422,10.6717863 Z M408.237396,10.4844741 C408.237396,10.7569296 408.325375,10.9584301 408.501336,11.0889816 C408.677296,11.2195332 408.912853,11.284808 409.208013,11.284808 C409.503173,11.284808 409.752921,11.2223712 409.957262,11.0974958 C410.161604,10.9726204 410.377294,10.7966622 410.604341,10.569616 L410.604341,9.08814691 C409.707508,9.21302233 409.088816,9.39465657 408.748247,9.63305509 C408.407678,9.87145361 408.237396,10.1552571 408.237396,10.4844741 Z M416.785643,14.0774624 C416.785643,14.3953271 416.955925,14.6365601 417.296494,14.8011686 C417.637063,14.9657771 418.091149,15.0480801 418.658765,15.0480801 C419.22638,15.0480801 419.691818,14.9487489 420.055092,14.7500835 C420.418366,14.551418 420.6,14.304509 420.6,14.0093489 C420.6,13.7482458 420.489317,13.5722876 420.267947,13.4814691 C420.046577,13.3906506 419.725879,13.3452421 419.305843,13.3452421 L418.437396,13.3452421 C418.142236,13.3452421 417.903841,13.336728 417.722204,13.3196995 C417.540567,13.302671 417.381637,13.2771287 417.245409,13.2430718 C416.938897,13.5155272 416.785643,13.7936547 416.785643,14.0774624 Z M414.725209,14.4691152 C414.725209,13.7879766 415.12821,13.2203695 415.934224,12.7662771 L415.934224,12.6981636 C415.707177,12.5505836 415.519867,12.3632733 415.372287,12.136227 C415.224707,11.9091808 415.150918,11.6197013 415.150918,11.2677796 C415.150918,10.9612672 415.241735,10.6689496 415.423372,10.390818 C415.605009,10.1126864 415.832052,9.87712951 416.104508,9.68414023 L416.104508,9.61602671 C415.809347,9.41168512 415.54541,9.11936751 415.312688,8.73906511 C415.079965,8.35876271 414.963606,7.91886727 414.963606,7.41936561 C414.963606,6.90851164 415.060099,6.46294013 415.253088,6.08263773 C415.446078,5.70233533 415.704339,5.3844754 416.02788,5.12904841 C416.351421,4.87362143 416.723203,4.68347308 417.143239,4.55859766 C417.563274,4.43372225 418.000332,4.37128548 418.454424,4.37128548 C418.953926,4.37128548 419.390983,4.43939832 419.765609,4.57562604 L422.847746,4.57562604 L422.847746,6.39766277 L421.502504,6.39766277 C421.58197,6.52253819 421.647245,6.68146815 421.698331,6.87445743 C421.749416,7.06744671 421.774958,7.2774613 421.774958,7.50450751 C421.774958,7.99265686 421.689817,8.41552409 421.519533,8.77312187 C421.349248,9.13071965 421.113691,9.4258753 420.812855,9.65859766 C420.512019,9.89132003 420.160102,10.0644402 419.757095,10.1779633 C419.354088,10.2914864 418.919869,10.3482471 418.454424,10.3482471 C418.125207,10.3482471 417.784643,10.2914864 417.432721,10.1779633 C417.319198,10.2687818 417.239733,10.3595989 417.194324,10.4504174 C417.148915,10.5412358 417.12621,10.6604333 417.12621,10.8080134 C417.12621,11.0237073 417.219866,11.1826372 417.407179,11.284808 C417.594492,11.3869788 417.926542,11.4380634 418.403339,11.4380634 L419.765609,11.4380634 C420.810022,11.4380634 421.60751,11.6055075 422.158097,11.9404007 C422.708684,12.2752938 422.983973,12.8230346 422.983973,13.5836394 C422.983973,14.0263795 422.87329,14.4322185 422.65192,14.8011686 C422.43055,15.1701187 422.115528,15.4879786 421.706845,15.7547579 C421.298162,16.0215372 420.804343,16.2315518 420.225376,16.384808 C419.646408,16.5380642 418.99366,16.6146912 418.267112,16.6146912 C417.76761,16.6146912 417.30501,16.5721206 416.879299,16.4869783 C416.453587,16.401836 416.078967,16.2741244 415.755426,16.1038397 C415.431885,15.9335551 415.1793,15.7121883 414.997663,15.4397329 C414.816026,15.1672774 414.725209,14.8437414 414.725209,14.4691152 Z M418.454424,8.8327212 C418.783641,8.8327212 419.05893,8.71636176 419.280301,8.4836394 C419.501671,8.25091703 419.612354,7.89616265 419.612354,7.41936561 C419.612354,6.9766255 419.501671,6.63889933 419.280301,6.40617696 C419.05893,6.1734546 418.783641,6.05709516 418.454424,6.05709516 C418.125207,6.05709516 417.849918,6.17061656 417.628548,6.39766277 C417.407178,6.62470898 417.296494,6.96527319 417.296494,7.41936561 C417.296494,7.89616265 417.407178,8.25091703 417.628548,8.4836394 C417.849918,8.71636176 418.125207,8.8327212 418.454424,8.8327212 Z M423.54591,8.79866444 C423.54591,8.11752581 423.659431,7.5016722 423.886477,6.95108514 C424.113524,6.40049808 424.411517,5.93506033 424.780467,5.55475793 C425.149418,5.17445553 425.572285,4.88213792 426.049082,4.67779633 C426.525879,4.47345474 427.019697,4.37128548 427.530551,4.37128548 C428.132223,4.37128548 428.65726,4.47345474 429.105676,4.67779633 C429.554092,4.88213792 429.928713,5.16594142 430.229549,5.52921536 C430.530385,5.8924893 430.75459,6.32103259 430.90217,6.8148581 C431.04975,7.3086836 431.123539,7.84507223 431.123539,8.42404007 C431.123539,8.65108628 431.112187,8.85826284 431.089482,9.04557596 C431.066778,9.23288908 431.044074,9.37762887 431.021369,9.47979967 L425.96394,9.47979967 C426.077463,10.1268814 426.330048,10.5951572 426.721703,10.8846411 C427.113358,11.174125 427.592985,11.3188648 428.160601,11.3188648 C428.762273,11.3188648 429.369613,11.1315545 429.982638,10.7569282 L430.817028,12.2724541 C430.385641,12.5676142 429.906013,12.800333 429.37813,12.9706177 C428.850248,13.1409024 428.330887,13.2260434 427.820033,13.2260434 C427.218361,13.2260434 426.65643,13.1267122 426.134224,12.9280467 C425.612017,12.7293813 425.157932,12.4399017 424.771953,12.0595993 C424.385975,11.6792969 424.085143,11.2166972 423.869449,10.6717863 C423.653755,10.1268754 423.54591,9.50250769 423.54591,8.79866444 Z M428.994992,7.93021703 C428.994992,7.44206768 428.887146,7.04474277 428.671452,6.73823038 C428.455759,6.431718 428.09249,6.27846411 427.581636,6.27846411 C427.184305,6.27846411 426.835227,6.41185175 426.534391,6.67863105 C426.233554,6.94541035 426.03773,7.3626015 425.946912,7.93021703 L428.994992,7.93021703 Z M433.235058,10.4844741 C433.621037,10.7796342 433.989982,11.0010009 434.341903,11.148581 C434.693825,11.296161 435.051417,11.3699499 435.414691,11.3699499 C435.789317,11.3699499 436.061769,11.3075131 436.232053,11.1826377 C436.402338,11.0577623 436.487479,10.8818041 436.487479,10.6547579 C436.487479,10.5185302 436.439233,10.3964947 436.342738,10.2886477 C436.246243,10.1808008 436.115694,10.0814696 435.951085,9.99065109 C435.786477,9.8998326 435.602004,9.81752958 435.397663,9.74373957 C435.193321,9.66994955 434.983307,9.58764653 434.767613,9.49682805 C434.50651,9.39465725 434.24541,9.27545978 433.984307,9.13923205 C433.723204,9.00300433 433.484809,8.83556026 433.269115,8.63689482 C433.053421,8.43822939 432.877463,8.20551052 432.741235,7.93873122 C432.605008,7.67195192 432.536895,7.3626061 432.536895,7.01068447 C432.536895,6.62470592 432.613522,6.2671135 432.766778,5.93789649 C432.920034,5.60867949 433.138563,5.33055205 433.422371,5.10350584 C433.706178,4.87645963 434.046743,4.69766342 434.444073,4.56711185 C434.841404,4.43656028 435.284138,4.37128548 435.772287,4.37128548 C436.419369,4.37128548 436.986976,4.48196884 437.475125,4.7033389 C437.963275,4.92470895 438.38898,5.171618 438.752254,5.44407346 L437.628381,6.94257095 C437.321868,6.71552474 437.021037,6.53956657 436.725876,6.41469115 C436.430716,6.28981574 436.135561,6.22737896 435.840401,6.22737896 C435.204671,6.22737896 434.886811,6.4487457 434.886811,6.89148581 C434.886811,7.02771354 434.93222,7.14407297 435.023038,7.24056761 C435.113857,7.33706225 435.235892,7.42504134 435.389149,7.50450751 C435.542405,7.58397369 435.718363,7.66060063 435.917028,7.73439065 C436.115694,7.80818067 436.32287,7.88480762 436.538564,7.96427379 C436.81102,8.06644458 437.080633,8.18280402 437.347412,8.31335559 C437.614192,8.44390716 437.858263,8.60567516 438.079633,8.79866444 C438.301003,8.99165372 438.479799,9.22721063 438.616027,9.50534224 C438.752254,9.78347384 438.820367,10.1155239 438.820367,10.5015025 C438.820367,10.8874811 438.746578,11.2450735 438.598998,11.5742905 C438.451418,11.9035075 438.230052,12.190149 437.934891,12.4342237 C437.639731,12.6782984 437.276463,12.8712848 436.845075,13.0131886 C436.413687,13.1550925 435.914193,13.2260434 435.346578,13.2260434 C434.790314,13.2260434 434.219869,13.1181981 433.635225,12.9025042 C433.050581,12.6868103 432.542573,12.4030068 432.111185,12.0510851 L433.235058,10.4844741 Z" id="Text-with-images" fill="#79797B"></path>
            <path d="M313.021703,37.0617696 L600,37.0617696" id="Line" stroke="#979797" stroke-width="4" stroke-linecap="square"></path>
            <path d="M313.021703,52.0868114 L600,52.0868114" id="Line" stroke="#979797" stroke-width="4" stroke-linecap="square"></path>
            <path d="M313.021703,67.1118531 L406.763461,67.1118531" id="Line" stroke="#979797" stroke-width="4" stroke-linecap="square"></path>
            <path d="M330.050083,90.2368466 L386.143573,90.2368466" id="Line" stroke="#D7D9D9" stroke-width="3" stroke-linecap="square"></path>
            <path d="M396.160267,90.0631052 L414.190317,90.0631052" id="Line" stroke="#D7D9D9" stroke-width="3" stroke-linecap="square"></path>
            <polyline id="Path-12" stroke="#979797" stroke-width="2" points="312.520868 89.1986247 315.293735 91.9714919 320.534224 86.7310036"></polyline>
            <path d="M330.050083,111.271905 L367.111853,111.271905" id="Line" stroke="#D7D9D9" stroke-width="3" stroke-linecap="square"></path>
            <path d="M378.130217,111.686144 L415.191987,111.686144" id="Line" stroke="#D7D9D9" stroke-width="3" stroke-linecap="square"></path>
            <polyline id="Path-12" stroke="#979797" stroke-width="2" points="312.520868 110.233683 315.293735 113.00655 320.534224 107.766062"></polyline>
            <path d="M387.145242,132.771246 L407.178631,132.771246" id="Line" stroke="#D7D9D9" stroke-width="3" stroke-linecap="square"></path>
            <polyline id="Path-12" stroke="#979797" stroke-width="2" points="312.520868 132.734693 315.293735 135.507561 320.534224 130.267072"></polyline>
            <path d="M330.050083,133.772915 L377.128548,133.772915" id="Line" stroke="#D7D9D9" stroke-width="3" stroke-linecap="square"></path>
            <rect id="Rectangle-21" fill="#4990E2" x="311.519199" y="160.267112" width="101.168614" height="28.0467446" rx="12"></rect>
            <path d="M344.57429,172.287145 L345.605008,172.287145 L345.605008,175.989316 L347.414023,175.989316 L347.414023,176.858765 L344.57429,176.858765 L344.57429,172.287145 Z M347.820701,175.119866 C347.820701,174.839398 347.867445,174.585811 347.960935,174.359098 C348.054425,174.132386 348.177128,173.940735 348.329048,173.78414 C348.480969,173.627545 348.655091,173.507179 348.851419,173.423038 C349.047747,173.338898 349.251084,173.296828 349.461436,173.296828 C349.709183,173.296828 349.925375,173.338898 350.110017,173.423038 C350.294659,173.507179 350.448914,173.624039 350.572788,173.773623 C350.696662,173.923206 350.788981,174.099665 350.84975,174.303005 C350.910518,174.506345 350.940902,174.727211 350.940902,174.965609 C350.940902,175.059099 350.936227,175.144407 350.926878,175.221536 C350.917529,175.298665 350.90818,175.358264 350.898831,175.400334 L348.816361,175.400334 C348.863105,175.666779 348.967111,175.859599 349.128381,175.978798 C349.28965,176.097997 349.487144,176.157596 349.720868,176.157596 C349.968616,176.157596 350.218697,176.080468 350.471119,175.92621 L350.814691,176.55025 C350.637061,176.671787 350.439567,176.767612 350.222204,176.83773 C350.00484,176.907847 349.790986,176.942905 349.580634,176.942905 C349.332887,176.942905 349.101504,176.902004 348.886477,176.8202 C348.671451,176.738397 348.484475,176.619199 348.325543,176.462604 C348.16661,176.306009 348.042738,176.115527 347.953923,175.891152 C347.865108,175.666777 347.820701,175.409684 347.820701,175.119866 Z M350.064441,174.76227 C350.064441,174.561268 350.020034,174.397663 349.931219,174.271452 C349.842404,174.145241 349.692822,174.082137 349.482471,174.082137 C349.318864,174.082137 349.175126,174.137061 349.051252,174.246912 C348.927378,174.356762 348.846745,174.528546 348.809349,174.76227 L350.064441,174.76227 Z M351.452755,175.891152 C351.452755,175.526542 351.60701,175.241403 351.915526,175.035726 C352.224042,174.830049 352.721866,174.692154 353.409015,174.622037 C353.399666,174.467779 353.352922,174.345076 353.268781,174.253923 C353.184641,174.162771 353.049083,174.117195 352.862104,174.117195 C352.71252,174.117195 352.562939,174.145242 352.413356,174.201336 C352.263772,174.257429 352.104842,174.334557 351.936561,174.432721 L351.571953,173.752588 C351.796328,173.617028 352.031217,173.507179 352.276628,173.423038 C352.522038,173.338898 352.782636,173.296828 353.058431,173.296828 C353.507181,173.296828 353.849581,173.424206 354.085643,173.678965 C354.321704,173.933724 354.439733,174.32988 354.439733,174.867446 L354.439733,176.858765 L353.598331,176.858765 L353.521202,176.501169 L353.500167,176.501169 C353.350584,176.632054 353.192822,176.738397 353.026878,176.8202 C352.860934,176.902004 352.679801,176.942905 352.483472,176.942905 C352.32454,176.942905 352.181971,176.916027 352.05576,176.86227 C351.929549,176.808514 351.822037,176.733723 351.733222,176.637896 C351.644407,176.54207 351.575459,176.431052 351.526377,176.304841 C351.477295,176.17863 351.452755,176.040735 351.452755,175.891152 Z M352.434391,175.814023 C352.434391,175.926211 352.470617,176.009182 352.543072,176.062938 C352.615526,176.116695 352.71252,176.143573 352.834057,176.143573 C352.955593,176.143573 353.05843,176.117863 353.142571,176.066444 C353.226712,176.015025 353.315525,175.942571 353.409015,175.849082 L353.409015,175.239065 C353.039731,175.290484 352.784976,175.365275 352.644741,175.463439 C352.504507,175.561603 352.434391,175.678463 352.434391,175.814023 Z M355.323205,173.380968 L356.164608,173.380968 L356.234725,173.990985 L356.262771,173.990985 C356.388982,173.752586 356.540901,173.577296 356.718531,173.465109 C356.896161,173.352921 357.073789,173.296828 357.251419,173.296828 C357.349583,173.296828 357.430217,173.302671 357.493322,173.314357 C357.556428,173.326043 357.613689,173.343573 357.665109,173.366945 L357.496828,174.257429 C357.431385,174.238731 357.370618,174.224708 357.314524,174.215359 C357.25843,174.20601 357.192989,174.201336 357.118197,174.201336 C356.987312,174.201336 356.850585,174.24808 356.708013,174.341569 C356.565442,174.435059 356.447413,174.601 356.353923,174.839399 L356.353923,176.858765 L355.323205,176.858765 L355.323205,173.380968 Z M358.113856,173.380968 L358.955259,173.380968 L359.025376,173.822705 L359.053422,173.822705 C359.203006,173.68247 359.36661,173.559767 359.54424,173.454591 C359.721871,173.349415 359.929882,173.296828 360.16828,173.296828 C360.546913,173.296828 360.821535,173.4207 360.992154,173.668447 C361.162772,173.916195 361.24808,174.259764 361.24808,174.699165 L361.24808,176.858765 L360.217362,176.858765 L360.217362,174.832387 C360.217362,174.579965 360.183473,174.407012 360.115693,174.313523 C360.047913,174.220033 359.939233,174.173289 359.789649,174.173289 C359.658764,174.173289 359.546578,174.202504 359.453088,174.260935 C359.359599,174.319366 359.256762,174.402337 359.144574,174.50985 L359.144574,176.858765 L358.113856,176.858765 L358.113856,173.380968 Z M363.582972,173.380968 L364.424374,173.380968 L364.494491,173.829716 L364.522538,173.829716 C364.667446,173.684807 364.821702,173.559767 364.985309,173.454591 C365.148916,173.349415 365.345241,173.296828 365.57429,173.296828 C365.822038,173.296828 366.021869,173.347078 366.17379,173.447579 C366.32571,173.548081 366.446076,173.691819 366.534891,173.878798 C366.689149,173.719866 366.851585,173.583139 367.022204,173.468614 C367.192822,173.35409 367.39499,173.296828 367.628715,173.296828 C368.002673,173.296828 368.277295,173.421869 368.452588,173.671953 C368.627881,173.922038 368.715526,174.264439 368.715526,174.699165 L368.715526,176.858765 L367.684808,176.858765 L367.684808,174.832387 C367.684808,174.579965 367.650919,174.407012 367.583139,174.313523 C367.515359,174.220033 367.406679,174.173289 367.257095,174.173289 C367.084139,174.173289 366.885477,174.285475 366.661102,174.50985 L366.661102,176.858765 L365.630384,176.858765 L365.630384,174.832387 C365.630384,174.579965 365.596494,174.407012 365.528715,174.313523 C365.460935,174.220033 365.352255,174.173289 365.202671,174.173289 C365.025041,174.173289 364.828716,174.285475 364.613689,174.50985 L364.613689,176.858765 L363.582972,176.858765 L363.582972,173.380968 Z M369.388648,175.119866 C369.388648,174.830049 369.435392,174.571787 369.528881,174.345075 C369.622371,174.118363 369.747412,173.927881 369.904007,173.773623 C370.060602,173.619365 370.241735,173.501336 370.447412,173.419533 C370.65309,173.337729 370.865775,173.296828 371.085476,173.296828 C371.305176,173.296828 371.516693,173.337729 371.720033,173.419533 C371.923373,173.501336 372.103338,173.619365 372.259933,173.773623 C372.416528,173.927881 372.541569,174.118363 372.635058,174.345075 C372.728548,174.571787 372.775292,174.830049 372.775292,175.119866 C372.775292,175.409684 372.728548,175.667945 372.635058,175.894658 C372.541569,176.12137 372.416528,176.311852 372.259933,176.46611 C372.103338,176.620368 371.923373,176.738397 371.720033,176.8202 C371.516693,176.902004 371.305176,176.942905 371.085476,176.942905 C370.865775,176.942905 370.65309,176.902004 370.447412,176.8202 C370.241735,176.738397 370.060602,176.620368 369.904007,176.46611 C369.747412,176.311852 369.622371,176.12137 369.528881,175.894658 C369.435392,175.667945 369.388648,175.409684 369.388648,175.119866 Z M370.447412,175.119866 C370.447412,175.423708 370.499999,175.66444 370.605175,175.84207 C370.710351,176.0197 370.87045,176.108514 371.085476,176.108514 C371.295827,176.108514 371.454757,176.0197 371.56227,175.84207 C371.669784,175.66444 371.723539,175.423708 371.723539,175.119866 C371.723539,174.816025 371.669784,174.575293 371.56227,174.397663 C371.454757,174.220033 371.295827,174.131219 371.085476,174.131219 C370.87045,174.131219 370.710351,174.220033 370.605175,174.397663 C370.499999,174.575293 370.447412,174.816025 370.447412,175.119866 Z M373.483472,173.380968 L374.324875,173.380968 L374.394992,173.990985 L374.423038,173.990985 C374.549249,173.752586 374.701168,173.577296 374.878798,173.465109 C375.056428,173.352921 375.234056,173.296828 375.411686,173.296828 C375.50985,173.296828 375.590484,173.302671 375.653589,173.314357 C375.716695,173.326043 375.773956,173.343573 375.825376,173.366945 L375.657095,174.257429 C375.591652,174.238731 375.530885,174.224708 375.474791,174.215359 C375.418698,174.20601 375.353256,174.201336 375.278464,174.201336 C375.147579,174.201336 375.010852,174.24808 374.86828,174.341569 C374.725709,174.435059 374.60768,174.601 374.51419,174.839399 L374.51419,176.858765 L373.483472,176.858765 L373.483472,173.380968 Z M376.000668,175.119866 C376.000668,174.839398 376.047412,174.585811 376.140902,174.359098 C376.234391,174.132386 376.357094,173.940735 376.509015,173.78414 C376.660936,173.627545 376.835057,173.507179 377.031386,173.423038 C377.227714,173.338898 377.431051,173.296828 377.641402,173.296828 C377.88915,173.296828 378.105341,173.338898 378.289983,173.423038 C378.474625,173.507179 378.628881,173.624039 378.752755,173.773623 C378.876628,173.923206 378.968948,174.099665 379.029716,174.303005 C379.090484,174.506345 379.120868,174.727211 379.120868,174.965609 C379.120868,175.059099 379.116194,175.144407 379.106845,175.221536 C379.097496,175.298665 379.088147,175.358264 379.078798,175.400334 L376.996327,175.400334 C377.043072,175.666779 377.147078,175.859599 377.308347,175.978798 C377.469617,176.097997 377.667111,176.157596 377.900835,176.157596 C378.148582,176.157596 378.398663,176.080468 378.651085,175.92621 L378.994658,176.55025 C378.817027,176.671787 378.619534,176.767612 378.40217,176.83773 C378.184807,176.907847 377.970953,176.942905 377.760601,176.942905 C377.512854,176.942905 377.28147,176.902004 377.066444,176.8202 C376.851418,176.738397 376.664442,176.619199 376.505509,176.462604 C376.346577,176.306009 376.222705,176.115527 376.13389,175.891152 C376.045075,175.666777 376.000668,175.409684 376.000668,175.119866 Z M378.244407,174.76227 C378.244407,174.561268 378.2,174.397663 378.111185,174.271452 C378.02237,174.145241 377.872789,174.082137 377.662437,174.082137 C377.498831,174.082137 377.355092,174.137061 377.231219,174.246912 C377.107345,174.356762 377.026711,174.528546 376.989316,174.76227 L378.244407,174.76227 Z" id="Learn-more" fill="#FFFFFF"></path>
            <use id="Rectangle-9" stroke="#979797" mask="url(#mask-2)" stroke-width="2" fill="#F2F2F2" stroke-dasharray="4" xlink:href="#path-1"></use>
            <g id="icon-picture" opacity="0.699999988" transform="translate(105.175292, 69.115192)" stroke="#979797">
                <polyline id="Path-15" stroke-width="2" points="1.27298872 36.9192874 21.6382827 15.7030751 35.9524768 30.7412022 44.3366074 21.9330485 60.2074635 38.606565"></polyline>
                <circle id="Oval-6" fill="#D8D8D8" cx="50.0834725" cy="11.0183639" r="3.00500835"></circle>
                <rect id="Rectangle-10" stroke-width="2" x="1" y="1" width="59.1018364" height="41.0717863" rx="3"></rect>
            </g>
        </g>
    </g>
</svg>