<?xml version="1.0" encoding="UTF-8"?>
<svg width="602px" height="389px" viewBox="0 0 602 389" version="1.1" xmlns="http://www.w3.org/2000/svg" xmlns:xlink="http://www.w3.org/1999/xlink">
    <!-- Generator: Sketch 44.1 (41455) - http://www.bohemiancoding.com/sketch -->
    <title>pricing02</title>
    <desc>Created with Sketch.</desc>
    <defs></defs>
    <g id="Pricing" stroke="none" stroke-width="1" fill="none" fill-rule="evenodd">
        <g id="02" transform="translate(1.000000, 0.000000)">
            <path d="M8.3,18.3 C7.2666615,18.3 6.32083762,18.100002 5.4625,17.7 C4.60416237,17.299998 3.86666975,16.7291704 3.25,15.9875 C2.63333025,15.2458296 2.15416838,14.3458386 1.8125,13.2875 C1.47083162,12.2291614 1.3,11.0416732 1.3,9.725 C1.3,8.40832675 1.47083162,7.22917188 1.8125,6.1875 C2.15416838,5.14582812 2.63333025,4.26250363 3.25,3.5375 C3.86666975,2.81249638 4.60416237,2.25833525 5.4625,1.875 C6.32083762,1.49166475 7.2666615,1.3 8.3,1.3 C9.3333385,1.3 10.2791624,1.49583138 11.1375,1.8875 C11.9958376,2.27916863 12.7374969,2.83749638 13.3625,3.5625 C13.9875031,4.28750362 14.4708316,5.17082813 14.8125,6.2125 C15.1541684,7.25417187 15.325,8.4249935 15.325,9.725 C15.325,11.0416732 15.1541684,12.2291614 14.8125,13.2875 C14.4708316,14.3458386 13.9875031,15.2458296 13.3625,15.9875 C12.7374969,16.7291704 11.9958376,17.299998 11.1375,17.7 C10.2791624,18.100002 9.3333385,18.3 8.3,18.3 Z M8.3,16.475 C9.033337,16.475 9.69583038,16.3166683 10.2875,16 C10.8791696,15.6833317 11.3874979,15.2291696 11.8125,14.6375 C12.2375021,14.0458304 12.5666655,13.3375041 12.8,12.5125 C13.0333345,11.6874959 13.15,10.7583385 13.15,9.725 C13.15,8.70832825 13.0333345,7.79167075 12.8,6.975 C12.5666655,6.15832925 12.2375021,5.4666695 11.8125,4.9 C11.3874979,4.3333305 10.8791696,3.89583487 10.2875,3.5875 C9.69583038,3.27916513 9.033337,3.125 8.3,3.125 C7.566663,3.125 6.90416963,3.27916513 6.3125,3.5875 C5.72083037,3.89583487 5.21250213,4.3333305 4.7875,4.9 C4.36249788,5.4666695 4.0333345,6.15832925 3.8,6.975 C3.5666655,7.79167075 3.45,8.70832825 3.45,9.725 C3.45,10.7583385 3.5666655,11.6874959 3.8,12.5125 C4.0333345,13.3375041 4.36249788,14.0458304 4.7875,14.6375 C5.21250213,15.2291696 5.72083037,15.6833317 6.3125,16 C6.90416963,16.3166683 7.566663,16.475 8.3,16.475 Z M18.475,5.85 L20.55,5.85 L20.55,13.275 C20.55,14.4250058 20.7291649,15.2541641 21.0875,15.7625 C21.4458351,16.2708359 22.024996,16.525 22.825,16.525 C23.4583365,16.525 24.0166642,16.3625016 24.5,16.0375 C24.9833358,15.7124984 25.5166638,15.1916703 26.1,14.475 L26.1,5.85 L28.15,5.85 L28.15,18 L26.45,18 L26.275,16.1 L26.2,16.1 C25.6333305,16.76667 25.0375031,17.299998 24.4125,17.7 C23.7874969,18.100002 23.0500043,18.3 22.2,18.3 C20.8999935,18.3 19.9541696,17.900004 19.3625,17.1 C18.7708304,16.299996 18.475,15.1166745 18.475,13.55 L18.475,5.85 Z M32.25,5.85 L33.95,5.85 L34.125,8.05 L34.2,8.05 C34.6166688,7.2833295 35.1208304,6.67500225 35.7125,6.225 C36.3041696,5.77499775 36.9499965,5.55 37.65,5.55 C38.1333358,5.55 38.5666647,5.6333325 38.95,5.8 L38.55,7.6 C38.349999,7.533333 38.1666675,7.4833335 38,7.45 C37.8333325,7.4166665 37.6250012,7.4 37.375,7.4 C36.8583308,7.4 36.3208361,7.60833125 35.7625,8.025 C35.2041639,8.44166875 34.7166688,9.1666615 34.3,10.2 L34.3,18 L32.25,18 L32.25,5.85 Z M46.175,1.6 L51.2,1.6 C52.1000045,1.6 52.9249963,1.6833325 53.675,1.85 C54.4250037,2.0166675 55.0624974,2.28749813 55.5875,2.6625 C56.1125026,3.03750187 56.5208319,3.53333025 56.8125,4.15 C57.1041681,4.76666975 57.25,5.5249955 57.25,6.425 C57.25,7.291671 57.1041681,8.0416635 56.8125,8.675 C56.5208319,9.3083365 56.108336,9.83333125 55.575,10.25 C55.041664,10.6666687 54.4041704,10.9791656 53.6625,11.1875 C52.9208296,11.3958344 52.1000045,11.5 51.2,11.5 L48.25,11.5 L48.25,18 L46.175,18 L46.175,1.6 Z M50.95,9.8 C52.3833405,9.8 53.4458299,9.52916937 54.1375,8.9875 C54.8291701,8.44583062 55.175,7.5916725 55.175,6.425 C55.175,5.24166075 54.8250035,4.42083562 54.125,3.9625 C53.4249965,3.50416438 52.3666738,3.275 50.95,3.275 L48.25,3.275 L48.25,9.8 L50.95,9.8 Z M60.375,5.85 L62.075,5.85 L62.25,8.05 L62.325,8.05 C62.7416688,7.2833295 63.2458304,6.67500225 63.8375,6.225 C64.4291696,5.77499775 65.0749965,5.55 65.775,5.55 C66.2583358,5.55 66.6916647,5.6333325 67.075,5.8 L66.675,7.6 C66.474999,7.533333 66.2916675,7.4833335 66.125,7.45 C65.9583325,7.4166665 65.7500012,7.4 65.5,7.4 C64.9833308,7.4 64.4458361,7.60833125 63.8875,8.025 C63.3291639,8.44166875 62.8416688,9.1666615 62.425,10.2 L62.425,18 L60.375,18 L60.375,5.85 Z M70.1,3.35 C69.699998,3.35 69.3625014,3.22500125 69.0875,2.975 C68.8124986,2.72499875 68.675,2.40833525 68.675,2.025 C68.675,1.624998 68.8124986,1.30416788 69.0875,1.0625 C69.3625014,0.820832125 69.699998,0.7 70.1,0.7 C70.500002,0.7 70.8374986,0.820832125 71.1125,1.0625 C71.3875014,1.30416788 71.525,1.624998 71.525,2.025 C71.525,2.40833525 71.3875014,2.72499875 71.1125,2.975 C70.8374986,3.22500125 70.500002,3.35 70.1,3.35 Z M69.05,5.85 L71.1,5.85 L71.1,18 L69.05,18 L69.05,5.85 Z M74.3,11.95 C74.3,10.9333282 74.4583318,10.0291706 74.775,9.2375 C75.0916682,8.44582938 75.516664,7.77500275 76.05,7.225 C76.583336,6.67499725 77.2041631,6.25833475 77.9125,5.975 C78.6208369,5.69166525 79.3666628,5.55 80.15,5.55 C80.950004,5.55 81.6374971,5.69583188 82.2125,5.9875 C82.7875029,6.27916813 83.2833312,6.61666475 83.7,7 L82.675,8.325 C82.3083315,8.00833175 81.9291686,7.750001 81.5375,7.55 C81.1458314,7.349999 80.7083358,7.25 80.225,7.25 C79.6749973,7.25 79.166669,7.36249888 78.7,7.5875 C78.233331,7.81250112 77.833335,8.13333125 77.5,8.55 C77.166665,8.96666875 76.9041676,9.46249713 76.7125,10.0375 C76.5208324,10.6125029 76.425,11.2499965 76.425,11.95 C76.425,12.6500035 76.5166658,13.2833305 76.7,13.85 C76.8833342,14.4166695 77.1374984,14.9041646 77.4625,15.3125 C77.7875016,15.7208354 78.183331,16.0374989 78.65,16.2625 C79.116669,16.4875011 79.6249972,16.6 80.175,16.6 C80.7583362,16.6 81.2874976,16.4791679 81.7625,16.2375 C82.2375024,15.9958321 82.6583315,15.708335 83.025,15.375 L83.95,16.725 C83.3999972,17.2083358 82.7875034,17.5916653 82.1125,17.875 C81.4374966,18.1583347 80.733337,18.3 80,18.3 C79.199996,18.3 78.4500035,18.1583347 77.75,17.875 C77.0499965,17.5916653 76.4458359,17.1791694 75.9375,16.6375 C75.4291641,16.0958306 75.0291681,15.4291706 74.7375,14.6375 C74.4458319,13.8458294 74.3,12.950005 74.3,11.95 Z M87.65,3.35 C87.249998,3.35 86.9125014,3.22500125 86.6375,2.975 C86.3624986,2.72499875 86.225,2.40833525 86.225,2.025 C86.225,1.624998 86.3624986,1.30416788 86.6375,1.0625 C86.9125014,0.820832125 87.249998,0.7 87.65,0.7 C88.050002,0.7 88.3874986,0.820832125 88.6625,1.0625 C88.9375014,1.30416788 89.075,1.624998 89.075,2.025 C89.075,2.40833525 88.9375014,2.72499875 88.6625,2.975 C88.3874986,3.22500125 88.050002,3.35 87.65,3.35 Z M86.6,5.85 L88.65,5.85 L88.65,18 L86.6,18 L86.6,5.85 Z M92.75,5.85 L94.45,5.85 L94.625,7.6 L94.7,7.6 C95.2833363,7.01666375 95.8958301,6.52916863 96.5375,6.1375 C97.1791699,5.74583138 97.9249957,5.55 98.775,5.55 C100.05834,5.55 100.99583,5.949996 101.5875,6.75 C102.17917,7.550004 102.475,8.7333255 102.475,10.3 L102.475,18 L100.425,18 L100.425,10.575 C100.425,9.42499425 100.241669,8.59583587 99.875,8.0875 C99.5083315,7.57916412 98.925004,7.325 98.125,7.325 C97.4916635,7.325 96.9333357,7.48333175 96.45,7.8 C95.9666642,8.11666825 95.4166697,8.58333025 94.8,9.2 L94.8,18 L92.75,18 L92.75,5.85 Z M107.3,20.05 C107.3,20.7000033 107.612497,21.2166648 108.2375,21.6 C108.862503,21.9833352 109.724994,22.175 110.825,22.175 C111.408336,22.175 111.937498,22.1041674 112.4125,21.9625 C112.887502,21.8208326 113.291665,21.6375011 113.625,21.4125 C113.958335,21.1874989 114.216666,20.9250015 114.4,20.625 C114.583334,20.3249985 114.675,20.0166683 114.675,19.7 C114.675,19.1333305 114.466669,18.7416677 114.05,18.525 C113.633331,18.3083322 113.025004,18.2 112.225,18.2 L110.125,18.2 C109.891666,18.2 109.637501,18.1875001 109.3625,18.1625 C109.087499,18.1374999 108.816668,18.0833338 108.55,18 C108.116665,18.3166683 107.800001,18.6499983 107.6,19 C107.399999,19.3500017 107.3,19.6999983 107.3,20.05 Z M105.5,20.325 C105.5,19.8083307 105.658332,19.316669 105.975,18.85 C106.291668,18.383331 106.724997,17.9583353 107.275,17.575 L107.275,17.475 C106.974999,17.2916657 106.720834,17.0375016 106.5125,16.7125 C106.304166,16.3874984 106.2,15.9833357 106.2,15.5 C106.2,14.9833307 106.341665,14.5333352 106.625,14.15 C106.908335,13.7666648 107.208332,13.4666677 107.525,13.25 L107.525,13.15 C107.124998,12.816665 106.762502,12.3708361 106.4375,11.8125 C106.112498,11.2541639 105.95,10.608337 105.95,9.875 C105.95,9.20833 106.070832,8.608336 106.3125,8.075 C106.554168,7.541664 106.883331,7.08750187 107.3,6.7125 C107.716669,6.33749813 108.204164,6.050001 108.7625,5.85 C109.320836,5.649999 109.90833,5.55 110.525,5.55 C110.858335,5.55 111.170832,5.57916637 111.4625,5.6375 C111.754168,5.69583362 112.016666,5.76666625 112.25,5.85 L116.475,5.85 L116.475,7.425 L113.975,7.425 C114.258335,7.70833475 114.495832,8.0666645 114.6875,8.5 C114.879168,8.9333355 114.975,9.40833075 114.975,9.925 C114.975,10.5750033 114.858335,11.1624974 114.625,11.6875 C114.391666,12.2125026 114.075002,12.6541649 113.675,13.0125 C113.274998,13.3708351 112.804169,13.649999 112.2625,13.85 C111.720831,14.050001 111.14167,14.15 110.525,14.15 C110.224998,14.15 109.916668,14.1125004 109.6,14.0375 C109.283332,13.9624996 108.983335,13.858334 108.7,13.725 C108.483332,13.9083342 108.300001,14.1124989 108.15,14.3375 C107.999999,14.5625011 107.925,14.841665 107.925,15.175 C107.925,15.5583353 108.074998,15.8749987 108.375,16.125 C108.675001,16.3750013 109.241663,16.5 110.075,16.5 L112.425,16.5 C113.841674,16.5 114.904163,16.7291644 115.6125,17.1875 C116.320837,17.6458356 116.675,18.3833282 116.675,19.4 C116.675,19.9666695 116.533335,20.5041641 116.25,21.0125 C115.966665,21.5208359 115.558336,21.9666648 115.025,22.35 C114.491664,22.7333352 113.845837,23.0374989 113.0875,23.2625 C112.329163,23.4875011 111.475005,23.6 110.525,23.6 C109.774996,23.6 109.09167,23.5291674 108.475,23.3875 C107.85833,23.2458326 107.329169,23.0333347 106.8875,22.75 C106.445831,22.4666653 106.104168,22.125002 105.8625,21.725 C105.620832,21.324998 105.5,20.858336 105.5,20.325 Z M110.525,12.775 C110.875002,12.775 111.204165,12.708334 111.5125,12.575 C111.820835,12.441666 112.095832,12.2500013 112.3375,12 C112.579168,11.7499987 112.766666,11.4458351 112.9,11.0875 C113.033334,10.7291649 113.1,10.3250023 113.1,9.875 C113.1,8.9749955 112.850003,8.27916913 112.35,7.7875 C111.849997,7.29583087 111.24167,7.05 110.525,7.05 C109.80833,7.05 109.200002,7.29583087 108.7,7.7875 C108.199998,8.27916913 107.95,8.9749955 107.95,9.875 C107.95,10.3250023 108.016666,10.7291649 108.15,11.0875 C108.283334,11.4458351 108.470832,11.7499987 108.7125,12 C108.954168,12.2500013 109.229165,12.441666 109.5375,12.575 C109.845835,12.708334 110.174998,12.775 110.525,12.775 Z" id="Our-Pricing" fill="#4990E2"></path>
            <path d="M2.5,49 L213.585291,49" id="Line" stroke="#D7D9D9" stroke-width="6" stroke-linecap="square"></path>
            <path d="M2.5,69 L213.585291,69" id="Line" stroke="#D7D9D9" stroke-width="6" stroke-linecap="square"></path>
            <path d="M2.5,87 L145.003509,87" id="Line" stroke="#D7D9D9" stroke-width="6" stroke-linecap="square"></path>
            <g id="Group" transform="translate(0.000000, 127.000000)" stroke-linecap="square">
                <path d="M2.5,2.5 L57.5090902,2.5" id="Line" stroke="#979797" stroke-width="5"></path>
                <path d="M279.5,2.5 L292.50909,2.5" id="Line" stroke="#979797" stroke-width="5"></path>
                <path d="M1.5,15.5 L146.5,15.5" id="Line" stroke="#D7D9D9" stroke-width="3"></path>
                <path d="M0.5,28.5 L295.527117,28.5" id="Line" stroke="#D7D9D9"></path>
            </g>
            <g id="Group" transform="translate(0.000000, 174.000000)" stroke-linecap="square">
                <path d="M2.5,2.5 L57.5090902,2.5" id="Line" stroke="#979797" stroke-width="5"></path>
                <path d="M279.5,2.5 L292.50909,2.5" id="Line" stroke="#979797" stroke-width="5"></path>
                <path d="M1.5,15.5 L146.5,15.5" id="Line" stroke="#D7D9D9" stroke-width="3"></path>
                <path d="M0.5,28.5 L295.527117,28.5" id="Line" stroke="#D7D9D9"></path>
            </g>
            <g id="Group" transform="translate(0.000000, 220.000000)" stroke-linecap="square">
                <path d="M2.5,2.5 L57.5090902,2.5" id="Line" stroke="#979797" stroke-width="5"></path>
                <path d="M279.5,2.5 L292.50909,2.5" id="Line" stroke="#979797" stroke-width="5"></path>
                <path d="M1.5,15.5 L146.5,15.5" id="Line" stroke="#D7D9D9" stroke-width="3"></path>
                <path d="M0.5,28.5 L295.527117,28.5" id="Line" stroke="#D7D9D9"></path>
            </g>
            <g id="Group" transform="translate(0.000000, 267.000000)" stroke-linecap="square">
                <path d="M2.5,2.5 L57.5090902,2.5" id="Line" stroke="#979797" stroke-width="5"></path>
                <path d="M279.5,2.5 L292.50909,2.5" id="Line" stroke="#979797" stroke-width="5"></path>
                <path d="M1.5,15.5 L146.5,15.5" id="Line" stroke="#D7D9D9" stroke-width="3"></path>
                <path d="M0.5,28.5 L295.527117,28.5" id="Line" stroke="#D7D9D9"></path>
            </g>
            <g id="Group" transform="translate(0.000000, 313.000000)" stroke-linecap="square">
                <path d="M2.5,2.5 L57.5090902,2.5" id="Line" stroke="#979797" stroke-width="5"></path>
                <path d="M279.5,2.5 L292.50909,2.5" id="Line" stroke="#979797" stroke-width="5"></path>
                <path d="M1.5,15.5 L146.5,15.5" id="Line" stroke="#D7D9D9" stroke-width="3"></path>
                <path d="M0.5,28.5 L295.527117,28.5" id="Line" stroke="#D7D9D9"></path>
            </g>
            <g id="Group" transform="translate(0.000000, 360.000000)" stroke-linecap="square">
                <path d="M2.5,2.5 L57.5090902,2.5" id="Line" stroke="#979797" stroke-width="5"></path>
                <path d="M279.5,2.5 L292.50909,2.5" id="Line" stroke="#979797" stroke-width="5"></path>
                <path d="M1.5,15.5 L146.5,15.5" id="Line" stroke="#D7D9D9" stroke-width="3"></path>
                <path d="M0.5,28.5 L295.527117,28.5" id="Line" stroke="#D7D9D9"></path>
            </g>
            <g id="Group" transform="translate(304.000000, 127.000000)" stroke-linecap="square">
                <path d="M2.5,2.5 L57.5090902,2.5" id="Line" stroke="#979797" stroke-width="5"></path>
                <path d="M279.5,2.5 L292.50909,2.5" id="Line" stroke="#979797" stroke-width="5"></path>
                <path d="M1.5,15.5 L146.5,15.5" id="Line" stroke="#D7D9D9" stroke-width="3"></path>
                <path d="M0.5,28.5 L295.527117,28.5" id="Line" stroke="#D7D9D9"></path>
            </g>
            <g id="Group" transform="translate(304.000000, 174.000000)" stroke-linecap="square">
                <path d="M2.5,2.5 L57.5090902,2.5" id="Line" stroke="#979797" stroke-width="5"></path>
                <path d="M279.5,2.5 L292.50909,2.5" id="Line" stroke="#979797" stroke-width="5"></path>
                <path d="M1.5,15.5 L146.5,15.5" id="Line" stroke="#D7D9D9" stroke-width="3"></path>
                <path d="M0.5,28.5 L295.527117,28.5" id="Line" stroke="#D7D9D9"></path>
            </g>
            <g id="Group" transform="translate(304.000000, 220.000000)" stroke-linecap="square">
                <path d="M2.5,2.5 L57.5090902,2.5" id="Line" stroke="#979797" stroke-width="5"></path>
                <path d="M279.5,2.5 L292.50909,2.5" id="Line" stroke="#979797" stroke-width="5"></path>
                <path d="M1.5,15.5 L146.5,15.5" id="Line" stroke="#D7D9D9" stroke-width="3"></path>
                <path d="M0.5,28.5 L295.527117,28.5" id="Line" stroke="#D7D9D9"></path>
            </g>
            <g id="Group" transform="translate(304.000000, 267.000000)" stroke-linecap="square">
                <path d="M2.5,2.5 L57.5090902,2.5" id="Line" stroke="#979797" stroke-width="5"></path>
                <path d="M279.5,2.5 L292.50909,2.5" id="Line" stroke="#979797" stroke-width="5"></path>
                <path d="M1.5,15.5 L146.5,15.5" id="Line" stroke="#D7D9D9" stroke-width="3"></path>
                <path d="M0.5,28.5 L295.527117,28.5" id="Line" stroke="#D7D9D9"></path>
            </g>
            <g id="Group" transform="translate(304.000000, 313.000000)" stroke-linecap="square">
                <path d="M2.5,2.5 L57.5090902,2.5" id="Line" stroke="#979797" stroke-width="5"></path>
                <path d="M279.5,2.5 L292.50909,2.5" id="Line" stroke="#979797" stroke-width="5"></path>
                <path d="M1.5,15.5 L146.5,15.5" id="Line" stroke="#D7D9D9" stroke-width="3"></path>
                <path d="M0.5,28.5 L295.527117,28.5" id="Line" stroke="#D7D9D9"></path>
            </g>
            <g id="Group" transform="translate(304.000000, 360.000000)" stroke-linecap="square">
                <path d="M2.5,2.5 L57.5090902,2.5" id="Line" stroke="#979797" stroke-width="5"></path>
                <path d="M279.5,2.5 L292.50909,2.5" id="Line" stroke="#979797" stroke-width="5"></path>
                <path d="M1.5,15.5 L146.5,15.5" id="Line" stroke="#D7D9D9" stroke-width="3"></path>
                <path d="M0.5,28.5 L295.527117,28.5" id="Line" stroke="#D7D9D9"></path>
            </g>
        </g>
    </g>
</svg>