<?xml version="1.0" encoding="UTF-8"?>
<svg width="600px" height="367px" viewBox="0 0 600 367" version="1.1" xmlns="http://www.w3.org/2000/svg" xmlns:xlink="http://www.w3.org/1999/xlink">
    <!-- Generator: Sketch 44.1 (41455) - http://www.bohemiancoding.com/sketch -->
    <title>pricing07</title>
    <desc>Created with Sketch.</desc>
    <defs></defs>
    <g id="Pricing" stroke="none" stroke-width="1" fill="none" fill-rule="evenodd">
        <g id="07">
            <rect id="Rectangle-11" fill="#F8F8F8" x="0" y="59" width="294" height="149" rx="3"></rect>
            <circle id="Oval-2" fill="#FFFFFF" cx="278" cy="78" r="6"></circle>
            <path d="M41.694,141.246 C40.9459963,142.243338 40.0960048,143.019664 39.144,143.575 C38.1919952,144.130336 37.0926729,144.408 35.846,144.408 C34.8259949,144.408 33.879671,144.221002 33.007,143.847 C32.134329,143.472998 31.3580034,142.923337 30.678,142.198 C29.9979966,141.472663 29.425669,140.594338 28.961,139.563 C28.496331,138.531662 28.162001,137.34734 27.958,136.01 L25.782,136.01 L25.782,134.548 L27.788,134.412 C27.7653332,134.207999 27.754,134.004001 27.754,133.8 L27.754,132.644 C27.754,132.462666 27.7653332,132.281334 27.788,132.1 L25.782,132.1 L25.782,130.604 L27.958,130.434 C28.162001,129.09666 28.5019976,127.901005 28.978,126.847 C29.4540024,125.792995 30.0489964,124.89767 30.763,124.161 C31.4770036,123.42433 32.3043286,122.863335 33.245,122.478 C34.1856714,122.092665 35.2113278,121.9 36.322,121.9 C37.3420051,121.9 38.2939956,122.154997 39.178,122.665 C40.0620044,123.175003 40.7986637,123.803996 41.388,124.552 L39.722,126.15 C39.2459976,125.560664 38.7246695,125.079002 38.158,124.705 C37.5913305,124.330998 36.945337,124.144 36.22,124.144 C34.7239925,124.144 33.5170046,124.699328 32.599,125.81 C31.6809954,126.920672 31.0860014,128.46199 30.814,130.434 L39.45,130.434 L39.45,132.1 L30.678,132.1 C30.6553332,132.258667 30.644,132.417333 30.644,132.576 L30.644,133.749 C30.644,133.964334 30.6553332,134.173999 30.678,134.378 L38.09,134.378 L38.09,136.01 L30.848,136.01 C31.1426681,137.936676 31.726329,139.443995 32.599,140.532 C33.471671,141.620005 34.6106596,142.164 36.016,142.164 C36.8546709,142.164 37.5856636,141.960002 38.209,141.552 C38.8323364,141.143998 39.4386637,140.543337 40.028,139.75 L41.694,141.246 Z M44.21,139.512 C44.8673366,140.192003 45.632329,140.792664 46.505,141.314 C47.377671,141.835336 48.4599935,142.096 49.752,142.096 C51.0666732,142.096 52.1433291,141.739004 52.982,141.025 C53.8206709,140.310996 54.24,139.342006 54.24,138.118 C54.24,137.48333 54.1210012,136.899669 53.883,136.367 C53.6449988,135.834331 53.2540027,135.375335 52.71,134.99 C52.1659973,134.604665 51.4520044,134.310001 50.568,134.106 C49.6839956,133.901999 48.5960065,133.8 47.304,133.8 L47.304,131.658 C48.4600058,131.658 49.4289961,131.556001 50.211,131.352 C50.9930039,131.147999 51.6276642,130.864668 52.115,130.502 C52.6023358,130.139332 52.947999,129.708669 53.152,129.21 C53.356001,128.711331 53.458,128.17867 53.458,127.612 C53.458,126.546661 53.12367,125.708003 52.455,125.096 C51.78633,124.483997 50.8740058,124.178 49.718,124.178 C48.8113288,124.178 47.9783371,124.381998 47.219,124.79 C46.4596629,125.198002 45.7513366,125.730663 45.094,126.388 L43.598,124.62 C44.4366709,123.826663 45.3603283,123.175003 46.369,122.665 C47.3776717,122.154997 48.5279935,121.9 49.82,121.9 C50.7720048,121.9 51.6446627,122.024665 52.438,122.274 C53.2313373,122.523335 53.9169971,122.880331 54.495,123.345 C55.0730029,123.809669 55.5206651,124.381997 55.838,125.062 C56.1553349,125.742003 56.314,126.523996 56.314,127.408 C56.314,128.722673 55.951337,129.799329 55.226,130.638 C54.500663,131.476671 53.5486726,132.122664 52.37,132.576 L52.37,132.712 C53.0273366,132.870667 53.6393305,133.102998 54.206,133.409 C54.7726695,133.715002 55.2713312,134.100331 55.702,134.565 C56.1326688,135.029669 56.4669988,135.567997 56.705,136.18 C56.9430012,136.792003 57.062,137.471996 57.062,138.22 C57.062,139.172005 56.8750019,140.033329 56.501,140.804 C56.1269981,141.574671 55.6170032,142.226331 54.971,142.759 C54.3249968,143.291669 53.5713376,143.699665 52.71,143.983 C51.8486624,144.266335 50.9193383,144.408 49.922,144.408 C49.0606624,144.408 48.2730036,144.323001 47.559,144.153 C46.8449964,143.982999 46.1933363,143.756335 45.604,143.473 C45.0146637,143.189665 44.487669,142.866668 44.023,142.504 C43.558331,142.141332 43.1446685,141.756002 42.782,141.348 L44.21,139.512 Z M69.132,135.772 L69.132,129.482 C69.132,128.892664 69.1489998,128.195671 69.183,127.391 C69.2170002,126.586329 69.2566664,125.889336 69.302,125.3 L69.166,125.3 C68.8939986,125.821336 68.6106681,126.331331 68.316,126.83 C68.0213319,127.328669 67.7153349,127.838664 67.398,128.36 L62.332,135.772 L69.132,135.772 Z M74.742,138.016 L71.784,138.016 L71.784,144 L69.132,144 L69.132,138.016 L59.374,138.016 L59.374,136.18 L68.656,122.308 L71.784,122.308 L71.784,135.772 L74.742,135.772 L74.742,138.016 Z M83.684,133.46 C84.3866702,133.46 85.1403293,133.239002 85.945,132.797 C86.7496707,132.354998 87.514663,131.612672 88.24,130.57 C88.0586658,128.439323 87.5600041,126.830005 86.744,125.742 C85.9279959,124.653995 84.8286736,124.11 83.446,124.11 C82.9246641,124.11 82.431669,124.223332 81.967,124.45 C81.502331,124.676668 81.1000017,124.999665 80.76,125.419 C80.4199983,125.838335 80.1536676,126.342664 79.961,126.932 C79.7683324,127.521336 79.672,128.16733 79.672,128.87 C79.672,130.298007 80.0006634,131.419996 80.658,132.236 C81.3153366,133.052004 82.3239932,133.46 83.684,133.46 Z M78.992,140.362 C79.4453356,140.883336 79.9836635,141.302665 80.607,141.62 C81.2303364,141.937335 81.8819966,142.096 82.562,142.096 C83.3326705,142.096 84.0579966,141.937335 84.738,141.62 C85.4180034,141.302665 86.0186641,140.77567 86.54,140.039 C87.0613359,139.30233 87.4806651,138.344673 87.798,137.166 C88.1153349,135.987327 88.2853332,134.525342 88.308,132.78 C87.6279966,133.641338 86.8346712,134.321331 85.928,134.82 C85.0213288,135.318669 84.1146712,135.568 83.208,135.568 C81.3266573,135.568 79.8306722,135.012672 78.72,133.902 C77.6093278,132.791328 77.054,131.114011 77.054,128.87 C77.054,127.827328 77.2239983,126.881004 77.564,126.031 C77.9040017,125.180996 78.3629971,124.450003 78.941,123.838 C79.5190029,123.225997 80.1989961,122.750002 80.981,122.41 C81.7630039,122.069998 82.5846624,121.9 83.446,121.9 C84.5113387,121.9 85.5029954,122.115331 86.421,122.546 C87.3390046,122.976669 88.13233,123.628329 88.801,124.501 C89.46967,125.373671 89.9909981,126.46166 90.365,127.765 C90.7390019,129.06834 90.926,130.592658 90.926,132.338 C90.926,134.514011 90.6993356,136.366992 90.246,137.897 C89.7926644,139.427008 89.1806705,140.673662 88.41,141.637 C87.6393295,142.600338 86.7610049,143.302998 85.775,143.745 C84.7889951,144.187002 83.7520054,144.408 82.664,144.408 C81.5079942,144.408 80.493671,144.192669 79.621,143.762 C78.748329,143.331331 78.0173363,142.787337 77.428,142.13 L78.992,140.362 Z" id="€349" fill="#79797B"></path>
            <path d="M27.5,103.5 L59.5624391,103.5" id="Line" stroke="#979797" stroke-width="5" stroke-linecap="square"></path>
            <path d="M147.5,103.5 L206.576222,103.5" id="Line" stroke="#D7D9D9" stroke-width="5" stroke-linecap="square"></path>
            <path d="M147.5,125.5 L206.576222,125.5" id="Line" stroke="#D7D9D9" stroke-width="3" stroke-linecap="square"></path>
            <path d="M147.5,139.5 L206.576222,139.5" id="Line" stroke="#D7D9D9" stroke-width="3" stroke-linecap="square"></path>
            <path d="M147.5,153.5 L206.576222,153.5" id="Line" stroke="#D7D9D9" stroke-width="3" stroke-linecap="square"></path>
            <rect id="Rectangle-11" fill="#4990E2" x="306" y="59" width="294" height="149" rx="3"></rect>
            <circle id="Oval-2" fill="#FFFFFF" cx="584" cy="78" r="6"></circle>
            <path d="M347.694,141.246 C346.945996,142.243338 346.096005,143.019664 345.144,143.575 C344.191995,144.130336 343.092673,144.408 341.846,144.408 C340.825995,144.408 339.879671,144.221002 339.007,143.847 C338.134329,143.472998 337.358003,142.923337 336.678,142.198 C335.997997,141.472663 335.425669,140.594338 334.961,139.563 C334.496331,138.531662 334.162001,137.34734 333.958,136.01 L331.782,136.01 L331.782,134.548 L333.788,134.412 C333.765333,134.207999 333.754,134.004001 333.754,133.8 L333.754,132.644 C333.754,132.462666 333.765333,132.281334 333.788,132.1 L331.782,132.1 L331.782,130.604 L333.958,130.434 C334.162001,129.09666 334.501998,127.901005 334.978,126.847 C335.454002,125.792995 336.048996,124.89767 336.763,124.161 C337.477004,123.42433 338.304329,122.863335 339.245,122.478 C340.185671,122.092665 341.211328,121.9 342.322,121.9 C343.342005,121.9 344.293996,122.154997 345.178,122.665 C346.062004,123.175003 346.798664,123.803996 347.388,124.552 L345.722,126.15 C345.245998,125.560664 344.72467,125.079002 344.158,124.705 C343.591331,124.330998 342.945337,124.144 342.22,124.144 C340.723993,124.144 339.517005,124.699328 338.599,125.81 C337.680995,126.920672 337.086001,128.46199 336.814,130.434 L345.45,130.434 L345.45,132.1 L336.678,132.1 C336.655333,132.258667 336.644,132.417333 336.644,132.576 L336.644,133.749 C336.644,133.964334 336.655333,134.173999 336.678,134.378 L344.09,134.378 L344.09,136.01 L336.848,136.01 C337.142668,137.936676 337.726329,139.443995 338.599,140.532 C339.471671,141.620005 340.61066,142.164 342.016,142.164 C342.854671,142.164 343.585664,141.960002 344.209,141.552 C344.832336,141.143998 345.438664,140.543337 346.028,139.75 L347.694,141.246 Z M358.234,135.772 L358.234,129.482 C358.234,128.892664 358.251,128.195671 358.285,127.391 C358.319,126.586329 358.358666,125.889336 358.404,125.3 L358.268,125.3 C357.995999,125.821336 357.712668,126.331331 357.418,126.83 C357.123332,127.328669 356.817335,127.838664 356.5,128.36 L351.434,135.772 L358.234,135.772 Z M363.844,138.016 L360.886,138.016 L360.886,144 L358.234,144 L358.234,138.016 L348.476,138.016 L348.476,136.18 L357.758,122.308 L360.886,122.308 L360.886,135.772 L363.844,135.772 L363.844,138.016 Z M372.786,133.46 C373.48867,133.46 374.242329,133.239002 375.047,132.797 C375.851671,132.354998 376.616663,131.612672 377.342,130.57 C377.160666,128.439323 376.662004,126.830005 375.846,125.742 C375.029996,124.653995 373.930674,124.11 372.548,124.11 C372.026664,124.11 371.533669,124.223332 371.069,124.45 C370.604331,124.676668 370.202002,124.999665 369.862,125.419 C369.521998,125.838335 369.255668,126.342664 369.063,126.932 C368.870332,127.521336 368.774,128.16733 368.774,128.87 C368.774,130.298007 369.102663,131.419996 369.76,132.236 C370.417337,133.052004 371.425993,133.46 372.786,133.46 Z M368.094,140.362 C368.547336,140.883336 369.085664,141.302665 369.709,141.62 C370.332336,141.937335 370.983997,142.096 371.664,142.096 C372.434671,142.096 373.159997,141.937335 373.84,141.62 C374.520003,141.302665 375.120664,140.77567 375.642,140.039 C376.163336,139.30233 376.582665,138.344673 376.9,137.166 C377.217335,135.987327 377.387333,134.525342 377.41,132.78 C376.729997,133.641338 375.936671,134.321331 375.03,134.82 C374.123329,135.318669 373.216671,135.568 372.31,135.568 C370.428657,135.568 368.932672,135.012672 367.822,133.902 C366.711328,132.791328 366.156,131.114011 366.156,128.87 C366.156,127.827328 366.325998,126.881004 366.666,126.031 C367.006002,125.180996 367.464997,124.450003 368.043,123.838 C368.621003,123.225997 369.300996,122.750002 370.083,122.41 C370.865004,122.069998 371.686662,121.9 372.548,121.9 C373.613339,121.9 374.604995,122.115331 375.523,122.546 C376.441005,122.976669 377.23433,123.628329 377.903,124.501 C378.57167,125.373671 379.092998,126.46166 379.467,127.765 C379.841002,129.06834 380.028,130.592658 380.028,132.338 C380.028,134.514011 379.801336,136.366992 379.348,137.897 C378.894664,139.427008 378.282671,140.673662 377.512,141.637 C376.741329,142.600338 375.863005,143.302998 374.877,143.745 C373.890995,144.187002 372.854005,144.408 371.766,144.408 C370.609994,144.408 369.595671,144.192669 368.723,143.762 C367.850329,143.331331 367.119336,142.787337 366.53,142.13 L368.094,140.362 Z M389.684,133.46 C390.38667,133.46 391.140329,133.239002 391.945,132.797 C392.749671,132.354998 393.514663,131.612672 394.24,130.57 C394.058666,128.439323 393.560004,126.830005 392.744,125.742 C391.927996,124.653995 390.828674,124.11 389.446,124.11 C388.924664,124.11 388.431669,124.223332 387.967,124.45 C387.502331,124.676668 387.100002,124.999665 386.76,125.419 C386.419998,125.838335 386.153668,126.342664 385.961,126.932 C385.768332,127.521336 385.672,128.16733 385.672,128.87 C385.672,130.298007 386.000663,131.419996 386.658,132.236 C387.315337,133.052004 388.323993,133.46 389.684,133.46 Z M384.992,140.362 C385.445336,140.883336 385.983664,141.302665 386.607,141.62 C387.230336,141.937335 387.881997,142.096 388.562,142.096 C389.332671,142.096 390.057997,141.937335 390.738,141.62 C391.418003,141.302665 392.018664,140.77567 392.54,140.039 C393.061336,139.30233 393.480665,138.344673 393.798,137.166 C394.115335,135.987327 394.285333,134.525342 394.308,132.78 C393.627997,133.641338 392.834671,134.321331 391.928,134.82 C391.021329,135.318669 390.114671,135.568 389.208,135.568 C387.326657,135.568 385.830672,135.012672 384.72,133.902 C383.609328,132.791328 383.054,131.114011 383.054,128.87 C383.054,127.827328 383.223998,126.881004 383.564,126.031 C383.904002,125.180996 384.362997,124.450003 384.941,123.838 C385.519003,123.225997 386.198996,122.750002 386.981,122.41 C387.763004,122.069998 388.584662,121.9 389.446,121.9 C390.511339,121.9 391.502995,122.115331 392.421,122.546 C393.339005,122.976669 394.13233,123.628329 394.801,124.501 C395.46967,125.373671 395.990998,126.46166 396.365,127.765 C396.739002,129.06834 396.926,130.592658 396.926,132.338 C396.926,134.514011 396.699336,136.366992 396.246,137.897 C395.792664,139.427008 395.180671,140.673662 394.41,141.637 C393.639329,142.600338 392.761005,143.302998 391.775,143.745 C390.788995,144.187002 389.752005,144.408 388.664,144.408 C387.507994,144.408 386.493671,144.192669 385.621,143.762 C384.748329,143.331331 384.017336,142.787337 383.428,142.13 L384.992,140.362 Z" id="€499" fill="#FFFFFF"></path>
            <path d="M333.5,103.5 L365.562439,103.5" id="Line" stroke="#FFFFFF" stroke-width="5" stroke-linecap="square"></path>
            <path d="M453.5,103.5 L512.576222,103.5" id="Line" stroke="#FFFFFF" stroke-width="5" stroke-linecap="square"></path>
            <path d="M453.5,125.5 L512.576222,125.5" id="Line" stroke="#FFFFFF" stroke-width="3" stroke-linecap="square"></path>
            <path d="M453.5,139.5 L512.576222,139.5" id="Line" stroke="#FFFFFF" stroke-width="3" stroke-linecap="square"></path>
            <path d="M453.5,153.5 L512.576222,153.5" id="Line" stroke="#FFFFFF" stroke-width="3" stroke-linecap="square"></path>
            <rect id="Rectangle-11" fill="#F8F8F8" x="0" y="218" width="294" height="149" rx="3"></rect>
            <circle id="Oval-2" fill="#FFFFFF" cx="278" cy="237" r="6"></circle>
            <path d="M41.694,300.246 C40.9459963,301.243338 40.0960048,302.019664 39.144,302.575 C38.1919952,303.130336 37.0926729,303.408 35.846,303.408 C34.8259949,303.408 33.879671,303.221002 33.007,302.847 C32.134329,302.472998 31.3580034,301.923337 30.678,301.198 C29.9979966,300.472663 29.425669,299.594338 28.961,298.563 C28.496331,297.531662 28.162001,296.34734 27.958,295.01 L25.782,295.01 L25.782,293.548 L27.788,293.412 C27.7653332,293.207999 27.754,293.004001 27.754,292.8 L27.754,291.644 C27.754,291.462666 27.7653332,291.281334 27.788,291.1 L25.782,291.1 L25.782,289.604 L27.958,289.434 C28.162001,288.09666 28.5019976,286.901005 28.978,285.847 C29.4540024,284.792995 30.0489964,283.89767 30.763,283.161 C31.4770036,282.42433 32.3043286,281.863335 33.245,281.478 C34.1856714,281.092665 35.2113278,280.9 36.322,280.9 C37.3420051,280.9 38.2939956,281.154997 39.178,281.665 C40.0620044,282.175003 40.7986637,282.803996 41.388,283.552 L39.722,285.15 C39.2459976,284.560664 38.7246695,284.079002 38.158,283.705 C37.5913305,283.330998 36.945337,283.144 36.22,283.144 C34.7239925,283.144 33.5170046,283.699328 32.599,284.81 C31.6809954,285.920672 31.0860014,287.46199 30.814,289.434 L39.45,289.434 L39.45,291.1 L30.678,291.1 C30.6553332,291.258667 30.644,291.417333 30.644,291.576 L30.644,292.749 C30.644,292.964334 30.6553332,293.173999 30.678,293.378 L38.09,293.378 L38.09,295.01 L30.848,295.01 C31.1426681,296.936676 31.726329,298.443995 32.599,299.532 C33.471671,300.620005 34.6106596,301.164 36.016,301.164 C36.8546709,301.164 37.5856636,300.960002 38.209,300.552 C38.8323364,300.143998 39.4386637,299.543337 40.028,298.75 L41.694,300.246 Z M44.108,298.614 C44.7426698,299.271337 45.496329,299.849331 46.369,300.348 C47.241671,300.846669 48.3126603,301.096 49.582,301.096 C50.2393366,301.096 50.8569971,300.977001 51.435,300.739 C52.0130029,300.500999 52.5173312,300.166669 52.948,299.736 C53.3786688,299.305331 53.7186654,298.784003 53.968,298.172 C54.2173346,297.559997 54.342,296.880004 54.342,296.132 C54.342,294.635993 53.9226709,293.468671 53.084,292.63 C52.2453291,291.791329 51.1233404,291.372 49.718,291.372 C48.9699963,291.372 48.3296693,291.485332 47.797,291.712 C47.2643307,291.938668 46.6693366,292.267331 46.012,292.698 L44.516,291.746 L45.23,281.308 L56.076,281.308 L56.076,283.722 L47.678,283.722 L47.1,290.148 C47.6213359,289.875999 48.1426641,289.660667 48.664,289.502 C49.1853359,289.343333 49.7746634,289.264 50.432,289.264 C51.361338,289.264 52.2339959,289.399999 53.05,289.672 C53.8660041,289.944001 54.5799969,290.357664 55.192,290.913 C55.8040031,291.468336 56.2856649,292.170996 56.637,293.021 C56.9883351,293.871004 57.164,294.885327 57.164,296.064 C57.164,297.242673 56.960002,298.285329 56.552,299.192 C56.143998,300.098671 55.6000034,300.863664 54.92,301.487 C54.2399966,302.110336 53.463671,302.586332 52.591,302.915 C51.718329,303.243668 50.8060048,303.408 49.854,303.408 C48.9926624,303.408 48.2050036,303.323001 47.491,303.153 C46.7769964,302.982999 46.1310029,302.762001 45.553,302.49 C44.9749971,302.217999 44.453669,301.906335 43.989,301.555 C43.524331,301.203665 43.1106685,300.835335 42.748,300.45 L44.108,298.614 Z M61.482,300.688 L66.446,300.688 L66.446,284.708 L62.502,284.708 L62.502,282.906 C63.4993383,282.724666 64.3663297,282.503668 65.103,282.243 C65.8396704,281.982332 66.5026637,281.670668 67.092,281.308 L69.234,281.308 L69.234,300.688 L73.722,300.688 L73.722,303 L61.482,303 L61.482,300.688 Z M84.16,303.408 C81.9613223,303.408 80.2500061,302.433343 79.026,300.484 C77.8019939,298.534657 77.19,295.735352 77.19,292.086 C77.19,288.436648 77.8019939,285.66001 79.026,283.756 C80.2500061,281.85199 81.9613223,280.9 84.16,280.9 C86.3360109,280.9 88.0359939,281.85199 89.26,283.756 C90.4840061,285.66001 91.096,288.436648 91.096,292.086 C91.096,295.735352 90.4840061,298.534657 89.26,300.484 C88.0359939,302.433343 86.3360109,303.408 84.16,303.408 Z M84.16,301.164 C84.7946698,301.164 85.3669974,300.988335 85.877,300.637 C86.3870026,300.285665 86.8289981,299.74167 87.203,299.005 C87.5770019,298.26833 87.865999,297.327672 88.07,296.183 C88.274001,295.038328 88.376,293.672675 88.376,292.086 C88.376,290.499325 88.274001,289.139339 88.07,288.006 C87.865999,286.872661 87.5770019,285.949004 87.203,285.235 C86.8289981,284.520996 86.3870026,283.994002 85.877,283.654 C85.3669974,283.313998 84.7946698,283.144 84.16,283.144 C83.5253302,283.144 82.9473359,283.313998 82.426,283.654 C81.9046641,283.994002 81.4570019,284.520996 81.083,285.235 C80.7089981,285.949004 80.420001,286.872661 80.216,288.006 C80.011999,289.139339 79.91,290.499325 79.91,292.086 C79.91,295.259349 80.3009961,297.565659 81.083,299.005 C81.8650039,300.444341 82.8906603,301.164 84.16,301.164 Z" id="€510" fill="#79797B"></path>
            <path d="M27.5,262.5 L59.5624391,262.5" id="Line" stroke="#979797" stroke-width="5" stroke-linecap="square"></path>
            <path d="M147.5,262.5 L206.576222,262.5" id="Line" stroke="#D7D9D9" stroke-width="5" stroke-linecap="square"></path>
            <path d="M147.5,284.5 L206.576222,284.5" id="Line" stroke="#D7D9D9" stroke-width="3" stroke-linecap="square"></path>
            <path d="M147.5,298.5 L206.576222,298.5" id="Line" stroke="#D7D9D9" stroke-width="3" stroke-linecap="square"></path>
            <path d="M147.5,312.5 L206.576222,312.5" id="Line" stroke="#D7D9D9" stroke-width="3" stroke-linecap="square"></path>
            <rect id="Rectangle-11" fill="#F8F8F8" x="306" y="218" width="294" height="149" rx="3"></rect>
            <circle id="Oval-2" fill="#FFFFFF" cx="584" cy="237" r="6"></circle>
            <path d="M347.694,300.246 C346.945996,301.243338 346.096005,302.019664 345.144,302.575 C344.191995,303.130336 343.092673,303.408 341.846,303.408 C340.825995,303.408 339.879671,303.221002 339.007,302.847 C338.134329,302.472998 337.358003,301.923337 336.678,301.198 C335.997997,300.472663 335.425669,299.594338 334.961,298.563 C334.496331,297.531662 334.162001,296.34734 333.958,295.01 L331.782,295.01 L331.782,293.548 L333.788,293.412 C333.765333,293.207999 333.754,293.004001 333.754,292.8 L333.754,291.644 C333.754,291.462666 333.765333,291.281334 333.788,291.1 L331.782,291.1 L331.782,289.604 L333.958,289.434 C334.162001,288.09666 334.501998,286.901005 334.978,285.847 C335.454002,284.792995 336.048996,283.89767 336.763,283.161 C337.477004,282.42433 338.304329,281.863335 339.245,281.478 C340.185671,281.092665 341.211328,280.9 342.322,280.9 C343.342005,280.9 344.293996,281.154997 345.178,281.665 C346.062004,282.175003 346.798664,282.803996 347.388,283.552 L345.722,285.15 C345.245998,284.560664 344.72467,284.079002 344.158,283.705 C343.591331,283.330998 342.945337,283.144 342.22,283.144 C340.723993,283.144 339.517005,283.699328 338.599,284.81 C337.680995,285.920672 337.086001,287.46199 336.814,289.434 L345.45,289.434 L345.45,291.1 L336.678,291.1 C336.655333,291.258667 336.644,291.417333 336.644,291.576 L336.644,292.749 C336.644,292.964334 336.655333,293.173999 336.678,293.378 L344.09,293.378 L344.09,295.01 L336.848,295.01 C337.142668,296.936676 337.726329,298.443995 338.599,299.532 C339.471671,300.620005 340.61066,301.164 342.016,301.164 C342.854671,301.164 343.585664,300.960002 344.209,300.552 C344.832336,300.143998 345.438664,299.543337 346.028,298.75 L347.694,300.246 Z M355.888,292.46 C356.59067,292.46 357.344329,292.239002 358.149,291.797 C358.953671,291.354998 359.718663,290.612672 360.444,289.57 C360.262666,287.439323 359.764004,285.830005 358.948,284.742 C358.131996,283.653995 357.032674,283.11 355.65,283.11 C355.128664,283.11 354.635669,283.223332 354.171,283.45 C353.706331,283.676668 353.304002,283.999665 352.964,284.419 C352.623998,284.838335 352.357668,285.342664 352.165,285.932 C351.972332,286.521336 351.876,287.16733 351.876,287.87 C351.876,289.298007 352.204663,290.419996 352.862,291.236 C353.519337,292.052004 354.527993,292.46 355.888,292.46 Z M351.196,299.362 C351.649336,299.883336 352.187664,300.302665 352.811,300.62 C353.434336,300.937335 354.085997,301.096 354.766,301.096 C355.536671,301.096 356.261997,300.937335 356.942,300.62 C357.622003,300.302665 358.222664,299.77567 358.744,299.039 C359.265336,298.30233 359.684665,297.344673 360.002,296.166 C360.319335,294.987327 360.489333,293.525342 360.512,291.78 C359.831997,292.641338 359.038671,293.321331 358.132,293.82 C357.225329,294.318669 356.318671,294.568 355.412,294.568 C353.530657,294.568 352.034672,294.012672 350.924,292.902 C349.813328,291.791328 349.258,290.114011 349.258,287.87 C349.258,286.827328 349.427998,285.881004 349.768,285.031 C350.108002,284.180996 350.566997,283.450003 351.145,282.838 C351.723003,282.225997 352.402996,281.750002 353.185,281.41 C353.967004,281.069998 354.788662,280.9 355.65,280.9 C356.715339,280.9 357.706995,281.115331 358.625,281.546 C359.543005,281.976669 360.33633,282.628329 361.005,283.501 C361.67367,284.373671 362.194998,285.46166 362.569,286.765 C362.943002,288.06834 363.13,289.592658 363.13,291.338 C363.13,293.514011 362.903336,295.366992 362.45,296.897 C361.996664,298.427008 361.384671,299.673662 360.614,300.637 C359.843329,301.600338 358.965005,302.302998 357.979,302.745 C356.992995,303.187002 355.956005,303.408 354.868,303.408 C353.711994,303.408 352.697671,303.192669 351.825,302.762 C350.952329,302.331331 350.221336,301.787337 349.632,301.13 L351.196,299.362 Z M372.786,292.46 C373.48867,292.46 374.242329,292.239002 375.047,291.797 C375.851671,291.354998 376.616663,290.612672 377.342,289.57 C377.160666,287.439323 376.662004,285.830005 375.846,284.742 C375.029996,283.653995 373.930674,283.11 372.548,283.11 C372.026664,283.11 371.533669,283.223332 371.069,283.45 C370.604331,283.676668 370.202002,283.999665 369.862,284.419 C369.521998,284.838335 369.255668,285.342664 369.063,285.932 C368.870332,286.521336 368.774,287.16733 368.774,287.87 C368.774,289.298007 369.102663,290.419996 369.76,291.236 C370.417337,292.052004 371.425993,292.46 372.786,292.46 Z M368.094,299.362 C368.547336,299.883336 369.085664,300.302665 369.709,300.62 C370.332336,300.937335 370.983997,301.096 371.664,301.096 C372.434671,301.096 373.159997,300.937335 373.84,300.62 C374.520003,300.302665 375.120664,299.77567 375.642,299.039 C376.163336,298.30233 376.582665,297.344673 376.9,296.166 C377.217335,294.987327 377.387333,293.525342 377.41,291.78 C376.729997,292.641338 375.936671,293.321331 375.03,293.82 C374.123329,294.318669 373.216671,294.568 372.31,294.568 C370.428657,294.568 368.932672,294.012672 367.822,292.902 C366.711328,291.791328 366.156,290.114011 366.156,287.87 C366.156,286.827328 366.325998,285.881004 366.666,285.031 C367.006002,284.180996 367.464997,283.450003 368.043,282.838 C368.621003,282.225997 369.300996,281.750002 370.083,281.41 C370.865004,281.069998 371.686662,280.9 372.548,280.9 C373.613339,280.9 374.604995,281.115331 375.523,281.546 C376.441005,281.976669 377.23433,282.628329 377.903,283.501 C378.57167,284.373671 379.092998,285.46166 379.467,286.765 C379.841002,288.06834 380.028,289.592658 380.028,291.338 C380.028,293.514011 379.801336,295.366992 379.348,296.897 C378.894664,298.427008 378.282671,299.673662 377.512,300.637 C376.741329,301.600338 375.863005,302.302998 374.877,302.745 C373.890995,303.187002 372.854005,303.408 371.766,303.408 C370.609994,303.408 369.595671,303.192669 368.723,302.762 C367.850329,302.331331 367.119336,301.787337 366.53,301.13 L368.094,299.362 Z M389.684,292.46 C390.38667,292.46 391.140329,292.239002 391.945,291.797 C392.749671,291.354998 393.514663,290.612672 394.24,289.57 C394.058666,287.439323 393.560004,285.830005 392.744,284.742 C391.927996,283.653995 390.828674,283.11 389.446,283.11 C388.924664,283.11 388.431669,283.223332 387.967,283.45 C387.502331,283.676668 387.100002,283.999665 386.76,284.419 C386.419998,284.838335 386.153668,285.342664 385.961,285.932 C385.768332,286.521336 385.672,287.16733 385.672,287.87 C385.672,289.298007 386.000663,290.419996 386.658,291.236 C387.315337,292.052004 388.323993,292.46 389.684,292.46 Z M384.992,299.362 C385.445336,299.883336 385.983664,300.302665 386.607,300.62 C387.230336,300.937335 387.881997,301.096 388.562,301.096 C389.332671,301.096 390.057997,300.937335 390.738,300.62 C391.418003,300.302665 392.018664,299.77567 392.54,299.039 C393.061336,298.30233 393.480665,297.344673 393.798,296.166 C394.115335,294.987327 394.285333,293.525342 394.308,291.78 C393.627997,292.641338 392.834671,293.321331 391.928,293.82 C391.021329,294.318669 390.114671,294.568 389.208,294.568 C387.326657,294.568 385.830672,294.012672 384.72,292.902 C383.609328,291.791328 383.054,290.114011 383.054,287.87 C383.054,286.827328 383.223998,285.881004 383.564,285.031 C383.904002,284.180996 384.362997,283.450003 384.941,282.838 C385.519003,282.225997 386.198996,281.750002 386.981,281.41 C387.763004,281.069998 388.584662,280.9 389.446,280.9 C390.511339,280.9 391.502995,281.115331 392.421,281.546 C393.339005,281.976669 394.13233,282.628329 394.801,283.501 C395.46967,284.373671 395.990998,285.46166 396.365,286.765 C396.739002,288.06834 396.926,289.592658 396.926,291.338 C396.926,293.514011 396.699336,295.366992 396.246,296.897 C395.792664,298.427008 395.180671,299.673662 394.41,300.637 C393.639329,301.600338 392.761005,302.302998 391.775,302.745 C390.788995,303.187002 389.752005,303.408 388.664,303.408 C387.507994,303.408 386.493671,303.192669 385.621,302.762 C384.748329,302.331331 384.017336,301.787337 383.428,301.13 L384.992,299.362 Z" id="€999" fill="#79797B"></path>
            <path d="M333.5,262.5 L365.562439,262.5" id="Line" stroke="#979797" stroke-width="5" stroke-linecap="square"></path>
            <path d="M453.5,262.5 L512.576222,262.5" id="Line" stroke="#D7D9D9" stroke-width="5" stroke-linecap="square"></path>
            <path d="M453.5,284.5 L512.576222,284.5" id="Line" stroke="#D7D9D9" stroke-width="3" stroke-linecap="square"></path>
            <path d="M453.5,298.5 L512.576222,298.5" id="Line" stroke="#D7D9D9" stroke-width="3" stroke-linecap="square"></path>
            <path d="M453.5,312.5 L512.576222,312.5" id="Line" stroke="#D7D9D9" stroke-width="3" stroke-linecap="square"></path>
            <path d="M240.866,16.276 C239.853995,16.276 238.930171,16.0958351 238.0945,15.7355 C237.258829,15.3751649 236.542003,14.85767 235.944,14.183 C235.345997,13.50833 234.882168,12.6880048 234.5525,11.722 C234.222832,10.7559952 234.058,9.6596728 234.058,8.433 C234.058,7.2063272 234.222832,6.11383812 234.5525,5.1555 C234.882168,4.19716187 235.345997,3.39216992 235.944,2.7405 C236.542003,2.08883007 237.258829,1.59050173 238.0945,1.2455 C238.930171,0.900498275 239.853995,0.728 240.866,0.728 C241.878005,0.728 242.801829,0.900498275 243.6375,1.2455 C244.473171,1.59050173 245.189997,2.09266337 245.788,2.752 C246.386003,3.41133663 246.849832,4.22016188 247.1795,5.1785 C247.509168,6.13683812 247.674,7.22166061 247.674,8.433 C247.674,9.6596728 247.509168,10.7559952 247.1795,11.722 C246.849832,12.6880048 246.386003,13.50833 245.788,14.183 C245.189997,14.85767 244.473171,15.3751649 243.6375,15.7355 C242.801829,16.0958351 241.878005,16.276 240.866,16.276 Z M240.866,13.355 C241.893338,13.355 242.705997,12.9141711 243.304,12.0325 C243.902003,11.1508289 244.201,9.95100759 244.201,8.433 C244.201,6.93032582 243.902003,5.75733755 243.304,4.914 C242.705997,4.07066245 241.893338,3.649 240.866,3.649 C239.838662,3.649 239.026003,4.07066245 238.428,4.914 C237.829997,5.75733755 237.531,6.93032582 237.531,8.433 C237.531,9.95100759 237.829997,11.1508289 238.428,12.0325 C239.026003,12.9141711 239.838662,13.355 240.866,13.355 Z M250.411,1.004 L253.815,1.004 L253.815,9.399 C253.815,10.8710074 254.037331,11.8983304 254.482,12.481 C254.926669,13.0636696 255.570662,13.355 256.414,13.355 C257.257338,13.355 257.908998,13.0636696 258.369,12.481 C258.829002,11.8983304 259.059,10.8710074 259.059,9.399 L259.059,1.004 L262.325,1.004 L262.325,9.054 C262.325,11.5686792 261.822838,13.4009943 260.8185,14.551 C259.814162,15.7010058 258.34601,16.276 256.414,16.276 C254.466657,16.276 252.979338,15.7010058 251.952,14.551 C250.924662,13.4009943 250.411,11.5686792 250.411,9.054 L250.411,1.004 Z M269.179,7.904 L270.927,7.904 C271.816338,7.904 272.494831,7.71616855 272.9625,7.3405 C273.430169,6.96483145 273.664,6.40900368 273.664,5.673 C273.664,4.93699632 273.430169,4.42333479 272.9625,4.132 C272.494831,3.84066521 271.816338,3.695 270.927,3.695 L269.179,3.695 L269.179,7.904 Z M273.917,16 L271.042,10.595 L269.179,10.595 L269.179,16 L265.798,16 L265.798,1.004 L271.203,1.004 C272.000337,1.004 272.74783,1.0806659 273.4455,1.234 C274.14317,1.3873341 274.752664,1.64416487 275.274,2.0045 C275.795336,2.36483513 276.209332,2.84399701 276.516,3.442 C276.822668,4.04000299 276.976,4.78366222 276.976,5.673 C276.976,6.77700552 276.734502,7.68549644 276.2515,8.3985 C275.768498,9.11150357 275.120671,9.64433157 274.308,9.997 L277.712,16 L273.917,16 Z M284.75,1.004 L290.224,1.004 C291.036671,1.004 291.799496,1.08449919 292.5125,1.2455 C293.225504,1.40650081 293.846497,1.67483146 294.3755,2.0505 C294.904503,2.42616855 295.322332,2.9244969 295.629,3.5455 C295.935668,4.16650311 296.089,4.92932881 296.089,5.834 C296.089,6.70800437 295.931835,7.46699678 295.6175,8.111 C295.303165,8.75500322 294.877669,9.28399793 294.341,9.698 C293.804331,10.1120021 293.183337,10.4186657 292.478,10.618 C291.772663,10.8173343 291.021337,10.917 290.224,10.917 L288.131,10.917 L288.131,16 L284.75,16 L284.75,1.004 Z M290.017,8.226 C291.857009,8.226 292.777,7.42867464 292.777,5.834 C292.777,5.05199609 292.543169,4.50000161 292.0755,4.178 C291.607831,3.85599839 290.921671,3.695 290.017,3.695 L288.131,3.695 L288.131,8.226 L290.017,8.226 Z M302.069,7.904 L303.817,7.904 C304.706338,7.904 305.384831,7.71616855 305.8525,7.3405 C306.320169,6.96483145 306.554,6.40900368 306.554,5.673 C306.554,4.93699632 306.320169,4.42333479 305.8525,4.132 C305.384831,3.84066521 304.706338,3.695 303.817,3.695 L302.069,3.695 L302.069,7.904 Z M306.807,16 L303.932,10.595 L302.069,10.595 L302.069,16 L298.688,16 L298.688,1.004 L304.093,1.004 C304.890337,1.004 305.63783,1.0806659 306.3355,1.234 C307.03317,1.3873341 307.642664,1.64416487 308.164,2.0045 C308.685336,2.36483513 309.099332,2.84399701 309.406,3.442 C309.712668,4.04000299 309.866,4.78366222 309.866,5.673 C309.866,6.77700552 309.624502,7.68549644 309.1415,8.3985 C308.658498,9.11150357 308.010671,9.64433157 307.198,9.997 L310.602,16 L306.807,16 Z M312.856,1.004 L316.237,1.004 L316.237,16 L312.856,16 L312.856,1.004 Z M319.066,8.594 C319.066,7.35199379 319.257665,6.24417154 319.641,5.2705 C320.024335,4.29682847 320.54183,3.47267004 321.1935,2.798 C321.84517,2.12332996 322.604162,1.60966843 323.4705,1.257 C324.336838,0.90433157 325.252995,0.728 326.219,0.728 C327.154338,0.728 328.001496,0.923498045 328.7605,1.3145 C329.519504,1.70550195 330.151997,2.16166406 330.658,2.683 L328.795,4.776 C328.411665,4.42333157 328.024502,4.14733433 327.6335,3.948 C327.242498,3.74866567 326.786336,3.649 326.265,3.649 C325.743664,3.649 325.256836,3.76016556 324.8045,3.9825 C324.352164,4.20483444 323.957335,4.52299793 323.62,4.937 C323.282665,5.35100207 323.018168,5.85699701 322.8265,6.455 C322.634832,7.05300299 322.539,7.72766291 322.539,8.479 C322.539,10.0276744 322.868663,11.2274957 323.528,12.0785 C324.187337,12.9295043 325.068994,13.355 326.173,13.355 C326.786336,13.355 327.322998,13.2323346 327.783,12.987 C328.243002,12.7416654 328.656998,12.4196687 329.025,12.021 L330.888,14.068 C330.25933,14.8040037 329.542504,15.3559982 328.7375,15.724 C327.932496,16.0920018 327.062338,16.276 326.127,16.276 C325.160995,16.276 324.248671,16.1111683 323.39,15.7815 C322.531329,15.4518317 321.780003,14.9650032 321.136,14.321 C320.491997,13.6769968 319.986002,12.8758381 319.618,11.9175 C319.249998,10.9591619 319.066,9.85133962 319.066,8.594 Z M333.165,1.004 L336.546,1.004 L336.546,16 L333.165,16 L333.165,1.004 Z M340.088,1.004 L343.561,1.004 L347.471,8.456 L348.943,11.768 L349.035,11.768 C348.958333,10.9706627 348.870167,10.0813382 348.7705,9.1 C348.670833,8.11866176 348.621,7.18333778 348.621,6.294 L348.621,1.004 L351.841,1.004 L351.841,16 L348.368,16 L344.458,8.525 L342.986,5.259 L342.894,5.259 C342.970667,6.08700414 343.058833,6.97632858 343.1585,7.927 C343.258167,8.87767142 343.308,9.79766222 343.308,10.687 L343.308,16 L340.088,16 L340.088,1.004 Z M354.67,8.594 C354.67,7.35199379 354.865498,6.24417154 355.2565,5.2705 C355.647502,4.29682847 356.176497,3.47267004 356.8435,2.798 C357.510503,2.12332996 358.292496,1.60966843 359.1895,1.257 C360.086504,0.90433157 361.040995,0.728 362.053,0.728 C363.111005,0.728 364.027163,0.92733134 364.8015,1.326 C365.575837,1.72466866 366.208331,2.17699747 366.699,2.683 L364.836,4.776 C364.467998,4.42333157 364.080835,4.14733433 363.6745,3.948 C363.268165,3.74866567 362.743003,3.649 362.099,3.649 C361.51633,3.649 360.983502,3.76016556 360.5005,3.9825 C360.017498,4.20483444 359.599668,4.52299793 359.247,4.937 C358.894332,5.35100207 358.622168,5.85699701 358.4305,6.455 C358.238832,7.05300299 358.143,7.72766291 358.143,8.479 C358.143,10.0276744 358.49183,11.2274957 359.1895,12.0785 C359.88717,12.9295043 360.941326,13.355 362.352,13.355 C362.658668,13.355 362.957665,13.316667 363.249,13.24 C363.540335,13.163333 363.777999,13.0483341 363.962,12.895 L363.962,10.319 L361.478,10.319 L361.478,7.559 L366.952,7.559 L366.952,14.459 C366.415331,14.9650025 365.710004,15.3943316 364.836,15.747 C363.961996,16.0996684 362.996005,16.276 361.938,16.276 C360.925995,16.276 359.979171,16.1111683 359.0975,15.7815 C358.215829,15.4518317 357.445337,14.9650032 356.786,14.321 C356.126663,13.6769968 355.609169,12.8758381 355.2335,11.9175 C354.857831,10.9591619 354.67,9.85133962 354.67,8.594 Z" id="OUR-PRICING" fill="#79797B"></path>
            <circle id="Oval-3" fill="#4990E2" cx="293" cy="40" r="2"></circle>
            <circle id="Oval-3" fill="#4990E2" cx="300" cy="40" r="2"></circle>
            <circle id="Oval-3" fill="#4990E2" cx="307" cy="40" r="2"></circle>
        </g>
    </g>
</svg>