<?xml version="1.0" encoding="UTF-8"?>
<svg width="600px" height="270px" viewBox="0 0 600 270" version="1.1" xmlns="http://www.w3.org/2000/svg" xmlns:xlink="http://www.w3.org/1999/xlink">
    <!-- Generator: Sketch 44.1 (41455) - http://www.bohemiancoding.com/sketch -->
    <title>pricing06</title>
    <desc>Created with Sketch.</desc>
    <defs></defs>
    <g id="Pricing" stroke="none" stroke-width="1" fill="none" fill-rule="evenodd">
        <g id="06">
            <rect id="Rectangle-8" fill="#F8F8F8" x="0" y="0" width="600" height="269"></rect>
            <g id="Group-14" transform="translate(104.000000, 5.000000)">
                <path d="M24.8809461,261.006509 C24.8809461,259.042485 24.6997957,254.601479 22.6472703,250.711941 C20.5947449,246.822403 21.5035669,243.029911 19.704345,239.939847 C17.905123,236.849782 11.8887827,232.966406 10.0910959,229.649901 C8.29340908,226.333396 8.66645596,229.907149 9.37877591,222.847445 C10.0910959,215.787741 8.40547666,214.264275 7.6102574,209.912613 C6.81503813,205.560952 4.75483687,193.876934 4.9973941,191.805081 C5.23995133,189.733228 1.42658327,182.930773 0.952215022,180.655586 C0.477846774,178.380398 -1.34593795,165.437865 1.82572808,154.675012 C4.9973941,143.91216 10.3014145,141.011566 13.1384129,139.765373 C15.9754114,138.519181 18.6788499,138.905824 19.1915974,135.690986 C19.704345,132.476148 17.6103699,114.46104 16.4820183,105.409585 C15.3536666,96.3581294 6.1288161,46.5720431 16.6908017,29.1576957 C27.2527873,11.7433484 37.7610419,-2.95679461 60.4401426,0.51067075 C83.1192434,3.9781361 94.0880496,23.002213 95.8780606,30.2714129 C97.6680715,37.5406129 100.500464,97.8461665 100.136629,115.970643 C99.7727928,134.09512 103.266845,148.40862 105.798344,151.541816 C108.329843,154.675012 119.576516,164.887938 129.109936,174.030278 C138.643356,183.172617 144.486222,192.928041 144.860804,195.756236 C145.235386,198.58443 146.168771,205.396128 147.915797,207.654371 C149.662823,209.912613 156.732292,215.287108 158.387207,219.067276 C160.042123,222.847445 169.959336,230.407783 172.420218,232.995674 C174.881099,235.583564 179.287043,235.266239 181.104687,237.603043 C182.922331,239.939847 190.463098,251.255707 190.697979,256.131108 C190.854567,259.381375 190.919556,262.18595 190.892946,264.544833 L25.1327143,264.94534 C24.9648688,263.628802 24.8809461,262.315858 24.8809461,261.006509 Z" id="Path-4" fill="#B3B4B7"></path>
                <path d="M65.221819,24.4494048 C50.053293,27.997485 41.5683956,31.0911439 39.7671267,33.7303816 C37.0652234,37.689238 25.9198723,58.4508987 25.9382944,73.9274089 C25.9567165,89.403919 27.8695412,97.4140567 35.7296235,102.993426 C43.5897058,108.572795 56.6079671,112.799683 59.5140483,112.22819 C62.4201295,111.656698 74.807435,104.667852 79.1627189,95.2513195 C83.5180028,85.8347866 88.3108108,71.481236 87.2239088,66.3578288 C86.1370068,61.2344215 84.3086166,59.5430501 84.241069,56.8704369 C84.1735214,54.1978237 85.337182,38.7567429 78.8587548,31.6030738 C74.5398033,26.8339611 69.9941581,24.4494048 65.221819,24.4494048 Z" id="Path-5" fill="#FFFFFF" transform="translate(56.659136, 68.364698) rotate(-7.000000) translate(-56.659136, -68.364698) "></path>
                <path d="M42.0687184,126.125639 C85.9142635,168.833023 110.392586,193.189489 115.503687,199.195039 C123.170337,208.203363 75.0119813,151.976817 75.1915965,139.051228 C75.3113399,130.434168 76.2094157,123.906933 77.8858239,119.469522 C73.9332669,122.590395 70.4499609,124.479966 67.4359059,125.138235 C62.9148234,126.125639 46.5422106,119.974777 41.0324771,116.629004 C37.3593214,114.398489 37.7047352,117.564034 42.0687184,126.125639 Z" id="Path-6" fill="#FFFFFF"></path>
            </g>
            <rect id="Rectangle-7" fill="#FFFFFF" x="311" y="135" width="264" height="114" rx="4"></rect>
            <path d="M315.156,65.216 C314.363996,65.216 313.641003,65.0750014 312.987,64.793 C312.332997,64.5109986 311.772002,64.1060026 311.304,63.578 C310.835998,63.0499974 310.473001,62.4080038 310.215,61.652 C309.956999,60.8959962 309.828,60.0380048 309.828,59.078 C309.828,58.1179952 309.956999,57.2630037 310.215,56.513 C310.473001,55.7629963 310.835998,55.1330026 311.304,54.623 C311.772002,54.1129974 312.332997,53.7230013 312.987,53.453 C313.641003,53.1829987 314.363996,53.048 315.156,53.048 C315.948004,53.048 316.670997,53.1829987 317.325,53.453 C317.979003,53.7230013 318.539998,54.1159974 319.008,54.632 C319.476002,55.1480026 319.838999,55.7809963 320.097,56.531 C320.355001,57.2810037 320.484,58.1299953 320.484,59.078 C320.484,60.0380048 320.355001,60.8959962 320.097,61.652 C319.838999,62.4080038 319.476002,63.0499974 319.008,63.578 C318.539998,64.1060026 317.979003,64.5109986 317.325,64.793 C316.670997,65.0750014 315.948004,65.216 315.156,65.216 Z M315.156,62.93 C315.960004,62.93 316.595998,62.5850034 317.064,61.895 C317.532002,61.2049966 317.766,60.2660059 317.766,59.078 C317.766,57.9019941 317.532002,56.9840033 317.064,56.324 C316.595998,55.6639967 315.960004,55.334 315.156,55.334 C314.351996,55.334 313.716002,55.6639967 313.248,56.324 C312.779998,56.9840033 312.546,57.9019941 312.546,59.078 C312.546,60.2660059 312.779998,61.2049966 313.248,61.895 C313.716002,62.5850034 314.351996,62.93 315.156,62.93 Z M322.392,56.072 L325.038,56.072 L325.038,61.274 C325.038,61.9220032 325.127999,62.3659988 325.308,62.606 C325.488001,62.8460012 325.769998,62.966 326.154,62.966 C326.490002,62.966 326.771999,62.8880008 327,62.732 C327.228001,62.5759992 327.473999,62.3240017 327.738,61.976 L327.738,56.072 L330.384,56.072 L330.384,65 L328.224,65 L328.026,63.758 L327.972,63.758 C327.587998,64.2140023 327.177002,64.5709987 326.739,64.829 C326.300998,65.0870013 325.776003,65.216 325.164,65.216 C324.191995,65.216 323.487002,64.8980032 323.049,64.262 C322.610998,63.6259968 322.392,62.7440056 322.392,61.616 L322.392,56.072 Z M332.706,56.072 L334.866,56.072 L335.046,57.638 L335.118,57.638 C335.442002,57.0259969 335.831998,56.5760014 336.288,56.288 C336.744002,55.9999986 337.199998,55.856 337.656,55.856 C337.908001,55.856 338.114999,55.8709998 338.277,55.901 C338.439001,55.9310001 338.585999,55.9759997 338.718,56.036 L338.286,58.322 C338.117999,58.2739998 337.962001,58.2380001 337.818,58.214 C337.673999,58.1899999 337.506001,58.178 337.314,58.178 C336.977998,58.178 336.627002,58.2979988 336.261,58.538 C335.894998,58.7780012 335.592001,59.2039969 335.352,59.816 L335.352,65 L332.706,65 L332.706,56.072 Z M343.83,53.264 L348.114,53.264 C348.750003,53.264 349.346997,53.3269994 349.905,53.453 C350.463003,53.5790006 350.948998,53.7889985 351.363,54.083 C351.777002,54.3770015 352.103999,54.7669976 352.344,55.253 C352.584001,55.7390024 352.704,56.3359965 352.704,57.044 C352.704,57.7280034 352.581001,58.3219975 352.335,58.826 C352.088999,59.3300025 351.756002,59.7439984 351.336,60.068 C350.915998,60.3920016 350.430003,60.6319992 349.878,60.788 C349.325997,60.9440008 348.738003,61.022 348.114,61.022 L346.476,61.022 L346.476,65 L343.83,65 L343.83,53.264 Z M347.952,58.916 C349.392007,58.916 350.112,58.2920062 350.112,57.044 C350.112,56.4319969 349.929002,56.0000013 349.563,55.748 C349.196998,55.4959987 348.660004,55.37 347.952,55.37 L346.476,55.37 L346.476,58.916 L347.952,58.916 Z M354.522,52.382 L357.168,52.382 L357.168,62.336 C357.168,62.6120014 357.218999,62.8039995 357.321,62.912 C357.423001,63.0200005 357.527999,63.074 357.636,63.074 L357.789,63.074 C357.831,63.074 357.888,63.0620001 357.96,63.038 L358.284,65 C358.139999,65.0600003 357.957001,65.1109998 357.735,65.153 C357.512999,65.1950002 357.252002,65.216 356.952,65.216 C356.495998,65.216 356.112002,65.1440007 355.8,65 C355.487998,64.8559993 355.239001,64.6550013 355.053,64.397 C354.866999,64.1389987 354.732,63.8270018 354.648,63.461 C354.564,63.0949982 354.522,62.6840023 354.522,62.228 L354.522,52.382 Z M359.346,62.516 C359.346,61.5799953 359.741996,60.8480026 360.534,60.32 C361.326004,59.7919974 362.603991,59.4380009 364.368,59.258 C364.344,58.861998 364.224001,58.5470012 364.008,58.313 C363.791999,58.0789988 363.444002,57.962 362.964,57.962 C362.579998,57.962 362.196002,58.0339993 361.812,58.178 C361.427998,58.3220007 361.020002,58.5199987 360.588,58.772 L359.652,57.026 C360.228003,56.6779983 360.830997,56.3960011 361.461,56.18 C362.091003,55.9639989 362.759996,55.856 363.468,55.856 C364.620006,55.856 365.498997,56.1829967 366.105,56.837 C366.711003,57.4910033 367.014,58.5079931 367.014,59.888 L367.014,65 L364.854,65 L364.656,64.082 L364.602,64.082 C364.217998,64.4180017 363.813002,64.6909989 363.387,64.901 C362.960998,65.1110011 362.496003,65.216 361.992,65.216 C361.583998,65.216 361.218002,65.1470007 360.894,65.009 C360.569998,64.8709993 360.294001,64.6790012 360.066,64.433 C359.837999,64.1869988 359.661001,63.9020016 359.535,63.578 C359.408999,63.2539984 359.346,62.9000019 359.346,62.516 Z M361.866,62.318 C361.866,62.6060014 361.958999,62.8189993 362.145,62.957 C362.331001,63.0950007 362.579998,63.164 362.892,63.164 C363.204002,63.164 363.467999,63.0980007 363.684,62.966 C363.900001,62.8339993 364.127999,62.6480012 364.368,62.408 L364.368,60.842 C363.419995,60.9740007 362.766002,61.1659987 362.406,61.418 C362.045998,61.6700013 361.866,61.9699983 361.866,62.318 Z M369.282,56.072 L371.442,56.072 L371.622,57.206 L371.694,57.206 C372.078002,56.8459982 372.497998,56.5310014 372.954,56.261 C373.410002,55.9909987 373.943997,55.856 374.556,55.856 C375.528005,55.856 376.232998,56.1739968 376.671,56.81 C377.109002,57.4460032 377.328,58.3279944 377.328,59.456 L377.328,65 L374.682,65 L374.682,59.798 C374.682,59.1499968 374.595001,58.7060012 374.421,58.466 C374.246999,58.2259988 373.968002,58.106 373.584,58.106 C373.247998,58.106 372.960001,58.1809992 372.72,58.331 C372.479999,58.4810008 372.216001,58.6939986 371.928,58.97 L371.928,65 L369.282,65 L369.282,56.072 Z M379.974,62.318 C380.382002,62.6300016 380.771998,62.8639992 381.144,63.02 C381.516002,63.1760008 381.893998,63.254 382.278,63.254 C382.674002,63.254 382.961999,63.1880007 383.142,63.056 C383.322001,62.9239993 383.412,62.7380012 383.412,62.498 C383.412,62.3539993 383.361001,62.2250006 383.259,62.111 C383.156999,61.9969994 383.019001,61.8920005 382.845,61.796 C382.670999,61.6999995 382.476001,61.6130004 382.26,61.535 C382.043999,61.4569996 381.822001,61.3700005 381.594,61.274 C381.317999,61.1659995 381.042001,61.0400007 380.766,60.896 C380.489999,60.7519993 380.238001,60.5750011 380.01,60.365 C379.781999,60.1549989 379.596001,59.9090014 379.452,59.627 C379.307999,59.3449986 379.236,59.0180019 379.236,58.646 C379.236,58.237998 379.316999,57.8600017 379.479,57.512 C379.641001,57.1639983 379.871999,56.8700012 380.172,56.63 C380.472002,56.3899988 380.831998,56.2010007 381.252,56.063 C381.672002,55.9249993 382.139997,55.856 382.656,55.856 C383.340003,55.856 383.939997,55.9729988 384.456,56.207 C384.972003,56.4410012 385.421998,56.7019986 385.806,56.99 L384.618,58.574 C384.293998,58.3339988 383.976002,58.1480007 383.664,58.016 C383.351998,57.8839993 383.040002,57.818 382.728,57.818 C382.055997,57.818 381.72,58.0519977 381.72,58.52 C381.72,58.6640007 381.768,58.7869995 381.864,58.889 C381.96,58.9910005 382.088999,59.0839996 382.251,59.168 C382.413001,59.2520004 382.598999,59.3329996 382.809,59.411 C383.019001,59.4890004 383.237999,59.5699996 383.466,59.654 C383.754001,59.7620005 384.038999,59.8849993 384.321,60.023 C384.603001,60.1610007 384.860999,60.331999 385.095,60.536 C385.329001,60.740001 385.517999,60.9889985 385.662,61.283 C385.806001,61.5770015 385.878,61.927998 385.878,62.336 C385.878,62.744002 385.800001,63.1219983 385.644,63.47 C385.487999,63.8180017 385.254002,64.1209987 384.942,64.379 C384.629998,64.6370013 384.246002,64.8409993 383.79,64.991 C383.333998,65.1410007 382.806003,65.216 382.206,65.216 C381.617997,65.216 381.015003,65.1020011 380.397,64.874 C379.778997,64.6459989 379.242002,64.3460019 378.786,63.974 L379.974,62.318 Z" id="Our-Plans" fill="#4990E2"></path>
            <path d="M313.5,90.5 L569.570303,90.5" id="Line" stroke="#979797" stroke-width="5" stroke-linecap="square"></path>
            <path d="M313.5,107.5 L512.502513,107.5" id="Line" stroke="#979797" stroke-width="5" stroke-linecap="square"></path>
            <path d="M340.142,166.706 C340.562002,167.066002 341.026997,167.359999 341.537,167.588 C342.047003,167.816001 342.547998,167.93 343.04,167.93 C343.592003,167.93 344.002999,167.828001 344.273,167.624 C344.543001,167.419999 344.678,167.144002 344.678,166.796 C344.678,166.615999 344.639,166.460001 344.561,166.328 C344.483,166.195999 344.369001,166.079001 344.219,165.977 C344.068999,165.874999 343.889001,165.779 343.679,165.689 L342.986,165.392 L341.456,164.744 C341.155999,164.623999 340.865001,164.468001 340.583,164.276 C340.300999,164.083999 340.049001,163.859001 339.827,163.601 C339.604999,163.342999 339.428001,163.043002 339.296,162.701 C339.163999,162.358998 339.098,161.972002 339.098,161.54 C339.098,161.059998 339.199999,160.607002 339.404,160.181 C339.608001,159.754998 339.895998,159.383002 340.268,159.065 C340.640002,158.746998 341.080997,158.498001 341.591,158.318 C342.101003,158.137999 342.661997,158.048 343.274,158.048 C343.958003,158.048 344.632997,158.179999 345.299,158.444 C345.965003,158.708001 346.549997,159.091997 347.054,159.596 L345.704,161.27 C345.319998,160.969999 344.936002,160.739001 344.552,160.577 C344.167998,160.414999 343.742002,160.334 343.274,160.334 C342.817998,160.334 342.455001,160.426999 342.185,160.613 C341.914999,160.799001 341.78,161.059998 341.78,161.396 C341.78,161.576001 341.825,161.728999 341.915,161.855 C342.005,161.981001 342.130999,162.094999 342.293,162.197 C342.455001,162.299001 342.643999,162.395 342.86,162.485 C343.076001,162.575 343.309999,162.673999 343.562,162.782 L345.074,163.394 C345.794004,163.682001 346.360998,164.077997 346.775,164.582 C347.189002,165.086003 347.396,165.751996 347.396,166.58 C347.396,167.072002 347.297001,167.536998 347.099,167.975 C346.900999,168.413002 346.613002,168.796998 346.235,169.127 C345.856998,169.457002 345.392003,169.720999 344.84,169.919 C344.287997,170.117001 343.664003,170.216 342.968,170.216 C342.199996,170.216 341.435004,170.075001 340.673,169.793 C339.910996,169.510999 339.230003,169.088003 338.63,168.524 L340.142,166.706 Z M349.538,163.142 L348.314,163.142 L348.314,161.18 L349.682,161.072 L349.988,158.696 L352.184,158.696 L352.184,161.072 L354.326,161.072 L354.326,163.142 L352.184,163.142 L352.184,166.724 C352.184,167.228003 352.288999,167.590999 352.499,167.813 C352.709001,168.035001 352.987998,168.146 353.336,168.146 C353.480001,168.146 353.626999,168.128 353.777,168.092 C353.927001,168.056 354.061999,168.014 354.182,167.966 L354.596,169.892 C354.355999,169.964 354.074002,170.036 353.75,170.108 C353.425998,170.18 353.048002,170.216 352.616,170.216 C352.063997,170.216 351.593002,170.132001 351.203,169.964 C350.812998,169.795999 350.495001,169.562001 350.249,169.262 C350.002999,168.961998 349.823001,168.599002 349.709,168.173 C349.594999,167.746998 349.538,167.276003 349.538,166.76 L349.538,163.142 Z M355.532,167.516 C355.532,166.579995 355.927996,165.848003 356.72,165.32 C357.512004,164.791997 358.789991,164.438001 360.554,164.258 C360.53,163.861998 360.410001,163.547001 360.194,163.313 C359.977999,163.078999 359.630002,162.962 359.15,162.962 C358.765998,162.962 358.382002,163.033999 357.998,163.178 C357.613998,163.322001 357.206002,163.519999 356.774,163.772 L355.838,162.026 C356.414003,161.677998 357.016997,161.396001 357.647,161.18 C358.277003,160.963999 358.945996,160.856 359.654,160.856 C360.806006,160.856 361.684997,161.182997 362.291,161.837 C362.897003,162.491003 363.2,163.507993 363.2,164.888 L363.2,170 L361.04,170 L360.842,169.082 L360.788,169.082 C360.403998,169.418002 359.999002,169.690999 359.573,169.901 C359.146998,170.111001 358.682003,170.216 358.178,170.216 C357.769998,170.216 357.404002,170.147001 357.08,170.009 C356.755998,169.870999 356.480001,169.679001 356.252,169.433 C356.023999,169.186999 355.847001,168.902002 355.721,168.578 C355.594999,168.253998 355.532,167.900002 355.532,167.516 Z M358.052,167.318 C358.052,167.606001 358.144999,167.818999 358.331,167.957 C358.517001,168.095001 358.765998,168.164 359.078,168.164 C359.390002,168.164 359.653999,168.098001 359.87,167.966 C360.086001,167.833999 360.313999,167.648001 360.554,167.408 L360.554,165.842 C359.605995,165.974001 358.952002,166.165999 358.592,166.418 C358.231998,166.670001 358.052,166.969998 358.052,167.318 Z M365.468,161.072 L367.628,161.072 L367.808,162.638 L367.88,162.638 C368.204002,162.025997 368.593998,161.576001 369.05,161.288 C369.506002,160.999999 369.961998,160.856 370.418,160.856 C370.670001,160.856 370.876999,160.871 371.039,160.901 C371.201001,160.931 371.347999,160.976 371.48,161.036 L371.048,163.322 C370.879999,163.274 370.724001,163.238 370.58,163.214 C370.435999,163.19 370.268001,163.178 370.076,163.178 C369.739998,163.178 369.389002,163.297999 369.023,163.538 C368.656998,163.778001 368.354001,164.203997 368.114,164.816 L368.114,170 L365.468,170 L365.468,161.072 Z M372.992,163.142 L371.768,163.142 L371.768,161.18 L373.136,161.072 L373.442,158.696 L375.638,158.696 L375.638,161.072 L377.78,161.072 L377.78,163.142 L375.638,163.142 L375.638,166.724 C375.638,167.228003 375.742999,167.590999 375.953,167.813 C376.163001,168.035001 376.441998,168.146 376.79,168.146 C376.934001,168.146 377.080999,168.128 377.231,168.092 C377.381001,168.056 377.515999,168.014 377.636,167.966 L378.05,169.892 C377.809999,169.964 377.528002,170.036 377.204,170.108 C376.879998,170.18 376.502002,170.216 376.07,170.216 C375.517997,170.216 375.047002,170.132001 374.657,169.964 C374.266998,169.795999 373.949001,169.562001 373.703,169.262 C373.456999,168.961998 373.277001,168.599002 373.163,168.173 C373.048999,167.746998 372.992,167.276003 372.992,166.76 L372.992,163.142 Z M378.824,165.536 C378.824,164.815996 378.943999,164.165003 379.184,163.583 C379.424001,163.000997 379.738998,162.509002 380.129,162.107 C380.519002,161.704998 380.965997,161.396001 381.47,161.18 C381.974003,160.963999 382.495997,160.856 383.036,160.856 C383.672003,160.856 384.226998,160.963999 384.701,161.18 C385.175002,161.396001 385.570998,161.695998 385.889,162.08 C386.207002,162.464002 386.443999,162.916997 386.6,163.439 C386.756001,163.961003 386.834,164.527997 386.834,165.14 C386.834,165.380001 386.822,165.598999 386.798,165.797 C386.774,165.995001 386.75,166.147999 386.726,166.256 L381.38,166.256 C381.500001,166.940003 381.766998,167.434998 382.181,167.741 C382.595002,168.047002 383.101997,168.2 383.702,168.2 C384.338003,168.2 384.979997,168.002002 385.628,167.606 L386.51,169.208 C386.053998,169.520002 385.547003,169.765999 384.989,169.946 C384.430997,170.126001 383.882003,170.216 383.342,170.216 C382.705997,170.216 382.112003,170.111001 381.56,169.901 C381.007997,169.690999 380.528002,169.385002 380.12,168.983 C379.711998,168.580998 379.394001,168.092003 379.166,167.516 C378.937999,166.939997 378.824,166.280004 378.824,165.536 Z M384.584,164.618 C384.584,164.101997 384.470001,163.682002 384.242,163.358 C384.013999,163.033998 383.630003,162.872 383.09,162.872 C382.669998,162.872 382.301002,163.012999 381.983,163.295 C381.664998,163.577001 381.458,164.017997 381.362,164.618 L384.584,164.618 Z M388.67,161.072 L390.83,161.072 L391.01,162.638 L391.082,162.638 C391.406002,162.025997 391.795998,161.576001 392.252,161.288 C392.708002,160.999999 393.163998,160.856 393.62,160.856 C393.872001,160.856 394.078999,160.871 394.241,160.901 C394.403001,160.931 394.549999,160.976 394.682,161.036 L394.25,163.322 C394.081999,163.274 393.926001,163.238 393.782,163.214 C393.637999,163.19 393.470001,163.178 393.278,163.178 C392.941998,163.178 392.591002,163.297999 392.225,163.538 C391.858998,163.778001 391.556001,164.203997 391.316,164.816 L391.316,170 L388.67,170 L388.67,161.072 Z M399.794,158.264 L404.078,158.264 C404.714003,158.264 405.310997,158.326999 405.869,158.453 C406.427003,158.579001 406.912998,158.788999 407.327,159.083 C407.741002,159.377001 408.067999,159.766998 408.308,160.253 C408.548001,160.739002 408.668,161.335996 408.668,162.044 C408.668,162.728003 408.545001,163.321997 408.299,163.826 C408.052999,164.330003 407.720002,164.743998 407.3,165.068 C406.879998,165.392002 406.394003,165.631999 405.842,165.788 C405.289997,165.944001 404.702003,166.022 404.078,166.022 L402.44,166.022 L402.44,170 L399.794,170 L399.794,158.264 Z M403.916,163.916 C405.356007,163.916 406.076,163.292006 406.076,162.044 C406.076,161.431997 405.893002,161.000001 405.527,160.748 C405.160998,160.495999 404.624004,160.37 403.916,160.37 L402.44,160.37 L402.44,163.916 L403.916,163.916 Z M410.486,157.382 L413.132,157.382 L413.132,167.336 C413.132,167.612001 413.182999,167.803999 413.285,167.912 C413.387001,168.020001 413.491999,168.074 413.6,168.074 L413.753,168.074 C413.795,168.074 413.852,168.062 413.924,168.038 L414.248,170 C414.103999,170.06 413.921001,170.111 413.699,170.153 C413.476999,170.195 413.216002,170.216 412.916,170.216 C412.459998,170.216 412.076002,170.144001 411.764,170 C411.451998,169.855999 411.203001,169.655001 411.017,169.397 C410.830999,169.138999 410.696,168.827002 410.612,168.461 C410.528,168.094998 410.486,167.684002 410.486,167.228 L410.486,157.382 Z M415.31,167.516 C415.31,166.579995 415.705996,165.848003 416.498,165.32 C417.290004,164.791997 418.567991,164.438001 420.332,164.258 C420.308,163.861998 420.188001,163.547001 419.972,163.313 C419.755999,163.078999 419.408002,162.962 418.928,162.962 C418.543998,162.962 418.160002,163.033999 417.776,163.178 C417.391998,163.322001 416.984002,163.519999 416.552,163.772 L415.616,162.026 C416.192003,161.677998 416.794997,161.396001 417.425,161.18 C418.055003,160.963999 418.723996,160.856 419.432,160.856 C420.584006,160.856 421.462997,161.182997 422.069,161.837 C422.675003,162.491003 422.978,163.507993 422.978,164.888 L422.978,170 L420.818,170 L420.62,169.082 L420.566,169.082 C420.181998,169.418002 419.777002,169.690999 419.351,169.901 C418.924998,170.111001 418.460003,170.216 417.956,170.216 C417.547998,170.216 417.182002,170.147001 416.858,170.009 C416.533998,169.870999 416.258001,169.679001 416.03,169.433 C415.801999,169.186999 415.625001,168.902002 415.499,168.578 C415.372999,168.253998 415.31,167.900002 415.31,167.516 Z M417.83,167.318 C417.83,167.606001 417.922999,167.818999 418.109,167.957 C418.295001,168.095001 418.543998,168.164 418.856,168.164 C419.168002,168.164 419.431999,168.098001 419.648,167.966 C419.864001,167.833999 420.091999,167.648001 420.332,167.408 L420.332,165.842 C419.383995,165.974001 418.730002,166.165999 418.37,166.418 C418.009998,166.670001 417.83,166.969998 417.83,167.318 Z M425.246,161.072 L427.406,161.072 L427.586,162.206 L427.658,162.206 C428.042002,161.845998 428.461998,161.531001 428.918,161.261 C429.374002,160.990999 429.907997,160.856 430.52,160.856 C431.492005,160.856 432.196998,161.173997 432.635,161.81 C433.073002,162.446003 433.292,163.327994 433.292,164.456 L433.292,170 L430.646,170 L430.646,164.798 C430.646,164.149997 430.559001,163.706001 430.385,163.466 C430.210999,163.225999 429.932002,163.106 429.548,163.106 C429.211998,163.106 428.924001,163.180999 428.684,163.331 C428.443999,163.481001 428.180001,163.693999 427.892,163.97 L427.892,170 L425.246,170 L425.246,161.072 Z" id="Starter-Plan" fill="#79797B"></path>
            <path d="M343.759004,185.020427 C343.529654,185.307116 343.268453,185.525314 342.975393,185.675029 C342.682334,185.824744 342.363796,185.899601 342.01977,185.899601 C341.42091,185.899601 340.903285,185.716441 340.466882,185.350117 C340.030478,184.983793 339.739016,184.443871 339.592486,183.730336 L339,183.730336 L339,183.070956 L339.516037,183.032731 C339.509666,182.988135 339.50648,182.946725 339.50648,182.9085 L339.50648,182.660038 C339.50648,182.621812 339.509666,182.580402 339.516037,182.535807 L339,182.535807 L339,181.885983 L339.592486,181.838201 C339.668937,181.481434 339.78361,181.164488 339.936511,180.887356 C340.089411,180.610224 340.275756,180.376099 340.495551,180.184973 C340.715345,179.993847 340.962212,179.848913 341.236159,179.750164 C341.510105,179.651416 341.806346,179.602043 342.124888,179.602043 C342.411577,179.602043 342.69189,179.66575 342.965837,179.793167 C343.239784,179.920584 343.478687,180.105336 343.682555,180.347429 L342.898943,181.102371 C342.777897,180.981325 342.652075,180.882578 342.521472,180.806128 C342.39087,180.729678 342.242749,180.691453 342.077107,180.691453 C341.803161,180.691453 341.575406,180.7902 341.393837,180.987697 C341.212267,181.185193 341.083259,181.465507 341.006809,181.828645 L343.051843,181.828645 L343.051843,182.535807 L340.920803,182.535807 L340.920803,182.879831 C340.920803,182.924427 340.923988,182.969022 340.930359,183.013618 L342.669594,183.013618 L342.669594,183.730336 L341.025922,183.730336 C341.115114,184.080733 341.250492,184.348305 341.432061,184.533059 C341.613631,184.717814 341.8382,184.81019 342.105776,184.81019 C342.290531,184.81019 342.451392,184.765595 342.588366,184.676403 C342.725339,184.587211 342.857532,184.459796 342.984949,184.294154 L343.759004,185.020427 Z M344.198591,184.982202 C344.587213,184.619064 344.942383,184.279821 345.264111,183.964463 C345.585839,183.649106 345.862967,183.352866 346.095504,183.075734 C346.32804,182.798602 346.509606,182.540586 346.640209,182.301679 C346.770811,182.062772 346.836112,181.835017 346.836112,181.618408 C346.836112,181.318978 346.759663,181.091223 346.606762,180.935137 C346.453862,180.779051 346.243627,180.70101 345.976051,180.70101 C345.753071,180.70101 345.555577,180.763125 345.383564,180.887356 C345.211551,181.011588 345.049097,181.156523 344.896196,181.322165 L344.131698,180.567222 C344.431128,180.24868 344.736924,180.008183 345.049096,179.845727 C345.361268,179.68327 345.733957,179.602043 346.167175,179.602043 C346.466605,179.602043 346.738955,179.648231 346.984233,179.740608 C347.229511,179.832986 347.441339,179.963586 347.619723,180.132414 C347.798107,180.301241 347.935078,180.503513 348.030641,180.739235 C348.126204,180.974956 348.173984,181.239343 348.173984,181.532402 C348.173984,181.787236 348.119833,182.046845 348.011528,182.311235 C347.903224,182.575625 347.758289,182.840012 347.57672,183.104402 C347.39515,183.368793 347.188101,183.633179 346.955565,183.89757 C346.723028,184.16196 346.482532,184.421569 346.234069,184.676403 C346.386969,184.65729 346.557387,184.639771 346.745327,184.623844 C346.933268,184.607916 347.1005,184.599953 347.24703,184.599953 L348.470228,184.599953 L348.470228,185.784926 L344.198591,185.784926 L344.198591,184.982202 Z M351.298873,182.516694 C351.451773,182.516694 351.607857,182.472099 351.767128,182.382907 C351.9264,182.293715 352.072927,182.137631 352.206715,181.914651 C352.143007,181.436837 352.023555,181.10715 351.848356,180.925581 C351.673158,180.744012 351.477257,180.653228 351.260648,180.653228 C351.056781,180.653228 350.878399,180.73127 350.725499,180.887356 C350.572598,181.043442 350.496149,181.293494 350.496149,181.637521 C350.496149,181.962434 350.572598,182.190189 350.725499,182.320791 C350.878399,182.451394 351.069522,182.516694 351.298873,182.516694 Z M350.047006,184.332378 C350.14894,184.447054 350.285911,184.547393 350.457924,184.6334 C350.629937,184.719406 350.805133,184.762409 350.983517,184.762409 C351.15553,184.762409 351.314799,184.730555 351.461329,184.666847 C351.607859,184.603138 351.736866,184.496428 351.848356,184.346713 C351.959846,184.196998 352.049037,184.00269 352.115931,183.763783 C352.182825,183.524876 352.222642,183.227043 352.235384,182.870275 C352.158934,182.972208 352.069743,183.062992 351.967809,183.142627 C351.865876,183.222263 351.760758,183.289156 351.652454,183.343308 C351.544149,183.397461 351.435846,183.43887 351.327542,183.467539 C351.219237,183.496208 351.117305,183.510542 351.021742,183.510542 C350.760537,183.510542 350.520041,183.472318 350.300246,183.395868 C350.080452,183.319417 349.890922,183.204744 349.731651,183.051843 C349.572379,182.898943 349.446557,182.704634 349.354179,182.468913 C349.261802,182.233191 349.215614,181.956063 349.215614,181.637521 C349.215614,181.325349 349.269765,181.043443 349.37807,180.791794 C349.486374,180.540145 349.631309,180.325132 349.812879,180.146748 C349.994448,179.968364 350.207868,179.832986 350.453146,179.740608 C350.698424,179.648231 350.958033,179.602043 351.231979,179.602043 C351.525039,179.602043 351.81013,179.65938 352.087262,179.774055 C352.364394,179.88873 352.609669,180.067112 352.823092,180.309204 C353.036516,180.551296 353.208526,180.861871 353.339129,181.240937 C353.469731,181.620003 353.535032,182.077105 353.535032,182.612256 C353.535032,183.179262 353.466546,183.669811 353.329573,184.083916 C353.192599,184.498022 353.011033,184.838858 352.784867,185.106433 C352.558702,185.374009 352.297501,185.573095 352.001256,185.703698 C351.705011,185.834301 351.397622,185.899601 351.07908,185.899601 C350.677716,185.899601 350.328917,185.826337 350.032672,185.679807 C349.736427,185.533278 349.492746,185.364453 349.30162,185.173327 L350.047006,184.332378 Z M354.519324,185.020427 C354.519324,184.765593 354.600551,184.553765 354.763008,184.384938 C354.925464,184.21611 355.127736,184.131698 355.369828,184.131698 C355.611921,184.131698 355.814193,184.21611 355.976649,184.384938 C356.139106,184.553765 356.220333,184.765593 356.220333,185.020427 C356.220333,185.268891 356.139106,185.477533 355.976649,185.646361 C355.814193,185.815188 355.611921,185.899601 355.369828,185.899601 C355.127736,185.899601 354.925464,185.815188 354.763008,185.646361 C354.600551,185.477533 354.519324,185.268891 354.519324,185.020427 Z M359.211434,182.516694 C359.364335,182.516694 359.520419,182.472099 359.67969,182.382907 C359.838961,182.293715 359.985489,182.137631 360.119277,181.914651 C360.055568,181.436837 359.936116,181.10715 359.760918,180.925581 C359.585719,180.744012 359.389819,180.653228 359.17321,180.653228 C358.969342,180.653228 358.790961,180.73127 358.63806,180.887356 C358.48516,181.043442 358.408711,181.293494 358.408711,181.637521 C358.408711,181.962434 358.48516,182.190189 358.63806,182.320791 C358.790961,182.451394 358.982084,182.516694 359.211434,182.516694 Z M357.959568,184.332378 C358.061502,184.447054 358.198473,184.547393 358.370486,184.6334 C358.542499,184.719406 358.717695,184.762409 358.896079,184.762409 C359.068092,184.762409 359.227361,184.730555 359.37389,184.666847 C359.52042,184.603138 359.649428,184.496428 359.760918,184.346713 C359.872408,184.196998 359.961598,184.00269 360.028492,183.763783 C360.095386,183.524876 360.135204,183.227043 360.147945,182.870275 C360.071495,182.972208 359.982304,183.062992 359.880371,183.142627 C359.778437,183.222263 359.67332,183.289156 359.565015,183.343308 C359.456711,183.397461 359.348408,183.43887 359.240103,183.467539 C359.131799,183.496208 359.029866,183.510542 358.934304,183.510542 C358.673099,183.510542 358.432603,183.472318 358.212808,183.395868 C357.993014,183.319417 357.803483,183.204744 357.644212,183.051843 C357.484941,182.898943 357.359118,182.704634 357.266741,182.468913 C357.174363,182.233191 357.128175,181.956063 357.128175,181.637521 C357.128175,181.325349 357.182327,181.043443 357.290631,180.791794 C357.398936,180.540145 357.543871,180.325132 357.72544,180.146748 C357.907009,179.968364 358.12043,179.832986 358.365708,179.740608 C358.610986,179.648231 358.870594,179.602043 359.144541,179.602043 C359.4376,179.602043 359.722692,179.65938 359.999824,179.774055 C360.276956,179.88873 360.52223,180.067112 360.735654,180.309204 C360.949077,180.551296 361.121088,180.861871 361.25169,181.240937 C361.382293,181.620003 361.447593,182.077105 361.447593,182.612256 C361.447593,183.179262 361.379108,183.669811 361.242134,184.083916 C361.105161,184.498022 360.923594,184.838858 360.697429,185.106433 C360.471263,185.374009 360.210062,185.573095 359.913818,185.703698 C359.617573,185.834301 359.310184,185.899601 358.991641,185.899601 C358.590277,185.899601 358.241478,185.826337 357.945233,185.679807 C357.648989,185.533278 357.405307,185.364453 357.214182,185.173327 L357.959568,184.332378 Z M364.257126,182.516694 C364.410026,182.516694 364.56611,182.472099 364.725381,182.382907 C364.884653,182.293715 365.03118,182.137631 365.164968,181.914651 C365.10126,181.436837 364.981808,181.10715 364.806609,180.925581 C364.631411,180.744012 364.43551,180.653228 364.218901,180.653228 C364.015034,180.653228 363.836652,180.73127 363.683752,180.887356 C363.530851,181.043442 363.454402,181.293494 363.454402,181.637521 C363.454402,181.962434 363.530851,182.190189 363.683752,182.320791 C363.836652,182.451394 364.027775,182.516694 364.257126,182.516694 Z M363.005259,184.332378 C363.107193,184.447054 363.244164,184.547393 363.416177,184.6334 C363.58819,184.719406 363.763386,184.762409 363.94177,184.762409 C364.113783,184.762409 364.273052,184.730555 364.419582,184.666847 C364.566112,184.603138 364.695119,184.496428 364.806609,184.346713 C364.918099,184.196998 365.00729,184.00269 365.074184,183.763783 C365.141078,183.524876 365.180895,183.227043 365.193637,182.870275 C365.117187,182.972208 365.027996,183.062992 364.926062,183.142627 C364.824129,183.222263 364.719011,183.289156 364.610707,183.343308 C364.502402,183.397461 364.394099,183.43887 364.285795,183.467539 C364.17749,183.496208 364.075558,183.510542 363.979995,183.510542 C363.71879,183.510542 363.478294,183.472318 363.258499,183.395868 C363.038705,183.319417 362.849175,183.204744 362.689904,183.051843 C362.530632,182.898943 362.40481,182.704634 362.312432,182.468913 C362.220055,182.233191 362.173867,181.956063 362.173867,181.637521 C362.173867,181.325349 362.228018,181.043443 362.336323,180.791794 C362.444627,180.540145 362.589562,180.325132 362.771132,180.146748 C362.952701,179.968364 363.166121,179.832986 363.411399,179.740608 C363.656677,179.648231 363.916286,179.602043 364.190232,179.602043 C364.483292,179.602043 364.768383,179.65938 365.045515,179.774055 C365.322647,179.88873 365.567922,180.067112 365.781345,180.309204 C365.994769,180.551296 366.166779,180.861871 366.297382,181.240937 C366.427984,181.620003 366.493285,182.077105 366.493285,182.612256 C366.493285,183.179262 366.424799,183.669811 366.287826,184.083916 C366.150852,184.498022 365.969286,184.838858 365.74312,185.106433 C365.516955,185.374009 365.255754,185.573095 364.959509,185.703698 C364.663264,185.834301 364.355875,185.899601 364.037333,185.899601 C363.635969,185.899601 363.28717,185.826337 362.990925,185.679807 C362.69468,185.533278 362.450999,185.364453 362.259873,185.173327 L363.005259,184.332378 Z M370.927377,179 L371.844776,179 L369.923973,187.313923 L369.006574,187.313923 L370.927377,179 Z M374.730758,181.045034 L375.877506,181.045034 L375.973069,181.656633 L376.011293,181.656633 C376.20879,181.459137 376.419025,181.288719 376.642005,181.145374 C376.864985,181.00203 377.132557,180.930359 377.444729,180.930359 C377.782384,180.930359 378.054734,180.998845 378.261787,181.135818 C378.468839,181.272792 378.632886,181.468692 378.753933,181.723527 C378.964171,181.506918 379.185555,181.320573 379.418091,181.164487 C379.650627,181.008401 379.926162,180.930359 380.244705,180.930359 C380.754373,180.930359 381.128655,181.100777 381.367562,181.441618 C381.60647,181.782458 381.725921,182.249117 381.725921,182.841606 L381.725921,185.784926 L380.321155,185.784926 L380.321155,183.023174 C380.321155,182.679148 380.274967,182.44343 380.18259,182.316013 C380.090212,182.188596 379.942092,182.124888 379.738225,182.124888 C379.502503,182.124888 379.231746,182.277787 378.925945,182.583588 L378.925945,185.784926 L377.521178,185.784926 L377.521178,183.023174 C377.521178,182.679148 377.47499,182.44343 377.382613,182.316013 C377.290236,182.188596 377.142115,182.124888 376.938248,182.124888 C376.696156,182.124888 376.428584,182.277787 376.135524,182.583588 L376.135524,185.784926 L374.730758,185.784926 L374.730758,181.045034 Z M382.64332,183.41498 C382.64332,183.019987 382.707027,182.668003 382.834444,182.359016 C382.961861,182.05003 383.132279,181.790421 383.345703,181.580183 C383.559127,181.369945 383.805993,181.209083 384.086311,181.097593 C384.366629,180.986103 384.656498,180.930359 384.955928,180.930359 C385.255358,180.930359 385.543635,180.986103 385.820767,181.097593 C386.0979,181.209083 386.343174,181.369945 386.556597,181.580183 C386.770021,181.790421 386.940439,182.05003 387.067856,182.359016 C387.195273,182.668003 387.258981,183.019987 387.258981,183.41498 C387.258981,183.809973 387.195273,184.161957 387.067856,184.470944 C386.940439,184.77993 386.770021,185.039539 386.556597,185.249777 C386.343174,185.460015 386.0979,185.620877 385.820767,185.732367 C385.543635,185.843857 385.255358,185.899601 384.955928,185.899601 C384.656498,185.899601 384.366629,185.843857 384.086311,185.732367 C383.805993,185.620877 383.559127,185.460015 383.345703,185.249777 C383.132279,185.039539 382.961861,184.77993 382.834444,184.470944 C382.707027,184.161957 382.64332,183.809973 382.64332,183.41498 Z M384.086311,183.41498 C384.086311,183.829086 384.157982,184.15718 384.301326,184.399272 C384.44467,184.641365 384.662869,184.762409 384.955928,184.762409 C385.242617,184.762409 385.459223,184.641365 385.605752,184.399272 C385.752282,184.15718 385.825546,183.829086 385.825546,183.41498 C385.825546,183.000874 385.752282,182.67278 385.605752,182.430688 C385.459223,182.188595 385.242617,182.067551 384.955928,182.067551 C384.662869,182.067551 384.44467,182.188595 384.301326,182.430688 C384.157982,182.67278 384.086311,183.000874 384.086311,183.41498 Z M388.22416,181.045034 L389.370908,181.045034 L389.466471,181.647077 L389.504696,181.647077 C389.708563,181.455951 389.931539,181.288719 390.173632,181.145374 C390.415724,181.00203 390.699223,180.930359 391.024137,180.930359 C391.540176,180.930359 391.914458,181.099184 392.146994,181.43684 C392.37953,181.774495 392.495797,182.242746 392.495797,182.841606 L392.495797,185.784926 L391.09103,185.784926 L391.09103,183.023174 C391.09103,182.679148 391.044842,182.44343 390.952465,182.316013 C390.860088,182.188596 390.711967,182.124888 390.5081,182.124888 C390.329716,182.124888 390.176818,182.164706 390.049401,182.244341 C389.921984,182.323977 389.781827,182.437058 389.628927,182.583588 L389.628927,185.784926 L388.22416,185.784926 L388.22416,181.045034 Z M393.881451,182.144001 L393.231627,182.144001 L393.231627,181.102371 L393.957901,181.045034 L394.120356,179.783611 L395.286217,179.783611 L395.286217,181.045034 L396.423409,181.045034 L396.423409,182.144001 L395.286217,182.144001 L395.286217,184.045691 C395.286217,184.313267 395.341961,184.505983 395.453451,184.623844 C395.564941,184.741704 395.713061,184.800634 395.897816,184.800634 C395.974266,184.800634 396.052308,184.791078 396.131944,184.771965 C396.211579,184.752853 396.28325,184.730555 396.346959,184.705072 L396.566752,185.727589 C396.439335,185.765814 396.289622,185.804038 396.117609,185.842263 C395.945596,185.880489 395.744917,185.899601 395.515567,185.899601 C395.222507,185.899601 394.972455,185.855005 394.765402,185.765814 C394.558349,185.676622 394.389524,185.552392 394.258922,185.39312 C394.128319,185.233849 394.032758,185.041134 393.972235,184.814968 C393.911712,184.588803 393.881451,184.338751 393.881451,184.064804 L393.881451,182.144001 Z M397.350363,179.086006 L398.75513,179.086006 L398.75513,180.729678 L398.688236,181.580183 C398.86662,181.420912 399.07367,181.272792 399.309391,181.135818 C399.545113,180.998845 399.825426,180.930359 400.15034,180.930359 C400.666379,180.930359 401.040661,181.099184 401.273197,181.43684 C401.505734,181.774495 401.622,182.242746 401.622,182.841606 L401.622,185.784926 L400.217234,185.784926 L400.217234,183.023174 C400.217234,182.679148 400.171046,182.44343 400.078668,182.316013 C399.986291,182.188596 399.838171,182.124888 399.634303,182.124888 C399.455919,182.124888 399.303021,182.164706 399.175604,182.244341 C399.048187,182.323977 398.90803,182.437058 398.75513,182.583588 L398.75513,185.784926 L397.350363,185.784926 L397.350363,179.086006 Z" id="€29.99-/-month" fill="#79797B"></path>
            <rect id="Rectangle-6" fill="#4990E2" x="336" y="197" width="74" height="29"></rect>
            <path d="M360.672,212.312 C360.858668,212.472001 361.065332,212.602666 361.292,212.704 C361.518668,212.805334 361.741332,212.856 361.96,212.856 C362.205335,212.856 362.387999,212.810667 362.508,212.72 C362.628001,212.629333 362.688,212.506667 362.688,212.352 C362.688,212.272 362.670667,212.202667 362.636,212.144 C362.601333,212.085333 362.550667,212.033334 362.484,211.988 C362.417333,211.942666 362.337334,211.9 362.244,211.86 L361.936,211.728 L361.256,211.44 C361.122666,211.386666 360.993334,211.317334 360.868,211.232 C360.742666,211.146666 360.630667,211.046667 360.532,210.932 C360.433333,210.817333 360.354667,210.684001 360.296,210.532 C360.237333,210.379999 360.208,210.208001 360.208,210.016 C360.208,209.802666 360.253333,209.601334 360.344,209.412 C360.434667,209.222666 360.562666,209.057334 360.728,208.916 C360.893334,208.774666 361.089332,208.664 361.316,208.584 C361.542668,208.504 361.791999,208.464 362.064,208.464 C362.368002,208.464 362.667999,208.522666 362.964,208.64 C363.260001,208.757334 363.519999,208.927999 363.744,209.152 L363.144,209.896 C362.973332,209.762666 362.802668,209.66 362.632,209.588 C362.461332,209.516 362.272001,209.48 362.064,209.48 C361.861332,209.48 361.700001,209.521333 361.58,209.604 C361.459999,209.686667 361.4,209.802666 361.4,209.952 C361.4,210.032 361.42,210.1 361.46,210.156 C361.5,210.212 361.556,210.262666 361.628,210.308 C361.7,210.353334 361.784,210.396 361.88,210.436 C361.976,210.476 362.079999,210.52 362.192,210.568 L362.864,210.84 C363.184002,210.968001 363.435999,211.143999 363.62,211.368 C363.804001,211.592001 363.896,211.887998 363.896,212.256 C363.896,212.474668 363.852,212.681332 363.764,212.876 C363.676,213.070668 363.548001,213.241333 363.38,213.388 C363.211999,213.534667 363.005335,213.652 362.76,213.74 C362.514665,213.828 362.237335,213.872 361.928,213.872 C361.586665,213.872 361.246668,213.809334 360.908,213.684 C360.569332,213.558666 360.266668,213.370668 360,213.12 L360.672,212.312 Z M365.272,209.224 C365.074666,209.224 364.912001,209.166667 364.784,209.052 C364.655999,208.937333 364.592,208.789334 364.592,208.608 C364.592,208.426666 364.655999,208.280001 364.784,208.168 C364.912001,208.055999 365.074666,208 365.272,208 C365.474668,208 365.638666,208.055999 365.764,208.168 C365.889334,208.280001 365.952,208.426666 365.952,208.608 C365.952,208.789334 365.889334,208.937333 365.764,209.052 C365.638666,209.166667 365.474668,209.224 365.272,209.224 Z M364.688,209.808 L365.864,209.808 L365.864,213.776 L364.688,213.776 L364.688,209.808 Z M367.616,214.272 C367.616,214.421334 367.695999,214.534666 367.856,214.612 C368.016001,214.689334 368.229332,214.728 368.496,214.728 C368.762668,214.728 368.981332,214.681334 369.152,214.588 C369.322668,214.494666 369.408,214.378667 369.408,214.24 C369.408,214.117333 369.356001,214.034667 369.252,213.992 C369.147999,213.949333 368.997334,213.928 368.8,213.928 L368.392,213.928 C368.253333,213.928 368.141334,213.924 368.056,213.916 C367.970666,213.908 367.896,213.896 367.832,213.88 C367.687999,214.008001 367.616,214.138666 367.616,214.272 Z M366.648,214.456 C366.648,214.135998 366.837331,213.869334 367.216,213.656 L367.216,213.624 C367.109333,213.554666 367.021334,213.466667 366.952,213.36 C366.882666,213.253333 366.848,213.117334 366.848,212.952 C366.848,212.807999 366.890666,212.670667 366.976,212.54 C367.061334,212.409333 367.167999,212.298667 367.296,212.208 L367.296,212.176 C367.157333,212.08 367.033334,211.942668 366.924,211.764 C366.814666,211.585332 366.76,211.378668 366.76,211.144 C366.76,210.903999 366.805333,210.694668 366.896,210.516 C366.986667,210.337332 367.107999,210.188001 367.26,210.068 C367.412001,209.947999 367.586666,209.858667 367.784,209.8 C367.981334,209.741333 368.186666,209.712 368.4,209.712 C368.634668,209.712 368.839999,209.744 369.016,209.808 L370.464,209.808 L370.464,210.664 L369.832,210.664 C369.869334,210.722667 369.9,210.797333 369.924,210.888 C369.948,210.978667 369.96,211.077333 369.96,211.184 C369.96,211.413334 369.92,211.611999 369.84,211.78 C369.76,211.948001 369.649334,212.086666 369.508,212.196 C369.366666,212.305334 369.201334,212.386666 369.012,212.44 C368.822666,212.493334 368.618668,212.52 368.4,212.52 C368.245333,212.52 368.085334,212.493334 367.92,212.44 C367.866666,212.482667 367.829333,212.525333 367.808,212.568 C367.786667,212.610667 367.776,212.666666 367.776,212.736 C367.776,212.837334 367.82,212.912 367.908,212.96 C367.996,213.008 368.151999,213.032 368.376,213.032 L369.016,213.032 C369.506669,213.032 369.881332,213.110666 370.14,213.268 C370.398668,213.425334 370.528,213.682665 370.528,214.04 C370.528,214.248001 370.476001,214.438666 370.372,214.612 C370.267999,214.785334 370.120001,214.934666 369.928,215.06 C369.735999,215.185334 369.504001,215.284 369.232,215.356 C368.959999,215.428 368.653335,215.464 368.312,215.464 C368.077332,215.464 367.860001,215.444 367.66,215.404 C367.459999,215.364 367.284001,215.304 367.132,215.224 C366.979999,215.144 366.861334,215.040001 366.776,214.912 C366.690666,214.783999 366.648,214.632001 366.648,214.456 Z M368.4,211.808 C368.554667,211.808 368.683999,211.753334 368.788,211.644 C368.892001,211.534666 368.944,211.368001 368.944,211.144 C368.944,210.935999 368.892001,210.777334 368.788,210.668 C368.683999,210.558666 368.554667,210.504 368.4,210.504 C368.245333,210.504 368.116001,210.557333 368.012,210.664 C367.907999,210.770667 367.856,210.930666 367.856,211.144 C367.856,211.368001 367.907999,211.534666 368.012,211.644 C368.116001,211.753334 368.245333,211.808 368.4,211.808 Z M371.168,209.808 L372.128,209.808 L372.208,210.312 L372.24,210.312 C372.410668,210.151999 372.597332,210.012001 372.8,209.892 C373.002668,209.771999 373.239999,209.712 373.512,209.712 C373.944002,209.712 374.257332,209.853332 374.452,210.136 C374.646668,210.418668 374.744,210.810664 374.744,211.312 L374.744,213.776 L373.568,213.776 L373.568,211.464 C373.568,211.175999 373.529334,210.978667 373.452,210.872 C373.374666,210.765333 373.250668,210.712 373.08,210.712 C372.930666,210.712 372.802667,210.745333 372.696,210.812 C372.589333,210.878667 372.472001,210.973333 372.344,211.096 L372.344,213.776 L371.168,213.776 L371.168,209.808 Z M377.368,209.808 L378.544,209.808 L378.544,212.12 C378.544,212.408001 378.584,212.605333 378.664,212.712 C378.744,212.818667 378.869332,212.872 379.04,212.872 C379.189334,212.872 379.314666,212.837334 379.416,212.768 C379.517334,212.698666 379.626666,212.586667 379.744,212.432 L379.744,209.808 L380.92,209.808 L380.92,213.776 L379.96,213.776 L379.872,213.224 L379.848,213.224 C379.677332,213.426668 379.494668,213.585333 379.3,213.7 C379.105332,213.814667 378.872001,213.872 378.6,213.872 C378.167998,213.872 377.854668,213.730668 377.66,213.448 C377.465332,213.165332 377.368,212.773336 377.368,212.272 L377.368,209.808 Z M383.128,214.088 L383.128,215.248 L381.952,215.248 L381.952,209.808 L382.912,209.808 L382.992,210.2 L383.024,210.2 C383.178667,210.061333 383.353332,209.945334 383.548,209.852 C383.742668,209.758666 383.943999,209.712 384.152,209.712 C384.392001,209.712 384.607999,209.76 384.8,209.856 C384.992001,209.952 385.154666,210.087999 385.288,210.264 C385.421334,210.440001 385.524,210.651999 385.596,210.9 C385.668,211.148001 385.704,211.423998 385.704,211.728 C385.704,212.069335 385.657334,212.371999 385.564,212.636 C385.470666,212.900001 385.345334,213.123999 385.188,213.308 C385.030666,213.492001 384.852001,213.632 384.652,213.728 C384.451999,213.824 384.245334,213.872 384.032,213.872 C383.861332,213.872 383.696001,213.836 383.536,213.764 C383.375999,213.692 383.226667,213.589334 383.088,213.456 L383.128,214.088 Z M383.128,212.656 C383.234667,212.752 383.341333,212.818666 383.448,212.856 C383.554667,212.893334 383.658666,212.912 383.76,212.912 C383.962668,212.912 384.135999,212.820001 384.28,212.636 C384.424001,212.451999 384.496,212.154669 384.496,211.744 C384.496,211.02933 384.266669,210.672 383.808,210.672 C383.578666,210.672 383.352001,210.791999 383.128,211.032 L383.128,212.656 Z" id="Sign-up" fill="#FFFFFF"></path>
            <path d="M456.5,158.5 L545.5,158.5" id="Line" stroke="#D7D9D9" stroke-width="3" stroke-linecap="square"></path>
            <path d="M456.5,174.5 L545.5,174.5" id="Line" stroke="#D7D9D9" stroke-width="3" stroke-linecap="square"></path>
            <path d="M456.5,190.5 L545.5,190.5" id="Line" stroke="#D7D9D9" stroke-width="3" stroke-linecap="square"></path>
            <path d="M456.5,206.5 L545.5,206.5" id="Line" stroke="#D7D9D9" stroke-width="3" stroke-linecap="square"></path>
            <path d="M456.5,222.5 L545.5,222.5" id="Line" stroke="#D7D9D9" stroke-width="3" stroke-linecap="square"></path>
            <circle id="Oval" fill="#79797B" cx="572.5" cy="258.5" r="3.5"></circle>
            <circle id="Oval" fill="#D7D9D9" cx="560.5" cy="258.5" r="3.5"></circle>
        </g>
    </g>
</svg>