<?xml version="1.0" encoding="UTF-8"?>
<svg width="605px" height="265px" viewBox="0 0 605 265" version="1.1" xmlns="http://www.w3.org/2000/svg" xmlns:xlink="http://www.w3.org/1999/xlink">
    <!-- Generator: Sketch 44.1 (41455) - http://www.bohemiancoding.com/sketch -->
    <title>pricing08</title>
    <desc>Created with Sketch.</desc>
    <defs></defs>
    <g id="Pricing" stroke="none" stroke-width="1" fill="none" fill-rule="evenodd">
        <g id="08" transform="translate(1.000000, 0.000000)">
            <path d="M6.51973244,13.2722408 C5.68093226,13.2722408 4.91522085,13.1229112 4.22257525,12.8242475 C3.52992965,12.5255838 2.93578843,12.0966583 2.44013378,11.5374582 C1.94447913,10.9782581 1.56003481,10.2983318 1.2867893,9.49765886 C1.01354378,8.69698596 0.876923077,7.7882994 0.876923077,6.77157191 C0.876923077,5.75484441 1.01354378,4.84933508 1.2867893,4.05501672 C1.56003481,3.26069837 1.94447913,2.59348096 2.44013378,2.05334448 C2.93578843,1.513208 3.52992965,1.10016865 4.22257525,0.814214047 C4.91522085,0.52825944 5.68093226,0.385284281 6.51973244,0.385284281 C7.35853262,0.385284281 8.12424403,0.52825944 8.81688963,0.814214047 C9.50953524,1.10016865 10.1036765,1.51638523 10.5993311,2.06287625 C11.0949858,2.60936728 11.4794301,3.27976191 11.7526756,4.07408027 C12.0259211,4.86839862 12.1625418,5.76755351 12.1625418,6.77157191 C12.1625418,7.7882994 12.0259211,8.69698596 11.7526756,9.49765886 C11.4794301,10.2983318 11.0949858,10.9782581 10.5993311,11.5374582 C10.1036765,12.0966583 9.50953524,12.5255838 8.81688963,12.8242475 C8.12424403,13.1229112 7.35853262,13.2722408 6.51973244,13.2722408 Z M6.51973244,10.8511706 C7.37124172,10.8511706 8.04481358,10.4857896 8.54046823,9.75501672 C9.03612288,9.02424384 9.28394649,8.02977218 9.28394649,6.77157191 C9.28394649,5.52608073 9.03612288,4.55384965 8.54046823,3.8548495 C8.04481358,3.15584935 7.37124172,2.80635452 6.51973244,2.80635452 C5.66822317,2.80635452 4.99465131,3.15584935 4.49899666,3.8548495 C4.003342,4.55384965 3.75551839,5.52608073 3.75551839,6.77157191 C3.75551839,8.02977218 4.003342,9.02424384 4.49899666,9.75501672 C4.99465131,10.4857896 5.66822317,10.8511706 6.51973244,10.8511706 Z M14.5073579,0.614046823 L22.3424749,0.614046823 L22.3424749,2.97792642 L17.309699,2.97792642 L17.309699,5.85652174 L21.6180602,5.85652174 L21.6180602,8.22040134 L17.309699,8.22040134 L17.309699,13.0434783 L14.5073579,13.0434783 L14.5073579,0.614046823 Z M24.4966555,0.614046823 L32.3317726,0.614046823 L32.3317726,2.97792642 L27.2989967,2.97792642 L27.2989967,5.85652174 L31.6073579,5.85652174 L31.6073579,8.22040134 L27.2989967,8.22040134 L27.2989967,13.0434783 L24.4966555,13.0434783 L24.4966555,0.614046823 Z M34.4859532,0.614046823 L42.2638796,0.614046823 L42.2638796,2.97792642 L37.2882943,2.97792642 L37.2882943,5.47525084 L41.5204013,5.47525084 L41.5204013,7.82006689 L37.2882943,7.82006689 L37.2882943,10.6795987 L42.4545151,10.6795987 L42.4545151,13.0434783 L34.4859532,13.0434783 L34.4859532,0.614046823 Z M47.7351171,6.33311037 L49.1839465,6.33311037 C49.9210739,6.33311037 50.4834429,6.17742631 50.8710702,5.86605351 C51.2586976,5.55468072 51.4525084,5.09398298 51.4525084,4.48394649 C51.4525084,3.87390999 51.2586976,3.44816174 50.8710702,3.20668896 C50.4834429,2.96521618 49.9210739,2.84448161 49.1839465,2.84448161 L47.7351171,2.84448161 L47.7351171,6.33311037 Z M51.6622074,13.0434783 L49.2792642,8.56354515 L47.7351171,8.56354515 L47.7351171,13.0434783 L44.9327759,13.0434783 L44.9327759,0.614046823 L49.412709,0.614046823 C50.0735819,0.614046823 50.6931409,0.677591338 51.2714047,0.804682274 C51.8496684,0.931773211 52.3548473,1.14464734 52.7869565,1.44331104 C53.2190657,1.74197474 53.5622061,2.13912796 53.816388,2.63478261 C54.0705698,3.13043726 54.1976589,3.74681906 54.1976589,4.48394649 C54.1976589,5.39900123 53.9974936,6.15200373 53.5971572,6.74297659 C53.1968207,7.33394944 52.6598696,7.77558382 51.9862876,8.06789298 L54.8076923,13.0434783 L51.6622074,13.0434783 Z M57.209699,9.5548495 C57.6545173,9.93612231 58.1469873,10.2474904 58.6871237,10.4889632 C59.2272602,10.730436 59.7578569,10.8511706 60.2789298,10.8511706 C60.8635481,10.8511706 61.298828,10.7431449 61.5847826,10.5270903 C61.8707372,10.3110357 62.0137124,10.0187309 62.0137124,9.65016722 C62.0137124,9.45953082 61.9724084,9.29431508 61.8897993,9.15451505 C61.8071902,9.01471502 61.6864556,8.89080322 61.527592,8.78277592 C61.3687283,8.67474862 61.1780948,8.5730774 60.9556856,8.4777592 L60.2217391,8.1632107 L58.6013378,7.47692308 C58.2836105,7.34983214 57.9754196,7.1846164 57.6767559,6.9812709 C57.3780922,6.7779254 57.1112052,6.53963347 56.876087,6.26638796 C56.6409687,5.99314245 56.4535124,5.67541987 56.3137124,5.3132107 C56.1739123,4.95100153 56.1040134,4.54113941 56.1040134,4.08361204 C56.1040134,3.57524829 56.2120391,3.09548721 56.4280936,2.64431438 C56.6441482,2.19314156 56.9491619,1.79916556 57.3431438,1.46237458 C57.7371257,1.1255836 58.2041779,0.861873863 58.7443144,0.671237458 C59.2844509,0.480601054 59.8785921,0.385284281 60.5267559,0.385284281 C61.2511742,0.385284281 61.96605,0.525082214 62.6714047,0.804682274 C63.3767594,1.08428233 63.9963184,1.49096723 64.5301003,2.02474916 L63.1003344,3.79765886 C62.6936435,3.47993152 62.2869586,3.23528514 61.8802676,3.06371237 C61.4735766,2.89213961 61.0224105,2.80635452 60.5267559,2.80635452 C60.0438103,2.80635452 59.659366,2.90484851 59.3734114,3.10183946 C59.0874568,3.29883042 58.9444816,3.57524906 58.9444816,3.93110368 C58.9444816,4.12174008 58.99214,4.2837786 59.0874582,4.41722408 C59.1827764,4.55066956 59.3162199,4.67140414 59.4877926,4.77943144 C59.6593654,4.88745873 59.8595306,4.98912996 60.0882943,5.08444816 C60.317058,5.17976636 60.5648816,5.28461481 60.8317726,5.39899666 L62.4331104,6.04715719 C63.195656,6.35217544 63.7961517,6.77156924 64.2346154,7.30535117 C64.6730791,7.8391331 64.8923077,8.54447722 64.8923077,9.42140468 C64.8923077,9.94247752 64.7874592,10.4349475 64.5777592,10.8988294 C64.3680592,11.3627113 64.0630455,11.7693962 63.662709,12.1188963 C63.2623726,12.4683964 62.7699026,12.7479923 62.1852843,12.9576923 C61.600666,13.1673924 60.939803,13.2722408 60.2026756,13.2722408 C59.3892936,13.2722408 58.579101,13.1229112 57.7720736,12.8242475 C56.9650461,12.5255838 56.2438159,12.077595 55.6083612,11.4802676 L57.209699,9.5548495 Z" id="OFFERS" fill="#79797B"></path>
            <path d="M2.5083612,29.5986622 L43.6943995,29.5986622" id="Line" stroke="#D7D9D9" stroke-width="3" stroke-linecap="square"></path>
            <path d="M1.50501672,50.1672241 L171.070234,50.1672241" id="Line" stroke="#D7D9D9" stroke-width="4" stroke-linecap="square"></path>
            <path d="M1.50501672,66.2207358 L193.645485,66.2207358" id="Line" stroke="#D7D9D9" stroke-width="4" stroke-linecap="square"></path>
            <g id="Group-5" transform="translate(1.003344, 101.337793)">
                <rect id="Rectangle-12" fill="#79797B" x="0" y="0" width="33.1103679" height="33.1103679"></rect>
                <path d="M41.638796,11.5384615 L125.925705,11.5384615" id="Line" stroke="#979797" stroke-width="7" stroke-linecap="square"></path>
                <path d="M242.307692,11.5384615 L287.464166,11.5384615" id="Line" stroke="#4990E2" stroke-width="7" stroke-linecap="square"></path>
                <path d="M39.632107,26.0869565 L193.156928,26.0869565" id="Line" stroke="#D7D9D9" stroke-width="4" stroke-linecap="square"></path>
            </g>
            <g id="Group-5" transform="translate(1.003344, 144.481605)">
                <rect id="Rectangle-12" fill="#79797B" x="0" y="0" width="33.1103679" height="33.1103679"></rect>
                <path d="M41.638796,11.5384615 L125.925705,11.5384615" id="Line" stroke="#979797" stroke-width="7" stroke-linecap="square"></path>
                <path d="M242.307692,11.5384615 L287.464166,11.5384615" id="Line" stroke="#4990E2" stroke-width="7" stroke-linecap="square"></path>
                <path d="M39.632107,26.0869565 L193.156928,26.0869565" id="Line" stroke="#D7D9D9" stroke-width="4" stroke-linecap="square"></path>
            </g>
            <g id="Group-5" transform="translate(1.003344, 188.628763)">
                <rect id="Rectangle-12" fill="#79797B" x="0" y="0" width="33.1103679" height="33.1103679"></rect>
                <path d="M41.638796,11.5384615 L125.925705,11.5384615" id="Line" stroke="#979797" stroke-width="7" stroke-linecap="square"></path>
                <path d="M242.307692,11.5384615 L287.464166,11.5384615" id="Line" stroke="#4990E2" stroke-width="7" stroke-linecap="square"></path>
                <path d="M39.632107,26.0869565 L193.156928,26.0869565" id="Line" stroke="#D7D9D9" stroke-width="4" stroke-linecap="square"></path>
            </g>
            <g id="Group-5" transform="translate(1.003344, 231.772575)">
                <rect id="Rectangle-12" fill="#79797B" x="0" y="0" width="33.1103679" height="33.1103679"></rect>
                <path d="M41.638796,11.5384615 L125.925705,11.5384615" id="Line" stroke="#979797" stroke-width="7" stroke-linecap="square"></path>
                <path d="M242.307692,11.5384615 L287.464166,11.5384615" id="Line" stroke="#4990E2" stroke-width="7" stroke-linecap="square"></path>
                <path d="M39.632107,26.0869565 L193.156928,26.0869565" id="Line" stroke="#D7D9D9" stroke-width="4" stroke-linecap="square"></path>
            </g>
            <g id="Group-5" transform="translate(312.040134, 101.337793)">
                <rect id="Rectangle-12" fill="#79797B" x="0" y="0" width="33.1103679" height="33.1103679"></rect>
                <path d="M41.638796,11.5384615 L125.925705,11.5384615" id="Line" stroke="#979797" stroke-width="7" stroke-linecap="square"></path>
                <path d="M242.307692,11.5384615 L287.464166,11.5384615" id="Line" stroke="#4990E2" stroke-width="7" stroke-linecap="square"></path>
                <path d="M39.632107,26.0869565 L193.156928,26.0869565" id="Line" stroke="#D7D9D9" stroke-width="4" stroke-linecap="square"></path>
            </g>
            <g id="Group-5" transform="translate(312.040134, 144.481605)">
                <rect id="Rectangle-12" fill="#79797B" x="0" y="0" width="33.1103679" height="33.1103679"></rect>
                <path d="M41.638796,11.5384615 L125.925705,11.5384615" id="Line" stroke="#979797" stroke-width="7" stroke-linecap="square"></path>
                <path d="M242.307692,11.5384615 L287.464166,11.5384615" id="Line" stroke="#4990E2" stroke-width="7" stroke-linecap="square"></path>
                <path d="M39.632107,26.0869565 L193.156928,26.0869565" id="Line" stroke="#D7D9D9" stroke-width="4" stroke-linecap="square"></path>
            </g>
            <g id="Group-5" transform="translate(312.040134, 188.628763)">
                <rect id="Rectangle-12" fill="#79797B" x="0" y="0" width="33.1103679" height="33.1103679"></rect>
                <path d="M41.638796,11.5384615 L125.925705,11.5384615" id="Line" stroke="#979797" stroke-width="7" stroke-linecap="square"></path>
                <path d="M242.307692,11.5384615 L287.464166,11.5384615" id="Line" stroke="#4990E2" stroke-width="7" stroke-linecap="square"></path>
                <path d="M39.632107,26.0869565 L193.156928,26.0869565" id="Line" stroke="#D7D9D9" stroke-width="4" stroke-linecap="square"></path>
            </g>
            <g id="Group-5" transform="translate(312.040134, 231.772575)">
                <rect id="Rectangle-12" fill="#79797B" x="0" y="0" width="33.1103679" height="33.1103679"></rect>
                <path d="M41.638796,11.5384615 L125.925705,11.5384615" id="Line" stroke="#979797" stroke-width="7" stroke-linecap="square"></path>
                <path d="M242.307692,11.5384615 L287.464166,11.5384615" id="Line" stroke="#4990E2" stroke-width="7" stroke-linecap="square"></path>
                <path d="M39.632107,26.0869565 L193.156928,26.0869565" id="Line" stroke="#D7D9D9" stroke-width="4" stroke-linecap="square"></path>
            </g>
        </g>
    </g>
</svg>