<?xml version="1.0" encoding="UTF-8"?>
<svg width="600px" height="243px" viewBox="0 0 600 243" version="1.1" xmlns="http://www.w3.org/2000/svg" xmlns:xlink="http://www.w3.org/1999/xlink">
    <!-- Generator: Sketch 44.1 (41455) - http://www.bohemiancoding.com/sketch -->
    <title>productbox01</title>
    <desc>Created with Sketch.</desc>
    <defs></defs>
    <g id="Productboxes" stroke="none" stroke-width="1" fill="none" fill-rule="evenodd">
        <g id="01" transform="translate(0.000000, -5.000000)">
            <path d="M249.251741,19.1323383 C248.419896,19.1323383 247.660534,18.9842469 246.973632,18.6880597 C246.28673,18.3918725 245.697515,17.9665036 245.20597,17.4119403 C244.714425,16.857377 244.333169,16.1830885 244.062189,15.3890547 C243.791209,14.5950209 243.655721,13.6938691 243.655721,12.6855721 C243.655721,11.6772752 243.791209,10.7792743 244.062189,9.99154229 C244.333169,9.20381032 244.714425,8.5421254 245.20597,8.00646766 C245.697515,7.47080993 246.28673,7.06119545 246.973632,6.77761194 C247.660534,6.49402843 248.419896,6.35223881 249.251741,6.35223881 C250.083586,6.35223881 250.842948,6.49402843 251.529851,6.77761194 C252.216753,7.06119545 252.805968,7.47396081 253.297512,8.0159204 C253.789057,8.55787999 254.170314,9.2227158 254.441294,10.0104478 C254.712273,10.7981797 254.847761,11.6898789 254.847761,12.6855721 C254.847761,13.6938691 254.712273,14.5950209 254.441294,15.3890547 C254.170314,16.1830885 253.789057,16.857377 253.297512,17.4119403 C252.805968,17.9665036 252.216753,18.3918725 251.529851,18.6880597 C250.842948,18.9842469 250.083586,19.1323383 249.251741,19.1323383 Z M249.251741,16.7313433 C250.09619,16.7313433 250.764177,16.368992 251.255721,15.6442786 C251.747266,14.9195652 251.993035,13.9333396 251.993035,12.6855721 C251.993035,11.4504084 251.747266,10.486239 251.255721,9.79303483 C250.764177,9.0998307 250.09619,8.75323383 249.251741,8.75323383 C248.407293,8.75323383 247.739306,9.0998307 247.247761,9.79303483 C246.756216,10.486239 246.510448,11.4504084 246.510448,12.6855721 C246.510448,13.9333396 246.756216,14.9195652 247.247761,15.6442786 C247.739306,16.368992 248.407293,16.7313433 249.251741,16.7313433 Z M256.851741,9.52835821 L259.630846,9.52835821 L259.630846,14.9920398 C259.630846,15.6726402 259.725372,16.1389705 259.914428,16.3910448 C260.103484,16.643119 260.399666,16.7691542 260.802985,16.7691542 C261.155889,16.7691542 261.452072,16.6872313 261.691542,16.5233831 C261.931013,16.3595348 262.189385,16.0948609 262.466667,15.7293532 L262.466667,9.52835821 L265.245771,9.52835821 L265.245771,18.9054726 L262.977114,18.9054726 L262.769154,17.600995 L262.712438,17.600995 C262.309119,18.0799361 261.877448,18.4548909 261.417413,18.7258706 C260.957377,18.9968504 260.405973,19.1323383 259.763184,19.1323383 C258.742283,19.1323383 258.001827,18.798345 257.541791,18.1303483 C257.081756,17.4623516 256.851741,16.5359927 256.851741,15.3512438 L256.851741,9.52835821 Z M267.684577,9.52835821 L269.953234,9.52835821 L270.142289,11.1731343 L270.21791,11.1731343 C270.558211,10.530345 270.967825,10.057713 271.446766,9.75522388 C271.925707,9.45273481 272.404641,9.30149254 272.883582,9.30149254 C273.14826,9.30149254 273.365671,9.31724694 273.535821,9.34875622 C273.705971,9.3802655 273.860364,9.42752871 273.999005,9.49054726 L273.545274,11.8915423 C273.368822,11.8411274 273.204976,11.8033169 273.053731,11.7781095 C272.902487,11.752902 272.726037,11.7402985 272.524378,11.7402985 C272.171474,11.7402985 271.802821,11.8663337 271.418408,12.118408 C271.033995,12.3704822 270.715756,12.8179072 270.463682,13.4606965 L270.463682,18.9054726 L267.684577,18.9054726 L267.684577,9.52835821 Z M279.368159,6.57910448 L283.867662,6.57910448 C284.535658,6.57910448 285.162684,6.64527297 285.748756,6.77761194 C286.334829,6.90995091 286.845271,7.13051255 287.2801,7.43930348 C287.714928,7.74809441 288.058374,8.15770889 288.310448,8.6681592 C288.562522,9.17860952 288.688557,9.80563476 288.688557,10.5492537 C288.688557,11.2676653 288.559371,11.8915396 288.300995,12.4208955 C288.042619,12.9502514 287.692871,13.3850729 287.251741,13.7253731 C286.810611,14.0656733 286.300169,14.3177438 285.720398,14.481592 C285.140627,14.6454403 284.523055,14.7273632 283.867662,14.7273632 L282.147264,14.7273632 L282.147264,18.9054726 L279.368159,18.9054726 L279.368159,6.57910448 Z M283.697512,12.5154229 C285.209958,12.5154229 285.966169,11.8600397 285.966169,10.5492537 C285.966169,9.90646445 285.773965,9.45273764 285.389552,9.1880597 C285.005139,8.92338176 284.441131,8.79104478 283.697512,8.79104478 L282.147264,8.79104478 L282.147264,12.5154229 L283.697512,12.5154229 Z M290.59801,9.52835821 L292.866667,9.52835821 L293.055721,11.1731343 L293.131343,11.1731343 C293.471643,10.530345 293.881258,10.057713 294.360199,9.75522388 C294.83914,9.45273481 295.318074,9.30149254 295.797015,9.30149254 C296.061693,9.30149254 296.279104,9.31724694 296.449254,9.34875622 C296.619404,9.3802655 296.773797,9.42752871 296.912438,9.49054726 L296.458706,11.8915423 C296.282255,11.8411274 296.118409,11.8033169 295.967164,11.7781095 C295.81592,11.752902 295.63947,11.7402985 295.437811,11.7402985 C295.084907,11.7402985 294.716254,11.8663337 294.331841,12.118408 C293.947428,12.3704822 293.629189,12.8179072 293.377114,13.4606965 L293.377114,18.9054726 L290.59801,18.9054726 L290.59801,9.52835821 Z M297.574129,14.2169154 C297.574129,13.4354853 297.700165,12.7391407 297.952239,12.1278607 C298.204313,11.5165807 298.541457,11.0029872 298.963682,10.5870647 C299.385906,10.1711422 299.874292,9.85290326 300.428856,9.63233831 C300.983419,9.41177336 301.556879,9.30149254 302.149254,9.30149254 C302.741628,9.30149254 303.311938,9.41177336 303.860199,9.63233831 C304.40846,9.85290326 304.893696,10.1711422 305.31592,10.5870647 C305.738145,11.0029872 306.075289,11.5165807 306.327363,12.1278607 C306.579437,12.7391407 306.705473,13.4354853 306.705473,14.2169154 C306.705473,14.9983455 306.579437,15.6946901 306.327363,16.3059701 C306.075289,16.9172502 305.738145,17.4308437 305.31592,17.8467662 C304.893696,18.2626886 304.40846,18.5809276 303.860199,18.8014925 C303.311938,19.0220575 302.741628,19.1323383 302.149254,19.1323383 C301.556879,19.1323383 300.983419,19.0220575 300.428856,18.8014925 C299.874292,18.5809276 299.385906,18.2626886 298.963682,17.8467662 C298.541457,17.4308437 298.204313,16.9172502 297.952239,16.3059701 C297.700165,15.6946901 297.574129,14.9983455 297.574129,14.2169154 Z M300.428856,14.2169154 C300.428856,15.0361567 300.570645,15.6852381 300.854229,16.1641791 C301.137812,16.6431201 301.569483,16.8825871 302.149254,16.8825871 C302.716421,16.8825871 303.144941,16.6431201 303.434826,16.1641791 C303.724711,15.6852381 303.869652,15.0361567 303.869652,14.2169154 C303.869652,13.3976742 303.724711,12.7485928 303.434826,12.2696517 C303.144941,11.7907107 302.716421,11.5512438 302.149254,11.5512438 C301.569483,11.5512438 301.137812,11.7907107 300.854229,12.2696517 C300.570645,12.7485928 300.428856,13.3976742 300.428856,14.2169154 Z M308.123383,14.2169154 C308.123383,13.448089 308.233664,12.7611971 308.454229,12.1562189 C308.674794,11.5512408 308.964675,11.0376472 309.323881,10.6154229 C309.683086,10.1931986 310.099003,9.86865785 310.571642,9.64179104 C311.044281,9.41492424 311.526366,9.30149254 312.01791,9.30149254 C312.547266,9.30149254 312.982088,9.38971719 313.322388,9.56616915 C313.662688,9.74262111 313.996682,9.98208804 314.324378,10.2845771 L314.210945,8.84776119 L314.210945,5.65273632 L316.99005,5.65273632 L316.99005,18.9054726 L314.721393,18.9054726 L314.532338,17.9791045 L314.456716,17.9791045 C314.12902,18.306801 313.744612,18.5809276 313.303483,18.8014925 C312.862353,19.0220575 312.414928,19.1323383 311.961194,19.1323383 C311.381423,19.1323383 310.855226,19.0189066 310.382587,18.7920398 C309.909948,18.565173 309.506635,18.2406323 309.172637,17.818408 C308.838638,17.3961836 308.580266,16.8825901 308.397512,16.2776119 C308.214759,15.6726338 308.123383,14.9857418 308.123383,14.2169154 Z M310.978109,14.1791045 C310.978109,15.1117791 311.126201,15.7923693 311.422388,16.2208955 C311.718575,16.6494217 312.137642,16.8636816 312.679602,16.8636816 C312.982091,16.8636816 313.256218,16.800664 313.50199,16.6746269 C313.747762,16.5485898 313.984078,16.3280281 314.210945,16.0129353 L314.210945,12.1751244 C313.958871,11.9482576 313.700499,11.7907135 313.435821,11.7024876 C313.171143,11.6142616 312.912771,11.5701493 312.660697,11.5701493 C312.219567,11.5701493 311.828857,11.7812583 311.488557,12.2034826 C311.148257,12.6257069 310.978109,13.284241 310.978109,14.1791045 Z M319.353234,9.52835821 L322.132338,9.52835821 L322.132338,14.9920398 C322.132338,15.6726402 322.226865,16.1389705 322.41592,16.3910448 C322.604976,16.643119 322.901159,16.7691542 323.304478,16.7691542 C323.657382,16.7691542 323.953564,16.6872313 324.193035,16.5233831 C324.432505,16.3595348 324.690878,16.0948609 324.968159,15.7293532 L324.968159,9.52835821 L327.747264,9.52835821 L327.747264,18.9054726 L325.478607,18.9054726 L325.270647,17.600995 L325.21393,17.600995 C324.810612,18.0799361 324.378941,18.4548909 323.918905,18.7258706 C323.45887,18.9968504 322.907466,19.1323383 322.264677,19.1323383 C321.243776,19.1323383 320.503319,18.798345 320.043284,18.1303483 C319.583248,17.4623516 319.353234,16.5359927 319.353234,15.3512438 L319.353234,9.52835821 Z M329.637811,14.2169154 C329.637811,13.4354853 329.770148,12.7391407 330.034826,12.1278607 C330.299504,11.5165807 330.655553,11.0029872 331.102985,10.5870647 C331.550417,10.1711422 332.070312,9.85290326 332.662687,9.63233831 C333.255061,9.41177336 333.872634,9.30149254 334.515423,9.30149254 C335.095194,9.30149254 335.61824,9.39916984 336.084577,9.59452736 C336.550914,9.78988489 336.941624,10.051408 337.256716,10.3791045 L335.99005,12.0995025 C335.54892,11.7339949 335.114098,11.5512438 334.685572,11.5512438 C334.004972,11.5512438 333.469322,11.7907107 333.078607,12.2696517 C332.687892,12.7485928 332.492537,13.3976742 332.492537,14.2169154 C332.492537,15.0361567 332.691043,15.6852381 333.08806,16.1641791 C333.485077,16.6431201 333.986067,16.8825871 334.591045,16.8825871 C334.931345,16.8825871 335.240131,16.8132677 335.517413,16.6746269 C335.794695,16.535986 336.046765,16.378442 336.273632,16.20199 L337.389055,17.960199 C336.935321,18.3635178 336.43118,18.6597005 335.876617,18.8487562 C335.322054,19.0378119 334.786404,19.1323383 334.269652,19.1323383 C333.614259,19.1323383 333.006139,19.0220575 332.445274,18.8014925 C331.884408,18.5809276 331.396022,18.2626886 330.9801,17.8467662 C330.564177,17.4308437 330.236485,16.9172502 329.997015,16.3059701 C329.757544,15.6946901 329.637811,14.9983455 329.637811,14.2169154 Z M339.393035,11.7024876 L338.107463,11.7024876 L338.107463,9.64179104 L339.544279,9.52835821 L339.865672,7.03283582 L342.172139,7.03283582 L342.172139,9.52835821 L344.421891,9.52835821 L344.421891,11.7024876 L342.172139,11.7024876 L342.172139,15.4646766 C342.172139,15.9940325 342.28242,16.375289 342.502985,16.6084577 C342.72355,16.8416264 343.016582,16.958209 343.38209,16.958209 C343.533334,16.958209 343.687727,16.9393037 343.845274,16.9014925 C344.00282,16.8636814 344.14461,16.8195691 344.270647,16.7691542 L344.705473,18.7920398 C344.453398,18.8676621 344.157216,18.9432832 343.816915,19.0189055 C343.476615,19.0945277 343.079604,19.1323383 342.625871,19.1323383 C342.0461,19.1323383 341.551412,19.0441137 341.141791,18.8676617 C340.73217,18.6912097 340.398177,18.445441 340.139801,18.1303483 C339.881425,17.8152555 339.692372,17.4339989 339.572637,16.9865672 C339.452902,16.5391354 339.393035,16.0444472 339.393035,15.5024876 L339.393035,11.7024876 Z M346.671642,16.0885572 C347.100168,16.4162537 347.509782,16.6620224 347.900498,16.8258706 C348.291213,16.9897189 348.688224,17.0716418 349.091542,17.0716418 C349.507465,17.0716418 349.809949,17.0023224 349.999005,16.8636816 C350.188061,16.7250408 350.282587,16.5296862 350.282587,16.2776119 C350.282587,16.1263674 350.229022,15.9908795 350.121891,15.8711443 C350.014759,15.751409 349.869818,15.6411282 349.687065,15.5402985 C349.504311,15.4394688 349.299504,15.3480933 349.072637,15.2661692 C348.84577,15.184245 348.612605,15.0928695 348.373134,14.9920398 C348.083249,14.8786064 347.793368,14.7462694 347.503483,14.5950249 C347.213597,14.4437803 346.948923,14.2578784 346.709453,14.0373134 C346.469982,13.8167485 346.274628,13.5583763 346.123383,13.2621891 C345.972139,12.9660018 345.896517,12.6225559 345.896517,12.2318408 C345.896517,11.8033146 345.981591,11.4063037 346.151741,11.040796 C346.321891,10.6752884 346.564509,10.3665021 346.879602,10.1144279 C347.194695,9.86235363 347.5728,9.66384815 348.01393,9.51890547 C348.45506,9.37396279 348.946598,9.30149254 349.488557,9.30149254 C350.206969,9.30149254 350.837145,9.42437688 351.379104,9.67014925 C351.921064,9.91592163 352.393696,10.1900482 352.797015,10.4925373 L351.549254,12.1562189 C351.208954,11.9041447 350.87496,11.7087901 350.547264,11.5701493 C350.219567,11.4315084 349.891876,11.3621891 349.564179,11.3621891 C348.858371,11.3621891 348.505473,11.6079577 348.505473,12.0995025 C348.505473,12.250747 348.555887,12.3799331 348.656716,12.4870647 C348.757546,12.5941962 348.893034,12.6918735 349.063184,12.7800995 C349.233334,12.8683255 349.428689,12.9533993 349.649254,13.0353234 C349.869819,13.1172475 350.099833,13.2023213 350.339303,13.2905473 C350.641793,13.4039807 350.941126,13.5331668 351.237313,13.6781095 C351.533501,13.8230521 351.804476,14.0026523 352.050249,14.2169154 C352.296021,14.4311785 352.494527,14.6927016 352.645771,15.0014925 C352.797016,15.3102835 352.872637,15.6789365 352.872637,16.1074627 C352.872637,16.5359889 352.790714,16.9329998 352.626866,17.2985075 C352.463017,17.6640151 352.217249,17.982254 351.889552,18.2532338 C351.561856,18.5242136 351.158543,18.7384735 350.679602,18.8960199 C350.200661,19.0535663 349.646106,19.1323383 349.01592,19.1323383 C348.398339,19.1323383 347.765012,19.0126048 347.11592,18.7731343 C346.466829,18.5336638 345.902822,18.2185758 345.423881,17.8278607 L346.671642,16.0885572 Z" id="Our-Products" fill="#79797B"></path>
            <g id="Group" transform="translate(0.000000, 51.741294)">
                <rect id="Rectangle" fill="#F8F8F8" x="0" y="0" width="139.303483" height="138.308458"></rect>
                <g id="t-shirt" transform="translate(9.950249, 19.900498)" stroke="#979797">
                    <path d="M58.6506719,-5.68434189e-14 C59.9411041,-5.68434189e-14 68.3114808,-5.68434189e-14 83.7618021,-5.68434189e-14 C85.3256214,0.165125084 87.1673281,0.953789745 89.2869221,2.36599398 C91.406516,3.77819822 100.240408,11.9577302 115.788597,26.9045899 C117.117099,28.0764445 117.78135,29.4639023 117.78135,31.0669633 C117.78135,31.9186904 116.894161,32.8805944 115.788597,34.2293848 C114.616744,35.6590487 111.593172,38.4993767 106.71788,42.7503687 C105.16569,44.3710898 103.711001,44.9275872 102.353814,44.4198608 C100.318034,43.6582713 95.3959429,40.1731208 93.6341148,38.6303861 C91.8722867,37.0876514 90.4969132,36.550946 89.2869221,39.9469878 C88.4802613,42.2110156 88.6814277,58.72838 89.8904213,89.499081 C89.8904213,93.8024748 89.3322845,96.2925207 88.2160108,96.9692188 C87.0997371,97.6459168 84.2387978,97.8753692 79.6331927,97.6575759 L58.6506719,97.6575759" id="Path-8"></path>
                    <path d="M-5.68434189e-14,-5.68434189e-14 C1.29043222,-5.68434189e-14 9.66080895,-5.68434189e-14 25.1111302,-5.68434189e-14 C26.6749495,0.165125084 28.5166562,0.953789745 30.6362502,2.36599398 C32.7558442,3.77819822 41.5897359,11.9577302 57.1379253,26.9045899 C58.466427,28.0764445 59.1306779,29.4639023 59.1306779,31.0669633 C59.1306779,31.9186904 58.2434889,32.8805944 57.1379253,34.2293848 C55.9660721,35.6590487 52.9424999,38.4993767 48.0672086,42.7503687 C46.5150177,44.3710898 45.0603289,44.9275872 43.7031421,44.4198608 C41.6673619,43.6582713 36.7452711,40.1731208 34.9834429,38.6303861 C33.2216148,37.0876514 31.8462413,36.550946 30.6362502,39.9469878 C29.8295894,42.2110156 30.0307558,58.72838 31.2397495,89.499081 C31.2397495,93.8024748 30.6816126,96.2925207 29.5653389,96.9692188 C28.4490653,97.6459168 25.5881259,97.8753692 20.9825208,97.6575759 L-5.68434189e-14,97.6575759" id="Path-8" transform="translate(29.565339, 48.868560) scale(-1, 1) translate(-29.565339, -48.868560) "></path>
                    <path d="M58.6905665,15.7928929 C65.4134078,15.7928929 71.3266204,6.72411082 71.3266204,4.60559228e-15 C71.3266204,-4.25160472e-14 62.830342,2.45501001e-14 60.1116075,4.60559228e-15 C53.7128785,-4.51460922e-14 46.4778909,-6.80005751e-14 46.4778909,4.16153387e-15 C46.4778909,10.1400161 51.9677252,15.7928929 58.6905665,15.7928929 Z" id="Oval-3"></path>
                    <path d="M25.5145758,5.44934779 C31.2033304,13.7662072 32.0134744,24.2326167 27.9450077,36.8485763" id="Path-9" stroke-dasharray="4,2"></path>
                    <path d="M86.8350905,5.53412712 C92.5238451,13.8509866 93.333989,24.3173961 89.2655224,36.9333556" id="Path-9" stroke-dasharray="4,2" transform="translate(89.322627, 21.233741) scale(-1, 1) translate(-89.322627, -21.233741) "></path>
                    <path d="M29.3253359,87.9926212 L90.1892407,87.9926212" id="Line" stroke-linecap="square" stroke-dasharray="4"></path>
                    <path d="M1.65992468,28.2240483 L17.152555,42.6127788" id="Line" stroke-linecap="square" stroke-dasharray="4"></path>
                    <path d="M101.255405,28.2240483 L116.748036,42.6127788" id="Line" stroke-linecap="square" stroke-dasharray="4" transform="translate(109.001720, 35.418414) scale(-1, 1) translate(-109.001720, -35.418414) "></path>
                    <path d="M90.1892407,69.176589 L100.148789,69.176589" id="Line" stroke-linecap="square"></path>
                    <polygon id="Path-10" points="96.2756312 69.1160276 101.187696 64.1958746 117.879668 64.1958746 117.879668 75.2820815 101.583807 75.2820815"></polygon>
                    <ellipse id="Oval-4" cx="102.362022" cy="69.176589" rx="1.65992468" ry="1.66023814"></ellipse>
                </g>
                <path d="M34.3283582,155.721393 L103.9801,155.721393" id="Line" stroke="#979797" stroke-width="7" stroke-linecap="square"></path>
                <path d="M53.2338308,177.114428 L85.0746269,177.114428" id="Line" stroke="#D7D9D9" stroke-width="4" stroke-linecap="square"></path>
                <path d="M54.2288557,194.029851 L84.723568,194.029851" id="Line" stroke="#979797" stroke-width="4" stroke-linecap="square"></path>
            </g>
            <g id="Group" transform="translate(460.696517, 51.741294)">
                <rect id="Rectangle" fill="#F8F8F8" x="0" y="0" width="139.303483" height="138.308458"></rect>
                <g id="t-shirt" transform="translate(9.950249, 19.900498)" stroke="#979797">
                    <path d="M58.6506719,-5.68434189e-14 C59.9411041,-5.68434189e-14 68.3114808,-5.68434189e-14 83.7618021,-5.68434189e-14 C85.3256214,0.165125084 87.1673281,0.953789745 89.2869221,2.36599398 C91.406516,3.77819822 100.240408,11.9577302 115.788597,26.9045899 C117.117099,28.0764445 117.78135,29.4639023 117.78135,31.0669633 C117.78135,31.9186904 116.894161,32.8805944 115.788597,34.2293848 C114.616744,35.6590487 111.593172,38.4993767 106.71788,42.7503687 C105.16569,44.3710898 103.711001,44.9275872 102.353814,44.4198608 C100.318034,43.6582713 95.3959429,40.1731208 93.6341148,38.6303861 C91.8722867,37.0876514 90.4969132,36.550946 89.2869221,39.9469878 C88.4802613,42.2110156 88.6814277,58.72838 89.8904213,89.499081 C89.8904213,93.8024748 89.3322845,96.2925207 88.2160108,96.9692188 C87.0997371,97.6459168 84.2387978,97.8753692 79.6331927,97.6575759 L58.6506719,97.6575759" id="Path-8"></path>
                    <path d="M-5.68434189e-14,-5.68434189e-14 C1.29043222,-5.68434189e-14 9.66080895,-5.68434189e-14 25.1111302,-5.68434189e-14 C26.6749495,0.165125084 28.5166562,0.953789745 30.6362502,2.36599398 C32.7558442,3.77819822 41.5897359,11.9577302 57.1379253,26.9045899 C58.466427,28.0764445 59.1306779,29.4639023 59.1306779,31.0669633 C59.1306779,31.9186904 58.2434889,32.8805944 57.1379253,34.2293848 C55.9660721,35.6590487 52.9424999,38.4993767 48.0672086,42.7503687 C46.5150177,44.3710898 45.0603289,44.9275872 43.7031421,44.4198608 C41.6673619,43.6582713 36.7452711,40.1731208 34.9834429,38.6303861 C33.2216148,37.0876514 31.8462413,36.550946 30.6362502,39.9469878 C29.8295894,42.2110156 30.0307558,58.72838 31.2397495,89.499081 C31.2397495,93.8024748 30.6816126,96.2925207 29.5653389,96.9692188 C28.4490653,97.6459168 25.5881259,97.8753692 20.9825208,97.6575759 L-5.68434189e-14,97.6575759" id="Path-8" transform="translate(29.565339, 48.868560) scale(-1, 1) translate(-29.565339, -48.868560) "></path>
                    <path d="M58.6905665,15.7928929 C65.4134078,15.7928929 71.3266204,6.72411082 71.3266204,4.60559228e-15 C71.3266204,-4.25160472e-14 62.830342,2.45501001e-14 60.1116075,4.60559228e-15 C53.7128785,-4.51460922e-14 46.4778909,-6.80005751e-14 46.4778909,4.16153387e-15 C46.4778909,10.1400161 51.9677252,15.7928929 58.6905665,15.7928929 Z" id="Oval-3"></path>
                    <path d="M25.5145758,5.44934779 C31.2033304,13.7662072 32.0134744,24.2326167 27.9450077,36.8485763" id="Path-9" stroke-dasharray="4,2"></path>
                    <path d="M86.8350905,5.53412712 C92.5238451,13.8509866 93.333989,24.3173961 89.2655224,36.9333556" id="Path-9" stroke-dasharray="4,2" transform="translate(89.322627, 21.233741) scale(-1, 1) translate(-89.322627, -21.233741) "></path>
                    <path d="M29.3253359,87.9926212 L90.1892407,87.9926212" id="Line" stroke-linecap="square" stroke-dasharray="4"></path>
                    <path d="M1.65992468,28.2240483 L17.152555,42.6127788" id="Line" stroke-linecap="square" stroke-dasharray="4"></path>
                    <path d="M101.255405,28.2240483 L116.748036,42.6127788" id="Line" stroke-linecap="square" stroke-dasharray="4" transform="translate(109.001720, 35.418414) scale(-1, 1) translate(-109.001720, -35.418414) "></path>
                    <path d="M90.1892407,69.176589 L100.148789,69.176589" id="Line" stroke-linecap="square"></path>
                    <polygon id="Path-10" points="96.2756312 69.1160276 101.187696 64.1958746 117.879668 64.1958746 117.879668 75.2820815 101.583807 75.2820815"></polygon>
                    <ellipse id="Oval-4" cx="102.362022" cy="69.176589" rx="1.65992468" ry="1.66023814"></ellipse>
                </g>
                <path d="M34.3283582,155.721393 L103.9801,155.721393" id="Line" stroke="#979797" stroke-width="7" stroke-linecap="square"></path>
                <path d="M53.2338308,177.114428 L85.0746269,177.114428" id="Line" stroke="#D7D9D9" stroke-width="4" stroke-linecap="square"></path>
                <path d="M54.2288557,194.029851 L84.723568,194.029851" id="Line" stroke="#979797" stroke-width="4" stroke-linecap="square"></path>
            </g>
            <g id="Group" transform="translate(307.131012, 51.741294)">
                <rect id="Rectangle" fill="#F8F8F8" x="0" y="0" width="139.303483" height="138.308458"></rect>
                <g id="t-shirt" transform="translate(9.950249, 19.900498)" stroke="#979797">
                    <path d="M58.6506719,-5.68434189e-14 C59.9411041,-5.68434189e-14 68.3114808,-5.68434189e-14 83.7618021,-5.68434189e-14 C85.3256214,0.165125084 87.1673281,0.953789745 89.2869221,2.36599398 C91.406516,3.77819822 100.240408,11.9577302 115.788597,26.9045899 C117.117099,28.0764445 117.78135,29.4639023 117.78135,31.0669633 C117.78135,31.9186904 116.894161,32.8805944 115.788597,34.2293848 C114.616744,35.6590487 111.593172,38.4993767 106.71788,42.7503687 C105.16569,44.3710898 103.711001,44.9275872 102.353814,44.4198608 C100.318034,43.6582713 95.3959429,40.1731208 93.6341148,38.6303861 C91.8722867,37.0876514 90.4969132,36.550946 89.2869221,39.9469878 C88.4802613,42.2110156 88.6814277,58.72838 89.8904213,89.499081 C89.8904213,93.8024748 89.3322845,96.2925207 88.2160108,96.9692188 C87.0997371,97.6459168 84.2387978,97.8753692 79.6331927,97.6575759 L58.6506719,97.6575759" id="Path-8"></path>
                    <path d="M-5.68434189e-14,-5.68434189e-14 C1.29043222,-5.68434189e-14 9.66080895,-5.68434189e-14 25.1111302,-5.68434189e-14 C26.6749495,0.165125084 28.5166562,0.953789745 30.6362502,2.36599398 C32.7558442,3.77819822 41.5897359,11.9577302 57.1379253,26.9045899 C58.466427,28.0764445 59.1306779,29.4639023 59.1306779,31.0669633 C59.1306779,31.9186904 58.2434889,32.8805944 57.1379253,34.2293848 C55.9660721,35.6590487 52.9424999,38.4993767 48.0672086,42.7503687 C46.5150177,44.3710898 45.0603289,44.9275872 43.7031421,44.4198608 C41.6673619,43.6582713 36.7452711,40.1731208 34.9834429,38.6303861 C33.2216148,37.0876514 31.8462413,36.550946 30.6362502,39.9469878 C29.8295894,42.2110156 30.0307558,58.72838 31.2397495,89.499081 C31.2397495,93.8024748 30.6816126,96.2925207 29.5653389,96.9692188 C28.4490653,97.6459168 25.5881259,97.8753692 20.9825208,97.6575759 L-5.68434189e-14,97.6575759" id="Path-8" transform="translate(29.565339, 48.868560) scale(-1, 1) translate(-29.565339, -48.868560) "></path>
                    <path d="M58.6905665,15.7928929 C65.4134078,15.7928929 71.3266204,6.72411082 71.3266204,4.60559228e-15 C71.3266204,-4.25160472e-14 62.830342,2.45501001e-14 60.1116075,4.60559228e-15 C53.7128785,-4.51460922e-14 46.4778909,-6.80005751e-14 46.4778909,4.16153387e-15 C46.4778909,10.1400161 51.9677252,15.7928929 58.6905665,15.7928929 Z" id="Oval-3"></path>
                    <path d="M25.5145758,5.44934779 C31.2033304,13.7662072 32.0134744,24.2326167 27.9450077,36.8485763" id="Path-9" stroke-dasharray="4,2"></path>
                    <path d="M86.8350905,5.53412712 C92.5238451,13.8509866 93.333989,24.3173961 89.2655224,36.9333556" id="Path-9" stroke-dasharray="4,2" transform="translate(89.322627, 21.233741) scale(-1, 1) translate(-89.322627, -21.233741) "></path>
                    <path d="M29.3253359,87.9926212 L90.1892407,87.9926212" id="Line" stroke-linecap="square" stroke-dasharray="4"></path>
                    <path d="M1.65992468,28.2240483 L17.152555,42.6127788" id="Line" stroke-linecap="square" stroke-dasharray="4"></path>
                    <path d="M101.255405,28.2240483 L116.748036,42.6127788" id="Line" stroke-linecap="square" stroke-dasharray="4" transform="translate(109.001720, 35.418414) scale(-1, 1) translate(-109.001720, -35.418414) "></path>
                    <path d="M90.1892407,69.176589 L100.148789,69.176589" id="Line" stroke-linecap="square"></path>
                    <polygon id="Path-10" points="96.2756312 69.1160276 101.187696 64.1958746 117.879668 64.1958746 117.879668 75.2820815 101.583807 75.2820815"></polygon>
                    <ellipse id="Oval-4" cx="102.362022" cy="69.176589" rx="1.65992468" ry="1.66023814"></ellipse>
                </g>
                <path d="M34.3283582,155.721393 L103.9801,155.721393" id="Line" stroke="#979797" stroke-width="7" stroke-linecap="square"></path>
                <path d="M53.2338308,177.114428 L85.0746269,177.114428" id="Line" stroke="#D7D9D9" stroke-width="4" stroke-linecap="square"></path>
                <path d="M54.2288557,194.029851 L84.723568,194.029851" id="Line" stroke="#979797" stroke-width="4" stroke-linecap="square"></path>
            </g>
            <g id="Group" transform="translate(153.565506, 51.741294)">
                <rect id="Rectangle" fill="#F8F8F8" x="0" y="0" width="139.303483" height="138.308458"></rect>
                <g id="t-shirt" transform="translate(9.950249, 19.900498)" stroke="#979797">
                    <path d="M58.6506719,-5.68434189e-14 C59.9411041,-5.68434189e-14 68.3114808,-5.68434189e-14 83.7618021,-5.68434189e-14 C85.3256214,0.165125084 87.1673281,0.953789745 89.2869221,2.36599398 C91.406516,3.77819822 100.240408,11.9577302 115.788597,26.9045899 C117.117099,28.0764445 117.78135,29.4639023 117.78135,31.0669633 C117.78135,31.9186904 116.894161,32.8805944 115.788597,34.2293848 C114.616744,35.6590487 111.593172,38.4993767 106.71788,42.7503687 C105.16569,44.3710898 103.711001,44.9275872 102.353814,44.4198608 C100.318034,43.6582713 95.3959429,40.1731208 93.6341148,38.6303861 C91.8722867,37.0876514 90.4969132,36.550946 89.2869221,39.9469878 C88.4802613,42.2110156 88.6814277,58.72838 89.8904213,89.499081 C89.8904213,93.8024748 89.3322845,96.2925207 88.2160108,96.9692188 C87.0997371,97.6459168 84.2387978,97.8753692 79.6331927,97.6575759 L58.6506719,97.6575759" id="Path-8"></path>
                    <path d="M-5.68434189e-14,-5.68434189e-14 C1.29043222,-5.68434189e-14 9.66080895,-5.68434189e-14 25.1111302,-5.68434189e-14 C26.6749495,0.165125084 28.5166562,0.953789745 30.6362502,2.36599398 C32.7558442,3.77819822 41.5897359,11.9577302 57.1379253,26.9045899 C58.466427,28.0764445 59.1306779,29.4639023 59.1306779,31.0669633 C59.1306779,31.9186904 58.2434889,32.8805944 57.1379253,34.2293848 C55.9660721,35.6590487 52.9424999,38.4993767 48.0672086,42.7503687 C46.5150177,44.3710898 45.0603289,44.9275872 43.7031421,44.4198608 C41.6673619,43.6582713 36.7452711,40.1731208 34.9834429,38.6303861 C33.2216148,37.0876514 31.8462413,36.550946 30.6362502,39.9469878 C29.8295894,42.2110156 30.0307558,58.72838 31.2397495,89.499081 C31.2397495,93.8024748 30.6816126,96.2925207 29.5653389,96.9692188 C28.4490653,97.6459168 25.5881259,97.8753692 20.9825208,97.6575759 L-5.68434189e-14,97.6575759" id="Path-8" transform="translate(29.565339, 48.868560) scale(-1, 1) translate(-29.565339, -48.868560) "></path>
                    <path d="M58.6905665,15.7928929 C65.4134078,15.7928929 71.3266204,6.72411082 71.3266204,4.60559228e-15 C71.3266204,-4.25160472e-14 62.830342,2.45501001e-14 60.1116075,4.60559228e-15 C53.7128785,-4.51460922e-14 46.4778909,-6.80005751e-14 46.4778909,4.16153387e-15 C46.4778909,10.1400161 51.9677252,15.7928929 58.6905665,15.7928929 Z" id="Oval-3"></path>
                    <path d="M25.5145758,5.44934779 C31.2033304,13.7662072 32.0134744,24.2326167 27.9450077,36.8485763" id="Path-9" stroke-dasharray="4,2"></path>
                    <path d="M86.8350905,5.53412712 C92.5238451,13.8509866 93.333989,24.3173961 89.2655224,36.9333556" id="Path-9" stroke-dasharray="4,2" transform="translate(89.322627, 21.233741) scale(-1, 1) translate(-89.322627, -21.233741) "></path>
                    <path d="M29.3253359,87.9926212 L90.1892407,87.9926212" id="Line" stroke-linecap="square" stroke-dasharray="4"></path>
                    <path d="M1.65992468,28.2240483 L17.152555,42.6127788" id="Line" stroke-linecap="square" stroke-dasharray="4"></path>
                    <path d="M101.255405,28.2240483 L116.748036,42.6127788" id="Line" stroke-linecap="square" stroke-dasharray="4" transform="translate(109.001720, 35.418414) scale(-1, 1) translate(-109.001720, -35.418414) "></path>
                    <path d="M90.1892407,69.176589 L100.148789,69.176589" id="Line" stroke-linecap="square"></path>
                    <polygon id="Path-10" points="96.2756312 69.1160276 101.187696 64.1958746 117.879668 64.1958746 117.879668 75.2820815 101.583807 75.2820815"></polygon>
                    <ellipse id="Oval-4" cx="102.362022" cy="69.176589" rx="1.65992468" ry="1.66023814"></ellipse>
                </g>
                <path d="M34.3283582,155.721393 L103.9801,155.721393" id="Line" stroke="#979797" stroke-width="7" stroke-linecap="square"></path>
                <path d="M53.2338308,177.114428 L85.0746269,177.114428" id="Line" stroke="#D7D9D9" stroke-width="4" stroke-linecap="square"></path>
                <path d="M54.2288557,194.029851 L84.723568,194.029851" id="Line" stroke="#979797" stroke-width="4" stroke-linecap="square"></path>
            </g>
            <rect id="Rectangle-2" fill="#4990E2" x="100.497512" y="65.6716418" width="30.8457711" height="16.9154229"></rect>
        </g>
    </g>
</svg>