<?xml version="1.0" encoding="UTF-8"?>
<svg width="600px" height="386px" viewBox="0 0 600 386" version="1.1" xmlns="http://www.w3.org/2000/svg" xmlns:xlink="http://www.w3.org/1999/xlink">
    <!-- Generator: Sketch 44.1 (41455) - http://www.bohemiancoding.com/sketch -->
    <title>services18</title>
    <desc>Created with Sketch.</desc>
    <defs>
        <rect id="path-1" x="0" y="0.733360988" width="181.420337" height="195.504189"></rect>
        <rect id="path-2" x="13.2861571" y="36.8579029" width="17.6260868" height="1.63202344" rx="0.816011722"></rect>
        <rect id="path-3" x="0.487779891" y="0.070183012" width="181.420337" height="195.504189"></rect>
        <rect id="path-4" x="0" y="0.733360988" width="181.420337" height="195.504189"></rect>
    </defs>
    <g id="Services" stroke="none" stroke-width="1" fill="none" fill-rule="evenodd">
        <g id="18">
            <rect id="Rectangle-16" fill="#F8F8F8" x="0" y="0" width="600" height="385.210084"></rect>
            <g id="Group-26" transform="translate(29.243697, 108.022527)">
                <g id="Group-23">
                    <g id="Group-22" transform="translate(0.965070, 0.109174)">
                        <g id="Rectangle-15">
                            <use fill="#FFFFFF" fill-rule="evenodd" xlink:href="#path-1"></use>
                            <rect stroke-opacity="0.337720788" stroke="#979797" stroke-width="1" x="0.5" y="1.23336099" width="180.420337" height="194.504189"></rect>
                        </g>
                        <g id="Group-17" transform="translate(20.804949, 33.005849)">
                            <rect id="Rectangle-3" stroke="#979797" x="1.07263345" y="0.883703451" width="42.2640311" height="31.6404689" rx="2"></rect>
                            <path d="M1.37381921,21.4824465 L43.0354788,21.4824465" id="Line" stroke="#979797" stroke-linecap="square"></path>
                            <path d="M16.8494502,31.2372912 L16.8494502,36.1333615" id="Line" stroke="#979797" stroke-linecap="square"></path>
                            <path d="M27.6163187,31.2372912 L27.6163187,36.1333615" id="Line" stroke="#979797" stroke-linecap="square"></path>
                            <g id="Rectangle-4">
                                <use fill="#D8D8D8" fill-rule="evenodd" xlink:href="#path-2"></use>
                                <rect stroke="#979797" stroke-width="1" x="13.7861571" y="37.3579029" width="16.6260868" height="1" rx="0.5"></rect>
                            </g>
                            <ellipse id="Oval" fill="#D8D8D8" cx="22.5630253" cy="29.0917501" rx="1" ry="1"></ellipse>
                        </g>
                        <path d="M26.469417,90.3834688 L74.6454452,90.3834688" id="Line" stroke="#4990E2" stroke-width="7" stroke-linecap="square"></path>
                        <path d="M25.4291696,115.019759 L117.148916,115.019759" id="Line" stroke="#D7D9D9" stroke-width="4" stroke-linecap="square"></path>
                        <path d="M25.4291696,125.430239 L117.148916,125.430239" id="Line" stroke="#D7D9D9" stroke-width="4" stroke-linecap="square"></path>
                        <path d="M25.4291696,136.881767 L117.148916,136.881767" id="Line" stroke="#D7D9D9" stroke-width="4" stroke-linecap="square"></path>
                        <path d="M25.1490221,158.755657 L25.7814925,158.755657 C26.1032773,158.755657 26.3487733,158.687643 26.5179877,158.551612 C26.6872021,158.415581 26.7718081,158.214314 26.7718081,157.947804 C26.7718081,157.681295 26.6872021,157.495296 26.5179877,157.389802 C26.3487733,157.284309 26.1032773,157.231563 25.7814925,157.231563 L25.1490221,157.231563 L25.1490221,158.755657 Z M26.8633498,161.687249 L25.8231024,159.730078 L25.1490221,159.730078 L25.1490221,161.687249 L23.9256911,161.687249 L23.9256911,156.257142 L25.8813563,156.257142 C26.169853,156.257142 26.4403146,156.284903 26.6927493,156.340426 C26.9451839,156.395949 27.1657142,156.488948 27.3543466,156.619427 C27.5429791,156.749906 27.6927732,156.923412 27.8037335,157.139951 C27.9146938,157.35649 27.9701731,157.625772 27.9701731,157.947804 C27.9701731,158.347569 27.8827932,158.676536 27.7080308,158.934718 C27.5332683,159.192899 27.2988682,159.385838 27.0048235,159.51354 L28.2364765,161.687249 L26.8633498,161.687249 Z M29.0520305,156.257142 L32.4473981,156.257142 L32.4473981,157.289862 L30.2753614,157.289862 L30.2753614,158.38088 L32.1228409,158.38088 L32.1228409,159.405271 L30.2753614,159.405271 L30.2753614,160.654529 L32.5306179,160.654529 L32.5306179,161.687249 L29.0520305,161.687249 L29.0520305,156.257142 Z M35.9093416,159.438585 L35.7845119,158.938882 C35.7068397,158.66682 35.6319426,158.378106 35.5598184,158.07273 C35.4876942,157.767354 35.4155711,157.473088 35.343447,157.189921 L35.310159,157.189921 C35.2435829,157.47864 35.1756207,157.774295 35.1062705,158.076894 C35.0369204,158.379494 34.9634103,158.66682 34.8857381,158.938882 L34.7525864,159.438585 L35.9093416,159.438585 Z M36.1590009,160.396349 L34.502927,160.396349 L34.1700478,161.687249 L32.9217509,161.687249 L34.6194347,156.257142 L36.0924251,156.257142 L37.7901089,161.687249 L36.4918801,161.687249 L36.1590009,160.396349 Z M38.3809695,156.257142 L39.9122137,156.257142 C40.3283148,156.257142 40.7028001,156.309888 41.0356809,156.415381 C41.3685618,156.520875 41.6542802,156.683277 41.8928448,156.902592 C42.1314094,157.121907 42.3144912,157.400905 42.4420955,157.739595 C42.5696998,158.078284 42.633501,158.480818 42.633501,158.94721 C42.633501,159.413602 42.5696998,159.818913 42.4420955,160.163154 C42.3144912,160.507396 42.1341834,160.791946 41.9011668,161.016814 C41.6681502,161.241681 41.3893667,161.409635 41.0648079,161.520681 C40.740249,161.631727 40.3782466,161.687249 39.9787895,161.687249 L38.3809695,161.687249 L38.3809695,156.257142 Z M39.8373159,160.696171 C40.0703325,160.696171 40.2811539,160.665634 40.4697863,160.604559 C40.6584188,160.543484 40.8193088,160.444932 40.9524611,160.308901 C41.0856135,160.17287 41.1896372,159.993812 41.2645354,159.77172 C41.3394336,159.549629 41.3768821,159.274795 41.3768821,158.94721 C41.3768821,158.625178 41.3394336,158.354508 41.2645354,158.135193 C41.1896372,157.915878 41.0856135,157.740983 40.9524611,157.610505 C40.8193088,157.480026 40.6584188,157.387027 40.4697863,157.331504 C40.2811539,157.275981 40.0703325,157.24822 39.8373159,157.24822 L39.6043005,157.24822 L39.6043005,160.696171 L39.8373159,160.696171 Z M45.3963982,156.257142 L46.694627,156.257142 L47.6017228,158.697359 L47.92628,159.646795 L47.9595679,159.646795 L48.2841251,158.697359 L49.1662549,156.257142 L50.4561617,156.257142 L50.4561617,161.687249 L49.3160505,161.687249 L49.3160505,159.696765 C49.3160505,159.56351 49.3215985,159.416377 49.3326945,159.25536 C49.3437905,159.094344 49.3576604,158.931942 49.3743044,158.76815 C49.3909484,158.604358 49.4075922,158.443344 49.4242363,158.285104 C49.4408803,158.126864 49.4575241,157.981118 49.4741682,157.847864 L49.4408802,157.847864 L48.9914933,159.10545 L48.1592954,161.212531 L47.6682986,161.212531 L46.8361007,159.10545 L46.4033577,157.847864 L46.3700698,157.847864 C46.3867138,157.981118 46.4033576,158.126864 46.4200017,158.285104 C46.4366457,158.443344 46.4519025,158.604358 46.4657726,158.76815 C46.4796426,158.931942 46.4921254,159.094344 46.5032215,159.25536 C46.5143175,159.416377 46.5198654,159.56351 46.5198654,159.696765 L46.5198654,161.687249 L45.3963982,161.687249 L45.3963982,156.257142 Z M53.9430712,161.787189 C53.5769022,161.787189 53.2426394,161.721951 52.9402726,161.591472 C52.6379059,161.460994 52.3785401,161.273607 52.1621675,161.029306 C51.945795,160.785006 51.7779701,160.487963 51.6586878,160.138169 C51.5394055,159.788375 51.4797652,159.391393 51.4797652,158.94721 C51.4797652,158.503028 51.5394055,158.107433 51.6586878,157.760416 C51.7779701,157.413398 51.945795,157.121907 52.1621675,156.885935 C52.3785401,156.649963 52.6379059,156.469517 52.9402726,156.34459 C53.2426394,156.219664 53.5769022,156.157202 53.9430712,156.157202 C54.3092401,156.157202 54.6435029,156.219664 54.9458697,156.34459 C55.2482364,156.469517 55.5076022,156.651351 55.7239748,156.890099 C55.9403473,157.128848 56.1081722,157.421726 56.2274545,157.768744 C56.3467368,158.115762 56.4063771,158.50858 56.4063771,158.94721 C56.4063771,159.391393 56.3467368,159.788375 56.2274545,160.138169 C56.1081722,160.487963 55.9403473,160.785006 55.7239748,161.029306 C55.5076022,161.273607 55.2482364,161.460994 54.9458697,161.591472 C54.6435029,161.721951 54.3092401,161.787189 53.9430712,161.787189 Z M53.9430712,160.729484 C54.3147881,160.729484 54.6088284,160.569859 54.825201,160.250602 C55.0415735,159.931346 55.1497582,159.496886 55.1497582,158.94721 C55.1497582,158.403086 55.0415735,157.978343 54.825201,157.672967 C54.6088284,157.367592 54.3147881,157.214906 53.9430712,157.214906 C53.5713542,157.214906 53.2773139,157.367592 53.0609413,157.672967 C52.8445688,157.978343 52.7363841,158.403086 52.7363841,158.94721 C52.7363841,159.496886 52.8445688,159.931346 53.0609413,160.250602 C53.2773139,160.569859 53.5713542,160.729484 53.9430712,160.729484 Z M58.6533116,158.755657 L59.285782,158.755657 C59.6075668,158.755657 59.8530628,158.687643 60.0222772,158.551612 C60.1914916,158.415581 60.2760976,158.214314 60.2760976,157.947804 C60.2760976,157.681295 60.1914916,157.495296 60.0222772,157.389802 C59.8530628,157.284309 59.6075668,157.231563 59.285782,157.231563 L58.6533116,157.231563 L58.6533116,158.755657 Z M60.3676393,161.687249 L59.3273919,159.730078 L58.6533116,159.730078 L58.6533116,161.687249 L57.4299806,161.687249 L57.4299806,156.257142 L59.3856457,156.257142 C59.6741425,156.257142 59.9446041,156.284903 60.1970387,156.340426 C60.4494734,156.395949 60.6700036,156.488948 60.8586361,156.619427 C61.0472686,156.749906 61.1970627,156.923412 61.308023,157.139951 C61.4189833,157.35649 61.4744626,157.625772 61.4744626,157.947804 C61.4744626,158.347569 61.3870827,158.676536 61.2123202,158.934718 C61.0375578,159.192899 60.8031577,159.385838 60.509113,159.51354 L61.7407659,161.687249 L60.3676393,161.687249 Z M62.5563199,156.257142 L65.9516876,156.257142 L65.9516876,157.289862 L63.7796509,157.289862 L63.7796509,158.38088 L65.6271304,158.38088 L65.6271304,159.405271 L63.7796509,159.405271 L63.7796509,160.654529 L66.0349074,160.654529 L66.0349074,161.687249 L62.5563199,161.687249 L62.5563199,156.257142 Z" id="READ-MORE" fill="#4A4A4A"></path>
                    </g>
                </g>
                <g id="Group-25" transform="translate(359.210553, 1.080039)">
                    <g id="Rectangle-15">
                        <use fill="#FFFFFF" fill-rule="evenodd" xlink:href="#path-3"></use>
                        <rect stroke-opacity="0.337720788" stroke="#979797" stroke-width="1" x="0.987779891" y="0.570183012" width="180.420337" height="194.504189"></rect>
                    </g>
                    <path d="M26.9571969,89.7202909 L75.1332251,89.7202909" id="Line" stroke="#4990E2" stroke-width="7" stroke-linecap="square"></path>
                    <path d="M25.9169494,114.356581 L117.636695,114.356581" id="Line" stroke="#D7D9D9" stroke-width="4" stroke-linecap="square"></path>
                    <path d="M25.9169494,124.767061 L117.636695,124.767061" id="Line" stroke="#D7D9D9" stroke-width="4" stroke-linecap="square"></path>
                    <path d="M25.9169494,136.21859 L117.636695,136.21859" id="Line" stroke="#D7D9D9" stroke-width="4" stroke-linecap="square"></path>
                    <path d="M25.636802,157.784792 L26.2692724,157.784792 C26.5910572,157.784792 26.8365532,157.716778 27.0057676,157.580747 C27.174982,157.444716 27.259588,157.243449 27.259588,156.976939 C27.259588,156.71043 27.174982,156.524431 27.0057676,156.418937 C26.8365532,156.313444 26.5910572,156.260698 26.2692724,156.260698 L25.636802,156.260698 L25.636802,157.784792 Z M27.3511297,160.716384 L26.3108823,158.759213 L25.636802,158.759213 L25.636802,160.716384 L24.413471,160.716384 L24.413471,155.286277 L26.3691362,155.286277 C26.6576329,155.286277 26.9280945,155.314038 27.1805292,155.369561 C27.4329638,155.425084 27.653494,155.518083 27.8421265,155.648562 C28.030759,155.779041 28.1805531,155.952547 28.2915134,156.169086 C28.4024737,156.385625 28.457953,156.654907 28.457953,156.976939 C28.457953,157.376704 28.3705731,157.705671 28.1958107,157.963853 C28.0210482,158.222034 27.7866481,158.414973 27.4926034,158.542675 L28.7242564,160.716384 L27.3511297,160.716384 Z M29.5398103,155.286277 L32.935178,155.286277 L32.935178,156.318997 L30.7631413,156.318997 L30.7631413,157.410015 L32.6106208,157.410015 L32.6106208,158.434406 L30.7631413,158.434406 L30.7631413,159.683664 L33.0183978,159.683664 L33.0183978,160.716384 L29.5398103,160.716384 L29.5398103,155.286277 Z M36.3971215,158.46772 L36.2722918,157.968017 C36.1946196,157.695955 36.1197225,157.407241 36.0475983,157.101865 C35.9754741,156.796489 35.903351,156.502223 35.8312268,156.219056 L35.7979389,156.219056 C35.7313628,156.507775 35.6634006,156.80343 35.5940504,157.106029 C35.5247003,157.408629 35.4511902,157.695955 35.373518,157.968017 L35.2403663,158.46772 L36.3971215,158.46772 Z M36.6467808,159.425484 L34.9907069,159.425484 L34.6578277,160.716384 L33.4095308,160.716384 L35.1072146,155.286277 L36.580205,155.286277 L38.2778888,160.716384 L36.97966,160.716384 L36.6467808,159.425484 Z M38.8687494,155.286277 L40.3999936,155.286277 C40.8160947,155.286277 41.19058,155.339023 41.5234608,155.444516 C41.8563417,155.55001 42.1420601,155.712412 42.3806247,155.931727 C42.6191893,156.151042 42.802271,156.43004 42.9298754,156.76873 C43.0574797,157.107419 43.1212809,157.509953 43.1212809,157.976345 C43.1212809,158.442737 43.0574797,158.848048 42.9298754,159.192289 C42.802271,159.536531 42.6219633,159.821081 42.3889467,160.045949 C42.1559301,160.270816 41.8771466,160.43877 41.5525878,160.549816 C41.2280289,160.660862 40.8660264,160.716384 40.4665694,160.716384 L38.8687494,160.716384 L38.8687494,155.286277 Z M40.3250958,159.725306 C40.5581124,159.725306 40.7689337,159.694769 40.9575662,159.633694 C41.1461987,159.572619 41.3070887,159.474067 41.440241,159.338036 C41.5733934,159.202005 41.6774171,159.022947 41.7523153,158.800855 C41.8272135,158.578764 41.864662,158.30393 41.864662,157.976345 C41.864662,157.654313 41.8272135,157.383643 41.7523153,157.164328 C41.6774171,156.945013 41.5733934,156.770118 41.440241,156.63964 C41.3070887,156.509161 41.1461987,156.416162 40.9575662,156.360639 C40.7689337,156.305116 40.5581124,156.277355 40.3250958,156.277355 L40.0920804,156.277355 L40.0920804,159.725306 L40.3250958,159.725306 Z M45.8841781,155.286277 L47.1824069,155.286277 L48.0895027,157.726494 L48.4140599,158.67593 L48.4473478,158.67593 L48.771905,157.726494 L49.6540348,155.286277 L50.9439416,155.286277 L50.9439416,160.716384 L49.8038304,160.716384 L49.8038304,158.7259 C49.8038304,158.592645 49.8093784,158.445512 49.8204744,158.284495 C49.8315704,158.123479 49.8454403,157.961077 49.8620843,157.797285 C49.8787283,157.633493 49.8953721,157.472479 49.9120162,157.314239 C49.9286602,157.155999 49.945304,157.010253 49.961948,156.876999 L49.9286601,156.876999 L49.4792732,158.134585 L48.6470753,160.241666 L48.1560785,160.241666 L47.3238805,158.134585 L46.8911376,156.876999 L46.8578497,156.876999 C46.8744937,157.010253 46.8911375,157.155999 46.9077816,157.314239 C46.9244256,157.472479 46.9396824,157.633493 46.9535525,157.797285 C46.9674225,157.961077 46.9799053,158.123479 46.9910014,158.284495 C47.0020974,158.445512 47.0076453,158.592645 47.0076453,158.7259 L47.0076453,160.716384 L45.8841781,160.716384 L45.8841781,155.286277 Z M54.430851,160.816324 C54.0646821,160.816324 53.7304193,160.751086 53.4280525,160.620607 C53.1256857,160.490129 52.86632,160.302742 52.6499474,160.058441 C52.4335749,159.814141 52.26575,159.517098 52.1464677,159.167304 C52.0271854,158.81751 51.9675451,158.420528 51.9675451,157.976345 C51.9675451,157.532163 52.0271854,157.136568 52.1464677,156.789551 C52.26575,156.442533 52.4335749,156.151042 52.6499474,155.91507 C52.86632,155.679098 53.1256857,155.498652 53.4280525,155.373725 C53.7304193,155.248799 54.0646821,155.186337 54.430851,155.186337 C54.79702,155.186337 55.1312828,155.248799 55.4336496,155.373725 C55.7360163,155.498652 55.9953821,155.680486 56.2117547,155.919234 C56.4281272,156.157983 56.5959521,156.450861 56.7152344,156.797879 C56.8345167,157.144897 56.894157,157.537715 56.894157,157.976345 C56.894157,158.420528 56.8345167,158.81751 56.7152344,159.167304 C56.5959521,159.517098 56.4281272,159.814141 56.2117547,160.058441 C55.9953821,160.302742 55.7360163,160.490129 55.4336496,160.620607 C55.1312828,160.751086 54.79702,160.816324 54.430851,160.816324 Z M54.430851,159.758619 C54.802568,159.758619 55.0966083,159.598994 55.3129809,159.279737 C55.5293534,158.960481 55.6375381,158.526021 55.6375381,157.976345 C55.6375381,157.432221 55.5293534,157.007478 55.3129809,156.702102 C55.0966083,156.396727 54.802568,156.244041 54.430851,156.244041 C54.0591341,156.244041 53.7650938,156.396727 53.5487212,156.702102 C53.3323487,157.007478 53.224164,157.432221 53.224164,157.976345 C53.224164,158.526021 53.3323487,158.960481 53.5487212,159.279737 C53.7650938,159.598994 54.0591341,159.758619 54.430851,159.758619 Z M59.1410914,157.784792 L59.7735619,157.784792 C60.0953467,157.784792 60.3408426,157.716778 60.5100571,157.580747 C60.6792715,157.444716 60.7638774,157.243449 60.7638774,156.976939 C60.7638774,156.71043 60.6792715,156.524431 60.5100571,156.418937 C60.3408426,156.313444 60.0953467,156.260698 59.7735619,156.260698 L59.1410914,156.260698 L59.1410914,157.784792 Z M60.8554192,160.716384 L59.8151718,158.759213 L59.1410914,158.759213 L59.1410914,160.716384 L57.9177605,160.716384 L57.9177605,155.286277 L59.8734256,155.286277 C60.1619224,155.286277 60.432384,155.314038 60.6848186,155.369561 C60.9372533,155.425084 61.1577835,155.518083 61.346416,155.648562 C61.5350485,155.779041 61.6848426,155.952547 61.7958029,156.169086 C61.9067632,156.385625 61.9622425,156.654907 61.9622425,156.976939 C61.9622425,157.376704 61.8748626,157.705671 61.7001001,157.963853 C61.5253377,158.222034 61.2909376,158.414973 60.9968929,158.542675 L62.2285458,160.716384 L60.8554192,160.716384 Z M63.0440998,155.286277 L66.4394675,155.286277 L66.4394675,156.318997 L64.2674308,156.318997 L64.2674308,157.410015 L66.1149103,157.410015 L66.1149103,158.434406 L64.2674308,158.434406 L64.2674308,159.683664 L66.5226873,159.683664 L66.5226873,160.716384 L63.0440998,160.716384 L63.0440998,155.286277 Z" id="READ-MORE" fill="#4A4A4A"></path>
                    <g id="icon-play" transform="translate(24.413471, 31.301623)" stroke="#979797">
                        <rect id="Rectangle-5" x="0.5" y="0.5" width="41.4545957" height="35.2507789"></rect>
                        <polygon id="Triangle" transform="translate(21.227298, 15.225327) rotate(90.000000) translate(-21.227298, -15.225327) " points="21.2272979 10.1502181 27.81508 20.3004362 14.6395158 20.3004362"></polygon>
                        <path d="M41.7226199,29.7256387 L12.4435884,29.7256387" id="Line" stroke-linecap="square"></path>
                        <path d="M10.9796368,28.2756076 L10.9796368,31.1756699" id="Line" stroke-linecap="square"></path>
                        <path d="M8.05173367,29.7256387 L0.731975789,29.7256387" id="Line" stroke-linecap="square"></path>
                    </g>
                </g>
                <g id="Group-24" transform="translate(180.144632, 0.000000)">
                    <g id="Group-22" transform="translate(0.167838, 0.109174)">
                        <g id="Rectangle-15">
                            <use fill="#FFFFFF" fill-rule="evenodd" xlink:href="#path-4"></use>
                            <rect stroke-opacity="0.337720788" stroke="#979797" stroke-width="1" x="0.5" y="1.23336099" width="180.420337" height="194.504189"></rect>
                        </g>
                        <path d="M26.469417,90.3834688 L74.6454452,90.3834688" id="Line" stroke="#4990E2" stroke-width="7" stroke-linecap="square"></path>
                        <path d="M25.4291696,115.019759 L117.148916,115.019759" id="Line" stroke="#D7D9D9" stroke-width="4" stroke-linecap="square"></path>
                        <path d="M25.4291696,125.430239 L117.148916,125.430239" id="Line" stroke="#D7D9D9" stroke-width="4" stroke-linecap="square"></path>
                        <path d="M25.4291696,136.881767 L117.148916,136.881767" id="Line" stroke="#D7D9D9" stroke-width="4" stroke-linecap="square"></path>
                        <path d="M25.1490221,158.755657 L25.7814925,158.755657 C26.1032773,158.755657 26.3487733,158.687643 26.5179877,158.551612 C26.6872021,158.415581 26.7718081,158.214314 26.7718081,157.947804 C26.7718081,157.681295 26.6872021,157.495296 26.5179877,157.389802 C26.3487733,157.284309 26.1032773,157.231563 25.7814925,157.231563 L25.1490221,157.231563 L25.1490221,158.755657 Z M26.8633498,161.687249 L25.8231024,159.730078 L25.1490221,159.730078 L25.1490221,161.687249 L23.9256911,161.687249 L23.9256911,156.257142 L25.8813563,156.257142 C26.169853,156.257142 26.4403146,156.284903 26.6927493,156.340426 C26.9451839,156.395949 27.1657142,156.488948 27.3543466,156.619427 C27.5429791,156.749906 27.6927732,156.923412 27.8037335,157.139951 C27.9146938,157.35649 27.9701731,157.625772 27.9701731,157.947804 C27.9701731,158.347569 27.8827932,158.676536 27.7080308,158.934718 C27.5332683,159.192899 27.2988682,159.385838 27.0048235,159.51354 L28.2364765,161.687249 L26.8633498,161.687249 Z M29.0520305,156.257142 L32.4473981,156.257142 L32.4473981,157.289862 L30.2753614,157.289862 L30.2753614,158.38088 L32.1228409,158.38088 L32.1228409,159.405271 L30.2753614,159.405271 L30.2753614,160.654529 L32.5306179,160.654529 L32.5306179,161.687249 L29.0520305,161.687249 L29.0520305,156.257142 Z M35.9093416,159.438585 L35.7845119,158.938882 C35.7068397,158.66682 35.6319426,158.378106 35.5598184,158.07273 C35.4876942,157.767354 35.4155711,157.473088 35.343447,157.189921 L35.310159,157.189921 C35.2435829,157.47864 35.1756207,157.774295 35.1062705,158.076894 C35.0369204,158.379494 34.9634103,158.66682 34.8857381,158.938882 L34.7525864,159.438585 L35.9093416,159.438585 Z M36.1590009,160.396349 L34.502927,160.396349 L34.1700478,161.687249 L32.9217509,161.687249 L34.6194347,156.257142 L36.0924251,156.257142 L37.7901089,161.687249 L36.4918801,161.687249 L36.1590009,160.396349 Z M38.3809695,156.257142 L39.9122137,156.257142 C40.3283148,156.257142 40.7028001,156.309888 41.0356809,156.415381 C41.3685618,156.520875 41.6542802,156.683277 41.8928448,156.902592 C42.1314094,157.121907 42.3144912,157.400905 42.4420955,157.739595 C42.5696998,158.078284 42.633501,158.480818 42.633501,158.94721 C42.633501,159.413602 42.5696998,159.818913 42.4420955,160.163154 C42.3144912,160.507396 42.1341834,160.791946 41.9011668,161.016814 C41.6681502,161.241681 41.3893667,161.409635 41.0648079,161.520681 C40.740249,161.631727 40.3782466,161.687249 39.9787895,161.687249 L38.3809695,161.687249 L38.3809695,156.257142 Z M39.8373159,160.696171 C40.0703325,160.696171 40.2811539,160.665634 40.4697863,160.604559 C40.6584188,160.543484 40.8193088,160.444932 40.9524611,160.308901 C41.0856135,160.17287 41.1896372,159.993812 41.2645354,159.77172 C41.3394336,159.549629 41.3768821,159.274795 41.3768821,158.94721 C41.3768821,158.625178 41.3394336,158.354508 41.2645354,158.135193 C41.1896372,157.915878 41.0856135,157.740983 40.9524611,157.610505 C40.8193088,157.480026 40.6584188,157.387027 40.4697863,157.331504 C40.2811539,157.275981 40.0703325,157.24822 39.8373159,157.24822 L39.6043005,157.24822 L39.6043005,160.696171 L39.8373159,160.696171 Z M45.3963982,156.257142 L46.694627,156.257142 L47.6017228,158.697359 L47.92628,159.646795 L47.9595679,159.646795 L48.2841251,158.697359 L49.1662549,156.257142 L50.4561617,156.257142 L50.4561617,161.687249 L49.3160505,161.687249 L49.3160505,159.696765 C49.3160505,159.56351 49.3215985,159.416377 49.3326945,159.25536 C49.3437905,159.094344 49.3576604,158.931942 49.3743044,158.76815 C49.3909484,158.604358 49.4075922,158.443344 49.4242363,158.285104 C49.4408803,158.126864 49.4575241,157.981118 49.4741682,157.847864 L49.4408802,157.847864 L48.9914933,159.10545 L48.1592954,161.212531 L47.6682986,161.212531 L46.8361007,159.10545 L46.4033577,157.847864 L46.3700698,157.847864 C46.3867138,157.981118 46.4033576,158.126864 46.4200017,158.285104 C46.4366457,158.443344 46.4519025,158.604358 46.4657726,158.76815 C46.4796426,158.931942 46.4921254,159.094344 46.5032215,159.25536 C46.5143175,159.416377 46.5198654,159.56351 46.5198654,159.696765 L46.5198654,161.687249 L45.3963982,161.687249 L45.3963982,156.257142 Z M53.9430712,161.787189 C53.5769022,161.787189 53.2426394,161.721951 52.9402726,161.591472 C52.6379059,161.460994 52.3785401,161.273607 52.1621675,161.029306 C51.945795,160.785006 51.7779701,160.487963 51.6586878,160.138169 C51.5394055,159.788375 51.4797652,159.391393 51.4797652,158.94721 C51.4797652,158.503028 51.5394055,158.107433 51.6586878,157.760416 C51.7779701,157.413398 51.945795,157.121907 52.1621675,156.885935 C52.3785401,156.649963 52.6379059,156.469517 52.9402726,156.34459 C53.2426394,156.219664 53.5769022,156.157202 53.9430712,156.157202 C54.3092401,156.157202 54.6435029,156.219664 54.9458697,156.34459 C55.2482364,156.469517 55.5076022,156.651351 55.7239748,156.890099 C55.9403473,157.128848 56.1081722,157.421726 56.2274545,157.768744 C56.3467368,158.115762 56.4063771,158.50858 56.4063771,158.94721 C56.4063771,159.391393 56.3467368,159.788375 56.2274545,160.138169 C56.1081722,160.487963 55.9403473,160.785006 55.7239748,161.029306 C55.5076022,161.273607 55.2482364,161.460994 54.9458697,161.591472 C54.6435029,161.721951 54.3092401,161.787189 53.9430712,161.787189 Z M53.9430712,160.729484 C54.3147881,160.729484 54.6088284,160.569859 54.825201,160.250602 C55.0415735,159.931346 55.1497582,159.496886 55.1497582,158.94721 C55.1497582,158.403086 55.0415735,157.978343 54.825201,157.672967 C54.6088284,157.367592 54.3147881,157.214906 53.9430712,157.214906 C53.5713542,157.214906 53.2773139,157.367592 53.0609413,157.672967 C52.8445688,157.978343 52.7363841,158.403086 52.7363841,158.94721 C52.7363841,159.496886 52.8445688,159.931346 53.0609413,160.250602 C53.2773139,160.569859 53.5713542,160.729484 53.9430712,160.729484 Z M58.6533116,158.755657 L59.285782,158.755657 C59.6075668,158.755657 59.8530628,158.687643 60.0222772,158.551612 C60.1914916,158.415581 60.2760976,158.214314 60.2760976,157.947804 C60.2760976,157.681295 60.1914916,157.495296 60.0222772,157.389802 C59.8530628,157.284309 59.6075668,157.231563 59.285782,157.231563 L58.6533116,157.231563 L58.6533116,158.755657 Z M60.3676393,161.687249 L59.3273919,159.730078 L58.6533116,159.730078 L58.6533116,161.687249 L57.4299806,161.687249 L57.4299806,156.257142 L59.3856457,156.257142 C59.6741425,156.257142 59.9446041,156.284903 60.1970387,156.340426 C60.4494734,156.395949 60.6700036,156.488948 60.8586361,156.619427 C61.0472686,156.749906 61.1970627,156.923412 61.308023,157.139951 C61.4189833,157.35649 61.4744626,157.625772 61.4744626,157.947804 C61.4744626,158.347569 61.3870827,158.676536 61.2123202,158.934718 C61.0375578,159.192899 60.8031577,159.385838 60.509113,159.51354 L61.7407659,161.687249 L60.3676393,161.687249 Z M62.5563199,156.257142 L65.9516876,156.257142 L65.9516876,157.289862 L63.7796509,157.289862 L63.7796509,158.38088 L65.6271304,158.38088 L65.6271304,159.405271 L63.7796509,159.405271 L63.7796509,160.654529 L66.0349074,160.654529 L66.0349074,161.687249 L62.5563199,161.687249 L62.5563199,156.257142 Z" id="READ-MORE" fill="#4A4A4A"></path>
                    </g>
                    <g id="icon-diamant" transform="translate(25.133777, 36.545854)" stroke="#979797">
                        <polygon id="Path-2" points="29.547447 0.94884008 39.0899577 13.2741547 20.2286509 33.9616624 0.132625001 13.4317973 10.6010099 0.853476048"></polygon>
                        <polyline id="Path-3" points="10.8405626 1.12789092 10.8405626 13.9896673 29.8261086 13.9896673 29.8261086 1.31386799"></polyline>
                        <polygon id="Path-4" points="19.7601043 2.15613576 10.5963905 13.3533004 20.350077 34.0038302 30.3855514 13.897589"></polygon>
                        <path d="M1.33086507,13.7371373 L36.7318759,13.7371373" id="Line" stroke-linecap="square"></path>
                    </g>
                </g>
            </g>
            <path d="M35.2903259,56.5939556 C34.6912954,56.5939556 34.1444613,56.4873608 33.6498073,56.274168 C33.1551533,56.0609752 32.7308463,55.7547986 32.3768737,55.355629 C32.0229011,54.9564595 31.7483496,54.4711129 31.5532108,53.8995747 C31.3580721,53.3280365 31.2605042,52.6793957 31.2605042,51.9536329 C31.2605042,51.22787 31.3580721,50.5814972 31.5532108,50.014495 C31.7483496,49.4474928 32.0229011,48.9712181 32.3768737,48.5856566 C32.7308463,48.2000952 33.1551533,47.9052584 33.6498073,47.7011376 C34.1444613,47.4970168 34.6912954,47.394958 35.2903259,47.394958 C35.8893565,47.394958 36.4361905,47.4970168 36.9308446,47.7011376 C37.4254986,47.9052584 37.8498055,48.2023631 38.2037781,48.5924606 C38.5577507,48.9825581 38.8323023,49.4611008 39.027441,50.028103 C39.2225797,50.5951052 39.3201476,51.2369421 39.3201476,51.9536329 C39.3201476,52.6793957 39.2225797,53.3280365 39.027441,53.8995747 C38.8323023,54.4711129 38.5577507,54.9564595 38.2037781,55.355629 C37.8498055,55.7547986 37.4254986,56.0609752 36.9308446,56.274168 C36.4361905,56.4873608 35.8893565,56.5939556 35.2903259,56.5939556 Z M35.2903259,54.8657416 C35.8984327,54.8657416 36.3794652,54.6049245 36.7334378,54.0832825 C37.0874103,53.5616404 37.264394,52.8517643 37.264394,51.9536329 C37.264394,51.0645734 37.0874103,50.3705731 36.7334378,49.8716112 C36.3794652,49.3726493 35.8984327,49.123172 35.2903259,49.123172 C34.6822192,49.123172 34.2011867,49.3726493 33.8472141,49.8716112 C33.4932415,50.3705731 33.3162578,51.0645734 33.3162578,51.9536329 C33.3162578,52.8517643 33.4932415,53.5616404 33.8472141,54.0832825 C34.2011867,54.6049245 34.6822192,54.8657416 35.2903259,54.8657416 Z M40.9402449,47.5582538 L42.9551557,47.5582538 L42.9551557,52.5251682 C42.9551557,53.3960836 43.086759,54.0039008 43.3499694,54.3486382 C43.6131797,54.6933755 43.9943753,54.8657416 44.4935674,54.8657416 C44.9927595,54.8657416 45.3784931,54.6933755 45.6507797,54.3486382 C45.9230663,54.0039008 46.0592076,53.3960836 46.0592076,52.5251682 L46.0592076,47.5582538 L47.9924329,47.5582538 L47.9924329,52.3210484 C47.9924329,53.8088622 47.6951911,54.8929542 47.1006987,55.5733568 C46.5062063,56.2537594 45.6371712,56.5939556 44.4935674,56.5939556 C43.3408874,56.5939556 42.4605072,56.2537594 41.8524005,55.5733568 C41.2442937,54.8929542 40.9402449,53.8088622 40.9402449,52.3210484 L40.9402449,47.5582538 Z M52.0494831,51.6406492 L53.0841671,51.6406492 C53.6105879,51.6406492 54.0122046,51.5295184 54.2890293,51.3072536 C54.565854,51.0849887 54.7042643,50.7561324 54.7042643,50.3206747 C54.7042643,49.885217 54.565854,49.5813084 54.2890293,49.4089397 C54.0122046,49.2365711 53.6105879,49.150388 53.0841671,49.150388 L52.0494831,49.150388 L52.0494831,51.6406492 Z M54.8540212,56.4306598 L53.1522384,53.2327834 L52.0494831,53.2327834 L52.0494831,56.4306598 L50.0481865,56.4306598 L50.0481865,47.5582538 L53.2475382,47.5582538 C53.7195017,47.5582538 54.1619608,47.6036133 54.5749288,47.6943336 C54.9878969,47.785054 55.3486712,47.9370083 55.6572627,48.1502011 C55.9658542,48.363394 56.2109085,48.6468908 56.3924329,49.0007002 C56.5739573,49.3545096 56.6647181,49.7944967 56.6647181,50.3206747 C56.6647181,50.9738612 56.5217698,51.5113712 56.2358689,51.9332209 C55.9499679,52.3550705 55.5665034,52.670319 55.0854637,52.8789758 L57.1003745,56.4306598 L54.8540212,56.4306598 Z M61.8381379,53.9403986 C62.1558056,54.2125597 62.5075039,54.4348212 62.8932433,54.6071899 C63.2789826,54.7795585 63.6579091,54.8657416 64.0300342,54.8657416 C64.4475403,54.8657416 64.7583962,54.7886304 64.9626112,54.6344058 C65.1668261,54.4801813 65.2689321,54.2715276 65.2689321,54.0084386 C65.2689321,53.872358 65.2394348,53.7544233 65.1804394,53.6546309 C65.1214439,53.5548386 65.0352211,53.4663875 64.9217684,53.3892752 C64.8083156,53.3121629 64.6721744,53.2395878 64.5133405,53.1715475 L63.9891914,52.9470157 L62.8319791,52.4571283 C62.6050736,52.3664079 62.3849785,52.2484733 62.1716873,52.1033207 C61.9583962,51.9581681 61.7677984,51.78807 61.5998883,51.5930213 C61.4319782,51.3979725 61.298106,51.171175 61.1982676,50.912622 C61.0984291,50.654069 61.0485107,50.3615003 61.0485107,50.034907 C61.0485107,49.6720256 61.1256574,49.3295614 61.2799531,49.0075042 C61.4342489,48.6854469 61.6520749,48.4042181 61.9334378,48.1638091 C62.2148006,47.9234002 62.5483467,47.7351583 62.934086,47.5990778 C63.3198254,47.4629972 63.7441324,47.394958 64.2070196,47.394958 C64.7243642,47.394958 65.2348939,47.4947489 65.7386241,47.6943336 C66.2423544,47.8939184 66.6848135,48.1842192 67.0660147,48.5652447 L66.044945,49.8307872 C65.754506,49.6039864 65.4640713,49.4293523 65.1736322,49.3068798 C64.8831932,49.1844074 64.5609922,49.123172 64.2070196,49.123172 C63.8621232,49.123172 63.5875717,49.1934793 63.3833567,49.3340958 C63.1791418,49.4747123 63.0770358,49.6720262 63.0770358,49.9260431 C63.0770358,50.0621237 63.1110711,50.1777904 63.1791428,50.2730467 C63.2472144,50.3683031 63.3425133,50.4544862 63.4650423,50.5315985 C63.5875713,50.6087108 63.7305196,50.681286 63.8938916,50.7493262 C64.0572635,50.8173665 64.2342472,50.8922096 64.4248478,50.973858 L65.5684459,51.4365294 C66.1130191,51.6542583 66.5418641,51.953631 66.8549937,52.3346564 C67.1681233,52.7156819 67.3246857,53.2191723 67.3246857,53.8451427 C67.3246857,54.2170962 67.249808,54.5686323 67.1000504,54.8997616 C66.9502928,55.2308908 66.7324667,55.5211916 66.4465658,55.7706726 C66.1606648,56.0201535 65.8089666,56.2197353 65.3914604,56.3694239 C64.9739543,56.5191125 64.5019979,56.5939556 63.9755771,56.5939556 C63.394699,56.5939556 62.8160987,56.4873608 62.2397587,56.274168 C61.6634187,56.0609752 61.1483509,55.7411907 60.6945399,55.3148051 L61.8381379,53.9403986 Z M68.8358689,47.5582538 L74.390488,47.5582538 L74.390488,49.2456439 L70.8371655,49.2456439 L70.8371655,51.0282899 L73.8595318,51.0282899 L73.8595318,52.702072 L70.8371655,52.702072 L70.8371655,54.7432697 L74.5266306,54.7432697 L74.5266306,56.4306598 L68.8358689,56.4306598 L68.8358689,47.5582538 Z M78.2977813,51.6406492 L79.3324653,51.6406492 C79.8588861,51.6406492 80.2605028,51.5295184 80.5373275,51.3072536 C80.8141523,51.0849887 80.9525625,50.7561324 80.9525625,50.3206747 C80.9525625,49.885217 80.8141523,49.5813084 80.5373275,49.4089397 C80.2605028,49.2365711 79.8588861,49.150388 79.3324653,49.150388 L78.2977813,49.150388 L78.2977813,51.6406492 Z M81.1023194,56.4306598 L79.4005366,53.2327834 L78.2977813,53.2327834 L78.2977813,56.4306598 L76.2964848,56.4306598 L76.2964848,47.5582538 L79.4958365,47.5582538 C79.9677999,47.5582538 80.410259,47.6036133 80.8232271,47.6943336 C81.2361951,47.785054 81.5969694,47.9370083 81.9055609,48.1502011 C82.2141524,48.363394 82.4592067,48.6468908 82.6407311,49.0007002 C82.8222555,49.3545096 82.9130164,49.7944967 82.9130164,50.3206747 C82.9130164,50.9738612 82.770068,51.5113712 82.4841671,51.9332209 C82.1982661,52.3550705 81.8148016,52.670319 81.3337619,52.8789758 L83.3486728,56.4306598 L81.1023194,56.4306598 Z M83.5392724,47.5582538 L85.6630974,47.5582538 L86.7250099,51.6950812 C86.8611532,52.1849711 86.9814113,52.6589778 87.0857878,53.1171156 C87.1901644,53.5752533 87.3104225,54.0492601 87.4465658,54.53915 L87.5010228,54.53915 C87.6280899,54.0492601 87.746079,53.5752533 87.8549937,53.1171156 C87.9639083,52.6589778 88.0818974,52.1849711 88.2089645,51.6950812 L89.2572627,47.5582538 L91.2994021,47.5582538 L88.6310066,56.4306598 L86.2212822,56.4306598 L83.5392724,47.5582538 Z M92.2524005,47.5582538 L94.2536971,47.5582538 L94.2536971,56.4306598 L92.2524005,56.4306598 L92.2524005,47.5582538 Z M95.9282514,52.0488888 C95.9282514,51.3140539 96.0417024,50.6586092 96.2686079,50.082535 C96.4955134,49.5064607 96.8018313,49.0188462 97.1875707,48.6196766 C97.57331,48.2205071 98.0225762,47.9165984 98.5353826,47.7079416 C99.0481891,47.4992848 99.5904851,47.394958 100.162287,47.394958 C100.715936,47.394958 101.21739,47.5106247 101.666663,47.7419616 C102.115936,47.9732985 102.490324,48.2431875 102.78984,48.5516367 L101.687084,49.7899633 C101.460179,49.5813065 101.231008,49.4180123 100.999564,49.3000758 C100.768121,49.1821394 100.498107,49.123172 100.189516,49.123172 C99.8809241,49.123172 99.5927584,49.1889433 99.3250099,49.3204878 C99.0572614,49.4520323 98.8235522,49.6402742 98.6238754,49.8852192 C98.4241985,50.1301641 98.267636,50.4295368 98.1541833,50.7833462 C98.0407305,51.1371555 97.984005,51.5363191 97.984005,51.9808488 C97.984005,52.8971244 98.1791408,53.6070005 98.5694183,54.1104984 C98.9596958,54.6139964 99.4815706,54.8657416 100.135058,54.8657416 C100.498107,54.8657416 100.81577,54.7931664 101.088057,54.6480138 C101.360343,54.5028613 101.605398,54.3123514 101.823227,54.0764785 L102.925982,55.2875891 C102.553857,55.7230468 102.12955,56.0496352 101.653049,56.267364 C101.176547,56.4850929 100.661479,56.5939556 100.10783,56.5939556 C99.5360281,56.5939556 98.9960011,56.4964327 98.4877327,56.301384 C97.9794644,56.1063352 97.5347363,55.8183024 97.153535,55.4372769 C96.7723337,55.0562515 96.472823,54.5822447 96.2549937,54.0152425 C96.0371644,53.4482403 95.9282514,52.7927956 95.9282514,52.0488888 Z M104.273794,47.5582538 L109.828413,47.5582538 L109.828413,49.2456439 L106.275091,49.2456439 L106.275091,51.0282899 L109.297457,51.0282899 L109.297457,52.702072 L106.275091,52.702072 L106.275091,54.7432697 L109.964556,54.7432697 L109.964556,56.4306598 L104.273794,56.4306598 L104.273794,47.5582538 Z M112.306209,53.9403986 C112.623877,54.2125597 112.975575,54.4348212 113.361315,54.6071899 C113.747054,54.7795585 114.12598,54.8657416 114.498105,54.8657416 C114.915612,54.8657416 115.226468,54.7886304 115.430682,54.6344058 C115.634897,54.4801813 115.737003,54.2715276 115.737003,54.0084386 C115.737003,53.872358 115.707506,53.7544233 115.648511,53.6546309 C115.589515,53.5548386 115.503292,53.4663875 115.38984,53.3892752 C115.276387,53.3121629 115.140246,53.2395878 114.981412,53.1715475 L114.457263,52.9470157 L113.30005,52.4571283 C113.073145,52.3664079 112.85305,52.2484733 112.639759,52.1033207 C112.426467,51.9581681 112.23587,51.78807 112.06796,51.5930213 C111.90005,51.3979725 111.766177,51.171175 111.666339,50.912622 C111.5665,50.654069 111.516582,50.3615003 111.516582,50.034907 C111.516582,49.6720256 111.593729,49.3295614 111.748024,49.0075042 C111.90232,48.6854469 112.120146,48.4042181 112.401509,48.1638091 C112.682872,47.9234002 113.016418,47.7351583 113.402157,47.5990778 C113.787897,47.4629972 114.212204,47.394958 114.675091,47.394958 C115.192435,47.394958 115.702965,47.4947489 116.206695,47.6943336 C116.710426,47.8939184 117.152885,48.1842192 117.534086,48.5652447 L116.513016,49.8307872 C116.222577,49.6039864 115.932143,49.4293523 115.641704,49.3068798 C115.351264,49.1844074 115.029064,49.123172 114.675091,49.123172 C114.330195,49.123172 114.055643,49.1934793 113.851428,49.3340958 C113.647213,49.4747123 113.545107,49.6720262 113.545107,49.9260431 C113.545107,50.0621237 113.579142,50.1777904 113.647214,50.2730467 C113.715286,50.3683031 113.810585,50.4544862 113.933114,50.5315985 C114.055643,50.6087108 114.198591,50.681286 114.361963,50.7493262 C114.525335,50.8173665 114.702318,50.8922096 114.892919,50.973858 L116.036517,51.4365294 C116.58109,51.6542583 117.009935,51.953631 117.323065,52.3346564 C117.636195,52.7156819 117.792757,53.2191723 117.792757,53.8451427 C117.792757,54.2170962 117.717879,54.5686323 117.568122,54.8997616 C117.418364,55.2308908 117.200538,55.5211916 116.914637,55.7706726 C116.628736,56.0201535 116.277038,56.2197353 115.859532,56.3694239 C115.442026,56.5191125 114.970069,56.5939556 114.443648,56.5939556 C113.86277,56.5939556 113.28417,56.4873608 112.70783,56.274168 C112.13149,56.0609752 111.616422,55.7411907 111.162611,55.3148051 L112.306209,53.9403986 Z" id="OUR-SERVICES" fill="#4A4A4A"></path>
            <g id="Group-21" transform="translate(482.016807, 330.756303)">
                <rect id="Rectangle" fill="#4990E2" x="0.318025785" y="0.311346419" width="88.42147" height="21.297479"></rect>
                <path d="M23.090506,11.6712416 C23.2250611,11.7777295 23.3740306,11.8646933 23.5374189,11.9321357 C23.7008072,11.999578 23.8613098,12.0332987 24.0189315,12.0332987 C24.1957753,12.0332987 24.3274451,12.0031276 24.4139448,11.9427844 C24.5004445,11.8824413 24.5436937,11.8008018 24.5436937,11.6978634 C24.5436937,11.6446195 24.5311994,11.5984754 24.5062106,11.5594298 C24.4812218,11.5203842 24.4447003,11.4857762 24.3966449,11.4556046 C24.3485895,11.425433 24.2909239,11.3970367 24.2236464,11.3704147 L24.0016316,11.2825626 L23.5114691,11.0908853 C23.4153583,11.0553893 23.3221323,11.0092452 23.2317881,10.9524517 C23.141444,10.8956581 23.0607122,10.8291041 22.9895902,10.7527878 C22.9184682,10.6764714 22.8617637,10.5877328 22.819475,10.4865693 C22.7771862,10.3854058 22.7560422,10.270933 22.7560422,10.1431475 C22.7560422,10.0011636 22.7887194,9.86716825 22.8540747,9.74115754 C22.91943,9.61514683 23.011695,9.50511095 23.1308723,9.41104662 C23.2500497,9.31698228 23.3913304,9.24332924 23.5547187,9.19008527 C23.718107,9.13684131 23.8978315,9.11021973 24.0938975,9.11021973 C24.31303,9.11021973 24.529276,9.14926471 24.742642,9.22735586 C24.9560079,9.30544701 25.1434211,9.41903243 25.3048872,9.56811552 L24.8723909,10.0632819 C24.7493691,9.97454197 24.6263491,9.90621324 24.5033273,9.85829367 C24.3803055,9.81037411 24.2438303,9.78641468 24.0938975,9.78641468 C23.9478091,9.78641468 23.8315168,9.81392365 23.7450171,9.86894241 C23.6585174,9.92396118 23.6152682,10.0011638 23.6152682,10.1005525 C23.6152682,10.1537965 23.6296846,10.1990532 23.6585178,10.2363239 C23.6873511,10.2735947 23.727717,10.3073154 23.7796168,10.337487 C23.8315166,10.3676585 23.8920655,10.3960549 23.9612653,10.4226769 C24.030465,10.4492989 24.1054303,10.4785826 24.1861634,10.510529 L24.6705592,10.6915575 C24.9012251,10.7767479 25.0828717,10.8938828 25.2155046,11.0429659 C25.3481375,11.192049 25.4144529,11.3890488 25.4144529,11.633971 C25.4144529,11.7795045 25.3827368,11.9170493 25.3193037,12.0466096 C25.2558706,12.17617 25.1636057,12.2897554 25.0425061,12.3873693 C24.9214065,12.4849832 24.772437,12.5630732 24.5955932,12.6216416 C24.4187494,12.6802099 24.218842,12.7094937 23.995865,12.7094937 C23.7498214,12.7094937 23.5047426,12.6677865 23.2606212,12.584371 C23.0164999,12.5009554 22.7983317,12.375834 22.6061101,12.2090029 L23.090506,11.6712416 Z M26.0545475,9.17411216 L28.4073275,9.17411216 L28.4073275,9.83433401 L26.9022403,9.83433401 L26.9022403,10.5318264 L28.1824294,10.5318264 L28.1824294,11.1867239 L26.9022403,11.1867239 L26.9022403,11.9853794 L28.4649936,11.9853794 L28.4649936,12.6456012 L26.0545475,12.6456012 L26.0545475,9.17411216 Z M29.2146539,9.17411216 L31.5674339,9.17411216 L31.5674339,9.83433401 L30.0623467,9.83433401 L30.0623467,10.5318264 L31.3425358,10.5318264 L31.3425358,11.1867239 L30.0623467,11.1867239 L30.0623467,11.9853794 L31.6251001,11.9853794 L31.6251001,12.6456012 L29.2146539,12.6456012 L29.2146539,9.17411216 Z M35.1658033,11.2080214 L35.079304,10.8885592 C35.025482,10.7146289 34.973583,10.5300526 34.9236053,10.3348248 C34.8736277,10.1395969 34.8236509,9.95147105 34.7736733,9.77044157 L34.7506068,9.77044157 C34.7044737,9.95502065 34.6573801,10.1440339 34.6093247,10.337487 C34.5612693,10.53094 34.5103314,10.7146289 34.4565093,10.8885592 L34.3642434,11.2080214 L35.1658033,11.2080214 Z M35.3388018,11.8203239 L34.1912449,11.8203239 L33.9605802,12.6456012 L33.0955876,12.6456012 L34.2719776,9.17411216 L35.2926689,9.17411216 L36.4690589,12.6456012 L35.5694665,12.6456012 L35.3388018,11.8203239 Z M36.8784887,9.17411216 L37.7261815,9.17411216 L37.7261815,11.9853794 L39.2139689,11.9853794 L39.2139689,12.6456012 L36.8784887,12.6456012 L36.8784887,9.17411216 Z M39.8655966,9.17411216 L40.7132894,9.17411216 L40.7132894,11.9853794 L42.2010768,11.9853794 L42.2010768,12.6456012 L39.8655966,12.6456012 L39.8655966,9.17411216 Z M44.294359,11.6712416 C44.428914,11.7777295 44.5778835,11.8646933 44.7412718,11.9321357 C44.9046601,11.999578 45.0651627,12.0332987 45.2227844,12.0332987 C45.3996282,12.0332987 45.531298,12.0031276 45.6177977,11.9427844 C45.7042974,11.8824413 45.7475466,11.8008018 45.7475466,11.6978634 C45.7475466,11.6446195 45.7350524,11.5984754 45.7100636,11.5594298 C45.6850748,11.5203842 45.6485532,11.4857762 45.6004979,11.4556046 C45.5524425,11.425433 45.4947769,11.3970367 45.4274993,11.3704147 L45.2054845,11.2825626 L44.7153221,11.0908853 C44.6192113,11.0553893 44.5259852,11.0092452 44.4356411,10.9524517 C44.345297,10.8956581 44.2645651,10.8291041 44.1934432,10.7527878 C44.1223212,10.6764714 44.0656167,10.5877328 44.0233279,10.4865693 C43.9810392,10.3854058 43.9598951,10.270933 43.9598951,10.1431475 C43.9598951,10.0011636 43.9925723,9.86716825 44.0579276,9.74115754 C44.123283,9.61514683 44.2155479,9.50511095 44.3347253,9.41104662 C44.4539026,9.31698228 44.5951834,9.24332924 44.7585717,9.19008527 C44.92196,9.13684131 45.1016845,9.11021973 45.2977504,9.11021973 C45.516883,9.11021973 45.733129,9.14926471 45.9464949,9.22735586 C46.1598608,9.30544701 46.347274,9.41903243 46.5087401,9.56811552 L46.0762438,10.0632819 C45.953222,9.97454197 45.8302021,9.90621324 45.7071803,9.85829367 C45.5841585,9.81037411 45.4476832,9.78641468 45.2977504,9.78641468 C45.1516621,9.78641468 45.0353698,9.81392365 44.9488701,9.86894241 C44.8623704,9.92396118 44.8191212,10.0011638 44.8191212,10.1005525 C44.8191212,10.1537965 44.8335376,10.1990532 44.8623708,10.2363239 C44.891204,10.2735947 44.93157,10.3073154 44.9834698,10.337487 C45.0353696,10.3676585 45.0959185,10.3960549 45.1651182,10.4226769 C45.234318,10.4492989 45.3092833,10.4785826 45.3900163,10.510529 L45.8744122,10.6915575 C46.105078,10.7767479 46.2867247,10.8938828 46.4193576,11.0429659 C46.5519904,11.192049 46.6183059,11.3890488 46.6183059,11.633971 C46.6183059,11.7795045 46.5865898,11.9170493 46.5231567,12.0466096 C46.4597236,12.17617 46.3674586,12.2897554 46.246359,12.3873693 C46.1252595,12.4849832 45.97629,12.5630732 45.7994462,12.6216416 C45.6226023,12.6802099 45.4226949,12.7094937 45.1997179,12.7094937 C44.9536743,12.7094937 44.7085956,12.6677865 44.4644742,12.584371 C44.2203528,12.5009554 44.0021846,12.375834 43.8099631,12.2090029 L44.294359,11.6712416 Z M47.2584004,9.17411216 L49.6111804,9.17411216 L49.6111804,9.83433401 L48.1060932,9.83433401 L48.1060932,10.5318264 L49.3862823,10.5318264 L49.3862823,11.1867239 L48.1060932,11.1867239 L48.1060932,11.9853794 L49.6688466,11.9853794 L49.6688466,12.6456012 L47.2584004,12.6456012 L47.2584004,9.17411216 Z M51.2661997,10.7714231 L51.7044626,10.7714231 C51.9274396,10.7714231 52.0975531,10.7279412 52.2148083,10.640976 C52.3320634,10.5540109 52.3906901,10.4253399 52.3906901,10.2549592 C52.3906901,10.0845785 52.3320634,9.9656688 52.2148083,9.89822645 C52.0975531,9.83078409 51.9274396,9.79706342 51.7044626,9.79706342 L51.2661997,9.79706342 L51.2661997,10.7714231 Z M52.4541229,12.6456012 L51.7332957,11.3943743 L51.2661997,11.3943743 L51.2661997,12.6456012 L50.4185069,12.6456012 L50.4185069,9.17411216 L51.773662,9.17411216 C51.9735724,9.17411216 52.1609856,9.19185988 52.3359072,9.22735586 C52.5108288,9.26285184 52.6636427,9.3223067 52.7943533,9.40572225 C52.925064,9.48913779 53.0288621,9.60006105 53.1057507,9.73849536 C53.1826393,9.87692966 53.221083,10.0490826 53.221083,10.2549592 C53.221083,10.5105302 53.1605341,10.7208407 53.0394346,10.885897 C52.918335,11.0509533 52.7559102,11.1743 52.5521554,11.2559407 L53.4056148,12.6456012 L52.4541229,12.6456012 Z M53.4863474,9.17411216 L54.3859398,9.17411216 L54.835736,10.7927206 C54.8934024,10.9843988 54.9443404,11.1698625 54.9885513,11.3491172 C55.0327623,11.5283719 55.0837002,11.7138356 55.1413667,11.9055138 L55.1644332,11.9055138 C55.2182552,11.7138356 55.268232,11.5283719 55.3143652,11.3491172 C55.3604984,11.1698625 55.4104752,10.9843988 55.4642973,10.7927206 L55.9083268,9.17411216 L56.7733195,9.17411216 L55.6430624,12.6456012 L54.6223711,12.6456012 L53.4863474,9.17411216 Z M57.1769827,9.17411216 L58.0246755,9.17411216 L58.0246755,12.6456012 L57.1769827,12.6456012 L57.1769827,9.17411216 Z M58.7339695,10.9311542 C58.7339695,10.6436368 58.7820241,10.3871822 58.8781349,10.1617828 C58.9742457,9.9363833 59.1039933,9.7455953 59.2673816,9.589413 C59.4307699,9.43323071 59.6210664,9.31432097 59.8382767,9.23268023 C60.0554871,9.15103949 60.2851884,9.11021973 60.5273875,9.11021973 C60.7618978,9.11021973 60.9742994,9.15547642 61.1645988,9.24599115 C61.3548981,9.33650589 61.5134785,9.44210484 61.6403447,9.56279115 L61.1732487,10.0473088 C61.0771379,9.96566806 60.9800675,9.90177626 60.8820345,9.85563149 C60.7840015,9.80948672 60.6696314,9.78641468 60.5389208,9.78641468 C60.4082101,9.78641468 60.2861513,9.81214888 60.1727406,9.86361804 C60.0593298,9.91508721 59.9603372,9.98874025 59.8757597,10.0845794 C59.7911823,10.1804185 59.7248668,10.2975535 59.6768114,10.4359878 C59.6287561,10.5744221 59.6047287,10.730602 59.6047287,10.9045323 C59.6047287,11.2630417 59.6873827,11.5407935 59.8526933,11.7377962 C60.0180038,11.9347989 60.2390553,12.0332987 60.5158543,12.0332987 C60.6696315,12.0332987 60.8041846,12.0049024 60.9195175,11.9481088 C61.0348505,11.8913152 61.1386485,11.8167748 61.2309149,11.7244853 L61.6980109,12.1983542 C61.5403892,12.3687349 61.3606648,12.4965185 61.1588322,12.5817088 C60.9569995,12.6668991 60.7388314,12.7094937 60.5043211,12.7094937 C60.2621219,12.7094937 60.0333817,12.6713361 59.8180936,12.5950197 C59.6028054,12.5187034 59.4144311,12.4060053 59.252965,12.2569222 C59.0914989,12.1078391 58.9646346,11.9223755 58.8723683,11.7005256 C58.7801019,11.4786758 58.7339695,11.2222212 58.7339695,10.9311542 Z M62.2689061,9.17411216 L64.621686,9.17411216 L64.621686,9.83433401 L63.1165988,9.83433401 L63.1165988,10.5318264 L64.396788,10.5318264 L64.396788,11.1867239 L63.1165988,11.1867239 L63.1165988,11.9853794 L64.6793522,11.9853794 L64.6793522,12.6456012 L62.2689061,12.6456012 L62.2689061,9.17411216 Z M65.6712104,11.6712416 C65.8057655,11.7777295 65.954735,11.8646933 66.1181233,11.9321357 C66.2815116,11.999578 66.4420142,12.0332987 66.5996359,12.0332987 C66.7764797,12.0332987 66.9081495,12.0031276 66.9946492,11.9427844 C67.0811489,11.8824413 67.1243981,11.8008018 67.1243981,11.6978634 C67.1243981,11.6446195 67.1119039,11.5984754 67.0869151,11.5594298 C67.0619263,11.5203842 67.0254047,11.4857762 66.9773493,11.4556046 C66.9292939,11.425433 66.8716283,11.3970367 66.8043508,11.3704147 L66.582336,11.2825626 L66.0921735,11.0908853 C65.9960628,11.0553893 65.9028367,11.0092452 65.8124926,10.9524517 C65.7221484,10.8956581 65.6414166,10.8291041 65.5702946,10.7527878 C65.4991727,10.6764714 65.4424682,10.5877328 65.4001794,10.4865693 C65.3578907,10.3854058 65.3367466,10.270933 65.3367466,10.1431475 C65.3367466,10.0011636 65.3694238,9.86716825 65.4347791,9.74115754 C65.5001344,9.61514683 65.5923994,9.50511095 65.7115768,9.41104662 C65.8307541,9.31698228 65.9720348,9.24332924 66.1354232,9.19008527 C66.2988115,9.13684131 66.4785359,9.11021973 66.6746019,9.11021973 C66.8937345,9.11021973 67.1099805,9.14926471 67.3233464,9.22735586 C67.5367123,9.30544701 67.7241255,9.41903243 67.8855916,9.56811552 L67.4530953,10.0632819 C67.3300735,9.97454197 67.2070535,9.90621324 67.0840318,9.85829367 C66.96101,9.81037411 66.8245347,9.78641468 66.6746019,9.78641468 C66.5285135,9.78641468 66.4122212,9.81392365 66.3257215,9.86894241 C66.2392218,9.92396118 66.1959726,10.0011638 66.1959726,10.1005525 C66.1959726,10.1537965 66.210389,10.1990532 66.2392223,10.2363239 C66.2680555,10.2735947 66.3084214,10.3073154 66.3603212,10.337487 C66.4122211,10.3676585 66.4727699,10.3960549 66.5419697,10.4226769 C66.6111695,10.4492989 66.6861347,10.4785826 66.7668678,10.510529 L67.2512637,10.6915575 C67.4819295,10.7767479 67.6635762,10.8938828 67.796209,11.0429659 C67.9288419,11.192049 67.9951573,11.3890488 67.9951573,11.633971 C67.9951573,11.7795045 67.9634413,11.9170493 67.9000082,12.0466096 C67.836575,12.17617 67.7443101,12.2897554 67.6232105,12.3873693 C67.5021109,12.4849832 67.3531415,12.5630732 67.1762976,12.6216416 C66.9994538,12.6802099 66.7995464,12.7094937 66.5765694,12.7094937 C66.3305258,12.7094937 66.085447,12.6677865 65.8413257,12.584371 C65.5972043,12.5009554 65.3790361,12.375834 65.1868146,12.2090029 L65.6712104,11.6712416 Z" id="SEE-ALL-SERVICES" fill="#FFFFFF"></path>
            </g>
            <path d="M33.7815126,75.6302521 L254.631058,75.6302521" id="Line" stroke="#979797" stroke-width="6" stroke-linecap="square"></path>
        </g>
    </g>
</svg>