<?xml version="1.0" encoding="UTF-8"?>
<svg width="600px" height="360px" viewBox="0 0 600 360" version="1.1" xmlns="http://www.w3.org/2000/svg" xmlns:xlink="http://www.w3.org/1999/xlink">
    <!-- Generator: Sketch 44.1 (41455) - http://www.bohemiancoding.com/sketch -->
    <title>services28</title>
    <desc>Created with Sketch.</desc>
    <defs>
        <rect id="path-1" x="9.3806281" y="26.8812698" width="12.8983636" height="1.16875086" rx="0.584375429"></rect>
    </defs>
    <g id="Services" stroke="none" stroke-width="1" fill="none" fill-rule="evenodd">
        <g id="28">
            <rect id="Rectangle-23" fill="#F8F8F8" x="0" y="0" width="600" height="360"></rect>
            <g id="Group-41" transform="translate(23.000000, 196.000000)">
                <g id="Group-39" transform="translate(290.350901, 0.000000)">
                    <g id="icon-play" transform="translate(42.389894, 0.543493)" stroke="#979797">
                        <rect id="Rectangle-5" x="0.5" y="0.5" width="33.0047769" height="28.2187715"></rect>
                        <polygon id="Triangle" transform="translate(17.002388, 12.271884) rotate(90.000000) translate(-17.002388, -12.271884) " points="17.0023884 8.18125601 22.2789917 16.362512 11.7257851 16.362512"></polygon>
                        <path d="M33.4184876,23.9593926 L9.96691736,23.9593926" id="Line" stroke-linecap="square"></path>
                        <path d="M8.79433885,22.7906417 L8.79433885,25.1281435" id="Line" stroke-linecap="square"></path>
                        <path d="M6.44918182,23.9593926 L0.586289256,23.9593926" id="Line" stroke-linecap="square"></path>
                    </g>
                    <path d="M28.9052408,44.3716504 L89.8793234,44.3716504" id="Line" stroke="#979797" stroke-width="7" stroke-linecap="square"></path>
                    <path d="M0.763356481,65.9935413 L116.848629,65.9935413" id="Line" stroke="#D7D9D9" stroke-width="4" stroke-linecap="square"></path>
                    <path d="M0.763356481,78.8498007 L116.848629,78.8498007" id="Line" stroke="#D7D9D9" stroke-width="4" stroke-linecap="square"></path>
                    <path d="M0.763356481,91.7060602 L116.848629,91.7060602" id="Line" stroke="#D7D9D9" stroke-width="4" stroke-linecap="square"></path>
                    <path d="M11.3165631,103.393569 L106.888905,103.393569" id="Line" stroke="#D7D9D9" stroke-width="4" stroke-linecap="square"></path>
                </g>
                <g id="Group-38" transform="translate(144.250766, 0.000000)">
                    <g id="icon-diamant" transform="translate(43.936281, 0.543493)" stroke="#979797">
                        <polygon id="Path-2" points="23.6665625 0.764781952 31.3098091 10.6992044 16.202504 27.3737029 0.106228395 10.8262671 8.49107078 0.687916848"></polygon>
                        <polyline id="Path-3" points="8.68294482 0.909100105 8.68294482 11.2759203 23.8897615 11.2759203 23.8897615 1.05900093"></polyline>
                        <polygon id="Path-4" points="15.8272132 1.7378837 8.48737073 10.7629972 16.2997625 27.4076909 24.3378573 11.2017035"></polygon>
                        <path d="M1.06598047,11.0723766 L29.4210609,11.0723766" id="Line" stroke-linecap="square"></path>
                    </g>
                    <path d="M29.2790494,44.3716504 L90.253132,44.3716504" id="Line" stroke="#979797" stroke-width="7" stroke-linecap="square"></path>
                    <path d="M1.13716507,65.9935413 L117.222438,65.9935413" id="Line" stroke="#D7D9D9" stroke-width="4" stroke-linecap="square"></path>
                    <path d="M1.13716507,78.8498007 L117.222438,78.8498007" id="Line" stroke="#D7D9D9" stroke-width="4" stroke-linecap="square"></path>
                    <path d="M1.13716507,91.7060602 L117.222438,91.7060602" id="Line" stroke="#D7D9D9" stroke-width="4" stroke-linecap="square"></path>
                    <path d="M11.6903717,103.393569 L107.262714,103.393569" id="Line" stroke="#D7D9D9" stroke-width="4" stroke-linecap="square"></path>
                </g>
                <g id="Group-37">
                    <g id="icon-mac" transform="translate(42.212826, 0.543493)">
                        <rect id="Rectangle-3" stroke="#979797" x="0.5" y="0.5" width="30.6596198" height="22.3750172" rx="2"></rect>
                        <path d="M0.586289256,18.1156383 L31.0733306,18.1156383" id="Line" stroke="#979797" stroke-linecap="square"></path>
                        <path d="M12.3120744,22.7906417 L12.3120744,26.2968943" id="Line" stroke="#979797" stroke-linecap="square"></path>
                        <path d="M19.3475455,22.7906417 L19.3475455,26.2968943" id="Line" stroke="#979797" stroke-linecap="square"></path>
                        <g id="Rectangle-4">
                            <use fill="#D8D8D8" fill-rule="evenodd" xlink:href="#path-1"></use>
                            <rect stroke="#979797" stroke-width="1" x="9.8806281" y="27.3812698" width="11.8983636" height="1" rx="0.5"></rect>
                        </g>
                        <ellipse id="Oval" fill="#D8D8D8" cx="15.8298099" cy="20.45314" rx="1" ry="1"></ellipse>
                    </g>
                    <path d="M27.555595,44.3716504 L88.5296777,44.3716504" id="Line" stroke="#979797" stroke-width="7" stroke-linecap="square"></path>
                    <path d="M0.586289256,65.9935413 L116.671562,65.9935413" id="Line" stroke="#D7D9D9" stroke-width="4" stroke-linecap="square"></path>
                    <path d="M0.586289256,78.8498007 L116.671562,78.8498007" id="Line" stroke="#D7D9D9" stroke-width="4" stroke-linecap="square"></path>
                    <path d="M0.586289256,91.7060602 L116.671562,91.7060602" id="Line" stroke="#D7D9D9" stroke-width="4" stroke-linecap="square"></path>
                    <path d="M9.96691736,103.393569 L105.53926,103.393569" id="Line" stroke="#D7D9D9" stroke-width="4" stroke-linecap="square"></path>
                </g>
                <g id="Group-40" transform="translate(434.601667, 1.842105)" stroke-linecap="square">
                    <path d="M27.555595,42.3155146 L88.5296777,42.3155146" id="Line" stroke="#979797" stroke-width="7"></path>
                    <path d="M0.586289256,63.9374055 L116.671562,63.9374055" id="Line" stroke="#D7D9D9" stroke-width="4"></path>
                    <path d="M0.586289256,76.793665 L116.671562,76.793665" id="Line" stroke="#D7D9D9" stroke-width="4"></path>
                    <path d="M0.586289256,89.6499244 L116.671562,89.6499244" id="Line" stroke="#D7D9D9" stroke-width="4"></path>
                    <path d="M9.96691736,101.337433 L105.53926,101.337433" id="Line" stroke="#D7D9D9" stroke-width="4"></path>
                    <g id="icon" transform="translate(44.557983, 0.824859)" stroke="#979797">
                        <path d="M6.70044864,12.659164 L6.70044864,20.0758001" id="Line" stroke-width="3"></path>
                        <path d="M12.0608076,7.32892613 L12.0608076,20.0758001" id="Line" stroke-width="3"></path>
                        <path d="M17.4211665,9.35000687 L17.4211665,20.0758001" id="Line" stroke-width="3"></path>
                        <path d="M22.7815254,5.34286107 L22.7815254,20.0758001" id="Line" stroke-width="3"></path>
                        <path d="M2.01013459,0.667857634 L2.01013459,24.85869" id="Line"></path>
                        <path d="M26.9502367,25.3785901 L2.00113545,25.3785901" id="Line"></path>
                    </g>
                </g>
            </g>
            <path d="M278.5,56 L320.511903,56" id="Line" stroke="#4990E2" stroke-width="4" stroke-linecap="square"></path>
            <path d="M263.512,79.658 C263.932002,80.0180018 264.396997,80.3119989 264.907,80.54 C265.417003,80.7680011 265.917998,80.882 266.41,80.882 C266.962003,80.882 267.372999,80.780001 267.643,80.576 C267.913001,80.371999 268.048,80.0960017 268.048,79.748 C268.048,79.5679991 268.009,79.4120007 267.931,79.28 C267.853,79.1479993 267.739001,79.0310005 267.589,78.929 C267.438999,78.8269995 267.259001,78.7310004 267.049,78.641 L266.356,78.344 L264.826,77.696 C264.525999,77.5759994 264.235001,77.420001 263.953,77.228 C263.670999,77.035999 263.419001,76.8110013 263.197,76.553 C262.974999,76.2949987 262.798001,75.9950017 262.666,75.653 C262.533999,75.3109983 262.468,74.9240022 262.468,74.492 C262.468,74.0119976 262.569999,73.5590021 262.774,73.133 C262.978001,72.7069979 263.265998,72.3350016 263.638,72.017 C264.010002,71.6989984 264.450997,71.4500009 264.961,71.27 C265.471003,71.0899991 266.031997,71 266.644,71 C267.328003,71 268.002997,71.1319987 268.669,71.396 C269.335003,71.6600013 269.919997,72.0439975 270.424,72.548 L269.074,74.222 C268.689998,73.9219985 268.306002,73.6910008 267.922,73.529 C267.537998,73.3669992 267.112002,73.286 266.644,73.286 C266.187998,73.286 265.825001,73.3789991 265.555,73.565 C265.284999,73.7510009 265.15,74.0119983 265.15,74.348 C265.15,74.5280009 265.195,74.6809994 265.285,74.807 C265.375,74.9330006 265.500999,75.0469995 265.663,75.149 C265.825001,75.2510005 266.013999,75.3469995 266.23,75.437 C266.446001,75.5270004 266.679999,75.6259995 266.932,75.734 L268.444,76.346 C269.164004,76.6340014 269.730998,77.0299975 270.145,77.534 C270.559002,78.0380025 270.766,78.7039959 270.766,79.532 C270.766,80.0240025 270.667001,80.4889978 270.469,80.927 C270.270999,81.3650022 269.983002,81.7489983 269.605,82.079 C269.226998,82.4090016 268.762003,82.672999 268.21,82.871 C267.657997,83.069001 267.034003,83.168 266.338,83.168 C265.569996,83.168 264.805004,83.0270014 264.043,82.745 C263.280996,82.4629986 262.600003,82.0400028 262,81.476 L263.512,79.658 Z M272.764,71.216 L280.108,71.216 L280.108,73.448 L275.41,73.448 L275.41,75.806 L279.406,75.806 L279.406,78.02 L275.41,78.02 L275.41,80.72 L280.288,80.72 L280.288,82.952 L272.764,82.952 L272.764,71.216 Z M285.274,76.616 L286.642,76.616 C287.338003,76.616 287.868998,76.4690015 288.235,76.175 C288.601002,75.8809985 288.784,75.4460029 288.784,74.87 C288.784,74.2939971 288.601002,73.8920011 288.235,73.664 C287.868998,73.4359989 287.338003,73.322 286.642,73.322 L285.274,73.322 L285.274,76.616 Z M288.982,82.952 L286.732,78.722 L285.274,78.722 L285.274,82.952 L282.628,82.952 L282.628,71.216 L286.858,71.216 C287.482003,71.216 288.066997,71.2759994 288.613,71.396 C289.159003,71.5160006 289.635998,71.7169986 290.044,71.999 C290.452002,72.2810014 290.775999,72.6559977 291.016,73.124 C291.256001,73.5920023 291.376,74.1739965 291.376,74.87 C291.376,75.7340043 291.187002,76.4449972 290.809,77.003 C290.430998,77.5610028 289.924003,77.9779986 289.288,78.254 L291.952,82.952 L288.982,82.952 Z M291.88,71.216 L294.688,71.216 L296.092,76.688 C296.272001,77.3360032 296.430999,77.962997 296.569,78.569 C296.707001,79.175003 296.865999,79.8019968 297.046,80.45 L297.118,80.45 C297.286001,79.8019968 297.441999,79.175003 297.586,78.569 C297.730001,77.962997 297.885999,77.3360032 298.054,76.688 L299.44,71.216 L302.14,71.216 L298.612,82.952 L295.426,82.952 L291.88,71.216 Z M303.4,71.216 L306.046,71.216 L306.046,82.952 L303.4,82.952 L303.4,71.216 Z M308.26,77.156 C308.26,76.1839951 308.409999,75.3170038 308.71,74.555 C309.010002,73.7929962 309.414997,73.1480026 309.925,72.62 C310.435003,72.0919974 311.028997,71.6900014 311.707,71.414 C312.385003,71.1379986 313.101996,71 313.858,71 C314.590004,71 315.252997,71.1529985 315.847,71.459 C316.441003,71.7650015 316.935998,72.121998 317.332,72.53 L315.874,74.168 C315.573999,73.8919986 315.271002,73.6760008 314.965,73.52 C314.658998,73.3639992 314.302002,73.286 313.894,73.286 C313.485998,73.286 313.105002,73.3729991 312.751,73.547 C312.396998,73.7210009 312.088001,73.9699984 311.824,74.294 C311.559999,74.6180016 311.353001,75.0139977 311.203,75.482 C311.052999,75.9500023 310.978,76.4779971 310.978,77.066 C310.978,78.2780061 311.235997,79.2169967 311.752,79.883 C312.268003,80.5490033 312.957996,80.882 313.822,80.882 C314.302002,80.882 314.721998,80.786001 315.082,80.594 C315.442002,80.401999 315.765999,80.1500016 316.054,79.838 L317.512,81.44 C317.019998,82.0160029 316.459003,82.4479986 315.829,82.736 C315.198997,83.0240014 314.518004,83.168 313.786,83.168 C313.029996,83.168 312.316003,83.0390013 311.644,82.781 C310.971997,82.5229987 310.384003,82.1420025 309.88,81.638 C309.375997,81.1339975 308.980001,80.5070037 308.692,79.757 C308.403999,79.0069963 308.26,78.1400049 308.26,77.156 Z M319.294,71.216 L326.638,71.216 L326.638,73.448 L321.94,73.448 L321.94,75.806 L325.936,75.806 L325.936,78.02 L321.94,78.02 L321.94,80.72 L326.818,80.72 L326.818,82.952 L319.294,82.952 L319.294,71.216 Z M329.914,79.658 C330.334002,80.0180018 330.798997,80.3119989 331.309,80.54 C331.819003,80.7680011 332.319998,80.882 332.812,80.882 C333.364003,80.882 333.774999,80.780001 334.045,80.576 C334.315001,80.371999 334.45,80.0960017 334.45,79.748 C334.45,79.5679991 334.411,79.4120007 334.333,79.28 C334.255,79.1479993 334.141001,79.0310005 333.991,78.929 C333.840999,78.8269995 333.661001,78.7310004 333.451,78.641 L332.758,78.344 L331.228,77.696 C330.927999,77.5759994 330.637001,77.420001 330.355,77.228 C330.072999,77.035999 329.821001,76.8110013 329.599,76.553 C329.376999,76.2949987 329.200001,75.9950017 329.068,75.653 C328.935999,75.3109983 328.87,74.9240022 328.87,74.492 C328.87,74.0119976 328.971999,73.5590021 329.176,73.133 C329.380001,72.7069979 329.667998,72.3350016 330.04,72.017 C330.412002,71.6989984 330.852997,71.4500009 331.363,71.27 C331.873003,71.0899991 332.433997,71 333.046,71 C333.730003,71 334.404997,71.1319987 335.071,71.396 C335.737003,71.6600013 336.321997,72.0439975 336.826,72.548 L335.476,74.222 C335.091998,73.9219985 334.708002,73.6910008 334.324,73.529 C333.939998,73.3669992 333.514002,73.286 333.046,73.286 C332.589998,73.286 332.227001,73.3789991 331.957,73.565 C331.686999,73.7510009 331.552,74.0119983 331.552,74.348 C331.552,74.5280009 331.597,74.6809994 331.687,74.807 C331.777,74.9330006 331.902999,75.0469995 332.065,75.149 C332.227001,75.2510005 332.415999,75.3469995 332.632,75.437 C332.848001,75.5270004 333.081999,75.6259995 333.334,75.734 L334.846,76.346 C335.566004,76.6340014 336.132998,77.0299975 336.547,77.534 C336.961002,78.0380025 337.168,78.7039959 337.168,79.532 C337.168,80.0240025 337.069001,80.4889978 336.871,80.927 C336.672999,81.3650022 336.385002,81.7489983 336.007,82.079 C335.628998,82.4090016 335.164003,82.672999 334.612,82.871 C334.059997,83.069001 333.436003,83.168 332.74,83.168 C331.971996,83.168 331.207004,83.0270014 330.445,82.745 C329.682996,82.4629986 329.002003,82.0400028 328.402,81.476 L329.914,79.658 Z" id="SERVICES" fill="#79797B"></path>
            <path d="M282.5,100.5 L316.5,100.5" id="Line" stroke="#4990E2" stroke-linecap="square"></path>
            <path d="M219.5,120 L380.503106,120" id="Line" stroke="#979797" stroke-width="4" stroke-linecap="square"></path>
            <path d="M197.5,137 L402,137" id="Line" stroke="#979797" stroke-width="4" stroke-linecap="square"></path>
        </g>
    </g>
</svg>