<?xml version="1.0" encoding="UTF-8"?>
<svg width="604px" height="333px" viewBox="0 0 604 333" version="1.1" xmlns="http://www.w3.org/2000/svg" xmlns:xlink="http://www.w3.org/1999/xlink">
    <!-- Generator: Sketch 44.1 (41455) - http://www.bohemiancoding.com/sketch -->
    <title>services23</title>
    <desc>Created with Sketch.</desc>
    <defs>
        <rect id="path-1" x="0" y="111.99095" width="378.28201" height="219.112729"></rect>
        <mask id="mask-2" maskContentUnits="userSpaceOnUse" maskUnits="objectBoundingBox" x="0" y="0" width="378.28201" height="219.112729" fill="white">
            <use xlink:href="#path-1"></use>
        </mask>
    </defs>
    <g id="Services" stroke="none" stroke-width="1" fill="none" fill-rule="evenodd">
        <g id="23" transform="translate(2.000000, 1.000000)">
            <rect id="Rectangle-19" fill="#4990E2" x="412.317666" y="302.862483" width="95.2998379" height="27.2673618" rx="1"></rect>
            <path d="M440.534198,317.306394 L441.199352,317.306394 C441.537765,317.306394 441.795947,317.234818 441.973906,317.091663 C442.151865,316.948509 442.240843,316.736702 442.240843,316.456236 C442.240843,316.175771 442.151865,315.980032 441.973906,315.869014 C441.795947,315.757997 441.537765,315.702489 441.199352,315.702489 L440.534198,315.702489 L440.534198,317.306394 Z M442.337115,320.391501 L441.243112,318.331841 L440.534198,318.331841 L440.534198,320.391501 L439.24765,320.391501 L439.24765,314.677041 L441.304376,314.677041 C441.607781,314.677041 441.892219,314.706256 442.157699,314.764686 C442.423178,314.823117 442.655104,314.920986 442.853485,315.058297 C443.051865,315.195609 443.2094,315.378201 443.326094,315.606079 C443.442788,315.833957 443.501135,316.11734 443.501135,316.456236 C443.501135,316.876935 443.409239,317.22313 443.225446,317.494831 C443.041652,317.766532 442.795139,317.969574 442.4859,318.103964 L443.781199,320.391501 L442.337115,320.391501 Z M444.280065,318.217903 C444.280065,317.867321 444.338411,317.550341 444.455105,317.266954 C444.5718,316.983566 444.724959,316.744006 444.914587,316.548264 C445.104215,316.352522 445.321555,316.202066 445.566613,316.096892 C445.811671,315.991717 446.065477,315.93913 446.328039,315.93913 C446.637279,315.93913 446.90713,315.991717 447.137601,316.096892 C447.368072,316.202066 447.560615,316.34814 447.715235,316.535117 C447.869855,316.722094 447.985089,316.942665 448.06094,317.196837 C448.136791,317.45101 448.174716,317.727089 448.174716,318.025084 C448.174716,318.141944 448.168882,318.248578 448.157212,318.344988 C448.145543,318.441398 448.133874,318.515896 448.122204,318.568483 L445.522853,318.568483 C445.5812,318.901536 445.71102,319.142558 445.912318,319.291555 C446.113615,319.440553 446.360128,319.51505 446.651864,319.51505 C446.961104,319.51505 447.273256,319.418642 447.588331,319.225821 L448.01718,320.005863 C447.795461,320.157782 447.548948,320.277562 447.277634,320.365208 C447.00632,320.452853 446.739385,320.496675 446.476823,320.496675 C446.167584,320.496675 445.87877,320.445549 445.610373,320.343296 C445.341976,320.241043 445.108591,320.092048 444.910211,319.896306 C444.71183,319.700565 444.557213,319.462465 444.446353,319.181999 C444.335494,318.901533 444.280065,318.580171 444.280065,318.217903 Z M447.080713,317.770913 C447.080713,317.519662 447.025284,317.315159 446.914425,317.157397 C446.803565,316.999635 446.616857,316.920755 446.354295,316.920755 C446.15008,316.920755 445.970665,316.98941 445.816045,317.126721 C445.661425,317.264033 445.560778,317.478761 445.5141,317.770913 L447.080713,317.770913 Z M448.909887,319.181999 C448.909887,318.726242 449.102429,318.369822 449.48752,318.112729 C449.872611,317.855635 450.493999,317.683268 451.351702,317.595623 C451.340032,317.402802 451.281686,317.249425 451.176661,317.135486 C451.071636,317.021547 450.902432,316.964578 450.669044,316.964578 C450.482333,316.964578 450.295625,316.999636 450.108914,317.069752 C449.922203,317.139869 449.723826,317.236277 449.513776,317.358981 L449.058671,316.508824 C449.338737,316.339376 449.631927,316.202066 449.93825,316.096892 C450.244572,315.991717 450.569852,315.93913 450.9141,315.93913 C451.474233,315.93913 451.901619,316.098351 452.196272,316.416796 C452.490925,316.735242 452.63825,317.230431 452.63825,317.90238 L452.63825,320.391501 L451.588006,320.391501 L451.491734,319.944511 L451.465478,319.944511 C451.278767,320.108116 451.081849,320.241043 450.874716,320.343296 C450.667584,320.445549 450.441492,320.496675 450.196434,320.496675 C449.998054,320.496675 449.820098,320.463078 449.662561,320.395883 C449.505024,320.328688 449.370827,320.235201 449.259968,320.115419 C449.149108,319.995637 449.063047,319.856867 449.001783,319.699105 C448.940518,319.541343 448.909887,319.368976 448.909887,319.181999 Z M450.13517,319.085589 C450.13517,319.225822 450.180389,319.329534 450.270827,319.396729 C450.361265,319.463924 450.482333,319.497521 450.634036,319.497521 C450.785738,319.497521 450.9141,319.465385 451.019125,319.401112 C451.12415,319.336838 451.235008,319.246272 451.351702,319.129412 L451.351702,318.366899 C450.890759,318.431173 450.572772,318.52466 450.397731,318.647364 C450.22269,318.770068 450.13517,318.916141 450.13517,319.085589 Z M453.513452,318.217903 C453.513452,317.861478 453.564505,317.543037 453.666613,317.262571 C453.76872,316.982106 453.902917,316.744006 454.069206,316.548264 C454.235495,316.352522 454.428038,316.202066 454.64684,316.096892 C454.865641,315.991717 455.088816,315.93913 455.31637,315.93913 C455.561427,315.93913 455.762722,315.980031 455.920259,316.061834 C456.077797,316.143636 456.232414,316.254652 456.384117,316.394885 L456.331605,315.728782 L456.331605,314.24758 L457.618152,314.24758 L457.618152,320.391501 L456.567909,320.391501 L456.480389,319.96204 L456.445381,319.96204 C456.293678,320.113959 456.115722,320.241043 455.911507,320.343296 C455.707292,320.445549 455.500163,320.496675 455.290113,320.496675 C455.021717,320.496675 454.778121,320.444089 454.559319,320.338914 C454.340518,320.233739 454.15381,320.083283 453.99919,319.887542 C453.84457,319.6918 453.72496,319.4537 453.640357,319.173234 C453.555753,318.892769 453.513452,318.574328 453.513452,318.217903 Z M454.835008,318.200374 C454.835008,318.632758 454.903565,318.948278 455.040681,319.146941 C455.177796,319.345604 455.371798,319.444934 455.62269,319.444934 C455.762724,319.444934 455.889627,319.415719 456.003404,319.357289 C456.11718,319.298859 456.22658,319.196607 456.331605,319.050531 L456.331605,317.271336 C456.21491,317.166161 456.0953,317.093124 455.972771,317.052223 C455.850242,317.011322 455.730633,316.990872 455.613938,316.990872 C455.409723,316.990872 455.22885,317.088741 455.071313,317.284483 C454.913776,317.480224 454.835008,317.785518 454.835008,318.200374 Z M460.576337,316.044305 L461.62658,316.044305 L461.7141,316.605233 L461.749109,316.605233 C461.929985,316.424099 462.122527,316.2678 462.326742,316.136332 C462.530957,316.004864 462.776012,315.93913 463.061912,315.93913 C463.371152,315.93913 463.620583,316.001942 463.810211,316.127567 C463.999839,316.253193 464.15008,316.432863 464.26094,316.666585 C464.453486,316.467921 464.656239,316.297015 464.869206,316.153861 C465.082173,316.010707 465.33452,315.93913 465.626256,315.93913 C466.093033,315.93913 466.435817,316.095429 466.654619,316.408032 C466.873421,316.720634 466.98282,317.14863 466.98282,317.692032 L466.98282,320.391501 L465.696272,320.391501 L465.696272,317.858558 C465.696272,317.543034 465.653971,317.326845 465.569368,317.209984 C465.484765,317.093124 465.34911,317.034694 465.162399,317.034694 C464.946514,317.034694 464.698543,317.174925 464.418476,317.455391 L464.418476,320.391501 L463.131929,320.391501 L463.131929,317.858558 C463.131929,317.543034 463.089628,317.326845 463.005024,317.209984 C462.920421,317.093124 462.784766,317.034694 462.598055,317.034694 C462.376336,317.034694 462.131282,317.174925 461.862885,317.455391 L461.862885,320.391501 L460.576337,320.391501 L460.576337,316.044305 Z M467.823015,318.217903 C467.823015,317.855635 467.881361,317.532812 467.998055,317.249425 C468.114749,316.966037 468.270826,316.727937 468.466288,316.535117 C468.661751,316.342297 468.887843,316.194762 469.144571,316.092509 C469.401298,315.990256 469.666773,315.93913 469.941005,315.93913 C470.215236,315.93913 470.479253,315.990256 470.733063,316.092509 C470.986873,316.194762 471.211506,316.342297 471.406969,316.535117 C471.602432,316.727937 471.758508,316.966037 471.875203,317.249425 C471.991897,317.532812 472.050243,317.855635 472.050243,318.217903 C472.050243,318.580171 471.991897,318.902994 471.875203,319.186381 C471.758508,319.469768 471.602432,319.707868 471.406969,319.900689 C471.211506,320.093509 470.986873,320.241043 470.733063,320.343296 C470.479253,320.445549 470.215236,320.496675 469.941005,320.496675 C469.666773,320.496675 469.401298,320.445549 469.144571,320.343296 C468.887843,320.241043 468.661751,320.093509 468.466288,319.900689 C468.270826,319.707868 468.114749,319.469768 467.998055,319.186381 C467.881361,318.902994 467.823015,318.580171 467.823015,318.217903 Z M469.144571,318.217903 C469.144571,318.5977 469.21021,318.898612 469.341491,319.120647 C469.472772,319.342683 469.672608,319.453699 469.941005,319.453699 C470.203567,319.453699 470.401944,319.342683 470.536143,319.120647 C470.670341,318.898612 470.737439,318.5977 470.737439,318.217903 C470.737439,317.838106 470.670341,317.537194 470.536143,317.315158 C470.401944,317.093123 470.203567,316.982107 469.941005,316.982107 C469.672608,316.982107 469.472772,317.093123 469.341491,317.315158 C469.21021,317.537194 469.144571,317.838106 469.144571,318.217903 Z M472.934198,316.044305 L473.984441,316.044305 L474.071961,316.806817 L474.106969,316.806817 C474.264506,316.508822 474.454132,316.289712 474.675851,316.149479 C474.89757,316.009246 475.119286,315.93913 475.341005,315.93913 C475.463534,315.93913 475.564181,315.946434 475.64295,315.961042 C475.721718,315.975649 475.793193,315.99756 475.857374,316.026776 L475.647326,317.139868 C475.56564,317.116496 475.48979,317.098967 475.419773,317.087281 C475.349757,317.075595 475.268072,317.069752 475.174716,317.069752 C475.011344,317.069752 474.840682,317.128182 474.662723,317.245042 C474.484764,317.361903 474.33744,317.569328 474.220746,317.867322 L474.220746,320.391501 L472.934198,320.391501 L472.934198,316.044305 Z M476.163695,318.217903 C476.163695,317.867321 476.222042,317.550341 476.338736,317.266954 C476.45543,316.983566 476.608589,316.744006 476.798217,316.548264 C476.987845,316.352522 477.205185,316.202066 477.450243,316.096892 C477.695301,315.991717 477.949107,315.93913 478.211669,315.93913 C478.520909,315.93913 478.790761,315.991717 479.021232,316.096892 C479.251703,316.202066 479.444246,316.34814 479.598865,316.535117 C479.753485,316.722094 479.868719,316.942665 479.944571,317.196837 C480.020422,317.45101 480.058347,317.727089 480.058347,318.025084 C480.058347,318.141944 480.052512,318.248578 480.040843,318.344988 C480.029173,318.441398 480.017504,318.515896 480.005835,318.568483 L477.406483,318.568483 C477.46483,318.901536 477.594651,319.142558 477.795948,319.291555 C477.997246,319.440553 478.243759,319.51505 478.535494,319.51505 C478.844734,319.51505 479.156887,319.418642 479.471961,319.225821 L479.90081,320.005863 C479.679091,320.157782 479.432578,320.277562 479.161264,320.365208 C478.88995,320.452853 478.623016,320.496675 478.360454,320.496675 C478.051214,320.496675 477.7624,320.445549 477.494003,320.343296 C477.225606,320.241043 476.992221,320.092048 476.793841,319.896306 C476.595461,319.700565 476.440843,319.462465 476.329984,319.181999 C476.219124,318.901533 476.163695,318.580171 476.163695,318.217903 Z M478.964344,317.770913 C478.964344,317.519662 478.908915,317.315159 478.798055,317.157397 C478.687196,316.999635 478.500488,316.920755 478.237925,316.920755 C478.03371,316.920755 477.854296,316.98941 477.699676,317.126721 C477.545056,317.264033 477.444409,317.478761 477.397731,317.770913 L478.964344,317.770913 Z" id="Read-more" fill="#FFFFFF"></path>
            <path d="M423.987034,52.6374583 L423.987034,59.2238616" id="Line" stroke="#979797" stroke-width="3" stroke-linecap="square"></path>
            <path d="M428.849271,48.2823891 L428.849271,59.6023529" id="Line" stroke="#979797" stroke-width="3" stroke-linecap="square"></path>
            <path d="M434.197731,50.3246083 L434.197731,59.8497352" id="Line" stroke="#979797" stroke-width="3" stroke-linecap="square"></path>
            <path d="M439.059968,46.8315848 L439.059968,59.9152898" id="Line" stroke="#979797" stroke-width="3" stroke-linecap="square"></path>
            <path d="M418.638574,42.185146 L418.638574,63.6680091" id="Line" stroke="#979797" stroke-linecap="square"></path>
            <path d="M442.371608,63.6238442 L420.05566,63.6238442" id="Line" stroke="#979797" stroke-linecap="square"></path>
            <path d="M463.409339,46.2571316 L517.948154,46.2571316" id="Line" stroke="#979797" stroke-width="7" stroke-linecap="square"></path>
            <path d="M462.598055,63.2992327 L598.341977,63.2992327" id="Line" stroke="#D7D9D9" stroke-width="4" stroke-linecap="square"></path>
            <path d="M462.598055,74.336022 L598.341977,74.336022" id="Line" stroke="#D7D9D9" stroke-width="4" stroke-linecap="square"></path>
            <path d="M462.436891,85.168316 L598.072132,85.168316" id="Line" stroke="#D7D9D9" stroke-width="4" stroke-linecap="square"></path>
            <path d="M462.436891,95.231271 L523.188057,95.231271" id="Line" stroke="#D7D9D9" stroke-width="4" stroke-linecap="square"></path>
            <path d="M462.436891,186.7717 L523.188057,186.7717" id="Line" stroke="#D7D9D9" stroke-width="4" stroke-linecap="square"></path>
            <path d="M462.436891,281.233632 L523.188057,281.233632" id="Line" stroke="#D7D9D9" stroke-width="4" stroke-linecap="square"></path>
            <path d="M463.409339,136.823726 L517.948154,136.823726" id="Line" stroke="#979797" stroke-width="7" stroke-linecap="square"></path>
            <path d="M462.598055,153.865827 L598.341977,153.865827" id="Line" stroke="#D7D9D9" stroke-width="4" stroke-linecap="square"></path>
            <path d="M462.598055,165.227228 L598.341977,165.227228" id="Line" stroke="#D7D9D9" stroke-width="4" stroke-linecap="square"></path>
            <path d="M462.436891,176.384133 L599.032621,176.384133" id="Line" stroke="#D7D9D9" stroke-width="4" stroke-linecap="square"></path>
            <path d="M463.409339,231.285658 L517.948154,231.285658" id="Line" stroke="#979797" stroke-width="7" stroke-linecap="square"></path>
            <path d="M462.598055,248.327759 L598.341977,248.327759" id="Line" stroke="#D7D9D9" stroke-width="4" stroke-linecap="square"></path>
            <path d="M462.598055,259.68916 L598.341977,259.68916" id="Line" stroke="#D7D9D9" stroke-width="4" stroke-linecap="square"></path>
            <path d="M462.436891,270.846065 L598.06021,270.846065" id="Line" stroke="#D7D9D9" stroke-width="4" stroke-linecap="square"></path>
            <use id="Rectangle-9" stroke="#979797" mask="url(#mask-2)" stroke-width="2" fill="#F2F2F2" stroke-dasharray="4" xlink:href="#path-1"></use>
            <g id="icon-picture" opacity="0.699999988" transform="translate(159.481361, 200.609876)" stroke="#979797">
                <polyline id="Path-15" stroke-width="2" points="1.23585129 35.8933481 21.00702 15.2667069 34.9036201 29.8869439 43.0431569 21.3235574 58.4510059 37.5337385"></polyline>
                <ellipse id="Oval-6" fill="#D8D8D8" cx="48.6223663" cy="10.7121778" rx="2.91734198" ry="2.92150305"></ellipse>
                <rect id="Rectangle-10" stroke-width="2" x="1" y="1" width="57.3192869" height="39.874877" rx="3"></rect>
            </g>
            <path d="M1.45867099,2.43458587 L81.2526999,2.43458587" id="Line" stroke="#D7D9D9" stroke-width="5" stroke-linecap="square"></path>
            <path d="M5.18119935,28.4048003 C4.41101722,28.4048003 3.70794483,28.267491 3.0719611,27.9928684 C2.43597737,27.7182457 1.89043988,27.3238468 1.43533225,26.8096596 C0.980224629,26.2954725 0.62722978,25.6702771 0.376337115,24.9340547 C0.125444451,24.1978322 0,23.3622907 0,22.4274051 C0,21.4925194 0.125444451,20.6598994 0.376337115,19.92952 C0.62722978,19.1991406 0.980224629,18.585631 1.43533225,18.088973 C1.89043988,17.592315 2.43597737,17.2125234 3.0719611,16.9495869 C3.70794483,16.6866503 4.41101722,16.5551839 5.18119935,16.5551839 C5.95138148,16.5551839 6.65445387,16.6866503 7.2904376,16.9495869 C7.92642133,17.2125234 8.47195883,17.5952365 8.92706645,18.0977376 C9.38217407,18.6002386 9.73516892,19.2166696 9.98606159,19.947049 C10.2369543,20.6774284 10.3623987,21.5042055 10.3623987,22.4274051 C10.3623987,23.3622907 10.2369543,24.1978322 9.98606159,24.9340547 C9.73516892,25.6702771 9.38217407,26.2954725 8.92706645,26.8096596 C8.47195883,27.3238468 7.92642133,27.7182457 7.2904376,27.9928684 C6.65445387,28.267491 5.95138148,28.4048003 5.18119935,28.4048003 Z M5.18119935,26.178615 C5.96305091,26.178615 6.58152123,25.8426455 7.03662885,25.1706964 C7.49173647,24.4987474 7.71928687,23.5843261 7.71928687,22.4274051 C7.71928687,21.2821702 7.49173647,20.3881992 7.03662885,19.7454653 C6.58152123,19.1027314 5.96305091,18.7813693 5.18119935,18.7813693 C4.39934779,18.7813693 3.78087748,19.1027314 3.32576985,19.7454653 C2.87066223,20.3881992 2.64311183,21.2821702 2.64311183,22.4274051 C2.64311183,23.5843261 2.87066223,24.4987474 3.32576985,25.1706964 C3.78087748,25.8426455 4.39934779,26.178615 5.18119935,26.178615 Z M12.4453809,16.7655322 L15.0359806,16.7655322 L15.0359806,23.1636238 C15.0359806,24.2854866 15.2051847,25.0684416 15.5435981,25.5125123 C15.8820114,25.956583 16.37212,26.178615 17.0139384,26.178615 C17.6557569,26.178615 18.1517,25.956583 18.5017828,25.5125123 C18.8518656,25.0684416 19.0269044,24.2854866 19.0269044,23.1636238 L19.0269044,16.7655322 L21.5124797,16.7655322 L21.5124797,22.9006886 C21.5124797,24.8172042 21.1303118,26.2136686 20.3659643,27.0901239 C19.6016169,27.9665792 18.4842861,28.4048003 17.0139384,28.4048003 C15.5319213,28.4048003 14.4000039,27.9665792 13.6181524,27.0901239 C12.8363008,26.2136686 12.4453809,24.8172042 12.4453809,22.9006886 L12.4453809,16.7655322 Z M26.7286872,22.0242377 L28.0589951,22.0242377 C28.7358219,22.0242377 29.2521862,21.8810854 29.6081037,21.5947767 C29.9640212,21.308468 30.1419773,20.8848543 30.1419773,20.3239229 C30.1419773,19.7629915 29.9640212,19.371514 29.6081037,19.1494787 C29.2521862,18.9274433 28.7358219,18.8164273 28.0589951,18.8164273 L26.7286872,18.8164273 L26.7286872,22.0242377 Z M30.3345219,28.1944521 L28.1465154,24.0751328 L26.7286872,24.0751328 L26.7286872,28.1944521 L24.1555916,28.1944521 L24.1555916,16.7655322 L28.2690438,16.7655322 C28.8758539,16.7655322 29.4447299,16.8239616 29.9756888,16.9408223 C30.5066477,17.0576831 30.9705004,17.2534218 31.3672609,17.5280445 C31.7640214,17.8026671 32.0790912,18.1678514 32.3124797,18.6236081 C32.5458683,19.0793649 32.6625608,19.6461308 32.6625608,20.3239229 C32.6625608,21.16532 32.4787701,21.8577093 32.1111831,22.4011115 C31.7435962,22.9445138 31.2505704,23.3505987 30.6320908,23.6193783 L33.2226904,28.1944521 L30.3345219,28.1944521 Z" id="OUR" fill="#9B9B9B"></path>
            <path d="M43.2855754,24.9866417 C43.6940053,25.3372239 44.1461888,25.6235283 44.6421394,25.8455636 C45.13809,26.067599 45.6252812,26.178615 46.1037277,26.178615 C46.6405213,26.178615 47.0401932,26.0792849 47.3027553,25.8806217 C47.5653174,25.6819585 47.6965964,25.4131829 47.6965964,25.0742868 C47.6965964,24.8989958 47.6586714,24.7470791 47.5828201,24.6185324 C47.5069688,24.4899856 47.3961109,24.3760481 47.2502431,24.2767165 C47.1043753,24.1773849 46.9293365,24.0838977 46.7251216,23.9962522 L46.0512156,23.7070234 L44.5633712,23.0759788 C44.2716355,22.959118 43.9886562,22.8072014 43.7144246,22.6202243 C43.4401931,22.4332471 43.1951388,22.2141366 42.9792545,21.9628861 C42.7633701,21.7116356 42.5912486,21.4194882 42.4628849,21.0864352 C42.3345212,20.7533822 42.2703404,20.376512 42.2703404,19.9558135 C42.2703404,19.4883707 42.369529,19.0472281 42.5679092,18.6323726 C42.7662895,18.2175171 43.0463515,17.8552544 43.4081037,17.5455735 C43.7698559,17.2358926 44.1987009,16.9934103 44.6946515,16.8181192 C45.1906022,16.6428282 45.7361396,16.5551839 46.3312804,16.5551839 C46.9964377,16.5551839 47.6528331,16.6837288 48.3004862,16.9408223 C48.9481394,17.1979159 49.5170154,17.5718646 50.0071313,18.0626795 L48.6943274,19.6928782 C48.3209058,19.4007265 47.9474897,19.175773 47.5740681,19.018011 C47.2006464,18.8602491 46.786388,18.7813693 46.3312804,18.7813693 C45.8878422,18.7813693 45.5348473,18.871935 45.2722853,19.0530691 C45.0097232,19.2342031 44.8784441,19.4883714 44.8784441,19.8155813 C44.8784441,19.9908724 44.9222038,20.1398676 45.0097245,20.2625713 C45.0972452,20.3852751 45.2197723,20.4962911 45.3773096,20.5956227 C45.5348468,20.6949543 45.7186375,20.7884414 45.9286872,20.876087 C46.1387369,20.9637325 46.3662873,21.0601411 46.6113452,21.1653158 L48.0816856,21.7613024 C48.7818512,22.0417681 49.3332233,22.4274026 49.7358185,22.9182176 C50.1384137,23.4090326 50.3397083,24.0575997 50.3397083,24.8639386 C50.3397083,25.3430675 50.2434369,25.795896 50.0508914,26.2224375 C49.8583459,26.6489791 49.5782838,27.0229278 49.2106969,27.3442947 C48.84311,27.6656617 48.3909265,27.9227513 47.8541329,28.1155715 C47.3173393,28.3083917 46.7105382,28.4048003 46.0337115,28.4048003 C45.2868682,28.4048003 44.5429535,28.267491 43.8019449,27.9928684 C43.0609363,27.7182457 42.3987063,27.3063179 41.815235,26.7570726 L43.2855754,24.9866417 Z M52.282658,16.7655322 L59.4243112,16.7655322 L59.4243112,18.9391304 L54.8557536,18.9391304 L54.8557536,21.2354318 L58.7416532,21.2354318 L58.7416532,23.3915011 L54.8557536,23.3915011 L54.8557536,26.0208538 L59.5993517,26.0208538 L59.5993517,28.1944521 L52.282658,28.1944521 L52.282658,16.7655322 Z M64.4479741,22.0242377 L65.778282,22.0242377 C66.4551087,22.0242377 66.9714731,21.8810854 67.3273906,21.5947767 C67.6833081,21.308468 67.8612642,20.8848543 67.8612642,20.3239229 C67.8612642,19.7629915 67.6833081,19.371514 67.3273906,19.1494787 C66.9714731,18.9274433 66.4551087,18.8164273 65.778282,18.8164273 L64.4479741,18.8164273 L64.4479741,22.0242377 Z M68.0538088,28.1944521 L65.8658023,24.0751328 L64.4479741,24.0751328 L64.4479741,28.1944521 L61.8748784,28.1944521 L61.8748784,16.7655322 L65.9883306,16.7655322 C66.5951408,16.7655322 67.1640168,16.8239616 67.6949757,16.9408223 C68.2259346,17.0576831 68.6897873,17.2534218 69.0865478,17.5280445 C69.4833083,17.8026671 69.7983781,18.1678514 70.0317666,18.6236081 C70.2651551,19.0793649 70.3818476,19.6461308 70.3818476,20.3239229 C70.3818476,21.16532 70.1980569,21.8577093 69.83047,22.4011115 C69.4628831,22.9445138 68.9698572,23.3505987 68.3513776,23.6193783 L70.9419773,28.1944521 L68.0538088,28.1944521 Z M71.187034,16.7655322 L73.9176661,16.7655322 L75.2829822,22.0943537 C75.4580236,22.7254015 75.6126411,23.3359896 75.7468395,23.9261361 C75.8810379,24.5162827 76.0356555,25.1268707 76.2106969,25.7579186 L76.2807131,25.7579186 C76.4440851,25.1268707 76.5957854,24.5162827 76.7358185,23.9261361 C76.8758516,23.3359896 77.0275519,22.7254015 77.1909238,22.0943537 L78.5387358,16.7655322 L81.1643436,16.7655322 L77.7335494,28.1944521 L74.6353323,28.1944521 L71.187034,16.7655322 Z M82.3896272,16.7655322 L84.9627229,16.7655322 L84.9627229,28.1944521 L82.3896272,28.1944521 L82.3896272,16.7655322 Z M87.1157212,22.5501082 C87.1157212,21.6035365 87.2615869,20.7592305 87.5533225,20.0171651 C87.8450582,19.2750996 88.2388954,18.6469827 88.734846,18.1327956 C89.2307966,17.6186085 89.8084246,17.227131 90.4677472,16.9583514 C91.1270697,16.6895717 91.8243075,16.5551839 92.5594814,16.5551839 C93.2713164,16.5551839 93.9160425,16.7041791 94.4936791,17.0021739 C95.0713157,17.3001687 95.5526723,17.6478241 95.9377634,18.0451505 L94.5199352,19.6402912 C94.2281995,19.3715115 93.9335509,19.1611654 93.6359806,19.0092465 C93.3384102,18.8573276 92.99125,18.7813693 92.5944895,18.7813693 C92.197729,18.7813693 91.8272302,18.866092 91.4829822,19.03554 C91.1387341,19.2049881 90.8382509,19.4474704 90.5815235,19.7629943 C90.3247961,20.0785182 90.1235015,20.4641527 89.9776337,20.9199095 C89.8317659,21.3756663 89.7588331,21.8898457 89.7588331,22.4624631 C89.7588331,23.6427562 90.009722,24.5571776 90.5115073,25.2057545 C91.0132926,25.8543314 91.6842746,26.178615 92.5244733,26.178615 C92.9912503,26.178615 93.3996741,26.0851278 93.7497569,25.8981507 C94.0998397,25.7111736 94.4149095,25.4657698 94.6949757,25.1619319 L96.1128039,26.7220146 C95.6343574,27.2829459 95.0888199,27.7036382 94.476175,27.9841039 C93.8635302,28.2645696 93.2013002,28.4048003 92.4894652,28.4048003 C91.7542913,28.4048003 91.0599709,28.2791769 90.406483,28.0279264 C89.7529951,27.7766759 89.1812018,27.4056487 88.6910859,26.9148338 C88.20097,26.4240188 87.8158847,25.8134308 87.5358185,25.0830513 C87.2557522,24.3526719 87.1157212,23.508366 87.1157212,22.5501082 Z M97.845705,16.7655322 L104.987358,16.7655322 L104.987358,18.9391304 L100.418801,18.9391304 L100.418801,21.2354318 L104.3047,21.2354318 L104.3047,23.3915011 L100.418801,23.3915011 L100.418801,26.0208538 L105.162399,26.0208538 L105.162399,28.1944521 L97.845705,28.1944521 L97.845705,16.7655322 Z M108.173096,24.9866417 C108.581526,25.3372239 109.033709,25.6235283 109.52966,25.8455636 C110.02561,26.067599 110.512801,26.178615 110.991248,26.178615 C111.528042,26.178615 111.927713,26.0792849 112.190276,25.8806217 C112.452838,25.6819585 112.584117,25.4131829 112.584117,25.0742868 C112.584117,24.8989958 112.546192,24.7470791 112.47034,24.6185324 C112.394489,24.4899856 112.283631,24.3760481 112.137763,24.2767165 C111.991896,24.1773849 111.816857,24.0838977 111.612642,23.9962522 L110.938736,23.7070234 L109.450891,23.0759788 C109.159156,22.959118 108.876176,22.8072014 108.601945,22.6202243 C108.327713,22.4332471 108.082659,22.2141366 107.866775,21.9628861 C107.65089,21.7116356 107.478769,21.4194882 107.350405,21.0864352 C107.222041,20.7533822 107.157861,20.376512 107.157861,19.9558135 C107.157861,19.4883707 107.257049,19.0472281 107.455429,18.6323726 C107.65381,18.2175171 107.933872,17.8552544 108.295624,17.5455735 C108.657376,17.2358926 109.086221,16.9934103 109.582172,16.8181192 C110.078122,16.6428282 110.62366,16.5551839 111.218801,16.5551839 C111.883958,16.5551839 112.540353,16.6837288 113.188006,16.9408223 C113.83566,17.1979159 114.404536,17.5718646 114.894652,18.0626795 L113.581848,19.6928782 C113.208426,19.4007265 112.83501,19.175773 112.461588,19.018011 C112.088167,18.8602491 111.673908,18.7813693 111.218801,18.7813693 C110.775362,18.7813693 110.422368,18.871935 110.159806,19.0530691 C109.897243,19.2342031 109.765964,19.4883714 109.765964,19.8155813 C109.765964,19.9908724 109.809724,20.1398676 109.897245,20.2625713 C109.984765,20.3852751 110.107293,20.4962911 110.26483,20.5956227 C110.422367,20.6949543 110.606158,20.7884414 110.816207,20.876087 C111.026257,20.9637325 111.253808,21.0601411 111.498865,21.1653158 L112.969206,21.7613024 C113.669371,22.0417681 114.220744,22.4274026 114.623339,22.9182176 C115.025934,23.4090326 115.227229,24.0575997 115.227229,24.8639386 C115.227229,25.3430675 115.130957,25.795896 114.938412,26.2224375 C114.745866,26.6489791 114.465804,27.0229278 114.098217,27.3442947 C113.73063,27.6656617 113.278447,27.9227513 112.741653,28.1155715 C112.20486,28.3083917 111.598058,28.4048003 110.921232,28.4048003 C110.174388,28.4048003 109.430474,28.267491 108.689465,27.9928684 C107.948457,27.7182457 107.286227,27.3063179 106.702755,26.7570726 L108.173096,24.9866417 Z" id="SERVICES" fill="#4990E2"></path>
            <path d="M0.486223663,56.4823923 L377.310817,56.4823923" id="Line" stroke="#979797" stroke-width="4" stroke-linecap="square"></path>
            <path d="M0.486223663,73.0375762 L377.309562,73.0375762" id="Line" stroke="#979797" stroke-width="4" stroke-linecap="square"></path>
            <path d="M0.486223663,88.6189258 L55.7384352,88.6189258" id="Line" stroke="#979797" stroke-width="4" stroke-linecap="square"></path>
            <path d="M426.26216,245.400633 C425.160987,237.692596 426.813751,233.799467 431.220451,233.721246 C437.830501,233.603915 436.722504,243.822523 436.478506,245.400633" id="Path-5" stroke="#979797"></path>
            <path d="M423.014587,249.974076 C423.014587,247.265671 424.743226,246.038795 426.412741,245.265499 C427.52575,244.749968 428.252536,244.619161 428.593098,244.873077 C428.713469,245.675208 428.858803,246.238058 429.029099,246.561628 C429.46818,247.3959 430.095679,247.816642 430.911595,247.823855 C432.847484,247.840969 433.80128,246.070023 433.80128,244.45276 C433.802921,244.376089 434.462687,244.516195 435.78058,244.873077 C438.543725,247.070309 439.919205,248.729747 439.907019,249.851392" id="Path-6" stroke="#979797"></path>
            <path d="M429.719146,237.615581 C430.641601,238.791648 431.57501,239.619619 432.519375,240.099492 C433.935922,240.819303 434.415896,241.871979 434.311676,242.748724 C434.207456,243.625468 432.093005,246.605511 431.320231,246.642991 C430.547457,246.68047 427.722448,244.473804 427.883435,242.791337 C427.99076,241.669692 428.602664,239.94444 429.719146,237.615581 Z" id="Path-7" stroke="#979797"></path>
            <ellipse id="Oval-2" stroke="#979797" cx="431.766613" cy="240.537084" rx="12.6418152" ry="12.6598465"></ellipse>
            <rect id="Rectangle-5" stroke="#979797" x="416.707455" y="132.941472" width="27.2009724" height="23.3458587"></rect>
            <polygon id="Triangle" stroke="#979797" transform="translate(430.307942, 142.666732) rotate(90.000000) translate(-430.307942, -142.666732) " points="430.307942 139.258312 434.683955 146.075152 425.931929 146.075152"></polygon>
            <path d="M443.922204,152.405076 L424.473258,152.405076" id="Line" stroke="#979797" stroke-linecap="square"></path>
            <path d="M423.50081,151.431241 L423.50081,153.37891" id="Line" stroke="#979797" stroke-linecap="square"></path>
            <path d="M421.555916,152.405076 L416.693679,152.405076" id="Line" stroke="#979797" stroke-linecap="square"></path>
        </g>
    </g>
</svg>