<?xml version="1.0" encoding="UTF-8"?>
<svg width="600px" height="301px" viewBox="0 0 600 301" version="1.1" xmlns="http://www.w3.org/2000/svg" xmlns:xlink="http://www.w3.org/1999/xlink">
    <!-- Generator: Sketch 44.1 (41455) - http://www.bohemiancoding.com/sketch -->
    <title>services13</title>
    <desc>Created with Sketch.</desc>
    <defs>
        <rect id="path-1" x="0.472785023" y="0.706832404" width="299.527215" height="299.605409"></rect>
        <mask id="mask-2" maskContentUnits="userSpaceOnUse" maskUnits="objectBoundingBox" x="0" y="0" width="299.527215" height="299.605409" fill="white">
            <use xlink:href="#path-1"></use>
        </mask>
        <rect id="path-3" x="33.6214818" y="17.971419" width="8.36022832" height="1" rx="0.5"></rect>
    </defs>
    <g id="Services" stroke="none" stroke-width="1" fill="none" fill-rule="evenodd">
        <g id="13">
            <rect id="Rectangle-14" fill="#F8F8F8" x="300" y="0.190271355" width="299.527215" height="299.605409"></rect>
            <use id="Rectangle-9" stroke="#979797" mask="url(#mask-2)" stroke-width="2" fill="#F2F2F2" stroke-dasharray="4" xlink:href="#path-1"></use>
            <g id="icon-picture" opacity="0.699999988" transform="translate(97.044491, 115.899946)" stroke="#979797">
                <polyline id="Path-15" stroke-width="2" points="2.20562892 64.2022257 37.4913159 27.3074711 62.2926357 53.4586051 76.819301 38.1413247 104.317753 67.1363826"></polyline>
                <ellipse id="Oval-6" fill="#D8D8D8" cx="86.7765391" cy="19.160811" rx="5.20659235" ry="5.22567573"></ellipse>
                <rect id="Rectangle-10" stroke-width="2" x="1" y="1" width="103.867378" height="72.9013522" rx="3"></rect>
            </g>
            <path d="M425.662221,32.0185132 L468.740711,32.0185132" id="Line" stroke="#4990E2" stroke-width="6" stroke-linecap="square"></path>
            <path d="M420.907177,53.3447076 C420.359806,53.3447076 419.86013,53.2470972 419.408134,53.0518734 C418.956138,52.8566496 418.568423,52.5762793 418.244976,52.2107539 C417.921529,51.8452286 417.670655,51.4007896 417.492344,50.8774238 C417.314034,50.354058 417.22488,49.7600882 417.22488,49.0954966 C417.22488,48.4309051 417.314034,47.8390121 417.492344,47.3198 C417.670655,46.8005878 417.921529,46.3644561 418.244976,46.0113919 C418.568423,45.6583276 418.956138,45.3883414 419.408134,45.201425 C419.86013,45.0145086 420.359806,44.9210518 420.907177,44.9210518 C421.454548,44.9210518 421.954224,45.0145086 422.40622,45.201425 C422.858216,45.3883414 423.245931,45.6604044 423.569378,46.0176224 C423.892825,46.3748404 424.143699,46.8130488 424.32201,47.332261 C424.50032,47.8514731 424.589474,48.4392125 424.589474,49.0954966 C424.589474,49.7600882 424.50032,50.354058 424.32201,50.8774238 C424.143699,51.4007896 423.892825,51.8452286 423.569378,52.2107539 C423.245931,52.5762793 422.858216,52.8566496 422.40622,53.0518734 C421.954224,53.2470972 421.454548,53.3447076 420.907177,53.3447076 Z M420.907177,51.7621569 C421.462842,51.7621569 421.902391,51.5233229 422.225837,51.0456477 C422.549284,50.5679725 422.711005,49.9179287 422.711005,49.0954966 C422.711005,48.281372 422.549284,47.6458658 422.225837,47.1889591 C421.902391,46.7320525 421.462842,46.5036025 420.907177,46.5036025 C420.351512,46.5036025 419.911963,46.7320525 419.588517,47.1889591 C419.26507,47.6458658 419.103349,48.281372 419.103349,49.0954966 C419.103349,49.9179287 419.26507,50.5679725 419.588517,51.0456477 C419.911963,51.5233229 420.351512,51.7621569 420.907177,51.7621569 Z M425.908134,47.0145047 L427.736842,47.0145047 L427.736842,50.6157422 C427.736842,51.0643415 427.799042,51.3717105 427.923445,51.5378584 C428.047848,51.7040062 428.242742,51.7870789 428.508134,51.7870789 C428.740352,51.7870789 428.935246,51.7330817 429.092823,51.6250856 C429.2504,51.5170894 429.420414,51.3426368 429.602871,51.1017223 L429.602871,47.0145047 L431.431579,47.0145047 L431.431579,53.1951752 L429.938756,53.1951752 L429.801914,52.3353642 L429.764593,52.3353642 C429.499201,52.6510452 429.215153,52.8981865 428.91244,53.0767955 C428.609727,53.2554044 428.246892,53.3447076 427.823923,53.3447076 C427.15215,53.3447076 426.664914,53.1245649 426.362201,52.684273 C426.059488,52.2439811 425.908134,51.6333968 425.908134,50.8525017 L425.908134,47.0145047 Z M433.036364,47.0145047 L434.529187,47.0145047 L434.653589,48.0986143 L434.703349,48.0986143 C434.927274,47.6749372 435.196809,47.3634146 435.511962,47.1640371 C435.827115,46.9646596 436.142263,46.8649724 436.457416,46.8649724 C436.63158,46.8649724 436.774641,46.8753565 436.886603,46.896125 C436.998565,46.9168934 437.100159,46.9480457 437.191388,46.9895827 L436.892823,48.5721334 C436.776714,48.5389038 436.6689,48.513982 436.569378,48.4973672 C436.469856,48.4807524 436.353749,48.4724452 436.221053,48.4724452 C435.988835,48.4724452 435.746253,48.5555179 435.493301,48.7216657 C435.24035,48.8878136 435.030942,49.1827217 434.865072,49.6063988 L434.865072,53.1951752 L433.036364,53.1951752 L433.036364,47.0145047 Z M440.911005,51.4132481 C441.201277,51.7206216 441.543379,51.9677629 441.937321,52.1546793 C442.331262,52.3415957 442.739711,52.4350525 443.162679,52.4350525 C443.701757,52.4350525 444.120573,52.3125202 444.419139,52.0674521 C444.717705,51.822384 444.866986,51.5004773 444.866986,51.1017223 C444.866986,50.8940375 444.831739,50.717508 444.761244,50.5721286 C444.690749,50.4267492 444.595375,50.3021401 444.47512,50.1982977 C444.354864,50.0944553 444.211803,50.0009985 444.045933,49.9179246 C443.880063,49.8348506 443.701755,49.7476243 443.511005,49.6562429 L442.341627,49.1453407 C442.150876,49.0622668 441.955982,48.9625796 441.756938,48.846276 C441.557894,48.7299725 441.379586,48.5887489 441.22201,48.422601 C441.064433,48.2564532 440.935886,48.0591555 440.836364,47.8307022 C440.736842,47.6022488 440.687081,47.338493 440.687081,47.0394268 C440.687081,46.7320532 440.751355,46.4454524 440.879904,46.1796158 C441.008454,45.9137792 441.186761,45.6832524 441.414833,45.4880287 C441.642904,45.2928049 441.912439,45.1411972 442.223445,45.0332011 C442.534451,44.925205 442.876553,44.8712077 443.249761,44.8712077 C443.739077,44.8712077 444.191067,44.9646645 444.605742,45.1515809 C445.020417,45.3384972 445.372885,45.5814849 445.663158,45.8805511 L445.103349,46.5534467 C444.854544,46.3125322 444.578789,46.1235418 444.276077,45.9864698 C443.973364,45.8493978 443.631262,45.7808628 443.249761,45.7808628 C442.793618,45.7808628 442.426636,45.8867805 442.148804,46.0986191 C441.870971,46.3104576 441.732057,46.6032889 441.732057,46.9771217 C441.732057,47.1764991 441.771451,47.3447213 441.850239,47.4817933 C441.929028,47.6188653 442.034768,47.7393208 442.167464,47.8431632 C442.30016,47.9470056 442.445294,48.0383856 442.602871,48.1173058 C442.760447,48.1962261 442.922168,48.2689147 443.088038,48.3353738 L444.244976,48.833815 C444.477194,48.9335037 444.696969,49.0477287 444.904306,49.1764933 C445.111644,49.3052579 445.289951,49.4547888 445.439234,49.6250904 C445.588517,49.7953919 445.706698,49.9947664 445.79378,50.2232198 C445.880862,50.4516731 445.924402,50.7154289 445.924402,51.0144951 C445.924402,51.3384835 445.860128,51.6416988 445.731579,51.9241503 C445.60303,52.2066017 445.418502,52.4537429 445.17799,52.6655815 C444.937479,52.8774201 444.647211,53.0435654 444.307177,53.1640227 C443.967143,53.2844799 443.581501,53.3447076 443.150239,53.3447076 C442.577988,53.3447076 442.047211,53.2367131 441.557895,53.0207208 C441.068578,52.8047286 440.645616,52.5098205 440.288995,52.1359878 L440.911005,51.4132481 Z M446.981818,50.1796062 C446.981818,49.6811625 447.058532,49.2346468 447.211962,48.8400455 C447.365392,48.4454443 447.568579,48.1110767 447.821531,47.8369327 C448.074483,47.5627887 448.362678,47.3530301 448.686124,47.2076507 C449.009571,47.0622713 449.345453,46.9895827 449.69378,46.9895827 C450.075281,46.9895827 450.417383,47.0560408 450.720096,47.1889591 C451.022809,47.3218775 451.275757,47.5129447 451.478947,47.7621665 C451.682138,48.0113883 451.837639,48.31045 451.945455,48.6593606 C452.05327,49.0082712 452.107177,49.3987128 452.107177,49.8306973 C452.107177,50.054997 452.094737,50.2419106 452.069856,50.3914437 L447.989474,50.3914437 C448.030941,51.0477278 448.232056,51.5669322 448.592823,51.9490723 C448.95359,52.3312125 449.42424,52.5222797 450.004785,52.5222797 C450.295057,52.5222797 450.562519,52.4786665 450.807177,52.3914389 C451.051835,52.3042112 451.286123,52.1899863 451.510048,52.0487605 L451.870813,52.7216561 C451.605421,52.887804 451.311006,53.0331812 450.98756,53.1577922 C450.664113,53.2824031 450.295058,53.3447076 449.880383,53.3447076 C449.474001,53.3447076 449.094579,53.272019 448.742105,53.1266396 C448.389631,52.9812602 448.082776,52.7735784 447.821531,52.5035881 C447.560286,52.2335978 447.355025,51.9033838 447.205742,51.5129363 C447.056459,51.1224888 446.981818,50.6780498 446.981818,50.1796062 Z M451.211483,49.7185481 C451.211483,49.0954935 451.080863,48.6199023 450.819617,48.2917602 C450.558372,47.9636182 450.19139,47.7995496 449.71866,47.7995496 C449.503029,47.7995496 449.297768,47.8431627 449.102871,47.9303904 C448.907974,48.017618 448.731739,48.1422271 448.574163,48.3042213 C448.416586,48.4662155 448.285965,48.6655899 448.182297,48.9023507 C448.078628,49.1391114 448.010208,49.4111745 447.977033,49.7185481 L451.211483,49.7185481 Z M453.6,47.139115 L454.445933,47.139115 L454.533014,48.2356856 L454.570335,48.2356856 C454.777672,47.8535455 455.028547,47.5503301 455.322967,47.3260305 C455.617386,47.1017308 455.938754,46.9895827 456.287081,46.9895827 C456.527593,46.9895827 456.743221,47.031119 456.933971,47.114193 L456.734928,48.0113871 C456.635406,47.9781575 456.544179,47.9532357 456.461244,47.9366209 C456.378309,47.9200061 456.274642,47.9116988 456.150239,47.9116988 C455.893141,47.9116988 455.625679,48.0155397 455.347847,48.2232246 C455.070015,48.4309094 454.827433,48.7922757 454.620096,49.3073341 L454.620096,53.1951752 L453.6,53.1951752 L453.6,47.139115 Z M457.045933,47.139115 L458.103349,47.139115 L459.247847,50.5783591 C459.339075,50.8774253 459.432376,51.176487 459.527751,51.4755532 C459.623126,51.7746194 459.716427,52.0695275 459.807656,52.3602863 L459.857416,52.3602863 C459.948645,52.0695275 460.039872,51.7746194 460.1311,51.4755532 L460.404785,50.5783591 L461.549282,47.139115 L462.556938,47.139115 L460.417225,53.1951752 L459.222967,53.1951752 L457.045933,47.139115 Z M464.248804,45.8930121 C464.04976,45.8930121 463.881819,45.8307076 463.744976,45.7060967 C463.608133,45.5814858 463.539713,45.4236476 463.539713,45.2325776 C463.539713,45.0332001 463.608133,44.8732852 463.744976,44.7528279 C463.881819,44.6323707 464.04976,44.572143 464.248804,44.572143 C464.447848,44.572143 464.615789,44.6323707 464.752632,44.7528279 C464.889474,44.8732852 464.957895,45.0332001 464.957895,45.2325776 C464.957895,45.4236476 464.889474,45.5814858 464.752632,45.7060967 C464.615789,45.8307076 464.447848,45.8930121 464.248804,45.8930121 Z M463.726316,47.139115 L464.746411,47.139115 L464.746411,53.1951752 L463.726316,53.1951752 L463.726316,47.139115 Z M466.338756,50.1796062 C466.338756,49.6728551 466.417543,49.2221857 466.57512,48.8275845 C466.732696,48.4329833 466.944177,48.0986157 467.209569,47.8244716 C467.474961,47.5503276 467.78389,47.3426459 468.136364,47.2014202 C468.488837,47.0601945 468.859966,46.9895827 469.249761,46.9895827 C469.647849,46.9895827 469.989951,47.0622713 470.276077,47.2076507 C470.562202,47.3530301 470.80893,47.5212523 471.016268,47.7123224 L470.50622,48.3727569 C470.323763,48.2149164 470.135089,48.0861538 469.940191,47.986465 C469.745294,47.8867763 469.527593,47.8369327 469.287081,47.8369327 C469.013396,47.8369327 468.760448,47.8930067 468.52823,48.0051566 C468.296012,48.1173064 468.096971,48.2772213 467.9311,48.4849062 C467.76523,48.692591 467.63461,48.9397323 467.539234,49.2263374 C467.443859,49.5129425 467.396172,49.8306956 467.396172,50.1796062 C467.396172,50.5285167 467.441786,50.844193 467.533014,51.1266444 C467.624243,51.4090958 467.750717,51.6520834 467.91244,51.8556146 C468.074163,52.0591458 468.271131,52.2169839 468.503349,52.3291337 C468.735567,52.4412835 468.988515,52.4973576 469.262201,52.4973576 C469.552474,52.4973576 469.815788,52.4371299 470.052153,52.3166727 C470.288518,52.1962155 470.497926,52.0529151 470.680383,51.8867672 L471.14067,52.5596627 C470.866984,52.8005772 470.562203,52.9916444 470.226316,53.1328701 C469.890429,53.2740958 469.540034,53.3447076 469.17512,53.3447076 C468.777032,53.3447076 468.403829,53.2740958 468.055502,53.1328701 C467.707175,52.9916444 467.40654,52.7860395 467.153589,52.5160491 C466.900637,52.2460588 466.701596,51.913768 466.556459,51.5191668 C466.411323,51.1245656 466.338756,50.6780498 466.338756,50.1796062 Z M472.011483,50.1796062 C472.011483,49.6811625 472.088197,49.2346468 472.241627,48.8400455 C472.395057,48.4454443 472.598244,48.1110767 472.851196,47.8369327 C473.104148,47.5627887 473.392343,47.3530301 473.715789,47.2076507 C474.039236,47.0622713 474.375118,46.9895827 474.723445,46.9895827 C475.104946,46.9895827 475.447048,47.0560408 475.749761,47.1889591 C476.052474,47.3218775 476.305422,47.5129447 476.508612,47.7621665 C476.711803,48.0113883 476.867304,48.31045 476.97512,48.6593606 C477.082935,49.0082712 477.136842,49.3987128 477.136842,49.8306973 C477.136842,50.054997 477.124402,50.2419106 477.099522,50.3914437 L473.019139,50.3914437 C473.060606,51.0477278 473.261721,51.5669322 473.622488,51.9490723 C473.983255,52.3312125 474.453905,52.5222797 475.03445,52.5222797 C475.324722,52.5222797 475.592184,52.4786665 475.836842,52.3914389 C476.0815,52.3042112 476.315788,52.1899863 476.539713,52.0487605 L476.900478,52.7216561 C476.635086,52.887804 476.340671,53.0331812 476.017225,53.1577922 C475.693778,53.2824031 475.324723,53.3447076 474.910048,53.3447076 C474.503666,53.3447076 474.124244,53.272019 473.77177,53.1266396 C473.419296,52.9812602 473.112441,52.7735784 472.851196,52.5035881 C472.589951,52.2335978 472.38469,51.9033838 472.235407,51.5129363 C472.086124,51.1224888 472.011483,50.6780498 472.011483,50.1796062 Z M476.241148,49.7185481 C476.241148,49.0954935 476.110528,48.6199023 475.849282,48.2917602 C475.588037,47.9636182 475.221055,47.7995496 474.748325,47.7995496 C474.532694,47.7995496 474.327433,47.8431627 474.132536,47.9303904 C473.937639,48.017618 473.761404,48.1422271 473.603828,48.3042213 C473.446251,48.4662155 473.315631,48.6655899 473.211962,48.9023507 C473.108293,49.1391114 473.039873,49.4111745 473.006699,49.7185481 L476.241148,49.7185481 Z M478.467943,51.824462 C478.733335,52.0404543 479.004943,52.2149069 479.282775,52.3478253 C479.560607,52.4807436 479.881976,52.5472017 480.24689,52.5472017 C480.644978,52.5472017 480.94354,52.4558218 481.142584,52.2730591 C481.341628,52.0902964 481.441148,51.8660001 481.441148,51.6001635 C481.441148,51.442323 481.399681,51.3052531 481.316746,51.1889495 C481.233811,51.072646 481.128071,50.970882 480.999522,50.8836543 C480.870972,50.7964267 480.723765,50.7195844 480.557895,50.6531253 L480.060287,50.4537488 C479.844656,50.3789823 479.629028,50.2938327 479.413397,50.1982977 C479.197766,50.1027627 479.004945,49.9864609 478.834928,49.8493889 C478.664911,49.7123169 478.525997,49.5524019 478.418182,49.3696393 C478.310366,49.1868766 478.256459,48.9667339 478.256459,48.7092047 C478.256459,48.4682903 478.304146,48.2419172 478.399522,48.0300786 C478.494897,47.8182401 478.631738,47.6354801 478.810048,47.4817933 C478.988358,47.3281065 479.206059,47.2076511 479.463158,47.1204235 C479.720256,47.0331958 480.010525,46.9895827 480.333971,46.9895827 C480.715472,46.9895827 481.065868,47.0560408 481.385167,47.1889591 C481.704467,47.3218775 481.980222,47.4838692 482.21244,47.6749393 L481.727273,48.3229128 C481.519935,48.1650723 481.304307,48.0363096 481.080383,47.9366209 C480.856458,47.8369322 480.611804,47.7870886 480.346411,47.7870886 C479.96491,47.7870886 479.685009,47.8743149 479.506699,48.0487702 C479.328388,48.2232254 479.239234,48.4267536 479.239234,48.6593606 C479.239234,48.8005863 479.276555,48.9231185 479.351196,49.026961 C479.425838,49.1308034 479.525358,49.2221834 479.649761,49.3011036 C479.774163,49.3800239 479.917224,49.4506356 480.078947,49.5129411 C480.240671,49.5752466 480.408612,49.6396279 480.582775,49.7060871 C480.798406,49.789161 481.016107,49.8763873 481.235885,49.9677687 C481.455663,50.05915 481.652631,50.173375 481.826794,50.310447 C482.000958,50.447519 482.144019,50.6157412 482.255981,50.8151187 C482.367943,51.0144961 482.423923,51.2554069 482.423923,51.5378584 C482.423923,51.7870802 482.376237,52.0196837 482.280861,52.235676 C482.185486,52.4516682 482.044499,52.6427354 481.857895,52.8088833 C481.671291,52.9750312 481.439076,53.1058707 481.161244,53.2014058 C480.883412,53.2969408 480.56619,53.3447076 480.209569,53.3447076 C479.778307,53.3447076 479.367785,53.2657885 478.97799,53.107948 C478.588196,52.9501075 478.248167,52.7507331 477.957895,52.5098186 L478.467943,51.824462 Z" id="Our-Services" fill="#79797B"></path>
            <path d="M488.896757,195.342365 L528.417836,195.342365" id="Line" stroke="#979797" stroke-width="7" stroke-linecap="square"></path>
            <path d="M470.714939,209.532295 L545.956994,209.532295" id="Line" stroke="#D7D9D9" stroke-width="4" stroke-linecap="square"></path>
            <path d="M470.714939,217.679891 L545.956994,217.679891" id="Line" stroke="#D7D9D9" stroke-width="4" stroke-linecap="square"></path>
            <path d="M470.714939,226.306758 L545.956994,226.306758" id="Line" stroke="#D7D9D9" stroke-width="4" stroke-linecap="square"></path>
            <path d="M477.413503,233.689873 L539.359857,233.689873" id="Line" stroke="#D7D9D9" stroke-width="4" stroke-linecap="square"></path>
            <g id="icon" transform="translate(500.000000, 168.703165)" stroke="#979797">
                <polygon id="Path-5" points="0.148966905 3.527366 0.148966905 16.8625573 6.45258767 13.9345024 12.185512 16.718227 18.0182308 13.9648861 18.0182308 0.281550604 12.6961446 3.21050755 6.81362649 0.708917265"></polygon>
                <path d="M12.701018,3.44016267 L12.701018,16.458798" id="Line" stroke-linecap="square"></path>
                <path d="M6.62085196,1.14672089 L6.62085196,14.142891" id="Line" stroke-linecap="square"></path>
            </g>
            <g id="Group-16" transform="translate(353.588517, 84.830853)">
                <polygon id="Path-2" stroke="#979797" points="160.271132 0.641647829 165.225194 7.13975913 155.433214 18.046558 145.000221 7.22287092 150.434956 0.591370322"></polygon>
                <polyline id="Path-3" stroke="#979797" points="150.559322 0.736046414 150.559322 7.5169893 160.415801 7.5169893 160.415801 0.834096628"></polyline>
                <polygon id="Path-4" stroke="#979797" points="155.189965 1.27815423 150.432558 7.18148604 155.496253 18.0687895 160.70624 7.46844405"></polygon>
                <path d="M145.622295,7.38385124 L164.000979,7.38385124" id="Line" stroke="#979797" stroke-linecap="square"></path>
                <path d="M135.431108,28.8094257 L174.952187,28.8094257" id="Line" stroke="#979797" stroke-width="7" stroke-linecap="square"></path>
                <path d="M117.19061,42.9523167 L192.432665,42.9523167" id="Line" stroke="#D7D9D9" stroke-width="4" stroke-linecap="square"></path>
                <path d="M117.19061,51.3616032 L192.432665,51.3616032" id="Line" stroke="#D7D9D9" stroke-width="4" stroke-linecap="square"></path>
                <path d="M117.19061,59.7708898 L192.432665,59.7708898" id="Line" stroke="#D7D9D9" stroke-width="4" stroke-linecap="square"></path>
                <path d="M124.030797,67.4156957 L185.977151,67.4156957" id="Line" stroke="#D7D9D9" stroke-width="4" stroke-linecap="square"></path>
                <rect id="Rectangle-3" stroke="#979797" x="28.0413157" y="0.888365363" width="19.5205604" height="14.2896119" rx="2"></rect>
                <path d="M27.9213261,12.2378145 L47.6818658,12.2378145" id="Line" stroke="#979797" stroke-linecap="square"></path>
                <path d="M35.5215337,15.2957369 L35.5215337,17.5891787" id="Line" stroke="#979797" stroke-linecap="square"></path>
                <path d="M40.0816582,15.2957369 L40.0816582,17.5891787" id="Line" stroke="#979797" stroke-linecap="square"></path>
                <g id="Rectangle-4">
                    <use fill="#D8D8D8" fill-rule="evenodd" xlink:href="#path-3"></use>
                    <rect stroke="#979797" stroke-width="1" x="34.1214818" y="18.471419" width="7.36022832" height="1" rx="0.5"></rect>
                </g>
                <ellipse id="Oval" fill="#D8D8D8" cx="37.801596" cy="13.7667757" rx="1" ry="1"></ellipse>
                <path d="M18.0410563,29.0563876 L57.5621356,29.0563876" id="Line" stroke="#979797" stroke-width="7" stroke-linecap="square"></path>
                <path d="M0.560578881,43.1992786 L75.8026338,43.1992786" id="Line" stroke="#D7D9D9" stroke-width="4" stroke-linecap="square"></path>
                <path d="M0.560578881,51.6085651 L75.8026338,51.6085651" id="Line" stroke="#D7D9D9" stroke-width="4" stroke-linecap="square"></path>
                <path d="M0.560578881,60.0178516 L75.8026338,60.0178516" id="Line" stroke="#D7D9D9" stroke-width="4" stroke-linecap="square"></path>
                <path d="M6.64074494,67.6626575 L68.5870991,67.6626575" id="Line" stroke="#D7D9D9" stroke-width="4" stroke-linecap="square"></path>
            </g>
            <path d="M371.671876,195.342365 L411.192956,195.342365" id="Line" stroke="#979797" stroke-width="7" stroke-linecap="square"></path>
            <path d="M353.968527,209.532295 L429.210582,209.532295" id="Line" stroke="#D7D9D9" stroke-width="4" stroke-linecap="square"></path>
            <path d="M353.968527,218.159162 L429.210582,218.159162" id="Line" stroke="#D7D9D9" stroke-width="4" stroke-linecap="square"></path>
            <path d="M353.968527,226.306758 L429.210582,226.306758" id="Line" stroke="#D7D9D9" stroke-width="4" stroke-linecap="square"></path>
            <path d="M358.753216,234.169143 L420.69957,234.169143" id="Line" stroke="#D7D9D9" stroke-width="4" stroke-linecap="square"></path>
            <path d="M386.992997,176.788628 L386.992997,181.639854" id="Line" stroke="#979797" stroke-width="3" stroke-linecap="square"></path>
            <path d="M390.342279,172.962722 L390.342279,181.300459" id="Line" stroke="#979797" stroke-width="3" stroke-linecap="square"></path>
            <path d="M394.170031,174.454409 L394.170031,181.470157" id="Line" stroke="#979797" stroke-width="3" stroke-linecap="square"></path>
            <path d="M397.519313,171.578787 L397.519313,181.215611" id="Line" stroke="#979797" stroke-width="3" stroke-linecap="square"></path>
            <path d="M384.078012,168.660741 L384.078012,184.483978" id="Line" stroke="#979797" stroke-linecap="square"></path>
            <path d="M400.33158,184.913508 L384.160522,184.913508" id="Line" stroke="#979797" stroke-linecap="square"></path>
            <g id="Group" transform="translate(418.181818, 258.326721)">
                <rect id="Rectangle" fill="#4990E2" x="0" y="0" width="55.8200143" height="14.5958471"></rect>
                <path d="M13.8906892,7.84648411 C13.9756331,7.91946371 14.0696768,7.97906282 14.172823,8.02528324 C14.2759692,8.07150365 14.3772936,8.09461351 14.4767993,8.09461351 C14.5884399,8.09461351 14.6715624,8.07393627 14.7261692,8.03258116 C14.780776,7.99122605 14.808079,7.93527587 14.808079,7.86472892 C14.808079,7.82823912 14.8001915,7.7966151 14.7844162,7.76985591 C14.7686409,7.74309673 14.745585,7.71937871 14.7152479,7.69870116 C14.6849108,7.67802361 14.6485068,7.65856267 14.6060348,7.64031777 L14.465878,7.5801099 L14.156441,7.44874728 C14.0957668,7.42442074 14.0369137,7.39279673 13.9798799,7.35387427 C13.9228461,7.31495182 13.8718805,7.26934025 13.8269816,7.21703821 C13.7820826,7.16473616 13.7462854,7.10392074 13.7195887,7.03459012 C13.6928921,6.9652595 13.6795439,6.8868076 13.6795439,6.79923208 C13.6795439,6.70192595 13.7001729,6.61009466 13.7414313,6.52373547 C13.7826898,6.43737628 13.8409362,6.36196516 13.9161722,6.29749984 C13.9914083,6.23303453 14.0805981,6.18255773 14.1837443,6.14606793 C14.2868905,6.10957813 14.4003496,6.0913335 14.524125,6.0913335 C14.6624623,6.0913335 14.7989772,6.11809229 14.933674,6.17161066 C15.0683708,6.22512903 15.1866838,6.30297277 15.2886165,6.40514421 L15.0155838,6.74449766 C14.9379208,6.68368132 14.860259,6.63685345 14.7825959,6.60401263 C14.7049329,6.57117181 14.6187768,6.55475165 14.524125,6.55475165 C14.4319002,6.55475165 14.3584855,6.57360443 14.3038787,6.61131055 C14.2492718,6.64901668 14.2219688,6.7019261 14.2219688,6.77004039 C14.2219688,6.80653019 14.2310698,6.83754606 14.2492721,6.86308892 C14.2674744,6.88863178 14.2929572,6.91174164 14.3257213,6.93241919 C14.3584854,6.95309674 14.3967095,6.97255768 14.440395,6.99080258 C14.4840804,7.00904748 14.5314056,7.02911657 14.582372,7.05101045 L14.8881686,7.17507515 C15.0337867,7.23345883 15.1484593,7.31373518 15.2321898,7.41590662 C15.3159202,7.51807806 15.3577848,7.6530883 15.3577848,7.82094138 C15.3577848,7.92068016 15.3377626,8.01494407 15.2977176,8.10373591 C15.2576726,8.19252776 15.1994262,8.2703715 15.1229767,8.33726947 C15.0465272,8.40416743 14.9524835,8.457685 14.8408429,8.49782378 C14.7292023,8.53796256 14.6030018,8.55803165 14.4622376,8.55803165 C14.3069116,8.55803165 14.1521946,8.52944841 13.9980821,8.47228105 C13.8439695,8.4151137 13.7062411,8.32936396 13.5848926,8.21502925 L13.8906892,7.84648411 Z M15.7618732,6.13512104 L17.2471709,6.13512104 L17.2471709,6.5875923 L16.2970172,6.5875923 L16.2970172,7.06560629 L17.1051939,7.06560629 L17.1051939,7.51442859 L16.2970172,7.51442859 L16.2970172,8.06177285 L17.2835753,8.06177285 L17.2835753,8.51424411 L15.7618732,8.51424411 L15.7618732,6.13512104 Z M17.7568319,6.13512104 L19.2421297,6.13512104 L19.2421297,6.5875923 L18.291976,6.5875923 L18.291976,7.06560629 L19.1001527,7.06560629 L19.1001527,7.51442859 L18.291976,7.51442859 L18.291976,8.06177285 L19.2785341,8.06177285 L19.2785341,8.51424411 L17.7568319,8.51424411 L17.7568319,6.13512104 Z M21.5137616,7.52902444 L21.459155,7.31008673 C21.4251775,7.19088672 21.3924139,7.06439064 21.3608633,6.93059471 C21.3293127,6.79679877 21.2977626,6.66787008 21.266212,6.54380476 L21.2516502,6.54380476 C21.2225266,6.67030273 21.1927966,6.79983958 21.1624595,6.93241919 C21.1321224,7.0649988 21.0999656,7.19088672 21.065988,7.31008673 L21.007741,7.52902444 L21.5137616,7.52902444 Z M21.6229747,7.94865504 L20.8985279,7.94865504 L20.7529105,8.51424411 L20.2068452,8.51424411 L20.949494,6.13512104 L21.5938512,6.13512104 L22.3365001,8.51424411 L21.7685921,8.51424411 L21.6229747,7.94865504 Z M22.594971,6.13512104 L23.130115,6.13512104 L23.130115,8.06177285 L24.0693474,8.06177285 L24.0693474,8.51424411 L22.594971,8.51424411 L22.594971,6.13512104 Z M24.4807167,6.13512104 L25.0158607,6.13512104 L25.0158607,8.06177285 L25.9550931,8.06177285 L25.9550931,8.51424411 L24.4807167,8.51424411 L24.4807167,6.13512104 Z M27.2765713,7.84648411 C27.3615152,7.91946371 27.4555589,7.97906282 27.5587051,8.02528324 C27.6618513,8.07150365 27.7631757,8.09461351 27.8626815,8.09461351 C27.974322,8.09461351 28.0574445,8.07393627 28.1120513,8.03258116 C28.1666581,7.99122605 28.1939611,7.93527587 28.1939611,7.86472892 C28.1939611,7.82823912 28.1860736,7.7966151 28.1702983,7.76985591 C28.154523,7.74309673 28.1314671,7.71937871 28.10113,7.69870116 C28.0707929,7.67802361 28.0343889,7.65856267 27.9919169,7.64031777 L27.8517602,7.5801099 L27.5423231,7.44874728 C27.4816489,7.42442074 27.4227958,7.39279673 27.365762,7.35387427 C27.3087282,7.31495182 27.2577626,7.26934025 27.2128637,7.21703821 C27.1679648,7.16473616 27.1321675,7.10392074 27.1054708,7.03459012 C27.0787742,6.9652595 27.065426,6.8868076 27.065426,6.79923208 C27.065426,6.70192595 27.086055,6.61009466 27.1273134,6.52373547 C27.1685719,6.43737628 27.2268183,6.36196516 27.3020544,6.29749984 C27.3772904,6.23303453 27.4664802,6.18255773 27.5696264,6.14606793 C27.6727726,6.10957813 27.7862317,6.0913335 27.9100071,6.0913335 C28.0483444,6.0913335 28.1848593,6.11809229 28.3195561,6.17161066 C28.4542529,6.22512903 28.5725659,6.30297277 28.6744986,6.40514421 L28.4014659,6.74449766 C28.3238029,6.68368132 28.2461411,6.63685345 28.1684781,6.60401263 C28.090815,6.57117181 28.0046589,6.55475165 27.9100071,6.55475165 C27.8177823,6.55475165 27.7443676,6.57360443 27.6897608,6.61131055 C27.635154,6.64901668 27.607851,6.7019261 27.607851,6.77004039 C27.607851,6.80653019 27.616952,6.83754606 27.6351542,6.86308892 C27.6533565,6.88863178 27.6788393,6.91174164 27.7116034,6.93241919 C27.7443675,6.95309674 27.7825917,6.97255768 27.8262771,6.99080258 C27.8699626,7.00904748 27.9172877,7.02911657 27.9682541,7.05101045 L28.2740507,7.17507515 C28.4196689,7.23345883 28.5343414,7.31373518 28.6180719,7.41590662 C28.7018023,7.51807806 28.7436669,7.6530883 28.7436669,7.82094138 C28.7436669,7.92068016 28.7236447,8.01494407 28.6835997,8.10373591 C28.6435547,8.19252776 28.5853083,8.2703715 28.5088588,8.33726947 C28.4324093,8.40416743 28.3383656,8.457685 28.226725,8.49782378 C28.1150844,8.53796256 27.9888839,8.55803165 27.8481197,8.55803165 C27.6927937,8.55803165 27.5380767,8.52944841 27.3839642,8.47228105 C27.2298516,8.4151137 27.0921232,8.32936396 26.9707747,8.21502925 L27.2765713,7.84648411 Z M29.1477553,6.13512104 L30.633053,6.13512104 L30.633053,6.5875923 L29.6828993,6.5875923 L29.6828993,7.06560629 L30.491076,7.06560629 L30.491076,7.51442859 L29.6828993,7.51442859 L29.6828993,8.06177285 L30.6694574,8.06177285 L30.6694574,8.51424411 L29.1477553,8.51424411 L29.1477553,6.13512104 Z M31.6778581,7.22980957 L31.9545312,7.22980957 C32.0952954,7.22980957 32.2026872,7.20001002 32.2767098,7.14041001 C32.3507323,7.08081 32.3877431,6.99262764 32.3877431,6.87586028 C32.3877431,6.75909292 32.3507323,6.67760026 32.2767098,6.63137984 C32.2026872,6.58515943 32.0952954,6.56204957 31.9545312,6.56204957 L31.6778581,6.56204957 L31.6778581,7.22980957 Z M32.4277878,8.51424411 L31.9727334,7.6567381 L31.6778581,7.6567381 L31.6778581,8.51424411 L31.142714,8.51424411 L31.142714,6.13512104 L31.9982164,6.13512104 C32.1244188,6.13512104 32.2427318,6.14728413 32.3531589,6.17161066 C32.463586,6.19593719 32.5600566,6.23668353 32.6425736,6.29385088 C32.7250905,6.35101823 32.7906177,6.42703751 32.8391571,6.52191099 C32.8876965,6.61678447 32.9119658,6.73476639 32.9119658,6.87586028 C32.9119658,7.05101132 32.8737416,7.19514387 32.7972921,7.30826225 C32.7208425,7.42138063 32.6183046,7.50591407 32.4896753,7.56186509 L33.0284597,8.51424411 L32.4277878,8.51424411 Z M33.0794258,6.13512104 L33.6473338,6.13512104 L33.9312878,7.24440542 C33.9676923,7.3757687 33.9998492,7.50287293 34.0277593,7.62572192 C34.0556695,7.74857092 34.0878263,7.87567515 34.1242309,8.00703843 L34.1387926,8.00703843 C34.1727702,7.87567515 34.2043203,7.74857092 34.233444,7.62572192 C34.2625676,7.50287293 34.2941177,7.3757687 34.3280953,7.24440542 L34.6084088,6.13512104 L35.1544742,6.13512104 L34.4409488,8.51424411 L33.7965917,8.51424411 L33.0794258,6.13512104 Z M35.4093047,6.13512104 L35.9444487,6.13512104 L35.9444487,8.51424411 L35.4093047,8.51424411 L35.4093047,6.13512104 Z M36.3922223,7.33927843 C36.3922223,7.1422335 36.422559,6.96647694 36.4832332,6.81200345 C36.5439075,6.65752996 36.6258164,6.52677681 36.7289626,6.41974006 C36.8321088,6.31270331 36.952242,6.23121065 37.0893658,6.17525962 C37.2264895,6.1193086 37.3714988,6.0913335 37.5243978,6.0913335 C37.672443,6.0913335 37.806531,6.12234937 37.926666,6.18438203 C38.046801,6.24641469 38.1469119,6.31878504 38.2270019,6.40149525 L37.9321266,6.73355077 C37.8714524,6.67759975 37.8101724,6.63381264 37.7482846,6.60218815 C37.6863969,6.57056366 37.6141957,6.55475165 37.5316787,6.55475165 C37.4491618,6.55475165 37.3721066,6.57238812 37.300511,6.60766159 C37.2289155,6.64293507 37.1664219,6.69341186 37.1130286,6.7590935 C37.0596353,6.82477515 37.0177707,6.9050515 36.9874336,6.99992498 C36.9570965,7.09479846 36.9419281,7.2018336 36.9419281,7.32103362 C36.9419281,7.5667316 36.9941072,7.75708387 37.0984669,7.89209613 C37.2028265,8.02710839 37.3423752,8.09461351 37.517117,8.09461351 C37.6141957,8.09461351 37.6991384,8.07515258 37.7719475,8.03623012 C37.8447565,7.99730767 37.9102837,7.94622271 37.968531,7.88297373 L38.2634063,8.20773132 C38.1639006,8.32449868 38.0504414,8.41207289 37.9230256,8.47045657 C37.7956097,8.52884025 37.6578812,8.55803165 37.5098361,8.55803165 C37.356937,8.55803165 37.2125345,8.53188102 37.0766242,8.47957898 C36.940714,8.42727693 36.8217943,8.35004134 36.7198615,8.2478699 C36.6179288,8.14569846 36.5378401,8.01859423 36.4795928,7.8665534 C36.4213455,7.71451257 36.3922223,7.538756 36.3922223,7.33927843 Z M38.6238094,6.13512104 L40.1091072,6.13512104 L40.1091072,6.5875923 L39.1589535,6.5875923 L39.1589535,7.06560629 L39.9671302,7.06560629 L39.9671302,7.51442859 L39.1589535,7.51442859 L39.1589535,8.06177285 L40.1455116,8.06177285 L40.1455116,8.51424411 L38.6238094,8.51424411 L38.6238094,6.13512104 Z M40.7716665,7.84648411 C40.8566104,7.91946371 40.9506541,7.97906282 41.0538003,8.02528324 C41.1569465,8.07150365 41.2582709,8.09461351 41.3577766,8.09461351 C41.4694172,8.09461351 41.5525397,8.07393627 41.6071465,8.03258116 C41.6617533,7.99122605 41.6890563,7.93527587 41.6890563,7.86472892 C41.6890563,7.82823912 41.6811688,7.7966151 41.6653935,7.76985591 C41.6496182,7.74309673 41.6265623,7.71937871 41.5962252,7.69870116 C41.5658881,7.67802361 41.5294841,7.65856267 41.4870121,7.64031777 L41.3468553,7.5801099 L41.0374183,7.44874728 C40.9767441,7.42442074 40.9178909,7.39279673 40.8608572,7.35387427 C40.8038234,7.31495182 40.7528578,7.26934025 40.7079589,7.21703821 C40.6630599,7.16473616 40.6272627,7.10392074 40.600566,7.03459012 C40.5738694,6.9652595 40.5605212,6.8868076 40.5605212,6.79923208 C40.5605212,6.70192595 40.5811502,6.61009466 40.6224086,6.52373547 C40.6636671,6.43737628 40.7219135,6.36196516 40.7971495,6.29749984 C40.8723856,6.23303453 40.9615754,6.18255773 41.0647216,6.14606793 C41.1678678,6.10957813 41.2813269,6.0913335 41.4051023,6.0913335 C41.5434396,6.0913335 41.6799545,6.11809229 41.8146513,6.17161066 C41.9493481,6.22512903 42.0676611,6.30297277 42.1695938,6.40514421 L41.8965611,6.74449766 C41.8188981,6.68368132 41.7412363,6.63685345 41.6635732,6.60401263 C41.5859102,6.57117181 41.4997541,6.55475165 41.4051023,6.55475165 C41.3128775,6.55475165 41.2394628,6.57360443 41.184856,6.61131055 C41.1302491,6.64901668 41.1029461,6.7019261 41.1029461,6.77004039 C41.1029461,6.80653019 41.1120471,6.83754606 41.1302494,6.86308892 C41.1484517,6.88863178 41.1739345,6.91174164 41.2066986,6.93241919 C41.2394626,6.95309674 41.2776868,6.97255768 41.3213723,6.99080258 C41.3650577,7.00904748 41.4123829,7.02911657 41.4633493,7.05101045 L41.7691459,7.17507515 C41.914764,7.23345883 42.0294366,7.31373518 42.1131671,7.41590662 C42.1968975,7.51807806 42.2387621,7.6530883 42.2387621,7.82094138 C42.2387621,7.92068016 42.2187399,8.01494407 42.1786949,8.10373591 C42.1386499,8.19252776 42.0804035,8.2703715 42.003954,8.33726947 C41.9275045,8.40416743 41.8334608,8.457685 41.7218202,8.49782378 C41.6101796,8.53796256 41.4839791,8.55803165 41.3432149,8.55803165 C41.1878889,8.55803165 41.0331719,8.52944841 40.8790594,8.47228105 C40.7249468,8.4151137 40.5872184,8.32936396 40.4658699,8.21502925 L40.7716665,7.84648411 Z" id="SEE-ALL-SERVICES" fill="#FFFFFF"></path>
            </g>
        </g>
    </g>
</svg>