<?xml version="1.0" encoding="UTF-8"?>
<svg width="602px" height="381px" viewBox="0 0 602 381" version="1.1" xmlns="http://www.w3.org/2000/svg" xmlns:xlink="http://www.w3.org/1999/xlink">
    <!-- Generator: Sketch 44.1 (41455) - http://www.bohemiancoding.com/sketch -->
    <title>services01</title>
    <desc>Created with Sketch.</desc>
    <defs>
        <rect id="path-1" x="9.375" y="26.9388379" width="12.890625" height="1.17125382" rx="0.585626911"></rect>
    </defs>
    <g id="Services" stroke="none" stroke-width="1" fill="none" fill-rule="evenodd">
        <g id="01">
            <g id="icon-diamant" transform="translate(214.453125, 101.070336)" stroke="#979797">
                <polygon id="Path-2" points="23.6523633 0.766419787 31.2910241 10.7221175 16.192783 27.4323257 0.106164661 10.8494523 8.48597639 0.689390072"></polygon>
                <polyline id="Path-3" points="8.67773531 0.911047008 8.67773531 11.3000685 23.8754283 11.3000685 23.8754283 1.06126886"></polyline>
                <polygon id="Path-4" points="15.8177174 1.74160551 8.48227856 10.7860469 16.2899831 27.4663864 24.3232553 11.2256927"></polygon>
                <path d="M1.06534091,11.0960888 L29.4034091,11.0960888" id="Line" stroke-linecap="square"></path>
            </g>
            <g id="icon-mac" transform="translate(0.000000, 101.070336)">
                <rect id="Rectangle-3" stroke="#979797" x="0.5" y="0.5" width="30.640625" height="22.4250765" rx="2"></rect>
                <path d="M0.5859375,18.1544343 L31.0546875,18.1544343" id="Line" stroke="#979797" stroke-linecap="square"></path>
                <path d="M12.3046875,22.8394495 L12.3046875,26.353211" id="Line" stroke="#979797" stroke-linecap="square"></path>
                <path d="M19.3359375,22.8394495 L19.3359375,26.353211" id="Line" stroke="#979797" stroke-linecap="square"></path>
                <g id="Rectangle-4">
                    <use fill="#D8D8D8" fill-rule="evenodd" xlink:href="#path-1"></use>
                    <rect stroke="#979797" stroke-width="1" x="9.875" y="27.4388379" width="11.890625" height="1" rx="0.5"></rect>
                </g>
                <ellipse id="Oval" fill="#D8D8D8" cx="15.8203125" cy="20.4969419" rx="1" ry="1"></ellipse>
            </g>
            <g id="icon-play" transform="translate(427.734375, 99.899083)" stroke="#979797">
                <rect id="Rectangle-5" x="0.5" y="0.5" width="32.984375" height="28.2813456"></rect>
                <polygon id="Triangle" transform="translate(16.992188, 12.298165) rotate(90.000000) translate(-16.992188, -12.298165) " points="16.9921875 8.19877676 22.265625 16.3975535 11.71875 16.3975535"></polygon>
                <path d="M33.3984375,24.0107034 L9.9609375,24.0107034" id="Line" stroke-linecap="square"></path>
                <path d="M8.7890625,22.8394495 L8.7890625,25.1819572" id="Line" stroke-linecap="square"></path>
                <path d="M6.4453125,24.0107034 L0.5859375,24.0107034" id="Line" stroke-linecap="square"></path>
            </g>
            <path d="M49.8046875,114.539755 L110.742188,114.539755" id="Line" stroke="#979797" stroke-width="7" stroke-linecap="square"></path>
            <path d="M49.8046875,136.207951 L165.820313,136.207951" id="Line" stroke="#D7D9D9" stroke-width="4" stroke-linecap="square"></path>
            <path d="M49.8046875,148.857492 L165.820313,148.857492" id="Line" stroke="#D7D9D9" stroke-width="4" stroke-linecap="square"></path>
            <path d="M49.8046875,161.507034 L165.820313,161.507034" id="Line" stroke="#D7D9D9" stroke-width="4" stroke-linecap="square"></path>
            <path d="M49.8046875,173.688073 L145.319689,173.688073" id="Line" stroke="#D7D9D9" stroke-width="4" stroke-linecap="square"></path>
            <path d="M265.429688,114.539755 L326.367187,114.539755" id="Line" stroke="#979797" stroke-width="7" stroke-linecap="square"></path>
            <path d="M265.429688,136.207951 L381.445313,136.207951" id="Line" stroke="#D7D9D9" stroke-width="4" stroke-linecap="square"></path>
            <path d="M265.429688,149.091743 L381.445313,149.091743" id="Line" stroke="#D7D9D9" stroke-width="4" stroke-linecap="square"></path>
            <path d="M265.429688,161.975535 L381.445313,161.975535" id="Line" stroke="#D7D9D9" stroke-width="4" stroke-linecap="square"></path>
            <path d="M265.429688,173.688073 L360.944689,173.688073" id="Line" stroke="#D7D9D9" stroke-width="4" stroke-linecap="square"></path>
            <path d="M483.398438,114.539755 L544.335938,114.539755" id="Line" stroke="#979797" stroke-width="7" stroke-linecap="square"></path>
            <path d="M483.398438,136.207951 L599.414062,136.207951" id="Line" stroke="#D7D9D9" stroke-width="4" stroke-linecap="square"></path>
            <path d="M483.398438,149.091743 L599.414062,149.091743" id="Line" stroke="#D7D9D9" stroke-width="4" stroke-linecap="square"></path>
            <path d="M483.398438,161.975535 L599.414062,161.975535" id="Line" stroke="#D7D9D9" stroke-width="4" stroke-linecap="square"></path>
            <path d="M483.398438,173.688073 L578.913439,173.688073" id="Line" stroke="#D7D9D9" stroke-width="4" stroke-linecap="square"></path>
            <path d="M49.8046875,234.007645 L110.742188,234.007645" id="Line" stroke="#979797" stroke-width="7" stroke-linecap="square"></path>
            <path d="M49.8046875,255.675841 L165.820313,255.675841" id="Line" stroke="#D7D9D9" stroke-width="4" stroke-linecap="square"></path>
            <path d="M49.8046875,268.559633 L165.820313,268.559633" id="Line" stroke="#D7D9D9" stroke-width="4" stroke-linecap="square"></path>
            <path d="M49.8046875,281.443425 L165.820313,281.443425" id="Line" stroke="#D7D9D9" stroke-width="4" stroke-linecap="square"></path>
            <path d="M49.8046875,293.155963 L145.319689,293.155963" id="Line" stroke="#D7D9D9" stroke-width="4" stroke-linecap="square"></path>
            <path d="M265.429688,234.007645 L326.367187,234.007645" id="Line" stroke="#979797" stroke-width="7" stroke-linecap="square"></path>
            <path d="M265.429688,255.675841 L381.445313,255.675841" id="Line" stroke="#D7D9D9" stroke-width="4" stroke-linecap="square"></path>
            <path d="M265.429688,268.559633 L381.445313,268.559633" id="Line" stroke="#D7D9D9" stroke-width="4" stroke-linecap="square"></path>
            <path d="M265.429688,281.443425 L381.445313,281.443425" id="Line" stroke="#D7D9D9" stroke-width="4" stroke-linecap="square"></path>
            <path d="M265.429688,293.155963 L360.944689,293.155963" id="Line" stroke="#D7D9D9" stroke-width="4" stroke-linecap="square"></path>
            <path d="M483.398438,234.007645 L544.335938,234.007645" id="Line" stroke="#979797" stroke-width="7" stroke-linecap="square"></path>
            <path d="M483.398438,255.675841 L599.414062,255.675841" id="Line" stroke="#D7D9D9" stroke-width="4" stroke-linecap="square"></path>
            <path d="M483.398438,268.559633 L599.414062,268.559633" id="Line" stroke="#D7D9D9" stroke-width="4" stroke-linecap="square"></path>
            <path d="M483.398438,281.443425 L599.414062,281.443425" id="Line" stroke="#D7D9D9" stroke-width="4" stroke-linecap="square"></path>
            <path d="M483.398438,293.155963 L578.913439,293.155963" id="Line" stroke="#D7D9D9" stroke-width="4" stroke-linecap="square"></path>
            <path d="M265.585938,3.65137615 L348.789063,3.65137615" id="Line" stroke="#4990E2" stroke-width="6" stroke-linecap="square"></path>
            <path d="M243.892,48.7034373 C242.747994,48.7034373 241.703671,48.4997727 240.759,48.0924373 C239.814329,47.6851019 239.004003,47.1001078 238.328,46.3374373 C237.651997,45.5747668 237.127669,44.6474428 236.755,43.5554373 C236.382331,42.4634318 236.196,41.2241109 236.196,39.8374373 C236.196,38.4507637 236.382331,37.2157761 236.755,36.1324373 C237.127669,35.0490986 237.651997,34.1391077 238.328,33.4024373 C239.004003,32.665767 239.814329,32.1024393 240.759,31.7124373 C241.703671,31.3224354 242.747994,31.1274373 243.892,31.1274373 C245.036006,31.1274373 246.080329,31.3224354 247.025,31.7124373 C247.969671,32.1024393 248.779997,32.6701002 249.456,33.4154373 C250.132003,34.1607744 250.656331,35.0750986 251.029,36.1584373 C251.401669,37.2417761 251.588,38.4680971 251.588,39.8374373 C251.588,41.2241109 251.401669,42.4634318 251.029,43.5554373 C250.656331,44.6474428 250.132003,45.5747668 249.456,46.3374373 C248.779997,47.1001078 247.969671,47.6851019 247.025,48.0924373 C246.080329,48.4997727 245.036006,48.7034373 243.892,48.7034373 Z M243.892,45.4014373 C245.053339,45.4014373 245.971997,44.903109 246.648,43.9064373 C247.324003,42.9097657 247.662,41.5534459 247.662,39.8374373 C247.662,38.1387621 247.324003,36.8127754 246.648,35.8594373 C245.971997,34.9060992 245.053339,34.4294373 243.892,34.4294373 C242.730661,34.4294373 241.812003,34.9060992 241.136,35.8594373 C240.459997,36.8127754 240.122,38.1387621 240.122,39.8374373 C240.122,41.5534459 240.459997,42.9097657 241.136,43.9064373 C241.812003,44.903109 242.730661,45.4014373 243.892,45.4014373 Z M254.344,35.4954373 L258.166,35.4954373 L258.166,43.0094373 C258.166,43.945442 258.295999,44.5867689 258.556,44.9334373 C258.816001,45.2801057 259.223331,45.4534373 259.778,45.4534373 C260.263336,45.4534373 260.670665,45.3407718 261,45.1154373 C261.329335,44.8901028 261.684665,44.5261065 262.066,44.0234373 L262.066,35.4954373 L265.888,35.4954373 L265.888,48.3914373 L262.768,48.3914373 L262.482,46.5974373 L262.404,46.5974373 C261.849331,47.2561073 261.25567,47.7717688 260.623,48.1444373 C259.99033,48.5171058 259.232004,48.7034373 258.348,48.7034373 C256.943993,48.7034373 255.92567,48.2441086 255.293,47.3254373 C254.66033,46.406766 254.344,45.1327788 254.344,43.5034373 L254.344,35.4954373 Z M269.242,35.4954373 L272.362,35.4954373 L272.622,37.7574373 L272.726,37.7574373 C273.194002,36.8734329 273.75733,36.2234394 274.416,35.8074373 C275.07467,35.3914352 275.73333,35.1834373 276.392,35.1834373 C276.756002,35.1834373 277.054999,35.2051038 277.289,35.2484373 C277.523001,35.2917709 277.735332,35.3567702 277.926,35.4434373 L277.302,38.7454373 C277.059332,38.6761036 276.834001,38.6241041 276.626,38.5894373 C276.417999,38.5547705 276.175335,38.5374373 275.898,38.5374373 C275.412664,38.5374373 274.905669,38.7107689 274.377,39.0574373 C273.848331,39.4041057 273.410668,40.0194329 273.064,40.9034373 L273.064,48.3914373 L269.242,48.3914373 L269.242,35.4954373 Z M285.7,44.6734373 C286.30667,45.3147738 287.021663,45.8304354 287.845,46.2204373 C288.668337,46.6104393 289.521996,46.8054373 290.406,46.8054373 C291.532672,46.8054373 292.407997,46.5497732 293.032,46.0384373 C293.656003,45.5271014 293.968,44.8554415 293.968,44.0234373 C293.968,43.5901018 293.894334,43.2217722 293.747,42.9184373 C293.599666,42.6151025 293.400335,42.3551051 293.149,42.1384373 C292.897665,41.9217696 292.598668,41.7267715 292.252,41.5534373 C291.905332,41.3801031 291.532669,41.1981049 291.134,41.0074373 L288.69,39.9414373 C288.291331,39.7681031 287.884002,39.5601052 287.468,39.3174373 C287.051998,39.0747694 286.679335,38.7801057 286.35,38.4334373 C286.020665,38.0867689 285.752001,37.6751064 285.544,37.1984373 C285.335999,36.7217683 285.232,36.1714404 285.232,35.5474373 C285.232,34.9061008 285.366332,34.3081067 285.635,33.7534373 C285.903668,33.1987679 286.276331,32.7177727 286.753,32.3104373 C287.229669,31.9031019 287.792997,31.5867718 288.443,31.3614373 C289.093003,31.1361028 289.807996,31.0234373 290.588,31.0234373 C291.610672,31.0234373 292.555329,31.2184354 293.422,31.6084373 C294.288671,31.9984393 295.02533,32.5054342 295.632,33.1294373 L294.462,34.5334373 C293.941997,34.0307681 293.36567,33.6364387 292.733,33.3504373 C292.10033,33.0644359 291.385337,32.9214373 290.588,32.9214373 C289.634662,32.9214373 288.86767,33.1424351 288.287,33.5844373 C287.70633,34.0264395 287.416,34.6374334 287.416,35.4174373 C287.416,35.8334394 287.498333,36.1844359 287.663,36.4704373 C287.827667,36.7564387 288.048665,37.0077696 288.326,37.2244373 C288.603335,37.4411051 288.906665,37.6317698 289.236,37.7964373 C289.565335,37.9611048 289.903332,38.1127699 290.25,38.2514373 L292.668,39.2914373 C293.153336,39.4994383 293.612664,39.7377693 294.046,40.0064373 C294.479335,40.2751053 294.851998,40.5871022 295.164,40.9424373 C295.476002,41.2977724 295.722999,41.7137683 295.905,42.1904373 C296.087001,42.6671064 296.178,43.2174342 296.178,43.8414373 C296.178,44.5174407 296.043668,45.150101 295.775,45.7394373 C295.506332,46.3287736 295.120669,46.8444351 294.618,47.2864373 C294.115331,47.7284395 293.50867,48.0751027 292.798,48.3264373 C292.08733,48.5777719 291.281338,48.7034373 290.38,48.7034373 C289.183994,48.7034373 288.074672,48.4781062 287.052,48.0274373 C286.029328,47.5767684 285.145337,46.9614412 284.4,46.1814373 L285.7,44.6734373 Z M298.388,42.0994373 C298.388,41.0594321 298.548332,40.1277748 298.869,39.3044373 C299.189668,38.4810999 299.614331,37.7834402 300.143,37.2114373 C300.671669,36.6394344 301.273997,36.2017722 301.95,35.8984373 C302.626003,35.5951025 303.327996,35.4434373 304.056,35.4434373 C304.853337,35.4434373 305.56833,35.5821026 306.201,35.8594373 C306.83367,36.136772 307.362331,36.5354347 307.787,37.0554373 C308.211669,37.5754399 308.536666,38.1994337 308.762,38.9274373 C308.987334,39.6554409 309.1,40.4700995 309.1,41.3714373 C309.1,41.8394396 309.074,42.2294357 309.022,42.5414373 L300.494,42.5414373 C300.580667,43.9107775 301.000996,44.9941 301.755,45.7914373 C302.509004,46.5887746 303.492661,46.9874373 304.706,46.9874373 C305.31267,46.9874373 305.871664,46.8964382 306.383,46.7144373 C306.894336,46.5324364 307.383998,46.2941054 307.852,45.9994373 L308.606,47.4034373 C308.051331,47.7501057 307.436003,48.053436 306.76,48.3134373 C306.083997,48.5734386 305.312671,48.7034373 304.446,48.7034373 C303.596662,48.7034373 302.80367,48.5517722 302.067,48.2484373 C301.33033,47.9451025 300.689003,47.5117735 300.143,46.9484373 C299.596997,46.3851012 299.168002,45.696108 298.856,44.8814373 C298.543998,44.0667666 298.388,43.1394425 298.388,42.0994373 Z M307.228,41.1374373 C307.228,39.8374308 306.955003,38.8451074 306.409,38.1604373 C305.862997,37.4757672 305.096005,37.1334373 304.108,37.1334373 C303.657331,37.1334373 303.228335,37.2244364 302.821,37.4064373 C302.413665,37.5884382 302.045335,37.8484356 301.716,38.1864373 C301.386665,38.524439 301.113668,38.9404348 300.897,39.4344373 C300.680332,39.9284398 300.537334,40.4961008 300.468,41.1374373 L307.228,41.1374373 Z M312.22,35.7554373 L313.988,35.7554373 L314.17,38.0434373 L314.248,38.0434373 C314.681336,37.2461 315.205664,36.6134396 315.821,36.1454373 C316.436336,35.677435 317.107996,35.4434373 317.836,35.4434373 C318.338669,35.4434373 318.789331,35.5301031 319.188,35.7034373 L318.772,37.5754373 C318.563999,37.5061036 318.373334,37.4541041 318.2,37.4194373 C318.026666,37.3847705 317.810001,37.3674373 317.55,37.3674373 C317.012664,37.3674373 316.45367,37.5841018 315.873,38.0174373 C315.29233,38.4507728 314.785335,39.2047653 314.352,40.2794373 L314.352,48.3914373 L312.22,48.3914373 L312.22,35.7554373 Z M319.422,35.7554373 L321.632,35.7554373 L324.024,42.9314373 C324.214668,43.5554404 324.409666,44.1794342 324.609,44.8034373 C324.808334,45.4274404 325.003332,46.0427676 325.194,46.6494373 L325.298,46.6494373 C325.488668,46.0427676 325.679332,45.4274404 325.87,44.8034373 L326.442,42.9314373 L328.834,35.7554373 L330.94,35.7554373 L326.468,48.3914373 L323.972,48.3914373 L319.422,35.7554373 Z M334.476,33.1554373 C334.059998,33.1554373 333.709001,33.0254386 333.423,32.7654373 C333.136999,32.505436 332.994,32.176106 332.994,31.7774373 C332.994,31.3614352 333.136999,31.0277719 333.423,30.7764373 C333.709001,30.5251027 334.059998,30.3994373 334.476,30.3994373 C334.892002,30.3994373 335.242999,30.5251027 335.529,30.7764373 C335.815001,31.0277719 335.958,31.3614352 335.958,31.7774373 C335.958,32.176106 335.815001,32.505436 335.529,32.7654373 C335.242999,33.0254386 334.892002,33.1554373 334.476,33.1554373 Z M333.384,35.7554373 L335.516,35.7554373 L335.516,48.3914373 L333.384,48.3914373 L333.384,35.7554373 Z M338.844,42.0994373 C338.844,41.0420987 339.008665,40.1017748 339.338,39.2784373 C339.667335,38.4550999 340.109331,37.7574402 340.664,37.1854373 C341.218669,36.6134344 341.86433,36.1801054 342.601,35.8854373 C343.33767,35.5907692 344.113329,35.4434373 344.928,35.4434373 C345.760004,35.4434373 346.474997,35.5951025 347.073,35.8984373 C347.671003,36.2017722 348.186665,36.5527686 348.62,36.9514373 L347.554,38.3294373 C347.172665,38.0001023 346.778335,37.7314383 346.371,37.5234373 C345.963665,37.3154363 345.508669,37.2114373 345.006,37.2114373 C344.433997,37.2114373 343.905336,37.3284361 343.42,37.5624373 C342.934664,37.7964385 342.518668,38.1301018 342.172,38.5634373 C341.825332,38.9967728 341.552334,39.5124343 341.353,40.1104373 C341.153666,40.7084403 341.054,41.3714337 341.054,42.0994373 C341.054,42.8274409 341.149332,43.486101 341.34,44.0754373 C341.530668,44.6647736 341.794998,45.1717685 342.133,45.5964373 C342.471002,46.0211061 342.882664,46.3504361 343.368,46.5844373 C343.853336,46.8184385 344.381997,46.9354373 344.954,46.9354373 C345.56067,46.9354373 346.110998,46.8097719 346.605,46.5584373 C347.099002,46.3071027 347.536665,46.0081057 347.918,45.6614373 L348.88,47.0654373 C348.307997,47.5681065 347.671004,47.9667692 346.969,48.2614373 C346.266996,48.5561054 345.53467,48.7034373 344.772,48.7034373 C343.939996,48.7034373 343.160004,48.5561054 342.432,48.2614373 C341.703996,47.9667692 341.075669,47.5377735 340.547,46.9744373 C340.018331,46.4111012 339.602335,45.7177748 339.299,44.8944373 C338.995665,44.0710999 338.844,43.1394425 338.844,42.0994373 Z M350.7,42.0994373 C350.7,41.0594321 350.860332,40.1277748 351.181,39.3044373 C351.501668,38.4810999 351.926331,37.7834402 352.455,37.2114373 C352.983669,36.6394344 353.585997,36.2017722 354.262,35.8984373 C354.938003,35.5951025 355.639996,35.4434373 356.368,35.4434373 C357.165337,35.4434373 357.88033,35.5821026 358.513,35.8594373 C359.14567,36.136772 359.674331,36.5354347 360.099,37.0554373 C360.523669,37.5754399 360.848666,38.1994337 361.074,38.9274373 C361.299334,39.6554409 361.412,40.4700995 361.412,41.3714373 C361.412,41.8394396 361.386,42.2294357 361.334,42.5414373 L352.806,42.5414373 C352.892667,43.9107775 353.312996,44.9941 354.067,45.7914373 C354.821004,46.5887746 355.804661,46.9874373 357.018,46.9874373 C357.62467,46.9874373 358.183664,46.8964382 358.695,46.7144373 C359.206336,46.5324364 359.695998,46.2941054 360.164,45.9994373 L360.918,47.4034373 C360.363331,47.7501057 359.748003,48.053436 359.072,48.3134373 C358.395997,48.5734386 357.624671,48.7034373 356.758,48.7034373 C355.908662,48.7034373 355.11567,48.5517722 354.379,48.2484373 C353.64233,47.9451025 353.001003,47.5117735 352.455,46.9484373 C351.908997,46.3851012 351.480002,45.696108 351.168,44.8814373 C350.855998,44.0667666 350.7,43.1394425 350.7,42.0994373 Z M359.54,41.1374373 C359.54,39.8374308 359.267003,38.8451074 358.721,38.1604373 C358.174997,37.4757672 357.408005,37.1334373 356.42,37.1334373 C355.969331,37.1334373 355.540335,37.2244364 355.133,37.4064373 C354.725665,37.5884382 354.357335,37.8484356 354.028,38.1864373 C353.698665,38.524439 353.425668,38.9404348 353.209,39.4344373 C352.992332,39.9284398 352.849334,40.4961008 352.78,41.1374373 L359.54,41.1374373 Z M364.194,45.5314373 C364.748669,45.9821062 365.31633,46.3461026 365.897,46.6234373 C366.47767,46.900772 367.14933,47.0394373 367.912,47.0394373 C368.744004,47.0394373 369.367998,46.8487725 369.784,46.4674373 C370.200002,46.0861021 370.408,45.6181067 370.408,45.0634373 C370.408,44.7341023 370.321334,44.4481052 370.148,44.2054373 C369.974666,43.9627694 369.753668,43.7504382 369.485,43.5684373 C369.216332,43.3864364 368.908668,43.2261047 368.562,43.0874373 L367.522,42.6714373 C367.071331,42.5154365 366.620669,42.3377716 366.17,42.1384373 C365.719331,41.939103 365.316335,41.6964387 364.961,41.4104373 C364.605665,41.1244359 364.315334,40.7907725 364.09,40.4094373 C363.864666,40.0281021 363.752,39.5687733 363.752,39.0314373 C363.752,38.5287681 363.851666,38.0564395 364.051,37.6144373 C364.250334,37.1724351 364.536331,36.7911056 364.909,36.4704373 C365.281669,36.149769 365.736664,35.8984382 366.274,35.7164373 C366.811336,35.5344364 367.417997,35.4434373 368.094,35.4434373 C368.891337,35.4434373 369.623663,35.5821026 370.291,35.8594373 C370.958337,36.136772 371.534664,36.4747686 372.02,36.8734373 L371.006,38.2254373 C370.572665,37.8961023 370.122002,37.6274383 369.654,37.4194373 C369.185998,37.2114363 368.674669,37.1074373 368.12,37.1074373 C367.322663,37.1074373 366.737669,37.2894355 366.365,37.6534373 C365.992331,38.0174391 365.806,38.4421015 365.806,38.9274373 C365.806,39.2221054 365.883999,39.4777696 366.04,39.6944373 C366.196001,39.9111051 366.403999,40.1017698 366.664,40.2664373 C366.924001,40.4311048 367.222998,40.5784367 367.561,40.7084373 C367.899002,40.838438 368.249998,40.9727699 368.614,41.1114373 C369.064669,41.2847715 369.519664,41.4667697 369.979,41.6574373 C370.438336,41.8481049 370.849998,42.0864359 371.214,42.3724373 C371.578002,42.6584387 371.876999,43.0094352 372.111,43.4254373 C372.345001,43.8414394 372.462,44.344101 372.462,44.9334373 C372.462,45.4534399 372.362334,45.9387684 372.163,46.3894373 C371.963666,46.8401062 371.669002,47.2387689 371.279,47.5854373 C370.888998,47.9321057 370.40367,48.205103 369.823,48.4044373 C369.24233,48.6037716 368.579337,48.7034373 367.834,48.7034373 C366.932662,48.7034373 366.074671,48.5387723 365.26,48.2094373 C364.445329,47.8801023 363.73467,47.4641065 363.128,46.9614373 L364.194,45.5314373 Z" id="Our-Services" fill="#79797B"></path>
            <g id="icon" transform="translate(427.734375, 220.538226)">
                <rect id="Rectangle-2" stroke="#979797" x="0.5" y="18.0688073" width="32.984375" height="4.85626911"></rect>
                <rect id="Rectangle-2" fill="#D8D8D8" x="1.171875" y="18.7400612" width="21.09375" height="3.51376147"></rect>
                <rect id="Rectangle-2" stroke="#979797" x="0.5" y="9.87003058" width="32.984375" height="4.85626911"></rect>
                <rect id="Rectangle-2" fill="#D8D8D8" x="1.171875" y="10.5412844" width="17.578125" height="3.51376147"></rect>
                <rect id="Rectangle-2" stroke="#979797" x="0.5" y="0.5" width="32.984375" height="4.85626911"></rect>
                <rect id="Rectangle-2" fill="#D8D8D8" x="1.171875" y="1.17125382" width="26.953125" height="3.51376147"></rect>
            </g>
            <g id="icon" transform="translate(216.625000, 220.538226)" stroke="#979797">
                <polygon id="Path-5" points="0.153821488 5.40424565 0.153821488 25.834972 9.87336601 21.3489255 18.7129545 25.6138448 27.7064158 21.3954761 27.7064158 0.431361142 19.5002982 4.91878966 10.4300513 1.08612575"></polygon>
                <path d="M19.5078125,5.2706422 L19.5078125,25.2163761" id="Line" stroke-linecap="square"></path>
                <path d="M10.1328125,1.75688073 L10.1328125,21.6681957" id="Line" stroke-linecap="square"></path>
            </g>
            <g id="icon" transform="translate(4.687500, 218.195719)" stroke="#979797" stroke-linecap="square">
                <path d="M6.69642857,12.6862745 L6.69642857,20.1187939" id="Line" stroke-width="3"></path>
                <path d="M12.0535714,7.34462156 L12.0535714,20.1187939" id="Line" stroke-width="3"></path>
                <path d="M17.4107143,9.37003058 L17.4107143,20.1187939" id="Line" stroke-width="3"></path>
                <path d="M22.7678571,5.35430319 L22.7678571,20.1187939" id="Line" stroke-width="3"></path>
                <path d="M2.00892857,0.669287899 L2.00892857,24.9119267" id="Line"></path>
                <path d="M26.9340673,25.4329401 L1.99993483,25.4329401" id="Line"></path>
            </g>
            <g id="Group" transform="translate(254.296875, 352.889908)">
                <rect id="Rectangle" stroke="#4990E2" x="0.5" y="0.5" width="106.8125" height="27.1100917"></rect>
                <path d="M26.8289063,15.1115168 C26.9929696,15.252068 27.1746084,15.3668497 27.3738281,15.4558654 C27.5730479,15.5448812 27.768749,15.5893884 27.9609375,15.5893884 C28.1765636,15.5893884 28.3371088,15.5495661 28.4425781,15.4699205 C28.5480474,15.3902748 28.6007813,15.2825206 28.6007813,15.1466544 C28.6007813,15.0763789 28.585547,15.0154743 28.5550781,14.9639388 C28.5246092,14.9124034 28.4800784,14.866725 28.4214844,14.8269021 C28.3628903,14.7870793 28.2925785,14.7495996 28.2105469,14.7144618 L27.9398438,14.5985076 L27.3421875,14.3455168 C27.2249994,14.2986664 27.1113287,14.2377618 27.0011719,14.1628012 C26.8910151,14.0878406 26.7925786,13.9999974 26.7058594,13.8992691 C26.6191402,13.7985408 26.5500003,13.6814166 26.4984375,13.547893 C26.4468747,13.4143694 26.4210938,13.2632791 26.4210938,13.0946177 C26.4210938,12.9072162 26.4609371,12.7303586 26.540625,12.5640398 C26.6203129,12.3977209 26.7328118,12.2524869 26.878125,12.1283333 C27.0234382,12.0041798 27.1957021,11.9069667 27.3949219,11.8366911 C27.5941416,11.7664156 27.8132801,11.7312783 28.0523438,11.7312783 C28.3195326,11.7312783 28.5832018,11.7828129 28.8433594,11.8858838 C29.1035169,11.9889546 29.3320303,12.1388736 29.5289063,12.3356453 L29.0015625,12.9892049 C28.8515618,12.8720789 28.7015633,12.7818933 28.5515625,12.7186453 C28.4015618,12.6553972 28.2351572,12.6237737 28.0523438,12.6237737 C27.8742179,12.6237737 27.7324224,12.6600822 27.6269531,12.7327003 C27.5214838,12.8053184 27.46875,12.9072165 27.46875,13.0383976 C27.46875,13.1086731 27.4863279,13.1684065 27.5214844,13.2175994 C27.5566408,13.2667923 27.6058591,13.3112995 27.6691406,13.3511223 C27.7324222,13.3909452 27.8062496,13.4284249 27.890625,13.4635627 C27.9750004,13.4987005 28.0664058,13.5373515 28.1648438,13.5795168 L28.7554688,13.8184526 C29.0367202,13.9308935 29.2582023,14.0854975 29.4199219,14.2822691 C29.5816414,14.4790407 29.6625,14.7390565 29.6625,15.0623242 C29.6625,15.2544107 29.6238285,15.4359533 29.5464844,15.6069572 C29.4691402,15.7779611 29.3566414,15.9278801 29.2089844,16.0567187 C29.0613274,16.1855572 28.8796886,16.2886265 28.6640625,16.3659297 C28.4484364,16.4432328 28.2046889,16.4818838 27.9328125,16.4818838 C27.632811,16.4818838 27.3339859,16.4268354 27.0363281,16.316737 C26.7386704,16.2066386 26.4726574,16.0414935 26.2382813,15.8212966 L26.8289063,15.1115168 Z M30.4429688,11.8156086 L33.3117188,11.8156086 L33.3117188,12.6870214 L31.4765625,12.6870214 L31.4765625,13.6076269 L33.0375,13.6076269 L33.0375,14.4720122 L31.4765625,14.4720122 L31.4765625,15.5261407 L33.3820313,15.5261407 L33.3820313,16.3975535 L30.4429688,16.3975535 L30.4429688,11.8156086 Z M34.2960938,11.8156086 L37.1648438,11.8156086 L37.1648438,12.6870214 L35.3296875,12.6870214 L35.3296875,13.6076269 L36.890625,13.6076269 L36.890625,14.4720122 L35.3296875,14.4720122 L35.3296875,15.5261407 L37.2351563,15.5261407 L37.2351563,16.3975535 L34.2960938,16.3975535 L34.2960938,11.8156086 Z M41.5523438,14.5001223 L41.446875,14.0784709 C41.3812497,13.8489041 41.3179691,13.6052857 41.2570313,13.3476086 C41.1960934,13.0899314 41.1351566,12.8416281 41.0742188,12.6026911 L41.0460938,12.6026911 C40.9898435,12.8463131 40.9324222,13.0957877 40.8738281,13.3511223 C40.8152341,13.6064569 40.7531253,13.8489041 40.6875,14.0784709 L40.575,14.5001223 L41.5523438,14.5001223 Z M41.7632813,15.3082875 L40.3640625,15.3082875 L40.0828125,16.3975535 L39.028125,16.3975535 L40.4625,11.8156086 L41.7070313,11.8156086 L43.1414063,16.3975535 L42.0445313,16.3975535 L41.7632813,15.3082875 Z M43.640625,11.8156086 L44.6742188,11.8156086 L44.6742188,15.5261407 L46.4882813,15.5261407 L46.4882813,16.3975535 L43.640625,16.3975535 L43.640625,11.8156086 Z M47.2828125,11.8156086 L48.3164063,11.8156086 L48.3164063,15.5261407 L50.1304688,15.5261407 L50.1304688,16.3975535 L47.2828125,16.3975535 L47.2828125,11.8156086 Z M52.6828125,15.1115168 C52.8468758,15.252068 53.0285146,15.3668497 53.2277344,15.4558654 C53.4269541,15.5448812 53.6226553,15.5893884 53.8148438,15.5893884 C54.0304698,15.5893884 54.1910151,15.5495661 54.2964844,15.4699205 C54.4019537,15.3902748 54.4546875,15.2825206 54.4546875,15.1466544 C54.4546875,15.0763789 54.4394533,15.0154743 54.4089844,14.9639388 C54.3785155,14.9124034 54.3339847,14.866725 54.2753906,14.8269021 C54.2167966,14.7870793 54.1464848,14.7495996 54.0644531,14.7144618 L53.79375,14.5985076 L53.1960938,14.3455168 C53.0789057,14.2986664 52.9652349,14.2377618 52.8550781,14.1628012 C52.7449213,14.0878406 52.6464848,13.9999974 52.5597656,13.8992691 C52.4730464,13.7985408 52.4039065,13.6814166 52.3523438,13.547893 C52.300781,13.4143694 52.275,13.2632791 52.275,13.0946177 C52.275,12.9072162 52.3148434,12.7303586 52.3945313,12.5640398 C52.4742191,12.3977209 52.586718,12.2524869 52.7320313,12.1283333 C52.8773445,12.0041798 53.0496084,11.9069667 53.2488281,11.8366911 C53.4480479,11.7664156 53.6671863,11.7312783 53.90625,11.7312783 C54.1734388,11.7312783 54.4371081,11.7828129 54.6972656,11.8858838 C54.9574232,11.9889546 55.1859365,12.1388736 55.3828125,12.3356453 L54.8554688,12.9892049 C54.705468,12.8720789 54.5554695,12.7818933 54.4054688,12.7186453 C54.255468,12.6553972 54.0890634,12.6237737 53.90625,12.6237737 C53.7281241,12.6237737 53.5863287,12.6600822 53.4808594,12.7327003 C53.3753901,12.8053184 53.3226563,12.9072165 53.3226563,13.0383976 C53.3226563,13.1086731 53.3402342,13.1684065 53.3753906,13.2175994 C53.4105471,13.2667923 53.4597653,13.3112995 53.5230469,13.3511223 C53.5863284,13.3909452 53.6601558,13.4284249 53.7445313,13.4635627 C53.8289067,13.4987005 53.920312,13.5373515 54.01875,13.5795168 L54.609375,13.8184526 C54.8906264,13.9308935 55.1121086,14.0854975 55.2738281,14.2822691 C55.4355477,14.4790407 55.5164063,14.7390565 55.5164063,15.0623242 C55.5164063,15.2544107 55.4777348,15.4359533 55.4003906,15.6069572 C55.3230465,15.7779611 55.2105476,15.9278801 55.0628906,16.0567187 C54.9152336,16.1855572 54.7335948,16.2886265 54.5179688,16.3659297 C54.3023427,16.4432328 54.0585951,16.4818838 53.7867188,16.4818838 C53.4867173,16.4818838 53.1878921,16.4268354 52.8902344,16.316737 C52.5925766,16.2066386 52.3265637,16.0414935 52.0921875,15.8212966 L52.6828125,15.1115168 Z M56.296875,11.8156086 L59.165625,11.8156086 L59.165625,12.6870214 L57.3304688,12.6870214 L57.3304688,13.6076269 L58.8914063,13.6076269 L58.8914063,14.4720122 L57.3304688,14.4720122 L57.3304688,15.5261407 L59.2359375,15.5261407 L59.2359375,16.3975535 L56.296875,16.3975535 L56.296875,11.8156086 Z M61.1835938,13.9238654 L61.7179688,13.9238654 C61.9898451,13.9238654 62.1972649,13.8664746 62.3402344,13.7516911 C62.4832038,13.6369077 62.5546875,13.4670776 62.5546875,13.2421957 C62.5546875,13.0173139 62.4832038,12.8603674 62.3402344,12.7713517 C62.1972649,12.6823359 61.9898451,12.6378287 61.7179688,12.6378287 L61.1835938,12.6378287 L61.1835938,13.9238654 Z M62.6320313,16.3975535 L61.753125,14.7460856 L61.1835938,14.7460856 L61.1835938,16.3975535 L60.15,16.3975535 L60.15,11.8156086 L61.8023438,11.8156086 C62.046095,11.8156086 62.2746083,11.8390334 62.4878906,11.8858838 C62.7011729,11.9327342 62.8874992,12.0112074 63.046875,12.1213058 C63.2062508,12.2314042 63.332812,12.3778095 63.4265625,12.560526 C63.520313,12.7432425 63.5671875,12.9704635 63.5671875,13.2421957 C63.5671875,13.5795185 63.4933601,13.8571029 63.3457031,14.0749572 C63.1980461,14.2928115 63.0000012,14.4556141 62.7515625,14.56337 L63.7921875,16.3975535 L62.6320313,16.3975535 Z M63.890625,11.8156086 L64.9875,11.8156086 L65.5359375,13.9519755 C65.6062504,14.2049676 65.6683591,14.4497572 65.7222656,14.6863517 C65.7761721,14.9229461 65.8382809,15.1677357 65.9085938,15.4207278 L65.9367188,15.4207278 C66.0023441,15.1677357 66.063281,14.9229461 66.1195313,14.6863517 C66.1757815,14.4497572 66.2367184,14.2049676 66.3023438,13.9519755 L66.84375,11.8156086 L67.8984375,11.8156086 L66.5203125,16.3975535 L65.2757813,16.3975535 L63.890625,11.8156086 Z M68.390625,11.8156086 L69.4242188,11.8156086 L69.4242188,16.3975535 L68.390625,16.3975535 L68.390625,11.8156086 Z M70.2890625,14.1346911 C70.2890625,13.755203 70.3476557,13.416714 70.4648438,13.1192141 C70.5820318,12.8217141 70.7402334,12.5698971 70.9394531,12.3637554 C71.1386729,12.1576136 71.3707018,12.0006672 71.6355469,11.8929113 C71.9003919,11.7851554 72.1804673,11.7312783 72.4757813,11.7312783 C72.7617202,11.7312783 73.020702,11.7910116 73.2527344,11.9104801 C73.4847668,12.0299486 73.6781242,12.1693264 73.8328125,12.3286177 L73.2632813,12.9681223 C73.1460932,12.8603664 73.027735,12.776037 72.9082031,12.7151315 C72.7886713,12.654226 72.6492195,12.6237737 72.4898438,12.6237737 C72.330468,12.6237737 72.1816413,12.6577397 72.0433594,12.7256728 C71.9050774,12.7936058 71.7843755,12.8908189 71.68125,13.017315 C71.5781245,13.143811 71.4972659,13.298415 71.4386719,13.4811315 C71.3800778,13.663848 71.3507813,13.8699866 71.3507813,14.0995535 C71.3507813,14.5727424 71.4515615,14.9393412 71.653125,15.1993609 C71.8546885,15.4593805 72.1242171,15.5893884 72.4617188,15.5893884 C72.6492197,15.5893884 72.8132805,15.5519086 72.9539063,15.476948 C73.094532,15.4019874 73.2210932,15.3036031 73.3335938,15.181792 L73.903125,15.8072416 C73.7109365,16.0321234 73.4917981,16.2007823 73.2457031,16.3132232 C72.9996081,16.4256642 72.7335952,16.4818838 72.4476563,16.4818838 C72.1523423,16.4818838 71.8734388,16.4315204 71.6109375,16.330792 C71.3484362,16.2300637 71.118751,16.081316 70.921875,15.8845443 C70.724999,15.6877727 70.5703131,15.4429831 70.4578125,15.1501682 C70.3453119,14.8573533 70.2890625,14.5188643 70.2890625,14.1346911 Z M74.5992188,11.8156086 L77.4679688,11.8156086 L77.4679688,12.6870214 L75.6328125,12.6870214 L75.6328125,13.6076269 L77.19375,13.6076269 L77.19375,14.4720122 L75.6328125,14.4720122 L75.6328125,15.5261407 L77.5382813,15.5261407 L77.5382813,16.3975535 L74.5992188,16.3975535 L74.5992188,11.8156086 Z M78.7476563,15.1115168 C78.9117196,15.252068 79.0933584,15.3668497 79.2925781,15.4558654 C79.4917979,15.5448812 79.687499,15.5893884 79.8796875,15.5893884 C80.0953136,15.5893884 80.2558588,15.5495661 80.3613281,15.4699205 C80.4667974,15.3902748 80.5195313,15.2825206 80.5195313,15.1466544 C80.5195313,15.0763789 80.504297,15.0154743 80.4738281,14.9639388 C80.4433592,14.9124034 80.3988284,14.866725 80.3402344,14.8269021 C80.2816403,14.7870793 80.2113285,14.7495996 80.1292969,14.7144618 L79.8585938,14.5985076 L79.2609375,14.3455168 C79.1437494,14.2986664 79.0300787,14.2377618 78.9199219,14.1628012 C78.8097651,14.0878406 78.7113286,13.9999974 78.6246094,13.8992691 C78.5378902,13.7985408 78.4687503,13.6814166 78.4171875,13.547893 C78.3656247,13.4143694 78.3398438,13.2632791 78.3398438,13.0946177 C78.3398438,12.9072162 78.3796871,12.7303586 78.459375,12.5640398 C78.5390629,12.3977209 78.6515618,12.2524869 78.796875,12.1283333 C78.9421882,12.0041798 79.1144521,11.9069667 79.3136719,11.8366911 C79.5128916,11.7664156 79.7320301,11.7312783 79.9710938,11.7312783 C80.2382826,11.7312783 80.5019518,11.7828129 80.7621094,11.8858838 C81.0222669,11.9889546 81.2507803,12.1388736 81.4476563,12.3356453 L80.9203125,12.9892049 C80.7703118,12.8720789 80.6203133,12.7818933 80.4703125,12.7186453 C80.3203118,12.6553972 80.1539072,12.6237737 79.9710938,12.6237737 C79.7929679,12.6237737 79.6511724,12.6600822 79.5457031,12.7327003 C79.4402338,12.8053184 79.3875,12.9072165 79.3875,13.0383976 C79.3875,13.1086731 79.4050779,13.1684065 79.4402344,13.2175994 C79.4753908,13.2667923 79.5246091,13.3112995 79.5878906,13.3511223 C79.6511722,13.3909452 79.7249996,13.4284249 79.809375,13.4635627 C79.8937504,13.4987005 79.9851558,13.5373515 80.0835938,13.5795168 L80.6742188,13.8184526 C80.9554702,13.9308935 81.1769523,14.0854975 81.3386719,14.2822691 C81.5003914,14.4790407 81.58125,14.7390565 81.58125,15.0623242 C81.58125,15.2544107 81.5425785,15.4359533 81.4652344,15.6069572 C81.3878902,15.7779611 81.2753914,15.9278801 81.1277344,16.0567187 C80.9800774,16.1855572 80.7984386,16.2886265 80.5828125,16.3659297 C80.3671864,16.4432328 80.1234389,16.4818838 79.8515625,16.4818838 C79.551561,16.4818838 79.2527359,16.4268354 78.9550781,16.316737 C78.6574204,16.2066386 78.3914074,16.0414935 78.1570313,15.8212966 L78.7476563,15.1115168 Z" id="SEE-ALL-SERVICES" fill="#4990E2"></path>
            </g>
        </g>
    </g>
</svg>