<?xml version="1.0" encoding="UTF-8"?>
<svg width="601px" height="321px" viewBox="0 0 601 321" version="1.1" xmlns="http://www.w3.org/2000/svg" xmlns:xlink="http://www.w3.org/1999/xlink">
    <!-- Generator: Sketch 44.1 (41455) - http://www.bohemiancoding.com/sketch -->
    <title>services04</title>
    <desc>Created with Sketch.</desc>
    <defs></defs>
    <g id="Services" stroke="none" stroke-width="1" fill="none" fill-rule="evenodd">
        <g id="04">
            <g id="Group-7">
                <rect id="Rectangle-6" fill="#F8F8F8" x="0" y="0" width="600" height="320.39801"></rect>
                <path d="M120.895522,99.0049751 L483.221231,99.0049751" id="Line" stroke="#979797" stroke-width="5" stroke-linecap="square"></path>
                <g id="icon-play" transform="translate(162.189055, 210.945274)" stroke="#979797">
                    <rect id="Rectangle-5" x="0.5" y="0.5" width="35.5915105" height="30.5654105"></rect>
                    <polygon id="Triangle" transform="translate(18.295755, 13.257472) rotate(90.000000) translate(-18.295755, -13.257472) " points="18.2957553 8.83831495 23.9737483 17.6766299 12.6177623 17.6766299"></polygon>
                    <path d="M35.9606224,25.8836366 L10.7250979,25.8836366" id="Line" stroke-linecap="square"></path>
                    <path d="M9.46332169,24.6210202 L9.46332169,27.1462531" id="Line" stroke-linecap="square"></path>
                    <path d="M6.93976924,25.8836366 L0.630888113,25.8836366" id="Line" stroke-linecap="square"></path>
                </g>
                <path d="M177.610341,114.925373 L426.376119,114.925373" id="Line" stroke="#979797" stroke-width="5" stroke-linecap="square"></path>
                <path d="M301.99005,150.746269 L301.99005,180.027739" id="Line" stroke="#979797" stroke-linecap="square"></path>
                <path d="M157.443781,255.789055 L157.309453,255.251741 C157.22587,254.959203 157.145274,254.648758 157.067662,254.320398 C156.990049,253.992038 156.912438,253.675623 156.834826,253.371144 L156.799005,253.371144 C156.727363,253.681594 156.654229,253.999501 156.579602,254.324876 C156.504975,254.65025 156.425871,254.959203 156.342289,255.251741 L156.199005,255.789055 L157.443781,255.789055 Z M157.712438,256.818905 L155.930348,256.818905 L155.572139,258.206965 L154.228856,258.206965 L156.055721,252.368159 L157.640796,252.368159 L159.467662,258.206965 L158.070647,258.206965 L157.712438,256.818905 Z M161.312438,258.556219 L161.312438,259.854726 L159.99602,259.854726 L159.99602,253.765174 L161.070647,253.765174 L161.160199,254.20398 L161.19602,254.20398 C161.369155,254.048755 161.564676,253.918906 161.782587,253.814428 C162.000499,253.70995 162.225869,253.657711 162.458706,253.657711 C162.727365,253.657711 162.969153,253.711442 163.18408,253.818905 C163.399006,253.926369 163.581094,254.078606 163.730348,254.275622 C163.879603,254.472638 163.994527,254.709949 164.075124,254.987562 C164.155722,255.265176 164.19602,255.574128 164.19602,255.914428 C164.19602,256.296519 164.143782,256.635322 164.039303,256.930846 C163.934825,257.22637 163.794528,257.477113 163.618408,257.683085 C163.442288,257.889056 163.24229,258.045771 163.018408,258.153234 C162.794526,258.260697 162.563185,258.314428 162.324378,258.314428 C162.133332,258.314428 161.94826,258.27413 161.769154,258.193532 C161.590049,258.112935 161.422886,257.998011 161.267662,257.848756 L161.312438,258.556219 Z M161.312438,256.953234 C161.431841,257.060697 161.551243,257.135323 161.670647,257.177114 C161.79005,257.218906 161.906467,257.239801 162.0199,257.239801 C162.246767,257.239801 162.440795,257.136817 162.60199,256.930846 C162.763185,256.724875 162.843781,256.392042 162.843781,255.932338 C162.843781,255.132334 162.587067,254.732338 162.073632,254.732338 C161.816914,254.732338 161.563185,254.866665 161.312438,255.135323 L161.312438,256.953234 Z M166.443781,258.556219 L166.443781,259.854726 L165.127363,259.854726 L165.127363,253.765174 L166.20199,253.765174 L166.291542,254.20398 L166.327363,254.20398 C166.500498,254.048755 166.696019,253.918906 166.91393,253.814428 C167.131842,253.70995 167.357213,253.657711 167.59005,253.657711 C167.858708,253.657711 168.100496,253.711442 168.315423,253.818905 C168.530349,253.926369 168.712437,254.078606 168.861692,254.275622 C169.010946,254.472638 169.12587,254.709949 169.206468,254.987562 C169.287065,255.265176 169.327363,255.574128 169.327363,255.914428 C169.327363,256.296519 169.275125,256.635322 169.170647,256.930846 C169.066169,257.22637 168.925872,257.477113 168.749751,257.683085 C168.573631,257.889056 168.373633,258.045771 168.149751,258.153234 C167.92587,258.260697 167.694529,258.314428 167.455721,258.314428 C167.264676,258.314428 167.079603,258.27413 166.900498,258.193532 C166.721392,258.112935 166.55423,257.998011 166.399005,257.848756 L166.443781,258.556219 Z M166.443781,256.953234 C166.563185,257.060697 166.682586,257.135323 166.80199,257.177114 C166.921394,257.218906 167.03781,257.239801 167.151244,257.239801 C167.378111,257.239801 167.572138,257.136817 167.733333,256.930846 C167.894528,256.724875 167.975124,256.392042 167.975124,255.932338 C167.975124,255.132334 167.718411,254.732338 167.204975,254.732338 C166.948257,254.732338 166.694529,254.866665 166.443781,255.135323 L166.443781,256.953234 Z M169.999005,255.98607 C169.999005,255.615919 170.058706,255.286071 170.178109,254.996517 C170.297513,254.706964 170.457213,254.463683 170.657214,254.266667 C170.857215,254.069651 171.088556,253.918906 171.351244,253.814428 C171.613932,253.70995 171.885571,253.657711 172.166169,253.657711 C172.446768,253.657711 172.716914,253.70995 172.976617,253.814428 C173.23632,253.918906 173.466168,254.069651 173.666169,254.266667 C173.86617,254.463683 174.02587,254.706964 174.145274,254.996517 C174.264677,255.286071 174.324378,255.615919 174.324378,255.98607 C174.324378,256.356221 174.264677,256.686068 174.145274,256.975622 C174.02587,257.265176 173.86617,257.508457 173.666169,257.705473 C173.466168,257.902489 173.23632,258.053233 172.976617,258.157711 C172.716914,258.26219 172.446768,258.314428 172.166169,258.314428 C171.885571,258.314428 171.613932,258.26219 171.351244,258.157711 C171.088556,258.053233 170.857215,257.902489 170.657214,257.705473 C170.457213,257.508457 170.297513,257.265176 170.178109,256.975622 C170.058706,256.686068 169.999005,256.356221 169.999005,255.98607 Z M171.351244,255.98607 C171.351244,256.374131 171.418407,256.681591 171.552736,256.908458 C171.687065,257.135325 171.891541,257.248756 172.166169,257.248756 C172.434827,257.248756 172.63781,257.135325 172.775124,256.908458 C172.912438,256.681591 172.981095,256.374131 172.981095,255.98607 C172.981095,255.598008 172.912438,255.290548 172.775124,255.063682 C172.63781,254.836815 172.434827,254.723383 172.166169,254.723383 C171.891541,254.723383 171.687065,254.836815 171.552736,255.063682 C171.418407,255.290548 171.351244,255.598008 171.351244,255.98607 Z M175.882587,253.111443 C175.66169,253.111443 175.479603,253.047264 175.336318,252.918905 C175.193034,252.790547 175.121393,252.624877 175.121393,252.421891 C175.121393,252.218904 175.193034,252.054727 175.336318,251.929353 C175.479603,251.803979 175.66169,251.741294 175.882587,251.741294 C176.109454,251.741294 176.293034,251.803979 176.433333,251.929353 C176.573633,252.054727 176.643781,252.218904 176.643781,252.421891 C176.643781,252.624877 176.573633,252.790547 176.433333,252.918905 C176.293034,253.047264 176.109454,253.111443 175.882587,253.111443 Z M175.228856,253.765174 L176.545274,253.765174 L176.545274,258.206965 L175.228856,258.206965 L175.228856,253.765174 Z M177.700498,253.765174 L178.775124,253.765174 L178.864677,254.329353 L178.900498,254.329353 C179.091543,254.150248 179.300496,253.993533 179.527363,253.859204 C179.75423,253.724875 180.019899,253.657711 180.324378,253.657711 C180.807963,253.657711 181.158705,253.815919 181.376617,254.132338 C181.594528,254.448758 181.703483,254.887559 181.703483,255.448756 L181.703483,258.206965 L180.387065,258.206965 L180.387065,255.618905 C180.387065,255.296516 180.343782,255.075622 180.257214,254.956219 C180.170646,254.836815 180.031842,254.777114 179.840796,254.777114 C179.673631,254.777114 179.530349,254.814427 179.410945,254.889055 C179.291542,254.963682 179.1602,255.069651 179.016915,255.206965 L179.016915,258.206965 L177.700498,258.206965 L177.700498,253.765174 Z M183.00199,254.795025 L182.393035,254.795025 L182.393035,253.818905 L183.073632,253.765174 L183.225871,252.583085 L184.318408,252.583085 L184.318408,253.765174 L185.38408,253.765174 L185.38408,254.795025 L184.318408,254.795025 L184.318408,256.577114 C184.318408,256.827862 184.370646,257.008457 184.475124,257.118905 C184.579603,257.229354 184.718407,257.284577 184.891542,257.284577 C184.963184,257.284577 185.036318,257.275622 185.110945,257.257711 C185.185573,257.239801 185.252736,257.218906 185.312438,257.195025 L185.518408,258.153234 C185.399004,258.189055 185.258707,258.224875 185.097512,258.260697 C184.936318,258.296518 184.74826,258.314428 184.533333,258.314428 C184.258705,258.314428 184.024379,258.272637 183.830348,258.189055 C183.636317,258.105472 183.47811,257.989055 183.355721,257.839801 C183.233333,257.690547 183.143781,257.509951 183.087065,257.29801 C183.030348,257.086069 183.00199,256.851743 183.00199,256.595025 L183.00199,254.795025 Z M186.252736,253.765174 L187.327363,253.765174 L187.416915,254.338308 L187.452736,254.338308 C187.637812,254.153233 187.834825,253.993533 188.043781,253.859204 C188.252737,253.724875 188.503481,253.657711 188.79602,253.657711 C189.112439,253.657711 189.367661,253.72189 189.561692,253.850249 C189.755722,253.978608 189.909452,254.162188 190.022886,254.400995 C190.219901,254.198009 190.427362,254.023384 190.645274,253.877114 C190.863185,253.730845 191.121392,253.657711 191.4199,253.657711 C191.897515,253.657711 192.248258,253.817411 192.472139,254.136816 C192.696021,254.456221 192.80796,254.89353 192.80796,255.448756 L192.80796,258.206965 L191.491542,258.206965 L191.491542,255.618905 C191.491542,255.296516 191.448259,255.075622 191.361692,254.956219 C191.275124,254.836815 191.136319,254.777114 190.945274,254.777114 C190.724377,254.777114 190.470648,254.920397 190.18408,255.206965 L190.18408,258.206965 L188.867662,258.206965 L188.867662,255.618905 C188.867662,255.296516 188.824379,255.075622 188.737811,254.956219 C188.651243,254.836815 188.512439,254.777114 188.321393,254.777114 C188.094526,254.777114 187.843782,254.920397 187.569154,255.206965 L187.569154,258.206965 L186.252736,258.206965 L186.252736,253.765174 Z M193.667662,255.98607 C193.667662,255.627859 193.727363,255.303982 193.846766,255.014428 C193.96617,254.724874 194.122885,254.480101 194.316915,254.2801 C194.510946,254.080099 194.733332,253.926369 194.98408,253.818905 C195.234827,253.711442 195.494526,253.657711 195.763184,253.657711 C196.079604,253.657711 196.35572,253.711442 196.591542,253.818905 C196.827364,253.926369 197.024377,254.075621 197.182587,254.266667 C197.340797,254.457712 197.458706,254.683083 197.536318,254.942786 C197.613931,255.202489 197.652736,255.484576 197.652736,255.789055 C197.652736,255.908458 197.646766,256.017412 197.634826,256.11592 C197.622886,256.214428 197.610945,256.290547 197.599005,256.344279 L194.939303,256.344279 C194.999005,256.684579 195.13184,256.930845 195.337811,257.083085 C195.543782,257.235324 195.796018,257.311443 196.094527,257.311443 C196.410947,257.311443 196.730347,257.212936 197.052736,257.01592 L197.491542,257.812935 C197.264675,257.96816 197.012439,258.090547 196.734826,258.1801 C196.457213,258.269652 196.184081,258.314428 195.915423,258.314428 C195.599003,258.314428 195.303484,258.26219 195.028856,258.157711 C194.754227,258.053233 194.515424,257.900996 194.312438,257.700995 C194.109452,257.500994 193.951244,257.257713 193.837811,256.971144 C193.724378,256.684576 193.667662,256.356221 193.667662,255.98607 Z M196.533333,255.529353 C196.533333,255.272636 196.476617,255.063682 196.363184,254.902488 C196.249751,254.741293 196.058708,254.660697 195.79005,254.660697 C195.581093,254.660697 195.397513,254.730845 195.239303,254.871144 C195.081094,255.011443 194.97811,255.230844 194.930348,255.529353 L196.533333,255.529353 Z M198.566169,253.765174 L199.640796,253.765174 L199.730348,254.329353 L199.766169,254.329353 C199.957215,254.150248 200.166168,253.993533 200.393035,253.859204 C200.619902,253.724875 200.885571,253.657711 201.19005,253.657711 C201.673634,253.657711 202.024377,253.815919 202.242289,254.132338 C202.4602,254.448758 202.569154,254.887559 202.569154,255.448756 L202.569154,258.206965 L201.252736,258.206965 L201.252736,255.618905 C201.252736,255.296516 201.209453,255.075622 201.122886,254.956219 C201.036318,254.836815 200.897513,254.777114 200.706468,254.777114 C200.539303,254.777114 200.39602,254.814427 200.276617,254.889055 C200.157213,254.963682 200.025871,255.069651 199.882587,255.206965 L199.882587,258.206965 L198.566169,258.206965 L198.566169,253.765174 Z M203.867662,254.795025 L203.258706,254.795025 L203.258706,253.818905 L203.939303,253.765174 L204.091542,252.583085 L205.18408,252.583085 L205.18408,253.765174 L206.249751,253.765174 L206.249751,254.795025 L205.18408,254.795025 L205.18408,256.577114 C205.18408,256.827862 205.236318,257.008457 205.340796,257.118905 C205.445274,257.229354 205.584079,257.284577 205.757214,257.284577 C205.828856,257.284577 205.90199,257.275622 205.976617,257.257711 C206.051244,257.239801 206.118408,257.218906 206.178109,257.195025 L206.38408,258.153234 C206.264676,258.189055 206.124379,258.224875 205.963184,258.260697 C205.801989,258.296518 205.613931,258.314428 205.399005,258.314428 C205.124377,258.314428 204.890051,258.272637 204.69602,258.189055 C204.501989,258.105472 204.343782,257.989055 204.221393,257.839801 C204.099004,257.690547 204.009453,257.509951 203.952736,257.29801 C203.89602,257.086069 203.867662,256.851743 203.867662,256.595025 L203.867662,254.795025 Z" id="Appointment" fill="#79797B"></path>
                <path d="M284.334328,256.568159 C284.543285,256.747265 284.774626,256.893532 285.028358,257.006965 C285.282091,257.120399 285.531342,257.177114 285.776119,257.177114 C286.050748,257.177114 286.255223,257.126369 286.389552,257.024876 C286.523881,256.923383 286.591045,256.786071 286.591045,256.612935 C286.591045,256.523383 286.571642,256.445771 286.532836,256.3801 C286.49403,256.314428 286.437314,256.256219 286.362687,256.205473 C286.288059,256.154726 286.198508,256.106965 286.09403,256.062189 L285.749254,255.914428 L284.98806,255.59204 C284.838805,255.532338 284.694031,255.454727 284.553731,255.359204 C284.413432,255.263681 284.28806,255.151742 284.177612,255.023383 C284.067164,254.895024 283.979105,254.745772 283.913433,254.575622 C283.847761,254.405472 283.814925,254.212936 283.814925,253.99801 C283.814925,253.759203 283.865671,253.533832 283.967164,253.321891 C284.068657,253.109949 284.211939,252.924876 284.397015,252.766667 C284.58209,252.608457 284.801491,252.484578 285.055224,252.395025 C285.308956,252.305472 285.588058,252.260697 285.892537,252.260697 C286.232838,252.260697 286.568655,252.326368 286.9,252.457711 C287.231345,252.589055 287.522387,252.780098 287.773134,253.030846 L287.101493,253.863682 C286.910447,253.714427 286.719404,253.599503 286.528358,253.518905 C286.337312,253.438308 286.125374,253.39801 285.892537,253.39801 C285.665671,253.39801 285.485075,253.444278 285.350746,253.536816 C285.216417,253.629354 285.149254,253.759203 285.149254,253.926368 C285.149254,254.015921 285.171642,254.092039 285.216418,254.154726 C285.261194,254.217413 285.32388,254.274129 285.404478,254.324876 C285.485075,254.375622 285.579104,254.423383 285.686567,254.468159 C285.79403,254.512936 285.910447,254.562189 286.035821,254.61592 L286.78806,254.920398 C287.14627,255.063682 287.428357,255.260695 287.634328,255.511443 C287.8403,255.76219 287.943284,256.09353 287.943284,256.505473 C287.943284,256.75025 287.89403,256.981591 287.795522,257.199502 C287.697014,257.417414 287.553732,257.608457 287.365672,257.772637 C287.177611,257.936817 286.94627,258.068159 286.671642,258.166667 C286.397014,258.265175 286.086569,258.314428 285.740299,258.314428 C285.358207,258.314428 284.977614,258.244279 284.598507,258.10398 C284.219401,257.963681 283.880599,257.753235 283.58209,257.472637 L284.334328,256.568159 Z M288.570149,255.98607 C288.570149,255.627859 288.62985,255.303982 288.749254,255.014428 C288.868657,254.724874 289.025372,254.480101 289.219403,254.2801 C289.413434,254.080099 289.63582,253.926369 289.886567,253.818905 C290.137315,253.711442 290.397014,253.657711 290.665672,253.657711 C290.982091,253.657711 291.258208,253.711442 291.49403,253.818905 C291.729852,253.926369 291.926865,254.075621 292.085075,254.266667 C292.243284,254.457712 292.361194,254.683083 292.438806,254.942786 C292.516418,255.202489 292.555224,255.484576 292.555224,255.789055 C292.555224,255.908458 292.549254,256.017412 292.537313,256.11592 C292.525373,256.214428 292.513433,256.290547 292.501493,256.344279 L289.841791,256.344279 C289.901493,256.684579 290.034327,256.930845 290.240299,257.083085 C290.44627,257.235324 290.698506,257.311443 290.997015,257.311443 C291.313434,257.311443 291.632834,257.212936 291.955224,257.01592 L292.39403,257.812935 C292.167163,257.96816 291.914927,258.090547 291.637313,258.1801 C291.3597,258.269652 291.086569,258.314428 290.81791,258.314428 C290.501491,258.314428 290.205972,258.26219 289.931343,258.157711 C289.656715,258.053233 289.417911,257.900996 289.214925,257.700995 C289.011939,257.500994 288.853732,257.257713 288.740299,256.971144 C288.626865,256.684576 288.570149,256.356221 288.570149,255.98607 Z M291.435821,255.529353 C291.435821,255.272636 291.379105,255.063682 291.265672,254.902488 C291.152238,254.741293 290.961195,254.660697 290.692537,254.660697 C290.483581,254.660697 290.300001,254.730845 290.141791,254.871144 C289.983581,255.011443 289.880597,255.230844 289.832836,255.529353 L291.435821,255.529353 Z M293.468657,253.765174 L294.543284,253.765174 L294.632836,254.544279 L294.668657,254.544279 C294.829852,254.239799 295.023879,254.015921 295.250746,253.872637 C295.477613,253.729353 295.704476,253.657711 295.931343,253.657711 C296.056717,253.657711 296.159701,253.665174 296.240299,253.6801 C296.320896,253.695025 296.39403,253.717413 296.459701,253.747264 L296.244776,254.884577 C296.161194,254.860696 296.083582,254.842786 296.01194,254.830846 C295.940298,254.818905 295.856717,254.812935 295.761194,254.812935 C295.594029,254.812935 295.419404,254.872636 295.237313,254.99204 C295.055223,255.111443 294.904478,255.323382 294.785075,255.627861 L294.785075,258.206965 L293.468657,258.206965 L293.468657,253.765174 Z M296.558209,253.765174 L297.883582,253.765174 L298.456716,255.860697 C298.516418,256.081593 298.574627,256.306964 298.631343,256.536816 C298.68806,256.766668 298.746268,256.998009 298.80597,257.230846 L298.841791,257.230846 C298.895523,256.998009 298.950746,256.766668 299.007463,256.536816 C299.064179,256.306964 299.122388,256.081593 299.18209,255.860697 L299.764179,253.765174 L301.026866,253.765174 L299.576119,258.206965 L298.053731,258.206965 L296.558209,253.765174 Z M302.370149,253.111443 C302.149253,253.111443 301.967165,253.047264 301.823881,252.918905 C301.680596,252.790547 301.608955,252.624877 301.608955,252.421891 C301.608955,252.218904 301.680596,252.054727 301.823881,251.929353 C301.967165,251.803979 302.149253,251.741294 302.370149,251.741294 C302.597016,251.741294 302.780596,251.803979 302.920896,251.929353 C303.061195,252.054727 303.131343,252.218904 303.131343,252.421891 C303.131343,252.624877 303.061195,252.790547 302.920896,252.918905 C302.780596,253.047264 302.597016,253.111443 302.370149,253.111443 Z M301.716418,253.765174 L303.032836,253.765174 L303.032836,258.206965 L301.716418,258.206965 L301.716418,253.765174 Z M303.928358,255.98607 C303.928358,255.615919 303.991044,255.286071 304.116418,254.996517 C304.241792,254.706964 304.410447,254.463683 304.622388,254.266667 C304.834329,254.069651 305.080596,253.918906 305.361194,253.814428 C305.641792,253.70995 305.934327,253.657711 306.238806,253.657711 C306.513434,253.657711 306.761193,253.70398 306.98209,253.796517 C307.202986,253.889055 307.388059,254.012935 307.537313,254.168159 L306.937313,254.983085 C306.728357,254.809949 306.522389,254.723383 306.319403,254.723383 C305.997013,254.723383 305.743285,254.836815 305.558209,255.063682 C305.373133,255.290548 305.280597,255.598008 305.280597,255.98607 C305.280597,256.374131 305.374626,256.681591 305.562687,256.908458 C305.750747,257.135325 305.988058,257.248756 306.274627,257.248756 C306.435822,257.248756 306.582089,257.215921 306.713433,257.150249 C306.844777,257.084577 306.964179,257.009951 307.071642,256.926368 L307.6,257.759204 C307.385074,257.95025 307.14627,258.090547 306.883582,258.1801 C306.620894,258.269652 306.367165,258.314428 306.122388,258.314428 C305.811939,258.314428 305.523882,258.26219 305.258209,258.157711 C304.992536,258.053233 304.761195,257.902489 304.564179,257.705473 C304.367163,257.508457 304.211941,257.265176 304.098507,256.975622 C303.985074,256.686068 303.928358,256.356221 303.928358,255.98607 Z M308.110448,255.98607 C308.110448,255.627859 308.170149,255.303982 308.289552,255.014428 C308.408956,254.724874 308.565671,254.480101 308.759701,254.2801 C308.953732,254.080099 309.176118,253.926369 309.426866,253.818905 C309.677613,253.711442 309.937312,253.657711 310.20597,253.657711 C310.52239,253.657711 310.798506,253.711442 311.034328,253.818905 C311.27015,253.926369 311.467163,254.075621 311.625373,254.266667 C311.783583,254.457712 311.901492,254.683083 311.979104,254.942786 C312.056717,255.202489 312.095522,255.484576 312.095522,255.789055 C312.095522,255.908458 312.089552,256.017412 312.077612,256.11592 C312.065672,256.214428 312.053731,256.290547 312.041791,256.344279 L309.38209,256.344279 C309.441791,256.684579 309.574626,256.930845 309.780597,257.083085 C309.986568,257.235324 310.238804,257.311443 310.537313,257.311443 C310.853733,257.311443 311.173133,257.212936 311.495522,257.01592 L311.934328,257.812935 C311.707462,257.96816 311.455225,258.090547 311.177612,258.1801 C310.899999,258.269652 310.626867,258.314428 310.358209,258.314428 C310.041789,258.314428 309.74627,258.26219 309.471642,258.157711 C309.197014,258.053233 308.95821,257.900996 308.755224,257.700995 C308.552238,257.500994 308.39403,257.257713 308.280597,256.971144 C308.167164,256.684576 308.110448,256.356221 308.110448,255.98607 Z M310.976119,255.529353 C310.976119,255.272636 310.919404,255.063682 310.80597,254.902488 C310.692537,254.741293 310.501494,254.660697 310.232836,254.660697 C310.02388,254.660697 309.840299,254.730845 309.68209,254.871144 C309.52388,255.011443 309.420896,255.230844 309.373134,255.529353 L310.976119,255.529353 Z M313.20597,256.872637 C313.408956,257.027861 313.602984,257.144278 313.78806,257.221891 C313.973135,257.299503 314.161193,257.338308 314.352239,257.338308 C314.549255,257.338308 314.692537,257.305473 314.78209,257.239801 C314.871642,257.174129 314.916418,257.081593 314.916418,256.962189 C314.916418,256.890547 314.891045,256.826368 314.840299,256.769652 C314.789552,256.712935 314.720896,256.660697 314.634328,256.612935 C314.547761,256.565174 314.450747,256.521891 314.343284,256.483085 C314.23582,256.444278 314.125374,256.400995 314.01194,256.353234 C313.874626,256.299502 313.737314,256.236816 313.6,256.165174 C313.462686,256.093532 313.337314,256.005473 313.223881,255.900995 C313.110447,255.796517 313.017911,255.67413 312.946269,255.533831 C312.874627,255.393532 312.838806,255.230847 312.838806,255.045771 C312.838806,254.842785 312.879104,254.654727 312.959701,254.481592 C313.040299,254.308457 313.155223,254.16219 313.304478,254.042786 C313.453732,253.923382 313.632835,253.829354 313.841791,253.760697 C314.050747,253.692039 314.283581,253.657711 314.540299,253.657711 C314.880599,253.657711 315.179103,253.71592 315.435821,253.832338 C315.692539,253.948757 315.916417,254.078606 316.107463,254.221891 L315.516418,255.00995 C315.355223,254.890547 315.197016,254.79801 315.041791,254.732338 C314.886566,254.666666 314.731344,254.633831 314.576119,254.633831 C314.241789,254.633831 314.074627,254.750248 314.074627,254.983085 C314.074627,255.054727 314.098507,255.11592 314.146269,255.166667 C314.19403,255.217413 314.258209,255.263681 314.338806,255.305473 C314.419403,255.347264 314.51194,255.387562 314.616418,255.426368 C314.720896,255.465174 314.82985,255.505472 314.943284,255.547264 C315.086568,255.600995 315.228358,255.662189 315.368657,255.730846 C315.508956,255.799503 315.637313,255.884577 315.753731,255.98607 C315.87015,256.087563 315.964179,256.211442 316.035821,256.357711 C316.107463,256.503981 316.143284,256.678606 316.143284,256.881592 C316.143284,257.084578 316.104478,257.272636 316.026866,257.445771 C315.949253,257.618906 315.832837,257.769651 315.677612,257.89801 C315.522387,258.026369 315.331344,258.12786 315.104478,258.202488 C314.877611,258.277115 314.614927,258.314428 314.316418,258.314428 C314.023879,258.314428 313.723882,258.257712 313.416418,258.144279 C313.108954,258.030845 312.841792,257.881593 312.614925,257.696517 L313.20597,256.872637 Z" id="Services" fill="#79797B"></path>
                <path d="M417.145274,255.600995 L417.010945,255.063682 C416.927363,254.771143 416.846767,254.460698 416.769154,254.132338 C416.691542,253.803978 416.613931,253.487564 416.536318,253.183085 L416.500498,253.183085 C416.428855,253.493534 416.355722,253.811441 416.281095,254.136816 C416.206467,254.462191 416.127364,254.771143 416.043781,255.063682 L415.900498,255.600995 L417.145274,255.600995 Z M417.41393,256.630846 L415.631841,256.630846 L415.273632,258.018905 L413.930348,258.018905 L415.757214,252.1801 L417.342289,252.1801 L419.169154,258.018905 L417.772139,258.018905 L417.41393,256.630846 Z M419.697512,251.741294 L421.01393,251.741294 L421.01393,253.281592 L420.978109,253.962189 C421.151245,253.806964 421.33781,253.68607 421.537811,253.599502 C421.737812,253.512935 421.942288,253.469652 422.151244,253.469652 C422.419902,253.469652 422.66169,253.523383 422.876617,253.630846 C423.091543,253.738309 423.275124,253.889054 423.427363,254.083085 C423.579603,254.277115 423.696019,254.512934 423.776617,254.790547 C423.857214,255.068161 423.897512,255.377113 423.897512,255.717413 C423.897512,256.099504 423.845274,256.4398 423.740796,256.738308 C423.636318,257.036817 423.496021,257.289054 423.3199,257.495025 C423.14378,257.700996 422.943782,257.857711 422.7199,257.965174 C422.496019,258.072637 422.264678,258.126368 422.025871,258.126368 C421.828855,258.126368 421.630349,258.078607 421.430348,257.983085 C421.230347,257.887562 421.043782,257.74428 420.870647,257.553234 L420.834826,257.553234 L420.727363,258.018905 L419.697512,258.018905 L419.697512,251.741294 Z M421.01393,256.765174 C421.133334,256.872637 421.252736,256.947263 421.372139,256.989055 C421.491543,257.030846 421.60796,257.051741 421.721393,257.051741 C421.94826,257.051741 422.142288,256.948757 422.303483,256.742786 C422.464677,256.536815 422.545274,256.203982 422.545274,255.744279 C422.545274,254.944275 422.28856,254.544279 421.775124,254.544279 C421.512436,254.544279 421.258708,254.678606 421.01393,254.947264 L421.01393,256.765174 Z M424.569154,255.79801 C424.569154,255.427859 424.628855,255.098011 424.748259,254.808458 C424.867662,254.518904 425.027362,254.275623 425.227363,254.078607 C425.427364,253.881591 425.658705,253.730846 425.921393,253.626368 C426.184081,253.52189 426.45572,253.469652 426.736318,253.469652 C427.016917,253.469652 427.287063,253.52189 427.546766,253.626368 C427.806469,253.730846 428.036317,253.881591 428.236318,254.078607 C428.436319,254.275623 428.596019,254.518904 428.715423,254.808458 C428.834826,255.098011 428.894527,255.427859 428.894527,255.79801 C428.894527,256.168161 428.834826,256.498009 428.715423,256.787562 C428.596019,257.077116 428.436319,257.320397 428.236318,257.517413 C428.036317,257.714429 427.806469,257.865174 427.546766,257.969652 C427.287063,258.07413 427.016917,258.126368 426.736318,258.126368 C426.45572,258.126368 426.184081,258.07413 425.921393,257.969652 C425.658705,257.865174 425.427364,257.714429 425.227363,257.517413 C425.027362,257.320397 424.867662,257.077116 424.748259,256.787562 C424.628855,256.498009 424.569154,256.168161 424.569154,255.79801 Z M425.921393,255.79801 C425.921393,256.186072 425.988557,256.493531 426.122886,256.720398 C426.257215,256.947265 426.46169,257.060697 426.736318,257.060697 C427.004976,257.060697 427.20796,256.947265 427.345274,256.720398 C427.482588,256.493531 427.551244,256.186072 427.551244,255.79801 C427.551244,255.409948 427.482588,255.102489 427.345274,254.875622 C427.20796,254.648755 427.004976,254.535323 426.736318,254.535323 C426.46169,254.535323 426.257215,254.648755 426.122886,254.875622 C425.988557,255.102489 425.921393,255.409948 425.921393,255.79801 Z M429.754229,253.577114 L431.070647,253.577114 L431.070647,256.165174 C431.070647,256.487564 431.115422,256.708457 431.204975,256.827861 C431.294528,256.947264 431.434825,257.006965 431.625871,257.006965 C431.793036,257.006965 431.933333,256.96816 432.046766,256.890547 C432.1602,256.812935 432.282586,256.687563 432.41393,256.514428 L432.41393,253.577114 L433.730348,253.577114 L433.730348,258.018905 L432.655721,258.018905 L432.557214,257.400995 L432.530348,257.400995 C432.339303,257.627862 432.134827,257.805472 431.916915,257.933831 C431.699004,258.06219 431.437812,258.126368 431.133333,258.126368 C430.649749,258.126368 430.299006,257.968161 430.081095,257.651741 C429.863183,257.335322 429.754229,256.89652 429.754229,256.335323 L429.754229,253.577114 Z M435.064677,254.606965 L434.455721,254.606965 L434.455721,253.630846 L435.136318,253.577114 L435.288557,252.395025 L436.381095,252.395025 L436.381095,253.577114 L437.446766,253.577114 L437.446766,254.606965 L436.381095,254.606965 L436.381095,256.389055 C436.381095,256.639802 436.433333,256.820397 436.537811,256.930846 C436.642289,257.041294 436.781094,257.096517 436.954229,257.096517 C437.025871,257.096517 437.099005,257.087562 437.173632,257.069652 C437.248259,257.051741 437.315423,257.030846 437.375124,257.006965 L437.581095,257.965174 C437.461691,258.000995 437.321394,258.036816 437.160199,258.072637 C436.999004,258.108458 436.810946,258.126368 436.59602,258.126368 C436.321392,258.126368 436.087066,258.084578 435.893035,258.000995 C435.699004,257.917413 435.540797,257.800996 435.418408,257.651741 C435.296019,257.502487 435.206468,257.321892 435.149751,257.10995 C435.093035,256.898009 435.064677,256.663683 435.064677,256.406965 L435.064677,254.606965 Z M440.133333,253.577114 L441.449751,253.577114 L441.449751,256.165174 C441.449751,256.487564 441.494527,256.708457 441.58408,256.827861 C441.673632,256.947264 441.813929,257.006965 442.004975,257.006965 C442.17214,257.006965 442.312437,256.96816 442.425871,256.890547 C442.539304,256.812935 442.661691,256.687563 442.793035,256.514428 L442.793035,253.577114 L444.109453,253.577114 L444.109453,258.018905 L443.034826,258.018905 L442.936318,257.400995 L442.909453,257.400995 C442.718407,257.627862 442.513931,257.805472 442.29602,257.933831 C442.078108,258.06219 441.816917,258.126368 441.512438,258.126368 C441.028853,258.126368 440.678111,257.968161 440.460199,257.651741 C440.242287,257.335322 440.133333,256.89652 440.133333,256.335323 L440.133333,253.577114 Z M445.461692,256.684577 C445.664678,256.839802 445.858706,256.956219 446.043781,257.033831 C446.228857,257.111443 446.416914,257.150249 446.60796,257.150249 C446.804976,257.150249 446.948258,257.117413 447.037811,257.051741 C447.127364,256.986069 447.172139,256.893533 447.172139,256.774129 C447.172139,256.702487 447.146766,256.638309 447.09602,256.581592 C447.045273,256.524875 446.976617,256.472637 446.89005,256.424876 C446.803482,256.377114 446.706468,256.333831 446.599005,256.295025 C446.491542,256.256219 446.381095,256.212936 446.267662,256.165174 C446.130348,256.111443 445.993036,256.048757 445.855721,255.977114 C445.718407,255.905472 445.593035,255.817413 445.479602,255.712935 C445.366169,255.608457 445.273632,255.48607 445.20199,255.345771 C445.130348,255.205472 445.094527,255.042787 445.094527,254.857711 C445.094527,254.654725 445.134825,254.466668 445.215423,254.293532 C445.29602,254.120397 445.410945,253.97413 445.560199,253.854726 C445.709453,253.735323 445.888556,253.641294 446.097512,253.572637 C446.306469,253.50398 446.539302,253.469652 446.79602,253.469652 C447.13632,253.469652 447.434825,253.52786 447.691542,253.644279 C447.94826,253.760697 448.172138,253.890547 448.363184,254.033831 L447.772139,254.821891 C447.610944,254.702487 447.452737,254.609951 447.297512,254.544279 C447.142288,254.478607 446.987065,254.445771 446.831841,254.445771 C446.497511,254.445771 446.330348,254.562188 446.330348,254.795025 C446.330348,254.866667 446.354229,254.92786 446.40199,254.978607 C446.449751,255.029353 446.51393,255.075622 446.594527,255.117413 C446.675125,255.159204 446.767661,255.199502 446.872139,255.238308 C446.976617,255.277115 447.085572,255.317413 447.199005,255.359204 C447.342289,255.412936 447.484079,255.474129 447.624378,255.542786 C447.764677,255.611443 447.893034,255.696517 448.009453,255.79801 C448.125871,255.899503 448.2199,256.023382 448.291542,256.169652 C448.363184,256.315921 448.399005,256.490546 448.399005,256.693532 C448.399005,256.896518 448.360199,257.084576 448.282587,257.257711 C448.204975,257.430847 448.088558,257.581591 447.933333,257.70995 C447.778109,257.838309 447.587066,257.939801 447.360199,258.014428 C447.133332,258.089055 446.870648,258.126368 446.572139,258.126368 C446.279601,258.126368 445.979604,258.069652 445.672139,257.956219 C445.364675,257.842786 445.097514,257.693533 444.870647,257.508458 L445.461692,256.684577 Z" id="About-us" fill="#79797B"></path>
                <g id="icon" transform="translate(415.920398, 211.940299)" stroke="#979797">
                    <polygon id="Path-5" points="0.24731285 5.82579896 0.24731285 27.8502057 10.7124992 23.0142292 20.230223 27.6118297 29.9136241 23.0644109 29.9136241 0.465009079 21.0779683 5.30247542 11.3118909 1.17084801"></polygon>
                    <path d="M21.0860591,5.6817739 L21.0860591,27.1833568" id="Line" stroke-linecap="square"></path>
                    <path d="M10.9918493,1.89392463 L10.9918493,23.3584038" id="Line" stroke-linecap="square"></path>
                </g>
                <g id="icon" transform="translate(284.577114, 211.940299)" stroke="#979797" stroke-linecap="square">
                    <path d="M7.21014986,13.6758559 L7.21014986,21.6881423" id="Line" stroke-width="3"></path>
                    <path d="M12.9782697,7.91753214 L12.9782697,21.6881423" id="Line" stroke-width="3"></path>
                    <path d="M18.7463896,10.1009314 L18.7463896,21.6881423" id="Line" stroke-width="3"></path>
                    <path d="M24.5145095,5.77196079 L24.5145095,21.6881423" id="Line" stroke-width="3"></path>
                    <path d="M2.16304496,0.721495098 L2.16304496,26.8551591" id="Line"></path>
                    <path d="M29.0003335,27.4168137 L2.15336125,27.4168137" id="Line"></path>
                </g>
                <g id="icon-picture" opacity="0.0700520848" transform="translate(2.985075, 68.656716)" stroke="#979797">
                    <polyline id="Path-15" stroke-width="2" points="0.490629012 237.464346 206.494375 63.6239262 351.288631 186.842637 436.097733 114.670794 596.638298 251.289484"></polyline>
                    <ellipse id="Oval-6" fill="#D8D8D8" cx="494.229756" cy="25.2385563" rx="30.3969575" ry="24.6222985"></ellipse>
                </g>
                <g id="icon-diamant" transform="translate(282.587065, 40.796020)" stroke="#979797">
                    <polygon id="Path-2" points="28.417655 0.274083941 37.5952931 12.356459 19.4551773 32.6362031 0.12755388 12.5109944 10.195664 0.180599593"></polygon>
                    <polyline id="Path-3" points="10.426057 0.449605575 10.426057 13.0578684 28.6856615 13.0578684 28.6856615 0.631916927"></polyline>
                    <polygon id="Path-4" points="19.0045464 1.45758307 10.1912212 12.4340447 19.5719605 32.6775397 29.2237131 12.967605"></polygon>
                    <path d="M1.2799774,12.8103159 L35.3273762,12.8103159" id="Line" stroke-linecap="square"></path>
                </g>
            </g>
        </g>
    </g>
</svg>