<?xml version="1.0" encoding="UTF-8"?>
<svg width="604px" height="241px" viewBox="0 0 604 241" version="1.1" xmlns="http://www.w3.org/2000/svg" xmlns:xlink="http://www.w3.org/1999/xlink">
    <!-- Generator: Sketch 44.1 (41455) - http://www.bohemiancoding.com/sketch -->
    <title>services20</title>
    <desc>Created with Sketch.</desc>
    <defs>
        <rect id="path-1" x="8.67167866" y="24.636724" width="11.9235582" height="1.07116191" rx="0.535580956"></rect>
        <rect id="path-2" x="206.030151" y="0" width="187.939698" height="240.201005"></rect>
        <mask id="mask-3" maskContentUnits="userSpaceOnUse" maskUnits="objectBoundingBox" x="0" y="0" width="187.939698" height="240.201005" fill="white">
            <use xlink:href="#path-2"></use>
        </mask>
    </defs>
    <g id="Services" stroke="none" stroke-width="1" fill="none" fill-rule="evenodd">
        <g id="20" transform="translate(2.000000, 0.000000)">
            <g id="Group-28" transform="translate(413.065327, 0.000000)" stroke="#979797" stroke-linecap="square">
                <path d="M6.03015075,12.1123193 L6.03015075,18.9096773" id="Line" stroke-width="3"></path>
                <path d="M11.0552764,7.61776229 L11.0552764,19.3002914" id="Line" stroke-width="3"></path>
                <path d="M16.5829146,9.72539141 L16.5829146,19.555597" id="Line" stroke-width="3"></path>
                <path d="M21.6080402,6.12049049 L21.6080402,19.6232512" id="Line" stroke-width="3"></path>
                <path d="M0.502512563,1.32523163 L0.502512563,23.4961657" id="Line"></path>
                <path d="M25.0306232,23.4505863 L1.96707287,23.4505863" id="Line"></path>
            </g>
            <path d="M459.838462,5.52763819 L516.204374,5.52763819" id="Line" stroke="#979797" stroke-width="7" stroke-linecap="square"></path>
            <path d="M459,23.1155779 L599.291457,23.1155779" id="Line" stroke="#D7D9D9" stroke-width="4" stroke-linecap="square"></path>
            <path d="M459,34.1708543 L599.291457,34.1708543" id="Line" stroke="#D7D9D9" stroke-width="4" stroke-linecap="square"></path>
            <path d="M458.833437,45.0150856 L539.839685,45.0150856" id="Line" stroke="#D7D9D9" stroke-width="4" stroke-linecap="square"></path>
            <g id="icon-mac" transform="translate(157.030608, 2.010050)">
                <rect id="Rectangle-3" stroke="#979797" x="0.5" y="0.5" width="28.2669155" height="20.4232382" rx="2"></rect>
                <path d="M0.541979916,16.6030096 L28.7249356,16.6030096" id="Line" stroke="#979797" stroke-linecap="square"></path>
                <path d="M11.3815782,20.8876573 L11.3815782,24.101143" id="Line" stroke="#979797" stroke-linecap="square"></path>
                <path d="M17.8853372,20.8876573 L17.8853372,24.101143" id="Line" stroke="#979797" stroke-linecap="square"></path>
                <g id="Rectangle-4">
                    <use fill="#D8D8D8" fill-rule="evenodd" xlink:href="#path-1"></use>
                    <rect stroke="#979797" stroke-width="1" x="9.17167866" y="25.136724" width="10.9235582" height="1" rx="0.5"></rect>
                </g>
                <ellipse id="Oval" fill="#D8D8D8" cx="14.6334577" cy="18.7453335" rx="1" ry="1"></ellipse>
            </g>
            <path d="M0.87198166,23.1155779 L141.163439,23.1155779" id="Line" stroke="#D7D9D9" stroke-width="4" stroke-linecap="square"></path>
            <path d="M0.87198166,34.1708543 L141.163439,34.1708543" id="Line" stroke="#D7D9D9" stroke-width="4" stroke-linecap="square"></path>
            <path d="M59.8384623,45.0150856 L140.84471,45.0150856" id="Line" stroke="#D7D9D9" stroke-width="4" stroke-linecap="square"></path>
            <path d="M83.9590653,5.52763819 L140.324977,5.52763819" id="Line" stroke="#979797" stroke-width="7" stroke-linecap="square"></path>
            <path d="M459.838462,98.9949749 L516.204374,98.9949749" id="Line" stroke="#979797" stroke-width="7" stroke-linecap="square"></path>
            <path d="M459,116.582915 L599.291457,116.582915" id="Line" stroke="#D7D9D9" stroke-width="4" stroke-linecap="square"></path>
            <path d="M459,127.638191 L599.291457,127.638191" id="Line" stroke="#D7D9D9" stroke-width="4" stroke-linecap="square"></path>
            <path d="M458.833437,138.482422 L539.839685,138.482422" id="Line" stroke="#D7D9D9" stroke-width="4" stroke-linecap="square"></path>
            <path d="M1.71356784,116.582915 L142.005025,116.582915" id="Line" stroke="#D7D9D9" stroke-width="4" stroke-linecap="square"></path>
            <path d="M1.71356784,127.638191 L142.005025,127.638191" id="Line" stroke="#D7D9D9" stroke-width="4" stroke-linecap="square"></path>
            <path d="M59.8384623,138.482422 L140.84471,138.482422" id="Line" stroke="#D7D9D9" stroke-width="4" stroke-linecap="square"></path>
            <path d="M83.9590653,98.9949749 L140.324977,98.9949749" id="Line" stroke="#979797" stroke-width="7" stroke-linecap="square"></path>
            <path d="M459.838462,196.482412 L516.204374,196.482412" id="Line" stroke="#979797" stroke-width="7" stroke-linecap="square"></path>
            <path d="M459,214.070352 L599.291457,214.070352" id="Line" stroke="#D7D9D9" stroke-width="4" stroke-linecap="square"></path>
            <path d="M459,225.125628 L599.291457,225.125628" id="Line" stroke="#D7D9D9" stroke-width="4" stroke-linecap="square"></path>
            <path d="M458.833437,235.969859 L539.839685,235.969859" id="Line" stroke="#D7D9D9" stroke-width="4" stroke-linecap="square"></path>
            <path d="M1.71356784,214.070352 L142.005025,214.070352" id="Line" stroke="#D7D9D9" stroke-width="4" stroke-linecap="square"></path>
            <path d="M1.71356784,225.125628 L142.005025,225.125628" id="Line" stroke="#D7D9D9" stroke-width="4" stroke-linecap="square"></path>
            <path d="M59.8384623,235.969859 L140.84471,235.969859" id="Line" stroke="#D7D9D9" stroke-width="4" stroke-linecap="square"></path>
            <path d="M83.9590653,196.482412 L140.324977,196.482412" id="Line" stroke="#979797" stroke-width="7" stroke-linecap="square"></path>
            <path d="M459.838462,237.97991 L540.84471,237.97991" id="Line" stroke="#D7D9D9" stroke-width="4" stroke-linecap="square"></path>
            <use id="Rectangle-9" stroke="#979797" mask="url(#mask-3)" stroke-width="2" fill="#F2F2F2" stroke-dasharray="4" xlink:href="#path-2"></use>
            <polyline id="Path-15" stroke="#979797" stroke-width="2" points="270.351759 139.880253 290.785278 118.592965 305.147426 133.681471 313.559644 124.843809 329.483669 141.573183"></polyline>
            <circle id="Oval-6" stroke="#979797" fill="#D8D8D8" cx="318.592965" cy="113.567839" r="3.01507538"></circle>
            <rect id="Rectangle-10" stroke="#979797" stroke-width="2" x="269.341709" y="103.512563" width="59.3065327" height="41.2160804" rx="3"></rect>
            <g id="icon-diamant" transform="translate(161.809045, 192.964824)" stroke="#979797">
                <polygon id="Path-2" points="20.2847738 0.657646642 26.8358532 9.20039473 13.8872779 23.539028 0.0910490895 9.30965773 7.2777553 0.59154927"></polygon>
                <polyline id="Path-3" points="7.44221185 0.78174783 7.44221185 9.69632073 20.4760793 9.69632073 20.4760793 0.910649635"></polyline>
                <polygon id="Path-4" points="13.5656135 1.49443038 7.27458396 9.25525105 13.9706388 23.5682547 20.8601453 9.63250068"></polygon>
                <path d="M0.913659205,9.52129066 L25.2169941,9.52129066" id="Line" stroke-linecap="square"></path>
            </g>
            <g id="icon" transform="translate(161.809045, 95.477387)" stroke="#979797">
                <polygon id="Path-5" points="0.202167646 4.73574809 0.202167646 22.6392224 8.75700853 18.7080936 16.5373395 22.4454483 24.4531045 18.7488859 24.4531045 0.378002377 17.2303349 4.31034233 9.2469856 0.951773527"></polygon>
                <path d="M17.2369488,4.6186712 L17.2369488,22.097146" id="Line" stroke-linecap="square"></path>
                <path d="M8.98536526,1.53955707 L8.98536526,18.9878705" id="Line" stroke-linecap="square"></path>
            </g>
            <g id="icon-team" transform="translate(414.070352, 192.964824)" stroke="#979797">
                <path d="M7.37647035,18.0846493 C6.23840717,10.129733 7.94653969,6.11191173 12.5008679,6.0311853 C19.3323602,5.91009567 18.187245,16.4559937 17.9350723,18.0846493" id="Path-5"></path>
                <path d="M4.0201005,22.804574 C4.0201005,20.0094216 5.80665063,18.7432502 7.53209541,17.9451864 C8.68239194,17.4131438 9.43352567,17.278147 9.78549662,17.5401959 C9.90990008,18.3680184 10.0601024,18.9488962 10.2361037,19.2828294 C10.6898943,20.1438218 11.3384148,20.5780399 12.1816653,20.5854839 C14.182408,20.603146 15.1681575,18.7754786 15.1681575,17.1064163 C15.1698528,17.0272904 15.8517219,17.1718836 17.2137649,17.5401959 C20.0694777,19.8078026 21.4910374,21.5203908 21.4784438,22.6779605" id="Path-6"></path>
                <path d="M10.9492685,10.0502513 C11.9026259,11.2639863 12.8673054,12.1184755 13.843307,12.613719 C15.3073094,13.3565842 15.8033628,14.4429759 15.6956515,15.347802 C15.5879401,16.252628 13.4026532,19.3281181 12.6039908,19.366798 C11.8053285,19.4054778 8.88567904,17.1281351 9.05205946,15.3917804 C9.16297974,14.2342107 9.79538276,12.4537009 10.9492685,10.0502513 Z" id="Path-7"></path>
                <circle id="Oval-2" cx="13.0653266" cy="13.0653266" r="13.0653266"></circle>
            </g>
            <g id="icon-play" transform="translate(411.055276, 94.472362)" stroke="#979797">
                <rect id="Rectangle-5" x="0.5" y="0.5" width="28.1457286" height="24.1256281"></rect>
                <polygon id="Triangle" transform="translate(14.572864, 10.552764) rotate(90.000000) translate(-14.572864, -10.552764) " points="14.5728643 7.03517588 19.0954774 14.0703518 10.0502513 14.0703518"></polygon>
                <path d="M28.6432161,20.6030151 L8.54271357,20.6030151" id="Line" stroke-linecap="square"></path>
                <path d="M7.53768844,19.5979899 L7.53768844,21.6080402" id="Line" stroke-linecap="square"></path>
                <path d="M5.52763819,20.6030151 L0.502512563,20.6030151" id="Line" stroke-linecap="square"></path>
            </g>
        </g>
    </g>
</svg>