<?xml version="1.0" encoding="UTF-8"?>
<svg width="603px" height="354px" viewBox="0 0 603 354" version="1.1" xmlns="http://www.w3.org/2000/svg" xmlns:xlink="http://www.w3.org/1999/xlink">
    <!-- Generator: Sketch 44.1 (41455) - http://www.bohemiancoding.com/sketch -->
    <title>services03</title>
    <desc>Created with Sketch.</desc>
    <defs>
        <rect id="path-1" x="34.5370329" y="99.2561864" width="47.4884202" height="4.31548637" rx="2.15774318"></rect>
    </defs>
    <g id="Services" stroke="none" stroke-width="1" fill="none" fill-rule="evenodd">
        <g id="03" transform="translate(2.000000, 0.000000)">
            <path d="M230.521743,23.1126661 C231.503895,24.1505458 232.661413,24.9850446 233.994334,25.6161876 C235.327254,26.2473307 236.709261,26.5628975 238.140397,26.5628975 C239.964393,26.5628975 241.381476,26.1491543 242.39169,25.3216557 C243.401903,24.494157 243.907002,23.4072048 243.907002,22.0607663 C243.907002,21.3594963 243.787742,20.7634257 243.54922,20.2725366 C243.310697,19.7816476 242.987995,19.3608919 242.581104,19.0102569 C242.174212,18.6596219 241.690159,18.3440551 241.128929,18.0635471 C240.5677,17.783039 239.964387,17.48851 239.318973,17.1799512 L235.362324,15.4548355 C234.71691,15.1743275 234.057475,14.837723 233.384,14.4450117 C232.710524,14.0523005 232.107211,13.575444 231.574043,13.014428 C231.040875,12.453412 230.605929,11.7872154 230.269191,11.0158184 C229.932453,10.2444213 229.764087,9.35382175 229.764087,8.34399289 C229.764087,7.30611323 229.98156,6.33837509 230.416513,5.44074944 C230.851466,4.54312378 231.454779,3.76472571 232.226469,3.10553188 C232.99816,2.44633804 233.910144,1.93441859 234.96245,1.56975817 C236.014755,1.20509774 237.172274,1.02277027 238.435041,1.02277027 C240.090668,1.02277027 241.619996,1.33833705 243.02307,1.96948009 C244.426144,2.60062313 245.618739,3.42109677 246.60089,4.43092563 L244.70675,6.7030292 C243.864906,5.88955595 242.931875,5.25140979 241.907631,4.78857156 C240.883387,4.32573333 239.725869,4.09431769 238.435041,4.09431769 C236.891659,4.09431769 235.649957,4.45196005 234.709898,5.16725549 C233.769838,5.88255093 233.299816,6.87132685 233.299816,8.13361293 C233.299816,8.80683217 233.433106,9.37485238 233.69969,9.83769061 C233.966274,10.3005288 234.324052,10.7072594 234.773036,11.0578944 C235.22202,11.4085294 235.713088,11.7170836 236.246256,11.9835662 C236.779424,12.2500488 237.326615,12.4954897 237.887845,12.7198961 L241.802401,14.4029357 C242.588123,14.7395454 243.331741,15.1252381 244.033278,15.5600255 C244.734815,15.994813 245.338128,16.4997198 245.843234,17.0747612 C246.348341,17.6498027 246.748211,18.3230118 247.042857,19.0944089 C247.337502,19.8658059 247.484823,20.7564055 247.484823,21.7662344 C247.484823,22.8602156 247.267349,23.8840545 246.832396,24.8377818 C246.397444,25.791509 245.773085,26.6260079 244.959302,27.3413033 C244.145519,28.0565987 243.163382,28.6176064 242.012861,29.024343 C240.862341,29.4310796 239.557502,29.6344449 238.098305,29.6344449 C236.162063,29.6344449 234.366155,29.2697899 232.710527,28.5404691 C231.0549,27.8111482 229.623786,26.8153597 228.417143,25.5530736 L230.521743,23.1126661 Z M251.062643,18.9471429 C251.062643,17.2640948 251.322208,15.7563868 251.841346,14.4239737 C252.360483,13.0915607 253.047979,11.9625328 253.903854,11.0368564 C254.759729,10.1111799 255.734851,9.40290781 256.829249,8.91201878 C257.923646,8.42112975 259.060119,8.17568892 260.238701,8.17568892 C261.529529,8.17568892 262.687048,8.40009197 263.711292,8.84890479 C264.735536,9.29771762 265.591398,9.94287638 266.278905,10.7844004 C266.966411,11.6259245 267.492556,12.6357382 267.857355,13.8138719 C268.222154,14.9920055 268.404551,16.3103734 268.404551,17.7690151 C268.404551,18.5263868 268.362459,19.1575203 268.278275,19.6624348 L254.472096,19.6624348 C254.612403,21.8784481 255.292884,23.6315969 256.513558,24.9219338 C257.734233,26.2122706 259.326698,26.8574294 261.291001,26.8574294 C262.273153,26.8574294 263.178122,26.7101649 264.005936,26.4156315 C264.83375,26.1210981 265.626475,25.7354053 266.384135,25.2585417 L267.604803,27.5306453 C266.706835,28.0916613 265.710668,28.582543 264.61627,29.003305 C263.521872,29.424067 262.273155,29.6344449 260.870081,29.6344449 C259.495069,29.6344449 258.211275,29.389004 257.018663,28.898115 C255.82605,28.407226 254.787791,27.7059665 253.903854,26.7943154 C253.019917,25.8826644 252.325406,24.7676617 251.8203,23.449274 C251.315193,22.1308864 251.062643,20.630191 251.062643,18.9471429 Z M265.373926,17.3903312 C265.373926,15.2865211 264.931965,13.6806368 264.048028,12.5726301 C263.164091,11.4646234 261.92239,10.9106284 260.322885,10.9106284 C259.593287,10.9106284 258.898776,11.0578929 258.239331,11.3524263 C257.579886,11.6469597 256.983589,12.0677155 256.45042,12.6147061 C255.917252,13.1616967 255.475291,13.8349059 255.124522,14.6343537 C254.773754,15.4338015 254.54225,16.3524515 254.430004,17.3903312 L265.373926,17.3903312 Z M273.455592,8.68060083 L276.317849,8.68060083 L276.612493,12.3832881 L276.738769,12.3832881 C277.440306,11.0929513 278.289153,10.0691124 279.285335,9.31174071 C280.281518,8.55436906 281.368884,8.17568892 282.547466,8.17568892 C283.361249,8.17568892 284.090836,8.31594082 284.73625,8.59644884 L284.062778,11.6259203 C283.72604,11.5137171 283.417369,11.4295659 283.136754,11.3734643 C282.856139,11.3173627 282.505376,11.2893123 282.084454,11.2893123 C281.214548,11.2893123 280.309579,11.6399421 279.369519,12.3412121 C278.42946,13.0424822 277.608674,14.2626737 276.907137,16.0018234 L276.907137,29.129533 L273.455592,29.129533 L273.455592,8.68060083 Z M285.115078,8.68060083 L288.692899,8.68060083 L292.565364,20.2935746 C292.87404,21.3034035 293.189727,22.3132172 293.512434,23.3230461 C293.835141,24.3328749 294.150828,25.3286634 294.459504,26.3104415 L294.627872,26.3104415 C294.936549,25.3286634 295.24522,24.3328749 295.553897,23.3230461 L296.479921,20.2935746 L300.352386,8.68060083 L303.761838,8.68060083 L296.522013,29.129533 L292.48118,29.129533 L285.115078,8.68060083 Z M309.486352,4.47300162 C308.812876,4.47300162 308.24464,4.26262376 307.781625,3.84186174 C307.318611,3.42109971 307.087107,2.88814248 307.087107,2.24297404 C307.087107,1.5697548 307.318611,1.02978497 307.781625,0.623048344 C308.24464,0.21631172 308.812876,0.0129464591 309.486352,0.0129464591 C310.159827,0.0129464591 310.728064,0.21631172 311.191078,0.623048344 C311.654092,1.02978497 311.885596,1.5697548 311.885596,2.24297404 C311.885596,2.88814248 311.654092,3.42109971 311.191078,3.84186174 C310.728064,4.26262376 310.159827,4.47300162 309.486352,4.47300162 Z M307.718487,8.68060083 L311.170032,8.68060083 L311.170032,29.129533 L307.718487,29.129533 L307.718487,8.68060083 Z M316.557809,18.9471429 C316.557809,17.236044 316.824389,15.7143108 317.357557,14.3818978 C317.890725,13.0494847 318.606282,11.9204568 319.50425,10.9947804 C320.402217,10.0691039 321.447491,9.36784441 322.640104,8.89098079 C323.832717,8.41411716 325.08845,8.17568892 326.407339,8.17568892 C327.75429,8.17568892 328.911809,8.42112975 329.87993,8.91201878 C330.848051,9.40290781 331.682867,9.97092802 332.384404,10.6160965 L330.658632,12.846124 C330.041279,12.3131588 329.40289,11.8783779 328.743446,11.5417683 C328.084001,11.2051587 327.347398,11.0368564 326.533615,11.0368564 C325.607586,11.0368564 324.751724,11.2261965 323.966003,11.6048823 C323.180281,11.9835681 322.506816,12.5235379 321.945586,13.224808 C321.384357,13.926078 320.942395,14.7605768 320.619688,15.7283295 C320.296981,16.6960822 320.13563,17.7690092 320.13563,18.9471429 C320.13563,20.1252766 320.289966,21.191191 320.598642,22.1449183 C320.907318,23.0986455 321.335249,23.9191192 321.882448,24.6063638 C322.429647,25.2936085 323.096097,25.8265657 323.881819,26.2052515 C324.66754,26.5839373 325.523402,26.7732774 326.449431,26.7732774 C327.431583,26.7732774 328.322522,26.5699122 329.122274,26.1631755 C329.922026,25.7564389 330.630568,25.2725698 331.24792,24.7115538 L332.805324,26.9836574 C331.879296,27.7971306 330.848052,28.4422894 329.711562,28.919153 C328.575072,29.3960166 327.389492,29.6344449 326.154787,29.6344449 C324.807836,29.6344449 323.545088,29.3960166 322.366506,28.919153 C321.187924,28.4422894 320.170711,27.7480425 319.314836,26.8363914 C318.458961,25.9247403 317.785495,24.8027251 317.294419,23.470312 C316.803343,22.137899 316.557809,20.630191 316.557809,18.9471429 Z M335.751765,18.9471429 C335.751765,17.2640948 336.01133,15.7563868 336.530467,14.4239737 C337.049605,13.0915607 337.737101,11.9625328 338.592976,11.0368564 C339.448851,10.1111799 340.423973,9.40290781 341.51837,8.91201878 C342.612768,8.42112975 343.749241,8.17568892 344.927823,8.17568892 C346.218651,8.17568892 347.37617,8.40009197 348.400414,8.84890479 C349.424658,9.29771762 350.28052,9.94287638 350.968026,10.7844004 C351.655533,11.6259245 352.181677,12.6357382 352.546477,13.8138719 C352.911276,14.9920055 353.093673,16.3103734 353.093673,17.7690151 C353.093673,18.5263868 353.051581,19.1575203 352.967397,19.6624348 L339.161218,19.6624348 C339.301525,21.8784481 339.982006,23.6315969 341.20268,24.9219338 C342.423355,26.2122706 344.01582,26.8574294 345.980123,26.8574294 C346.962275,26.8574294 347.867244,26.7101649 348.695058,26.4156315 C349.522871,26.1210981 350.315596,25.7354053 351.073256,25.2585417 L352.293925,27.5306453 C351.395957,28.0916613 350.39979,28.582543 349.305392,29.003305 C348.210994,29.424067 346.962277,29.6344449 345.559203,29.6344449 C344.184191,29.6344449 342.900397,29.389004 341.707784,28.898115 C340.515171,28.407226 339.476912,27.7059665 338.592976,26.7943154 C337.709039,25.8826644 337.014528,24.7676617 336.509421,23.449274 C336.004315,22.1308864 335.751765,20.630191 335.751765,18.9471429 Z M350.063048,17.3903312 C350.063048,15.2865211 349.621086,13.6806368 348.73715,12.5726301 C347.853213,11.4646234 346.611511,10.9106284 345.012007,10.9106284 C344.282409,10.9106284 343.587897,11.0578929 342.928453,11.3524263 C342.269008,11.6469597 341.67271,12.0677155 341.139542,12.6147061 C340.606374,13.1616967 340.164412,13.8349059 339.813644,14.6343537 C339.462875,15.4338015 339.231372,16.3524515 339.119126,17.3903312 L350.063048,17.3903312 Z M357.597518,24.5011738 C358.495485,25.2304947 359.414485,25.8195527 360.354544,26.2683655 C361.294604,26.7171783 362.38197,26.9415814 363.616675,26.9415814 C364.963626,26.9415814 365.973824,26.6330272 366.6473,26.0159096 C367.320775,25.3987919 367.657508,24.6414316 367.657508,23.743806 C367.657508,23.2108408 367.517202,22.7480095 367.236588,22.3552982 C366.955973,21.962587 366.598194,21.6189699 366.163241,21.3244364 C365.728289,21.029903 365.230205,20.770437 364.668975,20.5460306 L362.985295,19.8728147 C362.255696,19.6203575 361.526109,19.3328411 360.79651,19.0102569 C360.066912,18.6876727 359.414492,18.2949673 358.839232,17.8321291 C358.263972,17.3692909 357.793949,16.829321 357.42915,16.2122034 C357.06435,15.5950858 356.881954,14.8517507 356.881954,13.9821758 C356.881954,13.1687026 357.043305,12.4043297 357.366012,11.6890343 C357.688719,10.9737388 358.151726,10.3566304 358.755048,9.83769061 C359.35837,9.31875078 360.094972,8.91202025 360.964878,8.61748684 C361.834784,8.32295342 362.816921,8.17568892 363.911319,8.17568892 C365.202147,8.17568892 366.387727,8.40009197 367.468094,8.84890479 C368.548461,9.29771762 369.481491,9.84470005 370.267212,10.4898685 L368.625624,12.6778201 C367.924087,12.1448548 367.194499,11.7100739 366.43684,11.3734643 C365.67918,11.0368547 364.851378,10.8685524 363.953411,10.8685524 C362.662583,10.8685524 361.715522,11.1630814 361.1122,11.7521482 C360.508879,12.3412151 360.207222,13.0284494 360.207222,13.8138719 C360.207222,14.2907355 360.333497,14.7044786 360.58605,15.0551136 C360.838604,15.4057486 361.175336,15.7143028 361.596258,15.9807854 C362.017181,16.2472681 362.501234,16.4856963 363.048433,16.6960773 C363.595632,16.9064583 364.163868,17.1238488 364.753159,17.3482552 C365.482758,17.6287632 366.21936,17.9232922 366.96299,18.231851 C367.706619,18.5404098 368.373069,18.9261026 368.96236,19.3889408 C369.551651,19.851779 370.035704,20.4197992 370.414534,21.0930185 C370.793364,21.7662377 370.982776,22.5796988 370.982776,23.533426 C370.982776,24.3749501 370.821425,25.1603607 370.498718,25.8896816 C370.176011,26.6190024 369.698973,27.2641612 369.06759,27.8251772 C368.436207,28.3861932 367.650497,28.8279867 366.710438,29.150571 C365.770378,29.4731552 364.697043,29.6344449 363.490399,29.6344449 C362.031202,29.6344449 360.64218,29.3679663 359.32329,28.835001 C358.0044,28.3020358 356.853897,27.6288267 355.871745,26.8153534 L357.597518,24.5011738 Z" id="Services" fill="#79797B"></path>
            <g id="icon-diamant" transform="translate(249.314206, 119.754747)" stroke="#979797">
                <polygon id="Path-2" points="75.0321655 0.716656332 99.2642163 32.3088414 51.3682105 85.334958 0.336785138 32.7129101 26.9199817 0.47221972"></polygon>
                <polyline id="Path-3" points="27.5282966 1.17559854 27.5282966 34.1428397 75.7397928 34.1428397 75.7397928 1.65229406"></polyline>
                <polygon id="Path-4" points="50.1783934 3.81119059 26.9082511 32.5117071 51.6765575 85.4430422 77.16043 33.9068249"></polygon>
                <path d="M3.37957077,33.495556 L93.2761532,33.495556" id="Line" stroke-linecap="square"></path>
            </g>
            <g id="Group-5" transform="translate(0.000000, 118.136439)">
                <g id="icon-mac" transform="translate(22.664928, 0.000000)">
                    <rect id="Rectangle-3" stroke="#979797" x="0.5" y="0.5" width="115.562486" height="85.3097273" rx="2"></rect>
                    <path d="M2.15856455,66.8900387 L114.403921,66.8900387" id="Line" stroke="#979797" stroke-linecap="square"></path>
                    <path d="M45.3298556,84.1519841 L45.3298556,97.0984432" id="Line" stroke="#979797" stroke-linecap="square"></path>
                    <path d="M71.2326303,84.1519841 L71.2326303,97.0984432" id="Line" stroke="#979797" stroke-linecap="square"></path>
                    <g id="Rectangle-4">
                        <use fill="#D8D8D8" fill-rule="evenodd" xlink:href="#path-1"></use>
                        <rect stroke="#979797" stroke-width="1" x="35.0370329" y="99.7561864" width="46.4884202" height="3.31548637" rx="1.65774318"></rect>
                    </g>
                    <ellipse id="Oval" fill="#D8D8D8" cx="58.281243" cy="75.5210114" rx="2.15856455" ry="2.15774318"></ellipse>
                </g>
                <path d="M38.0447003,125.418823 L122.228718,125.418823" id="Line" stroke="#979797" stroke-width="7" stroke-linecap="square"></path>
                <path d="M0.809461708,155.357509 L161.08288,155.357509" id="Line" stroke="#D7D9D9" stroke-width="4" stroke-linecap="square"></path>
                <path d="M0.809461708,173.15889 L161.08288,173.15889" id="Line" stroke="#D7D9D9" stroke-width="4" stroke-linecap="square"></path>
                <path d="M13.760849,192.578579 L145.713039,192.578579" id="Line" stroke="#D7D9D9" stroke-width="4" stroke-linecap="square"></path>
            </g>
            <path d="M258.218285,243.555262 L342.402302,243.555262" id="Line" stroke="#979797" stroke-width="7" stroke-linecap="square"></path>
            <path d="M219.364123,273.493948 L379.637541,273.493948" id="Line" stroke="#D7D9D9" stroke-width="4" stroke-linecap="square"></path>
            <path d="M219.364123,291.29533 L379.637541,291.29533" id="Line" stroke="#D7D9D9" stroke-width="4" stroke-linecap="square"></path>
            <path d="M233.934434,310.715018 L365.886624,310.715018" id="Line" stroke="#D7D9D9" stroke-width="4" stroke-linecap="square"></path>
            <g id="Group-6" transform="translate(437.109322, 118.136439)">
                <g id="icon-play" transform="translate(29.140621, 0.000000)" stroke="#979797">
                    <rect id="Rectangle-5" x="0.5" y="0.5" width="104.230022" height="89.6252137"></rect>
                    <polygon id="Triangle" transform="translate(52.615011, 38.062590) rotate(90.000000) translate(-52.615011, -38.062590) " points="52.615011 25.3750598 68.9438075 50.7501197 36.2862145 50.7501197"></polygon>
                    <path d="M103.415711,74.3126752 L30.8432823,74.3126752" id="Line" stroke-linecap="square"></path>
                    <path d="M27.2146609,70.6876667 L27.2146609,77.9376838" id="Line" stroke-linecap="square"></path>
                    <path d="M19.957418,74.3126752 L1.81431072,74.3126752" id="Line" stroke-linecap="square"></path>
                </g>
                <path d="M38.0447003,125.418823 L122.228718,125.418823" id="Line" stroke="#979797" stroke-width="7" stroke-linecap="square"></path>
                <path d="M0.809461708,155.357509 L161.08288,155.357509" id="Line" stroke="#D7D9D9" stroke-width="4" stroke-linecap="square"></path>
                <path d="M0.809461708,173.15889 L161.08288,173.15889" id="Line" stroke="#D7D9D9" stroke-width="4" stroke-linecap="square"></path>
                <path d="M13.760849,192.578579 L145.713039,192.578579" id="Line" stroke="#D7D9D9" stroke-width="4" stroke-linecap="square"></path>
            </g>
            <path d="M51.261591,348.88118 L52.6862436,348.88118 C53.3510849,348.88118 53.860501,348.745243 54.2145074,348.473366 C54.5685137,348.201489 54.7455142,347.789364 54.7455142,347.236979 C54.7455142,346.675963 54.5685137,346.283258 54.2145074,346.058852 C53.860501,345.834445 53.3510849,345.722244 52.6862436,345.722244 L51.261591,345.722244 L51.261591,348.88118 Z M54.8491253,353.347708 L52.8028061,349.761539 L51.261591,349.761539 L51.261591,353.347708 L50.1866259,353.347708 L50.1866259,344.854831 L52.8416603,344.854831 C53.2733754,344.854831 53.6727058,344.895828 54.0396636,344.977822 C54.4066214,345.059817 54.7217687,345.195753 54.9851149,345.385636 C55.2484611,345.575518 55.4535227,345.821498 55.6003058,346.123584 C55.7470889,346.42567 55.8204794,346.796798 55.8204794,347.236979 C55.8204794,347.901568 55.6477959,348.432367 55.3024239,348.829394 C54.9570518,349.226421 54.4951236,349.498294 53.9166254,349.645021 L56.0665557,353.347708 L54.8491253,353.347708 Z M57.7113819,344.854831 L62.6070063,344.854831 L62.6070063,345.761083 L58.7863471,345.761083 L58.7863471,348.428054 L62.0112425,348.428054 L62.0112425,349.347252 L58.7863471,349.347252 L58.7863471,352.42851 L62.7365202,352.42851 L62.7365202,353.347708 L57.7113819,353.347708 L57.7113819,344.854831 Z M68.1502001,349.891004 L67.7487071,348.596358 C67.5932897,348.121652 67.4465088,347.649111 67.3083599,347.17872 C67.1702111,346.70833 67.0320644,346.227158 66.8939155,345.73519 L66.84211,345.73519 C66.7125955,346.227158 66.5787658,346.70833 66.440617,347.17872 C66.3024682,347.649111 66.1556872,348.121652 66.0002698,348.596358 L65.5987768,349.891004 L68.1502001,349.891004 Z M68.4221793,350.758416 L65.3267977,350.758416 L64.5108603,353.347708 L63.4099924,353.347708 L66.2852003,344.854831 L67.5026308,344.854831 L70.3778387,353.347708 L69.2251653,353.347708 L68.4221793,350.758416 Z M71.5823178,344.854831 L73.7063453,344.854831 C75.0187591,344.854831 76.0160059,345.217328 76.6981158,345.942334 C77.3802256,346.667339 77.7212754,347.707361 77.7212754,349.06243 C77.7212754,349.735649 77.6349336,350.337654 77.4622476,350.868461 C77.2895616,351.399269 77.0348535,351.848075 76.6981158,352.214893 C76.361378,352.581711 75.9469377,352.862215 75.4547826,353.056413 C74.9626274,353.250611 74.3970891,353.347708 73.7581508,353.347708 L71.5823178,353.347708 L71.5823178,344.854831 Z M73.628637,352.467349 C74.6215816,352.467349 75.3662789,352.169583 75.8627513,351.574043 C76.3592236,350.978503 76.607456,350.141307 76.607456,349.06243 C76.607456,347.983553 76.3592236,347.159304 75.8627513,346.589657 C75.3662789,346.020009 74.6215816,345.73519 73.628637,345.73519 L72.6572829,345.73519 L72.6572829,352.467349 L73.628637,352.467349 Z M82.1636012,344.854831 L83.4328372,344.854831 L85.0776634,349.411985 L85.6993299,351.14681 L85.7511355,351.14681 L86.3468993,349.411985 L87.9787741,344.854831 L89.2480101,344.854831 L89.2480101,353.347708 L88.2248505,353.347708 L88.2248505,348.674036 C88.2248505,348.294272 88.2399603,347.875674 88.2701803,347.41823 C88.3004004,346.960786 88.3327785,346.542188 88.3673157,346.162423 L88.3155102,346.162423 L87.6290867,348.052606 L85.9972119,352.493242 L85.3884966,352.493242 L83.7436705,348.052606 L83.0701983,346.162423 L83.0183928,346.162423 C83.0442957,346.542188 83.0745153,346.960786 83.1090525,347.41823 C83.1435897,347.875674 83.160858,348.294272 83.160858,348.674036 L83.160858,353.347708 L82.1636012,353.347708 L82.1636012,344.854831 Z M94.7134955,353.503066 C94.1781688,353.503066 93.6881796,353.399495 93.2435131,353.192351 C92.7988465,352.985206 92.4167844,352.689598 92.0973153,352.305518 C91.7778461,351.921438 91.5296137,351.45537 91.3526105,350.907301 C91.1756073,350.359231 91.0871071,349.74428 91.0871071,349.06243 C91.0871071,348.38058 91.1756073,347.769945 91.3526105,347.230506 C91.5296137,346.691068 91.7778461,346.233631 92.0973153,345.858182 C92.4167844,345.482732 92.7988465,345.195755 93.2435131,344.997242 C93.6881796,344.798729 94.1781688,344.699473 94.7134955,344.699473 C95.2488222,344.699473 95.7388115,344.800886 96.183478,345.003715 C96.6281445,345.206544 97.0123652,345.495679 97.3361515,345.871128 C97.6599378,346.246577 97.9103287,346.704014 98.0873319,347.243453 C98.2643351,347.782891 98.3528354,348.389211 98.3528354,349.06243 C98.3528354,349.74428 98.2643351,350.359231 98.0873319,350.907301 C97.9103287,351.45537 97.6599378,351.921438 97.3361515,352.305518 C97.0123652,352.689598 96.6281445,352.985206 96.183478,353.192351 C95.7388115,353.399495 95.2488222,353.503066 94.7134955,353.503066 Z M94.7134955,352.557974 C95.0934048,352.557974 95.4366131,352.475981 95.7431308,352.311991 C96.0496485,352.148002 96.3129908,351.91281 96.5331654,351.606409 C96.7533401,351.300008 96.923865,350.933196 97.0447452,350.50596 C97.1656255,350.078725 97.2260647,349.597553 97.2260647,349.06243 C97.2260647,348.535938 97.1656255,348.061239 97.0447452,347.63832 C96.923865,347.2154 96.7533401,346.857218 96.5331654,346.563764 C96.3129908,346.270309 96.0496485,346.043748 95.7431308,345.884074 C95.4366131,345.724401 95.0934048,345.644565 94.7134955,345.644565 C94.3335863,345.644565 93.9903779,345.724401 93.6838602,345.884074 C93.3773425,346.043748 93.1140003,346.270309 92.8938256,346.563764 C92.6736509,346.857218 92.503126,347.2154 92.3822458,347.63832 C92.2613656,348.061239 92.2009264,348.535938 92.2009264,349.06243 C92.2009264,349.597553 92.2613656,350.078725 92.3822458,350.50596 C92.503126,350.933196 92.6736509,351.300008 92.8938256,351.606409 C93.1140003,351.91281 93.3773425,352.148002 93.6838602,352.311991 C93.9903779,352.475981 94.3335863,352.557974 94.7134955,352.557974 Z M101.253946,348.88118 L102.678599,348.88118 C103.34344,348.88118 103.852856,348.745243 104.206862,348.473366 C104.560869,348.201489 104.737869,347.789364 104.737869,347.236979 C104.737869,346.675963 104.560869,346.283258 104.206862,346.058852 C103.852856,345.834445 103.34344,345.722244 102.678599,345.722244 L101.253946,345.722244 L101.253946,348.88118 Z M104.84148,353.347708 L102.795161,349.761539 L101.253946,349.761539 L101.253946,353.347708 L100.178981,353.347708 L100.178981,344.854831 L102.834015,344.854831 C103.26573,344.854831 103.665061,344.895828 104.032019,344.977822 C104.398977,345.059817 104.714124,345.195753 104.97747,345.385636 C105.240816,345.575518 105.445878,345.821498 105.592661,346.123584 C105.739444,346.42567 105.812834,346.796798 105.812834,347.236979 C105.812834,347.901568 105.640151,348.432367 105.294779,348.829394 C104.949407,349.226421 104.487479,349.498294 103.908981,349.645021 L106.058911,353.347708 L104.84148,353.347708 Z M107.703737,344.854831 L112.599361,344.854831 L112.599361,345.761083 L108.778702,345.761083 L108.778702,348.428054 L112.003598,348.428054 L112.003598,349.347252 L108.778702,349.347252 L108.778702,352.42851 L112.728875,352.42851 L112.728875,353.347708 L107.703737,353.347708 L107.703737,344.854831 Z" id="READ-MORE" fill="#4990E2"></path>
            <path d="M269.816252,348.88118 L271.240905,348.88118 C271.905746,348.88118 272.415162,348.745243 272.769169,348.473366 C273.123175,348.201489 273.300175,347.789364 273.300175,347.236979 C273.300175,346.675963 273.123175,346.283258 272.769169,346.058852 C272.415162,345.834445 271.905746,345.722244 271.240905,345.722244 L269.816252,345.722244 L269.816252,348.88118 Z M273.403786,353.347708 L271.357467,349.761539 L269.816252,349.761539 L269.816252,353.347708 L268.741287,353.347708 L268.741287,344.854831 L271.396321,344.854831 C271.828037,344.854831 272.227367,344.895828 272.594325,344.977822 C272.961283,345.059817 273.27643,345.195753 273.539776,345.385636 C273.803122,345.575518 274.008184,345.821498 274.154967,346.123584 C274.30175,346.42567 274.375141,346.796798 274.375141,347.236979 C274.375141,347.901568 274.202457,348.432367 273.857085,348.829394 C273.511713,349.226421 273.049785,349.498294 272.471287,349.645021 L274.621217,353.347708 L273.403786,353.347708 Z M276.266043,344.854831 L281.161667,344.854831 L281.161667,345.761083 L277.341008,345.761083 L277.341008,348.428054 L280.565904,348.428054 L280.565904,349.347252 L277.341008,349.347252 L277.341008,352.42851 L281.291181,352.42851 L281.291181,353.347708 L276.266043,353.347708 L276.266043,344.854831 Z M286.704861,349.891004 L286.303368,348.596358 C286.147951,348.121652 286.00117,347.649111 285.863021,347.17872 C285.724872,346.70833 285.586726,346.227158 285.448577,345.73519 L285.396771,345.73519 C285.267257,346.227158 285.133427,346.70833 284.995278,347.17872 C284.857129,347.649111 284.710348,348.121652 284.554931,348.596358 L284.153438,349.891004 L286.704861,349.891004 Z M286.97684,350.758416 L283.881459,350.758416 L283.065521,353.347708 L281.964654,353.347708 L284.839861,344.854831 L286.057292,344.854831 L288.9325,353.347708 L287.779826,353.347708 L286.97684,350.758416 Z M290.136979,344.854831 L292.261006,344.854831 C293.57342,344.854831 294.570667,345.217328 295.252777,345.942334 C295.934887,346.667339 296.275937,347.707361 296.275937,349.06243 C296.275937,349.735649 296.189595,350.337654 296.016909,350.868461 C295.844223,351.399269 295.589515,351.848075 295.252777,352.214893 C294.916039,352.581711 294.501599,352.862215 294.009444,353.056413 C293.517289,353.250611 292.95175,353.347708 292.312812,353.347708 L290.136979,353.347708 L290.136979,344.854831 Z M292.183298,352.467349 C293.176243,352.467349 293.92094,352.169583 294.417412,351.574043 C294.913885,350.978503 295.162117,350.141307 295.162117,349.06243 C295.162117,347.983553 294.913885,347.159304 294.417412,346.589657 C293.92094,346.020009 293.176243,345.73519 292.183298,345.73519 L291.211944,345.73519 L291.211944,352.467349 L292.183298,352.467349 Z M300.718262,344.854831 L301.987498,344.854831 L303.632325,349.411985 L304.253991,351.14681 L304.305797,351.14681 L304.90156,349.411985 L306.533435,344.854831 L307.802671,344.854831 L307.802671,353.347708 L306.779512,353.347708 L306.779512,348.674036 C306.779512,348.294272 306.794621,347.875674 306.824841,347.41823 C306.855062,346.960786 306.88744,346.542188 306.921977,346.162423 L306.870171,346.162423 L306.183748,348.052606 L304.551873,352.493242 L303.943158,352.493242 L302.298332,348.052606 L301.624859,346.162423 L301.573054,346.162423 C301.598957,346.542188 301.629176,346.960786 301.663714,347.41823 C301.698251,347.875674 301.715519,348.294272 301.715519,348.674036 L301.715519,353.347708 L300.718262,353.347708 L300.718262,344.854831 Z M313.268157,353.503066 C312.73283,353.503066 312.242841,353.399495 311.798174,353.192351 C311.353508,352.985206 310.971446,352.689598 310.651976,352.305518 C310.332507,351.921438 310.084275,351.45537 309.907272,350.907301 C309.730268,350.359231 309.641768,349.74428 309.641768,349.06243 C309.641768,348.38058 309.730268,347.769945 309.907272,347.230506 C310.084275,346.691068 310.332507,346.233631 310.651976,345.858182 C310.971446,345.482732 311.353508,345.195755 311.798174,344.997242 C312.242841,344.798729 312.73283,344.699473 313.268157,344.699473 C313.803483,344.699473 314.293473,344.800886 314.738139,345.003715 C315.182806,345.206544 315.567026,345.495679 315.890813,345.871128 C316.214599,346.246577 316.46499,346.704014 316.641993,347.243453 C316.818996,347.782891 316.907497,348.389211 316.907497,349.06243 C316.907497,349.74428 316.818996,350.359231 316.641993,350.907301 C316.46499,351.45537 316.214599,351.921438 315.890813,352.305518 C315.567026,352.689598 315.182806,352.985206 314.738139,353.192351 C314.293473,353.399495 313.803483,353.503066 313.268157,353.503066 Z M313.268157,352.557974 C313.648066,352.557974 313.991274,352.475981 314.297792,352.311991 C314.60431,352.148002 314.867652,351.91281 315.087827,351.606409 C315.308001,351.300008 315.478526,350.933196 315.599406,350.50596 C315.720287,350.078725 315.780726,349.597553 315.780726,349.06243 C315.780726,348.535938 315.720287,348.061239 315.599406,347.63832 C315.478526,347.2154 315.308001,346.857218 315.087827,346.563764 C314.867652,346.270309 314.60431,346.043748 314.297792,345.884074 C313.991274,345.724401 313.648066,345.644565 313.268157,345.644565 C312.888247,345.644565 312.545039,345.724401 312.238521,345.884074 C311.932004,346.043748 311.668661,346.270309 311.448487,346.563764 C311.228312,346.857218 311.057787,347.2154 310.936907,347.63832 C310.816027,348.061239 310.755588,348.535938 310.755588,349.06243 C310.755588,349.597553 310.816027,350.078725 310.936907,350.50596 C311.057787,350.933196 311.228312,351.300008 311.448487,351.606409 C311.668661,351.91281 311.932004,352.148002 312.238521,352.311991 C312.545039,352.475981 312.888247,352.557974 313.268157,352.557974 Z M319.808607,348.88118 L321.23326,348.88118 C321.898101,348.88118 322.407517,348.745243 322.761524,348.473366 C323.11553,348.201489 323.29253,347.789364 323.29253,347.236979 C323.29253,346.675963 323.11553,346.283258 322.761524,346.058852 C322.407517,345.834445 321.898101,345.722244 321.23326,345.722244 L319.808607,345.722244 L319.808607,348.88118 Z M323.396142,353.347708 L321.349822,349.761539 L319.808607,349.761539 L319.808607,353.347708 L318.733642,353.347708 L318.733642,344.854831 L321.388677,344.854831 C321.820392,344.854831 322.219722,344.895828 322.58668,344.977822 C322.953638,345.059817 323.268785,345.195753 323.532131,345.385636 C323.795477,345.575518 324.000539,345.821498 324.147322,346.123584 C324.294105,346.42567 324.367496,346.796798 324.367496,347.236979 C324.367496,347.901568 324.194812,348.432367 323.84944,348.829394 C323.504068,349.226421 323.04214,349.498294 322.463642,349.645021 L324.613572,353.347708 L323.396142,353.347708 Z M326.258398,344.854831 L331.154023,344.854831 L331.154023,345.761083 L327.333363,345.761083 L327.333363,348.428054 L330.558259,348.428054 L330.558259,349.347252 L327.333363,349.347252 L327.333363,352.42851 L331.283536,352.42851 L331.283536,353.347708 L326.258398,353.347708 L326.258398,344.854831 Z" id="READ-MORE" fill="#4990E2"></path>
            <path d="M488.370913,348.88118 L489.795566,348.88118 C490.460407,348.88118 490.969823,348.745243 491.32383,348.473366 C491.677836,348.201489 491.854837,347.789364 491.854837,347.236979 C491.854837,346.675963 491.677836,346.283258 491.32383,346.058852 C490.969823,345.834445 490.460407,345.722244 489.795566,345.722244 L488.370913,345.722244 L488.370913,348.88118 Z M491.958448,353.347708 L489.912128,349.761539 L488.370913,349.761539 L488.370913,353.347708 L487.295948,353.347708 L487.295948,344.854831 L489.950983,344.854831 C490.382698,344.854831 490.782028,344.895828 491.148986,344.977822 C491.515944,345.059817 491.831091,345.195753 492.094437,345.385636 C492.357783,345.575518 492.562845,345.821498 492.709628,346.123584 C492.856411,346.42567 492.929802,346.796798 492.929802,347.236979 C492.929802,347.901568 492.757118,348.432367 492.411746,348.829394 C492.066374,349.226421 491.604446,349.498294 491.025948,349.645021 L493.175878,353.347708 L491.958448,353.347708 Z M494.820704,344.854831 L499.716329,344.854831 L499.716329,345.761083 L495.895669,345.761083 L495.895669,348.428054 L499.120565,348.428054 L499.120565,349.347252 L495.895669,349.347252 L495.895669,352.42851 L499.845843,352.42851 L499.845843,353.347708 L494.820704,353.347708 L494.820704,344.854831 Z M505.259522,349.891004 L504.858029,348.596358 C504.702612,348.121652 504.555831,347.649111 504.417682,347.17872 C504.279533,346.70833 504.141387,346.227158 504.003238,345.73519 L503.951432,345.73519 C503.821918,346.227158 503.688088,346.70833 503.549939,347.17872 C503.41179,347.649111 503.26501,348.121652 503.109592,348.596358 L502.708099,349.891004 L505.259522,349.891004 Z M505.531502,350.758416 L502.43612,350.758416 L501.620183,353.347708 L500.519315,353.347708 L503.394523,344.854831 L504.611953,344.854831 L507.487161,353.347708 L506.334488,353.347708 L505.531502,350.758416 Z M508.69164,344.854831 L510.815668,344.854831 C512.128081,344.854831 513.125328,345.217328 513.807438,345.942334 C514.489548,346.667339 514.830598,347.707361 514.830598,349.06243 C514.830598,349.735649 514.744256,350.337654 514.57157,350.868461 C514.398884,351.399269 514.144176,351.848075 513.807438,352.214893 C513.4707,352.581711 513.05626,352.862215 512.564105,353.056413 C512.07195,353.250611 511.506411,353.347708 510.867473,353.347708 L508.69164,353.347708 L508.69164,344.854831 Z M510.737959,352.467349 C511.730904,352.467349 512.475601,352.169583 512.972074,351.574043 C513.468546,350.978503 513.716778,350.141307 513.716778,349.06243 C513.716778,347.983553 513.468546,347.159304 512.972074,346.589657 C512.475601,346.020009 511.730904,345.73519 510.737959,345.73519 L509.766605,345.73519 L509.766605,352.467349 L510.737959,352.467349 Z M519.272924,344.854831 L520.542159,344.854831 L522.186986,349.411985 L522.808652,351.14681 L522.860458,351.14681 L523.456222,349.411985 L525.088096,344.854831 L526.357332,344.854831 L526.357332,353.347708 L525.334173,353.347708 L525.334173,348.674036 C525.334173,348.294272 525.349283,347.875674 525.379503,347.41823 C525.409723,346.960786 525.442101,346.542188 525.476638,346.162423 L525.424832,346.162423 L524.738409,348.052606 L523.106534,352.493242 L522.497819,352.493242 L520.852993,348.052606 L520.179521,346.162423 L520.127715,346.162423 C520.153618,346.542188 520.183838,346.960786 520.218375,347.41823 C520.252912,347.875674 520.27018,348.294272 520.27018,348.674036 L520.27018,353.347708 L519.272924,353.347708 L519.272924,344.854831 Z M531.822818,353.503066 C531.287491,353.503066 530.797502,353.399495 530.352835,353.192351 C529.908169,352.985206 529.526107,352.689598 529.206638,352.305518 C528.887168,351.921438 528.638936,351.45537 528.461933,350.907301 C528.28493,350.359231 528.196429,349.74428 528.196429,349.06243 C528.196429,348.38058 528.28493,347.769945 528.461933,347.230506 C528.638936,346.691068 528.887168,346.233631 529.206638,345.858182 C529.526107,345.482732 529.908169,345.195755 530.352835,344.997242 C530.797502,344.798729 531.287491,344.699473 531.822818,344.699473 C532.358145,344.699473 532.848134,344.800886 533.2928,345.003715 C533.737467,345.206544 534.121687,345.495679 534.445474,345.871128 C534.76926,346.246577 535.019651,346.704014 535.196654,347.243453 C535.373657,347.782891 535.462158,348.389211 535.462158,349.06243 C535.462158,349.74428 535.373657,350.359231 535.196654,350.907301 C535.019651,351.45537 534.76926,351.921438 534.445474,352.305518 C534.121687,352.689598 533.737467,352.985206 533.2928,353.192351 C532.848134,353.399495 532.358145,353.503066 531.822818,353.503066 Z M531.822818,352.557974 C532.202727,352.557974 532.545935,352.475981 532.852453,352.311991 C533.158971,352.148002 533.422313,351.91281 533.642488,351.606409 C533.862662,351.300008 534.033187,350.933196 534.154068,350.50596 C534.274948,350.078725 534.335387,349.597553 534.335387,349.06243 C534.335387,348.535938 534.274948,348.061239 534.154068,347.63832 C534.033187,347.2154 533.862662,346.857218 533.642488,346.563764 C533.422313,346.270309 533.158971,346.043748 532.852453,345.884074 C532.545935,345.724401 532.202727,345.644565 531.822818,345.644565 C531.442909,345.644565 531.0997,345.724401 530.793183,345.884074 C530.486665,346.043748 530.223323,346.270309 530.003148,346.563764 C529.782973,346.857218 529.612448,347.2154 529.491568,347.63832 C529.370688,348.061239 529.310249,348.535938 529.310249,349.06243 C529.310249,349.597553 529.370688,350.078725 529.491568,350.50596 C529.612448,350.933196 529.782973,351.300008 530.003148,351.606409 C530.223323,351.91281 530.486665,352.148002 530.793183,352.311991 C531.0997,352.475981 531.442909,352.557974 531.822818,352.557974 Z M538.363268,348.88118 L539.787921,348.88118 C540.452762,348.88118 540.962178,348.745243 541.316185,348.473366 C541.670191,348.201489 541.847192,347.789364 541.847192,347.236979 C541.847192,346.675963 541.670191,346.283258 541.316185,346.058852 C540.962178,345.834445 540.452762,345.722244 539.787921,345.722244 L538.363268,345.722244 L538.363268,348.88118 Z M541.950803,353.347708 L539.904484,349.761539 L538.363268,349.761539 L538.363268,353.347708 L537.288303,353.347708 L537.288303,344.854831 L539.943338,344.854831 C540.375053,344.854831 540.774383,344.895828 541.141341,344.977822 C541.508299,345.059817 541.823446,345.195753 542.086792,345.385636 C542.350138,345.575518 542.5552,345.821498 542.701983,346.123584 C542.848766,346.42567 542.922157,346.796798 542.922157,347.236979 C542.922157,347.901568 542.749473,348.432367 542.404101,348.829394 C542.058729,349.226421 541.596801,349.498294 541.018303,349.645021 L543.168233,353.347708 L541.950803,353.347708 Z M544.813059,344.854831 L549.708684,344.854831 L549.708684,345.761083 L545.888024,345.761083 L545.888024,348.428054 L549.11292,348.428054 L549.11292,349.347252 L545.888024,349.347252 L545.888024,352.42851 L549.838198,352.42851 L549.838198,353.347708 L544.813059,353.347708 L544.813059,344.854831 Z" id="READ-MORE" fill="#4990E2"></path>
        </g>
    </g>
</svg>