<?xml version="1.0" encoding="UTF-8"?>
<svg width="600px" height="190px" viewBox="0 0 600 190" version="1.1" xmlns="http://www.w3.org/2000/svg" xmlns:xlink="http://www.w3.org/1999/xlink">
    <!-- Generator: Sketch 44.1 (41455) - http://www.bohemiancoding.com/sketch -->
    <title>services25</title>
    <desc>Created with Sketch.</desc>
    <defs>
        <rect id="path-1" x="7.960199" y="22.8855721" width="10.9452736" height="1" rx="0.5"></rect>
    </defs>
    <g id="Services" stroke="none" stroke-width="1" fill="none" fill-rule="evenodd">
        <g id="25">
            <path d="M246,1.32408719 L248.780583,1.32408719 L248.780583,6.07188556 L253.036578,6.07188556 L253.036578,1.32408719 L255.836076,1.32408719 L255.836076,13.6570136 L253.036578,13.6570136 L253.036578,8.5119891 L248.780583,8.5119891 L248.780583,13.6570136 L246,13.6570136 L246,1.32408719 Z M257.973531,8.96596185 C257.973531,8.18411598 258.099634,7.48740088 258.351842,6.87579564 C258.60405,6.2641904 258.941374,5.75032361 259.363823,5.33417984 C259.786272,4.91803607 260.274918,4.59962781 260.829777,4.3789455 C261.384635,4.1582632 261.9584,4.04792371 262.55109,4.04792371 C263.14378,4.04792371 263.714392,4.1582632 264.262946,4.3789455 C264.811499,4.59962781 265.296992,4.91803607 265.719441,5.33417984 C266.14189,5.75032361 266.479214,6.2641904 266.731422,6.87579564 C266.983631,7.48740088 267.109733,8.18411598 267.109733,8.96596185 C267.109733,9.74780772 266.983631,10.4445228 266.731422,11.0561281 C266.479214,11.6677333 266.14189,12.1816001 265.719441,12.5977439 C265.296992,13.0138876 264.811499,13.3322959 264.262946,13.5529782 C263.714392,13.7736605 263.14378,13.884 262.55109,13.884 C261.9584,13.884 261.384635,13.7736605 260.829777,13.5529782 C260.274918,13.3322959 259.786272,13.0138876 259.363823,12.5977439 C258.941374,12.1816001 258.60405,11.6677333 258.351842,11.0561281 C258.099634,10.4445228 257.973531,9.74780772 257.973531,8.96596185 Z M260.829777,8.96596185 C260.829777,9.78563898 260.971642,10.4350657 261.255376,10.9142616 C261.53911,11.3934574 261.971011,11.6330518 262.55109,11.6330518 C263.118559,11.6330518 263.547306,11.3934574 263.837346,10.9142616 C264.127386,10.4350657 264.272403,9.78563898 264.272403,8.96596185 C264.272403,8.14628473 264.127386,7.49685798 263.837346,7.01766213 C263.547306,6.53846627 263.118559,6.29887193 262.55109,6.29887193 C261.971011,6.29887193 261.53911,6.53846627 261.255376,7.01766213 C260.971642,7.49685798 260.829777,8.14628473 260.829777,8.96596185 Z M268.244665,4.27491008 L271.006332,4.27491008 L271.914278,8.62548229 C271.98994,9.09206773 272.059297,9.55234105 272.122349,10.0063161 C272.185401,10.4602911 272.254757,10.9268695 272.33042,11.4060654 L272.406082,11.4060654 C272.494355,10.9268695 272.579474,10.453986 272.661441,9.98740054 C272.743409,9.52081511 272.841138,9.06684689 272.954632,8.62548229 L273.994986,4.27491008 L276.397259,4.27491008 L277.456529,8.62548229 C277.570022,9.09206773 277.670904,9.55234105 277.759177,10.0063161 C277.84745,10.4602911 277.942027,10.9268695 278.04291,11.4060654 L278.118572,11.4060654 C278.206845,10.9268695 278.279354,10.4602911 278.336101,10.0063161 C278.392848,9.55234105 278.465357,9.09206773 278.553629,8.62548229 L279.442659,4.27491008 L282.015172,4.27491008 L279.764223,13.6570136 L276.510752,13.6570136 L275.659553,9.91173842 C275.55867,9.47037381 275.470398,9.02901583 275.394736,8.58765123 C275.319073,8.14628662 275.237107,7.67340307 275.148834,7.16898638 L275.073172,7.16898638 C274.984899,7.67340307 274.906085,8.14628662 274.836728,8.58765123 C274.76737,9.02901583 274.688556,9.47037381 274.600283,9.91173842 L273.768,13.6570136 L270.590191,13.6570136 L268.244665,4.27491008 Z M289.013918,2.89407629 C288.547333,2.89407629 288.162721,2.75851634 287.860071,2.48739237 C287.557421,2.2162684 287.406098,1.86633457 287.406098,1.43758038 C287.406098,1.00882619 287.557421,0.662044921 287.860071,0.397226158 C288.162721,0.132407395 288.547333,0 289.013918,0 C289.493114,0 289.880879,0.132407395 290.177223,0.397226158 C290.473568,0.662044921 290.621738,1.00882619 290.621738,1.43758038 C290.621738,1.86633457 290.473568,2.2162684 290.177223,2.48739237 C289.880879,2.75851634 289.493114,2.89407629 289.013918,2.89407629 Z M287.633084,4.27491008 L290.413668,4.27491008 L290.413668,13.6570136 L287.633084,13.6570136 L287.633084,4.27491008 Z M293.232082,6.45019619 L291.945826,6.45019619 L291.945826,4.38840327 L293.383406,4.27491008 L293.70497,1.77805995 L296.012665,1.77805995 L296.012665,4.27491008 L298.263613,4.27491008 L298.263613,6.45019619 L296.012665,6.45019619 L296.012665,10.2143869 C296.012665,10.7440244 296.123004,11.1254838 296.343687,11.3587766 C296.564369,11.5920693 296.857557,11.7087139 297.223259,11.7087139 C297.374584,11.7087139 297.529059,11.6897986 297.686689,11.6519673 C297.84432,11.6141361 297.986185,11.5700003 298.112289,11.5195586 L298.547346,13.5435204 C298.295138,13.6191829 297.998797,13.6948443 297.658316,13.7705068 C297.317835,13.8461693 296.920613,13.884 296.466638,13.884 C295.886558,13.884 295.391607,13.7957284 294.981768,13.6191826 C294.57193,13.4426367 294.237759,13.1967373 293.979245,12.8814768 C293.720732,12.5662164 293.531578,12.184757 293.411779,11.7370872 C293.29198,11.2894174 293.232082,10.7944659 293.232082,10.252218 L293.232082,6.45019619 Z M303.257313,4.27491008 L306.018981,4.27491008 L306.926926,8.62548229 C307.002589,9.09206773 307.071945,9.55234105 307.134997,10.0063161 C307.198049,10.4602911 307.267406,10.9268695 307.343068,11.4060654 L307.41873,11.4060654 C307.507003,10.9268695 307.592122,10.453986 307.67409,9.98740054 C307.756058,9.52081511 307.853787,9.06684689 307.967281,8.62548229 L309.007635,4.27491008 L311.409907,4.27491008 L312.469177,8.62548229 C312.582671,9.09206773 312.683553,9.55234105 312.771826,10.0063161 C312.860099,10.4602911 312.954675,10.9268695 313.055559,11.4060654 L313.131221,11.4060654 C313.219494,10.9268695 313.292002,10.4602911 313.348749,10.0063161 C313.405496,9.55234105 313.478005,9.09206773 313.566278,8.62548229 L314.455308,4.27491008 L317.02782,4.27491008 L314.776872,13.6570136 L311.523401,13.6570136 L310.672202,9.91173842 C310.571318,9.47037381 310.483047,9.02901583 310.407384,8.58765123 C310.331722,8.14628662 310.249755,7.67340307 310.161482,7.16898638 L310.08582,7.16898638 C309.997547,7.67340307 309.918733,8.14628662 309.849376,8.58765123 C309.780019,9.02901583 309.701205,9.47037381 309.612932,9.91173842 L308.780649,13.6570136 L305.602839,13.6570136 L303.257313,4.27491008 Z M318.162752,8.96596185 C318.162752,8.18411598 318.288854,7.48740088 318.541063,6.87579564 C318.793271,6.2641904 319.130595,5.75032361 319.553044,5.33417984 C319.975493,4.91803607 320.464139,4.59962781 321.018997,4.3789455 C321.573856,4.1582632 322.147621,4.04792371 322.740311,4.04792371 C323.333,4.04792371 323.903613,4.1582632 324.452166,4.3789455 C325.000719,4.59962781 325.486213,4.91803607 325.908662,5.33417984 C326.331111,5.75032361 326.668435,6.2641904 326.920643,6.87579564 C327.172851,7.48740088 327.298954,8.18411598 327.298954,8.96596185 C327.298954,9.74780772 327.172851,10.4445228 326.920643,11.0561281 C326.668435,11.6677333 326.331111,12.1816001 325.908662,12.5977439 C325.486213,13.0138876 325.000719,13.3322959 324.452166,13.5529782 C323.903613,13.7736605 323.333,13.884 322.740311,13.884 C322.147621,13.884 321.573856,13.7736605 321.018997,13.5529782 C320.464139,13.3322959 319.975493,13.0138876 319.553044,12.5977439 C319.130595,12.1816001 318.793271,11.6677333 318.541063,11.0561281 C318.288854,10.4445228 318.162752,9.74780772 318.162752,8.96596185 Z M321.018997,8.96596185 C321.018997,9.78563898 321.160862,10.4350657 321.444597,10.9142616 C321.728331,11.3934574 322.160231,11.6330518 322.740311,11.6330518 C323.307779,11.6330518 323.736527,11.3934574 324.026567,10.9142616 C324.316606,10.4350657 324.461624,9.78563898 324.461624,8.96596185 C324.461624,8.14628473 324.316606,7.49685798 324.026567,7.01766213 C323.736527,6.53846627 323.307779,6.29887193 322.740311,6.29887193 C322.160231,6.29887193 321.728331,6.53846627 321.444597,7.01766213 C321.160862,7.49685798 321.018997,8.14628473 321.018997,8.96596185 Z M329.209422,4.27491008 L331.479286,4.27491008 L331.668441,5.92056131 L331.744104,5.92056131 C332.084585,5.27743003 332.494417,4.80454647 332.973613,4.50189646 C333.452809,4.19924644 333.931998,4.04792371 334.411193,4.04792371 C334.676012,4.04792371 334.893539,4.06368649 335.063779,4.09521253 C335.23402,4.12673858 335.388495,4.17402693 335.52721,4.23707902 L335.073237,6.6393515 C334.896691,6.58890983 334.732758,6.55107915 334.581433,6.52585831 C334.430108,6.50063748 334.253565,6.48802725 334.051798,6.48802725 C333.698707,6.48802725 333.329858,6.61412953 332.94524,6.86633787 C332.560622,7.11854622 332.242214,7.56620932 331.990005,8.2093406 L331.990005,13.6570136 L329.209422,13.6570136 L329.209422,4.27491008 Z M336.737804,0.397226158 L339.442725,0.397226158 L339.442725,8.00126975 L339.518387,8.00126975 L342.488125,4.27491008 L345.51461,4.27491008 L342.223308,8.13367847 L345.760512,13.6570136 L342.752943,13.6570136 L340.634403,10.0063161 L339.442725,11.3493188 L339.442725,13.6570136 L336.737804,13.6570136 L336.737804,0.397226158 Z M347.519657,10.8385995 C347.948411,11.1664703 348.358243,11.4123698 348.749166,11.5763052 C349.140089,11.7402406 349.537311,11.8222071 349.940845,11.8222071 C350.356988,11.8222071 350.659634,11.7528508 350.84879,11.6141362 C351.037946,11.4754216 351.132523,11.2799631 351.132523,11.0277548 C351.132523,10.8764298 351.07893,10.7408698 350.971741,10.6210708 C350.864553,10.5012719 350.719535,10.3909324 350.536684,10.290049 C350.353833,10.1891657 350.148917,10.0977416 349.921929,10.0157738 C349.694942,9.93380613 349.461652,9.84238198 349.222054,9.74149864 C348.932015,9.62800488 348.64198,9.49559749 348.35194,9.34427248 C348.0619,9.19294747 347.797086,9.00694661 347.557488,8.78626431 C347.31789,8.565582 347.122431,8.30707233 346.971106,8.01072752 C346.819781,7.71438271 346.74412,7.370754 346.74412,6.97983106 C346.74412,6.55107688 346.829239,6.15385469 346.99948,5.78815259 C347.16972,5.42245049 347.412467,5.1134999 347.727728,4.86129155 C348.042988,4.60908321 348.421295,4.41047211 348.862659,4.26545232 C349.304024,4.12043252 349.795823,4.04792371 350.338071,4.04792371 C351.056865,4.04792371 351.687376,4.17087343 352.229624,4.41677657 C352.771872,4.6626797 353.244755,4.93695217 353.648289,5.23960218 L352.399864,6.90416894 C352.059382,6.65196059 351.725211,6.45650206 351.397341,6.31778747 C351.06947,6.17907288 350.741604,6.10971662 350.413733,6.10971662 C349.70755,6.10971662 349.354463,6.35561607 349.354463,6.84742234 C349.354463,6.99874735 349.404904,7.12800219 349.505787,7.23519074 C349.606671,7.34237928 349.742231,7.44010855 349.912471,7.52838147 C350.082712,7.61665439 350.278171,7.70177343 350.498853,7.78374114 C350.719535,7.86570886 350.949672,7.9508279 351.18927,8.03910082 C351.49192,8.15259457 351.791413,8.28184941 352.087757,8.42686921 C352.384102,8.57188901 352.655222,8.75158476 352.901125,8.96596185 C353.147028,9.18033895 353.34564,9.44200118 353.496965,9.7509564 C353.64829,10.0599116 353.723951,10.4287608 353.723951,10.857515 C353.723951,11.2862692 353.641984,11.6834914 353.478049,12.0491935 C353.314114,12.4148956 353.068214,12.7333038 352.740343,13.0044278 C352.412472,13.2755518 352.008945,13.4899256 351.529749,13.6475559 C351.050553,13.8051861 350.495703,13.884 349.865183,13.884 C349.247272,13.884 348.613608,13.7642028 347.964172,13.5246049 C347.314735,13.285007 346.750427,12.9697513 346.271232,12.5788283 L347.519657,10.8385995 Z" id="How-it-works" fill="#79797B"></path>
            <path d="M137.497512,40.9900498 L460.882128,40.9900498" id="Line" stroke="#979797" stroke-width="4" stroke-linecap="square"></path>
            <path d="M209.452736,54.6965174 L389.139637,54.6965174" id="Line" stroke="#979797" stroke-width="4" stroke-linecap="square"></path>
            <g id="Group-34" transform="translate(0.000000, 88.527363)">
                <rect id="Rectangle-12" fill="#F8F8F8" x="0" y="0" width="191.190461" height="100.856901"></rect>
                <path d="M16.3589082,77.1399069 L76.1572993,77.1399069" id="Line" stroke="#79797B" stroke-width="8" stroke-linecap="square"></path>
                <rect id="Rectangle-12" fill="#F8F8F8" x="205.970149" y="0" width="191.190461" height="100.856901"></rect>
                <path d="M222.329057,77.1399069 L282.127449,77.1399069" id="Line" stroke="#79797B" stroke-width="8" stroke-linecap="square"></path>
                <rect id="Rectangle-12" fill="#F8F8F8" x="407.960199" y="0" width="191.190461" height="100.856901"></rect>
                <path d="M424.319107,77.1399069 L484.117498,77.1399069" id="Line" stroke="#79797B" stroke-width="8" stroke-linecap="square"></path>
                <g id="icon-diamant" transform="translate(152.238806, 11.940299)" stroke="#979797">
                    <polygon id="Path-2" points="20.0829353 0.651102894 26.5688298 9.10884852 13.749096 23.3048088 0.0901431285 9.21702432 7.20533982 0.585663207"></polygon>
                    <polyline id="Path-3" points="7.36815999 0.773969244 7.36815999 9.59983993 20.2723372 9.59983993 20.2723372 0.901588445"></polyline>
                    <polygon id="Path-4" points="13.4306323 1.47956042 7.20220004 9.163159 13.8316275 23.3337448 20.6525816 9.5366549"></polygon>
                    <path d="M0.904568069,9.42655145 L24.9660787,9.42655145" id="Line" stroke-linecap="square"></path>
                </g>
                <g id="icon-mac" transform="translate(560.199005, 11.940299)">
                    <rect id="Rectangle-3" stroke="#979797" x="0.5" y="0.5" width="25.8656716" height="18.9004975" rx="2"></rect>
                    <path d="M0.497512438,15.4228856 L26.3681592,15.4228856" id="Line" stroke="#979797" stroke-linecap="square"></path>
                    <path d="M10.4477612,19.4029851 L10.4477612,22.3880597" id="Line" stroke="#979797" stroke-linecap="square"></path>
                    <path d="M16.4179104,19.4029851 L16.4179104,22.3880597" id="Line" stroke="#979797" stroke-linecap="square"></path>
                    <g id="Rectangle-4">
                        <use fill="#D8D8D8" fill-rule="evenodd" xlink:href="#path-1"></use>
                        <rect stroke="#979797" stroke-width="1" x="8.460199" y="23.3855721" width="9.94527363" height="1" rx="0.5"></rect>
                    </g>
                    <circle id="Oval" fill="#D8D8D8" cx="13.4328358" cy="17.4129353" r="1"></circle>
                </g>
                <g id="icon-play" transform="translate(354.228856, 10.945274)" stroke="#979797">
                    <rect id="Rectangle-5" x="0.5" y="0.5" width="27.8557214" height="23.8756219"></rect>
                    <polygon id="Triangle" transform="translate(14.427861, 10.447761) rotate(90.000000) translate(-14.427861, -10.447761) " points="14.4278607 6.96517413 18.9054726 13.9303483 9.95024876 13.9303483"></polygon>
                    <path d="M28.358209,20.39801 L8.45771144,20.39801" id="Line" stroke-linecap="square"></path>
                    <path d="M7.46268657,19.4029851 L7.46268657,21.3930348" id="Line" stroke-linecap="square"></path>
                    <path d="M5.47263682,20.39801 L0.497512438,20.39801" id="Line" stroke-linecap="square"></path>
                </g>
                <path d="M14.4676617,57.3637741 L17.4885572,57.3637741 L17.4885572,49.3299433 L14.8835821,49.3299433 L14.8835821,47.3379035 C15.6424582,47.1919658 16.2845745,47.0168431 16.8099502,46.8125303 C17.335326,46.6082175 17.8461003,46.3601272 18.3422886,46.0682517 L20.7064677,46.0682517 L20.7064677,57.3637741 L23.3114428,57.3637741 L23.3114428,59.9687492 L14.4676617,59.9687492 L14.4676617,57.3637741 Z M25.8288557,58.2175055 C25.8288557,57.6337546 26.0149235,57.148519 26.3870647,56.7617841 C26.7592058,56.3750491 27.2225511,56.1816846 27.7771144,56.1816846 C28.3316777,56.1816846 28.795023,56.3750491 29.1671642,56.7617841 C29.5393053,57.148519 29.7253731,57.6337546 29.7253731,58.2175055 C29.7253731,58.7866625 29.5393053,59.2646014 29.1671642,59.6513363 C28.795023,60.0380712 28.3316777,60.2314358 27.7771144,60.2314358 C27.2225511,60.2314358 26.7592058,60.0380712 26.3870647,59.6513363 C26.0149235,59.2646014 25.8288557,58.7866625 25.8288557,58.2175055 Z" id="1." fill="#4990E2"></path>
                <path d="M218.720398,57.8626866 C219.610618,57.0308416 220.424209,56.253735 221.161194,55.5313433 C221.898179,54.8089516 222.532999,54.1303514 223.065672,53.4955224 C223.598344,52.8606933 224.014261,52.2696545 224.313433,51.7223881 C224.612605,51.1751216 224.762189,50.6534021 224.762189,50.1572139 C224.762189,49.4713067 224.587066,48.9495872 224.236816,48.5920398 C223.886565,48.2344924 223.404978,48.0557214 222.79204,48.0557214 C222.281258,48.0557214 221.828858,48.1980085 221.434826,48.4825871 C221.040794,48.7671656 220.668658,49.0991689 220.318408,49.478607 L218.567164,47.7492537 C219.253071,47.0195652 219.953562,46.4686586 220.668657,46.0965174 C221.383752,45.7243762 222.237474,45.5383085 223.229851,45.5383085 C223.915758,45.5383085 224.539632,45.6441117 225.101493,45.8557214 C225.663353,46.0673311 226.148588,46.3664989 226.557214,46.7532338 C226.96584,47.1399688 227.279601,47.603314 227.498507,48.1432836 C227.717414,48.6832531 227.826866,49.2888855 227.826866,49.960199 C227.826866,50.5439499 227.70282,51.1386371 227.454726,51.7442786 C227.206632,52.3499201 226.874629,52.9555525 226.458706,53.561194 C226.042784,54.1668355 225.568494,54.772468 225.035821,55.3781095 C224.503148,55.983751 223.952242,56.5784382 223.383085,57.1621891 C223.733335,57.1184077 224.123713,57.0782755 224.554229,57.041791 C224.984745,57.0053066 225.367826,56.9870647 225.703483,56.9870647 L228.505473,56.9870647 L228.505473,59.7014925 L218.720398,59.7014925 L218.720398,57.8626866 Z M230.80398,57.9502488 C230.80398,57.3664979 230.990048,56.8812623 231.362189,56.4945274 C231.73433,56.1077924 232.197676,55.9144279 232.752239,55.9144279 C233.306802,55.9144279 233.770147,56.1077924 234.142289,56.4945274 C234.51443,56.8812623 234.700498,57.3664979 234.700498,57.9502488 C234.700498,58.5194058 234.51443,58.9973447 234.142289,59.3840796 C233.770147,59.7708145 233.306802,59.9641791 232.752239,59.9641791 C232.197676,59.9641791 231.73433,59.7708145 231.362189,59.3840796 C230.990048,58.9973447 230.80398,58.5194058 230.80398,57.9502488 Z" id="2." fill="#4990E2"></path>
                <path d="M422.865672,55.958209 C423.288891,56.3668345 423.752236,56.7024862 424.255721,56.9651741 C424.759206,57.227862 425.310113,57.359204 425.908458,57.359204 C426.594365,57.359204 427.141623,57.2169168 427.550249,56.9323383 C427.958874,56.6477598 428.163184,56.2427887 428.163184,55.7174129 C428.163184,55.4109437 428.108458,55.1336662 427.999005,54.8855721 C427.889552,54.637478 427.696187,54.4295199 427.418905,54.2616915 C427.141624,54.0938632 426.762191,53.9625212 426.280597,53.8676617 C425.799003,53.7728022 425.178777,53.7253731 424.4199,53.7253731 L424.4199,51.4487562 C425.047433,51.4487562 425.569152,51.4049756 425.985075,51.3174129 C426.400997,51.2298503 426.736649,51.1021567 426.99204,50.9343284 C427.247431,50.7665 427.42985,50.569487 427.539303,50.3432836 C427.648757,50.1170801 427.703483,49.8653414 427.703483,49.5880597 C427.703483,49.1064653 427.557547,48.7306813 427.265672,48.4606965 C426.973796,48.1907118 426.550583,48.0557214 425.99602,48.0557214 C425.499832,48.0557214 425.05108,48.165173 424.649751,48.3840796 C424.248423,48.6029862 423.828858,48.902154 423.391045,49.281592 L421.771144,47.3114428 C422.41327,46.7568795 423.088222,46.3227213 423.79602,46.0089552 C424.503818,45.6951891 425.288221,45.5383085 426.149254,45.5383085 C426.864349,45.5383085 427.51741,45.6222214 428.108458,45.7900498 C428.699505,45.9578781 429.202983,46.2059685 429.618905,46.5343284 C430.034828,46.8626882 430.359534,47.2603625 430.593035,47.7273632 C430.826535,48.1943639 430.943284,48.7343253 430.943284,49.3472637 C430.943284,50.0769522 430.742622,50.6935298 430.341294,51.1970149 C429.939965,51.7005 429.367168,52.1127679 428.622886,52.4338308 L428.622886,52.521393 C429.425543,52.7548934 430.085901,53.1525677 430.60398,53.7144279 C431.122059,54.276288 431.381095,55.009614 431.381095,55.9144279 C431.381095,56.5565538 431.242456,57.1293507 430.965174,57.6328358 C430.687892,58.1363209 430.315757,58.5595339 429.848756,58.9024876 C429.381756,59.2454412 428.834497,59.5081251 428.206965,59.6905473 C427.579433,59.8729694 426.915426,59.9641791 426.214925,59.9641791 C425.076611,59.9641791 424.113437,59.7854081 423.325373,59.4278607 C422.537309,59.0703133 421.887896,58.5923745 421.377114,57.9940299 L422.865672,55.958209 Z M433.789055,57.9502488 C433.789055,57.3664979 433.975123,56.8812623 434.347264,56.4945274 C434.719405,56.1077924 435.18275,55.9144279 435.737313,55.9144279 C436.291877,55.9144279 436.755222,56.1077924 437.127363,56.4945274 C437.499504,56.8812623 437.685572,57.3664979 437.685572,57.9502488 C437.685572,58.5194058 437.499504,58.9973447 437.127363,59.3840796 C436.755222,59.7708145 436.291877,59.9641791 435.737313,59.9641791 C435.18275,59.9641791 434.719405,59.7708145 434.347264,59.3840796 C433.975123,58.9973447 433.789055,58.5194058 433.789055,57.9502488 Z" id="3." fill="#4990E2"></path>
            </g>
        </g>
    </g>
</svg>