<?xml version="1.0" encoding="UTF-8"?>
<svg width="604px" height="114px" viewBox="0 0 604 114" version="1.1" xmlns="http://www.w3.org/2000/svg" xmlns:xlink="http://www.w3.org/1999/xlink">
    <!-- Generator: Sketch 44.1 (41455) - http://www.bohemiancoding.com/sketch -->
    <title>services22</title>
    <desc>Created with Sketch.</desc>
    <defs></defs>
    <g id="Services" stroke="none" stroke-width="1" fill="none" fill-rule="evenodd">
        <g id="22" transform="translate(2.000000, 0.000000)">
            <path d="M0.518134715,2.07253886 L32.6591967,2.07253886" id="Line" stroke="#D7D9D9" stroke-width="4" stroke-linecap="square"></path>
            <path d="M38.6072539,21.0487047 L40.1036269,21.0487047 C40.8649434,21.0487047 41.4457666,20.8879118 41.846114,20.5663212 C42.2464614,20.2447307 42.4466321,19.7689151 42.4466321,19.1388601 C42.4466321,18.5088051 42.2464614,18.0690859 41.846114,17.8196891 C41.4457666,17.5702924 40.8649434,17.4455959 40.1036269,17.4455959 L38.6072539,17.4455959 L38.6072539,21.0487047 Z M42.6632124,27.9792746 L40.2020725,23.3523316 L38.6072539,23.3523316 L38.6072539,27.9792746 L35.7129534,27.9792746 L35.7129534,15.1419689 L40.3398964,15.1419689 C41.0224559,15.1419689 41.6623459,15.2075987 42.2595855,15.3388601 C42.8568251,15.4701216 43.3785815,15.6899812 43.8248705,15.9984456 C44.2711594,16.30691 44.62556,16.7170959 44.8880829,17.2290155 C45.1506058,17.7409352 45.2818653,18.3775437 45.2818653,19.1388601 C45.2818653,20.0839425 45.0751316,20.861655 44.661658,21.4720207 C44.2481845,22.0823865 43.6936132,22.5385132 42.9979275,22.8404145 L45.9119171,27.9792746 L42.6632124,27.9792746 Z M47.0341969,23.0963731 C47.0341969,22.3088044 47.1654564,21.5967217 47.4279793,20.9601036 C47.6905022,20.3234856 48.0350583,19.7853217 48.461658,19.3455959 C48.8882577,18.90587 49.3771993,18.5678768 49.9284974,18.3316062 C50.4797955,18.0953356 51.0507742,17.9772021 51.6414508,17.9772021 C52.3371365,17.9772021 52.9442116,18.0953356 53.4626943,18.3316062 C53.981177,18.5678768 54.4143333,18.8960255 54.7621762,19.3160622 C55.110019,19.7360988 55.3692565,20.2316034 55.5398964,20.8025907 C55.7105363,21.373578 55.7958549,21.993779 55.7958549,22.6632124 C55.7958549,22.9257353 55.782729,23.1652839 55.7564767,23.3818653 C55.7302244,23.5984467 55.7039725,23.7658025 55.6777202,23.8839378 L49.8300518,23.8839378 C49.9613133,24.6321281 50.2533656,25.1735735 50.7062176,25.5082902 C51.1590696,25.8430069 51.7136409,26.0103627 52.3699482,26.0103627 C53.0656339,26.0103627 53.7678721,25.7937845 54.4766839,25.3606218 L55.4414508,27.1129534 C54.9426573,27.4542331 54.388086,27.7233151 53.7777202,27.9202073 C53.1673545,28.1170994 52.5668423,28.215544 51.9761658,28.215544 C51.2804801,28.215544 50.6307457,28.100692 50.026943,27.8709845 C49.4231403,27.6412769 48.8981024,27.3065652 48.4518135,26.8668394 C48.0055245,26.4271135 47.6576869,25.8922311 47.4082902,25.2621762 C47.1588934,24.6321212 47.0341969,23.9101941 47.0341969,23.0963731 Z M53.334715,22.092228 C53.334715,21.5278037 53.2100185,21.0683956 52.9606218,20.7139896 C52.711225,20.3595837 52.2911947,20.1823834 51.7005181,20.1823834 C51.2411031,20.1823834 50.8374802,20.3366133 50.4896373,20.6450777 C50.1417945,20.9535421 49.9153719,21.4359207 49.8103627,22.092228 L53.334715,22.092228 Z M58.2373057,25.0455959 C58.6835946,25.3868756 59.1101879,25.6428316 59.5170984,25.8134715 C59.9240089,25.9841114 60.3374763,26.0694301 60.757513,26.0694301 C61.1906757,26.0694301 61.5056985,25.9972373 61.7025907,25.8528497 C61.8994828,25.7084621 61.9979275,25.5050099 61.9979275,25.242487 C61.9979275,25.0849733 61.9421422,24.9438694 61.8305699,24.819171 C61.7189977,24.6944726 61.5680493,24.5796206 61.3777202,24.4746114 C61.1873911,24.3696022 60.9740944,24.2744391 60.7378238,24.1891192 C60.5015532,24.1037992 60.2587232,24.0086361 60.0093264,23.9036269 C59.7074251,23.7854916 59.4055283,23.6476692 59.1036269,23.4901554 C58.8017256,23.3326417 58.5260807,23.139034 58.2766839,22.9093264 C58.0272872,22.6796189 57.823835,22.4105369 57.6663212,22.1020725 C57.5088075,21.7936081 57.4300518,21.435926 57.4300518,21.0290155 C57.4300518,20.5827266 57.518652,20.1692592 57.6958549,19.788601 C57.8730579,19.4079428 58.1257324,19.0863571 58.453886,18.8238342 C58.7820396,18.5613113 59.1758181,18.3545776 59.6352332,18.2036269 C60.0946482,18.0526763 60.6065602,17.9772021 61.1709845,17.9772021 C61.9191747,17.9772021 62.5754721,18.1051801 63.1398964,18.3611399 C63.7043206,18.6170997 64.1965437,18.9025891 64.6165803,19.2176166 L63.3170984,20.9502591 C62.9626925,20.6877362 62.6148549,20.484284 62.2735751,20.3398964 C61.9322954,20.1955088 61.5910207,20.1233161 61.2497409,20.1233161 C60.5146768,20.1233161 60.1471503,20.3792721 60.1471503,20.8911917 C60.1471503,21.0487055 60.1996541,21.1832464 60.3046632,21.2948187 C60.4096724,21.4063909 60.5507763,21.508117 60.7279793,21.6 C60.9051822,21.691883 61.1086344,21.7804832 61.338342,21.8658031 C61.5680495,21.9511231 61.8075981,22.0397232 62.0569948,22.1316062 C62.3720223,22.2497415 62.6837636,22.3842825 62.992228,22.5352332 C63.3006924,22.6861838 63.5829003,22.8732286 63.8388601,23.0963731 C64.0948199,23.3195175 64.3015536,23.5918809 64.4590674,23.9134715 C64.6165811,24.2350621 64.6953368,24.618996 64.6953368,25.065285 C64.6953368,25.5115739 64.6100181,25.9250413 64.4393782,26.3056995 C64.2687384,26.6863577 64.0127824,27.0177879 63.6715026,27.3 C63.3302228,27.5822121 62.9101925,27.8053532 62.411399,27.9694301 C61.9126055,28.1335069 61.3350637,28.215544 60.6787565,28.215544 C60.0355754,28.215544 59.3759965,28.0908475 58.7,27.8414508 C58.0240035,27.592054 57.4366173,27.2639053 56.9378238,26.8569948 L58.2373057,25.0455959 Z M65.9554404,23.0963731 C65.9554404,22.3088044 66.0866999,21.5967217 66.3492228,20.9601036 C66.6117457,20.3234856 66.9563018,19.7853217 67.3829016,19.3455959 C67.8095013,18.90587 68.2984428,18.5678768 68.8497409,18.3316062 C69.401039,18.0953356 69.9720178,17.9772021 70.5626943,17.9772021 C71.25838,17.9772021 71.8654551,18.0953356 72.3839378,18.3316062 C72.9024206,18.5678768 73.3355768,18.8960255 73.6834197,19.3160622 C74.0312625,19.7360988 74.2905,20.2316034 74.4611399,20.8025907 C74.6317798,21.373578 74.7170984,21.993779 74.7170984,22.6632124 C74.7170984,22.9257353 74.7039725,23.1652839 74.6777202,23.3818653 C74.6514679,23.5984467 74.625216,23.7658025 74.5989637,23.8839378 L68.7512953,23.8839378 C68.8825568,24.6321281 69.1746091,25.1735735 69.6274611,25.5082902 C70.0803131,25.8430069 70.6348845,26.0103627 71.2911917,26.0103627 C71.9868774,26.0103627 72.6891156,25.7937845 73.3979275,25.3606218 L74.3626943,27.1129534 C73.8639008,27.4542331 73.3093295,27.7233151 72.6989637,27.9202073 C72.088598,28.1170994 71.4880859,28.215544 70.8974093,28.215544 C70.2017236,28.215544 69.5519892,28.100692 68.9481865,27.8709845 C68.3443839,27.6412769 67.8193459,27.3065652 67.373057,26.8668394 C66.9267681,26.4271135 66.5789304,25.8922311 66.3295337,25.2621762 C66.0801369,24.6321212 65.9554404,23.9101941 65.9554404,23.0963731 Z M72.2559585,22.092228 C72.2559585,21.5278037 72.131262,21.0683956 71.8818653,20.7139896 C71.6324685,20.3595837 71.2124382,20.1823834 70.6217617,20.1823834 C70.1623466,20.1823834 69.7587237,20.3366133 69.4108808,20.6450777 C69.063038,20.9535421 68.8366154,21.4359207 68.7316062,22.092228 L72.2559585,22.092228 Z M76.3709845,25.2621762 C76.3709845,24.2383368 76.8041407,23.437654 77.6704663,22.8601036 C78.5367919,22.2825532 79.9347054,21.8953378 81.8642487,21.6984456 C81.8379964,21.2652828 81.7067369,20.9207267 81.4704663,20.6647668 C81.2341957,20.408807 80.8535432,20.280829 80.3284974,20.280829 C79.9084608,20.280829 79.4884304,20.3595847 79.0683938,20.5170984 C78.6483571,20.6746122 78.2020749,20.8911903 77.7295337,21.1668394 L76.7056995,19.2569948 C77.3357544,18.8763366 77.9953333,18.5678768 78.684456,18.3316062 C79.3735786,18.0953356 80.1053502,17.9772021 80.8797927,17.9772021 C82.1399027,17.9772021 83.1013784,18.3348842 83.7642487,19.0502591 C84.427119,19.765634 84.7585492,20.8780581 84.7585492,22.3875648 L84.7585492,27.9792746 L82.3958549,27.9792746 L82.1792746,26.9751295 L82.1202073,26.9751295 C81.7001706,27.3426616 81.2571699,27.6412769 80.7911917,27.8709845 C80.3252136,28.100692 79.8165831,28.215544 79.265285,28.215544 C78.818996,28.215544 78.4186546,28.1400698 78.0642487,27.9891192 C77.7098428,27.8381685 77.407946,27.6281533 77.1585492,27.3590674 C76.9091525,27.0899814 76.7155447,26.7782401 76.5777202,26.4238342 C76.4398957,26.0694283 76.3709845,25.6822128 76.3709845,25.2621762 Z M79.1274611,25.0455959 C79.1274611,25.3606233 79.2291872,25.5936089 79.4326425,25.7445596 C79.6360977,25.8955103 79.9084612,25.9709845 80.2497409,25.9709845 C80.5910207,25.9709845 80.8797916,25.8987917 81.1160622,25.7544041 C81.3523328,25.6100165 81.6017258,25.4065644 81.8642487,25.1440415 L81.8642487,23.4310881 C80.8272832,23.5754757 80.1119191,23.7854908 79.7181347,24.0611399 C79.3243504,24.3367889 79.1274611,24.6649376 79.1274611,25.0455959 Z M87.2393782,18.2134715 L89.6020725,18.2134715 L89.7989637,19.9264249 L89.8777202,19.9264249 C90.2321261,19.2569915 90.6587194,18.7647684 91.157513,18.4497409 C91.6563065,18.1347135 92.1550925,17.9772021 92.653886,17.9772021 C92.9295351,17.9772021 93.1559577,17.9936095 93.3331606,18.0264249 C93.5103636,18.0592402 93.6711564,18.1084625 93.815544,18.1740933 L93.3430052,20.6746114 C93.1592392,20.6221068 92.9886018,20.582729 92.8310881,20.5564767 C92.6735743,20.5302244 92.4898111,20.5170984 92.2797927,20.5170984 C91.9122607,20.5170984 91.5283267,20.6483579 91.1279793,20.9108808 C90.7276318,21.1734037 90.3962017,21.6393749 90.1336788,22.3088083 L90.1336788,27.9792746 L87.2393782,27.9792746 L87.2393782,18.2134715 Z M94.5046632,23.0963731 C94.5046632,22.2825521 94.6424857,21.5573434 94.9181347,20.9207254 C95.1937838,20.2841074 95.5645918,19.749225 96.0305699,19.3160622 C96.4965481,18.8828994 97.0379935,18.5514692 97.6549223,18.3217617 C98.2718511,18.0920541 98.9150226,17.9772021 99.584456,17.9772021 C100.188259,17.9772021 100.732985,18.0789282 101.218653,18.2823834 C101.70432,18.4858387 102.111225,18.7582021 102.439378,19.0994819 L101.120207,20.8911917 C100.660792,20.5105335 100.207947,20.3202073 99.761658,20.3202073 C99.0528462,20.3202073 98.4949934,20.5696003 98.0880829,21.0683938 C97.6811724,21.5671873 97.4777202,22.2431736 97.4777202,23.0963731 C97.4777202,23.9495725 97.6844539,24.6255588 98.0979275,25.1243523 C98.511401,25.6231458 99.0331575,25.8725389 99.6632124,25.8725389 C100.017618,25.8725389 100.339204,25.8003461 100.627979,25.6559585 C100.916754,25.511571 101.179273,25.3474966 101.415544,25.1637306 L102.577202,26.9948187 C102.104661,27.4148553 101.579623,27.7233151 101.002073,27.9202073 C100.424522,28.1170994 99.8666694,28.215544 99.3284974,28.215544 C98.6459379,28.215544 98.0126109,28.100692 97.4284974,27.8709845 C96.844384,27.6412769 96.3357535,27.3098467 95.9025907,26.8766839 C95.4694279,26.4435212 95.1281532,25.9086388 94.8787565,25.2720207 C94.6293597,24.6354027 94.5046632,23.9101941 94.5046632,23.0963731 Z M104.270466,14.1772021 L107.164767,14.1772021 L107.164767,17.5637306 L107.026943,19.3160622 C107.394475,18.9879085 107.821068,18.6827303 108.306736,18.4005181 C108.792403,18.118306 109.369945,17.9772021 110.039378,17.9772021 C111.102596,17.9772021 111.873745,18.3250397 112.35285,19.0207254 C112.831954,19.7164111 113.071503,20.6811683 113.071503,21.9150259 L113.071503,27.9792746 L110.177202,27.9792746 L110.177202,22.2891192 C110.177202,21.5803073 110.082039,21.0946473 109.89171,20.8321244 C109.701381,20.5696015 109.396202,20.438342 108.976166,20.438342 C108.608634,20.438342 108.293611,20.5203791 108.031088,20.684456 C107.768565,20.8485328 107.479794,21.0815184 107.164767,21.3834197 L107.164767,27.9792746 L104.270466,27.9792746 L104.270466,14.1772021 Z" id="Research" fill="#4990E2"></path>
            <path d="M7.27046632,28.215544 C6.60103292,28.215544 5.99067633,28.0744401 5.43937824,27.792228 C4.88808015,27.5100159 4.4188275,27.093267 4.03160622,26.5419689 C3.64438494,25.9906708 3.34248813,25.3081215 3.12590674,24.4943005 C2.90932534,23.6804795 2.80103627,22.7419742 2.80103627,21.6787565 C2.80103627,20.6155387 2.90932534,19.6835964 3.12590674,18.8829016 C3.34248813,18.0822067 3.64438494,17.4095019 4.03160622,16.8647668 C4.4188275,16.3200318 4.88808015,15.9131274 5.43937824,15.6440415 C5.99067633,15.3749555 6.60103292,15.2404145 7.27046632,15.2404145 C7.93989972,15.2404145 8.55025631,15.3749555 9.1015544,15.6440415 C9.6528525,15.9131274 10.1221051,16.3200318 10.5093264,16.8647668 C10.8965477,17.4095019 11.1984445,18.0822067 11.4150259,18.8829016 C11.6316073,19.6835964 11.7398964,20.6155387 11.7398964,21.6787565 C11.7398964,22.7419742 11.6316073,23.6804795 11.4150259,24.4943005 C11.1984445,25.3081215 10.8965477,25.9906708 10.5093264,26.5419689 C10.1221051,27.093267 9.6528525,27.5100159 9.1015544,27.792228 C8.55025631,28.0744401 7.93989972,28.215544 7.27046632,28.215544 Z M7.27046632,25.9709845 C7.51986308,25.9709845 7.74956717,25.9086362 7.95958549,25.7839378 C8.16960381,25.6592394 8.35336709,25.4328168 8.51088083,25.1046632 C8.66839457,24.7765096 8.78980959,24.3367903 8.87512953,23.7854922 C8.96044948,23.2341941 9.00310881,22.5319559 9.00310881,21.6787565 C9.00310881,20.825557 8.96044948,20.1266003 8.87512953,19.5818653 C8.78980959,19.0371303 8.66839457,18.6105369 8.51088083,18.3020725 C8.35336709,17.9936081 8.16960381,17.7803115 7.95958549,17.6621762 C7.74956717,17.5440409 7.51986308,17.4849741 7.27046632,17.4849741 C7.03419571,17.4849741 6.81105459,17.5440409 6.60103627,17.6621762 C6.39101795,17.7803115 6.20725467,17.9936081 6.04974093,18.3020725 C5.89222719,18.6105369 5.76753068,19.0371303 5.67564767,19.5818653 C5.58376465,20.1266003 5.53782383,20.825557 5.53782383,21.6787565 C5.53782383,22.5319559 5.58376465,23.2341941 5.67564767,23.7854922 C5.76753068,24.3367903 5.89222719,24.7765096 6.04974093,25.1046632 C6.20725467,25.4328168 6.39101795,25.6592394 6.60103627,25.7839378 C6.81105459,25.9086362 7.03419571,25.9709845 7.27046632,25.9709845 Z M13.8466321,25.6362694 L16.5637306,25.6362694 L16.5637306,18.4103627 L14.2207254,18.4103627 L14.2207254,16.6186528 C14.9032849,16.4873914 15.4808267,16.32988 15.9533679,16.146114 C16.4259091,15.962348 16.8853173,15.7392068 17.3316062,15.4766839 L19.4580311,15.4766839 L19.4580311,25.6362694 L21.8010363,25.6362694 L21.8010363,27.9792746 L13.8466321,27.9792746 L13.8466321,25.6362694 Z M24.065285,26.4041451 C24.065285,25.8790993 24.2326408,25.4426615 24.5673575,25.0948187 C24.9020742,24.7469758 25.3188231,24.573057 25.8176166,24.573057 C26.3164101,24.573057 26.7331589,24.7469758 27.0678756,25.0948187 C27.4025923,25.4426615 27.5699482,25.8790993 27.5699482,26.4041451 C27.5699482,26.9160647 27.4025923,27.3459395 27.0678756,27.6937824 C26.7331589,28.0416252 26.3164101,28.215544 25.8176166,28.215544 C25.3188231,28.215544 24.9020742,28.0416252 24.5673575,27.6937824 C24.2326408,27.3459395 24.065285,26.9160647 24.065285,26.4041451 Z" id="01." fill="#A1A1A1"></path>
            <path d="M1.55440415,61.6580311 L179.795758,61.6580311" id="Line" stroke="#D7D9D9" stroke-width="5" stroke-linecap="square"></path>
            <path d="M1.55440415,78.5837651 L179.795758,78.5837651" id="Line" stroke="#D7D9D9" stroke-width="5" stroke-linecap="square"></path>
            <path d="M1.55440415,95.5094991 L179.795758,95.5094991" id="Line" stroke="#D7D9D9" stroke-width="5" stroke-linecap="square"></path>
            <path d="M1.55440415,111.398964 L126.943005,111.398964" id="Line" stroke="#D7D9D9" stroke-width="5" stroke-linecap="square"></path>
            <path d="M208.80829,2.07253886 L240.949352,2.07253886" id="Line" stroke="#D7D9D9" stroke-width="4" stroke-linecap="square"></path>
            <path d="M244.003109,15.1419689 L248.689119,15.1419689 C249.384805,15.1419689 250.037821,15.2108801 250.648187,15.3487047 C251.258552,15.4865292 251.790153,15.7162333 252.243005,16.0378238 C252.695857,16.3594144 253.053539,16.7860077 253.316062,17.3176166 C253.578585,17.8492255 253.709845,18.5022414 253.709845,19.2766839 C253.709845,20.0248742 253.575304,20.6746086 253.306218,21.2259067 C253.037132,21.7772048 252.672887,22.23005 252.213472,22.584456 C251.754056,22.9388619 251.222456,23.2013808 250.618653,23.3720207 C250.01485,23.5426606 249.371679,23.6279793 248.689119,23.6279793 L246.897409,23.6279793 L246.897409,27.9792746 L244.003109,27.9792746 L244.003109,15.1419689 Z M248.511917,21.3243523 C250.087055,21.3243523 250.874611,20.641803 250.874611,19.2766839 C250.874611,18.6072505 250.674441,18.1347164 250.274093,17.8590674 C249.873746,17.5834183 249.28636,17.4455959 248.511917,17.4455959 L246.897409,17.4455959 L246.897409,21.3243523 L248.511917,21.3243523 Z M255.698446,14.1772021 L258.592746,14.1772021 L258.592746,25.065285 C258.592746,25.3671863 258.648531,25.5772015 258.760104,25.6953368 C258.871676,25.8134721 258.986528,25.8725389 259.104663,25.8725389 L259.272021,25.8725389 C259.317962,25.8725389 259.38031,25.8594129 259.459067,25.8331606 L259.813472,27.9792746 C259.655958,28.0449053 259.455787,28.1006906 259.212953,28.1466321 C258.97012,28.1925736 258.68463,28.215544 258.356477,28.215544 C257.857683,28.215544 257.437653,28.1367884 257.096373,27.9792746 C256.755093,27.8217609 256.48273,27.6019012 256.279275,27.3196891 C256.075819,27.037477 255.928152,26.6962023 255.836269,26.2958549 C255.744386,25.8955075 255.698446,25.4459438 255.698446,24.9471503 L255.698446,14.1772021 Z M260.97513,25.2621762 C260.97513,24.2383368 261.408286,23.437654 262.274611,22.8601036 C263.140937,22.2825532 264.53885,21.8953378 266.468394,21.6984456 C266.442141,21.2652828 266.310882,20.9207267 266.074611,20.6647668 C265.838341,20.408807 265.457688,20.280829 264.932642,20.280829 C264.512606,20.280829 264.092576,20.3595847 263.672539,20.5170984 C263.252502,20.6746122 262.80622,20.8911903 262.333679,21.1668394 L261.309845,19.2569948 C261.9399,18.8763366 262.599478,18.5678768 263.288601,18.3316062 C263.977724,18.0953356 264.709495,17.9772021 265.483938,17.9772021 C266.744048,17.9772021 267.705523,18.3348842 268.368394,19.0502591 C269.031264,19.765634 269.362694,20.8780581 269.362694,22.3875648 L269.362694,27.9792746 L267,27.9792746 L266.78342,26.9751295 L266.724352,26.9751295 C266.304316,27.3426616 265.861315,27.6412769 265.395337,27.8709845 C264.929359,28.100692 264.420728,28.215544 263.86943,28.215544 C263.423141,28.215544 263.0228,28.1400698 262.668394,27.9891192 C262.313988,27.8381685 262.012091,27.6281533 261.762694,27.3590674 C261.513298,27.0899814 261.31969,26.7782401 261.181865,26.4238342 C261.044041,26.0694283 260.97513,25.6822128 260.97513,25.2621762 Z M263.731606,25.0455959 C263.731606,25.3606233 263.833332,25.5936089 264.036788,25.7445596 C264.240243,25.8955103 264.512606,25.9709845 264.853886,25.9709845 C265.195166,25.9709845 265.483937,25.8987917 265.720207,25.7544041 C265.956478,25.6100165 266.205871,25.4065644 266.468394,25.1440415 L266.468394,23.4310881 C265.431428,23.5754757 264.716064,23.7854908 264.32228,24.0611399 C263.928495,24.3367889 263.731606,24.6649376 263.731606,25.0455959 Z M271.843523,18.2134715 L274.206218,18.2134715 L274.403109,19.453886 L274.481865,19.453886 C274.901902,19.0601017 275.36131,18.7155455 275.860104,18.4202073 C276.358897,18.124869 276.943002,17.9772021 277.612435,17.9772021 C278.675653,17.9772021 279.446802,18.3250397 279.925907,19.0207254 C280.405011,19.7164111 280.64456,20.6811683 280.64456,21.9150259 L280.64456,27.9792746 L277.750259,27.9792746 L277.750259,22.2891192 C277.750259,21.5803073 277.655096,21.0946473 277.464767,20.8321244 C277.274438,20.5696015 276.969259,20.438342 276.549223,20.438342 C276.181691,20.438342 275.866668,20.5203791 275.604145,20.684456 C275.341622,20.8485328 275.052851,21.0815184 274.737824,21.3834197 L274.737824,27.9792746 L271.843523,27.9792746 L271.843523,18.2134715 Z M283.105699,18.2134715 L285.468394,18.2134715 L285.665285,19.453886 L285.744041,19.453886 C286.164078,19.0601017 286.623486,18.7155455 287.12228,18.4202073 C287.621073,18.124869 288.205178,17.9772021 288.874611,17.9772021 C289.937829,17.9772021 290.708979,18.3250397 291.188083,19.0207254 C291.667187,19.7164111 291.906736,20.6811683 291.906736,21.9150259 L291.906736,27.9792746 L289.012435,27.9792746 L289.012435,22.2891192 C289.012435,21.5803073 288.917272,21.0946473 288.726943,20.8321244 C288.536614,20.5696015 288.231436,20.438342 287.811399,20.438342 C287.443867,20.438342 287.128844,20.5203791 286.866321,20.684456 C286.603798,20.8485328 286.315027,21.0815184 286,21.3834197 L286,27.9792746 L283.105699,27.9792746 L283.105699,18.2134715 Z M295.805181,16.7761658 C295.319514,16.7761658 294.919173,16.6350619 294.604145,16.3528497 C294.289118,16.0706376 294.131606,15.7063926 294.131606,15.2601036 C294.131606,14.8138147 294.289118,14.4528511 294.604145,14.1772021 C294.919173,13.901553 295.319514,13.7637306 295.805181,13.7637306 C296.303975,13.7637306 296.707598,13.901553 297.016062,14.1772021 C297.324527,14.4528511 297.478756,14.8138147 297.478756,15.2601036 C297.478756,15.7063926 297.324527,16.0706376 297.016062,16.3528497 C296.707598,16.6350619 296.303975,16.7761658 295.805181,16.7761658 Z M294.367876,18.2134715 L297.262176,18.2134715 L297.262176,27.9792746 L294.367876,27.9792746 L294.367876,18.2134715 Z M299.802073,18.2134715 L302.164767,18.2134715 L302.361658,19.453886 L302.440415,19.453886 C302.860451,19.0601017 303.319859,18.7155455 303.818653,18.4202073 C304.317446,18.124869 304.901551,17.9772021 305.570984,17.9772021 C306.634202,17.9772021 307.405352,18.3250397 307.884456,19.0207254 C308.36356,19.7164111 308.603109,20.6811683 308.603109,21.9150259 L308.603109,27.9792746 L305.708808,27.9792746 L305.708808,22.2891192 C305.708808,21.5803073 305.613645,21.0946473 305.423316,20.8321244 C305.232987,20.5696015 304.927809,20.438342 304.507772,20.438342 C304.14024,20.438342 303.825217,20.5203791 303.562694,20.684456 C303.300171,20.8485328 303.011401,21.0815184 302.696373,21.3834197 L302.696373,27.9792746 L299.802073,27.9792746 L299.802073,18.2134715 Z M312.836269,29.2 C312.836269,29.5675321 313.033159,29.8464585 313.426943,30.0367876 C313.820727,30.2271167 314.345765,30.3222798 315.002073,30.3222798 C315.65838,30.3222798 316.196544,30.2074277 316.61658,29.9777202 C317.036617,29.7480127 317.246632,29.4625233 317.246632,29.1212435 C317.246632,28.8193422 317.118654,28.61589 316.862694,28.5108808 C316.606734,28.4058717 316.235926,28.3533679 315.750259,28.3533679 L314.746114,28.3533679 C314.404834,28.3533679 314.129189,28.3435234 313.919171,28.3238342 C313.709153,28.304145 313.525389,28.2746116 313.367876,28.2352332 C313.01347,28.5502606 312.836269,28.8718464 312.836269,29.2 Z M310.453886,29.6528497 C310.453886,28.865281 310.919857,28.2089836 311.851813,27.6839378 L311.851813,27.6051813 C311.589291,27.4345415 311.372712,27.2179633 311.202073,26.9554404 C311.031433,26.6929175 310.946114,26.3582058 310.946114,25.9512953 C310.946114,25.5968894 311.051122,25.2588963 311.26114,24.9373057 C311.471158,24.6157151 311.733677,24.3433517 312.048705,24.1202073 L312.048705,24.0414508 C311.707425,23.8051802 311.402247,23.467187 311.133161,23.0274611 C310.864075,22.5877353 310.729534,22.0791048 310.729534,21.5015544 C310.729534,20.9108779 310.841104,20.3956844 311.064249,19.9559585 C311.287393,19.5162327 311.586008,19.1487061 311.960104,18.8533679 C312.334199,18.5580296 312.764074,18.33817 313.249741,18.1937824 C313.735408,18.0493948 314.240757,17.9772021 314.765803,17.9772021 C315.343353,17.9772021 315.848702,18.0559578 316.281865,18.2134715 L319.845596,18.2134715 L319.845596,20.3202073 L318.290155,20.3202073 C318.382038,20.4645948 318.457513,20.6483581 318.51658,20.8715026 C318.575648,21.0946471 318.605181,21.3374771 318.605181,21.6 C318.605181,22.1644242 318.506737,22.6533658 318.309845,23.0668394 C318.112952,23.4803129 317.840589,23.8215876 317.492746,24.0906736 C317.144903,24.3597595 316.737999,24.5599303 316.272021,24.6911917 C315.806043,24.8224532 315.303975,24.8880829 314.765803,24.8880829 C314.385145,24.8880829 313.991366,24.8224532 313.584456,24.6911917 C313.453195,24.7962009 313.361313,24.9012085 313.308808,25.0062176 C313.256304,25.1112268 313.230052,25.2490492 313.230052,25.4196891 C313.230052,25.6690859 313.338341,25.8528492 313.554922,25.9709845 C313.771504,26.0891198 314.155438,26.1481865 314.706736,26.1481865 L316.281865,26.1481865 C317.489471,26.1481865 318.411568,26.3417943 319.048187,26.7290155 C319.684805,27.1162368 320.003109,27.7495638 320.003109,28.6290155 C320.003109,29.1409352 319.875131,29.6101878 319.619171,30.0367876 C319.363211,30.4633873 318.998966,30.8309138 318.526425,31.1393782 C318.053884,31.4478426 317.482905,31.6906727 316.813472,31.8678756 C316.144038,32.0450786 315.389296,32.1336788 314.549223,32.1336788 C313.971672,32.1336788 313.43679,32.0844565 312.94456,31.9860104 C312.452329,31.8875643 312.019173,31.7398974 311.645078,31.5430052 C311.270983,31.346113 310.97893,31.090157 310.768912,30.7751295 C310.558894,30.4601021 310.453886,30.0860125 310.453886,29.6528497 Z M314.765803,23.1357513 C315.146461,23.1357513 315.464766,23.0012103 315.720725,22.7321244 C315.976685,22.4630384 316.104663,22.0528525 316.104663,21.5015544 C316.104663,20.9896347 315.976685,20.5991378 315.720725,20.3300518 C315.464766,20.0609658 315.146461,19.9264249 314.765803,19.9264249 C314.385145,19.9264249 314.066841,20.0576844 313.810881,20.3202073 C313.554921,20.5827302 313.426943,20.9765086 313.426943,21.5015544 C313.426943,22.0528525 313.554921,22.4630384 313.810881,22.7321244 C314.066841,23.0012103 314.385145,23.1357513 314.765803,23.1357513 Z" id="Planning" fill="#4990E2"></path>
            <path d="M215.560622,28.215544 C214.891188,28.215544 214.280832,28.0744401 213.729534,27.792228 C213.178236,27.5100159 212.708983,27.093267 212.321762,26.5419689 C211.93454,25.9906708 211.632644,25.3081215 211.416062,24.4943005 C211.199481,23.6804795 211.091192,22.7419742 211.091192,21.6787565 C211.091192,20.6155387 211.199481,19.6835964 211.416062,18.8829016 C211.632644,18.0822067 211.93454,17.4095019 212.321762,16.8647668 C212.708983,16.3200318 213.178236,15.9131274 213.729534,15.6440415 C214.280832,15.3749555 214.891188,15.2404145 215.560622,15.2404145 C216.230055,15.2404145 216.840412,15.3749555 217.39171,15.6440415 C217.943008,15.9131274 218.412261,16.3200318 218.799482,16.8647668 C219.186703,17.4095019 219.4886,18.0822067 219.705181,18.8829016 C219.921763,19.6835964 220.030052,20.6155387 220.030052,21.6787565 C220.030052,22.7419742 219.921763,23.6804795 219.705181,24.4943005 C219.4886,25.3081215 219.186703,25.9906708 218.799482,26.5419689 C218.412261,27.093267 217.943008,27.5100159 217.39171,27.792228 C216.840412,28.0744401 216.230055,28.215544 215.560622,28.215544 Z M215.560622,25.9709845 C215.810019,25.9709845 216.039723,25.9086362 216.249741,25.7839378 C216.459759,25.6592394 216.643523,25.4328168 216.801036,25.1046632 C216.95855,24.7765096 217.079965,24.3367903 217.165285,23.7854922 C217.250605,23.2341941 217.293264,22.5319559 217.293264,21.6787565 C217.293264,20.825557 217.250605,20.1266003 217.165285,19.5818653 C217.079965,19.0371303 216.95855,18.6105369 216.801036,18.3020725 C216.643523,17.9936081 216.459759,17.7803115 216.249741,17.6621762 C216.039723,17.5440409 215.810019,17.4849741 215.560622,17.4849741 C215.324351,17.4849741 215.10121,17.5440409 214.891192,17.6621762 C214.681173,17.7803115 214.49741,17.9936081 214.339896,18.3020725 C214.182383,18.6105369 214.057686,19.0371303 213.965803,19.5818653 C213.87392,20.1266003 213.827979,20.825557 213.827979,21.6787565 C213.827979,22.5319559 213.87392,23.2341941 213.965803,23.7854922 C214.057686,24.3367903 214.182383,24.7765096 214.339896,25.1046632 C214.49741,25.4328168 214.681173,25.6592394 214.891192,25.7839378 C215.10121,25.9086362 215.324351,25.9709845 215.560622,25.9709845 Z M221.487047,26.3253886 C222.287741,25.5771983 223.019513,24.8782416 223.682383,24.2284974 C224.345254,23.5787532 224.916232,22.9683966 225.395337,22.3974093 C225.874441,21.826422 226.248531,21.2948211 226.517617,20.8025907 C226.786703,20.3103602 226.921244,19.8411076 226.921244,19.3948187 C226.921244,18.7778898 226.763732,18.3086372 226.448705,17.9870466 C226.133677,17.6654561 225.700521,17.5046632 225.149223,17.5046632 C224.689808,17.5046632 224.282903,17.6326412 223.928497,17.888601 C223.574091,18.1445609 223.23938,18.4431762 222.924352,18.784456 L221.349223,17.2290155 C221.966152,16.5727083 222.596197,16.0772037 223.239378,15.742487 C223.882559,15.4077703 224.650427,15.2404145 225.543005,15.2404145 C226.159934,15.2404145 226.721068,15.3355776 227.226425,15.5259067 C227.731781,15.7162358 228.168219,15.9853178 228.535751,16.3331606 C228.903283,16.6810035 229.185491,17.0977523 229.382383,17.5834197 C229.579276,18.0690871 229.67772,18.6138139 229.67772,19.2176166 C229.67772,19.7426624 229.56615,20.2775448 229.343005,20.8222798 C229.119861,21.3670148 228.821245,21.9117417 228.44715,22.4564767 C228.073055,23.0012117 227.646462,23.5459386 227.167358,24.0906736 C226.688253,24.6354086 226.192749,25.170291 225.680829,25.6953368 C225.995856,25.6559584 226.346976,25.619862 226.734197,25.5870466 C227.121418,25.5542313 227.465974,25.5378238 227.767876,25.5378238 L230.288083,25.5378238 L230.288083,27.9792746 L221.487047,27.9792746 L221.487047,26.3253886 Z M232.35544,26.4041451 C232.35544,25.8790993 232.522796,25.4426615 232.857513,25.0948187 C233.19223,24.7469758 233.608979,24.573057 234.107772,24.573057 C234.606566,24.573057 235.023314,24.7469758 235.358031,25.0948187 C235.692748,25.4426615 235.860104,25.8790993 235.860104,26.4041451 C235.860104,26.9160647 235.692748,27.3459395 235.358031,27.6937824 C235.023314,28.0416252 234.606566,28.215544 234.107772,28.215544 C233.608979,28.215544 233.19223,28.0416252 232.857513,27.6937824 C232.522796,27.3459395 232.35544,26.9160647 232.35544,26.4041451 Z" id="02." fill="#A1A1A1"></path>
            <path d="M209.84456,61.6580311 L388.085914,61.6580311" id="Line" stroke="#D7D9D9" stroke-width="5" stroke-linecap="square"></path>
            <path d="M209.84456,78.238342 L388.085914,78.238342" id="Line" stroke="#D7D9D9" stroke-width="5" stroke-linecap="square"></path>
            <path d="M209.84456,95.8549223 L388.085914,95.8549223" id="Line" stroke="#D7D9D9" stroke-width="5" stroke-linecap="square"></path>
            <path d="M209.84456,111.398964 L335.233161,111.398964" id="Line" stroke="#D7D9D9" stroke-width="5" stroke-linecap="square"></path>
            <path d="M420.207254,2.07253886 L452.348316,2.07253886" id="Line" stroke="#D7D9D9" stroke-width="4" stroke-linecap="square"></path>
            <path d="M455.402073,15.1419689 L459.02487,15.1419689 C460.009331,15.1419689 460.895333,15.2666654 461.682902,15.5160622 C462.47047,15.7654589 463.146457,16.1493929 463.710881,16.6678756 C464.275305,17.1863584 464.708461,17.8459373 465.010363,18.6466321 C465.312264,19.447327 465.463212,20.3989582 465.463212,21.5015544 C465.463212,22.6041506 465.312264,23.5623448 465.010363,24.3761658 C464.708461,25.1899868 464.281868,25.8626916 463.73057,26.3943005 C463.179272,26.9259094 462.519693,27.3229693 461.751813,27.5854922 C460.983934,27.8480151 460.127466,27.9792746 459.182383,27.9792746 L455.402073,27.9792746 L455.402073,15.1419689 Z M458.847668,25.6362694 C459.398966,25.6362694 459.897753,25.5640767 460.344041,25.4196891 C460.79033,25.2753015 461.170983,25.0423159 461.48601,24.7207254 C461.801038,24.3991348 462.047149,23.975823 462.224352,23.4507772 C462.401555,22.9257314 462.490155,22.275997 462.490155,21.5015544 C462.490155,20.740238 462.401555,20.100348 462.224352,19.5818653 C462.047149,19.0633826 461.801038,18.6499152 461.48601,18.3414508 C461.170983,18.0329864 460.79033,17.8131267 460.344041,17.6818653 C459.897753,17.5506038 459.398966,17.4849741 458.847668,17.4849741 L458.296373,17.4849741 L458.296373,25.6362694 L458.847668,25.6362694 Z M467.097409,23.0963731 C467.097409,22.3088044 467.228669,21.5967217 467.491192,20.9601036 C467.753715,20.3234856 468.098271,19.7853217 468.52487,19.3455959 C468.95147,18.90587 469.440412,18.5678768 469.99171,18.3316062 C470.543008,18.0953356 471.113987,17.9772021 471.704663,17.9772021 C472.400349,17.9772021 473.007424,18.0953356 473.525907,18.3316062 C474.044389,18.5678768 474.477546,18.8960255 474.825389,19.3160622 C475.173231,19.7360988 475.432469,20.2316034 475.603109,20.8025907 C475.773749,21.373578 475.859067,21.993779 475.859067,22.6632124 C475.859067,22.9257353 475.845941,23.1652839 475.819689,23.3818653 C475.793437,23.5984467 475.767185,23.7658025 475.740933,23.8839378 L469.893264,23.8839378 C470.024526,24.6321281 470.316578,25.1735735 470.76943,25.5082902 C471.222282,25.8430069 471.776853,26.0103627 472.433161,26.0103627 C473.128846,26.0103627 473.831085,25.7937845 474.539896,25.3606218 L475.504663,27.1129534 C475.00587,27.4542331 474.451298,27.7233151 473.840933,27.9202073 C473.230567,28.1170994 472.630055,28.215544 472.039378,28.215544 C471.343693,28.215544 470.693958,28.100692 470.090155,27.8709845 C469.486353,27.6412769 468.961315,27.3065652 468.515026,26.8668394 C468.068737,26.4271135 467.720899,25.8922311 467.471503,25.2621762 C467.222106,24.6321212 467.097409,23.9101941 467.097409,23.0963731 Z M473.397927,22.092228 C473.397927,21.5278037 473.273231,21.0683956 473.023834,20.7139896 C472.774437,20.3595837 472.354407,20.1823834 471.763731,20.1823834 C471.304315,20.1823834 470.900693,20.3366133 470.55285,20.6450777 C470.205007,20.9535421 469.978584,21.4359207 469.873575,22.092228 L473.397927,22.092228 Z M476.823834,18.2134715 L479.737824,18.2134715 L480.997927,22.8207254 C481.129189,23.3063928 481.257167,23.8018973 481.381865,24.3072539 C481.506564,24.8126105 481.634542,25.321241 481.765803,25.8331606 L481.84456,25.8331606 C481.962695,25.321241 482.08411,24.8126105 482.208808,24.3072539 C482.333507,23.8018973 482.461485,23.3063928 482.592746,22.8207254 L483.872539,18.2134715 L486.648705,18.2134715 L483.459067,27.9792746 L480.111917,27.9792746 L476.823834,18.2134715 Z M487.593782,23.0963731 C487.593782,22.3088044 487.725042,21.5967217 487.987565,20.9601036 C488.250088,20.3234856 488.594644,19.7853217 489.021244,19.3455959 C489.447843,18.90587 489.936785,18.5678768 490.488083,18.3316062 C491.039381,18.0953356 491.61036,17.9772021 492.201036,17.9772021 C492.896722,17.9772021 493.503797,18.0953356 494.02228,18.3316062 C494.540763,18.5678768 494.973919,18.8960255 495.321762,19.3160622 C495.669605,19.7360988 495.928842,20.2316034 496.099482,20.8025907 C496.270122,21.373578 496.35544,21.993779 496.35544,22.6632124 C496.35544,22.9257353 496.342314,23.1652839 496.316062,23.3818653 C496.28981,23.5984467 496.263558,23.7658025 496.237306,23.8839378 L490.389637,23.8839378 C490.520899,24.6321281 490.812951,25.1735735 491.265803,25.5082902 C491.718655,25.8430069 492.273226,26.0103627 492.929534,26.0103627 C493.625219,26.0103627 494.327458,25.7937845 495.036269,25.3606218 L496.001036,27.1129534 C495.502243,27.4542331 494.947671,27.7233151 494.337306,27.9202073 C493.72694,28.1170994 493.126428,28.215544 492.535751,28.215544 C491.840066,28.215544 491.190331,28.100692 490.586528,27.8709845 C489.982726,27.6412769 489.457688,27.3065652 489.011399,26.8668394 C488.56511,26.4271135 488.217272,25.8922311 487.967876,25.2621762 C487.718479,24.6321212 487.593782,23.9101941 487.593782,23.0963731 Z M493.894301,22.092228 C493.894301,21.5278037 493.769604,21.0683956 493.520207,20.7139896 C493.27081,20.3595837 492.85078,20.1823834 492.260104,20.1823834 C491.800689,20.1823834 491.397066,20.3366133 491.049223,20.6450777 C490.70138,20.9535421 490.474957,21.4359207 490.369948,22.092228 L493.894301,22.092228 Z M498.363731,14.1772021 L501.258031,14.1772021 L501.258031,25.065285 C501.258031,25.3671863 501.313816,25.5772015 501.425389,25.6953368 C501.536961,25.8134721 501.651813,25.8725389 501.769948,25.8725389 L501.937306,25.8725389 C501.983247,25.8725389 502.045595,25.8594129 502.124352,25.8331606 L502.478756,27.9792746 C502.321243,28.0449053 502.121072,28.1006906 501.878238,28.1466321 C501.635405,28.1925736 501.349915,28.215544 501.021762,28.215544 C500.522968,28.215544 500.102938,28.1367884 499.761658,27.9792746 C499.420378,27.8217609 499.148015,27.6019012 498.94456,27.3196891 C498.741104,27.037477 498.593437,26.6962023 498.501554,26.2958549 C498.409671,25.8955075 498.363731,25.4459438 498.363731,24.9471503 L498.363731,14.1772021 Z M503.423834,23.0963731 C503.423834,22.2825521 503.555094,21.5573434 503.817617,20.9207254 C504.080139,20.2841074 504.431259,19.749225 504.870984,19.3160622 C505.31071,18.8828994 505.819341,18.5514692 506.396891,18.3217617 C506.974442,18.0920541 507.571672,17.9772021 508.188601,17.9772021 C508.80553,17.9772021 509.399479,18.0920541 509.970466,18.3217617 C510.541454,18.5514692 511.046803,18.8828994 511.486528,19.3160622 C511.926254,19.749225 512.277373,20.2841074 512.539896,20.9207254 C512.802419,21.5573434 512.933679,22.2825521 512.933679,23.0963731 C512.933679,23.9101941 512.802419,24.6354027 512.539896,25.2720207 C512.277373,25.9086388 511.926254,26.4435212 511.486528,26.8766839 C511.046803,27.3098467 510.541454,27.6412769 509.970466,27.8709845 C509.399479,28.100692 508.80553,28.215544 508.188601,28.215544 C507.571672,28.215544 506.974442,28.100692 506.396891,27.8709845 C505.819341,27.6412769 505.31071,27.3098467 504.870984,26.8766839 C504.431259,26.4435212 504.080139,25.9086388 503.817617,25.2720207 C503.555094,24.6354027 503.423834,23.9101941 503.423834,23.0963731 Z M506.396891,23.0963731 C506.396891,23.9495725 506.544558,24.6255588 506.839896,25.1243523 C507.135235,25.6231458 507.584798,25.8725389 508.188601,25.8725389 C508.779278,25.8725389 509.22556,25.6231458 509.527461,25.1243523 C509.829362,24.6255588 509.980311,23.9495725 509.980311,23.0963731 C509.980311,22.2431736 509.829362,21.5671873 509.527461,21.0683938 C509.22556,20.5696003 508.779278,20.3202073 508.188601,20.3202073 C507.584798,20.3202073 507.135235,20.5696003 506.839896,21.0683938 C506.544558,21.5671873 506.396891,22.2431736 506.396891,23.0963731 Z M517.81658,28.7471503 L517.81658,31.6020725 L514.92228,31.6020725 L514.92228,18.2134715 L517.284974,18.2134715 L517.481865,19.1782383 L517.560622,19.1782383 C517.94128,18.8369586 518.371155,18.5514692 518.850259,18.3217617 C519.329363,18.0920541 519.824868,17.9772021 520.336788,17.9772021 C520.927464,17.9772021 521.459065,18.0953356 521.931606,18.3316062 C522.404147,18.5678768 522.804489,18.9025885 523.132642,19.3357513 C523.460796,19.7689141 523.713471,20.2906705 523.890674,20.9010363 C524.067877,21.511402 524.156477,22.1906698 524.156477,22.9388601 C524.156477,23.7789334 524.041625,24.5238309 523.811917,25.1735751 C523.58221,25.8233193 523.27375,26.3746091 522.886528,26.8274611 C522.499307,27.2803131 522.059588,27.6248693 521.567358,27.8611399 C521.075127,28.0974105 520.566497,28.215544 520.041451,28.215544 C519.621414,28.215544 519.21451,28.1269439 518.820725,27.9497409 C518.426941,27.772538 518.059414,27.5198635 517.718135,27.1917098 L517.81658,28.7471503 Z M517.81658,25.2227979 C518.079103,25.4590685 518.341622,25.6231429 518.604145,25.7150259 C518.866668,25.8069089 519.122624,25.8528497 519.372021,25.8528497 C519.870814,25.8528497 520.297408,25.6264271 520.651813,25.1735751 C521.006219,24.7207231 521.18342,23.9889515 521.18342,22.9782383 C521.18342,21.2193349 520.619004,20.3398964 519.490155,20.3398964 C518.925731,20.3398964 518.367878,20.6352302 517.81658,21.2259067 L517.81658,25.2227979 Z M526.204145,18.2134715 L528.566839,18.2134715 L528.763731,19.4735751 L528.842487,19.4735751 C529.249398,19.0666646 529.682554,18.7155455 530.141969,18.4202073 C530.601384,18.124869 531.152674,17.9772021 531.795855,17.9772021 C532.491541,17.9772021 533.052675,18.118306 533.479275,18.4005181 C533.905874,18.6827303 534.243867,19.0863532 534.493264,19.611399 C534.926427,19.16511 535.382554,18.781176 535.861658,18.4595855 C536.340762,18.1379949 536.90846,17.9772021 537.564767,17.9772021 C538.614858,17.9772021 539.386008,18.3283212 539.878238,19.0305699 C540.370469,19.7328187 540.61658,20.6942944 540.61658,21.9150259 L540.61658,27.9792746 L537.72228,27.9792746 L537.72228,22.2891192 C537.72228,21.5803073 537.627117,21.0946473 537.436788,20.8321244 C537.246458,20.5696015 536.94128,20.438342 536.521244,20.438342 C536.035576,20.438342 535.477723,20.7533647 534.847668,21.3834197 L534.847668,27.9792746 L531.953368,27.9792746 L531.953368,22.2891192 C531.953368,21.5803073 531.858205,21.0946473 531.667876,20.8321244 C531.477547,20.5696015 531.172368,20.438342 530.752332,20.438342 C530.253538,20.438342 529.702248,20.7533647 529.098446,21.3834197 L529.098446,27.9792746 L526.204145,27.9792746 L526.204145,18.2134715 Z M542.506736,23.0963731 C542.506736,22.3088044 542.637995,21.5967217 542.900518,20.9601036 C543.163041,20.3234856 543.507597,19.7853217 543.934197,19.3455959 C544.360797,18.90587 544.849738,18.5678768 545.401036,18.3316062 C545.952334,18.0953356 546.523313,17.9772021 547.11399,17.9772021 C547.809675,17.9772021 548.41675,18.0953356 548.935233,18.3316062 C549.453716,18.5678768 549.886872,18.8960255 550.234715,19.3160622 C550.582558,19.7360988 550.841795,20.2316034 551.012435,20.8025907 C551.183075,21.373578 551.268394,21.993779 551.268394,22.6632124 C551.268394,22.9257353 551.255268,23.1652839 551.229016,23.3818653 C551.202763,23.5984467 551.176511,23.7658025 551.150259,23.8839378 L545.302591,23.8839378 C545.433852,24.6321281 545.725904,25.1735735 546.178756,25.5082902 C546.631608,25.8430069 547.18618,26.0103627 547.842487,26.0103627 C548.538173,26.0103627 549.240411,25.7937845 549.949223,25.3606218 L550.91399,27.1129534 C550.415196,27.4542331 549.860625,27.7233151 549.250259,27.9202073 C548.639893,28.1170994 548.039381,28.215544 547.448705,28.215544 C546.753019,28.215544 546.103285,28.100692 545.499482,27.8709845 C544.895679,27.6412769 544.370641,27.3065652 543.924352,26.8668394 C543.478063,26.4271135 543.130226,25.8922311 542.880829,25.2621762 C542.631432,24.6321212 542.506736,23.9101941 542.506736,23.0963731 Z M548.807254,22.092228 C548.807254,21.5278037 548.682557,21.0683956 548.433161,20.7139896 C548.183764,20.3595837 547.763734,20.1823834 547.173057,20.1823834 C546.713642,20.1823834 546.310019,20.3366133 545.962176,20.6450777 C545.614333,20.9535421 545.387911,21.4359207 545.282902,22.092228 L548.807254,22.092228 Z M553.276684,18.2134715 L555.639378,18.2134715 L555.836269,19.453886 L555.915026,19.453886 C556.335063,19.0601017 556.794471,18.7155455 557.293264,18.4202073 C557.792058,18.124869 558.376162,17.9772021 559.045596,17.9772021 C560.108814,17.9772021 560.879963,18.3250397 561.359067,19.0207254 C561.838172,19.7164111 562.07772,20.6811683 562.07772,21.9150259 L562.07772,27.9792746 L559.18342,27.9792746 L559.18342,22.2891192 C559.18342,21.5803073 559.088257,21.0946473 558.897927,20.8321244 C558.707598,20.5696015 558.40242,20.438342 557.982383,20.438342 C557.614851,20.438342 557.299829,20.5203791 557.037306,20.684456 C556.774783,20.8485328 556.486012,21.0815184 556.170984,21.3834197 L556.170984,27.9792746 L553.276684,27.9792746 L553.276684,18.2134715 Z M564.932642,20.4777202 L563.593782,20.4777202 L563.593782,18.3316062 L565.090155,18.2134715 L565.42487,15.6145078 L567.826943,15.6145078 L567.826943,18.2134715 L570.169948,18.2134715 L570.169948,20.4777202 L567.826943,20.4777202 L567.826943,24.3958549 C567.826943,24.947153 567.941795,25.3442129 568.171503,25.5870466 C568.40121,25.8298803 568.706388,25.9512953 569.087047,25.9512953 C569.24456,25.9512953 569.405353,25.9316064 569.56943,25.892228 C569.733507,25.8528495 569.881174,25.8069087 570.012435,25.7544041 L570.465285,27.8611399 C570.202762,27.9398968 569.894302,28.0186525 569.539896,28.0974093 C569.18549,28.1761662 568.772023,28.215544 568.299482,28.215544 C567.695679,28.215544 567.180486,28.1236624 566.753886,27.9398964 C566.327286,27.7561303 565.979449,27.5001744 565.710363,27.1720207 C565.441277,26.8438671 565.244387,26.4468072 565.119689,25.980829 C564.994991,25.5148509 564.932642,24.9996574 564.932642,24.4352332 L564.932642,20.4777202 Z" id="Development" fill="#4990E2"></path>
            <path d="M426.959585,28.215544 C426.290152,28.215544 425.679796,28.0744401 425.128497,27.792228 C424.577199,27.5100159 424.107947,27.093267 423.720725,26.5419689 C423.333504,25.9906708 423.031607,25.3081215 422.815026,24.4943005 C422.598445,23.6804795 422.490155,22.7419742 422.490155,21.6787565 C422.490155,20.6155387 422.598445,19.6835964 422.815026,18.8829016 C423.031607,18.0822067 423.333504,17.4095019 423.720725,16.8647668 C424.107947,16.3200318 424.577199,15.9131274 425.128497,15.6440415 C425.679796,15.3749555 426.290152,15.2404145 426.959585,15.2404145 C427.629019,15.2404145 428.239375,15.3749555 428.790674,15.6440415 C429.341972,15.9131274 429.811224,16.3200318 430.198446,16.8647668 C430.585667,17.4095019 430.887564,18.0822067 431.104145,18.8829016 C431.320726,19.6835964 431.429016,20.6155387 431.429016,21.6787565 C431.429016,22.7419742 431.320726,23.6804795 431.104145,24.4943005 C430.887564,25.3081215 430.585667,25.9906708 430.198446,26.5419689 C429.811224,27.093267 429.341972,27.5100159 428.790674,27.792228 C428.239375,28.0744401 427.629019,28.215544 426.959585,28.215544 Z M426.959585,25.9709845 C427.208982,25.9709845 427.438686,25.9086362 427.648705,25.7839378 C427.858723,25.6592394 428.042486,25.4328168 428.2,25.1046632 C428.357514,24.7765096 428.478929,24.3367903 428.564249,23.7854922 C428.649569,23.2341941 428.692228,22.5319559 428.692228,21.6787565 C428.692228,20.825557 428.649569,20.1266003 428.564249,19.5818653 C428.478929,19.0371303 428.357514,18.6105369 428.2,18.3020725 C428.042486,17.9936081 427.858723,17.7803115 427.648705,17.6621762 C427.438686,17.5440409 427.208982,17.4849741 426.959585,17.4849741 C426.723315,17.4849741 426.500174,17.5440409 426.290155,17.6621762 C426.080137,17.7803115 425.896374,17.9936081 425.73886,18.3020725 C425.581346,18.6105369 425.45665,19.0371303 425.364767,19.5818653 C425.272884,20.1266003 425.226943,20.825557 425.226943,21.6787565 C425.226943,22.5319559 425.272884,23.2341941 425.364767,23.7854922 C425.45665,24.3367903 425.581346,24.7765096 425.73886,25.1046632 C425.896374,25.4328168 426.080137,25.6592394 426.290155,25.7839378 C426.500174,25.9086362 426.723315,25.9709845 426.959585,25.9709845 Z M433.929534,24.6124352 C434.310192,24.9799673 434.726941,25.2818641 435.179793,25.5181347 C435.632645,25.7544053 436.128149,25.8725389 436.666321,25.8725389 C437.28325,25.8725389 437.775473,25.7445609 438.143005,25.488601 C438.510537,25.2326412 438.694301,24.8683961 438.694301,24.3958549 C438.694301,24.1202059 438.645078,23.8708129 438.546632,23.6476684 C438.448186,23.4245239 438.274267,23.2374792 438.02487,23.0865285 C437.775474,22.9355778 437.434199,22.8174443 437.001036,22.7321244 C436.567873,22.6468044 436.010021,22.6041451 435.327461,22.6041451 L435.327461,20.5564767 C435.891885,20.5564767 436.361138,20.5170988 436.735233,20.438342 C437.109328,20.3595851 437.411225,20.2447331 437.640933,20.0937824 C437.87064,19.9428317 438.034715,19.7656314 438.133161,19.5621762 C438.231607,19.3587209 438.280829,19.1322983 438.280829,18.8829016 C438.280829,18.4497388 438.14957,18.1117456 437.887047,17.8689119 C437.624524,17.6260782 437.243871,17.5046632 436.745078,17.5046632 C436.298789,17.5046632 435.895166,17.6031078 435.534197,17.8 C435.173228,17.9968922 434.795857,18.2659741 434.402073,18.6072539 L432.945078,16.8352332 C433.522628,16.3364396 434.129703,15.9459427 434.766321,15.6637306 C435.402939,15.3815185 436.108459,15.2404145 436.882902,15.2404145 C437.526083,15.2404145 438.113469,15.3158887 438.645078,15.4668394 C439.176687,15.61779 439.629532,15.8409312 440.003627,16.1362694 C440.377722,16.4316077 440.669774,16.7892898 440.879793,17.2093264 C441.089811,17.6293631 441.194819,18.1150232 441.194819,18.6663212 C441.194819,19.3226285 441.014337,19.8771998 440.653368,20.3300518 C440.292399,20.7829038 439.777205,21.1537119 439.107772,21.442487 L439.107772,21.5212435 C439.82971,21.7312618 440.423659,22.0889439 440.889637,22.5943005 C441.355615,23.0996571 441.588601,23.759236 441.588601,24.573057 C441.588601,25.1506074 441.463905,25.6658008 441.214508,26.1186528 C440.965111,26.5715049 440.630399,26.9521574 440.210363,27.2606218 C439.790326,27.5690862 439.298103,27.8053532 438.733679,27.9694301 C438.169255,28.1335069 437.572024,28.215544 436.941969,28.215544 C435.91813,28.215544 435.051817,28.0547512 434.343005,27.7331606 C433.634193,27.4115701 433.050089,26.9816953 432.590674,26.4435233 L433.929534,24.6124352 Z M443.754404,26.4041451 C443.754404,25.8790993 443.92176,25.4426615 444.256477,25.0948187 C444.591193,24.7469758 445.007942,24.573057 445.506736,24.573057 C446.005529,24.573057 446.422278,24.7469758 446.756995,25.0948187 C447.091712,25.4426615 447.259067,25.8790993 447.259067,26.4041451 C447.259067,26.9160647 447.091712,27.3459395 446.756995,27.6937824 C446.422278,28.0416252 446.005529,28.215544 445.506736,28.215544 C445.007942,28.215544 444.591193,28.0416252 444.256477,27.6937824 C443.92176,27.3459395 443.754404,26.9160647 443.754404,26.4041451 Z" id="03." fill="#A1A1A1"></path>
            <path d="M421.243523,61.6580311 L599.484878,61.6580311" id="Line" stroke="#D7D9D9" stroke-width="5" stroke-linecap="square"></path>
            <path d="M421.243523,78.238342 L599.484878,78.238342" id="Line" stroke="#D7D9D9" stroke-width="5" stroke-linecap="square"></path>
            <path d="M421.243523,95.8549223 L599.484878,95.8549223" id="Line" stroke="#D7D9D9" stroke-width="5" stroke-linecap="square"></path>
            <path d="M421.243523,111.398964 L546.632124,111.398964" id="Line" stroke="#D7D9D9" stroke-width="5" stroke-linecap="square"></path>
        </g>
    </g>
</svg>