<?xml version="1.0" encoding="UTF-8"?>
<svg width="600px" height="401px" viewBox="0 0 600 401" version="1.1" xmlns="http://www.w3.org/2000/svg" xmlns:xlink="http://www.w3.org/1999/xlink">
    <!-- Generator: Sketch 44.1 (41455) - http://www.bohemiancoding.com/sketch -->
    <title>services05</title>
    <desc>Created with Sketch.</desc>
    <defs>
        <rect id="path-1" x="8.39552239" y="24.1263979" width="11.5438433" height="1.04897382" rx="0.52448691"></rect>
    </defs>
    <g id="Services" stroke="none" stroke-width="1" fill="none" fill-rule="evenodd">
        <g id="05">
            <rect id="Rectangle-7" fill="#F8F8F8" x="0" y="0" width="600" height="400.332779"></rect>
            <g id="icon-mac" transform="translate(28.656716, 146.878245)">
                <rect id="Rectangle-3" stroke="#979797" x="0.5" y="0.5" width="27.3348881" height="19.9794764" rx="2"></rect>
                <path d="M0.524720149,16.2590942 L27.8101679,16.2590942" id="Line" stroke="#979797" stroke-linecap="square"></path>
                <path d="M11.0191231,20.4549895 L11.0191231,23.6019109" id="Line" stroke="#979797" stroke-linecap="square"></path>
                <path d="M17.3157649,20.4549895 L17.3157649,23.6019109" id="Line" stroke="#979797" stroke-linecap="square"></path>
                <g id="Rectangle-4">
                    <use fill="#D8D8D8" fill-rule="evenodd" xlink:href="#path-1"></use>
                    <rect stroke="#979797" stroke-width="1" x="8.89552239" y="24.6263979" width="10.5438433" height="1" rx="0.5"></rect>
                </g>
                <ellipse id="Oval" fill="#D8D8D8" cx="14.167444" cy="18.3570418" rx="1" ry="1"></ellipse>
            </g>
            <g id="icon-play" transform="translate(411.940299, 145.982646)" stroke="#979797">
                <rect id="Rectangle-5" x="0.5" y="0.5" width="29.4337687" height="25.2243455"></rect>
                <polygon id="Triangle" transform="translate(15.216884, 11.014225) rotate(90.000000) translate(-15.216884, -11.014225) " points="15.2168843 7.34281674 19.9393657 14.6856335 10.494403 14.6856335"></polygon>
                <path d="M29.9090485,21.5039633 L8.92024254,21.5039633" id="Line" stroke-linecap="square"></path>
                <path d="M7.87080224,20.4549895 L7.87080224,22.5529371" id="Line" stroke-linecap="square"></path>
                <path d="M5.77192164,21.5039633 L0.524720149,21.5039633" id="Line" stroke-linecap="square"></path>
            </g>
            <path d="M73.0620336,158.610045 L127.632929,158.610045" id="Line" stroke="#979797" stroke-width="7" stroke-linecap="square"></path>
            <path d="M73.0620336,178.530962 L176.956623,178.530962" id="Line" stroke="#D7D9D9" stroke-width="4" stroke-linecap="square"></path>
            <path d="M73.0620336,189.278151 L176.956623,189.278151" id="Line" stroke="#D7D9D9" stroke-width="4" stroke-linecap="square"></path>
            <path d="M73.0620336,200.920938 L151.15905,200.920938" id="Line" stroke="#D7D9D9" stroke-width="4" stroke-linecap="square"></path>
            <path d="M461.71875,158.610045 L516.289646,158.610045" id="Line" stroke="#979797" stroke-width="7" stroke-linecap="square"></path>
            <path d="M461.71875,178.530962 L565.61334,178.530962" id="Line" stroke="#D7D9D9" stroke-width="4" stroke-linecap="square"></path>
            <path d="M461.71875,190.17375 L565.61334,190.17375" id="Line" stroke="#D7D9D9" stroke-width="4" stroke-linecap="square"></path>
            <path d="M461.71875,200.920938 L546.441535,200.920938" id="Line" stroke="#D7D9D9" stroke-width="4" stroke-linecap="square"></path>
            <path d="M73.0620336,266.081932 L127.632929,266.081932" id="Line" stroke="#979797" stroke-width="7" stroke-linecap="square"></path>
            <path d="M73.0620336,285.10725 L176.956623,285.10725" id="Line" stroke="#D7D9D9" stroke-width="4" stroke-linecap="square"></path>
            <path d="M73.0620336,296.750038 L176.956623,296.750038" id="Line" stroke="#D7D9D9" stroke-width="4" stroke-linecap="square"></path>
            <path d="M73.0620336,308.392825 L157.447109,308.392825" id="Line" stroke="#D7D9D9" stroke-width="4" stroke-linecap="square"></path>
            <path d="M461.71875,266.081932 L516.289646,266.081932" id="Line" stroke="#979797" stroke-width="7" stroke-linecap="square"></path>
            <path d="M461.71875,285.10725 L565.61334,285.10725" id="Line" stroke="#D7D9D9" stroke-width="4" stroke-linecap="square"></path>
            <path d="M461.71875,296.750038 L565.61334,296.750038" id="Line" stroke="#D7D9D9" stroke-width="4" stroke-linecap="square"></path>
            <path d="M461.71875,308.392825 L565.61334,308.392825" id="Line" stroke="#D7D9D9" stroke-width="4" stroke-linecap="square"></path>
            <path d="M257.539646,59.5696621 L332.049907,59.5696621" id="Line" stroke="#4990E2" stroke-width="6" stroke-linecap="square"></path>
            <path d="M225.399403,94.5537661 C224.37492,94.5537661 223.439706,94.3713642 222.593731,94.0065551 C221.747757,93.6417459 221.022093,93.1178257 220.416716,92.4347787 C219.81134,91.7517318 219.341793,90.9212212 219.00806,89.9432221 C218.674327,88.9652231 218.507463,87.8552884 218.507463,86.6133849 C218.507463,85.3714813 218.674327,84.2654275 219.00806,83.2951903 C219.341793,82.3249532 219.81134,81.5099662 220.416716,80.8502049 C221.022093,80.1904436 221.747757,79.6859279 222.593731,79.3366425 C223.439706,78.9873571 224.37492,78.8127171 225.399403,78.8127171 C226.423886,78.8127171 227.3591,78.9873571 228.205075,79.3366425 C229.051049,79.6859279 229.776713,80.1943245 230.38209,80.8618477 C230.987466,81.5293709 231.457013,82.3482388 231.790746,83.3184759 C232.124479,84.2887131 232.291343,85.3870051 232.291343,86.6133849 C232.291343,87.8552884 232.124479,88.9652231 231.790746,89.9432221 C231.457013,90.9212212 230.987466,91.7517318 230.38209,92.4347787 C229.776713,93.1178257 229.051049,93.6417459 228.205075,94.0065551 C227.3591,94.3713642 226.423886,94.5537661 225.399403,94.5537661 Z M225.399403,91.596498 C226.439408,91.596498 227.262087,91.1501956 227.867463,90.2575774 C228.472839,89.3649592 228.775522,88.1502405 228.775522,86.6133849 C228.775522,85.092053 228.472839,83.9045005 227.867463,83.0506918 C227.262087,82.1968831 226.439408,81.7699851 225.399403,81.7699851 C224.359398,81.7699851 223.536719,82.1968831 222.931343,83.0506918 C222.325967,83.9045005 222.023284,85.092053 222.023284,86.6133849 C222.023284,88.1502405 222.325967,89.3649592 222.931343,90.2575774 C223.536719,91.1501956 224.359398,91.596498 225.399403,91.596498 Z M235.06209,79.092144 L238.50806,79.092144 L238.50806,87.591379 C238.50806,89.0816633 238.733132,90.1217419 239.183284,90.7116461 C239.633435,91.3015503 240.285369,91.596498 241.139104,91.596498 C241.99284,91.596498 242.652535,91.3015503 243.118209,90.7116461 C243.583883,90.1217419 243.816716,89.0816633 243.816716,87.591379 L243.816716,79.092144 L247.122985,79.092144 L247.122985,87.2420954 C247.122985,89.7879977 246.614632,91.6430633 245.59791,92.8073479 C244.581189,93.9716325 243.094935,94.5537661 241.139104,94.5537661 C239.167751,94.5537661 237.662095,93.9716325 236.62209,92.8073479 C235.582084,91.6430633 235.06209,89.7879977 235.06209,87.2420954 L235.06209,79.092144 Z M254.061493,86.0778166 L255.831045,86.0778166 C256.731348,86.0778166 257.418207,85.887653 257.891642,85.50732 C258.365077,85.126987 258.601791,84.5642579 258.601791,83.8191158 C258.601791,83.0739736 258.365077,82.5539343 257.891642,82.2589822 C257.418207,81.9640301 256.731348,81.8165563 255.831045,81.8165563 L254.061493,81.8165563 L254.061493,86.0778166 Z M258.85791,94.2743392 L255.947463,88.8022289 L254.061493,88.8022289 L254.061493,94.2743392 L250.638806,94.2743392 L250.638806,79.092144 L256.110448,79.092144 C256.917616,79.092144 257.674325,79.1697618 258.380597,79.3249997 C259.086869,79.4802377 259.703878,79.7402573 260.231642,80.1050665 C260.759406,80.4698757 261.178506,80.954987 261.488955,81.560415 C261.799405,82.165843 261.954627,82.9187357 261.954627,83.8191158 C261.954627,84.936829 261.710152,85.8566 261.221194,86.5784565 C260.732236,87.3003129 260.076422,87.8397567 259.253731,88.196804 L262.699701,94.2743392 L258.85791,94.2743392 Z M270.802388,90.0130789 C271.345674,90.4787927 271.947161,90.85912 272.606866,91.1540721 C273.26657,91.4490242 273.914624,91.596498 274.551045,91.596498 C275.265078,91.596498 275.796715,91.4645477 276.14597,91.2006432 C276.495226,90.9367387 276.669851,90.5796968 276.669851,90.1295068 C276.669851,89.8966498 276.619403,89.6948435 276.518507,89.5240818 C276.417611,89.35332 276.27015,89.2019653 276.076119,89.0700131 C275.882089,88.9380608 275.649255,88.8138723 275.377612,88.6974439 L274.481194,88.3132319 L272.50209,87.4749511 C272.114028,87.3197132 271.737614,87.1179069 271.372836,86.8695262 C271.008058,86.6211455 270.682091,86.3300787 270.394925,85.9963171 C270.10776,85.6625555 269.878807,85.2744665 269.70806,84.8320383 C269.537313,84.3896102 269.45194,83.8889753 269.45194,83.3301187 C269.45194,82.7091669 269.583879,82.1231525 269.847761,81.5720578 C270.111643,81.020963 270.484177,80.5397326 270.965373,80.1283521 C271.44657,79.7169715 272.017012,79.3948576 272.676716,79.1620007 C273.336421,78.9291438 274.062086,78.8127171 274.853731,78.8127171 C275.738512,78.8127171 276.611637,78.9834762 277.473134,79.3249997 C278.334631,79.6665232 279.09134,80.1632772 279.743284,80.8152766 L277.997015,82.9808351 C277.500296,82.5927402 277.003585,82.2939116 276.506866,82.0843404 C276.010147,81.8747692 275.459108,81.7699851 274.853731,81.7699851 C274.263878,81.7699851 273.79433,81.8902928 273.445075,82.1309116 C273.095819,82.3715304 272.921194,82.7091679 272.921194,83.1438341 C272.921194,83.376691 272.979402,83.5746164 273.095821,83.7376163 C273.212239,83.9006161 273.375223,84.04809 273.584776,84.1800422 C273.794329,84.3119945 274.038805,84.436183 274.318209,84.5526114 C274.597613,84.6690399 274.900297,84.7971093 275.226269,84.9368234 L277.18209,85.728533 C278.113437,86.1011041 278.846863,86.6133816 279.382388,87.265381 C279.917913,87.9173803 280.185672,88.778938 280.185672,89.8500798 C280.185672,90.4865554 280.057613,91.0880934 279.801493,91.6547119 C279.545372,92.2213304 279.172838,92.7180844 278.683881,93.1449888 C278.194923,93.5718931 277.593436,93.9134115 276.879403,94.1695541 C276.16537,94.4256967 275.358213,94.5537661 274.45791,94.5537661 C273.464473,94.5537661 272.47493,94.3713642 271.489254,94.0065551 C270.503577,93.6417459 269.62269,93.0945403 268.846567,92.364922 L270.802388,90.0130789 Z M282.770149,79.092144 L292.269851,79.092144 L292.269851,81.9795553 L286.192836,81.9795553 L286.192836,85.0299657 L291.361791,85.0299657 L291.361791,87.8940915 L286.192836,87.8940915 L286.192836,91.3869278 L292.502687,91.3869278 L292.502687,94.2743392 L282.770149,94.2743392 L282.770149,79.092144 Z M298.952239,86.0778166 L300.721791,86.0778166 C301.622094,86.0778166 302.308953,85.887653 302.782388,85.50732 C303.255823,85.126987 303.492537,84.5642579 303.492537,83.8191158 C303.492537,83.0739736 303.255823,82.5539343 302.782388,82.2589822 C302.308953,81.9640301 301.622094,81.8165563 300.721791,81.8165563 L298.952239,81.8165563 L298.952239,86.0778166 Z M303.748657,94.2743392 L300.838209,88.8022289 L298.952239,88.8022289 L298.952239,94.2743392 L295.529552,94.2743392 L295.529552,79.092144 L301.001194,79.092144 C301.808362,79.092144 302.565071,79.1697618 303.271343,79.3249997 C303.977615,79.4802377 304.594624,79.7402573 305.122388,80.1050665 C305.650152,80.4698757 306.069252,80.954987 306.379701,81.560415 C306.690151,82.165843 306.845373,82.9187357 306.845373,83.8191158 C306.845373,84.936829 306.600898,85.8566 306.11194,86.5784565 C305.622983,87.3003129 304.967168,87.8397567 304.144478,88.196804 L307.590448,94.2743392 L303.748657,94.2743392 Z M307.916418,79.092144 L311.548657,79.092144 L313.364776,86.1709589 C313.597613,87.0092438 313.803283,87.8203499 313.981791,88.6043016 C314.160299,89.3882532 314.365969,90.1993593 314.598806,91.0376442 L314.69194,91.0376442 C314.909255,90.1993593 315.111044,89.3882532 315.297313,88.6043016 C315.483583,87.8203499 315.685372,87.0092438 315.902687,86.1709589 L317.695522,79.092144 L321.18806,79.092144 L316.624478,94.2743392 L312.503284,94.2743392 L307.916418,79.092144 Z M322.81791,79.092144 L326.240597,79.092144 L326.240597,94.2743392 L322.81791,94.2743392 L322.81791,79.092144 Z M329.104478,86.7763839 C329.104478,85.5189565 329.298506,84.3973792 329.686567,83.4116182 C330.074629,82.4258573 330.598504,81.5914658 331.258209,80.9084189 C331.917914,80.2253719 332.686264,79.7053326 333.563284,79.3482853 C334.440303,78.991238 335.367756,78.8127171 336.345672,78.8127171 C337.292542,78.8127171 338.150145,79.0106425 338.918507,79.4064992 C339.68687,79.802356 340.327162,80.264182 340.839403,80.791991 L338.953433,82.9109783 C338.565371,82.5539311 338.173435,82.274507 337.777612,82.0726976 C337.381789,81.8708883 336.920003,81.7699851 336.392239,81.7699851 C335.864475,81.7699851 335.371644,81.882531 334.913731,82.107626 C334.455819,82.332721 334.056121,82.6548349 333.714627,83.0739774 C333.373133,83.4931198 333.105374,84.0053974 332.911343,84.6108254 C332.717312,85.2162533 332.620299,85.8992901 332.620299,86.659956 C332.620299,88.2278593 332.954027,89.442578 333.621493,90.3041486 C334.288959,91.1657192 335.181487,91.596498 336.299104,91.596498 C336.920003,91.596498 337.463281,91.4723095 337.928955,91.2239288 C338.394629,90.9755481 338.813729,90.6495533 339.186269,90.2459346 L341.072239,92.3183508 C340.435818,93.063493 339.710153,93.6223412 338.895224,93.9949123 C338.080294,94.3674834 337.199408,94.5537661 336.252537,94.5537661 C335.274622,94.5537661 334.351049,94.3868878 333.481791,94.0531262 C332.612533,93.7193646 331.851944,93.2264916 331.2,92.5744922 C330.548056,91.9224928 330.035823,91.1113867 329.663284,90.1411495 C329.290744,89.1709124 329.104478,88.049335 329.104478,86.7763839 Z M343.377313,79.092144 L352.877015,79.092144 L352.877015,81.9795553 L346.8,81.9795553 L346.8,85.0299657 L351.968955,85.0299657 L351.968955,87.8940915 L346.8,87.8940915 L346.8,91.3869278 L353.109851,91.3869278 L353.109851,94.2743392 L343.377313,94.2743392 L343.377313,79.092144 Z M357.114627,90.0130789 C357.657913,90.4787927 358.2594,90.85912 358.919104,91.1540721 C359.578809,91.4490242 360.226862,91.596498 360.863284,91.596498 C361.577317,91.596498 362.108953,91.4645477 362.458209,91.2006432 C362.807464,90.9367387 362.98209,90.5796968 362.98209,90.1295068 C362.98209,89.8966498 362.931642,89.6948435 362.830746,89.5240818 C362.72985,89.35332 362.582389,89.2019653 362.388358,89.0700131 C362.194327,88.9380608 361.961494,88.8138723 361.689851,88.6974439 L360.793433,88.3132319 L358.814328,87.4749511 C358.426267,87.3197132 358.049853,87.1179069 357.685075,86.8695262 C357.320297,86.6211455 356.99433,86.3300787 356.707164,85.9963171 C356.419999,85.6625555 356.191046,85.2744665 356.020299,84.8320383 C355.849551,84.3896102 355.764179,83.8889753 355.764179,83.3301187 C355.764179,82.7091669 355.896118,82.1231525 356.16,81.5720578 C356.423882,81.020963 356.796416,80.5397326 357.277612,80.1283521 C357.758808,79.7169715 358.32925,79.3948576 358.988955,79.1620007 C359.64866,78.9291438 360.374324,78.8127171 361.16597,78.8127171 C362.050751,78.8127171 362.923876,78.9834762 363.785373,79.3249997 C364.64687,79.6665232 365.403579,80.1632772 366.055522,80.8152766 L364.309254,82.9808351 C363.812535,82.5927402 363.315823,82.2939116 362.819104,82.0843404 C362.322386,81.8747692 361.771346,81.7699851 361.16597,81.7699851 C360.576116,81.7699851 360.106569,81.8902928 359.757313,82.1309116 C359.408058,82.3715304 359.233433,82.7091679 359.233433,83.1438341 C359.233433,83.376691 359.291641,83.5746164 359.40806,83.7376163 C359.524478,83.9006161 359.687462,84.04809 359.897015,84.1800422 C360.106568,84.3119945 360.351043,84.436183 360.630448,84.5526114 C360.909852,84.6690399 361.212536,84.7971093 361.538507,84.9368234 L363.494328,85.728533 C364.425676,86.1011041 365.159102,86.6133816 365.694627,87.265381 C366.230152,87.9173803 366.49791,88.778938 366.49791,89.8500798 C366.49791,90.4865554 366.369852,91.0880934 366.113731,91.6547119 C365.857611,92.2213304 365.485077,92.7180844 364.996119,93.1449888 C364.507162,93.5718931 363.905675,93.9134115 363.191642,94.1695541 C362.477608,94.4256967 361.670452,94.5537661 360.770149,94.5537661 C359.776711,94.5537661 358.787169,94.3713642 357.801493,94.0065551 C356.815816,93.6417459 355.934929,93.0945403 355.158806,92.364922 L357.114627,90.0130789 Z" id="OUR-SERVICES" fill="#79797B"></path>
            <g id="icon" transform="translate(411.940299, 253.454533)">
                <rect id="Rectangle-2" stroke="#979797" x="0.5" y="16.2346073" width="29.4337687" height="4.2448691"></rect>
                <rect id="Rectangle-2" fill="#D8D8D8" x="1.0494403" y="16.7835811" width="18.8899254" height="3.14692146"></rect>
                <rect id="Rectangle-2" stroke="#979797" x="0.5" y="8.89179056" width="29.4337687" height="4.2448691"></rect>
                <rect id="Rectangle-2" fill="#D8D8D8" x="1.0494403" y="9.44076438" width="15.7416045" height="3.14692146"></rect>
                <rect id="Rectangle-2" stroke="#979797" x="0.5" y="0.5" width="29.4337687" height="4.2448691"></rect>
                <rect id="Rectangle-2" fill="#D8D8D8" x="1.0494403" y="1.04897382" width="24.1371269" height="3.14692146"></rect>
            </g>
            <g id="icon" transform="translate(33.134328, 251.663335)" stroke="#979797" stroke-linecap="square">
                <path d="M5.99680171,11.3618155 L5.99680171,18.0183728" id="Line" stroke-width="3"></path>
                <path d="M10.7942431,6.57783614 L10.7942431,18.0183728" id="Line" stroke-width="3"></path>
                <path d="M15.5916844,8.39179056 L15.5916844,18.0183728" id="Line" stroke-width="3"></path>
                <path d="M20.3891258,4.79530889 L20.3891258,18.0183728" id="Line" stroke-width="3"></path>
                <path d="M1.79904051,0.599413611 L1.79904051,22.311098" id="Line"></path>
                <path d="M24.1200603,22.7777172 L1.79098641,22.7777172" id="Line"></path>
            </g>
            <path d="M73.2062687,222.025276 L74.0928358,222.025276 C74.5065692,222.025276 74.823581,221.940642 75.0438806,221.771373 C75.2641802,221.602104 75.3743284,221.345518 75.3743284,221.001606 C75.3743284,220.65232 75.2641802,220.407824 75.0438806,220.26811 C74.823581,220.128396 74.5065692,220.05854 74.0928358,220.05854 L73.2062687,220.05854 L73.2062687,222.025276 Z M75.438806,224.806111 L74.1653731,222.573382 L73.2062687,222.573382 L73.2062687,224.806111 L72.5373134,224.806111 L72.5373134,219.518494 L74.1895522,219.518494 C74.4582103,219.518494 74.7067153,219.544018 74.9350746,219.595068 C75.163434,219.646117 75.3595514,219.73075 75.5234328,219.84897 C75.6873143,219.96719 75.8149249,220.120335 75.9062687,220.308412 C75.9976124,220.496489 76.0432836,220.727551 76.0432836,221.001606 C76.0432836,221.415375 75.935822,221.745847 75.7208955,221.993034 C75.5059691,222.240221 75.2185093,222.409487 74.8585075,222.500839 L76.1964179,224.806111 L75.438806,224.806111 Z M77.22,219.518494 L80.2665672,219.518494 L80.2665672,220.082721 L77.8889552,220.082721 L77.8889552,221.743162 L79.8958209,221.743162 L79.8958209,222.31545 L77.8889552,222.31545 L77.8889552,224.233823 L80.3471642,224.233823 L80.3471642,224.806111 L77.22,224.806111 L77.22,219.518494 Z M83.7161194,222.653986 L83.4662687,221.847947 C83.3695518,221.552398 83.2782094,221.258196 83.1922388,220.965334 C83.1062682,220.672472 83.0202989,220.372897 82.9343284,220.0666 L82.9020896,220.0666 C82.8214921,220.372897 82.7382094,220.672472 82.6522388,220.965334 C82.5662682,221.258196 82.4749259,221.552398 82.378209,221.847947 L82.1283582,222.653986 L83.7161194,222.653986 Z M83.8853731,223.194032 L81.9591045,223.194032 L81.4513433,224.806111 L80.7662687,224.806111 L82.5555224,219.518494 L83.3131343,219.518494 L85.1023881,224.806111 L84.3850746,224.806111 L83.8853731,223.194032 Z M85.8519403,219.518494 L87.1737313,219.518494 C87.9904518,219.518494 88.6110427,219.744182 89.0355224,220.195567 C89.4600021,220.646951 89.6722388,221.294462 89.6722388,222.138121 C89.6722388,222.557263 89.618508,222.932068 89.5110448,223.262546 C89.4035816,223.593023 89.2450757,223.872447 89.0355224,224.100826 C88.8259691,224.329205 88.5680612,224.503845 88.261791,224.624752 C87.9555209,224.745658 87.6035841,224.806111 87.2059701,224.806111 L85.8519403,224.806111 L85.8519403,219.518494 Z M87.1253731,224.258004 C87.7432867,224.258004 88.2067149,224.072617 88.5156716,223.701837 C88.8246284,223.331057 88.9791045,222.809824 88.9791045,222.138121 C88.9791045,221.466418 88.8246284,220.953245 88.5156716,220.598586 C88.2067149,220.243927 87.7432867,220.0666 87.1253731,220.0666 L86.5208955,220.0666 L86.5208955,224.258004 L87.1253731,224.258004 Z M92.4367164,219.518494 L93.2265672,219.518494 L94.2501493,222.355752 L94.6370149,223.435844 L94.6692537,223.435844 L95.04,222.355752 L96.0555224,219.518494 L96.8453731,219.518494 L96.8453731,224.806111 L96.2086567,224.806111 L96.2086567,221.896309 C96.2086567,221.65987 96.2180596,221.399253 96.2368657,221.114451 C96.2556717,220.829649 96.2758208,220.569033 96.2973134,220.332593 L96.2650746,220.332593 L95.8379104,221.50941 L94.8223881,224.274125 L94.4435821,224.274125 L93.42,221.50941 L93.0008955,220.332593 L92.9686567,220.332593 C92.9847762,220.569033 93.003582,220.829649 93.0250746,221.114451 C93.0465673,221.399253 93.0573134,221.65987 93.0573134,221.896309 L93.0573134,224.806111 L92.4367164,224.806111 L92.4367164,219.518494 Z M100.246567,224.902835 C99.9134312,224.902835 99.6085088,224.838353 99.331791,224.709386 C99.0550732,224.580419 98.8173144,224.396375 98.6185075,224.157249 C98.4197005,223.918123 98.2652244,223.627952 98.1550746,223.286727 C98.0449248,222.945502 97.9898507,222.562637 97.9898507,222.138121 C97.9898507,221.713605 98.0449248,221.333427 98.1550746,220.997576 C98.2652244,220.661724 98.4197005,220.376927 98.6185075,220.143174 C98.8173144,219.909422 99.0550732,219.730751 99.331791,219.607158 C99.6085088,219.483565 99.9134312,219.421769 100.246567,219.421769 C100.579703,219.421769 100.884625,219.484908 101.161343,219.611188 C101.438061,219.737468 101.677163,219.917482 101.878657,220.151235 C102.08015,220.384987 102.23597,220.669785 102.346119,221.005636 C102.456269,221.341487 102.511343,221.718979 102.511343,222.138121 C102.511343,222.562637 102.456269,222.945502 102.346119,223.286727 C102.23597,223.627952 102.08015,223.918123 101.878657,224.157249 C101.677163,224.396375 101.438061,224.580419 101.161343,224.709386 C100.884625,224.838353 100.579703,224.902835 100.246567,224.902835 Z M100.246567,224.314427 C100.482986,224.314427 100.696566,224.263378 100.887313,224.161279 C101.078061,224.05918 101.24194,223.912752 101.378955,223.721988 C101.515971,223.531224 101.622089,223.302849 101.697313,223.036855 C101.772538,222.77086 101.810149,222.471286 101.810149,222.138121 C101.810149,221.81033 101.772538,221.514785 101.697313,221.251478 C101.622089,220.988171 101.515971,220.765169 101.378955,220.582465 C101.24194,220.399762 101.078061,220.258707 100.887313,220.159295 C100.696566,220.059883 100.482986,220.010178 100.246567,220.010178 C100.010148,220.010178 99.7965681,220.059883 99.6058209,220.159295 C99.4150737,220.258707 99.2511947,220.399762 99.1141791,220.582465 C98.9771635,220.765169 98.8710452,220.988171 98.7958209,221.251478 C98.7205966,221.514785 98.6829851,221.81033 98.6829851,222.138121 C98.6829851,222.471286 98.7205966,222.77086 98.7958209,223.036855 C98.8710452,223.302849 98.9771635,223.531224 99.1141791,223.721988 C99.2511947,223.912752 99.4150737,224.05918 99.6058209,224.161279 C99.7965681,224.263378 100.010148,224.314427 100.246567,224.314427 Z M104.316716,222.025276 L105.203284,222.025276 C105.617017,222.025276 105.934029,221.940642 106.154328,221.771373 C106.374628,221.602104 106.484776,221.345518 106.484776,221.001606 C106.484776,220.65232 106.374628,220.407824 106.154328,220.26811 C105.934029,220.128396 105.617017,220.05854 105.203284,220.05854 L104.316716,220.05854 L104.316716,222.025276 Z M106.549254,224.806111 L105.275821,222.573382 L104.316716,222.573382 L104.316716,224.806111 L103.647761,224.806111 L103.647761,219.518494 L105.3,219.518494 C105.568658,219.518494 105.817163,219.544018 106.045522,219.595068 C106.273882,219.646117 106.469999,219.73075 106.633881,219.84897 C106.797762,219.96719 106.925373,220.120335 107.016716,220.308412 C107.10806,220.496489 107.153731,220.727551 107.153731,221.001606 C107.153731,221.415375 107.04627,221.745847 106.831343,221.993034 C106.616417,222.240221 106.328957,222.409487 105.968955,222.500839 L107.306866,224.806111 L106.549254,224.806111 Z M108.330448,219.518494 L111.377015,219.518494 L111.377015,220.082721 L108.999403,220.082721 L108.999403,221.743162 L111.006269,221.743162 L111.006269,222.31545 L108.999403,222.31545 L108.999403,224.233823 L111.457612,224.233823 L111.457612,224.806111 L108.330448,224.806111 L108.330448,219.518494 Z" id="READ-MORE" fill="#4990E2"></path>
            <path d="M461.862985,222.025276 L462.749552,222.025276 C463.163286,222.025276 463.480297,221.940642 463.700597,221.771373 C463.920897,221.602104 464.031045,221.345518 464.031045,221.001606 C464.031045,220.65232 463.920897,220.407824 463.700597,220.26811 C463.480297,220.128396 463.163286,220.05854 462.749552,220.05854 L461.862985,220.05854 L461.862985,222.025276 Z M464.095522,224.806111 L462.82209,222.573382 L461.862985,222.573382 L461.862985,224.806111 L461.19403,224.806111 L461.19403,219.518494 L462.846269,219.518494 C463.114927,219.518494 463.363432,219.544018 463.591791,219.595068 C463.82015,219.646117 464.016268,219.73075 464.180149,219.84897 C464.344031,219.96719 464.471641,220.120335 464.562985,220.308412 C464.654329,220.496489 464.7,220.727551 464.7,221.001606 C464.7,221.415375 464.592538,221.745847 464.377612,221.993034 C464.162685,222.240221 463.875226,222.409487 463.515224,222.500839 L464.853134,224.806111 L464.095522,224.806111 Z M465.876716,219.518494 L468.923284,219.518494 L468.923284,220.082721 L466.545672,220.082721 L466.545672,221.743162 L468.552537,221.743162 L468.552537,222.31545 L466.545672,222.31545 L466.545672,224.233823 L469.003881,224.233823 L469.003881,224.806111 L465.876716,224.806111 L465.876716,219.518494 Z M472.372836,222.653986 L472.122985,221.847947 C472.026268,221.552398 471.934926,221.258196 471.848955,220.965334 C471.762985,220.672472 471.677015,220.372897 471.591045,220.0666 L471.558806,220.0666 C471.478209,220.372897 471.394926,220.672472 471.308955,220.965334 C471.222985,221.258196 471.131642,221.552398 471.034925,221.847947 L470.785075,222.653986 L472.372836,222.653986 Z M472.54209,223.194032 L470.615821,223.194032 L470.10806,224.806111 L469.422985,224.806111 L471.212239,219.518494 L471.969851,219.518494 L473.759104,224.806111 L473.041791,224.806111 L472.54209,223.194032 Z M474.508657,219.518494 L475.830448,219.518494 C476.647168,219.518494 477.267759,219.744182 477.692239,220.195567 C478.116719,220.646951 478.328955,221.294462 478.328955,222.138121 C478.328955,222.557263 478.275224,222.932068 478.167761,223.262546 C478.060298,223.593023 477.901792,223.872447 477.692239,224.100826 C477.482686,224.329205 477.224778,224.503845 476.918507,224.624752 C476.612237,224.745658 476.2603,224.806111 475.862687,224.806111 L474.508657,224.806111 L474.508657,219.518494 Z M475.78209,224.258004 C476.400003,224.258004 476.863431,224.072617 477.172388,223.701837 C477.481345,223.331057 477.635821,222.809824 477.635821,222.138121 C477.635821,221.466418 477.481345,220.953245 477.172388,220.598586 C476.863431,220.243927 476.400003,220.0666 475.78209,220.0666 L475.177612,220.0666 L475.177612,224.258004 L475.78209,224.258004 Z M481.093433,219.518494 L481.883284,219.518494 L482.906866,222.355752 L483.293731,223.435844 L483.32597,223.435844 L483.696716,222.355752 L484.712239,219.518494 L485.50209,219.518494 L485.50209,224.806111 L484.865373,224.806111 L484.865373,221.896309 C484.865373,221.65987 484.874776,221.399253 484.893582,221.114451 C484.912388,220.829649 484.932537,220.569033 484.95403,220.332593 L484.921791,220.332593 L484.494627,221.50941 L483.479104,224.274125 L483.100299,224.274125 L482.076716,221.50941 L481.657612,220.332593 L481.625373,220.332593 C481.641493,220.569033 481.660298,220.829649 481.681791,221.114451 C481.703284,221.399253 481.71403,221.65987 481.71403,221.896309 L481.71403,224.806111 L481.093433,224.806111 L481.093433,219.518494 Z M488.903284,224.902835 C488.570148,224.902835 488.265225,224.838353 487.988507,224.709386 C487.71179,224.580419 487.474031,224.396375 487.275224,224.157249 C487.076417,223.918123 486.921941,223.627952 486.811791,223.286727 C486.701641,222.945502 486.646567,222.562637 486.646567,222.138121 C486.646567,221.713605 486.701641,221.333427 486.811791,220.997576 C486.921941,220.661724 487.076417,220.376927 487.275224,220.143174 C487.474031,219.909422 487.71179,219.730751 487.988507,219.607158 C488.265225,219.483565 488.570148,219.421769 488.903284,219.421769 C489.23642,219.421769 489.541342,219.484908 489.81806,219.611188 C490.094778,219.737468 490.33388,219.917482 490.535373,220.151235 C490.736867,220.384987 490.892686,220.669785 491.002836,221.005636 C491.112986,221.341487 491.16806,221.718979 491.16806,222.138121 C491.16806,222.562637 491.112986,222.945502 491.002836,223.286727 C490.892686,223.627952 490.736867,223.918123 490.535373,224.157249 C490.33388,224.396375 490.094778,224.580419 489.81806,224.709386 C489.541342,224.838353 489.23642,224.902835 488.903284,224.902835 Z M488.903284,224.314427 C489.139703,224.314427 489.353283,224.263378 489.54403,224.161279 C489.734777,224.05918 489.898656,223.912752 490.035672,223.721988 C490.172687,223.531224 490.278806,223.302849 490.35403,223.036855 C490.429254,222.77086 490.466866,222.471286 490.466866,222.138121 C490.466866,221.81033 490.429254,221.514785 490.35403,221.251478 C490.278806,220.988171 490.172687,220.765169 490.035672,220.582465 C489.898656,220.399762 489.734777,220.258707 489.54403,220.159295 C489.353283,220.059883 489.139703,220.010178 488.903284,220.010178 C488.666864,220.010178 488.453285,220.059883 488.262537,220.159295 C488.07179,220.258707 487.907911,220.399762 487.770896,220.582465 C487.63388,220.765169 487.527762,220.988171 487.452537,221.251478 C487.377313,221.514785 487.339701,221.81033 487.339701,222.138121 C487.339701,222.471286 487.377313,222.77086 487.452537,223.036855 C487.527762,223.302849 487.63388,223.531224 487.770896,223.721988 C487.907911,223.912752 488.07179,224.05918 488.262537,224.161279 C488.453285,224.263378 488.666864,224.314427 488.903284,224.314427 Z M492.973433,222.025276 L493.86,222.025276 C494.273733,222.025276 494.590745,221.940642 494.811045,221.771373 C495.031344,221.602104 495.141493,221.345518 495.141493,221.001606 C495.141493,220.65232 495.031344,220.407824 494.811045,220.26811 C494.590745,220.128396 494.273733,220.05854 493.86,220.05854 L492.973433,220.05854 L492.973433,222.025276 Z M495.20597,224.806111 L493.932537,222.573382 L492.973433,222.573382 L492.973433,224.806111 L492.304478,224.806111 L492.304478,219.518494 L493.956716,219.518494 C494.225374,219.518494 494.473879,219.544018 494.702239,219.595068 C494.930598,219.646117 495.126716,219.73075 495.290597,219.84897 C495.454478,219.96719 495.582089,220.120335 495.673433,220.308412 C495.764777,220.496489 495.810448,220.727551 495.810448,221.001606 C495.810448,221.415375 495.702986,221.745847 495.48806,221.993034 C495.273133,222.240221 494.985673,222.409487 494.625672,222.500839 L495.963582,224.806111 L495.20597,224.806111 Z M496.987164,219.518494 L500.033731,219.518494 L500.033731,220.082721 L497.656119,220.082721 L497.656119,221.743162 L499.662985,221.743162 L499.662985,222.31545 L497.656119,222.31545 L497.656119,224.233823 L500.114328,224.233823 L500.114328,224.806111 L496.987164,224.806111 L496.987164,219.518494 Z" id="READ-MORE" fill="#4990E2"></path>
            <path d="M73.2062687,329.497162 L74.0928358,329.497162 C74.5065692,329.497162 74.823581,329.412529 75.0438806,329.24326 C75.2641802,329.073991 75.3743284,328.817404 75.3743284,328.473493 C75.3743284,328.124207 75.2641802,327.879711 75.0438806,327.739997 C74.823581,327.600283 74.5065692,327.530427 74.0928358,327.530427 L73.2062687,327.530427 L73.2062687,329.497162 Z M75.438806,332.277998 L74.1653731,330.045269 L73.2062687,330.045269 L73.2062687,332.277998 L72.5373134,332.277998 L72.5373134,326.990381 L74.1895522,326.990381 C74.4582103,326.990381 74.7067153,327.015905 74.9350746,327.066954 C75.163434,327.118004 75.3595514,327.202637 75.5234328,327.320857 C75.6873143,327.439076 75.8149249,327.592222 75.9062687,327.780299 C75.9976124,327.968376 76.0432836,328.199438 76.0432836,328.473493 C76.0432836,328.887262 75.935822,329.217734 75.7208955,329.464921 C75.5059691,329.712107 75.2185093,329.881374 74.8585075,329.972726 L76.1964179,332.277998 L75.438806,332.277998 Z M77.22,326.990381 L80.2665672,326.990381 L80.2665672,327.554608 L77.8889552,327.554608 L77.8889552,329.215049 L79.8958209,329.215049 L79.8958209,329.787337 L77.8889552,329.787337 L77.8889552,331.70571 L80.3471642,331.70571 L80.3471642,332.277998 L77.22,332.277998 L77.22,326.990381 Z M83.7161194,330.125873 L83.4662687,329.319834 C83.3695518,329.024285 83.2782094,328.730083 83.1922388,328.437221 C83.1062682,328.144359 83.0202989,327.844784 82.9343284,327.538487 L82.9020896,327.538487 C82.8214921,327.844784 82.7382094,328.144359 82.6522388,328.437221 C82.5662682,328.730083 82.4749259,329.024285 82.378209,329.319834 L82.1283582,330.125873 L83.7161194,330.125873 Z M83.8853731,330.665919 L81.9591045,330.665919 L81.4513433,332.277998 L80.7662687,332.277998 L82.5555224,326.990381 L83.3131343,326.990381 L85.1023881,332.277998 L84.3850746,332.277998 L83.8853731,330.665919 Z M85.8519403,326.990381 L87.1737313,326.990381 C87.9904518,326.990381 88.6110427,327.216069 89.0355224,327.667454 C89.4600021,328.118838 89.6722388,328.766349 89.6722388,329.610008 C89.6722388,330.02915 89.618508,330.403955 89.5110448,330.734433 C89.4035816,331.06491 89.2450757,331.344334 89.0355224,331.572713 C88.8259691,331.801092 88.5680612,331.975732 88.261791,332.096639 C87.9555209,332.217545 87.6035841,332.277998 87.2059701,332.277998 L85.8519403,332.277998 L85.8519403,326.990381 Z M87.1253731,331.729891 C87.7432867,331.729891 88.2067149,331.544504 88.5156716,331.173724 C88.8246284,330.802944 88.9791045,330.281711 88.9791045,329.610008 C88.9791045,328.938305 88.8246284,328.425132 88.5156716,328.070473 C88.2067149,327.715814 87.7432867,327.538487 87.1253731,327.538487 L86.5208955,327.538487 L86.5208955,331.729891 L87.1253731,331.729891 Z M92.4367164,326.990381 L93.2265672,326.990381 L94.2501493,329.827638 L94.6370149,330.907731 L94.6692537,330.907731 L95.04,329.827638 L96.0555224,326.990381 L96.8453731,326.990381 L96.8453731,332.277998 L96.2086567,332.277998 L96.2086567,329.368196 C96.2086567,329.131757 96.2180596,328.87114 96.2368657,328.586338 C96.2556717,328.301536 96.2758208,328.04092 96.2973134,327.80448 L96.2650746,327.80448 L95.8379104,328.981297 L94.8223881,331.746012 L94.4435821,331.746012 L93.42,328.981297 L93.0008955,327.80448 L92.9686567,327.80448 C92.9847762,328.04092 93.003582,328.301536 93.0250746,328.586338 C93.0465673,328.87114 93.0573134,329.131757 93.0573134,329.368196 L93.0573134,332.277998 L92.4367164,332.277998 L92.4367164,326.990381 Z M100.246567,332.374722 C99.9134312,332.374722 99.6085088,332.31024 99.331791,332.181273 C99.0550732,332.052306 98.8173144,331.868262 98.6185075,331.629136 C98.4197005,331.39001 98.2652244,331.099839 98.1550746,330.758614 C98.0449248,330.417389 97.9898507,330.034524 97.9898507,329.610008 C97.9898507,329.185492 98.0449248,328.805314 98.1550746,328.469463 C98.2652244,328.133611 98.4197005,327.848814 98.6185075,327.615061 C98.8173144,327.381309 99.0550732,327.202638 99.331791,327.079045 C99.6085088,326.955452 99.9134312,326.893656 100.246567,326.893656 C100.579703,326.893656 100.884625,326.956795 101.161343,327.083075 C101.438061,327.209355 101.677163,327.389369 101.878657,327.623121 C102.08015,327.856874 102.23597,328.141672 102.346119,328.477523 C102.456269,328.813374 102.511343,329.190865 102.511343,329.610008 C102.511343,330.034524 102.456269,330.417389 102.346119,330.758614 C102.23597,331.099839 102.08015,331.39001 101.878657,331.629136 C101.677163,331.868262 101.438061,332.052306 101.161343,332.181273 C100.884625,332.31024 100.579703,332.374722 100.246567,332.374722 Z M100.246567,331.786314 C100.482986,331.786314 100.696566,331.735265 100.887313,331.633166 C101.078061,331.531067 101.24194,331.384638 101.378955,331.193875 C101.515971,331.003111 101.622089,330.774736 101.697313,330.508742 C101.772538,330.242747 101.810149,329.943172 101.810149,329.610008 C101.810149,329.282217 101.772538,328.986672 101.697313,328.723365 C101.622089,328.460057 101.515971,328.237055 101.378955,328.054352 C101.24194,327.871649 101.078061,327.730594 100.887313,327.631182 C100.696566,327.53177 100.482986,327.482065 100.246567,327.482065 C100.010148,327.482065 99.7965681,327.53177 99.6058209,327.631182 C99.4150737,327.730594 99.2511947,327.871649 99.1141791,328.054352 C98.9771635,328.237055 98.8710452,328.460057 98.7958209,328.723365 C98.7205966,328.986672 98.6829851,329.282217 98.6829851,329.610008 C98.6829851,329.943172 98.7205966,330.242747 98.7958209,330.508742 C98.8710452,330.774736 98.9771635,331.003111 99.1141791,331.193875 C99.2511947,331.384638 99.4150737,331.531067 99.6058209,331.633166 C99.7965681,331.735265 100.010148,331.786314 100.246567,331.786314 Z M104.316716,329.497162 L105.203284,329.497162 C105.617017,329.497162 105.934029,329.412529 106.154328,329.24326 C106.374628,329.073991 106.484776,328.817404 106.484776,328.473493 C106.484776,328.124207 106.374628,327.879711 106.154328,327.739997 C105.934029,327.600283 105.617017,327.530427 105.203284,327.530427 L104.316716,327.530427 L104.316716,329.497162 Z M106.549254,332.277998 L105.275821,330.045269 L104.316716,330.045269 L104.316716,332.277998 L103.647761,332.277998 L103.647761,326.990381 L105.3,326.990381 C105.568658,326.990381 105.817163,327.015905 106.045522,327.066954 C106.273882,327.118004 106.469999,327.202637 106.633881,327.320857 C106.797762,327.439076 106.925373,327.592222 107.016716,327.780299 C107.10806,327.968376 107.153731,328.199438 107.153731,328.473493 C107.153731,328.887262 107.04627,329.217734 106.831343,329.464921 C106.616417,329.712107 106.328957,329.881374 105.968955,329.972726 L107.306866,332.277998 L106.549254,332.277998 Z M108.330448,326.990381 L111.377015,326.990381 L111.377015,327.554608 L108.999403,327.554608 L108.999403,329.215049 L111.006269,329.215049 L111.006269,329.787337 L108.999403,329.787337 L108.999403,331.70571 L111.457612,331.70571 L111.457612,332.277998 L108.330448,332.277998 L108.330448,326.990381 Z" id="READ-MORE" fill="#4990E2"></path>
            <g id="Group-8" transform="translate(218.507463, 146.878245)">
                <polygon id="Path-2" stroke="#979797" points="21.5870044 0.749398045 28.4275962 9.66571154 14.9067833 24.6313582 0.500856413 9.7797525 8.00516543 0.680410304"></polygon>
                <polyline id="Path-3" stroke="#979797" points="8.17688983 0.878926048 8.17688983 10.1833239 21.7867642 10.1833239 21.7867642 1.01346459"></polyline>
                <polygon id="Path-4" stroke="#979797" points="14.5709036 1.62277346 8.00185394 9.72296668 14.9938282 24.661863 22.1878033 10.116713"></polygon>
                <path d="M1.35982022,10.0006399 L26.7371947,10.0006399" id="Line" stroke="#979797" stroke-linecap="square"></path>
                <path d="M46.0564366,12.1261921 L100.627332,12.1261921" id="Line" stroke="#979797" stroke-width="7" stroke-linecap="square"></path>
                <path d="M46.0564366,31.5322078 L149.951026,31.5322078" id="Line" stroke="#D7D9D9" stroke-width="4" stroke-linecap="square"></path>
                <path d="M46.0564366,43.0709198 L149.951026,43.0709198" id="Line" stroke="#D7D9D9" stroke-width="4" stroke-linecap="square"></path>
                <path d="M46.0564366,54.6096318 L124.482978,54.6096318" id="Line" stroke="#D7D9D9" stroke-width="4" stroke-linecap="square"></path>
                <path d="M46.0564366,119.121522 L100.627332,119.121522" id="Line" stroke="#979797" stroke-width="7" stroke-linecap="square"></path>
                <path d="M46.0564366,138.527537 L149.951026,138.527537" id="Line" stroke="#D7D9D9" stroke-width="4" stroke-linecap="square"></path>
                <path d="M46.0564366,150.066249 L149.951026,150.066249" id="Line" stroke="#D7D9D9" stroke-width="4" stroke-linecap="square"></path>
                <path d="M46.0564366,161.604961 L120.013138,161.604961" id="Line" stroke="#D7D9D9" stroke-width="4" stroke-linecap="square"></path>
                <polygon id="Path-5" stroke="#979797" points="2.48849685 111.89836 2.48849685 130.196099 11.1925666 126.1784 19.108616 129.998058 27.1624619 126.220091 27.1624619 107.444649 19.8136999 111.463586 11.6910907 108.031056"></polygon>
                <path d="M19.8204291,111.778705 L19.8204291,129.642085" id="Line" stroke="#979797" stroke-linecap="square"></path>
                <path d="M11.4249067,108.631784 L11.4249067,126.464338" id="Line" stroke="#979797" stroke-linecap="square"></path>
                <path d="M46.340597,75.1470301 L47.2271642,75.1470301 C47.6408976,75.1470301 47.9579093,75.0623969 48.178209,74.8931278 C48.3985086,74.7238587 48.5086567,74.4672722 48.5086567,74.1233604 C48.5086567,73.774075 48.3985086,73.5295789 48.178209,73.3898648 C47.9579093,73.2501506 47.6408976,73.1802946 47.2271642,73.1802946 L46.340597,73.1802946 L46.340597,75.1470301 Z M48.5731343,77.9278652 L47.2997015,75.6951367 L46.340597,75.6951367 L46.340597,77.9278652 L45.6716418,77.9278652 L45.6716418,72.6402484 L47.3238806,72.6402484 C47.5925387,72.6402484 47.8410436,72.6657727 48.069403,72.7168221 C48.2977623,72.7678715 48.4938798,72.8525047 48.6577612,72.9707244 C48.8216426,73.0889441 48.9492533,73.24209 49.040597,73.4301667 C49.1319408,73.6182435 49.1776119,73.8493057 49.1776119,74.1233604 C49.1776119,74.5371292 49.0701503,74.867602 48.8552239,75.1147886 C48.6402974,75.3619751 48.3528376,75.5312417 47.9928358,75.6225932 L49.3307463,77.9278652 L48.5731343,77.9278652 Z M50.3543284,72.6402484 L53.4008955,72.6402484 L53.4008955,73.2044758 L51.0232836,73.2044758 L51.0232836,74.8649164 L53.0301493,74.8649164 L53.0301493,75.4372042 L51.0232836,75.4372042 L51.0232836,77.3555774 L53.4814925,77.3555774 L53.4814925,77.9278652 L50.3543284,77.9278652 L50.3543284,72.6402484 Z M56.8504478,75.7757407 L56.600597,74.9697015 C56.5038801,74.6741523 56.4125377,74.379951 56.3265672,74.0870886 C56.2405966,73.7942263 56.1546273,73.4946514 56.0686567,73.188355 L56.0364179,73.188355 C55.9558205,73.4946514 55.8725377,73.7942263 55.7865672,74.0870886 C55.7005966,74.379951 55.6092542,74.6741523 55.5125373,74.9697015 L55.2626866,75.7757407 L56.8504478,75.7757407 Z M57.0197015,76.3157869 L55.0934328,76.3157869 L54.5856716,77.9278652 L53.900597,77.9278652 L55.6898507,72.6402484 L56.4474627,72.6402484 L58.2367164,77.9278652 L57.519403,77.9278652 L57.0197015,76.3157869 Z M58.9862687,72.6402484 L60.3080597,72.6402484 C61.1247802,72.6402484 61.745371,72.8659371 62.1698507,73.3173212 C62.5943305,73.7687054 62.8065672,74.4162171 62.8065672,75.2598756 C62.8065672,75.6790181 62.7528364,76.0538225 62.6453731,76.3843002 C62.5379099,76.7147779 62.379404,76.994202 62.1698507,77.2225809 C61.9602975,77.4509598 61.7023896,77.6255999 61.3961194,77.7465064 C61.0898492,77.8674129 60.7379124,77.9278652 60.3402985,77.9278652 L58.9862687,77.9278652 L58.9862687,72.6402484 Z M60.2597015,77.3797586 C60.877615,77.3797586 61.3410432,77.1943714 61.65,76.8235916 C61.9589568,76.4528117 62.1134328,75.9315783 62.1134328,75.2598756 C62.1134328,74.5881729 61.9589568,74.0749998 61.65,73.7203408 C61.3410432,73.3656818 60.877615,73.188355 60.2597015,73.188355 L59.6552239,73.188355 L59.6552239,77.3797586 L60.2597015,77.3797586 Z M65.5710448,72.6402484 L66.3608955,72.6402484 L67.3844776,75.4775062 L67.7713433,76.5575986 L67.8035821,76.5575986 L68.1743284,75.4775062 L69.1898507,72.6402484 L69.9797015,72.6402484 L69.9797015,77.9278652 L69.3429851,77.9278652 L69.3429851,75.0180639 C69.3429851,74.7816245 69.352388,74.5210078 69.371194,74.2362059 C69.3900001,73.951404 69.4101491,73.6907872 69.4316418,73.4543479 L69.399403,73.4543479 L68.9722388,74.6311651 L67.9567164,77.3958794 L67.5779104,77.3958794 L66.5543284,74.6311651 L66.1352239,73.4543479 L66.1029851,73.4543479 C66.1191046,73.6907872 66.1379103,73.951404 66.159403,74.2362059 C66.1808956,74.5210078 66.1916418,74.7816245 66.1916418,75.0180639 L66.1916418,77.9278652 L65.5710448,77.9278652 L65.5710448,72.6402484 Z M73.3808955,78.0245899 C73.0477595,78.0245899 72.7428372,77.9601074 72.4661194,77.8311405 C72.1894016,77.7021736 71.9516428,77.5181298 71.7528358,77.2790037 C71.5540289,77.0398775 71.3995528,76.7497063 71.289403,76.4084814 C71.1792532,76.0672564 71.1241791,75.6843917 71.1241791,75.2598756 C71.1241791,74.8353595 71.1792532,74.4551815 71.289403,74.1193302 C71.3995528,73.7834789 71.5540289,73.4986812 71.7528358,73.2649287 C71.9516428,73.0311762 72.1894016,72.852506 72.4661194,72.7289127 C72.7428372,72.6053194 73.0477595,72.5435237 73.3808955,72.5435237 C73.7140315,72.5435237 74.0189538,72.6066628 74.2956716,72.7329429 C74.5723894,72.859223 74.8114915,73.0392366 75.0129851,73.2729891 C75.2144786,73.5067416 75.370298,73.7915393 75.4804478,74.1273906 C75.5905976,74.4632419 75.6456716,74.8407331 75.6456716,75.2598756 C75.6456716,75.6843917 75.5905976,76.0672564 75.4804478,76.4084814 C75.370298,76.7497063 75.2144786,77.0398775 75.0129851,77.2790037 C74.8114915,77.5181298 74.5723894,77.7021736 74.2956716,77.8311405 C74.0189538,77.9601074 73.7140315,78.0245899 73.3808955,78.0245899 Z M73.3808955,77.4361813 C73.6173146,77.4361813 73.8308946,77.3851327 74.0216418,77.2830339 C74.212389,77.1809351 74.376268,77.0345061 74.5132836,76.8437425 C74.6502992,76.652979 74.7564175,76.4246035 74.8316418,76.1586093 C74.906866,75.892615 74.9444776,75.5930401 74.9444776,75.2598756 C74.9444776,74.9320847 74.906866,74.63654 74.8316418,74.3732325 C74.7564175,74.1099251 74.6502992,73.8869232 74.5132836,73.70422 C74.376268,73.5215169 74.212389,73.3804615 74.0216418,73.2810495 C73.8308946,73.1816375 73.6173146,73.1319322 73.3808955,73.1319322 C73.1444764,73.1319322 72.9308965,73.1816375 72.7401493,73.2810495 C72.549402,73.3804615 72.3855231,73.5215169 72.2485075,73.70422 C72.1114919,73.8869232 72.0053735,74.1099251 71.9301493,74.3732325 C71.854925,74.63654 71.8173134,74.9320847 71.8173134,75.2598756 C71.8173134,75.5930401 71.854925,75.892615 71.9301493,76.1586093 C72.0053735,76.4246035 72.1114919,76.652979 72.2485075,76.8437425 C72.3855231,77.0345061 72.549402,77.1809351 72.7401493,77.2830339 C72.9308965,77.3851327 73.1444764,77.4361813 73.3808955,77.4361813 Z M77.4510448,75.1470301 L78.3376119,75.1470301 C78.7513454,75.1470301 79.0683571,75.0623969 79.2886567,74.8931278 C79.5089563,74.7238587 79.6191045,74.4672722 79.6191045,74.1233604 C79.6191045,73.774075 79.5089563,73.5295789 79.2886567,73.3898648 C79.0683571,73.2501506 78.7513454,73.1802946 78.3376119,73.1802946 L77.4510448,73.1802946 L77.4510448,75.1470301 Z M79.6835821,77.9278652 L78.4101493,75.6951367 L77.4510448,75.6951367 L77.4510448,77.9278652 L76.7820896,77.9278652 L76.7820896,72.6402484 L78.4343284,72.6402484 C78.7029864,72.6402484 78.9514914,72.6657727 79.1798507,72.7168221 C79.4082101,72.7678715 79.6043275,72.8525047 79.768209,72.9707244 C79.9320904,73.0889441 80.059701,73.24209 80.1510448,73.4301667 C80.2423885,73.6182435 80.2880597,73.8493057 80.2880597,74.1233604 C80.2880597,74.5371292 80.1805981,74.867602 79.9656716,75.1147886 C79.7507452,75.3619751 79.4632854,75.5312417 79.1032836,75.6225932 L80.441194,77.9278652 L79.6835821,77.9278652 Z M81.4647761,72.6402484 L84.5113433,72.6402484 L84.5113433,73.2044758 L82.1337313,73.2044758 L82.1337313,74.8649164 L84.140597,74.8649164 L84.140597,75.4372042 L82.1337313,75.4372042 L82.1337313,77.3555774 L84.5919403,77.3555774 L84.5919403,77.9278652 L81.4647761,77.9278652 L81.4647761,72.6402484 Z" id="READ-MORE" fill="#4990E2"></path>
                <path d="M46.340597,182.14236 L47.2271642,182.14236 C47.6408976,182.14236 47.9579093,182.057726 48.178209,181.888457 C48.3985086,181.719188 48.5086567,181.462602 48.5086567,181.11869 C48.5086567,180.769405 48.3985086,180.524909 48.178209,180.385194 C47.9579093,180.24548 47.6408976,180.175624 47.2271642,180.175624 L46.340597,180.175624 L46.340597,182.14236 Z M48.5731343,184.923195 L47.2997015,182.690466 L46.340597,182.690466 L46.340597,184.923195 L45.6716418,184.923195 L45.6716418,179.635578 L47.3238806,179.635578 C47.5925387,179.635578 47.8410436,179.661102 48.069403,179.712152 C48.2977623,179.763201 48.4938798,179.847834 48.6577612,179.966054 C48.8216426,180.084274 48.9492533,180.23742 49.040597,180.425496 C49.1319408,180.613573 49.1776119,180.844635 49.1776119,181.11869 C49.1776119,181.532459 49.0701503,181.862932 48.8552239,182.110118 C48.6402974,182.357305 48.3528376,182.526571 47.9928358,182.617923 L49.3307463,184.923195 L48.5731343,184.923195 Z M50.3543284,179.635578 L53.4008955,179.635578 L53.4008955,180.199805 L51.0232836,180.199805 L51.0232836,181.860246 L53.0301493,181.860246 L53.0301493,182.432534 L51.0232836,182.432534 L51.0232836,184.350907 L53.4814925,184.350907 L53.4814925,184.923195 L50.3543284,184.923195 L50.3543284,179.635578 Z M56.8504478,182.77107 L56.600597,181.965031 C56.5038801,181.669482 56.4125377,181.375281 56.3265672,181.082418 C56.2405966,180.789556 56.1546273,180.489981 56.0686567,180.183685 L56.0364179,180.183685 C55.9558205,180.489981 55.8725377,180.789556 55.7865672,181.082418 C55.7005966,181.375281 55.6092542,181.669482 55.5125373,181.965031 L55.2626866,182.77107 L56.8504478,182.77107 Z M57.0197015,183.311116 L55.0934328,183.311116 L54.5856716,184.923195 L53.900597,184.923195 L55.6898507,179.635578 L56.4474627,179.635578 L58.2367164,184.923195 L57.519403,184.923195 L57.0197015,183.311116 Z M58.9862687,179.635578 L60.3080597,179.635578 C61.1247802,179.635578 61.745371,179.861267 62.1698507,180.312651 C62.5943305,180.764035 62.8065672,181.411547 62.8065672,182.255205 C62.8065672,182.674348 62.7528364,183.049152 62.6453731,183.37963 C62.5379099,183.710108 62.379404,183.989532 62.1698507,184.217911 C61.9602975,184.446289 61.7023896,184.62093 61.3961194,184.741836 C61.0898492,184.862742 60.7379124,184.923195 60.3402985,184.923195 L58.9862687,184.923195 L58.9862687,179.635578 Z M60.2597015,184.375088 C60.877615,184.375088 61.3410432,184.189701 61.65,183.818921 C61.9589568,183.448141 62.1134328,182.926908 62.1134328,182.255205 C62.1134328,181.583503 61.9589568,181.070329 61.65,180.71567 C61.3410432,180.361011 60.877615,180.183685 60.2597015,180.183685 L59.6552239,180.183685 L59.6552239,184.375088 L60.2597015,184.375088 Z M65.5710448,179.635578 L66.3608955,179.635578 L67.3844776,182.472836 L67.7713433,183.552928 L67.8035821,183.552928 L68.1743284,182.472836 L69.1898507,179.635578 L69.9797015,179.635578 L69.9797015,184.923195 L69.3429851,184.923195 L69.3429851,182.013393 C69.3429851,181.776954 69.352388,181.516337 69.371194,181.231535 C69.3900001,180.946734 69.4101491,180.686117 69.4316418,180.449678 L69.399403,180.449678 L68.9722388,181.626495 L67.9567164,184.391209 L67.5779104,184.391209 L66.5543284,181.626495 L66.1352239,180.449678 L66.1029851,180.449678 C66.1191046,180.686117 66.1379103,180.946734 66.159403,181.231535 C66.1808956,181.516337 66.1916418,181.776954 66.1916418,182.013393 L66.1916418,184.923195 L65.5710448,184.923195 L65.5710448,179.635578 Z M73.3808955,185.019919 C73.0477595,185.019919 72.7428372,184.955437 72.4661194,184.82647 C72.1894016,184.697503 71.9516428,184.513459 71.7528358,184.274333 C71.5540289,184.035207 71.3995528,183.745036 71.289403,183.403811 C71.1792532,183.062586 71.1241791,182.679721 71.1241791,182.255205 C71.1241791,181.830689 71.1792532,181.450511 71.289403,181.11466 C71.3995528,180.778808 71.5540289,180.494011 71.7528358,180.260258 C71.9516428,180.026506 72.1894016,179.847836 72.4661194,179.724242 C72.7428372,179.600649 73.0477595,179.538853 73.3808955,179.538853 C73.7140315,179.538853 74.0189538,179.601992 74.2956716,179.728272 C74.5723894,179.854553 74.8114915,180.034566 75.0129851,180.268319 C75.2144786,180.502071 75.370298,180.786869 75.4804478,181.12272 C75.5905976,181.458572 75.6456716,181.836063 75.6456716,182.255205 C75.6456716,182.679721 75.5905976,183.062586 75.4804478,183.403811 C75.370298,183.745036 75.2144786,184.035207 75.0129851,184.274333 C74.8114915,184.513459 74.5723894,184.697503 74.2956716,184.82647 C74.0189538,184.955437 73.7140315,185.019919 73.3808955,185.019919 Z M73.3808955,184.431511 C73.6173146,184.431511 73.8308946,184.380462 74.0216418,184.278363 C74.212389,184.176265 74.376268,184.029836 74.5132836,183.839072 C74.6502992,183.648309 74.7564175,183.419933 74.8316418,183.153939 C74.906866,182.887945 74.9444776,182.58837 74.9444776,182.255205 C74.9444776,181.927414 74.906866,181.63187 74.8316418,181.368562 C74.7564175,181.105255 74.6502992,180.882253 74.5132836,180.69955 C74.376268,180.516847 74.212389,180.375791 74.0216418,180.276379 C73.8308946,180.176967 73.6173146,180.127262 73.3808955,180.127262 C73.1444764,180.127262 72.9308965,180.176967 72.7401493,180.276379 C72.549402,180.375791 72.3855231,180.516847 72.2485075,180.69955 C72.1114919,180.882253 72.0053735,181.105255 71.9301493,181.368562 C71.854925,181.63187 71.8173134,181.927414 71.8173134,182.255205 C71.8173134,182.58837 71.854925,182.887945 71.9301493,183.153939 C72.0053735,183.419933 72.1114919,183.648309 72.2485075,183.839072 C72.3855231,184.029836 72.549402,184.176265 72.7401493,184.278363 C72.9308965,184.380462 73.1444764,184.431511 73.3808955,184.431511 Z M77.4510448,182.14236 L78.3376119,182.14236 C78.7513454,182.14236 79.0683571,182.057726 79.2886567,181.888457 C79.5089563,181.719188 79.6191045,181.462602 79.6191045,181.11869 C79.6191045,180.769405 79.5089563,180.524909 79.2886567,180.385194 C79.0683571,180.24548 78.7513454,180.175624 78.3376119,180.175624 L77.4510448,180.175624 L77.4510448,182.14236 Z M79.6835821,184.923195 L78.4101493,182.690466 L77.4510448,182.690466 L77.4510448,184.923195 L76.7820896,184.923195 L76.7820896,179.635578 L78.4343284,179.635578 C78.7029864,179.635578 78.9514914,179.661102 79.1798507,179.712152 C79.4082101,179.763201 79.6043275,179.847834 79.768209,179.966054 C79.9320904,180.084274 80.059701,180.23742 80.1510448,180.425496 C80.2423885,180.613573 80.2880597,180.844635 80.2880597,181.11869 C80.2880597,181.532459 80.1805981,181.862932 79.9656716,182.110118 C79.7507452,182.357305 79.4632854,182.526571 79.1032836,182.617923 L80.441194,184.923195 L79.6835821,184.923195 Z M81.4647761,179.635578 L84.5113433,179.635578 L84.5113433,180.199805 L82.1337313,180.199805 L82.1337313,181.860246 L84.140597,181.860246 L84.140597,182.432534 L82.1337313,182.432534 L82.1337313,184.350907 L84.5919403,184.350907 L84.5919403,184.923195 L81.4647761,184.923195 L81.4647761,179.635578 Z" id="READ-MORE" fill="#4990E2"></path>
            </g>
            <path d="M461.862985,328.601563 L462.749552,328.601563 C463.163286,328.601563 463.480297,328.51693 463.700597,328.347661 C463.920897,328.178392 464.031045,327.921805 464.031045,327.577894 C464.031045,327.228608 463.920897,326.984112 463.700597,326.844398 C463.480297,326.704684 463.163286,326.634828 462.749552,326.634828 L461.862985,326.634828 L461.862985,328.601563 Z M464.095522,331.382398 L462.82209,329.14967 L461.862985,329.14967 L461.862985,331.382398 L461.19403,331.382398 L461.19403,326.094782 L462.846269,326.094782 C463.114927,326.094782 463.363432,326.120306 463.591791,326.171355 C463.82015,326.222405 464.016268,326.307038 464.180149,326.425258 C464.344031,326.543477 464.471641,326.696623 464.562985,326.8847 C464.654329,327.072777 464.7,327.303839 464.7,327.577894 C464.7,327.991663 464.592538,328.322135 464.377612,328.569322 C464.162685,328.816508 463.875226,328.985775 463.515224,329.077126 L464.853134,331.382398 L464.095522,331.382398 Z M465.876716,326.094782 L468.923284,326.094782 L468.923284,326.659009 L466.545672,326.659009 L466.545672,328.31945 L468.552537,328.31945 L468.552537,328.891737 L466.545672,328.891737 L466.545672,330.810111 L469.003881,330.810111 L469.003881,331.382398 L465.876716,331.382398 L465.876716,326.094782 Z M472.372836,329.230274 L472.122985,328.424235 C472.026268,328.128686 471.934926,327.834484 471.848955,327.541622 C471.762985,327.24876 471.677015,326.949185 471.591045,326.642888 L471.558806,326.642888 C471.478209,326.949185 471.394926,327.24876 471.308955,327.541622 C471.222985,327.834484 471.131642,328.128686 471.034925,328.424235 L470.785075,329.230274 L472.372836,329.230274 Z M472.54209,329.77032 L470.615821,329.77032 L470.10806,331.382398 L469.422985,331.382398 L471.212239,326.094782 L471.969851,326.094782 L473.759104,331.382398 L473.041791,331.382398 L472.54209,329.77032 Z M474.508657,326.094782 L475.830448,326.094782 C476.647168,326.094782 477.267759,326.32047 477.692239,326.771855 C478.116719,327.223239 478.328955,327.87075 478.328955,328.714409 C478.328955,329.133551 478.275224,329.508356 478.167761,329.838833 C478.060298,330.169311 477.901792,330.448735 477.692239,330.677114 C477.482686,330.905493 477.224778,331.080133 476.918507,331.20104 C476.612237,331.321946 476.2603,331.382398 475.862687,331.382398 L474.508657,331.382398 L474.508657,326.094782 Z M475.78209,330.834292 C476.400003,330.834292 476.863431,330.648905 477.172388,330.278125 C477.481345,329.907345 477.635821,329.386112 477.635821,328.714409 C477.635821,328.042706 477.481345,327.529533 477.172388,327.174874 C476.863431,326.820215 476.400003,326.642888 475.78209,326.642888 L475.177612,326.642888 L475.177612,330.834292 L475.78209,330.834292 Z M481.093433,326.094782 L481.883284,326.094782 L482.906866,328.932039 L483.293731,330.012132 L483.32597,330.012132 L483.696716,328.932039 L484.712239,326.094782 L485.50209,326.094782 L485.50209,331.382398 L484.865373,331.382398 L484.865373,328.472597 C484.865373,328.236158 484.874776,327.975541 484.893582,327.690739 C484.912388,327.405937 484.932537,327.145321 484.95403,326.908881 L484.921791,326.908881 L484.494627,328.085698 L483.479104,330.850413 L483.100299,330.850413 L482.076716,328.085698 L481.657612,326.908881 L481.625373,326.908881 C481.641493,327.145321 481.660298,327.405937 481.681791,327.690739 C481.703284,327.975541 481.71403,328.236158 481.71403,328.472597 L481.71403,331.382398 L481.093433,331.382398 L481.093433,326.094782 Z M488.903284,331.479123 C488.570148,331.479123 488.265225,331.414641 487.988507,331.285674 C487.71179,331.156707 487.474031,330.972663 487.275224,330.733537 C487.076417,330.494411 486.921941,330.20424 486.811791,329.863015 C486.701641,329.52179 486.646567,329.138925 486.646567,328.714409 C486.646567,328.289893 486.701641,327.909715 486.811791,327.573863 C486.921941,327.238012 487.076417,326.953214 487.275224,326.719462 C487.474031,326.485709 487.71179,326.307039 487.988507,326.183446 C488.265225,326.059853 488.570148,325.998057 488.903284,325.998057 C489.23642,325.998057 489.541342,326.061196 489.81806,326.187476 C490.094778,326.313756 490.33388,326.49377 490.535373,326.727522 C490.736867,326.961275 490.892686,327.246073 491.002836,327.581924 C491.112986,327.917775 491.16806,328.295266 491.16806,328.714409 C491.16806,329.138925 491.112986,329.52179 491.002836,329.863015 C490.892686,330.20424 490.736867,330.494411 490.535373,330.733537 C490.33388,330.972663 490.094778,331.156707 489.81806,331.285674 C489.541342,331.414641 489.23642,331.479123 488.903284,331.479123 Z M488.903284,330.890715 C489.139703,330.890715 489.353283,330.839666 489.54403,330.737567 C489.734777,330.635468 489.898656,330.489039 490.035672,330.298276 C490.172687,330.107512 490.278806,329.879137 490.35403,329.613143 C490.429254,329.347148 490.466866,329.047573 490.466866,328.714409 C490.466866,328.386618 490.429254,328.091073 490.35403,327.827766 C490.278806,327.564458 490.172687,327.341456 490.035672,327.158753 C489.898656,326.97605 489.734777,326.834995 489.54403,326.735583 C489.353283,326.636171 489.139703,326.586466 488.903284,326.586466 C488.666864,326.586466 488.453285,326.636171 488.262537,326.735583 C488.07179,326.834995 487.907911,326.97605 487.770896,327.158753 C487.63388,327.341456 487.527762,327.564458 487.452537,327.827766 C487.377313,328.091073 487.339701,328.386618 487.339701,328.714409 C487.339701,329.047573 487.377313,329.347148 487.452537,329.613143 C487.527762,329.879137 487.63388,330.107512 487.770896,330.298276 C487.907911,330.489039 488.07179,330.635468 488.262537,330.737567 C488.453285,330.839666 488.666864,330.890715 488.903284,330.890715 Z M492.973433,328.601563 L493.86,328.601563 C494.273733,328.601563 494.590745,328.51693 494.811045,328.347661 C495.031344,328.178392 495.141493,327.921805 495.141493,327.577894 C495.141493,327.228608 495.031344,326.984112 494.811045,326.844398 C494.590745,326.704684 494.273733,326.634828 493.86,326.634828 L492.973433,326.634828 L492.973433,328.601563 Z M495.20597,331.382398 L493.932537,329.14967 L492.973433,329.14967 L492.973433,331.382398 L492.304478,331.382398 L492.304478,326.094782 L493.956716,326.094782 C494.225374,326.094782 494.473879,326.120306 494.702239,326.171355 C494.930598,326.222405 495.126716,326.307038 495.290597,326.425258 C495.454478,326.543477 495.582089,326.696623 495.673433,326.8847 C495.764777,327.072777 495.810448,327.303839 495.810448,327.577894 C495.810448,327.991663 495.702986,328.322135 495.48806,328.569322 C495.273133,328.816508 494.985673,328.985775 494.625672,329.077126 L495.963582,331.382398 L495.20597,331.382398 Z M496.987164,326.094782 L500.033731,326.094782 L500.033731,326.659009 L497.656119,326.659009 L497.656119,328.31945 L499.662985,328.31945 L499.662985,328.891737 L497.656119,328.891737 L497.656119,330.810111 L500.114328,330.810111 L500.114328,331.382398 L496.987164,331.382398 L496.987164,326.094782 Z" id="READ-MORE" fill="#4990E2"></path>
        </g>
    </g>
</svg>