<?xml version="1.0" encoding="UTF-8"?>
<svg width="603px" height="724px" viewBox="0 0 603 724" version="1.1" xmlns="http://www.w3.org/2000/svg" xmlns:xlink="http://www.w3.org/1999/xlink">
    <!-- Generator: Sketch 44.1 (41455) - http://www.bohemiancoding.com/sketch -->
    <title>teambox07</title>
    <desc>Created with Sketch.</desc>
    <defs></defs>
    <g id="Team" stroke="none" stroke-width="1" fill="none" fill-rule="evenodd">
        <g id="07" transform="translate(1.000000, 0.000000)">
            <g id="Group-9" transform="translate(0.000000, 46.000000)">
                <rect id="Rectangle" fill="#79797B" x="0" y="0" width="192" height="192.378906"></rect>
                <g id="icon-team" transform="translate(34.531272, 36.689476)" stroke="#FFFFFF">
                    <path d="M35.1426034,87.6766536 C29.6249184,49.1947986 37.9064772,29.7586144 59.9872799,29.3681008 C93.1084839,28.7823305 87.5566082,79.7980429 86.3339965,87.6766536" id="Path-5"></path>
                    <path d="M19.2809129,110.693021 C19.2809129,97.1714899 27.9426648,91.0463939 36.3081589,87.1857654 C41.8851549,84.6120131 45.5268854,83.9589669 47.2333503,85.2266268 C47.836497,89.2312128 48.5647248,92.0412055 49.4180337,93.6566049 C51.6181521,97.8216498 54.7623818,99.9221774 58.8507229,99.9581876 C68.5509472,100.043628 73.330168,91.2022988 73.330168,83.1282209 C73.3383873,82.7454498 76.6443013,83.4449184 83.2479099,85.2266268 C97.0932959,96.1961591 103.98546,104.480793 103.924403,110.080529" id="Path-6"></path>
                    <path d="M52.8671413,48.6009868 C57.4893151,54.4724221 62.1663819,58.6060082 66.8983419,61.0017451 C73.9962818,64.5953506 76.4013034,69.8507636 75.8790852,74.2278536 C75.3568671,78.6049436 64.7619148,93.4826069 60.8897508,93.6697204 C57.0175868,93.856834 42.8622163,82.8402033 43.6688805,74.4405991 C44.2066566,68.840863 47.2727435,60.2276589 52.8671413,48.6009868 Z" id="Path-7"></path>
                    <ellipse id="Oval-2" cx="63.3447757" cy="63.2034318" rx="63.3447757" ry="63.2034318"></ellipse>
                </g>
                <path d="M1.04133333,208.418916 C1.16629396,208.647739 1.31207917,208.81762 1.47869333,208.928564 C1.6453075,209.039509 1.81539024,209.09498 1.98894667,209.09498 C2.26663694,209.09498 2.47663707,209.01004 2.61895333,208.840156 C2.7612696,208.670272 2.83242667,208.359979 2.83242667,207.909267 L2.83242667,203.509649 L4.36318667,203.509649 L4.36318667,208.034079 C4.36318667,208.359979 4.31979821,208.668538 4.23302,208.959767 C4.14624179,209.250997 4.01434089,209.504085 3.83731333,209.71904 C3.66028578,209.933994 3.43466582,210.103876 3.16044667,210.228688 C2.88622752,210.353501 2.56168187,210.415906 2.1868,210.415906 C1.66613073,210.415906 1.23051064,210.315364 0.879926667,210.114277 C0.529342692,209.91319 0.236036736,209.604631 0,209.188589 L1.04133333,208.418916 Z M5.50865333,207.711649 C5.50865333,207.281739 5.57807486,206.898639 5.71692,206.562339 C5.85576514,206.226039 6.04146773,205.943481 6.27403333,205.714658 C6.50659894,205.485835 6.77560736,205.310754 7.08106667,205.189408 C7.38652597,205.068063 7.70239392,205.007391 8.02868,205.007391 C8.35496608,205.007391 8.66909849,205.068063 8.97108667,205.189408 C9.27307484,205.310754 9.54034773,205.485835 9.77291333,205.714658 C10.0054789,205.943481 10.1911815,206.226039 10.3300267,206.562339 C10.4688718,206.898639 10.5382933,207.281739 10.5382933,207.711649 C10.5382933,208.141558 10.4688718,208.524658 10.3300267,208.860958 C10.1911815,209.197258 10.0054789,209.479816 9.77291333,209.708639 C9.54034773,209.937462 9.27307484,210.112543 8.97108667,210.233889 C8.66909849,210.355234 8.35496608,210.415906 8.02868,210.415906 C7.70239392,210.415906 7.38652597,210.355234 7.08106667,210.233889 C6.77560736,210.112543 6.50659894,209.937462 6.27403333,209.708639 C6.04146773,209.479816 5.85576514,209.197258 5.71692,208.860958 C5.57807486,208.524658 5.50865333,208.141558 5.50865333,207.711649 Z M7.08106667,207.711649 C7.08106667,208.16236 7.15916589,208.519457 7.31536667,208.78295 C7.47156745,209.046444 7.70933618,209.178188 8.02868,209.178188 C8.34108156,209.178188 8.57711476,209.046444 8.73678667,208.78295 C8.89645858,208.519457 8.97629333,208.16236 8.97629333,207.711649 C8.97629333,207.260937 8.89645858,206.90384 8.73678667,206.640347 C8.57711476,206.376853 8.34108156,206.245109 8.02868,206.245109 C7.70933618,206.245109 7.47156745,206.376853 7.31536667,206.640347 C7.15916589,206.90384 7.08106667,207.260937 7.08106667,207.711649 Z M11.59004,203 L13.1208,203 L13.1208,204.78897 L13.0479067,205.714658 C13.2422899,205.541308 13.4679098,205.380094 13.7247733,205.231012 C13.9816368,205.081931 14.2870916,205.007391 14.6411467,205.007391 C15.2034695,205.007391 15.611321,205.19114 15.8647133,205.558644 C16.1181057,205.926147 16.2448,206.43579 16.2448,207.087589 L16.2448,210.291094 L14.71404,210.291094 L14.71404,207.285208 C14.71404,206.91077 14.6637094,206.654215 14.5630467,206.515535 C14.4623839,206.376854 14.3009789,206.307515 14.0788267,206.307515 C13.8844435,206.307515 13.7178318,206.350852 13.5789867,206.437527 C13.4401415,206.524203 13.2874142,206.64728 13.1208,206.806762 L13.1208,210.291094 L11.59004,210.291094 L11.59004,203 Z M17.5360533,205.132203 L18.7856533,205.132203 L18.8897867,205.787465 L18.93144,205.787465 C19.1535922,205.579445 19.3965676,205.397429 19.6603733,205.241413 C19.9241791,205.085398 20.2331049,205.007391 20.58716,205.007391 C21.1494828,205.007391 21.5573343,205.19114 21.8107267,205.558644 C22.064119,205.926147 22.1908133,206.43579 22.1908133,207.087589 L22.1908133,210.291094 L20.6600533,210.291094 L20.6600533,207.285208 C20.6600533,206.91077 20.6097227,206.654215 20.50906,206.515535 C20.4083973,206.376854 20.2469922,206.307515 20.02484,206.307515 C19.8304568,206.307515 19.6638451,206.350852 19.525,206.437527 C19.3861549,206.524203 19.2334275,206.64728 19.0668133,206.806762 L19.0668133,210.291094 L17.5360533,210.291094 L17.5360533,205.132203 Z M25.7834133,203.509649 L27.6994667,203.509649 C28.2201359,203.509649 28.6887313,203.575521 29.1052667,203.707267 C29.5218021,203.839014 29.879323,204.041831 30.17784,204.315725 C30.476357,204.589619 30.7054481,204.938049 30.86512,205.361025 C31.0247919,205.784 31.1046267,206.28671 31.1046267,206.869168 C31.1046267,207.451627 31.0247919,207.957803 30.86512,208.387713 C30.7054481,208.817623 30.4798281,209.172986 30.1882533,209.453814 C29.8966785,209.734642 29.5478354,209.944394 29.1417133,210.083074 C28.7355913,210.221755 28.2826158,210.291094 27.7827733,210.291094 L25.7834133,210.291094 L25.7834133,203.509649 Z M27.6057467,209.053376 C27.8973215,209.053376 28.1611233,209.01524 28.39716,208.938965 C28.6331967,208.862691 28.8345192,208.739614 29.0011333,208.56973 C29.1677475,208.399847 29.2979129,208.176227 29.3916333,207.898866 C29.4853538,207.621505 29.5322133,207.278276 29.5322133,206.869168 C29.5322133,206.466995 29.4853538,206.128966 29.3916333,205.855072 C29.2979129,205.581178 29.1677475,205.362759 29.0011333,205.199809 C28.8345192,205.03686 28.6331967,204.920717 28.39716,204.851376 C28.1611233,204.782036 27.8973215,204.747366 27.6057467,204.747366 L27.3141733,204.747366 L27.3141733,209.053376 L27.6057467,209.053376 Z M31.9689333,207.711649 C31.9689333,207.281739 32.0383549,206.898639 32.1772,206.562339 C32.3160451,206.226039 32.5017477,205.943481 32.7343133,205.714658 C32.9668789,205.485835 33.2358874,205.310754 33.5413467,205.189408 C33.846806,205.068063 34.1626739,205.007391 34.48896,205.007391 C34.8152461,205.007391 35.1293785,205.068063 35.4313667,205.189408 C35.7333548,205.310754 36.0006277,205.485835 36.2331933,205.714658 C36.4657589,205.943481 36.6514615,206.226039 36.7903067,206.562339 C36.9291518,206.898639 36.9985733,207.281739 36.9985733,207.711649 C36.9985733,208.141558 36.9291518,208.524658 36.7903067,208.860958 C36.6514615,209.197258 36.4657589,209.479816 36.2331933,209.708639 C36.0006277,209.937462 35.7333548,210.112543 35.4313667,210.233889 C35.1293785,210.355234 34.8152461,210.415906 34.48896,210.415906 C34.1626739,210.415906 33.846806,210.355234 33.5413467,210.233889 C33.2358874,210.112543 32.9668789,209.937462 32.7343133,209.708639 C32.5017477,209.479816 32.3160451,209.197258 32.1772,208.860958 C32.0383549,208.524658 31.9689333,208.141558 31.9689333,207.711649 Z M33.5413467,207.711649 C33.5413467,208.16236 33.6194459,208.519457 33.7756467,208.78295 C33.9318474,209.046444 34.1696162,209.178188 34.48896,209.178188 C34.8013616,209.178188 35.0373948,209.046444 35.1970667,208.78295 C35.3567386,208.519457 35.4365733,208.16236 35.4365733,207.711649 C35.4365733,207.260937 35.3567386,206.90384 35.1970667,206.640347 C35.0373948,206.376853 34.8013616,206.245109 34.48896,206.245109 C34.1696162,206.245109 33.9318474,206.376853 33.7756467,206.640347 C33.6194459,206.90384 33.5413467,207.260937 33.5413467,207.711649 Z M37.7483333,207.711649 C37.7483333,207.295607 37.8177549,206.919441 37.9566,206.583141 C38.0954451,206.246841 38.2776766,205.96255 38.5033,205.73026 C38.7289234,205.49797 38.9875185,205.319421 39.2790933,205.194609 C39.5706681,205.069796 39.8726518,205.007391 40.1850533,205.007391 C40.552993,205.007391 40.8740675,205.069796 41.1482867,205.194609 C41.4225058,205.319421 41.6515969,205.49277 41.8355667,205.714658 C42.0195365,205.936547 42.156644,206.198303 42.2468933,206.499933 C42.3371427,206.801563 42.3822667,207.129191 42.3822667,207.482827 C42.3822667,207.621507 42.3753245,207.748051 42.36144,207.862463 C42.3475555,207.976874 42.3336712,208.065282 42.3197867,208.127688 L39.2270267,208.127688 C39.2964492,208.522928 39.4509121,208.808952 39.69042,208.98577 C39.9299279,209.162588 40.2232338,209.250995 40.5703467,209.250995 C40.9382863,209.250995 41.3096915,209.136585 41.6845733,208.907762 L42.1948267,209.83345 C41.9310209,210.013735 41.6377149,210.155881 41.3149,210.259891 C40.9920851,210.363902 40.6744816,210.415906 40.36208,210.415906 C39.9941404,210.415906 39.6505038,210.355234 39.33116,210.233889 C39.0118162,210.112543 38.7341301,209.935728 38.4980933,209.703438 C38.2620566,209.471148 38.0780895,209.188591 37.9461867,208.855757 C37.8142838,208.522924 37.7483333,208.141558 37.7483333,207.711649 Z M41.0806,207.181198 C41.0806,206.883035 41.0146495,206.640347 40.8827467,206.453129 C40.7508438,206.26591 40.5286949,206.172302 40.2162933,206.172302 C39.9733143,206.172302 39.7598431,206.253776 39.5758733,206.416725 C39.3919035,206.579675 39.2721514,206.834497 39.2166133,207.181198 L41.0806,207.181198 Z" id="John-Doe" fill="#79797B"></path>
                <path d="M0.5,222.5 L191.523559,222.5" id="Line" stroke="#979797" stroke-width="3" stroke-linecap="square"></path>
                <path d="M0.5,236.084094 L161.500537,236.084094" id="Line" stroke="#979797" stroke-width="3" stroke-linecap="square"></path>
                <path d="M0.5,259.5 L55.5363516,259.5" id="Line" stroke="#979797" stroke-width="3" stroke-linecap="square"></path>
                <path d="M0.5,273.084094 L55.5363516,273.084094" id="Line" stroke="#4990E2" stroke-width="3" stroke-linecap="square"></path>
            </g>
            <g id="Group-9" transform="translate(408.000000, 46.000000)">
                <rect id="Rectangle" fill="#79797B" x="0" y="0" width="192" height="192.378906"></rect>
                <g id="icon-team" transform="translate(34.531272, 36.689476)" stroke="#FFFFFF">
                    <path d="M35.1426034,87.6766536 C29.6249184,49.1947986 37.9064772,29.7586144 59.9872799,29.3681008 C93.1084839,28.7823305 87.5566082,79.7980429 86.3339965,87.6766536" id="Path-5"></path>
                    <path d="M19.2809129,110.693021 C19.2809129,97.1714899 27.9426648,91.0463939 36.3081589,87.1857654 C41.8851549,84.6120131 45.5268854,83.9589669 47.2333503,85.2266268 C47.836497,89.2312128 48.5647248,92.0412055 49.4180337,93.6566049 C51.6181521,97.8216498 54.7623818,99.9221774 58.8507229,99.9581876 C68.5509472,100.043628 73.330168,91.2022988 73.330168,83.1282209 C73.3383873,82.7454498 76.6443013,83.4449184 83.2479099,85.2266268 C97.0932959,96.1961591 103.98546,104.480793 103.924403,110.080529" id="Path-6"></path>
                    <path d="M52.8671413,48.6009868 C57.4893151,54.4724221 62.1663819,58.6060082 66.8983419,61.0017451 C73.9962818,64.5953506 76.4013034,69.8507636 75.8790852,74.2278536 C75.3568671,78.6049436 64.7619148,93.4826069 60.8897508,93.6697204 C57.0175868,93.856834 42.8622163,82.8402033 43.6688805,74.4405991 C44.2066566,68.840863 47.2727435,60.2276589 52.8671413,48.6009868 Z" id="Path-7"></path>
                    <ellipse id="Oval-2" cx="63.3447757" cy="63.2034318" rx="63.3447757" ry="63.2034318"></ellipse>
                </g>
                <path d="M1.04133333,208.418916 C1.16629396,208.647739 1.31207917,208.81762 1.47869333,208.928564 C1.6453075,209.039509 1.81539024,209.09498 1.98894667,209.09498 C2.26663694,209.09498 2.47663707,209.01004 2.61895333,208.840156 C2.7612696,208.670272 2.83242667,208.359979 2.83242667,207.909267 L2.83242667,203.509649 L4.36318667,203.509649 L4.36318667,208.034079 C4.36318667,208.359979 4.31979821,208.668538 4.23302,208.959767 C4.14624179,209.250997 4.01434089,209.504085 3.83731333,209.71904 C3.66028578,209.933994 3.43466582,210.103876 3.16044667,210.228688 C2.88622752,210.353501 2.56168187,210.415906 2.1868,210.415906 C1.66613073,210.415906 1.23051064,210.315364 0.879926667,210.114277 C0.529342692,209.91319 0.236036736,209.604631 0,209.188589 L1.04133333,208.418916 Z M5.50865333,207.711649 C5.50865333,207.281739 5.57807486,206.898639 5.71692,206.562339 C5.85576514,206.226039 6.04146773,205.943481 6.27403333,205.714658 C6.50659894,205.485835 6.77560736,205.310754 7.08106667,205.189408 C7.38652597,205.068063 7.70239392,205.007391 8.02868,205.007391 C8.35496608,205.007391 8.66909849,205.068063 8.97108667,205.189408 C9.27307484,205.310754 9.54034773,205.485835 9.77291333,205.714658 C10.0054789,205.943481 10.1911815,206.226039 10.3300267,206.562339 C10.4688718,206.898639 10.5382933,207.281739 10.5382933,207.711649 C10.5382933,208.141558 10.4688718,208.524658 10.3300267,208.860958 C10.1911815,209.197258 10.0054789,209.479816 9.77291333,209.708639 C9.54034773,209.937462 9.27307484,210.112543 8.97108667,210.233889 C8.66909849,210.355234 8.35496608,210.415906 8.02868,210.415906 C7.70239392,210.415906 7.38652597,210.355234 7.08106667,210.233889 C6.77560736,210.112543 6.50659894,209.937462 6.27403333,209.708639 C6.04146773,209.479816 5.85576514,209.197258 5.71692,208.860958 C5.57807486,208.524658 5.50865333,208.141558 5.50865333,207.711649 Z M7.08106667,207.711649 C7.08106667,208.16236 7.15916589,208.519457 7.31536667,208.78295 C7.47156745,209.046444 7.70933618,209.178188 8.02868,209.178188 C8.34108156,209.178188 8.57711476,209.046444 8.73678667,208.78295 C8.89645858,208.519457 8.97629333,208.16236 8.97629333,207.711649 C8.97629333,207.260937 8.89645858,206.90384 8.73678667,206.640347 C8.57711476,206.376853 8.34108156,206.245109 8.02868,206.245109 C7.70933618,206.245109 7.47156745,206.376853 7.31536667,206.640347 C7.15916589,206.90384 7.08106667,207.260937 7.08106667,207.711649 Z M11.59004,203 L13.1208,203 L13.1208,204.78897 L13.0479067,205.714658 C13.2422899,205.541308 13.4679098,205.380094 13.7247733,205.231012 C13.9816368,205.081931 14.2870916,205.007391 14.6411467,205.007391 C15.2034695,205.007391 15.611321,205.19114 15.8647133,205.558644 C16.1181057,205.926147 16.2448,206.43579 16.2448,207.087589 L16.2448,210.291094 L14.71404,210.291094 L14.71404,207.285208 C14.71404,206.91077 14.6637094,206.654215 14.5630467,206.515535 C14.4623839,206.376854 14.3009789,206.307515 14.0788267,206.307515 C13.8844435,206.307515 13.7178318,206.350852 13.5789867,206.437527 C13.4401415,206.524203 13.2874142,206.64728 13.1208,206.806762 L13.1208,210.291094 L11.59004,210.291094 L11.59004,203 Z M17.5360533,205.132203 L18.7856533,205.132203 L18.8897867,205.787465 L18.93144,205.787465 C19.1535922,205.579445 19.3965676,205.397429 19.6603733,205.241413 C19.9241791,205.085398 20.2331049,205.007391 20.58716,205.007391 C21.1494828,205.007391 21.5573343,205.19114 21.8107267,205.558644 C22.064119,205.926147 22.1908133,206.43579 22.1908133,207.087589 L22.1908133,210.291094 L20.6600533,210.291094 L20.6600533,207.285208 C20.6600533,206.91077 20.6097227,206.654215 20.50906,206.515535 C20.4083973,206.376854 20.2469922,206.307515 20.02484,206.307515 C19.8304568,206.307515 19.6638451,206.350852 19.525,206.437527 C19.3861549,206.524203 19.2334275,206.64728 19.0668133,206.806762 L19.0668133,210.291094 L17.5360533,210.291094 L17.5360533,205.132203 Z M25.7834133,203.509649 L27.6994667,203.509649 C28.2201359,203.509649 28.6887313,203.575521 29.1052667,203.707267 C29.5218021,203.839014 29.879323,204.041831 30.17784,204.315725 C30.476357,204.589619 30.7054481,204.938049 30.86512,205.361025 C31.0247919,205.784 31.1046267,206.28671 31.1046267,206.869168 C31.1046267,207.451627 31.0247919,207.957803 30.86512,208.387713 C30.7054481,208.817623 30.4798281,209.172986 30.1882533,209.453814 C29.8966785,209.734642 29.5478354,209.944394 29.1417133,210.083074 C28.7355913,210.221755 28.2826158,210.291094 27.7827733,210.291094 L25.7834133,210.291094 L25.7834133,203.509649 Z M27.6057467,209.053376 C27.8973215,209.053376 28.1611233,209.01524 28.39716,208.938965 C28.6331967,208.862691 28.8345192,208.739614 29.0011333,208.56973 C29.1677475,208.399847 29.2979129,208.176227 29.3916333,207.898866 C29.4853538,207.621505 29.5322133,207.278276 29.5322133,206.869168 C29.5322133,206.466995 29.4853538,206.128966 29.3916333,205.855072 C29.2979129,205.581178 29.1677475,205.362759 29.0011333,205.199809 C28.8345192,205.03686 28.6331967,204.920717 28.39716,204.851376 C28.1611233,204.782036 27.8973215,204.747366 27.6057467,204.747366 L27.3141733,204.747366 L27.3141733,209.053376 L27.6057467,209.053376 Z M31.9689333,207.711649 C31.9689333,207.281739 32.0383549,206.898639 32.1772,206.562339 C32.3160451,206.226039 32.5017477,205.943481 32.7343133,205.714658 C32.9668789,205.485835 33.2358874,205.310754 33.5413467,205.189408 C33.846806,205.068063 34.1626739,205.007391 34.48896,205.007391 C34.8152461,205.007391 35.1293785,205.068063 35.4313667,205.189408 C35.7333548,205.310754 36.0006277,205.485835 36.2331933,205.714658 C36.4657589,205.943481 36.6514615,206.226039 36.7903067,206.562339 C36.9291518,206.898639 36.9985733,207.281739 36.9985733,207.711649 C36.9985733,208.141558 36.9291518,208.524658 36.7903067,208.860958 C36.6514615,209.197258 36.4657589,209.479816 36.2331933,209.708639 C36.0006277,209.937462 35.7333548,210.112543 35.4313667,210.233889 C35.1293785,210.355234 34.8152461,210.415906 34.48896,210.415906 C34.1626739,210.415906 33.846806,210.355234 33.5413467,210.233889 C33.2358874,210.112543 32.9668789,209.937462 32.7343133,209.708639 C32.5017477,209.479816 32.3160451,209.197258 32.1772,208.860958 C32.0383549,208.524658 31.9689333,208.141558 31.9689333,207.711649 Z M33.5413467,207.711649 C33.5413467,208.16236 33.6194459,208.519457 33.7756467,208.78295 C33.9318474,209.046444 34.1696162,209.178188 34.48896,209.178188 C34.8013616,209.178188 35.0373948,209.046444 35.1970667,208.78295 C35.3567386,208.519457 35.4365733,208.16236 35.4365733,207.711649 C35.4365733,207.260937 35.3567386,206.90384 35.1970667,206.640347 C35.0373948,206.376853 34.8013616,206.245109 34.48896,206.245109 C34.1696162,206.245109 33.9318474,206.376853 33.7756467,206.640347 C33.6194459,206.90384 33.5413467,207.260937 33.5413467,207.711649 Z M37.7483333,207.711649 C37.7483333,207.295607 37.8177549,206.919441 37.9566,206.583141 C38.0954451,206.246841 38.2776766,205.96255 38.5033,205.73026 C38.7289234,205.49797 38.9875185,205.319421 39.2790933,205.194609 C39.5706681,205.069796 39.8726518,205.007391 40.1850533,205.007391 C40.552993,205.007391 40.8740675,205.069796 41.1482867,205.194609 C41.4225058,205.319421 41.6515969,205.49277 41.8355667,205.714658 C42.0195365,205.936547 42.156644,206.198303 42.2468933,206.499933 C42.3371427,206.801563 42.3822667,207.129191 42.3822667,207.482827 C42.3822667,207.621507 42.3753245,207.748051 42.36144,207.862463 C42.3475555,207.976874 42.3336712,208.065282 42.3197867,208.127688 L39.2270267,208.127688 C39.2964492,208.522928 39.4509121,208.808952 39.69042,208.98577 C39.9299279,209.162588 40.2232338,209.250995 40.5703467,209.250995 C40.9382863,209.250995 41.3096915,209.136585 41.6845733,208.907762 L42.1948267,209.83345 C41.9310209,210.013735 41.6377149,210.155881 41.3149,210.259891 C40.9920851,210.363902 40.6744816,210.415906 40.36208,210.415906 C39.9941404,210.415906 39.6505038,210.355234 39.33116,210.233889 C39.0118162,210.112543 38.7341301,209.935728 38.4980933,209.703438 C38.2620566,209.471148 38.0780895,209.188591 37.9461867,208.855757 C37.8142838,208.522924 37.7483333,208.141558 37.7483333,207.711649 Z M41.0806,207.181198 C41.0806,206.883035 41.0146495,206.640347 40.8827467,206.453129 C40.7508438,206.26591 40.5286949,206.172302 40.2162933,206.172302 C39.9733143,206.172302 39.7598431,206.253776 39.5758733,206.416725 C39.3919035,206.579675 39.2721514,206.834497 39.2166133,207.181198 L41.0806,207.181198 Z" id="John-Doe" fill="#79797B"></path>
                <path d="M0.5,222.5 L191.523559,222.5" id="Line" stroke="#979797" stroke-width="3" stroke-linecap="square"></path>
                <path d="M0.5,236.084094 L161.500537,236.084094" id="Line" stroke="#979797" stroke-width="3" stroke-linecap="square"></path>
                <path d="M0.5,259.5 L55.5363516,259.5" id="Line" stroke="#979797" stroke-width="3" stroke-linecap="square"></path>
                <path d="M0.5,273.084094 L55.5363516,273.084094" id="Line" stroke="#4990E2" stroke-width="3" stroke-linecap="square"></path>
            </g>
            <g id="Group-9" transform="translate(204.000000, 46.000000)">
                <rect id="Rectangle" fill="#79797B" x="0" y="0" width="192" height="192.378906"></rect>
                <g id="icon-team" transform="translate(34.531272, 36.689476)" stroke="#FFFFFF">
                    <path d="M35.1426034,87.6766536 C29.6249184,49.1947986 37.9064772,29.7586144 59.9872799,29.3681008 C93.1084839,28.7823305 87.5566082,79.7980429 86.3339965,87.6766536" id="Path-5"></path>
                    <path d="M19.2809129,110.693021 C19.2809129,97.1714899 27.9426648,91.0463939 36.3081589,87.1857654 C41.8851549,84.6120131 45.5268854,83.9589669 47.2333503,85.2266268 C47.836497,89.2312128 48.5647248,92.0412055 49.4180337,93.6566049 C51.6181521,97.8216498 54.7623818,99.9221774 58.8507229,99.9581876 C68.5509472,100.043628 73.330168,91.2022988 73.330168,83.1282209 C73.3383873,82.7454498 76.6443013,83.4449184 83.2479099,85.2266268 C97.0932959,96.1961591 103.98546,104.480793 103.924403,110.080529" id="Path-6"></path>
                    <path d="M52.8671413,48.6009868 C57.4893151,54.4724221 62.1663819,58.6060082 66.8983419,61.0017451 C73.9962818,64.5953506 76.4013034,69.8507636 75.8790852,74.2278536 C75.3568671,78.6049436 64.7619148,93.4826069 60.8897508,93.6697204 C57.0175868,93.856834 42.8622163,82.8402033 43.6688805,74.4405991 C44.2066566,68.840863 47.2727435,60.2276589 52.8671413,48.6009868 Z" id="Path-7"></path>
                    <ellipse id="Oval-2" cx="63.3447757" cy="63.2034318" rx="63.3447757" ry="63.2034318"></ellipse>
                </g>
                <path d="M1.04133333,208.418916 C1.16629396,208.647739 1.31207917,208.81762 1.47869333,208.928564 C1.6453075,209.039509 1.81539024,209.09498 1.98894667,209.09498 C2.26663694,209.09498 2.47663707,209.01004 2.61895333,208.840156 C2.7612696,208.670272 2.83242667,208.359979 2.83242667,207.909267 L2.83242667,203.509649 L4.36318667,203.509649 L4.36318667,208.034079 C4.36318667,208.359979 4.31979821,208.668538 4.23302,208.959767 C4.14624179,209.250997 4.01434089,209.504085 3.83731333,209.71904 C3.66028578,209.933994 3.43466582,210.103876 3.16044667,210.228688 C2.88622752,210.353501 2.56168187,210.415906 2.1868,210.415906 C1.66613073,210.415906 1.23051064,210.315364 0.879926667,210.114277 C0.529342692,209.91319 0.236036736,209.604631 0,209.188589 L1.04133333,208.418916 Z M5.50865333,207.711649 C5.50865333,207.281739 5.57807486,206.898639 5.71692,206.562339 C5.85576514,206.226039 6.04146773,205.943481 6.27403333,205.714658 C6.50659894,205.485835 6.77560736,205.310754 7.08106667,205.189408 C7.38652597,205.068063 7.70239392,205.007391 8.02868,205.007391 C8.35496608,205.007391 8.66909849,205.068063 8.97108667,205.189408 C9.27307484,205.310754 9.54034773,205.485835 9.77291333,205.714658 C10.0054789,205.943481 10.1911815,206.226039 10.3300267,206.562339 C10.4688718,206.898639 10.5382933,207.281739 10.5382933,207.711649 C10.5382933,208.141558 10.4688718,208.524658 10.3300267,208.860958 C10.1911815,209.197258 10.0054789,209.479816 9.77291333,209.708639 C9.54034773,209.937462 9.27307484,210.112543 8.97108667,210.233889 C8.66909849,210.355234 8.35496608,210.415906 8.02868,210.415906 C7.70239392,210.415906 7.38652597,210.355234 7.08106667,210.233889 C6.77560736,210.112543 6.50659894,209.937462 6.27403333,209.708639 C6.04146773,209.479816 5.85576514,209.197258 5.71692,208.860958 C5.57807486,208.524658 5.50865333,208.141558 5.50865333,207.711649 Z M7.08106667,207.711649 C7.08106667,208.16236 7.15916589,208.519457 7.31536667,208.78295 C7.47156745,209.046444 7.70933618,209.178188 8.02868,209.178188 C8.34108156,209.178188 8.57711476,209.046444 8.73678667,208.78295 C8.89645858,208.519457 8.97629333,208.16236 8.97629333,207.711649 C8.97629333,207.260937 8.89645858,206.90384 8.73678667,206.640347 C8.57711476,206.376853 8.34108156,206.245109 8.02868,206.245109 C7.70933618,206.245109 7.47156745,206.376853 7.31536667,206.640347 C7.15916589,206.90384 7.08106667,207.260937 7.08106667,207.711649 Z M11.59004,203 L13.1208,203 L13.1208,204.78897 L13.0479067,205.714658 C13.2422899,205.541308 13.4679098,205.380094 13.7247733,205.231012 C13.9816368,205.081931 14.2870916,205.007391 14.6411467,205.007391 C15.2034695,205.007391 15.611321,205.19114 15.8647133,205.558644 C16.1181057,205.926147 16.2448,206.43579 16.2448,207.087589 L16.2448,210.291094 L14.71404,210.291094 L14.71404,207.285208 C14.71404,206.91077 14.6637094,206.654215 14.5630467,206.515535 C14.4623839,206.376854 14.3009789,206.307515 14.0788267,206.307515 C13.8844435,206.307515 13.7178318,206.350852 13.5789867,206.437527 C13.4401415,206.524203 13.2874142,206.64728 13.1208,206.806762 L13.1208,210.291094 L11.59004,210.291094 L11.59004,203 Z M17.5360533,205.132203 L18.7856533,205.132203 L18.8897867,205.787465 L18.93144,205.787465 C19.1535922,205.579445 19.3965676,205.397429 19.6603733,205.241413 C19.9241791,205.085398 20.2331049,205.007391 20.58716,205.007391 C21.1494828,205.007391 21.5573343,205.19114 21.8107267,205.558644 C22.064119,205.926147 22.1908133,206.43579 22.1908133,207.087589 L22.1908133,210.291094 L20.6600533,210.291094 L20.6600533,207.285208 C20.6600533,206.91077 20.6097227,206.654215 20.50906,206.515535 C20.4083973,206.376854 20.2469922,206.307515 20.02484,206.307515 C19.8304568,206.307515 19.6638451,206.350852 19.525,206.437527 C19.3861549,206.524203 19.2334275,206.64728 19.0668133,206.806762 L19.0668133,210.291094 L17.5360533,210.291094 L17.5360533,205.132203 Z M25.7834133,203.509649 L27.6994667,203.509649 C28.2201359,203.509649 28.6887313,203.575521 29.1052667,203.707267 C29.5218021,203.839014 29.879323,204.041831 30.17784,204.315725 C30.476357,204.589619 30.7054481,204.938049 30.86512,205.361025 C31.0247919,205.784 31.1046267,206.28671 31.1046267,206.869168 C31.1046267,207.451627 31.0247919,207.957803 30.86512,208.387713 C30.7054481,208.817623 30.4798281,209.172986 30.1882533,209.453814 C29.8966785,209.734642 29.5478354,209.944394 29.1417133,210.083074 C28.7355913,210.221755 28.2826158,210.291094 27.7827733,210.291094 L25.7834133,210.291094 L25.7834133,203.509649 Z M27.6057467,209.053376 C27.8973215,209.053376 28.1611233,209.01524 28.39716,208.938965 C28.6331967,208.862691 28.8345192,208.739614 29.0011333,208.56973 C29.1677475,208.399847 29.2979129,208.176227 29.3916333,207.898866 C29.4853538,207.621505 29.5322133,207.278276 29.5322133,206.869168 C29.5322133,206.466995 29.4853538,206.128966 29.3916333,205.855072 C29.2979129,205.581178 29.1677475,205.362759 29.0011333,205.199809 C28.8345192,205.03686 28.6331967,204.920717 28.39716,204.851376 C28.1611233,204.782036 27.8973215,204.747366 27.6057467,204.747366 L27.3141733,204.747366 L27.3141733,209.053376 L27.6057467,209.053376 Z M31.9689333,207.711649 C31.9689333,207.281739 32.0383549,206.898639 32.1772,206.562339 C32.3160451,206.226039 32.5017477,205.943481 32.7343133,205.714658 C32.9668789,205.485835 33.2358874,205.310754 33.5413467,205.189408 C33.846806,205.068063 34.1626739,205.007391 34.48896,205.007391 C34.8152461,205.007391 35.1293785,205.068063 35.4313667,205.189408 C35.7333548,205.310754 36.0006277,205.485835 36.2331933,205.714658 C36.4657589,205.943481 36.6514615,206.226039 36.7903067,206.562339 C36.9291518,206.898639 36.9985733,207.281739 36.9985733,207.711649 C36.9985733,208.141558 36.9291518,208.524658 36.7903067,208.860958 C36.6514615,209.197258 36.4657589,209.479816 36.2331933,209.708639 C36.0006277,209.937462 35.7333548,210.112543 35.4313667,210.233889 C35.1293785,210.355234 34.8152461,210.415906 34.48896,210.415906 C34.1626739,210.415906 33.846806,210.355234 33.5413467,210.233889 C33.2358874,210.112543 32.9668789,209.937462 32.7343133,209.708639 C32.5017477,209.479816 32.3160451,209.197258 32.1772,208.860958 C32.0383549,208.524658 31.9689333,208.141558 31.9689333,207.711649 Z M33.5413467,207.711649 C33.5413467,208.16236 33.6194459,208.519457 33.7756467,208.78295 C33.9318474,209.046444 34.1696162,209.178188 34.48896,209.178188 C34.8013616,209.178188 35.0373948,209.046444 35.1970667,208.78295 C35.3567386,208.519457 35.4365733,208.16236 35.4365733,207.711649 C35.4365733,207.260937 35.3567386,206.90384 35.1970667,206.640347 C35.0373948,206.376853 34.8013616,206.245109 34.48896,206.245109 C34.1696162,206.245109 33.9318474,206.376853 33.7756467,206.640347 C33.6194459,206.90384 33.5413467,207.260937 33.5413467,207.711649 Z M37.7483333,207.711649 C37.7483333,207.295607 37.8177549,206.919441 37.9566,206.583141 C38.0954451,206.246841 38.2776766,205.96255 38.5033,205.73026 C38.7289234,205.49797 38.9875185,205.319421 39.2790933,205.194609 C39.5706681,205.069796 39.8726518,205.007391 40.1850533,205.007391 C40.552993,205.007391 40.8740675,205.069796 41.1482867,205.194609 C41.4225058,205.319421 41.6515969,205.49277 41.8355667,205.714658 C42.0195365,205.936547 42.156644,206.198303 42.2468933,206.499933 C42.3371427,206.801563 42.3822667,207.129191 42.3822667,207.482827 C42.3822667,207.621507 42.3753245,207.748051 42.36144,207.862463 C42.3475555,207.976874 42.3336712,208.065282 42.3197867,208.127688 L39.2270267,208.127688 C39.2964492,208.522928 39.4509121,208.808952 39.69042,208.98577 C39.9299279,209.162588 40.2232338,209.250995 40.5703467,209.250995 C40.9382863,209.250995 41.3096915,209.136585 41.6845733,208.907762 L42.1948267,209.83345 C41.9310209,210.013735 41.6377149,210.155881 41.3149,210.259891 C40.9920851,210.363902 40.6744816,210.415906 40.36208,210.415906 C39.9941404,210.415906 39.6505038,210.355234 39.33116,210.233889 C39.0118162,210.112543 38.7341301,209.935728 38.4980933,209.703438 C38.2620566,209.471148 38.0780895,209.188591 37.9461867,208.855757 C37.8142838,208.522924 37.7483333,208.141558 37.7483333,207.711649 Z M41.0806,207.181198 C41.0806,206.883035 41.0146495,206.640347 40.8827467,206.453129 C40.7508438,206.26591 40.5286949,206.172302 40.2162933,206.172302 C39.9733143,206.172302 39.7598431,206.253776 39.5758733,206.416725 C39.3919035,206.579675 39.2721514,206.834497 39.2166133,207.181198 L41.0806,207.181198 Z" id="John-Doe" fill="#79797B"></path>
                <path d="M0.5,222.5 L191.523559,222.5" id="Line" stroke="#979797" stroke-width="3" stroke-linecap="square"></path>
                <path d="M0.5,236.084094 L161.500537,236.084094" id="Line" stroke="#979797" stroke-width="3" stroke-linecap="square"></path>
                <path d="M0.5,259.5 L55.5363516,259.5" id="Line" stroke="#979797" stroke-width="3" stroke-linecap="square"></path>
                <path d="M0.5,273.084094 L55.5363516,273.084094" id="Line" stroke="#4990E2" stroke-width="3" stroke-linecap="square"></path>
            </g>
            <path d="M2.142,9.706 C2.5620021,10.0660018 3.02699745,10.3599989 3.537,10.588 C4.04700255,10.8160011 4.54799754,10.93 5.04,10.93 C5.59200276,10.93 6.00299865,10.828001 6.273,10.624 C6.54300135,10.419999 6.678,10.1440017 6.678,9.796 C6.678,9.6159991 6.63900039,9.46000066 6.561,9.328 C6.48299961,9.19599934 6.36900075,9.07900051 6.219,8.977 C6.06899925,8.87499949 5.88900105,8.77900045 5.679,8.689 L4.986,8.392 L3.456,7.744 C3.1559985,7.6239994 2.86500141,7.46800096 2.583,7.276 C2.30099859,7.08399904 2.04900111,6.85900129 1.827,6.601 C1.60499889,6.34299871 1.42800066,6.04300171 1.296,5.701 C1.16399934,5.35899829 1.098,4.97200216 1.098,4.54 C1.098,4.0599976 1.19999898,3.60700213 1.404,3.181 C1.60800102,2.75499787 1.89599814,2.38300159 2.268,2.065 C2.64000186,1.74699841 3.08099745,1.4980009 3.591,1.318 C4.10100255,1.1379991 4.66199694,1.048 5.274,1.048 C5.95800342,1.048 6.63299667,1.17999868 7.299,1.444 C7.96500333,1.70800132 8.54999748,2.09199748 9.054,2.596 L7.704,4.27 C7.31999808,3.9699985 6.93600192,3.73900081 6.552,3.577 C6.16799808,3.41499919 5.74200234,3.334 5.274,3.334 C4.81799772,3.334 4.45500135,3.42699907 4.185,3.613 C3.91499865,3.79900093 3.78,4.05999832 3.78,4.396 C3.78,4.5760009 3.82499955,4.72899937 3.915,4.855 C4.00500045,4.98100063 4.13099919,5.09499949 4.293,5.197 C4.45500081,5.29900051 4.64399892,5.39499955 4.86,5.485 C5.07600108,5.57500045 5.30999874,5.67399946 5.562,5.782 L7.074,6.394 C7.7940036,6.68200144 8.36099793,7.07799748 8.775,7.582 C9.18900207,8.08600252 9.396,8.75199586 9.396,9.58 C9.396,10.0720025 9.29700099,10.5369978 9.099,10.975 C8.90099901,11.4130022 8.61300189,11.7969984 8.235,12.127 C7.85699811,12.4570017 7.39200276,12.720999 6.84,12.919 C6.28799724,13.117001 5.66400348,13.216 4.968,13.216 C4.19999616,13.216 3.43500381,13.0750014 2.673,12.793 C1.91099619,12.5109986 1.230003,12.0880028 0.63,11.524 L2.142,9.706 Z M10.854,10.516 C10.854,9.57999532 11.249996,8.84800264 12.042,8.32 C12.834004,7.79199736 14.1119912,7.4380009 15.876,7.258 C15.8519999,6.86199802 15.7320011,6.54700117 15.516,6.313 C15.2999989,6.07899883 14.9520024,5.962 14.472,5.962 C14.0879981,5.962 13.7040019,6.03399928 13.32,6.178 C12.9359981,6.32200072 12.5280022,6.51999874 12.096,6.772 L11.16,5.026 C11.7360029,4.67799826 12.3389969,4.39600108 12.969,4.18 C13.5990031,3.96399892 14.2679965,3.856 14.976,3.856 C16.1280058,3.856 17.006997,4.18299673 17.613,4.837 C18.219003,5.49100327 18.522,6.5079931 18.522,7.888 L18.522,13 L16.362,13 L16.164,12.082 L16.11,12.082 C15.7259981,12.4180017 15.3210021,12.6909989 14.895,12.901 C14.4689979,13.1110011 14.0040025,13.216 13.5,13.216 C13.091998,13.216 12.7260016,13.1470007 12.402,13.009 C12.0779984,12.8709993 11.8020011,12.6790012 11.574,12.433 C11.3459989,12.1869988 11.1690006,11.9020016 11.043,11.578 C10.9169994,11.2539984 10.854,10.9000019 10.854,10.516 Z M13.374,10.318 C13.374,10.6060014 13.4669991,10.8189993 13.653,10.957 C13.8390009,11.0950007 14.0879984,11.164 14.4,11.164 C14.7120016,11.164 14.9759989,11.0980007 15.192,10.966 C15.4080011,10.8339993 15.6359988,10.6480012 15.876,10.408 L15.876,8.842 C14.9279953,8.97400066 14.2740018,9.16599874 13.914,9.418 C13.5539982,9.67000126 13.374,9.96999826 13.374,10.318 Z M20.79,0.382 L23.436,0.382 L23.436,10.336 C23.436,10.6120014 23.4869995,10.8039995 23.589,10.912 C23.6910005,11.0200005 23.7959995,11.074 23.904,11.074 L24.057,11.074 C24.0990002,11.074 24.1559996,11.0620001 24.228,11.038 L24.552,13 C24.4079993,13.0600003 24.2250011,13.1109998 24.003,13.153 C23.7809989,13.1950002 23.5200015,13.216 23.22,13.216 C22.7639977,13.216 22.3800016,13.1440007 22.068,13 C21.7559984,12.8559993 21.5070009,12.6550013 21.321,12.397 C21.1349991,12.1389987 21.0000004,11.8270018 20.916,11.461 C20.8319996,11.0949982 20.79,10.6840023 20.79,10.228 L20.79,0.382 Z M25.416,8.536 C25.416,7.8159964 25.5359988,7.16500291 25.776,6.583 C26.0160012,6.00099709 26.3309981,5.50900201 26.721,5.107 C27.111002,4.70499799 27.5579975,4.39600108 28.062,4.18 C28.5660025,3.96399892 29.0879973,3.856 29.628,3.856 C30.2640032,3.856 30.8189976,3.96399892 31.293,4.18 C31.7670024,4.39600108 32.1629984,4.69599808 32.481,5.08 C32.7990016,5.46400192 33.0359992,5.91699739 33.192,6.439 C33.3480008,6.96100261 33.426,7.52799694 33.426,8.14 C33.426,8.3800012 33.4140001,8.59899901 33.39,8.797 C33.3659999,8.99500099 33.3420001,9.14799946 33.318,9.256 L27.972,9.256 C28.0920006,9.94000342 28.3589979,10.4349985 28.773,10.741 C29.1870021,11.0470015 29.693997,11.2 30.294,11.2 C30.9300032,11.2 31.5719968,11.002002 32.22,10.606 L33.102,12.208 C32.6459977,12.5200016 32.1390028,12.7659991 31.581,12.946 C31.0229972,13.1260009 30.4740027,13.216 29.934,13.216 C29.2979968,13.216 28.7040028,13.1110011 28.152,12.901 C27.5999972,12.6909989 27.120002,12.385002 26.712,11.983 C26.303998,11.580998 25.9860011,11.0920029 25.758,10.516 C25.5299989,9.93999712 25.416,9.28000372 25.416,8.536 Z M31.176,7.618 C31.176,7.10199742 31.0620011,6.68200162 30.834,6.358 C30.6059989,6.03399838 30.2220027,5.872 29.682,5.872 C29.2619979,5.872 28.8930016,6.01299859 28.575,6.295 C28.2569984,6.57700141 28.0500005,7.017997 27.954,7.618 L31.176,7.618 Z M35.658,10.318 C36.066002,10.6300016 36.4559981,10.8639992 36.828,11.02 C37.2000019,11.1760008 37.5779981,11.254 37.962,11.254 C38.358002,11.254 38.6459991,11.1880007 38.826,11.056 C39.0060009,10.9239993 39.096,10.7380012 39.096,10.498 C39.096,10.3539993 39.0450005,10.2250006 38.943,10.111 C38.8409995,9.99699943 38.7030009,9.89200048 38.529,9.796 C38.3549991,9.69999952 38.1600011,9.61300039 37.944,9.535 C37.7279989,9.45699961 37.5060011,9.37000048 37.278,9.274 C37.0019986,9.16599946 36.7260014,9.04000072 36.45,8.896 C36.1739986,8.75199928 35.9220011,8.57500105 35.694,8.365 C35.4659989,8.15499895 35.2800007,7.90900141 35.136,7.627 C34.9919993,7.34499859 34.92,7.01800186 34.92,6.646 C34.92,6.23799796 35.0009992,5.86000174 35.163,5.512 C35.3250008,5.16399826 35.5559985,4.8700012 35.856,4.63 C36.1560015,4.3899988 36.5159979,4.20100069 36.936,4.063 C37.3560021,3.92499931 37.8239974,3.856 38.34,3.856 C39.0240034,3.856 39.6239974,3.97299883 40.14,4.207 C40.6560026,4.44100117 41.1059981,4.70199856 41.49,4.99 L40.302,6.574 C39.9779984,6.3339988 39.6600016,6.14800066 39.348,6.016 C39.0359984,5.88399934 38.7240016,5.818 38.412,5.818 C37.7399966,5.818 37.404,6.05199766 37.404,6.52 C37.404,6.66400072 37.4519995,6.78699949 37.548,6.889 C37.6440005,6.99100051 37.7729992,7.08399958 37.935,7.168 C38.0970008,7.25200042 38.2829989,7.33299961 38.493,7.411 C38.7030011,7.48900039 38.9219989,7.56999958 39.15,7.654 C39.4380014,7.76200054 39.7229986,7.88499931 40.005,8.023 C40.2870014,8.16100069 40.5449988,8.33199898 40.779,8.536 C41.0130012,8.74000102 41.2019993,8.98899853 41.346,9.283 C41.4900007,9.57700147 41.562,9.92799796 41.562,10.336 C41.562,10.744002 41.4840008,11.1219983 41.328,11.47 C41.1719992,11.8180017 40.9380016,12.1209987 40.626,12.379 C40.3139984,12.6370013 39.9300023,12.8409993 39.474,12.991 C39.0179977,13.1410007 38.490003,13.216 37.89,13.216 C37.3019971,13.216 36.6990031,13.1020011 36.081,12.874 C35.4629969,12.6459989 34.9260023,12.3460019 34.47,11.974 L35.658,10.318 Z M47.196,1.264 L50.004,1.264 L51.966,6.538 L52.668,8.59 L52.74,8.59 L53.442,6.538 L55.35,1.264 L58.14,1.264 L58.14,13 L55.674,13 L55.674,8.698 C55.674,8.40999856 55.6859999,8.09200174 55.71,7.744 C55.7340001,7.39599826 55.7639998,7.04500177 55.8,6.691 C55.8360002,6.33699823 55.8719998,5.98900171 55.908,5.647 C55.9440002,5.30499829 55.9799998,4.99000144 56.016,4.702 L55.944,4.702 L54.972,7.42 L53.172,11.974 L52.11,11.974 L50.31,7.42 L49.374,4.702 L49.302,4.702 C49.3380002,4.99000144 49.3739998,5.30499829 49.41,5.647 C49.4460002,5.98900171 49.4789999,6.33699823 49.509,6.691 C49.5390001,7.04500177 49.5659999,7.39599826 49.59,7.744 C49.6140001,8.09200174 49.626,8.40999856 49.626,8.698 L49.626,13 L47.196,13 L47.196,1.264 Z M60.372,10.516 C60.372,9.57999532 60.767996,8.84800264 61.56,8.32 C62.352004,7.79199736 63.6299912,7.4380009 65.394,7.258 C65.3699999,6.86199802 65.2500011,6.54700117 65.034,6.313 C64.8179989,6.07899883 64.4700024,5.962 63.99,5.962 C63.6059981,5.962 63.2220019,6.03399928 62.838,6.178 C62.4539981,6.32200072 62.0460022,6.51999874 61.614,6.772 L60.678,5.026 C61.2540029,4.67799826 61.8569969,4.39600108 62.487,4.18 C63.1170032,3.96399892 63.7859965,3.856 64.494,3.856 C65.6460058,3.856 66.524997,4.18299673 67.131,4.837 C67.737003,5.49100327 68.04,6.5079931 68.04,7.888 L68.04,13 L65.88,13 L65.682,12.082 L65.628,12.082 C65.2439981,12.4180017 64.8390021,12.6909989 64.413,12.901 C63.9869979,13.1110011 63.5220025,13.216 63.018,13.216 C62.609998,13.216 62.2440016,13.1470007 61.92,13.009 C61.5959984,12.8709993 61.3200011,12.6790012 61.092,12.433 C60.8639989,12.1869988 60.6870006,11.9020016 60.561,11.578 C60.4349994,11.2539984 60.372,10.9000019 60.372,10.516 Z M62.892,10.318 C62.892,10.6060014 62.9849991,10.8189993 63.171,10.957 C63.3570009,11.0950007 63.6059984,11.164 63.918,11.164 C64.2300016,11.164 64.4939989,11.0980007 64.71,10.966 C64.9260011,10.8339993 65.1539988,10.6480012 65.394,10.408 L65.394,8.842 C64.4459953,8.97400066 63.7920018,9.16599874 63.432,9.418 C63.0719982,9.67000126 62.892,9.96999826 62.892,10.318 Z M70.308,4.072 L72.468,4.072 L72.648,5.206 L72.72,5.206 C73.1040019,4.8459982 73.5239977,4.53100135 73.98,4.261 C74.4360023,3.99099865 74.9699969,3.856 75.582,3.856 C76.5540049,3.856 77.2589978,4.17399682 77.697,4.81 C78.1350022,5.44600318 78.354,6.32799436 78.354,7.456 L78.354,13 L75.708,13 L75.708,7.798 C75.708,7.14999676 75.6210009,6.7060012 75.447,6.466 C75.2729991,6.2259988 74.9940019,6.106 74.61,6.106 C74.2739983,6.106 73.9860012,6.18099925 73.746,6.331 C73.5059988,6.48100075 73.2420014,6.69399862 72.954,6.97 L72.954,13 L70.308,13 L70.308,4.072 Z M80.28,10.516 C80.28,9.57999532 80.675996,8.84800264 81.468,8.32 C82.260004,7.79199736 83.5379912,7.4380009 85.302,7.258 C85.2779999,6.86199802 85.1580011,6.54700117 84.942,6.313 C84.7259989,6.07899883 84.3780024,5.962 83.898,5.962 C83.5139981,5.962 83.1300019,6.03399928 82.746,6.178 C82.3619981,6.32200072 81.9540022,6.51999874 81.522,6.772 L80.586,5.026 C81.1620029,4.67799826 81.7649968,4.39600108 82.395,4.18 C83.0250032,3.96399892 83.6939965,3.856 84.402,3.856 C85.5540058,3.856 86.432997,4.18299673 87.039,4.837 C87.645003,5.49100327 87.948,6.5079931 87.948,7.888 L87.948,13 L85.788,13 L85.59,12.082 L85.536,12.082 C85.1519981,12.4180017 84.7470021,12.6909989 84.321,12.901 C83.8949979,13.1110011 83.4300025,13.216 82.926,13.216 C82.517998,13.216 82.1520016,13.1470007 81.828,13.009 C81.5039984,12.8709993 81.2280011,12.6790012 81,12.433 C80.7719989,12.1869988 80.5950006,11.9020016 80.469,11.578 C80.3429994,11.2539984 80.28,10.9000019 80.28,10.516 Z M82.8,10.318 C82.8,10.6060014 82.8929991,10.8189993 83.079,10.957 C83.2650009,11.0950007 83.5139984,11.164 83.826,11.164 C84.1380016,11.164 84.4019989,11.0980007 84.618,10.966 C84.8340011,10.8339993 85.0619988,10.6480012 85.302,10.408 L85.302,8.842 C84.3539953,8.97400066 83.7000018,9.16599874 83.34,9.418 C82.9799982,9.67000126 82.8,9.96999826 82.8,10.318 Z M91.836,14.116 C91.836,14.4520017 92.0159982,14.7069991 92.376,14.881 C92.7360018,15.0550009 93.215997,15.142 93.816,15.142 C94.416003,15.142 94.9079981,15.0370011 95.292,14.827 C95.6760019,14.6169989 95.868,14.3560016 95.868,14.044 C95.868,13.7679986 95.7510012,13.5820005 95.517,13.486 C95.2829988,13.3899995 94.9440022,13.342 94.5,13.342 L93.582,13.342 C93.2699984,13.342 93.018001,13.3330001 92.826,13.315 C92.633999,13.2969999 92.4660007,13.2700002 92.322,13.234 C91.9979984,13.5220014 91.836,13.8159985 91.836,14.116 Z M89.658,14.53 C89.658,13.8099964 90.0839957,13.2100024 90.936,12.73 L90.936,12.658 C90.6959988,12.5019992 90.4980008,12.3040012 90.342,12.064 C90.1859992,11.8239988 90.108,11.5180019 90.108,11.146 C90.108,10.8219984 90.203999,10.5130015 90.396,10.219 C90.588001,9.92499853 90.8279986,9.67600102 91.116,9.472 L91.116,9.4 C90.8039984,9.18399892 90.5250012,8.87500201 90.279,8.473 C90.0329988,8.07099799 89.91,7.60600264 89.91,7.078 C89.91,6.5379973 90.011999,6.06700201 90.216,5.665 C90.420001,5.26299799 90.6929983,4.92700135 91.035,4.657 C91.3770017,4.38699865 91.7699978,4.18600066 92.214,4.054 C92.6580022,3.92199934 93.1199976,3.856 93.6,3.856 C94.1280026,3.856 94.589998,3.92799928 94.986,4.072 L98.244,4.072 L98.244,5.998 L96.822,5.998 C96.9060004,6.13000066 96.9749997,6.29799898 97.029,6.502 C97.0830003,6.70600102 97.11,6.9279988 97.11,7.168 C97.11,7.68400258 97.0200009,8.13099811 96.84,8.509 C96.6599991,8.88700189 96.4110016,9.19899877 96.093,9.445 C95.7749984,9.69100123 95.4030021,9.8739994 94.977,9.994 C94.5509979,10.1140006 94.0920025,10.174 93.6,10.174 C93.2519983,10.174 92.8920019,10.1140006 92.52,9.994 C92.3999994,10.0900005 92.3160002,10.1859995 92.268,10.282 C92.2199998,10.3780005 92.196,10.5039992 92.196,10.66 C92.196,10.8880011 92.294999,11.0559995 92.493,11.164 C92.691001,11.2720005 93.0419975,11.326 93.546,11.326 L94.986,11.326 C96.0900055,11.326 96.9329971,11.5029982 97.515,11.857 C98.0970029,12.2110018 98.388,12.789996 98.388,13.594 C98.388,14.0620023 98.2710012,14.4909981 98.037,14.881 C97.8029988,15.271002 97.4700022,15.6069986 97.038,15.889 C96.6059978,16.1710014 96.0840031,16.3929992 95.472,16.555 C94.8599969,16.7170008 94.1700038,16.798 93.402,16.798 C92.8739974,16.798 92.3850023,16.7530004 91.935,16.663 C91.4849978,16.5729996 91.0890017,16.4380009 90.747,16.258 C90.4049983,16.0779991 90.138001,15.8440014 89.946,15.556 C89.753999,15.2679986 89.658,14.926002 89.658,14.53 Z M93.6,8.572 C93.9480017,8.572 94.2389988,8.44900123 94.473,8.203 C94.7070012,7.95699877 94.824,7.58200252 94.824,7.078 C94.824,6.60999766 94.7070012,6.25300123 94.473,6.007 C94.2389988,5.76099877 93.9480017,5.638 93.6,5.638 C93.2519983,5.638 92.9610012,5.7579988 92.727,5.998 C92.4929988,6.2380012 92.376,6.5979976 92.376,7.078 C92.376,7.58200252 92.4929988,7.95699877 92.727,8.203 C92.9610012,8.44900123 93.2519983,8.572 93.6,8.572 Z M98.982,8.536 C98.982,7.8159964 99.1019988,7.16500291 99.342,6.583 C99.5820012,6.00099709 99.896998,5.50900201 100.287,5.107 C100.677002,4.70499799 101.123997,4.39600108 101.628,4.18 C102.132003,3.96399892 102.653997,3.856 103.194,3.856 C103.830003,3.856 104.384998,3.96399892 104.859,4.18 C105.333002,4.39600108 105.728998,4.69599808 106.047,5.08 C106.365002,5.46400192 106.601999,5.91699739 106.758,6.439 C106.914001,6.96100261 106.992,7.52799694 106.992,8.14 C106.992,8.3800012 106.98,8.59899901 106.956,8.797 C106.932,8.99500099 106.908,9.14799946 106.884,9.256 L101.538,9.256 C101.658001,9.94000342 101.924998,10.4349985 102.339,10.741 C102.753002,11.0470015 103.259997,11.2 103.86,11.2 C104.496003,11.2 105.137997,11.002002 105.786,10.606 L106.668,12.208 C106.211998,12.5200016 105.705003,12.7659991 105.147,12.946 C104.588997,13.1260009 104.040003,13.216 103.5,13.216 C102.863997,13.216 102.270003,13.1110011 101.718,12.901 C101.165997,12.6909989 100.686002,12.385002 100.278,11.983 C99.869998,11.580998 99.5520011,11.0920029 99.324,10.516 C99.0959989,9.93999712 98.982,9.28000372 98.982,8.536 Z M104.742,7.618 C104.742,7.10199742 104.628001,6.68200162 104.4,6.358 C104.171999,6.03399838 103.788003,5.872 103.248,5.872 C102.827998,5.872 102.459002,6.01299859 102.141,6.295 C101.822998,6.57700141 101.616,7.017997 101.52,7.618 L104.742,7.618 Z M108.828,4.072 L110.988,4.072 L111.168,5.638 L111.24,5.638 C111.564002,5.02599694 111.953998,4.57600144 112.41,4.288 C112.866002,3.99999856 113.321998,3.856 113.778,3.856 C114.030001,3.856 114.236999,3.87099985 114.399,3.901 C114.561001,3.93100015 114.707999,3.9759997 114.84,4.036 L114.408,6.322 C114.239999,6.27399976 114.084001,6.23800012 113.94,6.214 C113.795999,6.18999988 113.628001,6.178 113.436,6.178 C113.099998,6.178 112.749002,6.2979988 112.383,6.538 C112.016998,6.7780012 111.714001,7.20399694 111.474,7.816 L111.474,13 L108.828,13 L108.828,4.072 Z" id="Sales-Manager" fill="#79797B"></path>
            <g id="Group-9" transform="translate(0.000000, 449.000000)">
                <rect id="Rectangle" fill="#79797B" x="0" y="0" width="192" height="192.378906"></rect>
                <g id="icon-team" transform="translate(34.531272, 36.689476)" stroke="#FFFFFF">
                    <path d="M35.1426034,87.6766536 C29.6249184,49.1947986 37.9064772,29.7586144 59.9872799,29.3681008 C93.1084839,28.7823305 87.5566082,79.7980429 86.3339965,87.6766536" id="Path-5"></path>
                    <path d="M19.2809129,110.693021 C19.2809129,97.1714899 27.9426648,91.0463939 36.3081589,87.1857654 C41.8851549,84.6120131 45.5268854,83.9589669 47.2333503,85.2266268 C47.836497,89.2312128 48.5647248,92.0412055 49.4180337,93.6566049 C51.6181521,97.8216498 54.7623818,99.9221774 58.8507229,99.9581876 C68.5509472,100.043628 73.330168,91.2022988 73.330168,83.1282209 C73.3383873,82.7454498 76.6443013,83.4449184 83.2479099,85.2266268 C97.0932959,96.1961591 103.98546,104.480793 103.924403,110.080529" id="Path-6"></path>
                    <path d="M52.8671413,48.6009868 C57.4893151,54.4724221 62.1663819,58.6060082 66.8983419,61.0017451 C73.9962818,64.5953506 76.4013034,69.8507636 75.8790852,74.2278536 C75.3568671,78.6049436 64.7619148,93.4826069 60.8897508,93.6697204 C57.0175868,93.856834 42.8622163,82.8402033 43.6688805,74.4405991 C44.2066566,68.840863 47.2727435,60.2276589 52.8671413,48.6009868 Z" id="Path-7"></path>
                    <ellipse id="Oval-2" cx="63.3447757" cy="63.2034318" rx="63.3447757" ry="63.2034318"></ellipse>
                </g>
                <path d="M1.04133333,208.418916 C1.16629396,208.647739 1.31207917,208.81762 1.47869333,208.928564 C1.6453075,209.039509 1.81539024,209.09498 1.98894667,209.09498 C2.26663694,209.09498 2.47663707,209.01004 2.61895333,208.840156 C2.7612696,208.670272 2.83242667,208.359979 2.83242667,207.909267 L2.83242667,203.509649 L4.36318667,203.509649 L4.36318667,208.034079 C4.36318667,208.359979 4.31979821,208.668538 4.23302,208.959767 C4.14624179,209.250997 4.01434089,209.504085 3.83731333,209.71904 C3.66028578,209.933994 3.43466582,210.103876 3.16044667,210.228688 C2.88622752,210.353501 2.56168187,210.415906 2.1868,210.415906 C1.66613073,210.415906 1.23051064,210.315364 0.879926667,210.114277 C0.529342692,209.91319 0.236036736,209.604631 0,209.188589 L1.04133333,208.418916 Z M5.50865333,207.711649 C5.50865333,207.281739 5.57807486,206.898639 5.71692,206.562339 C5.85576514,206.226039 6.04146773,205.943481 6.27403333,205.714658 C6.50659894,205.485835 6.77560736,205.310754 7.08106667,205.189408 C7.38652597,205.068063 7.70239392,205.007391 8.02868,205.007391 C8.35496608,205.007391 8.66909849,205.068063 8.97108667,205.189408 C9.27307484,205.310754 9.54034773,205.485835 9.77291333,205.714658 C10.0054789,205.943481 10.1911815,206.226039 10.3300267,206.562339 C10.4688718,206.898639 10.5382933,207.281739 10.5382933,207.711649 C10.5382933,208.141558 10.4688718,208.524658 10.3300267,208.860958 C10.1911815,209.197258 10.0054789,209.479816 9.77291333,209.708639 C9.54034773,209.937462 9.27307484,210.112543 8.97108667,210.233889 C8.66909849,210.355234 8.35496608,210.415906 8.02868,210.415906 C7.70239392,210.415906 7.38652597,210.355234 7.08106667,210.233889 C6.77560736,210.112543 6.50659894,209.937462 6.27403333,209.708639 C6.04146773,209.479816 5.85576514,209.197258 5.71692,208.860958 C5.57807486,208.524658 5.50865333,208.141558 5.50865333,207.711649 Z M7.08106667,207.711649 C7.08106667,208.16236 7.15916589,208.519457 7.31536667,208.78295 C7.47156745,209.046444 7.70933618,209.178188 8.02868,209.178188 C8.34108156,209.178188 8.57711476,209.046444 8.73678667,208.78295 C8.89645858,208.519457 8.97629333,208.16236 8.97629333,207.711649 C8.97629333,207.260937 8.89645858,206.90384 8.73678667,206.640347 C8.57711476,206.376853 8.34108156,206.245109 8.02868,206.245109 C7.70933618,206.245109 7.47156745,206.376853 7.31536667,206.640347 C7.15916589,206.90384 7.08106667,207.260937 7.08106667,207.711649 Z M11.59004,203 L13.1208,203 L13.1208,204.78897 L13.0479067,205.714658 C13.2422899,205.541308 13.4679098,205.380094 13.7247733,205.231012 C13.9816368,205.081931 14.2870916,205.007391 14.6411467,205.007391 C15.2034695,205.007391 15.611321,205.19114 15.8647133,205.558644 C16.1181057,205.926147 16.2448,206.43579 16.2448,207.087589 L16.2448,210.291094 L14.71404,210.291094 L14.71404,207.285208 C14.71404,206.91077 14.6637094,206.654215 14.5630467,206.515535 C14.4623839,206.376854 14.3009789,206.307515 14.0788267,206.307515 C13.8844435,206.307515 13.7178318,206.350852 13.5789867,206.437527 C13.4401415,206.524203 13.2874142,206.64728 13.1208,206.806762 L13.1208,210.291094 L11.59004,210.291094 L11.59004,203 Z M17.5360533,205.132203 L18.7856533,205.132203 L18.8897867,205.787465 L18.93144,205.787465 C19.1535922,205.579445 19.3965676,205.397429 19.6603733,205.241413 C19.9241791,205.085398 20.2331049,205.007391 20.58716,205.007391 C21.1494828,205.007391 21.5573343,205.19114 21.8107267,205.558644 C22.064119,205.926147 22.1908133,206.43579 22.1908133,207.087589 L22.1908133,210.291094 L20.6600533,210.291094 L20.6600533,207.285208 C20.6600533,206.91077 20.6097227,206.654215 20.50906,206.515535 C20.4083973,206.376854 20.2469922,206.307515 20.02484,206.307515 C19.8304568,206.307515 19.6638451,206.350852 19.525,206.437527 C19.3861549,206.524203 19.2334275,206.64728 19.0668133,206.806762 L19.0668133,210.291094 L17.5360533,210.291094 L17.5360533,205.132203 Z M25.7834133,203.509649 L27.6994667,203.509649 C28.2201359,203.509649 28.6887313,203.575521 29.1052667,203.707267 C29.5218021,203.839014 29.879323,204.041831 30.17784,204.315725 C30.476357,204.589619 30.7054481,204.938049 30.86512,205.361025 C31.0247919,205.784 31.1046267,206.28671 31.1046267,206.869168 C31.1046267,207.451627 31.0247919,207.957803 30.86512,208.387713 C30.7054481,208.817623 30.4798281,209.172986 30.1882533,209.453814 C29.8966785,209.734642 29.5478354,209.944394 29.1417133,210.083074 C28.7355913,210.221755 28.2826158,210.291094 27.7827733,210.291094 L25.7834133,210.291094 L25.7834133,203.509649 Z M27.6057467,209.053376 C27.8973215,209.053376 28.1611233,209.01524 28.39716,208.938965 C28.6331967,208.862691 28.8345192,208.739614 29.0011333,208.56973 C29.1677475,208.399847 29.2979129,208.176227 29.3916333,207.898866 C29.4853538,207.621505 29.5322133,207.278276 29.5322133,206.869168 C29.5322133,206.466995 29.4853538,206.128966 29.3916333,205.855072 C29.2979129,205.581178 29.1677475,205.362759 29.0011333,205.199809 C28.8345192,205.03686 28.6331967,204.920717 28.39716,204.851376 C28.1611233,204.782036 27.8973215,204.747366 27.6057467,204.747366 L27.3141733,204.747366 L27.3141733,209.053376 L27.6057467,209.053376 Z M31.9689333,207.711649 C31.9689333,207.281739 32.0383549,206.898639 32.1772,206.562339 C32.3160451,206.226039 32.5017477,205.943481 32.7343133,205.714658 C32.9668789,205.485835 33.2358874,205.310754 33.5413467,205.189408 C33.846806,205.068063 34.1626739,205.007391 34.48896,205.007391 C34.8152461,205.007391 35.1293785,205.068063 35.4313667,205.189408 C35.7333548,205.310754 36.0006277,205.485835 36.2331933,205.714658 C36.4657589,205.943481 36.6514615,206.226039 36.7903067,206.562339 C36.9291518,206.898639 36.9985733,207.281739 36.9985733,207.711649 C36.9985733,208.141558 36.9291518,208.524658 36.7903067,208.860958 C36.6514615,209.197258 36.4657589,209.479816 36.2331933,209.708639 C36.0006277,209.937462 35.7333548,210.112543 35.4313667,210.233889 C35.1293785,210.355234 34.8152461,210.415906 34.48896,210.415906 C34.1626739,210.415906 33.846806,210.355234 33.5413467,210.233889 C33.2358874,210.112543 32.9668789,209.937462 32.7343133,209.708639 C32.5017477,209.479816 32.3160451,209.197258 32.1772,208.860958 C32.0383549,208.524658 31.9689333,208.141558 31.9689333,207.711649 Z M33.5413467,207.711649 C33.5413467,208.16236 33.6194459,208.519457 33.7756467,208.78295 C33.9318474,209.046444 34.1696162,209.178188 34.48896,209.178188 C34.8013616,209.178188 35.0373948,209.046444 35.1970667,208.78295 C35.3567386,208.519457 35.4365733,208.16236 35.4365733,207.711649 C35.4365733,207.260937 35.3567386,206.90384 35.1970667,206.640347 C35.0373948,206.376853 34.8013616,206.245109 34.48896,206.245109 C34.1696162,206.245109 33.9318474,206.376853 33.7756467,206.640347 C33.6194459,206.90384 33.5413467,207.260937 33.5413467,207.711649 Z M37.7483333,207.711649 C37.7483333,207.295607 37.8177549,206.919441 37.9566,206.583141 C38.0954451,206.246841 38.2776766,205.96255 38.5033,205.73026 C38.7289234,205.49797 38.9875185,205.319421 39.2790933,205.194609 C39.5706681,205.069796 39.8726518,205.007391 40.1850533,205.007391 C40.552993,205.007391 40.8740675,205.069796 41.1482867,205.194609 C41.4225058,205.319421 41.6515969,205.49277 41.8355667,205.714658 C42.0195365,205.936547 42.156644,206.198303 42.2468933,206.499933 C42.3371427,206.801563 42.3822667,207.129191 42.3822667,207.482827 C42.3822667,207.621507 42.3753245,207.748051 42.36144,207.862463 C42.3475555,207.976874 42.3336712,208.065282 42.3197867,208.127688 L39.2270267,208.127688 C39.2964492,208.522928 39.4509121,208.808952 39.69042,208.98577 C39.9299279,209.162588 40.2232338,209.250995 40.5703467,209.250995 C40.9382863,209.250995 41.3096915,209.136585 41.6845733,208.907762 L42.1948267,209.83345 C41.9310209,210.013735 41.6377149,210.155881 41.3149,210.259891 C40.9920851,210.363902 40.6744816,210.415906 40.36208,210.415906 C39.9941404,210.415906 39.6505038,210.355234 39.33116,210.233889 C39.0118162,210.112543 38.7341301,209.935728 38.4980933,209.703438 C38.2620566,209.471148 38.0780895,209.188591 37.9461867,208.855757 C37.8142838,208.522924 37.7483333,208.141558 37.7483333,207.711649 Z M41.0806,207.181198 C41.0806,206.883035 41.0146495,206.640347 40.8827467,206.453129 C40.7508438,206.26591 40.5286949,206.172302 40.2162933,206.172302 C39.9733143,206.172302 39.7598431,206.253776 39.5758733,206.416725 C39.3919035,206.579675 39.2721514,206.834497 39.2166133,207.181198 L41.0806,207.181198 Z" id="John-Doe" fill="#79797B"></path>
                <path d="M0.5,222.5 L191.523559,222.5" id="Line" stroke="#979797" stroke-width="3" stroke-linecap="square"></path>
                <path d="M0.5,236.084094 L161.500537,236.084094" id="Line" stroke="#979797" stroke-width="3" stroke-linecap="square"></path>
                <path d="M0.5,259.5 L55.5363516,259.5" id="Line" stroke="#979797" stroke-width="3" stroke-linecap="square"></path>
                <path d="M0.5,273.084094 L55.5363516,273.084094" id="Line" stroke="#4990E2" stroke-width="3" stroke-linecap="square"></path>
            </g>
            <g id="Group-9" transform="translate(204.000000, 449.000000)">
                <rect id="Rectangle" fill="#79797B" x="0" y="0" width="192" height="192.378906"></rect>
                <g id="icon-team" transform="translate(34.531272, 36.689476)" stroke="#FFFFFF">
                    <path d="M35.1426034,87.6766536 C29.6249184,49.1947986 37.9064772,29.7586144 59.9872799,29.3681008 C93.1084839,28.7823305 87.5566082,79.7980429 86.3339965,87.6766536" id="Path-5"></path>
                    <path d="M19.2809129,110.693021 C19.2809129,97.1714899 27.9426648,91.0463939 36.3081589,87.1857654 C41.8851549,84.6120131 45.5268854,83.9589669 47.2333503,85.2266268 C47.836497,89.2312128 48.5647248,92.0412055 49.4180337,93.6566049 C51.6181521,97.8216498 54.7623818,99.9221774 58.8507229,99.9581876 C68.5509472,100.043628 73.330168,91.2022988 73.330168,83.1282209 C73.3383873,82.7454498 76.6443013,83.4449184 83.2479099,85.2266268 C97.0932959,96.1961591 103.98546,104.480793 103.924403,110.080529" id="Path-6"></path>
                    <path d="M52.8671413,48.6009868 C57.4893151,54.4724221 62.1663819,58.6060082 66.8983419,61.0017451 C73.9962818,64.5953506 76.4013034,69.8507636 75.8790852,74.2278536 C75.3568671,78.6049436 64.7619148,93.4826069 60.8897508,93.6697204 C57.0175868,93.856834 42.8622163,82.8402033 43.6688805,74.4405991 C44.2066566,68.840863 47.2727435,60.2276589 52.8671413,48.6009868 Z" id="Path-7"></path>
                    <ellipse id="Oval-2" cx="63.3447757" cy="63.2034318" rx="63.3447757" ry="63.2034318"></ellipse>
                </g>
                <path d="M1.04133333,208.418916 C1.16629396,208.647739 1.31207917,208.81762 1.47869333,208.928564 C1.6453075,209.039509 1.81539024,209.09498 1.98894667,209.09498 C2.26663694,209.09498 2.47663707,209.01004 2.61895333,208.840156 C2.7612696,208.670272 2.83242667,208.359979 2.83242667,207.909267 L2.83242667,203.509649 L4.36318667,203.509649 L4.36318667,208.034079 C4.36318667,208.359979 4.31979821,208.668538 4.23302,208.959767 C4.14624179,209.250997 4.01434089,209.504085 3.83731333,209.71904 C3.66028578,209.933994 3.43466582,210.103876 3.16044667,210.228688 C2.88622752,210.353501 2.56168187,210.415906 2.1868,210.415906 C1.66613073,210.415906 1.23051064,210.315364 0.879926667,210.114277 C0.529342692,209.91319 0.236036736,209.604631 0,209.188589 L1.04133333,208.418916 Z M5.50865333,207.711649 C5.50865333,207.281739 5.57807486,206.898639 5.71692,206.562339 C5.85576514,206.226039 6.04146773,205.943481 6.27403333,205.714658 C6.50659894,205.485835 6.77560736,205.310754 7.08106667,205.189408 C7.38652597,205.068063 7.70239392,205.007391 8.02868,205.007391 C8.35496608,205.007391 8.66909849,205.068063 8.97108667,205.189408 C9.27307484,205.310754 9.54034773,205.485835 9.77291333,205.714658 C10.0054789,205.943481 10.1911815,206.226039 10.3300267,206.562339 C10.4688718,206.898639 10.5382933,207.281739 10.5382933,207.711649 C10.5382933,208.141558 10.4688718,208.524658 10.3300267,208.860958 C10.1911815,209.197258 10.0054789,209.479816 9.77291333,209.708639 C9.54034773,209.937462 9.27307484,210.112543 8.97108667,210.233889 C8.66909849,210.355234 8.35496608,210.415906 8.02868,210.415906 C7.70239392,210.415906 7.38652597,210.355234 7.08106667,210.233889 C6.77560736,210.112543 6.50659894,209.937462 6.27403333,209.708639 C6.04146773,209.479816 5.85576514,209.197258 5.71692,208.860958 C5.57807486,208.524658 5.50865333,208.141558 5.50865333,207.711649 Z M7.08106667,207.711649 C7.08106667,208.16236 7.15916589,208.519457 7.31536667,208.78295 C7.47156745,209.046444 7.70933618,209.178188 8.02868,209.178188 C8.34108156,209.178188 8.57711476,209.046444 8.73678667,208.78295 C8.89645858,208.519457 8.97629333,208.16236 8.97629333,207.711649 C8.97629333,207.260937 8.89645858,206.90384 8.73678667,206.640347 C8.57711476,206.376853 8.34108156,206.245109 8.02868,206.245109 C7.70933618,206.245109 7.47156745,206.376853 7.31536667,206.640347 C7.15916589,206.90384 7.08106667,207.260937 7.08106667,207.711649 Z M11.59004,203 L13.1208,203 L13.1208,204.78897 L13.0479067,205.714658 C13.2422899,205.541308 13.4679098,205.380094 13.7247733,205.231012 C13.9816368,205.081931 14.2870916,205.007391 14.6411467,205.007391 C15.2034695,205.007391 15.611321,205.19114 15.8647133,205.558644 C16.1181057,205.926147 16.2448,206.43579 16.2448,207.087589 L16.2448,210.291094 L14.71404,210.291094 L14.71404,207.285208 C14.71404,206.91077 14.6637094,206.654215 14.5630467,206.515535 C14.4623839,206.376854 14.3009789,206.307515 14.0788267,206.307515 C13.8844435,206.307515 13.7178318,206.350852 13.5789867,206.437527 C13.4401415,206.524203 13.2874142,206.64728 13.1208,206.806762 L13.1208,210.291094 L11.59004,210.291094 L11.59004,203 Z M17.5360533,205.132203 L18.7856533,205.132203 L18.8897867,205.787465 L18.93144,205.787465 C19.1535922,205.579445 19.3965676,205.397429 19.6603733,205.241413 C19.9241791,205.085398 20.2331049,205.007391 20.58716,205.007391 C21.1494828,205.007391 21.5573343,205.19114 21.8107267,205.558644 C22.064119,205.926147 22.1908133,206.43579 22.1908133,207.087589 L22.1908133,210.291094 L20.6600533,210.291094 L20.6600533,207.285208 C20.6600533,206.91077 20.6097227,206.654215 20.50906,206.515535 C20.4083973,206.376854 20.2469922,206.307515 20.02484,206.307515 C19.8304568,206.307515 19.6638451,206.350852 19.525,206.437527 C19.3861549,206.524203 19.2334275,206.64728 19.0668133,206.806762 L19.0668133,210.291094 L17.5360533,210.291094 L17.5360533,205.132203 Z M25.7834133,203.509649 L27.6994667,203.509649 C28.2201359,203.509649 28.6887313,203.575521 29.1052667,203.707267 C29.5218021,203.839014 29.879323,204.041831 30.17784,204.315725 C30.476357,204.589619 30.7054481,204.938049 30.86512,205.361025 C31.0247919,205.784 31.1046267,206.28671 31.1046267,206.869168 C31.1046267,207.451627 31.0247919,207.957803 30.86512,208.387713 C30.7054481,208.817623 30.4798281,209.172986 30.1882533,209.453814 C29.8966785,209.734642 29.5478354,209.944394 29.1417133,210.083074 C28.7355913,210.221755 28.2826158,210.291094 27.7827733,210.291094 L25.7834133,210.291094 L25.7834133,203.509649 Z M27.6057467,209.053376 C27.8973215,209.053376 28.1611233,209.01524 28.39716,208.938965 C28.6331967,208.862691 28.8345192,208.739614 29.0011333,208.56973 C29.1677475,208.399847 29.2979129,208.176227 29.3916333,207.898866 C29.4853538,207.621505 29.5322133,207.278276 29.5322133,206.869168 C29.5322133,206.466995 29.4853538,206.128966 29.3916333,205.855072 C29.2979129,205.581178 29.1677475,205.362759 29.0011333,205.199809 C28.8345192,205.03686 28.6331967,204.920717 28.39716,204.851376 C28.1611233,204.782036 27.8973215,204.747366 27.6057467,204.747366 L27.3141733,204.747366 L27.3141733,209.053376 L27.6057467,209.053376 Z M31.9689333,207.711649 C31.9689333,207.281739 32.0383549,206.898639 32.1772,206.562339 C32.3160451,206.226039 32.5017477,205.943481 32.7343133,205.714658 C32.9668789,205.485835 33.2358874,205.310754 33.5413467,205.189408 C33.846806,205.068063 34.1626739,205.007391 34.48896,205.007391 C34.8152461,205.007391 35.1293785,205.068063 35.4313667,205.189408 C35.7333548,205.310754 36.0006277,205.485835 36.2331933,205.714658 C36.4657589,205.943481 36.6514615,206.226039 36.7903067,206.562339 C36.9291518,206.898639 36.9985733,207.281739 36.9985733,207.711649 C36.9985733,208.141558 36.9291518,208.524658 36.7903067,208.860958 C36.6514615,209.197258 36.4657589,209.479816 36.2331933,209.708639 C36.0006277,209.937462 35.7333548,210.112543 35.4313667,210.233889 C35.1293785,210.355234 34.8152461,210.415906 34.48896,210.415906 C34.1626739,210.415906 33.846806,210.355234 33.5413467,210.233889 C33.2358874,210.112543 32.9668789,209.937462 32.7343133,209.708639 C32.5017477,209.479816 32.3160451,209.197258 32.1772,208.860958 C32.0383549,208.524658 31.9689333,208.141558 31.9689333,207.711649 Z M33.5413467,207.711649 C33.5413467,208.16236 33.6194459,208.519457 33.7756467,208.78295 C33.9318474,209.046444 34.1696162,209.178188 34.48896,209.178188 C34.8013616,209.178188 35.0373948,209.046444 35.1970667,208.78295 C35.3567386,208.519457 35.4365733,208.16236 35.4365733,207.711649 C35.4365733,207.260937 35.3567386,206.90384 35.1970667,206.640347 C35.0373948,206.376853 34.8013616,206.245109 34.48896,206.245109 C34.1696162,206.245109 33.9318474,206.376853 33.7756467,206.640347 C33.6194459,206.90384 33.5413467,207.260937 33.5413467,207.711649 Z M37.7483333,207.711649 C37.7483333,207.295607 37.8177549,206.919441 37.9566,206.583141 C38.0954451,206.246841 38.2776766,205.96255 38.5033,205.73026 C38.7289234,205.49797 38.9875185,205.319421 39.2790933,205.194609 C39.5706681,205.069796 39.8726518,205.007391 40.1850533,205.007391 C40.552993,205.007391 40.8740675,205.069796 41.1482867,205.194609 C41.4225058,205.319421 41.6515969,205.49277 41.8355667,205.714658 C42.0195365,205.936547 42.156644,206.198303 42.2468933,206.499933 C42.3371427,206.801563 42.3822667,207.129191 42.3822667,207.482827 C42.3822667,207.621507 42.3753245,207.748051 42.36144,207.862463 C42.3475555,207.976874 42.3336712,208.065282 42.3197867,208.127688 L39.2270267,208.127688 C39.2964492,208.522928 39.4509121,208.808952 39.69042,208.98577 C39.9299279,209.162588 40.2232338,209.250995 40.5703467,209.250995 C40.9382863,209.250995 41.3096915,209.136585 41.6845733,208.907762 L42.1948267,209.83345 C41.9310209,210.013735 41.6377149,210.155881 41.3149,210.259891 C40.9920851,210.363902 40.6744816,210.415906 40.36208,210.415906 C39.9941404,210.415906 39.6505038,210.355234 39.33116,210.233889 C39.0118162,210.112543 38.7341301,209.935728 38.4980933,209.703438 C38.2620566,209.471148 38.0780895,209.188591 37.9461867,208.855757 C37.8142838,208.522924 37.7483333,208.141558 37.7483333,207.711649 Z M41.0806,207.181198 C41.0806,206.883035 41.0146495,206.640347 40.8827467,206.453129 C40.7508438,206.26591 40.5286949,206.172302 40.2162933,206.172302 C39.9733143,206.172302 39.7598431,206.253776 39.5758733,206.416725 C39.3919035,206.579675 39.2721514,206.834497 39.2166133,207.181198 L41.0806,207.181198 Z" id="John-Doe" fill="#79797B"></path>
                <path d="M0.5,222.5 L191.523559,222.5" id="Line" stroke="#979797" stroke-width="3" stroke-linecap="square"></path>
                <path d="M0.5,236.084094 L161.500537,236.084094" id="Line" stroke="#979797" stroke-width="3" stroke-linecap="square"></path>
                <path d="M0.5,259.5 L55.5363516,259.5" id="Line" stroke="#979797" stroke-width="3" stroke-linecap="square"></path>
                <path d="M0.5,273.084094 L55.5363516,273.084094" id="Line" stroke="#4990E2" stroke-width="3" stroke-linecap="square"></path>
            </g>
            <path d="M1,404.26 L5.014,404.26 C5.62600306,404.26 6.19299739,404.305 6.715,404.395 C7.23700261,404.485 7.69299805,404.643999 8.083,404.872 C8.47300195,405.100001 8.77899889,405.399998 9.001,405.772 C9.22300111,406.144002 9.334,406.611997 9.334,407.176 C9.334,407.440001 9.29500039,407.703999 9.217,407.968 C9.13899961,408.232001 9.02200078,408.477999 8.866,408.706 C8.70999922,408.934001 8.50600126,409.137999 8.254,409.318 C8.00199874,409.498001 7.70800168,409.63 7.372,409.714 L7.372,409.786 C8.2120042,409.942001 8.84499787,410.241998 9.271,410.686 C9.69700213,411.130002 9.91,411.747996 9.91,412.54 C9.91,413.140003 9.79300117,413.655998 9.559,414.088 C9.32499883,414.520002 9.00100207,414.876999 8.587,415.159 C8.17299793,415.441001 7.69000276,415.650999 7.138,415.789 C6.58599724,415.927001 5.99200318,415.996 5.356,415.996 L1,415.996 L1,404.26 Z M4.888,408.994 C5.53600324,408.994 6.00699853,408.865001 6.301,408.607 C6.59500147,408.348999 6.742,407.998002 6.742,407.554 C6.742,407.109998 6.5920015,406.792001 6.292,406.6 C5.9919985,406.407999 5.53000312,406.312 4.906,406.312 L3.646,406.312 L3.646,408.994 L4.888,408.994 Z M5.14,413.944 C6.59200726,413.944 7.318,413.410005 7.318,412.342 C7.318,411.825997 7.1380018,411.451001 6.778,411.217 C6.4179982,410.982999 5.87200366,410.866 5.14,410.866 L3.646,410.866 L3.646,413.944 L5.14,413.944 Z M11.35,413.512 C11.35,412.575995 11.745996,411.844003 12.538,411.316 C13.330004,410.787997 14.6079912,410.434001 16.372,410.254 C16.3479999,409.857998 16.2280011,409.543001 16.012,409.309 C15.7959989,409.074999 15.4480024,408.958 14.968,408.958 C14.5839981,408.958 14.2000019,409.029999 13.816,409.174 C13.4319981,409.318001 13.0240022,409.515999 12.592,409.768 L11.656,408.022 C12.2320029,407.673998 12.8349968,407.392001 13.465,407.176 C14.0950031,406.959999 14.7639965,406.852 15.472,406.852 C16.6240058,406.852 17.502997,407.178997 18.109,407.833 C18.715003,408.487003 19.018,409.503993 19.018,410.884 L19.018,415.996 L16.858,415.996 L16.66,415.078 L16.606,415.078 C16.2219981,415.414002 15.8170021,415.686999 15.391,415.897 C14.9649979,416.107001 14.5000025,416.212 13.996,416.212 C13.587998,416.212 13.2220016,416.143001 12.898,416.005 C12.5739984,415.866999 12.2980011,415.675001 12.07,415.429 C11.8419989,415.182999 11.6650006,414.898002 11.539,414.574 C11.4129994,414.249998 11.35,413.896002 11.35,413.512 Z M13.87,413.314 C13.87,413.602001 13.9629991,413.814999 14.149,413.953 C14.3350009,414.091001 14.5839984,414.16 14.896,414.16 C15.2080016,414.16 15.4719989,414.094001 15.688,413.962 C15.9040011,413.829999 16.1319988,413.644001 16.372,413.404 L16.372,411.838 C15.4239953,411.970001 14.7700018,412.161999 14.41,412.414 C14.0499982,412.666001 13.87,412.965998 13.87,413.314 Z M20.764,411.532 C20.764,410.787996 20.8899987,410.125003 21.142,409.543 C21.3940013,408.960997 21.7329979,408.472002 22.159,408.076 C22.5850021,407.679998 23.0799972,407.377001 23.644,407.167 C24.2080028,406.956999 24.7959969,406.852 25.408,406.852 C25.9600028,406.852 26.4579978,406.944999 26.902,407.131 C27.3460022,407.317001 27.7179985,407.565998 28.018,407.878 L26.812,409.516 C26.3919979,409.167998 25.978002,408.994 25.57,408.994 C24.9219968,408.994 24.4120019,409.221998 24.04,409.678 C23.6679981,410.134002 23.482,410.751996 23.482,411.532 C23.482,412.312004 23.6709981,412.929998 24.049,413.386 C24.4270019,413.842002 24.9039971,414.07 25.48,414.07 C25.8040016,414.07 26.0979987,414.004001 26.362,413.872 C26.6260013,413.739999 26.8659989,413.590001 27.082,413.422 L28.144,415.096 C27.7119978,415.480002 27.2320026,415.761999 26.704,415.942 C26.1759974,416.122001 25.6660025,416.212 25.174,416.212 C24.5499969,416.212 23.9710027,416.107001 23.437,415.897 C22.9029973,415.686999 22.438002,415.384002 22.042,414.988 C21.645998,414.591998 21.3340011,414.103003 21.106,413.521 C20.8779989,412.938997 20.764,412.276004 20.764,411.532 Z M29.692,403.378 L32.266,403.378 L32.266,410.614 L32.338,410.614 L35.164,407.068 L38.044,407.068 L34.912,410.74 L38.278,415.996 L35.416,415.996 L33.4,412.522 L32.266,413.8 L32.266,415.996 L29.692,415.996 L29.692,403.378 Z M38.53,411.532 C38.53,410.787996 38.6499988,410.125003 38.89,409.543 C39.1300012,408.960997 39.450998,408.472002 39.853,408.076 C40.255002,407.679998 40.7199974,407.377001 41.248,407.167 C41.7760026,406.956999 42.3219972,406.852 42.886,406.852 C43.4500028,406.852 43.9929974,406.956999 44.515,407.167 C45.0370026,407.377001 45.498998,407.679998 45.901,408.076 C46.303002,408.472002 46.6239988,408.960997 46.864,409.543 C47.1040012,410.125003 47.224,410.787996 47.224,411.532 C47.224,412.276004 47.1040012,412.938997 46.864,413.521 C46.6239988,414.103003 46.303002,414.591998 45.901,414.988 C45.498998,415.384002 45.0370026,415.686999 44.515,415.897 C43.9929974,416.107001 43.4500028,416.212 42.886,416.212 C42.3219972,416.212 41.7760026,416.107001 41.248,415.897 C40.7199974,415.686999 40.255002,415.384002 39.853,414.988 C39.450998,414.591998 39.1300012,414.103003 38.89,413.521 C38.6499988,412.938997 38.53,412.276004 38.53,411.532 Z M41.248,411.532 C41.248,412.312004 41.3829986,412.929998 41.653,413.386 C41.9230013,413.842002 42.3339972,414.07 42.886,414.07 C43.4260027,414.07 43.8339986,413.842002 44.11,413.386 C44.3860014,412.929998 44.524,412.312004 44.524,411.532 C44.524,410.751996 44.3860014,410.134002 44.11,409.678 C43.8339986,409.221998 43.4260027,408.994 42.886,408.994 C42.3339972,408.994 41.9230013,409.221998 41.653,409.678 C41.3829986,410.134002 41.248,410.751996 41.248,411.532 Z M59.68,405.43 C59.3439983,405.309999 59.0380014,405.25 58.762,405.25 C58.4379984,405.25 58.1860009,405.348999 58.006,405.547 C57.8259991,405.745001 57.736,406.071998 57.736,406.528 L57.736,407.068 L59.338,407.068 L59.338,409.138 L57.736,409.138 L57.736,415.996 L55.09,415.996 L55.09,409.138 L52.048,409.138 L52.048,415.996 L49.402,415.996 L49.402,409.138 L48.214,409.138 L48.214,407.176 L49.402,407.086 L49.402,406.672 C49.402,406.215998 49.4649994,405.784002 49.591,405.376 C49.7170006,404.967998 49.9149986,404.614002 50.185,404.314 C50.4550013,404.013999 50.8029979,403.777001 51.229,403.603 C51.6550021,403.428999 52.1739969,403.342 52.786,403.342 C53.1700019,403.342 53.5239984,403.375 53.848,403.441 C54.1720016,403.507 54.435999,403.582 54.64,403.666 L54.154,405.628 C54.0099993,405.568 53.8600008,405.52 53.704,405.484 C53.5479992,405.448 53.3500012,405.43 53.11,405.43 C52.7979984,405.43 52.543001,405.528999 52.345,405.727 C52.146999,405.925001 52.048,406.233998 52.048,406.654 L52.048,407.068 L55.09,407.068 L55.09,406.6 C55.09,406.131998 55.1469994,405.688002 55.261,405.268 C55.3750006,404.847998 55.5639987,404.482002 55.828,404.17 C56.0920013,403.857998 56.4309979,403.612001 56.845,403.432 C57.2590021,403.251999 57.765997,403.162 58.366,403.162 C58.7500019,403.162 59.0919985,403.198 59.392,403.27 C59.6920015,403.342 59.943999,403.414 60.148,403.486 L59.68,405.43 Z M62.074,405.754 C61.6299978,405.754 61.2640014,405.625001 60.976,405.367 C60.6879986,405.108999 60.544,404.776002 60.544,404.368 C60.544,403.959998 60.6879986,403.630001 60.976,403.378 C61.2640014,403.125999 61.6299978,403 62.074,403 C62.5300023,403 62.8989986,403.125999 63.181,403.378 C63.4630014,403.630001 63.604,403.959998 63.604,404.368 C63.604,404.776002 63.4630014,405.108999 63.181,405.367 C62.8989986,405.625001 62.5300023,405.754 62.074,405.754 Z M60.76,407.068 L63.406,407.068 L63.406,415.996 L60.76,415.996 L60.76,407.068 Z M65.206,411.532 C65.206,410.787996 65.3319987,410.125003 65.584,409.543 C65.8360013,408.960997 66.1749979,408.472002 66.601,408.076 C67.0270021,407.679998 67.5219972,407.377001 68.086,407.167 C68.6500028,406.956999 69.2379969,406.852 69.85,406.852 C70.4020028,406.852 70.8999978,406.944999 71.344,407.131 C71.7880022,407.317001 72.1599985,407.565998 72.46,407.878 L71.254,409.516 C70.8339979,409.167998 70.420002,408.994 70.012,408.994 C69.3639968,408.994 68.8540019,409.221998 68.482,409.678 C68.1099981,410.134002 67.924,410.751996 67.924,411.532 C67.924,412.312004 68.1129981,412.929998 68.491,413.386 C68.8690019,413.842002 69.3459971,414.07 69.922,414.07 C70.2460016,414.07 70.5399987,414.004001 70.804,413.872 C71.0680013,413.739999 71.3079989,413.590001 71.524,413.422 L72.586,415.096 C72.1539978,415.480002 71.6740026,415.761999 71.146,415.942 C70.6179974,416.122001 70.1080025,416.212 69.616,416.212 C68.9919969,416.212 68.4130027,416.107001 67.879,415.897 C67.3449973,415.686999 66.880002,415.384002 66.484,414.988 C66.087998,414.591998 65.7760011,414.103003 65.548,413.521 C65.3199989,412.938997 65.206,412.276004 65.206,411.532 Z M73.108,411.532 C73.108,410.811996 73.2279988,410.161003 73.468,409.579 C73.7080012,408.996997 74.0229981,408.505002 74.413,408.103 C74.803002,407.700998 75.2499975,407.392001 75.754,407.176 C76.2580025,406.959999 76.7799973,406.852 77.32,406.852 C77.9560032,406.852 78.5109976,406.959999 78.985,407.176 C79.4590024,407.392001 79.8549984,407.691998 80.173,408.076 C80.4910016,408.460002 80.7279992,408.912997 80.884,409.435 C81.0400008,409.957003 81.118,410.523997 81.118,411.136 C81.118,411.376001 81.1060001,411.594999 81.082,411.793 C81.0579999,411.991001 81.0340001,412.143999 81.01,412.252 L75.664,412.252 C75.7840006,412.936003 76.0509979,413.430998 76.465,413.737 C76.8790021,414.043002 77.385997,414.196 77.986,414.196 C78.6220032,414.196 79.2639968,413.998002 79.912,413.602 L80.794,415.204 C80.3379977,415.516002 79.8310028,415.761999 79.273,415.942 C78.7149972,416.122001 78.1660027,416.212 77.626,416.212 C76.9899968,416.212 76.3960028,416.107001 75.844,415.897 C75.2919972,415.686999 74.812002,415.381002 74.404,414.979 C73.995998,414.576998 73.6780011,414.088003 73.45,413.512 C73.2219989,412.935997 73.108,412.276004 73.108,411.532 Z M78.868,410.614 C78.868,410.097997 78.7540011,409.678002 78.526,409.354 C78.2979989,409.029998 77.9140027,408.868 77.374,408.868 C76.9539979,408.868 76.5850016,409.008999 76.267,409.291 C75.9489984,409.573001 75.7420005,410.013997 75.646,410.614 L78.868,410.614 Z" id="Backoffice" fill="#79797B"></path>
        </g>
    </g>
</svg>