<?xml version="1.0" encoding="UTF-8"?>
<svg width="600px" height="467px" viewBox="0 0 600 467" version="1.1" xmlns="http://www.w3.org/2000/svg" xmlns:xlink="http://www.w3.org/1999/xlink">
    <!-- Generator: Sketch 44.1 (41455) - http://www.bohemiancoding.com/sketch -->
    <title>teambox08</title>
    <desc>Created with Sketch.</desc>
    <defs></defs>
    <g id="Team" stroke="none" stroke-width="1" fill="none" fill-rule="evenodd">
        <g id="08">
            <g id="Group-10" transform="translate(407.000000, 75.000000)">
                <rect id="Rectangle" fill="#79797B" x="0" y="0" width="193" height="189.2251"></rect>
                <g id="icon-team" transform="translate(34.509934, 36.979866)" stroke="#FFFFFF">
                    <path d="M35.1680532,87.1514457 C29.3724517,48.692359 37.3541994,29.2707599 59.1132962,28.8866483 C91.7519414,28.310481 86.2809536,78.4898559 85.0761547,86.2393068" id="Path-5"></path>
                    <path d="M18.9543271,106.913013 C18.9543271,93.6131505 27.5355546,90.5497261 35.7791678,86.7523877 C41.2749099,84.2208288 44.8635822,83.5784884 46.5451847,84.8253666 C47.1395439,88.7643025 47.8571619,91.528229 48.6980385,93.117146 C50.8661022,97.2139103 53.9645222,99.2800024 57.9932982,99.3154223 C67.5521953,99.3994616 72.2617854,90.7030751 72.2617854,82.7613614 C72.2698849,82.3848654 75.5276334,83.0728671 82.0350308,84.8253666 C95.7751896,96.0167013 102.615185,104.366336 102.555017,109.874272" id="Path-6"></path>
                    <path d="M52.0968944,47.8042357 C56.6517255,53.5794163 61.2606499,57.6452375 65.9236676,60.0016994 C72.9181942,63.5363923 75.2881758,68.7056495 74.7735661,73.0109827 C74.2589564,77.3163159 63.8183671,91.9500789 60.0026186,92.1341249 C56.18687,92.318171 42.237736,81.4821439 43.0326474,73.2202406 C43.5625884,67.712305 46.584004,59.2403034 52.0968944,47.8042357 Z" id="Path-7"></path>
                    <ellipse id="Oval-2" cx="62.421875" cy="62.1672922" rx="62.421875" ry="62.1672922"></ellipse>
                </g>
            </g>
            <g id="Group-10" transform="translate(407.000000, 75.000000)">
                <rect id="Rectangle" fill="#79797B" x="0" y="0" width="193" height="189.2251"></rect>
                <g id="icon-team" transform="translate(34.509934, 36.979866)" stroke="#FFFFFF">
                    <path d="M35.1680532,87.1514457 C29.3724517,48.692359 37.3541994,29.2707599 59.1132962,28.8866483 C91.7519414,28.310481 86.2809536,78.4898559 85.0761547,86.2393068" id="Path-5"></path>
                    <path d="M18.9543271,106.913013 C18.9543271,93.6131505 27.5355546,90.5497261 35.7791678,86.7523877 C41.2749099,84.2208288 44.8635822,83.5784884 46.5451847,84.8253666 C47.1395439,88.7643025 47.8571619,91.528229 48.6980385,93.117146 C50.8661022,97.2139103 53.9645222,99.2800024 57.9932982,99.3154223 C67.5521953,99.3994616 72.2617854,90.7030751 72.2617854,82.7613614 C72.2698849,82.3848654 75.5276334,83.0728671 82.0350308,84.8253666 C95.7751896,96.0167013 102.615185,104.366336 102.555017,109.874272" id="Path-6"></path>
                    <path d="M52.0968944,47.8042357 C56.6517255,53.5794163 61.2606499,57.6452375 65.9236676,60.0016994 C72.9181942,63.5363923 75.2881758,68.7056495 74.7735661,73.0109827 C74.2589564,77.3163159 63.8183671,91.9500789 60.0026186,92.1341249 C56.18687,92.318171 42.237736,81.4821439 43.0326474,73.2202406 C43.5625884,67.712305 46.584004,59.2403034 52.0968944,47.8042357 Z" id="Path-7"></path>
                    <ellipse id="Oval-2" cx="62.421875" cy="62.1672922" rx="62.421875" ry="62.1672922"></ellipse>
                </g>
            </g>
            <g id="Group-10" transform="translate(204.000000, 75.000000)">
                <rect id="Rectangle" fill="#79797B" x="0" y="0" width="193" height="189.2251"></rect>
                <g id="icon-team" transform="translate(34.509934, 36.979866)" stroke="#FFFFFF">
                    <path d="M35.1680532,87.1514457 C29.3724517,48.692359 37.3541994,29.2707599 59.1132962,28.8866483 C91.7519414,28.310481 86.2809536,78.4898559 85.0761547,86.2393068" id="Path-5"></path>
                    <path d="M18.9543271,106.913013 C18.9543271,93.6131505 27.5355546,90.5497261 35.7791678,86.7523877 C41.2749099,84.2208288 44.8635822,83.5784884 46.5451847,84.8253666 C47.1395439,88.7643025 47.8571619,91.528229 48.6980385,93.117146 C50.8661022,97.2139103 53.9645222,99.2800024 57.9932982,99.3154223 C67.5521953,99.3994616 72.2617854,90.7030751 72.2617854,82.7613614 C72.2698849,82.3848654 75.5276334,83.0728671 82.0350308,84.8253666 C95.7751896,96.0167013 102.615185,104.366336 102.555017,109.874272" id="Path-6"></path>
                    <path d="M52.0968944,47.8042357 C56.6517255,53.5794163 61.2606499,57.6452375 65.9236676,60.0016994 C72.9181942,63.5363923 75.2881758,68.7056495 74.7735661,73.0109827 C74.2589564,77.3163159 63.8183671,91.9500789 60.0026186,92.1341249 C56.18687,92.318171 42.237736,81.4821439 43.0326474,73.2202406 C43.5625884,67.712305 46.584004,59.2403034 52.0968944,47.8042357 Z" id="Path-7"></path>
                    <ellipse id="Oval-2" cx="62.421875" cy="62.1672922" rx="62.421875" ry="62.1672922"></ellipse>
                </g>
            </g>
            <g id="Group-10" transform="translate(0.000000, 277.000000)">
                <rect id="Rectangle" fill="#79797B" x="0" y="0" width="193" height="189.2251"></rect>
                <g id="icon-team" transform="translate(34.509934, 36.979866)" stroke="#FFFFFF">
                    <path d="M35.1680532,87.1514457 C29.3724517,48.692359 37.3541994,29.2707599 59.1132962,28.8866483 C91.7519414,28.310481 86.2809536,78.4898559 85.0761547,86.2393068" id="Path-5"></path>
                    <path d="M18.9543271,106.913013 C18.9543271,93.6131505 27.5355546,90.5497261 35.7791678,86.7523877 C41.2749099,84.2208288 44.8635822,83.5784884 46.5451847,84.8253666 C47.1395439,88.7643025 47.8571619,91.528229 48.6980385,93.117146 C50.8661022,97.2139103 53.9645222,99.2800024 57.9932982,99.3154223 C67.5521953,99.3994616 72.2617854,90.7030751 72.2617854,82.7613614 C72.2698849,82.3848654 75.5276334,83.0728671 82.0350308,84.8253666 C95.7751896,96.0167013 102.615185,104.366336 102.555017,109.874272" id="Path-6"></path>
                    <path d="M52.0968944,47.8042357 C56.6517255,53.5794163 61.2606499,57.6452375 65.9236676,60.0016994 C72.9181942,63.5363923 75.2881758,68.7056495 74.7735661,73.0109827 C74.2589564,77.3163159 63.8183671,91.9500789 60.0026186,92.1341249 C56.18687,92.318171 42.237736,81.4821439 43.0326474,73.2202406 C43.5625884,67.712305 46.584004,59.2403034 52.0968944,47.8042357 Z" id="Path-7"></path>
                    <ellipse id="Oval-2" cx="62.421875" cy="62.1672922" rx="62.421875" ry="62.1672922"></ellipse>
                </g>
            </g>
            <g id="Group-10" transform="translate(0.000000, 277.000000)">
                <rect id="Rectangle" fill="#79797B" x="0" y="0" width="193" height="189.2251"></rect>
                <g id="icon-team" transform="translate(34.509934, 36.979866)" stroke="#FFFFFF">
                    <path d="M35.1680532,87.1514457 C29.3724517,48.692359 37.3541994,29.2707599 59.1132962,28.8866483 C91.7519414,28.310481 86.2809536,78.4898559 85.0761547,86.2393068" id="Path-5"></path>
                    <path d="M18.9543271,106.913013 C18.9543271,93.6131505 27.5355546,90.5497261 35.7791678,86.7523877 C41.2749099,84.2208288 44.8635822,83.5784884 46.5451847,84.8253666 C47.1395439,88.7643025 47.8571619,91.528229 48.6980385,93.117146 C50.8661022,97.2139103 53.9645222,99.2800024 57.9932982,99.3154223 C67.5521953,99.3994616 72.2617854,90.7030751 72.2617854,82.7613614 C72.2698849,82.3848654 75.5276334,83.0728671 82.0350308,84.8253666 C95.7751896,96.0167013 102.615185,104.366336 102.555017,109.874272" id="Path-6"></path>
                    <path d="M52.0968944,47.8042357 C56.6517255,53.5794163 61.2606499,57.6452375 65.9236676,60.0016994 C72.9181942,63.5363923 75.2881758,68.7056495 74.7735661,73.0109827 C74.2589564,77.3163159 63.8183671,91.9500789 60.0026186,92.1341249 C56.18687,92.318171 42.237736,81.4821439 43.0326474,73.2202406 C43.5625884,67.712305 46.584004,59.2403034 52.0968944,47.8042357 Z" id="Path-7"></path>
                    <ellipse id="Oval-2" cx="62.421875" cy="62.1672922" rx="62.421875" ry="62.1672922"></ellipse>
                </g>
            </g>
            <rect id="Rectangle" fill="#79797B" x="204" y="277" width="193" height="189.2251"></rect>
            <rect id="Rectangle" fill="#D7D9D9" x="0" y="75" width="193" height="189.2251"></rect>
            <g id="icon-team" transform="translate(238.509934, 313.979866)" stroke="#FFFFFF">
                <path d="M35.1680532,87.1514457 C29.3724517,48.692359 37.3541994,29.2707599 59.1132962,28.8866483 C91.7519414,28.310481 86.2809536,78.4898559 85.0761547,86.2393068" id="Path-5"></path>
                <path d="M18.9543271,106.913013 C18.9543271,93.6131505 27.5355546,90.5497261 35.7791678,86.7523877 C41.2749099,84.2208288 44.8635822,83.5784884 46.5451847,84.8253666 C47.1395439,88.7643025 47.8571619,91.528229 48.6980385,93.117146 C50.8661022,97.2139103 53.9645222,99.2800024 57.9932982,99.3154223 C67.5521953,99.3994616 72.2617854,90.7030751 72.2617854,82.7613614 C72.2698849,82.3848654 75.5276334,83.0728671 82.0350308,84.8253666 C95.7751896,96.0167013 102.615185,104.366336 102.555017,109.874272" id="Path-6"></path>
                <path d="M52.0968944,47.8042357 C56.6517255,53.5794163 61.2606499,57.6452375 65.9236676,60.0016994 C72.9181942,63.5363923 75.2881758,68.7056495 74.7735661,73.0109827 C74.2589564,77.3163159 63.8183671,91.9500789 60.0026186,92.1341249 C56.18687,92.318171 42.237736,81.4821439 43.0326474,73.2202406 C43.5625884,67.712305 46.584004,59.2403034 52.0968944,47.8042357 Z" id="Path-7"></path>
                <ellipse id="Oval-2" cx="62.421875" cy="62.1672922" rx="62.421875" ry="62.1672922"></ellipse>
            </g>
            <path d="M24.1,127.731 C24.2320007,127.973001 24.3859991,128.152666 24.562,128.27 C24.7380009,128.387334 24.9176658,128.446 25.101,128.446 C25.3943348,128.446 25.6161659,128.356168 25.7665,128.1765 C25.9168341,127.996832 25.992,127.668669 25.992,127.192 L25.992,122.539 L27.609,122.539 L27.609,127.324 C27.609,127.668668 27.5631671,127.994998 27.4715,128.303 C27.3798329,128.611002 27.2405009,128.878666 27.0535,129.106 C26.8664991,129.333334 26.6281681,129.512999 26.3385,129.645 C26.0488319,129.777001 25.706002,129.843 25.31,129.843 C24.7599973,129.843 24.2998352,129.736668 23.9295,129.524 C23.5591648,129.311332 23.2493346,128.985002 23,128.545 L24.1,127.731 Z M28.819,126.983 C28.819,126.528331 28.8923326,126.123168 29.039,125.7675 C29.1856674,125.411832 29.3818321,125.113001 29.6275,124.871 C29.8731679,124.628999 30.1573317,124.443834 30.48,124.3155 C30.8026683,124.187166 31.1363316,124.123 31.481,124.123 C31.8256684,124.123 32.1574984,124.187166 32.4765,124.3155 C32.7955016,124.443834 33.0778321,124.628999 33.3235,124.871 C33.5691679,125.113001 33.7653326,125.411832 33.912,125.7675 C34.0586674,126.123168 34.132,126.528331 34.132,126.983 C34.132,127.437669 34.0586674,127.842832 33.912,128.1985 C33.7653326,128.554168 33.5691679,128.852999 33.3235,129.095 C33.0778321,129.337001 32.7955016,129.522166 32.4765,129.6505 C32.1574984,129.778834 31.8256684,129.843 31.481,129.843 C31.1363316,129.843 30.8026683,129.778834 30.48,129.6505 C30.1573317,129.522166 29.8731679,129.337001 29.6275,129.095 C29.3818321,128.852999 29.1856674,128.554168 29.039,128.1985 C28.8923326,127.842832 28.819,127.437669 28.819,126.983 Z M30.48,126.983 C30.48,127.459669 30.5624992,127.837332 30.7275,128.116 C30.8925008,128.394668 31.143665,128.534 31.481,128.534 C31.8110017,128.534 32.0603325,128.394668 32.229,128.116 C32.3976675,127.837332 32.482,127.459669 32.482,126.983 C32.482,126.506331 32.3976675,126.128668 32.229,125.85 C32.0603325,125.571332 31.8110017,125.432 31.481,125.432 C31.143665,125.432 30.8925008,125.571332 30.7275,125.85 C30.5624992,126.128668 30.48,126.506331 30.48,126.983 Z M35.243,122 L36.86,122 L36.86,123.892 L36.783,124.871 C36.9883344,124.687666 37.2266653,124.517167 37.498,124.3595 C37.7693347,124.201833 38.0919981,124.123 38.466,124.123 C39.060003,124.123 39.490832,124.317331 39.7585,124.706 C40.026168,125.094669 40.16,125.633663 40.16,126.323 L40.16,129.711 L38.543,129.711 L38.543,126.532 C38.543,126.135998 38.4898339,125.864667 38.3835,125.718 C38.2771661,125.571333 38.1066678,125.498 37.872,125.498 C37.6666656,125.498 37.4906674,125.543833 37.344,125.6355 C37.1973326,125.727167 37.0360009,125.857332 36.86,126.026 L36.86,129.711 L35.243,129.711 L35.243,122 Z M41.524,124.255 L42.844,124.255 L42.954,124.948 L42.998,124.948 C43.2326678,124.727999 43.4893319,124.535501 43.768,124.3705 C44.0466681,124.205499 44.3729981,124.123 44.747,124.123 C45.341003,124.123 45.771832,124.317331 46.0395,124.706 C46.307168,125.094669 46.441,125.633663 46.441,126.323 L46.441,129.711 L44.824,129.711 L44.824,126.532 C44.824,126.135998 44.7708339,125.864667 44.6645,125.718 C44.5581661,125.571333 44.3876678,125.498 44.153,125.498 C43.9476656,125.498 43.7716674,125.543833 43.625,125.6355 C43.4783326,125.727167 43.3170009,125.857332 43.141,126.026 L43.141,129.711 L41.524,129.711 L41.524,124.255 Z M50.236,122.539 L52.26,122.539 C52.8100028,122.539 53.3049978,122.608666 53.745,122.748 C54.1850022,122.887334 54.5626651,123.101832 54.878,123.3915 C55.1933349,123.681168 55.4353325,124.049664 55.604,124.497 C55.7726675,124.944336 55.857,125.475997 55.857,126.092 C55.857,126.708003 55.7726675,127.243331 55.604,127.698 C55.4353325,128.152669 55.1970015,128.528499 54.889,128.8255 C54.5809985,129.122501 54.2125021,129.344333 53.7835,129.491 C53.3544979,129.637667 52.8760026,129.711 52.348,129.711 L50.236,129.711 L50.236,122.539 Z M52.161,128.402 C52.4690015,128.402 52.7476654,128.361667 52.997,128.281 C53.2463346,128.200333 53.4589991,128.070168 53.635,127.8905 C53.8110009,127.710832 53.9484995,127.474335 54.0475,127.181 C54.1465005,126.887665 54.196,126.524669 54.196,126.092 C54.196,125.666665 54.1465005,125.309168 54.0475,125.0195 C53.9484995,124.729832 53.8110009,124.498834 53.635,124.3265 C53.4589991,124.154166 53.2463346,124.031334 52.997,123.958 C52.7476654,123.884666 52.4690015,123.848 52.161,123.848 L51.853,123.848 L51.853,128.402 L52.161,128.402 Z M56.77,126.983 C56.77,126.528331 56.8433326,126.123168 56.99,125.7675 C57.1366674,125.411832 57.3328321,125.113001 57.5785,124.871 C57.8241679,124.628999 58.1083317,124.443834 58.431,124.3155 C58.7536683,124.187166 59.0873316,124.123 59.432,124.123 C59.7766684,124.123 60.1084984,124.187166 60.4275,124.3155 C60.7465016,124.443834 61.0288321,124.628999 61.2745,124.871 C61.5201679,125.113001 61.7163326,125.411832 61.863,125.7675 C62.0096674,126.123168 62.083,126.528331 62.083,126.983 C62.083,127.437669 62.0096674,127.842832 61.863,128.1985 C61.7163326,128.554168 61.5201679,128.852999 61.2745,129.095 C61.0288321,129.337001 60.7465016,129.522166 60.4275,129.6505 C60.1084984,129.778834 59.7766684,129.843 59.432,129.843 C59.0873316,129.843 58.7536683,129.778834 58.431,129.6505 C58.1083317,129.522166 57.8241679,129.337001 57.5785,129.095 C57.3328321,128.852999 57.1366674,128.554168 56.99,128.1985 C56.8433326,127.842832 56.77,127.437669 56.77,126.983 Z M58.431,126.983 C58.431,127.459669 58.5134992,127.837332 58.6785,128.116 C58.8435008,128.394668 59.094665,128.534 59.432,128.534 C59.7620016,128.534 60.0113325,128.394668 60.18,128.116 C60.3486675,127.837332 60.433,127.459669 60.433,126.983 C60.433,126.506331 60.3486675,126.128668 60.18,125.85 C60.0113325,125.571332 59.7620016,125.432 59.432,125.432 C59.094665,125.432 58.8435008,125.571332 58.6785,125.85 C58.5134992,126.128668 58.431,126.506331 58.431,126.983 Z M62.875,126.983 C62.875,126.542998 62.9483326,126.145168 63.095,125.7895 C63.2416674,125.433832 63.4341655,125.133168 63.6725,124.8875 C63.9108345,124.641832 64.1839985,124.453001 64.492,124.321 C64.8000015,124.188999 65.1189983,124.123 65.449,124.123 C65.8376686,124.123 66.1768319,124.188999 66.4665,124.321 C66.7561681,124.453001 66.9981657,124.636332 67.1925,124.871 C67.3868343,125.105668 67.5316662,125.382498 67.627,125.7015 C67.7223338,126.020502 67.77,126.366998 67.77,126.741 C67.77,126.887667 67.7626667,127.021499 67.748,127.1425 C67.7333333,127.263501 67.7186667,127.357 67.704,127.423 L64.437,127.423 C64.5103337,127.841002 64.6734987,128.143499 64.9265,128.3305 C65.1795013,128.517501 65.4893315,128.611 65.856,128.611 C66.2446686,128.611 66.636998,128.490001 67.033,128.248 L67.572,129.227 C67.2933319,129.417668 66.9835017,129.567999 66.6425,129.678 C66.3014983,129.788001 65.9660016,129.843 65.636,129.843 C65.2473314,129.843 64.884335,129.778834 64.547,129.6505 C64.209665,129.522166 63.9163346,129.335168 63.667,129.0895 C63.4176654,128.843832 63.223334,128.545002 63.084,128.193 C62.944666,127.840998 62.875,127.437669 62.875,126.983 Z M66.395,126.422 C66.395,126.106665 66.325334,125.850001 66.186,125.652 C66.046666,125.453999 65.8120016,125.355 65.482,125.355 C65.225332,125.355 64.9998343,125.441166 64.8055,125.6135 C64.6111657,125.785834 64.484667,126.055332 64.426,126.422 L66.395,126.422 Z" id="John-Doe" fill="#79797B"></path>
            <path d="M26.5,141 L52.5768096,141" id="Line" stroke="#4990E2" stroke-width="4" stroke-linecap="square"></path>
            <path d="M26.5,164 L153.5,164" id="Line" stroke="#B3B4B7" stroke-width="4" stroke-linecap="square"></path>
            <path d="M26.5,177 L76.0027326,177" id="Line" stroke="#B3B4B7" stroke-width="4" stroke-linecap="square"></path>
            <path d="M26.5,198 L76.0027326,198" id="Line" stroke="#979797" stroke-width="4" stroke-linecap="square"></path>
            <path d="M26.5,211 L76.0027326,211" id="Line" stroke="#4990E2" stroke-width="4" stroke-linecap="square"></path>
            <path d="M6.498,13.228 C5.66199582,13.228 4.89883679,13.0791682 4.2085,12.7815 C3.51816322,12.4838318 2.92600247,12.0563361 2.432,11.499 C1.93799753,10.9416639 1.5548347,10.264004 1.2825,9.466 C1.0101653,8.66799601 0.874,7.7623384 0.874,6.749 C0.874,5.7356616 1.0101653,4.83317063 1.2825,4.0415 C1.5548347,3.24982938 1.93799753,2.58483603 2.432,2.0465 C2.92600247,1.50816397 3.51816322,1.09650142 4.2085,0.8115 C4.89883679,0.526498575 5.66199582,0.384 6.498,0.384 C7.33400418,0.384 8.09716322,0.526498575 8.7875,0.8115 C9.47783679,1.09650142 10.0699975,1.51133061 10.564,2.056 C11.0580025,2.60066939 11.4411653,3.26882937 11.7135,4.0605 C11.9858347,4.85217063 12.122,5.74832833 12.122,6.749 C12.122,7.7623384 11.9858347,8.66799601 11.7135,9.466 C11.4411653,10.264004 11.0580025,10.9416639 10.564,11.499 C10.0699975,12.0563361 9.47783679,12.4838318 8.7875,12.7815 C8.09716322,13.0791682 7.33400418,13.228 6.498,13.228 Z M6.498,10.815 C7.34667091,10.815 8.01799753,10.450837 8.512,9.7225 C9.00600247,8.99416302 9.253,8.00300627 9.253,6.749 C9.253,5.50766046 9.00600247,4.53867015 8.512,3.842 C8.01799753,3.14532985 7.34667091,2.797 6.498,2.797 C5.64932909,2.797 4.97800247,3.14532985 4.484,3.842 C3.98999753,4.53867015 3.743,5.50766046 3.743,6.749 C3.743,8.00300627 3.98999753,8.99416302 4.484,9.7225 C4.97800247,10.450837 5.64932909,10.815 6.498,10.815 Z M14.136,3.576 L16.929,3.576 L16.929,9.067 C16.929,9.75100342 17.023999,10.2196654 17.214,10.473 C17.404001,10.7263346 17.7016646,10.853 18.107,10.853 C18.4616684,10.853 18.7593321,10.7706675 19,10.606 C19.2406679,10.4413325 19.5003319,10.1753352 19.779,9.808 L19.779,3.576 L22.572,3.576 L22.572,13 L20.292,13 L20.083,11.689 L20.026,11.689 C19.6206646,12.1703357 19.1868356,12.5471653 18.7245,12.8195 C18.2621644,13.0918347 17.7080032,13.228 17.062,13.228 C16.0359949,13.228 15.2918356,12.8923367 14.8295,12.221 C14.3671644,11.5496633 14.136,10.6186726 14.136,9.428 L14.136,3.576 Z M25.023,3.576 L27.303,3.576 L27.493,5.229 L27.569,5.229 C27.9110017,4.58299677 28.3226643,4.10800152 28.804,3.804 C29.2853357,3.49999848 29.7666643,3.348 30.248,3.348 C30.5140013,3.348 30.7324991,3.36383317 30.9035,3.3955 C31.0745009,3.42716683 31.229666,3.47466635 31.369,3.538 L30.913,5.951 C30.7356658,5.90033308 30.5710008,5.86233346 30.419,5.837 C30.2669992,5.81166654 30.0896677,5.799 29.887,5.799 C29.5323316,5.799 29.1618353,5.9256654 28.7755,6.179 C28.3891647,6.4323346 28.0693346,6.88199677 27.816,7.528 L27.816,13 L25.023,13 L25.023,3.576 Z M39.178,2.968 L35.777,2.968 L35.777,0.612 L45.391,0.612 L45.391,2.968 L41.99,2.968 L41.99,13 L39.178,13 L39.178,2.968 Z M45.106,8.288 C45.106,7.5279962 45.2326654,6.84083641 45.486,6.2265 C45.7393346,5.6121636 46.0718313,5.09283545 46.4835,4.6685 C46.8951687,4.24416454 47.3669973,3.91800114 47.899,3.69 C48.4310027,3.46199886 48.9819971,3.348 49.552,3.348 C50.2233367,3.348 50.8091642,3.46199886 51.3095,3.69 C51.8098358,3.91800114 52.2278317,4.23466464 52.5635,4.64 C52.8991683,5.04533536 53.1493325,5.52349724 53.314,6.0745 C53.4786675,6.62550275 53.561,7.22399677 53.561,7.87 C53.561,8.1233346 53.5483335,8.35449896 53.523,8.5635 C53.4976665,8.77250105 53.4723335,8.93399943 53.447,9.048 L47.804,9.048 C47.9306673,9.77000361 48.2124978,10.2924984 48.6495,10.6155 C49.0865022,10.9385016 49.6216635,11.1 50.255,11.1 C50.9263367,11.1 51.6039966,10.8910021 52.288,10.473 L53.219,12.164 C52.7376643,12.493335 52.2025029,12.752999 51.6135,12.943 C51.0244971,13.1330009 50.4450028,13.228 49.875,13.228 C49.2036633,13.228 48.5766696,13.1171678 47.994,12.8955 C47.4113304,12.6738322 46.9046688,12.3508355 46.474,11.9265 C46.0433312,11.5021645 45.7076679,10.986003 45.467,10.378 C45.2263321,9.76999696 45.106,9.07333726 45.106,8.288 Z M51.186,7.319 C51.186,6.77433061 51.0656679,6.33100171 50.825,5.989 C50.5843321,5.64699829 50.1790028,5.476 49.609,5.476 C49.1656645,5.476 48.7761683,5.62483184 48.4405,5.9225 C48.1048317,6.22016815 47.8863338,6.6856635 47.785,7.319 L51.186,7.319 Z M54.948,10.378 C54.948,9.38999506 55.3659958,8.61733612 56.202,8.06 C57.0380042,7.50266388 58.3869907,7.12900095 60.249,6.939 C60.2236665,6.52099791 60.0970011,6.18850124 59.869,5.9415 C59.6409989,5.69449877 59.2736692,5.571 58.767,5.571 C58.3616646,5.571 57.9563354,5.64699924 57.551,5.799 C57.1456646,5.95100076 56.7150023,6.15999867 56.259,6.426 L55.271,4.583 C55.879003,4.21566483 56.5154967,3.91800114 57.1805,3.69 C57.8455033,3.46199886 58.5516629,3.348 59.299,3.348 C60.5150061,3.348 61.4428301,3.69316321 62.0825,4.3835 C62.7221699,5.07383678 63.042,6.14732605 63.042,7.604 L63.042,13 L60.762,13 L60.553,12.031 L60.496,12.031 C60.0906646,12.3856684 59.6631689,12.6738322 59.2135,12.8955 C58.7638311,13.1171678 58.2730027,13.228 57.741,13.228 C57.3103312,13.228 56.9240017,13.1551674 56.582,13.0095 C56.2399983,12.8638326 55.9486679,12.661168 55.708,12.4015 C55.4673321,12.141832 55.2805007,11.8410017 55.1475,11.499 C55.0144993,11.1569983 54.948,10.7833354 54.948,10.378 Z M57.608,10.169 C57.608,10.4730015 57.7061657,10.6978326 57.9025,10.8435 C58.0988343,10.9891674 58.361665,11.062 58.691,11.062 C59.020335,11.062 59.2989989,10.992334 59.527,10.853 C59.7550011,10.713666 59.9956654,10.5173346 60.249,10.264 L60.249,8.611 C59.2483283,8.75033403 58.5580019,8.95299867 58.178,9.219 C57.7979981,9.48500133 57.608,9.80166483 57.608,10.169 Z M65.436,3.576 L67.716,3.576 L67.906,4.792 L67.982,4.792 C68.3746686,4.39933137 68.7926644,4.06050143 69.236,3.7755 C69.6793356,3.49049857 70.2113302,3.348 70.832,3.348 C71.5033367,3.348 72.0448313,3.4841653 72.4565,3.7565 C72.8681687,4.0288347 73.1943321,4.4183308 73.435,4.925 C73.8530021,4.49433118 74.2931644,4.12383489 74.7555,3.8135 C75.2178356,3.50316512 75.7656635,3.348 76.399,3.348 C77.4123384,3.348 78.1564976,3.68682994 78.6315,4.3645 C79.1065024,5.04217005 79.344,5.96999411 79.344,7.148 L79.344,13 L76.551,13 L76.551,7.509 C76.551,6.82499658 76.4591676,6.3563346 76.2755,6.103 C76.0918324,5.8496654 75.7973354,5.723 75.392,5.723 C74.923331,5.723 74.385003,6.02699696 73.777,6.635 L73.777,13 L70.984,13 L70.984,7.509 C70.984,6.82499658 70.8921676,6.3563346 70.7085,6.103 C70.5248324,5.8496654 70.2303354,5.723 69.825,5.723 C69.3436643,5.723 68.8116696,6.02699696 68.229,6.635 L68.229,13 L65.436,13 L65.436,3.576 Z" id="Our-Team" fill="#79797B"></path>
            <path d="M1.5,38.5 L48.5106371,38.5" id="Line" stroke="#4990E2" stroke-linecap="square"></path>
        </g>
    </g>
</svg>