<?xml version="1.0" encoding="UTF-8"?>
<svg width="601px" height="525px" viewBox="0 0 601 525" version="1.1" xmlns="http://www.w3.org/2000/svg" xmlns:xlink="http://www.w3.org/1999/xlink">
    <!-- Generator: Sketch 44.1 (41455) - http://www.bohemiancoding.com/sketch -->
    <title>teambox04</title>
    <desc>Created with Sketch.</desc>
    <defs></defs>
    <g id="Team" stroke="none" stroke-width="1" fill="none" fill-rule="evenodd">
        <g id="04" transform="translate(1.000000, 0.000000)">
            <g id="Group-5">
                <path d="M62.0893686,219.78136 C62.2442887,220.057844 62.4203317,220.258114 62.6175027,220.382177 C62.8146738,220.506241 63.0364879,220.568271 63.2829517,220.568271 C63.6561684,220.568271 63.9343162,220.453072 64.1174037,220.222668 C64.3004911,219.992265 64.3920334,219.611219 64.3920334,219.079519 L64.3920334,214.241076 L65.2792987,214.241076 L65.2792987,219.164591 C65.2792987,219.462343 65.2423297,219.74414 65.1683906,220.009989 C65.0944514,220.275839 64.9817839,220.508011 64.8303847,220.706513 C64.6789855,220.905014 64.4818174,221.060977 64.2388745,221.174406 C63.9959316,221.287835 63.7054607,221.344549 63.3674532,221.344549 C62.5013089,221.344549 61.8640334,220.972365 61.4556077,220.227985 L62.0893686,219.78136 Z M66.6841355,218.643528 C66.6841355,218.211079 66.7492714,217.826488 66.8795451,217.489745 C67.0098189,217.153002 67.1841014,216.867661 67.4023979,216.633713 C67.6206945,216.399765 67.8724359,216.222534 68.1576297,216.102016 C68.4428236,215.981497 68.743857,215.921239 69.0607391,215.921239 C69.3776212,215.921239 69.6786546,215.981497 69.9638485,216.102016 C70.2490423,216.222534 70.5007837,216.399765 70.7190803,216.633713 C70.9373768,216.867661 71.1116593,217.153002 71.241933,217.489745 C71.3722068,217.826488 71.4373427,218.211079 71.4373427,218.643528 C71.4373427,219.068888 71.3722068,219.449933 71.241933,219.786677 C71.1116593,220.12342 70.9373768,220.406989 70.7190803,220.637392 C70.5007837,220.867795 70.2490423,221.043254 69.9638485,221.163772 C69.6786546,221.284291 69.3776212,221.344549 69.0607391,221.344549 C68.743857,221.344549 68.4428236,221.284291 68.1576297,221.163772 C67.8724359,221.043254 67.6206945,220.867795 67.4023979,220.637392 C67.1841014,220.406989 67.0098189,220.12342 66.8795451,219.786677 C66.7492714,219.449933 66.6841355,219.068888 66.6841355,218.643528 Z M67.5819635,218.643528 C67.5819635,218.94128 67.6171721,219.21067 67.6875904,219.451707 C67.7580086,219.692745 67.8583531,219.900105 67.9886268,220.073793 C68.1189006,220.247482 68.2755788,220.382177 68.4586662,220.477883 C68.6417536,220.573589 68.8424426,220.621441 69.0607391,220.621441 C69.2790356,220.621441 69.4797246,220.573589 69.662812,220.477883 C69.8458994,220.382177 70.0025776,220.247482 70.1328514,220.073793 C70.2631251,219.900105 70.3634696,219.692745 70.4338878,219.451707 C70.5043061,219.21067 70.5395147,218.94128 70.5395147,218.643528 C70.5395147,218.345776 70.5043061,218.074613 70.4338878,217.830031 C70.3634696,217.585449 70.2631251,217.374545 70.1328514,217.197312 C70.0025776,217.020078 69.8458994,216.883611 69.662812,216.787905 C69.4797246,216.692199 69.2790356,216.644347 69.0607391,216.644347 C68.8424426,216.644347 68.6417536,216.692199 68.4586662,216.787905 C68.2755788,216.883611 68.1189006,217.020078 67.9886268,217.197312 C67.8583531,217.374545 67.7580086,217.585449 67.6875904,217.830031 C67.6171721,218.074613 67.5819635,218.345776 67.5819635,218.643528 Z M72.789366,213.645575 L73.655506,213.645575 L73.655506,215.70856 L73.623818,216.771954 C73.8702818,216.538006 74.1273045,216.337735 74.3948938,216.171136 C74.6624831,216.004537 74.9758395,215.921239 75.3349725,215.921239 C75.877193,215.921239 76.2732896,216.09138 76.5232743,216.431668 C76.7732591,216.771956 76.8982496,217.275291 76.8982496,217.941688 L76.8982496,221.216942 L76.0321096,221.216942 L76.0321096,218.058661 C76.0321096,217.569497 75.9546507,217.216808 75.7997306,217.000584 C75.6448105,216.784359 75.3983503,216.676248 75.0603428,216.676248 C74.7927535,216.676248 74.5568559,216.743596 74.3526431,216.878293 C74.1484302,217.012991 73.9160535,217.211489 73.655506,217.473794 L73.655506,221.216942 L72.789366,221.216942 L72.789366,213.645575 Z M78.5354654,216.048846 L79.2537278,216.048846 L79.3276666,216.793222 L79.3593546,216.793222 C79.6058184,216.545095 79.8646016,216.337735 80.1357118,216.171136 C80.406822,216.004537 80.7219389,215.921239 81.0810719,215.921239 C81.6232923,215.921239 82.0193889,216.09138 82.2693736,216.431668 C82.5193584,216.771956 82.6443489,217.275291 82.6443489,217.941688 L82.6443489,221.216942 L81.7782089,221.216942 L81.7782089,218.058661 C81.7782089,217.569497 81.70075,217.216808 81.5458299,217.000584 C81.3909098,216.784359 81.1444496,216.676248 80.8064421,216.676248 C80.5388528,216.676248 80.3029553,216.743596 80.0987424,216.878293 C79.8945295,217.012991 79.6621528,217.211489 79.4016053,217.473794 L79.4016053,221.216942 L78.5354654,221.216942 L78.5354654,216.048846 Z M86.5314161,214.241076 L88.263696,214.241076 C89.3340532,214.241076 90.1473716,214.538823 90.7036757,215.134327 C91.2599797,215.729831 91.5381276,216.584082 91.5381276,217.697107 C91.5381276,218.250075 91.4677104,218.744548 91.3268739,219.180542 C91.1860375,219.616536 90.9783068,219.985175 90.7036757,220.286472 C90.4290446,220.587769 90.0910421,220.818168 89.6896581,220.977678 C89.2882742,221.137188 88.8270417,221.216942 88.3059467,221.216942 L86.5314161,221.216942 L86.5314161,214.241076 Z M88.2003199,220.493834 C89.0101296,220.493834 89.6174778,220.249256 90.0223826,219.760092 C90.4272875,219.270928 90.6297369,218.583273 90.6297369,217.697107 C90.6297369,216.810941 90.4272875,216.13392 90.0223826,215.666024 C89.6174778,215.198128 89.0101296,214.964184 88.2003199,214.964184 L87.4081187,214.964184 L87.4081187,220.493834 L88.2003199,220.493834 Z M92.5627078,218.643528 C92.5627078,218.211079 92.6278437,217.826488 92.7581174,217.489745 C92.8883912,217.153002 93.0626737,216.867661 93.2809702,216.633713 C93.4992668,216.399765 93.7510082,216.222534 94.036202,216.102016 C94.3213959,215.981497 94.6224293,215.921239 94.9393114,215.921239 C95.2561934,215.921239 95.5572269,215.981497 95.8424207,216.102016 C96.1276146,216.222534 96.379356,216.399765 96.5976525,216.633713 C96.8159491,216.867661 96.9902316,217.153002 97.1205053,217.489745 C97.2507791,217.826488 97.315915,218.211079 97.315915,218.643528 C97.315915,219.068888 97.2507791,219.449933 97.1205053,219.786677 C96.9902316,220.12342 96.8159491,220.406989 96.5976525,220.637392 C96.379356,220.867795 96.1276146,221.043254 95.8424207,221.163772 C95.5572269,221.284291 95.2561934,221.344549 94.9393114,221.344549 C94.6224293,221.344549 94.3213959,221.284291 94.036202,221.163772 C93.7510082,221.043254 93.4992668,220.867795 93.2809702,220.637392 C93.0626737,220.406989 92.8883912,220.12342 92.7581174,219.786677 C92.6278437,219.449933 92.5627078,219.068888 92.5627078,218.643528 Z M93.4605358,218.643528 C93.4605358,218.94128 93.4957444,219.21067 93.5661626,219.451707 C93.6365809,219.692745 93.7369254,219.900105 93.8671991,220.073793 C93.9974728,220.247482 94.1541511,220.382177 94.3372385,220.477883 C94.5203259,220.573589 94.7210149,220.621441 94.9393114,220.621441 C95.1576079,220.621441 95.3582969,220.573589 95.5413843,220.477883 C95.7244717,220.382177 95.8811499,220.247482 96.0114237,220.073793 C96.1416974,219.900105 96.2420419,219.692745 96.3124601,219.451707 C96.3828784,219.21067 96.4180869,218.94128 96.4180869,218.643528 C96.4180869,218.345776 96.3828784,218.074613 96.3124601,217.830031 C96.2420419,217.585449 96.1416974,217.374545 96.0114237,217.197312 C95.8811499,217.020078 95.7244717,216.883611 95.5413843,216.787905 C95.3582969,216.692199 95.1576079,216.644347 94.9393114,216.644347 C94.7210149,216.644347 94.5203259,216.692199 94.3372385,216.787905 C94.1541511,216.883611 93.9974728,217.020078 93.8671991,217.197312 C93.7369254,217.374545 93.6365809,217.585449 93.5661626,217.830031 C93.4957444,218.074613 93.4605358,218.345776 93.4605358,218.643528 Z M98.2876818,218.643528 C98.2876818,218.218168 98.3528176,217.837122 98.4830914,217.500379 C98.6133651,217.163636 98.7858872,216.878295 99.0006628,216.644347 C99.2154384,216.410399 99.4601381,216.231396 99.7347693,216.107332 C100.0094,215.983269 100.29459,215.921239 100.590347,215.921239 C100.91427,215.921239 101.204741,215.977952 101.461768,216.091382 C101.718794,216.204811 101.933567,216.367863 102.106092,216.580543 C102.278616,216.793223 102.410648,217.048435 102.502192,217.346187 C102.593736,217.643939 102.639507,217.977132 102.639507,218.345777 C102.639507,218.537189 102.628944,218.696697 102.607819,218.824305 L99.143259,218.824305 C99.1784682,219.384362 99.3492298,219.827438 99.6555491,220.153548 C99.9618685,220.479657 100.361486,220.642709 100.854414,220.642709 C101.100877,220.642709 101.327973,220.605491 101.535707,220.531053 C101.74344,220.456615 101.942369,220.359138 102.132498,220.238619 L102.438816,220.812852 C102.213478,220.954639 101.963497,221.0787 101.688866,221.18504 C101.414234,221.29138 101.100878,221.344549 100.748787,221.344549 C100.403737,221.344549 100.081579,221.282519 99.7823013,221.158455 C99.4830238,221.034392 99.2224803,220.857161 99.0006628,220.626758 C98.7788454,220.396355 98.6045629,220.114558 98.47781,219.78136 C98.3510572,219.448161 98.2876818,219.068888 98.2876818,218.643528 Z M101.878994,218.250072 C101.878994,217.718372 101.768087,217.312514 101.546269,217.032486 C101.324452,216.752457 101.012856,216.612445 100.611472,216.612445 C100.428385,216.612445 100.254102,216.649663 100.088619,216.724101 C99.9231363,216.798539 99.7734998,216.904878 99.6397051,217.043119 C99.5059105,217.181361 99.3950034,217.351503 99.3069806,217.553549 C99.2189578,217.755595 99.1608637,217.987767 99.1326964,218.250072 L101.878994,218.250072 Z" id="John-Doe" fill="#79797B"></path>
                <path d="M63.8562173,236.846904 L99.4371077,236.846904" id="Line" stroke="#4990E2" stroke-width="4" stroke-linecap="square"></path>
                <g id="Group-4" transform="translate(0.480122, 0.887503)" stroke="#979797" stroke-width="2">
                    <path d="M0,194.083864 L11.6571502,120.115372 C11.7534009,117.430479 13.4491437,115.675935 16.7443786,114.85174 C20.0396134,114.027545 30.6331392,110.370385 48.524956,103.880259 C53.8544333,101.213874 57.1334462,98.7516328 58.3619945,96.493535 C60.204817,93.1063882 64.4030782,86.0773237 61.3825364,80.5262573 C59.3688418,76.8255463 58.3279283,73.3986596 58.2597957,70.2455972 C56.0222372,70.6179547 54.3362276,70.3533849 53.201767,69.4518878 C51.5000762,68.0996421 48.181049,54.5200252 48.3530025,51.9543514 C48.524956,49.3886775 45.8434546,30.2138992 49.5226108,24.2398476 C53.201767,18.2657961 58.8713662,9.1038417 60.1269513,9.94654553 C61.3825364,10.7892494 68.5672731,3.86470628 71.740302,3.05629854 C74.9133309,2.2478908 78.5048882,2.76233209 79.6955851,2.90931532 C80.4893831,3.00730414 81.4437792,2.25496777 82.5587733,0.652306234 L89.9852183,3.32413464 C95.0302694,4.19841264 97.8188362,5.52071729 98.3509187,7.29104859 C99.1490426,9.94654553 105.532411,17.276109 106.559266,23.5931214 C107.58612,29.9101338 109.524652,37.0959804 108.041959,39.1766096 C107.053497,40.5636958 107.076208,42.9693212 108.110092,46.393486 C109.959403,48.0778049 110.699127,50.0952858 110.329265,52.4459286 C109.774472,55.9718929 106.669575,62.7233224 106.61442,65.0636219 C106.57765,66.6238217 105.334502,67.9619134 102.884976,69.0778971 C102.603794,72.714371 102.209599,75.5315495 101.70239,77.5294326 C100.941577,80.5262573 98.5066502,86.924927 100.10452,90.0017759 C101.70239,93.0786247 100.70798,98.894261 109.112613,102.550877 C114.715702,104.988621 126.766507,107.926652 145.265027,111.364971 C149.175618,112.928437 151.307733,114.777704 151.661373,116.912771 C152.191834,120.115372 165.891337,162.655584 167.714693,171.223073 C169.53805,179.790562 171.60798,192.979857 170.634659,193.53186 C169.985778,193.899863 113.107558,194.083864 0,194.083864 Z" id="Path-3"></path>
                    <path d="M57.8467412,19.4129906 C62.6549506,14.9263196 70.4269248,12.7194752 80.1585201,13.2807435 C89.8901155,13.8420118 94.9205667,12.9001932 97.9865302,18.2539629 C101.052494,23.6077327 101.179026,31.5627985 101.441822,34.1901597 C101.704619,36.8175209 103.660996,51.9422245 103.656129,54.0430709 C103.651263,56.1439173 97.3425157,80.6850695 92.6949043,83.1508271 C88.0472929,85.6165848 85.609122,91.397822 78.5801167,89.2257311 C71.5511114,87.0536401 59.2872573,72.9228853 57.6472102,65.8349182 C56.007163,58.746951 53.0742202,54.4305719 54.2632949,47.7457448 C55.4523696,41.0609178 56.8312421,37.411805 57.3389916,34.2944201 C57.8467412,31.1770352 58.6043099,32.2109505 57.9716508,27.1960269 C57.3389916,22.1811033 53.0385317,23.8996617 57.8467412,19.4129906 Z" id="Path-4"></path>
                    <path d="M62.3591025,90.9588 L78.743352,102.766452 L99.2869298,90.9588 L101.178418,99.0200133 L96.6703165,110.519001 C88.5149617,162.657762 84.4848689,188.284559 84.5800381,187.399394 C84.6752074,186.514228 76.1386349,157.618415 58.9703206,100.711954 L62.3591025,90.9588 Z" id="Path-8"></path>
                </g>
            </g>
            <g id="Group-5" transform="translate(207.842095, 0.000000)">
                <path d="M62.0893686,219.78136 C62.2442887,220.057844 62.4203317,220.258114 62.6175027,220.382177 C62.8146738,220.506241 63.0364879,220.568271 63.2829517,220.568271 C63.6561684,220.568271 63.9343162,220.453072 64.1174037,220.222668 C64.3004911,219.992265 64.3920334,219.611219 64.3920334,219.079519 L64.3920334,214.241076 L65.2792987,214.241076 L65.2792987,219.164591 C65.2792987,219.462343 65.2423297,219.74414 65.1683906,220.009989 C65.0944514,220.275839 64.9817839,220.508011 64.8303847,220.706513 C64.6789855,220.905014 64.4818174,221.060977 64.2388745,221.174406 C63.9959316,221.287835 63.7054607,221.344549 63.3674532,221.344549 C62.5013089,221.344549 61.8640334,220.972365 61.4556077,220.227985 L62.0893686,219.78136 Z M66.6841355,218.643528 C66.6841355,218.211079 66.7492714,217.826488 66.8795451,217.489745 C67.0098189,217.153002 67.1841014,216.867661 67.4023979,216.633713 C67.6206945,216.399765 67.8724359,216.222534 68.1576297,216.102016 C68.4428236,215.981497 68.743857,215.921239 69.0607391,215.921239 C69.3776212,215.921239 69.6786546,215.981497 69.9638485,216.102016 C70.2490423,216.222534 70.5007837,216.399765 70.7190803,216.633713 C70.9373768,216.867661 71.1116593,217.153002 71.241933,217.489745 C71.3722068,217.826488 71.4373427,218.211079 71.4373427,218.643528 C71.4373427,219.068888 71.3722068,219.449933 71.241933,219.786677 C71.1116593,220.12342 70.9373768,220.406989 70.7190803,220.637392 C70.5007837,220.867795 70.2490423,221.043254 69.9638485,221.163772 C69.6786546,221.284291 69.3776212,221.344549 69.0607391,221.344549 C68.743857,221.344549 68.4428236,221.284291 68.1576297,221.163772 C67.8724359,221.043254 67.6206945,220.867795 67.4023979,220.637392 C67.1841014,220.406989 67.0098189,220.12342 66.8795451,219.786677 C66.7492714,219.449933 66.6841355,219.068888 66.6841355,218.643528 Z M67.5819635,218.643528 C67.5819635,218.94128 67.6171721,219.21067 67.6875904,219.451707 C67.7580086,219.692745 67.8583531,219.900105 67.9886268,220.073793 C68.1189006,220.247482 68.2755788,220.382177 68.4586662,220.477883 C68.6417536,220.573589 68.8424426,220.621441 69.0607391,220.621441 C69.2790356,220.621441 69.4797246,220.573589 69.662812,220.477883 C69.8458994,220.382177 70.0025776,220.247482 70.1328514,220.073793 C70.2631251,219.900105 70.3634696,219.692745 70.4338878,219.451707 C70.5043061,219.21067 70.5395147,218.94128 70.5395147,218.643528 C70.5395147,218.345776 70.5043061,218.074613 70.4338878,217.830031 C70.3634696,217.585449 70.2631251,217.374545 70.1328514,217.197312 C70.0025776,217.020078 69.8458994,216.883611 69.662812,216.787905 C69.4797246,216.692199 69.2790356,216.644347 69.0607391,216.644347 C68.8424426,216.644347 68.6417536,216.692199 68.4586662,216.787905 C68.2755788,216.883611 68.1189006,217.020078 67.9886268,217.197312 C67.8583531,217.374545 67.7580086,217.585449 67.6875904,217.830031 C67.6171721,218.074613 67.5819635,218.345776 67.5819635,218.643528 Z M72.789366,213.645575 L73.655506,213.645575 L73.655506,215.70856 L73.623818,216.771954 C73.8702818,216.538006 74.1273045,216.337735 74.3948938,216.171136 C74.6624831,216.004537 74.9758395,215.921239 75.3349725,215.921239 C75.877193,215.921239 76.2732896,216.09138 76.5232743,216.431668 C76.7732591,216.771956 76.8982496,217.275291 76.8982496,217.941688 L76.8982496,221.216942 L76.0321096,221.216942 L76.0321096,218.058661 C76.0321096,217.569497 75.9546507,217.216808 75.7997306,217.000584 C75.6448105,216.784359 75.3983503,216.676248 75.0603428,216.676248 C74.7927535,216.676248 74.5568559,216.743596 74.3526431,216.878293 C74.1484302,217.012991 73.9160535,217.211489 73.655506,217.473794 L73.655506,221.216942 L72.789366,221.216942 L72.789366,213.645575 Z M78.5354654,216.048846 L79.2537278,216.048846 L79.3276666,216.793222 L79.3593546,216.793222 C79.6058184,216.545095 79.8646016,216.337735 80.1357118,216.171136 C80.406822,216.004537 80.7219389,215.921239 81.0810719,215.921239 C81.6232923,215.921239 82.0193889,216.09138 82.2693736,216.431668 C82.5193584,216.771956 82.6443489,217.275291 82.6443489,217.941688 L82.6443489,221.216942 L81.7782089,221.216942 L81.7782089,218.058661 C81.7782089,217.569497 81.70075,217.216808 81.5458299,217.000584 C81.3909098,216.784359 81.1444496,216.676248 80.8064421,216.676248 C80.5388528,216.676248 80.3029553,216.743596 80.0987424,216.878293 C79.8945295,217.012991 79.6621528,217.211489 79.4016053,217.473794 L79.4016053,221.216942 L78.5354654,221.216942 L78.5354654,216.048846 Z M86.5314161,214.241076 L88.263696,214.241076 C89.3340532,214.241076 90.1473716,214.538823 90.7036757,215.134327 C91.2599797,215.729831 91.5381276,216.584082 91.5381276,217.697107 C91.5381276,218.250075 91.4677104,218.744548 91.3268739,219.180542 C91.1860375,219.616536 90.9783068,219.985175 90.7036757,220.286472 C90.4290446,220.587769 90.0910421,220.818168 89.6896581,220.977678 C89.2882742,221.137188 88.8270417,221.216942 88.3059467,221.216942 L86.5314161,221.216942 L86.5314161,214.241076 Z M88.2003199,220.493834 C89.0101296,220.493834 89.6174778,220.249256 90.0223826,219.760092 C90.4272875,219.270928 90.6297369,218.583273 90.6297369,217.697107 C90.6297369,216.810941 90.4272875,216.13392 90.0223826,215.666024 C89.6174778,215.198128 89.0101296,214.964184 88.2003199,214.964184 L87.4081187,214.964184 L87.4081187,220.493834 L88.2003199,220.493834 Z M92.5627078,218.643528 C92.5627078,218.211079 92.6278437,217.826488 92.7581174,217.489745 C92.8883912,217.153002 93.0626737,216.867661 93.2809702,216.633713 C93.4992668,216.399765 93.7510082,216.222534 94.036202,216.102016 C94.3213959,215.981497 94.6224293,215.921239 94.9393114,215.921239 C95.2561934,215.921239 95.5572269,215.981497 95.8424207,216.102016 C96.1276146,216.222534 96.379356,216.399765 96.5976525,216.633713 C96.8159491,216.867661 96.9902316,217.153002 97.1205053,217.489745 C97.2507791,217.826488 97.315915,218.211079 97.315915,218.643528 C97.315915,219.068888 97.2507791,219.449933 97.1205053,219.786677 C96.9902316,220.12342 96.8159491,220.406989 96.5976525,220.637392 C96.379356,220.867795 96.1276146,221.043254 95.8424207,221.163772 C95.5572269,221.284291 95.2561934,221.344549 94.9393114,221.344549 C94.6224293,221.344549 94.3213959,221.284291 94.036202,221.163772 C93.7510082,221.043254 93.4992668,220.867795 93.2809702,220.637392 C93.0626737,220.406989 92.8883912,220.12342 92.7581174,219.786677 C92.6278437,219.449933 92.5627078,219.068888 92.5627078,218.643528 Z M93.4605358,218.643528 C93.4605358,218.94128 93.4957444,219.21067 93.5661626,219.451707 C93.6365809,219.692745 93.7369254,219.900105 93.8671991,220.073793 C93.9974728,220.247482 94.1541511,220.382177 94.3372385,220.477883 C94.5203259,220.573589 94.7210149,220.621441 94.9393114,220.621441 C95.1576079,220.621441 95.3582969,220.573589 95.5413843,220.477883 C95.7244717,220.382177 95.8811499,220.247482 96.0114237,220.073793 C96.1416974,219.900105 96.2420419,219.692745 96.3124601,219.451707 C96.3828784,219.21067 96.4180869,218.94128 96.4180869,218.643528 C96.4180869,218.345776 96.3828784,218.074613 96.3124601,217.830031 C96.2420419,217.585449 96.1416974,217.374545 96.0114237,217.197312 C95.8811499,217.020078 95.7244717,216.883611 95.5413843,216.787905 C95.3582969,216.692199 95.1576079,216.644347 94.9393114,216.644347 C94.7210149,216.644347 94.5203259,216.692199 94.3372385,216.787905 C94.1541511,216.883611 93.9974728,217.020078 93.8671991,217.197312 C93.7369254,217.374545 93.6365809,217.585449 93.5661626,217.830031 C93.4957444,218.074613 93.4605358,218.345776 93.4605358,218.643528 Z M98.2876818,218.643528 C98.2876818,218.218168 98.3528176,217.837122 98.4830914,217.500379 C98.6133651,217.163636 98.7858872,216.878295 99.0006628,216.644347 C99.2154384,216.410399 99.4601381,216.231396 99.7347693,216.107332 C100.0094,215.983269 100.29459,215.921239 100.590347,215.921239 C100.91427,215.921239 101.204741,215.977952 101.461768,216.091382 C101.718794,216.204811 101.933567,216.367863 102.106092,216.580543 C102.278616,216.793223 102.410648,217.048435 102.502192,217.346187 C102.593736,217.643939 102.639507,217.977132 102.639507,218.345777 C102.639507,218.537189 102.628944,218.696697 102.607819,218.824305 L99.143259,218.824305 C99.1784682,219.384362 99.3492298,219.827438 99.6555491,220.153548 C99.9618685,220.479657 100.361486,220.642709 100.854414,220.642709 C101.100877,220.642709 101.327973,220.605491 101.535707,220.531053 C101.74344,220.456615 101.942369,220.359138 102.132498,220.238619 L102.438816,220.812852 C102.213478,220.954639 101.963497,221.0787 101.688866,221.18504 C101.414234,221.29138 101.100878,221.344549 100.748787,221.344549 C100.403737,221.344549 100.081579,221.282519 99.7823013,221.158455 C99.4830238,221.034392 99.2224803,220.857161 99.0006628,220.626758 C98.7788454,220.396355 98.6045629,220.114558 98.47781,219.78136 C98.3510572,219.448161 98.2876818,219.068888 98.2876818,218.643528 Z M101.878994,218.250072 C101.878994,217.718372 101.768087,217.312514 101.546269,217.032486 C101.324452,216.752457 101.012856,216.612445 100.611472,216.612445 C100.428385,216.612445 100.254102,216.649663 100.088619,216.724101 C99.9231363,216.798539 99.7734998,216.904878 99.6397051,217.043119 C99.5059105,217.181361 99.3950034,217.351503 99.3069806,217.553549 C99.2189578,217.755595 99.1608637,217.987767 99.1326964,218.250072 L101.878994,218.250072 Z" id="John-Doe" fill="#79797B"></path>
                <path d="M63.8562173,236.846904 L99.4371077,236.846904" id="Line" stroke="#4990E2" stroke-width="4" stroke-linecap="square"></path>
                <g id="Group-4" transform="translate(0.480122, 0.887503)" stroke="#979797" stroke-width="2">
                    <path d="M0,194.083864 L11.6571502,120.115372 C11.7534009,117.430479 13.4491437,115.675935 16.7443786,114.85174 C20.0396134,114.027545 30.6331392,110.370385 48.524956,103.880259 C53.8544333,101.213874 57.1334462,98.7516328 58.3619945,96.493535 C60.204817,93.1063882 64.4030782,86.0773237 61.3825364,80.5262573 C59.3688418,76.8255463 58.3279283,73.3986596 58.2597957,70.2455972 C56.0222372,70.6179547 54.3362276,70.3533849 53.201767,69.4518878 C51.5000762,68.0996421 48.181049,54.5200252 48.3530025,51.9543514 C48.524956,49.3886775 45.8434546,30.2138992 49.5226108,24.2398476 C53.201767,18.2657961 58.8713662,9.1038417 60.1269513,9.94654553 C61.3825364,10.7892494 68.5672731,3.86470628 71.740302,3.05629854 C74.9133309,2.2478908 78.5048882,2.76233209 79.6955851,2.90931532 C80.4893831,3.00730414 81.4437792,2.25496777 82.5587733,0.652306234 L89.9852183,3.32413464 C95.0302694,4.19841264 97.8188362,5.52071729 98.3509187,7.29104859 C99.1490426,9.94654553 105.532411,17.276109 106.559266,23.5931214 C107.58612,29.9101338 109.524652,37.0959804 108.041959,39.1766096 C107.053497,40.5636958 107.076208,42.9693212 108.110092,46.393486 C109.959403,48.0778049 110.699127,50.0952858 110.329265,52.4459286 C109.774472,55.9718929 106.669575,62.7233224 106.61442,65.0636219 C106.57765,66.6238217 105.334502,67.9619134 102.884976,69.0778971 C102.603794,72.714371 102.209599,75.5315495 101.70239,77.5294326 C100.941577,80.5262573 98.5066502,86.924927 100.10452,90.0017759 C101.70239,93.0786247 100.70798,98.894261 109.112613,102.550877 C114.715702,104.988621 126.766507,107.926652 145.265027,111.364971 C149.175618,112.928437 151.307733,114.777704 151.661373,116.912771 C152.191834,120.115372 165.891337,162.655584 167.714693,171.223073 C169.53805,179.790562 171.60798,192.979857 170.634659,193.53186 C169.985778,193.899863 113.107558,194.083864 0,194.083864 Z" id="Path-3"></path>
                    <path d="M57.8467412,19.4129906 C62.6549506,14.9263196 70.4269248,12.7194752 80.1585201,13.2807435 C89.8901155,13.8420118 94.9205667,12.9001932 97.9865302,18.2539629 C101.052494,23.6077327 101.179026,31.5627985 101.441822,34.1901597 C101.704619,36.8175209 103.660996,51.9422245 103.656129,54.0430709 C103.651263,56.1439173 97.3425157,80.6850695 92.6949043,83.1508271 C88.0472929,85.6165848 85.609122,91.397822 78.5801167,89.2257311 C71.5511114,87.0536401 59.2872573,72.9228853 57.6472102,65.8349182 C56.007163,58.746951 53.0742202,54.4305719 54.2632949,47.7457448 C55.4523696,41.0609178 56.8312421,37.411805 57.3389916,34.2944201 C57.8467412,31.1770352 58.6043099,32.2109505 57.9716508,27.1960269 C57.3389916,22.1811033 53.0385317,23.8996617 57.8467412,19.4129906 Z" id="Path-4"></path>
                    <path d="M62.3591025,90.9588 L78.743352,102.766452 L99.2869298,90.9588 L101.178418,99.0200133 L96.6703165,110.519001 C88.5149617,162.657762 84.4848689,188.284559 84.5800381,187.399394 C84.6752074,186.514228 76.1386349,157.618415 58.9703206,100.711954 L62.3591025,90.9588 Z" id="Path-8"></path>
                </g>
            </g>
            <g id="Group-5" transform="translate(0.000000, 285.530645)">
                <path d="M62.0893686,219.78136 C62.2442887,220.057844 62.4203317,220.258114 62.6175027,220.382177 C62.8146738,220.506241 63.0364879,220.568271 63.2829517,220.568271 C63.6561684,220.568271 63.9343162,220.453072 64.1174037,220.222668 C64.3004911,219.992265 64.3920334,219.611219 64.3920334,219.079519 L64.3920334,214.241076 L65.2792987,214.241076 L65.2792987,219.164591 C65.2792987,219.462343 65.2423297,219.74414 65.1683906,220.009989 C65.0944514,220.275839 64.9817839,220.508011 64.8303847,220.706513 C64.6789855,220.905014 64.4818174,221.060977 64.2388745,221.174406 C63.9959316,221.287835 63.7054607,221.344549 63.3674532,221.344549 C62.5013089,221.344549 61.8640334,220.972365 61.4556077,220.227985 L62.0893686,219.78136 Z M66.6841355,218.643528 C66.6841355,218.211079 66.7492714,217.826488 66.8795451,217.489745 C67.0098189,217.153002 67.1841014,216.867661 67.4023979,216.633713 C67.6206945,216.399765 67.8724359,216.222534 68.1576297,216.102016 C68.4428236,215.981497 68.743857,215.921239 69.0607391,215.921239 C69.3776212,215.921239 69.6786546,215.981497 69.9638485,216.102016 C70.2490423,216.222534 70.5007837,216.399765 70.7190803,216.633713 C70.9373768,216.867661 71.1116593,217.153002 71.241933,217.489745 C71.3722068,217.826488 71.4373427,218.211079 71.4373427,218.643528 C71.4373427,219.068888 71.3722068,219.449933 71.241933,219.786677 C71.1116593,220.12342 70.9373768,220.406989 70.7190803,220.637392 C70.5007837,220.867795 70.2490423,221.043254 69.9638485,221.163772 C69.6786546,221.284291 69.3776212,221.344549 69.0607391,221.344549 C68.743857,221.344549 68.4428236,221.284291 68.1576297,221.163772 C67.8724359,221.043254 67.6206945,220.867795 67.4023979,220.637392 C67.1841014,220.406989 67.0098189,220.12342 66.8795451,219.786677 C66.7492714,219.449933 66.6841355,219.068888 66.6841355,218.643528 Z M67.5819635,218.643528 C67.5819635,218.94128 67.6171721,219.21067 67.6875904,219.451707 C67.7580086,219.692745 67.8583531,219.900105 67.9886268,220.073793 C68.1189006,220.247482 68.2755788,220.382177 68.4586662,220.477883 C68.6417536,220.573589 68.8424426,220.621441 69.0607391,220.621441 C69.2790356,220.621441 69.4797246,220.573589 69.662812,220.477883 C69.8458994,220.382177 70.0025776,220.247482 70.1328514,220.073793 C70.2631251,219.900105 70.3634696,219.692745 70.4338878,219.451707 C70.5043061,219.21067 70.5395147,218.94128 70.5395147,218.643528 C70.5395147,218.345776 70.5043061,218.074613 70.4338878,217.830031 C70.3634696,217.585449 70.2631251,217.374545 70.1328514,217.197312 C70.0025776,217.020078 69.8458994,216.883611 69.662812,216.787905 C69.4797246,216.692199 69.2790356,216.644347 69.0607391,216.644347 C68.8424426,216.644347 68.6417536,216.692199 68.4586662,216.787905 C68.2755788,216.883611 68.1189006,217.020078 67.9886268,217.197312 C67.8583531,217.374545 67.7580086,217.585449 67.6875904,217.830031 C67.6171721,218.074613 67.5819635,218.345776 67.5819635,218.643528 Z M72.789366,213.645575 L73.655506,213.645575 L73.655506,215.70856 L73.623818,216.771954 C73.8702818,216.538006 74.1273045,216.337735 74.3948938,216.171136 C74.6624831,216.004537 74.9758395,215.921239 75.3349725,215.921239 C75.877193,215.921239 76.2732896,216.09138 76.5232743,216.431668 C76.7732591,216.771956 76.8982496,217.275291 76.8982496,217.941688 L76.8982496,221.216942 L76.0321096,221.216942 L76.0321096,218.058661 C76.0321096,217.569497 75.9546507,217.216808 75.7997306,217.000584 C75.6448105,216.784359 75.3983503,216.676248 75.0603428,216.676248 C74.7927535,216.676248 74.5568559,216.743596 74.3526431,216.878293 C74.1484302,217.012991 73.9160535,217.211489 73.655506,217.473794 L73.655506,221.216942 L72.789366,221.216942 L72.789366,213.645575 Z M78.5354654,216.048846 L79.2537278,216.048846 L79.3276666,216.793222 L79.3593546,216.793222 C79.6058184,216.545095 79.8646016,216.337735 80.1357118,216.171136 C80.406822,216.004537 80.7219389,215.921239 81.0810719,215.921239 C81.6232923,215.921239 82.0193889,216.09138 82.2693736,216.431668 C82.5193584,216.771956 82.6443489,217.275291 82.6443489,217.941688 L82.6443489,221.216942 L81.7782089,221.216942 L81.7782089,218.058661 C81.7782089,217.569497 81.70075,217.216808 81.5458299,217.000584 C81.3909098,216.784359 81.1444496,216.676248 80.8064421,216.676248 C80.5388528,216.676248 80.3029553,216.743596 80.0987424,216.878293 C79.8945295,217.012991 79.6621528,217.211489 79.4016053,217.473794 L79.4016053,221.216942 L78.5354654,221.216942 L78.5354654,216.048846 Z M86.5314161,214.241076 L88.263696,214.241076 C89.3340532,214.241076 90.1473716,214.538823 90.7036757,215.134327 C91.2599797,215.729831 91.5381276,216.584082 91.5381276,217.697107 C91.5381276,218.250075 91.4677104,218.744548 91.3268739,219.180542 C91.1860375,219.616536 90.9783068,219.985175 90.7036757,220.286472 C90.4290446,220.587769 90.0910421,220.818168 89.6896581,220.977678 C89.2882742,221.137188 88.8270417,221.216942 88.3059467,221.216942 L86.5314161,221.216942 L86.5314161,214.241076 Z M88.2003199,220.493834 C89.0101296,220.493834 89.6174778,220.249256 90.0223826,219.760092 C90.4272875,219.270928 90.6297369,218.583273 90.6297369,217.697107 C90.6297369,216.810941 90.4272875,216.13392 90.0223826,215.666024 C89.6174778,215.198128 89.0101296,214.964184 88.2003199,214.964184 L87.4081187,214.964184 L87.4081187,220.493834 L88.2003199,220.493834 Z M92.5627078,218.643528 C92.5627078,218.211079 92.6278437,217.826488 92.7581174,217.489745 C92.8883912,217.153002 93.0626737,216.867661 93.2809702,216.633713 C93.4992668,216.399765 93.7510082,216.222534 94.036202,216.102016 C94.3213959,215.981497 94.6224293,215.921239 94.9393114,215.921239 C95.2561934,215.921239 95.5572269,215.981497 95.8424207,216.102016 C96.1276146,216.222534 96.379356,216.399765 96.5976525,216.633713 C96.8159491,216.867661 96.9902316,217.153002 97.1205053,217.489745 C97.2507791,217.826488 97.315915,218.211079 97.315915,218.643528 C97.315915,219.068888 97.2507791,219.449933 97.1205053,219.786677 C96.9902316,220.12342 96.8159491,220.406989 96.5976525,220.637392 C96.379356,220.867795 96.1276146,221.043254 95.8424207,221.163772 C95.5572269,221.284291 95.2561934,221.344549 94.9393114,221.344549 C94.6224293,221.344549 94.3213959,221.284291 94.036202,221.163772 C93.7510082,221.043254 93.4992668,220.867795 93.2809702,220.637392 C93.0626737,220.406989 92.8883912,220.12342 92.7581174,219.786677 C92.6278437,219.449933 92.5627078,219.068888 92.5627078,218.643528 Z M93.4605358,218.643528 C93.4605358,218.94128 93.4957444,219.21067 93.5661626,219.451707 C93.6365809,219.692745 93.7369254,219.900105 93.8671991,220.073793 C93.9974728,220.247482 94.1541511,220.382177 94.3372385,220.477883 C94.5203259,220.573589 94.7210149,220.621441 94.9393114,220.621441 C95.1576079,220.621441 95.3582969,220.573589 95.5413843,220.477883 C95.7244717,220.382177 95.8811499,220.247482 96.0114237,220.073793 C96.1416974,219.900105 96.2420419,219.692745 96.3124601,219.451707 C96.3828784,219.21067 96.4180869,218.94128 96.4180869,218.643528 C96.4180869,218.345776 96.3828784,218.074613 96.3124601,217.830031 C96.2420419,217.585449 96.1416974,217.374545 96.0114237,217.197312 C95.8811499,217.020078 95.7244717,216.883611 95.5413843,216.787905 C95.3582969,216.692199 95.1576079,216.644347 94.9393114,216.644347 C94.7210149,216.644347 94.5203259,216.692199 94.3372385,216.787905 C94.1541511,216.883611 93.9974728,217.020078 93.8671991,217.197312 C93.7369254,217.374545 93.6365809,217.585449 93.5661626,217.830031 C93.4957444,218.074613 93.4605358,218.345776 93.4605358,218.643528 Z M98.2876818,218.643528 C98.2876818,218.218168 98.3528176,217.837122 98.4830914,217.500379 C98.6133651,217.163636 98.7858872,216.878295 99.0006628,216.644347 C99.2154384,216.410399 99.4601381,216.231396 99.7347693,216.107332 C100.0094,215.983269 100.29459,215.921239 100.590347,215.921239 C100.91427,215.921239 101.204741,215.977952 101.461768,216.091382 C101.718794,216.204811 101.933567,216.367863 102.106092,216.580543 C102.278616,216.793223 102.410648,217.048435 102.502192,217.346187 C102.593736,217.643939 102.639507,217.977132 102.639507,218.345777 C102.639507,218.537189 102.628944,218.696697 102.607819,218.824305 L99.143259,218.824305 C99.1784682,219.384362 99.3492298,219.827438 99.6555491,220.153548 C99.9618685,220.479657 100.361486,220.642709 100.854414,220.642709 C101.100877,220.642709 101.327973,220.605491 101.535707,220.531053 C101.74344,220.456615 101.942369,220.359138 102.132498,220.238619 L102.438816,220.812852 C102.213478,220.954639 101.963497,221.0787 101.688866,221.18504 C101.414234,221.29138 101.100878,221.344549 100.748787,221.344549 C100.403737,221.344549 100.081579,221.282519 99.7823013,221.158455 C99.4830238,221.034392 99.2224803,220.857161 99.0006628,220.626758 C98.7788454,220.396355 98.6045629,220.114558 98.47781,219.78136 C98.3510572,219.448161 98.2876818,219.068888 98.2876818,218.643528 Z M101.878994,218.250072 C101.878994,217.718372 101.768087,217.312514 101.546269,217.032486 C101.324452,216.752457 101.012856,216.612445 100.611472,216.612445 C100.428385,216.612445 100.254102,216.649663 100.088619,216.724101 C99.9231363,216.798539 99.7734998,216.904878 99.6397051,217.043119 C99.5059105,217.181361 99.3950034,217.351503 99.3069806,217.553549 C99.2189578,217.755595 99.1608637,217.987767 99.1326964,218.250072 L101.878994,218.250072 Z" id="John-Doe" fill="#79797B"></path>
                <path d="M63.8562173,236.846904 L99.4371077,236.846904" id="Line" stroke="#4990E2" stroke-width="4" stroke-linecap="square"></path>
                <g id="Group-4" transform="translate(0.480122, 0.887503)" stroke="#979797" stroke-width="2">
                    <path d="M0,194.083864 L11.6571502,120.115372 C11.7534009,117.430479 13.4491437,115.675935 16.7443786,114.85174 C20.0396134,114.027545 30.6331392,110.370385 48.524956,103.880259 C53.8544333,101.213874 57.1334462,98.7516328 58.3619945,96.493535 C60.204817,93.1063882 64.4030782,86.0773237 61.3825364,80.5262573 C59.3688418,76.8255463 58.3279283,73.3986596 58.2597957,70.2455972 C56.0222372,70.6179547 54.3362276,70.3533849 53.201767,69.4518878 C51.5000762,68.0996421 48.181049,54.5200252 48.3530025,51.9543514 C48.524956,49.3886775 45.8434546,30.2138992 49.5226108,24.2398476 C53.201767,18.2657961 58.8713662,9.1038417 60.1269513,9.94654553 C61.3825364,10.7892494 68.5672731,3.86470628 71.740302,3.05629854 C74.9133309,2.2478908 78.5048882,2.76233209 79.6955851,2.90931532 C80.4893831,3.00730414 81.4437792,2.25496777 82.5587733,0.652306234 L89.9852183,3.32413464 C95.0302694,4.19841264 97.8188362,5.52071729 98.3509187,7.29104859 C99.1490426,9.94654553 105.532411,17.276109 106.559266,23.5931214 C107.58612,29.9101338 109.524652,37.0959804 108.041959,39.1766096 C107.053497,40.5636958 107.076208,42.9693212 108.110092,46.393486 C109.959403,48.0778049 110.699127,50.0952858 110.329265,52.4459286 C109.774472,55.9718929 106.669575,62.7233224 106.61442,65.0636219 C106.57765,66.6238217 105.334502,67.9619134 102.884976,69.0778971 C102.603794,72.714371 102.209599,75.5315495 101.70239,77.5294326 C100.941577,80.5262573 98.5066502,86.924927 100.10452,90.0017759 C101.70239,93.0786247 100.70798,98.894261 109.112613,102.550877 C114.715702,104.988621 126.766507,107.926652 145.265027,111.364971 C149.175618,112.928437 151.307733,114.777704 151.661373,116.912771 C152.191834,120.115372 165.891337,162.655584 167.714693,171.223073 C169.53805,179.790562 171.60798,192.979857 170.634659,193.53186 C169.985778,193.899863 113.107558,194.083864 0,194.083864 Z" id="Path-3"></path>
                    <path d="M57.8467412,19.4129906 C62.6549506,14.9263196 70.4269248,12.7194752 80.1585201,13.2807435 C89.8901155,13.8420118 94.9205667,12.9001932 97.9865302,18.2539629 C101.052494,23.6077327 101.179026,31.5627985 101.441822,34.1901597 C101.704619,36.8175209 103.660996,51.9422245 103.656129,54.0430709 C103.651263,56.1439173 97.3425157,80.6850695 92.6949043,83.1508271 C88.0472929,85.6165848 85.609122,91.397822 78.5801167,89.2257311 C71.5511114,87.0536401 59.2872573,72.9228853 57.6472102,65.8349182 C56.007163,58.746951 53.0742202,54.4305719 54.2632949,47.7457448 C55.4523696,41.0609178 56.8312421,37.411805 57.3389916,34.2944201 C57.8467412,31.1770352 58.6043099,32.2109505 57.9716508,27.1960269 C57.3389916,22.1811033 53.0385317,23.8996617 57.8467412,19.4129906 Z" id="Path-4"></path>
                    <path d="M62.3591025,90.9588 L78.743352,102.766452 L99.2869298,90.9588 L101.178418,99.0200133 L96.6703165,110.519001 C88.5149617,162.657762 84.4848689,188.284559 84.5800381,187.399394 C84.6752074,186.514228 76.1386349,157.618415 58.9703206,100.711954 L62.3591025,90.9588 Z" id="Path-8"></path>
                </g>
            </g>
            <g id="Group-5" transform="translate(207.842095, 285.530645)">
                <path d="M62.0893686,219.78136 C62.2442887,220.057844 62.4203317,220.258114 62.6175027,220.382177 C62.8146738,220.506241 63.0364879,220.568271 63.2829517,220.568271 C63.6561684,220.568271 63.9343162,220.453072 64.1174037,220.222668 C64.3004911,219.992265 64.3920334,219.611219 64.3920334,219.079519 L64.3920334,214.241076 L65.2792987,214.241076 L65.2792987,219.164591 C65.2792987,219.462343 65.2423297,219.74414 65.1683906,220.009989 C65.0944514,220.275839 64.9817839,220.508011 64.8303847,220.706513 C64.6789855,220.905014 64.4818174,221.060977 64.2388745,221.174406 C63.9959316,221.287835 63.7054607,221.344549 63.3674532,221.344549 C62.5013089,221.344549 61.8640334,220.972365 61.4556077,220.227985 L62.0893686,219.78136 Z M66.6841355,218.643528 C66.6841355,218.211079 66.7492714,217.826488 66.8795451,217.489745 C67.0098189,217.153002 67.1841014,216.867661 67.4023979,216.633713 C67.6206945,216.399765 67.8724359,216.222534 68.1576297,216.102016 C68.4428236,215.981497 68.743857,215.921239 69.0607391,215.921239 C69.3776212,215.921239 69.6786546,215.981497 69.9638485,216.102016 C70.2490423,216.222534 70.5007837,216.399765 70.7190803,216.633713 C70.9373768,216.867661 71.1116593,217.153002 71.241933,217.489745 C71.3722068,217.826488 71.4373427,218.211079 71.4373427,218.643528 C71.4373427,219.068888 71.3722068,219.449933 71.241933,219.786677 C71.1116593,220.12342 70.9373768,220.406989 70.7190803,220.637392 C70.5007837,220.867795 70.2490423,221.043254 69.9638485,221.163772 C69.6786546,221.284291 69.3776212,221.344549 69.0607391,221.344549 C68.743857,221.344549 68.4428236,221.284291 68.1576297,221.163772 C67.8724359,221.043254 67.6206945,220.867795 67.4023979,220.637392 C67.1841014,220.406989 67.0098189,220.12342 66.8795451,219.786677 C66.7492714,219.449933 66.6841355,219.068888 66.6841355,218.643528 Z M67.5819635,218.643528 C67.5819635,218.94128 67.6171721,219.21067 67.6875904,219.451707 C67.7580086,219.692745 67.8583531,219.900105 67.9886268,220.073793 C68.1189006,220.247482 68.2755788,220.382177 68.4586662,220.477883 C68.6417536,220.573589 68.8424426,220.621441 69.0607391,220.621441 C69.2790356,220.621441 69.4797246,220.573589 69.662812,220.477883 C69.8458994,220.382177 70.0025776,220.247482 70.1328514,220.073793 C70.2631251,219.900105 70.3634696,219.692745 70.4338878,219.451707 C70.5043061,219.21067 70.5395147,218.94128 70.5395147,218.643528 C70.5395147,218.345776 70.5043061,218.074613 70.4338878,217.830031 C70.3634696,217.585449 70.2631251,217.374545 70.1328514,217.197312 C70.0025776,217.020078 69.8458994,216.883611 69.662812,216.787905 C69.4797246,216.692199 69.2790356,216.644347 69.0607391,216.644347 C68.8424426,216.644347 68.6417536,216.692199 68.4586662,216.787905 C68.2755788,216.883611 68.1189006,217.020078 67.9886268,217.197312 C67.8583531,217.374545 67.7580086,217.585449 67.6875904,217.830031 C67.6171721,218.074613 67.5819635,218.345776 67.5819635,218.643528 Z M72.789366,213.645575 L73.655506,213.645575 L73.655506,215.70856 L73.623818,216.771954 C73.8702818,216.538006 74.1273045,216.337735 74.3948938,216.171136 C74.6624831,216.004537 74.9758395,215.921239 75.3349725,215.921239 C75.877193,215.921239 76.2732896,216.09138 76.5232743,216.431668 C76.7732591,216.771956 76.8982496,217.275291 76.8982496,217.941688 L76.8982496,221.216942 L76.0321096,221.216942 L76.0321096,218.058661 C76.0321096,217.569497 75.9546507,217.216808 75.7997306,217.000584 C75.6448105,216.784359 75.3983503,216.676248 75.0603428,216.676248 C74.7927535,216.676248 74.5568559,216.743596 74.3526431,216.878293 C74.1484302,217.012991 73.9160535,217.211489 73.655506,217.473794 L73.655506,221.216942 L72.789366,221.216942 L72.789366,213.645575 Z M78.5354654,216.048846 L79.2537278,216.048846 L79.3276666,216.793222 L79.3593546,216.793222 C79.6058184,216.545095 79.8646016,216.337735 80.1357118,216.171136 C80.406822,216.004537 80.7219389,215.921239 81.0810719,215.921239 C81.6232923,215.921239 82.0193889,216.09138 82.2693736,216.431668 C82.5193584,216.771956 82.6443489,217.275291 82.6443489,217.941688 L82.6443489,221.216942 L81.7782089,221.216942 L81.7782089,218.058661 C81.7782089,217.569497 81.70075,217.216808 81.5458299,217.000584 C81.3909098,216.784359 81.1444496,216.676248 80.8064421,216.676248 C80.5388528,216.676248 80.3029553,216.743596 80.0987424,216.878293 C79.8945295,217.012991 79.6621528,217.211489 79.4016053,217.473794 L79.4016053,221.216942 L78.5354654,221.216942 L78.5354654,216.048846 Z M86.5314161,214.241076 L88.263696,214.241076 C89.3340532,214.241076 90.1473716,214.538823 90.7036757,215.134327 C91.2599797,215.729831 91.5381276,216.584082 91.5381276,217.697107 C91.5381276,218.250075 91.4677104,218.744548 91.3268739,219.180542 C91.1860375,219.616536 90.9783068,219.985175 90.7036757,220.286472 C90.4290446,220.587769 90.0910421,220.818168 89.6896581,220.977678 C89.2882742,221.137188 88.8270417,221.216942 88.3059467,221.216942 L86.5314161,221.216942 L86.5314161,214.241076 Z M88.2003199,220.493834 C89.0101296,220.493834 89.6174778,220.249256 90.0223826,219.760092 C90.4272875,219.270928 90.6297369,218.583273 90.6297369,217.697107 C90.6297369,216.810941 90.4272875,216.13392 90.0223826,215.666024 C89.6174778,215.198128 89.0101296,214.964184 88.2003199,214.964184 L87.4081187,214.964184 L87.4081187,220.493834 L88.2003199,220.493834 Z M92.5627078,218.643528 C92.5627078,218.211079 92.6278437,217.826488 92.7581174,217.489745 C92.8883912,217.153002 93.0626737,216.867661 93.2809702,216.633713 C93.4992668,216.399765 93.7510082,216.222534 94.036202,216.102016 C94.3213959,215.981497 94.6224293,215.921239 94.9393114,215.921239 C95.2561934,215.921239 95.5572269,215.981497 95.8424207,216.102016 C96.1276146,216.222534 96.379356,216.399765 96.5976525,216.633713 C96.8159491,216.867661 96.9902316,217.153002 97.1205053,217.489745 C97.2507791,217.826488 97.315915,218.211079 97.315915,218.643528 C97.315915,219.068888 97.2507791,219.449933 97.1205053,219.786677 C96.9902316,220.12342 96.8159491,220.406989 96.5976525,220.637392 C96.379356,220.867795 96.1276146,221.043254 95.8424207,221.163772 C95.5572269,221.284291 95.2561934,221.344549 94.9393114,221.344549 C94.6224293,221.344549 94.3213959,221.284291 94.036202,221.163772 C93.7510082,221.043254 93.4992668,220.867795 93.2809702,220.637392 C93.0626737,220.406989 92.8883912,220.12342 92.7581174,219.786677 C92.6278437,219.449933 92.5627078,219.068888 92.5627078,218.643528 Z M93.4605358,218.643528 C93.4605358,218.94128 93.4957444,219.21067 93.5661626,219.451707 C93.6365809,219.692745 93.7369254,219.900105 93.8671991,220.073793 C93.9974728,220.247482 94.1541511,220.382177 94.3372385,220.477883 C94.5203259,220.573589 94.7210149,220.621441 94.9393114,220.621441 C95.1576079,220.621441 95.3582969,220.573589 95.5413843,220.477883 C95.7244717,220.382177 95.8811499,220.247482 96.0114237,220.073793 C96.1416974,219.900105 96.2420419,219.692745 96.3124601,219.451707 C96.3828784,219.21067 96.4180869,218.94128 96.4180869,218.643528 C96.4180869,218.345776 96.3828784,218.074613 96.3124601,217.830031 C96.2420419,217.585449 96.1416974,217.374545 96.0114237,217.197312 C95.8811499,217.020078 95.7244717,216.883611 95.5413843,216.787905 C95.3582969,216.692199 95.1576079,216.644347 94.9393114,216.644347 C94.7210149,216.644347 94.5203259,216.692199 94.3372385,216.787905 C94.1541511,216.883611 93.9974728,217.020078 93.8671991,217.197312 C93.7369254,217.374545 93.6365809,217.585449 93.5661626,217.830031 C93.4957444,218.074613 93.4605358,218.345776 93.4605358,218.643528 Z M98.2876818,218.643528 C98.2876818,218.218168 98.3528176,217.837122 98.4830914,217.500379 C98.6133651,217.163636 98.7858872,216.878295 99.0006628,216.644347 C99.2154384,216.410399 99.4601381,216.231396 99.7347693,216.107332 C100.0094,215.983269 100.29459,215.921239 100.590347,215.921239 C100.91427,215.921239 101.204741,215.977952 101.461768,216.091382 C101.718794,216.204811 101.933567,216.367863 102.106092,216.580543 C102.278616,216.793223 102.410648,217.048435 102.502192,217.346187 C102.593736,217.643939 102.639507,217.977132 102.639507,218.345777 C102.639507,218.537189 102.628944,218.696697 102.607819,218.824305 L99.143259,218.824305 C99.1784682,219.384362 99.3492298,219.827438 99.6555491,220.153548 C99.9618685,220.479657 100.361486,220.642709 100.854414,220.642709 C101.100877,220.642709 101.327973,220.605491 101.535707,220.531053 C101.74344,220.456615 101.942369,220.359138 102.132498,220.238619 L102.438816,220.812852 C102.213478,220.954639 101.963497,221.0787 101.688866,221.18504 C101.414234,221.29138 101.100878,221.344549 100.748787,221.344549 C100.403737,221.344549 100.081579,221.282519 99.7823013,221.158455 C99.4830238,221.034392 99.2224803,220.857161 99.0006628,220.626758 C98.7788454,220.396355 98.6045629,220.114558 98.47781,219.78136 C98.3510572,219.448161 98.2876818,219.068888 98.2876818,218.643528 Z M101.878994,218.250072 C101.878994,217.718372 101.768087,217.312514 101.546269,217.032486 C101.324452,216.752457 101.012856,216.612445 100.611472,216.612445 C100.428385,216.612445 100.254102,216.649663 100.088619,216.724101 C99.9231363,216.798539 99.7734998,216.904878 99.6397051,217.043119 C99.5059105,217.181361 99.3950034,217.351503 99.3069806,217.553549 C99.2189578,217.755595 99.1608637,217.987767 99.1326964,218.250072 L101.878994,218.250072 Z" id="John-Doe" fill="#79797B"></path>
                <path d="M63.8562173,236.846904 L99.4371077,236.846904" id="Line" stroke="#4990E2" stroke-width="4" stroke-linecap="square"></path>
                <g id="Group-4" transform="translate(0.480122, 0.887503)" stroke="#979797" stroke-width="2">
                    <path d="M0,194.083864 L11.6571502,120.115372 C11.7534009,117.430479 13.4491437,115.675935 16.7443786,114.85174 C20.0396134,114.027545 30.6331392,110.370385 48.524956,103.880259 C53.8544333,101.213874 57.1334462,98.7516328 58.3619945,96.493535 C60.204817,93.1063882 64.4030782,86.0773237 61.3825364,80.5262573 C59.3688418,76.8255463 58.3279283,73.3986596 58.2597957,70.2455972 C56.0222372,70.6179547 54.3362276,70.3533849 53.201767,69.4518878 C51.5000762,68.0996421 48.181049,54.5200252 48.3530025,51.9543514 C48.524956,49.3886775 45.8434546,30.2138992 49.5226108,24.2398476 C53.201767,18.2657961 58.8713662,9.1038417 60.1269513,9.94654553 C61.3825364,10.7892494 68.5672731,3.86470628 71.740302,3.05629854 C74.9133309,2.2478908 78.5048882,2.76233209 79.6955851,2.90931532 C80.4893831,3.00730414 81.4437792,2.25496777 82.5587733,0.652306234 L89.9852183,3.32413464 C95.0302694,4.19841264 97.8188362,5.52071729 98.3509187,7.29104859 C99.1490426,9.94654553 105.532411,17.276109 106.559266,23.5931214 C107.58612,29.9101338 109.524652,37.0959804 108.041959,39.1766096 C107.053497,40.5636958 107.076208,42.9693212 108.110092,46.393486 C109.959403,48.0778049 110.699127,50.0952858 110.329265,52.4459286 C109.774472,55.9718929 106.669575,62.7233224 106.61442,65.0636219 C106.57765,66.6238217 105.334502,67.9619134 102.884976,69.0778971 C102.603794,72.714371 102.209599,75.5315495 101.70239,77.5294326 C100.941577,80.5262573 98.5066502,86.924927 100.10452,90.0017759 C101.70239,93.0786247 100.70798,98.894261 109.112613,102.550877 C114.715702,104.988621 126.766507,107.926652 145.265027,111.364971 C149.175618,112.928437 151.307733,114.777704 151.661373,116.912771 C152.191834,120.115372 165.891337,162.655584 167.714693,171.223073 C169.53805,179.790562 171.60798,192.979857 170.634659,193.53186 C169.985778,193.899863 113.107558,194.083864 0,194.083864 Z" id="Path-3"></path>
                    <path d="M57.8467412,19.4129906 C62.6549506,14.9263196 70.4269248,12.7194752 80.1585201,13.2807435 C89.8901155,13.8420118 94.9205667,12.9001932 97.9865302,18.2539629 C101.052494,23.6077327 101.179026,31.5627985 101.441822,34.1901597 C101.704619,36.8175209 103.660996,51.9422245 103.656129,54.0430709 C103.651263,56.1439173 97.3425157,80.6850695 92.6949043,83.1508271 C88.0472929,85.6165848 85.609122,91.397822 78.5801167,89.2257311 C71.5511114,87.0536401 59.2872573,72.9228853 57.6472102,65.8349182 C56.007163,58.746951 53.0742202,54.4305719 54.2632949,47.7457448 C55.4523696,41.0609178 56.8312421,37.411805 57.3389916,34.2944201 C57.8467412,31.1770352 58.6043099,32.2109505 57.9716508,27.1960269 C57.3389916,22.1811033 53.0385317,23.8996617 57.8467412,19.4129906 Z" id="Path-4"></path>
                    <path d="M62.3591025,90.9588 L78.743352,102.766452 L99.2869298,90.9588 L101.178418,99.0200133 L96.6703165,110.519001 C88.5149617,162.657762 84.4848689,188.284559 84.5800381,187.399394 C84.6752074,186.514228 76.1386349,157.618415 58.9703206,100.711954 L62.3591025,90.9588 Z" id="Path-8"></path>
                </g>
            </g>
            <g id="Group-5" transform="translate(426.782554, 0.000000)">
                <path d="M62.0893686,219.78136 C62.2442887,220.057844 62.4203317,220.258114 62.6175027,220.382177 C62.8146738,220.506241 63.0364879,220.568271 63.2829517,220.568271 C63.6561684,220.568271 63.9343162,220.453072 64.1174037,220.222668 C64.3004911,219.992265 64.3920334,219.611219 64.3920334,219.079519 L64.3920334,214.241076 L65.2792987,214.241076 L65.2792987,219.164591 C65.2792987,219.462343 65.2423297,219.74414 65.1683906,220.009989 C65.0944514,220.275839 64.9817839,220.508011 64.8303847,220.706513 C64.6789855,220.905014 64.4818174,221.060977 64.2388745,221.174406 C63.9959316,221.287835 63.7054607,221.344549 63.3674532,221.344549 C62.5013089,221.344549 61.8640334,220.972365 61.4556077,220.227985 L62.0893686,219.78136 Z M66.6841355,218.643528 C66.6841355,218.211079 66.7492714,217.826488 66.8795451,217.489745 C67.0098189,217.153002 67.1841014,216.867661 67.4023979,216.633713 C67.6206945,216.399765 67.8724359,216.222534 68.1576297,216.102016 C68.4428236,215.981497 68.743857,215.921239 69.0607391,215.921239 C69.3776212,215.921239 69.6786546,215.981497 69.9638485,216.102016 C70.2490423,216.222534 70.5007837,216.399765 70.7190803,216.633713 C70.9373768,216.867661 71.1116593,217.153002 71.241933,217.489745 C71.3722068,217.826488 71.4373427,218.211079 71.4373427,218.643528 C71.4373427,219.068888 71.3722068,219.449933 71.241933,219.786677 C71.1116593,220.12342 70.9373768,220.406989 70.7190803,220.637392 C70.5007837,220.867795 70.2490423,221.043254 69.9638485,221.163772 C69.6786546,221.284291 69.3776212,221.344549 69.0607391,221.344549 C68.743857,221.344549 68.4428236,221.284291 68.1576297,221.163772 C67.8724359,221.043254 67.6206945,220.867795 67.4023979,220.637392 C67.1841014,220.406989 67.0098189,220.12342 66.8795451,219.786677 C66.7492714,219.449933 66.6841355,219.068888 66.6841355,218.643528 Z M67.5819635,218.643528 C67.5819635,218.94128 67.6171721,219.21067 67.6875904,219.451707 C67.7580086,219.692745 67.8583531,219.900105 67.9886268,220.073793 C68.1189006,220.247482 68.2755788,220.382177 68.4586662,220.477883 C68.6417536,220.573589 68.8424426,220.621441 69.0607391,220.621441 C69.2790356,220.621441 69.4797246,220.573589 69.662812,220.477883 C69.8458994,220.382177 70.0025776,220.247482 70.1328514,220.073793 C70.2631251,219.900105 70.3634696,219.692745 70.4338878,219.451707 C70.5043061,219.21067 70.5395147,218.94128 70.5395147,218.643528 C70.5395147,218.345776 70.5043061,218.074613 70.4338878,217.830031 C70.3634696,217.585449 70.2631251,217.374545 70.1328514,217.197312 C70.0025776,217.020078 69.8458994,216.883611 69.662812,216.787905 C69.4797246,216.692199 69.2790356,216.644347 69.0607391,216.644347 C68.8424426,216.644347 68.6417536,216.692199 68.4586662,216.787905 C68.2755788,216.883611 68.1189006,217.020078 67.9886268,217.197312 C67.8583531,217.374545 67.7580086,217.585449 67.6875904,217.830031 C67.6171721,218.074613 67.5819635,218.345776 67.5819635,218.643528 Z M72.789366,213.645575 L73.655506,213.645575 L73.655506,215.70856 L73.623818,216.771954 C73.8702818,216.538006 74.1273045,216.337735 74.3948938,216.171136 C74.6624831,216.004537 74.9758395,215.921239 75.3349725,215.921239 C75.877193,215.921239 76.2732896,216.09138 76.5232743,216.431668 C76.7732591,216.771956 76.8982496,217.275291 76.8982496,217.941688 L76.8982496,221.216942 L76.0321096,221.216942 L76.0321096,218.058661 C76.0321096,217.569497 75.9546507,217.216808 75.7997306,217.000584 C75.6448105,216.784359 75.3983503,216.676248 75.0603428,216.676248 C74.7927535,216.676248 74.5568559,216.743596 74.3526431,216.878293 C74.1484302,217.012991 73.9160535,217.211489 73.655506,217.473794 L73.655506,221.216942 L72.789366,221.216942 L72.789366,213.645575 Z M78.5354654,216.048846 L79.2537278,216.048846 L79.3276666,216.793222 L79.3593546,216.793222 C79.6058184,216.545095 79.8646016,216.337735 80.1357118,216.171136 C80.406822,216.004537 80.7219389,215.921239 81.0810719,215.921239 C81.6232923,215.921239 82.0193889,216.09138 82.2693736,216.431668 C82.5193584,216.771956 82.6443489,217.275291 82.6443489,217.941688 L82.6443489,221.216942 L81.7782089,221.216942 L81.7782089,218.058661 C81.7782089,217.569497 81.70075,217.216808 81.5458299,217.000584 C81.3909098,216.784359 81.1444496,216.676248 80.8064421,216.676248 C80.5388528,216.676248 80.3029553,216.743596 80.0987424,216.878293 C79.8945295,217.012991 79.6621528,217.211489 79.4016053,217.473794 L79.4016053,221.216942 L78.5354654,221.216942 L78.5354654,216.048846 Z M86.5314161,214.241076 L88.263696,214.241076 C89.3340532,214.241076 90.1473716,214.538823 90.7036757,215.134327 C91.2599797,215.729831 91.5381276,216.584082 91.5381276,217.697107 C91.5381276,218.250075 91.4677104,218.744548 91.3268739,219.180542 C91.1860375,219.616536 90.9783068,219.985175 90.7036757,220.286472 C90.4290446,220.587769 90.0910421,220.818168 89.6896581,220.977678 C89.2882742,221.137188 88.8270417,221.216942 88.3059467,221.216942 L86.5314161,221.216942 L86.5314161,214.241076 Z M88.2003199,220.493834 C89.0101296,220.493834 89.6174778,220.249256 90.0223826,219.760092 C90.4272875,219.270928 90.6297369,218.583273 90.6297369,217.697107 C90.6297369,216.810941 90.4272875,216.13392 90.0223826,215.666024 C89.6174778,215.198128 89.0101296,214.964184 88.2003199,214.964184 L87.4081187,214.964184 L87.4081187,220.493834 L88.2003199,220.493834 Z M92.5627078,218.643528 C92.5627078,218.211079 92.6278437,217.826488 92.7581174,217.489745 C92.8883912,217.153002 93.0626737,216.867661 93.2809702,216.633713 C93.4992668,216.399765 93.7510082,216.222534 94.036202,216.102016 C94.3213959,215.981497 94.6224293,215.921239 94.9393114,215.921239 C95.2561934,215.921239 95.5572269,215.981497 95.8424207,216.102016 C96.1276146,216.222534 96.379356,216.399765 96.5976525,216.633713 C96.8159491,216.867661 96.9902316,217.153002 97.1205053,217.489745 C97.2507791,217.826488 97.315915,218.211079 97.315915,218.643528 C97.315915,219.068888 97.2507791,219.449933 97.1205053,219.786677 C96.9902316,220.12342 96.8159491,220.406989 96.5976525,220.637392 C96.379356,220.867795 96.1276146,221.043254 95.8424207,221.163772 C95.5572269,221.284291 95.2561934,221.344549 94.9393114,221.344549 C94.6224293,221.344549 94.3213959,221.284291 94.036202,221.163772 C93.7510082,221.043254 93.4992668,220.867795 93.2809702,220.637392 C93.0626737,220.406989 92.8883912,220.12342 92.7581174,219.786677 C92.6278437,219.449933 92.5627078,219.068888 92.5627078,218.643528 Z M93.4605358,218.643528 C93.4605358,218.94128 93.4957444,219.21067 93.5661626,219.451707 C93.6365809,219.692745 93.7369254,219.900105 93.8671991,220.073793 C93.9974728,220.247482 94.1541511,220.382177 94.3372385,220.477883 C94.5203259,220.573589 94.7210149,220.621441 94.9393114,220.621441 C95.1576079,220.621441 95.3582969,220.573589 95.5413843,220.477883 C95.7244717,220.382177 95.8811499,220.247482 96.0114237,220.073793 C96.1416974,219.900105 96.2420419,219.692745 96.3124601,219.451707 C96.3828784,219.21067 96.4180869,218.94128 96.4180869,218.643528 C96.4180869,218.345776 96.3828784,218.074613 96.3124601,217.830031 C96.2420419,217.585449 96.1416974,217.374545 96.0114237,217.197312 C95.8811499,217.020078 95.7244717,216.883611 95.5413843,216.787905 C95.3582969,216.692199 95.1576079,216.644347 94.9393114,216.644347 C94.7210149,216.644347 94.5203259,216.692199 94.3372385,216.787905 C94.1541511,216.883611 93.9974728,217.020078 93.8671991,217.197312 C93.7369254,217.374545 93.6365809,217.585449 93.5661626,217.830031 C93.4957444,218.074613 93.4605358,218.345776 93.4605358,218.643528 Z M98.2876818,218.643528 C98.2876818,218.218168 98.3528176,217.837122 98.4830914,217.500379 C98.6133651,217.163636 98.7858872,216.878295 99.0006628,216.644347 C99.2154384,216.410399 99.4601381,216.231396 99.7347693,216.107332 C100.0094,215.983269 100.29459,215.921239 100.590347,215.921239 C100.91427,215.921239 101.204741,215.977952 101.461768,216.091382 C101.718794,216.204811 101.933567,216.367863 102.106092,216.580543 C102.278616,216.793223 102.410648,217.048435 102.502192,217.346187 C102.593736,217.643939 102.639507,217.977132 102.639507,218.345777 C102.639507,218.537189 102.628944,218.696697 102.607819,218.824305 L99.143259,218.824305 C99.1784682,219.384362 99.3492298,219.827438 99.6555491,220.153548 C99.9618685,220.479657 100.361486,220.642709 100.854414,220.642709 C101.100877,220.642709 101.327973,220.605491 101.535707,220.531053 C101.74344,220.456615 101.942369,220.359138 102.132498,220.238619 L102.438816,220.812852 C102.213478,220.954639 101.963497,221.0787 101.688866,221.18504 C101.414234,221.29138 101.100878,221.344549 100.748787,221.344549 C100.403737,221.344549 100.081579,221.282519 99.7823013,221.158455 C99.4830238,221.034392 99.2224803,220.857161 99.0006628,220.626758 C98.7788454,220.396355 98.6045629,220.114558 98.47781,219.78136 C98.3510572,219.448161 98.2876818,219.068888 98.2876818,218.643528 Z M101.878994,218.250072 C101.878994,217.718372 101.768087,217.312514 101.546269,217.032486 C101.324452,216.752457 101.012856,216.612445 100.611472,216.612445 C100.428385,216.612445 100.254102,216.649663 100.088619,216.724101 C99.9231363,216.798539 99.7734998,216.904878 99.6397051,217.043119 C99.5059105,217.181361 99.3950034,217.351503 99.3069806,217.553549 C99.2189578,217.755595 99.1608637,217.987767 99.1326964,218.250072 L101.878994,218.250072 Z" id="John-Doe" fill="#79797B"></path>
                <path d="M63.8562173,236.846904 L99.4371077,236.846904" id="Line" stroke="#4990E2" stroke-width="4" stroke-linecap="square"></path>
                <g id="Group-4" transform="translate(0.480122, 0.887503)" stroke="#979797" stroke-width="2">
                    <path d="M0,194.083864 L11.6571502,120.115372 C11.7534009,117.430479 13.4491437,115.675935 16.7443786,114.85174 C20.0396134,114.027545 30.6331392,110.370385 48.524956,103.880259 C53.8544333,101.213874 57.1334462,98.7516328 58.3619945,96.493535 C60.204817,93.1063882 64.4030782,86.0773237 61.3825364,80.5262573 C59.3688418,76.8255463 58.3279283,73.3986596 58.2597957,70.2455972 C56.0222372,70.6179547 54.3362276,70.3533849 53.201767,69.4518878 C51.5000762,68.0996421 48.181049,54.5200252 48.3530025,51.9543514 C48.524956,49.3886775 45.8434546,30.2138992 49.5226108,24.2398476 C53.201767,18.2657961 58.8713662,9.1038417 60.1269513,9.94654553 C61.3825364,10.7892494 68.5672731,3.86470628 71.740302,3.05629854 C74.9133309,2.2478908 78.5048882,2.76233209 79.6955851,2.90931532 C80.4893831,3.00730414 81.4437792,2.25496777 82.5587733,0.652306234 L89.9852183,3.32413464 C95.0302694,4.19841264 97.8188362,5.52071729 98.3509187,7.29104859 C99.1490426,9.94654553 105.532411,17.276109 106.559266,23.5931214 C107.58612,29.9101338 109.524652,37.0959804 108.041959,39.1766096 C107.053497,40.5636958 107.076208,42.9693212 108.110092,46.393486 C109.959403,48.0778049 110.699127,50.0952858 110.329265,52.4459286 C109.774472,55.9718929 106.669575,62.7233224 106.61442,65.0636219 C106.57765,66.6238217 105.334502,67.9619134 102.884976,69.0778971 C102.603794,72.714371 102.209599,75.5315495 101.70239,77.5294326 C100.941577,80.5262573 98.5066502,86.924927 100.10452,90.0017759 C101.70239,93.0786247 100.70798,98.894261 109.112613,102.550877 C114.715702,104.988621 126.766507,107.926652 145.265027,111.364971 C149.175618,112.928437 151.307733,114.777704 151.661373,116.912771 C152.191834,120.115372 165.891337,162.655584 167.714693,171.223073 C169.53805,179.790562 171.60798,192.979857 170.634659,193.53186 C169.985778,193.899863 113.107558,194.083864 0,194.083864 Z" id="Path-3"></path>
                    <path d="M57.8467412,19.4129906 C62.6549506,14.9263196 70.4269248,12.7194752 80.1585201,13.2807435 C89.8901155,13.8420118 94.9205667,12.9001932 97.9865302,18.2539629 C101.052494,23.6077327 101.179026,31.5627985 101.441822,34.1901597 C101.704619,36.8175209 103.660996,51.9422245 103.656129,54.0430709 C103.651263,56.1439173 97.3425157,80.6850695 92.6949043,83.1508271 C88.0472929,85.6165848 85.609122,91.397822 78.5801167,89.2257311 C71.5511114,87.0536401 59.2872573,72.9228853 57.6472102,65.8349182 C56.007163,58.746951 53.0742202,54.4305719 54.2632949,47.7457448 C55.4523696,41.0609178 56.8312421,37.411805 57.3389916,34.2944201 C57.8467412,31.1770352 58.6043099,32.2109505 57.9716508,27.1960269 C57.3389916,22.1811033 53.0385317,23.8996617 57.8467412,19.4129906 Z" id="Path-4"></path>
                    <path d="M62.3591025,90.9588 L78.743352,102.766452 L99.2869298,90.9588 L101.178418,99.0200133 L96.6703165,110.519001 C88.5149617,162.657762 84.4848689,188.284559 84.5800381,187.399394 C84.6752074,186.514228 76.1386349,157.618415 58.9703206,100.711954 L62.3591025,90.9588 Z" id="Path-8"></path>
                </g>
            </g>
        </g>
    </g>
</svg>