<?xml version="1.0" encoding="UTF-8"?>
<svg width="600px" height="405px" viewBox="0 0 600 405" version="1.1" xmlns="http://www.w3.org/2000/svg" xmlns:xlink="http://www.w3.org/1999/xlink">
    <!-- Generator: Sketch 44.1 (41455) - http://www.bohemiancoding.com/sketch -->
    <title>testimonial01</title>
    <desc>Created with Sketch.</desc>
    <defs></defs>
    <g id="Testimonials" stroke="none" stroke-width="1" fill="none" fill-rule="evenodd">
        <g id="01">
            <rect id="Rectangle" fill="#F8F8F8" x="0" y="0" width="600" height="404.287902"></rect>
            <g id="Testimonial" transform="translate(26.646248, 130.898258)">
                <path d="M0.195964055,0.37521082 L262.901937,0.37521082 L262.901937,65.2520576 L20.1135542,65.2520576 L13.485097,72.158071 L7.23269696,65.4570806 L0.0521026094,65.4570806 L0.195964055,0.37521082 Z" id="Line" stroke="#D7D9D9" fill="#FFFFFF" stroke-linecap="square"></path>
                <path d="M138.894371,23.9363993 L170.785526,23.9363993" id="Line" stroke="#D7D9D9" stroke-width="3" stroke-linecap="square"></path>
                <path d="M16.3651978,23.9363993 L87.7056119,23.9363993" id="Line" stroke="#D7D9D9" stroke-width="3" stroke-linecap="square"></path>
                <path d="M99.4500482,23.9363993 L127.144998,23.9363993" id="Line" stroke="#D7D9D9" stroke-width="3" stroke-linecap="square"></path>
                <path d="M16.3651978,38.2142515 L124.640286,38.2142515" id="Line" stroke="#D7D9D9" stroke-width="3" stroke-linecap="square"></path>
                <path d="M136.376648,38.2142515 L156.51843,38.2142515" id="Line" stroke="#D7D9D9" stroke-width="3" stroke-linecap="square"></path>
                <path d="M35.6677388,86.9269238 L63.3754018,86.9269238" id="Line" stroke="#A1A1A1" stroke-width="3" stroke-linecap="square"></path>
                <path d="M35.6677388,95.3256604 L77.6297844,95.3256604" id="Line" stroke="#A1A1A1" stroke-width="3" stroke-linecap="square"></path>
                <path d="M70.9158571,86.9269238 L86.0221936,86.9269238" id="Line" stroke="#A1A1A1" stroke-width="3" stroke-linecap="square"></path>
                <path d="M166.589321,38.2142515 L207.720689,38.2142515" id="Line" stroke="#D7D9D9" stroke-width="3" stroke-linecap="square"></path>
                <path d="M180.856417,23.9363993 L244.644247,23.9363993" id="Line" stroke="#D7D9D9" stroke-width="3" stroke-linecap="square"></path>
                <polyline id="Path-14" fill="#4990E2" points="261.760615 41.993683 240.055737 64.0177395 261.760615 64.0177395"></polyline>
                <g id="icon-team" transform="translate(1.678482, 79.787998)" stroke="#979797">
                    <path d="M6.15968253,15.1128765 C5.20934889,8.46515749 6.63571592,5.1075675 10.4387836,5.04010651 C16.1433851,4.93891501 15.1871627,13.7518509 14.9765872,15.1128765" id="Path-5"></path>
                    <path d="M3.35696365,19.0571962 C3.35696365,16.7213592 4.84881288,15.6632523 6.28963642,14.9963309 C7.25018544,14.5517166 7.87741569,14.4389033 8.17132717,14.6578908 C8.27520962,15.3496808 8.4006353,15.8351055 8.54760421,16.1141648 C8.92653966,16.833674 9.46808331,17.196539 10.1722352,17.2027597 C11.8429448,17.2175194 12.6660897,15.6901848 12.6660897,14.2953923 C12.6675053,14.2292689 13.2368965,14.3501017 14.3742633,14.6578908 C16.7589112,16.5528714 17.945977,17.9840373 17.9354608,18.9513886" id="Path-6"></path>
                    <path d="M9.14312874,8.3987366 C9.93922478,9.41302376 10.7447753,10.1270985 11.5597803,10.5409607 C12.7822877,11.161754 13.1965145,12.0696237 13.1065707,12.8257635 C13.0166269,13.5819034 11.1918146,16.1520114 10.5248958,16.1843352 C9.85797708,16.2166589 7.41993926,14.3135421 7.55887435,12.8625152 C7.65149775,11.8951639 8.17958254,10.4072377 9.14312874,8.3987366 Z" id="Path-7"></path>
                    <ellipse id="Oval-2" cx="10.9101319" cy="10.9183576" rx="10.9101319" ry="10.9183576"></ellipse>
                </g>
                <path d="M252.611515,59.8506047 C253.097875,59.5303898 253.459439,59.1909671 253.69622,58.8323265 C253.933,58.4736858 254.051389,58.0125833 254.051389,57.4490052 C254.012992,57.4618138 253.961797,57.468218 253.897802,57.468218 C253.629024,57.468218 253.392248,57.3849633 253.187464,57.2184516 C252.982681,57.0519399 252.880291,56.8149844 252.880291,56.5075781 C252.880291,56.1745547 252.976282,55.9119824 253.168266,55.7198535 C253.36025,55.5277246 253.603427,55.4316616 253.897802,55.4316616 C254.268972,55.4316616 254.563343,55.5821603 254.780925,55.8831623 C254.998507,56.1841642 255.107297,56.6164478 255.107297,57.180026 C255.107297,57.9485417 254.931314,58.6113765 254.579343,59.1685504 C254.227372,59.7257243 253.718621,60.1964331 253.053076,60.5806909 L252.611515,59.8506047 Z M255.990419,59.8506047 C256.476779,59.5303898 256.838344,59.1909671 257.075125,58.8323265 C257.311905,58.4736858 257.430293,58.0125833 257.430293,57.4490052 C257.391897,57.4618138 257.340702,57.468218 257.276707,57.468218 C257.007929,57.468218 256.771152,57.3849633 256.566369,57.2184516 C256.361586,57.0519399 256.259196,56.8149844 256.259196,56.5075781 C256.259196,56.1745547 256.355187,55.9119824 256.547171,55.7198535 C256.739155,55.5277246 256.982331,55.4316616 257.276707,55.4316616 C257.647876,55.4316616 257.942248,55.5821603 258.15983,55.8831623 C258.377412,56.1841642 258.486201,56.6164478 258.486201,57.180026 C258.486201,57.9485417 258.310218,58.6113765 257.958247,59.1685504 C257.606276,59.7257243 257.097526,60.1964331 256.431981,60.5806909 L255.990419,59.8506047 Z" id="„" fill="#FFFFFF"></path>
            </g>
            <g id="Testimonial" transform="translate(315.345122, 130.898258)">
                <path d="M0.195964055,0.37521082 L262.901937,0.37521082 L262.901937,65.2520576 L20.1135542,65.2520576 L13.485097,72.158071 L7.23269696,65.4570806 L0.0521026094,65.4570806 L0.195964055,0.37521082 Z" id="Line" stroke="#D7D9D9" fill="#FFFFFF" stroke-linecap="square"></path>
                <path d="M138.894371,23.9363993 L170.785526,23.9363993" id="Line" stroke="#D7D9D9" stroke-width="3" stroke-linecap="square"></path>
                <path d="M16.3651978,23.9363993 L87.7056119,23.9363993" id="Line" stroke="#D7D9D9" stroke-width="3" stroke-linecap="square"></path>
                <path d="M99.4500482,23.9363993 L127.144998,23.9363993" id="Line" stroke="#D7D9D9" stroke-width="3" stroke-linecap="square"></path>
                <path d="M16.3651978,38.2142515 L124.640286,38.2142515" id="Line" stroke="#D7D9D9" stroke-width="3" stroke-linecap="square"></path>
                <path d="M136.376648,38.2142515 L156.51843,38.2142515" id="Line" stroke="#D7D9D9" stroke-width="3" stroke-linecap="square"></path>
                <path d="M35.6677388,86.9269238 L63.3754018,86.9269238" id="Line" stroke="#A1A1A1" stroke-width="3" stroke-linecap="square"></path>
                <path d="M35.6677388,95.3256604 L77.6297844,95.3256604" id="Line" stroke="#A1A1A1" stroke-width="3" stroke-linecap="square"></path>
                <path d="M70.9158571,86.9269238 L86.0221936,86.9269238" id="Line" stroke="#A1A1A1" stroke-width="3" stroke-linecap="square"></path>
                <path d="M166.589321,38.2142515 L207.720689,38.2142515" id="Line" stroke="#D7D9D9" stroke-width="3" stroke-linecap="square"></path>
                <path d="M180.856417,23.9363993 L244.644247,23.9363993" id="Line" stroke="#D7D9D9" stroke-width="3" stroke-linecap="square"></path>
                <polyline id="Path-14" fill="#4990E2" points="261.760615 41.993683 240.055737 64.0177395 261.760615 64.0177395"></polyline>
                <g id="icon-team" transform="translate(1.678482, 79.787998)" stroke="#979797">
                    <path d="M6.15968253,15.1128765 C5.20934889,8.46515749 6.63571592,5.1075675 10.4387836,5.04010651 C16.1433851,4.93891501 15.1871627,13.7518509 14.9765872,15.1128765" id="Path-5"></path>
                    <path d="M3.35696365,19.0571962 C3.35696365,16.7213592 4.84881288,15.6632523 6.28963642,14.9963309 C7.25018544,14.5517166 7.87741569,14.4389033 8.17132717,14.6578908 C8.27520962,15.3496808 8.4006353,15.8351055 8.54760421,16.1141648 C8.92653966,16.833674 9.46808331,17.196539 10.1722352,17.2027597 C11.8429448,17.2175194 12.6660897,15.6901848 12.6660897,14.2953923 C12.6675053,14.2292689 13.2368965,14.3501017 14.3742633,14.6578908 C16.7589112,16.5528714 17.945977,17.9840373 17.9354608,18.9513886" id="Path-6"></path>
                    <path d="M9.14312874,8.3987366 C9.93922478,9.41302376 10.7447753,10.1270985 11.5597803,10.5409607 C12.7822877,11.161754 13.1965145,12.0696237 13.1065707,12.8257635 C13.0166269,13.5819034 11.1918146,16.1520114 10.5248958,16.1843352 C9.85797708,16.2166589 7.41993926,14.3135421 7.55887435,12.8625152 C7.65149775,11.8951639 8.17958254,10.4072377 9.14312874,8.3987366 Z" id="Path-7"></path>
                    <ellipse id="Oval-2" cx="10.9101319" cy="10.9183576" rx="10.9101319" ry="10.9183576"></ellipse>
                </g>
                <path d="M252.611515,59.8506047 C253.097875,59.5303898 253.459439,59.1909671 253.69622,58.8323265 C253.933,58.4736858 254.051389,58.0125833 254.051389,57.4490052 C254.012992,57.4618138 253.961797,57.468218 253.897802,57.468218 C253.629024,57.468218 253.392248,57.3849633 253.187464,57.2184516 C252.982681,57.0519399 252.880291,56.8149844 252.880291,56.5075781 C252.880291,56.1745547 252.976282,55.9119824 253.168266,55.7198535 C253.36025,55.5277246 253.603427,55.4316616 253.897802,55.4316616 C254.268972,55.4316616 254.563343,55.5821603 254.780925,55.8831623 C254.998507,56.1841642 255.107297,56.6164478 255.107297,57.180026 C255.107297,57.9485417 254.931314,58.6113765 254.579343,59.1685504 C254.227372,59.7257243 253.718621,60.1964331 253.053076,60.5806909 L252.611515,59.8506047 Z M255.990419,59.8506047 C256.476779,59.5303898 256.838344,59.1909671 257.075125,58.8323265 C257.311905,58.4736858 257.430293,58.0125833 257.430293,57.4490052 C257.391897,57.4618138 257.340702,57.468218 257.276707,57.468218 C257.007929,57.468218 256.771152,57.3849633 256.566369,57.2184516 C256.361586,57.0519399 256.259196,56.8149844 256.259196,56.5075781 C256.259196,56.1745547 256.355187,55.9119824 256.547171,55.7198535 C256.739155,55.5277246 256.982331,55.4316616 257.276707,55.4316616 C257.647876,55.4316616 257.942248,55.5821603 258.15983,55.8831623 C258.377412,56.1841642 258.486201,56.6164478 258.486201,57.180026 C258.486201,57.9485417 258.310218,58.6113765 257.958247,59.1685504 C257.606276,59.7257243 257.097526,60.1964331 256.431981,60.5806909 L255.990419,59.8506047 Z" id="„" fill="#FFFFFF"></path>
            </g>
            <g id="Testimonial" transform="translate(26.646248, 258.559054)">
                <path d="M0.195964055,0.37521082 L262.901937,0.37521082 L262.901937,65.2520576 L20.1135542,65.2520576 L13.485097,72.158071 L7.23269696,65.4570806 L0.0521026094,65.4570806 L0.195964055,0.37521082 Z" id="Line" stroke="#D7D9D9" fill="#FFFFFF" stroke-linecap="square"></path>
                <path d="M138.894371,23.9363993 L170.785526,23.9363993" id="Line" stroke="#D7D9D9" stroke-width="3" stroke-linecap="square"></path>
                <path d="M16.3651978,23.9363993 L87.7056119,23.9363993" id="Line" stroke="#D7D9D9" stroke-width="3" stroke-linecap="square"></path>
                <path d="M99.4500482,23.9363993 L127.144998,23.9363993" id="Line" stroke="#D7D9D9" stroke-width="3" stroke-linecap="square"></path>
                <path d="M16.3651978,38.2142515 L124.640286,38.2142515" id="Line" stroke="#D7D9D9" stroke-width="3" stroke-linecap="square"></path>
                <path d="M136.376648,38.2142515 L156.51843,38.2142515" id="Line" stroke="#D7D9D9" stroke-width="3" stroke-linecap="square"></path>
                <path d="M35.6677388,86.9269238 L63.3754018,86.9269238" id="Line" stroke="#A1A1A1" stroke-width="3" stroke-linecap="square"></path>
                <path d="M35.6677388,95.3256604 L77.6297844,95.3256604" id="Line" stroke="#A1A1A1" stroke-width="3" stroke-linecap="square"></path>
                <path d="M70.9158571,86.9269238 L86.0221936,86.9269238" id="Line" stroke="#A1A1A1" stroke-width="3" stroke-linecap="square"></path>
                <path d="M166.589321,38.2142515 L207.720689,38.2142515" id="Line" stroke="#D7D9D9" stroke-width="3" stroke-linecap="square"></path>
                <path d="M180.856417,23.9363993 L244.644247,23.9363993" id="Line" stroke="#D7D9D9" stroke-width="3" stroke-linecap="square"></path>
                <polyline id="Path-14" fill="#4990E2" points="261.760615 41.993683 240.055737 64.0177395 261.760615 64.0177395"></polyline>
                <g id="icon-team" transform="translate(1.678482, 79.787998)" stroke="#979797">
                    <path d="M6.15968253,15.1128765 C5.20934889,8.46515749 6.63571592,5.1075675 10.4387836,5.04010651 C16.1433851,4.93891501 15.1871627,13.7518509 14.9765872,15.1128765" id="Path-5"></path>
                    <path d="M3.35696365,19.0571962 C3.35696365,16.7213592 4.84881288,15.6632523 6.28963642,14.9963309 C7.25018544,14.5517166 7.87741569,14.4389033 8.17132717,14.6578908 C8.27520962,15.3496808 8.4006353,15.8351055 8.54760421,16.1141648 C8.92653966,16.833674 9.46808331,17.196539 10.1722352,17.2027597 C11.8429448,17.2175194 12.6660897,15.6901848 12.6660897,14.2953923 C12.6675053,14.2292689 13.2368965,14.3501017 14.3742633,14.6578908 C16.7589112,16.5528714 17.945977,17.9840373 17.9354608,18.9513886" id="Path-6"></path>
                    <path d="M9.14312874,8.3987366 C9.93922478,9.41302376 10.7447753,10.1270985 11.5597803,10.5409607 C12.7822877,11.161754 13.1965145,12.0696237 13.1065707,12.8257635 C13.0166269,13.5819034 11.1918146,16.1520114 10.5248958,16.1843352 C9.85797708,16.2166589 7.41993926,14.3135421 7.55887435,12.8625152 C7.65149775,11.8951639 8.17958254,10.4072377 9.14312874,8.3987366 Z" id="Path-7"></path>
                    <ellipse id="Oval-2" cx="10.9101319" cy="10.9183576" rx="10.9101319" ry="10.9183576"></ellipse>
                </g>
                <path d="M252.611515,59.8506047 C253.097875,59.5303898 253.459439,59.1909671 253.69622,58.8323265 C253.933,58.4736858 254.051389,58.0125833 254.051389,57.4490052 C254.012992,57.4618138 253.961797,57.468218 253.897802,57.468218 C253.629024,57.468218 253.392248,57.3849633 253.187464,57.2184516 C252.982681,57.0519399 252.880291,56.8149844 252.880291,56.5075781 C252.880291,56.1745547 252.976282,55.9119824 253.168266,55.7198535 C253.36025,55.5277246 253.603427,55.4316616 253.897802,55.4316616 C254.268972,55.4316616 254.563343,55.5821603 254.780925,55.8831623 C254.998507,56.1841642 255.107297,56.6164478 255.107297,57.180026 C255.107297,57.9485417 254.931314,58.6113765 254.579343,59.1685504 C254.227372,59.7257243 253.718621,60.1964331 253.053076,60.5806909 L252.611515,59.8506047 Z M255.990419,59.8506047 C256.476779,59.5303898 256.838344,59.1909671 257.075125,58.8323265 C257.311905,58.4736858 257.430293,58.0125833 257.430293,57.4490052 C257.391897,57.4618138 257.340702,57.468218 257.276707,57.468218 C257.007929,57.468218 256.771152,57.3849633 256.566369,57.2184516 C256.361586,57.0519399 256.259196,56.8149844 256.259196,56.5075781 C256.259196,56.1745547 256.355187,55.9119824 256.547171,55.7198535 C256.739155,55.5277246 256.982331,55.4316616 257.276707,55.4316616 C257.647876,55.4316616 257.942248,55.5821603 258.15983,55.8831623 C258.377412,56.1841642 258.486201,56.6164478 258.486201,57.180026 C258.486201,57.9485417 258.310218,58.6113765 257.958247,59.1685504 C257.606276,59.7257243 257.097526,60.1964331 256.431981,60.5806909 L255.990419,59.8506047 Z" id="„" fill="#FFFFFF"></path>
            </g>
            <g id="Testimonial" transform="translate(315.345122, 258.559054)">
                <path d="M0.195964055,0.37521082 L262.901937,0.37521082 L262.901937,65.2520576 L20.1135542,65.2520576 L13.485097,72.158071 L7.23269696,65.4570806 L0.0521026094,65.4570806 L0.195964055,0.37521082 Z" id="Line" stroke="#D7D9D9" fill="#FFFFFF" stroke-linecap="square"></path>
                <path d="M138.894371,23.9363993 L170.785526,23.9363993" id="Line" stroke="#D7D9D9" stroke-width="3" stroke-linecap="square"></path>
                <path d="M16.3651978,23.9363993 L87.7056119,23.9363993" id="Line" stroke="#D7D9D9" stroke-width="3" stroke-linecap="square"></path>
                <path d="M99.4500482,23.9363993 L127.144998,23.9363993" id="Line" stroke="#D7D9D9" stroke-width="3" stroke-linecap="square"></path>
                <path d="M16.3651978,38.2142515 L124.640286,38.2142515" id="Line" stroke="#D7D9D9" stroke-width="3" stroke-linecap="square"></path>
                <path d="M136.376648,38.2142515 L156.51843,38.2142515" id="Line" stroke="#D7D9D9" stroke-width="3" stroke-linecap="square"></path>
                <path d="M35.6677388,86.9269238 L63.3754018,86.9269238" id="Line" stroke="#A1A1A1" stroke-width="3" stroke-linecap="square"></path>
                <path d="M35.6677388,95.3256604 L77.6297844,95.3256604" id="Line" stroke="#A1A1A1" stroke-width="3" stroke-linecap="square"></path>
                <path d="M70.9158571,86.9269238 L86.0221936,86.9269238" id="Line" stroke="#A1A1A1" stroke-width="3" stroke-linecap="square"></path>
                <path d="M166.589321,38.2142515 L207.720689,38.2142515" id="Line" stroke="#D7D9D9" stroke-width="3" stroke-linecap="square"></path>
                <path d="M180.856417,23.9363993 L244.644247,23.9363993" id="Line" stroke="#D7D9D9" stroke-width="3" stroke-linecap="square"></path>
                <polyline id="Path-14" fill="#4990E2" points="261.760615 41.993683 240.055737 64.0177395 261.760615 64.0177395"></polyline>
                <g id="icon-team" transform="translate(1.678482, 79.787998)" stroke="#979797">
                    <path d="M6.15968253,15.1128765 C5.20934889,8.46515749 6.63571592,5.1075675 10.4387836,5.04010651 C16.1433851,4.93891501 15.1871627,13.7518509 14.9765872,15.1128765" id="Path-5"></path>
                    <path d="M3.35696365,19.0571962 C3.35696365,16.7213592 4.84881288,15.6632523 6.28963642,14.9963309 C7.25018544,14.5517166 7.87741569,14.4389033 8.17132717,14.6578908 C8.27520962,15.3496808 8.4006353,15.8351055 8.54760421,16.1141648 C8.92653966,16.833674 9.46808331,17.196539 10.1722352,17.2027597 C11.8429448,17.2175194 12.6660897,15.6901848 12.6660897,14.2953923 C12.6675053,14.2292689 13.2368965,14.3501017 14.3742633,14.6578908 C16.7589112,16.5528714 17.945977,17.9840373 17.9354608,18.9513886" id="Path-6"></path>
                    <path d="M9.14312874,8.3987366 C9.93922478,9.41302376 10.7447753,10.1270985 11.5597803,10.5409607 C12.7822877,11.161754 13.1965145,12.0696237 13.1065707,12.8257635 C13.0166269,13.5819034 11.1918146,16.1520114 10.5248958,16.1843352 C9.85797708,16.2166589 7.41993926,14.3135421 7.55887435,12.8625152 C7.65149775,11.8951639 8.17958254,10.4072377 9.14312874,8.3987366 Z" id="Path-7"></path>
                    <ellipse id="Oval-2" cx="10.9101319" cy="10.9183576" rx="10.9101319" ry="10.9183576"></ellipse>
                </g>
                <path d="M252.611515,59.8506047 C253.097875,59.5303898 253.459439,59.1909671 253.69622,58.8323265 C253.933,58.4736858 254.051389,58.0125833 254.051389,57.4490052 C254.012992,57.4618138 253.961797,57.468218 253.897802,57.468218 C253.629024,57.468218 253.392248,57.3849633 253.187464,57.2184516 C252.982681,57.0519399 252.880291,56.8149844 252.880291,56.5075781 C252.880291,56.1745547 252.976282,55.9119824 253.168266,55.7198535 C253.36025,55.5277246 253.603427,55.4316616 253.897802,55.4316616 C254.268972,55.4316616 254.563343,55.5821603 254.780925,55.8831623 C254.998507,56.1841642 255.107297,56.6164478 255.107297,57.180026 C255.107297,57.9485417 254.931314,58.6113765 254.579343,59.1685504 C254.227372,59.7257243 253.718621,60.1964331 253.053076,60.5806909 L252.611515,59.8506047 Z M255.990419,59.8506047 C256.476779,59.5303898 256.838344,59.1909671 257.075125,58.8323265 C257.311905,58.4736858 257.430293,58.0125833 257.430293,57.4490052 C257.391897,57.4618138 257.340702,57.468218 257.276707,57.468218 C257.007929,57.468218 256.771152,57.3849633 256.566369,57.2184516 C256.361586,57.0519399 256.259196,56.8149844 256.259196,56.5075781 C256.259196,56.1745547 256.355187,55.9119824 256.547171,55.7198535 C256.739155,55.5277246 256.982331,55.4316616 257.276707,55.4316616 C257.647876,55.4316616 257.942248,55.5821603 258.15983,55.8831623 C258.377412,56.1841642 258.486201,56.6164478 258.486201,57.180026 C258.486201,57.9485417 258.310218,58.6113765 257.958247,59.1685504 C257.606276,59.7257243 257.097526,60.1964331 256.431981,60.5806909 L255.990419,59.8506047 Z" id="„" fill="#FFFFFF"></path>
            </g>
            <path d="M258.182447,46.1487312 L254.024447,46.1487312 L254.024447,44.6787312 L264.104447,44.6787312 L264.104447,46.1487312 L259.946447,46.1487312 L259.946447,58.4547312 L258.182447,58.4547312 L258.182447,46.1487312 Z M264.272447,53.3727312 C264.272447,52.532727 264.401946,51.7802345 264.660947,51.1152312 C264.919948,50.4502279 265.262945,49.8867335 265.689947,49.4247312 C266.116949,48.9627289 266.603444,48.6092324 267.149447,48.3642312 C267.69545,48.11923 268.262444,47.9967312 268.850447,47.9967312 C269.49445,47.9967312 270.071945,48.1087301 270.582947,48.3327312 C271.09395,48.5567323 271.520945,48.8787291 271.863947,49.2987312 C272.206949,49.7187333 272.469446,50.2227283 272.651447,50.8107312 C272.833448,51.3987341 272.924447,52.0567276 272.924447,52.7847312 C272.924447,53.1627331 272.903447,53.4777299 272.861447,53.7297312 L265.973447,53.7297312 C266.043448,54.8357367 266.382944,55.710728 266.991947,56.3547312 C267.60095,56.9987344 268.395442,57.3207312 269.375447,57.3207312 C269.86545,57.3207312 270.316945,57.2472319 270.729947,57.1002312 C271.142949,56.9532305 271.538445,56.7607324 271.916447,56.5227312 L272.525447,57.6567312 C272.077445,57.9367326 271.58045,58.1817301 271.034447,58.3917312 C270.488444,58.6017322 269.865451,58.7067312 269.165447,58.7067312 C268.479444,58.7067312 267.83895,58.5842324 267.243947,58.3392312 C266.648944,58.09423 266.130949,57.7442335 265.689947,57.2892312 C265.248945,56.8342289 264.902448,56.2777345 264.650447,55.6197312 C264.398446,54.9617279 264.272447,54.2127354 264.272447,53.3727312 Z M271.412447,52.5957312 C271.412447,51.5457259 271.191949,50.744234 270.750947,50.1912312 C270.309945,49.6382284 269.690451,49.3617312 268.892447,49.3617312 C268.528445,49.3617312 268.181949,49.4352305 267.852947,49.5822312 C267.523946,49.7292319 267.226448,49.9392298 266.960447,50.2122312 C266.694446,50.4852326 266.473948,50.8212292 266.298947,51.2202312 C266.123946,51.6192332 266.008447,52.0777286 265.952447,52.5957312 L271.412447,52.5957312 Z M275.171447,56.1447312 C275.619449,56.508733 276.077945,56.8027301 276.546947,57.0267312 C277.01595,57.2507323 277.558444,57.3627312 278.174447,57.3627312 C278.846451,57.3627312 279.350445,57.2087327 279.686447,56.9007312 C280.022449,56.5927297 280.190447,56.2147334 280.190447,55.7667312 C280.190447,55.5007299 280.120448,55.2697322 279.980447,55.0737312 C279.840446,54.8777302 279.661948,54.7062319 279.444947,54.5592312 C279.227946,54.4122305 278.979449,54.2827318 278.699447,54.1707312 L277.859447,53.8347312 C277.495445,53.7087306 277.131449,53.565232 276.767447,53.4042312 C276.403445,53.2432304 276.077949,53.0472323 275.790947,52.8162312 C275.503946,52.58523 275.269448,52.3157327 275.087447,52.0077312 C274.905446,51.6997297 274.814447,51.3287334 274.814447,50.8947312 C274.814447,50.4887292 274.894946,50.107233 275.055947,49.7502312 C275.216948,49.3932294 275.447946,49.0852325 275.748947,48.8262312 C276.049949,48.5672299 276.417445,48.3642319 276.851447,48.2172312 C277.285449,48.0702305 277.775444,47.9967312 278.321447,47.9967312 C278.96545,47.9967312 279.556944,48.1087301 280.095947,48.3327312 C280.63495,48.5567323 281.100445,48.8297296 281.492447,49.1517312 L280.673447,50.2437312 C280.323445,49.9777299 279.959449,49.760732 279.581447,49.5927312 C279.203445,49.4247304 278.790449,49.3407312 278.342447,49.3407312 C277.698444,49.3407312 277.225949,49.4877297 276.924947,49.7817312 C276.623946,50.0757327 276.473447,50.4187292 276.473447,50.8107312 C276.473447,51.0487324 276.536447,51.2552303 276.662447,51.4302312 C276.788448,51.6052321 276.956446,51.7592305 277.166447,51.8922312 C277.376448,52.0252319 277.617946,52.1442307 277.890947,52.2492312 C278.163949,52.3542317 278.447446,52.4627306 278.741447,52.5747312 C279.105449,52.7147319 279.472945,52.8617304 279.843947,53.0157312 C280.214949,53.169732 280.547446,53.36223 280.841447,53.5932312 C281.135449,53.8242323 281.376946,54.1077295 281.565947,54.4437312 C281.754948,54.7797329 281.849447,55.1857288 281.849447,55.6617312 C281.849447,56.0817333 281.768948,56.4737294 281.607947,56.8377312 C281.446946,57.201733 281.208949,57.5237298 280.893947,57.8037312 C280.578946,58.0837326 280.18695,58.3042304 279.717947,58.4652312 C279.248945,58.626232 278.71345,58.7067312 278.111447,58.7067312 C277.383444,58.7067312 276.69045,58.5737325 276.032447,58.3077312 C275.374444,58.0417299 274.80045,57.7057332 274.310447,57.2997312 L275.171447,56.1447312 Z M284.537447,49.6557312 L283.025447,49.6557312 L283.025447,48.3537312 L284.621447,48.2487312 L284.831447,45.3927312 L286.280447,45.3927312 L286.280447,48.2487312 L289.031447,48.2487312 L289.031447,49.6557312 L286.280447,49.6557312 L286.280447,55.3257312 C286.280447,55.9557343 286.395946,56.4422295 286.626947,56.7852312 C286.857948,57.1282329 287.267444,57.2997312 287.855447,57.2997312 C288.037448,57.2997312 288.233446,57.2717315 288.443447,57.2157312 C288.653448,57.1597309 288.842446,57.0967315 289.010447,57.0267312 L289.346447,58.3287312 C289.066446,58.4267317 288.761949,58.5142308 288.432947,58.5912312 C288.103946,58.6682316 287.778449,58.7067312 287.456447,58.7067312 C286.910444,58.7067312 286.451949,58.622732 286.080947,58.4547312 C285.709945,58.2867304 285.408948,58.0557327 285.177947,57.7617312 C284.946946,57.4677297 284.782448,57.1107333 284.684447,56.6907312 C284.586447,56.2707291 284.537447,55.8087337 284.537447,55.3047312 L284.537447,49.6557312 Z M292.223447,46.1487312 C291.887445,46.1487312 291.603948,46.0437322 291.372947,45.8337312 C291.141946,45.6237301 291.026447,45.3577328 291.026447,45.0357312 C291.026447,44.6997295 291.141946,44.4302322 291.372947,44.2272312 C291.603948,44.0242302 291.887445,43.9227312 292.223447,43.9227312 C292.559449,43.9227312 292.842946,44.0242302 293.073947,44.2272312 C293.304948,44.4302322 293.420447,44.6997295 293.420447,45.0357312 C293.420447,45.3577328 293.304948,45.6237301 293.073947,45.8337312 C292.842946,46.0437322 292.559449,46.1487312 292.223447,46.1487312 Z M291.341447,48.2487312 L293.063447,48.2487312 L293.063447,58.4547312 L291.341447,58.4547312 L291.341447,48.2487312 Z M296.507447,48.2487312 L297.935447,48.2487312 L298.082447,49.7187312 L298.145447,49.7187312 C298.593449,49.2287287 299.079945,48.8192328 299.604947,48.4902312 C300.12995,48.1612295 300.700444,47.9967312 301.316447,47.9967312 C302.100451,47.9967312 302.712945,48.1682295 303.153947,48.5112312 C303.594949,48.8542329 303.920446,49.3337281 304.130447,49.9497312 C304.66245,49.3617283 305.197944,48.889233 305.736947,48.5322312 C306.27595,48.1752294 306.860444,47.9967312 307.490447,47.9967312 C308.540452,47.9967312 309.320945,48.3327278 309.831947,49.0047312 C310.34295,49.6767346 310.598447,50.6707246 310.598447,51.9867312 L310.598447,58.4547312 L308.876447,58.4547312 L308.876447,52.2177312 C308.876447,51.2517264 308.722449,50.5552333 308.414447,50.1282312 C308.106446,49.7012291 307.63045,49.4877312 306.986447,49.4877312 C306.216443,49.4877312 305.362452,50.0127259 304.424447,51.0627312 L304.424447,58.4547312 L302.702447,58.4547312 L302.702447,52.2177312 C302.702447,51.2517264 302.548449,50.5552333 302.240447,50.1282312 C301.932446,49.7012291 301.44945,49.4877312 300.791447,49.4877312 C300.021443,49.4877312 299.167452,50.0127259 298.229447,51.0627312 L298.229447,58.4547312 L296.507447,58.4547312 L296.507447,48.2487312 Z M313.160447,53.3727312 C313.160447,52.5187269 313.289946,51.7592345 313.548947,51.0942312 C313.807948,50.4292279 314.154445,49.8657335 314.588447,49.4037312 C315.022449,48.9417289 315.522944,48.5917324 316.089947,48.3537312 C316.65695,48.11573 317.255444,47.9967312 317.885447,47.9967312 C318.51545,47.9967312 319.113944,48.11573 319.680947,48.3537312 C320.24795,48.5917324 320.748445,48.9417289 321.182447,49.4037312 C321.616449,49.8657335 321.962946,50.4292279 322.221947,51.0942312 C322.480948,51.7592345 322.610447,52.5187269 322.610447,53.3727312 C322.610447,54.2127354 322.480948,54.9652279 322.221947,55.6302312 C321.962946,56.2952345 321.616449,56.8552289 321.182447,57.3102312 C320.748445,57.7652335 320.24795,58.11173 319.680947,58.3497312 C319.113944,58.5877324 318.51545,58.7067312 317.885447,58.7067312 C317.255444,58.7067312 316.65695,58.5877324 316.089947,58.3497312 C315.522944,58.11173 315.022449,57.7652335 314.588447,57.3102312 C314.154445,56.8552289 313.807948,56.2952345 313.548947,55.6302312 C313.289946,54.9652279 313.160447,54.2127354 313.160447,53.3727312 Z M314.945447,53.3727312 C314.945447,53.9607341 315.015446,54.4927288 315.155447,54.9687312 C315.295448,55.4447336 315.494946,55.8542295 315.753947,56.1972312 C316.012948,56.5402329 316.324445,56.8062302 316.688447,56.9952312 C317.052449,57.1842321 317.451445,57.2787312 317.885447,57.2787312 C318.319449,57.2787312 318.718445,57.1842321 319.082447,56.9952312 C319.446449,56.8062302 319.757946,56.5402329 320.016947,56.1972312 C320.275948,55.8542295 320.475446,55.4447336 320.615447,54.9687312 C320.755448,54.4927288 320.825447,53.9607341 320.825447,53.3727312 C320.825447,52.7847283 320.755448,52.2492336 320.615447,51.7662312 C320.475446,51.2832288 320.275948,50.8667329 320.016947,50.5167312 C319.757946,50.1667294 319.446449,49.8972321 319.082447,49.7082312 C318.718445,49.5192302 318.319449,49.4247312 317.885447,49.4247312 C317.451445,49.4247312 317.052449,49.5192302 316.688447,49.7082312 C316.324445,49.8972321 316.012948,50.1667294 315.753947,50.5167312 C315.494946,50.8667329 315.295448,51.2832288 315.155447,51.7662312 C315.015446,52.2492336 314.945447,52.7847283 314.945447,53.3727312 Z M325.298447,48.2487312 L326.726447,48.2487312 L326.873447,49.7187312 L326.936447,49.7187312 C327.42645,49.2287287 327.940944,48.8192328 328.479947,48.4902312 C329.01895,48.1612295 329.645444,47.9967312 330.359447,47.9967312 C331.437453,47.9967312 332.224945,48.3327278 332.721947,49.0047312 C333.21895,49.6767346 333.467447,50.6707246 333.467447,51.9867312 L333.467447,58.4547312 L331.745447,58.4547312 L331.745447,52.2177312 C331.745447,51.2517264 331.591449,50.5552333 331.283447,50.1282312 C330.975446,49.7012291 330.485451,49.4877312 329.813447,49.4877312 C329.281445,49.4877312 328.812449,49.6207299 328.406447,49.8867312 C328.000445,50.1527325 327.53845,50.5447286 327.020447,51.0627312 L327.020447,58.4547312 L325.298447,58.4547312 L325.298447,48.2487312 Z M337.667447,46.1487312 C337.331445,46.1487312 337.047948,46.0437322 336.816947,45.8337312 C336.585946,45.6237301 336.470447,45.3577328 336.470447,45.0357312 C336.470447,44.6997295 336.585946,44.4302322 336.816947,44.2272312 C337.047948,44.0242302 337.331445,43.9227312 337.667447,43.9227312 C338.003449,43.9227312 338.286946,44.0242302 338.517947,44.2272312 C338.748948,44.4302322 338.864447,44.6997295 338.864447,45.0357312 C338.864447,45.3577328 338.748948,45.6237301 338.517947,45.8337312 C338.286946,46.0437322 338.003449,46.1487312 337.667447,46.1487312 Z M336.785447,48.2487312 L338.507447,48.2487312 L338.507447,58.4547312 L336.785447,58.4547312 L336.785447,48.2487312 Z M341.447447,55.8087312 C341.447447,54.6887256 341.947942,53.8312342 342.948947,53.2362312 C343.949952,52.6412282 345.542436,52.2247324 347.726447,51.9867312 C347.726447,51.6647296 347.694947,51.3497327 347.631947,51.0417312 C347.568947,50.7337297 347.456948,50.4607324 347.295947,50.2227312 C347.134946,49.98473 346.921448,49.7922319 346.655447,49.6452312 C346.389446,49.4982305 346.046449,49.4247312 345.626447,49.4247312 C345.024444,49.4247312 344.46795,49.5367301 343.956947,49.7607312 C343.445945,49.9847323 342.987449,50.2367298 342.581447,50.5167312 L341.888447,49.3197312 C342.36445,49.0117297 342.945444,48.7142326 343.631447,48.4272312 C344.317451,48.1402298 345.073443,47.9967312 345.899447,47.9967312 C347.145453,47.9967312 348.048444,48.3782274 348.608447,49.1412312 C349.16845,49.904235 349.448447,50.9227248 349.448447,52.1967312 L349.448447,58.4547312 L348.020447,58.4547312 L347.873447,57.2367312 L347.831447,57.2367312 C347.341445,57.6427332 346.81295,57.9892298 346.245947,58.2762312 C345.678944,58.5632326 345.08045,58.7067312 344.450447,58.7067312 C343.582443,58.7067312 342.86495,58.4547337 342.297947,57.9507312 C341.730944,57.4467287 341.447447,56.7327358 341.447447,55.8087312 Z M343.148447,55.6827312 C343.148447,56.2707341 343.319945,56.6907299 343.662947,56.9427312 C344.005949,57.1947325 344.429445,57.3207312 344.933447,57.3207312 C345.42345,57.3207312 345.888945,57.2052323 346.329947,56.9742312 C346.770949,56.74323 347.236445,56.4037334 347.726447,55.9557312 L347.726447,53.1207312 C346.872443,53.2327318 346.15145,53.3657304 345.563447,53.5197312 C344.975444,53.673732 344.502949,53.8557301 344.145947,54.0657312 C343.788945,54.2757322 343.533448,54.5172298 343.379447,54.7902312 C343.225446,55.0632326 343.148447,55.3607296 343.148447,55.6827312 Z M352.703447,43.5027312 L354.425447,43.5027312 L354.425447,56.5227312 C354.425447,56.8027326 354.474447,56.9987306 354.572447,57.1107312 C354.670448,57.2227318 354.782447,57.2787312 354.908447,57.2787312 L355.065947,57.2787312 C355.114947,57.2787312 355.188447,57.2647313 355.286447,57.2367312 L355.517447,58.5387312 C355.405447,58.5947315 355.272448,58.6367311 355.118447,58.6647312 C354.964446,58.6927313 354.768448,58.7067312 354.530447,58.7067312 C353.872444,58.7067312 353.403449,58.5107332 353.123447,58.1187312 C352.843446,57.7267292 352.703447,57.152735 352.703447,56.3967312 L352.703447,43.5027312 Z" id="Testimonial" fill="#79797B"></path>
            <path d="M224.615639,71.0123947 L385.020072,71.0123947" id="Line" stroke="#979797" stroke-width="5" stroke-linecap="square"></path>
            <path d="M240.235853,80.2797186 L369.153185,80.2797186" id="Line" stroke="#979797" stroke-width="5" stroke-linecap="square"></path>
            <path d="M277.029096,29.8621746 L332.166921,29.8621746" id="Line" stroke="#4990E2" stroke-width="3" stroke-linecap="square"></path>
        </g>
    </g>
</svg>