<?xml version="1.0" encoding="UTF-8"?>
<svg width="600px" height="296px" viewBox="0 0 600 296" version="1.1" xmlns="http://www.w3.org/2000/svg" xmlns:xlink="http://www.w3.org/1999/xlink">
    <!-- Generator: Sketch 44.1 (41455) - http://www.bohemiancoding.com/sketch -->
    <title>testimonial02</title>
    <desc>Created with Sketch.</desc>
    <defs></defs>
    <g id="Testimonials" stroke="none" stroke-width="1" fill="none" fill-rule="evenodd">
        <g id="02">
            <rect id="Rectangle-6" fill="#FFFFFF" x="0" y="0" width="600" height="296"></rect>
            <path d="M233.264,51.552 L230.4,51.552 L230.4,49.568 L238.496,49.568 L238.496,51.552 L235.632,51.552 L235.632,60 L233.264,60 L233.264,51.552 Z M239.472,56.032 C239.472,55.3919968 239.578666,54.8133359 239.792,54.296 C240.005334,53.7786641 240.285332,53.3413351 240.632,52.984 C240.978668,52.6266649 241.375998,52.352001 241.824,52.16 C242.272002,51.967999 242.735998,51.872 243.216,51.872 C243.781336,51.872 244.274665,51.967999 244.696,52.16 C245.117335,52.352001 245.469332,52.618665 245.752,52.96 C246.034668,53.301335 246.245333,53.7039977 246.384,54.168 C246.522667,54.6320023 246.592,55.1359973 246.592,55.68 C246.592,55.8933344 246.581333,56.0879991 246.56,56.264 C246.538667,56.4400009 246.517333,56.5759995 246.496,56.672 L241.744,56.672 C241.850667,57.280003 242.087998,57.7199986 242.456,57.992 C242.824002,58.2640014 243.274664,58.4 243.808,58.4 C244.373336,58.4 244.943997,58.2240018 245.52,57.872 L246.304,59.296 C245.898665,59.5733347 245.448002,59.7919992 244.952,59.952 C244.455998,60.1120008 243.968002,60.192 243.488,60.192 C242.922664,60.192 242.394669,60.0986676 241.904,59.912 C241.413331,59.7253324 240.986668,59.4533351 240.624,59.096 C240.261332,58.7386649 239.978668,58.3040026 239.776,57.792 C239.573332,57.2799974 239.472,56.6933366 239.472,56.032 Z M244.592,55.216 C244.592,54.757331 244.490668,54.3840014 244.288,54.096 C244.085332,53.8079986 243.744002,53.664 243.264,53.664 C242.890665,53.664 242.562668,53.7893321 242.28,54.04 C241.997332,54.2906679 241.813334,54.682664 241.728,55.216 L244.592,55.216 Z M248.576,57.616 C248.938668,57.8933347 249.285332,58.1013326 249.616,58.24 C249.946668,58.3786674 250.282665,58.448 250.624,58.448 C250.976002,58.448 251.231999,58.3893339 251.392,58.272 C251.552001,58.1546661 251.632,57.9893344 251.632,57.776 C251.632,57.6479994 251.586667,57.5333338 251.496,57.432 C251.405333,57.3306662 251.282667,57.2373338 251.128,57.152 C250.973333,57.0666662 250.800001,56.9893337 250.608,56.92 C250.415999,56.8506663 250.218668,56.7733338 250.016,56.688 C249.770665,56.5919995 249.525335,56.4800006 249.28,56.352 C249.034665,56.2239994 248.810668,56.0666676 248.608,55.88 C248.405332,55.6933324 248.240001,55.4746679 248.112,55.224 C247.983999,54.9733321 247.92,54.6826683 247.92,54.352 C247.92,53.9893315 247.991999,53.6533349 248.136,53.344 C248.280001,53.0346651 248.485332,52.7733344 248.752,52.56 C249.018668,52.3466656 249.338665,52.1786673 249.712,52.056 C250.085335,51.9333327 250.501331,51.872 250.96,51.872 C251.568003,51.872 252.101331,51.975999 252.56,52.184 C253.018669,52.392001 253.418665,52.6239987 253.76,52.88 L252.704,54.288 C252.415999,54.0746656 252.133335,53.9093339 251.856,53.792 C251.578665,53.6746661 251.301335,53.616 251.024,53.616 C250.426664,53.616 250.128,53.8239979 250.128,54.24 C250.128,54.3680006 250.170666,54.4773329 250.256,54.568 C250.341334,54.6586671 250.455999,54.741333 250.6,54.816 C250.744001,54.890667 250.909332,54.9626663 251.096,55.032 C251.282668,55.1013337 251.477332,55.173333 251.68,55.248 C251.936001,55.3440005 252.189332,55.4533327 252.44,55.576 C252.690668,55.6986673 252.919999,55.8506658 253.128,56.032 C253.336001,56.2133342 253.503999,56.4346654 253.632,56.696 C253.760001,56.9573346 253.824,57.2693315 253.824,57.632 C253.824,57.9946685 253.754667,58.3306651 253.616,58.64 C253.477333,58.9493349 253.269335,59.2186655 252.992,59.448 C252.714665,59.6773345 252.373335,59.858666 251.968,59.992 C251.562665,60.125334 251.093336,60.192 250.56,60.192 C250.037331,60.192 249.501336,60.0906677 248.952,59.888 C248.402664,59.6853323 247.925335,59.4186683 247.52,59.088 L248.576,57.616 Z M255.632,53.904 L254.544,53.904 L254.544,52.16 L255.76,52.064 L256.032,49.952 L257.984,49.952 L257.984,52.064 L259.888,52.064 L259.888,53.904 L257.984,53.904 L257.984,57.088 C257.984,57.5360022 258.077332,57.8586657 258.264,58.056 C258.450668,58.2533343 258.698665,58.352 259.008,58.352 C259.136001,58.352 259.266666,58.3360002 259.4,58.304 C259.533334,58.2719998 259.653333,58.2346669 259.76,58.192 L260.128,59.904 C259.914666,59.9680003 259.664001,60.0319997 259.376,60.096 C259.087999,60.1600003 258.752002,60.192 258.368,60.192 C257.877331,60.192 257.458668,60.1173341 257.112,59.968 C256.765332,59.8186659 256.482668,59.610668 256.264,59.344 C256.045332,59.077332 255.885334,58.7546686 255.784,58.376 C255.682666,57.9973314 255.632,57.578669 255.632,57.12 L255.632,53.904 Z M262.608,50.896 C262.213331,50.896 261.888001,50.7813345 261.632,50.552 C261.375999,50.3226655 261.248,50.0266685 261.248,49.664 C261.248,49.3013315 261.375999,49.0080011 261.632,48.784 C261.888001,48.5599989 262.213331,48.448 262.608,48.448 C263.013335,48.448 263.341332,48.5599989 263.592,48.784 C263.842668,49.0080011 263.968,49.3013315 263.968,49.664 C263.968,50.0266685 263.842668,50.3226655 263.592,50.552 C263.341332,50.7813345 263.013335,50.896 262.608,50.896 Z M261.44,52.064 L263.792,52.064 L263.792,60 L261.44,60 L261.44,52.064 Z M265.856,52.064 L267.776,52.064 L267.936,53.088 L268,53.088 C268.330668,52.7573317 268.682665,52.4720012 269.056,52.232 C269.429335,51.9919988 269.877331,51.872 270.4,51.872 C270.965336,51.872 271.421332,51.9866655 271.768,52.216 C272.114668,52.4453345 272.389332,52.7733312 272.592,53.2 C272.944002,52.8373315 273.314665,52.5253346 273.704,52.264 C274.093335,52.0026654 274.554664,51.872 275.088,51.872 C275.941338,51.872 276.567998,52.1573305 276.968,52.728 C277.368002,53.2986695 277.568,54.079995 277.568,55.072 L277.568,60 L275.216,60 L275.216,55.376 C275.216,54.7999971 275.138667,54.4053344 274.984,54.192 C274.829333,53.9786656 274.581335,53.872 274.24,53.872 C273.845331,53.872 273.392003,54.1279974 272.88,54.64 L272.88,60 L270.528,60 L270.528,55.376 C270.528,54.7999971 270.450667,54.4053344 270.296,54.192 C270.141333,53.9786656 269.893335,53.872 269.552,53.872 C269.146665,53.872 268.698669,54.1279974 268.208,54.64 L268.208,60 L265.856,60 L265.856,52.064 Z M279.104,56.032 C279.104,55.3706634 279.210666,54.7813359 279.424,54.264 C279.637334,53.7466641 279.922665,53.3120018 280.28,52.96 C280.637335,52.6079982 281.050664,52.3386676 281.52,52.152 C281.989336,51.9653324 282.474664,51.872 282.976,51.872 C283.477336,51.872 283.959998,51.9653324 284.424,52.152 C284.888002,52.3386676 285.298665,52.6079982 285.656,52.96 C286.013335,53.3120018 286.298666,53.7466641 286.512,54.264 C286.725334,54.7813359 286.832,55.3706634 286.832,56.032 C286.832,56.6933366 286.725334,57.2826641 286.512,57.8 C286.298666,58.3173359 286.013335,58.7519982 285.656,59.104 C285.298665,59.4560018 284.888002,59.7253324 284.424,59.912 C283.959998,60.0986676 283.477336,60.192 282.976,60.192 C282.474664,60.192 281.989336,60.0986676 281.52,59.912 C281.050664,59.7253324 280.637335,59.4560018 280.28,59.104 C279.922665,58.7519982 279.637334,58.3173359 279.424,57.8 C279.210666,57.2826641 279.104,56.6933366 279.104,56.032 Z M281.52,56.032 C281.52,56.7253368 281.639999,57.2746646 281.88,57.68 C282.120001,58.0853354 282.485331,58.288 282.976,58.288 C283.456002,58.288 283.818665,58.0853354 284.064,57.68 C284.309335,57.2746646 284.432,56.7253368 284.432,56.032 C284.432,55.3386632 284.309335,54.7893354 284.064,54.384 C283.818665,53.9786646 283.456002,53.776 282.976,53.776 C282.485331,53.776 282.120001,53.9786646 281.88,54.384 C281.639999,54.7893354 281.52,55.3386632 281.52,56.032 Z M288.448,52.064 L290.368,52.064 L290.528,53.072 L290.592,53.072 C290.933335,52.7519984 291.306665,52.4720012 291.712,52.232 C292.117335,51.9919988 292.591997,51.872 293.136,51.872 C294.000004,51.872 294.626665,52.1546638 295.016,52.72 C295.405335,53.2853362 295.6,54.0693283 295.6,55.072 L295.6,60 L293.248,60 L293.248,55.376 C293.248,54.7999971 293.170667,54.4053344 293.016,54.192 C292.861333,53.9786656 292.613335,53.872 292.272,53.872 C291.973332,53.872 291.717334,53.938666 291.504,54.072 C291.290666,54.205334 291.056001,54.3946654 290.8,54.64 L290.8,60 L288.448,60 L288.448,52.064 Z M298.768,50.896 C298.373331,50.896 298.048001,50.7813345 297.792,50.552 C297.535999,50.3226655 297.408,50.0266685 297.408,49.664 C297.408,49.3013315 297.535999,49.0080011 297.792,48.784 C298.048001,48.5599989 298.373331,48.448 298.768,48.448 C299.173335,48.448 299.501332,48.5599989 299.752,48.784 C300.002668,49.0080011 300.128,49.3013315 300.128,49.664 C300.128,50.0266685 300.002668,50.3226655 299.752,50.552 C299.501332,50.7813345 299.173335,50.896 298.768,50.896 Z M297.6,52.064 L299.952,52.064 L299.952,60 L297.6,60 L297.6,52.064 Z M301.728,57.792 C301.728,56.9599958 302.079996,56.3093357 302.784,55.84 C303.488004,55.3706643 304.623992,55.0560008 306.192,54.896 C306.170667,54.5439982 306.064001,54.264001 305.872,54.056 C305.679999,53.847999 305.370669,53.744 304.944,53.744 C304.602665,53.744 304.261335,53.8079994 303.92,53.936 C303.578665,54.0640006 303.216002,54.2399989 302.832,54.464 L302,52.912 C302.512003,52.6026651 303.047997,52.352001 303.608,52.16 C304.168003,51.967999 304.762664,51.872 305.392,51.872 C306.416005,51.872 307.197331,52.1626638 307.736,52.744 C308.274669,53.3253362 308.544,54.2293272 308.544,55.456 L308.544,60 L306.624,60 L306.448,59.184 L306.4,59.184 C306.058665,59.4826682 305.698669,59.7253324 305.32,59.912 C304.941331,60.0986676 304.528002,60.192 304.08,60.192 C303.717332,60.192 303.392001,60.1306673 303.104,60.008 C302.815999,59.8853327 302.570668,59.7146678 302.368,59.496 C302.165332,59.2773322 302.008001,59.0240014 301.896,58.736 C301.783999,58.4479986 301.728,58.133335 301.728,57.792 Z M303.968,57.616 C303.968,57.8720013 304.050666,58.0613327 304.216,58.184 C304.381334,58.3066673 304.602665,58.368 304.88,58.368 C305.157335,58.368 305.391999,58.3093339 305.584,58.192 C305.776001,58.0746661 305.978666,57.9093344 306.192,57.696 L306.192,56.304 C305.349329,56.4213339 304.768002,56.5919989 304.448,56.816 C304.127998,57.0400011 303.968,57.3066651 303.968,57.616 Z M310.56,48.784 L312.912,48.784 L312.912,57.632 C312.912,57.8773346 312.957333,58.0479995 313.048,58.144 C313.138667,58.2400005 313.232,58.288 313.328,58.288 L313.464,58.288 C313.501334,58.288 313.552,58.2773334 313.616,58.256 L313.904,60 C313.775999,60.0533336 313.613334,60.0986665 313.416,60.136 C313.218666,60.1733335 312.986668,60.192 312.72,60.192 C312.314665,60.192 311.973335,60.1280006 311.696,60 C311.418665,59.8719994 311.197334,59.6933345 311.032,59.464 C310.866666,59.2346655 310.746667,58.957335 310.672,58.632 C310.597333,58.306665 310.56,57.9413354 310.56,57.536 L310.56,48.784 Z M317.808,52.064 L320.144,52.064 L320.912,55.744 C320.976,56.1386686 321.034666,56.5279981 321.088,56.912 C321.141334,57.2960019 321.2,57.6906646 321.264,58.096 L321.328,58.096 C321.402667,57.6906646 321.474666,57.2906686 321.544,56.896 C321.613334,56.5013314 321.696,56.1173352 321.792,55.744 L322.672,52.064 L324.704,52.064 L325.6,55.744 C325.696,56.1386686 325.781333,56.5279981 325.856,56.912 C325.930667,57.2960019 326.010666,57.6906646 326.096,58.096 L326.16,58.096 C326.234667,57.6906646 326.296,57.2960019 326.344,56.912 C326.392,56.5279981 326.453333,56.1386686 326.528,55.744 L327.28,52.064 L329.456,52.064 L327.552,60 L324.8,60 L324.08,56.832 C323.994666,56.4586648 323.92,56.0853352 323.856,55.712 C323.792,55.3386648 323.722667,54.9386688 323.648,54.512 L323.584,54.512 C323.509333,54.9386688 323.442667,55.3386648 323.384,55.712 C323.325333,56.0853352 323.258667,56.4586648 323.184,56.832 L322.48,60 L319.792,60 L317.808,52.064 Z M333.264,48.64 L334.8,48.64 L331.584,62.56 L330.048,62.56 L333.264,48.64 Z M337.168,57.072 C337.541335,57.3920016 337.954664,57.6533323 338.408,57.856 C338.861336,58.0586677 339.306664,58.16 339.744,58.16 C340.234669,58.16 340.599999,58.0693342 340.84,57.888 C341.080001,57.7066658 341.2,57.4613349 341.2,57.152 C341.2,56.9919992 341.165334,56.8533339 341.096,56.736 C341.026666,56.6186661 340.925334,56.5146671 340.792,56.424 C340.658666,56.3333329 340.498668,56.2480004 340.312,56.168 L339.696,55.904 L338.336,55.328 C338.069332,55.2213328 337.810668,55.0826675 337.56,54.912 C337.309332,54.7413325 337.085334,54.5413345 336.888,54.312 C336.690666,54.0826655 336.533334,53.8160015 336.416,53.512 C336.298666,53.2079985 336.24,52.8640019 336.24,52.48 C336.24,52.0533312 336.330666,51.6506686 336.512,51.272 C336.693334,50.8933314 336.949332,50.5626681 337.28,50.28 C337.610668,49.9973319 338.002664,49.7760008 338.456,49.616 C338.909336,49.4559992 339.407997,49.376 339.952,49.376 C340.560003,49.376 341.159997,49.4933322 341.752,49.728 C342.344003,49.9626678 342.863998,50.3039978 343.312,50.752 L342.112,52.24 C341.770665,51.973332 341.429335,51.7680007 341.088,51.624 C340.746665,51.4799993 340.368002,51.408 339.952,51.408 C339.546665,51.408 339.224001,51.4906658 338.984,51.656 C338.743999,51.8213342 338.624,52.0533318 338.624,52.352 C338.624,52.5120008 338.664,52.6479994 338.744,52.76 C338.824,52.8720006 338.935999,52.9733329 339.08,53.064 C339.224001,53.1546671 339.391999,53.2399996 339.584,53.32 C339.776001,53.4000004 339.983999,53.4879995 340.208,53.584 L341.552,54.128 C342.192003,54.3840013 342.695998,54.7359978 343.064,55.184 C343.432002,55.6320022 343.616,56.2239963 343.616,56.96 C343.616,57.3973355 343.528001,57.8106647 343.352,58.2 C343.175999,58.5893353 342.920002,58.9306652 342.584,59.224 C342.247998,59.5173348 341.834669,59.7519991 341.344,59.928 C340.853331,60.1040009 340.29867,60.192 339.68,60.192 C338.99733,60.192 338.317337,60.0666679 337.64,59.816 C336.962663,59.5653321 336.357336,59.1893358 335.824,58.688 L337.168,57.072 Z M345.2,48.784 L347.552,48.784 L347.552,57.632 C347.552,57.8773346 347.597333,58.0479995 347.688,58.144 C347.778667,58.2400005 347.872,58.288 347.968,58.288 L348.104,58.288 C348.141334,58.288 348.192,58.2773334 348.256,58.256 L348.544,60 C348.415999,60.0533336 348.253334,60.0986665 348.056,60.136 C347.858666,60.1733335 347.626668,60.192 347.36,60.192 C346.954665,60.192 346.613335,60.1280006 346.336,60 C346.058665,59.8719994 345.837334,59.6933345 345.672,59.464 C345.506666,59.2346655 345.386667,58.957335 345.312,58.632 C345.237333,58.306665 345.2,57.9413354 345.2,57.536 L345.2,48.784 Z M350.944,50.896 C350.549331,50.896 350.224001,50.7813345 349.968,50.552 C349.711999,50.3226655 349.584,50.0266685 349.584,49.664 C349.584,49.3013315 349.711999,49.0080011 349.968,48.784 C350.224001,48.5599989 350.549331,48.448 350.944,48.448 C351.349335,48.448 351.677332,48.5599989 351.928,48.784 C352.178668,49.0080011 352.304,49.3013315 352.304,49.664 C352.304,50.0266685 352.178668,50.3226655 351.928,50.552 C351.677332,50.7813345 351.349335,50.896 350.944,50.896 Z M349.776,52.064 L352.128,52.064 L352.128,60 L349.776,60 L349.776,52.064 Z M353.776,56.032 C353.776,55.3813301 353.869332,54.8000026 354.056,54.288 C354.242668,53.7759974 354.487998,53.3413351 354.792,52.984 C355.096002,52.6266649 355.447998,52.352001 355.848,52.16 C356.248002,51.967999 356.655998,51.872 357.072,51.872 C357.520002,51.872 357.887999,51.9466659 358.176,52.096 C358.464001,52.2453341 358.746665,52.4479987 359.024,52.704 L358.928,51.488 L358.928,48.784 L361.28,48.784 L361.28,60 L359.36,60 L359.2,59.216 L359.136,59.216 C358.858665,59.4933347 358.533335,59.7253324 358.16,59.912 C357.786665,60.0986676 357.408002,60.192 357.024,60.192 C356.533331,60.192 356.088002,60.096001 355.688,59.904 C355.287998,59.711999 354.946668,59.4373351 354.664,59.08 C354.381332,58.7226649 354.162667,58.2880026 354.008,57.776 C353.853333,57.2639974 353.776,56.6826699 353.776,56.032 Z M356.192,56 C356.192,56.7893373 356.317332,57.3653315 356.568,57.728 C356.818668,58.0906685 357.173331,58.272 357.632,58.272 C357.888001,58.272 358.119999,58.2186672 358.328,58.112 C358.536001,58.0053328 358.735999,57.818668 358.928,57.552 L358.928,54.304 C358.714666,54.111999 358.496001,53.978667 358.272,53.904 C358.047999,53.829333 357.829334,53.792 357.616,53.792 C357.242665,53.792 356.912001,53.9706649 356.624,54.328 C356.335999,54.6853351 356.192,55.2426629 356.192,56 Z M362.896,56.032 C362.896,55.3919968 363.002666,54.8133359 363.216,54.296 C363.429334,53.7786641 363.709332,53.3413351 364.056,52.984 C364.402668,52.6266649 364.799998,52.352001 365.248,52.16 C365.696002,51.967999 366.159998,51.872 366.64,51.872 C367.205336,51.872 367.698665,51.967999 368.12,52.16 C368.541335,52.352001 368.893332,52.618665 369.176,52.96 C369.458668,53.301335 369.669333,53.7039977 369.808,54.168 C369.946667,54.6320023 370.016,55.1359973 370.016,55.68 C370.016,55.8933344 370.005333,56.0879991 369.984,56.264 C369.962667,56.4400009 369.941333,56.5759995 369.92,56.672 L365.168,56.672 C365.274667,57.280003 365.511998,57.7199986 365.88,57.992 C366.248002,58.2640014 366.698664,58.4 367.232,58.4 C367.797336,58.4 368.367997,58.2240018 368.944,57.872 L369.728,59.296 C369.322665,59.5733347 368.872002,59.7919992 368.376,59.952 C367.879998,60.1120008 367.392002,60.192 366.912,60.192 C366.346664,60.192 365.818669,60.0986676 365.328,59.912 C364.837331,59.7253324 364.410668,59.4533351 364.048,59.096 C363.685332,58.7386649 363.402668,58.3040026 363.2,57.792 C362.997332,57.2799974 362.896,56.6933366 362.896,56.032 Z M368.016,55.216 C368.016,54.757331 367.914668,54.3840014 367.712,54.096 C367.509332,53.8079986 367.168002,53.664 366.688,53.664 C366.314665,53.664 365.986668,53.7893321 365.704,54.04 C365.421332,54.2906679 365.237334,54.682664 365.152,55.216 L368.016,55.216 Z M371.648,52.064 L373.568,52.064 L373.728,53.456 L373.792,53.456 C374.080001,52.9119973 374.426665,52.5120013 374.832,52.256 C375.237335,51.9999987 375.642665,51.872 376.048,51.872 C376.272001,51.872 376.455999,51.8853332 376.6,51.912 C376.744001,51.9386668 376.874666,51.9786664 376.992,52.032 L376.608,54.064 C376.458666,54.0213331 376.320001,53.9893334 376.192,53.968 C376.063999,53.9466666 375.914668,53.936 375.744,53.936 C375.445332,53.936 375.133335,54.0426656 374.808,54.256 C374.482665,54.4693344 374.213334,54.8479973 374,55.392 L374,60 L371.648,60 L371.648,52.064 Z" id="Testimonial-w/Slider" fill="#79797B"></path>
            <path d="M122.5,102 L485.522038,102" id="Line" stroke="#979797" stroke-width="6" stroke-linecap="square"></path>
            <path d="M142.5,122 L466,122" id="Line" stroke="#979797" stroke-width="6" stroke-linecap="square"></path>
            <path d="M157.5,140 L449.015437,140" id="Line" stroke="#979797" stroke-width="6" stroke-linecap="square"></path>
            <path d="M280.43,180.95 L282.89,180.95 L282.89,181.99 L280.43,181.99 L280.43,180.95 Z M286.56,182.2 C286.680001,182.420001 286.819999,182.583333 286.98,182.69 C287.140001,182.796667 287.303333,182.85 287.47,182.85 C287.736668,182.85 287.938333,182.768334 288.075,182.605 C288.211667,182.441666 288.28,182.143336 288.28,181.71 L288.28,177.48 L289.75,177.48 L289.75,181.83 C289.75,182.143335 289.708334,182.439999 289.625,182.72 C289.541666,183.000001 289.415001,183.243332 289.245,183.45 C289.074999,183.656668 288.858335,183.819999 288.595,183.94 C288.331665,184.060001 288.020002,184.12 287.66,184.12 C287.159998,184.12 286.741668,184.023334 286.405,183.83 C286.068332,183.636666 285.786668,183.340002 285.56,182.94 L286.56,182.2 Z M290.85,181.52 C290.85,181.106665 290.916666,180.738335 291.05,180.415 C291.183334,180.091665 291.361666,179.820001 291.585,179.6 C291.808334,179.379999 292.066665,179.211667 292.36,179.095 C292.653335,178.978333 292.956665,178.92 293.27,178.92 C293.583335,178.92 293.884999,178.978333 294.175,179.095 C294.465001,179.211667 294.721666,179.379999 294.945,179.6 C295.168334,179.820001 295.346666,180.091665 295.48,180.415 C295.613334,180.738335 295.68,181.106665 295.68,181.52 C295.68,181.933335 295.613334,182.301665 295.48,182.625 C295.346666,182.948335 295.168334,183.219999 294.945,183.44 C294.721666,183.660001 294.465001,183.828333 294.175,183.945 C293.884999,184.061667 293.583335,184.12 293.27,184.12 C292.956665,184.12 292.653335,184.061667 292.36,183.945 C292.066665,183.828333 291.808334,183.660001 291.585,183.44 C291.361666,183.219999 291.183334,182.948335 291.05,182.625 C290.916666,182.301665 290.85,181.933335 290.85,181.52 Z M292.36,181.52 C292.36,181.953336 292.434999,182.296665 292.585,182.55 C292.735001,182.803335 292.963332,182.93 293.27,182.93 C293.570001,182.93 293.796666,182.803335 293.95,182.55 C294.103334,182.296665 294.18,181.953336 294.18,181.52 C294.18,181.086665 294.103334,180.743335 293.95,180.49 C293.796666,180.236665 293.570001,180.11 293.27,180.11 C292.963332,180.11 292.735001,180.236665 292.585,180.49 C292.434999,180.743335 292.36,181.086665 292.36,181.52 Z M296.69,176.99 L298.16,176.99 L298.16,178.71 L298.09,179.6 C298.276668,179.433333 298.493332,179.278334 298.74,179.135 C298.986668,178.991666 299.279998,178.92 299.62,178.92 C300.160003,178.92 300.551665,179.096665 300.795,179.45 C301.038335,179.803335 301.16,180.29333 301.16,180.92 L301.16,184 L299.69,184 L299.69,181.11 C299.69,180.749998 299.641667,180.503334 299.545,180.37 C299.448333,180.236666 299.293334,180.17 299.08,180.17 C298.893332,180.17 298.733334,180.211666 298.6,180.295 C298.466666,180.378334 298.320001,180.496666 298.16,180.65 L298.16,184 L296.69,184 L296.69,176.99 Z M302.4,179.04 L303.6,179.04 L303.7,179.67 L303.74,179.67 C303.953334,179.469999 304.186665,179.295001 304.44,179.145 C304.693335,178.994999 304.989998,178.92 305.33,178.92 C305.870003,178.92 306.261665,179.096665 306.505,179.45 C306.748335,179.803335 306.87,180.29333 306.87,180.92 L306.87,184 L305.4,184 L305.4,181.11 C305.4,180.749998 305.351667,180.503334 305.255,180.37 C305.158333,180.236666 305.003334,180.17 304.79,180.17 C304.603332,180.17 304.443334,180.211666 304.31,180.295 C304.176666,180.378334 304.030001,180.496666 303.87,180.65 L303.87,184 L302.4,184 L302.4,179.04 Z M310.32,177.48 L312.16,177.48 C312.660003,177.48 313.109998,177.543333 313.51,177.67 C313.910002,177.796667 314.253332,177.991665 314.54,178.255 C314.826668,178.518335 315.046666,178.853331 315.2,179.26 C315.353334,179.666669 315.43,180.149997 315.43,180.71 C315.43,181.270003 315.353334,181.756665 315.2,182.17 C315.046666,182.583335 314.830001,182.924999 314.55,183.195 C314.269999,183.465001 313.935002,183.666666 313.545,183.8 C313.154998,183.933334 312.720002,184 312.24,184 L310.32,184 L310.32,177.48 Z M312.07,182.81 C312.350001,182.81 312.603332,182.773334 312.83,182.7 C313.056668,182.626666 313.249999,182.508334 313.41,182.345 C313.570001,182.181666 313.695,181.966668 313.785,181.7 C313.875,181.433332 313.92,181.103335 313.92,180.71 C313.92,180.323331 313.875,179.998335 313.785,179.735 C313.695,179.471665 313.570001,179.261667 313.41,179.105 C313.249999,178.948333 313.056668,178.836667 312.83,178.77 C312.603332,178.703333 312.350001,178.67 312.07,178.67 L311.79,178.67 L311.79,182.81 L312.07,182.81 Z M316.26,181.52 C316.26,181.106665 316.326666,180.738335 316.46,180.415 C316.593334,180.091665 316.771666,179.820001 316.995,179.6 C317.218334,179.379999 317.476665,179.211667 317.77,179.095 C318.063335,178.978333 318.366665,178.92 318.68,178.92 C318.993335,178.92 319.294999,178.978333 319.585,179.095 C319.875001,179.211667 320.131666,179.379999 320.355,179.6 C320.578334,179.820001 320.756666,180.091665 320.89,180.415 C321.023334,180.738335 321.09,181.106665 321.09,181.52 C321.09,181.933335 321.023334,182.301665 320.89,182.625 C320.756666,182.948335 320.578334,183.219999 320.355,183.44 C320.131666,183.660001 319.875001,183.828333 319.585,183.945 C319.294999,184.061667 318.993335,184.12 318.68,184.12 C318.366665,184.12 318.063335,184.061667 317.77,183.945 C317.476665,183.828333 317.218334,183.660001 316.995,183.44 C316.771666,183.219999 316.593334,182.948335 316.46,182.625 C316.326666,182.301665 316.26,181.933335 316.26,181.52 Z M317.77,181.52 C317.77,181.953336 317.844999,182.296665 317.995,182.55 C318.145001,182.803335 318.373332,182.93 318.68,182.93 C318.980001,182.93 319.206666,182.803335 319.36,182.55 C319.513334,182.296665 319.59,181.953336 319.59,181.52 C319.59,181.086665 319.513334,180.743335 319.36,180.49 C319.206666,180.236665 318.980001,180.11 318.68,180.11 C318.373332,180.11 318.145001,180.236665 317.995,180.49 C317.844999,180.743335 317.77,181.086665 317.77,181.52 Z M321.81,181.52 C321.81,181.119998 321.876666,180.758335 322.01,180.435 C322.143334,180.111665 322.318332,179.838334 322.535,179.615 C322.751668,179.391666 322.999999,179.220001 323.28,179.1 C323.560001,178.979999 323.849998,178.92 324.15,178.92 C324.503335,178.92 324.811665,178.979999 325.075,179.1 C325.338335,179.220001 325.558332,179.386666 325.735,179.6 C325.911668,179.813334 326.043333,180.064999 326.13,180.355 C326.216667,180.645001 326.26,180.959998 326.26,181.3 C326.26,181.433334 326.253333,181.554999 326.24,181.665 C326.226667,181.775001 326.213333,181.86 326.2,181.92 L323.23,181.92 C323.296667,182.300002 323.444999,182.574999 323.675,182.745 C323.905001,182.915001 324.186665,183 324.52,183 C324.873335,183 325.229998,182.890001 325.59,182.67 L326.08,183.56 C325.826665,183.733334 325.545002,183.87 325.235,183.97 C324.924998,184.07 324.620002,184.12 324.32,184.12 C323.966665,184.12 323.636668,184.061667 323.33,183.945 C323.023332,183.828333 322.756668,183.658334 322.53,183.435 C322.303332,183.211666 322.126667,182.940002 322,182.62 C321.873333,182.299998 321.81,181.933335 321.81,181.52 Z M325.01,181.01 C325.01,180.723332 324.946667,180.490001 324.82,180.31 C324.693333,180.129999 324.480001,180.04 324.18,180.04 C323.946665,180.04 323.741668,180.118333 323.565,180.275 C323.388332,180.431667 323.273334,180.676665 323.22,181.01 L325.01,181.01 Z" id="--John-Doe" fill="#79797B"></path>
            <path d="M277.5,202.5 L330.5,202.5" id="Line" stroke="#D7D9D9" stroke-width="3" stroke-linecap="square"></path>
            <circle id="Oval" fill="#D8D8D8" cx="290" cy="235" r="5"></circle>
            <circle id="Oval" fill="#D8D8D8" cx="303" cy="235" r="5"></circle>
            <circle id="Oval" fill="#79797B" cx="317" cy="235" r="5"></circle>
        </g>
    </g>
</svg>