<?xml version="1.0" encoding="UTF-8"?>
<svg width="600px" height="481px" viewBox="0 0 600 481" version="1.1" xmlns="http://www.w3.org/2000/svg" xmlns:xlink="http://www.w3.org/1999/xlink">
    <!-- Generator: Sketch 44.1 (41455) - http://www.bohemiancoding.com/sketch -->
    <title>typo05</title>
    <desc>Created with Sketch.</desc>
    <defs></defs>
    <g id="Typo" stroke="none" stroke-width="1" fill="none" fill-rule="evenodd">
        <g id="05">
            <rect id="Rectangle" fill="#F8F8F8" x="0" y="0" width="600" height="481"></rect>
            <path d="M139.746,54.694 L135.588,54.694 L135.588,53.224 L145.668,53.224 L145.668,54.694 L141.51,54.694 L141.51,67 L139.746,67 L139.746,54.694 Z M147.222,61.918 C147.222,61.0779958 147.351499,60.3255033 147.6105,59.6605 C147.869501,58.9954967 148.212498,58.4320023 148.6395,57.97 C149.066502,57.5079977 149.552997,57.1545012 150.099,56.9095 C150.645003,56.6644988 151.211997,56.542 151.8,56.542 C152.444003,56.542 153.021497,56.6539989 153.5325,56.878 C154.043503,57.1020011 154.470498,57.4239979 154.8135,57.844 C155.156502,58.2640021 155.418999,58.7679971 155.601,59.356 C155.783001,59.9440029 155.874,60.6019964 155.874,61.33 C155.874,61.7080019 155.853,62.0229987 155.811,62.275 L148.923,62.275 C148.993,63.3810055 149.332497,64.2559968 149.9415,64.9 C150.550503,65.5440032 151.344995,65.866 152.325,65.866 C152.815002,65.866 153.266498,65.7925007 153.6795,65.6455 C154.092502,65.4984993 154.487998,65.3060012 154.866,65.068 L155.475,66.202 C155.026998,66.4820014 154.530003,66.7269989 153.984,66.937 C153.437997,67.1470011 152.815003,67.252 152.115,67.252 C151.428997,67.252 150.788503,67.1295012 150.1935,66.8845 C149.598497,66.6394988 149.080502,66.2895023 148.6395,65.8345 C148.198498,65.3794977 147.852001,64.8230033 147.6,64.165 C147.347999,63.5069967 147.222,62.7580042 147.222,61.918 Z M154.362,61.141 C154.362,60.0909948 154.141502,59.2895028 153.7005,58.7365 C153.259498,58.1834972 152.640004,57.907 151.842,57.907 C151.477998,57.907 151.131502,57.9804993 150.8025,58.1275 C150.473498,58.2745007 150.176001,58.4844986 149.91,58.7575 C149.643999,59.0305014 149.423501,59.366498 149.2485,59.7655 C149.073499,60.164502 148.958,60.6229974 148.902,61.141 L154.362,61.141 Z M160.305,61.666 L157.218,56.794 L159.087,56.794 L160.452,59.041 C160.606001,59.3210014 160.766999,59.6044986 160.935,59.8915 C161.103001,60.1785014 161.277999,60.4619986 161.46,60.742 L161.544,60.742 C161.698001,60.4619986 161.851999,60.1785014 162.006,59.8915 C162.160001,59.6044986 162.313999,59.3210014 162.468,59.041 L163.707,56.794 L165.513,56.794 L162.426,61.855 L165.744,67 L163.875,67 L162.384,64.627 L161.838,63.703 C161.655999,63.3949985 161.467001,63.0940015 161.271,62.8 L161.187,62.8 C161.004999,63.0940015 160.830001,63.3914985 160.662,63.6925 C160.493999,63.9935015 160.326001,64.3049984 160.158,64.627 L158.772,67 L156.966,67 L160.305,61.666 Z M168.054,58.201 L166.542,58.201 L166.542,56.899 L168.138,56.794 L168.348,53.938 L169.797,53.938 L169.797,56.794 L172.548,56.794 L172.548,58.201 L169.797,58.201 L169.797,63.871 C169.797,64.5010032 169.912499,64.9874983 170.1435,65.3305 C170.374501,65.6735017 170.783997,65.845 171.372,65.845 C171.554001,65.845 171.749999,65.8170003 171.96,65.761 C172.170001,65.7049997 172.358999,65.6420004 172.527,65.572 L172.863,66.874 C172.582999,66.9720005 172.278502,67.0594996 171.9495,67.1365 C171.620498,67.2135004 171.295002,67.252 170.973,67.252 C170.426997,67.252 169.968502,67.1680008 169.5975,67 C169.226498,66.8319992 168.925501,66.6010015 168.6945,66.307 C168.463499,66.0129985 168.299,65.6560021 168.201,65.236 C168.103,64.8159979 168.054,64.3540025 168.054,63.85 L168.054,58.201 Z M179.31,63.997 C179.800002,64.5150026 180.377497,64.9314984 181.0425,65.2465 C181.707503,65.5615016 182.396996,65.719 183.111,65.719 C184.021005,65.719 184.727997,65.5125021 185.232,65.0995 C185.736003,64.6864979 185.988,64.1440034 185.988,63.472 C185.988,63.1219982 185.928501,62.8245012 185.8095,62.5795 C185.690499,62.3344988 185.529501,62.1245009 185.3265,61.9495 C185.123499,61.7744991 184.882001,61.6170007 184.602,61.477 C184.321999,61.3369993 184.021002,61.1900008 183.699,61.036 L181.725,60.175 C181.402998,60.0349993 181.074002,59.867001 180.738,59.671 C180.401998,59.474999 180.101001,59.2370014 179.835,58.957 C179.568999,58.6769986 179.352001,58.3445019 179.184,57.9595 C179.015999,57.5744981 178.932,57.1300025 178.932,56.626 C178.932,56.1079974 179.040499,55.6250022 179.2575,55.177 C179.474501,54.7289978 179.775498,54.3405016 180.1605,54.0115 C180.545502,53.6824984 181.000497,53.4270009 181.5255,53.245 C182.050503,53.0629991 182.627997,52.972 183.258,52.972 C184.084004,52.972 184.846996,53.1294984 185.547,53.4445 C186.247004,53.7595016 186.841998,54.1689975 187.332,54.673 L186.387,55.807 C185.966998,55.400998 185.501503,55.0825012 184.9905,54.8515 C184.479497,54.6204988 183.902003,54.505 183.258,54.505 C182.487996,54.505 181.868502,54.6834982 181.3995,55.0405 C180.930498,55.3975018 180.696,55.8909969 180.696,56.521 C180.696,56.8570017 180.762499,57.1404988 180.8955,57.3715 C181.028501,57.6025012 181.206999,57.8054991 181.431,57.9805 C181.655001,58.1555009 181.899999,58.3094993 182.166,58.4425 C182.432001,58.5755007 182.704999,58.6979994 182.985,58.81 L184.938,59.65 C185.330002,59.8180008 185.700998,60.0104989 186.051,60.2275 C186.401002,60.4445011 186.701999,60.6964986 186.954,60.9835 C187.206001,61.2705014 187.405499,61.6064981 187.5525,61.9915 C187.699501,62.3765019 187.773,62.8209975 187.773,63.325 C187.773,63.8710027 187.664501,64.3819976 187.4475,64.858 C187.230499,65.3340024 186.919002,65.7504982 186.513,66.1075 C186.106998,66.4645018 185.617003,66.744499 185.043,66.9475 C184.468997,67.150501 183.818004,67.252 183.09,67.252 C182.123995,67.252 181.228004,67.0700018 180.402,66.706 C179.575996,66.3419982 178.862003,65.8450031 178.26,65.215 L179.31,63.997 Z M189.558,61.918 C189.558,61.0779958 189.687499,60.3255033 189.9465,59.6605 C190.205501,58.9954967 190.548498,58.4320023 190.9755,57.97 C191.402502,57.5079977 191.888997,57.1545012 192.435,56.9095 C192.981003,56.6644988 193.547997,56.542 194.136,56.542 C194.780003,56.542 195.357497,56.6539989 195.8685,56.878 C196.379503,57.1020011 196.806498,57.4239979 197.1495,57.844 C197.492502,58.2640021 197.754999,58.7679971 197.937,59.356 C198.119001,59.9440029 198.21,60.6019964 198.21,61.33 C198.21,61.7080019 198.189,62.0229987 198.147,62.275 L191.259,62.275 C191.329,63.3810055 191.668497,64.2559968 192.2775,64.9 C192.886503,65.5440032 193.680995,65.866 194.661,65.866 C195.151002,65.866 195.602498,65.7925007 196.0155,65.6455 C196.428502,65.4984993 196.823998,65.3060012 197.202,65.068 L197.811,66.202 C197.362998,66.4820014 196.866003,66.7269989 196.32,66.937 C195.773997,67.1470011 195.151004,67.252 194.451,67.252 C193.764997,67.252 193.124503,67.1295012 192.5295,66.8845 C191.934497,66.6394988 191.416502,66.2895023 190.9755,65.8345 C190.534498,65.3794977 190.188001,64.8230033 189.936,64.165 C189.683999,63.5069967 189.558,62.7580042 189.558,61.918 Z M196.698,61.141 C196.698,60.0909948 196.477502,59.2895028 196.0365,58.7365 C195.595498,58.1834972 194.976004,57.907 194.178,57.907 C193.813998,57.907 193.467502,57.9804993 193.1385,58.1275 C192.809498,58.2745007 192.512001,58.4844986 192.246,58.7575 C191.979999,59.0305014 191.759501,59.366498 191.5845,59.7655 C191.409499,60.164502 191.294,60.6229974 191.238,61.141 L196.698,61.141 Z M199.974,61.918 C199.974,61.0639957 200.106999,60.3045033 200.373,59.6395 C200.639001,58.9744967 200.995998,58.4110023 201.444,57.949 C201.892002,57.4869977 202.413497,57.1370012 203.0085,56.899 C203.603503,56.6609988 204.229997,56.542 204.888,56.542 C205.560003,56.542 206.137498,56.6644988 206.6205,56.9095 C207.103502,57.1545012 207.519998,57.4379984 207.87,57.76 L207.009,58.873 C206.700998,58.6069987 206.382502,58.3900008 206.0535,58.222 C205.724498,58.0539992 205.357002,57.97 204.951,57.97 C204.488998,57.97 204.062002,58.0644991 203.67,58.2535 C203.277998,58.4425009 202.942001,58.7119983 202.662,59.062 C202.381999,59.4120018 202.161501,59.8284976 202.0005,60.3115 C201.839499,60.7945024 201.759,61.3299971 201.759,61.918 C201.759,62.5060029 201.835999,63.0379976 201.99,63.514 C202.144001,63.9900024 202.357499,64.3994983 202.6305,64.7425 C202.903501,65.0855017 203.235998,65.3514991 203.628,65.5405 C204.020002,65.7295009 204.446998,65.824 204.909,65.824 C205.399002,65.824 205.843498,65.722501 206.2425,65.5195 C206.641502,65.316499 206.994998,65.0750014 207.303,64.795 L208.08,65.929 C207.617998,66.335002 207.103503,66.6569988 206.5365,66.895 C205.969497,67.1330012 205.378003,67.252 204.762,67.252 C204.089997,67.252 203.460003,67.1330012 202.872,66.895 C202.283997,66.6569988 201.776502,66.3105023 201.3495,65.8555 C200.922498,65.4004977 200.586501,64.8405033 200.3415,64.1755 C200.096499,63.5104967 199.974,62.7580042 199.974,61.918 Z M210.6,58.201 L209.088,58.201 L209.088,56.899 L210.684,56.794 L210.894,53.938 L212.343,53.938 L212.343,56.794 L215.094,56.794 L215.094,58.201 L212.343,58.201 L212.343,63.871 C212.343,64.5010032 212.458499,64.9874983 212.6895,65.3305 C212.920501,65.6735017 213.329997,65.845 213.918,65.845 C214.100001,65.845 214.295999,65.8170003 214.506,65.761 C214.716001,65.7049997 214.904999,65.6420004 215.073,65.572 L215.409,66.874 C215.128999,66.9720005 214.824502,67.0594996 214.4955,67.1365 C214.166498,67.2135004 213.841002,67.252 213.519,67.252 C212.972997,67.252 212.514502,67.1680008 212.1435,67 C211.772498,66.8319992 211.471501,66.6010015 211.2405,66.307 C211.009499,66.0129985 210.845,65.6560021 210.747,65.236 C210.649,64.8159979 210.6,64.3540025 210.6,63.85 L210.6,58.201 Z M218.286,54.694 C217.949998,54.694 217.666501,54.589001 217.4355,54.379 C217.204499,54.168999 217.089,53.9030016 217.089,53.581 C217.089,53.2449983 217.204499,52.975501 217.4355,52.7725 C217.666501,52.569499 217.949998,52.468 218.286,52.468 C218.622002,52.468 218.905499,52.569499 219.1365,52.7725 C219.367501,52.975501 219.483,53.2449983 219.483,53.581 C219.483,53.9030016 219.367501,54.168999 219.1365,54.379 C218.905499,54.589001 218.622002,54.694 218.286,54.694 Z M217.404,56.794 L219.126,56.794 L219.126,67 L217.404,67 L217.404,56.794 Z M221.814,61.918 C221.814,61.0639957 221.943499,60.3045033 222.2025,59.6395 C222.461501,58.9744967 222.807998,58.4110023 223.242,57.949 C223.676002,57.4869977 224.176497,57.1370012 224.7435,56.899 C225.310503,56.6609988 225.908997,56.542 226.539,56.542 C227.169003,56.542 227.767497,56.6609988 228.3345,56.899 C228.901503,57.1370012 229.401998,57.4869977 229.836,57.949 C230.270002,58.4110023 230.616499,58.9744967 230.8755,59.6395 C231.134501,60.3045033 231.264,61.0639957 231.264,61.918 C231.264,62.7580042 231.134501,63.5104967 230.8755,64.1755 C230.616499,64.8405033 230.270002,65.4004977 229.836,65.8555 C229.401998,66.3105023 228.901503,66.6569988 228.3345,66.895 C227.767497,67.1330012 227.169003,67.252 226.539,67.252 C225.908997,67.252 225.310503,67.1330012 224.7435,66.895 C224.176497,66.6569988 223.676002,66.3105023 223.242,65.8555 C222.807998,65.4004977 222.461501,64.8405033 222.2025,64.1755 C221.943499,63.5104967 221.814,62.7580042 221.814,61.918 Z M223.599,61.918 C223.599,62.5060029 223.668999,63.0379976 223.809,63.514 C223.949001,63.9900024 224.148499,64.3994983 224.4075,64.7425 C224.666501,65.0855017 224.977998,65.3514991 225.342,65.5405 C225.706002,65.7295009 226.104998,65.824 226.539,65.824 C226.973002,65.824 227.371998,65.7295009 227.736,65.5405 C228.100002,65.3514991 228.411499,65.0855017 228.6705,64.7425 C228.929501,64.3994983 229.128999,63.9900024 229.269,63.514 C229.409001,63.0379976 229.479,62.5060029 229.479,61.918 C229.479,61.3299971 229.409001,60.7945024 229.269,60.3115 C229.128999,59.8284976 228.929501,59.4120018 228.6705,59.062 C228.411499,58.7119983 228.100002,58.4425009 227.736,58.2535 C227.371998,58.0644991 226.973002,57.97 226.539,57.97 C226.104998,57.97 225.706002,58.0644991 225.342,58.2535 C224.977998,58.4425009 224.666501,58.7119983 224.4075,59.062 C224.148499,59.4120018 223.949001,59.8284976 223.809,60.3115 C223.668999,60.7945024 223.599,61.3299971 223.599,61.918 Z M233.952,56.794 L235.38,56.794 L235.527,58.264 L235.59,58.264 C236.080002,57.7739976 236.594497,57.3645016 237.1335,57.0355 C237.672503,56.7064984 238.298996,56.542 239.013,56.542 C240.091005,56.542 240.878498,56.8779966 241.3755,57.55 C241.872502,58.2220034 242.121,59.2159934 242.121,60.532 L242.121,67 L240.399,67 L240.399,60.763 C240.399,59.7969952 240.245002,59.1005021 239.937,58.6735 C239.628998,58.2464979 239.139003,58.033 238.467,58.033 C237.934997,58.033 237.466002,58.1659987 237.06,58.432 C236.653998,58.6980013 236.192003,59.0899974 235.674,59.608 L235.674,67 L233.952,67 L233.952,56.794 Z" id="Text-Section" fill="#79797B"></path>
            <path d="M134.5,95.5 L169.557096,95.5" id="Line" stroke="#4990E2" stroke-linecap="square"></path>
            <path d="M133.5,117.5 L458.598447,117.5" id="Line" stroke="#D7D9D9" stroke-width="5" stroke-linecap="square"></path>
            <path d="M133.5,206 L458.598447,206" id="Line" stroke="#79797B" stroke-width="4" stroke-linecap="square"></path>
            <path d="M133.5,222 L458.598447,222" id="Line" stroke="#79797B" stroke-width="4" stroke-linecap="square"></path>
            <path d="M133.5,238 L458.598447,238" id="Line" stroke="#79797B" stroke-width="4" stroke-linecap="square"></path>
            <path d="M133.5,253 L272,253" id="Line" stroke="#79797B" stroke-width="4" stroke-linecap="square"></path>
            <path d="M133.5,277 L458.598447,277" id="Line" stroke="#79797B" stroke-width="4" stroke-linecap="square"></path>
            <path d="M133.5,293 L458.598447,293" id="Line" stroke="#79797B" stroke-width="4" stroke-linecap="square"></path>
            <path d="M133.5,309 L458.598447,309" id="Line" stroke="#79797B" stroke-width="4" stroke-linecap="square"></path>
            <path d="M133.5,325 L458.598447,325" id="Line" stroke="#79797B" stroke-width="4" stroke-linecap="square"></path>
            <path d="M133.5,341 L458.598447,341" id="Line" stroke="#79797B" stroke-width="4" stroke-linecap="square"></path>
            <path d="M133.5,356 L272,356" id="Line" stroke="#79797B" stroke-width="4" stroke-linecap="square"></path>
            <path d="M133.5,136 L458.598447,136" id="Line" stroke="#D7D9D9" stroke-width="5" stroke-linecap="square"></path>
            <path d="M133.5,153.5 L332.660739,153.5" id="Line" stroke="#D7D9D9" stroke-width="5" stroke-linecap="square"></path>
            <path d="M142.007671,409.710468 C141.564215,409.119192 140.991425,408.296961 140.289285,407.243752 C135.429737,406.76334 133,405.7471 133,404.195001 C133,403.843931 133.180152,403.557536 133.54046,403.335808 C133.900769,403.11408 134.450462,403.003217 135.189557,403.003217 C137.037294,403.003217 138.875764,404.176512 140.705024,406.523138 C142.55276,406.707912 144.64991,406.800297 146.996536,406.800297 L147.301411,406.800297 C149.666514,405.37754 151.865287,403.945565 153.897798,402.504331 C154.729279,400.989187 155.449886,399.737364 156.059639,398.748825 C156.669392,397.760285 157.408475,396.730188 158.276912,395.6585 C159.995307,393.478171 161.806062,392.388023 163.70923,392.388023 C164.208119,392.388023 164.45756,392.609748 164.45756,393.053205 C164.45756,394.124892 163.57066,395.529151 161.796832,397.266023 C160.023005,399.002896 157.667176,400.869082 154.729275,402.864637 C153.842361,404.564555 153.177186,405.80252 152.733729,406.57857 C155.320561,406.375319 157.186747,406.061208 158.332343,405.636229 L158.415491,405.636229 C158.489401,405.636229 158.526355,405.687041 158.526355,405.788666 C158.526355,405.890292 158.461685,406.033489 158.332343,406.218263 C156.946541,406.643242 154.951015,406.97583 152.345707,407.216036 C151.347929,408.934431 150.382501,410.269401 149.449394,411.220985 C148.516287,412.172569 147.578574,412.648354 146.636229,412.648354 C145.121085,412.648354 143.68911,411.807647 142.340262,410.126206 C139.697999,411.456577 137.360647,412.472817 135.328137,413.174957 C135.050976,413.267344 134.732246,413.313536 134.371938,413.313536 C134.011629,413.313536 133.831477,413.174958 133.831477,412.897798 C133.831477,412.749979 133.905386,412.61602 134.053205,412.495917 C134.201024,412.375814 134.395033,412.315763 134.635239,412.315763 C136.113428,412.315763 138.570881,411.44734 142.007671,409.710468 Z M147.301411,407.493195 C145.897131,408.287722 144.511349,409.036044 143.144024,409.738184 C144.382007,411.271805 145.50911,412.038604 146.525365,412.038604 C147.282937,412.038604 148.035878,411.632108 148.784212,410.819104 C149.532545,410.0061 150.359395,408.832805 151.264786,407.299183 C150.137667,407.39157 148.816555,407.45624 147.301411,407.493195 Z M162.933185,393.053205 C161.658247,393.053205 160.374089,393.903151 159.080673,395.603069 C158.008986,397.044303 156.835691,398.947443 155.560752,401.312546 C157.888901,399.594151 159.755087,398.028218 161.159366,396.614699 C162.563646,395.201181 163.265776,394.106413 163.265776,393.330364 C163.265776,393.14559 163.154913,393.053205 162.933185,393.053205 Z M134.330364,404.084138 C134.330364,405.137348 136.113403,405.904147 139.679535,406.384558 C138.2383,404.462912 136.787849,403.502103 135.328137,403.502103 C134.662951,403.502103 134.330364,403.696113 134.330364,404.084138 Z M142.811433,409.322445 C143.95703,408.712692 145.056416,408.102948 146.109626,407.493195 L145.998763,407.493195 C144.391232,407.493195 142.839156,407.437763 141.342489,407.326899 C142.044629,408.3062 142.534272,408.971375 142.811433,409.322445 Z M153.149468,403.917842 C152.15169,404.583027 150.599615,405.543836 148.493195,406.800297 C149.915952,406.763342 150.959908,406.717149 151.625093,406.661717 C151.976163,406.051964 152.484283,405.137348 153.149468,403.917842 Z M161.422668,404.250433 C161.524293,404.361297 161.575105,404.518353 161.575105,404.721604 C161.575105,404.924855 161.436527,405.183534 161.159366,405.497649 C160.882206,405.811764 160.642004,405.96882 160.438753,405.96882 C160.235502,405.96882 160.087685,405.908769 159.995298,405.788666 C159.902911,405.668563 159.856719,405.529985 159.856719,405.372927 C159.856719,405.21587 160.004535,404.96181 160.300173,404.61074 C160.595811,404.25967 160.831394,404.084138 161.006929,404.084138 C161.182464,404.084138 161.321042,404.139569 161.422668,404.250433 Z M163.293492,407.825786 C163.441311,407.733399 163.556792,407.687206 163.639941,407.687206 C163.723089,407.687206 163.764662,407.742637 163.764662,407.853502 L163.764662,407.936649 C163.838572,407.936649 163.34431,408.343145 162.281861,409.156149 C161.219412,409.969154 160.083071,410.782146 158.872804,411.59515 C157.662536,412.408154 156.900356,412.81465 156.586241,412.81465 C156.050397,412.81465 155.78248,412.592925 155.78248,412.149468 C155.78248,411.613624 156.244407,410.602004 157.168275,409.114576 C158.092144,407.627148 158.766557,406.883445 159.191537,406.883445 C159.505652,406.883445 159.662707,407.003546 159.662707,407.243752 C159.662707,407.483957 159.237734,408.139894 158.387775,409.211581 C157.537816,410.283269 157.112843,411.050068 157.112843,411.512002 C157.112843,411.770685 157.209848,411.900025 157.40386,411.900025 C157.597873,411.900025 158.082896,411.641345 158.858946,411.123979 C160.244748,410.200111 161.519668,409.267018 162.683742,408.324672 L163.293492,407.825786 Z M163.376639,407.631774 L163.321208,407.326899 C163.321208,407.234512 163.515217,407.18832 163.903242,407.18832 C164.12497,407.18832 164.235833,407.326898 164.235833,407.604058 C164.235833,407.881219 163.917103,408.495582 163.279634,409.447167 C162.642165,410.398751 162.323435,410.893013 162.323435,410.929968 C162.323435,410.966923 162.360389,410.9854 162.434298,410.9854 C162.508208,410.9854 163.362773,410.338702 164.99802,409.045286 C166.633267,407.75187 167.617172,407.105172 167.949765,407.105172 C168.282358,407.105172 168.448651,407.220654 168.448651,407.451621 C168.448651,407.682588 168.356266,407.941267 168.171492,408.227666 C167.986719,408.514066 167.5987,409.031424 167.007424,409.779757 C166.416148,410.528091 166.102038,410.929968 166.065083,410.9854 C166.028128,411.040832 166.009651,411.105502 166.009651,411.179411 C166.009651,411.253321 166.069702,411.290275 166.189805,411.290275 C166.309907,411.290275 167.219904,410.662054 168.919822,409.405593 C170.61974,408.149132 171.589787,407.520911 171.829993,407.520911 C172.070198,407.520911 172.190299,407.622535 172.190299,407.825786 C172.190299,408.195333 171.783803,408.842031 170.970799,409.7659 C170.157795,410.689768 169.751299,411.276415 169.751299,411.52586 C169.751299,411.775304 169.848304,411.900025 170.042316,411.900025 C170.236329,411.900025 170.721352,411.641345 171.497402,411.123979 C172.883204,410.200111 174.158123,409.267018 175.322197,408.324672 L175.931948,407.825786 C176.079766,407.733399 176.204487,407.687206 176.306112,407.687206 C176.407738,407.687206 176.45855,407.742637 176.45855,407.853502 L176.45855,407.936649 C172.559825,411.188666 170.148565,412.81465 169.224697,412.81465 C168.688853,412.81465 168.420935,412.592925 168.420935,412.149468 C168.420935,411.779921 168.688853,411.234846 169.224697,410.514229 C169.76054,409.793612 170.028458,409.400974 170.028458,409.336303 C170.028458,409.271632 170.005362,409.239297 169.959169,409.239297 C169.912975,409.239297 169.155414,409.765894 167.686464,410.819104 C166.217513,411.872314 165.344471,412.398911 165.06731,412.398911 C164.937969,412.398911 164.827106,412.348099 164.734719,412.246474 C164.642332,412.144848 164.59614,412.038605 164.59614,411.927741 C164.59614,411.595148 164.993397,410.920734 165.787924,409.904479 C166.582451,408.906701 166.979708,408.361627 166.979708,408.26924 C166.979708,408.176853 166.924277,408.130661 166.813413,408.130661 C166.684071,408.130661 165.372198,409.146901 162.877753,411.179411 L161.491957,412.288048 C161.251752,412.491299 161.0716,412.592923 160.951497,412.592923 C160.831394,412.592923 160.715912,412.560588 160.605048,412.495917 C160.494184,412.431246 160.438753,412.334241 160.438753,412.2049 C160.438753,412.075558 160.600427,411.761448 160.923781,411.262559 C161.247135,410.76367 161.667489,410.153926 162.184855,409.433309 C162.979382,408.361621 163.376639,407.761116 163.376639,407.631774 Z M178.038357,410.070775 C179.073089,410.070775 180.311054,409.488746 181.752289,408.324672 L182.22346,408.463252 C180.412678,409.978396 178.851363,410.735956 177.53947,410.735956 C177.391651,410.735956 177.280789,410.726718 177.206879,410.708241 C176.707991,411.317994 176.162916,411.812256 175.571641,412.191042 C174.980365,412.569828 174.463006,412.759218 174.01955,412.759218 C173.31741,412.759218 172.966345,412.36658 172.966345,411.581292 C172.966345,410.796004 173.622282,409.747429 174.934175,408.435536 C174.712446,407.899692 174.601584,407.336141 174.601584,406.744865 C174.601584,406.153589 174.81407,405.673185 175.23905,405.303638 C175.664029,404.93409 176.158291,404.749319 176.721851,404.749319 C177.285411,404.749319 177.761196,404.93409 178.14922,405.303638 C178.537245,405.673185 178.731255,406.199782 178.731255,406.883445 C178.731255,407.936655 178.389428,408.989849 177.705766,410.043059 C177.779675,410.061536 177.890538,410.070775 178.038357,410.070775 Z M177.151448,409.793615 C177.724246,408.832792 178.010641,408.015181 178.010641,407.340757 C178.010641,406.666333 177.844347,406.167452 177.511755,405.844098 C177.179162,405.520744 176.855813,405.35907 176.541698,405.35907 C175.89499,405.35907 175.571641,405.691657 175.571641,406.356842 C175.571641,407.022028 175.719457,407.682584 176.015095,408.33853 C176.310733,408.994477 176.689513,409.4795 177.151448,409.793615 Z M174.102697,411.428854 C174.102697,411.798402 174.3429,411.983172 174.823311,411.983172 C175.303723,411.983172 175.913467,411.49353 176.652561,410.514229 C176.153672,410.255546 175.710222,409.802857 175.322197,409.156149 C174.509193,410.043063 174.102697,410.800624 174.102697,411.428854 Z M193.559268,407.936649 C189.660543,411.188666 187.249283,412.81465 186.325415,412.81465 C185.789571,412.81465 185.521653,412.592925 185.521653,412.149468 C185.521653,411.706011 185.720282,411.179414 186.117545,410.569661 C186.514809,409.959908 186.912066,409.419453 187.309329,408.94828 C187.706593,408.477107 187.905221,408.195332 187.905221,408.102945 C187.905221,408.010558 187.877506,407.964365 187.822074,407.964365 C186.103679,409.109962 185.082819,409.812091 184.759465,410.070775 C184.436112,410.329458 183.909514,410.754431 183.179659,411.345707 C182.449803,411.936982 181.974017,412.306524 181.752289,412.454343 C181.530561,412.602162 181.290358,412.67607 181.031675,412.67607 C180.772992,412.67607 180.643653,412.565208 180.643653,412.343479 C180.643653,412.084796 181.161011,411.271804 182.195744,409.904479 C183.193521,408.537154 183.692403,407.770355 183.692403,407.604058 C183.692403,407.567104 183.660068,407.548627 183.595397,407.548627 C183.530726,407.548627 182.731592,408.112178 181.197971,409.239297 L181.087107,408.823559 C182.399,407.770349 183.285901,407.095935 183.747835,406.800297 C184.209769,406.504659 184.58393,406.356842 184.870329,406.356842 C185.156728,406.356842 185.299926,406.495421 185.299926,406.772581 C185.299926,406.957355 184.777948,407.710296 183.733977,409.031428 C182.690006,410.35256 182.168028,411.063928 182.168028,411.165553 C182.168028,411.267179 182.200363,411.317991 182.265033,411.317991 C182.329704,411.317991 183.382898,410.574288 185.424647,409.08686 C187.466396,407.599432 188.708981,406.855729 189.152438,406.855729 C189.281779,406.855729 189.406499,406.906541 189.526602,407.008166 C189.646705,407.109792 189.706756,407.206797 189.706756,407.299183 C189.706756,407.520912 189.217113,408.255376 188.237812,409.502598 C187.258512,410.749821 186.768869,411.456569 186.768869,411.622866 C186.768869,411.789162 186.884351,411.872309 187.115318,411.872309 C187.346285,411.872309 187.840547,411.622868 188.598119,411.123979 C189.983922,410.218588 191.258841,409.285495 192.422915,408.324672 L193.032665,407.825786 C193.162007,407.733399 193.282108,407.687206 193.392972,407.687206 C193.503836,407.687206 193.559268,407.742637 193.559268,407.853502 L193.559268,407.936649 Z M208.026974,412.703786 C207.805245,412.703786 207.694383,412.574447 207.694383,412.315763 C207.694383,411.742965 208.669049,409.456425 210.618411,405.456075 C212.567774,401.455725 213.54244,399.14147 213.54244,398.513239 C213.54244,398.254556 213.403862,398.125217 213.126701,398.125217 C212.332175,398.125217 210.567612,399.335466 207.832962,401.756001 C206.576501,404.601516 204.848893,407.410033 202.650087,410.181638 C200.45128,412.953243 198.779103,414.339025 197.633507,414.339025 C197.245482,414.339025 197.051472,414.108061 197.051472,413.646127 C197.365588,412.297279 198.391066,410.606626 200.127939,408.574115 C201.864811,406.541605 203.897291,404.518364 206.225439,402.504331 C207.186262,400.305524 207.666667,398.587155 207.666667,397.349171 C207.666667,394.134109 205.403223,392.526602 200.876268,392.526602 C199.656762,392.526602 198.594329,392.628226 197.688938,392.831477 C195.952066,393.182547 195.009734,393.80153 194.861915,394.688443 C194.89887,395.723176 195.924349,396.471498 197.938382,396.933432 C198.78834,397.118206 199.638287,397.312215 200.488245,397.515466 C201.338204,397.718718 202.058811,398.032828 202.650087,398.457807 C203.241362,398.882787 203.536996,399.427861 203.536996,400.093046 C203.536996,400.240865 203.481565,400.439494 203.3707,400.688938 C203.259836,400.938383 203.125877,401.063103 202.96882,401.063103 C202.811762,401.063103 202.733234,400.970718 202.733234,400.785944 C202.733234,400.67508 202.774808,400.554979 202.857956,400.425637 C202.941104,400.296296 202.982678,400.194672 202.982678,400.120762 C202.982678,399.603396 201.892529,399.076799 199.7122,398.540955 C198.788332,398.319227 197.869096,398.065167 196.954467,397.778768 C196.039837,397.492368 195.263799,397.095111 194.62633,396.586983 C193.988861,396.078856 193.670131,395.519924 193.670131,394.910171 C193.670131,394.300418 193.970384,393.796917 194.570898,393.399654 C195.171413,393.00239 195.924354,392.711376 196.829745,392.526602 C198.585095,392.175532 200.137171,392 201.486018,392 C203.777212,392 205.606444,392.461927 206.973769,393.385796 C208.341094,394.309664 209.024746,395.676969 209.024746,397.487751 C209.024746,398.319232 208.756829,399.437096 208.220985,400.841376 C211.195841,398.457796 213.098981,397.266023 213.930463,397.266023 C214.170669,397.266023 214.378536,397.358409 214.554071,397.543182 C214.729606,397.727956 214.817372,397.9543 214.817372,398.222222 C214.817372,398.490144 214.64184,399.095269 214.29077,400.037614 C213.9397,400.97996 213.140566,402.790715 211.893343,405.469933 C210.646121,408.149151 210.022519,409.507218 210.022519,409.544172 C210.022519,409.581127 210.050235,409.618081 210.105667,409.655036 C210.216531,409.655036 210.392063,409.488742 210.632269,409.156149 C212.424574,406.661705 215.11299,403.765421 218.6976,400.467211 C222.282209,397.169001 225.38636,394.947131 228.010146,393.801534 C228.54599,393.579806 228.952486,393.468943 229.229646,393.468943 C229.506807,393.468943 229.645385,393.565948 229.645385,393.75996 C229.645385,393.953973 229.525284,394.120267 229.285078,394.258847 C229.044872,394.397427 228.633757,394.665345 228.05172,395.062608 C227.469683,395.459872 227.086283,395.741647 226.90151,395.907944 C226.716736,396.07424 226.587396,396.157387 226.513487,396.157387 C226.439577,396.157387 226.393385,396.101956 226.374907,395.991091 C226.35643,395.880227 226.314856,395.824796 226.250186,395.824796 C226.185515,395.824796 226.079272,395.852511 225.931453,395.907944 C223.695691,396.961153 220.850219,399.150689 217.394952,402.476615 C213.75491,406.005792 211.186595,408.869741 209.689928,411.068547 C209.154085,411.844597 208.770685,412.311143 208.539718,412.468201 C208.308751,412.625259 208.137838,412.703786 208.026974,412.703786 Z M198.381836,413.341252 C199.065499,413.341252 200.151028,412.348109 201.638456,410.361792 C203.125884,408.375475 204.460854,406.190559 205.643405,403.806978 C203.592417,405.784057 201.841713,407.659481 200.39124,409.433309 C198.940766,411.207136 198.215541,412.454339 198.215541,413.174957 C198.215541,413.285821 198.270972,413.341252 198.381836,413.341252 Z M224.739668,407.853502 C224.86901,407.761115 224.989111,407.714922 225.099975,407.714922 C225.210839,407.714922 225.266271,407.779592 225.266271,407.908933 L225.266271,407.964365 C223.344625,409.553419 221.746356,410.745191 220.471418,411.539718 C219.19648,412.334245 218.041662,412.731502 217.006929,412.731502 C216.175447,412.731502 215.759713,412.325006 215.759713,411.512002 C215.759713,410.310973 216.369457,409.077627 217.588963,407.811928 C218.808469,406.546228 219.833948,405.913388 220.665429,405.913388 C221.127364,405.913388 221.358327,406.172067 221.358327,406.689433 C221.26594,407.705688 219.80625,409.072993 216.979213,410.791388 L216.979213,411.068547 C216.979213,411.6783 217.297943,411.983172 217.935412,411.983172 C218.572881,411.983172 219.261153,411.770686 220.000247,411.345707 C221.441482,410.495748 222.79031,409.5257 224.046771,408.435536 L224.739668,407.853502 Z M219.944816,406.772581 C219.538314,406.772581 219.016336,407.114407 218.378867,407.79807 C217.741397,408.481732 217.311805,409.25777 217.090077,410.126206 C217.97699,409.590363 218.725312,409.022192 219.335066,408.421678 C219.944819,407.821163 220.249691,407.39619 220.249691,407.146746 C220.249691,406.897301 220.148067,406.772581 219.944816,406.772581 Z M231.086612,407.964365 L231.724078,407.964365 C230.005683,409.516464 228.305791,410.403364 226.62435,410.625093 C226.217848,411.216369 225.742063,411.724489 225.196981,412.149468 C224.651899,412.574447 224.194591,412.786934 223.825043,412.786934 C223.381586,412.786934 223.159861,412.528255 223.159861,412.010888 C223.159861,411.493522 223.390825,410.754439 223.852759,409.793615 C223.039755,409.072998 222.633259,408.269245 222.633259,407.382331 C222.633259,406.90192 222.799553,406.513901 223.132146,406.218263 C223.464738,405.922625 223.935904,405.774808 224.545657,405.774808 C225.15541,405.774808 225.645053,405.867194 226.0146,406.051967 C227.825382,403.243408 229.904055,400.277835 232.250681,397.15516 L233.442465,395.575353 C233.627238,395.372102 233.812009,395.270478 233.996783,395.270478 C234.273943,395.270478 234.430999,395.409056 234.467953,395.686216 L234.467953,395.880228 C234.467953,395.917182 234.421761,396.000329 234.329374,396.129671 C230.689333,400.915309 228.148733,404.370525 226.707498,406.495422 C227.18791,406.975833 227.428112,407.539385 227.428112,408.186093 C227.428112,408.8328 227.271057,409.47026 226.956941,410.09849 C228.213402,409.950672 229.589945,409.239304 231.086612,407.964365 Z M223.464736,407.437763 C223.464736,407.992084 223.714177,408.537158 224.213066,409.073002 C224.564136,408.426294 225.072256,407.576348 225.737441,406.523138 C225.478758,406.375319 225.192363,406.301411 224.878248,406.301411 C223.935902,406.301411 223.464736,406.680191 223.464736,407.437763 Z M224.850532,409.599604 C225.293989,409.876765 225.746678,410.043058 226.208612,410.09849 C226.541204,409.507215 226.707498,408.962141 226.707498,408.463252 C226.707498,407.964363 226.578159,407.511674 226.319475,407.105172 C225.691245,408.02904 225.201602,408.860509 224.850532,409.599604 Z M224.739668,411.567434 C225.053784,411.567434 225.432564,411.262562 225.876021,410.652809 C225.432564,410.652809 224.989114,410.532708 224.545657,410.292502 C224.45327,410.606617 224.407077,410.837581 224.407077,410.9854 C224.407077,411.373424 224.51794,411.567434 224.739668,411.567434 Z M238.320465,407.853502 C238.449807,407.761115 238.569908,407.714922 238.680772,407.714922 C238.791636,407.714922 238.847068,407.779592 238.847068,407.908933 L238.847068,407.964365 C236.925421,409.553419 235.327153,410.745191 234.052215,411.539718 C232.777276,412.334245 231.622458,412.731502 230.587726,412.731502 C229.756244,412.731502 229.34051,412.325006 229.34051,411.512002 C229.34051,410.310973 229.950254,409.077627 231.16976,407.811928 C232.389266,406.546228 233.414745,405.913388 234.246226,405.913388 C234.70816,405.913388 234.939124,406.172067 234.939124,406.689433 C234.846737,407.705688 233.387047,409.072993 230.56001,410.791388 L230.56001,411.068547 C230.56001,411.6783 230.87874,411.983172 231.516209,411.983172 C232.153678,411.983172 232.84195,411.770686 233.581044,411.345707 C235.022279,410.495748 236.371106,409.5257 237.627567,408.435536 L238.320465,407.853502 Z M233.525612,406.772581 C233.11911,406.772581 232.597133,407.114407 231.959663,407.79807 C231.322194,408.481732 230.892602,409.25777 230.670874,410.126206 C231.557787,409.590363 232.306109,409.022192 232.915862,408.421678 C233.525616,407.821163 233.830488,407.39619 233.830488,407.146746 C233.830488,406.897301 233.728864,406.772581 233.525612,406.772581 Z M244.473398,407.853502 C244.602739,407.761115 244.72284,407.714922 244.833705,407.714922 C244.944569,407.714922 245,407.779592 245,407.908933 L245,407.964365 C243.614197,409.073007 242.246893,410.112344 240.898045,411.082405 C239.549197,412.052467 238.560673,412.537491 237.932442,412.537491 C237.470508,412.537491 237.239545,412.28805 237.239545,411.789161 C237.239545,411.290272 237.46127,410.791391 237.904727,410.292502 C238.348183,409.793613 238.787014,409.359401 239.221232,408.989854 C239.65545,408.620307 239.872556,408.375485 239.872556,408.255382 C239.872556,408.135279 239.803267,407.996701 239.664687,407.839644 C239.526107,407.682586 239.410625,407.576343 239.318238,407.520911 C239.004123,407.835026 238.32047,408.407816 237.267261,409.239297 L237.156397,408.823559 C238.320471,407.89969 238.994885,407.280708 239.179659,406.966592 L239.179659,406.717149 C239.179659,406.255215 239.225851,405.941105 239.318238,405.774808 C239.410625,405.608512 239.63235,405.377548 239.98342,405.08191 C240.33449,404.786273 240.574692,404.638456 240.704034,404.638456 C240.833375,404.638456 240.948857,404.684649 241.050483,404.777035 C241.152108,404.869422 241.20292,404.961808 241.20292,405.054195 C241.20292,405.146581 241.170585,405.252825 241.105914,405.372927 C241.041244,405.49303 240.976574,405.594654 240.911903,405.677803 C240.847232,405.760951 240.759466,405.862575 240.648602,405.982678 C240.537738,406.10278 240.468449,406.185927 240.440732,406.232121 C240.413016,406.278314 240.385301,406.356842 240.357585,406.467706 C240.329869,406.57857 240.269818,406.670956 240.177431,406.744865 C240.085044,406.818775 240.038852,406.91116 240.038852,407.022024 C240.038852,407.132888 240.11276,407.37771 240.260579,407.756496 C240.408398,408.135282 240.482306,408.412438 240.482306,408.587973 C240.482306,408.763508 240.14048,409.179243 239.456818,409.835189 C238.773155,410.491136 238.431329,411.022352 238.431329,411.428854 C238.431329,411.650583 238.532953,411.761445 238.736204,411.761445 C238.994887,411.761445 239.475291,411.530482 240.177431,411.068547 L240.510022,410.84682 C241.711051,410.015339 242.838154,409.174631 243.891364,408.324672 L244.473398,407.853502 Z" id="Simon-Weber" fill="#79797B"></path>
        </g>
    </g>
</svg>