<?xml version="1.0" encoding="UTF-8"?>
<svg width="603px" height="216px" viewBox="0 0 603 216" version="1.1" xmlns="http://www.w3.org/2000/svg" xmlns:xlink="http://www.w3.org/1999/xlink">
    <!-- Generator: Sketch 44.1 (41455) - http://www.bohemiancoding.com/sketch -->
    <title>typo02</title>
    <desc>Created with Sketch.</desc>
    <defs></defs>
    <g id="Typo" stroke="none" stroke-width="1" fill="none" fill-rule="evenodd" stroke-linecap="square">
        <g id="02" transform="translate(2.000000, 0.000000)">
            <g id="Group-2">
                <path d="M1.51770658,3.03541315 L120.979201,3.03541315" id="Line" stroke="#979797" stroke-width="6"></path>
                <path d="M0.505902192,30.3541315 L185.162974,30.3541315" id="Line" stroke="#D7D9D9" stroke-width="4"></path>
                <path d="M0.505902192,45.1939292 L185.162974,45.1939292" id="Line" stroke="#D7D9D9" stroke-width="4"></path>
                <path d="M0.505902192,60.0337268 L185.162974,60.0337268" id="Line" stroke="#D7D9D9" stroke-width="4"></path>
                <path d="M0.505902192,74.8735245 L77.9684326,74.8735245" id="Line" stroke="#D7D9D9" stroke-width="4"></path>
            </g>
            <g id="Group-2" transform="translate(207.419899, 0.000000)">
                <path d="M1.51770658,3.03541315 L120.979201,3.03541315" id="Line" stroke="#979797" stroke-width="6"></path>
                <path d="M0.505902192,30.3541315 L185.162974,30.3541315" id="Line" stroke="#D7D9D9" stroke-width="4"></path>
                <path d="M0.505902192,45.1939292 L185.162974,45.1939292" id="Line" stroke="#D7D9D9" stroke-width="4"></path>
                <path d="M0.505902192,60.0337268 L185.162974,60.0337268" id="Line" stroke="#D7D9D9" stroke-width="4"></path>
                <path d="M0.505902192,74.8735245 L77.9684326,74.8735245" id="Line" stroke="#D7D9D9" stroke-width="4"></path>
            </g>
            <g id="Group-2" transform="translate(413.827993, 0.000000)">
                <path d="M1.51770658,3.03541315 L120.979201,3.03541315" id="Line" stroke="#979797" stroke-width="6"></path>
                <path d="M0.505902192,30.3541315 L185.162974,30.3541315" id="Line" stroke="#D7D9D9" stroke-width="4"></path>
                <path d="M0.505902192,45.1939292 L185.162974,45.1939292" id="Line" stroke="#D7D9D9" stroke-width="4"></path>
                <path d="M0.505902192,60.0337268 L185.162974,60.0337268" id="Line" stroke="#D7D9D9" stroke-width="4"></path>
                <path d="M0.505902192,74.8735245 L77.9684326,74.8735245" id="Line" stroke="#D7D9D9" stroke-width="4"></path>
            </g>
            <g id="Group-2" transform="translate(0.000000, 138.617201)">
                <path d="M1.51770658,3.03541315 L120.979201,3.03541315" id="Line" stroke="#979797" stroke-width="6"></path>
                <path d="M0.505902192,30.3541315 L185.162974,30.3541315" id="Line" stroke="#D7D9D9" stroke-width="4"></path>
                <path d="M0.505902192,45.1939292 L185.162974,45.1939292" id="Line" stroke="#D7D9D9" stroke-width="4"></path>
                <path d="M0.505902192,60.0337268 L185.162974,60.0337268" id="Line" stroke="#D7D9D9" stroke-width="4"></path>
                <path d="M0.505902192,74.8735245 L77.9684326,74.8735245" id="Line" stroke="#D7D9D9" stroke-width="4"></path>
            </g>
            <g id="Group-2" transform="translate(207.419899, 138.617201)">
                <path d="M1.51770658,3.03541315 L120.979201,3.03541315" id="Line" stroke="#979797" stroke-width="6"></path>
                <path d="M0.505902192,30.3541315 L185.162974,30.3541315" id="Line" stroke="#D7D9D9" stroke-width="4"></path>
                <path d="M0.505902192,45.1939292 L185.162974,45.1939292" id="Line" stroke="#D7D9D9" stroke-width="4"></path>
                <path d="M0.505902192,60.0337268 L185.162974,60.0337268" id="Line" stroke="#D7D9D9" stroke-width="4"></path>
                <path d="M0.505902192,74.8735245 L77.9684326,74.8735245" id="Line" stroke="#D7D9D9" stroke-width="4"></path>
            </g>
            <g id="Group-2" transform="translate(413.827993, 138.617201)">
                <path d="M1.51770658,3.03541315 L120.979201,3.03541315" id="Line" stroke="#979797" stroke-width="6"></path>
                <path d="M0.505902192,30.3541315 L185.162974,30.3541315" id="Line" stroke="#D7D9D9" stroke-width="4"></path>
                <path d="M0.505902192,45.1939292 L185.162974,45.1939292" id="Line" stroke="#D7D9D9" stroke-width="4"></path>
                <path d="M0.505902192,60.0337268 L185.162974,60.0337268" id="Line" stroke="#D7D9D9" stroke-width="4"></path>
                <path d="M0.505902192,74.8735245 L77.9684326,74.8735245" id="Line" stroke="#D7D9D9" stroke-width="4"></path>
            </g>
        </g>
    </g>
</svg>