<?xml version="1.0" encoding="UTF-8"?>
<svg width="600px" height="455px" viewBox="0 0 600 455" version="1.1" xmlns="http://www.w3.org/2000/svg" xmlns:xlink="http://www.w3.org/1999/xlink">
    <!-- Generator: Sketch 44.1 (41455) - http://www.bohemiancoding.com/sketch -->
    <title>typo11</title>
    <desc>Created with Sketch.</desc>
    <defs></defs>
    <g id="Typo" stroke="none" stroke-width="1" fill="none" fill-rule="evenodd">
        <g id="11">
            <rect id="Rectangle-7" fill="#FFFFFF" x="0" y="0" width="600" height="455"></rect>
            <rect id="Rectangle-4" fill="#8F8F91" x="257" y="278" width="88" height="88"></rect>
            <path d="M286.631262,335.677651 C283.756777,315.585368 288.071125,305.437279 299.574308,305.233382 C316.829081,304.927538 313.936784,331.564043 313.299854,335.677651" id="Path-5" stroke="#FFFFFF"></path>
            <path d="M278.153846,347.599091 C278.153846,340.539181 282.666259,337.341125 287.024335,335.3254 C289.929718,333.981583 291.826909,333.640612 292.715906,334.302487 C293.030121,336.393376 293.409497,337.860539 293.854036,338.703977 C295.000206,340.878645 296.638219,341.97538 298.768075,341.994182 C303.82149,342.038792 306.311266,337.422526 306.311266,333.20686 C306.315548,333.007006 308.037792,333.372215 311.477998,334.302487 C318.690869,340.029938 322.281401,344.355541 322.249592,347.279295" id="Path-6" stroke="#FFFFFF"></path>
            <path d="M295.655326,315.384615 C298.063286,318.45023 300.499844,320.608473 302.964999,321.859343 C306.662731,323.735649 307.915648,326.479624 307.643594,328.765006 C307.37154,331.050388 301.852009,338.818366 299.834772,338.916062 C297.817535,339.013759 290.443175,333.261717 290.863413,328.876085 C291.143572,325.952331 292.740876,321.455175 295.655326,315.384615 Z" id="Path-7" stroke="#FFFFFF"></path>
            <circle id="Oval-2" stroke="#FFFFFF" cx="301" cy="323" r="33"></circle>
            <path d="M243.896,46.328 L239.6,46.328 L239.6,43.352 L251.744,43.352 L251.744,46.328 L247.448,46.328 L247.448,59 L243.896,59 L243.896,46.328 Z M251.384,53.048 C251.384,52.0879952 251.543998,51.2200039 251.864,50.444 C252.184002,49.6679961 252.603997,49.0120027 253.124,48.476 C253.644003,47.9399973 254.239997,47.5280014 254.912,47.24 C255.584003,46.9519986 256.279996,46.808 257,46.808 C257.848004,46.808 258.587997,46.9519986 259.22,47.24 C259.852003,47.5280014 260.379998,47.9279974 260.804,48.44 C261.228002,48.9520026 261.543999,49.5559965 261.752,50.252 C261.960001,50.9480035 262.064,51.7039959 262.064,52.52 C262.064,52.8400016 262.048,53.1319987 262.016,53.396 C261.984,53.6600013 261.952,53.8639993 261.92,54.008 L254.792,54.008 C254.952001,54.9200046 255.307997,55.579998 255.86,55.988 C256.412003,56.396002 257.087996,56.6 257.888,56.6 C258.736004,56.6 259.591996,56.3360026 260.456,55.808 L261.632,57.944 C261.023997,58.3600021 260.348004,58.6879988 259.604,58.928 C258.859996,59.1680012 258.128004,59.288 257.408,59.288 C256.559996,59.288 255.768004,59.1480014 255.032,58.868 C254.295996,58.5879986 253.656003,58.1800027 253.112,57.644 C252.567997,57.1079973 252.144002,56.4560038 251.84,55.688 C251.535998,54.9199962 251.384,54.040005 251.384,53.048 Z M259.064,51.824 C259.064,51.1359966 258.912002,50.5760022 258.608,50.144 C258.303998,49.7119978 257.792004,49.496 257.072,49.496 C256.511997,49.496 256.020002,49.6839981 255.596,50.06 C255.171998,50.4360019 254.896001,51.023996 254.768,51.824 L259.064,51.824 Z M266.552,52.808 L263.12,47.096 L266.912,47.096 L267.968,49.016 C268.128001,49.3520017 268.291999,49.6919983 268.46,50.036 C268.628001,50.3800017 268.799999,50.7199983 268.976,51.056 L269.072,51.056 C269.200001,50.7199983 269.335999,50.3800017 269.48,50.036 C269.624001,49.6919983 269.759999,49.3520017 269.888,49.016 L270.704,47.096 L274.352,47.096 L270.896,53.216 L274.568,59 L270.776,59 L269.624,57.032 C269.431999,56.6959983 269.244001,56.3520018 269.06,56 C268.875999,55.6479982 268.688001,55.3040017 268.496,54.968 L268.4,54.968 C268.255999,55.3040017 268.104001,55.6439983 267.944,55.988 C267.783999,56.3320017 267.632001,56.6799982 267.488,57.032 L266.552,59 L262.904,59 L266.552,52.808 Z M276.944,49.856 L275.312,49.856 L275.312,47.24 L277.136,47.096 L277.544,43.928 L280.472,43.928 L280.472,47.096 L283.328,47.096 L283.328,49.856 L280.472,49.856 L280.472,54.632 C280.472,55.3040034 280.611999,55.7879985 280.892,56.084 C281.172001,56.3800015 281.543998,56.528 282.008,56.528 C282.200001,56.528 282.395999,56.5040002 282.596,56.456 C282.796001,56.4079998 282.975999,56.3520003 283.136,56.288 L283.688,58.856 C283.367998,58.9520005 282.992002,59.0479995 282.56,59.144 C282.127998,59.2400005 281.624003,59.288 281.048,59.288 C280.311996,59.288 279.684003,59.1760011 279.164,58.952 C278.643997,58.7279989 278.220002,58.416002 277.892,58.016 C277.563998,57.615998 277.324001,57.1320028 277.172,56.564 C277.019999,55.9959972 276.944,55.3680034 276.944,54.68 L276.944,49.856 Z M291.944,54.608 C292.504003,55.0880024 293.123997,55.4799985 293.804,55.784 C294.484003,56.0880015 295.151997,56.24 295.808,56.24 C296.544004,56.24 297.091998,56.1040014 297.452,55.832 C297.812002,55.5599986 297.992,55.1920023 297.992,54.728 C297.992,54.4879988 297.940001,54.2800009 297.836,54.104 C297.731999,53.9279991 297.580001,53.7720007 297.38,53.636 C297.179999,53.4999993 296.940001,53.3720006 296.66,53.252 L295.736,52.856 L293.696,51.992 C293.295998,51.8319992 292.908002,51.6240013 292.532,51.368 C292.155998,51.1119987 291.820001,50.8120017 291.524,50.468 C291.227999,50.1239983 290.992001,49.7240023 290.816,49.268 C290.639999,48.8119977 290.552,48.2960029 290.552,47.72 C290.552,47.0799968 290.687999,46.4760028 290.96,45.908 C291.232001,45.3399972 291.615998,44.8440021 292.112,44.42 C292.608002,43.9959979 293.195997,43.6640012 293.876,43.424 C294.556003,43.1839988 295.303996,43.064 296.12,43.064 C297.032005,43.064 297.931996,43.2399982 298.82,43.592 C299.708004,43.9440018 300.487997,44.4559966 301.16,45.128 L299.36,47.36 C298.847997,46.959998 298.336003,46.6520011 297.824,46.436 C297.311997,46.2199989 296.744003,46.112 296.12,46.112 C295.511997,46.112 295.028002,46.2359988 294.668,46.484 C294.307998,46.7320012 294.128,47.0799978 294.128,47.528 C294.128,47.7680012 294.187999,47.9719992 294.308,48.14 C294.428001,48.3080008 294.595999,48.4599993 294.812,48.596 C295.028001,48.7320007 295.279999,48.8599994 295.568,48.98 C295.856001,49.1000006 296.167998,49.2319993 296.504,49.376 L298.52,50.192 C299.480005,50.5760019 300.235997,51.1039966 300.788,51.776 C301.340003,52.4480034 301.616,53.3359945 301.616,54.44 C301.616,55.0960033 301.484001,55.7159971 301.22,56.3 C300.955999,56.8840029 300.572003,57.3959978 300.068,57.836 C299.563997,58.2760022 298.944004,58.6279987 298.208,58.892 C297.471996,59.1560013 296.640005,59.288 295.712,59.288 C294.687995,59.288 293.668005,59.1000019 292.652,58.724 C291.635995,58.3479981 290.728004,57.7840038 289.928,57.032 L291.944,54.608 Z M303.296,53.048 C303.296,52.0879952 303.455998,51.2200039 303.776,50.444 C304.096002,49.6679961 304.515997,49.0120027 305.036,48.476 C305.556003,47.9399973 306.151997,47.5280014 306.824,47.24 C307.496003,46.9519986 308.191996,46.808 308.912,46.808 C309.760004,46.808 310.499997,46.9519986 311.132,47.24 C311.764003,47.5280014 312.291998,47.9279974 312.716,48.44 C313.140002,48.9520026 313.455999,49.5559965 313.664,50.252 C313.872001,50.9480035 313.976,51.7039959 313.976,52.52 C313.976,52.8400016 313.96,53.1319987 313.928,53.396 C313.896,53.6600013 313.864,53.8639993 313.832,54.008 L306.704,54.008 C306.864001,54.9200046 307.219997,55.579998 307.772,55.988 C308.324003,56.396002 308.999996,56.6 309.8,56.6 C310.648004,56.6 311.503996,56.3360026 312.368,55.808 L313.544,57.944 C312.935997,58.3600021 312.260004,58.6879988 311.516,58.928 C310.771996,59.1680012 310.040004,59.288 309.32,59.288 C308.471996,59.288 307.680004,59.1480014 306.944,58.868 C306.207996,58.5879986 305.568003,58.1800027 305.024,57.644 C304.479997,57.1079973 304.056002,56.4560038 303.752,55.688 C303.447998,54.9199962 303.296,54.040005 303.296,53.048 Z M310.976,51.824 C310.976,51.1359966 310.824002,50.5760022 310.52,50.144 C310.215998,49.7119978 309.704004,49.496 308.984,49.496 C308.423997,49.496 307.932002,49.6839981 307.508,50.06 C307.083998,50.4360019 306.808001,51.023996 306.68,51.824 L310.976,51.824 Z M315.728,53.048 C315.728,52.055995 315.895998,51.1720039 316.232,50.396 C316.568002,49.6199961 317.019997,48.9680026 317.588,48.44 C318.156003,47.9119974 318.815996,47.5080014 319.568,47.228 C320.320004,46.9479986 321.103996,46.808 321.92,46.808 C322.656004,46.808 323.319997,46.9319988 323.912,47.18 C324.504003,47.4280012 324.999998,47.7599979 325.4,48.176 L323.792,50.36 C323.231997,49.8959977 322.680003,49.664 322.136,49.664 C321.271996,49.664 320.592002,49.967997 320.096,50.576 C319.599998,51.184003 319.352,52.0079948 319.352,53.048 C319.352,54.0880052 319.603997,54.911997 320.108,55.52 C320.612003,56.128003 321.247996,56.432 322.016,56.432 C322.448002,56.432 322.839998,56.3440009 323.192,56.168 C323.544002,55.9919991 323.863999,55.7920011 324.152,55.568 L325.568,57.8 C324.991997,58.3120026 324.352004,58.6879988 323.648,58.928 C322.943996,59.1680012 322.264003,59.288 321.608,59.288 C320.775996,59.288 320.004004,59.1480014 319.292,58.868 C318.579996,58.5879986 317.960003,58.1840026 317.432,57.656 C316.903997,57.1279974 316.488002,56.4760039 316.184,55.7 C315.879998,54.9239961 315.728,54.040005 315.728,53.048 Z M328.112,49.856 L326.48,49.856 L326.48,47.24 L328.304,47.096 L328.712,43.928 L331.64,43.928 L331.64,47.096 L334.496,47.096 L334.496,49.856 L331.64,49.856 L331.64,54.632 C331.64,55.3040034 331.779999,55.7879985 332.06,56.084 C332.340001,56.3800015 332.711998,56.528 333.176,56.528 C333.368001,56.528 333.563999,56.5040002 333.764,56.456 C333.964001,56.4079998 334.143999,56.3520003 334.304,56.288 L334.856,58.856 C334.535998,58.9520005 334.160002,59.0479995 333.728,59.144 C333.295998,59.2400005 332.792003,59.288 332.216,59.288 C331.479996,59.288 330.852003,59.1760011 330.332,58.952 C329.811997,58.7279989 329.388002,58.416002 329.06,58.016 C328.731998,57.615998 328.492001,57.1320028 328.34,56.564 C328.187999,55.9959972 328.112,55.3680034 328.112,54.68 L328.112,49.856 Z M338.576,45.344 C337.983997,45.344 337.496002,45.1720017 337.112,44.828 C336.727998,44.4839983 336.536,44.0400027 336.536,43.496 C336.536,42.9519973 336.727998,42.5120017 337.112,42.176 C337.496002,41.8399983 337.983997,41.672 338.576,41.672 C339.184003,41.672 339.675998,41.8399983 340.052,42.176 C340.428002,42.5120017 340.616,42.9519973 340.616,43.496 C340.616,44.0400027 340.428002,44.4839983 340.052,44.828 C339.675998,45.1720017 339.184003,45.344 338.576,45.344 Z M336.824,47.096 L340.352,47.096 L340.352,59 L336.824,59 L336.824,47.096 Z M342.752,53.048 C342.752,52.055995 342.911998,51.1720039 343.232,50.396 C343.552002,49.6199961 343.979997,48.9680026 344.516,48.44 C345.052003,47.9119974 345.671996,47.5080014 346.376,47.228 C347.080004,46.9479986 347.807996,46.808 348.56,46.808 C349.312004,46.808 350.035997,46.9479986 350.732,47.228 C351.428003,47.5080014 352.043997,47.9119974 352.58,48.44 C353.116003,48.9680026 353.543998,49.6199961 353.864,50.396 C354.184002,51.1720039 354.344,52.055995 354.344,53.048 C354.344,54.040005 354.184002,54.9239961 353.864,55.7 C353.543998,56.4760039 353.116003,57.1279974 352.58,57.656 C352.043997,58.1840026 351.428003,58.5879986 350.732,58.868 C350.035997,59.1480014 349.312004,59.288 348.56,59.288 C347.807996,59.288 347.080004,59.1480014 346.376,58.868 C345.671996,58.5879986 345.052003,58.1840026 344.516,57.656 C343.979997,57.1279974 343.552002,56.4760039 343.232,55.7 C342.911998,54.9239961 342.752,54.040005 342.752,53.048 Z M346.376,53.048 C346.376,54.0880052 346.555998,54.911997 346.916,55.52 C347.276002,56.128003 347.823996,56.432 348.56,56.432 C349.280004,56.432 349.823998,56.128003 350.192,55.52 C350.560002,54.911997 350.744,54.0880052 350.744,53.048 C350.744,52.0079948 350.560002,51.184003 350.192,50.576 C349.823998,49.967997 349.280004,49.664 348.56,49.664 C347.823996,49.664 347.276002,49.967997 346.916,50.576 C346.555998,51.184003 346.376,52.0079948 346.376,53.048 Z M356.768,47.096 L359.648,47.096 L359.888,48.608 L359.984,48.608 C360.496003,48.1279976 361.055997,47.7080018 361.664,47.348 C362.272003,46.9879982 362.983996,46.808 363.8,46.808 C365.096006,46.808 366.035997,47.2319958 366.62,48.08 C367.204003,48.9280042 367.496,50.1039925 367.496,51.608 L367.496,59 L363.968,59 L363.968,52.064 C363.968,51.1999957 363.852001,50.6080016 363.62,50.288 C363.387999,49.9679984 363.016003,49.808 362.504,49.808 C362.055998,49.808 361.672002,49.907999 361.352,50.108 C361.031998,50.308001 360.680002,50.5919982 360.296,50.96 L360.296,59 L356.768,59 L356.768,47.096 Z" id="Text-Section" fill="#79797B"></path>
            <path d="M244.5,75.5 L355.5,75.5" id="Line" stroke="#979797" stroke-width="5" stroke-linecap="square"></path>
            <path d="M282.5,94.5 L319.513511,94.5" id="Line" stroke="#4990E2" stroke-linecap="square"></path>
            <path d="M160.232,113.568 L164.04,113.568 C164.605336,113.568 165.135998,113.623999 165.632,113.736 C166.128002,113.848001 166.559998,114.034665 166.928,114.296 C167.296002,114.557335 167.586666,114.903998 167.8,115.336 C168.013334,115.768002 168.12,116.298664 168.12,116.928 C168.12,117.536003 168.010668,118.063998 167.792,118.512 C167.573332,118.960002 167.277335,119.327999 166.904,119.616 C166.530665,119.904001 166.098669,120.117333 165.608,120.256 C165.117331,120.394667 164.594669,120.464 164.04,120.464 L162.584,120.464 L162.584,124 L160.232,124 L160.232,113.568 Z M163.896,118.592 C165.176006,118.592 165.816,118.037339 165.816,116.928 C165.816,116.383997 165.653335,116.000001 165.328,115.776 C165.002665,115.551999 164.525336,115.44 163.896,115.44 L162.584,115.44 L162.584,118.592 L163.896,118.592 Z M172.28,118.368 L173.496,118.368 C174.11467,118.368 174.586665,118.237335 174.912,117.976 C175.237335,117.714665 175.4,117.328003 175.4,116.816 C175.4,116.303997 175.237335,115.946668 174.912,115.744 C174.586665,115.541332 174.11467,115.44 173.496,115.44 L172.28,115.44 L172.28,118.368 Z M175.576,124 L173.576,120.24 L172.28,120.24 L172.28,124 L169.928,124 L169.928,113.568 L173.688,113.568 C174.242669,113.568 174.762664,113.621333 175.248,113.728 C175.733336,113.834667 176.157332,114.013332 176.52,114.264 C176.882668,114.514668 177.170666,114.847998 177.384,115.264 C177.597334,115.680002 177.704,116.19733 177.704,116.816 C177.704,117.584004 177.536002,118.215998 177.2,118.712 C176.863998,119.208002 176.413336,119.578665 175.848,119.824 L178.216,124 L175.576,124 Z M184.024,124.192 C183.319996,124.192 182.677336,124.066668 182.096,123.816 C181.514664,123.565332 181.016002,123.205336 180.6,122.736 C180.183998,122.266664 179.861334,121.696003 179.632,121.024 C179.402666,120.351997 179.288,119.589338 179.288,118.736 C179.288,117.882662 179.402666,117.12267 179.632,116.456 C179.861334,115.78933 180.183998,115.229336 180.6,114.776 C181.016002,114.322664 181.514664,113.976001 182.096,113.736 C182.677336,113.495999 183.319996,113.376 184.024,113.376 C184.728004,113.376 185.370664,113.495999 185.952,113.736 C186.533336,113.976001 187.031998,114.325331 187.448,114.784 C187.864002,115.242669 188.186666,115.80533 188.416,116.472 C188.645334,117.13867 188.76,117.893329 188.76,118.736 C188.76,119.589338 188.645334,120.351997 188.416,121.024 C188.186666,121.696003 187.864002,122.266664 187.448,122.736 C187.031998,123.205336 186.533336,123.565332 185.952,123.816 C185.370664,124.066668 184.728004,124.192 184.024,124.192 Z M184.024,122.16 C184.73867,122.16 185.303998,121.853336 185.72,121.24 C186.136002,120.626664 186.344,119.792005 186.344,118.736 C186.344,117.690661 186.136002,116.87467 185.72,116.288 C185.303998,115.70133 184.73867,115.408 184.024,115.408 C183.30933,115.408 182.744002,115.70133 182.328,116.288 C181.911998,116.87467 181.704,117.690661 181.704,118.736 C181.704,119.792005 181.911998,120.626664 182.328,121.24 C182.744002,121.853336 183.30933,122.16 184.024,122.16 Z M189.224,113.568 L191.72,113.568 L192.968,118.432 C193.128001,119.008003 193.269333,119.565331 193.392,120.104 C193.514667,120.642669 193.655999,121.199997 193.816,121.776 L193.88,121.776 C194.029334,121.199997 194.167999,120.642669 194.296,120.104 C194.424001,119.565331 194.562666,119.008003 194.712,118.432 L195.944,113.568 L198.344,113.568 L195.208,124 L192.376,124 L189.224,113.568 Z M199.464,113.568 L201.816,113.568 L201.816,124 L199.464,124 L199.464,113.568 Z M204.28,113.568 L207.224,113.568 C208.024004,113.568 208.743997,113.669332 209.384,113.872 C210.024003,114.074668 210.573331,114.386665 211.032,114.808 C211.490669,115.229335 211.842665,115.76533 212.088,116.416 C212.333335,117.06667 212.456,117.839996 212.456,118.736 C212.456,119.632004 212.333335,120.410663 212.088,121.072 C211.842665,121.733337 211.496002,122.279998 211.048,122.712 C210.599998,123.144002 210.064003,123.466666 209.44,123.68 C208.815997,123.893334 208.120004,124 207.352,124 L204.28,124 L204.28,113.568 Z M207.08,122.096 C207.528002,122.096 207.933332,122.037334 208.296,121.92 C208.658668,121.802666 208.967999,121.613335 209.224,121.352 C209.480001,121.090665 209.679999,120.746669 209.824,120.32 C209.968001,119.893331 210.04,119.365336 210.04,118.736 C210.04,118.11733 209.968001,117.597335 209.824,117.176 C209.679999,116.754665 209.480001,116.418668 209.224,116.168 C208.967999,115.917332 208.658668,115.738667 208.296,115.632 C207.933332,115.525333 207.528002,115.472 207.08,115.472 L206.632,115.472 L206.632,122.096 L207.08,122.096 Z M214.44,113.568 L216.792,113.568 L216.792,124 L214.44,124 L214.44,113.568 Z M219.256,113.568 L221.672,113.568 L224.392,118.752 L225.416,121.056 L225.48,121.056 C225.426666,120.501331 225.365334,119.88267 225.296,119.2 C225.226666,118.51733 225.192,117.86667 225.192,117.248 L225.192,113.568 L227.432,113.568 L227.432,124 L225.016,124 L222.296,118.8 L221.272,116.528 L221.208,116.528 C221.261334,117.104003 221.322666,117.722663 221.392,118.384 C221.461334,119.045337 221.496,119.68533 221.496,120.304 L221.496,124 L219.256,124 L219.256,113.568 Z M229.4,118.848 C229.4,117.983996 229.535999,117.213337 229.808,116.536 C230.080001,115.858663 230.447998,115.285336 230.912,114.816 C231.376002,114.346664 231.919997,113.989335 232.544,113.744 C233.168003,113.498665 233.831996,113.376 234.536,113.376 C235.272004,113.376 235.909331,113.514665 236.448,113.792 C236.986669,114.069335 237.426665,114.383998 237.768,114.736 L236.472,116.192 C236.215999,115.946665 235.946668,115.754667 235.664,115.616 C235.381332,115.477333 235.016002,115.408 234.568,115.408 C234.162665,115.408 233.792002,115.485333 233.456,115.64 C233.119998,115.794667 232.829335,116.015999 232.584,116.304 C232.338665,116.592001 232.149334,116.943998 232.016,117.36 C231.882666,117.776002 231.816,118.245331 231.816,118.768 C231.816,119.845339 232.058664,120.679997 232.544,121.272 C233.029336,121.864003 233.762662,122.16 234.744,122.16 C234.957334,122.16 235.165332,122.133334 235.368,122.08 C235.570668,122.026666 235.735999,121.946667 235.864,121.84 L235.864,120.048 L234.136,120.048 L234.136,118.128 L237.944,118.128 L237.944,122.928 C237.570665,123.280002 237.080003,123.578665 236.472,123.824 C235.863997,124.069335 235.192004,124.192 234.456,124.192 C233.751996,124.192 233.093336,124.077334 232.48,123.848 C231.866664,123.618666 231.330669,123.280002 230.872,122.832 C230.413331,122.383998 230.053335,121.82667 229.792,121.16 C229.530665,120.49333 229.4,119.722671 229.4,118.848 Z M245.352,118.736 C245.352,119.856006 245.559998,120.72533 245.976,121.344 C246.392002,121.96267 246.95733,122.272 247.672,122.272 C248.38667,122.272 248.951998,121.96267 249.368,121.344 C249.784002,120.72533 249.992,119.856006 249.992,118.736 C249.992,117.690661 249.784002,116.87467 249.368,116.288 C248.951998,115.70133 248.38667,115.408 247.672,115.408 C246.95733,115.408 246.392002,115.70133 245.976,116.288 C245.559998,116.87467 245.352,117.690661 245.352,118.736 Z M252.952,126.512 C252.759999,126.608 252.506668,126.688 252.192,126.752 C251.877332,126.816 251.517335,126.848 251.112,126.848 C250.002661,126.848 249.06667,126.592003 248.304,126.08 C247.54133,125.567997 246.973335,124.901337 246.6,124.08 C246.045331,123.962666 245.541336,123.757335 245.088,123.464 C244.634664,123.170665 244.248002,122.794669 243.928,122.336 C243.607998,121.877331 243.362668,121.34667 243.192,120.744 C243.021332,120.14133 242.936,119.472004 242.936,118.736 C242.936,117.882662 243.050666,117.12267 243.28,116.456 C243.509334,115.78933 243.831998,115.229336 244.248,114.776 C244.664002,114.322664 245.162664,113.976001 245.744,113.736 C246.325336,113.495999 246.967996,113.376 247.672,113.376 C248.376004,113.376 249.018664,113.495999 249.6,113.736 C250.181336,113.976001 250.679998,114.325331 251.096,114.784 C251.512002,115.242669 251.834666,115.80533 252.064,116.472 C252.293334,117.13867 252.408,117.893329 252.408,118.736 C252.408,120.144007 252.109336,121.301329 251.512,122.208 C250.914664,123.114671 250.109338,123.711999 249.096,124 C249.341335,124.362668 249.671998,124.615999 250.088,124.76 C250.504002,124.904001 250.935998,124.976 251.384,124.976 C251.608001,124.976 251.818666,124.957334 252.016,124.92 C252.213334,124.882666 252.386666,124.837334 252.536,124.784 L252.952,126.512 Z M254.312,113.568 L256.68,113.568 L256.68,119.408 C256.68,120.432005 256.834665,121.146665 257.144,121.552 C257.453335,121.957335 257.90133,122.16 258.488,122.16 C259.07467,122.16 259.527998,121.957335 259.848,121.552 C260.168002,121.146665 260.328,120.432005 260.328,119.408 L260.328,113.568 L262.6,113.568 L262.6,119.168 C262.6,120.917342 262.25067,122.191996 261.552,122.992 C260.85333,123.792004 259.832007,124.192 258.488,124.192 C257.133327,124.192 256.09867,123.792004 255.384,122.992 C254.66933,122.191996 254.312,120.917342 254.312,119.168 L254.312,113.568 Z M269.24,119.68 L269,118.72 C268.850666,118.197331 268.706667,117.64267 268.568,117.056 C268.429333,116.46933 268.290667,115.904003 268.152,115.36 L268.088,115.36 C267.959999,115.914669 267.829334,116.482664 267.696,117.064 C267.562666,117.645336 267.421334,118.197331 267.272,118.72 L267.016,119.68 L269.24,119.68 Z M269.72,121.52 L266.536,121.52 L265.896,124 L263.496,124 L266.76,113.568 L269.592,113.568 L272.856,124 L270.36,124 L269.72,121.52 Z M273.992,113.568 L276.344,113.568 L276.344,122.016 L280.472,122.016 L280.472,124 L273.992,124 L273.992,113.568 Z M282.28,113.568 L284.632,113.568 L284.632,124 L282.28,124 L282.28,113.568 Z M289.128,115.552 L286.264,115.552 L286.264,113.568 L294.36,113.568 L294.36,115.552 L291.496,115.552 L291.496,124 L289.128,124 L289.128,115.552 Z M297.496,120.288 L294.344,113.568 L296.872,113.568 L297.8,115.968 C297.949334,116.362669 298.090666,116.743998 298.224,117.112 C298.357334,117.480002 298.498666,117.866665 298.648,118.272 L298.712,118.272 C298.861334,117.866665 299.007999,117.480002 299.152,117.112 C299.296001,116.743998 299.442666,116.362669 299.592,115.968 L300.536,113.568 L303,113.568 L299.848,120.288 L299.848,124 L297.496,124 L297.496,120.288 Z M308.104,121.072 C308.477335,121.392002 308.890664,121.653332 309.344,121.856 C309.797336,122.058668 310.242664,122.16 310.68,122.16 C311.170669,122.16 311.535999,122.069334 311.776,121.888 C312.016001,121.706666 312.136,121.461335 312.136,121.152 C312.136,120.991999 312.101334,120.853334 312.032,120.736 C311.962666,120.618666 311.861334,120.514667 311.728,120.424 C311.594666,120.333333 311.434668,120.248 311.248,120.168 L310.632,119.904 L309.272,119.328 C309.005332,119.221333 308.746668,119.082668 308.496,118.912 C308.245332,118.741332 308.021334,118.541334 307.824,118.312 C307.626666,118.082666 307.469334,117.816002 307.352,117.512 C307.234666,117.207998 307.176,116.864002 307.176,116.48 C307.176,116.053331 307.266666,115.650669 307.448,115.272 C307.629334,114.893331 307.885332,114.562668 308.216,114.28 C308.546668,113.997332 308.938664,113.776001 309.392,113.616 C309.845336,113.455999 310.343997,113.376 310.888,113.376 C311.496003,113.376 312.095997,113.493332 312.688,113.728 C313.280003,113.962668 313.799998,114.303998 314.248,114.752 L313.048,116.24 C312.706665,115.973332 312.365335,115.768001 312.024,115.624 C311.682665,115.479999 311.304002,115.408 310.888,115.408 C310.482665,115.408 310.160001,115.490666 309.92,115.656 C309.679999,115.821334 309.56,116.053332 309.56,116.352 C309.56,116.512001 309.6,116.647999 309.68,116.76 C309.76,116.872001 309.871999,116.973333 310.016,117.064 C310.160001,117.154667 310.327999,117.24 310.52,117.32 C310.712001,117.4 310.919999,117.488 311.144,117.584 L312.488,118.128 C313.128003,118.384001 313.631998,118.735998 314,119.184 C314.368002,119.632002 314.552,120.223996 314.552,120.96 C314.552,121.397336 314.464001,121.810665 314.288,122.2 C314.111999,122.589335 313.856002,122.930665 313.52,123.224 C313.183998,123.517335 312.770669,123.751999 312.28,123.928 C311.789331,124.104001 311.23467,124.192 310.616,124.192 C309.93333,124.192 309.253337,124.066668 308.576,123.816 C307.898663,123.565332 307.293336,123.189336 306.76,122.688 L308.104,121.072 Z M316.328,113.568 L322.856,113.568 L322.856,115.552 L318.68,115.552 L318.68,117.648 L322.232,117.648 L322.232,119.616 L318.68,119.616 L318.68,122.016 L323.016,122.016 L323.016,124 L316.328,124 L316.328,113.568 Z M327.448,118.368 L328.664,118.368 C329.28267,118.368 329.754665,118.237335 330.08,117.976 C330.405335,117.714665 330.568,117.328003 330.568,116.816 C330.568,116.303997 330.405335,115.946668 330.08,115.744 C329.754665,115.541332 329.28267,115.44 328.664,115.44 L327.448,115.44 L327.448,118.368 Z M330.744,124 L328.744,120.24 L327.448,120.24 L327.448,124 L325.096,124 L325.096,113.568 L328.856,113.568 C329.410669,113.568 329.930664,113.621333 330.416,113.728 C330.901336,113.834667 331.325332,114.013332 331.688,114.264 C332.050668,114.514668 332.338666,114.847998 332.552,115.264 C332.765334,115.680002 332.872,116.19733 332.872,116.816 C332.872,117.584004 332.704002,118.215998 332.368,118.712 C332.031998,119.208002 331.581336,119.578665 331.016,119.824 L333.384,124 L330.744,124 Z M333.32,113.568 L335.816,113.568 L337.064,118.432 C337.224001,119.008003 337.365333,119.565331 337.488,120.104 C337.610667,120.642669 337.751999,121.199997 337.912,121.776 L337.976,121.776 C338.125334,121.199997 338.263999,120.642669 338.392,120.104 C338.520001,119.565331 338.658666,119.008003 338.808,118.432 L340.04,113.568 L342.44,113.568 L339.304,124 L336.472,124 L333.32,113.568 Z M343.56,113.568 L345.912,113.568 L345.912,124 L343.56,124 L343.56,113.568 Z M347.88,118.848 C347.88,117.983996 348.013332,117.213337 348.28,116.536 C348.546668,115.858663 348.906664,115.285336 349.36,114.816 C349.813336,114.346664 350.34133,113.989335 350.944,113.744 C351.54667,113.498665 352.183997,113.376 352.856,113.376 C353.50667,113.376 354.095997,113.511999 354.624,113.784 C355.152003,114.056001 355.591998,114.373332 355.944,114.736 L354.648,116.192 C354.381332,115.946665 354.112001,115.754667 353.84,115.616 C353.567999,115.477333 353.250668,115.408 352.888,115.408 C352.525332,115.408 352.186668,115.485333 351.872,115.64 C351.557332,115.794667 351.282668,116.015999 351.048,116.304 C350.813332,116.592001 350.629334,116.943998 350.496,117.36 C350.362666,117.776002 350.296,118.245331 350.296,118.768 C350.296,119.845339 350.525331,120.679997 350.984,121.272 C351.442669,121.864003 352.055996,122.16 352.824,122.16 C353.250669,122.16 353.623998,122.074668 353.944,121.904 C354.264002,121.733332 354.551999,121.509335 354.808,121.232 L356.104,122.656 C355.666664,123.168003 355.168003,123.551999 354.608,123.808 C354.047997,124.064001 353.44267,124.192 352.792,124.192 C352.119997,124.192 351.485336,124.077334 350.888,123.848 C350.290664,123.618666 349.768002,123.280002 349.32,122.832 C348.871998,122.383998 348.520001,121.82667 348.264,121.16 C348.007999,120.49333 347.88,119.722671 347.88,118.848 Z M357.688,113.568 L364.216,113.568 L364.216,115.552 L360.04,115.552 L360.04,117.648 L363.592,117.648 L363.592,119.616 L360.04,119.616 L360.04,122.016 L364.376,122.016 L364.376,124 L357.688,124 L357.688,113.568 Z M367.128,121.072 C367.501335,121.392002 367.914664,121.653332 368.368,121.856 C368.821336,122.058668 369.266664,122.16 369.704,122.16 C370.194669,122.16 370.559999,122.069334 370.8,121.888 C371.040001,121.706666 371.16,121.461335 371.16,121.152 C371.16,120.991999 371.125334,120.853334 371.056,120.736 C370.986666,120.618666 370.885334,120.514667 370.752,120.424 C370.618666,120.333333 370.458668,120.248 370.272,120.168 L369.656,119.904 L368.296,119.328 C368.029332,119.221333 367.770668,119.082668 367.52,118.912 C367.269332,118.741332 367.045334,118.541334 366.848,118.312 C366.650666,118.082666 366.493334,117.816002 366.376,117.512 C366.258666,117.207998 366.2,116.864002 366.2,116.48 C366.2,116.053331 366.290666,115.650669 366.472,115.272 C366.653334,114.893331 366.909332,114.562668 367.24,114.28 C367.570668,113.997332 367.962664,113.776001 368.416,113.616 C368.869336,113.455999 369.367997,113.376 369.912,113.376 C370.520003,113.376 371.119997,113.493332 371.712,113.728 C372.304003,113.962668 372.823998,114.303998 373.272,114.752 L372.072,116.24 C371.730665,115.973332 371.389335,115.768001 371.048,115.624 C370.706665,115.479999 370.328002,115.408 369.912,115.408 C369.506665,115.408 369.184001,115.490666 368.944,115.656 C368.703999,115.821334 368.584,116.053332 368.584,116.352 C368.584,116.512001 368.624,116.647999 368.704,116.76 C368.784,116.872001 368.895999,116.973333 369.04,117.064 C369.184001,117.154667 369.351999,117.24 369.544,117.32 C369.736001,117.4 369.943999,117.488 370.168,117.584 L371.512,118.128 C372.152003,118.384001 372.655998,118.735998 373.024,119.184 C373.392002,119.632002 373.576,120.223996 373.576,120.96 C373.576,121.397336 373.488001,121.810665 373.312,122.2 C373.135999,122.589335 372.880002,122.930665 372.544,123.224 C372.207998,123.517335 371.794669,123.751999 371.304,123.928 C370.813331,124.104001 370.25867,124.192 369.64,124.192 C368.95733,124.192 368.277337,124.066668 367.6,123.816 C366.922663,123.565332 366.317336,123.189336 365.784,122.688 L367.128,121.072 Z M379.352,121.072 C379.725335,121.392002 380.138664,121.653332 380.592,121.856 C381.045336,122.058668 381.490664,122.16 381.928,122.16 C382.418669,122.16 382.783999,122.069334 383.024,121.888 C383.264001,121.706666 383.384,121.461335 383.384,121.152 C383.384,120.991999 383.349334,120.853334 383.28,120.736 C383.210666,120.618666 383.109334,120.514667 382.976,120.424 C382.842666,120.333333 382.682668,120.248 382.496,120.168 L381.88,119.904 L380.52,119.328 C380.253332,119.221333 379.994668,119.082668 379.744,118.912 C379.493332,118.741332 379.269334,118.541334 379.072,118.312 C378.874666,118.082666 378.717334,117.816002 378.6,117.512 C378.482666,117.207998 378.424,116.864002 378.424,116.48 C378.424,116.053331 378.514666,115.650669 378.696,115.272 C378.877334,114.893331 379.133332,114.562668 379.464,114.28 C379.794668,113.997332 380.186664,113.776001 380.64,113.616 C381.093336,113.455999 381.591997,113.376 382.136,113.376 C382.744003,113.376 383.343997,113.493332 383.936,113.728 C384.528003,113.962668 385.047998,114.303998 385.496,114.752 L384.296,116.24 C383.954665,115.973332 383.613335,115.768001 383.272,115.624 C382.930665,115.479999 382.552002,115.408 382.136,115.408 C381.730665,115.408 381.408001,115.490666 381.168,115.656 C380.927999,115.821334 380.808,116.053332 380.808,116.352 C380.808,116.512001 380.848,116.647999 380.928,116.76 C381.008,116.872001 381.119999,116.973333 381.264,117.064 C381.408001,117.154667 381.575999,117.24 381.768,117.32 C381.960001,117.4 382.167999,117.488 382.392,117.584 L383.736,118.128 C384.376003,118.384001 384.879998,118.735998 385.248,119.184 C385.616002,119.632002 385.8,120.223996 385.8,120.96 C385.8,121.397336 385.712001,121.810665 385.536,122.2 C385.359999,122.589335 385.104002,122.930665 384.768,123.224 C384.431998,123.517335 384.018669,123.751999 383.528,123.928 C383.037331,124.104001 382.48267,124.192 381.864,124.192 C381.18133,124.192 380.501337,124.066668 379.824,123.816 C379.146663,123.565332 378.541336,123.189336 378.008,122.688 L379.352,121.072 Z M387.576,113.568 L389.928,113.568 L389.928,124 L387.576,124 L387.576,113.568 Z M392.392,113.568 L394.808,113.568 L397.528,118.752 L398.552,121.056 L398.616,121.056 C398.562666,120.501331 398.501334,119.88267 398.432,119.2 C398.362666,118.51733 398.328,117.86667 398.328,117.248 L398.328,113.568 L400.568,113.568 L400.568,124 L398.152,124 L395.432,118.8 L394.408,116.528 L394.344,116.528 C394.397334,117.104003 394.458666,117.722663 394.528,118.384 C394.597334,119.045337 394.632,119.68533 394.632,120.304 L394.632,124 L392.392,124 L392.392,113.568 Z M402.536,118.848 C402.536,117.983996 402.669332,117.213337 402.936,116.536 C403.202668,115.858663 403.562664,115.285336 404.016,114.816 C404.469336,114.346664 404.99733,113.989335 405.6,113.744 C406.20267,113.498665 406.839997,113.376 407.512,113.376 C408.16267,113.376 408.751997,113.511999 409.28,113.784 C409.808003,114.056001 410.247998,114.373332 410.6,114.736 L409.304,116.192 C409.037332,115.946665 408.768001,115.754667 408.496,115.616 C408.223999,115.477333 407.906668,115.408 407.544,115.408 C407.181332,115.408 406.842668,115.485333 406.528,115.64 C406.213332,115.794667 405.938668,116.015999 405.704,116.304 C405.469332,116.592001 405.285334,116.943998 405.152,117.36 C405.018666,117.776002 404.952,118.245331 404.952,118.768 C404.952,119.845339 405.181331,120.679997 405.64,121.272 C406.098669,121.864003 406.711996,122.16 407.48,122.16 C407.906669,122.16 408.279998,122.074668 408.6,121.904 C408.920002,121.733332 409.207999,121.509335 409.464,121.232 L410.76,122.656 C410.322664,123.168003 409.824003,123.551999 409.264,123.808 C408.703997,124.064001 408.09867,124.192 407.448,124.192 C406.775997,124.192 406.141336,124.077334 405.544,123.848 C404.946664,123.618666 404.424002,123.280002 403.976,122.832 C403.527998,122.383998 403.176001,121.82667 402.92,121.16 C402.663999,120.49333 402.536,119.722671 402.536,118.848 Z M412.344,113.568 L418.872,113.568 L418.872,115.552 L414.696,115.552 L414.696,117.648 L418.248,117.648 L418.248,119.616 L414.696,119.616 L414.696,122.016 L419.032,122.016 L419.032,124 L412.344,124 L412.344,113.568 Z M424.504,115.152 L424.424,113.024 L426.792,113.024 L426.712,115.152 L426.248,118.336 L424.968,118.336 L424.504,115.152 Z M430.696,121.136 C430.696,121.584002 430.850665,121.933332 431.16,122.184 C431.469335,122.434668 431.837331,122.56 432.264,122.56 C432.658669,122.56 432.983999,122.456001 433.24,122.248 C433.496001,122.039999 433.624,121.722669 433.624,121.296 C433.624,121.071999 433.573334,120.880001 433.472,120.72 C433.370666,120.559999 433.224001,120.413334 433.032,120.28 C432.839999,120.146666 432.613335,120.021334 432.352,119.904 C432.090665,119.786666 431.800002,119.658667 431.48,119.52 C431.255999,119.733334 431.069334,119.978665 430.92,120.256 C430.770666,120.533335 430.696,120.826665 430.696,121.136 Z M432.856,118.08 C433.272002,117.599998 433.48,117.104003 433.48,116.592 C433.48,116.197331 433.370668,115.880001 433.152,115.64 C432.933332,115.399999 432.632002,115.28 432.248,115.28 C431.938665,115.28 431.672001,115.375999 431.448,115.568 C431.223999,115.760001 431.112,116.053331 431.112,116.448 C431.112,116.864002 431.271998,117.189332 431.592,117.424 C431.912002,117.658668 432.333331,117.877332 432.856,118.08 Z M428.68,121.408 C428.68,120.78933 428.847998,120.282669 429.184,119.888 C429.520002,119.493331 429.927998,119.168001 430.408,118.912 L430.408,118.848 C430.013331,118.549332 429.688001,118.210669 429.432,117.832 C429.175999,117.453331 429.048,116.992003 429.048,116.448 C429.048,116.021331 429.127999,115.634668 429.288,115.288 C429.448001,114.941332 429.671999,114.645335 429.96,114.4 C430.248001,114.154665 430.591998,113.968001 430.992,113.84 C431.392002,113.711999 431.826664,113.648 432.296,113.648 C432.754669,113.648 433.175998,113.714666 433.56,113.848 C433.944002,113.981334 434.269332,114.167999 434.536,114.408 C434.802668,114.648001 435.010666,114.941332 435.16,115.288 C435.309334,115.634668 435.384,116.015998 435.384,116.432 C435.384,116.922669 435.250668,117.357331 434.984,117.736 C434.717332,118.114669 434.408002,118.421332 434.056,118.656 L434.056,118.72 C434.546669,118.986668 434.962665,119.327998 435.304,119.744 C435.645335,120.160002 435.816,120.703997 435.816,121.376 C435.816,121.781335 435.730668,122.154665 435.56,122.496 C435.389332,122.837335 435.146668,123.133332 434.832,123.384 C434.517332,123.634668 434.138669,123.831999 433.696,123.976 C433.253331,124.120001 432.760003,124.192 432.216,124.192 C431.703997,124.192 431.232002,124.125334 430.8,123.992 C430.367998,123.858666 429.994668,123.669335 429.68,123.424 C429.365332,123.178665 429.120001,122.885335 428.944,122.544 C428.767999,122.202665 428.68,121.824002 428.68,121.408 Z M439,124 C439.042667,123.157329 439.119999,122.381337 439.232,121.672 C439.344001,120.962663 439.503999,120.285337 439.712,119.64 C439.920001,118.994663 440.186665,118.36267 440.512,117.744 C440.837335,117.12533 441.239998,116.485337 441.72,115.824 L437.16,115.824 L437.16,113.84 L444.232,113.84 L444.232,115.28 C443.64533,115.99467 443.173335,116.663997 442.816,117.288 C442.458665,117.912003 442.181334,118.55733 441.984,119.224 C441.786666,119.89067 441.645334,120.60533 441.56,121.368 C441.474666,122.13067 441.410667,123.007995 441.368,124 L439,124 Z M445.88,122.72 C445.88,122.293331 446.015999,121.938668 446.288,121.656 C446.560001,121.373332 446.898665,121.232 447.304,121.232 C447.709335,121.232 448.047999,121.373332 448.32,121.656 C448.592001,121.938668 448.728,122.293331 448.728,122.72 C448.728,123.136002 448.592001,123.485332 448.32,123.768 C448.047999,124.050668 447.709335,124.192 447.304,124.192 C446.898665,124.192 446.560001,124.050668 446.288,123.768 C446.015999,123.485332 445.88,123.136002 445.88,122.72 Z" id="PROVIDING-QUALITY-SE" fill="#79797B"></path>
            <path d="M59.5,162.5 L543.702437,162.5" id="Line" stroke="#D7D9D9" stroke-width="5" stroke-linecap="square"></path>
            <path d="M59.5,182.5 L543.702437,182.5" id="Line" stroke="#D7D9D9" stroke-width="5" stroke-linecap="square"></path>
            <path d="M253.007671,401.710468 C252.564215,401.119192 251.991425,400.296961 251.289285,399.243752 C246.429737,398.76334 244,397.7471 244,396.195001 C244,395.843931 244.180152,395.557536 244.54046,395.335808 C244.900769,395.11408 245.450462,395.003217 246.189557,395.003217 C248.037294,395.003217 249.875764,396.176512 251.705024,398.523138 C253.55276,398.707912 255.64991,398.800297 257.996536,398.800297 L258.301411,398.800297 C260.666514,397.37754 262.865287,395.945565 264.897798,394.504331 C265.729279,392.989187 266.449886,391.737364 267.059639,390.748825 C267.669392,389.760285 268.408475,388.730188 269.276912,387.6585 C270.995307,385.478171 272.806062,384.388023 274.70923,384.388023 C275.208119,384.388023 275.45756,384.609748 275.45756,385.053205 C275.45756,386.124892 274.57066,387.529151 272.796832,389.266023 C271.023005,391.002896 268.667176,392.869082 265.729275,394.864637 C264.842361,396.564555 264.177186,397.80252 263.733729,398.57857 C266.320561,398.375319 268.186747,398.061208 269.332343,397.636229 L269.415491,397.636229 C269.489401,397.636229 269.526355,397.687041 269.526355,397.788666 C269.526355,397.890292 269.461685,398.033489 269.332343,398.218263 C267.946541,398.643242 265.951015,398.97583 263.345707,399.216036 C262.347929,400.934431 261.382501,402.269401 260.449394,403.220985 C259.516287,404.172569 258.578574,404.648354 257.636229,404.648354 C256.121085,404.648354 254.68911,403.807647 253.340262,402.126206 C250.697999,403.456577 248.360647,404.472817 246.328137,405.174957 C246.050976,405.267344 245.732246,405.313536 245.371938,405.313536 C245.011629,405.313536 244.831477,405.174958 244.831477,404.897798 C244.831477,404.749979 244.905386,404.61602 245.053205,404.495917 C245.201024,404.375814 245.395033,404.315763 245.635239,404.315763 C247.113428,404.315763 249.570881,403.44734 253.007671,401.710468 Z M258.301411,399.493195 C256.897131,400.287722 255.511349,401.036044 254.144024,401.738184 C255.382007,403.271805 256.50911,404.038604 257.525365,404.038604 C258.282937,404.038604 259.035878,403.632108 259.784212,402.819104 C260.532545,402.0061 261.359395,400.832805 262.264786,399.299183 C261.137667,399.39157 259.816555,399.45624 258.301411,399.493195 Z M273.933185,385.053205 C272.658247,385.053205 271.374089,385.903151 270.080673,387.603069 C269.008986,389.044303 267.835691,390.947443 266.560752,393.312546 C268.888901,391.594151 270.755087,390.028218 272.159366,388.614699 C273.563646,387.201181 274.265776,386.106413 274.265776,385.330364 C274.265776,385.14559 274.154913,385.053205 273.933185,385.053205 Z M245.330364,396.084138 C245.330364,397.137348 247.113403,397.904147 250.679535,398.384558 C249.2383,396.462912 247.787849,395.502103 246.328137,395.502103 C245.662951,395.502103 245.330364,395.696113 245.330364,396.084138 Z M253.811433,401.322445 C254.95703,400.712692 256.056416,400.102948 257.109626,399.493195 L256.998763,399.493195 C255.391232,399.493195 253.839156,399.437763 252.342489,399.326899 C253.044629,400.3062 253.534272,400.971375 253.811433,401.322445 Z M264.149468,395.917842 C263.15169,396.583027 261.599615,397.543836 259.493195,398.800297 C260.915952,398.763342 261.959908,398.717149 262.625093,398.661717 C262.976163,398.051964 263.484283,397.137348 264.149468,395.917842 Z M272.422668,396.250433 C272.524293,396.361297 272.575105,396.518353 272.575105,396.721604 C272.575105,396.924855 272.436527,397.183534 272.159366,397.497649 C271.882206,397.811764 271.642004,397.96882 271.438753,397.96882 C271.235502,397.96882 271.087685,397.908769 270.995298,397.788666 C270.902911,397.668563 270.856719,397.529985 270.856719,397.372927 C270.856719,397.21587 271.004535,396.96181 271.300173,396.61074 C271.595811,396.25967 271.831394,396.084138 272.006929,396.084138 C272.182464,396.084138 272.321042,396.139569 272.422668,396.250433 Z M274.293492,399.825786 C274.441311,399.733399 274.556792,399.687206 274.639941,399.687206 C274.723089,399.687206 274.764662,399.742637 274.764662,399.853502 L274.764662,399.936649 C274.838572,399.936649 274.34431,400.343145 273.281861,401.156149 C272.219412,401.969154 271.083071,402.782146 269.872804,403.59515 C268.662536,404.408154 267.900356,404.81465 267.586241,404.81465 C267.050397,404.81465 266.78248,404.592925 266.78248,404.149468 C266.78248,403.613624 267.244407,402.602004 268.168275,401.114576 C269.092144,399.627148 269.766557,398.883445 270.191537,398.883445 C270.505652,398.883445 270.662707,399.003546 270.662707,399.243752 C270.662707,399.483957 270.237734,400.139894 269.387775,401.211581 C268.537816,402.283269 268.112843,403.050068 268.112843,403.512002 C268.112843,403.770685 268.209848,403.900025 268.40386,403.900025 C268.597873,403.900025 269.082896,403.641345 269.858946,403.123979 C271.244748,402.200111 272.519668,401.267018 273.683742,400.324672 L274.293492,399.825786 Z M274.376639,399.631774 L274.321208,399.326899 C274.321208,399.234512 274.515217,399.18832 274.903242,399.18832 C275.12497,399.18832 275.235833,399.326898 275.235833,399.604058 C275.235833,399.881219 274.917103,400.495582 274.279634,401.447167 C273.642165,402.398751 273.323435,402.893013 273.323435,402.929968 C273.323435,402.966923 273.360389,402.9854 273.434298,402.9854 C273.508208,402.9854 274.362773,402.338702 275.99802,401.045286 C277.633267,399.75187 278.617172,399.105172 278.949765,399.105172 C279.282358,399.105172 279.448651,399.220654 279.448651,399.451621 C279.448651,399.682588 279.356266,399.941267 279.171492,400.227666 C278.986719,400.514066 278.5987,401.031424 278.007424,401.779757 C277.416148,402.528091 277.102038,402.929968 277.065083,402.9854 C277.028128,403.040832 277.009651,403.105502 277.009651,403.179411 C277.009651,403.253321 277.069702,403.290275 277.189805,403.290275 C277.309907,403.290275 278.219904,402.662054 279.919822,401.405593 C281.61974,400.149132 282.589787,399.520911 282.829993,399.520911 C283.070198,399.520911 283.190299,399.622535 283.190299,399.825786 C283.190299,400.195333 282.783803,400.842031 281.970799,401.7659 C281.157795,402.689768 280.751299,403.276415 280.751299,403.52586 C280.751299,403.775304 280.848304,403.900025 281.042316,403.900025 C281.236329,403.900025 281.721352,403.641345 282.497402,403.123979 C283.883204,402.200111 285.158123,401.267018 286.322197,400.324672 L286.931948,399.825786 C287.079766,399.733399 287.204487,399.687206 287.306112,399.687206 C287.407738,399.687206 287.45855,399.742637 287.45855,399.853502 L287.45855,399.936649 C283.559825,403.188666 281.148565,404.81465 280.224697,404.81465 C279.688853,404.81465 279.420935,404.592925 279.420935,404.149468 C279.420935,403.779921 279.688853,403.234846 280.224697,402.514229 C280.76054,401.793612 281.028458,401.400974 281.028458,401.336303 C281.028458,401.271632 281.005362,401.239297 280.959169,401.239297 C280.912975,401.239297 280.155414,401.765894 278.686464,402.819104 C277.217513,403.872314 276.344471,404.398911 276.06731,404.398911 C275.937969,404.398911 275.827106,404.348099 275.734719,404.246474 C275.642332,404.144848 275.59614,404.038605 275.59614,403.927741 C275.59614,403.595148 275.993397,402.920734 276.787924,401.904479 C277.582451,400.906701 277.979708,400.361627 277.979708,400.26924 C277.979708,400.176853 277.924277,400.130661 277.813413,400.130661 C277.684071,400.130661 276.372198,401.146901 273.877753,403.179411 L272.491957,404.288048 C272.251752,404.491299 272.0716,404.592923 271.951497,404.592923 C271.831394,404.592923 271.715912,404.560588 271.605048,404.495917 C271.494184,404.431246 271.438753,404.334241 271.438753,404.2049 C271.438753,404.075558 271.600427,403.761448 271.923781,403.262559 C272.247135,402.76367 272.667489,402.153926 273.184855,401.433309 C273.979382,400.361621 274.376639,399.761116 274.376639,399.631774 Z M289.038357,402.070775 C290.073089,402.070775 291.311054,401.488746 292.752289,400.324672 L293.22346,400.463252 C291.412678,401.978396 289.851363,402.735956 288.53947,402.735956 C288.391651,402.735956 288.280789,402.726718 288.206879,402.708241 C287.707991,403.317994 287.162916,403.812256 286.571641,404.191042 C285.980365,404.569828 285.463006,404.759218 285.01955,404.759218 C284.31741,404.759218 283.966345,404.36658 283.966345,403.581292 C283.966345,402.796004 284.622282,401.747429 285.934175,400.435536 C285.712446,399.899692 285.601584,399.336141 285.601584,398.744865 C285.601584,398.153589 285.81407,397.673185 286.23905,397.303638 C286.664029,396.93409 287.158291,396.749319 287.721851,396.749319 C288.285411,396.749319 288.761196,396.93409 289.14922,397.303638 C289.537245,397.673185 289.731255,398.199782 289.731255,398.883445 C289.731255,399.936655 289.389428,400.989849 288.705766,402.043059 C288.779675,402.061536 288.890538,402.070775 289.038357,402.070775 Z M288.151448,401.793615 C288.724246,400.832792 289.010641,400.015181 289.010641,399.340757 C289.010641,398.666333 288.844347,398.167452 288.511755,397.844098 C288.179162,397.520744 287.855813,397.35907 287.541698,397.35907 C286.89499,397.35907 286.571641,397.691657 286.571641,398.356842 C286.571641,399.022028 286.719457,399.682584 287.015095,400.33853 C287.310733,400.994477 287.689513,401.4795 288.151448,401.793615 Z M285.102697,403.428854 C285.102697,403.798402 285.3429,403.983172 285.823311,403.983172 C286.303723,403.983172 286.913467,403.49353 287.652561,402.514229 C287.153672,402.255546 286.710222,401.802857 286.322197,401.156149 C285.509193,402.043063 285.102697,402.800624 285.102697,403.428854 Z M304.559268,399.936649 C300.660543,403.188666 298.249283,404.81465 297.325415,404.81465 C296.789571,404.81465 296.521653,404.592925 296.521653,404.149468 C296.521653,403.706011 296.720282,403.179414 297.117545,402.569661 C297.514809,401.959908 297.912066,401.419453 298.309329,400.94828 C298.706593,400.477107 298.905221,400.195332 298.905221,400.102945 C298.905221,400.010558 298.877506,399.964365 298.822074,399.964365 C297.103679,401.109962 296.082819,401.812091 295.759465,402.070775 C295.436112,402.329458 294.909514,402.754431 294.179659,403.345707 C293.449803,403.936982 292.974017,404.306524 292.752289,404.454343 C292.530561,404.602162 292.290358,404.67607 292.031675,404.67607 C291.772992,404.67607 291.643653,404.565208 291.643653,404.343479 C291.643653,404.084796 292.161011,403.271804 293.195744,401.904479 C294.193521,400.537154 294.692403,399.770355 294.692403,399.604058 C294.692403,399.567104 294.660068,399.548627 294.595397,399.548627 C294.530726,399.548627 293.731592,400.112178 292.197971,401.239297 L292.087107,400.823559 C293.399,399.770349 294.285901,399.095935 294.747835,398.800297 C295.209769,398.504659 295.58393,398.356842 295.870329,398.356842 C296.156728,398.356842 296.299926,398.495421 296.299926,398.772581 C296.299926,398.957355 295.777948,399.710296 294.733977,401.031428 C293.690006,402.35256 293.168028,403.063928 293.168028,403.165553 C293.168028,403.267179 293.200363,403.317991 293.265033,403.317991 C293.329704,403.317991 294.382898,402.574288 296.424647,401.08686 C298.466396,399.599432 299.708981,398.855729 300.152438,398.855729 C300.281779,398.855729 300.406499,398.906541 300.526602,399.008166 C300.646705,399.109792 300.706756,399.206797 300.706756,399.299183 C300.706756,399.520912 300.217113,400.255376 299.237812,401.502598 C298.258512,402.749821 297.768869,403.456569 297.768869,403.622866 C297.768869,403.789162 297.884351,403.872309 298.115318,403.872309 C298.346285,403.872309 298.840547,403.622868 299.598119,403.123979 C300.983922,402.218588 302.258841,401.285495 303.422915,400.324672 L304.032665,399.825786 C304.162007,399.733399 304.282108,399.687206 304.392972,399.687206 C304.503836,399.687206 304.559268,399.742637 304.559268,399.853502 L304.559268,399.936649 Z M319.026974,404.703786 C318.805245,404.703786 318.694383,404.574447 318.694383,404.315763 C318.694383,403.742965 319.669049,401.456425 321.618411,397.456075 C323.567774,393.455725 324.54244,391.14147 324.54244,390.513239 C324.54244,390.254556 324.403862,390.125217 324.126701,390.125217 C323.332175,390.125217 321.567612,391.335466 318.832962,393.756001 C317.576501,396.601516 315.848893,399.410033 313.650087,402.181638 C311.45128,404.953243 309.779103,406.339025 308.633507,406.339025 C308.245482,406.339025 308.051472,406.108061 308.051472,405.646127 C308.365588,404.297279 309.391066,402.606626 311.127939,400.574115 C312.864811,398.541605 314.897291,396.518364 317.225439,394.504331 C318.186262,392.305524 318.666667,390.587155 318.666667,389.349171 C318.666667,386.134109 316.403223,384.526602 311.876268,384.526602 C310.656762,384.526602 309.594329,384.628226 308.688938,384.831477 C306.952066,385.182547 306.009734,385.80153 305.861915,386.688443 C305.89887,387.723176 306.924349,388.471498 308.938382,388.933432 C309.78834,389.118206 310.638287,389.312215 311.488245,389.515466 C312.338204,389.718718 313.058811,390.032828 313.650087,390.457807 C314.241362,390.882787 314.536996,391.427861 314.536996,392.093046 C314.536996,392.240865 314.481565,392.439494 314.3707,392.688938 C314.259836,392.938383 314.125877,393.063103 313.96882,393.063103 C313.811762,393.063103 313.733234,392.970718 313.733234,392.785944 C313.733234,392.67508 313.774808,392.554979 313.857956,392.425637 C313.941104,392.296296 313.982678,392.194672 313.982678,392.120762 C313.982678,391.603396 312.892529,391.076799 310.7122,390.540955 C309.788332,390.319227 308.869096,390.065167 307.954467,389.778768 C307.039837,389.492368 306.263799,389.095111 305.62633,388.586983 C304.988861,388.078856 304.670131,387.519924 304.670131,386.910171 C304.670131,386.300418 304.970384,385.796917 305.570898,385.399654 C306.171413,385.00239 306.924354,384.711376 307.829745,384.526602 C309.585095,384.175532 311.137171,384 312.486018,384 C314.777212,384 316.606444,384.461927 317.973769,385.385796 C319.341094,386.309664 320.024746,387.676969 320.024746,389.487751 C320.024746,390.319232 319.756829,391.437096 319.220985,392.841376 C322.195841,390.457796 324.098981,389.266023 324.930463,389.266023 C325.170669,389.266023 325.378536,389.358409 325.554071,389.543182 C325.729606,389.727956 325.817372,389.9543 325.817372,390.222222 C325.817372,390.490144 325.64184,391.095269 325.29077,392.037614 C324.9397,392.97996 324.140566,394.790715 322.893343,397.469933 C321.646121,400.149151 321.022519,401.507218 321.022519,401.544172 C321.022519,401.581127 321.050235,401.618081 321.105667,401.655036 C321.216531,401.655036 321.392063,401.488742 321.632269,401.156149 C323.424574,398.661705 326.11299,395.765421 329.6976,392.467211 C333.282209,389.169001 336.38636,386.947131 339.010146,385.801534 C339.54599,385.579806 339.952486,385.468943 340.229646,385.468943 C340.506807,385.468943 340.645385,385.565948 340.645385,385.75996 C340.645385,385.953973 340.525284,386.120267 340.285078,386.258847 C340.044872,386.397427 339.633757,386.665345 339.05172,387.062608 C338.469683,387.459872 338.086283,387.741647 337.90151,387.907944 C337.716736,388.07424 337.587396,388.157387 337.513487,388.157387 C337.439577,388.157387 337.393385,388.101956 337.374907,387.991091 C337.35643,387.880227 337.314856,387.824796 337.250186,387.824796 C337.185515,387.824796 337.079272,387.852511 336.931453,387.907944 C334.695691,388.961153 331.850219,391.150689 328.394952,394.476615 C324.75491,398.005792 322.186595,400.869741 320.689928,403.068547 C320.154085,403.844597 319.770685,404.311143 319.539718,404.468201 C319.308751,404.625259 319.137838,404.703786 319.026974,404.703786 Z M309.381836,405.341252 C310.065499,405.341252 311.151028,404.348109 312.638456,402.361792 C314.125884,400.375475 315.460854,398.190559 316.643405,395.806978 C314.592417,397.784057 312.841713,399.659481 311.39124,401.433309 C309.940766,403.207136 309.215541,404.454339 309.215541,405.174957 C309.215541,405.285821 309.270972,405.341252 309.381836,405.341252 Z M335.739668,399.853502 C335.86901,399.761115 335.989111,399.714922 336.099975,399.714922 C336.210839,399.714922 336.266271,399.779592 336.266271,399.908933 L336.266271,399.964365 C334.344625,401.553419 332.746356,402.745191 331.471418,403.539718 C330.19648,404.334245 329.041662,404.731502 328.006929,404.731502 C327.175447,404.731502 326.759713,404.325006 326.759713,403.512002 C326.759713,402.310973 327.369457,401.077627 328.588963,399.811928 C329.808469,398.546228 330.833948,397.913388 331.665429,397.913388 C332.127364,397.913388 332.358327,398.172067 332.358327,398.689433 C332.26594,399.705688 330.80625,401.072993 327.979213,402.791388 L327.979213,403.068547 C327.979213,403.6783 328.297943,403.983172 328.935412,403.983172 C329.572881,403.983172 330.261153,403.770686 331.000247,403.345707 C332.441482,402.495748 333.79031,401.5257 335.046771,400.435536 L335.739668,399.853502 Z M330.944816,398.772581 C330.538314,398.772581 330.016336,399.114407 329.378867,399.79807 C328.741397,400.481732 328.311805,401.25777 328.090077,402.126206 C328.97699,401.590363 329.725312,401.022192 330.335066,400.421678 C330.944819,399.821163 331.249691,399.39619 331.249691,399.146746 C331.249691,398.897301 331.148067,398.772581 330.944816,398.772581 Z M342.086612,399.964365 L342.724078,399.964365 C341.005683,401.516464 339.305791,402.403364 337.62435,402.625093 C337.217848,403.216369 336.742063,403.724489 336.196981,404.149468 C335.651899,404.574447 335.194591,404.786934 334.825043,404.786934 C334.381586,404.786934 334.159861,404.528255 334.159861,404.010888 C334.159861,403.493522 334.390825,402.754439 334.852759,401.793615 C334.039755,401.072998 333.633259,400.269245 333.633259,399.382331 C333.633259,398.90192 333.799553,398.513901 334.132146,398.218263 C334.464738,397.922625 334.935904,397.774808 335.545657,397.774808 C336.15541,397.774808 336.645053,397.867194 337.0146,398.051967 C338.825382,395.243408 340.904055,392.277835 343.250681,389.15516 L344.442465,387.575353 C344.627238,387.372102 344.812009,387.270478 344.996783,387.270478 C345.273943,387.270478 345.430999,387.409056 345.467953,387.686216 L345.467953,387.880228 C345.467953,387.917182 345.421761,388.000329 345.329374,388.129671 C341.689333,392.915309 339.148733,396.370525 337.707498,398.495422 C338.18791,398.975833 338.428112,399.539385 338.428112,400.186093 C338.428112,400.8328 338.271057,401.47026 337.956941,402.09849 C339.213402,401.950672 340.589945,401.239304 342.086612,399.964365 Z M334.464736,399.437763 C334.464736,399.992084 334.714177,400.537158 335.213066,401.073002 C335.564136,400.426294 336.072256,399.576348 336.737441,398.523138 C336.478758,398.375319 336.192363,398.301411 335.878248,398.301411 C334.935902,398.301411 334.464736,398.680191 334.464736,399.437763 Z M335.850532,401.599604 C336.293989,401.876765 336.746678,402.043058 337.208612,402.09849 C337.541204,401.507215 337.707498,400.962141 337.707498,400.463252 C337.707498,399.964363 337.578159,399.511674 337.319475,399.105172 C336.691245,400.02904 336.201602,400.860509 335.850532,401.599604 Z M335.739668,403.567434 C336.053784,403.567434 336.432564,403.262562 336.876021,402.652809 C336.432564,402.652809 335.989114,402.532708 335.545657,402.292502 C335.45327,402.606617 335.407077,402.837581 335.407077,402.9854 C335.407077,403.373424 335.51794,403.567434 335.739668,403.567434 Z M349.320465,399.853502 C349.449807,399.761115 349.569908,399.714922 349.680772,399.714922 C349.791636,399.714922 349.847068,399.779592 349.847068,399.908933 L349.847068,399.964365 C347.925421,401.553419 346.327153,402.745191 345.052215,403.539718 C343.777276,404.334245 342.622458,404.731502 341.587726,404.731502 C340.756244,404.731502 340.34051,404.325006 340.34051,403.512002 C340.34051,402.310973 340.950254,401.077627 342.16976,399.811928 C343.389266,398.546228 344.414745,397.913388 345.246226,397.913388 C345.70816,397.913388 345.939124,398.172067 345.939124,398.689433 C345.846737,399.705688 344.387047,401.072993 341.56001,402.791388 L341.56001,403.068547 C341.56001,403.6783 341.87874,403.983172 342.516209,403.983172 C343.153678,403.983172 343.84195,403.770686 344.581044,403.345707 C346.022279,402.495748 347.371106,401.5257 348.627567,400.435536 L349.320465,399.853502 Z M344.525612,398.772581 C344.11911,398.772581 343.597133,399.114407 342.959663,399.79807 C342.322194,400.481732 341.892602,401.25777 341.670874,402.126206 C342.557787,401.590363 343.306109,401.022192 343.915862,400.421678 C344.525616,399.821163 344.830488,399.39619 344.830488,399.146746 C344.830488,398.897301 344.728864,398.772581 344.525612,398.772581 Z M355.473398,399.853502 C355.602739,399.761115 355.72284,399.714922 355.833705,399.714922 C355.944569,399.714922 356,399.779592 356,399.908933 L356,399.964365 C354.614197,401.073007 353.246893,402.112344 351.898045,403.082405 C350.549197,404.052467 349.560673,404.537491 348.932442,404.537491 C348.470508,404.537491 348.239545,404.28805 348.239545,403.789161 C348.239545,403.290272 348.46127,402.791391 348.904727,402.292502 C349.348183,401.793613 349.787014,401.359401 350.221232,400.989854 C350.65545,400.620307 350.872556,400.375485 350.872556,400.255382 C350.872556,400.135279 350.803267,399.996701 350.664687,399.839644 C350.526107,399.682586 350.410625,399.576343 350.318238,399.520911 C350.004123,399.835026 349.32047,400.407816 348.267261,401.239297 L348.156397,400.823559 C349.320471,399.89969 349.994885,399.280708 350.179659,398.966592 L350.179659,398.717149 C350.179659,398.255215 350.225851,397.941105 350.318238,397.774808 C350.410625,397.608512 350.63235,397.377548 350.98342,397.08191 C351.33449,396.786273 351.574692,396.638456 351.704034,396.638456 C351.833375,396.638456 351.948857,396.684649 352.050483,396.777035 C352.152108,396.869422 352.20292,396.961808 352.20292,397.054195 C352.20292,397.146581 352.170585,397.252825 352.105914,397.372927 C352.041244,397.49303 351.976574,397.594654 351.911903,397.677803 C351.847232,397.760951 351.759466,397.862575 351.648602,397.982678 C351.537738,398.10278 351.468449,398.185927 351.440732,398.232121 C351.413016,398.278314 351.385301,398.356842 351.357585,398.467706 C351.329869,398.57857 351.269818,398.670956 351.177431,398.744865 C351.085044,398.818775 351.038852,398.91116 351.038852,399.022024 C351.038852,399.132888 351.11276,399.37771 351.260579,399.756496 C351.408398,400.135282 351.482306,400.412438 351.482306,400.587973 C351.482306,400.763508 351.14048,401.179243 350.456818,401.835189 C349.773155,402.491136 349.431329,403.022352 349.431329,403.428854 C349.431329,403.650583 349.532953,403.761445 349.736204,403.761445 C349.994887,403.761445 350.475291,403.530482 351.177431,403.068547 L351.510022,402.84682 C352.711051,402.015339 353.838154,401.174631 354.891364,400.324672 L355.473398,399.853502 Z" id="Simon-Weber" fill="#79797B"></path>
            <path d="M205.5,200.5 L396.523559,200.5" id="Line" stroke="#D7D9D9" stroke-width="5" stroke-linecap="square"></path>
            <path d="M279.5,234 L322.511626,234" id="Line" stroke="#979797" stroke-width="4" stroke-linecap="square"></path>
            <path d="M284.5,253 L317.015381,253" id="Line" stroke="#979797" stroke-width="4" stroke-linecap="square"></path>
        </g>
    </g>
</svg>