<?xml version="1.0" encoding="UTF-8"?>
<svg width="604px" height="175px" viewBox="0 0 604 175" version="1.1" xmlns="http://www.w3.org/2000/svg" xmlns:xlink="http://www.w3.org/1999/xlink">
    <!-- Generator: Sketch 44.1 (41455) - http://www.bohemiancoding.com/sketch -->
    <title>typo08</title>
    <desc>Created with Sketch.</desc>
    <defs></defs>
    <g id="Typo" stroke="none" stroke-width="1" fill="none" fill-rule="evenodd">
        <g id="08" transform="translate(2.000000, 0.000000)">
            <path d="M3.876,2.968 L0.475,2.968 L0.475,0.612 L10.089,0.612 L10.089,2.968 L6.688,2.968 L6.688,13 L3.876,13 L3.876,2.968 Z M12.027,0.612 L19.779,0.612 L19.779,2.968 L14.82,2.968 L14.82,5.457 L19.038,5.457 L19.038,7.794 L14.82,7.794 L14.82,10.644 L19.969,10.644 L19.969,13 L12.027,13 L12.027,0.612 Z M24.624,6.635 L21.394,0.612 L24.51,0.612 L25.593,2.949 C25.732334,3.24033479 25.871666,3.54749838 26.011,3.8705 C26.150334,4.19350162 26.3086658,4.55133137 26.486,4.944 L26.562,4.944 C26.701334,4.55133137 26.8374993,4.19350162 26.9705,3.8705 C27.1035007,3.54749838 27.2333327,3.24033479 27.36,2.949 L28.348,0.612 L31.331,0.612 L28.12,6.768 L31.54,13 L28.424,13 L27.189,10.473 C27.0369992,10.143665 26.8881674,9.81750161 26.7425,9.4945 C26.5968326,9.17149839 26.4353342,8.8200019 26.258,8.44 L26.182,8.44 C26.042666,8.8200019 25.903334,9.17149839 25.764,9.4945 C25.624666,9.81750161 25.485334,10.143665 25.346,10.473 L24.187,13 L21.185,13 L24.624,6.635 Z M35.625,2.968 L32.224,2.968 L32.224,0.612 L41.838,0.612 L41.838,2.968 L38.437,2.968 L38.437,13 L35.625,13 L35.625,2.968 Z M48.526,9.523 C48.9693355,9.9030019 49.460164,10.2133321 49.9985,10.454 C50.536836,10.6946679 51.0656641,10.815 51.585,10.815 C52.1676696,10.815 52.6014986,10.7073344 52.8865,10.492 C53.1715014,10.2766656 53.314,9.98533517 53.314,9.618 C53.314,9.42799905 53.2728337,9.26333403 53.1905,9.124 C53.1081663,8.98466597 52.9878341,8.86116721 52.8295,8.7535 C52.6711659,8.64583279 52.4811678,8.54450047 52.2595,8.4495 L51.528,8.136 L49.913,7.452 C49.5963317,7.3253327 49.2891682,7.16066768 48.9915,6.958 C48.6938318,6.75533232 48.4278345,6.5178347 48.1935,6.2455 C47.9591655,5.9731653 47.772334,5.65650181 47.633,5.2955 C47.493666,4.93449819 47.424,4.52600228 47.424,4.07 C47.424,3.5633308 47.5316656,3.08516891 47.747,2.6355 C47.9623344,2.18583108 48.2663314,1.79316835 48.659,1.4575 C49.0516686,1.12183165 49.517164,0.85900095 50.0555,0.669 C50.593836,0.47899905 51.1859968,0.384 51.832,0.384 C52.5540036,0.384 53.2664965,0.52333194 53.9695,0.802 C54.6725035,1.08066806 55.2899973,1.48599734 55.822,2.018 L54.397,3.785 C53.9916646,3.46833175 53.5863354,3.22450085 53.181,3.0535 C52.7756646,2.88249915 52.3260025,2.797 51.832,2.797 C51.3506643,2.797 50.9675014,2.89516568 50.6825,3.0915 C50.3974986,3.28783432 50.255,3.56333156 50.255,3.918 C50.255,4.10800095 50.3024995,4.26949934 50.3975,4.4025 C50.4925005,4.53550067 50.6254991,4.6558328 50.7965,4.7635 C50.9675009,4.8711672 51.1669989,4.97249952 51.395,5.0675 C51.6230011,5.16250047 51.8699987,5.26699943 52.136,5.381 L53.732,6.027 C54.4920038,6.33100152 55.0904978,6.74899734 55.5275,7.281 C55.9645022,7.81300266 56.183,8.51599563 56.183,9.39 C56.183,9.90933593 56.078501,10.4001644 55.8695,10.8625 C55.660499,11.3248356 55.356502,11.7301649 54.9575,12.0785 C54.558498,12.4268351 54.0676696,12.705499 53.485,12.9145 C52.9023304,13.123501 52.2436703,13.228 51.509,13.228 C50.6983293,13.228 49.8908374,13.0791682 49.0865,12.7815 C48.2821626,12.4838318 47.5633365,12.0373363 46.93,11.442 L48.526,9.523 Z M58.292,0.612 L66.044,0.612 L66.044,2.968 L61.085,2.968 L61.085,5.457 L65.303,5.457 L65.303,7.794 L61.085,7.794 L61.085,10.644 L66.234,10.644 L66.234,13 L58.292,13 L58.292,0.612 Z M68.115,6.882 C68.115,5.85599487 68.2733318,4.94083735 68.59,4.1365 C68.9066682,3.33216265 69.334164,2.65133612 69.8725,2.094 C70.410836,1.53666388 71.0378298,1.11233479 71.7535,0.821 C72.4691702,0.52966521 73.225996,0.384 74.024,0.384 C74.7966705,0.384 75.4964969,0.545498385 76.1235,0.8685 C76.7505031,1.19150162 77.2729979,1.56833118 77.691,1.999 L76.152,3.728 C75.8353318,3.43666521 75.5155016,3.20866749 75.1925,3.044 C74.8694984,2.87933251 74.4926688,2.797 74.062,2.797 C73.6313312,2.797 73.2291685,2.88883241 72.8555,3.0725 C72.4818315,3.25616759 72.1556681,3.51899829 71.877,3.861 C71.5983319,4.20300171 71.3798341,4.62099753 71.2215,5.115 C71.0631659,5.60900247 70.984,6.16633023 70.984,6.787 C70.984,8.06633973 71.2563306,9.05749648 71.801,9.7605 C72.3456694,10.4635035 73.0739954,10.815 73.986,10.815 C74.4926692,10.815 74.9359981,10.7136677 75.316,10.511 C75.6960019,10.3083323 76.0379985,10.042335 76.342,9.713 L77.881,11.404 C77.3616641,12.012003 76.7695033,12.4679985 76.1045,12.772 C75.4394967,13.0760015 74.7206705,13.228 73.948,13.228 C73.149996,13.228 72.3963369,13.0918347 71.687,12.8195 C70.9776631,12.5471653 70.3570027,12.1450027 69.825,11.613 C69.2929973,11.0809973 68.8750015,10.4191706 68.571,9.6275 C68.2669985,8.83582937 68.115,7.92067186 68.115,6.882 Z M82.175,2.968 L78.774,2.968 L78.774,0.612 L88.388,0.612 L88.388,2.968 L84.987,2.968 L84.987,13 L82.175,13 L82.175,2.968 Z M90.326,0.612 L93.119,0.612 L93.119,13 L90.326,13 L90.326,0.612 Z M101.08,13.228 C100.243996,13.228 99.4808368,13.0791682 98.7905,12.7815 C98.1001632,12.4838318 97.5080025,12.0563361 97.014,11.499 C96.5199975,10.9416639 96.1368347,10.264004 95.8645,9.466 C95.5921653,8.66799601 95.456,7.7623384 95.456,6.749 C95.456,5.7356616 95.5921653,4.83317063 95.8645,4.0415 C96.1368347,3.24982937 96.5199975,2.58483603 97.014,2.0465 C97.5080025,1.50816398 98.1001632,1.09650143 98.7905,0.8115 C99.4808368,0.526498575 100.243996,0.384 101.08,0.384 C101.916004,0.384 102.679163,0.526498575 103.3695,0.8115 C104.059837,1.09650143 104.651998,1.51133061 105.146,2.056 C105.640002,2.60066939 106.023165,3.26882938 106.2955,4.0605 C106.567835,4.85217062 106.704,5.74832833 106.704,6.749 C106.704,7.7623384 106.567835,8.66799601 106.2955,9.466 C106.023165,10.264004 105.640002,10.9416639 105.146,11.499 C104.651998,12.0563361 104.059837,12.4838318 103.3695,12.7815 C102.679163,13.0791682 101.916004,13.228 101.08,13.228 Z M101.08,10.815 C101.928671,10.815 102.599998,10.450837 103.094,9.7225 C103.588002,8.99416303 103.835,8.00300627 103.835,6.749 C103.835,5.50766046 103.588002,4.53867015 103.094,3.842 C102.599998,3.14532985 101.928671,2.797 101.08,2.797 C100.231329,2.797 99.5600025,3.14532985 99.066,3.842 C98.5719975,4.53867015 98.325,5.50766046 98.325,6.749 C98.325,8.00300627 98.5719975,8.99416303 99.066,9.7225 C99.5600025,10.450837 100.231329,10.815 101.08,10.815 Z M109.041,0.612 L111.91,0.612 L115.14,6.768 L116.356,9.504 L116.432,9.504 C116.368666,8.84533004 116.295834,8.11067072 116.2135,7.3 C116.131166,6.48932928 116.09,5.71667034 116.09,4.982 L116.09,0.612 L118.75,0.612 L118.75,13 L115.881,13 L112.651,6.825 L111.435,4.127 L111.359,4.127 C111.422334,4.81100342 111.495166,5.54566274 111.5775,6.331 C111.659834,7.11633726 111.701,7.87632966 111.701,8.611 L111.701,13 L109.041,13 L109.041,0.612 Z" id="TEXT-SECTION" fill="#79797B"></path>
            <path d="M1.5,40 L225.5,40" id="Line" stroke="#D7D9D9" stroke-width="6" stroke-linecap="square"></path>
            <path d="M1.5,59 L225.5,59" id="Line" stroke="#D7D9D9" stroke-width="6" stroke-linecap="square"></path>
            <path d="M1.5,78 L160.050465,78" id="Line" stroke="#D7D9D9" stroke-width="6" stroke-linecap="square"></path>
            <path d="M1.49667774,122.5 L299.503322,122.5" id="Line" stroke="#79797B" stroke-width="3" stroke-linecap="square"></path>
            <path d="M1.49667774,139.5 L299.503322,139.5" id="Line" stroke="#79797B" stroke-width="3" stroke-linecap="square"></path>
            <path d="M1.49667774,156.5 L299.503322,156.5" id="Line" stroke="#79797B" stroke-width="3" stroke-linecap="square"></path>
            <path d="M1.49667774,173.5 L172.365371,173.5" id="Line" stroke="#79797B" stroke-width="3" stroke-linecap="square"></path>
            <path d="M318.234453,122.5 L599.531172,122.5" id="Line" stroke="#79797B" stroke-width="3" stroke-linecap="square"></path>
            <path d="M318.234453,139.5 L599.531172,139.5" id="Line" stroke="#79797B" stroke-width="3" stroke-linecap="square"></path>
            <path d="M318.234453,156.5 L599.531172,156.5" id="Line" stroke="#79797B" stroke-width="3" stroke-linecap="square"></path>
            <path d="M318.234453,173.5 L479.522141,173.5" id="Line" stroke="#79797B" stroke-width="3" stroke-linecap="square"></path>
        </g>
    </g>
</svg>