<?xml version="1.0" encoding="UTF-8"?>
<svg width="600px" height="327px" viewBox="0 0 600 327" version="1.1" xmlns="http://www.w3.org/2000/svg" xmlns:xlink="http://www.w3.org/1999/xlink">
    <!-- Generator: Sketch 44.1 (41455) - http://www.bohemiancoding.com/sketch -->
    <title>typo07</title>
    <desc>Created with Sketch.</desc>
    <defs></defs>
    <g id="Typo" stroke="none" stroke-width="1" fill="none" fill-rule="evenodd">
        <g id="07">
            <rect id="Rectangle-6" fill="#FFFFFF" x="0" y="0" width="600" height="327"></rect>
            <path d="M250.972,79.108 L246.616,79.108 L246.616,77.568 L257.176,77.568 L257.176,79.108 L252.82,79.108 L252.82,92 L250.972,92 L250.972,79.108 Z M258.804,86.676 C258.804,85.7959956 258.939665,85.0076702 259.211,84.311 C259.482335,83.6143299 259.841664,83.0240024 260.289,82.54 C260.736336,82.0559976 261.245997,81.685668 261.818,81.429 C262.390003,81.1723321 262.983997,81.044 263.6,81.044 C264.27467,81.044 264.879664,81.1613322 265.415,81.396 C265.950336,81.6306678 266.397665,81.9679978 266.757,82.408 C267.116335,82.8480022 267.391332,83.3759969 267.582,83.992 C267.772668,84.6080031 267.868,85.2973295 267.868,86.06 C267.868,86.456002 267.846,86.7859987 267.802,87.05 L260.586,87.05 C260.659334,88.2086725 261.014997,89.12533 261.653,89.8 C262.291003,90.47467 263.123328,90.812 264.15,90.812 C264.663336,90.812 265.136331,90.7350008 265.569,90.581 C266.001669,90.4269992 266.415998,90.2253346 266.812,89.976 L267.45,91.164 C266.980664,91.4573348 266.460003,91.7139989 265.888,91.934 C265.315997,92.1540011 264.663337,92.264 263.93,92.264 C263.21133,92.264 262.540336,92.1356679 261.917,91.879 C261.293664,91.622332 260.751002,91.2556691 260.289,90.779 C259.826998,90.3023309 259.464001,89.7193368 259.2,89.03 C258.935999,88.3406632 258.804,87.5560044 258.804,86.676 Z M266.284,85.862 C266.284,84.7619945 266.053002,83.9223362 265.591,83.343 C265.128998,82.7636638 264.480004,82.474 263.644,82.474 C263.262665,82.474 262.899668,82.5509992 262.555,82.705 C262.210332,82.8590008 261.898668,83.0789986 261.62,83.365 C261.341332,83.6510014 261.110334,84.0029979 260.927,84.421 C260.743666,84.8390021 260.622667,85.3193306 260.564,85.862 L266.284,85.862 Z M272.51,86.412 L269.276,81.308 L271.234,81.308 L272.664,83.662 C272.825334,83.9553348 272.993999,84.2523318 273.17,84.553 C273.346001,84.8536682 273.529332,85.1506652 273.72,85.444 L273.808,85.444 C273.969334,85.1506652 274.130666,84.8536682 274.292,84.553 C274.453334,84.2523318 274.614666,83.9553348 274.776,83.662 L276.074,81.308 L277.966,81.308 L274.732,86.61 L278.208,92 L276.25,92 L274.688,89.514 L274.116,88.546 C273.925332,88.2233317 273.727334,87.9080015 273.522,87.6 L273.434,87.6 C273.243332,87.9080015 273.060001,88.2196651 272.884,88.535 C272.707999,88.8503349 272.532001,89.176665 272.356,89.514 L270.904,92 L269.012,92 L272.51,86.412 Z M280.628,82.782 L279.044,82.782 L279.044,81.418 L280.716,81.308 L280.936,78.316 L282.454,78.316 L282.454,81.308 L285.336,81.308 L285.336,82.782 L282.454,82.782 L282.454,88.722 C282.454,89.3820033 282.574999,89.8916649 282.817,90.251 C283.059001,90.6103351 283.487997,90.79 284.104,90.79 C284.294668,90.79 284.499999,90.760667 284.72,90.702 C284.940001,90.643333 285.137999,90.5773337 285.314,90.504 L285.666,91.868 C285.372665,91.9706672 285.053668,92.0623329 284.709,92.143 C284.364332,92.2236671 284.023335,92.264 283.686,92.264 C283.113997,92.264 282.633669,92.1760009 282.245,92 C281.856331,91.8239991 281.541001,91.5820015 281.299,91.274 C281.056999,90.9659985 280.884667,90.5920022 280.782,90.152 C280.679333,89.7119978 280.628,89.2280026 280.628,88.7 L280.628,82.782 Z M292.42,88.854 C292.933336,89.3966694 293.53833,89.8329983 294.235,90.163 C294.93167,90.4930017 295.653996,90.658 296.402,90.658 C297.355338,90.658 298.095997,90.4416688 298.624,90.009 C299.152003,89.5763312 299.416,89.0080035 299.416,88.304 C299.416,87.9373315 299.353667,87.625668 299.229,87.369 C299.104333,87.1123321 298.935668,86.8923343 298.723,86.709 C298.510332,86.5256657 298.257335,86.3606674 297.964,86.214 C297.670665,86.0673326 297.355335,85.9133341 297.018,85.752 L294.95,84.85 C294.612665,84.7033326 294.268002,84.5273344 293.916,84.322 C293.563998,84.1166656 293.248668,83.8673348 292.97,83.574 C292.691332,83.2806652 292.464001,82.9323353 292.288,82.529 C292.111999,82.1256647 292.024,81.6600026 292.024,81.132 C292.024,80.5893306 292.137666,80.0833357 292.365,79.614 C292.592334,79.1446643 292.907665,78.7376684 293.311,78.393 C293.714335,78.0483316 294.190997,77.7806676 294.741,77.59 C295.291003,77.3993324 295.895997,77.304 296.556,77.304 C297.421338,77.304 298.220663,77.4689984 298.954,77.799 C299.687337,78.1290017 300.310664,78.5579974 300.824,79.086 L299.834,80.274 C299.393998,79.8486645 298.906336,79.5150012 298.371,79.273 C297.835664,79.0309988 297.23067,78.91 296.556,78.91 C295.749329,78.91 295.100336,79.0969981 294.609,79.471 C294.117664,79.8450019 293.872,80.3619967 293.872,81.022 C293.872,81.3740018 293.941666,81.6709988 294.081,81.913 C294.220334,82.1550012 294.407332,82.3676658 294.642,82.551 C294.876668,82.7343342 295.133332,82.895666 295.412,83.035 C295.690668,83.174334 295.976665,83.3026661 296.27,83.42 L298.316,84.3 C298.726669,84.4760009 299.115332,84.6776655 299.482,84.905 C299.848669,85.1323345 300.163999,85.3963318 300.428,85.697 C300.692001,85.9976682 300.900999,86.3496646 301.055,86.753 C301.209001,87.1563354 301.286,87.6219974 301.286,88.15 C301.286,88.7220029 301.172334,89.2573308 300.945,89.756 C300.717666,90.2546692 300.391335,90.6909981 299.966,91.065 C299.540665,91.4390019 299.027336,91.7323323 298.426,91.945 C297.824664,92.1576677 297.14267,92.264 296.38,92.264 C295.367995,92.264 294.429338,92.0733352 293.564,91.692 C292.698662,91.3106648 291.95067,90.7900033 291.32,90.13 L292.42,88.854 Z M303.156,86.676 C303.156,85.7959956 303.291665,85.0076702 303.563,84.311 C303.834335,83.6143299 304.193664,83.0240024 304.641,82.54 C305.088336,82.0559976 305.597997,81.685668 306.17,81.429 C306.742003,81.1723321 307.335997,81.044 307.952,81.044 C308.62667,81.044 309.231664,81.1613322 309.767,81.396 C310.302336,81.6306678 310.749665,81.9679978 311.109,82.408 C311.468335,82.8480022 311.743332,83.3759969 311.934,83.992 C312.124668,84.6080031 312.22,85.2973295 312.22,86.06 C312.22,86.456002 312.198,86.7859987 312.154,87.05 L304.938,87.05 C305.011334,88.2086725 305.366997,89.12533 306.005,89.8 C306.643003,90.47467 307.475328,90.812 308.502,90.812 C309.015336,90.812 309.488331,90.7350008 309.921,90.581 C310.353669,90.4269992 310.767998,90.2253346 311.164,89.976 L311.802,91.164 C311.332664,91.4573348 310.812003,91.7139989 310.24,91.934 C309.667997,92.1540011 309.015337,92.264 308.282,92.264 C307.56333,92.264 306.892336,92.1356679 306.269,91.879 C305.645664,91.622332 305.103002,91.2556691 304.641,90.779 C304.178998,90.3023309 303.816001,89.7193368 303.552,89.03 C303.287999,88.3406632 303.156,87.5560044 303.156,86.676 Z M310.636,85.862 C310.636,84.7619945 310.405002,83.9223362 309.943,83.343 C309.480998,82.7636638 308.832004,82.474 307.996,82.474 C307.614665,82.474 307.251668,82.5509992 306.907,82.705 C306.562332,82.8590008 306.250668,83.0789986 305.972,83.365 C305.693332,83.6510014 305.462334,84.0029979 305.279,84.421 C305.095666,84.8390021 304.974667,85.3193306 304.916,85.862 L310.636,85.862 Z M314.068,86.676 C314.068,85.7813289 314.207332,84.9856701 314.486,84.289 C314.764668,83.5923299 315.138664,83.0020024 315.608,82.518 C316.077336,82.0339976 316.623664,81.6673346 317.247,81.418 C317.870336,81.1686654 318.526663,81.044 319.216,81.044 C319.920004,81.044 320.524997,81.1723321 321.031,81.429 C321.537003,81.685668 321.973331,81.982665 322.34,82.32 L321.438,83.486 C321.115332,83.2073319 320.781668,82.9800009 320.437,82.804 C320.092332,82.6279991 319.707335,82.54 319.282,82.54 C318.797998,82.54 318.350669,82.638999 317.94,82.837 C317.529331,83.035001 317.177335,83.3173315 316.884,83.684 C316.590665,84.0506685 316.359668,84.4869975 316.191,84.993 C316.022332,85.4990025 315.938,86.0599969 315.938,86.676 C315.938,87.2920031 316.018666,87.8493308 316.18,88.348 C316.341334,88.8466692 316.564999,89.2756649 316.851,89.635 C317.137001,89.9943351 317.485331,90.272999 317.896,90.471 C318.306669,90.669001 318.753998,90.768 319.238,90.768 C319.751336,90.768 320.216998,90.6616677 320.635,90.449 C321.053002,90.2363323 321.423332,89.9833348 321.746,89.69 L322.56,90.878 C322.075998,91.3033355 321.537003,91.6406654 320.943,91.89 C320.348997,92.1393346 319.729337,92.264 319.084,92.264 C318.379996,92.264 317.720003,92.1393346 317.104,91.89 C316.487997,91.6406654 315.956336,91.277669 315.509,90.801 C315.061664,90.3243309 314.709668,89.7376702 314.453,89.041 C314.196332,88.3443299 314.068,87.5560044 314.068,86.676 Z M325.2,82.782 L323.616,82.782 L323.616,81.418 L325.288,81.308 L325.508,78.316 L327.026,78.316 L327.026,81.308 L329.908,81.308 L329.908,82.782 L327.026,82.782 L327.026,88.722 C327.026,89.3820033 327.146999,89.8916649 327.389,90.251 C327.631001,90.6103351 328.059997,90.79 328.676,90.79 C328.866668,90.79 329.071999,90.760667 329.292,90.702 C329.512001,90.643333 329.709999,90.5773337 329.886,90.504 L330.238,91.868 C329.944665,91.9706672 329.625668,92.0623329 329.281,92.143 C328.936332,92.2236671 328.595335,92.264 328.258,92.264 C327.685997,92.264 327.205669,92.1760009 326.817,92 C326.428331,91.8239991 326.113001,91.5820015 325.871,91.274 C325.628999,90.9659985 325.456667,90.5920022 325.354,90.152 C325.251333,89.7119978 325.2,89.2280026 325.2,88.7 L325.2,82.782 Z M333.252,79.108 C332.899998,79.108 332.603001,78.9980011 332.361,78.778 C332.118999,78.5579989 331.998,78.279335 331.998,77.942 C331.998,77.5899982 332.118999,77.3076677 332.361,77.095 C332.603001,76.8823323 332.899998,76.776 333.252,76.776 C333.604002,76.776 333.900999,76.8823323 334.143,77.095 C334.385001,77.3076677 334.506,77.5899982 334.506,77.942 C334.506,78.279335 334.385001,78.5579989 334.143,78.778 C333.900999,78.9980011 333.604002,79.108 333.252,79.108 Z M332.328,81.308 L334.132,81.308 L334.132,92 L332.328,92 L332.328,81.308 Z M336.948,86.676 C336.948,85.7813289 337.083665,84.9856701 337.355,84.289 C337.626335,83.5923299 337.989331,83.0020024 338.444,82.518 C338.898669,82.0339976 339.422997,81.6673346 340.017,81.418 C340.611003,81.1686654 341.237997,81.044 341.898,81.044 C342.558003,81.044 343.184997,81.1686654 343.779,81.418 C344.373003,81.6673346 344.897331,82.0339976 345.352,82.518 C345.806669,83.0020024 346.169665,83.5923299 346.441,84.289 C346.712335,84.9856701 346.848,85.7813289 346.848,86.676 C346.848,87.5560044 346.712335,88.3443299 346.441,89.041 C346.169665,89.7376702 345.806669,90.3243309 345.352,90.801 C344.897331,91.277669 344.373003,91.6406654 343.779,91.89 C343.184997,92.1393346 342.558003,92.264 341.898,92.264 C341.237997,92.264 340.611003,92.1393346 340.017,91.89 C339.422997,91.6406654 338.898669,91.277669 338.444,90.801 C337.989331,90.3243309 337.626335,89.7376702 337.355,89.041 C337.083665,88.3443299 336.948,87.5560044 336.948,86.676 Z M338.818,86.676 C338.818,87.2920031 338.891333,87.8493308 339.038,88.348 C339.184667,88.8466692 339.393665,89.2756649 339.665,89.635 C339.936335,89.9943351 340.262665,90.272999 340.644,90.471 C341.025335,90.669001 341.443331,90.768 341.898,90.768 C342.352669,90.768 342.770665,90.669001 343.152,90.471 C343.533335,90.272999 343.859665,89.9943351 344.131,89.635 C344.402335,89.2756649 344.611333,88.8466692 344.758,88.348 C344.904667,87.8493308 344.978,87.2920031 344.978,86.676 C344.978,86.0599969 344.904667,85.4990025 344.758,84.993 C344.611333,84.4869975 344.402335,84.0506685 344.131,83.684 C343.859665,83.3173315 343.533335,83.035001 343.152,82.837 C342.770665,82.638999 342.352669,82.54 341.898,82.54 C341.443331,82.54 341.025335,82.638999 340.644,82.837 C340.262665,83.035001 339.936335,83.3173315 339.665,83.684 C339.393665,84.0506685 339.184667,84.4869975 339.038,84.993 C338.891333,85.4990025 338.818,86.0599969 338.818,86.676 Z M349.664,81.308 L351.16,81.308 L351.314,82.848 L351.38,82.848 C351.893336,82.3346641 352.432331,81.9056684 352.997,81.561 C353.561669,81.2163316 354.217996,81.044 354.966,81.044 C356.095339,81.044 356.920331,81.3959965 357.441,82.1 C357.961669,82.8040035 358.222,83.8453264 358.222,85.224 L358.222,92 L356.418,92 L356.418,85.466 C356.418,84.4539949 356.256668,83.7243356 355.934,83.277 C355.611332,82.8296644 355.098004,82.606 354.394,82.606 C353.836664,82.606 353.345335,82.7453319 352.92,83.024 C352.494665,83.3026681 352.010669,83.7133306 351.468,84.256 L351.468,92 L349.664,92 L349.664,81.308 Z" id="Text-Section" fill="#79797B"></path>
            <path d="M247.5,112 L363.50431,112" id="Line" stroke="#4990E2" stroke-width="4" stroke-linecap="square"></path>
            <path d="M247.5,112 L363.50431,112" id="Line" stroke="#4990E2" stroke-width="4" stroke-linecap="square"></path>
            <path d="M276.5,123 L333.014137,123" id="Line" stroke="#4990E2" stroke-width="4" stroke-linecap="square"></path>
            <path d="M176.5,149 L431.625459,149" id="Line" stroke="#979797" stroke-width="4" stroke-linecap="square"></path>
            <path d="M176.5,163.333333 L431.625459,163.333333" id="Line" stroke="#979797" stroke-width="4" stroke-linecap="square"></path>
            <path d="M176.5,177.666667 L431.625459,177.666667" id="Line" stroke="#979797" stroke-width="4" stroke-linecap="square"></path>
            <path d="M176.5,192 L431.625459,192" id="Line" stroke="#979797" stroke-width="4" stroke-linecap="square"></path>
            <path d="M176.5,206.333333 L431.625459,206.333333" id="Line" stroke="#979797" stroke-width="4" stroke-linecap="square"></path>
            <path d="M176.5,220.666667 L431.625459,220.666667" id="Line" stroke="#979797" stroke-width="4" stroke-linecap="square"></path>
            <path d="M176.5,234 L276.005025,234" id="Line" stroke="#979797" stroke-width="4" stroke-linecap="square"></path>
        </g>
    </g>
</svg>