<svg xmlns="http://www.w3.org/2000/svg" viewBox="0 0 237.514 25.734"><g fill="#494949"><path d="M2.257 1.478h20.465l-1.86 20.901-8.401 2.354-8.343-2.354L2.257 1.478zm16.424 6.817l.232-2.544H6.065l.683 7.761h8.895l-.319 3.314-2.864.771-2.849-.771-.189-2.035H6.879l.32 4.041 5.261 1.453h.058v-.015l5.218-1.438.727-7.906h-9.36l-.218-2.631h9.796zM74.349 19.152h2.326v1.396c0 .388-.228.718-.683.988-.456.271-1.003.407-1.643.407H51.094c-.64 0-1.187-.136-1.643-.407-.456-.271-.683-.601-.683-.988v-1.396h25.581zm-19.535-.93a2.24 2.24 0 01-1.643-.684 2.237 2.237 0 01-.683-1.643V5.664c0-.64.228-1.188.683-1.643s1.003-.684 1.643-.684h15.814c.639 0 1.187.229 1.642.684s.683 1.003.683 1.643v10.231a2.24 2.24 0 01-.683 1.643 2.239 2.239 0 01-1.642.684H54.814zm-.465-12.558v10.231c0 .127.045.235.138.327a.444.444 0 00.327.139h15.814a.447.447 0 00.327-.139.445.445 0 00.138-.327V5.664c0-.126-.046-.235-.138-.327s-.201-.139-.327-.139H54.814c-.126 0-.235.047-.327.139s-.138.201-.138.327zm9.535 14.883c.155 0 .232-.077.232-.232s-.078-.232-.232-.232h-2.326c-.155 0-.232.077-.232.232s.077.232.232.232h2.326zM121.499 9.85c0 .059.049.257.146.596.097.281.219.521.363.72.146.199.344.363.597.494.252.131.465.228.639.291.175.063.441.143.8.239 3.149.882 4.724 2.49 4.724 4.825 0 1.415-.511 2.59-1.533 3.525-1.022.935-2.255 1.402-3.699 1.402-.571 0-1.111-.09-1.62-.269-.509-.18-.952-.4-1.33-.662-.378-.261-.751-.622-1.119-1.082a13.647 13.647 0 01-.916-1.272 12.726 12.726 0 01-.777-1.504c-.276-.615-.487-1.114-.632-1.497s-.337-.898-.574-1.548-.41-1.109-.516-1.381c-.31-.785-.608-1.432-.894-1.94a6.435 6.435 0 00-1.068-1.402 3.822 3.822 0 00-1.512-.931c-.582-.193-1.27-.29-2.064-.29-.93 0-1.817.269-2.66.807a5.977 5.977 0 00-2.006 2.1c-.494.863-.741 1.759-.741 2.689 0 1.55.516 2.904 1.548 4.062 1.032 1.157 2.309 1.736 3.83 1.736 1.715 0 2.965-.46 3.75-1.381.543-.61.945-1.172 1.207-1.686l1.221 2.209a4.656 4.656 0 01-.64 1.018l.015.015c-1.27 1.473-3.149 2.209-5.64 2.209a7.085 7.085 0 01-3.917-1.148 7.972 7.972 0 01-2.769-3.016 8.402 8.402 0 01-.988-3.989c0-1.018.211-2.016.632-2.994s.983-1.834 1.686-2.565a8.225 8.225 0 012.5-1.767 7.021 7.021 0 012.972-.668c.843 0 1.613.092 2.311.275.698.185 1.296.427 1.795.728.499.3.959.688 1.381 1.162.421.476.772.955 1.054 1.439s.564 1.052.851 1.7c.286.649.53 1.253.734 1.81.204.558.445 1.189.726 1.896.281.708.548 1.323.8 1.846.931 1.938 2.06 2.907 3.387 2.907.785 0 1.456-.234 2.013-.705.558-.47.836-1.092.836-1.867 0-.407-.092-.756-.276-1.047a1.844 1.844 0 00-.733-.669 11.01 11.01 0 00-1.054-.457c-.397-.15-.807-.281-1.229-.393s-.846-.276-1.271-.494a6.968 6.968 0 01-1.178-.756c-.358-.285-.674-.683-.944-1.191-.271-.509-.46-1.103-.567-1.781a2.586 2.586 0 01-.044-.479c0-1.065.423-1.996 1.272-2.79.848-.795 1.81-1.173 2.885-1.134.756.028 1.34.1 1.752.211.411.111.851.37 1.315.777h-.015c.116.106.228.225.334.355s.232.306.378.523.237.352.276.4l-1.875 1.438c-.252-.475-.514-.813-.785-1.018v-.012c-.223-.203-.692-.305-1.409-.305-.476 0-.882.159-1.222.479a1.58 1.58 0 00-.513 1.207zM162.777.65a12.731 12.731 0 015.059-1.032c1.763 0 3.449.345 5.058 1.032 1.608.688 2.994 1.613 4.157 2.776 1.162 1.162 2.088 2.548 2.775 4.156.688 1.609 1.032 3.295 1.032 5.059s-.344 3.449-1.032 5.058c-.688 1.608-1.613 2.994-2.775 4.157-1.163 1.162-2.549 2.088-4.157 2.775a12.73 12.73 0 01-5.058 1.032c-1.764 0-3.45-.344-5.059-1.032-1.608-.688-2.994-1.613-4.157-2.775-1.162-1.163-2.088-2.549-2.775-4.157-.688-1.608-1.032-3.294-1.032-5.058s.344-3.449 1.032-5.059c.688-1.608 1.613-2.994 2.775-4.156 1.163-1.163 2.549-2.088 4.157-2.776zm-4.796 17.238l2.819-2.82c-.271-.794-.407-1.604-.407-2.427s.136-1.633.407-2.428l-2.819-2.819c-.872 1.657-1.309 3.406-1.309 5.247s.437 3.59 1.309 5.247zm5.908-1.302c1.09 1.091 2.405 1.636 3.946 1.636 1.54 0 2.855-.545 3.945-1.636 1.091-1.09 1.636-2.405 1.636-3.945 0-1.541-.545-2.856-1.636-3.946-1.09-1.09-2.405-1.635-3.945-1.635-1.541 0-2.856.545-3.946 1.635-1.091 1.09-1.636 2.405-1.636 3.946.001 1.54.546 2.855 1.636 3.945zm3.947-15.108c-1.842 0-3.591.437-5.247 1.309l2.819 2.819a7.477 7.477 0 012.428-.407c.823 0 1.632.137 2.427.407l2.82-2.819a11.1 11.1 0 00-5.247-1.309zm0 22.325c1.841 0 3.59-.436 5.247-1.308l-2.82-2.82a7.475 7.475 0 01-2.427.407 7.477 7.477 0 01-2.428-.407l-2.819 2.82a11.105 11.105 0 005.247 1.308zm7.034-8.735l2.82 2.82c.872-1.657 1.308-3.406 1.308-5.247s-.436-3.59-1.308-5.247l-2.82 2.819c.271.795.407 1.604.407 2.428s-.136 1.633-.407 2.427zM230.161 10.781c.251 0 .47.092.653.276a.888.888 0 01.276.653v3.721a.892.892 0 01-.276.654.89.89 0 01-.653.276h-19.535c-.388 0-.717-.136-.988-.407l-2.049-2.05a.454.454 0 010-.668l2.049-2.05c.271-.271.601-.406.988-.406h7.442V7.99h3.721v2.791h8.372zm2.107-6.846c.097.097.146.208.146.334s-.049.237-.146.334l-2.05 2.05a1.346 1.346 0 01-.988.407h-19.534a.894.894 0 01-.654-.276.892.892 0 01-.276-.654V2.408c0-.252.092-.47.276-.654a.892.892 0 01.654-.276h8.372v-.93c0-.252.092-.47.275-.654a.895.895 0 01.654-.276h1.86c.252 0 .47.093.654.276a.895.895 0 01.276.654v.93h7.441c.388 0 .717.136.988.407l2.052 2.05zm-14.2 13.356h3.721v7.442c0 .252-.093.47-.276.653a.892.892 0 01-.654.276h-1.86a.894.894 0 01-.654-.276.89.89 0 01-.275-.653v-7.442z"/></g></svg>