<?xml version="1.0" encoding="utf-8"?>
<!-- Generator: Adobe Illustrator 16.0.0, SVG Export Plug-In . SVG Version: 6.00 Build 0)  -->
<!DOCTYPE svg PUBLIC "-//W3C//DTD SVG 1.1//EN" "http://www.w3.org/Graphics/SVG/1.1/DTD/svg11.dtd">
<svg version="1.1" id="Ebene_1" xmlns="http://www.w3.org/2000/svg" xmlns:xlink="http://www.w3.org/1999/xlink" x="0px" y="0px"
	 width="116.07px" height="33.98px" viewBox="0 0 116.07 33.98" enable-background="new 0 0 116.07 33.98" xml:space="preserve">
<polyline fill="#FAA90D" points="8.874,0 33.25,0 33.25,33.754 0,33.754 0,7.25 "/>
<g>
	<path fill="#FFFFFF" d="M26.194,33.754h-8.641V14.017h7.681c1.336,0,2.489,0.16,3.459,0.48c0.969,0.32,1.698,0.753,2.188,1.299
		c0.885,1.017,1.327,2.165,1.327,3.445c0,1.544-0.499,2.692-1.497,3.445c-0.338,0.264-0.574,0.428-0.706,0.494
		c-0.132,0.066-0.367,0.174-0.706,0.325c1.224,0.264,2.198,0.814,2.922,1.652c0.725,0.838,1.087,1.878,1.087,3.12
		c0,1.375-0.471,2.588-1.412,3.643C30.806,33.143,28.904,33.754,26.194,33.754z M21.958,22.007h2.089
		c1.224,0,2.132-0.131,2.725-0.395c0.593-0.264,0.89-0.833,0.89-1.708s-0.273-1.454-0.819-1.736
		c-0.546-0.283-1.468-0.424-2.767-0.424h-2.118V22.007z M21.958,30.027h3.021c1.261,0,2.207-0.155,2.838-0.466
		c0.63-0.311,0.946-0.922,0.946-1.835s-0.334-1.515-1.002-1.807c-0.668-0.292-1.736-0.438-3.205-0.438h-2.598V30.027z"/>
	<path fill="#FFFFFF" d="M46.242,26.751v-8.188h4.264v15.191h-4.264v-2.005c-1.054,1.487-2.414,2.231-4.08,2.231
		s-3.063-0.522-4.193-1.567c-1.13-1.045-1.694-2.593-1.694-4.645v-9.205h4.264v8.273c0,2.334,0.856,3.501,2.569,3.501
		c0.847,0,1.582-0.306,2.203-0.918C45.931,28.808,46.242,27.918,46.242,26.751z"/>
	<path fill="#FFFFFF" d="M54.869,16.628c-0.48-0.48-0.72-1.068-0.72-1.765s0.24-1.285,0.72-1.765s1.068-0.72,1.765-0.72
		c0.696,0,1.285,0.24,1.765,0.72s0.72,1.069,0.72,1.765s-0.24,1.285-0.72,1.765s-1.068,0.72-1.765,0.72
		C55.937,17.348,55.349,17.108,54.869,16.628z M58.751,33.754h-4.235V18.562h4.235V33.754z"/>
	<path fill="#FFFFFF" d="M66.996,33.754H62.76V12.802h4.235V33.754z"/>
	<path fill="#FFFFFF" d="M77.091,33.98c-1.799,0-3.402-0.763-4.814-2.288c-1.412-1.524-2.118-3.417-2.118-5.675
		s0.687-4.108,2.062-5.548c1.373-1.44,2.982-2.16,4.828-2.16s3.35,0.649,4.518,1.948v-7.455h4.236v20.952h-4.236v-2.005
		C80.38,33.236,78.888,33.98,77.091,33.98z M74.423,26.187c0,1.224,0.365,2.226,1.1,3.007s1.592,1.172,2.57,1.172
		s1.811-0.391,2.498-1.172s1.031-1.789,1.031-3.021s-0.344-2.259-1.031-3.078s-1.529-1.229-2.525-1.229
		c-0.998,0-1.855,0.415-2.57,1.243S74.423,24.963,74.423,26.187z"/>
	<path fill="#FFFFFF" d="M102.969,31.551c-1.713,1.619-3.723,2.429-6.028,2.429c-2.307,0-4.212-0.71-5.718-2.132
		c-1.507-1.421-2.26-3.327-2.26-5.718c0-2.39,0.768-4.292,2.302-5.704c1.534-1.412,3.346-2.118,5.436-2.118s3.863,0.631,5.322,1.892
		c1.459,1.262,2.188,2.993,2.188,5.196v2.259H93.143c0.131,0.829,0.564,1.506,1.299,2.033s1.562,0.791,2.484,0.791
		c1.487,0,2.711-0.499,3.671-1.497L102.969,31.551z M98.902,22.544c-0.583-0.489-1.294-0.734-2.132-0.734s-1.604,0.254-2.301,0.763
		c-0.697,0.508-1.102,1.195-1.215,2.061h6.664C99.825,23.73,99.486,23.034,98.902,22.544z"/>
	<path fill="#FFFFFF" d="M115.252,22.29c-1.262,0-2.203,0.447-2.824,1.341c-0.621,0.895-0.932,2.076-0.932,3.544v6.579h-4.235
		V18.562h4.235v2.005c0.546-0.621,1.229-1.148,2.047-1.581c0.819-0.433,1.652-0.659,2.499-0.678l0.028,3.981H115.252z"/>
</g>
</svg>
