<?xml version="1.0" encoding="UTF-8" standalone="no"?>
<!-- Created with Inkscape (http://www.inkscape.org/) -->

<svg
   width="72.41745mm"
   height="20.143881mm"
   viewBox="0 0 72.41745 20.143881"
   version="1.1"
   id="svg1"
   xml:space="preserve"
   inkscape:version="1.3.2 (091e20e, 2023-11-25)"
   sodipodi:docname="logo.svg"
   xmlns:inkscape="http://www.inkscape.org/namespaces/inkscape"
   xmlns:sodipodi="http://sodipodi.sourceforge.net/DTD/sodipodi-0.dtd"
   xmlns="http://www.w3.org/2000/svg"
   xmlns:svg="http://www.w3.org/2000/svg"><sodipodi:namedview
     id="namedview1"
     pagecolor="#ffffff"
     bordercolor="#000000"
     borderopacity="0.25"
     inkscape:showpageshadow="2"
     inkscape:pageopacity="0.0"
     inkscape:pagecheckerboard="0"
     inkscape:deskcolor="#d1d1d1"
     inkscape:document-units="mm"
     inkscape:zoom="1.8459415"
     inkscape:cx="143.01645"
     inkscape:cy="31.691145"
     inkscape:window-width="2032"
     inkscape:window-height="1242"
     inkscape:window-x="615"
     inkscape:window-y="28"
     inkscape:window-maximized="0"
     inkscape:current-layer="layer1" /><defs
     id="defs1" /><g
     inkscape:label="Ebene 1"
     inkscape:groupmode="layer"
     id="layer1"
     transform="translate(-71.59867,-139.63882)"><rect
       style="fill:#df5f4f;fill-opacity:1;stroke:#ffffff;stroke-width:0.794;stroke-dasharray:none;stroke-opacity:1"
       id="rect2"
       width="22.933193"
       height="19.34988"
       x="120.68593"
       y="-159.3857"
       ry="5.9814372"
       transform="scale(1,-1)" /><path
       style="font-size:9.12507px;line-height:1.75;font-family:Sixtyfour;-inkscape-font-specification:Sixtyfour;letter-spacing:0px;word-spacing:0.482869px;fill:#ffffff;stroke-width:0.241434"
       d="m 137.50718,140.21498 h 1.65749 q 0.24951,0 0.39209,-0.13367 0.14258,-0.13367 0.14258,-0.31189 0,-0.17822 -0.14258,-0.31189 -0.14258,-0.13367 -0.39209,-0.13367 h -1.65749 q -0.24951,0 -0.39209,0.13367 -0.14258,0.13367 -0.14258,0.31189 0,0.17822 0.14258,0.31189 0.14258,0.13367 0.39209,0.13367 z m 4.56254,0 h 1.65748 q 0.24951,0 0.39209,-0.13367 0.14258,-0.13367 0.14258,-0.31189 0,-0.17822 -0.14258,-0.31189 -0.14258,-0.13367 -0.39209,-0.13367 h -1.65748 q -0.24952,0 -0.3921,0.13367 -0.14257,0.13367 -0.14257,0.31189 0,0.17822 0.14257,0.31189 0.14258,0.13367 0.3921,0.13367 z m -4.56254,-1.14063 h 1.65749 q 0.24951,0 0.39209,-0.13367 0.14258,-0.13367 0.14258,-0.31189 0,-0.17823 -0.14258,-0.3119 -0.14258,-0.13366 -0.39209,-0.13366 h -1.65749 q -0.24951,0 -0.39209,0.13366 -0.14258,0.13367 -0.14258,0.3119 0,0.17822 0.14258,0.31189 0.14258,0.13367 0.39209,0.13367 z m 4.56254,0 h 1.65748 q 0.24951,0 0.39209,-0.13367 0.14258,-0.13367 0.14258,-0.31189 0,-0.17823 -0.14258,-0.3119 -0.14258,-0.13366 -0.39209,-0.13366 h -1.65748 q -0.24952,0 -0.3921,0.13366 -0.14257,0.13367 -0.14257,0.3119 0,0.17822 0.14257,0.31189 0.14258,0.13367 0.3921,0.13367 z m -3.4219,-1.14064 h 3.93875 q 0.24951,0 0.39209,-0.13367 0.14258,-0.13366 0.14258,-0.31189 0,-0.17822 -0.14258,-0.31189 -0.14258,-0.13367 -0.39209,-0.13367 h -3.93875 q -0.24952,0 -0.3921,0.13367 -0.14258,0.13367 -0.14258,0.31189 0,0.17823 0.14258,0.31189 0.14258,0.13367 0.3921,0.13367 z m 1.14063,-1.14063 h 1.65748 q 0.24952,0 0.3921,-0.13367 0.14258,-0.13367 0.14258,-0.31189 0,-0.17823 -0.14258,-0.31189 -0.14258,-0.13367 -0.3921,-0.13367 h -1.65748 q -0.24951,0 -0.39209,0.13367 -0.14258,0.13366 -0.14258,0.31189 0,0.17822 0.14258,0.31189 0.14258,0.13367 0.39209,0.13367 z m -1.14063,-1.14063 h 3.93875 q 0.24951,0 0.39209,-0.13367 0.14258,-0.13367 0.14258,-0.31189 0,-0.17823 -0.14258,-0.3119 -0.14258,-0.13366 -0.39209,-0.13366 h -3.93875 q -0.24952,0 -0.3921,0.13366 -0.14258,0.13367 -0.14258,0.3119 0,0.17822 0.14258,0.31189 0.14258,0.13367 0.3921,0.13367 z m -1.14064,-1.14064 h 1.65749 q 0.24951,0 0.39209,-0.13367 0.14258,-0.13366 0.14258,-0.31189 0,-0.17822 -0.14258,-0.31189 -0.14258,-0.13367 -0.39209,-0.13367 h -1.65749 q -0.24951,0 -0.39209,0.13367 -0.14258,0.13367 -0.14258,0.31189 0,0.17823 0.14258,0.31189 0.14258,0.13367 0.39209,0.13367 z m 4.56254,0 h 1.65748 q 0.24951,0 0.39209,-0.13367 0.14258,-0.13366 0.14258,-0.31189 0,-0.17822 -0.14258,-0.31189 -0.14258,-0.13367 -0.39209,-0.13367 h -1.65748 q -0.24952,0 -0.3921,0.13367 -0.14257,0.13367 -0.14257,0.31189 0,0.17823 0.14257,0.31189 0.14258,0.13367 0.3921,0.13367 z m -4.56254,-1.14063 h 1.65749 q 0.24951,0 0.39209,-0.13367 0.14258,-0.13367 0.14258,-0.31189 0,-0.17823 -0.14258,-0.31189 -0.14258,-0.13367 -0.39209,-0.13367 h -1.65749 q -0.24951,0 -0.39209,0.13367 -0.14258,0.13366 -0.14258,0.31189 0,0.17822 0.14258,0.31189 0.14258,0.13367 0.39209,0.13367 z m 4.56254,0 h 1.65748 q 0.24951,0 0.39209,-0.13367 0.14258,-0.13367 0.14258,-0.31189 0,-0.17823 -0.14258,-0.31189 -0.14258,-0.13367 -0.39209,-0.13367 h -1.65748 q -0.24952,0 -0.3921,0.13367 -0.14257,0.13366 -0.14257,0.31189 0,0.17822 0.14257,0.31189 0.14258,0.13367 0.3921,0.13367 z m 5.70317,6.8438 h 3.93875 q 0.24951,0 0.39209,-0.13367 0.14258,-0.13367 0.14258,-0.31189 0,-0.17822 -0.14258,-0.31189 -0.14258,-0.13367 -0.39209,-0.13367 h -3.93875 q -0.24952,0 -0.3921,0.13367 -0.14258,0.13367 -0.14258,0.31189 0,0.17822 0.14258,0.31189 0.14258,0.13367 0.3921,0.13367 z m -1.14064,-1.14063 h 1.65749 q 0.24951,0 0.39209,-0.13367 0.14258,-0.13367 0.14258,-0.31189 0,-0.17823 -0.14258,-0.3119 -0.14258,-0.13366 -0.39209,-0.13366 h -1.65749 q -0.24951,0 -0.39209,0.13366 -0.14258,0.13367 -0.14258,0.3119 0,0.17822 0.14258,0.31189 0.14258,0.13367 0.39209,0.13367 z m 4.56254,0 h 1.65748 q 0.24951,0 0.39209,-0.13367 0.14258,-0.13367 0.14258,-0.31189 0,-0.17823 -0.14258,-0.3119 -0.14258,-0.13366 -0.39209,-0.13366 h -1.65748 q -0.24952,0 -0.3921,0.13366 -0.14257,0.13367 -0.14257,0.3119 0,0.17822 0.14257,0.31189 0.14258,0.13367 0.3921,0.13367 z m -4.56254,-1.14064 h 1.65749 q 0.24951,0 0.39209,-0.13367 0.14258,-0.13366 0.14258,-0.31189 0,-0.17822 -0.14258,-0.31189 -0.14258,-0.13367 -0.39209,-0.13367 h -1.65749 q -0.24951,0 -0.39209,0.13367 -0.14258,0.13367 -0.14258,0.31189 0,0.17823 0.14258,0.31189 0.14258,0.13367 0.39209,0.13367 z m 4.56254,0 h 1.65748 q 0.24951,0 0.39209,-0.13367 0.14258,-0.13366 0.14258,-0.31189 0,-0.17822 -0.14258,-0.31189 -0.14258,-0.13367 -0.39209,-0.13367 h -1.65748 q -0.24952,0 -0.3921,0.13367 -0.14257,0.13367 -0.14257,0.31189 0,0.17823 0.14257,0.31189 0.14258,0.13367 0.3921,0.13367 z m -4.56254,-1.14063 h 5.07939 q 0.24951,0 0.39209,-0.13367 0.14258,-0.13367 0.14258,-0.31189 0,-0.17823 -0.14258,-0.31189 -0.14258,-0.13367 -0.39209,-0.13367 h -5.07939 q -0.24951,0 -0.39209,0.13367 -0.14258,0.13366 -0.14258,0.31189 0,0.17822 0.14258,0.31189 0.14258,0.13367 0.39209,0.13367 z m 0,-1.14063 h 1.65749 q 0.24951,0 0.39209,-0.13367 0.14258,-0.13367 0.14258,-0.31189 0,-0.17823 -0.14258,-0.3119 -0.14258,-0.13366 -0.39209,-0.13366 h -1.65749 q -0.24951,0 -0.39209,0.13366 -0.14258,0.13367 -0.14258,0.3119 0,0.17822 0.14258,0.31189 0.14258,0.13367 0.39209,0.13367 z m 0,-1.14064 h 1.65749 q 0.24951,0 0.39209,-0.13367 0.14258,-0.13366 0.14258,-0.31189 0,-0.17822 -0.14258,-0.31189 -0.14258,-0.13367 -0.39209,-0.13367 h -1.65749 q -0.24951,0 -0.39209,0.13367 -0.14258,0.13367 -0.14258,0.31189 0,0.17823 0.14258,0.31189 0.14258,0.13367 0.39209,0.13367 z m 4.56254,0 h 1.65748 q 0.24951,0 0.39209,-0.13367 0.14258,-0.13366 0.14258,-0.31189 0,-0.17822 -0.14258,-0.31189 -0.14258,-0.13367 -0.39209,-0.13367 h -1.65748 q -0.24952,0 -0.3921,0.13367 -0.14257,0.13367 -0.14257,0.31189 0,0.17823 0.14257,0.31189 0.14258,0.13367 0.3921,0.13367 z m -3.4219,-1.14063 h 3.93875 q 0.24951,0 0.39209,-0.13367 0.14258,-0.13367 0.14258,-0.31189 0,-0.17823 -0.14258,-0.31189 -0.14258,-0.13367 -0.39209,-0.13367 h -3.93875 q -0.24952,0 -0.3921,0.13367 -0.14258,0.13366 -0.14258,0.31189 0,0.17822 0.14258,0.31189 0.14258,0.13367 0.3921,0.13367 z"
       id="text1"
       transform="scale(0.91250746,1.0958815)"
       aria-label="X6" /><path
       style="font-weight:500;font-size:13.2082px;line-height:1.75;font-family:Poppins;-inkscape-font-specification:'Poppins Medium';letter-spacing:0px;word-spacing:0.698934px;stroke-width:0.349466"
       d="m 73.104405,145.90727 v 2.69447 h 3.169968 v 1.22836 h -3.169968 v 2.81335 h 3.566214 v 1.22836 H 71.59867 v -9.19291 h 5.071949 v 1.22837 z m 4.913453,4.31908 q 0,-1.1227 0.449079,-1.96802 0.462287,-0.85854 1.267987,-1.32082 0.8057,-0.46229 1.849148,-0.46229 1.32082,0 2.179353,0.63399 0.871741,0.62079 1.17553,1.78311 h -1.624609 q -0.198123,-0.54154 -0.633994,-0.84533 -0.43587,-0.30378 -1.09628,-0.30378 -0.924574,0 -1.479319,0.66041 -0.541536,0.6472 -0.541536,1.82273 0,1.17553 0.541536,1.83594 0.554745,0.66041 1.479319,0.66041 1.307612,0 1.730274,-1.14912 h 1.624609 q -0.316997,1.10949 -1.188738,1.7699 -0.871742,0.6472 -2.166145,0.6472 -1.043448,0 -1.849148,-0.46228 -0.8057,-0.4755 -1.267987,-1.32082 -0.449079,-0.85854 -0.449079,-1.98123 z m 9.932572,-6.12861 v 9.77407 h -1.505735 v -9.77407 z m 2.747305,1.53215 q -0.409455,0 -0.686827,-0.27737 -0.277372,-0.27737 -0.277372,-0.68682 0,-0.40946 0.277372,-0.68683 0.277372,-0.27737 0.686827,-0.27737 0.396246,0 0.673618,0.27737 0.277372,0.27737 0.277372,0.68683 0,0.40945 -0.277372,0.68682 -0.277372,0.27737 -0.673618,0.27737 z m 0.739659,0.9642 v 7.27772 h -1.505735 v -7.27772 z m 3.486965,1.06987 q 0.383038,-0.50191 1.043448,-0.84533 0.66041,-0.34341 1.492526,-0.34341 0.950991,0 1.730275,0.47549 0.792492,0.46229 1.241572,1.30762 0.44908,0.84532 0.44908,1.9416 0,1.09628 -0.44908,1.96802 -0.44908,0.85854 -1.241572,1.34724 -0.779284,0.47549 -1.730275,0.47549 -0.832116,0 -1.479318,-0.3302 -0.647202,-0.34341 -1.056656,-0.84533 v 4.51721 h -1.505735 v -10.73827 h 1.505735 z m 4.424747,2.53597 q 0,-0.75287 -0.316997,-1.2944 -0.303788,-0.55475 -0.818908,-0.83212 -0.501912,-0.29058 -1.083073,-0.29058 -0.567952,0 -1.083072,0.29058 -0.501912,0.29058 -0.818908,0.84533 -0.303789,0.55474 -0.303789,1.30761 0,0.75287 0.303789,1.32082 0.316996,0.55474 0.818908,0.84532 0.51512,0.29058 1.083072,0.29058 0.581161,0 1.083073,-0.29058 0.51512,-0.30379 0.818908,-0.87174 0.316997,-0.56795 0.316997,-1.32082 z m 5.666314,3.79075 q -0.85854,0 -1.54536,-0.30378 -0.67362,-0.317 -1.06987,-0.84533 -0.39624,-0.54153 -0.42266,-1.20194 h 1.55857 q 0.0396,0.46228 0.43587,0.77928 0.40945,0.30379 1.01703,0.30379 0.63399,0 0.97741,-0.23775 0.35662,-0.25096 0.35662,-0.63399 0,-0.40946 -0.39625,-0.60758 -0.38304,-0.19812 -1.22836,-0.43587 -0.81891,-0.22454 -1.33403,-0.43587 -0.51512,-0.21133 -0.89816,-0.6472 -0.36983,-0.43587 -0.36983,-1.14912 0,-0.58116 0.34342,-1.05665 0.34341,-0.48871 0.9774,-0.76608 0.64721,-0.27737 1.47932,-0.27737 1.24157,0 1.99444,0.63399 0.76608,0.62079 0.81891,1.70386 h -1.50574 q -0.0396,-0.4887 -0.39624,-0.77928 -0.35662,-0.29058 -0.9642,-0.29058 -0.59437,0 -0.91137,0.22454 -0.31699,0.22453 -0.31699,0.59436 0,0.29058 0.21133,0.48871 0.21133,0.19812 0.51512,0.31699 0.30379,0.10567 0.89816,0.27738 0.79249,0.21133 1.2944,0.43587 0.51512,0.21133 0.88495,0.63399 0.36983,0.42266 0.38304,1.1227 0,0.62078 -0.34342,1.10949 -0.34341,0.4887 -0.9774,0.76607 -0.62079,0.27737 -1.46611,0.27737 z m 11.08168,-3.93604 q 0,0.40946 -0.0528,0.73966 h -5.56065 q 0.066,0.87174 0.6472,1.40007 0.58116,0.52833 1.42649,0.52833 1.21515,0 1.71706,-1.01703 h 1.62461 q -0.3302,1.00382 -1.20195,1.65102 -0.85853,0.63399 -2.13972,0.63399 -1.04345,0 -1.87557,-0.46228 -0.81891,-0.4755 -1.2944,-1.32082 -0.46229,-0.85854 -0.46229,-1.98123 0,-1.1227 0.44908,-1.96802 0.46229,-0.85854 1.2812,-1.32082 0.83211,-0.46229 1.90198,-0.46229 1.03024,0 1.83594,0.44908 0.8057,0.44908 1.25478,1.26798 0.44907,0.8057 0.44907,1.86236 z m -1.57177,-0.47549 q -0.0132,-0.83212 -0.59437,-1.33403 -0.58116,-0.50191 -1.43969,-0.50191 -0.77929,0 -1.33403,0.50191 -0.55475,0.4887 -0.66041,1.33403 z"
       id="text2"
       aria-label="Eclipse" /></g></svg>
