<?xml version="1.0" encoding="UTF-8" standalone="no"?>
<!-- Created with Inkscape (http://www.inkscape.org/) -->

<svg
   width="50.643433mm"
   height="12.973361mm"
   viewBox="0 0 50.643433 12.973361"
   version="1.1"
   id="svg1"
   xmlns="http://www.w3.org/2000/svg"
   xmlns:svg="http://www.w3.org/2000/svg">
  <defs
     id="defs1" />
  <g
     id="layer1"
     transform="translate(-67.559305,-103.27033)">
    <path
       d="m 70.199793,111.84979 h -2.639815 q -0.01737,1.14623 0.416813,1.97986 0.43418,0.83362 1.163603,1.37201 0.746789,0.53838 1.701985,0.78152 0.972564,0.26051 1.997228,0.26051 1.267806,0 2.223002,-0.29524 0.972563,-0.29525 1.61515,-0.81626 0.659953,-0.53839 0.98993,-1.26781 0.329977,-0.72942 0.329977,-1.58041 0,-1.04204 -0.451547,-1.70199 -0.43418,-0.67732 -1.042032,-1.07677 -0.607852,-0.39944 -1.233071,-0.57311 -0.607852,-0.19104 -0.955196,-0.26051 -1.163603,-0.29524 -1.893025,-0.48628 -0.712056,-0.19104 -1.128868,-0.38208 -0.399446,-0.19104 -0.538384,-0.41681 -0.138937,-0.22578 -0.138937,-0.59049 0,-0.39944 0.173672,-0.65995 0.173672,-0.26051 0.43418,-0.43418 0.277875,-0.17368 0.607852,-0.24314 0.329977,-0.0695 0.659953,-0.0695 0.503649,0 0.920462,0.0868 0.43418,0.0868 0.764157,0.29525 0.329977,0.2084 0.521016,0.57311 0.208406,0.36471 0.243141,0.92047 h 2.639814 q 0,-1.07677 -0.416813,-1.82356 -0.399445,-0.76416 -1.094133,-1.25044 -0.694688,-0.48628 -1.597783,-0.69469 -0.885727,-0.22577 -1.85829,-0.22577 -0.833626,0 -1.667251,0.22577 -0.833626,0.22578 -1.49358,0.69469 -0.659953,0.46891 -1.076766,1.18097 -0.399446,0.69469 -0.399446,1.64988 0,0.851 0.31261,1.45885 0.329977,0.59048 0.850993,0.98993 0.521016,0.39945 1.180969,0.65995 0.659954,0.24314 1.354642,0.41682 0.677321,0.19104 1.337274,0.34734 0.659954,0.1563 1.18097,0.36471 0.521016,0.20841 0.833626,0.52102 0.329977,0.31261 0.329977,0.81626 0,0.46891 -0.243141,0.78152 -0.243141,0.29524 -0.607852,0.46891 -0.364711,0.17368 -0.781524,0.24314 -0.416813,0.0521 -0.781524,0.0521 -0.538384,0 -1.042032,-0.12157 -0.503649,-0.13894 -0.885728,-0.39945 -0.364711,-0.27787 -0.590484,-0.71205 -0.225774,-0.43418 -0.225774,-1.0594 z m 11.601293,-2.03197 q 0,-0.81625 0.173672,-1.58041 0.19104,-0.76416 0.590485,-1.35464 0.399446,-0.60786 1.042032,-0.9552 0.642587,-0.36471 1.563048,-0.36471 0.920462,0 1.563048,0.36471 0.642587,0.34734 1.042032,0.9552 0.399446,0.59048 0.573118,1.35464 0.191039,0.76416 0.191039,1.58041 0,0.78153 -0.191039,1.52832 -0.173672,0.72942 -0.573118,1.3199 -0.399445,0.59049 -1.042032,0.9552 -0.642586,0.34734 -1.563048,0.34734 -0.920461,0 -1.563048,-0.34734 -0.642586,-0.36471 -1.042032,-0.9552 -0.399445,-0.59048 -0.590485,-1.3199 -0.173672,-0.74679 -0.173672,-1.52832 z m -2.72665,0 q 0,1.35465 0.416813,2.53561 0.416812,1.16361 1.198336,2.03197 0.781524,0.86836 1.910393,1.37201 1.146235,0.48628 2.570345,0.48628 1.441478,0 2.570346,-0.48628 1.128868,-0.50365 1.910392,-1.37201 0.781524,-0.86836 1.198337,-2.03197 0.416813,-1.18096 0.416813,-2.53561 0,-1.38937 -0.416813,-2.57034 -0.416813,-1.19834 -1.198337,-2.08407 -0.781524,-0.88572 -1.910392,-1.38937 -1.128868,-0.50365 -2.570346,-0.50365 -1.42411,0 -2.570345,0.50365 -1.128869,0.50365 -1.910393,1.38937 -0.781524,0.88573 -1.198336,2.08407 -0.416813,1.18097 -0.416813,2.57034 z M 93.1245,103.56563 v 12.40018 h 8.77044 v -2.29247 h -6.04379 v -10.10771 z m 10.29876,0 v 12.40018 h 2.72665 v -12.40018 z m 6.98161,8.28416 h -2.63981 q -0.0174,1.14623 0.41681,1.97986 0.43418,0.83362 1.1636,1.37201 0.74679,0.53838 1.70199,0.78152 0.97256,0.26051 1.99723,0.26051 1.2678,0 2.223,-0.29524 0.97256,-0.29525 1.61515,-0.81626 0.65995,-0.53839 0.98993,-1.26781 0.32997,-0.72942 0.32997,-1.58041 0,-1.04204 -0.45154,-1.70199 -0.43418,-0.67732 -1.04204,-1.07677 -0.60785,-0.39944 -1.23307,-0.57311 -0.60785,-0.19104 -0.95519,-0.26051 -1.1636,-0.29524 -1.89303,-0.48628 -0.71205,-0.19104 -1.12887,-0.38208 -0.39944,-0.19104 -0.53838,-0.41681 -0.13894,-0.22578 -0.13894,-0.59049 0,-0.39944 0.17368,-0.65995 0.17367,-0.26051 0.43418,-0.43418 0.27787,-0.17368 0.60785,-0.24314 0.32997,-0.0695 0.65995,-0.0695 0.50365,0 0.92046,0.0868 0.43418,0.0868 0.76416,0.29525 0.32998,0.2084 0.52102,0.57311 0.2084,0.36471 0.24314,0.92047 h 2.63981 q 0,-1.07677 -0.41681,-1.82356 -0.39945,-0.76416 -1.09414,-1.25044 -0.69468,-0.48628 -1.59778,-0.69469 -0.88572,-0.22577 -1.85829,-0.22577 -0.83362,0 -1.66725,0.22577 -0.83362,0.22578 -1.49358,0.69469 -0.65995,0.46891 -1.07677,1.18097 -0.39944,0.69469 -0.39944,1.64988 0,0.851 0.31261,1.45885 0.32998,0.59048 0.85099,0.98993 0.52102,0.39945 1.18097,0.65995 0.65996,0.24314 1.35464,0.41682 0.67732,0.19104 1.33728,0.34734 0.65995,0.1563 1.18097,0.36471 0.52101,0.20841 0.83362,0.52102 0.32998,0.31261 0.32998,0.81626 0,0.46891 -0.24314,0.78152 -0.24314,0.29524 -0.60785,0.46891 -0.36471,0.17368 -0.78153,0.24314 -0.41681,0.0521 -0.78152,0.0521 -0.53838,0 -1.04203,-0.12157 -0.50365,-0.13894 -0.88573,-0.39945 -0.36471,-0.27787 -0.59049,-0.71205 -0.22577,-0.43418 -0.22577,-1.0594 z"
       id="text1"
       style="font-weight:bold;font-size:17.3672px;font-family:'Helvetica Neue';-inkscape-font-specification:'Helvetica Neue Bold';fill:#ffffff;stroke-width:1.44726"
       aria-label="SOLIS" />
  </g>
</svg>
