<?xml version="1.0" encoding="UTF-8" standalone="no"?>
<!-- Created with Inkscape (http://www.inkscape.org/) -->

<svg
   width="9.7028074mm"
   height="2.5177405mm"
   viewBox="0 0 9.7028074 2.5177405"
   version="1.1"
   id="svg1"
   xmlns="http://www.w3.org/2000/svg"
   xmlns:svg="http://www.w3.org/2000/svg">
  <defs
     id="defs1" />
  <g
     id="layer1"
     transform="translate(-54.331895,-118.47216)">
    <path
       style="font-weight:600;font-size:3.175px;font-family:Poppins;-inkscape-font-specification:'Poppins Semi-Bold';fill:#ffffff;stroke-width:0.5"
       d="m 56.17022,118.74518 v 2.21615 h -0.4445 v -0.94298 h -0.949325 v 0.94298 h -0.4445 v -2.21615 h 0.4445 v 0.91122 h 0.949325 v -0.91122 z m 2.073278,1.29857 q 0,0.0952 -0.0127,0.17145 h -1.285875 q 0.01587,0.1905 0.13335,0.29845 0.117475,0.10795 0.288925,0.10795 0.24765,0 0.352425,-0.21272 h 0.479425 q -0.0762,0.254 -0.2921,0.4191 -0.2159,0.16192 -0.530225,0.16192 -0.254,0 -0.4572,-0.11112 -0.200025,-0.1143 -0.314325,-0.32068 -0.111125,-0.20637 -0.111125,-0.47625 0,-0.27305 0.111125,-0.47942 0.111125,-0.20638 0.31115,-0.3175 0.200025,-0.11113 0.460375,-0.11113 0.250825,0 0.447675,0.10795 0.200025,0.10795 0.307975,0.30798 0.111125,0.19685 0.111125,0.45402 z m -0.460375,-0.127 q -0.0032,-0.17145 -0.123825,-0.27305 -0.12065,-0.10477 -0.295275,-0.10477 -0.1651,0 -0.2794,0.1016 -0.111125,0.0984 -0.136525,0.27622 z m 1.228727,-1.30492 v 2.3495 h -0.4445 v -2.3495 z m 0.663574,0.381 q -0.117475,0 -0.19685,-0.073 -0.0762,-0.0762 -0.0762,-0.18732 0,-0.11113 0.0762,-0.18415 0.07937,-0.0762 0.19685,-0.0762 0.117475,0 0.193675,0.0762 0.07937,0.073 0.07937,0.18415 0,0.11112 -0.07937,0.18732 -0.0762,0.073 -0.193675,0.073 z m 0.219075,0.20955 v 1.75895 h -0.4445 v -1.75895 z m 1.2192,1.78752 q -0.254,0 -0.4572,-0.11112 -0.2032,-0.1143 -0.320675,-0.32068 -0.1143,-0.20637 -0.1143,-0.47625 0,-0.26987 0.117475,-0.47625 0.12065,-0.20637 0.327025,-0.3175 0.206375,-0.1143 0.460375,-0.1143 0.254,0 0.460375,0.1143 0.206375,0.11113 0.32385,0.3175 0.12065,0.20638 0.12065,0.47625 0,0.26988 -0.123825,0.47625 -0.12065,0.20638 -0.3302,0.32068 -0.206375,0.11112 -0.46355,0.11112 z m 0,-0.38735 q 0.12065,0 0.225425,-0.0571 0.10795,-0.0603 0.17145,-0.1778 0.0635,-0.11747 0.0635,-0.28575 0,-0.25082 -0.13335,-0.38417 -0.130175,-0.13653 -0.320675,-0.13653 -0.1905,0 -0.320675,0.13653 -0.127,0.13335 -0.127,0.38417 0,0.25083 0.123825,0.38735 0.127,0.13335 0.3175,0.13335 z m 2.219326,-1.42557 q 0.314325,0 0.508,0.20002 0.193675,0.19685 0.193675,0.55245 v 1.03188 h -0.4445 v -0.97155 q 0,-0.20955 -0.104775,-0.32068 -0.104775,-0.1143 -0.28575,-0.1143 -0.18415,0 -0.2921,0.1143 -0.104775,0.11113 -0.104775,0.32068 v 0.97155 h -0.4445 v -1.75895 h 0.4445 v 0.21907 q 0.0889,-0.1143 0.225425,-0.1778 0.1397,-0.0667 0.3048,-0.0667 z"
       id="text1"
       aria-label="Helion" />
    <circle
       style="fill:#ffffff;stroke-width:0.499999"
       id="path2"
       cx="61.134136"
       cy="120.08541"
       r="0.65346932" />
  </g>
</svg>
