<?xml version="1.0" encoding="utf-8"?>
<!-- Generator: Adobe Illustrator 25.4.1, SVG Export Plug-In . SVG Version: 6.00 Build 0)  -->
<svg version="1.1" id="Ebene_1" xmlns="http://www.w3.org/2000/svg" xmlns:xlink="http://www.w3.org/1999/xlink" x="0px" y="0px"
	 width="290.6px" height="155.9px" viewBox="0 0 290.6 155.9" style="enable-background:new 0 0 290.6 155.9;" xml:space="preserve"
	>
<style type="text/css">
	.st0{fill:#FFFFFF;}
	.st1{fill:none;stroke:#9E9F7F;stroke-width:13;}
</style>
<g>
	<path class="st0" d="M69.2,59.7l-7.7-26.5h4.7L71.7,54l6.4-20.8h3.2L87.7,54l5.6-20.8H98l-7.7,26.5h-4.7l-5.8-18.3l-5.9,18.3H69.2z
		"/>
	<path class="st0" d="M101.8,59.7V33.2H116v3.7h-10v7.7h9.6v3.7H106V56h10v3.7H101.8z"/>
	<path class="st0" d="M128.2,60.2c-1.3,0-2.4-0.2-3.5-0.5c-1-0.3-2-0.7-2.7-1.2s-1.4-1-2-1.4s-0.9-0.9-1.2-1.2l2.2-3.4
		c0.3,0.3,0.7,0.7,1.1,1.1c0.5,0.4,1,0.8,1.6,1.3c0.6,0.4,1.3,0.8,2.1,1s1.6,0.4,2.5,0.4s1.6-0.1,2.3-0.4c0.7-0.3,1.2-0.7,1.6-1.3
		c0.4-0.6,0.6-1.3,0.6-2.1c0-0.7-0.2-1.4-0.5-1.9s-0.7-1-1.3-1.4s-1.2-0.8-2-1.1s-1.7-0.7-2.6-1.1c-0.7-0.3-1.4-0.6-2-1
		c-0.7-0.4-1.3-0.8-1.8-1.4c-0.5-0.5-1-1.1-1.3-1.8s-0.5-1.5-0.5-2.4c0-1,0.2-1.9,0.6-2.8c0.4-0.9,0.9-1.7,1.7-2.4
		c0.7-0.7,1.6-1.3,2.6-1.7s2.1-0.6,3.3-0.6c1,0,2,0.1,2.9,0.4c0.9,0.3,1.8,0.7,2.6,1.1c0.8,0.5,1.4,0.9,1.9,1.5l-1.8,3.2
		c-0.4-0.4-0.9-0.8-1.5-1.2s-1.2-0.7-1.9-0.9s-1.4-0.3-2.1-0.3c-0.9,0-1.6,0.2-2.2,0.5s-1.1,0.8-1.4,1.3c-0.3,0.6-0.5,1.2-0.5,1.8
		c0,0.5,0.1,1,0.3,1.4s0.5,0.7,0.9,1s0.9,0.5,1.4,0.8c0.5,0.2,1.1,0.5,1.7,0.7c1.2,0.5,2.2,1,3.2,1.4s1.8,1,2.6,1.6
		c0.7,0.6,1.3,1.3,1.7,2.2c0.4,0.8,0.6,1.9,0.6,3c0,1.7-0.4,3.1-1.2,4.2c-0.8,1.2-1.9,2.1-3.3,2.7C131.6,59.9,130,60.2,128.2,60.2z"
		/>
	<path class="st0" d="M144.9,59.7V36.9h-7.2v-3.7h18.6v3.7h-7.2v22.7L144.9,59.7L144.9,59.7z"/>
	<path class="st0" d="M76.2,98.7c-2,0-3.8-0.3-5.5-1s-3.2-1.7-4.5-3c-1.3-1.2-2.3-2.7-3-4.4c-0.7-1.7-1.1-3.5-1.1-5.4
		s0.4-3.7,1.1-5.4c0.7-1.7,1.7-3.1,3-4.4s2.8-2.2,4.4-2.9c1.7-0.7,3.5-1,5.5-1c1.7,0,3.2,0.2,4.7,0.7s2.7,1.2,3.9,2l-1.2,2
		c-0.9-0.8-2-1.3-3.3-1.7c-1.2-0.4-2.6-0.6-3.9-0.6c-1.7,0-3.2,0.3-4.6,0.9s-2.6,1.4-3.6,2.4s-1.8,2.2-2.4,3.6s-0.8,2.9-0.8,4.4
		c0,1.6,0.3,3.1,0.8,4.4c0.6,1.4,1.4,2.6,2.4,3.6s2.2,1.8,3.6,2.4s2.9,0.9,4.6,0.9c1.4,0,2.7-0.2,3.9-0.6c1.2-0.4,2.3-1,3.3-1.7
		l1.2,2c-1.1,0.8-2.4,1.5-3.8,2S77.9,98.7,76.2,98.7z"/>
	<path class="st0" d="M100.9,98.7c-1.9,0-3.6-0.4-5.2-1.1s-3-1.7-4.3-2.9c-1.2-1.3-2.2-2.7-2.9-4.4c-0.7-1.7-1-3.4-1-5.4
		c0-1.9,0.3-3.7,1-5.4c0.7-1.7,1.6-3.1,2.9-4.4c1.2-1.3,2.6-2.2,4.3-2.9c1.6-0.7,3.3-1.1,5.2-1.1c1.9,0,3.6,0.4,5.2,1.1
		s3,1.7,4.3,2.9c1.2,1.3,2.2,2.7,2.9,4.4c0.7,1.7,1,3.4,1,5.4c0,1.9-0.3,3.7-1,5.4c-0.7,1.7-1.6,3.1-2.9,4.4
		c-1.2,1.3-2.6,2.2-4.3,2.9C104.5,98.3,102.8,98.7,100.9,98.7z M100.9,96.3c1.5,0,2.9-0.3,4.2-0.9c1.3-0.6,2.4-1.4,3.4-2.4
		s1.7-2.2,2.3-3.6s0.8-2.9,0.8-4.5s-0.3-3.1-0.8-4.5s-1.3-2.6-2.3-3.6s-2.1-1.8-3.4-2.4s-2.7-0.9-4.2-0.9s-2.9,0.3-4.2,0.9
		c-1.3,0.6-2.4,1.4-3.4,2.4S91.6,79,91,80.4c-0.6,1.4-0.8,2.9-0.8,4.5s0.3,3.1,0.8,4.5c0.6,1.4,1.3,2.6,2.3,3.6s2.1,1.8,3.4,2.4
		C98,96,99.4,96.3,100.9,96.3z"/>
	<path class="st0" d="M120.1,98.2V71.7h2.4L136.8,94V71.7h2.4v26.5h-2.4l-14.2-22.3v22.3H120.1z"/>
	<path class="st0" d="M152.6,98.7c-1.4,0-2.6-0.2-3.6-0.6s-1.9-0.9-2.6-1.5c-0.7-0.6-1.3-1.2-1.7-1.7c-0.4-0.6-0.7-1-0.9-1.3
		l1.4-1.8c0.2,0.3,0.5,0.7,0.9,1.2s0.9,1,1.5,1.5s1.3,1,2.2,1.3c0.9,0.4,1.8,0.5,3,0.5c1.1,0,2-0.2,2.9-0.6s1.6-1,2.1-1.7
		c0.5-0.8,0.8-1.7,0.8-2.8c0-0.9-0.2-1.7-0.6-2.4s-0.9-1.2-1.5-1.7c-0.7-0.5-1.4-0.9-2.2-1.2s-1.7-0.7-2.6-1.1
		c-0.6-0.2-1.3-0.5-2-0.9c-0.7-0.3-1.4-0.8-2-1.3s-1.1-1.1-1.5-1.9c-0.4-0.7-0.6-1.6-0.6-2.6s0.2-1.9,0.5-2.7
		c0.4-0.9,0.9-1.6,1.5-2.3s1.4-1.2,2.3-1.5s1.9-0.6,3-0.6s2,0.2,2.9,0.5s1.7,0.8,2.3,1.3c0.7,0.5,1.2,1.1,1.5,1.6l-1.3,1.7
		c-0.3-0.5-0.7-1-1.3-1.4c-0.5-0.4-1.2-0.8-1.9-1.1c-0.7-0.3-1.5-0.4-2.4-0.4c-1.1,0-2,0.2-2.8,0.7s-1.3,1.1-1.7,1.8
		c-0.4,0.7-0.6,1.5-0.6,2.4c0,0.7,0.2,1.4,0.5,1.9s0.7,1,1.2,1.3c0.5,0.4,1.1,0.7,1.7,0.9s1.2,0.5,1.9,0.7c1,0.4,2,0.8,3,1.2
		c1,0.4,1.8,0.9,2.6,1.5c0.7,0.6,1.3,1.3,1.8,2.2c0.4,0.9,0.7,1.9,0.7,3.1c0,1.6-0.4,2.9-1.1,4c-0.8,1.1-1.8,2-3,2.5
		C155.6,98.4,154.2,98.7,152.6,98.7z"/>
	<path class="st0" d="M175.5,98.7c-3.1,0-5.3-0.8-6.9-2.5c-1.5-1.7-2.3-4.2-2.3-7.5v-17h2.4v16.5c0,2.7,0.6,4.8,1.7,6.1
		c1.1,1.3,2.8,2,5.1,2c2.2,0,3.9-0.7,5-2s1.7-3.4,1.7-6.1V71.7h2.5v17c0,3.3-0.8,5.8-2.3,7.5C180.8,97.9,178.5,98.7,175.5,98.7z"/>
	<path class="st0" d="M191.7,98.2V71.7h2.4V96h11.1v2.2H191.7z"/>
	<path class="st0" d="M214,98.2V73.9h-8.1v-2.2h18.6v2.2h-8.1v24.3H214z"/>
	<path class="st0" d="M229.4,98.2V71.7h2.4v26.5H229.4z"/>
	<path class="st0" d="M239.3,98.2V71.7h2.4L255.9,94V71.7h2.4v26.5h-2.4l-14.2-22.3v22.3H239.3z"/>
	<path class="st0" d="M277.2,98.7c-1.8,0-3.6-0.4-5.1-1.1c-1.6-0.7-3-1.7-4.1-2.9s-2.1-2.7-2.8-4.4c-0.7-1.7-1-3.5-1-5.4
		c0-1.8,0.3-3.5,0.9-5.1s1.5-3.1,2.6-4.4s2.5-2.3,4.2-3.1c1.6-0.8,3.5-1.1,5.6-1.1c1.4,0,2.7,0.2,3.9,0.5c1.2,0.3,2.3,0.8,3.4,1.4
		c1,0.6,1.9,1.3,2.7,2.2l-1.3,1.9c-1-1.1-2.3-2.1-3.8-2.8c-1.5-0.7-3.2-1-4.9-1c-1.7,0-3.2,0.3-4.5,0.9s-2.4,1.5-3.3,2.5
		c-0.9,1.1-1.6,2.3-2.1,3.7c-0.5,1.4-0.7,2.8-0.7,4.3c0,1.6,0.3,3.2,0.8,4.6s1.3,2.6,2.2,3.7s2.1,1.9,3.3,2.5
		c1.3,0.6,2.6,0.9,4.1,0.9c1.2,0,2.4-0.2,3.5-0.6s2.2-1,3.1-1.7s1.6-1.6,2.2-2.7c0.5-1,0.8-2.2,0.8-3.5v-1h-9.8v-2h12.3v2.4
		c0,1.9-0.4,3.5-1.1,4.9s-1.6,2.6-2.8,3.5c-1.2,0.9-2.5,1.6-3.9,2.1C280.1,98.5,278.7,98.7,277.2,98.7z"/>
</g>
<polyline class="st1" points="149.4,117 149.4,149.4 6.5,149.4 6.5,6.5 149.4,6.5 "/>
</svg>
