<?xml version="1.0" encoding="utf-8"?>
<!-- Generator: Adobe Illustrator 16.0.0, SVG Export Plug-In . SVG Version: 6.00 Build 0)  -->
<!DOCTYPE svg PUBLIC "-//W3C//DTD SVG 1.1//EN" "http://www.w3.org/Graphics/SVG/1.1/DTD/svg11.dtd">
<svg version="1.1" id="Layer_1" xmlns="http://www.w3.org/2000/svg" xmlns:xlink="http://www.w3.org/1999/xlink" x="0px" y="0px"
	 width="332.594px" height="90.997px" viewBox="0 0 332.594 90.997" enable-background="new 0 0 332.594 90.997"
	 xml:space="preserve">
<g>
	<path fill="#D28748" d="M45.257,22.749c-12.544,0-22.75,10.206-22.75,22.75c0,12.544,10.205,22.75,22.75,22.75
		c12.543,0,22.749-10.205,22.749-22.75C68.006,32.955,57.8,22.749,45.257,22.749z M45.257,56.873
		c-6.282,0-11.375-5.092-11.375-11.375c0-6.282,5.093-11.375,11.375-11.375c6.282,0,11.375,5.093,11.375,11.375
		C56.631,51.781,51.539,56.873,45.257,56.873z"/>
	<path fill="#D28748" d="M69.617,69.616c-6.179,6.18-14.71,10.006-24.118,10.006c-18.816,0-34.124-15.308-34.124-34.124
		s15.308-34.124,34.124-34.124c9.408,0,17.939,3.827,24.118,10.006l8.039-8.04C69.418,5.103,58.043,0,45.499,0
		C20.411,0,0,20.411,0,45.499c0,25.088,20.411,45.499,45.499,45.499c12.544,0,23.914-5.106,32.152-13.346L69.617,69.616z"/>
</g>
<g>
	<path fill="#FFFFFF" d="M101.825,23.664h7.431v44.584h-7.431V23.664z"/>
	<path fill="#FFFFFF" d="M117.229,35.867h6.102l1.389,3.383c1.49-1.127,3.191-2.063,5.105-2.809
		c1.913-0.745,3.815-1.118,5.709-1.118c3.543,0,6.102,1.038,7.672,3.111c1.571,2.075,2.356,4.824,2.356,8.247v21.567h-7.491V47.587
		c0-1.731-0.483-3.081-1.45-4.047c-0.967-0.967-2.276-1.45-3.927-1.45c-1.491,0-2.86,0.222-4.108,0.664
		c-1.249,0.444-2.538,1.108-3.867,1.994v23.5h-7.491V35.867z"/>
	<path fill="#FFFFFF" d="M154.925,64.774c-1.894-2.557-2.839-6.695-2.839-12.415c0-4.108,0.382-7.38,1.148-9.817
		c0.765-2.436,2.033-4.229,3.806-5.376c1.772-1.148,4.189-1.722,7.25-1.722c2.859,0,5.8,0.543,8.82,1.631V22.154h7.491v46.094
		h-6.223l-1.269-3.142c-1.048,0.927-2.477,1.743-4.289,2.447s-3.525,1.057-5.135,1.057C159.737,68.61,156.818,67.333,154.925,64.774
		z M173.109,60.455V42.452c-1.289-0.443-2.416-0.786-3.383-1.027c-0.967-0.242-2.015-0.363-3.142-0.363
		c-1.772,0-3.162,0.312-4.169,0.937c-1.007,0.625-1.742,1.722-2.205,3.292s-0.694,3.806-0.694,6.706
		c0,2.739,0.221,4.863,0.665,6.374c0.442,1.51,1.137,2.588,2.084,3.232c0.945,0.645,2.244,0.967,3.896,0.967
		C168.337,62.569,170.652,61.865,173.109,60.455z"/>
	<path fill="#FFFFFF" d="M190.478,66.073c-1.631-1.691-2.447-4.128-2.447-7.31V35.867h7.491v20.721c0,2.015,0.453,3.414,1.359,4.199
		c0.906,0.786,2.285,1.178,4.139,1.178c2.818,0,5.437-0.866,7.854-2.598v-23.5h7.491v32.381h-6.102l-1.39-3.383
		c-3.866,2.498-7.673,3.746-11.418,3.746C194.435,68.61,192.108,67.765,190.478,66.073z"/>
	<path fill="#FFFFFF" d="M228.506,68.278c-2.537-0.221-4.371-0.533-5.498-0.937v-4.41h13.955c1.651,0,2.85-0.221,3.595-0.665
		c0.745-0.442,1.118-1.349,1.118-2.718v-1.148c0-1.087-0.354-1.903-1.058-2.447c-0.705-0.543-1.843-0.815-3.413-0.815h-4.894
		c-6.524,0-9.787-2.839-9.787-8.518v-1.812c0-3.142,0.946-5.467,2.84-6.978c1.893-1.51,5.095-2.266,9.605-2.266
		c1.812,0,3.896,0.131,6.253,0.393c2.355,0.262,4.178,0.554,5.467,0.876v4.41h-13.17c-1.57,0-2.729,0.272-3.474,0.816
		c-0.745,0.543-1.117,1.46-1.117,2.749v1.148c0,1.249,0.382,2.084,1.147,2.507c0.765,0.423,1.973,0.635,3.625,0.635h5.014
		c3.102,0,5.438,0.725,7.008,2.175c1.571,1.45,2.356,3.504,2.356,6.162v2.658c0,3.142-1.048,5.347-3.142,6.615
		c-2.095,1.269-5.235,1.903-9.424,1.903C233.378,68.61,231.043,68.499,228.506,68.278z"/>
	<path fill="#FFFFFF" d="M258.379,65.711c-1.551-1.692-2.286-4.551-2.205-8.579l0.241-15.224h-5.074v-4.833l5.316-1.208l1.087-9.062
		h5.86v9.062h8.216v6.041h-8.216v15.164c0,1.894,0.353,3.212,1.058,3.957c0.704,0.746,1.62,1.178,2.748,1.299l4.048,0.423v5.498
		h-5.377C262.496,68.248,259.929,67.402,258.379,65.711z"/>
	<path fill="#FFFFFF" d="M277.317,35.867h5.8l1.691,5.195c1.409-1.771,2.909-3.151,4.501-4.138c1.591-0.986,3.393-1.48,5.407-1.48
		c0.966,0,1.872,0.121,2.718,0.362v7.612c-1.53-0.16-2.759-0.241-3.685-0.241c-1.894,0-3.524,0.312-4.894,0.936
		c-1.37,0.625-2.719,1.622-4.048,2.991v21.144h-7.491V35.867z"/>
	<path fill="#FFFFFF" d="M316.042,68.248c-4.914,0-8.136-2.758-9.666-8.276l-6.646-24.104h7.732l5.86,22.594
		c0.362,1.087,0.805,1.894,1.329,2.417c0.522,0.524,0.976,0.846,1.359,0.966c0.382,0.121,0.835,0.202,1.359,0.242l6.705-26.219
		h7.612l-10.391,40.718l-2.9,5.981h-6.102L316.042,68.248z"/>
</g>
</svg>
