<?xml version="1.0" encoding="utf-8"?>
<!-- Generator: Adobe Illustrator 25.2.1, SVG Export Plug-In . SVG Version: 6.00 Build 0)  -->
<svg version="1.1" id="Ebene_1" xmlns="http://www.w3.org/2000/svg" xmlns:xlink="http://www.w3.org/1999/xlink" x="0px" y="0px"
	 viewBox="0 0 275.18 31.77" style="enable-background:new 0 0 275.18 31.77;" xml:space="preserve">
<style type="text/css">
	.st0{fill:#D8A83D;}
</style>
<g>
	<path class="st0" d="M23.02,24.45h-4.14v6.71h-4.82v-6.71H0v-3.81L14.05,0.32h4.82v20.03h4.14V24.45z M14.05,20.34v-7.72
		c0-2.75,0.07-5,0.21-6.75H14.1c-0.39,0.93-1.01,2.05-1.85,3.37L4.61,20.34H14.05z"/>
	<path class="st0" d="M26.57,28.53c0-1.02,0.27-1.81,0.8-2.36c0.53-0.55,1.3-0.82,2.31-0.82c1.02,0,1.8,0.28,2.34,0.85
		c0.53,0.57,0.8,1.34,0.8,2.32c0,1-0.27,1.79-0.81,2.37s-1.31,0.87-2.32,0.87s-1.78-0.29-2.31-0.86
		C26.84,30.33,26.57,29.54,26.57,28.53z"/>
	<path class="st0" d="M58.32,13.53c0,6.06-1.22,10.58-3.66,13.57s-6.12,4.48-11.02,4.48c-1.87,0-3.21-0.11-4.02-0.34V27.1
		c1.25,0.35,2.5,0.53,3.77,0.53c3.34,0,5.83-0.9,7.47-2.69c1.64-1.79,2.54-4.61,2.69-8.46h-0.25c-0.83,1.26-1.83,2.17-3,2.74
		c-1.17,0.56-2.54,0.84-4.11,0.84c-2.72,0-4.86-0.85-6.42-2.54c-1.56-1.7-2.34-4.03-2.34-6.99c0-3.21,0.9-5.77,2.7-7.67
		S44.39,0,47.5,0c2.19,0,4.1,0.53,5.72,1.6c1.63,1.07,2.88,2.61,3.77,4.64C57.88,8.26,58.32,10.69,58.32,13.53z M47.59,4.1
		c-1.71,0-3.02,0.56-3.93,1.67c-0.91,1.12-1.37,2.68-1.37,4.7c0,1.75,0.42,3.13,1.27,4.13c0.85,1,2.14,1.5,3.86,1.5
		c1.67,0,3.07-0.5,4.21-1.49c1.14-1,1.7-2.16,1.7-3.49c0-1.25-0.24-2.42-0.73-3.5s-1.16-1.95-2.03-2.58S48.71,4.1,47.59,4.1z"/>
</g>
<polygon class="st0" points="221.24,0.22 225.16,12.26 237.83,12.26 227.58,19.71 231.49,31.76 221.24,24.31 210.99,31.76 
	214.91,19.71 204.66,12.26 217.33,12.26 "/>
<polygon class="st0" points="258.6,0.22 262.51,12.26 275.18,12.26 264.93,19.71 268.85,31.76 258.6,24.31 248.35,31.76 
	252.26,19.71 242.01,12.26 254.68,12.26 "/>
<polygon class="st0" points="183.89,0.22 187.8,12.26 200.47,12.26 190.22,19.71 194.14,31.76 183.89,24.31 173.64,31.76 
	177.55,19.71 167.3,12.26 179.97,12.26 "/>
<polygon class="st0" points="146.53,0.22 150.45,12.26 163.12,12.26 152.87,19.71 156.78,31.76 146.53,24.31 136.28,31.76 
	140.2,19.71 129.95,12.26 142.62,12.26 "/>
<polygon class="st0" points="109.18,0.22 113.09,12.26 125.76,12.26 115.51,19.71 119.43,31.76 109.18,24.31 98.93,31.76 
	102.85,19.71 92.6,12.26 105.26,12.26 "/>
</svg>
