<svg xmlns="http://www.w3.org/2000/svg" viewBox="0 0 84.279 66.545"><path fill="#FFF" d="M68.405 15.645c-6.729-1.854-8.096-3.541-9.162-11.277a.996.996 0 00-.988-.864H26.028c-.5 0-.924.369-.99.864-1.064 7.736-2.434 9.422-9.161 11.277a1 1 0 00-.727 1.086c1.938 15.708 9.656 42.778 26.313 45.198a1.027 1.027 0 00.55.099l.127-.014.129.014a.88.88 0 00.492-.094c16.697-2.367 24.432-29.479 26.369-45.205a.994.994 0 00-.725-1.084zM42.243 59.987a1.87 1.87 0 00-.103.02c-.034-.008-.069-.014-.104-.02-15.388-1.926-22.857-28.254-24.793-42.654 6.973-2.077 8.587-4.716 9.65-11.83h30.492c1.062 7.114 2.676 9.753 9.65 11.83-1.933 14.4-9.403 40.729-24.792 42.654z"/></svg>