<svg xmlns="http://www.w3.org/2000/svg" viewBox="0 0 70.574 77.439"><path fill="#303030" d="M68.239 18.297c-8.479-2.335-10.201-4.462-11.544-14.208A1.256 1.256 0 0055.449 3H14.843c-.63 0-1.165.465-1.248 1.089-1.341 9.747-3.066 11.872-11.543 14.208a1.26 1.26 0 00-.916 1.368c2.441 19.794 12.167 53.903 33.155 56.951a1.278 1.278 0 00.692.126l.16-.017.163.017c.217.026.429-.025.619-.117 21.039-2.983 30.785-37.146 33.226-56.96a1.253 1.253 0 00-.912-1.368zM35.275 74.171c-.045.007-.086.016-.129.024a1.917 1.917 0 00-.132-.024C15.626 71.744 6.214 38.57 3.775 20.426c8.786-2.618 10.82-5.942 12.16-14.906h38.42c1.339 8.964 3.372 12.289 12.159 14.906-2.437 18.144-11.849 51.318-31.239 53.745z"/></svg>