<?xml version="1.0" encoding="utf-8"?>
<!-- Generator: Adobe Illustrator 25.4.1, SVG Export Plug-In . SVG Version: 6.00 Build 0)  -->
<svg version="1.1" id="Ebene_1" xmlns="http://www.w3.org/2000/svg" xmlns:xlink="http://www.w3.org/1999/xlink" x="0px" y="0px"
	 width="1215.8px" height="1423.6px" viewBox="0 0 1215.8 1423.6" style="enable-background:new 0 0 1215.8 1423.6;"
	 xml:space="preserve">
<style type="text/css">
	.st0{opacity:0.15;fill:none;stroke:#000000;stroke-width:5;stroke-miterlimit:10;}
</style>
<path class="st0" d="M305.1,31.9C390.7,81.3,527.2,210,627.3,361.4S785.9,507.8,864,524.9c78.1,17.1,256.3,97.6,310,205
	s70.8,217.2-41.5,346.6c-88.3,101.7-174.1,96.8-300.2,78.1c-84.5-12.5-122-2.4-161.1,17.1c-39.1,19.5-104.9,117.2-146.4,153.8
	s-168.4,104.9-239.2,97.6c-71.1-7.4-153.8-41.5-183.1-168.4s7.3-280.7,39.1-427.1s70.1-260-36.6-405.2C43.9,339.4,0,258.9,0,207.6
	S14.6,58.7,100.1,22.1C180.1-12.2,241.6-4.7,305.1,31.9z"/>
</svg>
