<?xml version="1.0" encoding="utf-8"?>
<!-- Generator: Adobe Illustrator 25.4.1, SVG Export Plug-In . SVG Version: 6.00 Build 0)  -->
<svg version="1.1" id="Ebene_1" xmlns="http://www.w3.org/2000/svg" xmlns:xlink="http://www.w3.org/1999/xlink" x="0px" y="0px"
	 width="1309.2px" height="995px" viewBox="0 0 1309.2 995" style="enable-background:new 0 0 1309.2 995;" xml:space="preserve">
<style type="text/css">
	.st0{opacity:0.7;fill:url(#SVGID_1_);}
</style>
<linearGradient id="SVGID_1_" gradientUnits="userSpaceOnUse" x1="112.8384" y1="780.0499" x2="1039.583" y2="-146.6947">
	<stop  offset="0" style="stop-color:#FA8D8C"/>
	<stop  offset="1" style="stop-color:#DA52A5"/>
</linearGradient>
<path class="st0" d="M68.3,76.1c34.8-40.6,91.6-63.8,144.6-71.4c53.4-7.7,133.5,0.2,212.3,31.1C579,96.2,655.9,162.1,729.1,151.1
	c73.2-11,104.3-38.4,181.2-89.7s226.5-93.8,309.4-27.5c9,7.2,30.3,31,38.1,41.1c49.2,63.2,64.1,146.9,40.3,223.4
	c-10.8,34.6-29.2,71.8-60.1,105.3c-91.5,98.8-223.3,124.5-283.7,155.6s-113.5,93.4-164.7,186.7S610.1,995,425.2,995
	c-111.7,0-225.2-100.7-234.3-181.2c-9.2-80.5,49.4-159.3,31.1-232.5S106.7,416.6,82.9,396.4S-22.7,293.5,6,185.9
	C20.7,131,44.3,104.1,68.3,76.1z"/>
</svg>
