<?xml version="1.0" encoding="utf-8"?>
<!-- Generator: Adobe Illustrator 25.4.1, SVG Export Plug-In . SVG Version: 6.00 Build 0)  -->
<svg version="1.1" id="Ebene_1" xmlns="http://www.w3.org/2000/svg" xmlns:xlink="http://www.w3.org/1999/xlink" x="0px" y="0px"
	 width="1325.1px" height="1397.8px" viewBox="0 0 1325.1 1397.8" style="enable-background:new 0 0 1325.1 1397.8;"
	 xml:space="preserve">
<style type="text/css">
	.st0{opacity:0.2;fill:none;stroke:#FCFCFC;stroke-width:5;stroke-miterlimit:10;enable-background:new    ;}
</style>
<path class="st0" d="M277.6,18.3c92.7,34.2,249.1,137.9,373.3,270.2s181.1,117.4,261,121.1c79.9,3.6,269.1,52.8,340.2,149.5
	s106.6,202.1,17.8,348.6c-69.8,115.2-155.2,124.9-282.6,127.8c-85.4,2-120.6,18.3-155.9,44.1c-35.2,25.8-71.5,96.3-103.5,141.5
	c-79.9,113.1-145.9,156.4-234,171.6c-70.6,12.1-158.6-14.9-209-135c-50.4-120.1-40.3-277.9-33.8-427.6S276.3,562,146.5,437
	C72.2,365.5,15.3,293.6,6.7,243.1S-4.2,93.9,73.9,43.3C146.9-4,208.8-7.1,277.6,18.3z"/>
</svg>
