<svg xmlns="http://www.w3.org/2000/svg" viewBox="0 0 188.453 45.598"><circle fill="none" stroke="#9D9D9C" stroke-miterlimit="10" cx="22.798" cy="22.798" r="22.298"/><circle fill="none" stroke="#9D9D9C" stroke-miterlimit="10" cx="70.417" cy="22.798" r="22.299"/><circle fill="none" stroke="#9D9D9C" stroke-miterlimit="10" cx="118.036" cy="22.799" r="22.298"/><circle fill="none" stroke="#9D9D9C" stroke-miterlimit="10" cx="165.654" cy="22.799" r="22.298"/><path d="M32.504 21.586c-2.939-2.397-6.108-3.732-10.079-3.732s-7.139 1.334-10.079 3.732a.479.479 0 01-.28.106c-.292 0-2.138-1.701-2.138-1.984a.37.37 0 01.127-.271c3.22-2.964 7.865-4.606 12.37-4.606s9.15 1.642 12.37 4.606a.374.374 0 01.127.271c0 .284-1.845 1.984-2.138 1.984a.479.479 0 01-.28-.106zm-3.461 3.213c-2.1-1.512-3.869-2.41-6.618-2.41-3.843 0-6.77 2.503-6.91 2.503-.292 0-2.125-1.701-2.125-1.984a.37.37 0 01.127-.26c2.278-2.114 5.714-3.283 8.908-3.283s6.63 1.169 8.908 3.283a.369.369 0 01.127.26c0 .283-1.833 1.984-2.125 1.984a.615.615 0 01-.292-.093zm-6.618 2.125c-1.883 0-3.245 1.182-3.436 1.182-.305 0-2.15-1.701-2.15-1.984 0-.105.051-.201.127-.271 1.362-1.252 3.576-1.949 5.459-1.949s4.098.697 5.459 1.949c.076.07.127.166.127.271 0 .283-1.845 1.984-2.15 1.984-.178-.001-1.565-1.182-3.436-1.182zm-2.112 2.41c0-.578 1.629-.898 2.112-.898s2.112.32 2.112.898c0 .318-1.781 1.973-2.112 1.973s-2.112-1.655-2.112-1.973zM78.698 28.451c-.267.58-.98.957-1.553 1.252-.75.379-1.514.604-2.367.604-1.184 0-2.252-.449-3.334-.814a12.604 12.604 0 01-2.227-.98c-2.163-1.24-4.772-3.662-6.108-5.669a10.686 10.686 0 01-1.056-2.067c-.395-1.004-.878-1.996-.878-3.094 0-.792.242-1.5.649-2.197.318-.532.726-1.193 1.349-1.441.42-.177 1.311-.366 1.769-.366.089 0 .178 0 .267.036.267.083.547.661.674.897.407.673.802 1.358 1.222 2.02.204.307.585.685.585 1.051 0 .72-2.303 1.771-2.303 2.409 0 .319.318.732.496 1.016 1.285 2.149 2.889 3.638 5.205 4.83.305.166.75.461 1.094.461.687 0 1.82-2.137 2.596-2.137.395 0 .802.354 1.132.543.713.389 1.451.756 2.176 1.133.254.119.878.379.967.627.038.082.038.166.038.248.002.423-.202 1.249-.393 1.638zM119.512 21.121l.572 9.697c.025.412-.318.756-.764.756h-2.443c-.445 0-.789-.344-.764-.756l.572-9.697c-1.553-.566-2.659-2.114-2.659-4.476 0-3.023 1.819-6.236 4.072-6.236s4.072 3.212 4.072 6.236c.001 2.362-1.106 3.91-2.658 4.476zM157.586 29.913h-.814c-1.566 0-2.852-1.192-2.852-2.646v-9.826c0-1.453 1.285-2.646 2.852-2.646h.814v15.118zm14.252 0h-13.031V14.796h1.629v-1.89c0-.626.548-1.134 1.223-1.134h7.33c.674 0 1.221.508 1.221 1.134v1.89h1.629v15.117zm-3.258-15.117v-1.512h-6.516v1.512h6.516zm8.145 12.471c0 1.453-1.285 2.646-2.85 2.646h-.814V14.796h.814c1.564 0 2.85 1.193 2.85 2.646v9.825z"/></svg>