<?xml version="1.0" encoding="UTF-8"?>
<svg xmlns="http://www.w3.org/2000/svg" id="Ebene_1" version="1.1" viewBox="0 0 2442 2442">
  <defs>
    <style>
      .st0 {
        opacity: .1;
      }

      .st0, .st1, .st2, .st3 {
        fill: #0f4f25;
      }

      .st4, .st2 {
        opacity: .05;
      }

      .st2, .st3 {
        isolation: isolate;
      }

      .st3 {
        opacity: .04;
      }
    </style>
  </defs>
  <rect class="st0" x="0" y="0" width="2442" height="2442"></rect>
  <path class="st3" d="M1747.27,1123.74l-1112.42-1.31c-20.6-.02-37.81-15.68-39.77-36.18l-24.55-256.15c-2.2-22.92,15.36-42.96,38.37-43.79l1145.73-41.52c23.11-.84,42.11,18.03,41.43,41.15l-8.76,298.97c-.63,21.64-18.38,38.85-40.03,38.83h0Z"></path>
  <path class="st3" d="M1782.82,2069.44l-1112.42-1.31c-20.6-.02-37.81-15.68-39.77-36.18l-24.55-256.15c-2.2-22.92,15.36-42.96,38.37-43.79l1145.73-41.52c23.11-.84,42.11,18.03,41.43,41.15l-8.76,298.97c-.63,21.64-18.38,38.85-40.03,38.83h0Z"></path>
  <path class="st2" d="M574.16,1249.59l43.65-266.79c3.34-20.39,21.65-34.88,42.26-33.44l1159.91,80.94c22.3,1.56,38.99,21.08,37.07,43.35l-16.64,192.55c-1.79,20.77-19.23,36.67-40.08,36.56l-1186.93-6.7c-24.58-.14-43.22-22.2-39.25-46.46h.01Z"></path>
  <path class="st3" d="M680.27,1609.62c-21.65.02-39.4-17.19-40.03-38.83l-8.76-298.97c-.68-23.12,18.32-41.99,41.43-41.15l1145.73,41.52c23.01.83,40.57,20.87,38.37,43.79l-24.55,256.15c-1.96,20.5-19.17,36.16-39.77,36.18l-1112.42,1.31h0Z"></path>
  <path class="st3" d="M663.68,2339.64c-21.65.02-39.4-17.19-40.03-38.83l-8.76-298.97c-.68-23.12,18.32-41.99,41.43-41.15l1145.73,41.52c23.01.83,40.57,20.87,38.37,43.79l-24.55,256.15c-1.96,20.5-19.17,36.16-39.77,36.18l-1112.42,1.31h0Z"></path>
  <path class="st2" d="M1853.39,1735.48c3.97,24.26-14.67,46.32-39.25,46.46l-1186.93,6.7c-20.85.11-38.29-15.79-40.08-36.56l-16.64-192.55c-1.92-22.27,14.77-41.79,37.07-43.35l1159.91-80.94c20.61-1.44,38.92,13.05,42.26,33.44l43.65,266.79h.01Z"></path>
  <g class="st4">
    <path class="st1" d="M686.76,295.07c-4.46,0-7.36-.39-9.23-2.3-2.12-2.3-2.34-4.07-1.91-9.7-5.24-1.26-10.87-2.64-16.76-4.16-9.44-2.38-19.27-4.85-27.72-6.67-3.68.87-7.71,1.86-11.82,2.9-10.61,2.6-22.61,5.54-32.22,7.93.35,5.85.17,7.49-1.95,9.7-1.82,1.91-4.81,2.25-9.36,2.25s-2.86-.09-4.46-.09c-1.95,14.42-.87,32.48,2.73,45.04,4.07,14.08,11.39,26.33,21.27,35.39h0c10.65,10.31,23.43,17.8,35.99,21.31,12.99-3.29,26.16-12.21,34.22-19.4,10.61-9.36,18.28-21.35,22.65-35.6,3.94-12.73,5.2-31.44,3.21-46.65-1.65.09-.13.09-4.55.09h0l-.09-.04h0ZM662.46,351.37h-12.26v15.81h-16.98v-15.81h-40.5v-11.69l35.47-47.69h18.28l-32.87,45.22h20.18v-14.08h16.41v14.08h12.26v14.16h0Z"></path>
    <path class="st1" d="M700.1,290.87v-.09l-.39-2.38-2.43.09c-6.97.17-11.52.3-13.12-1.39-1.3-1.39-1.69-1.86-1.17-8.53l.17-2.3-2.25-.56c-5.85-1.39-12.13-2.99-18.75-4.59-10.44-2.6-21.18-5.33-30.49-7.28l-.61-.13-.61.17c-4.07,1-8.49,2.04-13.08,3.21-11.78,2.86-25.12,6.11-35.64,8.75l-2.17.56.13,2.25c.48,6.89.09,7.23-1.21,8.58-1.6,1.65-6.15,1.56-13.12,1.39h-2.38l-.35,2.3c-2.25,15.9-1.21,36.25,3.03,50.93,4.59,15.94,12.91,29.75,24.08,40.02,12.04,11.56,26.55,20.01,40.8,23.95l.69.17.69-.17c14.81-3.72,29.8-13.77,38.89-21.92,12.08-10.61,20.7-24.12,25.73-40.28,4.63-14.9,5.85-35.86,3.55-52.67h0v-.09h0ZM691.09,342.49c-4.55,14.81-12.47,27.29-23.56,36.99-8.32,7.45-22.05,16.67-35.6,20.1l-.65.17-.65-.17c-13.12-3.55-26.42-11.39-37.42-22-10.22-9.44-17.89-22.13-22.09-36.77-3.9-13.47-4.85-32.18-2.77-46.78,0,0,.3-2.17.3-2.12h2.17c1.78.09,1.17.09,4.81.09s6.11-.26,7.15-1.34c1.21-1.21,1.56-1.56,1.13-7.88l-.13-2.04,1.99-.52c9.66-2.43,21.92-5.41,32.7-8.06,4.2-1.04,8.27-1.99,12-2.95l.56-.13h.04l.56.17c8.53,1.82,18.41,4.33,27.94,6.71,6.06,1.52,11.82,2.99,17.19,4.24l2.04.52-.17,2.08c-.48,6.15-.13,6.58,1.08,7.84,1.04,1.08,3.42,1.34,7.06,1.34s3.16-.04,4.98-.17h2.21l.3,2.21c2.12,15.42,1,34.69-3.25,48.42h0l.09.04h0Z"></path>
  </g>
  <g class="st4">
    <path class="st1" d="M463.23,814.83c-4.46,0-7.36-.39-9.23-2.3-2.12-2.3-2.34-4.07-1.91-9.7-5.24-1.26-10.87-2.64-16.76-4.16-9.44-2.38-19.27-4.85-27.72-6.67-3.68.87-7.71,1.86-11.82,2.9-10.61,2.6-22.61,5.54-32.22,7.93.35,5.85.17,7.49-1.95,9.7-1.82,1.91-4.81,2.25-9.36,2.25s-2.86-.09-4.46-.09c-1.95,14.42-.87,32.48,2.73,45.04,4.07,14.08,11.39,26.33,21.27,35.39h0c10.65,10.31,23.43,17.8,35.99,21.31,12.99-3.29,26.16-12.21,34.22-19.4,10.61-9.36,18.28-21.35,22.65-35.6,3.94-12.73,5.2-31.44,3.21-46.65-1.65.09-.13.09-4.55.09h0l-.09-.04h0ZM438.94,871.13h-12.26v15.81h-16.98v-15.81h-40.5v-11.69l35.47-47.69h18.28l-32.87,45.22h20.18v-14.08h16.41v14.08h12.26v14.16h.01Z"></path>
    <path class="st1" d="M476.57,810.63v-.09l-.39-2.38-2.43.09c-6.97.17-11.52.3-13.12-1.39-1.3-1.39-1.69-1.86-1.17-8.53l.17-2.3-2.25-.56c-5.85-1.39-12.13-2.99-18.75-4.59-10.44-2.6-21.18-5.33-30.49-7.28l-.61-.13-.61.17c-4.07,1-8.49,2.04-13.08,3.21-11.78,2.86-25.12,6.11-35.64,8.75l-2.17.56.13,2.25c.48,6.89.09,7.23-1.21,8.58-1.6,1.65-6.15,1.56-13.12,1.39h-2.38l-.35,2.3c-2.25,15.9-1.21,36.25,3.03,50.93,4.59,15.94,12.91,29.75,24.08,40.02,12.04,11.56,26.55,20.01,40.8,23.95l.69.17.69-.17c14.81-3.72,29.8-13.77,38.89-21.92,12.08-10.61,20.7-24.12,25.73-40.28,4.63-14.9,5.85-35.86,3.55-52.67h0v-.09h0ZM467.56,862.25c-4.55,14.81-12.47,27.29-23.56,36.99-8.32,7.45-22.05,16.67-35.6,20.1l-.65.17-.65-.17c-13.12-3.55-26.42-11.39-37.42-22-10.22-9.44-17.89-22.13-22.09-36.77-3.9-13.47-4.85-32.18-2.77-46.78,0,0,.3-2.17.3-2.12h2.17c1.78.09,1.17.09,4.81.09s6.11-.26,7.15-1.34c1.21-1.21,1.56-1.56,1.13-7.88l-.13-2.04,1.99-.52c9.66-2.43,21.92-5.41,32.7-8.06,4.2-1.04,8.27-1.99,12-2.95l.56-.13h.04l.56.17c8.53,1.82,18.41,4.33,27.94,6.71,6.06,1.52,11.82,2.99,17.19,4.24l2.04.52-.17,2.08c-.48,6.15-.13,6.58,1.08,7.84,1.04,1.08,3.42,1.34,7.06,1.34s3.16-.04,4.98-.17h2.21l.3,2.21c2.12,15.42,1,34.69-3.25,48.42h0l.09.04h0Z"></path>
  </g>
</svg>
