<svg xmlns="http://www.w3.org/2000/svg" viewBox="0 0 66.16 62.875"><path fill="#FFF" d="M54.111 29.211c-6.005-4.898-12.477-7.625-20.587-7.625s-14.584 2.726-20.588 7.625c-.156.118-.365.216-.573.216-.596 0-4.367-3.473-4.367-4.055 0-.215.104-.409.261-.555 6.579-6.053 16.066-9.408 25.27-9.408 9.203 0 18.691 3.354 25.269 9.408.156.146.259.34.259.555 0 .582-3.77 4.055-4.366 4.055a.996.996 0 01-.578-.216zm-7.069 6.562c-4.289-3.088-7.902-4.921-13.518-4.921-7.852 0-13.829 5.114-14.117 5.114-.596 0-4.341-3.472-4.341-4.055 0-.19.106-.38.261-.527 4.652-4.319 11.673-6.708 18.198-6.708s13.544 2.388 18.198 6.708c.156.147.259.339.259.527 0 .583-3.743 4.055-4.339 4.055-.212 0-.445-.098-.601-.193zm-13.518 4.341c-3.85 0-6.63 2.415-7.021 2.415-.622 0-4.391-3.474-4.391-4.055 0-.212.103-.409.259-.553 2.781-2.558 7.306-3.981 11.154-3.981 3.846 0 8.371 1.424 11.152 3.981a.765.765 0 01.261.553c0 .581-3.771 4.055-4.395 4.055-.362-.002-3.197-2.415-7.019-2.415zm-4.317 4.924c0-1.18 3.329-1.835 4.317-1.835.987 0 4.315.655 4.315 1.835 0 .651-3.64 4.028-4.315 4.028-.677 0-4.317-3.377-4.317-4.028z"/></svg>