<?xml version="1.0" encoding="utf-8"?>
<!-- Generator: Adobe Illustrator 16.0.0, SVG Export Plug-In . SVG Version: 6.00 Build 0)  -->
<!DOCTYPE svg PUBLIC "-//W3C//DTD SVG 1.1//EN" "http://www.w3.org/Graphics/SVG/1.1/DTD/svg11.dtd">
<svg version="1.1" id="Ebene_1" xmlns="http://www.w3.org/2000/svg" xmlns:xlink="http://www.w3.org/1999/xlink" x="0px" y="0px"
	 width="130.752px" height="94.218px" viewBox="0 0 130.752 94.218" enable-background="new 0 0 130.752 94.218"
	 xml:space="preserve">
<path fill="#FFFFFF" d="M67.503,0c0,0-21.75,18.61-21.75,51.86S67.503,92,67.503,92s22.5-5.641,22.5-39.641S67.503,0,67.503,0z"/>
<path opacity="0.5" fill="#FFFFFF" d="M130.64,26.208c0,0-28.538-2.22-52.05,21.291C55.079,71.01,65.586,91.262,65.586,91.262
	s19.898,11.922,43.939-12.12C133.567,55.1,130.64,26.208,130.64,26.208z"/>
<path opacity="0.5" fill="#FFFFFF" d="M0.112,26.208c0,0,28.538-2.22,52.05,21.291C75.673,71.01,65.166,91.262,65.166,91.262
	s-19.898,11.922-43.939-12.12C-2.815,55.1,0.112,26.208,0.112,26.208z"/>
</svg>
