<svg xmlns="http://www.w3.org/2000/svg" viewBox="0 0 733.046 166.735"><g fill="#FFF"><path d="M21.894 108.534c-4.806-4.183-8.434-9.899-10.88-17.154-2.449-7.253-3.671-15.464-3.671-24.631 0-9.256 1.202-17.488 3.604-24.697 2.403-7.209 6.028-12.904 10.88-17.089 4.85-4.182 10.791-6.274 17.822-6.274 7.03 0 12.97 2.069 17.822 6.208 4.85 4.139 8.498 9.835 10.947 17.088 2.447 7.255 3.671 15.509 3.671 24.765 0 9.167-1.225 17.378-3.671 24.631-2.449 7.255-6.097 12.972-10.947 17.154-4.852 4.185-10.792 6.274-17.822 6.274-7.031 0-12.949-2.09-17.755-6.275zm35.444-12.749c4.139-7.163 6.208-16.842 6.208-29.036 0-12.282-2.069-22.005-6.208-29.17-4.138-7.163-10.035-10.747-17.689-10.747-7.566 0-13.417 3.584-17.555 10.747-4.139 7.165-6.208 16.888-6.208 29.17 0 12.194 2.069 21.873 6.208 29.036 4.139 7.165 9.989 10.746 17.555 10.746 7.654 0 13.551-3.581 17.689-10.746zM143.311 21.092c.666.714 1 1.603 1 2.67 0 .446-.133 1.068-.4 1.869l-36.712 85.573a4.551 4.551 0 01-1.602 1.936c-.713.488-1.469.734-2.27.734-1.068 0-2.025-.356-2.87-1.068-.847-.711-1.269-1.602-1.269-2.67 0-.711.134-1.378.4-2.002l34.576-80.5H91.312c-1.068 0-1.981-.355-2.737-1.068-.757-.711-1.135-1.646-1.135-2.804 0-1.067.378-1.956 1.135-2.67.755-.711 1.669-1.068 2.737-1.068h49.128c1.246-.001 2.203.357 2.871 1.068z"/></g><path fill="#FFF" d="M733.046 166.735H0v-78l733.046 78z"/></svg>