<svg xmlns="http://www.w3.org/2000/svg" viewBox="0 0 733.046 166.735"><g fill="#FFF"><path d="M21.894 108.534c-4.806-4.183-8.434-9.899-10.88-17.154-2.449-7.253-3.671-15.464-3.671-24.631 0-9.256 1.202-17.488 3.604-24.697 2.403-7.209 6.028-12.904 10.88-17.089 4.85-4.182 10.791-6.274 17.822-6.274 7.03 0 12.97 2.069 17.822 6.208 4.85 4.139 8.498 9.835 10.947 17.088 2.447 7.255 3.671 15.509 3.671 24.765 0 9.167-1.225 17.378-3.671 24.631-2.449 7.255-6.097 12.972-10.947 17.154-4.852 4.185-10.792 6.274-17.822 6.274-7.031 0-12.949-2.09-17.755-6.275zm35.444-12.749c4.139-7.163 6.208-16.842 6.208-29.036 0-12.282-2.069-22.005-6.208-29.17-4.138-7.163-10.035-10.747-17.689-10.747-7.566 0-13.417 3.584-17.555 10.747-4.139 7.165-6.208 16.888-6.208 29.17 0 12.194 2.069 21.873 6.208 29.036 4.139 7.165 9.989 10.746 17.555 10.746 7.654 0 13.551-3.581 17.689-10.746zM132.963 23.228c4.627 3.117 8.078 7.209 10.348 12.282s3.404 10.547 3.404 16.421c0 7.476-1.582 15.441-4.74 23.896-3.16 8.456-7.832 16.199-14.018 23.229-6.187 7.031-13.506 12.148-21.96 15.353-.713.177-1.248.267-1.602.267-1.158 0-2.159-.4-3.004-1.201-.847-.801-1.268-1.779-1.268-2.937 0-1.869 1.068-3.158 3.204-3.872 7.296-3.114 14.038-8.12 20.225-15.019 6.185-6.896 10.39-14.396 12.616-22.495-2.582 2.938-5.764 5.273-9.546 7.009-3.784 1.735-7.855 2.604-12.215 2.604-5.252 0-9.969-1.401-14.151-4.205-4.185-2.804-7.476-6.542-9.879-11.214-2.403-4.673-3.604-9.633-3.604-14.886 0-5.25 1.269-10.167 3.805-14.751 2.536-4.583 6.051-8.255 10.546-11.014 4.493-2.758 9.499-4.139 15.019-4.139 6.585 0 12.191 1.557 16.82 4.672zm-5.072 44.722c3.471-2.046 6.117-4.827 7.943-8.344 1.822-3.515 2.736-7.363 2.736-11.548 0-3.915-.891-7.52-2.67-10.813-1.781-3.291-4.361-5.94-7.742-7.943-3.384-2.002-7.343-3.003-11.882-3.003-4.095 0-7.743.934-10.947 2.803s-5.72 4.495-7.543 7.877c-1.825 3.383-2.736 7.209-2.736 11.48 0 4.005.801 7.723 2.403 11.147 1.602 3.428 3.959 6.187 7.076 8.277 3.114 2.092 6.852 3.137 11.214 3.137 4.626.001 8.676-1.021 12.148-3.07z"/></g><path fill="#FFF" d="M733.046 166.735H0v-78l733.046 78z"/></svg>