<?xml version="1.0" encoding="utf-8"?>
<!-- Generator: Adobe Illustrator 16.0.0, SVG Export Plug-In . SVG Version: 6.00 Build 0)  -->
<!DOCTYPE svg PUBLIC "-//W3C//DTD SVG 1.1//EN" "http://www.w3.org/Graphics/SVG/1.1/DTD/svg11.dtd">
<svg version="1.1" id="Ebene_1" xmlns="http://www.w3.org/2000/svg" xmlns:xlink="http://www.w3.org/1999/xlink" x="0px" y="0px"
	 width="35.631px" height="24.95px" viewBox="0 0 35.631 24.95" enable-background="new 0 0 35.631 24.95" xml:space="preserve">
<path fill="#DED9D1" d="M0,3.714c0,0,4.112-0.464,6.698-1.326C9.285,1.525,11.407,0,11.407,0l2.918,3.714
	c0,0-3.69,3.382-4.332,4.642c-0.642,1.26-3.228,5.129-3.228,5.129s-3.118-1.614-4.709-4.267C0.774,7.082,0.133,5.505,0,3.714z"/>
<path fill="#DED9D1" d="M14.723,4.377c0,0,1.745,5.321,5.747,9.978s4.516,6.41,4.669,7.075c0.154,0.665-0.873,2.056-1.847,2.6
	c-0.975,0.545-1.591,1.331-2.258,0.666c-0.667-0.666,0.052-1.694-0.821-3.387c-0.872-1.693-4.566-6.551-6.105-9.111
	c-1.539-2.56-2.309-3.951-2.052-4.556C12.312,7.038,14.723,4.377,14.723,4.377z"/>
<path fill="#DED9D1" d="M35.631,3.714c0,0-4.11-0.464-6.697-1.326C26.348,1.525,24.225,0,24.225,0l-2.917,3.714
	c0,0,3.689,3.382,4.331,4.642c0.642,1.261,3.229,5.129,3.229,5.129s3.118-1.614,4.709-4.267C34.859,7.082,35.5,5.505,35.631,3.714z"
	/>
<path fill="#DED9D1" d="M20.91,4.377c0,0-1.746,5.321-5.747,9.978c-4.003,4.656-4.516,6.41-4.67,7.075
	c-0.154,0.665,0.873,2.056,1.848,2.6c0.975,0.545,1.591,1.331,2.258,0.666c0.667-0.666-0.053-1.694,0.82-3.387
	c0.873-1.693,4.566-6.551,6.106-9.111c1.539-2.56,2.308-3.951,2.052-4.555C23.32,7.038,20.91,4.377,20.91,4.377z"/>
</svg>
