<svg xmlns="http://www.w3.org/2000/svg" viewBox="0 0 91 91"><circle fill="#FFF" cx="45.5" cy="45.5" r="41"/><g fill="#706F6F"><path d="M29.001 52.252c-3.164 0-5.28-1.928-6.034-4.777h-2.682l.209-1.655h2.2a10.607 10.607 0 01-.042-.838c0-.272.021-.544.042-.816h-1.99l.209-1.655h2.032c.754-2.892 2.891-4.756 6.097-4.756 1.927 0 3.31.649 3.855.942v2.2c-.252-.21-1.697-1.383-3.792-1.383-2.095 0-3.436 1.194-4.043 2.996h5.426l-.209 1.655h-5.552c-.021.272-.042.544-.042.816 0 .294.021.566.042.838h5.342l-.209 1.655h-4.777c.649 1.823 2.074 3.038 4.19 3.038 1.173 0 2.787-.523 3.813-1.487v2.157c-1.089.672-2.661 1.07-4.085 1.07zM44.147 52.272c-2.682 0-4.189-1.718-4.211-3.876h1.781c.189 1.467.881 2.221 2.43 2.221 1.697 0 2.703-1.026 2.703-2.535 0-1.487-.963-2.556-3.016-2.556v-1.571c1.822 0 2.617-.817 2.617-2.347 0-1.424-.711-2.263-2.262-2.263-1.342 0-2.074.88-2.096 2.263h-1.676c0-2.472 1.467-3.854 3.834-3.854 2.576 0 3.98 1.445 3.98 3.771 0 1.592-.648 2.576-2.115 3.163 1.654.503 2.535 1.76 2.535 3.478.002 2.409-1.738 4.106-4.504 4.106zM55.169 37.754c2.809 0 4.484 1.97 4.484 4.714 0 1.864-.566 3.143-2.367 5.803l-2.557 3.771h-2.031l3.896-5.804c-.65.398-1.299.608-2.221.608-2.18 0-3.877-1.802-3.877-4.337.001-2.723 1.972-4.755 4.673-4.755zm2.619 4.609c0-1.802-.9-3.038-2.598-3.038-1.676 0-2.85 1.278-2.85 3.163 0 1.781 1.09 2.87 2.809 2.87 1.739 0 2.639-1.151 2.639-2.995zM65.979 37.754c2.809 0 4.484 1.97 4.484 4.714 0 1.864-.566 3.143-2.367 5.803l-2.557 3.771h-2.031l3.896-5.804c-.65.398-1.299.608-2.221.608-2.18 0-3.877-1.802-3.877-4.337.002-2.723 1.972-4.755 4.673-4.755zm2.62 4.609c0-1.802-.9-3.038-2.598-3.038-1.676 0-2.85 1.278-2.85 3.163 0 1.781 1.09 2.87 2.809 2.87 1.738 0 2.639-1.151 2.639-2.995z"/></g><circle fill="none" stroke="#FFF" stroke-miterlimit="10" cx="45.5" cy="45.5" r="45"/></svg>