<svg xmlns="http://www.w3.org/2000/svg" viewBox="0.488 0 75.496 65.383"><linearGradient id="a" gradientUnits="userSpaceOnUse" x1="20.813" y1="30.963" x2="72.379" y2="82.529" gradientTransform="matrix(1 0 0 -1 -8.36 89.438)"><stop offset="0" stop-color="#1e4667"/><stop offset="1" stop-color="#5cbba2"/></linearGradient><path fill="none" stroke="url(#a)" stroke-miterlimit="22.926" d="M19.652 64.883L1.066 32.691 19.652.5h37.169l18.586 32.191-18.586 32.192z"/><linearGradient id="b" gradientUnits="userSpaceOnUse" x1="24.593" y1="32.691" x2="51.88" y2="32.691"><stop offset="0" stop-color="#1e4667"/><stop offset="1" stop-color="#5cbba2"/></linearGradient><path fill="#FFF" stroke="url(#b)" stroke-miterlimit="10" d="M33.132 20.589a12.853 12.853 0 015.105-1.041c1.78 0 3.481.347 5.106 1.041 1.623.695 3.021 1.629 4.195 2.802 1.172 1.173 2.105 2.572 2.801 4.195a12.839 12.839 0 011.041 5.105c0 1.779-.346 3.481-1.041 5.105-.695 1.623-1.629 3.021-2.801 4.195-1.174 1.173-2.572 2.106-4.195 2.801a12.848 12.848 0 01-5.106 1.042c-1.78 0-3.482-.347-5.105-1.042-1.623-.694-3.021-1.628-4.195-2.801-1.173-1.175-2.108-2.572-2.802-4.195a12.86 12.86 0 01-1.041-5.105c0-1.78.347-3.481 1.041-5.105.694-1.623 1.629-3.022 2.802-4.195 1.174-1.173 2.572-2.107 4.195-2.802zm-4.841 17.398l2.847-2.846c-.274-.803-.411-1.619-.411-2.45s.137-1.648.411-2.45l-2.847-2.845c-.879 1.672-1.319 3.437-1.319 5.295s.439 3.623 1.319 5.296zm5.963-1.313c1.101 1.101 2.428 1.65 3.983 1.65 1.555 0 2.883-.55 3.983-1.65 1.1-1.1 1.65-2.428 1.65-3.982s-.551-2.882-1.65-3.983c-1.1-1.1-2.428-1.65-3.983-1.65-1.555 0-2.882.55-3.983 1.65-1.1 1.101-1.651 2.428-1.651 3.983s.551 2.882 1.651 3.982zm3.983-15.249c-1.857 0-3.623.439-5.295 1.321l2.845 2.846a7.536 7.536 0 012.45-.411c.831 0 1.647.137 2.45.411l2.846-2.846a11.208 11.208 0 00-5.296-1.321zm0 22.532c1.858 0 3.624-.44 5.295-1.32l-2.846-2.846a7.536 7.536 0 01-2.45.411 7.536 7.536 0 01-2.45-.411l-2.845 2.846c1.673.88 3.438 1.32 5.296 1.32zm7.1-8.815l2.846 2.846c.879-1.673 1.32-3.438 1.32-5.296s-.441-3.623-1.32-5.295l-2.846 2.845c.273.802.41 1.619.41 2.45s-.137 1.647-.41 2.45z"/></svg>