<svg xmlns="http://www.w3.org/2000/svg" viewBox="0 0 1283 733"><path fill="#A0C4C3" d="M0 0h25.395v733H0z"/><path fill="#AFCECC" d="M25.416 0h25.396v733H25.416z"/><path fill="#A0C4C3" d="M50.833 0h25.395v733H50.833z"/><path fill="#AFCECC" d="M76.249 0h25.396v733H76.249z"/><path fill="#A0C4C3" d="M304.996 0h25.395v733h-25.395z"/><path fill="#AFCECC" d="M330.412 0h25.396v733h-25.396z"/><path fill="#A0C4C3" d="M355.828 0h25.395v733h-25.395z"/><path fill="#AFCECC" d="M381.244 0h25.396v733h-25.396z"/><path fill="#A0C4C3" d="M406.661 0h25.395v733h-25.395z"/><path fill="#AFCECC" d="M432.077 0h25.396v733h-25.396z"/><path fill="#A0C4C3" d="M457.494 0h25.395v733h-25.395z"/><path fill="#AFCECC" d="M482.909 0h25.396v733h-25.396z"/><path fill="#A0C4C3" d="M101.665.001h25.395v733h-25.395z"/><path fill="#AFCECC" d="M127.081.001h25.396v733h-25.396z"/><path fill="#A0C4C3" d="M152.498.001h25.395v733h-25.395z"/><path fill="#AFCECC" d="M177.914.001h25.396v733h-25.396z"/><path fill="#A0C4C3" d="M203.331.001h25.395v733h-25.395z"/><path fill="#AFCECC" d="M228.747.001h25.396v733h-25.396z"/><path fill="#A0C4C3" d="M254.163.001h25.395v733h-25.395z"/><path fill="#AFCECC" d="M279.579.001h25.396v733h-25.396z"/><path fill="#A0C4C3" d="M508.326 0h25.395v733h-25.395z"/><path fill="#AFCECC" d="M533.742 0h25.396v733h-25.396z"/><path fill="#A0C4C3" d="M559.158 0h25.396v733h-25.396z"/><path fill="#AFCECC" d="M584.575 0h25.396v733h-25.396z"/><path fill="#A0C4C3" d="M813.321 0h25.395v733h-25.395z"/><path fill="#AFCECC" d="M838.737 0h25.396v733h-25.396z"/><path fill="#A0C4C3" d="M864.153 0h25.395v733h-25.395z"/><path fill="#AFCECC" d="M889.57 0h25.396v733H889.57z"/><path fill="#A0C4C3" d="M914.986 0h25.396v733h-25.396z"/><path fill="#AFCECC" d="M940.403 0h25.395v733h-25.395z"/><path fill="#A0C4C3" d="M965.82 0h25.395v733H965.82z"/><path fill="#AFCECC" d="M991.235 0h25.396v733h-25.396z"/><path fill="#A0C4C3" d="M609.991.001h25.395v733h-25.395z"/><path fill="#AFCECC" d="M635.407.001h25.396v733h-25.396z"/><path fill="#A0C4C3" d="M660.823.001h25.396v733h-25.396z"/><path fill="#AFCECC" d="M686.24.001h25.395v733H686.24z"/><path fill="#A0C4C3" d="M711.656.001h25.396v733h-25.396z"/><path fill="#AFCECC" d="M737.072.001h25.396v733h-25.396z"/><path fill="#A0C4C3" d="M762.489.001h25.395v733h-25.395z"/><path fill="#AFCECC" d="M787.904.001H813.3v733h-25.396z"/><path fill="#A0C4C3" d="M1016.651 0h25.396v733h-25.396z"/><path fill="#AFCECC" d="M1042.068 0h25.395v733h-25.395z"/><path fill="#A0C4C3" d="M1067.484 0h25.396v733h-25.396z"/><path fill="#AFCECC" d="M1092.9 0h25.396v733H1092.9z"/><path fill="#A0C4C3" d="M1118.317.001h25.395v733h-25.395z"/><path fill="#AFCECC" d="M1143.733.001h25.396v733h-25.396z"/><path fill="#A0C4C3" d="M1169.149.001h25.396v733h-25.396z"/><path fill="#AFCECC" d="M1194.566.001h25.395v733h-25.395z"/><path fill="#A0C4C3" d="M1219.982.001h25.396v733h-25.396z"/><path fill="#AFCECC" d="M1245.398.001h25.396v733h-25.396z"/><path fill="#A0C4C3" d="M1270.815.001h25.395v733h-25.395z"/><path opacity=".3" fill="#FFF" d="M0 0h1296.21v733.001H0z"/></svg>