<?xml version="1.0" encoding="utf-8"?>
<!-- Generator: Adobe Illustrator 16.0.0, SVG Export Plug-In . SVG Version: 6.00 Build 0)  -->
<!DOCTYPE svg PUBLIC "-//W3C//DTD SVG 1.1//EN" "http://www.w3.org/Graphics/SVG/1.1/DTD/svg11.dtd">
<svg version="1.1" id="Ebene_1" xmlns="http://www.w3.org/2000/svg" xmlns:xlink="http://www.w3.org/1999/xlink" x="0px" y="0px"
	 width="17.623px" height="89.514px" viewBox="0 0 17.623 89.514" enable-background="new 0 0 17.623 89.514" xml:space="preserve">
<path fill="#B4B4B4" d="M10.11,86.757c0-1.678,0.543-2.615,0.839-3.602s0.839-2.764,1.036-3.406c0.198-0.641,1.53-3.65,1.826-4.49
	c0.296-0.838,1.975-2.764,2.912-4.164s0.395-1.807-0.593-2.055c-0.987-0.246-3.307,1.678-4.047,1.975
	c-0.739,0.297-0.986-0.297-1.036-0.789c-0.049-0.494,0-3.75,0.05-5.873c0.049-2.121-0.099-7.748-0.247-10.314
	s-0.296-8.586-0.235-10.139c0.06-1.551-0.11-9.008,0-9.403c0.109-0.396,3.986-2.813,5.417-4.194c1.432-1.383,1.48-4.047,1.579-6.762
	c0.099-2.714-0.444-9.229-0.691-12.238c-0.246-3.011-0.394-5.527-0.592-6.762c-0.197-1.233-1.036-0.888-1.036-0.888l-3.355,3.701
	h-1.234c0.074-0.78,0.05-1.036,0-2.764c-0.049-1.728-0.049-2.468-0.099-3.651C10.554-0.247,10.16,0.05,8.432,0.001
	c-1.728-0.05-1.431,1.825-1.431,2.418c0,0.592,0.196,1.629,0.395,2.467c0.197,0.839,0.099,2.863,0.147,3.801
	c0.05,0.938,0.074,1.121-0.814,0.822c-0.262-0.088-0.55-0.441-0.593-0.444c0.059,0.153,0.303,0.591,0.34,0.61
	c0.1,0.053,0.346,0.195,0.801,0.344c0.454,0.148,0.088,0.543-0.011,0.74s0.049,0.691,0,1.097C7.216,12.261,6.92,12.19,6.92,12.19
	s-0.493-0.198-0.69-0.335c-0.198-0.138-0.642-0.308-0.839-0.455c-0.198-0.148-0.543-0.543-0.691-1.017
	C4.552,9.911,3.368,9.377,3.071,9.032C2.775,8.687,2.233,8.884,1.887,7.156c0,0-0.247,0.05-0.297-1.185
	C1.542,4.737,1.887,5.231,2.233,4.59c0.345-0.642,0.493-0.099,0.789,0s0.296,0.839,0.593,1.167c0.294,0.326,2.32,3.316,2.707,3.615
	C6.656,9.437,7.17,9.983,6.906,9.565C6.338,8.671,4.299,6.272,4.04,5.774C3.398,4.54,3.498,4.491,2.51,3.011
	S1.424,1.876,0.536,2.073C-0.352,2.271,0.24,3.997,0.338,4.985c0.1,0.986,0.049,1.578,0.1,3.059c0.049,1.48-0.198,2.566-0.148,4.047
	c0.049,1.48-0.197,5.034-0.247,8.587c-0.049,3.554-0.148,5.33,0.345,6.515c0.494,1.184,0.938,1.283,1.283,1.727
	c0.346,0.444,0.938,1.186,1.333,1.728c0.395,0.543,2.517,2.517,2.961,3.307s0.247,2.271,0.296,2.665
	c0.05,0.395-0.099,2.861-0.099,4.738c0,1.875,0,8.289,0,9.326s0.296,2.467,0.444,4.047c0.148,1.578-0.099,3.652-0.247,5.428
	c-0.147,1.777,0.396,3.061,0.444,4.836c0.05,1.777,0.74,6.516,0.346,7.059s-1.48-0.297-2.221-0.494s-1.382-1.135-2.566-1.184
	c-1.185-0.051-0.888,0.197-0.79,1.678c0.099,1.48,0.05,0.74,0.741,1.727c0.69,0.988,1.283,3.158,2.27,4.887
	c0.987,1.727,0.642,2.367,1.234,3.355c0.592,0.986,1.529,4.145,1.776,4.885s0.247,2.271,1.107,2.566
	C9.561,89.769,10.11,88.435,10.11,86.757z M16.335,25.366c-0.088,0.789-0.552,1.48-0.418,1.629c0.133,0.148,0,0.74,0,0.74
	s-1.446,0.889-1.939,1.578c-0.494,0.691-1.086,0.791-1.579,1.234c-0.494,0.444-0.643,0.789-1.036,0.789
	c-0.396,0-0.323,0.247-0.507,0c-0.185-0.246-0.464-0.443-0.349-1.085c0.114-0.642-0.115-0.74,0-0.987
	c0.114-0.246,0.349-0.592,0.349-0.592s2.301-1.925,2.514-2.172c0.214-0.246,0.854-0.889,1.053-0.938
	c0.197-0.049,0.395-0.148,0.69-0.346s0.819-0.543,0.805-0.543C15.902,24.675,16.423,24.577,16.335,25.366z M16.297,20.086
	c0.052,0.986,0.05,0.497,0,1.285s-0.069,0.688-0.38,1.28c-0.312,0.593-0.312,0.643-0.756,0.889
	c-0.444,0.247-0.542,0.197-0.938,0.494c-0.395,0.295-0.559,0.395-0.822,0.69c-0.263,0.296-0.411,0.444-0.608,0.642
	c-0.198,0.197-0.493,0.592-0.79,0.691c-0.296,0.098-0.444,0.098-0.789,0.246c-0.346,0.148-0.707,0.197-0.707,0.197
	s0.033-1.135,0-1.776s-0.214-1.233,0-1.431c0.213-0.197,0.756-0.543,0.756-0.543l0.296-0.444c0,0,0-0.247,0.444-0.346
	s2.271-1.085,2.764-1.333c0.494-0.246,1.15-0.938,1.15-0.938S16.282,19.793,16.297,20.086z M16.297,16.335
	c0,0.74,0.015,1.678-0.19,1.678s-0.101,0.444-0.646,0.691c-0.546,0.246-0.744,0.246-1.286,0.592
	c-0.543,0.346-1.185,0.494-1.432,0.643c-0.247,0.147-0.642,0.395-0.938,0.542s-0.618,0.938-0.95,0.888
	c-0.333-0.049-0.382-0.197-0.333-0.74c0.05-0.542,0.023-0.542,0.333-1.035c0.309-0.494,0.556-0.494,0.605-0.79
	c0.049-0.296,0.049-0.642,0.592-1.036c0.542-0.395,0.675-0.84,1.349-1.234c0.675-0.395,1.612-0.69,1.81-0.889
	c0.197-0.197,0.706-0.345,0.706-0.345C16,15.496,16.297,15.595,16.297,16.335z M15.461,10.562c0.117,0.377,0.539,1.086,0.44,1.776
	c-0.098,0.69,0.203,1.233-0.44,1.579c-0.645,0.346-1.139,0.642-1.928,1.234c-0.79,0.592-1.579,1.184-1.777,1.332
	c-0.197,0.148-0.722,0.986-0.78,0.592c-0.058-0.395,0.059-0.789,0-0.986c-0.058-0.197,0.024-1.234-0.017-1.383
	c-0.041-0.147-0.221-0.635,0.017-0.836c0.238-0.199,0.78-0.842,1.027-0.99c0.247-0.146,1.432-1.232,1.875-1.479
	C14.323,11.153,15.266,9.936,15.461,10.562z M13.632,6.958c0.346-0.395,0.642-0.838,0.889-0.938c0.246-0.098,0.641-0.543,0.789,0
	s0.148,0.543,0.148,0.543c-0.05,0.84,0.147,1.826-0.297,2.221s-1.974,1.383-2.221,1.629c-0.246,0.246-0.74,1.135-1.233,1.135
	s-0.543,0.691-0.69,0c-0.148-0.69,0.147-0.986,0.296-1.381c0.148-0.396,0.987-1.53,1.184-1.826
	C12.695,8.044,13.287,7.354,13.632,6.958z M2.966,14.552c-0.28-0.316-0.521-0.619-0.635-0.838c-0.26-0.499-0.47-1.053-0.444-1.52
	c0,0-0.015,0.393-0.017-0.744c-0.001-1.139-0.033-0.445,0.263-1.066c0.297-0.62,0.198-0.069,0.544,0
	c0.345,0.07,0.295,0.325,0.888,0.818c0.592,0.494,0,0,1.168,0.992c1.169,0.992,0.411,0.686,0.806,0.884
	c0.396,0.197,0.396,0.197,1.037,0.296c0.641,0.099,0.592,0.297,0.924,0.592c0.331,0.297-0.283,0.938-0.431,1.333
	c-0.148,0.395,0,0.839,0,1.882c0,1.041-0.395-0.056-0.691,0c-0.296,0.055-0.592-0.401-1.332-0.746
	c-0.74-0.346-0.444-0.198-0.987-0.741C3.752,15.389,3.328,14.958,2.966,14.552z M2.417,19.37c-0.148-0.246-0.58-0.543-0.666-1.012
	c-0.087-0.469-0.1-1.455-0.1-1.604s0.161-0.593,0.272-0.691c0.11-0.098,0.11-0.346,0.616-0.098c0.506,0.246,0.358,0.555,0.358,0.555
	c0.246,0.148,1.048,0.58,1.308,0.752c0.259,0.173,0.999,0.703,1.222,0.753c0.222,0.05,0.506,0.147,0.789,0.481
	c0.284,0.332,0.519,0.332,0.519,1.418s0.443,1.16,0,1.604c-0.444,0.444-0.186,0.765-0.863,0.382c-0.68-0.382-0.771-0.529-1.33-0.912
	S2.566,19.616,2.417,19.37z M3.158,23.134c-0.197-0.297-0.69-0.617-0.938-0.914c-0.247-0.296-0.863-0.58-0.74-0.838
	c0.123-0.26,0.024-0.433,0.296-0.568s-0.21-0.395,0.333-0.099s0.889,0.382,0.999,0.593c0.111,0.209,0.271,0.369,0.271,0.369
	s1.949,1.148,2.012,1.234c0.062,0.086,0.432,0.223,0.604,0.346c0.173,0.123,0.531,0.024,0.581,0.506c0.049,0.48-0.013,0.826,0,1.061
	c0.012,0.234,0,0.568-0.1,0.666c-0.099,0.1,0.037,0.358-0.296,0.284s-0.721-0.432-1.192-0.888
	C4.515,24.429,3.355,23.429,3.158,23.134z M5.613,30.758c-0.234-0.284-1.246-1.271-1.32-1.395c-0.074-0.123-0.033-0.036-0.264-0.481
	c-0.229-0.443-0.674-0.938-0.748-0.986s-0.456-0.555-0.851-1.073c-0.396-0.519-0.716-0.899-0.778-1.036
	c-0.062-0.137-0.258-0.26-0.283-0.643c-0.024-0.382-0.074-0.271,0-0.616s-0.304-0.543,0.095-0.481
	c0.398,0.062,0.251,0.013,0.707,0.26c0.456,0.246,0.592,0.395,0.777,0.567s0.223,0.271,0.223,0.271
	c0.099,0.062,0.776,0.271,1.048,0.766s0.424,0.629,0.515,0.986c0.09,0.358,0.387,0.691,0.51,0.729s0.999,0.543,1.036,0.617
	s0.087,0.061,0.074,0.58c-0.013,0.518-0.009,0.764,0.002,1.258s0.022,1-0.224,1C5.884,31.079,5.847,31.042,5.613,30.758z
	 M8.701,85.13c-0.367-0.297-1.453-3.801-1.799-4.738c-0.345-0.938-0.543-2.418-0.889-2.812c-0.345-0.396-0.69-1.186-0.938-1.729
	c-0.246-0.543-1.135-1.973-1.233-2.27s-0.197-0.74,0.247-0.74s1.036,0.246,1.728,0.346c0.69,0.098,0.888,0.098,1.185,0.098
	c0.295,0,1.036-0.098,1.085-0.938c0.049-0.838,0.197-3.158,0.147-4.244c-0.049-1.084,0.1-2.418-0.049-3.158
	c-0.147-0.74-0.099-2.023-0.147-2.27c-0.05-0.246,0-1.826,0-2.172s0-1.678,0-2.221s0.147-1.629,0.098-2.072
	c-0.049-0.443-0.049-1.086-0.049-2.072c0-0.988-0.147-3.109-0.147-3.109s-0.099-1.186-0.148-2.072
	c-0.05-0.889-0.099-1.629-0.099-2.32s-0.148-6.416-0.099-8.043c0.049-1.629,0.147-4.146,0.099-4.689
	c-0.05-0.543,0.049-5.132,0.099-7.254s0.395-5.33,0.443-8.094c0.05-2.764,0.247-4.688,0.198-5.625c-0.05-0.938,0.049-4.738,0-5.133
	c-0.05-0.395,0-2.369-0.05-3.061C8.333,4.048,8.531,2.813,8.481,2.862c-0.049,0.049-0.154-0.789,0.22-0.543
	c0.373,0.247,0.521,0.543,0.521,0.543c0.443,3.455,0.542,9.18,0.345,14.855C9.37,23.392,9.32,32.72,9.222,35.089
	c-0.099,2.368,0,11.35,0,13.867c0,2.516-0.046,6.76,0.199,10.561c0.244,3.799,0.389,8.883,0.243,10.314
	c-0.147,1.432-1.331,4.145,0.396,3.996c1.727-0.146,1.479-0.443,2.122-1.48c0.641-1.035,1.233-1.727,2.221-2.023
	c0.986-0.295,1.825-0.344,0.888,0.691c-0.938,1.037-1.48,1.332-2.122,2.469c-0.642,1.135-1.876,3.404-1.876,3.848
	c0,0.445-0.69,1.877-0.986,2.863s-0.592,1.727-0.74,2.516c-0.148,0.791-0.436,1.877-0.436,1.877S9.068,85.425,8.701,85.13z"/>
</svg>
