<svg version="1.1" id="Ebene_1" xmlns="http://www.w3.org/2000/svg" xmlns:xlink="http://www.w3.org/1999/xlink" x="0px" y="0px"
	 viewBox="0 0 102.079 96.904" enable-background="new 0 0 102.079 96.904"
	 xml:space="preserve">
<g>
	<path d="M23.953,32.318c2.042,1.217,3.64,2.933,4.793,5.147c1.153,2.215,1.729,4.776,1.729,7.68c0,2.96-0.595,5.629-1.784,8.007
		c-1.189,2.379-2.851,4.244-4.984,5.597c-2.134,1.353-4.58,2.029-7.34,2.029c-2.578,0-4.894-0.609-6.945-1.825
		c-2.052-1.216-3.659-2.937-4.821-5.161S2.86,48.986,2.86,46.044s0.585-5.592,1.756-7.953c1.171-2.36,2.828-4.217,4.971-5.569
		c2.142-1.353,4.611-2.029,7.408-2.029C19.591,30.493,21.911,31.102,23.953,32.318z M12.215,33.189
		c-1.244,1.144-2.211,2.801-2.9,4.971c-0.69,2.17-1.035,4.743-1.035,7.721c0,3.196,0.381,5.833,1.144,7.912s1.793,3.595,3.091,4.548
		c1.298,0.954,2.755,1.43,4.371,1.43c1.597,0,3.018-0.576,4.262-1.729c1.243-1.153,2.21-2.819,2.9-4.998s1.035-4.757,1.035-7.735
		c0-3.177-0.381-5.801-1.144-7.871s-1.793-3.582-3.091-4.535c-1.298-0.954-2.755-1.43-4.371-1.43
		C14.879,31.474,13.458,32.046,12.215,33.189z"/>
	<path d="M49.526,23.78c-1.807,1.28-3.399,3.246-4.779,5.896c-1.38,2.651-2.261,6.137-2.642,10.458
		c0.835-1.58,2.006-2.737,3.513-3.473s3.005-1.103,4.494-1.103c1.779,0,3.436,0.481,4.971,1.443c1.533,0.963,2.764,2.36,3.689,4.194
		c0.927,1.834,1.39,4.003,1.39,6.509c0,2.706-0.55,5.047-1.647,7.026c-1.1,1.979-2.579,3.482-4.439,4.507
		c-1.861,1.025-3.927,1.539-6.196,1.539c-2.36,0-4.39-0.623-6.087-1.866c-1.698-1.244-3.001-3.055-3.908-5.434
		c-0.908-2.378-1.361-5.229-1.361-8.552c0-5.21,0.989-9.623,2.968-13.236c1.979-3.613,4.408-6.382,7.286-8.307
		c2.877-1.924,5.76-3.168,8.646-3.731l0.218,1.117C53.371,21.497,51.333,22.5,49.526,23.78z M51.61,58.463
		c0.943-0.798,1.702-2.06,2.273-3.786c0.572-1.725,0.858-3.912,0.858-6.563c0-3.776-0.554-6.545-1.661-8.307
		c-1.108-1.761-2.561-2.642-4.357-2.642c-1.308,0-2.602,0.386-3.882,1.157c-1.279,0.772-2.229,1.993-2.846,3.663
		c-0.055,0.908-0.082,1.852-0.082,2.833c0,3.686,0.313,6.632,0.94,8.838c0.626,2.206,1.43,3.758,2.41,4.657
		c0.98,0.898,2.042,1.348,3.187,1.348C49.612,59.662,50.666,59.263,51.61,58.463z"/>
	<path d="M71.097,54.12c0.554,0.318,0.989,0.753,1.308,1.307c0.317,0.554,0.477,1.149,0.477,1.784c0,0.636-0.159,1.226-0.477,1.77
		c-0.318,0.545-0.754,0.98-1.308,1.308c-0.554,0.327-1.148,0.49-1.784,0.49s-1.229-0.164-1.783-0.49
		c-0.555-0.327-0.99-0.763-1.308-1.308c-0.318-0.544-0.477-1.134-0.477-1.77c0-0.635,0.158-1.23,0.477-1.784
		c0.317-0.554,0.753-0.989,1.308-1.307c0.554-0.317,1.147-0.477,1.783-0.477S70.543,53.802,71.097,54.12z"/>
</g>
<line fill="none" stroke="#000000" stroke-width="2" stroke-miterlimit="10" x1="101.079" y1="0" x2="101.079" y2="96.904"/>
</svg>
