<svg version="1.1" id="Ebene_1" xmlns="http://www.w3.org/2000/svg" xmlns:xlink="http://www.w3.org/1999/xlink" x="0px" y="0px"
	 viewBox="0 0 102.079 96.904" enable-background="new 0 0 102.079 96.904"
	 xml:space="preserve">
<g>
	<path d="M23.953,32.318c2.042,1.217,3.64,2.933,4.793,5.147c1.153,2.215,1.729,4.776,1.729,7.68c0,2.96-0.595,5.629-1.784,8.007
		c-1.189,2.379-2.851,4.244-4.984,5.597c-2.134,1.353-4.58,2.029-7.34,2.029c-2.578,0-4.894-0.609-6.945-1.825
		c-2.052-1.216-3.659-2.937-4.821-5.161S2.86,48.986,2.86,46.044s0.585-5.592,1.756-7.953c1.171-2.36,2.828-4.217,4.971-5.569
		c2.142-1.353,4.611-2.029,7.408-2.029C19.591,30.493,21.911,31.102,23.953,32.318z M12.215,33.189
		c-1.244,1.144-2.211,2.801-2.9,4.971c-0.69,2.17-1.035,4.743-1.035,7.721c0,3.196,0.381,5.833,1.144,7.912s1.793,3.595,3.091,4.548
		c1.298,0.954,2.755,1.43,4.371,1.43c1.597,0,3.018-0.576,4.262-1.729c1.243-1.153,2.21-2.819,2.9-4.998s1.035-4.757,1.035-7.735
		c0-3.177-0.381-5.801-1.144-7.871s-1.793-3.582-3.091-4.535c-1.298-0.954-2.755-1.43-4.371-1.43
		C14.879,31.474,13.458,32.046,12.215,33.189z"/>
	<path d="M46.108,30.493c1.543,0,2.924,0.255,4.14,0.763c1.217,0.509,2.17,1.244,2.86,2.206c0.689,0.962,1.034,2.088,1.034,3.377
		c0,1.38-0.386,2.679-1.157,3.895s-1.788,2.274-3.05,3.173c-1.263,0.898-2.629,1.611-4.1,2.138c1.815,0.037,3.504,0.373,5.066,1.008
		c1.561,0.636,2.827,1.58,3.799,2.833c0.972,1.252,1.457,2.796,1.457,4.63c0,2.706-1.025,5.116-3.077,7.231
		c-2.052,2.115-4.681,3.753-7.885,4.916c-3.205,1.162-6.432,1.743-9.682,1.743v-1.008c2.632-0.054,5.12-0.595,7.462-1.62
		c2.343-1.026,4.239-2.501,5.692-4.426c1.452-1.924,2.179-4.203,2.179-6.836c0-1.434-0.241-2.728-0.722-3.881
		c-0.481-1.153-1.171-2.07-2.07-2.751c-0.898-0.681-1.938-1.066-3.118-1.157c-0.163,0.073-0.454,0.19-0.871,0.354
		c-0.418,0.163-0.763,0.282-1.035,0.354c-0.272,0.073-0.509,0.109-0.708,0.109c-0.6,0-0.899-0.236-0.899-0.708
		c0-0.327,0.137-0.586,0.409-0.776s0.617-0.286,1.035-0.286c0.235,0,0.544,0.032,0.926,0.096c0.381,0.063,0.726,0.104,1.035,0.123
		c1.452-1.107,2.527-2.352,3.227-3.731c0.699-1.379,1.049-2.814,1.049-4.303c0-1.706-0.422-2.968-1.267-3.786
		c-0.844-0.817-2.038-1.226-3.581-1.226c-1.562,0-2.979,0.414-4.249,1.239c-1.271,0.827-2.324,2.066-3.159,3.718l-0.953-0.436
		C38.038,32.818,41.442,30.493,46.108,30.493z"/>
	<path d="M67.42,54.12c0.554,0.318,0.989,0.753,1.308,1.307c0.317,0.554,0.477,1.149,0.477,1.784c0,0.636-0.159,1.226-0.477,1.77
		c-0.318,0.545-0.754,0.98-1.308,1.308c-0.554,0.327-1.148,0.49-1.784,0.49s-1.229-0.164-1.783-0.49
		c-0.555-0.327-0.99-0.763-1.308-1.308c-0.318-0.544-0.477-1.134-0.477-1.77c0-0.635,0.158-1.23,0.477-1.784
		c0.317-0.554,0.753-0.989,1.308-1.307c0.554-0.317,1.147-0.477,1.783-0.477S66.866,53.802,67.42,54.12z"/>
</g>
<line fill="none" stroke="#000000" stroke-width="2" stroke-miterlimit="10" x1="101.079" y1="0" x2="101.079" y2="96.904"/>
</svg>
