<svg xmlns="http://www.w3.org/2000/svg" viewBox="0 0 134.109 200.125"><path fill="#B1CD4F" d="M67.156 69.08c21.484 0 42.966.023 64.451-.041 1.9-.005 2.505.407 2.503 2.434a40829.57 40829.57 0 000 125.214c.002 2.029-.607 2.435-2.505 2.433-42.967-.054-85.937-.056-128.904.006-2.032.002-2.632-.438-2.628-2.563C.14 154.906.14 113.25.072 71.596c-.003-2.129.6-2.57 2.631-2.563 21.484.076 42.968.047 64.453.047z"/><path fill="#FBFBF9" d="M100.082 93.679c.908.698.664 1.811.892 2.693 1.08 4.215 4.696 6.665 9.258 6.167 4.289-.469 7.694-4.311 7.752-8.745.055-4.18-2.756-7.542-6.883-8.232-.711-.119-1.802.077-1.857-.826-.062-.962.971-.644 1.564-.612 5.108.279 8.366 4.441 8.26 10.513-.09 5.042-4.502 9.251-9.83 9.378-5.023.118-9.457-3.752-9.715-8.514-.033-.599-.326-1.324.559-1.822z"/><path fill="#FAFBF9" d="M107.598 87.301c0 4.924 0 4.924-4.988 4.924h-1.74c-3.701-.001-4.256-.871-2.731-4.376 1.354-3.123 3.793-4.934 7.071-5.671 1.562-.351 2.621-.105 2.408 1.893-.114 1.065-.02 2.153-.02 3.23z"/><path fill="#B1CE51" d="M106.186 87.6c-.256.937.684 2.841-.556 3.172-1.926.515-4.092.202-6.151.121-.64-.024-.502-.722-.469-1.209.161-2.467 3.428-5.783 5.913-6.053.816-.088 1.283.099 1.267 1.008-.018.911-.004 1.822-.004 2.961z"/><text transform="translate(12.22 92.225)" fill="#FFF" font-family="'OpenSans-Light'" font-size="14">68%</text></svg>