<svg xmlns="http://www.w3.org/2000/svg" viewBox="0 0 56.279 52.322"><path d="M53.711 44.992a3.685 3.685 0 01-3.697 3.697H5.646a3.685 3.685 0 01-3.697-3.697V8.019a3.685 3.685 0 013.697-3.697h44.367a3.685 3.685 0 013.697 3.697v36.973zm-3.698-29.578V8.019H26.097l-1.849 3.697H5.646v3.697h44.367zm0 29.578v-3.697H5.646v3.697h44.367zM20.435 9.868V6.171H9.344v3.697h11.091zm7.395 7.452c-6.124 0-11.092 4.968-11.092 11.092 0 6.124 4.968 11.092 11.092 11.092 6.124 0 11.092-4.968 11.092-11.092 0-6.124-4.968-11.092-11.092-11.092zm0 18.486c-4.073 0-7.395-3.321-7.395-7.395 0-4.073 3.322-7.395 7.395-7.395 4.073 0 7.395 3.322 7.395 7.395-.001 4.074-3.322 7.395-7.395 7.395zm0-12.073a4.636 4.636 0 00-4.622 4.622c0 .52.404.924.924.924s.924-.404.924-.924a2.774 2.774 0 012.773-2.773c.52 0 .925-.404.925-.924s-.404-.925-.924-.925z" opacity=".6"/></svg>