<?xml version="1.0" encoding="utf-8"?>
<!-- Generator: Adobe Illustrator 25.2.0, SVG Export Plug-In . SVG Version: 6.00 Build 0)  -->
<svg version="1.1" id="Ebene_1" xmlns="http://www.w3.org/2000/svg" xmlns:xlink="http://www.w3.org/1999/xlink" x="0px" y="0px"
	 viewBox="0 0 157.72 54.92" style="enable-background:new 0 0 157.72 54.92;" xml:space="preserve">
<style type="text/css">
	.st0{fill:#FFFFFF;}
	.st1{fill:#F47629;}
</style>
<circle class="st0" cx="22.47" cy="27.46" r="22.47"/>
<polygon class="st1" points="39.36,0 2.75,32.14 18.61,32.14 5.59,54.92 42.2,24 25.93,24 "/>
<g>
	<path class="st0" d="M67.48,25.05h-4.71v3.11h4.17v1.97h-4.17v3.29h4.71v2.02h-7.19V23.02h7.19V25.05z"/>
	<path class="st0" d="M69.74,22.3h2.49v13.14h-2.49V22.3z"/>
	<path class="st0" d="M78.97,35.6c-2.86,0-4.94-1.99-4.94-5.08c0-3.11,2.02-5.08,4.94-5.08c2.84,0,4.85,1.94,4.85,4.87
		c0,0.32-0.02,0.64-0.07,0.96h-7.19c0.12,1.46,1.12,2.27,2.36,2.27c1.07,0,1.65-0.53,1.97-1.19h2.68
		C83.04,34.16,81.41,35.6,78.97,35.6z M76.58,29.59h4.67c-0.04-1.3-1.07-2.11-2.34-2.11C77.71,27.48,76.77,28.25,76.58,29.59z"/>
	<path class="st0" d="M89.86,25.44c2.45,0,4.1,1.28,4.64,3.48h-2.68c-0.28-0.83-0.94-1.37-1.97-1.37c-1.38,0-2.31,1.05-2.31,2.97
		s0.92,2.95,2.31,2.95c1.03,0,1.67-0.46,1.97-1.35h2.68c-0.53,2.1-2.19,3.48-4.64,3.48c-2.84,0-4.87-1.99-4.87-5.08
		S87.02,25.44,89.86,25.44z"/>
	<path class="st0" d="M96.71,27.64h-1.17V25.6h1.17v-2.43h2.5v2.43h2.2v2.04h-2.2v4.76c0,0.66,0.27,0.94,1.05,0.94h1.15v2.1h-1.56
		c-1.88,0-3.14-0.8-3.14-3.05V27.64z"/>
	<path class="st0" d="M105.7,35.44h-2.49V25.6h2.49v1.53c0.62-1.01,1.65-1.67,3.02-1.67v2.61h-0.66c-1.47,0-2.36,0.57-2.36,2.47
		V35.44z"/>
	<path class="st0" d="M110.12,22.97c0-0.82,0.64-1.46,1.53-1.46c0.87,0,1.53,0.64,1.53,1.46c0,0.82-0.66,1.46-1.53,1.46
		C110.76,24.43,110.12,23.79,110.12,22.97z M110.39,25.6h2.49v9.84h-2.49V25.6z"/>
	<path class="st0" d="M119.55,25.44c2.45,0,4.1,1.28,4.63,3.48h-2.68c-0.28-0.83-0.94-1.37-1.97-1.37c-1.38,0-2.31,1.05-2.31,2.97
		s0.92,2.95,2.31,2.95c1.03,0,1.67-0.46,1.97-1.35h2.68c-0.53,2.1-2.18,3.48-4.63,3.48c-2.84,0-4.87-1.99-4.87-5.08
		S116.71,25.44,119.55,25.44z"/>
	<path class="st0" d="M134.81,30.68h-2.08v4.76h-2.49v-12.4h4.56c2.98,0,4.48,1.69,4.48,3.84C139.28,28.76,138,30.68,134.81,30.68z
		 M134.7,28.67c1.4,0,2.02-0.69,2.02-1.79c0-1.14-0.62-1.81-2.02-1.81h-1.97v3.61H134.7z"/>
	<path class="st0" d="M143.53,35.44h-2.49V25.6h2.49v1.53c0.62-1.01,1.65-1.67,3.02-1.67v2.61h-0.66c-1.47,0-2.36,0.57-2.36,2.47
		V35.44z"/>
	<path class="st0" d="M152.58,35.6c-2.84,0-4.99-1.99-4.99-5.08c0-3.11,2.22-5.08,5.06-5.08s5.06,1.97,5.06,5.08
		C157.72,33.61,155.44,35.6,152.58,35.6z M152.58,33.43c1.31,0,2.58-0.96,2.58-2.91c0-1.97-1.23-2.91-2.54-2.91
		c-1.31,0-2.5,0.94-2.5,2.91C150.12,32.47,151.25,33.43,152.58,33.43z"/>
</g>
</svg>
