<svg xmlns="http://www.w3.org/2000/svg" viewBox="0 0 336.59 334.854"><path fill="#892D28" d="M134.461 170.542a5129.466 5129.466 0 00-10.769-24.193c-.653-1.584-1.027-2.423-1.119-2.517l-.419-1.119c-1.493-3.356-3.031-6.105-4.615-8.251-1.586-2.145-4.196-4.147-7.832-6.014l-.28-1.119c1.119.094 1.958.188 2.517.279 5.78.469 9.975.699 12.586.699 3.356 0 8.297-.186 14.824-.56l.559 1.119c-2.146 1.397-3.216 3.823-3.216 7.271 0 2.892.511 5.782 1.538 8.67a771.458 771.458 0 007.062 18.391c2.469 6.2 5.29 13.31 8.46 21.326l1.259 2.938c2.609 6.433 6.573 15.757 11.887 27.97 1.211 2.705 2.098 4.754 2.657 6.152h1.397c1.864-4.66 4.896-12.118 9.09-22.375l2.937-7.412a738.224 738.224 0 005.664-14.824c2.004-5.406 4.451-12.167 7.343-20.278a1658.6 1658.6 0 003.915-11.188 47.582 47.582 0 001.47-4.615c.42-1.584.629-3.122.629-4.615 0-2.05-.515-3.752-1.537-5.104-1.027-1.35-2.797-2.307-5.314-2.867l.42-.979c5.779.56 10.627.839 14.543.839 2.238 0 5.547-.187 9.93-.561 2.328-.092 4.103-.186 5.314-.279l-.42.979c-3.172 1.307-5.898 3.404-8.182 6.293-2.285 2.892-4.359 6.247-6.223 10.069a335.527 335.527 0 00-6.505 14.754c-2.098 5.083-4.639 11.396-7.62 18.949l-3.636 8.949c-1.494 3.637-3.871 9.278-7.133 16.922a3964.295 3964.295 0 00-8.181 19.298c-2.471 5.874-5.198 12.635-8.182 20.277-.467 1.024-1.027 1.538-1.678 1.538-.747 0-1.398-.698-1.958-2.098a830.057 830.057 0 00-5.035-12.097c-1.958-4.615-4.849-11.259-8.67-19.929a922.211 922.211 0 01-5.524-12.516 3671.1 3671.1 0 01-4.545-10.559c-2.142-5.398-4.611-11.271-7.408-17.613z"/><circle fill="none" stroke="#89796E" stroke-width="7" stroke-miterlimit="10" cx="167.393" cy="167.427" r="151.5"/></svg>