<?xml version="1.0" encoding="utf-8"?>
<!-- Generator: Adobe Illustrator 26.0.1, SVG Export Plug-In . SVG Version: 6.00 Build 0)  -->
<svg version="1.1" id="Ebene_1" xmlns="http://www.w3.org/2000/svg" xmlns:xlink="http://www.w3.org/1999/xlink" x="0px" y="0px"
	 width="733.6px" height="296.4px" viewBox="0 0 733.6 296.4" style="enable-background:new 0 0 733.6 296.4;" xml:space="preserve"
	>
<style type="text/css">
	.st0{opacity:0.85;}
	.st1{fill:#FFFFFF;}
</style>
<g class="st0">
	<path class="st1" d="M149.4,231.4H0v-27.9L141.7,7.3h44v192.2h40.4v31.9h-40.4v65h-36.3V231.4z M151,199.5V45.6L42.4,199.5H151z"/>
	<path class="st1" d="M364.6,0c80.3,0,101.3,63.8,101.3,147.4c0,84.8-21,149-101.3,149c-80.8,0-101.7-64.2-101.7-149
		C262.8,63.8,283.8,0,364.6,0z M364.6,33.5c-57.7,0-65.4,53.3-65.4,113.9c0,63,7.7,115.5,65.4,115.5c57.3,0,65-52.5,65-115.5
		C429.6,86.8,421.9,33.5,364.6,33.5z"/>
	<path class="st1" d="M656.9,231.4H507.5v-27.9L649.2,7.3h44v192.2h40.4v31.9h-40.4v65h-36.3V231.4z M658.5,199.5V45.6L549.9,199.5
		H658.5z"/>
</g>
</svg>
