<svg xmlns="http://www.w3.org/2000/svg" viewBox="0 0 683.334 182.52"><g opacity=".4"><path fill="#231F20" d="M154.142 94.212c-.358 0-.728-.106-1.044-.315L95.015 54.49a1.9 1.9 0 01-.818-1.557c0-.604.309-1.188.818-1.527l58.083-39.408a1.867 1.867 0 012.089 0l58.083 39.408c.52.342.813.927.813 1.527 0 .618-.301 1.203-.813 1.557l-58.083 39.4a1.828 1.828 0 01-1.045.322zM99.396 52.943l54.745 37.148 54.755-37.148L154.142 15.8 99.396 52.943z"/><path fill="#231F20" d="M154.142 122.209a1.86 1.86 0 01-1.054-.326L95.015 82.486a1.88 1.88 0 01-.818-1.547c0-.607.309-1.188.818-1.546l11.22-7.604a1.876 1.876 0 012.592.482 1.883 1.883 0 01-.502 2.603l-8.928 6.062 54.745 37.146 54.755-37.146-8.994-6.095a1.883 1.883 0 01-.492-2.6 1.866 1.866 0 012.591-.493l11.271 7.642c.52.354.813.938.813 1.546 0 .619-.301 1.194-.813 1.547l-58.082 39.397a1.851 1.851 0 01-1.049.329z"/><path fill="#231F20" d="M154.142 148.642c-.367 0-.734-.104-1.054-.326L95.015 108.92a1.886 1.886 0 01-.818-1.548c0-.618.309-1.195.818-1.546l11.22-7.606a1.86 1.86 0 012.592.493 1.867 1.867 0 01-.502 2.59l-8.928 6.069 54.745 37.144 54.755-37.144-8.994-6.104a1.884 1.884 0 01-.492-2.601 1.865 1.865 0 012.591-.492l11.271 7.646c.52.352.813.929.813 1.547a1.9 1.9 0 01-.813 1.548l-58.082 39.396c-.321.221-.689.33-1.049.33z"/></g><path d="M552.072 41.623v37.218h37.063v3.062h-37.063v37.223h-3.062V81.904h-37.062v-3.062h37.062V41.623h3.062z" opacity=".6"/><g fill="#666"><path d="M283.493 37.43c-3.824 4.03-8.215 7.184-13.175 9.455a47.952 47.952 0 01-15.5 4.186v-5.115c6.2-.93 11.831-3.1 16.895-6.51 5.062-3.41 9.196-7.905 12.4-13.485h5.27v106.95h-5.89V37.43zM330.303 102.22c0-7.75 2.093-14.078 6.277-18.987 4.185-4.906 9.997-7.774 17.438-8.603v-.31c-6.51-1.24-11.419-3.953-14.725-8.138-3.309-4.185-4.96-9.273-4.96-15.268 0-5.062.93-9.3 2.79-12.71 1.86-3.41 4.34-6.146 7.44-8.215 3.1-2.066 6.611-3.565 10.539-4.495 3.926-.93 8.007-1.395 12.245-1.395 4.132 0 8.188.465 12.167 1.395 3.978.93 7.518 2.429 10.618 4.495 3.101 2.068 5.58 4.805 7.44 8.215 1.859 3.41 2.789 7.648 2.789 12.71 0 5.994-1.654 11.083-4.959 15.268-3.309 4.185-8.215 6.897-14.726 8.138v.31c7.44.828 13.253 3.696 17.438 8.603 4.185 4.909 6.277 11.237 6.277 18.987 0 5.58-.983 10.412-2.944 14.493-1.965 4.083-4.6 7.467-7.905 10.152-3.309 2.688-7.234 4.677-11.78 5.968-4.549 1.29-9.354 1.938-14.415 1.938-5.168 0-9.997-.647-14.492-1.938-4.495-1.291-8.397-3.279-11.703-5.968-3.308-2.686-5.943-6.069-7.905-10.152-1.963-4.081-2.944-8.913-2.944-14.493zm5.89 0c0 4.755.853 8.862 2.558 12.323 1.705 3.463 3.977 6.304 6.82 8.524 2.841 2.224 6.146 3.875 9.92 4.96 3.771 1.085 7.724 1.628 11.857 1.628 4.132 0 8.06-.543 11.78-1.628 3.72-1.085 7.025-2.736 9.92-4.96 2.892-2.221 5.192-5.062 6.897-8.524 1.705-3.461 2.558-7.568 2.558-12.323 0-4.441-.828-8.239-2.48-11.392-1.654-3.151-3.928-5.735-6.82-7.75-2.894-2.016-6.227-3.488-9.997-4.418-3.772-.93-7.726-1.395-11.857-1.395-4.238 0-8.215.465-11.935 1.395-3.721.93-7.028 2.402-9.92 4.418-2.895 2.015-5.168 4.599-6.82 7.75-1.655 3.153-2.481 6.951-2.481 11.392zm31.155-30.069c3.41 0 6.743-.388 9.997-1.163 3.256-.774 6.147-2.015 8.681-3.72 2.53-1.705 4.572-3.899 6.122-6.588 1.551-2.686 2.325-5.94 2.325-9.765 0-4.03-.751-7.439-2.247-10.229-1.5-2.79-3.515-5.038-6.045-6.743-2.533-1.705-5.426-2.918-8.68-3.643-3.256-.722-6.642-1.085-10.153-1.085-3.515 0-6.897.363-10.152 1.085-3.255.725-6.149 1.938-8.681 3.643-2.533 1.705-4.548 3.953-6.045 6.743-1.499 2.79-2.247 6.199-2.247 10.229 0 3.824.775 7.079 2.325 9.765 1.55 2.688 3.59 4.883 6.123 6.588 2.53 1.705 5.424 2.945 8.68 3.72a43.004 43.004 0 009.997 1.163zM453.527 134.771c-7.75 0-14.104-1.681-19.065-5.038-4.959-3.356-8.912-7.696-11.857-13.02-2.944-5.321-4.986-11.262-6.122-17.825-1.138-6.561-1.705-13.044-1.705-19.452 0-6.406.567-12.89 1.705-19.453 1.136-6.561 3.178-12.502 6.122-17.825 2.945-5.32 6.898-9.66 11.857-13.02 4.961-3.356 11.315-5.037 19.065-5.037s14.104 1.681 19.065 5.037c4.96 3.359 8.912 7.699 11.857 13.02 2.945 5.323 4.984 11.265 6.122 17.825 1.136 6.563 1.705 13.047 1.705 19.453 0 6.408-.569 12.892-1.705 19.452-1.138 6.563-3.177 12.504-6.122 17.825-2.945 5.323-6.897 9.663-11.857 13.02-4.96 3.357-11.315 5.038-19.065 5.038zm0-5.115c6.612 0 12.063-1.601 16.353-4.805 4.287-3.202 7.646-7.285 10.075-12.245 2.427-4.96 4.107-10.386 5.038-16.275.93-5.89 1.395-11.521 1.395-16.895 0-5.372-.465-11.006-1.395-16.896-.931-5.89-2.611-11.314-5.038-16.274-2.429-4.961-5.788-9.041-10.075-12.245-4.289-3.202-9.74-4.806-16.353-4.806-6.718 0-12.194 1.604-16.43 4.806-4.238 3.204-7.571 7.284-9.997 12.245-2.43 4.96-4.107 10.385-5.038 16.274s-1.396 11.523-1.396 16.896c0 5.374.465 11.005 1.396 16.895s2.608 11.315 5.038 16.275c2.426 4.96 5.759 9.043 9.997 12.245 4.236 3.204 9.713 4.805 16.43 4.805z"/></g></svg>