<svg xmlns="http://www.w3.org/2000/svg" viewBox="0 0 683.334 182.52"><path d="M525.901 56.623v37.218h37.064v3.062h-37.064v37.22h-3.062V96.904h-37.062v-3.062h37.062V56.623h3.062z" opacity=".6"/><g opacity=".4"><path fill="#231F20" d="M221.887 96.477c-.358 0-.728-.104-1.044-.313L162.76 56.756a1.89 1.89 0 01-.818-1.553c0-.604.309-1.189.818-1.531l58.083-39.408a1.867 1.867 0 012.089 0l58.083 39.408c.52.342.814.927.814 1.531a1.88 1.88 0 01-.814 1.553l-58.083 39.401c-.308.212-.676.32-1.045.32zm-54.745-41.269l54.745 37.147 54.755-37.147-54.754-37.144-54.746 37.144z"/><path fill="#231F20" d="M221.887 124.475c-.367 0-.734-.106-1.054-.326L162.76 84.751a1.881 1.881 0 01-.818-1.547c0-.611.309-1.188.818-1.546l11.22-7.604a1.873 1.873 0 012.592.486 1.878 1.878 0 01-.502 2.599l-8.928 6.062 54.745 37.146 54.755-37.146-8.994-6.096a1.882 1.882 0 01-.492-2.6 1.866 1.866 0 012.591-.493l11.271 7.642c.52.354.814.936.814 1.547 0 .618-.301 1.193-.814 1.547l-58.082 39.396a1.851 1.851 0 01-1.049.331z"/><path fill="#231F20" d="M221.887 150.906c-.367 0-.734-.104-1.054-.326l-58.073-39.396c-.511-.354-.818-.932-.818-1.549s.309-1.195.818-1.545l11.22-7.607a1.86 1.86 0 012.592.494 1.867 1.867 0 01-.502 2.59l-8.928 6.068 54.745 37.146 54.755-37.146-8.994-6.1a1.886 1.886 0 01-.492-2.603 1.867 1.867 0 012.591-.492l11.271 7.646c.52.352.814.928.814 1.547 0 .611-.301 1.189-.814 1.547l-58.082 39.396c-.321.223-.688.33-1.049.33z"/></g><path fill="#666" d="M320.066 121.348a44.715 44.715 0 017.518-10.85c3.046-3.256 6.456-6.277 10.229-9.068a255.727 255.727 0 0111.548-8.059 624.517 624.517 0 0011.315-7.829c3.72-2.635 7.053-5.449 9.997-8.447 2.944-2.996 5.294-6.277 7.053-9.843 1.756-3.564 2.635-7.619 2.635-12.167 0-3.616-.724-6.897-2.17-9.843-1.448-2.944-3.386-5.476-5.812-7.595-2.429-2.117-5.22-3.744-8.37-4.883-3.153-1.136-6.486-1.705-9.998-1.705-4.857 0-9.094.853-12.709 2.558-3.619 1.705-6.615 4.03-8.99 6.976-2.379 2.944-4.161 6.408-5.348 10.385-1.189 3.979-1.783 8.292-1.783 12.942h-5.889c.619-13.021 3.744-22.604 9.377-28.753 5.631-6.146 13.768-9.222 24.412-9.222 4.547 0 8.836.596 12.865 1.782 4.03 1.189 7.542 2.998 10.54 5.425 2.996 2.429 5.372 5.479 7.13 9.146 1.756 3.669 2.635 7.982 2.635 12.942 0 6.304-1.473 11.857-4.417 16.662-2.945 4.805-6.665 9.172-11.16 13.098-4.495 3.928-9.353 7.595-14.569 11.005a343.91 343.91 0 00-14.726 10.152c-4.599 3.359-8.524 6.873-11.78 10.539-3.255 3.67-5.09 7.727-5.502 12.168h63.859v5.891h-71.3c.31-4.96 1.447-9.429 3.41-13.407zM407.331 102.051c-.104 4.443.645 8.475 2.248 12.09 1.6 3.617 3.797 6.719 6.587 9.299 2.79 2.586 6.069 4.574 9.843 5.969 3.771 1.395 7.827 2.092 12.168 2.092 4.545 0 8.68-.852 12.399-2.557s6.921-4.004 9.61-6.898c2.686-2.891 4.752-6.301 6.199-10.23 1.446-3.926 2.17-8.059 2.17-12.398s-.75-8.421-2.247-12.246c-1.499-3.821-3.618-7.13-6.354-9.92-2.74-2.79-5.969-5.011-9.688-6.665-3.721-1.651-7.75-2.48-12.09-2.48-6.201 0-11.471 1.267-15.811 3.798-4.34 2.533-8.215 6.277-11.625 11.237h-6.045l11.16-55.335h54.095v5.115h-49.445l-9.146 42.625.311.31c3.1-4.34 6.949-7.568 11.548-9.688 4.597-2.116 9.583-3.177 14.958-3.177 5.27 0 10.125.905 14.569 2.712 4.442 1.81 8.266 4.316 11.47 7.518 3.202 3.204 5.709 7.053 7.518 11.548 1.807 4.495 2.713 9.376 2.713 14.648 0 5.27-.879 10.178-2.635 14.725-1.759 4.549-4.238 8.5-7.44 11.857-3.204 3.359-7.028 5.967-11.47 7.828-4.444 1.859-9.354 2.789-14.725 2.789-5.169 0-10.025-.801-14.57-2.402-4.549-1.602-8.525-3.875-11.936-6.82s-6.045-6.561-7.904-10.85c-1.86-4.287-2.636-9.119-2.326-14.492h5.891z"/></svg>