<svg xmlns="http://www.w3.org/2000/svg" viewBox="0 0 683.334 182.52"><g fill="#666"><path d="M299.085 103.042c-.104 4.418.641 8.423 2.234 12.018 1.591 3.597 3.775 6.678 6.548 9.243 2.772 2.569 6.033 4.545 9.783 5.932 3.748 1.388 7.779 2.08 12.094 2.08 4.518 0 8.627-.848 12.325-2.542 3.697-1.693 6.881-3.979 9.553-6.854 2.669-2.875 4.723-6.265 6.162-10.169 1.438-3.902 2.156-8.012 2.156-12.324 0-4.314-.746-8.37-2.233-12.172-1.49-3.798-3.597-7.087-6.316-9.86-2.723-2.772-5.932-4.98-9.629-6.625-3.696-1.642-7.703-2.465-12.017-2.465-6.163 0-11.401 1.259-15.715 3.774-4.314 2.518-8.166 6.239-11.555 11.17h-6.009l11.093-55.001h53.769v5.084h-49.146l-9.09 42.368.308.308c3.082-4.314 6.906-7.523 11.478-9.629 4.569-2.104 9.525-3.159 14.867-3.159 5.238 0 10.063.9 14.481 2.696 4.415 1.798 8.217 4.29 11.401 7.472 3.182 3.185 5.674 7.01 7.471 11.479 1.797 4.468 2.697 9.32 2.697 14.56 0 5.237-.874 10.117-2.619 14.636-1.748 4.521-4.213 8.449-7.396 11.785-3.186 3.339-6.985 5.932-11.401 7.78-4.417 1.85-9.296 2.772-14.635 2.772-5.137 0-9.964-.797-14.482-2.388-4.521-1.592-8.474-3.852-11.863-6.779-3.39-2.927-6.008-6.521-7.857-10.783-1.849-4.262-2.619-9.063-2.311-14.405h5.854zM416.021 137.399c-7.703 0-14.021-1.671-18.95-5.007-4.932-3.337-8.858-7.649-11.786-12.94-2.927-5.289-4.956-11.194-6.086-17.719-1.131-6.521-1.693-12.965-1.693-19.335 0-6.366.562-12.812 1.693-19.335 1.13-6.521 3.159-12.426 6.086-17.717 2.928-5.289 6.854-9.603 11.786-12.94 4.931-3.337 11.247-5.008 18.95-5.008 7.702 0 14.02 1.671 18.949 5.008 4.931 3.339 8.858 7.651 11.785 12.94 2.928 5.291 4.954 11.196 6.086 17.717 1.129 6.523 1.694 12.969 1.694 19.335 0 6.37-.565 12.814-1.694 19.335-1.132 6.523-3.158 12.43-6.086 17.719-2.927 5.291-6.854 9.604-11.785 12.94-4.93 3.336-11.246 5.007-18.949 5.007zm0-5.084c6.571 0 11.989-1.591 16.254-4.775 4.261-3.183 7.6-7.24 10.014-12.171 2.412-4.931 4.083-10.322 5.008-16.178.924-5.854 1.386-11.45 1.386-16.793 0-5.339-.462-10.938-1.386-16.793-.925-5.854-2.596-11.247-5.008-16.177-2.414-4.93-5.753-8.986-10.014-12.171-4.265-3.183-9.683-4.776-16.254-4.776-6.679 0-12.121 1.595-16.331 4.776-4.213 3.185-7.524 7.241-9.938 12.171-2.415 4.93-4.084 10.322-5.008 16.177-.924 5.855-1.387 11.454-1.387 16.793 0 5.343.463 10.938 1.387 16.793.924 5.855 2.593 11.247 5.008 16.178 2.412 4.931 5.725 8.988 9.938 12.171 4.209 3.184 9.653 4.775 16.331 4.775z"/></g><g opacity=".4"><path fill="#231F20" d="M207.593 97.373c-.358 0-.728-.105-1.044-.314l-58.083-39.407a1.888 1.888 0 01-.818-1.553c0-.604.309-1.189.818-1.531l58.083-39.408a1.867 1.867 0 012.089 0l58.083 39.408c.52.342.814.927.814 1.531a1.88 1.88 0 01-.814 1.553l-58.083 39.401c-.308.213-.676.32-1.045.32zm-54.745-41.269l54.745 37.148 54.755-37.148-54.754-37.143-54.746 37.143z"/><path fill="#231F20" d="M207.593 125.371a1.86 1.86 0 01-1.054-.326l-58.073-39.398a1.88 1.88 0 01-.818-1.547c0-.611.309-1.188.818-1.546l11.22-7.604a1.873 1.873 0 012.592.486 1.878 1.878 0 01-.502 2.599l-8.928 6.062 54.745 37.147 54.755-37.147-8.994-6.095a1.882 1.882 0 01-.492-2.6 1.866 1.866 0 012.591-.493l11.271 7.642c.52.354.814.935.814 1.546 0 .619-.301 1.194-.814 1.547l-58.082 39.397a1.85 1.85 0 01-1.049.33z"/><path fill="#231F20" d="M207.593 151.803c-.367 0-.734-.104-1.054-.326l-58.073-39.395c-.511-.355-.818-.932-.818-1.549s.309-1.195.818-1.545l11.22-7.607a1.859 1.859 0 012.592.494 1.867 1.867 0 01-.502 2.59l-8.928 6.068 54.745 37.145 54.755-37.145-8.994-6.1a1.885 1.885 0 01-.492-2.602 1.866 1.866 0 012.591-.492l11.271 7.646c.52.352.814.928.814 1.547 0 .611-.301 1.189-.814 1.547l-58.082 39.396a1.848 1.848 0 01-1.049.328z"/></g></svg>