<?xml version="1.0" encoding="utf-8"?>
<!-- Generator: Adobe Illustrator 25.2.1, SVG Export Plug-In . SVG Version: 6.00 Build 0)  -->
<svg version="1.1" id="Ebene_1" xmlns="http://www.w3.org/2000/svg" xmlns:xlink="http://www.w3.org/1999/xlink" x="0px" y="0px"
	 viewBox="0 0 200 71" style="enable-background:new 0 0 200 71;" xml:space="preserve">
<style type="text/css">
	.st0{opacity:0.6;}
	.st1{fill:#FFFFFF;}
	.st2{opacity:0.6;fill:#FFFFFF;}
	.st3{fill:#5B5B5B;}
</style>
<g class="st0">
	<path class="st1" d="M96.2,10.3h12v3.1h-8.1v5h6.2v3.1h-6.2v8.2h-3.9V10.3z"/>
	<path class="st1" d="M120,30c-5.5,0-10-4.1-10-10c0-5.8,4.5-9.9,10-9.9c5.5,0,9.9,4.1,9.9,9.9C129.9,25.8,125.5,30,120,30z
		 M120,26.5c3.5,0,5.9-2.5,5.9-6.5s-2.4-6.4-5.9-6.4c-3.5,0-6,2.5-6,6.4S116.4,26.5,120,26.5z"/>
	<path class="st1" d="M141.8,30c-5.5,0-10-4.1-10-10c0-5.8,4.5-9.9,10-9.9c5.5,0,9.9,4.1,9.9,9.9C151.8,25.8,147.3,30,141.8,30z
		 M141.8,26.5c3.5,0,5.9-2.5,5.9-6.5s-2.4-6.4-5.9-6.4c-3.5,0-6,2.5-6,6.4S138.3,26.5,141.8,26.5z"/>
	<path class="st1" d="M153.6,10.3h14.2v3.1h-5.2v16.3h-3.9V13.5h-5.2V10.3z"/>
	<path class="st1" d="M182,13.5h-7.4v4.9h6.5v3.1h-6.5v5.1h7.4v3.2h-11.3V10.3H182V13.5z"/>
	<path class="st1" d="M192.8,10.3c4.7,0,7,2.7,7,6c0,2.4-1.3,4.8-4.4,5.6l4.6,7.9h-4.5l-4.3-7.6h-1.8v7.6h-3.9V10.3H192.8z
		 M192.7,13.6h-3.3v5.7h3.3c2.2,0,3.1-1.1,3.1-2.9C195.8,14.7,194.8,13.6,192.7,13.6z"/>
	<path class="st1" d="M100.1,39.3v16.3h6.4v3.1H96.2V39.3H100.1z"/>
	<path class="st1" d="M118,59c-5.5,0-10-4.1-10-10c0-5.8,4.5-9.9,10-9.9c5.5,0,9.9,4.1,9.9,9.9C127.9,54.8,123.5,59,118,59z
		 M118,55.5c3.5,0,5.9-2.5,5.9-6.5c0-4-2.4-6.4-5.9-6.4c-3.5,0-6,2.5-6,6.4C112,53,114.5,55.5,118,55.5z"/>
	<path class="st1" d="M148.8,45.2h-4.5c-0.9-1.6-2.5-2.5-4.6-2.5c-3.5,0-5.9,2.5-5.9,6.3c0,4,2.4,6.4,6.1,6.4c3,0,4.9-1.7,5.5-4.5
		h-6.7v-3h10.5v3.4c-0.8,4-4.3,7.6-9.5,7.6c-5.6,0-9.9-4.1-9.9-9.9s4.3-9.9,9.9-9.9C144.1,39.1,147.6,41.3,148.8,45.2z"/>
	<path class="st1" d="M161.2,59c-5.5,0-10-4.1-10-10c0-5.8,4.5-9.9,10-9.9c5.5,0,9.9,4.1,9.9,9.9C171.1,54.8,166.7,59,161.2,59z
		 M161.2,55.5c3.5,0,5.9-2.5,5.9-6.5c0-4-2.4-6.4-5.9-6.4c-3.5,0-6,2.5-6,6.4C155.3,53,157.7,55.5,161.2,55.5z"/>
</g>
<rect x="77" class="st2" width="4" height="71"/>
<circle class="st2" cx="31" cy="37" r="31"/>
<g class="st0">
	<path class="st3" d="M44.5,24.8c-3-3.5-7.9-3.5-10.9,0l-2,2.4l-2-2.4c-3-3.5-7.9-3.5-10.9,0c-3.4,4-3.4,10.4,0,14.4l13,15.2
		l13-15.2C47.8,35.2,47.8,28.7,44.5,24.8z"/>
</g>
</svg>
