<?xml version="1.0" encoding="utf-8"?>
<!-- Generator: Adobe Illustrator 16.0.0, SVG Export Plug-In . SVG Version: 6.00 Build 0)  -->
<!DOCTYPE svg PUBLIC "-//W3C//DTD SVG 1.1//EN" "http://www.w3.org/Graphics/SVG/1.1/DTD/svg11.dtd">
<svg version="1.1" id="Ebene_1" xmlns="http://www.w3.org/2000/svg" xmlns:xlink="http://www.w3.org/1999/xlink" x="0px" y="0px"
	 width="13px" height="13px" viewBox="0 0 13 13" enable-background="new 0 0 13 13" xml:space="preserve">
<path fill-rule="evenodd" clip-rule="evenodd" fill="#91979C" stroke="#91979C" stroke-width="0.5" stroke-miterlimit="10" d="
	M9.242,2.767L6.824,4.805v5.222L9.242,7.75V2.767L9.242,2.767z M11.193,3.757v5.991l-3.881,0.703l2.473-2.328
	c0.068-0.064,0.102-0.15,0.102-0.236V4.1L11.193,3.757L11.193,3.757z M9.887,3.433l1.525-0.399c0.211-0.056,0.426,0.082,0.426,0.306
	v6.676c0,0.152-0.109,0.289-0.266,0.316l-4.987,0.906l0,0H6.584L6.583,11.24H6.582l0,0H6.58l0,0H6.579H6.578H6.576H6.575
	l-0.01,0.004l0,0H6.563H6.562H6.561H6.559H6.558l0,0H6.556H6.553l-0.001,0.002H6.551H6.549l0,0H6.548H6.546H6.545H6.543
	l-0.001,0.002H6.542l0,0H6.54H6.539H6.537H6.536H6.534H6.533l0,0L6.532,11.25H6.53H6.529H6.527H6.526H6.524H6.523H6.522H6.52H6.519
	H6.517H6.516l0,0H6.513H6.512l0,0H6.51H6.507H6.506H6.504H6.503l0,0H6.502H6.5l0,0H6.497H6.496l0,0H6.494H6.491H6.49H6.488H6.487
	l0,0H6.486H6.484H6.483H6.481H6.48H6.478H6.477H6.476H6.474H6.473H6.471H6.47H6.468l-0.001-0.002l0,0H6.466H6.464H6.463H6.461H6.46
	H6.458l0,0H6.458l-0.001-0.002H6.455H6.454H6.452H6.451l0,0H6.45H6.448l-0.001-0.002H6.444H6.442l0,0H6.441H6.44H6.438H6.437H6.435
	l0,0l-0.01-0.004H6.424H6.422H6.421H6.42H6.418l0,0H6.417H6.416v-0.002H6.415l0,0l-4.987-0.906
	c-0.155-0.027-0.265-0.164-0.265-0.316L1.162,3.34c0-0.224,0.216-0.362,0.427-0.306l1.524,0.399L3.111,2.072
	c0-0.178,0.145-0.323,0.324-0.323c0.087,0,0.166,0.035,0.223,0.09L6.5,4.235L9.342,1.84c0.057-0.056,0.137-0.09,0.223-0.09
	c0.18,0,0.324,0.145,0.324,0.323L9.887,3.433L9.887,3.433z M3.113,4.1L1.807,3.757v5.991l3.881,0.703L3.214,8.123
	c-0.068-0.064-0.102-0.15-0.102-0.236V4.1L3.113,4.1z M6.176,4.805L3.758,2.767V7.75l2.418,2.277V4.805z"/>
</svg>
