<svg xmlns="http://www.w3.org/2000/svg" viewBox="0 0 141.725 141.727"><path fill="none" stroke="#FFF" stroke-width="2.5" stroke-linejoin="round" stroke-miterlimit="10" d="M74.272 64.314l24.322-8.687v-7.656a2.316 2.316 0 00-2.316-2.316H45.447a2.317 2.317 0 00-2.315 2.316v15.855l14.928-7.619 16.212 8.107z"/><g fill="none" stroke="#FFF" stroke-width="2.5" stroke-linejoin="round" stroke-miterlimit="10"><path d="M48.021 61.33v21.644h6.691V57.915zM58.058 56.207l-3.346 1.708v25.059h6.44v-25.22zM93.575 57.42v25.554h2.702a2.317 2.317 0 002.316-2.315v-25.03l-5.018 1.791zM43.13 63.826v16.831a2.317 2.317 0 002.315 2.315h2.574V61.33l-4.889 2.496zM61.152 57.754v25.22h6.692V61.1zM86.889 59.808v23.166h6.686V57.42zM80.449 62.108v20.866h6.44V59.808z"/><path d="M74.272 64.314l-.514-.257v18.917h6.691V62.108zM67.844 61.1v21.874h5.914V64.057z"/></g><path fill="none" stroke="#FFF" stroke-width="2.5" stroke-linejoin="round" stroke-miterlimit="10" d="M66.171 82.974v10.037M75.431 82.974v10.037M81.091 94.338c0-.732-.594-1.327-1.328-1.327H61.838c-.733 0-1.328.595-1.328 1.327v1.733h20.58l.001-1.733h0z"/><circle fill="#54C3E9" cx="70.979" cy="70.979" r="68.342"/><g><path fill="#FFF" d="M102.722 84.885v3.174c0 1.754-2.381 3.174-5.29 3.174H44.528c-2.91 0-5.291-1.42-5.291-3.174v-3.174H102.722zm-55.02-7.407V54.201c0-2.91 2.381-5.291 5.291-5.291h35.975c2.909 0 5.29 2.381 5.29 5.291v23.277c0 2.911-2.381 5.291-5.29 5.291H52.992c-2.909 0-5.29-2.38-5.29-5.291zm4.232 0c0 .562.496 1.059 1.058 1.059h35.975c.562 0 1.058-.496 1.058-1.059V54.201c0-.562-.496-1.058-1.058-1.058H52.992c-.562 0-1.058.496-1.058 1.058v23.277zm22.22 10.052a.523.523 0 00-.528-.529h-5.291a.523.523 0 00-.529.529c0 .299.231.529.529.529h5.291a.522.522 0 00.528-.529z"/></g></svg>