<svg xmlns="http://www.w3.org/2000/svg" viewBox="0 0 140 85"><path d="M57.417 46.417v.775a37.816 37.816 0 01-1.813 1.612c-.498.408-.994.775-1.488 1.1-.494.326-.904.558-1.23.697-.326.138-.605.208-.837.208a1.706 1.706 0 01-1.359-.618c-.351-.412-.527-.943-.527-1.595 0-.749.151-1.49.454-2.223.304-.734.736-1.492 1.298-2.275a36.855 36.855 0 012.11-2.633c.63-.719.944-1.123.944-1.213a.184.184 0 00-.056-.135.172.172 0 00-.123-.056c-.143 0-.58.314-1.314.943-.734.63-1.676 1.554-2.825 2.774-1.15 1.22-2.39 2.673-3.723 4.358-.075.09-.312.395-.713.915-.4.52-.683.86-.848 1.016-.165.158-.307.236-.427.236-.21 0-.39-.211-.544-.634a3.937 3.937 0 01-.23-1.354c0-.292.095-.606.286-.943.19-.337.606-.941 1.246-1.814.64-.872 1.17-1.607 1.59-2.206.419-.6.88-1.326 1.38-2.18.353-.59.613-1.062.781-1.414.169-.352.253-.663.253-.932 0-.232-.067-.348-.202-.348-.285 0-.82.38-1.606 1.14-.786.76-1.758 1.888-2.914 3.385-1.157 1.498-2.364 3.231-3.622 5.2-.412.674-.704 1.127-.876 1.359-.172.232-.363.348-.573.348-.262 0-.507-.279-.735-.837-.229-.557-.343-1.008-.343-1.353 0-.112.045-.236.135-.37.988-1.318 1.8-2.437 2.437-3.358a47.312 47.312 0 001.696-2.623c.494-.827.853-1.508 1.078-2.044.224-.535.337-.956.337-1.263 0-.322-.146-.483-.438-.483-.24 0-.648.154-1.224.46-.577.308-1.305.727-2.185 1.258-.88.532-1.585.938-2.117 1.219-.531.28-.928.421-1.19.421-.247 0-.37-.138-.37-.416 0-.157.052-.518.156-1.083.105-.566.214-.964.326-1.196.157-.3.56-.697 1.207-1.19.648-.495 1.006-.742 1.073-.742.06 0 .09.026.09.079 0 .03-.03.075-.09.134a7.4 7.4 0 00-.685.607 1.04 1.04 0 00-.28.516c1.37-.823 2.595-1.45 3.677-1.88 1.082-.431 1.833-.646 2.252-.646.21 0 .408.14.595.42.187.282.346.607.477.978.131.37.197.608.197.713 0 .382-.097.833-.292 1.353-.195.52-.459 1.125-.792 1.814-.333.689-.747 1.55-1.24 2.583.388-.502.76-.966 1.111-1.393.352-.426.702-.842 1.05-1.246.348-.405.702-.813 1.061-1.224a14.864 14.864 0 011.64-1.612 14.344 14.344 0 011.701-1.258c.528-.325.886-.488 1.073-.488.262 0 .496.144.702.432.206.288.309.597.309.927 0 .217-.143.632-.427 1.246-.285.614-.7 1.4-1.247 2.359-.546.958-1.269 2.193-2.167 3.706.853-.906 1.74-1.838 2.661-2.797.921-.958 1.606-1.658 2.056-2.1.449-.442.823-.778 1.123-1.01.411-.315.825-.654 1.24-1.017l.983-.859c.24-.21.453-.37.64-.483.188-.112.36-.168.517-.168.195 0 .44.224.736.673.295.45.443.738.443.865 0 .157-.088.345-.264.562-.176.217-.54.621-1.095 1.213a26.99 26.99 0 00-2.65 3.307c-.749 1.112-1.316 2.126-1.701 3.043-.386.918-.579 1.642-.579 2.174 0 .329.062.569.185.718.124.15.317.225.579.225.24 0 .462-.045.668-.135.206-.09.434-.217.685-.382l.713-.471c.315-.188.624-.388.927-.601.303-.214.539-.382.707-.506.169-.123.294-.211.376-.264zm4.526-4.975a.816.816 0 01-.533-.213.676.676 0 01-.253-.54c0-.328.157-.695.472-1.1.314-.404.64-.606.977-.606.225 0 .412.07.561.208.15.138.225.338.225.6 0 .322-.153.678-.46 1.067-.307.39-.637.584-.989.584zm.764 5.02v.82c-.726.936-1.404 1.642-2.033 2.117-.629.476-1.164.713-1.606.713-.614 0-1.07-.322-1.37-.966a4.944 4.944 0 01-.449-2.11c0-.293.03-.572.09-.838.06-.265.13-.484.213-.656.083-.173.236-.442.46-.81 1.064-1.654 2.037-2.481 2.92-2.481.457 0 .686.176.686.528 0 .24-.148.614-.444 1.123-.296.509-.56.872-.792 1.09-.651.628-1.076 1.066-1.274 1.313a1.309 1.309 0 00-.298.842c0 .27.101.495.303.674.202.18.464.27.786.27.352 0 .74-.13 1.163-.388.423-.258.971-.672 1.645-1.24zm7.468-2.032c-1.317 1.467-1.976 2.49-1.976 3.066 0 .322.13.483.393.483.217 0 .5-.115.848-.343.348-.228.893-.635 1.634-1.219v.775c-1.063 1.049-1.88 1.805-2.449 2.269-.569.464-1.033.696-1.392.696-.614 0-.921-.404-.921-1.213 0-.24.037-.475.112-.707.075-.232.178-.474.31-.725.13-.25.33-.61.6-1.078.27-.468.58-.997.932-1.589-.427.217-.962.648-1.606 1.292-.42.404-.775.788-1.067 1.15-.292.364-.604.768-.937 1.214-.334.445-.577.745-.73.898-.154.154-.31.23-.467.23-.24 0-.46-.25-.662-.752s-.303-1.086-.303-1.752c0-.412.046-.734.14-.966.094-.232.279-.561.556-.988.517-.794.962-1.376 1.336-1.746.375-.371.734-.556 1.078-.556.24 0 .433.04.579.123.146.083.219.21.219.382a.494.494 0 01-.068.236 1.387 1.387 0 01-.151.224c-.056.068-.174.199-.354.394-1.183 1.31-1.774 2.16-1.774 2.549 0 .217.07.326.213.326.09 0 .264-.145.522-.433.259-.288.592-.666 1-1.134.408-.468.89-.957 1.449-1.466.557-.509 1.192-1 1.903-1.47.397-.278.726-.416.988-.416.12 0 .238.164.354.494.116.33.174.662.174 1 0 .164-.16.415-.483.752zm5.436-2.988a.816.816 0 01-.534-.213.676.676 0 01-.252-.54c0-.328.157-.695.471-1.1.315-.404.64-.606.977-.606.225 0 .412.07.562.208.15.138.225.338.225.6 0 .322-.154.678-.46 1.067-.308.39-.637.584-.99.584zm.764 5.02v.82c-.727.936-1.404 1.642-2.033 2.117-.63.476-1.164.713-1.606.713-.614 0-1.07-.322-1.37-.966a4.944 4.944 0 01-.45-2.11c0-.293.03-.572.09-.838.06-.265.131-.484.214-.656.082-.173.236-.442.46-.81 1.063-1.654 2.037-2.481 2.92-2.481.457 0 .685.176.685.528 0 .24-.148.614-.443 1.123-.296.509-.56.872-.792 1.09-.652.628-1.076 1.066-1.275 1.313a1.309 1.309 0 00-.297.842c0 .27.1.495.303.674.202.18.464.27.786.27.352 0 .74-.13 1.162-.388.423-.258.972-.672 1.646-1.24zm5.03 1.539a218.97 218.97 0 002.662-2.386c.742-.678 1.324-1.212 1.747-1.6.423-.39.795-.72 1.117-.99.322-.269.528-.403.618-.403.172-.008.337.17.494.533.157.363.236.653.236.87 0 .143-.238.478-.713 1.006-.476.527-.831.948-1.067 1.263-.236.314-.354.644-.354.988 0 .202.067.365.202.489a.69.69 0 00.483.185c.217 0 .477-.112.78-.337.304-.224.781-.625 1.432-1.202v.798a41.342 41.342 0 01-1.774 1.589c-.532.445-.994.779-1.387 1-.393.22-.72.33-.983.33a.752.752 0 01-.584-.263.95.95 0 01-.235-.657c0-.255.045-.513.134-.775.09-.262.229-.573.416-.932.187-.36.434-.792.741-1.297l.842-1.387a30.476 30.476 0 00-2.032 1.797 26.032 26.032 0 00-1.449 1.51c-.374.43-.67.77-.887 1.016-.42.465-.809.697-1.168.697-.39 0-.584-.277-.584-.831 0-.225.146-.627.438-1.208.292-.58.707-1.32 1.246-2.218.045-.06.068-.153.068-.28 0-.15-.075-.225-.225-.225-.165 0-.402.155-.713.466-.31.31-.912.96-1.802 1.949a11.79 11.79 0 00-.837 1.083c-.31.446-.534.743-.668.893-.135.15-.27.225-.405.225-.27 0-.52-.24-.752-.719-.232-.48-.348-1.037-.348-1.673 0-.465.076-.865.23-1.202.153-.337.391-.756.713-1.258.502-.726.912-1.244 1.23-1.555.318-.31.653-.466 1.005-.466.217 0 .4.043.55.129.15.086.225.204.225.354 0 .157-.137.415-.41.775-.273.359-.62.73-1.039 1.111a4.368 4.368 0 00-.64.803c-.202.319-.303.549-.303.691 0 .202.078.303.236.303.127 0 .449-.262.965-.786.517-.524 1.084-1.095 1.702-1.713a18.36 18.36 0 011.718-1.538c.528-.408.975-.612 1.342-.612.225 0 .41.084.556.253a.918.918 0 01.22.623c0 .165-.113.462-.338.893-.224.43-.552.962-.983 1.594-.43.633-.986 1.399-1.667 2.297zm8.873-3.549c1.138-1.033 2.242-1.8 3.313-2.302 1.07-.502 1.898-.753 2.482-.753a.62.62 0 01.438.197c.135.131.241.283.32.455.078.172.118.3.118.382 0 .134-.053.234-.157.297-.105.064-.289.14-.55.23l.201.46c.083.188.146.34.191.456a.87.87 0 01.068.309c0 .18-.182.514-.545 1.005-.363.49-.618.851-.764 1.083-.146.233-.219.517-.219.854 0 .554.255.831.764.831.524 0 1.344-.49 2.46-1.471v.685c-1.895 2.104-3.25 3.156-4.066 3.156-.292 0-.5-.096-.623-.287-.124-.19-.186-.473-.186-.848 0-.591.214-1.448.64-2.571-1.093 1.213-1.905 2.075-2.436 2.588-.532.513-.97.77-1.314.77-.165 0-.371-.143-.618-.427-.247-.285-.466-.653-.657-1.106a3.594 3.594 0 01-.286-1.41c0-.352.033-.646.1-.881.068-.236.199-.478.394-.725.194-.247.505-.573.932-.977zm5.38-1.235c-1.947.89-3.334 1.647-4.162 2.268-.827.622-1.24 1.262-1.24 1.92 0 .24.04.437.123.59.082.154.195.23.337.23.082 0 .228-.052.438-.157a8.827 8.827 0 002.156-1.813c.651-.745 1.434-1.758 2.347-3.038zm8.007 3.122v.83c-1.565 2.075-2.838 3.112-3.819 3.112-.531 0-.949-.29-1.252-.87-.303-.58-.455-1.343-.455-2.286 0-.764.18-1.671.54-2.723.359-1.052.84-2.12 1.442-3.201a20.166 20.166 0 011.876-2.83c.647-.805 1.248-1.368 1.802-1.69.225-.135.4-.202.528-.202.157 0 .262.069.315.207.052.139.078.376.078.713 0 1.041-.423 2.32-1.269 3.836-.846 1.516-2.025 3.064-3.537 4.643-.075.39-.113.69-.113.899 0 .479.103.868.31 1.168.205.3.491.449.858.449.187 0 .39-.073.607-.219.217-.146.445-.328.685-.545.24-.217.707-.647 1.404-1.291zm-3.358-2.022c.389-.381.765-.816 1.128-1.302.363-.487.706-1.007 1.028-1.561.322-.554.575-1.052.758-1.494.183-.442.275-.775.275-1 0-.172-.06-.258-.18-.258-.045 0-.13.041-.258.124-.457.374-.97 1.106-1.538 2.195a13.081 13.081 0 00-1.213 3.296z" fill="#79797B" fill-rule="evenodd"/></svg>