<svg xmlns="http://www.w3.org/2000/svg" viewBox="0 0 140 85"><path d="M54.676 39.605l-2.453 3.377v3.498a.311.311 0 01-.099.237.34.34 0 01-.242.093.32.32 0 01-.33-.33v-3.487l-2.464-3.366a.337.337 0 01-.088-.231c0-.088.037-.165.11-.231a.354.354 0 01.242-.099.31.31 0 01.275.154l2.277 3.102 2.222-3.102c.08-.103.176-.154.286-.154.088 0 .165.035.231.104.066.07.099.145.099.226a.51.51 0 01-.066.209zm7.689 5.39a3.556 3.556 0 01-1.309 1.413c-.557.342-1.192.512-1.903.512-.711 0-1.346-.17-1.903-.512a3.556 3.556 0 01-1.309-1.413c-.315-.601-.473-1.28-.473-2.035 0-.763.158-1.445.473-2.046a3.518 3.518 0 011.309-1.408c.557-.337 1.192-.506 1.903-.506.711 0 1.346.169 1.903.506.557.337.994.807 1.309 1.408.315.601.473 1.283.473 2.046 0 .755-.158 1.434-.473 2.035zm-.61-3.745a2.848 2.848 0 00-1.056-1.172 2.88 2.88 0 00-1.546-.418c-.58 0-1.094.14-1.545.418-.452.279-.803.67-1.056 1.171-.254.503-.38 1.073-.38 1.711 0 .638.126 1.208.38 1.71.253.503.604.893 1.056 1.172a2.88 2.88 0 001.545.418c.58 0 1.094-.14 1.546-.418.45-.279.802-.67 1.056-1.172.253-.502.379-1.072.379-1.71 0-.638-.126-1.208-.38-1.71zm6.671-1.86c.323.188.574.448.754.782.18.333.269.709.269 1.127 0 .418-.09.8-.27 1.144-.18.345-.43.616-.753.814a2.04 2.04 0 01-1.089.297H65.06v2.926a.32.32 0 01-.33.33.32.32 0 01-.33-.33v-7.04a.32.32 0 01.33-.33h2.607c.403 0 .766.093 1.089.28zm-.055 3.064c.264-.308.396-.693.396-1.155 0-.455-.132-.825-.396-1.111-.264-.286-.609-.429-1.034-.429H65.06v3.157h2.277c.425 0 .77-.154 1.034-.462zm6.611-3.063c.323.187.574.447.754.78.18.334.269.71.269 1.128 0 .418-.09.8-.27 1.144-.18.345-.43.616-.753.814a2.04 2.04 0 01-1.089.297h-2.277v2.926a.32.32 0 01-.33.33.32.32 0 01-.33-.33v-7.04a.32.32 0 01.33-.33h2.607c.403 0 .766.093 1.089.28zm-.055 3.063c.264-.308.396-.693.396-1.155 0-.455-.132-.825-.396-1.111-.264-.286-.609-.429-1.034-.429h-2.277v3.157h2.277c.425 0 .77-.154 1.034-.462zm7.436-2.849l-2.453 3.377v3.498a.311.311 0 01-.099.237.34.34 0 01-.242.093.32.32 0 01-.33-.33v-3.487l-2.464-3.366a.337.337 0 01-.088-.231c0-.088.037-.165.11-.231a.354.354 0 01.242-.099.31.31 0 01.275.154l2.277 3.102 2.222-3.102c.08-.103.176-.154.286-.154.088 0 .165.035.231.104.066.07.099.145.099.226a.51.51 0 01-.066.209zm7.689 5.352a3.707 3.707 0 01-1.337 1.435 3.571 3.571 0 01-1.919.528 3.571 3.571 0 01-1.92-.528 3.666 3.666 0 01-1.33-1.436 4.214 4.214 0 01-.479-1.996c0-.726.16-1.391.479-1.996a3.666 3.666 0 011.33-1.436 3.571 3.571 0 011.92-.528c.711 0 1.351.176 1.92.528.568.352 1.013.83 1.336 1.436.323.605.484 1.27.484 1.996s-.161 1.391-.484 1.996zm-1.243-3.334a2.397 2.397 0 00-.825-.951 2.094 2.094 0 00-1.188-.352 2.11 2.11 0 00-1.194.346c-.348.232-.62.549-.814.952-.194.403-.291.85-.291 1.342 0 .491.097.939.291 1.342.195.403.466.72.815.952a2.11 2.11 0 001.193.346c.44 0 .836-.117 1.188-.352s.627-.552.825-.951c.198-.4.297-.846.297-1.337a2.97 2.97 0 00-.297-1.337z" fill="#79797B" fill-rule="evenodd"/></svg>