<svg xmlns="http://www.w3.org/2000/svg" viewBox="0 0 140 85"><g transform="translate(30 34)" fill="none" fill-rule="evenodd"><path d="M24.564 10.569c.397.42.864.756 1.402 1.011a3.868 3.868 0 001.675.383c.737 0 1.309-.167 1.717-.502.408-.334.612-.773.612-1.317 0-.283-.048-.524-.144-.723a1.573 1.573 0 00-.392-.51 2.835 2.835 0 00-.586-.382c-.227-.113-.47-.232-.731-.357l-1.598-.697a7.62 7.62 0 01-.799-.408 3.288 3.288 0 01-.731-.578 2.765 2.765 0 01-.527-.808 2.678 2.678 0 01-.204-1.079c0-.42.088-.81.264-1.173.175-.363.419-.677.73-.943a3.39 3.39 0 011.106-.621 4.258 4.258 0 011.402-.221c.669 0 1.286.127 1.853.383a4.65 4.65 0 011.445.994l-.765.918a3.975 3.975 0 00-1.13-.773 3.369 3.369 0 00-1.403-.281c-.623 0-1.125.144-1.505.433-.38.29-.569.689-.569 1.199 0 .272.054.501.162.688a1.7 1.7 0 00.433.494c.181.141.38.266.595.373.215.108.436.207.663.298l1.581.68c.317.136.618.292.901.468.283.175.527.38.731.612.204.232.365.504.485.815.119.312.178.672.178 1.08a2.956 2.956 0 01-1.02 2.252 3.593 3.593 0 01-1.19.68 4.724 4.724 0 01-1.581.247 5.36 5.36 0 01-3.91-1.649l.85-.986zm9.713-1.683c0-.669.1-1.272.297-1.81a4.3 4.3 0 01.791-1.369 3.503 3.503 0 011.139-.867c.43-.204.884-.306 1.36-.306.476 0 .895.082 1.258.247.363.164.731.41 1.105.739h.034l.136-.782h1.122v11.747h-1.411v-2.941l.068-1.462c-.329.306-.705.57-1.13.79a2.889 2.889 0 01-1.352.332c-1.043 0-1.873-.374-2.49-1.122-.618-.748-.927-1.813-.927-3.196zm1.445-.017c0 .997.198 1.774.595 2.329.397.555.958.833 1.683.833.385 0 .748-.093 1.088-.28.34-.188.68-.474 1.02-.859V6.574c-.351-.317-.688-.541-1.011-.671a2.635 2.635 0 00-.995-.196c-.329 0-.637.076-.926.23a2.339 2.339 0 00-.757.645c-.215.278-.385.61-.51.995a4.184 4.184 0 00-.187 1.292zm9.781-4.131h1.411v5.049c0 .782.122 1.346.365 1.691.244.346.638.519 1.182.519.43 0 .81-.11 1.139-.332.329-.22.691-.575 1.088-1.062V4.738h1.394V13h-1.156l-.119-1.292h-.051c-.385.453-.79.816-1.215 1.088-.426.272-.927.408-1.505.408-.884 0-1.527-.272-1.93-.816-.402-.544-.603-1.349-.603-2.414V4.738zm10.155 4.148c0-.68.105-1.29.314-1.827.21-.539.488-.995.833-1.369.346-.374.74-.66 1.182-.859a3.328 3.328 0 011.377-.297c.521 0 .989.09 1.402.272.414.181.76.442 1.037.782.278.34.49.748.638 1.224.147.476.221 1.009.221 1.598 0 .306-.017.561-.051.765h-5.576c.057.895.331 1.604.824 2.125.494.521 1.137.782 1.93.782.397 0 .762-.06 1.096-.179.335-.119.655-.274.961-.467l.493.918a7.038 7.038 0 01-1.207.595c-.442.17-.946.255-1.513.255-.555 0-1.074-.1-1.556-.298a3.687 3.687 0 01-1.258-.85 3.936 3.936 0 01-.841-1.351c-.204-.533-.306-1.139-.306-1.819zm5.78-.629c0-.85-.178-1.499-.536-1.946-.357-.448-.858-.672-1.504-.672-.295 0-.575.06-.842.178a2.333 2.333 0 00-.722.51 2.72 2.72 0 00-.536.817 3.772 3.772 0 00-.28 1.113h4.42zm4.052.629c0-.68.105-1.29.314-1.827.21-.539.488-.995.833-1.369.346-.374.74-.66 1.182-.859a3.328 3.328 0 011.377-.297c.521 0 .989.09 1.402.272.414.181.76.442 1.037.782.278.34.49.748.638 1.224.147.476.221 1.009.221 1.598 0 .306-.017.561-.051.765h-5.576c.057.895.331 1.604.824 2.125.494.521 1.137.782 1.93.782.397 0 .762-.06 1.096-.179.335-.119.655-.274.961-.467l.493.918a7.038 7.038 0 01-1.207.595c-.442.17-.946.255-1.513.255-.555 0-1.074-.1-1.556-.298a3.687 3.687 0 01-1.258-.85 3.936 3.936 0 01-.841-1.351c-.204-.533-.306-1.139-.306-1.819zm5.78-.629c0-.85-.178-1.499-.536-1.946-.357-.448-.858-.672-1.504-.672-.295 0-.575.06-.842.178a2.333 2.333 0 00-.722.51 2.72 2.72 0 00-.536.817 3.772 3.772 0 00-.28 1.113h4.42zm4.664-3.519h1.156l.119 1.496h.051c.283-.521.626-.935 1.028-1.241a2.13 2.13 0 011.318-.459c.329 0 .623.057.884.17l-.272 1.224a3.144 3.144 0 00-.374-.102 2.22 2.22 0 00-.425-.034c-.351 0-.717.142-1.097.425-.38.283-.71.776-.994 1.479V13h-1.394V4.738z" fill="#79797B"/><rect stroke="#979797" stroke-width="2" x="1" y="1" width="15" height="15" rx="1"/><path d="M8.5 1.5v14.318" stroke="#979797" stroke-linecap="square"/><circle stroke="#FFF" fill="#79797B" cx="8.5" cy="8.5" r="2.5"/></g></svg>