<?xml version="1.0" encoding="utf-8"?>
<!-- Generator: Adobe Illustrator 25.2.1, SVG Export Plug-In . SVG Version: 6.00 Build 0)  -->
<svg version="1.1" id="Ebene_1" xmlns="http://www.w3.org/2000/svg" xmlns:xlink="http://www.w3.org/1999/xlink" x="0px" y="0px"
	 viewBox="0 0 195.7 40.6" style="enable-background:new 0 0 195.7 40.6;" xml:space="preserve">
<style type="text/css">
	.st0{fill:#FFFFFF;}
</style>
<g>
	<path class="st0" d="M15.2,8.9H5.5v6.4h8.6v4.1H5.5v6.8h9.7v4.2H0.4V4.8h14.8V8.9z"/>
	<path class="st0" d="M28.5,9.7c5,0,8.4,2.6,9.5,7.2h-5.5c-0.6-1.7-1.9-2.8-4.1-2.8c-2.8,0-4.7,2.2-4.7,6.1c0,3.9,1.9,6.1,4.7,6.1
		c2.1,0,3.4-0.9,4.1-2.8H38c-1.1,4.3-4.5,7.2-9.5,7.2c-5.8,0-10-4.1-10-10.4S22.6,9.7,28.5,9.7z"/>
	<path class="st0" d="M41.8,3.3h5.1v27h-5.1V3.3z"/>
	<path class="st0" d="M51.4,4.7c0-1.7,1.3-3,3.1-3c1.8,0,3.1,1.3,3.1,3c0,1.7-1.4,3-3.1,3C52.7,7.7,51.4,6.3,51.4,4.7z M51.9,10.1
		H57v20.2h-5.1V10.1z"/>
	<path class="st0" d="M73.8,9.7c5.2,0,9.2,4.1,9.2,10.4c0,6.3-4.1,10.5-9.2,10.5c-3.2,0-5.4-1.6-6.7-3.2v12.5H62V10.1h5.1V13
		C68.4,11.3,70.7,9.7,73.8,9.7z M72.5,14.2c-2.7,0-5.3,2.1-5.3,5.9s2.6,5.9,5.3,5.9c2.8,0,5.4-2.2,5.4-6S75.3,14.2,72.5,14.2z"/>
	<path class="st0" d="M94.5,30.6c-5.1,0-8.6-3-8.8-6.7h5.1c0.2,1.5,1.6,2.7,3.6,2.7c2,0,3.1-0.9,3.1-2.1c0-3.6-11.4-1.3-11.4-8.7
		c0-3.4,3-6.1,8-6.1c4.9,0,7.8,2.7,8.1,6.7h-4.9c-0.1-1.6-1.4-2.6-3.4-2.6c-1.9,0-2.9,0.8-2.9,1.9c0,3.7,11.2,1.4,11.4,8.8
		C102.5,28,99.5,30.6,94.5,30.6z"/>
	<path class="st0" d="M115.5,30.6c-5.9,0-10.1-4.1-10.1-10.4c0-6.4,4.2-10.4,10.1-10.4c5.8,0,10,4,10,10c0,0.7,0,1.3-0.1,2h-14.8
		c0.3,3,2.3,4.7,4.9,4.7c2.2,0,3.4-1.1,4.1-2.4h5.5C123.9,27.7,120.5,30.6,115.5,30.6z M110.6,18.3h9.6c-0.1-2.7-2.2-4.3-4.8-4.3
		C112.9,13.9,111,15.5,110.6,18.3z"/>
	<path class="st0" d="M147.6,21.7l-5,8.6h-5.8l8-12.8l-8.1-12.6h5.9l5.5,8.5l5-8.5h5.8l-8,12.8l8.1,12.7h-5.9L147.6,21.7z"/>
	<path class="st0" d="M171.3,3.1c5.5,0,8.4,3.1,8.4,7c0,3.3-2.1,5.4-4,6v0.1c2.7,0.8,4.5,3,4.5,6.6c0,4.3-3.1,7.6-8.7,7.6
		c-5.3,0-9.2-2.6-9.5-8.2h5c0.1,2.3,1.6,3.9,4.4,3.9c2.6,0,3.9-1.6,3.9-3.7c0-3-1.9-4.1-5.7-4.1h-1.1v-4.2h1.1c3,0,5.2-0.8,5.2-3.5
		c0-2.1-1.3-3.3-3.6-3.3c-2.5,0-3.5,1.6-3.7,3.3h-5C162.7,5.8,166.2,3.1,171.3,3.1z"/>
</g>
</svg>
