<svg xmlns="http://www.w3.org/2000/svg" viewBox="0 0 140 85"><g fill="#79797B" fill-rule="evenodd"><path d="M59.836 41.776c0 .836-.3 1.613-.902 2.332-.85 1.027-1.987 1.767-3.41 2.222-1.056.337-2.083.506-3.08.506-.367 0-.726-.022-1.078-.066-2.303-.293-4.253-.8-5.852-1.518-1.452 1.07-2.985 1.606-4.598 1.606-1.907 0-3.087-.528-3.542-1.584a2.302 2.302 0 01-.154-.88c0-.337.169-.697.506-1.078.528-.587 1.261-.88 2.2-.88a5 5 0 011.672.264c.499.176 1.115.462 1.848.858.733.396 1.276.682 1.628.858.645-.63 1.313-1.507 2.002-2.629a37.354 37.354 0 001.815-3.3 42.205 42.205 0 011.991-3.597c.807-1.32 1.628-2.442 2.464-3.366l1.254-1.43c-1.159-.205-2.435-.308-3.828-.308-1.393 0-2.926.183-4.598.55-2.288.484-4.048 1.467-5.28 2.948-.748.895-1.122 1.745-1.122 2.552 0 1.07.52 1.767 1.562 2.09.367.103.69.154.968.154.279 0 .601-.051.968-.154.367-.103.722-.319 1.067-.649s.594-.649.748-.957c.154-.308.231-.539.231-.693 0-.154.073-.231.22-.231.147.015.227.117.242.308v.022c-.161 1.07-.733 1.885-1.716 2.442-.601.323-1.203.484-1.804.484l-1.144-.198c-1.555-.543-2.332-1.555-2.332-3.036 0-1.012.447-2.01 1.342-2.992 1.437-1.613 3.55-2.618 6.336-3.014 1.35-.19 2.754-.286 4.213-.286 1.46 0 2.944.161 4.455.484.41-.352.77-.587 1.078-.704.308-.117.488-.176.539-.176.051 0 .084.007.099.022.088 0 .106.048.055.143-.051.095-.213.231-.484.407-.271.176-.436.337-.495.484 1.995.513 3.432 1.247 4.312 2.2.47.528.704 1.067.704 1.617s-.161 1.104-.484 1.661c-.425.733-1.115 1.287-2.068 1.661a8.966 8.966 0 01-2.882.627c.939.293 1.811.704 2.618 1.232 1.144.748 1.716 1.745 1.716 2.992zm-7.7 4.444c1.643 0 3.036-.47 4.18-1.408 1.247-.997 1.87-2.075 1.87-3.234 0-1.203-.638-2.112-1.914-2.728-.47-.22-1.045-.436-1.727-.649a51.487 51.487 0 01-1.65-.539c-.418-.147-.656-.286-.715-.418 0-.279.213-.425.638-.44.279 0 .704.022 1.276.066.572.044 1.063.062 1.474.055.41-.007.906-.154 1.485-.44a4.9 4.9 0 001.485-1.111c.66-.733.99-1.423.99-2.068 0-1.379-1.29-2.369-3.872-2.97-.777 1.07-2.17 3.333-4.18 6.787-2.01 3.454-3.557 5.768-4.642 6.941l-.836.792c1.657.69 3.44 1.13 5.346 1.32.279.03.543.044.792.044zm-7.546-1.386c-1.716-.821-2.801-1.313-3.256-1.474a4.026 4.026 0 00-1.353-.242c-.447 0-.803.158-1.067.473-.264.315-.396.601-.396.858s.059.502.176.737c.323.66.997.99 2.024.99 1.393 0 2.684-.447 3.872-1.342zm15.796-.11c0-.63.271-1.393.814-2.288-.235 0-.3-.117-.198-.352l.396-.77c.499-.953.91-1.76 1.232-2.42.147-.308.433-.462.858-.462h1.342c-.528.381-1.06 1.118-1.595 2.211-.535 1.093-.95 1.95-1.243 2.574-.293.623-.44 1.096-.44 1.419 0 .323.055.55.165.682.11.132.26.198.451.198.279 0 .667-.293 1.166-.88.777-.91 1.87-2.823 3.278-5.742.161-.308.447-.462.858-.462h1.188c-.323.25-.576.506-.759.77-.183.264-.436.733-.759 1.408-.88 1.76-1.371 2.926-1.474 3.498a2.741 2.741 0 00-.066.572c0 .47.161.719.484.748.792 0 1.767-1.225 2.926-3.674.088-.205.176-.286.264-.242.088.044.132.103.132.176s-.066.242-.198.506l-.385.77c-.125.25-.315.59-.572 1.023a6.867 6.867 0 01-.715 1.023c-.572.645-1.133.968-1.683.968s-.928-.242-1.133-.726c-.088-.22-.132-.499-.132-.836 0-.337.073-.755.22-1.254-1.07 1.877-2.06 2.816-2.97 2.816-.792 0-1.254-.33-1.386-.99a.504.504 0 01-.066-.264zm10.516.858c.19.03.323.044.396.044.587 0 1.166-.345 1.738-1.034.308-.381.858-1.342 1.65-2.882.03-.073.08-.11.154-.11.132-.015.198.037.198.154 0 .03-.033.114-.099.253-.066.14-.128.279-.187.418-.059.14-.154.341-.286.605-.132.264-.246.477-.341.638-.095.161-.216.36-.363.594a2.572 2.572 0 01-.44.55l-.462.484c-.25.25-.543.425-.88.528-.543.176-1.07.19-1.584.044-.337.147-.638.22-.902.22-1.041 0-1.672-.41-1.892-1.232a3.128 3.128 0 01-.066-.693 1.3 1.3 0 01.275-.781c.183-.25.378-.381.583-.396a84.176 84.176 0 001.914-3.85c.587-1.247 1.269-1.87 2.046-1.87.205 0 .407.048.605.143.198.095.271.202.22.319-.051.117-.158.14-.319.066-.161-.073-.3-.11-.418-.11a.68.68 0 00-.308.066c-.499.235-.748.74-.748 1.518 0 .41.059.748.176 1.012.117.264.25.55.396.858.337.763.506 1.386.506 1.87 0 .484-.154.96-.462 1.43-.308.47-.675.85-1.1 1.144zm-.748-.154c.645-.499.968-1.305.968-2.42 0-.455-.051-1.078-.154-1.87-.103-.792-.154-1.327-.154-1.606 0-.279.007-.47.022-.572-1.115 2.23-1.804 3.586-2.068 4.07.308 0 .462.22.462.66 0 .865.308 1.445.924 1.738zm-1.65-.594c0 .088.007.183.022.286.117.396.389.594.814.594a.98.98 0 00.44-.088c-.543-.337-.836-.887-.88-1.65-.264.264-.396.55-.396.858zm8.47-7.128a.733.733 0 01-.594-.264.807.807 0 01-.176-.638c.044-.25.169-.462.374-.638s.433-.264.682-.264c.25 0 .451.088.605.264a.728.728 0 01.165.638c-.044.25-.169.462-.374.638a1.024 1.024 0 01-.682.264zm-1.474 7.81c.279 0 .572-.14.88-.418.543-.543 1.232-1.65 2.068-3.322.103-.22.205-.286.308-.198.03.03.044.077.044.143 0 .066-.059.227-.176.484-.117.257-.224.488-.319.693-.095.205-.279.539-.55 1.001-.271.462-.517.818-.737 1.067-.601.69-1.17 1.034-1.705 1.034-.535 0-.92-.161-1.155-.484a1.79 1.79 0 01-.352-1.078c0-.396.095-.829.286-1.298l1.408-3.586c.03-.088.044-.205.044-.352s-.088-.337-.264-.572l1.21-.022c.337 0 .535.062.594.187.059.125.015.319-.132.583l-1.76 4.114c-.25.543-.374 1.005-.374 1.386 0 .425.227.638.682.638zm9.614-6.732c-1.804 3.168-2.706 5.236-2.706 6.204 0 .381.14.572.418.572.748 0 1.753-1.269 3.014-3.806.088-.205.176-.286.264-.242.088.044.132.103.132.176s-.03.161-.088.264c-.777 1.57-1.434 2.651-1.969 3.245-.535.594-1.07.891-1.606.891-.535 0-.942-.205-1.221-.616-.147-.19-.22-.451-.22-.781s.073-.73.22-1.199c.147-.47.55-1.232 1.21-2.288.161-.264.242-.473.242-.627 0-.154-.125-.231-.374-.231-.25 0-.726.33-1.43.99-1.056.968-2.075 2.42-3.058 4.356-.088.147-.187.238-.297.275-.11.037-.326.062-.649.077s-.535.051-.638.11c.235-.47.697-1.43 1.386-2.882 1.232-2.567 2.039-4.033 2.42-4.4.176-.176.418-.264.726-.264.059 0 .209.022.451.066.242.044.422.051.539.022-.543.293-1.43 1.672-2.662 4.136.69-.85 1.316-1.529 1.881-2.035a10.778 10.778 0 012.035-1.408c.792-.433 1.371-.649 1.738-.649.088 0 .169.015.242.044zm1.694 3.828a4.354 4.354 0 00-.308 1.672c0 .41.092.737.275.979.183.242.444.363.781.363 1.335 0 2.545-1.254 3.63-3.762.103-.235.227-.337.374-.308.059.015.088.051.088.11 0 .059-.165.444-.495 1.155-.33.711-.664 1.287-1.001 1.727-.748 1.027-1.672 1.54-2.772 1.54-.587 0-1.085-.19-1.496-.572-.41-.381-.616-.902-.616-1.562s.158-1.36.473-2.101c.315-.74.744-1.43 1.287-2.068.543-.638 1.166-1.104 1.87-1.397.337-.147.66-.22.968-.22.308 0 .594.088.858.264.25.205.374.433.374.682 0 .88-.528 1.723-1.584 2.53-.323.25-.777.473-1.364.671-.587.198-1.034.297-1.342.297zm3.696-3.52c0-.293-.117-.44-.352-.44-.41 0-1.034.506-1.87 1.518a11.313 11.313 0 00-1.32 2.068c.25 0 .612-.088 1.089-.264.477-.176.891-.41 1.243-.704.807-.69 1.21-1.415 1.21-2.178zm2.64 6.49c.19.03.323.044.396.044.587 0 1.166-.345 1.738-1.034.308-.381.858-1.342 1.65-2.882.03-.073.08-.11.154-.11.132-.015.198.037.198.154 0 .03-.033.114-.099.253-.066.14-.128.279-.187.418-.059.14-.154.341-.286.605-.132.264-.246.477-.341.638-.095.161-.216.36-.363.594a2.572 2.572 0 01-.44.55l-.462.484c-.25.25-.543.425-.88.528-.543.176-1.07.19-1.584.044-.337.147-.638.22-.902.22-1.041 0-1.672-.41-1.892-1.232a3.128 3.128 0 01-.066-.693 1.3 1.3 0 01.275-.781c.183-.25.378-.381.583-.396a84.176 84.176 0 001.914-3.85c.587-1.247 1.269-1.87 2.046-1.87.205 0 .407.048.605.143.198.095.271.202.22.319-.051.117-.158.14-.319.066-.161-.073-.3-.11-.418-.11a.68.68 0 00-.308.066c-.499.235-.748.74-.748 1.518 0 .41.059.748.176 1.012.117.264.25.55.396.858.337.763.506 1.386.506 1.87 0 .484-.154.96-.462 1.43-.308.47-.675.85-1.1 1.144zm-.748-.154c.645-.499.968-1.305.968-2.42 0-.455-.051-1.078-.154-1.87-.103-.792-.154-1.327-.154-1.606 0-.279.007-.47.022-.572-1.115 2.23-1.804 3.586-2.068 4.07.308 0 .462.22.462.66 0 .865.308 1.445.924 1.738zm-1.65-.594c0 .088.007.183.022.286.117.396.389.594.814.594a.98.98 0 00.44-.088c-.543-.337-.836-.887-.88-1.65-.264.264-.396.55-.396.858zm8.03.748c.19.03.323.044.396.044.587 0 1.166-.345 1.738-1.034.308-.381.858-1.342 1.65-2.882.03-.073.08-.11.154-.11.132-.015.198.037.198.154 0 .03-.033.114-.099.253-.066.14-.128.279-.187.418-.059.14-.154.341-.286.605-.132.264-.246.477-.341.638-.095.161-.216.36-.363.594a2.572 2.572 0 01-.44.55l-.462.484c-.25.25-.543.425-.88.528-.543.176-1.07.19-1.584.044-.337.147-.638.22-.902.22-1.041 0-1.672-.41-1.892-1.232a3.128 3.128 0 01-.066-.693 1.3 1.3 0 01.275-.781c.183-.25.378-.381.583-.396a84.176 84.176 0 001.914-3.85c.587-1.247 1.269-1.87 2.046-1.87.205 0 .407.048.605.143.198.095.271.202.22.319-.051.117-.158.14-.319.066-.161-.073-.3-.11-.418-.11a.68.68 0 00-.308.066c-.499.235-.748.74-.748 1.518 0 .41.059.748.176 1.012.117.264.25.55.396.858.337.763.506 1.386.506 1.87 0 .484-.154.96-.462 1.43-.308.47-.675.85-1.1 1.144zm-.748-.154c.645-.499.968-1.305.968-2.42 0-.455-.051-1.078-.154-1.87-.103-.792-.154-1.327-.154-1.606 0-.279.007-.47.022-.572-1.115 2.23-1.804 3.586-2.068 4.07.308 0 .462.22.462.66 0 .865.308 1.445.924 1.738zm-1.65-.594c0 .088.007.183.022.286.117.396.389.594.814.594a.98.98 0 00.44-.088c-.543-.337-.836-.887-.88-1.65-.264.264-.396.55-.396.858zM37.72 51.61h.664v5.248h-.664V51.61zm6.904 0h.688l1.896 3.296.568 1.088h.032c-.016-.267-.033-.543-.052-.828a12.928 12.928 0 01-.028-.844V51.61h.632v5.248h-.688l-1.904-3.304-.568-1.08h-.032c.021.267.041.537.06.812.019.275.028.55.028.828v2.744h-.632V51.61zm11.064.56h-1.584v-.56h3.84v.56H56.36v4.688h-.672V52.17zm8-.56h3.024v.56h-2.36v1.648h1.992v.568h-1.992v1.904h2.44v.568h-3.104V51.61zm9.68 2.488h.88c.41 0 .725-.084.944-.252.219-.168.328-.423.328-.764 0-.347-.11-.59-.328-.728-.219-.139-.533-.208-.944-.208h-.88v1.952zm2.216 2.76l-1.264-2.216h-.952v2.216h-.664V51.61h1.64c.267 0 .513.025.74.076.227.05.421.135.584.252.163.117.29.27.38.456.09.187.136.416.136.688 0 .41-.107.739-.32.984a1.63 1.63 0 01-.856.504l1.328 2.288h-.752zm6.568-5.248h.664v5.248h-.664V51.61zm8.84 5.344c-.33 0-.633-.064-.908-.192a2.022 2.022 0 01-.708-.548 2.569 2.569 0 01-.46-.864 3.7 3.7 0 01-.164-1.14c0-.421.055-.799.164-1.132.11-.333.263-.616.46-.848.197-.232.433-.41.708-.532.275-.123.577-.184.908-.184.33 0 .633.063.908.188s.512.304.712.536c.2.232.355.515.464.848.11.333.164.708.164 1.124a3.7 3.7 0 01-.164 1.14c-.11.339-.264.627-.464.864s-.437.42-.712.548a2.123 2.123 0 01-.908.192zm0-.584a1.326 1.326 0 001.124-.588c.136-.19.241-.416.316-.68.075-.264.112-.561.112-.892 0-.325-.037-.619-.112-.88a2.02 2.02 0 00-.316-.664 1.355 1.355 0 00-1.124-.568 1.355 1.355 0 00-1.124.568 2.02 2.02 0 00-.316.664 3.202 3.202 0 00-.112.88c0 .33.037.628.112.892.075.264.18.49.316.68a1.326 1.326 0 001.124.588zm8.84-2.272h.88c.41 0 .725-.084.944-.252.219-.168.328-.423.328-.764 0-.347-.11-.59-.328-.728-.219-.139-.533-.208-.944-.208h-.88v1.952zm2.216 2.76l-1.264-2.216h-.952v2.216h-.664V51.61h1.64c.267 0 .513.025.74.076.227.05.421.135.584.252.163.117.29.27.38.456.09.187.136.416.136.688 0 .41-.107.739-.32.984a1.63 1.63 0 01-.856.504l1.328 2.288h-.752z"/></g></svg>