<svg xmlns="http://www.w3.org/2000/svg" viewBox="0 0 140 85"><path d="M27.235 34.303l-.562-.023c-.561 0-.842.176-.842.528 0 .749.056 1.857.169 3.324.112 1.468.168 2.576.168 3.325.18 0 .438-.045.775-.135.337-.09.574-.135.713-.135s.243.052.314.157a.543.543 0 01.107.303c0 .188-.159.304-.477.349a20.71 20.71 0 01-.955.112c-.318.03-.477.12-.477.27 0 .868.073 2.161.219 3.88.146 1.718.219 3.007.219 3.868l-.067.124a.901.901 0 01.067.337c0 .262-.168.393-.505.393-.262 0-.393-.52-.393-1.561l.022-.741c0-.779-.049-1.938-.146-3.476-.097-1.539-.146-2.694-.146-3.465 0-4.447-.146-6.854-.438-7.22v-.147c0-.546.76-.82 2.28-.82.254 0 .382.176.382.528 0 .15-.143.225-.427.225zm5.009 16.913c-.217 0-.326-.187-.326-.562l.112-4.436-.157-1.864c0-.247-.047-.606-.14-1.078-.094-.472-.14-.797-.14-.977 0-.18-.021-.378-.062-.595-.042-.218-.1-.48-.175-.787a18.74 18.74 0 01-.162-.713c-.034-.168-.122-.627-.264-1.375-.307-1.565-.567-2.705-.78-3.42-.214-.715-.32-1.17-.32-1.365 0-.314.153-.471.46-.471l.27.18c.037.62.237 1.83.6 3.627.363 1.797.646 2.834.848 3.11.24-.703.404-1.585.494-2.644.09-1.06.165-1.862.225-2.409.134-1.198.348-1.797.64-1.797.232 0 .348.082.348.247 0 .12-.03.287-.09.5-.06.213-.103.402-.13.567-.025.165-.111.655-.257 1.471-.146.816-.253 1.43-.32 1.842-.203 1.22-.304 2.34-.304 3.358l.068.752-.146.349v.18l.168 2.762c0 2.074-.015 3.624-.045 4.65l.068.067.022.157a.865.865 0 01-.13.466.416.416 0 01-.375.208zm9.4-1.528l.067.832c0 .449-.195.673-.584.673-.27 0-.453-.288-.55-.864a20.03 20.03 0 00-.09-.45c-1.498-4.724-2.44-8.175-2.83-10.354a2.1 2.1 0 01-.034-.315c-.015-.307-.086-.524-.213-.65l.045-.113a29.881 29.881 0 00-.382-1.932 7.34 7.34 0 00-.405-1.314 5.512 5.512 0 00-.067.719c0 .165.015.292.045.382-.105.36-.157.89-.157 1.594v6.3c0 .735.052 1.828.157 3.28.105 1.453.157 2.546.157 3.28l-.157.18h-.528l-.067-.18c.03-.12.045-.427.045-.922l-.259-8.007v-3.01l.169-4.346-.023-.483c0-.194.05-.324.152-.387a.728.728 0 01.393-.096c.161 0 .301.047.421.14.12.094.18.242.18.444 0 .203.034.423.101.663.067.24.165.507.292.803.127.296.226.565.298.809.07.243.136.632.196 1.167.06.536.131 1.01.213 1.421.083.412.218.966.405 1.662.187.697.402 1.468.646 2.314.243.846.398 1.402.466 1.667.067.266.157.605.27 1.017.239.853.366 1.456.381 1.808.105.157.185.46.241.91.057.449.182.756.377.92.097-.217.146-.583.146-1.1l.09-8.007-.068-3.56.067-.876c0-.165-.022-.263-.067-.292l.067-.191c0-.944-.03-1.573-.09-1.887.06-.21.251-.315.573-.315.247 0 .371.251.371.753-.097.195-.146.45-.146.764l.022.774c0 .33-.03.562-.09.697l-.067 7.266c0 .142.015.348.045.618l-.045.1v2.898l.045.865c0 .913-.075 1.542-.224 1.887v.044zm8.67 0l.067.832c0 .449-.195.673-.584.673-.27 0-.453-.288-.55-.864a20.03 20.03 0 00-.09-.45c-1.498-4.724-2.441-8.175-2.83-10.354a2.1 2.1 0 01-.034-.315c-.015-.307-.086-.524-.213-.65l.045-.113a29.881 29.881 0 00-.382-1.932 7.34 7.34 0 00-.405-1.314 5.512 5.512 0 00-.067.719c0 .165.015.292.045.382-.105.36-.157.89-.157 1.594v6.3c0 .735.052 1.828.157 3.28.105 1.453.157 2.546.157 3.28l-.157.18h-.528l-.067-.18c.03-.12.045-.427.045-.922l-.259-8.007v-3.01l.169-4.346-.023-.483c0-.194.05-.324.152-.387a.728.728 0 01.393-.096c.161 0 .301.047.421.14.12.094.18.242.18.444 0 .203.034.423.1.663.068.24.166.507.293.803.127.296.226.565.298.809.07.243.136.632.196 1.167.06.536.131 1.01.213 1.421.083.412.218.966.405 1.662.187.697.402 1.468.645 2.314.244.846.4 1.402.467 1.667.067.266.157.605.27 1.017.239.853.366 1.456.38 1.808.106.157.186.46.242.91.057.449.182.756.377.92.097-.217.146-.583.146-1.1l.09-8.007-.068-3.56.067-.876c0-.165-.022-.263-.067-.292l.067-.191c0-.944-.03-1.573-.09-1.887.06-.21.251-.315.573-.315.247 0 .37.251.37.753-.096.195-.145.45-.145.764l.022.774c0 .33-.03.562-.09.697l-.067 7.266c0 .142.015.348.045.618l-.045.1v2.898l.045.865c0 .913-.075 1.542-.225 1.887v.044zm4.986 1.247l-.719-.022c-.082 0-.187.046-.314.14-.128.094-.244.14-.349.14-.104 0-.211-.048-.32-.146a.441.441 0 01-.162-.337l.134-1.044-.224-6.525-.236-9.613c0-.157.1-.236.303-.236.292 0 .438.138.438.416 0 3.54.038 5.785.112 6.732.075.947.113 1.533.113 1.758 0 .224-.015.524-.045.898l.067.09c-.03.404-.045.814-.045 1.23 0 .415.04 1.21.118 2.386.079 1.176.126 2.01.14 2.505-.06.09-.09.243-.09.46 0 .217.036.363.107.438.071.075.223.112.455.112s.39-.048.472-.146h.853c.21.105.315.225.315.36 0 .3-.105.449-.315.449-.052 0-.168-.03-.348-.09-.075.03-.228.045-.46.045zm8.625-6.94l-.214 2.964.045.09c-.12.517-.18.981-.18 1.393 0 .412-.082.837-.246 1.275-.165.438-.41.83-.736 1.179-.326.348-.676.522-1.05.522s-.723-.142-1.044-.427a3.393 3.393 0 01-.803-1.095 8.994 8.994 0 01-.562-1.583c-.161-.61-.286-1.21-.376-1.797a32.426 32.426 0 01-.225-1.825 32.485 32.485 0 01-.135-2.723c0-.768.034-1.642.101-2.623.068-.98.105-1.613.113-1.898.007-.284.015-.535.022-.752.008-.217.026-.477.056-.78.03-.304.07-.57.118-.798.049-.228.122-.462.22-.702.097-.24.216-.438.359-.595.314-.352.754-.528 1.32-.528.565 0 1.03.153 1.397.46.053.083.19.266.41.55.221.285.386.557.495.815.108.258.23.893.365 1.904.366 2.62.55 4.945.55 6.974zm-3.178-10.108c-1.131 0-1.696 2.272-1.696 6.817v.899c0 1.063.08 2.206.241 3.43.161 1.225.33 2.218.506 2.982.176.764.423 1.415.74 1.954.319.54.673.809 1.062.809.524 0 .906-.534 1.146-1.6.24-1.067.381-2.016.426-2.847.053-1.138.079-1.88.079-2.224v-.55c0-.285-.002-.526-.006-.725a474.4 474.4 0 01-.016-.977 25.889 25.889 0 00-.045-1.207c-.023-.352-.053-.779-.09-1.28-.038-.502-.09-.95-.157-1.342a60.661 60.661 0 00-.23-1.258 6.893 6.893 0 00-.315-1.151 6.627 6.627 0 00-.421-.899c-.322-.554-.73-.83-1.224-.83zm6.322 5.728l-.202 1.662c0 .906.101 2.418.303 4.537.203 2.119.408 3.34.618 3.661.404.622 1.009.932 1.814.932.805 0 1.394-.22 1.769-.662.142 0 .318-.027.527-.079l.113.124c0 .733-.584 1.212-1.752 1.437-.277.052-.59.079-.938.079s-.758-.173-1.23-.517c-.471-.344-.805-.726-1-1.145-.194-.42-.385-1.722-.572-3.909-.187-2.186-.28-4.11-.28-5.772s.048-2.643.145-2.942a3.787 3.787 0 01-.078-.742c0-.92.33-1.637.988-2.15.659-.513 1.467-.77 2.426-.77.262 0 .548.083.859.247.31.165.466.367.466.607 0 .172-.12.258-.36.258-.067 0-.16-.047-.28-.14-.12-.094-.22-.14-.298-.14a.801.801 0 00-.253.044 1.73 1.73 0 00-.55-.09c-.187 0-.413.04-.68.118-.265.079-.486.18-.662.304-.176.123-.326.29-.45.5-.123.209-.218.41-.285.6-.068.191-.12.436-.158.736-.045.427-.067.954-.067 1.583l.067 1.629zm12.253 11.848l-.315-.09c-.3-1.774-.756-3.753-1.37-5.935-.614-2.183-1.172-3.753-1.673-4.711l-.068.044c-.044.18-.205.506-.482.978-.277.471-.43.844-.46 1.117-.03.273-.046.81-.046 1.612l.113 5.076c0 .966-.161 1.448-.483 1.448-.277 0-.416-.353-.416-1.06 0-.708.05-1.772.152-3.19.1-1.42.151-2.484.151-3.195l-.09-8.266-.044-.09-.169-1.078c0-.322.131-.483.393-.483.135 0 .23.015.287.045.056.03.106.135.151.315.075.269.112 1.036.112 2.302l-.09 4.93h.023c.307-.651.717-1.615 1.23-2.892.513-1.276.803-1.993.87-2.15.831-2.127 1.374-3.19 1.629-3.19.262 0 .393.112.393.337a2.021 2.021 0 01-.292.797 5.999 5.999 0 00-.292.506l-.382.814c-.217.46-.404.86-.562 1.202-.157.34-.333.739-.528 1.196-.426.98-.655 1.624-.685 1.931l.113.202-.09.068c.524 1.317 1.129 3.22 1.814 5.705.685 2.486 1.207 4.241 1.566 5.267-.022.292-.176.438-.46.438zm2.762-17.385l-.044-.415c0-.135.153-.203.46-.203.629 0 1.11.176 1.443.528.333.352.554.73.663 1.135.108.404.193.71.252.92.128.457.191.813.191 1.067 0 .772-.213 1.7-.64 2.786-.277.688-.415 1.07-.415 1.145 0 .749.3 2.26.898 4.532.6 2.272 1.09 3.883 1.471 4.834 0 .502-.1.753-.303.753a.461.461 0 01-.387-.208 3.285 3.285 0 00-.186-.242c-.045-.599-.241-1.431-.59-2.498-.347-1.067-.56-1.778-.64-2.134a80.319 80.319 0 01-.42-2.173c-.203-1.093-.382-1.932-.54-2.516l-.18-.135-.437.18v8.625l.045.573c0 .307-.139.46-.416.46a.392.392 0 01-.28-.106.363.363 0 01-.113-.276l.079-.123.09-13.96v-2.549zm.64.112l-.112 5.02c0 .66.023 1.15.068 1.472h.045c.112 0 .312-.158.6-.472.289-.314.487-.565.596-.752.108-.188.196-.498.264-.933.067-.434.1-.795.1-1.083 0-.289-.02-.59-.061-.904a9.516 9.516 0 00-.197-1.022 2.331 2.331 0 00-.426-.916c-.195-.243-.423-.365-.685-.365v-.067l-.191.022zm11.939 16.655l-.73-.112c-.173 0-.349.09-.528.27-.345 0-.562-.06-.652-.18h-.056c-.704 0-1.112-.131-1.224-.393 0-.173.176-.259.528-.259l.505.023c.307 0 .465-.221.472-.663.008-.441-.013-.98-.062-1.617a32.497 32.497 0 01-.09-1.898c-.01-.629-.054-1.853-.129-3.672-.075-1.82-.123-3.126-.146-3.92l.023-2.695c0-.741-.023-1.187-.068-1.336l-.786.168c-.164 0-.247-.107-.247-.32 0-.213.337-.39 1.01-.528.675-.138 1.131-.208 1.371-.208.404 0 .606.126.606.377 0 .25-.093.376-.28.376l-.55-.023c-.263 0-.42.124-.472.371-.053.202-.079.797-.079 1.786 0 .988.096 2.946.286 5.873.191 2.928.287 5.129.287 6.604l-.023 1.19.831-.067c.397 0 .596.19.596.572l-.393.281zm8.288-1.157l.067.832c0 .449-.195.673-.584.673-.27 0-.453-.288-.55-.864a20.03 20.03 0 00-.09-.45c-1.497-4.724-2.44-8.175-2.83-10.354a2.1 2.1 0 01-.034-.315c-.015-.307-.086-.524-.213-.65l.045-.113a29.881 29.881 0 00-.382-1.932 7.34 7.34 0 00-.404-1.314 5.512 5.512 0 00-.068.719c0 .165.015.292.045.382-.105.36-.157.89-.157 1.594v6.3c0 .735.052 1.828.157 3.28.105 1.453.157 2.546.157 3.28l-.157.18h-.528l-.067-.18c.03-.12.045-.427.045-.922l-.258-8.007v-3.01l.168-4.346-.022-.483c0-.194.05-.324.151-.387a.728.728 0 01.393-.096c.161 0 .302.047.421.14.12.094.18.242.18.444 0 .203.034.423.101.663.067.24.165.507.292.803.127.296.227.565.298.809.07.243.136.632.196 1.167.06.536.131 1.01.214 1.421.082.412.217.966.404 1.662.187.697.402 1.468.646 2.314.243.846.398 1.402.466 1.667.067.266.157.605.27 1.017.239.853.366 1.456.381 1.808.105.157.185.46.242.91.056.449.181.756.376.92.097-.217.146-.583.146-1.1l.09-8.007-.068-3.56.068-.876c0-.165-.023-.263-.068-.292l.068-.191c0-.944-.03-1.573-.09-1.887.06-.21.25-.315.573-.315.247 0 .37.251.37.753-.097.195-.146.45-.146.764l.023.774c0 .33-.03.562-.09.697l-.068 7.266c0 .142.015.348.045.618l-.045.1v2.898l.045.865c0 .913-.075 1.542-.224 1.887v.044zm3.605-10.073l-.202 1.662c0 .906.1 2.418.303 4.537.202 2.119.408 3.34.617 3.661.405.622 1.01.932 1.814.932.805 0 1.395-.22 1.769-.662.142 0 .318-.027.528-.079l.112.124c0 .733-.584 1.212-1.752 1.437-.277.052-.59.079-.938.079s-.758-.173-1.23-.517c-.471-.344-.804-.726-.999-1.145-.195-.42-.385-1.722-.573-3.909-.187-2.186-.28-4.11-.28-5.772s.048-2.643.146-2.942a3.787 3.787 0 01-.079-.742c0-.92.33-1.637.988-2.15.66-.513 1.468-.77 2.426-.77.262 0 .548.083.86.247.31.165.465.367.465.607 0 .172-.12.258-.36.258-.067 0-.16-.047-.28-.14-.12-.094-.219-.14-.297-.14a.801.801 0 00-.253.044 1.73 1.73 0 00-.55-.09c-.188 0-.414.04-.68.118-.266.079-.487.18-.663.304-.175.123-.325.29-.449.5-.123.209-.219.41-.286.6-.067.191-.12.436-.157.736-.045.427-.068.954-.068 1.583l.068 1.629zm7.328 11.236a.576.576 0 01-.152-.388c0-.142.062-.279.185-.41.124-.13.257-.196.399-.196.142 0 .271.065.387.196a.602.602 0 01.174.4c0 .381-.213.572-.64.572a.457.457 0 01-.353-.174z" fill="#79797B" fill-rule="evenodd"/></svg>