<svg xmlns="http://www.w3.org/2000/svg" viewBox="0 0 140 85"><path d="M19.6 43.3c.28.296.61.534.99.714.38.18.774.27 1.182.27.52 0 .924-.118 1.212-.354.288-.236.432-.546.432-.93 0-.2-.034-.37-.102-.51a1.11 1.11 0 00-.276-.36c-.116-.1-.254-.19-.414-.27a32.84 32.84 0 00-.516-.252l-1.128-.492a5.378 5.378 0 01-.564-.288 2.321 2.321 0 01-.516-.408 1.952 1.952 0 01-.372-.57 1.89 1.89 0 01-.144-.762c0-.296.062-.572.186-.828s.296-.478.516-.666c.22-.188.48-.334.78-.438.3-.104.63-.156.99-.156.472 0 .908.09 1.308.27.4.18.74.414 1.02.702l-.54.648a2.806 2.806 0 00-.798-.546 2.378 2.378 0 00-.99-.198c-.44 0-.794.102-1.062.306-.268.204-.402.486-.402.846a.96.96 0 00.114.486 1.2 1.2 0 00.306.348c.128.1.268.188.42.264.152.076.308.146.468.21l1.116.48c.224.096.436.206.636.33.2.124.372.268.516.432.144.164.258.356.342.576.084.22.126.474.126.762a2.087 2.087 0 01-.72 1.59 2.536 2.536 0 01-.84.48c-.328.116-.7.174-1.116.174A3.766 3.766 0 0119 43.996l.6-.696zm11.688 1.86c-.496 0-.95-.096-1.362-.288a3.033 3.033 0 01-1.062-.822 3.853 3.853 0 01-.69-1.296 5.551 5.551 0 01-.246-1.71c0-.632.082-1.198.246-1.698.164-.5.394-.924.69-1.272.296-.348.65-.614 1.062-.798A3.302 3.302 0 0131.288 37c.496 0 .95.094 1.362.282.412.188.768.456 1.068.804.3.348.532.772.696 1.272.164.5.246 1.062.246 1.686 0 .632-.082 1.202-.246 1.71-.164.508-.396.94-.696 1.296-.3.356-.656.63-1.068.822a3.185 3.185 0 01-1.362.288zm0-.876c.352 0 .67-.076.954-.228.284-.152.528-.37.732-.654.204-.284.362-.624.474-1.02.112-.396.168-.842.168-1.338 0-.488-.056-.928-.168-1.32a3.031 3.031 0 00-.474-.996 2.154 2.154 0 00-.732-.63 2.033 2.033 0 00-.954-.222c-.352 0-.67.074-.954.222a2.154 2.154 0 00-.732.63 3.031 3.031 0 00-.474.996 4.803 4.803 0 00-.168 1.32c0 .496.056.942.168 1.338.112.396.27.736.474 1.02.204.284.448.502.732.654.284.152.602.228.954.228zm7.428-7.14h.996v4.644c0 .472.048.868.144 1.188.096.32.226.576.39.768.164.192.358.33.582.414.224.084.464.126.72.126.264 0 .508-.042.732-.126.224-.084.42-.222.588-.414.168-.192.3-.448.396-.768.096-.32.144-.716.144-1.188v-4.644h.96v4.62c0 .632-.072 1.164-.216 1.596-.144.432-.342.782-.594 1.05-.252.268-.55.46-.894.576a3.471 3.471 0 01-1.116.174c-.4 0-.774-.058-1.122-.174a2.15 2.15 0 01-.9-.576c-.252-.268-.45-.618-.594-1.05-.144-.432-.216-.964-.216-1.596v-4.62zm11.808.84h-2.376v-.84h5.76v.84h-2.376v7.032h-1.008v-7.032zm7.2-.84h.996v3.3h3.66v-3.3h1.008v7.872H62.38v-3.708h-3.66v3.708h-.996v-7.872zm10.572 5.676c.28.24.59.436.93.588.34.152.674.228 1.002.228.368 0 .642-.068.822-.204.18-.136.27-.32.27-.552a.602.602 0 00-.078-.312.744.744 0 00-.228-.234c-.1-.068-.22-.132-.36-.192l-.462-.198-1.02-.432c-.2-.08-.394-.184-.582-.312a2.57 2.57 0 01-.504-.45 2.033 2.033 0 01-.486-1.374c0-.32.068-.622.204-.906a2.25 2.25 0 01.576-.744 2.75 2.75 0 01.882-.498c.34-.12.714-.18 1.122-.18.456 0 .906.088 1.35.264.444.176.834.432 1.17.768l-.9 1.116a3.406 3.406 0 00-.768-.462 2.17 2.17 0 00-.852-.162c-.304 0-.546.062-.726.186a.598.598 0 00-.27.522c0 .12.03.222.09.306a.88.88 0 00.252.228c.108.068.234.132.378.192l.468.198 1.008.408c.48.192.858.456 1.134.792.276.336.414.78.414 1.332a2.232 2.232 0 01-.774 1.698 2.87 2.87 0 01-.93.528 3.68 3.68 0 01-1.248.198 4.38 4.38 0 01-1.53-.282 3.995 3.995 0 01-1.362-.846l1.008-1.212zm10.008-1.752c0 .84.156 1.492.468 1.956.312.464.736.696 1.272.696s.96-.232 1.272-.696c.312-.464.468-1.116.468-1.956 0-.784-.156-1.396-.468-1.836a1.479 1.479 0 00-1.272-.66c-.536 0-.96.22-1.272.66-.312.44-.468 1.052-.468 1.836zm5.7 5.832a2.34 2.34 0 01-.57.18 4.09 4.09 0 01-.81.072c-.832 0-1.534-.192-2.106-.576a3.543 3.543 0 01-1.278-1.5 3.34 3.34 0 01-1.134-.462c-.34-.22-.63-.502-.87-.846a3.948 3.948 0 01-.552-1.194 5.52 5.52 0 01-.192-1.506c0-.64.086-1.21.258-1.71.172-.5.414-.92.726-1.26.312-.34.686-.6 1.122-.78.436-.18.918-.27 1.446-.27.528 0 1.01.09 1.446.27.436.18.81.442 1.122.786a3.6 3.6 0 01.726 1.266c.172.5.258 1.066.258 1.698 0 1.056-.224 1.924-.672 2.604-.448.68-1.052 1.128-1.812 1.344.184.272.432.462.744.57a2.95 2.95 0 001.446.12 2.61 2.61 0 00.39-.102l.312 1.296zm3.42-9.708H89.2v4.38c0 .768.116 1.304.348 1.608.232.304.568.456 1.008.456.44 0 .78-.152 1.02-.456.24-.304.36-.84.36-1.608v-4.38h1.704v4.2c0 1.312-.262 2.268-.786 2.868-.524.6-1.29.9-2.298.9-1.016 0-1.792-.3-2.328-.9-.536-.6-.804-1.556-.804-2.868v-4.2zm13.596 4.584l-.18-.72c-.112-.392-.22-.808-.324-1.248-.104-.44-.208-.864-.312-1.272h-.048l-.294 1.278c-.1.436-.206.85-.318 1.242l-.192.72h1.668zm.36 1.38h-2.388l-.48 1.86h-1.8l2.448-7.824h2.124l2.448 7.824h-1.872l-.48-1.86zm7.368-2.364h.912c.464 0 .818-.098 1.062-.294.244-.196.366-.486.366-.87s-.122-.652-.366-.804c-.244-.152-.598-.228-1.062-.228h-.912v2.196zm2.472 4.224l-1.5-2.82h-.972v2.82h-1.764v-7.824h2.82c.416 0 .806.04 1.17.12.364.08.682.214.954.402.272.188.488.438.648.75.16.312.24.7.24 1.164 0 .576-.126 1.05-.378 1.422-.252.372-.59.65-1.014.834l1.776 3.132h-1.98zm5.556-7.824h4.896v1.488h-3.132v1.572h2.664v1.476h-2.664v1.8h3.252v1.488h-5.016v-7.824z" fill="#79797B" fill-rule="evenodd"/></svg>