<svg xmlns="http://www.w3.org/2000/svg" viewBox="0 0 683.334 202.426"><g fill="#666"><path d="M210.674 105.542c-.104 4.418.641 8.423 2.234 12.019 1.591 3.596 3.775 6.678 6.548 9.242 2.773 2.569 6.033 4.545 9.783 5.932 3.748 1.388 7.78 2.08 12.094 2.08 4.518 0 8.627-.848 12.325-2.541 3.698-1.694 6.88-3.979 9.552-6.855 2.669-2.875 4.723-6.264 6.163-10.169 1.437-3.901 2.157-8.011 2.157-12.324 0-4.314-.746-8.371-2.234-12.172-1.49-3.798-3.596-7.087-6.316-9.86-2.723-2.773-5.932-4.981-9.629-6.625-3.697-1.642-7.703-2.465-12.017-2.465-6.163 0-11.401 1.259-15.715 3.774-4.314 2.518-8.166 6.24-11.555 11.17h-6.009l11.093-55.001h53.769v5.084H223.77l-9.09 42.368.308.308c3.081-4.314 6.906-7.523 11.478-9.629 4.569-2.104 9.525-3.159 14.867-3.159 5.238 0 10.064.9 14.482 2.696 4.415 1.798 8.216 4.29 11.401 7.472 3.182 3.185 5.674 7.01 7.472 11.479 1.796 4.468 2.696 9.321 2.696 14.56 0 5.237-.874 10.117-2.619 14.637-1.748 4.521-4.212 8.448-7.395 11.784-3.185 3.339-6.986 5.933-11.401 7.78-4.417 1.85-9.297 2.773-14.636 2.773-5.137 0-9.964-.797-14.482-2.389-4.521-1.592-8.474-3.852-11.863-6.779-3.39-2.927-6.008-6.521-7.857-10.783-1.849-4.262-2.619-9.063-2.311-14.405h5.854zM327.609 139.898c-7.704 0-14.021-1.672-18.95-5.008-4.93-3.337-8.858-7.649-11.786-12.94-2.927-5.289-4.957-11.194-6.086-17.718-1.131-6.521-1.694-12.965-1.694-19.335 0-6.367.563-12.812 1.694-19.335 1.129-6.521 3.159-12.426 6.086-17.717 2.927-5.289 6.855-9.603 11.786-12.941 4.93-3.336 11.247-5.007 18.95-5.007s14.02 1.671 18.949 5.007c4.931 3.339 8.858 7.652 11.785 12.941 2.929 5.291 4.954 11.196 6.086 17.717 1.129 6.523 1.694 12.968 1.694 19.335 0 6.37-.565 12.814-1.694 19.335-1.132 6.522-3.157 12.429-6.086 17.718-2.927 5.291-6.854 9.604-11.785 12.94-4.929 3.339-11.246 5.008-18.949 5.008zm0-5.084c6.571 0 11.989-1.592 16.254-4.776 4.261-3.183 7.6-7.24 10.014-12.171 2.412-4.93 4.083-10.322 5.008-16.177.924-5.854 1.387-11.451 1.387-16.793 0-5.339-.463-10.938-1.387-16.793-.925-5.854-2.596-11.247-5.008-16.177-2.414-4.93-5.753-8.986-10.014-12.171-4.265-3.183-9.683-4.776-16.254-4.776-6.679 0-12.121 1.594-16.331 4.776-4.212 3.185-7.525 7.241-9.938 12.171-2.415 4.93-4.083 10.322-5.007 16.177s-1.386 11.454-1.386 16.793c0 5.342.462 10.938 1.386 16.793s2.593 11.248 5.007 16.177c2.412 4.931 5.726 8.988 9.938 12.171 4.211 3.187 9.654 4.776 16.331 4.776z"/></g><g opacity=".7"><path d="M391.039 37.267l9.986 16.052h.064V37.267h4.928v23.928h-5.262l-9.953-16.019h-.065v16.019h-4.929V37.267h5.231zM428.539 37.267v4.423h-12.635v5.127h11.597v4.089h-11.597v5.864h12.9v4.424H410.64V37.267h17.899zM449.921 61.194l-4.058-16.287h-.065l-3.988 16.287h-5.326l-6.334-23.928h5.262l3.787 16.287h.064l4.155-16.287h4.927l4.088 16.488h.067l3.921-16.488h5.161l-6.438 23.928h-5.223zM491.207 37.267v4.423h-12.635v5.127h11.597v4.089h-11.597v5.864h12.9v4.424H473.31V37.267h17.897zM500.289 37.267v19.504h11.662v4.424h-16.924V37.267h5.262zM532.796 37.267v4.423H520.16v5.127h11.597v4.089H520.16v5.864h12.9v4.424h-18.162V37.267h17.898zM544.021 37.267l5.597 16.455h.064l5.295-16.455h7.406v23.928h-4.927V44.237h-.065l-5.863 16.957h-4.057l-5.864-16.79h-.065v16.79h-4.926V37.267h7.405zM584.906 37.267v4.423h-12.635v5.127h11.596v4.089h-11.596v5.864h12.9v4.424H567.01V37.267h17.896zM593.953 37.267l9.988 16.052h.064V37.267h4.926v23.928h-5.262l-9.953-16.019h-.064v16.019h-4.928V37.267h5.229zM611.683 41.69v-4.423h19.604v4.423h-7.172v19.504h-5.264V41.69h-7.168zM638.058 55.296a3.8 3.8 0 001.156 1.357 4.965 4.965 0 001.69.771 7.958 7.958 0 002.012.252c.47 0 .972-.039 1.509-.117a5.242 5.242 0 001.508-.453c.471-.223.858-.53 1.173-.921.313-.391.472-.889.472-1.491 0-.648-.207-1.173-.621-1.576-.413-.402-.954-.737-1.625-1.005-.67-.268-1.43-.502-2.278-.704a63.484 63.484 0 01-2.58-.67 22.327 22.327 0 01-2.611-.821 8.924 8.924 0 01-2.279-1.257 5.904 5.904 0 01-1.625-1.927c-.414-.771-.62-1.704-.62-2.798 0-1.229.264-2.295.788-3.201a7.1 7.1 0 012.062-2.262 8.967 8.967 0 012.881-1.341c1.07-.29 2.146-.436 3.219-.436 1.25 0 2.451.14 3.603.419 1.149.28 2.173.732 3.065 1.357a6.878 6.878 0 012.129 2.396c.523.972.787 2.15.787 3.536h-5.094c-.045-.715-.195-1.307-.453-1.776a2.98 2.98 0 00-1.021-1.106 4.322 4.322 0 00-1.459-.569 8.95 8.95 0 00-1.791-.168 6.15 6.15 0 00-1.273.134 3.365 3.365 0 00-1.154.469 2.857 2.857 0 00-.854.838c-.225.335-.336.76-.336 1.273 0 .469.091.849.271 1.139.179.291.529.559 1.056.804.524.246 1.252.492 2.18.737.928.246 2.141.559 3.637.938.447.089 1.065.251 1.858.486a8.893 8.893 0 012.362 1.123c.78.515 1.456 1.202 2.026 2.061.569.86.854 1.96.854 3.301a7.323 7.323 0 01-.638 3.05c-.426.938-1.057 1.748-1.896 2.43s-1.878 1.212-3.114 1.592c-1.24.379-2.677.569-4.309.569-1.316 0-2.599-.162-3.838-.486-1.239-.323-2.334-.832-3.283-1.524a7.573 7.573 0 01-2.265-2.646c-.559-1.072-.825-2.346-.803-3.82h5.094c-.009.803.137 1.485.428 2.043z"/></g><g opacity=".7"><path d="M392.29 112.275V95.796h-5.97V93.59c.777 0 1.536-.06 2.271-.179a6.216 6.216 0 001.995-.665 4.537 4.537 0 001.509-1.33c.41-.562.69-1.276.846-2.141h2.105v23h-2.756zM422.655 98.423c-.69-.584-1.621-.876-2.789-.876-.996 0-1.828.184-2.498.552a4.41 4.41 0 00-1.604 1.46 6.139 6.139 0 00-.859 2.092c-.172.789-.26 1.605-.26 2.449 0 .779.094 1.535.275 2.271.184.734.471 1.389.858 1.963a4.37 4.37 0 001.523 1.379c.627.346 1.373.518 2.238.518 1.36 0 2.428-.354 3.194-1.067.769-.713 1.236-1.722 1.408-3.021h2.822c-.304 2.078-1.076 3.678-2.316 4.803-1.244 1.125-2.938 1.688-5.078 1.688-1.274 0-2.405-.204-3.391-.612-.982-.41-1.807-.994-2.467-1.752-.66-.761-1.156-1.66-1.492-2.709-.336-1.052-.502-2.201-.502-3.455s.162-2.43.485-3.521c.324-1.093.814-2.044 1.478-2.855a6.92 6.92 0 012.479-1.914c.994-.465 2.151-.698 3.474-.698.951 0 1.842.114 2.676.341a6.522 6.522 0 012.205 1.054 5.733 5.733 0 011.574 1.801c.41.725.67 1.584.778 2.579h-2.854c-.21-1.064-.665-1.886-1.357-2.47zM432.972 89.112v23.164h-2.758V89.112h2.758zM437.414 92.486v-3.374h2.759v3.374h-2.759zm2.759 3.017v16.772h-2.759V95.503h2.759zM454.479 98.423c-.691-.584-1.621-.876-2.789-.876-.994 0-1.828.184-2.498.552-.672.368-1.205.854-1.604 1.46s-.688 1.303-.859 2.092c-.174.789-.26 1.605-.26 2.449 0 .779.092 1.535.274 2.271.185.734.472 1.389.857 1.963a4.393 4.393 0 001.525 1.379c.627.346 1.372.518 2.237.518 1.361 0 2.429-.354 3.193-1.067.77-.713 1.238-1.722 1.412-3.021h2.821c-.303 2.078-1.075 3.678-2.319 4.803s-2.937 1.688-5.076 1.688c-1.275 0-2.404-.204-3.391-.612-.984-.41-1.808-.994-2.466-1.752-.659-.761-1.157-1.66-1.491-2.709-.336-1.052-.504-2.201-.504-3.455s.161-2.43.485-3.521c.322-1.093.814-2.044 1.478-2.855s1.485-1.449 2.481-1.914c.993-.465 2.148-.698 3.472-.698.95 0 1.844.114 2.676.341s1.567.579 2.207 1.054a5.737 5.737 0 011.571 1.801c.412.725.671 1.584.779 2.579h-2.854c-.21-1.064-.665-1.886-1.357-2.47zM464.796 89.112v13.722l7.655-7.331h3.697l-6.65 6.099 7.138 10.673h-3.504l-5.742-8.76-2.594 2.398v6.357h-2.759V89.11h2.759zM487.894 92.486v-3.374h2.76v3.374h-2.76zm2.757 3.017v16.772h-2.76V95.503h2.76zM497.528 95.503v2.465h.062c1.254-1.903 3.062-2.855 5.418-2.855 1.037 0 1.979.217 2.821.649.845.433 1.438 1.168 1.783 2.206.562-.908 1.304-1.611 2.224-2.108s1.93-.747 3.032-.747c.845 0 1.604.092 2.287.276.683.184 1.267.471 1.752.86a3.93 3.93 0 011.136 1.508c.271.617.405 1.357.405 2.222v12.296h-2.758v-11c0-.519-.043-1.006-.131-1.46s-.25-.849-.484-1.184a2.425 2.425 0 00-.989-.795c-.423-.194-.97-.292-1.64-.292-1.36 0-2.436.39-3.211 1.168-.778.779-1.168 1.817-1.168 3.114v10.445h-2.76v-10.999c0-.541-.049-1.038-.146-1.492a3.19 3.19 0 00-.502-1.184 2.36 2.36 0 00-.957-.779c-.399-.184-.913-.276-1.541-.276-.801 0-1.487.163-2.062.487a4.732 4.732 0 00-1.395 1.168c-.358.454-.617.924-.779 1.411s-.242.892-.242 1.216v10.447h-2.758V95.503h2.603zM525.46 95.503v2.271h.063c.455-.93 1.168-1.606 2.141-2.028.976-.422 2.046-.633 3.214-.633 1.297 0 2.428.238 3.391.714.962.476 1.764 1.119 2.4 1.93s1.118 1.747 1.442 2.806c.322 1.06.484 2.185.484 3.375 0 1.188-.154 2.313-.471 3.373-.312 1.062-.789 1.983-1.429 2.774a6.757 6.757 0 01-2.399 1.865c-.963.452-2.082.68-3.355.68-.41 0-.871-.043-1.38-.129s-1.013-.228-1.509-.422a5.868 5.868 0 01-1.412-.795 4.445 4.445 0 01-1.117-1.248h-.063v8.629h-2.759V95.503h2.759zm9.909 5.953c-.205-.746-.52-1.411-.938-1.995s-.963-1.049-1.623-1.395c-.658-.346-1.435-.519-2.318-.519-.932 0-1.719.184-2.367.552a4.766 4.766 0 00-1.59 1.443 6.107 6.107 0 00-.895 2.028 9.66 9.66 0 00-.273 2.304c0 .821.099 1.617.293 2.385.192.769.502 1.443.924 2.027a4.703 4.703 0 001.64 1.41c.67.354 1.479.534 2.436.534.951 0 1.746-.186 2.383-.551a4.41 4.41 0 001.541-1.459c.393-.604.67-1.301.845-2.078.175-.776.261-1.578.261-2.399a8.996 8.996 0 00-.319-2.287zM541.451 100.451c.347-1.071.865-2 1.56-2.79a7.31 7.31 0 012.562-1.865c1.017-.454 2.185-.682 3.504-.682 1.341 0 2.515.228 3.521.682s1.854 1.076 2.547 1.865a7.85 7.85 0 011.559 2.79c.347 1.07.521 2.222.521 3.455 0 1.232-.174 2.38-.521 3.438a7.782 7.782 0 01-1.559 2.773 7.177 7.177 0 01-2.547 1.85c-1.006.444-2.18.664-3.521.664-1.319 0-2.487-.221-3.504-.664a7.1 7.1 0 01-2.562-1.85 7.878 7.878 0 01-1.56-2.773c-.346-1.059-.52-2.205-.52-3.438.004-1.234.175-2.385.52-3.455zm2.808 6.163c.271.791.646 1.448 1.119 1.979a4.855 4.855 0 001.672 1.216c.638.28 1.312.422 2.026.422.713 0 1.39-.142 2.025-.422a4.832 4.832 0 001.672-1.216c.477-.53.85-1.188 1.117-1.979.271-.789.406-1.691.406-2.708 0-1.018-.136-1.92-.406-2.709-.27-.789-.644-1.454-1.117-1.995a4.767 4.767 0 00-1.672-1.233 4.97 4.97 0 00-2.025-.422c-.715 0-1.393.141-2.026.422a4.777 4.777 0 00-1.672 1.233c-.476.541-.849 1.206-1.119 1.995-.27.789-.403 1.691-.403 2.709-.001 1.017.133 1.919.403 2.708zM562.96 95.503v3.536h.063c.672-1.363 1.492-2.368 2.467-3.017.974-.649 2.205-.952 3.697-.909v2.92c-1.104 0-2.045.151-2.822.454-.776.303-1.405.746-1.881 1.33-.479.584-.822 1.292-1.039 2.125-.215.834-.324 1.791-.324 2.871v7.463h-2.758V95.503h2.597zM578.435 95.503v2.433h-3.342v10.414c0 .324.026.584.082.779a.778.778 0 00.311.453c.148.109.359.178.631.211.271.033.623.049 1.056.049h1.268v2.434h-2.109c-.713 0-1.323-.049-1.832-.146-.508-.097-.92-.274-1.231-.535-.312-.26-.547-.627-.695-1.104-.152-.476-.229-1.104-.229-1.882V97.937h-2.854v-2.433h2.854v-5.028h2.758v5.028l3.332-.001z"/></g></svg>