<svg version="1.1" id="Ebene_1" xmlns="http://www.w3.org/2000/svg" xmlns:xlink="http://www.w3.org/1999/xlink" x="0px" y="0px"
	 width="34.332px" height="34.446px" viewBox="0 0 34.332 34.446" enable-background="new 0 0 34.332 34.446" xml:space="preserve">
<g opacity="0.4">
	<path fill="#FFFFFF" d="M22.716,12.61c0,1.147-0.334,2.102-1.002,2.865c-0.668,0.763-1.608,1.277-2.821,1.541v0.099
		c1.452,0.182,2.541,0.633,3.267,1.355c0.726,0.722,1.089,1.681,1.089,2.877c0,1.741-0.615,3.083-1.844,4.028
		c-1.229,0.945-2.979,1.417-5.247,1.417c-2.004,0-3.696-0.326-5.073-0.978v-2.586c0.767,0.379,1.58,0.672,2.438,0.878
		c0.858,0.207,1.683,0.31,2.475,0.31c1.402,0,2.45-0.26,3.143-0.78c0.693-0.52,1.04-1.324,1.04-2.413
		c0-0.965-0.384-1.674-1.151-2.128c-0.767-0.454-1.972-0.681-3.613-0.681h-1.572V16.05h1.596c2.888,0,4.332-0.998,4.332-2.995
		c0-0.775-0.252-1.374-0.755-1.794c-0.503-0.421-1.246-0.631-2.228-0.631c-0.685,0-1.345,0.097-1.98,0.291s-1.386,0.571-2.252,1.132
		l-1.423-2.029c1.658-1.221,3.584-1.832,5.779-1.832c1.823,0,3.246,0.392,4.27,1.175C22.204,10.152,22.716,11.232,22.716,12.61z"/>
</g>
<circle opacity="0.4" fill="none" stroke="#FFFFFF" stroke-width="2" stroke-miterlimit="10" cx="17.166" cy="17.166" r="16.166"/>
</svg>
