<svg version="1.1" id="Ebene_1" xmlns="http://www.w3.org/2000/svg" xmlns:xlink="http://www.w3.org/1999/xlink" x="0px" y="0px"
	 viewBox="0 0 45.19 45.358" enable-background="new 0 0 45.19 45.358" xml:space="preserve">
<path fill-rule="evenodd" clip-rule="evenodd" fill="#FFFFFF" d="M22.51,0c12.526,0,22.68,10.152,22.68,22.678
	c0,12.526-10.154,22.681-22.68,22.681c-11.588,0-21.145-8.693-22.51-19.914h24.17l-7.01,5.951c-1.164,0.986-1.309,2.727-0.324,3.891
	c0.984,1.162,2.725,1.309,3.889,0.324l12.75-10.824c1.162-0.984,1.309-2.728,0.324-3.892c-0.109-0.127-0.229-0.244-0.354-0.348
	L20.725,9.748c-1.164-0.984-2.904-0.84-3.889,0.322c-0.984,1.164-0.84,2.906,0.324,3.891l7.01,5.951H0C1.365,8.691,10.922,0,22.51,0
	L22.51,0z"/>
</svg>
