<?xml version="1.0" encoding="utf-8"?>
<!-- Generator: Adobe Illustrator 16.0.0, SVG Export Plug-In . SVG Version: 6.00 Build 0)  -->
<!DOCTYPE svg PUBLIC "-//W3C//DTD SVG 1.1//EN" "http://www.w3.org/Graphics/SVG/1.1/DTD/svg11.dtd">
<svg version="1.1" id="Ebene_1" xmlns="http://www.w3.org/2000/svg" xmlns:xlink="http://www.w3.org/1999/xlink" x="0px" y="0px"
	 width="70.027px" height="16.01px" viewBox="0 0 70.027 16.01" enable-background="new 0 0 70.027 16.01" xml:space="preserve">
<g>
	<g>
		<path fill="#FFFFFF" d="M62.6,16.01c-0.233,0-0.468-0.088-0.647-0.264c-0.365-0.358-0.372-0.944-0.015-1.311l6.158-6.294
			c0.107-0.11,0.105-0.288-0.005-0.396l-6.295-6.158c-0.365-0.358-0.371-0.945-0.014-1.311c0.358-0.365,0.945-0.371,1.311-0.014
			l6.294,6.158c0.841,0.821,0.855,2.175,0.033,3.016l-6.158,6.295C63.08,15.917,62.841,16.01,62.6,16.01z"/>
	</g>
	<g>
		<path fill="#FFFFFF" d="M60.628,8.931H0.926C0.415,8.931,0,8.516,0,8.005s0.415-0.926,0.926-0.926h59.702
			c0.512,0,0.927,0.415,0.927,0.926S61.14,8.931,60.628,8.931z"/>
	</g>
</g>
</svg>
