<svg xmlns="http://www.w3.org/2000/svg" viewBox="0 0 409.855 364.008"><g fill="#FFF"><path d="M36.759 153.455c-4.999.468-9.633-.308-13.906-2.329-4.272-2.02-8.03-4.996-11.271-8.928-3.242-3.932-5.854-8.655-7.83-14.166-1.979-5.51-3.166-11.476-3.565-17.893-.362-6.016-.194-12.585.5-19.71.694-7.122 1.961-14.326 3.802-21.606a143.433 143.433 0 017.162-21.241C14.586 40.704 18.12 34.55 22.25 29.12c4.13-5.427 8.852-9.927 14.165-13.502 5.312-3.571 11.316-5.672 18.015-6.299 4.097-.383 7.648.117 10.652 1.499 3.003 1.383 5.506 3.342 7.508 5.877 2 2.535 3.511 5.471 4.529 8.802a45.132 45.132 0 011.868 10.262 55.2 55.2 0 01-.526 9.729c-.459 3.17-1.25 6.042-2.37 8.617-1.12 2.577-2.587 4.681-4.401 6.311-1.812 1.633-3.971 2.564-6.468 2.798-1.209.014-2.397-.279-3.562-.876-1.057-.506-2.164-1.311-3.326-2.412-1.161-1.101-2.3-2.758-3.415-4.974 2.596-1.352 4.539-3.474 5.832-6.369a37.08 37.08 0 002.717-8.951c.582-3.482.826-7.338.733-11.564-.185-4.116-1.316-7.036-3.392-8.758-2.077-1.72-4.314-2.47-6.714-2.245-4.7.44-9.418 3.354-14.157 8.736-4.739 5.385-8.943 12.46-12.608 21.221-3.668 8.764-6.507 18.835-8.518 30.216s-2.685 23.294-2.024 35.734c.323 5.618 1.142 10.329 2.458 14.138 1.313 3.81 2.962 6.882 4.946 9.218 1.981 2.333 4.125 3.948 6.428 4.843 2.301.894 4.552 1.238 6.752 1.032 3.498-.328 6.727-1.386 9.686-3.175a39.055 39.055 0 007.952-6.341c2.344-2.438 4.328-4.919 5.959-7.44 1.629-2.521 2.859-4.729 3.691-6.622.576-1.363 1.251-2.234 2.024-2.61.771-.375 1.478-.365 2.12.029.643.394 1.105 1.057 1.396 1.987.289.933.194 2.076-.283 3.43-1.384 3.557-3.139 7.15-5.269 10.778a58.622 58.622 0 01-7.384 9.994c-2.793 3.034-5.907 5.568-9.347 7.606a26.488 26.488 0 01-11.158 3.616zM128.329 92.702c-.644 3.894-1.661 7.567-3.052 11.025-1.393 3.458-3.149 6.496-5.272 9.115-2.126 2.619-4.6 4.741-7.421 6.367-2.822 1.625-5.983 2.602-9.481 2.929-4.1.384-7.406-.19-9.917-1.719-2.514-1.527-4.467-3.538-5.858-6.031-1.393-2.491-2.358-5.274-2.899-8.35-.538-3.074-.936-5.962-1.188-8.662-.178-1.897-.149-4.018.084-6.361.235-2.34.639-4.749 1.216-7.222a49.376 49.376 0 012.399-7.485 35.398 35.398 0 013.807-7.012 12.382 12.382 0 012.353-4.758 16.517 16.517 0 014.046-3.63 23.499 23.499 0 015.141-2.447c1.855-.627 3.686-1.026 5.484-1.194.3-.028.579-.002.839.073.259.077.544.152.854.223 1.307-.021 2.979.326 5.013 1.043 2.033.717 4.058 1.889 6.077 3.515 2.017 1.626 3.804 3.754 5.361 6.38 1.556 2.629 2.518 5.89 2.882 9.789.075.801.115 1.781.124 2.938a84.84 84.84 0 01-.025 2.952c2.214-1.115 4.51-2.438 6.888-3.972a114.52 114.52 0 006.887-4.804 87.257 87.257 0 006.108-5.034c1.858-1.687 3.331-3.185 4.419-4.497.914-.993 1.718-1.572 2.408-1.738.689-.164 1.209-.012 1.556.46.348.473.462 1.167.347 2.085-.117.918-.572 1.97-1.369 3.153-.445.647-1.606 1.965-3.486 3.957-1.882 1.991-4.124 4.167-6.725 6.528a112.187 112.187 0 01-8.571 7.004c-3.114 2.307-6.123 4.101-9.029 5.38zm-34.6 6.868c.169 1.799.434 3.566.799 5.295.363 1.731.908 3.243 1.635 4.536.726 1.293 1.628 2.32 2.707 3.074 1.078.758 2.418 1.06 4.018.91 1.8-.168 3.41-.747 4.829-1.738a15.881 15.881 0 003.74-3.677c1.072-1.462 2.001-3.11 2.788-4.95a41.917 41.917 0 001.962-5.704 27.746 27.746 0 01-4.17.694c-3.8.355-7.179-.462-10.138-2.455-2.96-1.991-5.352-4.665-7.179-8.025a77.991 77.991 0 00-.924 6.288c-.213 2.037-.234 3.953-.067 5.752zm7.127-27.287a9.028 9.028 0 00-.184 2.891c.149 1.6.405 3.266.771 4.995.363 1.731 1.009 3.259 1.941 4.583.93 1.326 2.314 2.381 4.153 3.166 1.837.787 4.306 1.034 7.405.744a15.259 15.259 0 002.971-.58c.178-1.327.343-2.528.495-3.602.15-1.072.189-2.007.115-2.809a28.822 28.822 0 00-.548-5.848c-.388-1.98-.934-3.77-1.637-5.368-.705-1.597-1.531-2.881-2.478-3.851-.948-.97-2.021-1.399-3.222-1.287-1.899.178-3.676.873-5.325 2.086-1.65 1.214-3.134 2.842-4.457 4.88z"/><path d="M148.144 99.167c-1.204-.996-2.078-1.999-2.626-3.006a15.712 15.712 0 01-1.262-2.982 9.204 9.204 0 01-.309-3.299 13.798 13.798 0 011.434-4.066c.596-1.165 1.441-2.378 2.533-3.641 1.093-1.26 2.59-2.485 4.497-3.673a110.239 110.239 0 002.576-10.45 559.084 559.084 0 001.868-9.931 189.42 189.42 0 001.445-10.42c1.702-8.729 2.354-15.773 1.954-21.132-.401-5.355-.83-8.87-1.289-10.542-.166-.689-.332-1.38-.496-2.071a16.781 16.781 0 01-.714-1.975 28.453 28.453 0 00-.729-2.125 56.745 56.745 0 012.783-1.773c.811-.478 1.51-.846 2.091-1.103a8.631 8.631 0 011.893-.782c2.252-.714 4.4-1.192 6.445-1.435 2.043-.241 3.202.029 3.479.809.145.492.355 1.38.627 2.664.271 1.286.496 2.879.674 4.777.178 1.9.227 4.039.146 6.415-.08 2.377-.398 4.903-.954 7.577a997.509 997.509 0 00-1.951 9.863c-.773 3.603-1.785 8.41-3.037 14.427a2447.25 2447.25 0 01-4.948 23.075c2.905-1.278 6.114-2.539 9.629-3.775a131.21 131.21 0 0110.811-3.281c3.692-.95 7.398-1.751 11.119-2.401 3.721-.651 7.188-1.025 10.407-1.126.6-.056 1.05.181 1.352.706.301.527.354 1.102.162 1.724-.195.624-.691 1.251-1.488 1.879-.799.63-1.994 1.07-3.582 1.318-1.983.389-4.159.819-6.534 1.292-2.377.475-4.818 1.056-7.325 1.744s-4.981 1.475-7.417 2.358a55.641 55.641 0 00-6.83 2.984l-4.93 2.276a88.976 88.976 0 00-4.262 2.139c-1.49.796-2.711 1.489-3.662 2.082L159.3 95.551c6.181 3.558 11.048 7.337 14.599 11.339 3.552 4.005 6.193 7.74 7.932 11.208 2.092 4.039 3.424 8.048 3.999 12.028.412 4.397.175 8.882-.707 13.453a67.896 67.896 0 01-3.98 13.229 69.852 69.852 0 01-6.438 12.022c-2.521 3.765-5.239 7.044-8.154 9.838-2.915 2.792-5.937 4.993-9.062 6.595-3.128 1.604-6.153 2.391-9.081 2.363-2.118-.004-3.929-.516-5.438-1.533-1.506-1.019-2.691-2.371-3.556-4.055-.861-1.684-1.445-3.595-1.747-5.734a22.999 22.999 0 01.004-6.429c.204-2.137.689-6.115 1.454-11.934.652-4.901 1.698-12.032 3.14-21.393a8169.514 8169.514 0 015.879-37.381zm9.505 6.219a508.105 508.105 0 00-2.382 14.139c-.657 4.296-1.188 8.075-1.586 11.341-.554 3.781-.94 7.197-1.159 10.243a624.163 624.163 0 01-1.721 11.504c-.604 3.786-1.042 7.181-1.316 10.182-.272 2.999-.275 5.395-.008 7.186.269 1.79 1.002 2.629 2.202 2.517 2.916-.072 5.836-1.48 8.755-4.223 2.919-2.745 5.502-6.111 7.752-10.103a59.152 59.152 0 005.311-12.749c1.292-4.507 1.766-8.612 1.419-12.309-.383-4.1-1.414-8.087-3.086-11.962a51.034 51.034 0 00-3.724-5.854c-1.261-1.597-2.755-3.297-4.485-5.101-1.734-1.804-3.723-3.407-5.972-4.811z"/><path d="M198.073 94.493c-1.203-.996-2.077-1.999-2.625-3.006a15.718 15.718 0 01-1.263-2.982 9.247 9.247 0 01-.309-3.299 13.8 13.8 0 011.435-4.066c.595-1.165 1.44-2.378 2.533-3.641 1.092-1.26 2.589-2.485 4.497-3.673a110.237 110.237 0 002.577-10.45 559.084 559.084 0 001.868-9.931 188.453 188.453 0 001.444-10.42c1.703-8.729 2.355-15.773 1.955-21.132-.401-5.355-.83-8.87-1.289-10.543-.167-.688-.332-1.379-.496-2.071a16.492 16.492 0 01-.714-1.975 28.61 28.61 0 00-.729-2.125 56.948 56.948 0 012.783-1.773c.812-.478 1.51-.845 2.091-1.103.67-.365 1.303-.626 1.893-.783 2.253-.713 4.4-1.191 6.445-1.435 2.044-.241 3.204.029 3.479.809.145.492.355 1.38.627 2.664.271 1.287.497 2.879.675 4.777.178 1.9.226 4.039.146 6.415-.08 2.378-.398 4.904-.953 7.577a941.73 941.73 0 00-1.951 9.863c-.774 3.603-1.785 8.41-3.037 14.426a2485.81 2485.81 0 01-4.948 23.076c2.905-1.279 6.114-2.539 9.629-3.775s7.117-2.33 10.811-3.28a144.118 144.118 0 0111.118-2.402c3.722-.651 7.188-1.025 10.407-1.125.6-.056 1.049.181 1.352.706.301.527.354 1.102.161 1.724-.194.624-.69 1.251-1.488 1.879-.799.63-1.993 1.07-3.581 1.318-1.982.388-4.158.819-6.534 1.292a106.267 106.267 0 00-7.324 1.745 98.026 98.026 0 00-7.418 2.357 55.693 55.693 0 00-6.829 2.984l-4.93 2.276a88.99 88.99 0 00-4.263 2.139c-1.489.796-2.711 1.49-3.662 2.082l-2.424 11.268c6.18 3.558 11.048 7.337 14.599 11.339 3.551 4.004 6.193 7.74 7.932 11.207 2.091 4.04 3.423 8.048 3.999 12.028.411 4.397.175 8.882-.707 13.453a67.986 67.986 0 01-3.98 13.229 69.852 69.852 0 01-6.438 12.022c-2.521 3.765-5.239 7.044-8.155 9.838-2.914 2.791-5.937 4.992-9.062 6.596-3.129 1.603-6.154 2.391-9.083 2.361-2.117-.004-3.929-.515-5.438-1.533-1.506-1.018-2.691-2.37-3.555-4.053-.862-1.685-1.445-3.596-1.747-5.734-.3-2.142-.3-4.283.003-6.429.204-2.137.69-6.115 1.455-11.935.651-4.901 1.697-12.032 3.14-21.393a8556.034 8556.034 0 015.878-37.383zm9.508 6.22a511.461 511.461 0 00-2.383 14.139c-.656 4.296-1.187 8.075-1.585 11.341-.554 3.781-.94 7.197-1.159 10.243a624.232 624.232 0 01-1.722 11.505c-.603 3.786-1.041 7.18-1.315 10.182-.272 2.999-.275 5.395-.009 7.185.27 1.79 1.003 2.629 2.202 2.517 2.917-.072 5.836-1.48 8.756-4.223 2.919-2.745 5.502-6.111 7.751-10.104a59.115 59.115 0 005.311-12.748c1.292-4.507 1.766-8.612 1.42-12.309-.384-4.1-1.414-8.087-3.087-11.963a51.013 51.013 0 00-3.723-5.853c-1.262-1.598-2.755-3.297-4.486-5.101-1.734-1.804-3.722-3.408-5.971-4.811z"/><path d="M311.469 68.15c-2.587 4.681-5.586 9.272-8.996 13.774-3.411 4.504-7.088 8.58-11.031 12.225-3.946 3.647-8.049 6.678-12.309 9.092-4.262 2.415-8.491 3.82-12.688 4.213-2.2.206-4.623-.097-7.27-.907-2.648-.812-5.123-2.217-7.429-4.221-2.305-2-4.247-4.693-5.822-8.076-1.578-3.381-2.35-7.594-2.318-12.64.017-4.135.885-8.576 2.61-13.327a59.284 59.284 0 016.774-13.264c2.793-4.092 6.045-7.573 9.762-10.442 3.715-2.867 7.57-4.49 11.569-4.864 3.798-.355 6.635.339 8.514 2.077 1.877 1.741 2.846 4.021 2.908 6.836-.009 3.128-.62 6.059-1.824 8.792a34.797 34.797 0 01-4.513 7.531 52.884 52.884 0 01-5.839 6.294 214.632 214.632 0 01-5.938 5.245 1597.722 1597.722 0 01-5.897 4.863 165.53 165.53 0 00-4.903 4.165c.331 2.491.978 4.547 1.938 6.171.958 1.626 2.087 2.905 3.384 3.843a10.754 10.754 0 004.335 1.863c1.591.305 3.187.382 4.786.233 3.397-.318 6.847-1.724 10.344-4.22 3.497-2.495 6.877-5.432 10.141-8.815a119.902 119.902 0 009.005-10.447c2.74-3.584 4.996-6.668 6.772-9.255.623-.865 1.306-1.408 2.041-1.628.735-.22 1.345-.176 1.827.131.482.31.764.889.843 1.736.08.851-.181 1.858-.776 3.022zm-40.546-19.498c-1.199.112-2.567.845-4.105 2.199-1.537 1.354-3.001 3.23-4.388 5.629-1.391 2.399-2.632 5.29-3.728 8.668-1.097 3.381-1.798 7.202-2.103 11.465a102.686 102.686 0 013.639-3.139 75.247 75.247 0 003.91-3.466c3.988-3.702 6.716-6.88 8.184-9.539 1.465-2.656 2.213-4.896 2.245-6.714.021-1.916-.307-3.272-.985-4.067-.679-.792-1.57-1.139-2.669-1.036z"/><path d="M368.597 62.804c-2.588 4.681-5.587 9.272-8.997 13.774-3.411 4.504-7.088 8.58-11.031 12.225-3.946 3.647-8.048 6.678-12.308 9.092-4.263 2.415-8.491 3.82-12.688 4.213-2.201.206-4.624-.097-7.271-.907-2.647-.812-5.123-2.217-7.428-4.221-2.306-2-4.247-4.693-5.823-8.076-1.577-3.381-2.35-7.594-2.318-12.64.017-4.135.886-8.576 2.61-13.327a59.326 59.326 0 016.774-13.264c2.793-4.092 6.047-7.573 9.763-10.442 3.714-2.867 7.569-4.49 11.568-4.864 3.798-.355 6.635.339 8.515 2.077 1.876 1.741 2.846 4.021 2.908 6.836-.01 3.128-.62 6.059-1.825 8.792a34.757 34.757 0 01-4.513 7.531 52.884 52.884 0 01-5.839 6.294 214.632 214.632 0 01-5.938 5.245 1600.16 1600.16 0 01-5.896 4.863 165.68 165.68 0 00-4.904 4.165c.332 2.491.979 4.547 1.938 6.171.958 1.626 2.087 2.905 3.385 3.843s2.741 1.559 4.334 1.863c1.591.305 3.187.382 4.786.233 3.397-.318 6.847-1.724 10.344-4.22 3.497-2.495 6.878-5.432 10.142-8.815a120.06 120.06 0 009.004-10.447c2.74-3.584 4.997-6.669 6.773-9.255.622-.865 1.305-1.408 2.04-1.628.736-.22 1.346-.176 1.828.131.482.31.764.889.844 1.736.079.85-.183 1.858-.777 3.022zM328.05 43.306c-1.198.112-2.567.845-4.105 2.199-1.536 1.354-3.001 3.23-4.388 5.629-1.391 2.399-2.632 5.29-3.728 8.668-1.096 3.381-1.798 7.202-2.103 11.465a102.686 102.686 0 013.639-3.139 74.38 74.38 0 003.91-3.466c3.988-3.702 6.717-6.88 8.184-9.539 1.465-2.656 2.213-4.896 2.245-6.714.021-1.916-.307-3.272-.985-4.067-.678-.793-1.57-1.139-2.669-1.036z"/></g><g fill="#FFF"><path d="M15.306 325.727c-.993-.439-1.573-1.002-1.744-1.684-.168-.686-.115-1.409.159-2.168.257-.862.714-1.755 1.37-2.683.67-.83 1.305-2.748 1.907-5.756.599-3.007 1.169-6.622 1.714-10.843.541-4.22 1.019-8.812 1.436-13.775.413-4.961.77-9.812 1.07-14.552.301-4.737.511-9.104.636-13.101.123-3.995.185-7.163.188-9.508.014-2.854.036-5.968.064-9.335a645.654 645.654 0 00-.102-10.299c-.065-3.909-.255-8.232-.564-12.97l10.945-7.398c1.545-1.08 2.762-1.112 3.652-.097.888 1.02 1.294 3.367 1.22 7.049.013 1.831-.032 4.819-.128 8.963-.1 4.144-.25 8.704-.458 13.682-.207 4.979-.45 10.065-.721 15.256-.273 5.194-.62 9.812-1.038 13.858l-1.229 13.204c-.872 8.507-2.119 20.133-3.741 34.884 1.795 2.135 4.572 2.876 8.333 2.225 4.154-.719 8.703-3.138 13.645-7.253 4.943-4.118 9.437-9.787 13.485-17.008 4.047-7.22 7.198-15.943 9.454-26.167 2.254-10.223 2.771-21.802 1.551-34.734-.705-7.007-2.104-13.032-4.199-18.071-2.095-5.037-4.664-9.126-7.704-12.269-3.041-3.141-6.472-5.297-10.291-6.471-3.82-1.173-7.858-1.391-12.111-.654-9.992 1.73-19.609 7.675-28.854 17.836L10.376 203.7c2.075-3.314 4.637-6.024 7.685-8.134 3.049-2.106 5.938-3.803 8.671-5.093a45.548 45.548 0 019.981-3.256c6.331-1.097 12.65-.942 18.956.461 6.305 1.407 12.039 4.209 17.199 8.408 5.16 4.204 9.522 9.842 13.092 16.914 3.568 7.077 5.87 15.669 6.909 25.779.598 5.808.468 11.969-.39 18.484-.859 6.519-2.332 13.014-4.42 19.487a108.451 108.451 0 01-8.125 18.831c-3.33 6.079-7.168 11.558-11.52 16.438-4.352 4.881-9.196 8.98-14.53 12.299-5.335 3.315-11.07 5.509-17.203 6.57-1.897.226-3.986.232-6.263.015-1.966-.17-4.239-.642-6.817-1.418-2.581-.773-5.347-2.027-8.295-3.758zM101.784 290.272c-.502 1.207-1.145 2.057-1.927 2.55-.779.491-1.513.669-2.2.534-.685-.136-1.195-.583-1.53-1.34-.334-.756-.309-1.78.079-3.07l1.31-4.354c.679-2.257 1.485-4.969 2.413-8.136.93-3.165 1.939-6.603 3.029-10.306 1.089-3.704 2.136-7.222 3.14-10.555a388.486 388.486 0 012.803-8.969 591.4 591.4 0 011.907-5.756c-1.261-.798-2.127-1.389-2.599-1.767-.473-.376-.937-1.288-1.391-2.739-.422-1.249-.417-2.983.016-5.199a30.564 30.564 0 012.076-6.549c.95-2.151 2.099-4.056 3.442-5.716 1.342-1.658 2.757-2.617 4.241-2.874 2.768-.479 4.876.072 6.323 1.655 1.444 1.585 2.429 3.3 2.954 5.144.42 1.253.604 2.902.551 4.949-.053 2.048-.486 3.957-1.3 5.727.332.148.764.302 1.303.461.537.164 1.349.149 2.438-.039 1.582-.272 2.678-.563 3.289-.875.607-.308 1.604-.584 2.989-.823 1.681-.291 3.139-.108 4.373.542a10.35 10.35 0 013.211 2.653 16.12 16.12 0 012.252 3.737c.593 1.375 1.043 2.646 1.349 3.816.726 2.423.526 5.104-.593 8.049-1.121 2.947-2.544 6.199-4.271 9.759-1.044 2.219-2.043 4.685-3 7.397-.958 2.713-1.165 5.042-.624 6.984.42 1.253.945 2.231 1.579 2.936.631.708 2.084.862 4.36.468 1.681-.291 3.429-1.229 5.244-2.818 1.812-1.586 3.614-3.529 5.409-5.826a87.182 87.182 0 005.201-7.474c1.675-2.683 3.21-5.294 4.606-7.828s2.555-4.797 3.484-6.793a154.511 154.511 0 012.077-4.333c.357-.877.905-1.532 1.647-1.967.738-.434 1.432-.555 2.077-.359.644.194 1.119.723 1.421 1.587.302.865.137 2.117-.497 3.755-.422 1.093-1.164 2.852-2.22 5.275-1.058 2.427-2.37 5.148-3.935 8.17a153.388 153.388 0 01-5.326 9.404 77.433 77.433 0 01-6.453 9.064c-2.32 2.799-4.709 5.172-7.173 7.128-2.465 1.954-4.934 3.146-7.405 3.574-2.574.445-4.786.317-6.638-.378-1.855-.699-3.423-1.677-4.71-2.931a14.12 14.12 0 01-3.048-4.362c-.745-1.653-1.198-3.231-1.354-4.733-.109-1.203-.004-2.521.309-3.949a51.024 51.024 0 011.208-4.49 97.02 97.02 0 011.629-4.714 73.54 73.54 0 001.569-4.627c1.184-3.159 2.122-5.844 2.808-8.052.688-2.207.911-4.004.672-5.391-.154-.889-.491-1.646-1.005-2.271-.516-.622-1.218-.858-2.109-.705-.594.104-1.011.201-1.249.293-.238.095-.482.16-.729.203-.249.043-.59.128-1.026.254-.436.128-1.1.267-1.99.421-1.287.224-2.408.215-3.368-.028-.958-.24-1.851-.39-2.676-.453-.276.762-.909 2.399-1.899 4.913a1008.63 1008.63 0 00-3.435 8.849 2811.514 2811.514 0 01-4.117 10.647 2078.619 2078.619 0 01-4.082 10.411c-1.275 3.229-2.354 5.963-3.241 8.204-.881 2.245-1.438 3.592-1.668 4.036z"/><path d="M231.156 236.843c-2.213 4.868-4.845 9.68-7.894 14.434-3.049 4.759-6.396 9.108-10.043 13.051-3.648 3.943-7.503 7.286-11.562 10.025-4.06 2.738-8.166 4.471-12.32 5.19-2.178.377-4.617.265-7.319-.337-2.703-.603-5.28-1.811-7.735-3.629-2.454-1.813-4.599-4.348-6.436-7.597-1.834-3.248-2.934-7.388-3.296-12.42-.306-4.125.212-8.62 1.561-13.491a59.368 59.368 0 015.719-13.752c2.466-4.298 5.436-8.022 8.917-11.173 3.479-3.148 7.197-5.067 11.154-5.752 3.759-.651 6.641-.181 8.65 1.405 2.007 1.589 3.151 3.787 3.434 6.589.235 3.119-.145 6.087-1.132 8.907a34.742 34.742 0 01-3.912 7.861 52.735 52.735 0 01-5.329 6.73 215.266 215.266 0 01-5.511 5.692c-1.92 1.86-3.753 3.63-5.5 5.308a168.281 168.281 0 00-4.564 4.535c.525 2.458 1.331 4.457 2.415 6.002 1.082 1.546 2.307 2.732 3.674 3.565a10.768 10.768 0 004.466 1.52c1.61.18 3.207.133 4.79-.143 3.362-.58 6.691-2.251 9.983-5.013 3.291-2.761 6.432-5.953 9.421-9.58a120.121 120.121 0 008.162-11.119c2.451-3.787 4.459-7.038 6.028-9.755.555-.911 1.192-1.506 1.908-1.781.716-.278 1.328-.282 1.833-.013.505.271.831.826.976 1.665.146.845-.035 1.87-.538 3.076zm-41.944-16.273c-1.188.205-2.495 1.043-3.921 2.513-1.427 1.471-2.741 3.454-3.936 5.955-1.198 2.5-2.211 5.479-3.038 8.933-.83 3.455-1.23 7.319-1.202 11.594a102.415 102.415 0 013.383-3.413 75.428 75.428 0 003.628-3.761c3.687-4.002 6.158-7.384 7.413-10.149 1.253-2.763 1.823-5.054 1.715-6.869-.129-1.912-.561-3.238-1.301-3.978-.739-.736-1.653-1.014-2.741-.825z"/><path d="M296.827 226.846c-1.043 2.221-2.401 4.979-4.071 8.271a346.655 346.655 0 01-5.235 9.924 150.437 150.437 0 01-5.438 9.195c-1.806 2.812-3.365 4.838-4.678 6.083-.886.765-1.94 1.456-3.155 2.075a18.24 18.24 0 01-3.804 1.422c-1.318.329-2.593.474-3.823.433-1.229-.041-2.341-.281-3.333-.721-1.01-.537-1.924-1.399-2.741-2.582-.684-1.001-1.401-2.355-2.154-4.061-.754-1.701-1.313-3.897-1.676-6.586-1.688 4.367-3.784 7.864-6.284 10.487-2.502 2.625-4.951 4.655-7.353 6.087-2.778 1.602-5.635 2.758-8.568 3.472-1.387.239-2.952.025-4.697-.64-1.745-.664-3.337-1.918-4.776-3.756-1.438-1.839-2.585-4.342-3.438-7.507-.854-3.162-1.121-7.065-.805-11.705.34-6.272 1.59-12.145 3.751-17.615 2.159-5.469 4.718-10.266 7.672-14.396 2.953-4.126 6.004-7.382 9.16-9.763 3.152-2.38 5.884-3.665 8.196-3.864 2.755.034 5.068.448 6.938 1.243 1.557.751 2.725 2.052 3.505 3.902.778 1.853.402 4.541-1.125 8.067 1.331-.536 2.459-.936 3.383-1.199.922-.259 1.63-.435 2.126-.52.594-.103.997-.12 1.213-.057.132.182.255.593.366 1.234.111.646.164 1.833.159 3.565a251.214 251.214 0 01-.154 7.057c-.096 2.973-.247 6.819-.446 11.54-.045.926-.075 1.77-.096 2.538a873.49 873.49 0 01-.06 2.303l-.07 2.687c-.027 1.025-.058 2.303-.1 3.838.056.907.197 1.878.428 2.907.229 1.031.57 1.964 1.021 2.803.45.84 1.045 1.477 1.783 1.908.735.434 1.698.546 2.886.341.987-.171 2.168-1.011 3.536-2.523 1.368-1.509 2.776-3.385 4.225-5.621a163.46 163.46 0 004.458-7.345 251.633 251.633 0 004.247-7.689 625.478 625.478 0 013.523-6.571 186.497 186.497 0 002.252-4.211c.636-1.026 1.338-1.684 2.104-1.969.765-.285 1.397-.166 1.896.36.497.524.725 1.4.685 2.631-.044 1.232-.521 2.743-1.433 4.528zm-42.349 14.059c.152-2.063.343-4.491.574-7.282.229-2.79.377-5.466.444-8.024.064-2.558.08-4.675.046-6.351-.036-1.676-.244-2.429-.62-2.263-.479.186-.996.428-1.555.729-.461.285-1.079.545-1.854.779-.774.237-1.54.522-2.296.856.517-1.718.76-3.111.729-4.177-.031-1.064-.149-1.884-.35-2.461-.219-.674-.511-1.186-.877-1.53-1.243-.7-3.022.348-5.34 3.141-2.319 2.798-4.718 7.618-7.2 14.469a40.093 40.093 0 00-2.134 8.852c-.386 3.072-.529 5.926-.43 8.558.099 2.633.413 4.895.946 6.789.531 1.895 1.146 3.088 1.843 3.578 1.276.901 2.603 1.207 3.98.916 1.375-.288 2.715-.929 4.023-1.92 1.303-.989 2.571-2.202 3.801-3.637a35.241 35.241 0 003.216-4.379c.914-1.481 1.649-2.832 2.203-4.049.555-1.217.838-2.08.851-2.594z"/><path d="M359.965 239.296c-.36-2.077-.549-4.49-.565-7.237-.019-2.748.073-5.592.278-8.532.202-2.938.423-5.803.652-8.595.229-2.789.41-5.267.547-7.43.148-2.675-.244-4.645-1.178-5.91-.932-1.264-2.238-1.752-3.919-1.461-.794.138-2.231 1.101-4.315 2.887-2.084 1.789-4.192 4.624-6.32 8.508-2.132 3.884-4.006 8.946-5.623 15.187-1.621 6.242-2.401 13.943-2.342 23.103-1.711 1.313-3.379 2.266-5.01 2.854-.855.353-1.622.638-2.297.857-1.963.439-3.302.342-4.024-.297-.723-.638-.937-2.46-.641-5.468.154-1.452.487-3.802.994-7.05.51-3.245.944-6.76 1.308-10.543.363-3.78.605-7.541.722-11.282.115-3.737-.057-6.944-.52-9.615-.324-1.878-.87-3.108-1.633-3.69-.764-.579-1.738-.77-2.924-.563-.891.154-2.289.907-4.194 2.255-1.906 1.35-3.897 3.682-5.975 6.995-2.075 3.315-3.932 7.737-5.572 13.269-1.64 5.532-2.647 12.509-3.023 20.927l-.053-.297-.182 2.478a14.64 14.64 0 00-.059 2.304 15.34 15.34 0 01-.061 2.301l-6.854 4.551c-.462.283-1.053.538-1.777.767a3.42 3.42 0 01-2.143-.012c-.704-.236-1.296-.871-1.781-1.907-.484-1.036-.67-2.687-.551-4.948l2.642-40.349c.073-1.336.104-2.617.099-3.839a24.972 24.972 0 00-.181-3.254c-.132-1.047-.354-1.899-.673-2.559 1.544-1.08 2.925-1.931 4.143-2.552a69.675 69.675 0 012.963-1.429c.937-.469 1.752-.763 2.445-.883 3.165-.548 4.675 1.994 4.53 7.622-.122 1.652-.314 4.08-.574 7.282a78.983 78.983 0 014.842-7.792 68.506 68.506 0 015.465-6.83c1.883-2.058 3.854-3.774 5.909-5.151 2.056-1.373 4.17-2.25 6.348-2.627 1.68-.29 3.175-.038 4.485.752 1.307.793 2.424 1.95 3.352 3.47.925 1.521 1.63 3.387 2.115 5.594.481 2.21.783 4.527.897 6.951a97.651 97.651 0 014.176-7.218 51.573 51.573 0 015.096-6.767c1.833-2.049 3.795-3.814 5.883-5.298 2.087-1.481 4.266-2.421 6.543-2.814 2.67-.462 4.86-.025 6.568 1.309 1.709 1.334 3.049 3.191 4.021 5.569.972 2.381 1.584 5.024 1.833 7.936a64.38 64.38 0 01.178 8.527l-1.576 20.907c-.232 5.137 1.234 7.428 4.402 6.88 2.471-.429 4.987-2.087 7.544-4.976 2.557-2.888 4.962-6.208 7.216-9.961a141.55 141.55 0 006.191-11.465c1.872-3.89 3.47-7.021 4.793-9.388.474-.795 1.021-1.298 1.65-1.51.625-.208 1.19-.181 1.695.088.505.271.849.797 1.038 1.579.187.783.085 1.819-.304 3.108-1.379 3.807-3.138 8.059-5.279 12.759a100.903 100.903 0 01-7.379 13.43c-2.779 4.251-5.883 7.947-9.313 11.088-3.429 3.14-7.222 5.072-11.377 5.791a19.009 19.009 0 01-4.159.263 10.583 10.583 0 01-3.992-.991c-1.274-.596-2.374-1.498-3.297-2.715-.924-1.217-1.563-2.864-1.923-4.943z"/></g><g fill="#FFF"><path d="M157.744 339.762c-.589.033-1.333.099-2.232.191-.899.097-1.787.195-2.665.298-.585.077-1.178.175-1.779.294-.52.092-1.09.207-1.71.351-.62.142-1.206.324-1.756.544a1.935 1.935 0 01-.045-.487c.006-.159.023-.313.052-.465.025-.171.053-.331.081-.482.064-.217.164-.447.3-.693.135-.245.263-.404.383-.479.101-.051.312-.113.632-.186.321-.072.704-.146 1.152-.219a45.806 45.806 0 013.147-.406 46.112 46.112 0 012.767-.243 43.41 43.41 0 012.117-.056c.298.015.479.094.545.234.066.142.055.406-.036.795-.092.368-.206.628-.34.777-.136.151-.339.227-.613.232zM179.422 332.345c-.026-.061.021-.229.143-.505.122-.274.254-.613.396-1.019.142-.404.278-.86.411-1.369.132-.509.21-1.029.234-1.559.024-.53-.03-1.054-.163-1.569s-.399-.998-.801-1.447c-.232-.231-.555-.343-.966-.337-.412.007-.866.113-1.365.317a7.758 7.758 0 00-1.534.873 8.707 8.707 0 00-1.418 1.273 6.97 6.97 0 00-1.044 1.54c-.276.554-.409 1.104-.4 1.653-.001.444.054.852.162 1.221.108.37.24.706.396 1.008.155.304.318.584.491.842.171.259.33.487.476.685.195.278.486.578.876.901.39.322.814.688 1.276 1.1.46.411.927.88 1.398 1.407.472.525.898 1.131 1.279 1.812.381.683.675 1.457.883 2.325.209.868.289 1.843.242 2.925-.086 1.571-.331 2.899-.736 3.983-.406 1.083-.878 1.967-1.415 2.652-.538.684-1.099 1.195-1.679 1.535-.581.339-1.066.569-1.456.689-.309.093-.676.186-1.1.277a4.995 4.995 0 01-1.354.097 5.543 5.543 0 01-1.471-.306 3.627 3.627 0 01-1.384-.902 6.528 6.528 0 01-1.195-1.599 7.727 7.727 0 01-.688-1.758c-.178-.67-.187-1.382-.025-2.137.15-.205.312-.389.487-.553.174-.164.351-.308.529-.431.197-.145.406-.28.628-.406.264-.109.529-.208.796-.296.227-.063.47-.113.731-.148.261-.034.51-.021.748.041-.281.386-.47.741-.565 1.066a3.503 3.503 0 00-.147.457c-.047.406-.028.886.056 1.438.083.552.248 1.075.495 1.57.247.494.576.906.987 1.238.411.331.932.478 1.562.44 1.532-.102 2.719-1.417 3.561-3.946a5.548 5.548 0 00.335-2.345 7.926 7.926 0 00-.492-2.204 10.204 10.204 0 00-.972-1.921 11.254 11.254 0 00-1.139-1.494 20.044 20.044 0 00-1.343-1.315c-.52-.47-1.038-.986-1.555-1.551a13.409 13.409 0 01-1.426-1.862 7.45 7.45 0 01-.957-2.256c-.276-1.157-.268-2.24.028-3.251a8.526 8.526 0 011.331-2.708 9.244 9.244 0 012.001-1.994c.742-.533 1.411-.892 2.007-1.074 3.309-.985 5.571-.627 6.787 1.076.504.65.813 1.361.928 2.132.115.771.135 1.492.061 2.164-.075.673-.19 1.244-.347 1.713-.157.47-.265.728-.324.775-.113.137-.3.292-.558.464-.26.172-.687.349-1.281.532-.165.058-.33.095-.497.11a3.641 3.641 0 01-.474.012 1.236 1.236 0 01-.45-.081zM185.981 334.363c.093-.136.281-.259.567-.37a8.54 8.54 0 01.892-.29c.31-.082.594-.14.854-.175.262-.035.414-.044.458-.027.022.02-.009.244-.095.674-.088.431-.198.938-.334 1.521-.136.582-.28 1.183-.434 1.799a24.447 24.447 0 00-.334 1.505c-.07.388-.156.823-.258 1.309-.103.485-.19.958-.264 1.419s-.112.893-.116 1.294c-.006.401.055.703.179.902.128.242.26.403.395.485a.665.665 0 00.422.104c.419-.039.927-.319 1.521-.84a18.115 18.115 0 001.794-1.832c.6-.7 1.15-1.407 1.655-2.12.503-.712.872-1.281 1.107-1.704.147-.225.308-.377.479-.456.173-.08.32-.083.443-.01.123.072.198.203.227.391s-.02.413-.143.679c-.279.617-.707 1.359-1.28 2.228a31.11 31.11 0 01-1.855 2.518 19.186 19.186 0 01-1.975 2.104c-.652.588-1.197.913-1.636.977-.354.054-.71.028-1.068-.075a3.301 3.301 0 01-1.781-1.259 2.293 2.293 0 01-.41-.991c-.112-.518-.18-1.235-.201-2.152a26.86 26.86 0 01.084-2.828c.078-.97.207-1.895.39-2.777.182-.886.421-1.553.717-2.003zm3.709-7.097a1.886 1.886 0 01-.299.709 2.377 2.377 0 01-.546.589 1.924 1.924 0 01-.65.33c-.227.064-.419.039-.578-.072-.471-.294-.735-.634-.792-1.019a1.889 1.889 0 01.18-1.127c.178-.365.411-.683.703-.953.292-.27.551-.437.777-.5s.424-.035.595.087c.169.122.307.288.41.501.104.212.175.453.211.725.035.271.033.514-.011.73z"/><path d="M202.742 345.501c-.482.045-.903-.006-1.266-.151s-.663-.355-.899-.629-.404-.602-.504-.982a3.16 3.16 0 01-.053-1.247c.036-.3.104-.701.203-1.208.102-.506.203-1.053.307-1.644.103-.591.195-1.181.277-1.769.082-.59.122-1.121.121-1.597-.004-.476-.061-.86-.172-1.156-.112-.295-.306-.432-.577-.406-.335.031-.671.174-1.006.428-.336.254-.67.584-1 .996-.331.412-.657.881-.978 1.407s-.635 1.068-.941 1.625c-.122.73-.221 1.367-.296 1.913a83.83 83.83 0 00-.195 1.476c-.053.438-.107.824-.16 1.156-.055.333-.099.648-.134.947-.043.215-.213.437-.508.665-.296.228-.616.423-.96.582s-.646.25-.909.274c-.262.025-.38-.059-.355-.251.009-.128.051-.418.124-.869l.263-1.593c.102-.611.204-1.259.31-1.945.104-.686.201-1.338.292-1.96.06-.492.124-1.037.195-1.635a79.357 79.357 0 01.573-4.047c.134-.139.277-.253.427-.341.151-.088.308-.16.472-.219.16-.077.336-.136.521-.175.168-.017.336-.021.505-.017.149.008.305.031.467.067.161.038.312.104.446.196-.05.153-.104.364-.163.633-.059.27-.117.556-.173.856a11.46 11.46 0 01-.218 1.065c.237-.402.511-.812.819-1.232.31-.421.654-.806 1.033-1.159a6.197 6.197 0 011.23-.892 3.551 3.551 0 011.387-.43c.397-.037.765.044 1.101.244.336.202.611.499.828.891.216.392.366.869.45 1.431.086.562.064 1.188-.062 1.875l-.216 1.415c-.064.449-.146.98-.247 1.592a39.194 39.194 0 01-.397 2.019c-.083.473-.094.874-.03 1.206s.283.48.66.445c.376-.035.831-.309 1.364-.824a15.134 15.134 0 001.588-1.829 32.574 32.574 0 001.478-2.15c.46-.729.807-1.316 1.04-1.762.163-.288.324-.484.483-.583.159-.1.29-.122.39-.067.101.053.16.19.182.41.021.22-.037.506-.174.855-.119.308-.308.716-.566 1.227-.259.51-.572 1.058-.939 1.641a35.293 35.293 0 01-1.197 1.775c-.429.6-.885 1.149-1.365 1.649a9.392 9.392 0 01-1.453 1.245c-.49.333-.963.52-1.423.563z"/><path d="M213.438 342.63c.648-.061 1.342-.384 2.079-.971a17.433 17.433 0 002.124-2.021 25.703 25.703 0 001.844-2.312c.55-.78.962-1.406 1.234-1.875.163-.289.326-.469.488-.536.163-.067.291-.053.385.043.094.098.14.257.141.479-.001.222-.072.477-.215.765a13.74 13.74 0 01-.636 1.153c-.302.503-.661 1.055-1.081 1.653s-.9 1.215-1.444 1.847a17.537 17.537 0 01-1.722 1.745 10.98 10.98 0 01-1.901 1.352c-.663.368-1.33.583-2 .646-.922.087-1.708-.015-2.357-.302s-1.185-.687-1.601-1.197a5.251 5.251 0 01-.939-1.734c-.208-.646-.343-1.293-.403-1.942s.011-1.469.213-2.46c.203-.991.55-1.958 1.044-2.901a8.597 8.597 0 011.969-2.498c.819-.722 1.826-1.138 3.021-1.249a2.371 2.371 0 011.776.529c.515.417.798 1.025.853 1.823.035.377.007.754-.085 1.133a3.592 3.592 0 01-.411 1.02 2.513 2.513 0 01-.675.745 1.803 1.803 0 01-.904.339c-.271.025-.485-.055-.641-.242a1.535 1.535 0 01-.315-.667 3.269 3.269 0 01-.072-.771c.008-.254.029-.424.063-.513a.989.989 0 01.315-.346c.121-.074.26-.162.42-.262a.722.722 0 00.272-.311c.061-.133.085-.272.071-.419s-.068-.268-.16-.365c-.095-.097-.235-.137-.424-.119-.188.019-.516.201-.978.551-.465.352-.926.849-1.382 1.493-.458.645-.844 1.437-1.157 2.374s-.425 2.004-.334 3.2c.043.693.19 1.249.441 1.669.251.421.544.742.883.965.338.222.699.366 1.087.436a4.1 4.1 0 001.114.053z"/><path d="M233.502 335.239c-.542.98-1.17 1.942-1.885 2.886s-1.486 1.798-2.312 2.562a13.936 13.936 0 01-2.578 1.904c-.893.506-1.779.8-2.658.882-.462.044-.97-.02-1.523-.189a4.278 4.278 0 01-1.558-.885c-.482-.417-.889-.982-1.22-1.691-.329-.708-.491-1.59-.484-2.648.003-.866.185-1.797.546-2.792a12.47 12.47 0 011.42-2.779 9.567 9.567 0 012.045-2.188c.778-.601 1.586-.94 2.425-1.02.795-.074 1.389.071 1.783.436.393.365.597.843.609 1.433a4.533 4.533 0 01-.383 1.841c-.252.574-.567 1.101-.945 1.579s-.785.919-1.224 1.318c-.438.4-.853.767-1.243 1.099-.432.357-.845.696-1.236 1.02-.392.322-.734.613-1.027.873.069.521.205.952.406 1.293.201.34.438.608.709.805s.574.326.909.391c.332.063.666.079 1.001.048.712-.066 1.436-.361 2.167-.884a15.28 15.28 0 002.126-1.847 25.184 25.184 0 001.887-2.189 49.238 49.238 0 001.419-1.939c.13-.181.274-.293.427-.34.155-.047.282-.037.384.026.102.065.16.188.177.365s-.039.386-.164.63zm-8.494-4.085c-.252.023-.538.176-.86.46s-.63.677-.92 1.179c-.292.503-.552 1.109-.78 1.816-.23.709-.377 1.51-.441 2.402.234-.211.487-.43.762-.656.275-.229.548-.47.82-.729.836-.774 1.407-1.44 1.715-1.997.307-.557.463-1.026.47-1.407.004-.402-.064-.686-.207-.852a.62.62 0 00-.559-.216zM251.229 341.122c-.07-.311-.36-.526-.868-.647s-1.059-.196-1.653-.227a24.54 24.54 0 00-2.309.059c-.607.057-1.17.141-1.688.253a7.942 7.942 0 00-1.312.36c-.419.154-.703.336-.853.54-.253.234-.604.319-1.053.256-.45-.063-.776-.392-.98-.984a3.459 3.459 0 00-.25-.643 39.49 39.49 0 00-.255-.516 1.25 1.25 0 00-.308-.414c.256-.658.544-1.256.861-1.792.319-.537.683-1.067 1.089-1.592.404-.523.861-1.052 1.371-1.586a407 407 0 001.718-1.809 26.28 26.28 0 001.874-2.14c.652-.822 1.242-1.733 1.772-2.733s.957-2.08 1.281-3.241c.323-1.161.457-2.394.399-3.697-.059-1.072-.312-1.799-.76-2.179-.447-.381-.974-.543-1.582-.485-.293.027-.617.179-.971.454a4.593 4.593 0 00-.989 1.107 7.14 7.14 0 00-.771 1.577c-.21.59-.296 1.2-.257 1.83-.005.17.02.327.075.469.054.122.111.237.175.347a.547.547 0 00.293.243c-.311.304-.629.514-.956.628a1.852 1.852 0 01-.466.107 4.435 4.435 0 01-.601.009 1.769 1.769 0 01-.665-.16 1.409 1.409 0 01-.551-.472c-.157-.217-.244-.525-.262-.926-.016-.399.106-.949.368-1.65.263-.7.693-1.401 1.294-2.102.6-.701 1.37-1.327 2.312-1.88.94-.553 2.071-.892 3.39-1.015.881-.082 1.574.043 2.08.375.507.334.89.753 1.147 1.256.258.504.423 1.021.494 1.554.07.533.111.968.122 1.304.039.884-.08 1.803-.359 2.759-.28.957-.666 1.912-1.158 2.866s-1.058 1.895-1.7 2.821a46.688 46.688 0 01-1.957 2.622 43.102 43.102 0 01-1.959 2.275 80.59 80.59 0 01-1.687 1.774c-.521.535-.911 1.058-1.17 1.566-.258.511-.44.982-.549 1.414.479-.298 1.147-.613 2.004-.947.855-.334 1.85-.554 2.98-.66.67-.062 1.291-.089 1.862-.078a8.22 8.22 0 011.403.105c.451.074.771.209.957.402a3.65 3.65 0 01.141 1.159c-.004.19-.02.361-.048.511a5.26 5.26 0 01-.515 1.573zM263.375 315.14c.795-.074 1.509.159 2.141.703.633.543 1.161 1.285 1.587 2.228s.747 2.043.958 3.301c.214 1.259.31 2.565.289 3.919-.062 2.731-.386 5.027-.972 6.889-.588 1.861-1.275 3.361-2.066 4.503s-1.622 1.974-2.491 2.499c-.87.524-1.63.817-2.278.878-.503.047-1.016-.062-1.537-.33-.521-.269-1.015-.729-1.477-1.384s-.87-1.509-1.221-2.563c-.354-1.055-.612-2.346-.775-3.873-.11-.961-.106-2.034.016-3.218a26.61 26.61 0 01.629-3.608 24.974 24.974 0 011.156-3.562 18.158 18.158 0 011.626-3.115c.61-.924 1.288-1.68 2.037-2.268.748-.587 1.541-.921 2.378-.999zm2.477 9.528a11.77 11.77 0 01-.014-.807c.002-.433-.019-.938-.062-1.516a25.857 25.857 0 00-.2-1.803 8.051 8.051 0 00-.431-1.719c-.196-.521-.451-.94-.767-1.26s-.703-.457-1.164-.414-1.005.496-1.631 1.357c-.628.862-1.206 2.025-1.733 3.49-.529 1.465-.938 3.188-1.228 5.169s-.317 4.112-.083 6.393c.021.23.082.601.182 1.108.102.509.244 1.018.429 1.528.187.512.423.954.712 1.328.287.374.631.543 1.028.506.607-.058 1.204-.509 1.791-1.355.586-.848 1.109-1.915 1.569-3.205.46-1.289.834-2.713 1.122-4.272.287-1.558.446-3.067.48-4.528zM275.038 330.052c-.094.579-.198 1.207-.315 1.883a18.446 18.446 0 00-.234 2.065 15.66 15.66 0 00.021 2.09 6.5 6.5 0 00.453 1.954 2.33 2.33 0 01-.639.297 6.222 6.222 0 01-.712.178 3.21 3.21 0 01-.783.106c-.355.033-.635-.016-.837-.145s-.351-.31-.447-.544a2.024 2.024 0 01-.126-.845c.012-.328.063-.676.155-1.044l.889-4.552c.451-2.303.871-5.437 1.26-9.402.062-.682.117-1.284.163-1.806.047-.522.095-.965.146-1.329a6.936 6.936 0 01-.943-.594 4.74 4.74 0 01-.759-.673c.015-.065.158-.278.43-.643.271-.362.59-.753.953-1.166a12.54 12.54 0 011.1-1.117c.37-.331.683-.508.933-.531.105-.01.24.029.408.12.166.09.334.196.505.316.169.123.308.257.417.405.108.148.158.275.146.384l-2.184 14.593zM287.877 312.847c.797-.075 1.51.159 2.143.703.632.542 1.16 1.285 1.587 2.228.425.942.746 2.043.958 3.301.213 1.259.31 2.564.288 3.918-.061 2.731-.386 5.028-.972 6.89-.587 1.86-1.275 3.361-2.066 4.502-.791 1.143-1.621 1.975-2.491 2.499-.869.525-1.63.817-2.278.879-.503.047-1.016-.063-1.536-.33-.521-.269-1.015-.73-1.477-1.385-.463-.653-.87-1.508-1.222-2.562-.354-1.055-.611-2.346-.774-3.873-.111-.961-.107-2.034.015-3.218a26.74 26.74 0 01.629-3.608c.298-1.221.683-2.409 1.156-3.562s1.016-2.191 1.625-3.115c.611-.923 1.29-1.679 2.038-2.267.748-.589 1.542-.922 2.377-1zm2.478 9.528c-.01-.104-.015-.373-.013-.807a20.03 20.03 0 00-.062-1.515 26.5 26.5 0 00-.201-1.803c-.089-.626-.232-1.199-.43-1.72s-.452-.939-.767-1.259c-.315-.319-.703-.457-1.164-.414s-1.006.496-1.632 1.357c-.627.861-1.205 2.024-1.732 3.49-.53 1.465-.938 3.188-1.229 5.168-.29 1.981-.317 4.113-.083 6.394.021.23.082.6.183 1.107.102.509.243 1.018.429 1.528.186.512.422.955.711 1.329.288.374.631.542 1.029.505.607-.057 1.204-.509 1.79-1.355s1.109-1.914 1.57-3.204c.459-1.29.833-2.714 1.121-4.272.287-1.559.447-3.069.48-4.529z"/></g></svg>