<svg xmlns="http://www.w3.org/2000/svg" viewBox="0 0 100.477 47.075"><g fill="#FFF"><path d="M8.706 20.601l-.078.267c-.029.113-.062.187-.102.221a.626.626 0 01-.237.095 1.058 1.058 0 00-.116.043l.106.087a.556.556 0 01-.155.247.58.58 0 00-.18.034.391.391 0 00-.121.107l.083.039-.189.15-.252.106-.107.083-.286.068c-.025.003-.113.05-.262.141l-.17.097-.067-.019-.218.077-.407.102-.257.087-.238-.019-.14.073-.141-.01-.098.039-.131-.02a.758.758 0 00-.285.059l-.407.169-.103.039-.019.087.043.558-.043.102.072.485v.097c-.101.01-.15.047-.15.111v.02l.121.267.039.625.02.237c0 .085-.034.138-.102.16l-.155.049-.15.141-.121.01-.227.118a.174.174 0 01-.049.02c-.074 0-.111-.044-.111-.131 0-.032.003-.056.01-.068l.102-.179-.029-.286.096-.786-.067-.359.087-.494-.02-.179.083-.3v-.146h-.073l-.01-.102.02-.087.063-.141-.01-.078.01-.121-.073-.097-.028-.548.019-.131.01-.218.044-.146-.072-.179v-.01l.019-.33-.01-.077.083-.049-.02-.271h-.123a1.18 1.18 0 01-.029-.228c0-.058.01-.16.029-.305.003 0 .007-.003.01-.01a.065.065 0 00-.015-.046c-.01-.011-.021-.017-.034-.017l-.15-.049-.077-.068-.092-.009.01-.18.082-.029.388-.15.257-.102.97.053.208-.039a1.03 1.03 0 01.262-.024h.18l.314.034.219.01.082-.01.175-.01.033.01.078.087h.436l.248.097.121-.058.305.058.093.092c.061.062.109.097.146.106l.368.024.329.184.18.102a.269.269 0 00-.029.068c0 .042.035.089.106.141l.01.131.066.201zm-.723.097l-.077-.15-.034-.116-.344-.349c-.046-.061-.077-.099-.095-.114s-.046-.03-.085-.046l-.058.048c-.442-.178-.798-.267-1.065-.267h-.466l-.407-.068-.276.097-.625-.02a.344.344 0 00-.206.104.301.301 0 00-.07.206l-.015.369-.01.097-.087.058c.052.036.09.07.114.104a.193.193 0 01.036.114.168.168 0 01-.02.073l-.062.228.062.199v.248l.049.577-.02.078h-.048c-.067 0-.102.034-.102.102 0 .048.017.078.049.087l.149-.01h.437l.121-.02.078.106.141-.029.353-.097.669-.072.388-.117.334-.111c.139-.042.222-.084.247-.126l.102-.141.188-.131.02-.078.131-.078.049-.072.334-.315.063-.199.058-.169zM15.704 25.7l-.106.073-.121.087-.18.049-.344.121c-.097.025-.2.038-.311.038h-.169c-.106-.158-.17-.24-.189-.247l-.247-.149-.116-.098-.063-.072a3.022 3.022 0 01-.126-.16l-.043-.276-.185-.067-.16-.237-.188-.073-.111-.155-.078-.023-.067-.078-.16-.131-.092-.106-.136-.077-.17-.199-.102-.102a.308.308 0 00.024-.106c0-.074-.028-.118-.083-.131l-.237-.048-.067-.083-.281-.208-.136-.208-.17-.087-.141-.131-.126-.049-.311-.237-.097-.029-.034.126-.048.121-.01.228c.045.026.067.058.067.097 0 .036-.003.06-.01.073l-.038.116-.02.281-.02.218.02.136-.039.121.068.122-.01.096-.029.258.01.16.102.784v.029a.197.197 0 01-.062.15l-.097.083-.082.073h-.165a.209.209 0 00-.15.067l-.258.209c-.013.013-.043.019-.092.019-.064 0-.097-.019-.097-.058 0-.022.038-.12.116-.291a.5.5 0 00.053-.247l.01-.329.059-.165-.029-.358.049-.088.077.01c.042 0 .071-.014.088-.041a.353.353 0 00.023-.158L10 24.28c-.074-.055-.111-.117-.111-.189l.028-.188-.048-.058-.01-.16.01-.218.039-.374-.039-.47.029-.228-.058-.126c.01-.045.069-.085.18-.121v-.179c-.046-.059-.089-.087-.131-.087l-.01-.218-.02-.378.029-.189a.98.98 0 01-.085-.199.967.967 0 01-.021-.237v-.22l-.034-.029.034-.358a.481.481 0 00-.093-.276l-.188-.111.02-.131.102-.029.067-.029c.207-.084.412-.131.616-.141l.349-.02.15-.02c.064.062.112.092.146.092h.01l.489-.092.106.063.021.002.018.007.121-.01.339.01h.684l.514.087.33.02.266.14.301.087c.11.032.193.095.25.187a.619.619 0 01.085.332c0 .116-.029.255-.088.417l-.169-.029c.01.081.038.136.087.165l-.049.111-.106.106-.062.083c-.014.013-.065.02-.155.02a.12.12 0 00-.02.068l.039.083-.063.077-.106.059-.218.252-.16.058-.16.106-.097.01a.288.288 0 01-.141.179l-.116.049-.15.053h-.121l-.237.078-.068.009h-.039l-.14.112c-.029-.02-.056-.029-.078-.029s-.044.006-.062.02a.08.08 0 00-.01.039c0 .029.023.065.072.107l-.034.082c-.064.055-.097.097-.097.126 0 .003.007.021.02.054h.102a.23.23 0 01.146-.073l.102.111-.048.039c.01.101.042.15.097.15l.097-.01.102.126.276.311.189.169.208.247-.029.126.209.112c.025.061.046.099.061.114s.063.053.147.113l.219.238.149.17.078.087v.063a.24.24 0 00.049.154l.198.063.092.067.17.16.494.306.102.102c.014 0 .022.001.027.002a.025.025 0 01.012.008l.306-.049h.01c.038 0 .102.036.182.107zm-2.142-5.307c0-.142-.041-.243-.121-.301l-.155-.121-.17-.126-.16-.01-.228-.083-.049-.009h-.082l-.059-.136-.131-.02-.067.116-.684-.058-.062.048-.078-.01-.674.078h-.102l-.077.092c-.068 0-.115.026-.141.08-.026.053-.039.166-.039.337l.01.315.01.208v.131c-.094.074-.141.137-.141.189 0 .077.06.131.18.16l.038.107-.019.16v.141l-.039.228c.01.078.079.144.208.199l-.01.039.437-.01.063.058.087-.02.16-.019.314-.121.111.043.107-.053.436-.155.16-.111.33-.141.237-.393.267-.291.02-.16.092-.247.021-.134zM22.606 25.322l-.063.209-.106-.01c-.039 0-.066.01-.083.028l-.097.209-.131.092-.039.049-.179-.02-.209.102h-.009l-.238-.072-.028-.01-.548.02-.155-.02-.054-.078a3.835 3.835 0 01-.334.059l-.18-.01-.121.02-.039-.097h-.058l-.049.01-.169.087-.955.01-.141.067c-.106-.071-.189-.106-.247-.106l-.049.01-.247.067-.281-.058-.853.029c-.029 0-.15-.039-.363-.116l.048-.112.116-.275.02-.262.054-.238v-.363l.028-.141-.019-1.124.019-.286-.009-.106-.029-.112.198-.01a.854.854 0 00-.092-.165.772.772 0 00-.136-.121l-.024-.083.024-.358-.044-.616.044-.237.02-.097-.102-.029-.039-.102-.02-.315-.058-.102-.01-.048.01-.121.038-.058.267.068-.077-.068c-.049-.036-.073-.068-.073-.097 0-.016.007-.043.02-.082l-.077-.029-.097.029a2.653 2.653 0 00-.032-.315c-.011-.051-.031-.082-.061-.092l-.188-.078.048-.102a.434.434 0 01.16-.087l.092-.029c.158-.074.28-.111.364-.111h.01c.003 0 .008.003.014.01l.713.121.329.029.185.058a.88.88 0 01.242-.068c.02 0 .032.003.039.01l.731.077.645-.039.252.073.146-.034v-.058c.224-.022.387-.051.49-.087a1.22 1.22 0 01.257-.083l.097.02c-.017.074-.036.126-.061.157s-.077.065-.157.104a.294.294 0 01-.034.121.504.504 0 01-.141.097 1.045 1.045 0 01-.417.117h-.053l-.258-.02-.218.029-.445-.048-.103-.01a.491.491 0 00-.267-.087c-.067.077-.193.116-.378.116l-.146-.01-.023-.087-.098.029-.141.058-.664-.058-.106.16.039.039v.039l.02.257-.039.378.02.14.01.107.097.029.664.063c.045 0 .111.033.199.097l.149-.029a.687.687 0 01.199-.048h.01l.519.029.306.009h.275a.63.63 0 00.148-.014.574.574 0 00.133-.053l.368.067.088-.019.208-.048.378-.01.397-.054a.403.403 0 01.136.073l.102-.063a.302.302 0 01.18-.077l.106.009.111-.009v.15l-.131.087-.295.257a.166.166 0 01-.103.043h-.018l-.325-.043-.417.015-.228-.053-.814.053-.15-.015c-.035-.064-.075-.097-.121-.097a.129.129 0 00-.058.01l-.219.087-.635-.068-.31.111-.219-.063-.179.112-.533-.039-.039.068.02.257-.083.262.044.078.068.087-.068.208a.886.886 0 01.087.199l-.019.16.038.446v.01c0 .042-.035.108-.106.199.084.106.126.194.126.262 0 .02-.006.042-.02.068l-.131.276.141.247.059.926.15.029.654.228.218-.029c.052 0 .124.026.218.078.065-.059.112-.088.141-.088h.02l.446.088.271-.029.237.048.576-.038.165.029.281.009.097.034-.028-.072.111-.02.455-.01.097-.039.567-.102.111-.026a.674.674 0 01.106-.022.326.326 0 01.124.026zM30.714 25.414c0 .107-.053.222-.159.345-.088.094-.157.141-.209.141a.397.397 0 01-.067-.02l-.088.058c-.07.056-.127.083-.169.083l-.078-.01.01-.121.039-.276-.01-.199.087-.586-.048-.257-.029-.567-.029-.199.01-.485-.021-.321.02-.189-.073-.625.062-.126-.082-.034v-.116l-.068-.291.01-.276-.048-.116-.122.029-.038.059.02.14-.257.388-.01.106-.083.078-.048.131-.068.102-.029.174-.131.291-.019.106a.881.881 0 00-.219.238l-.16.358-.436.747-.311.577-.077.115-.286.268c-.036.028-.054.057-.054.082a.065.065 0 01.015.02.78.78 0 01.029.15l-.01.048c-.062.01-.105.028-.133.056a.358.358 0 00-.075.134 1.49 1.49 0 01-.104.235.28.28 0 01-.106.099.867.867 0 01-.196.063c-.084-.094-.133-.155-.146-.185s-.024-.077-.034-.146l-.039-.038c0-.068-.04-.121-.121-.16l-.038.039-.073-.126-.116-.32-.102-.136-.106-.3-.121-.18a.46.46 0 00.062-.219c0-.051-.012-.087-.034-.106l-.154-.131-.606-1.202-.15-.315h.01l.029-.131-.077-.16-.029-.146-.102.048-.059-.102a3.118 3.118 0 01-.189-.354 4.023 4.023 0 01-.097-.291c-.084 0-.137-.026-.16-.078l-.072.16h-.077l-.02.039a.36.36 0 01.067.199l-.029.368a1.546 1.546 0 01-.012.138.211.211 0 01-.024.078 1.728 1.728 0 01-.07.1l.116.237-.019.121-.01.344-.029.208.029 1.047-.059.155a.648.648 0 01.068.281v.096c-.085.01-.14.031-.165.063-.026.032-.044.098-.054.194l.18.062.01.106v.112c0 .097-.014.156-.039.179l-.368.247-.18.146-.067.015-.102-.015-.01-.058-.02-.088.092-.228v-.47l.077-.582-.009-.311-.01-.105.019-.151-.009-.121a.23.23 0 00.087-.16l.053-.029a.307.307 0 00-.033-.117l-.059-.121a.384.384 0 00-.002-.039.245.245 0 00-.008-.029c0-.048.027-.102.083-.16a.497.497 0 01-.083-.247v-.029l.029-.596-.029-.519.01-.106.16.048c.032-.042.049-.078.049-.106v-.034l-.219-.02-.02-.237.16-.01.02-.097c0-.058-.047-.105-.141-.141l-.049-.267h.049l.01-.063-.077-.475.01-.228-.088-.189c0-.064.059-.124.175-.179l.092.02.059-.126.102-.044.218-.165c.049-.036.091-.053.126-.053l.103.024a.284.284 0 00.031.133.29.29 0 00.113.085c.007.042.017.08.029.114a.799.799 0 00.065.124l.129.208-.044.107-.049.16.02.058.15.073.116.364-.097.15.059.029.038.102c.098.007.178.066.242.18l.155.344.18.509c-.084.074-.126.134-.126.179l.048.116.107.01c.055.006.09.018.106.034a.322.322 0 01.053.107l-.087.141c.035.045.068.068.097.068h.06l.062.087c.126.236.189.378.189.427l-.039.15-.033.112.092.048.097.02.111.15.189.199.048.19.107.096.131.32.111.116.155.311.082.067.116-.111.349-.393.18-.311.16-.295.237-.407.446-1.042.179-.271.049-.306.247-.557.039-.15.062-.019.059-.049v-.039l.077-.039-.01-.083-.087-.039c.025-.136.058-.215.097-.237l.092-.039.088-.073a2.125 2.125 0 00-.146-.218c.052-.071.077-.129.077-.174a.109.109 0 00-.01-.053l.088-.097.15-.228.285-.237c.123-.106.197-.16.224-.16l.116.029-.029.33.039.039.092-.009c.091 0 .136.026.136.077l-.01.189-.039.16-.058-.02-.02.087.067.179.02 1.033v.048a.223.223 0 01-.038.131l-.131.179c-.014.013-.02.052-.02.116a.192.192 0 00.077.075.327.327 0 00.121.017l.01.179-.02.8.078.349.043.605.039.407a.647.647 0 01-.039.199.387.387 0 01.078.131c.01.035.02.127.028.275l.02.379v.015zM33.103 19.496l-.02.15-.029.16-.097.165.068.509c0 .068-.037.178-.111.33v.087l.072.029-.01.15.02.397a.498.498 0 01-.02.163.408.408 0 01-.092.124l.072.111-.01.146v.131l-.102.169.049.126a.527.527 0 01.043.141l-.023.267v.291l-.068.228v.039c0 .048.025.089.077.121v.179l.015.106.01.208v.077l-.092.271.092.049-.033.078.043.271-.02.455.029.188.01.127c-.294.265-.496.396-.605.396l-.059-.009-.015.053-.174.039-.083-.121a.608.608 0 00.092-.267v-.111l.127-.427v-.312l.218-.039.01-.044a.291.291 0 00-.049-.126l-.116.01-.024-.02-.029.029.02-.16.01-.219.034-.358-.01-.189.087-.136a.42.42 0 01-.104-.128c-.012-.031-.018-.088-.018-.172s.024-.173.073-.267l-.073-.077v-.141l.01-.465a.142.142 0 00-.01-.063l-.02-.097-.009-.102a.182.182 0 00.062-.136l-.092-.102.038-.077-.038-.359.058-.179v-.02c0-.052-.032-.108-.097-.169l-.01-.097-.029-.426.029-.179-.067-.102.01-.155v-.281c.035-.058.084-.087.145-.087l.253-.02c.038-.006.09-.069.154-.189l.17-.048.16-.063c-.007 0 .016.006.067.02a.56.56 0 01.031.149zM41.048 19.569l-.01.296-.098.358.01.18-.019.135.058.228v.01c0 .058-.037.148-.111.271l-.068.126-.106.029.068.102c.074.1.122.169.146.206a.212.212 0 01.033.109l-.048.291v.16l-.063.02.039.048-.039.16v.019l.093.586-.029.117c-.081.035-.121.079-.121.131 0 .051.043.111.131.179l.01.417-.044.117a.658.658 0 01-.02.073c0 .035.021.09.063.164a.493.493 0 01.048.199.364.364 0 01-.067.189c.064.07.104.117.116.141l-.01.388.02.484v.062a.677.677 0 00-.199.07 3.736 3.736 0 00-.305.226l-.044.068-.087-.01-.189.149a.484.484 0 01-.049-.198c0-.113.026-.198.078-.257h.072c-.003-.052-.013-.087-.028-.106-.017-.02-.054-.037-.112-.054l.01-.484.039-.034-.029-.228a.14.14 0 00-.077-.029.09.09 0 00-.022.003l-.031.007-.048.054h-.078c-.042 0-.072.01-.092.029l-.116.077-.199.087-.727.499-.237.088-.315.169-.427.15-.329.097a.738.738 0 01-.296.093h-.18l-.3.097-.267.01-.17.02-.15-.02-.354-.068-.218-.102-.16-.048-.199-.189-.077-.087-.16.02-.102-.078-.049-.102-.179-.141c-.032-.049-.049-.15-.049-.306v-.077l-.15-.082-.058-.17-.068-.296-.053-.111.14-.247a.794.794 0 01-.177-.196.43.43 0 01-.051-.211c0-.078.013-.144.039-.199l.121-.286.01-.388.077-.078a.83.83 0 00.131.02c.046 0 .068-.021.068-.063s-.032-.078-.097-.106v-.199l-.103-.029.121-.596.049-.111.049-.087.111-.339.077-.117.039-.111.121-.116a.694.694 0 01-.02-.16c0-.116.073-.278.218-.484l-.092-.063-.106.063a1.647 1.647 0 01-.039-.189c0-.052.027-.098.08-.138a.298.298 0 01.187-.061l.121.009.039-.092.126-.02.479-.228.136-.058c.068.081.103.15.103.208 0 .036-.014.062-.039.078l-.102.083-.209.305-.067.049-.01.15-.131.199-.18.247-.106.17-.121.475-.116.368-.026.284-.136.388-.01.179-.082.368.043.238-.053.179.17.548.009.106c-.038.003-.07.023-.097.061a.224.224 0 00-.038.128c0 .062.055.102.164.121l.054.117.087.228.228.32.039.106.102.043.18.146.456.141.295.078.18.062c.084.097.146.146.188.146.036 0 .083-.059.141-.175l.562-.033.102.092.106-.049.35-.131.131-.102.368-.165.247-.208.116-.02.33-.208.228-.063.039-.058-.088-.059.107-.072.159-.127.301-.479.146-.116c.025-.036.039-.102.039-.199v-.349l.01-.358a.33.33 0 00.092-.1.416.416 0 00.02-.157l-.17-.126-.049-1.086.059-.097a.32.32 0 01-.049-.141c0-.055.017-.125.049-.208l-.049-.039-.01-.121-.038-.417c0-.039.025-.102.077-.189l-.218-.228.058-.155h.093c.1-.104.182-.167.247-.189l.111-.039.097-.063.131.02a.729.729 0 01.121-.17c.026-.019.078-.029.155-.029l.049.131v.112zM49.621 25.414c0 .107-.053.222-.159.345-.088.094-.157.141-.209.141a.397.397 0 01-.067-.02l-.088.058c-.07.056-.127.083-.169.083l-.078-.01.01-.121.039-.276-.01-.199.087-.586-.048-.257-.029-.567-.029-.199.01-.485L48.86 23l.02-.189-.072-.625.062-.126-.082-.034v-.116l-.068-.291.01-.276-.048-.116-.122.029-.038.059.02.14-.257.388-.01.106-.083.078-.048.131-.068.102-.029.174-.131.291-.019.106a.881.881 0 00-.219.238l-.16.358-.436.747-.311.577-.077.115-.286.268c-.036.028-.054.057-.054.082a.065.065 0 01.015.02.78.78 0 01.029.15l-.01.048c-.062.01-.105.028-.133.056a.358.358 0 00-.075.134 1.49 1.49 0 01-.104.235.28.28 0 01-.106.099c-.044.021-.11.042-.197.062-.084-.094-.133-.155-.146-.185s-.024-.077-.034-.146l-.039-.038c0-.068-.04-.121-.121-.16l-.038.039-.073-.126-.116-.32-.102-.136-.106-.3-.121-.18a.46.46 0 00.062-.219c0-.051-.012-.087-.034-.106l-.154-.131-.606-1.202-.15-.315h.01l.029-.131-.077-.16-.029-.146-.102.048-.059-.102a3.118 3.118 0 01-.189-.354 4.023 4.023 0 01-.097-.291c-.084 0-.137-.026-.16-.078l-.072.16h-.077l-.02.039a.36.36 0 01.067.199l-.029.368a1.546 1.546 0 01-.012.138.211.211 0 01-.024.078 1.728 1.728 0 01-.07.1l.116.237-.019.121-.01.344-.029.208.029 1.047-.059.155a.648.648 0 01.068.281v.096c-.085.01-.14.031-.165.063-.026.032-.044.098-.054.194l.18.062.01.106v.112c0 .097-.014.156-.039.179l-.368.247-.18.146-.067.015-.102-.015-.01-.058-.02-.088.092-.228v-.47l.077-.582-.009-.311-.01-.105.019-.151-.009-.121a.23.23 0 00.087-.16l.053-.029a.307.307 0 00-.033-.117l-.059-.121a.384.384 0 00-.002-.039.245.245 0 00-.008-.029c0-.048.027-.102.083-.16a.497.497 0 01-.083-.247v-.029l.029-.596-.029-.519.01-.106.16.048c.032-.042.049-.078.049-.106v-.034l-.219-.02-.02-.237.16-.01.02-.097c0-.058-.047-.105-.141-.141l-.049-.267h.049l.01-.063-.077-.475.01-.228-.088-.189c0-.064.059-.124.175-.179l.092.02.059-.126.102-.044.218-.165c.049-.036.091-.053.126-.053l.103.024a.284.284 0 00.031.133.29.29 0 00.113.085c.007.042.017.08.029.114a.799.799 0 00.065.124l.129.208-.044.107-.049.16.02.058.15.073.116.364-.097.15.059.029.038.102c.098.007.178.066.242.18l.155.344.18.509c-.084.074-.126.134-.126.179l.048.116.107.01c.055.006.09.018.106.034a.322.322 0 01.053.107l-.087.141c.035.045.068.068.097.068h.059l.062.087c.126.236.189.378.189.427l-.039.15-.033.112.092.048.097.02.111.15.189.199.048.19.107.096.131.32.111.116.155.311.082.067.116-.111.349-.393.18-.311.16-.295.237-.407.446-1.042.179-.271.049-.306.247-.557.039-.15.062-.019.059-.049v-.039l.077-.039-.01-.083-.087-.039c.025-.136.058-.215.097-.237l.092-.039.088-.073a2.125 2.125 0 00-.146-.218c.052-.071.077-.129.077-.174a.109.109 0 00-.01-.053l.088-.097.15-.228.285-.237c.123-.106.197-.16.224-.16l.116.029-.029.33.039.039.092-.009c.091 0 .136.026.136.077l-.01.189-.039.16-.058-.02-.02.087.067.179.02 1.033v.048a.223.223 0 01-.038.131l-.131.179c-.014.013-.02.052-.02.116a.192.192 0 00.077.075.327.327 0 00.121.017l.01.179-.02.8.078.349.043.605.039.407a.647.647 0 01-.039.199.387.387 0 01.078.131c.01.035.02.127.028.275l.02.379v.016zM61.936 25.909c0 .122-.066.233-.201.332a.979.979 0 01-.491.177l-.902.067-.455.068-.528-.068-.208.01a.89.89 0 01-.32-.077l-.456-.17-.198-.029-.199-.092-.295-.049L57.56 26l-.088-.063a.435.435 0 01-.198.073c-.039 0-.064-.007-.078-.02l-.082-.082-.106-.059c-.007 0-.013.003-.02.01l-.499.121-.446-.15h-.349l-.16-.082-.654-.106-.324-.102-.103-.02-.126-.126-.228-.093-.223-.237-.237-.077-.117-.15.02-.121c0-.046-.01-.077-.028-.097l-.359-.189c-.062-.032-.124-.179-.188-.438a3.056 3.056 0 01-.098-.725l.039-.334.049-.179.01-.208.257-.645.02-.073c.048-.107.154-.268.319-.485.106-.146.183-.218.228-.218.039 0 .068.003.088.01a.352.352 0 00.123-.099.372.372 0 00.046-.158l.083-.068.208-.232.96-.606.111-.097.15-.039.892-.339.218-.019.098-.01.102.058a.83.83 0 01.196-.114.762.762 0 01.221-.022h.16l.295-.02.18-.01a.82.82 0 01.102-.005c.136 0 .278.016.427.046s.257.062.324.094l.238.131.557.218c.059.036.088.071.088.106l.033.141.049.087.077-.02c.049 0 .112.034.189.102l-.049.039.078.169.15.029.198.039.131.15.146.107.063.169.106.15a.289.289 0 01.048.131c0 .019-.003.032-.01.039l-.058.136c0 .01-.001.016-.003.02l-.007.014c0 .045.054.078.16.097l.058.102c.106.168.16.32.16.456 0 .049-.027.105-.082.17l.092.078.029.538-.021.107-.102.446-.078.063a.222.222 0 01-.02.106l-.048.078.058.15v.029c0 .059-.053.146-.159.263l-.098.125.049.111-.218.325a.19.19 0 00-.121-.048c-.029 0-.065.016-.107.048a.127.127 0 00-.01.054c0 .035.02.087.059.154-.175.262-.585.537-1.231.824l.121.102.354.049c.038 0 .092.05.16.15l.058.077.102.039.039-.049c.284.052.54.078.766.078.152 0 .281-.015.388-.044s.209-.076.306-.141c.184-.126.304-.188.358-.188.077.001.115.036.115.108zm-1.487-3.912l-.039-.126-.029-.111h-.15l-.029-.078-.028-.271-.141-.199-.126-.286-.199-.199-.19-.227-.16-.097-.058-.131-.043.029-.116-.078-.16-.131-.286-.058-.397-.228-.455-.092-.369-.078-.228.02h-.237l-.199.058-.242.029-.247.121-.136-.01-.615.295-.16.044-.267.228-.141.048-.247.248-.247.228-.189.218-.198.3-.121.078c-.042.022-.068.073-.078.15a1.069 1.069 0 01-.084.283c-.031.057-.075.085-.134.085a.407.407 0 01-.102-.01l-.15.126c0 .039.01.067.029.085.02.018.079.049.179.095l-.048.131.02.174-.02.359.039.198.009.17.073.121.049.116c-.059.058-.088.118-.088.18 0 .029.01.048.029.058l.218.073.16.189c-.022.035-.034.061-.034.076 0 .056.061.122.18.199l.062.141.209.126.165.141.519.209.218.188.276.097.247.093.242.019.209.078.087.039a2.88 2.88 0 01.429-.148c.153-.04.279-.061.376-.061.048 0 .104.027.169.083a.427.427 0 01.098-.049h.15l.097-.024.16.111.149.01.248.068.247-.088.169-.028.248-.229.102.049.16-.121.106-.155.31-.198.175-.219.092-.111.068.059.102-.18-.01-.116-.01-.112v-.019l.039-.116.02-.189.169-.358.039-.218.02-.131a.657.657 0 01-.087-.276l.019-.475v-.18c.075-.039.114-.076.114-.112zM68.867 19.569l-.01.296-.097.358.01.18-.02.135.059.228v.01c0 .058-.037.148-.111.271l-.068.126-.106.029.067.102c.075.1.123.169.146.206s.034.073.034.109l-.049.291v.16l-.062.02.039.048-.039.16v.019l.092.586-.029.117c-.08.035-.121.079-.121.131 0 .051.044.111.131.179l.01.417-.043.117-.02.073c0 .035.021.09.062.164a.495.495 0 01.049.199.358.358 0 01-.068.189.97.97 0 01.117.141l-.01.388.02.484v.062a.677.677 0 00-.199.07 3.874 3.874 0 00-.306.226l-.043.068-.088-.01-.188.149a.484.484 0 01-.049-.198c0-.113.026-.198.078-.257h.072c-.003-.052-.013-.087-.029-.106-.016-.02-.053-.037-.111-.054l.01-.484.039-.034-.029-.228a.14.14 0 00-.077-.029c-.007 0-.015.001-.022.003l-.031.007-.049.054h-.077c-.042 0-.073.01-.092.029l-.116.077-.199.087-.727.499-.238.088-.314.169-.427.15-.329.097a.738.738 0 01-.296.093h-.18l-.301.097-.266.01-.17.02-.15-.02-.354-.068-.219-.102-.159-.048-.199-.189-.077-.087-.16.02-.102-.078-.049-.102-.18-.141c-.032-.049-.048-.15-.048-.306v-.077l-.15-.082-.059-.17-.067-.296-.054-.111.141-.247a.794.794 0 01-.177-.196.42.42 0 01-.051-.211c0-.078.013-.144.039-.199l.121-.286.01-.388.077-.078a.83.83 0 00.131.02c.045 0 .068-.021.068-.063s-.033-.078-.098-.106v-.199l-.102-.029.121-.596.049-.111.048-.087.112-.339.077-.117.039-.111.121-.116a.643.643 0 01-.02-.16c0-.116.072-.278.218-.484l-.092-.063-.106.063a1.647 1.647 0 01-.039-.189c0-.052.026-.098.08-.138s.115-.061.187-.061l.121.009.039-.092.126-.02.479-.228.136-.058c.068.081.102.15.102.208 0 .036-.013.062-.038.078l-.103.083-.208.305-.067.049-.01.15-.131.199-.18.247-.106.17-.121.475-.116.368-.024.286-.136.388-.01.179-.082.368.043.238-.053.179.169.548.01.106a.128.128 0 00-.097.061.218.218 0 00-.039.128c0 .062.055.102.165.121l.054.117.087.228.228.32.039.106.102.043.18.146.455.141.296.078.18.062c.084.097.146.146.188.146.036 0 .083-.059.141-.175l.562-.033.102.092.106-.049.35-.131.131-.102.368-.165.247-.208.116-.02.329-.208.229-.063.038-.058-.087-.059.106-.072.16-.127.301-.479.146-.116c.025-.036.038-.102.038-.199v-.349l.01-.358a.336.336 0 00.093-.1.422.422 0 00.019-.157l-.169-.126-.049-1.086.059-.097a.32.32 0 01-.049-.141c0-.055.017-.125.049-.208l-.049-.039-.01-.121-.039-.417c0-.039.026-.102.078-.189l-.219-.228.059-.155h.092c.101-.104.183-.167.247-.189l.112-.039.097-.063.131.02a.699.699 0 01.121-.17c.025-.019.077-.029.155-.029l.048.131v.11zM76.815 25.613a.153.153 0 01-.019.059l-.189.159-.199.286h-.159l-.098.02-.009-.087-.059-.121.01-.098-.01-.092a.638.638 0 01-.082-.237h-.078l-.039-.106-.169-.33-.029-.17-.247-.426a.444.444 0 01-.044-.199l.008-.033a.449.449 0 00.002-.044.322.322 0 01-.136-.122c-.116-.193-.186-.352-.208-.474l-.17-.078c-.029.146-.086.218-.17.218h-.019l-.505-.092-.179.01-.131-.02-.693.092-.407-.02-.218.058-.17-.058-.131-.034c-.042.055-.077.09-.106.106s-.066.024-.111.024h-.029l-.427-.029-.16.039-.208.01c-.071.016-.15.126-.237.33l-.087.188-.054.02a3.39 3.39 0 01-.363.703l-.01.102-.073.107-.267.596c-.019.059-.092.102-.218.131l.01.077a.958.958 0 01-.16.01.528.528 0 01-.296-.106l.189-.329.136-.17.111-.18.068-.106.067-.092v-.039c.133-.02.199-.079.199-.179v-.117l.149-.18.209-.455.121-.17.136-.3.16-.306.188-.32.199-.189a.066.066 0 00.02-.048c0-.026-.017-.055-.049-.087a.988.988 0 00.126-.104.423.423 0 00.072-.114l-.058-.092.058-.097.078-.228c.01-.02.05-.06.121-.121l-.01-.049.218-.557.17-.456c.032-.084.104-.188.218-.31l-.038-.107.028-.131a.92.92 0 01.056-.194.17.17 0 01.093-.078c.043-.016.099-.03.167-.043l.029-.073-.049-.146a.315.315 0 01-.02-.082.1.1 0 01.059-.097l.329-.218.068-.15a.374.374 0 01.271-.141l.058.199h.059l-.02.053.067.146.141.179.18.33.097.267.121.218-.121.039a.12.12 0 00.044.092c.116.068.175.131.175.189l-.01.087.111.121.131.218.067.117.01.039-.038.092.019.097.068.092.141.116.17.339.087.15v.117c.126.11.188.194.188.252a.393.393 0 01-.019.068l.097.097.218.369c.02.029.035.054.046.075l.059.102c.028.047.046.08.056.099.055.084.086.139.095.165a.613.613 0 01.017.136c.113.055.17.118.17.189 0 .006-.005.013-.015.02l-.02.208c0-.006.007.018.02.068l.198.102.063.088.029.092c.013.049.065.098.159.146v.111l.165.17.16.267.082.097a.708.708 0 01.129.268zm-1.991-2.491l-.044-.039.02-.034-.02-.049h-.097c-.039-.045-.07-.168-.093-.369l-.01-.097-.184-.048-.232-.46h-.068l-.296-.582.039-.112-.029-.121-.228-.116-.349-.693c-.014-.036-.089-.11-.229-.223l-.058.043-.063.199-.038.01c-.039.136-.068.22-.088.252s-.06.078-.121.136c-.084.074-.131.15-.141.228l-.02.116-.218.48c-.022.058-.044.108-.062.15l-.039.083a.477.477 0 01-.087.111l-.039.102a.401.401 0 01-.063.119c-.016.015-.052.023-.106.027l-.01.111a.978.978 0 01-.08.363.576.576 0 01-.206.213l.088.136a.14.14 0 00-.088.034.236.236 0 00-.048.097l-.034.121.082.01.16.048.126-.02.111.039.02-.039.088-.009.625.039.397-.029.16.068a.197.197 0 01.051-.041.49.49 0 01.104-.015c.059-.005.149-.015.271-.031l.131-.02-.02.048.039.02c.029 0 .064-.026.106-.078l.131-.01.388-.036c.088-.008.141-.015.16-.02s.05-.018.09-.039.082-.044.121-.073zM82.841 25.341l-.059.092-.111.068-.097.102.049.106c-.081.088-.145.131-.189.131l-.198.02-.136.087-.111.034h-.01l-.257-.044-.669.029-.626-.058-.484.028c-.109 0-.188-.019-.237-.058l-.131-.068-.106-.019v.106a.857.857 0 01-.247.048c-.101 0-.229-.016-.388-.048l.019.038-.149-.019a.465.465 0 01-.068-.015.196.196 0 01-.072-.054l-.098.01.01.029-.131.029-.635.072-.106.02c-.081 0-.121-.031-.121-.092v-.088l.188-.072v-.065l.068-.048a.871.871 0 01.044-.25.436.436 0 01.126-.147l-.039-.141.02-.494-.02-.131.102-.155-.111-.083.068-.16.033-.145.059-.122-.073-.14.024-.107-.024-.083.015-.136-.024-.15.034-.369v-.218l.088-.189.028-.107-.116-.048-.034-.538a.164.164 0 00.112-.087l-.049-.252-.102-.019a3.317 3.317 0 01-.068-.722c0-.113.017-.217.049-.311l-.049-.106-.032-.28-.062-.116h-.059l-.077-.131.097-.087.121-.048.141-.121.276-.087.078-.053.102-.029.106.039h.062v.063l.029.029-.01.354.01.17c0 .058-.006.098-.02.119a.282.282 0 01-.072.07l-.029.102.029.029.072-.01v.058l-.033.029.062.199v.009l-.029.311.029.276v.102l-.039.383h-.072a.598.598 0 00-.049.16c0 .097.044.16.131.189l-.01.111.01.761c0 .22-.023.402-.072.548l-.039-.029c-.032.042-.048.075-.048.097l.019.083.107.029.023.16v.146l-.014.019-.02.479-.01.146c-.052.045-.078.082-.078.111 0 .021.026.055.078.097l.01.281-.029.285c0 .088.031.15.095.189.062.039.16.059.293.059.064 0 .171-.01.32-.029l.028.039.116.009.16.073.102.01c.046-.007.084-.041.117-.102l.605.033.378-.015.407-.048.067.01v.102a.895.895 0 00.229.059c.032 0 .082-.01.15-.029 0-.046.009-.078.026-.1a.358.358 0 01.104-.07l.077.01a.803.803 0 00.286-.077c.032.035.06.059.082.07a.176.176 0 00.078.017.422.422 0 01.368-.18l.232.026zM84.566 19.496l-.02.15-.029.16-.097.165.067.509c0 .068-.037.178-.111.33v.087l.073.029-.01.15.02.397a.498.498 0 01-.02.163.398.398 0 01-.093.124l.073.111-.01.146v.131l-.102.169.048.126a.505.505 0 01.044.141l-.024.267v.291l-.067.228v.039c0 .048.025.089.077.121v.179l.015.106.01.208v.077l-.092.271.092.049-.034.078.044.271-.02.455.029.188.01.127c-.294.265-.496.396-.606.396l-.058-.009-.015.053-.175.039-.082-.121a.608.608 0 00.092-.267v-.111l.126-.427v-.312l.219-.039.01-.044a.291.291 0 00-.049-.126l-.116.01-.024-.02-.029.029.02-.16.01-.219.034-.358-.01-.189.087-.136a.42.42 0 01-.104-.128c-.011-.031-.017-.088-.017-.172s.024-.173.072-.267l-.072-.077v-.141l.01-.465a.142.142 0 00-.01-.063l-.02-.097-.01-.102a.18.18 0 00.063-.136l-.093-.102.039-.077-.039-.359.059-.179v-.02c0-.052-.032-.108-.097-.169l-.01-.097-.029-.426.029-.179-.068-.102.01-.155v-.281c.036-.058.084-.087.146-.087l.252-.02c.039-.006.091-.069.155-.189l.17-.048.16-.063c-.007 0 .016.006.067.02.02.07.03.12.03.149zM92.063 19.588l-.088.068-.121.208-.388.15-.179.117a.265.265 0 01-.116.029h-.01l-.281-.048-.654-.02-.456-.048-.436.029-.17-.029-.068.01-.053.228.024.122.01.155v.043l-.054.228.01.174-.02.15.029.111c-.078.007-.127.02-.148.039-.021.019-.033.066-.036.141.106.016.165.045.175.087l-.02.349v.228c0 .097-.062.202-.189.315a.914.914 0 00.044.07c.013.018.033.031.061.041s.056.016.085.02l.029.058c-.042.026-.07.052-.085.078s-.025.069-.031.131l.116.131V23.398a.215.215 0 01-.068.15l.049.117-.02.131.039.179-.02.141.01.115.01.199c-.123.052-.185.125-.185.219 0 .076.059.146.175.207l.072.815-.072.058-.087.044-.257.218-.092.009h-.067l-.059.067c-.039-.025-.069-.038-.092-.038l-.059.02-.058-.131a.406.406 0 00.012-.047.157.157 0 01.008-.031l.038-.218-.038-.257.038-.378.029-.558.049-.417v-.111l.092-.116-.12-.445.049-.311-.029-.407-.02-.276-.01-.01c0-.052.03-.165.092-.339l-.033-.106c-.071-.178-.107-.301-.107-.369v-.009l.01-.141-.058-.248.01-.14-.064-.354-.02-.121.15-.296c.068-.039.102-.076.102-.111a.242.242 0 00-.01-.078l-.271-.053h-.088l-.102-.01-.218-.087-.437.039-.664-.068-.717.039-.117-.019c-.08.094-.153.141-.218.141h-.029l-.141-.02-.141-.024a.53.53 0 01.037-.206.452.452 0 01.113-.128l.359-.281c.1-.045.24-.068.421-.068h.131c.039.094.093.141.16.141.064 0 .141-.037.228-.112l.219.02.426.141.359-.02.281.068.562.029.237.131.112.009.01-.039.121.01c.203.016.33.029.38.039.051.01.102.037.153.083l.169.039.088-.063.159-.009.209-.087.358.01.237-.049a.831.831 0 00.247.049c.313 0 .616-.073.906-.218l.059.029.033.108zM98.277 19.409c-.01.165-.047.288-.111.368l-.209.286-.208.397-.16.106-.164.436-.073.073-.106.16-.121.078c-.046.045-.068.085-.068.121v.126l-.131.199-.126.237-.082.063-.199.383c-.025.058-.114.143-.267.252l-.102.068.073.15-.073.097-.174.228-.103.179-.077.068-.01.189a.678.678 0 01-.036.203.54.54 0 01-.124.146c.017.065.034.11.054.136s.055.053.106.082l-.029.484-.062-.019-.068.054.029.257.077.009.024.446-.102.029v.082c.094.068.141.131.141.189 0 .01-.01.038-.029.087h-.199l-.111.029c-.062.016-.146.04-.25.072a.972.972 0 01-.206.049c-.067 0-.131-.04-.189-.121l.02-.116.059-.359.034-.237v-.033l-.024-.363c0-.023.024-.07.072-.141l.029-.078-.029-.029-.121-.014.02-.117.082-.111.02-.106-.01-.189.01-.15h.078a.393.393 0 00-.018-.143.272.272 0 00-.08-.094l.059-.039-.049-.111-.237-.189-.218-.276a.479.479 0 00-.189-.058c0-.139-.021-.229-.062-.271l-.345-.315-.013-.278a.142.142 0 00-.046-.104.132.132 0 00-.095-.046c-.009 0-.05.007-.121.02a.34.34 0 00-.043-.179.535.535 0 00-.185-.126l-.067.029-.131-.15-.417-.437-.16-.218-.087-.102c.094-.01.141-.042.141-.097a.11.11 0 00-.042-.085.146.146 0 00-.099-.037c-.01 0-.051.007-.121.02-.204-.258-.306-.463-.306-.615 0-.059.015-.118.044-.18.028-.061.061-.1.097-.116l.296-.141.237-.126.062-.01.068.02.077-.01.054.058-.073.218.02.078v.082l.199.228.02.097-.01.169.159.131-.038.146a.372.372 0 00-.029.131c0 .022.02.057.059.102l.198-.034c.136 0 .225.037.267.111l.141.247.097.16.034.097-.073.053c.075.11.138.165.189.165.013-.003.024-.006.034-.007l.048-.002c.12.162.217.283.291.364.074.081.181.176.32.286l-.068.039c.039.1.099.173.18.218l.048-.048.281.276c.02.158.083.237.189.237a.244.244 0 00.126-.048l.121-.102.097-.087.301-.417.116-.131.257-.465.252-.339.078-.247.111-.208.067-.286.199-.301.029-.097.247.029c-.004-.071-.017-.118-.039-.14-.022-.023-.069-.039-.141-.049l.044-.097c.058-.142.109-.229.154-.262l.199-.126c.207-.136.355-.208.446-.218l.074.018z"/></g></svg>