<svg xmlns="http://www.w3.org/2000/svg" viewBox="0 0 70 70"><circle fill="#73A3C1" cx="35" cy="35" r="35"/><path fill="#FFF" d="M14.714 34.923l18.222 7.289c.47.187 1.073.281 1.677.281s1.208-.095 1.677-.281l18.222-7.289a.753.753 0 10-.559-1.398l-18.222 7.29c-.584.234-1.651.234-2.236 0l-18.221-7.29a.753.753 0 00-.56 1.398z"/><path fill="#FFF" d="M53.952 40.848L35.73 48.135c-.584.235-1.651.235-2.236 0l-18.221-7.287a.752.752 0 10-.559 1.397l18.222 7.288c.47.188 1.073.281 1.677.281s1.208-.094 1.677-.281l18.222-7.288a.753.753 0 10-.56-1.397z"/><path fill="#FFF" d="M53.952 48.168L35.73 55.456c-.584.233-1.649.233-2.236 0l-18.221-7.288a.752.752 0 00-.559 1.397l18.221 7.289c.47.188 1.074.282 1.678.282s1.208-.094 1.677-.282l18.222-7.289a.75.75 0 00.42-.977.755.755 0 00-.98-.42z"/><path fill="none" stroke="#FFF" stroke-width="1.5" stroke-miterlimit="10" d="M34.926 18.625l-19.114 7.874 19.114 7.626 19.262-7.75z"/></svg>