<svg xmlns="http://www.w3.org/2000/svg" viewBox="0 0 60.057 54.273"><path fill="#EF595A" d="M55.711 44.992a3.684 3.684 0 01-3.696 3.696H7.647a3.685 3.685 0 01-3.697-3.696V8.019a3.685 3.685 0 013.697-3.697h44.367a3.684 3.684 0 013.696 3.697l.001 36.973zm-3.697-29.578V8.019H28.098l-1.85 3.697H7.647v3.697l44.367.001zm0 29.578v-3.697H7.647v3.697h44.367zM22.436 9.868V6.171H11.345v3.697h11.091zm7.394 7.452c-6.124 0-11.092 4.968-11.092 11.092s4.968 11.092 11.092 11.092 11.092-4.968 11.092-11.092S35.954 17.32 29.83 17.32zm0 18.485c-4.073 0-7.395-3.32-7.395-7.395 0-4.073 3.321-7.395 7.395-7.395s7.396 3.322 7.396 7.395c-.001 4.075-3.322 7.395-7.396 7.395zm0-12.072a4.636 4.636 0 00-4.622 4.622c0 .521.404.924.924.924a.911.911 0 00.925-.924 2.773 2.773 0 012.772-2.772.912.912 0 00.925-.924.912.912 0 00-.924-.926z" opacity=".6"/></svg>