<svg xmlns="http://www.w3.org/2000/svg" viewBox="0 0 30.719 32"><path fill="#FFF" d="M19.537 16.758c0 .176-.136.38-.312.406l-2.104.326a6.09 6.09 0 01-.434 1.031c.38.542.787 1.044 1.221 1.56a.463.463 0 01.095.271.356.356 0 01-.095.258c-.271.366-1.79 2.021-2.184 2.021a.51.51 0 01-.285-.095l-1.56-1.221a5.787 5.787 0 01-1.044.421c-.068.691-.136 1.438-.312 2.103a.432.432 0 01-.407.325H9.594c-.19 0-.38-.149-.407-.339l-.312-2.076a6.623 6.623 0 01-1.018-.42l-1.601 1.207a.39.39 0 01-.271.095.435.435 0 01-.285-.108c-.353-.325-1.953-1.776-1.953-2.17 0-.095.041-.177.095-.258.394-.516.8-1.018 1.194-1.547a7.176 7.176 0 01-.475-1.112L2.5 17.11a.394.394 0 01-.326-.394v-2.51c0-.177.136-.38.312-.407l2.103-.325c.108-.353.258-.691.434-1.031a22.353 22.353 0 00-1.221-1.56.51.51 0 01-.095-.271c0-.094.027-.189.095-.271.271-.366 1.791-2.008 2.184-2.008a.51.51 0 01.285.096l1.56 1.221a6.984 6.984 0 011.044-.435c.068-.678.136-1.424.312-2.089a.432.432 0 01.407-.325h2.523c.19 0 .38.149.407.339l.312 2.075c.353.108.692.258 1.018.421l1.601-1.207a.415.415 0 01.271-.096c.109 0 .204.041.285.109.354.325 1.954 1.79 1.954 2.17a.458.458 0 01-.096.258c-.393.529-.8 1.018-1.18 1.546.177.367.339.733.461 1.113l2.062.312a.42.42 0 01.325.407v2.51zm-8.681-4.748c-1.913 0-3.473 1.56-3.473 3.473s1.56 3.473 3.473 3.473 3.473-1.56 3.473-3.473-1.561-3.473-3.473-3.473zm17.363-2.524c0 .203-1.75.394-2.021.421a3.293 3.293 0 01-.406.705c.122.271.691 1.628.691 1.872 0 .041-.014.067-.055.095-.162.095-1.614.963-1.682.963-.177 0-1.193-1.356-1.329-1.56-.136.014-.271.027-.407.027s-.271-.014-.407-.027c-.136.203-1.152 1.56-1.329 1.56-.067 0-1.52-.868-1.682-.963a.117.117 0 01-.055-.095c0-.23.569-1.601.691-1.872a3.293 3.293 0 01-.406-.705c-.271-.027-2.021-.218-2.021-.421V7.587c0-.203 1.75-.393 2.021-.42a3.71 3.71 0 01.406-.706c-.121-.271-.691-1.641-.691-1.871a.12.12 0 01.055-.096c.162-.081 1.614-.949 1.682-.949.177 0 1.193 1.343 1.329 1.547.136-.014.271-.027.407-.027s.271.014.407.027c.38-.529.786-1.059 1.248-1.52l.081-.027c.067 0 1.52.854 1.682.949a.118.118 0 01.055.096c0 .244-.569 1.601-.691 1.871.162.218.298.462.406.706.271.027 2.021.217 2.021.42v1.899zm0 13.891c0 .204-1.75.394-2.021.421a3.293 3.293 0 01-.406.705c.122.271.691 1.628.691 1.872 0 .041-.014.068-.055.095-.162.096-1.614.964-1.682.964-.177 0-1.193-1.356-1.329-1.561-.136.014-.271.027-.407.027s-.271-.014-.407-.027c-.136.204-1.152 1.561-1.329 1.561-.067 0-1.52-.868-1.682-.964a.115.115 0 01-.055-.095c0-.23.569-1.601.691-1.872a3.293 3.293 0 01-.406-.705c-.271-.027-2.021-.217-2.021-.421v-1.898c0-.204 1.75-.394 2.021-.421.108-.244.244-.488.406-.705-.122-.271-.691-1.642-.691-1.872 0-.027.014-.068.055-.095.162-.082 1.614-.95 1.682-.95.177 0 1.193 1.343 1.329 1.547.136-.014.271-.027.407-.027s.271.014.407.027c.38-.529.786-1.059 1.248-1.52l.081-.027c.067 0 1.52.854 1.682.95a.115.115 0 01.055.095c0 .244-.569 1.601-.691 1.872.162.217.298.461.406.705.271.027 2.021.217 2.021.421v1.898zM23.01 6.801c-.949 0-1.736.786-1.736 1.736a1.74 1.74 0 001.736 1.736 1.74 1.74 0 001.736-1.736c0-.95-.787-1.736-1.736-1.736zm0 13.89c-.949 0-1.736.787-1.736 1.736a1.74 1.74 0 001.736 1.736c.963 0 1.736-.787 1.736-1.736s-.787-1.736-1.736-1.736z"/></svg>