<?xml version="1.0" encoding="utf-8"?>
<!-- Generator: Adobe Illustrator 16.0.0, SVG Export Plug-In . SVG Version: 6.00 Build 0)  -->
<!DOCTYPE svg PUBLIC "-//W3C//DTD SVG 1.1//EN" "http://www.w3.org/Graphics/SVG/1.1/DTD/svg11.dtd">
<svg version="1.1" id="Ebene_1" xmlns="http://www.w3.org/2000/svg" xmlns:xlink="http://www.w3.org/1999/xlink" x="0px" y="0px"
	 width="48.66px" height="49.791px" viewBox="0 0 48.66 49.791" enable-background="new 0 0 48.66 49.791" xml:space="preserve">
<path fill="#E94E1B" d="M34.601,5.042C31.352,1.793,27.033,0,22.438,0C12.954,0,5.234,7.719,5.234,17.204
	c0,2.629,0.641,5.221,1.905,7.703c0.031,0.098,0.07,0.194,0.122,0.283l13.484,23.883c0.243,0.435,0.702,0.708,1.204,0.718
	c0.009,0,0.015,0,0.021,0c0.493,0,0.948-0.259,1.204-0.681c2.346-3.879,14.07-23.256,14.353-23.814
	c0.055-0.078,0.102-0.16,0.135-0.249c1.312-2.524,1.979-5.165,1.979-7.843C39.642,12.612,37.852,8.291,34.601,5.042z"/>
</svg>
