<svg xmlns="http://www.w3.org/2000/svg" viewBox="0 0 294.031 92.465"><g opacity=".8"><path d="M30.915 64.783c-1.124-1.498-2.574-3.581-4.353-6.248-12.309-1.218-18.461-3.792-18.461-7.722 0-.889.456-1.613 1.368-2.176.913-.562 2.304-.843 4.177-.843 4.679 0 9.335 2.974 13.969 8.914 4.679.468 9.991.702 15.935.702h.772c5.989-3.603 11.558-7.23 16.706-10.88 2.105-3.837 3.932-7.007 5.476-9.511 1.544-2.503 3.416-5.113 5.616-7.828 4.352-5.521 8.938-8.283 13.758-8.283 1.264 0 1.896.562 1.896 1.685 0 2.715-2.247 6.272-6.739 10.67s-10.458 9.125-17.9 14.18c-2.246 4.305-3.93 7.439-5.054 9.405 6.552-.515 11.277-1.309 14.179-2.386h.211c.187 0 .281.129.281.385 0 .259-.165.62-.492 1.089-3.51 1.076-8.563 1.92-15.162 2.526-2.527 4.352-4.973 7.735-7.336 10.145-2.363 2.412-4.738 3.614-7.125 3.614-3.838 0-7.465-2.129-10.88-6.389-6.693 3.37-12.612 5.943-17.761 7.722-.702.234-1.508.352-2.421.352s-1.368-.352-1.368-1.051c0-.377.187-.716.562-1.02.374-.305.865-.455 1.474-.455 3.743-.001 9.967-2.199 18.672-6.597zM11.471 50.532c0 2.668 4.516 4.61 13.547 5.828-3.65-4.868-7.324-7.302-11.02-7.302-1.685 0-2.527.49-2.527 1.474zM32.95 63.799a269.147 269.147 0 008.354-4.632h-.281c-4.071 0-8.002-.142-11.792-.422 1.777 2.48 3.017 4.166 3.719 5.054zm11.372-4.632a295.235 295.235 0 01-10.529 5.685c3.134 3.885 5.989 5.827 8.563 5.827 1.918 0 3.826-1.029 5.721-3.089 1.895-2.059 3.989-5.029 6.283-8.916-2.855.235-6.201.399-10.038.493zm14.812-9.055c-2.527 1.685-6.458 4.117-11.793 7.299 3.603-.094 6.247-.211 7.932-.351.888-1.545 2.176-3.86 3.861-6.948zm24.779-27.518c-3.229 0-6.482 2.153-9.758 6.458-2.714 3.649-5.686 8.469-8.914 14.46 5.896-4.352 10.622-8.319 14.179-11.899 3.556-3.58 5.335-6.353 5.335-8.318-.001-.466-.281-.701-.842-.701zM84.824 60.009c.374-.233.667-.352.877-.352s.316.139.316.422v.21c.187 0-1.066 1.029-3.756 3.089a172.372 172.372 0 01-8.633 6.178c-3.066 2.06-4.997 3.087-5.792 3.087-1.358 0-2.037-.562-2.037-1.684 0-1.356 1.17-3.919 3.51-7.688 2.339-3.767 4.047-5.651 5.125-5.651.795 0 1.193.307 1.193.914 0 .609-1.078 2.271-3.229 4.984-2.153 2.713-3.229 4.656-3.229 5.825 0 .656.245.983.736.983.492 0 1.721-.655 3.686-1.966 3.51-2.339 6.739-4.702 9.688-7.09l1.545-1.261zm-5.791-9.477c.444 0 .795.141 1.053.422.257.28.386.678.386 1.192 0 .516-.351 1.171-1.052 1.966-.702.797-1.311 1.194-1.825 1.194-.516 0-.89-.153-1.124-.457a1.673 1.673 0 01-.351-1.053c0-.396.374-1.041 1.122-1.931.749-.889 1.345-1.333 1.791-1.333z"/><path d="M85.033 59.517l-.141-.772c0-.233.492-.352 1.475-.352.561 0 .841.352.841 1.052 0 .704-.808 2.258-2.421 4.67-1.614 2.411-2.421 3.661-2.421 3.756 0 .093.093.139.281.139.187 0 2.352-1.638 6.494-4.914 4.141-3.275 6.633-4.913 7.476-4.913.841 0 1.263.293 1.263.877 0 .586-.234 1.241-.702 1.967s-1.45 2.035-2.948 3.93c-1.499 1.895-2.294 2.914-2.387 3.054a.866.866 0 00-.14.492c0 .188.151.28.456.28.304 0 2.608-1.591 6.915-4.773 4.304-3.183 6.762-4.774 7.37-4.774s.913.258.913.772c0 .937-1.029 2.575-3.088 4.916-2.06 2.342-3.089 3.824-3.089 4.457 0 .632.246.948.737.948.492 0 1.72-.655 3.686-1.966 3.509-2.339 6.738-4.703 9.687-7.091l1.544-1.263c.374-.233.689-.353.947-.353.257 0 .386.141.386.423v.209c-9.875 8.239-15.981 12.355-18.32 12.355-1.358 0-2.036-.562-2.036-1.684 0-.937.677-2.318 2.036-4.144 1.357-1.825 2.036-2.819 2.036-2.983 0-.163-.06-.244-.177-.244-.118 0-2.036 1.334-5.755 4.002-3.722 2.667-5.931 4.001-6.634 4.001-.328 0-.608-.129-.841-.387-.236-.257-.352-.525-.352-.807 0-.846 1.006-2.553 3.018-5.127 2.012-2.525 3.019-3.906 3.019-4.14 0-.234-.139-.352-.422-.352-.328 0-3.649 2.574-9.967 7.723l-3.51 2.809c-.609.513-1.065.771-1.369.771-.305 0-.597-.081-.877-.245a.798.798 0 01-.421-.738c0-.326.409-1.121 1.228-2.386.818-1.264 1.883-2.807 3.194-4.632 2.009-2.714 3.016-4.235 3.016-4.563z"/><path d="M122.166 65.695c2.621 0 5.756-1.475 9.406-4.423l1.193.353c-4.587 3.837-8.541 5.754-11.863 5.754-.375 0-.656-.022-.843-.07-1.263 1.544-2.644 2.799-4.141 3.756-1.499.959-2.808 1.439-3.931 1.439-1.78 0-2.667-.994-2.667-2.984 0-1.987 1.66-4.644 4.983-7.967a11.1 11.1 0 01-.842-4.281c0-1.498.537-2.714 1.614-3.65a5.544 5.544 0 013.755-1.405c1.427 0 2.633.469 3.615 1.405.983.937 1.473 2.27 1.473 4 0 2.667-.867 5.335-2.596 8.004.188.045.469.069.844.069zm-9.967 3.439c0 .937.607 1.403 1.825 1.403 1.217 0 2.761-1.239 4.634-3.721-1.264-.653-2.387-1.8-3.37-3.438-2.061 2.247-3.089 4.165-3.089 5.756zm7.72-4.141c1.45-2.432 2.176-4.505 2.176-6.213s-.421-2.972-1.264-3.79c-.842-.817-1.663-1.229-2.458-1.229-1.638 0-2.457.843-2.457 2.526 0 1.685.374 3.358 1.124 5.019.75 1.663 1.709 2.892 2.879 3.687z"/><path d="M161.475 60.288c-9.874 8.239-15.981 12.355-18.32 12.355-1.358 0-2.036-.562-2.036-1.684 0-1.124.502-2.457 1.509-4a41.073 41.073 0 013.019-4.109c1.006-1.192 1.509-1.907 1.509-2.141 0-.234-.069-.35-.209-.35-4.353 2.901-6.938 4.68-7.756 5.335-.819.656-2.153 1.731-4.001 3.229-1.85 1.499-3.053 2.435-3.616 2.807a3.208 3.208 0 01-1.825.562c-.656 0-.983-.28-.983-.842 0-.653 1.309-2.713 3.931-6.176 2.527-3.462 3.791-5.407 3.791-5.829 0-.092-.082-.139-.246-.139-.165 0-2.189 1.43-6.072 4.282l-.281-1.053c3.323-2.669 5.569-4.376 6.739-5.125 1.169-.746 2.117-1.123 2.843-1.123.724 0 1.088.351 1.088 1.053 0 .469-1.322 2.375-3.966 5.721-2.644 3.348-3.965 5.15-3.965 5.407 0 .254.081.384.245.384.163 0 2.831-1.885 8.003-5.651 5.17-3.767 8.318-5.649 9.442-5.649.326 0 .643.13.947.385.304.258.456.505.456.738 0 .562-1.241 2.422-3.72 5.58-2.481 3.157-3.72 4.949-3.72 5.371s.292.632.877.632c.584 0 1.836-.632 3.755-1.896 3.509-2.294 6.739-4.655 9.688-7.091l1.545-1.263c.327-.233.632-.353.912-.353.281 0 .421.141.421.423v.209h-.004zM185.061 30.036l-15.585-.773c-.094 0-.305.14-.632.421-.328.281-.609.421-.842.421-.234 0-.398-.023-.492-.07-2.761-.982-4.144-2.176-4.144-3.581 0-.701.399-1.052 1.195-1.052.468 0 3.498.363 9.09 1.088 5.592.725 11.617 1.088 18.075 1.088s12.659-.351 18.603-1.052c6.316-5.476 12.588-8.214 18.812-8.214 2.572 0 3.86.61 3.86 1.826 0 3.183-7.206 5.826-21.618 7.933-4.775 4.773-10.556 12.564-17.341 23.374a541.07 541.07 0 01-7.511 11.513c-5.475 8.141-9.945 12.213-13.407 12.213-1.263 0-1.895-.551-1.895-1.646 0-1.101.466-2.375 1.403-3.826.889-1.405 1.59-2.105 2.106-2.105h.069c.608 0 .913.349.913 1.05l-.281 1.335c0 .233.094.351.281.351 2.479 0 6.692-5.054 12.634-15.164 2.388-4.07 5.429-8.702 9.127-13.897 3.696-5.194 7.274-9.452 10.739-12.775-8.092 1.027-15.815 1.542-23.159 1.542zm42.397-10.39c-4.494 0-9.15 2.153-13.97 6.458 3.462-.514 6.445-1.146 8.95-1.895 2.504-.748 4.268-1.45 5.3-2.107 1.027-.654 1.544-1.228 1.544-1.72 0-.491-.608-.736-1.824-.736zM209.205 63.307c-.28 0-.421-.104-.421-.316 0-.211.164-.455.492-.735 1.545-1.263 2.317-2.41 2.317-3.439 0-.654-.585-1.029-1.756-1.124-2.105.048-4.622 1.568-7.546 4.563-2.926 2.996-4.387 5.24-4.387 6.738 0 .515.291.772.876.772s1.37-.397 2.352-1.194c.889-.562 2.552-1.964 4.985-4.211.561-.562 1.098-.842 1.614-.842.654 0 .981.304.981.912 0 .234-.069.421-.21.562-.14.139-.398.433-.773.877-.375.446-.701.855-.982 1.229-.843 1.217-1.264 2.013-1.264 2.386 0 .938.374 1.405 1.123 1.405.983 0 2.833-.901 5.546-2.702 2.715-1.803 5.196-3.616 7.441-5.44l3.368-2.667c.328-.234.632-.352.913-.352.28 0 .421.165.421.493v.139a126.343 126.343 0 01-11.405 8.563c-4.003 2.668-6.635 4-7.897 4-1.498 0-2.247-.795-2.247-2.386 0-.373.07-.725.211-1.054.14-.325.211-.561.211-.7 0-.142-.047-.234-.14-.281-.14 0-1.042.632-2.703 1.896-1.66 1.262-3.111 1.894-4.352 1.894s-1.86-.653-1.86-1.964c0-1.308.878-3.077 2.633-5.3 1.756-2.223 4.106-4.246 7.055-6.071 2.949-1.825 5.826-2.739 8.635-2.739.653 0 1.204.166 1.647.492.444.328.668.832.668 1.511s-.68 1.695-2.036 3.054c-1.359 1.352-2.528 2.031-3.51 2.031z"/><path d="M236.369 60.009c.376-.233.668-.352.878-.352.212 0 .315.139.315.422v.21c.188 0-1.064 1.029-3.753 3.089a172.913 172.913 0 01-8.635 6.178c-3.066 2.06-4.995 3.087-5.791 3.087-1.358 0-2.037-.562-2.037-1.684 0-1.356 1.17-3.919 3.51-7.688 2.34-3.767 4.047-5.651 5.124-5.651.796 0 1.193.307 1.193.914 0 .609-1.077 2.271-3.229 4.984-2.153 2.713-3.23 4.656-3.23 5.825 0 .656.247.983.738.983s1.72-.655 3.686-1.966c3.509-2.339 6.737-4.702 9.687-7.09l1.544-1.261zm-5.791-9.477c.445 0 .796.141 1.054.422.257.28.386.678.386 1.192 0 .516-.352 1.171-1.052 1.966-.703.797-1.312 1.194-1.826 1.194s-.89-.153-1.123-.457a1.673 1.673 0 01-.351-1.053c0-.396.373-1.041 1.123-1.931.748-.889 1.345-1.333 1.789-1.333z"/><path d="M253.146 60.08c.327-.234.632-.352.913-.352.283 0 .422.165.422.493v.139c-4.867 4.025-8.563 6.832-11.091 8.424-3.275 2.48-6.038 3.72-8.283 3.72-1.966 0-2.948-1.168-2.948-3.51 0-3.135 2.023-7.779 6.072-13.934 4.047-6.153 8.599-11.687 13.652-16.601 5.055-4.914 8.867-7.371 11.442-7.371 1.169 0 1.755.515 1.755 1.544 0 2.574-3.078 6.821-9.229 12.741-6.154 5.92-12.204 10.963-18.146 15.127-1.732 3.322-2.597 5.852-2.597 7.579 0 1.732.607 2.599 1.825 2.599 1.215 0 2.807-.702 4.773-2.107 3.32-1.964 6.551-4.304 9.686-7.02l1.754-1.471zm8.424-26.747c-1.966 0-5.452 2.833-10.46 8.495-5.009 5.662-9.149 11.325-12.425 16.987 5.382-3.836 10.646-8.531 15.795-14.074 5.147-5.545 7.722-9.137 7.722-10.775 0-.421-.211-.633-.632-.633z"/><path d="M258.62 65.695c2.621 0 5.757-1.475 9.406-4.423l1.194.353c-4.587 3.837-8.541 5.754-11.864 5.754-.375 0-.655-.022-.841-.07-1.264 1.544-2.645 2.799-4.143 3.756-1.499.959-2.808 1.439-3.932 1.439-1.778 0-2.666-.994-2.666-2.984 0-1.987 1.66-4.644 4.981-7.967a11.08 11.08 0 01-.841-4.281c0-1.498.536-2.714 1.613-3.65 1.076-.937 2.327-1.405 3.756-1.405 1.428 0 2.632.469 3.614 1.405.983.937 1.476 2.27 1.476 4 0 2.667-.866 5.335-2.598 8.004.19.045.47.069.845.069zm-9.967 3.439c0 .937.607 1.403 1.825 1.403 1.215 0 2.759-1.239 4.632-3.721-1.263-.653-2.386-1.8-3.368-3.438-2.06 2.247-3.089 4.165-3.089 5.756zm7.72-4.141c1.45-2.432 2.177-4.505 2.177-6.213s-.421-2.972-1.262-3.79c-.843-.817-1.662-1.229-2.458-1.229-1.639 0-2.457.843-2.457 2.526 0 1.685.375 3.358 1.123 5.019.748 1.663 1.708 2.892 2.877 3.687z"/><path d="M284.942 60.08c.327-.234.632-.352.913-.352.282 0 .422.165.422.493v.139a255.702 255.702 0 01-10.39 7.896c-3.417 2.458-5.92 3.688-7.512 3.688-1.17 0-1.753-.632-1.753-1.896s.56-2.527 1.684-3.792c1.123-1.263 2.233-2.362 3.334-3.298 1.1-.937 1.649-1.556 1.649-1.86s-.176-.655-.526-1.053c-.351-.396-.645-.667-.878-.807-.797.795-2.526 2.246-5.195 4.352l-.28-1.054c2.949-2.339 4.657-3.906 5.124-4.702v-.632c0-1.169.116-1.965.352-2.387.233-.42.795-1.006 1.685-1.755.89-.747 1.498-1.124 1.825-1.124.328 0 .619.117.878.352.257.234.385.468.385.701 0 .235-.081.503-.245.808s-.327.562-.491.772-.386.469-.667.773c-.28.304-.456.515-.526.631-.07.117-.141.316-.211.599a1.28 1.28 0 01-.456.7.864.864 0 00-.351.702c0 .28.187.901.562 1.859.375.959.562 1.662.562 2.106 0 .445-.866 1.498-2.596 3.161-1.732 1.66-2.598 3.006-2.598 4.036 0 .561.257.841.772.841.654 0 1.872-.585 3.65-1.756l.843-.562a145.531 145.531 0 008.565-6.387l1.47-1.192z"/></g></svg>