<svg xmlns="http://www.w3.org/2000/svg" viewBox="0 0 31.105 32"><path fill="#9BB71F" d="M30.151 22.136v1.459c0 .808-1.094 1.46-2.434 1.46H3.387c-1.339 0-2.434-.652-2.434-1.46v-1.459h29.198zM4.846 18.729V8.024a2.441 2.441 0 012.435-2.433h16.544a2.441 2.441 0 012.434 2.433V18.73a2.441 2.441 0 01-2.434 2.434H7.28a2.444 2.444 0 01-2.434-2.435zm1.947 0a.5.5 0 00.487.487h16.545a.5.5 0 00.486-.487V8.024a.502.502 0 00-.486-.487H7.28a.5.5 0 00-.487.487v10.705zm10.219 4.623a.24.24 0 00-.243-.242h-2.433a.24.24 0 00-.243.242c0 .138.105.243.243.243h2.433a.239.239 0 00.243-.243z"/></svg>