<svg xmlns="http://www.w3.org/2000/svg" viewBox="0 0 42.521 40.3"><path fill="#4498A7" d="M20.859 35.884a.35.35 0 01-.351-.35v-4.187a.35.35 0 11.701 0v4.187a.35.35 0 01-.35.35zM37.693 37.819h-14.9a.35.35 0 110-.701h14.899a.35.35 0 01.001.701zM18.925 37.819H4.026a.35.35 0 110-.701h14.898a.35.35 0 11.001.701z"/><path fill="none" stroke="#4498A7" stroke-miterlimit="10" d="M38.042 30.147c0 .47-.381.851-.851.851H4.525a.851.851 0 01-.851-.851V3.375c0-.47.381-.851.851-.851h32.666c.47 0 .851.381.851.851v26.772z"/><circle fill="#4498A7" cx="20.858" cy="37.468" r="2.338"/><circle fill="none" stroke="#4498A7" stroke-miterlimit="10" cx="33.635" cy="26.775" r="1.875"/><circle fill="none" stroke="#4498A7" stroke-miterlimit="10" cx="27.397" cy="26.775" r="1.875"/><path fill="none" stroke="#4498A7" stroke-miterlimit="10" d="M3.675 21.4h34.367"/></svg>