<svg xmlns="http://www.w3.org/2000/svg" viewBox="0 0 294.031 92.465"><g opacity=".8" fill="#FFF"><path d="M30.741 64.274c-1.124-1.498-2.574-3.581-4.353-6.248-12.309-1.219-18.461-3.792-18.461-7.723 0-.889.456-1.612 1.368-2.176.913-.562 2.304-.843 4.177-.843 4.679 0 9.335 2.974 13.969 8.914 4.679.468 9.991.702 15.935.702h.772c5.989-3.604 11.558-7.23 16.706-10.88 2.105-3.837 3.932-7.007 5.476-9.511 1.544-2.503 3.416-5.113 5.616-7.828 4.352-5.521 8.938-8.283 13.758-8.283 1.264 0 1.896.562 1.896 1.685 0 2.715-2.247 6.272-6.739 10.67s-10.458 9.125-17.9 14.18c-2.246 4.305-3.93 7.438-5.054 9.404 6.552-.515 11.277-1.309 14.179-2.386h.211c.187 0 .281.129.281.386 0 .258-.165.619-.492 1.088-3.51 1.076-8.563 1.92-15.162 2.526-2.527 4.353-4.973 7.735-7.336 10.146-2.363 2.412-4.738 3.613-7.125 3.613-3.838 0-7.465-2.129-10.88-6.389-6.693 3.37-12.612 5.943-17.761 7.723-.702.233-1.508.352-2.421.352-.913 0-1.368-.352-1.368-1.051 0-.377.187-.717.562-1.021.374-.306.865-.455 1.474-.455 3.743.001 9.967-2.196 18.672-6.595zM11.297 50.023c0 2.668 4.516 4.61 13.547 5.827-3.65-4.867-7.324-7.301-11.02-7.301-1.685.001-2.527.49-2.527 1.474zM32.776 63.29a269.147 269.147 0 008.354-4.632h-.281c-4.071 0-8.002-.142-11.792-.422 1.777 2.48 3.017 4.166 3.719 5.054zm11.372-4.632a295.235 295.235 0 01-10.529 5.685c3.134 3.885 5.989 5.828 8.563 5.828 1.918 0 3.826-1.029 5.721-3.09 1.895-2.059 3.989-5.029 6.283-8.916-2.855.235-6.201.399-10.038.493zm14.812-9.055c-2.527 1.686-6.458 4.117-11.793 7.3 3.603-.095 6.247-.211 7.932-.351a388.8 388.8 0 003.861-6.949zm24.779-27.518c-3.229 0-6.482 2.153-9.758 6.458-2.714 3.649-5.686 8.469-8.914 14.46 5.896-4.352 10.622-8.319 14.179-11.899 3.556-3.58 5.335-6.353 5.335-8.318-.001-.466-.281-.701-.842-.701zM84.65 59.5c.374-.233.667-.352.877-.352s.316.139.316.422v.21c.187 0-1.066 1.029-3.756 3.089a172.373 172.373 0 01-8.633 6.179c-3.066 2.06-4.997 3.086-5.792 3.086-1.358 0-2.037-.562-2.037-1.684 0-1.355 1.17-3.919 3.51-7.688 2.339-3.768 4.047-5.651 5.125-5.651.795 0 1.193.307 1.193.914 0 .608-1.078 2.271-3.229 4.983-2.153 2.713-3.229 4.656-3.229 5.825 0 .656.245.983.736.983.492 0 1.721-.655 3.686-1.967 3.51-2.338 6.739-4.701 9.688-7.09L84.65 59.5zm-5.791-9.477c.444 0 .795.141 1.053.422.257.28.386.678.386 1.192 0 .516-.351 1.17-1.052 1.965-.702.798-1.311 1.195-1.825 1.195-.516 0-.89-.154-1.124-.457a1.677 1.677 0 01-.351-1.054c0-.396.374-1.041 1.122-1.931.749-.887 1.345-1.332 1.791-1.332z"/><path d="M84.859 59.009l-.141-.772c0-.233.492-.353 1.475-.353.561 0 .841.353.841 1.053 0 .703-.808 2.258-2.421 4.67-1.614 2.41-2.421 3.66-2.421 3.756 0 .093.093.139.281.139.187 0 2.352-1.638 6.494-4.914 4.141-3.275 6.633-4.912 7.476-4.912.841 0 1.263.293 1.263.877 0 .586-.234 1.24-.702 1.967-.468.726-1.45 2.035-2.948 3.93-1.499 1.895-2.294 2.914-2.387 3.054a.87.87 0 00-.14.492c0 .188.151.28.456.28.304 0 2.608-1.592 6.915-4.773 4.304-3.183 6.762-4.773 7.37-4.773.608 0 .913.258.913.771 0 .938-1.029 2.575-3.088 4.916-2.06 2.342-3.089 3.824-3.089 4.457s.246.948.737.948c.492 0 1.72-.655 3.686-1.966 3.509-2.34 6.738-4.703 9.687-7.092l1.544-1.263c.374-.233.689-.353.947-.353.257 0 .386.141.386.423v.209c-9.875 8.239-15.981 12.354-18.32 12.354-1.358 0-2.036-.562-2.036-1.684 0-.938.677-2.318 2.036-4.145 1.357-1.824 2.036-2.818 2.036-2.982 0-.163-.06-.244-.177-.244-.118 0-2.036 1.334-5.755 4.002-3.722 2.667-5.931 4.001-6.634 4.001-.328 0-.608-.129-.841-.387-.236-.257-.352-.525-.352-.808 0-.846 1.006-2.553 3.018-5.127 2.012-2.524 3.019-3.906 3.019-4.14s-.139-.353-.422-.353c-.328 0-3.649 2.574-9.967 7.724l-3.51 2.81c-.609.513-1.065.771-1.369.771-.305 0-.597-.081-.877-.245a.798.798 0 01-.421-.738c0-.326.409-1.121 1.228-2.386.818-1.264 1.883-2.808 3.194-4.632 2.009-2.714 3.016-4.235 3.016-4.562z"/><path d="M121.992 65.187c2.621 0 5.756-1.476 9.406-4.424l1.193.354c-4.587 3.837-8.541 5.754-11.863 5.754-.375 0-.656-.021-.843-.07-1.263 1.545-2.644 2.799-4.141 3.756-1.499.959-2.808 1.439-3.931 1.439-1.78 0-2.667-.994-2.667-2.984 0-1.986 1.66-4.644 4.983-7.967-.561-1.357-.842-2.783-.842-4.281s.537-2.713 1.614-3.649a5.544 5.544 0 013.755-1.405c1.427 0 2.633.469 3.615 1.405.983.937 1.473 2.271 1.473 4 0 2.667-.867 5.335-2.596 8.004.188.043.469.068.844.068zm-9.967 3.438c0 .937.607 1.403 1.825 1.403 1.217 0 2.761-1.239 4.634-3.721-1.264-.653-2.387-1.801-3.37-3.438-2.061 2.247-3.089 4.165-3.089 5.756zm7.72-4.141c1.45-2.433 2.176-4.505 2.176-6.214 0-1.707-.421-2.971-1.264-3.789-.842-.817-1.663-1.229-2.458-1.229-1.638 0-2.457.843-2.457 2.526 0 1.686.374 3.357 1.124 5.02s1.709 2.891 2.879 3.686z"/><path d="M161.301 59.779c-9.873 8.239-15.98 12.354-18.32 12.354-1.358 0-2.036-.562-2.036-1.684 0-1.124.502-2.457 1.509-4a41.073 41.073 0 013.019-4.109c1.006-1.191 1.509-1.906 1.509-2.141s-.069-.35-.209-.35c-4.353 2.9-6.938 4.68-7.756 5.334-.819.656-2.153 1.731-4.001 3.229-1.85 1.499-3.053 2.435-3.616 2.808a3.208 3.208 0 01-1.825.562c-.656 0-.983-.28-.983-.842 0-.653 1.309-2.714 3.931-6.177 2.527-3.461 3.791-5.406 3.791-5.828 0-.092-.082-.139-.246-.139-.165 0-2.189 1.43-6.072 4.281l-.281-1.053c3.323-2.669 5.569-4.376 6.739-5.125 1.169-.746 2.117-1.123 2.843-1.123.724 0 1.088.352 1.088 1.053 0 .469-1.322 2.375-3.966 5.721-2.644 3.349-3.965 5.15-3.965 5.407 0 .255.081.384.245.384.163 0 2.831-1.885 8.003-5.65 5.17-3.768 8.317-5.649 9.442-5.649.326 0 .643.13.947.386.303.258.455.504.455.737 0 .562-1.24 2.423-3.72 5.58-2.481 3.157-3.72 4.949-3.72 5.371s.292.632.877.632c.584 0 1.836-.632 3.755-1.896 3.509-2.293 6.739-4.654 9.688-7.09l1.545-1.264c.326-.232.631-.354.912-.354.28 0 .42.142.42.424v.209l-.002.002zM184.887 29.527l-15.584-.773c-.095 0-.306.14-.633.421-.328.281-.609.421-.842.421-.234 0-.398-.023-.492-.07-2.761-.982-4.144-2.176-4.144-3.581 0-.701.399-1.052 1.194-1.052.469 0 3.498.363 9.09 1.088 5.593.725 11.617 1.088 18.076 1.088 6.457 0 12.658-.351 18.603-1.052 6.315-5.476 12.588-8.214 18.812-8.214 2.572 0 3.86.61 3.86 1.826 0 3.183-7.206 5.826-21.618 7.933-4.775 4.773-10.556 12.564-17.341 23.375a543.622 543.622 0 01-7.511 11.513c-5.475 8.142-9.945 12.213-13.407 12.213-1.263 0-1.896-.551-1.896-1.646 0-1.102.467-2.375 1.403-3.826.89-1.405 1.591-2.105 2.106-2.105h.068c.608 0 .914.35.914 1.051l-.281 1.334c0 .233.094.352.281.352 2.479 0 6.691-5.055 12.633-15.164 2.389-4.07 5.43-8.702 9.127-13.897 3.696-5.194 7.274-9.452 10.74-12.775-8.091 1.025-15.815 1.54-23.158 1.54zm42.397-10.39c-4.494 0-9.149 2.153-13.97 6.458 3.462-.514 6.445-1.146 8.949-1.895 2.504-.748 4.269-1.45 5.301-2.107 1.027-.654 1.544-1.228 1.544-1.72 0-.491-.608-.736-1.824-.736zM209.031 62.798c-.28 0-.421-.104-.421-.315 0-.211.164-.455.491-.735 1.545-1.263 2.317-2.41 2.317-3.439 0-.653-.585-1.028-1.756-1.123-2.104.048-4.622 1.567-7.546 4.562-2.926 2.996-4.387 5.24-4.387 6.738 0 .515.291.771.875.771.586 0 1.371-.396 2.353-1.193.89-.562 2.552-1.965 4.985-4.211.561-.562 1.098-.842 1.613-.842.654 0 .981.304.981.912 0 .233-.069.42-.21.562-.141.139-.398.433-.773.877a27.44 27.44 0 00-.981 1.229c-.843 1.217-1.265 2.012-1.265 2.385 0 .938.375 1.406 1.123 1.406.983 0 2.834-.901 5.547-2.703 2.715-1.803 5.195-3.615 7.44-5.439l3.368-2.667c.328-.233.632-.353.913-.353.28 0 .421.166.421.494v.139a126.319 126.319 0 01-11.404 8.562c-4.004 2.668-6.636 4-7.897 4-1.498 0-2.247-.795-2.247-2.386 0-.373.07-.726.211-1.054.141-.325.211-.562.211-.7 0-.142-.047-.234-.141-.281-.139 0-1.041.632-2.702 1.896-1.66 1.263-3.111 1.895-4.353 1.895-1.24 0-1.859-.652-1.859-1.964 0-1.308.878-3.077 2.633-5.3 1.756-2.223 4.105-4.246 7.055-6.071s5.826-2.739 8.635-2.739c.653 0 1.205.166 1.647.492.444.328.668.832.668 1.512 0 .678-.681 1.694-2.036 3.053-1.358 1.351-2.526 2.03-3.509 2.03z"/><path d="M236.195 59.5c.376-.233.668-.352.878-.352.212 0 .315.139.315.422v.21c.188 0-1.064 1.029-3.754 3.089a172.452 172.452 0 01-8.635 6.179c-3.066 2.06-4.994 3.086-5.791 3.086-1.357 0-2.037-.562-2.037-1.684 0-1.355 1.17-3.919 3.51-7.688 2.34-3.768 4.047-5.651 5.125-5.651.795 0 1.192.307 1.192.914 0 .608-1.077 2.271-3.229 4.983s-3.229 4.656-3.229 5.825c0 .656.247.983.738.983s1.72-.655 3.687-1.967c3.508-2.338 6.736-4.701 9.687-7.09l1.543-1.259zm-5.791-9.477c.445 0 .796.141 1.054.422.257.28.386.678.386 1.192 0 .516-.352 1.17-1.052 1.965-.702.798-1.312 1.195-1.825 1.195-.515 0-.891-.154-1.123-.457a1.678 1.678 0 01-.352-1.054c0-.396.373-1.041 1.123-1.931.748-.887 1.345-1.332 1.789-1.332z"/><path d="M252.973 59.571c.326-.234.631-.352.912-.352.283 0 .422.164.422.492v.139c-4.867 4.025-8.562 6.832-11.09 8.425-3.275 2.479-6.039 3.72-8.283 3.72-1.967 0-2.948-1.168-2.948-3.51 0-3.135 2.022-7.779 6.071-13.934 4.047-6.153 8.6-11.688 13.652-16.602 5.055-4.914 8.867-7.371 11.442-7.371 1.169 0 1.755.515 1.755 1.544 0 2.574-3.078 6.821-9.229 12.741-6.154 5.92-12.205 10.963-18.146 15.127-1.732 3.322-2.598 5.852-2.598 7.579 0 1.731.607 2.599 1.826 2.599 1.215 0 2.807-.701 4.772-2.107 3.319-1.963 6.551-4.303 9.687-7.02l1.755-1.47zm8.423-26.747c-1.967 0-5.452 2.833-10.461 8.495-5.008 5.662-9.148 11.324-12.424 16.986 5.381-3.836 10.646-8.53 15.795-14.073 5.146-5.545 7.722-9.137 7.722-10.775 0-.421-.211-.633-.632-.633z"/><path d="M258.446 65.187c2.621 0 5.757-1.476 9.405-4.424l1.195.354c-4.588 3.837-8.541 5.754-11.865 5.754-.375 0-.654-.021-.84-.07-1.265 1.545-2.646 2.799-4.144 3.756-1.499.959-2.808 1.439-3.933 1.439-1.777 0-2.666-.994-2.666-2.984 0-1.986 1.66-4.644 4.981-7.967-.562-1.357-.841-2.783-.841-4.281s.536-2.713 1.613-3.649c1.076-.937 2.326-1.405 3.756-1.405 1.428 0 2.632.469 3.613 1.405.983.937 1.477 2.271 1.477 4 0 2.667-.866 5.335-2.598 8.004.192.043.472.068.847.068zm-9.967 3.438c0 .937.607 1.403 1.826 1.403 1.215 0 2.758-1.239 4.631-3.721-1.262-.653-2.385-1.801-3.367-3.438-2.061 2.247-3.09 4.165-3.09 5.756zm7.72-4.141c1.45-2.433 2.177-4.505 2.177-6.214 0-1.707-.421-2.971-1.262-3.789-.843-.817-1.662-1.229-2.458-1.229-1.639 0-2.457.843-2.457 2.526 0 1.686.375 3.357 1.123 5.02s1.708 2.891 2.877 3.686z"/><path d="M284.768 59.571c.328-.234.633-.352.914-.352s.422.164.422.492v.139a254.804 254.804 0 01-10.391 7.896c-3.417 2.458-5.92 3.688-7.512 3.688-1.17 0-1.753-.631-1.753-1.896 0-1.264.56-2.526 1.685-3.792a33.664 33.664 0 013.334-3.298c1.1-.937 1.648-1.556 1.648-1.86 0-.304-.176-.654-.525-1.053-.352-.396-.646-.667-.879-.807-.797.795-2.525 2.246-5.195 4.352l-.279-1.054c2.949-2.339 4.656-3.906 5.124-4.702v-.632c0-1.169.116-1.966.352-2.388.233-.42.796-1.006 1.685-1.754.891-.748 1.498-1.125 1.826-1.125s.619.117.877.353c.258.233.386.468.386.701 0 .235-.081.503-.245.808s-.327.562-.491.771c-.164.211-.386.47-.667.773-.279.305-.456.516-.525.631-.07.117-.142.316-.211.6a1.28 1.28 0 01-.457.699.87.87 0 00-.351.703c0 .279.187.9.562 1.858.375.959.562 1.662.562 2.106s-.865 1.498-2.596 3.16c-1.732 1.66-2.598 3.006-2.598 4.036 0 .562.256.841.771.841.654 0 1.872-.584 3.65-1.756l.843-.562a145.092 145.092 0 008.565-6.388l1.469-1.188z"/></g></svg>