<svg xmlns="http://www.w3.org/2000/svg" viewBox="0 0 433.913 112.666"><path fill="#313131" d="M0 74.333v38.333h38.333z"/><linearGradient id="a" gradientUnits="userSpaceOnUse" x1="49.584" y1="62.25" x2="18.751" y2="93.083"><stop offset="0" stop-color="#ffd600"/><stop offset="1" stop-color="#ffb000"/></linearGradient><path fill="url(#a)" d="M98.333 112.666h-60L0 74.333V12.666"/><linearGradient id="b" gradientUnits="userSpaceOnUse" x1="54.334" y1=".001" x2="54.334" y2=".001"><stop offset="0" stop-color="#ffd600"/><stop offset="1" stop-color="#ffb000"/></linearGradient><path fill="#313131" d="M157.333 112.666h-60L60 74.334l-1-61.667"/><linearGradient id="c" gradientUnits="userSpaceOnUse" x1="167.917" y1="62.249" x2="137.084" y2="93.082"><stop offset="0" stop-color="#ffd600"/><stop offset="1" stop-color="#ffb000"/></linearGradient><path fill="url(#c)" d="M216.667 112.665h-60l-37.334-38.332-1-61.667"/><g fill="#313131"><path d="M242.202 71V25.997h9.101V71h-9.101zM256.329 71V38.373h8.425v2.3c.8-.916 1.763-1.65 2.888-2.2s2.296-.825 3.513-.825c1.15 0 2.18.363 3.088 1.088a6.668 6.668 0 012.025 2.675 8.474 8.474 0 01.662 3.288V71h-8.426V46.174c0-1.45-.467-2.176-1.399-2.176a1.377 1.377 0 00-.637.163 7.784 7.784 0 01-.287.149 1.51 1.51 0 00-.301.213l-.263.225c-.059.05-.146.138-.262.263a6.728 6.728 0 00-.226.25c-.033.042-.1.121-.2.237l-.175.2V71h-8.425zM281.08 64.75V45.474c0-2.066.649-3.892 1.949-5.476 1.301-1.583 2.909-2.375 4.826-2.375 1.05 0 2.045.271 2.987.812a8.296 8.296 0 012.438 2.138V25.997h8.426V71h-8.426v-2.45c-.667.983-1.5 1.759-2.5 2.325s-2.059.85-3.176.85c-1.85 0-3.399-.695-4.649-2.087s-1.875-3.022-1.875-4.888zm12.2-1.176V45.873c-.95-1.25-1.742-1.875-2.375-1.875-.934 0-1.4.717-1.4 2.15v16.876c0 .45.021.821.062 1.112.042.292.175.571.4.838.225.267.537.4.938.4.717.001 1.508-.6 2.375-1.8zM306.255 64.675V38.373h8.426v24.252c0 1.833.383 2.75 1.15 2.75.75 0 1.625-.617 2.625-1.851V38.373h8.426V71h-8.426v-2.825a11.148 11.148 0 01-2.976 2.55c-1.134.667-2.283 1-3.45 1-1.717 0-3.108-.729-4.175-2.188-1.066-1.458-1.6-3.079-1.6-4.862zM330.182 63.125l6.45-2.301c.166.5.3.888.4 1.163.1.274.271.675.512 1.2.242.524.476.929.7 1.212.226.284.517.546.875.788.358.241.738.362 1.138.362 1.05 0 1.575-.616 1.575-1.851 0-.449-.104-.912-.312-1.388a8.272 8.272 0 00-.65-1.225c-.225-.342-.616-.787-1.175-1.338-.559-.55-.987-.958-1.287-1.225s-.825-.717-1.575-1.351l-1.375-1.175c-1.784-1.55-3.184-3.075-4.2-4.575-1.018-1.5-1.525-3.167-1.525-5 0-1.417.296-2.696.888-3.838s1.388-2.062 2.388-2.763 2.121-1.238 3.362-1.613 2.546-.562 3.913-.562c1.217 0 2.383.259 3.5.775 1.116.517 2.096 1.204 2.938 2.062s1.571 1.825 2.188 2.9a14.915 14.915 0 011.426 3.388l-6.051 2.075c-.2-.5-.367-.913-.5-1.237-.134-.325-.346-.75-.638-1.275s-.575-.946-.85-1.263a4.218 4.218 0 00-1.013-.838 2.39 2.39 0 00-1.25-.362c-.584 0-1.038.209-1.362.625a2.256 2.256 0 00-.488 1.425c0 .734.404 1.555 1.213 2.463.809.909 1.921 1.955 3.338 3.138l1.55 1.375c.833.75 1.554 1.455 2.163 2.113a25.46 25.46 0 011.825 2.237 10.312 10.312 0 011.399 2.625c.325.917.487 1.834.487 2.751 0 2.633-.929 4.809-2.787 6.524-1.858 1.718-4.104 2.575-6.738 2.575-2.55 0-4.75-.791-6.601-2.375-1.851-1.579-3.135-3.655-3.851-6.221zM353.833 59.8V43.998h-2.399v-5.625h2.399V27.647h8.426v10.726h4.05v5.625h-4.05v17.826c0 .9.166 1.571.5 2.013.333.442.925.663 1.775.663.966 0 1.783-.051 2.45-.15v6.525c-1.101.333-2.875.5-5.325.5-.984 0-1.871-.117-2.663-.35-.792-.233-1.459-.546-2-.938a5.556 5.556 0 01-1.4-1.488c-.392-.6-.7-1.212-.925-1.837s-.4-1.354-.525-2.188a25.926 25.926 0 01-.25-2.325 42.3 42.3 0 01-.063-2.449zM369.959 71V38.373h8.375v2.65c1.283-2.084 2.783-3.126 4.5-3.126.483 0 1.242.084 2.275.25v7.101c-1.55-.166-2.642-.25-3.275-.25-1.149 0-2.021.354-2.612 1.062-.592.709-.888 1.722-.888 3.038V71h-8.375zM387.861 35.522v-7.875h8.425v7.875h-8.425zm0 35.478V38.373h8.425V71h-8.425zM414.187 71l-.825-3.375c-.483 1.517-1.275 2.579-2.375 3.188-1.101.608-2.467.912-4.101.912-1.2 0-2.25-.233-3.15-.699-.899-.467-1.604-1.096-2.112-1.888s-.884-1.642-1.125-2.551a11.069 11.069 0 01-.362-2.862c0-1.133.116-2.184.35-3.15.233-.966.529-1.82.888-2.562.358-.741.858-1.454 1.5-2.138s1.267-1.263 1.875-1.737c.608-.476 1.388-.967 2.338-1.476.95-.508 1.8-.934 2.55-1.275.75-.341 1.692-.745 2.825-1.212v-2.75c0-1.15-.142-2.009-.425-2.575s-.767-.851-1.45-.851c-.467 0-.846.097-1.138.288-.291.191-.496.479-.612.862s-.191.729-.225 1.037c-.034.309-.05.722-.05 1.238v1.85h-8.176c0-3.75.941-6.629 2.825-8.638 1.883-2.009 4.616-3.013 8.2-3.013 2.5 0 4.691.908 6.575 2.725 1.884 1.817 2.825 3.976 2.825 6.476v15.501c0 2.684.358 5.575 1.075 8.676h-7.7zm-1.7-7.375v-8.026c-2.767 2.234-4.15 4.685-4.15 7.351 0 .667.129 1.238.388 1.713.258.475.695.713 1.312.713.35 0 .695-.113 1.038-.338.341-.225.587-.421.737-.588.149-.167.375-.442.675-.825zM425.488 71V25.997h8.425V71h-8.425z"/></g><g fill="#313131"><path d="M240.9 94.456l3.063-.589c0 .305.006.573.017.806s.04.485.087.759c.047.274.111.498.191.673.08.174.193.32.34.439s.319.179.519.179c.598 0 .896-.382.896-1.146 0-1.046-.589-2.086-1.768-3.121l-.938-.797a17.494 17.494 0 01-.715-.623 8.44 8.44 0 01-.626-.672c-.241-.282-.429-.555-.564-.817s-.252-.58-.349-.95a4.647 4.647 0 01-.146-1.18c0-1.211.385-2.17 1.153-2.876.77-.705 1.791-1.058 3.063-1.058 1.057 0 1.956.376 2.698 1.129.741.752 1.111 1.66 1.111 2.723l-.008.107v.249l-3.121.432c0-.061.004-.156.013-.286a3.896 3.896 0 00-.029-.892c-.027-.182-.073-.365-.137-.548s-.162-.328-.295-.436a.738.738 0 00-.481-.162c-.332 0-.581.13-.747.39a1.678 1.678 0 00-.249.922c0 .31.049.601.146.871.097.271.243.524.439.76s.378.431.544.586c.166.154.388.344.664.568.276.224.473.389.59.494.426.376.785.729 1.078 1.058.294.329.57.702.83 1.116.261.416.456.863.586 1.346.13.48.195 1.001.195 1.561 0 1.045-.374 1.901-1.121 2.568s-1.654 1-2.723 1c-.691 0-1.306-.127-1.843-.381-.537-.255-.97-.601-1.299-1.038s-.583-.921-.76-1.452-.276-1.103-.304-1.712zM252.85 98.731V86.048h-2.191V83.79h7.362v2.258h-2.149v12.684h-3.022zM260.301 98.731V83.79h6.233v2.075h-3.212v4.067h2.273v2.125h-2.273v4.599h3.212v2.075h-6.233zM268.889 98.731V83.79h6.233v2.075h-3.212v4.067h2.273v2.125h-2.273v4.599h3.212v2.075h-6.233zM277.477 98.731V83.79h3.021v12.866h2.971v2.075h-5.992zM290.196 93.743v-4.947c0-3.531 1.444-5.297 4.333-5.297.608 0 1.149.082 1.623.245.473.163.87.389 1.19.677.321.288.586.642.793 1.062.208.421.357.877.448 1.369.092.493.138 1.035.138 1.627v1.287h-2.973v-1.378c0-.271-.005-.505-.016-.701-.012-.196-.041-.421-.088-.673s-.11-.456-.19-.614a1.092 1.092 0 00-.357-.402.967.967 0 00-.568-.166c-.874 0-1.312.736-1.312 2.208v6.449c0 1.467.438 2.2 1.312 2.2a.98.98 0 00.655-.224c.178-.15.305-.361.383-.636.077-.273.13-.542.157-.805s.042-.563.042-.901v-1.535h2.955v1.262c-.012.57-.059 1.096-.142 1.577s-.224.949-.423 1.403a3.796 3.796 0 01-.76 1.149c-.308.312-.704.564-1.191.755-.487.191-1.046.287-1.677.287-.647 0-1.222-.093-1.723-.278s-.913-.435-1.236-.747a3.78 3.78 0 01-.802-1.154 5.747 5.747 0 01-.443-1.439 10.004 10.004 0 01-.128-1.66zM301.215 93.817v-5.021c0-3.531 1.455-5.297 4.366-5.297 2.916 0 4.374 1.766 4.374 5.297v4.947c0 .598-.044 1.149-.133 1.655-.088.507-.239.986-.452 1.44s-.484.84-.813 1.158-.745.568-1.249.751-1.079.274-1.727.274c-.642 0-1.215-.091-1.718-.271-.504-.18-.919-.423-1.246-.73-.326-.307-.596-.684-.809-1.129s-.365-.92-.457-1.423a9.378 9.378 0 01-.136-1.651zm5.719.681V88.04c0-1.472-.45-2.208-1.353-2.208a1.14 1.14 0 00-.688.203 1.183 1.183 0 00-.416.557c-.088.235-.15.468-.187.697s-.054.479-.054.751v6.458c0 1.467.448 2.2 1.345 2.2.903 0 1.353-.733 1.353-2.2zM312.817 98.731V83.79h3.287c.746 0 1.403.07 1.971.212.567.141 1.064.362 1.49.664s.75.708.971 1.22c.222.512.332 1.125.332 1.839 0 .31-.011.587-.033.83-.021.243-.073.521-.153.834s-.189.59-.327.83a2.93 2.93 0 01-.598.71 3.454 3.454 0 01-.922.581 388.072 388.072 0 002.341 7.222h-3.13l-1.709-6.881h-.498v6.881h-3.022zm3.021-8.724h.863a.846.846 0 00.598-.232 1.32 1.32 0 00.36-.589c.075-.238.128-.456.158-.655a3.809 3.809 0 00.008-1.113c-.024-.188-.069-.396-.133-.626s-.169-.418-.315-.564-.325-.22-.535-.22h-1.004v3.999zM323.406 98.731V83.79h3.61c1.301 0 2.247.362 2.839 1.088.592.725.889 1.773.889 3.146 0 .675-.065 1.262-.195 1.76s-.312.909-.544 1.232c-.232.324-.531.584-.896.78s-.761.335-1.187.415c-.427.08-.919.123-1.479.129v6.392h-3.037zm3.046-8.525a2.88 2.88 0 00.755-.094.577.577 0 00.25-.138c.071-.066.131-.124.178-.174s.088-.132.121-.245.058-.206.074-.278a2.15 2.15 0 00.037-.348c.009-.161.013-.29.013-.387v-.452-.124c0-.217-.001-.38-.004-.49s-.013-.252-.029-.424c-.017-.171-.043-.3-.079-.386s-.088-.184-.157-.294c-.069-.111-.153-.191-.253-.241s-.226-.094-.378-.133-.328-.058-.527-.058v4.266zM332.973 93.817v-5.021c0-3.531 1.455-5.297 4.366-5.297 2.916 0 4.374 1.766 4.374 5.297v4.947c0 .598-.044 1.149-.133 1.655-.088.507-.239.986-.452 1.44s-.484.84-.813 1.158-.745.568-1.249.751-1.079.274-1.727.274c-.642 0-1.215-.091-1.718-.271-.504-.18-.919-.423-1.246-.73-.326-.307-.596-.684-.809-1.129s-.365-.92-.457-1.423a9.378 9.378 0 01-.136-1.651zm5.719.681V88.04c0-1.472-.45-2.208-1.353-2.208a1.14 1.14 0 00-.688.203 1.183 1.183 0 00-.416.557c-.088.235-.15.468-.187.697s-.054.479-.054.751v6.458c0 1.467.448 2.2 1.345 2.2.903 0 1.353-.733 1.353-2.2zM344.575 98.731V83.79h3.287c.746 0 1.403.07 1.971.212.567.141 1.064.362 1.49.664s.75.708.971 1.22c.222.512.332 1.125.332 1.839 0 .31-.011.587-.033.83-.021.243-.073.521-.153.834s-.189.59-.327.83a2.93 2.93 0 01-.598.71 3.454 3.454 0 01-.922.581 388.072 388.072 0 002.341 7.222h-3.13l-1.709-6.881h-.498v6.881h-3.022zm3.021-8.724h.863a.846.846 0 00.598-.232 1.32 1.32 0 00.36-.589c.075-.238.128-.456.158-.655a3.809 3.809 0 00.008-1.113c-.024-.188-.069-.396-.133-.626s-.169-.418-.315-.564-.325-.22-.535-.22h-1.004v3.999zM354.348 98.731l3.229-14.941h2.673l3.221 14.941h-2.98l-.613-3.195h-1.951l-.581 3.195h-2.998zm3.785-5.054h1.545l-.756-5.545-.789 5.545zM366.713 98.731V86.048h-2.191V83.79h7.362v2.258h-2.149v12.684h-3.022zM374.165 98.731V83.79h3.021v14.941h-3.021zM380.046 93.817v-5.021c0-3.531 1.455-5.297 4.366-5.297 2.916 0 4.374 1.766 4.374 5.297v4.947c0 .598-.044 1.149-.133 1.655-.088.507-.239.986-.452 1.44s-.484.84-.813 1.158-.745.568-1.249.751-1.079.274-1.727.274c-.642 0-1.215-.091-1.718-.271-.504-.18-.919-.423-1.246-.73-.326-.307-.596-.684-.809-1.129s-.365-.92-.457-1.423a9.378 9.378 0 01-.136-1.651zm5.719.681V88.04c0-1.472-.45-2.208-1.353-2.208a1.14 1.14 0 00-.688.203 1.183 1.183 0 00-.416.557c-.088.235-.15.468-.187.697s-.054.479-.054.751v6.458c0 1.467.448 2.2 1.345 2.2.903 0 1.353-.733 1.353-2.2zM391.648 98.731V83.782h2.174l3.279 7.818v-7.818h2.507v14.949h-2.092l-3.271-8.293v8.293h-2.597zM407.338 98.731V83.79h3.021v14.941h-3.021zM413.411 98.731V83.782h2.174l3.279 7.818v-7.818h2.507v14.949h-2.092l-3.271-8.293v8.293h-2.597zM424.231 93.743v-4.947c0-3.531 1.444-5.297 4.333-5.297.608 0 1.149.082 1.623.245.473.163.87.389 1.19.677.321.288.586.642.793 1.062.208.421.357.877.448 1.369.092.493.138 1.035.138 1.627v1.287h-2.973v-1.378c0-.271-.005-.505-.016-.701-.012-.196-.041-.421-.088-.673s-.11-.456-.19-.614a1.092 1.092 0 00-.357-.402.967.967 0 00-.568-.166c-.874 0-1.312.736-1.312 2.208v6.449c0 1.467.438 2.2 1.312 2.2a.98.98 0 00.655-.224c.178-.15.305-.361.383-.636.077-.273.13-.542.157-.805s.042-.563.042-.901v-1.535h2.955v1.262c-.012.57-.059 1.096-.142 1.577s-.224.949-.423 1.403a3.796 3.796 0 01-.76 1.149c-.308.312-.704.564-1.191.755-.487.191-1.046.287-1.677.287-.647 0-1.222-.093-1.723-.278s-.913-.435-1.236-.747a3.78 3.78 0 01-.802-1.154 5.747 5.747 0 01-.443-1.439 10.004 10.004 0 01-.128-1.66z"/></g></svg>