<svg xmlns="http://www.w3.org/2000/svg" viewBox="0 0 109.004 111.445"><path fill="#ECECED" d="M89.646 23.604c8.704 9.151 14.045 21.53 14.045 35.156 0 28.178-22.84 51.02-51.012 51.02-28.173-.002-51.012-22.844-51.012-51.021 0-28.175 22.839-51.017 51.011-51.017 12.798 0 24.496 4.713 33.452 12.5"/><path fill="#9DC75F" d="M76.56 36.384a32.611 32.611 0 018.844 22.375c0 18.075-14.65 32.729-32.725 32.729-18.072 0-32.724-14.654-32.724-32.729s14.652-32.728 32.724-32.728a32.589 32.589 0 0121.42 7.986"/><circle fill="#ECECED" cx="52.678" cy="58.759" r="17.325"/></svg>