<svg xmlns="http://www.w3.org/2000/svg" viewBox="0 0 46.082 46.082"><path fill="none" stroke="#9D9D9C" stroke-miterlimit="10" d="M19.772 23.041H-7.082"/><path d="M43.986 30.195c0 .794-.637 1.432-1.43 1.432H25.385a1.427 1.427 0 01-1.432-1.432v-14.31c0-.794.637-1.431 1.432-1.431h17.172c.793 0 1.43.637 1.43 1.431v14.31zm-1.429-11.447v-2.862h-9.258l-.715 1.431h-7.199v1.432h17.172zm0 11.447v-1.431H25.385v1.431h17.172zM31.108 16.601v-1.43h-4.294v1.43h4.294zm2.863 2.884a4.294 4.294 0 104.293 4.294 4.296 4.296 0 00-4.293-4.294zm0 7.156a2.868 2.868 0 01-2.862-2.861c0-1.577 1.286-2.863 2.862-2.863s2.861 1.286 2.861 2.863a2.868 2.868 0 01-2.861 2.861zm0-4.674c-.984 0-1.789.804-1.789 1.789 0 .201.156.357.357.357s.357-.156.357-.357c0-.592.481-1.072 1.074-1.072a.353.353 0 00.357-.358.352.352 0 00-.356-.359z" opacity=".6"/></svg>