<svg xmlns="http://www.w3.org/2000/svg" viewBox="0 0 129.608 81.101"><g fill="#FFF"><path d="M10.447 18.974c5.328-8.247 12.603-12.37 21.824-12.37 9.218 0 16.493 4.124 21.822 12.371s7.993 19.52 7.993 33.813c0 14.295-2.664 25.565-7.993 33.812S41.488 98.971 32.271 98.971c-9.221 0-16.495-4.124-21.824-12.371-5.329-8.247-7.994-19.518-7.994-33.812 0-14.294 2.665-25.567 7.994-33.814zm37.175 2.791c-3.723-7.569-8.84-11.355-15.352-11.355-6.516 0-11.632 3.787-15.353 11.355-3.723 7.571-5.583 17.912-5.583 31.022 0 13.111 1.859 23.452 5.583 31.021 3.721 7.571 8.837 11.355 15.353 11.355 6.512 0 11.629-3.784 15.352-11.355 3.722-7.569 5.583-17.91 5.583-31.021 0-13.11-1.861-23.451-5.583-31.022zM99.008 6.604c8.457 0 15.203 2.242 20.237 6.724 5.031 4.484 7.549 10.616 7.549 18.397 0 4.822-1.186 9.728-3.553 14.718-2.623 5.414-5.245 9.77-7.866 13.069a469.41 469.41 0 01-6.471 7.993 141.22 141.22 0 01-5.837 6.534 554.654 554.654 0 01-5.646 5.899 606.064 606.064 0 01-5.456 5.52l-4.631 4.631h29.182c3.636 0 6.449-.761 8.438-2.283 1.986-1.522 4.124-4.355 6.407-8.501h1.27l-6.091 17.89H74.52v-1.269c8.965-8.289 17.891-18.101 26.771-29.437 4.651-6.005 8.479-12.073 11.483-18.207 3.001-6.132 4.504-11.483 4.504-16.05 0-6.852-1.608-12.2-4.821-16.05-3.216-3.848-7.571-5.773-13.068-5.773-6.176 0-11.02 1.649-14.528 4.948-3.511 3.299-5.182 7.91-5.012 13.83l-1.269.127-2.284-14.464c3.299-3.299 8.077-5.709 14.338-7.232 2.874-.676 5.666-1.014 8.374-1.014z"/></g></svg>