<svg xmlns="http://www.w3.org/2000/svg" viewBox="0 0 60.568 69.625"><path fill="#5E6676" d="M58.891 45.218a4.742 4.742 0 01-4.729 4.728H32.41v3.782h10.403c.531 0 .946.415.946.947v1.891a.933.933 0 01-.946.944H18.221a.932.932 0 01-.945-.944v-1.891c0-.532.413-.947.945-.947h10.404v-3.782H6.872a4.741 4.741 0 01-4.728-4.728V16.843c0-2.6 2.127-4.728 4.728-4.728h47.289a4.741 4.741 0 014.729 4.728l.001 28.375zm-3.783-28.375a.972.972 0 00-.945-.945H6.872a.972.972 0 00-.945.945v28.375c0 .504.442.944.945.944h47.289c.501 0 .946-.443.946-.944l.001-28.375z"/></svg>