<svg xmlns="http://www.w3.org/2000/svg" viewBox="3.51 0.939 96.37 28.946"><circle fill="none" stroke="#FFF" stroke-miterlimit="10" cx="17.982" cy="15.413" r="13.972"/><circle fill="none" stroke="#FFF" stroke-miterlimit="10" cx="52.151" cy="15.413" r="13.973"/><circle fill="none" stroke="#FFF" stroke-miterlimit="10" cx="85.409" cy="15.413" r="13.973"/><path fill="#FFF" d="M24.064 14.652c-1.842-1.501-3.828-2.338-6.315-2.338s-4.474.837-6.315 2.338a.301.301 0 01-.176.067c-.183 0-1.339-1.066-1.339-1.244 0-.066.032-.125.08-.17 2.018-1.858 4.928-2.886 7.751-2.886 2.823 0 5.733 1.028 7.751 2.886.047.045.08.104.08.17 0 .178-1.157 1.244-1.34 1.244a.295.295 0 01-.177-.067zm-2.168 2.014c-1.316-.947-2.424-1.51-4.146-1.51-2.408 0-4.242 1.568-4.33 1.568-.184 0-1.332-1.066-1.332-1.243 0-.059.032-.118.08-.163 1.427-1.323 3.581-2.057 5.582-2.057s4.154.733 5.582 2.057c.048.045.08.104.08.163 0 .177-1.148 1.243-1.332 1.243a.37.37 0 01-.184-.058zm-4.147 1.331c-1.18 0-2.034.741-2.153.741-.191 0-1.348-1.066-1.348-1.244 0-.065.032-.125.08-.17.854-.784 2.241-1.222 3.421-1.222s2.567.438 3.421 1.222c.048.045.08.104.08.17 0 .178-1.156 1.244-1.348 1.244-.112 0-.981-.741-2.153-.741zm-1.324 1.511c0-.362 1.021-.563 1.324-.563s1.323.201 1.323.563c0 .199-1.116 1.235-1.323 1.235s-1.324-1.036-1.324-1.235zM57.34 18.955c-.168.362-.615.599-.973.784-.471.237-.949.378-1.483.378-.742 0-1.411-.281-2.09-.511a7.884 7.884 0 01-1.396-.614c-1.355-.777-2.99-2.295-3.828-3.553a6.701 6.701 0 01-.662-1.295c-.247-.629-.55-1.25-.55-1.939 0-.496.151-.939.406-1.376.2-.333.455-.747.846-.903a3.779 3.779 0 011.108-.229c.056 0 .111 0 .167.022.167.052.343.414.423.562.255.422.502.851.765 1.266.127.191.367.429.367.658 0 .452-1.443 1.111-1.443 1.509 0 .201.199.459.311.637.805 1.347 1.81 2.279 3.261 3.027.191.104.471.289.686.289.431 0 1.141-1.34 1.627-1.34.247 0 .502.222.709.34.447.244.91.474 1.364.711.16.074.55.237.606.393.022.051.022.104.022.154.003.268-.124.786-.243 1.03zM86.333 14.362l.358 6.076c.017.259-.199.474-.478.474h-1.531c-.279 0-.495-.215-.479-.474l.358-6.076c-.973-.354-1.667-1.325-1.667-2.805 0-1.895 1.141-3.907 2.553-3.907S88 9.662 88 11.557c0 1.48-.693 2.45-1.667 2.805z"/></svg>