<svg xmlns="http://www.w3.org/2000/svg" viewBox="0 0 36 36"><path fill="#F6F6F6" d="M32.037 28.43a2.344 2.344 0 01-2.336 2.336H18.953v1.869h5.141a.46.46 0 01.467.467v.936a.46.46 0 01-.467.467h-12.15a.46.46 0 01-.467-.467v-.936a.46.46 0 01.467-.467h5.141v-1.869H6.336A2.343 2.343 0 014 28.43V14.411a2.343 2.343 0 012.336-2.336h23.365a2.343 2.343 0 012.336 2.336V28.43zm-1.869-14.019a.48.48 0 00-.467-.467H6.336a.48.48 0 00-.467.467V28.43a.48.48 0 00.467.467h23.365a.48.48 0 00.467-.467V14.411z"/></svg>