<?xml version="1.0" encoding="utf-8"?>
<!-- Generator: Adobe Illustrator 25.4.1, SVG Export Plug-In . SVG Version: 6.00 Build 0)  -->
<svg version="1.1" id="Ebene_1" xmlns="http://www.w3.org/2000/svg" xmlns:xlink="http://www.w3.org/1999/xlink" x="0px" y="0px"
	 viewBox="0 0 242.3 155.9" style="enable-background:new 0 0 242.3 155.9;" xml:space="preserve"
	>
<style type="text/css">
	.st0{fill:none;stroke-width:13;}
</style>
<polyline class="st0 stroke-accent" points="149.4,117 149.4,149.4 6.5,149.4 6.5,6.5 149.4,6.5 "/>
<path class="fill-accent" d="M115.3,69.6h104.2l-35.8,35.8c-2.6,2.6-2.6,6.8,0,9.5c2.6,2.6,6.8,2.6,9.5,0l47.3-47.3l0,0c0.3-0.3,0.6-0.7,0.8-1
	c0.1-0.2,0.2-0.4,0.3-0.5c0.1-0.2,0.2-0.4,0.3-0.6c0.1-0.2,0.1-0.5,0.2-0.7c0.1-0.2,0.1-0.4,0.2-0.6c0.1-0.4,0.1-0.9,0.1-1.3l0,0
	c0,0,0,0,0,0c0-0.4,0-0.9-0.1-1.3c0-0.2-0.1-0.4-0.2-0.6c-0.1-0.2-0.1-0.4-0.2-0.7c-0.1-0.2-0.2-0.4-0.3-0.7
	c-0.1-0.2-0.2-0.3-0.3-0.5c-0.2-0.4-0.5-0.7-0.8-1l-47.3-47.3c-2.6-2.6-6.8-2.6-9.5,0c-2.6,2.6-2.6,6.8,0,9.5l35.8,35.8H115.3
	c-3.7,0-6.7,3-6.7,6.7S111.7,69.6,115.3,69.6z"/>
</svg>
