<?xml version="1.0" encoding="utf-8"?>
<!-- Generator: Adobe Illustrator 26.0.2, SVG Export Plug-In . SVG Version: 6.00 Build 0)  -->
<svg version="1.1" id="Ebene_1" xmlns="http://www.w3.org/2000/svg" xmlns:xlink="http://www.w3.org/1999/xlink" x="0px" y="0px"
	 width="471px" height="466px" viewBox="0 0 471 466" style="enable-background:new 0 0 471 466;" xml:space="preserve">
<style type="text/css">
	.st0{fill:#FFFFFF;}
	.st1{fill:#5E6575;}
</style>
<g>
	<g>
		<path class="st0" d="M420.2,332.4c-4.3-5-11.8-5.8-17.1-1.8c-14.7,11.3-33.7,24.9-54.6,49.4c0,0-20.4,16.3-29,17.3L216.8,402
			l-1.1-0.7c-2.2-1.4-2.4-4.5-0.4-6.1l1.1-0.9l87.8-17.1c6.8-1.1,11.4-7.5,10.1-14.3c-1.2-6.6-7.5-11.1-14.1-9.9
			c-21.6,3.6-69.3,6.9-76.8,6.3c-12.7-0.9-33.7-19.1-56.2-19.1c-22.9,0-54.7,7.5-65.9,10.3v-0.8H77.9v-10.3H0.2V452H78v-9.4h23.4
			v-6.1c53.4,7.5,144,19.8,144,19.8s22.1,2,29.6-1c7.4-3,64.2-20.8,64.2-20.8s12.3-4,16-8.9c3-4,45.7-54.7,65-77
			C424.2,344,424.2,337.1,420.2,332.4z"/>
	</g>
	<g>
		<g id="XMLID_11_">
			<path class="st1" d="M414.4,334.9c-6.7-7.8-18.4-9-26.5-2.8c-1.4,1.1-2.9,2.2-4.4,3.3c-14.1,10.8-20.6,17.2-39.8,39.5
				c-8.9,7.1-20.8,17.7-24.9,18.4l-61.1-0.1l47.6-9.3c5.1-0.8,9.5-3.6,12.5-7.8c3-4.2,4.1-9.4,3.2-14.5c-1.8-10.3-11.7-17.2-22-15.5
				c-22.2,3.8-61.8,1.7-68.1,1.3c-3.9-0.3-10.2-3.4-16.8-6.7c-11.2-5.5-32.2-12.4-47-12.4c-24.2,0-31.4,8.7-40,11.6
				c-1.3-1.5-3.1-2.6-5.2-2.6H84.5V336c0-3.8-2.6-7.1-6.4-7.1l-77.7-6c-3.8,0-6.9,3.2-6.9,7s3.1,7,6.9,7l70.9,6v101.4l-70.9,2
				c-3.8,0-6.9,2.8-6.9,6.6s3.1,6.6,6.9,6.6l77.6-2c3.8,0,6.4-2.6,6.4-6.4V450h37.4c3.6,0,6.5-3,6.8-6.5
				c43,7.4,114.6,15.5,115.6,15.6c0.1,0,0.2,0,0.3,0c2,0.2,8.3,0.6,15.1,0.6c6.5,0,13.6-0.5,17.7-2.2c5.9-2.4,48-7.7,63.8-12.6
				c3.4-1.1,14.8-9.1,19.5-15.3c2.9-3.8,34.6-47.6,53.7-69.6C420.6,353,420.6,342.1,414.4,334.9z M115.6,436H84.5v-84.6h31.1V436z
				 M404,351.2c-18.5,21.3-50.9,69.9-54.3,74.3c-1.4,1.9-7.8,4.9-12.6,6.5c-2.3,0.7-57.2,9.9-64.8,13c-3.6,1.4-16.5,1.4-26.3,0.5
				c-4.4-0.6-77-8.9-117.2-16.1v-71.2h0.1c2.6-0.9,11.4-16,38.2-16c11.6,0,30.5,5.8,40.9,11c8.3,4.1,15.4,7.6,21.9,8.1
				c8.6,0.6,50.3,2.1,71.4-1.4c2.9-0.5,5.7,1.5,6.2,4.4c0.3,1.4-0.1,2.9-0.9,4.1s-2.1,2-3.6,2.2c-0.1,0-0.2,0-0.2,0L228,387.7
				c-1.2,0.2-2.2,0.7-3.1,1.5l-1.1,0.9c-2.6,2.2-4,5.5-3.7,8.9c0.2,3.4,2.1,6.5,5,8.3l1.1,0.7c1.2,0.7,2.6,1.1,4,1l89.7-1.8
				c0.2,0,0.3,0,0.5,0c9.8-1.1,27.4-17.6,32.5-21.7c0.3-0.3,0.7-0.6,0.9-0.9c18.4-21.6,24.5-27.6,38.2-38c1.5-1.2,3-2.3,4.4-3.4
				c2.4-1.8,5.7-1.5,7.7,0.8C405.8,346,405.8,349,404,351.2z"/>
		</g>
	</g>
</g>
</svg>
