<svg xmlns="http://www.w3.org/2000/svg" viewBox="0 0 126.354 32"><path fill="#FFF" d="M16 32C7.178 32 0 24.822 0 16S7.178 0 16 0s16 7.178 16 16-7.178 16-16 16zM16 .964C7.708.964.964 7.709.964 16c0 8.292 6.744 15.037 15.036 15.037 8.291 0 15.037-6.745 15.037-15.037C31.037 7.709 24.291.964 16 .964z"/><path fill="#FFF" d="M11.271 24.011a.484.484 0 01-.481-.481V8.472a.482.482 0 01.718-.419l13.346 7.527a.483.483 0 010 .839l-13.346 7.53a.49.49 0 01-.237.062zm.481-14.714v13.407L23.639 16 11.752 9.297z"/><text transform="translate(42.632 20.01)" fill="#FFF" font-family="'MyriadPro-Semibold'" font-size="12">Watch the video</text></svg>