<?xml version="1.0" encoding="utf-8"?>
<!-- Generator: Adobe Illustrator 16.0.0, SVG Export Plug-In . SVG Version: 6.00 Build 0)  -->
<!DOCTYPE svg PUBLIC "-//W3C//DTD SVG 1.1//EN" "http://www.w3.org/Graphics/SVG/1.1/DTD/svg11.dtd">
<svg version="1.1" id="Ebene_1" xmlns="http://www.w3.org/2000/svg" xmlns:xlink="http://www.w3.org/1999/xlink" x="0px" y="0px"
	 width="110.5px" height="37.667px" viewBox="0 0 110.5 37.667" enable-background="new 0 0 110.5 37.667" xml:space="preserve">
<line fill="none" stroke="#505050" stroke-width="2" stroke-miterlimit="10" x1="37.918" y1="10.492" x2="46.024" y2="10.492"/>
<line fill="none" stroke="#505050" stroke-width="2" stroke-miterlimit="10" x1="47.342" y1="10.492" x2="55.448" y2="10.492"/>
<line fill="none" stroke="#505050" stroke-width="2" stroke-miterlimit="10" x1="56.766" y1="10.492" x2="64.872" y2="10.492"/>
<line fill="none" stroke="#505050" stroke-width="2" stroke-miterlimit="10" x1="66.19" y1="10.492" x2="74.296" y2="10.492"/>
<rect x="96.819" y="9.305" width="5.945" height="1.188"/>
<rect x="96.819" y="10.493" fill="#DB140C" width="5.945" height="1.188"/>
<rect x="96.819" y="11.68" fill="#FCCC24" width="5.945" height="1.188"/>
<path fill="none" stroke="#9B9B9B" stroke-miterlimit="10" d="M110,35.75c0,0.783-0.635,1.418-1.418,1.418H1.917
	c-0.783,0-1.417-0.635-1.417-1.418V1.917C0.5,1.134,1.135,0.5,1.917,0.5h106.665c0.783,0,1.418,0.635,1.418,1.418V35.75z"/>
<g>
	<circle fill="none" stroke="#6B6B6B" stroke-width="0.75" stroke-miterlimit="10" cx="90.743" cy="9.753" r="1.803"/>
	<line fill="none" stroke="#6B6B6B" stroke-width="0.75" stroke-miterlimit="10" x1="91.997" y1="11.314" x2="93.717" y2="13.035"/>
</g>
<line fill="none" stroke="#AAAAAA" stroke-miterlimit="10" x1="109.57" y1="20.803" x2="0.07" y2="20.803"/>
<g>
	<rect x="5.637" y="4.742" fill="#5B5B5B" width="20.359" height="11.5"/>
	<g>
		<path fill="#FFFFFF" d="M8.159,13.569V7.417h1.244v5.298h1.224v0.854H8.159z"/>
		<path fill="#FFFFFF" d="M11.119,11.545V9.478c0-1.454,0.6-2.181,1.798-2.181c1.201,0,1.802,0.727,1.802,2.181v2.037
			c0,0.246-0.019,0.473-0.055,0.682c-0.037,0.208-0.099,0.406-0.187,0.593s-0.199,0.346-0.335,0.477
			c-0.136,0.131-0.307,0.234-0.515,0.31c-0.207,0.075-0.444,0.113-0.711,0.113c-0.264,0-0.5-0.037-0.707-0.111
			c-0.208-0.074-0.379-0.175-0.513-0.301c-0.135-0.127-0.246-0.282-0.334-0.465c-0.087-0.184-0.15-0.379-0.188-0.586
			C11.138,12.018,11.119,11.792,11.119,11.545z M13.475,11.826V9.167c0-0.606-0.186-0.909-0.558-0.909
			c-0.111,0-0.206,0.028-0.283,0.084c-0.078,0.056-0.135,0.132-0.171,0.229c-0.037,0.097-0.062,0.193-0.077,0.287
			c-0.015,0.095-0.022,0.198-0.022,0.31v2.659c0,0.604,0.185,0.906,0.554,0.906C13.289,12.731,13.475,12.43,13.475,11.826z"/>
		<path fill="#FFFFFF" d="M15.468,11.645V9.478c0-1.454,0.605-2.181,1.815-2.181c0.255,0,0.482,0.034,0.682,0.101
			c0.199,0.067,0.366,0.16,0.501,0.278c0.134,0.119,0.245,0.264,0.331,0.438c0.087,0.173,0.149,0.361,0.188,0.564
			c0.038,0.203,0.058,0.426,0.058,0.67V9.71h-1.189V9.279c0-0.107-0.003-0.201-0.009-0.282c-0.005-0.081-0.02-0.171-0.042-0.271
			c-0.023-0.099-0.054-0.18-0.093-0.244c-0.038-0.064-0.095-0.117-0.167-0.161c-0.073-0.043-0.16-0.065-0.26-0.065
			c-0.381,0-0.571,0.303-0.571,0.909v2.656c0,0.604,0.19,0.906,0.571,0.906c0.378,0,0.567-0.313,0.567-0.94v-0.492h-0.704v-0.892
			h1.948v3.165H18.24l-0.157-0.431c-0.105,0.164-0.254,0.297-0.448,0.398c-0.193,0.101-0.393,0.152-0.598,0.152
			c-0.222,0-0.423-0.041-0.604-0.122c-0.182-0.081-0.33-0.188-0.448-0.321c-0.117-0.133-0.216-0.29-0.295-0.47
			c-0.08-0.18-0.137-0.364-0.171-0.552C15.485,12.036,15.468,11.843,15.468,11.645z"/>
		<path fill="#FFFFFF" d="M19.874,11.545V9.478c0-1.454,0.6-2.181,1.798-2.181c1.201,0,1.802,0.727,1.802,2.181v2.037
			c0,0.246-0.019,0.473-0.055,0.682c-0.037,0.208-0.099,0.406-0.187,0.593s-0.199,0.346-0.335,0.477
			c-0.136,0.131-0.307,0.234-0.515,0.31c-0.207,0.075-0.444,0.113-0.711,0.113c-0.264,0-0.5-0.037-0.707-0.111
			c-0.208-0.074-0.379-0.175-0.513-0.301c-0.135-0.127-0.246-0.282-0.334-0.465c-0.087-0.184-0.15-0.379-0.188-0.586
			C19.893,12.018,19.874,11.792,19.874,11.545z M22.229,11.826V9.167c0-0.606-0.186-0.909-0.558-0.909
			c-0.111,0-0.206,0.028-0.283,0.084c-0.078,0.056-0.135,0.132-0.171,0.229c-0.037,0.097-0.062,0.193-0.077,0.287
			c-0.015,0.095-0.022,0.198-0.022,0.31v2.659c0,0.604,0.185,0.906,0.554,0.906C22.044,12.731,22.229,12.43,22.229,11.826z"/>
	</g>
</g>
</svg>
