<?xml version="1.0" encoding="utf-8"?>
<!-- Generator: Adobe Illustrator 16.0.0, SVG Export Plug-In . SVG Version: 6.00 Build 0)  -->
<!DOCTYPE svg PUBLIC "-//W3C//DTD SVG 1.1//EN" "http://www.w3.org/Graphics/SVG/1.1/DTD/svg11.dtd">
<svg version="1.1" id="Ebene_1" xmlns="http://www.w3.org/2000/svg" xmlns:xlink="http://www.w3.org/1999/xlink" x="0px" y="0px"
	 width="110.5px" height="37.667px" viewBox="0 0 110.5 37.667" enable-background="new 0 0 110.5 37.667" xml:space="preserve">
<line fill="none" stroke="#505050" stroke-width="2" stroke-miterlimit="10" x1="46.396" y1="10.492" x2="54.501" y2="10.492"/>
<line fill="none" stroke="#505050" stroke-width="2" stroke-miterlimit="10" x1="55.82" y1="10.492" x2="63.926" y2="10.492"/>
<line fill="none" stroke="#505050" stroke-width="2" stroke-miterlimit="10" x1="65.244" y1="10.492" x2="73.35" y2="10.492"/>
<line fill="none" stroke="#505050" stroke-width="2" stroke-miterlimit="10" x1="74.668" y1="10.492" x2="82.773" y2="10.492"/>
<rect x="96.818" y="9.305" width="5.945" height="1.188"/>
<rect x="96.818" y="10.492" fill="#DB140C" width="5.945" height="1.188"/>
<rect x="96.818" y="11.68" fill="#FCCC24" width="5.945" height="1.188"/>
<path fill="none" stroke="#9B9B9B" stroke-miterlimit="10" d="M110,35.75c0,0.783-0.635,1.418-1.418,1.418H1.917
	c-0.783,0-1.417-0.635-1.417-1.418V1.918C0.5,1.135,1.135,0.5,1.917,0.5h106.665c0.783,0,1.418,0.635,1.418,1.418V35.75z"/>
<g>
	<circle fill="none" stroke="#6B6B6B" stroke-width="0.75" stroke-miterlimit="10" cx="90.743" cy="9.754" r="1.803"/>
	<line fill="none" stroke="#6B6B6B" stroke-width="0.75" stroke-miterlimit="10" x1="91.997" y1="11.314" x2="93.717" y2="13.035"/>
</g>
<line fill="none" stroke="#AAAAAA" stroke-miterlimit="10" x1="109.57" y1="20.803" x2="0.07" y2="20.803"/>
<rect x="0.799" y="5.328" fill="#5B5B5B" width="20.359" height="11.501"/>
<g>
	<path fill="#FFFFFF" d="M3.322,14.155V8.003h1.244v5.298H5.79v0.854H3.322z"/>
	<path fill="#FFFFFF" d="M6.282,12.132v-2.067c0-1.454,0.6-2.182,1.798-2.182c1.201,0,1.802,0.728,1.802,2.182v2.037
		c0,0.246-0.019,0.473-0.055,0.682c-0.037,0.208-0.099,0.406-0.187,0.593s-0.199,0.346-0.335,0.477
		c-0.136,0.132-0.307,0.234-0.515,0.31c-0.207,0.075-0.444,0.113-0.711,0.113c-0.264,0-0.5-0.037-0.707-0.111
		c-0.208-0.074-0.379-0.175-0.513-0.301c-0.135-0.127-0.246-0.281-0.334-0.465c-0.087-0.184-0.15-0.379-0.188-0.586
		C6.3,12.604,6.282,12.378,6.282,12.132z M8.637,12.412V9.753c0-0.606-0.186-0.909-0.558-0.909c-0.111,0-0.206,0.027-0.283,0.084
		C7.718,8.983,7.662,9.06,7.625,9.156C7.588,9.254,7.563,9.35,7.548,9.443c-0.015,0.095-0.022,0.197-0.022,0.31v2.659
		c0,0.604,0.185,0.906,0.554,0.906C8.452,13.318,8.637,13.016,8.637,12.412z"/>
	<path fill="#FFFFFF" d="M10.63,12.23v-2.166c0-1.454,0.605-2.182,1.815-2.182c0.255,0,0.482,0.034,0.682,0.102
		c0.199,0.066,0.366,0.16,0.501,0.278c0.134,0.118,0.245,0.265,0.331,0.438c0.087,0.173,0.149,0.361,0.188,0.563
		c0.038,0.203,0.058,0.427,0.058,0.67v0.363h-1.189V9.865c0-0.106-0.003-0.201-0.009-0.281c-0.005-0.081-0.02-0.171-0.042-0.271
		c-0.023-0.099-0.054-0.181-0.093-0.244c-0.038-0.063-0.095-0.117-0.167-0.161c-0.073-0.043-0.16-0.064-0.26-0.064
		c-0.381,0-0.571,0.303-0.571,0.909v2.655c0,0.604,0.19,0.906,0.571,0.906c0.378,0,0.567-0.313,0.567-0.939v-0.492h-0.704V10.99
		h1.948v3.165h-0.854l-0.157-0.431c-0.105,0.164-0.254,0.297-0.448,0.398c-0.193,0.102-0.393,0.152-0.598,0.152
		c-0.222,0-0.423-0.041-0.604-0.122c-0.182-0.081-0.33-0.188-0.448-0.321c-0.117-0.133-0.216-0.289-0.295-0.47
		c-0.08-0.181-0.137-0.364-0.171-0.552C10.648,12.622,10.63,12.43,10.63,12.23z"/>
	<path fill="#FFFFFF" d="M15.037,12.132v-2.067c0-1.454,0.6-2.182,1.798-2.182c1.201,0,1.802,0.728,1.802,2.182v2.037
		c0,0.246-0.019,0.473-0.055,0.682c-0.037,0.208-0.099,0.406-0.187,0.593s-0.199,0.346-0.335,0.477
		c-0.136,0.132-0.307,0.234-0.515,0.31c-0.207,0.075-0.444,0.113-0.711,0.113c-0.264,0-0.5-0.037-0.707-0.111
		c-0.208-0.074-0.379-0.175-0.513-0.301c-0.135-0.127-0.246-0.281-0.334-0.465c-0.087-0.184-0.15-0.379-0.188-0.586
		C15.055,12.604,15.037,12.378,15.037,12.132z M17.392,12.412V9.753c0-0.606-0.186-0.909-0.558-0.909
		c-0.111,0-0.206,0.027-0.283,0.084c-0.078,0.056-0.135,0.132-0.171,0.229c-0.037,0.098-0.062,0.193-0.077,0.287
		c-0.015,0.095-0.022,0.197-0.022,0.31v2.659c0,0.604,0.185,0.906,0.554,0.906C17.207,13.318,17.392,13.016,17.392,12.412z"/>
</g>
</svg>
