<?xml version="1.0" encoding="utf-8"?>
<!-- Generator: Adobe Illustrator 16.0.0, SVG Export Plug-In . SVG Version: 6.00 Build 0)  -->
<!DOCTYPE svg PUBLIC "-//W3C//DTD SVG 1.1//EN" "http://www.w3.org/Graphics/SVG/1.1/DTD/svg11.dtd">
<svg version="1.1" id="Ebene_1" xmlns="http://www.w3.org/2000/svg" xmlns:xlink="http://www.w3.org/1999/xlink" x="0px" y="0px"
	 width="110.5px" height="37.667px" viewBox="0 0 110.5 37.667" enable-background="new 0 0 110.5 37.667" xml:space="preserve">
<rect x="0.996" y="20.503" width="108.478" height="10"/>
<line fill="none" stroke="#A3A3A3" stroke-width="2" stroke-miterlimit="10" x1="76.47" y1="10.492" x2="84.303" y2="10.492"/>
<line fill="none" stroke="#A3A3A3" stroke-width="2" stroke-miterlimit="10" x1="85.701" y1="10.492" x2="93.534" y2="10.492"/>
<line fill="none" stroke="#A3A3A3" stroke-width="2" stroke-miterlimit="10" x1="94.931" y1="10.492" x2="102.763" y2="10.492"/>
<g>
	<line fill="none" stroke="#505050" stroke-width="2" stroke-miterlimit="10" x1="7.697" y1="25.503" x2="15.803" y2="25.503"/>
	<line fill="none" stroke="#505050" stroke-width="2" stroke-miterlimit="10" x1="17.122" y1="25.503" x2="25.228" y2="25.503"/>
	<line fill="none" stroke="#505050" stroke-width="2" stroke-miterlimit="10" x1="26.545" y1="25.503" x2="34.652" y2="25.503"/>
	<line fill="none" stroke="#505050" stroke-width="2" stroke-miterlimit="10" x1="35.97" y1="25.503" x2="44.076" y2="25.503"/>
</g>
<g>
	<rect x="96.819" y="23.668" width="5.944" height="1.188"/>
	<rect x="96.819" y="24.855" fill="#DB140C" width="5.944" height="1.188"/>
	<rect x="96.819" y="26.043" fill="#FCCC24" width="5.944" height="1.188"/>
</g>
<path fill="none" stroke="#9B9B9B" stroke-miterlimit="10" d="M110,35.749c0,0.783-0.635,1.418-1.417,1.418H1.917
	c-0.782,0-1.417-0.635-1.417-1.418V1.917C0.5,1.135,1.135,0.5,1.917,0.5h106.665c0.782,0,1.417,0.635,1.417,1.417V35.749z"/>
<g>
	<circle fill="none" stroke="#6B6B6B" stroke-width="0.75" stroke-miterlimit="10" cx="90.743" cy="24.343" r="1.803"/>
	<line fill="none" stroke="#6B6B6B" stroke-width="0.75" stroke-miterlimit="10" x1="91.998" y1="25.903" x2="93.716" y2="27.624"/>
</g>
<g>
	<rect x="7.697" y="4.329" fill="#5B5B5B" width="20.359" height="11.5"/>
	<g>
		<path fill="#FFFFFF" d="M10.22,13.155V7.003h1.244v5.298h1.223v0.854H10.22z"/>
		<path fill="#FFFFFF" d="M13.179,11.132V9.063c0-1.453,0.6-2.18,1.799-2.18c1.201,0,1.801,0.727,1.801,2.18v2.037
			c0,0.246-0.018,0.474-0.055,0.683c-0.037,0.208-0.098,0.405-0.186,0.593s-0.199,0.346-0.336,0.477
			c-0.135,0.131-0.307,0.234-0.514,0.31s-0.445,0.112-0.711,0.112c-0.264,0-0.5-0.037-0.707-0.11
			c-0.209-0.074-0.379-0.175-0.514-0.301c-0.135-0.127-0.246-0.282-0.334-0.465c-0.086-0.184-0.15-0.379-0.188-0.587
			C13.199,11.604,13.179,11.378,13.179,11.132z M15.535,11.412V8.753c0-0.605-0.186-0.909-0.557-0.909
			c-0.111,0-0.207,0.028-0.283,0.084c-0.078,0.056-0.135,0.132-0.172,0.229s-0.062,0.192-0.076,0.287
			c-0.016,0.095-0.023,0.198-0.023,0.31v2.659c0,0.604,0.186,0.905,0.555,0.905C15.349,12.317,15.535,12.017,15.535,11.412z"/>
		<path fill="#FFFFFF" d="M17.529,11.231V9.063c0-1.453,0.605-2.18,1.814-2.18c0.256,0,0.482,0.033,0.682,0.101
			s0.367,0.159,0.502,0.278c0.133,0.119,0.244,0.264,0.33,0.438c0.088,0.174,0.15,0.361,0.189,0.564
			c0.037,0.202,0.057,0.426,0.057,0.67v0.361h-1.189v-0.43c0-0.107-0.002-0.201-0.008-0.282s-0.02-0.171-0.043-0.271
			c-0.023-0.099-0.053-0.18-0.092-0.244s-0.096-0.117-0.168-0.16c-0.072-0.044-0.16-0.065-0.26-0.065
			c-0.381,0-0.57,0.304-0.57,0.909v2.656c0,0.604,0.189,0.905,0.57,0.905c0.379,0,0.568-0.313,0.568-0.94v-0.492h-0.705V9.99h1.949
			v3.165H20.3l-0.156-0.431c-0.105,0.164-0.254,0.297-0.449,0.398c-0.193,0.101-0.393,0.151-0.598,0.151
			c-0.221,0-0.422-0.04-0.604-0.121c-0.182-0.08-0.33-0.188-0.447-0.321c-0.117-0.133-0.217-0.29-0.295-0.47
			c-0.08-0.18-0.137-0.364-0.172-0.552C17.546,11.622,17.529,11.429,17.529,11.231z"/>
		<path fill="#FFFFFF" d="M21.935,11.132V9.063c0-1.453,0.6-2.18,1.797-2.18c1.201,0,1.803,0.727,1.803,2.18v2.037
			c0,0.246-0.02,0.474-0.055,0.683c-0.037,0.208-0.1,0.405-0.188,0.593s-0.199,0.346-0.334,0.477
			c-0.137,0.131-0.307,0.234-0.516,0.31c-0.207,0.075-0.443,0.112-0.711,0.112c-0.264,0-0.5-0.037-0.707-0.11
			c-0.207-0.074-0.379-0.175-0.512-0.301c-0.135-0.127-0.246-0.282-0.334-0.465c-0.088-0.184-0.15-0.379-0.188-0.587
			C21.953,11.604,21.935,11.378,21.935,11.132z M24.291,11.412V8.753c0-0.605-0.186-0.909-0.559-0.909
			c-0.111,0-0.205,0.028-0.283,0.084s-0.135,0.132-0.17,0.229c-0.037,0.097-0.062,0.192-0.078,0.287
			c-0.014,0.095-0.021,0.198-0.021,0.31v2.659c0,0.604,0.184,0.905,0.553,0.905C24.105,12.317,24.291,12.017,24.291,11.412z"/>
	</g>
</g>
</svg>
