<svg xmlns="http://www.w3.org/2000/svg" viewBox="0 0 160 160"><circle fill="#4877A8" cx="80" cy="80" r="80"/><path fill="#4E86BD" d="M71.257 159.516c2.873.312 5.787.484 8.743.484 43.52 0 78.898-34.759 79.95-78.023-44.736 1.466-81.481 34.496-88.693 77.539z"/><path fill="#FFF" d="M41.666 123.256c0 1.058-.823 1.88-1.88 1.88H28.503a1.855 1.855 0 01-1.88-1.88v-11.283c0-1.058.823-1.88 1.88-1.88h11.282c1.058 0 1.88.822 1.88 1.88v11.283zm22.564 0c0 1.058-.823 1.88-1.88 1.88H51.068a1.855 1.855 0 01-1.88-1.88v-18.805c0-1.058.823-1.88 1.88-1.88H62.35c1.058 0 1.88.822 1.88 1.88v18.805zm22.565 0c0 1.058-.822 1.88-1.881 1.88H73.632a1.855 1.855 0 01-1.88-1.88V89.408c0-1.058.823-1.88 1.88-1.88h11.282c1.059 0 1.881.822 1.881 1.88v33.848zm22.564 0c0 1.058-.822 1.88-1.881 1.88H96.197a1.856 1.856 0 01-1.881-1.88V66.844c0-1.058.822-1.88 1.881-1.88h11.281c1.059 0 1.881.822 1.881 1.88v56.412zm22.565 0c0 1.058-.822 1.88-1.881 1.88h-11.281a1.856 1.856 0 01-1.881-1.88V36.758c0-1.058.822-1.88 1.881-1.88h11.281c1.059 0 1.881.822 1.881 1.88v86.498z"/></svg>