<svg xmlns="http://www.w3.org/2000/svg" viewBox="0 0 147 147"><path fill="#FFF" d="M73.5 147C32.972 147 0 114.027 0 73.5 0 32.972 32.972 0 73.5 0 114.027 0 147 32.972 147 73.5c0 40.527-32.973 73.5-73.5 73.5zm0-144C34.626 3 3 34.626 3 73.5S34.626 144 73.5 144 144 112.374 144 73.5 112.374 3 73.5 3z"/><path fill="#FFF" d="M111.221 60.5h-74a1.5 1.5 0 110-3h74a1.5 1.5 0 110 3zM86.72 52.5a1.502 1.502 0 01-1.061-2.56c.561-.56 1.561-.56 2.119 0a1.499 1.499 0 01-1.058 2.56zM94.72 52.5a1.503 1.503 0 01-1.5-1.5c0-.4.16-.78.439-1.06.551-.56 1.561-.56 2.119 0 .28.28.44.67.44 1.06s-.16.78-.44 1.06c-.279.28-.67.44-1.058.44zM102.72 52.5a1.503 1.503 0 01-1.5-1.5c0-.4.16-.78.439-1.06.551-.56 1.561-.56 2.119 0a1.499 1.499 0 01-1.058 2.56z"/><path fill="#FFF" d="M111.721 105.5h-76a1.5 1.5 0 01-1.5-1.5V43a1.5 1.5 0 011.5-1.5h76a1.5 1.5 0 011.5 1.5v61a1.5 1.5 0 01-1.5 1.5zm-74.5-3h73v-58h-73v58z"/></svg>