<svg xmlns="http://www.w3.org/2000/svg" viewBox="0 0 61.34 71.438"><path fill="#FFF" d="M59.689 15.734l-14.34-5.55-4.789-1.85-.04-.02a1.03 1.03 0 00-.569-.05 1.033 1.033 0 00-.719.62.938.938 0 00-.068.36c0 3.22-3.811 5.83-8.5 5.83s-8.49-2.601-8.5-5.82c0-.12-.02-.25-.07-.37-.1-.27-.3-.46-.54-.56a.605.605 0 00-.19-.061c-.06-.01-.12-.02-.19-.02-.12 0-.25.02-.37.069l-.04.021-4.78 1.85-14.35 5.55c-.42.16-.68.591-.63 1.051.03.25.81 6.27 5.87 12.739.26.33.7.471 1.1.341l.56-.181c1.46-.49 3.28-1.09 4.3-.42.65.43 1.04 1.4 1.17 2.9.49 5.709.08 25.92.08 26.12-.01.359.18.699.49.891.18.1 4.62 2.629 16.09 2.629 11.48 0 15.91-2.529 16.09-2.629.311-.19.5-.53.49-.891 0-.199-.41-20.41.078-26.12.131-1.5.521-2.471 1.172-2.9 1.02-.67 2.84-.07 4.309.42l.561.181c.4.13.83-.011 1.091-.341 5.062-6.47 5.84-12.489 5.87-12.739a.987.987 0 00-.636-1.05z"/></svg>