<svg xmlns="http://www.w3.org/2000/svg" viewBox="0 0 713.646 115.597"><circle opacity=".8" fill="#F7F7F7" cx="570.98" cy="52.202" r="23.333"/><circle fill="#F7F7F7" cx="503.647" cy="10.201" r="26"/><circle fill="#F7F7F7" cx="430.98" cy="17.535" r="22.666"/><circle opacity=".8" fill="#F7F7F7" cx="370.98" cy="17.535" r="19.334"/><circle fill="#F7F7F7" cx="277.647" cy="34.201" r="12.667"/><circle opacity=".8" fill="#F7F7F7" cx="322.314" cy="10.201" r="25.334"/><circle fill="#F7F7F7" cx="131.647" cy="67.271" r="15.068"/><circle fill="#F7F7F7" cx="224.98" cy="36.466" r="18.932"/><circle opacity=".8" fill="#F7F7F7" cx="191.647" cy="64.201" r="12.667"/><circle fill="#F7F7F7" cx="140.98" cy="1.535" r="39.334"/><circle fill="#F7F7F7" cx="56.314" cy="46.868" r="16"/><circle fill="#F7F7F7" cx="16.979" cy="21.534" r="9.334"/><circle fill="#F7F7F7" cx="9.334" cy="1.535" r="9.334"/><circle opacity=".8" fill="#F7F7F7" cx="44.314" cy="14.731" r="12"/><circle fill="#F7F7F7" cx="573.647" cy="1.535" r="14"/><circle fill="#F7F7F7" cx="624.314" cy="22.201" r="30.001"/><circle fill="#F7F7F7" cx="684.314" cy="-7.936" r="22.667"/><circle fill="#F7F7F7" cx="534.314" cy="96.465" r="13.333"/><circle fill="#F7F7F7" cx="442.981" cy="75.535" r="8"/><circle fill="#F7F7F7" cx="344.156" cy="75.535" r="12.667"/></svg>