<svg xmlns="http://www.w3.org/2000/svg" viewBox="0 0 36.598 44.873"><path fill="#3C4753" d="M18.341 36.285c-5.595 0-10.146-4.552-10.146-10.146 0-5.595 4.552-10.146 10.146-10.146 5.595 0 10.146 4.552 10.146 10.146 0 5.594-4.551 10.146-10.146 10.146zm0-19.223c-5.005 0-9.075 4.071-9.075 9.076 0 5.006 4.07 9.076 9.075 9.076s9.076-4.07 9.076-9.076c0-5.005-4.072-9.076-9.076-9.076z"/><path fill="#3C4753" d="M18.341 36.285c-5.595 0-10.146-4.552-10.146-10.146 0-5.595 4.552-10.146 10.146-10.146 5.595 0 10.146 4.552 10.146 10.146 0 5.594-4.551 10.146-10.146 10.146zm0-19.223c-5.005 0-9.075 4.071-9.075 9.076 0 5.006 4.07 9.076 9.075 9.076s9.076-4.07 9.076-9.076c0-5.005-4.072-9.076-9.076-9.076z"/><path fill="#3C4753" d="M18.341 36.285c-5.595 0-10.146-4.552-10.146-10.146 0-5.595 4.552-10.146 10.146-10.146 5.595 0 10.146 4.552 10.146 10.146 0 5.594-4.551 10.146-10.146 10.146zm0-19.223c-5.005 0-9.075 4.071-9.075 9.076 0 5.006 4.07 9.076 9.075 9.076s9.076-4.07 9.076-9.076c0-5.005-4.072-9.076-9.076-9.076z"/><path fill="#3C4753" d="M13.1 18.312a.536.536 0 01-.378-.157l-3.966-3.964a.537.537 0 01.758-.757l3.964 3.965a.534.534 0 01-.378.913zM10.049 21.369a.535.535 0 01-.378-.156l-3.951-3.95a.535.535 0 01.757-.757l3.95 3.951a.536.536 0 01-.378.912zM30.654 35.866a.54.54 0 01-.379-.156l-3.964-3.965a.534.534 0 11.757-.756l3.964 3.965a.534.534 0 01-.378.912zM27.602 38.924a.544.544 0 01-.378-.155l-3.95-3.953a.534.534 0 11.756-.756l3.951 3.953a.534.534 0 01-.379.911zM26.692 21.366a.535.535 0 01-.378-.912l3.964-3.965a.535.535 0 01.757.757L27.07 21.21a.535.535 0 01-.378.156zM23.635 18.315a.534.534 0 01-.378-.913l3.951-3.951a.534.534 0 11.756.757l-3.949 3.95a.54.54 0 01-.38.157zM9.138 38.921a.543.543 0 01-.379-.156.537.537 0 010-.757l3.965-3.965a.535.535 0 01.757.757l-3.964 3.965a.541.541 0 01-.379.156zM6.082 35.869a.534.534 0 01-.379-.912l3.951-3.951a.534.534 0 11.756.757l-3.95 3.95a.536.536 0 01-.378.156z"/><path fill="#3C4753" d="M18.34 42.16c-8.834 0-16.02-7.188-16.02-16.021 0-8.834 7.188-16.021 16.02-16.021 8.834 0 16.022 7.188 16.022 16.021 0 8.834-7.185 16.021-16.022 16.021zm0-30.355c-7.903 0-14.33 6.429-14.33 14.332 0 7.904 6.427 14.332 14.33 14.332s14.332-6.428 14.332-14.332c0-7.903-6.429-14.332-14.332-14.332z"/></svg>