<svg xmlns="http://www.w3.org/2000/svg" viewBox="0 0 34.896 35.455"><path fill="#FFF" d="M10.816 2.456a15.297 15.297 0 016.076-1.239 15.3 15.3 0 016.076 1.239c1.932.827 3.597 1.938 4.993 3.335s2.508 3.062 3.335 4.993a15.304 15.304 0 011.239 6.076 15.3 15.3 0 01-1.239 6.076c-.827 1.932-1.938 3.596-3.335 4.993-1.396 1.396-3.062 2.508-4.993 3.334a15.288 15.288 0 01-6.076 1.24 15.28 15.28 0 01-6.076-1.24c-1.933-.826-3.597-1.938-4.994-3.334-1.396-1.397-2.508-3.062-3.334-4.993a15.288 15.288 0 01-1.24-6.076c0-2.119.413-4.144 1.24-6.076.826-1.932 1.938-3.596 3.334-4.993 1.397-1.397 3.061-2.508 4.994-3.335zM5.054 23.163l3.387-3.387c-.326-.955-.489-1.927-.489-2.916s.163-1.961.489-2.916l-3.387-3.387a13.35 13.35 0 00-1.571 6.303c0 2.212.524 4.313 1.571 6.303zm7.097-1.562c1.31 1.31 2.89 1.964 4.74 1.964s3.431-.654 4.74-1.964 1.964-2.89 1.964-4.74-.654-3.431-1.964-4.74-2.89-1.964-4.74-1.964-3.431.655-4.74 1.964-1.964 2.89-1.964 4.74.655 3.43 1.964 4.74zm4.74-18.149c-2.211 0-4.312.523-6.303 1.571l3.387 3.387a8.96 8.96 0 015.832 0l3.387-3.387a13.341 13.341 0 00-6.303-1.571zm0 26.817c2.211 0 4.312-.523 6.303-1.571l-3.387-3.387c-.955.326-1.927.489-2.916.489s-1.961-.163-2.916-.489l-3.387 3.387c1.991 1.047 4.092 1.571 6.303 1.571zm8.451-10.493l3.388 3.387a13.35 13.35 0 001.571-6.303c0-2.211-.524-4.312-1.571-6.303l-3.388 3.387c.326.955.489 1.927.489 2.916s-.163 1.961-.489 2.916z"/></svg>