<svg xmlns="http://www.w3.org/2000/svg" viewBox="0 0 32 32"><path fill="#FFF" d="M29.451 21.677v1.354c0 .747-1.015 1.353-2.256 1.353H4.639c-1.242 0-2.256-.604-2.256-1.353v-1.354h27.068zM5.992 18.52V8.594a2.261 2.261 0 012.255-2.255h15.339a2.262 2.262 0 012.255 2.255v9.925a2.262 2.262 0 01-2.255 2.256H8.248a2.262 2.262 0 01-2.256-2.255zm1.804 0c0 .239.212.451.452.451h15.339a.465.465 0 00.451-.451V8.594a.465.465 0 00-.451-.451H8.248a.464.464 0 00-.452.451v9.926zm9.475 4.285a.223.223 0 00-.226-.225H14.79a.223.223 0 00-.226.225c0 .128.098.226.226.226h2.255a.223.223 0 00.226-.226z"/></svg>