<?xml version="1.0" standalone="no"?>
<!DOCTYPE svg PUBLIC "-//W3C//DTD SVG 1.1//EN" "http://www.w3.org/Graphics/SVG/1.1/DTD/svg11.dtd" >
<svg xmlns="http://www.w3.org/2000/svg" xmlns:xlink="http://www.w3.org/1999/xlink" version="1.1">
<metadata>
Created by FontForge 20201107 at Mon Mar 31 16:04:32 2025
 By 
 
</metadata>
<defs>
<font id="themifyRegular" horiz-adv-x="2048" >
  <font-face 
    font-family="themify"
    font-weight="400"
    font-stretch="normal"
    units-per-em="2048"
    panose-1="0 0 0 0 0 0 0 0 0 0"
    ascent="1638"
    descent="-410"
    bbox="-34 -338 2082 1752"
    underline-thickness="0"
    underline-position="0"
    unicode-range="U+0020-FFFD"
  />
<missing-glyph horiz-adv-x="0" 
 />
    <glyph glyph-name=".notdef" horiz-adv-x="0" 
 />
    <glyph glyph-name=".null" horiz-adv-x="0" 
 />
    <glyph glyph-name="nonmarkingreturn" horiz-adv-x="682" 
 />
    <glyph glyph-name="space" unicode=" " horiz-adv-x="1024" 
 />
    <glyph glyph-name="uniE600" unicode="&#xe600;" 
d="M1652 1126l280 -280l-86 -86l-280 280v-396h-120v396l-1282 -1286l-86 86l1284 1286h-398v120h396l-280 280l86 86l280 -280v396h120v-398l276 276l84 -84l-274 -276h396v-120h-396z" />
    <glyph glyph-name="uniE601" unicode="&#xe601;" 
d="M296 972q-50 -44 -50 -116v-260q0 -41 14 -72q17 -37 40 -60q27 -27 60 -42q31 -14 72 -14h210l686 -684v1978l-680 -688h-216q-85 0 -136 -42zM1206 14l-514 514h-260q-29 0 -46 20q-20 20 -20 48v260q0 9 8 22q8 14 58 14h268l506 516v-1394zM1446 524q50 0 86 36
t36 86t-36 86t-86 36v120q99 0 172 -70q70 -73 70 -172q0 -100 -70 -170q-72 -72 -172 -72v120zM1894 458q-41 -92 -104 -152q-63 -63 -154 -104q-85 -38 -186 -38v120q148 0 254 106t106 256q0 148 -106 254t-254 106v122q101 0 186 -38q91 -41 154 -104t104 -154
q38 -85 38 -186q0 -103 -38 -188z" />
    <glyph glyph-name="uniE602" unicode="&#xe602;" 
d="M1986 -26q-60 111 -164 200q-111 92 -248 152q-148 66 -312 92v164q43 43 76 106q34 62 54 116q28 14 56 48q27 37 40 76q20 60 14 116q-10 55 -40 80q1 7 2 22t2 22q0 30 -2 44q-8 54 2 98q7 29 22 66l18 54q6 27 -6 60q-38 113 -152 178q-111 60 -284 60h-32
q-117 -3 -166 -46t-70 -88l-6 -12l-4 -8q-154 -12 -178 -116q-26 -101 -26 -210l2 -44v-36q0 -26 2 -40q-38 -26 -44 -86q-6 -56 22 -124q16 -35 42 -64q22 -29 50 -44q19 -55 58 -126q32 -64 84 -110v-154q-171 -27 -318 -90q-144 -63 -250 -154q-108 -92 -166 -200
q-61 -107 -64 -234l-2 -62h2052l-2 62q-3 123 -62 232zM206 -20q61 82 162 152q99 68 222 112q138 48 274 62l54 8v320l-26 18q-38 28 -70 84q-36 62 -62 140l-10 34l-36 6l-6 4l-10 10q-14 14 -22 36q-6 10 -10 30q-4 16 -4 20l62 -16l-12 90l-6 60q-2 18 -2 54v46
q-3 118 14 162q15 39 78 42q50 6 72 34q20 26 34 50q14 25 38 46q21 21 98 24h26q81 0 182 -26q103 -27 140 -128q0 -2 -4 -14q-2 -8 -6 -20q-8 -17 -28 -86q-14 -49 -4 -138q3 -15 0 -36q-1 -7 -2 -22t-2 -22l-12 -98l54 6v-24q-4 -20 -8 -32q-5 -15 -20 -40l-10 -16h-42
l-14 -40q-29 -84 -58 -134q-33 -58 -64 -80l-24 -18v-328l52 -6q143 -17 270 -64q123 -44 222 -112q95 -70 156 -152t80 -178h-1796q18 98 80 180z" />
    <glyph glyph-name="uniE603" unicode="&#xe603;" 
d="M1128 348q-21 -31 -44 -44v-260h-120v260q-25 14 -42 44q-18 27 -18 58q0 50 36 86q34 34 84 34q49 0 86 -34q34 -37 34 -86q0 -29 -16 -58zM1806 -144q0 -74 -52 -126q-54 -54 -128 -54h-1204q-75 0 -126 54q-54 51 -54 126v852q0 76 54 130q52 52 126 52h1084v240
q0 101 -38 186q-40 89 -102 154q-65 65 -154 102q-85 38 -188 38t-188 -38q-90 -37 -152 -102q-63 -63 -104 -154q-38 -85 -38 -186h-120q0 123 48 234q44 106 128 190q83 83 192 130q111 48 234 48t234 -48q109 -47 192 -130q84 -84 128 -190q48 -111 48 -234v-240
q73 0 128 -52q52 -55 52 -130v-852zM1686 708q0 26 -18 44t-42 18h-1204q-24 0 -42 -18t-18 -44v-852q0 -27 18 -42q18 -18 42 -18h1204q24 0 42 18q18 15 18 42v852z" />
    <glyph glyph-name="uniE604" unicode="&#xe604;" 
d="M426 1420q53 79 120 122q71 47 150 64q86 16 162 2q80 -15 154 -64l-66 -100q-103 68 -226 44q-122 -27 -190 -130l-170 -310q-70 -109 -46 -230q24 -124 128 -192t212 -50q107 15 188 114l92 -78q-66 -81 -150 -120q-84 -42 -172 -42q-64 0 -118 20q-62 19 -118 54
q-73 48 -118 118q-48 73 -62 150q-16 86 -2 162q15 80 64 154zM472 744l84 -84l16 14q88 88 214 88q124 0 212 -88t88 -212q0 -126 -88 -214l-364 -364q-88 -88 -212 -88q-126 0 -214 88t-88 214q0 124 88 212l128 128l-86 86l-128 -128q-62 -62 -92 -140t-30 -158
q0 -82 30 -160q31 -77 92 -138q62 -62 140 -92q76 -32 158 -32q84 0 160 32q80 31 138 92l366 364q59 62 92 140q30 75 30 158q0 80 -30 158q-33 78 -92 140q-62 62 -140 92q-76 32 -158 32q-84 0 -160 -32q-78 -30 -140 -92zM1320 884h492v122h-492v-122zM1264 722
l236 -136l60 104l-236 136zM1296 1588l-192 -328l104 -62l192 330zM1852 1504l-602 -348l60 -104l602 348z" />
    <glyph glyph-name="uniE605" unicode="&#xe605;" 
d="M1234 1616q-67 52 -150 52q-84 0 -148 -52q-63 -51 -84 -130h-430v-122h1324v122h-428q-21 79 -84 130zM1146 1530q31 -21 44 -44h-210q13 23 44 44q27 18 60 18q35 0 62 -18zM1686 1246v-1266q0 -76 -52 -128q-54 -54 -128 -54h-844q-75 0 -126 54q-54 51 -54 128v1266
h120v-1266q0 -27 18 -42q18 -18 42 -18h844q24 0 42 18q18 15 18 42v1266h120zM964 1126v-964h-120v964h120zM1326 1126v-964h-122v964h122z" />
    <glyph glyph-name="uniE606" unicode="&#xe606;" 
d="M1644 558q118 47 210 130q90 81 142 194t52 236q0 125 -52 238q-49 108 -142 194q-92 83 -210 130q-123 48 -258 48q-90 0 -170 -20q-90 -23 -154 -58q-70 -36 -134 -94q-58 -50 -106 -120q-61 35 -134 54q-72 18 -146 18q-114 0 -210 -38q-101 -40 -172 -108
q-72 -66 -118 -158q-42 -93 -42 -196q0 -101 42 -194q46 -92 118 -158q71 -68 172 -108q96 -38 210 -38q22 0 34 2q24 0 36 2q57 -54 134 -82q75 -30 158 -30q89 0 172 34q79 32 140 96q50 -13 86 -16q42 -6 84 -6q135 0 258 48zM1148 638q-41 -53 -106 -84
q-66 -30 -138 -30q-68 0 -126 26q-59 23 -102 70l-22 22l-32 -4q-7 -1 -20 -3t-20 -3q-14 -2 -40 -2q-89 0 -164 30q-77 31 -134 82t-90 120q-34 71 -34 146q0 77 34 148q35 72 90 122q53 48 134 80q75 30 164 30q68 0 140 -22q65 -21 124 -64l56 -42l32 64q69 129 202 206
q132 78 290 78q114 0 210 -38q93 -37 172 -106q73 -65 116 -156q44 -85 44 -190q0 -102 -44 -190q-44 -90 -116 -154q-73 -67 -172 -106q-96 -38 -210 -38q-47 0 -84 8q-49 7 -88 20l-40 12zM1216 394q-72 -72 -72 -172q0 -101 72 -170q70 -70 170 -70t170 70t70 170
q0 99 -70 172q-70 70 -170 70t-170 -70zM1300 138q-36 33 -36 84q0 50 36 86q37 34 86 34t86 -34q34 -37 34 -86q0 -50 -34 -84q-36 -36 -86 -36t-86 36zM1730 -2q-44 -44 -44 -108q0 -62 44 -106t108 -44q62 0 106 44t44 106q0 64 -44 108t-106 44q-64 0 -108 -44z
M1816 -88q8 8 22 8t22 -8t8 -22q0 -24 -30 -24t-30 24q0 14 8 22z" />
    <glyph glyph-name="uniE607" unicode="&#xe607;" 
d="M1804 764q-12 143 -72 272q-60 126 -156 222q-97 97 -224 156q-129 61 -272 70v248h-120v-248q-145 -12 -268 -72q-126 -60 -222 -156t-156 -222q-61 -128 -70 -270h-246v-120h246q9 -142 70 -270q60 -126 156 -222t222 -156q123 -60 268 -72v-244h120v244q143 9 272 70
q124 59 224 156q96 96 156 222q60 129 72 272h246v120h-246zM1080 282h-120v-238q-120 12 -222 62q-103 50 -182 132q-76 74 -130 184q-50 102 -62 222h236v120h-236q12 120 62 222q53 109 130 186q81 81 182 130q102 50 222 62v-234h120v234q121 -9 226 -60
q109 -53 186 -130t130 -186q50 -103 62 -224h-236v-120h236q-12 -121 -62 -224q-53 -109 -130 -186t-186 -130q-105 -51 -226 -60v238z" />
    <glyph glyph-name="uniE608" unicode="&#xe608;" 
d="M600 1260v-1464l480 338l488 -336v1462l-490 346zM1080 280l-358 -252v1170l358 260l368 -260v-1170zM936 856q62 -62 148 -62q88 0 150 62t62 150q0 86 -62 148t-150 62q-86 0 -148 -62t-62 -148q0 -88 62 -150zM1150 1070q26 -26 26 -64t-26 -64q-28 -28 -66 -28
q-34 0 -62 28t-28 64t28 64q26 26 62 26q40 0 66 -26z" />
    <glyph glyph-name="uniE609" unicode="&#xe609;" 
d="M1088 -82q-28 -28 -64 -28t-64 28q-26 26 -26 64t26 64t64 26t64 -26t26 -64t-26 -64zM1928 -140q0 -75 -48 -126q-51 -54 -120 -54h-1472q-70 0 -118 54q-50 50 -50 126v1688q0 75 50 128q49 52 118 52h1472q68 0 120 -52q48 -54 48 -128v-1688zM1794 1590
q-15 18 -34 18h-1472q-19 0 -34 -18q-14 -17 -14 -42v-1688q0 -25 14 -42q15 -18 34 -18h1472q19 0 34 18q14 17 14 42v1688q0 25 -14 42zM1686 1488v-1326h-1324v1326h1324zM1566 282v1084h-1084v-1084h1084z" />
    <glyph glyph-name="uniE60A" unicode="&#xe60a;" 
d="M1256 882l-232 714l-232 -714h-750l608 -440l-232 -714l606 442l606 -442l-230 714l606 440h-750zM1024 318l-378 -274l144 444l-376 274h466l144 444l144 -444h466l-376 -274l144 -444z" />
    <glyph glyph-name="uniE60B" unicode="&#xe60b;" 
d="M544 1302q-115 -68 -176 -176h-128v-1266q0 -75 54 -126q51 -54 128 -54h722q76 0 130 54q52 52 52 126v1266h-126q-66 110 -176 176q-113 64 -240 64t-240 -64zM932 1214q72 -34 120 -88h-538q49 54 122 88q67 32 148 32q78 0 148 -32zM1188 -182q-18 -18 -44 -18h-722
q-27 0 -42 18q-18 18 -18 42v1146h842v-1146q0 -23 -16 -42zM602 1728v-362h362v362h-362zM844 1488h-122v120h122v-120zM1816 1484l-18 -120l-724 120l10 62l-10 62l724 120l18 -120l-376 -62z" />
    <glyph glyph-name="uniE60C" unicode="&#xe60c;" 
d="M1280 1502q-106 106 -256 106t-256 -106t-106 -256q0 -134 88 -234q89 -102 214 -122v-970h-242v-120h604v120h-242v970q127 21 216 122q86 98 86 234q0 150 -106 256zM854 1418q70 70 170 70t170 -70q70 -73 70 -172q0 -100 -70 -170t-170 -70t-170 70t-70 170
q0 99 70 172zM492 1374q-18 -48 -18 -100t18 -100q14 -44 50 -90l-92 -76q-48 57 -72 126q-26 66 -26 140t26 140q24 69 72 126l92 -76q-36 -46 -50 -90zM276 1086q33 -90 100 -166l-92 -78q-77 89 -120 202q-44 109 -44 230t44 230q42 111 120 204l92 -80
q-67 -76 -100 -166q-36 -90 -36 -188t36 -188zM1672 1134q-28 -71 -74 -126l-92 76q35 44 52 90q16 51 16 100t-16 100q-17 46 -52 90l92 76q46 -55 74 -126q24 -69 24 -140t-24 -140zM1886 1044q-47 -115 -122 -202l-92 78q65 74 102 166q34 93 34 188t-34 188
q-37 92 -102 166l92 80q76 -91 122 -204q42 -111 42 -230t-42 -230z" />
    <glyph glyph-name="uniE60D" unicode="&#xe60d;" 
d="M182 160q-62 -62 -62 -148q0 -88 62 -150t150 -62q86 0 148 62t62 150q0 86 -62 148t-148 62q-88 0 -150 -62zM268 -52q-28 28 -28 64t28 64q26 26 64 26t64 -26t26 -64t-26 -64q-28 -28 -64 -28t-64 28zM1206 160q-62 -62 -62 -148q0 -88 62 -150t150 -62q86 0 148 62
t62 150q0 86 -62 148t-148 62q-88 0 -150 -62zM1292 -52q-28 28 -28 64t28 64q26 26 64 26t64 -26t26 -64t-26 -64q-28 -28 -64 -28t-64 28zM1574 1246h-1582l134 -968h1434l126 900l28 188h334v122h-438zM1540 1006h-1394l-16 120h1428zM162 884h1362l-68 -486h-1226z" />
    <glyph glyph-name="uniE60E" unicode="&#xe60e;" 
d="M182 160q-62 -62 -62 -148q0 -88 62 -150t150 -62q86 0 148 62t62 150q0 86 -62 148t-148 62q-88 0 -150 -62zM268 -52q-28 28 -28 64t28 64q26 26 64 26t64 -26t26 -64t-26 -64q-28 -28 -64 -28t-64 28zM1206 160q-62 -62 -62 -148q0 -88 62 -150t150 -62q86 0 148 62
t62 150q0 86 -62 148t-148 62q-88 0 -150 -62zM1292 -52q-28 28 -28 64t28 64q26 26 64 26t64 -26t26 -64t-26 -64q-28 -28 -64 -28t-64 28zM1574 1246h-1582l134 -968h1434l126 904l28 184h334v122h-438zM230 398l-100 728h1428l-102 -728h-1226zM1326 524h-964v478h120
v-358h722v358h122v-478zM362 1370v238h964v-230h-122v110h-722v-118h-120z" />
    <glyph glyph-name="uniE60F" unicode="&#xe60f;" 
d="M812 920q-90 -87 -90 -212q0 -127 90 -214q88 -88 212 -88q123 0 214 88q88 88 88 214q0 124 -88 212q-91 88 -214 88q-124 0 -212 -88zM898 580q-54 51 -54 128q0 74 54 128q52 52 126 52q73 0 128 -52q52 -55 52 -128q0 -76 -52 -128q-54 -54 -128 -54q-75 0 -126 54z
M2046 650q2 18 2 58t-2 60q-1 9 -3 28t-3 28l-312 94q-9 36 -24 72q-20 44 -32 66l154 288q-40 50 -78 88q-28 26 -88 78l-286 -154q-11 5 -34 16t-34 16q-33 15 -72 24l-92 312q-40 4 -58 6q-20 2 -60 2t-58 -2l-60 -6l-92 -312q-39 -9 -72 -24q-11 -5 -34 -16t-34 -16
l-286 154q-60 -52 -88 -78q-38 -38 -78 -88l154 -288q-12 -22 -32 -66q-15 -36 -24 -72l-312 -94q-1 -9 -3 -28t-3 -28q-2 -20 -2 -60t2 -60q4 -40 6 -58l312 -94q10 -38 24 -70q16 -40 32 -68l-154 -286q40 -50 78 -88t88 -78l286 154q12 -7 68 -32q26 -12 72 -26l92 -312
q10 -1 30 -2t30 -2q18 -2 58 -2t60 2q9 1 28.5 2t29.5 2l92 312q46 14 72 26q56 25 68 32l286 -154q50 40 88 78t78 88l-154 286q16 28 32 68q14 32 24 70l312 94zM1614 530q-8 -26 -22 -58q-13 -33 -26 -56l-30 -58l30 -58l114 -212q-3 -3 -8 -9t-8 -9l-20 -20l-270 146
l-58 -30q-33 -18 -56 -26q-40 -16 -60 -22l-62 -18l-18 -64l-70 -232h-12h-14h-12h-14l-70 232l-18 64l-62 18q-40 12 -58 20q-27 11 -58 28l-58 30l-270 -144l-18 18l-18 18l144 270l-30 58q-13 23 -26 56q-15 33 -22 60l-18 62l-296 88v14v12v12v14l296 88l18 62
q6 20 22 60q20 46 26 56l30 56l-144 272l18 18l18 18l270 -146l58 32q10 6 56 26q21 9 60 20l62 20l18 62l70 232h14h12h14h12l70 -232l18 -62l62 -20q40 -12 60 -20q46 -20 56 -26l58 -32l270 146q3 -3 10 -9t10 -9t8 -9t8 -9l-114 -214l-30 -58l30 -56q6 -10 26 -56
q16 -40 22 -60l18 -62l62 -18l234 -70v-14v-12v-12v-14l-296 -88z" />
    <glyph glyph-name="uniE610" unicode="&#xe610;" 
d="M1378 440q86 101 138 232q50 126 50 276q0 165 -62 304q-64 146 -168 250q-103 103 -248 168q-142 62 -304 62q-159 0 -300 -60q-144 -60 -254 -170q-114 -114 -170 -252q-60 -144 -60 -302q0 -165 62 -304q65 -145 168 -248q102 -105 248 -170q144 -60 306 -60
q147 0 276 50q131 52 232 138l624 -622l84 84zM526 338q-120 50 -212 142t-142 210q-52 125 -52 258q0 135 50 256q50 118 144 212q93 93 216 144q118 50 254 50q134 0 256 -52q120 -50 212 -142t142 -210q52 -122 52 -258q0 -133 -52 -258q-50 -118 -142 -210t-212 -142
q-122 -52 -256 -52q-136 0 -258 52z" />
    <glyph glyph-name="uniE611" unicode="&#xe611;" 
d="M1378 436q87 102 138 234q50 126 50 274q0 164 -62 306q-65 145 -168 248t-248 168q-142 62 -304 62q-157 0 -300 -58q-141 -59 -254 -172q-114 -114 -170 -252q-60 -144 -60 -302q0 -162 62 -304q65 -145 168 -248t248 -168q142 -62 306 -62q147 0 276 50
q131 52 232 138l624 -622l84 86zM526 334q-120 50 -212 142t-142 212q-52 122 -52 256q0 135 50 256q52 122 144 214q93 93 216 144q118 50 254 50q134 0 256 -52q120 -50 212 -142t142 -212q52 -122 52 -258q0 -134 -52 -256q-50 -120 -142 -212t-212 -142
q-122 -52 -256 -52q-136 0 -258 52zM1084 1006v-122h-240v-240h-122v240h-240v122h240v240h122v-240h240z" />
    <glyph glyph-name="uniE612" unicode="&#xe612;" 
d="M1378 440q86 101 138 232q50 126 50 276q0 165 -62 304q-64 146 -168 250q-103 103 -248 168q-142 62 -304 62q-159 0 -300 -60q-144 -60 -254 -170q-114 -114 -170 -252q-60 -144 -60 -302q0 -165 62 -304q65 -145 168 -248q102 -105 248 -170q144 -60 306 -60
q147 0 276 50q131 52 232 138l624 -622l84 84zM526 338q-120 50 -212 142t-142 210q-52 125 -52 258q0 135 50 256q50 118 144 212q93 93 216 144q118 50 254 50q134 0 256 -52q120 -50 212 -142t142 -210q52 -122 52 -258q0 -133 -52 -258q-50 -118 -142 -210t-212 -142
q-122 -52 -256 -52q-136 0 -258 52zM1084 1008v-120h-602v120h602z" />
    <glyph glyph-name="uniE613" unicode="&#xe613;" 
d="M1472 390q-50 -17 -86 -36l-280 294l756 798l-88 82l-750 -792l-750 792l-88 -82l754 -798l-278 -294q-39 21 -84 36q-45 12 -96 12q-150 0 -256 -106t-106 -254q0 -150 106 -256t256 -106t256 106t106 256q0 66 -24 126t-66 108l270 286l270 -286q-42 -48 -66 -108
t-24 -126q0 -150 106 -256t256 -106t256 106t106 256q0 148 -106 254t-256 106q-49 0 -94 -12zM312 -128q-72 69 -72 170t72 170q70 70 170 70t170 -70t70 -170t-70 -170q-69 -72 -170 -72t-170 72zM1396 -128q-70 70 -70 170t70 170t170 70q99 0 172 -70q70 -70 70 -170
t-70 -170q-72 -72 -172 -72q-101 0 -170 72z" />
    <glyph glyph-name="uniE614" unicode="&#xe614;" 
d="M602 1728v-2048h844v2048h-844zM722 -200v120h242v120h-242v122h122v120h-122v120h242v122h-242v118h122v120h-122v120h242v122h-242v122h122v120h-122v120h242v122h-242v120h604v-1808h-604z" />
    <glyph glyph-name="uniE615" unicode="&#xe615;" 
d="M302 1728q-74 0 -126 -52q-54 -54 -54 -128v-1284l304 -598l296 598v1284q0 73 -52 128q-55 52 -128 52h-240zM542 1608q24 0 42 -18t18 -42v-124h-360v124q0 24 18 42t42 18h240zM242 1304h360v-124h-360v124zM370 38l-128 254v768h120v-782h120v782h120v-768l-126 -254
h-106zM964 1728v-2048h844v2048h-844zM1084 -200v120h242v120h-242v122h120v120h-120v120h242v122h-242v118h120v120h-120v120h242v122h-242v122h120v120h-120v120h242v122h-242v120h602v-1808h-602z" />
    <glyph glyph-name="uniE616" unicode="&#xe616;" 
d="M2 278l596 -596l1448 1448l-596 596zM256 362l170 -170l86 84l-170 172l86 86l84 -86l86 86l-86 84l86 86l170 -170l86 84l-170 172l84 84l84 -86l86 86l-86 84l86 86l170 -170l86 84l-172 170l88 88l84 -86l86 86l-86 84l86 86l170 -170l86 84l-172 170l86 86l426 -426
l-1278 -1278l-426 426z" />
    <glyph glyph-name="uniE617" unicode="&#xe617;" 
d="M430 -254l564 394l572 -394v1862h-1136v-1862zM994 286l-444 -310v1512h896v-1512z" />
    <glyph glyph-name="uniE618" unicode="&#xe618;" 
d="M1208 1728h-730v-1214l364 248l366 -248v1214zM600 1608h488v-866l-246 164l-242 -164v866zM1928 -200h-1808v1806h238v-120h-118v-1566h1568v1566h-484v120h604v-1806z" />
    <glyph glyph-name="uniE619" unicode="&#xe619;" 
d="M0 764v724h120v-496q43 137 134 266q87 121 208 208q116 86 262 138q144 48 300 48q160 0 304 -50q148 -51 268 -142q124 -96 208 -218q91 -130 132 -280l-116 -34q-38 132 -114 244q-79 113 -182 192q-100 77 -234 124q-126 44 -266 44q-146 0 -278 -48
q-139 -53 -240 -136q-110 -89 -184 -204q-72 -115 -106 -260h506v-120h-722zM1326 524h506q-34 -145 -106 -260q-73 -113 -182 -204q-104 -84 -242 -136q-132 -48 -278 -48q-140 0 -266 44q-130 45 -232 124q-107 83 -184 192q-76 112 -114 244l-116 -34q42 -151 132 -278
q84 -125 210 -220q116 -90 266 -142q144 -50 304 -50q156 0 300 48q143 52 262 138q124 92 206 208q92 126 136 266v-496h120v724h-722v-120z" />
    <glyph glyph-name="uniE61A" unicode="&#xe61a;" 
d="M1084 644v-844h-120v844h-844v120h844v844h120v-844h844v-120h-844z" />
    <glyph glyph-name="uniE61B" unicode="&#xe61b;" 
d="M1412 1350q-35 79 -90 134t-134 90q-77 34 -164 34t-164 -34q-79 -35 -134 -90t-90 -134q-34 -77 -34 -164q0 -158 104 -274q103 -118 254 -142v-970h120v970q155 21 260 138q106 118 106 278q0 87 -34 164zM812 974q-90 87 -90 212q0 124 90 214q88 88 212 88
q123 0 214 -88q88 -91 88 -214q0 -124 -88 -212q-90 -90 -214 -90q-125 0 -212 90zM1084 1126q0 49 -34 86q-37 34 -86 34v120q100 0 170 -70t70 -170h-120z" />
    <glyph glyph-name="uniE61C" unicode="&#xe61c;" 
d="M1702 1552q-52 52 -128 52t-128 -52l-1090 -1090l-208 -638l632 214l1090 1090q54 54 54 128t-54 128zM450 364l234 -232l-238 -80l-74 74zM1186 1122l254 -254l-662 -662l-254 254zM1272 1208l88 88l254 -254l-88 -88zM1698 1126l-254 254l88 88q16 16 42 16t42 -16
l170 -170q18 -18 18 -42t-18 -42z" />
    <glyph glyph-name="uniE61D" unicode="&#xe61d;" 
d="M1818 1674q-52 52 -126 52q-78 0 -130 -52l-906 -906l-208 -638l632 212l908 908q23 23 40 60q12 33 12 68q0 37 -12 70q-15 33 -40 58zM750 668l230 -232l-234 -78l-74 74zM824 764l480 480l254 -254l-480 -480zM1388 1330l88 88l254 -254l-88 -88zM1816 1248l-254 254
l86 88q19 16 44 16q23 0 42 -16l168 -170q6 -6 14 -18q4 -16 4 -24q0 -10 -4 -22q-6 -12 -14 -20zM1808 824h120v-1144h-1928v1808h904v-122h-784v-1566h1688v1024z" />
    <glyph glyph-name="uniE61E" unicode="&#xe61e;" 
d="M1808 1728h-1568v-240h-62q-75 0 -126 -54q-52 -55 -52 -128v-360q0 -76 52 -128q51 -54 126 -54h726q26 0 44 -18q16 -19 16 -42v-180h-120v-844h360v844h-118v180q0 73 -52 128q-55 52 -130 52h-726q-25 0 -40 18q-18 18 -18 44v360q0 24 18 42q15 18 40 18h62v-360
h1568v360h120v122h-120v240zM964 -200v602h120v-602h-120zM1686 1126h-1324v482h1324v-482z" />
    <glyph glyph-name="uniE61F" unicode="&#xe61f;" 
d="M944 1620l-16 -16q-58 58 -138 92q-76 32 -162 32v0q-88 0 -164 -32q-80 -34 -140 -94q-58 -58 -92 -138t-34 -164q0 -89 32 -162q34 -80 92 -138l-266 -266q-22 -22 -40 -62q-16 -38 -16 -76q0 -37 16 -72q17 -41 40 -64l580 -584q26 -26 64 -42q35 -16 72 -16
q36 0 74 16q34 14 62 42l670 670h434zM344 1418q20 54 66 100q47 44 100 66q57 24 118 24v0q56 0 116 -22q52 -23 98 -66l-434 -436q-45 48 -64 100q-24 54 -24 116q0 61 24 118zM800 -54q-15 -6 -28 -6q-14 0 -26 6q-13 2 -24 14l-438 442h982l-442 -442q-16 -12 -24 -14z
M164 524l-22 22q-11 11 -16 24q-6 12 -6 26q0 15 6 30q6 12 16 22l802 802l778 -784h-194l-142 -142h-1222zM1840 360l-50 -72q-8 -13 -96 -154q-68 -109 -68 -184q0 -86 62 -148t150 -62q86 0 148 62t62 150q0 69 -64 182q-62 104 -94 154zM1774 -112q-28 28 -28 64
q0 17 28 76q27 54 66 114q30 -50 62 -114q26 -55 26 -76q0 -38 -26 -64q-28 -28 -64 -28t-64 28z" />
    <glyph glyph-name="uniE620" unicode="&#xe620;" 
d="M650 1592q-174 -74 -306 -206q-134 -134 -208 -308q-76 -176 -76 -374t76 -374q74 -175 208 -306q131 -134 306 -208q176 -76 374 -76t374 76q174 74 308 208q132 132 206 306q76 176 76 374t-76 374q-73 172 -206 308q-136 133 -308 206q-176 76 -374 76t-374 -76z
M1324 1492q143 -58 252 -152l-1188 -1188q-93 107 -152 254q-56 139 -56 298q0 177 68 328q67 155 180 268t268 180q151 68 328 68q161 0 300 -56zM726 -84q-147 59 -254 152l1188 1188q94 -109 152 -252q56 -139 56 -300q0 -177 -68 -328q-67 -155 -180 -268t-268 -180
q-151 -68 -328 -68q-159 0 -298 56z" />
    <glyph glyph-name="uniE621" unicode="&#xe621;" 
d="M542 1728q-74 0 -126 -52q-54 -54 -54 -128v-1688q0 -75 54 -126q51 -54 126 -54h964q74 0 128 54q52 52 52 126v1688q0 73 -52 128q-55 52 -128 52h-964zM1506 1608q24 0 42 -18t18 -42v-182h-1084v182q0 24 18 42t42 18h964zM1566 1246v-964h-1084v964h1084zM542 -200
q-24 0 -42 18t-18 42v302h1084v-302q0 -24 -18 -42t-42 -18h-964zM1066 -62q-18 -18 -42 -18t-42 18t-18 44q0 24 18 42t42 18t42 -18t18 -42q0 -26 -18 -44z" />
    <glyph glyph-name="uniE622" unicode="&#xe622;" 
d="M1808 644h-1568v120h1568v-120z" />
    <glyph glyph-name="uniE623" unicode="&#xe623;" 
d="M790 1680q-108 -44 -192 -128t-128 -192q-48 -111 -48 -234q0 -125 48 -236q48 -114 140 -200q10 -10 16 -14q12 -8 18 -14l12 -8q14 -14 34 -24q18 -11 32 -22v-868l300 230l304 -230v868q17 13 34 22q20 12 32 24l14 8q10 10 16 14t16 14q92 86 140 200q48 111 48 236
q0 123 -48 234q-44 108 -128 192t-192 128q-111 48 -234 48t-234 -48zM1204 -18l-184 138l-176 -136v510q46 -16 88 -22q40 -8 92 -8t92 8q42 6 88 22v-512zM1344 768q-2 -1 -6 -4t-6 -4l-14 -12q-69 -53 -140 -76q-72 -26 -154 -26t-154 26q-71 23 -140 76l-14 12
q-2 1 -6 4t-6 4q-4 2 -12 10q-71 68 -110 158q-40 92 -40 190q0 103 38 188q39 87 104 152q60 63 152 104q85 38 188 38t188 -38q91 -41 154 -104q64 -67 102 -152t38 -188q0 -102 -38 -190q-38 -87 -112 -158q-8 -8 -12 -10zM1342 1186l-220 -40l138 -234l-104 -62
l-130 222l-132 -222l-104 62l140 234l-214 40l22 118l226 -42v226h120v-228l236 44z" />
    <glyph glyph-name="uniE624" unicode="&#xe624;" 
d="M790 1680q-108 -44 -192 -128t-128 -192q-48 -111 -48 -234q0 -125 48 -236q48 -114 140 -200q10 -10 16 -14q12 -8 18 -14l12 -8q14 -14 34 -24q18 -11 32 -22v-868l300 230l304 -230v868q17 13 34 22q20 12 32 24l14 8q10 10 16 14t16 14q92 86 140 200q48 111 48 236
q0 123 -48 234q-44 108 -128 192t-192 128q-111 48 -234 48t-234 -48zM1204 -18l-184 138l-176 -136v510q46 -16 88 -22q40 -8 92 -8t92 8q42 6 88 22v-512zM1344 768q-2 -1 -6 -4t-6 -4l-14 -12q-69 -53 -140 -76q-72 -26 -154 -26t-154 26q-71 23 -140 76l-14 12
q-2 1 -6 4t-6 4q-4 2 -12 10q-71 68 -110 158q-40 92 -40 190q0 103 38 188q39 87 104 152q60 63 152 104q85 38 188 38t188 -38q91 -41 154 -104q64 -67 102 -152t38 -188q0 -102 -38 -190q-38 -87 -112 -158q-8 -8 -12 -10zM1174 976q-62 -62 -150 -62q-89 0 -148 62
q-62 62 -62 150q0 86 62 148q59 62 148 62q88 0 150 -62q60 -63 60 -148q0 -87 -60 -150z" />
    <glyph glyph-name="uniE625" unicode="&#xe625;" 
d="M1190 1608q-22 54 -66 86q-46 34 -102 34h-298q-27 0 -46 -8q-24 -10 -38 -24q-29 -29 -32 -68q-6 -39 -6 -84v-1418l224 -280h18v-166l120 82v84h18l222 280v1362h78q29 0 38 -34q6 -36 6 -46v-512h120v512q0 86 -46 144q-44 56 -118 56h-92zM1022 1608q25 0 44 -22
q18 -24 18 -56v-404h-362v420q0 24 2 38v24h298zM884 -34l-162 202v838h362v-838l-160 -202h-40z" />
    <glyph glyph-name="uniE626" unicode="&#xe626;" 
d="M1822 1108q4 10 12 34q4 20 4 34q3 37 -10 76q-17 37 -40 60l-210 210q-19 22 -38 30t-44 8q-42 0 -72 -24q-33 -27 -62 -56l-1088 -1088l-42 -356l14 -14l-118 -116l144 -26l58 58l14 -12l356 40l1046 1048l56 -56q4 -4 8 -12q3 -9 0 -18q-4 -16 -10 -26q-9 -15 -24 -30
l-362 -362l84 -86l364 364q32 32 46 58q17 33 22 60q6 37 -4 76q-14 38 -38 62zM388 52l-28 28l28 256l678 678l254 -256l-676 -678zM1150 1098l298 298l28 28l16 14l210 -210q11 -11 14 -24q2 -8 2 -20q0 -15 -6 -30q-9 -15 -20 -26l-286 -286z" />
    <glyph glyph-name="uniE627" unicode="&#xe627;" 
d="M1084 1402v-1602h-120v1602l-740 -740l-86 84l886 886l886 -886l-86 -84z" />
    <glyph glyph-name="uniE628" unicode="&#xe628;" 
d="M1892 708l-886 -886l-84 84l740 742h-1542v120h1542l-740 740l84 86z" />
    <glyph glyph-name="uniE629" unicode="&#xe629;" 
d="M386 648l740 -742l-84 -84l-886 886l886 886l84 -86l-740 -740h1542v-120h-1542z" />
    <glyph glyph-name="uniE62A" unicode="&#xe62a;" 
d="M1024 -224l-886 886l86 84l740 -740v1602h120v-1602l740 740l86 -84z" />
    <glyph glyph-name="uniE62B" unicode="&#xe62b;" 
d="M1128 348q-21 -31 -44 -44v-260h-120v260q-25 14 -42 44q-18 27 -18 58q0 50 36 86q34 34 84 34q49 0 86 -34q34 -37 34 -86q0 -29 -16 -58zM1802 -144q0 -74 -52 -126q-54 -54 -128 -54h-1204q-75 0 -126 54q-54 51 -54 126v852q0 76 54 130q52 52 126 52h4v240
q0 123 48 234q44 106 128 190q83 83 192 130q111 48 234 48t234 -48q109 -47 192 -130q84 -84 128 -190q48 -111 48 -234v-240q75 -3 126 -54q50 -53 50 -128v-852zM1506 890v240q0 101 -38 186q-40 89 -102 154q-65 65 -154 102q-85 38 -188 38t-188 -38q-90 -37 -152 -102
q-63 -63 -104 -154q-38 -85 -38 -186v-240h964zM1666 750q-15 15 -40 18h-1204v2h-4q-24 0 -42 -18t-18 -44v-852q0 -27 18 -42q18 -18 42 -18h1204q24 0 42 18q18 15 18 42v852q0 23 -16 42z" />
    <glyph glyph-name="uniE62C" unicode="&#xe62c;" 
d="M874 -208l146 916l916 146l-1698 638zM828 262l-384 1024l1024 -384l-552 -88z" />
    <glyph glyph-name="uniE62D" unicode="&#xe62d;" 
d="M1452 778l-86 86l112 114q88 88 88 212t-88 212q-87 87 -212 90q-125 0 -212 -90l-360 -358q-88 -91 -88 -214q0 -124 88 -212t214 -88q124 0 212 88l84 -86q-61 -61 -138 -92q-76 -32 -160 -32q-82 0 -158 32q-78 30 -140 92t-92 140q-32 76 -32 160q0 83 32 156
q30 78 92 140l360 360q62 62 140 92q76 32 158 32t158 -32q78 -30 140 -92t92 -140q32 -76 32 -158t-32 -158q-30 -78 -92 -140zM712 744l86 -84l14 14q91 88 214 88q124 0 212 -88t88 -212q0 -126 -88 -214l-364 -364q-88 -88 -212 -88q-126 0 -214 88t-88 214
q0 124 88 212l128 128l-84 86l-128 -128q-62 -62 -92 -140q-32 -76 -32 -158q0 -84 32 -160q31 -77 92 -138q62 -62 140 -92q73 -32 158 -32q82 0 158 32q78 30 140 92l364 364q62 62 92 140q32 73 32 158q0 82 -32 158q-30 78 -92 140t-140 92q-76 32 -158 32
q-85 0 -158 -32q-78 -30 -140 -92z" />
    <glyph glyph-name="uniE62E" unicode="&#xe62e;" 
d="M0 1728v-2048h2048v2048h-2048zM1204 1006v-1206h-1084v1206h1084zM1326 -200v1206h602v-1206h-602zM120 1608h1808v-482h-1808v482z" />
    <glyph glyph-name="uniE62F" unicode="&#xe62f;" 
d="M1566 1608h-1566v-1326h1566v1326zM1446 402h-1326v1086h1326v-1086zM2048 -200h-1566v366h120v-246h1326v1086h-244v120h364v-1326z" />
    <glyph glyph-name="uniE630" unicode="&#xe630;" 
d="M1326 1608h-1326v-1084h1326v1084zM1204 644h-1084v844h1084v-844zM362 162v238h120v-118h1084v844h-120v120h240v-1084h-1324zM2048 -200h-1326v240h122v-120h1084v844h-120v120h240v-1084z" />
    <glyph glyph-name="uniE631" unicode="&#xe631;" 
d="M1870 1054l-210 210l92 90l-86 86l-980 -978q-45 30 -96 48t-110 18q-148 0 -254 -106t-106 -256t106 -256t254 -106q150 0 256 106t106 256q0 60 -18 114q-22 58 -52 98l634 632l208 -210l86 84l-210 210l86 84l208 -208zM310 -4q-70 70 -70 170t70 170t170 70
q99 0 172 -70q70 -70 70 -170t-70 -170q-72 -72 -172 -72q-101 0 -170 72z" />
    <glyph glyph-name="uniE632" unicode="&#xe632;" 
d="M440 662l84 86l440 -438v1300h120v-1300l440 438l84 -86l-584 -582zM1928 -140q0 -24 -18 -42t-42 -18h-1688q-24 0 -42 18t-18 42v780h-120v-780q0 -75 54 -126q51 -54 126 -54h1688q74 0 128 54q52 52 52 126v780h-120v-780z" />
    <glyph glyph-name="uniE633" unicode="&#xe633;" 
d="M120 -200h1808v1808h-1808v-1808zM1808 -80h-1568v242h1568v-242zM240 282v1206h1568v-1206h-1568zM1712 504l-84 -86l-292 282l-188 -202l-298 532l-410 -600l-100 68l520 760l312 -556l160 170z" />
    <glyph glyph-name="uniE634" unicode="&#xe634;" 
d="M1220 1568q-125 -79 -196 -214q-71 135 -196 214q-127 80 -286 80q-111 0 -210 -42q-102 -43 -172 -116q-73 -73 -118 -172q-42 -99 -42 -212q0 -18 4 -62q2 -19 14 -72l14 -42q61 -192 218 -398q160 -211 312 -368q160 -166 286 -274q135 -116 138 -118l38 -30l38 30
q5 3 146 126q140 118 300 284q164 167 314 368q149 199 194 380l14 46q12 49 14 68q4 44 4 62q0 113 -42 212q-44 97 -116 172q-73 73 -174 116q-99 42 -210 42q-159 0 -286 -80zM1900 964q-37 -150 -156 -314q-120 -169 -258 -316q-152 -161 -272 -268q-114 -103 -190 -168
q-79 66 -182 162q-126 114 -262 262q-130 139 -260 316q-122 167 -174 328l-12 38q-8 36 -10 54q-4 36 -4 48q0 87 34 164q34 80 90 136q55 55 134 90q73 32 164 32t164 -32q79 -35 134 -90q56 -56 90 -136q34 -77 34 -164v-30h120v30q0 87 34 164q34 80 90 136
q55 55 134 90q73 32 164 32t164 -32q79 -35 134 -90q56 -56 90 -136q34 -77 34 -164q0 -14 -4 -46q-2 -14 -10 -52z" />
    <glyph glyph-name="uniE635" unicode="&#xe635;" 
d="M4 1044q-4 44 -4 62q0 113 42 212q45 99 118 172q70 73 172 116q99 42 210 42q159 0 286 -80q125 -79 196 -214q71 135 196 214q127 80 286 80q111 0 210 -42q101 -43 174 -116q72 -75 116 -172q42 -99 42 -212q0 -18 -4 -62q-2 -19 -14 -68l-14 -46q-7 -36 -20 -64
q-28 -67 -34 -80l-108 52q6 15 15.5 38t12.5 30q12 29 18 58l14 44q8 38 10 52q4 32 4 46q0 87 -34 164q-34 80 -90 136q-55 55 -134 90q-73 32 -164 32t-164 -32q-79 -35 -134 -90q-56 -56 -90 -136q-34 -77 -34 -164h-120q0 87 -34 164q-34 80 -90 136q-55 55 -134 90
q-73 32 -164 32t-164 -32q-79 -35 -134 -90q-56 -56 -90 -136q-34 -77 -34 -164q0 -12 4 -48q2 -18 10 -54l12 -38q12 -36 22 -56q8 -16 32 -68l-108 -54q-8 17 -20 45t-14 31q-20 44 -26 66l-14 42q-12 53 -14 72zM920 -20q-86 74 -148 134q-96 93 -172 176
q-83 91 -176 210l-96 -74q115 -150 224 -262q114 -117 210 -204q64 -60 158 -136q59 -45 68 -54l36 -26l36 28q9 4 70 54q39 30 164 140q85 77 212 204q115 118 220 256l-94 74q-84 -111 -176 -206q-84 -93 -174 -176q-102 -95 -152 -136q-94 -78 -106 -86q-25 19 -104 84z
M1708 834l-342 -240l-342 240l-340 -240l-342 240l-376 -264l68 -100l308 218l342 -242l340 242l342 -242l342 242l306 -218l68 100z" />
    <glyph glyph-name="uniE636" unicode="&#xe636;" 
d="M1686 324q0 -77 -24 -164q-22 -81 -52 -170q-10 -32 -30 -92q-14 -42 -14 -68v-90q0 -24 -18 -42t-42 -18q-27 0 -42 18q-18 18 -18 42v90q0 38 14 86q15 51 36 114q24 69 48 150q22 85 22 144v874q0 23 -16 42q-16 16 -42 16q-23 0 -42 -16q-20 -17 -20 -40v-2v-464
q0 -27 -18 -42q-18 -18 -42 -18q-27 0 -42 18q-18 15 -18 42v492v2v168q0 22 -12 40q-15 18 -42 18q-25 0 -44 -16q-18 -13 -22 -38l-2 -4v-540q0 -23 -16 -42q-18 -18 -44 -18q-24 0 -42 18t-18 42v590l2 4v4v96q0 24 -18 42q-22 16 -46 16q-23 0 -42 -16q-18 -18 -18 -42
v-104l2 -2v-4v-590q0 -24 -18 -42t-42 -18q-27 0 -42 18q-18 18 -18 42v554h-2q-3 21 -18 36q-17 14 -42 14q-23 0 -42 -16q-18 -18 -18 -42v-686q0 -17 -10 -34q-13 -16 -30 -22q-14 -9 -34 -2q-17 3 -32 18l-134 150q-37 43 -58 40q-13 -2 -32 -8q-11 -6 -18 -16
q-5 -5 -10 -20q-4 -16 -2 -22q4 -16 8 -22l396 -844q2 -4 14 -12q6 -6 22 -10q17 -5 34 -22q12 -15 12 -38v-106q0 -24 -18 -42t-42 -18q-26 0 -44 18t-18 42v66q-19 11 -36 28q-16 13 -30 38l-398 844q-17 31 -20 62q-4 40 4 68q8 34 32 64q22 29 54 46q63 35 124 20
q64 -15 116 -76l30 -32v528q0 74 54 128q52 52 126 52q22 0 32 -2q5 -1 14 -4t14 -4q6 67 58 116q52 46 122 46q72 0 126 -48q52 -49 58 -116q18 7 32 10q10 2 34 2q72 0 124 -52q50 -50 50 -128v-30q5 1 15 4t15 4q10 2 32 2q76 0 128 -52q50 -50 50 -126v-874z" />
    <glyph glyph-name="uniE637" unicode="&#xe637;" 
d="M1694 104q-12 -59 -32 -84q-21 -27 -40 -46q-20 -24 -26 -36q-12 -21 -12 -76v-122q0 -24 -18 -42t-42 -18t-42 18t-18 42v122q0 84 22 128q21 39 52 70q18 18 24 26q9 12 12 38l144 968q0 22 -2 40q-3 27 -32 30q-9 3 -18 0q-6 -2 -14 -6q-10 -7 -16 -18q-4 -8 -8 -28
l-60 -400q-3 -17 -10 -26q-8 -13 -26 -20q-16 -6 -28 -4q-20 4 -30 10q-6 0 -10 2q-8 3 -16 8q-14 8 -20 24q-8 13 -8 30l36 636q3 24 -14 44q-14 17 -40 20q-7 2 -20 -2q-8 -2 -20 -10q-12 -12 -14 -18q-6 -9 -6 -22l-56 -576q-3 -24 -20 -38q-19 -16 -44 -16q-10 0 -14 2
h-16q-25 0 -40 18q-17 14 -20 40l-14 738q0 23 -16 42q-16 16 -40 16q-22 0 -38 -16q-18 -18 -18 -40l-14 -794q0 -19 -8 -32q-6 -10 -26 -22q-2 -1 -5.5 -2t-4.5 -2l-12 -6q-13 -8 -28 -8t-30 6q-11 9 -20 20q-9 12 -12 28l-62 642q0 13 -6 22q-8 12 -14 18q-12 8 -18 10
q-16 4 -24 2q-11 0 -20 -6q-12 -8 -18 -14t-10 -18q-4 -16 -2 -24l60 -854q3 -18 -8 -36q-12 -18 -30 -24q-19 -8 -38 -2q-18 3 -32 20l-186 236q-18 31 -46 40q-27 8 -56 -8q-8 -4 -20 -16q-9 -12 -12 -26q-4 -19 -2 -28q3 -17 8 -26l426 -734q9 -11 20 -20q9 -9 24 -12
q16 -2 34 -20q12 -18 12 -38v-84q0 -24 -18 -42t-42 -18t-42 18t-18 42v42q-26 13 -42 32q-12 12 -32 40l-426 734q-19 35 -22 70q-6 36 4 74q9 39 32 68q20 28 56 48q71 40 146 20q76 -21 114 -88l62 -78l-46 662q-3 34 6 68q9 31 34 60q20 25 54 44q30 15 66 18
q37 3 70 -6q31 -11 60 -34q15 -12 24 -24q3 -5 9 -14t9 -14l2 90q0 72 52 124t124 52q74 0 126 -52t52 -124l2 -90q3 5 9 14t9 14q9 12 24 24q29 23 60 34q33 9 70 6q73 -6 120 -62q48 -57 42 -130l-8 -118l6 4l4 4q24 19 58 28q26 5 66 2q67 -9 108 -68q38 -56 26 -138z
" />
    <glyph glyph-name="uniE638" unicode="&#xe638;" 
d="M1682 350q0 -71 -26 -114q-29 -48 -54 -76q-22 -29 -30 -44q-12 -18 -12 -40v-216q0 -24 -18 -42t-42 -18q-26 0 -44 18t-18 42v216q0 55 24 94t48 66q32 41 38 52q14 22 14 62v704q0 30 -20 50q-22 22 -46 22q-32 0 -38 -2l-12 -4q-4 -12 -4 -44q-2 -24 -2 -72v-34v-42
q-3 -25 -18 -40q-18 -18 -44 -18q-24 0 -42 18q-18 15 -18 42v254q0 26 -16 48q-18 18 -46 18q-24 0 -40 -16q-15 -18 -18 -44v-240q0 -27 -18 -42q-18 -18 -44 -18q-24 0 -42 18q-18 15 -18 42v242v2v92q0 10 -8 42q-9 36 -48 36q-43 0 -52 -28q-10 -30 -10 -50v-84v-4
l-2 -6v-312q0 -27 -18 -42q-18 -18 -44 -18q-24 0 -42 18q-18 15 -18 42v322q-3 18 -16 34q-14 14 -40 14q-27 0 -44 -20q-20 -20 -20 -50v-402v-2v-2v-132q0 -24 -18 -42t-42 -18t-42 18t-18 42v100q-19 8 -36 10q-20 3 -34 0q-15 -5 -20 -10q-12 -12 -18 -22
q-6 -19 -8 -30q-3 -21 8 -46l204 -448l4 -6v-8q6 -24 26 -38q23 -17 46 -14q8 2 24 -2q13 -3 22 -12q12 -12 16 -20q4 -16 4 -26v-210q0 -24 -18 -42t-42 -18q-27 0 -42 18q-18 18 -18 42v156q-48 12 -84 48q-37 35 -50 88l-202 442q-21 45 -18 92q0 46 22 90q22 37 52 62
q29 26 68 32q28 4 44 4q32 -4 50 -6v86v4v222q0 79 54 136q54 54 130 54q24 0 36 -2q18 -4 32 -12q18 57 64 94q46 34 110 34q58 0 104 -34q43 -35 62 -94q19 7 34 10q24 4 36 4q62 0 110 -36q49 -37 64 -94q24 4 34 6h32q76 0 132 -56q54 -57 54 -136v-704z" />
    <glyph glyph-name="uniE639" unicode="&#xe639;" 
d="M728 1488h-728v-1808h2048v1566h-1084zM914 1126h1014v-244l-1808 2v482h558zM120 764l1808 -4v-960h-1808v964z" />
    <glyph glyph-name="uniE63A" unicode="&#xe63a;" 
d="M1566 522v1114l-1430 -558zM1446 698l-978 380l978 382v-762zM1808 1728v-2048h-122v2048h122z" />
    <glyph glyph-name="uniE63B" unicode="&#xe63b;" 
d="M1808 1728v-2048h-122v2048h122zM1566 1610v-964h-1384l350 476l-348 488h1382zM1446 1490h-1028l264 -368l-262 -354h1026v722z" />
    <glyph glyph-name="uniE63C" unicode="&#xe63c;" 
d="M1808 1728v-2048h-122v2048h122zM1564 1608v-964h-600v-242h-844v964h480v242h964zM602 644v602h-362v-722h604v120h-242zM720 1366h2v-602h722v724h-724v-122z" />
    <glyph glyph-name="uniE63D" unicode="&#xe63d;" 
d="M1884 934q-104 121 -238 208q-134 86 -292 134q-159 48 -330 48t-330 -48q-158 -48 -292 -134q-134 -87 -238 -208q-103 -121 -160 -268q-4 -12 -4 -22t4 -22q56 -145 160 -270q106 -121 238 -206q142 -92 292 -134q159 -48 330 -48t330 48q150 42 292 134
q132 85 238 206q104 125 160 270q4 12 4 22t-4 22q-57 147 -160 268zM736 124q-140 40 -256 114q-119 76 -210 176q-91 106 -144 230q54 126 144 228q89 100 210 178q116 71 256 114q142 40 288 40t288 -40q140 -43 256 -114q121 -78 210 -178q90 -102 144 -228
q-53 -124 -144 -230q-91 -100 -210 -176q-116 -74 -256 -114q-145 -40 -288 -40t-288 40zM854 1048q-78 -32 -140 -94t-94 -140q-34 -83 -34 -170t34 -170q32 -78 94 -140t140 -94q81 -36 170 -36t170 36q78 32 140 94t94 140q34 83 34 170t-34 170q-32 78 -94 140t-140 94
q-83 34 -170 34t-170 -34zM800 420q-94 94 -94 224q0 132 94 226q92 92 224 92q134 0 226 -92t92 -226q0 -132 -92 -224q-94 -94 -226 -94q-130 0 -224 94zM908 760q-48 -48 -48 -116t48 -116t116 -48t116 48t48 116t-48 116t-116 48t-116 -48zM994 614q-14 11 -14 30t14 30
q12 12 30 12q17 0 32 -12q12 -12 12 -30t-12 -30q-14 -14 -32 -14q-19 0 -30 14z" />
    <glyph glyph-name="uniE63E" unicode="&#xe63e;" 
d="M438 1094l586 604l586 -604l-88 -84l-438 452v-1296h-120v1296l-438 -452zM1928 -140q0 -24 -18 -42t-42 -18h-1688q-24 0 -42 18t-18 42v780h-120v-780q0 -75 54 -126q51 -54 126 -54h1688q74 0 128 54q52 52 52 126v780h-120v-780z" />
    <glyph glyph-name="uniE63F" unicode="&#xe63f;" 
d="M722 764h-120v-848l-438 438l-86 -84l584 -584l586 584l-86 86l-440 -440v848zM664 -144h-2h2zM1446 1492v-854h-120v854l-440 -440l-86 86l586 584l584 -584l-86 -86z" />
    <glyph glyph-name="uniE640" unicode="&#xe640;" 
d="M240 402h1568v964h-1568v-964zM1686 1246v-722h-1324v722h1324zM180 1608q-76 0 -126 -50q-54 -51 -54 -122v-1224q0 -69 54 -120q50 -50 126 -50h1688q75 0 128 50q52 52 52 120v1224q0 70 -52 122q-53 50 -128 50h-1688zM1928 212q0 -19 -18 -34q-19 -16 -42 -16h-1688
q-23 0 -42 16q-18 15 -18 34v1224q0 23 18 38q17 14 42 14h1688q25 0 42 -14q18 -15 18 -38v-1224zM602 -80h844v-120h-844v120z" />
    <glyph glyph-name="uniE641" unicode="&#xe641;" 
d="M1776 1608v30v30v60h-1504v-60v-30v-30h-272v-60q0 -99 6 -198q6 -101 18 -202q12 -108 44 -270q27 -133 70 -254q44 -125 98 -208q60 -91 124 -122q18 -9 36 -12q24 -4 36 -4q23 0 44 6t42 18l24 18q73 -113 180 -190q102 -73 242 -88v-242h-356v-120h844v120h-368v242
q129 12 234 84q101 66 188 194l28 -20q21 -11 40 -16q21 -6 42 -6q12 0 36 4q12 2 36 14q66 32 124 120q54 83 98 208q43 121 70 254q32 162 44 270q12 101 18 202q6 99 6 198v60h-272zM452 404q-9 -6 -18 -6q-11 0 -20 6q-36 15 -76 76q-38 58 -74 158q-34 83 -70 228
q-31 124 -50 298q-12 108 -16 162t-8 162h154q3 -135 18 -276q13 -154 38 -284q23 -135 64 -274q39 -135 96 -246l-10 14zM696 316q-124 160 -190 386q-69 224 -90 476q-21 249 -24 430h1264q-3 -225 -26 -468q-24 -255 -92 -470q-69 -219 -192 -366q-124 -148 -322 -148
q-204 0 -328 160zM1854 866q-35 -140 -68 -228q-41 -104 -76 -158q-40 -61 -76 -76q-9 -6 -18 -6q-6 0 -18 4l-30 20l-14 -20q46 89 86 206q43 127 68 250t44 294q17 172 22 336h154q-4 -108 -8 -162t-16 -162q-19 -174 -50 -298z" />
    <glyph glyph-name="uniE642" unicode="&#xe642;" 
d="M1030 1720l-508 -804l-542 462l210 -1578h1668l210 1576l-546 -460zM278 42h1492l-16 -122h-1460zM262 162l-122 920l410 -348l478 758l464 -758l416 350l-122 -922h-1524z" />
    <glyph glyph-name="uniE643" unicode="&#xe643;" 
d="M2048 588q0 -76 -52 -128q-54 -54 -128 -54h-62v122h62q24 0 42 18q18 15 18 42v960q0 24 -18 42t-42 18h-1688q-24 0 -42 -18t-18 -42v-960q0 -27 18 -42q18 -18 42 -18h182v-350l214 190l80 -90l-416 -366v494h-60q-75 0 -126 54q-54 51 -54 128v960q0 74 54 128
q52 52 126 52h1688q73 0 128 -52q52 -55 52 -128v-960zM1688 212q0 -74 -52 -126q-51 -54 -128 -54h-60v-370l-442 370h-102q-77 0 -128 54q-54 51 -54 126v366q0 76 54 130q52 52 128 52h604q76 0 128 -52q52 -55 52 -130v-366zM1568 578q0 25 -16 44q-19 16 -44 16h-604
q-26 0 -42 -16q-18 -18 -18 -44v-366q0 -24 18 -42q15 -18 42 -18h146l278 -232v232h180q26 0 44 18q16 19 16 42v366z" />
    <glyph glyph-name="uniE644" unicode="&#xe644;" 
d="M180 1728q-74 0 -126 -52q-54 -54 -54 -128v-1206q0 -75 54 -126q51 -54 126 -54h60v-494l566 494h1062q74 0 128 54q52 52 52 126v1206q0 73 -52 128q-55 52 -128 52h-1688zM1928 342q0 -24 -18 -42t-42 -18h-1108l-398 -348v348h-182q-24 0 -42 18t-18 42v1206
q0 24 18 42t42 18h1688q24 0 42 -18t18 -42v-1206z" />
    <glyph glyph-name="uniE645" unicode="&#xe645;" 
d="M180 1728q-74 0 -126 -52q-54 -54 -54 -128v-1206q0 -75 54 -126q51 -54 126 -54h60v-494l566 494h1062q74 0 128 54q52 52 52 126v1206q0 73 -52 128q-55 52 -128 52h-1688zM1928 342q0 -24 -18 -42t-42 -18h-1108l-398 -348v348h-182q-24 0 -42 18t-18 42v1206
q0 24 18 42t42 18h1688q24 0 42 -18t18 -42v-1206zM1686 1366v-120h-1324v120h1324zM1686 1126v-120h-1324v120h1324zM1084 884v-120h-722v120h722z" />
    <glyph glyph-name="uniE646" unicode="&#xe646;" 
d="M1110 704l800 -800l-86 -86l-800 800l-800 -800l-86 86l800 800l-800 800l86 86l800 -800l800 800l86 -86z" />
    <glyph glyph-name="uniE647" unicode="&#xe647;" 
d="M1448 194h-120v1024q0 100 -74 186t-234 86q-177 0 -236 -98q-60 -99 -60 -174v-978v-176q0 -55 54 -100q52 -46 118 -46q78 0 134 50t56 100v32h-2l2 918q0 79 -18 94q-18 12 -38 12q-36 0 -50 -14q-16 -16 -16 -86v-620h-120v620q0 42 24 132q21 88 162 88
q61 0 118 -42q58 -46 58 -184v-774v-176q0 -106 -94 -188t-216 -82q-118 0 -204 80q-88 82 -88 186v8v1146q0 70 24 142q23 67 76 126q50 56 130 90q78 36 186 36q103 0 186 -34q79 -32 134 -90q52 -55 80 -126q28 -72 28 -144v-1024z" />
    <glyph glyph-name="uniE648" unicode="&#xe648;" 
d="M1886 210l-862 860l-860 -860l-86 84l946 946l946 -946z" />
    <glyph glyph-name="uniE649" unicode="&#xe649;" 
d="M644 -238l-84 84l860 862l-860 860l84 86l948 -946z" />
    <glyph glyph-name="uniE64A" unicode="&#xe64a;" 
d="M1488 -154l-84 -84l-948 946l948 946l84 -86l-860 -860z" />
    <glyph glyph-name="uniE64B" unicode="&#xe64b;" 
d="M1024 170l-946 946l84 86l862 -862l860 862l86 -86z" />
    <glyph glyph-name="uniE64C" unicode="&#xe64c;" 
d="M794 -110l-594 528l82 90l488 -436l986 1508l102 -66z" />
    <glyph glyph-name="uniE64D" unicode="&#xe64d;" 
d="M1808 1034v-1234h-1688v1688h1012v-122h-892v-1446h1446v1114h122zM500 662l414 -414l914 1386l-102 66l-832 -1262l-310 308z" />
    <glyph glyph-name="uniE64E" unicode="&#xe64e;" 
d="M718 1488h-352v-122h-366v-1446h2048v1446h-1330v122zM120 42v842h790q-29 -50 -48 -112q-18 -63 -18 -128q0 -103 38 -188q41 -92 104 -152q60 -63 152 -104q85 -38 188 -38q101 0 186 38q91 41 154 104q63 60 104 152q38 85 38 188q0 65 -18 128q-19 65 -50 112h188
v-842h-1808zM1580 388q-106 -106 -254 -106q-150 0 -256 106t-106 256t106 256t256 106q148 0 254 -106t106 -256t-106 -256zM1496 1094q-79 32 -170 32q-93 0 -172 -32t-144 -88h-890v240h1808v-240h-288q-65 56 -144 88z" />
    <glyph glyph-name="uniE64F" unicode="&#xe64f;" 
d="M1752 1460q-26 0 -44 -18q-20 -17 -20 -44v-80l-1324 -486v32q0 40 -28 68q-29 26 -68 26h-172q-42 0 -68 -26q-28 -28 -28 -68v-564q0 -38 28 -66t68 -28h172q37 0 68 28q28 28 28 66v40l124 -24q-2 -10 -2 -28q-2 -10 -2 -30q0 -89 32 -162q31 -71 92 -132
q53 -53 132 -88q77 -34 162 -34q151 0 264 92q112 93 144 232l378 -70v-78q0 -27 20 -44q17 -20 44 -20h232q26 0 46 20q18 18 18 44v1380q0 26 -18 44q-21 18 -46 18h-232zM692 50q-88 88 -88 208q0 12 2 18t2 18l584 -106q-24 -97 -104 -160q-82 -64 -186 -64
q-124 0 -210 86zM1928 74h-120v122l-1566 288v-158h-122v512h122v-178l1566 572v108h120v-1266z" />
    <glyph glyph-name="uniE650" unicode="&#xe650;" 
d="M1134 368l-100 68l784 1146l100 -68zM1014 -128q-73 -70 -170 -70h-42l-24 -2h-656l548 412q4 2 26 16t42 26q51 30 106 30q97 0 170 -70q70 -73 70 -172q0 -100 -70 -170zM930 128q-37 34 -86 34q-18 0 -46 -14q-2 -1 -58 -32l-258 -196h292q14 0 30 2h40q50 0 86 36
q34 34 34 84q0 49 -34 86z" />
    <glyph glyph-name="uniE651" unicode="&#xe651;" 
d="M844 342h120v-60h120v60h120v-180h-360v180zM1928 402v-722h-1808v722h-120v964h436q43 86 104 150q63 66 138 114q73 47 164 72q84 26 182 26t182 -26q91 -25 164 -72q75 -48 138 -114q61 -64 104 -150h436v-964h-120zM1474 1366q-76 113 -192 178q-122 64 -258 64
q-137 0 -256 -64q-119 -67 -194 -178h900zM1808 402h-1568v-602h1568v602zM1928 1246h-1808v-722h1808v722z" />
    <glyph glyph-name="uniE652" unicode="&#xe652;" 
d="M1724 1486h-862l-280 -846h200l-242 -728l1142 970h-348zM1354 760l-564 -478l160 478h-202l202 606h552l-390 -606h242z" />
    <glyph glyph-name="uniE653" unicode="&#xe653;" 
d="M964 -108l-106 58l368 694h-616l590 876l100 -66l-464 -690h590z" />
    <glyph glyph-name="uniE654" unicode="&#xe654;" 
d="M1084 1728h-120v-240h-844v-1206h1808v1206h-844v240zM1808 402h-1568v964h1568v-964zM1626 162v-120h-310l180 -280l-100 -66l-224 346h-88v-362h-120v362h-86l-226 -346l-100 66l182 280h-312v120h1204z" />
    <glyph glyph-name="uniE655" unicode="&#xe655;" 
d="M1566 1534q0 80 -58 138q-56 56 -140 56h-686q-84 0 -140 -56q-58 -58 -58 -138v-288h-364v-1566h1808v1566h-362v288zM604 1534q0 31 24 52q22 22 54 22h686q31 0 56 -22q22 -22 22 -52v-288h-842v288zM1808 -200h-1568v964h1568v-964zM240 884v242h244v-78h120v78h842
v-78h120v78h242v-242h-1568z" />
    <glyph glyph-name="uniE656" unicode="&#xe656;" 
d="M1638 360l-84 86l198 198h-668v-668l198 198l86 -84l-344 -344l-344 344l86 84l198 -198v668h-668l198 -198l-84 -86l-344 344l344 344l84 -86l-198 -198h668v668l-198 -198l-86 84l344 344l344 -344l-86 -84l-198 198v-668h668l-198 198l84 86l344 -344z" />
    <glyph glyph-name="uniE657" unicode="&#xe657;" 
d="M1488 190l-464 -476l-464 476l86 84l318 -326v1512l-318 -326l-86 84l464 476l464 -476l-86 -84l-318 326v-1512l318 326z" />
    <glyph glyph-name="uniE658" unicode="&#xe658;" 
d="M1538 240l-84 86l326 318h-1512l326 -318l-84 -86l-476 464l476 464l84 -86l-326 -318h1512l-326 318l84 86l476 -464z" />
    <glyph glyph-name="uniE659" unicode="&#xe659;" 
d="M1928 -200h-560v122h354l-698 696l-698 -698l354 2v-122h-560v560h122v-354l696 698l-696 698v-354h-122v560h560v-122h-354l698 -696l698 696h-354v122h560v-560h-122v354l-696 -698l696 -698v354h122v-560z" />
    <glyph glyph-name="uniE65A" unicode="&#xe65a;" 
d="M1928 524h-120v878l-1244 -1240l-86 86l1244 1240h-882v120h1088v-1084z" />
    <glyph glyph-name="uniE65B" unicode="&#xe65b;" 
d="M238 1402v-878h-120v1084h1086v-120h-880l1242 -1240l-86 -86z" />
    <glyph glyph-name="uniE65C" unicode="&#xe65c;" 
d="M1024 1030l524 -524l-84 -86l-440 440l-440 -440l-84 86zM1968 306q-80 -184 -220 -324q-142 -142 -326 -222t-398 -80t-398 80q-186 81 -324 222q-141 138 -222 324q-80 184 -80 398t80 398t222 326q140 140 324 220t398 80t398 -80q182 -79 326 -220q141 -144 220 -326
q80 -184 80 -398t-80 -398zM1856 1056q-69 165 -192 288t-288 192q-165 72 -352 72t-352 -72q-162 -68 -286 -192q-126 -126 -194 -288q-72 -165 -72 -352t72 -352q66 -158 194 -286t286 -194q165 -72 352 -72t352 72q162 68 288 194q124 124 192 286q72 165 72 352t-72 352
z" />
    <glyph glyph-name="uniE65D" unicode="&#xe65d;" 
d="M1350 704l-524 -524l-86 84l440 440l-440 440l86 84zM1968 306q-80 -184 -220 -324q-142 -142 -326 -222t-398 -80t-398 80q-186 81 -324 222q-141 138 -222 324q-80 184 -80 398t80 398t222 326q140 140 324 220t398 80t398 -80q182 -79 326 -220q141 -144 220 -326
q80 -184 80 -398t-80 -398zM1856 1056q-69 165 -192 288t-288 192q-165 72 -352 72t-352 -72q-162 -68 -286 -192q-126 -126 -194 -288q-72 -165 -72 -352t72 -352q66 -158 194 -286t286 -194q165 -72 352 -72t352 72q162 68 288 194q124 124 192 286q72 165 72 352t-72 352
z" />
    <glyph glyph-name="uniE65E" unicode="&#xe65e;" 
d="M868 704l440 -440l-86 -84l-524 524l524 524l86 -84zM1968 306q-80 -184 -220 -324q-142 -142 -326 -222t-398 -80t-398 80q-186 81 -324 222q-141 138 -222 324q-80 184 -80 398t80 398t222 326q140 140 324 220t398 80t398 -80q182 -79 326 -220q141 -144 220 -326
q80 -184 80 -398t-80 -398zM1856 1056q-69 165 -192 288t-288 192q-165 72 -352 72t-352 -72q-162 -68 -286 -192q-126 -126 -194 -288q-72 -165 -72 -352t72 -352q66 -158 194 -286t286 -194q165 -72 352 -72t352 72q162 68 288 194q124 124 192 286q72 165 72 352t-72 352
z" />
    <glyph glyph-name="uniE65F" unicode="&#xe65f;" 
d="M1548 902l-524 -524l-524 524l84 86l440 -440l440 440zM1968 306q-80 -184 -220 -324q-142 -142 -326 -222t-398 -80t-398 80q-186 81 -324 222q-141 138 -222 324q-80 184 -80 398t80 398t222 326q140 140 324 220t398 80t398 -80q182 -79 326 -220q141 -144 220 -326
q80 -184 80 -398t-80 -398zM1856 1056q-69 165 -192 288t-288 192q-165 72 -352 72t-352 -72q-162 -68 -286 -192q-126 -126 -194 -288q-72 -165 -72 -352t72 -352q66 -158 194 -286t286 -194q165 -72 352 -72t352 72q162 68 288 194q124 124 192 286q72 165 72 352t-72 352
z" />
    <glyph glyph-name="uniE660" unicode="&#xe660;" 
d="M1850 170l-86 -84l-740 740l-740 -740l-86 84l826 826zM1024 1410l740 -740l86 84l-826 826l-826 -826l86 -84z" />
    <glyph glyph-name="uniE661" unicode="&#xe661;" 
d="M336 -122l-86 86l742 740l-742 740l86 86l826 -826zM834 1444l740 -740l-740 -740l86 -86l826 826l-826 826z" />
    <glyph glyph-name="uniE662" unicode="&#xe662;" 
d="M1702 -36l-84 -86l-826 826l826 826l84 -86l-740 -740zM1034 1530l-826 -826l826 -826l86 86l-742 740l742 740z" />
    <glyph glyph-name="uniE663" unicode="&#xe663;" 
d="M198 1272l86 84l740 -740l740 740l86 -84l-826 -826zM284 774l-86 -86l826 -826l826 826l-86 86l-740 -742z" />
    <glyph glyph-name="uniE664" unicode="&#xe664;" 
d="M240 1728v-2048h1568v1408l-644 640h-924zM1204 1518l396 -392h-396v392zM362 1608h360v-120h122v120h240v-602h602v-1206h-1324v1808zM722 764v-120h-120v120h120zM722 764v120h122v-120h-122zM722 1006v120h122v-120h-122zM602 1006h120v-122h-120v122zM602 1246h120
v-120h-120v120zM722 1246v120h122v-120h-122zM602 1488h120v-122h-120v122zM554 526q-72 -69 -72 -170t72 -170q70 -70 168 -70h12q10 0 16 2q55 6 108 40q50 34 76 84q11 20 22 56q8 24 8 58q0 100 -70 170q-73 70 -172 70q-98 0 -168 -70zM790 256q-24 -15 -54 -18l-14 -2
q-51 0 -84 36q-36 33 -36 84q0 50 36 86q37 34 84 34q49 0 86 -34q36 -36 36 -86q0 -8 -4 -28q-3 -15 -12 -30q-16 -28 -38 -42z" />
    <glyph glyph-name="uniE665" unicode="&#xe665;" 
d="M628 1648q-184 -80 -324 -220q-142 -142 -222 -326t-80 -398t80 -398q81 -186 222 -324q138 -141 324 -222q184 -80 398 -80t398 80t326 222q140 140 220 324t80 398t-80 398q-79 182 -220 326q-144 141 -326 220q-184 80 -398 80t-398 -80zM480 644q2 -77 20 -182
q15 -93 42 -180h-314q-41 73 -70 174q-26 86 -32 188h354zM126 764q6 101 32 190q30 100 70 172h312q-22 -72 -40 -178q-18 -109 -20 -184h-354zM1378 1126q30 -86 48 -178q17 -99 22 -184h-848q3 88 22 184q14 86 46 178h710zM1448 644q-5 -85 -22 -184q-18 -92 -48 -178
h-710q-32 92 -46 178q-19 96 -22 184h848zM1926 644q-6 -102 -32 -188q-29 -101 -70 -174h-318q31 100 44 180q15 90 18 182h358zM1550 948q-13 78 -44 178h318q40 -72 70 -172q26 -89 32 -190h-358q-3 90 -18 184zM1464 1246q-33 80 -82 168q-50 84 -106 158
q144 -42 264 -126q124 -87 208 -200h-284zM1228 1434q59 -96 102 -188h-614q47 101 104 186q55 86 134 172q6 1 18 2t18 2h36h34q5 -1 16.5 -2t17.5 -2q74 -80 134 -170zM666 1414q-51 -86 -82 -168h-280q88 116 206 198q117 84 258 126q-57 -75 -102 -156zM584 162
q33 -80 84 -166q49 -88 102 -158q-141 42 -258 126q-122 86 -208 198h280zM820 -24q-57 85 -104 186h614q-47 -101 -104 -186q-58 -90 -134 -172q-10 -2 -32 -2q-12 -2 -34 -2q-24 0 -36 2q-24 0 -36 2q-69 75 -134 172zM1380 -6q51 86 82 168h286q-84 -113 -208 -200
q-123 -84 -264 -126q47 62 104 158z" />
    <glyph glyph-name="uniE666" unicode="&#xe666;" 
d="M1430 154q-21 -103 -76 -192q-54 -83 -132 -148q-81 -65 -176 -100q-99 -34 -202 -34q-126 0 -234 48q-108 44 -192 128q-83 83 -130 192q-48 111 -48 234q0 100 34 196q34 98 92 174q59 73 142 132q77 51 182 80l30 -116q-78 -21 -144 -66q-69 -47 -114 -106
q-47 -62 -74 -136q-26 -72 -26 -158q0 -103 38 -188q39 -87 104 -152q60 -63 152 -104q85 -38 188 -38q81 0 162 28q76 26 140 78q59 48 106 120q40 66 62 154zM1928 -214h-226l-114 496h-742l-66 974q-75 21 -126 84q-52 64 -52 148q0 98 72 170q70 70 170 70q97 0 170 -70
q70 -73 70 -170q0 -86 -52 -150q-51 -63 -130 -84l32 -484l438 110l28 -118l-458 -114l16 -246h726l114 -496h130v-120zM930 1402q34 37 34 86q0 47 -34 84q-36 36 -86 36t-86 -36t-36 -84q0 -50 36 -86t86 -36t86 36z" />
    <glyph glyph-name="uniE667" unicode="&#xe667;" 
d="M0 1728v-482h2048v482h-2048zM1928 1366h-1808v242h1808v-242zM0 524h2048v482h-2048v-482zM1928 884v-240h-1808v240h1808zM0 -200h2048v482h-2048v-482zM1928 162v-242h-1808v242h1808z" />
    <glyph glyph-name="uniE668" unicode="&#xe668;" 
d="M602 1246h1446v482h-1446v-482zM1928 1366h-1206v242h1206v-242zM2048 524v482h-1446v-482h1446zM1928 884v-240h-1206v240h1206zM2048 -200v482h-1446v-482h1446zM1928 162v-242h-1206v242h1206zM0 1246h482v482h-482v-482zM362 1608v-242h-242v242h242zM0 524h482v482
h-482v-482zM362 884v-240h-242v240h242zM0 -200h482v482h-482v-482zM362 162v-242h-242v242h242z" />
    <glyph glyph-name="uniE669" unicode="&#xe669;" 
d="M0 884h844v844h-844v-844zM722 1608v-602h-602v602h602zM1204 884h844v844h-844v-844zM1326 1006v602h602v-602h-602zM0 -320h844v844h-844v-844zM722 402v-602h-602v602h602zM2048 -320v844h-844v-844h844zM1326 402h602v-602h-602v602z" />
    <glyph glyph-name="uniE66A" unicode="&#xe66a;" 
d="M964 1246v-240h-120v120h-242v-964h120v-120h-360v120h120v964h-242v-120h-120v240h724h120zM1084 1246v-240h120v120h242v-964h-120v-120h360v120h-120v964h242v-120h120v240h-120h-724z" />
    <glyph glyph-name="uniE66B" unicode="&#xe66b;" 
d="M2048 -200v-120h-2048v120h2048zM964 162h120v1360l440 -438l84 84l-584 584l-584 -584l84 -84l440 438v-1360z" />
    <glyph glyph-name="uniE66C" unicode="&#xe66c;" 
d="M1808 1488h-122v-780q0 -134 -52 -256q-50 -120 -142 -212t-210 -142q-122 -52 -258 -52t-258 52q-118 50 -210 142t-142 212q-52 122 -52 256v780h-122v120h362v-120h-120v-780q0 -111 42 -210q45 -99 118 -172q70 -73 172 -116q97 -44 210 -44t210 44q101 43 174 116
q72 75 116 172q42 99 42 210v780h-120v120h362v-120zM240 -200h1568v120h-1568v-120z" />
    <glyph glyph-name="uniE66D" unicode="&#xe66d;" 
d="M722 1366v-360h-346l-142 -482h-234v-600h242v-2l-2 -2q0 -99 72 -168q69 -72 170 -72t170 72q70 70 70 168v2v2h604v-2v-2q0 -98 70 -168q69 -72 170 -72q100 0 172 72q70 70 70 168v2l-2 2h242v1442h-1326zM722 884v-360h-362l106 360h256zM398 -164q-36 36 -36 84
q0 50 36 86q33 36 84 36q50 0 86 -36q34 -37 34 -86q0 -47 -34 -84q-36 -36 -86 -36q-51 0 -84 36zM1482 -164q-36 36 -36 84q0 50 36 86q33 36 84 36q50 0 86 -36q34 -37 34 -86q0 -47 -34 -84q-36 -36 -86 -36q-51 0 -84 36zM1772 44q-36 55 -86 86q-52 32 -120 32
t-120 -32q-50 -31 -86 -86h-672q-36 55 -86 86q-52 32 -120 32t-120 -32q-50 -31 -86 -86h-156v358h724v844h1084v-1202h-156z" />
    <glyph glyph-name="uniE66E" unicode="&#xe66e;" 
d="M1084 1608h180v120h-480v-120h180v-124q-179 -12 -330 -86q-153 -75 -268 -196q-116 -125 -180 -280q-66 -159 -66 -338q0 -187 72 -352q66 -158 194 -286t286 -194q165 -72 352 -72t352 72q162 68 288 194q124 124 192 286q72 165 72 352q0 179 -66 338
q-64 155 -180 280q-115 121 -268 196q-151 74 -330 86v124zM720 -138q-146 64 -250 168t-168 250q-62 139 -62 304t62 304q64 143 168 250q106 106 250 166q139 62 304 62t304 -62q144 -60 250 -166q104 -107 168 -250q62 -139 62 -304t-62 -304q-64 -146 -168 -250
t-250 -168q-139 -62 -304 -62t-304 62zM1084 644h482v-120h-602v482h120v-362z" />
    <glyph glyph-name="uniE66F" unicode="&#xe66f;" 
d="M1144 1548q0 -49 -34 -86q-36 -36 -86 -36q-51 0 -84 36q-36 36 -36 86v60h-422v-1808h422v60q0 50 36 86q33 36 84 36q50 0 86 -36q34 -37 34 -86v-60h422v1808h-422v-60zM876 1358q64 -52 148 -52q83 0 150 52q63 51 84 130h188v-724h-844v724h188q22 -80 86 -130z
M1174 50q-67 52 -150 52q-84 0 -148 -52q-64 -50 -86 -130h-188v724h844v-724h-188q-21 79 -84 130z" />
    <glyph glyph-name="uniE670" unicode="&#xe670;" 
d="M1864 514q4 -32 4 -54q0 -49 -20 -86q-21 -38 -56 -64q10 -18 20 -44q6 -24 6 -48q0 -52 -26 -90q-28 -44 -70 -66q9 -15 12 -36q4 -28 4 -48q0 -39 -12 -72q-13 -35 -36 -58t-58 -36q-34 -14 -80 -14h-678q-68 0 -116 30q-51 27 -84 54q-6 4 -18.5 14t-19.5 14
q-18 12 -30 12h-254q-24 0 -42 18t-18 42q0 26 18 44t42 18h254q43 0 78 -22q13 -8 64 -44q40 -28 60 -40q27 -18 66 -18h678q12 0 32 4q15 3 22 10t10 18q2 6 2 26q0 38 -20 52q-21 12 -104 12h-12q-26 0 -44 18q-18 15 -18 42q0 24 18 42t44 18h150q27 0 46 16
q18 15 18 40q0 40 -30 52q-37 10 -56 10h-90q-27 0 -42 18q-18 18 -18 42q0 26 18 44q15 18 42 18h172q30 0 42 18t12 40q0 43 -6 52q-5 5 -46 8h-8q-8 0 -10 2h-130q-27 0 -42 18q-18 15 -18 42q0 24 18 42q15 18 42 18h118h2h76q28 0 46 18t18 42q0 26 -18 44t-46 18h-536
q-14 0 -26 6q-8 4 -20 16q-9 9 -12 24q-4 16 -2 26l64 328q4 16 14 82q9 52 -10 86q-2 3 -4.5 5.5t-6 5.5t-5.5 5q-12 6 -26 6v0q-20 0 -34 -14q-21 -18 -34 -38l-390 -632q-9 -12 -22 -20t-30 -8h-308q-26 0 -44 18t-18 42q0 26 18 44q19 16 44 16h276l372 602q42 71 92 92
q48 18 78 18v0q43 0 84 -22q38 -21 60 -58q33 -57 30 -124q-6 -71 -18 -130l-50 -256h464q74 0 132 -52q54 -54 54 -130q0 -45 -20 -82q-18 -32 -56 -64q6 -18 12 -42z" />
    <glyph glyph-name="uniE671" unicode="&#xe671;" 
d="M1738 542q-18 -18 -44 -18h-276l-372 -602q-42 -72 -90 -90q-49 -20 -80 -20v0q-41 0 -82 22t-62 58q-34 59 -28 126q3 61 16 128l50 256h-464q-78 0 -132 54q-54 51 -54 126q0 52 26 92q24 40 64 64q-10 14 -22 42q-8 19 -8 46q0 51 20 88q21 40 56 60q-13 18 -20 46
q-6 24 -6 48q0 50 28 94q29 42 72 62q-13 26 -16 46q-4 28 -4 38q0 85 50 132q48 48 136 48h678q65 0 118 -28q47 -29 82 -58q14 -10 38 -26q17 -14 30 -14h254q23 0 42 -16q18 -18 18 -44q0 -24 -18 -42t-42 -18h-254q-43 0 -78 22q-44 28 -64 44q-40 28 -58 40
q-30 18 -68 18h-678q-43 0 -54 -14q-12 -15 -12 -44q0 -12 16 -38q14 -26 108 -26h12q25 0 44 -16q16 -19 16 -44q0 -23 -16 -42q-18 -18 -44 -18h-150q-27 0 -46 -16q-18 -15 -18 -40q0 -43 32 -52q33 -10 54 -10h90q24 0 42 -18t18 -44q0 -24 -18 -42t-42 -18h-172
q-30 0 -42 -18t-12 -40q0 -12 28 -34q29 -23 56 -28h116q25 0 44 -16q16 -19 16 -44q0 -23 -16 -42q-18 -18 -44 -18h-118h-2h-76q-28 0 -46 -18t-18 -44q0 -24 18 -42t46 -18h536q14 0 26 -6q8 -4 20 -16q9 -9 12 -22q4 -19 2 -28l-64 -328q-4 -16 -14 -82q-9 -55 10 -86
q5 -8 18 -14q8 -8 24 -8q19 0 36 14q20 16 32 38l390 632q9 12 22 20t30 8h308q26 0 44 -18t18 -42q0 -27 -18 -42z" />
    <glyph glyph-name="uniE672" unicode="&#xe672;" 
d="M1686 1126h-120v240h-482v-1446h198v-120h-516v120h198v1446h-482v-240h-120v362h1324v-362z" />
    <glyph glyph-name="uniE673" unicode="&#xe673;" 
d="M2048 -200v-120h-2048v120h2048zM1134 402l674 754v-276h120v486h-486v-120h284l-610 -682l-498 358l-526 -476l80 -90l454 412z" />
    <glyph glyph-name="uniE674" unicode="&#xe674;" 
d="M96 1144l80 90l456 -412l506 364l674 -752v276h120v-488h-486v122h284l-610 682l-498 -358zM0 -200v-120h2048v120h-2048z" />
    <glyph glyph-name="uniE675" unicode="&#xe675;" 
d="M1368 60l-344 -344l-344 344l86 84l198 -198v454h120v-454l198 198zM964 1008h120v454l198 -198l86 84l-344 344l-344 -342l86 -86l198 198v-454zM0 644h2048v120h-2048v-120z" />
    <glyph glyph-name="uniE676" unicode="&#xe676;" 
d="M720 764v-120h-454l198 -198l-84 -86l-344 344l344 344l84 -86l-198 -198h454zM1668 1048l-84 -86l198 -198h-454v-120h454l-198 -198l84 -86l344 344l-342 344h-2zM1084 -320v2048h-120v-2048h120z" />
    <glyph glyph-name="uniE677" unicode="&#xe677;" 
d="M844 1014v-240h-122v120h-240v-964h120v-120h-362v120h122v964h-242v-120h-120v240h722h122zM1928 1488h-1206v-312h122v190h482v-1446h-122v-120h362v120h-120v1446h482v-190h120v312h-120z" />
    <glyph glyph-name="uniE678" unicode="&#xe678;" 
d="M860 1092q-79 -35 -134 -90t-90 -134q-34 -77 -34 -164t34 -164q35 -79 90 -134t134 -90q77 -34 164 -34t164 34q79 35 134 90t90 134q34 77 34 164t-34 164q-35 79 -90 134t-134 90q-77 34 -164 34t-164 -34zM812 492q-90 87 -90 212q0 124 90 214q88 88 212 88
q123 0 214 -88q88 -91 88 -214q0 -124 -88 -212q-90 -90 -214 -90q-125 0 -212 90zM1084 1246h-120v362h120v-362zM1084 162v-362h-120v362h120zM1928 644h-362v120h362v-120zM482 644h-362v120h362v-120zM1450 1044l-86 86l256 256l86 -86zM598 364l86 -86l-256 -256
l-86 86zM1450 364l256 -256l-86 -86l-256 256zM598 1044l-256 256l86 86l256 -256z" />
    <glyph glyph-name="uniE679" unicode="&#xe679;" 
d="M1592 704l-586 -584l-84 84l438 440h-1360v120h1360l-438 440l84 84zM1928 1728v-2048h120v2048h-120z" />
    <glyph glyph-name="uniE67A" unicode="&#xe67a;" 
d="M688 644l438 -440l-84 -84l-586 584l586 584l84 -84l-438 -440h1360v-120h-1360zM0 -320h120v2048h-120v-2048z" />
    <glyph glyph-name="uniE67B" unicode="&#xe67b;" 
d="M1702 1350q-106 -106 -256 -106t-256 106t-106 256h-120q0 -150 -106 -256t-256 -106t-256 106t-106 256h-120v-826q0 -244 132 -424q135 -182 296 -302q153 -118 300 -184q139 -63 152 -66l20 -8l20 8q7 1 154 64q136 58 304 180q161 120 296 302q134 182 134 434v822
h-120q0 -150 -106 -256zM240 1288q69 -75 162 -120q91 -44 200 -44q107 0 202 46q98 47 160 118v-1338q-75 33 -198 102q-118 66 -238 174q-121 108 -202 242q-86 139 -86 312v508zM1724 468q-84 -138 -200 -242q-111 -100 -240 -172q-126 -71 -200 -102v1336
q62 -71 160 -118q95 -46 202 -46q111 0 202 44q89 43 160 120v-504q0 -175 -84 -316z" />
    <glyph glyph-name="uniE67C" unicode="&#xe67c;" 
d="M120 -320h1808v2048h-1808v-2048zM240 -200v1808h242v-132q-53 -19 -86 -64q-34 -46 -34 -106q0 -75 54 -126q51 -54 126 -54q74 0 128 54q52 52 52 126q0 60 -34 106q-33 45 -86 64v132h362v-132q-53 -19 -86 -64q-34 -46 -34 -106q0 -75 54 -126q51 -54 126 -54
q74 0 128 54q52 52 52 126q0 60 -34 106q-33 45 -86 64v132h362v-132q-53 -19 -86 -64q-34 -46 -34 -106q0 -75 54 -126q51 -54 126 -54q74 0 128 54q52 52 52 126q0 60 -34 106q-33 45 -86 64v132h242v-1808h-1568zM584 1264q-18 -18 -42 -18t-42 18t-18 42q0 26 18 44
q19 16 42 16t42 -16q18 -18 18 -44q0 -24 -18 -42zM1066 1264q-18 -18 -42 -18t-42 18t-18 42q0 26 18 44q19 16 42 16t42 -16q18 -18 18 -44q0 -24 -18 -42zM1548 1264q-18 -18 -42 -18t-42 18t-18 42q0 26 18 44q19 16 42 16t42 -16q18 -18 18 -44q0 -24 -18 -42z" />
    <glyph glyph-name="uniE67D" unicode="&#xe67d;" 
d="M1958 1488q-91 79 -236 132q-144 53 -328 80q-190 28 -370 28t-370 -28q-184 -27 -328 -80q-145 -53 -236 -132q-90 -78 -90 -182q0 -18 2 -28q5 -24 8 -32h-10v-1144q0 -104 90 -182q91 -79 236 -132q144 -53 328 -80q190 -28 370 -28t370 28q184 27 328 80
q145 53 236 132q90 78 90 182v1144h-10q3 8 8 32q2 10 2 28q0 104 -90 182zM1384 1580q167 -27 286 -68q124 -47 190 -98q68 -53 68 -108q0 -34 -34 -74q-29 -35 -98 -74q-66 -38 -148 -64q-91 -28 -184 -48q-98 -21 -212 -30q-123 -10 -228 -10t-228 10q-111 9 -210 30
t-186 48q-82 26 -148 64q-69 39 -98 74q-34 40 -34 74q0 55 68 108q67 52 192 98q116 40 284 68q171 28 360 28t360 -28zM664 -172q-173 28 -284 70q-123 42 -192 96q-68 53 -68 108v196q10 -8 34 -24q12 -8 40 -24q73 -41 162 -70q94 -33 200 -54q120 -24 224 -32
q120 -12 244 -12q42 0 62 2h62q119 7 206 20q93 11 192 34q97 23 168 50q64 22 140 62v0q28 16 40 24q24 16 34 24v-196q0 -55 -68 -108t-190 -96q-115 -42 -286 -70t-360 -28t-360 28zM1648 290q-91 -28 -184 -48q-98 -21 -212 -30q-123 -10 -228 -10q-40 0 -58 2h-58
q-103 6 -194 18q-103 13 -178 32q-90 19 -156 44q-75 28 -128 56q-65 37 -98 76q-34 40 -34 74v196q10 -8 34 -24q12 -8 40 -24q69 -39 162 -72q102 -33 200 -52q113 -23 224 -34q133 -10 244 -10t244 10q108 11 226 34q97 19 198 52q93 33 162 72q28 16 40 24q24 16 34 24
v-196q0 -34 -34 -74q-33 -39 -98 -76q-67 -35 -148 -64zM1646 692q-86 -28 -182 -48q-98 -21 -212 -30q-123 -10 -228 -10t-228 10q-111 9 -210 30q-102 22 -184 48q-83 26 -150 64q-69 39 -98 74q-34 40 -34 74v198q10 -8 34 -24q12 -8 40 -24q69 -39 162 -72
q82 -29 200 -52q113 -23 224 -34q120 -12 244 -12t244 12q108 11 226 34q118 24 198 52q93 33 162 72q28 16 40 24q24 16 34 24v-198q0 -34 -34 -74q-29 -35 -98 -74q-67 -38 -150 -64z" />
    <glyph glyph-name="uniE67E" unicode="&#xe67e;" 
d="M846 1066q-34 80 -90 136q-60 60 -136 92q-73 32 -164 32q-90 0 -166 -32q-73 -31 -134 -92q-60 -60 -92 -136q-34 -77 -34 -164q0 -86 34 -166q31 -73 92 -134t134 -92q80 -34 166 -34q69 0 126 20q62 22 112 54q-58 -158 -138 -250q-78 -90 -160 -140q-72 -47 -136 -64
l-32 -8t-23 -5.5t-9 -2.5l14 -118q8 0 100 26q99 27 218 122q121 94 226 280q108 183 126 502v4v6q0 87 -34 164zM240 686q-90 90 -90 216t90 216q91 88 216 88t216 -88q88 -91 88 -216t-88 -216q-90 -90 -216 -90t-216 90zM2016 896v6q0 91 -32 164q-32 76 -92 136
q-59 59 -134 92q-76 32 -166 32t-166 -32q-75 -33 -134 -92q-60 -60 -92 -136q-34 -77 -34 -164q0 -86 34 -166q31 -73 92 -134q59 -59 134 -92q80 -34 166 -34q68 0 128 20q58 20 110 54q-58 -158 -138 -250q-78 -90 -160 -140q-72 -47 -136 -64q-16 -4 -31 -8t-23 -5.5
t-10 -2.5l16 -118q34 8 100 26q96 27 218 122q121 94 226 280q105 183 126 502h-2v4zM1378 686q-90 90 -90 216t90 216q88 88 214 88q125 0 216 -88q88 -91 88 -216t-88 -216q-90 -90 -216 -90q-127 0 -214 90z" />
    <glyph glyph-name="uniE67F" unicode="&#xe67f;" 
d="M1460 792q-59 -20 -112 -54q56 154 138 248t160 142q80 49 136 64q53 14 64 14l-16 120q-34 -8 -98 -26q-93 -25 -218 -122q-119 -95 -228 -280q-105 -186 -126 -502h2v-6v-4q0 -86 34 -166q32 -76 90 -134q60 -60 136 -92q77 -34 164 -34q86 0 166 34q76 32 136 92
q58 58 90 134q34 80 34 166q0 87 -34 164q-34 80 -90 136q-60 60 -136 92t-166 32q-66 0 -126 -18zM1372 172q-90 87 -90 214q0 126 90 216q88 88 214 88q125 0 216 -88q90 -90 90 -216q0 -127 -90 -214q-90 -90 -216 -90q-127 0 -214 90zM324 792q-59 -20 -112 -54
q53 152 136 248q86 95 162 142q76 49 134 64q53 14 64 14l-14 120q-34 -8 -100 -26q-93 -25 -218 -122q-121 -97 -226 -280q-105 -186 -126 -502h2v-6l-2 -4q0 -86 34 -166q31 -73 92 -134q59 -59 134 -92q80 -34 166 -34q87 0 164 34q76 32 136 92q61 61 92 134
q32 76 32 166q0 91 -32 164q-32 76 -92 136q-59 59 -134 92q-76 32 -166 32q-66 0 -126 -18zM236 172q-90 87 -90 214q0 126 90 216q88 88 214 88q125 0 216 -88q88 -91 88 -216q0 -126 -88 -214q-90 -90 -216 -90q-127 0 -214 90z" />
    <glyph glyph-name="uniE680" unicode="&#xe680;" 
d="M1726 764l-226 528l-414 -1180l-484 1580l-286 -928h-316v-120h406l196 638l476 -1554l434 1232l134 -316h402v120h-322z" />
    <glyph glyph-name="uniE681" unicode="&#xe681;" 
d="M1686 1006v218l-542 504h-784v-722h-360v-964h362v-374h1324v374h362v964h-362zM1204 1508l282 -262h-282v262zM1084 1608v-482h482v-120h-1086v602h604zM1566 -212h-1084v602h1084v-602zM1686 162v350h-1324v-350h-242v722h1808v-722h-242zM1326 162h-724v120h724v-120z
M1084 -80h-482v122h482v-122zM362 644h-122v120h122v-120zM602 644h-120v120h120v-120z" />
    <glyph glyph-name="uniE682" unicode="&#xe682;" 
d="M1856 232q-68 -162 -192 -286q-126 -126 -288 -194q-165 -72 -352 -72t-352 72q-158 66 -286 194t-194 286q-72 165 -72 352q0 158 54 302q50 145 148 264q89 112 224 200q133 83 284 116l26 -118q-133 -27 -246 -100q-116 -73 -196 -174q-85 -107 -128 -228
q-46 -129 -46 -262q0 -165 62 -304q64 -146 168 -250t250 -168q139 -62 304 -62t304 62q146 64 250 168t168 250q62 139 62 304q0 133 -46 262q-43 121 -128 228q-79 99 -194 174q-117 71 -246 100l26 118q148 -32 282 -116q133 -87 226 -200q97 -121 146 -264
q54 -144 54 -302q0 -187 -72 -352zM1084 1728h-120v-1204h120v1204z" />
    <glyph glyph-name="uniE683" unicode="&#xe683;" 
d="M362 642q0 -121 52 -234q51 -108 142 -190q92 -83 210 -130q126 -46 258 -46t258 46q118 47 210 130q91 82 142 190q52 113 52 234v604h-1324v-604zM1566 642q0 -99 -42 -186q-48 -92 -116 -152q-73 -64 -174 -104q-96 -38 -210 -38t-210 38q-103 40 -172 104
q-70 58 -118 152q-42 87 -42 186v484h1084v-484zM846 1366h-122v362h122v-362zM1324 1366h-122v362h122v-362zM1084 42v-362h-120v362h120zM1326 764h-604v120h604v-120zM1326 524h-604v120h604v-120z" />
    <glyph glyph-name="uniE684" unicode="&#xe684;" 
d="M1926 642q-12 -175 -88 -330t-198 -268q-126 -117 -280 -178q-159 -66 -336 -66q-187 0 -352 72q-158 66 -286 194t-194 286q-72 165 -72 352q0 175 66 334q61 154 178 280q111 123 264 198t328 90l10 -122q-152 -9 -286 -76q-130 -65 -228 -172q-97 -103 -156 -242
q-56 -136 -56 -290q0 -165 62 -304q64 -146 168 -250t250 -168q139 -62 304 -62q152 0 292 58q142 60 242 154q109 102 172 232q64 138 76 286zM2048 764l-60 -2h-902v966h60q187 0 352 -72q163 -71 286 -194t194 -286q70 -167 70 -352v-60zM1926 882q-9 142 -70 270
q-59 124 -156 224q-94 94 -222 158q-129 61 -272 70v-722h720z" />
    <glyph glyph-name="uniE685" unicode="&#xe685;" 
d="M1928 1604h-1326q-101 0 -186 -38q-85 -35 -150 -100t-104 -152q-38 -85 -38 -186t38 -186q40 -89 104 -150q63 -66 150 -102q85 -38 186 -38h362v-852h120v1684h242v-1684h122v1684h480v120zM964 772h-362q-148 0 -252 104t-104 252t104 252t252 104h362v-712z" />
    <glyph glyph-name="uniE686" unicode="&#xe686;" 
d="M0 1728v-2048h2048v2048h-2048zM1928 -200h-1808v1808h1808v-1808zM482 162h120v334q68 21 112 76q42 57 42 128q0 73 -42 130q-44 55 -112 76v340h-120v-340q-67 -21 -110 -76q-44 -56 -44 -130q0 -72 44 -128q46 -59 110 -76v-334zM610 768q26 -26 26 -68
q0 -40 -26 -66q-28 -28 -68 -28q-38 0 -66 28t-28 66q0 40 28 68q26 26 66 26q42 0 68 -26zM964 162h120v590q67 21 110 76q44 56 44 128q0 74 -44 130q-43 55 -110 76v84h-120v-84q-67 -21 -110 -76q-44 -56 -44 -130q0 -72 44 -128q46 -59 110 -76v-590zM1090 1024
q28 -28 28 -68q0 -38 -28 -66t-66 -28t-66 28t-28 66q0 40 28 68q26 26 66 26t66 -26zM1658 176q62 62 62 150q0 74 -44 130q-43 55 -110 76v714h-120v-714q-70 -21 -110 -76q-44 -56 -44 -130q0 -86 64 -150t150 -64q88 0 152 64zM1572 394q28 -28 28 -68q0 -38 -28 -66
t-66 -28t-66 28t-28 66q0 40 28 68q26 26 66 26t66 -26z" />
    <glyph glyph-name="uniE687" unicode="&#xe687;" 
d="M0 1344v-1288l1024 -384l1024 384v1288l-1022 388zM1506 1186l-790 300l310 118l792 -302zM1024 1006l-792 296l314 120l788 -300zM964 900v-1076l-844 316v1076zM1084 900l844 316v-1076l-844 -316v1076z" />
    <glyph glyph-name="uniE688" unicode="&#xe688;" 
d="M1830 1300l-866 402v-1190q-45 39 -104 64q-63 22 -124 22q-146 0 -248 -102q-104 -104 -104 -248q0 -147 104 -248q101 -104 248 -104q144 0 248 104q102 102 102 248v10q-2 2 -2 8v1248l694 -324zM572 86q-68 65 -68 162q0 96 68 164q69 66 164 66q93 0 162 -66
q68 -68 68 -164q0 -97 -68 -162q-68 -68 -162 -68q-96 0 -164 68z" />
    <glyph glyph-name="uniE689" unicode="&#xe689;" 
d="M722 586q-45 39 -104 64q-60 22 -124 22q-146 0 -248 -102q-104 -104 -104 -248q0 -147 104 -248q101 -104 248 -104q141 0 244 100q100 100 106 238v2v6v6v6v6v734l1084 -212v-562q-45 39 -104 64q-60 24 -128 24q-144 0 -246 -102q-104 -104 -104 -248q0 -147 104 -248
q101 -104 246 -104q143 0 246 100t106 244v-2v1414l-1326 260v-1110zM330 158q-68 68 -68 164q0 94 68 162t164 68q91 0 158 -64t70 -154v-24q-3 -92 -70 -156t-158 -64q-96 0 -164 68zM844 1550l1084 -212v-360l-1084 212v360zM1534 -132q-68 68 -68 164q0 94 68 162
t162 68q96 0 164 -68t68 -162q0 -96 -68 -164t-164 -68q-94 0 -162 68z" />
    <glyph glyph-name="uniE68A" unicode="&#xe68a;" 
d="M766 1676q-118 -50 -210 -142t-142 -210q-52 -125 -52 -258v-724q0 -133 52 -258q50 -118 142 -210t210 -142q122 -52 258 -52t258 52q118 50 210 142t142 210q52 125 52 258v724q0 133 -52 258q-50 118 -142 210t-210 142q-122 52 -258 52t-258 -52zM1524 132
q-44 -97 -116 -172q-73 -73 -174 -116q-97 -44 -210 -44t-210 44q-102 43 -172 116q-73 73 -118 172q-42 99 -42 210v724q0 111 42 210q45 99 118 172q70 73 172 116q97 44 210 44t210 -44q101 -43 174 -116q72 -75 116 -172q42 -99 42 -210v-724q0 -111 -42 -210zM898 1254
q-54 -54 -54 -128v-242q0 -75 54 -126q51 -54 126 -54q74 0 128 54q52 52 52 126v242q0 73 -52 128q-55 52 -128 52q-74 0 -126 -52zM1084 884q0 -24 -18 -42t-42 -18t-42 18t-18 42v242q0 24 18 42t42 18t42 -18t18 -42v-242z" />
    <glyph glyph-name="uniE68B" unicode="&#xe68b;" 
d="M766 1676q-118 -50 -210 -142t-142 -210q-52 -125 -52 -258v-724q0 -133 52 -258q50 -118 142 -210t210 -142q122 -52 258 -52t258 52q118 50 210 142t142 210q52 125 52 258v724q0 133 -52 258q-50 118 -142 210t-210 142q-122 52 -258 52t-258 -52zM1566 1006h-482v596
q101 -12 190 -58q87 -45 154 -118q65 -75 100 -164q38 -91 38 -196v-60zM964 1006h-482v60q0 105 38 196q35 91 102 164q63 72 152 118t190 58v-596zM814 -156q-102 43 -172 116q-73 73 -118 172q-42 99 -42 210v542h1084v-542q0 -111 -42 -210q-44 -97 -116 -172
q-73 -73 -174 -116q-97 -44 -210 -44t-210 44z" />
    <glyph glyph-name="uniE68C" unicode="&#xe68c;" 
d="M1290 576l-2 2l-2 2l-202 154v688q106 -21 174 -98t68 -180l60 -6l60 6q0 154 -104 264q-107 113 -258 134v186h-120v-186q-151 -21 -258 -134q-104 -110 -104 -264q0 -86 38 -162q37 -80 102 -136h-2l6 -4v0l218 -168v-688q-104 21 -172 98q-70 79 -70 180h-120
q0 -154 104 -264q107 -113 258 -134v-186h120v186q151 21 258 134q104 110 104 264q0 89 -40 172q-42 81 -114 138zM748 1030q-26 52 -26 114q0 101 70 180q68 77 172 98v-596l-142 110q-45 37 -74 94zM1084 582l134 -102q50 -41 80 -98q28 -59 28 -118q0 -103 -68 -180
t-174 -98v596z" />
    <glyph glyph-name="uniE68D" unicode="&#xe68d;" 
d="M1234 326q101 43 174 116q69 69 116 172q42 99 42 210v362q0 105 -38 196q-36 93 -100 166q-69 72 -154 116q-89 46 -190 58v6h-120v-6q-101 -12 -190 -58q-87 -45 -152 -116t-102 -166q-38 -91 -38 -196v-362q0 -111 42 -210q47 -104 118 -172q70 -73 172 -116
q97 -44 210 -44t210 44zM722 1246h122v320q32 14 58 22q23 7 62 14v-356h120v356q39 -7 62 -14q26 -8 58 -22v-320h122v234q56 -59 88 -132t32 -162v-60h-844v60q0 85 34 162t86 132v-234zM1446 1006v-182q0 -84 -34 -164q-33 -75 -90 -132q-59 -59 -134 -92
q-77 -34 -164 -34t-164 34q-75 33 -134 92q-57 57 -90 132q-34 80 -34 164v182h844zM1808 494q0 -97 -44 -176q-43 -82 -116 -144q-74 -63 -172 -98q-102 -34 -212 -34h-180v-362h-120v362h-180q-110 0 -212 34q-98 35 -172 98q-73 62 -116 144q-44 79 -44 176v390h122v-390
q0 -137 124 -234q122 -98 298 -98h480q178 0 300 98q122 95 122 234v390h122v-390z" />
    <glyph glyph-name="uniE68E" unicode="&#xe68e;" 
d="M1928 1366v-240h-1808v240h1808zM1928 524v240h-1808v-240h1808zM1928 -80v242h-1808v-242h1808z" />
    <glyph glyph-name="uniE68F" unicode="&#xe68f;" 
d="M1928 1488v-242h-1326v242h1326zM1928 644v240h-1326v-240h1326zM1928 42v240h-1326v-240h1326zM156 1452q-36 -36 -36 -86q0 -51 36 -84q36 -36 84 -36q50 0 86 36q36 33 36 84q0 50 -36 86t-86 36q-48 0 -84 -36zM156 850q-36 -36 -36 -86q0 -51 36 -84q36 -36 84 -36
q50 0 86 36q36 33 36 84q0 50 -36 86q-37 34 -86 34q-47 0 -84 -34zM156 248q-36 -36 -36 -86q0 -51 36 -84q36 -36 84 -36q50 0 86 36q36 33 36 84q0 50 -36 86q-37 34 -86 34q-47 0 -84 -34z" />
    <glyph glyph-name="uniE690" unicode="&#xe690;" 
d="M674 1364l-674 2v-1324h644l626 -178l658 192v1330l-664 -192zM1204 1086v-1078l-482 136v1080zM602 1246v-1086l-482 2v1084h482zM1326 4v1082l482 140v-1080z" />
    <glyph glyph-name="uniE691" unicode="&#xe691;" 
d="M1808 1238l-2 6l-122 -26q-9 84 -42 152q-38 75 -92 124q-58 52 -128 84q-75 30 -158 30q-81 0 -156 -30q-71 -31 -130 -84q-56 -50 -90 -124q-36 -72 -42 -154l-124 28v2h-722v-1326h644l626 -178l658 194v1310h-120v-8zM1478 1400q88 -91 88 -214q0 -78 -34 -174
q-27 -73 -80 -176q-38 -69 -100 -160q-49 -70 -88 -118q-71 97 -86 118q-64 94 -98 160q-52 94 -82 176q-34 96 -34 174q0 123 88 214q88 88 212 88q126 0 214 -88zM854 1092q18 -100 66 -206q49 -107 104 -194q66 -104 106 -156q15 -20 30 -39t27.5 -34.5t16.5 -20.5v-556
l-482 138v1096zM602 1126v-1086l-482 2v1084h482zM1326 442q3 4 28.5 36t45.5 58q41 56 106 158q54 82 104 192q46 100 68 208l130 28v-1096l-482 -142v558zM1380 1292q-48 48 -116 48q-66 0 -114 -48t-48 -116t48 -116t114 -48q68 0 116 48t48 116t-48 116zM1236 1208
q12 12 28 12q17 0 32 -12q12 -15 12 -32q0 -18 -12 -30q-14 -14 -32 -14q-17 0 -28 14q-14 11 -14 30q0 18 14 32z" />
    <glyph glyph-name="uniE692" unicode="&#xe692;" 
d="M156 456q37 -89 100 -152q62 -65 146 -104q79 -38 178 -38v-120q-119 0 -226 46q-105 48 -184 130q-80 83 -124 192q-46 113 -46 234t46 234q44 109 124 192q81 84 184 128q105 48 226 48h510l-200 198l86 86l344 -344l-344 -344l-86 86l200 198h-510q-99 0 -178 -38
q-84 -39 -146 -104q-65 -69 -100 -152q-36 -87 -36 -188t36 -188zM1468 1126q99 0 178 -38q88 -41 148 -104q62 -65 98 -152t36 -188t-36 -188q-38 -92 -98 -152q-60 -63 -148 -104q-79 -38 -178 -38h-510l198 198l-84 86l-344 -344l344 -344l86 84l-200 200h510
q119 0 226 46q105 48 184 130q80 83 124 192q46 113 46 234t-46 234q-44 109 -124 192q-81 84 -184 128q-105 48 -226 48v-120z" />
    <glyph glyph-name="uniE693" unicode="&#xe693;" 
d="M766 1616q-118 -50 -210 -142t-142 -212q-52 -122 -52 -256q0 -200 92 -414q92 -211 208 -394q106 -175 210 -304q81 -100 106 -134l46 -52l46 54q3 3 14 16.5t38.5 48t53.5 67.5q100 124 212 304q116 189 206 394q92 214 92 414q0 134 -52 256q-50 120 -142 212
t-210 142q-125 52 -258 52t-258 -52zM882 84q-91 123 -180 280q-92 156 -154 322q-66 168 -66 320q0 111 42 210q45 99 118 172q70 73 172 116q97 44 210 44t210 -44q101 -43 174 -116q72 -75 116 -172q42 -99 42 -210q0 -152 -66 -320q-60 -161 -152 -322
q-97 -165 -182 -280q-96 -131 -142 -188q-46 57 -142 188zM768 1244q-106 -106 -106 -256q0 -148 106 -254t256 -106t256 106t106 254q0 150 -106 256t-256 106t-256 -106zM854 818q-70 70 -70 170q0 99 70 172q70 70 170 70t170 -70q70 -73 70 -172q0 -100 -70 -170
t-170 -70t-170 70z" />
    <glyph glyph-name="uniE694" unicode="&#xe694;" 
d="M2048 1246v-120h-1446v120h1446zM310 1060q-54 -54 -130 -54q-75 0 -126 54q-54 51 -54 126q0 74 54 128q52 52 126 52q75 0 130 -52q52 -55 52 -128q0 -74 -52 -126zM224 1228q-18 18 -44 18q-24 0 -42 -18t-18 -42t18 -42t42 -18q26 0 44 18q16 19 16 42t-16 42z
M2048 644v120h-1446v-120h1446zM310 578q-54 -54 -130 -54q-75 0 -126 54q-54 51 -54 126q0 74 54 128q52 52 126 52q75 0 130 -52q52 -55 52 -128q0 -74 -52 -126zM224 746q-18 18 -44 18q-24 0 -42 -18t-18 -42t18 -42t42 -18q26 0 44 18q16 19 16 42t-16 42zM2048 162
v120h-1446v-120h1446zM310 96q-54 -54 -130 -54q-75 0 -126 54q-54 51 -54 126q0 74 54 128q52 52 126 52q75 0 130 -52q52 -55 52 -128q0 -74 -52 -126zM224 264q-18 18 -44 18q-24 0 -42 -18t-18 -42t18 -42t42 -18q26 0 44 18q16 19 16 42t-16 42z" />
    <glyph glyph-name="uniE695" unicode="&#xe695;" 
d="M766 1672q-120 -54 -210 -150q-92 -99 -142 -224q-52 -132 -52 -272q0 -214 72 -346q62 -118 146 -236q67 -96 100 -154q42 -75 42 -168v-254q0 -78 54 -132q50 -56 128 -56h240q77 0 130 56q52 55 52 132v256q0 97 42 166q31 55 98 150q72 95 148 232q72 135 72 354
q0 140 -52 272q-50 125 -142 224q-90 96 -210 150q-121 56 -258 56t-258 -56zM904 -200q-28 0 -42 20q-18 21 -18 48v198h360v-198q0 -26 -16 -48q-17 -20 -44 -20h-240zM1270 364q-46 -76 -62 -178h-370q-15 100 -60 178q-41 67 -100 150q-72 99 -134 214q-62 112 -62 298
q0 121 42 226q47 109 118 186q73 79 172 124q101 46 210 46t210 -46q97 -44 174 -124q70 -79 116 -186q42 -105 42 -226q0 -192 -62 -304q-66 -119 -134 -210q-56 -75 -100 -148z" />
    <glyph glyph-name="uniE696" unicode="&#xe696;" 
d="M748 -80h96v-120h-362v120h134l686 1566h-98v120h362v-120h-134z" />
    <glyph glyph-name="uniE697" unicode="&#xe697;" 
d="M1302 -112h-556v120h218v896h-212v120h332v-1016h218v-120zM1092 1294q54 54 54 132q0 76 -54 130t-130 54t-130 -54t-54 -130q0 -78 54 -132t130 -54t130 54z" />
    <glyph glyph-name="uniE698" unicode="&#xe698;" 
d="M2010 576q-38 -85 -102 -152q-63 -63 -154 -104q-85 -38 -188 -38q-106 0 -204 46q-94 43 -166 130l-2 2l-2 2l-2 2l-438 540q-50 55 -122 90q-67 32 -148 32q-150 0 -256 -106t-106 -256t106 -256t256 -106q81 0 156 36q74 35 126 100h2l98 122l94 -76l-100 -122h-2
q-70 -88 -166 -132q-99 -48 -208 -48q-103 0 -188 38q-92 41 -152 104q-65 65 -104 152q-38 85 -38 188t38 188q41 91 104 154q61 61 152 102q85 38 188 38q99 0 194 -40q91 -41 160 -116h2l4 -6l446 -550q50 -62 124 -96q72 -36 154 -36q150 0 256 106t106 256t-106 256
t-256 106q-77 0 -146 -30q-72 -35 -122 -90l-114 -142l-94 76l114 142q66 75 164 122q93 42 198 42q103 0 188 -38q89 -40 154 -102q62 -65 102 -154q38 -85 38 -188t-38 -188z" />
    <glyph glyph-name="uniE699" unicode="&#xe699;" 
d="M0 1366v-1446h2048v1446h-2048zM1928 42h-1808v1204h1808v-1204zM188 102q3 128 116 232q111 99 282 132v40q-26 29 -38 54q-18 33 -26 56q-16 12 -28 28q-10 12 -20 36q-17 34 -14 72q3 37 20 56v14v12v22q0 53 14 112q12 63 98 78q17 31 48 56q30 21 94 24
q99 3 170 -34q67 -35 92 -106q9 -24 6 -42q-6 -21 -12 -36q-5 -9 -8 -26q-4 -21 -2 -42q2 -6 2 -18t-2 -18q17 -24 20 -52q3 -31 -10 -66q-11 -28 -22 -42q-13 -19 -30 -32q-7 -22 -24 -52q-20 -36 -34 -50v-44q168 -32 282 -134q107 -98 110 -228l-120 -4q-3 93 -98 164
q-96 72 -242 90l-52 8v204l24 18q2 2 22 30q9 13 28 62l16 42l8 76q1 3 2 9t2 9q0 10 -2 14q-3 54 4 78q7 33 14 48v4h2q-20 35 -68 44q-48 6 -74 6q-24 -3 -30 -6q-8 -3 -12 -14q-2 -4 -22 -32q-18 -21 -54 -24l-12 -2l-4 -2q-4 -8 -4 -28v-40v-24q0 -16 2 -26q0 -18 2 -28
l8 -68l14 -4l2 -30q12 -41 28 -64q10 -16 26 -32l26 -18v-202l-54 -6q-145 -18 -244 -90q-99 -75 -102 -166zM1808 764h-604v120h604v-120zM1686 524h-482v120h482v-120z" />
    <glyph glyph-name="uniE69A" unicode="&#xe69a;" 
d="M1084 1246h678l-434 482h-846v-482h482v-448h-136v-1118h392v1118h-136v448zM1274 1608l216 -242h-888v242h672zM1100 -200h-152v878h152v-878z" />
    <glyph glyph-name="uniE69B" unicode="&#xe69b;" 
d="M1326 -200v724h-604v-724h-360v1084h-122v-1204h1568v1204h-122v-1084h-360zM844 402h360v-602h-360v602zM2024 948l-72 -98l-928 682l-928 -680l-72 96l1000 734z" />
    <glyph glyph-name="uniE69C" unicode="&#xe69c;" 
d="M1186 -196q-58 -58 -140 -58q-80 0 -138 58t-58 138t58 138t138 58q82 0 140 -58q56 -56 56 -138t-56 -138zM1274 1556q-85 56 -228 56q-181 0 -288 -70q-100 -71 -152 -156q-51 -87 -60 -158l-12 -72l122 -4q0 13 8 58q10 60 46 118q38 61 116 112q80 52 220 52
q103 0 168 -40q67 -45 98 -84q50 -62 66 -128q16 -67 8 -94q-26 -108 -84 -178q-48 -55 -130 -130q-84 -75 -156 -168t-72 -260h120q0 128 56 196q59 75 134 142q72 66 144 150q73 83 106 222q14 52 -8 148q-24 90 -90 174q-45 57 -132 114z" />
    <glyph glyph-name="uniE69D" unicode="&#xe69d;" 
d="M1842 1134q-77 181 -194 310q-125 134 -282 208q-161 76 -342 76t-342 -76q-159 -75 -280 -208q-119 -127 -196 -310q-75 -177 -84 -380q-53 -19 -86 -64q-36 -45 -36 -106v-482q0 -77 54 -128q51 -54 126 -54h182v122h120v602h-120v120h-118q9 171 74 330
q66 153 172 268t242 180q135 66 292 66t292 -66q140 -67 244 -180q102 -111 170 -268q65 -159 74 -330h-118v-120h-120v-602h120v-122h182q74 0 128 54q52 52 52 128v482q0 60 -34 106q-37 46 -88 64q-9 203 -84 380zM180 42q-24 0 -42 18q-18 15 -18 42v482q0 24 18 42
t42 18h60v-602h-60zM1910 60q-18 -18 -42 -18h-60v602h60q24 0 42 -18t18 -42v-482q0 -27 -18 -42z" />
    <glyph glyph-name="uniE69E" unicode="&#xe69e;" 
d="M1500 170q-54 -54 -54 -128q0 -77 54 -128q51 -54 126 -54q76 0 130 54q52 52 52 128q0 73 -52 128q-55 52 -130 52q-74 0 -126 -52zM1584 0q-18 15 -18 42q0 24 18 42t42 18q26 0 44 -18q16 -19 16 -42q0 -26 -16 -42q-18 -18 -44 -18q-24 0 -42 18zM1696 1728h-1344
l-352 -372v-774h112l-112 -142v-760h2048v754l-126 148h126v766zM1644 1608l222 -242h-1690l228 242h1240zM120 282h1808v-482h-1808v482zM124 402l142 180h1498l152 -180h-1792zM120 1246h1808v-544h-1808v544zM1500 1074q-54 -54 -54 -130q0 -75 54 -126q51 -54 126 -54
q76 0 130 54q52 52 52 126q0 75 -52 130q-55 52 -130 52q-74 0 -126 -52zM1584 902q-18 18 -18 42q0 26 18 44t42 18q26 0 44 -18q16 -19 16 -44q0 -23 -16 -42q-18 -18 -44 -18q-24 0 -42 18z" />
    <glyph glyph-name="uniE69F" unicode="&#xe69f;" 
d="M1702 1368h-1356l-346 -528v-800h2048v792zM1638 1246l234 -362h-1698l236 362h1228zM120 764h1808v-602h-1808v602zM1500 592q-54 -54 -54 -130q0 -75 54 -126q51 -54 126 -54q76 0 130 54q52 52 52 126q0 75 -52 130q-55 52 -130 52q-74 0 -126 -52zM1584 420
q-18 18 -18 42q0 26 18 44q19 16 42 16q25 0 44 -16q16 -19 16 -44q0 -23 -16 -42q-18 -18 -44 -18q-24 0 -42 18z" />
    <glyph glyph-name="uniE6A0" unicode="&#xe6a0;" 
d="M940 1028l82 10h2l2 2l76 -10l-4 22q63 11 120 26q72 16 148 42q94 34 152 64q77 37 132 86q45 39 68 88q24 48 24 104q0 53 -24 104q-23 49 -68 88q-86 74 -212 74q-127 0 -210 -74q-73 -62 -124 -148q-54 -92 -82 -168q-38 92 -82 168q-49 83 -126 148q-84 72 -210 72
t-210 -72q-49 -43 -68 -88q-24 -51 -24 -104q0 -56 24 -104q19 -45 68 -88q55 -49 132 -86q70 -34 152 -62q86 -31 146 -44q21 -4 62 -13.5t58 -12.5zM1366 1598q33 12 72 12t72 -12q31 -11 60 -34q25 -20 38 -48q12 -27 12 -54t-12 -54q-13 -28 -38 -48q-91 -79 -238 -124
q-128 -39 -238 -64q22 86 72 200q52 118 140 192q29 23 60 34zM532 1596q33 12 72 12t72 -12q31 -11 60 -34q92 -79 140 -190q51 -117 72 -198q-79 15 -238 64q-147 45 -238 124q-25 22 -36 46q-14 25 -14 54t14 54q11 24 36 46q29 23 60 34zM0 1006v-482h120v-844h1808v844
h120v482h-2048zM1202 884l128 -704l-198 84l-156 -146l-136 766h362zM718 884l42 -240h-640v240h598zM240 -200v724h542l114 -644l262 242l332 -138l-100 540h418v-724h-1568zM1368 644l-44 240h604v-240h-560z" />
    <glyph glyph-name="uniE6A1" unicode="&#xe6a1;" 
d="M1084 1608h-120v-360q-169 -6 -332 -32q-149 -24 -310 -68q-139 -42 -232 -94q-90 -51 -90 -106v-848q0 -77 54 -128q52 -52 126 -52h216l240 472q29 -5 152 -20q99 -12 232 -12t238 12q121 14 158 20l230 -472h222q73 0 128 52q52 52 52 128v848q0 55 -90 106
q-95 54 -230 94q-158 44 -312 68q-163 26 -332 32v360zM1910 58q-18 -18 -42 -18h-148l-238 490l-46 -10q-42 -6 -122 -20q-114 -20 -296 -20q-180 0 -286 20l-114 20l-46 10l-250 -490h-142q-24 0 -42 18q-18 15 -18 42v832q19 17 96 52q69 30 186 62q113 30 254 54
q160 23 308 26h120v2q155 -6 308 -28q147 -24 256 -54q112 -30 184 -62q75 -35 96 -50v-834q0 -27 -18 -42zM722 882v-120h-120v-124h-120v124h-120v120h120v124h120v-124h120zM1634 696q52 52 52 126q0 73 -52 128q-55 52 -128 52q-74 0 -126 -52q-54 -54 -54 -128
q0 -75 54 -126q51 -54 126 -54q74 0 128 54zM1548 864q18 -18 18 -42t-18 -42t-42 -18t-42 18t-18 42t18 42t42 18t42 -18z" />
    <glyph glyph-name="uniE6A2" unicode="&#xe6a2;" 
d="M844 616v-936h360v936l778 1112h-1916zM1084 -200h-120v854l-668 954h1456l-668 -954v-854z" />
    <glyph glyph-name="uniE6A3" unicode="&#xe6a3;" 
d="M722 1728v-242h122v122h602v-482h482v-964h-484v-120h604v1182l-542 504h-784zM1566 1508l282 -262h-282v262zM0 -320h1326v1182l-544 504h-782v-1686zM1124 884h-280v262zM120 1246h602v-482h482v-964h-1084v1446z" />
    <glyph glyph-name="uniE6A4" unicode="&#xe6a4;" 
d="M240 1728v-2048h1568v1408l-644 640h-924zM1204 1518l396 -392h-396v392zM362 1608h722v-602h602v-1206h-1324v1808z" />
    <glyph glyph-name="uniE6A5" unicode="&#xe6a5;" 
d="M994 1584q-64 36 -136 16q-75 -21 -110 -82l-724 -1252q-39 -66 -18 -138q21 -71 84 -110l384 -220l524 2l688 1176q39 63 18 136q-21 71 -84 110zM930 -80h-424l-356 202q-23 16 -28 38q-6 25 6 46l332 572l726 -418zM1246 464l-726 420l332 572q10 17 22 24q13 8 30 8
q10 0 16 -2q8 -4 14 -6l626 -362q22 -13 28 -36q6 -26 -6 -46zM2048 -80v-120h-844v120h844z" />
    <glyph glyph-name="uniE6A6" unicode="&#xe6a6;" 
d="M240 1728v-2048h1568v2048h-1568zM396 1608h1256l-170 -362h-916zM964 1126v-1084h-482l-120 -140v1496l128 -272h474zM1512 -80l104 -120h-1184l104 120h976zM1084 42v1084h474l128 272v-1496l-120 140h-482z" />
    <glyph glyph-name="uniE6A7" unicode="&#xe6a7;" 
d="M2048 -200v-120h-2048v120h2048zM1524 746l-440 -438v1420h-120v-1420l-440 438l-84 -84l584 -586l584 586z" />
    <glyph glyph-name="uniE6A8" unicode="&#xe6a8;" 
d="M1666 1488h-582v240h-120v-240h-844v-844h844v-964h120v964h584l336 432zM240 764v602h1370l240 -292l-242 -310h-524h-844z" />
    <glyph glyph-name="uniE6A9" unicode="&#xe6a9;" 
d="M1650 1006l234 308l-236 294h-564v120h-120v-120h-724v-602h724v-242h-564l-236 -294l234 -308h566v-482h120v482h724v602h-724v242h566zM1590 1488l140 -176l-140 -186h-1228v362h1228zM458 282l-140 186l140 176h1228v-362h-1228z" />
    <glyph glyph-name="uniE6AA" unicode="&#xe6aa;" 
d="M2048 282h-744v120h622q-9 150 -68 290q-60 135 -154 244l-98 -96l-84 86l96 96q-109 94 -244 154q-140 59 -290 68v-360h-120v360q-150 -9 -290 -68q-135 -60 -244 -154l96 -96l-86 -86l-96 96q-96 -112 -152 -244q-61 -137 -70 -290h624v-120h-746v60q0 214 80 398
q80 186 222 328q136 136 324 218q184 80 398 80t398 -80q186 -81 326 -218q141 -144 220 -328q80 -184 80 -398v-60zM1194 172q-70 -70 -170 -70t-170 70t-70 170q0 59 26 108q23 49 68 82l-252 438l106 60l258 -450q3 1 8 2t8 2h18q100 0 170 -70q70 -73 70 -172
q0 -100 -70 -170zM1110 428q-36 36 -86 36q-51 0 -84 -36q-36 -36 -36 -86q0 -51 36 -84q33 -36 84 -36q50 0 86 36q34 34 34 84q0 49 -34 86z" />
    <glyph glyph-name="uniE6AB" unicode="&#xe6ab;" 
d="M362 42h1324v1324h-1324v-1324zM1566 162h-1084v1084h1084v-1084z" />
    <glyph glyph-name="uniE6AC" unicode="&#xe6ac;" 
d="M1208 1062h-2q79 89 186 136q105 48 222 48h228l-198 198l86 86l342 -344l-342 -344l-86 86l198 198h-228q-89 0 -170 -36q-84 -41 -142 -104l-132 -162l-92 76zM558 324q-87 -42 -184 -42h-374v-120h374q123 0 234 54q108 50 188 148l2 -2l112 142l-92 74l-114 -138
q-59 -74 -146 -116zM1842 282h-228q-96 0 -180 42q-84 38 -146 112l-514 634h-2q-76 86 -180 130q-107 46 -218 46h-374v-120h374q91 0 172 -36q86 -41 142 -106l502 -618q77 -98 190 -150q111 -54 234 -54h228l-198 -198l86 -86l342 344l-342 344l-86 -86z" />
    <glyph glyph-name="uniE6AD" unicode="&#xe6ad;" 
d="M362 4l1400 704l-1400 696v-1400zM1492 706l-1010 -506v1010z" />
    <glyph glyph-name="uniE6AE" unicode="&#xe6ae;" 
d="M362 -80h482v1568h-482v-1568zM722 1366v-1324h-240v1324h240zM1204 1488v-1568h482v1568h-482zM1566 42h-240v1324h240v-1324z" />
    <glyph glyph-name="uniE6AF" unicode="&#xe6af;" 
d="M362 -28l876 736l-876 726v-1462zM1050 706l-568 -476v948zM1062 56l-76 92l666 558l-666 554l76 92l778 -644z" />
    <glyph glyph-name="uniE6B0" unicode="&#xe6b0;" 
d="M1686 -28v1462l-876 -726zM1566 230l-568 476l568 472v-948zM1062 148l-76 -92l-780 652l780 644l76 -92l-666 -554z" />
    <glyph glyph-name="uniE6B1" unicode="&#xe6b1;" 
d="M1434 1176q-45 -11 -102 -34q-80 77 -182 122q-105 42 -216 42q-92 0 -170 -26q-81 -27 -150 -72q-71 -50 -124 -114q-52 -66 -86 -150q-84 3 -154 -26q-71 -29 -128 -82q-58 -55 -90 -128q-32 -70 -32 -154q0 -83 30 -152q35 -75 86 -124q49 -51 124 -86q69 -30 152 -30
h1144q105 0 200 40q90 38 162 110t110 162q40 95 40 200q0 103 -40 198q-39 93 -110 164q-72 72 -162 110q-95 40 -200 40q-45 0 -102 -10zM392 282q-112 0 -192 80t-80 192t80 192q81 78 192 78h22q3 -1 10.5 -2t11.5 -2l52 -8l14 50q45 147 164 236q118 88 268 88
q94 0 186 -40q87 -42 154 -118l32 -36l42 24q39 21 94 38q45 12 94 12q82 0 152 -32q70 -29 126 -82q53 -56 82 -126q32 -70 32 -152q0 -85 -32 -152q-30 -72 -82 -124q-54 -54 -126 -84q-70 -32 -152 -32h-1144z" />
    <glyph glyph-name="uniE6B2" unicode="&#xe6b2;" 
d="M2008 716q-38 -90 -110 -162t-162 -110q-93 -42 -200 -42h-332v122h332q80 0 152 30t126 84q52 55 82 124q32 70 32 152q0 84 -32 154q-30 69 -82 124q-54 51 -126 84q-72 30 -152 30q-49 0 -94 -12q-53 -13 -94 -38l-42 -24l-32 38q-64 72 -154 116q-92 40 -186 40
q-150 0 -268 -88q-119 -89 -164 -234l-14 -52l-52 8q-4 1 -11.5 2t-10.5 2q-8 2 -22 2q-112 0 -192 -80t-80 -192q0 -113 80 -190q80 -80 192 -80h446v-122h-446q-85 0 -152 32q-74 31 -124 84q-51 49 -86 124q-30 72 -30 152q0 83 32 156q35 75 88 126q55 55 128 84t156 26
q35 85 86 148q53 64 124 114q66 46 150 74q78 26 170 26q111 0 216 -42q104 -46 182 -124q57 23 102 34q57 10 102 10q105 0 200 -40q93 -39 162 -108q71 -71 110 -164q40 -95 40 -200q0 -103 -40 -198zM1368 746l-344 344l-344 -344l86 -84l198 198v-940h120v940l198 -198z
" />
    <glyph glyph-name="uniE6B3" unicode="&#xe6b3;" 
d="M2008 716q-38 -90 -110 -162t-162 -110q-93 -42 -200 -42h-332v122h332q80 0 152 30t126 84q52 55 82 124q32 70 32 152q0 84 -32 154q-30 69 -82 124q-54 51 -126 84q-72 30 -152 30q-49 0 -94 -12q-53 -13 -94 -38l-42 -24l-32 38q-64 72 -154 116q-92 40 -186 40
q-150 0 -268 -88q-119 -89 -164 -234l-14 -52l-52 8q-4 1 -11.5 2t-10.5 2q-8 2 -22 2q-112 0 -192 -80t-80 -192q0 -113 80 -190q80 -80 192 -80h446v-122h-446q-85 0 -152 32q-74 31 -124 84q-51 49 -86 124q-30 72 -30 152q0 83 32 156q35 75 88 126q55 55 128 84
q70 29 156 26q35 85 86 148q53 64 124 114q66 46 150 74q78 26 170 26q111 0 216 -42q104 -46 182 -124q57 23 102 34q57 10 102 10q105 0 200 -40q93 -39 162 -108q71 -71 110 -164q40 -95 40 -200q0 -103 -40 -198zM1084 1006h-120v-932l-198 198l-86 -84l344 -344
l344 344l-86 84l-198 -198v932z" />
    <glyph glyph-name="uniE6B4" unicode="&#xe6b4;" 
d="M1928 1488v-1808h-1808v1808h270v-122h-150v-1566h1568v1566h-154v122h274zM1566 1126h-1084v482h372q19 54 66 86q46 34 104 34q57 0 106 -34q45 -33 64 -86h372v-482zM1084 1488v60q0 24 -18 42t-42 18t-42 -18t-18 -42v-60h-362v-242h844v242h-362z" />
    <glyph glyph-name="uniE6B5" unicode="&#xe6b5;" 
d="M1812 524l-246 482h-958l-358 -482h-250v-600h242v-2l-2 -2q0 -99 72 -168q69 -72 170 -72t170 72q70 70 70 168v2v2h604v-2v-2q0 -98 70 -168q69 -72 170 -72q100 0 172 72q70 70 70 168v2l-2 2h242v602zM1676 524h-468v360h284zM1086 884v-360h-686l268 360h418z
M398 -164q-36 36 -36 84q0 50 36 86q33 36 84 36q50 0 86 -36q34 -37 34 -86q0 -47 -34 -84q-36 -36 -86 -36q-51 0 -84 36zM1482 -164q-36 36 -36 84q0 50 36 86q33 36 84 36q50 0 86 -36q34 -37 34 -86q0 -47 -34 -84q-36 -36 -86 -36q-51 0 -84 36zM1772 44
q-36 55 -86 86q-52 32 -120 32t-120 -32q-50 -31 -86 -86h-672q-36 55 -86 86q-52 32 -120 32t-120 -32q-50 -31 -86 -86h-156v358l1808 2v-360h-156z" />
    <glyph glyph-name="uniE6B6" unicode="&#xe6b6;" 
d="M1686 1488v120h-360v-120h-604v120h-360v-120h-362v-1808h2048v1808h-362zM1446 1488h120v-242h-120v242zM602 1488v-242h-120v242h120zM1928 -200h-1808v1076h1808v-1076zM120 1366h242v-240h360v240h604v-240h360v240h242v-370h-1808v370z" />
    <glyph glyph-name="uniE6B7" unicode="&#xe6b7;" 
d="M1892 1604q-95 14 -252 14q-196 0 -344 -32q-152 -32 -274 -98q-75 36 -142 60q-69 25 -152 44q-101 20 -162 26q-72 8 -170 8q-152 0 -248 -18q-100 -18 -102 -20l-46 -12v-1674l76 18l90 18q96 16 230 16q138 0 252 -20t226 -64v-100h300v104q117 45 242 60
q115 14 224 14q146 0 238 -14l98 -14l72 -14v1674l-50 10q-11 0 -106 14zM120 1482q98 14 114 16q61 8 162 8q165 0 302 -32q152 -36 266 -94v-1418q-125 55 -270 86q-146 28 -298 28q-97 0 -158 -8q-107 -14 -118 -16v1430zM1806 62q-75 6 -166 6q-173 0 -306 -26
q-140 -27 -250 -78v1418q131 73 282 94q160 22 274 22q93 0 168 -6q21 -2 62 -7t58 -7v-1430q-39 7 -122 14z" />
    <glyph glyph-name="uniE6B8" unicode="&#xe6b8;" 
d="M1766 134q-80 104 -80 280v396q0 139 -52 264q-49 118 -142 214q-88 91 -210 146q-123 54 -258 54t-258 -54q-122 -55 -210 -146q-93 -96 -142 -214q-52 -125 -52 -264v-396q0 -170 -78 -278l-82 -110l-100 -104h1850l-108 104q-26 38 -78 108zM446 202q36 93 36 212v396
q0 114 42 216q47 107 118 178q68 71 172 118q97 44 210 44t210 -44q103 -47 174 -118q69 -72 116 -178q42 -102 42 -216v-396q0 -123 38 -214q34 -89 76 -156h-1312q40 65 78 158zM1084 1488h-120v120h120v-120zM1204 -80q0 -74 -52 -126q-54 -54 -128 -54q-75 0 -126 54
q-54 51 -54 126h120q0 -24 18 -42t42 -18t42 18t18 42h120z" />
    <glyph glyph-name="uniE6B9" unicode="&#xe6b9;" 
d="M628 1648q-184 -80 -324 -220q-142 -142 -222 -326t-80 -398t80 -398q81 -186 222 -324q138 -141 324 -222q184 -80 398 -80t398 80t326 222q140 140 220 324t80 398t-80 398q-79 182 -220 326q-144 141 -326 220q-184 80 -398 80t-398 -80zM1620 1020q45 123 126 228
q78 -106 124 -224q47 -119 56 -260h-362q9 127 56 256zM1926 644q-9 -138 -56 -258q-48 -122 -124 -226q-81 105 -126 228q-47 129 -56 256h362zM1510 1070q-57 -147 -66 -306h-360v840q76 -3 166 -26q76 -20 154 -54q63 -29 138 -80q63 -41 124 -102q-98 -121 -156 -272z
M964 764h-356q-9 159 -66 306q-58 151 -156 272q59 59 122 102q76 52 140 80q73 34 152 54q76 20 164 26v-840zM182 1024q43 119 124 224q81 -105 126 -228t54 -256h-360q9 141 56 260zM432 388q-45 -123 -126 -228q-79 104 -124 226q-47 120 -56 258h360q-9 -133 -54 -256z
M542 338q57 147 66 306h356v-840q-88 6 -164 26q-79 20 -152 54q-64 28 -140 80q-63 43 -122 102q98 121 156 272zM1084 644h360q9 -159 66 -306q58 -151 156 -272q-55 -55 -124 -102q-75 -51 -138 -80q-78 -34 -154 -54q-90 -23 -166 -26v840z" />
    <glyph glyph-name="uniE6BA" unicode="&#xe6ba;" 
d="M2048 -200v-120h-2048v120h2048zM482 524v-604h120v724h-482v-724h120v604h242zM1084 884v-964h120v1086h-482v-1086h122v964h240zM1446 1366h240v-1446h122v1568h-482v-1568h120v1446z" />
    <glyph glyph-name="uniE6BB" unicode="&#xe6bb;" 
d="M2048 -200v-120h-2048v120h2048zM1686 524v-604h122v724h-482v-724h120v604h240zM1084 884v-964h120v1086h-482v-1086h122v964h240zM482 1366v-1446h120v1568h-482v-1568h120v1446h242z" />
    <glyph glyph-name="uniE6BC" unicode="&#xe6bc;" 
d="M1756 -200h-852q-136 0 -258 52q-118 50 -210 142t-142 212q-54 120 -54 258q0 136 54 256q50 120 142 212t210 142q122 52 258 52h350l-318 318l84 86l464 -464l-464 -464l-84 84l318 320h-350q-115 0 -212 -44q-97 -41 -172 -116t-116 -172q-42 -99 -42 -210
q0 -113 42 -212q41 -97 116 -172t172 -116q97 -44 212 -44h852v-120z" />
    <glyph glyph-name="uniE6BD" unicode="&#xe6bd;" 
d="M1754 566q-50 -118 -142 -210t-210 -142q-122 -52 -258 -52h-350l318 -318l-84 -86l-464 464l464 464l84 -84l-318 -320h350q115 0 212 44q97 41 172 116q73 70 116 172q42 99 42 210q0 113 -42 212q-41 97 -116 172t-172 116q-99 42 -212 42h-852v122h852q138 0 258 -54
q118 -50 210 -142t142 -210q54 -120 54 -258q0 -135 -54 -258z" />
    <glyph glyph-name="uniE6BE" unicode="&#xe6be;" 
d="M1808 -80h-664v122h458l-1240 1240v-458h-122v664h664v-122h-456l1238 -1238v456h122v-664z" />
    <glyph glyph-name="uniE6BF" unicode="&#xe6bf;" 
d="M0 1488v-482h120v-1326h1808v1326h120v482h-2048zM1808 -200h-1568v1206h1568v-1206zM1928 1126h-1808v240h1808v-240zM1328 402q98 0 170 72q70 70 70 170t-70 170q-73 70 -170 70h-606q-98 0 -168 -70q-72 -69 -72 -170t72 -170q69 -72 168 -72h606zM1328 764
q47 0 84 -34q36 -36 36 -86q0 -51 -36 -84q-36 -36 -84 -36h-606q-51 0 -84 36q-36 33 -36 84q0 50 36 86q34 34 84 34h606z" />
    <glyph glyph-name="uniE6C0" unicode="&#xe6c0;" 
d="M1652 588l-376 -190l54 -106l226 112q-17 -84 -60 -160q-43 -77 -104 -132q-59 -54 -140 -94q-84 -37 -168 -46v912h180v122h-180v126q106 21 174 104q68 80 68 190q0 126 -88 214q-91 88 -214 88q-124 0 -212 -88q-90 -87 -90 -214q0 -108 70 -190q68 -83 172 -104v-126
h-180v-122h180v-912q-85 9 -166 46q-75 33 -142 94q-61 55 -104 132q-43 76 -60 160l224 -112l54 106l-376 190l-190 -376l108 -56l78 158q34 -105 94 -188q57 -83 144 -148q78 -61 184 -98q102 -34 212 -34t212 34q105 37 186 98q86 67 142 148q61 82 92 186l78 -156
l108 56zM898 1556q52 52 126 52q73 0 128 -52q52 -55 52 -130q0 -74 -52 -126q-54 -54 -128 -54q-75 0 -126 54q-54 51 -54 126q0 76 54 130z" />
    <glyph glyph-name="uniE6C1" unicode="&#xe6c1;" 
d="M2048 1488v-122h-2048v122h2048zM2048 884v122h-1686v-122h1686zM0 402h2048v122h-2048v-122zM2048 -80v122h-1204v-122h1204z" />
    <glyph glyph-name="uniE6C2" unicode="&#xe6c2;" 
d="M2048 1488v-122h-2048v122h2048zM1686 1006h-1686v-122h1686v122zM0 402h2048v122h-2048v-122zM0 -80h1204v122h-1204v-122z" />
    <glyph glyph-name="uniE6C3" unicode="&#xe6c3;" 
d="M2048 1488v-122h-2048v122h2048zM0 884h2048v122h-2048v-122zM0 402h2048v122h-2048v-122zM0 -80h2048v122h-2048v-122z" />
    <glyph glyph-name="uniE6C4" unicode="&#xe6c4;" 
d="M2048 1488v-122h-2048v122h2048zM180 884h1688v122h-1688v-122zM0 402h2048v122h-2048v-122zM1626 -80v122h-1204v-122h1204z" />
    <glyph glyph-name="uniE6C5" unicode="&#xe6c5;" 
d="M26 -200h1998l-1006 1748zM1814 -80h-1582l788 1386zM1084 410h-120v474h120v-474zM1110 74q-36 -36 -86 -36q-51 0 -84 36q-36 33 -36 84q0 50 36 86q34 34 84 34q49 0 86 -34q34 -37 34 -86q0 -50 -34 -84z" />
    <glyph glyph-name="uniE6C6" unicode="&#xe6c6;" 
d="M1844 1016q24 57 24 124q0 133 -96 232q-99 96 -232 96q-81 0 -150 -36q-72 -41 -116 -102q-27 9 -92 22q-48 9 -98 12v124h120v120h-360v-120h120v-124q-51 -3 -96 -12q-64 -12 -94 -22q-45 63 -114 102q-69 36 -152 36q-134 0 -230 -96q-98 -98 -98 -232q0 -69 26 -124
q24 -60 70 -106q-46 -90 -70 -184q-26 -95 -26 -202q0 -154 54 -292q50 -137 144 -250l-156 -206l98 -72l142 192q114 -102 256 -158q147 -58 306 -58t306 58q142 56 256 158l142 -192l98 72l-156 206q93 110 146 250q52 141 52 292q0 103 -24 202q-28 98 -72 184
q44 44 72 106zM1686 1288q60 -63 60 -148q0 -31 -10 -64q-9 -33 -30 -60q-58 84 -140 154q-81 66 -176 112q26 28 68 48q39 18 82 18q83 0 146 -60zM364 1288q60 60 144 60q45 0 84 -18t66 -48q-90 -44 -174 -112q-87 -74 -142 -154q-21 27 -30 60q-10 33 -10 64
q0 86 62 148zM742 -142q-133 59 -228 154q-100 100 -156 230t-56 282q0 150 56 280t156 230q99 99 228 156q130 56 282 56t282 -56q133 -59 230 -156q96 -96 154 -230q56 -130 56 -280q0 -152 -56 -282q-58 -134 -154 -230q-94 -94 -230 -154q-134 -58 -282 -58t-282 58z
M1084 524h482v-122h-602v482h120v-360z" />
    <glyph glyph-name="uniE6C7" unicode="&#xe6c7;" 
d="M1686 1728h-1566v-2048h1566v240h242v1568h-242v240zM240 -200v1808h242v-1808h-242zM1566 -200h-964v1808h964v-1808zM1808 42h-122v360h122v-360zM1808 524h-122v360h122v-360zM1686 1006v360h122v-360h-122zM722 1246h604v-120h-604v120zM1204 1006v-122h-482v122h482
z" />
    <glyph glyph-name="uniE6C8" unicode="&#xe6c8;" 
d="M364 1728v-240h-62q-76 0 -128 -52q-54 -51 -54 -128v-1034l304 -598l298 598v1034q0 76 -52 128q-55 52 -130 52h-56v120h842v-602h602v-1206h-1386v-120h1506v1408l-642 640h-1042zM374 42l-134 260v706h122v-726h120v726h118v-706l-130 -260h-96zM600 1128h-360v180
q0 26 18 44q19 16 44 16h238q25 0 44 -16q16 -19 16 -44v-180zM1446 1518l394 -392h-394v392z" />
    <glyph glyph-name="uniE6C9" unicode="&#xe6c9;" 
d="M0 1608v-1808h2048v1808h-2048zM1928 1488v-362h-1808v362h1808zM120 1006h1808v-1086h-1808v1086zM844 1246h-122v120h122v-120zM602 1246h-120v120h120v-120zM362 1246h-122v120h122v-120z" />
    <glyph glyph-name="uniE6CA" unicode="&#xe6ca;" 
d="M362 1728v-120h-122v120h122zM602 1608v120h-120v-120h120zM722 1608h122v120h-122v-120zM1084 1608v120h-120v-120h120zM1204 1608h122v120h-122v-120zM1446 1608h120v120h-120v-120zM1686 1608h122v120h-122v-120zM362 644v120h-122v-120h122zM602 644v120h-120v-120
h120zM722 644h122v120h-122v-120zM1204 644h122v120h-122v-120zM1446 644h120v120h-120v-120zM1686 644h122v120h-122v-120zM362 -320v120h-122v-120h122zM602 -320v120h-120v-120h120zM722 -320h122v120h-122v-120zM1084 -320v120h-120v-120h120zM1204 -320h122v120h-122
v-120zM1446 -320h120v120h-120v-120zM1686 -320h122v120h-122v-120zM1928 1728v-120h120v120h-120zM1928 1366h120v122h-120v-122zM1928 1126h120v120h-120v-120zM1928 884h120v122h-120v-122zM1928 644h120v120h-120v-120zM1928 402h120v122h-120v-122zM1928 162h120v120
h-120v-120zM1928 -80h120v122h-120v-122zM1084 1366v122h-120v-122h120zM1084 1126v120h-120v-120h120zM1084 884v122h-120v-122h120zM1084 644v120h-120v-120h120zM1084 402v122h-120v-122h120zM1084 162v120h-120v-120h120zM1084 -80v122h-120v-122h120zM1928 -320h120
v120h-120v-120zM0 1608h120v120h-120v-120zM0 1366h120v122h-120v-122zM0 1126h120v120h-120v-120zM0 884h120v122h-120v-122zM0 644h120v120h-120v-120zM0 402h120v122h-120v-122zM0 162h120v120h-120v-120zM0 -80h120v122h-120v-122zM0 -320h120v120h-120v-120z" />
    </font>
</defs>
</svg>
