<?xml version="1.0" encoding="UTF-8"?>
<svg xmlns="http://www.w3.org/2000/svg" xmlns:xlink="http://www.w3.org/1999/xlink" id="Ebene_1" version="1.1" viewBox="0 0 99 100">
  <defs>
    <style>
      .st0 {
        fill: url(#Unbenannter_Verlauf_2);
      }

      .st1 {
        fill: #fff;
      }
    </style>
    <radialGradient id="Unbenannter_Verlauf_2" data-name="Unbenannter Verlauf 2" cx="49.5" cy="52" fx="49.5" fy="52" r="49.42" gradientTransform="translate(0 101.64) scale(1 -.99)" gradientUnits="userSpaceOnUse">
      <stop offset="0" stop-color="#0f4f25"></stop>
      <stop offset=".38" stop-color="#0f4c24"></stop>
      <stop offset=".6" stop-color="#124422"></stop>
      <stop offset=".79" stop-color="#16351f"></stop>
      <stop offset=".95" stop-color="#1b211b"></stop>
      <stop offset=".99" stop-color="#1d1d1b"></stop>
    </radialGradient>
  </defs>
  <g>
    <path class="st0" d="M97.7,19.41l-.23-1.67-1.69.05c-4.86.13-8.08.21-9.2-.96-.92-.96-1.18-1.28-.83-5.95l.12-1.6-1.57-.37c-4.1-.96-8.49-2.06-13.14-3.22-7.3-1.82-14.85-3.71-21.4-5.09l-.42-.09-.42.1c-2.85.69-5.95,1.44-9.18,2.22-8.25,1.99-17.61,4.25-25,6.08l-1.53.38.1,1.57c.31,4.79.06,5.04-.85,5.98-1.1,1.14-4.32,1.07-9.19.95l-1.68-.04-.24,1.66C-.27,30.45.46,44.63,3.43,54.84c3.22,11.08,9.06,20.71,16.9,27.86,8.44,8.04,18.61,13.96,28.63,16.67l.48.13.48-.12c10.38-2.61,20.89-9.6,27.26-15.26,8.46-7.38,14.52-16.81,18.04-28.04,3.25-10.39,4.11-24.99,2.48-36.68h0Z"></path>
    <path class="st1" d="M49.36,6.48c5.94,1.26,12.8,2.98,19.45,4.64,4.15,1.04,8.08,2.02,11.77,2.89-.28,3.95-.16,5.17,1.36,6.76,1.28,1.33,3.34,1.6,6.47,1.6.97,0,2.05-.03,3.21-.06,1.42,10.6.52,23.61-2.25,32.48-3.1,9.94-8.45,18.29-15.9,24.81h0s0,.01,0,.01c-5.63,5.02-14.88,11.2-23.99,13.52-8.82-2.41-17.77-7.66-25.23-14.78l-.02-.02-.02-.02c-6.9-6.31-12.04-14.83-14.89-24.64-2.54-8.77-3.3-21.33-1.91-31.38,1.12.03,2.17.05,3.11.05,3.19,0,5.28-.26,6.56-1.58,1.5-1.56,1.63-2.71,1.38-6.77,6.72-1.67,15.15-3.71,22.59-5.51,2.92-.71,5.74-1.39,8.33-2.02M49.33,4.33l-.38.09c-2.61.63-5.46,1.32-8.41,2.04-7.56,1.83-16.13,3.9-22.91,5.59l-1.41.35.09,1.44c.28,4.4.05,4.63-.78,5.49-.73.75-2.46.93-5.03.93-1.01,0-2.14-.03-3.39-.06l-1.54-.04-.22,1.52c-1.46,10.16-.79,23.19,1.93,32.58,2.95,10.18,8.3,19.03,15.48,25.6,7.74,7.39,17.05,12.83,26.23,15.32l.44.12.44-.11c9.51-2.4,19.14-8.82,24.98-14.02,7.75-6.78,13.31-15.45,16.52-25.77,2.98-9.55,3.76-22.96,2.28-33.71l-.21-1.53-1.55.04c-1.29.03-2.46.07-3.49.07-2.52,0-4.21-.18-4.95-.95-.84-.88-1.08-1.18-.76-5.47l.11-1.47-1.44-.34c-3.76-.88-7.78-1.89-12.04-2.96-6.69-1.67-13.61-3.41-19.61-4.68l-.39-.08h0Z"></path>
  </g>
  <g>
    <g>
      <path class="st1" d="M18.26,30.61c-.84,0-1.55.27-2.04.77v-3.12h-1.12v8.58h1.12v-3.23c0-1.22.71-1.95,1.9-1.95,1.05,0,1.61.59,1.61,1.71v3.48h1.12v-3.56c0-1.67-.97-2.66-2.58-2.66h0Z"></path>
      <path class="st1" d="M24.65,30.61c-.97,0-1.88.3-2.5.83l-.11.09.53.88.15-.13c.46-.41,1.16-.65,1.85-.65,1,0,1.5.47,1.5,1.38v.19h-1.71c-2.12,0-2.44,1.14-2.44,1.82,0,1.13.91,1.87,2.32,1.87.79,0,1.43-.23,1.86-.66v.6h1.09v-3.79c0-1.57-.91-2.43-2.55-2.43h0ZM26.07,34.12v.76c-.3.69-.88,1.06-1.71,1.06s-1.33-.34-1.33-.94c0-.38.14-.88,1.35-.88h1.69Z"></path>
      <path class="st1" d="M31.9,30.61c-.87,0-1.59.28-2.08.8v-.75h-1.09v6.18h1.12v-3.23c0-1.22.71-1.95,1.9-1.95,1.05,0,1.61.59,1.61,1.71v3.48h1.12v-3.56c0-1.67-.97-2.66-2.58-2.66h0Z"></path>
      <path class="st1" d="M40.76,36.01v.83h1.09v-8.58h-1.12v3.21c-.52-.55-1.24-.85-2.08-.85-1.8,0-3.1,1.32-3.1,3.13s1.3,3.14,3.1,3.14c.86,0,1.59-.31,2.11-.88h0ZM36.68,33.74c0-1.25.83-2.12,2.03-2.12s2.02.87,2.02,2.12-.83,2.12-2.02,2.12-2.03-.87-2.03-2.12Z"></path>
      <path class="st1" d="M43.85,38.04c-.37,0-.69-.13-.96-.4l-.15-.15-.55.87.09.09c.38.38.93.58,1.55.58.98,0,1.63-.5,2.11-1.61l3.05-6.78h-1.14l-2.11,4.73-2.11-4.73h-1.19l2.71,6-.23.5c-.34.74-.66.88-1.07.88h0Z"></path>
      <path class="st1" d="M51.4,34.27c.92.16,1.48.29,1.48.81s-.48.79-1.42.79c-.73,0-1.51-.24-1.99-.62l-.15-.12-.52.9.1.09c.53.46,1.54.76,2.5.76,1.6,0,2.59-.7,2.59-1.83,0-1.36-1.27-1.59-2.3-1.77-.95-.17-1.52-.32-1.52-.86,0-.7.86-.81,1.37-.81.63,0,1.2.16,1.64.47l.15.1.51-.92-.12-.08c-.52-.35-1.37-.57-2.17-.57-1.51,0-2.49.72-2.49,1.83,0,1.41,1.3,1.64,2.34,1.83h0Z"></path>
      <path class="st1" d="M57.55,30.61c-1.76,0-3.04,1.32-3.04,3.13s1.34,3.14,3.25,3.14c1,0,1.85-.36,2.4-1.01l.09-.11-.66-.76-.12.14c-.41.47-.99.71-1.68.71-1.14,0-1.98-.68-2.13-1.71h4.91v-.16s0-.09,0-.13c0-.04,0-.08,0-.12,0-1.85-1.24-3.13-3.02-3.13h0ZM59.45,33.24h-3.81c.16-.98.9-1.62,1.9-1.62s1.75.64,1.91,1.62Z"></path>
      <path class="st1" d="M62.74,31.41v-.75h-1.09v6.18h1.12v-3.14c0-1.27.66-2,1.82-2,.02,0,.05,0,.07,0,.04,0,.08,0,.12,0h.16v-1.09h-.16c-.9,0-1.59.27-2.04.8h0Z"></path>
      <polygon class="st1" points="68.48 35.4 66.38 30.66 65.2 30.66 67.95 36.83 68.98 36.83 71.75 30.66 70.61 30.66 68.48 35.4"></polygon>
      <rect class="st1" x="72.35" y="30.66" width="1.12" height="6.18"></rect>
      <path class="st1" d="M72.91,28.25c-.41,0-.75.32-.75.72s.34.73.75.73.75-.33.75-.74c0-.39-.34-.71-.75-.71h0Z"></path>
      <path class="st1" d="M79.32,35.08c-.34.51-.91.79-1.58.79-1.23,0-2.07-.85-2.07-2.12s.85-2.12,2.07-2.12c.67,0,1.23.28,1.58.8l.09.13.86-.58-.08-.13c-.49-.8-1.36-1.24-2.45-1.24-1.85,0-3.2,1.32-3.2,3.13s1.35,3.14,3.2,3.14c1.07,0,1.96-.45,2.45-1.23l.08-.13-.86-.58-.09.13h0Z"></path>
      <path class="st1" d="M83.67,30.61c-1.76,0-3.04,1.32-3.04,3.13s1.34,3.14,3.25,3.14c1,0,1.85-.36,2.4-1.01l.09-.11-.66-.76-.12.14c-.41.47-.99.71-1.68.71-1.14,0-1.98-.68-2.13-1.71h4.91v-.16s0-.09,0-.13c0-.04,0-.08,0-.12,0-1.85-1.24-3.13-3.02-3.13h0ZM83.67,31.62c1,0,1.75.64,1.91,1.62h-3.81c.16-.98.9-1.62,1.9-1.62Z"></path>
    </g>
    <g>
      <path class="st1" d="M46.07,68.42l-2.11,4.73-2.11-4.73h-1.19l2.71,6-.23.5c-.34.73-.66.88-1.07.88-.37,0-.69-.13-.96-.4l-.15-.15-.55.87.09.09c.37.37.94.58,1.55.58.98,0,1.63-.5,2.11-1.61l3.05-6.78h-1.14,0Z"></path>
      <path class="st1" d="M50.22,68.38c-1.84,0-3.17,1.32-3.17,3.13s1.33,3.14,3.17,3.14,3.15-1.32,3.15-3.14-1.33-3.13-3.15-3.13ZM50.22,73.63c-1.2,0-2.03-.87-2.03-2.12s.83-2.12,2.03-2.12,2.02.87,2.02,2.12-.83,2.12-2.02,2.12Z"></path>
      <path class="st1" d="M58.99,71.66c0,1.23-.69,1.96-1.84,1.96-1.05,0-1.61-.59-1.61-1.72v-3.48h-1.12v3.56c0,1.7.97,2.68,2.65,2.68.79,0,1.48-.28,1.95-.79v.73h1.09v-6.18h-1.12v3.23Z"></path>
    </g>
    <path class="st1" d="M57.94,59.48h-3.6v4.61h-4.98v-4.61h-11.89v-3.42l10.41-13.91h5.36l-9.65,13.19h5.93v-4.1h4.82v4.1h3.6v4.14h0Z"></path>
  </g>
</svg>
