<?xml version="1.0" encoding="utf-8"?>
<!-- Generator: Adobe Illustrator 16.0.0, SVG Export Plug-In . SVG Version: 6.00 Build 0)  -->
<!DOCTYPE svg PUBLIC "-//W3C//DTD SVG 1.1//EN" "http://www.w3.org/Graphics/SVG/1.1/DTD/svg11.dtd">
<svg version="1.1" id="Ebene_1" xmlns="http://www.w3.org/2000/svg" xmlns:xlink="http://www.w3.org/1999/xlink" x="0px" y="0px"
	 width="16px" height="16px" viewBox="0 0 16 16" enable-background="new 0 0 16 16" xml:space="preserve">
<path fill="#FFFFFF" d="M14.292,4c0,0.552-0.51,1-1.139,1H2.806C2.177,5,1.667,4.553,1.667,4l0,0c0-0.552,0.51-1,1.139-1h10.347
	C13.782,3,14.292,3.448,14.292,4L14.292,4z"/>
<path fill="#FFFFFF" d="M14.292,8c0,0.552-0.51,1-1.139,1H2.806c-0.63,0-1.139-0.447-1.139-1l0,0c0-0.552,0.509-1,1.139-1h10.347
	C13.782,7,14.292,7.449,14.292,8L14.292,8z"/>
<path fill="#FFFFFF" d="M14.292,12c0,0.553-0.51,1-1.139,1H2.806c-0.63,0-1.139-0.447-1.139-1l0,0c0-0.551,0.509-1,1.139-1h10.347
	C13.782,11,14.292,11.449,14.292,12L14.292,12z"/>
</svg>
