<?xml version="1.0" encoding="utf-8"?>
<!-- Generator: Adobe Illustrator 16.0.0, SVG Export Plug-In . SVG Version: 6.00 Build 0)  -->
<!DOCTYPE svg PUBLIC "-//W3C//DTD SVG 1.1//EN" "http://www.w3.org/Graphics/SVG/1.1/DTD/svg11.dtd">
<svg version="1.1" id="Ebene_1" xmlns="http://www.w3.org/2000/svg" xmlns:xlink="http://www.w3.org/1999/xlink" x="0px" y="0px"
	 width="16px" height="16px" viewBox="208.596 461.332 16 16" enable-background="new 208.596 461.332 16 16" xml:space="preserve">
<path fill="#FFFFFF" d="M209.578,476.832c-0.272,0.002-0.495-0.218-0.496-0.49c0-0.02,0.001-0.038,0.003-0.058l0.65-4.234
	c0.012-0.112,0.062-0.217,0.143-0.296l9.409-9.404c0.684-0.688,1.795-0.691,2.482-0.007c0.002,0.003,0.005,0.005,0.007,0.007
	l1.815,1.79c0.688,0.685,0.691,1.796,0.007,2.483c-0.002,0.002-0.005,0.005-0.007,0.007l-9.428,9.404
	c-0.079,0.08-0.184,0.131-0.296,0.143l-4.235,0.655H209.578z M213.813,475.684L213.813,475.684z M210.702,472.326l-0.36,3.25
	l3.25-0.36l9.28-9.285c0.299-0.304,0.299-0.792,0-1.095l-1.79-1.791c-0.303-0.299-0.792-0.299-1.095,0L210.702,472.326z"/>
<path fill="#FFFFFF" d="M222.03,467.985c-0.129-0.001-0.253-0.052-0.345-0.143l-3.584-3.586c-0.192-0.196-0.188-0.513,0.01-0.704
	c0.197-0.192,0.513-0.188,0.705,0.01l3.565,3.565c0.191,0.191,0.191,0.503,0,0.695C222.29,467.922,222.164,467.98,222.03,467.985z"
	/>
<rect x="212.873" y="469.34" transform="matrix(-0.7071 0.7071 -0.7071 -0.7071 701.0464 649.2968)" fill="#FFFFFF" width="6.332" height="1.022"/>
<polygon fill="#FFFFFF" points="210.448,473.395 212.57,475.515 210.187,475.756 "/>
</svg>
