<?xml version="1.0" encoding="utf-8"?>
<!-- Generator: Adobe Illustrator 25.2.1, SVG Export Plug-In . SVG Version: 6.00 Build 0)  -->
<svg version="1.1" id="Ebene_1" xmlns="http://www.w3.org/2000/svg" xmlns:xlink="http://www.w3.org/1999/xlink" x="0px" y="0px"
	 viewBox="0 0 68.9 19.2" style="enable-background:new 0 0 68.9 19.2;" xml:space="preserve">
<style type="text/css">
	.st0{fill:#2CA4D8;}
</style>
<path class="st0" d="M13.2,19.2H2.7c-1.4,0-2.6-1.1-2.6-2.6V2.6C0.1,1.2,1.3,0,2.7,0h10.5c1.4,0,2.6,1.1,2.6,2.6v14.1
	C15.8,18.1,14.6,19.2,13.2,19.2z"/>
<path class="st0" d="M31,19.2H20.5c-1.4,0-2.6-1.1-2.6-2.6V2.6c0-1.4,1.1-2.6,2.6-2.6H31c1.4,0,2.6,1.1,2.6,2.6v14.1
	C33.5,18.1,32.4,19.2,31,19.2z"/>
<path class="st0" d="M48.7,19.2H38.2c-1.4,0-2.6-1.1-2.6-2.6V2.6c0-1.4,1.1-2.6,2.6-2.6h10.5c1.4,0,2.6,1.1,2.6,2.6v14.1
	C51.3,18.1,50.1,19.2,48.7,19.2z"/>
<path class="st0" d="M66.3,19.2H55.8c-1.4,0-2.6-1.1-2.6-2.6V2.6c0-1.4,1.1-2.6,2.6-2.6h10.5c1.4,0,2.6,1.1,2.6,2.6v14.1
	C68.9,18.1,67.7,19.2,66.3,19.2z"/>
</svg>
