<?xml version="1.0" encoding="utf-8"?>
<!-- Generator: Adobe Illustrator 25.2.1, SVG Export Plug-In . SVG Version: 6.00 Build 0)  -->
<svg version="1.1" id="Ebene_1" xmlns="http://www.w3.org/2000/svg" xmlns:xlink="http://www.w3.org/1999/xlink" x="0px" y="0px"
	 viewBox="0 0 68.9 19.2" style="enable-background:new 0 0 68.9 19.2;" xml:space="preserve">
<style type="text/css">
	.st0{fill:#2CA4D8;}
</style>
<path class="st0" d="M19.2,19.2H2.8c-1.4,0-2.6-1.1-2.6-2.6v-14C0.2,1.1,1.4,0,2.8,0h16.4c1.4,0,2.6,1.1,2.6,2.6v14.1
	C21.8,18.1,20.6,19.2,19.2,19.2z"/>
<path class="st0" d="M42.7,19.2H26.3c-1.4,0-2.6-1.1-2.6-2.6v-14c0-1.4,1.1-2.6,2.6-2.6h16.3c1.4,0,2.6,1.1,2.6,2.6v14.1
	C45.2,18.1,44.1,19.2,42.7,19.2z"/>
<path class="st0" d="M66.3,19.3H49.9c-1.4,0-2.6-1.1-2.6-2.6v-14c0-1.4,1.1-2.6,2.6-2.6h16.3c1.4,0,2.6,1.1,2.6,2.6v14.1
	C68.8,18.2,67.7,19.3,66.3,19.3z"/>
</svg>
