<?xml version="1.0" encoding="utf-8"?>
<!-- Generator: Adobe Illustrator 25.2.1, SVG Export Plug-In . SVG Version: 6.00 Build 0)  -->
<svg version="1.1" id="Ebene_1" xmlns="http://www.w3.org/2000/svg" xmlns:xlink="http://www.w3.org/1999/xlink" x="0px" y="0px"
	 viewBox="0 0 58.58 58.58" style="enable-background:new 0 0 58.58 58.58;" xml:space="preserve">
<style type="text/css">
	.st0{fill:#2B2B2B;}
	.st1{fill:#FFFFFF;}
</style>
<circle class="fill-accent" cx="29.29" cy="29.29" r="29.29"/>
<g>
	<path class="st1" d="M28.8,28.25c0,1.72-0.28,3-0.85,3.83c-0.56,0.83-1.43,1.24-2.61,1.24c-1.14,0-2-0.43-2.57-1.28
		c-0.58-0.85-0.87-2.12-0.87-3.79c0-1.74,0.28-3.02,0.84-3.85c0.56-0.83,1.43-1.24,2.6-1.24c1.14,0,2,0.43,2.58,1.3
		C28.5,25.32,28.8,26.59,28.8,28.25z M23.97,28.25c0,1.21,0.1,2.08,0.31,2.6c0.21,0.52,0.56,0.79,1.06,0.79
		c0.49,0,0.84-0.27,1.05-0.8c0.22-0.53,0.32-1.39,0.32-2.59c0-1.21-0.11-2.08-0.33-2.61s-0.57-0.79-1.05-0.79
		c-0.49,0-0.84,0.26-1.05,0.79S23.97,27.04,23.97,28.25z"/>
	<path class="st1" d="M35,33.18h-2.08v-5.71l0.02-0.94l0.03-1.03c-0.35,0.35-0.59,0.57-0.72,0.68l-1.13,0.91l-1-1.25l3.18-2.53H35
		V33.18z"/>
</g>
</svg>
