<?xml version="1.0" encoding="utf-8"?>
<!-- Generator: Adobe Illustrator 25.2.1, SVG Export Plug-In . SVG Version: 6.00 Build 0)  -->
<svg version="1.1" id="Ebene_1" xmlns="http://www.w3.org/2000/svg" xmlns:xlink="http://www.w3.org/1999/xlink" x="0px" y="0px"
	 viewBox="0 0 58.58 58.58" style="enable-background:new 0 0 58.58 58.58;" xml:space="preserve">
<style type="text/css">
	.st0{fill:#2B2B2B;}
	.st1{fill:#FFFFFF;}
</style>
<circle class="fill-accent" cx="29.29" cy="29.29" r="29.29"/>
<g>
	<path class="st1" d="M28.8,28.25c0,1.72-0.28,3-0.85,3.83c-0.56,0.83-1.43,1.24-2.61,1.24c-1.14,0-2-0.43-2.57-1.28
		c-0.58-0.85-0.87-2.12-0.87-3.79c0-1.74,0.28-3.02,0.84-3.85c0.56-0.83,1.43-1.24,2.6-1.24c1.14,0,2,0.43,2.58,1.3
		C28.5,25.32,28.8,26.59,28.8,28.25z M23.97,28.25c0,1.21,0.1,2.08,0.31,2.6c0.21,0.52,0.56,0.79,1.06,0.79
		c0.49,0,0.84-0.27,1.05-0.8c0.22-0.53,0.32-1.39,0.32-2.59c0-1.21-0.11-2.08-0.33-2.61s-0.57-0.79-1.05-0.79
		c-0.49,0-0.84,0.26-1.05,0.79S23.97,27.04,23.97,28.25z"/>
	<path class="st1" d="M36.35,25.53c0,0.62-0.19,1.14-0.56,1.57c-0.37,0.43-0.9,0.73-1.57,0.89v0.04c0.8,0.1,1.4,0.34,1.81,0.73
		c0.41,0.38,0.61,0.9,0.61,1.55c0,0.95-0.34,1.69-1.03,2.22c-0.69,0.53-1.67,0.79-2.95,0.79c-1.07,0-2.02-0.18-2.85-0.53v-1.77
		c0.38,0.19,0.8,0.35,1.26,0.47c0.46,0.12,0.91,0.18,1.36,0.18c0.69,0,1.2-0.12,1.52-0.35c0.33-0.23,0.49-0.61,0.49-1.13
		c0-0.46-0.19-0.79-0.57-0.99c-0.38-0.19-0.98-0.29-1.81-0.29h-0.75v-1.6h0.76c0.76,0,1.32-0.1,1.68-0.3
		c0.35-0.2,0.53-0.54,0.53-1.03c0-0.75-0.47-1.12-1.4-1.12c-0.32,0-0.65,0.05-0.99,0.16s-0.71,0.29-1.12,0.56l-0.96-1.44
		c0.9-0.65,1.97-0.97,3.22-0.97c1.02,0,1.83,0.21,2.42,0.62C36.06,24.21,36.35,24.79,36.35,25.53z"/>
</g>
</svg>
