<svg xmlns="http://www.w3.org/2000/svg" viewBox="0 0 731.34 68.643"><g fill="#F5F5F5"><path d="M601.783 91.181c-4.807-4.182-8.434-9.898-10.881-17.154-2.448-7.252-3.671-15.463-3.671-24.631 0-9.256 1.202-17.488 3.604-24.697 2.403-7.209 6.028-12.904 10.881-17.089 4.85-4.182 10.79-6.274 17.822-6.274 7.029 0 12.97 2.069 17.822 6.208 4.85 4.139 8.498 9.835 10.946 17.088 2.446 7.255 3.671 15.508 3.671 24.764 0 9.168-1.225 17.379-3.671 24.631-2.448 7.256-6.097 12.973-10.946 17.154-4.853 4.186-10.793 6.275-17.822 6.275-7.031 0-12.949-2.09-17.755-6.275zm35.443-12.748c4.139-7.164 6.209-16.842 6.209-29.037 0-12.281-2.07-22.004-6.209-29.169-4.138-7.163-10.035-10.747-17.688-10.747-7.566 0-13.417 3.584-17.556 10.747-4.139 7.165-6.208 16.888-6.208 29.169 0 12.195 2.069 21.873 6.208 29.037s9.989 10.746 17.556 10.746c7.653 0 13.551-3.582 17.688-10.746zM721.463 57.74c2.803 3.961 4.205 8.434 4.205 13.416 0 4.719-1.268 9.078-3.805 13.084-2.537 4.004-6.008 7.166-10.412 9.479-4.406 2.314-9.234 3.471-14.484 3.471-5.253 0-10.059-1.156-14.418-3.471-4.362-2.312-7.811-5.475-10.347-9.479-2.536-4.006-3.805-8.365-3.805-13.084 0-5.16 1.378-9.654 4.138-13.482 2.758-3.826 6.275-6.809 10.547-8.945-3.561-1.869-6.541-4.648-8.944-8.344-2.403-3.691-3.604-7.809-3.604-12.348 0-4.716 1.179-9.011 3.538-12.883 2.356-3.871 5.562-6.919 9.612-9.145 4.049-2.224 8.477-3.338 13.283-3.338 4.806 0 9.232 1.114 13.281 3.338 4.049 2.226 7.23 5.273 9.547 9.145 2.312 3.872 3.471 8.167 3.471 12.883 0 4.629-1.225 8.723-3.672 12.282-2.449 3.561-5.453 6.32-9.012 8.277 4.449 2.136 8.078 5.185 10.881 9.144zm-9.678 26.566c3.824-3.426 5.74-7.809 5.74-13.15 0-3.471-.936-6.629-2.805-9.479-1.869-2.846-4.385-5.094-7.543-6.74-3.159-1.646-6.562-2.471-10.211-2.471-3.65 0-7.032.824-10.146 2.471-3.116 1.646-5.607 3.895-7.477 6.74-1.869 2.85-2.803 6.008-2.803 9.479 0 5.342 1.89 9.725 5.674 13.15 3.781 3.428 8.698 5.141 14.752 5.141 6.051 0 10.991-1.713 14.819-5.141zM683.75 15.22c-3.384 3.293-5.073 7.565-5.073 12.815 0 3.471.845 6.564 2.536 9.278a17.704 17.704 0 006.742 6.342c2.803 1.514 5.807 2.27 9.012 2.27 3.203 0 6.207-.756 9.011-2.27a17.243 17.243 0 006.675-6.342c1.645-2.713 2.469-5.807 2.469-9.278 0-5.25-1.691-9.522-5.072-12.815-3.383-3.292-7.742-4.939-13.082-4.939-5.431 0-9.837 1.647-13.218 4.939z"/></g></svg>