<svg xmlns="http://www.w3.org/2000/svg" viewBox="0 0 731.339 68.643"><g fill="#F6F6F6"><path d="M604.116 89.846c-4.807-4.183-8.434-9.899-10.881-17.154-2.448-7.253-3.671-15.464-3.671-24.631 0-9.256 1.202-17.488 3.604-24.697 2.403-7.209 6.028-12.904 10.881-17.089C608.899 2.093 614.84 0 621.872 0c7.029 0 12.97 2.069 17.822 6.208 4.85 4.139 8.498 9.835 10.946 17.088 2.446 7.255 3.671 15.509 3.671 24.765 0 9.167-1.225 17.378-3.671 24.631-2.448 7.255-6.097 12.972-10.946 17.154-4.853 4.185-10.793 6.274-17.822 6.274-7.032 0-12.95-2.09-17.756-6.274zm35.444-12.749c4.139-7.163 6.209-16.842 6.209-29.036 0-12.282-2.07-22.005-6.209-29.17-4.138-7.163-10.035-10.747-17.688-10.747-7.566 0-13.417 3.584-17.556 10.747-4.139 7.165-6.208 16.888-6.208 29.17 0 12.194 2.069 21.873 6.208 29.036 4.139 7.165 9.989 10.746 17.556 10.746 7.652 0 13.55-3.581 17.688-10.746zM730.204 88.177c.756.758 1.135 1.669 1.135 2.737 0 1.157-.379 2.092-1.135 2.803-.758.714-1.668 1.068-2.736 1.068h-50.062c-1.248 0-2.27-.354-3.07-1.068-.801-.711-1.201-1.689-1.201-2.937 0-.979.354-1.913 1.067-2.804l30.839-34.042c4.982-5.34 8.676-10.123 11.08-14.352 2.402-4.226 3.604-8.388 3.604-12.482 0-6.051-1.824-10.813-5.473-14.284-3.65-3.471-8.723-5.206-15.219-5.206-4.361 0-8.256 1.047-11.682 3.137-3.427 2.092-5.986 5.273-7.676 9.545-.98 1.603-2.137 2.403-3.471 2.403-.98 0-1.915-.354-2.804-1.068-.891-.711-1.335-1.512-1.335-2.402 0-.534.178-1.156.533-1.869.355-.711.802-1.423 1.336-2.136 2.312-4.807 5.784-8.544 10.412-11.214 4.627-2.671 9.7-4.006 15.22-4.006 8.988 0 16.019 2.449 21.093 7.343 5.072 4.896 7.609 11.304 7.609 19.224 0 4.896-1.336 9.902-4.006 15.02s-7.074 11.06-13.217 17.822l-24.562 27.634h40.984c1.069-.001 1.979.379 2.737 1.134z"/></g></svg>