<svg xmlns="http://www.w3.org/2000/svg" viewBox="0 0 733.046 166.735"><g fill="#FFF"><path d="M21.894 108.534c-4.806-4.183-8.434-9.899-10.88-17.154-2.449-7.253-3.671-15.464-3.671-24.631 0-9.256 1.202-17.488 3.604-24.697 2.403-7.209 6.028-12.904 10.88-17.089 4.85-4.182 10.791-6.274 17.822-6.274 7.03 0 12.97 2.069 17.822 6.208 4.85 4.139 8.498 9.835 10.947 17.088 2.447 7.255 3.671 15.509 3.671 24.765 0 9.167-1.225 17.378-3.671 24.631-2.449 7.255-6.097 12.972-10.947 17.154-4.852 4.185-10.792 6.274-17.822 6.274-7.031 0-12.949-2.09-17.755-6.275zm35.444-12.749c4.139-7.163 6.208-16.842 6.208-29.036 0-12.282-2.069-22.005-6.208-29.17-4.138-7.163-10.035-10.747-17.689-10.747-7.566 0-13.417 3.584-17.555 10.747-4.139 7.165-6.208 16.888-6.208 29.17 0 12.194 2.069 21.873 6.208 29.036 4.139 7.165 9.989 10.746 17.555 10.746 7.654 0 13.551-3.581 17.689-10.746zM128.625 55.201c4.582 2.536 8.188 6.097 10.812 10.68 2.625 4.585 3.939 9.725 3.939 15.419 0 6.231-1.447 11.815-4.34 16.755s-6.92 8.79-12.081 11.548c-5.163 2.76-11.037 4.138-17.622 4.138-3.738 0-7.455-.621-11.147-1.868-3.694-1.246-6.921-3.025-9.679-5.341-.534-.354-.958-.867-1.269-1.535-.312-.667-.467-1.312-.467-1.936 0-.889.378-1.756 1.135-2.604.755-.845 1.669-1.268 2.737-1.268.979 0 1.957.4 2.937 1.201a27.678 27.678 0 007.543 4.139c2.714.98 5.45 1.469 8.21 1.469 5.073 0 9.589-1.022 13.55-3.071 3.959-2.046 7.03-4.939 9.211-8.677 2.18-3.738 3.271-7.965 3.271-12.683 0-6.763-2.182-12.216-6.543-16.354-4.361-4.139-10.191-6.208-17.488-6.208-2.76 0-5.319.4-7.676 1.201-2.359.801-5.006 1.869-7.943 3.204-2.136 1.068-3.517 1.603-4.139 1.603-1.335 0-2.426-.422-3.271-1.269-.847-.845-1.269-1.846-1.269-3.004 0-.444.044-.801.134-1.068l5.74-36.312c.177-.889.645-1.669 1.402-2.336.755-.668 1.668-1.002 2.737-1.002h40.184c1.066 0 1.979.38 2.736 1.135.754.758 1.135 1.715 1.135 2.871 0 1.067-.381 1.981-1.135 2.736-.758.757-1.67 1.135-2.736 1.135H99.855l-4.539 27.635c2.313-1.156 5.05-2.137 8.21-2.938a39.219 39.219 0 019.679-1.201c5.695.001 10.835 1.269 15.42 3.806z"/></g><path fill="#FFF" d="M733.046 166.735H0v-78l733.046 78z"/></svg>