<svg xmlns="http://www.w3.org/2000/svg" viewBox="0 0 731.34 68.643"><g fill="#F5F5F5"><path d="M601.783 91.181c-4.807-4.182-8.434-9.898-10.881-17.154-2.448-7.252-3.671-15.463-3.671-24.631 0-9.256 1.202-17.488 3.604-24.697 2.403-7.209 6.028-12.904 10.881-17.089 4.85-4.182 10.79-6.274 17.822-6.274 7.029 0 12.97 2.069 17.822 6.208 4.85 4.139 8.498 9.835 10.946 17.088 2.446 7.255 3.671 15.508 3.671 24.764 0 9.168-1.225 17.379-3.671 24.631-2.448 7.256-6.097 12.973-10.946 17.154-4.853 4.186-10.793 6.275-17.822 6.275-7.031 0-12.949-2.09-17.755-6.275zm35.443-12.748c4.139-7.164 6.209-16.842 6.209-29.037 0-12.281-2.07-22.004-6.209-29.169-4.138-7.163-10.035-10.747-17.688-10.747-7.566 0-13.417 3.584-17.556 10.747-4.139 7.165-6.208 16.888-6.208 29.169 0 12.195 2.069 21.873 6.208 29.037s9.989 10.746 17.556 10.746c7.653 0 13.551-3.582 17.688-10.746zM726.802 60.876c.756.715 1.135 1.604 1.135 2.67 0 1.068-.379 1.959-1.135 2.67-.758.715-1.668 1.068-2.736 1.068h-8.945v24.832c0 1.156-.4 2.115-1.201 2.869-.801.758-1.781 1.135-2.938 1.135s-2.092-.377-2.803-1.135c-.713-.754-1.068-1.713-1.068-2.869V67.284h-39.248c-1.068 0-2.002-.42-2.803-1.268-.802-.846-1.202-1.803-1.202-2.871 0-1.066.311-1.955.935-2.67l42.986-56.203c.711-1.068 1.822-1.603 3.338-1.603 1.154 0 2.113.38 2.869 1.135.756.758 1.135 1.715 1.135 2.871V59.81h8.945c1.069 0 1.979.355 2.736 1.066zm-51.998-1.066h32.307V17.089L674.804 59.81z"/></g></svg>