<?xml version="1.0" encoding="utf-8"?>
<!-- Generator: Adobe Illustrator 25.4.1, SVG Export Plug-In . SVG Version: 6.00 Build 0)  -->
<svg version="1.1" id="Ebene_1" xmlns="http://www.w3.org/2000/svg" xmlns:xlink="http://www.w3.org/1999/xlink" x="0px" y="0px"
	 width="895px" height="402.8px" viewBox="0 0 895 402.8" style="enable-background:new 0 0 895 402.8;" xml:space="preserve">
<style type="text/css">
	.st0{fill:#22B0EC;}
	.st1{fill:url(#SVGID_1_);}
</style>
<path class="st0" d="M894.1,271.5V1.5c0,0-136,4-193,30s-149,181-149,181s108,2,219,30S894.1,271.5,894.1,271.5z"/>
<linearGradient id="SVGID_1_" gradientUnits="userSpaceOnUse" x1="0" y1="201.4099" x2="895" y2="201.4099">
	<stop  offset="0" style="stop-color:#75F2DC"/>
	<stop  offset="1" style="stop-color:#2DB9EA"/>
</linearGradient>
<path class="st1" d="M0,270.7c0,0,295-124,426-169s174-63,301-86s168-14,168-14s-134.6,9-230,92c-100,87-126,155-212,234
	c-45,38-75,72-175,75S24,328.7,0,270.7z"/>
</svg>
