<?xml version="1.0" encoding="utf-8"?>
<!-- Generator: Adobe Illustrator 25.4.1, SVG Export Plug-In . SVG Version: 6.00 Build 0)  -->
<svg version="1.1" id="Ebene_1" xmlns="http://www.w3.org/2000/svg" xmlns:xlink="http://www.w3.org/1999/xlink" x="0px" y="0px"
	 width="1215.8px" height="1423.1px" viewBox="0 0 1215.8 1423.1" style="enable-background:new 0 0 1215.8 1423.1;"
	 xml:space="preserve">
<style type="text/css">
	.st0{opacity:0.55;fill:url(#SVGID_1_);enable-background:new    ;}
</style>
<linearGradient id="SVGID_1_" gradientUnits="userSpaceOnUse" x1="607.9205" y1="1687.5535" x2="607.9205" y2="264.4731" gradientTransform="matrix(1 0 0 -1 0 1687.5535)">
	<stop  offset="0" style="stop-color:#FBD42B"/>
	<stop  offset="1" style="stop-color:#FF8901"/>
</linearGradient>
<path class="st0" d="M305.1,31.9C390.7,81.3,527.2,210,627.3,361.4S785.9,507.8,864,524.9c78.1,17.1,256.3,97.6,310,205
	s70.8,217.2-41.5,346.6c-88.3,101.7-174.1,96.8-300.2,78.1c-84.5-12.5-122-2.4-161.1,17.1c-39.1,19.5-86.8,82.8-125.9,121.9
	c-97.9,97.9-170.2,129.5-259.7,129.5c-71.6,0-153.8-41.5-183.1-168.4s7.3-280.7,39.1-427.1s70.1-260-36.6-405.2
	C43.9,339.4,0,258.9,0,207.6S14.6,58.7,100.1,22.1C180.1-12.2,241.6-4.7,305.1,31.9z"/>
</svg>
