<?xml version="1.0" encoding="utf-8"?>
<!-- Generator: Adobe Illustrator 26.0.2, SVG Export Plug-In . SVG Version: 6.00 Build 0)  -->
<svg version="1.1" id="Layer_1" xmlns="http://www.w3.org/2000/svg" xmlns:xlink="http://www.w3.org/1999/xlink" x="0px" y="0px"
	 viewBox="0 0 132.1 83.4" style="enable-background:new 0 0 132.1 83.4;" xml:space="preserve">
<style type="text/css">
	.st0{opacity:0.6;fill:#24B2EC;enable-background:new    ;}
	.st1{opacity:0.3;}
	.st2{fill:#727E94;}
	.st3{opacity:0.5;}
</style>
<polygon class="st0" points="0,43.8 -0.5,18.9 7,21 14.9,22.5 26.5,24.1 35.5,24.4 45,29.1 50,24.8 58.1,24.5 61.8,31.7 64.8,22.1 
	76.4,10.3 89,6.4 91.7,1.6 95.3,0.9 106.4,6.4 112.1,5.6 125,6.4 132.1,2.8 132.1,43.8 "/>
<g class="st1">
	<path class="st2" d="M66.3,82.6c-0.2,0-0.4-0.2-0.4-0.4V49.7c0-0.2,0.2-0.4,0.4-0.4c0.2,0,0.4,0.2,0.4,0.4v32.5
		C66.6,82.4,66.5,82.6,66.3,82.6z"/>
</g>
<g class="st3">
	<path d="M25,60.8v0.8h-3.5v2.2c0.3-0.4,0.9-0.7,1.6-0.7c1.7,0,2.3,1.3,2.3,2.4c0,1.4-0.8,2.5-2.4,2.5c-1.4,0-2.3-0.8-2.5-2h0.9
		c0.2,0.7,0.7,1.2,1.6,1.2c1.1,0,1.6-0.7,1.6-1.7c0-1-0.5-1.6-1.6-1.6c-0.7,0-1.2,0.4-1.5,0.9h-0.8v-4H25z"/>
	<path d="M27.8,66c0.1,0.7,0.6,1.2,1.4,1.2c1,0,1.6-0.7,1.6-2.8c-0.3,0.6-1,0.9-1.8,0.9c-1.3,0-2.3-0.8-2.3-2.3
		c0-1.4,0.8-2.3,2.3-2.3c1.9,0,2.5,1.4,2.5,3.6c0,2.4-0.5,3.7-2.4,3.7c-1.4,0-2.1-0.9-2.2-1.9H27.8z M30.7,63c0-1-0.6-1.6-1.6-1.6
		c-0.9,0-1.5,0.6-1.5,1.6c0,0.9,0.5,1.6,1.6,1.6C30.1,64.5,30.7,64,30.7,63z"/>
	<path d="M34.1,60.9c0.8,0,1.4,0.6,1.4,1.5c0,0.9-0.6,1.5-1.4,1.5c-0.8,0-1.4-0.6-1.4-1.5C32.7,61.5,33.3,60.9,34.1,60.9z
		 M33.4,62.4c0,0.6,0.3,0.9,0.7,0.9c0.4,0,0.7-0.3,0.7-0.9c0-0.6-0.3-0.9-0.7-0.9C33.7,61.5,33.4,61.8,33.4,62.4z M37.6,61h0.9
		l-4,6.9h-0.9L37.6,61z M37.9,65.1c0.8,0,1.4,0.6,1.4,1.5c0,0.9-0.6,1.5-1.4,1.5c-0.8,0-1.4-0.6-1.4-1.5
		C36.5,65.6,37.1,65.1,37.9,65.1z M37.2,66.5c0,0.6,0.3,0.9,0.7,0.9s0.7-0.3,0.7-0.9c0-0.6-0.3-0.9-0.7-0.9S37.2,65.9,37.2,66.5z"/>
</g>
<g class="st3">
	<path d="M92,66c0.1,0.7,0.6,1.2,1.4,1.2c1,0,1.6-0.7,1.6-2.8c-0.3,0.6-1,0.9-1.8,0.9c-1.3,0-2.3-0.8-2.3-2.3c0-1.4,0.8-2.3,2.3-2.3
		c1.9,0,2.5,1.4,2.5,3.6c0,2.4-0.5,3.7-2.4,3.7c-1.4,0-2.1-0.9-2.2-1.9H92z M94.9,63c0-1-0.6-1.6-1.6-1.6c-0.9,0-1.5,0.6-1.5,1.6
		c0,0.9,0.5,1.6,1.6,1.6C94.2,64.5,94.9,64,94.9,63z"/>
	<path d="M98.2,66c0.1,0.7,0.6,1.2,1.4,1.2c1,0,1.6-0.7,1.6-2.8c-0.3,0.6-1,0.9-1.8,0.9c-1.3,0-2.3-0.8-2.3-2.3
		c0-1.4,0.8-2.3,2.3-2.3c1.9,0,2.5,1.4,2.5,3.6c0,2.4-0.5,3.7-2.4,3.7c-1.4,0-2.1-0.9-2.2-1.9H98.2z M101.1,63c0-1-0.6-1.6-1.6-1.6
		C98.6,61.4,98,62,98,63c0,0.9,0.5,1.6,1.6,1.6C100.4,64.5,101.1,64,101.1,63z"/>
	<path d="M104.5,60.9c0.8,0,1.4,0.6,1.4,1.5c0,0.9-0.6,1.5-1.4,1.5c-0.8,0-1.4-0.6-1.4-1.5C103,61.5,103.7,60.9,104.5,60.9z
		 M103.8,62.4c0,0.6,0.3,0.9,0.7,0.9s0.7-0.3,0.7-0.9c0-0.6-0.3-0.9-0.7-0.9S103.8,61.8,103.8,62.4z M107.9,61h0.9l-4,6.9h-0.9
		L107.9,61z M108.3,65.1c0.8,0,1.4,0.6,1.4,1.5c0,0.9-0.6,1.5-1.4,1.5c-0.8,0-1.4-0.6-1.4-1.5C106.8,65.6,107.4,65.1,108.3,65.1z
		 M107.5,66.5c0,0.6,0.3,0.9,0.7,0.9s0.7-0.3,0.7-0.9c0-0.6-0.3-0.9-0.7-0.9S107.5,65.9,107.5,66.5z"/>
</g>
</svg>
