<svg xmlns="http://www.w3.org/2000/svg" viewBox="0 0 35.084 35.084"><path fill="#B2B2B2" d="M31.561 27.528a2.344 2.344 0 01-2.336 2.336H18.477v1.869h5.141a.46.46 0 01.467.467v.936a.46.46 0 01-.467.467h-12.15a.46.46 0 01-.467-.467V32.2a.46.46 0 01.467-.467h5.141v-1.869H5.859a2.343 2.343 0 01-2.336-2.336V13.51a2.343 2.343 0 012.336-2.337h23.365a2.344 2.344 0 012.336 2.337v14.018zm-1.87-14.018a.481.481 0 00-.467-.468H5.859a.481.481 0 00-.467.468v14.019a.48.48 0 00.467.467h23.365a.48.48 0 00.467-.467V13.51z"/></svg>