<svg xmlns="http://www.w3.org/2000/svg" viewBox="0 0 2000 876.547"><path fill="#ECE6DE" d="M0 0h2000v876.547H0z"/><path fill="#ECE6DE" d="M519.53 133.261c-85.417 0-154.913 69.493-154.913 154.913 0 85.418 69.495 154.913 154.913 154.913s154.913-69.495 154.913-154.913c-.001-85.42-69.496-154.913-154.913-154.913zm142.396 154.913c0 77.935-63.766 141.106-142.396 141.106s-142.396-63.171-142.396-141.106c0-77.937 63.767-141.107 142.396-141.107s142.396 63.17 142.396 141.107z"/><path fill="#C0DD92" stroke="#FFF" stroke-width="14" stroke-miterlimit="10" d="M519.53 429.28c-78.63 0-142.396-63.171-142.396-141.106 0-77.937 63.767-141.107 142.396-141.107s142.396 63.171 142.396 141.107c0 77.935-63.766 141.106-142.396 141.106z"/><path fill="none" stroke="#FFF" stroke-width="14" stroke-miterlimit="10" d="M649.023 373.098l854.347 503.449M930.312 524.602V-30.454M1274.27 741.543V173.567M1274.27 173.567H2000M1482.367 173.567V-30.454M519.53 147.067L144.234-18.452M377.134 288.174L-20.783 624.823M119.968 505.744l211.914 414.898M255.877 771.835l503.749-333.561M1274.27 505.744l826.16-92.153M1637.135 465.269V173.567M1460.294 484.994v351.639M1076.197 624.823v251.724"/></svg>