<?xml version="1.0" encoding="utf-8"?>
<!-- Generator: Adobe Illustrator 16.0.0, SVG Export Plug-In . SVG Version: 6.00 Build 0)  -->
<!DOCTYPE svg PUBLIC "-//W3C//DTD SVG 1.1//EN" "http://www.w3.org/Graphics/SVG/1.1/DTD/svg11.dtd">
<svg version="1.1" id="Ebene_1" xmlns="http://www.w3.org/2000/svg" xmlns:xlink="http://www.w3.org/1999/xlink" x="0px" y="0px"
	 width="20.001px" height="15px" viewBox="302.062 214.188 20.001 15" enable-background="new 302.062 214.188 20.001 15"
	 xml:space="preserve">
<g>
	<rect x="307.062" y="214.188" fill="none" width="10" height="14.999"/>
	<path fill="#000066" d="M302.062,214.188h20.001v14.999h-20.001V214.188z"/>
	<path fill="#FFFFFF" d="M302.062,214.188v1.677l17.765,13.323h2.237v-1.677l-17.766-13.323H302.062L302.062,214.188z
		 M322.064,214.188v1.677l-17.766,13.321h-2.236v-1.676l17.765-13.323H322.064z"/>
	<path fill="#FFFFFF" d="M310.396,214.188v14.999h3.333v-14.999H310.396z M302.062,219.188v5h20.001v-5H302.062z"/>
	<rect x="302.062" y="220.187" fill="#CC0000" width="20.001" height="3.001"/>
	<rect x="311.062" y="214.188" fill="#CC0000" width="2" height="14.999"/>
	<polygon fill="#CC0000" points="302.062,229.186 308.73,224.188 310.22,224.188 303.553,229.186 	"/>
	<polygon fill="#CC0000" points="302.062,214.188 308.73,219.188 307.239,219.188 302.062,215.306 	"/>
	<polygon fill="#CC0000" points="313.905,219.188 320.573,214.188 322.064,214.188 315.396,219.188 	"/>
	<polygon fill="#CC0000" points="322.064,229.186 315.396,224.188 316.887,224.188 322.064,228.07 	"/>
</g>
</svg>
