<svg version="1.1" id="Ebene_1" xmlns="http://www.w3.org/2000/svg" xmlns:xlink="http://www.w3.org/1999/xlink" x="0px" y="0px"
	 viewBox="0 0 102.079 96.904" enable-background="new 0 0 102.079 96.904"
	 xml:space="preserve">
<g>
	<path d="M23.953,32.318c2.042,1.217,3.64,2.933,4.793,5.147c1.153,2.215,1.729,4.776,1.729,7.68c0,2.96-0.595,5.629-1.784,8.007
		c-1.189,2.379-2.851,4.244-4.984,5.597c-2.134,1.353-4.58,2.029-7.34,2.029c-2.578,0-4.894-0.609-6.945-1.825
		c-2.052-1.216-3.659-2.937-4.821-5.161S2.86,48.986,2.86,46.044s0.585-5.592,1.756-7.953c1.171-2.36,2.828-4.217,4.971-5.569
		c2.142-1.353,4.611-2.029,7.408-2.029C19.591,30.493,21.911,31.102,23.953,32.318z M12.215,33.189
		c-1.244,1.144-2.211,2.801-2.9,4.971c-0.69,2.17-1.035,4.743-1.035,7.721c0,3.196,0.381,5.833,1.144,7.912s1.793,3.595,3.091,4.548
		c1.298,0.954,2.755,1.43,4.371,1.43c1.597,0,3.018-0.576,4.262-1.729c1.243-1.153,2.21-2.819,2.9-4.998s1.035-4.757,1.035-7.735
		c0-3.177-0.381-5.801-1.144-7.871s-1.793-3.582-3.091-4.535c-1.298-0.954-2.755-1.43-4.371-1.43
		C14.879,31.474,13.458,32.046,12.215,33.189z"/>
	<path d="M52.291,36.621c-0.799-0.181-3.377-0.272-7.734-0.272h-5.938l-0.653,10.758c1.017-0.526,2.015-0.939,2.995-1.239
		c0.98-0.3,2.161-0.45,3.541-0.45c2.179,0,4.003,0.368,5.474,1.103s2.569,1.752,3.296,3.05c0.726,1.298,1.09,2.783,1.09,4.453
		c0,2.76-0.904,5.22-2.71,7.38c-1.808,2.161-4.136,3.84-6.986,5.039s-5.756,1.797-8.715,1.797v-1.007
		c2.27-0.019,4.402-0.509,6.4-1.471c1.997-0.963,3.612-2.397,4.848-4.303c1.234-1.906,1.852-4.203,1.852-6.891
		c0-2.36-0.608-4.194-1.824-5.501c-1.217-1.307-2.951-1.961-5.202-1.961c-0.908,0-1.68,0.073-2.315,0.218s-1.389,0.391-2.26,0.735
		l-0.545-0.354l1.062-16.613c0.744,0.146,1.742,0.218,2.995,0.218h6.318c1.018,0,1.771-0.086,2.261-0.259
		c0.49-0.172,0.831-0.449,1.021-0.831s0.341-0.962,0.449-1.743h1.062C52.073,32.255,52.146,34.969,52.291,36.621z"/>
	<path d="M65.404,54.12c0.554,0.318,0.989,0.753,1.308,1.307c0.317,0.554,0.477,1.149,0.477,1.784c0,0.636-0.159,1.226-0.477,1.77
		c-0.318,0.545-0.754,0.98-1.308,1.308c-0.554,0.327-1.148,0.49-1.784,0.49s-1.229-0.164-1.783-0.49
		c-0.555-0.327-0.99-0.763-1.308-1.308c-0.318-0.544-0.477-1.134-0.477-1.77c0-0.635,0.158-1.23,0.477-1.784
		c0.317-0.554,0.753-0.989,1.308-1.307c0.554-0.317,1.147-0.477,1.783-0.477S64.851,53.802,65.404,54.12z"/>
</g>
<line fill="none" stroke="#000000" stroke-width="2" stroke-miterlimit="10" x1="101.079" y1="0" x2="101.079" y2="96.904"/>
</svg>
