<svg xmlns="http://www.w3.org/2000/svg" viewBox="0 0 167.607 147.551"><path fill="none" stroke="#71A2B7" stroke-width="5" stroke-miterlimit="10" d="M86.893 3.087s-37.905 35-37.905 70 37.905 58.271 37.905 58.271"/><path fill="none" stroke="#71A2B7" stroke-width="5" stroke-miterlimit="10" d="M86.114 3.087s37.905 35 37.905 70-37.905 58.271-37.905 58.271"/><path fill="none" stroke="#71A2B7" stroke-width="5" stroke-miterlimit="10" d="M39.529 10.849S17.755 57.62 31.046 89.998s57.194 39.511 57.194 39.511"/><path fill="none" stroke="#71A2B7" stroke-width="5" stroke-miterlimit="10" d="M38.808 11.144s48.355 17.982 61.647 50.36c13.291 32.379-12.938 68.301-12.938 68.301"/><path fill="none" stroke="#71A2B7" stroke-width="5" stroke-miterlimit="10" d="M126.093 8.577s-46.998 21.281-58.021 54.5 17.625 67.243 17.625 67.243"/><path fill="none" stroke="#71A2B7" stroke-width="5" stroke-miterlimit="10" d="M125.353 8.332s24.953 45.156 13.932 78.375c-11.022 33.219-54.328 43.367-54.328 43.367"/></svg>