<svg xmlns="http://www.w3.org/2000/svg" viewBox="0 0 215.396 189.941"><path fill="none" stroke="#B1B1B1" stroke-width="3" stroke-miterlimit="10" d="M109.893 25.087s-37.905 35-37.905 70 37.905 58.271 37.905 58.271"/><path fill="none" stroke="#B1B1B1" stroke-width="3" stroke-miterlimit="10" d="M109.114 25.087s37.905 35 37.905 70-37.905 58.27-37.905 58.27"/><path fill="none" stroke="#B1B1B1" stroke-width="3" stroke-miterlimit="10" d="M62.529 32.848s-21.774 46.772-8.483 79.15 57.194 39.511 57.194 39.511"/><path fill="none" stroke="#B1B1B1" stroke-width="3" stroke-miterlimit="10" d="M61.808 33.143s48.356 17.983 61.648 50.361c13.291 32.379-12.938 68.3-12.938 68.3"/><path fill="none" stroke="#B1B1B1" stroke-width="3" stroke-miterlimit="10" d="M149.093 30.577s-46.999 21.281-58.021 54.5 17.625 67.243 17.625 67.243"/><path fill="none" stroke="#B1B1B1" stroke-width="3" stroke-miterlimit="10" d="M148.353 30.332s24.953 45.156 13.932 78.375c-11.023 33.219-54.328 43.367-54.328 43.367"/></svg>