<?xml version="1.0" encoding="utf-8"?>
<!-- Generator: Adobe Illustrator 16.0.0, SVG Export Plug-In . SVG Version: 6.00 Build 0)  -->
<!DOCTYPE svg PUBLIC "-//W3C//DTD SVG 1.1//EN" "http://www.w3.org/Graphics/SVG/1.1/DTD/svg11.dtd">
<svg version="1.1" id="Ebene_1" xmlns="http://www.w3.org/2000/svg" xmlns:xlink="http://www.w3.org/1999/xlink" x="0px" y="0px"
	 width="83.719px" height="48.819px" viewBox="-0.307 -0.006 83.719 48.819" enable-background="new -0.307 -0.006 83.719 48.819"
	 xml:space="preserve">
<path fill="#EBB571" d="M35.003,34.758c-1.345,1.362-8.96,1.63-8.96,1.63s3.795-0.729,6.064-1.759
	c0.931-0.423,2.078-0.538,2.7-0.631c-0.335-0.215-1.066-0.565-1.678-0.707c-4.839-1.127-9.477,3.271-9.477,3.271
	s3.101,2.192,6.484,1.911c2.525-0.211,5.64-2.366,5.047-3.914C35.129,34.623,35.073,34.687,35.003,34.758z"/>
<path fill="#EBB571" d="M30.13,29.969c-1.345,1.362-8.96,1.63-8.96,1.63s3.795-0.729,6.064-1.759c0.931-0.423,2.078-0.538,2.7-0.631
	c-0.335-0.215-1.066-0.565-1.678-0.707c-4.839-1.127-9.477,3.271-9.477,3.271s3.101,2.192,6.484,1.911
	c2.525-0.211,5.64-2.366,5.047-3.914C30.257,29.833,30.201,29.898,30.13,29.969z"/>
<path fill="#EBB571" d="M25.141,25.015c-1.345,1.362-8.96,1.63-8.96,1.63s3.795-0.729,6.064-1.759
	c0.931-0.423,2.078-0.538,2.7-0.631c-0.335-0.215-1.066-0.565-1.678-0.707c-4.839-1.127-9.477,3.271-9.477,3.271
	s3.101,2.192,6.484,1.911c2.525-0.211,5.64-2.366,5.047-3.914C25.268,24.879,25.212,24.944,25.141,25.015z"/>
<path fill="#EBB571" d="M20.28,20.448c-1.413,1.292-9.032,1.173-9.032,1.173s3.828-0.535,6.146-1.449
	c0.952-0.375,2.102-0.432,2.728-0.493c-0.324-0.232-1.036-0.619-1.64-0.792c-4.775-1.371-9.63,2.787-9.63,2.787
	s2.986,2.347,6.378,2.238c2.532-0.083,5.752-2.078,5.239-3.653C20.413,20.318,20.354,20.38,20.28,20.448z"/>
<path fill="#EBB571" d="M15.28,15.34c-1.413,1.293-9.032,1.174-9.032,1.174s3.828-0.535,6.146-1.449
	c0.952-0.375,2.102-0.432,2.728-0.493c-0.324-0.231-1.036-0.619-1.64-0.792c-4.775-1.37-9.63,2.787-9.63,2.787
	s2.986,2.348,6.378,2.238c2.532-0.084,5.752-2.078,5.239-3.654C15.413,15.211,15.354,15.272,15.28,15.34z"/>
<path fill="#EBB571" d="M11.136,12.395c-1.821,0.593-8.709-2.666-8.709-2.666s3.707,1.095,6.195,1.222
	c1.021,0.052,2.092,0.476,2.688,0.679c-0.199-0.345-0.688-0.992-1.166-1.399C6.363,7.008,0.223,8.786,0.223,8.786
	s1.748,3.372,4.882,4.675c2.34,0.971,6.097,0.487,6.282-1.161C11.311,12.333,11.232,12.363,11.136,12.395z"/>
<path fill="#EBB571" d="M9.263,6.687C8.607,4.887,1.795,1.473,1.795,1.473s3.148,2.243,4.781,4.124
	c0.67,0.772,1.665,1.354,2.192,1.698c-0.395,0.056-1.205,0.07-1.821-0.056c-4.868-0.99-7.254-6.92-7.254-6.92
	S3.426-0.384,6.384,1.28c2.207,1.244,4.143,4.5,2.959,5.661C9.322,6.862,9.297,6.781,9.263,6.687z"/>
<path fill="#EBB571" d="M36.617,36.037c1.476-1.217,2.423-8.779,2.423-8.779s-1.064,3.715-2.293,5.883
	c-0.504,0.889-0.721,2.021-0.87,2.633c-0.184-0.354-0.467-1.113-0.554-1.736c-0.69-4.918,4.105-9.146,4.105-9.146
	s1.907,3.284,1.325,6.63c-0.437,2.494-2.86,5.404-4.349,4.676C36.47,36.15,36.539,36.101,36.617,36.037z"/>
<path fill="#EBB571" d="M32.068,30.879c1.478-1.217,2.424-8.779,2.424-8.779s-1.065,3.715-2.293,5.882
	c-0.504,0.891-0.721,2.021-0.869,2.633c-0.185-0.354-0.469-1.113-0.555-1.734c-0.69-4.92,4.105-9.147,4.105-9.147
	s1.907,3.284,1.324,6.628c-0.435,2.495-2.86,5.405-4.349,4.677C31.922,30.993,31.991,30.944,32.068,30.879z"/>
<path fill="#EBB571" d="M27.115,25.786c1.477-1.22,2.423-8.78,2.423-8.78s-1.064,3.715-2.293,5.883
	c-0.504,0.89-0.721,2.021-0.869,2.632c-0.184-0.353-0.468-1.112-0.555-1.734c-0.69-4.92,4.105-9.147,4.105-9.147
	s1.907,3.284,1.325,6.628c-0.436,2.496-2.86,5.407-4.349,4.678C26.969,25.899,27.038,25.848,27.115,25.786z"/>
<path fill="#EBB571" d="M22.433,20.512c1.414-1.292,1.975-8.891,1.975-8.891s-0.875,3.765-1.992,5.992
	c-0.459,0.914-0.618,2.055-0.735,2.673c-0.202-0.343-0.524-1.087-0.642-1.704c-0.938-4.878,3.636-9.343,3.636-9.343
	s2.072,3.184,1.66,6.553c-0.31,2.515-2.583,5.544-4.107,4.892C22.292,20.633,22.359,20.58,22.433,20.512z"/>
<path fill="#EBB571" d="M18.001,15.575c1.414-1.292,1.976-8.891,1.976-8.891s-0.875,3.765-1.993,5.992
	c-0.458,0.914-0.618,2.055-0.735,2.673c-0.201-0.343-0.524-1.087-0.642-1.704c-0.938-4.879,3.636-9.342,3.636-9.342
	s2.072,3.183,1.66,6.552c-0.31,2.515-2.583,5.543-4.107,4.892C17.861,15.696,17.927,15.643,18.001,15.575z"/>
<path fill="#EBB571" d="M14.138,11.186c0.753-1.761-1.877-8.912-1.877-8.912s0.76,3.79,0.664,6.279
	c-0.04,1.022,0.287,2.126,0.436,2.738c-0.326-0.229-0.926-0.773-1.29-1.287c-2.871-4.054-0.553-10.01-0.553-10.01
	s3.203,2.042,4.221,5.28c0.758,2.418-0.06,6.116-1.717,6.153C14.06,11.354,14.098,11.278,14.138,11.186z"/>
<path fill="#EBB571" d="M35.255,38.5l3.467-0.708c0,0,6.799,7.646,10.633,10.229S38.4,42.457,35.255,38.5z"/>
<path fill="#EBB571" d="M48.103,35.055c1.344,1.362,8.96,1.63,8.96,1.63S53.267,35.957,51,34.926
	c-0.932-0.423-2.078-0.538-2.701-0.631c0.336-0.215,1.066-0.565,1.68-0.707c4.838-1.127,9.477,3.271,9.477,3.271
	s-3.102,2.192-6.484,1.911c-2.525-0.211-5.639-2.366-5.047-3.914C47.976,34.919,48.031,34.984,48.103,35.055z"/>
<path fill="#EBB571" d="M52.975,30.266c1.345,1.362,8.96,1.63,8.96,1.63s-3.795-0.729-6.063-1.759
	c-0.931-0.423-2.077-0.538-2.7-0.631c0.336-0.215,1.066-0.565,1.679-0.707c4.839-1.127,9.478,3.271,9.478,3.271
	s-3.102,2.192-6.484,1.911c-2.525-0.211-5.64-2.366-5.047-3.914C52.849,30.13,52.904,30.195,52.975,30.266z"/>
<path fill="#EBB571" d="M57.965,25.312c1.345,1.362,8.961,1.63,8.961,1.63s-3.797-0.729-6.064-1.759
	c-0.932-0.423-2.078-0.538-2.7-0.631c0.335-0.215,1.066-0.565,1.679-0.707c4.838-1.127,9.477,3.271,9.477,3.271
	s-3.102,2.192-6.484,1.911c-2.524-0.211-5.639-2.366-5.047-3.914C57.838,25.176,57.893,25.241,57.965,25.312z"/>
<path fill="#EBB571" d="M62.826,20.745c1.412,1.292,9.031,1.173,9.031,1.173s-3.828-0.535-6.145-1.449
	c-0.953-0.375-2.104-0.432-2.729-0.493c0.323-0.232,1.035-0.619,1.64-0.792c4.776-1.371,9.63,2.787,9.63,2.787
	s-2.984,2.347-6.377,2.238c-2.533-0.083-5.754-2.078-5.24-3.653C62.692,20.615,62.752,20.677,62.826,20.745z"/>
<path fill="#EBB571" d="M67.826,15.637c1.412,1.293,9.031,1.174,9.031,1.174s-3.826-0.535-6.145-1.449
	c-0.951-0.375-2.102-0.432-2.729-0.493c0.324-0.231,1.037-0.619,1.641-0.792c4.775-1.37,9.631,2.787,9.631,2.787
	s-2.986,2.348-6.379,2.238c-2.533-0.084-5.752-2.078-5.24-3.654C67.693,15.508,67.752,15.569,67.826,15.637z"/>
<path fill="#EBB571" d="M71.969,12.691c1.822,0.593,8.709-2.666,8.709-2.666s-3.705,1.095-6.193,1.222
	c-1.021,0.052-2.094,0.476-2.689,0.679c0.199-0.345,0.688-0.992,1.166-1.399c3.781-3.222,9.922-1.444,9.922-1.444
	S81.135,12.455,78,13.758c-2.34,0.971-6.096,0.487-6.281-1.161C71.795,12.629,71.873,12.66,71.969,12.691z"/>
<path fill="#EBB571" d="M73.844,6.983C74.498,5.184,81.31,1.77,81.31,1.77s-3.146,2.243-4.781,4.124
	c-0.67,0.772-1.664,1.354-2.191,1.698c0.395,0.056,1.205,0.07,1.82-0.056c4.869-0.99,7.254-6.92,7.254-6.92
	s-3.732-0.703-6.689,0.961c-2.207,1.244-4.143,4.5-2.959,5.661C73.785,7.159,73.808,7.078,73.844,6.983z"/>
<path fill="#EBB571" d="M46.488,36.333c-1.477-1.217-2.422-8.779-2.422-8.779s1.062,3.715,2.293,5.883
	c0.504,0.889,0.721,2.021,0.869,2.633c0.184-0.354,0.467-1.113,0.555-1.736c0.689-4.918-4.105-9.146-4.105-9.146
	s-1.907,3.284-1.325,6.63c0.437,2.494,2.86,5.404,4.348,4.676C46.635,36.447,46.566,36.398,46.488,36.333z"/>
<path fill="#EBB571" d="M51.037,31.176c-1.477-1.217-2.424-8.779-2.424-8.779s1.064,3.715,2.293,5.882
	c0.506,0.891,0.723,2.021,0.869,2.633c0.186-0.354,0.469-1.113,0.556-1.734c0.69-4.92-4.104-9.147-4.104-9.147
	s-1.908,3.284-1.324,6.628c0.434,2.495,2.859,5.405,4.348,4.677C51.183,31.29,51.115,31.241,51.037,31.176z"/>
<path fill="#EBB571" d="M55.99,26.083c-1.477-1.22-2.424-8.78-2.424-8.78s1.064,3.715,2.294,5.883
	c0.504,0.89,0.722,2.021,0.869,2.632c0.185-0.354,0.468-1.112,0.555-1.734c0.69-4.92-4.104-9.147-4.104-9.147
	s-1.908,3.284-1.325,6.628c0.437,2.496,2.86,5.407,4.349,4.678C56.136,26.196,56.068,26.145,55.99,26.083z"/>
<path fill="#EBB571" d="M60.673,20.809c-1.413-1.292-1.976-8.891-1.976-8.891s0.875,3.765,1.992,5.992
	c0.459,0.914,0.618,2.055,0.734,2.673c0.203-0.343,0.525-1.087,0.643-1.704C63.005,14,58.43,9.535,58.43,9.535
	s-2.071,3.184-1.659,6.553c0.309,2.515,2.583,5.544,4.106,4.892C60.813,20.93,60.747,20.876,60.673,20.809z"/>
<path fill="#EBB571" d="M65.105,15.872c-1.415-1.292-1.977-8.891-1.977-8.891s0.875,3.765,1.992,5.992
	c0.459,0.914,0.617,2.055,0.734,2.673c0.201-0.343,0.525-1.087,0.643-1.704c0.939-4.879-3.636-9.342-3.636-9.342
	s-2.071,3.183-1.659,6.552c0.309,2.515,2.583,5.543,4.107,4.892C65.244,15.993,65.179,15.94,65.105,15.872z"/>
<path fill="#EBB571" d="M68.969,11.482c-0.754-1.761,1.877-8.912,1.877-8.912s-0.76,3.79-0.664,6.279
	c0.039,1.022-0.287,2.126-0.436,2.738c0.326-0.229,0.926-0.773,1.289-1.287c2.871-4.054,0.553-10.01,0.553-10.01
	s-3.203,2.042-4.221,5.28c-0.758,2.418,0.061,6.116,1.717,6.153C69.045,11.651,69.008,11.575,68.969,11.482z"/>
<path fill="#EBB571" d="M47.849,38.796l-3.467-0.708c0,0-6.798,7.646-10.632,10.229S44.705,42.753,47.849,38.796z"/>
</svg>
