<svg xmlns="http://www.w3.org/2000/svg" viewBox="0 0 405 226.8"><path fill="#9BB71F" d="M0 0h405v226.8H0z"/><g fill="#FFF"><path d="M38.28 42.315c0 2.632-.681 4.682-2.042 6.15-1.362 1.468-3.186 2.202-5.472 2.202-2.256 0-4.049-.734-5.38-2.202-1.332-1.468-1.997-3.518-1.997-6.15v-6.096c0-2.622.668-4.674 2.004-6.158 1.336-1.483 3.127-2.225 5.373-2.225 2.276 0 4.097.742 5.464 2.225 1.367 1.484 2.05 3.536 2.05 6.158v6.096zm-3.079-6.142c0-1.93-.386-3.396-1.158-4.397s-1.865-1.501-3.277-1.501c-1.392 0-2.459.5-3.201 1.501s-1.113 2.467-1.113 4.397v6.142c0 1.951.374 3.429 1.121 4.435.747 1.006 1.811 1.509 3.193 1.509 1.422 0 2.517-.5 3.285-1.501.767-1 1.15-2.481 1.15-4.443v-6.142zM56.508 50.347h-3.079l-8.413-16.506-.091.031v16.476h-3.094V28.156h3.094l8.413 16.461.091-.031v-16.43h3.079v22.191zM63.931 48h8.657v2.347H60.836V28.156h3.094L63.931 48zM77.876 38.932h.091l4.542-10.776h3.429l-6.523 14.205v7.986h-3.079v-8.185L69.89 28.156h3.459l4.527 10.776zM106.59 40.471h-8.245v9.876h-3.094V28.156h12.666v2.347h-9.571v7.621h8.245l-.001 2.347zM124.926 42.315c0 2.632-.681 4.682-2.042 6.15-1.362 1.468-3.186 2.202-5.472 2.202-2.256 0-4.049-.734-5.38-2.202-1.332-1.468-1.997-3.518-1.997-6.15v-6.096c0-2.622.668-4.674 2.004-6.158 1.336-1.483 3.127-2.225 5.373-2.225 2.276 0 4.097.742 5.464 2.225 1.367 1.484 2.05 3.536 2.05 6.158v6.096zm-3.079-6.142c0-1.93-.386-3.396-1.158-4.397s-1.865-1.501-3.277-1.501c-1.392 0-2.459.5-3.201 1.501s-1.113 2.467-1.113 4.397v6.142c0 1.951.374 3.429 1.121 4.435.747 1.006 1.811 1.509 3.193 1.509 1.422 0 2.517-.5 3.285-1.501.767-1 1.15-2.481 1.15-4.443v-6.142zM131.571 40.776v9.571h-3.094V28.171h6.904c2.104 0 3.729.543 4.877 1.63 1.148 1.086 1.722 2.645 1.722 4.676 0 1.158-.267 2.168-.8 3.031s-1.303 1.539-2.309 2.026c1.107.376 1.908 1.014 2.4 1.914.492.9.739 2.011.739 3.333v1.937c0 .682.069 1.314.206 1.899.137.585.373 1.045.708 1.38v.351h-3.186c-.345-.336-.566-.842-.663-1.519a15.13 15.13 0 01-.145-2.145v-1.878c0-1.242-.282-2.224-.846-2.946-.564-.722-1.339-1.083-2.325-1.083l-4.188-.001zm0-2.347h3.658c1.25 0 2.172-.338 2.766-1.016.595-.677.892-1.637.892-2.879 0-1.272-.29-2.259-.869-2.962-.579-.703-1.458-1.054-2.637-1.054h-3.81v7.911zM163.136 44.753c0-1.046-.295-1.905-.884-2.576-.589-.67-1.621-1.26-3.094-1.768-2.114-.639-3.734-1.474-4.862-2.504-1.128-1.03-1.692-2.393-1.692-4.087 0-1.746.627-3.179 1.882-4.3s2.868-1.682 4.839-1.682c2.052 0 3.706.648 4.961 1.943 1.255 1.295 1.862 2.857 1.821 4.687l-.03.091h-2.972c0-1.294-.333-2.348-.998-3.158-.666-.811-1.603-1.216-2.812-1.216-1.148 0-2.035.338-2.66 1.014-.625.676-.938 1.537-.938 2.583 0 .945.335 1.74 1.006 2.385.671.646 1.778 1.232 3.323 1.761 2.022.631 3.561 1.49 4.618 2.579 1.057 1.088 1.585 2.498 1.585 4.227 0 1.821-.625 3.266-1.875 4.333-1.25 1.068-2.891 1.602-4.923 1.602-1.981 0-3.711-.586-5.19-1.76-1.478-1.173-2.192-2.827-2.141-4.961l.03-.091h2.972c0 1.519.398 2.643 1.196 3.372.798.729 1.842 1.094 3.132 1.094 1.158 0 2.065-.323 2.72-.968.658-.646.986-1.512.986-2.6zM184.229 50.347h-3.078v-9.8h-8.504v9.8h-3.094V28.156h3.094V38.2h8.504V28.156h3.078v22.191zM202.671 42.315c0 2.632-.681 4.682-2.042 6.15-1.361 1.468-3.186 2.202-5.472 2.202-2.256 0-4.049-.734-5.38-2.202-1.331-1.468-1.997-3.518-1.997-6.15v-6.096c0-2.622.668-4.674 2.005-6.158 1.336-1.483 3.126-2.225 5.372-2.225 2.276 0 4.098.742 5.464 2.225 1.366 1.484 2.05 3.536 2.05 6.158v6.096zm-3.078-6.142c0-1.93-.387-3.396-1.158-4.397-.772-1.001-1.865-1.501-3.277-1.501-1.393 0-2.459.5-3.2 1.501-.742 1.001-1.113 2.467-1.113 4.397v6.142c0 1.951.374 3.429 1.12 4.435.747 1.006 1.812 1.509 3.193 1.509 1.423 0 2.518-.5 3.284-1.501.768-1 1.151-2.481 1.151-4.443v-6.142zM209.316 40.776v9.571h-3.094V28.171h6.903c2.103 0 3.729.543 4.877 1.63 1.147 1.086 1.722 2.645 1.722 4.676 0 1.158-.267 2.168-.8 3.031-.532.863-1.303 1.539-2.309 2.026 1.106.376 1.907 1.014 2.399 1.914.492.9.739 2.011.739 3.333v1.937c0 .682.067 1.314.205 1.899s.374 1.045.709 1.38v.351h-3.187c-.346-.336-.565-.842-.662-1.519a14.98 14.98 0 01-.146-2.145v-1.878c0-1.242-.282-2.224-.846-2.946-.563-.723-1.339-1.083-2.324-1.083l-4.186-.001zm0-2.347h3.656c1.25 0 2.172-.338 2.768-1.016.595-.677.892-1.637.892-2.879 0-1.272-.289-2.259-.868-2.962-.58-.703-1.459-1.054-2.637-1.054h-3.811v7.911zM235.562 30.503h-5.701v19.844h-3.094V30.503h-5.67v-2.347h14.465v2.347zM257.875 30.503h-5.7v19.844h-3.094V30.503h-5.67v-2.347h14.464v2.347zM263.834 50.347h-3.079V28.156h3.079v22.191zM272.264 28.156l5.182 18.107h.092l5.197-18.107h3.992v22.191h-3.062v-8.52l.273-8.535-.092-.016-5.334 17.07h-2.041l-5.32-17.055-.092.015.291 8.52v8.52h-3.063v-22.19h3.977zM302.288 40.029h-8.229V48h9.541v2.347h-12.636V28.156h12.543v2.347h-9.448v7.179h8.229v2.347z"/></g><g fill="#FFF"><path d="M38.173 86.193c-.508.894-1.333 1.696-2.477 2.408-1.143.711-2.604 1.066-4.382 1.066-2.327 0-4.202-.706-5.624-2.118-1.423-1.412-2.134-3.425-2.134-6.036v-6.584c0-2.57.675-4.562 2.027-5.975s3.145-2.118 5.38-2.118c2.266 0 3.998.571 5.197 1.715 1.199 1.143 1.839 2.745 1.92 4.809l-.031.091h-2.926c-.051-1.392-.414-2.451-1.09-3.178-.676-.727-1.684-1.09-3.025-1.09-1.351 0-2.418.486-3.2 1.458-.783.973-1.174 2.385-1.174 4.236v6.626c0 1.894.419 3.336 1.257 4.328.838.993 1.979 1.489 3.422 1.489 1.057 0 1.877-.181 2.461-.542.584-.36 1.019-.82 1.303-1.379v-5.045h-3.795v-2.24h6.889v8.079h.002zM53.734 79.029h-8.23V87h9.541v2.347H42.41V67.156h12.543v2.348h-9.449v7.179h8.23v2.346zM71.079 69.503h-5.7v19.844h-3.094V69.503h-5.67v-2.348h14.464v2.348z"/></g><path fill="#FFF" d="M22.002 113.4H317.5v4.51H22.002z"/><g fill="#FFF"><path d="M27.018 151.658H23.4l-.736 2.158h-1.562l3.396-9.242h1.46l3.358 9.242h-1.568l-.73-2.158zm-3.174-1.289h2.736l-1.339-3.947h-.038l-1.359 3.947zM39.472 151.835l.038-.006 1.073-4.883h1.479l-1.879 6.868H38.92l-1.46-4.69-.013-.062-.006.062-1.447 4.69H34.73l-1.879-6.868h1.479l1.098 4.812.038.006 1.428-4.816h1.124l1.454 4.887zM42.855 150.318c0-1.02.279-1.857.838-2.514.567-.655 1.335-.983 2.304-.983.986 0 1.758.328 2.317.983.563.652.844 1.49.844 2.514v.135c0 1.031-.281 1.875-.844 2.525-.559.646-1.327.971-2.304.971-.982 0-1.754-.324-2.317-.977-.559-.652-.838-1.492-.838-2.521v-.133zm1.542.131c0 .668.131 1.213.394 1.635.258.42.665.629 1.219.629.538 0 .939-.209 1.206-.629.271-.422.406-.967.406-1.635v-.134c0-.653-.135-1.192-.406-1.616-.267-.427-.673-.641-1.219-.641-.538 0-.939.214-1.206.641-.262.428-.394.967-.394 1.616v.134zM51.9 146.949l.089.989c.224-.353.507-.625.848-.821.34-.197.725-.296 1.152-.296.715 0 1.273.218 1.672.65.4.434.6 1.11.6 2.028v4.315h-1.542v-4.304c0-.518-.107-.885-.32-1.102-.214-.219-.539-.328-.975-.328a1.61 1.61 0 00-1.39.75v4.982h-1.542v-6.868H51.9v.005zM57.582 150.477c0-1.097.235-1.979.705-2.649.47-.672 1.13-1.007 1.98-1.007.373 0 .706.075 1 .226s.549.365.765.646v-3.776h1.542v9.901h-1.295l-.152-.851c-.22.32-.484.566-.793.732-.309.168-.668.25-1.079.25-.842 0-1.498-.307-1.968-.92s-.705-1.42-.705-2.418v-.134zm1.542.134c0 .635.122 1.141.365 1.518s.629.564 1.158.564c.326 0 .602-.07.828-.21.227-.14.412-.339.556-.597v-2.996a1.625 1.625 0 00-.559-.594 1.502 1.502 0 00-.812-.213c-.525 0-.912.222-1.162.664-.25.441-.375 1.019-.375 1.729l.001.135zM68.176 153.949c-.973 0-1.749-.318-2.326-.955-.578-.637-.867-1.453-.867-2.453v-.254c0-.998.287-1.826.86-2.484.574-.658 1.292-.984 2.155-.98.927 0 1.637.28 2.13.842.493.561.739 1.312.739 2.256v.908h-4.285l-.013.031c.025.544.185.989.479 1.335.294.347.702.519 1.222.519.415 0 .77-.051 1.066-.151s.582-.247.857-.438l.495 1.012c-.258.23-.601.425-1.028.582-.427.154-.921.23-1.484.23zm-.178-5.891c-.381 0-.694.15-.939.454-.245.303-.398.687-.457 1.151l.013.032h2.723v-.159c0-.436-.111-.791-.333-1.065-.223-.275-.558-.413-1.007-.413zM75.533 148.337l-.66-.025c-.3 0-.551.064-.752.191a1.256 1.256 0 00-.466.539v4.772h-1.542v-6.868h1.409l.102.997c.173-.353.396-.627.67-.825.272-.199.587-.299.942-.299.093 0 .18.008.26.021.08.015.154.033.222.055l-.185 1.442zM77.234 153.816v-5.727h-1.047v-1.143h1.047v-.8c0-.758.207-1.342.619-1.752.413-.41.992-.615 1.736-.615.148 0 .298.011.451.034s.324.057.514.1l-.159 1.192c-.084-.017-.179-.03-.283-.045a2.68 2.68 0 00-.333-.019c-.334 0-.585.094-.752.285-.167.189-.251.463-.251.818v.8h1.396v1.144h-1.396v5.726l-1.542.002zM85.575 152.813a2.337 2.337 0 01-.819.841c-.33.197-.711.295-1.143.295-.736 0-1.312-.234-1.727-.703-.415-.471-.622-1.201-.622-2.19v-4.106H82.8v4.12c0 .601.097 1.021.292 1.263.195.242.489.362.882.362.373 0 .685-.067.937-.2.251-.134.449-.326.593-.58v-4.965h1.542v6.868H85.7l-.125-1.005zM90.304 153.816h-1.542v-9.902h1.542v9.902zM99.127 151.951a.72.72 0 00-.305-.592c-.203-.156-.582-.294-1.136-.412-.821-.174-1.442-.42-1.863-.738-.421-.319-.632-.756-.632-1.306 0-.575.243-1.065.73-1.473.487-.407 1.128-.609 1.923-.609.838 0 1.503.206 1.996.619.493.412.729.923.708 1.532l-.013.039h-1.479a.966.966 0 00-.324-.73c-.216-.203-.512-.305-.889-.305-.373 0-.656.084-.851.251a.776.776 0 00-.292.612c0 .24.092.433.276.574s.557.268 1.12.377c.863.179 1.503.43 1.92.752.417.324.625.766.625 1.324 0 .617-.255 1.119-.765 1.504s-1.182.578-2.015.578c-.893 0-1.598-.229-2.114-.687s-.762-.981-.736-1.574l.013-.037h1.435c.017.397.161.688.432.869s.601.272.99.272c.398 0 .705-.076.92-.229a.71.71 0 00.326-.611zM104.973 153.949c-.973 0-1.749-.318-2.326-.955-.578-.637-.867-1.453-.867-2.453v-.254c0-.998.287-1.826.86-2.484.574-.658 1.292-.984 2.155-.98.927 0 1.637.28 2.13.842.493.561.739 1.312.739 2.256v.908h-4.285l-.013.031c.025.544.185.989.479 1.335.294.347.702.519 1.222.519.415 0 .77-.051 1.066-.151.296-.101.582-.247.857-.438l.495 1.012c-.258.23-.601.425-1.028.582-.427.154-.921.23-1.484.23zm-.178-5.891c-.381 0-.694.15-.939.454-.245.303-.398.687-.457 1.151l.013.032h2.723v-.159c0-.436-.111-.791-.333-1.065-.222-.275-.558-.413-1.007-.413zM112.33 148.337l-.66-.025c-.3 0-.551.064-.752.191s-.356.307-.466.539v4.772h-1.542v-6.868h1.409l.102.997c.173-.353.396-.627.67-.825.272-.199.587-.299.942-.299.093 0 .18.008.26.021.08.015.154.033.222.055l-.185 1.442zM116.354 153.949c-.973 0-1.749-.318-2.326-.955-.578-.637-.867-1.453-.867-2.453v-.254c0-.998.287-1.826.86-2.484.574-.658 1.292-.984 2.155-.98.927 0 1.637.28 2.13.842.493.561.739 1.312.739 2.256v.908h-4.285l-.013.031c.025.544.185.989.479 1.335.294.347.702.519 1.222.519.415 0 .77-.051 1.066-.151.296-.101.582-.247.857-.438l.495 1.012c-.258.23-.601.425-1.028.582-.427.154-.921.23-1.484.23zm-.177-5.891c-.381 0-.694.15-.939.454-.245.303-.398.687-.457 1.151l.013.032h2.723v-.159c0-.436-.111-.791-.333-1.065-.223-.275-.559-.413-1.007-.413zM121.687 146.949l.089.989c.224-.353.507-.625.848-.821.34-.197.725-.296 1.152-.296.715 0 1.273.218 1.672.65.4.434.6 1.11.6 2.028v4.315h-1.542v-4.304c0-.518-.107-.885-.32-1.102-.214-.219-.539-.328-.975-.328a1.61 1.61 0 00-1.39.75v4.982h-1.542v-6.868h1.408v.005zM129.297 145.265h-1.542v-1.352h1.542v1.352zm0 8.551h-1.542v-6.867h1.542v6.867zM132.941 145.279v1.67h1.231v1.143h-1.231v3.796c0 .282.062.485.184.606.123.119.286.18.489.18.084 0 .167-.008.248-.021.081-.014.157-.033.229-.061l.165 1.13a1.794 1.794 0 01-.47.169c-.182.04-.37.061-.565.061-.567 0-1.011-.166-1.333-.498-.322-.332-.482-.854-.482-1.564v-3.797h-1.047v-1.143h1.047v-1.668h1.535v-.003zM137.822 151.061l.152.687h.038l1.504-4.799h1.688l-2.844 7.908a3.515 3.515 0 01-.768 1.225c-.33.34-.798.508-1.403.508-.127 0-.264-.012-.409-.036a5.138 5.138 0 01-.422-.091l.171-1.192.235.021c.102.008.178.013.229.013.279 0 .502-.095.669-.286a2.41 2.41 0 00.41-.66l.254-.621-2.495-6.785h1.682l1.309 4.108zM146.893 147.835c.229-.32.507-.57.835-.748s.69-.268 1.088-.268c.728 0 1.296.229 1.705.688.408.459.612 1.168.612 2.123v4.185h-1.542v-4.194c0-.543-.108-.935-.324-1.176-.216-.24-.54-.361-.971-.361a1.673 1.673 0 00-1.403.706v5.027h-1.542v-9.902h1.542v3.92zM156.865 153.816a5.426 5.426 0 01-.136-.508 3.52 3.52 0 01-.073-.495c-.211.321-.49.592-.835.81a2.114 2.114 0 01-1.158.326c-.715 0-1.264-.184-1.647-.552-.383-.368-.574-.874-.574-1.517 0-.666.262-1.184.787-1.553.525-.371 1.263-.556 2.215-.556h1.2v-.604c0-.358-.106-.641-.317-.844s-.514-.305-.908-.305c-.351 0-.63.084-.838.254a.802.802 0 00-.311.652h-1.485l-.006-.037c-.03-.542.212-1.021.727-1.441.514-.418 1.184-.628 2.009-.628.8 0 1.445.203 1.936.609.491.405.736.989.736 1.752v3.054c0 .283.019.555.057.814.038.261.1.516.184.766h-1.563v.003zm-1.891-1.106c.389 0 .74-.098 1.05-.291.312-.194.518-.418.619-.666v-1.017h-1.225c-.449 0-.8.11-1.054.333-.254.223-.381.482-.381.784 0 .263.085.472.257.625.172.156.416.232.734.232zM163.664 151.951a.72.72 0 00-.305-.592c-.203-.156-.582-.294-1.136-.412-.821-.174-1.442-.42-1.863-.738-.421-.319-.632-.756-.632-1.306 0-.575.243-1.065.73-1.473s1.128-.609 1.923-.609c.838 0 1.503.206 1.996.619.493.412.729.923.708 1.532l-.013.039h-1.479a.966.966 0 00-.324-.73c-.216-.203-.512-.305-.889-.305-.373 0-.656.084-.851.251a.776.776 0 00-.292.612c0 .24.092.433.276.574.184.142.557.268 1.12.377.863.179 1.503.43 1.92.752.417.324.625.766.625 1.324 0 .617-.255 1.119-.765 1.504s-1.182.578-2.015.578c-.893 0-1.598-.229-2.114-.687-.516-.457-.762-.981-.736-1.574l.013-.037h1.435c.017.397.161.688.432.869.271.181.601.272.99.272.398 0 .705-.076.92-.229s.326-.354.326-.611zM171.719 145.279v1.67h1.231v1.143h-1.231v3.796c0 .282.062.485.184.606.123.119.286.18.489.18.084 0 .167-.008.248-.021s.157-.033.229-.061l.165 1.13c-.131.071-.288.129-.47.169s-.37.061-.565.061c-.567 0-1.011-.166-1.333-.498s-.482-.854-.482-1.564v-3.797h-1.047v-1.143h1.047v-1.668h1.535v-.003zM178.453 153.816a5.753 5.753 0 01-.136-.508 3.52 3.52 0 01-.073-.495c-.211.321-.49.592-.835.81a2.114 2.114 0 01-1.158.326c-.715 0-1.264-.184-1.647-.552s-.574-.874-.574-1.517c0-.666.262-1.184.787-1.553.525-.371 1.263-.556 2.215-.556h1.2v-.604c0-.358-.106-.641-.317-.844s-.514-.305-.908-.305c-.351 0-.63.084-.838.254a.802.802 0 00-.311.652h-1.485l-.006-.037c-.03-.542.212-1.021.727-1.441.514-.418 1.184-.628 2.009-.628.8 0 1.445.203 1.937.609.49.405.736.989.736 1.752v3.054c0 .283.019.555.057.814.038.261.1.516.184.766h-1.564v.003zm-1.891-1.106c.389 0 .74-.098 1.05-.291.312-.194.518-.418.619-.666v-1.017h-1.225c-.449 0-.8.11-1.054.333s-.381.482-.381.784c0 .263.085.472.257.625.172.156.417.232.734.232zM183.627 150.814h-.691v3.002h-1.537v-9.902h1.537v5.662h.641l1.732-2.627h1.816l-2.267 3.122 2.603 3.745h-1.79l-2.044-3.002zM191.009 153.949c-.974 0-1.749-.318-2.326-.955-.578-.637-.867-1.453-.867-2.453v-.254c0-.998.287-1.826.86-2.484.573-.658 1.292-.984 2.155-.98.927 0 1.637.28 2.13.842.493.561.739 1.312.739 2.256v.908h-4.285l-.012.031c.025.544.185.989.479 1.335.294.347.701.519 1.223.519.414 0 .77-.051 1.066-.151.296-.103.581-.247.856-.438l.495 1.012c-.258.23-.601.425-1.028.582-.427.154-.923.23-1.485.23zm-.178-5.891c-.381 0-.694.15-.939.454-.245.303-.397.687-.457 1.151l.013.032h2.724v-.159c0-.436-.111-.791-.334-1.065-.223-.275-.559-.413-1.007-.413zM196.341 146.949l.089.989c.225-.353.507-.625.848-.821a2.26 2.26 0 011.151-.296c.716 0 1.273.218 1.673.65.4.434.601 1.11.601 2.028v4.315h-1.543v-4.304c0-.518-.106-.885-.32-1.102-.214-.219-.539-.328-.975-.328a1.613 1.613 0 00-1.391.75v4.982h-1.542v-6.868h1.409v.005zM27.83 168.611c0 .998-.235 1.805-.705 2.418s-1.124.92-1.961.92c-.389 0-.734-.068-1.035-.209a2.127 2.127 0 01-.774-.615v3.332h-1.542v-9.508h1.301l.152.862c.22-.321.486-.567.796-.735.312-.17.672-.255 1.083-.255.846 0 1.505.335 1.977 1.007.472.67.708 1.555.708 2.649v.134zm-1.536-.137c0-.702-.132-1.275-.396-1.723-.265-.444-.659-.668-1.184-.668-.322 0-.595.068-.819.205-.224.139-.404.33-.54.574v3.1c.135.242.315.427.54.556s.501.192.832.192c.525 0 .917-.192 1.177-.58.261-.387.391-.895.391-1.523l-.001-.133zM28.89 168.318c0-1.02.279-1.857.838-2.514.567-.655 1.335-.983 2.304-.983.986 0 1.758.328 2.317.983.563.652.844 1.49.844 2.514v.135c0 1.031-.281 1.875-.844 2.525-.559.646-1.327.971-2.304.971-.982 0-1.754-.324-2.317-.977-.559-.652-.838-1.492-.838-2.521v-.133zm1.543.131c0 .668.131 1.213.394 1.635.258.42.665.629 1.219.629.538 0 .939-.209 1.206-.629.271-.422.406-.967.406-1.635v-.134c0-.653-.135-1.192-.406-1.616-.267-.427-.673-.641-1.219-.641-.538 0-.939.214-1.206.641-.262.428-.394.967-.394 1.616v.134zM40.398 169.951a.72.72 0 00-.305-.592c-.203-.156-.582-.294-1.136-.412-.821-.174-1.442-.42-1.863-.738-.421-.319-.632-.756-.632-1.306 0-.575.243-1.065.73-1.473.487-.407 1.128-.609 1.923-.609.838 0 1.503.206 1.996.619.493.412.729.923.708 1.532l-.013.039h-1.479c0-.284-.108-.527-.324-.73s-.512-.305-.889-.305c-.373 0-.656.084-.851.251a.776.776 0 00-.292.612c0 .24.092.433.276.574s.557.268 1.12.377c.863.179 1.503.43 1.92.752.417.324.625.766.625 1.324 0 .617-.255 1.119-.765 1.504s-1.182.578-2.015.578c-.893 0-1.598-.229-2.114-.687s-.762-.981-.736-1.574l.013-.037h1.435c.017.397.161.688.432.869s.601.272.99.272c.398 0 .705-.076.92-.229a.71.71 0 00.326-.611zM47.159 169.951a.72.72 0 00-.305-.592c-.203-.156-.582-.294-1.136-.412-.821-.174-1.442-.42-1.863-.738-.421-.319-.632-.756-.632-1.306 0-.575.243-1.065.73-1.473.487-.407 1.128-.609 1.923-.609.838 0 1.503.206 1.996.619.493.412.729.923.708 1.532l-.013.039h-1.479a.966.966 0 00-.324-.73c-.216-.203-.512-.305-.889-.305-.373 0-.656.084-.851.251a.776.776 0 00-.292.612c0 .24.092.433.276.574.184.142.557.268 1.12.377.863.179 1.503.43 1.92.752.417.324.625.766.625 1.324 0 .617-.255 1.119-.765 1.504s-1.182.578-2.015.578c-.893 0-1.598-.229-2.114-.687-.516-.457-.762-.981-.736-1.574l.013-.037h1.435c.017.397.161.688.432.869s.601.272.99.272c.398 0 .705-.076.92-.229s.326-.354.326-.611zM53.005 171.949c-.973 0-1.749-.318-2.326-.955-.578-.637-.867-1.453-.867-2.453v-.254c0-.998.287-1.826.86-2.484.574-.658 1.292-.984 2.155-.98.927 0 1.637.28 2.13.842.493.561.739 1.312.739 2.256v.908h-4.285l-.013.031c.025.544.185.989.479 1.335.294.347.702.519 1.222.519.415 0 .77-.051 1.066-.151s.582-.247.857-.438l.495 1.012c-.258.23-.601.425-1.028.582-.427.154-.921.23-1.484.23zm-.178-5.891c-.381 0-.694.15-.939.454-.245.303-.398.687-.457 1.151l.013.032h2.723v-.159c0-.436-.111-.791-.333-1.065-.223-.275-.558-.413-1.007-.413zM60.8 169.951a.72.72 0 00-.305-.592c-.203-.156-.582-.294-1.136-.412-.821-.174-1.442-.42-1.863-.738-.421-.319-.632-.756-.632-1.306 0-.575.243-1.065.73-1.473.487-.407 1.128-.609 1.923-.609.838 0 1.503.206 1.996.619.493.412.729.923.708 1.532l-.013.039H60.73a.966.966 0 00-.324-.73c-.216-.203-.512-.305-.889-.305-.373 0-.656.084-.851.251s-.292.371-.292.612c0 .24.092.433.276.574s.557.268 1.12.377c.863.179 1.503.43 1.92.752.417.324.625.766.625 1.324 0 .617-.255 1.119-.765 1.504s-1.182.578-2.015.578c-.893 0-1.598-.229-2.114-.687s-.762-.981-.736-1.574l.013-.037h1.435c.017.397.161.688.432.869s.601.272.99.272c.398 0 .705-.076.92-.229a.71.71 0 00.325-.611zM67.56 169.951a.72.72 0 00-.305-.592c-.203-.156-.582-.294-1.136-.412-.821-.174-1.442-.42-1.863-.738-.421-.319-.632-.756-.632-1.306 0-.575.243-1.065.73-1.473s1.128-.609 1.923-.609c.838 0 1.503.206 1.996.619.493.412.729.923.708 1.532l-.013.039H67.49c0-.284-.108-.527-.324-.73s-.512-.305-.889-.305c-.373 0-.656.084-.851.251a.776.776 0 00-.292.612c0 .24.092.433.276.574s.557.268 1.12.377c.863.179 1.503.43 1.92.752.417.324.625.766.625 1.324 0 .617-.255 1.119-.765 1.504s-1.182.578-2.015.578c-.893 0-1.598-.229-2.114-.687-.516-.457-.762-.981-.736-1.574l.013-.037h1.435c.017.397.161.688.432.869s.601.272.99.272c.398 0 .705-.076.92-.229a.71.71 0 00.325-.611zM72.105 163.265h-1.542v-1.352h1.542v1.352zm0 8.551h-1.542v-6.867h1.542v6.867zM73.546 168.318c0-1.02.279-1.857.838-2.514.567-.655 1.335-.983 2.304-.983.986 0 1.758.328 2.317.983.563.652.844 1.49.844 2.514v.135c0 1.031-.281 1.875-.844 2.525-.559.646-1.327.971-2.304.971-.982 0-1.754-.324-2.317-.977-.559-.652-.838-1.492-.838-2.521v-.133zm1.542.131c0 .668.131 1.213.394 1.635.258.42.665.629 1.219.629.538 0 .939-.209 1.206-.629.271-.422.406-.967.406-1.635v-.134c0-.653-.135-1.192-.406-1.616-.267-.427-.673-.641-1.219-.641-.538 0-.939.214-1.206.641-.262.428-.394.967-.394 1.616v.134zM82.591 164.949l.089.989c.224-.353.507-.625.848-.821.34-.197.725-.296 1.152-.296.715 0 1.273.218 1.672.65.4.434.6 1.11.6 2.028v4.315H85.41v-4.304c0-.518-.107-.885-.32-1.102-.214-.219-.539-.328-.975-.328a1.61 1.61 0 00-1.39.75v4.982h-1.542v-6.868h1.408v.005zM91.51 168.318c0-1.02.279-1.857.838-2.514.567-.655 1.335-.983 2.304-.983.986 0 1.758.328 2.317.983.563.652.844 1.49.844 2.514v.135c0 1.031-.281 1.875-.844 2.525-.559.646-1.327.971-2.304.971-.982 0-1.754-.324-2.317-.977-.559-.652-.838-1.492-.838-2.521v-.133zm1.542.131c0 .668.131 1.213.394 1.635.258.42.665.629 1.219.629.538 0 .939-.209 1.206-.629.271-.422.406-.967.406-1.635v-.134c0-.653-.135-1.192-.406-1.616-.267-.427-.673-.641-1.219-.641-.538 0-.939.214-1.206.641-.262.428-.394.967-.394 1.616v.134zM99.66 171.816v-5.727h-1.047v-1.143h1.047v-.8c0-.758.207-1.342.619-1.752.413-.41.992-.615 1.736-.615.148 0 .298.011.451.034.153.023.324.057.514.1l-.159 1.192c-.084-.017-.179-.03-.283-.045a2.68 2.68 0 00-.333-.019c-.334 0-.585.094-.752.285-.167.189-.251.463-.251.818v.8h1.396v1.144h-1.396v5.726l-1.542.002zM108.369 164.949l.083.895a2.35 2.35 0 01.844-.756c.338-.178.73-.267 1.174-.267.449 0 .833.103 1.155.306s.563.508.724.914c.211-.381.491-.68.838-.896.347-.215.753-.323 1.219-.323.69 0 1.235.236 1.634.708.4.473.6 1.188.6 2.148v4.139h-1.542v-4.145c0-.584-.101-.996-.302-1.232-.201-.236-.502-.355-.904-.355-.33 0-.609.09-.838.269a1.476 1.476 0 00-.495.717c0 .063.002.118.006.165s.006.092.006.135v4.448h-1.542v-4.146c0-.562-.103-.969-.308-1.215-.205-.248-.506-.373-.904-.373-.313 0-.579.062-.797.183a1.33 1.33 0 00-.517.511v5.04h-1.542v-6.868h1.408v-.002zM120.544 169.061l.152.687h.038l1.504-4.799h1.688l-2.844 7.908a3.515 3.515 0 01-.768 1.225c-.33.34-.798.508-1.403.508-.127 0-.264-.012-.409-.036a5.138 5.138 0 01-.422-.091l.171-1.192.235.021c.102.008.178.013.229.013.279 0 .502-.095.669-.286a2.41 2.41 0 00.41-.66l.254-.621-2.495-6.785h1.682l1.309 4.108zM131.037 171.949c-.973 0-1.749-.318-2.326-.955-.578-.637-.867-1.453-.867-2.453v-.254c0-.998.287-1.826.86-2.484.574-.658 1.292-.984 2.155-.98.927 0 1.637.28 2.13.842.493.561.739 1.312.739 2.256v.908h-4.285l-.013.031c.025.544.185.989.479 1.335.294.347.702.519 1.222.519.415 0 .77-.051 1.066-.151.296-.101.582-.247.857-.438l.495 1.012c-.258.23-.601.425-1.028.582-.427.154-.921.23-1.484.23zm-.178-5.891c-.381 0-.694.15-.939.454-.245.303-.398.687-.457 1.151l.013.032h2.723v-.159c0-.436-.111-.791-.333-1.065-.223-.275-.558-.413-1.007-.413zM136.369 164.949l.089.989c.224-.353.507-.625.848-.821.34-.197.725-.296 1.152-.296.715 0 1.273.218 1.672.65.4.434.6 1.11.6 2.028v4.315h-1.542v-4.304c0-.518-.107-.885-.32-1.102-.214-.219-.539-.328-.975-.328a1.61 1.61 0 00-1.39.75v4.982h-1.542v-6.868h1.408v.005zM144.252 163.279v1.67h1.231v1.143h-1.231v3.796c0 .282.062.485.184.606.123.119.286.18.489.18.084 0 .167-.008.248-.021s.157-.033.229-.061l.165 1.13a1.794 1.794 0 01-.47.169c-.182.04-.37.061-.565.061-.567 0-1.011-.166-1.333-.498-.322-.332-.482-.854-.482-1.564v-3.797h-1.047v-1.143h1.047v-1.668h1.535v-.003zM148.499 163.265h-1.542v-1.352h1.542v1.352zm0 8.551h-1.542v-6.867h1.542v6.867zM153.647 166.337l-.66-.025c-.3 0-.551.064-.752.191a1.256 1.256 0 00-.466.539v4.772h-1.542v-6.868h1.409l.102.997c.173-.353.396-.627.67-.825.272-.199.587-.299.942-.299.093 0 .18.008.26.021.08.015.154.033.222.055l-.185 1.442zM157.671 171.949c-.973 0-1.749-.318-2.326-.955-.578-.637-.867-1.453-.867-2.453v-.254c0-.998.287-1.826.86-2.484.574-.658 1.292-.984 2.155-.98.927 0 1.637.28 2.13.842.493.561.739 1.312.739 2.256v.908h-4.285l-.013.031c.025.544.185.989.479 1.335.294.347.702.519 1.222.519.415 0 .77-.051 1.066-.151s.582-.247.857-.438l.495 1.012c-.258.23-.601.425-1.028.582-.427.154-.921.23-1.484.23zm-.177-5.891c-.381 0-.694.15-.939.454-.245.303-.398.687-.457 1.151l.013.032h2.723v-.159c0-.436-.111-.791-.333-1.065-.223-.275-.559-.413-1.007-.413zM168.704 169.951a.72.72 0 00-.305-.592c-.203-.156-.582-.294-1.136-.412-.821-.174-1.442-.42-1.863-.738-.421-.319-.632-.756-.632-1.306 0-.575.243-1.065.73-1.473.487-.407 1.128-.609 1.923-.609.838 0 1.503.206 1.996.619.493.412.729.923.708 1.532l-.013.039h-1.479a.966.966 0 00-.324-.73c-.216-.203-.512-.305-.889-.305-.373 0-.656.084-.851.251a.776.776 0 00-.292.612c0 .24.092.433.276.574.184.142.557.268 1.12.377.863.179 1.503.43 1.92.752.417.324.625.766.625 1.324 0 .617-.255 1.119-.765 1.504s-1.182.578-2.015.578c-.893 0-1.598-.229-2.114-.687-.516-.457-.762-.981-.736-1.574l.013-.037h1.435c.017.397.161.688.432.869s.601.272.99.272c.398 0 .705-.076.92-.229s.326-.354.326-.611zM171.319 168.318c0-1.02.279-1.857.838-2.514.567-.655 1.335-.983 2.304-.983.986 0 1.758.328 2.317.983.563.652.844 1.49.844 2.514v.135c0 1.031-.281 1.875-.844 2.525-.559.646-1.327.971-2.304.971-.982 0-1.754-.324-2.317-.977-.559-.652-.838-1.492-.838-2.521v-.133zm1.542.131c0 .668.131 1.213.394 1.635.258.42.665.629 1.219.629.538 0 .939-.209 1.206-.629.271-.422.406-.967.406-1.635v-.134c0-.653-.135-1.192-.406-1.616-.267-.427-.673-.641-1.219-.641-.538 0-.939.214-1.206.641-.262.428-.394.967-.394 1.616v.134zM183.246 170.813a2.337 2.337 0 01-.819.841c-.33.197-.711.295-1.143.295-.736 0-1.312-.234-1.727-.703-.414-.471-.621-1.201-.621-2.19v-4.106h1.535v4.12c0 .601.098 1.021.293 1.263.194.242.488.362.882.362.372 0 .685-.067.937-.2a1.46 1.46 0 00.594-.58v-4.965h1.542v6.868h-1.346l-.127-1.005zM187.976 171.816h-1.543v-9.902h1.543v9.902zM191.193 171.619l-.984 1.98h-.978l.444-2.037v-1.257h1.518v1.314zM197.516 171.816h-1.543v-9.902h1.543v9.902zM200.887 163.265h-1.543v-1.352h1.543v1.352zm0 8.551h-1.543v-6.867h1.543v6.867zM204.848 168.814h-.69v3.002h-1.537v-9.902h1.537v5.662h.641l1.731-2.627h1.816l-2.267 3.122 2.603 3.745h-1.789l-2.045-3.002zM212.23 171.949c-.975 0-1.75-.318-2.326-.955-.578-.637-.867-1.453-.867-2.453v-.254c0-.998.287-1.826.859-2.484.574-.658 1.293-.984 2.155-.98.927 0 1.638.28 2.13.842.493.561.739 1.312.739 2.256v.908h-4.285l-.012.031c.024.544.185.989.479 1.335.293.347.701.519 1.223.519.414 0 .77-.051 1.066-.151.295-.103.58-.247.855-.438l.495 1.012c-.259.23-.601.425-1.028.582-.425.154-.92.23-1.483.23zm-.177-5.891c-.381 0-.693.15-.939.454-.244.303-.396.687-.456 1.151l.013.032h2.725v-.159c0-.436-.111-.791-.334-1.065-.225-.275-.561-.413-1.009-.413zM221.318 163.279v1.67h1.231v1.143h-1.231v3.796c0 .282.062.485.186.606a.67.67 0 00.488.18c.085 0 .167-.008.248-.021.08-.015.156-.033.229-.061l.164 1.13a1.786 1.786 0 01-.469.169 2.64 2.64 0 01-.564.061c-.567 0-1.013-.166-1.334-.498-.32-.332-.481-.854-.481-1.564v-3.797h-1.048v-1.143h1.048v-1.668h1.534v-.003zM225.445 165.835c.229-.32.507-.57.834-.748a2.248 2.248 0 011.09-.268c.729 0 1.296.229 1.704.688.407.459.612 1.168.612 2.123v4.185h-1.543v-4.194c0-.543-.107-.935-.324-1.176-.215-.24-.539-.361-.971-.361a1.678 1.678 0 00-1.405.706v5.027H223.9v-9.902h1.543v3.922h.002zM234.23 171.949c-.975 0-1.75-.318-2.326-.955-.578-.637-.867-1.453-.867-2.453v-.254c0-.998.287-1.826.859-2.484.574-.658 1.293-.984 2.155-.98.927 0 1.638.28 2.13.842.493.561.739 1.312.739 2.256v.908h-4.285l-.012.031c.024.544.185.989.479 1.335.293.347.701.519 1.223.519.414 0 .77-.051 1.066-.151.295-.103.58-.247.855-.438l.495 1.012c-.259.23-.601.425-1.028.582-.425.154-.92.23-1.483.23zm-.177-5.891c-.381 0-.693.15-.939.454-.244.303-.396.687-.456 1.151l.013.032h2.725v-.159c0-.436-.111-.791-.334-1.065-.225-.275-.561-.413-1.009-.413zM242.025 169.951a.723.723 0 00-.305-.592c-.203-.156-.582-.294-1.138-.412-.819-.174-1.44-.42-1.862-.738-.421-.319-.632-.756-.632-1.306 0-.575.243-1.065.729-1.473.486-.406 1.127-.609 1.924-.609.838 0 1.503.206 1.996.619.492.412.729.923.707 1.532l-.012.039h-1.479a.962.962 0 00-.323-.73c-.216-.203-.512-.305-.889-.305-.372 0-.656.084-.852.251s-.291.371-.291.612c0 .24.092.433.275.574s.559.268 1.12.377c.862.179 1.503.43 1.92.752.417.324.626.766.626 1.324 0 .617-.256 1.119-.766 1.504s-1.183.578-2.017.578c-.893 0-1.597-.229-2.112-.687-.517-.457-.763-.981-.736-1.574l.013-.037h1.435c.018.397.162.688.433.869s.601.272.989.272c.397 0 .705-.076.921-.229a.7.7 0 00.326-.611zM247.873 171.949c-.975 0-1.749-.318-2.326-.955-.578-.637-.867-1.453-.867-2.453v-.254c0-.998.287-1.826.86-2.484s1.292-.984 2.155-.98c.927 0 1.637.28 2.13.842.493.561.739 1.312.739 2.256v.908h-4.285l-.012.031c.024.544.185.989.479 1.335.294.347.701.519 1.223.519.414 0 .771-.051 1.066-.151.296-.103.581-.247.855-.438l.496 1.012c-.259.23-.602.425-1.029.582-.425.154-.921.23-1.484.23zm-.178-5.891c-.381 0-.694.15-.939.454-.244.303-.396.687-.457 1.151l.014.032h2.724v-.159c0-.436-.111-.791-.334-1.065-.224-.275-.558-.413-1.008-.413zM25.672 187.951a.72.72 0 00-.305-.592c-.203-.156-.582-.294-1.136-.412-.821-.174-1.442-.42-1.863-.738-.421-.319-.632-.756-.632-1.306 0-.575.243-1.065.73-1.473.487-.407 1.128-.609 1.923-.609.838 0 1.503.206 1.996.619.493.412.729.923.708 1.532l-.013.039h-1.479a.966.966 0 00-.324-.73c-.216-.203-.512-.305-.889-.305-.373 0-.656.084-.851.251a.776.776 0 00-.292.612c0 .24.092.433.276.574s.557.268 1.12.377c.863.179 1.503.43 1.92.752.417.324.625.766.625 1.324 0 .617-.255 1.119-.765 1.504s-1.182.578-2.015.578c-.893 0-1.598-.229-2.114-.687s-.762-.981-.736-1.574l.013-.037h1.435c.017.397.161.688.432.869s.601.272.99.272c.398 0 .705-.076.92-.229a.71.71 0 00.326-.611zM34.616 187.835l.038-.006 1.073-4.883h1.479l-1.879 6.868h-1.263l-1.46-4.69-.013-.062-.006.062-1.447 4.69h-1.263l-1.879-6.868h1.479l1.098 4.812.038.006 1.428-4.816h1.124l1.453 4.887zM41.23 189.949c-.973 0-1.749-.318-2.326-.955-.578-.637-.867-1.453-.867-2.453v-.254c0-.998.287-1.826.86-2.484.574-.658 1.292-.984 2.155-.98.927 0 1.637.28 2.13.842.493.561.739 1.312.739 2.256v.908h-4.285l-.013.031c.025.544.185.989.479 1.335.294.347.702.519 1.222.519.415 0 .77-.051 1.066-.151s.582-.247.857-.438l.495 1.012c-.258.23-.601.425-1.028.582-.427.154-.921.23-1.484.23zm-.178-5.891c-.381 0-.694.15-.939.454-.245.303-.398.687-.457 1.151l.013.032h2.723v-.159c0-.436-.111-.791-.333-1.065-.223-.275-.558-.413-1.007-.413zM48.111 189.949c-.973 0-1.749-.318-2.326-.955-.578-.637-.867-1.453-.867-2.453v-.254c0-.998.287-1.826.86-2.484.574-.658 1.292-.984 2.155-.98.927 0 1.637.28 2.13.842.493.561.739 1.312.739 2.256v.908h-4.285l-.013.031c.025.544.185.989.479 1.335.294.347.702.519 1.222.519.415 0 .77-.051 1.066-.151s.582-.247.857-.438l.495 1.012c-.258.23-.601.425-1.028.582-.427.154-.921.23-1.484.23zm-.178-5.891c-.381 0-.694.15-.939.454-.245.303-.398.687-.457 1.151l.013.032h2.723v-.159c0-.436-.111-.791-.333-1.065-.223-.275-.558-.413-1.007-.413zM53.963 181.279v1.67h1.231v1.143h-1.231v3.796c0 .282.062.485.184.606.123.119.286.18.489.18.084 0 .167-.008.248-.021.081-.014.157-.033.229-.061l.165 1.13c-.131.071-.288.129-.47.169s-.37.061-.565.061c-.567 0-1.011-.166-1.333-.498-.322-.332-.482-.854-.482-1.564v-3.797H51.38v-1.143h1.047v-1.668h1.536v-.003zM61.212 182.949l.083.895a2.35 2.35 0 01.844-.756c.338-.178.73-.267 1.174-.267.449 0 .833.103 1.155.306.322.203.563.508.724.914.211-.381.491-.68.838-.896.347-.215.753-.323 1.219-.323.69 0 1.235.236 1.634.708.4.473.6 1.188.6 2.148v4.139h-1.542v-4.145c0-.584-.101-.996-.302-1.232-.201-.236-.502-.355-.904-.355-.33 0-.609.09-.838.269a1.476 1.476 0 00-.495.717c0 .063.002.118.006.165.004.047.006.092.006.135v4.448h-1.542v-4.146c0-.562-.103-.969-.308-1.215-.205-.248-.506-.373-.904-.373-.313 0-.579.062-.797.183a1.33 1.33 0 00-.517.511v5.04h-1.542v-6.868h1.408v-.002zM70.823 186.318c0-1.02.279-1.857.838-2.514.567-.655 1.335-.983 2.304-.983.986 0 1.758.328 2.317.983.563.652.844 1.49.844 2.514v.135c0 1.031-.281 1.875-.844 2.525-.559.646-1.327.971-2.304.971-.982 0-1.754-.324-2.317-.977-.559-.652-.838-1.492-.838-2.521v-.133zm1.542.131c0 .668.131 1.213.394 1.635.258.42.665.629 1.219.629.538 0 .939-.209 1.206-.629.271-.422.406-.967.406-1.635v-.134c0-.653-.135-1.192-.406-1.616-.267-.427-.673-.641-1.219-.641-.538 0-.939.214-1.206.641-.262.428-.394.967-.394 1.616v.134zM81.893 184.337l-.66-.025c-.3 0-.551.064-.752.191s-.356.307-.466.539v4.772h-1.542v-6.868h1.409l.102.997c.173-.353.396-.627.67-.825.272-.199.587-.299.942-.299.093 0 .18.008.26.021.08.015.154.033.222.055l-.185 1.442zM84.369 182.949l.089.989c.224-.353.507-.625.848-.821.34-.197.725-.296 1.152-.296.715 0 1.273.218 1.672.65.4.434.6 1.11.6 2.028v4.315h-1.542v-4.304c0-.518-.107-.885-.32-1.102-.214-.219-.539-.328-.975-.328a1.61 1.61 0 00-1.39.75v4.982h-1.542v-6.868h1.408v.005zM91.979 181.265h-1.542v-1.352h1.542v1.352zm0 8.551h-1.542v-6.867h1.542v6.867zM95.103 182.949l.089.989c.224-.353.507-.625.848-.821.34-.197.725-.296 1.152-.296.715 0 1.273.218 1.672.65.4.434.6 1.11.6 2.028v4.315h-1.542v-4.304c0-.518-.107-.885-.32-1.102-.214-.219-.539-.328-.975-.328a1.61 1.61 0 00-1.39.75v4.982h-1.542v-6.868h1.408v.005zM100.79 186.477c0-1.093.239-1.974.717-2.647.478-.672 1.143-1.009 1.993-1.009.411 0 .771.089 1.083.265a2.3 2.3 0 01.79.758l.152-.895h1.282v6.867c0 .885-.273 1.568-.819 2.051-.546.483-1.32.723-2.323.723-.334 0-.695-.047-1.083-.143a5.044 5.044 0 01-1.05-.377l.33-1.213a3.89 3.89 0 001.79.419c.559 0 .967-.118 1.225-.358.258-.238.387-.605.387-1.102v-.705c-.216.275-.471.484-.765.626s-.631.212-1.012.212c-.842 0-1.502-.307-1.98-.92s-.717-1.42-.717-2.418v-.134zm1.543.134c0 .631.126 1.135.377 1.514.252.379.643.568 1.171.568.33 0 .608-.068.834-.207.227-.138.41-.335.549-.594v-3.008a1.654 1.654 0 00-.555-.588 1.499 1.499 0 00-.816-.213c-.529 0-.921.223-1.177.666-.256.444-.384 1.021-.384 1.728l.001.134zM112.292 187.951a.72.72 0 00-.305-.592c-.203-.156-.582-.294-1.136-.412-.821-.174-1.442-.42-1.863-.738-.421-.319-.632-.756-.632-1.306 0-.575.243-1.065.73-1.473.487-.407 1.128-.609 1.923-.609.838 0 1.503.206 1.996.619.493.412.729.923.708 1.532l-.013.039h-1.479c0-.284-.108-.527-.324-.73s-.512-.305-.889-.305c-.373 0-.656.084-.851.251a.776.776 0 00-.292.612c0 .24.092.433.276.574s.557.268 1.12.377c.863.179 1.503.43 1.92.752.417.324.625.766.625 1.324 0 .617-.255 1.119-.765 1.504s-1.182.578-2.015.578c-.893 0-1.598-.229-2.114-.687s-.762-.981-.736-1.574l.013-.037h1.435c.017.397.161.688.432.869s.601.272.99.272c.398 0 .705-.076.92-.229a.71.71 0 00.326-.611zM118.145 186.318c0-1.02.279-1.857.838-2.514.567-.655 1.335-.983 2.304-.983.986 0 1.758.328 2.317.983.563.652.844 1.49.844 2.514v.135c0 1.031-.281 1.875-.844 2.525-.559.646-1.327.971-2.304.971-.982 0-1.754-.324-2.317-.977-.559-.652-.838-1.492-.838-2.521v-.133zm1.542.131c0 .668.131 1.213.394 1.635.258.42.665.629 1.219.629.538 0 .939-.209 1.206-.629.271-.422.406-.967.406-1.635v-.134c0-.653-.135-1.192-.406-1.616-.267-.427-.673-.641-1.219-.641-.538 0-.939.214-1.206.641-.262.428-.394.967-.394 1.616v.134zM126.295 189.816v-5.727h-1.047v-1.143h1.047v-.8c0-.758.207-1.342.619-1.752.413-.41.992-.615 1.736-.615.148 0 .298.011.451.034s.324.057.514.1l-.159 1.192c-.084-.017-.179-.03-.283-.045a2.68 2.68 0 00-.333-.019c-.334 0-.585.094-.752.285-.167.189-.251.463-.251.818v.8h1.396v1.144h-1.396v5.726l-1.542.002zM137.454 187.951a.72.72 0 00-.305-.592c-.203-.156-.582-.294-1.136-.412-.821-.174-1.442-.42-1.863-.738-.421-.319-.632-.756-.632-1.306 0-.575.243-1.065.73-1.473.487-.407 1.128-.609 1.923-.609.838 0 1.503.206 1.996.619.493.412.729.923.708 1.532l-.013.039h-1.479a.966.966 0 00-.324-.73c-.216-.203-.512-.305-.889-.305-.373 0-.656.084-.851.251a.776.776 0 00-.292.612c0 .24.092.433.276.574.184.142.557.268 1.12.377.863.179 1.503.43 1.92.752.417.324.625.766.625 1.324 0 .617-.255 1.119-.765 1.504s-1.182.578-2.015.578c-.893 0-1.598-.229-2.114-.687-.516-.457-.762-.981-.736-1.574l.013-.037h1.435c.017.397.161.688.432.869s.601.272.99.272c.398 0 .705-.076.92-.229s.326-.354.326-.611zM146.373 186.611c0 .998-.235 1.805-.705 2.418-.47.613-1.124.92-1.961.92-.389 0-.734-.068-1.035-.209a2.127 2.127 0 01-.774-.615v3.332h-1.542v-9.508h1.301l.152.862c.22-.321.486-.567.796-.735.312-.17.672-.255 1.083-.255.846 0 1.505.335 1.977 1.007.472.67.708 1.555.708 2.649v.134zm-1.537-.137c0-.702-.132-1.275-.396-1.723-.265-.444-.659-.668-1.184-.668-.322 0-.595.068-.819.205-.224.139-.404.33-.54.574v3.1c.135.242.315.427.54.556s.501.192.832.192c.525 0 .917-.192 1.177-.58.261-.387.391-.895.391-1.523l-.001-.133zM151.14 184.337l-.66-.025c-.3 0-.551.064-.752.191s-.356.307-.466.539v4.772h-1.542v-6.868h1.409l.102.997c.173-.353.396-.627.67-.825.272-.199.587-.299.942-.299.093 0 .18.008.26.021.08.015.154.033.222.055l-.185 1.442zM153.863 181.265h-1.542v-1.352h1.542v1.352zm0 8.551h-1.542v-6.867h1.542v6.867zM156.986 182.949l.089.989c.224-.353.507-.625.848-.821.34-.197.725-.296 1.152-.296.715 0 1.273.218 1.672.65.4.434.6 1.11.6 2.028v4.315h-1.542v-4.304c0-.518-.107-.885-.32-1.102-.214-.219-.539-.328-.975-.328a1.61 1.61 0 00-1.39.75v4.982h-1.542v-6.868h1.408v.005zM162.673 186.477c0-1.093.239-1.974.717-2.647.478-.672 1.143-1.009 1.993-1.009.411 0 .771.089 1.083.265a2.3 2.3 0 01.79.758l.152-.895h1.282v6.867c0 .885-.273 1.568-.819 2.051-.546.483-1.32.723-2.323.723-.334 0-.695-.047-1.083-.143a5.044 5.044 0 01-1.05-.377l.33-1.213a3.89 3.89 0 001.79.419c.559 0 .967-.118 1.225-.358.258-.238.387-.605.387-1.102v-.705c-.216.275-.471.484-.765.626s-.631.212-1.012.212c-.842 0-1.502-.307-1.98-.92s-.717-1.42-.717-2.418v-.134zm1.543.134c0 .631.126 1.135.377 1.514.252.379.643.568 1.171.568.33 0 .608-.068.834-.207.227-.138.41-.335.549-.594v-3.008a1.654 1.654 0 00-.555-.588 1.499 1.499 0 00-.816-.213c-.529 0-.921.223-1.177.666-.256.444-.384 1.021-.384 1.728l.001.134zM179.596 187.835l.039-.006 1.072-4.883h1.479l-1.879 6.868h-1.264l-1.459-4.69-.013-.062-.006.062-1.447 4.69h-1.263l-1.879-6.868h1.479l1.098 4.812.038.006 1.428-4.816h1.124l1.453 4.887zM184.789 183.835c.229-.32.507-.57.835-.748s.69-.268 1.089-.268c.728 0 1.296.229 1.704.688s.612 1.168.612 2.123v4.185h-1.543v-4.194c0-.543-.107-.935-.323-1.176-.216-.24-.54-.361-.972-.361a1.666 1.666 0 00-1.403.706v5.027h-1.543v-9.902h1.543l.001 3.92zM192.273 181.265h-1.543v-1.352h1.543v1.352zm0 8.551h-1.543v-6.867h1.543v6.867zM196.838 188.71c.376 0 .693-.109.951-.33a1.05 1.05 0 00.388-.83h1.396l.013.037c.021.644-.24 1.197-.784 1.664-.544.465-1.198.697-1.964.697-1.012 0-1.787-.326-2.327-.978-.539-.652-.81-1.478-.81-2.478v-.222c0-.994.271-1.817.81-2.474.54-.652 1.315-.979 2.327-.979.824 0 1.494.24 2.009.722.514.479.763 1.09.745 1.83l-.012.039h-1.403c0-.377-.124-.697-.371-.959-.248-.263-.57-.395-.968-.395-.58 0-.99.211-1.232.631-.24.421-.361.947-.361 1.582v.223c0 .645.121 1.178.361 1.594.242.419.652.626 1.232.626zM202.348 183.835c.229-.32.507-.57.835-.748a2.24 2.24 0 011.088-.268c.729 0 1.297.229 1.705.688.407.459.611 1.168.611 2.123v4.185h-1.543v-4.194c0-.543-.107-.935-.322-1.176-.217-.24-.541-.361-.973-.361a1.666 1.666 0 00-1.403.706v5.027h-1.543v-9.902h1.543l.002 3.92zM213.253 189.816h-1.543v-9.242h1.543v9.242zM221.348 189.949c-.975 0-1.75-.318-2.326-.955-.578-.637-.867-1.453-.867-2.453v-.254c0-.998.287-1.826.859-2.484.573-.658 1.293-.984 2.155-.98.927 0 1.638.28 2.13.842.493.561.739 1.312.739 2.256v.908h-4.285l-.012.031c.024.544.185.989.479 1.335.293.347.7.519 1.223.519.414 0 .77-.051 1.065-.151.296-.103.581-.247.856-.438l.494 1.012c-.258.23-.601.425-1.027.582-.427.154-.922.23-1.483.23zm-.179-5.891c-.381 0-.694.15-.938.454-.246.303-.397.687-.457 1.151l.013.032h2.724v-.159c0-.436-.111-.791-.334-1.065-.224-.275-.56-.413-1.008-.413zM226.68 182.949l.088.989c.226-.353.508-.625.849-.821a2.26 2.26 0 011.151-.296c.715 0 1.272.218 1.672.65.4.434.602 1.11.602 2.028v4.315h-1.543v-4.304c0-.518-.105-.885-.32-1.102-.214-.219-.539-.328-.975-.328a1.613 1.613 0 00-1.391.75v4.982h-1.543v-6.868h1.41v.005zM234.359 182.949v7.268c0 .758-.196 1.343-.592 1.756-.393.412-.94.617-1.644.617-.151 0-.29-.008-.413-.024a2.957 2.957 0 01-.387-.082l.089-1.231a2.056 2.056 0 00.56.076c.262 0 .469-.09.618-.27.15-.18.226-.46.226-.842v-7.268h1.543zm-.039-1.684h-1.543v-1.352h1.543v1.352zM235.77 186.318c0-1.02.279-1.857.838-2.514.566-.655 1.336-.983 2.305-.983.986 0 1.759.328 2.316.983.562.652.845 1.49.845 2.514v.135c0 1.031-.281 1.875-.845 2.525-.559.646-1.326.971-2.305.971-.98 0-1.754-.324-2.316-.977-.559-.652-.838-1.492-.838-2.521v-.133zm1.542.131c0 .668.131 1.213.394 1.635.258.42.664.629 1.219.629.537 0 .938-.209 1.206-.629.271-.422.406-.967.406-1.635v-.134c0-.653-.137-1.192-.406-1.616-.268-.427-.673-.641-1.219-.641-.537 0-.939.214-1.206.641-.263.428-.394.967-.394 1.616v.134zM245.596 187.061l.152.687h.037l1.505-4.799h1.688l-2.845 7.908a3.515 3.515 0 01-.768 1.225c-.33.34-.798.508-1.403.508-.127 0-.264-.012-.408-.036a5.254 5.254 0 01-.423-.091l.171-1.192c.055.005.135.011.235.021.101.008.178.013.229.013.278 0 .502-.095.668-.286.168-.189.305-.41.41-.66l.254-.621-2.494-6.785h1.682l1.31 4.108z"/></g><path fill="#728027" d="M104.014 96.098H84.288l.741-4.614L95.98 79.457c1.466-1.788 2.554-3.342 3.264-4.659.71-1.317 1.16-2.526 1.351-3.629.239-1.549.175-2.763-.191-3.641-.366-.878-1.044-1.317-2.032-1.317-.957 0-1.805.56-2.546 1.68-.741 1.121-1.248 2.562-1.519 4.321h-6.551l-.048-.144c.462-3.268 1.741-5.966 3.838-8.094 2.096-2.127 4.658-3.191 7.687-3.191 2.965 0 5.18.937 6.647 2.809 1.466 1.874 1.953 4.38 1.458 7.521-.367 2.23-1.147 4.217-2.343 5.954-1.195 1.737-3.172 4.104-5.93 7.101l-5.093 6.385.072.119h10.832l-.862 5.426zM110.876 80.7l4.758-19.415h16.354l-.883 5.571H120.25l-2.01 8.201a6.654 6.654 0 011.914-1.231 6.227 6.227 0 012.223-.538c2.789-.048 4.762.953 5.918 3.001 1.156 2.048 1.438 4.93.85 8.644-.559 3.428-1.846 6.229-3.861 8.404-2.018 2.176-4.611 3.264-7.783 3.264-2.582 0-4.727-.9-6.433-2.702-1.706-1.801-2.303-4.239-1.793-7.316l6.767-.358c-.256 1.626-.168 2.857.264 3.694.43.837 1.115 1.255 2.055 1.255 1.037 0 1.893-.577 2.57-1.733.678-1.155 1.168-2.642 1.471-4.459.336-2.12.332-3.762-.012-4.926-.342-1.163-1.096-1.745-2.26-1.745-.797 0-1.475.259-2.031.776-.559.519-.988 1.192-1.291 2.021l-5.932-.408zM147.292 67.979c.431-2.183 1.343-3.929 2.738-5.235 1.395-1.308 3.144-1.961 5.248-1.961 1.944 0 3.384.693 4.315 2.08.933 1.387 1.199 3.092.802 5.116l-.359 1.842c-.446 2.199-1.354 3.941-2.726 5.225-1.372 1.284-3.116 1.925-5.236 1.925-1.945 0-3.392-.689-4.34-2.068s-1.216-3.073-.801-5.081l.359-1.843zm2.415 25.489l-2.821-1.77 19.128-27.21 2.822 1.77-19.129 27.21zm1.626-23.647c-.191.956-.159 1.737.096 2.343.255.606.733.909 1.435.909.638 0 1.211-.319 1.722-.957.51-.637.86-1.402 1.052-2.295l.359-1.842c.19-.972.167-1.765-.072-2.378-.239-.614-.709-.922-1.411-.922-.638 0-1.223.328-1.757.98-.534.654-.889 1.428-1.064 2.319l-.36 1.843zm5.906 17.741c.43-2.168 1.343-3.905 2.737-5.212 1.395-1.308 3.145-1.961 5.248-1.961 1.961 0 3.403.693 4.328 2.08.925 1.387 1.188 3.084.789 5.093l-.358 1.841c-.446 2.216-1.352 3.966-2.714 5.249-1.363 1.283-3.104 1.925-5.225 1.925-1.945 0-3.396-.693-4.352-2.08-.956-1.388-1.228-3.085-.813-5.094l.36-1.841zm4.065 1.841c-.207.941-.164 1.726.132 2.355.295.63.753.937 1.375.921.765.016 1.374-.283 1.829-.896.454-.614.776-1.407.968-2.38l.358-1.841c.191-.972.164-1.761-.083-2.367-.248-.605-.722-.908-1.423-.908-.638 0-1.22.322-1.745.968-.526.646-.877 1.415-1.053 2.308l-.358 1.84z"/><path fill="#FFF" d="M190.402 96.098h-6.719l5.164-25.871h6.719l-5.164 25.871zm6.432-32.112h-6.719l1.028-5.188h6.719l-1.028 5.188zM207.116 89.332c.127-.766-.028-1.402-.466-1.913-.439-.51-1.359-1.163-2.762-1.961-2.329-.972-4.019-2.071-5.07-3.299-1.051-1.228-1.419-2.821-1.1-4.782.351-2.184 1.435-4.001 3.252-5.452 1.816-1.45 4.064-2.176 6.742-2.176 2.646 0 4.689.773 6.133 2.319 1.442 1.547 1.949 3.491 1.52 5.834l-.071.144h-6.504c.159-1.115.096-1.984-.19-2.605-.287-.622-.846-.933-1.675-.933-.604 0-1.188.251-1.745.753-.559.502-.885 1.096-.979 1.781-.144.781-.021 1.398.37 1.854.391.454 1.318 1.096 2.785 1.925 2.455.924 4.201 2.02 5.236 3.287 1.036 1.267 1.395 2.929 1.076 4.985-.383 2.28-1.511 4.101-3.384 5.464-1.873 1.362-4.196 2.044-6.97 2.044-2.758 0-4.854-.876-6.289-2.63-1.435-1.753-1.953-3.714-1.555-5.882l.048-.12h6.193c-.191 1.387-.068 2.38.37 2.978.438.598 1.15.896 2.141.896.766 0 1.406-.228 1.924-.682.52-.454.842-1.065.97-1.829zM217.493 81.584c.573-3.603 1.901-6.476 3.981-8.62s4.729-3.216 7.949-3.216c3.044 0 5.305 1.116 6.778 3.348 1.475 2.232 1.94 5.062 1.397 8.488l-.502 3.204c-.59 3.635-1.929 6.512-4.017 8.632-2.089 2.12-4.728 3.18-7.914 3.18-3.077 0-5.353-1.104-6.827-3.312-1.475-2.207-1.925-5.041-1.352-8.5l.507-3.204zm6.195 3.195c-.336 2.076-.348 3.66-.037 4.754.312 1.094 1.104 1.64 2.379 1.64 1.164 0 2.097-.574 2.799-1.724.701-1.149 1.211-2.706 1.529-4.67l.502-3.208c.318-2.028.322-3.601.013-4.718-.31-1.117-1.08-1.677-2.308-1.677-1.181 0-2.133.587-2.857 1.761-.725 1.173-1.23 2.718-1.518 4.634l-.502 3.208zM250.562 89.332c.127-.766-.028-1.402-.467-1.913-.438-.51-1.359-1.163-2.762-1.961-2.328-.972-4.018-2.071-5.068-3.299-1.052-1.228-1.42-2.821-1.101-4.782.351-2.184 1.435-4.001 3.252-5.452 1.815-1.45 4.063-2.176 6.742-2.176 2.646 0 4.69.773 6.133 2.319 1.442 1.547 1.949 3.491 1.519 5.834l-.07.144h-6.504c.158-1.115.096-1.984-.191-2.605-.287-.622-.845-.933-1.674-.933-.605 0-1.188.251-1.745.753-.56.502-.885 1.096-.979 1.781-.145.781-.021 1.398.369 1.854.392.454 1.319 1.096 2.786 1.925 2.454.924 4.2 2.02 5.236 3.287s1.396 2.929 1.075 4.985c-.383 2.28-1.51 4.101-3.383 5.464-1.873 1.362-4.196 2.044-6.971 2.044-2.758 0-4.854-.876-6.287-2.63-1.436-1.753-1.953-3.714-1.556-5.882l.048-.12h6.193c-.191 1.387-.068 2.38.369 2.978.438.598 1.152.896 2.141.896.766 0 1.407-.228 1.925-.682.519-.454.842-1.065.97-1.829zM273.396 63.794l-1.291 6.433h3.348l-.98 4.926h-3.348l-2.582 12.983c-.238 1.132-.264 1.904-.07 2.319.19.414.532.621 1.027.621.366 0 .693-.02.979-.06.287-.039.606-.107.957-.203l-.525 5.165c-.749.223-1.442.382-2.08.478-.639.096-1.363.144-2.176.144-1.993 0-3.447-.685-4.364-2.056-.916-1.371-1.088-3.499-.515-6.385l2.606-13.007h-2.868l.979-4.926h2.868l1.291-6.433 6.744.001zM286.021 96.098a9.852 9.852 0 01-.203-1.387 18.505 18.505 0 01-.061-1.53c-.798 1.036-1.678 1.865-2.643 2.486a5.695 5.695 0 01-3.145.933c-1.912 0-3.376-.713-4.388-2.14-1.013-1.427-1.288-3.288-.825-5.583.542-2.71 1.705-4.723 3.491-6.038 1.785-1.314 4.247-1.972 7.388-1.972h2.297l.43-2.104c.255-1.339.255-2.327 0-2.965-.256-.638-.797-.957-1.625-.957-.623 0-1.164.279-1.627.837-.463.559-.789 1.34-.979 2.344l-6.526-.024-.049-.144c.414-2.406 1.594-4.359 3.538-5.857 1.945-1.498 4.312-2.248 7.103-2.248 2.423 0 4.324.798 5.703 2.392 1.377 1.594 1.789 3.817 1.23 6.671l-2.104 10.473c-.271 1.339-.428 2.534-.467 3.587a19.426 19.426 0 00.155 3.228h-6.694v-.002zm-3.061-4.614c.574 0 1.151-.176 1.733-.526s1.088-.813 1.519-1.387l.956-4.807h-2.295c-.846 0-1.555.363-2.128 1.088-.574.726-.966 1.631-1.172 2.714-.191.925-.159 1.643.096 2.152.255.511.685.766 1.291.766zM311.581 76.419l-2.487-.071c-.604 0-1.154.18-1.648.538-.494.358-.926.856-1.291 1.494l-3.539 17.718h-6.743l5.165-25.871h6.288l-.382 3.156.119.071c.604-1.179 1.314-2.092 2.128-2.737.812-.646 1.682-.969 2.605-.969.271 0 .569.028.896.084.325.056.608.124.849.203l-1.96 6.384zM402 149.56v74.24h-74.24"/></svg>