<?xml version="1.0" encoding="UTF-8" standalone="no"?>
<svg
   id="Layer_1"
   style="enable-background:new 0 0 1000 1000;"
   version="1.1"
   viewBox="0 0 1000 1000"
   xml:space="preserve"
   sodipodi:docname="icon16.svg"
   inkscape:version="1.3.2 (091e20e, 2023-11-25)"
   xmlns:inkscape="http://www.inkscape.org/namespaces/inkscape"
   xmlns:sodipodi="http://sodipodi.sourceforge.net/DTD/sodipodi-0.dtd"
   xmlns="http://www.w3.org/2000/svg"
   xmlns:svg="http://www.w3.org/2000/svg"><defs
     id="defs1" /><sodipodi:namedview
     id="namedview1"
     pagecolor="#ffffff"
     bordercolor="#000000"
     borderopacity="0.25"
     inkscape:showpageshadow="2"
     inkscape:pageopacity="0.0"
     inkscape:pagecheckerboard="0"
     inkscape:deskcolor="#d1d1d1"
     inkscape:zoom="0.519"
     inkscape:cx="500"
     inkscape:cy="500"
     inkscape:window-width="1952"
     inkscape:window-height="1236"
     inkscape:window-x="0"
     inkscape:window-y="25"
     inkscape:window-maximized="0"
     inkscape:current-layer="Layer_1" /><style
     type="text/css"
     id="style1">
	.st0{fill:#5181B8;}
	.st1{fill-rule:evenodd;clip-rule:evenodd;fill:#FFFFFF;}
</style><title
     id="title1" /><path
     class="st0"
     d="m 500,1000 v 0 C 223.9,1000 0,776.1 0,500 v 0 C 0,223.9 223.9,0 500,0 v 0 c 276.1,0 500,223.9 500,500 v 0 c 0,276.1 -223.9,500 -500,500 z"
     id="path1" /><path
     d="M 775.63408,487.89515 C 606.31585,435.17344 564.37043,393.21808 511.62904,223.8901 a 12.68766,12.68766 0 0 0 -23.25787,0 C 435.63911,393.21808 393.6941,435.17344 224.36592,487.89515 a 12.190224,12.190224 0 0 0 0,23.27776 c 169.32818,52.70181 211.27319,94.65717 264.00525,264.00505 a 12.185148,12.185148 0 0 0 23.25787,0 C 564.37043,605.83008 606.31585,563.87472 775.63408,511.17291 a 12.190224,12.190224 0 0 0 0,-23.27776 z"
     id="path1-4"
     style="stroke-width:20.3035;fill:#ffffff" /></svg>
