<?xml version="1.0" encoding="utf-8"?>
<!-- Generator: Adobe Illustrator 25.4.1, SVG Export Plug-In . SVG Version: 6.00 Build 0)  -->
<svg version="1.1" id="Ebene_1" xmlns="http://www.w3.org/2000/svg" xmlns:xlink="http://www.w3.org/1999/xlink" x="0px" y="0px"
	 width="1225.1px" height="964.8px" viewBox="0 0 1225.1 964.8" style="enable-background:new 0 0 1225.1 964.8;"
	 xml:space="preserve">
<style type="text/css">
	.st0{fill:#182C54;}
</style>
<path class="st0" d="M217.9,530.1c53.7,105.8,75.1,252.6,109.8,307.5s95.6,136.8,203.2,126.3C662.7,951.1,648,843.1,695.6,779
	s80.5-62.2,109.8-58.6s49.4,22,54.9,32.9c5.5,11,38.4,97,109.8,131.8c71.4,34.8,265.4-31.1,254.4-186.7s-153.8-205-140.9-338.6
	c12.8-133.6,16.5-269.1-45.8-302C975.7,24.9,897-13.6,781.7,4.7S626.1,87.1,512.6,99.9S316.7,28.5,201.4,41.3S-2,155.6,0,226.2
	C3.7,350.7,157.5,411.1,217.9,530.1z"/>
</svg>
