<?xml version="1.0" encoding="utf-8"?>
<!-- Generator: Adobe Illustrator 26.0.2, SVG Export Plug-In . SVG Version: 6.00 Build 0)  -->
<svg version="1.1" id="Ebene_1" xmlns="http://www.w3.org/2000/svg" xmlns:xlink="http://www.w3.org/1999/xlink" x="0px" y="0px"
	 width="123.6px" height="118.3px" viewBox="0 0 123.6 118.3" style="enable-background:new 0 0 123.6 118.3;" xml:space="preserve"
	>
<style type="text/css">
	.st0{fill:#606060;}
</style>
<g>
	<path class="st0" d="M119.6,42.1c0-19.5-15.8-35.3-35.3-35.3c-8.5,0-16.3,3-22.4,8.1c-6.1-5-13.9-8.1-22.4-8.1
		C19.9,6.8,4.1,22.6,4.1,42.1C4.1,57,13.4,69.8,26.6,75c0,0.4,0,0.9,0,1.3c0,19.5,15.8,35.3,35.3,35.3s35.3-15.8,35.3-35.3
		c0-0.5,0-0.9,0-1.3C110.2,69.8,119.6,57,119.6,42.1z M71.7,42.1c0,0.1,0,0.2,0,0.3c-3.1-0.9-6.4-1.4-9.9-1.4
		c-3.4,0-6.7,0.5-9.9,1.4c0-0.1,0-0.2,0-0.3c0-9.1,3.8-17.3,9.9-23.2C67.9,24.7,71.7,33,71.7,42.1z M52.1,45.5
		c3.1-1,6.3-1.5,9.7-1.5c3.4,0,6.6,0.5,9.7,1.5c-0.8,7.7-4.4,14.7-9.7,19.8C56.5,60.1,52.9,53.2,52.1,45.5z M59.6,67.3
		C54,71.7,47,74.4,39.4,74.4c-3.4,0-6.6-0.5-9.7-1.5C31,61,38.7,51,49.2,46.5C50.3,54.6,54,61.8,59.6,67.3z M74.4,46.5
		C85,51,92.7,61,93.9,72.9c-3.1,1-6.3,1.5-9.7,1.5c-7.6,0-14.6-2.7-20.2-7.1C69.6,61.8,73.4,54.6,74.4,46.5z M7.1,42.1
		c0-17.8,14.5-32.3,32.3-32.3c7.6,0,14.6,2.7,20.2,7.1C53,23.3,49,32.2,49,42.1c0,0.5,0,0.9,0,1.3C37.2,48,28.5,58.8,26.8,71.8
		C15.2,66.9,7.1,55.4,7.1,42.1z M61.8,108.6c-17.8,0-32.3-14.5-32.3-32.3c0-0.1,0-0.2,0-0.3c3.1,0.9,6.4,1.4,9.9,1.4
		c8.5,0,16.3-3,22.4-8.1c6.1,5,13.9,8.1,22.4,8.1c3.4,0,6.7-0.5,9.9-1.4c0,0.1,0,0.2,0,0.3C94.1,94.1,79.6,108.6,61.8,108.6z
		 M96.8,71.8c-1.6-13-10.4-23.8-22.2-28.4c0-0.4,0-0.9,0-1.3c0-9.9-4.1-18.8-10.6-25.2c5.5-4.4,12.5-7.1,20.2-7.1
		c17.8,0,32.3,14.5,32.3,32.3C116.6,55.4,108.4,66.9,96.8,71.8z"/>
</g>
</svg>
