<svg xmlns="http://www.w3.org/2000/svg" viewBox="0 0 32 30.365"><path fill="#F6F6F6" d="M16.111 27.641c-4.93 0-10.237-1.163-10.237-3.723 0-1.978 2.952-2.908 5.424-3.33a.926.926 0 011.076.756.926.926 0 01-.756 1.076c-2.996.523-3.839 1.338-3.883 1.513.146.494 2.938 1.847 8.376 1.847s8.23-1.353 8.376-1.876c-.044-.146-.887-.96-3.883-1.483a.926.926 0 01-.756-1.076.926.926 0 011.076-.756c2.472.422 5.424 1.353 5.424 3.33.001 2.559-5.307 3.722-10.237 3.722zm4.654-11.168a.938.938 0 01-.931.931h-.931v5.584a.938.938 0 01-.931.931H14.25a.938.938 0 01-.931-.931v-5.584h-.931a.938.938 0 01-.931-.931v-5.584c0-1.032.829-1.861 1.861-1.861h5.584c1.032 0 1.861.829 1.861 1.861v5.584zm-4.654-7.911c-1.803 0-3.257-1.454-3.257-3.257s1.454-3.257 3.257-3.257c1.803 0 3.258 1.454 3.258 3.257s-1.455 3.257-3.258 3.257z"/></svg>