<?xml version="1.0" encoding="utf-8"?>
<!-- Generator: Adobe Illustrator 25.2.1, SVG Export Plug-In . SVG Version: 6.00 Build 0)  -->
<svg version="1.1" id="Ebene_1" xmlns="http://www.w3.org/2000/svg" xmlns:xlink="http://www.w3.org/1999/xlink" x="0px" y="0px"
	 viewBox="0 0 1920 1080" style="enable-background:new 0 0 1920 1080;" xml:space="preserve">
<style type="text/css">
	.st0{opacity:0.3;fill:#DADADA;enable-background:new    ;}
</style>
<g>
	<circle class="st0" cx="1579.86" cy="682" r="5"/>
	<circle class="st0" cx="1758.03" cy="682" r="5"/>
	<circle class="st0" cx="1722.4" cy="682" r="5"/>
	<circle class="st0" cx="1686.76" cy="682" r="5"/>
	<circle class="st0" cx="1651.14" cy="682" r="5"/>
	<circle class="st0" cx="1615.5" cy="682" r="5"/>
	<circle class="st0" cx="1793.67" cy="682" r="5"/>
	<circle class="st0" cx="1579.86" cy="729.88" r="5"/>
	<circle class="st0" cx="1758.03" cy="729.88" r="5"/>
	<circle class="st0" cx="1722.4" cy="729.88" r="5"/>
	<circle class="st0" cx="1686.76" cy="729.88" r="5"/>
	<circle class="st0" cx="1651.14" cy="729.88" r="5"/>
	<circle class="st0" cx="1615.5" cy="729.88" r="5"/>
	<circle class="st0" cx="1793.67" cy="729.88" r="5"/>
	<circle class="st0" cx="1579.86" cy="777.75" r="5"/>
	<circle class="st0" cx="1758.03" cy="777.75" r="5"/>
	<circle class="st0" cx="1722.4" cy="777.75" r="5"/>
	<circle class="st0" cx="1686.76" cy="777.75" r="5"/>
	<circle class="st0" cx="1651.14" cy="777.75" r="5"/>
	<circle class="st0" cx="1615.5" cy="777.75" r="5"/>
	<circle class="st0" cx="1793.67" cy="777.75" r="5"/>
	<circle class="st0" cx="1579.86" cy="825.63" r="5"/>
	<circle class="st0" cx="1758.03" cy="825.63" r="5"/>
	<circle class="st0" cx="1722.4" cy="825.63" r="5"/>
	<circle class="st0" cx="1686.76" cy="825.63" r="5"/>
	<circle class="st0" cx="1651.14" cy="825.63" r="5"/>
	<circle class="st0" cx="1615.5" cy="825.63" r="5"/>
	<circle class="st0" cx="1793.67" cy="825.63" r="5"/>
	<circle class="st0" cx="1579.86" cy="873.5" r="5"/>
	<circle class="st0" cx="1758.03" cy="873.5" r="5"/>
	<circle class="st0" cx="1722.4" cy="873.5" r="5"/>
	<circle class="st0" cx="1686.76" cy="873.5" r="5"/>
	<circle class="st0" cx="1651.14" cy="873.5" r="5"/>
	<circle class="st0" cx="1615.5" cy="873.5" r="5"/>
	<circle class="st0" cx="1793.67" cy="873.5" r="5"/>
	<circle class="st0" cx="1579.86" cy="921.38" r="5"/>
	<circle class="st0" cx="1758.03" cy="921.38" r="5"/>
	<circle class="st0" cx="1722.4" cy="921.38" r="5"/>
	<circle class="st0" cx="1686.76" cy="921.38" r="5"/>
	<circle class="st0" cx="1651.14" cy="921.38" r="5"/>
	<circle class="st0" cx="1615.5" cy="921.38" r="5"/>
	<circle class="st0" cx="1793.67" cy="921.38" r="5"/>
</g>
<g>
	<circle class="st0" cx="-79.18" cy="186.25" r="5"/>
	<circle class="st0" cx="99" cy="186.25" r="5"/>
	<circle class="st0" cx="63.37" cy="186.25" r="5"/>
	<circle class="st0" cx="27.73" cy="186.25" r="5"/>
	<circle class="st0" cx="-7.9" cy="186.25" r="5"/>
	<circle class="st0" cx="-43.54" cy="186.25" r="5"/>
	<circle class="st0" cx="134.63" cy="186.25" r="5"/>
	<circle class="st0" cx="-79.18" cy="234.13" r="5"/>
	<circle class="st0" cx="99" cy="234.13" r="5"/>
	<circle class="st0" cx="63.37" cy="234.13" r="5"/>
	<circle class="st0" cx="27.73" cy="234.13" r="5"/>
	<circle class="st0" cx="-7.9" cy="234.13" r="5"/>
	<circle class="st0" cx="-43.54" cy="234.13" r="5"/>
	<circle class="st0" cx="134.63" cy="234.13" r="5"/>
	<circle class="st0" cx="-79.18" cy="282" r="5"/>
	<circle class="st0" cx="99" cy="282" r="5"/>
	<circle class="st0" cx="63.37" cy="282" r="5"/>
	<circle class="st0" cx="27.73" cy="282" r="5"/>
	<circle class="st0" cx="-7.9" cy="282" r="5"/>
	<circle class="st0" cx="-43.54" cy="282" r="5"/>
	<circle class="st0" cx="134.63" cy="282" r="5"/>
	<circle class="st0" cx="-79.18" cy="329.88" r="5"/>
	<circle class="st0" cx="99" cy="329.88" r="5"/>
	<circle class="st0" cx="63.37" cy="329.88" r="5"/>
	<circle class="st0" cx="27.73" cy="329.88" r="5"/>
	<circle class="st0" cx="-7.9" cy="329.88" r="5"/>
	<circle class="st0" cx="-43.54" cy="329.88" r="5"/>
	<circle class="st0" cx="134.63" cy="329.88" r="5"/>
	<circle class="st0" cx="-79.18" cy="377.75" r="5"/>
	<circle class="st0" cx="99" cy="377.75" r="5"/>
	<circle class="st0" cx="63.37" cy="377.75" r="5"/>
	<circle class="st0" cx="27.73" cy="377.75" r="5"/>
	<circle class="st0" cx="-7.9" cy="377.75" r="5"/>
	<circle class="st0" cx="-43.54" cy="377.75" r="5"/>
	<circle class="st0" cx="134.63" cy="377.75" r="5"/>
	<circle class="st0" cx="-79.18" cy="425.64" r="5"/>
	<circle class="st0" cx="99" cy="425.64" r="5"/>
	<circle class="st0" cx="63.37" cy="425.64" r="5"/>
	<circle class="st0" cx="27.73" cy="425.64" r="5"/>
	<circle class="st0" cx="-7.9" cy="425.64" r="5"/>
	<circle class="st0" cx="-43.54" cy="425.64" r="5"/>
	<circle class="st0" cx="134.63" cy="425.64" r="5"/>
</g>
</svg>
