<?xml version="1.0" encoding="utf-8"?>
<!-- Generator: Adobe Illustrator 16.0.0, SVG Export Plug-In . SVG Version: 6.00 Build 0)  -->
<!DOCTYPE svg PUBLIC "-//W3C//DTD SVG 1.1//EN" "http://www.w3.org/Graphics/SVG/1.1/DTD/svg11.dtd">
<svg version="1.1" id="Ebene_1" xmlns="http://www.w3.org/2000/svg" xmlns:xlink="http://www.w3.org/1999/xlink" x="0px" y="0px"
	 width="29.904px" height="27.089px" viewBox="0 0 29.904 27.089" enable-background="new 0 0 29.904 27.089" xml:space="preserve">
<path d="M22.208,25.069H7.723c-1.271,0-2.305-1.021-2.305-2.278V4.299c0-1.257,1.033-2.279,2.305-2.279h14.485
	c1.277,0,2.278,1,2.278,2.279v18.492C24.487,24.069,23.486,25.069,22.208,25.069z M7.723,2.91c-0.779,0-1.414,0.623-1.414,1.389
	v18.492c0,0.766,0.635,1.39,1.414,1.39h14.485c0.777,0,1.388-0.61,1.388-1.39V4.299c0-0.779-0.61-1.389-1.388-1.389H7.723z"/>
<path d="M22.104,21.112H7.828c-0.246,0-0.445-0.209-0.445-0.469V4.27c0-0.259,0.199-0.469,0.445-0.469h14.274
	c0.246,0,0.445,0.21,0.445,0.469v16.373C22.549,20.903,22.349,21.112,22.104,21.112z M8.273,20.175h13.386V4.739H8.273V20.175z"/>
<circle cx="14.953" cy="22.507" r="0.875"/>
</svg>
