<?xml version="1.0" encoding="utf-8"?>
<!-- Generator: Adobe Illustrator 16.0.0, SVG Export Plug-In . SVG Version: 6.00 Build 0)  -->
<!DOCTYPE svg PUBLIC "-//W3C//DTD SVG 1.1//EN" "http://www.w3.org/Graphics/SVG/1.1/DTD/svg11.dtd">
<svg version="1.1" id="Ebene_1" xmlns="http://www.w3.org/2000/svg" xmlns:xlink="http://www.w3.org/1999/xlink" x="0px" y="0px"
	 width="29.905px" height="27.089px" viewBox="0 0 29.905 27.089" enable-background="new 0 0 29.905 27.089" xml:space="preserve">
<g>
	<path d="M29.328,17.786H0.577C0.258,17.786,0,17.529,0,17.209c0-0.319,0.258-0.577,0.577-0.577h28.751
		c0.319,0,0.577,0.258,0.577,0.577C29.905,17.529,29.647,17.786,29.328,17.786z"/>
	<path d="M27.597,22.132H2.274C1.021,22.132,0,21.097,0,19.823V2.275C0,1.02,1.021,0,2.274,0h25.323
		c1.251,0,2.309,1.041,2.309,2.275v17.548C29.905,21.097,28.87,22.132,27.597,22.132z M2.274,1.153c-0.617,0-1.12,0.503-1.12,1.122
		v17.548c0,0.638,0.502,1.155,1.12,1.155h25.323c0.637,0,1.154-0.518,1.154-1.155V2.275c0-0.608-0.529-1.122-1.154-1.122H2.274z"/>
	<path d="M19.79,27.088h-9.674c-0.319,0-0.577-0.257-0.577-0.577s0.258-0.577,0.577-0.577h9.674c0.319,0,0.577,0.257,0.577,0.577
		S20.108,27.088,19.79,27.088z"/>
	<path d="M11.711,27.089c-0.042,0-0.085-0.004-0.128-0.015c-0.311-0.07-0.505-0.379-0.436-0.69l1.121-4.956
		c0.07-0.311,0.377-0.514,0.69-0.435c0.311,0.07,0.506,0.379,0.436,0.69l-1.121,4.956C12.213,26.906,11.975,27.089,11.711,27.089z"
		/>
	<path d="M18.193,27.089c-0.262,0-0.499-0.18-0.562-0.447l-1.154-4.956c-0.073-0.312,0.12-0.621,0.431-0.694
		c0.307-0.065,0.621,0.12,0.693,0.431l1.154,4.957c0.073,0.311-0.121,0.621-0.431,0.693C18.281,27.083,18.237,27.089,18.193,27.089z
		"/>
	<path d="M14.969,19.959c-0.318,0-0.594-0.257-0.594-0.577s0.241-0.577,0.56-0.577h0.034c0.319,0,0.577,0.257,0.577,0.577
		S15.288,19.959,14.969,19.959z"/>
</g>
</svg>
