<?xml version="1.0" encoding="utf-8"?>
<!-- Generator: Adobe Illustrator 16.0.0, SVG Export Plug-In . SVG Version: 6.00 Build 0)  -->
<!DOCTYPE svg PUBLIC "-//W3C//DTD SVG 1.1//EN" "http://www.w3.org/Graphics/SVG/1.1/DTD/svg11.dtd">
<svg version="1.1" id="Ebene_1" xmlns="http://www.w3.org/2000/svg" xmlns:xlink="http://www.w3.org/1999/xlink" x="0px" y="0px"
	 width="14.125px" height="22.25px" viewBox="100.991 1.227 14.125 22.25" enable-background="new 100.991 1.227 14.125 22.25"
	 xml:space="preserve">
<line fill="none" stroke="#E65B39" stroke-miterlimit="10" x1="102.577" y1="16.88" x2="113.31" y2="16.88"/>
<path fill="#E65B39" d="M109.181,19.172c0,0.628-0.513,1.145-1.143,1.145c-0.635,0-1.145-0.517-1.145-1.145
	c0-0.633,0.51-1.145,1.145-1.145C108.67,18.027,109.181,18.539,109.181,19.172z"/>
<path fill="none" stroke="#E65B39" stroke-miterlimit="10" d="M113.342,20.211c0,0.791-0.642,1.434-1.434,1.434h-7.865
	c-0.792,0-1.434-0.643-1.434-1.434V4.625c0-0.792,0.642-1.433,1.434-1.433h7.865c0.792,0,1.434,0.641,1.434,1.433V20.211z"/>
<line fill="none" stroke="#E65B39" stroke-miterlimit="10" x1="102.609" y1="6.074" x2="113.342" y2="6.074"/>
</svg>
