<?xml version="1.0" encoding="UTF-8"?>
<svg xmlns="http://www.w3.org/2000/svg" version="1.1" viewBox="0 0 57.5 28.8">
  <defs>
    <style>
      .cls-1 {
        fill: #6d6d6d;
      }
    </style>
  </defs>
  <!-- Generator: Adobe Illustrator 28.7.2, SVG Export Plug-In . SVG Version: 1.2.0 Build 154)  -->
  <g>
    <g id="Ebene_1">
      <g id="Ebene_1-2" data-name="Ebene_1">
        <g>
          <path class="cls-1" d="M25.4,11.7c-.5-.3-.9-.7-1.2-1.1-.3-.5-.4-1-.4-1.7s.1-1.2.4-1.7.7-.9,1.2-1.1c.5-.3,1-.4,1.6-.4s1.1,0,1.6.4.9.7,1.2,1.1c.3.5.4,1,.4,1.7s-.1,1.2-.4,1.7-.7.9-1.2,1.1c-.5.3-1,.4-1.6.4s-1.1-.1-1.6-.4ZM28,10.8c.3-.2.5-.4.7-.7s.2-.7.2-1.1,0-.8-.2-1.1c-.2-.3-.4-.6-.7-.7s-.6-.3-1-.3-.7,0-1,.3c-.3.2-.5.4-.7.7s-.2.7-.2,1.1,0,.8.2,1.1.4.6.7.7c.3.2.6.3,1,.3s.7,0,1-.3Z"/>
          <path class="cls-1" d="M36.5,12.1h-1.3l-2.9-4.3v4.3h-1.3v-6.3h1.3l2.9,4.3v-4.3h1.3v6.3Z"/>
          <path class="cls-1" d="M39,11.1h2.1v1h-3.3v-6.3h1.3v5.3h0Z"/>
          <path class="cls-1" d="M46.9,5.8l-2.1,4.1v2.2h-1.3v-2.2l-2.1-4.1h1.4l1.4,2.9,1.3-2.9s1.4,0,1.4,0Z"/>
          <path class="cls-1" d="M28.3,16.6v1h-1.7v5.3h-1.3v-5.3h-1.7v-1h4.7Z"/>
          <path class="cls-1" d="M33.1,21.7h-2.5l-.4,1.2h-1.3l2.3-6.3h1.5l2.3,6.3h-1.3l-.4-1.2h-.2ZM32.8,20.7l-.9-2.6-.9,2.6h1.8Z"/>
          <path class="cls-1" d="M40.1,20.2c.2.3.3.6.3,1s0,.6-.2.9-.4.5-.7.6-.7.2-1.1.2h-2.7v-6.3h2.6c.4,0,.8,0,1.1.2.3.1.5.3.7.6.2.2.2.5.2.8s0,.7-.3.9c-.2.2-.5.4-.8.5.4,0,.6.2.9.5h0ZM37,19.2h1.2c.3,0,.5,0,.7-.2.2-.1.2-.3.2-.6s0-.4-.2-.6c-.2-.1-.4-.2-.7-.2h-1.2v1.6ZM38.9,21.6c.2-.1.3-.3.3-.6s0-.5-.3-.6c-.2-.2-.4-.2-.7-.2h-1.2v1.7h1.3c.3,0,.5,0,.7-.2h0Z"/>
          <path class="cls-1" d="M42.7,21.9h2.1v1h-3.3v-6.3h1.3v5.3h0Z"/>
          <path class="cls-1" d="M46.9,17.6v1.6h2.1v1h-2.1v1.7h2.4v1h-3.6v-6.3h3.6v1s-2.4,0-2.4,0Z"/>
          <path class="cls-1" d="M54.7,16.6v1h-1.7v5.3h-1.3v-5.3h-1.7v-1h4.7Z"/>
        </g>
        <g>
          <path class="cls-1" d="M17.8,25.9H3.3c-1.3,0-2.3-1-2.3-2.3V5.2c0-1.3,1-2.3,2.3-2.3h14.5c1.3,0,2.3,1,2.3,2.3v18.5c0,1.3-1,2.3-2.3,2.3h0ZM3.3,3.8c-.8,0-1.4.6-1.4,1.4v18.5c0,.8.6,1.4,1.4,1.4h14.5c.8,0,1.4-.6,1.4-1.4V5.2c0-.8-.6-1.4-1.4-1.4,0,0-14.5,0-14.5,0Z"/>
          <path class="cls-1" d="M17.7,22H3.4c-.2,0-.4-.2-.4-.5V5.1c0-.3.2-.5.4-.5h14.3c.2,0,.4.2.4.5v16.4c0,.3-.2.5-.4.5ZM3.8,21.1h13.4V5.6H3.8v15.4h0Z"/>
          <circle class="cls-1" cx="10.5" cy="23.4" r=".9"/>
        </g>
      </g>
    </g>
  </g>
</svg>