<?xml version="1.0" encoding="UTF-8"?>
<svg xmlns="http://www.w3.org/2000/svg" version="1.1" viewBox="0 0 57.5 28.8">
  <defs>
    <style>
      .cls-1, .cls-2 {
        fill: #6d6d6d;
      }

      .cls-2 {
        stroke: #6d6d6d;
        stroke-miterlimit: 10;
      }
    </style>
  </defs>
  <!-- Generator: Adobe Illustrator 28.7.2, SVG Export Plug-In . SVG Version: 1.2.0 Build 154)  -->
  <g>
    <g id="Ebene_1">
      <path class="cls-1" d="M16.2,24.9H7c-1.1,0-2.1-.9-2.1-2.1V5.4c0-1.1.9-2.1,2.1-2.1h9.3c1.1,0,2.1.9,2.1,2.1v17.4c0,1.1-.9,2.1-2.1,2.1ZM7,4.1c-.7,0-1.2.5-1.2,1.2v17.4c0,.7.5,1.2,1.2,1.2h9.3c.7,0,1.2-.6,1.2-1.2V5.4c0-.7-.6-1.2-1.2-1.2H7Z"/>
      <path class="cls-2" d="M15.1,4.1h0c0,.4-.3.7-.7.7h-5.3c-.4,0-.7-.3-.7-.7h0"/>
      <g>
        <path class="cls-1" d="M24.4,11.7c-.5-.3-.9-.7-1.2-1.1-.3-.5-.4-1-.4-1.7s.1-1.2.4-1.7c.3-.5.7-.9,1.2-1.1.5-.3,1-.4,1.6-.4s1.1.1,1.6.4c.5.3.9.7,1.2,1.1.3.5.4,1,.4,1.7s-.1,1.2-.4,1.7c-.3.5-.7.9-1.2,1.1-.5.3-1,.4-1.6.4s-1.1-.1-1.6-.4ZM27,10.8c.3-.2.5-.4.7-.7.2-.3.2-.7.2-1.1s0-.8-.2-1.1c-.2-.3-.4-.6-.7-.7s-.6-.3-1-.3-.7,0-1,.3c-.3.2-.5.4-.7.7-.2.3-.2.7-.2,1.1s0,.8.2,1.1c.2.3.4.6.7.7.3.2.6.3,1,.3s.7,0,1-.3Z"/>
        <path class="cls-1" d="M35.5,12.1h-1.3l-2.9-4.3v4.3h-1.3v-6.3h1.3l2.9,4.3v-4.3h1.3v6.3Z"/>
        <path class="cls-1" d="M38,11.1h2.1v1h-3.3v-6.3h1.3v5.3Z"/>
        <path class="cls-1" d="M45.9,5.8l-2.1,4.1v2.2h-1.3v-2.2l-2.1-4.1h1.4l1.4,2.9,1.3-2.9h1.4Z"/>
        <path class="cls-1" d="M29.9,16.6v6.3h-1.3v-4.1l-1.7,4.1h-1l-1.7-4.1v4.1h-1.3v-6.3h1.4l2,4.7,2-4.7h1.4Z"/>
        <path class="cls-1" d="M32.4,22.5c-.5-.3-.9-.7-1.2-1.1-.3-.5-.4-1-.4-1.7s.1-1.2.4-1.7c.3-.5.7-.9,1.2-1.1.5-.3,1-.4,1.6-.4s1.1.1,1.6.4c.5.3.9.7,1.2,1.1.3.5.4,1,.4,1.7s-.1,1.2-.4,1.7c-.3.5-.7.9-1.2,1.1-.5.3-1,.4-1.6.4s-1.1-.1-1.6-.4ZM35.1,21.6c.3-.2.5-.4.7-.7.2-.3.2-.7.2-1.1s0-.8-.2-1.1c-.2-.3-.4-.6-.7-.7s-.6-.3-1-.3-.7,0-1,.3c-.3.2-.5.4-.7.7-.2.3-.2.7-.2,1.1s0,.8.2,1.1c.2.3.4.6.7.7.3.2.6.3,1,.3s.7,0,1-.3Z"/>
        <path class="cls-1" d="M42.7,20.2c.2.3.3.6.3,1s0,.6-.2.9-.4.5-.7.6-.7.2-1.1.2h-2.7v-6.3h2.6c.4,0,.8,0,1.1.2.3.1.5.3.7.6.2.2.2.5.2.8s0,.7-.3.9c-.2.2-.5.4-.8.5.4,0,.6.2.9.5ZM39.5,19.2h1.2c.3,0,.5,0,.7-.2.2-.1.2-.3.2-.6s0-.4-.2-.6c-.2-.1-.4-.2-.7-.2h-1.2v1.6ZM41.5,21.6c.2-.1.3-.3.3-.6s0-.5-.3-.6c-.2-.2-.4-.2-.7-.2h-1.2v1.7h1.3c.3,0,.5,0,.7-.2Z"/>
        <path class="cls-1" d="M45.3,16.6v6.3h-1.3v-6.3h1.3Z"/>
        <path class="cls-1" d="M47.8,21.9h2.1v1h-3.3v-6.3h1.3v5.3Z"/>
        <path class="cls-1" d="M51.9,17.6v1.6h2.1v1h-2.1v1.7h2.4v1h-3.6v-6.3h3.6v1h-2.4Z"/>
      </g>
    </g>
  </g>
</svg>