<svg xmlns="http://www.w3.org/2000/svg" viewBox="0 0 43.141 43.158"><path fill="#5E6676" d="M41.426 31.091a3.327 3.327 0 01-3.318 3.316H22.846v2.654h7.299c.373 0 .664.291.664.664v1.328a.654.654 0 01-.664.662H12.891a.654.654 0 01-.663-.662v-1.328c0-.373.29-.664.663-.664h7.3v-2.654H4.928a3.326 3.326 0 01-3.317-3.316V11.182a3.327 3.327 0 013.317-3.317h33.179a3.327 3.327 0 013.318 3.317v19.909zm-2.654-19.909a.683.683 0 00-.664-.663H4.928a.681.681 0 00-.663.663v19.909c0 .353.31.662.663.662h33.179c.351 0 .664-.31.664-.662V11.182z"/></svg>