<?xml version="1.0" encoding="UTF-8" standalone="no"?>
<svg
   id="Layer_1"
   style="enable-background:new 0 0 1000 1000;"
   version="1.1"
   viewBox="0 0 1000 1000"
   xml:space="preserve"
   sodipodi:docname="icon15 (1).svg"
   inkscape:version="1.3.2 (091e20e, 2023-11-25)"
   xmlns:inkscape="http://www.inkscape.org/namespaces/inkscape"
   xmlns:sodipodi="http://sodipodi.sourceforge.net/DTD/sodipodi-0.dtd"
   xmlns="http://www.w3.org/2000/svg"
   xmlns:svg="http://www.w3.org/2000/svg"><defs
     id="defs3" /><sodipodi:namedview
     id="namedview3"
     pagecolor="#ffffff"
     bordercolor="#000000"
     borderopacity="0.25"
     inkscape:showpageshadow="2"
     inkscape:pageopacity="0.0"
     inkscape:pagecheckerboard="0"
     inkscape:deskcolor="#d1d1d1"
     inkscape:zoom="0.519"
     inkscape:cx="511.56069"
     inkscape:cy="500"
     inkscape:window-width="1392"
     inkscape:window-height="1212"
     inkscape:window-x="0"
     inkscape:window-y="25"
     inkscape:window-maximized="0"
     inkscape:current-layer="g3" /><style
     type="text/css"
     id="style1">
	.st0{fill:#00B389;}
	.st1{fill:#1B896D;}
	.st2{fill:#FFFFFF;}
</style><title
     id="title1" /><path
     class="st0"
     d="m 500,1000 v 0 C 223.9,1000 0,776.1 0,500 v 0 C 0,223.9 223.9,0 500,0 v 0 c 276.1,0 500,223.9 500,500 v 0 c 0,276.1 -223.9,500 -500,500 z"
     id="path1" /><g
     style="fill:#ffffff;stroke:currentColor;stroke-width:2;stroke-linecap:round;stroke-linejoin:round"
     id="g3"
     transform="matrix(28,0,0,28,164,162.84286)"><line
       x1="16.5"
       x2="7.5"
       y1="9.3999996"
       y2="4.21"
       id="line1"
       style="fill:#ffffff" /><path
       d="M 21,16 V 8 A 2,2 0 0 0 20,6.27 l -7,-4 a 2,2 0 0 0 -2,0 l -7,4 A 2,2 0 0 0 3,8 v 8 a 2,2 0 0 0 1,1.73 l 7,4 a 2,2 0 0 0 2,0 l 7,-4 A 2,2 0 0 0 21,16 Z"
       id="path1-5"
       style="fill:#00b389;fill-opacity:1" /><polyline
       points="3.27 6.96 12 12.01 20.73 6.96"
       id="polyline1"
       style="fill:#00b389;fill-opacity:1" /><line
       x1="12"
       x2="12"
       y1="22.08"
       y2="12"
       id="line2"
       style="fill:#ffffff" /></g></svg>
