<svg xmlns="http://www.w3.org/2000/svg" viewBox="0 0 129.36 18.473"><path fill="none" stroke="#B4B4B4" stroke-width="1.5" stroke-miterlimit="10" d="M81.341 9c0 4.143-3.357 7.5-7.5 7.5-3.475 0-7.792-5.412-9.093-7.156-.25-.335-.388-.534-.388-.534s.388-.531 1.035-1.308C67.151 5.4 70.815 1.5 73.841 1.5c4.143 0 7.5 3.357 7.5 7.5zM47.378 9c0 4.143 3.357 7.5 7.5 7.5s9.481-7.69 9.481-7.69-5.338-7.31-9.481-7.31-7.5 3.357-7.5 7.5z"/><path opacity=".9" fill="none" stroke="#B4B4B4" stroke-width=".25" stroke-miterlimit="10" d="M90.25 9h38.36M.75 9h38.36"/></svg>