<svg xmlns="http://www.w3.org/2000/svg" viewBox="0 0 177.559 89"><g fill="#FFF"><path d="M13.437 40.348c0 1.768-.579 3.121-1.736 4.062s-2.805 1.412-4.942 1.412H5v6.331H2.234V35.232h4.873c2.114 0 3.698.433 4.751 1.296 1.053.865 1.579 2.138 1.579 3.82zM5 43.496h1.47c1.419 0 2.461-.247 3.125-.74.664-.494.995-1.266.995-2.315 0-.972-.297-1.697-.891-2.176s-1.52-.718-2.778-.718H5v5.949zM30.161 52.153h-2.777v-7.627h-7.801v7.627h-2.766V35.232h2.766v6.921h7.801v-6.921h2.777v16.921zM49.64 43.67c0 2.754-.688 4.896-2.066 6.423-1.377 1.528-3.327 2.292-5.851 2.292-2.554 0-4.516-.758-5.885-2.274-1.37-1.516-2.054-3.671-2.054-6.464s.688-4.938 2.066-6.435 3.343-2.246 5.897-2.246c2.515 0 4.459.761 5.833 2.28 1.373 1.521 2.06 3.661 2.06 6.424zm-12.916 0c0 2.083.42 3.663 1.261 4.739s2.087 1.614 3.738 1.614c1.644 0 2.884-.532 3.721-1.597.837-1.065 1.256-2.65 1.256-4.757 0-2.076-.415-3.649-1.244-4.723-.83-1.072-2.066-1.608-3.709-1.608-1.659 0-2.911.536-3.756 1.608-.845 1.075-1.267 2.648-1.267 4.724zM59.119 52.153h-2.766V37.605h-4.977v-2.373h12.72v2.373h-4.977v14.548zM81.711 43.67c0 2.754-.688 4.896-2.066 6.423-1.377 1.528-3.327 2.292-5.851 2.292-2.554 0-4.516-.758-5.885-2.274-1.37-1.516-2.054-3.671-2.054-6.464s.688-4.938 2.066-6.435 3.343-2.246 5.897-2.246c2.515 0 4.459.761 5.833 2.28 1.373 1.521 2.06 3.661 2.06 6.424zm-12.916 0c0 2.083.42 3.663 1.261 4.739s2.087 1.614 3.738 1.614c1.644 0 2.884-.532 3.721-1.597.837-1.065 1.256-2.65 1.256-4.757 0-2.076-.415-3.649-1.244-4.723-.83-1.072-2.066-1.608-3.709-1.608-1.659 0-2.911.536-3.756 1.608-.845 1.075-1.267 2.648-1.267 4.724zM92.266 42.976h6.227v8.495a18.113 18.113 0 01-2.934.706c-.938.139-1.95.208-3.038.208-2.562 0-4.537-.758-5.926-2.274-1.389-1.516-2.083-3.655-2.083-6.417 0-2.724.783-4.855 2.35-6.395 1.566-1.54 3.722-2.31 6.47-2.31 1.766 0 3.44.34 5.022 1.019l-.972 2.304c-1.374-.633-2.748-.949-4.121-.949-1.805 0-3.232.566-4.282 1.701-1.049 1.134-1.574 2.685-1.574 4.652 0 2.068.473 3.641 1.417 4.717.945 1.076 2.306 1.614 4.08 1.614.896 0 1.852-.111 2.87-.336v-4.363h-3.507v-2.372zM105.322 45.395v6.759h-2.767V35.232h4.78c2.184 0 3.799.409 4.85 1.227 1.049.818 1.573 2.053 1.573 3.704 0 2.106-1.096 3.607-3.286 4.502l4.779 7.488h-3.148l-4.051-6.759h-2.73zm0-2.292h1.92c1.289 0 2.223-.239 2.802-.718s.868-1.188.868-2.129c0-.957-.312-1.644-.938-2.061s-1.566-.625-2.824-.625h-1.828v5.533zM128.203 52.153l-1.689-4.699h-6.47l-1.655 4.699h-2.916l6.33-16.99h3.01l6.33 16.99h-2.94zm-2.419-7.083l-1.585-4.606a28.059 28.059 0 01-.48-1.458 30.838 30.838 0 01-.423-1.459 25.885 25.885 0 01-.914 3.113l-1.528 4.41h4.93zM144.58 40.348c0 1.768-.578 3.121-1.736 4.062-1.156.941-2.805 1.412-4.941 1.412h-1.76v6.331h-2.766V35.232h4.873c2.113 0 3.697.433 4.75 1.296 1.053.865 1.58 2.138 1.58 3.82zm-8.438 3.148h1.471c1.419 0 2.461-.247 3.125-.74.663-.494.994-1.266.994-2.315 0-.972-.297-1.697-.891-2.176s-1.52-.718-2.777-.718h-1.922v5.949zM161.304 52.153h-2.777v-7.627h-7.801v7.627h-2.767V35.232h2.767v6.921h7.801v-6.921h2.777v16.921zM170.54 42.952l4.005-7.72h3.009l-5.636 10.358v6.562h-2.778v-6.47l-5.613-10.451h3.009l4.004 7.721z"/></g><path fill="#FFF" d="M49.999 0h3.312v31.125h-3.312z"/><path fill="#FFF" d="M49.999 0h31.125v3.312H49.999zM96.374 0h31.125v3.312H96.374z"/><path fill="#FFF" d="M124.187 0h3.312v31.125h-3.312zM124.187 57.875h3.312V89h-3.312z"/><path fill="#FFF" d="M96.374 85.688h31.125V89H96.374zM49.999 85.688h31.125V89H49.999z"/><path fill="#FFF" d="M49.999 57.875h3.312V89h-3.312z"/></svg>