<svg xmlns="http://www.w3.org/2000/svg" viewBox="0 0 454.246 138.504"><path fill="#8CCDCC" d="M1 0h453.246v64.5H1z"/><path fill="#8B9E32" d="M23.953 70.5s43.137-30.907 94.646-25.399c51.508 5.507 71.848 10.565 80.138 12.371 8.29 1.806 73.575 7.122 80.14 4.759 6.562-2.363 35.578-9.451 65.284-8.86 29.706.59 40.738 7.393 46.622 10.489 5.88 3.096-366.83 6.64-366.83 6.64z"/><path fill="#9FBE3C" d="M0 138.504h453.246v-74s-57.934 0-97.238-4c-39.307-4-144.533-13-215.367-4.5s-81.069 10-101.542 9c-20.474-1-39.099-1-39.099-1v74.5z"/></svg>