<svg xmlns="http://www.w3.org/2000/svg" viewBox="0 0 499.412 334.572"><path fill="#FFF" stroke="#FFF" stroke-miterlimit="10" d="M0 261.686h506.269v83.996H0z"/><path fill="#8CCDCC" stroke="#FFF" stroke-miterlimit="10" d="M10.137 319.759c7.354 0 13.669 3.292 16.492 8.01a23.376 23.376 0 016.842-1.01c2.639 0 5.138.433 7.398 1.193 3.135-4.016 8.94-6.721 15.602-6.721 7.173 0 13.351 3.135 16.271 7.666 2.811-1.348 6.144-2.139 9.729-2.139 2.675 0 5.206.446 7.49 1.227 2.986-4.836 9.932-8.227 18.026-8.227 5.511 0 10.482 1.576 14.042 4.105 2.82-1.361 6.17-2.16 9.775-2.16 5.867 0 11.065 2.101 14.367 5.342a24.014 24.014 0 013.707-.287c5.038 0 9.591 1.546 12.869 4.034 2.457-5.288 9.157-9.089 17.058-9.089 8.073 0 14.904 3.962 17.225 9.428a23.202 23.202 0 017.442-1.209c2.524 0 4.926.39 7.108 1.089 2.37-5.403 9.154-9.308 17.166-9.308 8.411 0 15.459 4.305 17.476 10.128 2.703-1.205 5.85-1.909 9.224-1.909 3.637 0 7.017.812 9.853 2.195 3.219-3.725 8.807-6.195 15.175-6.195 5.641 0 10.675 1.935 13.989 4.965a23.39 23.39 0 016.677-.965c4.979 0 9.487 1.508 12.756 3.944 3.055-4.232 9.033-7.108 15.912-7.108 4.145 0 7.951 1.055 11 2.811 3.049-1.756 6.855-2.811 10.999-2.811 4.145 0 7.952 1.055 11.001 2.811 3.049-1.756 6.855-2.811 11-2.811 6.046 0 11.385 2.229 14.666 5.642 3.281-3.412 8.62-5.642 14.666-5.642 5.583 0 10.571 1.896 13.886 4.872 2.602-1.085 5.593-1.708 8.782-1.708 4.936 0 9.404 1.484 12.666 3.884 3.262-2.399 7.73-3.884 12.666-3.884 3.855 0 7.422.911 10.356 2.45 3.182-3.865 8.871-6.45 15.382-6.45 3.297 0 6.377.671 9.038 1.824 2.66-1.153 5.741-1.824 9.037-1.824 1.363 0 2.686.122 3.962.336V.5H.5v321.355c2.792-1.321 6.09-2.096 9.637-2.096z"/></svg>