<?xml version="1.0" encoding="utf-8"?>
<!-- Generator: Adobe Illustrator 26.0.2, SVG Export Plug-In . SVG Version: 6.00 Build 0)  -->
<svg version="1.1" id="Ebene_1" xmlns="http://www.w3.org/2000/svg" xmlns:xlink="http://www.w3.org/1999/xlink" x="0px" y="0px"
	 width="471px" height="466px" viewBox="0 0 471 466" style="enable-background:new 0 0 471 466;" xml:space="preserve">
<style type="text/css">
	.st0{fill:#FFFFFF;}
	.st1{fill:#5E6575;}
</style>
<g>
	<g>
		<path class="st0" d="M74.4,116.2c2.5,6.1,9.4,9.2,15.7,7.1c17.5-6.1,39.8-13.1,67.3-29.9c0,0,24.5-9.1,33-7.4l99,27.6l0.8,1
			c1.7,2,0.9,5-1.5,5.9l-1.3,0.5l-88.7-11.2c-6.8-1.1-13.2,3.6-14.1,10.4c-0.9,6.6,3.7,12.9,10.3,13.8c21.6,3.3,68,15.1,74.9,18
			c11.8,4.8,26,28.7,47.4,35.7c21.8,7.2,54.3,10,65.8,10.8l-0.3,0.8l22.2,7.3l-3.2,9.8l73.8,24.3l35.2-107l-73.9-24.3l-2.9,8.9
			l-22.2-7.3l-1.9,5.8c-48.4-23.8-130.6-63.8-130.6-63.8s-20.4-8.8-28.4-8.3c-8,0.5-67.5-0.3-67.5-0.3s-12.9,0-18,3.5
			c-4.1,2.9-60.5,37.7-85.8,52.8C74.2,103.9,72,110.5,74.4,116.2z"/>
	</g>
	<g>
		<g id="XMLID_11_">
			<path class="st1" d="M80.6,115.6c3.9,9.5,14.7,14.3,24.3,10.9c1.7-0.6,3.4-1.2,5.2-1.8c16.8-5.8,24.9-9.9,50.2-25.1
				c10.7-4,25.3-10.3,29.4-9.7l58,19.2l-48.1-6.1c-5.1-0.8-10.1,0.4-14.3,3.5c-4.2,3.1-6.8,7.6-7.6,12.8c-1.5,10.3,5.7,20,16.1,21.6
				c22.3,3.3,59.2,17.7,65.1,20.1c3.6,1.5,8.6,6.4,13.9,11.6c8.9,8.7,26.7,21.8,40.8,26.5c23,7.6,32.5,1.6,41.6,1.5
				c0.8,1.8,2.1,3.4,4.1,4.1l35.5,11.7l-0.4,1.2c-1.2,3.6,0.2,7.6,3.9,8.7l71.9,30c3.6,1.2,7.6-0.9,8.7-4.5s-0.8-7.6-4.4-8.8
				L409,215.3l31.7-96.3l68,20.3c3.6,1.2,7.4-0.5,8.6-4.1c1.2-3.6-0.9-7.2-4.5-8.4l-74.3-22.4c-3.6-1.2-6.9,0.5-8.1,4.1l-0.3,1
				l-35.5-11.7c-3.4-1.1-7.1,0.8-8.5,4c-38.5-20.5-104-50.6-104.9-51c-0.1,0-0.2-0.1-0.3-0.1c-1.8-0.8-7.7-3.2-14.2-5.3
				c-6.2-2-13.1-3.8-17.5-3.4c-6.4,0.4-48-7.7-64.5-8c-3.6,0-16.9,4-23.3,8.4c-3.9,2.7-47.7,34.4-72.8,49.3
				C80.4,96.5,77,106.9,80.6,115.6z M396.1,113l29.5,9.7l-26.5,80.4l-29.5-9.7L396.1,113z M95.6,103.4
				c24.2-14.4,70.2-50.5,74.8-53.6c1.9-1.4,8.9-2.2,14-2.2c2.4,0.1,57.4,8.5,65.6,7.9c3.9-0.2,16.1,3.8,25.1,7.7
				c4,1.9,70.4,32.5,106.3,51.9l-22.3,67.6l-0.1,0c-2.7,0-15.9,11.6-41.3,3.3c-11-3.6-27.2-15-35.4-23.2c-6.6-6.5-12.3-12-18.3-14.5
				c-8-3.3-47.1-17.7-68.3-21c-2.9-0.4-4.9-3.2-4.5-6.1c0.2-1.4,1-2.7,2.1-3.6c1.1-0.9,2.6-1.2,4.1-1c0.1,0,0.2,0.1,0.2,0.1
				l76.4,7.1c1.2,0.2,2.3,0,3.4-0.5l1.3-0.5c3.2-1.3,5.5-4,6.3-7.3c0.9-3.3,0-6.8-2.2-9.4l-0.8-1c-0.9-1-2.1-1.9-3.5-2.2L193,76.5
				c-0.2-0.1-0.3-0.1-0.5-0.2c-9.7-2-31.5,8.1-37.7,10.4c-0.4,0.2-0.9,0.4-1.1,0.6c-24.2,14.8-31.9,18.6-48.2,24.2
				c-1.8,0.7-3.6,1.2-5.2,1.9c-2.8,1-5.9-0.4-7.1-3.2C92.3,107.8,93.2,104.9,95.6,103.4z"/>
		</g>
	</g>
</g>
</svg>
