<svg xmlns="http://www.w3.org/2000/svg" viewBox="0 0 294.031 92.465"><g opacity=".8" fill="#FFF"><path d="M25.658 64.598c-1.175-1.564-2.691-3.74-4.55-6.529-12.866-1.274-19.296-3.964-19.296-8.072 0-.929.477-1.687 1.43-2.272.954-.586 2.409-.882 4.366-.882 4.891 0 9.757 3.107 14.6 9.316 4.891.489 10.443.733 16.655.733h.807c6.26-3.766 12.081-7.557 17.462-11.372 2.201-4.01 4.109-7.324 5.723-9.941 1.614-2.616 3.571-5.344 5.87-8.181 4.548-5.772 9.342-8.658 14.38-8.658 1.321 0 1.981.587 1.981 1.761 0 2.838-2.348 6.555-7.043 11.153-4.695 4.598-10.932 9.538-18.709 14.82-2.348 4.5-4.108 7.777-5.283 9.832 6.848-.537 11.787-1.369 14.82-2.494h.221c.195 0 .293.136.293.403 0 .271-.172.647-.514 1.138-3.668 1.125-8.951 2.008-15.847 2.642-2.642 4.548-5.198 8.085-7.667 10.603-2.47 2.521-4.952 3.779-7.447 3.779-4.012 0-7.802-2.227-11.373-6.678-6.995 3.521-13.182 6.211-18.563 8.068-.734.246-1.578.368-2.531.368-.954 0-1.43-.368-1.43-1.1 0-.394.195-.748.587-1.063.391-.318.905-.477 1.54-.477 3.914-.001 10.419-2.3 19.518-6.897zM5.334 49.705c0 2.787 4.72 4.816 14.16 6.09-3.814-5.087-7.655-7.632-11.519-7.632-1.761 0-2.641.513-2.641 1.542zM27.785 63.57a278.658 278.658 0 008.731-4.842h-.293c-4.255 0-8.364-.146-12.326-.44 1.857 2.593 3.153 4.355 3.888 5.282zm11.885-4.841a306.085 306.085 0 01-11.005 5.941c3.276 4.062 6.26 6.091 8.951 6.091 2.004 0 3.999-1.075 5.979-3.228 1.981-2.153 4.169-5.26 6.568-9.319-2.984.244-6.482.415-10.493.515zm15.482-9.465c-2.642 1.762-6.75 4.305-12.326 7.629 3.766-.098 6.529-.22 8.291-.365.928-1.615 2.274-4.037 4.035-7.264zm25.899-28.762c-3.375 0-6.775 2.25-10.198 6.75-2.837 3.814-5.943 8.852-9.318 15.113 6.163-4.548 11.103-8.694 14.821-12.438 3.716-3.741 5.576-6.64 5.576-8.694-.001-.485-.294-.731-.881-.731zM82.004 59.607c.391-.242.697-.365.917-.365.22 0 .33.146.33.439v.221c.195 0-1.114 1.076-3.925 3.229a180.62 180.62 0 01-9.024 6.456c-3.204 2.153-5.222 3.228-6.053 3.228-1.419 0-2.128-.588-2.128-1.76 0-1.418 1.222-4.097 3.668-8.035 2.446-3.938 4.23-5.906 5.356-5.906.832 0 1.247.32 1.247.955 0 .637-1.126 2.373-3.375 5.209-2.251 2.836-3.375 4.867-3.375 6.089 0 .687.257 1.028.77 1.028.514 0 1.798-.687 3.852-2.056 3.669-2.444 7.044-4.915 10.125-7.409l1.615-1.323zm-6.053-9.902c.464 0 .832.146 1.101.439.269.293.403.709.403 1.246 0 .539-.367 1.224-1.1 2.055-.734.832-1.371 1.248-1.907 1.248-.539 0-.93-.16-1.175-.478a1.748 1.748 0 01-.367-1.101c0-.413.391-1.088 1.173-2.02.782-.926 1.406-1.389 1.872-1.389z"/><path d="M82.222 59.094l-.147-.808c0-.243.514-.367 1.542-.367.586 0 .88.367.88 1.101s-.845 2.359-2.531 4.881c-1.688 2.521-2.531 3.828-2.531 3.927 0 .097.097.144.293.144.195 0 2.458-1.711 6.787-5.135s6.933-5.137 7.813-5.137 1.32.308 1.32.917c0 .612-.245 1.298-.733 2.056-.49.76-1.517 2.127-3.082 4.107-1.566 1.98-2.398 3.046-2.495 3.19a.897.897 0 00-.146.515c0 .199.158.293.476.293.317 0 2.727-1.661 7.228-4.988 4.499-3.325 7.067-4.99 7.704-4.99.635 0 .954.271.954.809 0 .979-1.075 2.691-3.228 5.139-2.153 2.447-3.229 3.997-3.229 4.659 0 .659.257.989.77.989.515 0 1.798-.686 3.853-2.055 3.668-2.445 7.043-4.916 10.125-7.41l1.614-1.322c.39-.242.72-.365.99-.365.269 0 .404.146.404.439v.221c-10.321 8.611-16.704 12.914-19.149 12.914-1.419 0-2.128-.588-2.128-1.76 0-.979.708-2.426 2.128-4.332 1.418-1.908 2.127-2.947 2.127-3.119 0-.17-.062-.256-.184-.256-.123 0-2.127 1.396-6.016 4.186-3.89 2.785-6.199 4.182-6.934 4.182-.343 0-.636-.135-.88-.404-.246-.268-.367-.549-.367-.844 0-.883 1.051-2.669 3.154-5.357 2.103-2.642 3.156-4.084 3.156-4.327 0-.244-.146-.367-.441-.367-.343 0-3.814 2.69-10.419 8.072l-3.668 2.935c-.636.536-1.114.807-1.431.807-.318 0-.624-.084-.917-.256a.837.837 0 01-.44-.771c0-.342.428-1.174 1.284-2.493a126.483 126.483 0 013.338-4.842c2.104-2.845 3.156-4.434 3.156-4.778z"/><path d="M121.034 65.552c2.739 0 6.016-1.543 9.831-4.622l1.247.366c-4.794 4.011-8.927 6.017-12.399 6.017-.392 0-.685-.023-.88-.074-1.32 1.613-2.764 2.926-4.329 3.926-1.565 1.002-2.934 1.505-4.108 1.505-1.86 0-2.787-1.039-2.787-3.119 0-2.079 1.735-4.854 5.208-8.327-.586-1.42-.88-2.91-.88-4.476s.562-2.836 1.688-3.815c1.125-.979 2.433-1.468 3.925-1.468s2.751.488 3.778 1.468c1.027.98 1.54 2.373 1.54 4.183 0 2.788-.906 5.575-2.714 8.364.195.047.488.072.88.072zm-10.418 3.594c0 .979.635 1.468 1.907 1.468s2.886-1.296 4.843-3.89c-1.321-.684-2.495-1.883-3.522-3.594-2.153 2.349-3.228 4.354-3.228 6.016zm8.07-4.328c1.515-2.543 2.274-4.709 2.274-6.494 0-1.784-.44-3.105-1.321-3.961-.88-.854-1.737-1.284-2.568-1.284-1.712 0-2.568.88-2.568 2.641s.391 3.511 1.175 5.245c.782 1.738 1.785 3.021 3.008 3.853z"/><path d="M162.121 59.9c-10.321 8.611-16.704 12.914-19.149 12.914-1.42 0-2.129-.588-2.129-1.76 0-1.176.525-2.568 1.578-4.183 1.051-1.616 2.102-3.046 3.155-4.294 1.051-1.247 1.577-1.993 1.577-2.237 0-.245-.073-.366-.219-.366-4.549 3.032-7.251 4.893-8.107 5.577-.856.687-2.25 1.81-4.183 3.374-1.934 1.567-3.191 2.543-3.779 2.936-.587.393-1.223.586-1.908.586s-1.027-.293-1.027-.881c0-.684 1.369-2.834 4.109-6.455 2.641-3.618 3.962-5.649 3.962-6.092 0-.098-.085-.146-.256-.146-.172 0-2.288 1.493-6.347 4.476l-.293-1.1c3.473-2.789 5.82-4.574 7.043-5.357 1.222-.779 2.213-1.174 2.972-1.174.758 0 1.138.366 1.138 1.1 0 .49-1.382 2.483-4.146 5.98-2.763 3.499-4.145 5.383-4.145 5.65 0 .267.084.402.257.402.17 0 2.959-1.971 8.364-5.906 5.404-3.938 8.694-5.906 9.869-5.906.342 0 .672.135.99.402.316.27.478.527.478.771 0 .586-1.296 2.531-3.889 5.832-2.592 3.3-3.889 5.173-3.889 5.613 0 .441.306.66.917.66.61 0 1.919-.66 3.925-1.98 3.668-2.396 7.044-4.865 10.125-7.411l1.614-1.321c.342-.242.66-.365.955-.365.291 0 .438.146.438.439v.222zM186.771 28.279l-16.289-.807c-.098 0-.317.146-.659.44-.343.293-.638.439-.882.439s-.416-.024-.514-.073c-2.886-1.026-4.33-2.275-4.33-3.743 0-.732.418-1.1 1.248-1.1.49 0 3.656.38 9.502 1.137 5.844.759 12.144 1.138 18.893 1.138 6.751 0 13.23-.367 19.441-1.1 6.604-5.723 13.158-8.585 19.664-8.585 2.688 0 4.036.637 4.036 1.908 0 3.326-7.532 6.089-22.599 8.291-4.989 4.989-11.031 13.133-18.123 24.431a572.645 572.645 0 01-7.852 12.034c-5.723 8.509-10.396 12.766-14.014 12.766-1.32 0-1.98-.576-1.98-1.723 0-1.149.488-2.481 1.469-3.998.929-1.469 1.66-2.2 2.199-2.2h.074c.637 0 .955.364.955 1.097l-.296 1.395c0 .246.099.367.296.367 2.59 0 6.993-5.283 13.204-15.849 2.494-4.255 5.673-9.096 9.538-14.526 3.863-5.429 7.604-9.88 11.227-13.354-8.458 1.078-16.529 1.615-24.208 1.615zm44.316-10.858c-4.694 0-9.563 2.25-14.601 6.749 3.619-.537 6.736-1.197 9.354-1.979 2.615-.782 4.461-1.515 5.539-2.202 1.074-.684 1.613-1.284 1.613-1.798s-.633-.77-1.905-.77zM212.01 63.055c-.294 0-.439-.107-.439-.33 0-.219.171-.475.515-.769 1.614-1.32 2.421-2.519 2.421-3.595 0-.685-.609-1.075-1.834-1.176-2.201.051-4.831 1.64-7.888 4.771-3.058 3.132-4.585 5.478-4.585 7.043 0 .538.305.808.916.808s1.431-.414 2.459-1.248c.928-.586 2.667-2.053 5.209-4.401.587-.587 1.146-.88 1.688-.88.684 0 1.025.317 1.025.953 0 .246-.072.439-.221.588a18.11 18.11 0 00-.808.916c-.393.467-.733.895-1.024 1.283-.883 1.272-1.321 2.104-1.321 2.494 0 .981.392 1.469 1.174 1.469 1.028 0 2.96-.94 5.796-2.824 2.838-1.883 5.432-3.779 7.777-5.687l3.521-2.788c.342-.244.66-.365.952-.365.294 0 .44.17.44.514v.146a132.178 132.178 0 01-11.922 8.949c-4.182 2.789-6.935 4.182-8.254 4.182-1.565 0-2.349-.83-2.349-2.493 0-.392.073-.759.222-1.103.146-.34.22-.586.22-.731 0-.147-.05-.244-.146-.294-.146 0-1.09.66-2.824 1.98-1.737 1.319-3.252 1.979-4.549 1.979-1.298 0-1.945-.684-1.945-2.053 0-1.367.918-3.216 2.752-5.539 1.836-2.322 4.293-4.438 7.375-6.346s6.089-2.861 9.022-2.861c.685 0 1.261.172 1.724.514.466.343.697.869.697 1.578 0 .71-.709 1.771-2.127 3.191-1.421 1.418-2.644 2.125-3.669 2.125z"/><path d="M240.402 59.607c.393-.242.697-.365.916-.365.223 0 .33.146.33.439v.221c.195 0-1.111 1.076-3.924 3.229s-5.82 4.305-9.023 6.456c-3.205 2.153-5.223 3.228-6.053 3.228-1.42 0-2.129-.588-2.129-1.76 0-1.418 1.223-4.097 3.668-8.035 2.444-3.938 4.229-5.906 5.355-5.906.832 0 1.248.32 1.248.955 0 .637-1.126 2.373-3.376 5.209-2.251 2.836-3.376 4.867-3.376 6.089 0 .687.257 1.028.771 1.028.512 0 1.797-.687 3.851-2.056 3.669-2.444 7.044-4.915 10.125-7.409l1.617-1.323zm-6.052-9.902c.465 0 .832.146 1.102.439.268.293.402.709.402 1.246 0 .539-.367 1.224-1.101 2.055-.733.832-1.37 1.248-1.907 1.248-.539 0-.931-.16-1.173-.478a1.743 1.743 0 01-.368-1.101c0-.413.391-1.088 1.176-2.02.781-.926 1.404-1.389 1.869-1.389z"/><path d="M257.938 59.682c.342-.244.66-.365.955-.365s.439.17.439.514v.146c-5.088 4.207-8.95 7.142-11.594 8.804-3.422 2.594-6.309 3.889-8.656 3.889-2.057 0-3.081-1.222-3.081-3.669 0-3.277 2.114-8.13 6.347-14.562 4.229-6.433 8.986-12.215 14.27-17.353 5.283-5.135 9.27-7.703 11.96-7.703 1.223 0 1.835.538 1.835 1.614 0 2.69-3.217 7.129-9.648 13.317-6.433 6.188-12.755 11.458-18.966 15.812-1.81 3.473-2.714 6.116-2.714 7.923 0 1.81.636 2.716 1.908 2.716 1.27 0 2.934-.734 4.99-2.203 3.47-2.053 6.847-4.498 10.123-7.336l1.832-1.544zm8.803-27.955c-2.054 0-5.698 2.96-10.933 8.879-5.234 5.917-9.562 11.837-12.986 17.755 5.625-4.01 11.127-8.916 16.51-14.711 5.38-5.796 8.068-9.55 8.068-11.262 0-.44-.216-.661-.659-.661z"/><path d="M263.66 65.552c2.738 0 6.017-1.543 9.832-4.622l1.247.366c-4.794 4.011-8.929 6.017-12.4 6.017-.394 0-.685-.023-.88-.074-1.32 1.613-2.764 2.926-4.329 3.926-1.565 1.002-2.937 1.505-4.11 1.505-1.857 0-2.787-1.039-2.787-3.119 0-2.079 1.736-4.854 5.209-8.327-.588-1.42-.879-2.91-.879-4.476s.56-2.836 1.687-3.815c1.124-.979 2.433-1.468 3.925-1.468s2.75.488 3.778 1.468c1.026.979 1.541 2.373 1.541 4.183 0 2.788-.905 5.575-2.716 8.364.197.047.49.072.882.072zm-10.419 3.594c0 .979.635 1.468 1.907 1.468 1.27 0 2.884-1.296 4.843-3.89-1.32-.684-2.495-1.883-3.521-3.594-2.156 2.349-3.229 4.354-3.229 6.016zm8.071-4.328c1.515-2.543 2.273-4.709 2.273-6.494 0-1.784-.439-3.105-1.32-3.961-.881-.854-1.736-1.284-2.567-1.284-1.714 0-2.567.88-2.567 2.641s.393 3.511 1.174 5.245c.78 1.738 1.783 3.021 3.007 3.853z"/><path d="M291.172 59.682c.342-.244.66-.365.953-.365.296 0 .441.17.441.514v.146a268.056 268.056 0 01-10.859 8.252c-3.57 2.568-6.188 3.854-7.852 3.854-1.223 0-1.834-.661-1.834-1.98 0-1.321.588-2.643 1.762-3.963 1.175-1.32 2.335-2.47 3.484-3.447 1.148-.979 1.723-1.627 1.723-1.944s-.182-.685-.551-1.101c-.364-.414-.672-.697-.916-.845-.832.831-2.641 2.349-5.43 4.55l-.293-1.103c3.083-2.445 4.867-4.083 5.356-4.915v-.66c0-1.223.121-2.055.367-2.495.242-.438.832-1.051 1.761-1.832.93-.783 1.565-1.177 1.907-1.177.343 0 .646.122.918.367.269.244.401.489.401.733s-.085.524-.256.844a5.951 5.951 0 01-.515.808c-.172.222-.402.489-.696.81-.294.316-.478.537-.55.658-.074.123-.146.33-.221.625a1.33 1.33 0 01-.478.732.899.899 0 00-.367.732c0 .295.195.941.589 1.944.391 1.002.586 1.736.586 2.2 0 .467-.904 1.566-2.715 3.305-1.81 1.737-2.714 3.144-2.714 4.219 0 .586.269.879.808.879.684 0 1.957-.61 3.815-1.834l.88-.588a151.36 151.36 0 008.952-6.676l1.544-1.247z"/></g></svg>