<svg xmlns="http://www.w3.org/2000/svg" viewBox="0 0 140 85"><g transform="translate(30 34)" fill="#FFF"><path d="M24.564 10.568c.396.42.864.758 1.402 1.012a3.859 3.859 0 001.675.383c.736 0 1.309-.167 1.717-.502.408-.334.612-.773.612-1.316 0-.283-.048-.525-.145-.723a1.573 1.573 0 00-.391-.51 2.882 2.882 0 00-.586-.383 59.581 59.581 0 00-.731-.357l-1.598-.697c-.261-.113-.527-.25-.799-.408s-.516-.351-.731-.578a2.775 2.775 0 01-.527-.808 2.681 2.681 0 01-.204-1.08c0-.419.088-.811.264-1.173.176-.363.419-.677.731-.944.312-.266.68-.473 1.105-.62a4.268 4.268 0 011.402-.221 4.46 4.46 0 011.853.382 4.635 4.635 0 011.445.995l-.765.918c-.34-.329-.717-.586-1.13-.773s-.881-.281-1.403-.281c-.623 0-1.125.145-1.504.434-.379.289-.569.688-.569 1.199 0 .272.054.501.162.688.107.187.252.351.433.493.182.142.38.267.595.374.215.108.437.207.663.298l1.581.68c.317.136.618.292.901.468s.527.379.731.612.366.504.484.816c.119.312.179.672.179 1.08a2.949 2.949 0 01-1.02 2.252 3.587 3.587 0 01-1.19.68 4.71 4.71 0 01-1.581.247 5.358 5.358 0 01-3.91-1.649l.849-.988zm9.713-1.682c0-.668.099-1.272.298-1.81.198-.539.461-.995.791-1.369.329-.374.708-.663 1.139-.867s.884-.306 1.36-.306c.476 0 .896.082 1.258.246a4.54 4.54 0 011.105.74h.034l.136-.782h1.123v11.747h-1.412v-2.94l.068-1.462a5.108 5.108 0 01-1.13.791 2.887 2.887 0 01-1.352.331c-1.042 0-1.873-.374-2.49-1.122s-.928-1.814-.928-3.197zm1.445-.017c0 .997.198 1.773.595 2.329.397.556.958.833 1.683.833.385 0 .748-.094 1.088-.281.34-.187.68-.473 1.02-.857V6.574c-.351-.317-.688-.542-1.011-.672a2.643 2.643 0 00-.995-.195c-.329 0-.638.077-.927.229-.289.153-.541.368-.756.646s-.385.609-.51.995a4.173 4.173 0 00-.187 1.292zm9.781-4.131h1.411v5.049c0 .781.121 1.346.365 1.691s.638.519 1.182.519c.431 0 .811-.11 1.139-.331.329-.222.691-.576 1.088-1.062V4.738h1.395V13h-1.156l-.119-1.292h-.051a5.558 5.558 0 01-1.215 1.088c-.426.272-.928.408-1.505.408-.884 0-1.527-.272-1.93-.815-.402-.545-.604-1.35-.604-2.414V4.738zm10.155 4.148c0-.68.104-1.289.314-1.827.209-.539.487-.995.833-1.369s.739-.66 1.181-.858a3.34 3.34 0 011.377-.297c.521 0 .99.09 1.403.272a2.74 2.74 0 011.037.782c.277.34.489.748.638 1.224.146.476.221 1.009.221 1.598 0 .306-.018.561-.051.765h-5.576c.057.896.332 1.604.824 2.125.493.521 1.137.782 1.93.782.396 0 .762-.06 1.097-.179.334-.118.654-.274.96-.468l.493.918c-.362.227-.765.426-1.207.596s-.946.255-1.513.255a4.034 4.034 0 01-1.556-.298 3.68 3.68 0 01-1.258-.85c-.356-.369-.638-.818-.842-1.352s-.305-1.139-.305-1.819zm5.78-.629c0-.85-.178-1.499-.535-1.946s-.858-.671-1.504-.671a2.04 2.04 0 00-.842.178 2.323 2.323 0 00-.723.51 2.694 2.694 0 00-.535.816 3.751 3.751 0 00-.281 1.113h4.42zm4.052.629c0-.68.104-1.289.314-1.827.209-.539.487-.995.833-1.369s.739-.66 1.181-.858a3.34 3.34 0 011.377-.297c.521 0 .99.09 1.403.272a2.74 2.74 0 011.037.782c.277.34.489.748.638 1.224.146.476.221 1.009.221 1.598 0 .306-.018.561-.051.765h-5.576c.057.896.332 1.604.824 2.125.493.521 1.137.782 1.93.782.396 0 .762-.06 1.096-.179.335-.118.655-.274.961-.468l.493.918c-.362.227-.765.426-1.207.596s-.946.255-1.513.255a4.034 4.034 0 01-1.556-.298 3.68 3.68 0 01-1.258-.85c-.357-.369-.638-.818-.842-1.352s-.305-1.139-.305-1.819zm5.78-.629c0-.85-.178-1.499-.535-1.946s-.858-.671-1.504-.671a2.04 2.04 0 00-.842.178 2.323 2.323 0 00-.723.51 2.694 2.694 0 00-.535.816 3.751 3.751 0 00-.281 1.113h4.42zm4.664-3.519h1.156l.119 1.496h.051c.283-.521.627-.935 1.029-1.241a2.127 2.127 0 011.316-.459c.329 0 .624.057.885.17l-.272 1.224a3.295 3.295 0 00-.374-.102 2.19 2.19 0 00-.425-.034c-.351 0-.717.142-1.097.425-.379.284-.711.776-.994 1.479V13h-1.395V4.738z"/><path stroke="#FFF" stroke-width="2" d="M2 1h13a1 1 0 011 1v13a1 1 0 01-1 1H2a1 1 0 01-1-1V2a1 1 0 011-1z"/><path stroke="#FFF" stroke-linecap="square" d="M8.5 1.5v14.318"/><circle stroke="#FFF" cx="8.5" cy="8.5" r="2.5"/></g></svg>