<svg xmlns="http://www.w3.org/2000/svg" viewBox="0 0 140 85"><path fill="#FFF" d="M42.386 35.264H46.4c.612 0 1.179.045 1.701.135.522.09.978.249 1.368.477.39.228.696.528.918.9.222.372.333.84.333 1.404 0 .264-.039.528-.117.792a2.47 2.47 0 01-.963 1.35c-.252.18-.546.312-.882.396v.072c.84.156 1.473.456 1.899.9.426.444.639 1.062.639 1.854 0 .601-.117 1.116-.351 1.548-.234.432-.558.789-.972 1.071s-.897.492-1.449.63a7.282 7.282 0 01-1.782.207h-4.356V35.264zm3.888 4.734c.648 0 1.119-.129 1.413-.387.294-.258.441-.609.441-1.053s-.15-.762-.45-.954c-.3-.192-.762-.288-1.386-.288h-1.26v2.682h1.242zm.252 4.95c1.452 0 2.178-.534 2.178-1.603 0-.516-.18-.891-.54-1.125-.36-.233-.906-.35-1.638-.35h-1.494v3.078h1.494zm7.848-8.19c-.444 0-.81-.129-1.098-.387-.288-.258-.432-.591-.432-.999s.144-.738.432-.99.654-.378 1.098-.378c.456 0 .825.126 1.107.378.282.252.423.582.423.99s-.141.741-.423.999c-.282.258-.651.387-1.107.387zm-1.314 1.314h2.646V47H53.06v-8.928zm6.588 10.044c0 .336.18.591.54.765s.84.262 1.44.262 1.092-.105 1.476-.315.576-.472.576-.783c0-.276-.117-.462-.351-.558s-.573-.145-1.017-.145h-.918a8.45 8.45 0 01-.756-.027 3.56 3.56 0 01-.504-.08c-.324.286-.486.581-.486.881zm-2.178.414c0-.72.426-1.32 1.278-1.8v-.072a2.002 2.002 0 01-.594-.594c-.156-.24-.234-.547-.234-.918 0-.324.096-.633.288-.928.192-.294.432-.543.72-.746V43.4c-.312-.217-.591-.525-.837-.927s-.369-.867-.369-1.395c0-.54.102-1.011.306-1.413a2.99 2.99 0 01.819-1.008c.342-.27.735-.471 1.179-.603a4.838 4.838 0 011.386-.198c.528 0 .99.072 1.386.216h3.258v1.926h-1.422c.084.132.153.3.207.504.054.204.081.426.081.666 0 .516-.09.963-.27 1.341a2.56 2.56 0 01-.747.937c-.318.246-.69.429-1.116.549a5.06 5.06 0 01-1.377.18 3.51 3.51 0 01-1.08-.18.893.893 0 00-.252.288.849.849 0 00-.072.378c0 .229.099.396.297.504.198.107.549.162 1.053.162h1.44c1.104 0 1.947.177 2.529.531.582.354.873.933.873 1.736 0 .469-.117.897-.351 1.287a3.116 3.116 0 01-.999 1.008c-.432.282-.954.504-1.566.666-.612.162-1.302.243-2.07.243a7.485 7.485 0 01-1.467-.135 4.423 4.423 0 01-1.188-.405 2.138 2.138 0 01-.801-.701 1.812 1.812 0 01-.288-1.027zm3.942-5.958c.348 0 .639-.123.873-.369.234-.246.351-.621.351-1.125 0-.468-.117-.825-.351-1.071a1.156 1.156 0 00-.873-.369c-.348 0-.639.12-.873.36-.234.24-.351.6-.351 1.08 0 .504.117.879.351 1.125s.525.369.873.369zm6.444-7.308h2.646v4.518h4.05v-4.518h2.664V47h-2.664v-4.896h-4.05V47h-2.646V35.264zm11.826 2.808h2.646v5.201c0 .648.09 1.093.27 1.332.18.24.463.36.846.36.336 0 .619-.077.847-.233s.474-.408.737-.756v-5.904h2.646V47h-2.16l-.197-1.242h-.055a4.869 4.869 0 01-1.232 1.071c-.438.258-.963.387-1.575.387-.972 0-1.677-.317-2.115-.954-.438-.636-.657-1.518-.657-2.646v-5.544zm10.314-3.69h2.646v3.096l-.072 1.368a4.152 4.152 0 011.125-.729 3.071 3.071 0 011.232-.261c.54 0 1.026.108 1.459.324.432.216.801.519 1.106.909.306.39.54.864.702 1.422.162.558.242 1.179.242 1.863 0 .769-.104 1.452-.314 2.052s-.492 1.107-.846 1.521a3.67 3.67 0 01-1.207.945 3.195 3.195 0 01-1.395.323 2.76 2.76 0 01-1.197-.288 3.655 3.655 0 01-1.125-.863h-.071l-.215.936h-2.07V34.382zm2.647 10.098c.239.215.479.365.719.449.24.084.475.127.703.127.455 0 .846-.207 1.17-.621s.486-1.084.486-2.008c0-1.608-.517-2.412-1.549-2.412-.527 0-1.038.27-1.529.81v3.655z"/></svg>