<svg xmlns="http://www.w3.org/2000/svg" viewBox="0 0 140 85"><path fill="#FFF" d="M27.235 34.303l-.562-.023c-.562 0-.842.176-.842.528 0 .749.056 1.857.168 3.324s.168 2.576.168 3.324c.18 0 .438-.045.775-.135s.575-.135.713-.135.243.052.314.157a.537.537 0 01.108.304c0 .187-.159.303-.478.348-.317.046-.636.083-.953.113-.318.03-.478.12-.478.27 0 .869.073 2.162.219 3.88.146 1.718.219 3.008.219 3.869l-.067.123a.9.9 0 01.067.337c0 .263-.168.394-.505.394-.262 0-.393-.521-.393-1.562l.022-.741c0-.779-.049-1.938-.146-3.476-.097-1.539-.146-2.694-.146-3.465 0-4.447-.146-6.854-.438-7.221v-.146c0-.546.76-.82 2.28-.82.254 0 .382.176.382.528 0 .15-.142.225-.427.225zm5.009 16.913c-.217 0-.326-.187-.326-.562l.112-4.436-.157-1.865c0-.246-.047-.605-.141-1.078-.093-.471-.14-.797-.14-.977s-.02-.377-.062-.594c-.041-.218-.099-.479-.174-.787s-.128-.544-.163-.713c-.033-.168-.121-.627-.263-1.375-.307-1.565-.567-2.705-.78-3.419-.214-.715-.32-1.17-.32-1.365 0-.314.153-.472.46-.472l.27.18c.037.621.237 1.83.6 3.627.363 1.797.646 2.834.848 3.111.24-.704.404-1.585.494-2.645a107.2 107.2 0 01.225-2.409c.134-1.198.348-1.797.64-1.797.232 0 .348.083.348.247 0 .12-.03.287-.09.5-.06.214-.103.403-.129.567-.026.165-.112.655-.259 1.471-.146.816-.252 1.43-.32 1.842-.202 1.22-.303 2.34-.303 3.358l.067.752-.145.349v.18l.168 2.763c0 2.074-.015 3.623-.045 4.649l.067.067.022.157a.865.865 0 01-.129.466.415.415 0 01-.375.208zm9.4-1.528l.067.831c0 .449-.195.674-.584.674-.27 0-.453-.288-.55-.865-.052-.27-.083-.419-.09-.449-1.498-4.724-2.441-8.175-2.83-10.354a2.147 2.147 0 01-.034-.314c-.015-.307-.086-.524-.213-.651l.045-.112c-.097-.569-.17-.964-.219-1.185l-.163-.747a7.397 7.397 0 00-.404-1.314c-.045.314-.067.554-.067.719s.015.292.045.382c-.105.359-.157.891-.157 1.595v6.301c0 .733.052 1.826.157 3.279.105 1.452.157 2.545.157 3.279l-.157.18h-.528l-.067-.18c.03-.12.045-.428.045-.922l-.258-8.007v-3.01l.168-4.346-.022-.483c0-.195.051-.324.151-.388a.737.737 0 01.394-.095c.161 0 .301.047.421.14.12.094.18.242.18.444s.034.423.101.663.165.507.292.803c.127.296.227.565.297.809.071.244.137.633.197 1.168.06.536.131 1.009.213 1.421s.217.966.404 1.662.402 1.467.646 2.313c.244.846.399 1.402.466 1.668s.157.604.27 1.016c.24.854.367 1.457.382 1.809.105.157.185.461.242.91.056.449.181.756.376.92.097-.217.146-.584.146-1.1l.09-8.008-.067-3.56.067-.876c0-.165-.022-.262-.067-.292l.067-.191c0-.943-.03-1.572-.09-1.887.06-.209.251-.314.573-.314.247 0 .371.251.371.752-.097.195-.146.449-.146.764l.022.775c0 .33-.03.562-.09.696l-.067 7.266c0 .143.015.349.045.618l-.045.101v2.898l.045.864c0 .913-.075 1.542-.225 1.887v.043zm8.669 0l.067.831c0 .449-.195.674-.584.674-.27 0-.453-.288-.55-.865-.052-.27-.083-.419-.09-.449-1.498-4.724-2.441-8.175-2.83-10.354a2.18 2.18 0 01-.033-.315c-.015-.307-.086-.524-.213-.651l.045-.112c-.097-.569-.17-.964-.219-1.185l-.163-.747a7.397 7.397 0 00-.404-1.314c-.045.314-.067.554-.067.719s.015.292.045.382c-.105.359-.157.891-.157 1.595v6.301c0 .733.052 1.826.157 3.279.105 1.452.157 2.545.157 3.279l-.157.18h-.528l-.067-.18c.03-.12.045-.428.045-.922l-.258-8.007v-3.01l.168-4.346-.022-.483c0-.195.051-.324.151-.388a.737.737 0 01.394-.095c.161 0 .301.047.421.14.12.094.18.242.18.444s.034.423.101.663.165.507.292.803c.127.296.227.565.297.809.071.244.137.633.197 1.168.06.536.131 1.009.213 1.421s.217.966.404 1.662.402 1.467.646 2.313c.244.846.399 1.402.466 1.668s.157.604.27 1.016c.24.854.367 1.457.382 1.809.105.157.185.461.242.91.056.449.181.756.376.92.097-.217.146-.584.146-1.1l.09-8.008-.067-3.56.067-.876c0-.165-.022-.262-.067-.292l.067-.191c0-.943-.03-1.572-.09-1.887.06-.209.251-.314.573-.314.247 0 .371.251.371.752-.097.195-.146.449-.146.764l.022.775c0 .33-.03.562-.09.696l-.067 7.266c0 .143.015.349.045.618l-.045.101v2.898l.045.864c0 .913-.075 1.542-.225 1.887v.044zm4.987 1.248l-.719-.023c-.083 0-.187.047-.314.141s-.243.141-.348.141-.211-.049-.32-.146a.438.438 0 01-.163-.336l.135-1.045-.225-6.525-.236-9.615c0-.157.101-.236.303-.236.292 0 .438.139.438.416 0 3.542.038 5.786.112 6.733.075.947.112 1.533.112 1.757s-.015.524-.045.898l.067.09c-.03.404-.045.814-.045 1.23 0 .415.04 1.211.118 2.387.079 1.175.125 2.01.141 2.504-.06.09-.09.243-.09.461 0 .217.036.363.106.438.071.074.223.112.455.112s.389-.049.472-.146h.854c.209.104.314.225.314.359 0 .299-.105.449-.314.449a1.52 1.52 0 01-.348-.09c-.074.03-.228.046-.46.046zm8.625-6.942l-.213 2.965.045.09c-.12.518-.18.981-.18 1.393 0 .412-.083.837-.247 1.275a3.53 3.53 0 01-.736 1.179c-.325.349-.675.522-1.05.522s-.723-.143-1.044-.427-.589-.649-.803-1.095a9.106 9.106 0 01-.562-1.584c-.161-.609-.286-1.209-.376-1.797s-.165-1.195-.225-1.824a32.466 32.466 0 01-.135-2.724c0-.768.034-1.642.101-2.623s.105-1.613.112-1.898.015-.535.022-.752.026-.477.056-.781a7.24 7.24 0 01.118-.797c.048-.229.122-.462.219-.702s.217-.438.359-.595c.314-.352.754-.528 1.319-.528s1.032.153 1.398.46c.052.083.189.266.41.55.221.285.385.556.494.814.108.258.23.893.365 1.903.369 2.623.553 4.948.553 6.976zm-3.178-10.107c-1.13 0-1.696 2.272-1.696 6.817v.898c0 1.063.081 2.207.241 3.431.161 1.225.33 2.219.506 2.982.176.764.423 1.414.741 1.953.318.539.672.809 1.061.809.524 0 .906-.533 1.146-1.6.24-1.067.382-2.016.427-2.848.052-1.138.079-1.879.079-2.223v-.551c0-.285-.002-.525-.006-.725l-.017-.977c-.008-.451-.023-.853-.045-1.205s-.052-.779-.09-1.28-.09-.949-.157-1.342a59.465 59.465 0 00-.23-1.258 6.854 6.854 0 00-.314-1.151 6.524 6.524 0 00-.421-.898c-.323-.555-.731-.832-1.225-.832zm6.322 5.728l-.202 1.662c0 .906.101 2.418.303 4.538.202 2.118.408 3.339.618 3.66.404.622 1.009.933 1.813.933.805 0 1.395-.221 1.77-.663.142 0 .318-.025.527-.078l.112.123c0 .734-.584 1.213-1.752 1.438-.277.053-.59.079-.938.079-.349 0-.758-.173-1.23-.517s-.805-.727-1-1.146-.386-1.722-.573-3.908-.281-4.11-.281-5.772.049-2.643.146-2.942a3.819 3.819 0 01-.079-.741c0-.921.33-1.638.988-2.15.659-.513 1.467-.77 2.426-.77.262 0 .548.083.859.247.311.165.466.367.466.606 0 .172-.119.258-.359.258-.067 0-.161-.047-.281-.14-.12-.094-.219-.141-.297-.141a.8.8 0 00-.253.045c-.18-.06-.363-.09-.55-.09s-.414.039-.679.118c-.266.078-.487.18-.663.303a1.593 1.593 0 00-.449.5c-.123.209-.219.41-.286.601-.067.191-.12.437-.157.736-.045.427-.067.955-.067 1.583l.068 1.628zm12.253 11.848l-.314-.09c-.3-1.774-.757-3.753-1.371-5.936-.613-2.182-1.172-3.752-1.673-4.711l-.067.045c-.045.18-.206.505-.482.977-.277.472-.432.844-.461 1.118-.029.272-.045.81-.045 1.611l.112 5.076c0 .966-.161 1.448-.483 1.448-.276 0-.415-.354-.415-1.061 0-.708.051-1.771.151-3.189.102-1.419.152-2.484.152-3.195l-.09-8.266-.045-.09-.169-1.078c0-.322.131-.483.394-.483.135 0 .229.015.286.045.055.031.106.136.151.316.074.27.112 1.037.112 2.302l-.09 4.93h.022c.307-.651.717-1.615 1.229-2.892.513-1.276.804-1.993.87-2.15.834-2.127 1.377-3.19 1.631-3.19.262 0 .393.112.393.337a2.027 2.027 0 01-.291.797 6.036 6.036 0 00-.293.505c-.037.083-.164.354-.381.814-.218.46-.404.861-.562 1.201-.156.341-.332.74-.527 1.196-.427.981-.655 1.625-.686 1.932l.113.202-.09.067c.523 1.318 1.128 3.219 1.813 5.705s1.207 4.241 1.566 5.268c-.022.292-.176.439-.46.439zm2.762-17.385l-.045-.416c0-.135.154-.202.461-.202.629 0 1.109.176 1.443.528.333.352.554.73.662 1.134.109.404.193.711.253.921.128.457.19.812.19 1.067 0 .771-.213 1.7-.64 2.785-.276.689-.415 1.071-.415 1.146 0 .749.299 2.26.898 4.531.599 2.272 1.089 3.885 1.471 4.835 0 .501-.102.753-.303.753a.462.462 0 01-.388-.208 2.841 2.841 0 00-.186-.241c-.045-.6-.241-1.433-.59-2.499-.348-1.067-.562-1.778-.64-2.134a80.118 80.118 0 01-.422-2.174c-.201-1.093-.381-1.931-.539-2.515l-.18-.135-.438.18v8.625l.045.573c0 .308-.139.46-.416.46-.111 0-.205-.035-.28-.106s-.112-.163-.112-.274l.078-.124.09-13.959v-2.551zm.641.112l-.112 5.02c0 .659.022 1.149.067 1.471h.045c.112 0 .312-.157.601-.472s.487-.565.596-.752.196-.498.264-.932.101-.795.101-1.084c0-.288-.02-.589-.062-.904-.041-.314-.106-.655-.196-1.022s-.232-.672-.427-.915c-.194-.244-.423-.365-.685-.365v-.067l-.192.022zm11.937 16.656l-.729-.113c-.173 0-.349.09-.528.27-.344 0-.561-.06-.65-.18h-.057c-.703 0-1.111-.131-1.225-.393 0-.172.176-.258.528-.258l.505.021c.308 0 .465-.221.473-.662.007-.441-.014-.98-.062-1.617s-.078-1.27-.09-1.898c-.011-.629-.055-1.853-.129-3.672s-.123-3.126-.146-3.919l.023-2.695c0-.741-.023-1.187-.068-1.336l-.785.168c-.165 0-.248-.107-.248-.32 0-.214.338-.39 1.012-.528.674-.138 1.13-.208 1.369-.208.404 0 .607.125.607.376 0 .25-.094.376-.281.376l-.551-.022c-.262 0-.419.124-.471.371-.053.202-.079.797-.079 1.786s.096 2.946.286 5.874c.191 2.927.287 5.128.287 6.604l-.023 1.189.832-.066c.396 0 .595.19.595.572l-.395.28zm8.289-1.158l.066.831c0 .449-.194.674-.584.674-.27 0-.453-.288-.55-.865-.052-.27-.083-.419-.09-.449-1.497-4.724-2.44-8.175-2.83-10.354a2.147 2.147 0 01-.034-.314c-.015-.307-.086-.524-.213-.651l.045-.112c-.098-.569-.17-.964-.219-1.185a89.58 89.58 0 01-.163-.747 7.236 7.236 0 00-.404-1.314c-.045.314-.067.554-.067.719s.016.292.045.382c-.105.359-.157.891-.157 1.595v6.301c0 .733.052 1.826.157 3.279.105 1.452.157 2.545.157 3.279l-.157.18h-.527l-.068-.18c.03-.12.045-.428.045-.922l-.258-8.007v-3.01l.168-4.346-.021-.483c0-.195.05-.324.151-.388.101-.063.231-.095.393-.095s.302.047.421.14c.12.094.18.242.18.444s.034.423.102.663.164.507.292.803c.128.296.227.565.298.809.07.244.137.633.196 1.168.06.536.131 1.009.214 1.421.082.412.217.966.404 1.662.187.696.402 1.467.646 2.313.243.846.398 1.402.466 1.668s.157.604.27 1.016c.24.854.367 1.457.382 1.809.104.157.186.461.241.91.057.449.182.756.377.92.097-.217.146-.584.146-1.1l.09-8.008-.067-3.56.067-.876c0-.165-.022-.262-.067-.292l.067-.191c0-.943-.03-1.572-.09-1.887.06-.209.251-.314.573-.314.246 0 .37.251.37.752-.097.195-.146.449-.146.764l.021.775c0 .33-.029.562-.09.696l-.066 7.266c0 .143.015.349.045.618l-.045.101v2.898l.045.864c0 .913-.075 1.542-.225 1.887v.043zm3.605-10.073l-.202 1.662c0 .906.102 2.418.303 4.538.203 2.118.408 3.339.618 3.66.404.622 1.009.933 1.813.933s1.395-.221 1.77-.663c.142 0 .318-.025.527-.078l.112.123c0 .734-.584 1.213-1.752 1.438-.276.053-.59.079-.938.079-.349 0-.759-.173-1.229-.517-.473-.344-.805-.727-1-1.146s-.386-1.722-.572-3.908c-.188-2.187-.281-4.11-.281-5.772s.049-2.643.146-2.942a3.743 3.743 0 01-.079-.741c0-.921.329-1.638.988-2.15.659-.513 1.468-.77 2.426-.77.263 0 .548.083.859.247.311.165.466.367.466.606 0 .172-.119.258-.359.258-.067 0-.161-.047-.281-.14-.119-.094-.219-.141-.297-.141a.8.8 0 00-.253.045c-.18-.06-.363-.09-.55-.09a2.45 2.45 0 00-.68.118c-.266.078-.486.18-.663.303a1.593 1.593 0 00-.449.5c-.123.209-.219.41-.286.601a3.683 3.683 0 00-.157.736c-.045.427-.067.955-.067 1.583l.067 1.628zm7.328 11.236a.57.57 0 01-.151-.388c0-.142.062-.278.185-.409.124-.132.257-.196.399-.196.142 0 .271.064.387.196a.602.602 0 01.174.398c0 .382-.213.573-.64.573a.456.456 0 01-.354-.174z"/></svg>