<?xml version="1.0" encoding="utf-8"?>
<!-- Generator: Adobe Illustrator 25.2.1, SVG Export Plug-In . SVG Version: 6.00 Build 0)  -->
<svg version="1.1" id="Ebene_1" xmlns="http://www.w3.org/2000/svg" xmlns:xlink="http://www.w3.org/1999/xlink" x="0px" y="0px"
	 viewBox="0 0 194.51 34.06" style="enable-background:new 0 0 194.51 34.06;" xml:space="preserve">
<style type="text/css">
	.st0{fill:#FFFFFF;}
</style>
<g>
	<path class="st0" d="M0,1.43h17.41v3.84h-6.32v19.89H6.32V5.27H0V1.43z"/>
	<path class="st0" d="M28.25,6.02c3.03,0,5.1,1.43,6.22,2.99V6.32h4.79v18.83h-4.79V22.4c-1.12,1.63-3.26,3.06-6.26,3.06
		c-4.76,0-8.57-3.91-8.57-9.79S23.46,6.02,28.25,6.02z M29.48,10.2c-2.55,0-4.96,1.9-4.96,5.47s2.41,5.61,4.96,5.61
		c2.62,0,5-1.97,5-5.54C34.47,12.17,32.09,10.2,29.48,10.2z"/>
	<path class="st0" d="M43.93,0h4.76v14.31l6.32-7.99h6.19l-8.3,9.45l8.36,9.38h-6.19l-6.39-8.02v8.02h-4.76V0z"/>
	<path class="st0" d="M72.01,25.46c-5.47,0-9.45-3.81-9.45-9.72c0-5.95,3.88-9.72,9.45-9.72c5.44,0,9.28,3.71,9.28,9.31
		c0,0.61-0.03,1.22-0.14,1.84H67.39c0.24,2.79,2.14,4.35,4.52,4.35c2.04,0,3.16-1.02,3.77-2.28h5.13
		C79.8,22.71,76.67,25.46,72.01,25.46z M67.42,13.97h8.94c-0.07-2.48-2.04-4.05-4.49-4.05C69.6,9.93,67.79,11.39,67.42,13.97z"/>
	<path class="st0" d="M107.4,20.64h-9.45l-1.56,4.52h-5l8.53-23.76h5.54L114,25.16h-5.03L107.4,20.64z M102.68,6.9l-3.43,9.93h6.87
		L102.68,6.9z"/>
	<path class="st0" d="M115.09,6.32h4.83l3.33,14.35l3.6-14.35h5.03l3.54,14.31l3.33-14.31h4.56l-5.51,18.83h-5.13L129.23,12
		l-3.43,13.16h-5.17L115.09,6.32z"/>
	<path class="st0" d="M153.27,6.02c3.03,0,5.1,1.43,6.22,2.99V6.32h4.79v18.83h-4.79V22.4c-1.12,1.63-3.26,3.06-6.25,3.06
		c-4.76,0-8.57-3.91-8.57-9.79S148.48,6.02,153.27,6.02z M154.49,10.2c-2.55,0-4.96,1.9-4.96,5.47s2.41,5.61,4.96,5.61
		c2.62,0,5-1.97,5-5.54C159.49,12.17,157.11,10.2,154.49,10.2z"/>
	<path class="st0" d="M181.9,6.32h5.07L175.3,34.06h-5.07l4.08-9.38l-7.55-18.36h5.34l4.86,13.16L181.9,6.32z"/>
	<path class="st0" d="M191.62,25.4c-1.73,0-2.96-1.22-2.96-2.79s1.22-2.79,2.96-2.79c1.67,0,2.89,1.22,2.89,2.79
		S193.29,25.4,191.62,25.4z"/>
</g>
</svg>
