<?xml version="1.0" encoding="UTF-8"?>
<svg xmlns="http://www.w3.org/2000/svg" version="1.1" viewBox="0 0 70.6 16.3">
  <defs>
    <style>
      .cls-1 {
        fill: #1d1d1b;
      }
    </style>
  </defs>
  <!-- Generator: Adobe Illustrator 28.7.2, SVG Export Plug-In . SVG Version: 1.2.0 Build 154)  -->
  <g>
    <g id="Ebene_1">
      <g>
        <path class="cls-1" d="M14.1,1.9c1.1,1.2,1.7,2.8,1.7,4.9v9.2h-4.8V7.5c0-1.1-.3-1.9-.8-2.5-.5-.6-1.3-.9-2.2-.9s-1.7.3-2.2.9c-.5.6-.8,1.4-.8,2.5v8.6H0V.2h4.8v2.1c.5-.7,1.2-1.3,2-1.7.8-.4,1.8-.6,2.8-.6,1.9,0,3.3.6,4.4,1.8Z"/>
        <path class="cls-1" d="M22.1,15.3c-1.2-.7-2.2-1.6-2.9-2.8-.7-1.2-1.1-2.7-1.1-4.3s.4-3.1,1.1-4.3c.7-1.2,1.7-2.2,2.9-2.8s2.6-1,4.2-1,2.9.3,4.2,1,2.2,1.6,2.9,2.8c.7,1.2,1.1,2.7,1.1,4.3s-.4,3.1-1.1,4.3c-.7,1.2-1.7,2.2-3,2.8-1.3.7-2.7,1-4.2,1s-2.9-.3-4.2-1ZM28.7,11.1c.7-.7,1-1.7,1-2.9s-.3-2.2-.9-2.9c-.6-.7-1.4-1-2.3-1s-1.7.3-2.4,1c-.6.7-.9,1.6-.9,2.9s.3,2.2.9,2.9c.6.7,1.4,1,2.3,1s1.7-.3,2.4-1Z"/>
        <path class="cls-1" d="M44.3,11.5L47.7.2h5.2l-5.6,15.8h-6L35.7.2h5.2l3.4,11.3Z"/>
        <path class="cls-1" d="M54.9,3.8c.6-1.2,1.5-2.2,2.5-2.8,1.1-.7,2.2-1,3.5-1s2.1.2,2.9.7,1.5,1,1.9,1.8V.2h4.8v15.8h-4.8v-2.2c-.5.7-1.1,1.3-2,1.8s-1.8.7-2.9.7-2.5-.3-3.5-1c-1.1-.7-1.9-1.6-2.5-2.9-.6-1.2-.9-2.7-.9-4.3s.3-3.1.9-4.3ZM64.8,5.3c-.7-.7-1.5-1-2.5-1s-1.8.3-2.5,1c-.7.7-1,1.6-1,2.8s.3,2.2,1,2.9c.7.7,1.5,1.1,2.5,1.1s1.8-.3,2.5-1c.7-.7,1-1.7,1-2.9s-.3-2.2-1-2.9Z"/>
      </g>
    </g>
  </g>
</svg>