<?xml version="1.0" encoding="UTF-8" standalone="no"?>
<!-- Created with Inkscape (http://www.inkscape.org/) -->

<svg
   width="54.371334mm"
   height="8.3764267mm"
   viewBox="0 0 54.371334 8.3764267"
   version="1.1"
   id="svg1"
   xmlns="http://www.w3.org/2000/svg"
   xmlns:svg="http://www.w3.org/2000/svg">
  <defs
     id="defs1" />
  <g
     id="layer1"
     transform="translate(-74.643503,-150.86721)">
    <path
       style="font-weight:bold;font-size:11.025px;font-family:Roboto;-inkscape-font-specification:'Roboto Bold';fill:#3b3c42;stroke-width:1.73622"
       d="m 74.643509,159.13597 v -7.83808 h 2.745483 q 1.426575,0 2.164087,0.54909 0.737512,0.54372 0.737512,1.59884 0,0.57602 -0.296081,1.01745 -0.296082,0.43604 -0.823645,0.64061 0.602929,0.15073 0.947461,0.60831 0.349914,0.45758 0.349914,1.11973 0,1.13049 -0.721362,1.71189 -0.721362,0.58139 -2.056421,0.59216 z m 1.61499,-3.41301 v 2.11564 h 1.383508 q 0.57063,0 0.888245,-0.26917 0.322998,-0.27455 0.322998,-0.75366 0,-1.07666 -1.114343,-1.09281 z m 0,-1.14126 h 1.195093 q 1.222009,-0.0215 1.222009,-0.97438 0,-0.53295 -0.312231,-0.76443 -0.306849,-0.23686 -0.974378,-0.23686 h -1.130493 z m 8.591748,0.18841 q -0.317615,-0.0431 -0.559863,-0.0431 -0.882862,0 -1.15741,0.59754 v 3.81138 H 81.5772 v -5.82473 h 1.469641 l 0.04307,0.69445 q 0.468347,-0.80212 1.297375,-0.80212 0.258399,0 0.484497,0.07 z m 0.312231,1.39966 q 0,-0.86671 0.333765,-1.545 0.333765,-0.6783 0.958227,-1.04975 0.629847,-0.37145 1.458875,-0.37145 1.178943,0 1.921838,0.72137 0.748279,0.72136 0.834412,1.95952 l 0.01077,0.39836 q 0,1.34044 -0.748278,2.15332 -0.748279,0.8075 -2.007972,0.8075 -1.259692,0 -2.013354,-0.8075 -0.748279,-0.80749 -0.748279,-2.19638 z m 1.555774,0.11305 q 0,0.82903 0.312232,1.27046 0.312231,0.43605 0.893627,0.43605 0.565247,0 0.882862,-0.43067 0.317614,-0.43604 0.317614,-1.38889 0,-0.81288 -0.317614,-1.25969 -0.317615,-0.44681 -0.893628,-0.44681 -0.57063,0 -0.882861,0.44681 -0.312232,0.44143 -0.312232,1.37274 z m 7.035974,0.5168 -0.559863,0.55986 v 1.77649 h -1.555774 v -8.26875 h 1.555774 v 4.58119 l 0.301464,-0.3876 1.491175,-1.74957 h 1.868005 l -2.104871,2.42787 2.287903,3.39686 h -1.787256 z m 6.346914,2.44402 q -1.281227,0 -2.088722,-0.78596 -0.802112,-0.78597 -0.802112,-2.09411 v -0.15073 q 0,-0.87748 0.339148,-1.56654 0.339148,-0.69445 0.958227,-1.0659 0.624463,-0.37683 1.421192,-0.37683 1.195097,0 1.878767,0.75367 0.68907,0.75366 0.68907,2.13717 v 0.63523 h -3.709097 q 0.07537,0.57063 0.452197,0.91516 0.382214,0.34453 0.96361,0.34453 0.89901,0 1.40504,-0.65138 l 0.76443,0.85594 q -0.34991,0.49527 -0.94746,0.7752 -0.59755,0.27455 -1.32429,0.27455 z m -0.177651,-4.78037 q -0.462964,0 -0.753662,0.31223 -0.285315,0.31223 -0.366064,0.89363 h 2.164087 v -0.12382 q -0.0108,-0.5168 -0.27993,-0.79673 -0.26917,-0.28531 -0.764431,-0.28531 z m 4.888031,-1.15203 0.0485,0.67291 q 0.62447,-0.78058 1.67421,-0.78058 0.92593,0 1.37813,0.54372 0.45219,0.54371 0.46296,1.62575 v 3.76293 h -1.55577 v -3.72524 q 0,-0.49527 -0.21534,-0.71598 -0.21533,-0.2261 -0.71597,-0.2261 -0.65677,0 -0.98515,0.55986 v 4.10746 h -1.55577 v -5.82473 z m 11.04654,4.8342 q -0.43605,0.52218 -1.23278,0.81288 -0.79672,0.28532 -1.76572,0.28532 -1.01744,0 -1.78725,-0.44143 -0.76443,-0.44682 -1.18433,-1.292 -0.41451,-0.84517 -0.42528,-1.98643 v -0.53295 q 0,-1.17356 0.39298,-2.0295 0.39836,-0.86133 1.14126,-1.31353 0.74828,-0.45758 1.74957,-0.45758 1.39428,0 2.18024,0.66753 0.78596,0.66214 0.93131,1.9326 h -1.57192 q -0.10767,-0.67291 -0.47912,-0.98514 -0.36606,-0.31223 -1.01206,-0.31223 -0.82364,0 -1.25431,0.61908 -0.43066,0.61908 -0.43604,1.84109 v 0.50064 q 0,1.23278 0.46834,1.86263 0.46835,0.62984 1.37274,0.62984 0.90978,0 1.29738,-0.3876 v -1.3512 h -1.46964 v -1.18971 h 3.08463 z m 4.4789,-3.37533 q -0.31761,-0.0431 -0.55986,-0.0431 -0.88286,0 -1.15741,0.59754 v 3.81138 h -1.55577 v -5.82473 h 1.46964 l 0.0431,0.69445 q 0.46835,-0.80212 1.29738,-0.80212 0.2584,0 0.4845,0.07 z m 2.39019,4.36586 h -1.56116 v -5.82473 h 1.56116 z m -1.65267,-7.33205 q 0,-0.34992 0.23148,-0.57602 0.23686,-0.2261 0.64061,-0.2261 0.39837,0 0.63523,0.2261 0.23687,0.2261 0.23687,0.57602 0,0.35529 -0.24225,0.58139 -0.23687,0.2261 -0.62985,0.2261 -0.39298,0 -0.63523,-0.2261 -0.23686,-0.2261 -0.23686,-0.58139 z m 2.69165,4.37662 q 0,-1.36198 0.60831,-2.16947 0.61369,-0.8075 1.6742,-0.8075 0.85057,0 1.40505,0.63523 v -2.97158 h 1.56115 v 8.26875 h -1.40504 l -0.0754,-0.61908 q -0.5814,0.72675 -1.49656,0.72675 -1.02821,0 -1.65267,-0.8075 -0.61908,-0.81288 -0.61908,-2.2556 z m 1.55577,0.11305 q 0,0.81826 0.28531,1.25431 0.28532,0.43604 0.82903,0.43604 0.72136,0 1.01745,-0.60831 v -2.29867 q -0.2907,-0.60831 -1.00668,-0.60831 -1.12511,0 -1.12511,1.82494 z"
       id="text1"
       aria-label="BrokenGrid" />
  </g>
</svg>
