<?xml version="1.0" encoding="utf-8"?>
<!-- Generator: Adobe Illustrator 25.4.1, SVG Export Plug-In . SVG Version: 6.00 Build 0)  -->
<svg version="1.1" id="Ebene_1" xmlns="http://www.w3.org/2000/svg" xmlns:xlink="http://www.w3.org/1999/xlink" x="0px" y="0px"
	 width="219px" height="37px" viewBox="0 0 219 37" style="enable-background:new 0 0 219 37;" xml:space="preserve">
<style type="text/css">
	.st0{fill:#07254E;}
	.st1{fill:#DE9711;}
</style>
<g>
	<path class="st0" d="M48,23.9v-18h4.7c1.7,0,3.1,0.4,4.1,1.1c1,0.8,1.5,1.9,1.5,3.4c0,1.9-0.8,3.2-2.4,4c1.3,0.2,2.3,0.7,3,1.4
		c0.7,0.8,1,1.8,1,3c0,1-0.2,1.9-0.7,2.7c-0.5,0.7-1.1,1.3-2,1.7c-0.9,0.4-1.9,0.6-3.1,0.6H48z M50.9,13.5h1.2
		c1.1,0,1.9-0.2,2.5-0.7c0.6-0.5,0.9-1.1,0.9-2c0-0.9-0.3-1.5-0.9-2c-0.6-0.4-1.4-0.7-2.5-0.7h-1.2V13.5z M50.9,21.7h2.3
		c1.2,0,2.1-0.2,2.8-0.7c0.6-0.5,0.9-1.2,0.9-2.1c0-0.9-0.3-1.6-1-2.1c-0.6-0.5-1.6-0.8-2.7-0.8h-2.3V21.7z"/>
	<path class="st0" d="M67.8,24.3c-1.9,0-3.3-0.4-4.1-1.2c-0.8-0.8-1.3-2.1-1.3-3.9v-6.4h2.7v5.8c0,1.3,0.2,2.2,0.6,2.7
		s1.1,0.8,2.1,0.8s1.7-0.3,2.1-0.8c0.4-0.5,0.6-1.4,0.6-2.7v-5.8h2.7v6.4c0,1.8-0.4,3.1-1.3,3.9C71.1,23.9,69.7,24.3,67.8,24.3z"/>
	<path class="st0" d="M80.2,24.3c-0.9,0-1.8-0.2-2.5-0.5c-0.7-0.4-1.3-0.9-1.8-1.5l1.2-1.8c0.4,0.6,0.9,1,1.4,1.3s1.1,0.5,1.6,0.5
		c0.3,0,0.6-0.1,0.9-0.2c0.3-0.1,0.5-0.3,0.6-0.6c0.2-0.2,0.2-0.5,0.2-0.9c0-0.3-0.1-0.6-0.3-0.8s-0.5-0.4-0.8-0.5s-0.8-0.4-1.4-0.6
		c-0.5-0.2-0.9-0.4-1.3-0.6c-0.4-0.2-0.8-0.5-1-0.9c-0.3-0.4-0.4-0.8-0.4-1.4c0-0.6,0.2-1.2,0.5-1.7c0.4-0.5,0.8-0.9,1.5-1.2
		c0.6-0.3,1.4-0.4,2.2-0.4c0.6,0,1.2,0.1,1.8,0.3c0.6,0.2,1.2,0.5,1.8,0.9l-1,1.7c-0.8-0.7-1.7-1.1-2.5-1.1c-0.5,0-0.9,0.1-1.2,0.4
		c-0.3,0.2-0.4,0.5-0.4,0.9c0,0.3,0.1,0.6,0.4,0.8c0.3,0.2,0.6,0.4,0.9,0.6c0.4,0.2,0.8,0.3,1.1,0.5c0.6,0.2,1.1,0.5,1.6,0.7
		s0.8,0.6,1.1,1c0.3,0.4,0.4,0.9,0.4,1.6c0,0.8-0.2,1.5-0.6,2c-0.4,0.6-0.9,1-1.6,1.3S81.1,24.3,80.2,24.3z"/>
	<path class="st0" d="M89.5,10.5c-0.3,0-0.6-0.1-0.8-0.2S88.2,9.9,88,9.6c-0.1-0.3-0.2-0.5-0.2-0.8S87.9,8.2,88,8
		c0.1-0.2,0.3-0.4,0.6-0.6s0.5-0.2,0.8-0.2s0.6,0.1,0.8,0.2s0.4,0.3,0.6,0.6c0.1,0.2,0.2,0.5,0.2,0.8S91,9.4,90.9,9.6
		c-0.1,0.3-0.3,0.5-0.6,0.6S89.8,10.5,89.5,10.5z M88.1,23.9V12.7h2.7v11.2H88.1z"/>
	<path class="st0" d="M95,23.9V12.7h2.7v1.3c0.4-0.5,0.9-0.9,1.5-1.2c0.6-0.3,1.4-0.5,2.2-0.5c0.9,0,1.6,0.2,2.3,0.5
		s1.1,0.9,1.5,1.6s0.5,1.5,0.5,2.4v7h-2.7v-6.5c0-0.9-0.2-1.6-0.7-2.2c-0.5-0.5-1.1-0.8-1.9-0.8c-0.6,0-1.1,0.1-1.5,0.3
		c-0.4,0.2-0.7,0.5-0.9,0.9c-0.2,0.4-0.3,0.8-0.3,1.3v6.8H95z"/>
	<path class="st0" d="M115.1,24.3c-1.2,0-2.3-0.3-3.2-0.8c-0.9-0.5-1.7-1.2-2.2-2.1c-0.5-0.9-0.8-1.9-0.8-3c0-0.8,0.2-1.6,0.5-2.3
		c0.3-0.7,0.7-1.3,1.3-1.9s1.2-1,1.9-1.3c0.7-0.3,1.5-0.5,2.4-0.5c1.2,0,2.2,0.2,3.1,0.7c0.9,0.5,1.6,1.1,2,2c0.5,0.9,0.7,1.9,0.7,3
		c0,0.1,0,0.2,0,0.2c0,0.1,0,0.2,0,0.3h-9.1c0,0.7,0.2,1.3,0.5,1.8c0.3,0.5,0.7,0.9,1.3,1.2s1.2,0.4,1.9,0.4c0.7,0,1.3-0.1,1.8-0.4
		c0.5-0.3,1-0.7,1.4-1.2l2,1c-0.5,0.9-1.3,1.6-2.2,2.1C117.3,24,116.3,24.3,115.1,24.3z M111.7,17h6.3c-0.1-0.5-0.3-0.9-0.6-1.3
		c-0.3-0.4-0.7-0.7-1.1-0.9c-0.4-0.2-0.9-0.3-1.5-0.3c-0.6,0-1.1,0.1-1.5,0.3c-0.5,0.2-0.8,0.5-1.1,0.9C112,16,111.8,16.4,111.7,17z
		"/>
	<path class="st0" d="M127,24.3c-0.9,0-1.8-0.2-2.5-0.5c-0.7-0.4-1.3-0.9-1.8-1.5l1.2-1.8c0.4,0.6,0.9,1,1.4,1.3
		c0.5,0.3,1.1,0.5,1.6,0.5c0.3,0,0.6-0.1,0.9-0.2c0.3-0.1,0.5-0.3,0.6-0.6s0.2-0.5,0.2-0.9c0-0.3-0.1-0.6-0.3-0.8s-0.5-0.4-0.8-0.5
		c-0.4-0.2-0.8-0.4-1.4-0.6c-0.5-0.2-0.9-0.4-1.3-0.6c-0.4-0.2-0.8-0.5-1-0.9c-0.3-0.4-0.4-0.8-0.4-1.4c0-0.6,0.2-1.2,0.5-1.7
		c0.4-0.5,0.8-0.9,1.5-1.2c0.6-0.3,1.4-0.4,2.2-0.4c0.6,0,1.2,0.1,1.8,0.3c0.6,0.2,1.2,0.5,1.8,0.9l-1,1.7c-0.8-0.7-1.7-1.1-2.5-1.1
		c-0.5,0-0.9,0.1-1.2,0.4c-0.3,0.2-0.4,0.5-0.4,0.9c0,0.3,0.1,0.6,0.4,0.8c0.3,0.2,0.6,0.4,0.9,0.6c0.4,0.2,0.8,0.3,1.1,0.5
		c0.6,0.2,1.1,0.5,1.6,0.7c0.5,0.2,0.8,0.6,1.1,1c0.3,0.4,0.4,0.9,0.4,1.6c0,0.8-0.2,1.5-0.6,2c-0.4,0.6-0.9,1-1.6,1.3
		S128,24.3,127,24.3z"/>
	<path class="st0" d="M138.1,24.3c-0.9,0-1.8-0.2-2.5-0.5c-0.7-0.4-1.3-0.9-1.8-1.5l1.2-1.8c0.4,0.6,0.9,1,1.4,1.3
		c0.5,0.3,1.1,0.5,1.6,0.5c0.3,0,0.6-0.1,0.9-0.2c0.3-0.1,0.5-0.3,0.6-0.6s0.2-0.5,0.2-0.9c0-0.3-0.1-0.6-0.3-0.8s-0.5-0.4-0.8-0.5
		c-0.4-0.2-0.8-0.4-1.4-0.6c-0.5-0.2-0.9-0.4-1.3-0.6c-0.4-0.2-0.8-0.5-1-0.9c-0.3-0.4-0.4-0.8-0.4-1.4c0-0.6,0.2-1.2,0.5-1.7
		c0.4-0.5,0.8-0.9,1.5-1.2c0.6-0.3,1.4-0.4,2.2-0.4c0.6,0,1.2,0.1,1.8,0.3c0.6,0.2,1.2,0.5,1.8,0.9l-1,1.7c-0.8-0.7-1.7-1.1-2.5-1.1
		c-0.5,0-0.9,0.1-1.2,0.4c-0.3,0.2-0.4,0.5-0.4,0.9c0,0.3,0.1,0.6,0.4,0.8c0.3,0.2,0.6,0.4,0.9,0.6c0.4,0.2,0.8,0.3,1.1,0.5
		c0.6,0.2,1.1,0.5,1.6,0.7c0.5,0.2,0.8,0.6,1.1,1c0.3,0.4,0.4,0.9,0.4,1.6c0,0.8-0.2,1.5-0.6,2c-0.4,0.6-0.9,1-1.6,1.3
		S139,24.3,138.1,24.3z"/>
	<path class="st0" d="M154.7,24.3c-1.3,0-2.6-0.2-3.7-0.7c-1.1-0.5-2.1-1.1-3-2c-0.9-0.8-1.5-1.8-2-3c-0.5-1.1-0.7-2.4-0.7-3.7
		s0.2-2.5,0.7-3.7c0.5-1.1,1.1-2.1,2-3c0.9-0.8,1.8-1.5,3-2c1.1-0.5,2.4-0.7,3.7-0.7c1.1,0,2.2,0.2,3.2,0.5c1,0.3,1.9,0.8,2.6,1.4
		l-0.6,1c-0.7-0.6-1.5-1-2.3-1.3c-0.9-0.3-1.8-0.4-2.8-0.4c-1.2,0-2.3,0.2-3.3,0.6c-1,0.4-1.9,1-2.6,1.7s-1.3,1.6-1.7,2.6
		s-0.6,2.1-0.6,3.2s0.2,2.2,0.6,3.2s1,1.9,1.7,2.6s1.6,1.3,2.6,1.7c1,0.4,2.1,0.6,3.3,0.6c1,0,1.9-0.1,2.8-0.4
		c0.9-0.3,1.7-0.7,2.3-1.3l0.6,1c-0.8,0.6-1.6,1.1-2.6,1.4S155.9,24.3,154.7,24.3z"/>
	<path class="st0" d="M169.4,24.3c-1.1,0-2.2-0.3-3.1-0.8s-1.6-1.2-2.2-2.1s-0.8-1.9-0.8-3.1s0.3-2.2,0.8-3.1s1.3-1.6,2.2-2.1
		s2-0.8,3.1-0.8c1.1,0,2.2,0.3,3.1,0.8c0.9,0.5,1.6,1.2,2.2,2.1s0.8,1.9,0.8,3.1s-0.3,2.2-0.8,3.1s-1.3,1.6-2.2,2.1
		C171.5,24,170.5,24.3,169.4,24.3z M169.4,23.2c0.9,0,1.8-0.2,2.5-0.6c0.7-0.4,1.3-1,1.7-1.7c0.4-0.7,0.6-1.6,0.6-2.5
		s-0.2-1.8-0.6-2.5c-0.4-0.7-1-1.3-1.7-1.7c-0.7-0.4-1.6-0.6-2.5-0.6c-0.9,0-1.8,0.2-2.5,0.6c-0.7,0.4-1.3,1-1.7,1.7
		c-0.4,0.7-0.6,1.6-0.6,2.5s0.2,1.8,0.6,2.5c0.4,0.7,1,1.3,1.7,1.7C167.6,23,168.4,23.2,169.4,23.2z"/>
	<path class="st0" d="M184.2,24.3c-1.1,0-2-0.3-2.8-0.8c-0.8-0.5-1.5-1.2-2-2.1c-0.5-0.9-0.7-1.9-0.7-3.1c0-1.1,0.2-2.2,0.7-3.1
		c0.5-0.9,1.1-1.6,2-2.1c0.8-0.5,1.8-0.8,2.8-0.8c1.1,0,2,0.3,2.9,0.8s1.5,1.2,1.9,2.1v-2.6h1.2v11.2H189v-2.6
		c-0.5,0.9-1.1,1.6-2,2.2C186.2,24,185.2,24.3,184.2,24.3z M184.4,23.2c0.9,0,1.7-0.2,2.4-0.6c0.7-0.4,1.2-1,1.6-1.7
		c0.4-0.7,0.6-1.6,0.6-2.5c0-1-0.2-1.8-0.6-2.5c-0.4-0.7-0.9-1.3-1.6-1.7s-1.5-0.6-2.4-0.6s-1.7,0.2-2.4,0.6s-1.2,1-1.6,1.7
		c-0.4,0.7-0.6,1.6-0.6,2.5c0,1,0.2,1.8,0.6,2.5c0.4,0.7,0.9,1.3,1.6,1.7S183.5,23.2,184.4,23.2z"/>
	<path class="st0" d="M200.2,24.3c-0.8,0-1.6-0.1-2.3-0.4s-1.4-0.7-1.9-1.2c-0.5-0.5-1-1.2-1.3-1.9c-0.3-0.7-0.5-1.5-0.5-2.4
		s0.2-1.6,0.5-2.4c0.3-0.7,0.7-1.3,1.3-1.9s1.2-0.9,1.9-1.2c0.7-0.3,1.5-0.4,2.4-0.4c0.7,0,1.4,0.1,2.1,0.3c0.7,0.2,1.2,0.5,1.7,0.9
		l-0.5,0.8c-0.9-0.7-2-1-3.2-1c-1,0-1.8,0.2-2.6,0.6s-1.3,1-1.7,1.8c-0.4,0.7-0.6,1.6-0.6,2.5s0.2,1.8,0.6,2.5
		c0.4,0.7,1,1.3,1.8,1.8c0.7,0.4,1.6,0.6,2.6,0.6c0.6,0,1.2-0.1,1.7-0.3c0.5-0.2,1-0.4,1.4-0.8L204,23c-0.5,0.4-1.1,0.7-1.7,0.9
		C201.6,24.1,200.9,24.3,200.2,24.3z"/>
	<path class="st0" d="M207.7,23.9V5.1h1.2v9.2c0.3-0.5,0.7-1,1.4-1.4c0.6-0.4,1.4-0.6,2.4-0.6c0.9,0,1.6,0.2,2.2,0.5
		c0.6,0.4,1.1,0.9,1.4,1.5c0.3,0.7,0.5,1.5,0.5,2.5v6.9h-1.2v-6.7c0-1.2-0.3-2.2-0.9-2.8c-0.6-0.7-1.4-1-2.4-1
		c-0.7,0-1.3,0.1-1.9,0.4c-0.5,0.3-0.9,0.7-1.2,1.1c-0.3,0.5-0.4,1-0.4,1.5v7.4H207.7z"/>
</g>
<g>
	<circle class="st1" cx="3.5" cy="3.5" r="3.5"/>
	<circle class="st1" cx="13.5" cy="3.5" r="3.5"/>
	<circle class="st1" cx="23.5" cy="3.5" r="3.5"/>
</g>
<g>
	<circle class="st1" cx="3.5" cy="13.5" r="3.5"/>
	<circle class="st1" cx="13.5" cy="13.5" r="3.5"/>
	<circle class="st1" cx="23.5" cy="13.5" r="3.5"/>
</g>
<g>
	<circle class="st1" cx="3.5" cy="23.5" r="3.5"/>
	<circle class="st1" cx="13.5" cy="23.5" r="3.5"/>
	<circle class="st1" cx="23.5" cy="23.5" r="3.5"/>
</g>
<circle class="st1" cx="13.5" cy="33.5" r="3.5"/>
</svg>
