<?xml version="1.0" encoding="utf-8"?>
<!-- Generator: Adobe Illustrator 25.2.1, SVG Export Plug-In . SVG Version: 6.00 Build 0)  -->
<svg version="1.1" id="Ebene_1" xmlns="http://www.w3.org/2000/svg" xmlns:xlink="http://www.w3.org/1999/xlink" x="0px" y="0px"
	 viewBox="0 0 169.32 48.97" style="enable-background:new 0 0 169.32 48.97;" xml:space="preserve">
<style type="text/css">
	.st0{fill:#FFFFFF;}
	.st1{fill:#52BFD0;}
</style>
<path class="st0" d="M34.17,45.76H7.91C3.54,45.76,0,42.22,0,37.86V0h26.26c4.37,0,7.91,3.54,7.91,7.91V45.76z"/>
<path class="st1" d="M37.37,48.97H11.11c-4.37,0-7.91-3.54-7.91-7.91V3.2h26.26c4.37,0,7.91,3.54,7.91,7.91V48.97z"/>
<g>
	<path class="st0" d="M65.31,22.71c0,1.61-0.5,2.84-1.51,3.7c-1.01,0.85-2.44,1.28-4.3,1.28h-1.36v5.32h-3.17V18.04h4.78
		c1.82,0,3.2,0.39,4.14,1.17C64.84,19.99,65.31,21.16,65.31,22.71z M58.14,25.08h1.04c0.98,0,1.71-0.19,2.19-0.58
		c0.48-0.39,0.73-0.95,0.73-1.68c0-0.74-0.2-1.29-0.61-1.65s-1.04-0.53-1.91-0.53h-1.44V25.08z"/>
	<path class="st0" d="M75.88,29.61c0,1.17-0.41,2.07-1.22,2.68c-0.82,0.61-2.04,0.92-3.66,0.92c-0.83,0-1.54-0.06-2.13-0.17
		c-0.59-0.11-1.14-0.28-1.65-0.5v-2.58c0.58,0.27,1.23,0.5,1.96,0.69c0.73,0.18,1.37,0.28,1.92,0.28c1.13,0,1.7-0.33,1.7-0.98
		c0-0.25-0.08-0.45-0.23-0.6c-0.15-0.15-0.41-0.33-0.78-0.52c-0.37-0.19-0.86-0.42-1.47-0.68c-0.88-0.37-1.53-0.71-1.94-1.02
		c-0.41-0.31-0.71-0.67-0.9-1.08c-0.19-0.41-0.28-0.91-0.28-1.5c0-1.02,0.39-1.8,1.18-2.36c0.79-0.56,1.91-0.83,3.35-0.83
		c1.38,0,2.72,0.3,4.02,0.9l-0.94,2.25c-0.57-0.25-1.11-0.45-1.61-0.6c-0.5-0.16-1.01-0.24-1.53-0.24c-0.92,0-1.38,0.25-1.38,0.75
		c0,0.28,0.15,0.52,0.45,0.73c0.3,0.2,0.95,0.51,1.95,0.91c0.89,0.36,1.55,0.7,1.97,1.01c0.42,0.31,0.72,0.68,0.92,1.09
		C75.78,28.56,75.88,29.04,75.88,29.61z"/>
	<path class="st0" d="M76.68,21.56h3.42L82.26,28c0.18,0.56,0.31,1.22,0.38,1.99h0.06c0.08-0.7,0.22-1.37,0.44-1.99l2.12-6.44h3.35
		l-4.84,12.91c-0.44,1.19-1.08,2.09-1.9,2.68c-0.82,0.59-1.78,0.89-2.88,0.89c-0.54,0-1.07-0.06-1.59-0.17V35.4
		c0.38,0.09,0.79,0.13,1.23,0.13c0.55,0,1.04-0.17,1.45-0.51s0.74-0.85,0.97-1.53l0.18-0.56L76.68,21.56z"/>
	<path class="st0" d="M94.89,33.21c-3.56,0-5.35-1.96-5.35-5.87c0-1.95,0.48-3.43,1.45-4.46s2.36-1.54,4.17-1.54
		c1.32,0,2.51,0.26,3.56,0.78l-0.92,2.42c-0.49-0.2-0.95-0.36-1.37-0.49c-0.42-0.13-0.85-0.19-1.27-0.19
		c-1.62,0-2.44,1.15-2.44,3.46c0,2.24,0.81,3.36,2.44,3.36c0.6,0,1.16-0.08,1.67-0.24c0.51-0.16,1.02-0.41,1.54-0.75v2.67
		c-0.51,0.32-1.02,0.54-1.53,0.67C96.33,33.15,95.68,33.21,94.89,33.21z"/>
	<path class="st0" d="M111.6,33.01h-3.12v-6.69c0-1.65-0.61-2.48-1.84-2.48c-0.87,0-1.51,0.3-1.89,0.89s-0.58,1.56-0.58,2.89v5.39
		h-3.12V17.08h3.12v3.25c0,0.25-0.02,0.85-0.07,1.78l-0.07,0.92h0.16c0.7-1.12,1.8-1.68,3.32-1.68c1.35,0,2.37,0.36,3.06,1.09
		c0.7,0.72,1.04,1.76,1.04,3.11V33.01z"/>
	<path class="st0" d="M125.21,27.26c0,1.86-0.49,3.32-1.47,4.37c-0.98,1.05-2.35,1.58-4.11,1.58c-1.1,0-2.07-0.24-2.91-0.72
		s-1.48-1.17-1.94-2.07c-0.45-0.9-0.68-1.95-0.68-3.15c0-1.87,0.49-3.32,1.46-4.36s2.35-1.56,4.12-1.56c1.1,0,2.07,0.24,2.91,0.72
		c0.84,0.48,1.48,1.16,1.94,2.06C124.99,25.02,125.21,26.06,125.21,27.26z M117.3,27.26c0,1.13,0.19,1.99,0.56,2.57
		s0.98,0.87,1.82,0.87c0.83,0,1.43-0.29,1.8-0.87c0.37-0.58,0.55-1.44,0.55-2.58c0-1.13-0.18-1.98-0.55-2.55
		c-0.37-0.57-0.97-0.85-1.81-0.85c-0.83,0-1.43,0.28-1.8,0.85C117.48,25.27,117.3,26.12,117.3,27.26z"/>
	<path class="st0" d="M130.92,33.01h-3.12V17.08h3.12V33.01z"/>
	<path class="st0" d="M144.6,27.26c0,1.86-0.49,3.32-1.47,4.37c-0.98,1.05-2.35,1.58-4.11,1.58c-1.1,0-2.07-0.24-2.91-0.72
		s-1.48-1.17-1.94-2.07c-0.45-0.9-0.68-1.95-0.68-3.15c0-1.87,0.49-3.32,1.46-4.36s2.35-1.56,4.12-1.56c1.1,0,2.07,0.24,2.91,0.72
		c0.84,0.48,1.48,1.16,1.94,2.06C144.37,25.02,144.6,26.06,144.6,27.26z M136.68,27.26c0,1.13,0.19,1.99,0.56,2.57
		s0.98,0.87,1.82,0.87c0.83,0,1.43-0.29,1.8-0.87c0.37-0.58,0.55-1.44,0.55-2.58c0-1.13-0.18-1.98-0.55-2.55
		c-0.37-0.57-0.97-0.85-1.81-0.85c-0.83,0-1.43,0.28-1.8,0.85C136.87,25.27,136.68,26.12,136.68,27.26z"/>
	<path class="st0" d="M157.14,21.56v1.59l-1.79,0.46c0.33,0.51,0.49,1.09,0.49,1.72c0,1.23-0.43,2.19-1.29,2.87
		c-0.86,0.69-2.05,1.03-3.57,1.03l-0.56-0.03l-0.46-0.05c-0.32,0.25-0.48,0.52-0.48,0.82c0,0.45,0.57,0.68,1.72,0.68h1.95
		c1.26,0,2.21,0.27,2.87,0.81c0.66,0.54,0.99,1.33,0.99,2.38c0,1.34-0.56,2.38-1.67,3.11s-2.72,1.11-4.81,1.11
		c-1.6,0-2.82-0.28-3.66-0.83c-0.84-0.56-1.26-1.34-1.26-2.34c0-0.69,0.21-1.27,0.65-1.73c0.43-0.46,1.06-0.8,1.89-0.99
		c-0.32-0.14-0.6-0.36-0.84-0.67s-0.36-0.64-0.36-0.99c0-0.44,0.13-0.8,0.38-1.09c0.25-0.29,0.62-0.58,1.1-0.86
		c-0.6-0.26-1.08-0.68-1.43-1.25c-0.35-0.57-0.53-1.25-0.53-2.03c0-1.25,0.41-2.22,1.22-2.9s1.97-1.02,3.48-1.02
		c0.32,0,0.7,0.03,1.14,0.09c0.44,0.06,0.72,0.1,0.84,0.13H157.14z M148.31,34.63c0,0.43,0.21,0.77,0.62,1.01
		c0.41,0.25,0.99,0.37,1.74,0.37c1.12,0,2-0.15,2.63-0.46c0.64-0.31,0.95-0.73,0.95-1.26c0-0.43-0.19-0.73-0.56-0.89
		c-0.38-0.16-0.96-0.25-1.74-0.25h-1.62c-0.57,0-1.05,0.13-1.44,0.4S148.31,34.18,148.31,34.63z M149.44,25.31
		c0,0.62,0.14,1.11,0.42,1.47c0.28,0.36,0.72,0.54,1.3,0.54c0.59,0,1.02-0.18,1.29-0.54c0.27-0.36,0.41-0.85,0.41-1.47
		c0-1.38-0.57-2.07-1.7-2.07C150.02,23.24,149.44,23.93,149.44,25.31z"/>
	<path class="st0" d="M157.39,21.56h3.42l2.16,6.44c0.18,0.56,0.31,1.22,0.38,1.99h0.06c0.08-0.7,0.22-1.37,0.44-1.99l2.12-6.44
		h3.35l-4.84,12.91c-0.44,1.19-1.08,2.09-1.9,2.68c-0.82,0.59-1.78,0.89-2.88,0.89c-0.54,0-1.07-0.06-1.59-0.17V35.4
		c0.38,0.09,0.79,0.13,1.23,0.13c0.55,0,1.04-0.17,1.45-0.51s0.74-0.85,0.97-1.53l0.18-0.56L157.39,21.56z"/>
</g>
</svg>
