<?xml version="1.0" encoding="utf-8"?>
<!-- Generator: Adobe Illustrator 25.4.1, SVG Export Plug-In . SVG Version: 6.00 Build 0)  -->
<svg version="1.1" id="Ebene_1" xmlns="http://www.w3.org/2000/svg" xmlns:xlink="http://www.w3.org/1999/xlink" x="0px" y="0px"
	 width="105.2px" height="32.7px" viewBox="0 0 105.2 32.7" style="enable-background:new 0 0 105.2 32.7;" xml:space="preserve">
<style type="text/css">
	.st0{fill:#FFFFFF;}
</style>
<path class="st0" d="M4.5,32.7H3.5c-1.9,0-3.5-1.6-3.5-3.5l0-13.5c0-1.9,1.6-3.5,3.5-3.5h1.1c1.9,0,3.5,1.6,3.5,3.5v13.5
	C8,31.1,6.4,32.7,4.5,32.7z"/>
<circle class="st0" cx="15.6" cy="4" r="4"/>
<circle class="st0" cx="15.6" cy="16.4" r="4"/>
<circle class="st0" cx="15.6" cy="28.7" r="4"/>
<circle class="st0" cx="4.2" cy="4" r="4"/>
<circle class="st0" cx="26.6" cy="4" r="4"/>
<g>
	<path class="st0" d="M26.1,29.7l1.7-2.2c1.2,0.9,2.3,1.2,3.3,1.2c1.1,0,1.5-0.4,1.5-1c0-0.8-1.1-1.1-2.4-1.6
		c-1.8-0.7-3.4-1.8-3.4-3.8c0-2.4,1.9-4,4.9-4c1.9,0,3.5,0.7,4.6,1.6l-1.7,2.2c-0.9-0.7-1.9-0.9-2.7-0.9c-0.9,0-1.4,0.4-1.4,0.9
		c0,0.7,0.7,1,2.3,1.5c1.9,0.6,3.5,1.8,3.5,3.9c0,2.3-1.8,4.1-5.3,4.1C29.3,31.6,27.4,31,26.1,29.7z"/>
	<path class="st0" d="M37.9,25c0-4.1,3-6.7,6-6.7c3.7,0,5.5,2.7,5.5,6.1c0,0.7-0.1,1.4-0.2,1.7h-7.5c0.4,1.7,1.6,2.5,3.2,2.5
		c0.9,0,1.8-0.3,2.7-0.8l1.3,2.4c-1.3,0.9-3.1,1.4-4.6,1.4C40.7,31.6,37.9,29.2,37.9,25z M46,23.5c0-1.3-0.6-2.2-2-2.2
		c-1.1,0-2.1,0.7-2.3,2.2H46z"/>
	<path class="st0" d="M51.9,18.6h3.2l0.3,2.2h0.1c0.9-1.7,2.3-2.5,3.6-2.5c0.7,0,1.2,0.1,1.5,0.3l-0.7,3.4c-0.5-0.1-0.7-0.2-1.3-0.2
		c-0.9,0-2.1,0.6-2.8,2.3v7.3h-3.9V18.6z"/>
	<path class="st0" d="M61.1,18.6h4l1.6,5.9c0.3,1.3,0.6,2.6,0.9,3.9h0.1c0.3-1.3,0.7-2.7,1-3.9l1.6-5.9H74l-4.1,12.7h-4.6L61.1,18.6
		z"/>
	<path class="st0" d="M75.7,14.8c0-1.2,0.9-2,2.2-2c1.3,0,2.2,0.8,2.2,2c0,1.3-0.9,2-2.2,2C76.6,16.8,75.7,16,75.7,14.8z M76,18.6
		h3.9v12.7H76V18.6z"/>
	<path class="st0" d="M82.4,25c0-4.2,3.1-6.7,6.7-6.7c1.6,0,2.8,0.5,3.7,1.4L91,22.1c-0.6-0.4-1.1-0.6-1.6-0.6
		c-1.8,0-2.9,1.4-2.9,3.5c0,2.1,1.2,3.5,2.7,3.5c0.8,0,1.6-0.3,2.2-0.8l1.5,2.5c-1.2,1.1-2.8,1.5-4.2,1.5
		C85.1,31.6,82.4,29.2,82.4,25z"/>
	<path class="st0" d="M93.7,25c0-4.1,3-6.7,6-6.7c3.7,0,5.5,2.7,5.5,6.1c0,0.7-0.1,1.4-0.2,1.7h-7.5c0.4,1.7,1.6,2.5,3.2,2.5
		c0.9,0,1.8-0.3,2.7-0.8l1.3,2.4c-1.3,0.9-3.1,1.4-4.6,1.4C96.5,31.6,93.7,29.2,93.7,25z M101.8,23.5c0-1.3-0.6-2.2-2-2.2
		c-1.1,0-2.1,0.7-2.3,2.2H101.8z"/>
</g>
</svg>
