<?xml version="1.0" encoding="utf-8"?>
<!-- Generator: Adobe Illustrator 16.0.0, SVG Export Plug-In . SVG Version: 6.00 Build 0)  -->
<!DOCTYPE svg PUBLIC "-//W3C//DTD SVG 1.1//EN" "http://www.w3.org/Graphics/SVG/1.1/DTD/svg11.dtd">
<svg version="1.1" id="Ebene_1" xmlns="http://www.w3.org/2000/svg" xmlns:xlink="http://www.w3.org/1999/xlink" x="0px" y="0px"
	 width="61.942px" height="21.328px" viewBox="0 0 61.942 21.328" enable-background="new 0 0 61.942 21.328" xml:space="preserve">
<g>
	<path fill="#FFFFFF" d="M0,21.328V0h7.471c2.588,0,4.551,0.496,5.889,1.486c1.338,0.992,2.007,2.444,2.007,4.358
		c0,1.045-0.269,1.966-0.806,2.761c-0.537,0.797-1.284,1.38-2.241,1.751c1.094,0.273,1.956,0.825,2.585,1.655
		s0.945,1.846,0.945,3.047c0,2.051-0.654,3.604-1.963,4.658s-3.174,1.592-5.596,1.611H0z M4.395,8.936h3.252
		c2.217-0.039,3.325-0.923,3.325-2.651c0-0.967-0.281-1.663-0.842-2.087C9.568,3.771,8.682,3.56,7.471,3.56H4.395V8.936z
		 M4.395,12.041v5.757h3.765c1.035,0,1.843-0.246,2.424-0.739s0.872-1.175,0.872-2.044c0-1.953-1.011-2.944-3.032-2.974H4.395z"/>
	<path fill="#FFFFFF" d="M34.187,16.934h-7.705l-1.465,4.395h-4.673L28.283,0h4.072l7.983,21.328h-4.673L34.187,16.934z
		 M27.668,13.374H33l-2.681-7.983L27.668,13.374z"/>
	<path fill="#FFFFFF" d="M53.227,13.521h-3.501v7.808h-4.395V0h7.925c2.52,0,4.463,0.562,5.83,1.685s2.051,2.71,2.051,4.761
		c0,1.455-0.315,2.669-0.944,3.641c-0.631,0.972-1.585,1.745-2.864,2.321l4.614,8.716v0.205h-4.717L53.227,13.521z M49.726,9.961
		h3.545c1.104,0,1.958-0.28,2.563-0.842s0.908-1.336,0.908-2.322c0-1.006-0.286-1.797-0.856-2.373
		c-0.572-0.576-1.448-0.864-2.63-0.864h-3.53V9.961z"/>
</g>
</svg>
