<?xml version="1.0" encoding="utf-8"?>
<!-- Generator: Adobe Illustrator 25.2.1, SVG Export Plug-In . SVG Version: 6.00 Build 0)  -->
<svg version="1.1" id="Ebene_1" xmlns="http://www.w3.org/2000/svg" xmlns:xlink="http://www.w3.org/1999/xlink" x="0px" y="0px"
	 viewBox="0 0 210.71 34.44" style="enable-background:new 0 0 210.71 34.44;" xml:space="preserve">
<style type="text/css">
	.st0{fill:#FFFFFF;}
	.st1{opacity:0.25;fill:#FFFFFF;}
	.st2{fill:#8EC4C5;}
</style>
<g>
	<path class="st0" d="M95.41,17.61c0,2.86-0.79,5.06-2.39,6.57c-1.59,1.52-3.88,2.27-6.87,2.27h-4.86V9.1h5.37
		c2.76,0,4.91,0.74,6.45,2.23S95.41,14.91,95.41,17.61z M92.42,17.71c0-4.15-1.94-6.23-5.83-6.23h-2.46v12.6h2.02
		C90.33,24.07,92.42,21.95,92.42,17.71z"/>
	<path class="st0" d="M98.67,9.85c0-0.5,0.14-0.88,0.41-1.15c0.27-0.27,0.66-0.4,1.17-0.4c0.49,0,0.87,0.13,1.15,0.4
		c0.27,0.27,0.41,0.65,0.41,1.15c0,0.47-0.14,0.85-0.41,1.12c-0.27,0.27-0.66,0.41-1.15,0.41c-0.51,0-0.9-0.14-1.17-0.41
		C98.81,10.7,98.67,10.32,98.67,9.85z M101.63,26.46h-2.79V13.33h2.79V26.46z"/>
	<path class="st0" d="M116.7,13.33v1.53l-2.24,0.42c0.21,0.28,0.38,0.62,0.51,1.02s0.2,0.83,0.2,1.28c0,1.35-0.47,2.42-1.4,3.19
		c-0.93,0.78-2.22,1.16-3.86,1.16c-0.42,0-0.8-0.03-1.14-0.09c-0.6,0.37-0.9,0.81-0.9,1.31c0,0.3,0.14,0.53,0.42,0.68
		c0.28,0.15,0.8,0.23,1.55,0.23h2.29c1.45,0,2.55,0.31,3.3,0.93s1.13,1.51,1.13,2.67c0,1.49-0.61,2.64-1.84,3.44
		c-1.23,0.81-3,1.21-5.32,1.21c-1.79,0-3.15-0.32-4.1-0.95c-0.94-0.63-1.41-1.54-1.41-2.71c0-0.81,0.25-1.49,0.77-2.04
		c0.51-0.55,1.22-0.93,2.14-1.15c-0.37-0.16-0.68-0.41-0.92-0.77c-0.24-0.35-0.36-0.72-0.36-1.11c0-0.49,0.14-0.91,0.42-1.25
		c0.28-0.34,0.69-0.68,1.24-1.01c-0.68-0.29-1.23-0.77-1.66-1.43c-0.42-0.66-0.63-1.43-0.63-2.32c0-1.42,0.45-2.53,1.35-3.31
		c0.9-0.78,2.18-1.18,3.84-1.18c0.37,0,0.76,0.03,1.17,0.08c0.41,0.05,0.71,0.1,0.92,0.16H116.7z M106.39,28.5
		c0,0.6,0.27,1.06,0.81,1.39s1.3,0.49,2.29,0.49c1.52,0,2.65-0.22,3.4-0.65c0.74-0.44,1.12-1.01,1.12-1.73
		c0-0.57-0.2-0.98-0.61-1.22c-0.41-0.24-1.17-0.36-2.27-0.36H109c-0.8,0-1.43,0.19-1.91,0.56C106.62,27.35,106.39,27.86,106.39,28.5
		z M107.59,17.58c0,0.82,0.21,1.46,0.63,1.9c0.42,0.44,1.03,0.66,1.82,0.66c1.62,0,2.42-0.86,2.42-2.59c0-0.85-0.2-1.51-0.6-1.98
		s-1.01-0.69-1.82-0.69c-0.81,0-1.42,0.23-1.83,0.69C107.79,16.03,107.59,16.7,107.59,17.58z"/>
	<path class="st0" d="M118.97,9.85c0-0.5,0.14-0.88,0.41-1.15c0.27-0.27,0.66-0.4,1.17-0.4c0.49,0,0.87,0.13,1.15,0.4
		c0.27,0.27,0.41,0.65,0.41,1.15c0,0.47-0.14,0.85-0.41,1.12c-0.27,0.27-0.66,0.41-1.15,0.41c-0.51,0-0.9-0.14-1.17-0.41
		C119.11,10.7,118.97,10.32,118.97,9.85z M121.93,26.46h-2.79V13.33h2.79V26.46z"/>
	<path class="st0" d="M130.81,24.44c0.68,0,1.36-0.11,2.04-0.32v2.1c-0.31,0.13-0.71,0.25-1.19,0.34c-0.49,0.09-0.99,0.14-1.51,0.14
		c-2.64,0-3.96-1.39-3.96-4.18v-7.07h-1.79V14.2l1.92-1.02l0.95-2.78h1.72v2.92h3.74v2.11h-3.74v7.03c0,0.67,0.17,1.17,0.5,1.49
		C129.82,24.28,130.26,24.44,130.81,24.44z"/>
	<path class="st0" d="M135.31,9.85c0-0.5,0.14-0.88,0.41-1.15c0.27-0.27,0.66-0.4,1.17-0.4c0.49,0,0.87,0.13,1.15,0.4
		c0.27,0.27,0.41,0.65,0.41,1.15c0,0.47-0.14,0.85-0.41,1.12c-0.27,0.27-0.66,0.41-1.15,0.41c-0.51,0-0.9-0.14-1.17-0.41
		C135.44,10.7,135.31,10.32,135.31,9.85z M138.26,26.46h-2.79V13.33h2.79V26.46z"/>
	<path class="st0" d="M151.02,26.46h-9.96v-1.72l6.64-9.27h-6.23v-2.14h9.37v1.95l-6.49,9.05h6.68V26.46z"/>
	<path class="st0" d="M162.09,26.46l-0.56-1.83h-0.09c-0.63,0.8-1.27,1.34-1.91,1.63c-0.64,0.29-1.46,0.43-2.47,0.43
		c-1.29,0-2.3-0.35-3.02-1.04c-0.72-0.7-1.09-1.68-1.09-2.96c0-1.35,0.5-2.37,1.51-3.06s2.54-1.06,4.59-1.13l2.27-0.07v-0.7
		c0-0.84-0.2-1.47-0.59-1.88s-1-0.62-1.82-0.62c-0.67,0-1.32,0.1-1.93,0.3s-1.21,0.43-1.78,0.7l-0.9-1.99
		c0.71-0.37,1.49-0.65,2.34-0.85s1.65-0.29,2.4-0.29c1.67,0,2.93,0.36,3.78,1.09c0.85,0.73,1.28,1.87,1.28,3.43v8.84H162.09z
		 M157.93,24.56c1.01,0,1.83-0.28,2.44-0.85c0.61-0.57,0.92-1.36,0.92-2.38v-1.14l-1.69,0.07c-1.31,0.05-2.27,0.27-2.87,0.66
		c-0.6,0.39-0.9,0.99-0.9,1.8c0,0.59,0.17,1.04,0.52,1.36C156.71,24.4,157.24,24.56,157.93,24.56z"/>
	<path class="st0" d="M172.87,24.44c0.68,0,1.36-0.11,2.04-0.32v2.1c-0.31,0.13-0.71,0.25-1.19,0.34c-0.49,0.09-0.99,0.14-1.51,0.14
		c-2.64,0-3.96-1.39-3.96-4.18v-7.07h-1.79V14.2l1.92-1.02l0.95-2.78h1.72v2.92h3.74v2.11h-3.74v7.03c0,0.67,0.17,1.17,0.5,1.49
		C171.88,24.28,172.32,24.44,172.87,24.44z"/>
	<path class="st0" d="M177.37,9.85c0-0.5,0.14-0.88,0.41-1.15c0.27-0.27,0.66-0.4,1.17-0.4c0.49,0,0.87,0.13,1.15,0.4
		c0.27,0.27,0.41,0.65,0.41,1.15c0,0.47-0.14,0.85-0.41,1.12c-0.27,0.27-0.66,0.41-1.15,0.41c-0.51,0-0.9-0.14-1.17-0.41
		C177.5,10.7,177.37,10.32,177.37,9.85z M180.32,26.46h-2.79V13.33h2.79V26.46z"/>
	<path class="st0" d="M195.95,19.87c0,2.14-0.55,3.82-1.65,5.02c-1.1,1.2-2.63,1.8-4.59,1.8c-1.23,0-2.31-0.28-3.25-0.83
		c-0.94-0.55-1.67-1.35-2.17-2.39c-0.51-1.04-0.76-2.24-0.76-3.61c0-2.13,0.55-3.79,1.64-4.99c1.09-1.19,2.63-1.79,4.62-1.79
		c1.9,0,3.4,0.61,4.51,1.83C195.4,16.15,195.95,17.79,195.95,19.87z M186.4,19.87c0,3.03,1.12,4.55,3.36,4.55
		c2.22,0,3.32-1.52,3.32-4.55c0-3-1.12-4.5-3.35-4.5c-1.17,0-2.02,0.39-2.55,1.16C186.66,17.31,186.4,18.42,186.4,19.87z"/>
	<path class="st0" d="M210.71,26.46h-2.8v-8.07c0-1.01-0.2-1.77-0.61-2.27s-1.05-0.75-1.94-0.75c-1.18,0-2.04,0.35-2.59,1.04
		c-0.55,0.7-0.82,1.86-0.82,3.5v6.54h-2.79V13.33h2.18l0.39,1.72h0.14c0.4-0.62,0.96-1.11,1.69-1.45c0.73-0.34,1.54-0.51,2.42-0.51
		c3.15,0,4.72,1.6,4.72,4.81V26.46z"/>
</g>
<path class="st1" d="M66.85,17.22c0,9.29-7.36,16.86-16.56,17.21c-0.22,0.01-32.84,0.01-33.07,0.01C7.71,34.44,0,26.73,0,17.22
	S7.71,0,17.22,0c0.25,0,32.9,0.01,33.14,0.02C59.53,0.4,66.85,7.96,66.85,17.22z"/>
<circle class="st2" cx="17.4" cy="17.14" r="16.56"/>
</svg>
