<?xml version="1.0" encoding="utf-8"?>
<!-- Generator: Adobe Illustrator 16.0.0, SVG Export Plug-In . SVG Version: 6.00 Build 0)  -->
<!DOCTYPE svg PUBLIC "-//W3C//DTD SVG 1.1//EN" "http://www.w3.org/Graphics/SVG/1.1/DTD/svg11.dtd">
<svg version="1.1" id="Ebene_1" xmlns="http://www.w3.org/2000/svg" xmlns:xlink="http://www.w3.org/1999/xlink" x="0px" y="0px"
	 width="104.009px" height="24.184px" viewBox="0 0 104.009 24.184" enable-background="new 0 0 104.009 24.184"
	 xml:space="preserve">
<rect fill="#5F99BD" width="5" height="22"/>
<rect x="7.531" fill="#5F99BD" width="10.938" height="22"/>
<rect x="21.197" fill="#316695" width="18.136" height="22"/>
<g>
	<path d="M47.143,0.038h1.122v8.186h-1.122V0.038z"/>
	<path d="M49.853,2.281h0.889l0.222,0.645c0.289-0.215,0.617-0.393,0.983-0.533s0.734-0.211,1.105-0.211
		c0.629,0,1.092,0.19,1.388,0.572c0.297,0.381,0.444,0.871,0.444,1.472v3.998h-1.11V4.358c0-0.355-0.1-0.639-0.3-0.85
		S53,3.192,52.651,3.192c-0.311,0-0.594,0.044-0.85,0.133c-0.255,0.089-0.535,0.223-0.839,0.4v4.498h-1.11V2.281z"/>
	<path d="M55.816,2.281h1.145l1.677,4.909l1.722-4.909h1.133L59.26,8.224h-1.288L55.816,2.281z"/>
	<path d="M63.064,8.013c-0.366-0.186-0.629-0.496-0.788-0.933c-0.159-0.438-0.239-1.048-0.239-1.833c0-0.8,0.08-1.418,0.239-1.854
		c0.159-0.438,0.42-0.744,0.783-0.922c0.362-0.178,0.866-0.267,1.511-0.267c0.562,0,1.011,0.059,1.344,0.178
		c0.333,0.118,0.577,0.321,0.732,0.61c0.156,0.289,0.233,0.688,0.233,1.199c0,0.526-0.151,0.905-0.455,1.139s-0.74,0.35-1.311,0.35
		h-1.966c0.007,0.452,0.057,0.802,0.149,1.05s0.262,0.428,0.506,0.539s0.596,0.166,1.055,0.166h1.855v0.667
		c-0.407,0.06-0.767,0.105-1.078,0.139c-0.311,0.033-0.662,0.05-1.055,0.05C63.937,8.29,63.432,8.198,63.064,8.013z M65.014,4.98
		c0.304,0,0.524-0.058,0.661-0.172c0.137-0.115,0.206-0.316,0.206-0.605c0-0.444-0.099-0.752-0.295-0.922s-0.535-0.256-1.016-0.256
		c-0.378,0-0.669,0.056-0.872,0.167c-0.204,0.111-0.349,0.306-0.434,0.583s-0.128,0.68-0.128,1.205H65.014z"/>
	<path d="M69.04,8.24c-0.478-0.033-0.816-0.079-1.017-0.139V7.435h2.499c0.355,0,0.618-0.05,0.789-0.149
		c0.17-0.1,0.255-0.302,0.255-0.605V6.436c0-0.474-0.318-0.711-0.955-0.711h-0.866c-0.57,0-1.011-0.116-1.322-0.35
		c-0.311-0.233-0.466-0.62-0.466-1.161V3.892c0-0.569,0.168-0.99,0.505-1.26c0.337-0.271,0.895-0.406,1.672-0.406
		c0.326,0,0.707,0.021,1.144,0.062c0.438,0.041,0.774,0.087,1.011,0.139v0.667h-2.354c-0.348,0-0.604,0.059-0.767,0.177
		c-0.162,0.119-0.244,0.326-0.244,0.622v0.223c0,0.281,0.08,0.467,0.239,0.556s0.416,0.133,0.771,0.133h0.889
		c0.556,0,0.979,0.13,1.271,0.389c0.293,0.26,0.439,0.63,0.439,1.11v0.456c0,0.57-0.188,0.968-0.562,1.193
		c-0.374,0.227-0.927,0.339-1.66,0.339C69.941,8.29,69.518,8.273,69.04,8.24z"/>
	<path d="M74.51,7.769c-0.281-0.304-0.415-0.812-0.399-1.521l0.044-3.055H73.21V2.471l0.967-0.189l0.166-1.666h0.878v1.666h1.61
		v0.911h-1.61v3.043c0,0.4,0.076,0.678,0.228,0.833s0.343,0.244,0.572,0.267l0.732,0.066v0.822h-0.899
		C75.239,8.224,74.791,8.072,74.51,7.769z"/>
	<path d="M77.953,2.281h0.889l0.222,0.645c0.334-0.229,0.673-0.411,1.017-0.544c0.345-0.134,0.724-0.2,1.139-0.2
		c0.355,0,0.662,0.078,0.922,0.233c0.259,0.155,0.463,0.366,0.61,0.633c0.297-0.229,0.657-0.432,1.083-0.605
		s0.828-0.261,1.205-0.261c0.637,0,1.107,0.187,1.411,0.561s0.455,0.88,0.455,1.517v3.965h-1.11V4.358
		c0-0.355-0.103-0.639-0.306-0.85c-0.204-0.211-0.479-0.316-0.827-0.316c-0.282,0-0.576,0.054-0.884,0.161
		c-0.307,0.107-0.602,0.25-0.883,0.428c0.06,0.199,0.089,0.396,0.089,0.588v3.854h-1.11V4.358c0-0.355-0.1-0.639-0.3-0.85
		s-0.474-0.316-0.822-0.316c-0.311,0-0.594,0.044-0.85,0.133c-0.255,0.089-0.535,0.223-0.839,0.4v4.498h-1.11V2.281z"/>
	<path d="M89.254,8.013c-0.366-0.186-0.629-0.496-0.788-0.933c-0.159-0.438-0.239-1.048-0.239-1.833c0-0.8,0.08-1.418,0.239-1.854
		c0.159-0.438,0.42-0.744,0.783-0.922c0.362-0.178,0.866-0.267,1.511-0.267c0.562,0,1.011,0.059,1.344,0.178
		c0.333,0.118,0.577,0.321,0.732,0.61c0.156,0.289,0.233,0.688,0.233,1.199c0,0.526-0.151,0.905-0.455,1.139s-0.74,0.35-1.311,0.35
		h-1.966c0.007,0.452,0.057,0.802,0.149,1.05s0.262,0.428,0.506,0.539s0.596,0.166,1.055,0.166h1.855v0.667
		c-0.407,0.06-0.767,0.105-1.078,0.139c-0.311,0.033-0.662,0.05-1.055,0.05C90.126,8.29,89.621,8.198,89.254,8.013z M91.203,4.98
		c0.304,0,0.524-0.058,0.661-0.172c0.137-0.115,0.206-0.316,0.206-0.605c0-0.444-0.099-0.752-0.295-0.922S91.24,3.025,90.76,3.025
		c-0.378,0-0.669,0.056-0.872,0.167c-0.204,0.111-0.349,0.306-0.434,0.583s-0.128,0.68-0.128,1.205H91.203z"/>
	<path d="M94.424,2.281h0.889l0.222,0.645c0.289-0.215,0.617-0.393,0.983-0.533s0.734-0.211,1.105-0.211
		c0.629,0,1.092,0.19,1.388,0.572c0.297,0.381,0.444,0.871,0.444,1.472v3.998h-1.11V4.358c0-0.355-0.1-0.639-0.3-0.85
		s-0.474-0.316-0.822-0.316c-0.311,0-0.594,0.044-0.85,0.133c-0.255,0.089-0.535,0.223-0.839,0.4v4.498h-1.11V2.281z"/>
	<path d="M101.688,7.769c-0.281-0.304-0.415-0.812-0.399-1.521l0.044-3.055h-0.944V2.471l0.967-0.189l0.166-1.666h0.878v1.666h1.61
		v0.911h-1.61v3.043c0,0.4,0.076,0.678,0.228,0.833s0.343,0.244,0.572,0.267l0.732,0.066v0.822h-0.899
		C102.417,8.224,101.969,8.072,101.688,7.769z"/>
	<path d="M48.182,21.291c-0.411-0.219-0.721-0.63-0.928-1.233s-0.311-1.479-0.311-2.627c0-1.088,0.106-1.932,0.321-2.532
		c0.215-0.6,0.533-1.016,0.955-1.249c0.423-0.233,0.981-0.35,1.678-0.35c0.385,0,0.8,0.031,1.244,0.094
		c0.444,0.063,0.836,0.139,1.177,0.228v0.845c-0.237-0.037-0.562-0.074-0.978-0.111c-0.414-0.037-0.829-0.056-1.243-0.056
		c-0.526,0-0.932,0.083-1.217,0.25s-0.494,0.474-0.627,0.922c-0.134,0.448-0.2,1.105-0.2,1.972c0,0.889,0.062,1.557,0.188,2.005
		s0.33,0.755,0.611,0.922c0.281,0.166,0.692,0.25,1.232,0.25c0.896,0,1.641-0.045,2.232-0.134v0.855
		c-0.74,0.186-1.562,0.277-2.466,0.277C49.149,21.618,48.592,21.509,48.182,21.291z"/>
	<path d="M54.373,21.352c-0.378-0.178-0.657-0.486-0.839-0.927s-0.272-1.058-0.272-1.85c0-0.814,0.093-1.442,0.278-1.883
		c0.185-0.44,0.464-0.744,0.838-0.91c0.374-0.167,0.876-0.25,1.506-0.25c0.629,0,1.131,0.085,1.505,0.255
		c0.373,0.171,0.653,0.476,0.838,0.917c0.186,0.44,0.278,1.064,0.278,1.871c0,0.8-0.091,1.42-0.272,1.86s-0.459,0.748-0.833,0.922
		s-0.879,0.261-1.516,0.261C55.254,21.618,54.75,21.529,54.373,21.352z M56.755,20.558c0.211-0.1,0.37-0.304,0.478-0.61
		c0.107-0.308,0.161-0.769,0.161-1.383c0-0.615-0.054-1.076-0.161-1.383c-0.107-0.308-0.267-0.51-0.478-0.605
		c-0.211-0.097-0.501-0.145-0.871-0.145c-0.378,0-0.669,0.048-0.872,0.145c-0.204,0.096-0.359,0.298-0.467,0.605
		c-0.107,0.307-0.161,0.768-0.161,1.383c0,0.621,0.054,1.086,0.161,1.394s0.263,0.509,0.467,0.605
		c0.203,0.096,0.494,0.145,0.872,0.145C56.254,20.708,56.544,20.657,56.755,20.558z"/>
	<path d="M59.859,15.609h0.889l0.222,0.645c0.334-0.229,0.673-0.411,1.017-0.544c0.345-0.134,0.724-0.2,1.139-0.2
		c0.355,0,0.662,0.078,0.922,0.233c0.259,0.155,0.463,0.366,0.61,0.633c0.297-0.229,0.657-0.432,1.083-0.605
		s0.828-0.261,1.205-0.261c0.637,0,1.107,0.187,1.411,0.561s0.455,0.88,0.455,1.517v3.965h-1.11v-3.865
		c0-0.355-0.103-0.639-0.306-0.85c-0.204-0.211-0.479-0.316-0.827-0.316c-0.282,0-0.576,0.054-0.884,0.161
		c-0.307,0.107-0.602,0.25-0.883,0.428c0.06,0.199,0.089,0.396,0.089,0.588v3.854h-1.11v-3.865c0-0.355-0.1-0.639-0.3-0.85
		s-0.474-0.316-0.822-0.316c-0.311,0-0.594,0.044-0.85,0.133c-0.255,0.089-0.535,0.223-0.839,0.4v4.498h-1.11V15.609z"/>
	<path d="M70.333,15.609h0.911l0.199,0.6c0.245-0.178,0.533-0.335,0.867-0.472c0.333-0.137,0.662-0.205,0.988-0.205
		c0.726,0,1.261,0.277,1.604,0.833c0.345,0.555,0.517,1.292,0.517,2.21c0,1.015-0.168,1.777-0.505,2.288s-0.876,0.767-1.616,0.767
		c-0.304,0-0.62-0.047-0.95-0.14c-0.329-0.092-0.631-0.216-0.905-0.372v3.065h-1.11V15.609z M74.31,18.575
		c0-0.733-0.124-1.271-0.372-1.616c-0.248-0.344-0.568-0.517-0.961-0.517c-0.474,0-0.985,0.148-1.533,0.444v3.388
		c0.229,0.134,0.477,0.237,0.739,0.312c0.263,0.073,0.523,0.11,0.783,0.11C73.861,20.696,74.31,19.989,74.31,18.575z"/>
	<path d="M76.875,21.219c-0.281-0.267-0.422-0.63-0.422-1.089v-0.466c0-0.475,0.161-0.854,0.483-1.139s0.794-0.428,1.416-0.428
		h1.855v-0.622c0-0.244-0.041-0.442-0.123-0.595c-0.081-0.151-0.228-0.268-0.438-0.35c-0.211-0.081-0.513-0.122-0.905-0.122H76.92
		v-0.655c0.651-0.147,1.385-0.226,2.199-0.233c0.755,0,1.312,0.146,1.672,0.439c0.358,0.292,0.538,0.771,0.538,1.438v4.154h-0.877
		l-0.189-0.666c-0.066,0.059-0.224,0.147-0.472,0.267c-0.248,0.118-0.537,0.226-0.866,0.321c-0.33,0.097-0.649,0.145-0.961,0.145
		C77.52,21.618,77.157,21.485,76.875,21.219z M79.142,20.713c0.251-0.062,0.486-0.133,0.705-0.211
		c0.218-0.077,0.339-0.124,0.361-0.139v-1.71l-1.556,0.066c-0.718,0.044-1.077,0.362-1.077,0.955v0.267
		c0,0.304,0.089,0.523,0.267,0.661c0.178,0.137,0.396,0.205,0.655,0.205C78.675,20.808,78.89,20.776,79.142,20.713z"/>
	<path d="M82.84,15.609h0.889l0.222,0.645c0.289-0.215,0.617-0.393,0.983-0.533s0.734-0.211,1.105-0.211
		c0.629,0,1.092,0.19,1.388,0.572c0.297,0.381,0.444,0.871,0.444,1.472v3.998h-1.11v-3.865c0-0.355-0.1-0.639-0.3-0.85
		s-0.474-0.316-0.822-0.316c-0.311,0-0.594,0.044-0.85,0.133c-0.255,0.089-0.535,0.223-0.839,0.4v4.498h-1.11V15.609z"/>
	<path d="M91.792,21.552c-0.386-0.007-0.722-0.126-1.011-0.355s-0.504-0.596-0.645-1.1l-1.333-4.487h1.167l1.199,4.254
		c0.163,0.504,0.44,0.756,0.833,0.756l1.389-5.01h1.144l-2.044,7.476l-0.533,1.099H91.07L91.792,21.552z"/>
</g>
</svg>
