<?xml version="1.0" encoding="utf-8"?>
<!-- Generator: Adobe Illustrator 16.0.0, SVG Export Plug-In . SVG Version: 6.00 Build 0)  -->
<!DOCTYPE svg PUBLIC "-//W3C//DTD SVG 1.1//EN" "http://www.w3.org/Graphics/SVG/1.1/DTD/svg11.dtd">
<svg version="1.1" id="Ebene_1" xmlns="http://www.w3.org/2000/svg" xmlns:xlink="http://www.w3.org/1999/xlink" x="0px" y="0px"
	 width="421.222px" height="132.943px" viewBox="0 0 421.222 132.943" enable-background="new 0 0 421.222 132.943"
	 xml:space="preserve">
<path fill="#BEC1C2" stroke="#FFFFFF" stroke-width="2" stroke-miterlimit="10" d="M44.634,12.938c0,0-49.476,25.106-43.06,48.343
	c6.415,23.237,47.086,53.436,47.086,53.436s31.239,22.812,49.025,15.936c17.784-6.877,22.843-30.208,25.104-49.971
	c2.26-19.764,1.48-65.193-21.813-76.285C77.683-6.696,44.634,12.938,44.634,12.938z"/>
<path fill="#BA114C" stroke="#FFFFFF" stroke-width="2" stroke-miterlimit="10" d="M13.161,66.906c0,0,0,55.481,24.649,60.274
	c24.649,4.795,71.951-17.809,71.951-17.809s35.975-17.535,37.974-36.508c1.999-18.972-17.321-34.04-34.643-44.999
	S53.132-2.956,31.814,12.797S13.161,66.906,13.161,66.906z"/>
<g>
	<path fill="#232B30" d="M174.785,87.079V49.005h13.336c4.62,0,8.124,0.885,10.513,2.654c2.388,1.77,3.583,4.362,3.583,7.779
		c0,1.865-0.48,3.509-1.438,4.93c-0.959,1.421-2.292,2.462-4.001,3.125c1.952,0.488,3.491,1.473,4.616,2.954
		c1.125,1.482,1.687,3.295,1.687,5.439c0,3.661-1.168,6.433-3.504,8.315c-2.336,1.883-5.666,2.842-9.99,2.877H174.785z
		 M182.63,64.956h5.805c3.957-0.069,5.936-1.647,5.936-4.733c0-1.726-0.501-2.968-1.503-3.726c-1.003-0.759-2.585-1.138-4.747-1.138
		h-5.491V64.956z M182.63,70.5v10.277h6.72c1.848,0,3.291-0.44,4.328-1.321c1.037-0.88,1.556-2.096,1.556-3.647
		c0-3.486-1.804-5.256-5.413-5.309H182.63z"/>
	<path fill="#232B30" d="M237.78,49.005v25.078c0,4.166-1.303,7.461-3.908,9.884c-2.607,2.424-6.168,3.636-10.683,3.636
		c-4.445,0-7.976-1.177-10.591-3.53c-2.615-2.354-3.948-5.588-4.001-9.702V49.005h7.845v25.13c0,2.493,0.597,4.311,1.792,5.452
		c1.194,1.143,2.846,1.713,4.955,1.713c4.411,0,6.651-2.318,6.721-6.956V49.005H237.78z"/>
	<path fill="#232B30" d="M263.957,77.09c0-1.481-0.522-2.619-1.568-3.413c-1.047-0.793-2.93-1.63-5.648-2.51
		c-2.72-0.88-4.873-1.748-6.459-2.603c-4.324-2.336-6.485-5.482-6.485-9.439c0-2.058,0.579-3.893,1.738-5.505
		s2.824-2.872,4.995-3.778c2.17-0.906,4.606-1.36,7.309-1.36c2.72,0,5.143,0.493,7.27,1.478c2.127,0.985,3.779,2.376,4.956,4.171
		c1.177,1.796,1.765,3.836,1.765,6.119h-7.845c0-1.743-0.549-3.099-1.647-4.066s-2.642-1.451-4.629-1.451
		c-1.918,0-3.408,0.405-4.472,1.216s-1.595,1.879-1.595,3.203c0,1.238,0.623,2.275,1.87,3.112c1.246,0.837,3.081,1.621,5.504,2.354
		c4.463,1.343,7.715,3.007,9.754,4.995c2.04,1.987,3.06,4.463,3.06,7.426c0,3.295-1.246,5.88-3.739,7.754s-5.849,2.812-10.067,2.812
		c-2.929,0-5.597-0.536-8.002-1.608c-2.406-1.072-4.241-2.541-5.505-4.406s-1.896-4.027-1.896-6.485h7.871
		c0,4.201,2.51,6.302,7.531,6.302c1.865,0,3.32-0.379,4.367-1.138C263.434,79.509,263.957,78.449,263.957,77.09z"/>
	<path fill="#232B30" d="M285.478,87.079h-7.845V49.005h7.845V87.079z"/>
	<path fill="#232B30" d="M323.709,87.079h-7.845l-15.272-25.052v25.052h-7.845V49.005h7.845l15.298,25.104V49.005h7.819V87.079z"/>
	<path fill="#232B30" d="M353.467,70.526h-15.062v10.251h17.678v6.302H330.56V49.005h25.471v6.354h-17.626v9.074h15.062V70.526z"/>
	<path fill="#232B30" d="M380.428,77.09c0-1.481-0.522-2.619-1.568-3.413c-1.047-0.793-2.93-1.63-5.648-2.51
		c-2.72-0.88-4.873-1.748-6.459-2.603c-4.324-2.336-6.485-5.482-6.485-9.439c0-2.058,0.579-3.893,1.738-5.505
		s2.824-2.872,4.995-3.778c2.17-0.906,4.606-1.36,7.309-1.36c2.72,0,5.143,0.493,7.27,1.478c2.127,0.985,3.779,2.376,4.956,4.171
		c1.177,1.796,1.765,3.836,1.765,6.119h-7.845c0-1.743-0.549-3.099-1.647-4.066s-2.642-1.451-4.629-1.451
		c-1.918,0-3.408,0.405-4.472,1.216s-1.595,1.879-1.595,3.203c0,1.238,0.623,2.275,1.87,3.112c1.246,0.837,3.081,1.621,5.504,2.354
		c4.463,1.343,7.715,3.007,9.754,4.995c2.04,1.987,3.06,4.463,3.06,7.426c0,3.295-1.246,5.88-3.739,7.754s-5.849,2.812-10.067,2.812
		c-2.929,0-5.597-0.536-8.002-1.608c-2.406-1.072-4.241-2.541-5.505-4.406s-1.896-4.027-1.896-6.485h7.871
		c0,4.201,2.51,6.302,7.531,6.302c1.865,0,3.32-0.379,4.367-1.138C379.906,79.509,380.428,78.449,380.428,77.09z"/>
	<path fill="#232B30" d="M413.351,77.09c0-1.481-0.522-2.619-1.568-3.413c-1.047-0.793-2.93-1.63-5.648-2.51
		c-2.72-0.88-4.873-1.748-6.459-2.603c-4.324-2.336-6.485-5.482-6.485-9.439c0-2.058,0.579-3.893,1.738-5.505
		s2.824-2.872,4.995-3.778c2.17-0.906,4.606-1.36,7.309-1.36c2.72,0,5.143,0.493,7.27,1.478c2.127,0.985,3.779,2.376,4.956,4.171
		c1.177,1.796,1.765,3.836,1.765,6.119h-7.845c0-1.743-0.549-3.099-1.647-4.066s-2.642-1.451-4.629-1.451
		c-1.918,0-3.408,0.405-4.472,1.216s-1.595,1.879-1.595,3.203c0,1.238,0.623,2.275,1.87,3.112c1.246,0.837,3.081,1.621,5.504,2.354
		c4.463,1.343,7.715,3.007,9.754,4.995c2.04,1.987,3.06,4.463,3.06,7.426c0,3.295-1.246,5.88-3.739,7.754s-5.849,2.812-10.067,2.812
		c-2.929,0-5.597-0.536-8.002-1.608c-2.406-1.072-4.241-2.541-5.505-4.406s-1.896-4.027-1.896-6.485h7.871
		c0,4.201,2.51,6.302,7.531,6.302c1.865,0,3.32-0.379,4.367-1.138C412.829,79.509,413.351,78.449,413.351,77.09z"/>
</g>
<g>
	<path fill="#FFFFFF" d="M74.427,59.532l7.883-14.496h9.962L80.028,65.884l12.561,21.195H82.512l-8.085-14.727l-8.085,14.727H56.264
		l12.561-21.195L56.582,45.036h9.962L74.427,59.532z"/>
</g>
</svg>
