<?xml version="1.0" encoding="UTF-8" standalone="no"?>
<!-- Created with Inkscape (http://www.inkscape.org/) -->

<svg
   width="13.106411mm"
   height="2.3750894mm"
   viewBox="0 0 13.106411 2.3750894"
   version="1.1"
   id="svg1"
   xmlns="http://www.w3.org/2000/svg"
   xmlns:svg="http://www.w3.org/2000/svg">
  <defs
     id="defs1" />
  <g
     id="layer1"
     transform="translate(-78.614565,-109.29588)">
    <path
       style="font-weight:bold;font-size:3.175px;font-family:Poppins;-inkscape-font-specification:'Poppins Bold';stroke-width:0.5"
       d="m 79.157492,111.22647 h 0.7112 v 0.4191 h -1.254125 v -2.22885 h 0.542925 z m 0.863598,-0.4699 q 0,-0.27305 0.1016,-0.47943 0.104775,-0.20637 0.282575,-0.3175 0.1778,-0.11112 0.396875,-0.11112 0.187325,0 0.327025,0.0762 0.142875,0.0762 0.219075,0.20002 v -0.25082 h 0.542925 v 1.77165 H 81.34824 v -0.25083 q -0.07937,0.12383 -0.22225,0.20003 -0.1397,0.0762 -0.327025,0.0762 -0.2159,0 -0.3937,-0.11113 -0.1778,-0.1143 -0.282575,-0.32067 -0.1016,-0.20955 -0.1016,-0.4826 z m 1.32715,0.003 q 0,-0.2032 -0.1143,-0.32067 -0.111125,-0.11748 -0.27305,-0.11748 -0.161925,0 -0.276225,0.11748 -0.111125,0.1143 -0.111125,0.3175 0,0.2032 0.111125,0.32385 0.1143,0.11747 0.276225,0.11747 0.161925,0 0.27305,-0.11747 0.1143,-0.11748 0.1143,-0.32068 z m 3.197227,-0.90487 q 0.3302,0 0.523875,0.20002 0.19685,0.20003 0.19685,0.55563 v 1.03505 h -0.53975 v -0.96203 q 0,-0.17145 -0.09208,-0.26352 -0.0889,-0.0952 -0.24765,-0.0952 -0.15875,0 -0.250825,0.0952 -0.0889,0.0921 -0.0889,0.26352 v 0.96203 h -0.53975 v -0.96203 q 0,-0.17145 -0.09208,-0.26352 -0.0889,-0.0952 -0.24765,-0.0952 -0.15875,0 -0.250825,0.0952 -0.0889,0.0921 -0.0889,0.26352 v 0.96203 h -0.542925 v -1.77165 h 0.542925 v 0.22225 q 0.08255,-0.11113 0.2159,-0.17463 0.13335,-0.0667 0.301625,-0.0667 0.200025,0 0.3556,0.0857 0.15875,0.0857 0.24765,0.24448 0.09208,-0.14605 0.250825,-0.23813 0.15875,-0.0921 0.346075,-0.0921 z m 1.64465,0.26987 q 0.0762,-0.12382 0.219075,-0.20002 0.142875,-0.0762 0.327025,-0.0762 0.219075,0 0.396875,0.11112 0.1778,0.11113 0.2794,0.3175 0.104775,0.20638 0.104775,0.47943 0,0.27305 -0.104775,0.4826 -0.1016,0.20637 -0.2794,0.32067 -0.1778,0.11113 -0.396875,0.11113 -0.187325,0 -0.327025,-0.073 -0.1397,-0.0762 -0.219075,-0.20002 v 0.24765 h -0.542925 v -2.3495 h 0.542925 z m 0.7747,0.63183 q 0,-0.2032 -0.1143,-0.3175 -0.111125,-0.11748 -0.276225,-0.11748 -0.161925,0 -0.276225,0.11748 -0.111125,0.11747 -0.111125,0.32067 0,0.2032 0.111125,0.32068 0.1143,0.11747 0.276225,0.11747 0.161925,0 0.276225,-0.11747 0.1143,-0.12065 0.1143,-0.32385 z m 0.730254,0 q 0,-0.27305 0.1016,-0.47943 0.104775,-0.20637 0.282575,-0.3175 0.1778,-0.11112 0.396875,-0.11112 0.174625,0 0.3175,0.073 0.14605,0.073 0.2286,0.19685 v -0.82232 h 0.542925 v 2.3495 h -0.542925 v -0.254 q -0.0762,0.127 -0.219075,0.2032 -0.1397,0.0762 -0.327025,0.0762 -0.219075,0 -0.396875,-0.11113 -0.1778,-0.1143 -0.282575,-0.32067 -0.1016,-0.20955 -0.1016,-0.4826 z m 1.32715,0.003 q 0,-0.2032 -0.1143,-0.32067 -0.111125,-0.11748 -0.27305,-0.11748 -0.161925,0 -0.276225,0.11748 -0.111125,0.1143 -0.111125,0.3175 0,0.2032 0.111125,0.32385 0.1143,0.11747 0.276225,0.11747 0.161925,0 0.27305,-0.11747 0.1143,-0.11748 0.1143,-0.32068 z m 0.828677,-0.003 q 0,-0.27305 0.1016,-0.47943 0.104775,-0.20637 0.282575,-0.3175 0.1778,-0.11112 0.396875,-0.11112 0.187325,0 0.327025,0.0762 0.142875,0.0762 0.219075,0.20002 v -0.25082 h 0.542925 v 1.77165 h -0.542925 v -0.25083 q -0.07937,0.12383 -0.22225,0.20003 -0.1397,0.0762 -0.327025,0.0762 -0.2159,0 -0.3937,-0.11113 -0.1778,-0.1143 -0.282575,-0.32067 -0.1016,-0.20955 -0.1016,-0.4826 z m 1.32715,0.003 q 0,-0.2032 -0.1143,-0.32067 -0.111125,-0.11748 -0.27305,-0.11748 -0.161925,0 -0.276225,0.11748 -0.111125,0.1143 -0.111125,0.3175 0,0.2032 0.111125,0.32385 0.1143,0.11747 0.276225,0.11747 0.161925,0 0.27305,-0.11747 0.1143,-0.11748 0.1143,-0.32068 z"
       id="text1"
       aria-label="Lambda" />
  </g>
</svg>
