<?xml version="1.0" encoding="utf-8"?>
<!-- Generator: Adobe Illustrator 26.0.2, SVG Export Plug-In . SVG Version: 6.00 Build 0)  -->
<svg version="1.1" id="Ebene_1" xmlns="http://www.w3.org/2000/svg" xmlns:xlink="http://www.w3.org/1999/xlink" x="0px" y="0px"
	 width="145.7px" height="22.9px" viewBox="0 0 145.7 22.9" style="enable-background:new 0 0 145.7 22.9;" xml:space="preserve">
<style type="text/css">
	.st0{fill:#E90069;}
</style>
<g>
	<path class="st0" d="M3.1,11.2v6.6H0V0h6.8c2,0,3.6,0.5,4.7,1.5c1.2,1,1.7,2.4,1.7,4.1c0,1.7-0.6,3.1-1.7,4.1
		c-1.1,1-2.7,1.5-4.8,1.5H3.1z M3.1,8.7h3.7c1.1,0,1.9-0.3,2.5-0.8s0.9-1.3,0.9-2.2c0-1-0.3-1.7-0.9-2.3C8.7,2.8,7.9,2.5,6.9,2.5
		H3.1V8.7z"/>
	<path class="st0" d="M23.4,17.7c-0.1-0.3-0.2-0.7-0.3-1.2c-0.9,1-2.1,1.5-3.5,1.5c-1.3,0-2.4-0.4-3.2-1.1c-0.8-0.8-1.3-1.7-1.3-2.8
		c0-1.4,0.5-2.5,1.6-3.2c1-0.8,2.5-1.1,4.5-1.1H23V8.8c0-0.7-0.2-1.2-0.6-1.6c-0.4-0.4-1-0.6-1.7-0.6c-0.7,0-1.2,0.2-1.7,0.5
		c-0.4,0.3-0.6,0.8-0.6,1.3h-3c0-0.7,0.2-1.4,0.7-2c0.5-0.6,1.1-1.1,2-1.5s1.7-0.5,2.8-0.5c1.5,0,2.8,0.4,3.7,1.2
		c0.9,0.8,1.4,1.9,1.4,3.3v5.9c0,1.2,0.2,2.1,0.5,2.8v0.2H23.4z M20.1,15.6c0.6,0,1.1-0.1,1.7-0.4s0.9-0.7,1.2-1.1v-2.5h-1.6
		c-1.1,0-1.9,0.2-2.5,0.6s-0.8,0.9-0.8,1.6c0,0.6,0.2,1,0.6,1.4C19,15.4,19.5,15.6,20.1,15.6z"/>
	<path class="st0" d="M28.5,11c0-2,0.5-3.7,1.4-4.9c1-1.2,2.2-1.8,3.8-1.8c1.5,0,2.7,0.5,3.5,1.6l0.1-1.3h2.7v12.8
		c0,1.7-0.5,3.1-1.6,4.1c-1.1,1-2.5,1.5-4.4,1.5c-1,0-1.9-0.2-2.8-0.6c-0.9-0.4-1.6-0.9-2.1-1.6l1.4-1.8c0.9,1.1,2,1.6,3.4,1.6
		c1,0,1.8-0.3,2.3-0.8c0.6-0.5,0.9-1.3,0.9-2.3v-0.9c-0.9,1-2,1.4-3.4,1.4c-1.5,0-2.8-0.6-3.8-1.8C29,14.9,28.5,13.2,28.5,11z
		 M31.4,11.3c0,1.3,0.3,2.4,0.8,3.1c0.5,0.8,1.3,1.1,2.2,1.1c1.2,0,2.1-0.5,2.7-1.5V8.2c-0.6-1-1.4-1.5-2.6-1.5
		c-1,0-1.7,0.4-2.3,1.2S31.4,9.8,31.4,11.3z"/>
	<path class="st0" d="M49,18c-1.9,0-3.4-0.6-4.6-1.8s-1.7-2.8-1.7-4.7v-0.4c0-1.3,0.3-2.5,0.8-3.5c0.5-1,1.2-1.8,2.1-2.4
		c0.9-0.6,1.9-0.9,3.1-0.9c1.8,0,3.2,0.6,4.2,1.7c1,1.1,1.5,2.8,1.5,4.9v1.2h-8.6c0.1,1.1,0.5,1.9,1.1,2.6c0.6,0.6,1.4,1,2.4,1
		c1.4,0,2.5-0.5,3.3-1.6l1.6,1.5c-0.5,0.8-1.2,1.4-2.1,1.8S50.1,18,49,18z M48.6,6.7c-0.8,0-1.5,0.3-2,0.9c-0.5,0.6-0.8,1.4-1,2.4
		h5.6V9.7c-0.1-1-0.3-1.7-0.8-2.2S49.4,6.7,48.6,6.7z"/>
	<path class="st0" d="M66.1,11.2v6.6H63V0h6.8c2,0,3.6,0.5,4.7,1.5c1.2,1,1.7,2.4,1.7,4.1c0,1.7-0.6,3.1-1.7,4.1
		c-1.1,1-2.7,1.5-4.8,1.5H66.1z M66.1,8.7h3.7c1.1,0,1.9-0.3,2.5-0.8s0.9-1.3,0.9-2.2c0-1-0.3-1.7-0.9-2.3c-0.6-0.6-1.4-0.9-2.4-0.9
		h-3.8V8.7z"/>
	<path class="st0" d="M85.6,7.3c-0.4-0.1-0.8-0.1-1.2-0.1c-1.4,0-2.3,0.5-2.7,1.6v9h-3V4.6h2.8L81.6,6c0.7-1.1,1.7-1.7,3-1.7
		c0.4,0,0.8,0.1,1,0.2L85.6,7.3z"/>
	<path class="st0" d="M93.3,18c-1.9,0-3.4-0.6-4.6-1.8S87,13.5,87,11.5v-0.4c0-1.3,0.3-2.5,0.8-3.5c0.5-1,1.2-1.8,2.1-2.4
		c0.9-0.6,1.9-0.9,3.1-0.9c1.8,0,3.2,0.6,4.2,1.7c1,1.1,1.5,2.8,1.5,4.9v1.2H90c0.1,1.1,0.5,1.9,1.1,2.6c0.6,0.6,1.4,1,2.4,1
		c1.4,0,2.5-0.5,3.3-1.6l1.6,1.5c-0.5,0.8-1.2,1.4-2.1,1.8S94.4,18,93.3,18z M92.9,6.7c-0.8,0-1.5,0.3-2,0.9c-0.5,0.6-0.8,1.4-1,2.4
		h5.6V9.7c-0.1-1-0.3-1.7-0.8-2.2S93.7,6.7,92.9,6.7z"/>
	<path class="st0" d="M108.2,14.2c0-0.5-0.2-0.9-0.7-1.2c-0.4-0.3-1.2-0.5-2.2-0.7s-1.8-0.5-2.5-0.8c-1.5-0.7-2.2-1.8-2.2-3.1
		c0-1.1,0.5-2.1,1.4-2.8c1-0.8,2.2-1.1,3.7-1.1c1.6,0,2.8,0.4,3.8,1.2c1,0.8,1.5,1.8,1.5,3h-3c0-0.6-0.2-1-0.6-1.4
		c-0.4-0.4-1-0.6-1.7-0.6c-0.6,0-1.2,0.2-1.6,0.5c-0.4,0.3-0.6,0.7-0.6,1.2c0,0.5,0.2,0.8,0.6,1.1c0.4,0.3,1.2,0.5,2.3,0.8
		s2.1,0.6,2.7,0.9c0.7,0.4,1.2,0.8,1.5,1.3c0.3,0.5,0.5,1.1,0.5,1.8c0,1.2-0.5,2.1-1.5,2.9c-1,0.7-2.3,1.1-3.9,1.1
		c-1.1,0-2-0.2-2.9-0.6c-0.8-0.4-1.5-0.9-2-1.6c-0.5-0.7-0.7-1.4-0.7-2.2h2.9c0,0.7,0.3,1.2,0.8,1.6c0.5,0.4,1.1,0.6,1.9,0.6
		c0.8,0,1.4-0.1,1.8-0.4C108,15,108.2,14.6,108.2,14.2z"/>
	<path class="st0" d="M119.5,18c-1.9,0-3.4-0.6-4.6-1.8s-1.7-2.8-1.7-4.7v-0.4c0-1.3,0.3-2.5,0.8-3.5c0.5-1,1.2-1.8,2.1-2.4
		c0.9-0.6,1.9-0.9,3.1-0.9c1.8,0,3.2,0.6,4.2,1.7c1,1.1,1.5,2.8,1.5,4.9v1.2h-8.6c0.1,1.1,0.5,1.9,1.1,2.6c0.6,0.6,1.4,1,2.4,1
		c1.4,0,2.5-0.5,3.3-1.6l1.6,1.5c-0.5,0.8-1.2,1.4-2.1,1.8S120.6,18,119.5,18z M119.2,6.7c-0.8,0-1.5,0.3-2,0.9
		c-0.5,0.6-0.8,1.4-1,2.4h5.6V9.7c-0.1-1-0.3-1.7-0.8-2.2S120,6.7,119.2,6.7z"/>
	<path class="st0" d="M130.8,1.4v3.2h2.3v2.2h-2.3v7.4c0,0.5,0.1,0.9,0.3,1.1c0.2,0.2,0.6,0.3,1.1,0.3c0.3,0,0.7,0,1-0.1v2.3
		c-0.7,0.2-1.3,0.3-1.9,0.3c-2.3,0-3.4-1.3-3.4-3.8V6.7h-2.2V4.6h2.2V1.4H130.8z"/>
	<path class="st0" d="M142.8,14.2c0-0.5-0.2-0.9-0.7-1.2c-0.4-0.3-1.2-0.5-2.2-0.7s-1.8-0.5-2.5-0.8c-1.5-0.7-2.2-1.8-2.2-3.1
		c0-1.1,0.5-2.1,1.4-2.8c1-0.8,2.2-1.1,3.7-1.1c1.6,0,2.8,0.4,3.8,1.2c1,0.8,1.5,1.8,1.5,3h-3c0-0.6-0.2-1-0.6-1.4
		c-0.4-0.4-1-0.6-1.7-0.6c-0.6,0-1.2,0.2-1.6,0.5c-0.4,0.3-0.6,0.7-0.6,1.2c0,0.5,0.2,0.8,0.6,1.1c0.4,0.3,1.2,0.5,2.3,0.8
		s2.1,0.6,2.7,0.9c0.7,0.4,1.2,0.8,1.5,1.3c0.3,0.5,0.5,1.1,0.5,1.8c0,1.2-0.5,2.1-1.5,2.9c-1,0.7-2.3,1.1-3.9,1.1
		c-1.1,0-2-0.2-2.9-0.6c-0.8-0.4-1.5-0.9-2-1.6c-0.5-0.7-0.7-1.4-0.7-2.2h2.9c0,0.7,0.3,1.2,0.8,1.6c0.5,0.4,1.1,0.6,1.9,0.6
		c0.8,0,1.4-0.1,1.8-0.4C142.6,15,142.8,14.6,142.8,14.2z"/>
</g>
</svg>
