<?xml version="1.0" encoding="utf-8"?>
<!-- Generator: Adobe Illustrator 25.2.1, SVG Export Plug-In . SVG Version: 6.00 Build 0)  -->
<svg version="1.1" id="Ebene_1" xmlns="http://www.w3.org/2000/svg" xmlns:xlink="http://www.w3.org/1999/xlink" x="0px" y="0px"
	 viewBox="0 0 211.3 38.3" style="enable-background:new 0 0 211.3 38.3;" xml:space="preserve">
<style type="text/css">
	.st0{fill:#FFFFFF;}
	.st1{fill:#24AD7E;}
</style>
<g>
	<path class="st0" d="M0,0h6.7v37.6H0V0z"/>
	<path class="st0" d="M15.6,9.4h5.4l0.5,3.8h0.2c2.5-2.5,5.4-4.5,9.3-4.5c6,0,8.7,4.1,8.7,11.2v17.7h-6.6V20.7
		c0-4.6-1.3-6.4-4.4-6.4c-2.5,0-4.1,1.2-6.4,3.5v19.7h-6.6V9.4z"/>
	<path class="st0" d="M48.8,28.1V14.6h-4v-5l4.4-0.3l0.8-7.7h5.5v7.7h7.2v5.3h-7.2v13.4c0,3.3,1.3,5,4,5c1,0,2.1-0.3,2.9-0.6
		l1.1,4.9c-1.5,0.5-3.5,1-5.8,1C51.2,38.3,48.8,34.2,48.8,28.1z"/>
	<path class="st0" d="M68.6,9.4H74l0.5,5h0.2c2-3.7,5-5.7,8-5.7c1.4,0,2.3,0.2,3.2,0.6L84.8,15c-1-0.3-1.7-0.5-2.9-0.5
		c-2.3,0-5,1.5-6.7,5.8v17.2h-6.6V9.4z"/>
	<path class="st0" d="M87,30c0-6,5-9.2,16.6-10.4c-0.1-3-1.3-5.6-5.1-5.6c-2.8,0-5.5,1.3-7.9,2.8l-2.4-4.4c3.1-2,7.1-3.7,11.6-3.7
		c7.1,0,10.5,4.3,10.5,12.2v16.7h-5.4l-0.5-3.1h-0.2c-2.5,2.2-5.4,3.8-8.8,3.8C90.4,38.3,87,34.9,87,30z M103.6,30v-6.3
		c-7.7,1-10.2,3-10.2,5.8c0,2.5,1.7,3.6,4.1,3.6C99.8,33.1,101.5,32,103.6,30z"/>
	<path class="st0" d="M118.2,9.4h5.4l0.5,3.8h0.2c2.5-2.5,5.4-4.5,9.3-4.5c6,0,8.7,4.1,8.7,11.2v17.7h-6.6V20.7
		c0-4.6-1.3-6.4-4.4-6.4c-2.5,0-4.1,1.2-6.4,3.5v19.7h-6.6V9.4z"/>
	<path class="st0" d="M148.5,23.5c0-9.2,6.4-14.8,13-14.8c7.6,0,11.7,5.5,11.7,13.4c0,1.3-0.1,2.5-0.3,3.2H155
		c0.6,5,3.8,7.9,8.3,7.9c2.4,0,4.5-0.8,6.6-2l2.3,4.1c-2.7,1.8-6.1,3.1-9.7,3.1C154.6,38.3,148.5,32.8,148.5,23.5z M167.5,20.8
		c0-4.3-1.9-7-5.8-7c-3.3,0-6.2,2.5-6.8,7H167.5z"/>
	<path class="st0" d="M180,28.1V14.6h-4v-5l4.4-0.3l0.8-7.7h5.5v7.7h7.2v5.3h-7.2v13.4c0,3.3,1.3,5,4,5c1,0,2.1-0.3,2.9-0.6l1.1,4.9
		c-1.5,0.5-3.5,1-5.8,1C182.4,38.3,180,34.2,180,28.1z"/>
</g>
<rect x="203.4" y="30.5" class="st1" width="7.8" height="7.8"/>
</svg>
