<svg xmlns="http://www.w3.org/2000/svg" viewBox="0 0 2793.461 2520.129"><circle fill="#FFF" cx="781.376" cy="798.129" r="23.488"/><circle fill="#FFF" cx="1925.74" cy="807.318" r="23.488"/><circle fill="#FFF" cx="765.718" cy="1598.969" r="23.489"/><circle fill="#FFF" cx="1922.07" cy="1603.443" r="23.489"/><g fill="#FFF"><path d="M557.289 1242.468l76.1-142.242h19.559l-86.59 159.489v100.458h-18.669v-99.036l-86.945-160.911h20.803l75.742 142.242zM908.271 1229.843c0 41.251-10.313 73.877-30.938 97.88-20.625 24.004-49.073 36.006-85.345 36.006-36.155 0-64.542-12.002-85.167-36.006-20.625-24.003-30.938-56.746-30.938-98.235 0-41.367 10.402-73.936 31.205-97.703 20.803-23.764 49.221-35.649 85.256-35.649 36.272 0 64.659 11.943 85.168 35.827 20.505 23.888 30.759 56.514 30.759 97.88zm-212.652 0c0 37.222 8.296 65.996 24.892 86.324 16.594 20.33 40.419 30.493 71.477 30.493 31.293 0 55.208-10.074 71.743-30.228 16.535-20.148 24.803-49.012 24.803-86.589 0-37.455-8.268-66.17-24.803-86.145-16.536-19.972-40.333-29.959-71.388-29.959-30.937 0-54.793 10.077-71.565 30.227-16.775 20.152-25.159 48.778-25.159 85.877zM1159.149 1100.226v168.201c0 29.871-8.654 53.224-25.959 70.054-17.308 16.833-41.428 25.249-72.366 25.249-30.11 0-53.607-8.446-70.498-25.337-16.892-16.893-25.337-40.45-25.337-70.677v-167.49h18.313v168.201c0 25.012 6.935 44.481 20.803 58.408 13.869 13.93 33.485 20.892 58.853 20.892 24.773 0 43.976-6.846 57.608-20.536 13.63-13.69 20.447-32.685 20.447-56.985v-169.979h18.136zM1248.05 1246.913v113.26h-18.135v-259.947h61.875c32.24 0 56.066 5.956 71.478 17.869 15.408 11.913 23.114 29.843 23.114 53.785 0 17.425-4.597 32.124-13.781 44.095-9.188 11.975-23.145 20.567-41.873 25.782l70.588 118.417h-21.692l-67.031-113.26h-64.543zm0-15.647h49.608c21.928 0 38.938-4.889 51.029-14.668 12.09-9.779 18.135-24.209 18.135-43.295 0-19.794-5.928-34.196-17.78-43.206-11.853-9.007-31.176-13.513-57.962-13.513h-43.029v114.682zM1608.635 1360.173h-18.314v-242.878h-84.456v-17.069h187.226v17.069h-84.455v242.878zM1873.738 1360.173h-142.064v-259.947h142.064v16.713H1749.81v98.325h116.994v16.713H1749.81v111.482h123.929v16.714zM2091.723 1360.173h-20.803l-76.811-121.261-78.233 121.261h-20.091l87.479-135.485-79.479-124.461h20.447l70.232 111.304 71.299-111.304h19.38l-80.544 124.105 87.124 135.841zM2196.271 1360.173h-18.314v-242.878h-84.455v-17.069h187.225v17.069h-84.455v242.878z"/></g><circle fill="none" stroke="#FFF" stroke-width="40" stroke-miterlimit="10" cx="1401.317" cy="1229.933" r="1182.218"/></svg>