<svg xmlns="http://www.w3.org/2000/svg" viewBox="0 0 36.598 44.873"><path fill="#3C4753" d="M18.298 41.041c-.1 0-.199-.03-.286-.09l-8.646-6.048a12.969 12.969 0 01-3.821-4.305 12.976 12.976 0 01-1.566-5.535l-.827-14.014a2.15 2.15 0 011.706-2.21c.393-.08.915-.12 1.558-.12l.357.003a13.007 13.007 0 007.782-2.384l2.717-1.909a1.78 1.78 0 011.028-.325c.368 0 .725.111 1.025.321l2.799 1.952c2.213 1.546 4.833 2.362 7.577 2.362.097 0 .192-.001.289-.003.11-.003.219-.004.326-.004.575 0 1.049.037 1.412.109a2.148 2.148 0 011.714 2.209l-.822 14.017a13.003 13.003 0 01-1.566 5.531 13.006 13.006 0 01-3.817 4.303l-8.649 6.05a.519.519 0 01-.29.09zM6.416 9.719c-.575 0-1.031.034-1.356.101a1.125 1.125 0 00-.906 1.173l.823 14.016a11.843 11.843 0 004.968 9.078l8.354 5.844 8.359-5.846a11.84 11.84 0 004.964-9.072l.823-14.016a1.141 1.141 0 00-.911-1.172c-.297-.06-.706-.09-1.215-.09l-.305.003c-.104.002-.208.004-.312.004-2.949 0-5.768-.879-8.151-2.542l-2.797-1.952a.79.79 0 00-.906.001l-2.717 1.908a14.005 14.005 0 01-8.378 2.567c-.114-.002-.227-.005-.337-.005z"/></svg>