<svg xmlns="http://www.w3.org/2000/svg" viewBox="0 0 36.598 44.873"><path fill="#3C4753" d="M25.995 43.549H11.239a3.716 3.716 0 01-3.712-3.713V8.785a3.717 3.717 0 013.712-3.714h14.756a3.718 3.718 0 013.712 3.714v31.051a3.717 3.717 0 01-3.712 3.713zM11.239 6.276a2.511 2.511 0 00-2.507 2.509v31.051a2.51 2.51 0 002.507 2.508h14.756a2.51 2.51 0 002.507-2.508V8.785a2.51 2.51 0 00-2.507-2.509H11.239z"/><path fill="#3C4753" d="M20.896 9.553h-4.558a.603.603 0 010-1.206h4.558a.603.603 0 010 1.206z"/></svg>