<svg xmlns="http://www.w3.org/2000/svg" viewBox="0 0 274.773 154.945"><g fill="#FFF"><path d="M47.817 53.532c0 2.346-1.033 4.263-3.099 5.752-2.066 1.489-4.421 2.233-7.064 2.233-2.644 0-4.738-.558-6.282-1.675-1.545-1.117-2.317-2.103-2.317-2.959 0-.521.651-1.368 1.955-2.541 1.303-1.173 2.401-1.889 3.294-2.15 1.861 1.377 3.387 3.555 4.579 6.533 1.377-.112 2.066-.763 2.066-1.955 0-1.711-1.507-4.141-4.523-7.287s-4.523-5.648-4.523-7.511c0-1.861.837-3.303 2.513-4.328 1.675-1.023 3.694-1.536 6.059-1.536 2.364 0 4.141.419 5.333 1.256 1.191.838 1.787 1.974 1.787 3.406 0 1.434-1.136 3.416-3.407 5.947.26.261.595.605 1.005 1.033.409.428.949 1.238 1.62 2.429.669 1.195 1.004 2.312 1.004 3.353zm-3.015-12.731c0-1.303-.893-1.955-2.68-1.955-.857 0-1.563.177-2.122.53-.558.354-.837.754-.837 1.201 0 .819.818 1.974 2.457 3.462l.837.726c1.563-1.339 2.345-2.661 2.345-3.964zM67.864 36.781c-.075.931-.391 2.01-.95 3.239a38.752 38.752 0 00-4.021-.224h-1.005c-1.713 8.302-2.569 13.477-2.569 15.524 0 1.08.232 1.62.698 1.62.465 0 1.703-.465 3.713-1.396l1.005 1.842c-3.314 2.756-6.385 4.132-9.214 4.132-1.303 0-2.373-.41-3.211-1.229-.837-.818-1.256-1.907-1.256-3.267 0-1.358.158-2.894.475-4.607a168.66 168.66 0 011.312-6.282c.558-2.475.968-4.476 1.229-6.003-1.378.112-2.401.224-3.071.335-.075-.446-.112-1.051-.112-1.814 0-.763.056-1.387.167-1.871h3.518c.297-2.011.447-3.909.447-5.696l-.056-1.731v-.167c2.904-1.005 5.64-1.508 8.208-1.508.148.745.223 1.675.223 2.792 0 1.117-.316 3.221-.949 6.311h5.419zM83.499 37.73c.074-.074.279-.559.614-1.452 1.75 0 4.095.522 7.036 1.563a77.642 77.642 0 00-2.234 9.688c-.558 3.37-.837 5.771-.837 7.204 0 1.434.148 2.15.447 2.15.223 0 1.042-.353 2.457-1.061l.67-.335 1.005 1.955c-.335.298-.773.67-1.312 1.117-.54.447-1.555 1.052-3.043 1.815-1.489.763-2.83 1.145-4.021 1.145-2.309 0-3.649-1.042-4.021-3.127-2.383 2.085-4.533 3.127-6.45 3.127-1.918 0-3.537-.744-4.858-2.233-1.322-1.489-1.982-3.834-1.982-7.036 0-4.988 1.023-8.925 3.071-11.811 2.047-2.884 4.523-4.328 7.427-4.328 2.085-.001 4.095.539 6.031 1.619zm-6.365 19.041c.894 0 1.898-.353 3.015-1.061a67.796 67.796 0 012.625-15.58c-1.117-.483-2.066-.726-2.848-.726-1.34 0-2.485 1.312-3.434 3.937-.95 2.625-1.424 5.52-1.424 8.684-.001 3.165.688 4.746 2.066 4.746zM98.576 61.071c-3.127 0-4.691-1.711-4.691-5.137 0-.818.372-3.183 1.117-7.092.744-3.909 1.117-7.166 1.117-9.772 0-.558-.075-1.079-.224-1.563 2.01-.782 4.765-1.172 8.265-1.172.186.521.279 1.415.279 2.68 0 1.266-.41 3.891-1.229 7.874-.819 3.984-1.229 6.553-1.229 7.706 0 1.154.483 1.731 1.452 1.731 1.154 0 2.55-.577 4.188-1.731.186-2.196.93-7.985 2.233-17.367 1.303-.521 3.648-.782 7.036-.782h1.061c-.708 2.792-1.396 6.813-2.066 12.062-.67 5.249-1.21 8.898-1.619 10.945-.782 4.095-2.225 7.436-4.328 10.023-2.104 2.587-4.85 3.881-8.237 3.881-1.34 0-2.56-.354-3.658-1.061-1.098-.708-1.647-1.619-1.647-2.736 0-1.49.912-2.848 2.736-4.077 1.824-1.229 4.281-2.178 7.371-2.848.335-1.639.595-3.22.782-4.747-3.013 2.122-5.917 3.183-8.709 3.183zm2.708 5.808c-1.248.744-1.871 1.47-1.871 2.178 0 .707.4 1.061 1.201 1.061.8 0 1.703-.382 2.708-1.145 1.005-.764 1.843-2.001 2.513-3.713-1.786.334-3.304.874-4.551 1.619z"/></g><g fill="#FFF"><path d="M56.756 96.02c-3.517 0-6.329 2.923-8.439 8.768-2.109 5.847-3.164 12.11-3.164 18.789 0 10.548 3.251 15.822 9.757 15.822 2.11 0 4.351-.505 6.725-1.517 2.373-1.009 4.262-1.998 5.669-2.967l1.978-1.582 3.032 4.088c-.705.968-2.109 2.241-4.219 3.823-2.109 1.582-4.087 2.901-5.933 3.956-1.846 1.055-4.219 2.022-7.12 2.9s-5.758 1.318-8.57 1.318c-6.856 0-11.999-2.241-15.427-6.725-3.428-4.482-5.142-10.503-5.142-18.063 0-10.459 2.878-18.941 8.636-25.447 5.756-6.504 13.163-9.757 22.217-9.757 5.888 0 10.568 1.341 14.042 4.021 3.472 2.682 5.208 5.979 5.208 9.889 0 3.912-1.232 7.274-3.692 10.087-2.198 0-4.747-.482-7.647-1.45-2.901-.967-5.099-2.153-6.593-3.561l1.978-11.603c-.792-.526-1.892-.789-3.296-.789zM118.065 93.25c.175-.175.659-1.318 1.45-3.428 4.131 0 9.668 1.231 16.614 3.691-2.199 7.298-3.956 14.922-5.274 22.877-1.318 7.956-1.978 13.626-1.978 17.009 0 3.385.351 5.076 1.055 5.076.527 0 2.46-.835 5.802-2.505l1.582-.792 2.373 4.615c-.791.704-1.825 1.582-3.099 2.637-1.275 1.055-3.671 2.485-7.186 4.285-3.517 1.801-6.681 2.703-9.494 2.703-5.451 0-8.616-2.46-9.493-7.384-5.626 4.924-10.703 7.384-15.229 7.384-4.528 0-8.352-1.757-11.471-5.273-3.121-3.515-4.681-9.053-4.681-16.614 0-11.777 2.417-21.073 7.252-27.887 4.833-6.811 10.68-10.218 17.536-10.218 4.923.001 9.669 1.276 14.241 3.824zm-15.031 44.962c2.11 0 4.483-.835 7.12-2.506.614-12.394 2.68-24.656 6.197-36.786-2.637-1.142-4.878-1.714-6.724-1.714-3.165 0-5.868 3.099-8.109 9.295-2.242 6.197-3.362 13.033-3.362 20.503 0 7.473 1.625 11.208 4.878 11.208zM152.28 149.419c-3.032 0-5.537-1.012-7.516-3.032-1.978-2.021-2.967-4.856-2.967-8.505 0-3.646 2.176-15.295 6.527-34.94 4.351-19.646 6.526-33.82 6.526-42.522l-.791-5.801c6.856-2.374 13.271-3.56 19.25-3.56.878 1.232 1.319 3.385 1.319 6.46 0 7.034-2.222 20.635-6.659 40.808-4.439 20.174-6.658 31.908-6.658 35.205 0 3.296.396 4.944 1.187 4.944l9.229-3.297 2.373 4.615c-2.989 2.373-6.615 4.571-10.877 6.593-4.264 2.02-7.91 3.032-10.943 3.032zM180.693 148.233h-2.505c0-4.131 1.252-12.042 3.758-23.733 2.505-11.689 3.758-18.327 3.758-19.909 0-2.901-1.232-5.977-3.692-9.23l-1.187-1.582.132-1.714c4.747-1.318 12.349-1.978 22.811-1.978 1.229 1.671 1.846 4.396 1.846 8.175 7.911-5.889 14.194-8.834 18.854-8.834 5.889 0 9.362 3.032 10.417 9.098 2.373-1.933 5.472-3.933 9.295-5.999 3.824-2.064 7.252-3.099 10.285-3.099 3.032 0 5.558.988 7.581 2.967 2.021 1.978 3.032 4.726 3.032 8.24 0 3.517-.968 9.318-2.9 17.404-1.935 8.089-2.9 13.515-2.9 16.284 0 2.769.396 4.153 1.187 4.153.527 0 2.328-.835 5.406-2.505l1.45-.792 2.373 4.615c-2.287 2.287-5.386 4.462-9.296 6.526-3.912 2.064-7.362 3.099-10.35 3.099-6.593 0-9.89-3.735-9.89-11.207 0-2.724.944-8.195 2.835-16.416 1.89-8.218 2.835-13.58 2.835-16.086 0-2.505-.748-3.758-2.241-3.758-2.551 0-5.451.969-8.702 2.901-.178 1.759-1.385 7.735-3.626 17.932-2.242 10.198-3.362 18.109-3.362 23.733-2.551 1.144-8.527 1.714-17.932 1.714-.178-.966-.264-3.296-.264-6.988 0-3.691 1.031-9.976 3.098-18.854 2.064-8.878 3.099-14.504 3.099-16.877 0-2.374-.836-3.561-2.505-3.561-2.637 0-5.538 1.055-8.702 3.165-.177.791-1.055 4.66-2.637 11.603-3.165 13.89-4.747 23.778-4.747 29.667-3.079 1.231-8.616 1.846-16.614 1.846z"/></g></svg>