<?xml version="1.0" encoding="utf-8"?>
<!-- Generator: Adobe Illustrator 16.0.0, SVG Export Plug-In . SVG Version: 6.00 Build 0)  -->
<!DOCTYPE svg PUBLIC "-//W3C//DTD SVG 1.1//EN" "http://www.w3.org/Graphics/SVG/1.1/DTD/svg11.dtd">
<svg version="1.1" id="Ebene_1" xmlns="http://www.w3.org/2000/svg" xmlns:xlink="http://www.w3.org/1999/xlink" x="0px" y="0px"
	 width="129.36px" height="18.473px" viewBox="0 0 129.36 18.473" enable-background="new 0 0 129.36 18.473" xml:space="preserve">
<path fill="none" stroke="#B4B4B4" stroke-width="1.5" stroke-miterlimit="10" d="M81.341,9c0,4.143-3.357,7.5-7.5,7.5
	c-3.475,0-7.792-5.412-9.093-7.156C64.498,9.009,64.36,8.81,64.36,8.81s0.388-0.531,1.035-1.308C67.151,5.4,70.815,1.5,73.841,1.5
	C77.984,1.5,81.341,4.857,81.341,9z"/>
<path fill="none" stroke="#B4B4B4" stroke-width="1.5" stroke-miterlimit="10" d="M47.378,9c0,4.143,3.357,7.5,7.5,7.5
	s9.481-7.69,9.481-7.69S59.021,1.5,54.878,1.5S47.378,4.857,47.378,9z"/>
<line opacity="0.9" fill="none" stroke="#B4B4B4" stroke-width="0.25" stroke-miterlimit="10" x1="90.25" y1="9" x2="128.61" y2="9"/>
<line opacity="0.9" fill="none" stroke="#B4B4B4" stroke-width="0.25" stroke-miterlimit="10" x1="0.75" y1="9" x2="39.11" y2="9"/>
</svg>
