<svg xmlns="http://www.w3.org/2000/svg" viewBox="0 0 217.818 211.463"><path fill="#00CDC1" d="M200.115 147.973v9.088c0 5.02-6.816 9.086-15.146 9.086H33.531c-8.328 0-15.145-4.063-15.145-9.086v-9.088h181.729zm-157.5-21.202V60.139c0-8.33 6.816-15.143 15.147-15.143H160.74c8.33 0 15.146 6.813 15.146 15.143v66.632c0 8.335-6.814 15.146-15.146 15.146H57.76c-8.329-.002-15.145-6.811-15.145-15.146zm12.115 0c0 1.611 1.42 3.029 3.03 3.029h102.98c1.606 0 3.029-1.418 3.029-3.029V60.139c0-1.606-1.421-3.029-3.029-3.029H57.76c-1.61 0-3.03 1.417-3.03 3.029v66.632zm63.609 28.772a1.5 1.5 0 00-1.514-1.514h-15.144c-.852 0-1.516.666-1.516 1.514 0 .856.664 1.516 1.516 1.516h15.144a1.493 1.493 0 001.514-1.516z"/></svg>