<?xml version="1.0" encoding="utf-8"?>
<!-- Generator: Adobe Illustrator 27.4.1, SVG Export Plug-In . SVG Version: 6.00 Build 0)  -->
<svg version="1.1" id="Ebene_1" xmlns="http://www.w3.org/2000/svg" xmlns:xlink="http://www.w3.org/1999/xlink" x="0px" y="0px"
	 width="192.1px" height="174px" viewBox="0 0 192.1 174" style="enable-background:new 0 0 192.1 174;" xml:space="preserve">
<style type="text/css">
	.st0{fill:#FFFFFF;}
</style>
<g>
	<path class="st0" d="M129.3,164.6H62.7c-8.2,0-14.8-6.6-14.8-14.8V24.3c0-8.2,6.6-14.8,14.8-14.8h66.6c8.3,0,15,6.6,15,14.8v125.5
		C144.3,157.9,137.5,164.6,129.3,164.6z M62.7,15.5c-4.9,0-8.8,4-8.8,8.8v125.5c0,4.9,4,8.8,8.8,8.8h66.6c4.9,0,9-4,9-8.8V24.3
		c0-4.8-4.1-8.8-9-8.8H62.7z"/>
	<path class="st0" d="M121.7,21.5H70.4c-0.9,0-1.7-1.9-1.7-4.4s0.8-4.4,1.7-4.4h51.3c0.9,0,1.7,1.9,1.7,4.4S122.7,21.5,121.7,21.5z"
		/>
</g>
</svg>
