<?xml version="1.0" encoding="utf-8"?>
<!-- Generator: Adobe Illustrator 27.8.1, SVG Export Plug-In . SVG Version: 6.00 Build 0)  -->
<svg version="1.1" id="Ebene_1" xmlns="http://www.w3.org/2000/svg" xmlns:xlink="http://www.w3.org/1999/xlink" x="0px" y="0px"
	 width="20px" height="20px" viewBox="0 0 20 20" style="enable-background:new 0 0 20 20;" xml:space="preserve">
<style type="text/css">
	.st0{fill:#222222;}
</style>
<g id="layer1">
	<path class="st0" d="M10,2C9.9,2,9.8,2,9.8,2.1l-9.5,5C0,7.2-0.1,7.5,0.1,7.7c0,0.1,0.1,0.2,0.2,0.2l9.5,5c0.1,0.1,0.3,0.1,0.5,0
		l9.5-5c0.2-0.1,0.3-0.4,0.2-0.7c0-0.1-0.1-0.2-0.2-0.2l-9.5-5C10.2,2,10.1,2,10,2z M10,3.1l8.4,4.4L10,11.9L1.6,7.5L10,3.1z
		 M0.5,10C0.2,10,0,10.2,0,10.5c0,0.2,0.1,0.4,0.3,0.4l9.5,5c0.1,0.1,0.3,0.1,0.5,0l9.5-5c0.2-0.1,0.3-0.4,0.2-0.7s-0.4-0.3-0.7-0.2
		L10,14.9l-9.3-4.9C0.7,10,0.6,10,0.5,10z M0.5,13C0.2,13,0,13.2,0,13.5c0,0.2,0.1,0.4,0.3,0.4l9.5,5c0.1,0.1,0.3,0.1,0.5,0l9.5-5
		c0.2-0.1,0.3-0.4,0.2-0.7s-0.4-0.3-0.7-0.2L10,17.9l-9.3-4.9C0.7,13,0.6,13,0.5,13z"/>
</g>
</svg>
