<svg xmlns="http://www.w3.org/2000/svg" viewBox="0 0 103.732 14.583"><path fill="#FFDE04" d="M13.022 5.854l-2.886 2.814.684 3.975c.008.056.008.103.008.159 0 .207-.095.397-.326.397a.652.652 0 01-.318-.095l-3.569-1.876-3.569 1.876a.678.678 0 01-.319.096c-.23 0-.333-.19-.333-.397 0-.056.008-.103.016-.159l.684-3.975L.199 5.854C.104 5.751 0 5.616 0 5.473c0-.238.247-.334.445-.366l3.991-.581L6.225.91c.072-.151.207-.326.39-.326s.318.175.39.326l1.789 3.617 3.991.581c.191.032.445.127.445.366-.001.142-.105.277-.208.38zM35.647 5.854l-2.886 2.814.684 3.975c.008.056.008.103.008.159 0 .207-.095.397-.326.397a.652.652 0 01-.318-.095l-3.569-1.876-3.569 1.876a.67.67 0 01-.318.095c-.23 0-.333-.19-.333-.397 0-.056.008-.103.016-.159l.684-3.975-2.894-2.814c-.095-.103-.199-.238-.199-.381 0-.238.247-.334.445-.366l3.991-.581L28.85.91c.072-.151.207-.326.39-.326s.318.175.39.326l1.789 3.617 3.991.581c.191.032.445.127.445.366-.001.142-.105.277-.208.38zM58.272 5.854l-2.886 2.814.684 3.975c.008.056.008.103.008.159 0 .207-.095.397-.326.397a.652.652 0 01-.318-.095l-3.569-1.876-3.569 1.876a.67.67 0 01-.318.095c-.23 0-.333-.19-.333-.397 0-.056.008-.103.016-.159l.684-3.975-2.894-2.814c-.095-.103-.199-.238-.199-.381 0-.238.247-.334.445-.366l3.991-.581L51.477.909c.072-.151.207-.326.39-.326s.318.175.39.326l1.789 3.617 3.991.581c.191.032.445.127.445.366-.003.143-.107.278-.21.381zM80.897 5.854l-2.886 2.814.684 3.975c.008.056.008.103.008.159 0 .207-.095.397-.326.397a.652.652 0 01-.318-.095l-3.569-1.876-3.569 1.876a.67.67 0 01-.318.095c-.23 0-.333-.19-.333-.397 0-.056.008-.103.016-.159l.684-3.975-2.894-2.814c-.095-.103-.199-.238-.199-.381 0-.238.247-.334.445-.366l3.991-.581L74.1.91c.072-.151.207-.326.39-.326s.318.175.39.326l1.789 3.617 3.991.581c.191.032.445.127.445.366-.001.142-.105.277-.208.38zM103.522 5.854l-2.886 2.814.684 3.975c.008.056.008.103.008.159 0 .207-.096.397-.326.397a.652.652 0 01-.318-.095l-3.569-1.876-3.569 1.876a.67.67 0 01-.318.095c-.23 0-.333-.19-.333-.397 0-.056.008-.103.016-.159l.684-3.975-2.894-2.814c-.097-.103-.201-.238-.201-.381 0-.238.247-.334.445-.366l3.991-.581L96.724.909c.072-.151.207-.326.39-.326s.318.175.39.326l1.789 3.617 3.99.581c.191.032.445.127.445.366.001.143-.103.278-.206.381z"/></svg>