<?xml version="1.0" encoding="utf-8"?>
<!-- Generator: Adobe Illustrator 25.4.1, SVG Export Plug-In . SVG Version: 6.00 Build 0)  -->
<svg version="1.1" id="Ebene_1" xmlns="http://www.w3.org/2000/svg" xmlns:xlink="http://www.w3.org/1999/xlink" x="0px" y="0px"
	 viewBox="0 0 221 221" style="enable-background:new 0 0 221 221;" xml:space="preserve">
<style type="text/css">
	.st0{fill:#1BABD1;}
	.st1{fill:#FFFFFF;}
</style>
<rect class="st0" width="221" height="221"/>
<path class="st1" d="M62.6,109.3C62.5,109.3,62.5,109.3,62.6,109.3c-0.5,4.8-0.8,7.2-1.3,12.2c-2,0.2-3,0.3-4.9,0.7
	c-1-9-1.5-13.7-2.5-23.2h3.5c0.8,7.2,1.2,10.9,1.8,17.9c0.8-7.2,1-10.9,1.8-17.9h3.5c0.8,7.1,1,10.5,1.6,17.4
	c0.8-7.1,1.2-10.5,2-17.4h3.1c-1,8.4-1.6,12.8-2.6,21.5c-2,0.2-2.8,0.3-4.8,0.7C63.4,116.4,63.1,114.1,62.6,109.3z"/>
<path class="st1" d="M77.4,107.7c2-0.2,3-0.2,4.9-0.2v2.8c-2,0.2-3,0.2-4.9,0.2v6.1c2.5-0.2,3.8-0.2,6.2-0.3v2.8
	c-3.9,0.2-5.8,0.5-9.9,0.8c0-8.4,0-12.7,0.2-21.1h9.9v2.8c-2.5,0-3.8,0-6.2,0.2C77.4,104.3,77.4,105.6,77.4,107.7z"/>
<path class="st1" d="M97.3,103.6v0.7c0,2-0.8,3.3-2.3,3.9c2,0.7,2.6,2,2.6,4.1v1.5c0,3-2,4.6-5.4,4.9c-2.3,0.2-3.5,0.2-5.6,0.2
	c0-8.1,0-12,0.2-20.1h5.4C95.8,99,97.3,100.5,97.3,103.6z M90.2,101.9v5.3h1.3c1.3,0,2.1-0.7,2.3-2.1v-1.2c0-1.5-0.5-2.1-1.8-2.1
	C91.2,101.9,90.9,101.9,90.2,101.9z M90.2,109.8v6.1c0.8,0,1.2,0,2.1-0.2c1.2,0,2-0.7,2-2v-1.6c0-1.8-0.8-2.3-2.3-2.3
	C92,109.8,90.2,109.8,90.2,109.8z"/>
<path class="st1" d="M105.5,98.8c3.5,0,5.4,1.8,5.4,4.9v0.7h-3.5v-0.8c0-1.5-0.7-2-1.8-2s-1.8,0.5-1.8,2s0.8,2.5,3.1,4.1
	c3,2.3,3.9,3.8,3.9,6.1c0,3.1-1.8,4.9-5.4,4.9s-5.4-1.6-5.4-4.8v-1.2h3.5v1.5c0,1.5,0.8,2,2,2s2-0.5,2-2s-0.8-2.5-3.1-4.1
	c-3-2.3-3.9-3.8-3.9-6.1C100.3,100.6,102.1,98.8,105.5,98.8z"/>
<path class="st1" d="M112.8,99h11v2.8H120v16.8c-1.5,0-2.3-0.2-3.6-0.2v-16.6h-3.8C112.8,100.8,112.8,100.1,112.8,99z"/>
<path class="st1" d="M136.8,119.5c-1.5-0.2-2.3-0.2-3.6-0.2c-0.3-1.5-0.5-2.3-0.7-3.6c-1.8-0.2-2.6-0.2-4.4-0.2
	c-0.3,1.5-0.3,2.1-0.7,3.6c-1.3-0.2-2-0.2-3.3-0.2c1.5-7.9,2.1-11.8,3.6-19.7h5.3C134.5,107.2,135.3,111.2,136.8,119.5L136.8,119.5z
	 M128.4,112.6c1.3,0,2.1,0.2,3.5,0.2c-0.8-4.1-1-6.2-1.8-10.2C129.6,106.7,129.2,108.5,128.4,112.6z"/>
<path class="st1" d="M146.7,120.4c-0.2-0.7-0.3-1-0.3-2.6v-3.3c0-2-0.8-2.8-2.3-2.8c-0.5,0-0.8,0-1.2-0.2v8.6
	c-1.5-0.2-2.1-0.2-3.6-0.3c0-8.2,0-12.3-0.2-20.7h5.4c3.8,0,5.4,1.6,5.4,4.9v1.6c0,2.3-0.8,3.6-2.3,4.3v0.2c1.8,0.8,2.3,2.5,2.3,4.8
	v3.3c0,1.2,0,1.8,0.5,2.8C149,120.7,148.3,120.7,146.7,120.4L146.7,120.4z M142.7,102.1v6.4c0.7,0,0.8,0,1.3,0.2
	c1.3,0,2.1-0.5,2.1-2.1v-2.1c0-1.5-0.7-2.1-1.8-2.3C143.7,102.1,143.5,102.1,142.7,102.1z"/>
<path class="st1" d="M157.8,98.8c3.5,0,5.3,2.1,5.3,5.9v0.7c-1.3,0-2.1-0.2-3.5-0.2v-1c0-1.6-0.7-2.3-1.8-2.3s-1.8,0.7-1.8,2.1
	c0,1.6,0.8,2.8,3.1,5.1c3,2.8,3.9,4.9,3.9,7.6c0,3.8-1.8,5.6-5.4,5.1s-5.4-2.8-5.4-6.2v-1.3c1.3,0.2,2.1,0.2,3.5,0.2v1.5
	c0,1.5,0.8,2.3,1.8,2.3c1.2,0.2,1.8-0.3,1.8-2s-0.8-3-3.1-5.3c-3-2.8-3.9-4.6-3.9-7.1C152.7,100.8,154.5,98.8,157.8,98.8L157.8,98.8
	z"/>
</svg>
