<svg xmlns="http://www.w3.org/2000/svg" viewBox="0 0 242.796 40.298"><text transform="translate(22.307 26.534)" font-family="'Montserrat-Regular'" font-size="17.16">4:3</text><path fill="none" stroke="#000" stroke-width="2" stroke-miterlimit="10" d="M68.376 35.802a3.496 3.496 0 01-3.496 3.496H4.496A3.496 3.496 0 011 35.802V4.496A3.496 3.496 0 014.496 1H64.88a3.496 3.496 0 013.496 3.496v31.306z"/><text transform="translate(81.055 25.534)" font-family="'Montserrat-Regular'" font-size="17.16">+</text><text transform="translate(120.063 26.534)" font-family="'Montserrat-Regular'" font-size="17.16">16:9</text><path fill="none" stroke="#000" stroke-width="2" stroke-miterlimit="10" d="M168.132 35.802a3.496 3.496 0 01-3.496 3.496h-60.384a3.496 3.496 0 01-3.496-3.496V4.496A3.496 3.496 0 01104.252 1h60.384a3.496 3.496 0 013.496 3.496v31.306z"/><text transform="translate(185.206 25.534)" font-family="'Montserrat-Regular'" font-size="17.16">=</text><path d="M222.736 36.518c-.544 0-1.025.213-1.355.598-.291.337-.447.78-.447 1.252 0 .916.617 1.849 1.803 1.849.547 0 1.029-.211 1.358-.596.29-.337.446-.782.446-1.253 0-.92-.618-1.85-1.805-1.85zm.558 2.413c-.129.153-.315.229-.558.229-.727 0-.749-.71-.749-.792a.87.87 0 01.192-.564c.134-.15.317-.228.557-.228.73 0 .749.709.749.792a.873.873 0 01-.191.563zM231.268 34.373c-.546 0-1.028.211-1.358.597a1.904 1.904 0 00-.447 1.251c0 .92.619 1.85 1.806 1.85.544 0 1.025-.211 1.356-.596.289-.337.449-.782.449-1.254-.001-.917-.621-1.848-1.806-1.848zm.557 2.411c-.135.152-.318.228-.558.228-.729 0-.749-.709-.749-.791 0-.215.068-.421.191-.563.13-.153.319-.228.558-.228.726 0 .747.71.747.791a.86.86 0 01-.189.563zM214.718 34.373c-.545 0-1.028.211-1.357.597a1.9 1.9 0 00-.449 1.251c0 .92.62 1.85 1.807 1.85.545 0 1.029-.211 1.357-.596a1.93 1.93 0 00.447-1.254c-.001-.917-.619-1.848-1.805-1.848zm.556 2.411c-.129.152-.318.228-.557.228-.727 0-.749-.709-.749-.791 0-.215.068-.421.192-.563.129-.153.314-.228.557-.228.727 0 .749.71.749.791a.862.862 0 01-.192.563zM219.297 19.421c-1.609 1.188-3.617 2.667-3.617 4.723a.53.53 0 00.53.528h5.632a.528.528 0 000-1.058h-5.038c.332-1.285 1.806-2.37 3.122-3.343 1.309-.966 2.443-1.799 2.443-2.833a3.348 3.348 0 00-3.344-3.345 3.35 3.35 0 00-3.346 3.345.528.528 0 001.057 0 2.292 2.292 0 012.288-2.29 2.289 2.289 0 012.286 2.29c.002.5-1.067 1.289-2.013 1.983zM231.354 21.721a.525.525 0 00-.528-.527h-1.763v-6.57a.525.525 0 00-.355-.499.532.532 0 00-.589.175l-5.514 7.097a.527.527 0 00.415.853h4.988v1.895c0 .291.235.53.526.53a.53.53 0 00.528-.53V22.25h1.763a.53.53 0 00.529-.529zm-3.346-.528H224.1l3.908-5.031v5.031z"/><path d="M239.406 29.965a19.495 19.495 0 002.958-10.338C242.364 8.803 233.56 0 222.736 0c-10.822 0-19.627 8.803-19.627 19.626a19.68 19.68 0 006.417 14.514 1.054 1.054 0 001.491-.07 1.05 1.05 0 00-.07-1.491 17.56 17.56 0 01-5.724-12.954c0-9.657 7.857-17.514 17.513-17.514 9.657 0 17.514 7.857 17.514 17.514 0 3.123-.819 6.142-2.376 8.808l-1.943-1.942a1.059 1.059 0 00-1.151-.231c-.395.164-.65.55-.65.978v6.12c0 .586.472 1.058 1.056 1.058h6.122a1.053 1.053 0 00.748-1.801l-2.65-2.65zm-3.164 2.337v-2.513l2.513 2.513h-2.513z"/></svg>