<svg xmlns="http://www.w3.org/2000/svg" viewBox="0 0 64 64"><path fill="#565555" d="M22.951 10.549a22.782 22.782 0 019.048-1.846c3.155 0 6.17.616 9.047 1.846 2.879 1.231 5.357 2.886 7.438 4.966s3.734 4.559 4.965 7.436a22.753 22.753 0 011.848 9.048 22.74 22.74 0 01-1.848 9.049c-1.23 2.877-2.885 5.355-4.965 7.436s-4.559 3.735-7.438 4.967a22.78 22.78 0 01-9.047 1.846c-3.155 0-6.171-.615-9.048-1.846s-5.356-2.887-7.437-4.967-3.735-4.559-4.966-7.436A22.781 22.781 0 018.703 32c0-3.155.615-6.171 1.846-9.048 1.23-2.877 2.886-5.356 4.966-7.436s4.559-3.736 7.436-4.967zm-8.58 30.838l5.044-5.045A13.356 13.356 0 0118.687 32c0-1.473.243-2.92.728-4.342l-5.044-5.044c-1.56 2.964-2.34 6.093-2.34 9.386 0 3.294.78 6.422 2.34 9.387zM24.94 39.06c1.95 1.95 4.303 2.925 7.06 2.925s5.11-.975 7.059-2.925 2.926-4.304 2.926-7.06-.977-5.109-2.926-7.059-4.303-2.925-7.059-2.925-5.109.975-7.06 2.925c-1.95 1.95-2.925 4.303-2.925 7.059s.975 5.109 2.925 7.06zM32 12.031c-3.293 0-6.422.78-9.386 2.34l5.044 5.044A13.36 13.36 0 0132 18.687c1.473 0 2.92.243 4.342.728l5.043-5.044c-2.963-1.559-6.092-2.34-9.385-2.34zm0 39.938c3.293 0 6.422-.78 9.385-2.34l-5.043-5.044a13.329 13.329 0 01-8.684-.001l-5.044 5.044c2.963 1.56 6.092 2.341 9.386 2.341zm12.584-15.627l5.045 5.045c1.559-2.965 2.34-6.093 2.34-9.387 0-3.293-.781-6.422-2.34-9.386l-5.045 5.044c.484 1.422.729 2.869.729 4.342a13.41 13.41 0 01-.729 4.342z"/></svg>