<svg xmlns="http://www.w3.org/2000/svg" viewBox="0 0 194.697 194.697"><path fill="#3D4241" d="M163.848 128.811v6.586c0 3.64-4.94 6.586-10.978 6.586H43.089c-6.038 0-10.979-2.946-10.979-6.586v-6.586h131.738zM49.675 113.44V65.137c0-6.038 4.941-10.979 10.979-10.979h74.652c6.037 0 10.978 4.94 10.978 10.979v48.303c0 6.041-4.94 10.979-10.978 10.979H60.653c-6.038.001-10.978-4.938-10.978-10.979zm8.783 0c0 1.167 1.029 2.196 2.195 2.196h74.652c1.165 0 2.194-1.029 2.194-2.196V65.137c0-1.166-1.029-2.196-2.194-2.196H60.653c-1.166 0-2.195 1.03-2.195 2.196v48.303zm46.107 20.859c0-.614-.48-1.099-1.096-1.099H92.49c-.618 0-1.098.484-1.098 1.099 0 .62.48 1.099 1.098 1.099h10.979a1.083 1.083 0 001.096-1.099z"/></svg>