<svg xmlns="http://www.w3.org/2000/svg" viewBox="0 0 140 85"><path d="M52.637 38.312c-.217.026-.4.087-.553.182-.151.095-.24.16-.266.195a2.336 2.336 0 00-.299.383c-.07.109-.143.247-.221.416a6.91 6.91 0 00-.247.631c-.139.425-.299.895-.481 1.41-.182.516-.366 1.047-.553 1.593-.186.546-.374 1.094-.565 1.645-.19.55-.368 1.072-.533 1.566l-.546 1.248h-.13a114.53 114.53 0 01-.657-1.794 548.033 548.033 0 01-1.124-3.191c-.173-.499-.351-.99-.533-1.476-.139.399-.286.817-.442 1.255-.156.437-.312.881-.468 1.332-.156.45-.312.895-.468 1.332-.156.438-.308.86-.455 1.268l-.572 1.274h-.156c-.269-.702-.522-1.37-.76-2.002a2095.284 2095.284 0 00-2.25-5.941 4.77 4.77 0 00-.123-.299 8.971 8.971 0 00-.143-.299 2.743 2.743 0 00-.11-.195.963.963 0 00-.202-.227 1.368 1.368 0 00-.312-.196 1.254 1.254 0 00-.468-.097v-.143h3.666v.13a1.56 1.56 0 00-.221.026 1.675 1.675 0 00-.325.091.789.789 0 00-.292.195.489.489 0 00-.124.351c0 .078.045.258.136.54.092.281.21.623.358 1.026a225.208 225.208 0 001.521 4.03c.156.404.282.735.377.995l.195-.54.39-1.092c.156-.437.33-.931.52-1.481s.381-1.125.572-1.723a61.88 61.88 0 00-.351-.916 11.266 11.266 0 00-.338-.774 1.618 1.618 0 00-.137-.221 1.068 1.068 0 00-.233-.227 1.285 1.285 0 00-.371-.182 2.02 2.02 0 00-.533-.085v-.143h4.069v.13a9.04 9.04 0 01-.28.039c-.134.017-.268.05-.402.098a1.244 1.244 0 00-.364.201.4.4 0 00-.163.325c0 .052.048.227.143.526.095.3.217.663.364 1.093.147.429.312.894.494 1.397s.355.986.52 1.45a158.116 158.116 0 00.741 2.047c.026-.06.071-.188.136-.383.066-.196.148-.434.248-.715a101.564 101.564 0 00.676-2.002l.35-1.08c.118-.36.224-.695.319-1.007.121-.399.19-.689.208-.871.017-.182.026-.316.026-.403a.444.444 0 00-.117-.319 1.014 1.014 0 00-.286-.207 1.648 1.648 0 00-.364-.13c-.13-.03-.247-.05-.351-.059v-.13h2.86v.13zm5.382 9.23v-.13c.026 0 .089-.009.189-.026s.203-.048.312-.091a.895.895 0 00.285-.182.394.394 0 00.124-.299c0-.078-.024-.206-.072-.383a10.81 10.81 0 00-.201-.65 46.148 46.148 0 00-.663-1.827h-3.458c-.13.33-.256.643-.377.943-.121.299-.243.6-.364.903-.182.468-.273.797-.273.988 0 .113.035.206.104.28.07.073.158.134.267.181.108.048.225.083.35.104.126.022.245.042.358.059v.13h-2.769v-.143c.225-.026.418-.087.578-.182.16-.095.254-.16.28-.195.06-.06.16-.204.299-.429.139-.225.308-.559.507-1.001.182-.407.386-.871.611-1.391l.695-1.605c.239-.55.475-1.105.709-1.664.234-.56.455-1.082.663-1.567l-.13-.286a2.12 2.12 0 00.422-.247c.126-.095.237-.195.332-.299.095-.104.175-.204.24-.299.066-.095.115-.173.15-.234h.104c.269.72.524 1.402.767 2.047.243.646.474 1.268.696 1.866.22.598.435 1.176.643 1.736.208.559.416 1.111.624 1.657.095.269.184.492.267.67l.279.604a1.773 1.773 0 00.358.449c.1.09.223.17.37.24.147.07.32.108.52.117v.156h-3.796zm-1.703-7.878c-.052.113-.128.29-.227.533-.1.243-.224.537-.371.884s-.31.739-.488 1.176l-.578 1.424h3.237a129.345 129.345 0 00-.89-2.294c-.144-.36-.273-.69-.39-.989a53.504 53.504 0 00-.293-.734zm14.352 5.2l-.13-.039c-.104.26-.212.51-.325.747a3.28 3.28 0 01-.416.663 2.718 2.718 0 01-.591.54c-.23.156-.518.282-.865.377a3.47 3.47 0 01-.507.104c-.19.026-.377.045-.559.059a11.8 11.8 0 01-.832.032c-.173 0-.347-.01-.52-.032a6.218 6.218 0 01-.481-.078 2.08 2.08 0 01-.377-.111.535.535 0 01-.208-.13c-.078-.121-.123-.308-.136-.559a38.9 38.9 0 01-.033-.793c0-.295-.002-.561-.007-.8a38.28 38.28 0 01-.006-.695v-2.366c0-.26.002-.511.007-.754l.013-.741c.004-.251.01-.529.019-.832.009-.234.063-.422.162-.566.1-.143.22-.253.358-.331.139-.078.286-.134.442-.169.156-.035.29-.06.403-.078v-.13h-4.147v.13c.225.026.44.078.643.156.204.078.367.19.488.338.052.06.091.143.117.247.026.104.045.223.059.358.013.134.019.279.019.435v3.731c0 .26-.002.513-.007.76l-.012.683c-.005.208-.007.373-.007.494 0 .139-.006.28-.02.422a9.85 9.85 0 01-.045.41 2.18 2.18 0 01-.072.345.654.654 0 01-.11.227 1.197 1.197 0 01-.5.325 3.438 3.438 0 01-.644.169v.13h8.346l.481-2.678zm10.4 2.678v-.13a4.528 4.528 0 01-.656-.091 3.384 3.384 0 01-.462-.13.748.748 0 01-.156-.104c-.078-.06-.169-.132-.273-.215a5.678 5.678 0 01-.325-.279 3.316 3.316 0 01-.299-.312 2104.95 2104.95 0 01-2.249-2.522c-.347-.39-.646-.73-.897-1.02a25.42 25.42 0 01-.481-.566c.147-.156.31-.323.487-.5.178-.178.36-.362.546-.553.187-.19.375-.381.566-.572.19-.19.377-.368.559-.533.468-.433.927-.815 1.378-1.144.45-.33.897-.516 1.339-.559v-.13h-3.484v.13c.225.035.425.108.598.221s.26.295.26.546c0 .147-.058.312-.175.494a4.99 4.99 0 01-.397.533c-.208.225-.455.49-.741.793a33.49 33.49 0 01-.865.884c-.29.286-.567.544-.831.773-.265.23-.475.393-.631.488v-2.015a24.236 24.236 0 01.026-1.157c.009-.364.054-.646.136-.845.083-.2.185-.349.306-.449.121-.1.26-.164.416-.195a5.58 5.58 0 01.481-.071v-.13h-4.03v.13c.225.026.425.074.598.143.173.07.32.178.442.325.095.121.154.32.175.598.022.277.033.58.033.91v4.056c0 .243-.002.468-.007.676-.004.208-.006.373-.006.494 0 .139-.002.284-.007.435a6.344 6.344 0 01-.025.43 2.463 2.463 0 01-.059.357.59.59 0 01-.104.234 1.028 1.028 0 01-.455.286c-.2.07-.407.121-.624.156v.13h4.173v-.13a3.77 3.77 0 01-.305-.045 2.886 2.886 0 01-.358-.091 1.702 1.702 0 01-.338-.15.767.767 0 01-.247-.221c-.087-.113-.143-.277-.169-.494a8.315 8.315 0 01-.052-.702 34.61 34.61 0 01-.013-1.027v-1.287c.026-.07.05-.12.072-.15.021-.03.067-.045.136-.045.06 0 .132.03.215.091.082.06.236.217.461.468.537.59 1.055 1.172 1.553 1.748l1.58 1.827a.81.81 0 00.26.208h2.925zm8.645-2.483l-.143-.039a8.921 8.921 0 01-.63.955 4.282 4.282 0 01-.631.67 2.694 2.694 0 01-.676.422c-.234.1-.49.167-.767.202a7.304 7.304 0 01-.722.065c-.23.009-.418.013-.565.013-.347 0-.667-.026-.962-.078-.295-.052-.481-.139-.559-.26-.078-.121-.128-.305-.15-.553a14.036 14.036 0 01-.052-1.105 11.525 11.525 0 01-.006-.396v-1.56c0-.234.009-.412.026-.533h.598c.087 0 .173.002.26.006l.325.02c.26.017.487.065.683.143.195.078.361.178.5.299.156.147.305.368.448.663.144.295.25.58.319.858h.156v-4.095h-.156a6.18 6.18 0 01-.175.657 1.844 1.844 0 01-.26.513c-.109.147-.25.273-.423.377-.173.104-.39.186-.65.247a2.92 2.92 0 01-.422.059c-.17.013-.338.023-.507.032a8.871 8.871 0 01-.449.013h-.26v-.143c0-.078-.002-.188-.007-.332a18.957 18.957 0 01-.006-.552v-.832c0-.572.006-1.075.02-1.508.013-.433.028-.72.045-.858.087-.017.227-.032.422-.046a11.503 11.503 0 012.021.059c.4.052.673.113.82.182.615.303 1.274.893 1.976 1.768l.13-.065-.884-2.145h-7.176v.13c.234.035.425.071.572.11a.887.887 0 01.416.267.553.553 0 01.123.254c.03.117.052.249.066.396.013.147.021.303.026.468.004.165.006.325.006.481v3.289c0 .26-.002.513-.007.76-.004.248-.008.475-.013.683-.004.208-.006.373-.006.494 0 .139-.004.28-.013.422a3.943 3.943 0 01-.117.755.586.586 0 01-.104.227 1.236 1.236 0 01-.462.325 2.64 2.64 0 01-.604.169v.13h7.956l.65-2.483zm10.465 2.483h-2.665a4.603 4.603 0 01-.286-.312 2.539 2.539 0 01-.163-.227c-.065-.1-.166-.25-.305-.449-.165-.243-.31-.461-.436-.657a26.737 26.737 0 00-.383-.578c-.13-.19-.27-.383-.422-.579a18.08 18.08 0 00-.54-.656 5.3 5.3 0 00-.566-.559 1.398 1.398 0 00-.643-.325 1.99 1.99 0 00-.377-.052c-.078 0-.178-.004-.299-.013v1.469a35.685 35.685 0 00.039 1.768.95.95 0 00.143.494c.07.113.204.227.403.345.2.117.477.184.832.201v.13h-4.16v-.13c.217-.035.425-.087.624-.156.2-.07.355-.173.468-.312a.59.59 0 00.104-.234c.026-.104.045-.221.058-.351.014-.13.024-.269.033-.416a7.31 7.31 0 00.013-.429c0-.121.002-.286.006-.494.005-.208.01-.435.013-.683.005-.247.007-.5.007-.76v-3.289c0-.156-.002-.314-.007-.474a7.177 7.177 0 00-.025-.456 2.438 2.438 0 00-.066-.39.553.553 0 00-.123-.253.976.976 0 00-.436-.28 4.354 4.354 0 00-.591-.123v-.13h.533c.295 0 .628-.002 1.001-.007.373-.004.745-.006 1.118-.006h.91c.58 0 1.096.017 1.547.052.45.035.862.152 1.235.351.381.2.689.47.923.813.234.342.351.773.351 1.293 0 .32-.058.609-.175.864a2.302 2.302 0 01-.468.676 2.862 2.862 0 01-.683.501c-.26.139-.533.256-.819.351v.039c.147.078.29.19.429.338.139.147.273.312.403.494a213.644 213.644 0 001.443 2.08c.32.45.633.78.936.988a2.51 2.51 0 001.066.403v.13zM96.551 40.6c0-.433-.108-.819-.325-1.157-.217-.338-.533-.607-.949-.806a2.828 2.828 0 00-.656-.208 3.886 3.886 0 00-.722-.065c-.182 0-.33.004-.442.013-.113.009-.2.017-.26.026a2.634 2.634 0 01-.026.136 1.057 1.057 0 00-.02.15l-.013.254-.019.461c-.009.303-.015.646-.02 1.027-.004.381-.006.75-.006 1.105v1.43c.355 0 .687-.015.995-.046a4.07 4.07 0 00.89-.188c.277-.087.516-.204.715-.351.2-.147.362-.314.487-.5.126-.187.22-.388.28-.605.06-.217.091-.442.091-.676z" fill="#79797B" fill-rule="evenodd"/></svg>