<svg xmlns="http://www.w3.org/2000/svg" viewBox="0 0 89.578 74.5"><path fill="#B2B2B2" d="M74.136 38.02c0 16.254-13.168 29.422-29.422 29.422S15.292 54.274 15.292 38.02 28.459 8.598 44.714 8.598c16.254 0 29.422 13.167 29.422 29.422zm-45.315 5.483a17.003 17.003 0 01-.919-5.483c0-1.938.328-3.743.919-5.483l-6.371-6.371c-1.872 3.547-2.955 7.586-2.955 11.854s1.083 8.308 2.955 11.854l6.371-6.371zm28.503-5.483c0-6.961-5.648-12.609-12.609-12.609S32.106 31.059 32.106 38.02s5.648 12.609 12.609 12.609c6.96 0 12.609-5.649 12.609-12.609zM32.86 15.756l6.37 6.371a17.014 17.014 0 015.484-.919c1.938 0 3.743.328 5.484.919l6.369-6.371c-3.546-1.872-7.585-2.955-11.854-2.955s-8.306 1.083-11.853 2.955zm23.708 44.527l-6.369-6.371c-1.741.592-3.547.92-5.484.92-1.904 0-3.743-.328-5.484-.92l-6.37 6.371c3.546 1.871 7.585 2.955 11.854 2.955s8.307-1.084 11.853-2.955zm10.41-10.409c1.871-3.547 2.955-7.586 2.955-11.854s-1.084-8.308-2.955-11.854l-6.371 6.371c.592 1.74.92 3.579.92 5.483s-.328 3.743-.92 5.483l6.371 6.371z"/></svg>