<svg xmlns="http://www.w3.org/2000/svg" viewBox="0 0 683.334 202.426"><g fill="#666"><path d="M385.806 94.855v2.231h.063c.445-.913 1.146-1.578 2.104-1.992.956-.415 2.015-.622 3.155-.622 1.273 0 2.385.234 3.329.701.945.467 1.73 1.1 2.358 1.896a8.38 8.38 0 011.418 2.757c.312 1.041.479 2.146.479 3.314s-.154 2.271-.463 3.312-.775 1.946-1.401 2.728a6.622 6.622 0 01-2.354 1.83c-.944.446-2.045.672-3.299.672-.403 0-.854-.043-1.354-.131a7.598 7.598 0 01-1.479-.412 5.902 5.902 0 01-1.394-.779 4.18 4.18 0 01-1.1-1.229h-.063v8.479H383.1V94.855h2.706zm9.735 5.848a6.037 6.037 0 00-.925-1.96 4.525 4.525 0 00-1.593-1.371c-.647-.339-1.408-.51-2.279-.51-.912 0-1.688.181-2.325.542a4.662 4.662 0 00-1.562 1.418 5.926 5.926 0 00-.876 1.992 9.195 9.195 0 00-.271 2.263c0 .808.096 1.589.286 2.343.189.754.494 1.418.908 1.991s.949 1.036 1.604 1.387c.657.351 1.455.525 2.396.525.936 0 1.715-.181 2.342-.542a4.35 4.35 0 001.515-1.434 6.311 6.311 0 00.829-2.041c.17-.771.255-1.557.255-2.357 0-.763-.103-1.513-.304-2.246zM404.353 94.855v3.474h.063c.658-1.338 1.467-2.326 2.423-2.964.956-.637 2.167-.935 3.633-.892v2.868c-1.084 0-2.008.149-2.771.446-.771.298-1.382.733-1.854 1.307-.468.573-.809 1.271-1.021 2.087-.213.818-.318 1.758-.318 2.82v7.33H401.8V94.855h2.553zM423.602 110.279c-1.229.936-2.776 1.402-4.646 1.402-1.316 0-2.46-.221-3.426-.646a6.739 6.739 0 01-2.438-1.784c-.659-.763-1.148-1.679-1.479-2.734a13.164 13.164 0 01-.562-3.479c0-1.253.19-2.4.572-3.441a8.357 8.357 0 011.604-2.709 7.386 7.386 0 012.454-1.785c.945-.425 1.979-.637 3.106-.637 1.467 0 2.683.303 3.646.908a7.171 7.171 0 012.322 2.311 9.14 9.14 0 011.211 3.06 12.84 12.84 0 01.271 3.147h-12.333a6.537 6.537 0 00.255 2.062c.188.646.499 1.229.925 1.728.425.5.967.896 1.626 1.188.657.298 1.438.44 2.325.44 1.146 0 2.087-.268 2.82-.799.729-.522 1.216-1.338 1.446-2.422h2.681c-.351 1.864-1.148 3.256-2.38 4.19zm-.654-10.58a4.63 4.63 0 00-.986-1.482 4.647 4.647 0 00-3.33-1.355c-.701 0-1.334.123-1.896.367a4.318 4.318 0 00-1.45 1.003 4.697 4.697 0 00-.956 1.482 5.652 5.652 0 00-.414 1.801h9.466a5.647 5.647 0 00-.434-1.816zM437.814 101.197v2.549H428.6v-2.549h9.214zM443.995 94.855v2.422h.062c1.231-1.869 3.014-2.804 5.322-2.804 1.021 0 1.943.212 2.771.637.828.425 1.412 1.147 1.753 2.167a5.701 5.701 0 012.185-2.071c.901-.488 1.896-.733 2.979-.733.821 0 1.57.091 2.245.271a4.73 4.73 0 011.723.844c.479.383.85.876 1.115 1.482.266.605.396 1.333.396 2.183v12.078h-2.709v-10.803c0-.51-.043-.988-.129-1.434a2.912 2.912 0 00-.479-1.164c-.233-.329-.562-.589-.979-.781-.414-.191-.95-.287-1.604-.287-1.344 0-2.396.382-3.153 1.147-.767.765-1.146 1.785-1.146 3.059v10.262h-2.709v-10.803c0-.531-.048-1.02-.145-1.466s-.26-.833-.493-1.163a2.322 2.322 0 00-.938-.765c-.396-.18-.896-.271-1.515-.271-.786 0-1.462.159-2.021.478-.562.319-1.021.701-1.371 1.147-.354.446-.604.908-.771 1.386s-.232.876-.232 1.195v10.262h-2.708V94.855h2.551zM483.227 111.268c-.468.275-1.109.414-1.938.414-.7 0-1.259-.195-1.673-.59-.415-.393-.622-1.035-.622-1.928-.743.893-1.608 1.535-2.604 1.928-.981.395-2.056.59-3.203.59a8.51 8.51 0 01-2.112-.255 4.924 4.924 0 01-1.736-.797 3.815 3.815 0 01-1.163-1.418c-.286-.584-.431-1.291-.431-2.119 0-.935.159-1.698.479-2.295a4.137 4.137 0 011.262-1.45 5.785 5.785 0 011.782-.844 21.002 21.002 0 012.062-.479c.741-.148 1.444-.26 2.118-.334.67-.074 1.26-.18 1.771-.319.51-.138.913-.339 1.211-.605.297-.265.445-.653.445-1.163 0-.595-.11-1.073-.335-1.434a2.371 2.371 0 00-.859-.829 3.464 3.464 0 00-1.179-.382 8.898 8.898 0 00-1.291-.096c-1.146 0-2.104.218-2.868.653-.766.436-1.18 1.259-1.243 2.47h-2.709c.043-1.02.257-1.88.643-2.581a4.924 4.924 0 011.525-1.705 6.402 6.402 0 012.188-.94 11.463 11.463 0 012.629-.287c.741 0 1.479.053 2.216.159a5.814 5.814 0 011.991.652c.596.329 1.068.79 1.435 1.383.36.594.542 1.368.542 2.321v8.459c0 .636.037 1.103.111 1.396.07.3.32.444.748.444.229 0 .511-.042.829-.127v2.104h-.007v.002h-.005v.002h-.009zm-4.4-8.446c-.34.254-.786.438-1.338.555-.56.117-1.132.212-1.736.286-.604.073-1.218.157-1.832.254a6.755 6.755 0 00-1.657.459 2.97 2.97 0 00-1.188.904c-.312.392-.462.925-.462 1.602 0 .443.09.818.271 1.125.183.308.414.556.7.746.287.19.621.327 1.005.412.383.085.785.126 1.211.126.896 0 1.656-.121 2.295-.364.638-.243 1.157-.55 1.562-.92.396-.368.694-.771.893-1.204.191-.433.287-.841.287-1.222v-2.759h-.011zM497.758 111.331v-2.229h-.062c-.446.912-1.146 1.571-2.104 1.979-.957.399-2.008.604-3.147.604-1.274 0-2.393-.231-3.331-.701a6.87 6.87 0 01-2.357-1.879 8.21 8.21 0 01-1.418-2.742c-.318-1.038-.479-2.146-.479-3.312s.149-2.273.465-3.314c.309-1.041.771-1.949 1.396-2.725a6.773 6.773 0 012.357-1.849c.938-.457 2.044-.685 3.298-.685.426 0 .883.043 1.37.127.489.085.979.229 1.468.43.487.202.949.468 1.386.797.438.33.809.738 1.104 1.227h.062V88.58h2.709v22.754l-2.717-.003zm-9.736-5.849c.194.729.51 1.387.924 1.961a4.473 4.473 0 001.594 1.369c.647.34 1.407.511 2.278.511.913 0 1.688-.181 2.319-.542a4.576 4.576 0 001.562-1.418 5.951 5.951 0 00.877-1.991 9.537 9.537 0 00.271-2.263c0-.812-.098-1.588-.282-2.343a5.749 5.749 0 00-.908-1.992 4.618 4.618 0 00-1.608-1.386c-.658-.351-1.455-.526-2.391-.526-.914 0-1.688.181-2.325.542a4.312 4.312 0 00-1.53 1.434c-.382.595-.651 1.274-.828 2.04a10.783 10.783 0 00-.255 2.358c0 .765.1 1.514.302 2.246zM516.305 110.279c-1.229.936-2.783 1.402-4.646 1.402-1.316 0-2.46-.221-3.433-.646a6.851 6.851 0 01-2.438-1.784c-.657-.764-1.151-1.679-1.48-2.734a13.416 13.416 0 01-.558-3.479c0-1.253.19-2.4.572-3.441a8.321 8.321 0 011.604-2.709 7.376 7.376 0 012.454-1.785c.944-.425 1.979-.637 3.106-.637 1.466 0 2.683.303 3.646.908a7.174 7.174 0 012.326 2.311 9.14 9.14 0 011.211 3.06 12.84 12.84 0 01.271 3.147h-12.33a6.537 6.537 0 00.255 2.062 4.65 4.65 0 00.924 1.728c.426.5.968.896 1.626 1.188.658.298 1.436.44 2.326.44 1.146 0 2.087-.268 2.815-.799.729-.522 1.221-1.338 1.448-2.422h2.683c-.353 1.864-1.151 3.256-2.382 4.19zm-.654-10.58a4.633 4.633 0 00-.987-1.482 4.647 4.647 0 00-3.329-1.355c-.701 0-1.335.123-1.896.367a4.293 4.293 0 00-1.444 1.003 4.697 4.697 0 00-.956 1.482 5.652 5.652 0 00-.414 1.801h9.466a5.815 5.815 0 00-.44-1.816zM544.062 111.331l-3.354-13.098h-.062l-3.313 13.098h-2.932l-5.29-16.476h2.994l3.729 13.48h.064l3.312-13.48h2.963l3.441 13.48h.062l3.695-13.48h2.806l-5.259 16.476h-2.856zM566.434 110.279c-1.229.936-2.776 1.402-4.646 1.402-1.316 0-2.46-.221-3.426-.646a6.73 6.73 0 01-2.438-1.784c-.658-.763-1.148-1.679-1.479-2.734a13.164 13.164 0 01-.562-3.479c0-1.253.19-2.4.572-3.441a8.357 8.357 0 011.604-2.709 7.362 7.362 0 012.453-1.785c.944-.425 1.979-.637 3.106-.637 1.467 0 2.683.303 3.646.908a7.145 7.145 0 012.326 2.311 9.14 9.14 0 011.211 3.06 12.84 12.84 0 01.271 3.147H556.74a6.537 6.537 0 00.255 2.062c.188.646.499 1.229.925 1.728.425.5.967.896 1.626 1.188.657.298 1.438.44 2.325.44 1.146 0 2.087-.268 2.82-.799.729-.522 1.216-1.338 1.444-2.422h2.683c-.355 1.864-1.152 3.256-2.384 4.19zm-.654-10.58a4.63 4.63 0 00-.986-1.482 4.647 4.647 0 00-3.33-1.355c-.701 0-1.334.123-1.896.367a4.379 4.379 0 00-1.45 1.003 4.697 4.697 0 00-.956 1.482 5.652 5.652 0 00-.414 1.801h9.466a5.647 5.647 0 00-.434-1.816zM574.688 88.577v8.509h.062c.445-.913 1.146-1.578 2.104-1.992.951-.415 2.009-.622 3.149-.622 1.273 0 2.386.234 3.33.701a6.797 6.797 0 012.357 1.896 8.38 8.38 0 011.418 2.757c.312 1.041.479 2.146.479 3.314s-.147 2.271-.462 3.312c-.31 1.041-.771 1.946-1.396 2.728a6.616 6.616 0 01-2.357 1.83c-.944.446-2.046.672-3.3.672a7.88 7.88 0 01-1.354-.131 7.677 7.677 0 01-1.479-.412 5.77 5.77 0 01-1.388-.779 4.165 4.165 0 01-1.104-1.229h-.062v2.199h-2.709V88.577h2.712zm9.735 12.126a6.06 6.06 0 00-.926-1.96 4.516 4.516 0 00-1.593-1.371c-.647-.339-1.408-.51-2.279-.51-.912 0-1.688.181-2.325.542a4.662 4.662 0 00-1.562 1.418 5.926 5.926 0 00-.876 1.992 9.195 9.195 0 00-.271 2.263c0 .808.097 1.589.287 2.343s.493 1.418.907 1.991.95 1.036 1.604 1.387c.658.351 1.455.525 2.396.525.936 0 1.716-.181 2.343-.542a4.347 4.347 0 001.514-1.434c.39-.603.658-1.274.829-2.041.17-.771.255-1.557.255-2.357 0-.763-.103-1.513-.303-2.246zM592.852 107.65c.262.414.596.744 1.011.979.407.245.881.427 1.396.526a8.229 8.229 0 001.607.152c.425 0 .871-.025 1.339-.096a4.82 4.82 0 001.291-.352c.394-.17.718-.42.973-.75.255-.328.383-.748.383-1.258 0-.701-.268-1.231-.797-1.596-.529-.359-1.188-.65-1.991-.878a28.462 28.462 0 00-2.598-.604c-.937-.182-1.802-.436-2.599-.766s-1.461-.791-1.992-1.389c-.53-.595-.796-1.423-.796-2.486 0-.829.187-1.54.559-2.135.371-.594.854-1.078 1.438-1.45s1.237-.648 1.977-.829a9.134 9.134 0 012.188-.271c.937 0 1.796.08 2.577.239a6.09 6.09 0 012.093.828 4.236 4.236 0 011.443 1.594c.36.669.573 1.503.644 2.501h-2.709c-.043-.531-.188-.972-.414-1.322a2.674 2.674 0 00-.896-.845 4.032 4.032 0 00-1.188-.462 6.146 6.146 0 00-1.322-.144c-.402 0-.812.032-1.229.096a4.154 4.154 0 00-1.133.334 2.282 2.282 0 00-.828.637c-.213.266-.312.611-.312 1.036 0 .467.163.854.491 1.163.327.308.75.562 1.261.765.511.202 1.084.372 1.723.51.641.139 1.272.282 1.911.431a19.3 19.3 0 011.991.541 6.415 6.415 0 011.722.847c.499.354.902.792 1.211 1.321.312.528.464 1.188.464 1.978 0 .998-.207 1.827-.621 2.483a4.889 4.889 0 01-1.625 1.595 6.848 6.848 0 01-2.265.848c-.841.156-1.674.236-2.503.236a11.64 11.64 0 01-2.611-.287 6.314 6.314 0 01-2.193-.938 4.751 4.751 0 01-1.529-1.725c-.383-.711-.596-1.577-.639-2.6h2.707c-.005.623.135 1.129.39 1.543zM606.873 91.891v-3.314h2.709v3.314h-2.709zm2.709 2.964v16.476h-2.709V94.855h2.709zM620.83 94.855v2.39h-3.281v10.229c0 .312.025.566.08.766.053.189.152.34.303.445.147.104.354.176.621.207.271.024.609.049 1.036.049h1.241v2.39h-2.07c-.701 0-1.303-.048-1.8-.144-.5-.104-.903-.271-1.212-.525-.309-.255-.536-.616-.686-1.084-.148-.467-.229-1.083-.229-1.85V97.245h-2.805v-2.39h2.805v-4.939h2.709v4.939h3.288zM635.49 110.279c-1.231.936-2.783 1.402-4.651 1.402-1.312 0-2.46-.221-3.427-.646a6.799 6.799 0 01-2.438-1.784c-.651-.764-1.146-1.679-1.479-2.734a13.164 13.164 0 01-.562-3.479c0-1.253.19-2.4.573-3.441s.919-1.944 1.608-2.709a7.296 7.296 0 012.454-1.785c.938-.425 1.979-.637 3.104-.637 1.466 0 2.688.303 3.647.908s1.74 1.376 2.324 2.311a9.226 9.226 0 011.212 3.06 13.04 13.04 0 01.271 3.147H625.8a6.537 6.537 0 00.255 2.062c.191.646.499 1.229.931 1.728.425.5.967.896 1.625 1.188.652.298 1.436.44 2.32.44 1.146 0 2.087-.268 2.819-.799.732-.522 1.217-1.338 1.45-2.422h2.678c-.358 1.864-1.155 3.256-2.388 4.19zm-.653-10.58a4.633 4.633 0 00-.987-1.482 4.641 4.641 0 00-3.33-1.355c-.694 0-1.334.123-1.896.367a4.374 4.374 0 00-1.449 1.003 4.785 4.785 0 00-.956 1.482 5.762 5.762 0 00-.414 1.801h9.465a5.645 5.645 0 00-.433-1.816zM643.012 107.65c.255.414.589.744 1.004.979a4.38 4.38 0 001.402.526 8.185 8.185 0 001.607.152c.425 0 .869-.025 1.339-.096a4.83 4.83 0 001.291-.352c.394-.17.717-.42.973-.75.255-.328.383-.748.383-1.258 0-.701-.268-1.231-.797-1.596-.531-.359-1.194-.65-1.992-.878a28.832 28.832 0 00-2.597-.604c-.937-.182-1.802-.436-2.599-.766s-1.461-.791-1.992-1.389c-.53-.595-.796-1.423-.796-2.486 0-.829.187-1.54.559-2.135a4.558 4.558 0 011.435-1.45 6.628 6.628 0 011.979-.829 9.13 9.13 0 012.186-.271c.938 0 1.798.08 2.581.239.785.159 1.48.436 2.092.828a4.23 4.23 0 011.444 1.594c.36.669.574 1.503.644 2.501h-2.709c-.045-.531-.187-.972-.413-1.322a2.674 2.674 0 00-.896-.845 4.043 4.043 0 00-1.188-.462 6.176 6.176 0 00-1.323-.144c-.402 0-.812.032-1.229.096a4.144 4.144 0 00-1.133.334 2.27 2.27 0 00-.827.637c-.214.266-.312.611-.312 1.036 0 .467.164.854.489 1.163.328.308.75.562 1.264.765.511.202 1.084.372 1.722.51.64.139 1.273.282 1.912.431a19.3 19.3 0 011.991.541 6.408 6.408 0 011.721.847c.499.354.902.792 1.211 1.321.312.528.464 1.188.464 1.978 0 .998-.206 1.827-.622 2.483a4.889 4.889 0 01-1.625 1.595 6.826 6.826 0 01-2.264.848c-.84.156-1.673.236-2.502.236-.913 0-1.783-.097-2.612-.287a6.332 6.332 0 01-2.195-.938 4.743 4.743 0 01-1.526-1.725c-.384-.711-.599-1.577-.641-2.6h2.708c-.006.623.134 1.129.389 1.543z"/></g><g opacity=".7"><path d="M391.132 37.267c1.542 0 2.979.246 4.312.737a9.325 9.325 0 013.441 2.212c.979.983 1.729 2.211 2.277 3.686s.82 3.207.82 5.194c0 1.743-.229 3.352-.671 4.826-.446 1.474-1.122 2.748-2.027 3.82-.902 1.073-2.031 1.916-3.385 2.53-1.354.615-2.941.922-4.773.922h-10.32V37.267h10.326zm-.368 19.504a6.71 6.71 0 002.212-.368 4.763 4.763 0 001.91-1.224c.562-.569 1.005-1.312 1.34-2.229.347-.916.503-2.033.503-3.351 0-1.207-.106-2.295-.352-3.268-.234-.972-.62-1.804-1.156-2.497-.536-.692-1.246-1.223-2.128-1.592-.883-.369-1.974-.553-3.27-.553h-3.754V56.77l4.695.001zM423.536 37.267v4.423h-12.634v5.127h11.595v4.089h-11.595v5.864H423.8v4.424h-18.16V37.267h17.896zM434.765 37.267l5.604 16.455h.062l5.295-16.455h7.406v23.928h-4.928V44.237h-.065l-5.854 16.957h-4.062l-5.86-16.79h-.063v16.79h-4.927V37.267h7.392zM457.521 44.354a11.784 11.784 0 012.312-4.005c1.008-1.139 2.24-2.033 3.703-2.681 1.466-.648 3.111-.972 4.938-.972 1.854 0 3.519.324 4.971.972 1.441.648 2.682 1.542 3.688 2.681 1.005 1.14 1.774 2.475 2.312 4.005.525 1.53.804 3.189.804 4.977 0 1.743-.271 3.368-.804 4.876a11.74 11.74 0 01-2.312 3.938c-1.007 1.117-2.233 1.994-3.688 2.631-1.453.637-3.104.955-4.971.955-1.821 0-3.479-.318-4.938-.955-1.463-.637-2.695-1.514-3.703-2.631-1.005-1.117-1.773-2.43-2.312-3.938-.539-1.508-.812-3.133-.812-4.876.007-1.787.275-3.446.812-4.977zm4.806 7.909c.233.95.604 1.805 1.123 2.564a5.772 5.772 0 002.013 1.826c.824.458 1.831.688 3.016.688 1.188 0 2.189-.229 3.021-.688a5.79 5.79 0 002.013-1.826 7.592 7.592 0 001.122-2.564c.232-.949.354-1.927.354-2.932 0-1.05-.118-2.066-.354-3.05a7.862 7.862 0 00-1.122-2.63 5.732 5.732 0 00-2.013-1.843c-.825-.458-1.833-.687-3.021-.687-1.185 0-2.188.229-3.016.687s-1.497 1.072-2.013 1.843a7.772 7.772 0 00-1.123 2.63c-.232.983-.354 2-.354 3.05a12.57 12.57 0 00.354 2.932zM487.849 55.296c.29.559.687 1.012 1.156 1.357a4.974 4.974 0 001.69.771 7.933 7.933 0 002.011.252c.471 0 .974-.039 1.51-.117s1.039-.229 1.508-.453c.479-.223.858-.53 1.182-.921.312-.391.473-.889.473-1.491 0-.648-.207-1.173-.62-1.576-.414-.402-.954-.737-1.625-1.005s-1.432-.502-2.277-.704a59.416 59.416 0 01-2.577-.67 21.723 21.723 0 01-2.606-.821 8.941 8.941 0 01-2.279-1.257 5.916 5.916 0 01-1.625-1.927c-.412-.771-.618-1.704-.618-2.798 0-1.229.27-2.295.786-3.201A7.1 7.1 0 01486 38.473a9.018 9.018 0 012.885-1.341 12.246 12.246 0 013.218-.436c1.251 0 2.451.14 3.604.419 1.146.28 2.174.732 3.062 1.357a6.88 6.88 0 012.13 2.396c.521.972.785 2.15.785 3.536h-5.094c-.047-.715-.195-1.307-.452-1.776a3.004 3.004 0 00-1.021-1.106 4.244 4.244 0 00-1.458-.569 8.982 8.982 0 00-1.792-.168c-.429 0-.854.045-1.271.134a3.328 3.328 0 00-1.153.469 2.834 2.834 0 00-.854.838c-.229.335-.335.76-.335 1.273 0 .469.09.849.271 1.139.187.291.528.559 1.062.804.521.246 1.253.492 2.18.737.931.246 2.146.559 3.641.938.442.089 1.062.251 1.855.486s1.581.609 2.36 1.123a7.201 7.201 0 012.021 2.061c.566.86.854 1.96.854 3.301a7.266 7.266 0 01-.646 3.05c-.426.938-1.058 1.748-1.896 2.43s-1.878 1.212-3.114 1.592c-1.239.379-2.679.569-4.31.569-1.315 0-2.604-.162-3.844-.486-1.232-.323-2.335-.832-3.277-1.524a7.683 7.683 0 01-2.271-2.646c-.561-1.072-.817-2.346-.805-3.82h5.095c-.019.803.128 1.485.419 2.043z"/></g><g fill="#666"><path d="M144.523 43.989c-3.824 4.03-8.215 7.184-13.175 9.455a47.952 47.952 0 01-15.5 4.186v-5.115c6.2-.93 11.831-3.1 16.895-6.51 5.062-3.41 9.196-7.905 12.4-13.485h5.27v106.95h-5.89V43.989zM191.333 108.779c0-7.75 2.093-14.078 6.277-18.987 4.185-4.906 9.998-7.774 17.438-8.603v-.31c-6.51-1.24-11.419-3.953-14.725-8.138-3.309-4.185-4.96-9.273-4.96-15.268 0-5.062.93-9.3 2.79-12.71 1.86-3.41 4.34-6.146 7.44-8.215 3.1-2.066 6.611-3.565 10.54-4.495 3.926-.93 8.006-1.395 12.245-1.395 4.132 0 8.188.465 12.167 1.395 3.977.93 7.518 2.429 10.618 4.495 3.1 2.068 5.58 4.805 7.44 8.215s2.79 7.648 2.79 12.71c0 5.994-1.654 11.083-4.96 15.268-3.308 4.185-8.215 6.897-14.725 8.138v.31c7.44.828 13.252 3.696 17.438 8.603 4.185 4.909 6.277 11.237 6.277 18.987 0 5.58-.983 10.412-2.945 14.493-1.964 4.083-4.599 7.467-7.905 10.152-3.309 2.688-7.234 4.677-11.78 5.968-4.548 1.29-9.353 1.938-14.415 1.938-5.168 0-9.998-.647-14.492-1.938-4.495-1.291-8.397-3.279-11.703-5.968-3.308-2.686-5.943-6.069-7.905-10.152-1.964-4.081-2.945-8.913-2.945-14.493zm5.89 0c0 4.755.853 8.862 2.558 12.323 1.705 3.463 3.977 6.304 6.82 8.524 2.841 2.224 6.146 3.875 9.92 4.96 3.771 1.085 7.724 1.628 11.857 1.628 4.132 0 8.06-.543 11.78-1.628 3.72-1.085 7.026-2.736 9.92-4.96 2.892-2.221 5.192-5.062 6.897-8.524 1.705-3.461 2.558-7.568 2.558-12.323 0-4.441-.829-8.239-2.48-11.392-1.654-3.151-3.928-5.735-6.82-7.75-2.894-2.016-6.227-3.488-9.998-4.418-3.773-.93-7.726-1.395-11.857-1.395-4.238 0-8.215.465-11.935 1.395-3.72.93-7.028 2.402-9.92 4.418-2.894 2.015-5.168 4.599-6.82 7.75-1.654 3.153-2.48 6.951-2.48 11.392zm31.155-30.069c3.41 0 6.743-.388 9.998-1.163 3.255-.774 6.147-2.015 8.68-3.72 2.531-1.705 4.572-3.899 6.123-6.588 1.55-2.686 2.325-5.94 2.325-9.765 0-4.03-.75-7.439-2.248-10.229-1.499-2.79-3.514-5.038-6.045-6.743-2.533-1.705-5.425-2.918-8.68-3.643-3.255-.722-6.641-1.085-10.153-1.085-3.514 0-6.897.363-10.152 1.085-3.255.725-6.149 1.938-8.68 3.643-2.533 1.705-4.548 3.953-6.045 6.743-1.499 2.79-2.248 6.199-2.248 10.229 0 3.824.775 7.079 2.325 9.765 1.55 2.688 3.589 4.883 6.123 6.588 2.531 1.705 5.425 2.945 8.68 3.72a43.01 43.01 0 009.997 1.163zM314.558 141.33c-7.75 0-14.105-1.681-19.065-5.038-4.96-3.356-8.913-7.696-11.857-13.02-2.945-5.321-4.987-11.262-6.123-17.825-1.138-6.561-1.705-13.044-1.705-19.452 0-6.406.567-12.89 1.705-19.453 1.136-6.561 3.178-12.502 6.123-17.825 2.945-5.32 6.897-9.66 11.857-13.02 4.96-3.356 11.315-5.037 19.065-5.037s14.105 1.681 19.065 5.037c4.96 3.359 8.913 7.699 11.858 13.02 2.944 5.323 4.983 11.265 6.122 17.825 1.137 6.563 1.705 13.047 1.705 19.453 0 6.408-.568 12.892-1.705 19.452-1.139 6.563-3.178 12.504-6.122 17.825-2.945 5.323-6.897 9.663-11.858 13.02-4.96 3.357-11.315 5.038-19.065 5.038zm0-5.115c6.612 0 12.063-1.601 16.353-4.805 4.287-3.202 7.646-7.285 10.075-12.245 2.427-4.96 4.107-10.386 5.037-16.275s1.396-11.521 1.396-16.895c0-5.372-.466-11.006-1.396-16.896s-2.61-11.314-5.037-16.274c-2.429-4.961-5.789-9.041-10.075-12.245-4.289-3.202-9.741-4.806-16.353-4.806-6.718 0-12.194 1.604-16.43 4.806-4.238 3.204-7.571 7.284-9.998 12.245-2.429 4.96-4.107 10.385-5.038 16.274s-1.395 11.523-1.395 16.896c0 5.374.465 11.005 1.395 16.895s2.608 11.315 5.038 16.275c2.427 4.96 5.759 9.043 9.998 12.245 4.236 3.204 9.711 4.805 16.43 4.805z"/></g></svg>