<svg version="1.1" id="Ebene_1" xmlns="http://www.w3.org/2000/svg" xmlns:xlink="http://www.w3.org/1999/xlink" x="0px" y="0px"
	viewBox="0 0 34.332 34.446" enable-background="new 0 0 34.332 34.446" xml:space="preserve">
<g opacity="0.4">
	<path fill="#FFFFFF" d="M22.982,26.544H10.719v-2.203l4.665-4.69c1.378-1.411,2.292-2.411,2.741-3.001s0.777-1.145,0.984-1.665
		c0.206-0.52,0.309-1.077,0.309-1.67c0-0.817-0.246-1.46-0.736-1.931s-1.169-0.705-2.036-0.705c-0.693,0-1.363,0.128-2.011,0.384
		c-0.648,0.255-1.396,0.717-2.246,1.386l-1.571-1.918c1.006-0.85,1.984-1.452,2.933-1.807C14.7,8.37,15.71,8.192,16.783,8.192
		c1.683,0,3.032,0.439,4.046,1.318c1.015,0.878,1.522,2.061,1.522,3.545c0,0.816-0.147,1.592-0.439,2.326
		c-0.293,0.734-0.743,1.491-1.349,2.271c-0.606,0.779-1.615,1.833-3.025,3.162l-3.143,3.044v0.124h8.588V26.544z"/>
</g>
<circle opacity="0.4" fill="none" stroke="#FFFFFF" stroke-width="2" stroke-miterlimit="10" cx="17.166" cy="17.166" r="16.166"/>
</svg>
