<?xml version="1.0" encoding="utf-8"?>
<!-- Generator: Adobe Illustrator 16.0.0, SVG Export Plug-In . SVG Version: 6.00 Build 0)  -->
<!DOCTYPE svg PUBLIC "-//W3C//DTD SVG 1.1//EN" "http://www.w3.org/Graphics/SVG/1.1/DTD/svg11.dtd">
<svg xmlns="http://www.w3.org/2000/svg" version="1.1" width="280" height="38"><svg xmlns:xlink="http://www.w3.org/1999/xlink" version="1.1" id="Ebene_1" x="0" y="0" width="280" height="38" viewBox="0 0 222.387 29.875" enable-background="new 0 0 222.387 29.875" xml:space="preserve">
<g>
	<path d="M11.753,11.59c-0.398,0.487-0.979,0.875-1.738,1.163c-0.76,0.287-1.648,0.432-2.667,0.432H4.781v6.152H1.66V3.888h5.688   c1.785,0,3.162,0.446,4.128,1.339s1.45,1.944,1.45,3.154S12.535,10.661,11.753,11.59z M4.781,10.793h2.567   c0.782,0,1.379-0.203,1.793-0.608c0.413-0.406,0.62-0.956,0.62-1.649c0-0.693-0.207-1.243-0.62-1.649   C8.728,6.481,8.13,6.278,7.349,6.278H4.781V10.793z"/>
	<path d="M18.394,13.185v6.152h-3.121V3.888h5.688c1.785,0,3.162,0.446,4.128,1.339s1.45,1.996,1.45,3.309   c0,0.974-0.295,1.882-0.886,2.723c-0.59,0.841-1.52,1.417-2.788,1.727l3.939,6.352h-3.696l-3.695-6.151L18.394,13.185   L18.394,13.185z M18.394,6.278v4.515h2.567c0.782,0,1.379-0.203,1.793-0.608c0.413-0.406,0.62-0.956,0.62-1.649   c0-0.693-0.207-1.243-0.62-1.649c-0.414-0.406-1.011-0.608-1.793-0.608L18.394,6.278L18.394,6.278z"/>
	<path d="M29.638,19.337V3.888h3.121v15.449H29.638z"/>
	<path d="M72.775,19.337l-0.996-2.898h-6.021l-0.996,2.898h-3.298l5.467-15.495h3.696l5.444,15.495H72.775z M66.578,14.048h4.404   L68.77,7.606L66.578,14.048z"/>
	<path d="M79.659,17.235c-1.521-1.489-2.28-3.38-2.28-5.667c0-2.287,0.764-4.176,2.291-5.667c1.526-1.49,3.396-2.235,5.61-2.235   c1.683,0,3.177,0.428,4.482,1.284c1.306,0.856,2.239,2.059,2.8,3.608h-3.741c-0.693-1.357-1.873-2.037-3.542-2.037   c-1.401,0-2.542,0.461-3.42,1.383c-0.878,0.922-1.316,2.147-1.316,3.674c0,1.527,0.438,2.752,1.316,3.674   c0.878,0.923,2.019,1.385,3.42,1.385c1.652,0,2.833-0.681,3.542-2.037h3.741c-0.561,1.549-1.494,2.748-2.8,3.599   c-1.306,0.848-2.8,1.27-4.482,1.27C83.053,19.47,81.179,18.726,79.659,17.235z"/>
	<path d="M102.281,19.337h-3.12v-5.312L93.936,3.888h3.497l3.298,7.282l3.276-7.282h3.497l-5.225,10.139L102.281,19.337   L102.281,19.337z"/>
</g>
<g>
	<path fill="#050505" d="M48.786,0c-0.89,0.506-3.689,2.304-7.57,2.304c-0.779,0-2.189-0.055-2.905-0.2L37.76,1.998l-0.03,0.561   c-0.005,0.135-0.484,13.69,11.056,20.256L48.786,0L48.786,0z"/>
</g>
<g>
	<path fill="#EF4789" d="M50.099,22.814C61.639,16.25,61.16,2.693,61.154,2.558l-0.028-0.561l-0.551,0.106   c-0.717,0.145-2.126,0.2-2.905,0.2c-3.88,0-6.682-1.797-7.57-2.304V22.814z"/>
</g>
<g>
	<path d="M134.028,4.065v15.272h-1.55V7.584l-5.555,11.753h-0.908l-5.556-11.708v11.708h-1.55V4.065h1.438l6.131,13.038   l6.109-13.038H134.028z"/>
	<path d="M148.127,19.337l-1.284-3.562h-7.127l-1.306,3.562h-1.551l5.623-15.272h1.595l5.6,15.272H148.127z M140.16,14.534h6.219   l-3.099-8.544L140.16,14.534z"/>
	<path d="M162.625,4.065h1.55v15.272h-1.55L154.06,6.544v12.793h-1.55V4.065h1.55l8.565,12.793V4.065z"/>
	<path d="M178.274,19.337l-1.283-3.562h-7.128l-1.306,3.562h-1.55l5.623-15.272h1.594l5.601,15.272H178.274z M170.306,14.534h6.219   l-3.098-8.544L170.306,14.534z"/>
	<path d="M184.128,17.278c-1.498-1.461-2.246-3.318-2.246-5.577c0-2.258,0.748-4.121,2.246-5.589   c1.498-1.468,3.339-2.203,5.521-2.203c1.563,0,2.955,0.354,4.174,1.062c1.217,0.708,2.136,1.741,2.756,3.099h-1.883   c-0.473-0.9-1.15-1.593-2.035-2.081c-0.887-0.487-1.89-0.73-3.012-0.73c-1.784,0-3.261,0.59-4.427,1.771   c-1.166,1.181-1.748,2.737-1.748,4.67c0,1.933,0.582,3.489,1.748,4.67c1.166,1.18,2.631,1.771,4.395,1.771   c1.763,0,3.189-0.517,4.282-1.55c1.093-1.032,1.72-2.44,1.883-4.227h-6.861v-1.24h8.477v1.24c-0.207,2.124-1.032,3.84-2.479,5.145   c-1.447,1.308-3.232,1.959-5.357,1.959S185.626,18.74,184.128,17.278z"/>
	<path d="M207.691,4.065v1.261h-6.221v5.711h5.557v1.239h-5.557v5.822h6.221v1.237h-7.77V4.065H207.691z"/>
	<path d="M212.25,12.94v6.396h-1.549V4.065h4.67c1.712,0,3.011,0.409,3.896,1.228s1.328,1.856,1.328,3.11   c0,1.254-0.348,2.269-1.041,3.043c-0.693,0.775-1.727,1.251-3.099,1.428l4.339,6.463h-2.016l-4.14-6.396L212.25,12.94L212.25,12.94   z M212.25,5.326v6.353h3.121c2.436,0,3.651-1.059,3.651-3.176s-1.217-3.176-3.651-3.176L212.25,5.326L212.25,5.326z"/>
</g>
</svg></svg>
