<?xml version="1.0" encoding="UTF-8"?>
<svg id="Ebene_1" data-name="Ebene 1" xmlns="http://www.w3.org/2000/svg" version="1.1" viewBox="0 0 294 92.5">
  <defs>
    <style>
      .cls-1 {
        fill: #000;
        stroke-width: 0px;
      }
    </style>
  </defs>
  <path class="cls-1" d="M29.2,55.7c-4.2,12.1-.9,16,1.8,16.6,7.7,1.8,13.9-11.2,19.7-23.1,4.6-9.5,12-24.1,14.7-28.3.7-1,1.5-.9,2.1,0,1.1,1.9,1.5,5.6-.6,10.7-2.8,6.7-11.1,23.7-15.8,31.5-6.6,10.9-13.7,13-20.6,11.8-6.4-1.1-10.1-7-8.1-14.4.9-3.7,3.4-6.1,5.6-6.6,1.2-.3,1.8.3,1.3,1.7Z"/>
  <path class="cls-1" d="M86.6,56.3c-1.8,7.3-7.2,15.9-13.5,18-3.1,1-7.4.7-10.8-3.8-3.8-5-2.5-12.4,1.4-19.2,3.2-5.8,8.5-10.8,13.6-11.1,2.7-.2,4.1.6,5.8,2.9,2,2.7,4.5,3.2,4,9.4,0,.7,0,1.3-.2,2,.5,0,1-.2,1.7-.2s.6.4.3.9c-.6.7-1.5,1-2.3,1.1ZM79.3,54.2c-1.8-1.4-3.8-4.4-3.9-7.5-2.3,2-4.8,4.8-6.6,8-3.6,6.5-4.9,14.4-2.7,16.2,2.4,2,7.6-1,11.8-8.9,1.3-2.4,2.3-4.8,3-6.8-.6-.3-1.1-.6-1.6-1ZM82.2,46.6c-.4-2.7-2.1-2.2-2.6.3-.4,2.3.5,4.8,1.9,6.1.7-2.7.9-4.8.7-6.3Z"/>
  <path class="cls-1" d="M109.5,75c-7.2,0-9-5.2-6.4-12.7,2.8-8.3,10.3-17.2,8.9-18-1.2-.7-10.5,5.1-15.5,13.3-3.1,5-6.2,11-8.3,16.2-.3.8-.9.9-1.5.3-1.4-1.5-2.1-3.9-.3-9.1,3-8.6,20.8-38.7,27.7-47.3.8-1,1.6-.9,2.1,0,1.1,2.5.9,6.8-2.4,12.1-2.1,3.4-6.6,10.3-10.3,16.1,3.5-3.4,8-6.2,10.3-6,2.9.3,5.6,4.6,3.3,9-1.9,3.8-6,10-8,14.5-2.1,5-1.7,9,1.5,8.8,3.5-.2,8.2-6.3,10.9-11.8.3-.8,1.2-.8,1.5,0,.4.9.4,2.7-.9,5.3-2.4,4.9-7.6,9.2-12.7,9.2Z"/>
  <path class="cls-1" d="M146.5,40.1c2.8.4,5.5,4.6,3.3,9.1-1.8,3.8-6,10.1-8,14.5-2.2,5-1.7,9,1.4,8.8,3.5-.2,7.7-5.8,10.9-11.8.4-.8,1-.8,1.5,0,.6.9.4,2.9-.8,5.4-2.3,4.8-7.7,9.2-12.7,9.2-7.3,0-9-5.3-6.5-12.7,2.8-8.4,10.3-17.4,8.8-18.1-.9-.3-5.8,2.1-11.3,8-5,5.5-8.8,13.7-12.5,21.7-.3.8-.9,1.1-1.6.3-1.7-1.7-2.2-4.5-.9-8.8,1.7-5.4,8.3-17.3,13.7-25.2.6-.9,1.3-.9,1.8,0,1.3,2.1,1.2,5,.3,8.1,3.8-4.1,9.7-8.8,12.5-8.4Z"/>
  <path class="cls-1" d="M184.4,27.2c-.3-.9-.3-1.5.9-1.6,5.9-.8,10.2-4.2,15.7-5,5.5-.9,9.8,2,12.9,7.5,7.9,13.7-7.4,38.7-30.3,46.3-2.5.9-4,.6-5.5-.6-1-.9-2.4-2-3.6-3.7-1.6-2.2-2.1-3.5-.3-9.1,2.7-8,9.8-21.4,15.7-30.2-3.3-.2-5-2.3-5.6-3.6ZM192.2,38.9c-4.3,7.6-11.2,19-13.7,26.9-1.1,3.6-.5,4.8,2.1,3.8,23.3-8.9,34.1-33.4,29.1-41.4-3-4.8-9.2-.3-15.2,1.7.4,2.1,0,5.2-2.2,9Z"/>
  <path class="cls-1" d="M240.2,56.3c-1.8,7.3-7.2,15.9-13.5,18-3.1,1-7.4.7-10.8-3.8-3.8-5-2.5-12.4,1.4-19.2,3.2-5.8,8.5-10.8,13.6-11.1,2.7-.2,4.1.6,5.8,2.9,2,2.7,4.5,3.2,4,9.4,0,.7,0,1.3-.2,2,.5,0,1-.2,1.7-.2s.6.4.3.9c-.6.7-1.5,1-2.3,1.1ZM233,54.2c-1.8-1.4-3.8-4.4-3.9-7.5-2.3,2-4.8,4.8-6.6,8-3.6,6.5-4.9,14.4-2.7,16.2,2.4,2,7.6-1,11.8-8.9,1.3-2.4,2.3-4.8,3-6.8-.6-.3-1.1-.6-1.6-1ZM235.9,46.6c-.4-2.7-2.1-2.2-2.6.3-.4,2.3.5,4.8,1.9,6.1.7-2.7.9-4.8.7-6.3Z"/>
  <path class="cls-1" d="M253.4,72.5c7.1.3,13.3-6.5,17-12.1.4-.7,1.1-.7,1.5,0,.3.7,0,3.1-1.5,5.3-3.6,5.2-10.2,9.2-16.8,9.2-10.9.2-14.6-10.5-9.1-21.6,5.6-11,14.3-15.5,18.6-13,2.1,1.3,3.7,2.6,5,4.4,1.5,2.1.9,7.3-2.7,11.6-4.2,5.1-9.9,7.4-15.9,2.5-2.7,7.9-.7,13.3,3.8,13.5ZM260.5,52.8c2.7-3.6,4.6-8,3.4-9-1.8-1.5-8.9,3.7-12.9,11.8-.3.5-.5,1-.7,1.5,4.2,2.7,7.7-1,10.2-4.3Z"/>
</svg>