<?xml version="1.0" encoding="utf-8"?>
<!-- Generator: Adobe Illustrator 25.4.1, SVG Export Plug-In . SVG Version: 6.00 Build 0)  -->
<svg version="1.1" id="Ebene_1" xmlns="http://www.w3.org/2000/svg" xmlns:xlink="http://www.w3.org/1999/xlink" x="0px" y="0px"
	 viewBox="0 0 123.5 30.8" style="enable-background:new 0 0 123.5 30.8;" xml:space="preserve">
<style type="text/css">
	.st0{display:none;}
	.st1{display:inline;}
	.st2{fill:#FFFFFF;}
	.st3{font-family:'Poppins-Bold';}
	.st4{font-size:6.0486px;}
</style>
<g id="Ebene_1_00000057827676864819046280000014315959314611606448_" class="st0">
	<g class="st1">
		<path d="M26.7,5V3.4h8.2V5H26.7z M26.7,8.3V6.7h9.8v1.6H26.7z M26.7,24.7v-1.6h8.2v1.6H26.7z M26.7,28v-1.6h8.2V28H26.7z
			 M28.3,11.6V9.9h9.8v1.6h-9.8V11.6z M28.3,14.9v-1.6h11.5v1.6H28.3z M28.3,18.1v-1.6h4.9v1.6H28.3z M28.3,21.4v-1.6h4.9v1.6H28.3z
			 M34.9,18.1v-1.6h11.5v1.6H34.9z M36.5,21.4v-1.6h8.2v1.6H36.5z M38.2,24.7v-1.6h4.9v1.6H38.2z M39.8,28v-1.6h1.6V28H39.8z
			 M41.5,14.9v-1.6H53v1.6H41.5z M43.1,11.6V9.9H53v1.6h-9.9V11.6z M44.7,8.3V6.7h9.8v1.6H44.7z M46.4,5V3.4h8.2V5H46.4z M46.4,28
			v-1.6h8.2V28H46.4z M48,18.1v-1.6h5v1.6H48z M48,21.4v-1.6h5v1.6H48z M48,24.7v-1.6h5v1.6H48z"/>
		<path d="M59.5,5V3.4h14.8V5H59.5z M59.5,8.3V6.7h16.4v1.6H59.5z M59.5,24.7v-1.6h8.2v1.6H59.5z M59.5,28v-1.6h8.2V28H59.5z
			 M61.2,11.6V9.9h4.9v1.6h-4.9V11.6z M61.2,14.9v-1.6H76v1.6H61.2z M61.2,18.1v-1.6h13.1v1.6H61.2z M61.2,21.4v-1.6h4.9v1.6H61.2z
			 M71,11.6V9.9h4.9v1.6H71V11.6z"/>
		<path d="M80.8,8.3V6.7h16.4v1.6H80.8z M80.8,11.6V9.9h4.9v1.6h-4.9V11.6z M80.8,14.9v-1.6h4.9v1.6H80.8z M80.8,18.1v-1.6h4.9v1.6
			H80.8z M80.8,21.4v-1.6h4.9v1.6H80.8z M80.8,24.7v-1.6h16.4v1.6H80.8z M82.5,5V3.4h14.8V5H82.5z M82.5,28v-1.6h14.8V28H82.5z"/>
	</g>
</g>
<g id="Ebene_2_00000046332535059998124740000011848257941376866961_" class="st0">
	<path class="st1" d="M24.1,11l-0.7,2.7h-3.2L23.6,2h4.2l3.5,11.7h-3.4L27.1,11H24.1z M26.7,8.7l-0.5-2.1C26,6,25.8,5,25.6,4.3l0,0
		C25.4,5,25.2,6,25,6.6l-0.5,2.1H26.7z"/>
	<path class="st1" d="M42.6,9.5c0-1.3-0.1-2.9-0.1-4.7l0,0c-0.4,1.6-0.9,3.3-1.2,4.6l-1.2,4.1h-2.4l-1-4c-0.3-1.3-0.7-3-0.9-4.6l0,0
		c-0.1,1.6-0.1,3.4-0.2,4.7l-0.2,4.2h-2.9l0.7-11.7h4.2l0.8,3.1c0.3,1.3,0.7,2.8,0.9,4.3h0.1c0.3-1.4,0.7-3.1,1.1-4.3l0.9-3.1h4.1
		l0.6,11.7h-3L42.6,9.5z"/>
	<path class="st1" d="M55,9h-4.2v2.1h4.7v2.5h-7.8V2.1h7.6v2.5h-4.4v1.9H55V9z"/>
	<path class="st1" d="M57.2,2.2C58.1,2.1,59.4,2,61,2c1.8,0,3.1,0.2,3.9,0.9C65.6,3.5,66,4.3,66,5.4c0,1.5-1.1,2.5-2,2.8v0.1
		c0.8,0.3,1.2,1.1,1.5,2.1c0.4,1.2,0.7,2.9,1,3.3h-3.2c-0.2-0.3-0.5-1.2-0.8-2.7c-0.3-1.4-0.7-1.7-1.7-1.7h-0.5v4.4h-3.1V2.2z
		 M60.3,7.1h0.8c1.2,0,1.9-0.6,1.9-1.4c0-0.9-0.6-1.4-1.6-1.4c-0.6,0-0.9,0-1.1,0.1C60.3,4.4,60.3,7.1,60.3,7.1z"/>
	<path class="st1" d="M71,2.1v11.7h-3.1V2.1H71z"/>
	<path class="st1" d="M78.9,13.9c-4.4,0-6.3-2.7-6.3-5.8c0-4.1,3-6.2,6.5-6.2c1.3,0,2.4,0.3,2.9,0.5l-0.6,2.5
		c-0.5-0.2-1.2-0.4-2.2-0.4c-1.8,0-3.3,1.1-3.3,3.4c0,2.1,1.3,3.4,3.4,3.4"/>
	<path class="st1" d="M85,11l-0.7,2.7h-3.2L84.5,2h4.2l3.5,11.7h-3.4L88,11H85z M87.6,8.7l-0.5-2.1C86.9,6,86.7,5,86.5,4.3l0,0
		C86.3,5,86.1,6,85.9,6.6l-0.5,2.1H87.6z"/>
	<path class="st1" d="M93.6,13.7V2.1h3.7l1.9,3.6c0.6,1.2,1.3,2.7,1.8,4.1l0,0c-0.2-1.5-0.2-3.2-0.2-4.9V2.1h2.9v11.7h-3.3l-2-3.9
		c-0.6-1.2-1.4-2.8-2-4.2h-0.1c0.1,1.6,0.1,3.3,0.1,5.2v2.9L93.6,13.7L93.6,13.7z"/>
	<g class="st1">
		<path d="M26.7,17.7c1-0.2,2.3-0.3,3.7-0.3c2.2,0,3.6,0.4,4.8,1.2c1.3,0.9,2.1,2.3,2.1,4.5c0,2.4-0.9,3.9-2,4.8
			c-1.3,1-3.2,1.4-5.5,1.4c-1.5,0-2.5-0.1-3.1-0.2C26.7,29.1,26.7,17.7,26.7,17.7z M29.9,26.8c0.2,0,0.4,0,0.7,0
			c2,0,3.5-1.1,3.5-3.7c0-2.3-1.4-3.3-3.2-3.3c-0.5,0-0.8,0-1,0.1C29.9,19.9,29.9,26.8,29.9,26.8z"/>
		<path d="M46.3,24.5h-4.2v2.1h4.7v2.5H39V17.5h7.6V20h-4.4v1.9h4.2L46.3,24.5L46.3,24.5z"/>
		<path d="M48.6,17.5h3.1v9h4.5v2.6h-7.6V17.5z"/>
		<path d="M60.8,17.5v11.7h-3.1V17.5H60.8z"/>
		<path d="M65.8,29.2l-3.7-11.7h3.4l1.2,4.6c0.4,1.3,0.7,2.6,1,4.1l0,0c0.3-1.4,0.6-2.8,1-4l1.3-4.6h3.3l-3.8,11.7L65.8,29.2
			L65.8,29.2z"/>
		<path d="M81.9,24.5h-4.2v2.1h4.7v2.5h-7.8V17.5h7.6V20h-4.4v1.9H82L81.9,24.5L81.9,24.5z"/>
		<path d="M84.1,17.7c0.9-0.1,2.2-0.3,3.8-0.3c1.8,0,3.1,0.2,3.9,0.9c0.7,0.6,1.2,1.4,1.2,2.5c0,1.5-1.1,2.5-2,2.8v0.1
			c0.8,0.3,1.2,1.1,1.5,2.1c0.3,1.2,0.7,2.9,1,3.3h-3.2c-0.2-0.3-0.5-1.2-0.8-2.7c-0.3-1.4-0.7-1.7-1.7-1.7h-0.5v4.4h-3.1V17.7H84.1
			z M87.2,22.5H88c1.2,0,1.9-0.6,1.9-1.4c0-0.9-0.6-1.4-1.6-1.4c-0.6,0-0.9,0-1.1,0.1C87.2,19.8,87.2,22.5,87.2,22.5z"/>
		<path d="M97.1,29.2v-4.7l-3.7-6.9H97l1,2.6c0.3,0.8,0.5,1.4,0.8,2.2l0,0c0.2-0.7,0.5-1.4,0.8-2.2l1-2.6h3.5l-3.8,6.8v4.8H97.1z"/>
	</g>
</g>
<g id="Ebene_3">
	<g>
		<path d="M43,9.3h2v6c0,1.3,0.7,2.1,2,2.1c1.2,0,2-0.7,2-2.1v-6h2v5.9c0,2.6-1.8,3.8-3.9,3.8c-2.1,0-3.9-1.2-3.9-3.8L43,9.3L43,9.3
			z"/>
		<path d="M57.3,14.7c0-1.2-0.7-1.9-1.7-1.9c-1,0-1.7,0.7-1.7,1.9v4.2h-2v-7.6h2v0.9c0.5-0.7,1.3-1,2.3-1c1.8,0,3.1,1.2,3.1,3.3v4.5
			h-2V14.7z"/>
		<path d="M64.7,11.2c2,0,3.5,1.5,3.5,3.9S66.7,19,64.7,19c-1.2,0-2.1-0.5-2.5-1.2V19h-2V8.7h2v3.7C62.6,11.7,63.6,11.2,64.7,11.2z
			 M64.2,12.8c-1,0-2.1,0.8-2.1,2.2s0.9,2.2,2.1,2.2c1,0,2.1-0.9,2.1-2.3C66.2,13.6,65.2,12.8,64.2,12.8z"/>
		<path d="M72.2,19c-2.2,0-3.9-1.5-3.9-3.9s1.7-3.9,3.9-3.9c2.2,0,3.9,1.5,3.9,3.9S74.5,19,72.2,19z M72.2,17.3c1,0,2-0.8,2-2.2
			c0-1.5-0.9-2.2-2-2.2s-2,0.8-2,2.2C70.4,16.6,71.2,17.3,72.2,17.3z"/>
		<path d="M84.1,18.9h-2v-0.9c-0.5,0.7-1.3,1-2.3,1c-1.8,0-3.1-1.2-3.1-3.3v-4.5h2v4.2c0,1.2,0.7,1.9,1.7,1.9s1.7-0.7,1.7-1.9v-4.2
			h2C84.1,11.2,84.1,18.9,84.1,18.9z"/>
		<path d="M88.3,11.2c1,0,2,0.4,2.5,1.2V8.7h2v10.2h-2v-1.1c-0.4,0.7-1.3,1.3-2.5,1.3c-2,0-3.5-1.6-3.5-3.9
			C84.8,12.6,86.4,11.2,88.3,11.2z M88.8,12.8c-1,0-2.1,0.8-2.1,2.2s0.9,2.3,2.1,2.3c1,0,2.1-0.8,2.1-2.2
			C90.8,13.6,89.9,12.8,88.8,12.8z"/>
		<path d="M95.9,18.9h-2v-7.6h2v1.2c0.5-0.8,1.3-1.3,2.3-1.3v2.1h-0.5c-1.1,0-1.8,0.4-1.8,1.9V18.9z"/>
	</g>
	<g>
		<path d="M99.5,12.6c0-0.9,0.7-1.5,1.5-1.5c0.9,0,1.5,0.7,1.5,1.5c0,0.9-0.7,1.5-1.5,1.5C100.1,14.2,99.5,13.5,99.5,12.6z
			 M100,12.6c0,0.7,0.4,1.2,1.1,1.2c0.7,0,1.2-0.5,1.2-1.2s-0.4-1.2-1.2-1.2C100.4,11.4,100,11.9,100,12.6z M101.5,12.8l0.3,0.6
			h-0.6l-0.3-0.5h-0.1v0.5h-0.3v-1.5h0.8c0.3,0,0.6,0.2,0.6,0.5C101.8,12.5,101.7,12.7,101.5,12.8z M100.9,12.2v0.3h0.3
			c0.1,0,0.1,0,0.1-0.1c0-0.1-0.1-0.1-0.1-0.1L100.9,12.2L100.9,12.2z"/>
	</g>
	<circle cx="30.4" cy="14.5" r="9.5"/>
	<path class="st2" d="M27.6,14.4c0.3-0.8,0.9-1.5,1.7-1.8c0.8-0.3,1.6-0.3,2.5-0.1l0.5-1.2c-2.3-0.9-5,0.3-5.9,2.6L27.6,14.4z
		 M25.5,13.6c1.1-2.8,4.4-4.2,7.2-3.1l0.5-1.2c-3.5-1.4-7.5,0.3-8.9,3.9L25.5,13.6z M30.5,13.6c0.4,0.2,0.7,0.7,0.5,1.2
		c-0.2,0.5-0.7,0.7-1.2,0.5c-0.4-0.2-0.7-0.7-0.5-1.2C29.4,13.6,30,13.4,30.5,13.6z"/>
</g>
<g id="Ebene_4" class="st0">
	<path class="st1" d="M26.7,6.8h9.6v3h-6v3.3h4.5V16h-4.5v6.3h-3.6C26.7,22.3,26.7,6.8,26.7,6.8z"/>
	<path class="st1" d="M41.5,22.5c-3.4,0-6-2.3-6-6s2.7-6,6.1-6c3.4,0,6.1,2.3,6.1,6C47.6,20.2,44.9,22.5,41.5,22.5z M41.5,19.4
		c1.3,0,2.5-0.9,2.5-2.9s-1.2-2.9-2.4-2.9c-1.3,0-2.4,0.9-2.4,2.9C39.1,18.4,40.2,19.4,41.5,19.4z"/>
	<path class="st1" d="M52.7,22.5c-3.4,0-6-2.3-6-6s2.7-6,6.1-6c3.4,0,6.1,2.3,6.1,6C58.9,20.2,56.2,22.5,52.7,22.5z M52.7,19.4
		c1.3,0,2.5-0.9,2.5-2.9s-1.2-2.9-2.4-2.9c-1.3,0-2.4,0.9-2.4,2.9C50.3,18.4,51.4,19.4,52.7,19.4z"/>
	<path class="st1" d="M63.1,10.4c1.6,0,2.9,0.7,3.6,1.8V6.8h3.6v15.5h-3.6v-1.7c-0.7,1.1-1.9,1.8-3.6,1.8c-2.9,0-5.2-2.4-5.2-6
		C58,12.7,60.2,10.4,63.1,10.4z M64.2,13.5c-1.3,0-2.6,1-2.6,2.9s1.2,2.9,2.6,2.9c1.4,0,2.6-1,2.6-2.9S65.5,13.5,64.2,13.5z"/>
	<path class="st1" d="M81.9,9.9h-5.4V13h4.8v2.9h-4.8v3.4h5.4v3h-9V6.9h9V9.9z"/>
	<path class="st1" d="M89,19l-1.9,3.3h-3.9l3.9-6l-4-5.7h4l2.2,3.2l1.9-3.2h3.9l-3.9,5.9l4,5.8h-4L89,19z"/>
	<text transform="matrix(1 0 0 1 97.2086 14.9098)" class="st1 st3 st4">™</text>
</g>
<g id="Ebene_5" class="st0">
	<g class="st1">
		<path d="M34.4,13c0.7,0.9,1.1,2.1,1.1,3.5c0,1.5-0.4,2.7-1.1,3.7c-0.7,1-1.7,1.5-3,1.5c-0.8,0-1.4-0.2-1.9-0.5
			c-0.3-0.2-0.6-0.5-0.9-1v1.2h-2.5v-13h2.5V13c0.3-0.4,0.7-0.8,1.1-1c0.5-0.3,1-0.4,1.7-0.4C32.7,11.6,33.7,12,34.4,13z M32.3,18.8
			c0.4-0.5,0.5-1.2,0.5-2.1c0-0.7-0.1-1.2-0.3-1.7c-0.3-0.8-1-1.3-1.9-1.3s-1.5,0.4-1.9,1.2c-0.2,0.4-0.3,1-0.3,1.7
			c0,0.8,0.2,1.5,0.5,2c0.4,0.5,0.9,0.8,1.7,0.8C31.5,19.6,32,19.3,32.3,18.8z"/>
		<path d="M39.8,10.7h-2.5V8.4h2.5V10.7z M37.3,11.8h2.5v9.6h-2.5V11.8z"/>
		<path d="M47.3,12c0.5,0.3,0.8,0.6,1.1,1.1V8.4h2.5v12.9h-2.4V20c-0.4,0.6-0.8,1-1.2,1.2c-0.5,0.3-1,0.4-1.7,0.4
			c-1.1,0-2.1-0.5-2.8-1.4c-0.8-0.9-1.1-2.1-1.1-3.5c0-1.6,0.4-2.9,1.1-3.9c0.8-0.9,1.8-1.4,3-1.4C46.3,11.6,46.9,11.7,47.3,12z
			 M47.9,18.8c0.4-0.5,0.6-1.2,0.6-2c0-1.2-0.3-2-0.9-2.5c-0.4-0.3-0.8-0.5-1.3-0.5c-0.7,0-1.3,0.3-1.6,0.8
			c-0.3,0.6-0.5,1.2-0.5,2.1s0.2,1.6,0.5,2.1s0.9,0.8,1.6,0.8C47,19.6,47.6,19.3,47.9,18.8z"/>
		<path d="M58.9,15.2c0-0.4-0.2-0.7-0.4-1c-0.3-0.4-0.7-0.6-1.3-0.6c-0.8,0-1.4,0.4-1.7,1.3c-0.2,0.4-0.2,1-0.2,1.8
			c0,0.7,0.1,1.3,0.2,1.7c0.3,0.8,0.9,1.2,1.7,1.2c0.6,0,1-0.2,1.2-0.5s0.4-0.7,0.4-1.2h2.6c-0.1,0.8-0.3,1.5-0.8,2.2
			c-0.8,1.1-1.9,1.6-3.5,1.6c-1.5,0-2.7-0.5-3.4-1.4s-1.1-2.1-1.1-3.6c0-1.6,0.4-2.9,1.2-3.8c0.8-0.9,1.9-1.4,3.3-1.4
			c1.2,0,2.2,0.3,2.9,0.8c0.8,0.5,1.2,1.5,1.4,2.9C61.4,15.2,58.9,15.2,58.9,15.2z"/>
		<path d="M78.5,10.7H76V8.4h2.5V10.7z M75.9,11.8h2.5v9.6h-2.5V11.8z"/>
		<path d="M88.6,12.4c0.6,0.5,0.9,1.4,0.9,2.6v6.4H87v-5.8c0-0.5-0.1-0.9-0.2-1.2c-0.2-0.5-0.7-0.7-1.4-0.7c-0.8,0-1.4,0.4-1.7,1.1
			c-0.2,0.4-0.2,0.9-0.2,1.5v5.2H81v-9.6h2.4v1.4c0.3-0.5,0.6-0.8,0.9-1.1c0.5-0.4,1.2-0.6,1.9-0.6C87.2,11.6,88,11.8,88.6,12.4z"/>
		<path d="M93.8,18.3c0.1,0.4,0.2,0.8,0.3,0.9c0.3,0.3,0.9,0.5,1.7,0.5c0.5,0,0.9-0.1,1.2-0.2c0.3-0.1,0.4-0.4,0.4-0.7
			c0-0.3-0.1-0.5-0.4-0.6s-1.1-0.4-2.6-0.8c-1.1-0.3-1.9-0.6-2.3-1s-0.7-1-0.7-1.7c0-0.9,0.3-1.6,1-2.3c0.7-0.6,1.7-1,2.9-1
			c1.2,0,2.2,0.2,2.9,0.7c0.8,0.5,1.2,1.3,1.3,2.5H97c0-0.3-0.1-0.6-0.3-0.8c-0.3-0.3-0.7-0.5-1.4-0.5c-0.5,0-0.9,0.1-1.2,0.3
			c-0.2,0.2-0.3,0.4-0.3,0.6c0,0.3,0.1,0.5,0.4,0.6c0.2,0.1,1.1,0.4,2.6,0.7c1,0.2,1.7,0.6,2.2,1.1s0.7,1.1,0.7,1.8
			c0,0.9-0.4,1.7-1.1,2.3c-0.7,0.6-1.8,0.9-3.3,0.9s-2.6-0.3-3.3-1c-0.7-0.6-1.1-1.4-1.1-2.4h2.9V18.3z"/>
	</g>
	<circle class="st1" cx="68.5" cy="16.6" r="5.2"/>
	<g class="st1">
		<path class="st2" d="M68.8,20.7h-0.4v-0.8c-0.5-0.1-0.9-0.2-1.2-0.4c-0.5-0.3-0.7-0.9-0.7-1.6h1.1c0,0.3,0.1,0.6,0.2,0.7
			c0.1,0.2,0.3,0.3,0.6,0.4v-1.8L68,17.1c-0.5-0.2-0.9-0.4-1.1-0.6s-0.3-0.6-0.3-1c0-0.3,0-0.5,0.1-0.7s0.2-0.4,0.4-0.5
			c0.2-0.2,0.4-0.3,0.7-0.4c0.1,0,0.4-0.1,0.6-0.1v-0.6h0.4v0.6c0.4,0,0.8,0.1,1.1,0.3c0.5,0.3,0.7,0.8,0.7,1.4h-1.1
			c0-0.2-0.1-0.4-0.1-0.5c-0.1-0.2-0.3-0.3-0.6-0.3v1.6c0.7,0.2,1.1,0.4,1.3,0.6c0.4,0.3,0.6,0.7,0.6,1.2c0,0.7-0.3,1.2-0.8,1.5
			c-0.3,0.2-0.7,0.3-1.1,0.3C68.8,19.9,68.8,20.7,68.8,20.7z M68.4,14.6c-0.2,0-0.4,0.1-0.5,0.2c-0.1,0.1-0.2,0.3-0.2,0.5
			s0.1,0.4,0.3,0.6c0.1,0.1,0.2,0.1,0.4,0.2C68.4,16.1,68.4,14.6,68.4,14.6z M68.8,18.9c0.2,0,0.4-0.1,0.5-0.1
			c0.2-0.1,0.3-0.3,0.3-0.7c0-0.2-0.1-0.4-0.2-0.6c-0.1-0.1-0.3-0.2-0.5-0.2v1.6H68.8z"/>
	</g>
</g>
<g id="Ebene_6" class="st0">
	<g class="st1">
		<g>
			<path d="M30.4,14.4C30.3,14.4,30.3,14.4,30.4,14.4c-0.4,4-0.6,6-0.9,10.1c-1.3,0.2-2,0.3-3.3,0.6c-0.7-7.6-1-11.5-1.7-19.4
				c0.9,0,1.4,0,2.3,0c0.5,6.1,0.8,9.1,1.2,15l0,0c0.5-6.1,0.7-9.1,1.2-15c0.9,0,1.4,0,2.3,0c0.5,5.9,0.7,8.8,1.1,14.6l0,0
				c0.5-5.9,0.8-8.8,1.3-14.6c0.8,0,1.3,0,2.1,0c-0.7,7.1-1.1,10.8-1.8,18.1c-1.3,0.2-1.9,0.3-3.2,0.5
				C30.9,20.3,30.7,18.4,30.4,14.4z"/>
			<path d="M40.3,13c1.3-0.1,2-0.1,3.3-0.1c0,1,0,1.5,0,2.4c-1.3,0.1-2,0.1-3.3,0.2c0,2,0,3.1,0,5.1c1.7-0.2,2.5-0.2,4.2-0.3
				c0,1,0,1.5,0,2.4c-2.6,0.2-3.9,0.4-6.6,0.7c0-7.1,0-10.6,0.1-17.7c2.6,0,3.9,0,6.6,0c0,1,0,1.5,0,2.4c-1.7,0-2.5,0-4.2,0.1
				C40.3,10.1,40.3,11.1,40.3,13z"/>
			<path d="M53.7,9.5c0,0.2,0,0.4,0,0.6c0,1.7-0.5,2.8-1.6,3.3l0,0c1.3,0.5,1.8,1.7,1.8,3.5c0,0.5,0,0.8,0,1.3
				c0,2.5-1.3,3.9-3.7,4.1c-1.5,0.1-2.3,0.1-3.8,0.2c0-6.7,0-10.1,0.1-16.8c1.5,0,2.2,0,3.6,0C52.7,5.7,53.7,6.9,53.7,9.5z
				 M48.9,8.1c0,1.8,0,2.6,0,4.4c0.4,0,0.6,0,0.9,0c0.9,0,1.4-0.5,1.5-1.8c0-0.4,0-0.6,0-0.9C51.3,8.6,51,8,50.1,8
				C49.6,8.1,49.4,8.1,48.9,8.1z M48.9,14.8c0,2,0,3.1,0,5.1c0.6,0,0.8,0,1.4-0.1c0.8,0,1.3-0.5,1.3-1.7c0-0.6,0-0.9,0-1.4
				c0-1.5-0.5-2-1.6-2C49.6,14.8,49.4,14.8,48.9,14.8z"/>
			<path d="M59.2,5.5c2.3,0,3.6,1.5,3.6,4.1c0,0.2,0,0.3,0,0.5c-0.9,0-1.4,0-2.3,0c0-0.3,0-0.4,0-0.7c0-1.2-0.4-1.6-1.2-1.6
				s-1.2,0.4-1.2,1.6s0.5,2.1,2.1,3.5c2,1.9,2.7,3.2,2.7,5.1c0,2.6-1.2,4.1-3.6,4.1c-2.4,0-3.6-1.4-3.6-4c0-0.4,0-0.6,0-1
				c0.9,0,1.4,0,2.3,0c0,0.5,0,0.7,0,1.2c0,1.2,0.5,1.6,1.3,1.6s1.3-0.4,1.3-1.6s-0.5-2.1-2.1-3.5c-2-1.9-2.7-3.2-2.6-5.1
				C55.7,7,56.9,5.5,59.2,5.5z"/>
			<path d="M64.1,5.7c3,0,4.5,0,7.4,0c0,0.9,0,1.4,0,2.4c-1,0-1.5,0-2.5,0c0,5.6,0,8.5,0,14.1c-1,0-1.5-0.1-2.4-0.1
				c0-5.6,0-8.4,0-14c-1,0-1.5,0-2.5,0C64.1,7.1,64.1,6.6,64.1,5.7z"/>
			<path d="M80.2,22.9c-1-0.1-1.5-0.1-2.4-0.2c-0.2-1.2-0.3-1.9-0.4-3.1c-1.2-0.1-1.8-0.1-3-0.2c-0.2,1.2-0.2,1.8-0.4,3
				c-0.9-0.1-1.3-0.1-2.2-0.1c1-6.6,1.4-9.9,2.4-16.6c1.4,0,2.1,0,3.5,0C78.7,12.5,79.2,15.9,80.2,22.9z M74.6,17.1
				c0.9,0,1.4,0.1,2.3,0.1c-0.5-3.4-0.7-5.2-1.2-8.6l0,0C75.3,12.1,75.1,13.7,74.6,17.1z"/>
			<path d="M86.9,23.6c-0.1-0.5-0.2-0.8-0.2-2.2c0-1.1,0-1.7,0-2.8c0-1.7-0.5-2.3-1.6-2.4c-0.3,0-0.5,0-0.8-0.1c0,2.9,0,4.3,0,7.2
				c-1-0.1-1.4-0.2-2.4-0.3c0-6.9,0-10.4-0.1-17.4c1.5,0,2.2,0,3.6,0C87.9,5.6,89,7,89,9.8c0,0.6,0,0.9,0,1.4c0,1.9-0.5,3-1.6,3.6
				c0,0,0,0,0,0.1c1.2,0.7,1.6,2.1,1.6,4c0,1.1,0,1.7,0,2.8c0,0.9,0,1.5,0.3,2.3C88.4,23.8,87.9,23.8,86.9,23.6z M84.2,8.2
				c0,2.2,0,3.2,0,5.4c0.4,0,0.6,0,0.9,0.1c0.9,0,1.4-0.4,1.4-1.8c0-0.7,0-1.1,0-1.8c0-1.3-0.4-1.8-1.2-1.9
				C84.9,8.2,84.7,8.2,84.2,8.2z"/>
			<path d="M94.4,5.5c2.3,0,3.5,1.8,3.5,4.9c0,0.2,0,0.4,0,0.6c-0.9,0-1.4-0.1-2.3-0.1c0-0.3,0-0.5,0-0.8c0-1.4-0.4-1.9-1.2-1.9
				c-0.8,0-1.2,0.5-1.2,1.8c0,1.4,0.5,2.4,2.1,4.3c2,2.4,2.6,4.1,2.6,6.4c0,3.2-1.2,4.7-3.6,4.3c-2.4-0.4-3.6-2.3-3.6-5.2
				c0-0.5,0-0.7,0-1.1c0.9,0.1,1.4,0.1,2.3,0.2c0,0.5,0,0.8,0,1.3c0,1.3,0.5,1.9,1.2,2c0.8,0.1,1.2-0.3,1.2-1.7
				c0-1.4-0.5-2.5-2.1-4.4c-2-2.4-2.7-3.9-2.7-6C90.9,7.2,92.1,5.5,94.4,5.5z"/>
		</g>
	</g>
</g>
</svg>
