<svg xmlns="http://www.w3.org/2000/svg" viewBox="0 0 93.959 93.959"><circle fill="#54C3E9" cx="46.979" cy="46.979" r="46.979"/><path fill="#FFF" d="M78.722 60.885v3.174c0 1.754-2.381 3.174-5.29 3.174H20.528c-2.91 0-5.291-1.42-5.291-3.174v-3.174H78.722zm-55.02-7.407V30.201c0-2.91 2.381-5.291 5.291-5.291h35.975c2.909 0 5.29 2.381 5.29 5.291v23.277c0 2.911-2.381 5.291-5.29 5.291H28.992c-2.909 0-5.29-2.38-5.29-5.291zm4.232 0c0 .562.496 1.059 1.058 1.059h35.975c.562 0 1.058-.496 1.058-1.059V30.201c0-.562-.496-1.058-1.058-1.058H28.992c-.562 0-1.058.496-1.058 1.058v23.277zm22.219 10.051a.523.523 0 00-.528-.529h-5.291a.523.523 0 00-.529.529c0 .299.231.529.529.529h5.291a.52.52 0 00.528-.529z"/></svg>