<svg xmlns="http://www.w3.org/2000/svg" viewBox="0 0 134.109 200.125"><path fill="#4DC1EB" d="M134.059 100.062c0 32.329-.024 64.656.051 96.984.006 2.302-.408 3.084-2.937 3.079a37799.2 37799.2 0 00-128.229-.021c-2.167.004-2.947-.396-2.944-2.808C.073 132.475.073 67.651 0 2.829-.003.422.771.017 2.943.019 45.686.078 88.429.088 131.172 0c2.525-.005 2.943.772 2.938 3.077-.076 32.328-.051 64.656-.051 96.985z"/><path fill="#FAFBFC" d="M100.624 32.3c.036-.162.058-.33.11-.486 1.146-3.295.698-6.086-2.406-8.164-.726-.485-1.549-1.21-1.171-2.273.393-1.105 1.447-1.34 2.473-1.299 3.234.127 5.268-1.295 6.218-4.421.301-.987.769-2.126 2.146-2.104 1.297.021 1.646 1.182 1.872 2.054.885 3.393 3.251 4.441 6.431 4.484.899.012 1.906.14 2.262 1.195.338 1.005-.216 1.75-.933 2.398-.309.278-.548.652-.89.87-2.429 1.553-2.607 3.71-1.892 6.252.32 1.142.815 2.559-.44 3.454-1.191.849-2.331-.057-3.144-.771-2.763-2.427-5.083-.988-7.586.48-1.959 1.151-3.203.367-3.05-1.669z"/><path fill="#4DC2EB" d="M113.616 33.237c-3.967-3.381-7.646-2.995-11.6.014 1.853-4.882.608-8.494-3.667-11.38 4.965-.015 8.343-1.714 9.083-7.059 1.969 1.881 1.901 4.645 3.678 5.639 1.706.955 3.954.941 6.6 1.483-4.41 2.664-5.746 6.335-4.094 11.303z"/><text transform="translate(12.554 33.251)" fill="#FFF" font-family="'OpenSans-Light'" font-size="14">100%</text></svg>