<svg xmlns="http://www.w3.org/2000/svg" viewBox="0 0 134.109 200.125"><path fill="#FDC400" d="M0 110.018c0-29.081.023-58.161-.048-87.241-.005-2.117.391-2.767 2.678-2.762 42.946.082 85.894.081 128.839.001 2.267-.004 2.689.615 2.688 2.751-.061 58.242-.06 116.485-.003 174.729.002 2.023-.41 2.633-2.551 2.629-43.029-.068-86.06-.068-129.087 0-2.125.003-2.567-.581-2.562-2.619C.022 168.343 0 139.18 0 110.018z"/><path fill="#FCFBFA" d="M105.462 43.594c-1.729.045-4.771 2.698-5.258 4.675-.28 1.136-.618 1.894-1.887 1.786-.752-.064-1.169-.513-1.24-1.306-.112-1.257.632-1.519 1.647-2.019 1.849-.91 3.227-2.449 3.773-4.594.443-1.732 1.6-2.009 2.843-.738 4.042 4.129 7.786 2.02 10.122-1.972.53-.903.878-1.55 1.952-1.431.759.084 1.199.58 1.249 1.33.07 1.087-.491 1.523-1.553 1.848-2.198.672-3.813 2.301-5.116 4.09-1.188 1.632-2.134 2.04-3.381.2-.807-1.193-2.178-1.373-3.151-1.869z"/><text transform="translate(13.72 44.023)" fill="#FFF" font-family="'OpenSans-Light'" font-size="14">92%</text></svg>