<svg xmlns="http://www.w3.org/2000/svg" viewBox="0 0 134.109 200.125"><path fill-rule="evenodd" clip-rule="evenodd" fill="#EB610B" d="M134.053 113.325c0 28.074-.023 56.148.053 84.223.004 2.075-.488 2.58-2.571 2.577-42.97-.067-85.94-.067-128.91 0-2.084.004-2.571-.505-2.569-2.578.062-56.314.062-112.63 0-168.945-.002-2.075.487-2.58 2.57-2.577 42.969.067 85.939.067 128.909 0 2.085-.003 2.575.504 2.569 2.578-.075 28.24-.051 56.481-.051 84.722z"/><path fill-rule="evenodd" clip-rule="evenodd" fill="#FCFAF9" d="M108.307 57.162c-2.741 0-5.484-.05-8.224.017-1.911.046-2.739-.823-2.724-2.684.023-3.074.016-6.149.012-9.224-.004-1.642.85-2.486 2.44-2.494 5.648-.028 11.299-.029 16.947-.002 1.575.007 2.392.721 2.333 2.475a143.131 143.131 0 000 9.472c.064 1.922-.85 2.479-2.562 2.453-2.74-.044-5.481-.013-8.222-.013z"/><path fill-rule="evenodd" clip-rule="evenodd" fill="#EB620E" d="M108.535 49.008c2.663.001 5.328.027 7.991-.013 1.005-.015 1.513.233 1.497 1.382-.096 6.68.742 5.424-5.039 5.51-3.994.06-7.993-.065-11.987.044-1.886.052-2.421-.638-2.397-2.473.059-4.451-.025-4.452 4.441-4.452l5.494.002z"/><path fill-rule="evenodd" clip-rule="evenodd" fill="#EC6512" d="M108.287 46.194c-2.749 0-5.496.01-8.243-.008-.63-.004-1.433.133-1.372-.925.047-.823.545-1.15 1.323-1.149l16.734.007c.81 0 1.245.422 1.249 1.222.004 1.075-.849.835-1.45.841-2.747.027-5.494.012-8.241.012z"/><text transform="translate(12.805 54.501)" fill="#FFF" font-family="'OpenSans-Light'" font-size="14">90%</text></svg>