<svg xmlns="http://www.w3.org/2000/svg" viewBox="0 0 94.82 86.84"><circle fill="#4877A8" cx="47" cy="43" r="41.026"/><path fill="#FFF" d="M27.342 65.183a.951.951 0 01-.964.964h-5.786a.951.951 0 01-.964-.964v-5.786c0-.542.422-.964.964-.964h5.786c.542 0 .964.422.964.964v5.786zm11.571 0a.951.951 0 01-.964.964h-5.786a.951.951 0 01-.964-.964v-9.644c0-.543.422-.964.964-.964h5.786c.542 0 .964.421.964.964v9.644zm11.572 0a.951.951 0 01-.964.964h-5.786a.951.951 0 01-.964-.964V47.825c0-.543.422-.965.964-.965h5.786c.542 0 .964.422.964.965v17.358zm11.572 0a.952.952 0 01-.965.964h-5.785a.952.952 0 01-.965-.964v-28.93c0-.542.422-.964.965-.964h5.785c.543 0 .965.422.965.964v28.93zm11.571 0a.952.952 0 01-.965.964h-5.785a.95.95 0 01-.964-.964V20.824c0-.542.421-.964.964-.964h5.785c.543 0 .965.422.965.964v44.359z"/></svg>