<svg xmlns="http://www.w3.org/2000/svg" viewBox="0 0 131.5 119.335"><path fill="#F2F2F1" d="M0 33.585h131.5v22.5H0z"/><path fill="#089FCE" d="M0 33.585h45v22.5H0z"/><path fill="#5B5B5D" d="M44 31.585h2v27h-2z"/><path fill="#F2F2F1" d="M0 2.585h131.5v22.5H0z"/><path fill="#5B5B5D" d="M111 .585h2v27h-2z"/><path fill="#F2F2F1" d="M0 64.085h131.5v22.5H0z"/><path fill="#089FCE" d="M0 64.085h115.5v22.5H0z"/><path fill="#5B5B5D" d="M104 62.085h2v27h-2z"/><path fill="#F2F2F1" d="M0 94.585h131.5v22.5H0z"/><path fill="#089FCE" d="M0 94.585h66.64v22.5H0z"/><path fill="#5B5B5D" d="M74 92.335h2v27h-2z"/><path fill="#089FCE" d="M0 2.585h96v22.5H0z"/></svg>