<svg xmlns="http://www.w3.org/2000/svg" viewBox="0 0 10.199 225.947"><g fill="#32375F"><path d="M1.229 193.199v2.97H.18v-7.2h1.05v2.97h8.79v1.261H1.229zM.18 183.449v-1.245h4.125v-4.575H.18v-1.26h9.84v1.26H5.385v4.575h4.635v1.245H.18zM.18 169.92v-5.67h1.05v4.425h3.09v-3.735h1.065v3.735h3.57V164.1h1.064v5.82H.18zM.18 151.484v-1.29l6.18-3.556 2.04-1.064v-.061c-.5.03-1.017.062-1.552.098s-1.062.053-1.583.053H.18v-1.186h9.84v1.29l-6.195 3.57-2.025 1.065v.06c.501-.04 1.008-.077 1.523-.112s1.032-.053 1.553-.053h5.145v1.186H.18zM.18 138.029v-5.67h1.05v4.425h3.09v-3.735h1.065v3.735h3.57v-4.575h1.064v5.82H.18zM.18 127.38v-1.29l5.355-1.035c.539-.09 1.069-.185 1.59-.285.52-.1 1.049-.195 1.59-.285v-.06a74.47 74.47 0 01-1.598-.345 90.617 90.617 0 00-1.582-.346L.18 122.369v-1.14l5.355-1.365c.52-.12 1.045-.239 1.574-.359.53-.12 1.064-.24 1.605-.36v-.06l-1.598-.271a92.52 92.52 0 01-1.582-.285l-5.355-1.035v-1.199l9.84 2.04v1.5l-5.925 1.484c-.38.09-.753.173-1.118.248l-1.117.232v.06c.381.08.753.163 1.117.248.365.085.738.167 1.118.247l5.925 1.455v1.485L.18 127.38zM.18 104.055v-5.67h1.05v4.425h3.33v-3.75h1.05v3.75h4.41v1.245H.18zM10.02 87.495l-4.154 2.37v1.785h4.154v1.245H.18V89.82c0-.5.047-.963.143-1.388.095-.425.252-.79.473-1.095a2.24 2.24 0 01.854-.713c.35-.169.78-.254 1.289-.254.77 0 1.385.2 1.846.6.459.4.774.936.944 1.605l4.29-2.49v1.41zM4.845 91.65V90c0-.77-.157-1.359-.473-1.77s-.792-.615-1.433-.615c-.65 0-1.105.205-1.365.615s-.39 1-.39 1.77v1.65h3.661zM7.02 76.08v3.585l3 .944v1.275l-9.84-3.33v-1.41l9.84-3.33v1.335l-3 .931zm-1.005.315l-1.5.465c-.55.181-1.098.351-1.643.511a170.5 170.5 0 01-1.673.479v.061a58.117 58.117 0 013.316.975l1.5.465v-2.956zM5.1 69.39c-.79 0-1.5-.112-2.13-.337a4.643 4.643 0 01-1.604-.945 4.151 4.151 0 01-1.014-1.433A4.572 4.572 0 010 64.86c0-.681.127-1.248.382-1.703s.532-.827.833-1.117l.795.705c-.26.25-.478.537-.652.862-.176.325-.263.737-.263 1.237s.093.95.277 1.351c.185.399.45.74.795 1.02.345.28.763.498 1.253.652.49.155 1.039.233 1.649.233.62 0 1.178-.072 1.673-.217a3.732 3.732 0 001.268-.631c.35-.274.62-.614.81-1.02.19-.405.285-.872.285-1.402 0-.35-.052-.683-.157-.998a2.196 2.196 0 00-.428-.772H5.955v2.085H4.92V61.92h4.14c.33.32.603.742.817 1.268s.322 1.117.322 1.777c0 .65-.115 1.245-.345 1.785s-.562 1.005-.997 1.395c-.436.391-.971.695-1.605.915-.635.22-1.352.33-2.152.33zM10.02 50.415l-4.154 2.37v1.785h4.154v1.245H.18V52.74c0-.5.047-.963.143-1.388.095-.425.252-.79.473-1.095a2.24 2.24 0 01.854-.713c.35-.169.78-.254 1.289-.254.77 0 1.385.2 1.846.6.459.4.774.936.944 1.605l4.29-2.49v1.41zM4.845 54.57v-1.65c0-.77-.157-1.359-.473-1.77s-.792-.615-1.433-.615c-.65 0-1.105.205-1.365.615s-.39 1-.39 1.77v1.65h3.661zM7.02 39v3.585l3 .944v1.275l-9.84-3.33v-1.41l9.84-3.33v1.335l-3 .931zm-1.005.314l-1.5.465c-.55.181-1.098.351-1.643.511a170.5 170.5 0 01-1.673.479v.061a58.117 58.117 0 013.316.975l1.5.465v-2.956zM.18 31.591v-1.29l6.18-3.556 2.04-1.064v-.061c-.5.03-1.017.062-1.552.098s-1.062.053-1.583.053H.18v-1.186h9.84v1.29l-6.195 3.57L1.8 30.51v.06c.501-.04 1.008-.077 1.523-.112s1.032-.053 1.553-.053h5.145v1.186H.18zM5.1 18.705c-.79 0-1.5-.109-2.13-.33-.63-.22-1.165-.524-1.604-.915a3.979 3.979 0 01-1.014-1.387A4.3 4.3 0 010 14.325c0-.6.122-1.125.367-1.575.245-.449.527-.819.848-1.109l.795.705c-.28.26-.503.547-.668.862a2.354 2.354 0 00-.247 1.103c0 .47.093.895.277 1.274.185.381.45.705.795.976.345.27.763.479 1.253.63s1.039.225 1.649.225c.62 0 1.178-.072 1.673-.217a4.038 4.038 0 001.268-.607 2.7 2.7 0 00.81-.953c.19-.375.285-.797.285-1.268 0-.479-.095-.897-.285-1.252a3.836 3.836 0 00-.81-1.013l.764-.706c.45.39.8.83 1.05 1.32.25.489.375 1.05.375 1.68 0 .62-.115 1.192-.345 1.718a3.878 3.878 0 01-.997 1.364c-.436.386-.971.686-1.605.9s-1.352.323-2.152.323zM.18 5.82V.15h1.05v4.425h3.09V.84h1.065v3.735h3.57V0h1.064v5.82H.18z"/></g><path fill="#32375F" d="M.046 215.974h9.974v9.974H.046z"/></svg>