<?xml version="1.0" encoding="utf-8"?>
<!-- Generator: Adobe Illustrator 16.0.0, SVG Export Plug-In . SVG Version: 6.00 Build 0)  -->
<!DOCTYPE svg PUBLIC "-//W3C//DTD SVG 1.1//EN" "http://www.w3.org/Graphics/SVG/1.1/DTD/svg11.dtd">
<svg version="1.1" id="Ebene_1" xmlns="http://www.w3.org/2000/svg" xmlns:xlink="http://www.w3.org/1999/xlink" x="0px" y="0px"
	 width="72.22px" height="72.219px" viewBox="0 0 72.22 72.219" enable-background="new 0 0 72.22 72.219" xml:space="preserve">
<circle fill="none" stroke="#FFFFFF" stroke-width="3" stroke-miterlimit="10" cx="36.11" cy="36.11" r="34.61"/>
<path fill="#FFFFFF" stroke="#FFFFFF" stroke-miterlimit="10" d="M47.248,25.473H26.354c-2.409,0-4.369,1.961-4.369,4.369v11.397
	c0,2.409,1.96,4.369,4.369,4.369h20.894c2.408,0,4.368-1.96,4.368-4.369V29.842C51.616,27.434,49.656,25.473,47.248,25.473z
	 M47.248,26.613c0.618,0,1.195,0.177,1.688,0.481c-0.059,0.054-0.123,0.11-0.192,0.168l-9.378,7.757
	c-0.678,0.56-1.588,0.868-2.564,0.868s-1.888-0.309-2.564-0.868l-9.378-7.757c-0.07-0.059-0.133-0.113-0.192-0.168
	c0.492-0.304,1.068-0.481,1.687-0.481H47.248z M50.477,41.239c0,1.78-1.449,3.229-3.229,3.229H26.354
	c-1.781,0-3.229-1.449-3.229-3.229V29.842c0-0.75,0.259-1.438,0.688-1.986c0.098,0.092,0.202,0.188,0.319,0.285l9.378,7.757
	c0.88,0.728,2.049,1.13,3.291,1.13s2.41-0.402,3.291-1.13l9.377-7.757c0.118-0.098,0.223-0.193,0.318-0.285
	c0.431,0.548,0.689,1.236,0.689,1.986V41.239z"/>
<line fill="none" stroke="#FFFFFF" stroke-width="2" stroke-miterlimit="10" x1="41.109" y1="34.109" x2="50.797" y2="42.974"/>
<line fill="none" stroke="#FFFFFF" stroke-width="2" stroke-miterlimit="10" x1="32.297" y1="34.005" x2="23.248" y2="42.974"/>
</svg>
