<svg xmlns="http://www.w3.org/2000/svg" viewBox="0 0 155.635 142.93"><path fill="none" stroke="#827F7F" stroke-width="6" stroke-miterlimit="10" d="M142.982 75.987c0 3.084-2.5 5.584-5.584 5.584H19.211a5.584 5.584 0 01-5.583-5.584V27.129c0-3.083 2.5-5.583 5.583-5.583h118.188c3.084 0 5.584 2.5 5.584 5.583v48.858z"/><path fill="#FFF" stroke="#827F7F" stroke-width="6" stroke-miterlimit="10" d="M20.956 87.696a2.791 2.791 0 01-2.792 2.792H9.091a2.791 2.791 0 01-2.792-2.792V53.03a2.792 2.792 0 012.792-2.792h9.074a2.793 2.793 0 012.792 2.792v34.666zM150.312 89.016a2.79 2.79 0 01-2.791 2.791h-9.074a2.79 2.79 0 01-2.791-2.791V54.35a2.792 2.792 0 012.791-2.792h9.074a2.791 2.791 0 012.791 2.792v34.666z"/><path fill="#FFF" stroke="#827F7F" stroke-width="6" stroke-miterlimit="10" d="M150.312 103.614a2.934 2.934 0 01-2.934 2.934H9.232a2.934 2.934 0 01-2.934-2.934v-19.11a2.934 2.934 0 012.934-2.934h138.146a2.934 2.934 0 012.934 2.934v19.11z"/><path fill="#FFF" stroke="#827F7F" stroke-width="6" stroke-miterlimit="10" d="M23.218 112.512a2.469 2.469 0 01-2.468 2.469h-2.674a2.468 2.468 0 01-2.468-2.469v-3.496a2.468 2.468 0 012.468-2.469h2.674a2.468 2.468 0 012.468 2.469v3.496zM142.982 114.51a2.47 2.47 0 01-2.469 2.469h-2.675a2.47 2.47 0 01-2.468-2.469v-3.496a2.469 2.469 0 012.468-2.469h2.675a2.468 2.468 0 012.469 2.469v3.496z"/></svg>