<svg xmlns="http://www.w3.org/2000/svg" viewBox="0 0 74.5 72.555"><path fill="#FFF" d="M71.617 61.609v3.437c0 1.899-2.578 3.437-5.728 3.437H8.611c-3.15 0-5.728-1.537-5.728-3.437v-3.437H71.617zm-59.57-8.019V28.388c0-3.15 2.578-5.728 5.729-5.728h38.949c3.15 0 5.728 2.578 5.728 5.728V53.59c0 3.152-2.577 5.729-5.728 5.729h-38.95c-3.15-.001-5.728-2.577-5.728-5.729zm4.582 0c0 .609.537 1.146 1.146 1.146h38.949c.608 0 1.146-.537 1.146-1.146V28.388c0-.608-.537-1.146-1.146-1.146H17.775c-.609 0-1.146.537-1.146 1.146V53.59zm24.058 10.882a.566.566 0 00-.572-.572h-5.728a.566.566 0 00-.573.572c0 .324.251.573.573.573h5.728a.563.563 0 00.572-.573z"/></svg>