<svg xmlns="http://www.w3.org/2000/svg" viewBox="0 0 77.164 78"><path fill="#FFF" d="M56.231 60.569H22.897c-7.567 0-13.727-6.158-13.727-13.727a13.692 13.692 0 017.906-12.409c-.031-.458-.063-.89-.063-1.317 0-8.671 7.016-15.687 15.688-15.687a15.71 15.71 0 0114.521 9.741 7.754 7.754 0 015.086-1.898c4.319 0 7.843 3.523 7.843 7.842a7.676 7.676 0 01-1.257 4.229c5.333 1.254 9.1 6.004 9.1 11.458.003 6.5-5.267 11.768-11.763 11.768zm-8.119-21.294L37.327 28.49a.973.973 0 00-.703-.274 1.03 1.03 0 00-.706.274L25.165 39.247c-.184.214-.306.458-.306.733a.97.97 0 00.98.983h6.863v10.784c0 .521.459.981.979.981h5.883c.522 0 .983-.461.983-.981V40.963h6.86a.988.988 0 00.982-.983 1.016 1.016 0 00-.277-.705z"/></svg>