<svg xmlns="http://www.w3.org/2000/svg" viewBox="0 0 78.422 78.209"><circle fill="#1BB8EA" cx="39.22" cy="39.104" r="33.701"/><circle fill="none" stroke="#1BB8EA" stroke-miterlimit="10" stroke-dasharray="8.1775,8.1775" cx="39.22" cy="39.104" r="36.451"/><path fill="#FFF" d="M50.189 52.17H29.991c-4.585 0-8.317-3.731-8.317-8.317a8.296 8.296 0 014.79-7.519c-.019-.278-.038-.539-.038-.798a9.5 9.5 0 019.506-9.505 9.521 9.521 0 018.799 5.903 4.7 4.7 0 013.081-1.151 4.762 4.762 0 014.753 4.752c0 .91-.26 1.801-.762 2.562a7.144 7.144 0 015.514 6.943 7.13 7.13 0 01-7.128 7.13zM45.27 39.268l-6.535-6.535a.59.59 0 00-.427-.167.62.62 0 00-.427.167l-6.516 6.517a.686.686 0 00-.186.445c0 .334.26.595.594.595h4.159v6.534c0 .315.278.595.594.595h3.564a.612.612 0 00.595-.595V40.29h4.158a.599.599 0 00.594-.595.618.618 0 00-.167-.427z"/></svg>