<svg version="1.1" id="Ebene_1" xmlns="http://www.w3.org/2000/svg" xmlns:xlink="http://www.w3.org/1999/xlink" x="0px" y="0px"
	 viewBox="0 0 51.513 14.876" enable-background="new 0 0 51.513 14.876" xml:space="preserve">
<g>
	<path fill="#060606" class="fill-accent" d="M46.216,3.719c-2.051,0-3.719,1.668-3.719,3.719c0,2.051,1.668,3.72,3.719,3.72s3.719-1.669,3.719-3.72
		C49.935,5.388,48.267,3.719,46.216,3.719z M46.216,9.298c-1.026,0-1.859-0.833-1.859-1.86c0-1.026,0.833-1.859,1.859-1.859
		c1.027,0,1.859,0.833,1.859,1.859C48.076,8.465,47.244,9.298,46.216,9.298z"/>
	<path fill="#060606" class="fill-accent" d="M50.199,11.381c-1.01,1.01-2.404,1.636-3.943,1.636c-3.076,0-5.579-2.503-5.579-5.579
		s2.503-5.578,5.579-5.578c1.539,0,2.934,0.625,3.943,1.635l1.314-1.314C50.166,0.834,48.306,0,46.255,0
		c-4.102,0-7.438,3.337-7.438,7.438c0,4.102,3.337,7.438,7.438,7.438c2.051,0,3.91-0.834,5.257-2.182L50.199,11.381z"/>
</g>
<g>
	<path fill="#060606" class="fill-accent" d="M18.235,11.158c2.052,0,3.72-1.67,3.72-3.719c0-2.051-1.668-3.72-3.72-3.72c-2.05,0-3.718,1.668-3.718,3.72
		C14.517,9.488,16.185,11.158,18.235,11.158z M18.235,5.579c1.027,0,1.86,0.833,1.86,1.86c0,1.026-0.833,1.858-1.86,1.858
		c-1.026,0-1.859-0.832-1.859-1.858C16.376,6.412,17.209,5.579,18.235,5.579z"/>
	<path fill="#060606" class="fill-accent" d="M14.253,3.496c1.011-1.011,2.405-1.636,3.942-1.636c3.077,0,5.579,2.503,5.579,5.58
		c0,3.075-2.502,5.578-5.579,5.578c-1.538,0-2.932-0.626-3.942-1.636l-1.314,1.313c1.347,1.348,3.206,2.182,5.257,2.182
		c4.102,0,7.439-3.337,7.439-7.438C25.635,3.337,22.298,0,18.196,0c-2.051,0-3.909,0.834-5.256,2.182L14.253,3.496z"/>
</g>
<g>
	<path fill="#060606" class="fill-accent" d="M33.277,3.719c-2.05,0-3.719,1.668-3.719,3.719c0,2.051,1.669,3.72,3.719,3.72
		c2.051,0,3.719-1.669,3.719-3.72C36.996,5.388,35.328,3.719,33.277,3.719z M33.277,9.298c-1.027,0-1.859-0.833-1.859-1.86
		c0-1.026,0.832-1.859,1.859-1.859c1.028,0,1.859,0.833,1.859,1.859C35.136,8.465,34.305,9.298,33.277,9.298z"/>
	<path fill="#060606" class="fill-accent" d="M37.259,11.381c-1.01,1.01-2.405,1.636-3.942,1.636c-3.077,0-5.579-2.503-5.579-5.579
		S30.24,1.86,33.317,1.86c1.537,0,2.933,0.625,3.942,1.635l1.315-1.314C37.227,0.834,35.368,0,33.317,0
		c-4.102,0-7.438,3.336-7.438,7.438c0,4.102,3.337,7.438,7.438,7.438c2.051,0,3.91-0.834,5.256-2.182L37.259,11.381z"/>
</g>
<g>
	<path fill="#060606" class="fill-accent" d="M5.296,11.158c2.051,0,3.72-1.67,3.72-3.719c0-2.052-1.668-3.719-3.72-3.719
		c-2.05,0-3.719,1.667-3.719,3.719C1.578,9.488,3.246,11.158,5.296,11.158z M5.296,5.578c1.028,0,1.86,0.833,1.86,1.861
		c0,1.026-0.833,1.858-1.86,1.858c-1.026,0-1.859-0.832-1.859-1.858C3.437,6.412,4.27,5.578,5.296,5.578z"/>
	<path fill="#060606" class="fill-accent" d="M1.314,3.496C2.325,2.485,3.719,1.86,5.257,1.86c3.077,0,5.58,2.502,5.58,5.579
		c0,3.075-2.503,5.578-5.58,5.578c-1.538,0-2.932-0.626-3.943-1.636L0,12.695c1.347,1.348,3.206,2.182,5.257,2.182
		c4.102,0,7.439-3.337,7.439-7.438C12.696,3.337,9.359,0,5.257,0c-2.051,0-3.91,0.834-5.256,2.182L1.314,3.496z"/>
</g>
</svg>
