<svg version="1.1" id="Ebene_1" xmlns="http://www.w3.org/2000/svg" xmlns:xlink="http://www.w3.org/1999/xlink" x="0px" y="0px"
	 viewBox="0 0 99.429 99.429" enable-background="new 0 0 99.429 99.429" xml:space="preserve">
<g>
	<path fill="#FFFFFF" d="M24.877,39.799c-0.806,0.806-1.208,1.861-1.208,2.916c0,1.056,0.402,2.111,1.207,2.917l21.922,21.922
		c0.773,0.773,1.822,1.208,2.916,1.208s2.144-0.435,2.916-1.208l21.923-21.922c1.611-1.611,1.611-4.222,0-5.833
		c-1.61-1.611-4.222-1.611-5.833,0L49.714,58.805L30.71,39.799C29.099,38.188,26.487,38.188,24.877,39.799z"/>
	<path fill="#FFFFFF" d="M0,49.714c0,27.412,22.302,49.715,49.714,49.715c27.413,0,49.715-22.303,49.715-49.715S77.127,0,49.714,0
		C22.302,0,0,22.302,0,49.714z M91.18,49.714c0,22.863-18.601,41.466-41.466,41.466c-22.863,0-41.465-18.603-41.465-41.466
		S26.851,8.25,49.714,8.25C72.579,8.25,91.18,26.851,91.18,49.714z"/>
</g>
</svg>
