<?xml version="1.0" encoding="utf-8"?>
<!-- Generator: Adobe Illustrator 27.4.1, SVG Export Plug-In . SVG Version: 6.00 Build 0)  -->
<svg version="1.1" id="Ebene_1" xmlns="http://www.w3.org/2000/svg" xmlns:xlink="http://www.w3.org/1999/xlink" x="0px" y="0px"
	 width="192.1px" height="174px" viewBox="0 0 192.1 174" style="enable-background:new 0 0 192.1 174;" xml:space="preserve">
<style type="text/css">
	.st0{fill:#223B4F;}
</style>
<g>
	<path class="st0" d="M188.4,114.3H3.7c-2,0-3.7-1.7-3.7-3.7s1.7-3.7,3.7-3.7h184.7c2,0,3.7,1.7,3.7,3.7S190.5,114.3,188.4,114.3z"
		/>
	<path class="st0" d="M177.3,142.2H14.6c-8.1,0-14.6-6.6-14.6-14.8V14.6C0,6.6,6.6,0,14.6,0h162.7c8,0,14.8,6.7,14.8,14.6v112.7
		C192.1,135.5,185.5,142.2,177.3,142.2z M14.6,7.4c-4,0-7.2,3.2-7.2,7.2v112.7c0,4.1,3.2,7.4,7.2,7.4h162.7c4.1,0,7.4-3.3,7.4-7.4
		V14.6c0-3.9-3.4-7.2-7.4-7.2H14.6z"/>
	<path class="st0" d="M127.1,174H65c-2,0-3.7-1.7-3.7-3.7c0-2.1,1.7-3.7,3.7-3.7h62.2c2,0,3.7,1.7,3.7,3.7
		C130.9,172.4,129.2,174,127.1,174z"/>
	<path class="st0" d="M75.2,174c-0.3,0-0.5,0-0.8-0.1c-2-0.5-3.2-2.4-2.8-4.4l7.2-31.8c0.5-2,2.4-3.3,4.4-2.8c2,0.5,3.2,2.4,2.8,4.4
		l-7.2,31.8C78.5,172.9,76.9,174,75.2,174z"/>
	<path class="st0" d="M116.9,174c-1.7,0-3.2-1.2-3.6-2.9l-7.4-31.8c-0.5-2,0.8-4,2.8-4.5c2-0.4,4,0.8,4.5,2.8l7.4,31.8
		c0.5,2-0.8,4-2.8,4.5C117.5,174,117.2,174,116.9,174z"/>
	<path class="st0" d="M96.2,128.2c-2,0-3.8-1.7-3.8-3.7s1.6-3.7,3.6-3.7h0.2c2,0,3.7,1.7,3.7,3.7S98.2,128.2,96.2,128.2z"/>
</g>
</svg>
