<svg version="1.1" id="Ebene_1" xmlns="http://www.w3.org/2000/svg" xmlns:xlink="http://www.w3.org/1999/xlink" x="0px" y="0px"
	 width="16px" height="16px" viewBox="0 0 16 16" enable-background="new 0 0 16 16" xml:space="preserve">
<circle fill="#ef4789" cx="8" cy="8" r="6.4"/>
<path fill="#FFFFFF" d="M11.942,6.614H9.756c-0.203,0-0.37-0.166-0.37-0.37V4.058c0-0.204-0.166-0.37-0.369-0.37H6.97
	c-0.204,0-0.369,0.166-0.368,0.37l0.01,2.187c0.001,0.204-0.165,0.37-0.368,0.37H4.058c-0.204,0-0.37,0.167-0.37,0.37v2.033
	c0,0.203,0.166,0.369,0.37,0.369h2.187c0.204,0,0.37,0.167,0.37,0.37v2.187c0,0.204,0.167,0.37,0.37,0.37h2.033
	c0.203,0,0.369-0.166,0.369-0.37V9.756c0-0.203,0.167-0.37,0.37-0.37h2.187c0.204,0,0.37-0.166,0.37-0.369V6.983
	C12.312,6.78,12.146,6.614,11.942,6.614L11.942,6.614z"/>
</svg>
