<?xml version="1.0" encoding="utf-8"?>
<!-- Generator: Adobe Illustrator 27.8.1, SVG Export Plug-In . SVG Version: 6.00 Build 0)  -->
<svg version="1.1" id="Ebene_1" xmlns="http://www.w3.org/2000/svg" xmlns:xlink="http://www.w3.org/1999/xlink" x="0px" y="0px"
	 viewBox="0 0 185.2 185.2" style="enable-background:new 0 0 185.2 185.2;" xml:space="preserve"
	>
<style type="text/css">
	.st0{fill:none;}
</style>
<path d="M154.8,117.5h-50l15.8-15.9l-8.6-8.6l-30.6,30.6l30.6,30.6l8.6-8.6l-15.8-15.9h50v49H167v-49
	C167,123,161.5,117.5,154.8,117.5z"/>
<path d="M140.7,51.9L97.8,9c-1.2-1.1-2.7-1.8-4.3-1.8H32.2C25.5,7.2,20,12.7,20,19.5v147c0,6.8,5.5,12.2,12.2,12.2h49v-12.2h-49
	v-147h49v36.8c0,6.8,5.5,12.2,12.2,12.2h36.8v12.2h12.2V56.2C142.5,54.6,141.9,53.1,140.7,51.9z M93.5,22l34.2,34.2H93.5V22z"/>
<rect id="_Transparent_Rectangle_" x="-4.5" y="-5" class="st0" width="196" height="196"/>
</svg>
