<svg xmlns="http://www.w3.org/2000/svg" viewBox="0 0 269.587 82.325"><g fill="#FFF"><path d="M77.8 4.162c1.749-1.448 3.739-2.171 5.971-2.171 2.231 0 3.348.453 3.348 1.357 0 .361-.271.904-.814 1.628-.484 1.086-2.745 5.188-6.786 12.304-10.555 18.455-15.831 30.758-15.831 36.91 0 .484.12.724.362.724.362 0 .964-.603 1.81-1.81 2.472-4.282 5.638-9.197 9.499-14.746 3.859-5.548 7.509-10.433 10.947-14.655 3.437-4.221 7.327-8.171 11.669-11.851 4.343-3.678 8.292-5.971 11.852-6.875 5.91-.964 9.739-1.447 11.489-1.447.181.061.271.197.271.407 0 .212-.332.498-.995.859-6.816 3.799-15.274 11.022-25.375 21.667C85.113 37.107 75.991 48.038 67.85 59.255c-2.171 3.678-3.861 5.971-5.066 6.876-1.207.904-2.654 1.356-4.342 1.356-3.137 0-4.704-3.317-4.704-9.951 0-2.895.572-5.849 1.719-8.865 4.221-11.277 8.172-19.36 11.851-24.245 2.05-3.015 3.076-4.673 3.076-4.976 0-.181-.362.181-1.085 1.086-15.02 18.878-25.635 31.242-31.846 37.091-4.282 4.463-9.137 9.046-14.565 13.75-5.428 4.705-9.77 7.931-13.027 9.681-1.024.844-2.11 1.267-3.257 1.267-1.145 0-2.533-.484-4.161-1.448C.814 79.911 0 78.796 0 77.529c0-.664.362-1.267 1.086-1.81l14.836-12.484c.905-.783 1.463-1.176 1.674-1.176.212 0 .316.106.316.316 0 .212-.09.498-.271.86-.181.362-.467.753-.86 1.176-.392.421-.798.814-1.221 1.176l-1.539 1.628c-1.868 1.869-2.804 2.909-2.804 3.121 0 .21.061.316.181.316.121 0 .423-.181.905-.542 5.79-3.98 14.144-11.474 25.059-22.481C48.278 36.623 57.747 26.627 65.768 17.64L77.8 4.162z"/><path d="M103.401 16.193c0-.904.602-1.688 1.81-2.352l10.584-4.162c.24-.12.588-.181 1.04-.181.453 0 .859.212 1.222.633.362.423.753.633 1.176.633.421 0 1.312-.166 2.669-.498 1.357-.331 3.18-.753 5.473-1.267a155.517 155.517 0 017.689-1.493c6.634-1.145 13.539-1.719 20.717-1.719 8.504 0 14.594.633 18.273 1.899 1.449.543 2.669 1.282 3.664 2.217.996.936 1.493 2.066 1.493 3.393 0 .784-.543 1.176-1.628 1.176-15.078.423-27.412 1.388-37.001 2.895-.966.122-1.447.452-1.447.995 0 .181.014.348.044.498.031.151-.197.498-.678 1.04L128.28 30.849c-.423.422-.634.739-.634.95 0 .212.075.316.227.316.149 0 .527-.059 1.131-.181 3.919-.241 7.538-.362 10.856-.362 3.315 0 5.215.181 5.699.542 2.652 1.99 4.207 3.288 4.659 3.89.452.604.678 1.085.678 1.448 0 .785-.665 1.267-1.99 1.447-15.922 1.569-24.517 2.338-25.783 2.307a148.966 148.966 0 00-2.443-.045c-.965 0-2.051.754-3.256 2.262l-11.037 14.655c-.302.483-.452.83-.452 1.041 0 .212.12.316.362.316.24 0 .602-.12 1.085-.362 5.668-.905 10.961-1.357 15.877-1.357 4.915 0 8.579.151 10.992.452 3.315 0 6.875 2.443 10.675 7.328.3.421.452.814.452 1.176s-.452.543-1.358.543c-15.017 0-26.446.301-34.286.905-.302.059-.694.09-1.176.09-2.594 0-4.374-.604-5.337-1.81-.181-.362-.484-.542-.905-.542s-.798.21-1.131.633c-.331.421-.588.634-.769.634s-.542-.181-1.086-.543c-.542-.362-1.1-.981-1.673-1.854-.572-.875-.859-1.81-.859-2.805s.196-1.914.588-2.759c.394-.844.905-1.929 1.538-3.256.633-1.326 2.051-3.603 4.252-6.831 2.201-3.226 4.508-5.985 6.921-8.277.301-.301.452-.588.452-.859s-.316-.407-.95-.407c-.633 0-1.267-.226-1.899-.679-.633-.452-.95-1.085-.95-1.9 0-.814 1.055-1.492 3.167-2.035l4.885-1.267h.09c.964 0 1.93-.633 2.895-1.9 6.996-6.814 11.277-10.614 12.846-11.398.543-.362.814-.647.814-.859 0-.211-.181-.317-.543-.317-.361 0-.664.031-.904.091-5.609.904-10.073 1.357-13.389 1.357-3.317 0-5.73-.15-7.237-.453-1.508-.301-2.624-.663-3.347-1.085-1.569-1.025-2.413-1.839-2.533-2.442l-.093-.454z"/><path d="M166.999 31.211c-.362 0-.542-.453-.542-1.357 0-.904.784-2.518 2.352-4.84 1.567-2.321 3.845-4.824 6.83-7.508 2.985-2.683 6.317-5.231 9.997-7.645 3.678-2.412 7.945-4.417 12.801-6.016 4.854-1.597 9.664-2.397 14.429-2.397.482.181 1.101.407 1.855.678.753.271 1.748.846 2.984 1.719 1.235.875 1.855 1.674 1.855 2.397s-.151 1.267-.453 1.628c-4.645 4.222-9.847 9.318-15.605 15.289-5.76 5.971-10.177 10.946-13.253 14.927l-6.514 8.504c-.361.543-.542.965-.542 1.267v.09l1.447-.724c.12-.06.211-.12.271-.181 22.013-15.5 36.759-26.476 44.237-32.93a.862.862 0 01.724-.362c.301 0 .512.09.633.271.12.181.693.739 1.72 1.673 1.024.936 1.538 1.628 1.538 2.081 0 .453-.182.83-.543 1.131-5.971 5.67-12.063 12.787-18.274 21.35-6.213 8.564-9.317 15.169-9.317 19.812 0 .543.271.814.813.814 1.206 0 4.04-1.629 8.504-4.885 4.463-3.257 9.544-7.387 15.243-12.394 5.699-5.005 11.729-11.141 18.094-18.41 6.362-7.267 11.564-14.339 15.605-21.214a51.738 51.738 0 001.266-2.85c.302-.752.769-1.129 1.402-1.129.634 0 1.296.891 1.99 2.669.692 1.78 1.041 3.333 1.041 4.659 0 2.111-2.413 6.332-7.237 12.665-4.826 6.333-10.464 12.877-16.917 19.631-6.454 6.755-13.299 12.771-20.536 18.048-7.237 5.277-12.937 7.916-17.098 7.916-1.99 0-3.967-.785-5.926-2.352-1.96-1.568-2.94-4.101-2.94-7.599 0-4.343 1.296-8.805 3.891-13.389a22.694 22.694 0 013.708-4.885l2.081-2.442.362-.724v-.091c0-.12-.031-.181-.091-.181-.181 0-.452.181-.814.543-13.449 11.821-22.557 19.676-27.32 23.566-4.765 3.89-7.569 5.835-8.413 5.835-.846 0-1.538-.423-2.081-1.267-.241-.301-.497-.618-.769-.95a77.934 77.934 0 01-.588-.724l-.362-.452c-.12-.15-.21-.256-.271-.317-.059-.301-.09-.753-.09-1.357 0-.602.211-1.477.633-2.624.421-1.145.829-2.246 1.222-3.302.391-1.055 1.522-3.287 3.392-6.695 1.869-3.406 4.1-6.844 6.694-10.313 2.594-3.467 6.393-7.704 11.399-12.71 5.005-5.005 10.614-9.83 16.826-14.475 1.146-.904 1.719-1.477 1.719-1.719 0-.24-.121-.362-.361-.362-4.523 0-12.048 3.017-22.571 9.047-10.525 6.031-16.962 10.946-19.314 14.746-.183.544-.455.816-.816.816z"/></g></svg>