<?xml version="1.0" encoding="UTF-8"?>
<svg width="600px" height="350px" viewBox="0 0 600 350" version="1.1" xmlns="http://www.w3.org/2000/svg" xmlns:xlink="http://www.w3.org/1999/xlink">
    <!-- Generator: Sketch 44.1 (41455) - http://www.bohemiancoding.com/sketch -->
    <title>backgroundimage02</title>
    <desc>Created with Sketch.</desc>
    <defs></defs>
    <g id="Backgroundimage/color" stroke="none" stroke-width="1" fill="none" fill-rule="evenodd">
        <g id="02">
            <rect id="Rectangle" fill="#545454" x="0" y="0" width="600" height="350"></rect>
            <g id="Group-2" transform="translate(211.647255, 151.000000)">
                <path d="M0,1.05764042 L4.80533425,1.05764042 C5.53798978,1.05764042 6.21676339,1.11160113 6.84167545,1.21952416 C7.46658751,1.32744719 8.01247952,1.51810835 8.47936784,1.79151337 C8.94625617,2.06491838 9.31257843,2.42465642 9.57834563,2.87073829 C9.84411283,3.31682015 9.97699444,3.8780115 9.97699444,4.55432916 C9.97699444,4.87090339 9.93030631,5.18747287 9.83692864,5.50404709 C9.74355098,5.82062132 9.60348658,6.11560651 9.41673125,6.38901153 C9.22997592,6.66241654 8.98576108,6.90703841 8.68407939,7.12288447 C8.38239771,7.33873054 8.03044102,7.49701528 7.62819877,7.59774344 L7.62819877,7.68408143 C8.63380439,7.87114802 9.39158869,8.23088606 9.90157439,8.76330635 C10.4115601,9.29572664 10.6665491,10.036787 10.6665491,10.9865097 C10.6665491,11.7059966 10.5264847,12.324746 10.2463517,12.8427766 C9.96621875,13.3608071 9.57834811,13.7888954 9.0827282,14.1270542 C8.58710829,14.465213 8.00889373,14.7170297 7.34806718,14.8825117 C6.68724063,15.0479936 5.97614446,15.1307334 5.21475735,15.1307334 L0,15.1307334 L0,1.05764042 Z M4.65449417,6.7343635 C5.43024707,6.7343635 5.99409605,6.57967614 6.34605802,6.27029679 C6.69801998,5.96091743 6.87399833,5.54002392 6.87399833,5.00760363 C6.87399833,4.47518334 6.69442859,4.09386102 6.33528373,3.86362521 C5.97613886,3.63338941 5.42306407,3.51827324 4.67604275,3.51827324 L3.16764186,3.51827324 L3.16764186,6.7343635 L4.65449417,6.7343635 Z M4.95617434,12.6701006 C6.69443548,12.6701006 7.56355302,12.0297668 7.56355302,10.7490802 C7.56355302,10.1303215 7.34806933,9.68064894 6.9170955,9.40004906 C6.48612166,9.11944917 5.83248781,8.97915134 4.95617434,8.97915134 L3.16764186,8.97915134 L3.16764186,12.6701006 L4.95617434,12.6701006 Z M12.3904359,12.1520726 C12.3904359,11.0296731 12.8645,10.1519122 13.8126424,9.5187638 C14.7607848,8.88561534 16.290719,8.46112445 18.4024908,8.24527839 C18.3737592,7.77041705 18.2301034,7.39269211 17.9715191,7.11209222 C17.7129348,6.83149234 17.296333,6.69119451 16.7217013,6.69119451 C16.2619958,6.69119451 15.8022973,6.77753164 15.3425919,6.95020849 C14.8828865,7.12288534 14.3944568,7.36031245 13.8772882,7.66249693 L12.7567618,5.56880059 C13.4463199,5.1514982 14.1681903,4.81334444 14.9223945,4.55432916 C15.6765987,4.29531389 16.4774797,4.16580819 17.3250616,4.16580819 C18.7041779,4.16580819 19.7564566,4.55792266 20.4819292,5.34216336 C21.2074018,6.12640405 21.5701327,7.34591602 21.5701327,9.00073584 L21.5701327,15.1307334 L18.9843026,15.1307334 L18.7472682,14.029924 L18.6826224,14.029924 C18.222917,14.4328366 17.7380787,14.7601982 17.228093,15.0120186 C16.7181073,15.263839 16.1614411,15.3897474 15.5580777,15.3897474 C15.0696407,15.3897474 14.6314905,15.3070076 14.2436141,15.1415256 C13.8557376,14.9760436 13.5253293,14.7458113 13.2523792,14.4508217 C12.9794291,14.1558321 12.7675368,13.8140809 12.616696,13.425558 C12.4658551,13.0370351 12.3904359,12.6125442 12.3904359,12.1520726 Z M15.4072376,11.9146431 C15.4072376,12.2599968 15.5185709,12.5154108 15.7412407,12.6808928 C15.9639105,12.8463748 16.2619963,12.9291145 16.6355069,12.9291145 C17.0090176,12.9291145 17.3250603,12.8499722 17.5836446,12.6916851 C17.8422289,12.5333979 18.1151749,12.3103604 18.4024908,12.0225656 L18.4024908,10.1447143 C17.2675931,10.3030014 16.484669,10.5332337 16.0536952,10.8354182 C15.6227213,11.1376027 15.4072376,11.4973407 15.4072376,11.9146431 Z M23.6603453,9.77777778 C23.6603453,8.88561405 23.8111839,8.09059298 24.1128656,7.3926907 C24.4145473,6.69478843 24.8203749,6.10841542 25.3303606,5.63355408 C25.8403463,5.15869274 26.4329265,4.79535732 27.1081188,4.54353691 C27.7833111,4.29171651 28.4872245,4.16580819 29.21988,4.16580819 C29.8807066,4.16580819 30.4768781,4.27732699 31.0084125,4.50036792 C31.5399469,4.72340885 31.9852799,5.02199143 32.3444247,5.3961246 L30.9006696,7.36031396 C30.3978668,6.94301157 29.9022543,6.7343635 29.4138173,6.7343635 C28.6380644,6.7343635 28.0275273,7.00776442 27.5821876,7.55457444 C27.136848,8.10138447 26.9141815,8.84244484 26.9141815,9.77777778 C26.9141815,10.7131107 27.1404394,11.4541711 27.5929619,12.0009811 C28.0454845,12.5477911 28.6165162,12.8211921 29.3060744,12.8211921 C29.6939508,12.8211921 30.0459075,12.7420497 30.361955,12.5837626 C30.6780025,12.4254755 30.9653141,12.2456064 31.2238984,12.0441501 L32.4952648,14.0515085 C31.9780962,14.5119801 31.4034731,14.8501338 30.7713781,15.0659799 C30.1392831,15.281826 29.528746,15.3897474 28.9397484,15.3897474 C28.1927271,15.3897474 27.4995879,15.263839 26.8603101,15.0120186 C26.2210322,14.7601982 25.664366,14.3968628 25.1902948,13.9220015 C24.7162236,13.4471401 24.3427185,12.8607671 24.0697684,12.1628649 C23.7968183,11.4649626 23.6603453,10.6699415 23.6603453,9.77777778 Z M34.3484431,0 L37.4298906,0 L37.4298906,8.67696836 L37.5160849,8.67696836 L40.8992126,4.42482217 L44.3469861,4.42482217 L40.5975324,8.82805985 L44.6271177,15.1307334 L41.2008928,15.1307334 L38.7874514,10.9649252 L37.4298906,12.4974246 L37.4298906,15.1307334 L34.3484431,15.1307334 L34.3484431,0 Z M47.8809539,16.4689723 C47.8809539,16.8718849 48.0964376,17.1776623 48.5274114,17.3863135 C48.9583852,17.5949647 49.5330084,17.6992887 50.2512981,17.6992887 C50.9695878,17.6992887 51.5585766,17.5733804 52.018282,17.32156 C52.4779874,17.0697396 52.7078367,16.7567675 52.7078367,16.3826343 C52.7078367,16.0516703 52.5677723,15.8286327 52.2876393,15.7135148 C52.0075063,15.5983969 51.6016787,15.5408389 51.0701443,15.5408389 L49.9711665,15.5408389 C49.5976559,15.5408389 49.2959787,15.5300467 49.066126,15.5084621 C48.8362733,15.4868775 48.6351552,15.4545011 48.4627656,15.4113319 C48.0748892,15.7566856 47.8809539,16.1092288 47.8809539,16.4689723 Z M45.2735752,16.9654157 C45.2735752,16.1020315 45.7835532,15.3825554 46.8035247,14.8069659 L46.8035247,14.7206279 C46.5162088,14.5335613 46.2791767,14.2961342 46.0924214,14.0083395 C45.9056661,13.7205447 45.8122898,13.3536119 45.8122898,12.90753 C45.8122898,12.5190071 45.9272144,12.1484769 46.1570671,11.7959284 C46.3869199,11.4433798 46.6742314,11.1447972 47.0190105,10.9001717 L47.0190105,10.8138337 C46.6454998,10.5548184 46.3115001,10.1842882 46.0170013,9.70223203 C45.7225026,9.22017583 45.5752554,8.66258186 45.5752554,8.02943341 C45.5752554,7.38189522 45.6973628,6.81710649 45.9415813,6.33505028 C46.1857998,5.85299407 46.5126167,5.45008747 46.9220419,5.12631837 C47.331467,4.80254928 47.8019397,4.56152479 48.3334741,4.40323767 C48.8650085,4.24495056 49.4180833,4.16580819 49.9927151,4.16580819 C50.6248101,4.16580819 51.1778849,4.25214532 51.6519561,4.42482217 L55.5522498,4.42482217 L55.5522498,6.7343635 L53.8499117,6.7343635 C53.9504722,6.89265062 54.0330743,7.09410392 54.0977204,7.33872946 C54.1623665,7.583355 54.194689,7.84956115 54.194689,8.1373559 C54.194689,8.75611461 54.0869472,9.2921243 53.8714602,9.74540103 C53.6559733,10.1986778 53.3578876,10.5728053 52.977194,10.8677949 C52.5965005,11.1627846 52.1511675,11.3822248 51.6411818,11.5261221 C51.1311961,11.6700195 50.5817127,11.7419671 49.9927151,11.7419671 C49.5761071,11.7419671 49.1451397,11.6700195 48.6998001,11.5261221 C48.5561421,11.64124 48.4555831,11.7563562 48.3981199,11.8714741 C48.3406567,11.986592 48.3119255,12.137682 48.3119255,12.3247486 C48.3119255,12.5981536 48.4304416,12.7996069 48.6674772,12.9291145 C48.9045128,13.0586222 49.324706,13.123375 49.9280694,13.123375 L51.6519561,13.123375 C52.9736092,13.123375 53.9827911,13.3356205 54.6795322,13.7601177 C55.3762732,14.184615 55.7246385,14.8789094 55.7246385,15.8430218 C55.7246385,16.4042216 55.5845741,16.918647 55.3044411,17.3863135 C55.0243081,17.8539799 54.6256633,18.2568865 54.1084947,18.5950454 C53.5913261,18.9332042 52.9664234,19.1994104 52.2337679,19.3936718 C51.5011123,19.5879333 50.6750915,19.6850625 49.7556807,19.6850625 C49.1235857,19.6850625 48.5381884,19.6311018 47.9994711,19.5231788 C47.4607538,19.4152558 46.9866897,19.2533737 46.5772645,19.0375276 C46.1678394,18.8216815 45.8482053,18.5410859 45.6183525,18.1957322 C45.3884998,17.8503785 45.2735752,17.4402771 45.2735752,16.9654157 Z M49.9927151,9.82094677 C50.4093232,9.82094677 50.7576884,9.67345418 51.0378214,9.37846456 C51.3179544,9.08347494 51.4580188,8.63380238 51.4580188,8.02943341 C51.4580188,7.46823364 51.3179544,7.04014537 51.0378214,6.74515575 C50.7576884,6.45016613 50.4093232,6.30267353 49.9927151,6.30267353 C49.5761071,6.30267353 49.2277418,6.44656875 48.9476088,6.7343635 C48.6674758,7.02215825 48.5274114,7.4538439 48.5274114,8.02943341 C48.5274114,8.63380238 48.6674758,9.08347494 48.9476088,9.37846456 C49.2277418,9.67345418 49.5761071,9.82094677 49.9927151,9.82094677 Z M57.4485252,4.42482217 L60.0343553,4.42482217 L60.2498411,6.30267353 L60.3360355,6.30267353 C60.7239119,5.56879692 61.1907932,5.02918986 61.7366934,4.68383615 C62.2825936,4.33848245 62.8284856,4.16580819 63.3743858,4.16580819 C63.6760675,4.16580819 63.9238738,4.18379509 64.117812,4.21976944 C64.3117502,4.25574378 64.4877286,4.30970449 64.6457523,4.38165318 L64.1285863,7.12288447 C63.9274652,7.06532552 63.7407126,7.02215696 63.5683231,6.99337748 C63.3959336,6.96459801 63.1948154,6.95020849 62.9649627,6.95020849 C62.5627205,6.95020849 62.1425273,7.0941037 61.7043706,7.38189845 C61.2662138,7.66969321 60.903483,8.18052123 60.6161671,8.91439784 L60.6161671,15.1307334 L57.4485252,15.1307334 L57.4485252,4.42482217 Z M65.1844669,9.77777778 C65.1844669,8.88561405 65.3281227,8.09059298 65.6154386,7.3926907 C65.9027545,6.69478843 66.2870337,6.10841542 66.7682878,5.63355408 C67.2495419,5.15869274 67.8062081,4.79535732 68.4383031,4.54353691 C69.0703981,4.29171651 69.7240319,4.16580819 70.3992243,4.16580819 C71.0744166,4.16580819 71.724459,4.29171651 72.3493711,4.54353691 C72.9742832,4.79535732 73.527358,5.15869274 74.0086121,5.63355408 C74.4898662,6.10841542 74.8741454,6.69478843 75.1614613,7.3926907 C75.4487772,8.09059298 75.592433,8.88561405 75.592433,9.77777778 C75.592433,10.6699415 75.4487772,11.4649626 75.1614613,12.1628649 C74.8741454,12.8607671 74.4898662,13.4471401 74.0086121,13.9220015 C73.527358,14.3968628 72.9742832,14.7601982 72.3493711,15.0120186 C71.724459,15.263839 71.0744166,15.3897474 70.3992243,15.3897474 C69.7240319,15.3897474 69.0703981,15.263839 68.4383031,15.0120186 C67.8062081,14.7601982 67.2495419,14.3968628 66.7682878,13.9220015 C66.2870337,13.4471401 65.9027545,12.8607671 65.6154386,12.1628649 C65.3281227,11.4649626 65.1844669,10.6699415 65.1844669,9.77777778 Z M68.4383031,9.77777778 C68.4383031,10.7131107 68.5999159,11.4541711 68.9231462,12.0009811 C69.2463766,12.5477911 69.7383977,12.8211921 70.3992243,12.8211921 C71.045685,12.8211921 71.5341147,12.5477911 71.864528,12.0009811 C72.1949412,11.4541711 72.3601454,10.7131107 72.3601454,9.77777778 C72.3601454,8.84244484 72.1949412,8.10138447 71.864528,7.55457444 C71.5341147,7.00776442 71.045685,6.7343635 70.3992243,6.7343635 C69.7383977,6.7343635 69.2463766,7.00776442 68.9231462,7.55457444 C68.5999159,8.10138447 68.4383031,8.84244484 68.4383031,9.77777778 Z M77.6610971,4.42482217 L80.828739,4.42482217 L80.828739,10.6627422 C80.828739,11.439788 80.9364808,11.9722003 81.1519677,12.2599951 C81.3674546,12.5477898 81.7050457,12.6916851 82.1647512,12.6916851 C82.5669934,12.6916851 82.9045845,12.5981532 83.1775346,12.4110866 C83.4504847,12.22402 83.7449791,11.92184 84.0610266,11.5045377 L84.0610266,4.42482217 L87.2286684,4.42482217 L87.2286684,15.1307334 L84.6428383,15.1307334 L84.4058039,13.641403 L84.3411582,13.641403 C83.8814527,14.188213 83.3894317,14.6163013 82.8650802,14.9256806 C82.3407287,15.23506 81.7122346,15.3897474 80.979579,15.3897474 C79.8159497,15.3897474 78.9719719,15.008425 78.4476204,14.2457689 C77.9232689,13.4831129 77.6610971,12.425483 77.6610971,11.0728477 L77.6610971,4.42482217 Z M90.0084358,4.42482217 L92.5942659,4.42482217 L92.8097517,5.78464557 L92.8959461,5.78464557 C93.3556515,5.35295345 93.8584467,4.9752285 94.4043469,4.65145941 C94.9502471,4.32769031 95.5895154,4.16580819 96.3221709,4.16580819 C97.4858003,4.16580819 98.3297781,4.54713052 98.8541296,5.30978661 C99.3784811,6.0724427 99.6406529,7.13007254 99.6406529,8.48270787 L99.6406529,15.1307334 L96.473011,15.1307334 L96.473011,8.89281334 C96.473011,8.11576752 96.3688606,7.58335521 96.1605565,7.29556046 C95.9522525,7.00776571 95.6182528,6.86387049 95.1585474,6.86387049 C94.7563051,6.86387049 94.4115312,6.953805 94.1242153,7.13367672 C93.8368995,7.31354844 93.5208567,7.56896245 93.1760776,7.89992642 L93.1760776,15.1307334 L90.0084358,15.1307334 L90.0084358,4.42482217 Z M101.773963,9.77777778 C101.773963,8.90000379 101.899662,8.11577485 102.151063,7.42506745 C102.402464,6.73436005 102.732873,6.14798704 103.142298,5.66593083 C103.551723,5.18387462 104.025787,4.81334444 104.564504,4.55432916 C105.103222,4.29531389 105.652705,4.16580819 106.212971,4.16580819 C106.816334,4.16580819 107.311947,4.26653484 107.699823,4.46799117 C108.0877,4.6694475 108.468388,4.94284841 108.841898,5.28820211 L108.712607,3.64778023 L108.712607,0 L111.880249,0 L111.880249,15.1307334 L109.294419,15.1307334 L109.078933,14.073093 L108.992738,14.073093 C108.619228,14.4472261 108.181078,14.7601982 107.678275,15.0120186 C107.175472,15.263839 106.665494,15.3897474 106.148325,15.3897474 C105.487499,15.3897474 104.887736,15.2602417 104.349018,15.0012264 C103.810301,14.7422111 103.350603,14.3716809 102.969909,13.8896247 C102.589216,13.4075685 102.294721,12.8211955 102.086417,12.1304881 C101.878113,11.4397807 101.773963,10.6555518 101.773963,9.77777778 Z M105.027799,9.73460878 C105.027799,10.7994494 105.196594,11.5764835 105.534191,12.0657346 C105.871787,12.5549857 106.349442,12.7996076 106.967171,12.7996076 C107.311951,12.7996076 107.624402,12.7276599 107.904535,12.5837626 C108.184668,12.4398652 108.454022,12.1880486 108.712607,11.8283051 L108.712607,7.44665195 C108.425291,7.18763667 108.130797,7.00776765 107.829115,6.90703949 C107.527433,6.80631133 107.232939,6.755948 106.945623,6.755948 C106.44282,6.755948 105.997487,6.99697249 105.609611,7.4790287 C105.221734,7.96108491 105.027799,8.71293741 105.027799,9.73460878 Z M119.422253,1.05764042 L122.589895,1.05764042 L122.589895,15.1307334 L119.422253,15.1307334 L119.422253,1.05764042 Z M125.649794,4.42482217 L128.235624,4.42482217 L128.45111,5.80623007 L128.537304,5.80623007 C128.982644,5.36014821 129.456708,4.9752285 129.959511,4.65145941 C130.462314,4.32769031 131.065668,4.16580819 131.769592,4.16580819 C132.530979,4.16580819 133.145107,4.32049555 133.611996,4.62987491 C134.078884,4.93925427 134.448798,5.38173206 134.721748,5.95732156 C135.195819,5.46807048 135.695023,5.04717697 136.219374,4.6946284 C136.743726,4.34207983 137.365037,4.16580819 138.083327,4.16580819 C139.23259,4.16580819 140.076568,4.5507279 140.615286,5.32057886 C141.154003,6.09042982 141.423357,7.14446228 141.423357,8.48270787 L141.423357,15.1307334 L138.255716,15.1307334 L138.255716,8.89281334 C138.255716,8.11576752 138.151565,7.58335521 137.943261,7.29556046 C137.734957,7.00776571 137.400957,6.86387049 136.941252,6.86387049 C136.409718,6.86387049 135.79918,7.20921901 135.109622,7.89992642 L135.109622,15.1307334 L131.94198,15.1307334 L131.94198,8.89281334 C131.94198,8.11576752 131.83783,7.58335521 131.629526,7.29556046 C131.421222,7.00776571 131.087222,6.86387049 130.627517,6.86387049 C130.081617,6.86387049 129.478262,7.20921901 128.817436,7.89992642 L128.817436,15.1307334 L125.649794,15.1307334 L125.649794,4.42482217 Z M143.729056,12.1520726 C143.729056,11.0296731 144.20312,10.1519122 145.151262,9.5187638 C146.099405,8.88561534 147.629339,8.46112445 149.741111,8.24527839 C149.712379,7.77041705 149.568724,7.39269211 149.310139,7.11209222 C149.051555,6.83149234 148.634953,6.69119451 148.060321,6.69119451 C147.600616,6.69119451 147.140917,6.77753164 146.681212,6.95020849 C146.221507,7.12288534 145.733077,7.36031245 145.215908,7.66249693 L144.095382,5.56880059 C144.78494,5.1514982 145.50681,4.81334444 146.261015,4.55432916 C147.015219,4.29531389 147.8161,4.16580819 148.663682,4.16580819 C150.042798,4.16580819 151.095077,4.55792266 151.820549,5.34216336 C152.546022,6.12640405 152.908753,7.34591602 152.908753,9.00073584 L152.908753,15.1307334 L150.322923,15.1307334 L150.085888,14.029924 L150.021242,14.029924 C149.561537,14.4328366 149.076699,14.7601982 148.566713,15.0120186 C148.056727,15.263839 147.500061,15.3897474 146.896698,15.3897474 C146.408261,15.3897474 145.970111,15.3070076 145.582234,15.1415256 C145.194358,14.9760436 144.863949,14.7458113 144.590999,14.4508217 C144.318049,14.1558321 144.106157,13.8140809 143.955316,13.425558 C143.804475,13.0370351 143.729056,12.6125442 143.729056,12.1520726 Z M146.745858,11.9146431 C146.745858,12.2599968 146.857191,12.5154108 147.079861,12.6808928 C147.302531,12.8463748 147.600616,12.9291145 147.974127,12.9291145 C148.347638,12.9291145 148.66368,12.8499722 148.922265,12.6916851 C149.180849,12.5333979 149.453795,12.3103604 149.741111,12.0225656 L149.741111,10.1447143 C148.606213,10.3030014 147.823289,10.5332337 147.392315,10.8354182 C146.961341,11.1376027 146.745858,11.4973407 146.745858,11.9146431 Z M157.563247,16.4689723 C157.563247,16.8718849 157.778731,17.1776623 158.209704,17.3863135 C158.640678,17.5949647 159.215301,17.6992887 159.933591,17.6992887 C160.651881,17.6992887 161.24087,17.5733804 161.700575,17.32156 C162.160281,17.0697396 162.39013,16.7567675 162.39013,16.3826343 C162.39013,16.0516703 162.250065,15.8286327 161.969932,15.7135148 C161.689799,15.5983969 161.283972,15.5408389 160.752437,15.5408389 L159.65346,15.5408389 C159.279949,15.5408389 158.978272,15.5300467 158.748419,15.5084621 C158.518566,15.4868775 158.317448,15.4545011 158.145059,15.4113319 C157.757182,15.7566856 157.563247,16.1092288 157.563247,16.4689723 Z M154.955868,16.9654157 C154.955868,16.1020315 155.465846,15.3825554 156.485818,14.8069659 L156.485818,14.7206279 C156.198502,14.5335613 155.96147,14.2961342 155.774714,14.0083395 C155.587959,13.7205447 155.494583,13.3536119 155.494583,12.90753 C155.494583,12.5190071 155.609507,12.1484769 155.83936,11.7959284 C156.069213,11.4433798 156.356524,11.1447972 156.701304,10.9001717 L156.701304,10.8138337 C156.327793,10.5548184 155.993793,10.1842882 155.699294,9.70223203 C155.404796,9.22017583 155.257548,8.66258186 155.257548,8.02943341 C155.257548,7.38189522 155.379656,6.81710649 155.623874,6.33505028 C155.868093,5.85299407 156.19491,5.45008747 156.604335,5.12631837 C157.01376,4.80254928 157.484233,4.56152479 158.015767,4.40323767 C158.547302,4.24495056 159.100376,4.16580819 159.675008,4.16580819 C160.307103,4.16580819 160.860178,4.25214532 161.334249,4.42482217 L165.234543,4.42482217 L165.234543,6.7343635 L163.532205,6.7343635 C163.632765,6.89265062 163.715367,7.09410392 163.780013,7.33872946 C163.84466,7.583355 163.876982,7.84956115 163.876982,8.1373559 C163.876982,8.75611461 163.76924,9.2921243 163.553753,9.74540103 C163.338266,10.1986778 163.040181,10.5728053 162.659487,10.8677949 C162.278794,11.1627846 161.833461,11.3822248 161.323475,11.5261221 C160.813489,11.6700195 160.264006,11.7419671 159.675008,11.7419671 C159.2584,11.7419671 158.827433,11.6700195 158.382093,11.5261221 C158.238435,11.64124 158.137876,11.7563562 158.080413,11.8714741 C158.02295,11.986592 157.994219,12.137682 157.994219,12.3247486 C157.994219,12.5981536 158.112735,12.7996069 158.34977,12.9291145 C158.586806,13.0586222 159.006999,13.123375 159.610362,13.123375 L161.334249,13.123375 C162.655902,13.123375 163.665084,13.3356205 164.361825,13.7601177 C165.058566,14.184615 165.406932,14.8789094 165.406932,15.8430218 C165.406932,16.4042216 165.266867,16.918647 164.986734,17.3863135 C164.706601,17.8539799 164.307956,18.2568865 163.790788,18.5950454 C163.273619,18.9332042 162.648716,19.1994104 161.916061,19.3936718 C161.183405,19.5879333 160.357385,19.6850625 159.437974,19.6850625 C158.805879,19.6850625 158.220481,19.6311018 157.681764,19.5231788 C157.143047,19.4152558 156.668983,19.2533737 156.259558,19.0375276 C155.850132,18.8216815 155.530498,18.5410859 155.300646,18.1957322 C155.070793,17.8503785 154.955868,17.4402771 154.955868,16.9654157 Z M159.675008,9.82094677 C160.091616,9.82094677 160.439982,9.67345418 160.720115,9.37846456 C161.000247,9.08347494 161.140312,8.63380238 161.140312,8.02943341 C161.140312,7.46823364 161.000247,7.04014537 160.720115,6.74515575 C160.439982,6.45016613 160.091616,6.30267353 159.675008,6.30267353 C159.2584,6.30267353 158.910035,6.44656875 158.629902,6.7343635 C158.349769,7.02215825 158.209704,7.4538439 158.209704,8.02943341 C158.209704,8.63380238 158.349769,9.08347494 158.629902,9.37846456 C158.910035,9.67345418 159.2584,9.82094677 159.675008,9.82094677 Z M166.118035,9.77777778 C166.118035,8.91439352 166.261691,8.13376197 166.549007,7.4358597 C166.836322,6.73795743 167.213419,6.14798704 167.680307,5.66593083 C168.147195,5.18387462 168.682313,4.81334444 169.285677,4.55432916 C169.88904,4.29531389 170.513943,4.16580819 171.160403,4.16580819 C171.921791,4.16580819 172.586199,4.29531389 173.153648,4.55432916 C173.721096,4.81334444 174.195161,5.17308248 174.575854,5.63355408 C174.956548,6.09402569 175.240268,6.63723013 175.427023,7.26318371 C175.613778,7.8891373 175.707155,8.5690422 175.707155,9.30291881 C175.707155,9.59071356 175.692789,9.85332234 175.664058,10.090753 C175.635326,10.3281837 175.606595,10.5116501 175.577863,10.6411577 L169.177934,10.6411577 C169.321592,11.4613728 169.641226,12.0549405 170.136846,12.4218788 C170.632466,12.7888171 171.239411,12.9722835 171.957701,12.9722835 C172.719088,12.9722835 173.487647,12.7348564 174.2634,12.2599951 L175.31928,14.1810155 C174.77338,14.5551486 174.166434,14.8501338 173.498425,15.0659799 C172.830415,15.281826 172.17319,15.3897474 171.526729,15.3897474 C170.765342,15.3897474 170.054246,15.263839 169.39342,15.0120186 C168.732593,14.7601982 168.15797,14.3932654 167.669533,13.9112092 C167.181096,13.429153 166.800408,12.84278 166.527458,12.1520726 C166.254508,11.4613652 166.118035,10.6699415 166.118035,9.77777778 Z M173.013582,8.67696836 C173.013582,8.05820964 172.877109,7.55457638 172.604159,7.16605347 C172.331209,6.77753056 171.87151,6.58327201 171.225049,6.58327201 C170.722246,6.58327201 170.280505,6.75234889 169.899811,7.09050773 C169.519118,7.42866656 169.271312,7.95748148 169.156385,8.67696836 L173.013582,8.67696836 Z" id="Background-Image" fill="#FFFFFF"></path>
                <path d="M28.452579,46.5 L148.252912,46.5" id="Line" stroke="#FFFFFF" stroke-width="7" stroke-linecap="square"></path>
            </g>
        </g>
    </g>
</svg>