<?xml version="1.0" encoding="UTF-8"?>
<svg width="600px" height="350px" viewBox="0 0 600 350" version="1.1" xmlns="http://www.w3.org/2000/svg" xmlns:xlink="http://www.w3.org/1999/xlink">
    <!-- Generator: Sketch 44.1 (41455) - http://www.bohemiancoding.com/sketch -->
    <title>backgroundimage01</title>
    <desc>Created with Sketch.</desc>
    <defs></defs>
    <g id="Backgroundimage/color" stroke="none" stroke-width="1" fill="none" fill-rule="evenodd">
        <g id="01">
            <rect id="Rectangle" fill="#545454" x="0" y="0" width="600" height="349.417637"></rect>
            <g id="Group" transform="translate(171.713810, 93.843594)">
                <path d="M65.9151414,128.428952 C65.3241235,127.640928 64.5607368,126.545099 63.6249584,125.141431 C57.1483869,124.501162 53.9101498,123.146766 53.9101498,121.078203 C53.9101498,120.610314 54.1502472,120.22862 54.6304493,119.933111 C55.1106513,119.637603 55.8432563,119.48985 56.8282862,119.48985 C59.2908609,119.48985 61.741086,121.053562 64.1790349,124.181032 C66.6416097,124.427289 69.43659,124.550416 72.5640599,124.550416 L72.9703827,124.550416 C76.1224783,122.654233 79.0528983,120.745767 81.7617304,118.824958 C82.8698891,116.805647 83.8302788,115.137278 84.6429285,113.8198 C85.4555781,112.502323 86.4405932,111.129458 87.5980033,109.701165 C89.8881978,106.795327 92.3014848,105.342429 94.8379368,105.342429 C95.5028319,105.342429 95.8352745,105.637934 95.8352745,106.228952 C95.8352745,107.657245 94.6532564,109.528774 92.2891847,111.843594 C89.925113,114.158414 86.7853773,116.645577 82.8698835,119.305158 C81.6878477,121.570727 80.8013341,123.220627 80.2103161,124.254908 C83.6579207,123.984025 86.1450839,123.565394 87.6718802,122.999002 L87.7826955,122.999002 C87.8811985,122.999002 87.9304493,123.066721 87.9304493,123.202163 C87.9304493,123.337605 87.8442604,123.528451 87.6718802,123.774709 C85.8249492,124.341101 83.1654084,124.784358 79.693178,125.104493 C78.3633877,127.394687 77.0767117,129.173871 75.8331115,130.442097 C74.5895113,131.710322 73.3397733,132.344426 72.0838602,132.344426 C70.064549,132.344426 68.1560822,131.223971 66.3584027,128.983028 C62.8369208,130.756082 59.7218105,132.110478 57.0129784,133.046256 C56.6435922,133.169385 56.2188044,133.230948 55.7386023,133.230948 C55.2584003,133.230948 55.0183028,133.046258 55.0183028,132.676872 C55.0183028,132.479866 55.1168043,132.301332 55.3138103,132.141265 C55.5108163,131.981197 55.7693828,131.901165 56.0895175,131.901165 C58.0595772,131.901165 61.3347525,130.743772 65.9151414,128.428952 Z M72.9703827,125.473877 C71.0988259,126.532784 69.2519226,127.530112 67.4296173,128.46589 C69.0795424,130.509827 70.5816904,131.53178 71.9361065,131.53178 C72.9457621,131.53178 73.9492463,130.990022 74.946589,129.906489 C75.9439318,128.822956 77.0459174,127.259245 78.252579,125.215308 C76.7504085,125.338437 74.989694,125.424625 72.9703827,125.473877 Z M93.8036606,106.228952 C92.104484,106.228952 90.3930203,107.361719 88.669218,109.627288 C87.2409246,111.548096 85.6772132,114.08451 83.9780366,117.236606 C87.0808807,114.946411 89.5680439,112.85941 91.4396007,110.975541 C93.3111574,109.091671 94.2469218,107.632617 94.2469218,106.598336 C94.2469218,106.352079 94.0991695,106.228952 93.8036606,106.228952 Z M55.6831947,120.930449 C55.6831947,122.334117 58.0595436,123.35607 62.8123128,123.996339 C60.8915045,121.435262 58.9584124,120.154742 57.0129784,120.154742 C56.1264515,120.154742 55.6831947,120.413309 55.6831947,120.930449 Z M66.9863561,127.911814 C68.5131524,127.099164 69.9783624,126.286527 71.38203,125.473877 L71.2342762,125.473877 C69.0918362,125.473877 67.0233045,125.400001 65.028619,125.252246 C65.9643974,126.557411 66.6169699,127.443924 66.9863561,127.911814 Z M80.7643927,120.708819 C79.4346023,121.595346 77.3660706,122.875865 74.5587354,124.550416 C76.454918,124.501164 77.8462518,124.439601 78.7327787,124.365724 C79.2006679,123.553074 79.8778658,122.334118 80.7643927,120.708819 Z M91.7905158,121.15208 C91.9259574,121.299834 91.9936772,121.50915 91.9936772,121.780033 C91.9936772,122.050916 91.8089869,122.395672 91.4396007,122.814309 C91.0702145,123.232947 90.7500845,123.442263 90.4792013,123.442263 C90.2083181,123.442263 90.0113151,123.36223 89.8881864,123.202163 C89.7650576,123.042096 89.7034942,122.857405 89.7034942,122.648087 C89.7034942,122.438768 89.9004972,122.100169 90.2945092,121.63228 C90.6885211,121.16439 91.0024947,120.930449 91.2364393,120.930449 C91.4703839,120.930449 91.6550742,121.004325 91.7905158,121.15208 Z M94.2838602,125.917138 C94.4808662,125.794009 94.6347748,125.732446 94.7455907,125.732446 C94.8564065,125.732446 94.9118136,125.806322 94.9118136,125.954077 L94.9118136,126.064892 C95.0103166,126.064892 94.3515878,126.60665 92.9356073,127.690183 C91.5196269,128.773716 90.0051661,129.857233 88.3921797,130.940765 C86.7791933,132.024298 85.7633964,132.566057 85.3447587,132.566057 C84.6306121,132.566057 84.2735441,132.270552 84.2735441,131.679534 C84.2735441,130.965387 84.8891785,129.617148 86.1204659,127.634775 C87.3517532,125.652403 88.2505795,124.661231 88.8169717,124.661231 C89.2356094,124.661231 89.4449251,124.821296 89.4449251,125.141431 C89.4449251,125.461566 88.8785414,126.335767 87.7457571,127.76406 C86.6129727,129.192353 86.046589,130.214306 86.046589,130.82995 C86.046589,131.174711 86.1758723,131.347088 86.4344426,131.347088 C86.6930129,131.347088 87.3394291,131.002333 88.3737105,130.312812 C90.2206415,129.081525 91.9197926,127.837943 93.4712146,126.58203 L94.2838602,125.917138 Z M94.3946755,125.658569 L94.3207987,125.252246 C94.3207987,125.129118 94.5793651,125.067554 95.0965058,125.067554 C95.3920148,125.067554 95.5397671,125.252244 95.5397671,125.621631 C95.5397671,125.991017 95.1149793,126.809811 94.265391,128.078037 C93.4158027,129.346263 92.991015,130.004991 92.991015,130.054243 C92.991015,130.103494 93.0402657,130.12812 93.1387687,130.12812 C93.2372717,130.12812 94.3761954,129.266232 96.555574,127.542429 C98.7349527,125.818627 100.046254,124.956739 100.489517,124.956739 C100.932781,124.956739 101.154409,125.110647 101.154409,125.418469 C101.154409,125.726291 101.031282,126.071046 100.785025,126.452745 C100.538767,126.834445 100.021635,127.523955 99.2336106,128.521298 C98.4455867,129.518641 98.0269553,130.054243 97.9777038,130.12812 C97.9284523,130.201997 97.903827,130.288186 97.903827,130.386689 C97.903827,130.485192 97.9838594,130.534443 98.1439268,130.534443 C98.3039941,130.534443 99.516794,129.69718 101.782363,128.022629 C104.047931,126.348078 105.340764,125.510815 105.660899,125.510815 C105.981033,125.510815 106.141098,125.646255 106.141098,125.917138 C106.141098,126.409653 105.59934,127.271541 104.515807,128.502829 C103.432274,129.734116 102.890516,130.515972 102.890516,130.848419 C102.890516,131.180867 103.019799,131.347088 103.278369,131.347088 C103.53694,131.347088 104.183356,131.002333 105.217637,130.312812 C107.064568,129.081525 108.763719,127.837943 110.315141,126.58203 L111.127787,125.917138 C111.324793,125.794009 111.491014,125.732446 111.626456,125.732446 C111.761898,125.732446 111.829617,125.806322 111.829617,125.954077 L111.829617,126.064892 C106.633585,130.399023 103.419973,132.566057 102.188686,132.566057 C101.474539,132.566057 101.117471,132.270552 101.117471,131.679534 C101.117471,131.187019 101.474539,130.460571 102.188686,129.500166 C102.902832,128.539762 103.2599,128.016473 103.2599,127.930283 C103.2599,127.844093 103.229118,127.800998 103.167554,127.800998 C103.10599,127.800998 102.096349,128.502822 100.138602,129.906489 C98.1808554,131.310157 97.0173063,132.01198 96.6479201,132.01198 C96.4755399,132.01198 96.3277876,131.94426 96.2046589,131.808819 C96.0815302,131.673377 96.0199667,131.531781 96.0199667,131.384027 C96.0199667,130.940763 96.5494123,130.041937 97.6083195,128.687521 C98.6672266,127.35773 99.1966722,126.631282 99.1966722,126.508153 C99.1966722,126.385024 99.1227961,126.323461 98.9750416,126.323461 C98.8026614,126.323461 97.0542596,127.677857 93.7297837,130.386689 L91.8828619,131.864226 C91.5627272,132.13511 91.3226298,132.270549 91.1625624,132.270549 C91.002495,132.270549 90.8485864,132.227455 90.7008319,132.141265 C90.5530775,132.055074 90.4792013,131.925791 90.4792013,131.753411 C90.4792013,131.581031 90.6946734,131.162399 91.125624,130.497504 C91.5565745,129.832609 92.1168019,129.019972 92.8063228,128.059567 C93.8652299,126.631274 94.3946755,125.830949 94.3946755,125.658569 Z M113.935108,128.909151 C115.31415,128.909151 116.96405,128.133452 118.884859,126.58203 L119.512812,126.766722 C117.099489,128.786033 115.018644,129.795674 113.270216,129.795674 C113.07321,129.795674 112.925458,129.783361 112.826955,129.758735 C112.16206,130.571385 111.435611,131.230114 110.647587,131.734942 C109.859563,132.23977 109.170053,132.49218 108.579035,132.49218 C107.643257,132.49218 107.175374,131.96889 107.175374,130.922296 C107.175374,129.875702 108.049575,128.478212 109.798003,126.729784 C109.502494,126.015637 109.354742,125.264563 109.354742,124.476539 C109.354742,123.688515 109.637934,123.048255 110.204326,122.55574 C110.770718,122.063225 111.429447,121.816972 112.180532,121.816972 C112.931618,121.816972 113.565721,122.063225 114.082862,122.55574 C114.600003,123.048255 114.858569,123.750079 114.858569,124.661231 C114.858569,126.064899 114.403,127.468545 113.491847,128.872213 C113.59035,128.896839 113.738102,128.909151 113.935108,128.909151 Z M112.753078,128.539767 C113.516476,127.259228 113.89817,126.169555 113.89817,125.270715 C113.89817,124.371876 113.676541,123.706991 113.233278,123.27604 C112.790014,122.845089 112.35907,122.629617 111.940433,122.629617 C111.078531,122.629617 110.647587,123.072874 110.647587,123.959401 C110.647587,124.845928 110.84459,125.726285 111.238602,126.600499 C111.632614,127.474713 112.137435,128.121129 112.753078,128.539767 Z M108.68985,130.719135 C108.68985,131.21165 109.00998,131.457903 109.65025,131.457903 C110.290519,131.457903 111.103156,130.805331 112.088186,129.500166 C111.423291,129.155406 110.832282,128.552084 110.315141,127.690183 C109.231609,128.872219 108.68985,129.881859 108.68985,130.719135 Z M134.620632,126.064892 C129.4246,130.399023 126.210988,132.566057 124.9797,132.566057 C124.265554,132.566057 123.908486,132.270552 123.908486,131.679534 C123.908486,131.088516 124.173209,130.386693 124.702662,129.574043 C125.232116,128.761394 125.761561,128.041101 126.291015,127.413145 C126.820469,126.785188 127.085191,126.409651 127.085191,126.286522 C127.085191,126.163394 127.048253,126.10183 126.974376,126.10183 C124.684182,127.628627 123.323629,128.564391 122.892679,128.909151 C122.461728,129.253912 121.759905,129.820296 120.787188,130.608319 C119.814471,131.396343 119.180368,131.888851 118.884859,132.085857 C118.58935,132.282863 118.26922,132.381364 117.924459,132.381364 C117.579699,132.381364 117.407321,132.233612 117.407321,131.938103 C117.407321,131.593343 118.096832,130.509826 119.475874,128.687521 C120.805664,126.865216 121.470549,125.843262 121.470549,125.621631 C121.470549,125.572379 121.427455,125.547754 121.341265,125.547754 C121.255074,125.547754 120.190027,126.298828 118.14609,127.800998 L117.998336,127.246922 C119.746764,125.843254 120.928782,124.944428 121.544426,124.550416 C122.16007,124.156404 122.658734,123.959401 123.040433,123.959401 C123.422132,123.959401 123.612978,124.144091 123.612978,124.513478 C123.612978,124.759735 122.917311,125.763219 121.525957,127.52396 C120.134602,129.284701 119.438935,130.232778 119.438935,130.36822 C119.438935,130.503661 119.48203,130.571381 119.56822,130.571381 C119.65441,130.571381 121.058056,129.58021 123.779201,127.597837 C126.500346,125.615464 128.156403,124.624293 128.747421,124.624293 C128.919801,124.624293 129.086022,124.692013 129.24609,124.827454 C129.406157,124.962896 129.48619,125.092179 129.48619,125.215308 C129.48619,125.510817 128.833617,126.489676 127.528453,128.151913 C126.223288,129.814151 125.570715,130.756072 125.570715,130.977704 C125.570715,131.199336 125.724624,131.31015 126.032446,131.31015 C126.340268,131.31015 126.998997,130.977707 128.008652,130.312812 C129.855583,129.10615 131.554734,127.862569 133.106156,126.58203 L133.918802,125.917138 C134.091182,125.794009 134.251247,125.732446 134.399002,125.732446 C134.546756,125.732446 134.620632,125.806322 134.620632,125.954077 L134.620632,126.064892 Z M153.902496,132.418303 C153.606987,132.418303 153.459235,132.245925 153.459235,131.901165 C153.459235,131.137767 154.758223,128.090376 157.35624,122.758902 C159.954256,117.427428 161.253245,114.343099 161.253245,113.505824 C161.253245,113.161063 161.068554,112.988686 160.699168,112.988686 C159.640261,112.988686 157.288537,114.601648 153.643927,117.827621 C151.969376,121.619986 149.666903,125.363043 146.736439,129.056905 C143.805975,132.750767 141.577379,134.597671 140.050582,134.597671 C139.533442,134.597671 139.274875,134.289853 139.274875,133.67421 C139.693513,131.87653 141.060221,129.623308 143.375042,126.914476 C145.689862,124.205644 148.398653,121.509165 151.501498,118.824958 C152.782036,115.894494 153.422296,113.604334 153.422296,111.954409 C153.422296,107.669529 150.405687,105.527121 144.372379,105.527121 C142.74708,105.527121 141.331121,105.662561 140.124459,105.933444 C137.809639,106.401333 136.553745,107.226284 136.356739,108.408319 C136.40599,109.787361 137.772699,110.784689 140.456905,111.400333 C141.58969,111.64659 142.722457,111.905157 143.855241,112.17604 C144.988026,112.446923 145.948415,112.865555 146.736439,113.431947 C147.524463,113.998339 147.918469,114.724788 147.918469,115.611314 C147.918469,115.80832 147.844593,116.073043 147.696839,116.405491 C147.549084,116.737938 147.37055,116.90416 147.161231,116.90416 C146.951912,116.90416 146.847255,116.781033 146.847255,116.534775 C146.847255,116.387021 146.902662,116.226956 147.013478,116.054576 C147.124293,115.882195 147.1797,115.746756 147.1797,115.648253 C147.1797,114.958732 145.726803,114.256909 142.820965,113.542762 C141.589678,113.247253 140.364565,112.908654 139.145591,112.526955 C137.926616,112.145256 136.89235,111.61581 136.042762,110.938602 C135.193174,110.261394 134.768386,109.516477 134.768386,108.703827 C134.768386,107.891177 135.168548,107.220136 135.968885,106.690682 C136.769222,106.161229 137.772706,105.773379 138.979368,105.527121 C141.318814,105.059232 143.387345,104.825291 145.185025,104.825291 C148.238618,104.825291 150.67653,105.440926 152.498835,106.672213 C154.321141,107.9035 155.23228,109.725778 155.23228,112.139101 C155.23228,113.24726 154.875212,114.737095 154.161065,116.608652 C158.12581,113.431931 160.662224,111.843594 161.770383,111.843594 C162.090517,111.843594 162.367553,111.966721 162.601498,112.212978 C162.835442,112.459236 162.952413,112.760897 162.952413,113.11797 C162.952413,113.475043 162.718472,114.281525 162.250582,115.537438 C161.782693,116.793351 160.717646,119.206638 159.055408,122.777371 C157.39317,126.348104 156.562063,128.15807 156.562063,128.207321 C156.562063,128.256573 156.599001,128.305823 156.672879,128.355075 C156.820633,128.355075 157.054574,128.133446 157.374709,127.690183 C159.763406,124.365707 163.346399,120.505679 168.123794,116.109983 C172.901189,111.714288 177.038252,108.753086 180.535108,107.22629 C181.249255,106.930781 181.791013,106.783028 182.160399,106.783028 C182.529786,106.783028 182.714476,106.912312 182.714476,107.170882 C182.714476,107.429452 182.554411,107.651081 182.234276,107.835774 C181.914141,108.020467 181.366227,108.377535 180.590516,108.906988 C179.814805,109.436442 179.303828,109.811979 179.057571,110.033611 C178.811313,110.255242 178.638936,110.366057 178.540433,110.366057 C178.44193,110.366057 178.380366,110.29218 178.35574,110.144426 C178.331115,109.996671 178.275708,109.922795 178.189517,109.922795 C178.103327,109.922795 177.961731,109.959733 177.764725,110.033611 C174.78501,111.437278 170.992702,114.355385 166.387687,118.78802 C161.536415,123.491538 158.113488,127.308471 156.118802,130.238935 C155.404655,131.273216 154.893679,131.895007 154.585857,132.104326 C154.278035,132.313645 154.05025,132.418303 153.902496,132.418303 Z M141.04792,133.267887 C141.959073,133.267887 143.405814,131.944273 145.388186,129.297005 C147.370559,126.649737 149.149743,123.737786 150.72579,120.561065 C147.992332,123.19602 145.659078,125.695496 143.725957,128.059567 C141.792836,130.423639 140.82629,132.085852 140.82629,133.046256 C140.82629,133.194011 140.900166,133.267887 141.04792,133.267887 Z M176.176373,125.954077 C176.348753,125.830948 176.508818,125.769384 176.656572,125.769384 C176.804327,125.769384 176.878203,125.855573 176.878203,126.027953 L176.878203,126.10183 C174.317125,128.219645 172.18703,129.807981 170.487854,130.866889 C168.788677,131.925796 167.249591,132.455241 165.870549,132.455241 C164.76239,132.455241 164.208319,131.913483 164.208319,130.82995 C164.208319,129.229277 165.020957,127.585533 166.646256,125.898669 C168.271556,124.211805 169.638264,123.368386 170.746423,123.368386 C171.362066,123.368386 171.669884,123.713141 171.669884,124.402662 C171.546755,125.757078 169.60135,127.579356 165.833611,129.869551 L165.833611,130.238935 C165.833611,131.051585 166.258398,131.457903 167.107987,131.457903 C167.957575,131.457903 168.87487,131.174712 169.8599,130.608319 C171.780708,129.475535 173.578361,128.182703 175.252912,126.729784 L176.176373,125.954077 Z M169.786023,124.513478 C169.244257,124.513478 168.54859,124.969047 167.699002,125.8802 C166.849413,126.791352 166.276873,127.825618 165.981364,128.983028 C167.1634,128.268882 168.160728,127.511651 168.973378,126.711314 C169.786027,125.910978 170.192346,125.344594 170.192346,125.012146 C170.192346,124.679699 170.056907,124.513478 169.786023,124.513478 Z M184.635275,126.10183 L185.484859,126.10183 C183.194664,128.170393 180.929129,129.352411 178.688186,129.64792 C178.14642,130.435944 177.512316,131.113142 176.785857,131.679534 C176.059397,132.245926 175.449919,132.529118 174.957404,132.529118 C174.366386,132.529118 174.070882,132.184363 174.070882,131.494842 C174.070882,130.805321 174.378699,129.820306 174.994343,128.539767 C173.91081,127.579363 173.369052,126.508159 173.369052,125.326123 C173.369052,124.685854 173.59068,124.168721 174.033943,123.774709 C174.477207,123.380697 175.105154,123.183694 175.917804,123.183694 C176.730453,123.183694 177.383026,123.306821 177.875541,123.553078 C180.288864,119.809965 183.059219,115.857592 186.186689,111.69584 L187.775042,109.590349 C188.021299,109.319466 188.267553,109.184027 188.51381,109.184027 C188.883197,109.184027 189.092512,109.368717 189.141764,109.738103 L189.141764,109.996672 C189.141764,110.045924 189.0802,110.156738 188.957072,110.329118 C184.105799,116.707187 180.71981,121.312132 178.799002,124.144093 C179.439271,124.784363 179.759401,125.535437 179.759401,126.397338 C179.759401,127.259239 179.550085,128.108814 179.131448,128.94609 C180.805998,128.749084 182.640589,127.801007 184.635275,126.10183 Z M174.477205,125.4 C174.477205,126.138772 174.809647,126.865221 175.474542,127.579368 C175.942432,126.717467 176.61963,125.584699 177.506156,124.181032 C177.161396,123.984026 176.779703,123.885524 176.361065,123.885524 C175.105152,123.885524 174.477205,124.390344 174.477205,125.4 Z M176.324126,128.281198 C176.915144,128.650584 177.518466,128.872213 178.13411,128.94609 C178.577373,128.158066 178.799002,127.431617 178.799002,126.766722 C178.799002,126.101827 178.626624,125.498505 178.281864,124.956739 C177.444588,126.188026 176.792016,127.296168 176.324126,128.281198 Z M176.176373,130.903827 C176.59501,130.903827 177.099831,130.497508 177.690849,129.684859 C177.099831,129.684859 176.508822,129.524794 175.917804,129.204659 C175.794675,129.623297 175.733111,129.931114 175.733111,130.12812 C175.733111,130.64526 175.880864,130.903827 176.176373,130.903827 Z M194.276206,125.954077 C194.448587,125.830948 194.608652,125.769384 194.756406,125.769384 C194.90416,125.769384 194.978037,125.855573 194.978037,126.027953 L194.978037,126.10183 C192.416959,128.219645 190.286864,129.807981 188.587687,130.866889 C186.888511,131.925796 185.349425,132.455241 183.970383,132.455241 C182.862224,132.455241 182.308153,131.913483 182.308153,130.82995 C182.308153,129.229277 183.120791,127.585533 184.74609,125.898669 C186.371389,124.211805 187.738098,123.368386 188.846256,123.368386 C189.4619,123.368386 189.769717,123.713141 189.769717,124.402662 C189.646588,125.757078 187.701184,127.579356 183.933444,129.869551 L183.933444,130.238935 C183.933444,131.051585 184.358232,131.457903 185.20782,131.457903 C186.057409,131.457903 186.974704,131.174712 187.959734,130.608319 C189.880542,129.475535 191.678195,128.182703 193.352745,126.729784 L194.276206,125.954077 Z M187.885857,124.513478 C187.34409,124.513478 186.648424,124.969047 185.798835,125.8802 C184.949247,126.791352 184.376707,127.825618 184.081198,128.983028 C185.263234,128.268882 186.260562,127.511651 187.073211,126.711314 C187.885861,125.910978 188.29218,125.344594 188.29218,125.012146 C188.29218,124.679699 188.15674,124.513478 187.885857,124.513478 Z M202.476539,125.954077 C202.648919,125.830948 202.808984,125.769384 202.956739,125.769384 C203.104493,125.769384 203.178369,125.855573 203.178369,126.027953 L203.178369,126.10183 C201.331438,127.579375 199.50916,128.964553 197.711481,130.257404 C195.913801,131.550256 194.596344,132.196672 193.759068,132.196672 C193.143425,132.196672 192.835607,131.86423 192.835607,131.199334 C192.835607,130.534439 193.131112,129.869554 193.72213,129.204659 C194.313148,128.539764 194.898,127.961067 195.476705,127.468552 C196.055411,126.976037 196.344759,126.649751 196.344759,126.489684 C196.344759,126.329617 196.252414,126.144926 196.06772,125.935607 C195.883027,125.726288 195.729119,125.584693 195.60599,125.510815 C195.187352,125.929453 194.276213,126.69284 192.872546,127.800998 L192.724792,127.246922 C194.276214,126.015634 195.17504,125.190684 195.421298,124.772047 L195.421298,124.439601 C195.421298,123.823957 195.482861,123.405326 195.60599,123.183694 C195.729119,122.962062 196.024623,122.654245 196.492512,122.260233 C196.960402,121.866221 197.280532,121.669218 197.452912,121.669218 C197.625292,121.669218 197.779201,121.730781 197.914642,121.85391 C198.050084,121.977039 198.117804,122.100166 198.117804,122.223295 C198.117804,122.346423 198.074709,122.488019 197.988519,122.648087 C197.902329,122.808154 197.81614,122.943593 197.72995,123.054409 C197.64376,123.165225 197.526789,123.300665 197.379035,123.460732 C197.23128,123.620799 197.138935,123.731614 197.101997,123.793178 C197.065058,123.854742 197.02812,123.9594 196.991181,124.107155 C196.954243,124.254909 196.87421,124.378036 196.751082,124.476539 C196.627953,124.575042 196.566389,124.698169 196.566389,124.845923 C196.566389,124.993678 196.664891,125.319964 196.861897,125.824792 C197.058903,126.32962 197.157404,126.699 197.157404,126.932945 C197.157404,127.16689 196.701835,127.720961 195.790682,128.595175 C194.87953,129.469389 194.42396,130.177368 194.42396,130.719135 C194.42396,131.014644 194.5594,131.162396 194.830283,131.162396 C195.175043,131.162396 195.815303,130.854579 196.751082,130.238935 L197.194343,129.943428 C198.795016,128.835269 200.297164,127.714814 201.700832,126.58203 L202.476539,125.954077 Z" id="Simon-Weber" fill="#FFFFFF"></path>
                <path d="M62.8951747,0.782695507 L66.4572379,0.782695507 C67.0003355,0.782695507 67.5034919,0.822628552 67.9667221,0.90249584 C68.4299524,0.982363128 68.8346073,1.12345989 69.1806988,1.32579035 C69.5267904,1.52812081 69.7983351,1.79434111 69.9953411,2.12445923 C70.1923471,2.45457736 70.2908486,2.86988102 70.2908486,3.3703827 C70.2908486,3.60466007 70.2562399,3.83893394 70.1870216,4.07321131 C70.1178033,4.30748869 70.0139774,4.52578934 69.8755408,4.7281198 C69.7371041,4.93045026 69.5560743,5.11148007 69.3324459,5.27121464 C69.1088175,5.43094922 68.8479216,5.54808615 68.5497504,5.62262895 L68.5497504,5.68652246 C69.2951784,5.82495909 69.8569033,6.09117939 70.2349418,6.48519135 C70.6129803,6.8792033 70.8019967,7.42761712 70.8019967,8.13044925 C70.8019967,8.66289784 70.6981708,9.12079675 70.4905158,9.50415973 C70.2828609,9.88752272 69.9953429,10.2043249 69.6279534,10.4545757 C69.2605639,10.7048265 68.8319492,10.8911808 68.3420965,11.0136439 C67.8522438,11.1361071 67.3251276,11.1973378 66.7607321,11.1973378 L62.8951747,11.1973378 L62.8951747,0.782695507 Z M66.3454243,4.98369384 C66.9204688,4.98369384 67.3384346,4.86921911 67.5993344,4.64026622 C67.8602342,4.41131333 67.9906822,4.09983558 67.9906822,3.70582363 C67.9906822,3.31181167 67.857572,3.02961816 67.5913478,2.85923461 C67.3251235,2.68885106 66.9151442,2.60366057 66.3613977,2.60366057 L65.2432612,2.60366057 L65.2432612,4.98369384 L66.3454243,4.98369384 Z M66.5690516,9.37637271 C67.8575772,9.37637271 68.5018303,8.90250058 68.5018303,7.9547421 C68.5018303,7.49683631 68.3420981,7.16406094 68.022629,6.95640599 C67.7031598,6.74875104 67.2186389,6.64492512 66.5690516,6.64492512 L65.2432612,6.64492512 L65.2432612,9.37637271 L66.5690516,9.37637271 Z M72.0798669,8.99301165 C72.0798669,8.16239185 72.4312777,7.51281432 73.1341098,7.04425957 C73.836942,6.57570481 74.9710404,6.26156486 76.5364393,6.10183028 C76.5151413,5.75041422 76.4086532,5.4708829 76.2169717,5.26322795 C76.0252902,5.055573 75.7164747,4.95174709 75.2905158,4.95174709 C74.9497487,4.95174709 74.6089867,5.01563996 74.2682196,5.14342762 C73.9274525,5.27121528 73.5653929,5.44692068 73.18203,5.67054908 L72.3514143,4.12113145 C72.862565,3.81231127 73.3976678,3.56206419 73.9567388,3.3703827 C74.5158098,3.1787012 75.1094811,3.0828619 75.7377704,3.0828619 C76.7600717,3.0828619 77.5400971,3.37304202 78.0778702,3.95341098 C78.6156433,4.53377994 78.8845258,5.43626676 78.8845258,6.6608985 L78.8845258,11.1973378 L76.9677205,11.1973378 L76.7920133,10.3826955 L76.7440932,10.3826955 C76.4033261,10.6808667 76.0439287,10.9231272 75.6658902,11.1094842 C75.2878517,11.2958412 74.8752102,11.3890183 74.4279534,11.3890183 C74.0658884,11.3890183 73.7410996,11.3277876 73.4535774,11.2053245 C73.1660551,11.0828613 72.9211325,10.9124803 72.718802,10.6941764 C72.5164715,10.4758725 72.3594016,10.2229632 72.2475874,9.93544093 C72.1357732,9.6479187 72.0798669,9.33377874 72.0798669,8.99301165 Z M74.3161398,8.81730449 C74.3161398,9.07287981 74.3986681,9.26189623 74.5637271,9.3843594 C74.7287862,9.50682258 74.949749,9.56805324 75.2266223,9.56805324 C75.5034956,9.56805324 75.7377694,9.50948478 75.9294509,9.39234609 C76.1211324,9.2752074 76.3234598,9.11015082 76.5364393,8.89717138 L76.5364393,7.50748752 C75.6951705,7.62462621 75.1148102,7.7950072 74.7953411,8.01863561 C74.4758719,8.24226401 74.3161398,8.50848431 74.3161398,8.81730449 Z M80.4339434,7.2359401 C80.4339434,6.57570385 80.545756,5.98735699 80.7693844,5.47088186 C80.9930128,4.95440674 81.2938417,4.52046765 81.6718802,4.16905158 C82.0499187,3.81763551 82.4891822,3.54875301 82.9896839,3.36239601 C83.4901855,3.176039 84.0119773,3.0828619 84.5550749,3.0828619 C85.0449276,3.0828619 85.4868533,3.16539019 85.8808652,3.33044925 C86.2748772,3.49550831 86.6049903,3.71647116 86.8712146,3.99334443 L85.8009983,5.4469218 C85.4282843,5.13810162 85.0609003,4.98369384 84.6988353,4.98369384 C84.1237908,4.98369384 83.6712163,5.18602127 83.3410982,5.5906822 C83.01098,5.99534312 82.8459235,6.54375694 82.8459235,7.2359401 C82.8459235,7.92812326 83.0136422,8.47653708 83.3490849,8.881198 C83.6845275,9.28585893 84.1078177,9.48818636 84.6189684,9.48818636 C84.9064906,9.48818636 85.1673865,9.42961789 85.4016639,9.3124792 C85.6359413,9.19534051 85.8489175,9.06223036 86.040599,8.91314476 L86.9830283,10.3986689 C86.5996653,10.739436 86.1737128,10.9896831 85.7051581,11.1494176 C85.2366033,11.3091522 84.7840288,11.3890183 84.347421,11.3890183 C83.7936744,11.3890183 83.2798693,11.2958412 82.80599,11.1094842 C82.3321108,10.9231272 81.9194693,10.6542447 81.5680532,10.3028286 C81.2166372,9.95141255 80.9397681,9.51747346 80.7374376,9.00099834 C80.5351071,8.48452321 80.4339434,7.89617635 80.4339434,7.2359401 Z M88.3567388,0 L90.6409318,0 L90.6409318,6.42129784 L90.7048253,6.42129784 L93.2126456,3.27454243 L95.768386,3.27454243 L92.9890183,6.53311148 L95.9760399,11.1973378 L93.4362729,11.1973378 L91.6472546,8.11447587 L90.6409318,9.24858569 L90.6409318,11.1973378 L88.3567388,11.1973378 L88.3567388,0 Z M98.38802,12.1876872 C98.38802,12.4858584 98.5477521,12.7121457 98.8672213,12.8665557 C99.1866904,13.0209658 99.6126429,13.0981697 100.145092,13.0981697 C100.67754,13.0981697 101.114141,13.0049926 101.454908,12.8186356 C101.795676,12.6322786 101.966057,12.4006669 101.966057,12.1237937 C101.966057,11.8788673 101.862231,11.7138107 101.654576,11.628619 C101.446921,11.5434272 101.146092,11.5008319 100.75208,11.5008319 L99.9374376,11.5008319 C99.6605643,11.5008319 99.4369393,11.4928453 99.2665557,11.4768719 C99.0961722,11.4608984 98.9470888,11.4369386 98.8193012,11.4049917 C98.5317789,11.660567 98.38802,11.9214629 98.38802,12.1876872 Z M96.4552413,12.5550749 C96.4552413,11.9161366 96.8332741,11.383696 97.5893511,10.9577371 L97.5893511,10.8938436 C97.3763716,10.755407 97.2006662,10.5797016 97.0622296,10.3667221 C96.923793,10.1537427 96.8545757,9.88219799 96.8545757,9.55207987 C96.8545757,9.26455763 96.9397662,8.99035072 97.1101498,8.72945092 C97.2805333,8.46855111 97.4935095,8.24758826 97.7490849,8.06655574 L97.7490849,8.00266223 C97.4722116,7.81098074 97.2246267,7.53677383 97.0063228,7.18003328 C96.7880189,6.82329273 96.6788686,6.41065126 96.6788686,5.94209651 C96.6788686,5.46289278 96.7693835,5.04492691 96.950416,4.68818636 C97.1314485,4.3314458 97.373709,4.03327907 97.6772047,3.7936772 C97.9807004,3.55407534 98.3294489,3.37570774 98.7234609,3.25856905 C99.1174729,3.14143036 99.5274521,3.0828619 99.953411,3.0828619 C100.421966,3.0828619 100.831945,3.14675477 101.183361,3.27454243 L104.074542,3.27454243 L104.074542,4.98369384 L102.812646,4.98369384 C102.887188,5.10083253 102.948419,5.2499159 102.996339,5.43094842 C103.04426,5.61198094 103.06822,5.80898396 103.06822,6.02196339 C103.06822,6.47986918 102.988354,6.87653742 102.828619,7.21198003 C102.668884,7.54742264 102.447922,7.82429175 102.165724,8.04259567 C101.883526,8.26089959 101.553413,8.42329398 101.175374,8.52978369 C100.797336,8.63627341 100.390019,8.68951747 99.953411,8.68951747 C99.6445908,8.68951747 99.3251264,8.63627341 98.9950083,8.52978369 C98.8885186,8.61497547 98.8139769,8.70016596 98.771381,8.78535774 C98.7287851,8.87054951 98.7074875,8.98236204 98.7074875,9.12079867 C98.7074875,9.32312913 98.7953402,9.4722125 98.9710483,9.56805324 C99.1467563,9.66389399 99.458234,9.71181364 99.9054908,9.71181364 L101.183361,9.71181364 C102.163066,9.71181364 102.911146,9.86888362 103.427621,10.1830283 C103.944096,10.497173 104.202329,11.0109781 104.202329,11.7244592 C104.202329,12.1397691 104.098504,12.5204642 103.890849,12.8665557 C103.683194,13.2126473 103.387689,13.5108141 103.004326,13.7610649 C102.620963,14.0113157 102.15774,14.2083187 101.614642,14.3520799 C101.071545,14.495841 100.459238,14.5677205 99.7777038,14.5677205 C99.3091491,14.5677205 98.87521,14.5277874 98.4758735,14.4479201 C98.0765371,14.3680528 97.7251263,14.2482537 97.4216306,14.0885191 C97.1181349,13.9287846 96.8811989,13.7211327 96.7108153,13.4655574 C96.5404318,13.2099821 96.4552413,12.9064909 96.4552413,12.5550749 Z M99.953411,7.26788686 C100.262231,7.26788686 100.520465,7.15873653 100.72812,6.94043261 C100.935775,6.72212869 101.039601,6.38935332 101.039601,5.94209651 C101.039601,5.52678661 100.935775,5.20998445 100.72812,4.99168053 C100.520465,4.77337661 100.262231,4.66422629 99.953411,4.66422629 C99.6445908,4.66422629 99.3863571,4.77071441 99.1787022,4.98369384 C98.9710472,5.19667328 98.8672213,5.51613764 98.8672213,5.94209651 C98.8672213,6.38935332 98.9710472,6.72212869 99.1787022,6.94043261 C99.3863571,7.15873653 99.6445908,7.26788686 99.953411,7.26788686 Z M105.4802,3.27454243 L107.397005,3.27454243 L107.556739,4.66422629 L107.620632,4.66422629 C107.908155,4.12112873 108.254241,3.72179828 108.658902,3.46622296 C109.063563,3.21064764 109.468218,3.0828619 109.872879,3.0828619 C110.096507,3.0828619 110.280199,3.09617291 110.42396,3.12279534 C110.567721,3.14941777 110.698169,3.18935082 110.815308,3.24259567 L110.431947,5.27121464 C110.282861,5.22861876 110.144427,5.19667232 110.016639,5.17537438 C109.888851,5.15407643 109.739768,5.14342762 109.569384,5.14342762 C109.271213,5.14342762 108.959735,5.24991574 108.634942,5.46289517 C108.310148,5.67587461 108.041266,6.05390743 107.828286,6.59700499 L107.828286,11.1973378 L105.4802,11.1973378 L105.4802,3.27454243 Z M111.214642,7.2359401 C111.214642,6.57570385 111.32113,5.98735699 111.53411,5.47088186 C111.747089,4.95440674 112.031945,4.52046765 112.388686,4.16905158 C112.745426,3.81763551 113.158068,3.54875301 113.626622,3.36239601 C114.095177,3.176039 114.579698,3.0828619 115.0802,3.0828619 C115.580701,3.0828619 116.06256,3.176039 116.52579,3.36239601 C116.989021,3.54875301 117.399,3.81763551 117.75574,4.16905158 C118.112481,4.52046765 118.397337,4.95440674 118.610316,5.47088186 C118.823296,5.98735699 118.929784,6.57570385 118.929784,7.2359401 C118.929784,7.89617635 118.823296,8.48452321 118.610316,9.00099834 C118.397337,9.51747346 118.112481,9.95141255 117.75574,10.3028286 C117.399,10.6542447 116.989021,10.9231272 116.52579,11.1094842 C116.06256,11.2958412 115.580701,11.3890183 115.0802,11.3890183 C114.579698,11.3890183 114.095177,11.2958412 113.626622,11.1094842 C113.158068,10.9231272 112.745426,10.6542447 112.388686,10.3028286 C112.031945,9.95141255 111.747089,9.51747346 111.53411,9.00099834 C111.32113,8.48452321 111.214642,7.89617635 111.214642,7.2359401 Z M113.626622,7.2359401 C113.626622,7.92812326 113.746421,8.47653708 113.986023,8.881198 C114.225625,9.28585893 114.590347,9.48818636 115.0802,9.48818636 C115.559403,9.48818636 115.921463,9.28585893 116.166389,8.881198 C116.411316,8.47653708 116.533777,7.92812326 116.533777,7.2359401 C116.533777,6.54375694 116.411316,5.99534312 116.166389,5.5906822 C115.921463,5.18602127 115.559403,4.98369384 115.0802,4.98369384 C114.590347,4.98369384 114.225625,5.18602127 113.986023,5.5906822 C113.746421,5.99534312 113.626622,6.54375694 113.626622,7.2359401 Z M120.463228,3.27454243 L122.811314,3.27454243 L122.811314,7.89084859 C122.811314,8.46589306 122.891181,8.8598991 123.050915,9.07287854 C123.21065,9.28585797 123.460897,9.39234609 123.801664,9.39234609 C124.099835,9.39234609 124.350082,9.32312881 124.552413,9.18469218 C124.754743,9.04625555 124.973044,8.8226305 125.207321,8.51381032 L125.207321,3.27454243 L127.555408,3.27454243 L127.555408,11.1973378 L125.638602,11.1973378 L125.462895,10.0951747 L125.414975,10.0951747 C125.074208,10.4998356 124.709486,10.8166378 124.320799,11.0455907 C123.932111,11.2745436 123.466226,11.3890183 122.923128,11.3890183 C122.060561,11.3890183 121.434944,11.1068248 121.046256,10.5424293 C120.657569,9.97803378 120.463228,9.1953461 120.463228,8.19434276 L120.463228,3.27454243 Z M129.615973,3.27454243 L131.532779,3.27454243 L131.692512,4.28086522 L131.756406,4.28086522 C132.097173,3.96139607 132.469882,3.68186476 132.874542,3.4422629 C133.279203,3.20266103 133.753075,3.0828619 134.296173,3.0828619 C135.15874,3.0828619 135.784357,3.36505541 136.173045,3.92945092 C136.561732,4.49384642 136.756073,5.2765341 136.756073,6.27753744 L136.756073,11.1973378 L134.407987,11.1973378 L134.407987,6.58103161 C134.407987,6.00598714 134.330783,5.6119811 134.176373,5.39900166 C134.021963,5.18602223 133.774378,5.07953411 133.433611,5.07953411 C133.135439,5.07953411 132.879868,5.14608918 132.666889,5.27920133 C132.453909,5.41231348 132.219635,5.60132989 131.96406,5.84625624 L131.96406,11.1973378 L129.615973,11.1973378 L129.615973,3.27454243 Z M138.337438,7.2359401 C138.337438,6.58635283 138.430615,6.00599257 138.616972,5.49484193 C138.803329,4.98369129 139.048251,4.5497522 139.351747,4.19301165 C139.655243,3.83627109 140.006654,3.56206419 140.40599,3.3703827 C140.805326,3.1787012 141.212644,3.0828619 141.627953,3.0828619 C142.07521,3.0828619 142.442594,3.15740358 142.730116,3.30648918 C143.017639,3.45557479 143.299832,3.65790222 143.576705,3.91347754 L143.480865,2.69950083 L143.480865,0 L145.828952,0 L145.828952,11.1973378 L143.912146,11.1973378 L143.752413,10.4146423 L143.688519,10.4146423 C143.411646,10.6915155 143.086857,10.9231272 142.714143,11.1094842 C142.341429,11.2958412 141.963396,11.3890183 141.580033,11.3890183 C141.090181,11.3890183 140.645593,11.293179 140.246256,11.1014975 C139.84692,10.909816 139.506158,10.6356091 139.22396,10.2788686 C138.941762,9.922128 138.723462,9.48818891 138.569052,8.97703827 C138.414641,8.46588763 138.337438,7.88552737 138.337438,7.2359401 Z M140.749418,7.20399334 C140.749418,7.99201725 140.874541,8.5670531 141.124792,8.92911814 C141.375043,9.29118317 141.729116,9.47221298 142.187022,9.47221298 C142.442597,9.47221298 142.674209,9.41896892 142.881864,9.3124792 C143.089519,9.20598948 143.289184,9.01963527 143.480865,8.75341098 L143.480865,5.51081531 C143.267886,5.31913382 143.049585,5.18602367 142.825957,5.11148087 C142.602328,5.03693806 142.384028,4.99966722 142.171048,4.99966722 C141.798334,4.99966722 141.468221,5.17803482 141.180699,5.53477537 C140.893177,5.89151593 140.749418,6.44791635 140.749418,7.20399334 Z M151.419634,0.782695507 L153.76772,0.782695507 L153.76772,11.1973378 L151.419634,11.1973378 L151.419634,0.782695507 Z M156.03594,3.27454243 L157.952745,3.27454243 L158.112479,4.2968386 L158.176373,4.2968386 C158.506491,3.96672048 158.857902,3.68186476 159.230616,3.4422629 C159.60333,3.20266103 160.05058,3.0828619 160.572379,3.0828619 C161.136775,3.0828619 161.592012,3.19733663 161.938103,3.42628952 C162.284195,3.65524241 162.558402,3.98269338 162.760732,4.40865225 C163.112148,4.04658721 163.482194,3.73510946 163.870882,3.47420965 C164.259569,3.21330984 164.72013,3.0828619 165.252579,3.0828619 C166.104497,3.0828619 166.730114,3.36771762 167.129451,3.9374376 C167.528787,4.50715759 167.728453,5.28718307 167.728453,6.27753744 L167.728453,11.1973378 L165.380366,11.1973378 L165.380366,6.58103161 C165.380366,6.00598714 165.303162,5.6119811 165.148752,5.39900166 C164.994342,5.18602223 164.746757,5.07953411 164.40599,5.07953411 C164.011978,5.07953411 163.559404,5.3351056 163.048253,5.84625624 L163.048253,11.1973378 L160.700166,11.1973378 L160.700166,6.58103161 C160.700166,6.00598714 160.622963,5.6119811 160.468552,5.39900166 C160.314142,5.18602223 160.066557,5.07953411 159.72579,5.07953411 C159.321129,5.07953411 158.873879,5.3351056 158.384027,5.84625624 L158.384027,11.1973378 L156.03594,11.1973378 L156.03594,3.27454243 Z M169.437604,8.99301165 C169.437604,8.16239185 169.789015,7.51281432 170.491847,7.04425957 C171.194679,6.57570481 172.328778,6.26156486 173.894176,6.10183028 C173.872878,5.75041422 173.76639,5.4708829 173.574709,5.26322795 C173.383027,5.055573 173.074212,4.95174709 172.648253,4.95174709 C172.307486,4.95174709 171.966724,5.01563996 171.625957,5.14342762 C171.28519,5.27121528 170.92313,5.44692068 170.539767,5.67054908 L169.709151,4.12113145 C170.220302,3.81231127 170.755405,3.56206419 171.314476,3.3703827 C171.873547,3.1787012 172.467218,3.0828619 173.095507,3.0828619 C174.117809,3.0828619 174.897834,3.37304202 175.435607,3.95341098 C175.97338,4.53377994 176.242263,5.43626676 176.242263,6.6608985 L176.242263,11.1973378 L174.325458,11.1973378 L174.14975,10.3826955 L174.10183,10.3826955 C173.761063,10.6808667 173.401666,10.9231272 173.023627,11.1094842 C172.645589,11.2958412 172.232947,11.3890183 171.785691,11.3890183 C171.423625,11.3890183 171.098837,11.3277876 170.811314,11.2053245 C170.523792,11.0828613 170.27887,10.9124803 170.076539,10.6941764 C169.874209,10.4758725 169.717139,10.2229632 169.605324,9.93544093 C169.49351,9.6479187 169.437604,9.33377874 169.437604,8.99301165 Z M171.673877,8.81730449 C171.673877,9.07287981 171.756405,9.26189623 171.921464,9.3843594 C172.086523,9.50682258 172.307486,9.56805324 172.584359,9.56805324 C172.861233,9.56805324 173.095507,9.50948478 173.287188,9.39234609 C173.47887,9.2752074 173.681197,9.11015082 173.894176,8.89717138 L173.894176,7.50748752 C173.052908,7.62462621 172.472547,7.7950072 172.153078,8.01863561 C171.833609,8.24226401 171.673877,8.50848431 171.673877,8.81730449 Z M179.692512,12.1876872 C179.692512,12.4858584 179.852245,12.7121457 180.171714,12.8665557 C180.491183,13.0209658 180.917135,13.0981697 181.449584,13.0981697 C181.982033,13.0981697 182.418634,13.0049926 182.759401,12.8186356 C183.100168,12.6322786 183.270549,12.4006669 183.270549,12.1237937 C183.270549,11.8788673 183.166723,11.7138107 182.959068,11.628619 C182.751413,11.5434272 182.450584,11.5008319 182.056572,11.5008319 L181.24193,11.5008319 C180.965057,11.5008319 180.741432,11.4928453 180.571048,11.4768719 C180.400665,11.4608984 180.251581,11.4369386 180.123794,11.4049917 C179.836271,11.660567 179.692512,11.9214629 179.692512,12.1876872 Z M177.759734,12.5550749 C177.759734,11.9161366 178.137767,11.383696 178.893844,10.9577371 L178.893844,10.8938436 C178.680864,10.755407 178.505159,10.5797016 178.366722,10.3667221 C178.228285,10.1537427 178.159068,9.88219799 178.159068,9.55207987 C178.159068,9.26455763 178.244259,8.99035072 178.414642,8.72945092 C178.585026,8.46855111 178.798002,8.24758826 179.053577,8.06655574 L179.053577,8.00266223 C178.776704,7.81098074 178.529119,7.53677383 178.310815,7.18003328 C178.092511,6.82329273 177.983361,6.41065126 177.983361,5.94209651 C177.983361,5.46289278 178.073876,5.04492691 178.254908,4.68818636 C178.435941,4.3314458 178.678201,4.03327907 178.981697,3.7936772 C179.285193,3.55407534 179.633941,3.37570774 180.027953,3.25856905 C180.421965,3.14143036 180.831945,3.0828619 181.257903,3.0828619 C181.726458,3.0828619 182.136438,3.14675477 182.487854,3.27454243 L185.379035,3.27454243 L185.379035,4.98369384 L184.117138,4.98369384 C184.191681,5.10083253 184.252912,5.2499159 184.300832,5.43094842 C184.348752,5.61198094 184.372712,5.80898396 184.372712,6.02196339 C184.372712,6.47986918 184.292846,6.87653742 184.133111,7.21198003 C183.973377,7.54742264 183.752414,7.82429175 183.470216,8.04259567 C183.188019,8.26089959 182.857905,8.42329398 182.479867,8.52978369 C182.101828,8.63627341 181.694511,8.68951747 181.257903,8.68951747 C180.949083,8.68951747 180.629619,8.63627341 180.299501,8.52978369 C180.193011,8.61497547 180.118469,8.70016596 180.075874,8.78535774 C180.033278,8.87054951 180.01198,8.98236204 180.01198,9.12079867 C180.01198,9.32312913 180.099833,9.4722125 180.275541,9.56805324 C180.451249,9.66389399 180.762727,9.71181364 181.209983,9.71181364 L182.487854,9.71181364 C183.467559,9.71181364 184.215638,9.86888362 184.732113,10.1830283 C185.248588,10.497173 185.506822,11.0109781 185.506822,11.7244592 C185.506822,12.1397691 185.402996,12.5204642 185.195341,12.8665557 C184.987686,13.2126473 184.692182,13.5108141 184.308819,13.7610649 C183.925456,14.0113157 183.462232,14.2083187 182.919135,14.3520799 C182.376037,14.495841 181.763731,14.5677205 181.082196,14.5677205 C180.613642,14.5677205 180.179702,14.5277874 179.780366,14.4479201 C179.38103,14.3680528 179.029619,14.2482537 178.726123,14.0885191 C178.422627,13.9287846 178.185691,13.7211327 178.015308,13.4655574 C177.844924,13.2099821 177.759734,12.9064909 177.759734,12.5550749 Z M181.257903,7.26788686 C181.566724,7.26788686 181.824957,7.15873653 182.032612,6.94043261 C182.240267,6.72212869 182.344093,6.38935332 182.344093,5.94209651 C182.344093,5.52678661 182.240267,5.20998445 182.032612,4.99168053 C181.824957,4.77337661 181.566724,4.66422629 181.257903,4.66422629 C180.949083,4.66422629 180.69085,4.77071441 180.483195,4.98369384 C180.27554,5.19667328 180.171714,5.51613764 180.171714,5.94209651 C180.171714,6.38935332 180.27554,6.72212869 180.483195,6.94043261 C180.69085,7.15873653 180.949083,7.26788686 181.257903,7.26788686 Z M186.033943,7.2359401 C186.033943,6.5970018 186.140432,6.01930375 186.353411,5.50282862 C186.56639,4.98635349 186.845922,4.5497522 187.192013,4.19301165 C187.538105,3.83627109 187.934773,3.56206419 188.38203,3.3703827 C188.829287,3.1787012 189.29251,3.0828619 189.771714,3.0828619 C190.336109,3.0828619 190.828617,3.1787012 191.249251,3.3703827 C191.669886,3.56206419 192.021296,3.82828449 192.303494,4.16905158 C192.585692,4.50981868 192.796006,4.91181133 192.934443,5.3750416 C193.072879,5.83827187 193.142097,6.34142823 193.142097,6.88452579 C193.142097,7.09750522 193.131448,7.29184604 193.11015,7.46755408 C193.088852,7.64326211 193.067554,7.77903446 193.046256,7.87487521 L188.302163,7.87487521 C188.408653,8.4818666 188.645589,8.92113009 189.012978,9.19267887 C189.380368,9.46422765 189.83028,9.6 190.362729,9.6 C190.927124,9.6 191.496836,9.4242946 192.07188,9.07287854 L192.854576,10.4945092 C192.449915,10.7713824 192.000002,10.9896831 191.504825,11.1494176 C191.009648,11.3091522 190.522465,11.3890183 190.043261,11.3890183 C189.478866,11.3890183 188.95175,11.2958412 188.461897,11.1094842 C187.972044,10.9231272 187.546092,10.6515825 187.184027,10.2948419 C186.821962,9.93810138 186.539768,9.50416229 186.337438,8.99301165 C186.135107,8.481861 186.033943,7.89617635 186.033943,7.2359401 Z M191.145424,6.42129784 C191.145424,5.96339205 191.044261,5.59068363 190.84193,5.3031614 C190.6396,5.01563916 190.298838,4.8718802 189.819634,4.8718802 C189.44692,4.8718802 189.119469,4.99700374 188.837271,5.24725458 C188.555073,5.49750541 188.371381,5.88884925 188.28619,6.42129784 L191.145424,6.42129784 Z" id="Background-Image" fill="#FFFFFF"></path>
                <path d="M0.499168053,47.4209651 L256.309037,47.4209651" id="Line" stroke="#FFFFFF" stroke-width="7" stroke-linecap="square"></path>
                <path d="M0.499168053,65.391015 L256.309037,65.391015" id="Line" stroke="#FFFFFF" stroke-width="7" stroke-linecap="square"></path>
                <path d="M38.4359401,83.3610649 L218.139212,83.3610649" id="Line" stroke="#FFFFFF" stroke-width="7" stroke-linecap="square"></path>
                <path d="M82.3627288,160.232945 L174.215076,160.232945" id="Line" stroke="#FFFFFF" stroke-width="3" stroke-linecap="square"></path>
            </g>
        </g>
    </g>
</svg>