<?xml version="1.0" encoding="UTF-8"?>
<svg width="600px" height="322px" viewBox="0 0 600 322" version="1.1" xmlns="http://www.w3.org/2000/svg" xmlns:xlink="http://www.w3.org/1999/xlink">
    <!-- Generator: Sketch 44.1 (41455) - http://www.bohemiancoding.com/sketch -->
    <title>calltoaction04</title>
    <desc>Created with Sketch.</desc>
    <defs>
        <rect id="path-1" x="323.684211" y="52.6315789" width="251.315789" height="160.526316"></rect>
        <mask id="mask-2" maskContentUnits="userSpaceOnUse" maskUnits="objectBoundingBox" x="0" y="0" width="251.315789" height="160.526316" fill="white">
            <use xlink:href="#path-1"></use>
        </mask>
    </defs>
    <g id="Calltoaction" stroke="none" stroke-width="1" fill="none" fill-rule="evenodd">
        <g id="04">
            <rect id="Rectangle-3" fill="#F8F8F8" x="0" y="0" width="600" height="321.052632"></rect>
            <path d="M24.6526316,65.5894737 C24.6526316,64.4526259 24.8280684,63.4386009 25.1789474,62.5473684 C25.5298263,61.6561359 26.0035058,60.9017575 26.6,60.2842105 C27.1964942,59.6666636 27.8912241,59.1964928 28.6842105,58.8736842 C29.4771969,58.5508756 30.3157851,58.3894737 31.2,58.3894737 C32.0561446,58.3894737 32.8315755,58.5684193 33.5263158,58.9263158 C34.2210561,59.2842123 34.7999977,59.701752 35.2631579,60.1789474 L33.5578947,62.0947368 C33.2070158,61.7719282 32.8526334,61.5192992 32.4947368,61.3368421 C32.1368403,61.1543851 31.7193006,61.0631579 31.2421053,61.0631579 C30.7649099,61.0631579 30.3193003,61.1649113 29.9052632,61.3684211 C29.491226,61.5719308 29.1298261,61.863156 28.8210526,62.2421053 C28.5122792,62.6210545 28.2701763,63.0842078 28.0947368,63.6315789 C27.9192974,64.1789501 27.8315789,64.7964878 27.8315789,65.4842105 C27.8315789,66.9017615 28.1333303,67.9999961 28.7368421,68.7789474 C29.3403539,69.5578986 30.1473634,69.9473684 31.1578947,69.9473684 C31.7193011,69.9473684 32.2105242,69.8350888 32.6315789,69.6105263 C33.0526337,69.3859638 33.4315773,69.0912299 33.7684211,68.7263158 L35.4736842,70.6 C34.8982427,71.2736876 34.2421089,71.7789457 33.5052632,72.1157895 C32.7684174,72.4526333 31.9719341,72.6210526 31.1157895,72.6210526 C30.2315745,72.6210526 29.3964952,72.4701769 28.6105263,72.1684211 C27.8245575,71.8666652 27.1368451,71.4210556 26.5473684,70.8315789 C25.9578918,70.2421023 25.4947385,69.5087763 25.1578947,68.6315789 C24.8210509,67.7543816 24.6526316,66.7403566 24.6526316,65.5894737 Z M36.9263158,69.4631579 C36.9263158,68.3684156 37.3894691,67.5122838 38.3157895,66.8947368 C39.2421099,66.2771899 40.7368318,65.8631589 42.8,65.6526316 C42.7719297,65.1894714 42.6315802,64.821054 42.3789474,64.5473684 C42.1263145,64.2736828 41.7193011,64.1368421 41.1578947,64.1368421 C40.7087697,64.1368421 40.2596514,64.2210518 39.8105263,64.3894737 C39.3614013,64.5578956 38.8842131,64.7894722 38.3789474,65.0842105 L37.2842105,63.0421053 C37.9578981,62.6350857 38.6631542,62.3052644 39.4,62.0526316 C40.1368458,61.7999987 40.9192941,61.6736842 41.7473684,61.6736842 C43.0947436,61.6736842 44.1228035,62.0561365 44.8315789,62.8210526 C45.5403544,63.5859687 45.8947368,64.7754305 45.8947368,66.3894737 L45.8947368,72.3684211 L43.3684211,72.3684211 L43.1368421,71.2947368 L43.0736842,71.2947368 C42.6245592,71.6877213 42.1508797,72.0070163 41.6526316,72.2526316 C41.1543835,72.4982468 40.6105293,72.6210526 40.0210526,72.6210526 C39.5438573,72.6210526 39.1157914,72.5403517 38.7368421,72.3789474 C38.3578928,72.2175431 38.0350891,71.9929839 37.7684211,71.7052632 C37.5017531,71.4175424 37.2947376,71.0842124 37.1473684,70.7052632 C36.9999993,70.3263139 36.9263158,69.9122829 36.9263158,69.4631579 Z M39.8736842,69.2315789 C39.8736842,69.5684227 39.9824551,69.8175431 40.2,69.9789474 C40.4175449,70.1403517 40.7087701,70.2210526 41.0736842,70.2210526 C41.4385983,70.2210526 41.7473672,70.1438604 42,69.9894737 C42.2526328,69.8350869 42.5192968,69.6175453 42.8,69.3368421 L42.8,67.5052632 C41.6912225,67.6596499 40.9263179,67.8842091 40.5052632,68.1789474 C40.0842084,68.4736857 39.8736842,68.8245594 39.8736842,69.2315789 Z M48.5473684,57.6105263 L51.6421053,57.6105263 L51.6421053,69.2526316 C51.6421053,69.5754402 51.7017538,69.7999994 51.8210526,69.9263158 C51.9403515,70.0526322 52.0631573,70.1157895 52.1894737,70.1157895 L52.3684211,70.1157895 C52.4175441,70.1157895 52.4842101,70.1017545 52.5684211,70.0736842 L52.9473684,72.3684211 C52.7789465,72.4385968 52.5649136,72.4982454 52.3052632,72.5473684 C52.0456127,72.5964915 51.7403526,72.6210526 51.3894737,72.6210526 C50.8561377,72.6210526 50.4070194,72.5368429 50.0421053,72.3684211 C49.6771912,72.1999992 49.385966,71.9649138 49.1684211,71.6631579 C48.9508761,71.361402 48.7929829,70.9964934 48.6947368,70.5684211 C48.5964907,70.1403487 48.5473684,69.6596518 48.5473684,69.1263158 L48.5473684,57.6105263 Z M54.5684211,57.6105263 L57.6631579,57.6105263 L57.6631579,69.2526316 C57.6631579,69.5754402 57.7228064,69.7999994 57.8421053,69.9263158 C57.9614041,70.0526322 58.0842099,70.1157895 58.2105263,70.1157895 L58.3894737,70.1157895 C58.4385967,70.1157895 58.5052627,70.1017545 58.5894737,70.0736842 L58.9684211,72.3684211 C58.7999992,72.4385968 58.5859662,72.4982454 58.3263158,72.5473684 C58.0666654,72.5964915 57.7614053,72.6210526 57.4105263,72.6210526 C56.8771903,72.6210526 56.428072,72.5368429 56.0631579,72.3684211 C55.6982438,72.1999992 55.4070186,71.9649138 55.1894737,71.6631579 C54.9719287,71.361402 54.8140356,70.9964934 54.7157895,70.5684211 C54.6175434,70.1403487 54.5684211,69.6596518 54.5684211,69.1263158 L54.5684211,57.6105263 Z M65.3894737,64.3473684 L63.9578947,64.3473684 L63.9578947,62.0526316 L65.5578947,61.9263158 L65.9157895,59.1473684 L68.4842105,59.1473684 L68.4842105,61.9263158 L70.9894737,61.9263158 L70.9894737,64.3473684 L68.4842105,64.3473684 L68.4842105,68.5368421 C68.4842105,69.1263187 68.6070163,69.5508759 68.8526316,69.8105263 C69.0982468,70.0701767 69.4245594,70.2 69.8315789,70.2 C70.0000008,70.2 70.1719289,70.1789476 70.3473684,70.1368421 C70.5228079,70.0947366 70.6807011,70.0456143 70.8210526,69.9894737 L71.3052632,72.2421053 C71.02456,72.3263162 70.6947387,72.4105259 70.3157895,72.4947368 C69.9368402,72.5789478 69.4947394,72.6210526 68.9894737,72.6210526 C68.3438564,72.6210526 67.7929847,72.522808 67.3368421,72.3263158 C66.8806995,72.1298236 66.5087734,71.8561421 66.2210526,71.5052632 C65.9333319,71.1543842 65.7228077,70.7298271 65.5894737,70.2315789 C65.4561397,69.7333308 65.3894737,69.1824592 65.3894737,68.5789474 L65.3894737,64.3473684 Z M72.4210526,67.1473684 C72.4210526,66.2771886 72.5614021,65.5017578 72.8421053,64.8210526 C73.1228084,64.1403475 73.4982433,63.5684234 73.9684211,63.1052632 C74.4385988,62.6421029 74.9824531,62.2877205 75.6,62.0421053 C76.2175469,61.79649 76.8561371,61.6736842 77.5157895,61.6736842 C78.1754419,61.6736842 78.8105233,61.79649 79.4210526,62.0421053 C80.031582,62.2877205 80.5719275,62.6421029 81.0421053,63.1052632 C81.5122831,63.5684234 81.8877179,64.1403475 82.1684211,64.8210526 C82.4491242,65.5017578 82.5894737,66.2771886 82.5894737,67.1473684 C82.5894737,68.0175482 82.4491242,68.7929791 82.1684211,69.4736842 C81.8877179,70.1543894 81.5122831,70.7263135 81.0421053,71.1894737 C80.5719275,71.6526339 80.031582,72.0070163 79.4210526,72.2526316 C78.8105233,72.4982468 78.1754419,72.6210526 77.5157895,72.6210526 C76.8561371,72.6210526 76.2175469,72.4982468 75.6,72.2526316 C74.9824531,72.0070163 74.4385988,71.6526339 73.9684211,71.1894737 C73.4982433,70.7263135 73.1228084,70.1543894 72.8421053,69.4736842 C72.5614021,68.7929791 72.4210526,68.0175482 72.4210526,67.1473684 Z M75.6,67.1473684 C75.6,68.0596537 75.7578932,68.7824535 76.0736842,69.3157895 C76.3894753,69.8491255 76.8701722,70.1157895 77.5157895,70.1157895 C78.1473716,70.1157895 78.6245598,69.8491255 78.9473684,69.3157895 C79.2701771,68.7824535 79.4315789,68.0596537 79.4315789,67.1473684 C79.4315789,66.2350832 79.2701771,65.5122834 78.9473684,64.9789474 C78.6245598,64.4456114 78.1473716,64.1789474 77.5157895,64.1789474 C76.8701722,64.1789474 76.3894753,64.4456114 76.0736842,64.9789474 C75.7578932,65.5122834 75.6,66.2350832 75.6,67.1473684 Z M95.1578947,66.6842105 L94.8421053,65.4210526 C94.6456131,64.7333299 94.4561413,64.0035126 94.2736842,63.2315789 C94.0912272,62.4596453 93.9087728,61.7157931 93.7263158,61 L93.6421053,61 C93.4736834,61.7298282 93.3017553,62.4771892 93.1263158,63.2421053 C92.9508763,64.0070214 92.7649133,64.7333299 92.5684211,65.4210526 L92.2315789,66.6842105 L95.1578947,66.6842105 Z M95.7894737,69.1052632 L91.6,69.1052632 L90.7578947,72.3684211 L87.6,72.3684211 L91.8947368,58.6421053 L95.6210526,58.6421053 L99.9157895,72.3684211 L96.6315789,72.3684211 L95.7894737,69.1052632 Z M100.547368,67.1473684 C100.547368,66.2771886 100.694735,65.5017578 100.989474,64.8210526 C101.284212,64.1403475 101.680699,63.5684234 102.178947,63.1052632 C102.677195,62.6421029 103.256137,62.2877205 103.915789,62.0421053 C104.575442,61.79649 105.263154,61.6736842 105.978947,61.6736842 C106.624565,61.6736842 107.207015,61.7824551 107.726316,62 C108.245617,62.2175449 108.6807,62.5087701 109.031579,62.8736842 L107.621053,64.7894737 C107.129822,64.3824541 106.645616,64.1789474 106.168421,64.1789474 C105.410523,64.1789474 104.814037,64.4456114 104.378947,64.9789474 C103.943857,65.5122834 103.726316,66.2350832 103.726316,67.1473684 C103.726316,68.0596537 103.947366,68.7824535 104.389474,69.3157895 C104.831581,69.8491255 105.38947,70.1157895 106.063158,70.1157895 C106.442107,70.1157895 106.785963,70.0385973 107.094737,69.8842105 C107.40351,69.7298238 107.684209,69.5543869 107.936842,69.3578947 L109.178947,71.3157895 C108.673682,71.7649145 108.112284,72.0947358 107.494737,72.3052632 C106.87719,72.5157905 106.280705,72.6210526 105.705263,72.6210526 C104.975435,72.6210526 104.298249,72.4982468 103.673684,72.2526316 C103.04912,72.0070163 102.505265,71.6526339 102.042105,71.1894737 C101.578945,70.7263135 101.214036,70.1543894 100.947368,69.4736842 C100.6807,68.7929791 100.547368,68.0175482 100.547368,67.1473684 Z M111.410526,64.3473684 L109.978947,64.3473684 L109.978947,62.0526316 L111.578947,61.9263158 L111.936842,59.1473684 L114.505263,59.1473684 L114.505263,61.9263158 L117.010526,61.9263158 L117.010526,64.3473684 L114.505263,64.3473684 L114.505263,68.5368421 C114.505263,69.1263187 114.628069,69.5508759 114.873684,69.8105263 C115.119299,70.0701767 115.445612,70.2 115.852632,70.2 C116.021053,70.2 116.192982,70.1789476 116.368421,70.1368421 C116.543861,70.0947366 116.701754,70.0456143 116.842105,69.9894737 L117.326316,72.2421053 C117.045613,72.3263162 116.715791,72.4105259 116.336842,72.4947368 C115.957893,72.5789478 115.515792,72.6210526 115.010526,72.6210526 C114.364909,72.6210526 113.814037,72.522808 113.357895,72.3263158 C112.901752,72.1298236 112.529826,71.8561421 112.242105,71.5052632 C111.954385,71.1543842 111.74386,70.7298271 111.610526,70.2315789 C111.477192,69.7333308 111.410526,69.1824592 111.410526,68.5789474 L111.410526,64.3473684 Z M120.589474,60.3894737 C120.070173,60.3894737 119.642107,60.238598 119.305263,59.9368421 C118.968419,59.6350862 118.8,59.2456164 118.8,58.7684211 C118.8,58.2912257 118.968419,57.9052646 119.305263,57.6105263 C119.642107,57.315788 120.070173,57.1684211 120.589474,57.1684211 C121.12281,57.1684211 121.554384,57.315788 121.884211,57.6105263 C122.214037,57.9052646 122.378947,58.2912257 122.378947,58.7684211 C122.378947,59.2456164 122.214037,59.6350862 121.884211,59.9368421 C121.554384,60.238598 121.12281,60.3894737 120.589474,60.3894737 Z M119.052632,61.9263158 L122.147368,61.9263158 L122.147368,72.3684211 L119.052632,72.3684211 L119.052632,61.9263158 Z M124.252632,67.1473684 C124.252632,66.2771886 124.392981,65.5017578 124.673684,64.8210526 C124.954387,64.1403475 125.329822,63.5684234 125.8,63.1052632 C126.270178,62.6421029 126.814032,62.2877205 127.431579,62.0421053 C128.049126,61.79649 128.687716,61.6736842 129.347368,61.6736842 C130.007021,61.6736842 130.642102,61.79649 131.252632,62.0421053 C131.863161,62.2877205 132.403506,62.6421029 132.873684,63.1052632 C133.343862,63.5684234 133.719297,64.1403475 134,64.8210526 C134.280703,65.5017578 134.421053,66.2771886 134.421053,67.1473684 C134.421053,68.0175482 134.280703,68.7929791 134,69.4736842 C133.719297,70.1543894 133.343862,70.7263135 132.873684,71.1894737 C132.403506,71.6526339 131.863161,72.0070163 131.252632,72.2526316 C130.642102,72.4982468 130.007021,72.6210526 129.347368,72.6210526 C128.687716,72.6210526 128.049126,72.4982468 127.431579,72.2526316 C126.814032,72.0070163 126.270178,71.6526339 125.8,71.1894737 C125.329822,70.7263135 124.954387,70.1543894 124.673684,69.4736842 C124.392981,68.7929791 124.252632,68.0175482 124.252632,67.1473684 Z M127.431579,67.1473684 C127.431579,68.0596537 127.589472,68.7824535 127.905263,69.3157895 C128.221054,69.8491255 128.701751,70.1157895 129.347368,70.1157895 C129.978951,70.1157895 130.456139,69.8491255 130.778947,69.3157895 C131.101756,68.7824535 131.263158,68.0596537 131.263158,67.1473684 C131.263158,66.2350832 131.101756,65.5122834 130.778947,64.9789474 C130.456139,64.4456114 129.978951,64.1789474 129.347368,64.1789474 C128.701751,64.1789474 128.221054,64.4456114 127.905263,64.9789474 C127.589472,65.5122834 127.431579,66.2350832 127.431579,67.1473684 Z M136.547368,61.9263158 L139.073684,61.9263158 L139.284211,63.2526316 L139.368421,63.2526316 C139.817546,62.8315768 140.308769,62.4631595 140.842105,62.1473684 C141.375441,61.8315774 141.999996,61.6736842 142.715789,61.6736842 C143.852637,61.6736842 144.67719,62.0456103 145.189474,62.7894737 C145.701757,63.5333371 145.957895,64.5649057 145.957895,65.8842105 L145.957895,72.3684211 L142.863158,72.3684211 L142.863158,66.2842105 C142.863158,65.526312 142.761405,65.0070189 142.557895,64.7263158 C142.354385,64.4456126 142.028072,64.3052632 141.578947,64.3052632 C141.185963,64.3052632 140.849124,64.3929816 140.568421,64.5684211 C140.287718,64.7438605 139.978949,64.9929808 139.642105,65.3157895 L139.642105,72.3684211 L136.547368,72.3684211 L136.547368,61.9263158 Z M152.105263,61.9263158 L155.178947,61.9263158 L156.189474,66.7684211 C156.273685,67.2877219 156.350877,67.7999975 156.421053,68.3052632 C156.491228,68.8105288 156.568421,69.3298219 156.652632,69.8631579 L156.736842,69.8631579 C156.835088,69.3298219 156.929824,68.8035114 157.021053,68.2842105 C157.112281,67.7649097 157.221052,67.2596516 157.347368,66.7684211 L158.505263,61.9263158 L161.178947,61.9263158 L162.357895,66.7684211 C162.484211,67.2877219 162.596491,67.7999975 162.694737,68.3052632 C162.792983,68.8105288 162.898245,69.3298219 163.010526,69.8631579 L163.094737,69.8631579 C163.192983,69.3298219 163.273684,68.8105288 163.336842,68.3052632 C163.4,67.7999975 163.480701,67.2877219 163.578947,66.7684211 L164.568421,61.9263158 L167.431579,61.9263158 L164.926316,72.3684211 L161.305263,72.3684211 L160.357895,68.2 C160.245613,67.7087695 160.147369,67.2175463 160.063158,66.7263158 C159.978947,66.2350853 159.88772,65.7087747 159.789474,65.1473684 L159.705263,65.1473684 C159.607017,65.7087747 159.519299,66.2350853 159.442105,66.7263158 C159.364912,67.2175463 159.277193,67.7087695 159.178947,68.2 L158.252632,72.3684211 L154.715789,72.3684211 L152.105263,61.9263158 Z M172.442105,57.4210526 L174.463158,57.4210526 L170.231579,75.7368421 L168.210526,75.7368421 L172.442105,57.4210526 Z M176.694737,58.6421053 L179.789474,58.6421053 L179.789474,69.7578947 L185.221053,69.7578947 L185.221053,72.3684211 L176.694737,72.3684211 L176.694737,58.6421053 Z M188.884211,60.3894737 C188.36491,60.3894737 187.936844,60.238598 187.6,59.9368421 C187.263156,59.6350862 187.094737,59.2456164 187.094737,58.7684211 C187.094737,58.2912257 187.263156,57.9052646 187.6,57.6105263 C187.936844,57.315788 188.36491,57.1684211 188.884211,57.1684211 C189.417547,57.1684211 189.849121,57.315788 190.178947,57.6105263 C190.508774,57.9052646 190.673684,58.2912257 190.673684,58.7684211 C190.673684,59.2456164 190.508774,59.6350862 190.178947,59.9368421 C189.849121,60.238598 189.417547,60.3894737 188.884211,60.3894737 Z M187.347368,61.9263158 L190.442105,61.9263158 L190.442105,72.3684211 L187.347368,72.3684211 L187.347368,61.9263158 Z M193.621053,69.2315789 C194.098248,69.5964931 194.554384,69.8701745 194.989474,70.0526316 C195.424564,70.2350886 195.866664,70.3263158 196.315789,70.3263158 C196.77895,70.3263158 197.115788,70.2491236 197.326316,70.0947368 C197.536843,69.9403501 197.642105,69.7228084 197.642105,69.4421053 C197.642105,69.2736834 197.582457,69.1228077 197.463158,68.9894737 C197.343859,68.8561397 197.182457,68.7333339 196.978947,68.6210526 C196.775438,68.5087714 196.54737,68.407018 196.294737,68.3157895 C196.042104,68.2245609 195.782457,68.1228076 195.515789,68.0105263 C195.192981,67.8842099 194.870177,67.7368429 194.547368,67.5684211 C194.22456,67.3999992 193.929826,67.1929837 193.663158,66.9473684 C193.39649,66.7017532 193.178948,66.4140367 193.010526,66.0842105 C192.842104,65.7543843 192.757895,65.371932 192.757895,64.9368421 C192.757895,64.4596467 192.852631,64.0175459 193.042105,63.6105263 C193.23158,63.2035067 193.501753,62.8596505 193.852632,62.5789474 C194.203511,62.2982442 194.624559,62.0771938 195.115789,61.9157895 C195.60702,61.7543852 196.154383,61.6736842 196.757895,61.6736842 C197.557899,61.6736842 198.259646,61.8105249 198.863158,62.0842105 C199.46667,62.3578961 199.99298,62.6631562 200.442105,63 L199.052632,64.8526316 C198.673682,64.5719284 198.301756,64.3543867 197.936842,64.2 C197.571928,64.0456133 197.207019,63.9684211 196.842105,63.9684211 C196.056136,63.9684211 195.663158,64.2421025 195.663158,64.7894737 C195.663158,64.9578956 195.719298,65.1017538 195.831579,65.2210526 C195.94386,65.3403515 196.094736,65.4491223 196.284211,65.5473684 C196.473685,65.6456145 196.691227,65.7403504 196.936842,65.8315789 C197.182457,65.9228075 197.438595,66.0175434 197.705263,66.1157895 C198.042107,66.2421059 198.375437,66.3859641 198.705263,66.5473684 C199.035089,66.7087727 199.336841,66.9087707 199.610526,67.1473684 C199.884212,67.3859661 200.105262,67.6771913 200.273684,68.0210526 C200.442106,68.364914 200.526316,68.7754362 200.526316,69.2526316 C200.526316,69.7298269 200.435089,70.1719278 200.252632,70.5789474 C200.070175,70.9859669 199.796493,71.3403494 199.431579,71.6421053 C199.066665,71.9438612 198.617547,72.1824553 198.084211,72.3578947 C197.550875,72.5333342 196.933337,72.6210526 196.231579,72.6210526 C195.543856,72.6210526 194.8386,72.4877206 194.115789,72.2210526 C193.392979,71.9543846 192.764915,71.6035109 192.231579,71.1684211 L193.621053,69.2315789 Z M202.905263,64.3473684 L201.473684,64.3473684 L201.473684,62.0526316 L203.073684,61.9263158 L203.431579,59.1473684 L206,59.1473684 L206,61.9263158 L208.505263,61.9263158 L208.505263,64.3473684 L206,64.3473684 L206,68.5368421 C206,69.1263187 206.122806,69.5508759 206.368421,69.8105263 C206.614036,70.0701767 206.940349,70.2 207.347368,70.2 C207.51579,70.2 207.687718,70.1789476 207.863158,70.1368421 C208.038597,70.0947366 208.196491,70.0456143 208.336842,69.9894737 L208.821053,72.2421053 C208.540349,72.3263162 208.210528,72.4105259 207.831579,72.4947368 C207.45263,72.5789478 207.010529,72.6210526 206.505263,72.6210526 C205.859646,72.6210526 205.308774,72.522808 204.852632,72.3263158 C204.396489,72.1298236 204.024563,71.8561421 203.736842,71.5052632 C203.449121,71.1543842 203.238597,70.7298271 203.105263,70.2315789 C202.971929,69.7333308 202.905263,69.1824592 202.905263,68.5789474 L202.905263,64.3473684 Z" id="Call-to-Action-w/Lis" fill="#79797B"></path>
            <path d="M23.0263158,92.7631579 L65.1315789,92.7631579" id="Line" stroke="#4990E2" stroke-linecap="square"></path>
            <path d="M21.7105263,116.447368 L231.069957,116.447368" id="Line" stroke="#B3B4B7" stroke-width="3" stroke-linecap="square"></path>
            <g id="List" transform="translate(23.684211, 151.315789)">
                <path d="M23.0263158,4.83348932 L96.7105263,4.83348932" id="Line" stroke="#D7D9D9" stroke-width="3" stroke-linecap="square"></path>
                <path d="M109.868421,4.60526316 L133.552632,4.60526316" id="Line" stroke="#D7D9D9" stroke-width="3" stroke-linecap="square"></path>
                <polyline id="Path-12" stroke="#979797" stroke-width="2" points="0 3.46968468 3.64242864 7.11211332 10.5263158 0.228226166"></polyline>
                <path d="M23.0263158,23.5594817 L71.7105263,23.5594817" id="Line" stroke="#D7D9D9" stroke-width="3" stroke-linecap="square"></path>
                <path d="M84.8684211,23.0263158 L116.447368,23.0263158" id="Line" stroke="#D7D9D9" stroke-width="3" stroke-linecap="square"></path>
                <polyline id="Path-12" stroke="#979797" stroke-width="2" points="0 22.1956771 3.64242864 25.8381057 10.5263158 18.9542186"></polyline>
                <path d="M23.0263158,43.2963238 L84.8684211,43.2963238" id="Line" stroke="#D7D9D9" stroke-width="3" stroke-linecap="square"></path>
                <path d="M23.0263158,43.2963238 L84.8684211,43.2963238" id="Line" stroke="#D7D9D9" stroke-width="3" stroke-linecap="square"></path>
                <path d="M98.0263158,42.7631579 L124.342105,42.7631579" id="Line" stroke="#D7D9D9" stroke-width="3" stroke-linecap="square"></path>
                <polyline id="Path-12" stroke="#979797" stroke-width="2" points="0 41.9325192 3.64242864 45.5749478 10.5263158 38.6910607"></polyline>
                <path d="M23.0263158,61.7173765 L71.7105263,61.7173765" id="Line" stroke="#D7D9D9" stroke-width="3" stroke-linecap="square"></path>
                <path d="M82.2368421,61.1842105 L130.921053,61.1842105" id="Line" stroke="#D7D9D9" stroke-width="3" stroke-linecap="square"></path>
                <polyline id="Path-12" stroke="#979797" stroke-width="2" points="0 60.3535718 3.64242864 63.9960005 10.5263158 57.1121133"></polyline>
                <path d="M23.0263158,43.2963238 L84.8684211,43.2963238" id="Line" stroke="#D7D9D9" stroke-width="3" stroke-linecap="square"></path>
                <path d="M23.0263158,43.2963238 L84.8684211,43.2963238" id="Line" stroke="#D7D9D9" stroke-width="3" stroke-linecap="square"></path>
            </g>
            <g id="Group-5" transform="translate(17.105263, 248.684211)">
                <rect id="Rectangle-2" fill="#4990E2" x="0" y="0" width="135.526316" height="36.8421053"></rect>
                <path d="M11.3368421,15.5052632 L12.9789474,15.5052632 L14.1263158,18.5894737 L14.5368421,19.7894737 L14.5789474,19.7894737 L14.9894737,18.5894737 L16.1052632,15.5052632 L17.7368421,15.5052632 L17.7368421,22.3684211 L16.2947368,22.3684211 L16.2947368,19.8526316 C16.2947368,19.6842097 16.3017543,19.4982466 16.3157895,19.2947368 C16.3298246,19.0912271 16.3473683,18.8859659 16.3684211,18.6789474 C16.3894738,18.4719288 16.4105262,18.2684221 16.4315789,18.0684211 C16.4526317,17.8684201 16.4736841,17.6842114 16.4947368,17.5157895 L16.4526316,17.5157895 L15.8842105,19.1052632 L14.8315789,21.7684211 L14.2105263,21.7684211 L13.1578947,19.1052632 L12.6105263,17.5157895 L12.5684211,17.5157895 C12.5894738,17.6842114 12.6105262,17.8684201 12.6315789,18.0684211 C12.6526317,18.2684221 12.6719297,18.4719288 12.6894737,18.6789474 C12.7070176,18.8859659 12.7228069,19.0912271 12.7368421,19.2947368 C12.7508773,19.4982466 12.7578947,19.6842097 12.7578947,19.8526316 L12.7578947,22.3684211 L11.3368421,22.3684211 L11.3368421,15.5052632 Z M22.2631579,19.5263158 L22.1052632,18.8947368 C22.0070171,18.5508755 21.9122812,18.1859668 21.8210526,17.8 C21.7298241,17.4140332 21.6385969,17.0421071 21.5473684,16.6842105 L21.5052632,16.6842105 C21.4210522,17.0491246 21.3350882,17.4228051 21.2473684,17.8052632 C21.1596487,18.1877212 21.0666672,18.5508755 20.9684211,18.8947368 L20.8,19.5263158 L22.2631579,19.5263158 Z M22.5789474,20.7368421 L20.4842105,20.7368421 L20.0631579,22.3684211 L18.4842105,22.3684211 L20.6315789,15.5052632 L22.4947368,15.5052632 L24.6421053,22.3684211 L23,22.3684211 L22.5789474,20.7368421 Z M25.3894737,15.5052632 L26.9368421,15.5052632 L26.9368421,18.3157895 L26.9789474,18.3157895 L29.0210526,15.5052632 L30.7263158,15.5052632 L28.6526316,18.2421053 L31.1052632,22.3684211 L29.4105263,22.3684211 L27.7368421,19.4736842 L26.9368421,20.5263158 L26.9368421,22.3684211 L25.3894737,22.3684211 L25.3894737,15.5052632 Z M31.8526316,15.5052632 L36.1473684,15.5052632 L36.1473684,16.8105263 L33.4,16.8105263 L33.4,18.1894737 L35.7368421,18.1894737 L35.7368421,19.4842105 L33.4,19.4842105 L33.4,21.0631579 L36.2526316,21.0631579 L36.2526316,22.3684211 L31.8526316,22.3684211 L31.8526316,15.5052632 Z M42.7157895,19.5263158 L42.5578947,18.8947368 C42.4596486,18.5508755 42.3649127,18.1859668 42.2736842,17.8 C42.1824557,17.4140332 42.0912285,17.0421071 42,16.6842105 L41.9578947,16.6842105 C41.8736838,17.0491246 41.7877197,17.4228051 41.7,17.8052632 C41.6122803,18.1877212 41.5192987,18.5508755 41.4210526,18.8947368 L41.2526316,19.5263158 L42.7157895,19.5263158 Z M43.0315789,20.7368421 L40.9368421,20.7368421 L40.5157895,22.3684211 L38.9368421,22.3684211 L41.0842105,15.5052632 L42.9473684,15.5052632 L45.0947368,22.3684211 L43.4526316,22.3684211 L43.0315789,20.7368421 Z M45.8421053,15.5052632 L47.4315789,15.5052632 L49.2210526,18.9157895 L49.8947368,20.4315789 L49.9368421,20.4315789 C49.9017542,20.0666648 49.8614037,19.6596514 49.8157895,19.2105263 C49.7701752,18.7614013 49.7473684,18.3333354 49.7473684,17.9263158 L49.7473684,15.5052632 L51.2210526,15.5052632 L51.2210526,22.3684211 L49.6315789,22.3684211 L47.8421053,18.9473684 L47.1684211,17.4526316 L47.1263158,17.4526316 C47.1614037,17.8315808 47.2017542,18.2385943 47.2473684,18.6736842 C47.2929827,19.1087741 47.3157895,19.5298225 47.3157895,19.9368421 L47.3157895,22.3684211 L45.8421053,22.3684211 L45.8421053,15.5052632 Z M57.9368421,19.5263158 L57.7789474,18.8947368 C57.6807013,18.5508755 57.5859654,18.1859668 57.4947368,17.8 C57.4035083,17.4140332 57.3122812,17.0421071 57.2210526,16.6842105 L57.1789474,16.6842105 C57.0947364,17.0491246 57.0087724,17.4228051 56.9210526,17.8052632 C56.8333329,18.1877212 56.7403514,18.5508755 56.6421053,18.8947368 L56.4736842,19.5263158 L57.9368421,19.5263158 Z M58.2526316,20.7368421 L56.1578947,20.7368421 L55.7368421,22.3684211 L54.1578947,22.3684211 L56.3052632,15.5052632 L58.1684211,15.5052632 L60.3157895,22.3684211 L58.6736842,22.3684211 L58.2526316,20.7368421 Z M61.0631579,15.5052632 L63.5684211,15.5052632 C63.9403527,15.5052632 64.2894721,15.5421049 64.6157895,15.6157895 C64.9421069,15.6894741 65.2263146,15.8122798 65.4684211,15.9842105 C65.7105275,16.1561412 65.9017537,16.3842091 66.0421053,16.6684211 C66.1824568,16.952633 66.2526316,17.3017523 66.2526316,17.7157895 C66.2526316,18.1157915 66.1807025,18.4631564 66.0368421,18.7578947 C65.8929817,19.0526331 65.6982468,19.2947359 65.4526316,19.4842105 C65.2070163,19.6736852 64.9228086,19.8140346 64.6,19.9052632 C64.2771914,19.9964917 63.9333352,20.0421053 63.5684211,20.0421053 L62.6105263,20.0421053 L62.6105263,22.3684211 L61.0631579,22.3684211 L61.0631579,15.5052632 Z M63.4736842,18.8105263 C64.3157937,18.8105263 64.7368421,18.4456177 64.7368421,17.7157895 C64.7368421,17.3578929 64.6298256,17.1052639 64.4157895,16.9578947 C64.2017533,16.8105256 63.8877214,16.7368421 63.4736842,16.7368421 L62.6105263,16.7368421 L62.6105263,18.8105263 L63.4736842,18.8105263 Z M67.4421053,15.5052632 L69.9473684,15.5052632 C70.3193001,15.5052632 70.6684194,15.5421049 70.9947368,15.6157895 C71.3210543,15.6894741 71.6052619,15.8122798 71.8473684,15.9842105 C72.0894749,16.1561412 72.2807011,16.3842091 72.4210526,16.6684211 C72.5614042,16.952633 72.6315789,17.3017523 72.6315789,17.7157895 C72.6315789,18.1157915 72.5596498,18.4631564 72.4157895,18.7578947 C72.2719291,19.0526331 72.0771942,19.2947359 71.8315789,19.4842105 C71.5859637,19.6736852 71.301756,19.8140346 70.9789474,19.9052632 C70.6561387,19.9964917 70.3122825,20.0421053 69.9473684,20.0421053 L68.9894737,20.0421053 L68.9894737,22.3684211 L67.4421053,22.3684211 L67.4421053,15.5052632 Z M69.8526316,18.8105263 C70.6947411,18.8105263 71.1157895,18.4456177 71.1157895,17.7157895 C71.1157895,17.3578929 71.008773,17.1052639 70.7947368,16.9578947 C70.5807007,16.8105256 70.2666687,16.7368421 69.8526316,16.7368421 L68.9894737,16.7368421 L68.9894737,18.8105263 L69.8526316,18.8105263 Z M76.6105263,22.4947368 C76.1473661,22.4947368 75.7245633,22.4122815 75.3421053,22.2473684 C74.9596472,22.0824553 74.6315803,21.8456156 74.3578947,21.5368421 C74.0842092,21.2280686 73.8719306,20.8526338 73.7210526,20.4105263 C73.5701747,19.9684188 73.4947368,19.4666695 73.4947368,18.9052632 C73.4947368,18.3438568 73.5701747,17.8438618 73.7210526,17.4052632 C73.8719306,16.9666645 74.0842092,16.5982471 74.3578947,16.3 C74.6315803,16.0017529 74.9596472,15.773685 75.3421053,15.6157895 C75.7245633,15.4578939 76.1473661,15.3789474 76.6105263,15.3789474 C77.0736865,15.3789474 77.4964893,15.4578939 77.8789474,15.6157895 C78.2614054,15.773685 78.5894723,16.0035073 78.8631579,16.3052632 C79.1368435,16.6070191 79.3491221,16.9771908 79.5,17.4157895 C79.6508779,17.8543882 79.7263158,18.3508744 79.7263158,18.9052632 C79.7263158,19.4666695 79.6508779,19.9684188 79.5,20.4105263 C79.3491221,20.8526338 79.1368435,21.2280686 78.8631579,21.5368421 C78.5894723,21.8456156 78.2614054,22.0824553 77.8789474,22.2473684 C77.4964893,22.4122815 77.0736865,22.4947368 76.6105263,22.4947368 Z M76.6105263,21.1578947 C77.0807041,21.1578947 77.4526302,20.9561424 77.7263158,20.5526316 C78.0000014,20.1491208 78.1368421,19.6000035 78.1368421,18.9052632 C78.1368421,18.2175404 78.0000014,17.6807037 77.7263158,17.2947368 C77.4526302,16.90877 77.0807041,16.7157895 76.6105263,16.7157895 C76.1403485,16.7157895 75.7684224,16.90877 75.4947368,17.2947368 C75.2210513,17.6807037 75.0842105,18.2175404 75.0842105,18.9052632 C75.0842105,19.6000035 75.2210513,20.1491208 75.4947368,20.5526316 C75.7684224,20.9561424 76.1403485,21.1578947 76.6105263,21.1578947 Z M81.0210526,15.5052632 L82.5684211,15.5052632 L82.5684211,22.3684211 L81.0210526,22.3684211 L81.0210526,15.5052632 Z M84.1894737,15.5052632 L85.7789474,15.5052632 L87.5684211,18.9157895 L88.2421053,20.4315789 L88.2842105,20.4315789 C88.2491226,20.0666648 88.2087722,19.6596514 88.1631579,19.2105263 C88.1175436,18.7614013 88.0947368,18.3333354 88.0947368,17.9263158 L88.0947368,15.5052632 L89.5684211,15.5052632 L89.5684211,22.3684211 L87.9789474,22.3684211 L86.1894737,18.9473684 L85.5157895,17.4526316 L85.4736842,17.4526316 C85.5087721,17.8315808 85.5491226,18.2385943 85.5947368,18.6736842 C85.6403511,19.1087741 85.6631579,19.5298225 85.6631579,19.9368421 L85.6631579,22.3684211 L84.1894737,22.3684211 L84.1894737,15.5052632 Z M92.5263158,16.8105263 L90.6421053,16.8105263 L90.6421053,15.5052632 L95.9684211,15.5052632 L95.9684211,16.8105263 L94.0842105,16.8105263 L94.0842105,22.3684211 L92.5263158,22.3684211 L92.5263158,16.8105263 Z M97.0421053,15.5052632 L98.6842105,15.5052632 L99.8315789,18.5894737 L100.242105,19.7894737 L100.284211,19.7894737 L100.694737,18.5894737 L101.810526,15.5052632 L103.442105,15.5052632 L103.442105,22.3684211 L102,22.3684211 L102,19.8526316 C102,19.6842097 102.007017,19.4982466 102.021053,19.2947368 C102.035088,19.0912271 102.052631,18.8859659 102.073684,18.6789474 C102.094737,18.4719288 102.115789,18.2684221 102.136842,18.0684211 C102.157895,17.8684201 102.178947,17.6842114 102.2,17.5157895 L102.157895,17.5157895 L101.589474,19.1052632 L100.536842,21.7684211 L99.9157895,21.7684211 L98.8631579,19.1052632 L98.3157895,17.5157895 L98.2736842,17.5157895 C98.2947369,17.6842114 98.3157894,17.8684201 98.3368421,18.0684211 C98.3578948,18.2684221 98.3771929,18.4719288 98.3947368,18.6789474 C98.4122808,18.8859659 98.4280701,19.0912271 98.4421053,19.2947368 C98.4561404,19.4982466 98.4631579,19.6842097 98.4631579,19.8526316 L98.4631579,22.3684211 L97.0421053,22.3684211 L97.0421053,15.5052632 Z M105.063158,15.5052632 L109.357895,15.5052632 L109.357895,16.8105263 L106.610526,16.8105263 L106.610526,18.1894737 L108.947368,18.1894737 L108.947368,19.4842105 L106.610526,19.4842105 L106.610526,21.0631579 L109.463158,21.0631579 L109.463158,22.3684211 L105.063158,22.3684211 L105.063158,15.5052632 Z M110.831579,15.5052632 L112.421053,15.5052632 L114.210526,18.9157895 L114.884211,20.4315789 L114.926316,20.4315789 C114.891228,20.0666648 114.850877,19.6596514 114.805263,19.2105263 C114.759649,18.7614013 114.736842,18.3333354 114.736842,17.9263158 L114.736842,15.5052632 L116.210526,15.5052632 L116.210526,22.3684211 L114.621053,22.3684211 L112.831579,18.9473684 L112.157895,17.4526316 L112.115789,17.4526316 C112.150877,17.8315808 112.191228,18.2385943 112.236842,18.6736842 C112.282456,19.1087741 112.305263,19.5298225 112.305263,19.9368421 L112.305263,22.3684211 L110.831579,22.3684211 L110.831579,15.5052632 Z M119.168421,16.8105263 L117.284211,16.8105263 L117.284211,15.5052632 L122.610526,15.5052632 L122.610526,16.8105263 L120.726316,16.8105263 L120.726316,22.3684211 L119.168421,22.3684211 L119.168421,16.8105263 Z" id="MAKE-AN-APPOINTMENT" fill="#FFFFFF"></path>
            </g>
            <use id="Rectangle-9" stroke="#979797" mask="url(#mask-2)" stroke-width="2" fill="#F2F2F2" stroke-dasharray="4" xlink:href="#path-1"></use>
            <g id="icon-picture" opacity="0.699999988" transform="translate(409.210526, 105.263158)" stroke="#979797">
                <polyline id="Path-15" stroke-width="2" points="1.67219352 48.4970464 28.4239723 20.6275044 47.2270473 40.3815354 58.2404119 28.8111755 79.0883128 50.7134484"></polyline>
                <circle id="Oval-6" fill="#D8D8D8" cx="65.7894737" cy="14.4736842" r="3.94736842"></circle>
                <rect id="Rectangle-10" stroke-width="2" x="1" y="1" width="78.2631579" height="54.5789474" rx="3"></rect>
            </g>
        </g>
    </g>
</svg>