<?xml version="1.0" encoding="UTF-8"?>
<svg width="600px" height="341px" viewBox="0 0 600 341" version="1.1" xmlns="http://www.w3.org/2000/svg" xmlns:xlink="http://www.w3.org/1999/xlink">
    <!-- Generator: Sketch 44.1 (41455) - http://www.bohemiancoding.com/sketch -->
    <title>calltoaction10</title>
    <desc>Created with Sketch.</desc>
    <defs></defs>
    <g id="Calltoaction" stroke="none" stroke-width="1" fill="none" fill-rule="evenodd">
        <g id="10">
            <rect id="Rectangle-12" fill="#F8F8F8" x="0" y="0" width="600" height="340.434783"></rect>
            <g id="Group-10" transform="translate(234.782609, 232.173913)">
                <rect id="Rectangle-8" fill="#4990E2" x="0" y="0" width="130.434783" height="35.2173913" rx="1"></rect>
                <path d="M30,14.4886957 L32.6178261,14.4886957 C33.0169585,14.4886957 33.3867374,14.5180432 33.7271739,14.5767391 C34.0676104,14.6354351 34.3649987,14.7391297 34.6193478,14.8878261 C34.8736969,15.0365225 35.0732601,15.2321727 35.2180435,15.4747826 C35.3628268,15.7173925 35.4352174,16.0226069 35.4352174,16.3904348 C35.4352174,16.5626096 35.4097829,16.7347817 35.358913,16.9069565 C35.3080432,17.0791313 35.2317396,17.2395645 35.13,17.3882609 C35.0282604,17.5369573 34.8952182,17.6699994 34.7308696,17.7873913 C34.5665209,17.9047832 34.3747837,17.9908693 34.1556522,18.0456522 L34.1556522,18.0926087 C34.703481,18.1943483 35.116303,18.3899986 35.3941304,18.6795652 C35.6719579,18.9691319 35.8108696,19.3721713 35.8108696,19.8886957 C35.8108696,20.280002 35.734566,20.6165203 35.5819565,20.8982609 C35.4293471,21.1800014 35.2180448,21.4128252 34.9480435,21.5967391 C34.6780421,21.7806531 34.3630453,21.9176082 34.0030435,22.0076087 C33.6430417,22.0976091 33.2556542,22.1426087 32.8408696,22.1426087 L30,22.1426087 L30,14.4886957 Z M32.5356522,17.576087 C32.958263,17.576087 33.2654338,17.4919574 33.4571739,17.3236957 C33.648914,17.1554339 33.7447826,16.9265232 33.7447826,16.6369565 C33.7447826,16.3473899 33.6469575,16.1400006 33.4513043,16.0147826 C33.2556512,15.8895646 32.9543499,15.8269565 32.5473913,15.8269565 L31.7256522,15.8269565 L31.7256522,17.576087 L32.5356522,17.576087 Z M32.7,20.8043478 C33.6469613,20.8043478 34.1204348,20.4560904 34.1204348,19.7595652 C34.1204348,19.4230418 34.0030447,19.178479 33.7682609,19.0258696 C33.5334771,18.8732601 33.1773937,18.7969565 32.7,18.7969565 L31.7256522,18.7969565 L31.7256522,20.8043478 L32.7,20.8043478 Z M40.2130435,22.2834783 C39.6965192,22.2834783 39.2250021,22.1915227 38.7984783,22.0076087 C38.3719544,21.8236947 38.0060885,21.5595669 37.7008696,21.2152174 C37.3956506,20.8708678 37.1589139,20.4521764 36.9906522,19.9591304 C36.8223905,19.4660845 36.7382609,18.9065249 36.7382609,18.2804348 C36.7382609,17.6543447 36.8223905,17.0967416 36.9906522,16.6076087 C37.1589139,16.1184758 37.3956506,15.7076104 37.7008696,15.375 C38.0060885,15.0423896 38.3719544,14.7880444 38.7984783,14.6119565 C39.2250021,14.4358687 39.6965192,14.3478261 40.2130435,14.3478261 C40.7295678,14.3478261 41.2010848,14.4358687 41.6276087,14.6119565 C42.0541326,14.7880444 42.4199985,15.0443461 42.7252174,15.3808696 C43.0304363,15.717393 43.2671731,16.1302149 43.4354348,16.6193478 C43.6036965,17.1084807 43.6878261,17.6621708 43.6878261,18.2804348 C43.6878261,18.9065249 43.6036965,19.4660845 43.4354348,19.9591304 C43.2671731,20.4521764 43.0304363,20.8708678 42.7252174,21.2152174 C42.4199985,21.5595669 42.0541326,21.8236947 41.6276087,22.0076087 C41.2010848,22.1915227 40.7295678,22.2834783 40.2130435,22.2834783 Z M40.2130435,20.7926087 C40.7373939,20.7926087 41.1521724,20.5676109 41.4573913,20.1176087 C41.7626102,19.6676064 41.9152174,19.0552213 41.9152174,18.2804348 C41.9152174,17.5134744 41.7626102,16.9147848 41.4573913,16.4843478 C41.1521724,16.0539109 40.7373939,15.8386957 40.2130435,15.8386957 C39.688693,15.8386957 39.2739146,16.0539109 38.9686957,16.4843478 C38.6634767,16.9147848 38.5108696,17.5134744 38.5108696,18.2804348 C38.5108696,19.0552213 38.6634767,19.6676064 38.9686957,20.1176087 C39.2739146,20.5676109 39.688693,20.7926087 40.2130435,20.7926087 Z M48.2426087,22.2834783 C47.7260844,22.2834783 47.2545673,22.1915227 46.8280435,22.0076087 C46.4015196,21.8236947 46.0356537,21.5595669 45.7304348,21.2152174 C45.4252159,20.8708678 45.1884791,20.4521764 45.0202174,19.9591304 C44.8519557,19.4660845 44.7678261,18.9065249 44.7678261,18.2804348 C44.7678261,17.6543447 44.8519557,17.0967416 45.0202174,16.6076087 C45.1884791,16.1184758 45.4252159,15.7076104 45.7304348,15.375 C46.0356537,15.0423896 46.4015196,14.7880444 46.8280435,14.6119565 C47.2545673,14.4358687 47.7260844,14.3478261 48.2426087,14.3478261 C48.759133,14.3478261 49.23065,14.4358687 49.6571739,14.6119565 C50.0836978,14.7880444 50.4495637,15.0443461 50.7547826,15.3808696 C51.0600015,15.717393 51.2967383,16.1302149 51.465,16.6193478 C51.6332617,17.1084807 51.7173913,17.6621708 51.7173913,18.2804348 C51.7173913,18.9065249 51.6332617,19.4660845 51.465,19.9591304 C51.2967383,20.4521764 51.0600015,20.8708678 50.7547826,21.2152174 C50.4495637,21.5595669 50.0836978,21.8236947 49.6571739,22.0076087 C49.23065,22.1915227 48.759133,22.2834783 48.2426087,22.2834783 Z M48.2426087,20.7926087 C48.7669591,20.7926087 49.1817376,20.5676109 49.4869565,20.1176087 C49.7921754,19.6676064 49.9447826,19.0552213 49.9447826,18.2804348 C49.9447826,17.5134744 49.7921754,16.9147848 49.4869565,16.4843478 C49.1817376,16.0539109 48.7669591,15.8386957 48.2426087,15.8386957 C47.7182582,15.8386957 47.3034798,16.0539109 46.9982609,16.4843478 C46.693042,16.9147848 46.5404348,17.5134744 46.5404348,18.2804348 C46.5404348,19.0552213 46.693042,19.6676064 46.9982609,20.1176087 C47.3034798,20.5676109 47.7182582,20.7926087 48.2426087,20.7926087 Z M53.1613043,14.4886957 L54.8869565,14.4886957 L54.8869565,17.6230435 L54.933913,17.6230435 L57.2113043,14.4886957 L59.1130435,14.4886957 L56.8004348,17.5408696 L59.5356522,22.1426087 L57.6456522,22.1426087 L55.7791304,18.9143478 L54.8869565,20.0882609 L54.8869565,22.1426087 L53.1613043,22.1426087 L53.1613043,14.4886957 Z M65.9217391,22.2834783 C65.4052148,22.2834783 64.9336978,22.1915227 64.5071739,22.0076087 C64.08065,21.8236947 63.7147841,21.5595669 63.4095652,21.2152174 C63.1043463,20.8708678 62.8676095,20.4521764 62.6993478,19.9591304 C62.5310861,19.4660845 62.4469565,18.9065249 62.4469565,18.2804348 C62.4469565,17.6543447 62.5310861,17.0967416 62.6993478,16.6076087 C62.8676095,16.1184758 63.1043463,15.7076104 63.4095652,15.375 C63.7147841,15.0423896 64.08065,14.7880444 64.5071739,14.6119565 C64.9336978,14.4358687 65.4052148,14.3478261 65.9217391,14.3478261 C66.4382635,14.3478261 66.9097805,14.4358687 67.3363043,14.6119565 C67.7628282,14.7880444 68.1286941,15.0443461 68.433913,15.3808696 C68.739132,15.717393 68.9758687,16.1302149 69.1441304,16.6193478 C69.3123921,17.1084807 69.3965217,17.6621708 69.3965217,18.2804348 C69.3965217,18.9065249 69.3123921,19.4660845 69.1441304,19.9591304 C68.9758687,20.4521764 68.739132,20.8708678 68.433913,21.2152174 C68.1286941,21.5595669 67.7628282,21.8236947 67.3363043,22.0076087 C66.9097805,22.1915227 66.4382635,22.2834783 65.9217391,22.2834783 Z M65.9217391,20.7926087 C66.4460896,20.7926087 66.860868,20.5676109 67.166087,20.1176087 C67.4713059,19.6676064 67.623913,19.0552213 67.623913,18.2804348 C67.623913,17.5134744 67.4713059,16.9147848 67.166087,16.4843478 C66.860868,16.0539109 66.4460896,15.8386957 65.9217391,15.8386957 C65.3973887,15.8386957 64.9826102,16.0539109 64.6773913,16.4843478 C64.3721724,16.9147848 64.2195652,17.5134744 64.2195652,18.2804348 C64.2195652,19.0552213 64.3721724,19.6676064 64.6773913,20.1176087 C64.9826102,20.5676109 65.3973887,20.7926087 65.9217391,20.7926087 Z M70.8404348,14.4886957 L72.6130435,14.4886957 L74.6086957,18.2921739 L75.36,19.9826087 L75.4069565,19.9826087 C75.3678259,19.5756501 75.3228263,19.1217416 75.2719565,18.6208696 C75.2210867,18.1199975 75.1956522,17.642611 75.1956522,17.1886957 L75.1956522,14.4886957 L76.8391304,14.4886957 L76.8391304,22.1426087 L75.0665217,22.1426087 L73.0708696,18.3273913 L72.3195652,16.6604348 L72.2726087,16.6604348 C72.3117393,17.0830456 72.3567389,17.5369541 72.4076087,18.0221739 C72.4584785,18.5073937 72.483913,18.9769543 72.483913,19.4308696 L72.483913,22.1426087 L70.8404348,22.1426087 L70.8404348,14.4886957 Z M78.6469565,14.4886957 L80.3726087,14.4886957 L80.3726087,20.6869565 L83.4013043,20.6869565 L83.4013043,22.1426087 L78.6469565,22.1426087 L78.6469565,14.4886957 Z M84.7278261,14.4886957 L86.4534783,14.4886957 L86.4534783,22.1426087 L84.7278261,22.1426087 L84.7278261,14.4886957 Z M88.2613043,14.4886957 L90.033913,14.4886957 L92.0295652,18.2921739 L92.7808696,19.9826087 L92.8278261,19.9826087 C92.7886955,19.5756501 92.7436959,19.1217416 92.6928261,18.6208696 C92.6419563,18.1199975 92.6165217,17.642611 92.6165217,17.1886957 L92.6165217,14.4886957 L94.26,14.4886957 L94.26,22.1426087 L92.4873913,22.1426087 L90.4917391,18.3273913 L89.7404348,16.6604348 L89.6934783,16.6604348 C89.7326089,17.0830456 89.7776084,17.5369541 89.8284783,18.0221739 C89.8793481,18.5073937 89.9047826,18.9769543 89.9047826,19.4308696 L89.9047826,22.1426087 L88.2613043,22.1426087 L88.2613043,14.4886957 Z M96.0678261,14.4886957 L100.857391,14.4886957 L100.857391,15.9443478 L97.7934783,15.9443478 L97.7934783,17.4821739 L100.399565,17.4821739 L100.399565,18.926087 L97.7934783,18.926087 L97.7934783,20.6869565 L100.974783,20.6869565 L100.974783,22.1426087 L96.0678261,22.1426087 L96.0678261,14.4886957 Z" id="BOOK-ONLINE" fill="#FFFFFF"></path>
            </g>
            <path d="M148.043478,126.521739 L450.663418,126.521739" id="Line" stroke="#979797" stroke-width="4" stroke-linecap="square"></path>
            <path d="M241.956522,146.086957 L357.420777,146.086957" id="Line" stroke="#979797" stroke-width="4" stroke-linecap="square"></path>
            <path d="M221.454783,76.3382609 C221.454783,75.1408636 221.639563,74.0728308 222.00913,73.1341304 C222.378697,72.1954301 222.877606,71.4008728 223.50587,70.7504348 C224.134134,70.0999967 224.865865,69.6047843 225.701087,69.2647826 C226.536309,68.9247809 227.419561,68.7547826 228.35087,68.7547826 C229.252613,68.7547826 230.069344,68.943259 230.801087,69.3202174 C231.53283,69.6971758 232.142606,70.136954 232.630435,70.6395652 L230.834348,72.6573913 C230.464781,72.3173896 230.091524,72.0513053 229.714565,71.8591304 C229.337607,71.6669556 228.897829,71.5708696 228.395217,71.5708696 C227.892606,71.5708696 227.423263,71.6780424 226.987174,71.8923913 C226.551085,72.1067402 226.170436,72.4134763 225.845217,72.8126087 C225.519998,73.2117411 225.265001,73.6995623 225.080217,74.276087 C224.895434,74.8526116 224.803043,75.5030399 224.803043,76.2273913 C224.803043,77.7204422 225.120866,78.8771698 225.756522,79.6976087 C226.392177,80.5180476 227.242169,80.9282609 228.306522,80.9282609 C228.897829,80.9282609 229.415215,80.8100012 229.858696,80.5734783 C230.302176,80.3369553 230.701303,80.0265237 231.056087,79.6421739 L232.852174,81.6156522 C232.246084,82.3252209 231.555004,82.8573895 230.778913,83.2121739 C230.002822,83.5669583 229.163918,83.7443478 228.262174,83.7443478 C227.330865,83.7443478 226.451308,83.5854364 225.623478,83.2676087 C224.795648,82.949781 224.071307,82.4804379 223.450435,81.8595652 C222.829562,81.2386925 222.341741,80.466309 221.986957,79.5423913 C221.632172,78.6184736 221.454783,77.5504408 221.454783,76.3382609 Z M241.167391,77.4913043 L240.834783,76.1608696 C240.627825,75.4365181 240.428262,74.6678302 240.236087,73.8547826 C240.043912,73.0417351 239.85174,72.2582646 239.659565,71.5043478 L239.57087,71.5043478 C239.393477,72.2730473 239.212392,73.0602134 239.027609,73.8658696 C238.842825,74.6715258 238.646958,75.4365181 238.44,76.1608696 L238.085217,77.4913043 L241.167391,77.4913043 Z M241.832609,80.0413043 L237.42,80.0413043 L236.533043,83.4782609 L233.206957,83.4782609 L237.730435,69.0208696 L241.655217,69.0208696 L246.178696,83.4782609 L242.719565,83.4782609 L241.832609,80.0413043 Z M247.753043,69.0208696 L251.012609,69.0208696 L251.012609,80.7286957 L256.733478,80.7286957 L256.733478,83.4782609 L247.753043,83.4782609 L247.753043,69.0208696 Z M259.23913,69.0208696 L262.498696,69.0208696 L262.498696,80.7286957 L268.219565,80.7286957 L268.219565,83.4782609 L259.23913,83.4782609 L259.23913,69.0208696 Z M278.153478,71.7704348 L274.184348,71.7704348 L274.184348,69.0208696 L285.404348,69.0208696 L285.404348,71.7704348 L281.435217,71.7704348 L281.435217,83.4782609 L278.153478,83.4782609 L278.153478,71.7704348 Z M293.542174,83.7443478 C292.566517,83.7443478 291.675874,83.5706539 290.870217,83.2232609 C290.064561,82.8758678 289.373481,82.3769598 288.796957,81.7265217 C288.220432,81.0760837 287.773262,80.285222 287.455435,79.353913 C287.137607,78.422604 286.978696,77.3656581 286.978696,76.1830435 C286.978696,75.0004289 287.137607,73.9471785 287.455435,73.0232609 C287.773262,72.0993432 288.220432,71.323264 288.796957,70.695 C289.373481,70.066736 290.064561,69.586306 290.870217,69.2536957 C291.675874,68.9210853 292.566517,68.7547826 293.542174,68.7547826 C294.517831,68.7547826 295.408474,68.9210853 296.21413,69.2536957 C297.019787,69.586306 297.710867,70.0704316 298.287391,70.706087 C298.863916,71.3417423 299.311085,72.1215171 299.628913,73.0454348 C299.946741,73.9693524 300.105652,75.0152116 300.105652,76.1830435 C300.105652,77.3656581 299.946741,78.422604 299.628913,79.353913 C299.311085,80.285222 298.863916,81.0760837 298.287391,81.7265217 C297.710867,82.3769598 297.019787,82.8758678 296.21413,83.2232609 C295.408474,83.5706539 294.517831,83.7443478 293.542174,83.7443478 Z M293.542174,80.9282609 C294.532614,80.9282609 295.316084,80.5032651 295.892609,79.6532609 C296.469133,78.8032566 296.757391,77.6465291 296.757391,76.1830435 C296.757391,74.7343406 296.469133,73.6034823 295.892609,72.7904348 C295.316084,71.9773872 294.532614,71.5708696 293.542174,71.5708696 C292.551734,71.5708696 291.768264,71.9773872 291.191739,72.7904348 C290.615215,73.6034823 290.326957,74.7343406 290.326957,76.1830435 C290.326957,77.6465291 290.615215,78.8032566 291.191739,79.6532609 C291.768264,80.5032651 292.551734,80.9282609 293.542174,80.9282609 Z M313.565217,77.4913043 L313.232609,76.1608696 C313.025651,75.4365181 312.826088,74.6678302 312.633913,73.8547826 C312.441738,73.0417351 312.249566,72.2582646 312.057391,71.5043478 L311.968696,71.5043478 C311.791303,72.2730473 311.610218,73.0602134 311.425435,73.8658696 C311.240651,74.6715258 311.044784,75.4365181 310.837826,76.1608696 L310.483043,77.4913043 L313.565217,77.4913043 Z M314.230435,80.0413043 L309.817826,80.0413043 L308.93087,83.4782609 L305.604783,83.4782609 L310.128261,69.0208696 L314.053043,69.0208696 L318.576522,83.4782609 L315.117391,83.4782609 L314.230435,80.0413043 Z M319.463478,76.3382609 C319.463478,75.1408636 319.648259,74.0728308 320.017826,73.1341304 C320.387393,72.1954301 320.886301,71.4008728 321.514565,70.7504348 C322.142829,70.0999967 322.874561,69.6047843 323.709783,69.2647826 C324.545004,68.9247809 325.428256,68.7547826 326.359565,68.7547826 C327.261309,68.7547826 328.07804,68.943259 328.809783,69.3202174 C329.541525,69.6971758 330.151302,70.136954 330.63913,70.6395652 L328.843043,72.6573913 C328.473476,72.3173896 328.100219,72.0513053 327.723261,71.8591304 C327.346302,71.6669556 326.906524,71.5708696 326.403913,71.5708696 C325.901302,71.5708696 325.431959,71.6780424 324.99587,71.8923913 C324.55978,72.1067402 324.179132,72.4134763 323.853913,72.8126087 C323.528694,73.2117411 323.273697,73.6995623 323.088913,74.276087 C322.90413,74.8526116 322.811739,75.5030399 322.811739,76.2273913 C322.811739,77.7204422 323.129562,78.8771698 323.765217,79.6976087 C324.400873,80.5180476 325.250864,80.9282609 326.315217,80.9282609 C326.906525,80.9282609 327.423911,80.8100012 327.867391,80.5734783 C328.310872,80.3369553 328.709998,80.0265237 329.064783,79.6421739 L330.86087,81.6156522 C330.25478,82.3252209 329.5637,82.8573895 328.787609,83.2121739 C328.011518,83.5669583 327.172613,83.7443478 326.27087,83.7443478 C325.339561,83.7443478 324.460004,83.5854364 323.632174,83.2676087 C322.804344,82.949781 322.080003,82.4804379 321.45913,81.8595652 C320.838258,81.2386925 320.350437,80.466309 319.995652,79.5423913 C319.640868,78.6184736 319.463478,77.5504408 319.463478,76.3382609 Z M335.872174,71.7704348 L331.903043,71.7704348 L331.903043,69.0208696 L343.123043,69.0208696 L343.123043,71.7704348 L339.153913,71.7704348 L339.153913,83.4782609 L335.872174,83.4782609 L335.872174,71.7704348 Z M345.384783,69.0208696 L348.644348,69.0208696 L348.644348,83.4782609 L345.384783,83.4782609 L345.384783,69.0208696 Z M357.935217,83.7443478 C356.95956,83.7443478 356.068917,83.5706539 355.263261,83.2232609 C354.457605,82.8758678 353.766525,82.3769598 353.19,81.7265217 C352.613475,81.0760837 352.166306,80.285222 351.848478,79.353913 C351.530651,78.422604 351.371739,77.3656581 351.371739,76.1830435 C351.371739,75.0004289 351.530651,73.9471785 351.848478,73.0232609 C352.166306,72.0993432 352.613475,71.323264 353.19,70.695 C353.766525,70.066736 354.457605,69.586306 355.263261,69.2536957 C356.068917,68.9210853 356.95956,68.7547826 357.935217,68.7547826 C358.910874,68.7547826 359.801518,68.9210853 360.607174,69.2536957 C361.41283,69.586306 362.10391,70.0704316 362.680435,70.706087 C363.256959,71.3417423 363.704129,72.1215171 364.021957,73.0454348 C364.339784,73.9693524 364.498696,75.0152116 364.498696,76.1830435 C364.498696,77.3656581 364.339784,78.422604 364.021957,79.353913 C363.704129,80.285222 363.256959,81.0760837 362.680435,81.7265217 C362.10391,82.3769598 361.41283,82.8758678 360.607174,83.2232609 C359.801518,83.5706539 358.910874,83.7443478 357.935217,83.7443478 Z M357.935217,80.9282609 C358.925657,80.9282609 359.709128,80.5032651 360.285652,79.6532609 C360.862177,78.8032566 361.150435,77.6465291 361.150435,76.1830435 C361.150435,74.7343406 360.862177,73.6034823 360.285652,72.7904348 C359.709128,71.9773872 358.925657,71.5708696 357.935217,71.5708696 C356.944778,71.5708696 356.161307,71.9773872 355.584783,72.7904348 C355.008258,73.6034823 354.72,74.7343406 354.72,76.1830435 C354.72,77.6465291 355.008258,78.8032566 355.584783,79.6532609 C356.161307,80.5032651 356.944778,80.9282609 357.935217,80.9282609 Z M367.226087,69.0208696 L370.574348,69.0208696 L374.343913,76.2052174 L375.763043,79.3982609 L375.851739,79.3982609 C375.777826,78.6295614 375.692827,77.7721786 375.596739,76.826087 C375.500652,75.8799953 375.452609,74.9782652 375.452609,74.1208696 L375.452609,69.0208696 L378.556957,69.0208696 L378.556957,83.4782609 L375.208696,83.4782609 L371.43913,76.2717391 L370.02,73.1230435 L369.931304,73.1230435 C370.005218,73.9213083 370.090217,74.7786911 370.186304,75.6952174 C370.282392,76.6117437 370.330435,77.4986914 370.330435,78.356087 L370.330435,83.4782609 L367.226087,83.4782609 L367.226087,69.0208696 Z" id="CALL-TO-ACTION" fill="#79797B"></path>
            <path d="M206.086957,192.067826 C206.086957,191.174778 206.211303,190.372177 206.46,189.66 C206.708697,188.947823 207.053476,188.343046 207.494348,187.845652 C207.93522,187.348258 208.45804,186.96674 209.062826,186.701087 C209.667612,186.435433 210.326083,186.302609 211.038261,186.302609 C211.716525,186.302609 212.309997,186.441086 212.818696,186.718043 C213.327394,186.995001 213.745651,187.314346 214.073478,187.676087 L213.276522,188.574783 C212.982607,188.258259 212.65761,188.00674 212.301522,187.820217 C211.945433,187.633695 211.530002,187.540435 211.055217,187.540435 C210.52391,187.540435 210.04348,187.644999 209.613913,187.85413 C209.184346,188.063262 208.816958,188.362824 208.511739,188.752826 C208.20652,189.142828 207.969131,189.61478 207.799565,190.168696 C207.629999,190.722611 207.545217,191.344344 207.545217,192.033913 C207.545217,192.734786 207.627173,193.364997 207.791087,193.924565 C207.955001,194.484133 208.183912,194.961737 208.477826,195.357391 C208.771741,195.753045 209.13065,196.05826 209.554565,196.273043 C209.97848,196.487827 210.456084,196.595217 210.987391,196.595217 C211.530003,196.595217 212.001955,196.487827 212.403261,196.273043 C212.804567,196.05826 213.186085,195.753045 213.547826,195.357391 L214.344783,196.222174 C213.903911,196.730872 213.406525,197.12652 212.852609,197.40913 C212.298693,197.691741 211.665656,197.833043 210.953478,197.833043 C210.252605,197.833043 209.605438,197.703045 209.011957,197.443043 C208.418475,197.183042 207.904133,196.807176 207.468913,196.315435 C207.033693,195.823693 206.694566,195.218917 206.451522,194.501087 C206.208477,193.783257 206.086957,192.972178 206.086957,192.067826 Z M221.144348,193.102174 L220.618696,191.406522 C220.415216,190.78478 220.223044,190.165873 220.042174,189.549783 C219.861303,188.933693 219.680436,188.303481 219.499565,187.65913 L219.431739,187.65913 C219.262173,188.303481 219.086957,188.933693 218.906087,189.549783 C218.725216,190.165873 218.533044,190.78478 218.329565,191.406522 L217.803913,193.102174 L221.144348,193.102174 Z M221.500435,194.238261 L217.447826,194.238261 L216.379565,197.629565 L214.938261,197.629565 L218.702609,186.506087 L220.296522,186.506087 L224.06087,197.629565 L222.551739,197.629565 L221.500435,194.238261 Z M225.637826,186.506087 L227.045217,186.506087 L227.045217,196.425652 L231.911739,196.425652 L231.911739,197.629565 L225.637826,197.629565 L225.637826,186.506087 Z M233.878696,186.506087 L235.286087,186.506087 L235.286087,196.425652 L240.152609,196.425652 L240.152609,197.629565 L233.878696,197.629565 L233.878696,186.506087 Z M245.544783,186.506087 L247.003043,186.506087 L251.021739,193.492174 L252.225652,195.798261 L252.293478,195.798261 C252.259565,195.233041 252.222826,194.648047 252.183261,194.043261 C252.143695,193.438475 252.123913,192.842177 252.123913,192.254348 L252.123913,186.506087 L253.463478,186.506087 L253.463478,197.629565 L252.005217,197.629565 L247.969565,190.626522 L246.765652,188.337391 L246.697826,188.337391 C246.743044,188.902612 246.785435,189.476301 246.825,190.058478 C246.864565,190.640655 246.884348,191.225649 246.884348,191.813478 L246.884348,197.629565 L245.544783,197.629565 L245.544783,186.506087 Z M260.61913,197.833043 C259.918257,197.833043 259.276742,197.697393 258.694565,197.426087 C258.112388,197.154781 257.612176,196.767611 257.193913,196.264565 C256.77565,195.761519 256.450653,195.151091 256.218913,194.433261 C255.987173,193.715431 255.871304,192.910004 255.871304,192.016957 C255.871304,191.123909 255.987173,190.324134 256.218913,189.617609 C256.450653,188.911083 256.77565,188.311959 257.193913,187.820217 C257.612176,187.328476 258.112388,186.95261 258.694565,186.692609 C259.276742,186.432607 259.918257,186.302609 260.61913,186.302609 C261.320004,186.302609 261.961519,186.435433 262.543696,186.701087 C263.125872,186.96674 263.628911,187.345432 264.052826,187.837174 C264.476741,188.328916 264.804564,188.92804 265.036304,189.634565 C265.268045,190.34109 265.383913,191.135213 265.383913,192.016957 C265.383913,192.910004 265.268045,193.715431 265.036304,194.433261 C264.804564,195.151091 264.476741,195.761519 264.052826,196.264565 C263.628911,196.767611 263.125872,197.154781 262.543696,197.426087 C261.961519,197.697393 261.320004,197.833043 260.61913,197.833043 Z M260.61913,196.595217 C261.116524,196.595217 261.565868,196.487827 261.967174,196.273043 C262.36848,196.05826 262.713259,195.750219 263.001522,195.348913 C263.289784,194.947607 263.513043,194.467177 263.671304,193.907609 C263.829566,193.348041 263.908696,192.71783 263.908696,192.016957 C263.908696,191.327388 263.829566,190.705655 263.671304,190.151739 C263.513043,189.597823 263.289784,189.128698 263.001522,188.744348 C262.713259,188.359998 262.36848,188.063262 261.967174,187.85413 C261.565868,187.644999 261.116524,187.540435 260.61913,187.540435 C260.121737,187.540435 259.672393,187.644999 259.271087,187.85413 C258.869781,188.063262 258.525001,188.359998 258.236739,188.744348 C257.948477,189.128698 257.725218,189.597823 257.566957,190.151739 C257.408695,190.705655 257.329565,191.327388 257.329565,192.016957 C257.329565,192.71783 257.408695,193.348041 257.566957,193.907609 C257.725218,194.467177 257.948477,194.947607 258.236739,195.348913 C258.525001,195.750219 258.869781,196.05826 259.271087,196.273043 C259.672393,196.487827 260.121737,196.595217 260.61913,196.595217 Z M266.638696,186.506087 L268.096957,186.506087 L269.266957,192.559565 C269.368696,193.170003 269.476086,193.769127 269.58913,194.356957 C269.702174,194.944786 269.809565,195.54391 269.911304,196.154348 L269.97913,196.154348 C270.103479,195.54391 270.233478,194.941959 270.36913,194.348478 C270.504783,193.754997 270.634782,193.158699 270.75913,192.559565 L272.302174,186.506087 L273.59087,186.506087 L275.133913,192.559565 C275.269566,193.147394 275.405217,193.740867 275.54087,194.34 C275.676522,194.939133 275.812173,195.54391 275.947826,196.154348 L276.015652,196.154348 C276.117392,195.54391 276.21913,194.941959 276.32087,194.348478 C276.422609,193.754997 276.529999,193.158699 276.643043,192.559565 L277.813043,186.506087 L279.169565,186.506087 L276.863478,197.629565 L275.167826,197.629565 L273.48913,190.931739 C273.387391,190.502172 273.294131,190.081089 273.209348,189.668478 C273.124565,189.255868 273.036957,188.834785 272.946522,188.405217 L272.878696,188.405217 C272.78826,188.834785 272.695,189.255868 272.598913,189.668478 C272.502826,190.081089 272.409566,190.502172 272.31913,190.931739 L270.674348,197.629565 L268.995652,197.629565 L266.638696,186.506087 Z M286.630435,200.613913 C285.929562,199.483473 285.381306,198.290876 284.985652,197.036087 C284.589998,195.781298 284.392174,194.407834 284.392174,192.915652 C284.392174,191.423471 284.589998,190.052832 284.985652,188.803696 C285.381306,187.554559 285.929562,186.359136 286.630435,185.217391 L287.495217,185.624348 C286.839562,186.709571 286.350654,187.871081 286.028478,189.108913 C285.706303,190.346745 285.545217,191.615646 285.545217,192.915652 C285.545217,194.215659 285.706303,195.484559 286.028478,196.722391 C286.350654,197.960224 286.839562,199.121734 287.495217,200.206957 L286.630435,200.613913 Z M289.47913,196.476522 L291.954783,196.476522 L291.954783,188.506957 L289.987826,188.506957 L289.987826,187.608261 C290.48522,187.517826 290.917607,187.407609 291.285,187.277609 C291.652393,187.147608 291.983042,186.992175 292.276957,186.811304 L293.345217,186.811304 L293.345217,196.476522 L295.583478,196.476522 L295.583478,197.629565 L289.47913,197.629565 L289.47913,196.476522 Z M297.211304,200.206957 C297.86696,199.121734 298.355868,197.960224 298.678043,196.722391 C299.000219,195.484559 299.161304,194.215659 299.161304,192.915652 C299.161304,191.615646 299.000219,190.346745 298.678043,189.108913 C298.355868,187.871081 297.86696,186.709571 297.211304,185.624348 L298.076087,185.217391 C298.77696,186.359136 299.325215,187.554559 299.72087,188.803696 C300.116524,190.052832 300.314348,191.423471 300.314348,192.915652 C300.314348,194.407834 300.116524,195.781298 299.72087,197.036087 C299.325215,198.290876 298.77696,199.483473 298.076087,200.613913 L297.211304,200.206957 Z M302.4,192.847826 L306.3,192.847826 L306.3,193.916087 L302.4,193.916087 L302.4,192.847826 Z M312.133043,193.526087 L312.133043,190.38913 C312.133043,190.095216 312.141522,189.747611 312.158478,189.346304 C312.175435,188.944998 312.195217,188.597393 312.217826,188.303478 L312.15,188.303478 C312.014347,188.56348 311.873044,188.817825 311.726087,189.066522 C311.57913,189.315219 311.426523,189.569564 311.268261,189.829565 L308.741739,193.526087 L312.133043,193.526087 Z M314.93087,194.645217 L313.455652,194.645217 L313.455652,197.629565 L312.133043,197.629565 L312.133043,194.645217 L307.266522,194.645217 L307.266522,193.729565 L311.895652,186.811304 L313.455652,186.811304 L313.455652,193.526087 L314.93087,193.526087 L314.93087,194.645217 Z M320.560435,193.526087 L320.560435,190.38913 C320.560435,190.095216 320.568913,189.747611 320.58587,189.346304 C320.602826,188.944998 320.622609,188.597393 320.645217,188.303478 L320.577391,188.303478 C320.441738,188.56348 320.300436,188.817825 320.153478,189.066522 C320.006521,189.315219 319.853914,189.569564 319.695652,189.829565 L317.16913,193.526087 L320.560435,193.526087 Z M323.358261,194.645217 L321.883043,194.645217 L321.883043,197.629565 L320.560435,197.629565 L320.560435,194.645217 L315.693913,194.645217 L315.693913,193.729565 L320.323043,186.811304 L321.883043,186.811304 L321.883043,193.526087 L323.358261,193.526087 L323.358261,194.645217 Z M328.987826,193.526087 L328.987826,190.38913 C328.987826,190.095216 328.996304,189.747611 329.013261,189.346304 C329.030217,188.944998 329.05,188.597393 329.072609,188.303478 L329.004783,188.303478 C328.86913,188.56348 328.727827,188.817825 328.58087,189.066522 C328.433912,189.315219 328.281305,189.569564 328.123043,189.829565 L325.596522,193.526087 L328.987826,193.526087 Z M331.785652,194.645217 L330.310435,194.645217 L330.310435,197.629565 L328.987826,197.629565 L328.987826,194.645217 L324.121304,194.645217 L324.121304,193.729565 L328.750435,186.811304 L330.310435,186.811304 L330.310435,193.526087 L331.785652,193.526087 L331.785652,194.645217 Z M332.955652,192.847826 L336.855652,192.847826 L336.855652,193.916087 L332.955652,193.916087 L332.955652,192.847826 Z M339.483913,194.73 C339.483913,195.035219 339.54326,195.312173 339.661957,195.56087 C339.780653,195.809566 339.944564,196.027173 340.153696,196.213696 C340.362827,196.400218 340.608694,196.544347 340.891304,196.646087 C341.173914,196.747827 341.479129,196.798696 341.806957,196.798696 C342.440003,196.798696 342.95152,196.62348 343.341522,196.273043 C343.731524,195.922607 343.926522,195.464785 343.926522,194.899565 C343.926522,194.549129 343.847392,194.249566 343.68913,194.00087 C343.530869,193.752173 343.316088,193.534566 343.044783,193.348043 C342.773477,193.161521 342.459784,192.991957 342.103696,192.839348 C341.747607,192.686738 341.377393,192.531305 340.993043,192.373043 C340.563476,192.666958 340.204567,193.008911 339.916304,193.398913 C339.628042,193.788915 339.483913,194.232606 339.483913,194.73 Z M342.536087,191.728696 C342.897828,191.400868 343.177608,191.056089 343.375435,190.694348 C343.573262,190.332607 343.672174,189.953915 343.672174,189.558261 C343.672174,189.015649 343.508263,188.560654 343.180435,188.193261 C342.852607,187.825868 342.389133,187.642174 341.79,187.642174 C341.281302,187.642174 340.863045,187.800433 340.535217,188.116957 C340.20739,188.43348 340.043478,188.857389 340.043478,189.388696 C340.043478,189.716523 340.111304,189.996303 340.246957,190.228043 C340.382609,190.459784 340.566303,190.666086 340.798043,190.846957 C341.029784,191.027827 341.295433,191.188912 341.595,191.330217 C341.894567,191.471522 342.208259,191.604347 342.536087,191.728696 Z M338.22913,194.865652 C338.22913,194.515216 338.288478,194.190219 338.407174,193.890652 C338.52587,193.591085 338.678477,193.319784 338.865,193.076739 C339.051523,192.833694 339.266303,192.618914 339.509348,192.432391 C339.752393,192.245869 340.003912,192.084783 340.263913,191.94913 L340.263913,191.881304 C339.868259,191.598694 339.517828,191.256741 339.212609,190.855435 C338.90739,190.454128 338.754783,189.96522 338.754783,189.388696 C338.754783,188.970433 338.833912,188.591741 338.992174,188.252609 C339.150436,187.913477 339.365216,187.622393 339.636522,187.379348 C339.907827,187.136303 340.229998,186.946957 340.603043,186.811304 C340.976089,186.675651 341.383041,186.607826 341.823913,186.607826 C342.298698,186.607826 342.722607,186.678478 343.095652,186.819783 C343.468698,186.961088 343.788042,187.158912 344.053696,187.413261 C344.319349,187.66761 344.522825,187.972824 344.66413,188.328913 C344.805435,188.685002 344.876087,189.072172 344.876087,189.490435 C344.876087,189.773045 344.828044,190.044347 344.731957,190.304348 C344.635869,190.564349 344.517175,190.80739 344.37587,191.033478 C344.234565,191.259566 344.076305,191.463043 343.901087,191.643913 C343.725869,191.824784 343.553479,191.977391 343.383913,192.101739 L343.383913,192.169565 C343.621306,192.305218 343.853042,192.460651 344.07913,192.63587 C344.305219,192.811088 344.505869,193.008912 344.681087,193.229348 C344.856305,193.449784 344.997608,193.701303 345.105,193.983913 C345.212392,194.266523 345.266087,194.588694 345.266087,194.950435 C345.266087,195.357393 345.181305,195.736085 345.011739,196.086522 C344.842173,196.436958 344.604784,196.742173 344.299565,197.002174 C343.994346,197.262175 343.626959,197.465651 343.197391,197.612609 C342.767824,197.759566 342.293046,197.833043 341.773043,197.833043 C341.264345,197.833043 340.792393,197.759566 340.357174,197.612609 C339.921954,197.465651 339.548915,197.259349 339.238043,196.993696 C338.927172,196.728042 338.681305,196.41435 338.500435,196.052609 C338.319564,195.690868 338.22913,195.29522 338.22913,194.865652 Z M347.911304,194.73 C347.911304,195.035219 347.970652,195.312173 348.089348,195.56087 C348.208044,195.809566 348.371955,196.027173 348.581087,196.213696 C348.790218,196.400218 349.036086,196.544347 349.318696,196.646087 C349.601306,196.747827 349.90652,196.798696 350.234348,196.798696 C350.867394,196.798696 351.378911,196.62348 351.768913,196.273043 C352.158915,195.922607 352.353913,195.464785 352.353913,194.899565 C352.353913,194.549129 352.274783,194.249566 352.116522,194.00087 C351.95826,193.752173 351.74348,193.534566 351.472174,193.348043 C351.200868,193.161521 350.887176,192.991957 350.531087,192.839348 C350.174998,192.686738 349.804785,192.531305 349.420435,192.373043 C348.990867,192.666958 348.631958,193.008911 348.343696,193.398913 C348.055433,193.788915 347.911304,194.232606 347.911304,194.73 Z M350.963478,191.728696 C351.325219,191.400868 351.604999,191.056089 351.802826,190.694348 C352.000653,190.332607 352.099565,189.953915 352.099565,189.558261 C352.099565,189.015649 351.935654,188.560654 351.607826,188.193261 C351.279998,187.825868 350.816525,187.642174 350.217391,187.642174 C349.708693,187.642174 349.290436,187.800433 348.962609,188.116957 C348.634781,188.43348 348.47087,188.857389 348.47087,189.388696 C348.47087,189.716523 348.538695,189.996303 348.674348,190.228043 C348.810001,190.459784 348.993694,190.666086 349.225435,190.846957 C349.457175,191.027827 349.722825,191.188912 350.022391,191.330217 C350.321958,191.471522 350.635651,191.604347 350.963478,191.728696 Z M346.656522,194.865652 C346.656522,194.515216 346.715869,194.190219 346.834565,193.890652 C346.953261,193.591085 347.105869,193.319784 347.292391,193.076739 C347.478914,192.833694 347.693694,192.618914 347.936739,192.432391 C348.179784,192.245869 348.431303,192.084783 348.691304,191.94913 L348.691304,191.881304 C348.29565,191.598694 347.945219,191.256741 347.64,190.855435 C347.334781,190.454128 347.182174,189.96522 347.182174,189.388696 C347.182174,188.970433 347.261304,188.591741 347.419565,188.252609 C347.577827,187.913477 347.792607,187.622393 348.063913,187.379348 C348.335219,187.136303 348.657389,186.946957 349.030435,186.811304 C349.40348,186.675651 349.810433,186.607826 350.251304,186.607826 C350.726089,186.607826 351.149998,186.678478 351.523043,186.819783 C351.896089,186.961088 352.215433,187.158912 352.481087,187.413261 C352.74674,187.66761 352.950217,187.972824 353.091522,188.328913 C353.232827,188.685002 353.303478,189.072172 353.303478,189.490435 C353.303478,189.773045 353.255435,190.044347 353.159348,190.304348 C353.06326,190.564349 352.944566,190.80739 352.803261,191.033478 C352.661956,191.259566 352.503697,191.463043 352.328478,191.643913 C352.15326,191.824784 351.98087,191.977391 351.811304,192.101739 L351.811304,192.169565 C352.048697,192.305218 352.280434,192.460651 352.506522,192.63587 C352.73261,192.811088 352.93326,193.008912 353.108478,193.229348 C353.283697,193.449784 353.424999,193.701303 353.532391,193.983913 C353.639783,194.266523 353.693478,194.588694 353.693478,194.950435 C353.693478,195.357393 353.608696,195.736085 353.43913,196.086522 C353.269564,196.436958 353.032175,196.742173 352.726957,197.002174 C352.421738,197.262175 352.05435,197.465651 351.624783,197.612609 C351.195215,197.759566 350.720437,197.833043 350.200435,197.833043 C349.691737,197.833043 349.219785,197.759566 348.784565,197.612609 C348.349346,197.465651 347.976306,197.259349 347.665435,196.993696 C347.354564,196.728042 347.108697,196.41435 346.927826,196.052609 C346.746956,195.690868 346.656522,195.29522 346.656522,194.865652 Z M356.338696,194.73 C356.338696,195.035219 356.398043,195.312173 356.516739,195.56087 C356.635435,195.809566 356.799347,196.027173 357.008478,196.213696 C357.21761,196.400218 357.463477,196.544347 357.746087,196.646087 C358.028697,196.747827 358.333911,196.798696 358.661739,196.798696 C359.294786,196.798696 359.806302,196.62348 360.196304,196.273043 C360.586306,195.922607 360.781304,195.464785 360.781304,194.899565 C360.781304,194.549129 360.702175,194.249566 360.543913,194.00087 C360.385651,193.752173 360.170871,193.534566 359.899565,193.348043 C359.62826,193.161521 359.314567,192.991957 358.958478,192.839348 C358.60239,192.686738 358.232176,192.531305 357.847826,192.373043 C357.418259,192.666958 357.059349,193.008911 356.771087,193.398913 C356.482825,193.788915 356.338696,194.232606 356.338696,194.73 Z M359.39087,191.728696 C359.752611,191.400868 360.03239,191.056089 360.230217,190.694348 C360.428044,190.332607 360.526957,189.953915 360.526957,189.558261 C360.526957,189.015649 360.363045,188.560654 360.035217,188.193261 C359.70739,187.825868 359.243916,187.642174 358.644783,187.642174 C358.136084,187.642174 357.717828,187.800433 357.39,188.116957 C357.062172,188.43348 356.898261,188.857389 356.898261,189.388696 C356.898261,189.716523 356.966086,189.996303 357.101739,190.228043 C357.237392,190.459784 357.421086,190.666086 357.652826,190.846957 C357.884566,191.027827 358.150216,191.188912 358.449783,191.330217 C358.749349,191.471522 359.063042,191.604347 359.39087,191.728696 Z M355.083913,194.865652 C355.083913,194.515216 355.14326,194.190219 355.261957,193.890652 C355.380653,193.591085 355.53326,193.319784 355.719783,193.076739 C355.906305,192.833694 356.121086,192.618914 356.36413,192.432391 C356.607175,192.245869 356.858694,192.084783 357.118696,191.94913 L357.118696,191.881304 C356.723041,191.598694 356.37261,191.256741 356.067391,190.855435 C355.762172,190.454128 355.609565,189.96522 355.609565,189.388696 C355.609565,188.970433 355.688695,188.591741 355.846957,188.252609 C356.005218,187.913477 356.219999,187.622393 356.491304,187.379348 C356.76261,187.136303 357.084781,186.946957 357.457826,186.811304 C357.830871,186.675651 358.237824,186.607826 358.678696,186.607826 C359.153481,186.607826 359.577389,186.678478 359.950435,186.819783 C360.32348,186.961088 360.642825,187.158912 360.908478,187.413261 C361.174132,187.66761 361.377608,187.972824 361.518913,188.328913 C361.660218,188.685002 361.73087,189.072172 361.73087,189.490435 C361.73087,189.773045 361.682827,190.044347 361.586739,190.304348 C361.490652,190.564349 361.371957,190.80739 361.230652,191.033478 C361.089347,191.259566 360.931088,191.463043 360.75587,191.643913 C360.580651,191.824784 360.408262,191.977391 360.238696,192.101739 L360.238696,192.169565 C360.476088,192.305218 360.707825,192.460651 360.933913,192.63587 C361.160001,192.811088 361.360651,193.008912 361.53587,193.229348 C361.711088,193.449784 361.852391,193.701303 361.959783,193.983913 C362.067174,194.266523 362.12087,194.588694 362.12087,194.950435 C362.12087,195.357393 362.036088,195.736085 361.866522,196.086522 C361.696956,196.436958 361.459567,196.742173 361.154348,197.002174 C360.849129,197.262175 360.481741,197.465651 360.052174,197.612609 C359.622607,197.759566 359.147829,197.833043 358.627826,197.833043 C358.119128,197.833043 357.647176,197.759566 357.211957,197.612609 C356.776737,197.465651 356.403697,197.259349 356.092826,196.993696 C355.781955,196.728042 355.536088,196.41435 355.355217,196.052609 C355.174347,195.690868 355.083913,195.29522 355.083913,194.865652 Z M363.511304,192.847826 L367.411304,192.847826 L367.411304,193.916087 L363.511304,193.916087 L363.511304,192.847826 Z M368.767826,196.798696 C369.581743,195.984779 370.305214,195.250003 370.938261,194.594348 C371.571308,193.938692 372.102607,193.33109 372.532174,192.771522 C372.961741,192.211954 373.289564,191.697611 373.515652,191.228478 C373.74174,190.759345 373.854783,190.30435 373.854783,189.863478 C373.854783,189.241736 373.685219,188.733045 373.346087,188.337391 C373.006955,187.941737 372.492612,187.743913 371.803043,187.743913 C371.350867,187.743913 370.932611,187.871086 370.548261,188.125435 C370.163911,188.379784 369.81348,188.687824 369.496957,189.049565 L368.7,188.252609 C369.152176,187.755215 369.632606,187.356741 370.141304,187.057174 C370.650003,186.757607 371.260431,186.607826 371.972609,186.607826 C372.978701,186.607826 373.769997,186.89891 374.346522,187.481087 C374.923046,188.063264 375.211304,188.834778 375.211304,189.795652 C375.211304,190.30435 375.101088,190.815867 374.880652,191.330217 C374.660216,191.844568 374.355002,192.375867 373.965,192.92413 C373.574998,193.472394 373.111524,194.043258 372.574565,194.636739 C372.037606,195.23022 371.44696,195.860431 370.802609,196.527391 C371.096523,196.504782 371.401738,196.482174 371.718261,196.459565 C372.034784,196.436956 372.334346,196.425652 372.616957,196.425652 L375.753913,196.425652 L375.753913,197.629565 L368.767826,197.629565 L368.767826,196.798696 Z M377.195217,196.798696 C378.009135,195.984779 378.732606,195.250003 379.365652,194.594348 C379.998699,193.938692 380.529998,193.33109 380.959565,192.771522 C381.389133,192.211954 381.716955,191.697611 381.943043,191.228478 C382.169132,190.759345 382.282174,190.30435 382.282174,189.863478 C382.282174,189.241736 382.11261,188.733045 381.773478,188.337391 C381.434346,187.941737 380.920003,187.743913 380.230435,187.743913 C379.778259,187.743913 379.360002,187.871086 378.975652,188.125435 C378.591302,188.379784 378.240871,188.687824 377.924348,189.049565 L377.127391,188.252609 C377.579567,187.755215 378.059997,187.356741 378.568696,187.057174 C379.077394,186.757607 379.687823,186.607826 380.4,186.607826 C381.406092,186.607826 382.197388,186.89891 382.773913,187.481087 C383.350438,188.063264 383.638696,188.834778 383.638696,189.795652 C383.638696,190.30435 383.528479,190.815867 383.308043,191.330217 C383.087608,191.844568 382.782393,192.375867 382.392391,192.92413 C382.002389,193.472394 381.538916,194.043258 381.001957,194.636739 C380.464997,195.23022 379.874351,195.860431 379.23,196.527391 C379.523915,196.504782 379.829129,196.482174 380.145652,196.459565 C380.462175,196.436956 380.761738,196.425652 381.044348,196.425652 L384.181304,196.425652 L384.181304,197.629565 L377.195217,197.629565 L377.195217,196.798696 Z M385.622609,196.798696 C386.436526,195.984779 387.159997,195.250003 387.793043,194.594348 C388.42609,193.938692 388.957389,193.33109 389.386957,192.771522 C389.816524,192.211954 390.144347,191.697611 390.370435,191.228478 C390.596523,190.759345 390.709565,190.30435 390.709565,189.863478 C390.709565,189.241736 390.540002,188.733045 390.20087,188.337391 C389.861737,187.941737 389.347395,187.743913 388.657826,187.743913 C388.20565,187.743913 387.787393,187.871086 387.403043,188.125435 C387.018694,188.379784 386.668262,188.687824 386.351739,189.049565 L385.554783,188.252609 C386.006959,187.755215 386.487389,187.356741 386.996087,187.057174 C387.504785,186.757607 388.115214,186.607826 388.827391,186.607826 C389.833483,186.607826 390.62478,186.89891 391.201304,187.481087 C391.777829,188.063264 392.066087,188.834778 392.066087,189.795652 C392.066087,190.30435 391.955871,190.815867 391.735435,191.330217 C391.514999,191.844568 391.209785,192.375867 390.819783,192.92413 C390.429781,193.472394 389.966307,194.043258 389.429348,194.636739 C388.892389,195.23022 388.301742,195.860431 387.657391,196.527391 C387.951306,196.504782 388.25652,196.482174 388.573043,196.459565 C388.889567,196.436956 389.189129,196.425652 389.471739,196.425652 L392.608696,196.425652 L392.608696,197.629565 L385.622609,197.629565 L385.622609,196.798696 Z" id="CALL-NOW-(1)-444-888" fill="#79797B"></path>
        </g>
    </g>
</svg>