<?xml version="1.0" encoding="UTF-8"?>
<svg width="600px" height="133px" viewBox="0 0 600 133" version="1.1" xmlns="http://www.w3.org/2000/svg" xmlns:xlink="http://www.w3.org/1999/xlink">
    <!-- Generator: Sketch 44.1 (41455) - http://www.bohemiancoding.com/sketch -->
    <title>calltoaction08</title>
    <desc>Created with Sketch.</desc>
    <defs></defs>
    <g id="Calltoaction" stroke="none" stroke-width="1" fill="none" fill-rule="evenodd">
        <g id="08">
            <rect id="Rectangle-11" fill="#4990E2" x="0" y="0" width="600" height="132.15859"></rect>
            <g id="Group-11" transform="translate(478.414097, 47.577093)">
                <rect id="Rectangle" stroke="#FFFFFF" x="0.5" y="0.5" width="95.1453744" height="35.9789902"></rect>
                <path d="M17.1806167,18.1508205 C17.1806167,17.5802847 17.2686611,17.0713884 17.4447524,16.6241165 C17.6208437,16.1768446 17.8585634,15.798254 18.1579186,15.4883333 C18.4572738,15.1784125 18.8059294,14.9424537 19.2038958,14.7804497 C19.6018621,14.6184457 20.0227141,14.5374449 20.4664642,14.5374449 C20.8961269,14.5374449 21.2852829,14.6272502 21.6339437,14.8068633 C21.9826045,14.9864764 22.2731508,15.1960219 22.5055913,15.4355061 L21.6497918,16.3969599 C21.4737005,16.2349559 21.295851,16.108172 21.1162378,16.0166045 C20.9366247,15.9250371 20.7270792,15.879254 20.487595,15.879254 C20.2481108,15.879254 20.0244782,15.9303197 19.8166905,16.0324527 C19.6089027,16.1345856 19.4275314,16.2807392 19.272571,16.4709178 C19.1176107,16.6610965 18.9961095,16.8935335 18.9080639,17.1682359 C18.8200182,17.4429384 18.775996,17.7528544 18.775996,18.0979934 C18.775996,18.8094023 18.9274323,19.3605598 19.2303093,19.7514825 C19.5331864,20.1424053 19.9381903,20.3378637 20.4453333,20.3378637 C20.7270794,20.3378637 20.9736035,20.2815153 21.1849131,20.1688169 C21.3962227,20.0561184 21.5863984,19.9082039 21.7554461,19.725069 L22.6112456,20.6653919 C22.3224558,21.0034872 21.99317,21.2570549 21.6233783,21.4261025 C21.2535865,21.5951502 20.8538652,21.6796728 20.4242024,21.6796728 C19.9804523,21.6796728 19.5613613,21.6039546 19.1669168,21.4525161 C18.7724722,21.3010776 18.4273385,21.077445 18.1315051,20.7816116 C17.8356717,20.4857782 17.6032346,20.1177528 17.434187,19.6775246 C17.2651393,19.2372963 17.1806167,18.7284 17.1806167,18.1508205 Z M26.4570606,21.6796728 C25.9921795,21.6796728 25.5678058,21.5969111 25.1839268,21.4313852 C24.8000477,21.2658594 24.4707619,21.0281397 24.1960594,20.718219 C23.921357,20.4082983 23.7082897,20.0314685 23.5568512,19.5877184 C23.4054127,19.1439683 23.3296945,18.6403548 23.3296945,18.0768626 C23.3296945,17.5133704 23.4054127,17.0115177 23.5568512,16.5712894 C23.7082897,16.1310611 23.921357,15.7612749 24.1960594,15.4619197 C24.4707619,15.1625645 24.8000477,14.9336492 25.1839268,14.775167 C25.5678058,14.6166848 25.9921795,14.5374449 26.4570606,14.5374449 C26.9219416,14.5374449 27.3463153,14.6166848 27.7301944,14.775167 C28.1140734,14.9336492 28.4433592,15.1643253 28.7180617,15.4672024 C28.9927641,15.7700795 29.2058314,16.1416265 29.3572699,16.5818548 C29.5087085,17.0220831 29.5844266,17.520414 29.5844266,18.0768626 C29.5844266,18.6403548 29.5087085,19.1439683 29.3572699,19.5877184 C29.2058314,20.0314685 28.9927641,20.4082983 28.7180617,20.718219 C28.4433592,21.0281397 28.1140734,21.2658594 27.7301944,21.4313852 C27.3463153,21.5969111 26.9219416,21.6796728 26.4570606,21.6796728 Z M26.4570606,20.3378637 C26.9289853,20.3378637 27.3022932,20.1353617 27.5769957,19.7303517 C27.8516981,19.3253417 27.9890473,18.7741842 27.9890473,18.0768626 C27.9890473,17.3865846 27.8516981,16.8477533 27.5769957,16.4603524 C27.3022932,16.0729515 26.9289853,15.879254 26.4570606,15.879254 C25.9851359,15.879254 25.6118279,16.0729515 25.3371254,16.4603524 C25.062423,16.8477533 24.9250738,17.3865846 24.9250738,18.0768626 C24.9250738,18.7741842 25.062423,19.3253417 25.3371254,19.7303517 C25.6118279,20.1353617 25.9851359,20.3378637 26.4570606,20.3378637 Z M30.883974,14.66423 L32.4793532,14.66423 L34.2754756,18.087428 L34.9516629,19.6088493 L34.9939246,19.6088493 C34.9587063,19.2425794 34.9182059,18.8340537 34.8724222,18.3832599 C34.8266384,17.9324662 34.8037469,17.5028098 34.8037469,17.094278 L34.8037469,14.66423 L36.2829065,14.66423 L36.2829065,21.5528876 L34.6875272,21.5528876 L32.8914049,18.1191243 L32.2152176,16.6188338 L32.1729559,16.6188338 C32.2081742,16.999191 32.2486746,17.4077167 32.2944583,17.8444232 C32.340242,18.2811296 32.3631336,18.7037425 32.3631336,19.1122743 L32.3631336,21.5528876 L30.883974,21.5528876 L30.883974,14.66423 Z M39.2517912,15.9743428 L37.3605799,15.9743428 L37.3605799,14.66423 L42.7066854,14.66423 L42.7066854,15.9743428 L40.8154742,15.9743428 L40.8154742,21.5528876 L39.2517912,21.5528876 L39.2517912,15.9743428 Z M46.7004163,18.7002227 L46.5419349,18.0662971 C46.4433238,17.7211582 46.3482359,17.3548937 46.2566684,16.9674929 C46.165101,16.580092 46.0735349,16.206784 45.9819674,15.8475577 L45.9397057,15.8475577 C45.8551818,16.2138277 45.7688984,16.5888965 45.6808527,16.9727756 C45.5928071,17.3566546 45.4994801,17.7211582 45.400869,18.0662971 L45.2318221,18.7002227 L46.7004163,18.7002227 Z M47.0173791,19.9152466 L44.9148594,19.9152466 L44.4922423,21.5528876 L42.9074285,21.5528876 L45.0627753,14.66423 L46.9328557,14.66423 L49.0882025,21.5528876 L47.4399961,21.5528876 L47.0173791,19.9152466 Z M49.5108196,18.1508205 C49.5108196,17.5802847 49.5988639,17.0713884 49.7749552,16.6241165 C49.9510465,16.1768446 50.1887662,15.798254 50.4881215,15.4883333 C50.7874767,15.1784125 51.1361323,14.9424537 51.5340986,14.7804497 C51.932065,14.6184457 52.3529169,14.5374449 52.796667,14.5374449 C53.2263298,14.5374449 53.6154857,14.6272502 53.9641465,14.8068633 C54.3128073,14.9864764 54.6033536,15.1960219 54.8357942,15.4355061 L53.9799947,16.3969599 C53.8039034,16.2349559 53.6260538,16.108172 53.4464407,16.0166045 C53.2668275,15.9250371 53.057282,15.879254 52.8177978,15.879254 C52.5783137,15.879254 52.3546811,15.9303197 52.1468933,16.0324527 C51.9391056,16.1345856 51.7577342,16.2807392 51.6027739,16.4709178 C51.4478135,16.6610965 51.3263123,16.8935335 51.2382667,17.1682359 C51.150221,17.4429384 51.1061989,17.7528544 51.1061989,18.0979934 C51.1061989,18.8094023 51.2576351,19.3605598 51.5605122,19.7514825 C51.8633892,20.1424053 52.2683932,20.3378637 52.7755361,20.3378637 C53.0572822,20.3378637 53.3038064,20.2815153 53.5151159,20.1688169 C53.7264255,20.0561184 53.9166013,19.9082039 54.0856489,19.725069 L54.9414484,20.6653919 C54.6526587,21.0034872 54.3233729,21.2570549 53.9535811,21.4261025 C53.5837894,21.5951502 53.1840681,21.6796728 52.7544053,21.6796728 C52.3106552,21.6796728 51.8915642,21.6039546 51.4971196,21.4525161 C51.1026751,21.3010776 50.7575413,21.077445 50.4617079,20.7816116 C50.1658745,20.4857782 49.9334375,20.1177528 49.7643898,19.6775246 C49.5953421,19.2372963 49.5108196,18.7284 49.5108196,18.1508205 Z M57.3292346,15.9743428 L55.4380234,15.9743428 L55.4380234,14.66423 L60.7841289,14.66423 L60.7841289,15.9743428 L58.8929177,15.9743428 L58.8929177,21.5528876 L57.3292346,21.5528876 L57.3292346,15.9743428 Z M64.0171492,14.66423 L65.5808322,14.66423 L65.5808322,18.5206104 C65.5808322,19.1968011 65.6829636,19.6687187 65.8872295,19.9363775 C66.0914954,20.2040363 66.3873244,20.3378637 66.7747253,20.3378637 C67.1621262,20.3378637 67.4614769,20.2040363 67.6727865,19.9363775 C67.884096,19.6687187 67.9897492,19.1968011 67.9897492,18.5206104 L67.9897492,14.66423 L69.4900397,14.66423 L69.4900397,18.3621291 C69.4900397,19.5172881 69.2593635,20.3589919 68.7980043,20.8872658 C68.3366451,21.4155397 67.6622255,21.6796728 66.7747253,21.6796728 C65.8801814,21.6796728 65.1969574,21.4155397 64.7250327,20.8872658 C64.253108,20.3589919 64.0171492,19.5172881 64.0171492,18.3621291 L64.0171492,14.66423 Z M71.5291669,19.6194147 C71.7756947,19.8307243 72.0486321,20.0032912 72.3479874,20.1371206 C72.6473426,20.27095 72.9414107,20.3378637 73.2302004,20.3378637 C73.5542084,20.3378637 73.7954499,20.2779935 73.9539321,20.1582514 C74.1124143,20.0385093 74.1916542,19.8765078 74.1916542,19.6722419 C74.1916542,19.5665871 74.1687626,19.475021 74.1229789,19.3975408 C74.0771952,19.3200606 74.0102815,19.251386 73.9222358,19.191515 C73.8341901,19.1316439 73.7285369,19.0752956 73.605273,19.0224682 L73.1985041,18.8481386 L72.3004429,18.4677833 C72.1243516,18.3973468 71.9535456,18.3057807 71.7880198,18.1930822 C71.622494,18.0803838 71.4745795,17.9483173 71.3442719,17.7968788 C71.2139643,17.6454403 71.110072,17.4693516 71.0325919,17.2686075 C70.9551117,17.0678634 70.9163722,16.840709 70.9163722,16.5871375 C70.9163722,16.3053914 70.9762423,16.0394975 71.0959844,15.7894479 C71.2157265,15.5393982 71.3847716,15.3210483 71.6031248,15.1343915 C71.8214781,14.9477347 72.0803284,14.8015811 72.3796836,14.6959263 C72.6790389,14.5902715 73.0083247,14.5374449 73.367551,14.5374449 C73.7690391,14.5374449 74.1652386,14.6149239 74.5561613,14.7698843 C74.9470841,14.9248447 75.290457,15.1502381 75.5862904,15.4460715 L74.7938834,16.4286561 C74.5684866,16.2525648 74.3430931,16.1169766 74.1176962,16.0218873 C73.8922993,15.9267979 73.6422534,15.879254 73.367551,15.879254 C73.0998922,15.879254 72.8868249,15.9338415 72.7283427,16.0430181 C72.5698605,16.1521947 72.4906206,16.3053919 72.4906206,16.5026141 C72.4906206,16.6082689 72.5170339,16.6980741 72.5698613,16.7720325 C72.6226887,16.8459908 72.6966459,16.9129045 72.7917352,16.9727756 C72.8868246,17.0326466 72.9977604,17.088995 73.1245462,17.1418224 C73.2513319,17.1946498 73.3886811,17.252759 73.5365978,17.3161519 L74.4240935,17.6753764 C74.8467127,17.844424 75.1795203,18.0768611 75.4225263,18.3726945 C75.6655323,18.6685279 75.7870335,19.0594447 75.7870335,19.5454567 C75.7870335,19.8342465 75.7289242,20.1071839 75.6127039,20.3642772 C75.4964837,20.6213706 75.3274385,20.8467641 75.1055635,21.0404645 C74.8836884,21.2341649 74.610751,21.389123 74.286743,21.5053432 C73.962735,21.6215635 73.5964706,21.6796728 73.1879387,21.6796728 C72.737145,21.6796728 72.2881189,21.5969111 71.8408469,21.4313852 C71.393575,21.2658594 70.9938537,21.0175744 70.6416711,20.6865227 L71.5291669,19.6194147 Z" id="CONTACT-US" fill="#FFFFFF"></path>
            </g>
            <path d="M33.0396476,64.4405286 C33.0396476,63.3964706 33.1850206,62.4581539 33.4757709,61.6255507 C33.7665213,60.7929474 34.1696009,60.085906 34.685022,59.5044053 C35.2004431,58.9229046 35.8116705,58.4768738 36.5187225,58.1662996 C37.2257745,57.8557253 37.9955906,57.7004405 38.8281938,57.7004405 C39.6211493,57.7004405 40.314975,57.8623332 40.9096916,58.1861233 C41.5044083,58.5099135 41.9933902,58.8832578 42.376652,59.3061674 L41.4449339,60.3568282 C41.1013199,59.9867823 40.7213677,59.6927324 40.3050661,59.4746696 C39.8887644,59.2566068 39.4030865,59.1475771 38.8480176,59.1475771 C38.2268691,59.1475771 37.6652007,59.2698226 37.1629956,59.5143172 C36.6607904,59.7588118 36.2312793,60.1090286 35.8744493,60.564978 C35.5176194,61.0209274 35.2400891,61.572684 35.0418502,62.2202643 C34.8436113,62.8678446 34.7444934,63.5947096 34.7444934,64.4008811 C34.7444934,65.2202684 34.8403074,65.9570452 35.0319383,66.6112335 C35.2235692,67.2654218 35.4911877,67.8237862 35.8348018,68.2863436 C36.1784158,68.748901 36.5980151,69.1057256 37.0936123,69.3568282 C37.5892095,69.6079308 38.147574,69.7334802 38.7687225,69.7334802 C39.4030869,69.7334802 39.9548435,69.6079308 40.4240088,69.3568282 C40.8931742,69.1057256 41.3392049,68.748901 41.7621145,68.2863436 L42.6938326,69.2973568 C42.1784115,69.8920735 41.5969195,70.3546239 40.9493392,70.685022 C40.3017589,71.0154202 39.5616782,71.1806167 38.7290749,71.1806167 C37.9096875,71.1806167 37.1530872,71.0286359 36.4592511,70.7246696 C35.765415,70.4207033 35.1640995,69.9812804 34.6552863,69.4063877 C34.1464732,68.8314949 33.7500014,68.1244535 33.465859,67.2852423 C33.1817166,66.446031 33.0396476,65.4978026 33.0396476,64.4405286 Z M44.4779736,68.4449339 C44.4779736,67.3876599 44.9504358,66.5781966 45.8953744,66.0165198 C46.8403131,65.454843 48.343602,65.0616751 50.4052863,64.8370044 C50.4052863,64.5330381 50.375551,64.2356843 50.3160793,63.9449339 C50.2566076,63.6541836 50.1508818,63.3964769 49.9988987,63.1718062 C49.8469155,62.9471354 49.6453757,62.7654192 49.3942731,62.626652 C49.1431706,62.4878848 48.8193852,62.4185022 48.4229075,62.4185022 C47.8546227,62.4185022 47.3292976,62.524228 46.8469163,62.7356828 C46.364535,62.9471376 45.93172,63.1850207 45.5484581,63.4493392 L44.8942731,62.3193833 C45.3436146,62.0286329 45.8920672,61.7477987 46.5396476,61.4768722 C47.1872279,61.2059458 47.9008772,61.0704846 48.6806167,61.0704846 C49.8568341,61.0704846 50.7092485,61.4306131 51.2378855,62.1508811 C51.7665225,62.871149 52.030837,63.8325931 52.030837,65.0352423 L52.030837,70.9427313 L50.6828194,70.9427313 L50.5440529,69.7929515 L50.5044053,69.7929515 C50.0418479,70.1762134 49.5429542,70.5033026 49.0077093,70.7742291 C48.4724643,71.0451555 47.907492,71.1806167 47.3127753,71.1806167 C46.493388,71.1806167 45.816082,70.9427337 45.280837,70.4669604 C44.745592,69.991187 44.4779736,69.317185 44.4779736,68.4449339 Z M46.0837004,68.3259912 C46.0837004,68.88106 46.2455931,69.2775319 46.5693833,69.5154185 C46.8931734,69.7533052 47.2929492,69.8722467 47.7687225,69.8722467 C48.2312798,69.8722467 48.6707028,69.7632169 49.0870044,69.5451542 C49.503306,69.3270914 49.942729,69.00661 50.4052863,68.5837004 L50.4052863,65.907489 C49.5991149,66.0132164 48.918505,66.1387658 48.3634361,66.284141 C47.8083673,66.4295161 47.3623365,66.6013206 47.0253304,66.7995595 C46.6883243,66.9977983 46.4471373,67.2257696 46.3017621,67.4834802 C46.1563869,67.7411907 46.0837004,68.0220249 46.0837004,68.3259912 Z M55.1035242,56.8281938 L56.7290749,56.8281938 L56.7290749,69.1189427 C56.7290749,69.3832612 56.7753299,69.5682814 56.8678414,69.6740088 C56.9603529,69.7797362 57.0660787,69.8325991 57.185022,69.8325991 L57.3337004,69.8325991 C57.3799562,69.8325991 57.4493387,69.8193834 57.5418502,69.7929515 L57.7599119,71.0220264 C57.6541845,71.0748901 57.5286351,71.1145373 57.3832599,71.1409692 C57.2378847,71.167401 57.0528646,71.1806167 56.8281938,71.1806167 C56.2070454,71.1806167 55.7643185,70.9955966 55.5,70.6255507 C55.2356815,70.2555048 55.1035242,69.71366 55.1035242,69 L55.1035242,56.8281938 Z M60.1585903,56.8281938 L61.784141,56.8281938 L61.784141,69.1189427 C61.784141,69.3832612 61.830396,69.5682814 61.9229075,69.6740088 C62.015419,69.7797362 62.1211448,69.8325991 62.2400881,69.8325991 L62.3887665,69.8325991 C62.4350223,69.8325991 62.5044048,69.8193834 62.5969163,69.7929515 L62.814978,71.0220264 C62.7092506,71.0748901 62.5837012,71.1145373 62.438326,71.1409692 C62.2929508,71.167401 62.1079306,71.1806167 61.8832599,71.1806167 C61.2621114,71.1806167 60.8193846,70.9955966 60.5550661,70.6255507 C60.2907476,70.2555048 60.1585903,69.71366 60.1585903,69 L60.1585903,56.8281938 Z M69.4955947,62.6365639 L68.0682819,62.6365639 L68.0682819,61.407489 L69.5748899,61.30837 L69.7731278,58.6123348 L71.1409692,58.6123348 L71.1409692,61.30837 L73.7378855,61.30837 L73.7378855,62.6365639 L71.1409692,62.6365639 L71.1409692,67.9889868 C71.1409692,68.5837034 71.2499989,69.0429499 71.4680617,69.3667401 C71.6861244,69.6905303 72.0726844,69.8524229 72.6277533,69.8524229 C72.7995603,69.8524229 72.9845805,69.8259915 73.1828194,69.7731278 C73.3810583,69.7202641 73.5594706,69.6607933 73.7180617,69.5947137 L74.0352423,70.8237885 C73.7709238,70.9163 73.4834817,70.9988983 73.1729075,71.0715859 C72.8623332,71.1442735 72.5550676,71.1806167 72.2511013,71.1806167 C71.7356802,71.1806167 71.3028652,71.1013224 70.9526432,70.9427313 C70.6024212,70.7841402 70.318283,70.5660807 70.1002203,70.2885463 C69.8821575,70.0110118 69.7268727,69.6740108 69.6343612,69.277533 C69.5418498,68.8810553 69.4955947,68.4449363 69.4955947,67.969163 L69.4955947,62.6365639 Z M75.2048458,66.1453744 C75.2048458,65.339203 75.3270913,64.6222498 75.5715859,63.9944934 C75.8160805,63.3667369 76.1431698,62.8348039 76.5528634,62.3986784 C76.9625571,61.9625529 77.4350194,61.6321597 77.9702643,61.407489 C78.5055093,61.1828183 79.0704816,61.0704846 79.6651982,61.0704846 C80.2599149,61.0704846 80.8248872,61.1828183 81.3601322,61.407489 C81.8953771,61.6321597 82.3678394,61.9625529 82.777533,62.3986784 C83.1872267,62.8348039 83.514316,63.3667369 83.7588106,63.9944934 C84.0033052,64.6222498 84.1255507,65.339203 84.1255507,66.1453744 C84.1255507,66.93833 84.0033052,67.6486753 83.7588106,68.2764317 C83.514316,68.9041882 83.1872267,69.4328172 82.777533,69.8623348 C82.3678394,70.2918524 81.8953771,70.6189416 81.3601322,70.8436123 C80.8248872,71.0682831 80.2599149,71.1806167 79.6651982,71.1806167 C79.0704816,71.1806167 78.5055093,71.0682831 77.9702643,70.8436123 C77.4350194,70.6189416 76.9625571,70.2918524 76.5528634,69.8623348 C76.1431698,69.4328172 75.8160805,68.9041882 75.5715859,68.2764317 C75.3270913,67.6486753 75.2048458,66.93833 75.2048458,66.1453744 Z M76.8898678,66.1453744 C76.8898678,66.7004433 76.9559465,67.2026409 77.0881057,67.6519824 C77.220265,68.1013238 77.4085891,68.4878838 77.6530837,68.811674 C77.8975783,69.1354642 78.1916282,69.386563 78.5352423,69.564978 C78.8788563,69.743393 79.2555046,69.8325991 79.6651982,69.8325991 C80.0748919,69.8325991 80.4515401,69.743393 80.7951542,69.564978 C81.1387682,69.386563 81.4328182,69.1354642 81.6773128,68.811674 C81.9218074,68.4878838 82.1101315,68.1013238 82.2422907,67.6519824 C82.37445,67.2026409 82.4405286,66.7004433 82.4405286,66.1453744 C82.4405286,65.5903056 82.37445,65.084804 82.2422907,64.6288546 C82.1101315,64.1729052 81.9218074,63.7797373 81.6773128,63.4493392 C81.4328182,63.1189411 81.1387682,62.8645383 80.7951542,62.6861233 C80.4515401,62.5077084 80.0748919,62.4185022 79.6651982,62.4185022 C79.2555046,62.4185022 78.8788563,62.5077084 78.5352423,62.6861233 C78.1916282,62.8645383 77.8975783,63.1189411 77.6530837,63.4493392 C77.4085891,63.7797373 77.220265,64.1729052 77.0881057,64.6288546 C76.9559465,65.084804 76.8898678,65.5903056 76.8898678,66.1453744 Z M90.19163,68.4449339 C90.19163,67.3876599 90.6640922,66.5781966 91.6090308,66.0165198 C92.5539695,65.454843 94.0572584,65.0616751 96.1189427,64.8370044 C96.1189427,64.5330381 96.0892073,64.2356843 96.0297357,63.9449339 C95.970264,63.6541836 95.8645382,63.3964769 95.7125551,63.1718062 C95.5605719,62.9471354 95.3590321,62.7654192 95.1079295,62.626652 C94.8568269,62.4878848 94.5330416,62.4185022 94.1365639,62.4185022 C93.5682791,62.4185022 93.042954,62.524228 92.5605727,62.7356828 C92.0781914,62.9471376 91.6453764,63.1850207 91.2621145,63.4493392 L90.6079295,62.3193833 C91.057271,62.0286329 91.6057236,61.7477987 92.253304,61.4768722 C92.9008843,61.2059458 93.6145335,61.0704846 94.3942731,61.0704846 C95.5704905,61.0704846 96.4229048,61.4306131 96.9515419,62.1508811 C97.4801789,62.871149 97.7444934,63.8325931 97.7444934,65.0352423 L97.7444934,70.9427313 L96.3964758,70.9427313 L96.2577093,69.7929515 L96.2180617,69.7929515 C95.7555043,70.1762134 95.2566106,70.5033026 94.7213656,70.7742291 C94.1861207,71.0451555 93.6211483,71.1806167 93.0264317,71.1806167 C92.2070444,71.1806167 91.5297384,70.9427337 90.9944934,70.4669604 C90.4592484,69.991187 90.19163,69.317185 90.19163,68.4449339 Z M91.7973568,68.3259912 C91.7973568,68.88106 91.9592495,69.2775319 92.2830396,69.5154185 C92.6068298,69.7533052 93.0066056,69.8722467 93.4823789,69.8722467 C93.9449362,69.8722467 94.3843592,69.7632169 94.8006608,69.5451542 C95.2169624,69.3270914 95.6563854,69.00661 96.1189427,68.5837004 L96.1189427,65.907489 C95.3127713,66.0132164 94.6321614,66.1387658 94.0770925,66.284141 C93.5220237,66.4295161 93.0759929,66.6013206 92.7389868,66.7995595 C92.4019807,66.9977983 92.1607937,67.2257696 92.0154185,67.4834802 C91.8700433,67.7411907 91.7973568,68.0220249 91.7973568,68.3259912 Z M100.103524,66.1453744 C100.103524,65.339203 100.229074,64.6222498 100.480176,63.9944934 C100.731279,63.3667369 101.06828,62.8348039 101.491189,62.3986784 C101.914099,61.9625529 102.406385,61.6321597 102.968062,61.407489 C103.529738,61.1828183 104.121142,61.0704846 104.742291,61.0704846 C105.376655,61.0704846 105.921804,61.1861222 106.377753,61.4174009 C106.833703,61.6486796 107.226871,61.916298 107.557269,62.2202643 L106.744493,63.2709251 C106.453743,63.0198225 106.153085,62.8149788 105.842511,62.6563877 C105.531937,62.4977966 105.185024,62.4185022 104.801762,62.4185022 C104.365637,62.4185022 103.962557,62.5077084 103.592511,62.6861233 C103.222465,62.8645383 102.905288,63.1189411 102.640969,63.4493392 C102.376651,63.7797373 102.168503,64.1729052 102.01652,64.6288546 C101.864537,65.084804 101.788546,65.5903056 101.788546,66.1453744 C101.788546,66.7004433 101.861233,67.2026409 102.006608,67.6519824 C102.151983,68.1013238 102.353523,68.4878838 102.611233,68.811674 C102.868944,69.1354642 103.182818,69.386563 103.552863,69.564978 C103.922909,69.743393 104.325989,69.8325991 104.762115,69.8325991 C105.224672,69.8325991 105.644271,69.7367851 106.020925,69.5451542 C106.397579,69.3535233 106.731276,69.125552 107.022026,68.8612335 L107.755507,69.9317181 C107.319381,70.3149799 106.833703,70.6189416 106.298458,70.8436123 C105.763213,71.0682831 105.204849,71.1806167 104.623348,71.1806167 C103.988984,71.1806167 103.394276,71.0682831 102.839207,70.8436123 C102.284138,70.6189416 101.805068,70.2918524 101.401982,69.8623348 C100.998897,69.4328172 100.681719,68.9041882 100.450441,68.2764317 C100.219162,67.6486753 100.103524,66.93833 100.103524,66.1453744 Z M110.134361,62.6365639 L108.707048,62.6365639 L108.707048,61.407489 L110.213656,61.30837 L110.411894,58.6123348 L111.779736,58.6123348 L111.779736,61.30837 L114.376652,61.30837 L114.376652,62.6365639 L111.779736,62.6365639 L111.779736,67.9889868 C111.779736,68.5837034 111.888765,69.0429499 112.106828,69.3667401 C112.324891,69.6905303 112.711451,69.8524229 113.26652,69.8524229 C113.438327,69.8524229 113.623347,69.8259915 113.821586,69.7731278 C114.019825,69.7202641 114.198237,69.6607933 114.356828,69.5947137 L114.674009,70.8237885 C114.40969,70.9163 114.122248,70.9988983 113.811674,71.0715859 C113.5011,71.1442735 113.193834,71.1806167 112.889868,71.1806167 C112.374447,71.1806167 111.941632,71.1013224 111.59141,70.9427313 C111.241188,70.7841402 110.95705,70.5660807 110.738987,70.2885463 C110.520924,70.0110118 110.365639,69.6740108 110.273128,69.277533 C110.180616,68.8810553 110.134361,68.4449363 110.134361,67.969163 L110.134361,62.6365639 Z M117.389868,59.3259912 C117.072686,59.3259912 116.805067,59.2268732 116.587004,59.0286344 C116.368942,58.8303955 116.259912,58.5792967 116.259912,58.2753304 C116.259912,57.9581482 116.368942,57.7037455 116.587004,57.5121145 C116.805067,57.3204836 117.072686,57.2246696 117.389868,57.2246696 C117.70705,57.2246696 117.974669,57.3204836 118.192731,57.5121145 C118.410794,57.7037455 118.519824,57.9581482 118.519824,58.2753304 C118.519824,58.5792967 118.410794,58.8303955 118.192731,59.0286344 C117.974669,59.2268732 117.70705,59.3259912 117.389868,59.3259912 Z M116.557269,61.30837 L118.182819,61.30837 L118.182819,70.9427313 L116.557269,70.9427313 L116.557269,61.30837 Z M120.720264,66.1453744 C120.720264,65.339203 120.84251,64.6222498 121.087004,63.9944934 C121.331499,63.3667369 121.658588,62.8348039 122.068282,62.3986784 C122.477976,61.9625529 122.950438,61.6321597 123.485683,61.407489 C124.020928,61.1828183 124.5859,61.0704846 125.180617,61.0704846 C125.775333,61.0704846 126.340306,61.1828183 126.875551,61.407489 C127.410796,61.6321597 127.883258,61.9625529 128.292952,62.3986784 C128.702645,62.8348039 129.029734,63.3667369 129.274229,63.9944934 C129.518724,64.6222498 129.640969,65.339203 129.640969,66.1453744 C129.640969,66.93833 129.518724,67.6486753 129.274229,68.2764317 C129.029734,68.9041882 128.702645,69.4328172 128.292952,69.8623348 C127.883258,70.2918524 127.410796,70.6189416 126.875551,70.8436123 C126.340306,71.0682831 125.775333,71.1806167 125.180617,71.1806167 C124.5859,71.1806167 124.020928,71.0682831 123.485683,70.8436123 C122.950438,70.6189416 122.477976,70.2918524 122.068282,69.8623348 C121.658588,69.4328172 121.331499,68.9041882 121.087004,68.2764317 C120.84251,67.6486753 120.720264,66.93833 120.720264,66.1453744 Z M122.405286,66.1453744 C122.405286,66.7004433 122.471365,67.2026409 122.603524,67.6519824 C122.735683,68.1013238 122.924008,68.4878838 123.168502,68.811674 C123.412997,69.1354642 123.707047,69.386563 124.050661,69.564978 C124.394275,69.743393 124.770923,69.8325991 125.180617,69.8325991 C125.59031,69.8325991 125.966959,69.743393 126.310573,69.564978 C126.654187,69.386563 126.948237,69.1354642 127.192731,68.811674 C127.437226,68.4878838 127.62555,68.1013238 127.757709,67.6519824 C127.889869,67.2026409 127.955947,66.7004433 127.955947,66.1453744 C127.955947,65.5903056 127.889869,65.084804 127.757709,64.6288546 C127.62555,64.1729052 127.437226,63.7797373 127.192731,63.4493392 C126.948237,63.1189411 126.654187,62.8645383 126.310573,62.6861233 C125.966959,62.5077084 125.59031,62.4185022 125.180617,62.4185022 C124.770923,62.4185022 124.394275,62.5077084 124.050661,62.6861233 C123.707047,62.8645383 123.412997,63.1189411 123.168502,63.4493392 C122.924008,63.7797373 122.735683,64.1729052 122.603524,64.6288546 C122.471365,65.084804 122.405286,65.5903056 122.405286,66.1453744 Z M132.178414,61.30837 L133.526432,61.30837 L133.665198,62.6960352 L133.72467,62.6960352 C134.187227,62.2334779 134.672905,61.8469179 135.181718,61.5363436 C135.690531,61.2257694 136.281935,61.0704846 136.955947,61.0704846 C137.973573,61.0704846 138.716958,61.387662 139.186123,62.0220264 C139.655289,62.6563908 139.889868,63.5947074 139.889868,64.8370044 L139.889868,70.9427313 L138.264317,70.9427313 L138.264317,65.0550661 C138.264317,64.1431672 138.118944,63.4856848 137.828194,63.0825991 C137.537443,62.6795134 137.074893,62.4779736 136.440529,62.4779736 C135.938323,62.4779736 135.495597,62.603523 135.112335,62.8546256 C134.729073,63.1057281 134.292954,63.4757685 133.803965,63.9647577 L133.803965,70.9427313 L132.178414,70.9427313 L132.178414,61.30837 Z M145.876652,61.30837 L147.54185,61.30837 L148.969163,66.8788546 C149.07489,67.341412 149.174008,67.7907467 149.26652,68.2268722 C149.359031,68.6629978 149.451541,69.1057246 149.544053,69.5550661 L149.623348,69.5550661 C149.729075,69.1057246 149.834801,68.6596938 149.940529,68.2169604 C150.046256,67.7742269 150.15859,67.3281961 150.277533,66.8788546 L151.764317,61.30837 L153.35022,61.30837 L154.856828,66.8788546 C154.975772,67.341412 155.091409,67.7907467 155.203744,68.2268722 C155.31608,68.6629978 155.42511,69.1057246 155.530837,69.5550661 L155.610132,69.5550661 C155.71586,69.1057246 155.814978,68.6629978 155.907489,68.2268722 C156,67.7907467 156.099118,67.341412 156.204846,66.8788546 L157.612335,61.30837 L159.15859,61.30837 L156.581498,70.9427313 L154.599119,70.9427313 L153.211454,65.7687225 C153.09251,65.3061651 152.983481,64.8502225 152.884361,64.4008811 C152.785242,63.9515396 152.676212,63.4823813 152.557269,62.9933921 L152.477974,62.9933921 C152.372246,63.4823813 152.26652,63.9548435 152.160793,64.410793 C152.055066,64.8667424 151.936124,65.3259889 151.803965,65.7885463 L150.455947,70.9427313 L148.552863,70.9427313 L145.876652,61.30837 Z M165.125551,56.8678414 L166.314978,56.8678414 L161.022026,74.1145374 L159.832599,74.1145374 L165.125551,56.8678414 Z M168.198238,56.8281938 L169.823789,56.8281938 L169.823789,60.6740088 L169.784141,62.4185022 C170.220266,62.0352404 170.696033,61.714759 171.211454,61.4570485 C171.726875,61.1993379 172.255504,61.0704846 172.797357,61.0704846 C173.418505,61.0704846 173.966958,61.1861222 174.442731,61.4174009 C174.918505,61.6486796 175.31828,61.9790727 175.64207,62.4085903 C175.965861,62.8381079 176.210352,63.3535212 176.375551,63.9548458 C176.54075,64.5561704 176.623348,65.2268685 176.623348,65.9669604 C176.623348,66.7863477 176.511014,67.5198206 176.286344,68.1674009 C176.061673,68.8149812 175.757711,69.3634339 175.374449,69.8127753 C174.991188,70.2621168 174.548461,70.6024218 174.046256,70.8337004 C173.54405,71.0649791 173.015421,71.1806167 172.460352,71.1806167 C172.011011,71.1806167 171.545157,71.0781949 171.062775,70.873348 C170.580394,70.6685012 170.127755,70.3744513 169.704846,69.9911894 L169.645374,69.9911894 L169.506608,70.9427313 L168.198238,70.9427313 L168.198238,56.8281938 Z M169.823789,68.8017621 C170.246698,69.171808 170.666297,69.4328186 171.082599,69.5848018 C171.498901,69.7367849 171.865637,69.8127753 172.182819,69.8127753 C172.579297,69.8127753 172.946034,69.7235692 173.28304,69.5451542 C173.620046,69.3667392 173.910792,69.1156404 174.155286,68.7918502 C174.399781,68.4680601 174.591409,68.0682843 174.730176,67.592511 C174.868943,67.1167377 174.938326,66.5815008 174.938326,65.9867841 C174.938326,65.4581471 174.892071,64.9757731 174.799559,64.5396476 C174.707048,64.103522 174.558371,63.7301778 174.353524,63.4196035 C174.148677,63.1090293 173.884363,62.8678423 173.560573,62.6960352 C173.236783,62.5242282 172.850223,62.438326 172.400881,62.438326 C171.621141,62.438326 170.762119,62.874445 169.823789,63.746696 L169.823789,68.8017621 Z M178.72467,68.4449339 C178.72467,67.3876599 179.197132,66.5781966 180.14207,66.0165198 C181.087009,65.454843 182.590298,65.0616751 184.651982,64.8370044 C184.651982,64.5330381 184.622247,64.2356843 184.562775,63.9449339 C184.503304,63.6541836 184.397578,63.3964769 184.245595,63.1718062 C184.093612,62.9471354 183.892072,62.7654192 183.640969,62.626652 C183.389867,62.4878848 183.066081,62.4185022 182.669604,62.4185022 C182.101319,62.4185022 181.575994,62.524228 181.093612,62.7356828 C180.611231,62.9471376 180.178416,63.1850207 179.795154,63.4493392 L179.140969,62.3193833 C179.590311,62.0286329 180.138763,61.7477987 180.786344,61.4768722 C181.433924,61.2059458 182.147573,61.0704846 182.927313,61.0704846 C184.10353,61.0704846 184.955944,61.4306131 185.484581,62.1508811 C186.013219,62.871149 186.277533,63.8325931 186.277533,65.0352423 L186.277533,70.9427313 L184.929515,70.9427313 L184.790749,69.7929515 L184.751101,69.7929515 C184.288544,70.1762134 183.78965,70.5033026 183.254405,70.7742291 C182.71916,71.0451555 182.154188,71.1806167 181.559471,71.1806167 C180.740084,71.1806167 180.062778,70.9427337 179.527533,70.4669604 C178.992288,69.991187 178.72467,69.317185 178.72467,68.4449339 Z M180.330396,68.3259912 C180.330396,68.88106 180.492289,69.2775319 180.816079,69.5154185 C181.139869,69.7533052 181.539645,69.8722467 182.015419,69.8722467 C182.477976,69.8722467 182.917399,69.7632169 183.3337,69.5451542 C183.750002,69.3270914 184.189425,69.00661 184.651982,68.5837004 L184.651982,65.907489 C183.845811,66.0132164 183.165201,66.1387658 182.610132,66.284141 C182.055063,66.4295161 181.609033,66.6013206 181.272026,66.7995595 C180.93502,66.9977983 180.693833,67.2257696 180.548458,67.4834802 C180.403083,67.7411907 180.330396,68.0220249 180.330396,68.3259912 Z M188.636564,66.1453744 C188.636564,65.339203 188.762113,64.6222498 189.013216,63.9944934 C189.264318,63.3667369 189.601319,62.8348039 190.024229,62.3986784 C190.447139,61.9625529 190.939425,61.6321597 191.501101,61.407489 C192.062778,61.1828183 192.654182,61.0704846 193.27533,61.0704846 C193.909695,61.0704846 194.454844,61.1861222 194.910793,61.4174009 C195.366742,61.6486796 195.75991,61.916298 196.090308,62.2202643 L195.277533,63.2709251 C194.986783,63.0198225 194.686125,62.8149788 194.375551,62.6563877 C194.064976,62.4977966 193.718064,62.4185022 193.334802,62.4185022 C192.898676,62.4185022 192.495597,62.5077084 192.125551,62.6861233 C191.755505,62.8645383 191.438327,63.1189411 191.174009,63.4493392 C190.90969,63.7797373 190.701543,64.1729052 190.549559,64.6288546 C190.397576,65.084804 190.321586,65.5903056 190.321586,66.1453744 C190.321586,66.7004433 190.394272,67.2026409 190.539648,67.6519824 C190.685023,68.1013238 190.886563,68.4878838 191.144273,68.811674 C191.401984,69.1354642 191.715857,69.386563 192.085903,69.564978 C192.455949,69.743393 192.859029,69.8325991 193.295154,69.8325991 C193.757712,69.8325991 194.177311,69.7367851 194.553965,69.5451542 C194.930619,69.3535233 195.264316,69.125552 195.555066,68.8612335 L196.288546,69.9317181 C195.852421,70.3149799 195.366743,70.6189416 194.831498,70.8436123 C194.296253,71.0682831 193.737888,71.1806167 193.156388,71.1806167 C192.522023,71.1806167 191.927316,71.0682831 191.372247,70.8436123 C190.817178,70.6189416 190.338108,70.2918524 189.935022,69.8623348 C189.531936,69.4328172 189.214759,68.9041882 188.98348,68.2764317 C188.752201,67.6486753 188.636564,66.93833 188.636564,66.1453744 Z M198.389868,56.8281938 L199.995595,56.8281938 L199.995595,66.3832599 L200.055066,66.3832599 L204.15859,61.30837 L205.962555,61.30837 L202.731278,65.1740088 L206.398678,70.9427313 L204.614537,70.9427313 L201.799559,66.3039648 L199.995595,68.4052863 L199.995595,70.9427313 L198.389868,70.9427313 L198.389868,56.8281938 Z M208.896476,72.5682819 C208.896476,73.083703 209.144271,73.4933906 209.639868,73.7973568 C210.135465,74.1013231 210.819379,74.253304 211.69163,74.253304 C212.154187,74.253304 212.573787,74.1971371 212.950441,74.0848018 C213.327094,73.9724664 213.647576,73.8270934 213.911894,73.6486784 C214.176213,73.4702634 214.381057,73.2621157 214.526432,73.0242291 C214.671807,72.7863424 214.744493,72.5418515 214.744493,72.2907489 C214.744493,71.8414074 214.579297,71.5308379 214.248899,71.3590308 C213.918501,71.1872238 213.436127,71.1013216 212.801762,71.1013216 L211.136564,71.1013216 C210.951541,71.1013216 210.750001,71.0914098 210.531938,71.0715859 C210.313876,71.051762 210.09912,71.0088109 209.887665,70.9427313 C209.544051,71.1938339 209.292952,71.4581484 209.134361,71.7356828 C208.97577,72.0132172 208.896476,72.2907475 208.896476,72.5682819 Z M207.469163,72.7863436 C207.469163,72.3766499 207.594712,71.986786 207.845815,71.6167401 C208.096918,71.2466942 208.440526,70.9096931 208.876652,70.6057269 L208.876652,70.5264317 C208.638765,70.3810565 208.437225,70.1795167 208.272026,69.9218062 C208.106827,69.6640956 208.024229,69.3436143 208.024229,68.9603524 C208.024229,68.5506587 208.136563,68.1938341 208.361233,67.8898678 C208.585904,67.5859016 208.823787,67.3480185 209.07489,67.1762115 L209.07489,67.0969163 C208.757708,66.8325978 208.470266,66.4790771 208.212555,66.0363436 C207.954845,65.5936101 207.825991,65.0815007 207.825991,64.5 C207.825991,63.971363 207.921805,63.4955968 208.113436,63.0726872 C208.305067,62.6497776 208.566078,62.2896491 208.896476,61.9922907 C209.226874,61.6949324 209.613434,61.4669611 210.056167,61.30837 C210.498901,61.1497789 210.964755,61.0704846 211.453744,61.0704846 C211.718063,61.0704846 211.965858,61.0936121 212.197137,61.1398678 C212.428415,61.1861236 212.636563,61.2422904 212.821586,61.30837 L216.171806,61.30837 L216.171806,62.5572687 L214.189427,62.5572687 C214.414098,62.7819394 214.602422,63.0660776 214.754405,63.4096916 C214.906388,63.7533057 214.982379,64.1299539 214.982379,64.5396476 C214.982379,65.0550687 214.889869,65.520923 214.704846,65.9372247 C214.519823,66.3535263 214.268724,66.7037431 213.951542,66.9878855 C213.63436,67.2720279 213.261015,67.4933913 212.831498,67.6519824 C212.40198,67.8105735 211.942734,67.8898678 211.453744,67.8898678 C211.215858,67.8898678 210.971367,67.8601325 210.720264,67.8006608 C210.469162,67.7411891 210.231279,67.6585908 210.006608,67.5528634 C209.834801,67.6982386 209.689428,67.8601313 209.570485,68.0385463 C209.451541,68.2169612 209.39207,68.4383247 209.39207,68.7026432 C209.39207,69.0066094 209.511012,69.2577083 209.748899,69.4559471 C209.986785,69.654186 210.43612,69.753304 211.096916,69.753304 L212.960352,69.753304 C214.083706,69.753304 214.926209,69.9350202 215.487885,70.2984581 C216.049562,70.6618961 216.330396,71.246692 216.330396,72.0528634 C216.330396,72.5022049 216.218063,72.9284121 215.993392,73.3314978 C215.768721,73.7345835 215.444936,74.0881042 215.022026,74.3920705 C214.599117,74.6960368 214.087007,74.9372238 213.485683,75.1156388 C212.884358,75.2940538 212.207052,75.3832599 211.453744,75.3832599 C210.859028,75.3832599 210.317183,75.3270931 209.828194,75.2147577 C209.339205,75.1024223 208.919605,74.9339218 208.569383,74.7092511 C208.219161,74.4845804 207.948239,74.213658 207.756608,73.8964758 C207.564977,73.5792936 207.469163,73.2092532 207.469163,72.7863436 Z M211.453744,66.7995595 C211.731279,66.7995595 211.99229,66.7466966 212.236784,66.6409692 C212.481279,66.5352418 212.699338,66.3832609 212.890969,66.185022 C213.0826,65.9867831 213.231277,65.7455961 213.337004,65.4614537 C213.442732,65.1773114 213.495595,64.85683 213.495595,64.5 C213.495595,63.78634 213.297359,63.2345834 212.900881,62.8447137 C212.504403,62.4548439 212.022029,62.2599119 211.453744,62.2599119 C210.88546,62.2599119 210.403086,62.4548439 210.006608,62.8447137 C209.61013,63.2345834 209.411894,63.78634 209.411894,64.5 C209.411894,64.85683 209.464757,65.1773114 209.570485,65.4614537 C209.676212,65.7455961 209.824889,65.9867831 210.01652,66.185022 C210.208151,66.3832609 210.42621,66.5352418 210.670705,66.6409692 C210.915199,66.7466966 211.17621,66.7995595 211.453744,66.7995595 Z M218.193833,61.30837 L219.54185,61.30837 L219.680617,63.0528634 L219.740088,63.0528634 C220.070486,62.4449309 220.470262,61.9625569 220.939427,61.6057269 C221.408593,61.2488969 221.920702,61.0704846 222.475771,61.0704846 C222.859033,61.0704846 223.202642,61.1365632 223.506608,61.2687225 L223.189427,62.6960352 C223.030836,62.6431715 222.885463,62.6035244 222.753304,62.5770925 C222.621145,62.5506607 222.455948,62.5374449 222.257709,62.5374449 C221.848016,62.5374449 221.421808,62.7026415 220.979075,63.0330396 C220.536341,63.3634378 220.149781,63.9383219 219.819383,64.7577093 L219.819383,70.9427313 L218.193833,70.9427313 L218.193833,61.30837 Z M224.359031,66.1453744 C224.359031,65.339203 224.481276,64.6222498 224.725771,63.9944934 C224.970266,63.3667369 225.297355,62.8348039 225.707048,62.3986784 C226.116742,61.9625529 226.589204,61.6321597 227.124449,61.407489 C227.659694,61.1828183 228.224667,61.0704846 228.819383,61.0704846 C229.4141,61.0704846 229.979072,61.1828183 230.514317,61.407489 C231.049562,61.6321597 231.522024,61.9625529 231.931718,62.3986784 C232.341412,62.8348039 232.668501,63.3667369 232.912996,63.9944934 C233.15749,64.6222498 233.279736,65.339203 233.279736,66.1453744 C233.279736,66.93833 233.15749,67.6486753 232.912996,68.2764317 C232.668501,68.9041882 232.341412,69.4328172 231.931718,69.8623348 C231.522024,70.2918524 231.049562,70.6189416 230.514317,70.8436123 C229.979072,71.0682831 229.4141,71.1806167 228.819383,71.1806167 C228.224667,71.1806167 227.659694,71.0682831 227.124449,70.8436123 C226.589204,70.6189416 226.116742,70.2918524 225.707048,69.8623348 C225.297355,69.4328172 224.970266,68.9041882 224.725771,68.2764317 C224.481276,67.6486753 224.359031,66.93833 224.359031,66.1453744 Z M226.044053,66.1453744 C226.044053,66.7004433 226.110131,67.2026409 226.242291,67.6519824 C226.37445,68.1013238 226.562774,68.4878838 226.807269,68.811674 C227.051763,69.1354642 227.345813,69.386563 227.689427,69.564978 C228.033041,69.743393 228.40969,69.8325991 228.819383,69.8325991 C229.229077,69.8325991 229.605725,69.743393 229.949339,69.564978 C230.292953,69.386563 230.587003,69.1354642 230.831498,68.811674 C231.075992,68.4878838 231.264317,68.1013238 231.396476,67.6519824 C231.528635,67.2026409 231.594714,66.7004433 231.594714,66.1453744 C231.594714,65.5903056 231.528635,65.084804 231.396476,64.6288546 C231.264317,64.1729052 231.075992,63.7797373 230.831498,63.4493392 C230.587003,63.1189411 230.292953,62.8645383 229.949339,62.6861233 C229.605725,62.5077084 229.229077,62.4185022 228.819383,62.4185022 C228.40969,62.4185022 228.033041,62.5077084 227.689427,62.6861233 C227.345813,62.8645383 227.051763,63.1189411 226.807269,63.4493392 C226.562774,63.7797373 226.37445,64.1729052 226.242291,64.6288546 C226.110131,65.084804 226.044053,65.5903056 226.044053,66.1453744 Z M235.678414,61.30837 L237.323789,61.30837 L237.323789,67.1960352 C237.323789,68.1079341 237.465858,68.7654165 237.75,69.1685022 C238.034142,69.5715879 238.493389,69.7731278 239.127753,69.7731278 C239.629958,69.7731278 240.072685,69.6442744 240.455947,69.3865639 C240.839209,69.1288533 241.262112,68.7158619 241.72467,68.1475771 L241.72467,61.30837 L243.35022,61.30837 L243.35022,70.9427313 L242.002203,70.9427313 L241.863436,69.4361233 L241.803965,69.4361233 C241.354623,69.9647604 240.882161,70.3876636 240.386564,70.7048458 C239.890967,71.022028 239.306171,71.1806167 238.632159,71.1806167 C237.601316,71.1806167 236.851324,70.8634393 236.382159,70.2290749 C235.912993,69.5947105 235.678414,68.6563939 235.678414,67.4140969 L235.678414,61.30837 Z M246.601322,61.30837 L247.949339,61.30837 L248.088106,62.6960352 L248.147577,62.6960352 C248.610134,62.2334779 249.095812,61.8469179 249.604626,61.5363436 C250.113439,61.2257694 250.704842,61.0704846 251.378855,61.0704846 C252.396481,61.0704846 253.139865,61.387662 253.609031,62.0220264 C254.078196,62.6563908 254.312775,63.5947074 254.312775,64.8370044 L254.312775,70.9427313 L252.687225,70.9427313 L252.687225,65.0550661 C252.687225,64.1431672 252.541852,63.4856848 252.251101,63.0825991 C251.960351,62.6795134 251.497801,62.4779736 250.863436,62.4779736 C250.361231,62.4779736 249.918504,62.603523 249.535242,62.8546256 C249.15198,63.1057281 248.715861,63.4757685 248.226872,63.9647577 L248.226872,70.9427313 L246.601322,70.9427313 L246.601322,61.30837 Z M256.751101,66.1453744 C256.751101,65.3656349 256.866739,64.6618974 257.098018,64.034141 C257.329296,63.4063845 257.636562,62.8744515 258.019824,62.438326 C258.403086,62.0022005 258.845812,61.6651994 259.348018,61.4273128 C259.850223,61.1894261 260.378852,61.0704846 260.933921,61.0704846 C261.48899,61.0704846 261.971364,61.1696025 262.381057,61.3678414 C262.790751,61.5660803 263.207046,61.8370027 263.629956,62.1806167 L263.550661,60.5352423 L263.550661,56.8281938 L265.196035,56.8281938 L265.196035,70.9427313 L263.848018,70.9427313 L263.709251,69.8127753 L263.64978,69.8127753 C263.266518,70.1828212 262.827095,70.5033026 262.331498,70.7742291 C261.835901,71.0451555 261.303968,71.1806167 260.735683,71.1806167 C259.519818,71.1806167 258.551766,70.7444978 257.831498,69.8722467 C257.11123,68.9999956 256.751101,67.7577173 256.751101,66.1453744 Z M258.436123,66.1255507 C258.436123,67.2885521 258.667399,68.1938294 259.129956,68.8414097 C259.592513,69.48899 260.246692,69.8127753 261.092511,69.8127753 C261.541852,69.8127753 261.964756,69.7037456 262.361233,69.4856828 C262.757711,69.2676201 263.154183,68.933923 263.550661,68.4845815 L263.550661,63.4493392 C263.140967,63.0792933 262.747799,62.8182827 262.371145,62.6662996 C261.994492,62.5143164 261.607931,62.438326 261.211454,62.438326 C260.828192,62.438326 260.468063,62.5275321 260.131057,62.7059471 C259.794051,62.8843621 259.500001,63.1354609 259.248899,63.4592511 C258.997796,63.7830413 258.79956,64.1696013 258.654185,64.6189427 C258.50881,65.0682842 258.436123,65.5704818 258.436123,66.1255507 Z M271.737885,66.1453744 C271.737885,65.339203 271.863435,64.6222498 272.114537,63.9944934 C272.36564,63.3667369 272.702641,62.8348039 273.125551,62.3986784 C273.54846,61.9625529 274.040746,61.6321597 274.602423,61.407489 C275.1641,61.1828183 275.755504,61.0704846 276.376652,61.0704846 C277.011016,61.0704846 277.556165,61.1861222 278.012115,61.4174009 C278.468064,61.6486796 278.861232,61.916298 279.19163,62.2202643 L278.378855,63.2709251 C278.088104,63.0198225 277.787446,62.8149788 277.476872,62.6563877 C277.166298,62.4977966 276.819385,62.4185022 276.436123,62.4185022 C275.999998,62.4185022 275.596918,62.5077084 275.226872,62.6861233 C274.856826,62.8645383 274.539649,63.1189411 274.27533,63.4493392 C274.011012,63.7797373 273.802864,64.1729052 273.650881,64.6288546 C273.498898,65.084804 273.422907,65.5903056 273.422907,66.1453744 C273.422907,66.7004433 273.495594,67.2026409 273.640969,67.6519824 C273.786344,68.1013238 273.987884,68.4878838 274.245595,68.811674 C274.503305,69.1354642 274.817179,69.386563 275.187225,69.564978 C275.557271,69.743393 275.96035,69.8325991 276.396476,69.8325991 C276.859033,69.8325991 277.278632,69.7367851 277.655286,69.5451542 C278.03194,69.3535233 278.365637,69.125552 278.656388,68.8612335 L279.389868,69.9317181 C278.953742,70.3149799 278.468064,70.6189416 277.932819,70.8436123 C277.397574,71.0682831 276.83921,71.1806167 276.257709,71.1806167 C275.623345,71.1806167 275.028637,71.0682831 274.473568,70.8436123 C273.918499,70.6189416 273.439429,70.2918524 273.036344,69.8623348 C272.633258,69.4328172 272.31608,68.9041882 272.084802,68.2764317 C271.853523,67.6486753 271.737885,66.93833 271.737885,66.1453744 Z M280.777533,66.1453744 C280.777533,65.339203 280.899779,64.6222498 281.144273,63.9944934 C281.388768,63.3667369 281.715857,62.8348039 282.125551,62.3986784 C282.535244,61.9625529 283.007707,61.6321597 283.542952,61.407489 C284.078197,61.1828183 284.643169,61.0704846 285.237885,61.0704846 C285.832602,61.0704846 286.397574,61.1828183 286.932819,61.407489 C287.468064,61.6321597 287.940527,61.9625529 288.35022,62.3986784 C288.759914,62.8348039 289.087003,63.3667369 289.331498,63.9944934 C289.575992,64.6222498 289.698238,65.339203 289.698238,66.1453744 C289.698238,66.93833 289.575992,67.6486753 289.331498,68.2764317 C289.087003,68.9041882 288.759914,69.4328172 288.35022,69.8623348 C287.940527,70.2918524 287.468064,70.6189416 286.932819,70.8436123 C286.397574,71.0682831 285.832602,71.1806167 285.237885,71.1806167 C284.643169,71.1806167 284.078197,71.0682831 283.542952,70.8436123 C283.007707,70.6189416 282.535244,70.2918524 282.125551,69.8623348 C281.715857,69.4328172 281.388768,68.9041882 281.144273,68.2764317 C280.899779,67.6486753 280.777533,66.93833 280.777533,66.1453744 Z M282.462555,66.1453744 C282.462555,66.7004433 282.528634,67.2026409 282.660793,67.6519824 C282.792952,68.1013238 282.981276,68.4878838 283.225771,68.811674 C283.470266,69.1354642 283.764315,69.386563 284.10793,69.564978 C284.451544,69.743393 284.828192,69.8325991 285.237885,69.8325991 C285.647579,69.8325991 286.024227,69.743393 286.367841,69.564978 C286.711455,69.386563 287.005505,69.1354642 287.25,68.811674 C287.494495,68.4878838 287.682819,68.1013238 287.814978,67.6519824 C287.947137,67.2026409 288.013216,66.7004433 288.013216,66.1453744 C288.013216,65.5903056 287.947137,65.084804 287.814978,64.6288546 C287.682819,64.1729052 287.494495,63.7797373 287.25,63.4493392 C287.005505,63.1189411 286.711455,62.8645383 286.367841,62.6861233 C286.024227,62.5077084 285.647579,62.4185022 285.237885,62.4185022 C284.828192,62.4185022 284.451544,62.5077084 284.10793,62.6861233 C283.764315,62.8645383 283.470266,63.1189411 283.225771,63.4493392 C282.981276,63.7797373 282.792952,64.1729052 282.660793,64.6288546 C282.528634,65.084804 282.462555,65.5903056 282.462555,66.1453744 Z M292.235683,56.8281938 L293.861233,56.8281938 L293.861233,69.1189427 C293.861233,69.3832612 293.907489,69.5682814 294,69.6740088 C294.092511,69.7797362 294.198237,69.8325991 294.317181,69.8325991 L294.465859,69.8325991 C294.512115,69.8325991 294.581497,69.8193834 294.674009,69.7929515 L294.89207,71.0220264 C294.786343,71.0748901 294.660794,71.1145373 294.515419,71.1409692 C294.370043,71.167401 294.185023,71.1806167 293.960352,71.1806167 C293.339204,71.1806167 292.896477,70.9955966 292.632159,70.6255507 C292.36784,70.2555048 292.235683,69.71366 292.235683,69 L292.235683,56.8281938 Z M296.577093,66.1453744 C296.577093,65.339203 296.699338,64.6222498 296.943833,63.9944934 C297.188327,63.3667369 297.515416,62.8348039 297.92511,62.3986784 C298.334804,61.9625529 298.807266,61.6321597 299.342511,61.407489 C299.877756,61.1828183 300.442728,61.0704846 301.037445,61.0704846 C301.632162,61.0704846 302.197134,61.1828183 302.732379,61.407489 C303.267624,61.6321597 303.740086,61.9625529 304.14978,62.3986784 C304.559473,62.8348039 304.886563,63.3667369 305.131057,63.9944934 C305.375552,64.6222498 305.497797,65.339203 305.497797,66.1453744 C305.497797,66.93833 305.375552,67.6486753 305.131057,68.2764317 C304.886563,68.9041882 304.559473,69.4328172 304.14978,69.8623348 C303.740086,70.2918524 303.267624,70.6189416 302.732379,70.8436123 C302.197134,71.0682831 301.632162,71.1806167 301.037445,71.1806167 C300.442728,71.1806167 299.877756,71.0682831 299.342511,70.8436123 C298.807266,70.6189416 298.334804,70.2918524 297.92511,69.8623348 C297.515416,69.4328172 297.188327,68.9041882 296.943833,68.2764317 C296.699338,67.6486753 296.577093,66.93833 296.577093,66.1453744 Z M298.262115,66.1453744 C298.262115,66.7004433 298.328193,67.2026409 298.460352,67.6519824 C298.592512,68.1013238 298.780836,68.4878838 299.02533,68.811674 C299.269825,69.1354642 299.563875,69.386563 299.907489,69.564978 C300.251103,69.743393 300.627751,69.8325991 301.037445,69.8325991 C301.447139,69.8325991 301.823787,69.743393 302.167401,69.564978 C302.511015,69.386563 302.805065,69.1354642 303.049559,68.811674 C303.294054,68.4878838 303.482378,68.1013238 303.614537,67.6519824 C303.746697,67.2026409 303.812775,66.7004433 303.812775,66.1453744 C303.812775,65.5903056 303.746697,65.084804 303.614537,64.6288546 C303.482378,64.1729052 303.294054,63.7797373 303.049559,63.4493392 C302.805065,63.1189411 302.511015,62.8645383 302.167401,62.6861233 C301.823787,62.5077084 301.447139,62.4185022 301.037445,62.4185022 C300.627751,62.4185022 300.251103,62.5077084 299.907489,62.6861233 C299.563875,62.8645383 299.269825,63.1189411 299.02533,63.4493392 C298.780836,63.7797373 298.592512,64.1729052 298.460352,64.6288546 C298.328193,65.084804 298.262115,65.5903056 298.262115,66.1453744 Z M308.035242,61.30837 L309.38326,61.30837 L309.522026,63.0528634 L309.581498,63.0528634 C309.911896,62.4449309 310.311672,61.9625569 310.780837,61.6057269 C311.250002,61.2488969 311.762112,61.0704846 312.317181,61.0704846 C312.700442,61.0704846 313.044051,61.1365632 313.348018,61.2687225 L313.030837,62.6960352 C312.872246,62.6431715 312.726873,62.6035244 312.594714,62.5770925 C312.462554,62.5506607 312.297358,62.5374449 312.099119,62.5374449 C311.689425,62.5374449 311.263218,62.7026415 310.820485,63.0330396 C310.377751,63.3634378 309.991191,63.9383219 309.660793,64.7577093 L309.660793,70.9427313 L308.035242,70.9427313 L308.035242,61.30837 Z" id="Call-to-action-w/bac" fill="#FFFFFF"></path>
        </g>
    </g>
</svg>