<?xml version="1.0" encoding="UTF-8"?>
<svg width="600px" height="279px" viewBox="0 0 600 279" version="1.1" xmlns="http://www.w3.org/2000/svg" xmlns:xlink="http://www.w3.org/1999/xlink">
    <!-- Generator: Sketch 44.1 (41455) - http://www.bohemiancoding.com/sketch -->
    <title>calltoaction03</title>
    <desc>Created with Sketch.</desc>
    <defs></defs>
    <g id="Calltoaction" stroke="none" stroke-width="1" fill="none" fill-rule="evenodd">
        <g id="03">
            <rect id="Rectangle-11" fill="#4A4A4A" x="0" y="0" width="600" height="278.854626"></rect>
            <path d="M254.402015,56.8281938 L346.9163,56.8281938" id="Line" stroke="#FFFFFF" stroke-width="4" stroke-linecap="square"></path>
            <path d="M274.229075,75.9911894 L325.787866,75.9911894" id="Line" stroke="#FFFFFF" stroke-linecap="square"></path>
            <g id="Group" transform="translate(240.528634, 186.343612)">
                <rect id="Rectangle" fill="#4990E2" x="0" y="0" width="120.264317" height="46.2555066"></rect>
                <path d="M23.0748899,23.4977974 C23.0748899,22.7841374 23.1850209,22.1475799 23.4052863,21.5881057 C23.6255518,21.0286316 23.9229056,20.555068 24.2973568,20.1674009 C24.671808,19.7797337 25.107927,19.4845825 25.6057269,19.2819383 C26.1035267,19.0792941 26.6299532,18.9779736 27.185022,18.9779736 C27.7224696,18.9779736 28.2092489,19.0903072 28.6453744,19.314978 C29.0815,19.5396487 29.4449325,19.8017606 29.7356828,20.1013216 L28.6651982,21.3039648 C28.4449328,21.1013206 28.2224681,20.9427319 27.9977974,20.8281938 C27.7731266,20.7136558 27.5110147,20.6563877 27.2114537,20.6563877 C26.9118928,20.6563877 26.6321599,20.7202637 26.3722467,20.8480176 C26.1123335,20.9757716 25.8854635,21.1585891 25.69163,21.3964758 C25.4977964,21.6343624 25.3458155,21.9251084 25.2356828,22.2687225 C25.1255501,22.6123365 25.0704846,22.9999978 25.0704846,23.4317181 C25.0704846,24.3215904 25.25991,25.0110108 25.6387665,25.5 C26.017623,25.9889892 26.5242259,26.2334802 27.1585903,26.2334802 C27.511015,26.2334802 27.8193819,26.1629963 28.0837004,26.0220264 C28.3480189,25.8810566 28.585902,25.6960364 28.7973568,25.4669604 L29.8678414,26.6431718 C29.5066061,27.0660814 29.094716,27.3832589 28.6321586,27.5947137 C28.1696012,27.8061685 27.6696062,27.9118943 27.1321586,27.9118943 C26.5770897,27.9118943 26.0528659,27.8171816 25.5594714,27.6277533 C25.0660768,27.438325 24.6343631,27.1585922 24.2643172,26.7885463 C23.8942713,26.4185004 23.6035253,25.9581525 23.3920705,25.407489 C23.1806157,24.8568254 23.0748899,24.2202679 23.0748899,23.4977974 Z M34.6784141,27.9118943 C34.0969134,27.9118943 33.5660817,27.8083711 33.0859031,27.6013216 C32.6057245,27.3942721 32.1938343,27.0969182 31.8502203,26.7092511 C31.5066062,26.321584 31.2400891,25.850223 31.0506608,25.2951542 C30.8612325,24.7400853 30.7665198,24.1101357 30.7665198,23.4052863 C30.7665198,22.700437 30.8612325,22.07269 31.0506608,21.5220264 C31.2400891,20.9713629 31.5066062,20.5088124 31.8502203,20.1343612 C32.1938343,19.75991 32.6057245,19.4735693 33.0859031,19.2753304 C33.5660817,19.0770915 34.0969134,18.9779736 34.6784141,18.9779736 C35.2599148,18.9779736 35.7907465,19.0770915 36.2709251,19.2753304 C36.7511037,19.4735693 37.1629939,19.7621126 37.5066079,20.1409692 C37.850222,20.5198257 38.1167391,20.9845787 38.3061674,21.5352423 C38.4955957,22.0859058 38.5903084,22.7092476 38.5903084,23.4052863 C38.5903084,24.1101357 38.4955957,24.7400853 38.3061674,25.2951542 C38.1167391,25.850223 37.850222,26.321584 37.5066079,26.7092511 C37.1629939,27.0969182 36.7511037,27.3942721 36.2709251,27.6013216 C35.7907465,27.8083711 35.2599148,27.9118943 34.6784141,27.9118943 Z M34.6784141,26.2334802 C35.2687254,26.2334802 35.7356811,25.9801787 36.0792952,25.4735683 C36.4229092,24.9669578 36.5947137,24.2775374 36.5947137,23.4052863 C36.5947137,22.5418459 36.4229092,21.8678438 36.0792952,21.3832599 C35.7356811,20.898676 35.2687254,20.6563877 34.6784141,20.6563877 C34.0881028,20.6563877 33.6211471,20.898676 33.277533,21.3832599 C32.933919,21.8678438 32.7621145,22.5418459 32.7621145,23.4052863 C32.7621145,24.2775374 32.933919,24.9669578 33.277533,25.4735683 C33.6211471,25.9801787 34.0881028,26.2334802 34.6784141,26.2334802 Z M40.215859,19.1365639 L42.2114537,19.1365639 L44.4581498,23.4185022 L45.3039648,25.3215859 L45.3568282,25.3215859 C45.3127751,24.8634338 45.2621148,24.3524257 45.2048458,23.7885463 C45.1475768,23.2246668 45.1189427,22.6872272 45.1189427,22.1762115 L45.1189427,19.1365639 L46.969163,19.1365639 L46.969163,27.753304 L44.9735683,27.753304 L42.7268722,23.4581498 L41.8810573,21.5814978 L41.8281938,21.5814978 C41.8722469,22.0572711 41.9229072,22.5682792 41.9801762,23.1145374 C42.0374452,23.6607957 42.0660793,24.1894248 42.0660793,24.7004405 L42.0660793,27.753304 L40.215859,27.753304 L40.215859,19.1365639 Z M50.6828194,20.7753304 L48.3171806,20.7753304 L48.3171806,19.1365639 L55.0044053,19.1365639 L55.0044053,20.7753304 L52.6387665,20.7753304 L52.6387665,27.753304 L50.6828194,27.753304 L50.6828194,20.7753304 Z M60,24.185022 L59.8017621,23.3920705 C59.6784135,22.9603503 59.5594719,22.5022051 59.4449339,22.0176211 C59.3303959,21.5330372 59.2158596,21.0660815 59.1013216,20.6167401 L59.0484581,20.6167401 C58.9427307,21.0748922 58.8348023,21.5440505 58.7246696,22.0242291 C58.6145369,22.5044077 58.497798,22.9603503 58.3744493,23.3920705 L58.1629956,24.185022 L60,24.185022 Z M60.3964758,25.7048458 L57.7665198,25.7048458 L57.2378855,27.753304 L55.2555066,27.753304 L57.9515419,19.1365639 L60.2907489,19.1365639 L62.9867841,27.753304 L60.9251101,27.753304 L60.3964758,25.7048458 Z M63.5154185,23.4977974 C63.5154185,22.7841374 63.6255496,22.1475799 63.845815,21.5881057 C64.0660804,21.0286316 64.3634343,20.555068 64.7378855,20.1674009 C65.1123367,19.7797337 65.5484557,19.4845825 66.0462555,19.2819383 C66.5440554,19.0792941 67.0704818,18.9779736 67.6255507,18.9779736 C68.1629983,18.9779736 68.6497776,19.0903072 69.0859031,19.314978 C69.5220286,19.5396487 69.8854611,19.8017606 70.1762115,20.1013216 L69.1057269,21.3039648 C68.8854615,21.1013206 68.6629967,20.9427319 68.438326,20.8281938 C68.2136553,20.7136558 67.9515433,20.6563877 67.6519824,20.6563877 C67.3524214,20.6563877 67.0726885,20.7202637 66.8127753,20.8480176 C66.5528621,20.9757716 66.3259922,21.1585891 66.1321586,21.3964758 C65.938325,21.6343624 65.7863442,21.9251084 65.6762115,22.2687225 C65.5660787,22.6123365 65.5110132,22.9999978 65.5110132,23.4317181 C65.5110132,24.3215904 65.7004386,25.0110108 66.0792952,25.5 C66.4581517,25.9889892 66.9647545,26.2334802 67.5991189,26.2334802 C67.9515436,26.2334802 68.2599106,26.1629963 68.5242291,26.0220264 C68.7885476,25.8810566 69.0264307,25.6960364 69.2378855,25.4669604 L70.30837,26.6431718 C69.9471348,27.0660814 69.5352446,27.3832589 69.0726872,27.5947137 C68.6101298,27.8061685 68.1101348,27.9118943 67.5726872,27.9118943 C67.0176184,27.9118943 66.4933945,27.8171816 66,27.6277533 C65.5066055,27.438325 65.0748917,27.1585922 64.7048458,26.7885463 C64.3347999,26.4185004 64.0440539,25.9581525 63.8325991,25.407489 C63.6211443,24.8568254 63.5154185,24.2202679 63.5154185,23.4977974 Z M73.2951542,20.7753304 L70.9295154,20.7753304 L70.9295154,19.1365639 L77.6167401,19.1365639 L77.6167401,20.7753304 L75.2511013,20.7753304 L75.2511013,27.753304 L73.2951542,27.753304 L73.2951542,20.7753304 Z M81.660793,19.1365639 L83.6167401,19.1365639 L83.6167401,23.9603524 C83.6167401,24.8061716 83.7444921,25.3964741 84,25.7312775 C84.2555079,26.066081 84.6255482,26.2334802 85.1101322,26.2334802 C85.5947161,26.2334802 85.9691617,26.066081 86.2334802,25.7312775 C86.4977987,25.3964741 86.6299559,24.8061716 86.6299559,23.9603524 L86.6299559,19.1365639 L88.5066079,19.1365639 L88.5066079,23.7621145 C88.5066079,25.2070557 88.2180646,26.2599086 87.6409692,26.9207048 C87.0638738,27.5815011 86.2202699,27.9118943 85.1101322,27.9118943 C83.9911838,27.9118943 83.1365668,27.5815011 82.5462555,26.9207048 C81.9559442,26.2599086 81.660793,25.2070557 81.660793,23.7621145 L81.660793,19.1365639 Z M91.0572687,25.3348018 C91.3656403,25.5991203 91.7070466,25.8149771 92.0814978,25.9823789 C92.455949,26.1497806 92.8237867,26.2334802 93.185022,26.2334802 C93.5903104,26.2334802 93.8920695,26.1585911 94.0903084,26.0088106 C94.2885472,25.8590301 94.3876652,25.6563889 94.3876652,25.4008811 C94.3876652,25.2687218 94.3590311,25.1541855 94.3017621,25.0572687 C94.2444931,24.9603519 94.1607935,24.8744497 94.0506608,24.7995595 C93.9405281,24.7246692 93.8083708,24.6541854 93.654185,24.5881057 L93.1453744,24.3700441 L92.0220264,23.8942731 C91.801761,23.806167 91.5881068,23.6916307 91.3810573,23.5506608 C91.1740078,23.4096909 90.9889876,23.2444943 90.8259912,23.0550661 C90.6629948,22.8656378 90.5330401,22.6453757 90.4361233,22.3942731 C90.3392066,22.1431706 90.2907489,21.8590324 90.2907489,21.5418502 C90.2907489,21.1894256 90.365638,20.8568298 90.5154185,20.5440529 C90.665199,20.231276 90.8766506,19.9581509 91.1497797,19.7246696 C91.4229089,19.4911883 91.7466942,19.3083707 92.1211454,19.1762115 C92.4955966,19.0440522 92.9074867,18.9779736 93.3568282,18.9779736 C93.8590333,18.9779736 94.3546231,19.0748889 94.8436123,19.2687225 C95.3326016,19.462556 95.7621127,19.7444915 96.1321586,20.1145374 L95.1409692,21.3436123 C94.8590294,21.1233469 94.5770939,20.9537451 94.2951542,20.8348018 C94.0132144,20.7158584 93.7004422,20.6563877 93.3568282,20.6563877 C93.0220248,20.6563877 92.7555076,20.7246689 92.5572687,20.8612335 C92.3590298,20.997798 92.2599119,21.1894261 92.2599119,21.4361233 C92.2599119,21.5682826 92.2929512,21.6806163 92.3590308,21.7731278 C92.4251105,21.8656392 92.5176206,21.9493388 92.6365639,22.0242291 C92.7555072,22.0991193 92.8942723,22.1696032 93.0528634,22.2356828 C93.2114545,22.3017624 93.383259,22.3744489 93.5682819,22.4537445 L94.6784141,22.9030837 C95.2070511,23.1145385 95.6233465,23.4052845 95.9273128,23.7753304 C96.2312791,24.1453763 96.3832599,24.6343582 96.3832599,25.2422907 C96.3832599,25.603526 96.3105734,25.9449323 96.1651982,26.2665198 C96.0198231,26.5881073 95.8083714,26.8700428 95.530837,27.1123348 C95.2533026,27.3546268 94.9118963,27.5484574 94.5066079,27.6938326 C94.1013196,27.8392078 93.6431744,27.9118943 93.1321586,27.9118943 C92.5682791,27.9118943 92.0066107,27.8083711 91.4471366,27.6013216 C90.8876624,27.3942721 90.3876674,27.0837025 89.9471366,26.6696035 L91.0572687,25.3348018 Z" id="CONTACT-US" fill="#FFFFFF"></path>
            </g>
            <path d="M219.996476,112.088987 C219.996476,110.875765 220.183699,109.793617 220.55815,108.842511 C220.932601,107.891405 221.438103,107.086347 222.07467,106.427313 C222.711237,105.768279 223.452639,105.266522 224.298899,104.922026 C225.145158,104.577531 226.040083,104.405286 226.9837,104.405286 C227.897361,104.405286 228.724886,104.596254 229.4663,104.978194 C230.207713,105.360134 230.825548,105.805724 231.319824,106.314978 L229.5,108.359471 C229.125549,108.014976 228.747359,107.745375 228.365419,107.550661 C227.983478,107.355946 227.537888,107.25859 227.028634,107.25859 C226.519381,107.25859 226.043835,107.36718 225.601982,107.584361 C225.16013,107.801543 224.774451,108.112333 224.444934,108.51674 C224.115417,108.921147 223.857049,109.415416 223.669824,109.999559 C223.482598,110.583703 223.388987,111.242728 223.388987,111.976652 C223.388987,113.489435 223.71101,114.66145 224.355066,115.492731 C224.999122,116.324013 225.860347,116.739648 226.938767,116.739648 C227.537888,116.739648 228.062112,116.619825 228.511454,116.380176 C228.960795,116.140527 229.365196,115.825993 229.72467,115.436564 L231.544493,117.436123 C230.930393,118.15507 230.23018,118.694271 229.443833,119.053744 C228.657485,119.413218 227.807494,119.592952 226.893833,119.592952 C225.950216,119.592952 225.059035,119.43194 224.220264,119.109912 C223.381494,118.787884 222.64758,118.312338 222.018502,117.68326 C221.389424,117.054182 220.895156,116.271591 220.535683,115.335463 C220.17621,114.399335 219.996476,113.317187 219.996476,112.088987 Z M239.969604,113.257269 L239.632599,111.909251 C239.422906,111.175327 239.220706,110.39648 239.025991,109.572687 C238.831277,108.748895 238.636565,107.95507 238.44185,107.191189 L238.351982,107.191189 C238.172246,107.970048 237.988767,108.767617 237.801542,109.583921 C237.614316,110.400224 237.41586,111.175327 237.206167,111.909251 L236.846696,113.257269 L239.969604,113.257269 Z M240.643612,115.840969 L236.172687,115.840969 L235.274009,119.323348 L231.903965,119.323348 L236.487225,104.67489 L240.463877,104.67489 L245.047137,119.323348 L241.542291,119.323348 L240.643612,115.840969 Z M246.642291,104.67489 L249.944934,104.67489 L249.944934,116.537445 L255.74141,116.537445 L255.74141,119.323348 L246.642291,119.323348 L246.642291,104.67489 Z M258.280176,104.67489 L261.582819,104.67489 L261.582819,116.537445 L267.379295,116.537445 L267.379295,119.323348 L258.280176,119.323348 L258.280176,104.67489 Z M277.444493,107.460793 L273.422907,107.460793 L273.422907,104.67489 L284.791189,104.67489 L284.791189,107.460793 L280.769604,107.460793 L280.769604,119.323348 L277.444493,119.323348 L277.444493,107.460793 Z M293.036564,119.592952 C292.048013,119.592952 291.145599,119.416962 290.329295,119.064978 C289.512992,118.712994 288.812778,118.207492 288.228634,117.548458 C287.64449,116.889424 287.191411,116.08811 286.869383,115.144493 C286.547355,114.200876 286.386344,113.129962 286.386344,111.931718 C286.386344,110.733474 286.547355,109.666304 286.869383,108.730176 C287.191411,107.794048 287.64449,107.007712 288.228634,106.371145 C288.812778,105.734578 289.512992,105.247799 290.329295,104.910793 C291.145599,104.573787 292.048013,104.405286 293.036564,104.405286 C294.025115,104.405286 294.927529,104.573787 295.743833,104.910793 C296.560136,105.247799 297.26035,105.738323 297.844493,106.382379 C298.428637,107.026435 298.881716,107.816515 299.203744,108.752643 C299.525773,109.688771 299.686784,110.748452 299.686784,111.931718 C299.686784,113.129962 299.525773,114.200876 299.203744,115.144493 C298.881716,116.08811 298.428637,116.889424 297.844493,117.548458 C297.26035,118.207492 296.560136,118.712994 295.743833,119.064978 C294.927529,119.416962 294.025115,119.592952 293.036564,119.592952 Z M293.036564,116.739648 C294.040093,116.739648 294.833918,116.309035 295.418062,115.447797 C296.002206,114.58656 296.294273,113.414545 296.294273,111.931718 C296.294273,110.463869 296.002206,109.318066 295.418062,108.494273 C294.833918,107.67048 294.040093,107.25859 293.036564,107.25859 C292.033035,107.25859 291.23921,107.67048 290.655066,108.494273 C290.070922,109.318066 289.778855,110.463869 289.778855,111.931718 C289.778855,113.414545 290.070922,114.58656 290.655066,115.447797 C291.23921,116.309035 292.033035,116.739648 293.036564,116.739648 Z M313.324229,113.257269 L312.987225,111.909251 C312.777532,111.175327 312.575331,110.39648 312.380617,109.572687 C312.185902,108.748895 311.99119,107.95507 311.796476,107.191189 L311.706608,107.191189 C311.526871,107.970048 311.343393,108.767617 311.156167,109.583921 C310.968942,110.400224 310.770486,111.175327 310.560793,111.909251 L310.201322,113.257269 L313.324229,113.257269 Z M313.998238,115.840969 L309.527313,115.840969 L308.628634,119.323348 L305.25859,119.323348 L309.84185,104.67489 L313.818502,104.67489 L318.401762,119.323348 L314.896916,119.323348 L313.998238,115.840969 Z M319.300441,112.088987 C319.300441,110.875765 319.487663,109.793617 319.862115,108.842511 C320.236566,107.891405 320.742067,107.086347 321.378634,106.427313 C322.015201,105.768279 322.756604,105.266522 323.602863,104.922026 C324.449123,104.577531 325.344048,104.405286 326.287665,104.405286 C327.201326,104.405286 328.028851,104.596254 328.770264,104.978194 C329.511678,105.360134 330.129513,105.805724 330.623789,106.314978 L328.803965,108.359471 C328.429514,108.014976 328.051323,107.745375 327.669383,107.550661 C327.287443,107.355946 326.841853,107.25859 326.332599,107.25859 C325.823345,107.25859 325.3478,107.36718 324.905947,107.584361 C324.464095,107.801543 324.078416,108.112333 323.748899,108.51674 C323.419382,108.921147 323.161014,109.415416 322.973789,109.999559 C322.786563,110.583703 322.692952,111.242728 322.692952,111.976652 C322.692952,113.489435 323.014975,114.66145 323.659031,115.492731 C324.303087,116.324013 325.164312,116.739648 326.242731,116.739648 C326.841853,116.739648 327.366077,116.619825 327.815419,116.380176 C328.26476,116.140527 328.669161,115.825993 329.028634,115.436564 L330.848458,117.436123 C330.234358,118.15507 329.534145,118.694271 328.747797,119.053744 C327.96145,119.413218 327.111458,119.592952 326.197797,119.592952 C325.25418,119.592952 324.363,119.43194 323.524229,119.109912 C322.685458,118.787884 321.951545,118.312338 321.322467,117.68326 C320.693389,117.054182 320.199121,116.271591 319.839648,115.335463 C319.480174,114.399335 319.300441,113.317187 319.300441,112.088987 Z M335.925991,107.460793 L331.904405,107.460793 L331.904405,104.67489 L343.272687,104.67489 L343.272687,107.460793 L339.251101,107.460793 L339.251101,119.323348 L335.925991,119.323348 L335.925991,107.460793 Z M345.564317,104.67489 L348.86696,104.67489 L348.86696,119.323348 L345.564317,119.323348 L345.564317,104.67489 Z M358.280617,119.592952 C357.292066,119.592952 356.389652,119.416962 355.573348,119.064978 C354.757044,118.712994 354.056831,118.207492 353.472687,117.548458 C352.888543,116.889424 352.435464,116.08811 352.113436,115.144493 C351.791408,114.200876 351.630396,113.129962 351.630396,111.931718 C351.630396,110.733474 351.791408,109.666304 352.113436,108.730176 C352.435464,107.794048 352.888543,107.007712 353.472687,106.371145 C354.056831,105.734578 354.757044,105.247799 355.573348,104.910793 C356.389652,104.573787 357.292066,104.405286 358.280617,104.405286 C359.269168,104.405286 360.171582,104.573787 360.987885,104.910793 C361.804189,105.247799 362.504402,105.738323 363.088546,106.382379 C363.67269,107.026435 364.125769,107.816515 364.447797,108.752643 C364.769825,109.688771 364.930837,110.748452 364.930837,111.931718 C364.930837,113.129962 364.769825,114.200876 364.447797,115.144493 C364.125769,116.08811 363.67269,116.889424 363.088546,117.548458 C362.504402,118.207492 361.804189,118.712994 360.987885,119.064978 C360.171582,119.416962 359.269168,119.592952 358.280617,119.592952 Z M358.280617,116.739648 C359.284146,116.739648 360.077971,116.309035 360.662115,115.447797 C361.246258,114.58656 361.538326,113.414545 361.538326,111.931718 C361.538326,110.463869 361.246258,109.318066 360.662115,108.494273 C360.077971,107.67048 359.284146,107.25859 358.280617,107.25859 C357.277087,107.25859 356.483263,107.67048 355.899119,108.494273 C355.314975,109.318066 355.022907,110.463869 355.022907,111.931718 C355.022907,113.414545 355.314975,114.58656 355.899119,115.447797 C356.483263,116.309035 357.277087,116.739648 358.280617,116.739648 Z M367.694273,104.67489 L371.086784,104.67489 L374.906167,111.954185 L376.344053,115.189427 L376.433921,115.189427 C376.35903,114.410569 376.272908,113.541855 376.175551,112.58326 C376.078193,111.624665 376.029515,110.711018 376.029515,109.842291 L376.029515,104.67489 L379.17489,104.67489 L379.17489,119.323348 L375.782379,119.323348 L371.962996,112.021586 L370.52511,108.831278 L370.435242,108.831278 C370.510133,109.640092 370.596255,110.508806 370.693612,111.437445 C370.79097,112.366084 370.839648,113.264753 370.839648,114.13348 L370.839648,119.323348 L367.694273,119.323348 L367.694273,104.67489 Z M157.268722,133.74978 L162.278855,133.74978 C163.042735,133.74978 163.750437,133.805947 164.401982,133.918282 C165.053527,134.030617 165.622685,134.229073 166.109471,134.513656 C166.596258,134.798239 166.978192,135.172685 167.255286,135.637004 C167.53238,136.101324 167.670925,136.685459 167.670925,137.389427 C167.670925,137.718944 167.622247,138.048457 167.52489,138.377974 C167.427533,138.707491 167.281499,139.014536 167.086784,139.299119 C166.89207,139.583702 166.637447,139.838325 166.322907,140.062996 C166.008368,140.287666 165.641412,140.452422 165.222026,140.557269 L165.222026,140.647137 C166.27049,140.841851 167.06057,141.216297 167.592291,141.770485 C168.124011,142.324672 168.389868,143.09603 168.389868,144.084581 C168.389868,144.833484 168.243834,145.47753 167.951762,146.01674 C167.65969,146.55595 167.255289,147.00154 166.738546,147.353524 C166.221804,147.705508 165.618946,147.96762 164.929956,148.139868 C164.240966,148.312115 163.499563,148.398238 162.705727,148.398238 L157.268722,148.398238 L157.268722,133.74978 Z M162.121586,139.65859 C162.930401,139.65859 163.51828,139.497579 163.885242,139.175551 C164.252204,138.853523 164.435683,138.415421 164.435683,137.861233 C164.435683,137.307046 164.24846,136.910133 163.874009,136.670485 C163.499558,136.430836 162.922911,136.311013 162.144053,136.311013 L160.571366,136.311013 L160.571366,139.65859 L162.121586,139.65859 Z M162.436123,145.837004 C164.248467,145.837004 165.154626,145.170491 165.154626,143.837445 C165.154626,143.193389 164.929958,142.725332 164.480617,142.43326 C164.031275,142.141188 163.349784,141.995154 162.436123,141.995154 L160.571366,141.995154 L160.571366,145.837004 L162.436123,145.837004 Z M177.062115,142.332159 L176.72511,140.984141 C176.515417,140.250217 176.313217,139.47137 176.118502,138.647577 C175.923788,137.823784 175.729076,137.02996 175.534361,136.266079 L175.444493,136.266079 C175.264757,137.044938 175.081278,137.842507 174.894053,138.658811 C174.706827,139.475114 174.508371,140.250217 174.298678,140.984141 L173.939207,142.332159 L177.062115,142.332159 Z M177.736123,144.915859 L173.265198,144.915859 L172.36652,148.398238 L168.996476,148.398238 L173.579736,133.74978 L177.556388,133.74978 L182.139648,148.398238 L178.634802,148.398238 L177.736123,144.915859 Z M183.038326,141.163877 C183.038326,139.950655 183.225549,138.868507 183.6,137.917401 C183.974451,136.966295 184.479953,136.161237 185.11652,135.502203 C185.753087,134.843169 186.494489,134.341411 187.340749,133.996916 C188.187009,133.652421 189.081934,133.480176 190.025551,133.480176 C190.939212,133.480176 191.766736,133.671143 192.50815,134.053084 C193.249563,134.435024 193.867398,134.880614 194.361674,135.389868 L192.54185,137.434361 C192.167399,137.089866 191.789209,136.820265 191.407269,136.625551 C191.025328,136.430836 190.579738,136.33348 190.070485,136.33348 C189.561231,136.33348 189.085685,136.442069 188.643833,136.659251 C188.20198,136.876433 187.816301,137.187223 187.486784,137.59163 C187.157267,137.996037 186.8989,138.490305 186.711674,139.074449 C186.524448,139.658593 186.430837,140.317617 186.430837,141.051542 C186.430837,142.564325 186.75286,143.736339 187.396916,144.567621 C188.040972,145.398903 188.902197,145.814537 189.980617,145.814537 C190.579739,145.814537 191.103963,145.694715 191.553304,145.455066 C192.002645,145.215417 192.407047,144.900883 192.76652,144.511454 L194.586344,146.511013 C193.972244,147.22996 193.27203,147.769161 192.485683,148.128634 C191.699335,148.488108 190.849344,148.667841 189.935683,148.667841 C188.992066,148.667841 188.100885,148.50683 187.262115,148.184802 C186.423344,147.862774 185.68943,147.387228 185.060352,146.75815 C184.431274,146.129072 183.937006,145.34648 183.577533,144.410352 C183.21806,143.474224 183.038326,142.392077 183.038326,141.163877 Z M196.810573,133.74978 L200.113216,133.74978 L200.113216,139.748458 L200.203084,139.748458 L204.561674,133.74978 L208.201322,133.74978 L203.77533,139.591189 L209.010132,148.398238 L205.392952,148.398238 L201.820705,142.219824 L200.113216,144.46652 L200.113216,148.398238 L196.810573,148.398238 L196.810573,133.74978 Z M209.908811,141.163877 C209.908811,139.950655 210.099778,138.868507 210.481718,137.917401 C210.863658,136.966295 211.380393,136.161237 212.031938,135.502203 C212.683483,134.843169 213.447352,134.341411 214.323568,133.996916 C215.199784,133.652421 216.132154,133.480176 217.120705,133.480176 C218.15419,133.480176 219.049115,133.674888 219.805507,134.064317 C220.561898,134.453746 221.179733,134.895592 221.659031,135.389868 L219.839207,137.434361 C219.479734,137.089866 219.101544,136.820265 218.704626,136.625551 C218.307707,136.430836 217.794717,136.33348 217.165639,136.33348 C216.596473,136.33348 216.075994,136.442069 215.604185,136.659251 C215.132376,136.876433 214.724231,137.187223 214.379736,137.59163 C214.035241,137.996037 213.769384,138.490305 213.582159,139.074449 C213.394933,139.658593 213.301322,140.317617 213.301322,141.051542 C213.301322,142.564325 213.642067,143.736339 214.323568,144.567621 C215.005069,145.398903 216.034795,145.814537 217.412775,145.814537 C217.712336,145.814537 218.004404,145.777093 218.288987,145.702203 C218.57357,145.627312 218.805726,145.514979 218.985463,145.365198 L218.985463,142.848899 L216.559031,142.848899 L216.559031,140.152863 L221.906167,140.152863 L221.906167,146.892952 C221.381936,147.387227 220.692956,147.806606 219.839207,148.151101 C218.985458,148.495596 218.041855,148.667841 217.00837,148.667841 C216.019819,148.667841 215.094938,148.50683 214.2337,148.184802 C213.372463,147.862774 212.619827,147.387228 211.975771,146.75815 C211.331715,146.129072 210.826213,145.34648 210.459251,144.410352 C210.092289,143.474224 209.908811,142.392077 209.908811,141.163877 Z M228.24185,140.489868 L229.949339,140.489868 C230.818066,140.489868 231.480835,140.30639 231.937665,139.939427 C232.394496,139.572465 232.622907,139.029519 232.622907,138.310573 C232.622907,137.591626 232.394496,137.089869 231.937665,136.805286 C231.480835,136.520703 230.818066,136.378414 229.949339,136.378414 L228.24185,136.378414 L228.24185,140.489868 Z M232.870044,148.398238 L230.061674,143.118502 L228.24185,143.118502 L228.24185,148.398238 L224.939207,148.398238 L224.939207,133.74978 L230.218943,133.74978 C230.997801,133.74978 231.72797,133.824669 232.409471,133.974449 C233.090973,134.12423 233.686341,134.375108 234.195595,134.727093 C234.704848,135.079077 235.10925,135.547134 235.408811,136.131278 C235.708372,136.715421 235.85815,137.441846 235.85815,138.310573 C235.85815,139.388992 235.622249,140.276428 235.150441,140.972907 C234.678632,141.669387 234.045819,142.189866 233.251982,142.534361 L236.577093,148.398238 L232.870044,148.398238 Z M244.732599,148.667841 C243.744048,148.667841 242.841634,148.491852 242.02533,148.139868 C241.209027,147.787884 240.508813,147.282382 239.92467,146.623348 C239.340526,145.964314 238.887447,145.163 238.565419,144.219383 C238.24339,143.275766 238.082379,142.204852 238.082379,141.006608 C238.082379,139.808364 238.24339,138.741194 238.565419,137.805066 C238.887447,136.868938 239.340526,136.082602 239.92467,135.446035 C240.508813,134.809468 241.209027,134.322689 242.02533,133.985683 C242.841634,133.648677 243.744048,133.480176 244.732599,133.480176 C245.72115,133.480176 246.623564,133.648677 247.439868,133.985683 C248.256171,134.322689 248.956385,134.813213 249.540529,135.457269 C250.124673,136.101325 250.577752,136.891405 250.89978,137.827533 C251.221808,138.763661 251.382819,139.823342 251.382819,141.006608 C251.382819,142.204852 251.221808,143.275766 250.89978,144.219383 C250.577752,145.163 250.124673,145.964314 249.540529,146.623348 C248.956385,147.282382 248.256171,147.787884 247.439868,148.139868 C246.623564,148.491852 245.72115,148.667841 244.732599,148.667841 Z M244.732599,145.814537 C245.736128,145.814537 246.529953,145.383925 247.114097,144.522687 C247.698241,143.661449 247.990308,142.489435 247.990308,141.006608 C247.990308,139.538759 247.698241,138.392956 247.114097,137.569163 C246.529953,136.74537 245.736128,136.33348 244.732599,136.33348 C243.72907,136.33348 242.935245,136.74537 242.351101,137.569163 C241.766957,138.392956 241.47489,139.538759 241.47489,141.006608 C241.47489,142.489435 241.766957,143.661449 242.351101,144.522687 C242.935245,145.383925 243.72907,145.814537 244.732599,145.814537 Z M254.056388,133.74978 L257.381498,133.74978 L257.381498,141.95022 C257.381498,143.388113 257.598676,144.391627 258.03304,144.960793 C258.467403,145.529959 259.096472,145.814537 259.920264,145.814537 C260.744057,145.814537 261.380614,145.529959 261.829956,144.960793 C262.279297,144.391627 262.503965,143.388113 262.503965,141.95022 L262.503965,133.74978 L265.694273,133.74978 L265.694273,141.613216 C265.694273,144.069616 265.203749,145.859466 264.222687,146.982819 C263.241625,148.106173 261.807498,148.667841 259.920264,148.667841 C258.018052,148.667841 256.565203,148.106173 255.561674,146.982819 C254.558145,145.859466 254.056388,144.069616 254.056388,141.613216 L254.056388,133.74978 Z M269.086784,133.74978 L272.479295,133.74978 L276.298678,141.029075 L277.736564,144.264317 L277.826432,144.264317 C277.751541,143.485459 277.665419,142.616745 277.568062,141.65815 C277.470704,140.699555 277.422026,139.785907 277.422026,138.917181 L277.422026,133.74978 L280.567401,133.74978 L280.567401,148.398238 L277.17489,148.398238 L273.355507,141.096476 L271.917621,137.906167 L271.827753,137.906167 C271.902644,138.714982 271.988766,139.583696 272.086123,140.512335 C272.183481,141.440974 272.232159,142.339643 272.232159,143.20837 L272.232159,148.398238 L269.086784,148.398238 L269.086784,133.74978 Z M284.027313,133.74978 L288.161233,133.74978 C289.284587,133.74978 290.29559,133.892069 291.194273,134.176652 C292.092956,134.461235 292.864314,134.899336 293.50837,135.490969 C294.152426,136.082602 294.646694,136.835238 294.991189,137.748899 C295.335685,138.66256 295.50793,139.748452 295.50793,141.006608 C295.50793,142.264764 295.335685,143.358145 294.991189,144.286784 C294.646694,145.215423 294.159915,145.983037 293.530837,146.589648 C292.901759,147.196259 292.149123,147.649338 291.272907,147.948899 C290.396692,148.24846 289.419389,148.398238 288.340969,148.398238 L284.027313,148.398238 L284.027313,133.74978 Z M287.959031,145.72467 C288.588109,145.72467 289.157266,145.642292 289.66652,145.477533 C290.175773,145.312775 290.61013,145.046918 290.969604,144.679956 C291.329077,144.312994 291.609911,143.829959 291.812115,143.230837 C292.014318,142.631715 292.115419,141.890313 292.115419,141.006608 C292.115419,140.137881 292.014318,139.407712 291.812115,138.816079 C291.609911,138.224446 291.329077,137.752645 290.969604,137.400661 C290.61013,137.048677 290.175773,136.797798 289.66652,136.648018 C289.157266,136.498237 288.588109,136.423348 287.959031,136.423348 L287.329956,136.423348 L287.329956,145.72467 L287.959031,145.72467 Z M297.529956,141.545815 L303.056828,141.545815 L303.056828,143.882379 L297.529956,143.882379 L297.529956,141.545815 Z M305.752863,133.74978 L309.055507,133.74978 L309.055507,148.398238 L305.752863,148.398238 L305.752863,133.74978 Z M312.515419,133.74978 L316.020264,133.74978 L318.469163,140.332599 L319.345374,142.893833 L319.435242,142.893833 L320.311454,140.332599 L322.692952,133.74978 L326.17533,133.74978 L326.17533,148.398238 L323.097357,148.398238 L323.097357,143.028634 C323.097357,142.669161 323.112335,142.272249 323.142291,141.837885 C323.172247,141.403522 323.209691,140.965421 323.254626,140.523568 C323.29956,140.081716 323.344493,139.647359 323.389427,139.220485 C323.434361,138.79361 323.479295,138.400442 323.524229,138.040969 L323.434361,138.040969 L322.221145,141.43348 L319.974449,147.117621 L318.648899,147.117621 L316.402203,141.43348 L315.233921,138.040969 L315.144053,138.040969 C315.188987,138.400442 315.23392,138.79361 315.278855,139.220485 C315.323789,139.647359 315.364978,140.081716 315.402423,140.523568 C315.439868,140.965421 315.473568,141.403522 315.503524,141.837885 C315.53348,142.272249 315.548458,142.669161 315.548458,143.028634 L315.548458,148.398238 L312.515419,148.398238 L312.515419,133.74978 Z M335.836123,142.332159 L335.499119,140.984141 C335.289426,140.250217 335.087226,139.47137 334.892511,138.647577 C334.697796,137.823784 334.503085,137.02996 334.30837,136.266079 L334.218502,136.266079 C334.038766,137.044938 333.855287,137.842507 333.668062,138.658811 C333.480836,139.475114 333.28238,140.250217 333.072687,140.984141 L332.713216,142.332159 L335.836123,142.332159 Z M336.510132,144.915859 L332.039207,144.915859 L331.140529,148.398238 L327.770485,148.398238 L332.353744,133.74978 L336.330396,133.74978 L340.913656,148.398238 L337.408811,148.398238 L336.510132,144.915859 Z M341.812335,141.163877 C341.812335,139.950655 342.003302,138.868507 342.385242,137.917401 C342.767183,136.966295 343.283917,136.161237 343.935463,135.502203 C344.587008,134.843169 345.350877,134.341411 346.227093,133.996916 C347.103308,133.652421 348.035678,133.480176 349.024229,133.480176 C350.057714,133.480176 350.952639,133.674888 351.709031,134.064317 C352.465422,134.453746 353.083258,134.895592 353.562555,135.389868 L351.742731,137.434361 C351.383258,137.089866 351.005068,136.820265 350.60815,136.625551 C350.211231,136.430836 349.698241,136.33348 349.069163,136.33348 C348.499997,136.33348 347.979518,136.442069 347.507709,136.659251 C347.035901,136.876433 346.627755,137.187223 346.28326,137.59163 C345.938765,137.996037 345.672908,138.490305 345.485683,139.074449 C345.298457,139.658593 345.204846,140.317617 345.204846,141.051542 C345.204846,142.564325 345.545591,143.736339 346.227093,144.567621 C346.908594,145.398903 347.938319,145.814537 349.3163,145.814537 C349.615861,145.814537 349.907928,145.777093 350.192511,145.702203 C350.477094,145.627312 350.70925,145.514979 350.888987,145.365198 L350.888987,142.848899 L348.462555,142.848899 L348.462555,140.152863 L353.809692,140.152863 L353.809692,146.892952 C353.28546,147.387227 352.59648,147.806606 351.742731,148.151101 C350.888983,148.495596 349.94538,148.667841 348.911894,148.667841 C347.923343,148.667841 346.998462,148.50683 346.137225,148.184802 C345.275987,147.862774 344.523351,147.387228 343.879295,146.75815 C343.235239,146.129072 342.729738,145.34648 342.362775,144.410352 C341.995813,143.474224 341.812335,142.392077 341.812335,141.163877 Z M356.842731,133.74978 L366.009251,133.74978 L366.009251,136.535683 L360.145374,136.535683 L360.145374,139.478855 L365.13304,139.478855 L365.13304,142.242291 L360.145374,142.242291 L360.145374,145.612335 L366.233921,145.612335 L366.233921,148.398238 L356.842731,148.398238 L356.842731,133.74978 Z M372.232599,132.446696 L374.389427,132.446696 L369.873568,151.992952 L367.71674,151.992952 L372.232599,132.446696 Z M376.074449,141.163877 C376.074449,139.950655 376.261672,138.868507 376.636123,137.917401 C377.010575,136.966295 377.516076,136.161237 378.152643,135.502203 C378.78921,134.843169 379.530613,134.341411 380.376872,133.996916 C381.223132,133.652421 382.118057,133.480176 383.061674,133.480176 C383.975335,133.480176 384.80286,133.671143 385.544273,134.053084 C386.285687,134.435024 386.903522,134.880614 387.397797,135.389868 L385.577974,137.434361 C385.203522,137.089866 384.825332,136.820265 384.443392,136.625551 C384.061452,136.430836 383.615862,136.33348 383.106608,136.33348 C382.597354,136.33348 382.121808,136.442069 381.679956,136.659251 C381.238104,136.876433 380.852425,137.187223 380.522907,137.59163 C380.19339,137.996037 379.935023,138.490305 379.747797,139.074449 C379.560572,139.658593 379.46696,140.317617 379.46696,141.051542 C379.46696,142.564325 379.788984,143.736339 380.43304,144.567621 C381.077096,145.398903 381.938321,145.814537 383.01674,145.814537 C383.615862,145.814537 384.140086,145.694715 384.589427,145.455066 C385.038769,145.215417 385.44317,144.900883 385.802643,144.511454 L387.622467,146.511013 C387.008367,147.22996 386.308154,147.769161 385.521806,148.128634 C384.735459,148.488108 383.885467,148.667841 382.971806,148.667841 C382.028189,148.667841 381.137009,148.50683 380.298238,148.184802 C379.459467,147.862774 378.725554,147.387228 378.096476,146.75815 C377.467398,146.129072 376.97313,145.34648 376.613656,144.410352 C376.254183,143.474224 376.074449,142.392077 376.074449,141.163877 Z M395.800441,148.667841 C394.811889,148.667841 393.909475,148.491852 393.093172,148.139868 C392.276868,147.787884 391.576655,147.282382 390.992511,146.623348 C390.408367,145.964314 389.955288,145.163 389.63326,144.219383 C389.311232,143.275766 389.15022,142.204852 389.15022,141.006608 C389.15022,139.808364 389.311232,138.741194 389.63326,137.805066 C389.955288,136.868938 390.408367,136.082602 390.992511,135.446035 C391.576655,134.809468 392.276868,134.322689 393.093172,133.985683 C393.909475,133.648677 394.811889,133.480176 395.800441,133.480176 C396.788992,133.480176 397.691406,133.648677 398.507709,133.985683 C399.324013,134.322689 400.024226,134.813213 400.60837,135.457269 C401.192514,136.101325 401.645593,136.891405 401.967621,137.827533 C402.289649,138.763661 402.450661,139.823342 402.450661,141.006608 C402.450661,142.204852 402.289649,143.275766 401.967621,144.219383 C401.645593,145.163 401.192514,145.964314 400.60837,146.623348 C400.024226,147.282382 399.324013,147.787884 398.507709,148.139868 C397.691406,148.491852 396.788992,148.667841 395.800441,148.667841 Z M395.800441,145.814537 C396.80397,145.814537 397.597794,145.383925 398.181938,144.522687 C398.766082,143.661449 399.05815,142.489435 399.05815,141.006608 C399.05815,139.538759 398.766082,138.392956 398.181938,137.569163 C397.597794,136.74537 396.80397,136.33348 395.800441,136.33348 C394.796911,136.33348 394.003087,136.74537 393.418943,137.569163 C392.834799,138.392956 392.542731,139.538759 392.542731,141.006608 C392.542731,142.489435 392.834799,143.661449 393.418943,144.522687 C394.003087,145.383925 394.796911,145.814537 395.800441,145.814537 Z M405.214097,133.74978 L408.51674,133.74978 L408.51674,145.612335 L414.313216,145.612335 L414.313216,148.398238 L405.214097,148.398238 L405.214097,133.74978 Z M422.805727,148.667841 C421.817176,148.667841 420.914762,148.491852 420.098458,148.139868 C419.282155,147.787884 418.581941,147.282382 417.997797,146.623348 C417.413653,145.964314 416.960574,145.163 416.638546,144.219383 C416.316518,143.275766 416.155507,142.204852 416.155507,141.006608 C416.155507,139.808364 416.316518,138.741194 416.638546,137.805066 C416.960574,136.868938 417.413653,136.082602 417.997797,135.446035 C418.581941,134.809468 419.282155,134.322689 420.098458,133.985683 C420.914762,133.648677 421.817176,133.480176 422.805727,133.480176 C423.794278,133.480176 424.696692,133.648677 425.512996,133.985683 C426.329299,134.322689 427.029512,134.813213 427.613656,135.457269 C428.1978,136.101325 428.650879,136.891405 428.972907,137.827533 C429.294936,138.763661 429.455947,139.823342 429.455947,141.006608 C429.455947,142.204852 429.294936,143.275766 428.972907,144.219383 C428.650879,145.163 428.1978,145.964314 427.613656,146.623348 C427.029512,147.282382 426.329299,147.787884 425.512996,148.139868 C424.696692,148.491852 423.794278,148.667841 422.805727,148.667841 Z M422.805727,145.814537 C423.809256,145.814537 424.603081,145.383925 425.187225,144.522687 C425.771369,143.661449 426.063436,142.489435 426.063436,141.006608 C426.063436,139.538759 425.771369,138.392956 425.187225,137.569163 C424.603081,136.74537 423.809256,136.33348 422.805727,136.33348 C421.802198,136.33348 421.008373,136.74537 420.424229,137.569163 C419.840085,138.392956 419.548018,139.538759 419.548018,141.006608 C419.548018,142.489435 419.840085,143.661449 420.424229,144.522687 C421.008373,145.383925 421.802198,145.814537 422.805727,145.814537 Z M435.522026,140.489868 L437.229515,140.489868 C438.098242,140.489868 438.761011,140.30639 439.217841,139.939427 C439.674672,139.572465 439.903084,139.029519 439.903084,138.310573 C439.903084,137.591626 439.674672,137.089869 439.217841,136.805286 C438.761011,136.520703 438.098242,136.378414 437.229515,136.378414 L435.522026,136.378414 L435.522026,140.489868 Z M440.15022,148.398238 L437.34185,143.118502 L435.522026,143.118502 L435.522026,148.398238 L432.219383,148.398238 L432.219383,133.74978 L437.499119,133.74978 C438.277977,133.74978 439.008146,133.824669 439.689648,133.974449 C440.371149,134.12423 440.966517,134.375108 441.475771,134.727093 C441.985025,135.079077 442.389426,135.547134 442.688987,136.131278 C442.988548,136.715421 443.138326,137.441846 443.138326,138.310573 C443.138326,139.388992 442.902425,140.276428 442.430617,140.972907 C441.958808,141.669387 441.325995,142.189866 440.532159,142.534361 L443.857269,148.398238 L440.15022,148.398238 Z" id="CALL-TO-ACTION-BACKG" fill="#FFFFFF"></path>
        </g>
    </g>
</svg>