<?xml version="1.0" encoding="UTF-8"?>
<svg width="600px" height="339px" viewBox="0 0 600 339" version="1.1" xmlns="http://www.w3.org/2000/svg" xmlns:xlink="http://www.w3.org/1999/xlink">
    <!-- Generator: Sketch 44.1 (41455) - http://www.bohemiancoding.com/sketch -->
    <title>charts09</title>
    <desc>Created with Sketch.</desc>
    <defs></defs>
    <g id="Charts" stroke="none" stroke-width="1" fill="none" fill-rule="evenodd">
        <g id="09">
            <rect id="Rectangle-14" fill="#F8F8F8" x="0" y="0" width="599.992422" height="338.559998"></rect>
            <circle id="Oval-4" stroke="#979797" fill="#D8D8D8" cx="134.913154" cy="164.772543" r="117.694674"></circle>
            <g id="Group-5" transform="translate(284.470530, 55.091124)">
                <path d="M0.500828399,3.00497039 L116.710286,3.00497039" id="Line" stroke="#979797" stroke-width="6" stroke-linecap="square"></path>
                <path d="M0.500828399,20.033136 L116.710286,20.033136" id="Line" stroke="#4990E2" stroke-width="4" stroke-linecap="square"></path>
                <path d="M0,51.0844967 L293.98627,51.0844967" id="Line" stroke="#979797" stroke-width="4" stroke-linecap="square"></path>
                <path d="M0,64.8572776 L293.98627,64.8572776" id="Line" stroke="#979797" stroke-width="4" stroke-linecap="square"></path>
                <path d="M0,78.6300586 L293.98627,78.6300586" id="Line" stroke="#979797" stroke-width="4" stroke-linecap="square"></path>
                <path d="M0,92.4028396 L293.98627,92.4028396" id="Line" stroke="#979797" stroke-width="4" stroke-linecap="square"></path>
                <path d="M0,128.712898 L293.98627,128.712898" id="Line" stroke="#D7D9D9" stroke-linecap="square"></path>
                <path d="M0,215.85704 L293.98627,215.85704" id="Line" stroke="#D7D9D9" stroke-linecap="square"></path>
                <path d="M36.5965328,163.437335 C36.5965328,164.194591 36.8579626,164.785062 37.38083,165.208765 C37.9036975,165.632468 38.5257201,165.844316 39.2469166,165.844316 C39.9140234,165.844316 40.4639275,165.668527 40.8966454,165.316944 C41.3293633,164.96536 41.545719,164.428979 41.545719,163.707782 C41.545719,163.329154 41.4600782,163.00462 41.288794,162.734172 C41.1175099,162.463723 40.8696023,162.215815 40.5450638,161.990441 C40.2205254,161.765068 39.8373955,161.553219 39.3956627,161.35489 C38.9539298,161.156561 38.4626221,160.940205 37.9217247,160.705817 C37.5430965,161.066415 37.2275778,161.481097 36.975159,161.949874 C36.7227402,162.418652 36.5965328,162.914467 36.5965328,163.437335 Z M40.2475718,158.271791 C40.9507384,157.460445 41.3023164,156.622066 41.3023164,155.75663 C41.3023164,155.089524 41.1175126,154.553142 40.7478994,154.147469 C40.3782861,153.741796 39.8689488,153.538962 39.2198719,153.538962 C38.6970044,153.538962 38.2462634,153.701229 37.8676352,154.025767 C37.4890071,154.350306 37.2996958,154.846121 37.2996958,155.513228 C37.2996958,156.216394 37.5701405,156.766298 38.1110378,157.162956 C38.6519352,157.559615 39.3641061,157.929222 40.2475718,158.271791 Z M33.1888963,163.897095 C33.1888963,162.85136 33.4728632,161.994952 34.0408054,161.327845 C34.6087477,160.660739 35.2983815,160.110835 36.1097276,159.678117 L36.1097276,159.569938 C35.4426208,159.0651 34.8927167,158.492659 34.4599988,157.852597 C34.0272809,157.212535 33.8109252,156.432753 33.8109252,155.513228 C33.8109252,154.792031 33.9461475,154.138457 34.2165962,153.552485 C34.4870449,152.966512 34.8656674,152.46619 35.352475,152.051502 C35.8392826,151.636814 36.4207386,151.321295 37.0968603,151.104936 C37.772982,150.888577 38.50769,150.780399 39.3010061,150.780399 C40.0762923,150.780399 40.7884632,150.893085 41.4375401,151.118459 C42.0866169,151.343832 42.636521,151.659351 43.0872688,152.065024 C43.5380166,152.470697 43.8895946,152.966512 44.1420134,153.552485 C44.3944322,154.138457 44.5206397,154.783016 44.5206397,155.486183 C44.5206397,156.315559 44.2952692,157.050267 43.8445213,157.690329 C43.3937735,158.330391 42.8709139,158.848743 42.2759268,159.245401 L42.2759268,159.35358 C43.1053028,159.804328 43.8084588,160.381276 44.385416,161.084443 C44.9623732,161.787609 45.2508475,162.707121 45.2508475,163.843006 C45.2508475,164.528142 45.1066103,165.15918 44.8181317,165.736137 C44.5296531,166.313094 44.1194788,166.813417 43.5875964,167.23712 C43.055714,167.660823 42.4156617,167.994371 41.6674203,168.237775 C40.9191789,168.481179 40.085308,168.602879 39.1657824,168.602879 C38.3003466,168.602879 37.502535,168.490194 36.7723235,168.26482 C36.0421121,168.039446 35.4110746,167.71942 34.8791922,167.304732 C34.3473098,166.890044 33.932628,166.394228 33.6351344,165.817271 C33.3376409,165.240314 33.1888963,164.600262 33.1888963,163.897095 Z M53.1479097,159.029043 C53.5806276,159.029043 54.0223538,158.902836 54.4731016,158.650417 C54.9238494,158.397998 55.3385312,157.956272 55.7171594,157.325225 C55.5368602,155.972981 55.1988044,155.039947 54.7029819,154.526095 C54.2071593,154.012242 53.6527478,153.75532 53.0397307,153.75532 C52.4627735,153.75532 51.9579436,153.976183 51.5252257,154.417916 C51.0925078,154.859649 50.8761521,155.567312 50.8761521,156.540928 C50.8761521,157.460453 51.0925078,158.105013 51.5252257,158.474626 C51.9579436,158.844239 52.4988328,159.029043 53.1479097,159.029043 Z M49.6050496,164.167542 C49.8935282,164.492081 50.2811655,164.776048 50.7679731,165.019452 C51.2547808,165.262855 51.7505959,165.384555 52.2554335,165.384555 C52.7422411,165.384555 53.1929822,165.294407 53.6076701,165.114108 C54.0223581,164.933809 54.3874584,164.631813 54.7029819,164.20811 C55.0185053,163.784407 55.2709203,163.234503 55.4602344,162.558381 C55.6495485,161.882259 55.7622337,161.039373 55.7982936,160.029698 C55.5819346,160.318177 55.3295196,160.575099 55.041041,160.800473 C54.7525624,161.025847 54.4550733,161.215158 54.1485648,161.368413 C53.8420563,161.521667 53.5355524,161.638859 53.2290439,161.719994 C52.9225354,161.801129 52.6340611,161.841695 52.3636124,161.841695 C51.624386,161.841695 50.943767,161.733518 50.321735,161.517159 C49.699703,161.3008 49.1633212,160.976266 48.7125734,160.543548 C48.2618256,160.11083 47.9057401,159.560926 47.6443064,158.893819 C47.3828727,158.226713 47.2521578,157.442423 47.2521578,156.540928 C47.2521578,155.657462 47.4054097,154.85965 47.7119182,154.147469 C48.0184267,153.435287 48.4286011,152.826787 48.9424536,152.321949 C49.4563061,151.817112 50.0602991,151.433982 50.7544508,151.172548 C51.4486024,150.911114 52.1833103,150.780399 52.9585965,150.780399 C53.7879725,150.780399 54.594799,150.942666 55.3791002,151.267205 C56.1634014,151.591743 56.8575426,152.096573 57.4615447,152.78171 C58.0655467,153.466846 58.5523471,154.345791 58.9219603,155.418571 C59.2915735,156.491351 59.4763773,157.784978 59.4763773,159.29949 C59.4763773,160.904153 59.2825587,162.292435 58.8949156,163.464379 C58.5072724,164.636324 57.9934276,165.60091 57.3533657,166.358166 C56.7133038,167.115422 55.9740885,167.678849 55.1356976,168.048462 C54.2973067,168.418075 53.4273764,168.602879 52.5258808,168.602879 C51.3899963,168.602879 50.4028734,168.395538 49.5644825,167.98085 C48.7260916,167.566162 48.0364577,167.088376 47.4955604,166.547479 L49.6050496,164.167542 Z" id="89" fill="#79797B"></path>
                <path d="M112.18456,166.006584 C113.284384,164.978879 114.289537,164.018801 115.200047,163.12632 C116.110558,162.23384 116.894847,161.395461 117.552939,160.61116 C118.211031,159.826859 118.724876,159.096658 119.094489,158.420537 C119.464102,157.744415 119.648906,157.099855 119.648906,156.486838 C119.648906,155.639432 119.43255,154.994873 118.999833,154.55314 C118.567115,154.111407 117.972136,153.890544 117.21488,153.890544 C116.583833,153.890544 116.024914,154.066333 115.538107,154.417916 C115.051299,154.769499 114.591543,155.179674 114.158825,155.648451 L111.995247,153.511917 C112.842652,152.610422 113.708075,151.929803 114.591541,151.47004 C115.475007,151.010277 116.529741,150.780399 117.755775,150.780399 C118.603181,150.780399 119.373948,150.911114 120.068099,151.172548 C120.762251,151.433982 121.361737,151.803589 121.866574,152.281382 C122.371412,152.759175 122.759049,153.331616 123.029498,153.998723 C123.299946,154.665829 123.435169,155.41406 123.435169,156.243436 C123.435169,156.964632 123.281917,157.69934 122.975408,158.447581 C122.6689,159.195823 122.258725,159.944053 121.744873,160.692294 C121.23102,161.440536 120.645057,162.188766 119.986965,162.937007 C119.328873,163.685248 118.648254,164.419956 117.945088,165.141153 C118.377806,165.087063 118.860099,165.037482 119.391981,164.992407 C119.923864,164.947332 120.397142,164.924795 120.81183,164.924795 L124.273556,164.924795 L124.273556,168.278342 L112.18456,168.278342 L112.18456,166.006584 Z M127.113253,166.114763 C127.113253,165.393567 127.343131,164.794081 127.802893,164.316289 C128.262656,163.838496 128.835097,163.599603 129.520234,163.599603 C130.205371,163.599603 130.777812,163.838496 131.237574,164.316289 C131.697337,164.794081 131.927215,165.393567 131.927215,166.114763 C131.927215,166.81793 131.697337,167.408401 131.237574,167.886193 C130.777812,168.363986 130.205371,168.602879 129.520234,168.602879 C128.835097,168.602879 128.262656,168.363986 127.802893,167.886193 C127.343131,167.408401 127.113253,166.81793 127.113253,166.114763 Z M135.983925,163.680737 C136.506793,164.149515 137.070219,164.550675 137.674221,164.884228 C138.278223,165.217781 138.949827,165.384555 139.689054,165.384555 C140.572519,165.384555 141.275675,165.159185 141.798543,164.708437 C142.32141,164.257689 142.58284,163.590593 142.58284,162.707127 C142.58284,161.841691 142.334933,161.183609 141.83911,160.732861 C141.343287,160.282114 140.689713,160.056743 139.878367,160.056743 C139.625948,160.056743 139.400578,160.070265 139.202248,160.09731 C139.003919,160.124355 138.810101,160.173936 138.620787,160.246056 C138.431473,160.318176 138.233147,160.408324 138.025803,160.516503 C137.818459,160.624683 137.588581,160.759905 137.336162,160.922174 L135.551209,159.786296 L136.038015,151.104936 L145.774119,151.104936 L145.774119,154.458483 L139.472696,154.458483 L139.175204,157.676806 C139.499742,157.532567 139.810753,157.428897 140.108247,157.365792 C140.405741,157.302687 140.734782,157.271135 141.09538,157.271135 C141.834606,157.271135 142.533255,157.379313 143.191347,157.595672 C143.849438,157.812031 144.430894,158.136565 144.935732,158.569283 C145.44057,159.002001 145.837222,159.551905 146.1257,160.219011 C146.414179,160.886118 146.558416,161.679422 146.558416,162.598948 C146.558416,163.554533 146.387134,164.401926 146.044566,165.141153 C145.701998,165.880379 145.242242,166.506909 144.665285,167.020762 C144.088327,167.534614 143.416723,167.926759 142.650452,168.197208 C141.884181,168.467656 141.086369,168.602879 140.256993,168.602879 C138.85066,168.602879 137.660704,168.373001 136.687088,167.913238 C135.713473,167.453475 134.884109,166.881034 134.198973,166.195897 L135.983925,163.680737 Z M154.671836,159.029043 C155.104554,159.029043 155.54628,158.902836 155.997028,158.650417 C156.447776,158.397998 156.862458,157.956272 157.241086,157.325225 C157.060787,155.972981 156.722731,155.039947 156.226908,154.526095 C155.731086,154.012242 155.176674,153.75532 154.563657,153.75532 C153.9867,153.75532 153.48187,153.976183 153.049152,154.417916 C152.616434,154.859649 152.400078,155.567312 152.400078,156.540928 C152.400078,157.460453 152.616434,158.105013 153.049152,158.474626 C153.48187,158.844239 154.022759,159.029043 154.671836,159.029043 Z M151.128976,164.167542 C151.417455,164.492081 151.805092,164.776048 152.291899,165.019452 C152.778707,165.262855 153.274522,165.384555 153.77936,165.384555 C154.266167,165.384555 154.716909,165.294407 155.131597,165.114108 C155.546285,164.933809 155.911385,164.631813 156.226908,164.20811 C156.542432,163.784407 156.794847,163.234503 156.984161,162.558381 C157.173475,161.882259 157.28616,161.039373 157.32222,160.029698 C157.105861,160.318177 156.853446,160.575099 156.564967,160.800473 C156.276489,161.025847 155.979,161.215158 155.672491,161.368413 C155.365983,161.521667 155.059479,161.638859 154.75297,161.719994 C154.446462,161.801129 154.157987,161.841695 153.887539,161.841695 C153.148312,161.841695 152.467693,161.733518 151.845661,161.517159 C151.223629,161.3008 150.687248,160.976266 150.2365,160.543548 C149.785752,160.11083 149.429667,159.560926 149.168233,158.893819 C148.906799,158.226713 148.776084,157.442423 148.776084,156.540928 C148.776084,155.657462 148.929336,154.85965 149.235845,154.147469 C149.542353,153.435287 149.952527,152.826787 150.46638,152.321949 C150.980232,151.817112 151.584225,151.433982 152.278377,151.172548 C152.972529,150.911114 153.707237,150.780399 154.482523,150.780399 C155.311899,150.780399 156.118725,150.942666 156.903027,151.267205 C157.687328,151.591743 158.381469,152.096573 158.985471,152.78171 C159.589473,153.466846 160.076273,154.345791 160.445887,155.418571 C160.8155,156.491351 161.000304,157.784978 161.000304,159.29949 C161.000304,160.904153 160.806485,162.292435 160.418842,163.464379 C160.031199,164.636324 159.517354,165.60091 158.877292,166.358166 C158.23723,167.115422 157.498015,167.678849 156.659624,168.048462 C155.821233,168.418075 154.951303,168.602879 154.049807,168.602879 C152.913923,168.602879 151.9268,168.395538 151.088409,167.98085 C150.250018,167.566162 149.560384,167.088376 149.019487,166.547479 L151.128976,164.167542 Z M169.275992,168.602879 C168.356467,168.602879 167.518088,168.40906 166.760832,168.021417 C166.003576,167.633774 165.359016,167.061333 164.827133,166.304076 C164.295251,165.54682 163.880569,164.609279 163.583076,163.491424 C163.285582,162.37357 163.136838,161.08445 163.136838,159.624027 C163.136838,158.163604 163.285582,156.8835 163.583076,155.783675 C163.880569,154.68385 164.295251,153.759831 164.827133,153.01159 C165.359016,152.263349 166.003576,151.70443 166.760832,151.334816 C167.518088,150.965203 168.356467,150.780399 169.275992,150.780399 C170.195518,150.780399 171.033896,150.965203 171.791152,151.334816 C172.548409,151.70443 173.192968,152.263349 173.724851,153.01159 C174.256733,153.759831 174.671415,154.68385 174.968909,155.783675 C175.266402,156.8835 175.415147,158.163604 175.415147,159.624027 C175.415147,161.08445 175.266402,162.37357 174.968909,163.491424 C174.671415,164.609279 174.256733,165.54682 173.724851,166.304076 C173.192968,167.061333 172.548409,167.633774 171.791152,168.021417 C171.033896,168.40906 170.195518,168.602879 169.275992,168.602879 Z M169.275992,165.519779 C169.61856,165.519779 169.934079,165.434138 170.222558,165.262854 C170.511036,165.09157 170.763451,164.780559 170.97981,164.329811 C171.196169,163.879063 171.362944,163.27507 171.480138,162.517814 C171.597332,161.760557 171.655929,160.795972 171.655929,159.624027 C171.655929,158.452083 171.597332,157.492004 171.480138,156.743763 C171.362944,155.995522 171.196169,155.409558 170.97981,154.985855 C170.763451,154.562153 170.511036,154.269171 170.222558,154.106902 C169.934079,153.944632 169.61856,153.863499 169.275992,153.863499 C168.951454,153.863499 168.64495,153.944632 168.356471,154.106902 C168.067993,154.269171 167.815578,154.562153 167.599219,154.985855 C167.38286,155.409558 167.211578,155.995522 167.085369,156.743763 C166.959159,157.492004 166.896056,158.452083 166.896056,159.624027 C166.896056,160.795972 166.959159,161.760557 167.085369,162.517814 C167.211578,163.27507 167.38286,163.879063 167.599219,164.329811 C167.815578,164.780559 168.067993,165.09157 168.356471,165.262854 C168.64495,165.434138 168.951454,165.519779 169.275992,165.519779 Z" id="2.590" fill="#79797B"></path>
                <path d="M229.269224,165.060019 L233.001398,165.060019 L233.001398,155.134601 L229.783074,155.134601 L229.783074,152.673531 C230.72063,152.493232 231.513934,152.276876 232.163011,152.024457 C232.812088,151.772038 233.443125,151.465534 234.056142,151.104936 L236.976973,151.104936 L236.976973,165.060019 L240.195297,165.060019 L240.195297,168.278342 L229.269224,168.278342 L229.269224,165.060019 Z M249.606864,161.138532 L249.606864,158.352925 C249.606864,157.793997 249.624894,157.149438 249.660953,156.419226 C249.697013,155.689015 249.733073,155.05347 249.769132,154.512573 L249.660953,154.512573 C249.444595,154.98135 249.219224,155.459136 248.984835,155.945943 C248.750446,156.432751 248.507046,156.919551 248.254627,157.406359 L245.98287,161.138532 L249.606864,161.138532 Z M255.286258,164.167542 L253.311992,164.167542 L253.311992,168.278342 L249.606864,168.278342 L249.606864,164.167542 L242.169562,164.167542 L242.169562,161.436024 L248.44394,151.104936 L253.311992,151.104936 L253.311992,161.138532 L255.286258,161.138532 L255.286258,164.167542 Z" id="14" fill="#79797B"></path>
                <path d="M0,106.175621 L248.410886,106.175621" id="Line" stroke="#979797" stroke-width="4" stroke-linecap="square"></path>
                <path d="M34.5571595,192.318105 L57.5952659,192.318105" id="Line" stroke="#979797" stroke-width="4" stroke-linecap="square"></path>
                <path d="M129.714555,192.318105 L157.278323,192.318105" id="Line" stroke="#979797" stroke-width="4" stroke-linecap="square"></path>
                <path d="M219.863667,192.318105 L265.439051,192.318105" id="Line" stroke="#979797" stroke-width="4" stroke-linecap="square"></path>
            </g>
            <g id="icon-picture" opacity="0.699999988" transform="translate(104.362622, 143.236922)" stroke="#979797">
                <polyline id="Path-15" stroke-width="2" points="1.27297264 36.9188211 21.6380094 15.7028768 35.9520227 30.7408139 44.3360474 21.9327715 60.206703 38.6060774"></polyline>
                <circle id="Oval-6" fill="#D8D8D8" cx="50.0828399" cy="11.0182248" r="3.00497039"></circle>
                <rect id="Rectangle-10" stroke-width="2" x="1" y="1" width="59.1010646" height="41.0712423" rx="3"></rect>
            </g>
        </g>
    </g>
</svg>