<?xml version="1.0" encoding="UTF-8"?>
<svg width="600px" height="354px" viewBox="0 0 600 354" version="1.1" xmlns="http://www.w3.org/2000/svg" xmlns:xlink="http://www.w3.org/1999/xlink">
    <!-- Generator: Sketch 44.1 (41455) - http://www.bohemiancoding.com/sketch -->
    <title>charts08</title>
    <desc>Created with Sketch.</desc>
    <defs></defs>
    <g id="Charts" stroke="none" stroke-width="1" fill="none" fill-rule="evenodd">
        <g id="08">
            <rect id="Rectangle-13" fill="#4990E2" x="0" y="0" width="600" height="353.589316"></rect>
            <polygon id="Triangle-2" fill="#FFFFFF" points="297.996661 22.0367279 280.467446 0 315.525876 0"></polygon>
            <path d="M259.957262,92.4180301 C258.987641,92.4180301 258.102508,92.2454107 257.301836,91.9001669 C256.501165,91.5549231 255.81436,91.0591017 255.241402,90.4126878 C254.668445,89.7662739 254.224042,88.9803051 253.90818,88.0547579 C253.592319,87.1292107 253.434391,86.0788039 253.434391,84.9035058 C253.434391,83.7282078 253.592319,82.6814737 253.90818,81.7632721 C254.224042,80.8450705 254.668445,80.0737928 255.241402,79.4494157 C255.81436,78.8250386 256.501165,78.347581 257.301836,78.0170284 C258.102508,77.6864758 258.987641,77.521202 259.957262,77.521202 C260.926883,77.521202 261.812016,77.6864758 262.612688,78.0170284 C263.41336,78.347581 264.100164,78.8287114 264.673122,79.4604341 C265.24608,80.0921567 265.690483,80.8671073 266.006344,81.7853088 C266.322205,82.7035104 266.480134,83.742899 266.480134,84.9035058 C266.480134,86.0788039 266.322205,87.1292107 266.006344,88.0547579 C265.690483,88.9803051 265.24608,89.7662739 264.673122,90.4126878 C264.100164,91.0591017 263.41336,91.5549231 262.612688,91.9001669 C261.812016,92.2454107 260.926883,92.4180301 259.957262,92.4180301 Z M259.957262,89.6193656 C260.941574,89.6193656 261.720197,89.1969992 262.293155,88.3522538 C262.866113,87.5075083 263.152588,86.3579372 263.152588,84.9035058 C263.152588,83.4637658 262.866113,82.3399039 262.293155,81.5318865 C261.720197,80.7238691 260.941574,80.3198664 259.957262,80.3198664 C258.97295,80.3198664 258.194327,80.7238691 257.621369,81.5318865 C257.048411,82.3399039 256.761937,83.4637658 256.761937,84.9035058 C256.761937,86.3579372 257.048411,87.5075083 257.621369,88.3522538 C258.194327,89.1969992 258.97295,89.6193656 259.957262,89.6193656 Z M268.816027,81.2233723 L272.055426,81.2233723 L272.055426,87.5919866 C272.055426,88.3853128 272.165608,88.92888 272.385977,89.2227045 C272.606345,89.516529 272.951584,89.6634391 273.421703,89.6634391 C273.833057,89.6634391 274.178296,89.5679475 274.457429,89.3769616 C274.736562,89.1859757 275.037728,88.8774646 275.360935,88.451419 L275.360935,81.2233723 L278.600334,81.2233723 L278.600334,92.1535893 L275.955927,92.1535893 L275.713523,90.6330551 L275.647412,90.6330551 C275.177293,91.1913217 274.674126,91.6283791 274.137896,91.9442404 C273.601667,92.2601017 272.958935,92.4180301 272.209683,92.4180301 C271.019694,92.4180301 270.156597,92.0287184 269.620367,91.2500835 C269.084138,90.4714485 268.816027,89.3916597 268.816027,88.0106845 L268.816027,81.2233723 Z M281.443072,81.2233723 L284.087479,81.2233723 L284.307846,83.1405676 L284.395993,83.1405676 C284.792656,82.3913151 285.270114,81.8404024 285.828381,81.487813 C286.386647,81.1352236 286.944905,80.9589316 287.503172,80.9589316 C287.811688,80.9589316 288.065108,80.9772953 288.263439,81.0140234 C288.461771,81.0507514 288.641735,81.1058427 288.803339,81.1792988 L288.274457,83.9779633 C288.06878,83.9191984 287.877797,83.8751254 287.701503,83.8457429 C287.525208,83.8163605 287.319534,83.8016694 287.084474,83.8016694 C286.67312,83.8016694 286.243408,83.9485795 285.795326,84.242404 C285.347243,84.5362285 284.976295,85.0577592 284.682471,85.8070117 L284.682471,92.1535893 L281.443072,92.1535893 L281.443072,81.2233723 Z M295.06177,77.7856427 L304.118865,77.7856427 L304.118865,80.518197 L298.301169,80.518197 L298.301169,83.8457429 L303.281469,83.8457429 L303.281469,86.5782972 L298.301169,86.5782972 L298.301169,92.1535893 L295.06177,92.1535893 L295.06177,77.7856427 Z M305.110518,89.1125209 C305.110518,87.9666053 305.595321,87.070454 306.564942,86.4240401 C307.534562,85.7776262 309.099154,85.3442415 311.258765,85.1238731 C311.229382,84.6390627 311.082472,84.2534238 310.81803,83.9669449 C310.553588,83.680466 310.127549,83.5372287 309.5399,83.5372287 C309.069781,83.5372287 308.599668,83.6253747 308.129549,83.8016694 C307.65943,83.9779642 307.159936,84.2203657 306.631052,84.5288815 L305.485142,82.3913189 C306.190321,81.9652733 306.928544,81.6200347 307.699833,81.3555927 C308.471122,81.0911506 309.290146,80.9589316 310.156928,80.9589316 C311.567286,80.9589316 312.643402,81.3592614 313.385309,82.1599332 C314.127216,82.960605 314.498164,84.2056677 314.498164,85.8951586 L314.498164,92.1535893 L311.853756,92.1535893 L311.611352,91.0297162 L311.545242,91.0297162 C311.075123,91.4410705 310.579301,91.7752909 310.057763,92.0323873 C309.536224,92.2894838 308.966948,92.4180301 308.349917,92.4180301 C307.850415,92.4180301 307.402339,92.3335568 307.005676,92.1646077 C306.609013,91.9956586 306.27112,91.7606025 305.991987,91.4594324 C305.712853,91.1582623 305.496161,90.8093509 305.341903,90.4126878 C305.187645,90.0160247 305.110518,89.5826401 305.110518,89.1125209 Z M308.195659,88.8701169 C308.195659,89.2227063 308.309515,89.4834716 308.537229,89.6524207 C308.764943,89.8213698 309.069781,89.9058431 309.451753,89.9058431 C309.833725,89.9058431 310.156927,89.8250425 310.421369,89.6634391 C310.685811,89.5018356 310.96494,89.274125 311.258765,88.9803005 L311.258765,87.0631052 C310.098158,87.2247087 309.297498,87.4597647 308.856761,87.7682805 C308.416025,88.0767962 308.195659,88.4440713 308.195659,88.8701169 Z M316.635726,86.6884808 C316.635726,85.7776248 316.789982,84.9659468 317.098497,84.2534224 C317.407013,83.5408979 317.822034,82.9422395 318.343573,82.457429 C318.865111,81.9726186 319.471115,81.6016707 320.161603,81.3445743 C320.85209,81.0874778 321.57195,80.9589316 322.321202,80.9589316 C322.996998,80.9589316 323.606675,81.0727868 324.15025,81.3005008 C324.693826,81.5282148 325.149247,81.8330532 325.516528,82.215025 L324.040067,84.2203673 C323.525874,83.7943217 323.019034,83.5813022 322.519533,83.5813022 C321.726206,83.5813022 321.101839,83.8604313 320.646411,84.4186978 C320.190983,84.9769644 319.963272,85.7335512 319.963272,86.6884808 C319.963272,87.6434105 320.194655,88.3999972 320.657429,88.9582638 C321.120203,89.5165303 321.70417,89.7956594 322.409349,89.7956594 C322.806012,89.7956594 323.165942,89.7148589 323.489149,89.5532554 C323.812356,89.3916519 324.106176,89.2080144 324.370618,89.0023372 L325.670785,91.0517529 C325.141901,91.5218721 324.55426,91.8671108 323.907846,92.0874791 C323.261432,92.3078475 322.637065,92.4180301 322.034725,92.4180301 C321.270781,92.4180301 320.56194,92.2894838 319.90818,92.0323873 C319.254421,91.7752909 318.685144,91.404343 318.200334,90.9195326 C317.715523,90.4347221 317.333557,89.8360637 317.054424,89.1235392 C316.775291,88.4110148 316.635726,87.5993368 316.635726,86.6884808 Z M328.006678,83.757596 L326.50818,83.757596 L326.50818,81.3555927 L328.182972,81.2233723 L328.557596,78.3145242 L331.246077,78.3145242 L331.246077,81.2233723 L333.868447,81.2233723 L333.868447,83.757596 L331.246077,83.757596 L331.246077,88.1429048 C331.246077,88.7599363 331.374623,89.2043392 331.63172,89.4761269 C331.888816,89.7479145 332.230382,89.8838063 332.656427,89.8838063 C332.832722,89.8838063 333.012687,89.8617698 333.196327,89.8176962 C333.379968,89.7736225 333.545241,89.722204 333.692154,89.6634391 L334.198998,92.0213689 C333.905174,92.1095163 333.559935,92.1976623 333.163272,92.2858097 C332.766609,92.373957 332.303842,92.4180301 331.774958,92.4180301 C331.099162,92.4180301 330.52254,92.315193 330.045075,92.1095159 C329.56761,91.9038387 329.178299,91.6173641 328.877129,91.2500835 C328.575958,90.8828028 328.355593,90.4383999 328.216027,89.9168614 C328.07646,89.3953229 328.006678,88.818701 328.006678,88.1869783 L328.006678,83.757596 Z M336.490818,88.8701169 C336.99032,89.2520887 337.467777,89.5385633 337.923205,89.7295492 C338.378633,89.9205352 338.8414,90.0160267 339.311519,90.0160267 C339.79633,90.0160267 340.148914,89.9352262 340.369282,89.7736227 C340.589651,89.6120192 340.699833,89.3843086 340.699833,89.0904841 C340.699833,88.9141894 340.637396,88.7562611 340.512521,88.6166945 C340.387645,88.4771278 340.218699,88.3485816 340.005676,88.2310518 C339.792653,88.1135219 339.553925,88.0070122 339.289482,87.9115192 C339.02504,87.8160262 338.753257,87.7095164 338.474124,87.5919866 C338.136225,87.4597656 337.798332,87.3055101 337.460434,87.1292154 C337.122536,86.9529207 336.814025,86.7362283 336.534891,86.4791319 C336.255758,86.2220354 336.028048,85.9208698 335.851753,85.575626 C335.675458,85.2303822 335.587312,84.8300524 335.587312,84.3746244 C335.587312,83.8751227 335.686476,83.4123561 335.884808,82.9863105 C336.08314,82.560265 336.365941,82.2003354 336.733222,81.9065109 C337.100503,81.6126863 337.541233,81.381303 338.055426,81.2123539 C338.569619,81.0434048 339.142568,80.9589316 339.77429,80.9589316 C340.61169,80.9589316 341.346241,81.1021689 341.977963,81.3886477 C342.609686,81.6751266 343.160599,81.994656 343.630718,82.3472454 L342.176294,84.2864775 C341.779631,83.992653 341.390319,83.7649424 341.008347,83.6033389 C340.626375,83.4417354 340.244409,83.3609349 339.862437,83.3609349 C339.039729,83.3609349 338.628381,83.6474095 338.628381,84.2203673 C338.628381,84.396662 338.687145,84.5472448 338.804674,84.6721202 C338.922204,84.7969956 339.080133,84.9108509 339.278464,85.0136895 C339.476796,85.1165281 339.704506,85.2156923 339.961603,85.3111853 C340.218699,85.4066783 340.48681,85.5058426 340.765943,85.6086811 C341.118533,85.7409022 341.467444,85.891485 341.812688,86.0604341 C342.157932,86.2293831 342.473788,86.43873 342.760267,86.6884808 C343.046746,86.9382316 343.278129,87.24307 343.454424,87.603005 C343.630719,87.96294 343.718865,88.3926519 343.718865,88.8921536 C343.718865,89.3916553 343.623373,89.8544219 343.432387,90.2804674 C343.241401,90.706513 342.954927,91.0774609 342.572955,91.3933222 C342.190983,91.7091835 341.720871,91.9589306 341.162604,92.142571 C340.604338,92.3262113 339.957934,92.4180301 339.223372,92.4180301 C338.503502,92.4180301 337.765279,92.2784655 337.008681,91.9993322 C336.252083,91.7201989 335.594661,91.3529238 335.036394,90.8974958 L336.490818,88.8701169 Z" id="Our-Facts" fill="#FFFFFF"></path>
            <circle id="Oval-3" stroke="#FFFFFF" stroke-width="2" cx="85.6427379" cy="172.78798" r="42.5709516"></circle>
            <path d="M70.7098497,179.298831 C70.7606013,178.156923 70.8621027,177.110188 71.0143573,176.158598 C71.1666118,175.207007 71.3791305,174.303009 71.6519199,173.446578 C71.9247092,172.590146 72.2736206,171.762274 72.6986644,170.962938 C73.1237083,170.163602 73.6343877,169.345246 74.2307179,168.507846 L68.1786311,168.507846 L68.1786311,167.156594 L76.0006678,167.156594 L76.0006678,168.127212 C75.2774588,169.040739 74.6906533,169.916189 74.2402337,170.753589 C73.7898141,171.590989 73.431387,172.444236 73.1649416,173.313356 C72.8984962,174.182475 72.7050089,175.102332 72.5844741,176.072955 C72.4639393,177.043577 72.3782974,178.118859 72.3275459,179.298831 L70.7098497,179.298831 Z M78.0370618,176.84374 C78.3923223,177.211688 78.8141879,177.535224 79.3026711,177.814357 C79.7911544,178.093491 80.3906475,178.233055 81.1011686,178.233055 C81.469117,178.233055 81.8148565,178.166445 82.1383973,178.033222 C82.4619382,177.899999 82.7442392,177.712856 82.9853088,177.471786 C83.2263785,177.230717 83.4166938,176.9389 83.5562604,176.596327 C83.6958271,176.253755 83.7656093,175.873124 83.7656093,175.454424 C83.7656093,174.617024 83.5308872,173.963608 83.0614357,173.494157 C82.5919843,173.024705 81.9639438,172.789983 81.1772955,172.789983 C80.7585956,172.789983 80.4001684,172.853422 80.1020033,172.980301 C79.8038382,173.107179 79.4707865,173.291151 79.1028381,173.53222 L78.2654424,172.999332 L78.6651085,167.156594 L84.736227,167.156594 L84.736227,168.507846 L80.0353923,168.507846 L79.7118531,172.104841 C80.0036742,171.952587 80.295491,171.832054 80.5873122,171.743239 C80.8791333,171.654424 81.2090132,171.610017 81.5769616,171.610017 C82.0971645,171.610017 82.5856405,171.686143 83.042404,171.838397 C83.4991676,171.990652 83.8988297,172.222202 84.2414023,172.533055 C84.583975,172.843908 84.8535883,173.237226 85.0502504,173.713022 C85.2469125,174.188817 85.3452421,174.756591 85.3452421,175.416361 C85.3452421,176.07613 85.2310529,176.659764 85.0026711,177.167279 C84.7742893,177.674794 84.4697849,178.103003 84.0891486,178.45192 C83.7085123,178.800836 83.273959,179.067278 82.7854758,179.251252 C82.2969925,179.435226 81.7863132,179.527212 81.2534224,179.527212 C80.7712831,179.527212 80.330386,179.479633 79.9307179,179.384474 C79.5310498,179.289315 79.1694507,179.16561 78.8459098,179.013356 C78.522369,178.861101 78.2305522,178.686645 77.9704508,178.489983 C77.7103493,178.293321 77.478799,178.087146 77.275793,177.871452 L78.0370618,176.84374 Z M89.760601,174.464775 C88.8978254,174.464775 88.2095184,174.122207 87.6956594,173.437062 C87.1818004,172.751916 86.9248748,171.774965 86.9248748,170.506177 C86.9248748,169.250077 87.1818004,168.282641 87.6956594,167.60384 C88.2095184,166.925038 88.8978254,166.585643 89.760601,166.585643 C90.6106887,166.585643 91.2958238,166.925038 91.8160267,167.60384 C92.3362296,168.282641 92.5963272,169.250077 92.5963272,170.506177 C92.5963272,171.774965 92.3362296,172.751916 91.8160267,173.437062 C91.2958238,174.122207 90.6106887,174.464775 89.760601,174.464775 Z M89.760601,173.494157 C90.2427403,173.494157 90.6360586,173.243575 90.9405676,172.742404 C91.2450766,172.241233 91.3973289,171.495831 91.3973289,170.506177 C91.3973289,169.516523 91.2450766,168.777465 90.9405676,168.288982 C90.6360586,167.800498 90.2427403,167.55626 89.760601,167.55626 C89.2657738,167.55626 88.8661117,167.800498 88.5616027,168.288982 C88.2570936,168.777465 88.1048414,169.516523 88.1048414,170.506177 C88.1048414,171.495831 88.2570936,172.241233 88.5616027,172.742404 C88.8661117,173.243575 89.2657738,173.494157 89.760601,173.494157 Z M90.103172,179.527212 L96.9926544,166.585643 L98.0584307,166.585643 L91.1689482,179.527212 L90.103172,179.527212 Z M98.4580968,179.527212 C97.5953212,179.527212 96.9070143,179.184644 96.3931553,178.499499 C95.8792963,177.814354 95.6223706,176.837402 95.6223706,175.568614 C95.6223706,174.312515 95.8792963,173.345079 96.3931553,172.666277 C96.9070143,171.987476 97.5953212,171.64808 98.4580968,171.64808 C99.3081846,171.64808 99.9933196,171.987476 100.513523,172.666277 C101.033725,173.345079 101.293823,174.312515 101.293823,175.568614 C101.293823,176.837402 101.033725,177.814354 100.513523,178.499499 C99.9933196,179.184644 99.3081846,179.527212 98.4580968,179.527212 Z M98.4580968,178.556594 C98.9402361,178.556594 99.3335544,178.306013 99.6380634,177.804841 C99.9425725,177.30367 100.094825,176.558269 100.094825,175.568614 C100.094825,174.57896 99.9425725,173.839902 99.6380634,173.351419 C99.3335544,172.862936 98.9402361,172.618698 98.4580968,172.618698 C97.9632696,172.618698 97.5636075,172.862936 97.2590985,173.351419 C96.9545895,173.839902 96.8023372,174.57896 96.8023372,175.568614 C96.8023372,176.558269 96.9545895,177.30367 97.2590985,177.804841 C97.5636075,178.306013 97.9632696,178.556594 98.4580968,178.556594 Z" id="75%" fill="#FFFFFF"></path>
            <path d="M60.6010017,237.395659 L109.693025,237.395659" id="Line" stroke="#FFFFFF" stroke-width="8" stroke-linecap="square"></path>
            <path d="M57.5959933,254.42404 L112.833318,254.42404" id="Line" stroke="#FFFFFF" stroke-width="4" stroke-linecap="square"></path>
            <circle id="Oval-3" stroke="#FFFFFF" stroke-width="2" cx="228.213689" cy="172.78798" r="42.5709516"></circle>
            <path d="M197.094324,173.398998 C197.487648,173.398998 197.909514,173.275293 198.359933,173.02788 C198.810353,172.780466 199.238562,172.364944 199.644574,171.781302 C199.543071,170.588642 199.263942,169.687816 198.807179,169.078798 C198.350415,168.46978 197.735062,168.165275 196.961102,168.165275 C196.669281,168.165275 196.393324,168.228714 196.133222,168.355593 C195.873121,168.482471 195.647914,168.663271 195.457596,168.897997 C195.267278,169.132722 195.118198,169.415023 195.010351,169.744908 C194.902504,170.074793 194.848581,170.436392 194.848581,170.829716 C194.848581,171.629052 195.032552,172.257093 195.400501,172.713856 C195.768449,173.17062 196.333051,173.398998 197.094324,173.398998 Z M194.467947,177.262437 C194.721704,177.554259 195.023037,177.788981 195.371953,177.966611 C195.72087,178.144241 196.085641,178.233055 196.466277,178.233055 C196.897665,178.233055 197.303671,178.144241 197.684307,177.966611 C198.064943,177.788981 198.401167,177.493992 198.692988,177.081636 C198.984809,176.66928 199.219532,176.133225 199.397162,175.473456 C199.574792,174.813686 199.66995,173.99533 199.682638,173.018364 C199.302001,173.500503 198.857932,173.881134 198.350417,174.160267 C197.842902,174.4394 197.335395,174.578965 196.82788,174.578965 C195.774786,174.578965 194.937399,174.268117 194.315693,173.646411 C193.693987,173.024705 193.383139,172.085816 193.383139,170.829716 C193.383139,170.246074 193.478296,169.716363 193.668614,169.240568 C193.858933,168.764772 194.115858,168.355594 194.439399,168.013022 C194.76294,167.670449 195.14357,167.404008 195.581302,167.213689 C196.019034,167.023371 196.478963,166.928214 196.961102,166.928214 C197.557432,166.928214 198.112518,167.048747 198.626377,167.289816 C199.140236,167.530886 199.584305,167.895657 199.958598,168.38414 C200.33289,168.872623 200.624707,169.481632 200.834057,170.211185 C201.043407,170.940738 201.14808,171.793985 201.14808,172.770952 C201.14808,173.988988 201.021203,175.026206 200.767446,175.882638 C200.513688,176.739069 200.171121,177.436892 199.739733,177.976127 C199.308345,178.515362 198.816697,178.90868 198.264775,179.156093 C197.712852,179.403507 197.13239,179.527212 196.523372,179.527212 C195.876291,179.527212 195.308517,179.406679 194.820033,179.165609 C194.33155,178.92454 193.922372,178.620035 193.592487,178.252087 L194.467947,177.262437 Z M206.800501,174.693155 C206.800501,173.919195 206.917862,173.230888 207.152588,172.628214 C207.387313,172.02554 207.701334,171.51486 208.094658,171.09616 C208.487982,170.67746 208.941567,170.360268 209.455426,170.144574 C209.969285,169.92888 210.511683,169.821035 211.082638,169.821035 C211.653592,169.821035 212.195991,169.92888 212.70985,170.144574 C213.223709,170.360268 213.677294,170.67746 214.070618,171.09616 C214.463942,171.51486 214.777962,172.02554 215.012688,172.628214 C215.247414,173.230888 215.364775,173.919195 215.364775,174.693155 C215.364775,175.454428 215.247414,176.136391 215.012688,176.739065 C214.777962,177.341739 214.463942,177.849247 214.070618,178.261603 C213.677294,178.673959 213.223709,178.987979 212.70985,179.203673 C212.195991,179.419367 211.653592,179.527212 211.082638,179.527212 C210.511683,179.527212 209.969285,179.419367 209.455426,179.203673 C208.941567,178.987979 208.487982,178.673959 208.094658,178.261603 C207.701334,177.849247 207.387313,177.341739 207.152588,176.739065 C206.917862,176.136391 206.800501,175.454428 206.800501,174.693155 Z M208.418197,174.693155 C208.418197,175.226046 208.481635,175.708178 208.608514,176.139566 C208.735393,176.570954 208.916192,176.942069 209.150918,177.252922 C209.385644,177.563775 209.667945,177.804841 209.99783,177.976127 C210.327715,178.147413 210.689314,178.233055 211.082638,178.233055 C211.475962,178.233055 211.837561,178.147413 212.167446,177.976127 C212.497331,177.804841 212.779632,177.563775 213.014357,177.252922 C213.249083,176.942069 213.429883,176.570954 213.556761,176.139566 C213.68364,175.708178 213.747078,175.226046 213.747078,174.693155 C213.747078,174.160264 213.68364,173.67496 213.556761,173.237229 C213.429883,172.799497 213.249083,172.422038 213.014357,172.104841 C212.779632,171.787644 212.497331,171.543407 212.167446,171.37212 C211.837561,171.200834 211.475962,171.115192 211.082638,171.115192 C210.689314,171.115192 210.327715,171.200834 209.99783,171.37212 C209.667945,171.543407 209.385644,171.787644 209.150918,172.104841 C208.916192,172.422038 208.735393,172.799497 208.608514,173.237229 C208.481635,173.67496 208.418197,174.160264 208.418197,174.693155 Z M216.944407,170.372955 C217.426547,170.055758 217.784974,169.719534 218.019699,169.364274 C218.254425,169.009013 218.371786,168.552257 218.371786,167.99399 C218.333723,168.006678 218.282972,168.013022 218.219533,168.013022 C217.953087,168.013022 217.718365,167.930552 217.515359,167.765609 C217.312353,167.600667 217.210851,167.365945 217.210851,167.061436 C217.210851,166.731551 217.306009,166.471453 217.496327,166.281135 C217.686645,166.090817 217.927711,165.995659 218.219533,165.995659 C218.587481,165.995659 218.879298,166.14474 219.094992,166.442905 C219.310686,166.74107 219.418531,167.169279 219.418531,167.727546 C219.418531,168.488818 219.244075,169.145406 218.895159,169.697329 C218.546242,170.249252 218.041906,170.715524 217.382137,171.09616 L216.944407,170.372955 Z M220.73172,174.693155 C220.73172,173.919195 220.852253,173.230888 221.093322,172.628214 C221.334392,172.02554 221.657928,171.51486 222.06394,171.09616 C222.469952,170.67746 222.942568,170.360268 223.481803,170.144574 C224.021038,169.92888 224.588812,169.821035 225.185142,169.821035 C225.79416,169.821035 226.317527,169.932052 226.755259,170.15409 C227.192991,170.376128 227.570449,170.633054 227.887646,170.924875 L227.107346,171.933556 C226.828212,171.692486 226.539567,171.495827 226.241402,171.343573 C225.943237,171.191318 225.610185,171.115192 225.242237,171.115192 C224.823537,171.115192 224.436563,171.200834 224.081302,171.37212 C223.726042,171.543407 223.421537,171.787644 223.16778,172.104841 C222.914022,172.422038 222.714191,172.799497 222.56828,173.237229 C222.42237,173.67496 222.349416,174.160264 222.349416,174.693155 C222.349416,175.226046 222.419198,175.708178 222.558765,176.139566 C222.698331,176.570954 222.891818,176.942069 223.139232,177.252922 C223.386646,177.563775 223.687978,177.804841 224.043239,177.976127 C224.398499,178.147413 224.785474,178.233055 225.204174,178.233055 C225.648249,178.233055 226.051083,178.141069 226.412688,177.957095 C226.774292,177.773121 227.094656,177.554258 227.37379,177.300501 L228.077963,178.328214 C227.659263,178.696162 227.192991,178.987979 226.679132,179.203673 C226.165273,179.419367 225.629218,179.527212 225.070952,179.527212 C224.461934,179.527212 223.890988,179.419367 223.358097,179.203673 C222.825206,178.987979 222.365277,178.673959 221.978297,178.261603 C221.591317,177.849247 221.286812,177.341739 221.064775,176.739065 C220.842737,176.136391 220.73172,175.454428 220.73172,174.693155 Z M230.095326,165.748247 L231.655927,165.748247 L231.655927,177.547913 C231.655927,177.801671 231.700333,177.979298 231.789149,178.080801 C231.877964,178.182304 231.979465,178.233055 232.093656,178.233055 L232.236394,178.233055 C232.280802,178.233055 232.347412,178.220367 232.436227,178.194992 L232.645576,179.374958 C232.544073,179.42571 232.42354,179.463773 232.283973,179.489149 C232.144407,179.514524 231.966779,179.527212 231.751085,179.527212 C231.154755,179.527212 230.729717,179.349584 230.47596,178.994324 C230.222202,178.639063 230.095326,178.118868 230.095326,177.433723 L230.095326,165.748247 Z M234.263272,174.693155 C234.263272,173.919195 234.380633,173.230888 234.615359,172.628214 C234.850085,172.02554 235.164105,171.51486 235.557429,171.09616 C235.950753,170.67746 236.404338,170.360268 236.918197,170.144574 C237.432056,169.92888 237.974455,169.821035 238.545409,169.821035 C239.116363,169.821035 239.658762,169.92888 240.172621,170.144574 C240.68648,170.360268 241.140065,170.67746 241.533389,171.09616 C241.926713,171.51486 242.240733,172.02554 242.475459,172.628214 C242.710185,173.230888 242.827546,173.919195 242.827546,174.693155 C242.827546,175.454428 242.710185,176.136391 242.475459,176.739065 C242.240733,177.341739 241.926713,177.849247 241.533389,178.261603 C241.140065,178.673959 240.68648,178.987979 240.172621,179.203673 C239.658762,179.419367 239.116363,179.527212 238.545409,179.527212 C237.974455,179.527212 237.432056,179.419367 236.918197,179.203673 C236.404338,178.987979 235.950753,178.673959 235.557429,178.261603 C235.164105,177.849247 234.850085,177.341739 234.615359,176.739065 C234.380633,176.136391 234.263272,175.454428 234.263272,174.693155 Z M235.880968,174.693155 C235.880968,175.226046 235.944407,175.708178 236.071285,176.139566 C236.198164,176.570954 236.378964,176.942069 236.613689,177.252922 C236.848415,177.563775 237.130716,177.804841 237.460601,177.976127 C237.790486,178.147413 238.152085,178.233055 238.545409,178.233055 C238.938733,178.233055 239.300332,178.147413 239.630217,177.976127 C239.960102,177.804841 240.242403,177.563775 240.477129,177.252922 C240.711854,176.942069 240.892654,176.570954 241.019533,176.139566 C241.146411,175.708178 241.20985,175.226046 241.20985,174.693155 C241.20985,174.160264 241.146411,173.67496 241.019533,173.237229 C240.892654,172.799497 240.711854,172.422038 240.477129,172.104841 C240.242403,171.787644 239.960102,171.543407 239.630217,171.37212 C239.300332,171.200834 238.938733,171.115192 238.545409,171.115192 C238.152085,171.115192 237.790486,171.200834 237.460601,171.37212 C237.130716,171.543407 236.848415,171.787644 236.613689,172.104841 C236.378964,172.422038 236.198164,172.799497 236.071285,173.237229 C235.944407,173.67496 235.880968,174.160264 235.880968,174.693155 Z M244.578464,174.693155 C244.578464,173.919195 244.698997,173.230888 244.940067,172.628214 C245.181136,172.02554 245.504672,171.51486 245.910684,171.09616 C246.316697,170.67746 246.789313,170.360268 247.328548,170.144574 C247.867782,169.92888 248.435556,169.821035 249.031886,169.821035 C249.640905,169.821035 250.164272,169.932052 250.602003,170.15409 C251.039735,170.376128 251.417194,170.633054 251.734391,170.924875 L250.95409,171.933556 C250.674957,171.692486 250.386312,171.495827 250.088147,171.343573 C249.789982,171.191318 249.45693,171.115192 249.088982,171.115192 C248.670282,171.115192 248.283307,171.200834 247.928047,171.37212 C247.572786,171.543407 247.268282,171.787644 247.014524,172.104841 C246.760767,172.422038 246.560936,172.799497 246.415025,173.237229 C246.269114,173.67496 246.19616,174.160264 246.19616,174.693155 C246.19616,175.226046 246.265943,175.708178 246.405509,176.139566 C246.545076,176.570954 246.738563,176.942069 246.985977,177.252922 C247.23339,177.563775 247.534723,177.804841 247.889983,177.976127 C248.245244,178.147413 248.632218,178.233055 249.050918,178.233055 C249.494994,178.233055 249.897828,178.141069 250.259432,177.957095 C250.621037,177.773121 250.941401,177.554258 251.220534,177.300501 L251.924708,178.328214 C251.506008,178.696162 251.039735,178.987979 250.525876,179.203673 C250.012017,179.419367 249.475963,179.527212 248.917696,179.527212 C248.308678,179.527212 247.737732,179.419367 247.204841,179.203673 C246.671951,178.987979 246.212022,178.673959 245.825042,178.261603 C245.438062,177.849247 245.133557,177.341739 244.911519,176.739065 C244.689481,176.136391 244.578464,175.454428 244.578464,174.693155 Z M253.94207,165.748247 L255.483639,165.748247 L255.483639,174.921536 L255.540735,174.921536 L259.480301,170.049416 L261.212187,170.049416 L258.110017,173.760601 L261.630885,179.298831 L259.91803,179.298831 L257.215526,174.845409 L255.483639,176.862771 L255.483639,179.298831 L253.94207,179.298831 L253.94207,165.748247 Z" id="9-o’clock" fill="#FFFFFF"></path>
            <path d="M203.171953,237.395659 L252.263976,237.395659" id="Line" stroke="#FFFFFF" stroke-width="8" stroke-linecap="square"></path>
            <path d="M200.166945,254.42404 L255.40427,254.42404" id="Line" stroke="#FFFFFF" stroke-width="4" stroke-linecap="square"></path>
            <circle id="Oval-3" stroke="#FFFFFF" stroke-width="2" cx="370.116861" cy="172.78798" r="42.5709516"></circle>
            <path d="M342.480301,173.608347 L339.016528,173.608347 L339.016528,172.428381 L342.480301,172.428381 L342.480301,168.717195 L343.717362,168.717195 L343.717362,172.428381 L347.181135,172.428381 L347.181135,173.608347 L343.717362,173.608347 L343.717362,177.319533 L342.480301,177.319533 L342.480301,173.608347 Z M349.33172,178.004674 L352.110351,178.004674 L352.110351,169.059766 L349.902671,169.059766 L349.902671,168.051085 C350.460938,167.949582 350.946242,167.825877 351.358598,167.679967 C351.770954,167.534056 352.142068,167.3596 352.471953,167.156594 L353.670952,167.156594 L353.670952,178.004674 L356.183139,178.004674 L356.183139,179.298831 L349.33172,179.298831 L349.33172,178.004674 Z M362.025876,179.527212 C360.795152,179.527212 359.837232,178.981642 359.152087,177.890484 C358.466941,176.799327 358.124374,175.232398 358.124374,173.189649 C358.124374,171.146901 358.466941,169.59266 359.152087,168.526878 C359.837232,167.461097 360.795152,166.928214 362.025876,166.928214 C363.243913,166.928214 364.195489,167.461097 364.880634,168.526878 C365.56578,169.59266 365.908347,171.146901 365.908347,173.189649 C365.908347,175.232398 365.56578,176.799327 364.880634,177.890484 C364.195489,178.981642 363.243913,179.527212 362.025876,179.527212 Z M362.025876,178.271119 C362.381137,178.271119 362.701501,178.172789 362.986978,177.976127 C363.272456,177.779465 363.519865,177.47496 363.729215,177.062604 C363.938565,176.650248 364.100333,176.123709 364.214524,175.482972 C364.328715,174.842234 364.38581,174.077801 364.38581,173.189649 C364.38581,172.301498 364.328715,171.540237 364.214524,170.905843 C364.100333,170.271449 363.938565,169.754426 363.729215,169.354758 C363.519865,168.95509 363.272456,168.660101 362.986978,168.469783 C362.701501,168.279465 362.381137,168.184307 362.025876,168.184307 C361.670616,168.184307 361.34708,168.279465 361.055259,168.469783 C360.763438,168.660101 360.512856,168.95509 360.303506,169.354758 C360.094156,169.754426 359.932388,170.271449 359.818197,170.905843 C359.704006,171.540237 359.646912,172.301498 359.646912,173.189649 C359.646912,174.965952 359.865774,176.256924 360.303506,177.062604 C360.741238,177.868284 361.315355,178.271119 362.025876,178.271119 Z M367.982805,178.347245 C367.982805,177.979297 368.093822,177.684308 368.31586,177.46227 C368.537898,177.240233 368.807511,177.129215 369.124708,177.129215 C369.429217,177.129215 369.692486,177.240233 369.914524,177.46227 C370.136562,177.684308 370.247579,177.979297 370.247579,178.347245 C370.247579,178.689818 370.136562,178.972119 369.914524,179.194157 C369.692486,179.416195 369.429217,179.527212 369.124708,179.527212 C368.807511,179.527212 368.537898,179.416195 368.31586,179.194157 C368.093822,178.972119 367.982805,178.689818 367.982805,178.347245 Z M376.223539,179.527212 C374.992815,179.527212 374.034895,178.981642 373.34975,177.890484 C372.664604,176.799327 372.322037,175.232398 372.322037,173.189649 C372.322037,171.146901 372.664604,169.59266 373.34975,168.526878 C374.034895,167.461097 374.992815,166.928214 376.223539,166.928214 C377.441575,166.928214 378.393152,167.461097 379.078297,168.526878 C379.763442,169.59266 380.10601,171.146901 380.10601,173.189649 C380.10601,175.232398 379.763442,176.799327 379.078297,177.890484 C378.393152,178.981642 377.441575,179.527212 376.223539,179.527212 Z M376.223539,178.271119 C376.5788,178.271119 376.899164,178.172789 377.184641,177.976127 C377.470118,177.779465 377.717528,177.47496 377.926878,177.062604 C378.136228,176.650248 378.297996,176.123709 378.412187,175.482972 C378.526378,174.842234 378.583472,174.077801 378.583472,173.189649 C378.583472,172.301498 378.526378,171.540237 378.412187,170.905843 C378.297996,170.271449 378.136228,169.754426 377.926878,169.354758 C377.717528,168.95509 377.470118,168.660101 377.184641,168.469783 C376.899164,168.279465 376.5788,168.184307 376.223539,168.184307 C375.868279,168.184307 375.544743,168.279465 375.252922,168.469783 C374.9611,168.660101 374.710519,168.95509 374.501169,169.354758 C374.291819,169.754426 374.130051,170.271449 374.01586,170.905843 C373.901669,171.540237 373.844574,172.301498 373.844574,173.189649 C373.844574,174.965952 374.063437,176.256924 374.501169,177.062604 C374.9389,177.868284 375.513018,178.271119 376.223539,178.271119 Z M385.682304,179.527212 C384.45158,179.527212 383.49366,178.981642 382.808514,177.890484 C382.123369,176.799327 381.780801,175.232398 381.780801,173.189649 C381.780801,171.146901 382.123369,169.59266 382.808514,168.526878 C383.49366,167.461097 384.45158,166.928214 385.682304,166.928214 C386.90034,166.928214 387.851916,167.461097 388.537062,168.526878 C389.222207,169.59266 389.564775,171.146901 389.564775,173.189649 C389.564775,175.232398 389.222207,176.799327 388.537062,177.890484 C387.851916,178.981642 386.90034,179.527212 385.682304,179.527212 Z M385.682304,178.271119 C386.037564,178.271119 386.357928,178.172789 386.643406,177.976127 C386.928883,177.779465 387.176293,177.47496 387.385643,177.062604 C387.594993,176.650248 387.756761,176.123709 387.870952,175.482972 C387.985142,174.842234 388.042237,174.077801 388.042237,173.189649 C388.042237,172.301498 387.985142,171.540237 387.870952,170.905843 C387.756761,170.271449 387.594993,169.754426 387.385643,169.354758 C387.176293,168.95509 386.928883,168.660101 386.643406,168.469783 C386.357928,168.279465 386.037564,168.184307 385.682304,168.184307 C385.327043,168.184307 385.003507,168.279465 384.711686,168.469783 C384.419865,168.660101 384.169283,168.95509 383.959933,169.354758 C383.750583,169.754426 383.588815,170.271449 383.474624,170.905843 C383.360433,171.540237 383.303339,172.301498 383.303339,173.189649 C383.303339,174.965952 383.522201,176.256924 383.959933,177.062604 C384.397665,177.868284 384.971783,178.271119 385.682304,178.271119 Z M395.141068,179.527212 C393.910344,179.527212 392.952424,178.981642 392.267279,177.890484 C391.582133,176.799327 391.239566,175.232398 391.239566,173.189649 C391.239566,171.146901 391.582133,169.59266 392.267279,168.526878 C392.952424,167.461097 393.910344,166.928214 395.141068,166.928214 C396.359105,166.928214 397.310681,167.461097 397.995826,168.526878 C398.680972,169.59266 399.023539,171.146901 399.023539,173.189649 C399.023539,175.232398 398.680972,176.799327 397.995826,177.890484 C397.310681,178.981642 396.359105,179.527212 395.141068,179.527212 Z M395.141068,178.271119 C395.496329,178.271119 395.816693,178.172789 396.10217,177.976127 C396.387648,177.779465 396.635057,177.47496 396.844407,177.062604 C397.053757,176.650248 397.215525,176.123709 397.329716,175.482972 C397.443907,174.842234 397.501002,174.077801 397.501002,173.189649 C397.501002,172.301498 397.443907,171.540237 397.329716,170.905843 C397.215525,170.271449 397.053757,169.754426 396.844407,169.354758 C396.635057,168.95509 396.387648,168.660101 396.10217,168.469783 C395.816693,168.279465 395.496329,168.184307 395.141068,168.184307 C394.785808,168.184307 394.462272,168.279465 394.170451,168.469783 C393.87863,168.660101 393.628048,168.95509 393.418698,169.354758 C393.209348,169.754426 393.04758,170.271449 392.933389,170.905843 C392.819198,171.540237 392.762104,172.301498 392.762104,173.189649 C392.762104,174.965952 392.980966,176.256924 393.418698,177.062604 C393.85643,177.868284 394.430547,178.271119 395.141068,178.271119 Z" id="+10.000" fill="#FFFFFF"></path>
            <path d="M345.075125,237.395659 L394.167148,237.395659" id="Line" stroke="#FFFFFF" stroke-width="8" stroke-linecap="square"></path>
            <path d="M342.070117,254.42404 L397.307442,254.42404" id="Line" stroke="#FFFFFF" stroke-width="4" stroke-linecap="square"></path>
            <circle id="Oval-3" stroke="#FFFFFF" stroke-width="2" cx="513.689482" cy="172.78798" r="42.5709516"></circle>
            <path d="M501.192654,176.786644 C501.560603,177.167281 501.988812,177.503504 502.477295,177.795326 C502.965779,178.087147 503.571616,178.233055 504.294825,178.233055 C505.030722,178.233055 505.633387,178.033224 506.102838,177.633556 C506.572289,177.233888 506.807012,176.691489 506.807012,176.006344 C506.807012,175.651083 506.740401,175.324375 506.607179,175.02621 C506.473956,174.728045 506.255093,174.47112 505.950584,174.255426 C505.646075,174.039732 505.246413,173.874792 504.751586,173.760601 C504.256759,173.64641 503.64775,173.589316 502.924541,173.589316 L502.924541,172.390317 C503.571623,172.390317 504.114021,172.333223 504.551753,172.219032 C504.989485,172.104841 505.34474,171.946245 505.617529,171.743239 C505.890319,171.540233 506.083806,171.299167 506.197997,171.020033 C506.312188,170.7409 506.369282,170.442739 506.369282,170.125543 C506.369282,169.529212 506.182139,169.059768 505.807846,168.717195 C505.433554,168.374623 504.922875,168.203339 504.275793,168.203339 C503.768278,168.203339 503.302005,168.317528 502.876962,168.54591 C502.451918,168.774292 502.055428,169.072452 501.687479,169.440401 L500.850083,168.450751 C501.319535,168.006676 501.836558,167.641905 502.401169,167.356427 C502.965779,167.07095 503.609679,166.928214 504.332888,166.928214 C504.865779,166.928214 505.354255,166.997996 505.798331,167.137563 C506.242406,167.277129 506.626209,167.47696 506.94975,167.737062 C507.27329,167.997163 507.523872,168.317527 507.701503,168.698164 C507.879133,169.0788 507.967947,169.516525 507.967947,170.011352 C507.967947,170.747249 507.764944,171.349914 507.358932,171.819366 C506.95292,172.288817 506.420037,172.650416 505.760267,172.904174 L505.760267,172.980301 C506.128216,173.069116 506.470783,173.199164 506.78798,173.370451 C507.105177,173.541737 507.384306,173.757428 507.625376,174.017529 C507.866445,174.277631 508.053589,174.578963 508.186811,174.921536 C508.320034,175.264109 508.386644,175.644739 508.386644,176.063439 C508.386644,176.59633 508.281971,177.078462 508.072621,177.50985 C507.863271,177.941238 507.577798,178.306009 507.216194,178.604174 C506.854589,178.902339 506.432724,179.130717 505.950584,179.289316 C505.468445,179.447914 504.94825,179.527212 504.389983,179.527212 C503.907844,179.527212 503.466947,179.479633 503.067279,179.384474 C502.667611,179.289315 502.30284,179.162438 501.972955,179.00384 C501.64307,178.845241 501.348081,178.664442 501.08798,178.461436 C500.827878,178.25843 500.596328,178.042739 500.393322,177.814357 L501.192654,176.786644 Z M514.629048,165.786311 L515.770952,165.786311 L510.689482,182.343907 L509.547579,182.343907 L514.629048,165.786311 Z M521.804007,174.693155 L521.804007,171.172287 C521.804007,170.842402 521.813522,170.452256 521.832554,170.001836 C521.851586,169.551417 521.87379,169.16127 521.899165,168.831386 L521.823038,168.831386 C521.670784,169.123207 521.512188,169.40868 521.347245,169.687813 C521.182303,169.966946 521.011019,170.252419 520.833389,170.54424 L517.997663,174.693155 L521.804007,174.693155 Z M524.94424,175.949249 L523.288481,175.949249 L523.288481,179.298831 L521.804007,179.298831 L521.804007,175.949249 L516.341903,175.949249 L516.341903,174.921536 L521.537563,167.156594 L523.288481,167.156594 L523.288481,174.693155 L524.94424,174.693155 L524.94424,175.949249 Z" id="3/4" fill="#FFFFFF"></path>
            <path d="M488.647746,237.395659 L537.739769,237.395659" id="Line" stroke="#FFFFFF" stroke-width="8" stroke-linecap="square"></path>
            <path d="M485.642738,254.42404 L540.880063,254.42404" id="Line" stroke="#FFFFFF" stroke-width="4" stroke-linecap="square"></path>
        </g>
    </g>
</svg>