<?xml version="1.0" encoding="UTF-8"?>
<svg width="600px" height="256px" viewBox="0 0 600 256" version="1.1" xmlns="http://www.w3.org/2000/svg" xmlns:xlink="http://www.w3.org/1999/xlink">
    <!-- Generator: Sketch 44.1 (41455) - http://www.bohemiancoding.com/sketch -->
    <title>headerimages09</title>
    <desc>Created with Sketch.</desc>
    <defs></defs>
    <g id="Page-1" stroke="none" stroke-width="1" fill="none" fill-rule="evenodd">
        <g id="09">
            <rect id="Rectangle-2" fill="#4A4A4A" x="0" y="0" width="600" height="255.852843"></rect>
            <path d="M485.329766,80.4602007 L486.828763,80.4602007 L486.828763,85.4267559 L492.337124,85.4267559 L492.337124,80.4602007 L493.854181,80.4602007 L493.854181,92.3076923 L492.337124,92.3076923 L492.337124,86.7270903 L486.828763,86.7270903 L486.828763,92.3076923 L485.329766,92.3076923 L485.329766,80.4602007 Z M496.310368,87.9371237 C496.310368,87.2147121 496.421738,86.5675614 496.644482,85.9956522 C496.867225,85.423743 497.162206,84.9391324 497.529431,84.541806 C497.896657,84.1444796 498.315048,83.8404693 498.784615,83.6297659 C499.254183,83.4190625 499.741803,83.3137124 500.247492,83.3137124 C500.801341,83.3137124 501.297991,83.4100325 501.737458,83.6026756 C502.176925,83.7953187 502.544146,84.072239 502.83913,84.4334448 C503.134115,84.7946506 503.359865,85.2280911 503.516388,85.7337793 C503.67291,86.2394674 503.751171,86.805348 503.751171,87.4314381 C503.751171,87.7565234 503.733111,88.0274237 503.69699,88.2441472 L497.773244,88.2441472 C497.833445,89.1953225 498.125415,89.9478233 498.649164,90.5016722 C499.172912,91.0555212 499.856183,91.3324415 500.698997,91.3324415 C501.120403,91.3324415 501.508694,91.2692314 501.86388,91.1428094 C502.219065,91.0163873 502.559196,90.8508371 502.884281,90.6461538 L503.408027,91.6214047 C503.022741,91.8622086 502.59532,92.0729088 502.125753,92.2535117 C501.656185,92.4341146 501.120404,92.5244147 500.518395,92.5244147 C499.928425,92.5244147 499.377595,92.4190646 498.865886,92.2083612 C498.354178,91.9976578 497.908698,91.6966575 497.529431,91.3053512 C497.150165,90.9140449 496.852175,90.4354543 496.635452,89.8695652 C496.418728,89.3036761 496.310368,88.6595354 496.310368,87.9371237 Z M502.450836,87.2688963 C502.450836,86.3658818 502.261206,85.676591 501.88194,85.2010033 C501.502674,84.7254157 500.969903,84.4876254 500.283612,84.4876254 C499.970567,84.4876254 499.672577,84.5508355 499.389632,84.6772575 C499.106688,84.8036796 498.850837,84.9842798 498.622074,85.2190635 C498.39331,85.4538473 498.20368,85.7428076 498.053177,86.0859532 C497.902675,86.4290987 497.803345,86.8234091 497.755184,87.2688963 L502.450836,87.2688963 Z M505.48495,90.032107 C505.48495,89.0688915 505.91538,88.3314407 506.776254,87.8197324 C507.637128,87.3080242 509.00668,86.9498338 510.88495,86.7451505 C510.88495,86.468226 510.85786,86.1973257 510.803679,85.9324415 C510.749498,85.6675572 510.653178,85.4327769 510.514716,85.2280936 C510.376253,85.0234103 510.192643,84.8578602 509.96388,84.7314381 C509.735116,84.6050161 509.440136,84.541806 509.07893,84.541806 C508.561201,84.541806 508.082611,84.6381261 507.643144,84.8307692 C507.203677,85.0234123 506.809366,85.2401326 506.460201,85.4809365 L505.864214,84.451505 C506.273581,84.1866207 506.773241,83.9307705 507.363211,83.6839465 C507.95318,83.4371225 508.603341,83.3137124 509.313712,83.3137124 C510.38529,83.3137124 511.161871,83.6418027 511.643478,84.2979933 C512.125086,84.9541839 512.365886,85.8300949 512.365886,86.9257525 L512.365886,92.3076923 L511.137793,92.3076923 L511.011371,91.2602007 L510.975251,91.2602007 C510.553844,91.6093663 510.099334,91.9073566 509.611706,92.1541806 C509.124078,92.4010046 508.609367,92.5244147 508.067559,92.5244147 C507.321067,92.5244147 506.704016,92.3076945 506.216388,91.8742475 C505.72876,91.4408005 505.48495,90.8267598 505.48495,90.032107 Z M506.947826,89.9237458 C506.947826,90.429434 507.095316,90.7906344 507.390301,91.0073579 C507.685286,91.2240814 508.049496,91.3324415 508.482943,91.3324415 C508.90435,91.3324415 509.30468,91.2331114 509.683946,91.0344482 C510.063213,90.835785 510.463543,90.5438146 510.88495,90.1585284 L510.88495,87.7204013 C510.150498,87.8167229 509.530437,87.931103 509.024749,88.0635452 C508.519061,88.1959873 508.112711,88.3525075 507.805686,88.5331104 C507.498661,88.7137133 507.27893,88.9214035 507.146488,89.1561873 C507.014046,89.3909711 506.947826,89.6468214 506.947826,89.9237458 Z M514.53311,87.9371237 C514.53311,87.2267523 514.63846,86.5856216 514.849164,86.0137124 C515.059867,85.4418032 515.339798,84.9571926 515.688963,84.5598662 C516.038129,84.1625398 516.441469,83.8555195 516.898997,83.638796 C517.356524,83.4220725 517.838125,83.3137124 518.343813,83.3137124 C518.849501,83.3137124 519.288961,83.4040125 519.662207,83.5846154 C520.035453,83.7652183 520.414714,84.0120386 520.8,84.3250836 L520.727759,82.826087 L520.727759,79.4488294 L522.226756,79.4488294 L522.226756,92.3076923 L520.998662,92.3076923 L520.872241,91.2782609 L520.81806,91.2782609 C520.468895,91.6153863 520.068564,91.9073566 519.617057,92.1541806 C519.16555,92.4010046 518.680939,92.5244147 518.163211,92.5244147 C517.055513,92.5244147 516.173582,92.1270943 515.517391,91.3324415 C514.861201,90.5377887 514.53311,89.4060274 514.53311,87.9371237 Z M516.068227,87.9190635 C516.068227,88.9786006 516.278928,89.8033415 516.700334,90.393311 C517.121741,90.9832805 517.717722,91.2782609 518.488294,91.2782609 C518.897661,91.2782609 519.282941,91.1789308 519.644147,90.9802676 C520.005353,90.7816044 520.366553,90.477594 520.727759,90.0682274 L520.727759,85.4809365 C520.354513,85.143811 519.996323,84.9060208 519.653177,84.7675585 C519.310032,84.6290963 518.957861,84.5598662 518.596656,84.5598662 C518.24749,84.5598662 517.9194,84.6411363 517.612375,84.8036789 C517.30535,84.9662215 517.037459,85.1949818 516.808696,85.4899666 C516.579932,85.7849513 516.399332,86.1371217 516.26689,86.5464883 C516.134447,86.9558549 516.068227,87.4133754 516.068227,87.9190635 Z M524.538462,87.9371237 C524.538462,87.2147121 524.649832,86.5675614 524.872575,85.9956522 C525.095319,85.423743 525.390299,84.9391324 525.757525,84.541806 C526.124751,84.1444796 526.543141,83.8404693 527.012709,83.6297659 C527.482277,83.4190625 527.969897,83.3137124 528.475585,83.3137124 C529.029434,83.3137124 529.526085,83.4100325 529.965552,83.6026756 C530.405019,83.7953187 530.772239,84.072239 531.067224,84.4334448 C531.362209,84.7946506 531.587959,85.2280911 531.744482,85.7337793 C531.901004,86.2394674 531.979264,86.805348 531.979264,87.4314381 C531.979264,87.7565234 531.961204,88.0274237 531.925084,88.2441472 L526.001338,88.2441472 C526.061539,89.1953225 526.353509,89.9478233 526.877258,90.5016722 C527.401006,91.0555212 528.084277,91.3324415 528.92709,91.3324415 C529.348497,91.3324415 529.736788,91.2692314 530.091973,91.1428094 C530.447159,91.0163873 530.787289,90.8508371 531.112375,90.6461538 L531.63612,91.6214047 C531.250834,91.8622086 530.823414,92.0729088 530.353846,92.2535117 C529.884279,92.4341146 529.348498,92.5244147 528.746488,92.5244147 C528.156519,92.5244147 527.605688,92.4190646 527.09398,92.2083612 C526.582272,91.9976578 526.136791,91.6966575 525.757525,91.3053512 C525.378259,90.9140449 525.080269,90.4354543 524.863545,89.8695652 C524.646822,89.3036761 524.538462,88.6595354 524.538462,87.9371237 Z M530.67893,87.2688963 C530.67893,86.3658818 530.4893,85.676591 530.110033,85.2010033 C529.730767,84.7254157 529.197997,84.4876254 528.511706,84.4876254 C528.198661,84.4876254 527.90067,84.5508355 527.617726,84.6772575 C527.334781,84.8036796 527.078931,84.9842798 526.850167,85.2190635 C526.621404,85.4538473 526.431773,85.7428076 526.281271,86.0859532 C526.130768,86.4290987 526.031438,86.8234091 525.983278,87.2688963 L530.67893,87.2688963 Z M534.146488,83.5304348 L535.374582,83.5304348 L535.501003,85.1197324 L535.555184,85.1197324 C535.856189,84.5658835 536.220399,84.126423 536.647826,83.8013378 C537.075253,83.4762526 537.541803,83.3137124 538.047492,83.3137124 C538.396657,83.3137124 538.709698,83.3739124 538.986622,83.4943144 L538.697659,84.7946488 C538.553177,84.7464881 538.420736,84.710368 538.300334,84.6862876 C538.179933,84.6622072 538.029432,84.6501672 537.848829,84.6501672 C537.475583,84.6501672 537.087293,84.8006674 536.683946,85.1016722 C536.2806,85.4026771 535.92843,85.9264177 535.627425,86.6729097 L535.627425,92.3076923 L534.146488,92.3076923 L534.146488,83.5304348 Z M543.014047,83.5304348 L544.531104,83.5304348 L545.831438,88.6053512 C545.92776,89.026758 546.01806,89.4361184 546.102341,89.8334448 C546.186622,90.2307712 546.270903,90.6341117 546.355184,91.0434783 L546.427425,91.0434783 C546.523746,90.6341117 546.620066,90.2277612 546.716388,89.8244147 C546.81271,89.4210682 546.91505,89.0147178 547.023411,88.6053512 L548.377926,83.5304348 L549.822742,83.5304348 L551.195318,88.6053512 C551.303679,89.026758 551.40903,89.4361184 551.511371,89.8334448 C551.613713,90.2307712 551.713043,90.6341117 551.809365,91.0434783 L551.881605,91.0434783 C551.977927,90.6341117 552.068227,90.2307712 552.152508,89.8334448 C552.23679,89.4361184 552.32709,89.026758 552.423411,88.6053512 L553.705686,83.5304348 L555.114381,83.5304348 L552.766555,92.3076923 L550.960535,92.3076923 L549.696321,87.5939799 C549.587959,87.1725731 549.488629,86.7571927 549.398328,86.3478261 C549.308026,85.9384595 549.208696,85.511039 549.100334,85.0655518 L549.028094,85.0655518 C548.931772,85.511039 548.835452,85.9414695 548.73913,86.3568562 C548.642809,86.7722429 548.534449,87.1906333 548.414047,87.6120401 L547.185953,92.3076923 L545.452174,92.3076923 L543.014047,83.5304348 Z M557.787291,81.7244147 C557.498326,81.7244147 557.254516,81.6341146 557.055853,81.4535117 C556.85719,81.2729088 556.75786,81.0441485 556.75786,80.7672241 C556.75786,80.4782594 556.85719,80.2464892 557.055853,80.0719064 C557.254516,79.8973235 557.498326,79.8100334 557.787291,79.8100334 C558.076256,79.8100334 558.320066,79.8973235 558.518729,80.0719064 C558.717392,80.2464892 558.816722,80.4782594 558.816722,80.7672241 C558.816722,81.0441485 558.717392,81.2729088 558.518729,81.4535117 C558.320066,81.6341146 558.076256,81.7244147 557.787291,81.7244147 Z M557.028763,83.5304348 L558.509699,83.5304348 L558.509699,92.3076923 L557.028763,92.3076923 L557.028763,83.5304348 Z M561.724415,84.7404682 L560.42408,84.7404682 L560.42408,83.6207358 L561.796656,83.5304348 L561.977258,81.0742475 L563.223411,81.0742475 L563.223411,83.5304348 L565.589298,83.5304348 L565.589298,84.7404682 L563.223411,84.7404682 L563.223411,89.6167224 C563.223411,90.1585311 563.322741,90.5769216 563.521405,90.8719064 C563.720068,91.1668911 564.072238,91.3143813 564.577926,91.3143813 C564.734449,91.3143813 564.903009,91.2903012 565.083612,91.2421405 C565.264215,91.1939797 565.426755,91.1397996 565.571237,91.0795987 L565.860201,92.1993311 C565.619397,92.2836125 565.357526,92.3588625 565.074582,92.4250836 C564.791637,92.4913047 564.511707,92.5244147 564.234783,92.5244147 C563.765215,92.5244147 563.370905,92.4521746 563.051839,92.3076923 C562.732774,92.16321 562.473914,91.9645498 562.275251,91.7117057 C562.076588,91.4588616 561.935117,91.1518413 561.850836,90.7906355 C561.766555,90.4294296 561.724415,90.0321092 561.724415,89.5986622 L561.724415,84.7404682 Z M567.57592,79.4488294 L569.056856,79.4488294 L569.056856,82.9525084 L569.002676,84.7585284 C569.424082,84.361202 569.863543,84.0210716 570.32107,83.7381271 C570.778598,83.4551825 571.314378,83.3137124 571.928428,83.3137124 C572.855523,83.3137124 573.532774,83.6026727 573.960201,84.180602 C574.387628,84.7585313 574.601338,85.6133723 574.601338,86.7451505 L574.601338,92.3076923 L573.120401,92.3076923 L573.120401,86.9438127 C573.120401,86.1130393 572.987961,85.5140487 572.723077,85.1468227 C572.458193,84.7795968 572.036792,84.5959866 571.458863,84.5959866 C571.001336,84.5959866 570.597995,84.7103667 570.248829,84.9391304 C569.899664,85.1678941 569.502343,85.5050145 569.056856,85.9505017 L569.056856,92.3076923 L567.57592,92.3076923 L567.57592,79.4488294 Z M435.700334,102.525753 L437.181271,102.525753 L437.181271,106.029431 L437.145151,107.618729 C437.542477,107.269563 437.975917,106.977593 438.445485,106.742809 C438.915053,106.508026 439.396653,106.390635 439.890301,106.390635 C440.45619,106.390635 440.955851,106.495986 441.389298,106.706689 C441.822745,106.917392 442.186955,107.218393 442.48194,107.609699 C442.776925,108.001005 442.999665,108.470566 443.150167,109.018395 C443.30067,109.566223 443.37592,110.177254 443.37592,110.851505 C443.37592,111.597997 443.27358,112.266218 443.068896,112.856187 C442.864213,113.446157 442.587293,113.945817 442.238127,114.355184 C441.888961,114.764551 441.485621,115.074581 441.028094,115.285284 C440.570566,115.495988 440.088966,115.601338 439.583278,115.601338 C439.173911,115.601338 438.749501,115.508028 438.310033,115.321405 C437.870566,115.134782 437.458196,114.866891 437.07291,114.517726 L437.018729,114.517726 L436.892308,115.384615 L435.700334,115.384615 L435.700334,102.525753 Z M437.181271,113.434114 C437.566557,113.771239 437.948828,114.009029 438.328094,114.147492 C438.70736,114.285954 439.04147,114.355184 439.330435,114.355184 C439.691641,114.355184 440.025751,114.273914 440.332776,114.111371 C440.639801,113.948829 440.904681,113.720068 441.127425,113.425084 C441.350168,113.130099 441.524749,112.765888 441.651171,112.332441 C441.777593,111.898994 441.840803,111.411374 441.840803,110.869565 C441.840803,110.387957 441.798663,109.948497 441.714381,109.551171 C441.6301,109.153844 441.49465,108.813714 441.308027,108.530769 C441.121404,108.247825 440.880603,108.028094 440.585619,107.871572 C440.290634,107.715049 439.938464,107.636789 439.529097,107.636789 C438.818726,107.636789 438.036125,108.03411 437.181271,108.828763 L437.181271,113.434114 Z M445.290301,113.10903 C445.290301,112.145815 445.720731,111.408364 446.581605,110.896656 C447.442479,110.384947 448.812031,110.026757 450.690301,109.822074 C450.690301,109.545149 450.663211,109.274249 450.60903,109.009365 C450.554849,108.74448 450.458529,108.5097 450.320067,108.305017 C450.181605,108.100333 449.997994,107.934783 449.769231,107.808361 C449.540467,107.681939 449.245487,107.618729 448.884281,107.618729 C448.366553,107.618729 447.887962,107.715049 447.448495,107.907692 C447.009028,108.100335 446.614717,108.317056 446.265552,108.55786 L445.669565,107.528428 C446.078932,107.263544 446.578592,107.007694 447.168562,106.76087 C447.758531,106.514046 448.408692,106.390635 449.119064,106.390635 C450.190641,106.390635 450.967222,106.718726 451.448829,107.374916 C451.930437,108.031107 452.171237,108.907018 452.171237,110.002676 L452.171237,115.384615 L450.943144,115.384615 L450.816722,114.337124 L450.780602,114.337124 C450.359195,114.686289 449.904685,114.98428 449.417057,115.231104 C448.929429,115.477928 448.414718,115.601338 447.87291,115.601338 C447.126418,115.601338 446.509367,115.384618 446.021739,114.951171 C445.534111,114.517724 445.290301,113.903683 445.290301,113.10903 Z M446.753177,113.000669 C446.753177,113.506357 446.900667,113.867557 447.195652,114.084281 C447.490637,114.301004 447.854847,114.409365 448.288294,114.409365 C448.709701,114.409365 449.110032,114.310034 449.489298,114.111371 C449.868564,113.912708 450.268894,113.620738 450.690301,113.235452 L450.690301,110.797324 C449.955849,110.893646 449.335788,111.008026 448.8301,111.140468 C448.324412,111.27291 447.918062,111.429431 447.611037,111.610033 C447.304012,111.790636 447.084282,111.998327 446.951839,112.23311 C446.819397,112.467894 446.753177,112.723744 446.753177,113.000669 Z M454.320401,111.014047 C454.320401,110.279595 454.434781,109.626424 454.663545,109.054515 C454.892309,108.482606 455.199329,107.997995 455.584615,107.600669 C455.969902,107.203342 456.418392,106.902342 456.9301,106.697659 C457.441809,106.492976 457.980599,106.390635 458.546488,106.390635 C459.124418,106.390635 459.621068,106.495986 460.036455,106.706689 C460.451842,106.917392 460.810032,107.161203 461.111037,107.438127 L460.370569,108.395318 C460.105684,108.166554 459.831774,107.979934 459.548829,107.835452 C459.265885,107.690969 458.949835,107.618729 458.600669,107.618729 C458.203342,107.618729 457.836122,107.699999 457.498997,107.862542 C457.161871,108.025084 456.872911,108.256855 456.632107,108.55786 C456.391303,108.858864 456.201673,109.217055 456.063211,109.632441 C455.924748,110.047828 455.855518,110.508359 455.855518,111.014047 C455.855518,111.519735 455.921738,111.977255 456.054181,112.386622 C456.186623,112.795989 456.370233,113.148159 456.605017,113.443144 C456.839801,113.738129 457.125751,113.966889 457.462876,114.129431 C457.800002,114.291974 458.167222,114.373244 458.564548,114.373244 C458.985955,114.373244 459.368226,114.285954 459.711371,114.111371 C460.054517,113.936788 460.358527,113.729098 460.623411,113.488294 L461.291639,114.463545 C460.894312,114.812711 460.451842,115.089631 459.964214,115.294314 C459.476586,115.498998 458.967896,115.601338 458.438127,115.601338 C457.860198,115.601338 457.318397,115.498998 456.812709,115.294314 C456.307021,115.089631 455.87057,114.791641 455.503344,114.400334 C455.136119,114.009028 454.847158,113.527428 454.636455,112.955518 C454.425751,112.383609 454.320401,111.736458 454.320401,111.014047 Z M463.20602,102.525753 L464.668896,102.525753 L464.668896,111.230769 L464.723077,111.230769 L468.461538,106.607358 L470.105017,106.607358 L467.161204,110.129097 L470.502341,115.384615 L468.876923,115.384615 L466.312375,111.158528 L464.668896,113.07291 L464.668896,115.384615 L463.20602,115.384615 L463.20602,102.525753 Z M472.777926,116.865552 C472.777926,117.335119 473.003677,117.70836 473.455184,117.985284 C473.906691,118.262209 474.529762,118.400669 475.324415,118.400669 C475.745822,118.400669 476.128092,118.349499 476.471237,118.247157 C476.814383,118.144816 477.106353,118.012375 477.347157,117.849833 C477.587961,117.68729 477.774581,117.49766 477.907023,117.280936 C478.039466,117.064213 478.105686,116.841473 478.105686,116.612709 C478.105686,116.203342 477.955185,115.920402 477.654181,115.76388 C477.353176,115.607357 476.913715,115.529097 476.335786,115.529097 L474.818729,115.529097 C474.650166,115.529097 474.466556,115.520067 474.267893,115.502007 C474.06923,115.483946 473.87358,115.444816 473.680936,115.384615 C473.367891,115.613379 473.139131,115.854179 472.994649,116.107023 C472.850167,116.359867 472.777926,116.612708 472.777926,116.865552 Z M471.477592,117.064214 C471.477592,116.690968 471.591972,116.335788 471.820736,115.998662 C472.049499,115.661537 472.36254,115.354516 472.759866,115.077592 L472.759866,115.005351 C472.543143,114.872909 472.359533,114.689299 472.20903,114.454515 C472.058528,114.219731 471.983278,113.927761 471.983278,113.578595 C471.983278,113.205349 472.085618,112.880269 472.290301,112.603344 C472.494984,112.32642 472.711705,112.1097 472.940468,111.953177 L472.940468,111.880936 C472.651504,111.640133 472.389633,111.318062 472.154849,110.914716 C471.920066,110.511369 471.802676,110.044819 471.802676,109.51505 C471.802676,109.033442 471.889966,108.600002 472.064548,108.214716 C472.239131,107.82943 472.476922,107.501339 472.777926,107.230435 C473.078931,106.95953 473.431102,106.75184 473.834448,106.607358 C474.237795,106.462876 474.662205,106.390635 475.107692,106.390635 C475.348496,106.390635 475.574246,106.411705 475.78495,106.453846 C475.995653,106.495987 476.185283,106.547157 476.353846,106.607358 L479.40602,106.607358 L479.40602,107.745151 L477.6,107.745151 C477.804683,107.949834 477.976253,108.208694 478.114716,108.521739 C478.253178,108.834784 478.322408,109.177925 478.322408,109.551171 C478.322408,110.020738 478.238128,110.445149 478.069565,110.824415 C477.901003,111.203681 477.672242,111.522741 477.383278,111.781605 C477.094313,112.04047 476.754183,112.24214 476.362876,112.386622 C475.97157,112.531104 475.553179,112.603344 475.107692,112.603344 C474.890969,112.603344 474.668229,112.576254 474.439465,112.522074 C474.210701,112.467893 473.993981,112.392643 473.789298,112.296321 C473.632775,112.428763 473.500335,112.576253 473.391973,112.738796 C473.283611,112.901339 473.229431,113.103009 473.229431,113.343813 C473.229431,113.620737 473.337792,113.849497 473.554515,114.0301 C473.771239,114.210703 474.180599,114.301003 474.782609,114.301003 L476.480268,114.301003 C477.503684,114.301003 478.271235,114.466554 478.782943,114.797659 C479.294651,115.128764 479.550502,115.661535 479.550502,116.395987 C479.550502,116.805353 479.448162,117.193644 479.243478,117.56087 C479.038795,117.928095 478.743815,118.250166 478.358528,118.52709 C477.973242,118.804015 477.506692,119.023745 476.958863,119.186288 C476.411034,119.34883 475.793983,119.4301 475.107692,119.4301 C474.565884,119.4301 474.072243,119.37893 473.626756,119.276589 C473.181269,119.174247 472.798998,119.020737 472.479933,118.816054 C472.160868,118.61137 471.914048,118.36455 471.739465,118.075585 C471.564882,117.786621 471.477592,117.4495 471.477592,117.064214 Z M475.107692,111.610033 C475.360536,111.610033 475.598327,111.561873 475.82107,111.465552 C476.043814,111.36923 476.242474,111.23077 476.417057,111.050167 C476.59164,110.869564 476.72709,110.649834 476.823411,110.39097 C476.919733,110.132106 476.967893,109.840135 476.967893,109.51505 C476.967893,108.86488 476.787293,108.362209 476.426087,108.007023 C476.064881,107.651838 475.625421,107.474247 475.107692,107.474247 C474.589964,107.474247 474.150503,107.651838 473.789298,108.007023 C473.428092,108.362209 473.247492,108.86488 473.247492,109.51505 C473.247492,109.840135 473.295652,110.132106 473.391973,110.39097 C473.488295,110.649834 473.623745,110.869564 473.798328,111.050167 C473.972911,111.23077 474.171571,111.36923 474.394314,111.465552 C474.617058,111.561873 474.854848,111.610033 475.107692,111.610033 Z M481.248161,106.607358 L482.476254,106.607358 L482.602676,108.196656 L482.656856,108.196656 C482.957861,107.642807 483.322071,107.203346 483.749498,106.878261 C484.176925,106.553176 484.643476,106.390635 485.149164,106.390635 C485.49833,106.390635 485.81137,106.450836 486.088294,106.571237 L485.799331,107.871572 C485.654849,107.823411 485.522409,107.787291 485.402007,107.763211 C485.281605,107.73913 485.131105,107.72709 484.950502,107.72709 C484.577256,107.72709 484.188965,107.87759 483.785619,108.178595 C483.382272,108.4796 483.030102,109.003341 482.729097,109.749833 L482.729097,115.384615 L481.248161,115.384615 L481.248161,106.607358 Z M486.864883,111.014047 C486.864883,110.279595 486.976253,109.626424 487.198997,109.054515 C487.42174,108.482606 487.719731,107.997995 488.092977,107.600669 C488.466223,107.203342 488.896653,106.902342 489.384281,106.697659 C489.871909,106.492976 490.386619,106.390635 490.928428,106.390635 C491.470237,106.390635 491.984947,106.492976 492.472575,106.697659 C492.960203,106.902342 493.390634,107.203342 493.76388,107.600669 C494.137126,107.997995 494.435116,108.482606 494.65786,109.054515 C494.880603,109.626424 494.991973,110.279595 494.991973,111.014047 C494.991973,111.736458 494.880603,112.383609 494.65786,112.955518 C494.435116,113.527428 494.137126,114.009028 493.76388,114.400334 C493.390634,114.791641 492.960203,115.089631 492.472575,115.294314 C491.984947,115.498998 491.470237,115.601338 490.928428,115.601338 C490.386619,115.601338 489.871909,115.498998 489.384281,115.294314 C488.896653,115.089631 488.466223,114.791641 488.092977,114.400334 C487.719731,114.009028 487.42174,113.527428 487.198997,112.955518 C486.976253,112.383609 486.864883,111.736458 486.864883,111.014047 Z M488.4,111.014047 C488.4,111.519735 488.4602,111.977255 488.580602,112.386622 C488.701004,112.795989 488.872574,113.148159 489.095318,113.443144 C489.318061,113.738129 489.585952,113.966889 489.898997,114.129431 C490.212042,114.291974 490.555182,114.373244 490.928428,114.373244 C491.301674,114.373244 491.644814,114.291974 491.95786,114.129431 C492.270905,113.966889 492.538795,113.738129 492.761538,113.443144 C492.984282,113.148159 493.155852,112.795989 493.276254,112.386622 C493.396656,111.977255 493.456856,111.519735 493.456856,111.014047 C493.456856,110.508359 493.396656,110.047828 493.276254,109.632441 C493.155852,109.217055 492.984282,108.858864 492.761538,108.55786 C492.538795,108.256855 492.270905,108.025084 491.95786,107.862542 C491.644814,107.699999 491.301674,107.618729 490.928428,107.618729 C490.555182,107.618729 490.212042,107.699999 489.898997,107.862542 C489.585952,108.025084 489.318061,108.256855 489.095318,108.55786 C488.872574,108.858864 488.701004,109.217055 488.580602,109.632441 C488.4602,110.047828 488.4,110.508359 488.4,111.014047 Z M497.177258,106.607358 L498.676254,106.607358 L498.676254,111.971237 C498.676254,112.802011 498.805684,113.401002 499.064548,113.768227 C499.323413,114.135453 499.741803,114.319064 500.319732,114.319064 C500.77726,114.319064 501.1806,114.201673 501.529766,113.96689 C501.878932,113.732106 502.264212,113.355855 502.685619,112.838127 L502.685619,106.607358 L504.166555,106.607358 L504.166555,115.384615 L502.938462,115.384615 L502.81204,114.01204 L502.75786,114.01204 C502.348493,114.493648 501.918062,114.878928 501.466555,115.167893 C501.015048,115.456858 500.482277,115.601338 499.868227,115.601338 C498.929092,115.601338 498.245822,115.312377 497.818395,114.734448 C497.390968,114.156519 497.177258,113.301678 497.177258,112.1699 L497.177258,106.607358 Z M507.128428,106.607358 L508.356522,106.607358 L508.482943,107.871572 L508.537124,107.871572 C508.958531,107.450165 509.401001,107.097995 509.864548,106.81505 C510.328096,106.532106 510.866887,106.390635 511.480936,106.390635 C512.408031,106.390635 513.085282,106.679596 513.512709,107.257525 C513.940136,107.835454 514.153846,108.690295 514.153846,109.822074 L514.153846,115.384615 L512.67291,115.384615 L512.67291,110.020736 C512.67291,109.189962 512.54047,108.590972 512.275585,108.223746 C512.010701,107.85652 511.589301,107.67291 511.011371,107.67291 C510.553844,107.67291 510.150503,107.78729 509.801338,108.016054 C509.452172,108.244817 509.054852,108.581938 508.609365,109.027425 L508.609365,115.384615 L507.128428,115.384615 L507.128428,106.607358 Z M516.375251,111.014047 C516.375251,110.303675 516.480601,109.662545 516.691304,109.090635 C516.902008,108.518726 517.181938,108.034116 517.531104,107.636789 C517.880269,107.239463 518.28361,106.932443 518.741137,106.715719 C519.198664,106.498996 519.680265,106.390635 520.185953,106.390635 C520.691641,106.390635 521.131102,106.480936 521.504348,106.661538 C521.877594,106.842141 522.256854,107.088962 522.64214,107.402007 L522.5699,105.90301 L522.5699,102.525753 L524.068896,102.525753 L524.068896,115.384615 L522.840803,115.384615 L522.714381,114.355184 L522.660201,114.355184 C522.311035,114.692309 521.910705,114.98428 521.459197,115.231104 C521.00769,115.477928 520.52308,115.601338 520.005351,115.601338 C518.897653,115.601338 518.015722,115.204017 517.359532,114.409365 C516.703341,113.614712 516.375251,112.48295 516.375251,111.014047 Z M517.910368,110.995987 C517.910368,112.055524 518.121068,112.880265 518.542475,113.470234 C518.963882,114.060204 519.559862,114.355184 520.330435,114.355184 C520.739801,114.355184 521.125082,114.255854 521.486288,114.057191 C521.847493,113.858527 522.208694,113.554517 522.5699,113.145151 L522.5699,108.55786 C522.196654,108.220734 521.838463,107.982944 521.495318,107.844482 C521.152172,107.706019 520.800002,107.636789 520.438796,107.636789 C520.08963,107.636789 519.76154,107.718059 519.454515,107.880602 C519.14749,108.043145 518.8796,108.271905 518.650836,108.56689 C518.422072,108.861874 518.241472,109.214045 518.10903,109.623411 C517.976588,110.032778 517.910368,110.490298 517.910368,110.995987 Z M531.437458,104.801338 C531.148494,104.801338 530.904683,104.711038 530.70602,104.530435 C530.507357,104.349832 530.408027,104.121072 530.408027,103.844147 C530.408027,103.555183 530.507357,103.323412 530.70602,103.148829 C530.904683,102.974247 531.148494,102.886957 531.437458,102.886957 C531.726423,102.886957 531.970233,102.974247 532.168896,103.148829 C532.36756,103.323412 532.46689,103.555183 532.46689,103.844147 C532.46689,104.121072 532.36756,104.349832 532.168896,104.530435 C531.970233,104.711038 531.726423,104.801338 531.437458,104.801338 Z M530.67893,106.607358 L532.159866,106.607358 L532.159866,115.384615 L530.67893,115.384615 L530.67893,106.607358 Z M535.121739,106.607358 L536.349833,106.607358 L536.476254,107.871572 L536.530435,107.871572 C536.915721,107.450165 537.334111,107.097995 537.785619,106.81505 C538.237126,106.532106 538.727757,106.390635 539.257525,106.390635 C539.931776,106.390635 540.458527,106.538126 540.837793,106.83311 C541.217059,107.128095 541.496989,107.540466 541.677592,108.070234 C542.135119,107.564546 542.59565,107.158196 543.059197,106.851171 C543.522745,106.544146 544.025415,106.390635 544.567224,106.390635 C545.470239,106.390635 546.141469,106.679596 546.580936,107.257525 C547.020404,107.835454 547.240134,108.690295 547.240134,109.822074 L547.240134,115.384615 L545.759197,115.384615 L545.759197,110.020736 C545.759197,109.189962 545.626757,108.590972 545.361873,108.223746 C545.096989,107.85652 544.687628,107.67291 544.133779,107.67291 C543.471569,107.67291 542.737128,108.12441 541.930435,109.027425 L541.930435,115.384615 L540.449498,115.384615 L540.449498,110.020736 C540.449498,109.189962 540.317058,108.590972 540.052174,108.223746 C539.78729,107.85652 539.371909,107.67291 538.80602,107.67291 C538.143809,107.67291 537.409369,108.12441 536.602676,109.027425 L536.602676,115.384615 L535.121739,115.384615 L535.121739,106.607358 Z M549.660201,113.10903 C549.660201,112.145815 550.090631,111.408364 550.951505,110.896656 C551.812379,110.384947 553.18193,110.026757 555.060201,109.822074 C555.060201,109.545149 555.033111,109.274249 554.97893,109.009365 C554.924749,108.74448 554.828429,108.5097 554.689967,108.305017 C554.551504,108.100333 554.367894,107.934783 554.13913,107.808361 C553.910367,107.681939 553.615386,107.618729 553.254181,107.618729 C552.736452,107.618729 552.257862,107.715049 551.818395,107.907692 C551.378928,108.100335 550.984617,108.317056 550.635452,108.55786 L550.039465,107.528428 C550.448831,107.263544 550.948492,107.007694 551.538462,106.76087 C552.128431,106.514046 552.778592,106.390635 553.488963,106.390635 C554.56054,106.390635 555.337121,106.718726 555.818729,107.374916 C556.300337,108.031107 556.541137,108.907018 556.541137,110.002676 L556.541137,115.384615 L555.313043,115.384615 L555.186622,114.337124 L555.150502,114.337124 C554.729095,114.686289 554.274584,114.98428 553.786957,115.231104 C553.299329,115.477928 552.784618,115.601338 552.242809,115.601338 C551.496317,115.601338 550.879267,115.384618 550.391639,114.951171 C549.904011,114.517724 549.660201,113.903683 549.660201,113.10903 Z M551.123077,113.000669 C551.123077,113.506357 551.270567,113.867557 551.565552,114.084281 C551.860537,114.301004 552.224747,114.409365 552.658194,114.409365 C553.079601,114.409365 553.479931,114.310034 553.859197,114.111371 C554.238463,113.912708 554.638794,113.620738 555.060201,113.235452 L555.060201,110.797324 C554.325749,110.893646 553.705688,111.008026 553.2,111.140468 C552.694312,111.27291 552.287961,111.429431 551.980936,111.610033 C551.673912,111.790636 551.454181,111.998327 551.321739,112.23311 C551.189297,112.467894 551.123077,112.723744 551.123077,113.000669 Z M559.972575,116.865552 C559.972575,117.335119 560.198326,117.70836 560.649833,117.985284 C561.10134,118.262209 561.724411,118.400669 562.519064,118.400669 C562.94047,118.400669 563.322741,118.349499 563.665886,118.247157 C564.009032,118.144816 564.301002,118.012375 564.541806,117.849833 C564.78261,117.68729 564.96923,117.49766 565.101672,117.280936 C565.234114,117.064213 565.300334,116.841473 565.300334,116.612709 C565.300334,116.203342 565.149834,115.920402 564.848829,115.76388 C564.547825,115.607357 564.108364,115.529097 563.530435,115.529097 L562.013378,115.529097 C561.844815,115.529097 561.661205,115.520067 561.462542,115.502007 C561.263879,115.483946 561.068228,115.444816 560.875585,115.384615 C560.56254,115.613379 560.33378,115.854179 560.189298,116.107023 C560.044815,116.359867 559.972575,116.612708 559.972575,116.865552 Z M558.672241,117.064214 C558.672241,116.690968 558.786621,116.335788 559.015385,115.998662 C559.244148,115.661537 559.557189,115.354516 559.954515,115.077592 L559.954515,115.005351 C559.737792,114.872909 559.554181,114.689299 559.403679,114.454515 C559.253177,114.219731 559.177926,113.927761 559.177926,113.578595 C559.177926,113.205349 559.280267,112.880269 559.48495,112.603344 C559.689633,112.32642 559.906353,112.1097 560.135117,111.953177 L560.135117,111.880936 C559.846152,111.640133 559.584282,111.318062 559.349498,110.914716 C559.114715,110.511369 558.997324,110.044819 558.997324,109.51505 C558.997324,109.033442 559.084615,108.600002 559.259197,108.214716 C559.43378,107.82943 559.67157,107.501339 559.972575,107.230435 C560.27358,106.95953 560.62575,106.75184 561.029097,106.607358 C561.432443,106.462876 561.856854,106.390635 562.302341,106.390635 C562.543145,106.390635 562.768895,106.411705 562.979599,106.453846 C563.190302,106.495987 563.379932,106.547157 563.548495,106.607358 L566.600669,106.607358 L566.600669,107.745151 L564.794649,107.745151 C564.999332,107.949834 565.170902,108.208694 565.309365,108.521739 C565.447827,108.834784 565.517057,109.177925 565.517057,109.551171 C565.517057,110.020738 565.432777,110.445149 565.264214,110.824415 C565.095651,111.203681 564.866891,111.522741 564.577926,111.781605 C564.288962,112.04047 563.948831,112.24214 563.557525,112.386622 C563.166219,112.531104 562.747828,112.603344 562.302341,112.603344 C562.085618,112.603344 561.862877,112.576254 561.634114,112.522074 C561.40535,112.467893 561.18863,112.392643 560.983946,112.296321 C560.827424,112.428763 560.694984,112.576253 560.586622,112.738796 C560.47826,112.901339 560.42408,113.103009 560.42408,113.343813 C560.42408,113.620737 560.53244,113.849497 560.749164,114.0301 C560.965887,114.210703 561.375248,114.301003 561.977258,114.301003 L563.674916,114.301003 C564.698333,114.301003 565.465884,114.466554 565.977592,114.797659 C566.4893,115.128764 566.745151,115.661535 566.745151,116.395987 C566.745151,116.805353 566.64281,117.193644 566.438127,117.56087 C566.233444,117.928095 565.938463,118.250166 565.553177,118.52709 C565.167891,118.804015 564.701341,119.023745 564.153512,119.186288 C563.605683,119.34883 562.988632,119.4301 562.302341,119.4301 C561.760532,119.4301 561.266892,119.37893 560.821405,119.276589 C560.375918,119.174247 559.993647,119.020737 559.674582,118.816054 C559.355517,118.61137 559.108697,118.36455 558.934114,118.075585 C558.759531,117.786621 558.672241,117.4495 558.672241,117.064214 Z M562.302341,111.610033 C562.555185,111.610033 562.792975,111.561873 563.015719,111.465552 C563.238463,111.36923 563.437123,111.23077 563.611706,111.050167 C563.786288,110.869564 563.921739,110.649834 564.01806,110.39097 C564.114382,110.132106 564.162542,109.840135 564.162542,109.51505 C564.162542,108.86488 563.981942,108.362209 563.620736,108.007023 C563.25953,107.651838 562.820069,107.474247 562.302341,107.474247 C561.784613,107.474247 561.345152,107.651838 560.983946,108.007023 C560.622741,108.362209 560.44214,108.86488 560.44214,109.51505 C560.44214,109.840135 560.490301,110.132106 560.586622,110.39097 C560.682944,110.649834 560.818394,110.869564 560.992977,111.050167 C561.167559,111.23077 561.36622,111.36923 561.588963,111.465552 C561.811707,111.561873 562.049497,111.610033 562.302341,111.610033 Z M567.792642,111.014047 C567.792642,110.291635 567.904012,109.644484 568.126756,109.072575 C568.349499,108.500666 568.64448,108.016055 569.011706,107.618729 C569.378932,107.221403 569.797322,106.917392 570.26689,106.706689 C570.736457,106.495986 571.224078,106.390635 571.729766,106.390635 C572.283615,106.390635 572.780265,106.486956 573.219732,106.679599 C573.6592,106.872242 574.02642,107.149162 574.321405,107.510368 C574.616389,107.871574 574.84214,108.305014 574.998662,108.810702 C575.155185,109.31639 575.233445,109.882271 575.233445,110.508361 C575.233445,110.833446 575.215385,111.104347 575.179264,111.32107 L569.255518,111.32107 C569.315719,112.272246 569.60769,113.024746 570.131438,113.578595 C570.655187,114.132444 571.338457,114.409365 572.181271,114.409365 C572.602678,114.409365 572.990968,114.346154 573.346154,114.219732 C573.70134,114.09331 574.04147,113.92776 574.366555,113.723077 L574.890301,114.698328 C574.505015,114.939132 574.077594,115.149832 573.608027,115.330435 C573.138459,115.511038 572.602679,115.601338 572.000669,115.601338 C571.410699,115.601338 570.859869,115.495988 570.348161,115.285284 C569.836452,115.074581 569.390972,114.773581 569.011706,114.382274 C568.63244,113.990968 568.334449,113.512377 568.117726,112.946488 C567.901002,112.380599 567.792642,111.736458 567.792642,111.014047 Z M573.93311,110.345819 C573.93311,109.442805 573.74348,108.753514 573.364214,108.277926 C572.984948,107.802339 572.452177,107.564548 571.765886,107.564548 C571.452841,107.564548 571.154851,107.627759 570.871906,107.754181 C570.588962,107.880603 570.333112,108.061203 570.104348,108.295987 C569.875584,108.53077 569.685954,108.819731 569.535452,109.162876 C569.384949,109.506022 569.285619,109.900332 569.237458,110.345819 L573.93311,110.345819 Z M474.02408,136.185953 C474.02408,135.222738 474.454511,134.485287 475.315385,133.973579 C476.176258,133.46187 477.54581,133.10368 479.42408,132.898997 C479.42408,132.622072 479.39699,132.351172 479.342809,132.086288 C479.288628,131.821403 479.192308,131.586623 479.053846,131.38194 C478.915384,131.177257 478.731774,131.011706 478.50301,130.885284 C478.274246,130.758862 477.979266,130.695652 477.61806,130.695652 C477.100332,130.695652 476.621741,130.791972 476.182274,130.984615 C475.742807,131.177258 475.348497,131.393979 474.999331,131.634783 L474.403344,130.605351 C474.812711,130.340467 475.312372,130.084617 475.902341,129.837793 C476.492311,129.590969 477.142471,129.467559 477.852843,129.467559 C478.92442,129.467559 479.701001,129.795649 480.182609,130.451839 C480.664216,131.10803 480.905017,131.983941 480.905017,133.079599 L480.905017,138.461538 L479.676923,138.461538 L479.550502,137.414047 L479.514381,137.414047 C479.092974,137.763212 478.638464,138.061203 478.150836,138.308027 C477.663208,138.554851 477.148498,138.678261 476.606689,138.678261 C475.860197,138.678261 475.243146,138.461541 474.755518,138.028094 C474.267891,137.594647 474.02408,136.980606 474.02408,136.185953 Z M475.486957,136.077592 C475.486957,136.58328 475.634447,136.944481 475.929431,137.161204 C476.224416,137.377928 476.588627,137.486288 477.022074,137.486288 C477.44348,137.486288 477.843811,137.386958 478.223077,137.188294 C478.602343,136.989631 479.002673,136.697661 479.42408,136.312375 L479.42408,133.874247 C478.689628,133.970569 478.069568,134.084949 477.56388,134.217391 C477.058191,134.349833 476.651841,134.506354 476.344816,134.686957 C476.037791,134.867559 475.818061,135.07525 475.685619,135.310033 C475.553177,135.544817 475.486957,135.800668 475.486957,136.077592 Z M483.704348,129.684281 L484.932441,129.684281 L485.058863,130.948495 L485.113043,130.948495 C485.53445,130.527088 485.976921,130.174918 486.440468,129.891973 C486.904016,129.609029 487.442806,129.467559 488.056856,129.467559 C488.983951,129.467559 489.661202,129.756519 490.088629,130.334448 C490.516056,130.912377 490.729766,131.767218 490.729766,132.898997 L490.729766,138.461538 L489.248829,138.461538 L489.248829,133.097659 C489.248829,132.266885 489.116389,131.667895 488.851505,131.300669 C488.586621,130.933443 488.16522,130.749833 487.587291,130.749833 C487.129764,130.749833 486.726423,130.864213 486.377258,131.092977 C486.028092,131.32174 485.630771,131.658861 485.185284,132.104348 L485.185284,138.461538 L483.704348,138.461538 L483.704348,129.684281 Z M492.951171,134.09097 C492.951171,133.380598 493.056521,132.739468 493.267224,132.167559 C493.477927,131.595649 493.757858,131.111039 494.107023,130.713712 C494.456189,130.316386 494.859529,130.009366 495.317057,129.792642 C495.774584,129.575919 496.256185,129.467559 496.761873,129.467559 C497.267561,129.467559 497.707022,129.557859 498.080268,129.738462 C498.453514,129.919064 498.832774,130.165885 499.21806,130.47893 L499.145819,128.979933 L499.145819,125.602676 L500.644816,125.602676 L500.644816,138.461538 L499.416722,138.461538 L499.290301,137.432107 L499.23612,137.432107 C498.886955,137.769232 498.486624,138.061203 498.035117,138.308027 C497.58361,138.554851 497.098999,138.678261 496.581271,138.678261 C495.473573,138.678261 494.591642,138.28094 493.935452,137.486288 C493.279261,136.691635 492.951171,135.559874 492.951171,134.09097 Z M494.486288,134.07291 C494.486288,135.132447 494.696988,135.957188 495.118395,136.547157 C495.539801,137.137127 496.135782,137.432107 496.906355,137.432107 C497.315721,137.432107 497.701002,137.332777 498.062207,137.134114 C498.423413,136.935451 498.784614,136.63144 499.145819,136.222074 L499.145819,131.634783 C498.772573,131.297657 498.414383,131.059867 498.071237,130.921405 C497.728092,130.782942 497.375922,130.713712 497.014716,130.713712 C496.66555,130.713712 496.33746,130.794982 496.030435,130.957525 C495.72341,131.120068 495.45552,131.348828 495.226756,131.643813 C494.997992,131.938797 494.817392,132.290968 494.68495,132.700334 C494.552508,133.109701 494.486288,133.567222 494.486288,134.07291 Z M507.507692,130.894314 L506.207358,130.894314 L506.207358,129.774582 L507.579933,129.684281 L507.760535,127.228094 L509.006689,127.228094 L509.006689,129.684281 L511.372575,129.684281 L511.372575,130.894314 L509.006689,130.894314 L509.006689,135.770569 C509.006689,136.312377 509.106019,136.730768 509.304682,137.025753 C509.503345,137.320737 509.855516,137.468227 510.361204,137.468227 C510.517727,137.468227 510.686287,137.444147 510.86689,137.395987 C511.047493,137.347826 511.210033,137.293646 511.354515,137.233445 L511.643478,138.353177 C511.402674,138.437459 511.140804,138.512709 510.85786,138.57893 C510.574915,138.645151 510.294985,138.678261 510.01806,138.678261 C509.548493,138.678261 509.154182,138.606021 508.835117,138.461538 C508.516052,138.317056 508.257192,138.118396 508.058528,137.865552 C507.859865,137.612708 507.718395,137.305687 507.634114,136.944482 C507.549832,136.583276 507.507692,136.185955 507.507692,135.752508 L507.507692,130.894314 Z M512.70903,134.09097 C512.70903,133.368558 512.8204,132.721408 513.043144,132.149498 C513.265887,131.577589 513.560868,131.092979 513.928094,130.695652 C514.29532,130.298326 514.71371,129.994315 515.183278,129.783612 C515.652845,129.572909 516.140466,129.467559 516.646154,129.467559 C517.200003,129.467559 517.696653,129.563879 518.13612,129.756522 C518.575587,129.949165 518.942808,130.226085 519.237793,130.587291 C519.532777,130.948497 519.758528,131.381937 519.91505,131.887625 C520.071573,132.393314 520.149833,132.959194 520.149833,133.585284 C520.149833,133.91037 520.131773,134.18127 520.095652,134.397993 L514.171906,134.397993 C514.232107,135.349169 514.524078,136.101669 515.047826,136.655518 C515.571575,137.209367 516.254845,137.486288 517.097659,137.486288 C517.519066,137.486288 517.907356,137.423078 518.262542,137.296656 C518.617728,137.170233 518.957858,137.004683 519.282943,136.8 L519.806689,137.775251 C519.421403,138.016055 518.993982,138.226755 518.524415,138.407358 C518.054847,138.587961 517.519067,138.678261 516.917057,138.678261 C516.327087,138.678261 515.776257,138.572911 515.264548,138.362207 C514.75284,138.151504 514.30736,137.850504 513.928094,137.459197 C513.548828,137.067891 513.250837,136.5893 513.034114,136.023411 C512.81739,135.457522 512.70903,134.813382 512.70903,134.09097 Z M518.849498,133.422742 C518.849498,132.519728 518.659868,131.830437 518.280602,131.354849 C517.901336,130.879262 517.368565,130.641472 516.682274,130.641472 C516.369229,130.641472 516.071239,130.704682 515.788294,130.831104 C515.50535,130.957526 515.249499,131.138126 515.020736,131.37291 C514.791972,131.607693 514.602342,131.896654 514.451839,132.239799 C514.301337,132.582945 514.202007,132.977255 514.153846,133.422742 L518.849498,133.422742 Z M523.960535,133.874247 L521.305686,129.684281 L522.913043,129.684281 L524.086957,131.616722 C524.219399,131.857526 524.357859,132.101337 524.502341,132.348161 C524.646823,132.594985 524.797324,132.838795 524.953846,133.079599 L525.026087,133.079599 C525.158529,132.838795 525.290969,132.594985 525.423411,132.348161 C525.555854,132.101337 525.688294,131.857526 525.820736,131.616722 L526.886288,129.684281 L528.439465,129.684281 L525.784615,134.036789 L528.638127,138.461538 L527.030769,138.461538 L525.748495,136.420736 L525.27893,135.626087 C525.122407,135.361203 524.959867,135.102342 524.791304,134.849498 L524.719064,134.849498 C524.562541,135.102342 524.412041,135.358193 524.267559,135.617057 C524.123076,135.875921 523.978596,136.143811 523.834114,136.420736 L522.64214,138.461538 L521.088963,138.461538 L523.960535,133.874247 Z M530.624749,130.894314 L529.324415,130.894314 L529.324415,129.774582 L530.69699,129.684281 L530.877592,127.228094 L532.123746,127.228094 L532.123746,129.684281 L534.489632,129.684281 L534.489632,130.894314 L532.123746,130.894314 L532.123746,135.770569 C532.123746,136.312377 532.223076,136.730768 532.421739,137.025753 C532.620402,137.320737 532.972573,137.468227 533.478261,137.468227 C533.634783,137.468227 533.803344,137.444147 533.983946,137.395987 C534.164549,137.347826 534.32709,137.293646 534.471572,137.233445 L534.760535,138.353177 C534.519731,138.437459 534.257861,138.512709 533.974916,138.57893 C533.691972,138.645151 533.412042,138.678261 533.135117,138.678261 C532.665549,138.678261 532.271239,138.606021 531.952174,138.461538 C531.633109,138.317056 531.374248,138.118396 531.175585,137.865552 C530.976922,137.612708 530.835452,137.305687 530.751171,136.944482 C530.666889,136.583276 530.624749,136.185955 530.624749,135.752508 L530.624749,130.894314 Z M539.69097,136.185953 C539.69097,135.222738 540.1214,134.485287 540.982274,133.973579 C541.843148,133.46187 543.2127,133.10368 545.09097,132.898997 C545.09097,132.622072 545.06388,132.351172 545.009699,132.086288 C544.955518,131.821403 544.859198,131.586623 544.720736,131.38194 C544.582274,131.177257 544.398663,131.011706 544.1699,130.885284 C543.941136,130.758862 543.646156,130.695652 543.28495,130.695652 C542.767221,130.695652 542.288631,130.791972 541.849164,130.984615 C541.409697,131.177258 541.015386,131.393979 540.666221,131.634783 L540.070234,130.605351 C540.479601,130.340467 540.979261,130.084617 541.569231,129.837793 C542.1592,129.590969 542.809361,129.467559 543.519732,129.467559 C544.59131,129.467559 545.367891,129.795649 545.849498,130.451839 C546.331106,131.10803 546.571906,131.983941 546.571906,133.079599 L546.571906,138.461538 L545.343813,138.461538 L545.217391,137.414047 L545.181271,137.414047 C544.759864,137.763212 544.305354,138.061203 543.817726,138.308027 C543.330098,138.554851 542.815387,138.678261 542.273579,138.678261 C541.527087,138.678261 540.910036,138.461541 540.422408,138.028094 C539.93478,137.594647 539.69097,136.980606 539.69097,136.185953 Z M541.153846,136.077592 C541.153846,136.58328 541.301336,136.944481 541.596321,137.161204 C541.891306,137.377928 542.255516,137.486288 542.688963,137.486288 C543.11037,137.486288 543.5107,137.386958 543.889967,137.188294 C544.269233,136.989631 544.669563,136.697661 545.09097,136.312375 L545.09097,133.874247 C544.356518,133.970569 543.736457,134.084949 543.230769,134.217391 C542.725081,134.349833 542.318731,134.506354 542.011706,134.686957 C541.704681,134.867559 541.48495,135.07525 541.352508,135.310033 C541.220066,135.544817 541.153846,135.800668 541.153846,136.077592 Z M549.371237,125.602676 L550.852174,125.602676 L550.852174,136.8 C550.852174,137.040804 550.894314,137.209364 550.978595,137.305686 C551.062877,137.402007 551.159197,137.450167 551.267559,137.450167 L551.40301,137.450167 C551.445151,137.450167 551.508361,137.438127 551.592642,137.414047 L551.791304,138.533779 C551.694983,138.58194 551.580603,138.61806 551.448161,138.64214 C551.315718,138.666221 551.147158,138.678261 550.942475,138.678261 C550.376586,138.678261 549.973245,138.509701 549.732441,138.172575 C549.491638,137.83545 549.371237,137.341809 549.371237,136.691639 L549.371237,125.602676 Z M554.735117,127.878261 C554.446152,127.878261 554.202342,127.787961 554.003679,127.607358 C553.805016,127.426755 553.705686,127.197995 553.705686,126.92107 C553.705686,126.632106 553.805016,126.400335 554.003679,126.225753 C554.202342,126.05117 554.446152,125.96388 554.735117,125.96388 C555.024082,125.96388 555.267892,126.05117 555.466555,126.225753 C555.665218,126.400335 555.764548,126.632106 555.764548,126.92107 C555.764548,127.197995 555.665218,127.426755 555.466555,127.607358 C555.267892,127.787961 555.024082,127.878261 554.735117,127.878261 Z M553.976589,129.684281 L555.457525,129.684281 L555.457525,138.461538 L553.976589,138.461538 L553.976589,129.684281 Z M559.051505,139.942475 C559.051505,140.412042 559.277255,140.785283 559.728763,141.062207 C560.18027,141.339132 560.803341,141.477592 561.597993,141.477592 C562.0194,141.477592 562.401671,141.426422 562.744816,141.32408 C563.087962,141.221739 563.379932,141.089298 563.620736,140.926756 C563.86154,140.764213 564.04816,140.574583 564.180602,140.35786 C564.313044,140.141136 564.379264,139.918396 564.379264,139.689632 C564.379264,139.280266 564.228764,138.997325 563.927759,138.840803 C563.626754,138.68428 563.187294,138.60602 562.609365,138.60602 L561.092308,138.60602 C560.923745,138.60602 560.740135,138.59699 560.541472,138.57893 C560.342808,138.560869 560.147158,138.521739 559.954515,138.461538 C559.64147,138.690302 559.41271,138.931102 559.268227,139.183946 C559.123745,139.436791 559.051505,139.689631 559.051505,139.942475 Z M557.751171,140.141137 C557.751171,139.767891 557.865551,139.412711 558.094314,139.075585 C558.323078,138.73846 558.636118,138.43144 559.033445,138.154515 L559.033445,138.082274 C558.816721,137.949832 558.633111,137.766222 558.482609,137.531438 C558.332106,137.296654 558.256856,137.004684 558.256856,136.655518 C558.256856,136.282272 558.359196,135.957192 558.56388,135.680268 C558.768563,135.403343 558.985283,135.186623 559.214047,135.0301 L559.214047,134.95786 C558.925082,134.717056 558.663212,134.394985 558.428428,133.991639 C558.193644,133.588292 558.076254,133.121742 558.076254,132.591973 C558.076254,132.110365 558.163544,131.676925 558.338127,131.291639 C558.51271,130.906353 558.7505,130.578262 559.051505,130.307358 C559.35251,130.036453 559.70468,129.828763 560.108027,129.684281 C560.511373,129.539799 560.935784,129.467559 561.381271,129.467559 C561.622075,129.467559 561.847825,129.488629 562.058528,129.530769 C562.269232,129.57291 562.458862,129.62408 562.627425,129.684281 L565.679599,129.684281 L565.679599,130.822074 L563.873579,130.822074 C564.078262,131.026757 564.249832,131.285617 564.388294,131.598662 C564.526757,131.911707 564.595987,132.254848 564.595987,132.628094 C564.595987,133.097661 564.511707,133.522072 564.343144,133.901338 C564.174581,134.280604 563.945821,134.599664 563.656856,134.858528 C563.367892,135.117393 563.027761,135.319063 562.636455,135.463545 C562.245149,135.608027 561.826758,135.680268 561.381271,135.680268 C561.164547,135.680268 560.941807,135.653178 560.713043,135.598997 C560.48428,135.544816 560.26756,135.469566 560.062876,135.373244 C559.906354,135.505686 559.773914,135.653176 559.665552,135.815719 C559.55719,135.978262 559.50301,136.179932 559.50301,136.420736 C559.50301,136.69766 559.61137,136.926421 559.828094,137.107023 C560.044817,137.287626 560.454178,137.377926 561.056187,137.377926 L562.753846,137.377926 C563.777263,137.377926 564.544813,137.543477 565.056522,137.874582 C565.56823,138.205687 565.82408,138.738458 565.82408,139.47291 C565.82408,139.882276 565.72174,140.270567 565.517057,140.637793 C565.312374,141.005019 565.017393,141.327089 564.632107,141.604013 C564.246821,141.880938 563.78027,142.100668 563.232441,142.263211 C562.684613,142.425753 562.067562,142.507023 561.381271,142.507023 C560.839462,142.507023 560.345822,142.455853 559.900334,142.353512 C559.454847,142.25117 559.072577,142.09766 558.753512,141.892977 C558.434447,141.688293 558.187626,141.441473 558.013043,141.152508 C557.838461,140.863544 557.751171,140.526423 557.751171,140.141137 Z M561.381271,134.686957 C561.634115,134.686957 561.871905,134.638796 562.094649,134.542475 C562.317392,134.446153 562.516053,134.307693 562.690635,134.12709 C562.865218,133.946487 563.000668,133.726757 563.09699,133.467893 C563.193312,133.209029 563.241472,132.917058 563.241472,132.591973 C563.241472,131.941803 563.060871,131.439132 562.699666,131.083946 C562.33846,130.728761 561.898999,130.551171 561.381271,130.551171 C560.863543,130.551171 560.424082,130.728761 560.062876,131.083946 C559.70167,131.439132 559.52107,131.941803 559.52107,132.591973 C559.52107,132.917058 559.56923,133.209029 559.665552,133.467893 C559.761873,133.726757 559.897324,133.946487 560.071906,134.12709 C560.246489,134.307693 560.445149,134.446153 560.667893,134.542475 C560.890637,134.638796 561.128427,134.686957 561.381271,134.686957 Z M567.521739,129.684281 L568.749833,129.684281 L568.876254,130.948495 L568.930435,130.948495 C569.351842,130.527088 569.794312,130.174918 570.25786,129.891973 C570.721407,129.609029 571.260198,129.467559 571.874247,129.467559 C572.801342,129.467559 573.478593,129.756519 573.90602,130.334448 C574.333447,130.912377 574.547157,131.767218 574.547157,132.898997 L574.547157,138.461538 L573.066221,138.461538 L573.066221,133.097659 C573.066221,132.266885 572.933781,131.667895 572.668896,131.300669 C572.404012,130.933443 571.982612,130.749833 571.404682,130.749833 C570.947155,130.749833 570.543814,130.864213 570.194649,131.092977 C569.845483,131.32174 569.448163,131.658861 569.002676,132.104348 L569.002676,138.461538 L567.521739,138.461538 L567.521739,129.684281 Z M541.659532,152.761204 L542.887625,152.761204 L543.014047,154.350502 L543.068227,154.350502 C543.369232,153.796653 543.733443,153.357192 544.16087,153.032107 C544.588296,152.707022 545.054847,152.544482 545.560535,152.544482 C545.909701,152.544482 546.222741,152.604682 546.499666,152.725084 L546.210702,154.025418 C546.06622,153.977257 545.93378,153.941137 545.813378,153.917057 C545.692976,153.892976 545.542476,153.880936 545.361873,153.880936 C544.988627,153.880936 544.600336,154.031437 544.19699,154.332441 C543.793643,154.633446 543.441473,155.157187 543.140468,155.903679 L543.140468,161.538462 L541.659532,161.538462 L541.659532,152.761204 Z M548.68495,150.955184 C548.395985,150.955184 548.152175,150.864884 547.953512,150.684281 C547.754849,150.503678 547.655518,150.274918 547.655518,149.997993 C547.655518,149.709029 547.754849,149.477258 547.953512,149.302676 C548.152175,149.128093 548.395985,149.040803 548.68495,149.040803 C548.973914,149.040803 549.217725,149.128093 549.416388,149.302676 C549.615051,149.477258 549.714381,149.709029 549.714381,149.997993 C549.714381,150.274918 549.615051,150.503678 549.416388,150.684281 C549.217725,150.864884 548.973914,150.955184 548.68495,150.955184 Z M547.926421,152.761204 L549.407358,152.761204 L549.407358,161.538462 L547.926421,161.538462 L547.926421,152.761204 Z M553.001338,163.019398 C553.001338,163.488966 553.227088,163.862206 553.678595,164.13913 C554.130103,164.416055 554.753173,164.554515 555.547826,164.554515 C555.969233,164.554515 556.351503,164.503345 556.694649,164.401003 C557.037794,164.298662 557.329765,164.166222 557.570569,164.003679 C557.811372,163.841136 557.997993,163.651506 558.130435,163.434783 C558.262877,163.218059 558.329097,162.995319 558.329097,162.766555 C558.329097,162.357189 558.178597,162.074248 557.877592,161.917726 C557.576587,161.761203 557.137127,161.682943 556.559197,161.682943 L555.04214,161.682943 C554.873578,161.682943 554.689968,161.673913 554.491304,161.655853 C554.292641,161.637793 554.096991,161.598663 553.904348,161.538462 C553.591303,161.767225 553.362543,162.008025 553.21806,162.26087 C553.073578,162.513714 553.001338,162.766554 553.001338,163.019398 Z M551.701003,163.21806 C551.701003,162.844814 551.815383,162.489634 552.044147,162.152508 C552.272911,161.815383 552.585951,161.508363 552.983278,161.231438 L552.983278,161.159197 C552.766554,161.026755 552.582944,160.843145 552.432441,160.608361 C552.281939,160.373577 552.206689,160.081607 552.206689,159.732441 C552.206689,159.359195 552.309029,159.034115 552.513712,158.757191 C552.718396,158.480266 552.935116,158.263546 553.16388,158.107023 L553.16388,158.034783 C552.874915,157.793979 552.613045,157.471908 552.378261,157.068562 C552.143477,156.665215 552.026087,156.198665 552.026087,155.668896 C552.026087,155.187289 552.113377,154.753848 552.28796,154.368562 C552.462543,153.983276 552.700333,153.655185 553.001338,153.384281 C553.302343,153.113377 553.654513,152.905686 554.05786,152.761204 C554.461206,152.616722 554.885617,152.544482 555.331104,152.544482 C555.571908,152.544482 555.797658,152.565552 556.008361,152.607692 C556.219065,152.649833 556.408695,152.701003 556.577258,152.761204 L559.629431,152.761204 L559.629431,153.898997 L557.823411,153.898997 C558.028095,154.10368 558.199665,154.36254 558.338127,154.675585 C558.476589,154.98863 558.545819,155.331771 558.545819,155.705017 C558.545819,156.174584 558.461539,156.598995 558.292977,156.978261 C558.124414,157.357527 557.895654,157.676587 557.606689,157.935452 C557.317724,158.194316 556.977594,158.395986 556.586288,158.540468 C556.194981,158.684951 555.776591,158.757191 555.331104,158.757191 C555.11438,158.757191 554.89164,158.730101 554.662876,158.67592 C554.434113,158.621739 554.217392,158.546489 554.012709,158.450167 C553.856187,158.582609 553.723746,158.7301 553.615385,158.892642 C553.507023,159.055185 553.452843,159.256855 553.452843,159.497659 C553.452843,159.774583 553.561203,160.003344 553.777926,160.183946 C553.99465,160.364549 554.40401,160.454849 555.00602,160.454849 L556.703679,160.454849 C557.727095,160.454849 558.494646,160.6204 559.006355,160.951505 C559.518063,161.28261 559.773913,161.815381 559.773913,162.549833 C559.773913,162.959199 559.671573,163.34749 559.46689,163.714716 C559.262206,164.081942 558.967226,164.404012 558.58194,164.680936 C558.196654,164.957861 557.730103,165.177591 557.182274,165.340134 C556.634445,165.502676 556.017395,165.583946 555.331104,165.583946 C554.789295,165.583946 554.295654,165.532776 553.850167,165.430435 C553.40468,165.328093 553.02241,165.174583 552.703344,164.9699 C552.384279,164.765216 552.137459,164.518396 551.962876,164.229431 C551.788293,163.940467 551.701003,163.603346 551.701003,163.21806 Z M555.331104,157.76388 C555.583948,157.76388 555.821738,157.71572 556.044482,157.619398 C556.267225,157.523076 556.465885,157.384616 556.640468,157.204013 C556.815051,157.02341 556.950501,156.80368 557.046823,156.544816 C557.143144,156.285952 557.191304,155.993982 557.191304,155.668896 C557.191304,155.018726 557.010704,154.516055 556.649498,154.16087 C556.288293,153.805684 555.848832,153.628094 555.331104,153.628094 C554.813375,153.628094 554.373915,153.805684 554.012709,154.16087 C553.651503,154.516055 553.470903,155.018726 553.470903,155.668896 C553.470903,155.993982 553.519063,156.285952 553.615385,156.544816 C553.711706,156.80368 553.847156,157.02341 554.021739,157.204013 C554.196322,157.384616 554.394982,157.523076 554.617726,157.619398 C554.840469,157.71572 555.07826,157.76388 555.331104,157.76388 Z M561.471572,148.679599 L562.952508,148.679599 L562.952508,152.183278 L562.898328,153.989298 C563.319735,153.591971 563.759195,153.251841 564.216722,152.968896 C564.67425,152.685952 565.21003,152.544482 565.82408,152.544482 C566.751175,152.544482 567.428426,152.833442 567.855853,153.411371 C568.28328,153.989301 568.49699,154.844141 568.49699,155.97592 L568.49699,161.538462 L567.016054,161.538462 L567.016054,156.174582 C567.016054,155.343809 566.883613,154.744818 566.618729,154.377592 C566.353845,154.010366 565.932444,153.826756 565.354515,153.826756 C564.896988,153.826756 564.493647,153.941136 564.144482,154.1699 C563.795316,154.398663 563.397996,154.735784 562.952508,155.181271 L562.952508,161.538462 L561.471572,161.538462 L561.471572,148.679599 Z M571.549164,153.971237 L570.248829,153.971237 L570.248829,152.851505 L571.621405,152.761204 L571.802007,150.305017 L573.048161,150.305017 L573.048161,152.761204 L575.414047,152.761204 L575.414047,153.971237 L573.048161,153.971237 L573.048161,158.847492 C573.048161,159.3893 573.147491,159.807691 573.346154,160.102676 C573.544817,160.39766 573.896987,160.545151 574.402676,160.545151 C574.559198,160.545151 574.727758,160.52107 574.908361,160.47291 C575.088964,160.424749 575.251504,160.370569 575.395987,160.310368 L575.68495,161.4301 C575.444146,161.514382 575.182276,161.589632 574.899331,161.655853 C574.616387,161.722074 574.336456,161.755184 574.059532,161.755184 C573.589964,161.755184 573.195654,161.682944 572.876589,161.538462 C572.557523,161.393979 572.298663,161.195319 572.1,160.942475 C571.901337,160.689631 571.759867,160.382611 571.675585,160.021405 C571.591304,159.660199 571.549164,159.262878 571.549164,158.829431 L571.549164,153.971237 Z" id="Header-with-backgrou" fill="#FFFFFF"></path>
        </g>
    </g>
</svg>