<?xml version="1.0" encoding="UTF-8"?>
<svg width="600px" height="271px" viewBox="0 0 600 271" version="1.1" xmlns="http://www.w3.org/2000/svg" xmlns:xlink="http://www.w3.org/1999/xlink">
    <!-- Generator: Sketch 44.1 (41455) - http://www.bohemiancoding.com/sketch -->
    <title>headerimages15</title>
    <desc>Created with Sketch.</desc>
    <defs></defs>
    <g id="Page-1" stroke="none" stroke-width="1" fill="none" fill-rule="evenodd">
        <g id="15">
            <rect id="Rectangle-13" fill="#4990E2" x="0" y="0" width="600" height="270.28754"></rect>
            <g id="Group-5" transform="translate(340.255591, 43.130990)">
                <g id="Group-4" transform="translate(19.169329, 0.000000)">
                    <path d="M14,-4.49456011e-15 L200.696486,-4.49456011e-15 L200.696486,-5.32907052e-15 C208.428472,-2.04841569e-14 214.696486,6.2680135 214.696486,14 L214.696486,227.15655 C214.696486,227.15655 214.696486,227.15655 214.696486,227.15655 C214.696486,227.15655 143.13099,227.15655 0,227.15655 L0,14 L1.77635684e-15,14 C8.29461588e-16,6.2680135 6.2680135,-1.1014193e-14 14,-1.24344979e-14 Z" id="Oval" fill="#FFFFFF"></path>
                    <circle id="Oval" fill="#79797B" cx="107.827476" cy="13.8977636" r="2.39616613"></circle>
                    <rect id="Rectangle-8" fill="#E2E2E2" x="13.4185304" y="23.9616613" width="188.817891" height="203.194888"></rect>
                </g>
                <path d="M7,84.3450479 L73.5111821,84.3450479 L73.5111821,84.3450479 C77.3771754,84.3450479 80.5111821,87.4790547 80.5111821,91.3450479 L80.5111821,227.15655 C80.5111821,227.15655 80.5111821,227.15655 80.5111821,227.15655 C56.3286323,227.15655 24.1825498,227.15655 0,227.15655 C0,227.15655 0,227.15655 0,227.15655 L0,91.3450479 L-1.77635684e-15,91.3450479 C-2.24980447e-15,87.4790547 3.13400675,84.3450479 7,84.3450479 Z" id="Rectangle-12" fill="#FFFFFF"></path>
                <rect id="Rectangle-11" fill="#D8D8D8" x="1.91693291" y="98.7220447" width="76.6773163" height="128.434505"></rect>
            </g>
            <path d="M25.6591054,84.3488818 L28.8996805,84.3488818 L28.8996805,89.8821086 L33.8597444,89.8821086 L33.8597444,84.3488818 L37.1223642,84.3488818 L37.1223642,98.7220447 L33.8597444,98.7220447 L33.8597444,92.7258786 L28.8996805,92.7258786 L28.8996805,98.7220447 L25.6591054,98.7220447 L25.6591054,84.3488818 Z M39.6134185,93.2549521 C39.6134185,92.3731585 39.7603819,91.5758822 40.0543131,90.863099 C40.3482443,90.1503159 40.7340232,89.547766 41.2116613,89.0554313 C41.6892995,88.5630966 42.2367381,88.1846659 42.8539936,87.9201278 C43.4712491,87.6555897 44.1105398,87.5233227 44.771885,87.5233227 C45.5508026,87.5233227 46.2305083,87.6555897 46.8110224,87.9201278 C47.3915364,88.1846659 47.8765156,88.5520743 48.2659744,89.0223642 C48.6554333,89.4926541 48.9456859,90.0474409 49.1367412,90.6867412 C49.3277965,91.3260415 49.4233227,92.0204435 49.4233227,92.7699681 C49.4233227,93.0638992 49.4086263,93.3321074 49.3792332,93.5746006 C49.3498401,93.8170939 49.3204474,94.0044722 49.2910543,94.1367412 L42.74377,94.1367412 C42.8907356,94.9744451 43.2177291,95.5806691 43.7247604,95.9554313 C44.2317917,96.3301936 44.852712,96.5175719 45.5875399,96.5175719 C46.3664576,96.5175719 47.1527117,96.2750823 47.9463259,95.7900958 L49.0265176,97.7520767 C48.4680483,98.1341872 47.847128,98.4354622 47.163738,98.6559105 C46.480348,98.8763589 45.8079905,98.9865815 45.1466454,98.9865815 C44.3677277,98.9865815 43.640259,98.8579885 42.9642173,98.6007987 C42.2881755,98.3436089 41.700322,97.9688523 41.200639,97.4765176 C40.700956,96.9841828 40.311503,96.385307 40.0322684,95.6798722 C39.7530337,94.9744374 39.6134185,94.1661387 39.6134185,93.2549521 Z M46.6677316,92.1306709 C46.6677316,91.4987189 46.5281164,90.984347 46.2488818,90.5875399 C45.9696472,90.1907328 45.4993643,89.9923323 44.8380192,89.9923323 C44.3236396,89.9923323 43.8717272,90.1650142 43.4822684,90.5103834 C43.0928096,90.8557525 42.8392977,91.395843 42.7217252,92.1306709 L46.6677316,92.1306709 Z M51.2750799,95.6798722 C51.2750799,94.5335406 51.760059,93.6370639 52.7300319,92.9904153 C53.7000048,92.3437667 55.2651649,91.9102247 57.4255591,91.6897764 C57.396166,91.2047899 57.2492026,90.819011 56.9846645,90.5324281 C56.7201265,90.2458452 56.2939327,90.1025559 55.7060703,90.1025559 C55.2357804,90.1025559 54.7654976,90.1907339 54.2952077,90.3670927 C53.8249178,90.5434514 53.3252423,90.7859409 52.7961661,91.0945687 L51.6498403,88.95623 C52.3552751,88.5300298 53.0937661,88.1846659 53.8653355,87.9201278 C54.6369048,87.6555897 55.4562257,87.5233227 56.3233227,87.5233227 C57.7341924,87.5233227 58.8106992,87.9237979 59.5528754,88.7247604 C60.2950516,89.5257229 60.6661342,90.7712376 60.6661342,92.4613419 L60.6661342,98.7220447 L58.0207668,98.7220447 L57.7782748,97.5977636 L57.7121406,97.5977636 C57.2418507,98.0092672 56.7458493,98.3436089 56.2241214,98.6007987 C55.7023936,98.8579885 55.1329104,98.9865815 54.515655,98.9865815 C54.0159719,98.9865815 53.5677336,98.9020775 53.1709265,98.7330671 C52.7741194,98.5640567 52.4361036,98.3289152 52.156869,98.0276358 C51.8776344,97.7263563 51.6608634,97.3773183 51.5065495,96.9805112 C51.3522357,96.5837041 51.2750799,96.1501621 51.2750799,95.6798722 Z M54.3613419,95.4373802 C54.3613419,95.7900976 54.4752385,96.0509576 54.7030351,96.2199681 C54.9308318,96.3889785 55.2357808,96.4734824 55.6178914,96.4734824 C56.0000019,96.4734824 56.3233214,96.3926526 56.5878594,96.2309904 C56.8523975,96.0693283 57.1316279,95.841535 57.4255591,95.5476038 L57.4255591,93.6297125 C56.2645309,93.7913746 55.4635805,94.026516 55.0226837,94.3351438 C54.5817869,94.6437715 54.3613419,95.01118 54.3613419,95.4373802 Z M62.870607,93.2549521 C62.870607,92.358462 62.9992,91.5575115 63.2563898,90.8520767 C63.5135796,90.1466418 63.8515953,89.547766 64.2704473,89.0554313 C64.6892992,88.5630966 65.1742784,88.1846659 65.7253994,87.9201278 C66.2765203,87.6555897 66.8386553,87.5233227 67.4118211,87.5233227 C68.0290766,87.5233227 68.5361003,87.6261971 68.9329073,87.8319489 C69.3297144,88.0377007 69.7191674,88.3169311 70.101278,88.6696486 L69.9690096,86.9942492 L69.9690096,83.2686901 L73.2095847,83.2686901 L73.2095847,98.7220447 L70.5642173,98.7220447 L70.34377,97.641853 L70.2555911,97.641853 C69.8734805,98.0239636 69.4252422,98.3436089 68.9108626,98.6007987 C68.3964831,98.8579885 67.874763,98.9865815 67.3456869,98.9865815 C66.6696452,98.9865815 66.056073,98.8543144 65.5049521,98.5897764 C64.9538311,98.3252383 64.4835483,97.9468076 64.0940895,97.4544728 C63.7046306,96.9621381 63.4033557,96.3632623 63.1902556,95.6578275 C62.9771555,94.9523926 62.870607,94.1514422 62.870607,93.2549521 Z M66.199361,93.2108626 C66.199361,94.298408 66.372043,95.0920103 66.7174121,95.5916933 C67.0627813,96.0913763 67.5514345,96.3412141 68.1833866,96.3412141 C68.536104,96.3412141 68.8557494,96.2677324 69.1423323,96.1207668 C69.4289152,95.9738012 69.7044715,95.7166153 69.9690096,95.3492013 L69.9690096,90.8741214 C69.6750784,90.6095833 69.3738035,90.4258791 69.0651757,90.3230032 C68.756548,90.2201273 68.455273,90.1686901 68.1613419,90.1686901 C67.6469623,90.1686901 67.1913758,90.4148538 66.7945687,90.9071885 C66.3977616,91.3995232 66.199361,92.1674069 66.199361,93.2108626 Z M75.4361022,93.2549521 C75.4361022,92.3731585 75.5830656,91.5758822 75.8769968,90.863099 C76.170928,90.1503159 76.5567069,89.547766 77.034345,89.0554313 C77.5119832,88.5630966 78.0594218,88.1846659 78.6766773,87.9201278 C79.2939328,87.6555897 79.9332235,87.5233227 80.5945687,87.5233227 C81.3734863,87.5233227 82.053192,87.6555897 82.6337061,87.9201278 C83.2142202,88.1846659 83.6991993,88.5520743 84.0886581,89.0223642 C84.478117,89.4926541 84.7683697,90.0474409 84.9594249,90.6867412 C85.1504802,91.3260415 85.2460064,92.0204435 85.2460064,92.7699681 C85.2460064,93.0638992 85.2313101,93.3321074 85.2019169,93.5746006 C85.1725238,93.8170939 85.1431311,94.0044722 85.113738,94.1367412 L78.5664537,94.1367412 C78.7134193,94.9744451 79.0404128,95.5806691 79.5474441,95.9554313 C80.0544754,96.3301936 80.6753957,96.5175719 81.4102236,96.5175719 C82.1891413,96.5175719 82.9753954,96.2750823 83.7690096,95.7900958 L84.8492013,97.7520767 C84.290732,98.1341872 83.6698117,98.4354622 82.9864217,98.6559105 C82.3030317,98.8763589 81.6306742,98.9865815 80.9693291,98.9865815 C80.1904114,98.9865815 79.4629427,98.8579885 78.786901,98.6007987 C78.1108592,98.3436089 77.5230057,97.9688523 77.0233227,97.4765176 C76.5236397,96.9841828 76.1341867,96.385307 75.8549521,95.6798722 C75.5757175,94.9744374 75.4361022,94.1661387 75.4361022,93.2549521 Z M82.4904153,92.1306709 C82.4904153,91.4987189 82.3508001,90.984347 82.0715655,90.5875399 C81.7923309,90.1907328 81.322048,89.9923323 80.6607029,89.9923323 C80.1463233,89.9923323 79.6944109,90.1650142 79.3049521,90.5103834 C78.9154933,90.8557525 78.6619814,91.395843 78.5444089,92.1306709 L82.4904153,92.1306709 Z M87.4945687,87.7878594 L90.1399361,87.7878594 L90.3603834,89.7057508 L90.4485623,89.7057508 C90.8453694,88.9562263 91.3230004,88.4051136 91.8814696,88.0523962 C92.4399389,87.6996787 92.9983998,87.5233227 93.556869,87.5233227 C93.8654968,87.5233227 94.1190086,87.5416931 94.3174121,87.5784345 C94.5158157,87.6151759 94.6958458,87.6702872 94.857508,87.74377 L94.3284345,90.5434505 C94.1226827,90.4846642 93.9316303,90.4405752 93.7552716,90.4111821 C93.5789129,90.381789 93.3731641,90.3670927 93.1380192,90.3670927 C92.7265155,90.3670927 92.2966476,90.514056 91.8484026,90.8079872 C91.4001575,91.1019184 91.029075,91.6236384 90.7351438,92.3731629 L90.7351438,98.7220447 L87.4945687,98.7220447 L87.4945687,87.7878594 Z M102.462939,86.1785942 C101.919167,86.1785942 101.470928,86.0206086 101.118211,85.7046326 C100.765493,85.3886566 100.589137,84.9808332 100.589137,84.4811502 C100.589137,83.9814672 100.765493,83.5773178 101.118211,83.2686901 C101.470928,82.9600624 101.919167,82.8057508 102.462939,82.8057508 C103.021409,82.8057508 103.473321,82.9600624 103.81869,83.2686901 C104.164059,83.5773178 104.336741,83.9814672 104.336741,84.4811502 C104.336741,84.9808332 104.164059,85.3886566 103.81869,85.7046326 C103.473321,86.0206086 103.021409,86.1785942 102.462939,86.1785942 Z M100.853674,87.7878594 L104.094249,87.7878594 L104.094249,98.7220447 L100.853674,98.7220447 L100.853674,87.7878594 Z M106.938019,87.7878594 L109.583387,87.7878594 L109.803834,89.198722 L109.892013,89.198722 C110.347606,88.7431287 110.832585,88.3500017 111.346965,88.0193291 C111.861344,87.6886565 112.478591,87.5233227 113.198722,87.5233227 C113.97764,87.5233227 114.605908,87.6813083 115.083546,87.9972843 C115.561184,88.3132604 115.939615,88.7651728 116.21885,89.3530351 C116.703836,88.8533521 117.214534,88.4234842 117.750958,88.0634185 C118.287383,87.7033528 118.923,87.5233227 119.657827,87.5233227 C120.833552,87.5233227 121.696962,87.9164497 122.248083,88.7027157 C122.799204,89.4889816 123.07476,90.5654884 123.07476,91.9322684 L123.07476,98.7220447 L119.834185,98.7220447 L119.834185,92.3511182 C119.834185,91.557504 119.727637,91.0137395 119.514537,90.7198083 C119.301437,90.4258771 118.959747,90.2789137 118.489457,90.2789137 C117.945684,90.2789137 117.32109,90.6316259 116.615655,91.3370607 L116.615655,98.7220447 L113.37508,98.7220447 L113.37508,92.3511182 C113.37508,91.557504 113.268531,91.0137395 113.055431,90.7198083 C112.842331,90.4258771 112.500641,90.2789137 112.030351,90.2789137 C111.471882,90.2789137 110.854636,90.6316259 110.178594,91.3370607 L110.178594,98.7220447 L106.938019,98.7220447 L106.938019,87.7878594 Z M125.433546,95.6798722 C125.433546,94.5335406 125.918526,93.6370639 126.888498,92.9904153 C127.858471,92.3437667 129.423631,91.9102247 131.584026,91.6897764 C131.554632,91.2047899 131.407669,90.819011 131.143131,90.5324281 C130.878593,90.2458452 130.452399,90.1025559 129.864537,90.1025559 C129.394247,90.1025559 128.923964,90.1907339 128.453674,90.3670927 C127.983384,90.5434514 127.483709,90.7859409 126.954633,91.0945687 L125.808307,88.95623 C126.513742,88.5300298 127.252233,88.1846659 128.023802,87.9201278 C128.795371,87.6555897 129.614692,87.5233227 130.481789,87.5233227 C131.892659,87.5233227 132.969166,87.9237979 133.711342,88.7247604 C134.453518,89.5257229 134.824601,90.7712376 134.824601,92.4613419 L134.824601,98.7220447 L132.179233,98.7220447 L131.936741,97.5977636 L131.870607,97.5977636 C131.400317,98.0092672 130.904316,98.3436089 130.382588,98.6007987 C129.86086,98.8579885 129.291377,98.9865815 128.674121,98.9865815 C128.174438,98.9865815 127.7262,98.9020775 127.329393,98.7330671 C126.932586,98.5640567 126.59457,98.3289152 126.315335,98.0276358 C126.036101,97.7263563 125.81933,97.3773183 125.665016,96.9805112 C125.510702,96.5837041 125.433546,96.1501621 125.433546,95.6798722 Z M128.519808,95.4373802 C128.519808,95.7900976 128.633705,96.0509576 128.861502,96.2199681 C129.089298,96.3889785 129.394247,96.4734824 129.776358,96.4734824 C130.158468,96.4734824 130.481788,96.3926526 130.746326,96.2309904 C131.010864,96.0693283 131.290094,95.841535 131.584026,95.5476038 L131.584026,93.6297125 C130.422997,93.7913746 129.622047,94.026516 129.18115,94.3351438 C128.740253,94.6437715 128.519808,95.01118 128.519808,95.4373802 Z M139.586262,100.088818 C139.586262,100.500322 139.806707,100.812619 140.247604,101.025719 C140.688501,101.238819 141.276354,101.345367 142.011182,101.345367 C142.74601,101.345367 143.34856,101.216774 143.81885,100.959585 C144.28914,100.702395 144.524281,100.38275 144.524281,100.000639 C144.524281,99.6626181 144.380992,99.4348249 144.094409,99.3172524 C143.807826,99.1996799 143.392654,99.1408946 142.848882,99.1408946 L141.724601,99.1408946 C141.34249,99.1408946 141.033867,99.1298723 140.798722,99.1078275 C140.563577,99.0857826 140.357828,99.0527159 140.18147,99.0086262 C139.784663,99.3613436 139.586262,99.7214039 139.586262,100.088818 Z M136.91885,100.595847 C136.91885,99.7140531 137.44057,98.9792362 138.484026,98.3913738 L138.484026,98.3031949 C138.190094,98.1121396 137.947605,97.86965 137.75655,97.5757188 C137.565494,97.2817877 137.469968,96.907031 137.469968,96.4514377 C137.469968,96.0546306 137.587539,95.6761999 137.822684,95.3161342 C138.057829,94.9560685 138.351755,94.6511195 138.704473,94.401278 L138.704473,94.313099 C138.322362,94.048561 137.980672,93.6701303 137.679393,93.1777955 C137.378114,92.6854608 137.227476,92.1159777 137.227476,91.4693291 C137.227476,90.8079839 137.352395,90.2311526 137.602236,89.7388179 C137.852078,89.2464832 138.18642,88.8349857 138.605272,88.5043131 C139.024124,88.1736405 139.505429,87.9274768 140.049201,87.7658147 C140.592974,87.6041525 141.158783,87.5233227 141.746645,87.5233227 C142.393294,87.5233227 142.959103,87.6115007 143.444089,87.7878594 L147.434185,87.7878594 L147.434185,90.1466454 L145.692652,90.1466454 C145.795528,90.3083075 145.880032,90.5140563 145.946166,90.7638978 C146.012301,91.0137393 146.045367,91.2856215 146.045367,91.5795527 C146.045367,92.2115048 145.935145,92.7589434 145.714696,93.221885 C145.494248,93.6848266 145.189299,94.0669314 144.79984,94.3682109 C144.410381,94.6694903 143.954795,94.8936095 143.433067,95.0405751 C142.911339,95.1875407 142.349204,95.2610224 141.746645,95.2610224 C141.320445,95.2610224 140.879555,95.1875407 140.423962,95.0405751 C140.276996,95.1581476 140.174122,95.2757183 140.115335,95.3932907 C140.056549,95.5108632 140.027157,95.6651748 140.027157,95.85623 C140.027157,96.1354647 140.148401,96.3412134 140.390895,96.4734824 C140.633388,96.6057515 141.063256,96.671885 141.680511,96.671885 L143.444089,96.671885 C144.796173,96.671885 145.828591,96.888656 146.541374,97.3222045 C147.254157,97.755753 147.610543,98.4648513 147.610543,99.4495208 C147.610543,100.022687 147.467254,100.548081 147.180671,101.025719 C146.894088,101.503357 146.486265,101.914855 145.957188,102.260224 C145.428112,102.605593 144.788822,102.877475 144.039297,103.075879 C143.289773,103.274282 142.444733,103.373482 141.504153,103.373482 C140.857505,103.373482 140.258629,103.318371 139.707508,103.208147 C139.156387,103.097923 138.671408,102.932589 138.252556,102.712141 C137.833704,102.491692 137.50671,102.205114 137.271565,101.852396 C137.036421,101.499679 136.91885,101.080833 136.91885,100.595847 Z M141.746645,93.2990415 C142.172846,93.2990415 142.529232,93.1484041 142.815815,92.8471246 C143.102398,92.5458451 143.245687,92.0865846 143.245687,91.4693291 C143.245687,90.8961633 143.102398,90.4589472 142.815815,90.1576677 C142.529232,89.8563883 142.172846,89.7057508 141.746645,89.7057508 C141.320445,89.7057508 140.964059,89.8527142 140.677476,90.1466454 C140.390893,90.4405765 140.247604,90.8814667 140.247604,91.4693291 C140.247604,92.0865846 140.390893,92.5458451 140.677476,92.8471246 C140.964059,93.1484041 141.320445,93.2990415 141.746645,93.2990415 Z M148.734824,93.2549521 C148.734824,92.3731585 148.881788,91.5758822 149.175719,90.863099 C149.46965,90.1503159 149.855429,89.547766 150.333067,89.0554313 C150.810705,88.5630966 151.358144,88.1846659 151.975399,87.9201278 C152.592655,87.6555897 153.231946,87.5233227 153.893291,87.5233227 C154.672208,87.5233227 155.351914,87.6555897 155.932428,87.9201278 C156.512942,88.1846659 156.997921,88.5520743 157.38738,89.0223642 C157.776839,89.4926541 158.067092,90.0474409 158.258147,90.6867412 C158.449202,91.3260415 158.544728,92.0204435 158.544728,92.7699681 C158.544728,93.0638992 158.530032,93.3321074 158.500639,93.5746006 C158.471246,93.8170939 158.441853,94.0044722 158.41246,94.1367412 L151.865176,94.1367412 C152.012141,94.9744451 152.339135,95.5806691 152.846166,95.9554313 C153.353197,96.3301936 153.974118,96.5175719 154.708946,96.5175719 C155.487863,96.5175719 156.274117,96.2750823 157.067732,95.7900958 L158.147923,97.7520767 C157.589454,98.1341872 156.968534,98.4354622 156.285144,98.6559105 C155.601754,98.8763589 154.929396,98.9865815 154.268051,98.9865815 C153.489133,98.9865815 152.761665,98.8579885 152.085623,98.6007987 C151.409581,98.3436089 150.821728,97.9688523 150.322045,97.4765176 C149.822362,96.9841828 149.432909,96.385307 149.153674,95.6798722 C148.874439,94.9744374 148.734824,94.1661387 148.734824,93.2549521 Z M155.789137,92.1306709 C155.789137,91.4987189 155.649522,90.984347 155.370288,90.5875399 C155.091053,90.1907328 154.62077,89.9923323 153.959425,89.9923323 C153.445045,89.9923323 152.993133,90.1650142 152.603674,90.5103834 C152.214215,90.8557525 151.960703,91.395843 151.843131,92.1306709 L155.789137,92.1306709 Z M165.378594,87.7878594 L168.023962,87.7878594 L168.244409,89.7057508 L168.332588,89.7057508 C168.729395,88.9562263 169.207026,88.4051136 169.765495,88.0523962 C170.323964,87.6996787 170.882425,87.5233227 171.440895,87.5233227 C171.749522,87.5233227 172.003034,87.5416931 172.201438,87.5784345 C172.399841,87.6151759 172.579871,87.6702872 172.741534,87.74377 L172.21246,90.5434505 C172.006708,90.4846642 171.815656,90.4405752 171.639297,90.4111821 C171.462938,90.381789 171.25719,90.3670927 171.022045,90.3670927 C170.610541,90.3670927 170.180673,90.514056 169.732428,90.8079872 C169.284183,91.1019184 168.913101,91.6236384 168.619169,92.3731629 L168.619169,98.7220447 L165.378594,98.7220447 L165.378594,87.7878594 Z M175.761661,86.1785942 C175.217889,86.1785942 174.76965,86.0206086 174.416933,85.7046326 C174.064215,85.3886566 173.887859,84.9808332 173.887859,84.4811502 C173.887859,83.9814672 174.064215,83.5773178 174.416933,83.2686901 C174.76965,82.9600624 175.217889,82.8057508 175.761661,82.8057508 C176.320131,82.8057508 176.772043,82.9600624 177.117412,83.2686901 C177.462781,83.5773178 177.635463,83.9814672 177.635463,84.4811502 C177.635463,84.9808332 177.462781,85.3886566 177.117412,85.7046326 C176.772043,86.0206086 176.320131,86.1785942 175.761661,86.1785942 Z M174.152396,87.7878594 L177.392971,87.7878594 L177.392971,98.7220447 L174.152396,98.7220447 L174.152396,87.7878594 Z M182.220767,100.088818 C182.220767,100.500322 182.441212,100.812619 182.882109,101.025719 C183.323005,101.238819 183.910859,101.345367 184.645687,101.345367 C185.380515,101.345367 185.983065,101.216774 186.453355,100.959585 C186.923645,100.702395 187.158786,100.38275 187.158786,100.000639 C187.158786,99.6626181 187.015497,99.4348249 186.728914,99.3172524 C186.442331,99.1996799 186.027159,99.1408946 185.483387,99.1408946 L184.359105,99.1408946 C183.976995,99.1408946 183.668372,99.1298723 183.433227,99.1078275 C183.198082,99.0857826 182.992333,99.0527159 182.815974,99.0086262 C182.419167,99.3613436 182.220767,99.7214039 182.220767,100.088818 Z M179.553355,100.595847 C179.553355,99.7140531 180.075075,98.9792362 181.11853,98.3913738 L181.11853,98.3031949 C180.824599,98.1121396 180.58211,97.86965 180.391054,97.5757188 C180.199999,97.2817877 180.104473,96.907031 180.104473,96.4514377 C180.104473,96.0546306 180.222044,95.6761999 180.457188,95.3161342 C180.692333,94.9560685 180.98626,94.6511195 181.338978,94.401278 L181.338978,94.313099 C180.956867,94.048561 180.615177,93.6701303 180.313898,93.1777955 C180.012618,92.6854608 179.861981,92.1159777 179.861981,91.4693291 C179.861981,90.8079839 179.9869,90.2311526 180.236741,89.7388179 C180.486583,89.2464832 180.820924,88.8349857 181.239776,88.5043131 C181.658628,88.1736405 182.139933,87.9274768 182.683706,87.7658147 C183.227479,87.6041525 183.793288,87.5233227 184.38115,87.5233227 C185.027799,87.5233227 185.593608,87.6115007 186.078594,87.7878594 L190.06869,87.7878594 L190.06869,90.1466454 L188.327157,90.1466454 C188.430032,90.3083075 188.514536,90.5140563 188.580671,90.7638978 C188.646805,91.0137393 188.679872,91.2856215 188.679872,91.5795527 C188.679872,92.2115048 188.56965,92.7589434 188.349201,93.221885 C188.128753,93.6848266 187.823804,94.0669314 187.434345,94.3682109 C187.044886,94.6694903 186.5893,94.8936095 186.067572,95.0405751 C185.545844,95.1875407 184.983709,95.2610224 184.38115,95.2610224 C183.95495,95.2610224 183.51406,95.1875407 183.058466,95.0405751 C182.911501,95.1581476 182.808626,95.2757183 182.74984,95.3932907 C182.691054,95.5108632 182.661661,95.6651748 182.661661,95.85623 C182.661661,96.1354647 182.782906,96.3412134 183.025399,96.4734824 C183.267893,96.6057515 183.69776,96.671885 184.315016,96.671885 L186.078594,96.671885 C187.430678,96.671885 188.463095,96.888656 189.175879,97.3222045 C189.888662,97.755753 190.245048,98.4648513 190.245048,99.4495208 C190.245048,100.022687 190.101759,100.548081 189.815176,101.025719 C189.528593,101.503357 189.120769,101.914855 188.591693,102.260224 C188.062617,102.605593 187.423326,102.877475 186.673802,103.075879 C185.924277,103.274282 185.079238,103.373482 184.138658,103.373482 C183.49201,103.373482 182.893134,103.318371 182.342013,103.208147 C181.790892,103.097923 181.305913,102.932589 180.887061,102.712141 C180.468209,102.491692 180.141215,102.205114 179.90607,101.852396 C179.670925,101.499679 179.553355,101.080833 179.553355,100.595847 Z M184.38115,93.2990415 C184.80735,93.2990415 185.163737,93.1484041 185.450319,92.8471246 C185.736902,92.5458451 185.880192,92.0865846 185.880192,91.4693291 C185.880192,90.8961633 185.736902,90.4589472 185.450319,90.1576677 C185.163737,89.8563883 184.80735,89.7057508 184.38115,89.7057508 C183.95495,89.7057508 183.598564,89.8527142 183.311981,90.1466454 C183.025398,90.4405765 182.882109,90.8814667 182.882109,91.4693291 C182.882109,92.0865846 183.025398,92.5458451 183.311981,92.8471246 C183.598564,93.1484041 183.95495,93.2990415 184.38115,93.2990415 Z M192.008626,83.2686901 L195.249201,83.2686901 L195.249201,87.0603834 L195.094888,89.0223642 C195.506392,88.6549502 195.984023,88.3132604 196.527796,87.9972843 C197.071568,87.6813083 197.718207,87.5233227 198.467732,87.5233227 C199.658153,87.5233227 200.521563,87.9127757 201.057987,88.6916933 C201.594412,89.4706109 201.86262,90.5507918 201.86262,91.9322684 L201.86262,98.7220447 L198.622045,98.7220447 L198.622045,92.3511182 C198.622045,91.557504 198.515496,91.0137395 198.302396,90.7198083 C198.089296,90.4258771 197.747606,90.2789137 197.277316,90.2789137 C196.865813,90.2789137 196.513101,90.3707659 196.219169,90.5544728 C195.925238,90.7381798 195.601919,90.9990398 195.249201,91.3370607 L195.249201,98.7220447 L192.008626,98.7220447 L192.008626,83.2686901 Z M205.037061,90.3230032 L203.538019,90.3230032 L203.538019,87.9201278 L205.213419,87.7878594 L205.588179,84.8779553 L208.277636,84.8779553 L208.277636,87.7878594 L210.900958,87.7878594 L210.900958,90.3230032 L208.277636,90.3230032 L208.277636,94.7099042 C208.277636,95.3271596 208.406229,95.7717239 208.663419,96.0436102 C208.920608,96.3154966 209.262298,96.4514377 209.688498,96.4514377 C209.864857,96.4514377 210.044887,96.4293932 210.228594,96.3853035 C210.412301,96.3412138 210.577635,96.2897767 210.724601,96.2309904 L211.231629,98.5897764 C210.937698,98.6779557 210.592334,98.7661337 210.195527,98.8543131 C209.79872,98.9424925 209.335785,98.9865815 208.806709,98.9865815 C208.130668,98.9865815 207.553836,98.8837071 207.076198,98.6779553 C206.59856,98.4722034 206.209107,98.1856248 205.907827,97.8182109 C205.606548,97.4507969 205.386103,97.0062326 205.246486,96.4845048 C205.106868,95.9627769 205.037061,95.3859457 205.037061,94.7539936 L205.037061,90.3230032 Z" id="Header-image-right" fill="#FFFFFF"></path>
            <path d="M27.3162939,125.559105 L207.714347,125.559105" id="Line" stroke="#FFFFFF" stroke-width="6" stroke-linecap="square"></path>
            <path d="M27.3162939,138.019169 L139.972803,138.019169" id="Line" stroke="#FFFFFF" stroke-width="6" stroke-linecap="square"></path>
            <g id="Group-6" transform="translate(26.837061, 173.482428)">
                <path d="M17.5619808,13.2345048 L18.2175719,13.2345048 C18.5511199,13.2345048 18.8055902,13.1640582 18.9809904,13.0231629 C19.1563907,12.8822677 19.2440895,12.6738033 19.2440895,12.3977636 C19.2440895,12.1217239 19.1563907,11.929074 18.9809904,11.8198083 C18.8055902,11.7105426 18.5511199,11.6559105 18.2175719,11.6559105 L17.5619808,11.6559105 L17.5619808,13.2345048 Z M19.3389776,16.2709265 L18.2607029,14.24377 L17.5619808,14.24377 L17.5619808,16.2709265 L16.2939297,16.2709265 L16.2939297,10.6466454 L18.3210863,10.6466454 C18.6201293,10.6466454 18.9004779,10.6753991 19.1621406,10.7329073 C19.4238032,10.7904156 19.6523952,10.8867405 19.8479233,11.021885 C20.0434515,11.1570294 20.1987215,11.3367401 20.313738,11.5610224 C20.4287546,11.7853046 20.486262,12.0642156 20.486262,12.3977636 C20.486262,12.8118232 20.3956878,13.1525546 20.2145367,13.4199681 C20.0333857,13.6873815 19.7904169,13.8872198 19.485623,14.0194888 L20.7623003,16.2709265 L19.3389776,16.2709265 Z M21.6076677,10.6466454 L25.1271565,10.6466454 L25.1271565,11.7162939 L22.8757188,11.7162939 L22.8757188,12.8463259 L24.7907348,12.8463259 L24.7907348,13.9073482 L22.8757188,13.9073482 L22.8757188,15.201278 L25.2134185,15.201278 L25.2134185,16.2709265 L21.6076677,16.2709265 L21.6076677,10.6466454 Z M28.715655,13.941853 L28.586262,13.4242812 C28.5057504,13.1424906 28.4281154,12.8434521 28.3533546,12.5271565 C28.2785939,12.210861 28.2038342,11.9060718 28.1290735,11.6127796 L28.0945687,11.6127796 C28.0255588,11.9118226 27.9551122,12.2180496 27.8832268,12.5314696 C27.8113415,12.8448897 27.7351442,13.1424906 27.6546326,13.4242812 L27.5166134,13.941853 L28.715655,13.941853 Z M28.9744409,14.9338658 L27.2578275,14.9338658 L26.9127796,16.2709265 L25.6188498,16.2709265 L27.3785942,10.6466454 L28.9054313,10.6466454 L30.6651757,16.2709265 L29.3194888,16.2709265 L28.9744409,14.9338658 Z M31.2776358,10.6466454 L32.8648562,10.6466454 C33.2961683,10.6466454 33.6843433,10.7012774 34.029393,10.8105431 C34.3744426,10.9198089 34.6706058,11.088018 34.9178914,11.3151757 C35.165177,11.5423334 35.3549514,11.8313082 35.4872204,12.1821086 C35.6194895,12.5329091 35.685623,12.9498378 35.685623,13.4329073 C35.685623,13.9159769 35.6194895,14.335781 35.4872204,14.6923323 C35.3549514,15.0488836 35.1680523,15.3436091 34.9265176,15.5765176 C34.6849828,15.8094261 34.3960081,15.983386 34.0595847,16.0984026 C33.7231613,16.2134191 33.3479254,16.2709265 32.9338658,16.2709265 L31.2776358,16.2709265 L31.2776358,10.6466454 Z M32.7872204,15.2444089 C33.0287552,15.2444089 33.2472834,15.2127799 33.4428115,15.1495208 C33.6383396,15.0862617 33.8051111,14.984186 33.943131,14.8432907 C34.0811508,14.7023955 34.1889772,14.5169341 34.2666134,14.286901 C34.3442496,14.0568679 34.3830671,13.7722062 34.3830671,13.4329073 C34.3830671,13.0993594 34.3442496,12.8190107 34.2666134,12.591853 C34.1889772,12.3646953 34.0811508,12.183547 33.943131,12.0484026 C33.8051111,11.9132581 33.6383396,11.8169332 33.4428115,11.7594249 C33.2472834,11.7019166 33.0287552,11.6731629 32.7872204,11.6731629 L32.5456869,11.6731629 L32.5456869,15.2444089 L32.7872204,15.2444089 Z M38.5495208,10.6466454 L39.8952077,10.6466454 L40.8354633,13.1741214 L41.171885,14.157508 L41.2063898,14.157508 L41.5428115,13.1741214 L42.4571885,10.6466454 L43.7942492,10.6466454 L43.7942492,16.2709265 L42.6124601,16.2709265 L42.6124601,14.2092652 C42.6124601,14.0712453 42.6182108,13.9188507 42.6297125,13.7520767 C42.6412141,13.5853027 42.655591,13.4170935 42.6728435,13.2474441 C42.6900959,13.0777947 42.7073482,12.9110232 42.7246006,12.7471246 C42.7418531,12.583226 42.7591053,12.4322691 42.7763578,12.2942492 L42.741853,12.2942492 L42.2760383,13.5968051 L41.4134185,15.7792332 L40.9044728,15.7792332 L40.041853,13.5968051 L39.5932907,12.2942492 L39.5587859,12.2942492 C39.5760384,12.4322691 39.5932906,12.583226 39.6105431,12.7471246 C39.6277956,12.9110232 39.6436102,13.0777947 39.6579872,13.2474441 C39.6723643,13.4170935 39.6853035,13.5853027 39.6968051,13.7520767 C39.7083068,13.9188507 39.7140575,14.0712453 39.7140575,14.2092652 L39.7140575,16.2709265 L38.5495208,16.2709265 L38.5495208,10.6466454 Z M47.4086262,16.3744409 C47.0290716,16.3744409 46.6825894,16.3068697 46.3691693,16.1717252 C46.0557492,16.0365808 45.7869021,15.8424933 45.5626198,15.5894569 C45.3383375,15.3364205 45.1643776,15.0287558 45.0407348,14.6664537 C44.917092,14.3041515 44.8552716,13.8929735 44.8552716,13.4329073 C44.8552716,12.9728412 44.917092,12.5631008 45.0407348,12.2036741 C45.1643776,11.8442474 45.3383375,11.5423335 45.5626198,11.2979233 C45.7869021,11.0535132 46.0557492,10.8666141 46.3691693,10.7372204 C46.6825894,10.6078268 47.0290716,10.543131 47.4086262,10.543131 C47.7881808,10.543131 48.134663,10.6078268 48.4480831,10.7372204 C48.7615032,10.8666141 49.0303503,11.0549508 49.2546326,11.3022364 C49.4789149,11.549522 49.6528748,11.8528736 49.7765176,12.2123003 C49.9001604,12.571727 49.9619808,12.978592 49.9619808,13.4329073 C49.9619808,13.8929735 49.9001604,14.3041515 49.7765176,14.6664537 C49.6528748,15.0287558 49.4789149,15.3364205 49.2546326,15.5894569 C49.0303503,15.8424933 48.7615032,16.0365808 48.4480831,16.1717252 C48.134663,16.3068697 47.7881808,16.3744409 47.4086262,16.3744409 Z M47.4086262,15.2789137 C47.7939316,15.2789137 48.0987209,15.1135799 48.3230032,14.7829073 C48.5472855,14.4522348 48.6594249,14.0022393 48.6594249,13.4329073 C48.6594249,12.8693263 48.5472855,12.4293946 48.3230032,12.113099 C48.0987209,11.7968035 47.7939316,11.6386581 47.4086262,11.6386581 C47.0233208,11.6386581 46.7185315,11.7968035 46.4942492,12.113099 C46.2699669,12.4293946 46.1578275,12.8693263 46.1578275,13.4329073 C46.1578275,14.0022393 46.2699669,14.4522348 46.4942492,14.7829073 C46.7185315,15.1135799 47.0233208,15.2789137 47.4086262,15.2789137 Z M52.2910543,13.2345048 L52.9466454,13.2345048 C53.2801934,13.2345048 53.5346637,13.1640582 53.7100639,13.0231629 C53.8854641,12.8822677 53.9731629,12.6738033 53.9731629,12.3977636 C53.9731629,12.1217239 53.8854641,11.929074 53.7100639,11.8198083 C53.5346637,11.7105426 53.2801934,11.6559105 52.9466454,11.6559105 L52.2910543,11.6559105 L52.2910543,13.2345048 Z M54.0680511,16.2709265 L52.9897764,14.24377 L52.2910543,14.24377 L52.2910543,16.2709265 L51.0230032,16.2709265 L51.0230032,10.6466454 L53.0501597,10.6466454 C53.3492028,10.6466454 53.6295514,10.6753991 53.8912141,10.7329073 C54.1528767,10.7904156 54.3814687,10.8867405 54.5769968,11.021885 C54.7725249,11.1570294 54.927795,11.3367401 55.0428115,11.5610224 C55.1578281,11.7853046 55.2153355,12.0642156 55.2153355,12.3977636 C55.2153355,12.8118232 55.1247613,13.1525546 54.9436102,13.4199681 C54.7624592,13.6873815 54.5194903,13.8872198 54.2146965,14.0194888 L55.4913738,16.2709265 L54.0680511,16.2709265 Z M56.3367412,10.6466454 L59.85623,10.6466454 L59.85623,11.7162939 L57.6047923,11.7162939 L57.6047923,12.8463259 L59.5198083,12.8463259 L59.5198083,13.9073482 L57.6047923,13.9073482 L57.6047923,15.201278 L59.942492,15.201278 L59.942492,16.2709265 L56.3367412,16.2709265 L56.3367412,10.6466454 Z" id="READ-MORE" fill="#FFFFFF"></path>
                <rect id="Rectangle-14" stroke="#FFFFFF" x="0.5" y="0.5" width="75.6773163" height="25.8370607"></rect>
            </g>
        </g>
    </g>
</svg>