<?xml version="1.0" encoding="UTF-8"?>
<svg width="600px" height="487px" viewBox="0 0 600 487" version="1.1" xmlns="http://www.w3.org/2000/svg" xmlns:xlink="http://www.w3.org/1999/xlink">
    <!-- Generator: Sketch 44.1 (41455) - http://www.bohemiancoding.com/sketch -->
    <title>imageboxes05</title>
    <desc>Created with Sketch.</desc>
    <defs></defs>
    <g id="Imageboxes" stroke="none" stroke-width="1" fill="none" fill-rule="evenodd">
        <g id="05">
            <rect id="Rectangle-3" fill="#5F5F5F" x="0" y="247" width="194" height="240"></rect>
            <path d="M221,48.26 L223.646,48.26 L223.646,59.996 L221,59.996 L221,48.26 Z M226.202,51.068 L228.362,51.068 L228.542,52.22 L228.614,52.22 C228.986002,51.8479981 229.381998,51.5270013 229.802,51.257 C230.222002,50.9869987 230.725997,50.852 231.314,50.852 C231.950003,50.852 232.462998,50.9809987 232.853,51.239 C233.243002,51.4970013 233.551999,51.8659976 233.78,52.346 C234.176002,51.937998 234.592998,51.5870015 235.031,51.293 C235.469002,50.9989985 235.987997,50.852 236.588,50.852 C237.548005,50.852 238.252998,51.1729968 238.703,51.815 C239.153002,52.4570032 239.378,53.3359944 239.378,54.452 L239.378,59.996 L236.732,59.996 L236.732,54.794 C236.732,54.1459968 236.645001,53.7020012 236.471,53.462 C236.296999,53.2219988 236.018002,53.102 235.634,53.102 C235.189998,53.102 234.680003,53.3899971 234.104,53.966 L234.104,59.996 L231.458,59.996 L231.458,54.794 C231.458,54.1459968 231.371001,53.7020012 231.197,53.462 C231.022999,53.2219988 230.744002,53.102 230.36,53.102 C229.903998,53.102 229.400003,53.3899971 228.848,53.966 L228.848,59.996 L226.202,59.996 L226.202,51.068 Z M241.304,57.512 C241.304,56.5759953 241.699996,55.8440026 242.492,55.316 C243.284004,54.7879974 244.561991,54.4340009 246.326,54.254 C246.302,53.857998 246.182001,53.5430012 245.966,53.309 C245.749999,53.0749988 245.402002,52.958 244.922,52.958 C244.537998,52.958 244.154002,53.0299993 243.77,53.174 C243.385998,53.3180007 242.978002,53.5159987 242.546,53.768 L241.61,52.022 C242.186003,51.6739983 242.788997,51.3920011 243.419,51.176 C244.049003,50.9599989 244.717996,50.852 245.426,50.852 C246.578006,50.852 247.456997,51.1789967 248.063,51.833 C248.669003,52.4870033 248.972,53.5039931 248.972,54.884 L248.972,59.996 L246.812,59.996 L246.614,59.078 L246.56,59.078 C246.175998,59.4140017 245.771002,59.6869989 245.345,59.897 C244.918998,60.1070011 244.454003,60.212 243.95,60.212 C243.541998,60.212 243.176002,60.1430007 242.852,60.005 C242.527998,59.8669993 242.252001,59.6750012 242.024,59.429 C241.795999,59.1829988 241.619001,58.8980016 241.493,58.574 C241.366999,58.2499984 241.304,57.8960019 241.304,57.512 Z M243.824,57.314 C243.824,57.6020014 243.916999,57.8149993 244.103,57.953 C244.289001,58.0910007 244.537998,58.16 244.85,58.16 C245.162002,58.16 245.425999,58.0940007 245.642,57.962 C245.858001,57.8299993 246.085999,57.6440012 246.326,57.404 L246.326,55.838 C245.377995,55.9700007 244.724002,56.1619987 244.364,56.414 C244.003998,56.6660013 243.824,56.9659983 243.824,57.314 Z M252.86,61.112 C252.86,61.4480017 253.039998,61.7029991 253.4,61.877 C253.760002,62.0510009 254.239997,62.138 254.84,62.138 C255.440003,62.138 255.931998,62.033001 256.316,61.823 C256.700002,61.612999 256.892,61.3520016 256.892,61.04 C256.892,60.7639986 256.775001,60.5780005 256.541,60.482 C256.306999,60.3859995 255.968002,60.338 255.524,60.338 L254.606,60.338 C254.293998,60.338 254.042001,60.3290001 253.85,60.311 C253.657999,60.2929999 253.490001,60.2660002 253.346,60.23 C253.021998,60.5180014 252.86,60.8119985 252.86,61.112 Z M250.682,61.526 C250.682,60.8059964 251.107996,60.2060024 251.96,59.726 L251.96,59.654 C251.719999,59.4979992 251.522001,59.3000012 251.366,59.06 C251.209999,58.8199988 251.132,58.5140019 251.132,58.142 C251.132,57.8179984 251.227999,57.5090015 251.42,57.215 C251.612001,56.9209985 251.851999,56.672001 252.14,56.468 L252.14,56.396 C251.827998,56.1799989 251.549001,55.871002 251.303,55.469 C251.056999,55.066998 250.934,54.6020026 250.934,54.074 C250.934,53.5339973 251.035999,53.063002 251.24,52.661 C251.444001,52.258998 251.716998,51.9230013 252.059,51.653 C252.401002,51.3829986 252.793998,51.1820007 253.238,51.05 C253.682002,50.9179993 254.143998,50.852 254.624,50.852 C255.152003,50.852 255.613998,50.9239993 256.01,51.068 L259.268,51.068 L259.268,52.994 L257.846,52.994 C257.93,53.1260007 257.999,53.293999 258.053,53.498 C258.107,53.702001 258.134,53.9239988 258.134,54.164 C258.134,54.6800026 258.044001,55.1269981 257.864,55.505 C257.683999,55.8830019 257.435002,56.1949988 257.117,56.441 C256.798998,56.6870012 256.427002,56.8699994 256.001,56.99 C255.574998,57.1100006 255.116002,57.17 254.624,57.17 C254.275998,57.17 253.916002,57.1100006 253.544,56.99 C253.423999,57.0860005 253.34,57.1819995 253.292,57.278 C253.244,57.3740005 253.22,57.4999992 253.22,57.656 C253.22,57.8840011 253.318999,58.0519995 253.517,58.16 C253.715001,58.2680005 254.065997,58.322 254.57,58.322 L256.01,58.322 C257.114006,58.322 257.956997,58.4989982 258.539,58.853 C259.121003,59.2070018 259.412,59.785996 259.412,60.59 C259.412,61.0580023 259.295001,61.4869981 259.061,61.877 C258.826999,62.267002 258.494002,62.6029986 258.062,62.885 C257.629998,63.1670014 257.108003,63.3889992 256.496,63.551 C255.883997,63.7130008 255.194004,63.794 254.426,63.794 C253.897997,63.794 253.409002,63.7490004 252.959,63.659 C252.508998,63.5689995 252.113002,63.4340009 251.771,63.254 C251.428998,63.0739991 251.162001,62.8400014 250.97,62.552 C250.777999,62.2639986 250.682,61.922002 250.682,61.526 Z M254.624,55.568 C254.972002,55.568 255.262999,55.4450012 255.497,55.199 C255.731001,54.9529988 255.848,54.5780025 255.848,54.074 C255.848,53.6059977 255.731001,53.2490012 255.497,53.003 C255.262999,52.7569988 254.972002,52.634 254.624,52.634 C254.275998,52.634 253.985001,52.7539988 253.751,52.994 C253.516999,53.2340012 253.4,53.5939976 253.4,54.074 C253.4,54.5780025 253.516999,54.9529988 253.751,55.199 C253.985001,55.4450012 254.275998,55.568 254.624,55.568 Z M260.33,55.532 C260.33,54.8119964 260.449999,54.1610029 260.69,53.579 C260.930001,52.9969971 261.244998,52.505002 261.635,52.103 C262.025002,51.700998 262.471997,51.3920011 262.976,51.176 C263.480003,50.9599989 264.001997,50.852 264.542,50.852 C265.178003,50.852 265.732998,50.9599989 266.207,51.176 C266.681002,51.3920011 267.076998,51.6919981 267.395,52.076 C267.713002,52.4600019 267.949999,52.9129974 268.106,53.435 C268.262001,53.9570026 268.34,54.5239969 268.34,55.136 C268.34,55.3760012 268.328,55.594999 268.304,55.793 C268.28,55.991001 268.256,56.1439995 268.232,56.252 L262.886,56.252 C263.006001,56.9360034 263.272998,57.4309985 263.687,57.737 C264.101002,58.0430015 264.607997,58.196 265.208,58.196 C265.844003,58.196 266.485997,57.998002 267.134,57.602 L268.016,59.204 C267.559998,59.5160016 267.053003,59.7619991 266.495,59.942 C265.936997,60.1220009 265.388003,60.212 264.848,60.212 C264.211997,60.212 263.618003,60.1070011 263.066,59.897 C262.513997,59.6869989 262.034002,59.381002 261.626,58.979 C261.217998,58.576998 260.900001,58.0880029 260.672,57.512 C260.443999,56.9359971 260.33,56.2760037 260.33,55.532 Z M266.09,54.614 C266.09,54.0979974 265.976001,53.6780016 265.748,53.354 C265.519999,53.0299984 265.136003,52.868 264.596,52.868 C264.175998,52.868 263.807002,53.0089986 263.489,53.291 C263.170998,53.5730014 262.964,54.013997 262.868,54.614 L266.09,54.614 Z M270.176,47.378 L272.822,47.378 L272.822,50.474 L272.75,51.842 C273.098002,51.5299984 273.472998,51.2870009 273.875,51.113 C274.277002,50.9389991 274.687998,50.852 275.108,50.852 C275.648003,50.852 276.133998,50.9599989 276.566,51.176 C276.998002,51.3920011 277.366998,51.694998 277.673,52.085 C277.979002,52.4750019 278.212999,52.9489972 278.375,53.507 C278.537001,54.0650028 278.618,54.6859966 278.618,55.37 C278.618,56.1380038 278.513001,56.821997 278.303,57.422 C278.092999,58.022003 277.811002,58.5289979 277.457,58.943 C277.102998,59.3570021 276.701002,59.6719989 276.251,59.888 C275.800998,60.1040011 275.336002,60.212 274.856,60.212 C274.459998,60.212 274.061002,60.116001 273.659,59.924 C273.256998,59.731999 272.882002,59.4440019 272.534,59.06 L272.462,59.06 L272.246,59.996 L270.176,59.996 L270.176,47.378 Z M272.822,57.476 C273.062001,57.6920011 273.301999,57.8419996 273.542,57.926 C273.782001,58.0100004 274.015999,58.052 274.244,58.052 C274.700002,58.052 275.089998,57.8450021 275.414,57.431 C275.738002,57.0169979 275.9,56.3480046 275.9,55.424 C275.9,53.815992 275.384005,53.012 274.352,53.012 C273.823997,53.012 273.314002,53.2819973 272.822,53.822 L272.822,57.476 Z M279.968,55.532 C279.968,54.7879963 280.087999,54.1250029 280.328,53.543 C280.568001,52.9609971 280.888998,52.472002 281.291,52.076 C281.693002,51.679998 282.157997,51.377001 282.686,51.167 C283.214003,50.9569989 283.759997,50.852 284.324,50.852 C284.888003,50.852 285.430997,50.9569989 285.953,51.167 C286.475003,51.377001 286.936998,51.679998 287.339,52.076 C287.741002,52.472002 288.061999,52.9609971 288.302,53.543 C288.542001,54.1250029 288.662,54.7879963 288.662,55.532 C288.662,56.2760037 288.542001,56.9389971 288.302,57.521 C288.061999,58.1030029 287.741002,58.591998 287.339,58.988 C286.936998,59.384002 286.475003,59.6869989 285.953,59.897 C285.430997,60.1070011 284.888003,60.212 284.324,60.212 C283.759997,60.212 283.214003,60.1070011 282.686,59.897 C282.157997,59.6869989 281.693002,59.384002 281.291,58.988 C280.888998,58.591998 280.568001,58.1030029 280.328,57.521 C280.087999,56.9389971 279.968,56.2760037 279.968,55.532 Z M282.686,55.532 C282.686,56.3120039 282.820999,56.9299977 283.091,57.386 C283.361001,57.8420023 283.771997,58.07 284.324,58.07 C284.864003,58.07 285.271999,57.8420023 285.548,57.386 C285.824001,56.9299977 285.962,56.3120039 285.962,55.532 C285.962,54.7519961 285.824001,54.1340023 285.548,53.678 C285.271999,53.2219977 284.864003,52.994 284.324,52.994 C283.771997,52.994 283.361001,53.2219977 283.091,53.678 C282.820999,54.1340023 282.686,54.7519961 282.686,55.532 Z M292.298,55.352 L289.724,51.068 L292.568,51.068 L293.36,52.508 C293.480001,52.7600013 293.602999,53.0149987 293.729,53.273 C293.855001,53.5310013 293.983999,53.7859987 294.116,54.038 L294.188,54.038 C294.284,53.7859987 294.385999,53.5310013 294.494,53.273 C294.602001,53.0149987 294.704,52.7600013 294.8,52.508 L295.412,51.068 L298.148,51.068 L295.556,55.658 L298.31,59.996 L295.466,59.996 L294.602,58.52 C294.457999,58.2679987 294.317001,58.0100013 294.179,57.746 C294.040999,57.4819987 293.900001,57.2240013 293.756,56.972 L293.684,56.972 C293.575999,57.2240013 293.462001,57.4789987 293.342,57.737 C293.221999,57.9950013 293.108001,58.2559987 293,58.52 L292.298,59.996 L289.562,59.996 L292.298,55.352 Z M299.21,55.532 C299.21,54.8119964 299.329999,54.1610029 299.57,53.579 C299.810001,52.9969971 300.124998,52.505002 300.515,52.103 C300.905002,51.700998 301.351997,51.3920011 301.856,51.176 C302.360003,50.9599989 302.881997,50.852 303.422,50.852 C304.058003,50.852 304.612998,50.9599989 305.087,51.176 C305.561002,51.3920011 305.956998,51.6919981 306.275,52.076 C306.593002,52.4600019 306.829999,52.9129974 306.986,53.435 C307.142001,53.9570026 307.22,54.5239969 307.22,55.136 C307.22,55.3760012 307.208,55.594999 307.184,55.793 C307.16,55.991001 307.136,56.1439995 307.112,56.252 L301.766,56.252 C301.886001,56.9360034 302.152998,57.4309985 302.567,57.737 C302.981002,58.0430015 303.487997,58.196 304.088,58.196 C304.724003,58.196 305.365997,57.998002 306.014,57.602 L306.896,59.204 C306.439998,59.5160016 305.933003,59.7619991 305.375,59.942 C304.816997,60.1220009 304.268003,60.212 303.728,60.212 C303.091997,60.212 302.498003,60.1070011 301.946,59.897 C301.393997,59.6869989 300.914002,59.381002 300.506,58.979 C300.097998,58.576998 299.780001,58.0880029 299.552,57.512 C299.323999,56.9359971 299.21,56.2760037 299.21,55.532 Z M304.97,54.614 C304.97,54.0979974 304.856001,53.6780016 304.628,53.354 C304.399999,53.0299984 304.016003,52.868 303.476,52.868 C303.055998,52.868 302.687002,53.0089986 302.369,53.291 C302.050998,53.5730014 301.844,54.013997 301.748,54.614 L304.97,54.614 Z M309.452,57.314 C309.860002,57.6260016 310.249998,57.8599992 310.622,58.016 C310.994002,58.1720008 311.371998,58.25 311.756,58.25 C312.152002,58.25 312.439999,58.1840007 312.62,58.052 C312.800001,57.9199993 312.89,57.7340012 312.89,57.494 C312.89,57.3499993 312.839001,57.2210006 312.737,57.107 C312.634999,56.9929994 312.497001,56.8880005 312.323,56.792 C312.148999,56.6959995 311.954001,56.6090004 311.738,56.531 C311.521999,56.4529996 311.300001,56.3660005 311.072,56.27 C310.795999,56.1619995 310.520001,56.0360007 310.244,55.892 C309.967999,55.7479993 309.716001,55.571001 309.488,55.361 C309.259999,55.150999 309.074001,54.9050014 308.93,54.623 C308.785999,54.3409986 308.714,54.0140019 308.714,53.642 C308.714,53.233998 308.794999,52.8560017 308.957,52.508 C309.119001,52.1599983 309.349998,51.8660012 309.65,51.626 C309.950001,51.3859988 310.309998,51.1970007 310.73,51.059 C311.150002,50.9209993 311.617997,50.852 312.134,50.852 C312.818003,50.852 313.417997,50.9689988 313.934,51.203 C314.450003,51.4370012 314.899998,51.6979986 315.284,51.986 L314.096,53.57 C313.771998,53.3299988 313.454002,53.1440007 313.142,53.012 C312.829998,52.8799993 312.518002,52.814 312.206,52.814 C311.533997,52.814 311.198,53.0479977 311.198,53.516 C311.198,53.6600007 311.246,53.7829995 311.342,53.885 C311.438,53.9870005 311.566999,54.0799996 311.729,54.164 C311.891001,54.2480004 312.076999,54.3289996 312.287,54.407 C312.497001,54.4850004 312.715999,54.5659996 312.944,54.65 C313.232001,54.7580005 313.516999,54.8809993 313.799,55.019 C314.081001,55.1570007 314.338999,55.327999 314.573,55.532 C314.807001,55.736001 314.995999,55.9849985 315.14,56.279 C315.284001,56.5730015 315.356,56.923998 315.356,57.332 C315.356,57.740002 315.278001,58.1179983 315.122,58.466 C314.965999,58.8140017 314.732002,59.1169987 314.42,59.375 C314.107998,59.6330013 313.724002,59.8369992 313.268,59.987 C312.811998,60.1370007 312.284003,60.212 311.684,60.212 C311.095997,60.212 310.493003,60.0980011 309.875,59.87 C309.256997,59.6419989 308.720002,59.3420019 308.264,58.97 L309.452,57.314 Z M321.746,56.702 C322.166002,57.0620018 322.630997,57.3559989 323.141,57.584 C323.651003,57.8120011 324.151998,57.926 324.644,57.926 C325.196003,57.926 325.606999,57.824001 325.877,57.62 C326.147001,57.415999 326.282,57.1400017 326.282,56.792 C326.282,56.6119991 326.243,56.4560007 326.165,56.324 C326.087,56.1919993 325.973001,56.0750005 325.823,55.973 C325.672999,55.8709995 325.493001,55.7750004 325.283,55.685 L324.59,55.388 L323.06,54.74 C322.759998,54.6199994 322.469001,54.464001 322.187,54.272 C321.904999,54.079999 321.653001,53.8550013 321.431,53.597 C321.208999,53.3389987 321.032001,53.0390017 320.9,52.697 C320.767999,52.3549983 320.702,51.9680022 320.702,51.536 C320.702,51.0559976 320.803999,50.6030021 321.008,50.177 C321.212001,49.7509979 321.499998,49.3790016 321.872,49.061 C322.244002,48.7429984 322.684997,48.4940009 323.195,48.314 C323.705003,48.1339991 324.265997,48.044 324.878,48.044 C325.562003,48.044 326.236997,48.1759987 326.903,48.44 C327.569003,48.7040013 328.153997,49.0879975 328.658,49.592 L327.308,51.266 C326.923998,50.9659985 326.540002,50.7350008 326.156,50.573 C325.771998,50.4109992 325.346002,50.33 324.878,50.33 C324.421998,50.33 324.059001,50.4229991 323.789,50.609 C323.518999,50.7950009 323.384,51.0559983 323.384,51.392 C323.384,51.5720009 323.429,51.7249994 323.519,51.851 C323.609,51.9770006 323.734999,52.0909995 323.897,52.193 C324.059001,52.2950005 324.247999,52.3909995 324.464,52.481 C324.680001,52.5710004 324.913999,52.6699995 325.166,52.778 L326.678,53.39 C327.398004,53.6780014 327.964998,54.0739975 328.379,54.578 C328.793002,55.0820025 329,55.7479959 329,56.576 C329,57.0680025 328.901001,57.5329978 328.703,57.971 C328.504999,58.4090022 328.217002,58.7929983 327.839,59.123 C327.460998,59.4530017 326.996003,59.716999 326.444,59.915 C325.891997,60.113001 325.268003,60.212 324.572,60.212 C323.803996,60.212 323.039004,60.0710014 322.277,59.789 C321.514996,59.5069986 320.834003,59.0840028 320.234,58.52 L321.746,56.702 Z M330.26,55.532 C330.26,54.8119964 330.379999,54.1610029 330.62,53.579 C330.860001,52.9969971 331.174998,52.505002 331.565,52.103 C331.955002,51.700998 332.401997,51.3920011 332.906,51.176 C333.410003,50.9599989 333.931997,50.852 334.472,50.852 C335.108003,50.852 335.662998,50.9599989 336.137,51.176 C336.611002,51.3920011 337.006998,51.6919981 337.325,52.076 C337.643002,52.4600019 337.879999,52.9129974 338.036,53.435 C338.192001,53.9570026 338.27,54.5239969 338.27,55.136 C338.27,55.3760012 338.258,55.594999 338.234,55.793 C338.21,55.991001 338.186,56.1439995 338.162,56.252 L332.816,56.252 C332.936001,56.9360034 333.202998,57.4309985 333.617,57.737 C334.031002,58.0430015 334.537997,58.196 335.138,58.196 C335.774003,58.196 336.415997,57.998002 337.064,57.602 L337.946,59.204 C337.489998,59.5160016 336.983003,59.7619991 336.425,59.942 C335.866997,60.1220009 335.318003,60.212 334.778,60.212 C334.141997,60.212 333.548003,60.1070011 332.996,59.897 C332.443997,59.6869989 331.964002,59.381002 331.556,58.979 C331.147998,58.576998 330.830001,58.0880029 330.602,57.512 C330.373999,56.9359971 330.26,56.2760037 330.26,55.532 Z M336.02,54.614 C336.02,54.0979974 335.906001,53.6780016 335.678,53.354 C335.449999,53.0299984 335.066003,52.868 334.526,52.868 C334.105998,52.868 333.737002,53.0089986 333.419,53.291 C333.100998,53.5730014 332.894,54.013997 332.798,54.614 L336.02,54.614 Z M339.584,55.532 C339.584,54.7879963 339.709999,54.1250029 339.962,53.543 C340.214001,52.9609971 340.552998,52.472002 340.979,52.076 C341.405002,51.679998 341.899997,51.377001 342.464,51.167 C343.028003,50.9569989 343.615997,50.852 344.228,50.852 C344.780003,50.852 345.277998,50.9449991 345.722,51.131 C346.166002,51.3170009 346.537999,51.5659984 346.838,51.878 L345.632,53.516 C345.211998,53.1679983 344.798002,52.994 344.39,52.994 C343.741997,52.994 343.232002,53.2219977 342.86,53.678 C342.487998,54.1340023 342.302,54.7519961 342.302,55.532 C342.302,56.3120039 342.490998,56.9299977 342.869,57.386 C343.247002,57.8420023 343.723997,58.07 344.3,58.07 C344.624002,58.07 344.917999,58.0040007 345.182,57.872 C345.446001,57.7399993 345.685999,57.5900008 345.902,57.422 L346.964,59.096 C346.531998,59.4800019 346.052003,59.7619991 345.524,59.942 C344.995997,60.1220009 344.486002,60.212 343.994,60.212 C343.369997,60.212 342.791003,60.1070011 342.257,59.897 C341.722997,59.6869989 341.258002,59.384002 340.862,58.988 C340.465998,58.591998 340.154001,58.1030029 339.926,57.521 C339.697999,56.9389971 339.584,56.2760037 339.584,55.532 Z M348.872,53.138 L347.648,53.138 L347.648,51.176 L349.016,51.068 L349.322,48.692 L351.518,48.692 L351.518,51.068 L353.66,51.068 L353.66,53.138 L351.518,53.138 L351.518,56.72 C351.518,57.2240025 351.622999,57.5869989 351.833,57.809 C352.043001,58.0310011 352.321998,58.142 352.67,58.142 C352.814001,58.142 352.960999,58.1240002 353.111,58.088 C353.261001,58.0519998 353.395999,58.0100002 353.516,57.962 L353.93,59.888 C353.689999,59.9600004 353.408002,60.0319996 353.084,60.104 C352.759998,60.1760004 352.382002,60.212 351.95,60.212 C351.397997,60.212 350.927002,60.1280008 350.537,59.96 C350.146998,59.7919992 349.829001,59.5580015 349.583,59.258 C349.336999,58.9579985 349.157001,58.5950021 349.043,58.169 C348.928999,57.7429979 348.872,57.2720026 348.872,56.756 L348.872,53.138 Z M356.72,49.754 C356.275998,49.754 355.910001,49.6250013 355.622,49.367 C355.333999,49.1089987 355.19,48.776002 355.19,48.368 C355.19,47.959998 355.333999,47.6300013 355.622,47.378 C355.910001,47.1259987 356.275998,47 356.72,47 C357.176002,47 357.544999,47.1259987 357.827,47.378 C358.109001,47.6300013 358.25,47.959998 358.25,48.368 C358.25,48.776002 358.109001,49.1089987 357.827,49.367 C357.544999,49.6250013 357.176002,49.754 356.72,49.754 Z M355.406,51.068 L358.052,51.068 L358.052,59.996 L355.406,59.996 L355.406,51.068 Z M359.852,55.532 C359.852,54.7879963 359.971999,54.1250029 360.212,53.543 C360.452001,52.9609971 360.772998,52.472002 361.175,52.076 C361.577002,51.679998 362.041997,51.377001 362.57,51.167 C363.098003,50.9569989 363.643997,50.852 364.208,50.852 C364.772003,50.852 365.314997,50.9569989 365.837,51.167 C366.359003,51.377001 366.820998,51.679998 367.223,52.076 C367.625002,52.472002 367.945999,52.9609971 368.186,53.543 C368.426001,54.1250029 368.546,54.7879963 368.546,55.532 C368.546,56.2760037 368.426001,56.9389971 368.186,57.521 C367.945999,58.1030029 367.625002,58.591998 367.223,58.988 C366.820998,59.384002 366.359003,59.6869989 365.837,59.897 C365.314997,60.1070011 364.772003,60.212 364.208,60.212 C363.643997,60.212 363.098003,60.1070011 362.57,59.897 C362.041997,59.6869989 361.577002,59.384002 361.175,58.988 C360.772998,58.591998 360.452001,58.1030029 360.212,57.521 C359.971999,56.9389971 359.852,56.2760037 359.852,55.532 Z M362.57,55.532 C362.57,56.3120039 362.704999,56.9299977 362.975,57.386 C363.245001,57.8420023 363.655997,58.07 364.208,58.07 C364.748003,58.07 365.155999,57.8420023 365.432,57.386 C365.708001,56.9299977 365.846,56.3120039 365.846,55.532 C365.846,54.7519961 365.708001,54.1340023 365.432,53.678 C365.155999,53.2219977 364.748003,52.994 364.208,52.994 C363.655997,52.994 363.245001,53.2219977 362.975,53.678 C362.704999,54.1340023 362.57,54.7519961 362.57,55.532 Z M370.364,51.068 L372.524,51.068 L372.704,52.202 L372.776,52.202 C373.160002,51.8419982 373.579998,51.5270013 374.036,51.257 C374.492002,50.9869987 375.025997,50.852 375.638,50.852 C376.610005,50.852 377.314998,51.1699968 377.753,51.806 C378.191002,52.4420032 378.41,53.3239944 378.41,54.452 L378.41,59.996 L375.764,59.996 L375.764,54.794 C375.764,54.1459968 375.677001,53.7020012 375.503,53.462 C375.328999,53.2219988 375.050002,53.102 374.666,53.102 C374.329998,53.102 374.042001,53.1769992 373.802,53.327 C373.561999,53.4770008 373.298001,53.6899986 373.01,53.966 L373.01,59.996 L370.364,59.996 L370.364,51.068 Z" id="Imageboxes-Section" fill="#79797B"></path>
            <path d="M245.5,80 L353.541659,80" id="Line" stroke="#979797" stroke-width="4" stroke-linecap="square"></path>
            <path d="M266.5,91 L332.000311,91" id="Line" stroke="#979797" stroke-width="4" stroke-linecap="square"></path>
            <g id="icon-diamant" transform="translate(282.000000, 0.000000)" stroke="#979797">
                <polygon id="Path-2" points="26.9111333 0.872477878 35.6022319 12.205857 18.4237887 31.2284438 0.120791792 12.3508126 9.65515536 0.784788698"></polygon>
                <polyline id="Path-3" points="9.87333439 1.03711879 9.87333439 12.8637855 27.1649318 12.8637855 27.1649318 1.20812852"></polyline>
                <polygon id="Path-4" points="17.9970473 1.98261097 9.65094805 12.2786331 18.5343808 31.267218 27.6744594 12.7791176"></polygon>
                <path d="M1.21212121,12.6315789 L33.4545455,12.6315789" id="Line" stroke-linecap="square"></path>
            </g>
            <g id="Group-4" transform="translate(21.000000, 336.000000)">
                <path d="M48.176,14.546 C48.5026683,14.8260014 48.8643314,15.0546658 49.261,15.232 C49.6576686,15.4093342 50.0473314,15.498 50.43,15.498 C50.8593355,15.498 51.178999,15.4186675 51.389,15.26 C51.599001,15.1013325 51.704,14.886668 51.704,14.616 C51.704,14.4759993 51.673667,14.3546672 51.613,14.252 C51.552333,14.1493328 51.4636673,14.0583337 51.347,13.979 C51.2303328,13.8996663 51.0903341,13.8250003 50.927,13.755 L50.388,13.524 L49.198,13.02 C48.9646655,12.9266662 48.7383344,12.8053341 48.519,12.656 C48.2996656,12.5066659 48.1036675,12.3316677 47.931,12.131 C47.7583325,11.9303323 47.6206672,11.6970013 47.518,11.431 C47.4153328,11.1649987 47.364,10.8640017 47.364,10.528 C47.364,10.1546648 47.4433325,9.80233499 47.602,9.471 C47.7606675,9.13966501 47.9846652,8.85033457 48.274,8.603 C48.5633348,8.35566543 48.9063314,8.1620007 49.303,8.022 C49.6996686,7.8819993 50.1359976,7.812 50.612,7.812 C51.1440027,7.812 51.6689974,7.91466564 52.187,8.12 C52.7050026,8.32533436 53.159998,8.62399804 53.552,9.016 L52.502,10.318 C52.2033318,10.0846655 51.9046682,9.90500063 51.606,9.779 C51.3073318,9.65299937 50.9760018,9.59 50.612,9.59 C50.2573316,9.59 49.975001,9.66233261 49.765,9.807 C49.5549989,9.95166739 49.45,10.1546654 49.45,10.416 C49.45,10.5560007 49.4849996,10.6749995 49.555,10.773 C49.6250004,10.8710005 49.7229994,10.9596663 49.849,11.039 C49.9750006,11.1183337 50.1219992,11.1929997 50.29,11.263 C50.4580008,11.3330004 50.639999,11.4099996 50.836,11.494 L52.012,11.97 C52.5720028,12.1940011 53.0129984,12.501998 53.335,12.894 C53.6570016,13.286002 53.818,13.8039968 53.818,14.448 C53.818,14.8306686 53.7410008,15.1923316 53.587,15.533 C53.4329992,15.8736684 53.2090015,16.1723321 52.915,16.429 C52.6209985,16.685668 52.2593355,16.8909992 51.83,17.045 C51.4006645,17.1990008 50.915336,17.276 50.374,17.276 C49.7766637,17.276 49.1816696,17.1663344 48.589,16.947 C47.9963304,16.7276656 47.466669,16.3986689 47,15.96 L48.176,14.546 Z M54.798,13.636 C54.798,13.0573304 54.8913324,12.5416689 55.078,12.089 C55.2646676,11.6363311 55.5143318,11.2560015 55.827,10.948 C56.1396682,10.6399985 56.5013313,10.4043342 56.912,10.241 C57.3226687,10.0776658 57.7473311,9.996 58.186,9.996 C58.6246689,9.996 59.046998,10.0776658 59.453,10.241 C59.859002,10.4043342 60.2183318,10.6399985 60.531,10.948 C60.8436682,11.2560015 61.0933324,11.6363311 61.28,12.089 C61.4666676,12.5416689 61.56,13.0573304 61.56,13.636 C61.56,14.2146696 61.4666676,14.7303311 61.28,15.183 C61.0933324,15.6356689 60.8436682,16.0159985 60.531,16.324 C60.2183318,16.6320015 59.859002,16.8676659 59.453,17.031 C59.046998,17.1943341 58.6246689,17.276 58.186,17.276 C57.7473311,17.276 57.3226687,17.1943341 56.912,17.031 C56.5013313,16.8676659 56.1396682,16.6320015 55.827,16.324 C55.5143318,16.0159985 55.2646676,15.6356689 55.078,15.183 C54.8913324,14.7303311 54.798,14.2146696 54.798,13.636 Z M56.912,13.636 C56.912,14.2426697 57.0169989,14.7233316 57.227,15.078 C57.437001,15.4326684 57.7566645,15.61 58.186,15.61 C58.6060021,15.61 58.9233323,15.4326684 59.138,15.078 C59.3526677,14.7233316 59.46,14.2426697 59.46,13.636 C59.46,13.0293303 59.3526677,12.5486684 59.138,12.194 C58.9233323,11.8393316 58.6060021,11.662 58.186,11.662 C57.7566645,11.662 57.437001,11.8393316 57.227,12.194 C57.0169989,12.5486684 56.912,13.0293303 56.912,13.636 Z M62.974,7.294 L65.032,7.294 L65.032,15.036 C65.032,15.2506677 65.0716663,15.3999996 65.151,15.484 C65.2303337,15.5680004 65.3119996,15.61 65.396,15.61 L65.515,15.61 C65.5476668,15.61 65.5919997,15.6006668 65.648,15.582 L65.9,17.108 C65.7879994,17.1546669 65.6456675,17.1943332 65.473,17.227 C65.3003325,17.2596668 65.0973345,17.276 64.864,17.276 C64.5093316,17.276 64.2106679,17.2200006 63.968,17.108 C63.7253321,16.9959994 63.5316674,16.8396677 63.387,16.639 C63.2423326,16.4383323 63.1373337,16.1956681 63.072,15.911 C63.0066663,15.6263319 62.974,15.3066684 62.974,14.952 L62.974,7.294 Z M66.908,10.164 L68.966,10.164 L68.966,14.21 C68.966,14.7140025 69.0359993,15.0593324 69.176,15.246 C69.3160007,15.4326676 69.5353318,15.526 69.834,15.526 C70.0953346,15.526 70.3146658,15.4653339 70.492,15.344 C70.6693342,15.2226661 70.8606656,15.026668 71.066,14.756 L71.066,10.164 L73.124,10.164 L73.124,17.108 L71.444,17.108 L71.29,16.142 L71.248,16.142 C70.9493318,16.4966684 70.6296684,16.7743323 70.289,16.975 C69.9483316,17.1756677 69.5400024,17.276 69.064,17.276 C68.3079962,17.276 67.7596684,17.0286691 67.419,16.534 C67.0783316,16.0393309 66.908,15.3533377 66.908,14.476 L66.908,10.164 Z M75.21,11.774 L74.258,11.774 L74.258,10.248 L75.322,10.164 L75.56,8.316 L77.268,8.316 L77.268,10.164 L78.934,10.164 L78.934,11.774 L77.268,11.774 L77.268,14.56 C77.268,14.952002 77.3496658,15.2343325 77.513,15.407 C77.6763342,15.5796675 77.893332,15.666 78.164,15.666 C78.2760006,15.666 78.3903327,15.6520001 78.507,15.624 C78.6236673,15.5959999 78.7286662,15.5633335 78.822,15.526 L79.144,17.024 C78.9573324,17.0800003 78.7380013,17.1359997 78.486,17.192 C78.2339987,17.2480003 77.9400017,17.276 77.604,17.276 C77.1746645,17.276 76.8083348,17.2106673 76.505,17.08 C76.2016651,16.9493327 75.9543343,16.7673345 75.763,16.534 C75.5716657,16.3006655 75.4316671,16.018335 75.343,15.687 C75.2543329,15.355665 75.21,14.9893353 75.21,14.588 L75.21,11.774 Z M81.314,9.142 C80.9686649,9.142 80.6840011,9.04166767 80.46,8.841 C80.2359989,8.64033233 80.124,8.38133492 80.124,8.064 C80.124,7.74666508 80.2359989,7.49000098 80.46,7.294 C80.6840011,7.09799902 80.9686649,7 81.314,7 C81.6686684,7 81.9556656,7.09799902 82.175,7.294 C82.3943344,7.49000098 82.504,7.74666508 82.504,8.064 C82.504,8.38133492 82.3943344,8.64033233 82.175,8.841 C81.9556656,9.04166767 81.6686684,9.142 81.314,9.142 Z M80.292,10.164 L82.35,10.164 L82.35,17.108 L80.292,17.108 L80.292,10.164 Z M83.75,13.636 C83.75,13.0573304 83.8433324,12.5416689 84.03,12.089 C84.2166676,11.6363311 84.4663318,11.2560015 84.779,10.948 C85.0916682,10.6399985 85.4533313,10.4043342 85.864,10.241 C86.2746687,10.0776658 86.6993311,9.996 87.138,9.996 C87.5766689,9.996 87.998998,10.0776658 88.405,10.241 C88.811002,10.4043342 89.1703318,10.6399985 89.483,10.948 C89.7956682,11.2560015 90.0453324,11.6363311 90.232,12.089 C90.4186676,12.5416689 90.512,13.0573304 90.512,13.636 C90.512,14.2146696 90.4186676,14.7303311 90.232,15.183 C90.0453324,15.6356689 89.7956682,16.0159985 89.483,16.324 C89.1703318,16.6320015 88.811002,16.8676659 88.405,17.031 C87.998998,17.1943341 87.5766689,17.276 87.138,17.276 C86.6993311,17.276 86.2746687,17.1943341 85.864,17.031 C85.4533313,16.8676659 85.0916682,16.6320015 84.779,16.324 C84.4663318,16.0159985 84.2166676,15.6356689 84.03,15.183 C83.8433324,14.7303311 83.75,14.2146696 83.75,13.636 Z M85.864,13.636 C85.864,14.2426697 85.9689989,14.7233316 86.179,15.078 C86.389001,15.4326684 86.7086645,15.61 87.138,15.61 C87.5580021,15.61 87.8753323,15.4326684 88.09,15.078 C88.3046677,14.7233316 88.412,14.2426697 88.412,13.636 C88.412,13.0293303 88.3046677,12.5486684 88.09,12.194 C87.8753323,11.8393316 87.5580021,11.662 87.138,11.662 C86.7086645,11.662 86.389001,11.8393316 86.179,12.194 C85.9689989,12.5486684 85.864,13.0293303 85.864,13.636 Z M91.926,10.164 L93.606,10.164 L93.746,11.046 L93.802,11.046 C94.1006682,10.7659986 94.4273316,10.521001 94.782,10.311 C95.1366684,10.100999 95.5519976,9.996 96.028,9.996 C96.7840038,9.996 97.3323316,10.2433309 97.673,10.738 C98.0136684,11.2326691 98.184,11.9186623 98.184,12.796 L98.184,17.108 L96.126,17.108 L96.126,13.062 C96.126,12.5579975 96.058334,12.2126676 95.923,12.026 C95.787666,11.8393324 95.5706682,11.746 95.272,11.746 C95.0106654,11.746 94.7866676,11.8043328 94.6,11.921 C94.4133324,12.0376672 94.2080011,12.2033323 93.984,12.418 L93.984,17.108 L91.926,17.108 L91.926,10.164 Z M100.242,15.022 C100.559335,15.2646679 100.862665,15.4466661 101.152,15.568 C101.441335,15.6893339 101.735332,15.75 102.034,15.75 C102.342002,15.75 102.565999,15.6986672 102.706,15.596 C102.846001,15.4933328 102.916,15.3486676 102.916,15.162 C102.916,15.0499994 102.876334,14.9496671 102.797,14.861 C102.717666,14.7723329 102.610334,14.690667 102.475,14.616 C102.339666,14.541333 102.188001,14.473667 102.02,14.413 C101.851999,14.352333 101.679334,14.284667 101.502,14.21 C101.287332,14.1259996 101.072668,14.0280006 100.858,13.916 C100.643332,13.8039994 100.447334,13.6663341 100.27,13.503 C100.092666,13.3396658 99.9480006,13.1483344 99.836,12.929 C99.7239994,12.7096656 99.668,12.4553348 99.668,12.166 C99.668,11.8486651 99.7309994,11.554668 99.857,11.284 C99.9830006,11.013332 100.162665,10.7846676 100.396,10.598 C100.629334,10.4113324 100.909332,10.2643339 101.236,10.157 C101.562668,10.0496661 101.926665,9.996 102.328,9.996 C102.860003,9.996 103.326665,10.0869991 103.728,10.269 C104.129335,10.4510009 104.479332,10.6539989 104.778,10.878 L103.854,12.11 C103.601999,11.9233324 103.354668,11.7786672 103.112,11.676 C102.869332,11.5733328 102.626668,11.522 102.384,11.522 C101.861331,11.522 101.6,11.7039982 101.6,12.068 C101.6,12.1800006 101.637333,12.2756663 101.712,12.355 C101.786667,12.4343337 101.886999,12.5066663 102.013,12.572 C102.139001,12.6373337 102.283666,12.700333 102.447,12.761 C102.610334,12.821667 102.780666,12.8846663 102.958,12.95 C103.182001,13.0340004 103.403666,13.1296661 103.623,13.237 C103.842334,13.3443339 104.042999,13.4773325 104.225,13.636 C104.407001,13.7946675 104.553999,13.9883322 104.666,14.217 C104.778001,14.4456678 104.834,14.7186651 104.834,15.036 C104.834,15.3533349 104.773334,15.647332 104.652,15.918 C104.530666,16.188668 104.348668,16.4243323 104.106,16.625 C103.863332,16.8256677 103.564668,16.9843328 103.21,17.101 C102.855332,17.2176673 102.444669,17.276 101.978,17.276 C101.520664,17.276 101.051669,17.1873342 100.571,17.01 C100.090331,16.8326658 99.6726684,16.5993348 99.318,16.31 L100.242,15.022 Z" id="Solutions" fill="#FFFFFF"></path>
                <path d="M47.5,0.5 L104.508771,0.5" id="Line" stroke="#FFFFFF" stroke-linecap="square"></path>
                <path d="M47.5,24.5 L104.508771,24.5" id="Line" stroke="#FFFFFF" stroke-linecap="square"></path>
                <path d="M0.5,50.5 L151.513244,50.5" id="Line" stroke="#FFFFFF" stroke-width="3" stroke-linecap="square"></path>
                <path d="M36.5,61.5 L115.556942,61.5" id="Line" stroke="#FFFFFF" stroke-width="3" stroke-linecap="square"></path>
            </g>
            <rect id="Rectangle-3" fill="#5F5F5F" x="406" y="247" width="194" height="240"></rect>
            <g id="Group-4" transform="translate(427.000000, 336.000000)">
                <path d="M48.176,14.546 C48.5026683,14.8260014 48.8643314,15.0546658 49.261,15.232 C49.6576686,15.4093342 50.0473314,15.498 50.43,15.498 C50.8593355,15.498 51.178999,15.4186675 51.389,15.26 C51.599001,15.1013325 51.704,14.886668 51.704,14.616 C51.704,14.4759993 51.673667,14.3546672 51.613,14.252 C51.552333,14.1493328 51.4636673,14.0583337 51.347,13.979 C51.2303328,13.8996663 51.0903341,13.8250003 50.927,13.755 L50.388,13.524 L49.198,13.02 C48.9646655,12.9266662 48.7383344,12.8053341 48.519,12.656 C48.2996656,12.5066659 48.1036675,12.3316677 47.931,12.131 C47.7583325,11.9303323 47.6206672,11.6970013 47.518,11.431 C47.4153328,11.1649987 47.364,10.8640017 47.364,10.528 C47.364,10.1546648 47.4433325,9.80233499 47.602,9.471 C47.7606675,9.13966501 47.9846652,8.85033457 48.274,8.603 C48.5633348,8.35566543 48.9063314,8.1620007 49.303,8.022 C49.6996686,7.8819993 50.1359976,7.812 50.612,7.812 C51.1440027,7.812 51.6689974,7.91466564 52.187,8.12 C52.7050026,8.32533436 53.159998,8.62399804 53.552,9.016 L52.502,10.318 C52.2033318,10.0846655 51.9046682,9.90500063 51.606,9.779 C51.3073318,9.65299937 50.9760018,9.59 50.612,9.59 C50.2573316,9.59 49.975001,9.66233261 49.765,9.807 C49.5549989,9.95166739 49.45,10.1546654 49.45,10.416 C49.45,10.5560007 49.4849996,10.6749995 49.555,10.773 C49.6250004,10.8710005 49.7229994,10.9596663 49.849,11.039 C49.9750006,11.1183337 50.1219992,11.1929997 50.29,11.263 C50.4580008,11.3330004 50.639999,11.4099996 50.836,11.494 L52.012,11.97 C52.5720028,12.1940011 53.0129984,12.501998 53.335,12.894 C53.6570016,13.286002 53.818,13.8039968 53.818,14.448 C53.818,14.8306686 53.7410008,15.1923316 53.587,15.533 C53.4329992,15.8736684 53.2090015,16.1723321 52.915,16.429 C52.6209985,16.685668 52.2593355,16.8909992 51.83,17.045 C51.4006645,17.1990008 50.915336,17.276 50.374,17.276 C49.7766637,17.276 49.1816696,17.1663344 48.589,16.947 C47.9963304,16.7276656 47.466669,16.3986689 47,15.96 L48.176,14.546 Z M54.798,13.636 C54.798,13.0573304 54.8913324,12.5416689 55.078,12.089 C55.2646676,11.6363311 55.5143318,11.2560015 55.827,10.948 C56.1396682,10.6399985 56.5013313,10.4043342 56.912,10.241 C57.3226687,10.0776658 57.7473311,9.996 58.186,9.996 C58.6246689,9.996 59.046998,10.0776658 59.453,10.241 C59.859002,10.4043342 60.2183318,10.6399985 60.531,10.948 C60.8436682,11.2560015 61.0933324,11.6363311 61.28,12.089 C61.4666676,12.5416689 61.56,13.0573304 61.56,13.636 C61.56,14.2146696 61.4666676,14.7303311 61.28,15.183 C61.0933324,15.6356689 60.8436682,16.0159985 60.531,16.324 C60.2183318,16.6320015 59.859002,16.8676659 59.453,17.031 C59.046998,17.1943341 58.6246689,17.276 58.186,17.276 C57.7473311,17.276 57.3226687,17.1943341 56.912,17.031 C56.5013313,16.8676659 56.1396682,16.6320015 55.827,16.324 C55.5143318,16.0159985 55.2646676,15.6356689 55.078,15.183 C54.8913324,14.7303311 54.798,14.2146696 54.798,13.636 Z M56.912,13.636 C56.912,14.2426697 57.0169989,14.7233316 57.227,15.078 C57.437001,15.4326684 57.7566645,15.61 58.186,15.61 C58.6060021,15.61 58.9233323,15.4326684 59.138,15.078 C59.3526677,14.7233316 59.46,14.2426697 59.46,13.636 C59.46,13.0293303 59.3526677,12.5486684 59.138,12.194 C58.9233323,11.8393316 58.6060021,11.662 58.186,11.662 C57.7566645,11.662 57.437001,11.8393316 57.227,12.194 C57.0169989,12.5486684 56.912,13.0293303 56.912,13.636 Z M62.974,7.294 L65.032,7.294 L65.032,15.036 C65.032,15.2506677 65.0716663,15.3999996 65.151,15.484 C65.2303337,15.5680004 65.3119996,15.61 65.396,15.61 L65.515,15.61 C65.5476668,15.61 65.5919997,15.6006668 65.648,15.582 L65.9,17.108 C65.7879994,17.1546669 65.6456675,17.1943332 65.473,17.227 C65.3003325,17.2596668 65.0973345,17.276 64.864,17.276 C64.5093316,17.276 64.2106679,17.2200006 63.968,17.108 C63.7253321,16.9959994 63.5316674,16.8396677 63.387,16.639 C63.2423326,16.4383323 63.1373337,16.1956681 63.072,15.911 C63.0066663,15.6263319 62.974,15.3066684 62.974,14.952 L62.974,7.294 Z M66.908,10.164 L68.966,10.164 L68.966,14.21 C68.966,14.7140025 69.0359993,15.0593324 69.176,15.246 C69.3160007,15.4326676 69.5353318,15.526 69.834,15.526 C70.0953346,15.526 70.3146658,15.4653339 70.492,15.344 C70.6693342,15.2226661 70.8606656,15.026668 71.066,14.756 L71.066,10.164 L73.124,10.164 L73.124,17.108 L71.444,17.108 L71.29,16.142 L71.248,16.142 C70.9493318,16.4966684 70.6296684,16.7743323 70.289,16.975 C69.9483316,17.1756677 69.5400024,17.276 69.064,17.276 C68.3079962,17.276 67.7596684,17.0286691 67.419,16.534 C67.0783316,16.0393309 66.908,15.3533377 66.908,14.476 L66.908,10.164 Z M75.21,11.774 L74.258,11.774 L74.258,10.248 L75.322,10.164 L75.56,8.316 L77.268,8.316 L77.268,10.164 L78.934,10.164 L78.934,11.774 L77.268,11.774 L77.268,14.56 C77.268,14.952002 77.3496658,15.2343325 77.513,15.407 C77.6763342,15.5796675 77.893332,15.666 78.164,15.666 C78.2760006,15.666 78.3903327,15.6520001 78.507,15.624 C78.6236673,15.5959999 78.7286662,15.5633335 78.822,15.526 L79.144,17.024 C78.9573324,17.0800003 78.7380013,17.1359997 78.486,17.192 C78.2339987,17.2480003 77.9400017,17.276 77.604,17.276 C77.1746645,17.276 76.8083348,17.2106673 76.505,17.08 C76.2016651,16.9493327 75.9543343,16.7673345 75.763,16.534 C75.5716657,16.3006655 75.4316671,16.018335 75.343,15.687 C75.2543329,15.355665 75.21,14.9893353 75.21,14.588 L75.21,11.774 Z M81.314,9.142 C80.9686649,9.142 80.6840011,9.04166767 80.46,8.841 C80.2359989,8.64033233 80.124,8.38133492 80.124,8.064 C80.124,7.74666508 80.2359989,7.49000098 80.46,7.294 C80.6840011,7.09799902 80.9686649,7 81.314,7 C81.6686684,7 81.9556656,7.09799902 82.175,7.294 C82.3943344,7.49000098 82.504,7.74666508 82.504,8.064 C82.504,8.38133492 82.3943344,8.64033233 82.175,8.841 C81.9556656,9.04166767 81.6686684,9.142 81.314,9.142 Z M80.292,10.164 L82.35,10.164 L82.35,17.108 L80.292,17.108 L80.292,10.164 Z M83.75,13.636 C83.75,13.0573304 83.8433324,12.5416689 84.03,12.089 C84.2166676,11.6363311 84.4663318,11.2560015 84.779,10.948 C85.0916682,10.6399985 85.4533313,10.4043342 85.864,10.241 C86.2746687,10.0776658 86.6993311,9.996 87.138,9.996 C87.5766689,9.996 87.998998,10.0776658 88.405,10.241 C88.811002,10.4043342 89.1703318,10.6399985 89.483,10.948 C89.7956682,11.2560015 90.0453324,11.6363311 90.232,12.089 C90.4186676,12.5416689 90.512,13.0573304 90.512,13.636 C90.512,14.2146696 90.4186676,14.7303311 90.232,15.183 C90.0453324,15.6356689 89.7956682,16.0159985 89.483,16.324 C89.1703318,16.6320015 88.811002,16.8676659 88.405,17.031 C87.998998,17.1943341 87.5766689,17.276 87.138,17.276 C86.6993311,17.276 86.2746687,17.1943341 85.864,17.031 C85.4533313,16.8676659 85.0916682,16.6320015 84.779,16.324 C84.4663318,16.0159985 84.2166676,15.6356689 84.03,15.183 C83.8433324,14.7303311 83.75,14.2146696 83.75,13.636 Z M85.864,13.636 C85.864,14.2426697 85.9689989,14.7233316 86.179,15.078 C86.389001,15.4326684 86.7086645,15.61 87.138,15.61 C87.5580021,15.61 87.8753323,15.4326684 88.09,15.078 C88.3046677,14.7233316 88.412,14.2426697 88.412,13.636 C88.412,13.0293303 88.3046677,12.5486684 88.09,12.194 C87.8753323,11.8393316 87.5580021,11.662 87.138,11.662 C86.7086645,11.662 86.389001,11.8393316 86.179,12.194 C85.9689989,12.5486684 85.864,13.0293303 85.864,13.636 Z M91.926,10.164 L93.606,10.164 L93.746,11.046 L93.802,11.046 C94.1006682,10.7659986 94.4273316,10.521001 94.782,10.311 C95.1366684,10.100999 95.5519976,9.996 96.028,9.996 C96.7840038,9.996 97.3323316,10.2433309 97.673,10.738 C98.0136684,11.2326691 98.184,11.9186623 98.184,12.796 L98.184,17.108 L96.126,17.108 L96.126,13.062 C96.126,12.5579975 96.058334,12.2126676 95.923,12.026 C95.787666,11.8393324 95.5706682,11.746 95.272,11.746 C95.0106654,11.746 94.7866676,11.8043328 94.6,11.921 C94.4133324,12.0376672 94.2080011,12.2033323 93.984,12.418 L93.984,17.108 L91.926,17.108 L91.926,10.164 Z M100.242,15.022 C100.559335,15.2646679 100.862665,15.4466661 101.152,15.568 C101.441335,15.6893339 101.735332,15.75 102.034,15.75 C102.342002,15.75 102.565999,15.6986672 102.706,15.596 C102.846001,15.4933328 102.916,15.3486676 102.916,15.162 C102.916,15.0499994 102.876334,14.9496671 102.797,14.861 C102.717666,14.7723329 102.610334,14.690667 102.475,14.616 C102.339666,14.541333 102.188001,14.473667 102.02,14.413 C101.851999,14.352333 101.679334,14.284667 101.502,14.21 C101.287332,14.1259996 101.072668,14.0280006 100.858,13.916 C100.643332,13.8039994 100.447334,13.6663341 100.27,13.503 C100.092666,13.3396658 99.9480006,13.1483344 99.836,12.929 C99.7239994,12.7096656 99.668,12.4553348 99.668,12.166 C99.668,11.8486651 99.7309994,11.554668 99.857,11.284 C99.9830006,11.013332 100.162665,10.7846676 100.396,10.598 C100.629334,10.4113324 100.909332,10.2643339 101.236,10.157 C101.562668,10.0496661 101.926665,9.996 102.328,9.996 C102.860003,9.996 103.326665,10.0869991 103.728,10.269 C104.129335,10.4510009 104.479332,10.6539989 104.778,10.878 L103.854,12.11 C103.601999,11.9233324 103.354668,11.7786672 103.112,11.676 C102.869332,11.5733328 102.626668,11.522 102.384,11.522 C101.861331,11.522 101.6,11.7039982 101.6,12.068 C101.6,12.1800006 101.637333,12.2756663 101.712,12.355 C101.786667,12.4343337 101.886999,12.5066663 102.013,12.572 C102.139001,12.6373337 102.283666,12.700333 102.447,12.761 C102.610334,12.821667 102.780666,12.8846663 102.958,12.95 C103.182001,13.0340004 103.403666,13.1296661 103.623,13.237 C103.842334,13.3443339 104.042999,13.4773325 104.225,13.636 C104.407001,13.7946675 104.553999,13.9883322 104.666,14.217 C104.778001,14.4456678 104.834,14.7186651 104.834,15.036 C104.834,15.3533349 104.773334,15.647332 104.652,15.918 C104.530666,16.188668 104.348668,16.4243323 104.106,16.625 C103.863332,16.8256677 103.564668,16.9843328 103.21,17.101 C102.855332,17.2176673 102.444669,17.276 101.978,17.276 C101.520664,17.276 101.051669,17.1873342 100.571,17.01 C100.090331,16.8326658 99.6726684,16.5993348 99.318,16.31 L100.242,15.022 Z" id="Solutions" fill="#FFFFFF"></path>
                <path d="M47.5,0.5 L104.508771,0.5" id="Line" stroke="#FFFFFF" stroke-linecap="square"></path>
                <path d="M47.5,24.5 L104.508771,24.5" id="Line" stroke="#FFFFFF" stroke-linecap="square"></path>
                <path d="M0.5,50.5 L151.513244,50.5" id="Line" stroke="#FFFFFF" stroke-width="3" stroke-linecap="square"></path>
                <path d="M36.5,61.5 L115.556942,61.5" id="Line" stroke="#FFFFFF" stroke-width="3" stroke-linecap="square"></path>
            </g>
            <rect id="Rectangle-3" fill="#5F5F5F" x="203" y="247" width="194" height="240"></rect>
            <g id="Group-4" transform="translate(224.000000, 336.000000)">
                <path d="M48.176,14.546 C48.5026683,14.8260014 48.8643314,15.0546658 49.261,15.232 C49.6576686,15.4093342 50.0473314,15.498 50.43,15.498 C50.8593355,15.498 51.178999,15.4186675 51.389,15.26 C51.599001,15.1013325 51.704,14.886668 51.704,14.616 C51.704,14.4759993 51.673667,14.3546672 51.613,14.252 C51.552333,14.1493328 51.4636673,14.0583337 51.347,13.979 C51.2303328,13.8996663 51.0903341,13.8250003 50.927,13.755 L50.388,13.524 L49.198,13.02 C48.9646655,12.9266662 48.7383344,12.8053341 48.519,12.656 C48.2996656,12.5066659 48.1036675,12.3316677 47.931,12.131 C47.7583325,11.9303323 47.6206672,11.6970013 47.518,11.431 C47.4153328,11.1649987 47.364,10.8640017 47.364,10.528 C47.364,10.1546648 47.4433325,9.80233499 47.602,9.471 C47.7606675,9.13966501 47.9846652,8.85033457 48.274,8.603 C48.5633348,8.35566543 48.9063314,8.1620007 49.303,8.022 C49.6996686,7.8819993 50.1359976,7.812 50.612,7.812 C51.1440027,7.812 51.6689974,7.91466564 52.187,8.12 C52.7050026,8.32533436 53.159998,8.62399804 53.552,9.016 L52.502,10.318 C52.2033318,10.0846655 51.9046682,9.90500063 51.606,9.779 C51.3073318,9.65299937 50.9760018,9.59 50.612,9.59 C50.2573316,9.59 49.975001,9.66233261 49.765,9.807 C49.5549989,9.95166739 49.45,10.1546654 49.45,10.416 C49.45,10.5560007 49.4849996,10.6749995 49.555,10.773 C49.6250004,10.8710005 49.7229994,10.9596663 49.849,11.039 C49.9750006,11.1183337 50.1219992,11.1929997 50.29,11.263 C50.4580008,11.3330004 50.639999,11.4099996 50.836,11.494 L52.012,11.97 C52.5720028,12.1940011 53.0129984,12.501998 53.335,12.894 C53.6570016,13.286002 53.818,13.8039968 53.818,14.448 C53.818,14.8306686 53.7410008,15.1923316 53.587,15.533 C53.4329992,15.8736684 53.2090015,16.1723321 52.915,16.429 C52.6209985,16.685668 52.2593355,16.8909992 51.83,17.045 C51.4006645,17.1990008 50.915336,17.276 50.374,17.276 C49.7766637,17.276 49.1816696,17.1663344 48.589,16.947 C47.9963304,16.7276656 47.466669,16.3986689 47,15.96 L48.176,14.546 Z M54.798,13.636 C54.798,13.0573304 54.8913324,12.5416689 55.078,12.089 C55.2646676,11.6363311 55.5143318,11.2560015 55.827,10.948 C56.1396682,10.6399985 56.5013313,10.4043342 56.912,10.241 C57.3226687,10.0776658 57.7473311,9.996 58.186,9.996 C58.6246689,9.996 59.046998,10.0776658 59.453,10.241 C59.859002,10.4043342 60.2183318,10.6399985 60.531,10.948 C60.8436682,11.2560015 61.0933324,11.6363311 61.28,12.089 C61.4666676,12.5416689 61.56,13.0573304 61.56,13.636 C61.56,14.2146696 61.4666676,14.7303311 61.28,15.183 C61.0933324,15.6356689 60.8436682,16.0159985 60.531,16.324 C60.2183318,16.6320015 59.859002,16.8676659 59.453,17.031 C59.046998,17.1943341 58.6246689,17.276 58.186,17.276 C57.7473311,17.276 57.3226687,17.1943341 56.912,17.031 C56.5013313,16.8676659 56.1396682,16.6320015 55.827,16.324 C55.5143318,16.0159985 55.2646676,15.6356689 55.078,15.183 C54.8913324,14.7303311 54.798,14.2146696 54.798,13.636 Z M56.912,13.636 C56.912,14.2426697 57.0169989,14.7233316 57.227,15.078 C57.437001,15.4326684 57.7566645,15.61 58.186,15.61 C58.6060021,15.61 58.9233323,15.4326684 59.138,15.078 C59.3526677,14.7233316 59.46,14.2426697 59.46,13.636 C59.46,13.0293303 59.3526677,12.5486684 59.138,12.194 C58.9233323,11.8393316 58.6060021,11.662 58.186,11.662 C57.7566645,11.662 57.437001,11.8393316 57.227,12.194 C57.0169989,12.5486684 56.912,13.0293303 56.912,13.636 Z M62.974,7.294 L65.032,7.294 L65.032,15.036 C65.032,15.2506677 65.0716663,15.3999996 65.151,15.484 C65.2303337,15.5680004 65.3119996,15.61 65.396,15.61 L65.515,15.61 C65.5476668,15.61 65.5919997,15.6006668 65.648,15.582 L65.9,17.108 C65.7879994,17.1546669 65.6456675,17.1943332 65.473,17.227 C65.3003325,17.2596668 65.0973345,17.276 64.864,17.276 C64.5093316,17.276 64.2106679,17.2200006 63.968,17.108 C63.7253321,16.9959994 63.5316674,16.8396677 63.387,16.639 C63.2423326,16.4383323 63.1373337,16.1956681 63.072,15.911 C63.0066663,15.6263319 62.974,15.3066684 62.974,14.952 L62.974,7.294 Z M66.908,10.164 L68.966,10.164 L68.966,14.21 C68.966,14.7140025 69.0359993,15.0593324 69.176,15.246 C69.3160007,15.4326676 69.5353318,15.526 69.834,15.526 C70.0953346,15.526 70.3146658,15.4653339 70.492,15.344 C70.6693342,15.2226661 70.8606656,15.026668 71.066,14.756 L71.066,10.164 L73.124,10.164 L73.124,17.108 L71.444,17.108 L71.29,16.142 L71.248,16.142 C70.9493318,16.4966684 70.6296684,16.7743323 70.289,16.975 C69.9483316,17.1756677 69.5400024,17.276 69.064,17.276 C68.3079962,17.276 67.7596684,17.0286691 67.419,16.534 C67.0783316,16.0393309 66.908,15.3533377 66.908,14.476 L66.908,10.164 Z M75.21,11.774 L74.258,11.774 L74.258,10.248 L75.322,10.164 L75.56,8.316 L77.268,8.316 L77.268,10.164 L78.934,10.164 L78.934,11.774 L77.268,11.774 L77.268,14.56 C77.268,14.952002 77.3496658,15.2343325 77.513,15.407 C77.6763342,15.5796675 77.893332,15.666 78.164,15.666 C78.2760006,15.666 78.3903327,15.6520001 78.507,15.624 C78.6236673,15.5959999 78.7286662,15.5633335 78.822,15.526 L79.144,17.024 C78.9573324,17.0800003 78.7380013,17.1359997 78.486,17.192 C78.2339987,17.2480003 77.9400017,17.276 77.604,17.276 C77.1746645,17.276 76.8083348,17.2106673 76.505,17.08 C76.2016651,16.9493327 75.9543343,16.7673345 75.763,16.534 C75.5716657,16.3006655 75.4316671,16.018335 75.343,15.687 C75.2543329,15.355665 75.21,14.9893353 75.21,14.588 L75.21,11.774 Z M81.314,9.142 C80.9686649,9.142 80.6840011,9.04166767 80.46,8.841 C80.2359989,8.64033233 80.124,8.38133492 80.124,8.064 C80.124,7.74666508 80.2359989,7.49000098 80.46,7.294 C80.6840011,7.09799902 80.9686649,7 81.314,7 C81.6686684,7 81.9556656,7.09799902 82.175,7.294 C82.3943344,7.49000098 82.504,7.74666508 82.504,8.064 C82.504,8.38133492 82.3943344,8.64033233 82.175,8.841 C81.9556656,9.04166767 81.6686684,9.142 81.314,9.142 Z M80.292,10.164 L82.35,10.164 L82.35,17.108 L80.292,17.108 L80.292,10.164 Z M83.75,13.636 C83.75,13.0573304 83.8433324,12.5416689 84.03,12.089 C84.2166676,11.6363311 84.4663318,11.2560015 84.779,10.948 C85.0916682,10.6399985 85.4533313,10.4043342 85.864,10.241 C86.2746687,10.0776658 86.6993311,9.996 87.138,9.996 C87.5766689,9.996 87.998998,10.0776658 88.405,10.241 C88.811002,10.4043342 89.1703318,10.6399985 89.483,10.948 C89.7956682,11.2560015 90.0453324,11.6363311 90.232,12.089 C90.4186676,12.5416689 90.512,13.0573304 90.512,13.636 C90.512,14.2146696 90.4186676,14.7303311 90.232,15.183 C90.0453324,15.6356689 89.7956682,16.0159985 89.483,16.324 C89.1703318,16.6320015 88.811002,16.8676659 88.405,17.031 C87.998998,17.1943341 87.5766689,17.276 87.138,17.276 C86.6993311,17.276 86.2746687,17.1943341 85.864,17.031 C85.4533313,16.8676659 85.0916682,16.6320015 84.779,16.324 C84.4663318,16.0159985 84.2166676,15.6356689 84.03,15.183 C83.8433324,14.7303311 83.75,14.2146696 83.75,13.636 Z M85.864,13.636 C85.864,14.2426697 85.9689989,14.7233316 86.179,15.078 C86.389001,15.4326684 86.7086645,15.61 87.138,15.61 C87.5580021,15.61 87.8753323,15.4326684 88.09,15.078 C88.3046677,14.7233316 88.412,14.2426697 88.412,13.636 C88.412,13.0293303 88.3046677,12.5486684 88.09,12.194 C87.8753323,11.8393316 87.5580021,11.662 87.138,11.662 C86.7086645,11.662 86.389001,11.8393316 86.179,12.194 C85.9689989,12.5486684 85.864,13.0293303 85.864,13.636 Z M91.926,10.164 L93.606,10.164 L93.746,11.046 L93.802,11.046 C94.1006682,10.7659986 94.4273316,10.521001 94.782,10.311 C95.1366684,10.100999 95.5519976,9.996 96.028,9.996 C96.7840038,9.996 97.3323316,10.2433309 97.673,10.738 C98.0136684,11.2326691 98.184,11.9186623 98.184,12.796 L98.184,17.108 L96.126,17.108 L96.126,13.062 C96.126,12.5579975 96.058334,12.2126676 95.923,12.026 C95.787666,11.8393324 95.5706682,11.746 95.272,11.746 C95.0106654,11.746 94.7866676,11.8043328 94.6,11.921 C94.4133324,12.0376672 94.2080011,12.2033323 93.984,12.418 L93.984,17.108 L91.926,17.108 L91.926,10.164 Z M100.242,15.022 C100.559335,15.2646679 100.862665,15.4466661 101.152,15.568 C101.441335,15.6893339 101.735332,15.75 102.034,15.75 C102.342002,15.75 102.565999,15.6986672 102.706,15.596 C102.846001,15.4933328 102.916,15.3486676 102.916,15.162 C102.916,15.0499994 102.876334,14.9496671 102.797,14.861 C102.717666,14.7723329 102.610334,14.690667 102.475,14.616 C102.339666,14.541333 102.188001,14.473667 102.02,14.413 C101.851999,14.352333 101.679334,14.284667 101.502,14.21 C101.287332,14.1259996 101.072668,14.0280006 100.858,13.916 C100.643332,13.8039994 100.447334,13.6663341 100.27,13.503 C100.092666,13.3396658 99.9480006,13.1483344 99.836,12.929 C99.7239994,12.7096656 99.668,12.4553348 99.668,12.166 C99.668,11.8486651 99.7309994,11.554668 99.857,11.284 C99.9830006,11.013332 100.162665,10.7846676 100.396,10.598 C100.629334,10.4113324 100.909332,10.2643339 101.236,10.157 C101.562668,10.0496661 101.926665,9.996 102.328,9.996 C102.860003,9.996 103.326665,10.0869991 103.728,10.269 C104.129335,10.4510009 104.479332,10.6539989 104.778,10.878 L103.854,12.11 C103.601999,11.9233324 103.354668,11.7786672 103.112,11.676 C102.869332,11.5733328 102.626668,11.522 102.384,11.522 C101.861331,11.522 101.6,11.7039982 101.6,12.068 C101.6,12.1800006 101.637333,12.2756663 101.712,12.355 C101.786667,12.4343337 101.886999,12.5066663 102.013,12.572 C102.139001,12.6373337 102.283666,12.700333 102.447,12.761 C102.610334,12.821667 102.780666,12.8846663 102.958,12.95 C103.182001,13.0340004 103.403666,13.1296661 103.623,13.237 C103.842334,13.3443339 104.042999,13.4773325 104.225,13.636 C104.407001,13.7946675 104.553999,13.9883322 104.666,14.217 C104.778001,14.4456678 104.834,14.7186651 104.834,15.036 C104.834,15.3533349 104.773334,15.647332 104.652,15.918 C104.530666,16.188668 104.348668,16.4243323 104.106,16.625 C103.863332,16.8256677 103.564668,16.9843328 103.21,17.101 C102.855332,17.2176673 102.444669,17.276 101.978,17.276 C101.520664,17.276 101.051669,17.1873342 100.571,17.01 C100.090331,16.8326658 99.6726684,16.5993348 99.318,16.31 L100.242,15.022 Z" id="Solutions" fill="#FFFFFF"></path>
                <path d="M47.5,0.5 L104.508771,0.5" id="Line" stroke="#FFFFFF" stroke-linecap="square"></path>
                <path d="M47.5,24.5 L104.508771,24.5" id="Line" stroke="#FFFFFF" stroke-linecap="square"></path>
                <path d="M0.5,50.5 L151.513244,50.5" id="Line" stroke="#FFFFFF" stroke-width="3" stroke-linecap="square"></path>
                <path d="M36.5,61.5 L115.556942,61.5" id="Line" stroke="#FFFFFF" stroke-width="3" stroke-linecap="square"></path>
            </g>
            <polygon id="Path-5" fill="#4990E2" points="362.646602 247 339 247 396.317416 305.317416 396.317416 282.350674"></polygon>
            <path d="M134.5,143.5 L465.622334,143.5" id="Line" stroke="#979797" stroke-width="3" stroke-linecap="square"></path>
            <path d="M134.5,157.5 L465.622334,157.5" id="Line" stroke="#979797" stroke-width="3" stroke-linecap="square"></path>
            <path d="M134.5,171.5 L465.622334,171.5" id="Line" stroke="#979797" stroke-width="3" stroke-linecap="square"></path>
            <path d="M134.5,185.5 L465.622334,185.5" id="Line" stroke="#979797" stroke-width="3" stroke-linecap="square"></path>
            <path d="M134.5,199.5 L465.622334,199.5" id="Line" stroke="#979797" stroke-width="3" stroke-linecap="square"></path>
            <rect id="Rectangle-3" fill="#5F5F5F" x="406" y="247" width="194" height="240"></rect>
            <g id="Group-4" transform="translate(427.000000, 336.000000)">
                <path d="M48.176,14.546 C48.5026683,14.8260014 48.8643314,15.0546658 49.261,15.232 C49.6576686,15.4093342 50.0473314,15.498 50.43,15.498 C50.8593355,15.498 51.178999,15.4186675 51.389,15.26 C51.599001,15.1013325 51.704,14.886668 51.704,14.616 C51.704,14.4759993 51.673667,14.3546672 51.613,14.252 C51.552333,14.1493328 51.4636673,14.0583337 51.347,13.979 C51.2303328,13.8996663 51.0903341,13.8250003 50.927,13.755 L50.388,13.524 L49.198,13.02 C48.9646655,12.9266662 48.7383344,12.8053341 48.519,12.656 C48.2996656,12.5066659 48.1036675,12.3316677 47.931,12.131 C47.7583325,11.9303323 47.6206672,11.6970013 47.518,11.431 C47.4153328,11.1649987 47.364,10.8640017 47.364,10.528 C47.364,10.1546648 47.4433325,9.80233499 47.602,9.471 C47.7606675,9.13966501 47.9846652,8.85033457 48.274,8.603 C48.5633348,8.35566543 48.9063314,8.1620007 49.303,8.022 C49.6996686,7.8819993 50.1359976,7.812 50.612,7.812 C51.1440027,7.812 51.6689974,7.91466564 52.187,8.12 C52.7050026,8.32533436 53.159998,8.62399804 53.552,9.016 L52.502,10.318 C52.2033318,10.0846655 51.9046682,9.90500063 51.606,9.779 C51.3073318,9.65299937 50.9760018,9.59 50.612,9.59 C50.2573316,9.59 49.975001,9.66233261 49.765,9.807 C49.5549989,9.95166739 49.45,10.1546654 49.45,10.416 C49.45,10.5560007 49.4849996,10.6749995 49.555,10.773 C49.6250004,10.8710005 49.7229994,10.9596663 49.849,11.039 C49.9750006,11.1183337 50.1219992,11.1929997 50.29,11.263 C50.4580008,11.3330004 50.639999,11.4099996 50.836,11.494 L52.012,11.97 C52.5720028,12.1940011 53.0129984,12.501998 53.335,12.894 C53.6570016,13.286002 53.818,13.8039968 53.818,14.448 C53.818,14.8306686 53.7410008,15.1923316 53.587,15.533 C53.4329992,15.8736684 53.2090015,16.1723321 52.915,16.429 C52.6209985,16.685668 52.2593355,16.8909992 51.83,17.045 C51.4006645,17.1990008 50.915336,17.276 50.374,17.276 C49.7766637,17.276 49.1816696,17.1663344 48.589,16.947 C47.9963304,16.7276656 47.466669,16.3986689 47,15.96 L48.176,14.546 Z M54.798,13.636 C54.798,13.0573304 54.8913324,12.5416689 55.078,12.089 C55.2646676,11.6363311 55.5143318,11.2560015 55.827,10.948 C56.1396682,10.6399985 56.5013313,10.4043342 56.912,10.241 C57.3226687,10.0776658 57.7473311,9.996 58.186,9.996 C58.6246689,9.996 59.046998,10.0776658 59.453,10.241 C59.859002,10.4043342 60.2183318,10.6399985 60.531,10.948 C60.8436682,11.2560015 61.0933324,11.6363311 61.28,12.089 C61.4666676,12.5416689 61.56,13.0573304 61.56,13.636 C61.56,14.2146696 61.4666676,14.7303311 61.28,15.183 C61.0933324,15.6356689 60.8436682,16.0159985 60.531,16.324 C60.2183318,16.6320015 59.859002,16.8676659 59.453,17.031 C59.046998,17.1943341 58.6246689,17.276 58.186,17.276 C57.7473311,17.276 57.3226687,17.1943341 56.912,17.031 C56.5013313,16.8676659 56.1396682,16.6320015 55.827,16.324 C55.5143318,16.0159985 55.2646676,15.6356689 55.078,15.183 C54.8913324,14.7303311 54.798,14.2146696 54.798,13.636 Z M56.912,13.636 C56.912,14.2426697 57.0169989,14.7233316 57.227,15.078 C57.437001,15.4326684 57.7566645,15.61 58.186,15.61 C58.6060021,15.61 58.9233323,15.4326684 59.138,15.078 C59.3526677,14.7233316 59.46,14.2426697 59.46,13.636 C59.46,13.0293303 59.3526677,12.5486684 59.138,12.194 C58.9233323,11.8393316 58.6060021,11.662 58.186,11.662 C57.7566645,11.662 57.437001,11.8393316 57.227,12.194 C57.0169989,12.5486684 56.912,13.0293303 56.912,13.636 Z M62.974,7.294 L65.032,7.294 L65.032,15.036 C65.032,15.2506677 65.0716663,15.3999996 65.151,15.484 C65.2303337,15.5680004 65.3119996,15.61 65.396,15.61 L65.515,15.61 C65.5476668,15.61 65.5919997,15.6006668 65.648,15.582 L65.9,17.108 C65.7879994,17.1546669 65.6456675,17.1943332 65.473,17.227 C65.3003325,17.2596668 65.0973345,17.276 64.864,17.276 C64.5093316,17.276 64.2106679,17.2200006 63.968,17.108 C63.7253321,16.9959994 63.5316674,16.8396677 63.387,16.639 C63.2423326,16.4383323 63.1373337,16.1956681 63.072,15.911 C63.0066663,15.6263319 62.974,15.3066684 62.974,14.952 L62.974,7.294 Z M66.908,10.164 L68.966,10.164 L68.966,14.21 C68.966,14.7140025 69.0359993,15.0593324 69.176,15.246 C69.3160007,15.4326676 69.5353318,15.526 69.834,15.526 C70.0953346,15.526 70.3146658,15.4653339 70.492,15.344 C70.6693342,15.2226661 70.8606656,15.026668 71.066,14.756 L71.066,10.164 L73.124,10.164 L73.124,17.108 L71.444,17.108 L71.29,16.142 L71.248,16.142 C70.9493318,16.4966684 70.6296684,16.7743323 70.289,16.975 C69.9483316,17.1756677 69.5400024,17.276 69.064,17.276 C68.3079962,17.276 67.7596684,17.0286691 67.419,16.534 C67.0783316,16.0393309 66.908,15.3533377 66.908,14.476 L66.908,10.164 Z M75.21,11.774 L74.258,11.774 L74.258,10.248 L75.322,10.164 L75.56,8.316 L77.268,8.316 L77.268,10.164 L78.934,10.164 L78.934,11.774 L77.268,11.774 L77.268,14.56 C77.268,14.952002 77.3496658,15.2343325 77.513,15.407 C77.6763342,15.5796675 77.893332,15.666 78.164,15.666 C78.2760006,15.666 78.3903327,15.6520001 78.507,15.624 C78.6236673,15.5959999 78.7286662,15.5633335 78.822,15.526 L79.144,17.024 C78.9573324,17.0800003 78.7380013,17.1359997 78.486,17.192 C78.2339987,17.2480003 77.9400017,17.276 77.604,17.276 C77.1746645,17.276 76.8083348,17.2106673 76.505,17.08 C76.2016651,16.9493327 75.9543343,16.7673345 75.763,16.534 C75.5716657,16.3006655 75.4316671,16.018335 75.343,15.687 C75.2543329,15.355665 75.21,14.9893353 75.21,14.588 L75.21,11.774 Z M81.314,9.142 C80.9686649,9.142 80.6840011,9.04166767 80.46,8.841 C80.2359989,8.64033233 80.124,8.38133492 80.124,8.064 C80.124,7.74666508 80.2359989,7.49000098 80.46,7.294 C80.6840011,7.09799902 80.9686649,7 81.314,7 C81.6686684,7 81.9556656,7.09799902 82.175,7.294 C82.3943344,7.49000098 82.504,7.74666508 82.504,8.064 C82.504,8.38133492 82.3943344,8.64033233 82.175,8.841 C81.9556656,9.04166767 81.6686684,9.142 81.314,9.142 Z M80.292,10.164 L82.35,10.164 L82.35,17.108 L80.292,17.108 L80.292,10.164 Z M83.75,13.636 C83.75,13.0573304 83.8433324,12.5416689 84.03,12.089 C84.2166676,11.6363311 84.4663318,11.2560015 84.779,10.948 C85.0916682,10.6399985 85.4533313,10.4043342 85.864,10.241 C86.2746687,10.0776658 86.6993311,9.996 87.138,9.996 C87.5766689,9.996 87.998998,10.0776658 88.405,10.241 C88.811002,10.4043342 89.1703318,10.6399985 89.483,10.948 C89.7956682,11.2560015 90.0453324,11.6363311 90.232,12.089 C90.4186676,12.5416689 90.512,13.0573304 90.512,13.636 C90.512,14.2146696 90.4186676,14.7303311 90.232,15.183 C90.0453324,15.6356689 89.7956682,16.0159985 89.483,16.324 C89.1703318,16.6320015 88.811002,16.8676659 88.405,17.031 C87.998998,17.1943341 87.5766689,17.276 87.138,17.276 C86.6993311,17.276 86.2746687,17.1943341 85.864,17.031 C85.4533313,16.8676659 85.0916682,16.6320015 84.779,16.324 C84.4663318,16.0159985 84.2166676,15.6356689 84.03,15.183 C83.8433324,14.7303311 83.75,14.2146696 83.75,13.636 Z M85.864,13.636 C85.864,14.2426697 85.9689989,14.7233316 86.179,15.078 C86.389001,15.4326684 86.7086645,15.61 87.138,15.61 C87.5580021,15.61 87.8753323,15.4326684 88.09,15.078 C88.3046677,14.7233316 88.412,14.2426697 88.412,13.636 C88.412,13.0293303 88.3046677,12.5486684 88.09,12.194 C87.8753323,11.8393316 87.5580021,11.662 87.138,11.662 C86.7086645,11.662 86.389001,11.8393316 86.179,12.194 C85.9689989,12.5486684 85.864,13.0293303 85.864,13.636 Z M91.926,10.164 L93.606,10.164 L93.746,11.046 L93.802,11.046 C94.1006682,10.7659986 94.4273316,10.521001 94.782,10.311 C95.1366684,10.100999 95.5519976,9.996 96.028,9.996 C96.7840038,9.996 97.3323316,10.2433309 97.673,10.738 C98.0136684,11.2326691 98.184,11.9186623 98.184,12.796 L98.184,17.108 L96.126,17.108 L96.126,13.062 C96.126,12.5579975 96.058334,12.2126676 95.923,12.026 C95.787666,11.8393324 95.5706682,11.746 95.272,11.746 C95.0106654,11.746 94.7866676,11.8043328 94.6,11.921 C94.4133324,12.0376672 94.2080011,12.2033323 93.984,12.418 L93.984,17.108 L91.926,17.108 L91.926,10.164 Z M100.242,15.022 C100.559335,15.2646679 100.862665,15.4466661 101.152,15.568 C101.441335,15.6893339 101.735332,15.75 102.034,15.75 C102.342002,15.75 102.565999,15.6986672 102.706,15.596 C102.846001,15.4933328 102.916,15.3486676 102.916,15.162 C102.916,15.0499994 102.876334,14.9496671 102.797,14.861 C102.717666,14.7723329 102.610334,14.690667 102.475,14.616 C102.339666,14.541333 102.188001,14.473667 102.02,14.413 C101.851999,14.352333 101.679334,14.284667 101.502,14.21 C101.287332,14.1259996 101.072668,14.0280006 100.858,13.916 C100.643332,13.8039994 100.447334,13.6663341 100.27,13.503 C100.092666,13.3396658 99.9480006,13.1483344 99.836,12.929 C99.7239994,12.7096656 99.668,12.4553348 99.668,12.166 C99.668,11.8486651 99.7309994,11.554668 99.857,11.284 C99.9830006,11.013332 100.162665,10.7846676 100.396,10.598 C100.629334,10.4113324 100.909332,10.2643339 101.236,10.157 C101.562668,10.0496661 101.926665,9.996 102.328,9.996 C102.860003,9.996 103.326665,10.0869991 103.728,10.269 C104.129335,10.4510009 104.479332,10.6539989 104.778,10.878 L103.854,12.11 C103.601999,11.9233324 103.354668,11.7786672 103.112,11.676 C102.869332,11.5733328 102.626668,11.522 102.384,11.522 C101.861331,11.522 101.6,11.7039982 101.6,12.068 C101.6,12.1800006 101.637333,12.2756663 101.712,12.355 C101.786667,12.4343337 101.886999,12.5066663 102.013,12.572 C102.139001,12.6373337 102.283666,12.700333 102.447,12.761 C102.610334,12.821667 102.780666,12.8846663 102.958,12.95 C103.182001,13.0340004 103.403666,13.1296661 103.623,13.237 C103.842334,13.3443339 104.042999,13.4773325 104.225,13.636 C104.407001,13.7946675 104.553999,13.9883322 104.666,14.217 C104.778001,14.4456678 104.834,14.7186651 104.834,15.036 C104.834,15.3533349 104.773334,15.647332 104.652,15.918 C104.530666,16.188668 104.348668,16.4243323 104.106,16.625 C103.863332,16.8256677 103.564668,16.9843328 103.21,17.101 C102.855332,17.2176673 102.444669,17.276 101.978,17.276 C101.520664,17.276 101.051669,17.1873342 100.571,17.01 C100.090331,16.8326658 99.6726684,16.5993348 99.318,16.31 L100.242,15.022 Z" id="Solutions" fill="#FFFFFF"></path>
                <path d="M47.5,0.5 L104.508771,0.5" id="Line" stroke="#FFFFFF" stroke-linecap="square"></path>
                <path d="M47.5,24.5 L104.508771,24.5" id="Line" stroke="#FFFFFF" stroke-linecap="square"></path>
                <path d="M0.5,50.5 L151.513244,50.5" id="Line" stroke="#FFFFFF" stroke-width="3" stroke-linecap="square"></path>
                <path d="M36.5,61.5 L115.556942,61.5" id="Line" stroke="#FFFFFF" stroke-width="3" stroke-linecap="square"></path>
            </g>
            <rect id="Rectangle-3" fill="#5F5F5F" x="406" y="247" width="194" height="240"></rect>
            <g id="Group-4" transform="translate(427.000000, 336.000000)">
                <path d="M48.176,14.546 C48.5026683,14.8260014 48.8643314,15.0546658 49.261,15.232 C49.6576686,15.4093342 50.0473314,15.498 50.43,15.498 C50.8593355,15.498 51.178999,15.4186675 51.389,15.26 C51.599001,15.1013325 51.704,14.886668 51.704,14.616 C51.704,14.4759993 51.673667,14.3546672 51.613,14.252 C51.552333,14.1493328 51.4636673,14.0583337 51.347,13.979 C51.2303328,13.8996663 51.0903341,13.8250003 50.927,13.755 L50.388,13.524 L49.198,13.02 C48.9646655,12.9266662 48.7383344,12.8053341 48.519,12.656 C48.2996656,12.5066659 48.1036675,12.3316677 47.931,12.131 C47.7583325,11.9303323 47.6206672,11.6970013 47.518,11.431 C47.4153328,11.1649987 47.364,10.8640017 47.364,10.528 C47.364,10.1546648 47.4433325,9.80233499 47.602,9.471 C47.7606675,9.13966501 47.9846652,8.85033457 48.274,8.603 C48.5633348,8.35566543 48.9063314,8.1620007 49.303,8.022 C49.6996686,7.8819993 50.1359976,7.812 50.612,7.812 C51.1440027,7.812 51.6689974,7.91466564 52.187,8.12 C52.7050026,8.32533436 53.159998,8.62399804 53.552,9.016 L52.502,10.318 C52.2033318,10.0846655 51.9046682,9.90500063 51.606,9.779 C51.3073318,9.65299937 50.9760018,9.59 50.612,9.59 C50.2573316,9.59 49.975001,9.66233261 49.765,9.807 C49.5549989,9.95166739 49.45,10.1546654 49.45,10.416 C49.45,10.5560007 49.4849996,10.6749995 49.555,10.773 C49.6250004,10.8710005 49.7229994,10.9596663 49.849,11.039 C49.9750006,11.1183337 50.1219992,11.1929997 50.29,11.263 C50.4580008,11.3330004 50.639999,11.4099996 50.836,11.494 L52.012,11.97 C52.5720028,12.1940011 53.0129984,12.501998 53.335,12.894 C53.6570016,13.286002 53.818,13.8039968 53.818,14.448 C53.818,14.8306686 53.7410008,15.1923316 53.587,15.533 C53.4329992,15.8736684 53.2090015,16.1723321 52.915,16.429 C52.6209985,16.685668 52.2593355,16.8909992 51.83,17.045 C51.4006645,17.1990008 50.915336,17.276 50.374,17.276 C49.7766637,17.276 49.1816696,17.1663344 48.589,16.947 C47.9963304,16.7276656 47.466669,16.3986689 47,15.96 L48.176,14.546 Z M54.798,13.636 C54.798,13.0573304 54.8913324,12.5416689 55.078,12.089 C55.2646676,11.6363311 55.5143318,11.2560015 55.827,10.948 C56.1396682,10.6399985 56.5013313,10.4043342 56.912,10.241 C57.3226687,10.0776658 57.7473311,9.996 58.186,9.996 C58.6246689,9.996 59.046998,10.0776658 59.453,10.241 C59.859002,10.4043342 60.2183318,10.6399985 60.531,10.948 C60.8436682,11.2560015 61.0933324,11.6363311 61.28,12.089 C61.4666676,12.5416689 61.56,13.0573304 61.56,13.636 C61.56,14.2146696 61.4666676,14.7303311 61.28,15.183 C61.0933324,15.6356689 60.8436682,16.0159985 60.531,16.324 C60.2183318,16.6320015 59.859002,16.8676659 59.453,17.031 C59.046998,17.1943341 58.6246689,17.276 58.186,17.276 C57.7473311,17.276 57.3226687,17.1943341 56.912,17.031 C56.5013313,16.8676659 56.1396682,16.6320015 55.827,16.324 C55.5143318,16.0159985 55.2646676,15.6356689 55.078,15.183 C54.8913324,14.7303311 54.798,14.2146696 54.798,13.636 Z M56.912,13.636 C56.912,14.2426697 57.0169989,14.7233316 57.227,15.078 C57.437001,15.4326684 57.7566645,15.61 58.186,15.61 C58.6060021,15.61 58.9233323,15.4326684 59.138,15.078 C59.3526677,14.7233316 59.46,14.2426697 59.46,13.636 C59.46,13.0293303 59.3526677,12.5486684 59.138,12.194 C58.9233323,11.8393316 58.6060021,11.662 58.186,11.662 C57.7566645,11.662 57.437001,11.8393316 57.227,12.194 C57.0169989,12.5486684 56.912,13.0293303 56.912,13.636 Z M62.974,7.294 L65.032,7.294 L65.032,15.036 C65.032,15.2506677 65.0716663,15.3999996 65.151,15.484 C65.2303337,15.5680004 65.3119996,15.61 65.396,15.61 L65.515,15.61 C65.5476668,15.61 65.5919997,15.6006668 65.648,15.582 L65.9,17.108 C65.7879994,17.1546669 65.6456675,17.1943332 65.473,17.227 C65.3003325,17.2596668 65.0973345,17.276 64.864,17.276 C64.5093316,17.276 64.2106679,17.2200006 63.968,17.108 C63.7253321,16.9959994 63.5316674,16.8396677 63.387,16.639 C63.2423326,16.4383323 63.1373337,16.1956681 63.072,15.911 C63.0066663,15.6263319 62.974,15.3066684 62.974,14.952 L62.974,7.294 Z M66.908,10.164 L68.966,10.164 L68.966,14.21 C68.966,14.7140025 69.0359993,15.0593324 69.176,15.246 C69.3160007,15.4326676 69.5353318,15.526 69.834,15.526 C70.0953346,15.526 70.3146658,15.4653339 70.492,15.344 C70.6693342,15.2226661 70.8606656,15.026668 71.066,14.756 L71.066,10.164 L73.124,10.164 L73.124,17.108 L71.444,17.108 L71.29,16.142 L71.248,16.142 C70.9493318,16.4966684 70.6296684,16.7743323 70.289,16.975 C69.9483316,17.1756677 69.5400024,17.276 69.064,17.276 C68.3079962,17.276 67.7596684,17.0286691 67.419,16.534 C67.0783316,16.0393309 66.908,15.3533377 66.908,14.476 L66.908,10.164 Z M75.21,11.774 L74.258,11.774 L74.258,10.248 L75.322,10.164 L75.56,8.316 L77.268,8.316 L77.268,10.164 L78.934,10.164 L78.934,11.774 L77.268,11.774 L77.268,14.56 C77.268,14.952002 77.3496658,15.2343325 77.513,15.407 C77.6763342,15.5796675 77.893332,15.666 78.164,15.666 C78.2760006,15.666 78.3903327,15.6520001 78.507,15.624 C78.6236673,15.5959999 78.7286662,15.5633335 78.822,15.526 L79.144,17.024 C78.9573324,17.0800003 78.7380013,17.1359997 78.486,17.192 C78.2339987,17.2480003 77.9400017,17.276 77.604,17.276 C77.1746645,17.276 76.8083348,17.2106673 76.505,17.08 C76.2016651,16.9493327 75.9543343,16.7673345 75.763,16.534 C75.5716657,16.3006655 75.4316671,16.018335 75.343,15.687 C75.2543329,15.355665 75.21,14.9893353 75.21,14.588 L75.21,11.774 Z M81.314,9.142 C80.9686649,9.142 80.6840011,9.04166767 80.46,8.841 C80.2359989,8.64033233 80.124,8.38133492 80.124,8.064 C80.124,7.74666508 80.2359989,7.49000098 80.46,7.294 C80.6840011,7.09799902 80.9686649,7 81.314,7 C81.6686684,7 81.9556656,7.09799902 82.175,7.294 C82.3943344,7.49000098 82.504,7.74666508 82.504,8.064 C82.504,8.38133492 82.3943344,8.64033233 82.175,8.841 C81.9556656,9.04166767 81.6686684,9.142 81.314,9.142 Z M80.292,10.164 L82.35,10.164 L82.35,17.108 L80.292,17.108 L80.292,10.164 Z M83.75,13.636 C83.75,13.0573304 83.8433324,12.5416689 84.03,12.089 C84.2166676,11.6363311 84.4663318,11.2560015 84.779,10.948 C85.0916682,10.6399985 85.4533313,10.4043342 85.864,10.241 C86.2746687,10.0776658 86.6993311,9.996 87.138,9.996 C87.5766689,9.996 87.998998,10.0776658 88.405,10.241 C88.811002,10.4043342 89.1703318,10.6399985 89.483,10.948 C89.7956682,11.2560015 90.0453324,11.6363311 90.232,12.089 C90.4186676,12.5416689 90.512,13.0573304 90.512,13.636 C90.512,14.2146696 90.4186676,14.7303311 90.232,15.183 C90.0453324,15.6356689 89.7956682,16.0159985 89.483,16.324 C89.1703318,16.6320015 88.811002,16.8676659 88.405,17.031 C87.998998,17.1943341 87.5766689,17.276 87.138,17.276 C86.6993311,17.276 86.2746687,17.1943341 85.864,17.031 C85.4533313,16.8676659 85.0916682,16.6320015 84.779,16.324 C84.4663318,16.0159985 84.2166676,15.6356689 84.03,15.183 C83.8433324,14.7303311 83.75,14.2146696 83.75,13.636 Z M85.864,13.636 C85.864,14.2426697 85.9689989,14.7233316 86.179,15.078 C86.389001,15.4326684 86.7086645,15.61 87.138,15.61 C87.5580021,15.61 87.8753323,15.4326684 88.09,15.078 C88.3046677,14.7233316 88.412,14.2426697 88.412,13.636 C88.412,13.0293303 88.3046677,12.5486684 88.09,12.194 C87.8753323,11.8393316 87.5580021,11.662 87.138,11.662 C86.7086645,11.662 86.389001,11.8393316 86.179,12.194 C85.9689989,12.5486684 85.864,13.0293303 85.864,13.636 Z M91.926,10.164 L93.606,10.164 L93.746,11.046 L93.802,11.046 C94.1006682,10.7659986 94.4273316,10.521001 94.782,10.311 C95.1366684,10.100999 95.5519976,9.996 96.028,9.996 C96.7840038,9.996 97.3323316,10.2433309 97.673,10.738 C98.0136684,11.2326691 98.184,11.9186623 98.184,12.796 L98.184,17.108 L96.126,17.108 L96.126,13.062 C96.126,12.5579975 96.058334,12.2126676 95.923,12.026 C95.787666,11.8393324 95.5706682,11.746 95.272,11.746 C95.0106654,11.746 94.7866676,11.8043328 94.6,11.921 C94.4133324,12.0376672 94.2080011,12.2033323 93.984,12.418 L93.984,17.108 L91.926,17.108 L91.926,10.164 Z M100.242,15.022 C100.559335,15.2646679 100.862665,15.4466661 101.152,15.568 C101.441335,15.6893339 101.735332,15.75 102.034,15.75 C102.342002,15.75 102.565999,15.6986672 102.706,15.596 C102.846001,15.4933328 102.916,15.3486676 102.916,15.162 C102.916,15.0499994 102.876334,14.9496671 102.797,14.861 C102.717666,14.7723329 102.610334,14.690667 102.475,14.616 C102.339666,14.541333 102.188001,14.473667 102.02,14.413 C101.851999,14.352333 101.679334,14.284667 101.502,14.21 C101.287332,14.1259996 101.072668,14.0280006 100.858,13.916 C100.643332,13.8039994 100.447334,13.6663341 100.27,13.503 C100.092666,13.3396658 99.9480006,13.1483344 99.836,12.929 C99.7239994,12.7096656 99.668,12.4553348 99.668,12.166 C99.668,11.8486651 99.7309994,11.554668 99.857,11.284 C99.9830006,11.013332 100.162665,10.7846676 100.396,10.598 C100.629334,10.4113324 100.909332,10.2643339 101.236,10.157 C101.562668,10.0496661 101.926665,9.996 102.328,9.996 C102.860003,9.996 103.326665,10.0869991 103.728,10.269 C104.129335,10.4510009 104.479332,10.6539989 104.778,10.878 L103.854,12.11 C103.601999,11.9233324 103.354668,11.7786672 103.112,11.676 C102.869332,11.5733328 102.626668,11.522 102.384,11.522 C101.861331,11.522 101.6,11.7039982 101.6,12.068 C101.6,12.1800006 101.637333,12.2756663 101.712,12.355 C101.786667,12.4343337 101.886999,12.5066663 102.013,12.572 C102.139001,12.6373337 102.283666,12.700333 102.447,12.761 C102.610334,12.821667 102.780666,12.8846663 102.958,12.95 C103.182001,13.0340004 103.403666,13.1296661 103.623,13.237 C103.842334,13.3443339 104.042999,13.4773325 104.225,13.636 C104.407001,13.7946675 104.553999,13.9883322 104.666,14.217 C104.778001,14.4456678 104.834,14.7186651 104.834,15.036 C104.834,15.3533349 104.773334,15.647332 104.652,15.918 C104.530666,16.188668 104.348668,16.4243323 104.106,16.625 C103.863332,16.8256677 103.564668,16.9843328 103.21,17.101 C102.855332,17.2176673 102.444669,17.276 101.978,17.276 C101.520664,17.276 101.051669,17.1873342 100.571,17.01 C100.090331,16.8326658 99.6726684,16.5993348 99.318,16.31 L100.242,15.022 Z" id="Solutions" fill="#FFFFFF"></path>
                <path d="M47.5,0.5 L104.508771,0.5" id="Line" stroke="#FFFFFF" stroke-linecap="square"></path>
                <path d="M47.5,24.5 L104.508771,24.5" id="Line" stroke="#FFFFFF" stroke-linecap="square"></path>
                <path d="M0.5,50.5 L151.513244,50.5" id="Line" stroke="#FFFFFF" stroke-width="3" stroke-linecap="square"></path>
                <path d="M36.5,61.5 L115.556942,61.5" id="Line" stroke="#FFFFFF" stroke-width="3" stroke-linecap="square"></path>
            </g>
            <rect id="Rectangle-3" fill="#5F5F5F" x="406" y="247" width="194" height="240"></rect>
            <g id="Group-4" transform="translate(427.000000, 336.000000)">
                <path d="M48.176,14.546 C48.5026683,14.8260014 48.8643314,15.0546658 49.261,15.232 C49.6576686,15.4093342 50.0473314,15.498 50.43,15.498 C50.8593355,15.498 51.178999,15.4186675 51.389,15.26 C51.599001,15.1013325 51.704,14.886668 51.704,14.616 C51.704,14.4759993 51.673667,14.3546672 51.613,14.252 C51.552333,14.1493328 51.4636673,14.0583337 51.347,13.979 C51.2303328,13.8996663 51.0903341,13.8250003 50.927,13.755 L50.388,13.524 L49.198,13.02 C48.9646655,12.9266662 48.7383344,12.8053341 48.519,12.656 C48.2996656,12.5066659 48.1036675,12.3316677 47.931,12.131 C47.7583325,11.9303323 47.6206672,11.6970013 47.518,11.431 C47.4153328,11.1649987 47.364,10.8640017 47.364,10.528 C47.364,10.1546648 47.4433325,9.80233499 47.602,9.471 C47.7606675,9.13966501 47.9846652,8.85033457 48.274,8.603 C48.5633348,8.35566543 48.9063314,8.1620007 49.303,8.022 C49.6996686,7.8819993 50.1359976,7.812 50.612,7.812 C51.1440027,7.812 51.6689974,7.91466564 52.187,8.12 C52.7050026,8.32533436 53.159998,8.62399804 53.552,9.016 L52.502,10.318 C52.2033318,10.0846655 51.9046682,9.90500063 51.606,9.779 C51.3073318,9.65299937 50.9760018,9.59 50.612,9.59 C50.2573316,9.59 49.975001,9.66233261 49.765,9.807 C49.5549989,9.95166739 49.45,10.1546654 49.45,10.416 C49.45,10.5560007 49.4849996,10.6749995 49.555,10.773 C49.6250004,10.8710005 49.7229994,10.9596663 49.849,11.039 C49.9750006,11.1183337 50.1219992,11.1929997 50.29,11.263 C50.4580008,11.3330004 50.639999,11.4099996 50.836,11.494 L52.012,11.97 C52.5720028,12.1940011 53.0129984,12.501998 53.335,12.894 C53.6570016,13.286002 53.818,13.8039968 53.818,14.448 C53.818,14.8306686 53.7410008,15.1923316 53.587,15.533 C53.4329992,15.8736684 53.2090015,16.1723321 52.915,16.429 C52.6209985,16.685668 52.2593355,16.8909992 51.83,17.045 C51.4006645,17.1990008 50.915336,17.276 50.374,17.276 C49.7766637,17.276 49.1816696,17.1663344 48.589,16.947 C47.9963304,16.7276656 47.466669,16.3986689 47,15.96 L48.176,14.546 Z M54.798,13.636 C54.798,13.0573304 54.8913324,12.5416689 55.078,12.089 C55.2646676,11.6363311 55.5143318,11.2560015 55.827,10.948 C56.1396682,10.6399985 56.5013313,10.4043342 56.912,10.241 C57.3226687,10.0776658 57.7473311,9.996 58.186,9.996 C58.6246689,9.996 59.046998,10.0776658 59.453,10.241 C59.859002,10.4043342 60.2183318,10.6399985 60.531,10.948 C60.8436682,11.2560015 61.0933324,11.6363311 61.28,12.089 C61.4666676,12.5416689 61.56,13.0573304 61.56,13.636 C61.56,14.2146696 61.4666676,14.7303311 61.28,15.183 C61.0933324,15.6356689 60.8436682,16.0159985 60.531,16.324 C60.2183318,16.6320015 59.859002,16.8676659 59.453,17.031 C59.046998,17.1943341 58.6246689,17.276 58.186,17.276 C57.7473311,17.276 57.3226687,17.1943341 56.912,17.031 C56.5013313,16.8676659 56.1396682,16.6320015 55.827,16.324 C55.5143318,16.0159985 55.2646676,15.6356689 55.078,15.183 C54.8913324,14.7303311 54.798,14.2146696 54.798,13.636 Z M56.912,13.636 C56.912,14.2426697 57.0169989,14.7233316 57.227,15.078 C57.437001,15.4326684 57.7566645,15.61 58.186,15.61 C58.6060021,15.61 58.9233323,15.4326684 59.138,15.078 C59.3526677,14.7233316 59.46,14.2426697 59.46,13.636 C59.46,13.0293303 59.3526677,12.5486684 59.138,12.194 C58.9233323,11.8393316 58.6060021,11.662 58.186,11.662 C57.7566645,11.662 57.437001,11.8393316 57.227,12.194 C57.0169989,12.5486684 56.912,13.0293303 56.912,13.636 Z M62.974,7.294 L65.032,7.294 L65.032,15.036 C65.032,15.2506677 65.0716663,15.3999996 65.151,15.484 C65.2303337,15.5680004 65.3119996,15.61 65.396,15.61 L65.515,15.61 C65.5476668,15.61 65.5919997,15.6006668 65.648,15.582 L65.9,17.108 C65.7879994,17.1546669 65.6456675,17.1943332 65.473,17.227 C65.3003325,17.2596668 65.0973345,17.276 64.864,17.276 C64.5093316,17.276 64.2106679,17.2200006 63.968,17.108 C63.7253321,16.9959994 63.5316674,16.8396677 63.387,16.639 C63.2423326,16.4383323 63.1373337,16.1956681 63.072,15.911 C63.0066663,15.6263319 62.974,15.3066684 62.974,14.952 L62.974,7.294 Z M66.908,10.164 L68.966,10.164 L68.966,14.21 C68.966,14.7140025 69.0359993,15.0593324 69.176,15.246 C69.3160007,15.4326676 69.5353318,15.526 69.834,15.526 C70.0953346,15.526 70.3146658,15.4653339 70.492,15.344 C70.6693342,15.2226661 70.8606656,15.026668 71.066,14.756 L71.066,10.164 L73.124,10.164 L73.124,17.108 L71.444,17.108 L71.29,16.142 L71.248,16.142 C70.9493318,16.4966684 70.6296684,16.7743323 70.289,16.975 C69.9483316,17.1756677 69.5400024,17.276 69.064,17.276 C68.3079962,17.276 67.7596684,17.0286691 67.419,16.534 C67.0783316,16.0393309 66.908,15.3533377 66.908,14.476 L66.908,10.164 Z M75.21,11.774 L74.258,11.774 L74.258,10.248 L75.322,10.164 L75.56,8.316 L77.268,8.316 L77.268,10.164 L78.934,10.164 L78.934,11.774 L77.268,11.774 L77.268,14.56 C77.268,14.952002 77.3496658,15.2343325 77.513,15.407 C77.6763342,15.5796675 77.893332,15.666 78.164,15.666 C78.2760006,15.666 78.3903327,15.6520001 78.507,15.624 C78.6236673,15.5959999 78.7286662,15.5633335 78.822,15.526 L79.144,17.024 C78.9573324,17.0800003 78.7380013,17.1359997 78.486,17.192 C78.2339987,17.2480003 77.9400017,17.276 77.604,17.276 C77.1746645,17.276 76.8083348,17.2106673 76.505,17.08 C76.2016651,16.9493327 75.9543343,16.7673345 75.763,16.534 C75.5716657,16.3006655 75.4316671,16.018335 75.343,15.687 C75.2543329,15.355665 75.21,14.9893353 75.21,14.588 L75.21,11.774 Z M81.314,9.142 C80.9686649,9.142 80.6840011,9.04166767 80.46,8.841 C80.2359989,8.64033233 80.124,8.38133492 80.124,8.064 C80.124,7.74666508 80.2359989,7.49000098 80.46,7.294 C80.6840011,7.09799902 80.9686649,7 81.314,7 C81.6686684,7 81.9556656,7.09799902 82.175,7.294 C82.3943344,7.49000098 82.504,7.74666508 82.504,8.064 C82.504,8.38133492 82.3943344,8.64033233 82.175,8.841 C81.9556656,9.04166767 81.6686684,9.142 81.314,9.142 Z M80.292,10.164 L82.35,10.164 L82.35,17.108 L80.292,17.108 L80.292,10.164 Z M83.75,13.636 C83.75,13.0573304 83.8433324,12.5416689 84.03,12.089 C84.2166676,11.6363311 84.4663318,11.2560015 84.779,10.948 C85.0916682,10.6399985 85.4533313,10.4043342 85.864,10.241 C86.2746687,10.0776658 86.6993311,9.996 87.138,9.996 C87.5766689,9.996 87.998998,10.0776658 88.405,10.241 C88.811002,10.4043342 89.1703318,10.6399985 89.483,10.948 C89.7956682,11.2560015 90.0453324,11.6363311 90.232,12.089 C90.4186676,12.5416689 90.512,13.0573304 90.512,13.636 C90.512,14.2146696 90.4186676,14.7303311 90.232,15.183 C90.0453324,15.6356689 89.7956682,16.0159985 89.483,16.324 C89.1703318,16.6320015 88.811002,16.8676659 88.405,17.031 C87.998998,17.1943341 87.5766689,17.276 87.138,17.276 C86.6993311,17.276 86.2746687,17.1943341 85.864,17.031 C85.4533313,16.8676659 85.0916682,16.6320015 84.779,16.324 C84.4663318,16.0159985 84.2166676,15.6356689 84.03,15.183 C83.8433324,14.7303311 83.75,14.2146696 83.75,13.636 Z M85.864,13.636 C85.864,14.2426697 85.9689989,14.7233316 86.179,15.078 C86.389001,15.4326684 86.7086645,15.61 87.138,15.61 C87.5580021,15.61 87.8753323,15.4326684 88.09,15.078 C88.3046677,14.7233316 88.412,14.2426697 88.412,13.636 C88.412,13.0293303 88.3046677,12.5486684 88.09,12.194 C87.8753323,11.8393316 87.5580021,11.662 87.138,11.662 C86.7086645,11.662 86.389001,11.8393316 86.179,12.194 C85.9689989,12.5486684 85.864,13.0293303 85.864,13.636 Z M91.926,10.164 L93.606,10.164 L93.746,11.046 L93.802,11.046 C94.1006682,10.7659986 94.4273316,10.521001 94.782,10.311 C95.1366684,10.100999 95.5519976,9.996 96.028,9.996 C96.7840038,9.996 97.3323316,10.2433309 97.673,10.738 C98.0136684,11.2326691 98.184,11.9186623 98.184,12.796 L98.184,17.108 L96.126,17.108 L96.126,13.062 C96.126,12.5579975 96.058334,12.2126676 95.923,12.026 C95.787666,11.8393324 95.5706682,11.746 95.272,11.746 C95.0106654,11.746 94.7866676,11.8043328 94.6,11.921 C94.4133324,12.0376672 94.2080011,12.2033323 93.984,12.418 L93.984,17.108 L91.926,17.108 L91.926,10.164 Z M100.242,15.022 C100.559335,15.2646679 100.862665,15.4466661 101.152,15.568 C101.441335,15.6893339 101.735332,15.75 102.034,15.75 C102.342002,15.75 102.565999,15.6986672 102.706,15.596 C102.846001,15.4933328 102.916,15.3486676 102.916,15.162 C102.916,15.0499994 102.876334,14.9496671 102.797,14.861 C102.717666,14.7723329 102.610334,14.690667 102.475,14.616 C102.339666,14.541333 102.188001,14.473667 102.02,14.413 C101.851999,14.352333 101.679334,14.284667 101.502,14.21 C101.287332,14.1259996 101.072668,14.0280006 100.858,13.916 C100.643332,13.8039994 100.447334,13.6663341 100.27,13.503 C100.092666,13.3396658 99.9480006,13.1483344 99.836,12.929 C99.7239994,12.7096656 99.668,12.4553348 99.668,12.166 C99.668,11.8486651 99.7309994,11.554668 99.857,11.284 C99.9830006,11.013332 100.162665,10.7846676 100.396,10.598 C100.629334,10.4113324 100.909332,10.2643339 101.236,10.157 C101.562668,10.0496661 101.926665,9.996 102.328,9.996 C102.860003,9.996 103.326665,10.0869991 103.728,10.269 C104.129335,10.4510009 104.479332,10.6539989 104.778,10.878 L103.854,12.11 C103.601999,11.9233324 103.354668,11.7786672 103.112,11.676 C102.869332,11.5733328 102.626668,11.522 102.384,11.522 C101.861331,11.522 101.6,11.7039982 101.6,12.068 C101.6,12.1800006 101.637333,12.2756663 101.712,12.355 C101.786667,12.4343337 101.886999,12.5066663 102.013,12.572 C102.139001,12.6373337 102.283666,12.700333 102.447,12.761 C102.610334,12.821667 102.780666,12.8846663 102.958,12.95 C103.182001,13.0340004 103.403666,13.1296661 103.623,13.237 C103.842334,13.3443339 104.042999,13.4773325 104.225,13.636 C104.407001,13.7946675 104.553999,13.9883322 104.666,14.217 C104.778001,14.4456678 104.834,14.7186651 104.834,15.036 C104.834,15.3533349 104.773334,15.647332 104.652,15.918 C104.530666,16.188668 104.348668,16.4243323 104.106,16.625 C103.863332,16.8256677 103.564668,16.9843328 103.21,17.101 C102.855332,17.2176673 102.444669,17.276 101.978,17.276 C101.520664,17.276 101.051669,17.1873342 100.571,17.01 C100.090331,16.8326658 99.6726684,16.5993348 99.318,16.31 L100.242,15.022 Z" id="Solutions" fill="#FFFFFF"></path>
                <path d="M47.5,0.5 L104.508771,0.5" id="Line" stroke="#FFFFFF" stroke-linecap="square"></path>
                <path d="M47.5,24.5 L104.508771,24.5" id="Line" stroke="#FFFFFF" stroke-linecap="square"></path>
                <path d="M0.5,50.5 L151.513244,50.5" id="Line" stroke="#FFFFFF" stroke-width="3" stroke-linecap="square"></path>
                <path d="M36.5,61.5 L115.556942,61.5" id="Line" stroke="#FFFFFF" stroke-width="3" stroke-linecap="square"></path>
            </g>
        </g>
    </g>
</svg>