<?xml version="1.0" encoding="UTF-8"?>
<svg width="600px" height="209px" viewBox="0 0 600 209" version="1.1" xmlns="http://www.w3.org/2000/svg" xmlns:xlink="http://www.w3.org/1999/xlink">
    <!-- Generator: Sketch 44.1 (41455) - http://www.bohemiancoding.com/sketch -->
    <title>imageboxes09</title>
    <desc>Created with Sketch.</desc>
    <defs></defs>
    <g id="Imageboxes" stroke="none" stroke-width="1" fill="none" fill-rule="evenodd">
        <g id="09">
            <g id="Group-9">
                <rect id="Rectangle-8" fill="#6A6A6A" x="0" y="0" width="193" height="209"></rect>
                <rect id="Rectangle-8" fill="#4990E2" x="0" y="67" width="193" height="75"></rect>
                <g id="Group-8" transform="translate(16.000000, 86.000000)" stroke="#FFFFFF" stroke-linecap="square">
                    <path d="M1.5,3.5 L106.519046,3.5" id="Line" stroke-width="7"></path>
                    <path d="M0.5,22 L132.003802,22" id="Line" stroke-width="4"></path>
                    <path d="M0.5,34 L60.0084028,34" id="Line" stroke-width="4"></path>
                </g>
            </g>
            <g id="Group-9" transform="translate(407.000000, 0.000000)">
                <rect id="Rectangle-8" fill="#6A6A6A" x="0" y="0" width="193" height="209"></rect>
                <rect id="Rectangle-8" fill="#4990E2" x="0" y="67" width="193" height="75"></rect>
                <g id="Group-8" transform="translate(16.000000, 86.000000)" stroke="#FFFFFF" stroke-linecap="square">
                    <path d="M1.5,3.5 L106.519046,3.5" id="Line" stroke-width="7"></path>
                    <path d="M0.5,22 L132.003802,22" id="Line" stroke-width="4"></path>
                    <path d="M0.5,34 L60.0084028,34" id="Line" stroke-width="4"></path>
                </g>
            </g>
            <g id="Group-9" transform="translate(204.000000, 0.000000)">
                <rect id="Rectangle-8" fill="#6A6A6A" x="0" y="0" width="193" height="209"></rect>
                <rect id="Rectangle-8" fill="#4990E2" x="0" y="67" width="193" height="75"></rect>
                <g id="Group-8" transform="translate(16.000000, 86.000000)" stroke="#FFFFFF" stroke-linecap="square">
                    <path d="M1.5,3.5 L106.519046,3.5" id="Line" stroke-width="7"></path>
                    <path d="M0.5,22 L132.003802,22" id="Line" stroke-width="4"></path>
                    <path d="M0.5,34 L60.0084028,34" id="Line" stroke-width="4"></path>
                </g>
            </g>
        </g>
    </g>
</svg>