<?xml version="1.0" encoding="UTF-8"?>
<svg width="600px" height="319px" viewBox="0 0 600 319" version="1.1" xmlns="http://www.w3.org/2000/svg" xmlns:xlink="http://www.w3.org/1999/xlink">
    <!-- Generator: Sketch 44.1 (41455) - http://www.bohemiancoding.com/sketch -->
    <title>image_text07</title>
    <desc>Created with Sketch.</desc>
    <defs>
        <rect id="path-1" x="0" y="0" width="153" height="101"></rect>
        <mask id="mask-2" maskContentUnits="userSpaceOnUse" maskUnits="objectBoundingBox" x="0" y="0" width="153" height="101" fill="white">
            <use xlink:href="#path-1"></use>
        </mask>
        <rect id="path-3" x="0" y="0" width="153" height="101"></rect>
        <mask id="mask-4" maskContentUnits="userSpaceOnUse" maskUnits="objectBoundingBox" x="0" y="0" width="153" height="101" fill="white">
            <use xlink:href="#path-3"></use>
        </mask>
        <rect id="path-5" x="0" y="0" width="153" height="101"></rect>
        <mask id="mask-6" maskContentUnits="userSpaceOnUse" maskUnits="objectBoundingBox" x="0" y="0" width="153" height="101" fill="white">
            <use xlink:href="#path-5"></use>
        </mask>
        <rect id="path-7" x="0" y="0" width="153" height="101"></rect>
        <mask id="mask-8" maskContentUnits="userSpaceOnUse" maskUnits="objectBoundingBox" x="0" y="0" width="153" height="101" fill="white">
            <use xlink:href="#path-7"></use>
        </mask>
    </defs>
    <g id="Image/Text-Blocks" stroke="none" stroke-width="1" fill="none" fill-rule="evenodd">
        <g id="07">
            <path d="M246.327,1.768 L244,1.768 L244,0.156 L250.578,0.156 L250.578,1.768 L248.251,1.768 L248.251,8.632 L246.327,8.632 L246.327,1.768 Z M251.904,0.156 L257.208,0.156 L257.208,1.768 L253.815,1.768 L253.815,3.471 L256.701,3.471 L256.701,5.07 L253.815,5.07 L253.815,7.02 L257.338,7.02 L257.338,8.632 L251.904,8.632 L251.904,0.156 Z M260.523,4.277 L258.313,0.156 L260.445,0.156 L261.186,1.755 C261.281334,1.95433433 261.376666,2.1644989 261.472,2.3855 C261.567334,2.60650111 261.675666,2.85133199 261.797,3.12 L261.849,3.12 C261.944334,2.85133199 262.0375,2.60650111 262.1285,2.3855 C262.2195,2.1644989 262.308333,1.95433433 262.395,1.755 L263.071,0.156 L265.112,0.156 L262.915,4.368 L265.255,8.632 L263.123,8.632 L262.278,6.903 C262.173999,6.67766554 262.072167,6.4545011 261.9725,6.2335 C261.872833,6.0124989 261.762334,5.7720013 261.641,5.512 L261.589,5.512 C261.493666,5.7720013 261.398334,6.0124989 261.303,6.2335 C261.207666,6.4545011 261.112334,6.67766554 261.017,6.903 L260.224,8.632 L258.17,8.632 L260.523,4.277 Z M267.79,1.768 L265.463,1.768 L265.463,0.156 L272.041,0.156 L272.041,1.768 L269.714,1.768 L269.714,8.632 L267.79,8.632 L267.79,1.768 Z M275.252,0.156 L277.215,0.156 L277.8,4.121 C277.852,4.56300221 277.908333,5.00716444 277.969,5.4535 C278.029667,5.89983557 278.086,6.34833108 278.138,6.799 L278.19,6.799 C278.276667,6.34833108 278.361166,5.89983557 278.4435,5.4535 C278.525834,5.00716444 278.610333,4.56300221 278.697,4.121 L279.607,0.156 L281.232,0.156 L282.142,4.121 C282.228667,4.5543355 282.313166,4.99416444 282.3955,5.4405 C282.477834,5.88683557 282.562333,6.33966437 282.649,6.799 L282.701,6.799 C282.761667,6.33966437 282.820166,5.88900221 282.8765,5.447 C282.932834,5.00499779 282.991333,4.56300221 283.052,4.121 L283.637,0.156 L285.47,0.156 L283.962,8.632 L281.557,8.632 L280.725,4.784 C280.655666,4.45466502 280.592834,4.12316834 280.5365,3.7895 C280.480166,3.45583167 280.430334,3.13300156 280.387,2.821 L280.335,2.821 C280.283,3.13300156 280.228834,3.45583167 280.1725,3.7895 C280.116166,4.12316834 280.053334,4.45466502 279.984,4.784 L279.191,8.632 L276.825,8.632 L275.252,0.156 Z M286.64,0.156 L288.551,0.156 L288.551,8.632 L286.64,8.632 L286.64,0.156 Z M292.204,1.768 L289.877,1.768 L289.877,0.156 L296.455,0.156 L296.455,1.768 L294.128,1.768 L294.128,8.632 L292.204,8.632 L292.204,1.768 Z M297.781,0.156 L299.692,0.156 L299.692,3.419 L302.617,3.419 L302.617,0.156 L304.541,0.156 L304.541,8.632 L302.617,8.632 L302.617,5.096 L299.692,5.096 L299.692,8.632 L297.781,8.632 L297.781,0.156 Z M308.844,4.446 C308.844,3.74399649 308.954499,3.11783608 309.1755,2.5675 C309.396501,2.01716391 309.695498,1.55133524 310.0725,1.17 C310.449502,0.78866476 310.891497,0.49833433 311.3985,0.299 C311.905503,0.09966567 312.444997,0 313.017,0 C313.615003,0 314.132831,0.11266554 314.5705,0.338 C315.008169,0.56333446 315.365665,0.81899857 315.643,1.105 L314.59,2.288 C314.381999,2.08866567 314.163168,1.93266723 313.9335,1.82 C313.703832,1.70733277 313.407002,1.651 313.043,1.651 C312.713665,1.651 312.412501,1.71383271 312.1395,1.8395 C311.866499,1.96516729 311.630334,2.14499883 311.431,2.379 C311.231666,2.61300117 311.077834,2.89899831 310.9695,3.237 C310.861166,3.57500169 310.807,3.95633121 310.807,4.381 C310.807,5.25633771 311.004165,5.9344976 311.3985,6.4155 C311.792835,6.8965024 312.388663,7.137 313.186,7.137 C313.359334,7.137 313.528333,7.11533355 313.693,7.072 C313.857667,7.02866645 313.991999,6.9636671 314.096,6.877 L314.096,5.421 L312.692,5.421 L312.692,3.861 L315.786,3.861 L315.786,7.761 C315.482665,8.04700143 315.084002,8.28966567 314.59,8.489 C314.095998,8.68833433 313.550003,8.788 312.952,8.788 C312.379997,8.788 311.844836,8.69483427 311.3465,8.5085 C310.848164,8.32216573 310.412669,8.04700182 310.04,7.683 C309.667331,7.31899818 309.374834,6.86616938 309.1625,6.3245 C308.950166,5.78283062 308.844,5.15667022 308.844,4.446 Z M321.025,5.122 L320.83,4.342 C320.708666,3.91733121 320.591667,3.46666905 320.479,2.99 C320.366333,2.51333095 320.253667,2.05400221 320.141,1.612 L320.089,1.612 C319.984999,2.06266892 319.878834,2.5241643 319.7705,2.9965 C319.662166,3.4688357 319.547334,3.91733121 319.426,4.342 L319.218,5.122 L321.025,5.122 Z M321.415,6.617 L318.828,6.617 L318.308,8.632 L316.358,8.632 L319.01,0.156 L321.311,0.156 L323.963,8.632 L321.935,8.632 L321.415,6.617 Z M324.886,0.156 L326.797,0.156 L326.797,7.02 L330.151,7.02 L330.151,8.632 L324.886,8.632 L324.886,0.156 Z M331.62,0.156 L333.531,0.156 L333.531,7.02 L336.885,7.02 L336.885,8.632 L331.62,8.632 L331.62,0.156 Z M338.354,0.156 L343.658,0.156 L343.658,1.768 L340.265,1.768 L340.265,3.471 L343.151,3.471 L343.151,5.07 L340.265,5.07 L340.265,7.02 L343.788,7.02 L343.788,8.632 L338.354,8.632 L338.354,0.156 Z M347.389,4.056 L348.377,4.056 C348.879669,4.056 349.263165,3.94983439 349.5275,3.7375 C349.791835,3.5251656 349.924,3.21100208 349.924,2.795 C349.924,2.37899792 349.791835,2.08866749 349.5275,1.924 C349.263165,1.75933251 348.879669,1.677 348.377,1.677 L347.389,1.677 L347.389,4.056 Z M350.067,8.632 L348.442,5.577 L347.389,5.577 L347.389,8.632 L345.478,8.632 L345.478,0.156 L348.533,0.156 C348.983669,0.156 349.406165,0.1993329 349.8005,0.286 C350.194835,0.3726671 350.539332,0.517832315 350.834,0.7215 C351.128668,0.925167685 351.362666,1.19599831 351.536,1.534 C351.709334,1.87200169 351.796,2.29233082 351.796,2.795 C351.796,3.41900312 351.659501,3.93249799 351.3865,4.3355 C351.113499,4.73850201 350.747336,5.03966567 350.288,5.239 L352.212,8.632 L350.067,8.632 Z M354.708,5.616 L352.147,0.156 L354.201,0.156 L354.955,2.106 C355.076334,2.42666827 355.191166,2.7364985 355.2995,3.0355 C355.407834,3.3345015 355.522666,3.64866502 355.644,3.978 L355.696,3.978 C355.817334,3.64866502 355.936499,3.3345015 356.0535,3.0355 C356.170501,2.7364985 356.289666,2.42666827 356.411,2.106 L357.178,0.156 L359.18,0.156 L356.619,5.616 L356.619,8.632 L354.708,8.632 L354.708,5.616 Z" id="TEXT-WITH-GALLERY" fill="#79797B"></path>
            <path d="M285.5,22.5 L317.562439,22.5" id="Line" stroke="#4990E2" stroke-linecap="square"></path>
            <path d="M289.5,41.5 L314.579872,41.5" id="Line" stroke="#979797" stroke-width="5" stroke-linecap="square"></path>
            <path d="M286.5,56.5 L317.564449,56.5" id="Line" stroke="#979797" stroke-width="5" stroke-linecap="square"></path>
            <path d="M283.5,71.5 L320.5,71.5" id="Line" stroke="#979797" stroke-width="5" stroke-linecap="square"></path>
            <path d="M287.5,85.5 L316.517236,85.5" id="Line" stroke="#979797" stroke-width="5" stroke-linecap="square"></path>
            <path d="M143.5,132 L454.54019,132" id="Line" stroke="#979797" stroke-width="4" stroke-linecap="square"></path>
            <path d="M120.996657,147 L477.00316,147" id="Line" stroke="#979797" stroke-width="4" stroke-linecap="square"></path>
            <path d="M180.997872,161 L416.001802,161" id="Line" stroke="#979797" stroke-width="4" stroke-linecap="square"></path>
            <g id="Group-4" transform="translate(0.000000, 218.000000)" stroke="#979797">
                <use id="Rectangle-9" mask="url(#mask-2)" stroke-width="2" fill="#F2F2F2" stroke-dasharray="4" xlink:href="#path-1"></use>
                <g id="icon-picture" opacity="0.699999988" transform="translate(54.000000, 35.000000)">
                    <polyline id="Path-15" stroke-width="2" points="0.93752489 27.4290272 15.9360631 11.6665327 26.4781151 22.8390451 32.6528211 16.2950649 44.3413163 28.6825829"></polyline>
                    <ellipse id="Oval-6" fill="#D8D8D8" cx="36.8852459" cy="8.18604651" rx="2.21311475" ry="2.23255814"></ellipse>
                    <rect id="Rectangle-10" stroke-width="2" x="1" y="1" width="43" height="30" rx="3"></rect>
                </g>
            </g>
            <g id="Group-4" transform="translate(152.000000, 218.000000)" stroke="#979797">
                <use id="Rectangle-9" mask="url(#mask-4)" stroke-width="2" fill="#F2F2F2" stroke-dasharray="4" xlink:href="#path-3"></use>
                <g id="icon-picture" opacity="0.699999988" transform="translate(54.000000, 35.000000)">
                    <polyline id="Path-15" stroke-width="2" points="0.93752489 27.4290272 15.9360631 11.6665327 26.4781151 22.8390451 32.6528211 16.2950649 44.3413163 28.6825829"></polyline>
                    <ellipse id="Oval-6" fill="#D8D8D8" cx="36.8852459" cy="8.18604651" rx="2.21311475" ry="2.23255814"></ellipse>
                    <rect id="Rectangle-10" stroke-width="2" x="1" y="1" width="43" height="30" rx="3"></rect>
                </g>
            </g>
            <g id="Group-4" transform="translate(304.000000, 218.000000)" stroke="#979797">
                <use id="Rectangle-9" mask="url(#mask-6)" stroke-width="2" fill="#F2F2F2" stroke-dasharray="4" xlink:href="#path-5"></use>
                <g id="icon-picture" opacity="0.699999988" transform="translate(54.000000, 35.000000)">
                    <polyline id="Path-15" stroke-width="2" points="0.93752489 27.4290272 15.9360631 11.6665327 26.4781151 22.8390451 32.6528211 16.2950649 44.3413163 28.6825829"></polyline>
                    <ellipse id="Oval-6" fill="#D8D8D8" cx="36.8852459" cy="8.18604651" rx="2.21311475" ry="2.23255814"></ellipse>
                    <rect id="Rectangle-10" stroke-width="2" x="1" y="1" width="43" height="30" rx="3"></rect>
                </g>
            </g>
            <g id="Group-4" transform="translate(447.000000, 218.000000)" stroke="#979797">
                <use id="Rectangle-9" mask="url(#mask-8)" stroke-width="2" fill="#F2F2F2" stroke-dasharray="4" xlink:href="#path-7"></use>
                <g id="icon-picture" opacity="0.699999988" transform="translate(54.000000, 35.000000)">
                    <polyline id="Path-15" stroke-width="2" points="0.93752489 27.4290272 15.9360631 11.6665327 26.4781151 22.8390451 32.6528211 16.2950649 44.3413163 28.6825829"></polyline>
                    <ellipse id="Oval-6" fill="#D8D8D8" cx="36.8852459" cy="8.18604651" rx="2.21311475" ry="2.23255814"></ellipse>
                    <rect id="Rectangle-10" stroke-width="2" x="1" y="1" width="43" height="30" rx="3"></rect>
                </g>
            </g>
        </g>
    </g>
</svg>