<?xml version="1.0" encoding="UTF-8"?>
<svg width="600px" height="455px" viewBox="0 0 600 455" version="1.1" xmlns="http://www.w3.org/2000/svg" xmlns:xlink="http://www.w3.org/1999/xlink">
    <!-- Generator: Sketch 44.1 (41455) - http://www.bohemiancoding.com/sketch -->
    <title>image_text21</title>
    <desc>Created with Sketch.</desc>
    <defs>
        <rect id="path-1" x="125" y="264" width="351" height="190"></rect>
        <mask id="mask-2" maskContentUnits="userSpaceOnUse" maskUnits="objectBoundingBox" x="0" y="0" width="351" height="190" fill="white">
            <use xlink:href="#path-1"></use>
        </mask>
    </defs>
    <g id="Image/Text-Blocks" stroke="none" stroke-width="1" fill="none" fill-rule="evenodd">
        <g id="21">
            <rect id="Rectangle-16" fill="#F8F8F8" x="0" y="0" width="600" height="455"></rect>
            <path d="M202.2165,74.462 L198.0995,74.462 L198.0995,71.61 L209.7375,71.61 L209.7375,74.462 L205.6205,74.462 L205.6205,86.606 L202.2165,86.606 L202.2165,74.462 Z M209.3925,80.902 C209.3925,79.9819954 209.545832,79.1501704 209.8525,78.4065 C210.159168,77.6628296 210.561664,77.0341692 211.06,76.5205 C211.558336,76.0068308 212.129497,75.6120014 212.7735,75.336 C213.417503,75.0599986 214.084497,74.922 214.7745,74.922 C215.587171,74.922 216.29633,75.0599986 216.902,75.336 C217.50767,75.6120014 218.013665,75.9953309 218.42,76.486 C218.826335,76.9766691 219.129166,77.5554967 219.3285,78.2225 C219.527834,78.8895033 219.6275,79.6139961 219.6275,80.396 C219.6275,80.7026682 219.612167,80.9824987 219.5815,81.2355 C219.550833,81.4885013 219.520167,81.6839993 219.4895,81.822 L212.6585,81.822 C212.811834,82.6960044 213.152997,83.328498 213.682,83.7195 C214.211003,84.110502 214.858829,84.306 215.6255,84.306 C216.438171,84.306 217.258496,84.0530025 218.0865,83.547 L219.2135,85.594 C218.63083,85.9926687 217.983004,86.3069988 217.27,86.537 C216.556996,86.7670011 215.855503,86.882 215.1655,86.882 C214.352829,86.882 213.593837,86.7478347 212.8885,86.4795 C212.183163,86.2111653 211.569836,85.8201692 211.0485,85.3065 C210.527164,84.7928308 210.120835,84.1680037 209.8295,83.432 C209.538165,82.6959963 209.3925,81.8526714 209.3925,80.902 Z M216.7525,79.729 C216.7525,79.0696634 216.606835,78.5330021 216.3155,78.119 C216.024165,77.7049979 215.533503,77.498 214.8435,77.498 C214.306831,77.498 213.835335,77.6781649 213.429,78.0385 C213.022665,78.3988351 212.758167,78.9623295 212.6355,79.729 L216.7525,79.729 Z M223.9285,80.672 L220.6395,75.198 L224.2735,75.198 L225.2855,77.038 C225.438834,77.3600016 225.595999,77.6858317 225.757,78.0155 C225.918001,78.3451683 226.082832,78.6709984 226.2515,78.993 L226.3435,78.993 C226.466167,78.6709984 226.596499,78.3451683 226.7345,78.0155 C226.872501,77.6858317 227.002833,77.3600016 227.1255,77.038 L227.9075,75.198 L231.4035,75.198 L228.0915,81.063 L231.6105,86.606 L227.9765,86.606 L226.8725,84.72 C226.688499,84.3979984 226.508334,84.068335 226.332,83.731 C226.155666,83.393665 225.975501,83.0640016 225.7915,82.742 L225.6995,82.742 C225.561499,83.0640016 225.415834,83.3898317 225.2625,83.7195 C225.109166,84.0491683 224.963501,84.382665 224.8255,84.72 L223.9285,86.606 L220.4325,86.606 L223.9285,80.672 Z M233.8875,77.843 L232.3235,77.843 L232.3235,75.336 L234.0715,75.198 L234.4625,72.162 L237.2685,72.162 L237.2685,75.198 L240.0055,75.198 L240.0055,77.843 L237.2685,77.843 L237.2685,82.42 C237.2685,83.0640032 237.402665,83.5278319 237.671,83.8115 C237.939335,84.0951681 238.295831,84.237 238.7405,84.237 C238.924501,84.237 239.112332,84.2140002 239.304,84.168 C239.495668,84.1219998 239.668166,84.0683336 239.8215,84.007 L240.3505,86.468 C240.043832,86.5600005 239.683502,86.6519995 239.2695,86.744 C238.855498,86.8360005 238.372503,86.882 237.8205,86.882 C237.115163,86.882 236.513336,86.7746677 236.015,86.56 C235.516664,86.3453323 235.110335,86.0463352 234.796,85.663 C234.481665,85.2796647 234.251667,84.8158361 234.106,84.2715 C233.960333,83.7271639 233.8875,83.1253366 233.8875,82.466 L233.8875,77.843 Z M246.0775,75.198 L249.4355,75.198 L250.5395,80.488 C250.6315,81.0553362 250.715833,81.6149972 250.7925,82.167 C250.869167,82.7190028 250.9535,83.2863304 251.0455,83.869 L251.1375,83.869 C251.244834,83.2863304 251.348333,82.7113362 251.448,82.144 C251.547667,81.5766638 251.666499,81.0246693 251.8045,80.488 L253.0695,75.198 L255.9905,75.198 L257.2785,80.488 C257.416501,81.0553362 257.539166,81.6149972 257.6465,82.167 C257.753834,82.7190028 257.868833,83.2863304 257.9915,83.869 L258.0835,83.869 C258.190834,83.2863304 258.279,82.7190028 258.348,82.167 C258.417,81.6149972 258.505166,81.0553362 258.6125,80.488 L259.6935,75.198 L262.8215,75.198 L260.0845,86.606 L256.1285,86.606 L255.0935,82.052 C254.970833,81.5153306 254.8635,80.9786693 254.7715,80.442 C254.6795,79.9053306 254.579834,79.3303364 254.4725,78.717 L254.3805,78.717 C254.273166,79.3303364 254.177334,79.9053306 254.093,80.442 C254.008666,80.9786693 253.912834,81.5153306 253.8055,82.052 L252.7935,86.606 L248.9295,86.606 L246.0775,75.198 Z M266.5475,73.519 C265.980164,73.519 265.512502,73.3541683 265.1445,73.0245 C264.776498,72.6948317 264.5925,72.2693359 264.5925,71.748 C264.5925,71.2266641 264.776498,70.8050016 265.1445,70.483 C265.512502,70.1609984 265.980164,70 266.5475,70 C267.13017,70 267.601665,70.1609984 267.962,70.483 C268.322335,70.8050016 268.5025,71.2266641 268.5025,71.748 C268.5025,72.2693359 268.322335,72.6948317 267.962,73.0245 C267.601665,73.3541683 267.13017,73.519 266.5475,73.519 Z M264.8685,75.198 L268.2495,75.198 L268.2495,86.606 L264.8685,86.606 L264.8685,75.198 Z M271.6765,77.843 L270.1125,77.843 L270.1125,75.336 L271.8605,75.198 L272.2515,72.162 L275.0575,72.162 L275.0575,75.198 L277.7945,75.198 L277.7945,77.843 L275.0575,77.843 L275.0575,82.42 C275.0575,83.0640032 275.191665,83.5278319 275.46,83.8115 C275.728335,84.0951681 276.084831,84.237 276.5295,84.237 C276.713501,84.237 276.901332,84.2140002 277.093,84.168 C277.284668,84.1219998 277.457166,84.0683336 277.6105,84.007 L278.1395,86.468 C277.832832,86.5600005 277.472502,86.6519995 277.0585,86.744 C276.644498,86.8360005 276.161503,86.882 275.6095,86.882 C274.904163,86.882 274.302336,86.7746677 273.804,86.56 C273.305664,86.3453323 272.899335,86.0463352 272.585,85.663 C272.270665,85.2796647 272.040667,84.8158361 271.895,84.2715 C271.749333,83.7271639 271.6765,83.1253366 271.6765,82.466 L271.6765,77.843 Z M280.0255,70.483 L283.4065,70.483 L283.4065,74.439 L283.2455,76.486 C283.674835,76.1026648 284.173164,75.7461683 284.7405,75.4165 C285.307836,75.0868317 285.982496,74.922 286.7645,74.922 C288.006506,74.922 288.907331,75.3283293 289.467,76.141 C290.026669,76.9536707 290.3065,78.0806595 290.3065,79.522 L290.3065,86.606 L286.9255,86.606 L286.9255,79.959 C286.9255,79.1309959 286.814334,78.5636682 286.592,78.257 C286.369666,77.9503318 286.013169,77.797 285.5225,77.797 C285.093165,77.797 284.725168,77.8928324 284.4185,78.0845 C284.111832,78.2761676 283.774502,78.5483316 283.4065,78.901 L283.4065,86.606 L280.0255,86.606 L280.0255,70.483 Z M299.6215,73.519 C299.054164,73.519 298.586502,73.3541683 298.2185,73.0245 C297.850498,72.6948317 297.6665,72.2693359 297.6665,71.748 C297.6665,71.2266641 297.850498,70.8050016 298.2185,70.483 C298.586502,70.1609984 299.054164,70 299.6215,70 C300.20417,70 300.675665,70.1609984 301.036,70.483 C301.396335,70.8050016 301.5765,71.2266641 301.5765,71.748 C301.5765,72.2693359 301.396335,72.6948317 301.036,73.0245 C300.675665,73.3541683 300.20417,73.519 299.6215,73.519 Z M297.9425,75.198 L301.3235,75.198 L301.3235,86.606 L297.9425,86.606 L297.9425,75.198 Z M304.2905,75.198 L307.0505,75.198 L307.2805,76.67 L307.3725,76.67 C307.847836,76.1946643 308.353831,75.7845017 308.8905,75.4395 C309.427169,75.0944983 310.071163,74.922 310.8225,74.922 C311.635171,74.922 312.290664,75.0868317 312.789,75.4165 C313.287336,75.7461683 313.682165,76.2176636 313.9735,76.831 C314.479503,76.3096641 315.012331,75.8611685 315.572,75.4855 C316.131669,75.1098315 316.794829,74.922 317.5615,74.922 C318.788173,74.922 319.688997,75.3321626 320.264,76.1525 C320.839003,76.9728374 321.1265,78.0959929 321.1265,79.522 L321.1265,86.606 L317.7455,86.606 L317.7455,79.959 C317.7455,79.1309959 317.634334,78.5636682 317.412,78.257 C317.189666,77.9503318 316.833169,77.797 316.3425,77.797 C315.775164,77.797 315.123504,78.1649963 314.3875,78.901 L314.3875,86.606 L311.0065,86.606 L311.0065,79.959 C311.0065,79.1309959 310.895334,78.5636682 310.673,78.257 C310.450666,77.9503318 310.094169,77.797 309.6035,77.797 C309.02083,77.797 308.376837,78.1649963 307.6715,78.901 L307.6715,86.606 L304.2905,86.606 L304.2905,75.198 Z M323.5875,83.432 C323.5875,82.235994 324.093495,81.30067 325.1055,80.626 C326.117505,79.95133 327.750489,79.4990011 330.0045,79.269 C329.973833,78.7629975 329.820501,78.3605015 329.5445,78.0615 C329.268499,77.7624985 328.823836,77.613 328.2105,77.613 C327.719831,77.613 327.229169,77.7049991 326.7385,77.889 C326.247831,78.0730009 325.726503,78.3259984 325.1745,78.648 L323.9785,76.417 C324.714504,75.9723311 325.484996,75.6120014 326.29,75.336 C327.095004,75.0599986 327.949829,74.922 328.8545,74.922 C330.326507,74.922 331.449663,75.3398292 332.224,76.1755 C332.998337,77.0111708 333.3855,78.3106578 333.3855,80.074 L333.3855,86.606 L330.6255,86.606 L330.3725,85.433 L330.3035,85.433 C329.812831,85.8623355 329.295336,86.2111653 328.751,86.4795 C328.206664,86.7478347 327.612503,86.882 326.9685,86.882 C326.447164,86.882 325.979502,86.7938342 325.5655,86.6175 C325.151498,86.4411658 324.798835,86.1958349 324.5075,85.8815 C324.216165,85.5671651 323.990001,85.2030021 323.829,84.789 C323.667999,84.3749979 323.5875,83.9226691 323.5875,83.432 Z M326.8075,83.179 C326.8075,83.5470018 326.926332,83.8191658 327.164,83.9955 C327.401668,84.1718342 327.719831,84.26 328.1185,84.26 C328.517169,84.26 328.854499,84.1756675 329.1305,84.007 C329.406501,83.8383325 329.697832,83.6006682 330.0045,83.294 L330.0045,81.293 C328.793161,81.4616675 327.957502,81.7069984 327.4975,82.029 C327.037498,82.3510016 326.8075,82.7343311 326.8075,83.179 Z M338.3535,88.032 C338.3535,88.4613355 338.583498,88.7871656 339.0435,89.0095 C339.503502,89.2318344 340.116829,89.343 340.8835,89.343 C341.65017,89.343 342.278831,89.2088347 342.7695,88.9405 C343.260169,88.6721653 343.5055,88.3386687 343.5055,87.94 C343.5055,87.5873316 343.356001,87.3496673 343.057,87.227 C342.757999,87.1043327 342.324836,87.043 341.7575,87.043 L340.5845,87.043 C340.185831,87.043 339.863835,87.0315001 339.6185,87.0085 C339.373165,86.9854999 339.158501,86.9510002 338.9745,86.905 C338.560498,87.2730018 338.3535,87.6486648 338.3535,88.032 Z M335.5705,88.561 C335.5705,87.6409954 336.114828,86.8743364 337.2035,86.261 L337.2035,86.169 C336.896832,85.9696657 336.643834,85.7166682 336.4445,85.41 C336.245166,85.1033318 336.1455,84.7123357 336.1455,84.237 C336.1455,83.8229979 336.268165,83.4281685 336.5135,83.0525 C336.758835,82.6768315 337.065498,82.358668 337.4335,82.098 L337.4335,82.006 C337.034831,81.7299986 336.678335,81.3351692 336.364,80.8215 C336.049665,80.3078308 335.8925,79.71367 335.8925,79.039 C335.8925,78.3489965 336.022832,77.7471692 336.2835,77.2335 C336.544168,76.7198308 336.892998,76.2905017 337.33,75.9455 C337.767002,75.6004983 338.269164,75.3436675 338.8365,75.175 C339.403836,75.0063325 339.994164,74.922 340.6075,74.922 C341.28217,74.922 341.872497,75.0139991 342.3785,75.198 L346.5415,75.198 L346.5415,77.659 L344.7245,77.659 C344.831834,77.8276675 344.92,78.042332 344.989,78.303 C345.058,78.563668 345.0925,78.8473318 345.0925,79.154 C345.0925,79.8133366 344.977501,80.3844976 344.7475,80.8675 C344.517499,81.3505024 344.199335,81.7491651 343.793,82.0635 C343.386665,82.3778349 342.911336,82.6116659 342.367,82.765 C341.822664,82.9183341 341.23617,82.995 340.6075,82.995 C340.162831,82.995 339.702836,82.9183341 339.2275,82.765 C339.074166,82.8876673 338.966834,83.0103327 338.9055,83.133 C338.844166,83.2556673 338.8135,83.4166657 338.8135,83.616 C338.8135,83.9073348 338.939999,84.1219993 339.193,84.26 C339.446001,84.3980007 339.894497,84.467 340.5385,84.467 L342.3785,84.467 C343.789174,84.467 344.86633,84.6931644 345.61,85.1455 C346.35367,85.5978356 346.7255,86.3376615 346.7255,87.365 C346.7255,87.963003 346.576001,88.5111642 346.277,89.0095 C345.977999,89.5078358 345.552503,89.9371649 345.0005,90.2975 C344.448497,90.6578351 343.781504,90.941499 342.9995,91.1485 C342.217496,91.355501 341.335838,91.459 340.3545,91.459 C339.67983,91.459 339.055003,91.4015006 338.48,91.2865 C337.904997,91.1714994 337.399002,90.9990011 336.962,90.769 C336.524998,90.5389988 336.183835,90.2400018 335.9385,89.872 C335.693165,89.5039982 335.5705,89.0670025 335.5705,88.561 Z M340.6075,80.948 C341.052169,80.948 341.423999,80.7908349 341.723,80.4765 C342.022001,80.1621651 342.1715,79.6830032 342.1715,79.039 C342.1715,78.440997 342.022001,77.9848349 341.723,77.6705 C341.423999,77.3561651 341.052169,77.199 340.6075,77.199 C340.162831,77.199 339.791001,77.3523318 339.492,77.659 C339.192999,77.9656682 339.0435,78.4256636 339.0435,79.039 C339.0435,79.6830032 339.192999,80.1621651 339.492,80.4765 C339.791001,80.7908349 340.162831,80.948 340.6075,80.948 Z M347.4845,80.902 C347.4845,79.9819954 347.637832,79.1501704 347.9445,78.4065 C348.251168,77.6628296 348.653664,77.0341692 349.152,76.5205 C349.650336,76.0068308 350.221497,75.6120014 350.8655,75.336 C351.509503,75.0599986 352.176497,74.922 352.8665,74.922 C353.679171,74.922 354.38833,75.0599986 354.994,75.336 C355.59967,75.6120014 356.105665,75.9953309 356.512,76.486 C356.918335,76.9766691 357.221166,77.5554967 357.4205,78.2225 C357.619834,78.8895033 357.7195,79.6139961 357.7195,80.396 C357.7195,80.7026682 357.704167,80.9824987 357.6735,81.2355 C357.642833,81.4885013 357.612167,81.6839993 357.5815,81.822 L350.7505,81.822 C350.903834,82.6960044 351.244997,83.328498 351.774,83.7195 C352.303003,84.110502 352.950829,84.306 353.7175,84.306 C354.530171,84.306 355.350496,84.0530025 356.1785,83.547 L357.3055,85.594 C356.72283,85.9926687 356.075004,86.3069988 355.362,86.537 C354.648996,86.7670011 353.947503,86.882 353.2575,86.882 C352.444829,86.882 351.685837,86.7478347 350.9805,86.4795 C350.275163,86.2111653 349.661836,85.8201692 349.1405,85.3065 C348.619164,84.7928308 348.212835,84.1680037 347.9215,83.432 C347.630165,82.6959963 347.4845,81.8526714 347.4845,80.902 Z M354.8445,79.729 C354.8445,79.0696634 354.698835,78.5330021 354.4075,78.119 C354.116165,77.7049979 353.625503,77.498 352.9355,77.498 C352.398831,77.498 351.927335,77.6781649 351.521,78.0385 C351.114665,78.3988351 350.850167,78.9623295 350.7275,79.729 L354.8445,79.729 Z M364.4355,83.432 C364.4355,82.235994 364.941495,81.30067 365.9535,80.626 C366.965505,79.95133 368.598489,79.4990011 370.8525,79.269 C370.821833,78.7629975 370.668501,78.3605015 370.3925,78.0615 C370.116499,77.7624985 369.671836,77.613 369.0585,77.613 C368.567831,77.613 368.077169,77.7049991 367.5865,77.889 C367.095831,78.0730009 366.574503,78.3259984 366.0225,78.648 L364.8265,76.417 C365.562504,75.9723311 366.332996,75.6120014 367.138,75.336 C367.943004,75.0599986 368.797829,74.922 369.7025,74.922 C371.174507,74.922 372.297663,75.3398292 373.072,76.1755 C373.846337,77.0111708 374.2335,78.3106578 374.2335,80.074 L374.2335,86.606 L371.4735,86.606 L371.2205,85.433 L371.1515,85.433 C370.660831,85.8623355 370.143336,86.2111653 369.599,86.4795 C369.054664,86.7478347 368.460503,86.882 367.8165,86.882 C367.295164,86.882 366.827502,86.7938342 366.4135,86.6175 C365.999498,86.4411658 365.646835,86.1958349 365.3555,85.8815 C365.064165,85.5671651 364.838001,85.2030021 364.677,84.789 C364.515999,84.3749979 364.4355,83.9226691 364.4355,83.432 Z M367.6555,83.179 C367.6555,83.5470018 367.774332,83.8191658 368.012,83.9955 C368.249668,84.1718342 368.567831,84.26 368.9665,84.26 C369.365169,84.26 369.702499,84.1756675 369.9785,84.007 C370.254501,83.8383325 370.545832,83.6006682 370.8525,83.294 L370.8525,81.293 C369.641161,81.4616675 368.805502,81.7069984 368.3455,82.029 C367.885498,82.3510016 367.6555,82.7343311 367.6555,83.179 Z M377.1315,75.198 L379.8915,75.198 L380.1215,76.647 L380.2135,76.647 C380.704169,76.1869977 381.24083,75.7845017 381.8235,75.4395 C382.40617,75.0944983 383.088496,74.922 383.8705,74.922 C385.112506,74.922 386.013331,75.3283293 386.573,76.141 C387.132669,76.9536707 387.4125,78.0806595 387.4125,79.522 L387.4125,86.606 L384.0315,86.606 L384.0315,79.959 C384.0315,79.1309959 383.920334,78.5636682 383.698,78.257 C383.475666,77.9503318 383.119169,77.797 382.6285,77.797 C382.199165,77.797 381.831168,77.8928324 381.5245,78.0845 C381.217832,78.2761676 380.880502,78.5483316 380.5125,78.901 L380.5125,86.606 L377.1315,86.606 L377.1315,75.198 Z M389.6895,80.902 C389.6895,79.966662 389.823665,79.1310037 390.092,78.395 C390.360335,77.6589963 390.712998,77.0341692 391.15,76.5205 C391.587002,76.0068308 392.092997,75.6120014 392.668,75.336 C393.243003,75.0599986 393.829497,74.922 394.4275,74.922 C395.071503,74.922 395.600498,75.0293323 396.0145,75.244 C396.428502,75.4586677 396.834831,75.7499982 397.2335,76.118 L397.0955,74.37 L397.0955,70.483 L400.4765,70.483 L400.4765,86.606 L397.7165,86.606 L397.4865,85.479 L397.3945,85.479 C396.995831,85.8776687 396.528169,86.2111653 395.9915,86.4795 C395.454831,86.7478347 394.910503,86.882 394.3585,86.882 C393.653163,86.882 393.013003,86.7440014 392.438,86.468 C391.862997,86.1919986 391.372335,85.7971692 390.966,85.2835 C390.559665,84.7698308 390.245334,84.1450037 390.023,83.409 C389.800666,82.6729963 389.6895,81.837338 389.6895,80.902 Z M393.1625,80.856 C393.1625,81.9906723 393.342665,82.8186641 393.703,83.34 C394.063335,83.8613359 394.573163,84.122 395.2325,84.122 C395.600502,84.122 395.933999,84.0453341 396.233,83.892 C396.532001,83.7386659 396.819499,83.4703353 397.0955,83.087 L397.0955,78.418 C396.788832,78.1419986 396.474502,77.9503339 396.1525,77.843 C395.830498,77.7356661 395.516168,77.682 395.2095,77.682 C394.672831,77.682 394.197502,77.9388308 393.7835,78.4525 C393.369498,78.9661692 393.1625,79.7673279 393.1625,80.856 Z M160,99.483 L163.381,99.483 L163.381,103.439 L163.22,105.486 C163.649335,105.102665 164.147664,104.746168 164.715,104.4165 C165.282336,104.086832 165.956996,103.922 166.739,103.922 C167.981006,103.922 168.881831,104.328329 169.4415,105.141 C170.001169,105.953671 170.281,107.080659 170.281,108.522 L170.281,115.606 L166.9,115.606 L166.9,108.959 C166.9,108.130996 166.788834,107.563668 166.5665,107.257 C166.344166,106.950332 165.987669,106.797 165.497,106.797 C165.067665,106.797 164.699668,106.892832 164.393,107.0845 C164.086332,107.276168 163.749002,107.548332 163.381,107.901 L163.381,115.606 L160,115.606 L160,99.483 Z M173.386,117.262 C173.493334,117.292667 173.615999,117.323333 173.754,117.354 C173.892001,117.384667 174.022333,117.4 174.145,117.4 C174.712336,117.4 175.149332,117.262001 175.456,116.986 C175.762668,116.709999 175.992666,116.349669 176.146,115.905 L176.307,115.307 L171.914,104.198 L175.318,104.198 L176.951,109.097 C177.119668,109.618336 177.272999,110.147331 177.411,110.684 C177.549001,111.220669 177.694666,111.772664 177.848,112.34 L177.94,112.34 C178.062667,111.803331 178.189166,111.262836 178.3195,110.7185 C178.449834,110.174164 178.583999,109.633669 178.722,109.097 L180.102,104.198 L183.345,104.198 L179.389,115.721 C179.112999,116.44167 178.825501,117.074164 178.5265,117.6185 C178.227499,118.162836 177.882502,118.615165 177.4915,118.9755 C177.100498,119.335835 176.655836,119.607999 176.1575,119.792 C175.659164,119.976001 175.07267,120.068 174.398,120.068 C174.045332,120.068 173.746335,120.048834 173.501,120.0105 C173.255665,119.972166 173.018001,119.914667 172.788,119.838 L173.386,117.262 Z M188.497,116.503 L188.497,119.838 L185.116,119.838 L185.116,104.198 L187.876,104.198 L188.106,105.325 L188.198,105.325 C188.642669,104.926331 189.144831,104.592835 189.7045,104.3245 C190.264169,104.056165 190.842997,103.922 191.441,103.922 C192.131003,103.922 192.751997,104.059999 193.304,104.336 C193.856003,104.612001 194.323665,105.002997 194.707,105.509 C195.090335,106.015003 195.385499,106.624496 195.5925,107.3375 C195.799501,108.050504 195.903,108.843996 195.903,109.718 C195.903,110.699338 195.768835,111.569496 195.5005,112.3285 C195.232165,113.087504 194.871836,113.731497 194.4195,114.2605 C193.967164,114.789503 193.453503,115.191999 192.8785,115.468 C192.303497,115.744001 191.709336,115.882 191.096,115.882 C190.605331,115.882 190.130002,115.778501 189.67,115.5715 C189.209998,115.364499 188.780669,115.069335 188.382,114.686 L188.497,116.503 Z M188.497,112.386 C188.803668,112.662001 189.110332,112.853666 189.417,112.961 C189.723668,113.068334 190.022665,113.122 190.314,113.122 C190.89667,113.122 191.394998,112.857503 191.809,112.3285 C192.223002,111.799497 192.43,110.944673 192.43,109.764 C192.43,107.709323 191.770673,106.682 190.452,106.682 C189.792663,106.682 189.141003,107.026997 188.497,107.717 L188.497,112.386 Z M197.628,109.902 C197.628,108.981995 197.781332,108.15017 198.088,107.4065 C198.394668,106.66283 198.797164,106.034169 199.2955,105.5205 C199.793836,105.006831 200.364997,104.612001 201.009,104.336 C201.653003,104.059999 202.319997,103.922 203.01,103.922 C203.822671,103.922 204.53183,104.059999 205.1375,104.336 C205.74317,104.612001 206.249165,104.995331 206.6555,105.486 C207.061835,105.976669 207.364666,106.555497 207.564,107.2225 C207.763334,107.889503 207.863,108.613996 207.863,109.396 C207.863,109.702668 207.847667,109.982499 207.817,110.2355 C207.786333,110.488501 207.755667,110.683999 207.725,110.822 L200.894,110.822 C201.047334,111.696004 201.388497,112.328498 201.9175,112.7195 C202.446503,113.110502 203.094329,113.306 203.861,113.306 C204.673671,113.306 205.493996,113.053003 206.322,112.547 L207.449,114.594 C206.86633,114.992669 206.218504,115.306999 205.5055,115.537 C204.792496,115.767001 204.091003,115.882 203.401,115.882 C202.588329,115.882 201.829337,115.747835 201.124,115.4795 C200.418663,115.211165 199.805336,114.820169 199.284,114.3065 C198.762664,113.792831 198.356335,113.168004 198.065,112.432 C197.773665,111.695996 197.628,110.852671 197.628,109.902 Z M204.988,108.729 C204.988,108.069663 204.842335,107.533002 204.551,107.119 C204.259665,106.704998 203.769003,106.498 203.079,106.498 C202.542331,106.498 202.070835,106.678165 201.6645,107.0385 C201.258165,107.398835 200.993667,107.96233 200.871,108.729 L204.988,108.729 Z M210.209,104.198 L212.969,104.198 L213.199,106.199 L213.291,106.199 C213.705002,105.416996 214.20333,104.842002 214.786,104.474 C215.36867,104.105998 215.95133,103.922 216.534,103.922 C216.856002,103.922 217.120499,103.941166 217.3275,103.9795 C217.534501,104.017834 217.722332,104.075333 217.891,104.152 L217.339,107.073 C217.124332,107.011666 216.925001,106.965667 216.741,106.935 C216.556999,106.904333 216.342335,106.889 216.097,106.889 C215.667665,106.889 215.219169,107.042332 214.7515,107.349 C214.283831,107.655668 213.896668,108.199996 213.59,108.982 L213.59,115.606 L210.209,115.606 L210.209,104.198 Z M219.363,99.483 L222.744,99.483 L222.744,112.202 C222.744,112.554668 222.809166,112.799999 222.9395,112.938 C223.069834,113.076001 223.203999,113.145 223.342,113.145 L223.5375,113.145 C223.591167,113.145 223.664,113.129667 223.756,113.099 L224.17,115.606 C223.985999,115.682667 223.752168,115.747833 223.4685,115.8015 C223.184832,115.855167 222.851335,115.882 222.468,115.882 C221.88533,115.882 221.394669,115.790001 220.996,115.606 C220.597331,115.421999 220.279168,115.165168 220.0415,114.8355 C219.803832,114.505832 219.631334,114.107169 219.524,113.6395 C219.416666,113.171831 219.363,112.64667 219.363,112.064 L219.363,99.483 Z M227.62,102.519 C227.052664,102.519 226.585002,102.354168 226.217,102.0245 C225.848998,101.694832 225.665,101.269336 225.665,100.748 C225.665,100.226664 225.848998,99.8050016 226.217,99.483 C226.585002,99.1609984 227.052664,99 227.62,99 C228.20267,99 228.674165,99.1609984 229.0345,99.483 C229.394835,99.8050016 229.575,100.226664 229.575,100.748 C229.575,101.269336 229.394835,101.694832 229.0345,102.0245 C228.674165,102.354168 228.20267,102.519 227.62,102.519 Z M225.941,104.198 L229.322,104.198 L229.322,115.606 L225.941,115.606 L225.941,104.198 Z M232.289,104.198 L235.049,104.198 L235.279,105.647 L235.371,105.647 C235.861669,105.186998 236.39833,104.784502 236.981,104.4395 C237.56367,104.094498 238.245996,103.922 239.028,103.922 C240.270006,103.922 241.170831,104.328329 241.7305,105.141 C242.290169,105.953671 242.57,107.080659 242.57,108.522 L242.57,115.606 L239.189,115.606 L239.189,108.959 C239.189,108.130996 239.077834,107.563668 238.8555,107.257 C238.633166,106.950332 238.276669,106.797 237.786,106.797 C237.356665,106.797 236.988668,106.892832 236.682,107.0845 C236.375332,107.276168 236.038002,107.548332 235.67,107.901 L235.67,115.606 L232.289,115.606 L232.289,104.198 Z M245.445,99.483 L248.734,99.483 L248.734,108.729 L248.826,108.729 L252.437,104.198 L256.117,104.198 L252.115,108.89 L256.416,115.606 L252.759,115.606 L250.183,111.167 L248.734,112.8 L248.734,115.606 L245.445,115.606 L245.445,99.483 Z M269.273,102.105 C268.843665,101.951666 268.452668,101.875 268.1,101.875 C267.685998,101.875 267.364001,102.001499 267.134,102.2545 C266.903999,102.507501 266.789,102.92533 266.789,103.508 L266.789,104.198 L268.836,104.198 L268.836,106.843 L266.789,106.843 L266.789,115.606 L263.408,115.606 L263.408,106.843 L261.89,106.843 L261.89,104.336 L263.408,104.221 L263.408,103.6 C263.408,103.001997 263.480833,102.434669 263.6265,101.898 C263.772167,101.361331 264.013665,100.893669 264.351,100.495 C264.688335,100.096331 265.125331,99.7820011 265.662,99.552 C266.198669,99.3219989 266.850329,99.207 267.617,99.207 C268.092336,99.207 268.525498,99.2529995 268.9165,99.345 C269.307502,99.4370005 269.633332,99.5289995 269.894,99.621 L269.273,102.105 Z M269.779,109.902 C269.779,108.951329 269.932332,108.10417 270.239,107.3605 C270.545668,106.61683 270.955831,105.992003 271.4695,105.486 C271.983169,104.979997 272.57733,104.592835 273.252,104.3245 C273.92667,104.056165 274.62433,103.922 275.345,103.922 C276.06567,103.922 276.759497,104.056165 277.4265,104.3245 C278.093503,104.592835 278.683831,104.979997 279.1975,105.486 C279.711169,105.992003 280.121332,106.61683 280.428,107.3605 C280.734668,108.10417 280.888,108.951329 280.888,109.902 C280.888,110.852671 280.734668,111.69983 280.428,112.4435 C280.121332,113.18717 279.711169,113.811997 279.1975,114.318 C278.683831,114.824003 278.093503,115.211165 277.4265,115.4795 C276.759497,115.747835 276.06567,115.882 275.345,115.882 C274.62433,115.882 273.92667,115.747835 273.252,115.4795 C272.57733,115.211165 271.983169,114.824003 271.4695,114.318 C270.955831,113.811997 270.545668,113.18717 270.239,112.4435 C269.932332,111.69983 269.779,110.852671 269.779,109.902 Z M273.252,109.902 C273.252,110.898672 273.424498,111.68833 273.7695,112.271 C274.114502,112.85367 274.639663,113.145 275.345,113.145 C276.035003,113.145 276.556332,112.85367 276.909,112.271 C277.261668,111.68833 277.438,110.898672 277.438,109.902 C277.438,108.905328 277.261668,108.11567 276.909,107.533 C276.556332,106.95033 276.035003,106.659 275.345,106.659 C274.639663,106.659 274.114502,106.95033 273.7695,107.533 C273.424498,108.11567 273.252,108.905328 273.252,109.902 Z M283.211,104.198 L285.971,104.198 L286.201,106.199 L286.293,106.199 C286.707002,105.416996 287.20533,104.842002 287.788,104.474 C288.37067,104.105998 288.95333,103.922 289.536,103.922 C289.858002,103.922 290.122499,103.941166 290.3295,103.9795 C290.536501,104.017834 290.724332,104.075333 290.893,104.152 L290.341,107.073 C290.126332,107.011666 289.927001,106.965667 289.743,106.935 C289.558999,106.904333 289.344335,106.889 289.099,106.889 C288.669665,106.889 288.221169,107.042332 287.7535,107.349 C287.285831,107.655668 286.898668,108.199996 286.592,108.982 L286.592,115.606 L283.211,115.606 L283.211,104.198 Z M295.93,104.198 L299.334,104.198 L300.806,109.58 C300.959334,110.147336 301.108833,110.726164 301.2545,111.3165 C301.400167,111.906836 301.549666,112.500997 301.703,113.099 L301.795,113.099 C301.933001,112.500997 302.074833,111.906836 302.2205,111.3165 C302.366167,110.726164 302.515666,110.147336 302.669,109.58 L304.164,104.198 L307.407,104.198 L303.681,115.606 L299.771,115.606 L295.93,104.198 Z M310.857,102.519 C310.289664,102.519 309.822002,102.354168 309.454,102.0245 C309.085998,101.694832 308.902,101.269336 308.902,100.748 C308.902,100.226664 309.085998,99.8050016 309.454,99.483 C309.822002,99.1609984 310.289664,99 310.857,99 C311.43967,99 311.911165,99.1609984 312.2715,99.483 C312.631835,99.8050016 312.812,100.226664 312.812,100.748 C312.812,101.269336 312.631835,101.694832 312.2715,102.0245 C311.911165,102.354168 311.43967,102.519 310.857,102.519 Z M309.178,104.198 L312.559,104.198 L312.559,115.606 L309.178,115.606 L309.178,104.198 Z M314.928,109.902 C314.928,108.966662 315.062165,108.131004 315.3305,107.395 C315.598835,106.658996 315.951498,106.034169 316.3885,105.5205 C316.825502,105.006831 317.331497,104.612001 317.9065,104.336 C318.481503,104.059999 319.067997,103.922 319.666,103.922 C320.310003,103.922 320.838998,104.029332 321.253,104.244 C321.667002,104.458668 322.073331,104.749998 322.472,105.118 L322.334,103.37 L322.334,99.483 L325.715,99.483 L325.715,115.606 L322.955,115.606 L322.725,114.479 L322.633,114.479 C322.234331,114.877669 321.766669,115.211165 321.23,115.4795 C320.693331,115.747835 320.149003,115.882 319.597,115.882 C318.891663,115.882 318.251503,115.744001 317.6765,115.468 C317.101497,115.191999 316.610835,114.797169 316.2045,114.2835 C315.798165,113.769831 315.483834,113.145004 315.2615,112.409 C315.039166,111.672996 314.928,110.837338 314.928,109.902 Z M318.401,109.856 C318.401,110.990672 318.581165,111.818664 318.9415,112.34 C319.301835,112.861336 319.811663,113.122 320.471,113.122 C320.839002,113.122 321.172499,113.045334 321.4715,112.892 C321.770501,112.738666 322.057999,112.470335 322.334,112.087 L322.334,107.418 C322.027332,107.141999 321.713002,106.950334 321.391,106.843 C321.068998,106.735666 320.754668,106.682 320.448,106.682 C319.911331,106.682 319.436002,106.938831 319.022,107.4525 C318.607998,107.966169 318.401,108.767328 318.401,109.856 Z M328.038,109.902 C328.038,108.981995 328.191332,108.15017 328.498,107.4065 C328.804668,106.66283 329.207164,106.034169 329.7055,105.5205 C330.203836,105.006831 330.774997,104.612001 331.419,104.336 C332.063003,104.059999 332.729997,103.922 333.42,103.922 C334.232671,103.922 334.94183,104.059999 335.5475,104.336 C336.15317,104.612001 336.659165,104.995331 337.0655,105.486 C337.471835,105.976669 337.774666,106.555497 337.974,107.2225 C338.173334,107.889503 338.273,108.613996 338.273,109.396 C338.273,109.702668 338.257667,109.982499 338.227,110.2355 C338.196333,110.488501 338.165667,110.683999 338.135,110.822 L331.304,110.822 C331.457334,111.696004 331.798497,112.328498 332.3275,112.7195 C332.856503,113.110502 333.504329,113.306 334.271,113.306 C335.083671,113.306 335.903996,113.053003 336.732,112.547 L337.859,114.594 C337.27633,114.992669 336.628504,115.306999 335.9155,115.537 C335.202496,115.767001 334.501003,115.882 333.811,115.882 C332.998329,115.882 332.239337,115.747835 331.534,115.4795 C330.828663,115.211165 330.215336,114.820169 329.694,114.3065 C329.172664,113.792831 328.766335,113.168004 328.475,112.432 C328.183665,111.695996 328.038,110.852671 328.038,109.902 Z M335.398,108.729 C335.398,108.069663 335.252335,107.533002 334.961,107.119 C334.669665,106.704998 334.179003,106.498 333.489,106.498 C332.952331,106.498 332.480835,106.678165 332.0745,107.0385 C331.668165,107.398835 331.403667,107.96233 331.281,108.729 L335.398,108.729 Z M339.952,109.902 C339.952,108.951329 340.105332,108.10417 340.412,107.3605 C340.718668,106.61683 341.128831,105.992003 341.6425,105.486 C342.156169,104.979997 342.75033,104.592835 343.425,104.3245 C344.09967,104.056165 344.79733,103.922 345.518,103.922 C346.23867,103.922 346.932497,104.056165 347.5995,104.3245 C348.266503,104.592835 348.856831,104.979997 349.3705,105.486 C349.884169,105.992003 350.294332,106.61683 350.601,107.3605 C350.907668,108.10417 351.061,108.951329 351.061,109.902 C351.061,110.852671 350.907668,111.69983 350.601,112.4435 C350.294332,113.18717 349.884169,113.811997 349.3705,114.318 C348.856831,114.824003 348.266503,115.211165 347.5995,115.4795 C346.932497,115.747835 346.23867,115.882 345.518,115.882 C344.79733,115.882 344.09967,115.747835 343.425,115.4795 C342.75033,115.211165 342.156169,114.824003 341.6425,114.318 C341.128831,113.811997 340.718668,113.18717 340.412,112.4435 C340.105332,111.69983 339.952,110.852671 339.952,109.902 Z M343.425,109.902 C343.425,110.898672 343.597498,111.68833 343.9425,112.271 C344.287502,112.85367 344.812663,113.145 345.518,113.145 C346.208003,113.145 346.729332,112.85367 347.082,112.271 C347.434668,111.68833 347.611,110.898672 347.611,109.902 C347.611,108.905328 347.434668,108.11567 347.082,107.533 C346.729332,106.95033 346.208003,106.659 345.518,106.659 C344.812663,106.659 344.287502,106.95033 343.9425,107.533 C343.597498,108.11567 343.425,108.905328 343.425,109.902 Z M358.168,99.483 L361.549,99.483 L361.549,112.202 C361.549,112.554668 361.614166,112.799999 361.7445,112.938 C361.874834,113.076001 362.008999,113.145 362.147,113.145 L362.3425,113.145 C362.396167,113.145 362.469,113.129667 362.561,113.099 L362.975,115.606 C362.790999,115.682667 362.557168,115.747833 362.2735,115.8015 C361.989832,115.855167 361.656335,115.882 361.273,115.882 C360.69033,115.882 360.199669,115.790001 359.801,115.606 C359.402331,115.421999 359.084168,115.165168 358.8465,114.8355 C358.608832,114.505832 358.436334,114.107169 358.329,113.6395 C358.221666,113.171831 358.168,112.64667 358.168,112.064 L358.168,99.483 Z M366.425,102.519 C365.857664,102.519 365.390002,102.354168 365.022,102.0245 C364.653998,101.694832 364.47,101.269336 364.47,100.748 C364.47,100.226664 364.653998,99.8050016 365.022,99.483 C365.390002,99.1609984 365.857664,99 366.425,99 C367.00767,99 367.479165,99.1609984 367.8395,99.483 C368.199835,99.8050016 368.38,100.226664 368.38,100.748 C368.38,101.269336 368.199835,101.694832 367.8395,102.0245 C367.479165,102.354168 367.00767,102.519 366.425,102.519 Z M364.746,104.198 L368.127,104.198 L368.127,115.606 L364.746,115.606 L364.746,104.198 Z M373.164,117.032 C373.164,117.461335 373.393998,117.787166 373.854,118.0095 C374.314002,118.231834 374.927329,118.343 375.694,118.343 C376.46067,118.343 377.089331,118.208835 377.58,117.9405 C378.070669,117.672165 378.316,117.338669 378.316,116.94 C378.316,116.587332 378.166501,116.349667 377.8675,116.227 C377.568499,116.104333 377.135336,116.043 376.568,116.043 L375.395,116.043 C374.996331,116.043 374.674335,116.0315 374.429,116.0085 C374.183665,115.9855 373.969001,115.951 373.785,115.905 C373.370998,116.273002 373.164,116.648665 373.164,117.032 Z M370.381,117.561 C370.381,116.640995 370.925328,115.874336 372.014,115.261 L372.014,115.169 C371.707332,114.969666 371.454334,114.716668 371.255,114.41 C371.055666,114.103332 370.956,113.712336 370.956,113.237 C370.956,112.822998 371.078665,112.428169 371.324,112.0525 C371.569335,111.676831 371.875998,111.358668 372.244,111.098 L372.244,111.006 C371.845331,110.729999 371.488835,110.335169 371.1745,109.8215 C370.860165,109.307831 370.703,108.71367 370.703,108.039 C370.703,107.348997 370.833332,106.747169 371.094,106.2335 C371.354668,105.719831 371.703498,105.290502 372.1405,104.9455 C372.577502,104.600498 373.079664,104.343668 373.647,104.175 C374.214336,104.006332 374.804664,103.922 375.418,103.922 C376.09267,103.922 376.682997,104.013999 377.189,104.198 L381.352,104.198 L381.352,106.659 L379.535,106.659 C379.642334,106.827668 379.7305,107.042332 379.7995,107.303 C379.8685,107.563668 379.903,107.847332 379.903,108.154 C379.903,108.813337 379.788001,109.384498 379.558,109.8675 C379.327999,110.350502 379.009835,110.749165 378.6035,111.0635 C378.197165,111.377835 377.721836,111.611666 377.1775,111.765 C376.633164,111.918334 376.04667,111.995 375.418,111.995 C374.973331,111.995 374.513336,111.918334 374.038,111.765 C373.884666,111.887667 373.777334,112.010333 373.716,112.133 C373.654666,112.255667 373.624,112.416666 373.624,112.616 C373.624,112.907335 373.750499,113.121999 374.0035,113.26 C374.256501,113.398001 374.704997,113.467 375.349,113.467 L377.189,113.467 C378.599674,113.467 379.67683,113.693164 380.4205,114.1455 C381.16417,114.597836 381.536,115.337662 381.536,116.365 C381.536,116.963003 381.386501,117.511164 381.0875,118.0095 C380.788499,118.507836 380.363003,118.937165 379.811,119.2975 C379.258997,119.657835 378.592004,119.941499 377.81,120.1485 C377.027996,120.355501 376.146338,120.459 375.165,120.459 C374.49033,120.459 373.865503,120.401501 373.2905,120.2865 C372.715497,120.171499 372.209502,119.999001 371.7725,119.769 C371.335498,119.538999 370.994335,119.240002 370.749,118.872 C370.503665,118.503998 370.381,118.067003 370.381,117.561 Z M375.418,109.948 C375.862669,109.948 376.234499,109.790835 376.5335,109.4765 C376.832501,109.162165 376.982,108.683003 376.982,108.039 C376.982,107.440997 376.832501,106.984835 376.5335,106.6705 C376.234499,106.356165 375.862669,106.199 375.418,106.199 C374.973331,106.199 374.601501,106.352332 374.3025,106.659 C374.003499,106.965668 373.854,107.425664 373.854,108.039 C373.854,108.683003 374.003499,109.162165 374.3025,109.4765 C374.601501,109.790835 374.973331,109.948 375.418,109.948 Z M383.376,99.483 L386.757,99.483 L386.757,103.439 L386.596,105.486 C387.025335,105.102665 387.523664,104.746168 388.091,104.4165 C388.658336,104.086832 389.332996,103.922 390.115,103.922 C391.357006,103.922 392.257831,104.328329 392.8175,105.141 C393.377169,105.953671 393.657,107.080659 393.657,108.522 L393.657,115.606 L390.276,115.606 L390.276,108.959 C390.276,108.130996 390.164834,107.563668 389.9425,107.257 C389.720166,106.950332 389.363669,106.797 388.873,106.797 C388.443665,106.797 388.075668,106.892832 387.769,107.0845 C387.462332,107.276168 387.125002,107.548332 386.757,107.901 L386.757,115.606 L383.376,115.606 L383.376,99.483 Z M396.969,106.843 L395.405,106.843 L395.405,104.336 L397.153,104.198 L397.544,101.162 L400.35,101.162 L400.35,104.198 L403.087,104.198 L403.087,106.843 L400.35,106.843 L400.35,111.42 C400.35,112.064003 400.484165,112.527832 400.7525,112.8115 C401.020835,113.095168 401.377331,113.237 401.822,113.237 C402.006001,113.237 402.193832,113.214 402.3855,113.168 C402.577168,113.122 402.749666,113.068334 402.903,113.007 L403.432,115.468 C403.125332,115.56 402.765002,115.652 402.351,115.744 C401.936998,115.836 401.454003,115.882 400.902,115.882 C400.196663,115.882 399.594836,115.774668 399.0965,115.56 C398.598164,115.345332 398.191835,115.046335 397.8775,114.663 C397.563165,114.279665 397.333167,113.815836 397.1875,113.2715 C397.041833,112.727164 396.969,112.125337 396.969,111.466 L396.969,106.843 Z M405.318,99.483 L408.699,99.483 L408.699,103.439 L408.607,105.187 C409.051669,104.788331 409.530831,104.477834 410.0445,104.2555 C410.558169,104.033166 411.083331,103.922 411.62,103.922 C412.310003,103.922 412.930997,104.059999 413.483,104.336 C414.035003,104.612001 414.506498,104.999164 414.8975,105.4975 C415.288502,105.995836 415.587499,106.601496 415.7945,107.3145 C416.001501,108.027504 416.105,108.820996 416.105,109.695 C416.105,110.676338 415.970835,111.550329 415.7025,112.317 C415.434165,113.083671 415.073836,113.731497 414.6215,114.2605 C414.169164,114.789503 413.655503,115.191999 413.0805,115.468 C412.505497,115.744001 411.911336,115.882 411.298,115.882 C410.791997,115.882 410.282169,115.759335 409.7685,115.514 C409.254831,115.268665 408.775669,114.900669 408.331,114.41 L408.239,114.41 L407.963,115.606 L405.318,115.606 L405.318,99.483 Z M408.699,112.386 C409.005668,112.662001 409.312332,112.853666 409.619,112.961 C409.925668,113.068334 410.224665,113.122 410.516,113.122 C411.09867,113.122 411.596998,112.857503 412.011,112.3285 C412.425002,111.799497 412.632,110.944673 412.632,109.764 C412.632,107.709323 411.972673,106.682 410.654,106.682 C409.97933,106.682 409.32767,107.026997 408.699,107.717 L408.699,112.386 Z M417.83,109.902 C417.83,108.951329 417.983332,108.10417 418.29,107.3605 C418.596668,106.61683 419.006831,105.992003 419.5205,105.486 C420.034169,104.979997 420.62833,104.592835 421.303,104.3245 C421.97767,104.056165 422.67533,103.922 423.396,103.922 C424.11667,103.922 424.810497,104.056165 425.4775,104.3245 C426.144503,104.592835 426.734831,104.979997 427.2485,105.486 C427.762169,105.992003 428.172332,106.61683 428.479,107.3605 C428.785668,108.10417 428.939,108.951329 428.939,109.902 C428.939,110.852671 428.785668,111.69983 428.479,112.4435 C428.172332,113.18717 427.762169,113.811997 427.2485,114.318 C426.734831,114.824003 426.144503,115.211165 425.4775,115.4795 C424.810497,115.747835 424.11667,115.882 423.396,115.882 C422.67533,115.882 421.97767,115.747835 421.303,115.4795 C420.62833,115.211165 420.034169,114.824003 419.5205,114.318 C419.006831,113.811997 418.596668,113.18717 418.29,112.4435 C417.983332,111.69983 417.83,110.852671 417.83,109.902 Z M421.303,109.902 C421.303,110.898672 421.475498,111.68833 421.8205,112.271 C422.165502,112.85367 422.690663,113.145 423.396,113.145 C424.086003,113.145 424.607332,112.85367 424.96,112.271 C425.312668,111.68833 425.489,110.898672 425.489,109.902 C425.489,108.905328 425.312668,108.11567 424.96,107.533 C424.607332,106.95033 424.086003,106.659 423.396,106.659 C422.690663,106.659 422.165502,106.95033 421.8205,107.533 C421.475498,108.11567 421.303,108.905328 421.303,109.902 Z M432.987,109.672 L429.698,104.198 L433.332,104.198 L434.344,106.038 C434.497334,106.360002 434.654499,106.685832 434.8155,107.0155 C434.976501,107.345168 435.141332,107.670998 435.31,107.993 L435.402,107.993 C435.524667,107.670998 435.654999,107.345168 435.793,107.0155 C435.931001,106.685832 436.061333,106.360002 436.184,106.038 L436.966,104.198 L440.462,104.198 L437.15,110.063 L440.669,115.606 L437.035,115.606 L435.931,113.72 C435.746999,113.397998 435.566834,113.068335 435.3905,112.731 C435.214166,112.393665 435.034001,112.064002 434.85,111.742 L434.758,111.742 C434.619999,112.064002 434.474334,112.389832 434.321,112.7195 C434.167666,113.049168 434.022001,113.382665 433.884,113.72 L432.987,115.606 L429.491,115.606 L432.987,109.672 Z" id="Text-with-image-and" fill="#79797B"></path>
            <path d="M109.5,145 L491.51178,145" id="Line" stroke="#D7D9D9" stroke-width="6" stroke-linecap="square"></path>
            <path d="M171.5,162 L429.007767,162" id="Line" stroke="#D7D9D9" stroke-width="6" stroke-linecap="square"></path>
            <use id="Rectangle-9" stroke="#979797" mask="url(#mask-2)" stroke-width="2" fill="#F2F2F2" stroke-dasharray="4" xlink:href="#path-1"></use>
            <g id="icon-picture" opacity="0.699999988" transform="translate(270.000000, 334.000000)" stroke="#979797">
                <polyline id="Path-15" stroke-width="2" points="1.27086707 36.8577552 21.6022189 15.6769033 35.892556 30.6899669 44.262713 21.8964934 60.1071177 38.5422208"></polyline>
                <circle id="Oval-6" fill="#D8D8D8" cx="50" cy="11" r="3"></circle>
                <rect id="Rectangle-10" stroke-width="2" x="1" y="1" width="59" height="41" rx="3"></rect>
            </g>
            <path d="M275,226.12426 L277.464497,226.12426 C277.830377,226.12426 278.173815,226.160503 278.494822,226.232988 C278.81583,226.305474 279.095413,226.426281 279.33358,226.595414 C279.571747,226.764547 279.759861,226.988904 279.897929,227.268491 C280.035997,227.548078 280.10503,227.891517 280.10503,228.298817 C280.10503,228.69231 280.034271,229.034022 279.892751,229.323964 C279.751232,229.613907 279.559666,229.85207 279.318047,230.038462 C279.076429,230.224853 278.796846,230.362919 278.47929,230.452663 C278.161734,230.542407 277.823473,230.587278 277.464497,230.587278 L276.522189,230.587278 L276.522189,232.87574 L275,232.87574 L275,226.12426 Z M277.371302,229.37574 C278.199708,229.37574 278.613905,229.016769 278.613905,228.298817 C278.613905,227.946744 278.50863,227.698226 278.298077,227.553254 C278.087524,227.408283 277.778602,227.335799 277.371302,227.335799 L276.522189,227.335799 L276.522189,229.37574 L277.371302,229.37574 Z M281.275148,226.12426 L282.797337,226.12426 L282.797337,231.591716 L285.468935,231.591716 L285.468935,232.87574 L281.275148,232.87574 L281.275148,226.12426 Z M289.434911,230.079882 L289.279586,229.45858 C289.182938,229.120314 289.089744,228.761343 289,228.381657 C288.910256,228.00197 288.820513,227.636096 288.730769,227.284024 L288.689349,227.284024 C288.606508,227.643 288.521943,228.0106 288.435651,228.386834 C288.349359,228.763069 288.25789,229.120314 288.161243,229.45858 L287.995562,230.079882 L289.434911,230.079882 Z M289.745562,231.27071 L287.684911,231.27071 L287.27071,232.87574 L285.717456,232.87574 L287.829882,226.12426 L289.662722,226.12426 L291.775148,232.87574 L290.159763,232.87574 L289.745562,231.27071 Z M293.483728,230.473373 L291.443787,226.12426 L293.079882,226.12426 L293.680473,227.677515 C293.777121,227.93294 293.868589,228.179733 293.954882,228.417899 C294.041174,228.656066 294.132643,228.90631 294.22929,229.168639 L294.27071,229.168639 C294.367357,228.90631 294.462278,228.656066 294.555473,228.417899 C294.648669,228.179733 294.743589,227.93294 294.840237,227.677515 L295.451183,226.12426 L297.045858,226.12426 L295.005917,230.473373 L295.005917,232.87574 L293.483728,232.87574 L293.483728,230.473373 Z M299.044379,226.12426 L300.659763,226.12426 L301.467456,229.272189 C301.571006,229.644972 301.662475,230.005669 301.741864,230.35429 C301.821253,230.702911 301.912721,231.063608 302.016272,231.436391 L302.057692,231.436391 C302.15434,231.063608 302.244082,230.702911 302.326923,230.35429 C302.409764,230.005669 302.499506,229.644972 302.596154,229.272189 L303.393491,226.12426 L304.946746,226.12426 L302.91716,232.87574 L301.08432,232.87574 L299.044379,226.12426 Z M305.671598,226.12426 L307.193787,226.12426 L307.193787,232.87574 L305.671598,232.87574 L305.671598,226.12426 Z M308.788462,226.12426 L310.693787,226.12426 C311.211541,226.12426 311.677513,226.189842 312.091716,226.321006 C312.505919,226.45217 312.861438,226.654091 313.158284,226.926775 C313.45513,227.199459 313.682938,227.546349 313.841716,227.967456 C314.000494,228.388562 314.079882,228.88905 314.079882,229.468935 C314.079882,230.048819 314.000494,230.552759 313.841716,230.980769 C313.682938,231.408779 313.458581,231.762573 313.168639,232.04216 C312.878697,232.321747 312.531807,232.530571 312.127959,232.668639 C311.72411,232.806707 311.273671,232.87574 310.776627,232.87574 L308.788462,232.87574 L308.788462,226.12426 Z M310.600592,231.643491 C310.890534,231.643491 311.152859,231.605523 311.387574,231.529586 C311.622289,231.453649 311.822484,231.331115 311.988166,231.161982 C312.153847,230.992849 312.283284,230.770218 312.376479,230.494083 C312.469675,230.217947 312.516272,229.876235 312.516272,229.468935 C312.516272,229.068538 312.469675,228.732003 312.376479,228.45932 C312.283284,228.186636 312.153847,227.969182 311.988166,227.806953 C311.822484,227.644723 311.622289,227.529093 311.387574,227.460059 C311.152859,227.391025 310.890534,227.356509 310.600592,227.356509 L310.310651,227.356509 L310.310651,231.643491 L310.600592,231.643491 Z M315.363905,226.12426 L319.588757,226.12426 L319.588757,227.408284 L316.886095,227.408284 L316.886095,228.764793 L319.184911,228.764793 L319.184911,230.038462 L316.886095,230.038462 L316.886095,231.591716 L319.692308,231.591716 L319.692308,232.87574 L315.363905,232.87574 L315.363905,226.12426 Z M323.782544,233 C323.326921,233 322.910998,232.918886 322.534763,232.756657 C322.158529,232.594427 321.8358,232.361441 321.566568,232.057692 C321.297336,231.753943 321.088512,231.384618 320.940089,230.949704 C320.791666,230.514791 320.717456,230.021206 320.717456,229.468935 C320.717456,228.916664 320.791666,228.424805 320.940089,227.993343 C321.088512,227.561881 321.297336,227.199459 321.566568,226.906065 C321.8358,226.612671 322.158529,226.388314 322.534763,226.232988 C322.910998,226.077662 323.326921,226 323.782544,226 C324.238168,226 324.654091,226.077662 325.030325,226.232988 C325.40656,226.388314 325.729289,226.614397 325.998521,226.911243 C326.267753,227.208088 326.476577,227.572237 326.625,228.003698 C326.773423,228.43516 326.847633,228.923567 326.847633,229.468935 C326.847633,230.021206 326.773423,230.514791 326.625,230.949704 C326.476577,231.384618 326.267753,231.753943 325.998521,232.057692 C325.729289,232.361441 325.40656,232.594427 325.030325,232.756657 C324.654091,232.918886 324.238168,233 323.782544,233 Z M323.782544,231.684911 C324.245071,231.684911 324.610945,231.486442 324.880178,231.089497 C325.14941,230.692552 325.284024,230.15237 325.284024,229.468935 C325.284024,228.792403 325.14941,228.264302 324.880178,227.884615 C324.610945,227.504929 324.245071,227.315089 323.782544,227.315089 C323.320017,227.315089 322.954143,227.504929 322.684911,227.884615 C322.415679,228.264302 322.281065,228.792403 322.281065,229.468935 C322.281065,230.15237 322.415679,230.692552 322.684911,231.089497 C322.954143,231.486442 323.320017,231.684911 323.782544,231.684911 Z" id="PLAY-VIDEO" fill="#4990E2"></path>
            <g id="Group-14" transform="translate(287.000000, 188.000000)">
                <polygon id="Triangle" fill="#4990E2" points="18.3829787 13.787234 10.3404255 17.8085106 10.3404255 9.76595745"></polygon>
                <circle id="Oval" stroke="#4990E2" stroke-width="3" cx="13.5" cy="13.5" r="13.5"></circle>
            </g>
        </g>
    </g>
</svg>