<?xml version="1.0" encoding="UTF-8"?>
<svg width="600px" height="293px" viewBox="0 0 600 293" version="1.1" xmlns="http://www.w3.org/2000/svg" xmlns:xlink="http://www.w3.org/1999/xlink">
    <!-- Generator: Sketch 44.1 (41455) - http://www.bohemiancoding.com/sketch -->
    <title>image_text09</title>
    <desc>Created with Sketch.</desc>
    <defs>
        <rect id="path-1" x="0" y="0" width="187.948505" height="125.103351"></rect>
        <mask id="mask-2" maskContentUnits="userSpaceOnUse" maskUnits="objectBoundingBox" x="0" y="0" width="187.948505" height="125.103351" fill="white">
            <use xlink:href="#path-1"></use>
        </mask>
        <rect id="path-3" x="0" y="0" width="187.948505" height="125.103351"></rect>
        <mask id="mask-4" maskContentUnits="userSpaceOnUse" maskUnits="objectBoundingBox" x="0" y="0" width="187.948505" height="125.103351" fill="white">
            <use xlink:href="#path-3"></use>
        </mask>
    </defs>
    <g id="Image/Text-Blocks" stroke="none" stroke-width="1" fill="none" fill-rule="evenodd">
        <g id="09" transform="translate(0.000000, 1.000000)">
            <path d="M3.65980066,4.48106312 L0.448504983,4.48106312 L0.448504983,2.25647841 L9.52624585,2.25647841 L9.52624585,4.48106312 L6.31495017,4.48106312 L6.31495017,13.9534884 L3.65980066,13.9534884 L3.65980066,4.48106312 Z M10.620598,9.50431894 C10.620598,8.78670738 10.7401981,8.13787665 10.979402,7.55780731 C11.2186058,6.97773796 11.5325562,6.48737742 11.9212625,6.08671096 C12.3099687,5.68604451 12.7554792,5.37807417 13.2578073,5.1627907 C13.7601354,4.94750723 14.280396,4.83986711 14.8186047,4.83986711 C15.4524949,4.83986711 16.0056455,4.94750723 16.4780731,5.1627907 C16.9505007,5.37807417 17.3451811,5.6770745 17.6621262,6.05980066 C17.9790714,6.44252683 18.2152816,6.89401733 18.3707641,7.41428571 C18.5262466,7.9345541 18.6039867,8.49966472 18.6039867,9.10963455 C18.6039867,9.34883841 18.5920267,9.56710865 18.5681063,9.76445183 C18.5441859,9.96179501 18.5202659,10.1142852 18.4963455,10.2219269 L13.1681063,10.2219269 C13.2877082,10.9036579 13.5538185,11.3970084 13.9664452,11.7019934 C14.3790718,12.0069783 14.8843824,12.1594684 15.482392,12.1594684 C16.1162822,12.1594684 16.756143,11.9621282 17.4019934,11.5674419 L18.2810631,13.1641196 C17.8265758,13.4750846 17.3212652,13.7202649 16.7651163,13.8996678 C16.2089673,14.0790707 15.6617967,14.1687708 15.123588,14.1687708 C14.4896978,14.1687708 13.8976772,14.0641206 13.3475083,13.8548173 C12.7973394,13.6455139 12.3189389,13.3405336 11.9122924,12.9398671 C11.5056458,12.5392007 11.1887055,12.0518301 10.9614618,11.4777409 C10.7342181,10.9036516 10.620598,10.2458509 10.620598,9.50431894 Z M16.3614618,8.58936877 C16.3614618,8.07508049 16.2478417,7.65648002 16.020598,7.33355482 C15.7933543,7.01062961 15.4106339,6.84916944 14.8724252,6.84916944 C14.4538185,6.84916944 14.0860481,6.98969959 13.769103,7.27076412 C13.4521579,7.55182865 13.2458477,7.99135914 13.1501661,8.58936877 L16.3614618,8.58936877 Z M22.2458472,9.32491694 L19.6803987,5.0551495 L22.5149502,5.0551495 L23.3043189,6.49036545 C23.4239209,6.7415295 23.546511,6.99567978 23.672093,7.25282392 C23.797675,7.50996806 23.9262452,7.76411835 24.0578073,8.01528239 L24.1295681,8.01528239 C24.2252496,7.76411835 24.3269098,7.50996806 24.4345515,7.25282392 C24.5421932,6.99567978 24.6438533,6.7415295 24.7395349,6.49036545 L25.3495017,5.0551495 L28.076412,5.0551495 L25.4930233,9.62990033 L28.2378738,13.9534884 L25.4033223,13.9534884 L24.5421927,12.482392 C24.3986704,12.231228 24.2581402,11.9740877 24.120598,11.7109635 C23.9830558,11.4478392 23.8425256,11.1906989 23.6990033,10.9395349 L23.6272425,10.9395349 C23.5196008,11.1906989 23.4059807,11.4448492 23.2863787,11.7019934 C23.1667768,11.9591375 23.0531567,12.2192678 22.945515,12.482392 L22.2458472,13.9534884 L19.5189369,13.9534884 L22.2458472,9.32491694 Z M30.0139535,7.11827243 L28.7940199,7.11827243 L28.7940199,5.1627907 L30.1574751,5.0551495 L30.4624585,2.68704319 L32.6511628,2.68704319 L32.6511628,5.0551495 L34.7860465,5.0551495 L34.7860465,7.11827243 L32.6511628,7.11827243 L32.6511628,10.6883721 C32.6511628,11.1907002 32.7558129,11.5524906 32.9651163,11.7737542 C33.1744197,11.9950177 33.45249,12.1056478 33.7993355,12.1056478 C33.9428579,12.1056478 34.089368,12.0877078 34.2388704,12.0518272 C34.3883728,12.0159467 34.522923,11.9740866 34.6425249,11.9262458 L35.0551495,13.8458472 C34.8159456,13.9176083 34.5348853,13.9893684 34.2119601,14.0611296 C33.8890349,14.1328907 33.5122945,14.1687708 33.0817276,14.1687708 C32.5315587,14.1687708 32.0621282,14.0850507 31.6734219,13.917608 C31.2847157,13.7501653 30.9677753,13.516945 30.7225914,13.2179402 C30.4774074,12.9189354 30.2980072,12.557145 30.1843854,12.1325581 C30.0707636,11.7079713 30.0139535,11.2385408 30.0139535,10.7242525 L30.0139535,7.11827243 Z M39.5222591,5.0551495 L42.1415282,5.0551495 L43.0026578,9.18139535 C43.074419,9.62392248 43.140199,10.060463 43.2,10.4910299 C43.259801,10.9215968 43.325581,11.3641173 43.3973422,11.8186047 L43.469103,11.8186047 C43.5528243,11.3641173 43.6335544,10.9156168 43.7112957,10.4730897 C43.7890369,10.0305626 43.881727,9.60000209 43.9893688,9.18139535 L44.9760797,5.0551495 L47.254485,5.0551495 L48.2591362,9.18139535 C48.3667779,9.62392248 48.4624581,10.060463 48.5461794,10.4910299 C48.6299008,10.9215968 48.7196009,11.3641173 48.8152824,11.8186047 L48.8870432,11.8186047 C48.9707645,11.3641173 49.0395346,10.9215968 49.0933555,10.4910299 C49.1471763,10.060463 49.2159464,9.62392248 49.2996678,9.18139535 L50.1428571,5.0551495 L52.5827243,5.0551495 L50.4478405,13.9534884 L47.3621262,13.9534884 L46.5548173,10.4013289 C46.4591357,9.98272216 46.3754156,9.56412169 46.3036545,9.14551495 C46.2318933,8.72690821 46.1541532,8.27840771 46.0704319,7.8 L45.9986711,7.8 C45.9149497,8.27840771 45.8401997,8.72690821 45.7744186,9.14551495 C45.7086375,9.56412169 45.6338875,9.98272216 45.5501661,10.4013289 L44.7607973,13.9534884 L41.7468439,13.9534884 L39.5222591,5.0551495 Z M55.4890365,3.74551495 C55.0465094,3.74551495 54.681729,3.61694481 54.3946844,3.35980066 C54.1076398,3.10265652 53.9641196,2.77076615 53.9641196,2.3641196 C53.9641196,1.95747305 54.1076398,1.62857268 54.3946844,1.37740864 C54.681729,1.12624459 55.0465094,1.00066445 55.4890365,1.00066445 C55.9435239,1.00066445 56.3112943,1.12624459 56.5923588,1.37740864 C56.8734233,1.62857268 57.0139535,1.95747305 57.0139535,2.3641196 C57.0139535,2.77076615 56.8734233,3.10265652 56.5923588,3.35980066 C56.3112943,3.61694481 55.9435239,3.74551495 55.4890365,3.74551495 Z M54.179402,5.0551495 L56.8166113,5.0551495 L56.8166113,13.9534884 L54.179402,13.9534884 L54.179402,5.0551495 Z M59.489701,7.11827243 L58.2697674,7.11827243 L58.2697674,5.1627907 L59.6332226,5.0551495 L59.938206,2.68704319 L62.1269103,2.68704319 L62.1269103,5.0551495 L64.261794,5.0551495 L64.261794,7.11827243 L62.1269103,7.11827243 L62.1269103,10.6883721 C62.1269103,11.1907002 62.2315604,11.5524906 62.4408638,11.7737542 C62.6501672,11.9950177 62.9282375,12.1056478 63.2750831,12.1056478 C63.4186054,12.1056478 63.5651155,12.0877078 63.7146179,12.0518272 C63.8641203,12.0159467 63.9986705,11.9740866 64.1182724,11.9262458 L64.530897,13.8458472 C64.2916932,13.9176083 64.0106328,13.9893684 63.6877076,14.0611296 C63.3647824,14.1328907 62.988042,14.1687708 62.5574751,14.1687708 C62.0073062,14.1687708 61.5378757,14.0850507 61.1491694,13.917608 C60.7604632,13.7501653 60.4435228,13.516945 60.1983389,13.2179402 C59.9531549,12.9189354 59.7737547,12.557145 59.6601329,12.1325581 C59.5465111,11.7079713 59.489701,11.2385408 59.489701,10.7242525 L59.489701,7.11827243 Z M66.0019934,1.37740864 L68.6392027,1.37740864 L68.6392027,4.46312292 L68.5136213,6.05980066 C68.8485067,5.76079585 69.2372071,5.48272554 69.6797342,5.2255814 C70.1222613,4.96843725 70.6485019,4.83986711 71.2584718,4.83986711 C72.2272474,4.83986711 72.9298981,5.15680746 73.3664452,5.79069767 C73.8029922,6.42458789 74.0212625,7.30364886 74.0212625,8.42790698 L74.0212625,13.9534884 L71.3840532,13.9534884 L71.3840532,8.76877076 C71.3840532,8.12292036 71.2973431,7.68039987 71.1239203,7.44119601 C70.9504975,7.20199216 70.6724272,7.08239203 70.289701,7.08239203 C69.9548156,7.08239203 69.6677753,7.15714211 69.4285714,7.30664452 C69.1893676,7.45614693 68.9262473,7.66843716 68.6392027,7.94352159 L68.6392027,13.9534884 L66.0019934,13.9534884 L66.0019934,1.37740864 Z M81.2870432,3.74551495 C80.8445161,3.74551495 80.4797357,3.61694481 80.192691,3.35980066 C79.9056464,3.10265652 79.7621262,2.77076615 79.7621262,2.3641196 C79.7621262,1.95747305 79.9056464,1.62857268 80.192691,1.37740864 C80.4797357,1.12624459 80.8445161,1.00066445 81.2870432,1.00066445 C81.7415305,1.00066445 82.1093009,1.12624459 82.3903654,1.37740864 C82.67143,1.62857268 82.8119601,1.95747305 82.8119601,2.3641196 C82.8119601,2.77076615 82.67143,3.10265652 82.3903654,3.35980066 C82.1093009,3.61694481 81.7415305,3.74551495 81.2870432,3.74551495 Z M79.9774086,5.0551495 L82.6146179,5.0551495 L82.6146179,13.9534884 L79.9774086,13.9534884 L79.9774086,5.0551495 Z M84.9289037,5.0551495 L87.0817276,5.0551495 L87.2611296,6.20332226 L87.3328904,6.20332226 C87.7036563,5.83255629 88.0983368,5.51262593 88.5169435,5.24352159 C88.9355503,4.97441726 89.4378708,4.83986711 90.0239203,4.83986711 C90.6578105,4.83986711 91.169101,4.96843725 91.5578073,5.2255814 C91.9465136,5.48272554 92.2544839,5.85049595 92.4817276,6.32890365 C92.8764139,5.9222571 93.2920244,5.57242671 93.7285714,5.27940199 C94.1651185,4.98637727 94.682389,4.83986711 95.2803987,4.83986711 C96.2372141,4.83986711 96.9398649,5.15979747 97.3883721,5.79966777 C97.8368793,6.43953808 98.0611296,7.31560906 98.0611296,8.42790698 L98.0611296,13.9534884 L95.4239203,13.9534884 L95.4239203,8.76877076 C95.4239203,8.12292036 95.3372102,7.68039987 95.1637874,7.44119601 C94.9903646,7.20199216 94.7122943,7.08239203 94.3295681,7.08239203 C93.887041,7.08239203 93.3787404,7.36943235 92.8046512,7.94352159 L92.8046512,13.9534884 L90.1674419,13.9534884 L90.1674419,8.76877076 C90.1674419,8.12292036 90.0807318,7.68039987 89.907309,7.44119601 C89.7338862,7.20199216 89.4558159,7.08239203 89.0730897,7.08239203 C88.6186024,7.08239203 88.1162818,7.36943235 87.566113,7.94352159 L87.566113,13.9534884 L84.9289037,13.9534884 L84.9289037,5.0551495 Z M99.9807309,11.4777409 C99.9807309,10.5448458 100.375411,9.81528502 101.164784,9.28903654 C101.954157,8.76278807 103.227898,8.40996767 104.986047,8.23056478 C104.962126,7.83587843 104.842526,7.52192808 104.627243,7.28870432 C104.411959,7.05548056 104.065119,6.93887043 103.586711,6.93887043 C103.203985,6.93887043 102.821264,7.01063051 102.438538,7.15415282 C102.055812,7.29767514 101.649172,7.49501536 101.218605,7.7461794 L100.285714,6.00598007 C100.859804,5.65913448 101.460794,5.37807417 102.088704,5.1627907 C102.716614,4.94750723 103.383385,4.83986711 104.089037,4.83986711 C105.237215,4.83986711 106.113286,5.16577747 106.717276,5.81760797 C107.321265,6.46943848 107.623256,7.4830496 107.623256,8.85847176 L107.623256,13.9534884 L105.470432,13.9534884 L105.27309,13.0385382 L105.219269,13.0385382 C104.836543,13.3734236 104.432892,13.6455139 104.008306,13.8548173 C103.583719,14.0641206 103.120268,14.1687708 102.61794,14.1687708 C102.211294,14.1687708 101.846513,14.1000007 101.523588,13.9624585 C101.200663,13.8249163 100.925583,13.633556 100.698339,13.3883721 C100.471095,13.1431881 100.294685,12.8591378 100.169103,12.5362126 C100.043521,12.2132874 99.9807309,11.860467 99.9807309,11.4777409 Z M102.492359,11.2803987 C102.492359,11.5674433 102.585049,11.7797335 102.770432,11.9172757 C102.955815,12.054818 103.203985,12.123588 103.51495,12.123588 C103.825915,12.123588 104.089035,12.057808 104.304319,11.9262458 C104.519602,11.7946837 104.746843,11.6093035 104.986047,11.3700997 L104.986047,9.80930233 C104.041191,9.94086445 103.389371,10.1322247 103.030565,10.3833887 C102.671759,10.6345528 102.492359,10.9335531 102.492359,11.2803987 Z M111.498339,15.0657807 C111.498339,15.4006661 111.677739,15.6548164 112.036545,15.8282392 C112.395351,16.001662 112.873751,16.0883721 113.471761,16.0883721 C114.06977,16.0883721 114.560131,15.983722 114.942857,15.7744186 C115.325583,15.5651152 115.516944,15.3049849 115.516944,14.9940199 C115.516944,14.7189355 115.400333,14.5335553 115.16711,14.4378738 C114.933886,14.3421922 114.596016,14.2943522 114.153488,14.2943522 L113.238538,14.2943522 C112.927573,14.2943522 112.676413,14.2853821 112.48505,14.2674419 C112.293687,14.2495016 112.126247,14.2225915 111.982724,14.186711 C111.659799,14.4737556 111.498339,14.7667759 111.498339,15.0657807 Z M109.327575,15.4784053 C109.327575,14.7607938 109.752155,14.1627931 110.601329,13.6843854 L110.601329,13.6126246 C110.362125,13.4571421 110.164785,13.2598019 110.009302,13.020598 C109.85382,12.7813942 109.77608,12.4764138 109.77608,12.1056478 C109.77608,11.7827226 109.87176,11.4747523 110.063123,11.1817276 C110.254486,10.8887029 110.493686,10.6405326 110.780731,10.4372093 L110.780731,10.3654485 C110.469766,10.150165 110.191696,9.84219469 109.946512,9.44152824 C109.701328,9.04086178 109.578738,8.57741127 109.578738,8.05116279 C109.578738,7.51295412 109.680398,7.0435236 109.883721,6.64285714 C110.087044,6.24219069 110.359135,5.90731032 110.7,5.63820598 C111.040865,5.36910164 111.432556,5.16877142 111.875083,5.0372093 C112.31761,4.90564718 112.778071,4.83986711 113.256478,4.83986711 C113.782727,4.83986711 114.243187,4.91162719 114.637874,5.0551495 L117.88505,5.0551495 L117.88505,6.97475083 L116.467774,6.97475083 C116.551495,7.10631295 116.620266,7.27375314 116.674086,7.47707641 C116.727907,7.68039969 116.754817,7.90165993 116.754817,8.14086379 C116.754817,8.65515207 116.665117,9.10066257 116.485714,9.47740864 C116.306311,9.85415471 116.058141,10.1651151 115.741196,10.410299 C115.424251,10.655483 115.05349,10.8378732 114.628904,10.9574751 C114.204317,11.077077 113.746846,11.1368771 113.256478,11.1368771 C112.909633,11.1368771 112.550832,11.077077 112.180066,10.9574751 C112.060465,11.0531566 111.976744,11.1488367 111.928904,11.2445183 C111.881063,11.3401998 111.857143,11.46578 111.857143,11.6212625 C111.857143,11.8485061 111.955813,12.0159463 112.153156,12.123588 C112.350499,12.2312298 112.70033,12.2850498 113.202658,12.2850498 L114.637874,12.2850498 C115.738211,12.2850498 116.578402,12.46146 117.158472,12.8142857 C117.738541,13.1671114 118.028571,13.744182 118.028571,14.545515 C118.028571,15.0119625 117.911961,15.4395329 117.678738,15.8282392 C117.445514,16.2169455 117.113623,16.5518258 116.683056,16.8328904 C116.25249,17.1139549 115.732229,17.3352151 115.122259,17.4966777 C114.512289,17.6581403 113.824589,17.7388704 113.059136,17.7388704 C112.532888,17.7388704 112.045517,17.6940204 111.59701,17.6043189 C111.148503,17.5146175 110.753822,17.3800673 110.412957,17.2006645 C110.072091,17.0212616 109.805981,16.7880413 109.614618,16.5009967 C109.423255,16.2139521 109.327575,15.8730917 109.327575,15.4784053 Z M113.256478,9.54019934 C113.603324,9.54019934 113.893354,9.4176092 114.126578,9.17242525 C114.359802,8.9272413 114.476412,8.55349088 114.476412,8.05116279 C114.476412,7.58471528 114.359802,7.22890488 114.126578,6.98372093 C113.893354,6.73853698 113.603324,6.61594684 113.256478,6.61594684 C112.909633,6.61594684 112.619602,6.73554698 112.386379,6.97475083 C112.153155,7.21395468 112.036545,7.57275508 112.036545,8.05116279 C112.036545,8.55349088 112.153155,8.9272413 112.386379,9.17242525 C112.619602,9.4176092 112.909633,9.54019934 113.256478,9.54019934 Z M118.943522,9.50431894 C118.943522,8.78670738 119.063122,8.13787665 119.302326,7.55780731 C119.541529,6.97773796 119.85548,6.48737742 120.244186,6.08671096 C120.632892,5.68604451 121.078403,5.37807417 121.580731,5.1627907 C122.083059,4.94750723 122.60332,4.83986711 123.141528,4.83986711 C123.775418,4.83986711 124.328569,4.94750723 124.800997,5.1627907 C125.273424,5.37807417 125.668105,5.6770745 125.98505,6.05980066 C126.301995,6.44252683 126.538205,6.89401733 126.693688,7.41428571 C126.84917,7.9345541 126.92691,8.49966472 126.92691,9.10963455 C126.92691,9.34883841 126.91495,9.56710865 126.89103,9.76445183 C126.86711,9.96179501 126.843189,10.1142852 126.819269,10.2219269 L121.49103,10.2219269 C121.610632,10.9036579 121.876742,11.3970084 122.289369,11.7019934 C122.701995,12.0069783 123.207306,12.1594684 123.805316,12.1594684 C124.439206,12.1594684 125.079067,11.9621282 125.724917,11.5674419 L126.603987,13.1641196 C126.149499,13.4750846 125.644189,13.7202649 125.08804,13.8996678 C124.531891,14.0790707 123.98472,14.1687708 123.446512,14.1687708 C122.812621,14.1687708 122.220601,14.0641206 121.670432,13.8548173 C121.120263,13.6455139 120.641862,13.3405336 120.235216,12.9398671 C119.828569,12.5392007 119.511629,12.0518301 119.284385,11.4777409 C119.057142,10.9036516 118.943522,10.2458509 118.943522,9.50431894 Z M124.684385,8.58936877 C124.684385,8.07508049 124.570765,7.65648002 124.343522,7.33355482 C124.116278,7.01062961 123.733558,6.84916944 123.195349,6.84916944 C122.776742,6.84916944 122.408972,6.98969959 122.092027,7.27076412 C121.775081,7.55182865 121.568771,7.99135914 121.47309,8.58936877 L124.684385,8.58936877 Z M129.151495,11.2803987 C129.558142,11.5913637 129.946842,11.8245839 130.317608,11.9800664 C130.688374,12.135549 131.065114,12.213289 131.447841,12.213289 C131.842527,12.213289 132.129567,12.147509 132.30897,12.0159468 C132.488373,11.8843847 132.578073,11.6990045 132.578073,11.4598007 C132.578073,11.3162784 132.527243,11.1877082 132.425581,11.0740864 C132.32392,10.9604645 132.18638,10.8558144 132.012957,10.7601329 C131.839534,10.6644513 131.645184,10.5777413 131.4299,10.5 C131.214617,10.4222587 130.993357,10.3355487 130.766113,10.2398671 C130.491029,10.1322254 130.215948,10.0066452 129.940864,9.86312292 C129.665779,9.71960061 129.414619,9.54319042 129.187375,9.33388704 C128.960132,9.12458367 128.774752,8.8794034 128.631229,8.59833887 C128.487707,8.31727434 128.415947,7.99136398 128.415947,7.62059801 C128.415947,7.21395146 128.496677,6.83721104 128.65814,6.49036545 C128.819602,6.14351986 129.049832,5.85049953 129.348837,5.61129568 C129.647842,5.37209183 130.006642,5.18372162 130.425249,5.0461794 C130.843856,4.90863719 131.310296,4.83986711 131.824585,4.83986711 C132.506316,4.83986711 133.104316,4.95647724 133.618605,5.189701 C134.132893,5.42292475 134.581393,5.68305504 134.96412,5.97009967 L133.780066,7.54883721 C133.457141,7.30963336 133.140201,7.12425315 132.829236,6.99269103 C132.518271,6.86112891 132.207311,6.79534884 131.896346,6.79534884 C131.226575,6.79534884 130.891694,7.0285691 130.891694,7.49501661 C130.891694,7.63853892 130.939534,7.76112906 131.035216,7.8627907 C131.130897,7.96445234 131.259468,8.05714244 131.42093,8.14086379 C131.582393,8.22458514 131.767773,8.30531523 131.977076,8.38305648 C132.18638,8.46079773 132.40465,8.54152782 132.631894,8.62524917 C132.918938,8.7328909 133.202989,8.85548104 133.484053,8.99302326 C133.765118,9.13056547 134.022258,9.30099566 134.255482,9.50431894 C134.488705,9.70764221 134.677076,9.95581249 134.820598,10.2488372 C134.96412,10.5418619 135.03588,10.8916923 135.03588,11.2983389 C135.03588,11.7049854 134.95814,12.0817258 134.802658,12.4285714 C134.647175,12.775417 134.413955,13.0774074 134.10299,13.3345515 C133.792025,13.5916956 133.409305,13.7950159 132.954817,13.9445183 C132.50033,14.0940207 131.974089,14.1687708 131.37608,14.1687708 C130.79003,14.1687708 130.18904,14.0551506 129.57309,13.827907 C128.95714,13.6006633 128.421929,13.301663 127.967442,12.930897 L129.151495,11.2803987 Z" id="Text-with-images" fill="#79797B"></path>
            <g id="Group-5" transform="translate(202.325581, 0.000000)">
                <path d="M0,1.31687738 L268.074736,1.31687738" id="Line" stroke="#4990E2" stroke-width="4" stroke-linecap="square"></path>
                <path d="M291.890397,1.31687738 L394.445142,1.31687738" id="Line" stroke="#979797" stroke-width="4" stroke-linecap="square"></path>
                <path d="M1.00002295,17.7778446 L394.683397,17.7778446" id="Line" stroke="#979797" stroke-width="4" stroke-linecap="square"></path>
                <path d="M1.00002295,34.2388118 L394.683397,34.2388118" id="Line" stroke="#979797" stroke-width="4" stroke-linecap="square"></path>
                <path d="M0.989202658,50.699779 L115.42408,50.699779" id="Line" stroke="#979797" stroke-width="4" stroke-linecap="square"></path>
                <path d="M1.00002295,75.0620105 L394.683397,75.0620105" id="Line" stroke="#979797" stroke-width="4" stroke-linecap="square"></path>
                <path d="M1.00002295,88.2307843 L394.683397,88.2307843" id="Line" stroke="#979797" stroke-width="4" stroke-linecap="square"></path>
                <path d="M1.00002295,115.22677 L394.683397,115.22677" id="Line" stroke="#979797" stroke-width="4" stroke-linecap="square"></path>
                <g id="Group-2" transform="translate(0.000000, 165.926550)" stroke="#979797">
                    <use id="Rectangle-9" mask="url(#mask-2)" stroke-width="2" fill="#F2F2F2" stroke-dasharray="4" xlink:href="#path-1"></use>
                    <g id="icon-picture" opacity="0.699999988" transform="translate(73.860465, 48.724463)">
                        <polyline id="Path-15" stroke-width="2" points="0.838096724 24.268572 14.2459816 10.3222797 23.6700078 20.2074615 29.1898623 14.4174984 39.6387471 25.3776893"></polyline>
                        <ellipse id="Oval-6" fill="#D8D8D8" cx="32.9734219" cy="7.24282557" rx="1.97840532" ry="1.97531607"></ellipse>
                        <rect id="Rectangle-10" stroke-width="2" x="1" y="1" width="38.2275748" height="26.3128636" rx="3"></rect>
                    </g>
                </g>
                <g id="Group-2" transform="translate(207.732558, 165.926550)" stroke="#979797">
                    <use id="Rectangle-9" mask="url(#mask-4)" stroke-width="2" fill="#F2F2F2" stroke-dasharray="4" xlink:href="#path-3"></use>
                    <g id="icon-picture" opacity="0.699999988" transform="translate(73.860465, 48.724463)">
                        <polyline id="Path-15" stroke-width="2" points="0.838096724 24.268572 14.2459816 10.3222797 23.6700078 20.2074615 29.1898623 14.4174984 39.6387471 25.3776893"></polyline>
                        <ellipse id="Oval-6" fill="#D8D8D8" cx="32.9734219" cy="7.24282557" rx="1.97840532" ry="1.97531607"></ellipse>
                        <rect id="Rectangle-10" stroke-width="2" x="1" y="1" width="38.2275748" height="26.3128636" rx="3"></rect>
                    </g>
                </g>
                <path d="M1.00002295,102.057997 L394.683397,102.057997" id="Line" stroke="#979797" stroke-width="4" stroke-linecap="square"></path>
                <path d="M1.00002295,129.053983 L394.683397,129.053983" id="Line" stroke="#979797" stroke-width="4" stroke-linecap="square"></path>
                <path d="M0.989202658,142.442236 L131.924876,142.442236" id="Line" stroke="#979797" stroke-width="4" stroke-linecap="square"></path>
            </g>
        </g>
    </g>
</svg>