<?xml version="1.0" encoding="UTF-8"?>
<svg width="602px" height="412px" viewBox="0 0 602 412" version="1.1" xmlns="http://www.w3.org/2000/svg" xmlns:xlink="http://www.w3.org/1999/xlink">
    <!-- Generator: Sketch 44.1 (41455) - http://www.bohemiancoding.com/sketch -->
    <title>image_text05</title>
    <desc>Created with Sketch.</desc>
    <defs>
        <rect id="path-1" x="0" y="0" width="184.467554" height="123.024119"></rect>
        <mask id="mask-2" maskContentUnits="userSpaceOnUse" maskUnits="objectBoundingBox" x="0" y="0" width="184.467554" height="123.024119" fill="white">
            <use xlink:href="#path-1"></use>
        </mask>
        <rect id="path-3" x="0" y="0" width="184.467554" height="123.024119"></rect>
        <mask id="mask-4" maskContentUnits="userSpaceOnUse" maskUnits="objectBoundingBox" x="0" y="0" width="184.467554" height="123.024119" fill="white">
            <use xlink:href="#path-3"></use>
        </mask>
    </defs>
    <g id="Image/Text-Blocks" stroke="none" stroke-width="1" fill="none" fill-rule="evenodd">
        <g id="05" transform="translate(2.000000, 0.000000)">
            <path d="M7.006,4.49548609 L0.868,4.49548609 L0.868,2.32548609 L15.748,2.32548609 L15.748,4.49548609 L9.61,4.49548609 L9.61,22.6614861 L7.006,22.6614861 L7.006,4.49548609 Z M18.042,15.1594861 C18.042,13.9194799 18.2331648,12.8086577 18.6155,11.8269861 C18.9978352,10.8453145 19.5041635,10.0134895 20.1345,9.33148609 C20.7648365,8.64948268 21.482996,8.12765456 22.289,7.76598609 C23.095004,7.40431761 23.9319957,7.22348609 24.8,7.22348609 C25.7506714,7.22348609 26.6031629,7.38881777 27.3575,7.71948609 C28.1118371,8.05015441 28.7421641,8.52548299 29.2485,9.14548609 C29.7548359,9.76548919 30.142332,10.5094817 30.411,11.3774861 C30.679668,12.2454904 30.814,13.216814 30.814,14.2914861 C30.814,14.8494889 30.7830003,15.3144842 30.721,15.6864861 L20.553,15.6864861 C20.6563338,17.3191609 21.1574955,18.6108147 22.0565,19.5614861 C22.9555045,20.5121575 24.1283261,20.9874861 25.575,20.9874861 C26.2983369,20.9874861 26.9648303,20.8789872 27.5745,20.6619861 C28.1841697,20.444985 28.7679972,20.1608212 29.326,19.8094861 L30.225,21.4834861 C29.5636634,21.8968215 28.830004,22.2584845 28.024,22.5684861 C27.217996,22.8784876 26.2983385,23.0334861 25.265,23.0334861 C24.2523283,23.0334861 23.3068377,22.8526546 22.4285,22.4909861 C21.5501623,22.1293176 20.7855033,21.6126561 20.1345,20.9409861 C19.4834967,20.2693161 18.9720019,19.4478243 18.6,18.4764861 C18.2279981,17.5051479 18.042,16.3994923 18.042,15.1594861 Z M28.582,14.0124861 C28.582,12.4624783 28.2565033,11.2793235 27.6055,10.4629861 C26.9544967,9.64664867 26.0400059,9.23848609 24.862,9.23848609 C24.324664,9.23848609 23.8131691,9.346985 23.3275,9.56398609 C22.8418309,9.78098717 22.4026686,10.0909841 22.01,10.4939861 C21.6173314,10.8969881 21.2918346,11.3929831 21.0335,11.9819861 C20.7751654,12.570989 20.6046671,13.2478156 20.522,14.0124861 L28.582,14.0124861 Z M37.355,14.7874861 L32.798,7.59548609 L35.557,7.59548609 L37.572,10.9124861 C37.7993345,11.3258215 38.0369988,11.7443173 38.285,12.1679861 C38.5330012,12.5916549 38.791332,13.0101507 39.06,13.4234861 L39.184,13.4234861 C39.4113345,13.0101507 39.6386655,12.5916549 39.866,12.1679861 C40.0933345,11.7443173 40.3206655,11.3258215 40.548,10.9124861 L42.377,7.59548609 L45.043,7.59548609 L40.486,15.0664861 L45.384,22.6614861 L42.625,22.6614861 L40.424,19.1584861 L39.618,17.7944861 C39.349332,17.3398171 39.0703348,16.8954883 38.781,16.4614861 L38.657,16.4614861 C38.388332,16.8954883 38.1300012,17.3346505 37.882,17.7789861 C37.6339988,18.2233216 37.3860012,18.6831504 37.138,19.1584861 L35.092,22.6614861 L32.426,22.6614861 L37.355,14.7874861 Z M48.794,9.67248609 L46.562,9.67248609 L46.562,7.75048609 L48.918,7.59548609 L49.228,3.37948609 L51.367,3.37948609 L51.367,7.59548609 L55.428,7.59548609 L55.428,9.67248609 L51.367,9.67248609 L51.367,18.0424861 C51.367,18.9724907 51.5374983,19.6906502 51.8785,20.1969861 C52.2195017,20.703322 52.8239957,20.9564861 53.692,20.9564861 C53.960668,20.9564861 54.2499984,20.9151532 54.56,20.8324861 C54.8700015,20.749819 55.1489988,20.6568199 55.397,20.5534861 L55.893,22.4754861 C55.4796646,22.6201535 55.0301691,22.7493189 54.5445,22.8629861 C54.0588309,22.9766533 53.5783357,23.0334861 53.103,23.0334861 C52.296996,23.0334861 51.6201694,22.9094873 51.0725,22.6614861 C50.5248306,22.4134848 50.0805017,22.0724883 49.7395,21.6384861 C49.3984983,21.2044839 49.1556674,20.6774892 49.011,20.0574861 C48.8663326,19.437483 48.794,18.7554898 48.794,18.0114861 L48.794,9.67248609 Z M64.883,0.651486085 L66.743,0.651486085 L58.466,27.6214861 L56.606,27.6214861 L64.883,0.651486085 Z M69.936,2.32548609 L72.509,2.32548609 L72.509,22.6614861 L69.936,22.6614861 L69.936,2.32548609 Z M77.841,7.59548609 L79.949,7.59548609 L80.166,9.76548609 L80.259,9.76548609 C80.9203366,9.04214914 81.6384961,8.43765518 82.4135,7.95198609 C83.1885039,7.46631699 84.0306621,7.22348609 84.94,7.22348609 C86.0973391,7.22348609 87.0014967,7.47665022 87.6525,7.98298609 C88.3035033,8.48932195 88.7839985,9.19714821 89.094,10.1064861 C89.8793373,9.23848175 90.6698294,8.54098872 91.4655,8.01398609 C92.2611706,7.48698345 93.1239954,7.22348609 94.054,7.22348609 C95.6040078,7.22348609 96.7561629,7.71948113 97.5105,8.71148609 C98.2648371,9.70349105 98.642,11.1708097 98.642,13.1134861 L98.642,22.6614861 L96.1,22.6614861 L96.1,13.4544861 C96.1,12.028479 95.8726689,11.0003226 95.418,10.3699861 C94.9633311,9.7396496 94.2606714,9.42448609 93.31,9.42448609 C92.1733277,9.42448609 90.9126736,10.1994783 89.528,11.7494861 L89.528,22.6614861 L86.986,22.6614861 L86.986,13.4544861 C86.986,12.028479 86.7586689,11.0003226 86.304,10.3699861 C85.8493311,9.7396496 85.1363382,9.42448609 84.165,9.42448609 C83.0283277,9.42448609 81.7676736,10.1994783 80.383,11.7494861 L80.383,22.6614861 L77.841,22.6614861 L77.841,7.59548609 Z M102.796,18.7554861 C102.796,17.1021445 103.534826,15.8363238 105.0125,14.9579861 C106.490174,14.0796484 108.840984,13.4648212 112.065,13.1134861 C112.065,12.6381504 112.0185,12.173155 111.9255,11.7184861 C111.8325,11.2638171 111.667168,10.8608212 111.4295,10.5094861 C111.191832,10.158151 110.876669,9.87398717 110.484,9.65698609 C110.091331,9.439985 109.585003,9.33148609 108.965,9.33148609 C108.076329,9.33148609 107.254837,9.49681777 106.5005,9.82748609 C105.746163,10.1581544 105.069336,10.5301507 104.47,10.9434861 L103.447,9.17648609 C104.14967,8.72181715 105.007328,8.28265487 106.02,7.85898609 C107.032672,7.4353173 108.148661,7.22348609 109.368,7.22348609 C111.207343,7.22348609 112.540329,7.78664712 113.367,8.91298609 C114.193671,10.0393251 114.607,11.54281 114.607,13.4234861 L114.607,22.6614861 L112.499,22.6614861 L112.282,20.8634861 L112.22,20.8634861 C111.496663,21.4628224 110.716504,21.9743173 109.8795,22.3979861 C109.042496,22.8216549 108.159005,23.0334861 107.229,23.0334861 C105.94766,23.0334861 104.888504,22.6614898 104.0515,21.9174861 C103.214496,21.1734824 102.796,20.1194929 102.796,18.7554861 Z M105.307,18.5694861 C105.307,19.4374904 105.560164,20.0574842 106.0665,20.4294861 C106.572836,20.8014879 107.197996,20.9874861 107.942,20.9874861 C108.665337,20.9874861 109.352497,20.8169878 110.0035,20.4759861 C110.654503,20.1349844 111.341663,19.6338227 112.065,18.9724861 L112.065,14.7874861 C110.804327,14.9528202 109.740004,15.1491516 108.872,15.3764861 C108.003996,15.6038206 107.306503,15.8724845 106.7795,16.1824861 C106.252497,16.4924876 105.875334,16.8489841 105.648,17.2519861 C105.420666,17.6549881 105.307,18.0941504 105.307,18.5694861 Z M120.497,25.2034861 C120.497,26.0094901 120.884496,26.6501504 121.6595,27.1254861 C122.434504,27.6008218 123.503993,27.8384861 124.868,27.8384861 C125.591337,27.8384861 126.247497,27.7506536 126.8365,27.5749861 C127.425503,27.3993185 127.926665,27.1719875 128.34,26.8929861 C128.753335,26.6139847 129.073666,26.2884879 129.301,25.9164861 C129.528334,25.5444842 129.642,25.1621547 129.642,24.7694861 C129.642,24.0668159 129.383669,23.5811541 128.867,23.3124861 C128.350331,23.0438181 127.596005,22.9094861 126.604,22.9094861 L124,22.9094861 C123.710665,22.9094861 123.395502,22.8939862 123.0545,22.8629861 C122.713498,22.8319859 122.377668,22.7648199 122.047,22.6614861 C121.509664,23.0541547 121.117001,23.4674839 120.869,23.9014861 C120.620999,24.3354883 120.497,24.7694839 120.497,25.2034861 Z M118.265,25.5444861 C118.265,24.9038162 118.461331,24.2941556 118.854,23.7154861 C119.246669,23.1368165 119.783997,22.6098218 120.466,22.1344861 L120.466,22.0104861 C120.093998,21.7831516 119.778835,21.4679881 119.5205,21.0649861 C119.262165,20.6619841 119.133,20.1608224 119.133,19.5614861 C119.133,18.9208162 119.308665,18.3628218 119.66,17.8874861 C120.011335,17.4121504 120.383331,17.0401541 120.776,16.7714861 L120.776,16.6474861 C120.279998,16.2341507 119.830502,15.6813229 119.4275,14.9889861 C119.024498,14.2966493 118.823,13.495824 118.823,12.5864861 C118.823,11.7598153 118.972832,11.0158227 119.2725,10.3544861 C119.572168,9.69314945 119.980331,9.12998841 120.497,8.66498609 C121.013669,8.19998376 121.618163,7.84348733 122.3105,7.59548609 C123.002837,7.34748485 123.73133,7.22348609 124.496,7.22348609 C124.909335,7.22348609 125.296832,7.25965239 125.6585,7.33198609 C126.020168,7.40431978 126.345665,7.49215224 126.635,7.59548609 L131.874,7.59548609 L131.874,9.54848609 L128.774,9.54848609 C129.125335,9.89982118 129.419832,10.3441501 129.6575,10.8814861 C129.895168,11.4188221 130.014,12.0078162 130.014,12.6484861 C130.014,13.4544901 129.869335,14.1829828 129.58,14.8339861 C129.290665,15.4849893 128.898002,16.0326505 128.402,16.4769861 C127.905998,16.9213216 127.32217,17.2674848 126.6505,17.5154861 C125.97883,17.7634873 125.26067,17.8874861 124.496,17.8874861 C124.123998,17.8874861 123.741669,17.8409866 123.349,17.7479861 C122.956331,17.6549856 122.584335,17.5258202 122.233,17.3604861 C121.964332,17.5878206 121.737001,17.8409847 121.551,18.1199861 C121.364999,18.3989875 121.272,18.7451507 121.272,19.1584861 C121.272,19.6338218 121.457998,20.0264845 121.83,20.3364861 C122.202002,20.6464876 122.904661,20.8014861 123.938,20.8014861 L126.852,20.8014861 C128.608675,20.8014861 129.926162,21.0856499 130.8045,21.6539861 C131.682838,22.2223223 132.122,23.1368131 132.122,24.3974861 C132.122,25.1001563 131.946335,25.7666496 131.595,26.3969861 C131.243665,27.0273226 130.737337,27.5801504 130.076,28.0554861 C129.414663,28.5308218 128.613838,28.9079847 127.6735,29.1869861 C126.733162,29.4659875 125.674006,29.6054861 124.496,29.6054861 C123.565995,29.6054861 122.71867,29.5176536 121.954,29.3419861 C121.18933,29.1663185 120.533169,28.9028212 119.9855,28.5514861 C119.437831,28.200151 119.014168,27.7764886 118.7145,27.2804861 C118.414832,26.7844836 118.265,26.2058227 118.265,25.5444861 Z M124.496,16.1824861 C124.930002,16.1824861 125.338165,16.0998202 125.7205,15.9344861 C126.102835,15.7691519 126.443832,15.5314876 126.7435,15.2214861 C127.043168,14.9114845 127.275666,14.5343216 127.441,14.0899861 C127.606334,13.6456505 127.689,13.1444889 127.689,12.5864861 C127.689,11.4704805 127.379003,10.6076558 126.759,9.99798609 C126.138997,9.38831637 125.384671,9.08348609 124.496,9.08348609 C123.607329,9.08348609 122.853003,9.38831637 122.233,9.99798609 C121.612997,10.6076558 121.303,11.4704805 121.303,12.5864861 C121.303,13.1444889 121.385666,13.6456505 121.551,14.0899861 C121.716334,14.5343216 121.948832,14.9114845 122.2485,15.2214861 C122.548168,15.5314876 122.889165,15.7691519 123.2715,15.9344861 C123.653835,16.0998202 124.061998,16.1824861 124.496,16.1824861 Z M133.92,15.1594861 C133.92,13.9194799 134.111165,12.8086577 134.4935,11.8269861 C134.875835,10.8453145 135.382164,10.0134895 136.0125,9.33148609 C136.642836,8.64948268 137.360996,8.12765456 138.167,7.76598609 C138.973004,7.40431761 139.809996,7.22348609 140.678,7.22348609 C141.628671,7.22348609 142.481163,7.38881777 143.2355,7.71948609 C143.989837,8.05015441 144.620164,8.52548299 145.1265,9.14548609 C145.632836,9.76548919 146.020332,10.5094817 146.289,11.3774861 C146.557668,12.2454904 146.692,13.216814 146.692,14.2914861 C146.692,14.8494889 146.661,15.3144842 146.599,15.6864861 L136.431,15.6864861 C136.534334,17.3191609 137.035496,18.6108147 137.9345,19.5614861 C138.833504,20.5121575 140.006326,20.9874861 141.453,20.9874861 C142.176337,20.9874861 142.84283,20.8789872 143.4525,20.6619861 C144.06217,20.444985 144.645997,20.1608212 145.204,19.8094861 L146.103,21.4834861 C145.441663,21.8968215 144.708004,22.2584845 143.902,22.5684861 C143.095996,22.8784876 142.176338,23.0334861 141.143,23.0334861 C140.130328,23.0334861 139.184838,22.8526546 138.3065,22.4909861 C137.428162,22.1293176 136.663503,21.6126561 136.0125,20.9409861 C135.361497,20.2693161 134.850002,19.4478243 134.478,18.4764861 C134.105998,17.5051479 133.92,16.3994923 133.92,15.1594861 Z M144.46,14.0124861 C144.46,12.4624783 144.134503,11.2793235 143.4835,10.4629861 C142.832497,9.64664867 141.918006,9.23848609 140.74,9.23848609 C140.202664,9.23848609 139.691169,9.346985 139.2055,9.56398609 C138.719831,9.78098717 138.280669,10.0909841 137.888,10.4939861 C137.495331,10.8969881 137.169835,11.3929831 136.9115,11.9819861 C136.653165,12.570989 136.482667,13.2478156 136.4,14.0124861 L144.46,14.0124861 Z M150.009,19.2514861 C150.670337,19.7888221 151.347163,20.2228178 152.0395,20.5534861 C152.731837,20.8841544 153.532662,21.0494861 154.442,21.0494861 C155.434005,21.0494861 156.177998,20.822155 156.674,20.3674861 C157.170002,19.9128171 157.418,19.3548227 157.418,18.6934861 C157.418,18.3008175 157.314668,17.9598209 157.108,17.6704861 C156.901332,17.3811513 156.637835,17.1279872 156.3175,16.9109861 C155.997165,16.693985 155.630335,16.5028202 155.217,16.3374861 L153.977,15.8414861 C153.439664,15.6554852 152.902336,15.4436539 152.365,15.2059861 C151.827664,14.9683182 151.347169,14.6789878 150.9235,14.3379861 C150.499831,13.9969844 150.153668,13.599155 149.885,13.1444861 C149.616332,12.6898171 149.482,12.142156 149.482,11.5014861 C149.482,10.9021498 149.600832,10.3389887 149.8385,9.81198609 C150.076168,9.28498345 150.417164,8.83032133 150.8615,8.44798609 C151.305836,8.06565084 151.84833,7.76598717 152.489,7.54898609 C153.12967,7.331985 153.852996,7.22348609 154.659,7.22348609 C155.609671,7.22348609 156.482829,7.38881777 157.2785,7.71948609 C158.074171,8.05015441 158.76133,8.45315038 159.34,8.92848609 L158.131,10.5404861 C157.614331,10.1478175 157.077003,9.82748733 156.519,9.57948609 C155.960997,9.33148485 155.351337,9.20748609 154.69,9.20748609 C153.739329,9.20748609 153.041836,9.42448392 152.5975,9.85848609 C152.153164,10.2924883 151.931,10.7988165 151.931,11.3774861 C151.931,11.7288212 152.023999,12.0336515 152.21,12.2919861 C152.396001,12.5503207 152.643998,12.7776518 152.954,12.9739861 C153.264002,13.1703204 153.620498,13.3459853 154.0235,13.5009861 C154.426502,13.6559869 154.844998,13.8161519 155.279,13.9814861 C155.816336,14.1881538 156.358831,14.4051516 156.9065,14.6324861 C157.454169,14.8598206 157.944998,15.1439844 158.379,15.4849861 C158.813002,15.8259878 159.169499,16.2444836 159.4485,16.7404861 C159.727501,17.2364886 159.867,17.8358159 159.867,18.5384861 C159.867,19.1584892 159.748168,19.7371501 159.5105,20.2744861 C159.272832,20.8118221 158.921502,21.2871507 158.4565,21.7004861 C157.991498,22.1138215 157.412837,22.4393182 156.7205,22.6769861 C156.028163,22.9146539 155.237671,23.0334861 154.349,23.0334861 C153.274328,23.0334861 152.251338,22.8371547 151.28,22.4444861 C150.308662,22.0518175 149.461337,21.5558224 148.738,20.9564861 L150.009,19.2514861 Z M168.919,18.7554861 C168.919,17.1021445 169.657826,15.8363238 171.1355,14.9579861 C172.613174,14.0796484 174.963984,13.4648212 178.188,13.1134861 C178.188,12.6381504 178.1415,12.173155 178.0485,11.7184861 C177.9555,11.2638171 177.790168,10.8608212 177.5525,10.5094861 C177.314832,10.158151 176.999669,9.87398717 176.607,9.65698609 C176.214331,9.439985 175.708003,9.33148609 175.088,9.33148609 C174.199329,9.33148609 173.377837,9.49681777 172.6235,9.82748609 C171.869163,10.1581544 171.192336,10.5301507 170.593,10.9434861 L169.57,9.17648609 C170.27267,8.72181715 171.130328,8.28265487 172.143,7.85898609 C173.155672,7.4353173 174.271661,7.22348609 175.491,7.22348609 C177.330343,7.22348609 178.663329,7.78664712 179.49,8.91298609 C180.316671,10.0393251 180.73,11.54281 180.73,13.4234861 L180.73,22.6614861 L178.622,22.6614861 L178.405,20.8634861 L178.343,20.8634861 C177.619663,21.4628224 176.839504,21.9743173 176.0025,22.3979861 C175.165496,22.8216549 174.282005,23.0334861 173.352,23.0334861 C172.07066,23.0334861 171.011504,22.6614898 170.1745,21.9174861 C169.337496,21.1734824 168.919,20.1194929 168.919,18.7554861 Z M171.43,18.5694861 C171.43,19.4374904 171.683164,20.0574842 172.1895,20.4294861 C172.695836,20.8014879 173.320996,20.9874861 174.065,20.9874861 C174.788337,20.9874861 175.475497,20.8169878 176.1265,20.4759861 C176.777503,20.1349844 177.464663,19.6338227 178.188,18.9724861 L178.188,14.7874861 C176.927327,14.9528202 175.863004,15.1491516 174.995,15.3764861 C174.126996,15.6038206 173.429503,15.8724845 172.9025,16.1824861 C172.375497,16.4924876 171.998334,16.8489841 171.771,17.2519861 C171.543666,17.6549881 171.43,18.0941504 171.43,18.5694861 Z M185.535,7.59548609 L187.643,7.59548609 L187.86,9.76548609 L187.953,9.76548609 C188.676337,9.04214914 189.435829,8.43765518 190.2315,7.95198609 C191.027171,7.46631699 191.951995,7.22348609 193.006,7.22348609 C194.597341,7.22348609 195.75983,7.71948113 196.4935,8.71148609 C197.22717,9.70349105 197.594,11.1708097 197.594,13.1134861 L197.594,22.6614861 L195.052,22.6614861 L195.052,13.4544861 C195.052,12.028479 194.824669,11.0003226 194.37,10.3699861 C193.915331,9.7396496 193.192005,9.42448609 192.2,9.42448609 C191.414663,9.42448609 190.722336,9.62081746 190.123,10.0134861 C189.523664,10.4061547 188.84167,10.9848156 188.077,11.7494861 L188.077,22.6614861 L185.535,22.6614861 L185.535,7.59548609 Z M201.407,15.1594861 C201.407,13.9401467 201.587832,12.8396577 201.9495,11.8579861 C202.311168,10.8763145 202.791664,10.0444895 203.391,9.36248609 C203.990336,8.68048268 204.682663,8.15348795 205.468,7.78148609 C206.253337,7.40948423 207.079996,7.22348609 207.948,7.22348609 C208.816004,7.22348609 209.57033,7.37848454 210.211,7.68848609 C210.85167,7.99848764 211.502663,8.42215007 212.164,8.95948609 L212.04,6.38648609 L212.04,0.589486085 L214.613,0.589486085 L214.613,22.6614861 L212.505,22.6614861 L212.288,20.8944861 L212.195,20.8944861 C211.595664,21.4731556 210.908504,21.9743173 210.1335,22.3979861 C209.358496,22.8216549 208.526671,23.0334861 207.638,23.0334861 C205.736657,23.0334861 204.222839,22.3514929 203.0965,20.9874861 C201.970161,19.6234793 201.407,17.680832 201.407,15.1594861 Z M204.042,15.1284861 C204.042,16.9471618 204.403663,18.3628144 205.127,19.3754861 C205.850337,20.3881578 206.873327,20.8944861 208.196,20.8944861 C208.89867,20.8944861 209.559997,20.7239878 210.18,20.3829861 C210.800003,20.0419844 211.419997,19.5201563 212.04,18.8174861 L212.04,10.9434861 C211.39933,10.3648165 210.784503,9.95665394 210.1955,9.71898609 C209.606497,9.48131823 209.002003,9.36248609 208.382,9.36248609 C207.782664,9.36248609 207.219503,9.50198469 206.6925,9.78098609 C206.165497,10.0599875 205.705669,10.4526502 205.313,10.9589861 C204.920331,11.465322 204.610334,12.0698159 204.383,12.7724861 C204.155666,13.4751563 204.042,14.2604817 204.042,15.1284861 Z M226.269,18.2284861 C226.992337,18.9931566 227.844828,19.6079838 228.8265,20.0729861 C229.808172,20.5379884 230.825995,20.7704861 231.88,20.7704861 C233.22334,20.7704861 234.266996,20.4656558 235.011,19.8559861 C235.755004,19.2463164 236.127,18.445491 236.127,17.4534861 C236.127,16.9368168 236.039168,16.4976546 235.8635,16.1359861 C235.687832,15.7743176 235.450168,15.4643207 235.1505,15.2059861 C234.850832,14.9476515 234.494335,14.7151538 234.081,14.5084861 C233.667665,14.3018184 233.223336,14.0848206 232.748,13.8574861 L229.834,12.5864861 C229.358664,12.3798184 228.873002,12.1318209 228.377,11.8424861 C227.880998,11.5531513 227.436669,11.2018215 227.044,10.7884861 C226.651331,10.3751507 226.331001,9.88432226 226.083,9.31598609 C225.834999,8.74764991 225.711,8.09148981 225.711,7.34748609 C225.711,6.5828156 225.871165,5.86982273 226.1915,5.20848609 C226.511835,4.54714945 226.956164,3.97365518 227.5245,3.48798609 C228.092836,3.00231699 228.764496,2.6251541 229.5395,2.35648609 C230.314504,2.08781808 231.166995,1.95348609 232.097,1.95348609 C233.316339,1.95348609 234.442662,2.18598376 235.476,2.65098609 C236.509339,3.11598841 237.387663,3.72048237 238.111,4.46448609 L236.716,6.13848609 C236.095997,5.53914976 235.408837,5.06898779 234.6545,4.72798609 C233.900163,4.38698438 233.047671,4.21648609 232.097,4.21648609 C230.960328,4.21648609 230.045837,4.47998345 229.3535,5.00698609 C228.661163,5.53398872 228.315,6.26248144 228.315,7.19248609 C228.315,7.68848857 228.413166,8.10698438 228.6095,8.44798609 C228.805834,8.78898779 229.069332,9.08865146 229.4,9.34698609 C229.730668,9.60532071 230.092331,9.83265177 230.485,10.0289861 C230.877669,10.2253204 231.280665,10.4061519 231.694,10.5714861 L234.577,11.8114861 C235.15567,12.0594873 235.703331,12.3436512 236.22,12.6639861 C236.736669,12.984321 237.180998,13.3563173 237.553,13.7799861 C237.925002,14.2036549 238.219499,14.6996499 238.4365,15.2679861 C238.653501,15.8363223 238.762,16.4924824 238.762,17.2364861 C238.762,18.0424901 238.601835,18.7968159 238.2815,19.4994861 C237.961165,20.2021563 237.501336,20.8169835 236.902,21.3439861 C236.302664,21.8709887 235.579338,22.2843179 234.732,22.5839861 C233.884662,22.8836543 232.923672,23.0334861 231.849,23.0334861 C230.422993,23.0334861 229.100339,22.7648221 227.881,22.2274861 C226.661661,21.6901501 225.607671,20.9564907 224.719,20.0264861 L226.269,18.2284861 Z M242.296,7.59548609 L244.869,7.59548609 L244.869,16.8024861 C244.869,18.2284932 245.091164,19.2566496 245.5355,19.8869861 C245.979836,20.5173226 246.697995,20.8324861 247.69,20.8324861 C248.475337,20.8324861 249.167664,20.6309881 249.767,20.2279861 C250.366336,19.8249841 251.027663,19.1791572 251.751,18.2904861 L251.751,7.59548609 L254.293,7.59548609 L254.293,22.6614861 L252.185,22.6614861 L251.968,20.3054861 L251.875,20.3054861 C251.17233,21.1321569 250.433504,21.7934836 249.6585,22.2894861 C248.883496,22.7854886 247.969005,23.0334861 246.915,23.0334861 C245.302992,23.0334861 244.13017,22.537491 243.3965,21.5454861 C242.66283,20.5534811 242.296,19.0861625 242.296,17.1434861 L242.296,7.59548609 Z M259.377,0.589486085 L261.919,0.589486085 L261.919,6.60348609 L261.857,9.33148609 C262.539003,8.73214976 263.282996,8.2309881 264.089,7.82798609 C264.895004,7.42498407 265.721662,7.22348609 266.569,7.22348609 C267.540338,7.22348609 268.397996,7.40431761 269.142,7.76598609 C269.886004,8.12765456 270.511164,8.64431606 271.0175,9.31598609 C271.523836,9.98765611 271.906165,10.7936481 272.1645,11.7339861 C272.422835,12.6743241 272.552,13.723147 272.552,14.8804861 C272.552,16.1618258 272.376335,17.3088144 272.025,18.3214861 C271.673665,19.3341578 271.198336,20.1918159 270.599,20.8944861 C269.999664,21.5971563 269.307337,22.1293176 268.522,22.4909861 C267.736663,22.8526546 266.910004,23.0334861 266.042,23.0334861 C265.33933,23.0334861 264.610837,22.873321 263.8565,22.5529861 C263.102163,22.2326512 262.394337,21.7728224 261.733,21.1734861 L261.64,21.1734861 L261.423,22.6614861 L259.377,22.6614861 L259.377,0.589486085 Z M261.919,19.3134861 C262.580337,19.8921556 263.236497,20.3003182 263.8875,20.5379861 C264.538503,20.7756539 265.111998,20.8944861 265.608,20.8944861 C266.228003,20.8944861 266.801497,20.7549875 267.3285,20.4759861 C267.855503,20.1969847 268.310165,19.804322 268.6925,19.2979861 C269.074835,18.7916502 269.374499,18.1664898 269.5915,17.4224861 C269.808501,16.6784824 269.917,15.8414907 269.917,14.9114861 C269.917,14.0848153 269.844667,13.3304895 269.7,12.6484861 C269.555333,11.9664827 269.322835,11.3826552 269.0025,10.8969861 C268.682165,10.411317 268.268836,10.0341541 267.7625,9.76548609 C267.256164,9.49681808 266.65167,9.36248609 265.949,9.36248609 C264.729661,9.36248609 263.386341,10.0444793 261.919,11.4084861 L261.919,19.3134861 Z M276.582,7.59548609 L278.69,7.59548609 L278.907,9.76548609 L279,9.76548609 C279.661337,9.04214914 280.379496,8.43765518 281.1545,7.95198609 C281.929504,7.46631699 282.771662,7.22348609 283.681,7.22348609 C284.838339,7.22348609 285.742497,7.47665022 286.3935,7.98298609 C287.044503,8.48932195 287.524998,9.19714821 287.835,10.1064861 C288.620337,9.23848175 289.410829,8.54098872 290.2065,8.01398609 C291.002171,7.48698345 291.864995,7.22348609 292.795,7.22348609 C294.345008,7.22348609 295.497163,7.71948113 296.2515,8.71148609 C297.005837,9.70349105 297.383,11.1708097 297.383,13.1134861 L297.383,22.6614861 L294.841,22.6614861 L294.841,13.4544861 C294.841,12.028479 294.613669,11.0003226 294.159,10.3699861 C293.704331,9.7396496 293.001671,9.42448609 292.051,9.42448609 C290.914328,9.42448609 289.653674,10.1994783 288.269,11.7494861 L288.269,22.6614861 L285.727,22.6614861 L285.727,13.4544861 C285.727,12.028479 285.499669,11.0003226 285.045,10.3699861 C284.590331,9.7396496 283.877338,9.42448609 282.906,9.42448609 C281.769328,9.42448609 280.508674,10.1994783 279.124,11.7494861 L279.124,22.6614861 L276.582,22.6614861 L276.582,7.59548609 Z M301.165,15.1594861 C301.165,13.9194799 301.356165,12.8086577 301.7385,11.8269861 C302.120835,10.8453145 302.627164,10.0134895 303.2575,9.33148609 C303.887836,8.64948268 304.605996,8.12765456 305.412,7.76598609 C306.218004,7.40431761 307.054996,7.22348609 307.923,7.22348609 C308.873671,7.22348609 309.726163,7.38881777 310.4805,7.71948609 C311.234837,8.05015441 311.865164,8.52548299 312.3715,9.14548609 C312.877836,9.76548919 313.265332,10.5094817 313.534,11.3774861 C313.802668,12.2454904 313.937,13.216814 313.937,14.2914861 C313.937,14.8494889 313.906,15.3144842 313.844,15.6864861 L303.676,15.6864861 C303.779334,17.3191609 304.280496,18.6108147 305.1795,19.5614861 C306.078504,20.5121575 307.251326,20.9874861 308.698,20.9874861 C309.421337,20.9874861 310.08783,20.8789872 310.6975,20.6619861 C311.30717,20.444985 311.890997,20.1608212 312.449,19.8094861 L313.348,21.4834861 C312.686663,21.8968215 311.953004,22.2584845 311.147,22.5684861 C310.340996,22.8784876 309.421339,23.0334861 308.388,23.0334861 C307.375328,23.0334861 306.429838,22.8526546 305.5515,22.4909861 C304.673162,22.1293176 303.908503,21.6126561 303.2575,20.9409861 C302.606497,20.2693161 302.095002,19.4478243 301.723,18.4764861 C301.350998,17.5051479 301.165,16.3994923 301.165,15.1594861 Z M311.705,14.0124861 C311.705,12.4624783 311.379503,11.2793235 310.7285,10.4629861 C310.077497,9.64664867 309.163006,9.23848609 307.985,9.23848609 C307.447664,9.23848609 306.936169,9.346985 306.4505,9.56398609 C305.964831,9.78098717 305.525669,10.0909841 305.133,10.4939861 C304.740331,10.8969881 304.414835,11.3929831 304.1565,11.9819861 C303.898165,12.570989 303.727667,13.2478156 303.645,14.0124861 L311.705,14.0124861 Z M317.657,7.59548609 L319.765,7.59548609 L319.982,9.76548609 L320.075,9.76548609 C320.798337,9.04214914 321.557829,8.43765518 322.3535,7.95198609 C323.149171,7.46631699 324.073995,7.22348609 325.128,7.22348609 C326.719341,7.22348609 327.88183,7.71948113 328.6155,8.71148609 C329.34917,9.70349105 329.716,11.1708097 329.716,13.1134861 L329.716,22.6614861 L327.174,22.6614861 L327.174,13.4544861 C327.174,12.028479 326.946669,11.0003226 326.492,10.3699861 C326.037331,9.7396496 325.314005,9.42448609 324.322,9.42448609 C323.536663,9.42448609 322.844336,9.62081746 322.245,10.0134861 C321.645664,10.4061547 320.96367,10.9848156 320.199,11.7494861 L320.199,22.6614861 L317.657,22.6614861 L317.657,7.59548609 Z M334.397,7.59548609 L336.97,7.59548609 L336.97,16.8024861 C336.97,18.2284932 337.192164,19.2566496 337.6365,19.8869861 C338.080836,20.5173226 338.798995,20.8324861 339.791,20.8324861 C340.576337,20.8324861 341.268664,20.6309881 341.868,20.2279861 C342.467336,19.8249841 343.128663,19.1791572 343.852,18.2904861 L343.852,7.59548609 L346.394,7.59548609 L346.394,22.6614861 L344.286,22.6614861 L344.069,20.3054861 L343.976,20.3054861 C343.27333,21.1321569 342.534504,21.7934836 341.7595,22.2894861 C340.984496,22.7854886 340.070005,23.0334861 339.016,23.0334861 C337.403992,23.0334861 336.23117,22.537491 335.4975,21.5454861 C334.76383,20.5534811 334.397,19.0861625 334.397,17.1434861 L334.397,7.59548609 Z" id="Text/Images-and-Subm" fill="#79797B"></path>
            <path d="M0.323627288,42.971243 L38.59931,42.971243" id="Line" stroke="#4990E2" stroke-linecap="square"></path>
            <path d="M0.647254576,66.1020408 L263.757041,66.1020408" id="Line" stroke="#4990E2" stroke-width="4" stroke-linecap="square"></path>
            <path d="M287.131616,66.1020408 L387.786969,66.1020408" id="Line" stroke="#979797" stroke-width="4" stroke-linecap="square"></path>
            <path d="M1.62875633,82.2894249 L388.020811,82.2894249" id="Line" stroke="#979797" stroke-width="4" stroke-linecap="square"></path>
            <path d="M1.62875633,98.4768089 L388.020811,98.4768089" id="Line" stroke="#979797" stroke-width="4" stroke-linecap="square"></path>
            <path d="M1.61813644,114.664193 L113.933592,114.664193" id="Line" stroke="#979797" stroke-width="4" stroke-linecap="square"></path>
            <path d="M1.62875633,138.621521 L388.020811,138.621521" id="Line" stroke="#979797" stroke-width="4" stroke-linecap="square"></path>
            <path d="M1.62875633,151.571429 L388.020811,151.571429" id="Line" stroke="#979797" stroke-width="4" stroke-linecap="square"></path>
            <path d="M1.62875633,178.118738 L388.020811,178.118738" id="Line" stroke="#979797" stroke-width="4" stroke-linecap="square"></path>
            <g id="Group-2" transform="translate(0.647255, 227.975881)" stroke="#979797">
                <use id="Rectangle-9" mask="url(#mask-2)" stroke-width="2" fill="#F2F2F2" stroke-dasharray="4" xlink:href="#path-1"></use>
                <g id="icon-picture" opacity="0.699999988" transform="translate(72.492512, 47.914657)">
                    <polyline id="Path-15" stroke-width="2" points="0.822574528 23.8652256 13.982135 10.1507222 23.2316211 19.8716112 28.6492435 14.1778779 38.904607 24.9559092"></polyline>
                    <ellipse id="Oval-6" fill="#D8D8D8" cx="32.3627288" cy="7.12244898" rx="1.94176373" ry="1.94248609"></ellipse>
                    <rect id="Rectangle-10" stroke-width="2" x="1" y="1" width="37.4825291" height="25.8423006" rx="3"></rect>
                </g>
            </g>
            <g id="Group-2" transform="translate(204.532446, 227.975881)" stroke="#979797">
                <use id="Rectangle-9" mask="url(#mask-4)" stroke-width="2" fill="#F2F2F2" stroke-dasharray="4" xlink:href="#path-3"></use>
                <g id="icon-picture" opacity="0.699999988" transform="translate(72.492512, 47.914657)">
                    <polyline id="Path-15" stroke-width="2" points="0.822574528 23.8652256 13.982135 10.1507222 23.2316211 19.8716112 28.6492435 14.1778779 38.904607 24.9559092"></polyline>
                    <ellipse id="Oval-6" fill="#D8D8D8" cx="32.3627288" cy="7.12244898" rx="1.94176373" ry="1.94248609"></ellipse>
                    <rect id="Rectangle-10" stroke-width="2" x="1" y="1" width="37.4825291" height="25.8423006" rx="3"></rect>
                </g>
            </g>
            <path d="M1.62875633,165.168831 L388.020811,165.168831" id="Line" stroke="#979797" stroke-width="4" stroke-linecap="square"></path>
            <path d="M1.62875633,191.716141 L388.020811,191.716141" id="Line" stroke="#979797" stroke-width="4" stroke-linecap="square"></path>
            <path d="M1.61813644,204.88188 L130.128781,204.88188" id="Line" stroke="#979797" stroke-width="4" stroke-linecap="square"></path>
            <rect id="Rectangle-4" fill="#F8F8F8" x="427" y="242" width="173" height="170"></rect>
            <path d="M430.84,15.14 C431.306669,15.6333358 431.856663,16.0299985 432.49,16.33 C433.123336,16.6300015 433.779997,16.78 434.46,16.78 C435.326671,16.78 435.999998,16.5833353 436.48,16.19 C436.960002,15.7966647 437.2,15.2800032 437.2,14.64 C437.2,14.306665 437.143334,14.0233345 437.03,13.79 C436.916666,13.5566655 436.763334,13.3566675 436.57,13.19 C436.376666,13.0233325 436.146668,12.873334 435.88,12.74 C435.613332,12.606666 435.326668,12.4666674 435.02,12.32 L433.14,11.5 C432.833332,11.366666 432.520002,11.2066676 432.2,11.02 C431.879998,10.8333324 431.593335,10.606668 431.34,10.34 C431.086665,10.073332 430.880001,9.7566685 430.72,9.39 C430.559999,9.0233315 430.48,8.6000024 430.48,8.12 C430.48,7.6266642 430.583332,7.1666688 430.79,6.74 C430.996668,6.3133312 431.283331,5.9433349 431.65,5.63 C432.016668,5.3166651 432.449997,5.0733342 432.95,4.9 C433.450002,4.7266658 433.999997,4.64 434.6,4.64 C435.386671,4.64 436.11333,4.7899985 436.78,5.09 C437.44667,5.3900015 438.013331,5.7799976 438.48,6.26 L437.58,7.34 C437.179998,6.9533314 436.736669,6.6500011 436.25,6.43 C435.763331,6.2099989 435.213336,6.1 434.6,6.1 C433.866663,6.1 433.276669,6.2699983 432.83,6.61 C432.383331,6.9500017 432.16,7.419997 432.16,8.02 C432.16,8.3400016 432.223333,8.6099989 432.35,8.83 C432.476667,9.0500011 432.646666,9.2433325 432.86,9.41 C433.073334,9.5766675 433.306665,9.7233327 433.56,9.85 C433.813335,9.9766673 434.073332,10.0933328 434.34,10.2 L436.2,11 C436.573335,11.1600008 436.926665,11.3433323 437.26,11.55 C437.593335,11.7566677 437.879999,11.9966653 438.12,12.27 C438.360001,12.5433347 438.549999,12.8633315 438.69,13.23 C438.830001,13.5966685 438.9,14.0199976 438.9,14.5 C438.9,15.0200026 438.796668,15.5066644 438.59,15.96 C438.383332,16.4133356 438.086669,16.8099983 437.7,17.15 C437.313331,17.4900017 436.846669,17.7566657 436.3,17.95 C435.753331,18.1433343 435.133337,18.24 434.44,18.24 C433.519995,18.24 432.666671,18.0666684 431.88,17.72 C431.093329,17.3733316 430.413336,16.900003 429.84,16.3 L430.84,15.14 Z M441.18,8.28 L442.84,8.28 L442.84,14.22 C442.84,15.1400046 442.983332,15.8033313 443.27,16.21 C443.556668,16.6166687 444.019997,16.82 444.66,16.82 C445.166669,16.82 445.613331,16.6900013 446,16.43 C446.386669,16.1699987 446.813331,15.7533362 447.28,15.18 L447.28,8.28 L448.92,8.28 L448.92,18 L447.56,18 L447.42,16.48 L447.36,16.48 C446.906664,17.013336 446.430002,17.4399984 445.93,17.76 C445.429997,18.0800016 444.840003,18.24 444.16,18.24 C443.119995,18.24 442.363336,17.9200032 441.89,17.28 C441.416664,16.6399968 441.18,15.6933396 441.18,14.44 L441.18,8.28 Z M452.2,3.76 L453.84,3.76 L453.84,7.64 L453.8,9.4 C454.240002,9.0133314 454.719997,8.6900013 455.24,8.43 C455.760003,8.1699987 456.293331,8.04 456.84,8.04 C457.46667,8.04 458.019998,8.1566655 458.5,8.39 C458.980002,8.6233345 459.383332,8.9566645 459.71,9.39 C460.036668,9.8233355 460.283332,10.3433303 460.45,10.95 C460.616668,11.5566697 460.7,12.2333296 460.7,12.98 C460.7,13.8066708 460.586668,14.5466634 460.36,15.2 C460.133332,15.8533366 459.826669,16.4066644 459.44,16.86 C459.053331,17.3133356 458.606669,17.6566655 458.1,17.89 C457.593331,18.1233345 457.060003,18.24 456.5,18.24 C456.046664,18.24 455.576669,18.1366677 455.09,17.93 C454.603331,17.7233323 454.146669,17.4266686 453.72,17.04 L453.66,17.04 L453.52,18 L452.2,18 L452.2,3.76 Z M453.84,15.84 C454.266669,16.2133352 454.689998,16.4766659 455.11,16.63 C455.530002,16.7833341 455.899998,16.86 456.22,16.86 C456.620002,16.86 456.989998,16.7700009 457.33,16.59 C457.670002,16.4099991 457.963332,16.1566683 458.21,15.83 C458.456668,15.5033317 458.649999,15.1000024 458.79,14.62 C458.930001,14.1399976 459,13.600003 459,13 C459,12.466664 458.953334,11.9800022 458.86,11.54 C458.766666,11.0999978 458.616668,10.7233349 458.41,10.41 C458.203332,10.0966651 457.936668,9.8533342 457.61,9.68 C457.283332,9.5066658 456.893336,9.42 456.44,9.42 C455.653329,9.42 454.786671,9.8599956 453.84,10.74 L453.84,15.84 Z M463.3,8.28 L464.66,8.28 L464.8,9.68 L464.86,9.68 C465.286669,9.213331 465.749997,8.8233349 466.25,8.51 C466.750002,8.1966651 467.29333,8.04 467.88,8.04 C468.62667,8.04 469.209998,8.2033317 469.63,8.53 C470.050002,8.8566683 470.359999,9.3133304 470.56,9.9 C471.066669,9.3399972 471.576664,8.8900017 472.09,8.55 C472.603336,8.2099983 473.159997,8.04 473.76,8.04 C474.760005,8.04 475.503331,8.3599968 475.99,9 C476.476669,9.6400032 476.72,10.5866604 476.72,11.84 L476.72,18 L475.08,18 L475.08,12.06 C475.08,11.1399954 474.933335,10.4766687 474.64,10.07 C474.346665,9.6633313 473.893336,9.46 473.28,9.46 C472.546663,9.46 471.733338,9.959995 470.84,10.96 L470.84,18 L469.2,18 L469.2,12.06 C469.2,11.1399954 469.053335,10.4766687 468.76,10.07 C468.466665,9.6633313 468.00667,9.46 467.38,9.46 C466.646663,9.46 465.833338,9.959995 464.94,10.96 L464.94,18 L463.3,18 L463.3,8.28 Z M479.16,13.16 C479.16,12.359996 479.283332,11.6433365 479.53,11.01 C479.776668,10.3766635 480.103331,9.8400022 480.51,9.4 C480.916669,8.9599978 481.379997,8.6233345 481.9,8.39 C482.420003,8.1566655 482.959997,8.04 483.52,8.04 C484.133336,8.04 484.683331,8.1466656 485.17,8.36 C485.656669,8.5733344 486.063332,8.879998 486.39,9.28 C486.716668,9.680002 486.966666,10.1599972 487.14,10.72 C487.313334,11.2800028 487.4,11.9066632 487.4,12.6 C487.4,12.9600018 487.38,13.2599988 487.34,13.5 L480.78,13.5 C480.846667,14.5533386 481.169997,15.3866636 481.75,16 C482.330003,16.6133364 483.086662,16.92 484.02,16.92 C484.486669,16.92 484.916665,16.8500007 485.31,16.71 C485.703335,16.5699993 486.079998,16.3866678 486.44,16.16 L487.02,17.24 C486.593331,17.506668 486.120003,17.739999 485.6,17.94 C485.079997,18.140001 484.48667,18.24 483.82,18.24 C483.166663,18.24 482.556669,18.1233345 481.99,17.89 C481.423331,17.6566655 480.930002,17.3233355 480.51,16.89 C480.089998,16.4566645 479.760001,15.9266698 479.52,15.3 C479.279999,14.6733302 479.16,13.960004 479.16,13.16 Z M485.96,12.42 C485.96,11.419995 485.750002,10.6566693 485.33,10.13 C484.909998,9.6033307 484.320004,9.34 483.56,9.34 C483.213332,9.34 482.883335,9.4099993 482.57,9.55 C482.256665,9.6900007 481.973335,9.8899987 481.72,10.15 C481.466665,10.4100013 481.256667,10.7299981 481.09,11.11 C480.923333,11.4900019 480.813334,11.9266642 480.76,12.42 L485.96,12.42 Z M489.8,8.28 L491.16,8.28 L491.3,9.68 L491.36,9.68 C491.826669,9.213331 492.316664,8.8233349 492.83,8.51 C493.343336,8.1966651 493.939997,8.04 494.62,8.04 C495.646672,8.04 496.396664,8.3599968 496.87,9 C497.343336,9.6400032 497.58,10.5866604 497.58,11.84 L497.58,18 L495.94,18 L495.94,12.06 C495.94,11.1399954 495.793335,10.4766687 495.5,10.07 C495.206665,9.6633313 494.740003,9.46 494.1,9.46 C493.593331,9.46 493.146669,9.5866654 492.76,9.84 C492.373331,10.0933346 491.933336,10.4666642 491.44,10.96 L491.44,18 L489.8,18 L489.8,8.28 Z M500.6,8.28 L502.26,8.28 L502.26,14.22 C502.26,15.1400046 502.403332,15.8033313 502.69,16.21 C502.976668,16.6166687 503.439997,16.82 504.08,16.82 C504.586669,16.82 505.033331,16.6900013 505.42,16.43 C505.806669,16.1699987 506.233331,15.7533362 506.7,15.18 L506.7,8.28 L508.34,8.28 L508.34,18 L506.98,18 L506.84,16.48 L506.78,16.48 C506.326664,17.013336 505.850002,17.4399984 505.35,17.76 C504.849997,18.0800016 504.260003,18.24 503.58,18.24 C502.539995,18.24 501.783336,17.9200032 501.31,17.28 C500.836664,16.6399968 500.6,15.6933396 500.6,14.44 L500.6,8.28 Z" id="Submenu" fill="#4990E2"></path>
            <rect id="Rectangle-2" stroke="#D7D9D9" stroke-width="4" x="429" y="38" width="169" height="118" rx="3"></rect>
            <path d="M447.677089,61 L518.107415,61" id="Line" stroke="#B3B4B7" stroke-width="4" stroke-linecap="square"></path>
            <path d="M447.677089,78 L518.107415,78" id="Line" stroke="#B3B4B7" stroke-width="4" stroke-linecap="square"></path>
            <path d="M447.677089,96 L518.107415,96" id="Line" stroke="#B3B4B7" stroke-width="4" stroke-linecap="square"></path>
            <path d="M447.677089,114 L518.107415,114" id="Line" stroke="#B3B4B7" stroke-width="4" stroke-linecap="square"></path>
            <path d="M447.677089,132 L518.107415,132" id="Line" stroke="#B3B4B7" stroke-width="4" stroke-linecap="square"></path>
            <path d="M447.981832,297 L550.111266,297" id="Line" stroke="#B3B4B7" stroke-width="4" stroke-linecap="square"></path>
            <path d="M447.981832,319 L550.111266,319" id="Line" stroke="#B3B4B7" stroke-width="4" stroke-linecap="square"></path>
            <path d="M447.981832,385 L550.111266,385" id="Line" stroke="#B3B4B7" stroke-width="4" stroke-linecap="square"></path>
            <path d="M447.981832,341 L550.111266,341" id="Line" stroke="#B3B4B7" stroke-width="4" stroke-linecap="square"></path>
            <path d="M447.981832,363 L550.111266,363" id="Line" stroke="#B3B4B7" stroke-width="4" stroke-linecap="square"></path>
            <g id="Group-3" transform="translate(428.000000, 183.000000)">
                <rect id="Rectangle-3" fill="#4990E2" x="0" y="0" width="172" height="33"></rect>
                <path d="M40.77,13.48 L43,13.48 C43.3400017,13.48 43.6549986,13.5049997 43.945,13.555 C44.2350014,13.6050002 44.4883322,13.6933327 44.705,13.82 C44.9216677,13.9466673 45.0916661,14.1133323 45.215,14.32 C45.3383339,14.5266677 45.4,14.7866651 45.4,15.1 C45.4,15.2466674 45.3783336,15.3933326 45.335,15.54 C45.2916665,15.6866674 45.2266671,15.8233327 45.14,15.95 C45.0533329,16.0766673 44.9400007,16.1899995 44.8,16.29 C44.6599993,16.3900005 44.4966676,16.4633331 44.31,16.51 L44.31,16.55 C44.776669,16.6366671 45.1283321,16.8033321 45.365,17.05 C45.6016678,17.2966679 45.72,17.6399978 45.72,18.08 C45.72,18.413335 45.6550006,18.6999988 45.525,18.94 C45.3949993,19.1800012 45.2150011,19.3783325 44.985,19.535 C44.7549988,19.6916675 44.4866682,19.808333 44.18,19.885 C43.8733318,19.961667 43.5433351,20 43.19,20 L40.77,20 L40.77,13.48 Z M42.93,16.11 C43.2900018,16.11 43.5516658,16.038334 43.715,15.895 C43.8783342,15.7516659 43.96,15.5566679 43.96,15.31 C43.96,15.0633321 43.8766675,14.8866672 43.71,14.78 C43.5433325,14.6733328 43.2866684,14.62 42.94,14.62 L42.24,14.62 L42.24,16.11 L42.93,16.11 Z M43.07,18.86 C43.8766707,18.86 44.28,18.5633363 44.28,17.97 C44.28,17.6833319 44.180001,17.4750006 43.98,17.345 C43.779999,17.2149993 43.4766687,17.15 43.07,17.15 L42.24,17.15 L42.24,18.86 L43.07,18.86 Z M46.82,13.48 L50.9,13.48 L50.9,14.72 L48.29,14.72 L48.29,16.03 L50.51,16.03 L50.51,17.26 L48.29,17.26 L48.29,18.76 L51,18.76 L51,20 L46.82,20 L46.82,13.48 Z M52.3,13.48 L56.38,13.48 L56.38,14.72 L53.77,14.72 L53.77,16.03 L55.99,16.03 L55.99,17.26 L53.77,17.26 L53.77,18.76 L56.48,18.76 L56.48,20 L52.3,20 L52.3,13.48 Z M57.78,13.48 L59.62,13.48 C60.1200025,13.48 60.569998,13.5433327 60.97,13.67 C61.370002,13.7966673 61.7133319,13.9916653 62,14.255 C62.2866681,14.5183346 62.5066659,14.8533313 62.66,15.26 C62.8133341,15.6666687 62.89,16.1499972 62.89,16.71 C62.89,17.2700028 62.8133341,17.7566646 62.66,18.17 C62.5066659,18.5833354 62.2900014,18.9249986 62.01,19.195 C61.7299986,19.4650014 61.395002,19.666666 61.005,19.8 C60.6149981,19.933334 60.1800024,20 59.7,20 L57.78,20 L57.78,13.48 Z M59.53,18.81 C59.8100014,18.81 60.0633322,18.7733337 60.29,18.7 C60.5166678,18.6266663 60.7099992,18.5083341 60.87,18.345 C61.0300008,18.1816659 61.1549995,17.966668 61.245,17.7 C61.3350005,17.433332 61.38,17.1033353 61.38,16.71 C61.38,16.3233314 61.3350005,15.9983347 61.245,15.735 C61.1549995,15.4716653 61.0300008,15.2616674 60.87,15.105 C60.7099992,14.9483325 60.5166678,14.836667 60.29,14.77 C60.0633322,14.703333 59.8100014,14.67 59.53,14.67 L59.25,14.67 L59.25,18.81 L59.53,18.81 Z M68.97,17.3 L68.82,16.7 C68.7266662,16.3733317 68.6366671,16.0266685 68.55,15.66 C68.4633329,15.2933315 68.3766671,14.9400017 68.29,14.6 L68.25,14.6 C68.1699996,14.9466684 68.0883338,15.3016648 68.005,15.665 C67.9216663,16.0283352 67.8333338,16.3733317 67.74,16.7 L67.58,17.3 L68.97,17.3 Z M69.27,18.45 L67.28,18.45 L66.88,20 L65.38,20 L67.42,13.48 L69.19,13.48 L71.23,20 L69.67,20 L69.27,18.45 Z M75.22,16.71 C75.22,17.4100035 75.3499987,17.9533314 75.61,18.34 C75.8700013,18.7266686 76.2233311,18.92 76.67,18.92 C77.1166689,18.92 77.4699987,18.7266686 77.73,18.34 C77.9900013,17.9533314 78.12,17.4100035 78.12,16.71 C78.12,16.0566634 77.9900013,15.5466685 77.73,15.18 C77.4699987,14.8133315 77.1166689,14.63 76.67,14.63 C76.2233311,14.63 75.8700013,14.8133315 75.61,15.18 C75.3499987,15.5466685 75.22,16.0566634 75.22,16.71 Z M79.97,21.57 C79.8499994,21.6300003 79.6916676,21.6799998 79.495,21.72 C79.2983324,21.7600002 79.0733346,21.78 78.82,21.78 C78.1266632,21.78 77.5416691,21.6200016 77.065,21.3 C76.5883309,20.9799984 76.2333345,20.5633359 76,20.05 C75.6533316,19.9766663 75.3383348,19.8483343 75.055,19.665 C74.7716653,19.4816657 74.530001,19.2466681 74.33,18.96 C74.129999,18.6733319 73.9766672,18.3416686 73.87,17.965 C73.7633328,17.5883314 73.71,17.1700023 73.71,16.71 C73.71,16.176664 73.781666,15.7016687 73.925,15.285 C74.0683341,14.8683313 74.2699987,14.5183348 74.53,14.235 C74.7900013,13.9516652 75.1016649,13.7350007 75.465,13.585 C75.8283352,13.4349993 76.2299978,13.36 76.67,13.36 C77.1100022,13.36 77.5116649,13.4349993 77.875,13.585 C78.2383352,13.7350007 78.5499987,13.9533319 78.81,14.24 C79.0700013,14.5266681 79.271666,14.8783313 79.415,15.295 C79.5583341,15.7116687 79.63,16.1833307 79.63,16.71 C79.63,17.5900044 79.4433352,18.3133305 79.07,18.88 C78.6966648,19.4466695 78.1933365,19.8199991 77.56,20 C77.7133341,20.2266678 77.9199987,20.3849995 78.18,20.475 C78.4400013,20.5650004 78.7099986,20.61 78.99,20.61 C79.1300007,20.61 79.2616661,20.5983334 79.385,20.575 C79.508334,20.5516666 79.6166662,20.5233335 79.71,20.49 L79.97,21.57 Z M80.82,13.48 L82.3,13.48 L82.3,17.13 C82.3,17.7700032 82.3966657,18.2166654 82.59,18.47 C82.7833343,18.7233346 83.0633315,18.85 83.43,18.85 C83.7966685,18.85 84.079999,18.7233346 84.28,18.47 C84.480001,18.2166654 84.58,17.7700032 84.58,17.13 L84.58,13.48 L86,13.48 L86,16.98 C86,18.0733388 85.7816689,18.8699975 85.345,19.37 C84.9083312,19.8700025 84.2700042,20.12 83.43,20.12 C82.5833291,20.12 81.9366689,19.8700025 81.49,19.37 C81.0433311,18.8699975 80.82,18.0733388 80.82,16.98 L80.82,13.48 Z M90.16,20.12 C89.7199978,20.12 89.3183351,20.0416674 88.955,19.885 C88.5916649,19.7283326 88.2800013,19.5033348 88.02,19.21 C87.7599987,18.9166652 87.558334,18.5600021 87.415,18.14 C87.2716659,17.7199979 87.2,17.243336 87.2,16.71 C87.2,16.176664 87.2716659,15.7016687 87.415,15.285 C87.558334,14.8683313 87.7599987,14.5183348 88.02,14.235 C88.2800013,13.9516652 88.5916649,13.7350007 88.955,13.585 C89.3183351,13.4349993 89.7199978,13.36 90.16,13.36 C90.6000022,13.36 91.0016648,13.4349993 91.365,13.585 C91.7283352,13.7350007 92.0399987,13.9533319 92.3,14.24 C92.5600013,14.5266681 92.761666,14.8783313 92.905,15.295 C93.048334,15.7116687 93.12,16.1833307 93.12,16.71 C93.12,17.243336 93.048334,17.7199979 92.905,18.14 C92.761666,18.5600021 92.5600013,18.9166652 92.3,19.21 C92.0399987,19.5033348 91.7283352,19.7283326 91.365,19.885 C91.0016648,20.0416674 90.6000022,20.12 90.16,20.12 Z M90.16,18.85 C90.6066689,18.85 90.9599987,18.6583353 91.22,18.275 C91.4800013,17.8916648 91.61,17.3700033 91.61,16.71 C91.61,16.0566634 91.4800013,15.5466685 91.22,15.18 C90.9599987,14.8133315 90.6066689,14.63 90.16,14.63 C89.7133311,14.63 89.3600013,14.8133315 89.1,15.18 C88.8399987,15.5466685 88.71,16.0566634 88.71,16.71 C88.71,17.3700033 88.8399987,17.8916648 89.1,18.275 C89.3600013,18.6583353 89.7133311,18.85 90.16,18.85 Z M95.62,14.72 L93.83,14.72 L93.83,13.48 L98.89,13.48 L98.89,14.72 L97.1,14.72 L97.1,20 L95.62,20 L95.62,14.72 Z M102.67,17.3 L102.52,16.7 C102.426666,16.3733317 102.336667,16.0266685 102.25,15.66 C102.163333,15.2933315 102.076667,14.9400017 101.99,14.6 L101.95,14.6 C101.87,14.9466684 101.788334,15.3016648 101.705,15.665 C101.621666,16.0283352 101.533334,16.3733317 101.44,16.7 L101.28,17.3 L102.67,17.3 Z M102.97,18.45 L100.98,18.45 L100.58,20 L99.08,20 L101.12,13.48 L102.89,13.48 L104.93,20 L103.37,20 L102.97,18.45 Z M106.91,14.72 L105.12,14.72 L105.12,13.48 L110.18,13.48 L110.18,14.72 L108.39,14.72 L108.39,20 L106.91,20 L106.91,14.72 Z M111.2,13.48 L112.67,13.48 L112.67,20 L111.2,20 L111.2,13.48 Z M116.86,20.12 C116.419998,20.12 116.018335,20.0416674 115.655,19.885 C115.291665,19.7283326 114.980001,19.5033348 114.72,19.21 C114.459999,18.9166652 114.258334,18.5600021 114.115,18.14 C113.971666,17.7199979 113.9,17.243336 113.9,16.71 C113.9,16.176664 113.971666,15.7016687 114.115,15.285 C114.258334,14.8683313 114.459999,14.5183348 114.72,14.235 C114.980001,13.9516652 115.291665,13.7350007 115.655,13.585 C116.018335,13.4349993 116.419998,13.36 116.86,13.36 C117.300002,13.36 117.701665,13.4349993 118.065,13.585 C118.428335,13.7350007 118.739999,13.9533319 119,14.24 C119.260001,14.5266681 119.461666,14.8783313 119.605,15.295 C119.748334,15.7116687 119.82,16.1833307 119.82,16.71 C119.82,17.243336 119.748334,17.7199979 119.605,18.14 C119.461666,18.5600021 119.260001,18.9166652 119,19.21 C118.739999,19.5033348 118.428335,19.7283326 118.065,19.885 C117.701665,20.0416674 117.300002,20.12 116.86,20.12 Z M116.86,18.85 C117.306669,18.85 117.659999,18.6583353 117.92,18.275 C118.180001,17.8916648 118.31,17.3700033 118.31,16.71 C118.31,16.0566634 118.180001,15.5466685 117.92,15.18 C117.659999,14.8133315 117.306669,14.63 116.86,14.63 C116.413331,14.63 116.060001,14.8133315 115.8,15.18 C115.539999,15.5466685 115.41,16.0566634 115.41,16.71 C115.41,17.3700033 115.539999,17.8916648 115.8,18.275 C116.060001,18.6583353 116.413331,18.85 116.86,18.85 Z M121.05,13.48 L122.56,13.48 L124.26,16.72 L124.9,18.16 L124.94,18.16 C124.906667,17.8133316 124.868334,17.4266688 124.825,17 C124.781666,16.5733312 124.76,16.1666686 124.76,15.78 L124.76,13.48 L126.16,13.48 L126.16,20 L124.65,20 L122.95,16.75 L122.31,15.33 L122.27,15.33 C122.303334,15.6900018 122.341666,16.0766646 122.385,16.49 C122.428334,16.9033354 122.45,17.3033314 122.45,17.69 L122.45,20 L121.05,20 L121.05,13.48 Z M128.47,17.69 C128.436667,17.4633322 128.445,17.2566676 128.495,17.07 C128.545,16.8833324 128.616666,16.7100008 128.71,16.55 C128.803334,16.3899992 128.908333,16.243334 129.025,16.11 C129.141667,15.976666 129.253333,15.848334 129.36,15.725 C129.466667,15.6016661 129.555,15.4816673 129.625,15.365 C129.695,15.2483327 129.73,15.1266673 129.73,15 C129.73,14.7933323 129.668334,14.6366672 129.545,14.53 C129.421666,14.4233328 129.260001,14.37 129.06,14.37 C128.873332,14.37 128.708334,14.4133329 128.565,14.5 C128.421666,14.5866671 128.283334,14.696666 128.15,14.83 L127.34,14.09 C127.566668,13.8166653 127.833332,13.5966675 128.14,13.43 C128.446668,13.2633325 128.786665,13.18 129.16,13.18 C129.440001,13.18 129.701665,13.213333 129.945,13.28 C130.188335,13.346667 130.398332,13.4499993 130.575,13.59 C130.751668,13.7300007 130.89,13.9083323 130.99,14.125 C131.090001,14.3416677 131.14,14.5966652 131.14,14.89 C131.14,15.0966677 131.103334,15.2816658 131.03,15.445 C130.956666,15.6083341 130.865001,15.7599993 130.755,15.9 C130.644999,16.0400007 130.528334,16.1749994 130.405,16.305 C130.281666,16.4350006 130.168334,16.5699993 130.065,16.71 C129.961666,16.8500007 129.88,16.9983326 129.82,17.155 C129.76,17.3116675 129.74,17.489999 129.76,17.69 L128.47,17.69 Z M128.23,19.2 C128.23,18.933332 128.313333,18.7116676 128.48,18.535 C128.646668,18.3583324 128.856665,18.27 129.11,18.27 C129.363335,18.27 129.574999,18.3583324 129.745,18.535 C129.915001,18.7116676 130,18.933332 130,19.2 C130,19.4600013 129.915001,19.6783324 129.745,19.855 C129.574999,20.0316676 129.363335,20.12 129.11,20.12 C128.856665,20.12 128.646668,20.0316676 128.48,19.855 C128.313333,19.6783324 128.23,19.4600013 128.23,19.2 Z" id="BEED-A-QUOTATION?" fill="#FFFFFF"></path>
            </g>
            <path d="M446.26,262.816 L448.556,262.816 C449.974674,262.816 451.052663,263.207996 451.79,263.992 C452.527337,264.776004 452.896,265.900659 452.896,267.366 C452.896,268.094004 452.802668,268.744997 452.616,269.319 C452.429332,269.893003 452.154002,270.378331 451.79,270.775 C451.425998,271.171669 450.978003,271.474999 450.446,271.685 C449.913997,271.895001 449.30267,272 448.612,272 L446.26,272 L446.26,262.816 Z M448.472,271.048 C449.545339,271.048 450.350331,270.726003 450.887,270.082 C451.423669,269.437997 451.692,268.532672 451.692,267.366 C451.692,266.199327 451.423669,265.308003 450.887,264.692 C450.350331,264.075997 449.545339,263.768 448.472,263.768 L447.422,263.768 L447.422,271.048 L448.472,271.048 Z M454.254,268.612 C454.254,268.042664 454.340332,267.536336 454.513,267.093 C454.685668,266.649664 454.916665,266.274002 455.206,265.966 C455.495335,265.657998 455.828998,265.424667 456.207,265.266 C456.585002,265.107333 456.983998,265.028 457.404,265.028 C457.824002,265.028 458.222998,265.107333 458.601,265.266 C458.979002,265.424667 459.312665,265.657998 459.602,265.966 C459.891335,266.274002 460.122332,266.649664 460.295,267.093 C460.467668,267.536336 460.554,268.042664 460.554,268.612 C460.554,269.172003 460.467668,269.673664 460.295,270.117 C460.122332,270.560336 459.891335,270.933665 459.602,271.237 C459.312665,271.540335 458.979002,271.771333 458.601,271.93 C458.222998,272.088667 457.824002,272.168 457.404,272.168 C456.983998,272.168 456.585002,272.088667 456.207,271.93 C455.828998,271.771333 455.495335,271.540335 455.206,271.237 C454.916665,270.933665 454.685668,270.560336 454.513,270.117 C454.340332,269.673664 454.254,269.172003 454.254,268.612 Z M455.444,268.612 C455.444,269.004002 455.490666,269.358665 455.584,269.676 C455.677334,269.993335 455.810332,270.266332 455.983,270.495 C456.155668,270.723668 456.363332,270.900999 456.606,271.027 C456.848668,271.153001 457.114665,271.216 457.404,271.216 C457.693335,271.216 457.959332,271.153001 458.202,271.027 C458.444668,270.900999 458.652332,270.723668 458.825,270.495 C458.997668,270.266332 459.130666,269.993335 459.224,269.676 C459.317334,269.358665 459.364,269.004002 459.364,268.612 C459.364,268.219998 459.317334,267.863002 459.224,267.541 C459.130666,267.218998 458.997668,266.941334 458.825,266.708 C458.652332,266.474665 458.444668,266.295001 458.202,266.169 C457.959332,266.042999 457.693335,265.98 457.404,265.98 C457.114665,265.98 456.848668,266.042999 456.606,266.169 C456.363332,266.295001 456.155668,266.474665 455.983,266.708 C455.810332,266.941334 455.677334,267.218998 455.584,267.541 C455.490666,267.863002 455.444,268.219998 455.444,268.612 Z M461.534,265.196 L462.71,265.196 L463.718,269.13 C463.792667,269.456668 463.862666,269.773998 463.928,270.082 C463.993334,270.390002 464.058666,270.702665 464.124,271.02 L464.18,271.02 C464.254667,270.702665 464.329333,270.387668 464.404,270.075 C464.478667,269.762332 464.558,269.447335 464.642,269.13 L465.692,265.196 L466.812,265.196 L467.876,269.13 C467.96,269.456668 468.041666,269.773998 468.121,270.082 C468.200334,270.390002 468.277333,270.702665 468.352,271.02 L468.408,271.02 C468.482667,270.702665 468.552666,270.390002 468.618,270.082 C468.683334,269.773998 468.753333,269.456668 468.828,269.13 L469.822,265.196 L470.914,265.196 L469.094,272 L467.694,272 L466.714,268.346 C466.63,268.019332 466.553,267.697335 466.483,267.38 C466.413,267.062665 466.336,266.731335 466.252,266.386 L466.196,266.386 C466.121333,266.731335 466.046667,267.064998 465.972,267.387 C465.897333,267.709002 465.813334,268.033332 465.72,268.36 L464.768,272 L463.424,272 L461.534,265.196 Z M472.398,265.196 L473.35,265.196 L473.448,266.176 L473.49,266.176 C473.816668,265.849332 474.159665,265.576334 474.519,265.357 C474.878335,265.137666 475.295998,265.028 475.772,265.028 C476.49067,265.028 477.015665,265.251998 477.347,265.7 C477.678335,266.148002 477.844,266.810662 477.844,267.688 L477.844,272 L476.696,272 L476.696,267.842 C476.696,267.197997 476.593334,266.733668 476.388,266.449 C476.182666,266.164332 475.856002,266.022 475.408,266.022 C475.053332,266.022 474.740668,266.110666 474.47,266.288 C474.199332,266.465334 473.891335,266.726665 473.546,267.072 L473.546,272 L472.398,272 L472.398,265.196 Z M480.056,262.032 L481.204,262.032 L481.204,270.712 C481.204,270.898668 481.236666,271.029333 481.302,271.104 C481.367334,271.178667 481.442,271.216 481.526,271.216 L481.631,271.216 C481.663667,271.216 481.712666,271.206667 481.778,271.188 L481.932,272.056 C481.857333,272.093334 481.768667,272.121333 481.666,272.14 C481.563333,272.158667 481.432667,272.168 481.274,272.168 C480.835331,272.168 480.522668,272.037335 480.336,271.776 C480.149332,271.514665 480.056,271.132003 480.056,270.628 L480.056,262.032 Z M483.122,268.612 C483.122,268.042664 483.208332,267.536336 483.381,267.093 C483.553668,266.649664 483.784665,266.274002 484.074,265.966 C484.363335,265.657998 484.696998,265.424667 485.075,265.266 C485.453002,265.107333 485.851998,265.028 486.272,265.028 C486.692002,265.028 487.090998,265.107333 487.469,265.266 C487.847002,265.424667 488.180665,265.657998 488.47,265.966 C488.759335,266.274002 488.990332,266.649664 489.163,267.093 C489.335668,267.536336 489.422,268.042664 489.422,268.612 C489.422,269.172003 489.335668,269.673664 489.163,270.117 C488.990332,270.560336 488.759335,270.933665 488.47,271.237 C488.180665,271.540335 487.847002,271.771333 487.469,271.93 C487.090998,272.088667 486.692002,272.168 486.272,272.168 C485.851998,272.168 485.453002,272.088667 485.075,271.93 C484.696998,271.771333 484.363335,271.540335 484.074,271.237 C483.784665,270.933665 483.553668,270.560336 483.381,270.117 C483.208332,269.673664 483.122,269.172003 483.122,268.612 Z M484.312,268.612 C484.312,269.004002 484.358666,269.358665 484.452,269.676 C484.545334,269.993335 484.678332,270.266332 484.851,270.495 C485.023668,270.723668 485.231332,270.900999 485.474,271.027 C485.716668,271.153001 485.982665,271.216 486.272,271.216 C486.561335,271.216 486.827332,271.153001 487.07,271.027 C487.312668,270.900999 487.520332,270.723668 487.693,270.495 C487.865668,270.266332 487.998666,269.993335 488.092,269.676 C488.185334,269.358665 488.232,269.004002 488.232,268.612 C488.232,268.219998 488.185334,267.863002 488.092,267.541 C487.998666,267.218998 487.865668,266.941334 487.693,266.708 C487.520332,266.474665 487.312668,266.295001 487.07,266.169 C486.827332,266.042999 486.561335,265.98 486.272,265.98 C485.982665,265.98 485.716668,266.042999 485.474,266.169 C485.231332,266.295001 485.023668,266.474665 484.851,266.708 C484.678332,266.941334 484.545334,267.218998 484.452,267.541 C484.358666,267.863002 484.312,268.219998 484.312,268.612 Z M490.878,270.236 C490.878,269.48933 491.211663,268.917669 491.879,268.521 C492.546337,268.124331 493.607993,267.846667 495.064,267.688 C495.064,267.473332 495.043,267.263334 495.001,267.058 C494.959,266.852666 494.884334,266.670667 494.777,266.512 C494.669666,266.353333 494.527334,266.225 494.35,266.127 C494.172666,266.029 493.944001,265.98 493.664,265.98 C493.262665,265.98 492.891668,266.054666 492.551,266.204 C492.210332,266.353334 491.904668,266.521332 491.634,266.708 L491.172,265.91 C491.489335,265.704666 491.876664,265.506334 492.334,265.315 C492.791336,265.123666 493.295331,265.028 493.846,265.028 C494.676671,265.028 495.278665,265.282331 495.652,265.791 C496.025335,266.299669 496.212,266.978662 496.212,267.828 L496.212,272 L495.26,272 L495.162,271.188 L495.134,271.188 C494.807332,271.458668 494.455002,271.689666 494.077,271.881 C493.698998,272.072334 493.300002,272.168 492.88,272.168 C492.30133,272.168 491.823002,272.000002 491.445,271.664 C491.066998,271.327998 490.878,270.852003 490.878,270.236 Z M492.012,270.152 C492.012,270.544002 492.126332,270.823999 492.355,270.992 C492.583668,271.160001 492.865998,271.244 493.202,271.244 C493.528668,271.244 493.838999,271.167001 494.133,271.013 C494.427001,270.858999 494.737332,270.632668 495.064,270.334 L495.064,268.444 C494.494664,268.518667 494.014002,268.607333 493.622,268.71 C493.229998,268.812667 492.915001,268.933999 492.677,269.074 C492.438999,269.214001 492.268667,269.374999 492.166,269.557 C492.063333,269.739001 492.012,269.937332 492.012,270.152 Z M497.892,268.612 C497.892,268.061331 497.973666,267.564336 498.137,267.121 C498.300334,266.677664 498.517332,266.302002 498.788,265.994 C499.058668,265.685998 499.371332,265.448001 499.726,265.28 C500.080668,265.111999 500.453998,265.028 500.846,265.028 C501.238002,265.028 501.578665,265.097999 501.868,265.238 C502.157335,265.378001 502.451332,265.569332 502.75,265.812 L502.694,264.65 L502.694,262.032 L503.856,262.032 L503.856,272 L502.904,272 L502.806,271.202 L502.764,271.202 C502.493332,271.463335 502.183002,271.689666 501.833,271.881 C501.482998,272.072334 501.107335,272.168 500.706,272.168 C499.847329,272.168 499.163669,271.860003 498.655,271.244 C498.146331,270.627997 497.892,269.750672 497.892,268.612 Z M499.082,268.598 C499.082,269.419337 499.245332,270.058664 499.572,270.516 C499.898668,270.973336 500.360664,271.202 500.958,271.202 C501.275335,271.202 501.573999,271.125001 501.854,270.971 C502.134001,270.816999 502.413999,270.581335 502.694,270.264 L502.694,266.708 C502.404665,266.446665 502.127001,266.262334 501.861,266.155 C501.594999,266.047666 501.322001,265.994 501.042,265.994 C500.771332,265.994 500.517001,266.056999 500.279,266.183 C500.040999,266.309001 499.833334,266.486332 499.656,266.715 C499.478666,266.943668 499.338667,267.216665 499.236,267.534 C499.133333,267.851335 499.082,268.205998 499.082,268.598 Z M505.97,270.46 C506.268668,270.702668 506.574332,270.898666 506.887,271.048 C507.199668,271.197334 507.561331,271.272 507.972,271.272 C508.420002,271.272 508.755999,271.169334 508.98,270.964 C509.204001,270.758666 509.316,270.506668 509.316,270.208 C509.316,270.030666 509.269334,269.876667 509.176,269.746 C509.082666,269.615333 508.963667,269.501 508.819,269.403 C508.674333,269.305 508.508668,269.218667 508.322,269.144 L507.762,268.92 C507.519332,268.836 507.276668,268.740334 507.034,268.633 C506.791332,268.525666 506.574334,268.395001 506.383,268.241 C506.191666,268.086999 506.035334,267.907334 505.914,267.702 C505.792666,267.496666 505.732,267.249335 505.732,266.96 C505.732,266.689332 505.785666,266.435001 505.893,266.197 C506.000334,265.958999 506.154332,265.753668 506.355,265.581 C506.555668,265.408332 506.800665,265.273 507.09,265.175 C507.379335,265.077 507.705998,265.028 508.07,265.028 C508.499335,265.028 508.893665,265.102666 509.253,265.252 C509.612335,265.401334 509.922665,265.583332 510.184,265.798 L509.638,266.526 C509.404666,266.348666 509.162001,266.204001 508.91,266.092 C508.657999,265.979999 508.382668,265.924 508.084,265.924 C507.654665,265.924 507.339668,266.021999 507.139,266.218 C506.938332,266.414001 506.838,266.642665 506.838,266.904 C506.838,267.062667 506.88,267.200333 506.964,267.317 C507.048,267.433667 507.159999,267.536333 507.3,267.625 C507.440001,267.713667 507.600999,267.793 507.783,267.863 C507.965001,267.933 508.153999,268.005333 508.35,268.08 C508.592668,268.173334 508.837665,268.271333 509.085,268.374 C509.332335,268.476667 509.553999,268.604999 509.75,268.759 C509.946001,268.913001 510.106999,269.101999 510.233,269.326 C510.359001,269.550001 510.422,269.820665 510.422,270.138 C510.422,270.418001 510.368334,270.679332 510.261,270.922 C510.153666,271.164668 509.995001,271.379332 509.785,271.566 C509.574999,271.752668 509.313668,271.899666 509.001,272.007 C508.688332,272.114334 508.331335,272.168 507.93,272.168 C507.444664,272.168 506.982669,272.079334 506.544,271.902 C506.105331,271.724666 505.722668,271.500668 505.396,271.23 L505.97,270.46 Z" id="Downloads" fill="#79797B"></path>
        </g>
    </g>
</svg>