<?xml version="1.0" encoding="UTF-8"?>
<svg width="601px" height="422px" viewBox="0 0 601 422" version="1.1" xmlns="http://www.w3.org/2000/svg" xmlns:xlink="http://www.w3.org/1999/xlink">
    <!-- Generator: Sketch 44.1 (41455) - http://www.bohemiancoding.com/sketch -->
    <title>pricing01</title>
    <desc>Created with Sketch.</desc>
    <defs></defs>
    <g id="Pricing" stroke="none" stroke-width="1" fill="none" fill-rule="evenodd">
        <g id="01">
            <path d="M183.22439,1.67702 L180.823171,1.67702 L180.823171,0.0122454868 L187.610976,0.0122454868 L187.610976,1.67702 L185.209756,1.67702 L185.209756,8.76573726 L183.22439,8.76573726 L183.22439,1.67702 Z M192.145122,5.14082502 L191.943902,4.33528897 C191.818699,3.89671715 191.697968,3.43130097 191.581707,2.93902648 C191.465447,2.44675198 191.349188,1.9723855 191.232927,1.51591279 L191.179268,1.51591279 C191.071951,1.98133594 190.962399,2.45794001 190.85061,2.94573928 C190.738821,3.43353855 190.620326,3.89671715 190.495122,4.33528897 L190.280488,5.14082502 L192.145122,5.14082502 Z M192.547561,6.68476912 L189.878049,6.68476912 L189.341463,8.76573726 L187.329268,8.76573726 L190.065854,0.0122454868 L192.440244,0.0122454868 L195.176829,8.76573726 L193.084146,8.76573726 L192.547561,6.68476912 Z M196.129268,0.0122454868 L199.120732,0.0122454868 C199.576832,0.0122454868 199.999388,0.0458091534 200.388415,0.112937493 C200.777441,0.180065833 201.117275,0.298657455 201.407927,0.468715917 C201.698579,0.638774378 201.926625,0.862532155 202.092073,1.13999596 C202.257521,1.41745977 202.340244,1.7665219 202.340244,2.18719283 C202.340244,2.38410263 202.311179,2.58100947 202.253049,2.77791927 C202.194918,2.97482906 202.107724,3.15831044 201.991463,3.3283689 C201.875203,3.49842736 201.723172,3.65058265 201.535366,3.78483933 C201.34756,3.91909601 201.128457,4.01754944 200.878049,4.08020255 L200.878049,4.13390496 C201.504068,4.25026075 201.975811,4.47401852 202.293293,4.805185 C202.610774,5.13635148 202.769512,5.5972925 202.769512,6.18802189 C202.769512,6.63554416 202.682318,7.02040753 202.507927,7.34262357 C202.333536,7.6648396 202.092075,7.93111135 201.783537,8.14144682 C201.474998,8.35178228 201.115043,8.50841273 200.703659,8.61134285 C200.292274,8.71427297 199.849596,8.76573726 199.37561,8.76573726 L196.129268,8.76573726 L196.129268,0.0122454868 Z M199.026829,3.54317852 C199.509759,3.54317852 199.860771,3.44696267 200.079878,3.2545281 C200.298985,3.06209352 200.408537,2.80029692 200.408537,2.46913045 C200.408537,2.13796397 200.296749,1.90078073 200.073171,1.7575736 C199.849592,1.61436648 199.505287,1.54276399 199.040244,1.54276399 L198.10122,1.54276399 L198.10122,3.54317852 L199.026829,3.54317852 Z M199.214634,7.23521876 C200.296753,7.23521876 200.837805,6.83692992 200.837805,6.04034028 C200.837805,5.65547113 200.70366,5.37577391 200.435366,5.20124023 C200.167072,5.02670654 199.760165,4.93944101 199.214634,4.93944101 L198.10122,4.93944101 L198.10122,7.23521876 L199.214634,7.23521876 Z M206.941463,7.16809075 L208.792683,7.16809075 L208.792683,2.24089523 L207.196341,2.24089523 L207.196341,1.01916555 C207.661384,0.929661099 208.054876,0.822257366 208.376829,0.696951132 C208.698782,0.571644897 209.011787,0.419489608 209.315854,0.240480702 L210.764634,0.240480702 L210.764634,7.16809075 L212.360976,7.16809075 L212.360976,8.76573726 L206.941463,8.76573726 L206.941463,7.16809075 Z" id="TAB-1" fill="#79797B"></path>
            <path d="M280.785366,1.67702 L278.384146,1.67702 L278.384146,0.0122454868 L285.171951,0.0122454868 L285.171951,1.67702 L282.770732,1.67702 L282.770732,8.76573726 L280.785366,8.76573726 L280.785366,1.67702 Z M289.706098,5.14082502 L289.504878,4.33528897 C289.379674,3.89671715 289.258944,3.43130097 289.142683,2.93902648 C289.026422,2.44675198 288.910163,1.9723855 288.793902,1.51591279 L288.740244,1.51591279 C288.632926,1.98133594 288.523375,2.45794001 288.411585,2.94573928 C288.299796,3.43353855 288.181301,3.89671715 288.056098,4.33528897 L287.841463,5.14082502 L289.706098,5.14082502 Z M290.108537,6.68476912 L287.439024,6.68476912 L286.902439,8.76573726 L284.890244,8.76573726 L287.626829,0.0122454868 L290.00122,0.0122454868 L292.737805,8.76573726 L290.645122,8.76573726 L290.108537,6.68476912 Z M293.690244,0.0122454868 L296.681707,0.0122454868 C297.137807,0.0122454868 297.560364,0.0458091534 297.94939,0.112937493 C298.338417,0.180065833 298.678251,0.298657455 298.968902,0.468715917 C299.259554,0.638774378 299.487601,0.862532155 299.653049,1.13999596 C299.818497,1.41745977 299.90122,1.7665219 299.90122,2.18719283 C299.90122,2.38410263 299.872155,2.58100947 299.814024,2.77791927 C299.755894,2.97482906 299.6687,3.15831044 299.552439,3.3283689 C299.436178,3.49842736 299.284147,3.65058265 299.096341,3.78483933 C298.908536,3.91909601 298.689432,4.01754944 298.439024,4.08020255 L298.439024,4.13390496 C299.065044,4.25026075 299.536787,4.47401852 299.854268,4.805185 C300.17175,5.13635148 300.330488,5.5972925 300.330488,6.18802189 C300.330488,6.63554416 300.243294,7.02040753 300.068902,7.34262357 C299.894511,7.6648396 299.65305,7.93111135 299.344512,8.14144682 C299.035974,8.35178228 298.676018,8.50841273 298.264634,8.61134285 C297.85325,8.71427297 297.410571,8.76573726 296.936585,8.76573726 L293.690244,8.76573726 L293.690244,0.0122454868 Z M296.587805,3.54317852 C297.070734,3.54317852 297.421747,3.44696267 297.640854,3.2545281 C297.85996,3.06209352 297.969512,2.80029692 297.969512,2.46913045 C297.969512,2.13796397 297.857725,1.90078073 297.634146,1.7575736 C297.410568,1.61436648 297.066262,1.54276399 296.60122,1.54276399 L295.662195,1.54276399 L295.662195,3.54317852 L296.587805,3.54317852 Z M296.77561,7.23521876 C297.857729,7.23521876 298.39878,6.83692992 298.39878,6.04034028 C298.39878,5.65547113 298.264635,5.37577391 297.996341,5.20124023 C297.728047,5.02670654 297.321141,4.93944101 296.77561,4.93944101 L295.662195,4.93944101 L295.662195,7.23521876 L296.77561,7.23521876 Z M304.059756,7.63798679 C304.605287,7.1278114 305.10386,6.65120734 305.555488,6.20816029 C306.007116,5.76511325 306.396137,5.34892378 306.722561,4.95957941 C307.048985,4.57023504 307.303861,4.20774744 307.487195,3.87210574 C307.670529,3.53646404 307.762195,3.21649042 307.762195,2.91217528 C307.762195,2.49150435 307.654879,2.17153072 307.440244,1.95224481 C307.225609,1.7329589 306.93049,1.62331759 306.554878,1.62331759 C306.241868,1.62331759 305.964635,1.71058313 305.723171,1.88511681 C305.481706,2.05965049 305.25366,2.26327007 305.039024,2.49598165 L303.965854,1.43535918 C304.386181,0.987836913 304.815445,0.64996267 305.253659,0.421726314 C305.691872,0.193489957 306.215038,0.0793734912 306.823171,0.0793734912 C307.243498,0.0793734912 307.625811,0.144263247 307.970122,0.274044704 C308.314433,0.403826161 308.611787,0.587307538 308.862195,0.82449434 C309.112603,1.06168114 309.304877,1.34585352 309.439024,1.67702 C309.573171,2.00818647 309.640244,2.37962438 309.640244,2.79134487 C309.640244,3.14936268 309.564228,3.51408786 309.412195,3.88553134 C309.260162,4.25697482 309.056709,4.62841273 308.801829,4.99985621 C308.54695,5.37129969 308.256302,5.7427376 307.929878,6.11418109 C307.603454,6.48562457 307.265855,6.85034974 306.917073,7.20836756 C307.131708,7.18151622 307.370934,7.15690287 307.634756,7.13452675 C307.898579,7.11215064 308.133332,7.10096275 308.339024,7.10096275 L310.056098,7.10096275 L310.056098,8.76573726 L304.059756,8.76573726 L304.059756,7.63798679 Z" id="TAB-2" fill="#79797B"></path>
            <path d="M378.346341,1.67702 L375.945122,1.67702 L375.945122,0.0122454868 L382.732927,0.0122454868 L382.732927,1.67702 L380.331707,1.67702 L380.331707,8.76573726 L378.346341,8.76573726 L378.346341,1.67702 Z M387.267073,5.14082502 L387.065854,4.33528897 C386.94065,3.89671715 386.819919,3.43130097 386.703659,2.93902648 C386.587398,2.44675198 386.471139,1.9723855 386.354878,1.51591279 L386.30122,1.51591279 C386.193902,1.98133594 386.08435,2.45794001 385.972561,2.94573928 C385.860772,3.43353855 385.742277,3.89671715 385.617073,4.33528897 L385.402439,5.14082502 L387.267073,5.14082502 Z M387.669512,6.68476912 L385,6.68476912 L384.463415,8.76573726 L382.45122,8.76573726 L385.187805,0.0122454868 L387.562195,0.0122454868 L390.29878,8.76573726 L388.206098,8.76573726 L387.669512,6.68476912 Z M391.25122,0.0122454868 L394.242683,0.0122454868 C394.698783,0.0122454868 395.12134,0.0458091534 395.510366,0.112937493 C395.899392,0.180065833 396.239226,0.298657455 396.529878,0.468715917 C396.82053,0.638774378 397.048576,0.862532155 397.214024,1.13999596 C397.379472,1.41745977 397.462195,1.7665219 397.462195,2.18719283 C397.462195,2.38410263 397.43313,2.58100947 397.375,2.77791927 C397.31687,2.97482906 397.229675,3.15831044 397.113415,3.3283689 C396.997154,3.49842736 396.845123,3.65058265 396.657317,3.78483933 C396.469511,3.91909601 396.250408,4.01754944 396,4.08020255 L396,4.13390496 C396.626019,4.25026075 397.097763,4.47401852 397.415244,4.805185 C397.732725,5.13635148 397.891463,5.5972925 397.891463,6.18802189 C397.891463,6.63554416 397.804269,7.02040753 397.629878,7.34262357 C397.455487,7.6648396 397.214026,7.93111135 396.905488,8.14144682 C396.59695,8.35178228 396.236994,8.50841273 395.82561,8.61134285 C395.414226,8.71427297 394.971547,8.76573726 394.497561,8.76573726 L391.25122,8.76573726 L391.25122,0.0122454868 Z M394.14878,3.54317852 C394.63171,3.54317852 394.982722,3.44696267 395.201829,3.2545281 C395.420936,3.06209352 395.530488,2.80029692 395.530488,2.46913045 C395.530488,2.13796397 395.4187,1.90078073 395.195122,1.7575736 C394.971544,1.61436648 394.627238,1.54276399 394.162195,1.54276399 L393.223171,1.54276399 L393.223171,3.54317852 L394.14878,3.54317852 Z M394.336585,7.23521876 C395.418705,7.23521876 395.959756,6.83692992 395.959756,6.04034028 C395.959756,5.65547113 395.825611,5.37577391 395.557317,5.20124023 C395.289023,5.02670654 394.882117,4.93944101 394.336585,4.93944101 L393.223171,4.93944101 L393.223171,7.23521876 L394.336585,7.23521876 Z M402.331707,6.46995951 C402.591058,6.72057198 402.874998,6.92642913 403.183537,7.08753715 C403.492075,7.24864517 403.829673,7.32919796 404.196341,7.32919796 C404.616669,7.32919796 404.952031,7.24193243 405.202439,7.06739875 C405.452847,6.89286506 405.578049,6.64449393 405.578049,6.3222779 C405.578049,6.13431855 405.544513,5.96426264 405.477439,5.81210507 C405.410366,5.6599475 405.291871,5.53240556 405.121951,5.42947544 C404.952032,5.32654532 404.719514,5.24599252 404.42439,5.18781462 C404.129267,5.12963673 403.749189,5.10054822 403.284146,5.10054822 L403.284146,3.70428573 C403.668701,3.70428573 403.988413,3.67743479 404.243293,3.62373212 C404.498172,3.57002945 404.703861,3.49171423 404.860366,3.38878411 C405.016871,3.28585399 405.128658,3.16502479 405.195732,3.02629288 C405.262805,2.88756098 405.296341,2.73316811 405.296341,2.56310965 C405.296341,2.26774496 405.206911,2.03727445 405.028049,1.87169121 C404.849186,1.70610797 404.589839,1.62331759 404.25,1.62331759 C403.945933,1.62331759 403.670936,1.69044493 403.425,1.82470161 C403.179064,1.95895829 402.921953,2.14243966 402.653659,2.37515124 L401.660976,1.16684716 C402.054474,0.826730239 402.468087,0.560458485 402.901829,0.36802391 C403.335571,0.175589335 403.816258,0.0793734912 404.343902,0.0793734912 C404.782116,0.0793734912 405.182315,0.13083778 405.544512,0.233767901 C405.906709,0.336698023 406.215243,0.488853311 406.470122,0.690238331 C406.725001,0.891623351 406.923983,1.13551933 407.067073,1.42193358 C407.210163,1.70834783 407.281707,2.03950934 407.281707,2.41542804 C407.281707,2.86295031 407.158741,3.24110095 406.912805,3.54989132 C406.666869,3.85868168 406.315856,4.11152797 405.859756,4.30843777 L405.859756,4.36214017 C406.351628,4.5053473 406.756299,4.74924327 407.07378,5.09383542 C407.391262,5.43842756 407.55,5.8881807 407.55,6.44310831 C407.55,6.8369279 407.465041,7.18822761 407.295122,7.49701798 C407.125202,7.80580834 406.897156,8.06536736 406.610976,8.27570283 C406.324795,8.48603829 405.989433,8.64714389 405.604878,8.75902446 C405.220323,8.87090502 404.813417,8.92684447 404.384146,8.92684447 C403.686582,8.92684447 403.096344,8.81720316 402.613415,8.59791725 C402.130485,8.37863134 401.732522,8.08550865 401.419512,7.71854039 L402.331707,6.46995951 Z" id="TAB-3" fill="#79797B"></path>
            <polygon id="Triangle-2" fill="#4990E2" transform="translate(195.121951, 28.904139) scale(1, -1) translate(-195.121951, -28.904139) " points="195.121951 23.4118473 206.097561 34.3964298 184.146341 34.3964298"></polygon>
            <path d="M4.26829268,177.196003 L81.107239,177.196003" id="Line" stroke="#79797B" stroke-width="4" stroke-linecap="square"></path>
            <path d="M4.26829268,246.765026 L81.107239,246.765026" id="Line" stroke="#79797B" stroke-width="4" stroke-linecap="square"></path>
            <path d="M4.26829268,317.554557 L81.107239,317.554557" id="Line" stroke="#79797B" stroke-width="4" stroke-linecap="square"></path>
            <path d="M4.26829268,388.344089 L81.107239,388.344089" id="Line" stroke="#79797B" stroke-width="4" stroke-linecap="square"></path>
            <g id="Group-7" transform="translate(234.146341, 101.524434)" stroke-linecap="square">
                <path d="M0.609756098,3.66152751 L54.282149,3.66152751" id="Line" stroke="#79797B" stroke-width="6"></path>
                <path d="M0.609756098,75.6715686 L49.4511815,75.6715686" id="Line" stroke="#D7D9D9" stroke-width="4"></path>
                <path d="M0.609756098,145.240591 L49.4511815,145.240591" id="Line" stroke="#D7D9D9" stroke-width="4"></path>
                <path d="M0.609756098,216.030123 L49.4511815,216.030123" id="Line" stroke="#D7D9D9" stroke-width="4"></path>
                <path d="M0.609756098,286.819655 L49.4511815,286.819655" id="Line" stroke="#D7D9D9" stroke-width="4"></path>
            </g>
            <g id="Group-6" transform="translate(390.243902, 101.524434)" stroke-linecap="square">
                <path d="M0.609756098,3.66152751 L54.282149,3.66152751" id="Line" stroke="#79797B" stroke-width="6"></path>
                <path d="M0.609756098,216.030123 L49.4511815,216.030123" id="Line" stroke="#D7D9D9" stroke-width="4"></path>
                <path d="M0.609756098,286.819655 L49.4511815,286.819655" id="Line" stroke="#D7D9D9" stroke-width="4"></path>
                <path d="M0.609756098,75.6715686 L49.4511815,75.6715686" id="Line" stroke="#D7D9D9" stroke-width="4"></path>
                <path d="M0.609756098,145.240591 L49.4511815,145.240591" id="Line" stroke="#D7D9D9" stroke-width="4"></path>
            </g>
            <path d="M543.292683,105.185962 L596.965076,105.185962" id="Line" stroke="#79797B" stroke-width="6" stroke-linecap="square"></path>
            <path d="M548.170732,317.554557 L597.012157,317.554557" id="Line" stroke="#D7D9D9" stroke-width="4" stroke-linecap="square"></path>
            <path d="M548.170732,388.344089 L597.012157,388.344089" id="Line" stroke="#D7D9D9" stroke-width="4" stroke-linecap="square"></path>
            <path d="M548.170732,177.196003 L597.012157,177.196003" id="Line" stroke="#D7D9D9" stroke-width="4" stroke-linecap="square"></path>
            <path d="M548.170732,246.765026 L597.012157,246.765026" id="Line" stroke="#D7D9D9" stroke-width="4" stroke-linecap="square"></path>
            <path d="M4.22006339,138.749964 L599.67681,138.749964" id="Line" stroke="#979797" stroke-linecap="square"></path>
            <path d="M4.22006339,209.539496 L599.67681,209.539496" id="Line" stroke="#979797" stroke-linecap="square"></path>
            <path d="M4.22006339,280.329028 L599.67681,280.329028" id="Line" stroke="#979797" stroke-linecap="square"></path>
            <path d="M4.22006339,351.11856 L599.67681,351.11856" id="Line" stroke="#979797" stroke-linecap="square"></path>
            <path d="M0.561526802,420.687582 L596.018273,420.687582" id="Line" stroke="#979797" stroke-linecap="square"></path>
        </g>
    </g>
</svg>