<?xml version="1.0" encoding="UTF-8"?>
<svg width="600px" height="548px" viewBox="0 0 600 548" version="1.1" xmlns="http://www.w3.org/2000/svg" xmlns:xlink="http://www.w3.org/1999/xlink">
    <!-- Generator: Sketch 44.1 (41455) - http://www.bohemiancoding.com/sketch -->
    <title>pricing03</title>
    <desc>Created with Sketch.</desc>
    <defs></defs>
    <g id="Pricing" stroke="none" stroke-width="1" fill="none" fill-rule="evenodd">
        <g id="03" transform="translate(0.000000, 1.000000)">
            <path d="M176.825743,32.7306931 L176.027723,30.1564356 C175.71881,29.2125365 175.427064,28.272942 175.152475,27.3376238 C174.877886,26.4023056 174.603302,25.4455494 174.328713,24.4673267 L174.225743,24.4673267 C173.968316,25.4455494 173.702312,26.4023056 173.427723,27.3376238 C173.153134,28.272942 172.861388,29.2125365 172.552475,30.1564356 L171.754455,32.7306931 L176.825743,32.7306931 Z M177.366337,34.4554455 L171.213861,34.4554455 L169.592079,39.6039604 L167.40396,39.6039604 L173.118812,22.7168317 L175.538614,22.7168317 L181.253465,39.6039604 L178.962376,39.6039604 L177.366337,34.4554455 Z M181.845545,27.0930693 L184.007921,27.0930693 L185.861386,34.3267327 C185.998681,34.9273957 186.127392,35.5108883 186.247525,36.0772277 C186.367657,36.6435672 186.487788,37.2184789 186.607921,37.8019802 L186.710891,37.8019802 C186.848186,37.2184789 186.985478,36.6392768 187.122772,36.0643564 C187.260067,35.4894361 187.40594,34.9102339 187.560396,34.3267327 L189.491089,27.0930693 L191.550495,27.0930693 L193.506931,34.3267327 C193.661387,34.9273957 193.81155,35.5108883 193.957426,36.0772277 C194.103301,36.6435672 194.244884,37.2184789 194.382178,37.8019802 L194.485149,37.8019802 C194.622443,37.2184789 194.751155,36.6435672 194.871287,36.0772277 C194.99142,35.5108883 195.120131,34.9273957 195.257426,34.3267327 L197.085149,27.0930693 L199.093069,27.0930693 L195.746535,39.6039604 L193.172277,39.6039604 L191.370297,32.8851485 C191.215841,32.2844854 191.074258,31.6924122 190.945545,31.1089109 C190.816831,30.5254096 190.675248,29.9161748 190.520792,29.2811881 L190.417822,29.2811881 C190.280527,29.9161748 190.143235,30.5297 190.005941,31.1217822 C189.868646,31.7138643 189.714192,32.310228 189.542574,32.9108911 L187.792079,39.6039604 L185.320792,39.6039604 L181.845545,27.0930693 Z M200.792079,33.3742574 C200.792079,32.3445493 200.950823,31.4221163 201.268317,30.6069307 C201.58581,29.7917451 202.006268,29.1009929 202.529703,28.5346535 C203.053138,27.968314 203.649502,27.534985 204.318812,27.2346535 C204.988122,26.9343219 205.683165,26.7841584 206.40396,26.7841584 C207.193403,26.7841584 207.901317,26.9214508 208.527723,27.1960396 C209.154129,27.4706284 209.677556,27.865344 210.09802,28.380198 C210.518484,28.8950521 210.840263,29.5128677 211.063366,30.2336634 C211.28647,30.954459 211.39802,31.7610516 211.39802,32.6534653 C211.39802,33.116834 211.372277,33.5029688 211.320792,33.8118812 L202.877228,33.8118812 C202.963037,35.1676635 203.379204,36.2402601 204.125743,37.029703 C204.872281,37.8191459 205.846199,38.2138614 207.047525,38.2138614 C207.648188,38.2138614 208.201648,38.1237633 208.707921,37.9435644 C209.214194,37.7633654 209.699008,37.5273942 210.162376,37.2356436 L210.908911,38.6257426 C210.359733,38.9689786 209.750498,39.2693056 209.081188,39.5267327 C208.411878,39.7841597 207.648189,39.9128713 206.790099,39.9128713 C205.949171,39.9128713 205.16403,39.7627078 204.434653,39.4623762 C203.705277,39.1620447 203.0703,38.7330061 202.529703,38.1752475 C201.989106,37.617489 201.564358,36.9353176 201.255446,36.1287129 C200.946533,35.3221082 200.792079,34.4039655 200.792079,33.3742574 Z M209.544554,32.4217822 C209.544554,31.134647 209.27426,30.1521486 208.733663,29.4742574 C208.193067,28.7963662 207.433668,28.4574257 206.455446,28.4574257 C206.009239,28.4574257 205.58449,28.5475239 205.181188,28.7277228 C204.777886,28.9079217 204.413203,29.1653449 204.087129,29.5 C203.761054,29.8346551 203.49076,30.2465322 203.276238,30.7356436 C203.061715,31.2247549 202.920132,31.7867955 202.851485,32.4217822 L209.544554,32.4217822 Z M214.152475,36.7722772 C214.701653,37.2184841 215.263693,37.5788765 215.838614,37.8534653 C216.413534,38.1280542 217.078544,38.2653465 217.833663,38.2653465 C218.65743,38.2653465 219.275245,38.0765695 219.687129,37.6990099 C220.099012,37.3214503 220.30495,36.8580886 220.30495,36.3089109 C220.30495,35.9828367 220.219143,35.6996712 220.047525,35.4594059 C219.875907,35.2191407 219.657097,35.0089118 219.391089,34.8287129 C219.125081,34.648514 218.820464,34.4897697 218.477228,34.3524752 L217.447525,33.9405941 C217.001318,33.7861378 216.555118,33.610232 216.108911,33.4128713 C215.662704,33.2155106 215.263698,32.9752489 214.911881,32.6920792 C214.560064,32.4089095 214.272608,32.0785497 214.049505,31.7009901 C213.826402,31.3234305 213.714851,30.8686495 213.714851,30.3366337 C213.714851,29.8389414 213.81353,29.3712893 214.010891,28.9336634 C214.208252,28.4960374 214.491417,28.1184834 214.860396,27.8009901 C215.229375,27.4834968 215.679865,27.2346544 216.211881,27.0544554 C216.743897,26.8742565 217.344551,26.7841584 218.013861,26.7841584 C218.803304,26.7841584 219.52838,26.9214508 220.189109,27.1960396 C220.849838,27.4706284 221.42046,27.8052786 221.90099,28.2 L220.89703,29.5386139 C220.467985,29.2125396 220.021784,28.9465357 219.558416,28.7405941 C219.095047,28.5346524 218.588782,28.4316832 218.039604,28.4316832 C217.250161,28.4316832 216.670959,28.6118794 216.30198,28.9722772 C215.933001,29.3326751 215.748515,29.7531329 215.748515,30.2336634 C215.748515,30.525414 215.825742,30.7785468 215.980198,30.9930693 C216.134654,31.2075918 216.340593,31.3963688 216.59802,31.5594059 C216.855447,31.7224431 217.151483,31.8683162 217.486139,31.9970297 C217.820794,32.1257432 218.168315,32.2587452 218.528713,32.3960396 C218.97492,32.5676576 219.42541,32.7478538 219.880198,32.9366337 C220.334986,33.1254135 220.742572,33.3613847 221.10297,33.6445545 C221.463368,33.9277242 221.759405,34.2752455 221.991089,34.6871287 C222.222773,35.099012 222.338614,35.5966968 222.338614,36.180198 C222.338614,36.6950521 222.239935,37.1755753 222.042574,37.6217822 C221.845214,38.067989 221.553467,38.4627046 221.167327,38.8059406 C220.781186,39.1491766 220.300663,39.419471 219.725743,39.6168317 C219.150822,39.8141924 218.494393,39.9128713 217.756436,39.9128713 C216.864022,39.9128713 216.014525,39.7498366 215.207921,39.4237624 C214.401316,39.0976881 213.697693,38.6858111 213.09703,38.1881188 L214.152475,36.7722772 Z M224.346535,33.3742574 C224.346535,32.3273875 224.505279,31.3963737 224.822772,30.5811881 C225.140266,29.7660025 225.565014,29.0752504 226.09703,28.5089109 C226.629046,27.9425714 227.242571,27.5135328 227.937624,27.2217822 C228.632677,26.9300315 229.366333,26.7841584 230.138614,26.7841584 C230.910895,26.7841584 231.644551,26.9300315 232.339604,27.2217822 C233.034657,27.5135328 233.648182,27.9425714 234.180198,28.5089109 C234.712214,29.0752504 235.136962,29.7660025 235.454455,30.5811881 C235.771949,31.3963737 235.930693,32.3273875 235.930693,33.3742574 C235.930693,34.4039655 235.771949,35.3263986 235.454455,36.1415842 C235.136962,36.9567698 234.712214,37.6432315 234.180198,38.2009901 C233.648182,38.7587487 233.034657,39.1834969 232.339604,39.4752475 C231.644551,39.7669982 230.910895,39.9128713 230.138614,39.9128713 C229.366333,39.9128713 228.632677,39.7669982 227.937624,39.4752475 C227.242571,39.1834969 226.629046,38.7587487 226.09703,38.2009901 C225.565014,37.6432315 225.140266,36.9567698 224.822772,36.1415842 C224.505279,35.3263986 224.346535,34.4039655 224.346535,33.3742574 Z M226.534653,33.3742574 C226.534653,34.0950531 226.620461,34.7471918 226.792079,35.3306931 C226.963697,35.9141943 227.208249,36.4161695 227.525743,36.8366337 C227.843236,37.2570978 228.22508,37.5831672 228.671287,37.8148515 C229.117494,38.0465358 229.606598,38.1623762 230.138614,38.1623762 C230.67063,38.1623762 231.159734,38.0465358 231.605941,37.8148515 C232.052147,37.5831672 232.433992,37.2570978 232.751485,36.8366337 C233.068978,36.4161695 233.31353,35.9141943 233.485149,35.3306931 C233.656767,34.7471918 233.742574,34.0950531 233.742574,33.3742574 C233.742574,32.6534617 233.656767,31.9970327 233.485149,31.4049505 C233.31353,30.8128683 233.068978,30.3023124 232.751485,29.8732673 C232.433992,29.4442223 232.052147,29.1138625 231.605941,28.8821782 C231.159734,28.6504939 230.67063,28.5346535 230.138614,28.5346535 C229.606598,28.5346535 229.117494,28.6504939 228.671287,28.8821782 C228.22508,29.1138625 227.843236,29.4442223 227.525743,29.8732673 C227.208249,30.3023124 226.963697,30.8128683 226.792079,31.4049505 C226.620461,31.9970327 226.534653,32.6534617 226.534653,33.3742574 Z M239.225743,27.0930693 L240.976238,27.0930693 L241.156436,28.8950495 L241.233663,28.8950495 C241.782841,28.2943864 242.379205,27.7924113 243.022772,27.3891089 C243.66634,26.9858066 244.365673,26.7841584 245.120792,26.7841584 C246.081853,26.7841584 246.832671,26.9943873 247.373267,27.4148515 C247.913864,27.8353156 248.31287,28.4230985 248.570297,29.1782178 C249.222446,28.4574221 249.878875,27.87822 250.539604,27.4405941 C251.200333,27.0029681 251.916828,26.7841584 252.689109,26.7841584 C253.976244,26.7841584 254.933,27.1960355 255.559406,28.019802 C256.185812,28.8435685 256.49901,30.0620381 256.49901,31.6752475 L256.49901,39.6039604 L254.388119,39.6039604 L254.388119,31.9584158 C254.388119,30.7742515 254.199342,29.9204647 253.821782,29.3970297 C253.444223,28.8735947 252.86073,28.6118812 252.071287,28.6118812 C251.127388,28.6118812 250.080534,29.2554391 248.930693,30.5425743 L248.930693,39.6039604 L246.819802,39.6039604 L246.819802,31.9584158 C246.819802,30.7742515 246.631025,29.9204647 246.253465,29.3970297 C245.875906,28.8735947 245.283832,28.6118812 244.477228,28.6118812 C243.533329,28.6118812 242.486474,29.2554391 241.336634,30.5425743 L241.336634,39.6039604 L239.225743,39.6039604 L239.225743,27.0930693 Z M259.639604,33.3742574 C259.639604,32.3445493 259.798348,31.4221163 260.115842,30.6069307 C260.433335,29.7917451 260.853793,29.1009929 261.377228,28.5346535 C261.900663,27.968314 262.497026,27.534985 263.166337,27.2346535 C263.835647,26.9343219 264.530689,26.7841584 265.251485,26.7841584 C266.040928,26.7841584 266.748842,26.9214508 267.375248,27.1960396 C268.001653,27.4706284 268.52508,27.865344 268.945545,28.380198 C269.366009,28.8950521 269.687788,29.5128677 269.910891,30.2336634 C270.133995,30.954459 270.245545,31.7610516 270.245545,32.6534653 C270.245545,33.116834 270.219802,33.5029688 270.168317,33.8118812 L261.724752,33.8118812 C261.810561,35.1676635 262.226729,36.2402601 262.973267,37.029703 C263.719806,37.8191459 264.693723,38.2138614 265.89505,38.2138614 C266.495713,38.2138614 267.049172,38.1237633 267.555446,37.9435644 C268.061719,37.7633654 268.546532,37.5273942 269.009901,37.2356436 L269.756436,38.6257426 C269.207258,38.9689786 268.598023,39.2693056 267.928713,39.5267327 C267.259403,39.7841597 266.495714,39.9128713 265.637624,39.9128713 C264.796695,39.9128713 264.011555,39.7627078 263.282178,39.4623762 C262.552802,39.1620447 261.917824,38.7330061 261.377228,38.1752475 C260.836631,37.617489 260.411883,36.9353176 260.10297,36.1287129 C259.794058,35.3221082 259.639604,34.4039655 259.639604,33.3742574 Z M268.392079,32.4217822 C268.392079,31.134647 268.121785,30.1521486 267.581188,29.4742574 C267.040591,28.7963662 266.281193,28.4574257 265.30297,28.4574257 C264.856763,28.4574257 264.432015,28.5475239 264.028713,28.7277228 C263.625411,28.9079217 263.260728,29.1653449 262.934653,29.5 C262.608579,29.8346551 262.338285,30.2465322 262.123762,30.7356436 C261.90924,31.2247549 261.767657,31.7867955 261.69901,32.4217822 L268.392079,32.4217822 Z M280.645545,40.6594059 L280.645545,44.8811881 L278.534653,44.8811881 L278.534653,27.0930693 L280.285149,27.0930693 L280.465347,28.5346535 L280.542574,28.5346535 C281.108914,28.054123 281.73102,27.6422459 282.408911,27.2990099 C283.086802,26.9557739 283.794716,26.7841584 284.532673,26.7841584 C285.339278,26.7841584 286.051482,26.9343219 286.669307,27.2346535 C287.287132,27.534985 287.801978,27.9640236 288.213861,28.5217822 C288.625745,29.0795407 288.938943,29.748841 289.153465,30.529703 C289.367988,31.310565 289.475248,32.1900941 289.475248,33.1683168 C289.475248,34.2323486 289.329374,35.1805239 289.037624,36.0128713 C288.745873,36.8452187 288.351158,37.5531324 287.853465,38.1366337 C287.355773,38.7201349 286.780861,39.1620447 286.128713,39.4623762 C285.476564,39.7627078 284.790103,39.9128713 284.069307,39.9128713 C283.485806,39.9128713 282.906604,39.7841597 282.331683,39.5267327 C281.756763,39.2693056 281.177561,38.917494 280.594059,38.4712871 L280.645545,40.6594059 Z M280.645545,36.8237624 C281.211884,37.3042928 281.761053,37.6432333 282.293069,37.8405941 C282.825085,38.0379548 283.297028,38.1366337 283.708911,38.1366337 C284.223765,38.1366337 284.699998,38.0207932 285.137624,37.7891089 C285.57525,37.5574246 285.952804,37.2313552 286.270297,36.8108911 C286.58779,36.3904269 286.836633,35.8712902 287.016832,35.2534653 C287.197031,34.6356405 287.287129,33.9405979 287.287129,33.1683168 C287.287129,32.4818448 287.227063,31.8554484 287.106931,31.2891089 C286.986798,30.7227694 286.793731,30.2379558 286.527723,29.8346535 C286.261715,29.4313511 285.918484,29.1181529 285.49802,28.8950495 C285.077556,28.6719461 284.57558,28.560396 283.992079,28.560396 C283.460063,28.560396 282.923765,28.7062692 282.383168,28.9980198 C281.842572,29.2897704 281.263369,29.7102283 280.645545,30.2594059 L280.645545,36.8237624 Z M292.821782,27.0930693 L294.572277,27.0930693 L294.752475,29.3584158 L294.829703,29.3584158 C295.258748,28.568973 295.777885,27.9425766 296.387129,27.4792079 C296.996373,27.0158393 297.661383,26.7841584 298.382178,26.7841584 C298.87987,26.7841584 299.326071,26.8699661 299.720792,27.0415842 L299.308911,28.8950495 C299.102969,28.8264023 298.914192,28.7749177 298.742574,28.7405941 C298.570956,28.7062705 298.356437,28.6891089 298.09901,28.6891089 C297.566994,28.6891089 297.013534,28.9036282 296.438614,29.3326733 C295.863693,29.7617183 295.361718,30.5082455 294.932673,31.5722772 L294.932673,39.6039604 L292.821782,39.6039604 L292.821782,27.0930693 Z M302.835644,24.5188119 C302.42376,24.5188119 302.076239,24.3901003 301.793069,24.1326733 C301.5099,23.8752462 301.368317,23.5491769 301.368317,23.1544554 C301.368317,22.7425722 301.5099,22.4122125 301.793069,22.1633663 C302.076239,21.9145202 302.42376,21.790099 302.835644,21.790099 C303.247527,21.790099 303.595048,21.9145202 303.878218,22.1633663 C304.161388,22.4122125 304.30297,22.7425722 304.30297,23.1544554 C304.30297,23.5491769 304.161388,23.8752462 303.878218,24.1326733 C303.595048,24.3901003 303.247527,24.5188119 302.835644,24.5188119 Z M301.754455,27.0930693 L303.865347,27.0930693 L303.865347,39.6039604 L301.754455,39.6039604 L301.754455,27.0930693 Z M307.160396,33.3742574 C307.160396,32.3273875 307.323431,31.3963737 307.649505,30.5811881 C307.975579,29.7660025 308.413199,29.0752504 308.962376,28.5089109 C309.511554,27.9425714 310.150821,27.5135328 310.880198,27.2217822 C311.609575,26.9300315 312.377554,26.7841584 313.184158,26.7841584 C314.007925,26.7841584 314.715839,26.9343219 315.307921,27.2346535 C315.900003,27.534985 316.410559,27.8825063 316.839604,28.2772277 L315.784158,29.6415842 C315.406599,29.3155099 315.016174,29.049506 314.612871,28.8435644 C314.209569,28.6376227 313.759078,28.5346535 313.261386,28.5346535 C312.695047,28.5346535 312.17162,28.6504939 311.691089,28.8821782 C311.210559,29.1138625 310.798682,29.4442223 310.455446,29.8732673 C310.11221,30.3023124 309.841915,30.8128683 309.644554,31.4049505 C309.447194,31.9970327 309.348515,32.6534617 309.348515,33.3742574 C309.348515,34.0950531 309.442903,34.7471918 309.631683,35.3306931 C309.820463,35.9141943 310.082177,36.4161695 310.416832,36.8366337 C310.751487,37.2570978 311.159074,37.5831672 311.639604,37.8148515 C312.120134,38.0465358 312.643562,38.1623762 313.209901,38.1623762 C313.810564,38.1623762 314.355443,38.037955 314.844554,37.7891089 C315.333666,37.5402628 315.766995,37.2442261 316.144554,36.9009901 L317.09703,38.2910891 C316.53069,38.7887814 315.900003,39.1834969 315.20495,39.4752475 C314.509898,39.7669982 313.784822,39.9128713 313.029703,39.9128713 C312.205936,39.9128713 311.433667,39.7669982 310.712871,39.4752475 C309.992076,39.1834969 309.36997,38.7587487 308.846535,38.2009901 C308.3231,37.6432315 307.911223,36.9567698 307.610891,36.1415842 C307.31056,35.3263986 307.160396,34.4039655 307.160396,33.3742574 Z M320.906931,24.5188119 C320.495047,24.5188119 320.147526,24.3901003 319.864356,24.1326733 C319.581187,23.8752462 319.439604,23.5491769 319.439604,23.1544554 C319.439604,22.7425722 319.581187,22.4122125 319.864356,22.1633663 C320.147526,21.9145202 320.495047,21.790099 320.906931,21.790099 C321.318814,21.790099 321.666335,21.9145202 321.949505,22.1633663 C322.232675,22.4122125 322.374257,22.7425722 322.374257,23.1544554 C322.374257,23.5491769 322.232675,23.8752462 321.949505,24.1326733 C321.666335,24.3901003 321.318814,24.5188119 320.906931,24.5188119 Z M319.825743,27.0930693 L321.936634,27.0930693 L321.936634,39.6039604 L319.825743,39.6039604 L319.825743,27.0930693 Z M326.158416,27.0930693 L327.908911,27.0930693 L328.089109,28.8950495 L328.166337,28.8950495 C328.767,28.2943864 329.397686,27.7924113 330.058416,27.3891089 C330.719145,26.9858066 331.487124,26.7841584 332.362376,26.7841584 C333.683835,26.7841584 334.649172,27.1960355 335.258416,28.019802 C335.86766,28.8435685 336.172277,30.0620381 336.172277,31.6752475 L336.172277,39.6039604 L334.061386,39.6039604 L334.061386,31.9584158 C334.061386,30.7742515 333.872609,29.9204647 333.49505,29.3970297 C333.11749,28.8735947 332.516836,28.6118812 331.693069,28.6118812 C331.040921,28.6118812 330.466009,28.7749159 329.968317,29.1009901 C329.470625,29.4270643 328.904294,29.9075876 328.269307,30.5425743 L328.269307,39.6039604 L326.158416,39.6039604 L326.158416,27.0930693 Z M341.140594,41.7148515 C341.140594,42.3841618 341.462373,42.9161696 342.105941,43.3108911 C342.749508,43.7056125 343.637618,43.9029703 344.770297,43.9029703 C345.37096,43.9029703 345.915839,43.8300337 346.40495,43.6841584 C346.894062,43.5382831 347.310229,43.3495061 347.653465,43.1178218 C347.996701,42.8861375 348.262705,42.6158431 348.451485,42.3069307 C348.640265,41.9980183 348.734653,41.6805297 348.734653,41.3544554 C348.734653,40.7709542 348.520134,40.3676579 348.091089,40.1445545 C347.662044,39.921451 347.035648,39.809901 346.211881,39.809901 L344.049505,39.809901 C343.80924,39.809901 343.547526,39.7970298 343.264356,39.7712871 C342.981187,39.7455444 342.702312,39.6897694 342.427723,39.6039604 C341.981516,39.9300346 341.655447,40.2732655 341.449505,40.6336634 C341.243563,40.9940612 341.140594,41.3544536 341.140594,41.7148515 Z M339.287129,41.9980198 C339.287129,41.4660039 339.450163,40.9597384 339.776238,40.4792079 C340.102312,39.9986775 340.548512,39.5610581 341.114851,39.1663366 L341.114851,39.0633663 C340.805939,38.8745865 340.544225,38.612873 340.329703,38.2782178 C340.11518,37.9435627 340.007921,37.5273952 340.007921,37.029703 C340.007921,36.4976871 340.153794,36.0343254 340.445545,35.639604 C340.737295,35.2448825 341.046203,34.9359747 341.372277,34.7128713 L341.372277,34.609901 C340.960394,34.266665 340.58713,33.8075936 340.252475,33.2326733 C339.91782,32.6577529 339.750495,31.992743 339.750495,31.2376238 C339.750495,30.5511517 339.874916,29.9333361 340.123762,29.3841584 C340.372609,28.8349808 340.711549,28.3673287 341.140594,27.9811881 C341.569639,27.5950476 342.071614,27.2990109 342.646535,27.0930693 C343.221455,26.8871277 343.826399,26.7841584 344.461386,26.7841584 C344.804622,26.7841584 345.126401,26.8141911 345.426733,26.8742574 C345.727064,26.9343237 345.997359,27.0072603 346.237624,27.0930693 L350.588119,27.0930693 L350.588119,28.7148515 L348.013861,28.7148515 C348.305612,29.0066021 348.550164,29.3755753 348.747525,29.8217822 C348.944885,30.267989 349.043564,30.757093 349.043564,31.2891089 C349.043564,31.9584192 348.923434,32.5633636 348.683168,33.1039604 C348.442903,33.6445572 348.116834,34.0993381 347.70495,34.4683168 C347.293067,34.8372956 346.808254,35.1247514 346.250495,35.3306931 C345.692736,35.5366347 345.096373,35.639604 344.461386,35.639604 C344.152474,35.639604 343.834985,35.6009905 343.508911,35.5237624 C343.182837,35.4465343 342.873929,35.3392746 342.582178,35.2019802 C342.359075,35.39076 342.170298,35.6009889 342.015842,35.8326733 C341.861385,36.0643576 341.784158,36.3518135 341.784158,36.6950495 C341.784158,37.089771 341.938612,37.4158403 342.247525,37.6732673 C342.556437,37.9306944 343.13993,38.0594059 343.99802,38.0594059 L346.417822,38.0594059 C347.876575,38.0594059 348.970623,38.2953772 349.7,38.7673267 C350.429377,39.2392763 350.794059,39.9986746 350.794059,41.0455446 C350.794059,41.6290458 350.648186,42.1825056 350.356436,42.7059406 C350.064685,43.2293756 349.644227,43.6884469 349.09505,44.0831683 C348.545872,44.4778898 347.880862,44.791088 347.1,45.0227723 C346.319138,45.2544566 345.439609,45.370297 344.461386,45.370297 C343.689105,45.370297 342.985482,45.2973605 342.350495,45.1514851 C341.715508,45.0056098 341.170629,44.7868001 340.715842,44.4950495 C340.261054,44.2032989 339.909242,43.8514872 339.660396,43.439604 C339.41155,43.0277207 339.287129,42.5471975 339.287129,41.9980198 Z M344.461386,34.2237624 C344.821784,34.2237624 345.160724,34.1551162 345.478218,34.0178218 C345.795711,33.8805274 346.078877,33.6831696 346.327723,33.4257426 C346.576569,33.1683155 346.769636,32.8551174 346.906931,32.4861386 C347.044225,32.1171599 347.112871,31.7009924 347.112871,31.2376238 C347.112871,30.3108865 346.855448,29.594392 346.340594,29.0881188 C345.82574,28.5818457 345.199344,28.3287129 344.461386,28.3287129 C343.723429,28.3287129 343.097032,28.5818457 342.582178,29.0881188 C342.067324,29.594392 341.809901,30.3108865 341.809901,31.2376238 C341.809901,31.7009924 341.878547,32.1171599 342.015842,32.4861386 C342.153136,32.8551174 342.346203,33.1683155 342.59505,33.4257426 C342.843896,33.6831696 343.127061,33.8805274 343.444554,34.0178218 C343.762048,34.1551162 344.100988,34.2237624 344.461386,34.2237624 Z M358.774257,28.8178218 L356.920792,28.8178218 L356.920792,27.2217822 L358.877228,27.0930693 L359.134653,23.5920792 L360.910891,23.5920792 L360.910891,27.0930693 L364.283168,27.0930693 L364.283168,28.8178218 L360.910891,28.8178218 L360.910891,35.7683168 C360.910891,36.5405979 361.052474,37.1369616 361.335644,37.5574257 C361.618813,37.9778899 362.120788,38.1881188 362.841584,38.1881188 C363.064688,38.1881188 363.304949,38.1537957 363.562376,38.0851485 C363.819803,38.0165013 364.051484,37.9392744 364.257426,37.8534653 L364.669307,39.449505 C364.326071,39.5696376 363.952807,39.6768972 363.549505,39.7712871 C363.146203,39.865677 362.747197,39.9128713 362.352475,39.9128713 C361.683165,39.9128713 361.121124,39.809902 360.666337,39.6039604 C360.211549,39.3980188 359.842576,39.1148533 359.559406,38.7544554 C359.276236,38.3940576 359.074588,37.9564382 358.954455,37.4415842 C358.834323,36.9267301 358.774257,36.3603991 358.774257,35.7425743 L358.774257,28.8178218 Z M366.033663,36.360396 C366.033663,34.9874519 366.647189,33.9363073 367.874257,33.2069307 C369.101326,32.4775541 371.053452,31.9669982 373.730693,31.6752475 C373.730693,31.2805261 373.69208,30.8943913 373.614851,30.5168317 C373.537623,30.139272 373.400331,29.8046219 373.20297,29.5128713 C373.00561,29.2211207 372.743896,28.9851494 372.417822,28.8049505 C372.091748,28.6247516 371.67129,28.5346535 371.156436,28.5346535 C370.418478,28.5346535 369.736307,28.6719458 369.109901,28.9465347 C368.483495,29.2211235 367.921455,29.5300313 367.423762,29.8732673 L366.574257,28.4059406 C367.157759,28.028381 367.869963,27.6636981 368.710891,27.3118812 C369.551819,26.9600642 370.478543,26.7841584 371.491089,26.7841584 C373.018489,26.7841584 374.125409,27.2518105 374.811881,28.1871287 C375.498353,29.1224469 375.841584,30.3709493 375.841584,31.9326733 L375.841584,39.6039604 L374.091089,39.6039604 L373.910891,38.1108911 L373.859406,38.1108911 C373.258743,38.6085833 372.610895,39.0333316 371.915842,39.3851485 C371.220789,39.7369655 370.487133,39.9128713 369.714851,39.9128713 C368.65082,39.9128713 367.771291,39.6039635 367.076238,38.9861386 C366.381185,38.3683137 366.033663,37.493075 366.033663,36.360396 Z M368.118812,36.2059406 C368.118812,36.9267363 368.329041,37.4415826 368.749505,37.750495 C369.169969,38.0594075 369.689106,38.2138614 370.306931,38.2138614 C370.907594,38.2138614 371.478215,38.0722786 372.018812,37.7891089 C372.559409,37.5059392 373.13003,37.0897717 373.730693,36.5405941 L373.730693,33.0653465 C372.683823,33.202641 371.800004,33.3656756 371.079208,33.5544554 C370.358412,33.7432353 369.77921,33.9663353 369.341584,34.2237624 C368.903958,34.4811894 368.59076,34.777226 368.40198,35.1118812 C368.2132,35.4465363 368.118812,35.8112191 368.118812,36.2059406 Z M379.831683,21.2752475 L381.942574,21.2752475 L381.942574,26.2693069 L381.891089,28.5346535 C382.457429,28.0369612 383.075244,27.6207938 383.744554,27.2861386 C384.413865,26.9514835 385.100327,26.7841584 385.80396,26.7841584 C386.610565,26.7841584 387.322769,26.9343219 387.940594,27.2346535 C388.558419,27.534985 389.077556,27.9640236 389.49802,28.5217822 C389.918484,29.0795407 390.235973,29.748841 390.450495,30.529703 C390.665018,31.310565 390.772277,32.1815133 390.772277,33.1425743 C390.772277,34.206606 390.626404,35.1590717 390.334653,36 C390.042903,36.8409283 389.648187,37.5531324 389.150495,38.1366337 C388.652803,38.7201349 388.077891,39.1620447 387.425743,39.4623762 C386.773594,39.7627078 386.087132,39.9128713 385.366337,39.9128713 C384.782835,39.9128713 384.177891,39.7798693 383.551485,39.5138614 C382.925079,39.2478535 382.337296,38.8660091 381.788119,38.3683168 L381.710891,38.3683168 L381.530693,39.6039604 L379.831683,39.6039604 L379.831683,21.2752475 Z M381.942574,36.8237624 C382.491752,37.3042928 383.036631,37.6432333 383.577228,37.8405941 C384.117824,38.0379548 384.594057,38.1366337 385.005941,38.1366337 C385.520795,38.1366337 385.997028,38.0207932 386.434653,37.7891089 C386.872279,37.5574246 387.249833,37.2313552 387.567327,36.8108911 C387.88482,36.3904269 388.133662,35.8712902 388.313861,35.2534653 C388.49406,34.6356405 388.584158,33.9405979 388.584158,33.1683168 C388.584158,32.4818448 388.524093,31.8554484 388.40396,31.2891089 C388.283828,30.7227694 388.09076,30.2379558 387.824752,29.8346535 C387.558745,29.4313511 387.215514,29.1181529 386.79505,28.8950495 C386.374585,28.6719461 385.87261,28.560396 385.289109,28.560396 C384.276563,28.560396 383.161062,29.126727 381.942574,30.2594059 L381.942574,36.8237624 Z M394.118812,21.2752475 L396.229703,21.2752475 L396.229703,37.2356436 C396.229703,37.5788796 396.289768,37.8191412 396.409901,37.9564356 C396.530034,38.0937301 396.667326,38.1623762 396.821782,38.1623762 L397.014851,38.1623762 C397.074918,38.1623762 397.165016,38.1452147 397.285149,38.1108911 L397.568317,39.7069307 C397.431022,39.7755779 397.267988,39.8270625 397.079208,39.8613861 C396.890428,39.8957097 396.650166,39.9128713 396.358416,39.9128713 C395.551811,39.9128713 394.976899,39.6726097 394.633663,39.1920792 C394.290427,38.7115488 394.118812,38.0079254 394.118812,37.0811881 L394.118812,21.2752475 Z M399.756436,33.3742574 C399.756436,32.3445493 399.91518,31.4221163 400.232673,30.6069307 C400.550167,29.7917451 400.970624,29.1009929 401.494059,28.5346535 C402.017494,27.968314 402.613858,27.534985 403.283168,27.2346535 C403.952479,26.9343219 404.647521,26.7841584 405.368317,26.7841584 C406.15776,26.7841584 406.865673,26.9214508 407.492079,27.1960396 C408.118485,27.4706284 408.641912,27.865344 409.062376,28.380198 C409.48284,28.8950521 409.804619,29.5128677 410.027723,30.2336634 C410.250826,30.954459 410.362376,31.7610516 410.362376,32.6534653 C410.362376,33.116834 410.336634,33.5029688 410.285149,33.8118812 L401.841584,33.8118812 C401.927393,35.1676635 402.343561,36.2402601 403.090099,37.029703 C403.836637,37.8191459 404.810555,38.2138614 406.011881,38.2138614 C406.612544,38.2138614 407.166004,38.1237633 407.672277,37.9435644 C408.17855,37.7633654 408.663364,37.5273942 409.126733,37.2356436 L409.873267,38.6257426 C409.32409,38.9689786 408.714855,39.2693056 408.045545,39.5267327 C407.376234,39.7841597 406.612546,39.9128713 405.754455,39.9128713 C404.913527,39.9128713 404.128386,39.7627078 403.39901,39.4623762 C402.669633,39.1620447 402.034656,38.7330061 401.494059,38.1752475 C400.953463,37.617489 400.528714,36.9353176 400.219802,36.1287129 C399.91089,35.3221082 399.756436,34.4039655 399.756436,33.3742574 Z M408.508911,32.4217822 C408.508911,31.134647 408.238617,30.1521486 407.69802,29.4742574 C407.157423,28.7963662 406.398025,28.4574257 405.419802,28.4574257 C404.973595,28.4574257 404.548847,28.5475239 404.145545,28.7277228 C403.742242,28.9079217 403.377559,29.1653449 403.051485,29.5 C402.725411,29.8346551 402.455117,30.2465322 402.240594,30.7356436 C402.026072,31.2247549 401.884489,31.7867955 401.815842,32.4217822 L408.508911,32.4217822 Z M413.116832,36.7722772 C413.666009,37.2184841 414.22805,37.5788765 414.80297,37.8534653 C415.377891,38.1280542 416.042901,38.2653465 416.79802,38.2653465 C417.621786,38.2653465 418.239602,38.0765695 418.651485,37.6990099 C419.063368,37.3214503 419.269307,36.8580886 419.269307,36.3089109 C419.269307,35.9828367 419.183499,35.6996712 419.011881,35.4594059 C418.840263,35.2191407 418.621453,35.0089118 418.355446,34.8287129 C418.089438,34.648514 417.78482,34.4897697 417.441584,34.3524752 L416.411881,33.9405941 C415.965674,33.7861378 415.519474,33.610232 415.073267,33.4128713 C414.62706,33.2155106 414.228055,32.9752489 413.876238,32.6920792 C413.524421,32.4089095 413.236965,32.0785497 413.013861,31.7009901 C412.790758,31.3234305 412.679208,30.8686495 412.679208,30.3366337 C412.679208,29.8389414 412.777887,29.3712893 412.975248,28.9336634 C413.172608,28.4960374 413.455774,28.1184834 413.824752,27.8009901 C414.193731,27.4834968 414.644222,27.2346544 415.176238,27.0544554 C415.708253,26.8742565 416.308908,26.7841584 416.978218,26.7841584 C417.767661,26.7841584 418.492736,26.9214508 419.153465,27.1960396 C419.814195,27.4706284 420.384816,27.8052786 420.865347,28.2 L419.861386,29.5386139 C419.432341,29.2125396 418.986141,28.9465357 418.522772,28.7405941 C418.059404,28.5346524 417.553138,28.4316832 417.00396,28.4316832 C416.214518,28.4316832 415.635315,28.6118794 415.266337,28.9722772 C414.897358,29.3326751 414.712871,29.7531329 414.712871,30.2336634 C414.712871,30.525414 414.790098,30.7785468 414.944554,30.9930693 C415.099011,31.2075918 415.304949,31.3963688 415.562376,31.5594059 C415.819803,31.7224431 416.11584,31.8683162 416.450495,31.9970297 C416.78515,32.1257432 417.132671,32.2587452 417.493069,32.3960396 C417.939276,32.5676576 418.389767,32.7478538 418.844554,32.9366337 C419.299342,33.1254135 419.706929,33.3613847 420.067327,33.6445545 C420.427725,33.9277242 420.723761,34.2752455 420.955446,34.6871287 C421.18713,35.099012 421.30297,35.5966968 421.30297,36.180198 C421.30297,36.6950521 421.204291,37.1755753 421.006931,37.6217822 C420.80957,38.067989 420.517824,38.4627046 420.131683,38.8059406 C419.745543,39.1491766 419.265019,39.419471 418.690099,39.6168317 C418.115179,39.8141924 417.45875,39.9128713 416.720792,39.9128713 C415.828378,39.9128713 414.978882,39.7498366 414.172277,39.4237624 C413.365673,39.0976881 412.662049,38.6858111 412.061386,38.1881188 L413.116832,36.7722772 Z" id="Awesome-pricing-tabl" fill="#79797B"></path>
            <path d="M191.584158,1.98019802 L399.563877,1.98019802" id="Line" stroke="#4990E2" stroke-width="4" stroke-linecap="square"></path>
            <path d="M130.19802,65.8415842 L460.985935,65.8415842" id="Line" stroke="#979797" stroke-width="3" stroke-linecap="square"></path>
            <path d="M150.990099,78.7128713 L439.217767,78.7128713" id="Line" stroke="#979797" stroke-width="3" stroke-linecap="square"></path>
            <path d="M88.6079208,201.90099 C87.9900959,202.673271 87.2864726,203.261054 86.4970297,203.664356 C85.7075868,204.067659 84.8495096,204.269307 83.9227723,204.269307 C82.3095629,204.269307 80.9151874,203.775913 79.739604,202.789109 C78.5640205,201.802305 77.7788799,200.347864 77.3841584,198.425743 L75.7881188,198.425743 L75.7881188,196.649505 L77.1782178,196.546535 C77.161056,196.426402 77.1524752,196.314852 77.1524752,196.211881 L77.1524752,195.542574 C77.1524752,195.439603 77.161056,195.328053 77.1782178,195.207921 L75.7881188,195.207921 L75.7881188,193.457426 L77.3841584,193.328713 C77.5901,192.367652 77.8990078,191.513865 78.3108911,190.767327 C78.7227743,190.020788 79.2247495,189.390102 79.8168317,188.875248 C80.4089139,188.360393 81.0739237,187.969968 81.8118812,187.70396 C82.5498387,187.437952 83.3478505,187.30495 84.2059406,187.30495 C84.9782217,187.30495 85.7333296,187.476566 86.4712871,187.819802 C87.2092446,188.163038 87.8528025,188.660723 88.4019802,189.312871 L86.2910891,191.346535 C85.9650149,191.02046 85.6260744,190.754456 85.2742574,190.548515 C84.9224405,190.342573 84.5234346,190.239604 84.0772277,190.239604 C83.3392702,190.239604 82.725745,190.505608 82.2366337,191.037624 C81.7475223,191.56964 81.400001,192.324748 81.1940594,193.30297 L86.7029703,193.30297 L86.7029703,195.207921 L80.9623762,195.207921 L80.9623762,196.134653 C80.9623762,196.254786 80.970957,196.374917 80.9881188,196.49505 L85.6732673,196.49505 L85.6732673,198.425743 L81.2455446,198.425743 C81.4858098,199.369642 81.8504926,200.090427 82.339604,200.588119 C82.8287153,201.085811 83.4336598,201.334653 84.1544554,201.334653 C84.6521477,201.334653 85.0854767,201.214523 85.4544554,200.974257 C85.8234342,200.733992 86.1795362,200.390761 86.5227723,199.944554 L88.6079208,201.90099 Z M95.9960396,200.89703 L99.5485149,200.89703 L99.5485149,191.449505 L96.4851485,191.449505 L96.4851485,189.106931 C97.3775622,188.935313 98.1326702,188.729374 98.750495,188.489109 C99.3683199,188.248844 99.968974,187.957097 100.552475,187.613861 L103.332673,187.613861 L103.332673,200.89703 L106.39604,200.89703 L106.39604,203.960396 L95.9960396,203.960396 L95.9960396,200.89703 Z M114.273267,195.156436 C114.685151,195.156436 115.105608,195.036305 115.534653,194.79604 C115.963699,194.555774 116.358414,194.135317 116.718812,193.534653 C116.547194,192.247518 116.225415,191.359408 115.753465,190.870297 C115.281516,190.381186 114.753798,190.136634 114.170297,190.136634 C113.621119,190.136634 113.140596,190.346863 112.728713,190.767327 C112.31683,191.187791 112.110891,191.861382 112.110891,192.788119 C112.110891,193.663371 112.31683,194.276896 112.728713,194.628713 C113.140596,194.98053 113.655442,195.156436 114.273267,195.156436 Z M110.90099,200.047525 C111.175579,200.356437 111.544552,200.626732 112.007921,200.858416 C112.471289,201.0901 112.943232,201.205941 113.423762,201.205941 C113.887131,201.205941 114.31617,201.120133 114.710891,200.948515 C115.105613,200.776897 115.453134,200.489441 115.753465,200.086139 C116.053797,199.682836 116.294059,199.159409 116.474257,198.515842 C116.654456,197.872274 116.761716,197.069972 116.79604,196.108911 C116.590098,196.3835 116.349836,196.628052 116.075248,196.842574 C115.800659,197.057097 115.517493,197.237293 115.225743,197.383168 C114.933992,197.529044 114.642246,197.640594 114.350495,197.717822 C114.058744,197.79505 113.78416,197.833663 113.526733,197.833663 C112.823099,197.833663 112.17525,197.730694 111.583168,197.524752 C110.991086,197.318811 110.48053,197.009903 110.051485,196.59802 C109.62244,196.186137 109.2835,195.662709 109.034653,195.027723 C108.785807,194.392736 108.661386,193.646209 108.661386,192.788119 C108.661386,191.947191 108.807259,191.187792 109.09901,190.509901 C109.390761,189.83201 109.781186,189.252808 110.270297,188.772277 C110.759408,188.291747 111.33432,187.927064 111.99505,187.678218 C112.655779,187.429372 113.355112,187.30495 114.093069,187.30495 C114.882512,187.30495 115.650491,187.459404 116.39703,187.768317 C117.143568,188.077229 117.804288,188.557753 118.379208,189.209901 C118.954128,189.862049 119.41749,190.698675 119.769307,191.719802 C120.121124,192.740929 120.29703,193.97227 120.29703,195.413861 C120.29703,196.941262 120.112543,198.262701 119.743564,199.378218 C119.374586,200.493735 118.885482,201.411878 118.276238,202.132673 C117.666994,202.853469 116.96337,203.389767 116.165347,203.741584 C115.367323,204.093401 114.539278,204.269307 113.681188,204.269307 C112.599995,204.269307 111.6604,204.071949 110.862376,203.677228 C110.064352,203.282506 109.407923,202.827725 108.893069,202.312871 L110.90099,200.047525 Z" id="€-19" fill="#79797B"></path>
            <path d="M47.029703,222.277228 L150.019039,222.277228" id="Line" stroke="#D7D9D9" stroke-width="3" stroke-linecap="square"></path>
            <rect id="Rectangle-4" fill="#F8F8F8" x="0" y="125.742574" width="195.049505" height="42.5742574"></rect>
            <rect id="Rectangle" fill="#F8F8F8" x="0" y="240.594059" width="197.029703" height="28.6471225"></rect>
            <path d="M68.8118812,254.455446 L128.250816,254.455446" id="Line" stroke="#979797" stroke-width="2" stroke-linecap="square"></path>
            <path d="M68.8118812,283.168317 L128.250816,283.168317" id="Line" stroke="#979797" stroke-width="2" stroke-linecap="square"></path>
            <rect id="Rectangle" fill="#F8F8F8" x="0" y="298.019802" width="197.029703" height="28.6471225"></rect>
            <path d="M68.8118812,311.881188 L128.250816,311.881188" id="Line" stroke="#979797" stroke-width="2" stroke-linecap="square"></path>
            <path d="M68.8118812,340.594059 L128.250816,340.594059" id="Line" stroke="#979797" stroke-width="2" stroke-linecap="square"></path>
            <path d="M68.8118812,398.019802 L128.250816,398.019802" id="Line" stroke="#979797" stroke-width="2" stroke-linecap="square"></path>
            <rect id="Rectangle" fill="#F8F8F8" x="0" y="355.445545" width="197.029703" height="28.6471225"></rect>
            <rect id="Rectangle" fill="#F8F8F8" x="0" y="412.871287" width="197.029703" height="43.8273515"></rect>
            <path d="M27.2277228,426.237624 L168.825728,426.237624" id="Line" stroke-opacity="0.503057065" stroke="#979797" stroke-width="3" stroke-linecap="square"></path>
            <path d="M27.2277228,436.138614 L168.825728,436.138614" id="Line" stroke-opacity="0.503057065" stroke="#979797" stroke-width="3" stroke-linecap="square"></path>
            <path d="M68.8118812,369.306931 L128.250816,369.306931" id="Line" stroke="#979797" stroke-width="2" stroke-linecap="square"></path>
            <rect id="Rectangle-2" fill="#4990E2" x="62.3762376" y="485.148515" width="72.2772277" height="29.7029703"></rect>
            <path d="M77.5475248,500.8 L78.2247525,500.8 C78.5693087,500.8 78.8321773,500.727228 79.0133663,500.581683 C79.1945554,500.436138 79.2851485,500.220794 79.2851485,499.935644 C79.2851485,499.650494 79.1945554,499.451486 79.0133663,499.338614 C78.8321773,499.225742 78.5693087,499.169307 78.2247525,499.169307 L77.5475248,499.169307 L77.5475248,500.8 Z M79.3831683,503.936634 L78.2693069,501.842574 L77.5475248,501.842574 L77.5475248,503.936634 L76.2376238,503.936634 L76.2376238,498.126733 L78.3316832,498.126733 C78.6405956,498.126733 78.9301967,498.156435 79.200495,498.215842 C79.4707934,498.275248 79.7069297,498.374752 79.9089109,498.514356 C80.1108921,498.653961 80.2712865,498.839603 80.390099,499.071287 C80.5089115,499.302971 80.5683168,499.591087 80.5683168,499.935644 C80.5683168,500.363368 80.4747534,500.715345 80.2876238,500.991584 C80.1004941,501.267823 79.8495065,501.474257 79.5346535,501.610891 L80.8534653,503.936634 L79.3831683,503.936634 Z M81.7267327,498.126733 L85.3623762,498.126733 L85.3623762,499.231683 L83.0366337,499.231683 L83.0366337,500.39901 L85.0148515,500.39901 L85.0148515,501.49505 L83.0366337,501.49505 L83.0366337,502.831683 L85.4514851,502.831683 L85.4514851,503.936634 L81.7267327,503.936634 L81.7267327,498.126733 Z M89.0693069,501.530693 L88.9356436,500.99604 C88.8524748,500.704949 88.7722776,500.396041 88.6950495,500.069307 C88.6178214,499.742573 88.5405944,499.427724 88.4633663,499.124752 L88.4277228,499.124752 C88.3564353,499.433665 88.2836637,499.749998 88.2094059,500.073762 C88.1351481,500.397526 88.0564361,500.704949 87.9732673,500.99604 L87.8306931,501.530693 L89.0693069,501.530693 Z M89.3366337,502.555446 L87.5633663,502.555446 L87.2069307,503.936634 L85.870297,503.936634 L87.6881188,498.126733 L89.2653465,498.126733 L91.0831683,503.936634 L89.6930693,503.936634 L89.3366337,502.555446 Z M91.7158416,498.126733 L93.3554455,498.126733 C93.8009923,498.126733 94.2019784,498.183168 94.5584158,498.29604 C94.9148533,498.408911 95.2207908,498.582672 95.4762376,498.817327 C95.7316844,499.051981 95.9277221,499.350493 96.0643564,499.712871 C96.2009908,500.075249 96.2693069,500.505938 96.2693069,501.00495 C96.2693069,501.503963 96.2009908,501.937622 96.0643564,502.305941 C95.9277221,502.674259 95.7346547,502.978712 95.4851485,503.219307 C95.2356423,503.459902 94.9371305,503.639603 94.589604,503.758416 C94.2420775,503.877228 93.8544576,503.936634 93.4267327,503.936634 L91.7158416,503.936634 L91.7158416,498.126733 Z M93.2752475,502.876238 C93.5247537,502.876238 93.750494,502.843565 93.9524752,502.778218 C94.1544565,502.712871 94.326732,502.607426 94.4693069,502.461881 C94.6118819,502.316336 94.7232669,502.124754 94.8034653,501.887129 C94.8836638,501.649504 94.9237624,501.355447 94.9237624,501.00495 C94.9237624,500.660394 94.8836638,500.370793 94.8034653,500.136139 C94.7232669,499.901484 94.6118819,499.714357 94.4693069,499.574752 C94.326732,499.435148 94.1544565,499.335644 93.9524752,499.276238 C93.750494,499.216831 93.5247537,499.187129 93.2752475,499.187129 L93.0257426,499.187129 L93.0257426,502.876238 L93.2752475,502.876238 Z M99.2277228,498.126733 L100.617822,498.126733 L101.589109,500.737624 L101.936634,501.753465 L101.972277,501.753465 L102.319802,500.737624 L103.264356,498.126733 L104.645545,498.126733 L104.645545,503.936634 L103.424752,503.936634 L103.424752,501.806931 C103.424752,501.664356 103.430693,501.506932 103.442574,501.334653 C103.454456,501.162375 103.469307,500.988615 103.487129,500.813366 C103.504951,500.638118 103.522772,500.465842 103.540594,500.296535 C103.558416,500.127227 103.576238,499.971288 103.594059,499.828713 L103.558416,499.828713 L103.077228,501.174257 L102.186139,503.428713 L101.660396,503.428713 L100.769307,501.174257 L100.305941,499.828713 L100.270297,499.828713 C100.288119,499.971288 100.305941,500.127227 100.323762,500.296535 C100.341584,500.465842 100.357921,500.638118 100.372772,500.813366 C100.387624,500.988615 100.40099,501.162375 100.412871,501.334653 C100.424753,501.506932 100.430693,501.664356 100.430693,501.806931 L100.430693,503.936634 L99.2277228,503.936634 L99.2277228,498.126733 Z M108.379208,504.043564 C107.987127,504.043564 107.62921,503.973763 107.305446,503.834158 C106.981682,503.694554 106.703962,503.494061 106.472277,503.232673 C106.240593,502.971286 106.060892,502.653467 105.933168,502.279208 C105.805445,501.904949 105.741584,501.4802 105.741584,501.00495 C105.741584,500.529701 105.805445,500.106438 105.933168,499.735149 C106.060892,499.36386 106.240593,499.051981 106.472277,498.799505 C106.703962,498.547028 106.981682,498.353961 107.305446,498.220297 C107.62921,498.086633 107.987127,498.019802 108.379208,498.019802 C108.771289,498.019802 109.129206,498.086633 109.45297,498.220297 C109.776734,498.353961 110.054454,498.548514 110.286139,498.80396 C110.517823,499.059407 110.697524,499.37277 110.825248,499.744059 C110.952971,500.115348 111.016832,500.535641 111.016832,501.00495 C111.016832,501.4802 110.952971,501.904949 110.825248,502.279208 C110.697524,502.653467 110.517823,502.971286 110.286139,503.232673 C110.054454,503.494061 109.776734,503.694554 109.45297,503.834158 C109.129206,503.973763 108.771289,504.043564 108.379208,504.043564 Z M108.379208,502.911881 C108.77723,502.911881 109.092078,502.741091 109.323762,502.399505 C109.555447,502.057919 109.671287,501.593072 109.671287,501.00495 C109.671287,500.422769 109.555447,499.968318 109.323762,499.641584 C109.092078,499.31485 108.77723,499.151485 108.379208,499.151485 C107.981186,499.151485 107.666338,499.31485 107.434653,499.641584 C107.202969,499.968318 107.087129,500.422769 107.087129,501.00495 C107.087129,501.593072 107.202969,502.057919 107.434653,502.399505 C107.666338,502.741091 107.981186,502.911881 108.379208,502.911881 Z M113.422772,500.8 L114.1,500.8 C114.444556,500.8 114.707425,500.727228 114.888614,500.581683 C115.069803,500.436138 115.160396,500.220794 115.160396,499.935644 C115.160396,499.650494 115.069803,499.451486 114.888614,499.338614 C114.707425,499.225742 114.444556,499.169307 114.1,499.169307 L113.422772,499.169307 L113.422772,500.8 Z M115.258416,503.936634 L114.144554,501.842574 L113.422772,501.842574 L113.422772,503.936634 L112.112871,503.936634 L112.112871,498.126733 L114.206931,498.126733 C114.515843,498.126733 114.805444,498.156435 115.075743,498.215842 C115.346041,498.275248 115.582177,498.374752 115.784158,498.514356 C115.98614,498.653961 116.146534,498.839603 116.265347,499.071287 C116.384159,499.302971 116.443564,499.591087 116.443564,499.935644 C116.443564,500.363368 116.350001,500.715345 116.162871,500.991584 C115.975742,501.267823 115.724754,501.474257 115.409901,501.610891 L116.728713,503.936634 L115.258416,503.936634 Z M117.60198,498.126733 L121.237624,498.126733 L121.237624,499.231683 L118.911881,499.231683 L118.911881,500.39901 L120.890099,500.39901 L120.890099,501.49505 L118.911881,501.49505 L118.911881,502.831683 L121.326733,502.831683 L121.326733,503.936634 L117.60198,503.936634 L117.60198,498.126733 Z" id="READ-MORE" fill="#FFFFFF"></path>
            <path d="M67.8217822,147.524752 L129.239851,147.524752" id="Line" stroke="#979797" stroke-width="10" stroke-linecap="square"></path>
            <rect id="Rectangle-3" stroke="#D7D9D9" x="0.5" y="126.242574" width="196.029703" height="408.90099"></rect>
            <path d="M491.578218,201.90099 C490.960393,202.673271 490.25677,203.261054 489.467327,203.664356 C488.677884,204.067659 487.819807,204.269307 486.893069,204.269307 C485.27986,204.269307 483.885484,203.775913 482.709901,202.789109 C481.534318,201.802305 480.749177,200.347864 480.354455,198.425743 L478.758416,198.425743 L478.758416,196.649505 L480.148515,196.546535 C480.131353,196.426402 480.122772,196.314852 480.122772,196.211881 L480.122772,195.542574 C480.122772,195.439603 480.131353,195.328053 480.148515,195.207921 L478.758416,195.207921 L478.758416,193.457426 L480.354455,193.328713 C480.560397,192.367652 480.869305,191.513865 481.281188,190.767327 C481.693071,190.020788 482.195047,189.390102 482.787129,188.875248 C483.379211,188.360393 484.044221,187.969968 484.782178,187.70396 C485.520136,187.437952 486.318148,187.30495 487.176238,187.30495 C487.948519,187.30495 488.703627,187.476566 489.441584,187.819802 C490.179542,188.163038 490.8231,188.660723 491.372277,189.312871 L489.261386,191.346535 C488.935312,191.02046 488.596371,190.754456 488.244554,190.548515 C487.892738,190.342573 487.493732,190.239604 487.047525,190.239604 C486.309567,190.239604 485.696042,190.505608 485.206931,191.037624 C484.717819,191.56964 484.370298,192.324748 484.164356,193.30297 L489.673267,193.30297 L489.673267,195.207921 L483.932673,195.207921 L483.932673,196.134653 C483.932673,196.254786 483.941254,196.374917 483.958416,196.49505 L488.643564,196.49505 L488.643564,198.425743 L484.215842,198.425743 C484.456107,199.369642 484.82079,200.090427 485.309901,200.588119 C485.799012,201.085811 486.403957,201.334653 487.124752,201.334653 C487.622445,201.334653 488.055774,201.214523 488.424752,200.974257 C488.793731,200.733992 489.149833,200.390761 489.493069,199.944554 L491.578218,201.90099 Z M503.651485,195.156436 C504.063368,195.156436 504.483826,195.036305 504.912871,194.79604 C505.341916,194.555774 505.736632,194.135317 506.09703,193.534653 C505.925412,192.247518 505.603633,191.359408 505.131683,190.870297 C504.659734,190.381186 504.132016,190.136634 503.548515,190.136634 C502.999337,190.136634 502.518814,190.346863 502.106931,190.767327 C501.695047,191.187791 501.489109,191.861382 501.489109,192.788119 C501.489109,193.663371 501.695047,194.276896 502.106931,194.628713 C502.518814,194.98053 503.03366,195.156436 503.651485,195.156436 Z M500.279208,200.047525 C500.553797,200.356437 500.92277,200.626732 501.386139,200.858416 C501.849507,201.0901 502.32145,201.205941 502.80198,201.205941 C503.265349,201.205941 503.694387,201.120133 504.089109,200.948515 C504.48383,200.776897 504.831352,200.489441 505.131683,200.086139 C505.432015,199.682836 505.672276,199.159409 505.852475,198.515842 C506.032674,197.872274 506.139934,197.069972 506.174257,196.108911 C505.968316,196.3835 505.728054,196.628052 505.453465,196.842574 C505.178877,197.057097 504.895711,197.237293 504.60396,197.383168 C504.31221,197.529044 504.020464,197.640594 503.728713,197.717822 C503.436962,197.79505 503.162378,197.833663 502.90495,197.833663 C502.201317,197.833663 501.553468,197.730694 500.961386,197.524752 C500.369304,197.318811 499.858748,197.009903 499.429703,196.59802 C499.000658,196.186137 498.661717,195.662709 498.412871,195.027723 C498.164025,194.392736 498.039604,193.646209 498.039604,192.788119 C498.039604,191.947191 498.185477,191.187792 498.477228,190.509901 C498.768978,189.83201 499.159403,189.252808 499.648515,188.772277 C500.137626,188.291747 500.712538,187.927064 501.373267,187.678218 C502.033997,187.429372 502.73333,187.30495 503.471287,187.30495 C504.26073,187.30495 505.028709,187.459404 505.775248,187.768317 C506.521786,188.077229 507.182505,188.557753 507.757426,189.209901 C508.332346,189.862049 508.795708,190.698675 509.147525,191.719802 C509.499342,192.740929 509.675248,193.97227 509.675248,195.413861 C509.675248,196.941262 509.490761,198.262701 509.121782,199.378218 C508.752803,200.493735 508.263699,201.411878 507.654455,202.132673 C507.045211,202.853469 506.341588,203.389767 505.543564,203.741584 C504.745541,204.093401 503.917496,204.269307 503.059406,204.269307 C501.978212,204.269307 501.038618,204.071949 500.240594,203.677228 C499.44257,203.282506 498.786141,202.827725 498.271287,202.312871 L500.279208,200.047525 Z M517.243564,195.156436 C517.655448,195.156436 518.075905,195.036305 518.50495,194.79604 C518.933996,194.555774 519.328711,194.135317 519.689109,193.534653 C519.517491,192.247518 519.195712,191.359408 518.723762,190.870297 C518.251813,190.381186 517.724095,190.136634 517.140594,190.136634 C516.591416,190.136634 516.110893,190.346863 515.69901,190.767327 C515.287127,191.187791 515.081188,191.861382 515.081188,192.788119 C515.081188,193.663371 515.287127,194.276896 515.69901,194.628713 C516.110893,194.98053 516.625739,195.156436 517.243564,195.156436 Z M513.871287,200.047525 C514.145876,200.356437 514.514849,200.626732 514.978218,200.858416 C515.441586,201.0901 515.913529,201.205941 516.394059,201.205941 C516.857428,201.205941 517.286467,201.120133 517.681188,200.948515 C518.07591,200.776897 518.423431,200.489441 518.723762,200.086139 C519.024094,199.682836 519.264356,199.159409 519.444554,198.515842 C519.624753,197.872274 519.732013,197.069972 519.766337,196.108911 C519.560395,196.3835 519.320133,196.628052 519.045545,196.842574 C518.770956,197.057097 518.48779,197.237293 518.19604,197.383168 C517.904289,197.529044 517.612543,197.640594 517.320792,197.717822 C517.029041,197.79505 516.754457,197.833663 516.49703,197.833663 C515.793396,197.833663 515.145548,197.730694 514.553465,197.524752 C513.961383,197.318811 513.450827,197.009903 513.021782,196.59802 C512.592737,196.186137 512.253797,195.662709 512.00495,195.027723 C511.756104,194.392736 511.631683,193.646209 511.631683,192.788119 C511.631683,191.947191 511.777556,191.187792 512.069307,190.509901 C512.361058,189.83201 512.751483,189.252808 513.240594,188.772277 C513.729705,188.291747 514.304617,187.927064 514.965347,187.678218 C515.626076,187.429372 516.325409,187.30495 517.063366,187.30495 C517.852809,187.30495 518.620788,187.459404 519.367327,187.768317 C520.113865,188.077229 520.774585,188.557753 521.349505,189.209901 C521.924425,189.862049 522.387787,190.698675 522.739604,191.719802 C523.091421,192.740929 523.267327,193.97227 523.267327,195.413861 C523.267327,196.941262 523.08284,198.262701 522.713861,199.378218 C522.344883,200.493735 521.855779,201.411878 521.246535,202.132673 C520.637291,202.853469 519.933667,203.389767 519.135644,203.741584 C518.33762,204.093401 517.509575,204.269307 516.651485,204.269307 C515.570292,204.269307 514.630697,204.071949 513.832673,203.677228 C513.034649,203.282506 512.37822,202.827725 511.863366,202.312871 L513.871287,200.047525 Z" id="€-99" fill="#79797B"></path>
            <path d="M450,222.277228 L552.989336,222.277228" id="Line" stroke="#D7D9D9" stroke-width="3" stroke-linecap="square"></path>
            <rect id="Rectangle-4" fill="#F8F8F8" x="402.970297" y="125.742574" width="195.049505" height="42.5742574"></rect>
            <rect id="Rectangle" fill="#F8F8F8" x="402.970297" y="240.594059" width="197.029703" height="28.6471225"></rect>
            <path d="M471.782178,254.455446 L531.221113,254.455446" id="Line" stroke="#979797" stroke-width="2" stroke-linecap="square"></path>
            <path d="M471.782178,283.168317 L531.221113,283.168317" id="Line" stroke="#979797" stroke-width="2" stroke-linecap="square"></path>
            <rect id="Rectangle" fill="#F8F8F8" x="402.970297" y="298.019802" width="197.029703" height="28.6471225"></rect>
            <path d="M471.782178,311.881188 L531.221113,311.881188" id="Line" stroke="#979797" stroke-width="2" stroke-linecap="square"></path>
            <path d="M471.782178,340.594059 L531.221113,340.594059" id="Line" stroke="#979797" stroke-width="2" stroke-linecap="square"></path>
            <path d="M471.782178,398.019802 L531.221113,398.019802" id="Line" stroke="#979797" stroke-width="2" stroke-linecap="square"></path>
            <rect id="Rectangle" fill="#F8F8F8" x="402.970297" y="355.445545" width="197.029703" height="28.6471225"></rect>
            <rect id="Rectangle" fill="#F8F8F8" x="402.970297" y="412.871287" width="197.029703" height="43.8273515"></rect>
            <path d="M430.19802,426.237624 L571.796025,426.237624" id="Line" stroke-opacity="0.503057065" stroke="#979797" stroke-width="3" stroke-linecap="square"></path>
            <path d="M430.19802,436.138614 L571.796025,436.138614" id="Line" stroke-opacity="0.503057065" stroke="#979797" stroke-width="3" stroke-linecap="square"></path>
            <path d="M471.782178,369.306931 L531.221113,369.306931" id="Line" stroke="#979797" stroke-width="2" stroke-linecap="square"></path>
            <g id="Group-2" transform="translate(465.346535, 485.148515)">
                <rect id="Rectangle-2" fill="#4990E2" x="0" y="0" width="72.2772277" height="29.7029703"></rect>
                <path d="M15.1712871,15.6514851 L15.8485149,15.6514851 C16.193071,15.6514851 16.4559397,15.5787136 16.6371287,15.4331683 C16.8183177,15.287623 16.9089109,15.0722787 16.9089109,14.7871287 C16.9089109,14.5019788 16.8183177,14.3029709 16.6371287,14.190099 C16.4559397,14.0772272 16.193071,14.0207921 15.8485149,14.0207921 L15.1712871,14.0207921 L15.1712871,15.6514851 Z M17.0069307,18.7881188 L15.8930693,16.6940594 L15.1712871,16.6940594 L15.1712871,18.7881188 L13.8613861,18.7881188 L13.8613861,12.9782178 L15.9554455,12.9782178 C16.264358,12.9782178 16.553959,13.0079205 16.8242574,13.0673267 C17.0945558,13.126733 17.3306921,13.2262369 17.5326733,13.3658416 C17.7346545,13.5054462 17.8950489,13.691088 18.0138614,13.9227723 C18.1326739,14.1544566 18.1920792,14.4425725 18.1920792,14.7871287 C18.1920792,15.2148536 18.0985158,15.5668303 17.9113861,15.8430693 C17.7242565,16.1193083 17.4732689,16.3257419 17.1584158,16.4623762 L18.4772277,18.7881188 L17.0069307,18.7881188 Z M19.350495,12.9782178 L22.9861386,12.9782178 L22.9861386,14.0831683 L20.660396,14.0831683 L20.660396,15.250495 L22.6386139,15.250495 L22.6386139,16.3465347 L20.660396,16.3465347 L20.660396,17.6831683 L23.0752475,17.6831683 L23.0752475,18.7881188 L19.350495,18.7881188 L19.350495,12.9782178 Z M26.6930693,16.3821782 L26.5594059,15.8475248 C26.4762372,15.5564342 26.39604,15.2475264 26.3188119,14.9207921 C26.2415838,14.5940578 26.1643568,14.2792094 26.0871287,13.9762376 L26.0514851,13.9762376 C25.9801977,14.2851501 25.9074261,14.6014835 25.8331683,14.9252475 C25.7589105,15.2490115 25.6801984,15.5564342 25.5970297,15.8475248 L25.4544554,16.3821782 L26.6930693,16.3821782 Z M26.960396,17.4069307 L25.1871287,17.4069307 L24.8306931,18.7881188 L23.4940594,18.7881188 L25.3118812,12.9782178 L26.8891089,12.9782178 L28.7069307,18.7881188 L27.3168317,18.7881188 L26.960396,17.4069307 Z M29.339604,12.9782178 L30.9792079,12.9782178 C31.4247547,12.9782178 31.8257408,13.0346529 32.1821782,13.1475248 C32.5386156,13.2603966 32.8445532,13.4341572 33.1,13.6688119 C33.3554468,13.9034665 33.5514845,14.2019784 33.6881188,14.5643564 C33.8247532,14.9267345 33.8930693,15.3574232 33.8930693,15.8564356 C33.8930693,16.355448 33.8247532,16.7891071 33.6881188,17.1574257 C33.5514845,17.5257444 33.3584171,17.8301968 33.1089109,18.0707921 C32.8594047,18.3113873 32.5608928,18.4910885 32.2133663,18.609901 C31.8658398,18.7287135 31.47822,18.7881188 31.050495,18.7881188 L29.339604,18.7881188 L29.339604,12.9782178 Z M30.8990099,17.7277228 C31.1485161,17.7277228 31.3742564,17.6950498 31.5762376,17.629703 C31.7782188,17.5643561 31.9504943,17.4589116 32.0930693,17.3133663 C32.2356443,17.1678211 32.3470293,16.9762388 32.4272277,16.7386139 C32.5074261,16.5009889 32.5475248,16.2069324 32.5475248,15.8564356 C32.5475248,15.5118795 32.5074261,15.2222784 32.4272277,14.9876238 C32.3470293,14.7529691 32.2356443,14.5658423 32.0930693,14.4262376 C31.9504943,14.286633 31.7782188,14.187129 31.5762376,14.1277228 C31.3742564,14.0683165 31.1485161,14.0386139 30.8990099,14.0386139 L30.649505,14.0386139 L30.649505,17.7277228 L30.8990099,17.7277228 Z M36.8514851,12.9782178 L38.2415842,12.9782178 L39.2128713,15.5891089 L39.560396,16.6049505 L39.5960396,16.6049505 L39.9435644,15.5891089 L40.8881188,12.9782178 L42.2693069,12.9782178 L42.2693069,18.7881188 L41.0485149,18.7881188 L41.0485149,16.6584158 C41.0485149,16.5158409 41.0544554,16.3584167 41.0663366,16.1861386 C41.0782179,16.0138605 41.0930692,15.8400999 41.1108911,15.6648515 C41.128713,15.4896031 41.1465346,15.3173276 41.1643564,15.1480198 C41.1821783,14.978712 41.1999999,14.822773 41.2178218,14.680198 L41.1821782,14.680198 L40.7009901,16.0257426 L39.809901,18.280198 L39.2841584,18.280198 L38.3930693,16.0257426 L37.929703,14.680198 L37.8940594,14.680198 C37.9118813,14.822773 37.9297029,14.978712 37.9475248,15.1480198 C37.9653466,15.3173276 37.9816831,15.4896031 37.9965347,15.6648515 C38.0113862,15.8400999 38.0247524,16.0138605 38.0366337,16.1861386 C38.0485149,16.3584167 38.0544554,16.5158409 38.0544554,16.6584158 L38.0544554,18.7881188 L36.8514851,18.7881188 L36.8514851,12.9782178 Z M46.0029703,18.8950495 C45.6108891,18.8950495 45.2529719,18.8252482 44.9292079,18.6856436 C44.6054439,18.5460389 44.3277239,18.3455459 44.0960396,18.0841584 C43.8643553,17.822771 43.6846541,17.5049524 43.5569307,17.1306931 C43.4292073,16.7564338 43.3653465,16.3316855 43.3653465,15.8564356 C43.3653465,15.3811857 43.4292073,14.9579226 43.5569307,14.5866337 C43.6846541,14.2153447 43.8643553,13.9034666 44.0960396,13.6509901 C44.3277239,13.3985136 44.6054439,13.2054462 44.9292079,13.0717822 C45.2529719,12.9381181 45.6108891,12.8712871 46.0029703,12.8712871 C46.3950515,12.8712871 46.7529687,12.9381181 47.0767327,13.0717822 C47.4004967,13.2054462 47.6782167,13.3999987 47.909901,13.6554455 C48.1415853,13.9108924 48.3212865,14.2242556 48.4490099,14.5955446 C48.5767333,14.9668335 48.6405941,15.3871264 48.6405941,15.8564356 C48.6405941,16.3316855 48.5767333,16.7564338 48.4490099,17.1306931 C48.3212865,17.5049524 48.1415853,17.822771 47.909901,18.0841584 C47.6782167,18.3455459 47.4004967,18.5460389 47.0767327,18.6856436 C46.7529687,18.8252482 46.3950515,18.8950495 46.0029703,18.8950495 Z M46.0029703,17.7633663 C46.4009921,17.7633663 46.7158404,17.592576 46.9475248,17.2509901 C47.1792091,16.9094042 47.2950495,16.4445574 47.2950495,15.8564356 C47.2950495,15.2742545 47.1792091,14.8198036 46.9475248,14.4930693 C46.7158404,14.166335 46.4009921,14.0029703 46.0029703,14.0029703 C45.6049485,14.0029703 45.2901002,14.166335 45.0584158,14.4930693 C44.8267315,14.8198036 44.7108911,15.2742545 44.7108911,15.8564356 C44.7108911,16.4445574 44.8267315,16.9094042 45.0584158,17.2509901 C45.2901002,17.592576 45.6049485,17.7633663 46.0029703,17.7633663 Z M51.0465347,15.6514851 L51.7237624,15.6514851 C52.0683186,15.6514851 52.3311872,15.5787136 52.5123762,15.4331683 C52.6935653,15.287623 52.7841584,15.0722787 52.7841584,14.7871287 C52.7841584,14.5019788 52.6935653,14.3029709 52.5123762,14.190099 C52.3311872,14.0772272 52.0683186,14.0207921 51.7237624,14.0207921 L51.0465347,14.0207921 L51.0465347,15.6514851 Z M52.8821782,18.7881188 L51.7683168,16.6940594 L51.0465347,16.6940594 L51.0465347,18.7881188 L49.7366337,18.7881188 L49.7366337,12.9782178 L51.8306931,12.9782178 C52.1396055,12.9782178 52.4292066,13.0079205 52.699505,13.0673267 C52.9698033,13.126733 53.2059396,13.2262369 53.4079208,13.3658416 C53.609902,13.5054462 53.7702964,13.691088 53.8891089,13.9227723 C54.0079214,14.1544566 54.0673267,14.4425725 54.0673267,14.7871287 C54.0673267,15.2148536 53.9737633,15.5668303 53.7866337,15.8430693 C53.599504,16.1193083 53.3485164,16.3257419 53.0336634,16.4623762 L54.3524752,18.7881188 L52.8821782,18.7881188 Z M55.2257426,12.9782178 L58.8613861,12.9782178 L58.8613861,14.0831683 L56.5356436,14.0831683 L56.5356436,15.250495 L58.5138614,15.250495 L58.5138614,16.3465347 L56.5356436,16.3465347 L56.5356436,17.6831683 L58.950495,17.6831683 L58.950495,18.7881188 L55.2257426,18.7881188 L55.2257426,12.9782178 Z" id="READ-MORE" fill="#FFFFFF"></path>
            </g>
            <path d="M470.792079,147.524752 L532.210148,147.524752" id="Line" stroke="#979797" stroke-width="10" stroke-linecap="square"></path>
            <rect id="Rectangle-3" stroke="#D7D9D9" x="403.470297" y="126.242574" width="196.029703" height="408.90099"></rect>
            <path d="M288.806936,194.039968 C288.189111,194.812249 287.485487,195.400032 286.696045,195.803334 C285.906602,196.206636 285.048524,196.408285 284.121787,196.408285 C282.508578,196.408285 281.114202,195.91489 279.938619,194.928087 C278.763035,193.941283 277.977895,192.486842 277.583173,190.56472 L275.987134,190.56472 L275.987134,188.788483 L277.377233,188.685512 C277.360071,188.56538 277.35149,188.45383 277.35149,188.350859 L277.35149,187.681552 C277.35149,187.578581 277.360071,187.467031 277.377233,187.346898 L275.987134,187.346898 L275.987134,185.596403 L277.583173,185.467691 C277.789115,184.50663 278.098023,183.652843 278.509906,182.906304 C278.921789,182.159766 279.423764,181.529079 280.015847,181.014225 C280.607929,180.499371 281.272939,180.108946 282.010896,179.842938 C282.748854,179.57693 283.546865,179.443928 284.404955,179.443928 C285.177237,179.443928 285.932345,179.615544 286.670302,179.95878 C287.408259,180.302016 288.051817,180.7997 288.600995,181.451849 L286.490104,183.485512 C286.16403,183.159438 285.825089,182.893434 285.473272,182.687493 C285.121455,182.481551 284.722449,182.378582 284.276243,182.378582 C283.538285,182.378582 282.92476,182.644586 282.435649,183.176601 C281.946537,183.708617 281.599016,184.463725 281.393074,185.441948 L286.901985,185.441948 L286.901985,187.346898 L281.161391,187.346898 L281.161391,188.273631 C281.161391,188.393764 281.169972,188.513895 281.187134,188.634027 L285.872282,188.634027 L285.872282,190.56472 L281.444559,190.56472 C281.684825,191.508619 282.049507,192.229404 282.538619,192.727096 C283.02773,193.224789 283.632675,193.473631 284.35347,193.473631 C284.851163,193.473631 285.284492,193.3535 285.65347,193.113235 C286.022449,192.87297 286.378551,192.529739 286.721787,192.083532 L288.806936,194.039968 Z M301.961391,189.303334 L301.961391,186.651849 C301.961391,186.119833 301.978553,185.506308 302.012876,184.811255 C302.0472,184.116202 302.081523,183.511257 302.115847,182.996403 L302.012876,182.996403 C301.806935,183.44261 301.592415,183.897391 301.369312,184.36076 C301.146208,184.824129 300.914528,185.28749 300.674262,185.750859 L298.511886,189.303334 L301.961391,189.303334 Z M307.367332,192.186502 L305.488124,192.186502 L305.488124,196.099374 L301.961391,196.099374 L301.961391,192.186502 L294.882183,192.186502 L294.882183,189.586502 L300.85446,179.752839 L305.488124,179.752839 L305.488124,189.303334 L307.367332,189.303334 L307.367332,192.186502 Z M310.276243,191.723136 C310.773935,192.169343 311.310233,192.551187 311.885153,192.868681 C312.460074,193.186174 313.099341,193.344918 313.802975,193.344918 C314.643904,193.344918 315.313204,193.130399 315.810896,192.701354 C316.308588,192.272309 316.557431,191.637332 316.557431,190.796403 C316.557431,189.972637 316.321459,189.346241 315.84951,188.917195 C315.37756,188.48815 314.755454,188.273631 313.983173,188.273631 C313.742908,188.273631 313.528389,188.286502 313.339609,188.312245 C313.150829,188.337988 312.966343,188.385182 312.786144,188.453829 C312.605945,188.522476 312.417168,188.608284 312.219807,188.711255 C312.022446,188.814226 311.803637,188.942937 311.563371,189.097394 L309.864361,188.016205 L310.327728,179.752839 L319.595054,179.752839 L319.595054,182.944918 L313.597035,182.944918 L313.313866,186.008285 C313.622779,185.87099 313.918815,185.772311 314.201985,185.712245 C314.485155,185.652179 314.798353,185.622146 315.141589,185.622146 C315.845223,185.622146 316.510233,185.725115 317.136639,185.931057 C317.763044,186.136999 318.316504,186.445906 318.797035,186.85779 C319.277565,187.269673 319.655119,187.7931 319.929708,188.428087 C320.204297,189.063073 320.341589,189.818181 320.341589,190.693433 C320.341589,191.603009 320.178554,192.409601 319.85248,193.113235 C319.526406,193.816869 319.088787,194.413233 318.539609,194.902344 C317.990431,195.391455 317.351164,195.764719 316.621787,196.022146 C315.892411,196.279573 315.133012,196.408285 314.343569,196.408285 C313.004949,196.408285 311.872287,196.189475 310.94555,195.751849 C310.018812,195.314223 309.229381,194.769344 308.577233,194.117195 L310.276243,191.723136 Z" id="€-45" fill="#79797B"></path>
            <path d="M245.668939,216.515999 L354.351152,216.515999" id="Line" stroke="#D7D9D9" stroke-width="3" stroke-linecap="square"></path>
            <rect id="Rectangle-4" fill="#4990E2" x="196.039604" y="114.851485" width="205.831136" height="44.8366576"></rect>
            <rect id="Rectangle" fill="#F8F8F8" x="193.069307" y="235.806189" width="207.920792" height="30.1694334"></rect>
            <path d="M268.655157,250.404171 L331.379661,250.404171" id="Line" stroke="#979797" stroke-width="2" stroke-linecap="square"></path>
            <path d="M268.655157,280.642847 L331.379661,280.642847" id="Line" stroke="#979797" stroke-width="2" stroke-linecap="square"></path>
            <rect id="Rectangle" fill="#F8F8F8" x="196.039604" y="296.283541" width="207.920792" height="30.1694334"></rect>
            <path d="M268.655157,310.881523 L331.379661,310.881523" id="Line" stroke="#979797" stroke-width="2" stroke-linecap="square"></path>
            <path d="M268.655157,341.120199 L331.379661,341.120199" id="Line" stroke="#979797" stroke-width="2" stroke-linecap="square"></path>
            <path d="M268.655157,401.597551 L331.379661,401.597551" id="Line" stroke="#979797" stroke-width="2" stroke-linecap="square"></path>
            <rect id="Rectangle" fill="#F8F8F8" x="196.039604" y="356.760893" width="207.920792" height="30.1694334"></rect>
            <rect id="Rectangle" fill="#F8F8F8" x="196.039604" y="417.238246" width="207.920792" height="46.1563412"></rect>
            <path d="M224.772377,431.314871 L374.197407,431.314871" id="Line" stroke-opacity="0.503057065" stroke="#979797" stroke-width="3" stroke-linecap="square"></path>
            <path d="M224.772377,441.742 L374.197407,441.742" id="Line" stroke-opacity="0.503057065" stroke="#979797" stroke-width="3" stroke-linecap="square"></path>
            <path d="M268.655157,371.358875 L331.379661,371.358875" id="Line" stroke="#979797" stroke-width="2" stroke-linecap="square"></path>
            <g id="Group-3" transform="translate(261.386139, 493.069307)">
                <rect id="Rectangle-2" fill="#4990E2" x="0.477635703" y="0.865738748" width="76.2724514" height="31.281389"></rect>
                <path d="M16.4875367,17.3489453 L17.2021991,17.3489453 C17.5658011,17.3489453 17.8432002,17.2723067 18.0344047,17.1190271 C18.2256092,16.9657475 18.32121,16.7389597 18.32121,16.4386569 C18.32121,16.1383541 18.2256092,15.9287709 18.0344047,15.809901 C17.8432002,15.6910311 17.5658011,15.6315971 17.2021991,15.6315971 L16.4875367,15.6315971 L16.4875367,17.3489453 Z M18.424648,20.65226 L17.2492164,18.4469221 L16.4875367,18.4469221 L16.4875367,20.65226 L15.1052291,20.65226 L15.1052291,14.5336203 L17.3150405,14.5336203 C17.6410285,14.5336203 17.9466377,14.5649014 18.2318772,14.6274645 C18.5171167,14.6900276 18.7663057,14.7948192 18.9794517,14.9418424 C19.1925977,15.0888657 19.3618582,15.2843724 19.4872382,15.5283685 C19.6126182,15.7723645 19.6753072,16.075791 19.6753072,16.4386569 C19.6753072,16.8891112 19.576572,17.2597919 19.3790985,17.5507103 C19.181625,17.8416287 18.9167637,18.0590321 18.5845067,18.2029272 L19.9762177,20.65226 L18.424648,20.65226 Z M20.8977561,14.5336203 L24.7343649,14.5336203 L24.7343649,15.697288 L22.2800637,15.697288 L22.2800637,16.9266466 L24.3676302,16.9266466 L24.3676302,18.0809298 L22.2800637,18.0809298 L22.2800637,19.4885923 L24.8283994,19.4885923 L24.8283994,20.65226 L20.8977561,20.65226 L20.8977561,14.5336203 Z M28.6462013,18.1184675 L28.5051495,17.5554025 C28.4173835,17.2488434 28.3327533,16.9235202 28.2512563,16.5794232 C28.1697593,16.2353262 28.0882635,15.9037468 28.0067665,15.584675 L27.9691527,15.584675 C27.8939247,15.9100031 27.8171306,16.2431465 27.7387681,16.5841154 C27.6604056,16.9250842 27.5773426,17.2488434 27.4895766,17.5554025 L27.3391213,18.1184675 L28.6462013,18.1184675 Z M28.9283049,19.1976754 L27.0570178,19.1976754 L26.6808796,20.65226 L25.2703617,20.65226 L27.1886661,14.5336203 L28.8530773,14.5336203 L30.7713817,20.65226 L29.304443,20.65226 L28.9283049,19.1976754 Z M31.4390268,14.5336203 L33.1692622,14.5336203 C33.6394371,14.5336203 34.0625883,14.5930544 34.4387283,14.7119242 C34.8148683,14.8307941 35.1377169,15.0137884 35.4072839,15.2609126 C35.6768509,15.5080368 35.8837248,15.8224116 36.0279118,16.2040465 C36.1720988,16.5856813 36.2441913,17.039257 36.2441913,17.5647869 C36.2441913,18.0903169 36.1720988,18.5470206 36.0279118,18.9349118 C35.8837248,19.3228029 35.6799854,19.6434339 35.4166874,19.8968145 C35.1533894,20.150195 34.8383769,20.3394455 34.4716404,20.4645717 C34.1049039,20.5896979 33.6958578,20.65226 33.2444898,20.65226 L31.4390268,20.65226 L31.4390268,14.5336203 Z M33.0846311,19.5355144 C33.3479291,19.5355144 33.5861475,19.5011052 33.7992935,19.4322858 C34.0124395,19.3634664 34.1942378,19.2524186 34.3446938,19.099139 C34.4951498,18.9458595 34.6126918,18.7440965 34.6973232,18.4938442 C34.7819547,18.2435918 34.8242699,17.9339091 34.8242699,17.5647869 C34.8242699,17.201921 34.7819547,16.8969305 34.6973232,16.6498063 C34.6126918,16.4026821 34.4951498,16.2056113 34.3446938,16.058588 C34.1942378,15.9115648 34.0124395,15.8067732 33.7992935,15.7442101 C33.5861475,15.681647 33.3479291,15.6503659 33.0846311,15.6503659 L32.8213344,15.6503659 L32.8213344,19.5355144 L33.0846311,19.5355144 Z M39.3661376,14.5336203 L40.8330763,14.5336203 L41.8580526,17.2832544 L42.2247873,18.3530779 L42.2624011,18.3530779 L42.6291358,17.2832544 L43.6259018,14.5336203 L45.083437,14.5336203 L45.083437,20.65226 L43.7951639,20.65226 L43.7951639,18.4093844 C43.7951639,18.259233 43.8014328,18.0934433 43.8139708,17.9120103 C43.8265088,17.7305774 43.8421811,17.5475831 43.8609881,17.363022 C43.8797951,17.1784608 43.8986018,16.9970306 43.9174088,16.8187258 C43.9362158,16.640421 43.9550225,16.4761953 43.9738295,16.3260439 L43.9362157,16.3260439 L43.4284293,17.7430908 L42.488084,20.1173483 L41.9332803,20.1173483 L40.992935,17.7430908 L40.5039554,16.3260439 L40.4663416,16.3260439 C40.4851486,16.4761953 40.5039553,16.640421 40.5227623,16.8187258 C40.5415693,16.9970306 40.5588088,17.1784608 40.5744813,17.363022 C40.5901538,17.5475831 40.6042589,17.7305774 40.6167969,17.9120103 C40.6293349,18.0934433 40.6356038,18.259233 40.6356038,18.4093844 L40.6356038,20.65226 L39.3661376,20.65226 L39.3661376,14.5336203 Z M49.0234838,20.764873 C48.6097298,20.764873 48.2320282,20.6913625 47.8903677,20.5443392 C47.5487072,20.397316 47.2556358,20.1861687 47.0111448,19.9108911 C46.7666538,19.6356135 46.5770194,19.300906 46.4422359,18.9067585 C46.3074524,18.512611 46.2400617,18.0652916 46.2400617,17.5647869 C46.2400617,17.0642822 46.3074524,16.6185269 46.4422359,16.2275075 C46.5770194,15.8364882 46.7666538,15.5080369 47.0111448,15.2421438 C47.2556358,14.9762506 47.5487072,14.7729236 47.8903677,14.6321567 C48.2320282,14.4913897 48.6097298,14.4210073 49.0234838,14.4210073 C49.4372378,14.4210073 49.8149393,14.4913897 50.1565998,14.6321567 C50.4982603,14.7729236 50.7913317,14.9778147 51.0358227,15.246836 C51.2803137,15.5158573 51.4699481,15.8458726 51.6047316,16.236892 C51.7395151,16.6279113 51.8069058,17.0705385 51.8069058,17.5647869 C51.8069058,18.0652916 51.7395151,18.512611 51.6047316,18.9067585 C51.4699481,19.300906 51.2803137,19.6356135 51.0358227,19.9108911 C50.7913317,20.1861687 50.4982603,20.397316 50.1565998,20.5443392 C49.8149393,20.6913625 49.4372378,20.764873 49.0234838,20.764873 Z M49.0234838,19.5730521 C49.4435068,19.5730521 49.7757588,19.3931859 50.0202498,19.0334481 C50.2647408,18.6737104 50.3869844,18.1841615 50.3869844,17.5647869 C50.3869844,16.9516686 50.2647408,16.4730682 50.0202498,16.1289712 C49.7757588,15.7848742 49.4435068,15.6128282 49.0234838,15.6128282 C48.6034608,15.6128282 48.2712087,15.7848742 48.0267177,16.1289712 C47.7822267,16.4730682 47.6599831,16.9516686 47.6599831,17.5647869 C47.6599831,18.1841615 47.7822267,18.6737104 48.0267177,19.0334481 C48.2712087,19.3931859 48.6034608,19.5730521 49.0234838,19.5730521 Z M54.3458381,17.3489453 L55.0605005,17.3489453 C55.4241025,17.3489453 55.7015016,17.2723067 55.8927061,17.1190271 C56.0839106,16.9657475 56.1795114,16.7389597 56.1795114,16.4386569 C56.1795114,16.1383541 56.0839106,15.9287709 55.8927061,15.809901 C55.7015016,15.6910311 55.4241025,15.6315971 55.0605005,15.6315971 L54.3458381,15.6315971 L54.3458381,17.3489453 Z M56.2829494,20.65226 L55.1075178,18.4469221 L54.3458381,18.4469221 L54.3458381,20.65226 L52.9635305,20.65226 L52.9635305,14.5336203 L55.173342,14.5336203 C55.49933,14.5336203 55.8049391,14.5649014 56.0901786,14.6274645 C56.3754181,14.6900276 56.6246071,14.7948192 56.8377531,14.9418424 C57.0508991,15.0888657 57.2201596,15.2843724 57.3455396,15.5283685 C57.4709196,15.7723645 57.5336086,16.075791 57.5336086,16.4386569 C57.5336086,16.8891112 57.4348734,17.2597919 57.2373999,17.5507103 C57.0399264,17.8416287 56.7750651,18.0590321 56.4428081,18.2029272 L57.8345191,20.65226 L56.2829494,20.65226 Z M58.7560575,14.5336203 L62.5926663,14.5336203 L62.5926663,15.697288 L60.1383651,15.697288 L60.1383651,16.9266466 L62.2259316,16.9266466 L62.2259316,18.0809298 L60.1383651,18.0809298 L60.1383651,19.4885923 L62.6867008,19.4885923 L62.6867008,20.65226 L58.7560575,20.65226 L58.7560575,14.5336203 Z" id="READ-MORE" fill="#FFFFFF"></path>
            </g>
            <path d="M267.610329,137.79117 L332.423366,137.79117" id="Line" stroke="#FFFFFF" stroke-width="10" stroke-linecap="square"></path>
            <rect id="Rectangle-3" stroke="#D7D9D9" x="196.539604" y="115.351485" width="206.920792" height="430.683168"></rect>
        </g>
    </g>
</svg>