<?xml version="1.0" encoding="UTF-8"?>
<svg width="600px" height="338px" viewBox="0 0 600 338" version="1.1" xmlns="http://www.w3.org/2000/svg" xmlns:xlink="http://www.w3.org/1999/xlink">
    <!-- Generator: Sketch 44.1 (41455) - http://www.bohemiancoding.com/sketch -->
    <title>services08</title>
    <desc>Created with Sketch.</desc>
    <defs>
        <rect id="path-1" x="397.005988" y="40.4191617" width="167.964072" height="245.209581"></rect>
        <mask id="mask-2" maskContentUnits="userSpaceOnUse" maskUnits="objectBoundingBox" x="0" y="0" width="167.964072" height="245.209581" fill="white">
            <use xlink:href="#path-1"></use>
        </mask>
    </defs>
    <g id="Services" stroke="none" stroke-width="1" fill="none" fill-rule="evenodd">
        <g id="08">
            <rect id="Rectangle-11" fill="#F8F8F8" x="0" y="0" width="600" height="337.724551"></rect>
            <path d="M34.5808383,43.1137725 L95.6850947,43.1137725" id="Line" stroke="#979797" stroke-width="6" stroke-linecap="square"></path>
            <path d="M32.7511976,66.1185629 L35.2598802,66.1185629 L35.2598802,75.1293413 L39.6628743,75.1293413 L39.6628743,77.245509 L32.7511976,77.245509 L32.7511976,66.1185629 Z M40.8916168,73.0131737 C40.8916168,72.3305355 41.0053881,71.7133261 41.2329341,71.1615269 C41.4604802,70.6097278 41.7591299,70.1432654 42.1288922,69.7621257 C42.4986545,69.3809861 42.9224527,69.088025 43.4002994,68.8832335 C43.8781461,68.6784421 44.3730513,68.5760479 44.8850299,68.5760479 C45.488027,68.5760479 46.0142193,68.6784421 46.4636228,68.8832335 C46.9130262,69.088025 47.2884715,69.3724533 47.5899701,69.7365269 C47.8914686,70.1006006 48.1161669,70.5300873 48.2640719,71.025 C48.4119768,71.5199127 48.4859281,72.0574821 48.4859281,72.6377246 C48.4859281,72.8652706 48.474551,73.0729033 48.4517964,73.2606287 C48.4290418,73.4483542 48.4062875,73.5934127 48.3835329,73.6958084 L43.3149701,73.6958084 C43.4287431,74.3443146 43.6818843,74.8136213 44.0744012,75.1037425 C44.4669181,75.3938637 44.9476019,75.5389222 45.5164671,75.5389222 C46.1194641,75.5389222 46.7281406,75.3511995 47.342515,74.9757485 L48.1787425,76.4946108 C47.746405,76.7904206 47.2657212,77.0236518 46.7366766,77.1943114 C46.2076321,77.3649709 45.6871283,77.4502994 45.1751497,77.4502994 C44.5721527,77.4502994 44.0089847,77.3507495 43.4856287,77.1516467 C42.9622728,76.9525439 42.5071876,76.6624271 42.1203593,76.2812874 C41.733531,75.9001478 41.432037,75.4365297 41.2158683,74.8904192 C40.9996995,74.3443086 40.8916168,73.7185664 40.8916168,73.0131737 Z M46.3526946,72.1428144 C46.3526946,71.6535904 46.2446119,71.2553908 46.0284431,70.9482036 C45.8122744,70.6410164 45.4482062,70.4874251 44.9362275,70.4874251 C44.538022,70.4874251 44.1881752,70.6211064 43.8866766,70.8884731 C43.5851781,71.1558397 43.3889226,71.5739493 43.2979042,72.1428144 L46.3526946,72.1428144 Z M49.9194611,74.8904192 C49.9194611,74.0029896 50.2949064,73.3089845 51.0458084,72.8083832 C51.7967103,72.3077819 53.0083749,71.9721565 54.6808383,71.801497 C54.6580837,71.426046 54.5443124,71.1273963 54.339521,70.9055389 C54.1347295,70.6836815 53.8047927,70.5727545 53.3497006,70.5727545 C52.9856269,70.5727545 52.6215587,70.6410173 52.257485,70.7775449 C51.8934114,70.9140725 51.5065889,71.1017952 51.097006,71.3407186 L50.2095808,69.6853293 C50.7556914,69.3553876 51.3273922,69.088025 51.9247006,68.8832335 C52.522009,68.6784421 53.1562841,68.5760479 53.8275449,68.5760479 C54.9197659,68.5760479 55.7531408,68.8860747 56.3276946,69.5061377 C56.9022484,70.1262007 57.189521,71.0904126 57.189521,72.3988024 L57.189521,77.245509 L55.1416168,77.245509 L54.9538922,76.3751497 L54.9026946,76.3751497 C54.5386209,76.6937142 54.1546427,76.9525439 53.7507485,77.1516467 C53.3468543,77.3507495 52.9059904,77.4502994 52.4281437,77.4502994 C52.0413154,77.4502994 51.6943129,77.3848809 51.3871257,77.2540419 C51.0799386,77.1232029 50.8182646,76.9411688 50.6020958,76.7079341 C50.3859271,76.4746994 50.2181144,76.2044926 50.0986527,75.8973054 C49.979191,75.5901182 49.9194611,75.2544928 49.9194611,74.8904192 Z M52.3086826,74.7026946 C52.3086826,74.9757499 52.3968554,75.177694 52.5732036,75.3085329 C52.7495518,75.4393719 52.9856273,75.5047904 53.2814371,75.5047904 C53.577247,75.5047904 53.8275439,75.4422162 54.0323353,75.3170659 C54.2371268,75.1919155 54.4532923,75.01557 54.6808383,74.788024 L54.6808383,73.3032934 C53.7820314,73.4284437 53.1619778,73.6104778 52.8206587,73.8494012 C52.4793396,74.0883245 52.3086826,74.3727528 52.3086826,74.7026946 Z M59.3398204,68.7808383 L61.3877246,68.7808383 L61.5583832,70.2655689 L61.6266467,70.2655689 C61.9338339,69.6853264 62.3035907,69.258684 62.7359281,68.9856287 C63.1682656,68.7125735 63.6005966,68.5760479 64.0329341,68.5760479 C64.2718575,68.5760479 64.468113,68.5902693 64.6217066,68.6187126 C64.7753002,68.6471558 64.91467,68.6898201 65.0398204,68.7467066 L64.6302395,70.9140719 C64.4709573,70.8685626 64.3230546,70.8344313 64.1865269,70.8116766 C64.0499993,70.788922 63.8907195,70.7775449 63.7086826,70.7775449 C63.3901182,70.7775449 63.0573371,70.8913162 62.7103293,71.1188623 C62.3633216,71.3464083 62.076049,71.7502965 61.848503,72.3305389 L61.848503,77.245509 L59.3398204,77.245509 L59.3398204,68.7808383 Z M66.1320359,68.7808383 L68.1799401,68.7808383 L68.3505988,69.855988 L68.4188623,69.855988 C68.782936,69.514669 69.1811356,69.2160192 69.6134731,68.9600299 C70.0458105,68.7040406 70.5520929,68.5760479 71.1323353,68.5760479 C72.0538968,68.5760479 72.7223033,68.8775419 73.1375749,69.4805389 C73.5528464,70.0835359 73.760479,70.9197551 73.760479,71.9892216 L73.760479,77.245509 L71.2517964,77.245509 L71.2517964,72.3134731 C71.2517964,71.6990987 71.1693122,71.2781449 71.0043413,71.0505988 C70.8393704,70.8230528 70.5748521,70.7092814 70.2107784,70.7092814 C69.892214,70.7092814 69.6191628,70.7803885 69.3916168,70.9226048 C69.1640707,71.0648211 68.9137738,71.2667652 68.6407186,71.5284431 L68.6407186,77.245509 L66.1320359,77.245509 L66.1320359,68.7808383 Z M79.1362275,74.8904192 C79.1362275,74.0029896 79.5116729,73.3089845 80.2625749,72.8083832 C81.0134768,72.3077819 82.2251413,71.9721565 83.8976048,71.801497 C83.8748502,71.426046 83.7610789,71.1273963 83.5562874,70.9055389 C83.351496,70.6836815 83.0215592,70.5727545 82.5664671,70.5727545 C82.2023934,70.5727545 81.8383252,70.6410173 81.4742515,70.7775449 C81.1101778,70.9140725 80.7233553,71.1017952 80.3137725,71.3407186 L79.4263473,69.6853293 C79.9724578,69.3553876 80.5441587,69.088025 81.1414671,68.8832335 C81.7387754,68.6784421 82.3730505,68.5760479 83.0443114,68.5760479 C84.1365324,68.5760479 84.9699073,68.8860747 85.5444611,69.5061377 C86.1190148,70.1262007 86.4062874,71.0904126 86.4062874,72.3988024 L86.4062874,77.245509 L84.3583832,77.245509 L84.1706587,76.3751497 L84.1194611,76.3751497 C83.7553874,76.6937142 83.3714092,76.9525439 82.967515,77.1516467 C82.5636207,77.3507495 82.1227569,77.4502994 81.6449102,77.4502994 C81.2580819,77.4502994 80.9110794,77.3848809 80.6038922,77.2540419 C80.2967051,77.1232029 80.035031,76.9411688 79.8188623,76.7079341 C79.6026935,76.4746994 79.4348808,76.2044926 79.3154192,75.8973054 C79.1959575,75.5901182 79.1362275,75.2544928 79.1362275,74.8904192 Z M81.5254491,74.7026946 C81.5254491,74.9757499 81.6136219,75.177694 81.7899701,75.3085329 C81.9663182,75.4393719 82.2023937,75.5047904 82.4982036,75.5047904 C82.7940135,75.5047904 83.0443104,75.4422162 83.2491018,75.3170659 C83.4538932,75.1919155 83.6700587,75.01557 83.8976048,74.788024 L83.8976048,73.3032934 C82.9987979,73.4284437 82.3787442,73.6104778 82.0374251,73.8494012 C81.6961061,74.0883245 81.5254491,74.3727528 81.5254491,74.7026946 Z M88.5565868,65.2823353 L91.0652695,65.2823353 L91.0652695,68.2176647 L90.997006,69.5146707 C91.3269478,69.2188608 91.6824831,68.9884739 92.0636228,68.823503 C92.4447624,68.6585321 92.8344291,68.5760479 93.2326347,68.5760479 C93.7446133,68.5760479 94.2053872,68.6784421 94.6149701,68.8832335 C95.0245529,69.088025 95.3743997,69.3752976 95.664521,69.7450599 C95.9546422,70.1148222 96.1764962,70.5642189 96.3300898,71.0932635 C96.4836834,71.622308 96.560479,72.2110746 96.560479,72.8595808 C96.560479,73.5877282 96.4609291,74.2362247 96.2618263,74.8050898 C96.0627236,75.3739549 95.795361,75.8546388 95.4597305,76.2471557 C95.1241001,76.6396726 94.7429662,76.9383223 94.3163174,77.1431138 C93.8896685,77.3479052 93.4488047,77.4502994 92.9937126,77.4502994 C92.6182616,77.4502994 92.239972,77.3592823 91.8588323,77.1772455 C91.4776927,76.9952087 91.1221573,76.7221575 90.7922156,76.3580838 L90.7239521,76.3580838 L90.5191617,77.245509 L88.5565868,77.245509 L88.5565868,65.2823353 Z M91.0652695,74.8562874 C91.2928155,75.0610789 91.5203581,75.203293 91.7479042,75.2829341 C91.9754502,75.3625752 92.1973043,75.4023952 92.4134731,75.4023952 C92.8458105,75.4023952 93.2155673,75.2061397 93.5227545,74.8136228 C93.8299417,74.4211058 93.9835329,73.7868307 93.9835329,72.9107784 C93.9835329,71.3862199 93.4943163,70.6239521 92.5158683,70.6239521 C92.015267,70.6239521 91.5317389,70.8799376 91.0652695,71.3919162 L91.0652695,74.8562874 Z M97.8404192,73.0131737 C97.8404192,72.3077809 97.9541905,71.6791944 98.1817365,71.1273952 C98.4092826,70.575596 98.7136208,70.1119779 99.0947605,69.7365269 C99.4759001,69.361076 99.916764,69.0738034 100.417365,68.8747006 C100.917967,68.6755978 101.435626,68.5760479 101.970359,68.5760479 C102.505092,68.5760479 103.019908,68.6755978 103.51482,68.8747006 C104.009733,69.0738034 104.447753,69.361076 104.828892,69.7365269 C105.210032,70.1119779 105.51437,70.575596 105.741916,71.1273952 C105.969462,71.6791944 106.083234,72.3077809 106.083234,73.0131737 C106.083234,73.7185664 105.969462,74.3471529 105.741916,74.8989521 C105.51437,75.4507513 105.210032,75.9143694 104.828892,76.2898204 C104.447753,76.6652713 104.009733,76.9525439 103.51482,77.1516467 C103.019908,77.3507495 102.505092,77.4502994 101.970359,77.4502994 C101.435626,77.4502994 100.917967,77.3507495 100.417365,77.1516467 C99.916764,76.9525439 99.4759001,76.6652713 99.0947605,76.2898204 C98.7136208,75.9143694 98.4092826,75.4507513 98.1817365,74.8989521 C97.9541905,74.3471529 97.8404192,73.7185664 97.8404192,73.0131737 Z M100.417365,73.0131737 C100.417365,73.7526983 100.545358,74.3386206 100.801347,74.7709581 C101.057337,75.2032956 101.447003,75.4194611 101.970359,75.4194611 C102.482338,75.4194611 102.86916,75.2032956 103.130838,74.7709581 C103.392516,74.3386206 103.523353,73.7526983 103.523353,73.0131737 C103.523353,72.273649 103.392516,71.6877267 103.130838,71.2553892 C102.86916,70.8230517 102.482338,70.6068862 101.970359,70.6068862 C101.447003,70.6068862 101.057337,70.8230517 100.801347,71.2553892 C100.545358,71.6877267 100.417365,72.273649 100.417365,73.0131737 Z M107.721557,68.7808383 L110.23024,68.7808383 L110.23024,73.7128743 C110.23024,74.3272486 110.315568,74.7482025 110.486228,74.9757485 C110.656887,75.2032946 110.92425,75.3170659 111.288323,75.3170659 C111.606888,75.3170659 111.87425,75.2431145 112.090419,75.0952096 C112.306588,74.9473046 112.539819,74.7083849 112.79012,74.3784431 L112.79012,68.7808383 L115.298802,68.7808383 L115.298802,77.245509 L113.250898,77.245509 L113.063174,76.0679641 L113.011976,76.0679641 C112.647902,76.5003016 112.258236,76.8387712 111.842964,77.0833832 C111.427693,77.3279952 110.929943,77.4502994 110.349701,77.4502994 C109.428139,77.4502994 108.759733,77.1488054 108.344461,76.5458084 C107.92919,75.9428114 107.721557,75.1065922 107.721557,74.0371257 L107.721557,68.7808383 Z M117.841617,70.7434132 L116.681138,70.7434132 L116.681138,68.8832335 L117.978144,68.7808383 L118.268263,66.5281437 L120.350299,66.5281437 L120.350299,68.7808383 L122.381138,68.7808383 L122.381138,70.7434132 L120.350299,70.7434132 L120.350299,74.139521 C120.350299,74.6173677 120.449849,74.9615259 120.648952,75.172006 C120.848055,75.3824861 121.112573,75.4877246 121.442515,75.4877246 C121.579043,75.4877246 121.718412,75.4706589 121.860629,75.4365269 C122.002845,75.402395 122.130838,75.3625751 122.244611,75.3170659 L122.637126,77.1431138 C122.40958,77.2113776 122.142217,77.2796404 121.83503,77.3479042 C121.527843,77.416168 121.169463,77.4502994 120.75988,77.4502994 C120.236524,77.4502994 119.789972,77.3706595 119.42021,77.2113772 C119.050447,77.052095 118.748953,76.8302409 118.515719,76.5458084 C118.282484,76.2613758 118.111827,75.9172176 118.003743,75.5133234 C117.895658,75.1094291 117.841617,74.6628767 117.841617,74.1736527 L117.841617,70.7434132 Z M127.091317,73.0131737 C127.091317,72.3077809 127.205089,71.6791944 127.432635,71.1273952 C127.660181,70.575596 127.964519,70.1119779 128.345659,69.7365269 C128.726798,69.361076 129.167662,69.0738034 129.668263,68.8747006 C130.168865,68.6755978 130.686524,68.5760479 131.221257,68.5760479 C131.755991,68.5760479 132.270806,68.6755978 132.765719,68.8747006 C133.260631,69.0738034 133.698651,69.361076 134.07979,69.7365269 C134.46093,70.1119779 134.765268,70.575596 134.992814,71.1273952 C135.22036,71.6791944 135.334132,72.3077809 135.334132,73.0131737 C135.334132,73.7185664 135.22036,74.3471529 134.992814,74.8989521 C134.765268,75.4507513 134.46093,75.9143694 134.07979,76.2898204 C133.698651,76.6652713 133.260631,76.9525439 132.765719,77.1516467 C132.270806,77.3507495 131.755991,77.4502994 131.221257,77.4502994 C130.686524,77.4502994 130.168865,77.3507495 129.668263,77.1516467 C129.167662,76.9525439 128.726798,76.6652713 128.345659,76.2898204 C127.964519,75.9143694 127.660181,75.4507513 127.432635,74.8989521 C127.205089,74.3471529 127.091317,73.7185664 127.091317,73.0131737 Z M129.668263,73.0131737 C129.668263,73.7526983 129.796256,74.3386206 130.052246,74.7709581 C130.308235,75.2032956 130.697902,75.4194611 131.221257,75.4194611 C131.733236,75.4194611 132.120059,75.2032956 132.381737,74.7709581 C132.643414,74.3386206 132.774251,73.7526983 132.774251,73.0131737 C132.774251,72.273649 132.643414,71.6877267 132.381737,71.2553892 C132.120059,70.8230517 131.733236,70.6068862 131.221257,70.6068862 C130.697902,70.6068862 130.308235,70.8230517 130.052246,71.2553892 C129.796256,71.6877267 129.668263,72.273649 129.668263,73.0131737 Z M136.972455,68.7808383 L139.481138,68.7808383 L139.481138,73.7128743 C139.481138,74.3272486 139.566466,74.7482025 139.737126,74.9757485 C139.907785,75.2032946 140.175148,75.3170659 140.539222,75.3170659 C140.857786,75.3170659 141.125149,75.2431145 141.341317,75.0952096 C141.557486,74.9473046 141.790717,74.7083849 142.041018,74.3784431 L142.041018,68.7808383 L144.549701,68.7808383 L144.549701,77.245509 L142.501796,77.245509 L142.314072,76.0679641 L142.262874,76.0679641 C141.898801,76.5003016 141.509134,76.8387712 141.093862,77.0833832 C140.678591,77.3279952 140.180841,77.4502994 139.600599,77.4502994 C138.679037,77.4502994 138.010631,77.1488054 137.595359,76.5458084 C137.180088,75.9428114 136.972455,75.1065922 136.972455,74.0371257 L136.972455,68.7808383 Z M146.751198,68.7808383 L148.799102,68.7808383 L148.96976,70.2655689 L149.038024,70.2655689 C149.345211,69.6853264 149.714968,69.258684 150.147305,68.9856287 C150.579643,68.7125735 151.011974,68.5760479 151.444311,68.5760479 C151.683235,68.5760479 151.87949,68.5902693 152.033084,68.6187126 C152.186677,68.6471558 152.326047,68.6898201 152.451198,68.7467066 L152.041617,70.9140719 C151.882335,70.8685626 151.734432,70.8344313 151.597904,70.8116766 C151.461377,70.788922 151.302097,70.7775449 151.12006,70.7775449 C150.801495,70.7775449 150.468714,70.8913162 150.121707,71.1188623 C149.774699,71.3464083 149.487426,71.7502965 149.25988,72.3305389 L149.25988,77.245509 L146.751198,77.245509 L146.751198,68.7808383 Z M158.014671,74.1224551 C158.412876,74.4637742 158.85374,74.7425139 159.337275,74.9586826 C159.820811,75.1748514 160.295806,75.2829341 160.762275,75.2829341 C161.285631,75.2829341 161.675298,75.1862285 161.931287,74.9928144 C162.187277,74.7994002 162.315269,74.5377262 162.315269,74.2077844 C162.315269,74.0371249 162.278294,73.8892222 162.204341,73.7640719 C162.130389,73.6389215 162.022306,73.5279945 161.88009,73.4312874 C161.737874,73.3345804 161.567217,73.2435633 161.368114,73.1582335 L160.711078,72.8766467 L159.260479,72.2622754 C158.976046,72.1485024 158.700151,72.0005997 158.432784,71.8185629 C158.165418,71.636526 157.926498,71.4232048 157.716018,71.1785928 C157.505538,70.9339808 157.337725,70.6495525 157.212575,70.3252994 C157.087425,70.0010463 157.02485,69.6341338 157.02485,69.2245509 C157.02485,68.7694588 157.121556,68.3399721 157.31497,67.9360778 C157.508384,67.5321836 157.781435,67.1794925 158.134132,66.877994 C158.486828,66.5764955 158.904938,66.34042 159.388473,66.1697605 C159.872008,65.9991009 160.403889,65.9137725 160.984132,65.9137725 C161.632638,65.9137725 162.272602,66.0389209 162.904042,66.2892216 C163.535482,66.5395222 164.090117,66.9035904 164.567964,67.3814371 L163.288024,68.9685629 C162.92395,68.6841303 162.559882,68.4651205 162.195808,68.3115269 C161.831735,68.1579334 161.427847,68.0811377 160.984132,68.0811377 C160.551794,68.0811377 160.207636,68.1693105 159.951647,68.3456587 C159.695657,68.5220069 159.567665,68.7694595 159.567665,69.088024 C159.567665,69.2586835 159.610329,69.4037419 159.695659,69.5232036 C159.780988,69.6426653 159.900448,69.750748 160.054042,69.8474551 C160.207635,69.9441622 160.386825,70.0351792 160.591617,70.120509 C160.796408,70.2058387 161.018262,70.2997001 161.257186,70.4020958 L162.690719,70.9823353 C163.373357,71.2553906 163.910926,71.6308359 164.303443,72.1086826 C164.69596,72.5865293 164.892216,73.2179601 164.892216,74.002994 C164.892216,74.4694634 164.798354,74.9103273 164.610629,75.3255988 C164.422903,75.7408703 164.149852,76.1049386 163.791467,76.4178144 C163.433082,76.7306902 162.992218,76.9809871 162.468862,77.1687126 C161.945506,77.3564381 161.353896,77.4502994 160.694012,77.4502994 C159.965865,77.4502994 159.240572,77.3166181 158.518114,77.0492515 C157.795655,76.7818849 157.150003,76.380841 156.581138,75.8461078 L158.014671,74.1224551 Z M166.086826,73.0131737 C166.086826,72.3305355 166.200598,71.7133261 166.428144,71.1615269 C166.65569,70.6097278 166.954339,70.1432654 167.324102,69.7621257 C167.693864,69.3809861 168.117662,69.088025 168.595509,68.8832335 C169.073356,68.6784421 169.568261,68.5760479 170.08024,68.5760479 C170.683237,68.5760479 171.209429,68.6784421 171.658832,68.8832335 C172.108236,69.088025 172.483681,69.3724533 172.78518,69.7365269 C173.086678,70.1006006 173.311377,70.5300873 173.459281,71.025 C173.607186,71.5199127 173.681138,72.0574821 173.681138,72.6377246 C173.681138,72.8652706 173.669761,73.0729033 173.647006,73.2606287 C173.624251,73.4483542 173.601497,73.5934127 173.578743,73.6958084 L168.51018,73.6958084 C168.623953,74.3443146 168.877094,74.8136213 169.269611,75.1037425 C169.662128,75.3938637 170.142812,75.5389222 170.711677,75.5389222 C171.314674,75.5389222 171.92335,75.3511995 172.537725,74.9757485 L173.373952,76.4946108 C172.941615,76.7904206 172.460931,77.0236518 171.931886,77.1943114 C171.402842,77.3649709 170.882338,77.4502994 170.370359,77.4502994 C169.767362,77.4502994 169.204194,77.3507495 168.680838,77.1516467 C168.157482,76.9525439 167.702397,76.6624271 167.315569,76.2812874 C166.928741,75.9001478 166.627247,75.4365297 166.411078,74.8904192 C166.194909,74.3443086 166.086826,73.7185664 166.086826,73.0131737 Z M171.547904,72.1428144 C171.547904,71.6535904 171.439821,71.2553908 171.223653,70.9482036 C171.007484,70.6410164 170.643416,70.4874251 170.131437,70.4874251 C169.733232,70.4874251 169.383385,70.6211064 169.081886,70.8884731 C168.780388,71.1558397 168.584132,71.5739493 168.493114,72.1428144 L171.547904,72.1428144 Z M175.421856,68.7808383 L177.46976,68.7808383 L177.640419,70.2655689 L177.708683,70.2655689 C178.01587,69.6853264 178.385627,69.258684 178.817964,68.9856287 C179.250302,68.7125735 179.682633,68.5760479 180.11497,68.5760479 C180.353893,68.5760479 180.550149,68.5902693 180.703743,68.6187126 C180.857336,68.6471558 180.996706,68.6898201 181.121856,68.7467066 L180.712275,70.9140719 C180.552993,70.8685626 180.405091,70.8344313 180.268563,70.8116766 C180.132035,70.788922 179.972755,70.7775449 179.790719,70.7775449 C179.472154,70.7775449 179.139373,70.8913162 178.792365,71.1188623 C178.445358,71.3464083 178.158085,71.7502965 177.930539,72.3305389 L177.930539,77.245509 L175.421856,77.245509 L175.421856,68.7808383 Z M181.309581,68.7808383 L183.835329,68.7808383 L184.927545,72.7742515 C185.041318,73.1952117 185.152245,73.6246984 185.260329,74.0627246 C185.368414,74.5007507 185.479341,74.9416145 185.593114,75.3853293 L185.661377,75.3853293 C185.763773,74.9416145 185.869011,74.5007507 185.977096,74.0627246 C186.08518,73.6246984 186.196107,73.1952117 186.30988,72.7742515 L187.419162,68.7808383 L189.825449,68.7808383 L187.060778,77.245509 L184.159581,77.245509 L181.309581,68.7808383 Z M192.385329,67.5350299 C191.964369,67.5350299 191.617367,67.4127258 191.344311,67.1681138 C191.071256,66.9235018 190.934731,66.6077864 190.934731,66.2209581 C190.934731,65.8341298 191.071256,65.5212587 191.344311,65.2823353 C191.617367,65.043412 191.964369,64.9239521 192.385329,64.9239521 C192.817667,64.9239521 193.167514,65.043412 193.43488,65.2823353 C193.702247,65.5212587 193.835928,65.8341298 193.835928,66.2209581 C193.835928,66.6077864 193.702247,66.9235018 193.43488,67.1681138 C193.167514,67.4127258 192.817667,67.5350299 192.385329,67.5350299 Z M191.139521,68.7808383 L193.648204,68.7808383 L193.648204,77.245509 L191.139521,77.245509 L191.139521,68.7808383 Z M195.35479,73.0131737 C195.35479,72.3077809 195.47425,71.6791944 195.713174,71.1273952 C195.952097,70.575596 196.273501,70.1119779 196.677395,69.7365269 C197.081289,69.361076 197.550596,69.0738034 198.085329,68.8747006 C198.620063,68.6755978 199.177542,68.5760479 199.757784,68.5760479 C200.28114,68.5760479 200.753291,68.6642207 201.174251,68.8405689 C201.595212,69.016917 201.947903,69.2529925 202.232335,69.5488024 L201.088922,71.1017964 C200.690717,70.7718546 200.298206,70.6068862 199.911377,70.6068862 C199.297003,70.6068862 198.813475,70.8230517 198.460778,71.2553892 C198.108082,71.6877267 197.931737,72.273649 197.931737,73.0131737 C197.931737,73.7526983 198.110926,74.3386206 198.469311,74.7709581 C198.827696,75.2032956 199.279937,75.4194611 199.826048,75.4194611 C200.133235,75.4194611 200.411975,75.3568869 200.662275,75.2317365 C200.912576,75.1065862 201.140119,74.9643721 201.34491,74.8050898 L202.351796,76.3922156 C201.942214,76.7562892 201.487128,77.0236518 200.986527,77.1943114 C200.485926,77.3649709 200.002398,77.4502994 199.535928,77.4502994 C198.944308,77.4502994 198.395362,77.3507495 197.889072,77.1516467 C197.382782,76.9525439 196.941918,76.6652713 196.566467,76.2898204 C196.191016,75.9143694 195.895211,75.4507513 195.679042,74.8989521 C195.462873,74.3471529 195.35479,73.7185664 195.35479,73.0131737 Z M203.324551,73.0131737 C203.324551,72.3305355 203.438322,71.7133261 203.665868,71.1615269 C203.893414,70.6097278 204.192064,70.1432654 204.561826,69.7621257 C204.931589,69.3809861 205.355387,69.088025 205.833234,68.8832335 C206.31108,68.6784421 206.805985,68.5760479 207.317964,68.5760479 C207.920961,68.5760479 208.447153,68.6784421 208.896557,68.8832335 C209.34596,69.088025 209.721406,69.3724533 210.022904,69.7365269 C210.324403,70.1006006 210.549101,70.5300873 210.697006,71.025 C210.844911,71.5199127 210.918862,72.0574821 210.918862,72.6377246 C210.918862,72.8652706 210.907485,73.0729033 210.884731,73.2606287 C210.861976,73.4483542 210.839222,73.5934127 210.816467,73.6958084 L205.747904,73.6958084 C205.861677,74.3443146 206.114818,74.8136213 206.507335,75.1037425 C206.899852,75.3938637 207.380536,75.5389222 207.949401,75.5389222 C208.552398,75.5389222 209.161075,75.3511995 209.775449,74.9757485 L210.611677,76.4946108 C210.179339,76.7904206 209.698655,77.0236518 209.169611,77.1943114 C208.640566,77.3649709 208.120062,77.4502994 207.608084,77.4502994 C207.005087,77.4502994 206.441919,77.3507495 205.918563,77.1516467 C205.395207,76.9525439 204.940122,76.6624271 204.553293,76.2812874 C204.166465,75.9001478 203.864971,75.4365297 203.648802,74.8904192 C203.432634,74.3443086 203.324551,73.7185664 203.324551,73.0131737 Z M208.785629,72.1428144 C208.785629,71.6535904 208.677546,71.2553908 208.461377,70.9482036 C208.245209,70.6410164 207.88114,70.4874251 207.369162,70.4874251 C206.970956,70.4874251 206.621109,70.6211064 206.319611,70.8884731 C206.018112,71.1558397 205.821857,71.5739493 205.730838,72.1428144 L208.785629,72.1428144 Z M213.03503,74.7026946 C213.421858,74.9985045 213.791615,75.2203585 214.144311,75.3682635 C214.497008,75.5161684 214.855387,75.5901198 215.219461,75.5901198 C215.594912,75.5901198 215.867963,75.5275455 216.038623,75.4023952 C216.209282,75.2772449 216.294611,75.1008993 216.294611,74.8733533 C216.294611,74.7368257 216.246258,74.6145215 216.149551,74.5064371 C216.052844,74.3983528 215.922007,74.2988029 215.757036,74.2077844 C215.592065,74.116766 215.407187,74.0342818 215.202395,73.9603293 C214.997604,73.8863769 214.787127,73.8038927 214.570958,73.7128743 C214.30928,73.6104785 214.047606,73.4910186 213.785928,73.354491 C213.52425,73.2179634 213.28533,73.0501507 213.069162,72.8510479 C212.852993,72.6519451 212.676647,72.4187139 212.54012,72.1513473 C212.403592,71.8839807 212.335329,71.5739539 212.335329,71.2212575 C212.335329,70.8344292 212.412125,70.4760496 212.565719,70.1461078 C212.719312,69.816166 212.938322,69.5374263 213.222754,69.3098802 C213.507187,69.0823342 213.848501,68.9031444 214.246707,68.7723054 C214.644912,68.6414664 215.08862,68.5760479 215.577844,68.5760479 C216.226351,68.5760479 216.795207,68.6869749 217.284431,68.9088323 C217.773655,69.1306897 218.200298,69.3781423 218.564371,69.6511976 L217.438024,71.152994 C217.130837,70.925448 216.829343,70.7491024 216.533533,70.6239521 C216.237723,70.4988018 215.941918,70.4362275 215.646108,70.4362275 C215.008979,70.4362275 214.690419,70.6580816 214.690419,71.1017964 C214.690419,71.238324 214.735928,71.3549396 214.826946,71.4516467 C214.917965,71.5483538 215.040269,71.6365265 215.193862,71.7161677 C215.347456,71.7958088 215.523801,71.8726044 215.722904,71.9465569 C215.922007,72.0205094 216.12964,72.097305 216.345808,72.1769461 C216.618864,72.2793418 216.889071,72.3959574 217.156437,72.5267964 C217.423804,72.6576354 217.668412,72.8197595 217.890269,73.0131737 C218.112127,73.2065878 218.291317,73.4426633 218.427844,73.7214072 C218.564372,74.0001511 218.632635,74.3329322 218.632635,74.7197605 C218.632635,75.1065888 218.558683,75.4649684 218.410778,75.7949102 C218.262874,76.1248519 218.041019,76.4121245 217.74521,76.6567365 C217.4494,76.9013485 217.085332,77.0947598 216.652994,77.236976 C216.220657,77.3791923 215.720063,77.4502994 215.151198,77.4502994 C214.59371,77.4502994 214.022009,77.3422166 213.436078,77.1260479 C212.850147,76.9098792 212.34102,76.6254509 211.908683,76.2727545 L213.03503,74.7026946 Z" id="Learn-about-our-Serv" fill="#4990E2"></path>
            <path d="M34.7682734,103.742515 L341.748024,103.742515" id="Line" stroke="#B3B4B7" stroke-width="5" stroke-linecap="square"></path>
            <path d="M34.7682734,117.215569 L201.560362,117.215569" id="Line" stroke="#B3B4B7" stroke-width="5" stroke-linecap="square"></path>
            <g id="Group-12" transform="translate(31.437126, 161.676647)">
                <path d="M39.9700599,5.83832335 L105.545074,5.83832335" id="Line" stroke="#9B9B9B" stroke-width="7" stroke-linecap="square"></path>
                <path d="M39.0718563,24.7005988 L135.183838,24.7005988" id="Line" stroke="#D7D9D9" stroke-width="5" stroke-linecap="square"></path>
                <path d="M39.0718563,32.7844311 L135.183838,32.7844311" id="Line" stroke="#D7D9D9" stroke-width="5" stroke-linecap="square"></path>
                <path d="M39.0718563,40.8682635 L102.869608,40.8682635" id="Line" stroke="#D7D9D9" stroke-width="5" stroke-linecap="square"></path>
                <circle id="Oval-2" fill="#4990E2" cx="13.4730539" cy="13.4730539" r="13.4730539"></circle>
            </g>
            <g id="Group-12" transform="translate(31.437126, 229.041916)">
                <path d="M39.9700599,5.83832335 L105.545074,5.83832335" id="Line" stroke="#9B9B9B" stroke-width="7" stroke-linecap="square"></path>
                <path d="M39.0718563,24.7005988 L135.183838,24.7005988" id="Line" stroke="#D7D9D9" stroke-width="5" stroke-linecap="square"></path>
                <path d="M39.0718563,32.7844311 L135.183838,32.7844311" id="Line" stroke="#D7D9D9" stroke-width="5" stroke-linecap="square"></path>
                <path d="M39.0718563,40.8682635 L102.869608,40.8682635" id="Line" stroke="#D7D9D9" stroke-width="5" stroke-linecap="square"></path>
                <circle id="Oval-2" fill="#4990E2" cx="13.4730539" cy="13.4730539" r="13.4730539"></circle>
            </g>
            <g id="Group-12" transform="translate(198.502994, 161.676647)">
                <path d="M39.9700599,5.83832335 L105.545074,5.83832335" id="Line" stroke="#9B9B9B" stroke-width="7" stroke-linecap="square"></path>
                <path d="M39.0718563,24.7005988 L135.183838,24.7005988" id="Line" stroke="#D7D9D9" stroke-width="5" stroke-linecap="square"></path>
                <path d="M39.0718563,32.7844311 L135.183838,32.7844311" id="Line" stroke="#D7D9D9" stroke-width="5" stroke-linecap="square"></path>
                <path d="M39.0718563,40.8682635 L102.869608,40.8682635" id="Line" stroke="#D7D9D9" stroke-width="5" stroke-linecap="square"></path>
                <circle id="Oval-2" fill="#4990E2" cx="13.4730539" cy="13.4730539" r="13.4730539"></circle>
            </g>
            <g id="Group-12" transform="translate(198.502994, 229.041916)">
                <path d="M39.9700599,5.83832335 L105.545074,5.83832335" id="Line" stroke="#9B9B9B" stroke-width="7" stroke-linecap="square"></path>
                <path d="M39.0718563,24.7005988 L135.183838,24.7005988" id="Line" stroke="#D7D9D9" stroke-width="5" stroke-linecap="square"></path>
                <path d="M39.0718563,32.7844311 L135.183838,32.7844311" id="Line" stroke="#D7D9D9" stroke-width="5" stroke-linecap="square"></path>
                <path d="M39.0718563,40.8682635 L102.869608,40.8682635" id="Line" stroke="#D7D9D9" stroke-width="5" stroke-linecap="square"></path>
                <circle id="Oval-2" fill="#4990E2" cx="13.4730539" cy="13.4730539" r="13.4730539"></circle>
            </g>
            <use id="Rectangle-9" stroke="#979797" mask="url(#mask-2)" stroke-width="2" fill="#F2F2F2" stroke-dasharray="4" xlink:href="#path-1"></use>
            <g id="icon-picture" opacity="0.699999988" transform="translate(453.592814, 143.712575)" stroke="#979797">
                <polyline id="Path-15" stroke-width="2" points="1.14149737 33.1057682 19.4031906 14.0810509 32.2388227 27.5658385 39.7569279 19.667509 53.9884291 34.6187612"></polyline>
                <circle id="Oval-6" fill="#D8D8D8" cx="44.9101796" cy="9.88023952" r="2.69461078"></circle>
                <rect id="Rectangle-10" stroke-width="2" x="1" y="1" width="52.7904192" height="36.6227545" rx="3"></rect>
            </g>
        </g>
    </g>
</svg>