<?xml version="1.0" encoding="UTF-8"?>
<svg width="600px" height="301px" viewBox="0 0 600 301" version="1.1" xmlns="http://www.w3.org/2000/svg" xmlns:xlink="http://www.w3.org/1999/xlink">
    <!-- Generator: Sketch 44.1 (41455) - http://www.bohemiancoding.com/sketch -->
    <title>services24</title>
    <desc>Created with Sketch.</desc>
    <defs>
        <rect id="path-1" x="0" y="1" width="299.028003" height="299.104396"></rect>
        <mask id="mask-2" maskContentUnits="userSpaceOnUse" maskUnits="objectBoundingBox" x="0" y="0" width="299.028003" height="299.104396" fill="white">
            <use xlink:href="#path-1"></use>
        </mask>
    </defs>
    <g id="Services" stroke="none" stroke-width="1" fill="none" fill-rule="evenodd">
        <g id="24">
            <rect id="Rectangle-14" fill="#F8F8F8" x="300" y="0" width="299.028003" height="299.104396"></rect>
            <use id="Rectangle-9" stroke="#979797" mask="url(#mask-2)" stroke-width="2" fill="#F2F2F2" stroke-dasharray="4" xlink:href="#path-1"></use>
            <g id="icon-picture" opacity="0.699999988" transform="translate(97.000000, 113.000000)" stroke="#979797">
                <polyline id="Path-15" stroke-width="2" points="2.20195288 64.0948642 37.4288304 27.2618064 62.1888147 53.3692094 76.6912688 38.0775433 104.14389 67.0241144"></polyline>
                <ellipse id="Oval-6" fill="#D8D8D8" cx="86.6319115" cy="19.1287695" rx="5.19791469" ry="5.21693715"></ellipse>
                <rect id="Rectangle-10" stroke-width="2" x="1" y="1" width="103.690932" height="72.7760991" rx="3"></rect>
            </g>
            <path d="M331.302864,44.8214299 L374.309556,44.8214299" id="Line" stroke="#4990E2" stroke-width="6" stroke-linecap="square"></path>
            <path d="M332.676159,65.7578947 C332.129701,65.7578947 331.630857,65.6604475 331.179615,65.4655502 C330.728372,65.2706529 330.341303,64.9907514 330.018396,64.6258373 C329.695488,64.2609232 329.445031,63.8172275 329.267018,63.2947368 C329.089005,62.7722462 329,62.1792697 329,61.5157895 C329,60.8523093 329.089005,60.2614061 329.267018,59.7430622 C329.445031,59.2247183 329.695488,58.789316 330.018396,58.4368421 C330.341303,58.0843683 330.728372,57.8148335 331.179615,57.6282297 C331.630857,57.4416259 332.129701,57.3483254 332.676159,57.3483254 C333.222618,57.3483254 333.721462,57.4416259 334.172704,57.6282297 C334.623947,57.8148335 335.011016,58.0864416 335.333923,58.4430622 C335.656831,58.7996828 335.907288,59.2371585 336.085301,59.7555024 C336.263314,60.2738463 336.352319,60.8606028 336.352319,61.5157895 C336.352319,62.1792697 336.263314,62.7722462 336.085301,63.2947368 C335.907288,63.8172275 335.656831,64.2609232 335.333923,64.6258373 C335.011016,64.9907514 334.623947,65.2706529 334.172704,65.4655502 C333.721462,65.6604475 333.222618,65.7578947 332.676159,65.7578947 Z M332.676159,64.1779904 C333.230898,64.1779904 333.669714,63.9395558 333.992622,63.4626794 C334.31553,62.985803 334.476981,62.3368462 334.476981,61.5157895 C334.476981,60.7030262 334.31553,60.0685828 333.992622,59.6124402 C333.669714,59.1562976 333.230898,58.9282297 332.676159,58.9282297 C332.121421,58.9282297 331.682604,59.1562976 331.359697,59.6124402 C331.036789,60.0685828 330.875338,60.7030262 330.875338,61.5157895 C330.875338,62.3368462 331.036789,62.985803 331.359697,63.4626794 C331.682604,63.9395558 332.121421,64.1779904 332.676159,64.1779904 Z M337.668781,59.4382775 L339.494442,59.4382775 L339.494442,63.0334928 C339.494442,63.481342 339.556538,63.7881969 339.680734,63.954067 C339.804929,64.119937 339.999498,64.2028708 340.264448,64.2028708 C340.496279,64.2028708 340.690849,64.1489639 340.848163,64.0411483 C341.005477,63.9333328 341.175207,63.7591719 341.35736,63.5186603 L341.35736,59.4382775 L343.183021,59.4382775 L343.183021,65.6086124 L341.692686,65.6086124 L341.556072,64.7502392 L341.518813,64.7502392 C341.253864,65.0653923 340.970289,65.3121203 340.668081,65.4904306 C340.365872,65.6687409 340.003642,65.7578947 339.581378,65.7578947 C338.910724,65.7578947 338.4243,65.5381202 338.122092,65.0985646 C337.819883,64.659009 337.668781,64.0494457 337.668781,63.2698565 L337.668781,59.4382775 Z M344.785131,59.4382775 L346.275466,59.4382775 L346.39966,60.5205742 L346.449338,60.5205742 C346.672889,60.0976055 346.941975,59.7866039 347.256603,59.5875598 C347.571231,59.3885158 347.885854,59.2889952 348.200482,59.2889952 C348.374355,59.2889952 348.517177,59.2993619 348.628953,59.3200957 C348.740729,59.3408294 348.842153,59.3719296 348.93323,59.4133971 L348.635163,60.9933014 C348.519247,60.9601274 348.411613,60.9352473 348.312257,60.9186603 C348.212901,60.9020733 348.096987,60.8937799 347.964512,60.8937799 C347.732681,60.8937799 347.490504,60.9767137 347.237974,61.1425837 C346.985443,61.3084538 346.776385,61.6028687 346.610791,62.0258373 L346.610791,65.6086124 L344.785131,65.6086124 L344.785131,59.4382775 Z M352.646648,63.8296651 C352.936436,64.1365247 353.277968,64.3832527 353.671253,64.5698565 C354.064538,64.7564603 354.472306,64.8497608 354.894569,64.8497608 C355.432749,64.8497608 355.850866,64.7274334 356.148935,64.4827751 C356.447003,64.2381168 356.596035,63.9167484 356.596035,63.5186603 C356.596035,63.3113227 356.560847,63.1350884 356.49047,62.9899522 C356.420092,62.8448159 356.324878,62.7204152 356.204822,62.6167464 C356.084767,62.5130776 355.941944,62.4197771 355.776351,62.3368421 C355.610757,62.2539071 355.432747,62.1668266 355.242314,62.0755981 L354.074885,61.5655502 C353.884453,61.4826152 353.689883,61.3830947 353.491171,61.2669856 C353.292458,61.1508766 353.114448,61.0098892 352.957134,60.8440191 C352.79982,60.6781491 352.671487,60.4811814 352.572131,60.25311 C352.472775,60.0250387 352.423097,59.761724 352.423097,59.4631579 C352.423097,59.1562983 352.487264,58.8701768 352.615599,58.6047847 C352.743934,58.3393926 352.921944,58.1092514 353.149636,57.9143541 C353.377327,57.7194568 353.646412,57.5681026 353.9569,57.4602871 C354.267388,57.3524716 354.60892,57.2985646 354.981506,57.2985646 C355.470007,57.2985646 355.921242,57.3918651 356.335226,57.5784689 C356.74921,57.7650727 357.101092,58.007654 357.39088,58.3062201 L356.832005,58.9779904 C356.583614,58.7374789 356.308319,58.5488045 356.006111,58.4119617 C355.703903,58.2751189 355.362371,58.2066986 354.981506,58.2066986 C354.526123,58.2066986 354.159753,58.3124391 353.882384,58.5239234 C353.605014,58.7354078 353.466332,59.0277493 353.466332,59.4009569 C353.466332,59.600001 353.50566,59.7679419 353.584317,59.9047847 C353.662974,60.0416275 353.768538,60.1618815 353.901013,60.2655502 C354.033488,60.369219 354.17838,60.4604462 354.335694,60.5392344 C354.493008,60.6180227 354.654459,60.6905898 354.820053,60.7569378 L355.975062,61.2545455 C356.206893,61.3540675 356.426301,61.4681014 356.633293,61.5966507 C356.840285,61.7252 357.018296,61.8744808 357.16733,62.0444976 C357.316364,62.2145144 357.434348,62.4135555 357.521285,62.6416268 C357.608221,62.8696981 357.651689,63.1330129 357.651689,63.4315789 C357.651689,63.7550255 357.587522,64.0577338 357.459187,64.3397129 C357.330852,64.621692 357.146632,64.86842 356.906522,65.0799043 C356.666411,65.2913886 356.376626,65.4572562 356.037159,65.577512 C355.697693,65.6977677 355.312693,65.7578947 354.88215,65.7578947 C354.310852,65.7578947 353.78096,65.6500808 353.292459,65.4344498 C352.803958,65.2188187 352.381701,64.9244038 352.025675,64.5511962 L352.646648,63.8296651 Z M358.707343,62.5980861 C358.707343,62.100476 358.783929,61.6547069 358.937103,61.2607656 C359.090277,60.8668242 359.293126,60.5330157 359.545656,60.2593301 C359.798187,59.9856446 360.085901,59.7762368 360.408809,59.6311005 C360.731716,59.4859642 361.067038,59.4133971 361.414785,59.4133971 C361.79565,59.4133971 362.137182,59.4797442 362.43939,59.6124402 C362.741598,59.7451362 362.994125,59.9358839 363.196977,60.184689 C363.399829,60.4334941 363.555071,60.7320557 363.662707,61.0803828 C363.770342,61.4287099 363.824159,61.8184986 363.824159,62.2497608 C363.824159,62.4736853 363.81174,62.6602863 363.786901,62.8095694 L359.713319,62.8095694 C359.754717,63.4647561 359.955497,63.9830922 360.315663,64.3645933 C360.675829,64.7460944 361.145694,64.9368421 361.725271,64.9368421 C362.01506,64.9368421 362.282076,64.8933019 362.526326,64.8062201 C362.770577,64.7191383 363.004474,64.6051044 363.228026,64.4641148 L363.58819,65.1358852 C363.32324,65.3017552 363.029316,65.4468893 362.706408,65.5712919 C362.383501,65.6956944 362.015061,65.7578947 361.601077,65.7578947 C361.195372,65.7578947 360.816583,65.6853277 360.464696,65.5401914 C360.11281,65.3950551 359.806466,65.1877206 359.545656,64.9181818 C359.284846,64.648643 359.079927,64.3189812 358.930893,63.9291866 C358.781859,63.539392 358.707343,63.0956963 358.707343,62.5980861 Z M362.929959,62.137799 C362.929959,61.5157864 362.799556,61.0409905 362.538746,60.7133971 C362.277936,60.3858038 361.911565,60.2220096 361.439624,60.2220096 C361.224352,60.2220096 361.019433,60.2655498 360.82486,60.3526316 C360.630288,60.4397134 360.454347,60.564114 360.297033,60.7258373 C360.13972,60.8875606 360.009317,61.0866017 359.905821,61.3229665 C359.802325,61.5593313 359.734018,61.8309395 359.7009,62.137799 L362.929959,62.137799 Z M365.314494,59.5626794 L366.159018,59.5626794 L366.245954,60.6574163 L366.283212,60.6574163 C366.490204,60.2759152 366.740661,59.9732069 367.034589,59.7492823 C367.328518,59.5253577 367.649351,59.4133971 367.997097,59.4133971 C368.237208,59.4133971 368.452476,59.454864 368.642909,59.537799 L368.444198,60.4334928 C368.344842,60.4003188 368.253766,60.3754387 368.17097,60.3588517 C368.088173,60.3422647 367.984678,60.3339713 367.860483,60.3339713 C367.603813,60.3339713 367.336798,60.4376385 367.059428,60.6449761 C366.782059,60.8523136 366.539882,61.2130756 366.33289,61.7272727 L366.33289,65.6086124 L365.314494,65.6086124 L365.314494,59.5626794 Z M368.754684,59.5626794 L369.810338,59.5626794 L370.952928,62.9961722 C371.044005,63.2947383 371.13715,63.5932999 371.232366,63.891866 C371.327582,64.1904321 371.420727,64.484847 371.511804,64.7751196 L371.561482,64.7751196 C371.652558,64.484847 371.743633,64.1904321 371.83471,63.891866 L372.107938,62.9961722 L373.250528,59.5626794 L374.256504,59.5626794 L372.120357,65.6086124 L370.928089,65.6086124 L368.754684,59.5626794 Z M375.94555,58.3186603 C375.746838,58.3186603 375.579177,58.25646 375.442562,58.1320574 C375.305947,58.0076549 375.237641,57.8500807 375.237641,57.6593301 C375.237641,57.4602861 375.305947,57.3006386 375.442562,57.1803828 C375.579177,57.060127 375.746838,57 375.94555,57 C376.144263,57 376.311924,57.060127 376.448538,57.1803828 C376.585153,57.3006386 376.653459,57.4602861 376.653459,57.6593301 C376.653459,57.8500807 376.585153,58.0076549 376.448538,58.1320574 C376.311924,58.25646 376.144263,58.3186603 375.94555,58.3186603 Z M375.423933,59.5626794 L376.442329,59.5626794 L376.442329,65.6086124 L375.423933,65.6086124 L375.423933,59.5626794 Z M378.032019,62.5980861 C378.032019,62.0921825 378.110675,61.6422667 378.267989,61.2483254 C378.425303,60.854384 378.636431,60.5205755 378.901381,60.24689 C379.166331,59.9732044 379.474744,59.7658699 379.826631,59.6248804 C380.178517,59.4838908 380.549027,59.4133971 380.938172,59.4133971 C381.335597,59.4133971 381.677129,59.4859642 381.962778,59.6311005 C382.248426,59.7762368 382.494743,59.9441777 382.701735,60.1349282 L382.192537,60.7942584 C382.010385,60.6366818 381.822025,60.5081345 381.627452,60.4086124 C381.43288,60.3090904 381.215541,60.2593301 380.975431,60.2593301 C380.702201,60.2593301 380.449675,60.3153104 380.217844,60.4272727 C379.986013,60.539235 379.787303,60.6988825 379.62171,60.9062201 C379.456116,61.1135577 379.325713,61.3602857 379.230497,61.6464115 C379.13528,61.9325373 379.087673,62.249759 379.087673,62.5980861 C379.087673,62.9464132 379.133211,63.2615616 379.224287,63.5435407 C379.315364,63.8255198 379.441627,64.0681011 379.603081,64.2712919 C379.764534,64.4744827 379.961174,64.6320569 380.193005,64.7440191 C380.424836,64.8559814 380.677362,64.9119617 380.950592,64.9119617 C381.240381,64.9119617 381.503256,64.8518347 381.739227,64.7315789 C381.975198,64.6113232 382.184257,64.4682624 382.36641,64.3023923 L382.82593,64.9741627 C382.5527,65.2146742 382.248427,65.4054219 381.9131,65.5464115 C381.577773,65.687401 381.227961,65.7578947 380.863656,65.7578947 C380.466231,65.7578947 380.093651,65.687401 379.745904,65.5464115 C379.398158,65.4054219 379.098024,65.2001608 378.845494,64.930622 C378.592963,64.6610832 378.394254,64.3293481 378.24936,63.9354067 C378.104465,63.5414653 378.032019,63.0956963 378.032019,62.5980861 Z M383.695292,62.5980861 C383.695292,62.100476 383.771878,61.6547069 383.925052,61.2607656 C384.078226,60.8668242 384.281075,60.5330157 384.533605,60.2593301 C384.786135,59.9856446 385.07385,59.7762368 385.396758,59.6311005 C385.719665,59.4859642 386.054987,59.4133971 386.402734,59.4133971 C386.783599,59.4133971 387.125131,59.4797442 387.427339,59.6124402 C387.729547,59.7451362 387.982074,59.9358839 388.184926,60.184689 C388.387778,60.4334941 388.54302,60.7320557 388.650656,61.0803828 C388.758291,61.4287099 388.812108,61.8184986 388.812108,62.2497608 C388.812108,62.4736853 388.799689,62.6602863 388.77485,62.8095694 L384.701268,62.8095694 C384.742666,63.4647561 384.943446,63.9830922 385.303612,64.3645933 C385.663778,64.7460944 386.133643,64.9368421 386.71322,64.9368421 C387.003009,64.9368421 387.270025,64.8933019 387.514275,64.8062201 C387.758526,64.7191383 387.992423,64.6051044 388.215974,64.4641148 L388.576139,65.1358852 C388.311189,65.3017552 388.017265,65.4468893 387.694357,65.5712919 C387.37145,65.6956944 387.00301,65.7578947 386.589026,65.7578947 C386.183321,65.7578947 385.804532,65.6853277 385.452645,65.5401914 C385.100759,65.3950551 384.794415,65.1877206 384.533605,64.9181818 C384.272795,64.648643 384.067876,64.3189812 383.918842,63.9291866 C383.769808,63.539392 383.695292,63.0956963 383.695292,62.5980861 Z M387.917907,62.137799 C387.917907,61.5157864 387.787504,61.0409905 387.526695,60.7133971 C387.265885,60.3858038 386.899514,60.2220096 386.427573,60.2220096 C386.212301,60.2220096 386.007382,60.2655498 385.812809,60.3526316 C385.618237,60.4397134 385.442296,60.564114 385.284982,60.7258373 C385.127669,60.8875606 384.997266,61.0866017 384.89377,61.3229665 C384.790274,61.5593313 384.721967,61.8309395 384.688848,62.137799 L387.917907,62.137799 Z M390.14099,64.2401914 C390.40594,64.4558224 390.677096,64.6299834 390.954465,64.7626794 C391.231834,64.8953755 391.552667,64.9617225 391.916973,64.9617225 C392.314398,64.9617225 392.612462,64.8704953 392.811174,64.6880383 C393.009886,64.5055812 393.109241,64.28166 393.109241,64.0162679 C393.109241,63.8586914 393.067843,63.7218507 392.985046,63.6057416 C392.902249,63.4896326 392.796685,63.3880387 392.66835,63.3009569 C392.540015,63.2138752 392.393053,63.1371614 392.227459,63.0708134 L391.730681,62.8717703 C391.515409,62.7971288 391.300141,62.7121217 391.084869,62.6167464 C390.869598,62.5213711 390.677098,62.4052638 390.507364,62.2684211 C390.337631,62.1315783 390.198948,61.9719307 390.091313,61.7894737 C389.983677,61.6070166 389.92986,61.3872421 389.92986,61.1301435 C389.92986,60.889632 389.977467,60.6636374 390.072683,60.4521531 C390.1679,60.2406688 390.304512,60.0582145 390.482526,59.9047847 C390.660539,59.7513549 390.877877,59.6311009 391.134547,59.5440191 C391.391217,59.4569374 391.681002,59.4133971 392.003909,59.4133971 C392.384774,59.4133971 392.734586,59.4797442 393.053353,59.6124402 C393.372121,59.7451362 393.647416,59.9068571 393.879247,60.0976077 L393.394888,60.7444976 C393.187896,60.5869211 392.972628,60.4583737 392.749077,60.3588517 C392.525525,60.2593296 392.281278,60.2095694 392.016329,60.2095694 C391.635463,60.2095694 391.356028,60.2966498 391.178015,60.4708134 C391.000002,60.6449769 390.910997,60.8481647 390.910997,61.0803828 C390.910997,61.2213723 390.948255,61.3436996 391.022772,61.4473684 C391.097289,61.5510372 391.196644,61.6422644 391.320839,61.7210526 C391.445034,61.7998409 391.587856,61.8703346 391.74931,61.9325359 C391.910764,61.9947372 392.078425,62.0590108 392.252298,62.1253589 C392.46757,62.2082939 392.684908,62.2953743 392.90432,62.3866029 C393.123731,62.4778314 393.320371,62.5918653 393.494244,62.7287081 C393.668117,62.8655509 393.81094,63.0334918 393.922715,63.2325359 C394.034491,63.4315799 394.090378,63.6720879 394.090378,63.954067 C394.090378,64.2028721 394.042771,64.4350866 393.947554,64.6507177 C393.852338,64.8663488 393.711585,65.0570965 393.525293,65.2229665 C393.339,65.3888366 393.107172,65.5194573 392.829803,65.6148325 C392.552434,65.7102078 392.235741,65.7578947 391.879715,65.7578947 C391.449171,65.7578947 391.039333,65.6791076 390.650188,65.5215311 C390.261043,65.3639546 389.921581,65.1649135 389.631793,64.9244019 L390.14099,64.2401914 Z" id="Our-Services" fill="#79797B"></path>
            <g id="Group-33" transform="translate(331.000000, 100.000000)" stroke-linecap="square">
                <path d="M6,10.581555 L6,17.3449263" id="Line" stroke="#979797" stroke-width="3"></path>
                <path d="M11,6.59306633 L11,18.2171828" id="Line" stroke="#979797" stroke-width="3"></path>
                <path d="M16.5,8 L16.5,17.7810545" id="Line" stroke="#979797" stroke-width="3"></path>
                <path d="M21.5,5 L21.5,18.4352469" id="Line" stroke="#979797" stroke-width="3"></path>
                <path d="M0.5,0.609032058 L0.5,22.6691115" id="Line" stroke="#979797"></path>
                <path d="M25.5562638,22.3333333 L2.60803116,22.3333333" id="Line" stroke="#979797"></path>
                <path d="M47.53927,4.5 L103.623352,4.5" id="Line" stroke="#979797" stroke-width="7"></path>
                <path d="M45.9606518,18.5 L236.169704,18.5" id="Line" stroke="#D7D9D9" stroke-width="3"></path>
                <path d="M45.9606518,28.5 L214.5,28.5" id="Line" stroke="#D7D9D9" stroke-width="3"></path>
            </g>
            <g id="Group-32" transform="translate(331.000000, 157.000000)">
                <g id="Group-29" transform="translate(0.000000, 0.470203)" stroke="#979797">
                    <rect id="Rectangle-5" x="0.5" y="0.5" width="28" height="24"></rect>
                    <polygon id="Triangle" transform="translate(14.500000, 10.500000) rotate(90.000000) translate(-14.500000, -10.500000) " points="14.5 7 19 14 10 14"></polygon>
                    <path d="M28.5,20.5 L8.5,20.5" id="Line" stroke-linecap="square"></path>
                </g>
                <path d="M48.53927,5.5 L104.623352,5.5" id="Line" stroke="#979797" stroke-width="7" stroke-linecap="square"></path>
                <path d="M45.9606518,19.5 L236.169704,19.5" id="Line" stroke="#D7D9D9" stroke-width="3" stroke-linecap="square"></path>
                <path d="M45.9606518,29.5 L214.5,29.5" id="Line" stroke="#D7D9D9" stroke-width="3" stroke-linecap="square"></path>
            </g>
            <g id="Group-31" transform="translate(332.000000, 215.000000)">
                <g id="Group-30" stroke="#979797">
                    <path d="M7.339588,17.994226 C6.20721513,10.0790844 7.90680699,6.08135217 12.4383636,6.00102938 C19.2356984,5.88054519 18.0963087,16.3737137 17.8453969,17.994226" id="Path-5"></path>
                    <path d="M4,22.6905511 C4,19.9093745 5.77761738,18.6495339 7.49443494,17.8554604 C8.63897998,17.3260781 9.38635804,17.1917563 9.73656914,17.4524949 C9.86035058,18.2761783 10.0098019,18.8541518 10.1849232,19.1864152 C10.6364448,20.0431027 11.2817228,20.4751497 12.120757,20.4825565 C14.111496,20.5001302 15.0923168,18.6816012 15.0923168,17.0208842 C15.0940036,16.942154 15.7724633,17.0860242 17.127696,17.4524949 C19.9691303,19.7087636 21.3835822,21.4127888 21.3710516,22.5645707" id="Path-6"></path>
                    <path d="M10.8945222,10 C11.8431128,11.2076664 12.8029689,12.0578831 13.7740905,12.5506504 C15.2307729,13.2898012 15.724346,14.370761 15.6171732,15.271063 C15.5100004,16.1713649 13.3356399,19.2314775 12.5409709,19.269964 C11.7463018,19.3084504 8.84125065,17.0424944 9.00679917,15.3148215 C9.11716484,14.1630396 9.74640585,12.3914324 10.8945222,10 Z" id="Path-7"></path>
                    <circle id="Oval-2" cx="13" cy="13" r="13"></circle>
                </g>
                <path d="M47.53927,4.5 L103.623352,4.5" id="Line" stroke="#979797" stroke-width="7" stroke-linecap="square"></path>
                <path d="M44.9606518,18.5 L235.169704,18.5" id="Line" stroke="#D7D9D9" stroke-width="3" stroke-linecap="square"></path>
                <path d="M44.9606518,28.5 L213.5,28.5" id="Line" stroke="#D7D9D9" stroke-width="3" stroke-linecap="square"></path>
            </g>
        </g>
    </g>
</svg>