<?xml version="1.0" encoding="UTF-8"?>
<svg width="601px" height="480px" viewBox="0 0 601 480" version="1.1" xmlns="http://www.w3.org/2000/svg" xmlns:xlink="http://www.w3.org/1999/xlink">
    <!-- Generator: Sketch 44.1 (41455) - http://www.bohemiancoding.com/sketch -->
    <title>services07</title>
    <desc>Created with Sketch.</desc>
    <defs></defs>
    <g id="Services" stroke="none" stroke-width="1" fill="none" fill-rule="evenodd">
        <g id="07">
            <rect id="Rectangle-8" fill="#F0F0F0" x="0" y="0" width="600" height="179.598662"></rect>
            <path d="M19.5652174,36.1204013 L87.8221459,36.1204013" id="Line" stroke="#979797" stroke-width="6" stroke-linecap="square"></path>
            <path d="M20.5314381,61.8180602 L23.3337793,61.8180602 L23.3337793,71.883612 L28.2521739,71.883612 L28.2521739,74.2474916 L20.5314381,74.2474916 L20.5314381,61.8180602 Z M29.6247492,69.5197324 C29.6247492,68.7571868 29.7518382,68.0677288 30.0060201,67.4513378 C30.2602019,66.8349468 30.5938106,66.3138817 31.0068562,65.8881271 C31.4199017,65.4623725 31.8933084,65.1351182 32.4270903,64.9063545 C32.9608722,64.6775908 33.5137095,64.5632107 34.0856187,64.5632107 C34.7592007,64.5632107 35.3469875,64.6775908 35.8489967,64.9063545 C36.3510059,65.1351182 36.7703997,65.4528408 37.1071906,65.8595318 C37.4439816,66.2662228 37.6949825,66.7459839 37.8602007,67.2988294 C38.0254189,67.851675 38.1080268,68.4521707 38.1080268,69.1003344 C38.1080268,69.3545163 38.0953179,69.5864538 38.0698997,69.7961538 C38.0444815,70.0058539 38.0190637,70.1678924 37.9936455,70.2822742 L32.3317726,70.2822742 C32.4588635,71.0066926 32.7416366,71.5309348 33.1801003,71.8550167 C33.6185641,72.1790986 34.1555152,72.3411371 34.7909699,72.3411371 C35.4645519,72.3411371 36.1444782,72.1314402 36.8307692,71.7120401 L37.7648829,73.4086957 C37.2819374,73.7391321 36.7449862,73.9996646 36.1540134,74.190301 C35.5630405,74.3809374 34.9816082,74.4762542 34.409699,74.4762542 C33.736117,74.4762542 33.1070263,74.3650513 32.522408,74.1426421 C31.9377897,73.920233 31.4294336,73.596156 30.9973244,73.1704013 C30.5652152,72.7446467 30.2284293,72.2267589 29.9869565,71.6167224 C29.7454837,71.0066859 29.6247492,70.3076962 29.6247492,69.5197324 Z M35.7250836,68.5474916 C35.7250836,68.0010006 35.604349,67.556189 35.3628763,67.2130435 C35.1214035,66.8698979 34.7147186,66.6983278 34.1428094,66.6983278 C33.6979911,66.6983278 33.3071923,66.8476574 32.9704013,67.1463211 C32.6336104,67.4449848 32.4143818,67.912037 32.312709,68.5474916 L35.7250836,68.5474916 Z M39.7093645,71.6167224 C39.7093645,70.6254131 40.1287583,69.85017 40.9675585,69.2909699 C41.8063587,68.7317698 43.1598569,68.3568571 45.0280936,68.1662207 C45.0026755,67.7468206 44.8755864,67.4132119 44.6468227,67.1653846 C44.4180591,66.9175573 44.0495009,66.7936455 43.5411371,66.7936455 C43.1344461,66.7936455 42.7277612,66.8698989 42.3210702,67.022408 C41.9143792,67.1749172 41.4822765,67.3846141 41.0247492,67.651505 L40.0334448,65.8023411 C40.6434813,65.4337774 41.2821037,65.1351182 41.9493311,64.9063545 C42.6165585,64.6775908 43.3250799,64.5632107 44.0749164,64.5632107 C45.2949894,64.5632107 46.2259165,64.9095283 46.8677258,65.6021739 C47.509535,66.2948195 47.8304348,67.371899 47.8304348,68.8334448 L47.8304348,74.2474916 L45.5428094,74.2474916 L45.3331104,73.2752508 L45.2759197,73.2752508 C44.8692287,73.6311055 44.4403033,73.920233 43.9891304,74.1426421 C43.5379576,74.3650513 43.0454876,74.4762542 42.5117057,74.4762542 C42.0795965,74.4762542 41.691975,74.403178 41.3488294,74.2570234 C41.0056839,74.1108688 40.7133791,73.9075264 40.4719064,73.64699 C40.2304336,73.3864535 40.0429773,73.0846171 39.9095318,72.7414716 C39.7760863,72.398326 39.7093645,72.0234134 39.7093645,71.6167224 Z M42.3782609,71.4070234 C42.3782609,71.7120417 42.4767549,71.9376247 42.6737458,72.0837793 C42.8707368,72.2299338 43.1344465,72.30301 43.4648829,72.30301 C43.7953194,72.30301 44.0749152,72.2331111 44.3036789,72.093311 C44.5324426,71.953511 44.7739118,71.756523 45.0280936,71.5023411 L45.0280936,69.8438127 C44.0240752,69.9836127 43.33144,70.1869552 42.9501672,70.4538462 C42.5688944,70.7207371 42.3782609,71.0384597 42.3782609,71.4070234 Z M50.2324415,64.7919732 L52.5200669,64.7919732 L52.7107023,66.4505017 L52.7869565,66.4505017 C53.1301021,65.8023379 53.5431414,65.325754 54.026087,65.0207358 C54.5090325,64.7157175 54.9919708,64.5632107 55.4749164,64.5632107 C55.7418074,64.5632107 55.9610359,64.5790968 56.1326087,64.6108696 C56.3041815,64.6426423 56.4598655,64.6903007 56.5996656,64.7538462 L56.1421405,67.1749164 C55.9642132,67.12408 55.7989974,67.0859533 55.6464883,67.0605351 C55.4939792,67.0351169 55.3160545,67.022408 55.112709,67.022408 C54.7568544,67.022408 54.385119,67.1494971 53.9974916,67.4036789 C53.6098643,67.6578608 53.2889645,68.1090269 53.0347826,68.7571906 L53.0347826,74.2474916 L50.2324415,74.2474916 L50.2324415,64.7919732 Z M57.8197324,64.7919732 L60.1073579,64.7919732 L60.2979933,65.9929766 L60.3742475,65.9929766 C60.7809385,65.6117038 61.2257501,65.2780951 61.7086957,64.9921405 C62.1916412,64.7061859 62.7571874,64.5632107 63.4053512,64.5632107 C64.4347878,64.5632107 65.1814358,64.8999966 65.6453177,65.5735786 C66.1091996,66.2471606 66.3411371,67.1812649 66.3411371,68.3759197 L66.3411371,74.2474916 L63.538796,74.2474916 L63.538796,68.7381271 C63.538796,68.051836 63.4466564,67.5816066 63.2623746,67.3274247 C63.0780927,67.0732429 62.7826107,66.9461538 62.3759197,66.9461538 C62.0200651,66.9461538 61.7150514,67.0255845 61.4608696,67.1844482 C61.2066877,67.3433118 60.9270918,67.5688949 60.6220736,67.861204 L60.6220736,74.2474916 L57.8197324,74.2474916 L57.8197324,64.7919732 Z M72.3461538,71.6167224 C72.3461538,70.6254131 72.7655476,69.85017 73.6043478,69.2909699 C74.443148,68.7317698 75.7966462,68.3568571 77.6648829,68.1662207 C77.6394648,67.7468206 77.5123757,67.4132119 77.283612,67.1653846 C77.0548484,66.9175573 76.6862902,66.7936455 76.1779264,66.7936455 C75.7712354,66.7936455 75.3645505,66.8698989 74.9578595,67.022408 C74.5511685,67.1749172 74.1190658,67.3846141 73.6615385,67.651505 L72.6702341,65.8023411 C73.2802706,65.4337774 73.918893,65.1351182 74.5861204,64.9063545 C75.2533478,64.6775908 75.9618692,64.5632107 76.7117057,64.5632107 C77.9317787,64.5632107 78.8627058,64.9095283 79.5045151,65.6021739 C80.1463243,66.2948195 80.4672241,67.371899 80.4672241,68.8334448 L80.4672241,74.2474916 L78.1795987,74.2474916 L77.9698997,73.2752508 L77.912709,73.2752508 C77.506018,73.6311055 77.0770926,73.920233 76.6259197,74.1426421 C76.1747469,74.3650513 75.6822769,74.4762542 75.148495,74.4762542 C74.7163858,74.4762542 74.3287643,74.403178 73.9856187,74.2570234 C73.6424732,74.1108688 73.3501684,73.9075264 73.1086957,73.64699 C72.8672229,73.3864535 72.6797666,73.0846171 72.5463211,72.7414716 C72.4128756,72.398326 72.3461538,72.0234134 72.3461538,71.6167224 Z M75.0150502,71.4070234 C75.0150502,71.7120417 75.1135442,71.9376247 75.3105351,72.0837793 C75.5075261,72.2299338 75.7712358,72.30301 76.1016722,72.30301 C76.4321087,72.30301 76.7117045,72.2331111 76.9404682,72.093311 C77.1692319,71.953511 77.4107011,71.756523 77.6648829,71.5023411 L77.6648829,69.8438127 C76.6608645,69.9836127 75.9682293,70.1869552 75.5869565,70.4538462 C75.2056837,70.7207371 75.0150502,71.0384597 75.0150502,71.4070234 Z M82.8692308,60.8839465 L85.6715719,60.8839465 L85.6715719,64.1628763 L85.5953177,65.6117057 C85.9638814,65.2812693 86.3610347,65.023914 86.7867893,64.8396321 C87.2125439,64.6553502 87.6478239,64.5632107 88.0926421,64.5632107 C88.6645514,64.5632107 89.1792619,64.6775908 89.6367893,64.9063545 C90.0943167,65.1351182 90.4851154,65.456018 90.8091973,65.8690635 C91.1332792,66.2821091 91.3811028,66.7841108 91.5526756,67.3750836 C91.7242483,67.9660565 91.8100334,68.6237422 91.8100334,69.3481605 C91.8100334,70.1615425 91.6988305,70.88595 91.4764214,71.5214047 C91.2540123,72.1568594 90.955353,72.6938105 90.5804348,73.1322742 C90.2055165,73.570738 89.7797683,73.9043467 89.3031773,74.1331104 C88.8265862,74.3618741 88.3341163,74.4762542 87.8257525,74.4762542 C87.4063524,74.4762542 86.9837814,74.374583 86.5580268,74.1712375 C86.1322721,73.967892 85.7351189,73.6628783 85.3665552,73.2561873 L85.290301,73.2561873 L85.0615385,74.2474916 L82.8692308,74.2474916 L82.8692308,60.8839465 Z M85.6715719,71.5785953 C85.9257538,71.807359 86.1799318,71.9662203 86.4341137,72.0551839 C86.6882956,72.1441476 86.9361192,72.1886288 87.177592,72.1886288 C87.6605375,72.1886288 88.0735769,71.9694002 88.4167224,71.5309365 C88.7598679,71.0924727 88.9314381,70.3839514 88.9314381,69.4053512 C88.9314381,67.7023326 88.3849553,66.8508361 87.2919732,66.8508361 C86.7327731,66.8508361 86.1926447,67.1367864 85.6715719,67.7086957 L85.6715719,71.5785953 Z M93.2397993,69.5197324 C93.2397993,68.7317686 93.3668884,68.0296017 93.6210702,67.4132107 C93.8752521,66.7968197 94.2152153,66.2789319 94.6409699,65.8595318 C95.0667245,65.4401317 95.5591945,65.1192319 96.1183946,64.8968227 C96.6775948,64.6744136 97.2558499,64.5632107 97.8531773,64.5632107 C98.4505047,64.5632107 99.0255825,64.6744136 99.5784281,64.8968227 C100.131274,65.1192319 100.620566,65.4401317 101.046321,65.8595318 C101.472076,66.2789319 101.812039,66.7968197 102.066221,67.4132107 C102.320403,68.0296017 102.447492,68.7317686 102.447492,69.5197324 C102.447492,70.3076962 102.320403,71.0098631 102.066221,71.6262542 C101.812039,72.2426452 101.472076,72.760533 101.046321,73.1799331 C100.620566,73.5993332 100.131274,73.920233 99.5784281,74.1426421 C99.0255825,74.3650513 98.4505047,74.4762542 97.8531773,74.4762542 C97.2558499,74.4762542 96.6775948,74.3650513 96.1183946,74.1426421 C95.5591945,73.920233 95.0667245,73.5993332 94.6409699,73.1799331 C94.2152153,72.760533 93.8752521,72.2426452 93.6210702,71.6262542 C93.3668884,71.0098631 93.2397993,70.3076962 93.2397993,69.5197324 Z M96.1183946,69.5197324 C96.1183946,70.3458235 96.2613698,71.000332 96.5473244,71.4832776 C96.833279,71.9662232 97.2685589,72.2076923 97.8531773,72.2076923 C98.4250865,72.2076923 98.8571892,71.9662232 99.1494983,71.4832776 C99.4418075,71.000332 99.5879599,70.3458235 99.5879599,69.5197324 C99.5879599,68.6936414 99.4418075,68.0391328 99.1494983,67.5561873 C98.8571892,67.0732417 98.4250865,66.8317726 97.8531773,66.8317726 C97.2685589,66.8317726 96.833279,67.0732417 96.5473244,67.5561873 C96.2613698,68.0391328 96.1183946,68.6936414 96.1183946,69.5197324 Z M104.277592,64.7919732 L107.079933,64.7919732 L107.079933,70.3013378 C107.079933,70.9876288 107.17525,71.4578583 107.365886,71.7120401 C107.556523,71.966222 107.855182,72.093311 108.261873,72.093311 C108.617728,72.093311 108.916387,72.0107032 109.15786,71.8454849 C109.399332,71.6802667 109.659865,71.4133798 109.939465,71.0448161 L109.939465,64.7919732 L112.741806,64.7919732 L112.741806,74.2474916 L110.454181,74.2474916 L110.244482,72.932107 L110.187291,72.932107 C109.7806,73.4150526 109.34532,73.7931424 108.881438,74.066388 C108.417556,74.3396335 107.861542,74.4762542 107.213378,74.4762542 C106.183941,74.4762542 105.437293,74.1394683 104.973411,73.4658863 C104.509529,72.7923043 104.277592,71.8582 104.277592,70.6635452 L104.277592,64.7919732 Z M115.582274,66.9842809 L114.285953,66.9842809 L114.285953,64.9063545 L115.734783,64.7919732 L116.058863,62.2755853 L118.384615,62.2755853 L118.384615,64.7919732 L120.653177,64.7919732 L120.653177,66.9842809 L118.384615,66.9842809 L118.384615,70.7779264 C118.384615,71.3117084 118.495818,71.6961527 118.718227,71.9312709 C118.940637,72.1663891 119.236119,72.2839465 119.604682,72.2839465 C119.757191,72.2839465 119.912875,72.2648831 120.071739,72.2267559 C120.230603,72.1886286 120.373578,72.1441474 120.500669,72.093311 L120.93913,74.1331104 C120.684949,74.2093649 120.386289,74.2856183 120.043144,74.3618729 C119.699998,74.4381275 119.299668,74.4762542 118.84214,74.4762542 C118.257522,74.4762542 117.758698,74.3872919 117.345652,74.2093645 C116.932607,74.0314372 116.595821,73.7836136 116.335284,73.4658863 C116.074748,73.1481589 115.884114,72.7637146 115.763378,72.3125418 C115.642642,71.861369 115.582274,71.3625445 115.582274,70.8160535 L115.582274,66.9842809 Z M125.914716,69.5197324 C125.914716,68.7317686 126.041805,68.0296017 126.295987,67.4132107 C126.550168,66.7968197 126.890132,66.2789319 127.315886,65.8595318 C127.741641,65.4401317 128.234111,65.1192319 128.793311,64.8968227 C129.352511,64.6744136 129.930766,64.5632107 130.528094,64.5632107 C131.125421,64.5632107 131.700499,64.6744136 132.253344,64.8968227 C132.80619,65.1192319 133.295483,65.4401317 133.721237,65.8595318 C134.146992,66.2789319 134.486955,66.7968197 134.741137,67.4132107 C134.995319,68.0296017 135.122408,68.7317686 135.122408,69.5197324 C135.122408,70.3076962 134.995319,71.0098631 134.741137,71.6262542 C134.486955,72.2426452 134.146992,72.760533 133.721237,73.1799331 C133.295483,73.5993332 132.80619,73.920233 132.253344,74.1426421 C131.700499,74.3650513 131.125421,74.4762542 130.528094,74.4762542 C129.930766,74.4762542 129.352511,74.3650513 128.793311,74.1426421 C128.234111,73.920233 127.741641,73.5993332 127.315886,73.1799331 C126.890132,72.760533 126.550168,72.2426452 126.295987,71.6262542 C126.041805,71.0098631 125.914716,70.3076962 125.914716,69.5197324 Z M128.793311,69.5197324 C128.793311,70.3458235 128.936286,71.000332 129.222241,71.4832776 C129.508195,71.9662232 129.943475,72.2076923 130.528094,72.2076923 C131.100003,72.2076923 131.532106,71.9662232 131.824415,71.4832776 C132.116724,71.000332 132.262876,70.3458235 132.262876,69.5197324 C132.262876,68.6936414 132.116724,68.0391328 131.824415,67.5561873 C131.532106,67.0732417 131.100003,66.8317726 130.528094,66.8317726 C129.943475,66.8317726 129.508195,67.0732417 129.222241,67.5561873 C128.936286,68.0391328 128.793311,68.6936414 128.793311,69.5197324 Z M136.952508,64.7919732 L139.754849,64.7919732 L139.754849,70.3013378 C139.754849,70.9876288 139.850166,71.4578583 140.040803,71.7120401 C140.231439,71.966222 140.530098,72.093311 140.936789,72.093311 C141.292644,72.093311 141.591303,72.0107032 141.832776,71.8454849 C142.074249,71.6802667 142.334781,71.4133798 142.614381,71.0448161 L142.614381,64.7919732 L145.416722,64.7919732 L145.416722,74.2474916 L143.129097,74.2474916 L142.919398,72.932107 L142.862207,72.932107 C142.455516,73.4150526 142.020236,73.7931424 141.556355,74.066388 C141.092473,74.3396335 140.536458,74.4762542 139.888294,74.4762542 C138.858858,74.4762542 138.11221,74.1394683 137.648328,73.4658863 C137.184446,72.7923043 136.952508,71.8582 136.952508,70.6635452 L136.952508,64.7919732 Z M147.87592,64.7919732 L150.163545,64.7919732 L150.354181,66.4505017 L150.430435,66.4505017 C150.77358,65.8023379 151.18662,65.325754 151.669565,65.0207358 C152.152511,64.7157175 152.635449,64.5632107 153.118395,64.5632107 C153.385286,64.5632107 153.604514,64.5790968 153.776087,64.6108696 C153.94766,64.6426423 154.103344,64.6903007 154.243144,64.7538462 L153.785619,67.1749164 C153.607691,67.12408 153.442476,67.0859533 153.289967,67.0605351 C153.137457,67.0351169 152.959533,67.022408 152.756187,67.022408 C152.400333,67.022408 152.028597,67.1494971 151.64097,67.4036789 C151.253343,67.6578608 150.932443,68.1090269 150.678261,68.7571906 L150.678261,74.2474916 L147.87592,74.2474916 L147.87592,64.7919732 Z M160.45786,70.7588629 C160.902678,71.1401357 161.395148,71.4515038 161.935284,71.6929766 C162.475421,71.9344494 163.006017,72.0551839 163.52709,72.0551839 C164.111709,72.0551839 164.546989,71.9471583 164.832943,71.7311037 C165.118898,71.5150491 165.261873,71.2227443 165.261873,70.8541806 C165.261873,70.6635442 165.220569,70.4983285 165.13796,70.3585284 C165.055351,70.2187284 164.934616,70.0948166 164.775753,69.9867893 C164.616889,69.878762 164.426255,69.7770908 164.203846,69.6817726 L163.4699,69.3672241 L161.849498,68.6809365 C161.531771,68.5538455 161.22358,68.3886298 160.924916,68.1852843 C160.626253,67.9819388 160.359366,67.7436469 160.124247,67.4704013 C159.889129,67.1971558 159.701673,66.8794332 159.561873,66.5172241 C159.422073,66.1550149 159.352174,65.7451528 159.352174,65.2876254 C159.352174,64.7792617 159.4602,64.2995006 159.676254,63.8483278 C159.892309,63.3971549 160.197322,63.0031789 160.591304,62.666388 C160.985286,62.329597 161.452338,62.0658872 161.992475,61.8752508 C162.532611,61.6846144 163.126753,61.5892977 163.774916,61.5892977 C164.499335,61.5892977 165.214211,61.7290956 165.919565,62.0086957 C166.62492,62.2882957 167.244479,62.6949806 167.778261,63.2287625 L166.348495,65.0016722 C165.941804,64.6839449 165.535119,64.4392985 165.128428,64.2677258 C164.721737,64.096153 164.270571,64.0103679 163.774916,64.0103679 C163.291971,64.0103679 162.907527,64.1088619 162.621572,64.3058528 C162.335617,64.5028438 162.192642,64.7792624 162.192642,65.1351171 C162.192642,65.3257535 162.240301,65.487792 162.335619,65.6212375 C162.430937,65.7546829 162.56438,65.8754175 162.735953,65.9834448 C162.907526,66.0914721 163.107691,66.1931433 163.336455,66.2884615 C163.565219,66.3837797 163.813042,66.4886282 164.079933,66.60301 L165.681271,67.2511706 C166.443817,67.5561888 167.044312,67.9755826 167.482776,68.5093645 C167.92124,69.0431465 168.140468,69.7484906 168.140468,70.6254181 C168.140468,71.1464909 168.03562,71.6389609 167.82592,72.1028428 C167.61622,72.5667247 167.311206,72.9734096 166.91087,73.3229097 C166.510533,73.6724098 166.018063,73.9520056 165.433445,74.1617057 C164.848827,74.3714057 164.187964,74.4762542 163.450836,74.4762542 C162.637454,74.4762542 161.827262,74.3269246 161.020234,74.0282609 C160.213207,73.7295972 159.491976,73.2816083 158.856522,72.6842809 L160.45786,70.7588629 Z M169.474916,69.5197324 C169.474916,68.7571868 169.602005,68.0677288 169.856187,67.4513378 C170.110369,66.8349468 170.443978,66.3138817 170.857023,65.8881271 C171.270069,65.4623725 171.743476,65.1351182 172.277258,64.9063545 C172.811039,64.6775908 173.363877,64.5632107 173.935786,64.5632107 C174.609368,64.5632107 175.197155,64.6775908 175.699164,64.9063545 C176.201173,65.1351182 176.620567,65.4528408 176.957358,65.8595318 C177.294149,66.2662228 177.54515,66.7459839 177.710368,67.2988294 C177.875586,67.851675 177.958194,68.4521707 177.958194,69.1003344 C177.958194,69.3545163 177.945485,69.5864538 177.920067,69.7961538 C177.894649,70.0058539 177.869231,70.1678924 177.843813,70.2822742 L172.18194,70.2822742 C172.309031,71.0066926 172.591804,71.5309348 173.030268,71.8550167 C173.468731,72.1790986 174.005682,72.3411371 174.641137,72.3411371 C175.314719,72.3411371 175.994645,72.1314402 176.680936,71.7120401 L177.61505,73.4086957 C177.132105,73.7391321 176.595153,73.9996646 176.004181,74.190301 C175.413208,74.3809374 174.831775,74.4762542 174.259866,74.4762542 C173.586284,74.4762542 172.957194,74.3650513 172.372575,74.1426421 C171.787957,73.920233 171.279601,73.596156 170.847492,73.1704013 C170.415382,72.7446467 170.078597,72.2267589 169.837124,71.6167224 C169.595651,71.0066859 169.474916,70.3076962 169.474916,69.5197324 Z M175.575251,68.5474916 C175.575251,68.0010006 175.454516,67.556189 175.213043,67.2130435 C174.971571,66.8698979 174.564886,66.6983278 173.992977,66.6983278 C173.548158,66.6983278 173.15736,66.8476574 172.820569,67.1463211 C172.483778,67.4449848 172.264549,67.912037 172.162876,68.5474916 L175.575251,68.5474916 Z M179.902676,64.7919732 L182.190301,64.7919732 L182.380936,66.4505017 L182.457191,66.4505017 C182.800336,65.8023379 183.213376,65.325754 183.696321,65.0207358 C184.179267,64.7157175 184.662205,64.5632107 185.145151,64.5632107 C185.412041,64.5632107 185.63127,64.5790968 185.802843,64.6108696 C185.974416,64.6426423 186.1301,64.6903007 186.2699,64.7538462 L185.812375,67.1749164 C185.634447,67.12408 185.469232,67.0859533 185.316722,67.0605351 C185.164213,67.0351169 184.986289,67.022408 184.782943,67.022408 C184.427089,67.022408 184.055353,67.1494971 183.667726,67.4036789 C183.280098,67.6578608 182.959199,68.1090269 182.705017,68.7571906 L182.705017,74.2474916 L179.902676,74.2474916 L179.902676,64.7919732 Z M186.479599,64.7919732 L189.301003,64.7919732 L190.52107,69.2528428 C190.648161,69.7230793 190.772073,70.2028404 190.892809,70.6921405 C191.013546,71.1814406 191.137458,71.6739106 191.264548,72.1695652 L191.340803,72.1695652 C191.455185,71.6739106 191.572742,71.1814406 191.693478,70.6921405 C191.814215,70.2028404 191.938126,69.7230793 192.065217,69.2528428 L193.304348,64.7919732 L195.992308,64.7919732 L192.904013,74.2474916 L189.663211,74.2474916 L186.479599,64.7919732 Z M198.851839,63.4003344 C198.381603,63.4003344 197.993981,63.2637137 197.688963,62.9904682 C197.383945,62.7172227 197.231438,62.3645507 197.231438,61.9324415 C197.231438,61.5003323 197.383945,61.1508375 197.688963,60.8839465 C197.993981,60.6170555 198.381603,60.483612 198.851839,60.483612 C199.334785,60.483612 199.725584,60.6170555 200.024247,60.8839465 C200.322911,61.1508375 200.472241,61.5003323 200.472241,61.9324415 C200.472241,62.3645507 200.322911,62.7172227 200.024247,62.9904682 C199.725584,63.2637137 199.334785,63.4003344 198.851839,63.4003344 Z M197.460201,64.7919732 L200.262542,64.7919732 L200.262542,74.2474916 L197.460201,74.2474916 L197.460201,64.7919732 Z M202.168896,69.5197324 C202.168896,68.7317686 202.30234,68.0296017 202.569231,67.4132107 C202.836122,66.7968197 203.195148,66.2789319 203.646321,65.8595318 C204.097494,65.4401317 204.621736,65.1192319 205.219064,64.8968227 C205.816391,64.6744136 206.439127,64.5632107 207.087291,64.5632107 C207.671909,64.5632107 208.199329,64.6617047 208.669565,64.8586957 C209.139802,65.0556866 209.533778,65.3193963 209.851505,65.6498328 L208.574247,67.3846154 C208.129429,67.0160517 207.690972,66.8317726 207.258863,66.8317726 C206.572572,66.8317726 206.032443,67.0732417 205.638462,67.5561873 C205.24448,68.0391328 205.047492,68.6936414 205.047492,69.5197324 C205.047492,70.3458235 205.247657,71.000332 205.647993,71.4832776 C206.04833,71.9662232 206.553509,72.2076923 207.163545,72.2076923 C207.506691,72.2076923 207.818059,72.1377933 208.097659,71.9979933 C208.377259,71.8581933 208.631437,71.699332 208.860201,71.5214047 L209.98495,73.2943144 C209.527422,73.7010054 209.019066,73.9996646 208.459866,74.190301 C207.900666,74.3809374 207.360538,74.4762542 206.839465,74.4762542 C206.178592,74.4762542 205.565387,74.3650513 204.999833,74.1426421 C204.434278,73.920233 203.941808,73.5993332 203.522408,73.1799331 C203.103008,72.760533 202.772576,72.2426452 202.531104,71.6262542 C202.289631,71.0098631 202.168896,70.3076962 202.168896,69.5197324 Z M211.071572,69.5197324 C211.071572,68.7571868 211.198661,68.0677288 211.452843,67.4513378 C211.707025,66.8349468 212.040633,66.3138817 212.453679,65.8881271 C212.866724,65.4623725 213.340131,65.1351182 213.873913,64.9063545 C214.407695,64.6775908 214.960532,64.5632107 215.532441,64.5632107 C216.206023,64.5632107 216.79381,64.6775908 217.295819,64.9063545 C217.797829,65.1351182 218.217222,65.4528408 218.554013,65.8595318 C218.890804,66.2662228 219.141805,66.7459839 219.307023,67.2988294 C219.472242,67.851675 219.554849,68.4521707 219.554849,69.1003344 C219.554849,69.3545163 219.542141,69.5864538 219.516722,69.7961538 C219.491304,70.0058539 219.465886,70.1678924 219.440468,70.2822742 L213.778595,70.2822742 C213.905686,71.0066926 214.188459,71.5309348 214.626923,71.8550167 C215.065387,72.1790986 215.602338,72.3411371 216.237793,72.3411371 C216.911375,72.3411371 217.591301,72.1314402 218.277592,71.7120401 L219.211706,73.4086957 C218.72876,73.7391321 218.191809,73.9996646 217.600836,74.190301 C217.009863,74.3809374 216.428431,74.4762542 215.856522,74.4762542 C215.18294,74.4762542 214.553849,74.3650513 213.969231,74.1426421 C213.384612,73.920233 212.876256,73.596156 212.444147,73.1704013 C212.012038,72.7446467 211.675252,72.2267589 211.433779,71.6167224 C211.192306,71.0066859 211.071572,70.3076962 211.071572,69.5197324 Z M217.171906,68.5474916 C217.171906,68.0010006 217.051172,67.556189 216.809699,67.2130435 C216.568226,66.8698979 216.161541,66.6983278 215.589632,66.6983278 C215.144814,66.6983278 214.754015,66.8476574 214.417224,67.1463211 C214.080433,67.4449848 213.861205,67.912037 213.759532,68.5474916 L217.171906,68.5474916 Z M221.918729,71.4070234 C222.350838,71.7374598 222.763878,71.9852835 223.15786,72.1505017 C223.551841,72.3157199 223.952172,72.3983278 224.358863,72.3983278 C224.778263,72.3983278 225.083277,72.3284288 225.273913,72.1886288 C225.464549,72.0488287 225.559866,71.8518407 225.559866,71.5976589 C225.559866,71.4451497 225.505853,71.308529 225.397826,71.1877926 C225.289799,71.0670563 225.143646,70.9558534 224.959365,70.8541806 C224.775083,70.7525079 224.568563,70.6603683 224.339799,70.5777592 C224.111036,70.4951501 223.875921,70.4030105 223.634448,70.3013378 C223.342139,70.1869559 223.049834,70.0535125 222.757525,69.9010033 C222.465216,69.7484942 222.198329,69.5610379 221.956856,69.3386288 C221.715383,69.1162196 221.518395,68.8556871 221.365886,68.5570234 C221.213377,68.2583597 221.137124,67.9120421 221.137124,67.5180602 C221.137124,67.085951 221.222909,66.6856206 221.394482,66.3170569 C221.566054,65.9484931 221.810701,65.637125 222.128428,65.3829431 C222.446155,65.1287613 222.827423,64.928596 223.272241,64.7824415 C223.717059,64.6362869 224.212706,64.5632107 224.759197,64.5632107 C225.483616,64.5632107 226.119061,64.6871225 226.665552,64.9349498 C227.212043,65.1827772 227.688627,65.4591958 228.095318,65.764214 L226.837124,67.441806 C226.493978,67.1876241 226.157192,66.9906362 225.826756,66.8508361 C225.496319,66.7110361 225.165888,66.6411371 224.835452,66.6411371 C224.123742,66.6411371 223.767893,66.8889607 223.767893,67.3846154 C223.767893,67.5371245 223.818729,67.6673908 223.920401,67.7754181 C224.022074,67.8834454 224.158695,67.9819394 224.330268,68.070903 C224.50184,68.1598667 224.698828,68.2456518 224.921237,68.3282609 C225.143647,68.41087 225.375584,68.4966551 225.617057,68.5856187 C225.922075,68.7000006 226.223912,68.8302668 226.522575,68.9764214 C226.821239,69.122576 227.09448,69.3036778 227.342308,69.5197324 C227.590135,69.735787 227.7903,69.9994968 227.942809,70.3108696 C228.095318,70.6222424 228.171572,70.9939778 228.171572,71.426087 C228.171572,71.8581961 228.088964,72.2585266 227.923746,72.6270903 C227.758528,72.995654 227.510704,73.3165538 227.180268,73.5897993 C226.849831,73.8630448 226.443146,74.0790962 225.960201,74.2379599 C225.477255,74.3968235 224.918063,74.4762542 224.282609,74.4762542 C223.659863,74.4762542 223.021241,74.3555196 222.366722,74.1140468 C221.712204,73.872574 221.143481,73.5548515 220.660535,73.1608696 L221.918729,71.4070234 Z M19.5210702,89.8755853 L22.3043478,89.8755853 L23.219398,94.2602007 C23.2956526,94.7304371 23.3655515,95.1943121 23.429097,95.6518395 C23.4926425,96.1093668 23.5625414,96.5795962 23.638796,97.0625418 L23.7150502,97.0625418 C23.8040138,96.5795962 23.8897989,96.1030124 23.972408,95.6327759 C24.0550171,95.1625395 24.1535111,94.7050189 24.267893,94.2602007 L25.316388,89.8755853 L27.7374582,89.8755853 L28.8050167,94.2602007 C28.9193986,94.7304371 29.0210698,95.1943121 29.1100334,95.6518395 C29.1989971,96.1093668 29.2943139,96.5795962 29.3959866,97.0625418 L29.4722408,97.0625418 C29.5612045,96.5795962 29.6342807,96.1093668 29.6914716,95.6518395 C29.7486625,95.1943121 29.8217387,94.7304371 29.9107023,94.2602007 L30.806689,89.8755853 L33.3993311,89.8755853 L31.1307692,99.3311037 L27.8518395,99.3311037 L26.9939799,95.5565217 C26.8923072,95.1117035 26.8033449,94.6668919 26.7270903,94.2220736 C26.6508357,93.7772553 26.5682279,93.3006714 26.4792642,92.7923077 L26.40301,92.7923077 C26.3140464,93.3006714 26.2346157,93.7772553 26.1647157,94.2220736 C26.0948157,94.6668919 26.0153851,95.1117035 25.9264214,95.5565217 L25.0876254,99.3311037 L21.8849498,99.3311037 L19.5210702,89.8755853 Z M34.5431438,94.6033445 C34.5431438,93.8407989 34.6702328,93.1513409 34.9244147,92.5349498 C35.1785966,91.9185588 35.5122053,91.3974938 35.9252508,90.9717391 C36.3382964,90.5459845 36.811703,90.2187302 37.3454849,89.9899666 C37.8792669,89.7612029 38.4321042,89.6468227 39.0040134,89.6468227 C39.6775953,89.6468227 40.2653821,89.7612029 40.7673913,89.9899666 C41.2694005,90.2187302 41.6887943,90.5364528 42.0255853,90.9431438 C42.3623763,91.3498348 42.6133771,91.8295959 42.7785953,92.3824415 C42.9438135,92.935287 43.0264214,93.5357827 43.0264214,94.1839465 C43.0264214,94.4381284 43.0137125,94.6700658 42.9882943,94.8797659 C42.9628761,95.0894659 42.9374583,95.2515044 42.9120401,95.3658863 L37.2501672,95.3658863 C37.3772582,96.0903046 37.6600313,96.6145469 38.098495,96.9386288 C38.5369587,97.2627107 39.0739099,97.4247492 39.7093645,97.4247492 C40.3829465,97.4247492 41.0628728,97.2150523 41.7491639,96.7956522 L42.6832776,98.4923077 C42.200332,98.8227441 41.6633809,99.0832766 41.072408,99.273913 C40.4814352,99.4645494 39.9000029,99.5598662 39.3280936,99.5598662 C38.6545117,99.5598662 38.025421,99.4486633 37.4408027,99.2262542 C36.8561844,99.003845 36.3478282,98.679768 35.9157191,98.2540134 C35.4836099,97.8282587 35.1468239,97.3103709 34.9053512,96.7003344 C34.6638784,96.090298 34.5431438,95.3913083 34.5431438,94.6033445 Z M40.6434783,93.6311037 C40.6434783,93.0846127 40.5227437,92.639801 40.2812709,92.2966555 C40.0397981,91.95351 39.6331132,91.7819398 39.061204,91.7819398 C38.6163857,91.7819398 38.225587,91.9312694 37.888796,92.2299331 C37.552005,92.5285968 37.3327764,92.995649 37.2311037,93.6311037 L40.6434783,93.6311037 Z M48.3832776,94.6033445 C48.3832776,93.8153807 48.5103666,93.1132138 48.7645485,92.4968227 C49.0187304,91.8804317 49.3586935,91.3625439 49.7844482,90.9431438 C50.2102028,90.5237437 50.7026728,90.2028439 51.2618729,89.9804348 C51.821073,89.7580256 52.3993281,89.6468227 52.9966555,89.6468227 C53.5939829,89.6468227 54.1690608,89.7580256 54.7219064,89.9804348 C55.2747519,90.2028439 55.7640447,90.5237437 56.1897993,90.9431438 C56.615554,91.3625439 56.9555171,91.8804317 57.209699,92.4968227 C57.4638809,93.1132138 57.5909699,93.8153807 57.5909699,94.6033445 C57.5909699,95.3913083 57.4638809,96.0934752 57.209699,96.7098662 C56.9555171,97.3262573 56.615554,97.8441451 56.1897993,98.2635452 C55.7640447,98.6829452 55.2747519,99.003845 54.7219064,99.2262542 C54.1690608,99.4486633 53.5939829,99.5598662 52.9966555,99.5598662 C52.3993281,99.5598662 51.821073,99.4486633 51.2618729,99.2262542 C50.7026728,99.003845 50.2102028,98.6829452 49.7844482,98.2635452 C49.3586935,97.8441451 49.0187304,97.3262573 48.7645485,96.7098662 C48.5103666,96.0934752 48.3832776,95.3913083 48.3832776,94.6033445 Z M51.2618729,94.6033445 C51.2618729,95.4294356 51.4048481,96.0839441 51.6908027,96.5668896 C51.9767573,97.0498352 52.4120372,97.2913043 52.9966555,97.2913043 C53.5685647,97.2913043 54.0006674,97.0498352 54.2929766,96.5668896 C54.5852857,96.0839441 54.7314381,95.4294356 54.7314381,94.6033445 C54.7314381,93.7772534 54.5852857,93.1227449 54.2929766,92.6397993 C54.0006674,92.1568538 53.5685647,91.9153846 52.9966555,91.9153846 C52.4120372,91.9153846 51.9767573,92.1568538 51.6908027,92.6397993 C51.4048481,93.1227449 51.2618729,93.7772534 51.2618729,94.6033445 Z M70.8782609,88.1408027 C70.5224062,88.0137117 70.1983292,87.9501672 69.9060201,87.9501672 C69.5628745,87.9501672 69.2959876,88.0550157 69.1053512,88.2647157 C68.9147148,88.4744158 68.819398,88.8207334 68.819398,89.3036789 L68.819398,89.8755853 L70.5160535,89.8755853 L70.5160535,92.067893 L68.819398,92.067893 L68.819398,99.3311037 L66.0170569,99.3311037 L66.0170569,92.067893 L62.7953177,92.067893 L62.7953177,99.3311037 L59.9929766,99.3311037 L59.9929766,92.067893 L58.7347826,92.067893 L58.7347826,89.9899666 L59.9929766,89.8946488 L59.9929766,89.4561873 C59.9929766,88.9732417 60.0596983,88.5157212 60.1931438,88.083612 C60.3265893,87.6515029 60.5362862,87.2765902 60.8222408,86.9588629 C61.1081954,86.6411355 61.4767536,86.3901347 61.9279264,86.2058528 C62.3790992,86.021571 62.9287593,85.9294314 63.5769231,85.9294314 C63.9836141,85.9294314 64.3585267,85.9643809 64.7016722,86.0342809 C65.0448178,86.104181 65.3244136,86.1836116 65.5404682,86.2725753 L65.0257525,88.3505017 C64.8732434,88.2869562 64.7143821,88.2361206 64.5491639,88.1979933 C64.3839457,88.159866 64.1742488,88.1408027 63.9200669,88.1408027 C63.5896305,88.1408027 63.3195663,88.2456511 63.1098662,88.4553512 C62.9001662,88.6650512 62.7953177,88.9923055 62.7953177,89.4371237 L62.7953177,89.8755853 L66.0170569,89.8755853 L66.0170569,89.3799331 C66.0170569,88.8842785 66.0774241,88.414049 66.1981605,87.9692308 C66.3188969,87.5244125 66.5190621,87.1367909 66.7986622,86.8063545 C67.0782623,86.4759181 67.4372888,86.2153856 67.8757525,86.0247492 C68.3142162,85.8341128 68.8511674,85.738796 69.4866221,85.738796 C69.8933131,85.738796 70.2555168,85.7769227 70.5732441,85.8531773 C70.8909715,85.9294318 71.1578585,86.0056852 71.373913,86.0819398 L70.8782609,88.1408027 Z M71.4692308,94.6033445 C71.4692308,93.8407989 71.5963198,93.1513409 71.8505017,92.5349498 C72.1046835,91.9185588 72.4382922,91.3974938 72.8513378,90.9717391 C73.2643833,90.5459845 73.73779,90.2187302 74.2715719,89.9899666 C74.8053538,89.7612029 75.3581911,89.6468227 75.9301003,89.6468227 C76.6036823,89.6468227 77.1914691,89.7612029 77.6934783,89.9899666 C78.1954875,90.2187302 78.6148813,90.5364528 78.9516722,90.9431438 C79.2884632,91.3498348 79.5394641,91.8295959 79.7046823,92.3824415 C79.8699005,92.935287 79.9525084,93.5357827 79.9525084,94.1839465 C79.9525084,94.4381284 79.9397995,94.6700658 79.9143813,94.8797659 C79.8889631,95.0894659 79.8635453,95.2515044 79.8381271,95.3658863 L74.1762542,95.3658863 C74.3033451,96.0903046 74.5861182,96.6145469 75.0245819,96.9386288 C75.4630457,97.2627107 75.9999968,97.4247492 76.6354515,97.4247492 C77.3090335,97.4247492 77.9889598,97.2150523 78.6752508,96.7956522 L79.6093645,98.4923077 C79.126419,98.8227441 78.5894678,99.0832766 77.998495,99.273913 C77.4075221,99.4645494 76.8260898,99.5598662 76.2541806,99.5598662 C75.5805986,99.5598662 74.9515079,99.4486633 74.3668896,99.2262542 C73.7822713,99.003845 73.2739152,98.679768 72.841806,98.2540134 C72.4096968,97.8282587 72.0729109,97.3103709 71.8314381,96.7003344 C71.5899653,96.090298 71.4692308,95.3913083 71.4692308,94.6033445 Z M77.5695652,93.6311037 C77.5695652,93.0846127 77.4488306,92.639801 77.2073579,92.2966555 C76.9658851,91.95351 76.5592002,91.7819398 75.987291,91.7819398 C75.5424727,91.7819398 75.1516739,91.9312694 74.8148829,92.2299331 C74.478092,92.5285968 74.2588634,92.995649 74.1571906,93.6311037 L77.5695652,93.6311037 Z M81.89699,89.8755853 L84.1846154,89.8755853 L84.3752508,91.5341137 L84.451505,91.5341137 C84.7946505,90.8859499 85.2076899,90.4093661 85.6906355,90.1043478 C86.173581,89.7993296 86.6565193,89.6468227 87.1394649,89.6468227 C87.4063558,89.6468227 87.6255844,89.6627089 87.7971572,89.6944816 C87.96873,89.7262543 88.124414,89.7739127 88.264214,89.8374582 L87.806689,92.2585284 C87.6287617,92.2076921 87.4635459,92.1695653 87.3110368,92.1441472 C87.1585277,92.118729 86.980603,92.1060201 86.7772575,92.1060201 C86.4214029,92.1060201 86.0496675,92.2331091 85.6620401,92.487291 C85.2744128,92.7414728 84.953513,93.1926389 84.6993311,93.8408027 L84.6993311,99.3311037 L81.89699,99.3311037 L81.89699,89.8755853 Z" id="Learn-about-our-Serv" fill="#4990E2"></path>
            <path d="M18.5618729,126.923077 L260.50108,126.923077" id="Line" stroke="#B3B4B7" stroke-width="5" stroke-linecap="square"></path>
            <path d="M18.5618729,138.963211 L150.015317,138.963211" id="Line" stroke="#B3B4B7" stroke-width="5" stroke-linecap="square"></path>
            <path d="M336.120401,478.595318 L359.172798,332.029444 C359.363137,326.709425 362.716524,323.232859 369.232959,321.599747 C375.749394,319.966635 396.698438,312.720105 432.080092,299.860156 C442.619308,294.576812 449.103664,289.697971 451.533158,285.223632 C455.1774,278.512124 463.479599,264.584289 457.506379,253.585053 C453.524232,246.252229 451.465791,239.461977 451.331057,233.214299 C446.906211,233.952112 443.572072,233.427876 441.328639,231.641593 C437.96349,228.962167 431.400005,202.05465 431.740048,196.970861 C432.080092,191.887072 426.777335,153.892946 434.052987,142.055581 C441.328639,130.218215 452.540457,112.064136 455.023418,113.733923 C457.506379,115.40371 471.714431,101.68298 477.9892,100.081149 C484.263968,98.4793185 491.366391,99.4986652 493.721033,99.7899071 C495.290794,99.9840684 497.178144,98.4933413 499.383081,95.3177258 L514.06912,100.611857 C524.045873,102.344207 529.560356,104.964305 530.612566,108.472152 C532.190882,113.733923 544.814203,128.257186 546.844841,140.774116 C548.875479,153.291046 552.708991,167.52954 549.776916,171.652231 C547.822199,174.400692 547.867111,179.167351 549.91165,185.952209 C553.568724,189.289625 555.031554,193.28719 554.300139,197.944903 C553.203017,204.931473 547.062982,218.309185 546.953912,222.946404 C546.881198,226.037883 544.422832,228.689263 539.578813,230.900544 C539.022767,238.106084 538.243233,243.688221 537.240211,247.646954 C535.735678,253.585053 530.92053,266.263784 534.080371,272.360448 C537.240211,278.457112 535.273731,289.980584 551.894169,297.226035 C562.974461,302.056336 578.368277,307.877938 598.075617,314.690842 C599.3588,422.502126 599.3588,476.772359 598.075617,477.501543 C596.792433,478.230726 509.474028,478.595318 336.120401,478.595318 Z" id="Path-3" stroke="#979797" stroke-width="2" fill="#FFFFFF"></path>
            <path d="M449.104508,133.725652 C458.6129,124.835477 473.982234,120.462695 493.226782,121.574828 C512.471331,122.686961 522.419213,120.820781 528.482257,131.429081 C534.5453,142.037381 534.795521,157.800055 535.31521,163.006075 C535.8349,168.212096 539.703699,198.181146 539.694075,202.343896 C539.684451,206.506647 527.208697,255.134047 518.017893,260.019856 C508.827089,264.905665 504.005526,276.360976 490.105438,272.057057 C476.205349,267.753138 451.953176,239.753561 448.709929,225.709012 C445.466682,211.664463 439.666691,203.111715 442.018126,189.865974 C444.36956,176.620232 447.096325,169.389648 448.100417,163.212663 C449.104508,157.035679 450.602625,159.084344 449.351521,149.147456 C448.100417,139.210567 439.596116,142.615828 449.104508,133.725652 Z" id="Path-4" stroke="#979797" stroke-width="2" fill="#FFFFFF"></path>
            <path d="M460.213133,274.916388 L492.613523,298.312822 L533.239122,274.916388 L536.979602,290.889389 L528.064683,313.674214 C511.937202,416.985271 503.967561,467.763838 504.155761,466.009914 C504.343962,464.255991 487.46261,406.999988 453.511706,294.241907 L460.213133,274.916388 Z" id="Path-8" stroke="#979797" stroke-width="2" fill="#FFFFFF"></path>
            <g id="Group-11" transform="translate(18.060201, 236.789298)">
                <path d="M42.6421405,6.52173913 L140.095766,6.52173913" id="Line" stroke="#9B9B9B" stroke-width="7" stroke-linecap="square"></path>
                <path d="M41.638796,27.5919732 L267.447039,27.5919732" id="Line" stroke="#D7D9D9" stroke-width="5" stroke-linecap="square"></path>
                <path d="M41.638796,40.6354515 L129.93311,40.6354515" id="Line" stroke="#D7D9D9" stroke-width="5" stroke-linecap="square"></path>
                <circle id="Oval-2" fill="#4990E2" cx="15.0501672" cy="15.0501672" r="15.0501672"></circle>
            </g>
            <g id="Group-11" transform="translate(18.060201, 313.043478)">
                <path d="M42.6421405,6.52173913 L140.095766,6.52173913" id="Line" stroke="#9B9B9B" stroke-width="7" stroke-linecap="square"></path>
                <path d="M41.638796,27.5919732 L267.447039,27.5919732" id="Line" stroke="#D7D9D9" stroke-width="5" stroke-linecap="square"></path>
                <path d="M41.638796,40.6354515 L129.93311,40.6354515" id="Line" stroke="#D7D9D9" stroke-width="5" stroke-linecap="square"></path>
                <circle id="Oval-2" fill="#4990E2" cx="15.0501672" cy="15.0501672" r="15.0501672"></circle>
            </g>
            <g id="Group-11" transform="translate(18.060201, 390.301003)">
                <path d="M42.6421405,6.52173913 L140.095766,6.52173913" id="Line" stroke="#9B9B9B" stroke-width="7" stroke-linecap="square"></path>
                <path d="M41.638796,27.5919732 L267.447039,27.5919732" id="Line" stroke="#D7D9D9" stroke-width="5" stroke-linecap="square"></path>
                <path d="M41.638796,40.6354515 L129.93311,40.6354515" id="Line" stroke="#D7D9D9" stroke-width="5" stroke-linecap="square"></path>
                <circle id="Oval-2" fill="#4990E2" cx="15.0501672" cy="15.0501672" r="15.0501672"></circle>
            </g>
        </g>
    </g>
</svg>