<?xml version="1.0" encoding="UTF-8"?>
<svg width="600px" height="539px" viewBox="0 0 600 539" version="1.1" xmlns="http://www.w3.org/2000/svg" xmlns:xlink="http://www.w3.org/1999/xlink">
    <!-- Generator: Sketch 44.1 (41455) - http://www.bohemiancoding.com/sketch -->
    <title>services17</title>
    <desc>Created with Sketch.</desc>
    <defs>
        <rect id="path-1" x="0" y="0.684719698" width="169.59592" height="182.537074"></rect>
        <rect id="path-2" x="12.4202064" y="34.4132461" width="16.4772729" height="1.52377699" rx="0.761888495"></rect>
        <rect id="path-3" x="0" y="0.684719698" width="169.59592" height="182.537074"></rect>
        <rect id="path-4" x="396.758509" y="105.947881" width="169.59592" height="182.537074"></rect>
        <rect id="path-5" x="30.1458671" y="309.095653" width="169.59592" height="182.537074"></rect>
        <rect id="path-6" x="212.965964" y="309.095653" width="169.59592" height="182.537074"></rect>
        <rect id="path-7" x="396.758509" y="309.095653" width="169.59592" height="182.537074"></rect>
    </defs>
    <g id="Services" stroke="none" stroke-width="1" fill="none" fill-rule="evenodd">
        <g id="17">
            <rect id="Rectangle-16" fill="#F8F8F8" x="0" y="0" width="600" height="538.487395"></rect>
            <path d="M243.897569,12.0653535 C243.202555,12.0653535 242.5681,11.9365919 241.994187,11.6790649 C241.420274,11.4215379 240.92798,11.0516909 240.517289,10.5695127 C240.106599,10.0873345 239.788056,9.50105839 239.56165,8.81066687 C239.335244,8.12027534 239.222042,7.3367475 239.222042,6.46005985 C239.222042,5.58337219 239.335244,4.80258396 239.56165,4.11767174 C239.788056,3.43275951 240.106599,2.85744186 240.517289,2.39170155 C240.92798,1.92596123 241.420274,1.56981221 241.994187,1.32324381 C242.5681,1.07667541 243.202555,0.953393056 243.897569,0.953393056 C244.592583,0.953393056 245.227037,1.07667541 245.800951,1.32324381 C246.374864,1.56981221 246.867158,1.92870084 247.277848,2.39992045 C247.688539,2.87114007 248.007082,3.44919732 248.233488,4.13410955 C248.459894,4.81902178 248.573096,5.59433079 248.573096,6.46005985 C248.573096,7.3367475 248.459894,8.12027534 248.233488,8.81066687 C248.007082,9.50105839 247.688539,10.0873345 247.277848,10.5695127 C246.867158,11.0516909 246.374864,11.4215379 245.800951,11.6790649 C245.227037,11.9365919 244.592583,12.0653535 243.897569,12.0653535 Z M243.897569,9.97775147 C244.603114,9.97775147 245.161223,9.66269657 245.571913,9.03257732 C245.982603,8.40245807 246.187945,7.54496082 246.187945,6.46005985 C246.187945,5.38611747 245.982603,4.54779748 245.571913,3.94507472 C245.161223,3.34235195 244.603114,3.04099509 243.897569,3.04099509 C243.192024,3.04099509 242.633915,3.34235195 242.223225,3.94507472 C241.812535,4.54779748 241.607193,5.38611747 241.607193,6.46005985 C241.607193,7.54496082 241.812535,8.40245807 242.223225,9.03257732 C242.633915,9.66269657 243.192024,9.97775147 243.897569,9.97775147 Z M250.24744,3.71494536 L252.569407,3.71494536 L252.569407,8.46547283 C252.569407,9.05723699 252.648385,9.46269895 252.806343,9.68187087 C252.964301,9.90104278 253.211764,10.0106271 253.548741,10.0106271 C253.843595,10.0106271 254.091059,9.93939729 254.291138,9.79693555 C254.491218,9.6544738 254.707091,9.42434674 254.938762,9.10654747 L254.938762,3.71494536 L257.26073,3.71494536 L257.26073,11.8680998 L255.365246,11.8680998 L255.191493,10.7338908 L255.144106,10.7338908 C254.80713,11.1503174 254.446465,11.4763308 254.062101,11.7119406 C253.677737,11.9475504 253.217034,12.0653535 252.679977,12.0653535 C251.827005,12.0653535 251.208347,11.7749551 250.823983,11.1941495 C250.439619,10.6133439 250.24744,9.80789924 250.24744,8.77779124 L250.24744,3.71494536 Z M259.298375,3.71494536 L261.193859,3.71494536 L261.351816,5.14503494 L261.414998,5.14503494 C261.699322,4.58614656 262.041559,4.17520539 262.441719,3.91219909 C262.841879,3.6491928 263.242032,3.51769162 263.642192,3.51769162 C263.863333,3.51769162 264.044982,3.53138966 264.187144,3.55878615 C264.329306,3.58618264 264.458302,3.62727676 264.574138,3.68206974 L264.195041,5.76967177 C264.047614,5.72583739 263.910719,5.6929621 263.784353,5.6710449 C263.657987,5.64912771 263.510562,5.63816928 263.342074,5.63816928 C263.047219,5.63816928 262.739206,5.74775359 262.418025,5.96692551 C262.096845,6.18609742 261.830953,6.57512173 261.620343,7.13401011 L261.620343,11.8680998 L259.298375,11.8680998 L259.298375,3.71494536 Z M269.723536,8.8599803 C270.092104,9.18873817 270.500155,9.45721974 270.947702,9.66543305 C271.39525,9.87364637 271.834892,9.97775147 272.266643,9.97775147 C272.751047,9.97775147 273.111712,9.8846048 273.348649,9.69830868 C273.585585,9.51201255 273.704052,9.25996863 273.704052,8.94216936 C273.704052,8.77779042 273.669828,8.63533081 273.60138,8.51478626 C273.532931,8.39424171 273.432893,8.28739701 273.301262,8.19424894 C273.16963,8.10110088 273.011675,8.01343343 272.827391,7.93124396 L272.219256,7.66002007 L270.876622,7.06825887 C270.613359,6.95867291 270.357998,6.8162133 270.11053,6.64087577 C269.863063,6.46553824 269.641926,6.26006765 269.447111,6.02445785 C269.252297,5.78884804 269.096974,5.51488726 268.981138,5.20256728 C268.865302,4.89024731 268.807385,4.5368379 268.807385,4.14232845 C268.807385,3.70398463 268.896893,3.29030384 269.075912,2.9012737 C269.254931,2.51224355 269.50766,2.17253218 269.834106,1.8821294 C270.160552,1.59172661 270.547543,1.36433916 270.99509,1.19996023 C271.442637,1.03558129 271.934931,0.953393056 272.471987,0.953393056 C273.072227,0.953393056 273.66456,1.0739358 274.249003,1.31502491 C274.833447,1.55611401 275.346802,1.90678381 275.789084,2.36704483 L274.604407,3.89576128 C274.26743,3.62179639 273.930459,3.41084659 273.593482,3.26290555 C273.256505,3.11496451 272.882678,3.04099509 272.471987,3.04099509 C272.071828,3.04099509 271.753284,3.12592294 271.516348,3.29578117 C271.279411,3.4656394 271.160944,3.70398528 271.160944,4.01082596 C271.160944,4.1752049 271.200433,4.3149249 271.279412,4.42999015 C271.358391,4.5450554 271.46896,4.6491605 271.611122,4.74230857 C271.753284,4.83545663 271.919137,4.92312408 272.108686,5.00531355 C272.298236,5.08750301 272.503578,5.17791007 272.724719,5.27653743 L274.051557,5.83542302 C274.683388,6.09842931 275.180948,6.46005755 275.544251,6.92031856 C275.907554,7.38057958 276.089202,7.98877252 276.089202,8.74491562 C276.089202,9.19421804 276.002327,9.61885726 275.828573,10.018846 C275.65482,10.4188347 275.402091,10.7695045 275.07038,11.0708659 C274.738668,11.3722273 274.330617,11.6133128 273.846213,11.7941296 C273.361809,11.9749464 272.814231,12.0653535 272.203461,12.0653535 C271.529507,12.0653535 270.858197,11.9365919 270.189509,11.6790649 C269.520821,11.4215379 268.923223,11.0352532 268.396697,10.5201992 L269.723536,8.8599803 Z M277.194901,7.79152256 C277.194901,7.13400682 277.300205,6.53951193 277.510815,6.00802004 C277.721426,5.47652815 277.997848,5.02723246 278.340089,4.66011951 C278.682331,4.29300655 279.074587,4.01082695 279.516869,3.81357223 C279.959151,3.6163175 280.417221,3.51769162 280.891095,3.51769162 C281.449212,3.51769162 281.936241,3.6163175 282.352197,3.81357223 C282.768152,4.01082695 283.115654,4.28478773 283.394713,4.63546279 C283.673772,4.98613785 283.881746,5.39981863 284.018643,5.87651755 C284.15554,6.35321646 284.223987,6.87100234 284.223987,7.42989072 C284.223987,7.64906263 284.213457,7.849054 284.192396,8.02987083 C284.171335,8.21068766 284.150274,8.35040766 284.129213,8.44903502 L279.43789,8.44903502 C279.543196,9.07367497 279.777496,9.52571026 280.140799,9.80515445 C280.504102,10.0845986 280.94901,10.2243186 281.475536,10.2243186 C282.033653,10.2243186 282.597027,10.0435045 283.165675,9.68187087 L283.939664,11.1448361 C283.539505,11.4297596 283.094597,11.6544074 282.604928,11.8187863 C282.115259,11.9831653 281.633495,12.0653535 281.159622,12.0653535 C280.601504,12.0653535 280.080251,11.9694672 279.595847,11.7776918 C279.111444,11.5859164 278.690229,11.3064764 278.332192,10.9393634 C277.974154,10.5722505 277.695099,10.1256944 277.495019,9.59968181 C277.29494,9.07366922 277.194901,8.4709555 277.194901,7.79152256 Z M282.249525,6.95319419 C282.249525,6.48197457 282.149486,6.09842948 281.949406,5.8025474 C281.749327,5.50666531 281.412355,5.35872649 280.938482,5.35872649 C280.569914,5.35872649 280.246105,5.48748806 279.967046,5.74501506 C279.687988,6.00254205 279.506339,6.4052644 279.422095,6.95319419 L282.249525,6.95319419 Z M285.835148,3.71494536 L287.730632,3.71494536 L287.888589,5.14503494 L287.951772,5.14503494 C288.236096,4.58614656 288.578333,4.17520539 288.978492,3.91219909 C289.378652,3.6491928 289.778806,3.51769162 290.178965,3.51769162 C290.400106,3.51769162 290.581755,3.53138966 290.723917,3.55878615 C290.866079,3.58618264 290.995076,3.62727676 291.110912,3.68206974 L290.731815,5.76967177 C290.584388,5.72583739 290.447493,5.6929621 290.321127,5.6710449 C290.19476,5.64912771 290.047335,5.63816928 289.878847,5.63816928 C289.583993,5.63816928 289.27598,5.74775359 288.954799,5.96692551 C288.633618,6.18609742 288.367726,6.57512173 288.157116,7.13401011 L288.157116,11.8680998 L285.835148,11.8680998 L285.835148,3.71494536 Z M291.284664,3.71494536 L293.622428,3.71494536 L294.633352,7.56139321 C294.738657,7.96686125 294.841329,8.38054203 294.941368,8.80244796 C295.041408,9.22435389 295.144079,9.64899311 295.249385,10.0763783 L295.312567,10.0763783 C295.407342,9.64899311 295.504748,9.22435389 295.604788,8.80244796 C295.704828,8.38054203 295.807499,7.96686125 295.912804,7.56139321 L296.939524,3.71494536 L299.166718,3.71494536 L296.607815,11.8680998 L293.922546,11.8680998 L291.284664,3.71494536 Z M301.536073,2.51498513 C301.146443,2.51498513 300.825267,2.397182 300.572535,2.16157219 C300.319802,1.92596238 300.193438,1.62186591 300.193438,1.24927366 C300.193438,0.876681407 300.319802,0.575324547 300.572535,0.345194038 C300.825267,0.115063529 301.146443,0 301.536073,0 C301.936232,0 302.260041,0.115063529 302.507508,0.345194038 C302.754975,0.575324547 302.878707,0.876681407 302.878707,1.24927366 C302.878707,1.62186591 302.754975,1.92596238 302.507508,2.16157219 C302.260041,2.397182 301.936232,2.51498513 301.536073,2.51498513 Z M300.382987,3.71494536 L302.704954,3.71494536 L302.704954,11.8680998 L300.382987,11.8680998 L300.382987,3.71494536 Z M304.284524,7.79152256 C304.284524,7.11208963 304.395093,6.5066363 304.616234,5.97514441 C304.837375,5.44365252 305.134857,4.99709645 305.508691,4.63546279 C305.882524,4.27382913 306.316901,3.99712874 306.811836,3.80535332 C307.30677,3.6135779 307.822758,3.51769162 308.359814,3.51769162 C308.844218,3.51769162 309.281228,3.60261946 309.670857,3.7724777 C310.060486,3.94233593 310.386928,4.16972338 310.650191,4.45464687 L309.591879,5.9504877 C309.223311,5.63268842 308.860013,5.47379117 308.501976,5.47379117 C307.933328,5.47379117 307.485787,5.68200136 307.159341,6.098428 C306.832895,6.51485463 306.669675,7.07921385 306.669675,7.79152256 C306.669675,8.50383128 306.835528,9.06819049 307.167239,9.48461713 C307.49895,9.90104377 307.917532,10.109254 308.422997,10.109254 C308.707321,10.109254 308.965315,10.0489826 309.196986,9.92843804 C309.428658,9.80789348 309.639265,9.67091309 309.828814,9.51749275 L310.76076,11.0462092 C310.381662,11.3968843 309.960447,11.6544074 309.497105,11.8187863 C309.033762,11.9831653 308.586221,12.0653535 308.15447,12.0653535 C307.606883,12.0653535 307.098793,11.9694672 306.630185,11.7776918 C306.161577,11.5859164 305.753526,11.309216 305.406019,10.9475823 C305.058512,10.5859487 304.784722,10.1393926 304.584642,9.60790072 C304.384562,9.07640883 304.284524,8.4709555 304.284524,7.79152256 Z M311.661115,7.79152256 C311.661115,7.13400682 311.766419,6.53951193 311.977029,6.00802004 C312.18764,5.47652815 312.464062,5.02723246 312.806303,4.66011951 C313.148545,4.29300655 313.540801,4.01082695 313.983083,3.81357223 C314.425365,3.6163175 314.883435,3.51769162 315.357309,3.51769162 C315.915426,3.51769162 316.402455,3.6163175 316.818411,3.81357223 C317.234366,4.01082695 317.581868,4.28478773 317.860927,4.63546279 C318.139986,4.98613785 318.34796,5.39981863 318.484857,5.87651755 C318.621754,6.35321646 318.690201,6.87100234 318.690201,7.42989072 C318.690201,7.64906263 318.679671,7.849054 318.65861,8.02987083 C318.637549,8.21068766 318.616488,8.35040766 318.595427,8.44903502 L313.904104,8.44903502 C314.00941,9.07367497 314.24371,9.52571026 314.607013,9.80515445 C314.970316,10.0845986 315.415224,10.2243186 315.94175,10.2243186 C316.499867,10.2243186 317.063241,10.0435045 317.631889,9.68187087 L318.405878,11.1448361 C318.005719,11.4297596 317.560811,11.6544074 317.071142,11.8187863 C316.581473,11.9831653 316.099709,12.0653535 315.625836,12.0653535 C315.067718,12.0653535 314.546465,11.9694672 314.062061,11.7776918 C313.577658,11.5859164 313.156443,11.3064764 312.798406,10.9393634 C312.440368,10.5722505 312.161313,10.1256944 311.961234,9.59968181 C311.761154,9.07366922 311.661115,8.4709555 311.661115,7.79152256 Z M316.715739,6.95319419 C316.715739,6.48197457 316.6157,6.09842948 316.41562,5.8025474 C316.215541,5.50666531 315.878569,5.35872649 315.404696,5.35872649 C315.036128,5.35872649 314.712319,5.48748806 314.43326,5.74501506 C314.154202,6.00254205 313.972553,6.4052644 313.888309,6.95319419 L316.715739,6.95319419 Z M320.648868,9.41886589 C321.006905,9.70378937 321.349142,9.91747878 321.675588,10.0599405 C322.002034,10.2024023 322.33374,10.2736321 322.670717,10.2736321 C323.018224,10.2736321 323.270953,10.2133607 323.428911,10.0928161 C323.586868,9.9722716 323.665846,9.80241591 323.665846,9.583244 C323.665846,9.45174085 323.621092,9.33393771 323.531583,9.22983105 C323.442073,9.1257244 323.320974,9.02983812 323.168282,8.94216936 C323.015589,8.85450059 322.844471,8.77505196 322.654921,8.70382109 C322.465372,8.63259022 322.27056,8.55314159 322.070481,8.46547283 C321.828279,8.36684547 321.58608,8.25178194 321.343878,8.12027879 C321.101676,7.98877564 320.880539,7.82713878 320.680459,7.63536336 C320.480379,7.44358793 320.317159,7.21894009 320.190792,6.96141309 C320.064426,6.70388609 320.001244,6.40526884 320.001244,6.06555238 C320.001244,5.69296012 320.072324,5.34776954 320.214486,5.02997026 C320.356648,4.71217099 320.559357,4.44368942 320.82262,4.22451751 C321.085883,4.0053456 321.401794,3.8327503 321.770362,3.70672645 C322.13893,3.5807026 322.549614,3.51769162 323.002427,3.51769162 C323.602666,3.51769162 324.129184,3.62453633 324.581997,3.83822894 C325.034809,4.05192156 325.429697,4.29026744 325.766674,4.55327374 L324.724158,5.99980113 C324.439834,5.78062922 324.160779,5.61077353 323.886986,5.49022898 C323.613192,5.36968443 323.339403,5.30941306 323.06561,5.30941306 C322.475901,5.30941306 322.18105,5.52310247 322.18105,5.9504877 C322.18105,6.08199085 322.223172,6.19431477 322.307416,6.28746283 C322.39166,6.38061089 322.504862,6.46553873 322.647024,6.5422489 C322.789186,6.61895907 322.952406,6.69292849 323.13669,6.76415936 C323.320974,6.83539023 323.513153,6.90935964 323.713233,6.98606981 C323.965966,7.08469717 324.216062,7.19702109 324.463529,7.32304494 C324.710996,7.44906879 324.937399,7.60522644 325.142744,7.79152256 C325.348089,7.97781869 325.513942,8.20520614 325.640308,8.47369173 C325.766675,8.74217733 325.829857,9.06271144 325.829857,9.4353037 C325.829857,9.80789595 325.761409,10.1530865 325.624513,10.4708858 C325.487616,10.7886851 325.282274,11.0653855 325.00848,11.3009953 C324.734687,11.5366051 324.397715,11.7228984 323.997556,11.8598809 C323.597396,11.9968633 323.13406,12.0653535 322.607534,12.0653535 C322.091539,12.0653535 321.562388,11.9612484 321.020067,11.7530351 C320.477745,11.5448218 320.006511,11.270861 319.606352,10.9311445 L320.648868,9.41886589 Z" id="Our-Services" fill="#FFFFFF"></path>
            <g id="Group-22" transform="translate(30.145867, 104.975882)">
                <g id="Rectangle-15">
                    <use fill="#FFFFFF" fill-rule="evenodd" xlink:href="#path-1"></use>
                    <rect stroke-opacity="0.337720788" stroke="#979797" stroke-width="1" x="0.5" y="1.1847197" width="168.59592" height="181.537074"></rect>
                </g>
                <g id="Group-17" transform="translate(19.448947, 30.816686)">
                    <rect id="Rectangle-3" stroke="#979797" x="1.03531097" y="0.858253733" width="39.4442153" height="29.4755398" rx="2"></rect>
                    <path d="M1.28427792,20.0575904 L40.2305593,20.0575904" id="Line" stroke="#979797" stroke-linecap="square"></path>
                    <path d="M15.7512551,29.1654301 L15.7512551,33.736761" id="Line" stroke="#979797" stroke-linecap="square"></path>
                    <path d="M25.8163724,29.1654301 L25.8163724,33.736761" id="Line" stroke="#979797" stroke-linecap="square"></path>
                    <g id="Rectangle-4">
                        <use fill="#D8D8D8" fill-rule="evenodd" xlink:href="#path-2"></use>
                        <rect stroke="#979797" stroke-width="1" x="12.9202064" y="34.9132461" width="15.4772729" height="1" rx="0.5"></rect>
                    </g>
                    <ellipse id="Oval" fill="#D8D8D8" cx="21.092437" cy="27.1621952" rx="1" ry="1"></ellipse>
                </g>
                <path d="M24.7442222,84.3886469 L69.7802858,84.3886469" id="Line" stroke="#4990E2" stroke-width="7" stroke-linecap="square"></path>
                <path d="M23.7717749,107.390898 L109.513511,107.390898" id="Line" stroke="#D7D9D9" stroke-width="4" stroke-linecap="square"></path>
                <path d="M23.7717749,117.110887 L109.513511,117.110887" id="Line" stroke="#D7D9D9" stroke-width="4" stroke-linecap="square"></path>
                <path d="M23.7717749,127.802875 L109.513511,127.802875" id="Line" stroke="#D7D9D9" stroke-width="4" stroke-linecap="square"></path>
                <path d="M23.5098865,148.225945 L24.1011345,148.225945 C24.4019464,148.225945 24.6314417,148.162442 24.7896272,148.035434 C24.9478128,147.908425 25.0269044,147.720507 25.0269044,147.471674 C25.0269044,147.222841 24.9478128,147.049179 24.7896272,146.950683 C24.6314417,146.852187 24.4019464,146.802939 24.1011345,146.802939 L23.5098865,146.802939 L23.5098865,148.225945 Z M25.1124797,150.963094 L24.1400324,149.135736 L23.5098865,149.135736 L23.5098865,150.963094 L22.3662885,150.963094 L22.3662885,145.893148 L24.1944895,145.893148 C24.4641829,145.893148 24.7170166,145.919068 24.9529984,145.970908 C25.1889801,146.022748 25.3951369,146.109579 25.5714749,146.231404 C25.7478129,146.353228 25.8878439,146.515226 25.9915721,146.717403 C26.0953004,146.91958 26.1471637,147.171001 26.1471637,147.471674 C26.1471637,147.844924 26.0654789,148.152072 25.902107,148.393129 C25.738735,148.634186 25.5196124,148.814328 25.2447326,148.933561 L26.3961102,150.963094 L25.1124797,150.963094 Z M27.1585089,145.893148 L30.332577,145.893148 L30.332577,146.857371 L28.302107,146.857371 L28.302107,147.876026 L30.0291734,147.876026 L30.0291734,148.832473 L28.302107,148.832473 L28.302107,149.998871 L30.4103728,149.998871 L30.4103728,150.963094 L27.1585089,150.963094 L27.1585089,145.893148 Z M33.5688817,148.863577 L33.452188,148.397017 C33.3795782,148.143 33.3095627,147.873435 33.2421394,147.588314 C33.174716,147.303193 33.1072937,147.028444 33.0398703,146.764059 L33.008752,146.764059 C32.9465151,147.033628 32.8829825,147.309673 32.8181524,147.592202 C32.7533222,147.874731 32.6846033,148.143 32.6119935,148.397017 L32.4875203,148.863577 L33.5688817,148.863577 Z M33.802269,149.757816 L32.2541329,149.757816 L31.9429498,150.963094 L30.776013,150.963094 L32.363047,145.893148 L33.7400324,145.893148 L35.3270665,150.963094 L34.1134522,150.963094 L33.802269,149.757816 Z M35.8794165,145.893148 L37.310859,145.893148 C37.6998399,145.893148 38.0499174,145.942396 38.3611021,146.040892 C38.6722868,146.139388 38.939383,146.291019 39.1623987,146.495787 C39.3854144,146.700556 39.5565634,146.961049 39.6758509,147.277275 C39.7951384,147.5935 39.8547812,147.969336 39.8547812,148.404793 C39.8547812,148.840251 39.7951384,149.218679 39.6758509,149.540088 C39.5565634,149.861497 39.3880076,150.127174 39.1701783,150.337127 C38.952349,150.54708 38.6917357,150.703894 38.3883306,150.807575 C38.0849255,150.911255 37.7465173,150.963094 37.3730956,150.963094 L35.8794165,150.963094 L35.8794165,145.893148 Z M37.2408428,150.037751 C37.4586721,150.037751 37.6557528,150.00924 37.8320908,149.952216 C38.0084288,149.895191 38.1588324,149.803176 38.2833063,149.676168 C38.4077802,149.549159 38.505024,149.381977 38.5750405,149.174616 C38.6450571,148.967256 38.6800648,148.71065 38.6800648,148.404793 C38.6800648,148.10412 38.6450571,147.851403 38.5750405,147.646634 C38.505024,147.441865 38.4077802,147.278571 38.2833063,147.156747 C38.1588324,147.034922 38.0084288,146.948091 37.8320908,146.896251 C37.6557528,146.844411 37.4586721,146.818491 37.2408428,146.818491 L37.0230146,146.818491 L37.0230146,150.037751 L37.2408428,150.037751 Z M42.4376013,145.893148 L43.6512156,145.893148 L44.4991896,148.171514 L44.8025932,149.057977 L44.8337115,149.057977 L45.1371151,148.171514 L45.9617504,145.893148 L47.1675851,145.893148 L47.1675851,150.963094 L46.1017828,150.963094 L46.1017828,149.104632 C46.1017828,148.980216 46.1069692,148.842842 46.117342,148.692505 C46.1277148,148.542168 46.1406806,148.390538 46.1562399,148.237609 C46.1717991,148.084681 46.1873581,147.934347 46.2029173,147.786602 C46.2184766,147.638857 46.2340356,147.502779 46.2495948,147.378362 L46.2184765,147.378362 L45.7983793,148.552537 L45.0204214,150.519863 L44.5614263,150.519863 L43.7834684,148.552537 L43.3789303,147.378362 L43.347812,147.378362 C43.3633712,147.502779 43.3789302,147.638857 43.3944895,147.786602 C43.4100487,147.934347 43.4243111,148.084681 43.4372771,148.237609 C43.4502432,148.390538 43.4619124,148.542168 43.4722853,148.692505 C43.4826581,148.842842 43.4878444,148.980216 43.4878444,149.104632 L43.4878444,150.963094 L42.4376013,150.963094 L42.4376013,145.893148 Z M50.4272285,151.056406 C50.0849254,151.056406 49.7724487,150.995495 49.4897893,150.87367 C49.2071299,150.751846 48.9646688,150.576888 48.7623987,150.348791 C48.5601286,150.120694 48.403242,149.843353 48.2917342,149.51676 C48.1802263,149.190167 48.1244733,148.819515 48.1244733,148.404793 C48.1244733,147.990072 48.1802263,147.620716 48.2917342,147.296714 C48.403242,146.972713 48.5601286,146.700556 48.7623987,146.480235 C48.9646688,146.259915 49.2071299,146.091436 49.4897893,145.974796 C49.7724487,145.858156 50.0849254,145.799836 50.4272285,145.799836 C50.7695317,145.799836 51.0820083,145.858156 51.3646677,145.974796 C51.6473272,146.091436 51.8897883,146.261211 52.0920583,146.484123 C52.2943284,146.707036 52.451215,146.980489 52.5627229,147.30449 C52.6742307,147.628492 52.7299838,147.995256 52.7299838,148.404793 C52.7299838,148.819515 52.6742307,149.190167 52.5627229,149.51676 C52.451215,149.843353 52.2943284,150.120694 52.0920583,150.348791 C51.8897883,150.576888 51.6473272,150.751846 51.3646677,150.87367 C51.0820083,150.995495 50.7695317,151.056406 50.4272285,151.056406 Z M50.4272285,150.068855 C50.7747181,150.068855 51.0495938,149.919817 51.2518639,149.621736 C51.4541339,149.323655 51.5552674,148.918011 51.5552674,148.404793 C51.5552674,147.896759 51.4541339,147.500188 51.2518639,147.215067 C51.0495938,146.929945 50.7747181,146.787387 50.4272285,146.787387 C50.0797389,146.787387 49.8048632,146.929945 49.6025932,147.215067 C49.4003231,147.500188 49.2991896,147.896759 49.2991896,148.404793 C49.2991896,148.918011 49.4003231,149.323655 49.6025932,149.621736 C49.8048632,149.919817 50.0797389,150.068855 50.4272285,150.068855 Z M54.83047,148.225945 L55.421718,148.225945 C55.7225299,148.225945 55.9520251,148.162442 56.1102107,148.035434 C56.2683963,147.908425 56.3474878,147.720507 56.3474878,147.471674 C56.3474878,147.222841 56.2683963,147.049179 56.1102107,146.950683 C55.9520251,146.852187 55.7225299,146.802939 55.421718,146.802939 L54.83047,146.802939 L54.83047,148.225945 Z M56.4330632,150.963094 L55.4606159,149.135736 L54.83047,149.135736 L54.83047,150.963094 L53.686872,150.963094 L53.686872,145.893148 L55.5150729,145.893148 C55.7847663,145.893148 56.0376001,145.919068 56.2735818,145.970908 C56.5095636,146.022748 56.7157204,146.109579 56.8920583,146.231404 C57.0683963,146.353228 57.2084274,146.515226 57.3121556,146.717403 C57.4158838,146.91958 57.4677472,147.171001 57.4677472,147.471674 C57.4677472,147.844924 57.3860624,148.152072 57.2226904,148.393129 C57.0593185,148.634186 56.8401959,148.814328 56.565316,148.933561 L57.7166937,150.963094 L56.4330632,150.963094 Z M58.4790924,145.893148 L61.6531605,145.893148 L61.6531605,146.857371 L59.6226904,146.857371 L59.6226904,147.876026 L61.3497569,147.876026 L61.3497569,148.832473 L59.6226904,148.832473 L59.6226904,149.998871 L61.7309562,149.998871 L61.7309562,150.963094 L58.4790924,150.963094 L58.4790924,145.893148 Z" id="READ-MORE" fill="#4A4A4A"></path>
            </g>
            <g id="Group-22" transform="translate(213.938412, 104.975882)">
                <g id="Rectangle-15">
                    <use fill="#FFFFFF" fill-rule="evenodd" xlink:href="#path-3"></use>
                    <rect stroke-opacity="0.337720788" stroke="#979797" stroke-width="1" x="0.5" y="1.1847197" width="168.59592" height="181.537074"></rect>
                </g>
                <path d="M24.7442222,84.3886469 L69.7802858,84.3886469" id="Line" stroke="#4990E2" stroke-width="7" stroke-linecap="square"></path>
                <path d="M23.7717749,107.390898 L109.513511,107.390898" id="Line" stroke="#D7D9D9" stroke-width="4" stroke-linecap="square"></path>
                <path d="M23.7717749,117.110887 L109.513511,117.110887" id="Line" stroke="#D7D9D9" stroke-width="4" stroke-linecap="square"></path>
                <path d="M23.7717749,127.802875 L109.513511,127.802875" id="Line" stroke="#D7D9D9" stroke-width="4" stroke-linecap="square"></path>
                <path d="M23.5098865,148.225945 L24.1011345,148.225945 C24.4019464,148.225945 24.6314417,148.162442 24.7896272,148.035434 C24.9478128,147.908425 25.0269044,147.720507 25.0269044,147.471674 C25.0269044,147.222841 24.9478128,147.049179 24.7896272,146.950683 C24.6314417,146.852187 24.4019464,146.802939 24.1011345,146.802939 L23.5098865,146.802939 L23.5098865,148.225945 Z M25.1124797,150.963094 L24.1400324,149.135736 L23.5098865,149.135736 L23.5098865,150.963094 L22.3662885,150.963094 L22.3662885,145.893148 L24.1944895,145.893148 C24.4641829,145.893148 24.7170166,145.919068 24.9529984,145.970908 C25.1889801,146.022748 25.3951369,146.109579 25.5714749,146.231404 C25.7478129,146.353228 25.8878439,146.515226 25.9915721,146.717403 C26.0953004,146.91958 26.1471637,147.171001 26.1471637,147.471674 C26.1471637,147.844924 26.0654789,148.152072 25.902107,148.393129 C25.738735,148.634186 25.5196124,148.814328 25.2447326,148.933561 L26.3961102,150.963094 L25.1124797,150.963094 Z M27.1585089,145.893148 L30.332577,145.893148 L30.332577,146.857371 L28.302107,146.857371 L28.302107,147.876026 L30.0291734,147.876026 L30.0291734,148.832473 L28.302107,148.832473 L28.302107,149.998871 L30.4103728,149.998871 L30.4103728,150.963094 L27.1585089,150.963094 L27.1585089,145.893148 Z M33.5688817,148.863577 L33.452188,148.397017 C33.3795782,148.143 33.3095627,147.873435 33.2421394,147.588314 C33.174716,147.303193 33.1072937,147.028444 33.0398703,146.764059 L33.008752,146.764059 C32.9465151,147.033628 32.8829825,147.309673 32.8181524,147.592202 C32.7533222,147.874731 32.6846033,148.143 32.6119935,148.397017 L32.4875203,148.863577 L33.5688817,148.863577 Z M33.802269,149.757816 L32.2541329,149.757816 L31.9429498,150.963094 L30.776013,150.963094 L32.363047,145.893148 L33.7400324,145.893148 L35.3270665,150.963094 L34.1134522,150.963094 L33.802269,149.757816 Z M35.8794165,145.893148 L37.310859,145.893148 C37.6998399,145.893148 38.0499174,145.942396 38.3611021,146.040892 C38.6722868,146.139388 38.939383,146.291019 39.1623987,146.495787 C39.3854144,146.700556 39.5565634,146.961049 39.6758509,147.277275 C39.7951384,147.5935 39.8547812,147.969336 39.8547812,148.404793 C39.8547812,148.840251 39.7951384,149.218679 39.6758509,149.540088 C39.5565634,149.861497 39.3880076,150.127174 39.1701783,150.337127 C38.952349,150.54708 38.6917357,150.703894 38.3883306,150.807575 C38.0849255,150.911255 37.7465173,150.963094 37.3730956,150.963094 L35.8794165,150.963094 L35.8794165,145.893148 Z M37.2408428,150.037751 C37.4586721,150.037751 37.6557528,150.00924 37.8320908,149.952216 C38.0084288,149.895191 38.1588324,149.803176 38.2833063,149.676168 C38.4077802,149.549159 38.505024,149.381977 38.5750405,149.174616 C38.6450571,148.967256 38.6800648,148.71065 38.6800648,148.404793 C38.6800648,148.10412 38.6450571,147.851403 38.5750405,147.646634 C38.505024,147.441865 38.4077802,147.278571 38.2833063,147.156747 C38.1588324,147.034922 38.0084288,146.948091 37.8320908,146.896251 C37.6557528,146.844411 37.4586721,146.818491 37.2408428,146.818491 L37.0230146,146.818491 L37.0230146,150.037751 L37.2408428,150.037751 Z M42.4376013,145.893148 L43.6512156,145.893148 L44.4991896,148.171514 L44.8025932,149.057977 L44.8337115,149.057977 L45.1371151,148.171514 L45.9617504,145.893148 L47.1675851,145.893148 L47.1675851,150.963094 L46.1017828,150.963094 L46.1017828,149.104632 C46.1017828,148.980216 46.1069692,148.842842 46.117342,148.692505 C46.1277148,148.542168 46.1406806,148.390538 46.1562399,148.237609 C46.1717991,148.084681 46.1873581,147.934347 46.2029173,147.786602 C46.2184766,147.638857 46.2340356,147.502779 46.2495948,147.378362 L46.2184765,147.378362 L45.7983793,148.552537 L45.0204214,150.519863 L44.5614263,150.519863 L43.7834684,148.552537 L43.3789303,147.378362 L43.347812,147.378362 C43.3633712,147.502779 43.3789302,147.638857 43.3944895,147.786602 C43.4100487,147.934347 43.4243111,148.084681 43.4372771,148.237609 C43.4502432,148.390538 43.4619124,148.542168 43.4722853,148.692505 C43.4826581,148.842842 43.4878444,148.980216 43.4878444,149.104632 L43.4878444,150.963094 L42.4376013,150.963094 L42.4376013,145.893148 Z M50.4272285,151.056406 C50.0849254,151.056406 49.7724487,150.995495 49.4897893,150.87367 C49.2071299,150.751846 48.9646688,150.576888 48.7623987,150.348791 C48.5601286,150.120694 48.403242,149.843353 48.2917342,149.51676 C48.1802263,149.190167 48.1244733,148.819515 48.1244733,148.404793 C48.1244733,147.990072 48.1802263,147.620716 48.2917342,147.296714 C48.403242,146.972713 48.5601286,146.700556 48.7623987,146.480235 C48.9646688,146.259915 49.2071299,146.091436 49.4897893,145.974796 C49.7724487,145.858156 50.0849254,145.799836 50.4272285,145.799836 C50.7695317,145.799836 51.0820083,145.858156 51.3646677,145.974796 C51.6473272,146.091436 51.8897883,146.261211 52.0920583,146.484123 C52.2943284,146.707036 52.451215,146.980489 52.5627229,147.30449 C52.6742307,147.628492 52.7299838,147.995256 52.7299838,148.404793 C52.7299838,148.819515 52.6742307,149.190167 52.5627229,149.51676 C52.451215,149.843353 52.2943284,150.120694 52.0920583,150.348791 C51.8897883,150.576888 51.6473272,150.751846 51.3646677,150.87367 C51.0820083,150.995495 50.7695317,151.056406 50.4272285,151.056406 Z M50.4272285,150.068855 C50.7747181,150.068855 51.0495938,149.919817 51.2518639,149.621736 C51.4541339,149.323655 51.5552674,148.918011 51.5552674,148.404793 C51.5552674,147.896759 51.4541339,147.500188 51.2518639,147.215067 C51.0495938,146.929945 50.7747181,146.787387 50.4272285,146.787387 C50.0797389,146.787387 49.8048632,146.929945 49.6025932,147.215067 C49.4003231,147.500188 49.2991896,147.896759 49.2991896,148.404793 C49.2991896,148.918011 49.4003231,149.323655 49.6025932,149.621736 C49.8048632,149.919817 50.0797389,150.068855 50.4272285,150.068855 Z M54.83047,148.225945 L55.421718,148.225945 C55.7225299,148.225945 55.9520251,148.162442 56.1102107,148.035434 C56.2683963,147.908425 56.3474878,147.720507 56.3474878,147.471674 C56.3474878,147.222841 56.2683963,147.049179 56.1102107,146.950683 C55.9520251,146.852187 55.7225299,146.802939 55.421718,146.802939 L54.83047,146.802939 L54.83047,148.225945 Z M56.4330632,150.963094 L55.4606159,149.135736 L54.83047,149.135736 L54.83047,150.963094 L53.686872,150.963094 L53.686872,145.893148 L55.5150729,145.893148 C55.7847663,145.893148 56.0376001,145.919068 56.2735818,145.970908 C56.5095636,146.022748 56.7157204,146.109579 56.8920583,146.231404 C57.0683963,146.353228 57.2084274,146.515226 57.3121556,146.717403 C57.4158838,146.91958 57.4677472,147.171001 57.4677472,147.471674 C57.4677472,147.844924 57.3860624,148.152072 57.2226904,148.393129 C57.0593185,148.634186 56.8401959,148.814328 56.565316,148.933561 L57.7166937,150.963094 L56.4330632,150.963094 Z M58.4790924,145.893148 L61.6531605,145.893148 L61.6531605,146.857371 L59.6226904,146.857371 L59.6226904,147.876026 L61.3497569,147.876026 L61.3497569,148.832473 L59.6226904,148.832473 L59.6226904,149.998871 L61.7309562,149.998871 L61.7309562,150.963094 L58.4790924,150.963094 L58.4790924,145.893148 Z" id="READ-MORE" fill="#4A4A4A"></path>
            </g>
            <g id="Rectangle-15">
                <use fill="#FFFFFF" fill-rule="evenodd" xlink:href="#path-4"></use>
                <rect stroke-opacity="0.337720788" stroke="#979797" stroke-width="1" x="397.258509" y="106.447881" width="168.59592" height="181.537074"></rect>
            </g>
            <path d="M421.502731,189.651808 L466.538795,189.651808" id="Line" stroke="#4990E2" stroke-width="7" stroke-linecap="square"></path>
            <path d="M420.530284,212.654059 L506.27202,212.654059" id="Line" stroke="#D7D9D9" stroke-width="4" stroke-linecap="square"></path>
            <path d="M420.530284,222.374048 L506.27202,222.374048" id="Line" stroke="#D7D9D9" stroke-width="4" stroke-linecap="square"></path>
            <path d="M420.530284,233.066036 L506.27202,233.066036" id="Line" stroke="#D7D9D9" stroke-width="4" stroke-linecap="square"></path>
            <path d="M420.268395,253.201828 L420.859643,253.201828 C421.160455,253.201828 421.389951,253.138324 421.548136,253.011316 C421.706322,252.884307 421.785413,252.696389 421.785413,252.447556 C421.785413,252.198723 421.706322,252.025061 421.548136,251.926565 C421.389951,251.828069 421.160455,251.778821 420.859643,251.778821 L420.268395,251.778821 L420.268395,253.201828 Z M421.870989,255.938976 L420.898541,254.111618 L420.268395,254.111618 L420.268395,255.938976 L419.124797,255.938976 L419.124797,250.86903 L420.952998,250.86903 C421.222692,250.86903 421.475526,250.89495 421.711507,250.94679 C421.947489,250.99863 422.153646,251.085461 422.329984,251.207286 C422.506322,251.32911 422.646353,251.491108 422.750081,251.693285 C422.853809,251.895462 422.905673,252.146883 422.905673,252.447556 C422.905673,252.820806 422.823988,253.127954 422.660616,253.369011 C422.497244,253.610068 422.278121,253.79021 422.003241,253.909443 L423.154619,255.938976 L421.870989,255.938976 Z M423.917018,250.86903 L427.091086,250.86903 L427.091086,251.833253 L425.060616,251.833253 L425.060616,252.851908 L426.787682,252.851908 L426.787682,253.808355 L425.060616,253.808355 L425.060616,254.974754 L427.168882,254.974754 L427.168882,255.938976 L423.917018,255.938976 L423.917018,250.86903 Z M430.327391,253.839459 L430.210697,253.372899 C430.138087,253.118882 430.068072,252.849317 430.000648,252.564196 C429.933225,252.279075 429.865803,252.004326 429.798379,251.739941 L429.767261,251.739941 C429.705024,252.00951 429.641491,252.285555 429.576661,252.568084 C429.511831,252.850613 429.443112,253.118882 429.370502,253.372899 L429.246029,253.839459 L430.327391,253.839459 Z M430.560778,254.733698 L429.012642,254.733698 L428.701459,255.938976 L427.534522,255.938976 L429.121556,250.86903 L430.498541,250.86903 L432.085575,255.938976 L430.871961,255.938976 L430.560778,254.733698 Z M432.637925,250.86903 L434.069368,250.86903 C434.458349,250.86903 434.808426,250.918278 435.119611,251.016774 C435.430796,251.11527 435.697892,251.266901 435.920908,251.471669 C436.143923,251.676438 436.315072,251.936931 436.43436,252.253157 C436.553647,252.569382 436.61329,252.945218 436.61329,253.380675 C436.61329,253.816133 436.553647,254.194561 436.43436,254.51597 C436.315072,254.837379 436.146516,255.103056 435.928687,255.313009 C435.710858,255.522962 435.450245,255.679776 435.14684,255.783457 C434.843434,255.887137 434.505026,255.938976 434.131605,255.938976 L432.637925,255.938976 L432.637925,250.86903 Z M433.999352,255.013633 C434.217181,255.013633 434.414262,254.985122 434.5906,254.928098 C434.766938,254.871073 434.917341,254.779058 435.041815,254.65205 C435.166289,254.525041 435.263533,254.357859 435.333549,254.150498 C435.403566,253.943138 435.438574,253.686532 435.438574,253.380675 C435.438574,253.080002 435.403566,252.827285 435.333549,252.622516 C435.263533,252.417747 435.166289,252.254453 435.041815,252.132629 C434.917341,252.010804 434.766938,251.923973 434.5906,251.872133 C434.414262,251.820293 434.217181,251.794373 433.999352,251.794373 L433.781524,251.794373 L433.781524,255.013633 L433.999352,255.013633 Z M439.19611,250.86903 L440.409724,250.86903 L441.257699,253.147396 L441.561102,254.033859 L441.59222,254.033859 L441.895624,253.147396 L442.720259,250.86903 L443.926094,250.86903 L443.926094,255.938976 L442.860292,255.938976 L442.860292,254.080515 C442.860292,253.956098 442.865478,253.818724 442.875851,253.668387 C442.886224,253.51805 442.89919,253.36642 442.914749,253.213491 C442.930308,253.060563 442.945867,252.910229 442.961426,252.762484 C442.976985,252.614739 442.992544,252.478661 443.008104,252.354244 L442.976985,252.354244 L442.556888,253.528419 L441.77893,255.495745 L441.319935,255.495745 L440.541977,253.528419 L440.137439,252.354244 L440.106321,252.354244 C440.12188,252.478661 440.137439,252.614739 440.152998,252.762484 C440.168558,252.910229 440.18282,253.060563 440.195786,253.213491 C440.208752,253.36642 440.220421,253.51805 440.230794,253.668387 C440.241167,253.818724 440.246353,253.956098 440.246353,254.080515 L440.246353,255.938976 L439.19611,255.938976 L439.19611,250.86903 Z M447.185737,256.032288 C446.843434,256.032288 446.530958,255.971377 446.248298,255.849553 C445.965639,255.727728 445.723178,255.55277 445.520908,255.324673 C445.318638,255.096576 445.161751,254.819235 445.050243,254.492642 C444.938735,254.166049 444.882982,253.795397 444.882982,253.380675 C444.882982,252.965954 444.938735,252.596598 445.050243,252.272597 C445.161751,251.948595 445.318638,251.676438 445.520908,251.456117 C445.723178,251.235797 445.965639,251.067318 446.248298,250.950678 C446.530958,250.834038 446.843434,250.775718 447.185737,250.775718 C447.528041,250.775718 447.840517,250.834038 448.123177,250.950678 C448.405836,251.067318 448.648297,251.237093 448.850567,251.460005 C449.052837,251.682918 449.209724,251.956371 449.321232,252.280373 C449.43274,252.604374 449.488493,252.971138 449.488493,253.380675 C449.488493,253.795397 449.43274,254.166049 449.321232,254.492642 C449.209724,254.819235 449.052837,255.096576 448.850567,255.324673 C448.648297,255.55277 448.405836,255.727728 448.123177,255.849553 C447.840517,255.971377 447.528041,256.032288 447.185737,256.032288 Z M447.185737,255.044737 C447.533227,255.044737 447.808103,254.895699 448.010373,254.597618 C448.212643,254.299537 448.313776,253.893893 448.313776,253.380675 C448.313776,252.872641 448.212643,252.47607 448.010373,252.190949 C447.808103,251.905828 447.533227,251.763269 447.185737,251.763269 C446.838248,251.763269 446.563372,251.905828 446.361102,252.190949 C446.158832,252.47607 446.057699,252.872641 446.057699,253.380675 C446.057699,253.893893 446.158832,254.299537 446.361102,254.597618 C446.563372,254.895699 446.838248,255.044737 447.185737,255.044737 Z M451.588979,253.201828 L452.180227,253.201828 C452.481039,253.201828 452.710534,253.138324 452.86872,253.011316 C453.026905,252.884307 453.105997,252.696389 453.105997,252.447556 C453.105997,252.198723 453.026905,252.025061 452.86872,251.926565 C452.710534,251.828069 452.481039,251.778821 452.180227,251.778821 L451.588979,251.778821 L451.588979,253.201828 Z M453.191572,255.938976 L452.219125,254.111618 L451.588979,254.111618 L451.588979,255.938976 L450.445381,255.938976 L450.445381,250.86903 L452.273582,250.86903 C452.543275,250.86903 452.796109,250.89495 453.032091,250.94679 C453.268072,250.99863 453.474229,251.085461 453.650567,251.207286 C453.826905,251.32911 453.966936,251.491108 454.070665,251.693285 C454.174393,251.895462 454.226256,252.146883 454.226256,252.447556 C454.226256,252.820806 454.144571,253.127954 453.981199,253.369011 C453.817827,253.610068 453.598705,253.79021 453.323825,253.909443 L454.475203,255.938976 L453.191572,255.938976 Z M455.237601,250.86903 L458.411669,250.86903 L458.411669,251.833253 L456.381199,251.833253 L456.381199,252.851908 L458.108266,252.851908 L458.108266,253.808355 L456.381199,253.808355 L456.381199,254.974754 L458.489465,254.974754 L458.489465,255.938976 L455.237601,255.938976 L455.237601,250.86903 Z" id="READ-MORE" fill="#4A4A4A"></path>
            <g id="Rectangle-15">
                <use fill="#FFFFFF" fill-rule="evenodd" xlink:href="#path-5"></use>
                <rect stroke-opacity="0.337720788" stroke="#979797" stroke-width="1" x="30.6458671" y="309.595653" width="168.59592" height="181.537074"></rect>
            </g>
            <path d="M54.8900893,392.79958 L99.9261529,392.79958" id="Line" stroke="#4990E2" stroke-width="7" stroke-linecap="square"></path>
            <path d="M53.917642,415.801831 L139.659378,415.801831" id="Line" stroke="#D7D9D9" stroke-width="4" stroke-linecap="square"></path>
            <path d="M53.917642,425.52182 L139.659378,425.52182" id="Line" stroke="#D7D9D9" stroke-width="4" stroke-linecap="square"></path>
            <path d="M53.917642,436.213808 L139.659378,436.213808" id="Line" stroke="#D7D9D9" stroke-width="4" stroke-linecap="square"></path>
            <path d="M53.6557536,456.349599 L54.2470016,456.349599 C54.5478135,456.349599 54.7773088,456.286096 54.9354943,456.159087 C55.0936799,456.032079 55.1727715,455.844161 55.1727715,455.595328 C55.1727715,455.346495 55.0936799,455.172833 54.9354943,455.074337 C54.7773088,454.97584 54.5478135,454.926593 54.2470016,454.926593 L53.6557536,454.926593 L53.6557536,456.349599 Z M55.2583468,459.086748 L54.2858995,457.25939 L53.6557536,457.25939 L53.6557536,459.086748 L52.5121556,459.086748 L52.5121556,454.016802 L54.3403566,454.016802 C54.61005,454.016802 54.8628837,454.042722 55.0988655,454.094562 C55.3348472,454.146402 55.541004,454.233233 55.717342,454.355057 C55.89368,454.476882 56.033711,454.63888 56.1374392,454.841057 C56.2411675,455.043234 56.2930308,455.294655 56.2930308,455.595328 C56.2930308,455.968578 56.211346,456.275726 56.0479741,456.516783 C55.8846021,456.75784 55.6654795,456.937982 55.3905997,457.057214 L56.5419773,459.086748 L55.2583468,459.086748 Z M57.304376,454.016802 L60.4784441,454.016802 L60.4784441,454.981025 L58.4479741,454.981025 L58.4479741,455.99968 L60.1750405,455.99968 L60.1750405,456.956127 L58.4479741,456.956127 L58.4479741,458.122525 L60.5562399,458.122525 L60.5562399,459.086748 L57.304376,459.086748 L57.304376,454.016802 Z M63.7147488,456.987231 L63.5980551,456.520671 C63.5254453,456.266654 63.4554298,455.997089 63.3880065,455.711968 C63.3205831,455.426847 63.2531608,455.152098 63.1857374,454.887713 L63.1546191,454.887713 C63.0923822,455.157282 63.0288496,455.433327 62.9640194,455.715856 C62.8991893,455.998385 62.8304704,456.266654 62.7578606,456.520671 L62.6333874,456.987231 L63.7147488,456.987231 Z M63.9481361,457.88147 L62.4,457.88147 L62.0888169,459.086748 L60.9218801,459.086748 L62.5089141,454.016802 L63.8858995,454.016802 L65.4729335,459.086748 L64.2593193,459.086748 L63.9481361,457.88147 Z M66.0252836,454.016802 L67.4567261,454.016802 C67.845707,454.016802 68.1957845,454.066049 68.5069692,454.164546 C68.8181539,454.263042 69.0852501,454.414672 69.3082658,454.619441 C69.5312815,454.82421 69.7024305,455.084703 69.821718,455.400928 C69.9410055,455.717154 70.0006483,456.092989 70.0006483,456.528447 C70.0006483,456.963905 69.9410055,457.342333 69.821718,457.663742 C69.7024305,457.985151 69.5338747,458.250828 69.3160454,458.460781 C69.0982161,458.670734 68.8376028,458.827548 68.5341977,458.931228 C68.2307926,459.034909 67.8923844,459.086748 67.5189627,459.086748 L66.0252836,459.086748 L66.0252836,454.016802 Z M67.3867099,458.161405 C67.6045392,458.161405 67.8016199,458.132894 67.9779579,458.075869 C68.1542959,458.018845 68.3046995,457.92683 68.4291734,457.799822 C68.5536473,457.672813 68.6508911,457.505631 68.7209076,457.29827 C68.7909242,457.090909 68.8259319,456.834304 68.8259319,456.528447 C68.8259319,456.227774 68.7909242,455.975057 68.7209076,455.770288 C68.6508911,455.565519 68.5536473,455.402225 68.4291734,455.2804 C68.3046995,455.158576 68.1542959,455.071745 67.9779579,455.019905 C67.8016199,454.968065 67.6045392,454.942145 67.3867099,454.942145 L67.1688817,454.942145 L67.1688817,458.161405 L67.3867099,458.161405 Z M72.5834684,454.016802 L73.7970827,454.016802 L74.6450567,456.295167 L74.9484603,457.18163 L74.9795786,457.18163 L75.2829822,456.295167 L76.1076175,454.016802 L77.3134522,454.016802 L77.3134522,459.086748 L76.2476499,459.086748 L76.2476499,457.228286 C76.2476499,457.10387 76.2528363,456.966495 76.2632091,456.816159 C76.2735819,456.665822 76.2865477,456.514192 76.302107,456.361263 C76.3176662,456.208335 76.3332252,456.058 76.3487844,455.910256 C76.3643437,455.762511 76.3799027,455.626433 76.3954619,455.502016 L76.3643436,455.502016 L75.9442464,456.676191 L75.1662885,458.643517 L74.7072934,458.643517 L73.9293355,456.676191 L73.5247974,455.502016 L73.4936791,455.502016 C73.5092383,455.626433 73.5247973,455.762511 73.5403566,455.910256 C73.5559158,456.058 73.5701782,456.208335 73.5831442,456.361263 C73.5961103,456.514192 73.6077795,456.665822 73.6181524,456.816159 C73.6285252,456.966495 73.6337115,457.10387 73.6337115,457.228286 L73.6337115,459.086748 L72.5834684,459.086748 L72.5834684,454.016802 Z M80.5730956,459.18006 C80.2307925,459.18006 79.9183158,459.119149 79.6356564,458.997324 C79.352997,458.8755 79.1105359,458.700542 78.9082658,458.472445 C78.7059957,458.244348 78.5491091,457.967007 78.4376013,457.640414 C78.3260934,457.313821 78.2703404,456.943169 78.2703404,456.528447 C78.2703404,456.113725 78.3260934,455.74437 78.4376013,455.420368 C78.5491091,455.096367 78.7059957,454.82421 78.9082658,454.603889 C79.1105359,454.383568 79.352997,454.21509 79.6356564,454.09845 C79.9183158,453.981809 80.2307925,453.92349 80.5730956,453.92349 C80.9153988,453.92349 81.2278754,453.981809 81.5105348,454.09845 C81.7931943,454.21509 82.0356554,454.384864 82.2379254,454.607777 C82.4401955,454.83069 82.5970821,455.104143 82.70859,455.428144 C82.8200978,455.752146 82.8758509,456.118909 82.8758509,456.528447 C82.8758509,456.943169 82.8200978,457.313821 82.70859,457.640414 C82.5970821,457.967007 82.4401955,458.244348 82.2379254,458.472445 C82.0356554,458.700542 81.7931943,458.8755 81.5105348,458.997324 C81.2278754,459.119149 80.9153988,459.18006 80.5730956,459.18006 Z M80.5730956,458.192509 C80.9205852,458.192509 81.1954609,458.043471 81.397731,457.74539 C81.600001,457.447309 81.7011345,457.041665 81.7011345,456.528447 C81.7011345,456.020413 81.600001,455.623841 81.397731,455.33872 C81.1954609,455.053599 80.9205852,454.911041 80.5730956,454.911041 C80.225606,454.911041 79.9507303,455.053599 79.7484603,455.33872 C79.5461902,455.623841 79.4450567,456.020413 79.4450567,456.528447 C79.4450567,457.041665 79.5461902,457.447309 79.7484603,457.74539 C79.9507303,458.043471 80.225606,458.192509 80.5730956,458.192509 Z M84.9763371,456.349599 L85.5675851,456.349599 C85.868397,456.349599 86.0978922,456.286096 86.2560778,456.159087 C86.4142634,456.032079 86.4933549,455.844161 86.4933549,455.595328 C86.4933549,455.346495 86.4142634,455.172833 86.2560778,455.074337 C86.0978922,454.97584 85.868397,454.926593 85.5675851,454.926593 L84.9763371,454.926593 L84.9763371,456.349599 Z M86.5789303,459.086748 L85.606483,457.25939 L84.9763371,457.25939 L84.9763371,459.086748 L83.8327391,459.086748 L83.8327391,454.016802 L85.66094,454.016802 C85.9306334,454.016802 86.1834672,454.042722 86.4194489,454.094562 C86.6554307,454.146402 86.8615874,454.233233 87.0379254,454.355057 C87.2142634,454.476882 87.3542945,454.63888 87.4580227,454.841057 C87.5617509,455.043234 87.6136143,455.294655 87.6136143,455.595328 C87.6136143,455.968578 87.5319295,456.275726 87.3685575,456.516783 C87.2051856,456.75784 86.986063,456.937982 86.7111831,457.057214 L87.8625608,459.086748 L86.5789303,459.086748 Z M88.6249595,454.016802 L91.7990276,454.016802 L91.7990276,454.981025 L89.7685575,454.981025 L89.7685575,455.99968 L91.495624,455.99968 L91.495624,456.956127 L89.7685575,456.956127 L89.7685575,458.122525 L91.8768233,458.122525 L91.8768233,459.086748 L88.6249595,459.086748 L88.6249595,454.016802 Z" id="READ-MORE" fill="#4A4A4A"></path>
            <g id="Rectangle-15">
                <use fill="#FFFFFF" fill-rule="evenodd" xlink:href="#path-6"></use>
                <rect stroke-opacity="0.337720788" stroke="#979797" stroke-width="1" x="213.465964" y="309.595653" width="168.59592" height="181.537074"></rect>
            </g>
            <path d="M237.710187,392.79958 L282.74625,392.79958" id="Line" stroke="#4990E2" stroke-width="7" stroke-linecap="square"></path>
            <path d="M236.737739,415.801831 L322.479476,415.801831" id="Line" stroke="#D7D9D9" stroke-width="4" stroke-linecap="square"></path>
            <path d="M236.737739,425.52182 L322.479476,425.52182" id="Line" stroke="#D7D9D9" stroke-width="4" stroke-linecap="square"></path>
            <path d="M236.737739,436.213808 L322.479476,436.213808" id="Line" stroke="#D7D9D9" stroke-width="4" stroke-linecap="square"></path>
            <path d="M236.475851,456.349599 L237.067099,456.349599 C237.367911,456.349599 237.597406,456.286096 237.755592,456.159087 C237.913777,456.032079 237.992869,455.844161 237.992869,455.595328 C237.992869,455.346495 237.913777,455.172833 237.755592,455.074337 C237.597406,454.97584 237.367911,454.926593 237.067099,454.926593 L236.475851,454.926593 L236.475851,456.349599 Z M238.078444,459.086748 L237.105997,457.25939 L236.475851,457.25939 L236.475851,459.086748 L235.332253,459.086748 L235.332253,454.016802 L237.160454,454.016802 C237.430147,454.016802 237.682981,454.042722 237.918963,454.094562 C238.154944,454.146402 238.361101,454.233233 238.537439,454.355057 C238.713777,454.476882 238.853808,454.63888 238.957536,454.841057 C239.061265,455.043234 239.113128,455.294655 239.113128,455.595328 C239.113128,455.968578 239.031443,456.275726 238.868071,456.516783 C238.704699,456.75784 238.485577,456.937982 238.210697,457.057214 L239.362075,459.086748 L238.078444,459.086748 Z M240.124473,454.016802 L243.298541,454.016802 L243.298541,454.981025 L241.268071,454.981025 L241.268071,455.99968 L242.995138,455.99968 L242.995138,456.956127 L241.268071,456.956127 L241.268071,458.122525 L243.376337,458.122525 L243.376337,459.086748 L240.124473,459.086748 L240.124473,454.016802 Z M246.534846,456.987231 L246.418152,456.520671 C246.345543,456.266654 246.275527,455.997089 246.208104,455.711968 C246.14068,455.426847 246.073258,455.152098 246.005835,454.887713 L245.974716,454.887713 C245.912479,455.157282 245.848947,455.433327 245.784117,455.715856 C245.719287,455.998385 245.650568,456.266654 245.577958,456.520671 L245.453485,456.987231 L246.534846,456.987231 Z M246.768233,457.88147 L245.220097,457.88147 L244.908914,459.086748 L243.741977,459.086748 L245.329011,454.016802 L246.705997,454.016802 L248.293031,459.086748 L247.079417,459.086748 L246.768233,457.88147 Z M248.845381,454.016802 L250.276823,454.016802 C250.665804,454.016802 251.015882,454.066049 251.327066,454.164546 C251.638251,454.263042 251.905347,454.414672 252.128363,454.619441 C252.351379,454.82421 252.522528,455.084703 252.641815,455.400928 C252.761103,455.717154 252.820746,456.092989 252.820746,456.528447 C252.820746,456.963905 252.761103,457.342333 252.641815,457.663742 C252.522528,457.985151 252.353972,458.250828 252.136143,458.460781 C251.918313,458.670734 251.6577,458.827548 251.354295,458.931228 C251.05089,459.034909 250.712482,459.086748 250.33906,459.086748 L248.845381,459.086748 L248.845381,454.016802 Z M250.206807,458.161405 C250.424636,458.161405 250.621717,458.132894 250.798055,458.075869 C250.974393,458.018845 251.124797,457.92683 251.249271,457.799822 C251.373745,457.672813 251.470988,457.505631 251.541005,457.29827 C251.611021,457.090909 251.646029,456.834304 251.646029,456.528447 C251.646029,456.227774 251.611021,455.975057 251.541005,455.770288 C251.470988,455.565519 251.373745,455.402225 251.249271,455.2804 C251.124797,455.158576 250.974393,455.071745 250.798055,455.019905 C250.621717,454.968065 250.424636,454.942145 250.206807,454.942145 L249.988979,454.942145 L249.988979,458.161405 L250.206807,458.161405 Z M255.403566,454.016802 L256.61718,454.016802 L257.465154,456.295167 L257.768558,457.18163 L257.799676,457.18163 L258.103079,456.295167 L258.927715,454.016802 L260.133549,454.016802 L260.133549,459.086748 L259.067747,459.086748 L259.067747,457.228286 C259.067747,457.10387 259.072933,456.966495 259.083306,456.816159 C259.093679,456.665822 259.106645,456.514192 259.122204,456.361263 C259.137763,456.208335 259.153322,456.058 259.168882,455.910256 C259.184441,455.762511 259.2,455.626433 259.215559,455.502016 L259.184441,455.502016 L258.764344,456.676191 L257.986386,458.643517 L257.527391,458.643517 L256.749433,456.676191 L256.344895,455.502016 L256.313776,455.502016 C256.329336,455.626433 256.344895,455.762511 256.360454,455.910256 C256.376013,456.058 256.390275,456.208335 256.403241,456.361263 C256.416208,456.514192 256.427877,456.665822 256.43825,456.816159 C256.448622,456.966495 256.453809,457.10387 256.453809,457.228286 L256.453809,459.086748 L255.403566,459.086748 L255.403566,454.016802 Z M263.393193,459.18006 C263.05089,459.18006 262.738413,459.119149 262.455754,458.997324 C262.173094,458.8755 261.930633,458.700542 261.728363,458.472445 C261.526093,458.244348 261.369206,457.967007 261.257699,457.640414 C261.146191,457.313821 261.090438,456.943169 261.090438,456.528447 C261.090438,456.113725 261.146191,455.74437 261.257699,455.420368 C261.369206,455.096367 261.526093,454.82421 261.728363,454.603889 C261.930633,454.383568 262.173094,454.21509 262.455754,454.09845 C262.738413,453.981809 263.05089,453.92349 263.393193,453.92349 C263.735496,453.92349 264.047973,453.981809 264.330632,454.09845 C264.613292,454.21509 264.855753,454.384864 265.058023,454.607777 C265.260293,454.83069 265.417179,455.104143 265.528687,455.428144 C265.640195,455.752146 265.695948,456.118909 265.695948,456.528447 C265.695948,456.943169 265.640195,457.313821 265.528687,457.640414 C265.417179,457.967007 265.260293,458.244348 265.058023,458.472445 C264.855753,458.700542 264.613292,458.8755 264.330632,458.997324 C264.047973,459.119149 263.735496,459.18006 263.393193,459.18006 Z M263.393193,458.192509 C263.740682,458.192509 264.015558,458.043471 264.217828,457.74539 C264.420098,457.447309 264.521232,457.041665 264.521232,456.528447 C264.521232,456.020413 264.420098,455.623841 264.217828,455.33872 C264.015558,455.053599 263.740682,454.911041 263.393193,454.911041 C263.045703,454.911041 262.770828,455.053599 262.568558,455.33872 C262.366287,455.623841 262.265154,456.020413 262.265154,456.528447 C262.265154,457.041665 262.366287,457.447309 262.568558,457.74539 C262.770828,458.043471 263.045703,458.192509 263.393193,458.192509 Z M267.796434,456.349599 L268.387682,456.349599 C268.688494,456.349599 268.917989,456.286096 269.076175,456.159087 C269.234361,456.032079 269.313452,455.844161 269.313452,455.595328 C269.313452,455.346495 269.234361,455.172833 269.076175,455.074337 C268.917989,454.97584 268.688494,454.926593 268.387682,454.926593 L267.796434,454.926593 L267.796434,456.349599 Z M269.399028,459.086748 L268.42658,457.25939 L267.796434,457.25939 L267.796434,459.086748 L266.652836,459.086748 L266.652836,454.016802 L268.481037,454.016802 C268.750731,454.016802 269.003564,454.042722 269.239546,454.094562 C269.475528,454.146402 269.681685,454.233233 269.858023,454.355057 C270.034361,454.476882 270.174392,454.63888 270.27812,454.841057 C270.381848,455.043234 270.433712,455.294655 270.433712,455.595328 C270.433712,455.968578 270.352027,456.275726 270.188655,456.516783 C270.025283,456.75784 269.80616,456.937982 269.53128,457.057214 L270.682658,459.086748 L269.399028,459.086748 Z M271.445057,454.016802 L274.619125,454.016802 L274.619125,454.981025 L272.588655,454.981025 L272.588655,455.99968 L274.315721,455.99968 L274.315721,456.956127 L272.588655,456.956127 L272.588655,458.122525 L274.696921,458.122525 L274.696921,459.086748 L271.445057,459.086748 L271.445057,454.016802 Z" id="READ-MORE" fill="#4A4A4A"></path>
            <g id="Rectangle-15">
                <use fill="#FFFFFF" fill-rule="evenodd" xlink:href="#path-7"></use>
                <rect stroke-opacity="0.337720788" stroke="#979797" stroke-width="1" x="397.258509" y="309.595653" width="168.59592" height="181.537074"></rect>
            </g>
            <path d="M421.502731,392.79958 L466.538795,392.79958" id="Line" stroke="#4990E2" stroke-width="7" stroke-linecap="square"></path>
            <path d="M420.530284,415.801831 L506.27202,415.801831" id="Line" stroke="#D7D9D9" stroke-width="4" stroke-linecap="square"></path>
            <path d="M420.530284,425.52182 L506.27202,425.52182" id="Line" stroke="#D7D9D9" stroke-width="4" stroke-linecap="square"></path>
            <path d="M420.530284,436.213808 L506.27202,436.213808" id="Line" stroke="#D7D9D9" stroke-width="4" stroke-linecap="square"></path>
            <path d="M420.268395,456.349599 L420.859643,456.349599 C421.160455,456.349599 421.389951,456.286096 421.548136,456.159087 C421.706322,456.032079 421.785413,455.844161 421.785413,455.595328 C421.785413,455.346495 421.706322,455.172833 421.548136,455.074337 C421.389951,454.97584 421.160455,454.926593 420.859643,454.926593 L420.268395,454.926593 L420.268395,456.349599 Z M421.870989,459.086748 L420.898541,457.25939 L420.268395,457.25939 L420.268395,459.086748 L419.124797,459.086748 L419.124797,454.016802 L420.952998,454.016802 C421.222692,454.016802 421.475526,454.042722 421.711507,454.094562 C421.947489,454.146402 422.153646,454.233233 422.329984,454.355057 C422.506322,454.476882 422.646353,454.63888 422.750081,454.841057 C422.853809,455.043234 422.905673,455.294655 422.905673,455.595328 C422.905673,455.968578 422.823988,456.275726 422.660616,456.516783 C422.497244,456.75784 422.278121,456.937982 422.003241,457.057214 L423.154619,459.086748 L421.870989,459.086748 Z M423.917018,454.016802 L427.091086,454.016802 L427.091086,454.981025 L425.060616,454.981025 L425.060616,455.99968 L426.787682,455.99968 L426.787682,456.956127 L425.060616,456.956127 L425.060616,458.122525 L427.168882,458.122525 L427.168882,459.086748 L423.917018,459.086748 L423.917018,454.016802 Z M430.327391,456.987231 L430.210697,456.520671 C430.138087,456.266654 430.068072,455.997089 430.000648,455.711968 C429.933225,455.426847 429.865803,455.152098 429.798379,454.887713 L429.767261,454.887713 C429.705024,455.157282 429.641491,455.433327 429.576661,455.715856 C429.511831,455.998385 429.443112,456.266654 429.370502,456.520671 L429.246029,456.987231 L430.327391,456.987231 Z M430.560778,457.88147 L429.012642,457.88147 L428.701459,459.086748 L427.534522,459.086748 L429.121556,454.016802 L430.498541,454.016802 L432.085575,459.086748 L430.871961,459.086748 L430.560778,457.88147 Z M432.637925,454.016802 L434.069368,454.016802 C434.458349,454.016802 434.808426,454.066049 435.119611,454.164546 C435.430796,454.263042 435.697892,454.414672 435.920908,454.619441 C436.143923,454.82421 436.315072,455.084703 436.43436,455.400928 C436.553647,455.717154 436.61329,456.092989 436.61329,456.528447 C436.61329,456.963905 436.553647,457.342333 436.43436,457.663742 C436.315072,457.985151 436.146516,458.250828 435.928687,458.460781 C435.710858,458.670734 435.450245,458.827548 435.14684,458.931228 C434.843434,459.034909 434.505026,459.086748 434.131605,459.086748 L432.637925,459.086748 L432.637925,454.016802 Z M433.999352,458.161405 C434.217181,458.161405 434.414262,458.132894 434.5906,458.075869 C434.766938,458.018845 434.917341,457.92683 435.041815,457.799822 C435.166289,457.672813 435.263533,457.505631 435.333549,457.29827 C435.403566,457.090909 435.438574,456.834304 435.438574,456.528447 C435.438574,456.227774 435.403566,455.975057 435.333549,455.770288 C435.263533,455.565519 435.166289,455.402225 435.041815,455.2804 C434.917341,455.158576 434.766938,455.071745 434.5906,455.019905 C434.414262,454.968065 434.217181,454.942145 433.999352,454.942145 L433.781524,454.942145 L433.781524,458.161405 L433.999352,458.161405 Z M439.19611,454.016802 L440.409724,454.016802 L441.257699,456.295167 L441.561102,457.18163 L441.59222,457.18163 L441.895624,456.295167 L442.720259,454.016802 L443.926094,454.016802 L443.926094,459.086748 L442.860292,459.086748 L442.860292,457.228286 C442.860292,457.10387 442.865478,456.966495 442.875851,456.816159 C442.886224,456.665822 442.89919,456.514192 442.914749,456.361263 C442.930308,456.208335 442.945867,456.058 442.961426,455.910256 C442.976985,455.762511 442.992544,455.626433 443.008104,455.502016 L442.976985,455.502016 L442.556888,456.676191 L441.77893,458.643517 L441.319935,458.643517 L440.541977,456.676191 L440.137439,455.502016 L440.106321,455.502016 C440.12188,455.626433 440.137439,455.762511 440.152998,455.910256 C440.168558,456.058 440.18282,456.208335 440.195786,456.361263 C440.208752,456.514192 440.220421,456.665822 440.230794,456.816159 C440.241167,456.966495 440.246353,457.10387 440.246353,457.228286 L440.246353,459.086748 L439.19611,459.086748 L439.19611,454.016802 Z M447.185737,459.18006 C446.843434,459.18006 446.530958,459.119149 446.248298,458.997324 C445.965639,458.8755 445.723178,458.700542 445.520908,458.472445 C445.318638,458.244348 445.161751,457.967007 445.050243,457.640414 C444.938735,457.313821 444.882982,456.943169 444.882982,456.528447 C444.882982,456.113725 444.938735,455.74437 445.050243,455.420368 C445.161751,455.096367 445.318638,454.82421 445.520908,454.603889 C445.723178,454.383568 445.965639,454.21509 446.248298,454.09845 C446.530958,453.981809 446.843434,453.92349 447.185737,453.92349 C447.528041,453.92349 447.840517,453.981809 448.123177,454.09845 C448.405836,454.21509 448.648297,454.384864 448.850567,454.607777 C449.052837,454.83069 449.209724,455.104143 449.321232,455.428144 C449.43274,455.752146 449.488493,456.118909 449.488493,456.528447 C449.488493,456.943169 449.43274,457.313821 449.321232,457.640414 C449.209724,457.967007 449.052837,458.244348 448.850567,458.472445 C448.648297,458.700542 448.405836,458.8755 448.123177,458.997324 C447.840517,459.119149 447.528041,459.18006 447.185737,459.18006 Z M447.185737,458.192509 C447.533227,458.192509 447.808103,458.043471 448.010373,457.74539 C448.212643,457.447309 448.313776,457.041665 448.313776,456.528447 C448.313776,456.020413 448.212643,455.623841 448.010373,455.33872 C447.808103,455.053599 447.533227,454.911041 447.185737,454.911041 C446.838248,454.911041 446.563372,455.053599 446.361102,455.33872 C446.158832,455.623841 446.057699,456.020413 446.057699,456.528447 C446.057699,457.041665 446.158832,457.447309 446.361102,457.74539 C446.563372,458.043471 446.838248,458.192509 447.185737,458.192509 Z M451.588979,456.349599 L452.180227,456.349599 C452.481039,456.349599 452.710534,456.286096 452.86872,456.159087 C453.026905,456.032079 453.105997,455.844161 453.105997,455.595328 C453.105997,455.346495 453.026905,455.172833 452.86872,455.074337 C452.710534,454.97584 452.481039,454.926593 452.180227,454.926593 L451.588979,454.926593 L451.588979,456.349599 Z M453.191572,459.086748 L452.219125,457.25939 L451.588979,457.25939 L451.588979,459.086748 L450.445381,459.086748 L450.445381,454.016802 L452.273582,454.016802 C452.543275,454.016802 452.796109,454.042722 453.032091,454.094562 C453.268072,454.146402 453.474229,454.233233 453.650567,454.355057 C453.826905,454.476882 453.966936,454.63888 454.070665,454.841057 C454.174393,455.043234 454.226256,455.294655 454.226256,455.595328 C454.226256,455.968578 454.144571,456.275726 453.981199,456.516783 C453.817827,456.75784 453.598705,456.937982 453.323825,457.057214 L454.475203,459.086748 L453.191572,459.086748 Z M455.237601,454.016802 L458.411669,454.016802 L458.411669,454.981025 L456.381199,454.981025 L456.381199,455.99968 L458.108266,455.99968 L458.108266,456.956127 L456.381199,456.956127 L456.381199,458.122525 L458.489465,458.122525 L458.489465,459.086748 L455.237601,459.086748 L455.237601,454.016802 Z" id="READ-MORE" fill="#4A4A4A"></path>
            <g id="icon-team" transform="translate(419.124797, 340.199618)" stroke="#979797">
                <path d="M10.0444885,24.361584 C8.49479575,13.645625 10.8207479,8.23327282 17.0223451,8.12452736 C26.3247408,7.96140917 24.7654452,22.1676444 24.4220635,24.361584" id="Path-5"></path>
                <path d="M5.47414295,30.7197302 C5.47414295,26.9544186 7.90687586,25.2487763 10.2564021,24.1737155 C11.8227528,23.4570082 12.8455664,23.2751559 13.3248428,23.6281584 C13.4942422,24.7433068 13.6987717,25.5257994 13.9384313,25.9756361 C14.5563549,27.1354672 15.4394408,27.7203966 16.5876891,27.7304243 C19.3120866,27.7542166 20.6543749,25.2921908 20.6543749,23.0438198 C20.6566833,22.9372304 21.5851797,23.1320099 23.4398641,23.6281584 C27.3284685,26.6828203 29.2641964,28.9898245 29.2470479,30.5491709" id="Path-6"></path>
                <path d="M14.909543,13.5385562 C16.2077231,15.1735621 17.5213205,16.3246329 18.8503351,16.9917686 C20.843857,17.9924721 21.5193295,19.4559356 21.3726597,20.6748144 C21.2259899,21.8936932 18.2502998,26.036644 17.1627668,26.0887491 C16.0752339,26.1408542 12.0995675,23.0730768 12.3261265,20.7340572 C12.4771659,19.1747108 13.3383047,16.7762105 14.909543,13.5385562 Z" id="Path-7"></path>
                <ellipse id="Oval-2" cx="17.7909646" cy="17.6001231" rx="17.7909646" ry="17.6001231"></ellipse>
            </g>
            <g id="Group-20" transform="translate(51.539708, 342.143616)" stroke="#979797" stroke-linecap="square">
                <path d="M7.82229794,15.9407326 L7.82229794,24.5817384" id="Line" stroke-width="3"></path>
                <path d="M13.5927766,9.12602695 L13.5927766,23.9772089" id="Line" stroke-width="3"></path>
                <path d="M20.1876094,11.783021 L20.1876094,24.2794736" id="Line" stroke-width="3"></path>
                <path d="M25.9580881,6.66096148 L25.9580881,23.8260765" id="Line" stroke-width="3"></path>
                <path d="M2.80007058,1.46333576 L2.80007058,29.6476932" id="Line"></path>
                <path d="M30.803343,30.4127736 L2.94222663,30.4127736" id="Line"></path>
            </g>
            <g id="icon" transform="translate(237.277147, 351.863605)" stroke="#979797">
                <polygon id="Path-5" points="0.202847201 4.75166657 0.202847201 22.7153206 8.78644385 18.7709779 16.5929271 22.5208952 24.5352998 18.8119074 24.5352998 0.379272974 17.288252 4.32483087 9.2780679 0.954972766"></polygon>
                <path d="M17.2948881,4.63419615 L17.2948881,22.1714221" id="Line" stroke-linecap="square"></path>
                <path d="M9.01556817,1.54473205 L9.01556817,19.0516953" id="Line" stroke-linecap="square"></path>
            </g>
            <g id="icon-play" transform="translate(419.124797, 135.107848)" stroke="#979797">
                <rect id="Rectangle-5" x="0.5" y="0.5" width="38.6875364" height="32.8463905"></rect>
                <polygon id="Triangle" transform="translate(19.843768, 14.215484) rotate(90.000000) translate(-19.843768, -14.215484) " points="19.8437682 9.47698935 26.002179 18.9539787 13.6853574 18.9539787"></polygon>
                <path d="M39.0032686,27.7540402 L11.6325538,27.7540402" id="Line" stroke-linecap="square"></path>
                <path d="M10.264018,26.4001846 L10.264018,29.1078959" id="Line" stroke-linecap="square"></path>
                <path d="M7.52694656,27.7540402 L0.684267869,27.7540402" id="Line" stroke-linecap="square"></path>
            </g>
            <g id="icon-diamant" transform="translate(237.277147, 138.995844)" stroke="#979797">
                <polygon id="Path-2" points="27.6216358 0.88590681 36.5421951 12.3937261 18.9102099 31.7091032 0.123980913 12.5409128 9.91006888 0.796867943"></polygon>
                <polyline id="Path-3" points="10.1340082 1.05308183 10.1340082 13.0617812 27.882135 13.0617812 27.882135 1.22672369"></polyline>
                <polygon id="Path-4" points="18.4722018 2.01312675 9.90575049 12.4676223 19.0237219 31.7484741 28.405115 12.9758101"></polygon>
                <path d="M1.2441234,12.8260006 L34.3378058,12.8260006" id="Line" stroke-linecap="square"></path>
            </g>
            <path d="M256.866126,56.8269441 C256.267096,56.8269441 255.720262,56.7203493 255.225608,56.5071565 C254.730954,56.2939637 254.306647,55.9877871 253.952674,55.5886175 C253.598702,55.189448 253.32415,54.7041014 253.129011,54.1325632 C252.933873,53.561025 252.836305,52.9123842 252.836305,52.1866214 C252.836305,51.4608586 252.933873,50.8144857 253.129011,50.2474835 C253.32415,49.6804813 253.598702,49.2042066 253.952674,48.8186451 C254.306647,48.4330837 254.730954,48.1382469 255.225608,47.9341261 C255.720262,47.7300054 256.267096,47.6279465 256.866126,47.6279465 C257.465157,47.6279465 258.011991,47.7300054 258.506645,47.9341261 C259.001299,48.1382469 259.425606,48.4353516 259.779579,48.8254491 C260.133551,49.2155467 260.408103,49.6940893 260.603241,50.2610915 C260.79838,50.8280937 260.895948,51.4699306 260.895948,52.1866214 C260.895948,52.9123842 260.79838,53.561025 260.603241,54.1325632 C260.408103,54.7041014 260.133551,55.189448 259.779579,55.5886175 C259.425606,55.9877871 259.001299,56.2939637 258.506645,56.5071565 C258.011991,56.7203493 257.465157,56.8269441 256.866126,56.8269441 Z M256.866126,55.0987301 C257.474233,55.0987301 257.955266,54.837913 258.309238,54.316271 C258.663211,53.7946289 258.840194,53.0847528 258.840194,52.1866214 C258.840194,51.2975619 258.663211,50.6035616 258.309238,50.1045997 C257.955266,49.6056378 257.474233,49.3561605 256.866126,49.3561605 C256.25802,49.3561605 255.776987,49.6056378 255.423015,50.1045997 C255.069042,50.6035616 254.892058,51.2975619 254.892058,52.1866214 C254.892058,53.0847528 255.069042,53.7946289 255.423015,54.316271 C255.776987,54.837913 256.25802,55.0987301 256.866126,55.0987301 Z M262.516045,47.7912423 L264.530956,47.7912423 L264.530956,52.7581567 C264.530956,53.6290721 264.662559,54.2368893 264.92577,54.5816267 C265.18898,54.926364 265.570176,55.0987301 266.069368,55.0987301 C266.56856,55.0987301 266.954294,54.926364 267.22658,54.5816267 C267.498867,54.2368893 267.635008,53.6290721 267.635008,52.7581567 L267.635008,47.7912423 L269.568233,47.7912423 L269.568233,52.554037 C269.568233,54.0418507 269.270992,55.1259427 268.676499,55.8063453 C268.082007,56.4867479 267.212972,56.8269441 266.069368,56.8269441 C264.916688,56.8269441 264.036308,56.4867479 263.428201,55.8063453 C262.820094,55.1259427 262.516045,54.0418507 262.516045,52.554037 L262.516045,47.7912423 Z M273.625284,51.8736377 L274.659968,51.8736377 C275.186388,51.8736377 275.588005,51.762507 275.86483,51.5402421 C276.141655,51.3179772 276.280065,50.9891209 276.280065,50.5536632 C276.280065,50.1182055 276.141655,49.8142969 275.86483,49.6419282 C275.588005,49.4695596 275.186388,49.3833765 274.659968,49.3833765 L273.625284,49.3833765 L273.625284,51.8736377 Z M276.429822,56.6636483 L274.728039,53.4657719 L273.625284,53.4657719 L273.625284,56.6636483 L271.623987,56.6636483 L271.623987,47.7912423 L274.823339,47.7912423 C275.295302,47.7912423 275.737761,47.8366018 276.150729,47.9273221 C276.563697,48.0180425 276.924472,48.1699968 277.233063,48.3831896 C277.541655,48.5963825 277.786709,48.8798793 277.968233,49.2336887 C278.149758,49.5874981 278.240519,50.0274852 278.240519,50.5536632 C278.240519,51.2068497 278.09757,51.7443598 277.811669,52.1662094 C277.525768,52.588059 277.142304,52.9033075 276.661264,53.1119643 L278.676175,56.6636483 L276.429822,56.6636483 Z M283.413938,54.1733871 C283.731606,54.4455482 284.083304,54.6678097 284.469044,54.8401784 C284.854783,55.012547 285.23371,55.0987301 285.605835,55.0987301 C286.023341,55.0987301 286.334197,55.0216189 286.538412,54.8673944 C286.742627,54.7131698 286.844733,54.5045161 286.844733,54.2414271 C286.844733,54.1053465 286.815235,53.9874118 286.75624,53.8876195 C286.697244,53.7878271 286.611022,53.699376 286.497569,53.6222638 C286.384116,53.5451515 286.247975,53.4725763 286.089141,53.404536 L285.564992,53.1800042 L284.40778,52.6901168 C284.180874,52.5993964 283.960779,52.4814618 283.747488,52.3363092 C283.534197,52.1911566 283.343599,52.0210585 283.175689,51.8260098 C283.007779,51.630961 282.873906,51.4041635 282.774068,51.1456105 C282.67423,50.8870575 282.624311,50.5944888 282.624311,50.2678955 C282.624311,49.9050141 282.701458,49.5625499 282.855754,49.2404927 C283.010049,48.9184354 283.227875,48.6372066 283.509238,48.3967976 C283.790601,48.1563887 284.124147,47.9681468 284.509887,47.8320663 C284.895626,47.6959857 285.319933,47.6279465 285.78282,47.6279465 C286.300165,47.6279465 286.810694,47.7277374 287.314425,47.9273221 C287.818155,48.1269069 288.260614,48.4172077 288.641815,48.7982332 L287.620746,50.0637757 C287.330306,49.8369749 287.039872,49.6623408 286.749433,49.5398683 C286.458994,49.4173959 286.136793,49.3561605 285.78282,49.3561605 C285.437924,49.3561605 285.163372,49.4264678 284.959157,49.5670843 C284.754942,49.7077009 284.652836,49.9050147 284.652836,50.1590316 C284.652836,50.2951122 284.686872,50.4107789 284.754943,50.5060353 C284.823015,50.6012916 284.918314,50.6874747 285.040843,50.764587 C285.163372,50.8416993 285.30632,50.9142745 285.469692,50.9823147 C285.633064,51.050355 285.810048,51.1251981 286.000648,51.2068465 L287.144246,51.6695179 C287.68882,51.8872468 288.117665,52.1866195 288.430794,52.5676449 C288.743924,52.9486704 288.900486,53.4521608 288.900486,54.0781312 C288.900486,54.4500847 288.825609,54.8016208 288.675851,55.1327501 C288.526093,55.4638793 288.308267,55.7541801 288.022366,56.0036611 C287.736465,56.253142 287.384767,56.4527238 286.967261,56.6024124 C286.549755,56.752101 286.077798,56.8269441 285.551378,56.8269441 C284.9705,56.8269441 284.391899,56.7203493 283.815559,56.5071565 C283.239219,56.2939637 282.724151,55.9741792 282.27034,55.5477936 L283.413938,54.1733871 Z M290.411669,47.7912423 L295.966288,47.7912423 L295.966288,49.4786324 L292.412966,49.4786324 L292.412966,51.2612784 L295.435332,51.2612784 L295.435332,52.9350605 L292.412966,52.9350605 L292.412966,54.9762582 L296.102431,54.9762582 L296.102431,56.6636483 L290.411669,56.6636483 L290.411669,47.7912423 Z M299.873582,51.8736377 L300.908266,51.8736377 C301.434687,51.8736377 301.836303,51.762507 302.113128,51.5402421 C302.389953,51.3179772 302.528363,50.9891209 302.528363,50.5536632 C302.528363,50.1182055 302.389953,49.8142969 302.113128,49.6419282 C301.836303,49.4695596 301.434687,49.3833765 300.908266,49.3833765 L299.873582,49.3833765 L299.873582,51.8736377 Z M302.67812,56.6636483 L300.976337,53.4657719 L299.873582,53.4657719 L299.873582,56.6636483 L297.872285,56.6636483 L297.872285,47.7912423 L301.071637,47.7912423 C301.5436,47.7912423 301.98606,47.8366018 302.399028,47.9273221 C302.811996,48.0180425 303.17277,48.1699968 303.481361,48.3831896 C303.789953,48.5963825 304.035007,48.8798793 304.216532,49.2336887 C304.398056,49.5874981 304.488817,50.0274852 304.488817,50.5536632 C304.488817,51.2068497 304.345869,51.7443598 304.059968,52.1662094 C303.774067,52.588059 303.390602,52.9033075 302.909562,53.1119643 L304.924473,56.6636483 L302.67812,56.6636483 Z M305.115073,47.7912423 L307.238898,47.7912423 L308.30081,51.9280697 C308.436954,52.4179596 308.557212,52.8919663 308.661588,53.3501041 C308.765965,53.8082418 308.886223,54.2822486 309.022366,54.7721385 L309.076823,54.7721385 C309.20389,54.2822486 309.32188,53.8082418 309.430794,53.3501041 C309.539709,52.8919663 309.657698,52.4179596 309.784765,51.9280697 L310.833063,47.7912423 L312.875203,47.7912423 L310.206807,56.6636483 L307.797083,56.6636483 L305.115073,47.7912423 Z M313.828201,47.7912423 L315.829498,47.7912423 L315.829498,56.6636483 L313.828201,56.6636483 L313.828201,47.7912423 Z M317.504052,52.2818773 C317.504052,51.5470424 317.617503,50.8915977 317.844408,50.3155235 C318.071314,49.7394492 318.377632,49.2518347 318.763371,48.8526651 C319.149111,48.4534956 319.598377,48.1495869 320.111183,47.9409301 C320.62399,47.7322733 321.166286,47.6279465 321.738088,47.6279465 C322.291737,47.6279465 322.793191,47.7436132 323.242464,47.9749501 C323.691736,48.206287 324.066125,48.476176 324.36564,48.7846252 L323.262885,50.0229518 C323.035979,49.814295 322.806808,49.6510008 322.575365,49.5330643 C322.343921,49.4151279 322.073908,49.3561605 321.765316,49.3561605 C321.456725,49.3561605 321.168559,49.4219318 320.90081,49.5534763 C320.633062,49.6850208 320.399353,49.8732627 320.199676,50.1182077 C319.999999,50.3631526 319.843437,50.6625253 319.729984,51.0163347 C319.616531,51.370144 319.559806,51.7693076 319.559806,52.2138373 C319.559806,53.1301129 319.754941,53.839989 320.145219,54.3434869 C320.535496,54.8469849 321.057371,55.0987301 321.710859,55.0987301 C322.073908,55.0987301 322.391571,55.0261549 322.663857,54.8810023 C322.936144,54.7358498 323.181198,54.5453399 323.399028,54.309467 L324.501783,55.5205776 C324.129658,55.9560353 323.705351,56.2826237 323.228849,56.5003525 C322.752348,56.7180814 322.23728,56.8269441 321.68363,56.8269441 C321.111829,56.8269441 320.571802,56.7294212 320.063533,56.5343725 C319.555265,56.3393237 319.110537,56.0512909 318.729335,55.6702654 C318.348134,55.28924 318.048623,54.8152332 317.830794,54.248231 C317.612965,53.6812288 317.504052,53.0257841 317.504052,52.2818773 Z M325.849595,47.7912423 L331.404214,47.7912423 L331.404214,49.4786324 L327.850891,49.4786324 L327.850891,51.2612784 L330.873258,51.2612784 L330.873258,52.9350605 L327.850891,52.9350605 L327.850891,54.9762582 L331.540357,54.9762582 L331.540357,56.6636483 L325.849595,56.6636483 L325.849595,47.7912423 Z M333.88201,54.1733871 C334.199677,54.4455482 334.551376,54.6678097 334.937115,54.8401784 C335.322854,55.012547 335.701781,55.0987301 336.073906,55.0987301 C336.491412,55.0987301 336.802268,55.0216189 337.006483,54.8673944 C337.210698,54.7131698 337.312804,54.5045161 337.312804,54.2414271 C337.312804,54.1053465 337.283307,53.9874118 337.224311,53.8876195 C337.165316,53.7878271 337.079093,53.699376 336.96564,53.6222638 C336.852187,53.5451515 336.716046,53.4725763 336.557212,53.404536 L336.033063,53.1800042 L334.875851,52.6901168 C334.648945,52.5993964 334.42885,52.4814618 334.215559,52.3363092 C334.002268,52.1911566 333.81167,52.0210585 333.64376,51.8260098 C333.47585,51.630961 333.341978,51.4041635 333.242139,51.1456105 C333.142301,50.8870575 333.092382,50.5944888 333.092382,50.2678955 C333.092382,49.9050141 333.169529,49.5625499 333.323825,49.2404927 C333.478121,48.9184354 333.695947,48.6372066 333.97731,48.3967976 C334.258672,48.1563887 334.592218,47.9681468 334.977958,47.8320663 C335.363697,47.6959857 335.788004,47.6279465 336.250891,47.6279465 C336.768236,47.6279465 337.278766,47.7277374 337.782496,47.9273221 C338.286226,48.1269069 338.728685,48.4172077 339.109887,48.7982332 L338.088817,50.0637757 C337.798378,49.8369749 337.507943,49.6623408 337.217504,49.5398683 C336.927065,49.4173959 336.604864,49.3561605 336.250891,49.3561605 C335.905995,49.3561605 335.631443,49.4264678 335.427229,49.5670843 C335.223014,49.7077009 335.120908,49.9050147 335.120908,50.1590316 C335.120908,50.2951122 335.154943,50.4107789 335.223015,50.5060353 C335.291086,50.6012916 335.386385,50.6874747 335.508914,50.764587 C335.631443,50.8416993 335.774391,50.9142745 335.937763,50.9823147 C336.101135,51.050355 336.278119,51.1251981 336.46872,51.2068465 L337.612318,51.6695179 C338.156891,51.8872468 338.585736,52.1866195 338.898865,52.5676449 C339.211995,52.9486704 339.368558,53.4521608 339.368558,54.0781312 C339.368558,54.4500847 339.29368,54.8016208 339.143922,55.1327501 C338.994165,55.4638793 338.776339,55.7541801 338.490438,56.0036611 C338.204537,56.253142 337.852838,56.4527238 337.435332,56.6024124 C337.017826,56.752101 336.54587,56.8269441 336.019449,56.8269441 C335.438571,56.8269441 334.85997,56.7203493 334.28363,56.5071565 C333.70729,56.2939637 333.192223,55.9741792 332.738412,55.5477936 L333.88201,54.1733871 Z" id="OUR-SERVICES" fill="#4A4A4A"></path>
        </g>
    </g>
</svg>