<?xml version="1.0" encoding="UTF-8"?>
<svg width="600px" height="326px" viewBox="0 0 600 326" version="1.1" xmlns="http://www.w3.org/2000/svg" xmlns:xlink="http://www.w3.org/1999/xlink">
    <!-- Generator: Sketch 44.1 (41455) - http://www.bohemiancoding.com/sketch -->
    <title>services12</title>
    <desc>Created with Sketch.</desc>
    <defs></defs>
    <g id="Services" stroke="none" stroke-width="1" fill="none" fill-rule="evenodd">
        <g id="12">
            <path d="M262.311558,12.4904695 C262.84362,12.9465204 263.432679,13.3189563 264.078754,13.6077886 C264.724829,13.8966208 265.359493,14.0410347 265.982766,14.0410347 C266.682047,14.0410347 267.202699,13.9118222 267.544739,13.6533934 C267.886779,13.3949646 268.057796,13.0453308 268.057796,12.6044816 C268.057796,12.3764562 268.008391,12.1788371 267.909579,12.0116185 C267.810768,11.8443998 267.666353,11.6961855 267.476331,11.5669711 C267.286309,11.4377567 267.058286,11.3161449 266.792255,11.2021322 L265.914358,10.8258921 L263.976143,10.0050046 C263.596099,9.85298767 263.227461,9.65536858 262.87022,9.41214145 C262.512978,9.16891431 262.193746,8.88388679 261.912514,8.55705033 C261.631281,8.23021387 261.407058,7.85017717 261.239839,7.41692883 C261.072619,6.9836805 260.989011,6.49343316 260.989011,5.9461721 C260.989011,5.33810427 261.118224,4.76424885 261.376654,4.22458865 C261.635084,3.68492844 261.999921,3.21368294 262.471176,2.81083799 C262.94243,2.40799305 263.501087,2.09256259 264.147162,1.86453715 C264.793237,1.63651171 265.503908,1.5225007 266.279198,1.5225007 C267.145699,1.5225007 268.000785,1.68971685 268.844483,2.02415416 C269.688181,2.35859147 270.429256,2.84503845 271.06773,3.48350968 L269.35754,5.60413566 C268.871084,5.22409326 268.384635,4.931465 267.898178,4.7262421 C267.411722,4.52101921 266.872067,4.4184093 266.279198,4.4184093 C265.701531,4.4184093 265.241685,4.53622068 264.899645,4.77184696 C264.557606,5.00747325 264.386588,5.33810518 264.386588,5.76375267 C264.386588,5.9917781 264.443594,6.18559682 264.557607,6.34521463 C264.671621,6.50483244 264.831237,6.64924638 265.03646,6.7784608 C265.241684,6.90767521 265.481108,7.02928695 265.75474,7.14329967 C266.028372,7.25731239 266.324802,7.3827245 266.644039,7.51953977 L268.559452,8.29482238 C269.471557,8.65966309 270.18983,9.16131153 270.714291,9.79978276 C271.238752,10.438254 271.500978,11.2819355 271.500978,12.3308525 C271.500978,12.954122 271.375566,13.5431789 271.124736,14.0980408 C270.873907,14.6529027 270.509071,15.1393497 270.030215,15.5573963 C269.551359,15.9754429 268.9623,16.3098752 268.263019,16.5607032 C267.563738,16.8115312 266.773258,16.9369433 265.891555,16.9369433 C264.918643,16.9369433 263.949545,16.7583261 262.984233,16.4010862 C262.018921,16.0438464 261.156233,15.5079946 260.396145,14.7935149 L262.311558,12.4904695 Z M273.097156,11.0083115 C273.097156,10.0962098 273.249171,9.27153015 273.553206,8.5342479 C273.857241,7.79696564 274.256282,7.17370546 274.750339,6.66444865 C275.244396,6.15519183 275.810654,5.76375403 276.449128,5.49012351 C277.087602,5.21649298 277.748869,5.07967977 278.432948,5.07967977 C279.238641,5.07967977 279.941713,5.21649298 280.542182,5.49012351 C281.142652,5.76375403 281.644303,6.14379073 282.047149,6.630245 C282.449996,7.11669927 282.750226,7.69055469 282.947849,8.35182846 C283.145472,9.01310223 283.244282,9.73137159 283.244282,10.5066581 C283.244282,10.810692 283.229081,11.0881188 283.198677,11.3389468 C283.168274,11.5897748 283.137871,11.7835935 283.107467,11.9204087 L276.335115,11.9204087 C276.487133,12.7869054 276.825367,13.413966 277.349828,13.8016092 C277.874289,14.1892525 278.516553,14.3830712 279.276642,14.3830712 C280.082335,14.3830712 280.895617,14.1322469 281.716513,13.630591 L282.833837,15.6600072 C282.25617,16.0552513 281.613905,16.3668814 280.907023,16.5949069 C280.200141,16.8229323 279.50467,16.9369433 278.820591,16.9369433 C278.014898,16.9369433 277.262422,16.8039305 276.56314,16.5379008 C275.863859,16.2718711 275.255798,15.8842337 274.738938,15.3749769 C274.222078,14.8657201 273.819237,14.2462602 273.530404,13.5165788 C273.24157,12.7868974 273.097156,11.9508167 273.097156,11.0083115 Z M280.393966,9.84538762 C280.393966,9.19171469 280.249551,8.65966331 279.960718,8.24921752 C279.671884,7.83877173 279.185435,7.63355192 278.501356,7.63355192 C277.969294,7.63355192 277.501847,7.81216916 277.099,8.16940902 C276.696153,8.52664887 276.433927,9.08530282 276.312313,9.84538762 L280.393966,9.84538762 Z M285.570141,5.35330893 L288.306444,5.35330893 L288.53447,7.33712033 L288.62568,7.33712033 C289.036127,6.56183384 289.530177,5.99177879 290.107844,5.62693809 C290.685511,5.26209738 291.26317,5.07967977 291.840837,5.07967977 C292.160074,5.07967977 292.4223,5.0986816 292.627524,5.13668584 C292.832748,5.17469008 293.018967,5.23169559 293.186186,5.30770407 L292.638925,8.20361266 C292.426101,8.14280588 292.228481,8.09720148 292.04606,8.06679809 C291.863638,8.03639469 291.650817,8.02119323 291.407589,8.02119323 C290.981939,8.02119323 290.537294,8.1732079 290.073641,8.47724182 C289.609987,8.78127574 289.226148,9.32092785 288.922113,10.0962143 L288.922113,16.6633142 L285.570141,16.6633142 L285.570141,5.35330893 Z M293.437014,5.35330893 L296.811789,5.35330893 L298.271151,10.6890775 C298.423168,11.2515403 298.571383,11.8253957 298.7158,12.410661 C298.860217,12.9959263 299.008432,13.5849832 299.16045,14.1778493 L299.25166,14.1778493 C299.388476,13.5849832 299.52909,12.9959263 299.673507,12.410661 C299.817923,11.8253957 299.966138,11.2515403 300.118156,10.6890775 L301.600321,5.35330893 L304.815478,5.35330893 L301.121467,16.6633142 L297.245037,16.6633142 L293.437014,5.35330893 Z M308.235857,3.68873154 C307.673392,3.68873154 307.209745,3.52531576 306.844903,3.1984793 C306.480061,2.87164284 306.297642,2.4498021 306.297642,1.93294444 C306.297642,1.41608678 306.480061,0.998046413 306.844903,0.678810798 C307.209745,0.359575183 307.673392,0.19995977 308.235857,0.19995977 C308.813524,0.19995977 309.280972,0.359575183 309.638213,0.678810798 C309.995454,0.998046413 310.174073,1.41608678 310.174073,1.93294444 C310.174073,2.4498021 309.995454,2.87164284 309.638213,3.1984793 C309.280972,3.52531576 308.813524,3.68873154 308.235857,3.68873154 Z M306.571272,5.35330893 L309.923245,5.35330893 L309.923245,16.6633142 L306.571272,16.6633142 L306.571272,5.35330893 Z M312.203498,11.0083115 C312.203498,10.0658064 312.363114,9.22592529 312.682351,8.48864304 C313.001588,7.75136079 313.431031,7.13190097 313.970694,6.630245 C314.510357,6.12858904 315.13742,5.74475197 315.851903,5.47872229 C316.566386,5.21269261 317.311261,5.07967977 318.086551,5.07967977 C318.785832,5.07967977 319.416696,5.19749114 319.979161,5.43311743 C320.541627,5.66874372 321.012874,5.98417418 321.392918,6.37941827 L319.865149,8.45443939 C319.333087,8.01359021 318.808634,7.79316893 318.291774,7.79316893 C317.470879,7.79316893 316.824813,8.08199682 316.353559,8.65966126 C315.882304,9.23732571 315.64668,10.0202013 315.64668,11.0083115 C315.64668,11.9964218 315.886104,12.7792974 316.36496,13.3569618 C316.843816,13.9346263 317.448077,14.2234542 318.177761,14.2234542 C318.588209,14.2234542 318.960647,14.1398461 319.295085,13.9726274 C319.629524,13.8054088 319.933555,13.6153904 320.207187,13.4025667 L321.552536,15.5231927 C321.005272,16.0096469 320.397211,16.3668814 319.728333,16.5949069 C319.059456,16.8229323 318.413391,16.9369433 317.790118,16.9369433 C316.999626,16.9369433 316.266152,16.8039305 315.589674,16.5379008 C314.913195,16.2718711 314.324136,15.888034 313.822478,15.3863781 C313.320819,14.8847221 312.92558,14.2652623 312.636746,13.52798 C312.347912,12.7906978 312.203498,11.9508167 312.203498,11.0083115 Z M322.85228,11.0083115 C322.85228,10.0962098 323.004296,9.27153015 323.308331,8.5342479 C323.612366,7.79696564 324.011407,7.17370546 324.505464,6.66444865 C324.999521,6.15519183 325.565778,5.76375403 326.204253,5.49012351 C326.842727,5.21649298 327.503993,5.07967977 328.188073,5.07967977 C328.993766,5.07967977 329.696837,5.21649298 330.297307,5.49012351 C330.897777,5.76375403 331.399427,6.14379073 331.802274,6.630245 C332.205121,7.11669927 332.505351,7.69055469 332.702974,8.35182846 C332.900597,9.01310223 332.999407,9.73137159 332.999407,10.5066581 C332.999407,10.810692 332.984206,11.0881188 332.953802,11.3389468 C332.923398,11.5897748 332.892995,11.7835935 332.862592,11.9204087 L326.09024,11.9204087 C326.242258,12.7869054 326.580492,13.413966 327.104953,13.8016092 C327.629413,14.1892525 328.271678,14.3830712 329.031766,14.3830712 C329.83746,14.3830712 330.650742,14.1322469 331.471637,13.630591 L332.588961,15.6600072 C332.011294,16.0552513 331.36903,16.3668814 330.662148,16.5949069 C329.955266,16.8229323 329.259795,16.9369433 328.575716,16.9369433 C327.770022,16.9369433 327.017546,16.8039305 326.318265,16.5379008 C325.618984,16.2718711 325.010923,15.8842337 324.494063,15.3749769 C323.977203,14.8657201 323.574362,14.2462602 323.285528,13.5165788 C322.996695,12.7868974 322.85228,11.9508167 322.85228,11.0083115 Z M330.149091,9.84538762 C330.149091,9.19171469 330.004676,8.65966331 329.715842,8.24921752 C329.427009,7.83877173 328.94056,7.63355192 328.25648,7.63355192 C327.724419,7.63355192 327.256971,7.81216916 326.854125,8.16940902 C326.451278,8.52664887 326.189051,9.08530282 326.067437,9.84538762 L330.149091,9.84538762 Z M335.826921,13.2657521 C336.343781,13.6609962 336.837831,13.9574248 337.309086,14.1550469 C337.78034,14.3526689 338.259189,14.4514785 338.745645,14.4514785 C339.247303,14.4514785 339.61214,14.3678704 339.840167,14.2006517 C340.068193,14.0334331 340.182205,13.7978103 340.182205,13.4937764 C340.182205,13.311356 340.117598,13.1479403 339.988383,13.0035242 C339.859168,12.859108 339.68435,12.7260952 339.463925,12.6044816 C339.243499,12.4828681 338.996474,12.3726574 338.722843,12.2738464 C338.449211,12.1750354 338.167982,12.0648247 337.879149,11.9432112 C337.529508,11.8063959 337.179873,11.6467805 336.830232,11.4643601 C336.480592,11.2819398 336.16136,11.0577181 335.872526,10.7916885 C335.583693,10.5256588 335.348069,10.2140287 335.165648,9.85678883 C334.983226,9.49954898 334.892017,9.08530898 334.892017,8.6140564 C334.892017,8.09719874 334.994628,7.6183525 335.199851,7.17750332 C335.405075,6.73665414 335.697705,6.36421817 336.077749,6.06018425 C336.457793,5.75615034 336.913839,5.51672722 337.445901,5.34190771 C337.977963,5.16708821 338.570822,5.07967977 339.224498,5.07967977 C340.090999,5.07967977 340.851076,5.22789408 341.504751,5.52432715 C342.158427,5.82076022 342.728485,6.15139215 343.214941,6.51623285 L341.709974,8.52284668 C341.299527,8.21881276 340.896686,7.98319001 340.50144,7.81597136 C340.106194,7.6487527 339.710954,7.56514463 339.315708,7.56514463 C338.46441,7.56514463 338.038767,7.86157325 338.038767,8.45443939 C338.038767,8.63685974 338.099573,8.79267479 338.221187,8.92188921 C338.342801,9.05110362 338.506218,9.168915 338.711441,9.27532687 C338.916665,9.38173874 339.152289,9.48434865 339.41832,9.58315967 C339.684351,9.6819707 339.961779,9.78458061 340.250612,9.89099248 C340.615455,10.0278077 340.976491,10.1836228 341.333733,10.3584423 C341.690974,10.5332618 342.017807,10.7498827 342.314241,11.0083115 C342.610676,11.2667404 342.8501,11.5821708 343.032521,11.9546124 C343.214942,12.3270539 343.306152,12.7716969 343.306152,13.2885545 C343.306152,13.8054122 343.207342,14.2842584 343.009719,14.7251076 C342.812096,15.1659568 342.515666,15.5497939 342.12042,15.8766303 C341.725174,16.2034668 341.238725,16.4618917 340.661058,16.6519129 C340.083391,16.8419341 339.414523,16.9369433 338.654435,16.9369433 C337.909549,16.9369433 337.145671,16.7925294 336.362781,16.5036971 C335.57989,16.2148649 334.899621,15.8348282 334.321954,15.3635757 L335.826921,13.2657521 Z" id="Services" fill="#4A4A4A"></path>
            <g id="Group-14" transform="translate(0.000000, 54.375025)">
                <rect id="Rectangle-12" fill="#4990E2" x="0" y="0" width="191.190461" height="100.856901"></rect>
                <path d="M17.0422616,63.2820051 C16.6546166,63.2820051 16.3011809,63.2002972 15.9819439,63.0368789 C15.6627068,62.8734607 15.3909794,62.6321374 15.1667533,62.3129018 C14.9425273,61.9936662 14.7677097,61.598428 14.6422951,61.1271754 C14.5168806,60.6559229 14.4541742,60.1124704 14.4541742,59.4968017 C14.4541742,58.881133 14.5168806,58.3414809 14.6422951,57.8778292 C14.7677097,57.4141775 14.9425273,57.0246398 15.1667533,56.7092047 C15.3909794,56.3937695 15.6627068,56.1581467 15.9819439,56.0023293 C16.3011809,55.8465119 16.6546166,55.7686044 17.0422616,55.7686044 C17.4299066,55.7686044 17.7833423,55.8465119 18.1025793,56.0023293 C18.4218164,56.1581467 18.6935438,56.3937695 18.9177699,56.7092047 C19.1419959,57.0246398 19.3168135,57.4141775 19.4422281,57.8778292 C19.5676427,58.3414809 19.630349,58.881133 19.630349,59.4968017 C19.630349,60.1124704 19.5676427,60.6559229 19.4422281,61.1271754 C19.3168135,61.598428 19.1419959,61.9936662 18.9177699,62.3129018 C18.6935438,62.6321374 18.4218164,62.8734607 18.1025793,63.0368789 C17.7833423,63.2002972 17.4299066,63.2820051 17.0422616,63.2820051 Z M17.0422616,61.9822666 C17.1866784,61.9822666 17.3196918,61.9461631 17.4413059,61.873955 C17.56292,61.801747 17.6693308,61.6706343 17.7605414,61.4806131 C17.8517519,61.2905919 17.9220591,61.0359673 17.9714648,60.7167317 C18.0208705,60.3974961 18.045573,59.9908568 18.045573,59.4968017 C18.045573,59.0027466 18.0208705,58.5980075 17.9714648,58.2825723 C17.9220591,57.9671371 17.8517519,57.7201133 17.7605414,57.5414933 C17.6693308,57.3628734 17.56292,57.2393615 17.4413059,57.1709539 C17.3196918,57.1025462 17.1866784,57.0683429 17.0422616,57.0683429 C16.9054457,57.0683429 16.7762327,57.1025462 16.6546186,57.1709539 C16.5330044,57.2393615 16.4265937,57.3628734 16.3353831,57.5414933 C16.2441725,57.7201133 16.1719652,57.9671371 16.1187591,58.2825723 C16.0655529,58.5980075 16.0389502,59.0027466 16.0389502,59.4968017 C16.0389502,59.9908568 16.0655529,60.3974961 16.1187591,60.7167317 C16.1719652,61.0359673 16.2441725,61.2905919 16.3353831,61.4806131 C16.4265937,61.6706343 16.5330044,61.801747 16.6546186,61.873955 C16.7762327,61.9461631 16.9054457,61.9822666 17.0422616,61.9822666 Z M20.8502844,61.7884459 L22.4236592,61.7884459 L22.4236592,57.6042 L21.0669085,57.6042 L21.0669085,56.5666895 C21.4621544,56.490681 21.7965882,56.3994722 22.0702199,56.2930603 C22.3438517,56.1866484 22.6098785,56.057436 22.8683085,55.905419 L24.0996453,55.905419 L24.0996453,61.7884459 L25.4563959,61.7884459 L25.4563959,63.1451905 L20.8502844,63.1451905 L20.8502844,61.7884459 Z" id="01" fill="#FFFFFF"></path>
                <path d="M16.2248785,78.0544716 L76.0232696,78.0544716" id="Line" stroke="#FFFFFF" stroke-width="8" stroke-linecap="square"></path>
                <path d="M164.441337,16.2248059 L164.441337,39.0945991" id="Line" stroke="#FFFFFF" stroke-linecap="square"></path>
                <path d="M153.040071,27.6260208 L175.909966,27.6260208" id="Line" stroke="#FFFFFF" stroke-linecap="square"></path>
            </g>
            <g id="Group-14" transform="translate(206.099808, 54.375025)">
                <rect id="Rectangle-12" fill="#4990E2" x="0" y="0" width="191.190461" height="100.856901"></rect>
                <path d="M17.0422616,63.2820051 C16.6546166,63.2820051 16.3011809,63.2002972 15.9819439,63.0368789 C15.6627068,62.8734607 15.3909794,62.6321374 15.1667533,62.3129018 C14.9425273,61.9936662 14.7677097,61.598428 14.6422951,61.1271754 C14.5168806,60.6559229 14.4541742,60.1124704 14.4541742,59.4968017 C14.4541742,58.881133 14.5168806,58.3414809 14.6422951,57.8778292 C14.7677097,57.4141775 14.9425273,57.0246398 15.1667533,56.7092047 C15.3909794,56.3937695 15.6627068,56.1581467 15.9819439,56.0023293 C16.3011809,55.8465119 16.6546166,55.7686044 17.0422616,55.7686044 C17.4299066,55.7686044 17.7833423,55.8465119 18.1025793,56.0023293 C18.4218164,56.1581467 18.6935438,56.3937695 18.9177699,56.7092047 C19.1419959,57.0246398 19.3168135,57.4141775 19.4422281,57.8778292 C19.5676427,58.3414809 19.630349,58.881133 19.630349,59.4968017 C19.630349,60.1124704 19.5676427,60.6559229 19.4422281,61.1271754 C19.3168135,61.598428 19.1419959,61.9936662 18.9177699,62.3129018 C18.6935438,62.6321374 18.4218164,62.8734607 18.1025793,63.0368789 C17.7833423,63.2002972 17.4299066,63.2820051 17.0422616,63.2820051 Z M17.0422616,61.9822666 C17.1866784,61.9822666 17.3196918,61.9461631 17.4413059,61.873955 C17.56292,61.801747 17.6693308,61.6706343 17.7605414,61.4806131 C17.8517519,61.2905919 17.9220591,61.0359673 17.9714648,60.7167317 C18.0208705,60.3974961 18.045573,59.9908568 18.045573,59.4968017 C18.045573,59.0027466 18.0208705,58.5980075 17.9714648,58.2825723 C17.9220591,57.9671371 17.8517519,57.7201133 17.7605414,57.5414933 C17.6693308,57.3628734 17.56292,57.2393615 17.4413059,57.1709539 C17.3196918,57.1025462 17.1866784,57.0683429 17.0422616,57.0683429 C16.9054457,57.0683429 16.7762327,57.1025462 16.6546186,57.1709539 C16.5330044,57.2393615 16.4265937,57.3628734 16.3353831,57.5414933 C16.2441725,57.7201133 16.1719652,57.9671371 16.1187591,58.2825723 C16.0655529,58.5980075 16.0389502,59.0027466 16.0389502,59.4968017 C16.0389502,59.9908568 16.0655529,60.3974961 16.1187591,60.7167317 C16.1719652,61.0359673 16.2441725,61.2905919 16.3353831,61.4806131 C16.4265937,61.6706343 16.5330044,61.801747 16.6546186,61.873955 C16.7762327,61.9461631 16.9054457,61.9822666 17.0422616,61.9822666 Z M20.4740427,62.1874884 C20.9376965,61.7542401 21.3614393,61.349501 21.7452838,60.973259 C22.1291284,60.5970171 22.4597618,60.2435829 22.737194,59.9129461 C23.0146262,59.5823092 23.2312481,59.2744794 23.3870661,58.9894476 C23.5428842,58.7044158 23.6207921,58.4326896 23.6207921,58.1742608 C23.6207921,57.8170209 23.5295829,57.5452947 23.3471617,57.3590739 C23.1647405,57.1728531 22.9139152,57.0797441 22.5946781,57.0797441 C22.3286473,57.0797441 22.0930235,57.1538513 21.8877997,57.3020678 C21.6825758,57.4502844 21.4887563,57.6232011 21.3063351,57.8208231 L20.3942338,56.9201271 C20.7514753,56.5400847 21.1163121,56.253157 21.4887553,56.0593354 C21.8611986,55.8655138 22.3058435,55.7686044 22.8227035,55.7686044 C23.1799449,55.7686044 23.5048778,55.8237097 23.7975117,55.933922 C24.0901457,56.0441343 24.3428712,56.1999494 24.5556959,56.4013718 C24.7685206,56.6027943 24.9319371,56.8441176 25.0459503,57.125349 C25.1599636,57.4065804 25.2169693,57.7220108 25.2169693,58.0716498 C25.2169693,58.3756838 25.1523628,58.6854137 25.0231478,59.0008489 C24.8939328,59.316284 24.7210153,59.6317145 24.5043902,59.9471497 C24.2877651,60.2625849 24.0407401,60.5780153 23.7633079,60.8934505 C23.4858757,61.2088857 23.1989467,61.5186156 22.9025123,61.8226496 C23.0849335,61.799847 23.288254,61.778945 23.5124801,61.7599429 C23.7367061,61.7409408 23.9362262,61.7314398 24.1110465,61.7314398 L25.5704086,61.7314398 L25.5704086,63.1451905 L20.4740427,63.1451905 L20.4740427,62.1874884 Z" id="02" fill="#FFFFFF"></path>
                <path d="M16.2248785,78.0544716 L76.0232696,78.0544716" id="Line" stroke="#FFFFFF" stroke-width="8" stroke-linecap="square"></path>
                <path d="M164.441337,16.2248059 L164.441337,39.0945991" id="Line" stroke="#FFFFFF" stroke-linecap="square"></path>
                <path d="M153.040071,27.6260208 L175.909966,27.6260208" id="Line" stroke="#FFFFFF" stroke-linecap="square"></path>
            </g>
            <g id="Group-14" transform="translate(407.814515, 54.375025)">
                <rect id="Rectangle-12" fill="#4990E2" x="0" y="0" width="191.190461" height="100.856901"></rect>
                <path d="M17.0422616,63.2820051 C16.6546166,63.2820051 16.3011809,63.2002972 15.9819439,63.0368789 C15.6627068,62.8734607 15.3909794,62.6321374 15.1667533,62.3129018 C14.9425273,61.9936662 14.7677097,61.598428 14.6422951,61.1271754 C14.5168806,60.6559229 14.4541742,60.1124704 14.4541742,59.4968017 C14.4541742,58.881133 14.5168806,58.3414809 14.6422951,57.8778292 C14.7677097,57.4141775 14.9425273,57.0246398 15.1667533,56.7092047 C15.3909794,56.3937695 15.6627068,56.1581467 15.9819439,56.0023293 C16.3011809,55.8465119 16.6546166,55.7686044 17.0422616,55.7686044 C17.4299066,55.7686044 17.7833423,55.8465119 18.1025793,56.0023293 C18.4218164,56.1581467 18.6935438,56.3937695 18.9177699,56.7092047 C19.1419959,57.0246398 19.3168135,57.4141775 19.4422281,57.8778292 C19.5676427,58.3414809 19.630349,58.881133 19.630349,59.4968017 C19.630349,60.1124704 19.5676427,60.6559229 19.4422281,61.1271754 C19.3168135,61.598428 19.1419959,61.9936662 18.9177699,62.3129018 C18.6935438,62.6321374 18.4218164,62.8734607 18.1025793,63.0368789 C17.7833423,63.2002972 17.4299066,63.2820051 17.0422616,63.2820051 Z M17.0422616,61.9822666 C17.1866784,61.9822666 17.3196918,61.9461631 17.4413059,61.873955 C17.56292,61.801747 17.6693308,61.6706343 17.7605414,61.4806131 C17.8517519,61.2905919 17.9220591,61.0359673 17.9714648,60.7167317 C18.0208705,60.3974961 18.045573,59.9908568 18.045573,59.4968017 C18.045573,59.0027466 18.0208705,58.5980075 17.9714648,58.2825723 C17.9220591,57.9671371 17.8517519,57.7201133 17.7605414,57.5414933 C17.6693308,57.3628734 17.56292,57.2393615 17.4413059,57.1709539 C17.3196918,57.1025462 17.1866784,57.0683429 17.0422616,57.0683429 C16.9054457,57.0683429 16.7762327,57.1025462 16.6546186,57.1709539 C16.5330044,57.2393615 16.4265937,57.3628734 16.3353831,57.5414933 C16.2441725,57.7201133 16.1719652,57.9671371 16.1187591,58.2825723 C16.0655529,58.5980075 16.0389502,59.0027466 16.0389502,59.4968017 C16.0389502,59.9908568 16.0655529,60.3974961 16.1187591,60.7167317 C16.1719652,61.0359673 16.2441725,61.2905919 16.3353831,61.4806131 C16.4265937,61.6706343 16.5330044,61.801747 16.6546186,61.873955 C16.7762327,61.9461631 16.9054457,61.9822666 17.0422616,61.9822666 Z M21.0783098,61.1955827 C21.2987353,61.4084065 21.5400597,61.5832234 21.8022902,61.7200386 C22.0645206,61.8568539 22.3514496,61.9252605 22.6630857,61.9252605 C23.0203272,61.9252605 23.305356,61.8511533 23.5181807,61.7029368 C23.7310054,61.5547203 23.8374161,61.3437999 23.8374161,61.0701694 C23.8374161,60.9105516 23.8089133,60.7661376 23.7519066,60.6369232 C23.6949,60.5077088 23.5941899,60.3993983 23.4497731,60.3119886 C23.3053563,60.2245788 23.1077364,60.1561722 22.8569073,60.1067667 C22.6060782,60.0573612 22.2830455,60.0326588 21.8877997,60.0326588 L21.8877997,58.8469325 C22.2146376,58.8469325 22.486365,58.8241303 22.7029902,58.7785252 C22.9196153,58.7329201 23.094433,58.6664137 23.2274484,58.5790039 C23.3604638,58.4915942 23.4554734,58.3889842 23.5124801,58.2711711 C23.5694867,58.153358 23.5979896,58.0222453 23.5979896,57.8778292 C23.5979896,57.6270012 23.5219819,57.4312823 23.3699642,57.2906666 C23.2179466,57.1500509 22.9975243,57.0797441 22.7086908,57.0797441 C22.4502608,57.0797441 22.2165372,57.1367496 22.0075129,57.2507624 C21.7984887,57.3647751 21.5799666,57.5205901 21.3519402,57.7182122 L20.5082465,56.6921028 C20.8426853,56.4032706 21.1942208,56.1771488 21.5628636,56.0137305 C21.9315064,55.8503123 22.3400476,55.7686044 22.7884997,55.7686044 C23.1609429,55.7686044 23.5010773,55.8123086 23.808913,55.8997184 C24.1167487,55.9871281 24.3789752,56.1163406 24.5956003,56.2873597 C24.8122255,56.4583788 24.9813426,56.6654988 25.1029567,56.9087259 C25.2245708,57.151953 25.2853769,57.4331802 25.2853769,57.7524158 C25.2853769,58.1324582 25.1808664,58.4535892 24.9718421,58.7158185 C24.7628179,58.9780477 24.4644877,59.1927685 24.0768427,59.3599871 L24.0768427,59.405592 C24.4948912,59.5272056 24.838826,59.7343256 25.1086573,60.0269582 C25.3784886,60.3195908 25.5134022,60.7015277 25.5134022,61.1727803 C25.5134022,61.5072176 25.4411949,61.8055464 25.2967782,62.0677757 C25.1523614,62.3300049 24.9585418,62.5504262 24.7153136,62.7290461 C24.4720854,62.9076661 24.1870566,63.0444793 23.8602187,63.1394899 C23.5333807,63.2345005 23.1875458,63.2820051 22.8227035,63.2820051 C22.2298347,63.2820051 21.728184,63.1888961 21.3177364,63.0026753 C20.9072887,62.8164545 20.5690546,62.5675305 20.3030237,62.2558957 L21.0783098,61.1955827 Z" id="03" fill="#FFFFFF"></path>
                <path d="M16.2248785,78.0544716 L76.0232696,78.0544716" id="Line" stroke="#FFFFFF" stroke-width="8" stroke-linecap="square"></path>
                <path d="M164.441337,16.2248059 L164.441337,39.0945991" id="Line" stroke="#FFFFFF" stroke-linecap="square"></path>
                <path d="M153.040071,27.6260208 L175.909966,27.6260208" id="Line" stroke="#FFFFFF" stroke-linecap="square"></path>
            </g>
            <g id="Group-14" transform="translate(0.000000, 164.879109)">
                <rect id="Rectangle-12" fill="#4990E2" x="0" y="0" width="191.190461" height="100.856901"></rect>
                <path d="M17.0422616,63.2820051 C16.6546166,63.2820051 16.3011809,63.2002972 15.9819439,63.0368789 C15.6627068,62.8734607 15.3909794,62.6321374 15.1667533,62.3129018 C14.9425273,61.9936662 14.7677097,61.598428 14.6422951,61.1271754 C14.5168806,60.6559229 14.4541742,60.1124704 14.4541742,59.4968017 C14.4541742,58.881133 14.5168806,58.3414809 14.6422951,57.8778292 C14.7677097,57.4141775 14.9425273,57.0246398 15.1667533,56.7092047 C15.3909794,56.3937695 15.6627068,56.1581467 15.9819439,56.0023293 C16.3011809,55.8465119 16.6546166,55.7686044 17.0422616,55.7686044 C17.4299066,55.7686044 17.7833423,55.8465119 18.1025793,56.0023293 C18.4218164,56.1581467 18.6935438,56.3937695 18.9177699,56.7092047 C19.1419959,57.0246398 19.3168135,57.4141775 19.4422281,57.8778292 C19.5676427,58.3414809 19.630349,58.881133 19.630349,59.4968017 C19.630349,60.1124704 19.5676427,60.6559229 19.4422281,61.1271754 C19.3168135,61.598428 19.1419959,61.9936662 18.9177699,62.3129018 C18.6935438,62.6321374 18.4218164,62.8734607 18.1025793,63.0368789 C17.7833423,63.2002972 17.4299066,63.2820051 17.0422616,63.2820051 Z M17.0422616,61.9822666 C17.1866784,61.9822666 17.3196918,61.9461631 17.4413059,61.873955 C17.56292,61.801747 17.6693308,61.6706343 17.7605414,61.4806131 C17.8517519,61.2905919 17.9220591,61.0359673 17.9714648,60.7167317 C18.0208705,60.3974961 18.045573,59.9908568 18.045573,59.4968017 C18.045573,59.0027466 18.0208705,58.5980075 17.9714648,58.2825723 C17.9220591,57.9671371 17.8517519,57.7201133 17.7605414,57.5414933 C17.6693308,57.3628734 17.56292,57.2393615 17.4413059,57.1709539 C17.3196918,57.1025462 17.1866784,57.0683429 17.0422616,57.0683429 C16.9054457,57.0683429 16.7762327,57.1025462 16.6546186,57.1709539 C16.5330044,57.2393615 16.4265937,57.3628734 16.3353831,57.5414933 C16.2441725,57.7201133 16.1719652,57.9671371 16.1187591,58.2825723 C16.0655529,58.5980075 16.0389502,59.0027466 16.0389502,59.4968017 C16.0389502,59.9908568 16.0655529,60.3974961 16.1187591,60.7167317 C16.1719652,61.0359673 16.2441725,61.2905919 16.3353831,61.4806131 C16.4265937,61.6706343 16.5330044,61.801747 16.6546186,61.873955 C16.7762327,61.9461631 16.9054457,61.9822666 17.0422616,61.9822666 Z M23.404168,60.1352697 L23.404168,58.9609446 C23.404168,58.7253183 23.4117688,58.4535921 23.4269706,58.1457577 C23.4421723,57.8379234 23.4573739,57.5699975 23.4725756,57.3419721 L23.4269706,57.3419721 C23.33576,57.5395941 23.2407504,57.7410136 23.1419389,57.9462365 C23.0431274,58.1514594 22.9405171,58.3566792 22.8341047,58.5619021 L21.8763984,60.1352697 L23.404168,60.1352697 Z M25.7984339,61.4122058 L24.9661415,61.4122058 L24.9661415,63.1451905 L23.404168,63.1451905 L23.404168,61.4122058 L20.2688199,61.4122058 L20.2688199,60.2606831 L22.9139136,55.905419 L24.9661415,55.905419 L24.9661415,60.1352697 L25.7984339,60.1352697 L25.7984339,61.4122058 Z" id="04" fill="#FFFFFF"></path>
                <path d="M16.2248785,78.0544716 L76.0232696,78.0544716" id="Line" stroke="#FFFFFF" stroke-width="8" stroke-linecap="square"></path>
                <path d="M164.441337,16.2248059 L164.441337,39.0945991" id="Line" stroke="#FFFFFF" stroke-linecap="square"></path>
                <path d="M153.040071,27.6260208 L175.909966,27.6260208" id="Line" stroke="#FFFFFF" stroke-linecap="square"></path>
            </g>
            <g id="Group-14" transform="translate(206.099808, 164.879109)">
                <rect id="Rectangle-12" fill="#4990E2" x="0" y="0" width="191.190461" height="100.856901"></rect>
                <path d="M17.0422616,63.2820051 C16.6546166,63.2820051 16.3011809,63.2002972 15.9819439,63.0368789 C15.6627068,62.8734607 15.3909794,62.6321374 15.1667533,62.3129018 C14.9425273,61.9936662 14.7677097,61.598428 14.6422951,61.1271754 C14.5168806,60.6559229 14.4541742,60.1124704 14.4541742,59.4968017 C14.4541742,58.881133 14.5168806,58.3414809 14.6422951,57.8778292 C14.7677097,57.4141775 14.9425273,57.0246398 15.1667533,56.7092047 C15.3909794,56.3937695 15.6627068,56.1581467 15.9819439,56.0023293 C16.3011809,55.8465119 16.6546166,55.7686044 17.0422616,55.7686044 C17.4299066,55.7686044 17.7833423,55.8465119 18.1025793,56.0023293 C18.4218164,56.1581467 18.6935438,56.3937695 18.9177699,56.7092047 C19.1419959,57.0246398 19.3168135,57.4141775 19.4422281,57.8778292 C19.5676427,58.3414809 19.630349,58.881133 19.630349,59.4968017 C19.630349,60.1124704 19.5676427,60.6559229 19.4422281,61.1271754 C19.3168135,61.598428 19.1419959,61.9936662 18.9177699,62.3129018 C18.6935438,62.6321374 18.4218164,62.8734607 18.1025793,63.0368789 C17.7833423,63.2002972 17.4299066,63.2820051 17.0422616,63.2820051 Z M17.0422616,61.9822666 C17.1866784,61.9822666 17.3196918,61.9461631 17.4413059,61.873955 C17.56292,61.801747 17.6693308,61.6706343 17.7605414,61.4806131 C17.8517519,61.2905919 17.9220591,61.0359673 17.9714648,60.7167317 C18.0208705,60.3974961 18.045573,59.9908568 18.045573,59.4968017 C18.045573,59.0027466 18.0208705,58.5980075 17.9714648,58.2825723 C17.9220591,57.9671371 17.8517519,57.7201133 17.7605414,57.5414933 C17.6693308,57.3628734 17.56292,57.2393615 17.4413059,57.1709539 C17.3196918,57.1025462 17.1866784,57.0683429 17.0422616,57.0683429 C16.9054457,57.0683429 16.7762327,57.1025462 16.6546186,57.1709539 C16.5330044,57.2393615 16.4265937,57.3628734 16.3353831,57.5414933 C16.2441725,57.7201133 16.1719652,57.9671371 16.1187591,58.2825723 C16.0655529,58.5980075 16.0389502,59.0027466 16.0389502,59.4968017 C16.0389502,59.9908568 16.0655529,60.3974961 16.1187591,60.7167317 C16.1719652,61.0359673 16.2441725,61.2905919 16.3353831,61.4806131 C16.4265937,61.6706343 16.5330044,61.801747 16.6546186,61.873955 C16.7762327,61.9461631 16.9054457,61.9822666 17.0422616,61.9822666 Z M21.0669085,61.2069839 C21.2873341,61.404606 21.5248581,61.5737223 21.7794876,61.714338 C22.0341172,61.8549537 22.3172458,61.9252605 22.6288819,61.9252605 C23.0013252,61.9252605 23.2977551,61.8302513 23.5181807,61.6402301 C23.7386063,61.4502089 23.8488174,61.1689818 23.8488174,60.7965402 C23.8488174,60.4316995 23.7443068,60.1542727 23.5352826,59.9642515 C23.3262583,59.7742303 23.0507305,59.6792211 22.7086908,59.6792211 C22.6022785,59.6792211 22.5072689,59.6849217 22.4236592,59.696323 C22.3400495,59.7077242 22.2583412,59.7286263 22.1785319,59.7590296 C22.0987227,59.789433 22.0151142,59.8274367 21.9277041,59.8730418 C21.8402939,59.9186469 21.7433842,59.9756524 21.6369718,60.04406 L20.8844882,59.565209 L21.089711,55.905419 L25.1941668,55.905419 L25.1941668,57.3191697 L22.5376718,57.3191697 L22.4122579,58.6759142 C22.5490738,58.6151074 22.680187,58.5714032 22.8056016,58.5448003 C22.9310161,58.5181973 23.0697301,58.504896 23.2217478,58.504896 C23.5333839,58.504896 23.8279137,58.5505004 24.1053459,58.6417106 C24.3827781,58.7329208 24.6279029,58.869734 24.8407275,59.0521543 C25.0535522,59.2345747 25.2207691,59.4663971 25.3423833,59.7476284 C25.4639974,60.0288598 25.5248035,60.3632921 25.5248035,60.7509354 C25.5248035,61.1537803 25.4525962,61.5110148 25.3081795,61.8226496 C25.1637627,62.1342843 24.9699431,62.3984098 24.7267149,62.615034 C24.4834867,62.8316582 24.2003581,62.9969741 23.8773206,63.1109868 C23.5542831,63.2249996 23.2179491,63.2820051 22.8683085,63.2820051 C22.2754397,63.2820051 21.773789,63.1850957 21.3633414,62.9912741 C20.9528938,62.7974525 20.6032585,62.5561292 20.3144249,62.2672969 L21.0669085,61.2069839 Z" id="05" fill="#FFFFFF"></path>
                <path d="M16.2248785,78.0544716 L76.0232696,78.0544716" id="Line" stroke="#FFFFFF" stroke-width="8" stroke-linecap="square"></path>
                <path d="M164.441337,16.2248059 L164.441337,39.0945991" id="Line" stroke="#FFFFFF" stroke-linecap="square"></path>
                <path d="M153.040071,27.6260208 L175.909966,27.6260208" id="Line" stroke="#FFFFFF" stroke-linecap="square"></path>
            </g>
            <rect id="Rectangle-12" fill="#4990E2" x="407.814515" y="164.879109" width="191.190461" height="100.856901"></rect>
            <path d="M424.856776,228.161114 C424.469131,228.161114 424.115695,228.079406 423.796458,227.915987 C423.477221,227.752569 423.205494,227.511246 422.981268,227.19201 C422.757042,226.872775 422.582224,226.477537 422.45681,226.006284 C422.331395,225.535031 422.268689,224.991579 422.268689,224.37591 C422.268689,223.760242 422.331395,223.220589 422.45681,222.756938 C422.582224,222.293286 422.757042,221.903748 422.981268,221.588313 C423.205494,221.272878 423.477221,221.037255 423.796458,220.881438 C424.115695,220.72562 424.469131,220.647713 424.856776,220.647713 C425.244421,220.647713 425.597857,220.72562 425.917094,220.881438 C426.236331,221.037255 426.508058,221.272878 426.732284,221.588313 C426.95651,221.903748 427.131328,222.293286 427.256743,222.756938 C427.382157,223.220589 427.444864,223.760242 427.444864,224.37591 C427.444864,224.991579 427.382157,225.535031 427.256743,226.006284 C427.131328,226.477537 426.95651,226.872775 426.732284,227.19201 C426.508058,227.511246 426.236331,227.752569 425.917094,227.915987 C425.597857,228.079406 425.244421,228.161114 424.856776,228.161114 Z M424.856776,226.861375 C425.001193,226.861375 425.134206,226.825272 425.25582,226.753064 C425.377435,226.680855 425.483845,226.549743 425.575056,226.359722 C425.666266,226.1697 425.736574,225.915076 425.785979,225.59584 C425.835385,225.276605 425.860088,224.869965 425.860088,224.37591 C425.860088,223.881855 425.835385,223.477116 425.785979,223.161681 C425.736574,222.846246 425.666266,222.599222 425.575056,222.420602 C425.483845,222.241982 425.377435,222.11847 425.25582,222.050062 C425.134206,221.981655 425.001193,221.947451 424.856776,221.947451 C424.71996,221.947451 424.590747,221.981655 424.469133,222.050062 C424.347519,222.11847 424.241108,222.241982 424.149898,222.420602 C424.058687,222.599222 423.98648,222.846246 423.933274,223.161681 C423.880067,223.477116 423.853465,223.881855 423.853465,224.37591 C423.853465,224.869965 423.880067,225.276605 423.933274,225.59584 C423.98648,225.915076 424.058687,226.1697 424.149898,226.359722 C424.241108,226.549743 424.347519,226.680855 424.469133,226.753064 C424.590747,226.825272 424.71996,226.861375 424.856776,226.861375 Z M431.036262,226.90698 C431.287091,226.90698 431.501813,226.813871 431.680434,226.62765 C431.859055,226.441429 431.948364,226.143101 431.948364,225.732655 C431.948364,225.345012 431.859055,225.073285 431.680434,224.917468 C431.501813,224.761651 431.27569,224.683743 431.002059,224.683743 C430.819637,224.683743 430.633419,224.736948 430.443396,224.84336 C430.253374,224.949772 430.074756,225.13599 429.907537,225.40202 C429.945541,225.690852 430.002547,225.930275 430.078556,226.120296 C430.154565,226.310317 430.241974,226.464232 430.340785,226.582045 C430.439597,226.699858 430.547908,226.783467 430.665721,226.832872 C430.783535,226.882278 430.907047,226.90698 431.036262,226.90698 Z M432.495624,222.517512 C432.366409,222.380697 432.199192,222.260985 431.993969,222.158374 C431.788745,222.055762 431.579724,222.004457 431.366899,222.004457 C431.169276,222.004457 430.983057,222.042461 430.808237,222.11847 C430.633417,222.194478 430.479501,222.32179 430.346486,222.50041 C430.21347,222.67903 430.105159,222.912753 430.02155,223.201585 C429.93794,223.490417 429.888535,223.843851 429.873333,224.261898 C429.964544,224.140284 430.070955,224.031974 430.192569,223.936963 C430.314183,223.841953 430.439595,223.762145 430.56881,223.697538 C430.698025,223.632931 430.827238,223.583526 430.956453,223.549322 C431.085668,223.515118 431.207281,223.498017 431.321294,223.498017 C431.63293,223.498017 431.919859,223.543621 432.18209,223.634831 C432.44432,223.726041 432.672343,223.862855 432.866166,224.045275 C433.059988,224.227695 433.210103,224.459518 433.316516,224.740749 C433.422928,225.02198 433.476133,225.352612 433.476133,225.732655 C433.476133,226.112697 433.411527,226.45093 433.282312,226.747363 C433.153097,227.043796 432.980179,227.298421 432.763554,227.511244 C432.546929,227.724068 432.292303,227.885584 431.999669,227.995796 C431.707035,228.106008 431.397304,228.161114 431.070466,228.161114 C430.720826,228.161114 430.380691,228.092707 430.050053,227.955892 C429.719414,227.819076 429.426785,227.606256 429.172155,227.317424 C428.917526,227.028591 428.714205,226.658056 428.562188,226.205805 C428.41017,225.753555 428.334162,225.208202 428.334162,224.569731 C428.334162,223.893255 428.415871,223.307999 428.579289,222.813944 C428.742708,222.319889 428.95933,221.913249 429.229162,221.594014 C429.498993,221.274778 429.810624,221.037255 430.164065,220.881438 C430.517506,220.72562 430.884244,220.647713 431.264288,220.647713 C431.743143,220.647713 432.157385,220.733221 432.507026,220.90424 C432.856666,221.075259 433.145495,221.278579 433.373522,221.514205 L432.495624,222.517512 Z" id="06" fill="#FFFFFF"></path>
            <g id="Group-15" transform="translate(251.704872, 297.308605)">
                <rect id="Rectangle-13" fill="#D8D8D8" x="0" y="0" width="97.3492712" height="28.0645291"></rect>
                <path d="M35.7438459,15.1978195 C35.9280211,15.3556833 36.1319264,15.4846034 36.3555677,15.5845838 C36.579209,15.6845642 36.7989005,15.7345536 37.0146486,15.7345536 C37.2567074,15.7345536 37.4369333,15.6898263 37.5553317,15.6003701 C37.67373,15.510914 37.7329283,15.3898869 37.7329283,15.2372853 C37.7329283,15.1583534 37.7158266,15.0899468 37.6816226,15.0320634 C37.6474187,14.97418 37.597429,14.9228751 37.5316521,14.878147 C37.4658753,14.8334189 37.3869442,14.7913226 37.2948566,14.7518566 L36.990969,14.6216197 L36.3200484,14.3374663 C36.1884946,14.2848451 36.0608894,14.2164384 35.9372289,14.1322444 C35.8135684,14.0480504 35.703065,13.9493871 35.6057152,13.8362514 C35.5083654,13.7231157 35.4307499,13.5915645 35.3728663,13.4415939 C35.3149826,13.2916233 35.2860412,13.1219223 35.2860412,12.9324858 C35.2860412,12.7220008 35.3307688,12.5233585 35.4202254,12.3365531 C35.5096819,12.1497476 35.6359716,11.9866242 35.7990982,11.8471779 C35.9622248,11.7077315 36.1556059,11.5985441 36.3792472,11.5196122 C36.6028886,11.4406803 36.8488904,11.4012149 37.11726,11.4012149 C37.4172025,11.4012149 37.7131939,11.4590975 38.0052432,11.5748642 C38.2972925,11.690631 38.5538184,11.8590165 38.7748286,12.0800257 L38.1828398,12.8140886 C38.0144511,12.6825354 37.8460648,12.5812411 37.677676,12.5102024 C37.5092873,12.4391637 37.3224838,12.4036448 37.11726,12.4036448 C36.9172983,12.4036448 36.7581207,12.4444257 36.6397223,12.5259887 C36.521324,12.6075516 36.4621257,12.7220011 36.4621257,12.8693406 C36.4621257,12.9482725 36.4818584,13.0153636 36.5213246,13.0706159 C36.5607907,13.1258682 36.6160424,13.1758577 36.6870814,13.2205858 C36.7581204,13.2653138 36.840998,13.3074102 36.9357167,13.3468761 C37.0304354,13.3863421 37.1330458,13.429754 37.2435509,13.4771131 L37.9065784,13.7454801 C38.2223073,13.8717712 38.4709401,14.0454187 38.6524843,14.266428 C38.8340284,14.4874372 38.9247991,14.7794808 38.9247991,15.1425675 C38.9247991,15.3583146 38.8813871,15.5622189 38.7945616,15.7542865 C38.7077361,15.9463541 38.5814465,16.1147396 38.4156888,16.259448 C38.2499311,16.4041565 38.0460258,16.5199215 37.803967,16.6067466 C37.5619081,16.6935717 37.2882805,16.7369835 36.9830758,16.7369835 C36.6462983,16.7369835 36.3108413,16.6751545 35.9766949,16.5514945 C35.6425484,16.4278346 35.3439259,16.2423475 35.0808185,15.9950276 L35.7438459,15.1978195 Z M39.8009426,11.4959327 L43.0213617,11.4959327 L43.0213617,12.4746832 L40.9612406,12.4746832 L40.9612406,13.5086857 L42.7135275,13.5086857 L42.7135275,14.479543 L40.9612406,14.479543 L40.9612406,15.6635153 L43.1002936,15.6635153 L43.1002936,16.6422658 L39.8009426,16.6422658 L39.8009426,11.4959327 Z M44.1264075,11.4959327 L47.3468266,11.4959327 L47.3468266,12.4746832 L45.2867056,12.4746832 L45.2867056,13.5086857 L47.0389924,13.5086857 L47.0389924,14.479543 L45.2867056,14.479543 L45.2867056,15.6635153 L47.4257585,15.6635153 L47.4257585,16.6422658 L44.1264075,16.6422658 L44.1264075,11.4959327 Z M52.2721735,14.5111156 L52.1537758,14.0375267 C52.0801057,13.7796825 52.0090677,13.5060561 51.9406598,13.2166392 C51.8722519,12.9272223 51.803845,12.6483338 51.735437,12.3799654 L51.7038643,12.3799654 C51.6407185,12.6535959 51.5762581,12.9337999 51.5104813,13.2205858 C51.4447044,13.5073716 51.374982,13.7796825 51.3013119,14.0375267 L51.1750209,14.5111156 L52.2721735,14.5111156 Z M52.5089691,15.4188277 L50.9382254,15.4188277 L50.6224981,16.6422658 L49.4385204,16.6422658 L51.04873,11.4959327 L52.4458236,11.4959327 L54.0560332,16.6422658 L52.8246964,16.6422658 L52.5089691,15.4188277 Z M54.6164492,11.4959327 L55.7767473,11.4959327 L55.7767473,15.6635153 L57.8131888,15.6635153 L57.8131888,16.6422658 L54.6164492,16.6422658 L54.6164492,11.4959327 Z M58.7051186,11.4959327 L59.8654167,11.4959327 L59.8654167,15.6635153 L61.9018582,15.6635153 L61.9018582,16.6422658 L58.7051186,16.6422658 L58.7051186,11.4959327 Z" id="SEE-ALL" fill="#4A4A4A"></path>
            </g>
            <path d="M424.039393,242.93358 L483.837784,242.93358" id="Line" stroke="#FFFFFF" stroke-width="8" stroke-linecap="square"></path>
            <path d="M572.255851,181.103914 L572.255851,203.973708" id="Line" stroke="#FFFFFF" stroke-linecap="square"></path>
            <path d="M560.854585,192.505129 L583.724481,192.505129" id="Line" stroke="#FFFFFF" stroke-linecap="square"></path>
        </g>
    </g>
</svg>