<?xml version="1.0" encoding="UTF-8"?>
<svg width="600px" height="401px" viewBox="0 0 600 401" version="1.1" xmlns="http://www.w3.org/2000/svg" xmlns:xlink="http://www.w3.org/1999/xlink">
    <!-- Generator: Sketch 44.1 (41455) - http://www.bohemiancoding.com/sketch -->
    <title>services27</title>
    <desc>Created with Sketch.</desc>
    <defs>
        <rect id="path-1" x="0" y="0" width="182.19554" height="119.15625"></rect>
        <mask id="mask-2" maskContentUnits="userSpaceOnUse" maskUnits="objectBoundingBox" x="0" y="0" width="182.19554" height="119.15625" fill="white">
            <use xlink:href="#path-1"></use>
        </mask>
        <rect id="path-3" x="0" y="0" width="182.19554" height="119.15625"></rect>
        <mask id="mask-4" maskContentUnits="userSpaceOnUse" maskUnits="objectBoundingBox" x="0" y="0" width="182.19554" height="119.15625" fill="white">
            <use xlink:href="#path-3"></use>
        </mask>
        <rect id="path-5" x="0" y="0" width="182.19554" height="119.15625"></rect>
        <mask id="mask-6" maskContentUnits="userSpaceOnUse" maskUnits="objectBoundingBox" x="0" y="0" width="182.19554" height="119.15625" fill="white">
            <use xlink:href="#path-5"></use>
        </mask>
    </defs>
    <g id="Services" stroke="none" stroke-width="1" fill="none" fill-rule="evenodd">
        <g id="27">
            <rect id="Rectangle-21" fill="#545454" x="0" y="0" width="600" height="401"></rect>
            <g id="Group-36" transform="translate(18.000000, 85.000000)">
                <g id="Group-35">
                    <use id="Rectangle-9" stroke="#979797" mask="url(#mask-2)" stroke-width="2" fill="#F2F2F2" stroke-dasharray="4" xlink:href="#path-1"></use>
                    <rect id="Rectangle-9" fill="#FFFFFF" transform="translate(91.097770, 168.078125) scale(1, -1) translate(-91.097770, -168.078125) " x="0" y="119.15625" width="182.19554" height="97.84375"></rect>
                    <g id="icon-picture" opacity="0.699999988" transform="translate(61.054889, 38.750000)" stroke="#979797">
                        <polyline id="Path-15" stroke-width="2" points="1.23162932 35.7059504 20.935255 15.1870001 34.784381 29.7309054 42.8961113 21.212228 58.2513233 37.3377764"></polyline>
                        <ellipse id="Oval-6" fill="#D8D8D8" cx="48.4562607" cy="10.65625" rx="2.90737564" ry="2.90625"></ellipse>
                        <rect id="Rectangle-10" stroke-width="2" x="1" y="1" width="57.1166381" height="39.65625" rx="3"></rect>
                    </g>
                    <path d="M10.1758148,139.984375 L69.3003959,139.984375" id="Line" stroke="#4990E2" stroke-width="5" stroke-linecap="square"></path>
                    <path d="M10.1758148,157.90625 L170.081475,157.90625" id="Line" stroke="#979797" stroke-width="4" stroke-linecap="square"></path>
                    <path d="M10.1758148,170.5 L170.081475,170.5" id="Line" stroke="#979797" stroke-width="4" stroke-linecap="square"></path>
                    <path d="M10.1758148,183.09375 L170.081475,183.09375" id="Line" stroke="#979797" stroke-width="4" stroke-linecap="square"></path>
                    <path d="M10.1758148,195.6875 L49.5329192,195.6875" id="Line" stroke="#979797" stroke-width="4" stroke-linecap="square"></path>
                </g>
                <g id="Group-35" transform="translate(382.804460, 0.000000)">
                    <use id="Rectangle-9" stroke="#979797" mask="url(#mask-4)" stroke-width="2" fill="#F2F2F2" stroke-dasharray="4" xlink:href="#path-3"></use>
                    <rect id="Rectangle-9" fill="#FFFFFF" transform="translate(91.097770, 168.078125) scale(1, -1) translate(-91.097770, -168.078125) " x="0" y="119.15625" width="182.19554" height="97.84375"></rect>
                    <g id="icon-picture" opacity="0.699999988" transform="translate(61.054889, 38.750000)" stroke="#979797">
                        <polyline id="Path-15" stroke-width="2" points="1.23162932 35.7059504 20.935255 15.1870001 34.784381 29.7309054 42.8961113 21.212228 58.2513233 37.3377764"></polyline>
                        <ellipse id="Oval-6" fill="#D8D8D8" cx="48.4562607" cy="10.65625" rx="2.90737564" ry="2.90625"></ellipse>
                        <rect id="Rectangle-10" stroke-width="2" x="1" y="1" width="57.1166381" height="39.65625" rx="3"></rect>
                    </g>
                    <path d="M10.1758148,139.984375 L69.3003959,139.984375" id="Line" stroke="#4990E2" stroke-width="5" stroke-linecap="square"></path>
                    <path d="M10.1758148,157.90625 L170.081475,157.90625" id="Line" stroke="#979797" stroke-width="4" stroke-linecap="square"></path>
                    <path d="M10.1758148,170.5 L170.081475,170.5" id="Line" stroke="#979797" stroke-width="4" stroke-linecap="square"></path>
                    <path d="M10.1758148,183.09375 L170.081475,183.09375" id="Line" stroke="#979797" stroke-width="4" stroke-linecap="square"></path>
                    <path d="M10.1758148,195.6875 L49.5329192,195.6875" id="Line" stroke="#979797" stroke-width="4" stroke-linecap="square"></path>
                </g>
                <g id="Group-35" transform="translate(191.402230, 0.000000)">
                    <use id="Rectangle-9" stroke="#979797" mask="url(#mask-6)" stroke-width="2" fill="#F2F2F2" stroke-dasharray="4" xlink:href="#path-5"></use>
                    <rect id="Rectangle-9" fill="#FFFFFF" transform="translate(91.097770, 168.078125) scale(1, -1) translate(-91.097770, -168.078125) " x="0" y="119.15625" width="182.19554" height="97.84375"></rect>
                    <g id="icon-picture" opacity="0.699999988" transform="translate(61.054889, 38.750000)" stroke="#979797">
                        <polyline id="Path-15" stroke-width="2" points="1.23162932 35.7059504 20.935255 15.1870001 34.784381 29.7309054 42.8961113 21.212228 58.2513233 37.3377764"></polyline>
                        <ellipse id="Oval-6" fill="#D8D8D8" cx="48.4562607" cy="10.65625" rx="2.90737564" ry="2.90625"></ellipse>
                        <rect id="Rectangle-10" stroke-width="2" x="1" y="1" width="57.1166381" height="39.65625" rx="3"></rect>
                    </g>
                    <path d="M10.1758148,139.984375 L69.3003959,139.984375" id="Line" stroke="#4990E2" stroke-width="5" stroke-linecap="square"></path>
                    <path d="M10.1758148,157.90625 L170.081475,157.90625" id="Line" stroke="#979797" stroke-width="4" stroke-linecap="square"></path>
                    <path d="M10.1758148,170.5 L170.081475,170.5" id="Line" stroke="#979797" stroke-width="4" stroke-linecap="square"></path>
                    <path d="M10.1758148,183.09375 L170.081475,183.09375" id="Line" stroke="#979797" stroke-width="4" stroke-linecap="square"></path>
                    <path d="M10.1758148,195.6875 L49.5329192,195.6875" id="Line" stroke="#979797" stroke-width="4" stroke-linecap="square"></path>
                </g>
            </g>
            <path d="M264.552,48.112 C264.023997,48.112 263.542002,48.0180009 263.106,47.83 C262.669998,47.6419991 262.296002,47.3720018 261.984,47.02 C261.671998,46.6679982 261.430001,46.2400025 261.258,45.736 C261.085999,45.2319975 261,44.6600032 261,44.02 C261,43.3799968 261.085999,42.8100025 261.258,42.31 C261.430001,41.8099975 261.671998,41.3900017 261.984,41.05 C262.296002,40.7099983 262.669998,40.4500009 263.106,40.27 C263.542002,40.0899991 264.023997,40 264.552,40 C265.080003,40 265.561998,40.0899991 265.998,40.27 C266.434002,40.4500009 266.807998,40.7119983 267.12,41.056 C267.432002,41.4000017 267.673999,41.8219975 267.846,42.322 C268.018001,42.8220025 268.104,43.3879968 268.104,44.02 C268.104,44.6600032 268.018001,45.2319975 267.846,45.736 C267.673999,46.2400025 267.432002,46.6679982 267.12,47.02 C266.807998,47.3720018 266.434002,47.6419991 265.998,47.83 C265.561998,48.0180009 265.080003,48.112 264.552,48.112 Z M264.552,46.588 C265.088003,46.588 265.511998,46.3580023 265.824,45.898 C266.136002,45.4379977 266.292,44.812004 266.292,44.02 C266.292,43.2359961 266.136002,42.6240022 265.824,42.184 C265.511998,41.7439978 265.088003,41.524 264.552,41.524 C264.015997,41.524 263.592002,41.7439978 263.28,42.184 C262.967998,42.6240022 262.812,43.2359961 262.812,44.02 C262.812,44.812004 262.967998,45.4379977 263.28,45.898 C263.592002,46.3580023 264.015997,46.588 264.552,46.588 Z M269.532,40.144 L271.308,40.144 L271.308,44.524 C271.308,45.2920038 271.423999,45.8279985 271.656,46.132 C271.888001,46.4360015 272.223998,46.588 272.664,46.588 C273.104002,46.588 273.443999,46.4360015 273.684,46.132 C273.924001,45.8279985 274.044,45.2920038 274.044,44.524 L274.044,40.144 L275.748,40.144 L275.748,44.344 C275.748,45.6560066 275.486003,46.611997 274.962,47.212 C274.437997,47.812003 273.672005,48.112 272.664,48.112 C271.647995,48.112 270.872003,47.812003 270.336,47.212 C269.799997,46.611997 269.532,45.6560066 269.532,44.344 L269.532,40.144 Z M279.324,43.744 L280.236,43.744 C280.700002,43.744 281.053999,43.646001 281.298,43.45 C281.542001,43.253999 281.664,42.9640019 281.664,42.58 C281.664,42.1959981 281.542001,41.9280008 281.298,41.776 C281.053999,41.6239992 280.700002,41.548 280.236,41.548 L279.324,41.548 L279.324,43.744 Z M281.796,47.968 L280.296,45.148 L279.324,45.148 L279.324,47.968 L277.56,47.968 L277.56,40.144 L280.38,40.144 C280.796002,40.144 281.185998,40.1839996 281.55,40.264 C281.914002,40.3440004 282.231999,40.4779991 282.504,40.666 C282.776001,40.8540009 282.991999,41.1039984 283.152,41.416 C283.312001,41.7280016 283.392,42.1159977 283.392,42.58 C283.392,43.1560029 283.266001,43.6299981 283.014,44.002 C282.761999,44.3740019 282.424002,44.6519991 282,44.836 L283.776,47.968 L281.796,47.968 Z M287.952,45.772 C288.232001,46.0120012 288.541998,46.2079992 288.882,46.36 C289.222002,46.5120008 289.555998,46.588 289.884,46.588 C290.252002,46.588 290.525999,46.5200007 290.706,46.384 C290.886001,46.2479993 290.976,46.0640012 290.976,45.832 C290.976,45.7119994 290.95,45.6080004 290.898,45.52 C290.846,45.4319996 290.77,45.3540003 290.67,45.286 C290.569999,45.2179997 290.450001,45.1540003 290.31,45.094 L289.848,44.896 L288.828,44.464 C288.627999,44.3839996 288.434001,44.2800006 288.246,44.152 C288.057999,44.0239994 287.890001,43.8740009 287.742,43.702 C287.593999,43.5299991 287.476,43.3300011 287.388,43.102 C287.3,42.8739989 287.256,42.6160014 287.256,42.328 C287.256,42.0079984 287.323999,41.7060014 287.46,41.422 C287.596001,41.1379986 287.787999,40.8900011 288.036,40.678 C288.284001,40.4659989 288.577998,40.3000006 288.918,40.18 C289.258002,40.0599994 289.631998,40 290.04,40 C290.496002,40 290.945998,40.0879991 291.39,40.264 C291.834002,40.4400009 292.223998,40.6959983 292.56,41.032 L291.66,42.148 C291.403999,41.947999 291.148001,41.7940005 290.892,41.686 C290.635999,41.5779995 290.352002,41.524 290.04,41.524 C289.735998,41.524 289.494001,41.5859994 289.314,41.71 C289.133999,41.8340006 289.044,42.0079989 289.044,42.232 C289.044,42.3520006 289.074,42.4539996 289.134,42.538 C289.194,42.6220004 289.277999,42.6979997 289.386,42.766 C289.494001,42.8340003 289.619999,42.8979997 289.764,42.958 C289.908001,43.0180003 290.063999,43.0839996 290.232,43.156 L291.24,43.564 C291.720002,43.756001 292.097999,44.0199983 292.374,44.356 C292.650001,44.6920017 292.788,45.1359972 292.788,45.688 C292.788,46.0160016 292.722001,46.3259985 292.59,46.618 C292.457999,46.9100015 292.266001,47.1659989 292.014,47.386 C291.761999,47.6060011 291.452002,47.7819993 291.084,47.914 C290.715998,48.0460007 290.300002,48.112 289.836,48.112 C289.323997,48.112 288.814003,48.0180009 288.306,47.83 C287.797997,47.6419991 287.344002,47.3600019 286.944,46.984 L287.952,45.772 Z M294.12,40.144 L299.016,40.144 L299.016,41.632 L295.884,41.632 L295.884,43.204 L298.548,43.204 L298.548,44.68 L295.884,44.68 L295.884,46.48 L299.136,46.48 L299.136,47.968 L294.12,47.968 L294.12,40.144 Z M302.46,43.744 L303.372,43.744 C303.836002,43.744 304.189999,43.646001 304.434,43.45 C304.678001,43.253999 304.8,42.9640019 304.8,42.58 C304.8,42.1959981 304.678001,41.9280008 304.434,41.776 C304.189999,41.6239992 303.836002,41.548 303.372,41.548 L302.46,41.548 L302.46,43.744 Z M304.932,47.968 L303.432,45.148 L302.46,45.148 L302.46,47.968 L300.696,47.968 L300.696,40.144 L303.516,40.144 C303.932002,40.144 304.321998,40.1839996 304.686,40.264 C305.050002,40.3440004 305.367999,40.4779991 305.64,40.666 C305.912001,40.8540009 306.127999,41.1039984 306.288,41.416 C306.448001,41.7280016 306.528,42.1159977 306.528,42.58 C306.528,43.1560029 306.402001,43.6299981 306.15,44.002 C305.897999,44.3740019 305.560002,44.6519991 305.136,44.836 L306.912,47.968 L304.932,47.968 Z M306.864,40.144 L308.736,40.144 L309.672,43.792 C309.792001,44.2240022 309.898,44.641998 309.99,45.046 C310.082,45.450002 310.187999,45.8679978 310.308,46.3 L310.356,46.3 C310.468001,45.8679978 310.572,45.450002 310.668,45.046 C310.764,44.641998 310.867999,44.2240022 310.98,43.792 L311.904,40.144 L313.704,40.144 L311.352,47.968 L309.228,47.968 L306.864,40.144 Z M314.544,40.144 L316.308,40.144 L316.308,47.968 L314.544,47.968 L314.544,40.144 Z M317.784,44.104 C317.784,43.4559968 317.883999,42.8780025 318.084,42.37 C318.284001,41.8619975 318.553998,41.4320018 318.894,41.08 C319.234002,40.7279982 319.629998,40.4600009 320.082,40.276 C320.534002,40.0919991 321.011997,40 321.516,40 C322.004002,40 322.445998,40.101999 322.842,40.306 C323.238002,40.510001 323.567999,40.7479986 323.832,41.02 L322.86,42.112 C322.659999,41.9279991 322.458001,41.7840005 322.254,41.68 C322.049999,41.5759995 321.812001,41.524 321.54,41.524 C321.267999,41.524 321.014001,41.5819994 320.778,41.698 C320.541999,41.8140006 320.336001,41.9799989 320.16,42.196 C319.983999,42.4120011 319.846001,42.6759984 319.746,42.988 C319.645999,43.3000016 319.596,43.651998 319.596,44.044 C319.596,44.852004 319.767998,45.4779978 320.112,45.922 C320.456002,46.3660022 320.915997,46.588 321.492,46.588 C321.812002,46.588 322.091999,46.5240006 322.332,46.396 C322.572001,46.2679994 322.787999,46.100001 322.98,45.892 L323.952,46.96 C323.623998,47.3440019 323.250002,47.631999 322.83,47.824 C322.409998,48.016001 321.956002,48.112 321.468,48.112 C320.963997,48.112 320.488002,48.0260009 320.04,47.854 C319.591998,47.6819991 319.200002,47.4280017 318.864,47.092 C318.527998,46.7559983 318.264001,46.3380025 318.072,45.838 C317.879999,45.3379975 317.784,44.7600033 317.784,44.104 Z M325.14,40.144 L330.036,40.144 L330.036,41.632 L326.904,41.632 L326.904,43.204 L329.568,43.204 L329.568,44.68 L326.904,44.68 L326.904,46.48 L330.156,46.48 L330.156,47.968 L325.14,47.968 L325.14,40.144 Z M332.22,45.772 C332.500001,46.0120012 332.809998,46.2079992 333.15,46.36 C333.490002,46.5120008 333.823998,46.588 334.152,46.588 C334.520002,46.588 334.793999,46.5200007 334.974,46.384 C335.154001,46.2479993 335.244,46.0640012 335.244,45.832 C335.244,45.7119994 335.218,45.6080004 335.166,45.52 C335.114,45.4319996 335.038,45.3540003 334.938,45.286 C334.837999,45.2179997 334.718001,45.1540003 334.578,45.094 L334.116,44.896 L333.096,44.464 C332.895999,44.3839996 332.702001,44.2800006 332.514,44.152 C332.325999,44.0239994 332.158001,43.8740009 332.01,43.702 C331.861999,43.5299991 331.744,43.3300011 331.656,43.102 C331.568,42.8739989 331.524,42.6160014 331.524,42.328 C331.524,42.0079984 331.591999,41.7060014 331.728,41.422 C331.864001,41.1379986 332.055999,40.8900011 332.304,40.678 C332.552001,40.4659989 332.845998,40.3000006 333.186,40.18 C333.526002,40.0599994 333.899998,40 334.308,40 C334.764002,40 335.213998,40.0879991 335.658,40.264 C336.102002,40.4400009 336.491998,40.6959983 336.828,41.032 L335.928,42.148 C335.671999,41.947999 335.416001,41.7940005 335.16,41.686 C334.903999,41.5779995 334.620002,41.524 334.308,41.524 C334.003998,41.524 333.762001,41.5859994 333.582,41.71 C333.401999,41.8340006 333.312,42.0079989 333.312,42.232 C333.312,42.3520006 333.342,42.4539996 333.402,42.538 C333.462,42.6220004 333.545999,42.6979997 333.654,42.766 C333.762001,42.8340003 333.887999,42.8979997 334.032,42.958 C334.176001,43.0180003 334.331999,43.0839996 334.5,43.156 L335.508,43.564 C335.988002,43.756001 336.365999,44.0199983 336.642,44.356 C336.918001,44.6920017 337.056,45.1359972 337.056,45.688 C337.056,46.0160016 336.990001,46.3259985 336.858,46.618 C336.725999,46.9100015 336.534001,47.1659989 336.282,47.386 C336.029999,47.6060011 335.720002,47.7819993 335.352,47.914 C334.983998,48.0460007 334.568002,48.112 334.104,48.112 C333.591997,48.112 333.082003,48.0180009 332.574,47.83 C332.065997,47.6419991 331.612002,47.3600019 331.212,46.984 L332.22,45.772 Z" id="OUR-SERVICES" fill="#FFFFFF"></path>
            <rect id="Rectangle-22" fill="#4990E2" x="256" y="333" width="91" height="28" rx="2"></rect>
            <path d="M280,345.084 L281.092,345.084 L281.638,347.212 C281.708,347.464001 281.769833,347.707832 281.8235,347.9435 C281.877167,348.179168 281.939,348.422999 282.009,348.675 L282.037,348.675 C282.102334,348.422999 282.163,348.179168 282.219,347.9435 C282.275,347.707832 282.335666,347.464001 282.401,347.212 L282.94,345.084 L283.99,345.084 L282.618,349.648 L281.379,349.648 L280,345.084 Z M284.48,345.084 L285.509,345.084 L285.509,349.648 L284.48,349.648 L284.48,345.084 Z M286.587,345.084 L289.443,345.084 L289.443,345.952 L287.616,345.952 L287.616,346.869 L289.17,346.869 L289.17,347.73 L287.616,347.73 L287.616,348.78 L289.513,348.78 L289.513,349.648 L286.587,349.648 L286.587,345.084 Z M289.982,345.084 L291.039,345.084 L291.354,347.219 C291.382,347.457001 291.412333,347.696165 291.445,347.9365 C291.477667,348.176835 291.508,348.418332 291.536,348.661 L291.564,348.661 C291.610667,348.418332 291.656166,348.176835 291.7005,347.9365 C291.744834,347.696165 291.790333,347.457001 291.837,347.219 L292.327,345.084 L293.202,345.084 L293.692,347.219 C293.738667,347.452334 293.784166,347.689165 293.8285,347.9295 C293.872834,348.169835 293.918333,348.413665 293.965,348.661 L293.993,348.661 C294.025667,348.413665 294.057167,348.171001 294.0875,347.933 C294.117833,347.694999 294.149333,347.457001 294.182,347.219 L294.497,345.084 L295.484,345.084 L294.672,349.648 L293.377,349.648 L292.929,347.576 C292.891666,347.398666 292.857833,347.220168 292.8275,347.0405 C292.797167,346.860832 292.770333,346.687001 292.747,346.519 L292.719,346.519 C292.691,346.687001 292.661833,346.860832 292.6315,347.0405 C292.601167,347.220168 292.567334,347.398666 292.53,347.576 L292.103,349.648 L290.829,349.648 L289.982,345.084 Z M297.57,345.084 L298.858,345.084 C299.208002,345.084 299.522999,345.128333 299.803,345.217 C300.083001,345.305667 300.323332,345.442166 300.524,345.6265 C300.724668,345.810834 300.878666,346.045332 300.986,346.33 C301.093334,346.614668 301.147,346.952998 301.147,347.345 C301.147,347.737002 301.093334,348.077665 300.986,348.367 C300.878666,348.656335 300.727001,348.895499 300.531,349.0845 C300.334999,349.273501 300.100501,349.414666 299.8275,349.508 C299.554499,349.601334 299.250002,349.648 298.914,349.648 L297.57,349.648 L297.57,345.084 Z M298.795,348.815 C298.991001,348.815 299.168333,348.789334 299.327,348.738 C299.485667,348.686666 299.620999,348.603834 299.733,348.4895 C299.845001,348.375166 299.9325,348.224668 299.9955,348.038 C300.0585,347.851332 300.09,347.620335 300.09,347.345 C300.09,347.074332 300.0585,346.846834 299.9955,346.6625 C299.9325,346.478166 299.845001,346.331167 299.733,346.2215 C299.620999,346.111833 299.485667,346.033667 299.327,345.987 C299.168333,345.940333 298.991001,345.917 298.795,345.917 L298.599,345.917 L298.599,348.815 L298.795,348.815 Z M302.015,345.084 L304.871,345.084 L304.871,345.952 L303.044,345.952 L303.044,346.869 L304.598,346.869 L304.598,347.73 L303.044,347.73 L303.044,348.78 L304.941,348.78 L304.941,349.648 L302.015,349.648 L302.015,345.084 Z M306.74,345.952 L305.487,345.952 L305.487,345.084 L309.029,345.084 L309.029,345.952 L307.776,345.952 L307.776,349.648 L306.74,349.648 L306.74,345.952 Z M311.395,347.758 L311.29,347.338 C311.224666,347.109332 311.161667,346.866668 311.101,346.61 C311.040333,346.353332 310.979667,346.106001 310.919,345.868 L310.891,345.868 C310.835,346.110668 310.777834,346.359165 310.7195,346.6135 C310.661166,346.867835 310.599334,347.109332 310.534,347.338 L310.422,347.758 L311.395,347.758 Z M311.605,348.563 L310.212,348.563 L309.932,349.648 L308.882,349.648 L310.31,345.084 L311.549,345.084 L312.977,349.648 L311.885,349.648 L311.605,348.563 Z M313.474,345.084 L314.503,345.084 L314.503,349.648 L313.474,349.648 L313.474,345.084 Z M315.581,345.084 L316.61,345.084 L316.61,348.78 L318.416,348.78 L318.416,349.648 L315.581,349.648 L315.581,345.084 Z M319.305,348.367 C319.468334,348.507001 319.649166,348.621333 319.8475,348.71 C320.045834,348.798667 320.240666,348.843 320.432,348.843 C320.646668,348.843 320.806499,348.803334 320.9115,348.724 C321.016501,348.644666 321.069,348.537334 321.069,348.402 C321.069,348.332 321.053833,348.271334 321.0235,348.22 C320.993167,348.168666 320.948834,348.123167 320.8905,348.0835 C320.832166,348.043833 320.762167,348.0065 320.6805,347.9715 L320.411,347.856 L319.816,347.604 C319.699333,347.557333 319.586167,347.496667 319.4765,347.422 C319.366833,347.347333 319.268834,347.259834 319.1825,347.1595 C319.096166,347.059166 319.027334,346.942501 318.976,346.8095 C318.924666,346.676499 318.899,346.526001 318.899,346.358 C318.899,346.171332 318.938666,345.995167 319.018,345.8295 C319.097334,345.663833 319.209333,345.519167 319.354,345.3955 C319.498667,345.271833 319.670166,345.175 319.8685,345.105 C320.066834,345.035 320.284999,345 320.523,345 C320.789001,345 321.051499,345.051333 321.3105,345.154 C321.569501,345.256667 321.796999,345.405999 321.993,345.602 L321.468,346.253 C321.318666,346.136333 321.169334,346.0465 321.02,345.9835 C320.870666,345.9205 320.705001,345.889 320.523,345.889 C320.345666,345.889 320.204501,345.925166 320.0995,345.9975 C319.994499,346.069834 319.942,346.171333 319.942,346.302 C319.942,346.372 319.9595,346.4315 319.9945,346.4805 C320.0295,346.5295 320.0785,346.573833 320.1415,346.6135 C320.2045,346.653167 320.278,346.6905 320.362,346.7255 C320.446,346.7605 320.537,346.799 320.635,346.841 L321.223,347.079 C321.503001,347.191001 321.723499,347.344999 321.8845,347.541 C322.045501,347.737001 322.126,347.995998 322.126,348.318 C322.126,348.509334 322.0875,348.690166 322.0105,348.8605 C321.9335,349.030834 321.821501,349.180166 321.6745,349.3085 C321.527499,349.436834 321.346668,349.5395 321.132,349.6165 C320.917332,349.6935 320.674668,349.732 320.404,349.732 C320.105332,349.732 319.807835,349.677167 319.5115,349.5675 C319.215165,349.457833 318.950334,349.293334 318.717,349.074 L319.305,348.367 Z" id="VIEW-DETAILS" fill="#FFFFFF"></path>
        </g>
    </g>
</svg>