<?xml version="1.0" encoding="UTF-8"?>
<svg width="603px" height="489px" viewBox="0 0 603 489" version="1.1" xmlns="http://www.w3.org/2000/svg" xmlns:xlink="http://www.w3.org/1999/xlink">
    <!-- Generator: Sketch 44.1 (41455) - http://www.bohemiancoding.com/sketch -->
    <title>services02</title>
    <desc>Created with Sketch.</desc>
    <defs>
        <rect id="path-1" x="10.1956591" y="29.3320388" width="14.0190313" height="1.27530603" rx="0.637653017"></rect>
    </defs>
    <g id="Services" stroke="none" stroke-width="1" fill="none" fill-rule="evenodd">
        <g id="02" transform="translate(2.000000, 0.000000)">
            <path d="M253.90356,3.8259181 L344.390035,3.8259181" id="Line" stroke="#4990E2" stroke-width="6" stroke-linecap="square"></path>
            <path d="M245.117588,46.5447236 C243.967833,46.5447236 242.918263,46.3400355 241.968844,45.9306533 C241.019426,45.521271 240.205029,44.9333372 239.525628,44.1668342 C238.846228,43.4003312 238.319265,42.4683472 237.944724,41.3708543 C237.570182,40.2733613 237.382915,39.0278127 237.382915,37.6341709 C237.382915,36.240529 237.570182,34.9993354 237.944724,33.9105528 C238.319265,32.8217701 238.846228,31.9072064 239.525628,31.1668342 C240.205029,30.426462 241.019426,29.8603035 241.968844,29.4683417 C242.918263,29.0763799 243.967833,28.880402 245.117588,28.880402 C246.267342,28.880402 247.316913,29.0763799 248.266332,29.4683417 C249.21575,29.8603035 250.030147,30.430817 250.709548,31.1798995 C251.388948,31.928982 251.915911,32.8479008 252.290452,33.9366834 C252.664993,35.0254661 252.852261,36.2579496 252.852261,37.6341709 C252.852261,39.0278127 252.664993,40.2733613 252.290452,41.3708543 C251.915911,42.4683472 251.388948,43.4003312 250.709548,44.1668342 C250.030147,44.9333372 249.21575,45.521271 248.266332,45.9306533 C247.316913,46.3400355 246.267342,46.5447236 245.117588,46.5447236 Z M245.117588,43.2261307 C246.284763,43.2261307 247.208037,42.7252981 247.887437,41.7236181 C248.566838,40.721938 248.906533,39.3588026 248.906533,37.6341709 C248.906533,35.9269596 248.566838,34.5943096 247.887437,33.6361809 C247.208037,32.6780522 246.284763,32.198995 245.117588,32.198995 C243.950413,32.198995 243.027139,32.6780522 242.347739,33.6361809 C241.668338,34.5943096 241.328643,35.9269596 241.328643,37.6341709 C241.328643,39.3588026 241.668338,40.721938 242.347739,41.7236181 C243.027139,42.7252981 243.950413,43.2261307 245.117588,43.2261307 Z M255.622111,33.2703518 L259.463317,33.2703518 L259.463317,40.8221106 C259.463317,41.7628188 259.593969,42.4073684 259.855276,42.7557789 C260.116584,43.1041893 260.52596,43.278392 261.083417,43.278392 C261.571192,43.278392 261.980568,43.1651603 262.311558,42.9386935 C262.642548,42.7122267 262.999663,42.3464012 263.382915,41.841206 L263.382915,33.2703518 L267.224121,33.2703518 L267.224121,46.2311558 L264.088442,46.2311558 L263.801005,44.4281407 L263.722613,44.4281407 C263.165156,45.0901206 262.568512,45.6083733 261.932663,45.9829146 C261.296814,46.3574558 260.534678,46.5447236 259.646231,46.5447236 C258.235169,46.5447236 257.211728,46.0830867 256.575879,45.159799 C255.94003,44.2365113 255.622111,42.9561221 255.622111,41.318593 L255.622111,33.2703518 Z M270.594975,33.2703518 L273.730653,33.2703518 L273.99196,35.5437186 L274.096482,35.5437186 C274.566837,34.6552719 275.132995,34.0020121 275.794975,33.5839196 C276.456955,33.1658271 277.118925,32.9567839 277.780905,32.9567839 C278.146735,32.9567839 278.447235,32.9785592 278.682412,33.0221106 C278.917589,33.0656619 279.130987,33.1309878 279.322613,33.2180905 L278.695477,36.5366834 C278.45159,36.4670013 278.225127,36.4147405 278.01608,36.3798995 C277.807034,36.3450585 277.56315,36.3276382 277.284422,36.3276382 C276.796647,36.3276382 276.287105,36.5018408 275.755779,36.8502513 C275.224453,37.1986617 274.784591,37.817081 274.436181,38.7055276 L274.436181,46.2311558 L270.594975,46.2311558 L270.594975,33.2703518 Z M287.135678,42.4944724 C287.745397,43.1390317 288.463982,43.6572845 289.291457,44.0492462 C290.118932,44.441208 290.97688,44.6371859 291.865327,44.6371859 C292.997661,44.6371859 293.877384,44.3802371 294.504523,43.8663317 C295.131661,43.3524262 295.445226,42.6773911 295.445226,41.841206 C295.445226,41.405693 295.37119,41.0355124 295.223116,40.7306533 C295.075041,40.4257941 294.874708,40.1644902 294.622111,39.9467337 C294.369513,39.7289771 294.069013,39.5329992 293.720603,39.358794 C293.372193,39.1845887 292.997657,39.001676 292.596985,38.8100503 L290.140704,37.7386935 C289.740031,37.5644882 289.330655,37.3554451 288.912563,37.1115578 C288.49447,36.8676705 288.119935,36.571526 287.788945,36.2231156 C287.457955,35.8747051 287.187941,35.4609739 286.978894,34.9819095 C286.769848,34.5028452 286.665327,33.9497519 286.665327,33.3226131 C286.665327,32.6780537 286.800334,32.0770547 287.070352,31.519598 C287.34037,30.9621413 287.714905,30.478729 288.19397,30.0693467 C288.673034,29.6599645 289.239193,29.3420447 289.892462,29.1155779 C290.545732,28.8891111 291.264318,28.7758794 292.048241,28.7758794 C293.076052,28.7758794 294.025456,28.9718573 294.896482,29.3638191 C295.767509,29.7557809 296.50787,30.2653235 297.117588,30.8924623 L295.941709,32.3035176 C295.419093,31.7983224 294.839869,31.4020115 294.20402,31.1145729 C293.568171,30.8271342 292.849585,30.6834171 292.048241,30.6834171 C291.090112,30.6834171 290.319266,30.9055254 289.735678,31.3497487 C289.152091,31.7939721 288.860302,32.4080363 288.860302,33.1919598 C288.860302,33.6100523 288.943048,33.9628126 289.108543,34.2502513 C289.274038,34.5376899 289.496146,34.7902837 289.774874,35.0080402 C290.053603,35.2257967 290.358457,35.4174196 290.689447,35.5829146 C291.020437,35.7484095 291.360132,35.9008368 291.708543,36.040201 L294.138693,37.0854271 C294.626468,37.2944734 295.088105,37.534002 295.523618,37.8040201 C295.959131,38.0740382 296.333667,38.3876029 296.647236,38.7447236 C296.960806,39.1018443 297.209044,39.5199306 297.39196,39.998995 C297.574875,40.4780593 297.666332,41.0311526 297.666332,41.6582915 C297.666332,42.3376918 297.531325,42.9735314 297.261307,43.5658291 C296.991288,44.1581269 296.603688,44.6763797 296.098492,45.120603 C295.593297,45.5648263 294.983588,45.9132316 294.269347,46.1658291 C293.555105,46.4184267 292.745063,46.5447236 291.839196,46.5447236 C290.63718,46.5447236 289.522283,46.3182602 288.494472,45.8653266 C287.466662,45.412393 286.578228,44.7939738 285.829146,44.0100503 L287.135678,42.4944724 Z M299.887437,39.9075377 C299.887437,38.8623063 300.048575,37.9259673 300.370854,37.0984925 C300.693134,36.2710176 301.11993,35.5698521 301.651256,34.9949749 C302.182582,34.4200976 302.787936,33.980236 303.467337,33.6753769 C304.146737,33.3705177 304.852258,33.2180905 305.58392,33.2180905 C306.385264,33.2180905 307.103849,33.3574525 307.739698,33.6361809 C308.375548,33.9149093 308.906866,34.3155753 309.333668,34.838191 C309.760471,35.3608066 310.087101,35.987936 310.313568,36.719598 C310.540035,37.4512599 310.653266,38.2700122 310.653266,39.1758794 C310.653266,39.6462335 310.627136,40.0381894 310.574874,40.3517588 L302.00402,40.3517588 C302.091123,41.7279801 302.513564,42.8167464 303.271357,43.6180905 C304.02915,44.4194345 305.017749,44.8201005 306.237186,44.8201005 C306.846904,44.8201005 307.408708,44.7286441 307.922613,44.5457286 C308.436518,44.3628132 308.928641,44.1232846 309.398995,43.8271357 L310.156784,45.238191 C309.599327,45.5866014 308.980908,45.891456 308.301508,46.1527638 C307.622107,46.4140717 306.846906,46.5447236 305.975879,46.5447236 C305.122274,46.5447236 304.325297,46.3922963 303.584925,46.0874372 C302.844552,45.782578 302.200003,45.3470715 301.651256,44.7809045 C301.10251,44.2147375 300.671358,43.5222822 300.357789,42.7035176 C300.04422,41.884753 299.887437,40.952769 299.887437,39.9075377 Z M308.771859,38.9407035 C308.771859,37.6341643 308.49749,36.6368544 307.948744,35.9487437 C307.399997,35.2606331 306.629151,34.9165829 305.636181,34.9165829 C305.183247,34.9165829 304.752096,35.0080393 304.342714,35.1909548 C303.933331,35.3738703 303.563151,35.6351742 303.232161,35.9748744 C302.901171,36.3145746 302.626802,36.7326608 302.409045,37.2291457 C302.191289,37.7256306 302.047572,38.2961442 301.977889,38.9407035 L308.771859,38.9407035 Z M313.788945,33.5316583 L315.565829,33.5316583 L315.748744,35.8311558 L315.827136,35.8311558 C316.262649,35.0298117 316.789612,34.3939722 317.40804,33.9236181 C318.026469,33.453264 318.701504,33.2180905 319.433166,33.2180905 C319.938361,33.2180905 320.391288,33.3051918 320.79196,33.479397 L320.373869,35.360804 C320.164823,35.2911219 319.9732,35.2388611 319.798995,35.2040201 C319.62479,35.1691791 319.407036,35.1517588 319.145729,35.1517588 C318.605692,35.1517588 318.043889,35.3695121 317.460302,35.8050251 C316.876714,36.2405382 316.367171,36.9983196 315.931658,38.078392 L315.931658,46.2311558 L313.788945,46.2311558 L313.788945,33.5316583 Z M321.027136,33.5316583 L323.248241,33.5316583 L325.652261,40.7437186 C325.843887,41.3708574 326.039865,41.9979868 326.240201,42.6251256 C326.440537,43.2522644 326.636515,43.8706837 326.828141,44.480402 L326.932663,44.480402 C327.124289,43.8706837 327.315912,43.2522644 327.507538,42.6251256 L328.082412,40.7437186 L330.486432,33.5316583 L332.603015,33.5316583 L328.108543,46.2311558 L325.6,46.2311558 L321.027136,33.5316583 Z M336.156784,30.918593 C335.738691,30.918593 335.385931,30.787941 335.098492,30.5266332 C334.811054,30.2653253 334.667337,29.9343404 334.667337,29.5336683 C334.667337,29.1155758 334.811054,28.7802358 335.098492,28.5276382 C335.385931,28.2750406 335.738691,28.1487437 336.156784,28.1487437 C336.574876,28.1487437 336.927637,28.2750406 337.215075,28.5276382 C337.502514,28.7802358 337.646231,29.1155758 337.646231,29.5336683 C337.646231,29.9343404 337.502514,30.2653253 337.215075,30.5266332 C336.927637,30.787941 336.574876,30.918593 336.156784,30.918593 Z M335.059296,33.5316583 L337.20201,33.5316583 L337.20201,46.2311558 L335.059296,46.2311558 L335.059296,33.5316583 Z M340.546734,39.9075377 C340.546734,38.8448858 340.712226,37.8998366 341.043216,37.0723618 C341.374206,36.244887 341.818423,35.5437215 342.375879,34.9688442 C342.933336,34.393967 343.582241,33.9584604 344.322613,33.6623116 C345.062985,33.3661627 345.842542,33.2180905 346.661307,33.2180905 C347.497492,33.2180905 348.216077,33.3705177 348.817085,33.6753769 C349.418093,33.980236 349.936346,34.3329963 350.371859,34.7336683 L349.300503,36.118593 C348.917251,35.787603 348.52094,35.517589 348.111558,35.3085427 C347.702176,35.0994964 347.244894,34.9949749 346.739698,34.9949749 C346.164821,34.9949749 345.633503,35.1125616 345.145729,35.3477387 C344.657954,35.5829157 344.239868,35.9182558 343.891457,36.3537688 C343.543047,36.7892819 343.268678,37.3075347 343.068342,37.9085427 C342.868006,38.5095507 342.767839,39.1758757 342.767839,39.9075377 C342.767839,40.6391996 342.863651,41.3011696 343.055276,41.8934673 C343.246902,42.4857651 343.512561,42.9953077 343.852261,43.4221106 C344.191961,43.8489134 344.605693,44.1798983 345.093467,44.4150754 C345.581242,44.6502524 346.11256,44.7678392 346.687437,44.7678392 C347.297155,44.7678392 347.850249,44.6415423 348.346734,44.3889447 C348.843219,44.1363471 349.28308,43.8358476 349.666332,43.4874372 L350.633166,44.8984925 C350.058289,45.4036876 349.418094,45.8043536 348.712563,46.1005025 C348.007032,46.3966514 347.271026,46.5447236 346.504523,46.5447236 C345.668338,46.5447236 344.884426,46.3966514 344.152764,46.1005025 C343.421102,45.8043536 342.789617,45.3732022 342.258291,44.8070352 C341.726966,44.2408682 341.308879,43.5440577 341.00402,42.7165829 C340.699161,41.8891081 340.546734,40.952769 340.546734,39.9075377 Z M352.462312,39.9075377 C352.462312,38.8623063 352.623449,37.9259673 352.945729,37.0984925 C353.268008,36.2710176 353.694805,35.5698521 354.226131,34.9949749 C354.757457,34.4200976 355.362811,33.980236 356.042211,33.6753769 C356.721611,33.3705177 357.427132,33.2180905 358.158794,33.2180905 C358.960138,33.2180905 359.678724,33.3574525 360.314573,33.6361809 C360.950422,33.9149093 361.48174,34.3155753 361.908543,34.838191 C362.335346,35.3608066 362.661975,35.987936 362.888442,36.719598 C363.114909,37.4512599 363.228141,38.2700122 363.228141,39.1758794 C363.228141,39.6462335 363.20201,40.0381894 363.149749,40.3517588 L354.578894,40.3517588 C354.665997,41.7279801 355.088438,42.8167464 355.846231,43.6180905 C356.604024,44.4194345 357.592624,44.8201005 358.81206,44.8201005 C359.421779,44.8201005 359.983582,44.7286441 360.497487,44.5457286 C361.011393,44.3628132 361.503515,44.1232846 361.973869,43.8271357 L362.731658,45.238191 C362.174202,45.5866014 361.555782,45.891456 360.876382,46.1527638 C360.196982,46.4140717 359.42178,46.5447236 358.550754,46.5447236 C357.697148,46.5447236 356.900171,46.3922963 356.159799,46.0874372 C355.419427,45.782578 354.774877,45.3470715 354.226131,44.7809045 C353.677384,44.2147375 353.246233,43.5222822 352.932663,42.7035176 C352.619094,41.884753 352.462312,40.952769 352.462312,39.9075377 Z M361.346734,38.9407035 C361.346734,37.6341643 361.072365,36.6368544 360.523618,35.9487437 C359.974872,35.2606331 359.204025,34.9165829 358.211055,34.9165829 C357.758122,34.9165829 357.32697,35.0080393 356.917588,35.1909548 C356.508206,35.3738703 356.138025,35.6351742 355.807035,35.9748744 C355.476045,36.3145746 355.201676,36.7326608 354.98392,37.2291457 C354.766163,37.7256306 354.622446,38.2961442 354.552764,38.9407035 L361.346734,38.9407035 Z M366.024121,43.3567839 C366.581577,43.8097175 367.152091,44.175543 367.735678,44.4542714 C368.319266,44.7329997 368.994301,44.8723618 369.760804,44.8723618 C370.596989,44.8723618 371.224119,44.6807389 371.642211,44.2974874 C372.060304,43.9142359 372.269347,43.4438889 372.269347,42.8864322 C372.269347,42.5554422 372.182245,42.2680079 372.00804,42.0241206 C371.833835,41.7802333 371.611727,41.5668351 371.341709,41.3839196 C371.07169,41.2010041 370.762481,41.0398667 370.41407,40.9005025 L369.368844,40.4824121 C368.915911,40.3256274 368.462984,40.1470697 368.01005,39.9467337 C367.557117,39.7463977 367.152096,39.502514 366.794975,39.2150754 C366.437854,38.9276368 366.146065,38.5922967 365.919598,38.2090452 C365.693131,37.8257937 365.579899,37.3641568 365.579899,36.8241206 C365.579899,36.3189254 365.680066,35.8442233 365.880402,35.4 C366.080738,34.9557767 366.368172,34.5725309 366.742714,34.2502513 C367.117255,33.9279716 367.574537,33.6753778 368.114573,33.4924623 C368.654609,33.3095468 369.264318,33.2180905 369.943719,33.2180905 C370.745063,33.2180905 371.481069,33.3574525 372.151759,33.6361809 C372.822449,33.9149093 373.401673,34.2546044 373.889447,34.6552764 L372.870352,36.0140704 C372.434839,35.6830804 371.981912,35.4130664 371.511558,35.2040201 C371.041204,34.9949738 370.527306,34.8904523 369.969849,34.8904523 C369.168505,34.8904523 368.580571,35.073365 368.20603,35.439196 C367.831489,35.805027 367.644221,36.2318234 367.644221,36.719598 C367.644221,37.0157469 367.722612,37.2726957 367.879397,37.4904523 C368.036182,37.7082088 368.245225,37.8998317 368.506533,38.0653266 C368.767841,38.2308216 369.06834,38.3788938 369.40804,38.5095477 C369.74774,38.6402017 370.100501,38.7752087 370.466332,38.9145729 C370.919265,39.0887781 371.376547,39.2716908 371.838191,39.4633166 C372.299835,39.6549423 372.713566,39.8944709 373.079397,40.1819095 C373.445228,40.4693482 373.745727,40.8221085 373.980905,41.240201 C374.216082,41.6582935 374.333668,42.1634811 374.333668,42.7557789 C374.333668,43.2783946 374.233502,43.7661619 374.033166,44.2190955 C373.83283,44.6720291 373.536685,45.0726951 373.144724,45.4211055 C372.752762,45.769516 372.264995,46.0438851 371.681407,46.2442211 C371.09782,46.4445571 370.431495,46.5447236 369.682412,46.5447236 C368.776545,46.5447236 367.914242,46.3792311 367.095477,46.0482412 C366.276713,45.7172513 365.562482,45.299165 364.952764,44.7939698 L366.024121,43.3567839 Z" id="Our-Services" fill="#79797B"></path>
            <g id="Group-4" transform="translate(471.549236, 107.125707)">
                <g id="icon-play" transform="translate(45.880466, 0.000000)" stroke="#979797">
                    <rect id="Rectangle-5" x="0.5" y="0.5" width="35.9592644" height="30.8826509"></rect>
                    <polygon id="Triangle" transform="translate(18.479632, 13.390713) rotate(90.000000) translate(-18.479632, -13.390713) " points="18.4796322 8.92714224 24.2146905 17.8542845 12.7445739 17.8542845"></polygon>
                    <path d="M36.3220357,26.1437737 L10.8328878,26.1437737" id="Line" stroke-linecap="square"></path>
                    <path d="M9.55843045,24.8684677 L9.55843045,27.4190797" id="Line" stroke-linecap="square"></path>
                    <path d="M7.00951566,26.1437737 L0.637228697,26.1437737" id="Line" stroke-linecap="square"></path>
                </g>
                <path d="M31.2242061,47.8239763 L97.4959906,47.8239763" id="Line" stroke="#979797" stroke-width="7" stroke-linecap="square"></path>
                <path d="M0.637228697,71.4171379 L126.808511,71.4171379" id="Line" stroke="#D7D9D9" stroke-width="4" stroke-linecap="square"></path>
                <path d="M0.637228697,85.4455043 L126.808511,85.4455043" id="Line" stroke="#D7D9D9" stroke-width="4" stroke-linecap="square"></path>
                <path d="M0.637228697,99.4738707 L126.808511,99.4738707" id="Line" stroke="#D7D9D9" stroke-width="4" stroke-linecap="square"></path>
                <path d="M12.1073452,112.226931 L115.983441,112.226931" id="Line" stroke="#D7D9D9" stroke-width="4" stroke-linecap="square"></path>
                <path d="M31.2242061,217.439679 L97.4959906,217.439679" id="Line" stroke="#979797" stroke-width="7" stroke-linecap="square"></path>
                <path d="M0.637228697,241.03284 L126.808511,241.03284" id="Line" stroke="#D7D9D9" stroke-width="4" stroke-linecap="square"></path>
                <path d="M0.637228697,255.061207 L126.808511,255.061207" id="Line" stroke="#D7D9D9" stroke-width="4" stroke-linecap="square"></path>
                <path d="M0.637228697,269.089573 L126.808511,269.089573" id="Line" stroke="#D7D9D9" stroke-width="4" stroke-linecap="square"></path>
                <path d="M12.1073452,281.842634 L115.983441,281.842634" id="Line" stroke="#D7D9D9" stroke-width="4" stroke-linecap="square"></path>
                <g id="icon" transform="translate(45.880466, 172.166315)">
                    <rect id="Rectangle-2" stroke="#979797" x="0.5" y="19.6295905" width="35.9592644" height="5.37653017"></rect>
                    <rect id="Rectangle-2" fill="#D8D8D8" x="1.27445739" y="20.4048965" width="22.9402331" height="3.8259181"></rect>
                    <rect id="Rectangle-2" stroke="#979797" x="0.5" y="10.7024483" width="35.9592644" height="5.37653017"></rect>
                    <rect id="Rectangle-2" fill="#D8D8D8" x="1.27445739" y="11.4777543" width="19.1168609" height="3.8259181"></rect>
                    <rect id="Rectangle-2" stroke="#979797" x="0.5" y="0.5" width="35.9592644" height="5.37653017"></rect>
                    <rect id="Rectangle-2" fill="#D8D8D8" x="1.27445739" y="1.27530603" width="29.31252" height="3.8259181"></rect>
                </g>
            </g>
            <g id="Group-3" transform="translate(235.774618, 107.125707)">
                <g id="icon-diamant" transform="translate(47.154924, 0.000000)" stroke="#979797">
                    <polygon id="Path-2" points="25.7228196 0.834507227 34.0301458 11.6746523 17.6102503 29.8693671 0.115457994 11.8132994 9.2288131 0.750634321"></polygon>
                    <polyline id="Path-3" points="9.43735801 0.991982886 9.43735801 12.3039475 25.9654111 12.3039475 25.9654111 1.15555019"></polyline>
                    <polygon id="Path-4" points="17.2023525 1.8963268 9.22479157 11.7442611 17.715959 29.9064538 26.4524395 12.2229643"></polygon>
                    <path d="M1.15859763,12.0818466 L31.9772946,12.0818466" id="Line" stroke-linecap="square"></path>
                </g>
                <path d="M31.2242061,47.8239763 L97.4959906,47.8239763" id="Line" stroke="#979797" stroke-width="7" stroke-linecap="square"></path>
                <path d="M0.637228697,71.4171379 L126.808511,71.4171379" id="Line" stroke="#D7D9D9" stroke-width="4" stroke-linecap="square"></path>
                <path d="M0.637228697,85.4455043 L126.808511,85.4455043" id="Line" stroke="#D7D9D9" stroke-width="4" stroke-linecap="square"></path>
                <path d="M0.637228697,99.4738707 L126.808511,99.4738707" id="Line" stroke="#D7D9D9" stroke-width="4" stroke-linecap="square"></path>
                <path d="M12.1073452,112.226931 L115.983441,112.226931" id="Line" stroke="#D7D9D9" stroke-width="4" stroke-linecap="square"></path>
                <path d="M31.2242061,217.439679 L97.4959906,217.439679" id="Line" stroke="#979797" stroke-width="7" stroke-linecap="square"></path>
                <path d="M0.637228697,241.03284 L126.808511,241.03284" id="Line" stroke="#D7D9D9" stroke-width="4" stroke-linecap="square"></path>
                <path d="M0.637228697,255.061207 L126.808511,255.061207" id="Line" stroke="#D7D9D9" stroke-width="4" stroke-linecap="square"></path>
                <path d="M0.637228697,269.089573 L126.808511,269.089573" id="Line" stroke="#D7D9D9" stroke-width="4" stroke-linecap="square"></path>
                <path d="M12.1073452,281.842634 L115.983441,281.842634" id="Line" stroke="#D7D9D9" stroke-width="4" stroke-linecap="square"></path>
                <g id="icon" transform="translate(49.434406, 173.441621)" stroke="#979797">
                    <polygon id="Path-5" points="0.249798406 5.8843497 0.249798406 28.1301072 10.8201625 23.245528 20.4335418 27.8893355 30.2142635 23.2962141 30.2142635 0.469682537 21.2898072 5.35576663 11.4255783 1.18261533"></polygon>
                    <path d="M21.2979793,5.73887715 L21.2979793,27.4565563" id="Line" stroke-linecap="square"></path>
                    <path d="M11.1023201,1.91295905 L11.1023201,23.5931616" id="Line" stroke-linecap="square"></path>
                </g>
            </g>
            <g id="Group-2" transform="translate(0.000000, 107.125707)">
                <g id="icon-mac" transform="translate(45.880466, 0.000000)">
                    <rect id="Rectangle-3" stroke="#979797" x="0.5" y="0.5" width="33.4103496" height="24.5061207" rx="2"></rect>
                    <path d="M0.637228697,19.7672435 L33.7731209,19.7672435" id="Line" stroke="#979797" stroke-linecap="square"></path>
                    <path d="M13.3818026,24.8684677 L13.3818026,28.6943858" id="Line" stroke="#979797" stroke-linecap="square"></path>
                    <path d="M21.028547,24.8684677 L21.028547,28.6943858" id="Line" stroke="#979797" stroke-linecap="square"></path>
                    <g id="Rectangle-4">
                        <use fill="#D8D8D8" fill-rule="evenodd" xlink:href="#path-1"></use>
                        <rect stroke="#979797" stroke-width="1" x="10.6956591" y="29.8320388" width="13.0190313" height="1" rx="0.5"></rect>
                    </g>
                    <ellipse id="Oval" fill="#D8D8D8" cx="17.2051748" cy="22.3178556" rx="1" ry="1"></ellipse>
                </g>
                <path d="M29.9497487,47.8239763 L96.2215332,47.8239763" id="Line" stroke="#979797" stroke-width="7" stroke-linecap="square"></path>
                <path d="M0.637228697,71.4171379 L126.808511,71.4171379" id="Line" stroke="#D7D9D9" stroke-width="4" stroke-linecap="square"></path>
                <path d="M0.637228697,85.4455043 L126.808511,85.4455043" id="Line" stroke="#D7D9D9" stroke-width="4" stroke-linecap="square"></path>
                <path d="M0.637228697,99.4738707 L126.808511,99.4738707" id="Line" stroke="#D7D9D9" stroke-width="4" stroke-linecap="square"></path>
                <path d="M10.8328878,112.226931 L114.708984,112.226931" id="Line" stroke="#D7D9D9" stroke-width="4" stroke-linecap="square"></path>
                <path d="M29.9497487,217.439679 L96.2215332,217.439679" id="Line" stroke="#979797" stroke-width="7" stroke-linecap="square"></path>
                <path d="M0.637228697,241.03284 L126.808511,241.03284" id="Line" stroke="#D7D9D9" stroke-width="4" stroke-linecap="square"></path>
                <path d="M0.637228697,255.061207 L126.808511,255.061207" id="Line" stroke="#D7D9D9" stroke-width="4" stroke-linecap="square"></path>
                <path d="M0.637228697,269.089573 L126.808511,269.089573" id="Line" stroke="#D7D9D9" stroke-width="4" stroke-linecap="square"></path>
                <path d="M10.8328878,281.842634 L114.708984,281.842634" id="Line" stroke="#D7D9D9" stroke-width="4" stroke-linecap="square"></path>
                <g id="icon" transform="translate(48.429381, 172.166315)" stroke="#979797" stroke-linecap="square">
                    <path d="M7.28261368,13.8133017 L7.28261368,21.9061135" id="Line" stroke-width="3"></path>
                    <path d="M13.1087046,7.99710533 L13.1087046,21.9061135" id="Line" stroke-width="3"></path>
                    <path d="M18.9347956,10.2024483 L18.9347956,21.9061135" id="Line" stroke-width="3"></path>
                    <path d="M24.7608865,5.82997044 L24.7608865,21.9061135" id="Line" stroke-width="3"></path>
                    <path d="M2.1847841,0.728746305 L2.1847841,27.1250602" id="Line"></path>
                    <path d="M29.2917941,27.6923596 L2.17500307,27.6923596" id="Line"></path>
                </g>
            </g>
            <g id="Group" transform="translate(245.970277, 457.834866)">
                <rect id="Rectangle" fill="#4990E2" x="0" y="0" width="117.25008" height="30.6073448"></rect>
                <path d="M29.1774276,16.4539985 C29.3558525,16.6070359 29.5533914,16.7320147 29.7700503,16.8289384 C29.9867091,16.9258622 30.1995413,16.9743233 30.4085534,16.9743233 C30.6430547,16.9743233 30.8176537,16.9309633 30.9323554,16.8442421 C31.0470571,16.7575209 31.1044071,16.6401939 31.1044071,16.4922576 C31.1044071,16.4157389 31.0878394,16.3494236 31.0547033,16.2933099 C31.0215672,16.2371961 30.9731383,16.1874597 30.9094152,16.1440991 C30.845692,16.1007385 30.7692253,16.0599291 30.6800128,16.0216697 L30.3856132,15.8954144 L29.7356399,15.6199483 C29.6081935,15.5689358 29.4845724,15.5026206 29.3647728,15.4210006 C29.2449732,15.3393806 29.1379199,15.2437336 29.0436095,15.1340567 C28.9492992,15.0243798 28.874107,14.8968505 28.8180306,14.7514649 C28.7619542,14.6060793 28.7339164,14.4415664 28.7339164,14.2579215 C28.7339164,14.0538715 28.7772475,13.8613022 28.863911,13.6802078 C28.9505746,13.4991135 29.0729213,13.3409771 29.2309548,13.205794 C29.3889883,13.0706109 29.5763316,12.9647615 29.7929905,12.8882428 C30.0096493,12.811724 30.2479705,12.7734652 30.5079611,12.7734652 C30.7985388,12.7734652 31.0852889,12.8295781 31.3682198,12.9418056 C31.6511508,13.0540331 31.8996675,13.2172707 32.1137774,13.4315232 L31.5402716,14.1431439 C31.3771402,14.0156127 31.2140113,13.9174151 31.0508799,13.8485482 C30.8877486,13.7796814 30.7067774,13.7452484 30.5079611,13.7452484 C30.3142426,13.7452484 30.1600348,13.7847825 30.045333,13.8638519 C29.9306313,13.9429213 29.8732813,14.0538718 29.8732813,14.1967068 C29.8732813,14.2732255 29.892398,14.3382655 29.9306319,14.3918286 C29.9688658,14.4453917 30.0223925,14.4938529 30.0912135,14.5372135 C30.1600346,14.5805741 30.2403246,14.6213835 30.332086,14.6596429 C30.4238474,14.6979022 30.523254,14.7399869 30.630309,14.7858982 L31.2726355,15.0460606 C31.5785068,15.1684906 31.8193769,15.3368293 31.9952529,15.5510818 C32.1711289,15.7653343 32.2590655,16.0484494 32.2590655,16.4004356 C32.2590655,16.6095868 32.2170089,16.8072573 32.1328943,16.9934529 C32.0487796,17.1796485 31.926433,17.3428861 31.7658505,17.4831704 C31.6052681,17.6234548 31.4077292,17.7356806 31.1732278,17.8198512 C30.9387265,17.9040218 30.673642,17.9461065 30.3779664,17.9461065 C30.0517037,17.9461065 29.7267203,17.8861677 29.4030065,17.7662884 C29.0792927,17.646409 28.7899938,17.4665926 28.535101,17.2268339 L29.1774276,16.4539985 Z M33.1078542,12.8652873 L36.2277259,12.8652873 L36.2277259,13.814115 L34.2319256,13.814115 L34.2319256,14.8165055 L35.9295028,14.8165055 L35.9295028,15.7576814 L34.2319256,15.7576814 L34.2319256,16.9054568 L36.3041933,16.9054568 L36.3041933,17.8542845 L33.1078542,17.8542845 L33.1078542,12.8652873 Z M37.2982701,12.8652873 L40.4181418,12.8652873 L40.4181418,13.814115 L38.4223415,13.814115 L38.4223415,14.8165055 L40.1199187,14.8165055 L40.1199187,15.7576814 L38.4223415,15.7576814 L38.4223415,16.9054568 L40.4946092,16.9054568 L40.4946092,17.8542845 L37.2982701,17.8542845 L37.2982701,12.8652873 Z M45.1897103,15.7882887 L45.0750091,15.3291785 C45.0036391,15.0792173 44.9348191,14.8139563 44.868547,14.5333876 C44.8022749,14.2528188 44.7360038,13.9824567 44.6697316,13.7222929 L44.6391447,13.7222929 C44.5779704,13.9875579 44.5155226,14.2591954 44.4517994,14.5372135 C44.3880762,14.8152316 44.3205307,15.0792173 44.2491607,15.3291785 L44.1268128,15.7882887 L45.1897103,15.7882887 Z M45.4191126,16.6682499 L43.8974105,16.6682499 L43.5915407,17.8542845 L42.444529,17.8542845 L44.0044649,12.8652873 L45.3579386,12.8652873 L46.9178745,17.8542845 L45.7249824,17.8542845 L45.4191126,16.6682499 Z M47.4607933,12.8652873 L48.5848647,12.8652873 L48.5848647,16.9054568 L50.5577248,16.9054568 L50.5577248,17.8542845 L47.4607933,17.8542845 L47.4607933,12.8652873 Z M51.4218069,12.8652873 L52.5458783,12.8652873 L52.5458783,16.9054568 L54.5187384,16.9054568 L54.5187384,17.8542845 L51.4218069,17.8542845 L51.4218069,12.8652873 Z M57.2945066,16.4539985 C57.4729315,16.6070359 57.6704704,16.7320147 57.8871293,16.8289384 C58.1037881,16.9258622 58.3166204,16.9743233 58.5256324,16.9743233 C58.7601338,16.9743233 58.9347327,16.9309633 59.0494344,16.8442421 C59.1641361,16.7575209 59.2214862,16.6401939 59.2214862,16.4922576 C59.2214862,16.4157389 59.2049184,16.3494236 59.1717823,16.2933099 C59.1386463,16.2371961 59.0902174,16.1874597 59.0264942,16.1440991 C58.962771,16.1007385 58.8863043,16.0599291 58.7970918,16.0216697 L58.5026922,15.8954144 L57.8527189,15.6199483 C57.7252725,15.5689358 57.6016514,15.5026206 57.4818518,15.4210006 C57.3620522,15.3393806 57.2549989,15.2437336 57.1606885,15.1340567 C57.0663782,15.0243798 56.991186,14.8968505 56.9351096,14.7514649 C56.8790332,14.6060793 56.8509954,14.4415664 56.8509954,14.2579215 C56.8509954,14.0538715 56.8943265,13.8613022 56.9809901,13.6802078 C57.0676536,13.4991135 57.1900003,13.3409771 57.3480338,13.205794 C57.5060673,13.0706109 57.6934107,12.9647615 57.9100695,12.8882428 C58.1267283,12.811724 58.3650495,12.7734652 58.6250401,12.7734652 C58.9156178,12.7734652 59.2023679,12.8295781 59.4852988,12.9418056 C59.7682298,13.0540331 60.0167465,13.2172707 60.2308564,13.4315232 L59.6573506,14.1431439 C59.4942192,14.0156127 59.3310903,13.9174151 59.1679589,13.8485482 C59.0048276,13.7796814 58.8238564,13.7452484 58.6250401,13.7452484 C58.4313216,13.7452484 58.2771138,13.7847825 58.1624121,13.8638519 C58.0477103,13.9429213 57.9903603,14.0538718 57.9903603,14.1967068 C57.9903603,14.2732255 58.009477,14.3382655 58.0477109,14.3918286 C58.0859448,14.4453917 58.1394715,14.4938529 58.2082925,14.5372135 C58.2771136,14.5805741 58.3574036,14.6213835 58.449165,14.6596429 C58.5409264,14.6979022 58.640333,14.7399869 58.747388,14.7858982 L59.3897145,15.0460606 C59.6955858,15.1684906 59.9364559,15.3368293 60.1123319,15.5510818 C60.2882079,15.7653343 60.3761446,16.0484494 60.3761446,16.4004356 C60.3761446,16.6095868 60.3340879,16.8072573 60.2499733,16.9934529 C60.1658587,17.1796485 60.043512,17.3428861 59.8829295,17.4831704 C59.7223471,17.6234548 59.5248082,17.7356806 59.2903069,17.8198512 C59.0558055,17.9040218 58.790721,17.9461065 58.4950454,17.9461065 C58.1687827,17.9461065 57.8437993,17.8861677 57.5200855,17.7662884 C57.1963717,17.646409 56.9070728,17.4665926 56.65218,17.2268339 L57.2945066,16.4539985 Z M61.2249332,12.8652873 L64.3448049,12.8652873 L64.3448049,13.814115 L62.3490046,13.814115 L62.3490046,14.8165055 L64.0465818,14.8165055 L64.0465818,15.7576814 L62.3490046,15.7576814 L62.3490046,16.9054568 L64.4212723,16.9054568 L64.4212723,17.8542845 L61.2249332,17.8542845 L61.2249332,12.8652873 Z M66.5394205,15.1608381 L67.1205731,15.1608381 C67.4162487,15.1608381 67.6418254,15.0983488 67.79731,14.9733681 C67.9527945,14.8483875 68.0305357,14.66347 68.0305357,14.41861 C68.0305357,14.17375 67.9527945,14.0028607 67.79731,13.905937 C67.6418254,13.8090133 67.4162487,13.7605521 67.1205731,13.7605521 L66.5394205,13.7605521 L66.5394205,15.1608381 Z M68.1146498,17.8542845 L67.1588068,16.056103 L66.5394205,16.056103 L66.5394205,17.8542845 L65.4153491,17.8542845 L65.4153491,12.8652873 L67.212334,12.8652873 C67.4774225,12.8652873 67.7259392,12.8907931 67.9578916,12.9418056 C68.189844,12.9928181 68.3924807,13.0782628 68.5658078,13.1981421 C68.7391348,13.3180215 68.8767749,13.4774332 68.978732,13.6763819 C69.0806891,13.8753306 69.1316668,14.1227375 69.1316668,14.41861 C69.1316668,14.7859 69.0513768,15.0881445 68.8907944,15.3253526 C68.730212,15.5625607 68.5148308,15.7398265 68.2446445,15.8571552 L69.3763627,17.8542845 L68.1146498,17.8542845 Z M69.4834171,12.8652873 L70.6763092,12.8652873 L71.2727553,15.1914455 C71.3492231,15.466913 71.4167687,15.7334493 71.475394,15.9910624 C71.5340193,16.2486755 71.6015649,16.5152118 71.6780327,16.7906792 L71.7086197,16.7906792 C71.7799897,16.5152118 71.8462608,16.2486755 71.907435,15.9910624 C71.9686093,15.7334493 72.0348804,15.466913 72.1062504,15.1914455 L72.6950497,12.8652873 L73.8420614,12.8652873 L72.3432995,17.8542845 L70.9898257,17.8542845 L69.4834171,12.8652873 Z M74.3773335,12.8652873 L75.5014049,12.8652873 L75.5014049,17.8542845 L74.3773335,17.8542845 L74.3773335,12.8652873 Z M76.4419545,15.3903932 C76.4419545,14.977192 76.5056767,14.6086322 76.6331231,14.2847029 C76.7605694,13.9607735 76.9326195,13.6865855 77.1492783,13.4621305 C77.3659371,13.2376755 77.6182772,13.0667862 77.906306,12.9494575 C78.1943348,12.8321287 78.4989271,12.7734652 78.8200919,12.7734652 C79.1310611,12.7734652 79.4127134,12.8385052 79.6650572,12.9685871 C79.917401,13.0986689 80.1276844,13.2504288 80.2959136,13.4238713 L79.6765273,14.1201884 C79.5490809,14.0028597 79.420362,13.9110386 79.2903667,13.8447223 C79.1603714,13.7784061 79.0087125,13.7452484 78.8353854,13.7452484 C78.6620584,13.7452484 78.5002039,13.7822319 78.3498172,13.8562001 C78.1994304,13.9301682 78.0681626,14.0360175 77.9560098,14.1737513 C77.843857,14.311485 77.7559203,14.4798237 77.6921972,14.6787725 C77.628474,14.8777212 77.5966129,15.1021728 77.5966129,15.352134 C77.5966129,15.8673603 77.7062151,16.266527 77.9254229,16.5496464 C78.1446306,16.8327658 78.4377529,16.9743233 78.8047985,16.9743233 C79.0087127,16.9743233 79.1871349,16.9335139 79.3400706,16.8518939 C79.4930062,16.7702739 79.6306462,16.6631493 79.7529948,16.5305168 L80.3723811,17.2115302 C80.163369,17.4563902 79.9250478,17.6400325 79.6574105,17.7624624 C79.3897731,17.8848924 79.1004741,17.9461065 78.789505,17.9461065 C78.4683401,17.9461065 78.1650223,17.8912689 77.8795424,17.781592 C77.5940625,17.6719152 77.3442714,17.5099529 77.1301614,17.2957004 C76.9160515,17.0814479 76.7478248,16.8149117 76.6254763,16.4960836 C76.5031278,16.1772554 76.4419545,15.8086957 76.4419545,15.3903932 Z M81.1294087,12.8652873 L84.2492804,12.8652873 L84.2492804,13.814115 L82.2534802,13.814115 L82.2534802,14.8165055 L83.9510574,14.8165055 L83.9510574,15.7576814 L82.2534802,15.7576814 L82.2534802,16.9054568 L84.3257479,16.9054568 L84.3257479,17.8542845 L81.1294087,17.8542845 L81.1294087,12.8652873 Z M85.6409879,16.4539985 C85.8194128,16.6070359 86.0169518,16.7320147 86.2336106,16.8289384 C86.4502694,16.9258622 86.6631017,16.9743233 86.8721138,16.9743233 C87.1066151,16.9743233 87.281214,16.9309633 87.3959157,16.8442421 C87.5106175,16.7575209 87.5679675,16.6401939 87.5679675,16.4922576 C87.5679675,16.4157389 87.5513997,16.3494236 87.5182637,16.2933099 C87.4851276,16.2371961 87.4366987,16.1874597 87.3729755,16.1440991 C87.3092523,16.1007385 87.2327856,16.0599291 87.1435732,16.0216697 L86.8491735,15.8954144 L86.1992003,15.6199483 C86.0717539,15.5689358 85.9481327,15.5026206 85.8283332,15.4210006 C85.7085336,15.3393806 85.6014802,15.2437336 85.5071699,15.1340567 C85.4128596,15.0243798 85.3376673,14.8968505 85.2815909,14.7514649 C85.2255145,14.6060793 85.1974767,14.4415664 85.1974767,14.2579215 C85.1974767,14.0538715 85.2408079,13.8613022 85.3274714,13.6802078 C85.4141349,13.4991135 85.5364816,13.3409771 85.6945151,13.205794 C85.8525486,13.0706109 86.039892,12.9647615 86.2565508,12.8882428 C86.4732097,12.811724 86.7115308,12.7734652 86.9715214,12.7734652 C87.2620992,12.7734652 87.5488492,12.8295781 87.8317802,12.9418056 C88.1147111,13.0540331 88.3632278,13.2172707 88.5773378,13.4315232 L88.0038319,14.1431439 C87.8407006,14.0156127 87.6775716,13.9174151 87.5144403,13.8485482 C87.3513089,13.7796814 87.1703378,13.7452484 86.9715214,13.7452484 C86.7778029,13.7452484 86.6235951,13.7847825 86.5088934,13.8638519 C86.3941917,13.9429213 86.3368417,14.0538718 86.3368417,14.1967068 C86.3368417,14.2732255 86.3559583,14.3382655 86.3941922,14.3918286 C86.4324262,14.4453917 86.4859528,14.4938529 86.5547739,14.5372135 C86.6235949,14.5805741 86.7038849,14.6213835 86.7956463,14.6596429 C86.8874077,14.6979022 86.9868144,14.7399869 87.0938693,14.7858982 L87.7361959,15.0460606 C88.0420672,15.1684906 88.2829372,15.3368293 88.4588132,15.5510818 C88.6346892,15.7653343 88.7226259,16.0484494 88.7226259,16.4004356 C88.7226259,16.6095868 88.6805692,16.8072573 88.5964546,16.9934529 C88.51234,17.1796485 88.3899933,17.3428861 88.2294109,17.4831704 C88.0688284,17.6234548 87.8712895,17.7356806 87.6367882,17.8198512 C87.4022869,17.9040218 87.1372024,17.9461065 86.8415268,17.9461065 C86.5152641,17.9461065 86.1902807,17.8861677 85.8665669,17.7662884 C85.5428531,17.646409 85.2535541,17.4665926 84.9986614,17.2268339 L85.6409879,16.4539985 Z" id="SEE-ALL-SERVICES" fill="#FFFFFF"></path>
            </g>
        </g>
    </g>
</svg>