<?xml version="1.0" encoding="UTF-8"?>
<svg width="600px" height="295px" viewBox="0 0 600 295" version="1.1" xmlns="http://www.w3.org/2000/svg" xmlns:xlink="http://www.w3.org/1999/xlink">
    <!-- Generator: Sketch 44.1 (41455) - http://www.bohemiancoding.com/sketch -->
    <title>02teambox_02</title>
    <desc>Created with Sketch.</desc>
    <defs></defs>
    <g id="Team" stroke="none" stroke-width="1" fill="none" fill-rule="evenodd">
        <g id="02">
            <rect id="Rectangle" fill="#79797B" x="0" y="0" width="150" height="147.409584"></rect>
            <g id="icon-team" transform="translate(26.424870, 28.706077)" stroke="#FFFFFF">
                <path d="M27.3326838,67.8924647 C22.8283304,37.9321793 29.0317612,22.8024219 45.9429763,22.5031924 C71.309799,22.0543482 67.057736,61.1449383 66.1213638,67.1818929" id="Path-5"></path>
                <path d="M14.7313423,83.2870635 C14.7313423,72.926243 21.4006901,70.5397831 27.8076433,67.5815917 C32.0789455,65.609464 34.8680691,65.1090699 36.175014,66.0804093 C36.6369512,69.1489077 37.1946854,71.3020536 37.8482164,72.5398471 C39.5332401,75.7312964 41.9413385,77.3408175 45.0725116,77.3684102 C52.5017062,77.4338783 56.1620093,70.6592446 56.1620093,64.4725141 C56.1683043,64.1792172 58.7002332,64.7151823 63.757796,66.0804093 C74.4366758,74.7986502 79.7527344,81.3031585 79.7059717,85.5939344" id="Path-6"></path>
                <path d="M40.4898143,37.2403161 C44.0298384,41.7392804 47.611904,44.9066245 51.2360111,46.7423486 C56.6721716,49.4959347 58.5141263,53.5228744 58.1141706,56.8768025 C57.7142148,60.2307306 49.5997672,71.6306819 46.6341595,71.7740569 C43.6685518,71.9174319 32.8272559,63.4759818 33.4450628,57.0398179 C33.856934,52.749042 36.2051845,46.1492081 40.4898143,37.2403161 Z" id="Path-7"></path>
                <ellipse id="Oval-2" cx="48.5144106" cy="48.4293824" rx="48.5144106" ry="48.4293824"></ellipse>
            </g>
            <rect id="Rectangle" fill-opacity="0.250622736" fill="#79797B" x="150" y="0" width="150" height="147.409584"></rect>
            <path d="M174.758549,68.3670136 C174.907773,68.6401106 175.081864,68.8428614 175.280829,68.9752721 C175.479794,69.1076828 175.682901,69.1738871 175.890155,69.1738871 C176.221763,69.1738871 176.472538,69.0725117 176.642487,68.8697579 C176.812436,68.667004 176.897409,68.2966735 176.897409,67.7587551 L176.897409,62.5078705 L178.725389,62.5078705 L178.725389,67.9077164 C178.725389,68.2966727 178.673576,68.6649344 178.569948,69.0125124 C178.466321,69.3600904 178.308809,69.6621477 178.097409,69.9186934 C177.886009,70.1752391 177.616582,70.3779899 177.289119,70.5269519 C176.961656,70.6759139 176.574096,70.7503938 176.126425,70.7503938 C175.50466,70.7503938 174.984458,70.6303984 174.565803,70.3904041 C174.147148,70.1504097 173.796893,69.7821481 173.515026,69.285608 L174.758549,68.3670136 Z M180.093264,67.5228998 C180.093264,67.0098084 180.176165,66.5525846 180.341969,66.1512148 C180.507773,65.7498449 180.729532,65.4126165 181.007254,65.1395195 C181.284975,64.8664225 181.606216,64.657465 181.970984,64.5126409 C182.335753,64.3678167 182.712951,64.2954057 183.102591,64.2954057 C183.49223,64.2954057 183.867356,64.3678167 184.227979,64.5126409 C184.588603,64.657465 184.907771,64.8664225 185.185492,65.1395195 C185.463214,65.4126165 185.684973,65.7498449 185.850777,66.1512148 C186.016581,66.5525846 186.099482,67.0098084 186.099482,67.5228998 C186.099482,68.0359911 186.016581,68.4932149 185.850777,68.8945847 C185.684973,69.2959546 185.463214,69.633183 185.185492,69.90628 C184.907771,70.179377 184.588603,70.3883345 184.227979,70.5331586 C183.867356,70.6779828 183.49223,70.7503938 183.102591,70.7503938 C182.712951,70.7503938 182.335753,70.6779828 181.970984,70.5331586 C181.606216,70.3883345 181.284975,70.179377 181.007254,69.90628 C180.729532,69.633183 180.507773,69.2959546 180.341969,68.8945847 C180.176165,68.4932149 180.093264,68.0359911 180.093264,67.5228998 Z M181.970984,67.5228998 C181.970984,68.0608181 182.064248,68.4870086 182.250777,68.8014839 C182.437307,69.1159593 182.721242,69.2731946 183.102591,69.2731946 C183.47565,69.2731946 183.757512,69.1159593 183.948187,68.8014839 C184.138861,68.4870086 184.234197,68.0608181 184.234197,67.5228998 C184.234197,66.9849814 184.138861,66.5587909 183.948187,66.2443156 C183.757512,65.9298402 183.47565,65.7726049 183.102591,65.7726049 C182.721242,65.7726049 182.437307,65.9298402 182.250777,66.2443156 C182.064248,66.5587909 181.970984,66.9849814 181.970984,67.5228998 Z M187.35544,61.899612 L189.18342,61.899612 L189.18342,64.0347235 L189.096373,65.1395195 C189.328499,64.9326278 189.597926,64.7402215 189.904663,64.5622946 C190.2114,64.3843678 190.576164,64.2954057 190.998964,64.2954057 C191.67047,64.2954057 192.157511,64.5147076 192.460104,64.9533179 C192.762696,65.3919283 192.91399,66.0001807 192.91399,66.7780934 L192.91399,70.6014326 L191.08601,70.6014326 L191.08601,67.0139488 C191.08601,66.5670627 191.025907,66.2608676 190.905699,66.0953543 C190.785492,65.929841 190.592747,65.8470855 190.327461,65.8470855 C190.095336,65.8470855 189.896374,65.8988077 189.73057,66.0022535 C189.564766,66.1056994 189.382384,66.2525902 189.18342,66.4429306 L189.18342,70.6014326 L187.35544,70.6014326 L187.35544,61.899612 Z M194.455959,64.444367 L195.948187,64.444367 L196.072539,65.2264136 L196.12228,65.2264136 C196.387566,64.9781436 196.677719,64.7609106 196.992746,64.5747081 C197.307774,64.3885056 197.676682,64.2954057 198.099482,64.2954057 C198.770988,64.2954057 199.25803,64.5147076 199.560622,64.9533179 C199.863214,65.3919283 200.014508,66.0001807 200.014508,66.7780934 L200.014508,70.6014326 L198.186528,70.6014326 L198.186528,67.0139488 C198.186528,66.5670627 198.126425,66.2608676 198.006218,66.0953543 C197.88601,65.929841 197.693266,65.8470855 197.427979,65.8470855 C197.195854,65.8470855 196.996892,65.8988077 196.831088,66.0022535 C196.665284,66.1056994 196.482903,66.2525902 196.283938,66.4429306 L196.283938,70.6014326 L194.455959,70.6014326 L194.455959,64.444367 Z M204.304663,62.5078705 L206.592746,62.5078705 C207.214511,62.5078705 207.774091,62.5864882 208.271503,62.7437259 C208.768914,62.9009635 209.195853,63.1430232 209.552332,63.469912 C209.90881,63.7968009 210.182382,64.2126469 210.373057,64.7174626 C210.563732,65.2222783 210.659067,65.8222552 210.659067,66.5174112 C210.659067,67.2125673 210.563732,67.8166819 210.373057,68.3297733 C210.182382,68.8428646 209.912955,69.2669862 209.564767,69.6021507 C209.216579,69.9373153 208.800002,70.1876504 208.315026,70.3531638 C207.830049,70.5186771 207.289122,70.6014326 206.692228,70.6014326 L204.304663,70.6014326 L204.304663,62.5078705 Z M206.480829,69.1242333 C206.829017,69.1242333 207.14404,69.0787179 207.425907,68.9876855 C207.707773,68.8966532 207.948186,68.7497623 208.14715,68.5470084 C208.346115,68.3442546 208.501554,68.0773683 208.613472,67.7463417 C208.725389,67.415315 208.781347,67.0056756 208.781347,66.5174112 C208.781347,66.0374225 208.725389,65.6339898 208.613472,65.3071009 C208.501554,64.9802121 208.346115,64.7195325 208.14715,64.5250543 C207.948186,64.3305761 207.707773,64.1919608 207.425907,64.1092041 C207.14404,64.0264474 206.829017,63.9850697 206.480829,63.9850697 L206.132642,63.9850697 L206.132642,69.1242333 L206.480829,69.1242333 Z M211.691192,67.5228998 C211.691192,67.0098084 211.774092,66.5525846 211.939896,66.1512148 C212.1057,65.7498449 212.32746,65.4126165 212.605181,65.1395195 C212.882903,64.8664225 213.204143,64.657465 213.568912,64.5126409 C213.933681,64.3678167 214.310879,64.2954057 214.700518,64.2954057 C215.090157,64.2954057 215.465283,64.3678167 215.825907,64.5126409 C216.18653,64.657465 216.505698,64.8664225 216.78342,65.1395195 C217.061141,65.4126165 217.282901,65.7498449 217.448705,66.1512148 C217.614509,66.5525846 217.697409,67.0098084 217.697409,67.5228998 C217.697409,68.0359911 217.614509,68.4932149 217.448705,68.8945847 C217.282901,69.2959546 217.061141,69.633183 216.78342,69.90628 C216.505698,70.179377 216.18653,70.3883345 215.825907,70.5331586 C215.465283,70.6779828 215.090157,70.7503938 214.700518,70.7503938 C214.310879,70.7503938 213.933681,70.6779828 213.568912,70.5331586 C213.204143,70.3883345 212.882903,70.179377 212.605181,69.90628 C212.32746,69.633183 212.1057,69.2959546 211.939896,68.8945847 C211.774092,68.4932149 211.691192,68.0359911 211.691192,67.5228998 Z M213.568912,67.5228998 C213.568912,68.0608181 213.662175,68.4870086 213.848705,68.8014839 C214.035234,69.1159593 214.319169,69.2731946 214.700518,69.2731946 C215.073577,69.2731946 215.355439,69.1159593 215.546114,68.8014839 C215.736789,68.4870086 215.832124,68.0608181 215.832124,67.5228998 C215.832124,66.9849814 215.736789,66.5587909 215.546114,66.2443156 C215.355439,65.9298402 215.073577,65.7726049 214.700518,65.7726049 C214.319169,65.7726049 214.035234,65.9298402 213.848705,66.2443156 C213.662175,66.5587909 213.568912,66.9849814 213.568912,67.5228998 Z M218.592746,67.5228998 C218.592746,67.0263597 218.675647,66.5774115 218.841451,66.1760417 C219.007255,65.7746718 219.224869,65.4353745 219.494301,65.1581397 C219.763732,64.8809048 220.072537,64.6678096 220.420725,64.5188476 C220.768914,64.3698856 221.129532,64.2954057 221.502591,64.2954057 C221.941971,64.2954057 222.325387,64.3698856 222.65285,64.5188476 C222.980313,64.6678096 223.253885,64.8746982 223.473575,65.1395195 C223.693265,65.4043409 223.856994,65.7167426 223.964767,66.0767341 C224.072539,66.4367257 224.126425,66.8277451 224.126425,67.2498041 C224.126425,67.4153174 224.118135,67.5663461 224.101554,67.7028946 C224.084974,67.8394431 224.068394,67.9449563 224.051813,68.0194373 L220.358549,68.0194373 C220.441451,68.4911503 220.625905,68.8325165 220.911917,69.043546 C221.197929,69.2545755 221.548184,69.3600887 221.962694,69.3600887 C222.402075,69.3600887 222.845594,69.2235422 223.293264,68.9504452 L223.902591,70.0552412 C223.587563,70.2704086 223.237308,70.4400572 222.851813,70.5641922 C222.466319,70.6883272 222.087048,70.7503938 221.71399,70.7503938 C221.274609,70.7503938 220.864251,70.6779828 220.482902,70.5331586 C220.101552,70.3883345 219.76995,70.1773081 219.488083,69.9000733 C219.206216,69.6228384 218.986529,69.28561 218.829016,68.888378 C218.671502,68.491146 218.592746,68.0359911 218.592746,67.5228998 Z M222.572021,66.8898144 C222.572021,66.5339607 222.493265,66.2443167 222.335751,66.0208737 C222.178238,65.7974307 221.912955,65.6857108 221.539896,65.6857108 C221.249739,65.6857108 220.99482,65.7829485 220.77513,65.9774266 C220.555439,66.1719048 220.412436,66.476031 220.346114,66.8898144 L222.572021,66.8898144 Z" id="John-Doe" fill="#79797B"></path>
            <rect id="Rectangle" fill="#79797B" x="300" y="0" width="150" height="147.409584"></rect>
            <g id="icon-team" transform="translate(326.424870, 28.706077)" stroke="#FFFFFF">
                <path d="M27.3326838,67.8924647 C22.8283304,37.9321793 29.0317612,22.8024219 45.9429763,22.5031924 C71.309799,22.0543482 67.057736,61.1449383 66.1213638,67.1818929" id="Path-5"></path>
                <path d="M14.7313423,83.2870635 C14.7313423,72.926243 21.4006901,70.5397831 27.8076433,67.5815917 C32.0789455,65.609464 34.8680691,65.1090699 36.175014,66.0804093 C36.6369512,69.1489077 37.1946854,71.3020536 37.8482164,72.5398471 C39.5332401,75.7312964 41.9413385,77.3408175 45.0725116,77.3684102 C52.5017062,77.4338783 56.1620093,70.6592446 56.1620093,64.4725141 C56.1683043,64.1792172 58.7002332,64.7151823 63.757796,66.0804093 C74.4366758,74.7986502 79.7527344,81.3031585 79.7059717,85.5939344" id="Path-6"></path>
                <path d="M40.4898143,37.2403161 C44.0298384,41.7392804 47.611904,44.9066245 51.2360111,46.7423486 C56.6721716,49.4959347 58.5141263,53.5228744 58.1141706,56.8768025 C57.7142148,60.2307306 49.5997672,71.6306819 46.6341595,71.7740569 C43.6685518,71.9174319 32.8272559,63.4759818 33.4450628,57.0398179 C33.856934,52.749042 36.2051845,46.1492081 40.4898143,37.2403161 Z" id="Path-7"></path>
                <ellipse id="Oval-2" cx="48.5144106" cy="48.4293824" rx="48.5144106" ry="48.4293824"></ellipse>
            </g>
            <rect id="Rectangle" fill-opacity="0.9" fill="#79797B" x="0" y="147.409584" width="150" height="147.409584"></rect>
            <g id="icon-team" transform="translate(26.424870, 176.115661)" stroke="#FFFFFF">
                <path d="M27.3326838,67.8924647 C22.8283304,37.9321793 29.0317612,22.8024219 45.9429763,22.5031924 C71.309799,22.0543482 67.057736,61.1449383 66.1213638,67.1818929" id="Path-5"></path>
                <path d="M14.7313423,83.2870635 C14.7313423,72.926243 21.4006901,70.5397831 27.8076433,67.5815917 C32.0789455,65.609464 34.8680691,65.1090699 36.175014,66.0804093 C36.6369512,69.1489077 37.1946854,71.3020536 37.8482164,72.5398471 C39.5332401,75.7312964 41.9413385,77.3408175 45.0725116,77.3684102 C52.5017062,77.4338783 56.1620093,70.6592446 56.1620093,64.4725141 C56.1683043,64.1792172 58.7002332,64.7151823 63.757796,66.0804093 C74.4366758,74.7986502 79.7527344,81.3031585 79.7059717,85.5939344" id="Path-6"></path>
                <path d="M40.4898143,37.2403161 C44.0298384,41.7392804 47.611904,44.9066245 51.2360111,46.7423486 C56.6721716,49.4959347 58.5141263,53.5228744 58.1141706,56.8768025 C57.7142148,60.2307306 49.5997672,71.6306819 46.6341595,71.7740569 C43.6685518,71.9174319 32.8272559,63.4759818 33.4450628,57.0398179 C33.856934,52.749042 36.2051845,46.1492081 40.4898143,37.2403161 Z" id="Path-7"></path>
                <ellipse id="Oval-2" cx="48.5144106" cy="48.4293824" rx="48.5144106" ry="48.4293824"></ellipse>
            </g>
            <rect id="Rectangle" fill="#79797B" x="150" y="147.409584" width="150" height="147.409584"></rect>
            <g id="icon-team" transform="translate(176.424870, 176.115661)" stroke="#FFFFFF">
                <path d="M27.3326838,67.8924647 C22.8283304,37.9321793 29.0317612,22.8024219 45.9429763,22.5031924 C71.309799,22.0543482 67.057736,61.1449383 66.1213638,67.1818929" id="Path-5"></path>
                <path d="M14.7313423,83.2870635 C14.7313423,72.926243 21.4006901,70.5397831 27.8076433,67.5815917 C32.0789455,65.609464 34.8680691,65.1090699 36.175014,66.0804093 C36.6369512,69.1489077 37.1946854,71.3020536 37.8482164,72.5398471 C39.5332401,75.7312964 41.9413385,77.3408175 45.0725116,77.3684102 C52.5017062,77.4338783 56.1620093,70.6592446 56.1620093,64.4725141 C56.1683043,64.1792172 58.7002332,64.7151823 63.757796,66.0804093 C74.4366758,74.7986502 79.7527344,81.3031585 79.7059717,85.5939344" id="Path-6"></path>
                <path d="M40.4898143,37.2403161 C44.0298384,41.7392804 47.611904,44.9066245 51.2360111,46.7423486 C56.6721716,49.4959347 58.5141263,53.5228744 58.1141706,56.8768025 C57.7142148,60.2307306 49.5997672,71.6306819 46.6341595,71.7740569 C43.6685518,71.9174319 32.8272559,63.4759818 33.4450628,57.0398179 C33.856934,52.749042 36.2051845,46.1492081 40.4898143,37.2403161 Z" id="Path-7"></path>
                <ellipse id="Oval-2" cx="48.5144106" cy="48.4293824" rx="48.5144106" ry="48.4293824"></ellipse>
            </g>
            <rect id="Rectangle" fill-opacity="0.9" fill="#79797B" x="300" y="147.409584" width="150" height="147.409584"></rect>
            <g id="icon-team" transform="translate(326.424870, 176.115661)" stroke="#FFFFFF">
                <path d="M27.3326838,67.8924647 C22.8283304,37.9321793 29.0317612,22.8024219 45.9429763,22.5031924 C71.309799,22.0543482 67.057736,61.1449383 66.1213638,67.1818929" id="Path-5"></path>
                <path d="M14.7313423,83.2870635 C14.7313423,72.926243 21.4006901,70.5397831 27.8076433,67.5815917 C32.0789455,65.609464 34.8680691,65.1090699 36.175014,66.0804093 C36.6369512,69.1489077 37.1946854,71.3020536 37.8482164,72.5398471 C39.5332401,75.7312964 41.9413385,77.3408175 45.0725116,77.3684102 C52.5017062,77.4338783 56.1620093,70.6592446 56.1620093,64.4725141 C56.1683043,64.1792172 58.7002332,64.7151823 63.757796,66.0804093 C74.4366758,74.7986502 79.7527344,81.3031585 79.7059717,85.5939344" id="Path-6"></path>
                <path d="M40.4898143,37.2403161 C44.0298384,41.7392804 47.611904,44.9066245 51.2360111,46.7423486 C56.6721716,49.4959347 58.5141263,53.5228744 58.1141706,56.8768025 C57.7142148,60.2307306 49.5997672,71.6306819 46.6341595,71.7740569 C43.6685518,71.9174319 32.8272559,63.4759818 33.4450628,57.0398179 C33.856934,52.749042 36.2051845,46.1492081 40.4898143,37.2403161 Z" id="Path-7"></path>
                <ellipse id="Oval-2" cx="48.5144106" cy="48.4293824" rx="48.5144106" ry="48.4293824"></ellipse>
            </g>
            <rect id="Rectangle" fill-opacity="0.904268569" fill="#79797B" x="450" y="0" width="150" height="147.409584"></rect>
            <g id="icon-team" transform="translate(476.424870, 28.706077)" stroke="#FFFFFF">
                <path d="M27.3326838,67.8924647 C22.8283304,37.9321793 29.0317612,22.8024219 45.9429763,22.5031924 C71.309799,22.0543482 67.057736,61.1449383 66.1213638,67.1818929" id="Path-5"></path>
                <path d="M14.7313423,83.2870635 C14.7313423,72.926243 21.4006901,70.5397831 27.8076433,67.5815917 C32.0789455,65.609464 34.8680691,65.1090699 36.175014,66.0804093 C36.6369512,69.1489077 37.1946854,71.3020536 37.8482164,72.5398471 C39.5332401,75.7312964 41.9413385,77.3408175 45.0725116,77.3684102 C52.5017062,77.4338783 56.1620093,70.6592446 56.1620093,64.4725141 C56.1683043,64.1792172 58.7002332,64.7151823 63.757796,66.0804093 C74.4366758,74.7986502 79.7527344,81.3031585 79.7059717,85.5939344" id="Path-6"></path>
                <path d="M40.4898143,37.2403161 C44.0298384,41.7392804 47.611904,44.9066245 51.2360111,46.7423486 C56.6721716,49.4959347 58.5141263,53.5228744 58.1141706,56.8768025 C57.7142148,60.2307306 49.5997672,71.6306819 46.6341595,71.7740569 C43.6685518,71.9174319 32.8272559,63.4759818 33.4450628,57.0398179 C33.856934,52.749042 36.2051845,46.1492081 40.4898143,37.2403161 Z" id="Path-7"></path>
                <ellipse id="Oval-2" cx="48.5144106" cy="48.4293824" rx="48.5144106" ry="48.4293824"></ellipse>
            </g>
            <path d="M175.779793,79.5018681 L177.436788,79.5018681 C178.460627,79.5018681 179.238598,79.784271 179.770725,80.3490853 C180.302852,80.9138996 180.568912,81.724127 180.568912,82.7797917 C180.568912,83.3042622 180.501555,83.7732527 180.366839,84.1867774 C180.232124,84.6003022 180.033421,84.9499439 179.770725,85.235713 C179.50803,85.5214821 179.184717,85.7400082 178.800777,85.8912977 C178.416837,86.0425873 177.97565,86.1182309 177.477202,86.1182309 L175.779793,86.1182309 L175.779793,79.5018681 Z M177.376166,85.4323884 C178.150781,85.4323884 178.731734,85.2004146 179.119041,84.73646 C179.506349,84.2725054 179.7,83.6202892 179.7,82.7797917 C179.7,81.9392943 179.506349,81.2971639 179.119041,80.8533812 C178.731734,80.4095986 178.150781,80.1877106 177.376166,80.1877106 L176.618394,80.1877106 L176.618394,85.4323884 L177.376166,85.4323884 Z M181.548964,83.6774385 C181.548964,83.2739998 181.611269,82.9125913 181.735881,82.5932022 C181.860493,82.2738132 182.025517,82.0031771 182.230959,81.7812858 C182.4364,81.5593944 182.670465,81.3896165 182.933161,81.2719469 C183.195856,81.1542772 183.468651,81.0954433 183.751554,81.0954433 C184.061401,81.0954433 184.339247,81.1492343 184.585104,81.256818 C184.83096,81.3644017 185.036398,81.5190509 185.201425,81.7207703 C185.366452,81.9224896 185.492746,82.1645493 185.580311,82.4469564 C185.667876,82.7293636 185.711658,83.0453859 185.711658,83.3950328 C185.711658,83.5765802 185.701555,83.7278675 185.681347,83.8488992 L182.367358,83.8488992 C182.401036,84.3800935 182.564377,84.800336 182.857383,85.109639 C183.15039,85.4189421 183.53264,85.5735913 184.004145,85.5735913 C184.239898,85.5735913 184.457123,85.5382909 184.655829,85.4676891 C184.854535,85.3970874 185.044818,85.304634 185.226684,85.1903264 L185.519689,85.734966 C185.304144,85.8694456 185.065027,85.9871135 184.802332,86.0879732 C184.539636,86.1888329 184.239898,86.2392619 183.903109,86.2392619 C183.573055,86.2392619 183.264898,86.180428 182.978627,86.0627584 C182.692356,85.9450887 182.443136,85.7769917 182.230959,85.5584624 C182.018781,85.3399331 181.852073,85.0726589 181.730829,84.7566319 C181.609585,84.4406048 181.548964,84.0808773 181.548964,83.6774385 Z M184.984197,83.3042595 C184.984197,82.7999611 184.87811,82.415019 184.665933,82.1494218 C184.453755,81.8838246 184.155701,81.751028 183.771762,81.751028 C183.596631,81.751028 183.429923,81.7863284 183.271632,81.8569302 C183.113341,81.9275319 182.970208,82.0283901 182.842228,82.1595077 C182.714248,82.2906253 182.608161,82.4519984 182.523964,82.6436318 C182.439766,82.8352653 182.384197,83.0554723 182.357254,83.3042595 L184.984197,83.3042595 Z M186.792746,85.0087798 C187.008291,85.1836033 187.228885,85.3248048 187.454534,85.4323884 C187.680182,85.5399721 187.94119,85.5937631 188.237565,85.5937631 C188.560882,85.5937631 188.803367,85.5198005 188.965026,85.3718729 C189.126685,85.2239454 189.207513,85.0424006 189.207513,84.8272333 C189.207513,84.6994777 189.173835,84.5885337 189.106477,84.494398 C189.039119,84.4002623 188.953239,84.3178947 188.848834,84.247293 C188.74443,84.1766912 188.624871,84.1144953 188.490155,84.0607035 L188.08601,83.8993287 C187.91088,83.8388129 187.735752,83.7698932 187.560622,83.6925674 C187.385491,83.6152416 187.228887,83.5211073 187.090803,83.4101617 C186.95272,83.299216 186.839897,83.1697814 186.752332,83.0218538 C186.664766,82.8739262 186.620984,82.6957435 186.620984,82.4873001 C186.620984,82.2923047 186.659715,82.109079 186.737176,81.9376175 C186.814638,81.766156 186.925776,81.6182307 187.070596,81.4938371 C187.215415,81.3694435 187.392227,81.2719472 187.601036,81.2013454 C187.809846,81.1307436 188.045595,81.0954433 188.30829,81.0954433 C188.618136,81.0954433 188.902719,81.1492343 189.162047,81.256818 C189.421374,81.3644017 189.645336,81.4955173 189.833938,81.6501688 L189.439896,82.1746366 C189.271502,82.046881 189.096374,81.9426609 188.914508,81.8619731 C188.732642,81.7812854 188.533939,81.7409421 188.318394,81.7409421 C188.008548,81.7409421 187.781218,81.8115428 187.636399,81.9527464 C187.49158,82.09395 187.419171,82.258685 187.419171,82.4469564 C187.419171,82.5612641 187.449482,82.6604413 187.510104,82.744491 C187.570726,82.8285408 187.651554,82.9025034 187.752591,82.9663812 C187.853627,83.0302591 187.969818,83.087412 188.101166,83.1378419 C188.232514,83.1882717 188.368911,83.2403818 188.510363,83.2941736 C188.685493,83.3614134 188.862305,83.4320141 189.040803,83.5059779 C189.219301,83.5799417 189.379274,83.672395 189.520725,83.7833407 C189.662177,83.8942863 189.778367,84.0304449 189.869301,84.1918204 C189.960234,84.3531959 190.005699,84.5481884 190.005699,84.7768037 C190.005699,84.9785231 189.966969,85.1667917 189.889508,85.3416152 C189.812046,85.5164386 189.69754,85.6710878 189.545984,85.8055674 C189.394429,85.940047 189.20583,86.0459481 188.980181,86.1232739 C188.754533,86.2005996 188.496893,86.2392619 188.207254,86.2392619 C187.856993,86.2392619 187.523577,86.1753851 187.206995,86.0476295 C186.890413,85.9198739 186.61425,85.7585008 186.378497,85.5635054 L186.792746,85.0087798 Z M191.581865,80.2078824 C191.420206,80.2078824 191.283809,80.1574533 191.172668,80.0565936 C191.061528,79.9557339 191.005959,79.8279802 191.005959,79.6733287 C191.005959,79.5119532 191.061528,79.3825185 191.172668,79.2850208 C191.283809,79.1875231 191.420206,79.138775 191.581865,79.138775 C191.743524,79.138775 191.879922,79.1875231 191.991062,79.2850208 C192.102203,79.3825185 192.157772,79.5119532 192.157772,79.6733287 C192.157772,79.8279802 192.102203,79.9557339 191.991062,80.0565936 C191.879922,80.1574533 191.743524,80.2078824 191.581865,80.2078824 Z M191.157513,81.2164743 L191.98601,81.2164743 L191.98601,86.1182309 L191.157513,86.1182309 L191.157513,81.2164743 Z M193.996632,86.9452763 C193.996632,87.2075115 194.122926,87.4159517 194.375518,87.5706032 C194.62811,87.7252548 194.976682,87.8025794 195.421244,87.8025794 C195.656996,87.8025794 195.870854,87.7740029 196.062824,87.7168491 C196.254794,87.6596952 196.418134,87.5857326 196.55285,87.4949588 C196.687565,87.4041851 196.791969,87.298284 196.866062,87.1772524 C196.940156,87.0562208 196.977202,86.931829 196.977202,86.8040734 C196.977202,86.5754581 196.893006,86.4174469 196.724611,86.3300352 C196.556217,86.2426235 196.310364,86.1989183 195.987047,86.1989183 L195.138342,86.1989183 C195.044041,86.1989183 194.941322,86.1938754 194.830181,86.1837894 C194.719041,86.1737034 194.609586,86.1518508 194.501813,86.1182309 C194.326683,86.2459865 194.198705,86.3804641 194.117876,86.5216677 C194.037046,86.6628712 193.996632,86.8040727 193.996632,86.9452763 Z M193.269171,87.0562214 C193.269171,86.847778 193.33316,86.6494236 193.46114,86.4611522 C193.58912,86.2728807 193.764248,86.1014218 193.986528,85.9467703 L193.986528,85.9064266 C193.865284,85.8324628 193.762565,85.7299237 193.678368,85.5988061 C193.594171,85.4676885 193.552073,85.3046344 193.552073,85.109639 C193.552073,84.9011957 193.609326,84.7196509 193.723834,84.5649994 C193.838343,84.4103479 193.959585,84.2893181 194.087565,84.2019063 L194.087565,84.1615626 C193.925906,84.027083 193.779405,83.8472193 193.648057,83.621966 C193.516709,83.3967127 193.451036,83.1361624 193.451036,82.8403073 C193.451036,82.5713481 193.49987,82.3292884 193.597539,82.1141211 C193.695208,81.8989537 193.828238,81.7157281 193.996632,81.5644385 C194.165027,81.413149 194.362046,81.2971621 194.587694,81.2164743 C194.813343,81.1357866 195.050776,81.0954433 195.3,81.0954433 C195.434716,81.0954433 195.56101,81.1072101 195.678886,81.130744 C195.796762,81.1542779 195.902849,81.1828544 195.99715,81.2164743 L197.704663,81.2164743 L197.704663,81.8518872 L196.694301,81.8518872 C196.808809,81.9661949 196.904792,82.1107582 196.982254,82.2855817 C197.059715,82.4604052 197.098446,82.6520357 197.098446,82.8604791 C197.098446,83.1227143 197.051296,83.359731 196.956995,83.5715364 C196.862694,83.7833417 196.734716,83.9615245 196.573057,84.1060901 C196.411398,84.2506556 196.221115,84.3632806 196.002202,84.4439684 C195.783289,84.5246561 195.549224,84.5649994 195.3,84.5649994 C195.178756,84.5649994 195.054146,84.5498707 194.926166,84.5196128 C194.798186,84.4893549 194.676944,84.4473306 194.562435,84.3935388 C194.47487,84.4675026 194.400778,84.5498701 194.340155,84.6406438 C194.279533,84.7314175 194.249223,84.8440425 194.249223,84.9785221 C194.249223,85.1331736 194.309844,85.2609273 194.431088,85.361787 C194.552332,85.4626467 194.781345,85.5130758 195.118135,85.5130758 L196.067876,85.5130758 C196.640417,85.5130758 197.069817,85.6055291 197.356088,85.7904385 C197.642359,85.975348 197.785492,86.2728796 197.785492,86.6830424 C197.785492,86.9116577 197.728239,87.1285028 197.613731,87.3335841 C197.499222,87.5386655 197.334198,87.7185293 197.118653,87.8731808 C196.903108,88.0278323 196.6421,88.1505431 196.335622,88.2413168 C196.029144,88.3320906 195.68394,88.3774768 195.3,88.3774768 C194.99689,88.3774768 194.720727,88.3489003 194.471503,88.2917464 C194.222279,88.2345926 194.008421,88.1488632 193.829922,88.0345555 C193.651424,87.9202479 193.513342,87.7824083 193.415674,87.6210328 C193.318005,87.4596573 193.269171,87.2713887 193.269171,87.0562214 Z M195.3,84.0102739 C195.441451,84.0102739 195.574481,83.9833783 195.699093,83.9295865 C195.823705,83.8757947 195.934844,83.7984701 196.032513,83.6976104 C196.130182,83.5967507 196.205958,83.4740399 196.259845,83.3294743 C196.313731,83.1849088 196.340674,83.0218547 196.340674,82.8403073 C196.340674,82.4772124 196.239638,82.1964904 196.037565,81.998133 C195.835491,81.7997756 195.589639,81.7005984 195.3,81.7005984 C195.010361,81.7005984 194.764509,81.7997756 194.562435,81.998133 C194.360362,82.1964904 194.259326,82.4772124 194.259326,82.8403073 C194.259326,83.0218547 194.286269,83.1849088 194.340155,83.3294743 C194.394042,83.4740399 194.469818,83.5967507 194.567487,83.6976104 C194.665156,83.7984701 194.776295,83.8757947 194.900907,83.9295865 C195.025519,83.9833783 195.158549,84.0102739 195.3,84.0102739 Z M198.735233,81.2164743 L199.42228,81.2164743 L199.493005,81.9224886 L199.523316,81.9224886 C199.759069,81.6871494 200.006605,81.4904759 200.265933,81.3324624 C200.52526,81.1744489 200.826682,81.0954433 201.170207,81.0954433 C201.688863,81.0954433 202.067745,81.2568164 202.306865,81.5795674 C202.545986,81.9023184 202.665544,82.3797138 202.665544,83.0117679 L202.665544,86.1182309 L201.837047,86.1182309 L201.837047,83.122713 C201.837047,82.6587584 201.762954,82.3242454 201.614767,82.1191641 C201.46658,81.9140827 201.230831,81.8115435 200.907513,81.8115435 C200.651553,81.8115435 200.425908,81.8754204 200.23057,82.003176 C200.035232,82.1309316 199.812955,82.3192002 199.563731,82.5679874 L199.563731,86.1182309 L198.735233,86.1182309 L198.735233,81.2164743 Z M203.898187,83.6774385 C203.898187,83.2739998 203.960492,82.9125913 204.085104,82.5932022 C204.209716,82.2738132 204.37474,82.0031771 204.580181,81.7812858 C204.785623,81.5593944 205.019688,81.3896165 205.282383,81.2719469 C205.545079,81.1542772 205.817874,81.0954433 206.100777,81.0954433 C206.410623,81.0954433 206.68847,81.1492343 206.934326,81.256818 C207.180183,81.3644017 207.385621,81.5190509 207.550648,81.7207703 C207.715674,81.9224896 207.841968,82.1645493 207.929534,82.4469564 C208.017099,82.7293636 208.060881,83.0453859 208.060881,83.3950328 C208.060881,83.5765802 208.050777,83.7278675 208.03057,83.8488992 L204.71658,83.8488992 C204.750259,84.3800935 204.9136,84.800336 205.206606,85.109639 C205.499613,85.4189421 205.881863,85.5735913 206.353368,85.5735913 C206.58912,85.5735913 206.806346,85.5382909 207.005052,85.4676891 C207.203757,85.3970874 207.394041,85.304634 207.575907,85.1903264 L207.868912,85.734966 C207.653367,85.8694456 207.41425,85.9871135 207.151554,86.0879732 C206.888859,86.1888329 206.589121,86.2392619 206.252332,86.2392619 C205.922278,86.2392619 205.614121,86.180428 205.32785,86.0627584 C205.041579,85.9450887 204.792359,85.7769917 204.580181,85.5584624 C204.368004,85.3399331 204.201296,85.0726589 204.080052,84.7566319 C203.958808,84.4406048 203.898187,84.0808773 203.898187,83.6774385 Z M207.33342,83.3042595 C207.33342,82.7999611 207.227333,82.415019 207.015155,82.1494218 C206.802978,81.8838246 206.504924,81.751028 206.120984,81.751028 C205.945854,81.751028 205.779146,81.7863284 205.620855,81.8569302 C205.462564,81.9275319 205.319431,82.0283901 205.191451,82.1595077 C205.063471,82.2906253 204.957384,82.4519984 204.873187,82.6436318 C204.788989,82.8352653 204.73342,83.0554723 204.706477,83.3042595 L207.33342,83.3042595 Z M209.273316,81.2164743 L209.960363,81.2164743 L210.031088,82.1040352 L210.061399,82.1040352 C210.229794,81.7947321 210.433548,81.5493105 210.672668,81.3677631 C210.911789,81.1862156 211.172797,81.0954433 211.455699,81.0954433 C211.651037,81.0954433 211.826165,81.1290627 211.981088,81.1963025 L211.81943,81.9224886 C211.738601,81.8955927 211.664508,81.8754211 211.59715,81.8619731 C211.529792,81.8485252 211.445596,81.8418013 211.34456,81.8418013 C211.13575,81.8418013 210.918524,81.9258498 210.692876,82.0939493 C210.467227,82.2620487 210.270208,82.5545375 210.101813,82.9714242 L210.101813,86.1182309 L209.273316,86.1182309 L209.273316,81.2164743 Z" id="Designer" fill="#4990E2"></path>
        </g>
    </g>
</svg>