<?xml version="1.0" encoding="UTF-8"?>
<svg width="600px" height="918px" viewBox="0 0 600 918" version="1.1" xmlns="http://www.w3.org/2000/svg" xmlns:xlink="http://www.w3.org/1999/xlink">
    <!-- Generator: Sketch 44.1 (41455) - http://www.bohemiancoding.com/sketch -->
    <title>teambox06</title>
    <desc>Created with Sketch.</desc>
    <defs></defs>
    <g id="Team" stroke="none" stroke-width="1" fill="none" fill-rule="evenodd">
        <g id="06">
            <rect id="Rectangle-3" fill="#F8F8F8" x="0" y="459" width="600" height="459"></rect>
            <rect id="Rectangle-3" fill="#FFFFFF" x="0" y="0" width="600" height="459"></rect>
            <g id="Group-8" transform="translate(17.000000, 25.000000)">
                <g id="Group-7" transform="translate(0.000000, 48.222772)">
                    <rect id="Rectangle" fill="#79797B" x="0" y="0" width="181.496689" height="178.27681"></rect>
                    <rect id="Rectangle" stroke="#D7D9D9" transform="translate(90.748344, 255.383976) scale(1, -1) translate(-90.748344, -255.383976) " x="0.5" y="178.262376" width="180.496689" height="154.2432"></rect>
                    <g id="icon-team" transform="translate(32.186667, 34.039604)" stroke="#FFFFFF">
                        <path d="M32.5665187,81.2496258 C27.4533007,45.5886353 35.1277902,27.5771963 55.5899872,27.2153088 C86.2832826,26.6724777 81.1383802,73.9485469 80.0053906,81.2496258" id="Path-5"></path>
                        <path d="M17.8675497,102.578807 C17.8675497,90.048455 25.8943626,84.3723515 33.6466346,80.7947216 C38.8148159,78.409635 42.1895938,77.8044595 43.7709684,78.9791952 C44.3299022,82.69023 45.0047482,85.2942397 45.7955064,86.7912242 C47.8343478,90.6509557 50.7480937,92.5975068 54.536744,92.6308773 C63.5259055,92.7100543 67.9547915,84.516828 67.9547915,77.0346104 C67.9624083,76.6798978 71.0259864,77.3280928 77.1455257,78.9791952 C89.9759929,89.1446197 96.3629357,96.8219591 96.3063539,102.011214" id="Path-6"></path>
                        <path d="M48.9917815,45.0383521 C53.2751325,50.4793891 57.6093528,54.3099678 61.9944424,56.5300883 C68.5720766,59.860269 70.8008011,64.7304405 70.3168635,68.7866734 C69.8329259,72.8429063 60.0146234,86.6299809 56.4263036,86.8033784 C52.8379837,86.9767758 39.720255,76.7677055 40.4677877,68.9838239 C40.9661427,63.7945694 43.807474,55.8127455 48.9917815,45.0383521 Z" id="Path-7"></path>
                        <ellipse id="Oval-2" cx="58.7013659" cy="58.570383" rx="58.7013659" ry="58.570383"></ellipse>
                    </g>
                    <path d="M68.6301987,221.242935 L112.663825,221.242935" id="Line" stroke="#4990E2" stroke-width="4" stroke-linecap="square"></path>
                    <path d="M70.148,205.874361 C70.2729606,206.103184 70.4187458,206.273065 70.58536,206.38401 C70.7519742,206.494954 70.9220569,206.550426 71.0956133,206.550426 C71.3733036,206.550426 71.5833037,206.465485 71.72562,206.295601 C71.8679363,206.125718 71.9390933,205.815425 71.9390933,205.364713 L71.9390933,200.965094 L73.4698533,200.965094 L73.4698533,205.489525 C73.4698533,205.815424 73.4264649,206.123984 73.3396867,206.415213 C73.2529085,206.706442 73.1210076,206.95953 72.94398,207.174485 C72.7669524,207.38944 72.5413325,207.559321 72.2671133,207.684134 C71.9928942,207.808946 71.6683485,207.871351 71.2934667,207.871351 C70.7727974,207.871351 70.3371773,207.77081 69.9865933,207.569723 C69.6360094,207.368636 69.3427034,207.060076 69.1066667,206.644035 L70.148,205.874361 Z M74.61532,205.167094 C74.61532,204.737184 74.6847415,204.354085 74.8235867,204.017785 C74.9624318,203.681484 75.1481344,203.398927 75.3807,203.170104 C75.6132656,202.941281 75.882274,202.766199 76.1877333,202.644854 C76.4931926,202.523508 76.8090606,202.462837 77.1353467,202.462837 C77.4616327,202.462837 77.7757652,202.523508 78.0777533,202.644854 C78.3797415,202.766199 78.6470144,202.941281 78.87958,203.170104 C79.1121456,203.398927 79.2978482,203.681484 79.4366933,204.017785 C79.5755385,204.354085 79.64496,204.737184 79.64496,205.167094 C79.64496,205.597004 79.5755385,205.980103 79.4366933,206.316403 C79.2978482,206.652704 79.1121456,206.935261 78.87958,207.164084 C78.6470144,207.392907 78.3797415,207.567989 78.0777533,207.689334 C77.7757652,207.81068 77.4616327,207.871351 77.1353467,207.871351 C76.8090606,207.871351 76.4931926,207.81068 76.1877333,207.689334 C75.882274,207.567989 75.6132656,207.392907 75.3807,207.164084 C75.1481344,206.935261 74.9624318,206.652704 74.8235867,206.316403 C74.6847415,205.980103 74.61532,205.597004 74.61532,205.167094 Z M76.1877333,205.167094 C76.1877333,205.617806 76.2658326,205.974903 76.4220333,206.238396 C76.5782341,206.501889 76.8160028,206.633634 77.1353467,206.633634 C77.4477482,206.633634 77.6837814,206.501889 77.8434533,206.238396 C78.0031252,205.974903 78.08296,205.617806 78.08296,205.167094 C78.08296,204.716382 78.0031252,204.359285 77.8434533,204.095792 C77.6837814,203.832299 77.4477482,203.700554 77.1353467,203.700554 C76.8160028,203.700554 76.5782341,203.832299 76.4220333,204.095792 C76.2658326,204.359285 76.1877333,204.716382 76.1877333,205.167094 Z M80.6967067,200.455446 L82.2274667,200.455446 L82.2274667,202.244416 L82.1545733,203.170104 C82.3489565,202.996753 82.5745765,202.83554 82.83144,202.686458 C83.0883035,202.537376 83.3937582,202.462837 83.7478133,202.462837 C84.3101361,202.462837 84.7179876,202.646586 84.97138,203.014089 C85.2247724,203.381593 85.3514667,203.891236 85.3514667,204.543035 L85.3514667,207.74654 L83.8207067,207.74654 L83.8207067,204.740653 C83.8207067,204.366216 83.7703761,204.109661 83.6697133,203.97098 C83.5690506,203.8323 83.4076456,203.76296 83.1854933,203.76296 C82.9911101,203.76296 82.8244985,203.806297 82.6856533,203.892973 C82.5468082,203.979648 82.3940808,204.102725 82.2274667,204.262208 L82.2274667,207.74654 L80.6967067,207.74654 L80.6967067,200.455446 Z M86.64272,202.587649 L87.89232,202.587649 L87.9964533,203.242911 L88.0381067,203.242911 C88.2602589,203.03489 88.5032342,202.852875 88.76704,202.696859 C89.0308458,202.540843 89.3397716,202.462837 89.6938267,202.462837 C90.2561495,202.462837 90.664001,202.646586 90.9173933,203.014089 C91.1707857,203.381593 91.29748,203.891236 91.29748,204.543035 L91.29748,207.74654 L89.76672,207.74654 L89.76672,204.740653 C89.76672,204.366216 89.7163894,204.109661 89.6157267,203.97098 C89.5150639,203.8323 89.3536589,203.76296 89.1315067,203.76296 C88.9371235,203.76296 88.7705118,203.806297 88.6316667,203.892973 C88.4928215,203.979648 88.3400942,204.102725 88.17348,204.262208 L88.17348,207.74654 L86.64272,207.74654 L86.64272,202.587649 Z M94.89008,200.965094 L96.8061333,200.965094 C97.3268026,200.965094 97.7953979,201.030966 98.2119333,201.162713 C98.6284687,201.294459 98.9859896,201.497277 99.2845067,201.771171 C99.5830237,202.045065 99.8121148,202.393495 99.9717867,202.81647 C100.131459,203.239446 100.211293,203.742156 100.211293,204.324614 C100.211293,204.907072 100.131459,205.413249 99.9717867,205.843158 C99.8121148,206.273068 99.5864948,206.628432 99.29492,206.90926 C99.0033452,207.190088 98.654502,207.399839 98.24838,207.53852 C97.842258,207.6772 97.3892825,207.74654 96.88944,207.74654 L94.89008,207.74654 L94.89008,200.965094 Z M96.7124133,206.508822 C97.0039881,206.508822 97.2677899,206.470685 97.5038267,206.394411 C97.7398634,206.318137 97.9411858,206.195059 98.1078,206.025176 C98.2744142,205.855292 98.4045795,205.631673 98.4983,205.354312 C98.5920205,205.076951 98.63888,204.733722 98.63888,204.324614 C98.63888,203.92244 98.5920205,203.584411 98.4983,203.310517 C98.4045795,203.036623 98.2744142,202.818205 98.1078,202.655255 C97.9411858,202.492305 97.7398634,202.376162 97.5038267,202.306822 C97.2677899,202.237482 97.0039881,202.202812 96.7124133,202.202812 L96.42084,202.202812 L96.42084,206.508822 L96.7124133,206.508822 Z M101.0756,205.167094 C101.0756,204.737184 101.145022,204.354085 101.283867,204.017785 C101.422712,203.681484 101.608414,203.398927 101.84098,203.170104 C102.073546,202.941281 102.342554,202.766199 102.648013,202.644854 C102.953473,202.523508 103.269341,202.462837 103.595627,202.462837 C103.921913,202.462837 104.236045,202.523508 104.538033,202.644854 C104.840022,202.766199 105.107294,202.941281 105.33986,203.170104 C105.572426,203.398927 105.758128,203.681484 105.896973,204.017785 C106.035818,204.354085 106.10524,204.737184 106.10524,205.167094 C106.10524,205.597004 106.035818,205.980103 105.896973,206.316403 C105.758128,206.652704 105.572426,206.935261 105.33986,207.164084 C105.107294,207.392907 104.840022,207.567989 104.538033,207.689334 C104.236045,207.81068 103.921913,207.871351 103.595627,207.871351 C103.269341,207.871351 102.953473,207.81068 102.648013,207.689334 C102.342554,207.567989 102.073546,207.392907 101.84098,207.164084 C101.608414,206.935261 101.422712,206.652704 101.283867,206.316403 C101.145022,205.980103 101.0756,205.597004 101.0756,205.167094 Z M102.648013,205.167094 C102.648013,205.617806 102.726113,205.974903 102.882313,206.238396 C103.038514,206.501889 103.276283,206.633634 103.595627,206.633634 C103.908028,206.633634 104.144061,206.501889 104.303733,206.238396 C104.463405,205.974903 104.54324,205.617806 104.54324,205.167094 C104.54324,204.716382 104.463405,204.359285 104.303733,204.095792 C104.144061,203.832299 103.908028,203.700554 103.595627,203.700554 C103.276283,203.700554 103.038514,203.832299 102.882313,204.095792 C102.726113,204.359285 102.648013,204.716382 102.648013,205.167094 Z M106.855,205.167094 C106.855,204.751052 106.924422,204.374887 107.063267,204.038587 C107.202112,203.702286 107.384343,203.417995 107.609967,203.185705 C107.83559,202.953416 108.094185,202.774867 108.38576,202.650054 C108.677335,202.525242 108.979318,202.462837 109.29172,202.462837 C109.65966,202.462837 109.980734,202.525242 110.254953,202.650054 C110.529172,202.774867 110.758264,202.948215 110.942233,203.170104 C111.126203,203.391993 111.263311,203.653748 111.35356,203.955379 C111.443809,204.257009 111.488933,204.584637 111.488933,204.938272 C111.488933,205.076953 111.481991,205.203497 111.468107,205.317908 C111.454222,205.43232 111.440338,205.520727 111.426453,205.583134 L108.333693,205.583134 C108.403116,205.978373 108.557579,206.264398 108.797087,206.441215 C109.036595,206.618033 109.3299,206.706441 109.677013,206.706441 C110.044953,206.706441 110.416358,206.592031 110.79124,206.363208 L111.301493,207.288896 C111.037688,207.469181 110.744382,207.611326 110.421567,207.715337 C110.098752,207.819347 109.781148,207.871351 109.468747,207.871351 C109.100807,207.871351 108.75717,207.81068 108.437827,207.689334 C108.118483,207.567989 107.840797,207.391174 107.60476,207.158884 C107.368723,206.926594 107.184756,206.644036 107.052853,206.311203 C106.92095,205.97837 106.855,205.597004 106.855,205.167094 Z M110.187267,204.636644 C110.187267,204.33848 110.121316,204.095793 109.989413,203.908574 C109.85751,203.721355 109.635362,203.627748 109.32296,203.627748 C109.079981,203.627748 108.86651,203.709221 108.68254,203.872171 C108.49857,204.03512 108.378818,204.289942 108.32328,204.636644 L110.187267,204.636644 Z" id="John-Doe" fill="#79797B"></path>
                    <path d="M20.3533333,246.314356 L157.633057,246.314356" id="Line" stroke="#979797" stroke-width="5" stroke-linecap="square"></path>
                    <path d="M20.3533333,260.497525 L157.633057,260.497525" id="Line" stroke="#979797" stroke-width="5" stroke-linecap="square"></path>
                    <path d="M57.2733333,272.789604 L119.782014,272.789604" id="Line" stroke="#979797" stroke-width="5" stroke-linecap="square"></path>
                    <path d="M61.06,297.846535 L117.867888,297.846535" id="Line" stroke="#D7D9D9" stroke-width="4" stroke-linecap="square"></path>
                    <path d="M61.06,310.138614 L117.867888,310.138614" id="Line" stroke="#4990E2" stroke-width="4" stroke-linecap="square"></path>
                </g>
                <g id="Group-7" transform="translate(386.240000, 48.222772)">
                    <rect id="Rectangle" fill="#79797B" x="0" y="0" width="181.496689" height="178.27681"></rect>
                    <rect id="Rectangle" stroke="#D7D9D9" transform="translate(90.748344, 255.383976) scale(1, -1) translate(-90.748344, -255.383976) " x="0.5" y="178.262376" width="180.496689" height="154.2432"></rect>
                    <g id="icon-team" transform="translate(32.186667, 34.039604)" stroke="#FFFFFF">
                        <path d="M32.5665187,81.2496258 C27.4533007,45.5886353 35.1277902,27.5771963 55.5899872,27.2153088 C86.2832826,26.6724777 81.1383802,73.9485469 80.0053906,81.2496258" id="Path-5"></path>
                        <path d="M17.8675497,102.578807 C17.8675497,90.048455 25.8943626,84.3723515 33.6466346,80.7947216 C38.8148159,78.409635 42.1895938,77.8044595 43.7709684,78.9791952 C44.3299022,82.69023 45.0047482,85.2942397 45.7955064,86.7912242 C47.8343478,90.6509557 50.7480937,92.5975068 54.536744,92.6308773 C63.5259055,92.7100543 67.9547915,84.516828 67.9547915,77.0346104 C67.9624083,76.6798978 71.0259864,77.3280928 77.1455257,78.9791952 C89.9759929,89.1446197 96.3629357,96.8219591 96.3063539,102.011214" id="Path-6"></path>
                        <path d="M48.9917815,45.0383521 C53.2751325,50.4793891 57.6093528,54.3099678 61.9944424,56.5300883 C68.5720766,59.860269 70.8008011,64.7304405 70.3168635,68.7866734 C69.8329259,72.8429063 60.0146234,86.6299809 56.4263036,86.8033784 C52.8379837,86.9767758 39.720255,76.7677055 40.4677877,68.9838239 C40.9661427,63.7945694 43.807474,55.8127455 48.9917815,45.0383521 Z" id="Path-7"></path>
                        <ellipse id="Oval-2" cx="58.7013659" cy="58.570383" rx="58.7013659" ry="58.570383"></ellipse>
                    </g>
                    <path d="M68.6301987,221.242935 L112.663825,221.242935" id="Line" stroke="#4990E2" stroke-width="4" stroke-linecap="square"></path>
                    <path d="M70.148,205.874361 C70.2729606,206.103184 70.4187458,206.273065 70.58536,206.38401 C70.7519742,206.494954 70.9220569,206.550426 71.0956133,206.550426 C71.3733036,206.550426 71.5833037,206.465485 71.72562,206.295601 C71.8679363,206.125718 71.9390933,205.815425 71.9390933,205.364713 L71.9390933,200.965094 L73.4698533,200.965094 L73.4698533,205.489525 C73.4698533,205.815424 73.4264649,206.123984 73.3396867,206.415213 C73.2529085,206.706442 73.1210076,206.95953 72.94398,207.174485 C72.7669524,207.38944 72.5413325,207.559321 72.2671133,207.684134 C71.9928942,207.808946 71.6683485,207.871351 71.2934667,207.871351 C70.7727974,207.871351 70.3371773,207.77081 69.9865933,207.569723 C69.6360094,207.368636 69.3427034,207.060076 69.1066667,206.644035 L70.148,205.874361 Z M74.61532,205.167094 C74.61532,204.737184 74.6847415,204.354085 74.8235867,204.017785 C74.9624318,203.681484 75.1481344,203.398927 75.3807,203.170104 C75.6132656,202.941281 75.882274,202.766199 76.1877333,202.644854 C76.4931926,202.523508 76.8090606,202.462837 77.1353467,202.462837 C77.4616327,202.462837 77.7757652,202.523508 78.0777533,202.644854 C78.3797415,202.766199 78.6470144,202.941281 78.87958,203.170104 C79.1121456,203.398927 79.2978482,203.681484 79.4366933,204.017785 C79.5755385,204.354085 79.64496,204.737184 79.64496,205.167094 C79.64496,205.597004 79.5755385,205.980103 79.4366933,206.316403 C79.2978482,206.652704 79.1121456,206.935261 78.87958,207.164084 C78.6470144,207.392907 78.3797415,207.567989 78.0777533,207.689334 C77.7757652,207.81068 77.4616327,207.871351 77.1353467,207.871351 C76.8090606,207.871351 76.4931926,207.81068 76.1877333,207.689334 C75.882274,207.567989 75.6132656,207.392907 75.3807,207.164084 C75.1481344,206.935261 74.9624318,206.652704 74.8235867,206.316403 C74.6847415,205.980103 74.61532,205.597004 74.61532,205.167094 Z M76.1877333,205.167094 C76.1877333,205.617806 76.2658326,205.974903 76.4220333,206.238396 C76.5782341,206.501889 76.8160028,206.633634 77.1353467,206.633634 C77.4477482,206.633634 77.6837814,206.501889 77.8434533,206.238396 C78.0031252,205.974903 78.08296,205.617806 78.08296,205.167094 C78.08296,204.716382 78.0031252,204.359285 77.8434533,204.095792 C77.6837814,203.832299 77.4477482,203.700554 77.1353467,203.700554 C76.8160028,203.700554 76.5782341,203.832299 76.4220333,204.095792 C76.2658326,204.359285 76.1877333,204.716382 76.1877333,205.167094 Z M80.6967067,200.455446 L82.2274667,200.455446 L82.2274667,202.244416 L82.1545733,203.170104 C82.3489565,202.996753 82.5745765,202.83554 82.83144,202.686458 C83.0883035,202.537376 83.3937582,202.462837 83.7478133,202.462837 C84.3101361,202.462837 84.7179876,202.646586 84.97138,203.014089 C85.2247724,203.381593 85.3514667,203.891236 85.3514667,204.543035 L85.3514667,207.74654 L83.8207067,207.74654 L83.8207067,204.740653 C83.8207067,204.366216 83.7703761,204.109661 83.6697133,203.97098 C83.5690506,203.8323 83.4076456,203.76296 83.1854933,203.76296 C82.9911101,203.76296 82.8244985,203.806297 82.6856533,203.892973 C82.5468082,203.979648 82.3940808,204.102725 82.2274667,204.262208 L82.2274667,207.74654 L80.6967067,207.74654 L80.6967067,200.455446 Z M86.64272,202.587649 L87.89232,202.587649 L87.9964533,203.242911 L88.0381067,203.242911 C88.2602589,203.03489 88.5032342,202.852875 88.76704,202.696859 C89.0308458,202.540843 89.3397716,202.462837 89.6938267,202.462837 C90.2561495,202.462837 90.664001,202.646586 90.9173933,203.014089 C91.1707857,203.381593 91.29748,203.891236 91.29748,204.543035 L91.29748,207.74654 L89.76672,207.74654 L89.76672,204.740653 C89.76672,204.366216 89.7163894,204.109661 89.6157267,203.97098 C89.5150639,203.8323 89.3536589,203.76296 89.1315067,203.76296 C88.9371235,203.76296 88.7705118,203.806297 88.6316667,203.892973 C88.4928215,203.979648 88.3400942,204.102725 88.17348,204.262208 L88.17348,207.74654 L86.64272,207.74654 L86.64272,202.587649 Z M94.89008,200.965094 L96.8061333,200.965094 C97.3268026,200.965094 97.7953979,201.030966 98.2119333,201.162713 C98.6284687,201.294459 98.9859896,201.497277 99.2845067,201.771171 C99.5830237,202.045065 99.8121148,202.393495 99.9717867,202.81647 C100.131459,203.239446 100.211293,203.742156 100.211293,204.324614 C100.211293,204.907072 100.131459,205.413249 99.9717867,205.843158 C99.8121148,206.273068 99.5864948,206.628432 99.29492,206.90926 C99.0033452,207.190088 98.654502,207.399839 98.24838,207.53852 C97.842258,207.6772 97.3892825,207.74654 96.88944,207.74654 L94.89008,207.74654 L94.89008,200.965094 Z M96.7124133,206.508822 C97.0039881,206.508822 97.2677899,206.470685 97.5038267,206.394411 C97.7398634,206.318137 97.9411858,206.195059 98.1078,206.025176 C98.2744142,205.855292 98.4045795,205.631673 98.4983,205.354312 C98.5920205,205.076951 98.63888,204.733722 98.63888,204.324614 C98.63888,203.92244 98.5920205,203.584411 98.4983,203.310517 C98.4045795,203.036623 98.2744142,202.818205 98.1078,202.655255 C97.9411858,202.492305 97.7398634,202.376162 97.5038267,202.306822 C97.2677899,202.237482 97.0039881,202.202812 96.7124133,202.202812 L96.42084,202.202812 L96.42084,206.508822 L96.7124133,206.508822 Z M101.0756,205.167094 C101.0756,204.737184 101.145022,204.354085 101.283867,204.017785 C101.422712,203.681484 101.608414,203.398927 101.84098,203.170104 C102.073546,202.941281 102.342554,202.766199 102.648013,202.644854 C102.953473,202.523508 103.269341,202.462837 103.595627,202.462837 C103.921913,202.462837 104.236045,202.523508 104.538033,202.644854 C104.840022,202.766199 105.107294,202.941281 105.33986,203.170104 C105.572426,203.398927 105.758128,203.681484 105.896973,204.017785 C106.035818,204.354085 106.10524,204.737184 106.10524,205.167094 C106.10524,205.597004 106.035818,205.980103 105.896973,206.316403 C105.758128,206.652704 105.572426,206.935261 105.33986,207.164084 C105.107294,207.392907 104.840022,207.567989 104.538033,207.689334 C104.236045,207.81068 103.921913,207.871351 103.595627,207.871351 C103.269341,207.871351 102.953473,207.81068 102.648013,207.689334 C102.342554,207.567989 102.073546,207.392907 101.84098,207.164084 C101.608414,206.935261 101.422712,206.652704 101.283867,206.316403 C101.145022,205.980103 101.0756,205.597004 101.0756,205.167094 Z M102.648013,205.167094 C102.648013,205.617806 102.726113,205.974903 102.882313,206.238396 C103.038514,206.501889 103.276283,206.633634 103.595627,206.633634 C103.908028,206.633634 104.144061,206.501889 104.303733,206.238396 C104.463405,205.974903 104.54324,205.617806 104.54324,205.167094 C104.54324,204.716382 104.463405,204.359285 104.303733,204.095792 C104.144061,203.832299 103.908028,203.700554 103.595627,203.700554 C103.276283,203.700554 103.038514,203.832299 102.882313,204.095792 C102.726113,204.359285 102.648013,204.716382 102.648013,205.167094 Z M106.855,205.167094 C106.855,204.751052 106.924422,204.374887 107.063267,204.038587 C107.202112,203.702286 107.384343,203.417995 107.609967,203.185705 C107.83559,202.953416 108.094185,202.774867 108.38576,202.650054 C108.677335,202.525242 108.979318,202.462837 109.29172,202.462837 C109.65966,202.462837 109.980734,202.525242 110.254953,202.650054 C110.529172,202.774867 110.758264,202.948215 110.942233,203.170104 C111.126203,203.391993 111.263311,203.653748 111.35356,203.955379 C111.443809,204.257009 111.488933,204.584637 111.488933,204.938272 C111.488933,205.076953 111.481991,205.203497 111.468107,205.317908 C111.454222,205.43232 111.440338,205.520727 111.426453,205.583134 L108.333693,205.583134 C108.403116,205.978373 108.557579,206.264398 108.797087,206.441215 C109.036595,206.618033 109.3299,206.706441 109.677013,206.706441 C110.044953,206.706441 110.416358,206.592031 110.79124,206.363208 L111.301493,207.288896 C111.037688,207.469181 110.744382,207.611326 110.421567,207.715337 C110.098752,207.819347 109.781148,207.871351 109.468747,207.871351 C109.100807,207.871351 108.75717,207.81068 108.437827,207.689334 C108.118483,207.567989 107.840797,207.391174 107.60476,207.158884 C107.368723,206.926594 107.184756,206.644036 107.052853,206.311203 C106.92095,205.97837 106.855,205.597004 106.855,205.167094 Z M110.187267,204.636644 C110.187267,204.33848 110.121316,204.095793 109.989413,203.908574 C109.85751,203.721355 109.635362,203.627748 109.32296,203.627748 C109.079981,203.627748 108.86651,203.709221 108.68254,203.872171 C108.49857,204.03512 108.378818,204.289942 108.32328,204.636644 L110.187267,204.636644 Z" id="John-Doe" fill="#79797B"></path>
                    <path d="M20.3533333,246.314356 L157.633057,246.314356" id="Line" stroke="#979797" stroke-width="5" stroke-linecap="square"></path>
                    <path d="M20.3533333,260.497525 L157.633057,260.497525" id="Line" stroke="#979797" stroke-width="5" stroke-linecap="square"></path>
                    <path d="M57.2733333,272.789604 L119.782014,272.789604" id="Line" stroke="#979797" stroke-width="5" stroke-linecap="square"></path>
                    <path d="M61.06,297.846535 L117.867888,297.846535" id="Line" stroke="#D7D9D9" stroke-width="4" stroke-linecap="square"></path>
                    <path d="M61.06,310.138614 L117.867888,310.138614" id="Line" stroke="#4990E2" stroke-width="4" stroke-linecap="square"></path>
                </g>
                <g id="Group-7" transform="translate(193.120000, 48.222772)">
                    <rect id="Rectangle" fill="#79797B" x="0" y="0" width="181.496689" height="178.27681"></rect>
                    <rect id="Rectangle" stroke="#D7D9D9" transform="translate(90.748344, 255.383976) scale(1, -1) translate(-90.748344, -255.383976) " x="0.5" y="178.262376" width="180.496689" height="154.2432"></rect>
                    <g id="icon-team" transform="translate(32.186667, 34.039604)" stroke="#FFFFFF">
                        <path d="M32.5665187,81.2496258 C27.4533007,45.5886353 35.1277902,27.5771963 55.5899872,27.2153088 C86.2832826,26.6724777 81.1383802,73.9485469 80.0053906,81.2496258" id="Path-5"></path>
                        <path d="M17.8675497,102.578807 C17.8675497,90.048455 25.8943626,84.3723515 33.6466346,80.7947216 C38.8148159,78.409635 42.1895938,77.8044595 43.7709684,78.9791952 C44.3299022,82.69023 45.0047482,85.2942397 45.7955064,86.7912242 C47.8343478,90.6509557 50.7480937,92.5975068 54.536744,92.6308773 C63.5259055,92.7100543 67.9547915,84.516828 67.9547915,77.0346104 C67.9624083,76.6798978 71.0259864,77.3280928 77.1455257,78.9791952 C89.9759929,89.1446197 96.3629357,96.8219591 96.3063539,102.011214" id="Path-6"></path>
                        <path d="M48.9917815,45.0383521 C53.2751325,50.4793891 57.6093528,54.3099678 61.9944424,56.5300883 C68.5720766,59.860269 70.8008011,64.7304405 70.3168635,68.7866734 C69.8329259,72.8429063 60.0146234,86.6299809 56.4263036,86.8033784 C52.8379837,86.9767758 39.720255,76.7677055 40.4677877,68.9838239 C40.9661427,63.7945694 43.807474,55.8127455 48.9917815,45.0383521 Z" id="Path-7"></path>
                        <ellipse id="Oval-2" cx="58.7013659" cy="58.570383" rx="58.7013659" ry="58.570383"></ellipse>
                    </g>
                    <path d="M68.6301987,221.242935 L112.663825,221.242935" id="Line" stroke="#4990E2" stroke-width="4" stroke-linecap="square"></path>
                    <path d="M70.148,205.874361 C70.2729606,206.103184 70.4187458,206.273065 70.58536,206.38401 C70.7519742,206.494954 70.9220569,206.550426 71.0956133,206.550426 C71.3733036,206.550426 71.5833037,206.465485 71.72562,206.295601 C71.8679363,206.125718 71.9390933,205.815425 71.9390933,205.364713 L71.9390933,200.965094 L73.4698533,200.965094 L73.4698533,205.489525 C73.4698533,205.815424 73.4264649,206.123984 73.3396867,206.415213 C73.2529085,206.706442 73.1210076,206.95953 72.94398,207.174485 C72.7669524,207.38944 72.5413325,207.559321 72.2671133,207.684134 C71.9928942,207.808946 71.6683485,207.871351 71.2934667,207.871351 C70.7727974,207.871351 70.3371773,207.77081 69.9865933,207.569723 C69.6360094,207.368636 69.3427034,207.060076 69.1066667,206.644035 L70.148,205.874361 Z M74.61532,205.167094 C74.61532,204.737184 74.6847415,204.354085 74.8235867,204.017785 C74.9624318,203.681484 75.1481344,203.398927 75.3807,203.170104 C75.6132656,202.941281 75.882274,202.766199 76.1877333,202.644854 C76.4931926,202.523508 76.8090606,202.462837 77.1353467,202.462837 C77.4616327,202.462837 77.7757652,202.523508 78.0777533,202.644854 C78.3797415,202.766199 78.6470144,202.941281 78.87958,203.170104 C79.1121456,203.398927 79.2978482,203.681484 79.4366933,204.017785 C79.5755385,204.354085 79.64496,204.737184 79.64496,205.167094 C79.64496,205.597004 79.5755385,205.980103 79.4366933,206.316403 C79.2978482,206.652704 79.1121456,206.935261 78.87958,207.164084 C78.6470144,207.392907 78.3797415,207.567989 78.0777533,207.689334 C77.7757652,207.81068 77.4616327,207.871351 77.1353467,207.871351 C76.8090606,207.871351 76.4931926,207.81068 76.1877333,207.689334 C75.882274,207.567989 75.6132656,207.392907 75.3807,207.164084 C75.1481344,206.935261 74.9624318,206.652704 74.8235867,206.316403 C74.6847415,205.980103 74.61532,205.597004 74.61532,205.167094 Z M76.1877333,205.167094 C76.1877333,205.617806 76.2658326,205.974903 76.4220333,206.238396 C76.5782341,206.501889 76.8160028,206.633634 77.1353467,206.633634 C77.4477482,206.633634 77.6837814,206.501889 77.8434533,206.238396 C78.0031252,205.974903 78.08296,205.617806 78.08296,205.167094 C78.08296,204.716382 78.0031252,204.359285 77.8434533,204.095792 C77.6837814,203.832299 77.4477482,203.700554 77.1353467,203.700554 C76.8160028,203.700554 76.5782341,203.832299 76.4220333,204.095792 C76.2658326,204.359285 76.1877333,204.716382 76.1877333,205.167094 Z M80.6967067,200.455446 L82.2274667,200.455446 L82.2274667,202.244416 L82.1545733,203.170104 C82.3489565,202.996753 82.5745765,202.83554 82.83144,202.686458 C83.0883035,202.537376 83.3937582,202.462837 83.7478133,202.462837 C84.3101361,202.462837 84.7179876,202.646586 84.97138,203.014089 C85.2247724,203.381593 85.3514667,203.891236 85.3514667,204.543035 L85.3514667,207.74654 L83.8207067,207.74654 L83.8207067,204.740653 C83.8207067,204.366216 83.7703761,204.109661 83.6697133,203.97098 C83.5690506,203.8323 83.4076456,203.76296 83.1854933,203.76296 C82.9911101,203.76296 82.8244985,203.806297 82.6856533,203.892973 C82.5468082,203.979648 82.3940808,204.102725 82.2274667,204.262208 L82.2274667,207.74654 L80.6967067,207.74654 L80.6967067,200.455446 Z M86.64272,202.587649 L87.89232,202.587649 L87.9964533,203.242911 L88.0381067,203.242911 C88.2602589,203.03489 88.5032342,202.852875 88.76704,202.696859 C89.0308458,202.540843 89.3397716,202.462837 89.6938267,202.462837 C90.2561495,202.462837 90.664001,202.646586 90.9173933,203.014089 C91.1707857,203.381593 91.29748,203.891236 91.29748,204.543035 L91.29748,207.74654 L89.76672,207.74654 L89.76672,204.740653 C89.76672,204.366216 89.7163894,204.109661 89.6157267,203.97098 C89.5150639,203.8323 89.3536589,203.76296 89.1315067,203.76296 C88.9371235,203.76296 88.7705118,203.806297 88.6316667,203.892973 C88.4928215,203.979648 88.3400942,204.102725 88.17348,204.262208 L88.17348,207.74654 L86.64272,207.74654 L86.64272,202.587649 Z M94.89008,200.965094 L96.8061333,200.965094 C97.3268026,200.965094 97.7953979,201.030966 98.2119333,201.162713 C98.6284687,201.294459 98.9859896,201.497277 99.2845067,201.771171 C99.5830237,202.045065 99.8121148,202.393495 99.9717867,202.81647 C100.131459,203.239446 100.211293,203.742156 100.211293,204.324614 C100.211293,204.907072 100.131459,205.413249 99.9717867,205.843158 C99.8121148,206.273068 99.5864948,206.628432 99.29492,206.90926 C99.0033452,207.190088 98.654502,207.399839 98.24838,207.53852 C97.842258,207.6772 97.3892825,207.74654 96.88944,207.74654 L94.89008,207.74654 L94.89008,200.965094 Z M96.7124133,206.508822 C97.0039881,206.508822 97.2677899,206.470685 97.5038267,206.394411 C97.7398634,206.318137 97.9411858,206.195059 98.1078,206.025176 C98.2744142,205.855292 98.4045795,205.631673 98.4983,205.354312 C98.5920205,205.076951 98.63888,204.733722 98.63888,204.324614 C98.63888,203.92244 98.5920205,203.584411 98.4983,203.310517 C98.4045795,203.036623 98.2744142,202.818205 98.1078,202.655255 C97.9411858,202.492305 97.7398634,202.376162 97.5038267,202.306822 C97.2677899,202.237482 97.0039881,202.202812 96.7124133,202.202812 L96.42084,202.202812 L96.42084,206.508822 L96.7124133,206.508822 Z M101.0756,205.167094 C101.0756,204.737184 101.145022,204.354085 101.283867,204.017785 C101.422712,203.681484 101.608414,203.398927 101.84098,203.170104 C102.073546,202.941281 102.342554,202.766199 102.648013,202.644854 C102.953473,202.523508 103.269341,202.462837 103.595627,202.462837 C103.921913,202.462837 104.236045,202.523508 104.538033,202.644854 C104.840022,202.766199 105.107294,202.941281 105.33986,203.170104 C105.572426,203.398927 105.758128,203.681484 105.896973,204.017785 C106.035818,204.354085 106.10524,204.737184 106.10524,205.167094 C106.10524,205.597004 106.035818,205.980103 105.896973,206.316403 C105.758128,206.652704 105.572426,206.935261 105.33986,207.164084 C105.107294,207.392907 104.840022,207.567989 104.538033,207.689334 C104.236045,207.81068 103.921913,207.871351 103.595627,207.871351 C103.269341,207.871351 102.953473,207.81068 102.648013,207.689334 C102.342554,207.567989 102.073546,207.392907 101.84098,207.164084 C101.608414,206.935261 101.422712,206.652704 101.283867,206.316403 C101.145022,205.980103 101.0756,205.597004 101.0756,205.167094 Z M102.648013,205.167094 C102.648013,205.617806 102.726113,205.974903 102.882313,206.238396 C103.038514,206.501889 103.276283,206.633634 103.595627,206.633634 C103.908028,206.633634 104.144061,206.501889 104.303733,206.238396 C104.463405,205.974903 104.54324,205.617806 104.54324,205.167094 C104.54324,204.716382 104.463405,204.359285 104.303733,204.095792 C104.144061,203.832299 103.908028,203.700554 103.595627,203.700554 C103.276283,203.700554 103.038514,203.832299 102.882313,204.095792 C102.726113,204.359285 102.648013,204.716382 102.648013,205.167094 Z M106.855,205.167094 C106.855,204.751052 106.924422,204.374887 107.063267,204.038587 C107.202112,203.702286 107.384343,203.417995 107.609967,203.185705 C107.83559,202.953416 108.094185,202.774867 108.38576,202.650054 C108.677335,202.525242 108.979318,202.462837 109.29172,202.462837 C109.65966,202.462837 109.980734,202.525242 110.254953,202.650054 C110.529172,202.774867 110.758264,202.948215 110.942233,203.170104 C111.126203,203.391993 111.263311,203.653748 111.35356,203.955379 C111.443809,204.257009 111.488933,204.584637 111.488933,204.938272 C111.488933,205.076953 111.481991,205.203497 111.468107,205.317908 C111.454222,205.43232 111.440338,205.520727 111.426453,205.583134 L108.333693,205.583134 C108.403116,205.978373 108.557579,206.264398 108.797087,206.441215 C109.036595,206.618033 109.3299,206.706441 109.677013,206.706441 C110.044953,206.706441 110.416358,206.592031 110.79124,206.363208 L111.301493,207.288896 C111.037688,207.469181 110.744382,207.611326 110.421567,207.715337 C110.098752,207.819347 109.781148,207.871351 109.468747,207.871351 C109.100807,207.871351 108.75717,207.81068 108.437827,207.689334 C108.118483,207.567989 107.840797,207.391174 107.60476,207.158884 C107.368723,206.926594 107.184756,206.644036 107.052853,206.311203 C106.92095,205.97837 106.855,205.597004 106.855,205.167094 Z M110.187267,204.636644 C110.187267,204.33848 110.121316,204.095793 109.989413,203.908574 C109.85751,203.721355 109.635362,203.627748 109.32296,203.627748 C109.079981,203.627748 108.86651,203.709221 108.68254,203.872171 C108.49857,204.03512 108.378818,204.289942 108.32328,204.636644 L110.187267,204.636644 Z" id="John-Doe" fill="#79797B"></path>
                    <path d="M20.3533333,246.314356 L157.633057,246.314356" id="Line" stroke="#979797" stroke-width="5" stroke-linecap="square"></path>
                    <path d="M20.3533333,260.497525 L157.633057,260.497525" id="Line" stroke="#979797" stroke-width="5" stroke-linecap="square"></path>
                    <path d="M57.2733333,272.789604 L119.782014,272.789604" id="Line" stroke="#979797" stroke-width="5" stroke-linecap="square"></path>
                    <path d="M61.06,297.846535 L117.867888,297.846535" id="Line" stroke="#D7D9D9" stroke-width="4" stroke-linecap="square"></path>
                    <path d="M61.06,310.138614 L117.867888,310.138614" id="Line" stroke="#4990E2" stroke-width="4" stroke-linecap="square"></path>
                </g>
                <path d="M2.14041333,9.94996535 C2.56010432,10.3092741 3.02475523,10.6027051 3.53438,10.8302673 C4.04400477,11.0578295 4.54462865,11.1716089 5.03626667,11.1716089 C5.58786054,11.1716089 5.99855198,11.0698063 6.26835333,10.866198 C6.53815468,10.6625897 6.67305333,10.3871238 6.67305333,10.0397921 C6.67305333,9.86013772 6.63408261,9.7044396 6.55614,9.57269307 C6.47819739,9.44094654 6.36428297,9.32417295 6.21439333,9.22236881 C6.06450369,9.12056467 5.88463883,9.02475045 5.67479333,8.93492327 L4.98230667,8.63849505 L3.45344,7.99174257 C3.15366072,7.871973 2.86287919,7.71627489 2.58108667,7.52464356 C2.29929415,7.33301224 2.04748333,7.10844766 1.82564667,6.85094307 C1.60381,6.59343848 1.42694288,6.29401903 1.29504,5.95267574 C1.16313712,5.61133245 1.09718667,5.22508136 1.09718667,4.79391089 C1.09718667,4.31483259 1.19911009,3.86270922 1.40296,3.43752723 C1.60680991,3.01234523 1.8945937,2.64106512 2.26632,2.32367574 C2.6380463,2.00628637 3.07871523,1.75776822 3.58834,1.57811386 C4.09796477,1.3984595 4.65854361,1.30863366 5.27009333,1.30863366 C5.95359008,1.30863366 6.62808334,1.44037822 7.29359333,1.70387129 C7.95910333,1.96736435 8.54366415,2.35062125 9.04729333,2.85365347 L7.69829333,4.52443069 C7.31457586,4.22500675 6.93086414,3.99445378 6.54714667,3.83276485 C6.16342919,3.67107592 5.737749,3.59023267 5.27009333,3.59023267 C4.81442883,3.59023267 4.45170135,3.6830527 4.1819,3.86869554 C3.91209865,4.05433839 3.7772,4.31483331 3.7772,4.65018812 C3.7772,4.82984248 3.82216622,4.9825464 3.9121,5.10830446 C4.00203378,5.23406251 4.12793919,5.3478419 4.28982,5.44964604 C4.45170081,5.55145018 4.64055892,5.6472644 4.8564,5.73709158 C5.07224108,5.82691877 5.30606541,5.92572718 5.55788,6.0335198 L7.06876,6.64434158 C7.78823026,6.93178857 8.3548046,7.32702224 8.7685,7.83005446 C9.1821954,8.33308667 9.38904,8.99779785 9.38904,9.82420792 C9.38904,10.3152632 9.29011432,10.7793633 9.09226,11.2165223 C8.89440568,11.6536812 8.60662189,12.0369381 8.2289,12.3663045 C7.85117811,12.6956708 7.3865272,12.9591599 6.83493333,13.1567797 C6.28333946,13.3543995 5.65980792,13.4532079 4.96432,13.4532079 C4.19688505,13.4532079 3.43245936,13.3124808 2.67102,13.0310223 C1.90958064,12.7495638 1.22909189,12.3273824 0.629533333,11.7644653 L2.14041333,9.94996535 Z M10.84596,10.7584059 C10.84596,9.82420325 11.2416627,9.0936198 12.03308,8.56663366 C12.8244973,8.03964753 14.1015379,7.68633258 15.86424,7.50667822 C15.8402577,7.11143862 15.7203477,6.7970482 15.5045067,6.56349752 C15.2886656,6.32994685 14.9409268,6.21317327 14.46128,6.21317327 C14.0775625,6.21317327 13.6938508,6.28503393 13.3101333,6.42875743 C12.9264159,6.57248092 12.5187222,6.77009775 12.08704,7.02161386 L11.1517333,5.27897525 C11.7273095,4.93164348 12.3298569,4.6501892 12.9593933,4.43460396 C13.5889298,4.21901872 14.2574276,4.11122772 14.9649067,4.11122772 C16.1160591,4.11122772 16.9943992,4.43759492 17.5999533,5.09033911 C18.2055075,5.7430833 18.50828,6.75811523 18.50828,8.13546535 L18.50828,13.2376238 L16.34988,13.2376238 L16.1520267,12.3213911 L16.0980667,12.3213911 C15.7143492,12.6567459 15.3096532,12.9292176 14.8839667,13.1388144 C14.4582801,13.3484111 13.9936292,13.4532079 13.49,13.4532079 C13.0823002,13.4532079 12.716575,13.3843414 12.3928133,13.2466064 C12.0690517,13.1088714 11.7932589,12.917243 11.5654267,12.6717153 C11.3375944,12.4261877 11.1607273,12.1417392 11.03482,11.8183614 C10.9089127,11.4949835 10.84596,11.1416686 10.84596,10.7584059 Z M13.3640933,10.5607871 C13.3640933,10.8482341 13.4570235,11.0608219 13.6428867,11.1985569 C13.8287498,11.3362919 14.0775629,11.4051584 14.3893333,11.4051584 C14.7011038,11.4051584 14.9649056,11.3392861 15.1807467,11.2075396 C15.3965877,11.0757931 15.6244166,10.890153 15.86424,10.6506139 L15.86424,9.08762871 C14.9169375,9.21937525 14.2634285,9.41100369 13.9036933,9.6625198 C13.5439582,9.91403591 13.3640933,10.2134554 13.3640933,10.5607871 Z M20.7746,0.643915842 L23.41864,0.643915842 L23.41864,10.5787525 C23.41864,10.8542225 23.4696017,11.0458509 23.5715267,11.1536436 C23.6734516,11.2614362 23.7783728,11.3153317 23.8862933,11.3153317 L24.03918,11.3153317 C24.0811491,11.3153317 24.1381063,11.3033549 24.2100533,11.279401 L24.5338133,13.2376238 C24.3899193,13.2975086 24.2070567,13.3484099 23.98522,13.3903292 C23.7633833,13.4322486 23.5025793,13.4532079 23.2028,13.4532079 C22.7471355,13.4532079 22.3634238,13.3813473 22.0516533,13.2376238 C21.7398829,13.0939003 21.4910698,12.8932892 21.3052067,12.6357847 C21.1193435,12.3782801 20.9844449,12.0668838 20.9005067,11.7015866 C20.8165685,11.3362894 20.7746,10.9260848 20.7746,10.4709604 L20.7746,0.643915842 Z M25.3971733,8.78221782 C25.3971733,8.06360037 25.5170832,7.41386017 25.7569067,6.83297772 C25.9967301,6.25209528 26.3114936,5.76104739 26.7012067,5.35981931 C27.0909197,4.95859123 27.5375841,4.6501892 28.0412133,4.43460396 C28.5448425,4.21901872 29.0664506,4.11122772 29.6060533,4.11122772 C30.2415854,4.11122772 30.7961687,4.21901872 31.26982,4.43460396 C31.7434713,4.6501892 32.139174,4.94960864 32.45694,5.33287129 C32.774706,5.71613393 33.0115281,6.1682573 33.1674133,6.68925495 C33.3232986,7.2102526 33.40124,7.77615536 33.40124,8.3869802 C33.40124,8.62651935 33.389249,8.84509555 33.3652667,9.04271535 C33.3412843,9.24033515 33.3173023,9.39303906 33.29332,9.50083168 L27.95128,9.50083168 C28.0711917,10.1835183 28.3379913,10.6775604 28.7516867,10.9829728 C29.1653821,11.2883852 29.6720014,11.4410891 30.27156,11.4410891 C30.9070921,11.4410891 31.5486101,11.2434723 32.1961333,10.8482327 L33.07748,12.4471485 C32.6218155,12.7585494 32.1151961,13.0040734 31.5576067,13.1837277 C31.0000172,13.3633821 30.4514294,13.4532079 29.9118267,13.4532079 C29.2762946,13.4532079 28.6827405,13.3484111 28.1311467,13.1388144 C27.5795528,12.9292176 27.0999131,12.6238098 26.6922133,12.2225817 C26.2845135,11.8213536 25.9667523,11.3332999 25.73892,10.7584059 C25.5110877,10.183512 25.3971733,9.52478919 25.3971733,8.78221782 Z M31.1529067,7.86598515 C31.1529067,7.35097597 31.0389923,6.93178875 30.81116,6.60841089 C30.5833277,6.28503304 30.199616,6.12334653 29.6600133,6.12334653 C29.2403223,6.12334653 28.8715994,6.26407368 28.5538333,6.54553218 C28.2360673,6.82699068 28.0292227,7.26713727 27.9332933,7.86598515 L31.1529067,7.86598515 Z M35.6315867,10.5607871 C36.0392865,10.872188 36.4289937,11.1057352 36.80072,11.2614356 C37.1724463,11.4171361 37.5501625,11.4949851 37.93388,11.4949851 C38.3295886,11.4949851 38.6173724,11.4291129 38.79724,11.2973663 C38.9771076,11.1656198 39.06704,10.9799797 39.06704,10.7404406 C39.06704,10.5967171 39.0160783,10.4679667 38.9141533,10.3541856 C38.8122284,10.2404045 38.674332,10.1356077 38.50046,10.0397921 C38.326588,9.94397642 38.1317344,9.85714478 37.9158933,9.77929455 C37.7000523,9.70144433 37.4782189,9.61461269 37.2503867,9.51879703 C36.9745897,9.41100441 36.6987969,9.28524824 36.423,9.14152475 C36.1472031,8.99780126 35.8953923,8.82114379 35.66756,8.61154703 C35.4397277,8.40195027 35.2538674,8.15642632 35.1099733,7.87496782 C34.9660793,7.59350932 34.8941333,7.26714212 34.8941333,6.89585644 C34.8941333,6.48863988 34.9750725,6.11137137 35.1369533,5.7640396 C35.2988341,5.41670783 35.5296607,5.12327678 35.82944,4.88373762 C36.1292193,4.64419847 36.488949,4.45556422 36.90864,4.31782921 C37.328331,4.1800942 37.7959796,4.11122772 38.3116,4.11122772 C38.9950968,4.11122772 39.5946463,4.22800131 40.1102667,4.46155198 C40.625887,4.69510265 41.0755492,4.95559757 41.4592667,5.24304455 L40.2721467,6.82399505 C39.948385,6.5844559 39.6306238,6.39881584 39.3188533,6.26706931 C39.0070829,6.13532277 38.6953171,6.0694505 38.3835467,6.0694505 C37.7120411,6.0694505 37.3762933,6.30299766 37.3762933,6.77009901 C37.3762933,6.9138225 37.4242573,7.03658447 37.5201867,7.13838861 C37.616116,7.24019275 37.7450192,7.33301278 37.9069,7.41685149 C38.0687808,7.50069019 38.2546412,7.58153344 38.4644867,7.65938366 C38.6743322,7.73723389 38.8931677,7.81807714 39.121,7.90191584 C39.4087881,8.00970846 39.6935741,8.13247043 39.9753667,8.27020545 C40.2571592,8.40794046 40.5149655,8.57860954 40.7487933,8.78221782 C40.9826212,8.9858261 41.1714793,9.23434424 41.3153733,9.5277797 C41.4592674,9.82121516 41.5312133,10.1715359 41.5312133,10.5787525 C41.5312133,10.985969 41.4532719,11.3632375 41.2973867,11.7105693 C41.1415014,12.0579011 40.9076771,12.3603147 40.5959067,12.6178193 C40.2841362,12.8753239 39.9004245,13.0789291 39.44476,13.2286411 C38.9890955,13.3783531 38.4614919,13.4532079 37.8619333,13.4532079 C37.274366,13.4532079 36.6718186,13.3394285 36.0542733,13.1118663 C35.436728,12.8843041 34.9001312,12.5848847 34.4444667,12.213599 L35.6315867,10.5607871 Z M47.16104,1.52421782 L49.96696,1.52421782 L51.9275067,6.78806436 L52.6289867,8.83611386 L52.7009333,8.83611386 L53.4024133,6.78806436 L55.309,1.52421782 L58.0969333,1.52421782 L58.0969333,13.2376238 L55.63276,13.2376238 L55.63276,8.94390594 C55.63276,8.65645896 55.644751,8.33907434 55.6687333,7.99174257 C55.6927157,7.6444108 55.7226932,7.29409005 55.7586667,6.9407698 C55.7946402,6.58744955 55.8306132,6.24012299 55.8665867,5.8987797 C55.9025602,5.55743641 55.9385332,5.24304599 55.9745067,4.95559901 L55.90256,4.95559901 L54.93128,7.66836634 L53.1326133,12.213599 L52.0714,12.213599 L50.2727333,7.66836634 L49.3374267,4.95559901 L49.26548,4.95559901 C49.3014535,5.24304599 49.3374265,5.55743641 49.3734,5.8987797 C49.4093735,6.24012299 49.4423487,6.58744955 49.4723267,6.9407698 C49.5023046,7.29409005 49.5292843,7.6444108 49.5532667,7.99174257 C49.577249,8.33907434 49.58924,8.65645896 49.58924,8.94390594 L49.58924,13.2376238 L47.16104,13.2376238 L47.16104,1.52421782 Z M60.32728,10.7584059 C60.32728,9.82420325 60.7229827,9.0936198 61.5144,8.56663366 C62.3058173,8.03964753 63.5828579,7.68633258 65.34556,7.50667822 C65.3215777,7.11143862 65.2016677,6.7970482 64.9858267,6.56349752 C64.7699856,6.32994685 64.4222468,6.21317327 63.9426,6.21317327 C63.5588825,6.21317327 63.1751708,6.28503393 62.7914533,6.42875743 C62.4077359,6.57248092 62.0000422,6.77009775 61.56836,7.02161386 L60.6330533,5.27897525 C61.2086295,4.93164348 61.8111769,4.6501892 62.4407133,4.43460396 C63.0702498,4.21901872 63.7387476,4.11122772 64.4462267,4.11122772 C65.5973791,4.11122772 66.4757192,4.43759492 67.0812733,5.09033911 C67.6868275,5.7430833 67.9896,6.75811523 67.9896,8.13546535 L67.9896,13.2376238 L65.8312,13.2376238 L65.6333467,12.3213911 L65.5793867,12.3213911 C65.1956692,12.6567459 64.7909732,12.9292176 64.3652867,13.1388144 C63.9396001,13.3484111 63.4749492,13.4532079 62.97132,13.4532079 C62.5636202,13.4532079 62.197895,13.3843414 61.8741333,13.2466064 C61.5503717,13.1088714 61.2745789,12.917243 61.0467467,12.6717153 C60.8189144,12.4261877 60.6420473,12.1417392 60.51614,11.8183614 C60.3902327,11.4949835 60.32728,11.1416686 60.32728,10.7584059 Z M62.8454133,10.5607871 C62.8454133,10.8482341 62.9383435,11.0608219 63.1242067,11.1985569 C63.3100698,11.3362919 63.5588829,11.4051584 63.8706533,11.4051584 C64.1824238,11.4051584 64.4462256,11.3392861 64.6620667,11.2075396 C64.8779077,11.0757931 65.1057366,10.890153 65.34556,10.6506139 L65.34556,9.08762871 C64.3982575,9.21937525 63.7447485,9.41100369 63.3850133,9.6625198 C63.0252782,9.91403591 62.8454133,10.2134554 62.8454133,10.5607871 Z M70.25592,4.32681188 L72.41432,4.32681188 L72.5941867,5.45862871 L72.6661333,5.45862871 C73.0498508,5.09931999 73.4695355,4.78492957 73.9252,4.51544802 C74.3808645,4.24596647 74.9144636,4.11122772 75.5260133,4.11122772 C76.4972982,4.11122772 77.2017689,4.42861234 77.6394467,5.06339109 C78.0771244,5.69816984 78.29596,6.57846302 78.29596,7.70429703 L78.29596,13.2376238 L75.65192,13.2376238 L75.65192,8.04563861 C75.65192,7.3988829 75.5649853,6.95574212 75.3911133,6.71620297 C75.2172414,6.47666382 74.9384508,6.35689604 74.5547333,6.35689604 C74.2189805,6.35689604 73.9311968,6.4317509 73.6913733,6.58146287 C73.4515499,6.73117484 73.1877481,6.94376265 72.89996,7.21923267 L72.89996,13.2376238 L70.25592,13.2376238 L70.25592,4.32681188 Z M80.2205333,10.7584059 C80.2205333,9.82420325 80.616236,9.0936198 81.4076533,8.56663366 C82.1990706,8.03964753 83.4761112,7.68633258 85.2388133,7.50667822 C85.214831,7.11143862 85.0949211,6.7970482 84.87908,6.56349752 C84.6632389,6.32994685 84.3155002,6.21317327 83.8358533,6.21317327 C83.4521359,6.21317327 83.0684241,6.28503393 82.6847067,6.42875743 C82.3009892,6.57248092 81.8932955,6.77009775 81.4616133,7.02161386 L80.5263067,5.27897525 C81.1018829,4.93164348 81.7044302,4.6501892 82.3339667,4.43460396 C82.9635031,4.21901872 83.6320009,4.11122772 84.33948,4.11122772 C85.4906324,4.11122772 86.3689725,4.43759492 86.9745267,5.09033911 C87.5800808,5.7430833 87.8828533,6.75811523 87.8828533,8.13546535 L87.8828533,13.2376238 L85.7244533,13.2376238 L85.5266,12.3213911 L85.47264,12.3213911 C85.0889225,12.6567459 84.6842266,12.9292176 84.25854,13.1388144 C83.8328534,13.3484111 83.3682025,13.4532079 82.8645733,13.4532079 C82.4568735,13.4532079 82.0911483,13.3843414 81.7673867,13.2466064 C81.443625,13.1088714 81.1678323,12.917243 80.94,12.6717153 C80.7121677,12.4261877 80.5353006,12.1417392 80.4093933,11.8183614 C80.283486,11.4949835 80.2205333,11.1416686 80.2205333,10.7584059 Z M82.7386667,10.5607871 C82.7386667,10.8482341 82.8315968,11.0608219 83.01746,11.1985569 C83.2033232,11.3362919 83.4521362,11.4051584 83.7639067,11.4051584 C84.0756771,11.4051584 84.3394789,11.3392861 84.55532,11.2075396 C84.7711611,11.0757931 84.9989899,10.890153 85.2388133,10.6506139 L85.2388133,9.08762871 C84.2915108,9.21937525 83.6380018,9.41100369 83.2782667,9.6625198 C82.9185315,9.91403591 82.7386667,10.2134554 82.7386667,10.5607871 Z M91.7679733,14.3514752 C91.7679733,14.6868301 91.9478382,14.9413366 92.3075733,15.1150025 C92.6673085,15.2886684 93.1469481,15.3755 93.7465067,15.3755 C94.3460652,15.3755 94.8376959,15.2707032 95.2214133,15.0611064 C95.6051308,14.8515097 95.7969867,14.5910148 95.7969867,14.2796139 C95.7969867,14.0041438 95.6800745,13.8185038 95.4462467,13.7226881 C95.2124188,13.6268725 94.8736733,13.5789653 94.43,13.5789653 L93.51268,13.5789653 C93.2009096,13.5789653 92.9490987,13.5699828 92.75724,13.5520173 C92.5653813,13.5340519 92.3975074,13.5071041 92.2536133,13.4711733 C91.9298517,13.7586202 91.7679733,14.0520513 91.7679733,14.3514752 Z M89.5915867,14.7646782 C89.5915867,14.0460608 90.0172669,13.4472219 90.86864,12.9681436 L90.86864,12.8962822 C90.6288166,12.7405817 90.4309652,12.5429649 90.27508,12.3034257 C90.1191948,12.0638866 90.0412533,11.7584788 90.0412533,11.3871931 C90.0412533,11.0638152 90.1371813,10.7554132 90.32904,10.4619777 C90.5208987,10.1685423 90.7607186,9.92002412 91.0485067,9.71641584 L91.0485067,9.64455446 C90.7367362,9.42896922 90.4579457,9.12056719 90.2121267,8.71933911 C89.9663077,8.31811103 89.8434,7.85401089 89.8434,7.32702475 C89.8434,6.78806166 89.9453234,6.31797313 90.1491733,5.91674505 C90.3530232,5.51551697 90.6258183,5.18016719 90.9675667,4.91068564 C91.309315,4.6412041 91.70202,4.44059307 92.1456933,4.30884653 C92.5893667,4.1771 93.0510198,4.11122772 93.5306667,4.11122772 C94.0582782,4.11122772 94.5199314,4.18308839 94.91564,4.32681188 L98.1712267,4.32681188 L98.1712267,6.24910396 L96.75028,6.24910396 C96.8342182,6.38085049 96.9031664,6.54852538 96.9571267,6.75213366 C97.0110869,6.95574194 97.0380667,7.17731233 97.0380667,7.41685149 C97.0380667,7.93186066 96.9481342,8.37799564 96.7682667,8.7552698 C96.5883991,9.13254397 96.339586,9.44394019 96.02182,9.68946782 C95.704054,9.93499545 95.3323332,10.1176413 94.9066467,10.2374109 C94.4809601,10.3571805 94.0223047,10.4170644 93.5306667,10.4170644 C93.1829227,10.4170644 92.823193,10.3571805 92.4514667,10.2374109 C92.331555,10.3332266 92.247618,10.4290408 92.1996533,10.5248564 C92.1516886,10.6206721 92.1277067,10.7464283 92.1277067,10.9021287 C92.1277067,11.1296909 92.2266323,11.2973658 92.4244867,11.4051584 C92.622341,11.512951 92.9730775,11.5668465 93.4767067,11.5668465 L94.91564,11.5668465 C96.0188277,11.5668465 96.8611949,11.743504 97.4427667,12.0968243 C98.0243385,12.4501445 98.31512,13.028024 98.31512,13.8304802 C98.31512,14.2975815 98.1982078,14.7257514 97.96438,15.1150025 C97.7305522,15.5042536 97.3978022,15.8396034 96.96612,16.1210619 C96.5344378,16.4025204 96.0128297,16.6240908 95.40128,16.7857797 C94.7897303,16.9474686 94.1002483,17.0283119 93.3328133,17.0283119 C92.8052018,17.0283119 92.3165689,16.983399 91.8669,16.8935718 C91.4172311,16.8037446 91.0215284,16.6690058 90.67978,16.4893515 C90.3380316,16.3096971 90.0712321,16.07615 89.8793733,15.788703 C89.6875146,15.501256 89.5915867,15.1599178 89.5915867,14.7646782 Z M93.5306667,8.81814851 C93.8784106,8.81814851 94.1691922,8.69538654 94.40302,8.44985891 C94.6368478,8.20433128 94.75376,7.83005697 94.75376,7.32702475 C94.75376,6.85992341 94.6368478,6.50361426 94.40302,6.25808663 C94.1691922,6.012559 93.8784106,5.88979703 93.5306667,5.88979703 C93.1829227,5.88979703 92.8921412,6.00956481 92.6583133,6.24910396 C92.4244855,6.48864311 92.3075733,6.84794645 92.3075733,7.32702475 C92.3075733,7.83005697 92.4244855,8.20433128 92.6583133,8.44985891 C92.8921412,8.69538654 93.1829227,8.81814851 93.5306667,8.81814851 Z M98.90868,8.78221782 C98.90868,8.06360037 99.0285899,7.41386017 99.2684133,6.83297772 C99.5082368,6.25209528 99.8230003,5.76104739 100.212713,5.35981931 C100.602426,4.95859123 101.049091,4.6501892 101.55272,4.43460396 C102.056349,4.21901872 102.577957,4.11122772 103.11756,4.11122772 C103.753092,4.11122772 104.307675,4.21901872 104.781327,4.43460396 C105.254978,4.6501892 105.650681,4.94960864 105.968447,5.33287129 C106.286213,5.71613393 106.523035,6.1682573 106.67892,6.68925495 C106.834805,7.2102526 106.912747,7.77615536 106.912747,8.3869802 C106.912747,8.62651935 106.900756,8.84509555 106.876773,9.04271535 C106.852791,9.24033515 106.828809,9.39303906 106.804827,9.50083168 L101.462787,9.50083168 C101.582698,10.1835183 101.849498,10.6775604 102.263193,10.9829728 C102.676889,11.2883852 103.183508,11.4410891 103.783067,11.4410891 C104.418599,11.4410891 105.060117,11.2434723 105.70764,10.8482327 L106.588987,12.4471485 C106.133322,12.7585494 105.626703,13.0040734 105.069113,13.1837277 C104.511524,13.3633821 103.962936,13.4532079 103.423333,13.4532079 C102.787801,13.4532079 102.194247,13.3484111 101.642653,13.1388144 C101.091059,12.9292176 100.61142,12.6238098 100.20372,12.2225817 C99.7960202,11.8213536 99.4782589,11.3332999 99.2504267,10.7584059 C99.0225944,10.183512 98.90868,9.52478919 98.90868,8.78221782 Z M104.664413,7.86598515 C104.664413,7.35097597 104.550499,6.93178875 104.322667,6.60841089 C104.094834,6.28503304 103.711123,6.12334653 103.17152,6.12334653 C102.751829,6.12334653 102.383106,6.26407368 102.06534,6.54553218 C101.747574,6.82699068 101.540729,7.26713727 101.4448,7.86598515 L104.664413,7.86598515 Z M108.747387,4.32681188 L110.905787,4.32681188 L111.085653,5.88979703 L111.1576,5.88979703 C111.481362,5.27897219 111.871069,4.82984302 112.326733,4.54239604 C112.782398,4.25494906 113.238055,4.11122772 113.69372,4.11122772 C113.945535,4.11122772 114.152379,4.1261987 114.31426,4.15614109 C114.476141,4.18608348 114.62303,4.2309964 114.754933,4.29088119 L114.323253,6.5724802 C114.155377,6.52457237 113.999494,6.48864203 113.8556,6.46468812 C113.711706,6.4407342 113.543832,6.42875743 113.351973,6.42875743 C113.016221,6.42875743 112.665484,6.5485252 112.299753,6.78806436 C111.934023,7.02760351 111.63125,7.45277912 111.391427,8.06360396 L111.391427,13.2376238 L108.747387,13.2376238 L108.747387,4.32681188 Z" id="Sales-Manager" fill="#79797B"></path>
            </g>
            <rect id="Rectangle" fill="#79797B" x="17" y="537.222772" width="181.496689" height="178.27681"></rect>
            <rect id="Rectangle" stroke="#D7D9D9" transform="translate(107.748344, 792.606749) scale(1, -1) translate(-107.748344, -792.606749) " x="17.5" y="715.485149" width="180.496689" height="154.2432"></rect>
            <path d="M81.7531853,652.512002 C76.6399674,616.851012 84.3144569,598.839573 104.776654,598.477685 C135.469949,597.934854 130.325047,645.210923 129.192057,652.512002" id="Path-5" stroke="#FFFFFF"></path>
            <path d="M67.0542163,673.841184 C67.0542163,661.310831 75.0810293,655.634728 82.8333012,652.057098 C88.0014826,649.672011 91.3762605,649.066836 92.9576351,650.241571 C93.5165689,653.952606 94.1914149,656.556616 94.9821731,658.0536 C97.0210145,661.913332 99.9347604,663.859883 103.723411,663.893254 C112.712572,663.97243 117.141458,655.779204 117.141458,648.296987 C117.149075,647.942274 120.212653,648.590469 126.332192,650.241571 C139.16266,660.406996 145.549602,668.084335 145.493021,673.27359" id="Path-6" stroke="#FFFFFF"></path>
            <path d="M98.1784481,616.300728 C102.461799,621.741765 106.79602,625.572344 111.181109,627.792465 C117.758743,631.122645 119.987468,635.992817 119.50353,640.04905 C119.019593,644.105283 109.20129,657.892357 105.61297,658.065755 C102.02465,658.239152 88.9069217,648.030082 89.6544543,640.2462 C90.1528094,635.056946 92.9941407,627.075122 98.1784481,616.300728 Z" id="Path-7" stroke="#FFFFFF"></path>
            <ellipse id="Oval-2" stroke="#FFFFFF" cx="107.888033" cy="629.832759" rx="58.7013659" ry="58.570383"></ellipse>
            <path d="M85.6301987,758.465707 L129.663825,758.465707" id="Line" stroke="#4990E2" stroke-width="4" stroke-linecap="square"></path>
            <path d="M87.148,743.097134 C87.2729606,743.325957 87.4187458,743.495838 87.58536,743.606782 C87.7519742,743.717727 87.9220569,743.773198 88.0956133,743.773198 C88.3733036,743.773198 88.5833037,743.688257 88.72562,743.518374 C88.8679363,743.34849 88.9390933,743.038197 88.9390933,742.587485 L88.9390933,738.187866 L90.4698533,738.187866 L90.4698533,742.712297 C90.4698533,743.038196 90.4264649,743.346756 90.3396867,743.637985 C90.2529085,743.929214 90.1210076,744.182303 89.94398,744.397257 C89.7669524,744.612212 89.5413325,744.782093 89.2671133,744.906906 C88.9928942,745.031718 88.6683485,745.094124 88.2934667,745.094124 C87.7727974,745.094124 87.3371773,744.993582 86.9865933,744.792495 C86.6360094,744.591408 86.3427034,744.282849 86.1066667,743.866807 L87.148,743.097134 Z M91.61532,742.389866 C91.61532,741.959957 91.6847415,741.576857 91.8235867,741.240557 C91.9624318,740.904257 92.1481344,740.621699 92.3807,740.392876 C92.6132656,740.164053 92.882274,739.988972 93.1877333,739.867626 C93.4931926,739.746281 93.8090606,739.685609 94.1353467,739.685609 C94.4616327,739.685609 94.7757652,739.746281 95.0777533,739.867626 C95.3797415,739.988972 95.6470144,740.164053 95.87958,740.392876 C96.1121456,740.621699 96.2978482,740.904257 96.4366933,741.240557 C96.5755385,741.576857 96.64496,741.959957 96.64496,742.389866 C96.64496,742.819776 96.5755385,743.202875 96.4366933,743.539176 C96.2978482,743.875476 96.1121456,744.158034 95.87958,744.386856 C95.6470144,744.615679 95.3797415,744.790761 95.0777533,744.912106 C94.7757652,745.033452 94.4616327,745.094124 94.1353467,745.094124 C93.8090606,745.094124 93.4931926,745.033452 93.1877333,744.912106 C92.882274,744.790761 92.6132656,744.615679 92.3807,744.386856 C92.1481344,744.158034 91.9624318,743.875476 91.8235867,743.539176 C91.6847415,743.202875 91.61532,742.819776 91.61532,742.389866 Z M93.1877333,742.389866 C93.1877333,742.840578 93.2658326,743.197675 93.4220333,743.461168 C93.5782341,743.724661 93.8160028,743.856406 94.1353467,743.856406 C94.4477482,743.856406 94.6837814,743.724661 94.8434533,743.461168 C95.0031252,743.197675 95.08296,742.840578 95.08296,742.389866 C95.08296,741.939155 95.0031252,741.582057 94.8434533,741.318564 C94.6837814,741.055071 94.4477482,740.923327 94.1353467,740.923327 C93.8160028,740.923327 93.5782341,741.055071 93.4220333,741.318564 C93.2658326,741.582057 93.1877333,741.939155 93.1877333,742.389866 Z M97.6967067,737.678218 L99.2274667,737.678218 L99.2274667,739.467188 L99.1545733,740.392876 C99.3489565,740.219526 99.5745765,740.058312 99.83144,739.90923 C100.088304,739.760149 100.393758,739.685609 100.747813,739.685609 C101.310136,739.685609 101.717988,739.869358 101.97138,740.236861 C102.224772,740.604365 102.351467,741.114008 102.351467,741.765807 L102.351467,744.969312 L100.820707,744.969312 L100.820707,741.963426 C100.820707,741.588988 100.770376,741.332433 100.669713,741.193752 C100.569051,741.055072 100.407646,740.985733 100.185493,740.985733 C99.9911101,740.985733 99.8244985,741.02907 99.6856533,741.115745 C99.5468082,741.20242 99.3940808,741.325498 99.2274667,741.48498 L99.2274667,744.969312 L97.6967067,744.969312 L97.6967067,737.678218 Z M103.64272,739.810421 L104.89232,739.810421 L104.996453,740.465683 L105.038107,740.465683 C105.260259,740.257662 105.503234,740.075647 105.76704,739.919631 C106.030846,739.763616 106.339772,739.685609 106.693827,739.685609 C107.256149,739.685609 107.664001,739.869358 107.917393,740.236861 C108.170786,740.604365 108.29748,741.114008 108.29748,741.765807 L108.29748,744.969312 L106.76672,744.969312 L106.76672,741.963426 C106.76672,741.588988 106.716389,741.332433 106.615727,741.193752 C106.515064,741.055072 106.353659,740.985733 106.131507,740.985733 C105.937123,740.985733 105.770512,741.02907 105.631667,741.115745 C105.492822,741.20242 105.340094,741.325498 105.17348,741.48498 L105.17348,744.969312 L103.64272,744.969312 L103.64272,739.810421 Z M111.89008,738.187866 L113.806133,738.187866 C114.326803,738.187866 114.795398,738.253739 115.211933,738.385485 C115.628469,738.517232 115.98599,738.720049 116.284507,738.993943 C116.583024,739.267837 116.812115,739.616267 116.971787,740.039243 C117.131459,740.462218 117.211293,740.964928 117.211293,741.547386 C117.211293,742.129844 117.131459,742.636021 116.971787,743.065931 C116.812115,743.49584 116.586495,743.851204 116.29492,744.132032 C116.003345,744.41286 115.654502,744.622612 115.24838,744.761292 C114.842258,744.899973 114.389282,744.969312 113.88944,744.969312 L111.89008,744.969312 L111.89008,738.187866 Z M113.712413,743.731594 C114.003988,743.731594 114.26779,743.693457 114.503827,743.617183 C114.739863,743.540909 114.941186,743.417832 115.1078,743.247948 C115.274414,743.078064 115.40458,742.854445 115.4983,742.577084 C115.59202,742.299723 115.63888,741.956494 115.63888,741.547386 C115.63888,741.145213 115.59202,740.807184 115.4983,740.53329 C115.40458,740.259395 115.274414,740.040977 115.1078,739.878027 C114.941186,739.715078 114.739863,739.598934 114.503827,739.529594 C114.26779,739.460254 114.003988,739.425584 113.712413,739.425584 L113.42084,739.425584 L113.42084,743.731594 L113.712413,743.731594 Z M118.0756,742.389866 C118.0756,741.959957 118.145022,741.576857 118.283867,741.240557 C118.422712,740.904257 118.608414,740.621699 118.84098,740.392876 C119.073546,740.164053 119.342554,739.988972 119.648013,739.867626 C119.953473,739.746281 120.269341,739.685609 120.595627,739.685609 C120.921913,739.685609 121.236045,739.746281 121.538033,739.867626 C121.840022,739.988972 122.107294,740.164053 122.33986,740.392876 C122.572426,740.621699 122.758128,740.904257 122.896973,741.240557 C123.035818,741.576857 123.10524,741.959957 123.10524,742.389866 C123.10524,742.819776 123.035818,743.202875 122.896973,743.539176 C122.758128,743.875476 122.572426,744.158034 122.33986,744.386856 C122.107294,744.615679 121.840022,744.790761 121.538033,744.912106 C121.236045,745.033452 120.921913,745.094124 120.595627,745.094124 C120.269341,745.094124 119.953473,745.033452 119.648013,744.912106 C119.342554,744.790761 119.073546,744.615679 118.84098,744.386856 C118.608414,744.158034 118.422712,743.875476 118.283867,743.539176 C118.145022,743.202875 118.0756,742.819776 118.0756,742.389866 Z M119.648013,742.389866 C119.648013,742.840578 119.726113,743.197675 119.882313,743.461168 C120.038514,743.724661 120.276283,743.856406 120.595627,743.856406 C120.908028,743.856406 121.144061,743.724661 121.303733,743.461168 C121.463405,743.197675 121.54324,742.840578 121.54324,742.389866 C121.54324,741.939155 121.463405,741.582057 121.303733,741.318564 C121.144061,741.055071 120.908028,740.923327 120.595627,740.923327 C120.276283,740.923327 120.038514,741.055071 119.882313,741.318564 C119.726113,741.582057 119.648013,741.939155 119.648013,742.389866 Z M123.855,742.389866 C123.855,741.973825 123.924422,741.597659 124.063267,741.261359 C124.202112,740.925059 124.384343,740.640768 124.609967,740.408478 C124.83559,740.176188 125.094185,739.997639 125.38576,739.872827 C125.677335,739.748014 125.979318,739.685609 126.29172,739.685609 C126.65966,739.685609 126.980734,739.748014 127.254953,739.872827 C127.529172,739.997639 127.758264,740.170987 127.942233,740.392876 C128.126203,740.614765 128.263311,740.876521 128.35356,741.178151 C128.443809,741.479781 128.488933,741.807409 128.488933,742.161045 C128.488933,742.299725 128.481991,742.426269 128.468107,742.540681 C128.454222,742.655092 128.440338,742.7435 128.426453,742.805906 L125.333693,742.805906 C125.403116,743.201146 125.557579,743.48717 125.797087,743.663988 C126.036595,743.840805 126.3299,743.929213 126.677013,743.929213 C127.044953,743.929213 127.416358,743.814803 127.79124,743.58598 L128.301493,744.511668 C128.037688,744.691953 127.744382,744.834098 127.421567,744.938109 C127.098752,745.042119 126.781148,745.094124 126.468747,745.094124 C126.100807,745.094124 125.75717,745.033452 125.437827,744.912106 C125.118483,744.790761 124.840797,744.613946 124.60476,744.381656 C124.368723,744.149366 124.184756,743.866809 124.052853,743.533975 C123.92095,743.201142 123.855,742.819776 123.855,742.389866 Z M127.187267,741.859416 C127.187267,741.561253 127.121316,741.318565 126.989413,741.131347 C126.85751,740.944128 126.635362,740.85052 126.32296,740.85052 C126.079981,740.85052 125.86651,740.931993 125.68254,741.094943 C125.49857,741.257893 125.378818,741.512714 125.32328,741.859416 L127.187267,741.859416 Z" id="John-Doe" fill="#79797B"></path>
            <path d="M37.3533333,783.537129 L174.633057,783.537129" id="Line" stroke="#979797" stroke-width="5" stroke-linecap="square"></path>
            <path d="M37.3533333,797.720297 L174.633057,797.720297" id="Line" stroke="#979797" stroke-width="5" stroke-linecap="square"></path>
            <path d="M74.2733333,810.012376 L136.782014,810.012376" id="Line" stroke="#979797" stroke-width="5" stroke-linecap="square"></path>
            <path d="M78.06,835.069307 L134.867888,835.069307" id="Line" stroke="#D7D9D9" stroke-width="4" stroke-linecap="square"></path>
            <path d="M78.06,847.361386 L134.867888,847.361386" id="Line" stroke="#4990E2" stroke-width="4" stroke-linecap="square"></path>
            <rect id="Rectangle" fill="#79797B" x="403.24" y="537.222772" width="181.496689" height="178.27681"></rect>
            <rect id="Rectangle" stroke="#D7D9D9" transform="translate(493.988344, 792.606749) scale(1, -1) translate(-493.988344, -792.606749) " x="403.74" y="715.485149" width="180.496689" height="154.2432"></rect>
            <path d="M467.993185,652.512002 C462.879967,616.851012 470.554457,598.839573 491.016654,598.477685 C521.709949,597.934854 516.565047,645.210923 515.432057,652.512002" id="Path-5" stroke="#FFFFFF"></path>
            <path d="M453.294216,673.841184 C453.294216,661.310831 461.321029,655.634728 469.073301,652.057098 C474.241483,649.672011 477.616261,649.066836 479.197635,650.241571 C479.756569,653.952606 480.431415,656.556616 481.222173,658.0536 C483.261014,661.913332 486.17476,663.859883 489.963411,663.893254 C498.952572,663.97243 503.381458,655.779204 503.381458,648.296987 C503.389075,647.942274 506.452653,648.590469 512.572192,650.241571 C525.40266,660.406996 531.789602,668.084335 531.733021,673.27359" id="Path-6" stroke="#FFFFFF"></path>
            <path d="M484.418448,616.300728 C488.701799,621.741765 493.03602,625.572344 497.421109,627.792465 C503.998743,631.122645 506.227468,635.992817 505.74353,640.04905 C505.259593,644.105283 495.44129,657.892357 491.85297,658.065755 C488.26465,658.239152 475.146922,648.030082 475.894454,640.2462 C476.392809,635.056946 479.234141,627.075122 484.418448,616.300728 Z" id="Path-7" stroke="#FFFFFF"></path>
            <ellipse id="Oval-2" stroke="#FFFFFF" cx="494.128033" cy="629.832759" rx="58.7013659" ry="58.570383"></ellipse>
            <path d="M471.870199,758.465707 L515.903825,758.465707" id="Line" stroke="#4990E2" stroke-width="4" stroke-linecap="square"></path>
            <path d="M473.388,743.097134 C473.512961,743.325957 473.658746,743.495838 473.82536,743.606782 C473.991974,743.717727 474.162057,743.773198 474.335613,743.773198 C474.613304,743.773198 474.823304,743.688257 474.96562,743.518374 C475.107936,743.34849 475.179093,743.038197 475.179093,742.587485 L475.179093,738.187866 L476.709853,738.187866 L476.709853,742.712297 C476.709853,743.038196 476.666465,743.346756 476.579687,743.637985 C476.492908,743.929214 476.361008,744.182303 476.18398,744.397257 C476.006952,744.612212 475.781332,744.782093 475.507113,744.906906 C475.232894,745.031718 474.908349,745.094124 474.533467,745.094124 C474.012797,745.094124 473.577177,744.993582 473.226593,744.792495 C472.876009,744.591408 472.582703,744.282849 472.346667,743.866807 L473.388,743.097134 Z M477.85532,742.389866 C477.85532,741.959957 477.924742,741.576857 478.063587,741.240557 C478.202432,740.904257 478.388134,740.621699 478.6207,740.392876 C478.853266,740.164053 479.122274,739.988972 479.427733,739.867626 C479.733193,739.746281 480.049061,739.685609 480.375347,739.685609 C480.701633,739.685609 481.015765,739.746281 481.317753,739.867626 C481.619742,739.988972 481.887014,740.164053 482.11958,740.392876 C482.352146,740.621699 482.537848,740.904257 482.676693,741.240557 C482.815538,741.576857 482.88496,741.959957 482.88496,742.389866 C482.88496,742.819776 482.815538,743.202875 482.676693,743.539176 C482.537848,743.875476 482.352146,744.158034 482.11958,744.386856 C481.887014,744.615679 481.619742,744.790761 481.317753,744.912106 C481.015765,745.033452 480.701633,745.094124 480.375347,745.094124 C480.049061,745.094124 479.733193,745.033452 479.427733,744.912106 C479.122274,744.790761 478.853266,744.615679 478.6207,744.386856 C478.388134,744.158034 478.202432,743.875476 478.063587,743.539176 C477.924742,743.202875 477.85532,742.819776 477.85532,742.389866 Z M479.427733,742.389866 C479.427733,742.840578 479.505833,743.197675 479.662033,743.461168 C479.818234,743.724661 480.056003,743.856406 480.375347,743.856406 C480.687748,743.856406 480.923781,743.724661 481.083453,743.461168 C481.243125,743.197675 481.32296,742.840578 481.32296,742.389866 C481.32296,741.939155 481.243125,741.582057 481.083453,741.318564 C480.923781,741.055071 480.687748,740.923327 480.375347,740.923327 C480.056003,740.923327 479.818234,741.055071 479.662033,741.318564 C479.505833,741.582057 479.427733,741.939155 479.427733,742.389866 Z M483.936707,737.678218 L485.467467,737.678218 L485.467467,739.467188 L485.394573,740.392876 C485.588957,740.219526 485.814576,740.058312 486.07144,739.90923 C486.328304,739.760149 486.633758,739.685609 486.987813,739.685609 C487.550136,739.685609 487.957988,739.869358 488.21138,740.236861 C488.464772,740.604365 488.591467,741.114008 488.591467,741.765807 L488.591467,744.969312 L487.060707,744.969312 L487.060707,741.963426 C487.060707,741.588988 487.010376,741.332433 486.909713,741.193752 C486.809051,741.055072 486.647646,740.985733 486.425493,740.985733 C486.23111,740.985733 486.064498,741.02907 485.925653,741.115745 C485.786808,741.20242 485.634081,741.325498 485.467467,741.48498 L485.467467,744.969312 L483.936707,744.969312 L483.936707,737.678218 Z M489.88272,739.810421 L491.13232,739.810421 L491.236453,740.465683 L491.278107,740.465683 C491.500259,740.257662 491.743234,740.075647 492.00704,739.919631 C492.270846,739.763616 492.579772,739.685609 492.933827,739.685609 C493.496149,739.685609 493.904001,739.869358 494.157393,740.236861 C494.410786,740.604365 494.53748,741.114008 494.53748,741.765807 L494.53748,744.969312 L493.00672,744.969312 L493.00672,741.963426 C493.00672,741.588988 492.956389,741.332433 492.855727,741.193752 C492.755064,741.055072 492.593659,740.985733 492.371507,740.985733 C492.177123,740.985733 492.010512,741.02907 491.871667,741.115745 C491.732822,741.20242 491.580094,741.325498 491.41348,741.48498 L491.41348,744.969312 L489.88272,744.969312 L489.88272,739.810421 Z M498.13008,738.187866 L500.046133,738.187866 C500.566803,738.187866 501.035398,738.253739 501.451933,738.385485 C501.868469,738.517232 502.22599,738.720049 502.524507,738.993943 C502.823024,739.267837 503.052115,739.616267 503.211787,740.039243 C503.371459,740.462218 503.451293,740.964928 503.451293,741.547386 C503.451293,742.129844 503.371459,742.636021 503.211787,743.065931 C503.052115,743.49584 502.826495,743.851204 502.53492,744.132032 C502.243345,744.41286 501.894502,744.622612 501.48838,744.761292 C501.082258,744.899973 500.629282,744.969312 500.12944,744.969312 L498.13008,744.969312 L498.13008,738.187866 Z M499.952413,743.731594 C500.243988,743.731594 500.50779,743.693457 500.743827,743.617183 C500.979863,743.540909 501.181186,743.417832 501.3478,743.247948 C501.514414,743.078064 501.64458,742.854445 501.7383,742.577084 C501.83202,742.299723 501.87888,741.956494 501.87888,741.547386 C501.87888,741.145213 501.83202,740.807184 501.7383,740.53329 C501.64458,740.259395 501.514414,740.040977 501.3478,739.878027 C501.181186,739.715078 500.979863,739.598934 500.743827,739.529594 C500.50779,739.460254 500.243988,739.425584 499.952413,739.425584 L499.66084,739.425584 L499.66084,743.731594 L499.952413,743.731594 Z M504.3156,742.389866 C504.3156,741.959957 504.385022,741.576857 504.523867,741.240557 C504.662712,740.904257 504.848414,740.621699 505.08098,740.392876 C505.313546,740.164053 505.582554,739.988972 505.888013,739.867626 C506.193473,739.746281 506.509341,739.685609 506.835627,739.685609 C507.161913,739.685609 507.476045,739.746281 507.778033,739.867626 C508.080022,739.988972 508.347294,740.164053 508.57986,740.392876 C508.812426,740.621699 508.998128,740.904257 509.136973,741.240557 C509.275818,741.576857 509.34524,741.959957 509.34524,742.389866 C509.34524,742.819776 509.275818,743.202875 509.136973,743.539176 C508.998128,743.875476 508.812426,744.158034 508.57986,744.386856 C508.347294,744.615679 508.080022,744.790761 507.778033,744.912106 C507.476045,745.033452 507.161913,745.094124 506.835627,745.094124 C506.509341,745.094124 506.193473,745.033452 505.888013,744.912106 C505.582554,744.790761 505.313546,744.615679 505.08098,744.386856 C504.848414,744.158034 504.662712,743.875476 504.523867,743.539176 C504.385022,743.202875 504.3156,742.819776 504.3156,742.389866 Z M505.888013,742.389866 C505.888013,742.840578 505.966113,743.197675 506.122313,743.461168 C506.278514,743.724661 506.516283,743.856406 506.835627,743.856406 C507.148028,743.856406 507.384061,743.724661 507.543733,743.461168 C507.703405,743.197675 507.78324,742.840578 507.78324,742.389866 C507.78324,741.939155 507.703405,741.582057 507.543733,741.318564 C507.384061,741.055071 507.148028,740.923327 506.835627,740.923327 C506.516283,740.923327 506.278514,741.055071 506.122313,741.318564 C505.966113,741.582057 505.888013,741.939155 505.888013,742.389866 Z M510.095,742.389866 C510.095,741.973825 510.164422,741.597659 510.303267,741.261359 C510.442112,740.925059 510.624343,740.640768 510.849967,740.408478 C511.07559,740.176188 511.334185,739.997639 511.62576,739.872827 C511.917335,739.748014 512.219318,739.685609 512.53172,739.685609 C512.89966,739.685609 513.220734,739.748014 513.494953,739.872827 C513.769172,739.997639 513.998264,740.170987 514.182233,740.392876 C514.366203,740.614765 514.503311,740.876521 514.59356,741.178151 C514.683809,741.479781 514.728933,741.807409 514.728933,742.161045 C514.728933,742.299725 514.721991,742.426269 514.708107,742.540681 C514.694222,742.655092 514.680338,742.7435 514.666453,742.805906 L511.573693,742.805906 C511.643116,743.201146 511.797579,743.48717 512.037087,743.663988 C512.276595,743.840805 512.5699,743.929213 512.917013,743.929213 C513.284953,743.929213 513.656358,743.814803 514.03124,743.58598 L514.541493,744.511668 C514.277688,744.691953 513.984382,744.834098 513.661567,744.938109 C513.338752,745.042119 513.021148,745.094124 512.708747,745.094124 C512.340807,745.094124 511.99717,745.033452 511.677827,744.912106 C511.358483,744.790761 511.080797,744.613946 510.84476,744.381656 C510.608723,744.149366 510.424756,743.866809 510.292853,743.533975 C510.16095,743.201142 510.095,742.819776 510.095,742.389866 Z M513.427267,741.859416 C513.427267,741.561253 513.361316,741.318565 513.229413,741.131347 C513.09751,740.944128 512.875362,740.85052 512.56296,740.85052 C512.319981,740.85052 512.10651,740.931993 511.92254,741.094943 C511.73857,741.257893 511.618818,741.512714 511.56328,741.859416 L513.427267,741.859416 Z" id="John-Doe" fill="#79797B"></path>
            <path d="M423.593333,783.537129 L560.873057,783.537129" id="Line" stroke="#979797" stroke-width="5" stroke-linecap="square"></path>
            <path d="M423.593333,797.720297 L560.873057,797.720297" id="Line" stroke="#979797" stroke-width="5" stroke-linecap="square"></path>
            <path d="M460.513333,810.012376 L523.022014,810.012376" id="Line" stroke="#979797" stroke-width="5" stroke-linecap="square"></path>
            <path d="M464.3,835.069307 L521.107888,835.069307" id="Line" stroke="#D7D9D9" stroke-width="4" stroke-linecap="square"></path>
            <path d="M464.3,847.361386 L521.107888,847.361386" id="Line" stroke="#4990E2" stroke-width="4" stroke-linecap="square"></path>
            <rect id="Rectangle" fill="#79797B" x="210.12" y="537.222772" width="181.496689" height="178.27681"></rect>
            <rect id="Rectangle" stroke="#D7D9D9" transform="translate(300.868344, 792.606749) scale(1, -1) translate(-300.868344, -792.606749) " x="210.62" y="715.485149" width="180.496689" height="154.2432"></rect>
            <path d="M274.873185,652.512002 C269.759967,616.851012 277.434457,598.839573 297.896654,598.477685 C328.589949,597.934854 323.445047,645.210923 322.312057,652.512002" id="Path-5" stroke="#FFFFFF"></path>
            <path d="M260.174216,673.841184 C260.174216,661.310831 268.201029,655.634728 275.953301,652.057098 C281.121483,649.672011 284.496261,649.066836 286.077635,650.241571 C286.636569,653.952606 287.311415,656.556616 288.102173,658.0536 C290.141014,661.913332 293.05476,663.859883 296.843411,663.893254 C305.832572,663.97243 310.261458,655.779204 310.261458,648.296987 C310.269075,647.942274 313.332653,648.590469 319.452192,650.241571 C332.28266,660.406996 338.669602,668.084335 338.613021,673.27359" id="Path-6" stroke="#FFFFFF"></path>
            <path d="M291.298448,616.300728 C295.581799,621.741765 299.91602,625.572344 304.301109,627.792465 C310.878743,631.122645 313.107468,635.992817 312.62353,640.04905 C312.139593,644.105283 302.32129,657.892357 298.73297,658.065755 C295.14465,658.239152 282.026922,648.030082 282.774454,640.2462 C283.272809,635.056946 286.114141,627.075122 291.298448,616.300728 Z" id="Path-7" stroke="#FFFFFF"></path>
            <ellipse id="Oval-2" stroke="#FFFFFF" cx="301.008033" cy="629.832759" rx="58.7013659" ry="58.570383"></ellipse>
            <path d="M278.750199,758.465707 L322.783825,758.465707" id="Line" stroke="#4990E2" stroke-width="4" stroke-linecap="square"></path>
            <path d="M280.268,743.097134 C280.392961,743.325957 280.538746,743.495838 280.70536,743.606782 C280.871974,743.717727 281.042057,743.773198 281.215613,743.773198 C281.493304,743.773198 281.703304,743.688257 281.84562,743.518374 C281.987936,743.34849 282.059093,743.038197 282.059093,742.587485 L282.059093,738.187866 L283.589853,738.187866 L283.589853,742.712297 C283.589853,743.038196 283.546465,743.346756 283.459687,743.637985 C283.372908,743.929214 283.241008,744.182303 283.06398,744.397257 C282.886952,744.612212 282.661332,744.782093 282.387113,744.906906 C282.112894,745.031718 281.788349,745.094124 281.413467,745.094124 C280.892797,745.094124 280.457177,744.993582 280.106593,744.792495 C279.756009,744.591408 279.462703,744.282849 279.226667,743.866807 L280.268,743.097134 Z M284.73532,742.389866 C284.73532,741.959957 284.804742,741.576857 284.943587,741.240557 C285.082432,740.904257 285.268134,740.621699 285.5007,740.392876 C285.733266,740.164053 286.002274,739.988972 286.307733,739.867626 C286.613193,739.746281 286.929061,739.685609 287.255347,739.685609 C287.581633,739.685609 287.895765,739.746281 288.197753,739.867626 C288.499742,739.988972 288.767014,740.164053 288.99958,740.392876 C289.232146,740.621699 289.417848,740.904257 289.556693,741.240557 C289.695538,741.576857 289.76496,741.959957 289.76496,742.389866 C289.76496,742.819776 289.695538,743.202875 289.556693,743.539176 C289.417848,743.875476 289.232146,744.158034 288.99958,744.386856 C288.767014,744.615679 288.499742,744.790761 288.197753,744.912106 C287.895765,745.033452 287.581633,745.094124 287.255347,745.094124 C286.929061,745.094124 286.613193,745.033452 286.307733,744.912106 C286.002274,744.790761 285.733266,744.615679 285.5007,744.386856 C285.268134,744.158034 285.082432,743.875476 284.943587,743.539176 C284.804742,743.202875 284.73532,742.819776 284.73532,742.389866 Z M286.307733,742.389866 C286.307733,742.840578 286.385833,743.197675 286.542033,743.461168 C286.698234,743.724661 286.936003,743.856406 287.255347,743.856406 C287.567748,743.856406 287.803781,743.724661 287.963453,743.461168 C288.123125,743.197675 288.20296,742.840578 288.20296,742.389866 C288.20296,741.939155 288.123125,741.582057 287.963453,741.318564 C287.803781,741.055071 287.567748,740.923327 287.255347,740.923327 C286.936003,740.923327 286.698234,741.055071 286.542033,741.318564 C286.385833,741.582057 286.307733,741.939155 286.307733,742.389866 Z M290.816707,737.678218 L292.347467,737.678218 L292.347467,739.467188 L292.274573,740.392876 C292.468957,740.219526 292.694576,740.058312 292.95144,739.90923 C293.208304,739.760149 293.513758,739.685609 293.867813,739.685609 C294.430136,739.685609 294.837988,739.869358 295.09138,740.236861 C295.344772,740.604365 295.471467,741.114008 295.471467,741.765807 L295.471467,744.969312 L293.940707,744.969312 L293.940707,741.963426 C293.940707,741.588988 293.890376,741.332433 293.789713,741.193752 C293.689051,741.055072 293.527646,740.985733 293.305493,740.985733 C293.11111,740.985733 292.944498,741.02907 292.805653,741.115745 C292.666808,741.20242 292.514081,741.325498 292.347467,741.48498 L292.347467,744.969312 L290.816707,744.969312 L290.816707,737.678218 Z M296.76272,739.810421 L298.01232,739.810421 L298.116453,740.465683 L298.158107,740.465683 C298.380259,740.257662 298.623234,740.075647 298.88704,739.919631 C299.150846,739.763616 299.459772,739.685609 299.813827,739.685609 C300.376149,739.685609 300.784001,739.869358 301.037393,740.236861 C301.290786,740.604365 301.41748,741.114008 301.41748,741.765807 L301.41748,744.969312 L299.88672,744.969312 L299.88672,741.963426 C299.88672,741.588988 299.836389,741.332433 299.735727,741.193752 C299.635064,741.055072 299.473659,740.985733 299.251507,740.985733 C299.057123,740.985733 298.890512,741.02907 298.751667,741.115745 C298.612822,741.20242 298.460094,741.325498 298.29348,741.48498 L298.29348,744.969312 L296.76272,744.969312 L296.76272,739.810421 Z M305.01008,738.187866 L306.926133,738.187866 C307.446803,738.187866 307.915398,738.253739 308.331933,738.385485 C308.748469,738.517232 309.10599,738.720049 309.404507,738.993943 C309.703024,739.267837 309.932115,739.616267 310.091787,740.039243 C310.251459,740.462218 310.331293,740.964928 310.331293,741.547386 C310.331293,742.129844 310.251459,742.636021 310.091787,743.065931 C309.932115,743.49584 309.706495,743.851204 309.41492,744.132032 C309.123345,744.41286 308.774502,744.622612 308.36838,744.761292 C307.962258,744.899973 307.509282,744.969312 307.00944,744.969312 L305.01008,744.969312 L305.01008,738.187866 Z M306.832413,743.731594 C307.123988,743.731594 307.38779,743.693457 307.623827,743.617183 C307.859863,743.540909 308.061186,743.417832 308.2278,743.247948 C308.394414,743.078064 308.52458,742.854445 308.6183,742.577084 C308.71202,742.299723 308.75888,741.956494 308.75888,741.547386 C308.75888,741.145213 308.71202,740.807184 308.6183,740.53329 C308.52458,740.259395 308.394414,740.040977 308.2278,739.878027 C308.061186,739.715078 307.859863,739.598934 307.623827,739.529594 C307.38779,739.460254 307.123988,739.425584 306.832413,739.425584 L306.54084,739.425584 L306.54084,743.731594 L306.832413,743.731594 Z M311.1956,742.389866 C311.1956,741.959957 311.265022,741.576857 311.403867,741.240557 C311.542712,740.904257 311.728414,740.621699 311.96098,740.392876 C312.193546,740.164053 312.462554,739.988972 312.768013,739.867626 C313.073473,739.746281 313.389341,739.685609 313.715627,739.685609 C314.041913,739.685609 314.356045,739.746281 314.658033,739.867626 C314.960022,739.988972 315.227294,740.164053 315.45986,740.392876 C315.692426,740.621699 315.878128,740.904257 316.016973,741.240557 C316.155818,741.576857 316.22524,741.959957 316.22524,742.389866 C316.22524,742.819776 316.155818,743.202875 316.016973,743.539176 C315.878128,743.875476 315.692426,744.158034 315.45986,744.386856 C315.227294,744.615679 314.960022,744.790761 314.658033,744.912106 C314.356045,745.033452 314.041913,745.094124 313.715627,745.094124 C313.389341,745.094124 313.073473,745.033452 312.768013,744.912106 C312.462554,744.790761 312.193546,744.615679 311.96098,744.386856 C311.728414,744.158034 311.542712,743.875476 311.403867,743.539176 C311.265022,743.202875 311.1956,742.819776 311.1956,742.389866 Z M312.768013,742.389866 C312.768013,742.840578 312.846113,743.197675 313.002313,743.461168 C313.158514,743.724661 313.396283,743.856406 313.715627,743.856406 C314.028028,743.856406 314.264061,743.724661 314.423733,743.461168 C314.583405,743.197675 314.66324,742.840578 314.66324,742.389866 C314.66324,741.939155 314.583405,741.582057 314.423733,741.318564 C314.264061,741.055071 314.028028,740.923327 313.715627,740.923327 C313.396283,740.923327 313.158514,741.055071 313.002313,741.318564 C312.846113,741.582057 312.768013,741.939155 312.768013,742.389866 Z M316.975,742.389866 C316.975,741.973825 317.044422,741.597659 317.183267,741.261359 C317.322112,740.925059 317.504343,740.640768 317.729967,740.408478 C317.95559,740.176188 318.214185,739.997639 318.50576,739.872827 C318.797335,739.748014 319.099318,739.685609 319.41172,739.685609 C319.77966,739.685609 320.100734,739.748014 320.374953,739.872827 C320.649172,739.997639 320.878264,740.170987 321.062233,740.392876 C321.246203,740.614765 321.383311,740.876521 321.47356,741.178151 C321.563809,741.479781 321.608933,741.807409 321.608933,742.161045 C321.608933,742.299725 321.601991,742.426269 321.588107,742.540681 C321.574222,742.655092 321.560338,742.7435 321.546453,742.805906 L318.453693,742.805906 C318.523116,743.201146 318.677579,743.48717 318.917087,743.663988 C319.156595,743.840805 319.4499,743.929213 319.797013,743.929213 C320.164953,743.929213 320.536358,743.814803 320.91124,743.58598 L321.421493,744.511668 C321.157688,744.691953 320.864382,744.834098 320.541567,744.938109 C320.218752,745.042119 319.901148,745.094124 319.588747,745.094124 C319.220807,745.094124 318.87717,745.033452 318.557827,744.912106 C318.238483,744.790761 317.960797,744.613946 317.72476,744.381656 C317.488723,744.149366 317.304756,743.866809 317.172853,743.533975 C317.04095,743.201142 316.975,742.819776 316.975,742.389866 Z M320.307267,741.859416 C320.307267,741.561253 320.241316,741.318565 320.109413,741.131347 C319.97751,740.944128 319.755362,740.85052 319.44296,740.85052 C319.199981,740.85052 318.98651,740.931993 318.80254,741.094943 C318.61857,741.257893 318.498818,741.512714 318.44328,741.859416 L320.307267,741.859416 Z" id="John-Doe" fill="#79797B"></path>
            <path d="M230.473333,783.537129 L367.753057,783.537129" id="Line" stroke="#979797" stroke-width="5" stroke-linecap="square"></path>
            <path d="M230.473333,797.720297 L367.753057,797.720297" id="Line" stroke="#979797" stroke-width="5" stroke-linecap="square"></path>
            <path d="M267.393333,810.012376 L329.902014,810.012376" id="Line" stroke="#979797" stroke-width="5" stroke-linecap="square"></path>
            <path d="M271.18,835.069307 L327.987888,835.069307" id="Line" stroke="#D7D9D9" stroke-width="4" stroke-linecap="square"></path>
            <path d="M271.18,847.361386 L327.987888,847.361386" id="Line" stroke="#4990E2" stroke-width="4" stroke-linecap="square"></path>
            <path d="M19.463,499.087248 L23.7,499.087248 C24.3460032,499.087248 24.9444972,499.134747 25.4955,499.229748 C26.0465028,499.324748 26.5278313,499.49258 26.9395,499.733248 C27.3511687,499.973915 27.6741655,500.290579 27.9085,500.683248 C28.1428345,501.075916 28.26,501.569911 28.26,502.165248 C28.26,502.443916 28.2188337,502.722579 28.1365,503.001248 C28.0541663,503.279916 27.9306675,503.53958 27.766,503.780248 C27.6013325,504.020915 27.3860013,504.236247 27.12,504.426248 C26.8539987,504.616248 26.5436684,504.75558 26.189,504.844248 L26.189,504.920248 C27.0756711,505.084915 27.7438311,505.401579 28.1935,505.870248 C28.6431689,506.338917 28.868,506.991243 28.868,507.827248 C28.868,508.460584 28.7445012,509.005245 28.4975,509.461248 C28.2504988,509.91725 27.9085022,510.294079 27.4715,510.591748 C27.0344978,510.889416 26.5246696,511.11108 25.942,511.256748 C25.3593304,511.402415 24.7323367,511.475248 24.061,511.475248 L19.463,511.475248 L19.463,499.087248 Z M23.567,504.084248 C24.2510034,504.084248 24.7481651,503.948082 25.0585,503.675748 C25.3688349,503.403413 25.524,503.032917 25.524,502.564248 C25.524,502.095579 25.3656682,501.759915 25.049,501.557248 C24.7323318,501.35458 24.24467,501.253248 23.586,501.253248 L22.256,501.253248 L22.256,504.084248 L23.567,504.084248 Z M23.833,509.309248 C25.3656743,509.309248 26.132,508.745586 26.132,507.618248 C26.132,507.073578 25.9420019,506.677749 25.562,506.430748 C25.1819981,506.183746 24.6056705,506.060248 23.833,506.060248 L22.256,506.060248 L22.256,509.309248 L23.833,509.309248 Z M30.388,508.853248 C30.388,507.865243 30.8059958,507.092584 31.642,506.535248 C32.4780042,505.977911 33.8269907,505.604248 35.689,505.414248 C35.6636665,504.996245 35.5370011,504.663749 35.309,504.416748 C35.0809989,504.169746 34.7136692,504.046248 34.207,504.046248 C33.8016646,504.046248 33.3963354,504.122247 32.991,504.274248 C32.5856646,504.426248 32.1550023,504.635246 31.699,504.901248 L30.711,503.058248 C31.319003,502.690912 31.9554967,502.393249 32.6205,502.165248 C33.2855033,501.937246 33.9916629,501.823248 34.739,501.823248 C35.9550061,501.823248 36.8828301,502.168411 37.5225,502.858748 C38.1621699,503.549084 38.482,504.622574 38.482,506.079248 L38.482,511.475248 L36.202,511.475248 L35.993,510.506248 L35.936,510.506248 C35.5306646,510.860916 35.1031689,511.14908 34.6535,511.370748 C34.2038311,511.592415 33.7130027,511.703248 33.181,511.703248 C32.7503312,511.703248 32.3640017,511.630415 32.022,511.484748 C31.6799983,511.33908 31.3886679,511.136415 31.148,510.876748 C30.9073321,510.61708 30.7205007,510.316249 30.5875,509.974248 C30.4544993,509.632246 30.388,509.258583 30.388,508.853248 Z M33.048,508.644248 C33.048,508.948249 33.1461657,509.17308 33.3425,509.318748 C33.5388343,509.464415 33.801665,509.537248 34.131,509.537248 C34.460335,509.537248 34.7389989,509.467582 34.967,509.328248 C35.1950011,509.188913 35.4356654,508.992582 35.689,508.739248 L35.689,507.086248 C34.6883283,507.225582 33.9980019,507.428246 33.618,507.694248 C33.2379981,507.960249 33.048,508.276912 33.048,508.644248 Z M40.325,506.763248 C40.325,505.97791 40.4579987,505.278084 40.724,504.663748 C40.9900013,504.049411 41.3478311,503.53325 41.7975,503.115248 C42.2471689,502.697245 42.7696637,502.377415 43.365,502.155748 C43.9603363,501.93408 44.5809968,501.823248 45.227,501.823248 C45.8096696,501.823248 46.335331,501.921413 46.804,502.117748 C47.272669,502.314082 47.6653318,502.576913 47.982,502.906248 L46.709,504.635248 C46.2656644,504.267912 45.8286688,504.084248 45.398,504.084248 C44.7139966,504.084248 44.1756686,504.324912 43.783,504.806248 C43.3903314,505.287583 43.194,505.93991 43.194,506.763248 C43.194,507.586585 43.393498,508.238912 43.7925,508.720248 C44.191502,509.201583 44.694997,509.442248 45.303,509.442248 C45.6450017,509.442248 45.9553319,509.372582 46.234,509.233248 C46.5126681,509.093913 46.7659989,508.935582 46.994,508.758248 L48.115,510.525248 C47.6589977,510.930583 47.1523361,511.228247 46.595,511.418248 C46.0376639,511.608248 45.4993359,511.703248 44.98,511.703248 C44.32133,511.703248 43.7101695,511.592415 43.1465,511.370748 C42.5828305,511.14908 42.0920021,510.82925 41.674,510.411248 C41.2559979,509.993245 40.9266679,509.477084 40.686,508.862748 C40.4453321,508.248411 40.325,507.548585 40.325,506.763248 Z M49.749,498.156248 L52.466,498.156248 L52.466,505.794248 L52.542,505.794248 L55.525,502.051248 L58.565,502.051248 L55.259,505.927248 L58.812,511.475248 L55.791,511.475248 L53.663,507.808248 L52.466,509.157248 L52.466,511.475248 L49.749,511.475248 L49.749,498.156248 Z M59.078,506.763248 C59.078,505.97791 59.2046654,505.278084 59.458,504.663748 C59.7113346,504.049411 60.0501645,503.53325 60.4745,503.115248 C60.8988355,502.697245 61.3896639,502.377415 61.947,502.155748 C62.5043361,501.93408 63.0806637,501.823248 63.676,501.823248 C64.2713363,501.823248 64.8444972,501.93408 65.3955,502.155748 C65.9465028,502.377415 66.4341645,502.697245 66.8585,503.115248 C67.2828355,503.53325 67.6216654,504.049411 67.875,504.663748 C68.1283346,505.278084 68.255,505.97791 68.255,506.763248 C68.255,507.548585 68.1283346,508.248411 67.875,508.862748 C67.6216654,509.477084 67.2828355,509.993245 66.8585,510.411248 C66.4341645,510.82925 65.9465028,511.14908 65.3955,511.370748 C64.8444972,511.592415 64.2713363,511.703248 63.676,511.703248 C63.0806637,511.703248 62.5043361,511.592415 61.947,511.370748 C61.3896639,511.14908 60.8988355,510.82925 60.4745,510.411248 C60.0501645,509.993245 59.7113346,509.477084 59.458,508.862748 C59.2046654,508.248411 59.078,507.548585 59.078,506.763248 Z M61.947,506.763248 C61.947,507.586585 62.0894986,508.238912 62.3745,508.720248 C62.6595014,509.201583 63.0933304,509.442248 63.676,509.442248 C64.2460028,509.442248 64.6766652,509.201583 64.968,508.720248 C65.2593348,508.238912 65.405,507.586585 65.405,506.763248 C65.405,505.93991 65.2593348,505.287583 64.968,504.806248 C64.6766652,504.324912 64.2460028,504.084248 63.676,504.084248 C63.0933304,504.084248 62.6595014,504.324912 62.3745,504.806248 C62.0894986,505.287583 61.947,505.93991 61.947,506.763248 Z M81.403,500.322248 C81.0483316,500.19558 80.7253348,500.132248 80.434,500.132248 C80.0919983,500.132248 79.8260009,500.236746 79.636,500.445748 C79.4459991,500.654749 79.351,500.999912 79.351,501.481248 L79.351,502.051248 L81.042,502.051248 L81.042,504.236248 L79.351,504.236248 L79.351,511.475248 L76.558,511.475248 L76.558,504.236248 L73.347,504.236248 L73.347,511.475248 L70.554,511.475248 L70.554,504.236248 L69.3,504.236248 L69.3,502.165248 L70.554,502.070248 L70.554,501.633248 C70.554,501.151912 70.6204993,500.695916 70.7535,500.265248 C70.8865007,499.834579 71.0954986,499.460916 71.3805,499.144248 C71.6655014,498.827579 72.0328311,498.577415 72.4825,498.393748 C72.9321689,498.21008 73.4799968,498.118248 74.126,498.118248 C74.5313354,498.118248 74.9049983,498.153081 75.247,498.222748 C75.5890017,498.292415 75.8676656,498.37158 76.083,498.460248 L75.57,500.531248 C75.4179992,500.467914 75.2596675,500.417248 75.095,500.379248 C74.9303325,500.341247 74.7213346,500.322248 74.468,500.322248 C74.138665,500.322248 73.869501,500.426746 73.6605,500.635748 C73.451499,500.844749 73.347,501.170912 73.347,501.614248 L73.347,502.051248 L76.558,502.051248 L76.558,501.557248 C76.558,501.063245 76.6181661,500.594583 76.7385,500.151248 C76.8588339,499.707912 77.0583319,499.321583 77.337,498.992248 C77.6156681,498.662913 77.9734978,498.403248 78.4105,498.213248 C78.8475022,498.023247 79.3826635,497.928248 80.016,497.928248 C80.4213354,497.928248 80.7823318,497.966247 81.099,498.042248 C81.4156683,498.118248 81.6816656,498.194247 81.897,498.270248 L81.403,500.322248 Z M83.93,500.664248 C83.461331,500.664248 83.0750015,500.528082 82.771,500.255748 C82.4669985,499.983413 82.315,499.631916 82.315,499.201248 C82.315,498.770579 82.4669985,498.422249 82.771,498.156248 C83.0750015,497.890246 83.461331,497.757248 83.93,497.757248 C84.4113357,497.757248 84.8008318,497.890246 85.0985,498.156248 C85.3961682,498.422249 85.545,498.770579 85.545,499.201248 C85.545,499.631916 85.3961682,499.983413 85.0985,500.255748 C84.8008318,500.528082 84.4113357,500.664248 83.93,500.664248 Z M82.543,502.051248 L85.336,502.051248 L85.336,511.475248 L82.543,511.475248 L82.543,502.051248 Z M87.236,506.763248 C87.236,505.97791 87.3689987,505.278084 87.635,504.663748 C87.9010013,504.049411 88.2588311,503.53325 88.7085,503.115248 C89.1581689,502.697245 89.6806637,502.377415 90.276,502.155748 C90.8713363,501.93408 91.4919968,501.823248 92.138,501.823248 C92.7206696,501.823248 93.246331,501.921413 93.715,502.117748 C94.183669,502.314082 94.5763318,502.576913 94.893,502.906248 L93.62,504.635248 C93.1766644,504.267912 92.7396688,504.084248 92.309,504.084248 C91.6249966,504.084248 91.0866686,504.324912 90.694,504.806248 C90.3013314,505.287583 90.105,505.93991 90.105,506.763248 C90.105,507.586585 90.304498,508.238912 90.7035,508.720248 C91.102502,509.201583 91.605997,509.442248 92.214,509.442248 C92.5560017,509.442248 92.8663319,509.372582 93.145,509.233248 C93.4236681,509.093913 93.6769989,508.935582 93.905,508.758248 L95.026,510.525248 C94.5699977,510.930583 94.0633361,511.228247 93.506,511.418248 C92.9486639,511.608248 92.4103359,511.703248 91.891,511.703248 C91.23233,511.703248 90.6211695,511.592415 90.0575,511.370748 C89.4938305,511.14908 89.0030021,510.82925 88.585,510.411248 C88.1669979,509.993245 87.8376679,509.477084 87.597,508.862748 C87.3563321,508.248411 87.236,507.548585 87.236,506.763248 Z M95.577,506.763248 C95.577,506.003244 95.7036654,505.316084 95.957,504.701748 C96.2103346,504.087411 96.5428313,503.568083 96.9545,503.143748 C97.3661687,502.719412 97.8379973,502.393249 98.37,502.165248 C98.9020027,501.937246 99.4529971,501.823248 100.023,501.823248 C100.694337,501.823248 101.280164,501.937246 101.7805,502.165248 C102.280836,502.393249 102.698832,502.709912 103.0345,503.115248 C103.370168,503.520583 103.620333,503.998745 103.785,504.549748 C103.949667,505.10075 104.032,505.699244 104.032,506.345248 C104.032,506.598582 104.019333,506.829746 103.994,507.038748 C103.968667,507.247749 103.943333,507.409247 103.918,507.523248 L98.275,507.523248 C98.4016673,508.245251 98.6834978,508.767746 99.1205,509.090748 C99.5575022,509.413749 100.092663,509.575248 100.726,509.575248 C101.397337,509.575248 102.074997,509.36625 102.759,508.948248 L103.69,510.639248 C103.208664,510.968583 102.673503,511.228247 102.0845,511.418248 C101.495497,511.608248 100.916003,511.703248 100.346,511.703248 C99.6746633,511.703248 99.0476696,511.592415 98.465,511.370748 C97.8823304,511.14908 97.3756688,510.826083 96.945,510.401748 C96.5143312,509.977412 96.1786679,509.461251 95.938,508.853248 C95.6973321,508.245244 95.577,507.548585 95.577,506.763248 Z M101.657,505.794248 C101.657,505.249578 101.536668,504.806249 101.296,504.464248 C101.055332,504.122246 100.650003,503.951248 100.08,503.951248 C99.6366644,503.951248 99.2471683,504.100079 98.9115,504.397748 C98.5758317,504.695416 98.3573338,505.160911 98.256,505.794248 L101.657,505.794248 Z" id="Backoffice" fill="#79797B"></path>
        </g>
    </g>
</svg>