<?xml version="1.0" encoding="UTF-8"?>
<svg width="600px" height="373px" viewBox="0 0 600 373" version="1.1" xmlns="http://www.w3.org/2000/svg" xmlns:xlink="http://www.w3.org/1999/xlink">
    <!-- Generator: Sketch 44.1 (41455) - http://www.bohemiancoding.com/sketch -->
    <title>testimonial05</title>
    <desc>Created with Sketch.</desc>
    <defs></defs>
    <g id="Testimonials" stroke="none" stroke-width="1" fill="none" fill-rule="evenodd">
        <g id="05">
            <g>
                <rect id="Rectangle-5" fill="#545454" x="0" y="0" width="600" height="373"></rect>
                <path d="M227,76.168 L229.114,76.168 L229.744,80.438 C229.8,80.9140024 229.860666,81.3923309 229.926,81.873 C229.991334,82.3536691 230.052,82.8366642 230.108,83.322 L230.164,83.322 C230.257334,82.8366642 230.348333,82.3536691 230.437,81.873 C230.525667,81.3923309 230.616666,80.9140024 230.71,80.438 L231.69,76.168 L233.44,76.168 L234.42,80.438 C234.513334,80.904669 234.604333,81.3783309 234.693,81.859 C234.781667,82.3396691 234.872666,82.8273309 234.966,83.322 L235.022,83.322 C235.087334,82.8273309 235.150333,82.3420024 235.211,81.866 C235.271667,81.3899976 235.334666,80.9140024 235.4,80.438 L236.03,76.168 L238.004,76.168 L236.38,85.296 L233.79,85.296 L232.894,81.152 C232.819333,80.7973316 232.751667,80.4403351 232.691,80.081 C232.630333,79.7216649 232.576667,79.3740017 232.53,79.038 L232.474,79.038 C232.418,79.3740017 232.359667,79.7216649 232.299,80.081 C232.238333,80.4403351 232.170667,80.7973316 232.096,81.152 L231.242,85.296 L228.694,85.296 L227,76.168 Z M239.264,76.168 L241.322,76.168 L241.322,79.682 L244.472,79.682 L244.472,76.168 L246.544,76.168 L246.544,85.296 L244.472,85.296 L244.472,81.488 L241.322,81.488 L241.322,85.296 L239.264,85.296 L239.264,76.168 Z M252.564,81.516 L252.354,80.676 C252.223333,80.2186644 252.097334,79.7333359 251.976,79.22 C251.854666,78.7066641 251.733334,78.2120024 251.612,77.736 L251.556,77.736 C251.443999,78.2213358 251.329667,78.7183308 251.213,79.227 C251.096333,79.7356692 250.972667,80.2186644 250.842,80.676 L250.618,81.516 L252.564,81.516 Z M252.984,83.126 L250.198,83.126 L249.638,85.296 L247.538,85.296 L250.394,76.168 L252.872,76.168 L255.728,85.296 L253.544,85.296 L252.984,83.126 Z M257.94,77.904 L255.434,77.904 L255.434,76.168 L262.518,76.168 L262.518,77.904 L260.012,77.904 L260.012,85.296 L257.94,85.296 L257.94,77.904 Z M270.568,85.464 C269.951997,85.464 269.389669,85.3543344 268.881,85.135 C268.372331,84.9156656 267.936002,84.6006687 267.572,84.19 C267.207998,83.7793313 266.925668,83.2800029 266.725,82.692 C266.524332,82.1039971 266.424,81.4366704 266.424,80.69 C266.424,79.9433296 266.524332,79.2783362 266.725,78.695 C266.925668,78.1116637 267.207998,77.6216686 267.572,77.225 C267.936002,76.8283313 268.372331,76.525001 268.881,76.315 C269.389669,76.1049989 269.951997,76 270.568,76 C271.184003,76 271.746331,76.1049989 272.255,76.315 C272.763669,76.525001 273.199998,76.8306647 273.564,77.232 C273.928002,77.6333353 274.210332,78.1256637 274.411,78.709 C274.611668,79.2923362 274.712,79.952663 274.712,80.69 C274.712,81.4366704 274.611668,82.1039971 274.411,82.692 C274.210332,83.2800029 273.928002,83.7793313 273.564,84.19 C273.199998,84.6006687 272.763669,84.9156656 272.255,85.135 C271.746331,85.3543344 271.184003,85.464 270.568,85.464 Z M270.568,83.686 C271.193336,83.686 271.687998,83.4176693 272.052,82.881 C272.416002,82.3443306 272.598,81.6140046 272.598,80.69 C272.598,79.7753288 272.416002,79.0613359 272.052,78.548 C271.687998,78.0346641 271.193336,77.778 270.568,77.778 C269.942664,77.778 269.448002,78.0346641 269.084,78.548 C268.719998,79.0613359 268.538,79.7753288 268.538,80.69 C268.538,81.6140046 268.719998,82.3443306 269.084,82.881 C269.448002,83.4176693 269.942664,83.686 270.568,83.686 Z M276.378,76.168 L278.45,76.168 L278.45,81.278 C278.45,82.1740045 278.585332,82.7993316 278.856,83.154 C279.126668,83.5086684 279.518664,83.686 280.032,83.686 C280.545336,83.686 280.941999,83.5086684 281.222,83.154 C281.502001,82.7993316 281.642,82.1740045 281.642,81.278 L281.642,76.168 L283.63,76.168 L283.63,81.068 C283.63,82.5986743 283.324336,83.7139965 282.713,84.414 C282.101664,85.1140035 281.208006,85.464 280.032,85.464 C278.846661,85.464 277.941336,85.1140035 277.316,84.414 C276.690664,83.7139965 276.378,82.5986743 276.378,81.068 L276.378,76.168 Z M287.802,80.368 L288.866,80.368 C289.407336,80.368 289.820332,80.2536678 290.105,80.025 C290.389668,79.7963322 290.532,79.4580022 290.532,79.01 C290.532,78.5619978 290.389668,78.2493342 290.105,78.072 C289.820332,77.8946658 289.407336,77.806 288.866,77.806 L287.802,77.806 L287.802,80.368 Z M290.686,85.296 L288.936,82.006 L287.802,82.006 L287.802,85.296 L285.744,85.296 L285.744,76.168 L289.034,76.168 C289.519336,76.168 289.974331,76.2146662 290.399,76.308 C290.823669,76.4013338 291.194665,76.5576656 291.512,76.777 C291.829335,76.9963344 292.081332,77.2879982 292.268,77.652 C292.454668,78.0160018 292.548,78.468664 292.548,79.01 C292.548,79.6820034 292.401001,80.2349978 292.107,80.669 C291.812999,81.1030022 291.418669,81.4273323 290.924,81.642 L292.996,85.296 L290.686,85.296 Z M296.846,80.788 C296.846,80.0319962 296.962666,79.3576696 297.196,78.765 C297.429335,78.1723304 297.744331,77.6706687 298.141,77.26 C298.537669,76.8493313 298.999664,76.5366677 299.527,76.322 C300.054336,76.1073323 300.611997,76 301.2,76 C301.769336,76 302.284998,76.1189988 302.747,76.357 C303.209002,76.5950012 303.593998,76.8726651 303.902,77.19 L302.768,78.464 C302.534666,78.2493323 302.299001,78.0813339 302.061,77.96 C301.822999,77.8386661 301.545335,77.778 301.228,77.778 C300.910665,77.778 300.614335,77.845666 300.339,77.981 C300.063665,78.116334 299.823334,78.3099987 299.618,78.562 C299.412666,78.8140013 299.251667,79.1219982 299.135,79.486 C299.018333,79.8500018 298.96,80.2606644 298.96,80.718 C298.96,81.6606714 299.160665,82.3909974 299.562,82.909 C299.963335,83.4270026 300.499997,83.686 301.172,83.686 C301.545335,83.686 301.871999,83.6113341 302.152,83.462 C302.432001,83.3126659 302.683999,83.1166679 302.908,82.874 L304.042,84.12 C303.659331,84.5680022 303.223002,84.9039989 302.733,85.128 C302.242998,85.3520011 301.713336,85.464 301.144,85.464 C300.555997,85.464 300.000669,85.3636677 299.478,85.163 C298.955331,84.9623323 298.498002,84.666002 298.106,84.274 C297.713998,83.881998 297.406001,83.3943362 297.182,82.811 C296.957999,82.2276637 296.846,81.5533372 296.846,80.788 Z M305.428,76.168 L307.486,76.168 L307.486,83.56 L311.098,83.56 L311.098,85.296 L305.428,85.296 L305.428,76.168 Z M312.68,76.168 L314.738,76.168 L314.738,85.296 L312.68,85.296 L312.68,76.168 Z M316.894,76.168 L322.606,76.168 L322.606,77.904 L318.952,77.904 L318.952,79.738 L322.06,79.738 L322.06,81.46 L318.952,81.46 L318.952,83.56 L322.746,83.56 L322.746,85.296 L316.894,85.296 L316.894,76.168 Z M324.566,76.168 L326.68,76.168 L329.06,80.704 L329.956,82.72 L330.012,82.72 C329.965333,82.2346642 329.911667,81.6933363 329.851,81.096 C329.790333,80.4986637 329.76,79.929336 329.76,79.388 L329.76,76.168 L331.72,76.168 L331.72,85.296 L329.606,85.296 L327.226,80.746 L326.33,78.758 L326.274,78.758 C326.320667,79.2620025 326.374333,79.8033304 326.435,80.382 C326.495667,80.9606696 326.526,81.520664 326.526,82.062 L326.526,85.296 L324.566,85.296 L324.566,76.168 Z M335.654,77.904 L333.148,77.904 L333.148,76.168 L340.232,76.168 L340.232,77.904 L337.726,77.904 L337.726,85.296 L335.654,85.296 L335.654,77.904 Z M341.898,82.734 C342.224668,83.0140014 342.586331,83.2426658 342.983,83.42 C343.379669,83.5973342 343.769331,83.686 344.152,83.686 C344.581335,83.686 344.900999,83.6066675 345.111,83.448 C345.321001,83.2893325 345.426,83.074668 345.426,82.804 C345.426,82.6639993 345.395667,82.5426672 345.335,82.44 C345.274333,82.3373328 345.185667,82.2463337 345.069,82.167 C344.952333,82.0876663 344.812334,82.0130003 344.649,81.943 L344.11,81.712 L342.92,81.208 C342.686666,81.1146662 342.460334,80.9933341 342.241,80.844 C342.021666,80.6946659 341.825668,80.5196677 341.653,80.319 C341.480332,80.1183323 341.342667,79.8850013 341.24,79.619 C341.137333,79.3529987 341.086,79.0520017 341.086,78.716 C341.086,78.3426648 341.165333,77.990335 341.324,77.659 C341.482667,77.327665 341.706665,77.0383346 341.996,76.791 C342.285335,76.5436654 342.628331,76.3500007 343.025,76.21 C343.421669,76.0699993 343.857998,76 344.334,76 C344.866003,76 345.390997,76.1026656 345.909,76.308 C346.427003,76.5133344 346.881998,76.811998 347.274,77.204 L346.224,78.506 C345.925332,78.2726655 345.626668,78.0930006 345.328,77.967 C345.029332,77.8409994 344.698002,77.778 344.334,77.778 C343.979332,77.778 343.697001,77.8503326 343.487,77.995 C343.276999,78.1396674 343.172,78.3426654 343.172,78.604 C343.172,78.7440007 343.207,78.8629995 343.277,78.961 C343.347,79.0590005 343.444999,79.1476663 343.571,79.227 C343.697001,79.3063337 343.843999,79.3809996 344.012,79.451 C344.180001,79.5210003 344.361999,79.5979996 344.558,79.682 L345.734,80.158 C346.294003,80.3820011 346.734998,80.689998 347.057,81.082 C347.379002,81.474002 347.54,81.9919968 347.54,82.636 C347.54,83.0186686 347.463001,83.3803316 347.309,83.721 C347.154999,84.0616684 346.931001,84.360332 346.637,84.617 C346.342999,84.8736679 345.981335,85.0789992 345.552,85.233 C345.122665,85.3870008 344.637336,85.464 344.096,85.464 C343.498664,85.464 342.90367,85.3543344 342.311,85.135 C341.71833,84.9156656 341.188669,84.5866689 340.722,84.148 L341.898,82.734 Z M352.594,82.734 C352.920668,83.0140014 353.282331,83.2426658 353.679,83.42 C354.075669,83.5973342 354.465331,83.686 354.848,83.686 C355.277335,83.686 355.596999,83.6066675 355.807,83.448 C356.017001,83.2893325 356.122,83.074668 356.122,82.804 C356.122,82.6639993 356.091667,82.5426672 356.031,82.44 C355.970333,82.3373328 355.881667,82.2463337 355.765,82.167 C355.648333,82.0876663 355.508334,82.0130003 355.345,81.943 L354.806,81.712 L353.616,81.208 C353.382666,81.1146662 353.156334,80.9933341 352.937,80.844 C352.717666,80.6946659 352.521668,80.5196677 352.349,80.319 C352.176332,80.1183323 352.038667,79.8850013 351.936,79.619 C351.833333,79.3529987 351.782,79.0520017 351.782,78.716 C351.782,78.3426648 351.861333,77.990335 352.02,77.659 C352.178667,77.327665 352.402665,77.0383346 352.692,76.791 C352.981335,76.5436654 353.324331,76.3500007 353.721,76.21 C354.117669,76.0699993 354.553998,76 355.03,76 C355.562003,76 356.086997,76.1026656 356.605,76.308 C357.123003,76.5133344 357.577998,76.811998 357.97,77.204 L356.92,78.506 C356.621332,78.2726655 356.322668,78.0930006 356.024,77.967 C355.725332,77.8409994 355.394002,77.778 355.03,77.778 C354.675332,77.778 354.393001,77.8503326 354.183,77.995 C353.972999,78.1396674 353.868,78.3426654 353.868,78.604 C353.868,78.7440007 353.903,78.8629995 353.973,78.961 C354.043,79.0590005 354.140999,79.1476663 354.267,79.227 C354.393001,79.3063337 354.539999,79.3809996 354.708,79.451 C354.876001,79.5210003 355.057999,79.5979996 355.254,79.682 L356.43,80.158 C356.990003,80.3820011 357.430998,80.689998 357.753,81.082 C358.075002,81.474002 358.236,81.9919968 358.236,82.636 C358.236,83.0186686 358.159001,83.3803316 358.005,83.721 C357.850999,84.0616684 357.627001,84.360332 357.333,84.617 C357.038999,84.8736679 356.677335,85.0789992 356.248,85.233 C355.818665,85.3870008 355.333336,85.464 354.792,85.464 C354.194664,85.464 353.59967,85.3543344 353.007,85.135 C352.41433,84.9156656 351.884669,84.5866689 351.418,84.148 L352.594,82.734 Z M363.654,81.516 L363.444,80.676 C363.313333,80.2186644 363.187334,79.7333359 363.066,79.22 C362.944666,78.7066641 362.823334,78.2120024 362.702,77.736 L362.646,77.736 C362.533999,78.2213358 362.419667,78.7183308 362.303,79.227 C362.186333,79.7356692 362.062667,80.2186644 361.932,80.676 L361.708,81.516 L363.654,81.516 Z M364.074,83.126 L361.288,83.126 L360.728,85.296 L358.628,85.296 L361.484,76.168 L363.962,76.168 L366.818,85.296 L364.634,85.296 L364.074,83.126 Z M369.128,82.048 L366.37,76.168 L368.582,76.168 L369.394,78.268 C369.524667,78.6133351 369.648333,78.9469984 369.765,79.269 C369.881667,79.5910016 370.005333,79.9293316 370.136,80.284 L370.192,80.284 C370.322667,79.9293316 370.450999,79.5910016 370.577,79.269 C370.703001,78.9469984 370.831333,78.6133351 370.962,78.268 L371.788,76.168 L373.944,76.168 L371.186,82.048 L371.186,85.296 L369.128,85.296 L369.128,82.048 Z" id="WHAT-OUR-CLIENTS-SAY" fill="#FFFFFF"></path>
                <path d="M279.5,62.5 L319.5,62.5" id="Line" stroke="#FFFFFF" stroke-width="5" stroke-linecap="square"></path>
                <path d="M283.5,110.5 L316.515148,110.5" id="Line" stroke="#FFFFFF" stroke-linecap="square"></path>
                <g id="Group-3" transform="translate(21.000000, 138.000000)">
                    <circle id="Oval-4" fill="#FFFFFF" cx="15" cy="126" r="15"></circle>
                    <path d="M43.5,122 L77.5147027,122" id="Line" stroke="#FFFFFF" stroke-width="4" stroke-linecap="square"></path>
                    <path d="M43.5,134 L105,134" id="Line" stroke="#FFFFFF" stroke-width="2" stroke-linecap="square"></path>
                    <path d="M4,2.66445394e-15 L174,2.66445394e-15 L174,3.55271368e-15 C176.209139,3.14689681e-15 178,1.790861 178,4 L178,93 L178,93 C178,95.209139 176.209139,97 174,97 L23.0800781,97 L14.96875,106.050781 L7.078125,97 L4,97 L4,97 C1.790861,97 2.705415e-16,95.209139 0,93 L0,4 L0,4 C-2.705415e-16,1.790861 1.790861,1.29399529e-15 4,8.8817842e-16 Z" id="Rectangle-4" fill="#FFFFFF"></path>
                    <g id="Group-2" transform="translate(12.000000, 16.000000)" stroke="#979797" stroke-width="4" stroke-linecap="square">
                        <path d="M0.5,2 L152.503289,2" id="Line"></path>
                        <path d="M0.5,16 L152.503289,16" id="Line"></path>
                        <path d="M0.5,30 L152.503289,30" id="Line"></path>
                        <path d="M0.5,44 L152.503289,44" id="Line"></path>
                        <path d="M0.5,57 L64.0314883,57" id="Line"></path>
                    </g>
                </g>
                <g id="Group-3" transform="translate(401.000000, 138.000000)">
                    <circle id="Oval-4" fill="#FFFFFF" cx="15" cy="126" r="15"></circle>
                    <path d="M43.5,122 L77.5147027,122" id="Line" stroke="#FFFFFF" stroke-width="4" stroke-linecap="square"></path>
                    <path d="M43.5,134 L105,134" id="Line" stroke="#FFFFFF" stroke-width="2" stroke-linecap="square"></path>
                    <path d="M4,2.66445394e-15 L174,2.66445394e-15 L174,3.55271368e-15 C176.209139,3.14689681e-15 178,1.790861 178,4 L178,93 L178,93 C178,95.209139 176.209139,97 174,97 L23.0800781,97 L14.96875,106.050781 L7.078125,97 L4,97 L4,97 C1.790861,97 2.705415e-16,95.209139 0,93 L0,4 L0,4 C-2.705415e-16,1.790861 1.790861,1.29399529e-15 4,8.8817842e-16 Z" id="Rectangle-4" fill="#FFFFFF"></path>
                    <g id="Group-2" transform="translate(12.000000, 16.000000)" stroke="#979797" stroke-width="4" stroke-linecap="square">
                        <path d="M0.5,2 L152.503289,2" id="Line"></path>
                        <path d="M0.5,16 L152.503289,16" id="Line"></path>
                        <path d="M0.5,30 L152.503289,30" id="Line"></path>
                        <path d="M0.5,44 L152.503289,44" id="Line"></path>
                        <path d="M0.5,57 L64.0314883,57" id="Line"></path>
                    </g>
                </g>
                <g id="Group-3" transform="translate(211.000000, 138.000000)">
                    <circle id="Oval-4" fill="#FFFFFF" cx="15" cy="126" r="15"></circle>
                    <path d="M43.5,122 L77.5147027,122" id="Line" stroke="#FFFFFF" stroke-width="4" stroke-linecap="square"></path>
                    <path d="M43.5,134 L105,134" id="Line" stroke="#FFFFFF" stroke-width="2" stroke-linecap="square"></path>
                    <path d="M4,2.66445394e-15 L174,2.66445394e-15 L174,3.55271368e-15 C176.209139,3.14689681e-15 178,1.790861 178,4 L178,93 L178,93 C178,95.209139 176.209139,97 174,97 L23.0800781,97 L14.96875,106.050781 L7.078125,97 L4,97 L4,97 C1.790861,97 2.705415e-16,95.209139 0,93 L0,4 L0,4 C-2.705415e-16,1.790861 1.790861,1.29399529e-15 4,8.8817842e-16 Z" id="Rectangle-4" fill="#FFFFFF"></path>
                    <g id="Group-2" transform="translate(12.000000, 16.000000)" stroke="#979797" stroke-width="4" stroke-linecap="square">
                        <path d="M0.5,2 L152.503289,2" id="Line"></path>
                        <path d="M0.5,16 L152.503289,16" id="Line"></path>
                        <path d="M0.5,30 L152.503289,30" id="Line"></path>
                        <path d="M0.5,44 L152.503289,44" id="Line"></path>
                        <path d="M0.5,57 L64.0314883,57" id="Line"></path>
                    </g>
                </g>
            </g>
            <g id="Group-4" transform="translate(285.000000, 311.000000)">
                <circle id="Oval-5" fill="#FFFFFF" cx="4" cy="4" r="4"></circle>
                <circle id="Oval-5" fill="#FFFFFF" cx="15" cy="4" r="4"></circle>
                <circle id="Oval-5" fill="#4990E2" cx="26" cy="4" r="4"></circle>
            </g>
        </g>
    </g>
</svg>