<?xml version="1.0" encoding="UTF-8"?>
<svg width="600px" height="182px" viewBox="0 0 600 182" version="1.1" xmlns="http://www.w3.org/2000/svg" xmlns:xlink="http://www.w3.org/1999/xlink">
    <!-- Generator: Sketch 44.1 (41455) - http://www.bohemiancoding.com/sketch -->
    <title>typo12</title>
    <desc>Created with Sketch.</desc>
    <defs></defs>
    <g id="Typo" stroke="none" stroke-width="1" fill="none" fill-rule="evenodd">
        <g id="12">
            <rect id="Rectangle-5" fill="#F8F8F8" x="0" y="0" width="600" height="182"></rect>
            <path d="M433.414,69.192 L434.962,69.192 L436.204,75.618 C436.312001,76.2660032 436.425999,76.9019969 436.546,77.526 C436.666001,78.1500031 436.779999,78.7859968 436.888,79.434 L436.96,79.434 C437.092001,78.7859968 437.229999,78.1470032 437.374,77.517 C437.518001,76.8869969 437.655999,76.2540032 437.788,75.618 L439.426,69.192 L440.794,69.192 L442.432,75.618 C442.576001,76.2420031 442.719999,76.8719968 442.864,77.508 C443.008001,78.1440032 443.151999,78.7859968 443.296,79.434 L443.368,79.434 C443.476001,78.7859968 443.583999,78.1470032 443.692,77.517 C443.800001,76.8869969 443.913999,76.2540032 444.034,75.618 L445.276,69.192 L446.716,69.192 L444.268,81 L442.468,81 L440.686,73.89 C440.577999,73.4339977 440.479,72.9870022 440.389,72.549 C440.299,72.1109978 440.206,71.6640023 440.11,71.208 L440.038,71.208 C439.942,71.6640023 439.843001,72.1109978 439.741,72.549 C439.638999,72.9870022 439.54,73.4339977 439.444,73.89 L437.698,81 L435.916,81 L433.414,69.192 Z M453.79,76.194 L453.232,74.394 C453.015999,73.7339967 452.812001,73.0770033 452.62,72.423 C452.427999,71.7689967 452.236001,71.1000034 452.044,70.416 L451.972,70.416 C451.791999,71.1000034 451.606001,71.7689967 451.414,72.423 C451.221999,73.0770033 451.018001,73.7339967 450.802,74.394 L450.244,76.194 L453.79,76.194 Z M454.168,77.4 L449.866,77.4 L448.732,81 L447.202,81 L451.198,69.192 L452.89,69.192 L456.886,81 L455.284,81 L454.168,77.4 Z M460.288,70.452 L456.724,70.452 L456.724,69.192 L465.364,69.192 L465.364,70.452 L461.8,70.452 L461.8,81 L460.288,81 L460.288,70.452 Z M466.372,75.096 C466.372,74.1479953 466.503999,73.2960038 466.768,72.54 C467.032001,71.7839962 467.397998,71.1420026 467.866,70.614 C468.334002,70.0859974 468.888997,69.6810014 469.531,69.399 C470.173003,69.1169986 470.871996,68.976 471.628,68.976 C472.348004,68.976 472.977997,69.1229985 473.518,69.417 C474.058003,69.7110015 474.501998,70.0499981 474.85,70.434 L474.004,71.388 C473.691998,71.0519983 473.347002,70.785001 472.969,70.587 C472.590998,70.388999 472.150003,70.29 471.646,70.29 C471.081997,70.29 470.572002,70.4009989 470.116,70.623 C469.659998,70.8450011 469.270002,71.1629979 468.946,71.577 C468.621998,71.9910021 468.370001,72.4919971 468.19,73.08 C468.009999,73.6680029 467.92,74.3279963 467.92,75.06 C467.92,75.8040037 468.006999,76.472997 468.181,77.067 C468.355001,77.661003 468.597998,78.1679979 468.91,78.588 C469.222002,79.0080021 469.602998,79.3319989 470.053,79.56 C470.503002,79.7880011 471.009997,79.902 471.574,79.902 C472.150003,79.902 472.650998,79.7880011 473.077,79.56 C473.503002,79.3319989 473.907998,79.0080021 474.292,78.588 L475.138,79.506 C474.669998,80.0460027 474.142003,80.4659985 473.554,80.766 C472.965997,81.0660015 472.294004,81.216 471.538,81.216 C470.793996,81.216 470.107003,81.0780014 469.477,80.802 C468.846997,80.5259986 468.301002,80.1270026 467.839,79.605 C467.376998,79.0829974 467.017001,78.4410038 466.759,77.679 C466.500999,76.9169962 466.372,76.0560048 466.372,75.096 Z M477.334,69.192 L478.828,69.192 L478.828,74.142 L484.318,74.142 L484.318,69.192 L485.83,69.192 L485.83,81 L484.318,81 L484.318,75.438 L478.828,75.438 L478.828,81 L477.334,81 L477.334,69.192 Z M491.086,69.192 L492.688,69.192 L494.578,75.564 C494.794001,76.2720035 494.982999,76.925997 495.145,77.526 C495.307001,78.126003 495.501999,78.7739965 495.73,79.47 L495.802,79.47 C496.018001,78.7739965 496.209999,78.126003 496.378,77.526 C496.546001,76.925997 496.731999,76.2720035 496.936,75.564 L498.826,69.192 L500.356,69.192 L496.612,81 L494.866,81 L491.086,69.192 Z M501.976,69.192 L503.47,69.192 L503.47,81 L501.976,81 L501.976,69.192 Z M506.71,69.192 L509.662,69.192 C511.486009,69.192 512.871995,69.695995 513.82,70.704 C514.768005,71.712005 515.242,73.1579906 515.242,75.042 C515.242,75.9780047 515.122001,76.8149963 514.882,77.553 C514.641999,78.2910037 514.288002,78.9149974 513.82,79.425 C513.351998,79.9350025 512.776003,80.3249986 512.092,80.595 C511.407997,80.8650014 510.622004,81 509.734,81 L506.71,81 L506.71,69.192 Z M509.554,79.776 C510.934007,79.776 511.968997,79.3620041 512.659,78.534 C513.349003,77.7059959 513.694,76.5420075 513.694,75.042 C513.694,73.5419925 513.349003,72.396004 512.659,71.604 C511.968997,70.811996 510.934007,70.416 509.554,70.416 L508.204,70.416 L508.204,79.776 L509.554,79.776 Z M517.78,69.192 L524.584,69.192 L524.584,70.452 L519.274,70.452 L519.274,74.16 L523.756,74.16 L523.756,75.438 L519.274,75.438 L519.274,79.722 L524.764,79.722 L524.764,81 L517.78,81 L517.78,69.192 Z M531.622,81.216 C530.877996,81.216 530.197003,81.0720014 529.579,80.784 C528.960997,80.4959986 528.430002,80.0850027 527.986,79.551 C527.541998,79.0169973 527.197001,78.3690038 526.951,77.607 C526.704999,76.8449962 526.582,75.9900047 526.582,75.042 C526.582,74.0939953 526.704999,73.2450038 526.951,72.495 C527.197001,71.7449963 527.541998,71.1090026 527.986,70.587 C528.430002,70.0649974 528.960997,69.6660014 529.579,69.39 C530.197003,69.1139986 530.877996,68.976 531.622,68.976 C532.366004,68.976 533.046997,69.1169986 533.665,69.399 C534.283003,69.6810014 534.816998,70.0829974 535.267,70.605 C535.717002,71.1270026 536.064999,71.7629962 536.311,72.513 C536.557001,73.2630038 536.68,74.1059953 536.68,75.042 C536.68,75.9900047 536.557001,76.8449962 536.311,77.607 C536.064999,78.3690038 535.717002,79.0169973 535.267,79.551 C534.816998,80.0850027 534.283003,80.4959986 533.665,80.784 C533.046997,81.0720014 532.366004,81.216 531.622,81.216 Z M531.622,79.902 C532.150003,79.902 532.626998,79.7880011 533.053,79.56 C533.479002,79.3319989 533.844998,79.0050021 534.151,78.579 C534.457002,78.1529979 534.693999,77.643003 534.862,77.049 C535.030001,76.454997 535.114,75.7860037 535.114,75.042 C535.114,74.3099963 535.030001,73.6500029 534.862,73.062 C534.693999,72.4739971 534.457002,71.976002 534.151,71.568 C533.844998,71.159998 533.479002,70.8450011 533.053,70.623 C532.626998,70.4009989 532.150003,70.29 531.622,70.29 C531.093997,70.29 530.617002,70.4009989 530.191,70.623 C529.764998,70.8450011 529.399002,71.159998 529.093,71.568 C528.786998,71.976002 528.550001,72.4739971 528.382,73.062 C528.213999,73.6500029 528.13,74.3099963 528.13,75.042 C528.13,75.7860037 528.213999,76.454997 528.382,77.049 C528.550001,77.643003 528.786998,78.1529979 529.093,78.579 C529.399002,79.0050021 529.764998,79.3319989 530.191,79.56 C530.617002,79.7880011 531.093997,79.902 531.622,79.902 Z M539.254,78.426 C539.674002,78.8700022 540.168997,79.2269986 540.739,79.497 C541.309003,79.7670014 541.899997,79.902 542.512,79.902 C543.292004,79.902 543.897998,79.7250018 544.33,79.371 C544.762002,79.0169982 544.978,78.5520029 544.978,77.976 C544.978,77.6759985 544.927001,77.4210011 544.825,77.211 C544.722999,77.000999 544.585001,76.8210008 544.411,76.671 C544.236999,76.5209993 544.030001,76.3860006 543.79,76.266 C543.549999,76.1459994 543.292001,76.0200007 543.016,75.888 L541.324,75.15 C541.047999,75.0299994 540.766001,74.8860008 540.478,74.718 C540.189999,74.5499992 539.932001,74.3460012 539.704,74.106 C539.475999,73.8659988 539.290001,73.5810016 539.146,73.251 C539.001999,72.9209984 538.93,72.5400022 538.93,72.108 C538.93,71.6639978 539.022999,71.2500019 539.209,70.866 C539.395001,70.4819981 539.652998,70.1490014 539.983,69.867 C540.313002,69.5849986 540.702998,69.3660008 541.153,69.21 C541.603002,69.0539992 542.097997,68.976 542.638,68.976 C543.346004,68.976 543.999997,69.1109986 544.6,69.381 C545.200003,69.6510014 545.709998,70.0019978 546.13,70.434 L545.32,71.406 C544.959998,71.0579983 544.561002,70.785001 544.123,70.587 C543.684998,70.388999 543.190003,70.29 542.638,70.29 C541.977997,70.29 541.447002,70.4429985 541.045,70.749 C540.642998,71.0550015 540.442,71.4779973 540.442,72.018 C540.442,72.3060014 540.498999,72.548999 540.613,72.747 C540.727001,72.945001 540.879999,73.1189993 541.072,73.269 C541.264001,73.4190008 541.473999,73.5509994 541.702,73.665 C541.930001,73.7790006 542.163999,73.8839995 542.404,73.98 L544.078,74.7 C544.414002,74.8440007 544.731999,75.0089991 545.032,75.195 C545.332002,75.3810009 545.589999,75.5969988 545.806,75.843 C546.022001,76.0890012 546.192999,76.3769983 546.319,76.707 C546.445001,77.0370017 546.508,77.4179978 546.508,77.85 C546.508,78.3180023 546.415001,78.755998 546.229,79.164 C546.042999,79.572002 545.776002,79.9289985 545.428,80.235 C545.079998,80.5410015 544.660002,80.7809991 544.168,80.955 C543.675998,81.1290009 543.118003,81.216 542.494,81.216 C541.665996,81.216 540.898004,81.0600016 540.19,80.748 C539.481996,80.4359984 538.870003,80.0100027 538.354,79.47 L539.254,78.426 Z M437.068,97.452 L433.504,97.452 L433.504,96.192 L442.144,96.192 L442.144,97.452 L438.58,97.452 L438.58,108 L437.068,108 L437.068,97.452 Z M448.192,108.216 C447.447996,108.216 446.767003,108.072001 446.149,107.784 C445.530997,107.495999 445.000002,107.085003 444.556,106.551 C444.111998,106.016997 443.767001,105.369004 443.521,104.607 C443.274999,103.844996 443.152,102.990005 443.152,102.042 C443.152,101.093995 443.274999,100.245004 443.521,99.495 C443.767001,98.7449963 444.111998,98.1090026 444.556,97.587 C445.000002,97.0649974 445.530997,96.6660014 446.149,96.39 C446.767003,96.1139986 447.447996,95.976 448.192,95.976 C448.936004,95.976 449.616997,96.1169986 450.235,96.399 C450.853003,96.6810014 451.386998,97.0829974 451.837,97.605 C452.287002,98.1270026 452.634999,98.7629962 452.881,99.513 C453.127001,100.263004 453.25,101.105995 453.25,102.042 C453.25,102.990005 453.127001,103.844996 452.881,104.607 C452.634999,105.369004 452.287002,106.016997 451.837,106.551 C451.386998,107.085003 450.853003,107.495999 450.235,107.784 C449.616997,108.072001 448.936004,108.216 448.192,108.216 Z M448.192,106.902 C448.720003,106.902 449.196998,106.788001 449.623,106.56 C450.049002,106.331999 450.414998,106.005002 450.721,105.579 C451.027002,105.152998 451.263999,104.643003 451.432,104.049 C451.600001,103.454997 451.684,102.786004 451.684,102.042 C451.684,101.309996 451.600001,100.650003 451.432,100.062 C451.263999,99.4739971 451.027002,98.976002 450.721,98.568 C450.414998,98.159998 450.049002,97.8450011 449.623,97.623 C449.196998,97.4009989 448.720003,97.29 448.192,97.29 C447.663997,97.29 447.187002,97.4009989 446.761,97.623 C446.334998,97.8450011 445.969002,98.159998 445.663,98.568 C445.356998,98.976002 445.120001,99.4739971 444.952,100.062 C444.783999,100.650003 444.7,101.309996 444.7,102.042 C444.7,102.786004 444.783999,103.454997 444.952,104.049 C445.120001,104.643003 445.356998,105.152998 445.663,105.579 C445.969002,106.005002 446.334998,106.331999 446.761,106.56 C447.187002,106.788001 447.663997,106.902 448.192,106.902 Z M459.424,96.192 L460.918,96.192 L460.918,102.114 L460.972,102.114 L465.886,96.192 L467.578,96.192 L463.888,100.692 L468.154,108 L466.48,108 L462.952,101.862 L460.918,104.256 L460.918,108 L459.424,108 L459.424,96.192 Z M469.846,96.192 L471.394,96.192 L475.66,103.608 L476.938,106.056 L477.01,106.056 C476.974,105.455997 476.935,104.835003 476.893,104.193 C476.851,103.550997 476.83,102.918003 476.83,102.294 L476.83,96.192 L478.252,96.192 L478.252,108 L476.704,108 L472.42,100.566 L471.142,98.136 L471.07,98.136 C471.118,98.736003 471.163,99.3449969 471.205,99.963 C471.247,100.581003 471.268,101.201997 471.268,101.826 L471.268,108 L469.846,108 L469.846,96.192 Z M485.848,108.216 C485.103996,108.216 484.423003,108.072001 483.805,107.784 C483.186997,107.495999 482.656002,107.085003 482.212,106.551 C481.767998,106.016997 481.423001,105.369004 481.177,104.607 C480.930999,103.844996 480.808,102.990005 480.808,102.042 C480.808,101.093995 480.930999,100.245004 481.177,99.495 C481.423001,98.7449963 481.767998,98.1090026 482.212,97.587 C482.656002,97.0649974 483.186997,96.6660014 483.805,96.39 C484.423003,96.1139986 485.103996,95.976 485.848,95.976 C486.592004,95.976 487.272997,96.1169986 487.891,96.399 C488.509003,96.6810014 489.042998,97.0829974 489.493,97.605 C489.943002,98.1270026 490.290999,98.7629962 490.537,99.513 C490.783001,100.263004 490.906,101.105995 490.906,102.042 C490.906,102.990005 490.783001,103.844996 490.537,104.607 C490.290999,105.369004 489.943002,106.016997 489.493,106.551 C489.042998,107.085003 488.509003,107.495999 487.891,107.784 C487.272997,108.072001 486.592004,108.216 485.848,108.216 Z M485.848,106.902 C486.376003,106.902 486.852998,106.788001 487.279,106.56 C487.705002,106.331999 488.070998,106.005002 488.377,105.579 C488.683002,105.152998 488.919999,104.643003 489.088,104.049 C489.256001,103.454997 489.34,102.786004 489.34,102.042 C489.34,101.309996 489.256001,100.650003 489.088,100.062 C488.919999,99.4739971 488.683002,98.976002 488.377,98.568 C488.070998,98.159998 487.705002,97.8450011 487.279,97.623 C486.852998,97.4009989 486.376003,97.29 485.848,97.29 C485.319997,97.29 484.843002,97.4009989 484.417,97.623 C483.990998,97.8450011 483.625002,98.159998 483.319,98.568 C483.012998,98.976002 482.776001,99.4739971 482.608,100.062 C482.439999,100.650003 482.356,101.309996 482.356,102.042 C482.356,102.786004 482.439999,103.454997 482.608,104.049 C482.776001,104.643003 483.012998,105.152998 483.319,105.579 C483.625002,106.005002 483.990998,106.331999 484.417,106.56 C484.843002,106.788001 485.319997,106.902 485.848,106.902 Z M492.13,96.192 L493.678,96.192 L494.92,102.618 C495.028001,103.266003 495.141999,103.901997 495.262,104.526 C495.382001,105.150003 495.495999,105.785997 495.604,106.434 L495.676,106.434 C495.808001,105.785997 495.945999,105.147003 496.09,104.517 C496.234001,103.886997 496.371999,103.254003 496.504,102.618 L498.142,96.192 L499.51,96.192 L501.148,102.618 C501.292001,103.242003 501.435999,103.871997 501.58,104.508 C501.724001,105.144003 501.867999,105.785997 502.012,106.434 L502.084,106.434 C502.192001,105.785997 502.299999,105.147003 502.408,104.517 C502.516001,103.886997 502.629999,103.254003 502.75,102.618 L503.992,96.192 L505.432,96.192 L502.984,108 L501.184,108 L499.402,100.89 C499.293999,100.433998 499.195,99.9870022 499.105,99.549 C499.015,99.1109978 498.922,98.6640023 498.826,98.208 L498.754,98.208 C498.658,98.6640023 498.559001,99.1109978 498.457,99.549 C498.354999,99.9870022 498.256,100.433998 498.16,100.89 L496.414,108 L494.632,108 L492.13,96.192 Z M511.12,96.192 L512.884,96.192 L515.17,102.528 L516.034,104.94 L516.106,104.94 L516.934,102.528 L519.202,96.192 L520.966,96.192 L520.966,108 L519.544,108 L519.544,101.502 C519.544,100.973997 519.565,100.392003 519.607,99.756 C519.649,99.1199968 519.694,98.5380026 519.742,98.01 L519.67,98.01 L518.716,100.638 L516.448,106.812 L515.602,106.812 L513.316,100.638 L512.38,98.01 L512.308,98.01 C512.344,98.5380026 512.386,99.1199968 512.434,99.756 C512.482,100.392003 512.506,100.973997 512.506,101.502 L512.506,108 L511.12,108 L511.12,96.192 Z M528.562,108.216 C527.817996,108.216 527.137003,108.072001 526.519,107.784 C525.900997,107.495999 525.370002,107.085003 524.926,106.551 C524.481998,106.016997 524.137001,105.369004 523.891,104.607 C523.644999,103.844996 523.522,102.990005 523.522,102.042 C523.522,101.093995 523.644999,100.245004 523.891,99.495 C524.137001,98.7449963 524.481998,98.1090026 524.926,97.587 C525.370002,97.0649974 525.900997,96.6660014 526.519,96.39 C527.137003,96.1139986 527.817996,95.976 528.562,95.976 C529.306004,95.976 529.986997,96.1169986 530.605,96.399 C531.223003,96.6810014 531.756998,97.0829974 532.207,97.605 C532.657002,98.1270026 533.004999,98.7629962 533.251,99.513 C533.497001,100.263004 533.62,101.105995 533.62,102.042 C533.62,102.990005 533.497001,103.844996 533.251,104.607 C533.004999,105.369004 532.657002,106.016997 532.207,106.551 C531.756998,107.085003 531.223003,107.495999 530.605,107.784 C529.986997,108.072001 529.306004,108.216 528.562,108.216 Z M528.562,106.902 C529.090003,106.902 529.566998,106.788001 529.993,106.56 C530.419002,106.331999 530.784998,106.005002 531.091,105.579 C531.397002,105.152998 531.633999,104.643003 531.802,104.049 C531.970001,103.454997 532.054,102.786004 532.054,102.042 C532.054,101.309996 531.970001,100.650003 531.802,100.062 C531.633999,99.4739971 531.397002,98.976002 531.091,98.568 C530.784998,98.159998 530.419002,97.8450011 529.993,97.623 C529.566998,97.4009989 529.090003,97.29 528.562,97.29 C528.033997,97.29 527.557002,97.4009989 527.131,97.623 C526.704998,97.8450011 526.339002,98.159998 526.033,98.568 C525.726998,98.976002 525.490001,99.4739971 525.322,100.062 C525.153999,100.650003 525.07,101.309996 525.07,102.042 C525.07,102.786004 525.153999,103.454997 525.322,104.049 C525.490001,104.643003 525.726998,105.152998 526.033,105.579 C526.339002,106.005002 526.704998,106.331999 527.131,106.56 C527.557002,106.788001 528.033997,106.902 528.562,106.902 Z M537.652,101.79 L539.632,101.79 C540.556005,101.79 541.263998,101.601002 541.756,101.223 C542.248002,100.844998 542.494,100.272004 542.494,99.504 C542.494,98.7239961 542.248002,98.1780016 541.756,97.866 C541.263998,97.5539984 540.556005,97.398 539.632,97.398 L537.652,97.398 L537.652,101.79 Z M542.638,108 L539.794,103.014 L537.652,103.014 L537.652,108 L536.158,108 L536.158,96.192 L539.848,96.192 C540.448003,96.192 541.002997,96.2489994 541.513,96.363 C542.023003,96.4770006 542.460998,96.6659987 542.827,96.93 C543.193002,97.1940013 543.477999,97.5359979 543.682,97.956 C543.886001,98.3760021 543.988,98.8919969 543.988,99.504 C543.988,100.428005 543.748002,101.165997 543.268,101.718 C542.787998,102.270003 542.146004,102.647999 541.342,102.852 L544.33,108 L542.638,108 Z M546.616,96.192 L553.42,96.192 L553.42,97.452 L548.11,97.452 L548.11,101.16 L552.592,101.16 L552.592,102.438 L548.11,102.438 L548.11,106.722 L553.6,106.722 L553.6,108 L546.616,108 L546.616,96.192 Z" id="WATCH-VIDEOS-TO-KNOW" fill="#79797B"></path>
            <path d="M68.5,90 L139.563352,90" id="Line" stroke="#979797" stroke-width="4" stroke-linecap="square"></path>
            <path d="M39.9843862,103 L168.083733,103" id="Line" stroke="#979797" stroke-width="4" stroke-linecap="square"></path>
            <polygon id="Triangle" fill="#4990E2" points="309 89 295 96 295 82"></polygon>
            <circle id="Oval" stroke="#4990E2" stroke-width="3" cx="300.5" cy="88.5" r="23.5"></circle>
        </g>
    </g>
</svg>