<?xml version="1.0" encoding="UTF-8"?>
<svg width="600px" height="398px" viewBox="0 0 600 398" version="1.1" xmlns="http://www.w3.org/2000/svg" xmlns:xlink="http://www.w3.org/1999/xlink">
    <!-- Generator: Sketch 44.1 (41455) - http://www.bohemiancoding.com/sketch -->
    <title>typo13</title>
    <desc>Created with Sketch.</desc>
    <defs></defs>
    <g id="Typo" stroke="none" stroke-width="1" fill="none" fill-rule="evenodd">
        <g id="13">
            <rect id="Rectangle-8" fill="#FFFFFF" x="0" y="0" width="600" height="398"></rect>
            <path d="M242.284,104.912 L238.525,104.912 L238.525,102.308 L249.151,102.308 L249.151,104.912 L245.392,104.912 L245.392,116 L242.284,116 L242.284,104.912 Z M248.836,110.792 C248.836,109.951996 248.975999,109.192503 249.256,108.5135 C249.536001,107.834497 249.903498,107.260502 250.3585,106.7915 C250.813502,106.322498 251.334997,105.962001 251.923,105.71 C252.511003,105.457999 253.119997,105.332 253.75,105.332 C254.492004,105.332 255.139497,105.457999 255.6925,105.71 C256.245503,105.962001 256.707498,106.311998 257.0785,106.76 C257.449502,107.208002 257.725999,107.736497 257.908,108.3455 C258.090001,108.954503 258.181,109.615996 258.181,110.33 C258.181,110.610001 258.167,110.865499 258.139,111.0965 C258.111,111.327501 258.083,111.505999 258.055,111.632 L251.818,111.632 C251.958001,112.430004 252.269498,113.007498 252.7525,113.3645 C253.235502,113.721502 253.826997,113.9 254.527,113.9 C255.269004,113.9 256.017996,113.669002 256.774,113.207 L257.803,115.076 C257.270997,115.440002 256.679503,115.726999 256.0285,115.937 C255.377497,116.147001 254.737003,116.252 254.107,116.252 C253.364996,116.252 252.672003,116.129501 252.028,115.8845 C251.383997,115.639499 250.824002,115.282502 250.348,114.8135 C249.871998,114.344498 249.501001,113.774003 249.235,113.102 C248.968999,112.429997 248.836,111.660004 248.836,110.792 Z M255.556,109.721 C255.556,109.118997 255.423001,108.629002 255.157,108.251 C254.890999,107.872998 254.443003,107.684 253.813,107.684 C253.322998,107.684 252.892502,107.848498 252.5215,108.1775 C252.150498,108.506502 251.909001,109.020997 251.797,109.721 L255.556,109.721 Z M262.108,110.582 L259.105,105.584 L262.423,105.584 L263.347,107.264 C263.487001,107.558001 263.630499,107.855498 263.7775,108.1565 C263.924501,108.457502 264.074999,108.754999 264.229,109.049 L264.313,109.049 C264.425001,108.754999 264.543999,108.457502 264.67,108.1565 C264.796001,107.855498 264.914999,107.558001 265.027,107.264 L265.741,105.584 L268.933,105.584 L265.909,110.939 L269.122,116 L265.804,116 L264.796,114.278 C264.627999,113.983999 264.463501,113.683002 264.3025,113.375 C264.141499,113.066998 263.977001,112.766001 263.809,112.472 L263.725,112.472 C263.598999,112.766001 263.466001,113.063498 263.326,113.3645 C263.185999,113.665502 263.053001,113.969998 262.927,114.278 L262.108,116 L258.916,116 L262.108,110.582 Z M271.201,107.999 L269.773,107.999 L269.773,105.71 L271.369,105.584 L271.726,102.812 L274.288,102.812 L274.288,105.584 L276.787,105.584 L276.787,107.999 L274.288,107.999 L274.288,112.178 C274.288,112.766003 274.410499,113.189499 274.6555,113.4485 C274.900501,113.707501 275.225998,113.837 275.632,113.837 C275.800001,113.837 275.971499,113.816 276.1465,113.774 C276.321501,113.732 276.478999,113.683 276.619,113.627 L277.102,115.874 C276.821999,115.958 276.493002,116.042 276.115,116.126 C275.736998,116.21 275.296003,116.252 274.792,116.252 C274.147997,116.252 273.598502,116.154001 273.1435,115.958 C272.688498,115.761999 272.317501,115.489002 272.0305,115.139 C271.743499,114.788998 271.533501,114.365502 271.4005,113.8685 C271.267499,113.371498 271.201,112.822003 271.201,112.22 L271.201,107.999 Z M284.326,112.157 C284.816002,112.577002 285.358497,112.919999 285.9535,113.186 C286.548503,113.452001 287.132997,113.585 287.707,113.585 C288.351003,113.585 288.830498,113.466001 289.1455,113.228 C289.460502,112.989999 289.618,112.668002 289.618,112.262 C289.618,112.051999 289.5725,111.870001 289.4815,111.716 C289.3905,111.561999 289.257501,111.425501 289.0825,111.3065 C288.907499,111.187499 288.697501,111.075501 288.4525,110.9705 L287.644,110.624 L285.859,109.868 C285.508998,109.727999 285.169502,109.546001 284.8405,109.322 C284.511498,109.097999 284.217501,108.835502 283.9585,108.5345 C283.699499,108.233498 283.493001,107.883502 283.339,107.4845 C283.184999,107.085498 283.108,106.634003 283.108,106.13 C283.108,105.569997 283.226999,105.041502 283.465,104.5445 C283.703001,104.047498 284.038998,103.613502 284.473,103.2425 C284.907002,102.871498 285.421497,102.581001 286.0165,102.371 C286.611503,102.160999 287.265996,102.056 287.98,102.056 C288.778004,102.056 289.565496,102.209998 290.3425,102.518 C291.119504,102.826002 291.801997,103.273997 292.39,103.862 L290.815,105.815 C290.366998,105.464998 289.919002,105.195501 289.471,105.0065 C289.022998,104.817499 288.526003,104.723 287.98,104.723 C287.447997,104.723 287.024502,104.831499 286.7095,105.0485 C286.394498,105.265501 286.237,105.569998 286.237,105.962 C286.237,106.172001 286.289499,106.350499 286.3945,106.4975 C286.499501,106.644501 286.646499,106.777499 286.8355,106.8965 C287.024501,107.015501 287.244999,107.127499 287.497,107.2325 C287.749001,107.337501 288.021999,107.452999 288.316,107.579 L290.08,108.293 C290.920004,108.629002 291.581498,109.090997 292.0645,109.679 C292.547502,110.267003 292.789,111.043995 292.789,112.01 C292.789,112.584003 292.673501,113.126497 292.4425,113.6375 C292.211499,114.148503 291.875502,114.596498 291.4345,114.9815 C290.993498,115.366502 290.451003,115.674499 289.807,115.9055 C289.162997,116.136501 288.435004,116.252 287.623,116.252 C286.726996,116.252 285.834504,116.087502 284.9455,115.7585 C284.056496,115.429498 283.262003,114.936003 282.562,114.278 L284.326,112.157 Z M294.259,110.792 C294.259,109.951996 294.398999,109.192503 294.679,108.5135 C294.959001,107.834497 295.326498,107.260502 295.7815,106.7915 C296.236502,106.322498 296.757997,105.962001 297.346,105.71 C297.934003,105.457999 298.542997,105.332 299.173,105.332 C299.915004,105.332 300.562497,105.457999 301.1155,105.71 C301.668503,105.962001 302.130498,106.311998 302.5015,106.76 C302.872502,107.208002 303.148999,107.736497 303.331,108.3455 C303.513001,108.954503 303.604,109.615996 303.604,110.33 C303.604,110.610001 303.59,110.865499 303.562,111.0965 C303.534,111.327501 303.506,111.505999 303.478,111.632 L297.241,111.632 C297.381001,112.430004 297.692498,113.007498 298.1755,113.3645 C298.658502,113.721502 299.249997,113.9 299.95,113.9 C300.692004,113.9 301.440996,113.669002 302.197,113.207 L303.226,115.076 C302.693997,115.440002 302.102503,115.726999 301.4515,115.937 C300.800497,116.147001 300.160003,116.252 299.53,116.252 C298.787996,116.252 298.095003,116.129501 297.451,115.8845 C296.806997,115.639499 296.247002,115.282502 295.771,114.8135 C295.294998,114.344498 294.924001,113.774003 294.658,113.102 C294.391999,112.429997 294.259,111.660004 294.259,110.792 Z M300.979,109.721 C300.979,109.118997 300.846001,108.629002 300.58,108.251 C300.313999,107.872998 299.866003,107.684 299.236,107.684 C298.745998,107.684 298.315502,107.848498 297.9445,108.1775 C297.573498,108.506502 297.332001,109.020997 297.22,109.721 L300.979,109.721 Z M305.746,101.279 L308.833,101.279 L308.833,112.892 C308.833,113.214002 308.892499,113.437999 309.0115,113.564 C309.130501,113.690001 309.252999,113.753 309.379,113.753 L309.5575,113.753 C309.6065,113.753 309.673,113.739 309.757,113.711 L310.135,116 C309.966999,116.07 309.753501,116.1295 309.4945,116.1785 C309.235499,116.2275 308.931002,116.252 308.581,116.252 C308.048997,116.252 307.601002,116.168001 307.237,116 C306.872998,115.831999 306.582501,115.597502 306.3655,115.2965 C306.148499,114.995498 305.991,114.631502 305.893,114.2045 C305.795,113.777498 305.746,113.298003 305.746,112.766 L305.746,101.279 Z M311.143,110.792 C311.143,109.951996 311.282999,109.192503 311.563,108.5135 C311.843001,107.834497 312.210498,107.260502 312.6655,106.7915 C313.120502,106.322498 313.641997,105.962001 314.23,105.71 C314.818003,105.457999 315.426997,105.332 316.057,105.332 C316.799004,105.332 317.446497,105.457999 317.9995,105.71 C318.552503,105.962001 319.014498,106.311998 319.3855,106.76 C319.756502,107.208002 320.032999,107.736497 320.215,108.3455 C320.397001,108.954503 320.488,109.615996 320.488,110.33 C320.488,110.610001 320.474,110.865499 320.446,111.0965 C320.418,111.327501 320.39,111.505999 320.362,111.632 L314.125,111.632 C314.265001,112.430004 314.576498,113.007498 315.0595,113.3645 C315.542502,113.721502 316.133997,113.9 316.834,113.9 C317.576004,113.9 318.324996,113.669002 319.081,113.207 L320.11,115.076 C319.577997,115.440002 318.986503,115.726999 318.3355,115.937 C317.684497,116.147001 317.044003,116.252 316.414,116.252 C315.671996,116.252 314.979003,116.129501 314.335,115.8845 C313.690997,115.639499 313.131002,115.282502 312.655,114.8135 C312.178998,114.344498 311.808001,113.774003 311.542,113.102 C311.275999,112.429997 311.143,111.660004 311.143,110.792 Z M317.863,109.721 C317.863,109.118997 317.730001,108.629002 317.464,108.251 C317.197999,107.872998 316.750003,107.684 316.12,107.684 C315.629998,107.684 315.199502,107.848498 314.8285,108.1775 C314.457498,108.506502 314.216001,109.020997 314.104,109.721 L317.863,109.721 Z M322.021,110.792 C322.021,109.923996 322.167999,109.150503 322.462,108.4715 C322.756001,107.792497 323.151498,107.222002 323.6485,106.76 C324.145502,106.297998 324.722997,105.944501 325.381,105.6995 C326.039003,105.454499 326.724996,105.332 327.439,105.332 C328.083003,105.332 328.663997,105.440499 329.182,105.6575 C329.700003,105.874501 330.133998,106.164998 330.484,106.529 L329.077,108.44 C328.586998,108.033998 328.104002,107.831 327.628,107.831 C326.871996,107.831 326.277002,108.096997 325.843,108.629 C325.408998,109.161003 325.192,109.881995 325.192,110.792 C325.192,111.702005 325.412498,112.422997 325.8535,112.955 C326.294502,113.487003 326.850997,113.753 327.523,113.753 C327.901002,113.753 328.243998,113.676001 328.552,113.522 C328.860002,113.367999 329.139999,113.193001 329.392,112.997 L330.631,114.95 C330.126997,115.398002 329.567003,115.726999 328.951,115.937 C328.334997,116.147001 327.740003,116.252 327.166,116.252 C326.437996,116.252 325.762503,116.129501 325.1395,115.8845 C324.516497,115.639499 323.974002,115.286002 323.512,114.824 C323.049998,114.361998 322.686001,113.791503 322.42,113.1125 C322.153999,112.433497 322.021,111.660004 322.021,110.792 Z M332.857,107.999 L331.429,107.999 L331.429,105.71 L333.025,105.584 L333.382,102.812 L335.944,102.812 L335.944,105.584 L338.443,105.584 L338.443,107.999 L335.944,107.999 L335.944,112.178 C335.944,112.766003 336.066499,113.189499 336.3115,113.4485 C336.556501,113.707501 336.881998,113.837 337.288,113.837 C337.456001,113.837 337.627499,113.816 337.8025,113.774 C337.977501,113.732 338.134999,113.683 338.275,113.627 L338.758,115.874 C338.477999,115.958 338.149002,116.042 337.771,116.126 C337.392998,116.21 336.952003,116.252 336.448,116.252 C335.803997,116.252 335.254502,116.154001 334.7995,115.958 C334.344498,115.761999 333.973501,115.489002 333.6865,115.139 C333.399499,114.788998 333.189501,114.365502 333.0565,113.8685 C332.923499,113.371498 332.857,112.822003 332.857,112.22 L332.857,107.999 Z M342.013,104.051 C341.494997,104.051 341.068002,103.900502 340.732,103.5995 C340.395998,103.298498 340.228,102.910002 340.228,102.434 C340.228,101.957998 340.395998,101.573001 340.732,101.279 C341.068002,100.984999 341.494997,100.838 342.013,100.838 C342.545003,100.838 342.975498,100.984999 343.3045,101.279 C343.633502,101.573001 343.798,101.957998 343.798,102.434 C343.798,102.910002 343.633502,103.298498 343.3045,103.5995 C342.975498,103.900502 342.545003,104.051 342.013,104.051 Z M340.48,105.584 L343.567,105.584 L343.567,116 L340.48,116 L340.48,105.584 Z M345.667,110.792 C345.667,109.923996 345.806999,109.150503 346.087,108.4715 C346.367001,107.792497 346.741498,107.222002 347.2105,106.76 C347.679502,106.297998 348.221997,105.944501 348.838,105.6995 C349.454003,105.454499 350.090997,105.332 350.749,105.332 C351.407003,105.332 352.040497,105.454499 352.6495,105.6995 C353.258503,105.944501 353.797498,106.297998 354.2665,106.76 C354.735502,107.222002 355.109999,107.792497 355.39,108.4715 C355.670001,109.150503 355.81,109.923996 355.81,110.792 C355.81,111.660004 355.670001,112.433497 355.39,113.1125 C355.109999,113.791503 354.735502,114.361998 354.2665,114.824 C353.797498,115.286002 353.258503,115.639499 352.6495,115.8845 C352.040497,116.129501 351.407003,116.252 350.749,116.252 C350.090997,116.252 349.454003,116.129501 348.838,115.8845 C348.221997,115.639499 347.679502,115.286002 347.2105,114.824 C346.741498,114.361998 346.367001,113.791503 346.087,113.1125 C345.806999,112.433497 345.667,111.660004 345.667,110.792 Z M348.838,110.792 C348.838,111.702005 348.995498,112.422997 349.3105,112.955 C349.625502,113.487003 350.104997,113.753 350.749,113.753 C351.379003,113.753 351.854998,113.487003 352.177,112.955 C352.499002,112.422997 352.66,111.702005 352.66,110.792 C352.66,109.881995 352.499002,109.161003 352.177,108.629 C351.854998,108.096997 351.379003,107.831 350.749,107.831 C350.104997,107.831 349.625502,108.096997 349.3105,108.629 C348.995498,109.161003 348.838,109.881995 348.838,110.792 Z M357.931,105.584 L360.451,105.584 L360.661,106.907 L360.745,106.907 C361.193002,106.486998 361.682997,106.119502 362.215,105.8045 C362.747003,105.489498 363.369996,105.332 364.084,105.332 C365.218006,105.332 366.040497,105.702996 366.5515,106.445 C367.062503,107.187004 367.318,108.215993 367.318,109.532 L367.318,116 L364.231,116 L364.231,109.931 C364.231,109.174996 364.129501,108.657001 363.9265,108.377 C363.723499,108.096999 363.398002,107.957 362.95,107.957 C362.557998,107.957 362.222001,108.044499 361.942,108.2195 C361.661999,108.394501 361.354002,108.642998 361.018,108.965 L361.018,116 L357.931,116 L357.931,105.584 Z" id="Text-Selection" fill="#79797B"></path>
            <path d="M186.5,141 L420.502137,141" id="Line" stroke="#979797" stroke-width="6" stroke-linecap="square"></path>
            <path d="M174.5,175 L432.501938,175" id="Line" stroke="#979797" stroke-width="4" stroke-linecap="square"></path>
            <path d="M186.5,191 L420.002141,191" id="Line" stroke="#979797" stroke-width="4" stroke-linecap="square"></path>
            <path d="M180.5,207 L425.002045,207" id="Line" stroke="#979797" stroke-width="4" stroke-linecap="square"></path>
            <path d="M184.5,223 L422.002105,223" id="Line" stroke="#979797" stroke-width="4" stroke-linecap="square"></path>
            <path d="M196.5,239 L410,239" id="Line" stroke="#979797" stroke-width="4" stroke-linecap="square"></path>
            <path d="M186.5,255 L421,255" id="Line" stroke="#979797" stroke-width="4" stroke-linecap="square"></path>
            <path d="M214.5,271 L393,271" id="Line" stroke="#979797" stroke-width="4" stroke-linecap="square"></path>
            <g id="signature_dark" transform="translate(228.000000, 301.000000)" fill-rule="nonzero" fill="#D7D9D9">
                <path d="M12.025,23.643 C11.432997,22.8536627 10.668338,21.756007 9.731,20.35 C3.24363423,19.7086635 0,18.3520104 0,16.28 C0,15.811331 0.240497595,15.4290015 0.7215,15.133 C1.20250241,14.8369985 1.9363284,14.689 2.923,14.689 C5.389679,14.689 7.84398779,16.2553177 10.286,19.388 C12.752679,19.6346679 15.5523177,19.758 18.685,19.758 L19.092,19.758 C22.2493491,17.8586572 25.1846531,15.9470096 27.898,14.023 C29.0080056,12.0003232 29.9699959,10.3291733 30.784,9.0095 C31.5980041,7.68982674 32.5846609,6.31467382 33.744,4.884 C36.0380115,1.97331878 38.4553206,0.518 40.996,0.518 C41.6620033,0.518 41.995,0.81399704 41.995,1.406 C41.995,2.83667382 40.8110118,4.71132174 38.443,7.03 C36.0749882,9.34867826 32.9300196,11.8399867 29.008,14.504 C27.8239941,16.7733447 26.936003,18.4259948 26.344,19.462 C29.7973506,19.1906653 32.288659,18.7713362 33.818,18.204 L33.929,18.204 C34.0276672,18.204 34.077,18.2718327 34.077,18.4075 C34.077,18.5431673 33.9906675,18.7343321 33.818,18.981 C31.9679908,19.5483362 29.3040174,19.9923317 25.826,20.313 C24.4939933,22.6070115 23.2051729,24.3891603 21.9595,25.6595 C20.7138271,26.9298397 19.4620063,27.565 18.204,27.565 C16.1813232,27.565 14.2696757,26.4426779 12.469,24.198 C8.94164903,25.9740089 5.8213469,27.330662 3.108,28.268 C2.73799815,28.3913339 2.3125024,28.453 1.8315,28.453 C1.35049759,28.453 1.11,28.2680019 1.11,27.898 C1.11,27.7006657 1.20866568,27.5218341 1.406,27.3615 C1.60333432,27.2011659 1.86233173,27.121 2.183,27.121 C4.1563432,27.121 7.43697706,25.9616783 12.025,23.643 Z M19.092,20.683 C17.217324,21.743672 15.3673425,22.742662 13.542,23.68 C15.1946749,25.7273436 16.6993266,26.751 18.056,26.751 C19.0673384,26.751 20.072495,26.2083388 21.0715,25.123 C22.070505,24.0376612 23.1743273,22.4713436 24.383,20.424 C22.8783258,20.5473339 21.1146768,20.6336664 19.092,20.683 Z M39.96,1.406 C38.2579915,1.406 36.5436753,2.54065532 34.817,4.81 C33.3863262,6.73400962 31.8200085,9.27465088 30.118,12.432 C33.2260155,10.1379885 35.717324,8.04750944 37.592,6.1605 C39.466676,4.27349056 40.404,2.81200518 40.404,1.776 C40.404,1.5293321 40.2560015,1.406 39.96,1.406 Z M1.776,16.132 C1.776,17.538007 4.15630953,18.5616635 8.917,19.203 C6.99299038,16.6376538 5.05667641,15.355 3.108,15.355 C2.21999556,15.355 1.776,15.6139974 1.776,16.132 Z M13.098,23.125 C14.627341,22.3109959 16.094993,21.4970041 17.501,20.683 L17.353,20.683 C15.2069893,20.683 13.13501,20.6090007 11.137,20.461 C12.074338,21.7683399 12.7279982,22.656331 13.098,23.125 Z M26.899,15.91 C25.5669933,16.7980044 23.4950141,18.0806583 20.683,19.758 C22.5823428,19.7086664 23.9759956,19.6470004 24.864,19.573 C25.332669,18.7589959 26.0109956,17.5380081 26.899,15.91 Z M37.9435,16.354 C38.0791673,16.5020007 38.147,16.7116653 38.147,16.983 C38.147,17.2543347 37.9620018,17.5996646 37.592,18.019 C37.2219981,18.4383354 36.9013347,18.648 36.63,18.648 C36.3586653,18.648 36.1613339,18.5678341 36.038,18.4075 C35.914666,18.2471659 35.853,18.0621677 35.853,17.8525 C35.853,17.6428323 36.0503314,17.303669 36.445,16.835 C36.8396686,16.366331 37.1541655,16.132 37.3885,16.132 C37.6228345,16.132 37.8078327,16.2059993 37.9435,16.354 Z M40.441,21.127 C40.6383343,21.003666 40.7924994,20.942 40.9035,20.942 C41.0145006,20.942 41.07,21.0159993 41.07,21.164 L41.07,21.275 C41.1686672,21.275 40.5088404,21.8176612 39.0905,22.903 C37.6721596,23.9883388 36.1551747,25.0736612 34.5395,26.159 C32.9238253,27.2443388 31.9063354,27.787 31.487,27.787 C30.7716631,27.787 30.414,27.491003 30.414,26.899 C30.414,26.1836631 31.0306605,24.8331766 32.264,22.8475 C33.4973395,20.8618234 34.3976638,19.869 34.965,19.869 C35.3843354,19.869 35.594,20.0293317 35.594,20.35 C35.594,20.6706683 35.0266723,21.5463262 33.892,22.977 C32.7573277,24.4076738 32.19,25.4313302 32.19,26.048 C32.19,26.3933351 32.3194987,26.566 32.5785,26.566 C32.8375013,26.566 33.4849948,26.2206701 34.521,25.53 C36.3710092,24.2966605 38.0729922,23.0510063 39.627,21.793 L40.441,21.127 Z M40.552,20.868 L40.478,20.461 C40.478,20.3376661 40.7369974,20.276 41.255,20.276 C41.5510015,20.276 41.699,20.4609982 41.699,20.831 C41.699,21.2010019 41.2735043,22.0211603 40.4225,23.2915 C39.5714957,24.5618397 39.146,25.2216664 39.146,25.271 C39.146,25.3203336 39.1953328,25.345 39.294,25.345 C39.3926672,25.345 40.5334891,24.4816753 42.7165,22.755 C44.8995109,21.0283247 46.2129978,20.165 46.657,20.165 C47.1010022,20.165 47.323,20.3191651 47.323,20.6275 C47.323,20.9358349 47.1996679,21.2811648 46.953,21.6635 C46.7063321,22.0458352 46.1883373,22.736495 45.399,23.7355 C44.6096627,24.734505 44.1903336,25.2709996 44.141,25.345 C44.0916664,25.4190004 44.067,25.5053328 44.067,25.604 C44.067,25.7026672 44.1471659,25.752 44.3075,25.752 C44.4678341,25.752 45.6826553,24.9133417 47.952,23.236 C50.2213447,21.5586583 51.5163317,20.72 51.837,20.72 C52.1576683,20.72 52.318,20.8556653 52.318,21.127 C52.318,21.6203358 51.7753388,22.4836605 50.69,23.717 C49.6046612,24.9503395 49.062,25.7334983 49.062,26.0665 C49.062,26.3995017 49.1914987,26.566 49.4505,26.566 C49.7095013,26.566 50.3569948,26.2206701 51.393,25.53 C53.2430093,24.2966605 54.9449922,23.0510063 56.499,21.793 L57.313,21.127 C57.5103343,21.0036661 57.6768327,20.942 57.8125,20.942 C57.9481673,20.942 58.016,21.0159993 58.016,21.164 L58.016,21.275 C52.8113073,25.616355 49.5923395,27.787 48.359,27.787 C47.6436631,27.787 47.286,27.491003 47.286,26.899 C47.286,26.4056642 47.6436631,25.6780048 48.359,24.716 C49.0743369,23.7539952 49.432,23.2298338 49.432,23.1435 C49.432,23.0571662 49.401167,23.014 49.3395,23.014 C49.277833,23.014 48.2665098,23.716993 46.3055,25.123 C44.3444902,26.529007 43.1790019,27.232 42.809,27.232 C42.6363325,27.232 42.4883339,27.1641673 42.365,27.0285 C42.241666,26.8928327 42.18,26.7510007 42.18,26.603 C42.18,26.1589978 42.710328,25.2586735 43.771,23.902 C44.831672,22.5699933 45.362,21.842334 45.362,21.719 C45.362,21.5956661 45.2880007,21.534 45.14,21.534 C44.9673325,21.534 43.2160167,22.8906531 39.886,25.604 L38.036,27.084 C37.7153317,27.3553347 37.4748341,27.491 37.3145,27.491 C37.1541659,27.491 37.0000007,27.4478338 36.852,27.3615 C36.7039993,27.2751662 36.63,27.1456675 36.63,26.973 C36.63,26.8003325 36.8458312,26.3810033 37.2775,25.715 C37.7091688,25.0489967 38.2703299,24.2350048 38.961,23.273 C40.021672,21.8423262 40.552,21.0406675 40.552,20.868 Z M60.125,24.124 C61.5063402,24.124 63.1589904,23.3470078 65.083,21.793 L65.712,21.978 C63.2946546,24.0006768 61.2103421,25.012 59.459,25.012 C59.2616657,25.012 59.1136672,24.9996668 59.015,24.975 C58.3489967,25.7890041 57.6213373,26.4488308 56.832,26.9545 C56.0426627,27.4601692 55.352003,27.713 54.76,27.713 C53.822662,27.713 53.354,27.1888386 53.354,26.1405 C53.354,25.0921614 54.2296579,23.6923421 55.981,21.941 C55.6849985,21.2256631 55.537,20.4733373 55.537,19.684 C55.537,18.8946627 55.8206638,18.2533358 56.388,17.76 C56.9553362,17.2666642 57.6151629,17.02 58.3675,17.02 C59.1198371,17.02 59.7549974,17.2666642 60.273,17.76 C60.7910026,18.2533358 61.05,18.9563288 61.05,19.869 C61.05,21.275007 60.5936712,22.680993 59.681,24.087 C59.7796672,24.1116668 59.9276657,24.124 60.125,24.124 Z M58.941,23.754 C59.7056705,22.4713269 60.088,21.3798378 60.088,20.4795 C60.088,19.5791622 59.8660022,18.9131688 59.422,18.4815 C58.9779978,18.0498312 58.5463354,17.834 58.127,17.834 C57.2636623,17.834 56.832,18.2779956 56.832,19.166 C56.832,20.0540044 57.0293314,20.935829 57.424,21.8115 C57.8186686,22.687171 58.3243302,23.3346646 58.941,23.754 Z M54.871,25.937 C54.871,26.4303358 55.1916635,26.677 55.833,26.677 C56.4743365,26.677 57.2883284,26.0233399 58.275,24.716 C57.6089967,24.3706649 57.0170026,23.7663376 56.499,22.903 C55.4136612,24.0870059 54.871,25.0983291 54.871,25.937 Z M80.845,21.275 C75.6403073,25.616355 72.4213395,27.787 71.188,27.787 C70.4726631,27.787 70.115,27.491003 70.115,26.899 C70.115,26.306997 70.380164,25.6040041 70.9105,24.79 C71.440836,23.9759959 71.971164,23.2545031 72.5015,22.6255 C73.031836,21.9964969 73.297,21.6203339 73.297,21.497 C73.297,21.373666 73.2600004,21.312 73.186,21.312 C70.8919885,22.841341 69.5291688,23.7786649 69.0975,24.124 C68.6658312,24.4693351 67.9628382,25.0366627 66.9885,25.826 C66.0141618,26.6153373 65.3790015,27.1086657 65.083,27.306 C64.7869985,27.5033343 64.4663351,27.602 64.121,27.602 C63.7756649,27.602 63.603,27.4540015 63.603,27.158 C63.603,26.8126649 64.2936598,25.7273425 65.675,23.902 C67.0070067,22.0766575 67.673,21.0530011 67.673,20.831 C67.673,20.7816664 67.6298338,20.757 67.5435,20.757 C67.4571662,20.757 66.3903436,21.5093258 64.343,23.014 L64.195,22.459 C65.9463421,21.052993 67.1303302,20.1526686 67.747,19.758 C68.3636697,19.3633314 68.8631648,19.166 69.2455,19.166 C69.6278352,19.166 69.819,19.3509981 69.819,19.721 C69.819,19.9676679 69.1221736,20.9728245 67.7285,22.7365 C66.3348264,24.5001755 65.638,25.4498327 65.638,25.5855 C65.638,25.7211673 65.6811662,25.789 65.7675,25.789 C65.8538338,25.789 67.2598197,24.7961766 69.9855,22.8105 C72.7111803,20.8248234 74.369997,19.832 74.962,19.832 C75.1346675,19.832 75.3011659,19.8998327 75.4615,20.0355 C75.6218341,20.1711673 75.702,20.3006661 75.702,20.424 C75.702,20.7200015 75.0483399,21.7004917 73.741,23.3655 C72.4336601,25.0305083 71.78,25.9739989 71.78,26.196 C71.78,26.4180011 71.9341651,26.529 72.2425,26.529 C72.5508349,26.529 73.2106616,26.1960033 74.222,25.53 C76.0720093,24.3213273 77.7739922,23.0756731 79.328,21.793 L80.142,21.127 C80.3146675,21.003666 80.4749993,20.942 80.623,20.942 C80.7710007,20.942 80.845,21.0159993 80.845,21.164 L80.845,21.275 Z M100.159,27.639 C99.8629985,27.639 99.715,27.4663351 99.715,27.121 C99.715,26.3563295 101.016154,23.30386 103.6185,17.9635 C106.220846,12.62314 107.522,9.53367086 107.522,8.695 C107.522,8.34966494 107.337002,8.177 106.967,8.177 C105.906328,8.177 103.550685,9.79265051 99.9,13.024 C98.2226583,16.8226857 95.916348,20.5719815 92.981,24.272 C90.045652,27.9720185 87.813341,29.822 86.284,29.822 C85.7659974,29.822 85.507,29.5136698 85.507,28.897 C85.9263354,27.0963243 87.2953217,24.8393469 89.614,22.126 C91.9326783,19.4126531 94.6459845,16.7116801 97.754,14.023 C99.0366731,11.087652 99.678,8.79367493 99.678,7.141 C99.678,2.84897854 96.6563635,0.703 90.613,0.703 C88.9849919,0.703 87.5666727,0.83866531 86.358,1.11 C84.0393217,1.57866901 82.7813343,2.40499408 82.584,3.589 C82.6333336,4.97034024 84.0023199,5.96933025 86.691,6.586 C87.8256723,6.8326679 88.9603277,7.09166531 90.095,7.363 C91.2296723,7.63433469 92.1916627,8.05366383 92.981,8.621 C93.7703373,9.18833617 94.165,9.91599556 94.165,10.804 C94.165,11.0013343 94.0910007,11.2664983 93.943,11.5995 C93.7949993,11.9325017 93.6161677,12.099 93.4065,12.099 C93.1968323,12.099 93.092,11.9756679 93.092,11.729 C93.092,11.5809993 93.1474994,11.4206675 93.2585,11.248 C93.3695006,11.0753325 93.425,10.9396672 93.425,10.841 C93.425,10.1503299 91.9696812,9.44733691 89.059,8.732 C87.8256605,8.43599852 86.5985061,8.09683524 85.3775,7.7145 C84.1564939,7.33216475 83.1205043,6.80183673 82.2695,6.1235 C81.4184957,5.44516327 80.993,4.69900407 80.993,3.885 C80.993,3.07099593 81.3938293,2.39883598 82.1955,1.8685 C82.9971707,1.33816402 84.0023273,0.9496679 85.211,0.703 C87.554345,0.23433099 89.6263243,0 91.427,0 C94.485682,0 96.9276575,0.6166605 98.753,1.85 C100.578342,3.0833395 101.491,4.90865458 101.491,7.326 C101.491,8.43600555 101.133337,9.92832396 100.418,11.803 C104.389353,8.62098409 106.929994,7.03 108.04,7.03 C108.360668,7.03 108.638165,7.1533321 108.8725,7.4 C109.106835,7.6466679 109.224,7.94883154 109.224,8.3065 C109.224,8.66416846 108.989669,9.47199371 108.521,10.73 C108.052331,11.9880063 106.985508,14.4053154 105.3205,17.982 C103.655492,21.5586846 102.823,23.3716664 102.823,23.421 C102.823,23.4703336 102.86,23.5196664 102.934,23.569 C103.082001,23.569 103.316332,23.3470022 103.637,22.903 C106.029679,19.5729834 109.618643,15.706522 114.404,11.3035 C119.189357,6.90047798 123.333316,3.93434098 126.836,2.405 C127.551337,2.10899852 128.093998,1.961 128.464,1.961 C128.834002,1.961 129.019,2.0904987 129.019,2.3495 C129.019,2.60850129 128.858668,2.83049907 128.538,3.0155 C128.217332,3.20050093 127.668504,3.55816402 126.8915,4.0885 C126.114496,4.61883599 125.602668,4.99499889 125.356,5.217 C125.109332,5.43900111 124.936667,5.55 124.838,5.55 C124.739333,5.55 124.677667,5.47600074 124.653,5.328 C124.628333,5.17999926 124.572834,5.106 124.4865,5.106 C124.400166,5.106 124.258334,5.14299963 124.061,5.217 C121.076318,6.62300703 117.27769,9.5459778 112.665,13.986 C107.805642,18.6973569 104.37701,22.520652 102.379,25.456 C101.663663,26.4920052 101.151835,27.1148323 100.8435,27.3245 C100.535165,27.5341677 100.307001,27.639 100.159,27.639 Z M87.283,28.49 C88.1956712,28.49 89.6448234,27.1641799 91.6305,24.5125 C93.6161766,21.8608201 95.3983254,18.9440159 96.977,15.762 C94.2389863,18.4013465 91.901843,20.9049882 89.9655,23.273 C88.029157,25.6410118 87.061,27.3059952 87.061,28.268 C87.061,28.4160007 87.1349993,28.49 87.283,28.49 Z M122.47,21.164 C122.642668,21.0406661 122.802999,20.979 122.951,20.979 C123.099001,20.979 123.173,21.0653325 123.173,21.238 L123.173,21.312 C120.607654,23.4333439 118.474009,25.024328 116.772,26.085 C115.069991,27.145672 113.52834,27.676 112.147,27.676 C111.036994,27.676 110.482,27.1333388 110.482,26.048 C110.482,24.4446587 111.295992,22.7981751 112.924,21.1085 C114.552008,19.4188249 115.920994,18.574 117.031,18.574 C117.64767,18.574 117.956,18.9193299 117.956,19.61 C117.832666,20.9666735 115.884019,22.7919885 112.11,25.086 L112.11,25.456 C112.11,26.2700041 112.535496,26.677 113.3865,26.677 C114.237504,26.677 115.156328,26.3933362 116.143,25.826 C118.06701,24.6913277 119.867658,23.3963406 121.545,21.941 L122.47,21.164 Z M116.069,19.721 C115.526331,19.721 114.829504,20.1773288 113.9785,21.09 C113.127496,22.0026712 112.554001,23.0386609 112.258,24.198 C113.442006,23.4826631 114.440996,22.7241707 115.255,21.9225 C116.069004,21.1208293 116.476,20.5535017 116.476,20.2205 C116.476,19.8874983 116.340335,19.721 116.069,19.721 Z M130.943,21.312 L131.794,21.312 C129.499989,23.3840104 127.230678,24.5679985 124.986,24.864 C124.443331,25.6533373 123.80817,26.3316638 123.0805,26.899 C122.35283,27.4663362 121.742336,27.75 121.249,27.75 C120.656997,27.75 120.361,27.4046701 120.361,26.714 C120.361,26.0233299 120.66933,25.0366731 121.286,23.754 C120.200661,22.7919952 119.658,21.7190059 119.658,20.535 C119.658,19.8936635 119.879998,19.3756686 120.324,18.981 C120.768002,18.5863314 121.396996,18.389 122.211,18.389 C123.025004,18.389 123.678664,18.5123321 124.172,18.759 C126.589345,15.0096479 129.364318,11.0506875 132.497,6.882 L134.088,4.773 C134.334668,4.50166531 134.581332,4.366 134.828,4.366 C135.198002,4.366 135.407666,4.55099815 135.457,4.921 L135.457,5.18 C135.457,5.22933358 135.395334,5.34033247 135.272,5.513 C130.412642,11.9016986 127.02101,16.5143191 125.097,19.351 C125.738337,19.9923365 126.059,20.7446623 126.059,21.608 C126.059,22.4713376 125.849335,23.3223291 125.43,24.161 C127.107342,23.9636657 128.94499,23.0140085 130.943,21.312 Z M120.768,20.609 C120.768,21.3490037 121.100997,22.0766631 121.767,22.792 C122.235669,21.9286623 122.913996,20.794007 123.802,19.388 C123.456665,19.1906657 123.074335,19.092 122.655,19.092 C121.396994,19.092 120.768,19.5976616 120.768,20.609 Z M122.618,23.495 C123.210003,23.8650018 123.81433,24.0869996 124.431,24.161 C124.875002,23.3716627 125.097,22.6440033 125.097,21.978 C125.097,21.3119967 124.924335,20.7076694 124.579,20.165 C123.740329,21.3983395 123.086669,22.5083284 122.618,23.495 Z M122.47,26.122 C122.889335,26.122 123.394997,25.7150041 123.987,24.901 C123.394997,24.901 122.803003,24.7406683 122.211,24.42 C122.087666,24.8393354 122.026,25.1476657 122.026,25.345 C122.026,25.8630026 122.173999,26.122 122.47,26.122 Z M140.6,21.164 C140.772668,21.0406661 140.932999,20.979 141.081,20.979 C141.229001,20.979 141.303,21.0653325 141.303,21.238 L141.303,21.312 C138.737654,23.4333439 136.604009,25.024328 134.902,26.085 C133.199991,27.145672 131.65834,27.676 130.277,27.676 C129.166994,27.676 128.612,27.1333388 128.612,26.048 C128.612,24.4446587 129.425992,22.7981751 131.054,21.1085 C132.682008,19.4188249 134.050994,18.574 135.161,18.574 C135.77767,18.574 136.086,18.9193299 136.086,19.61 C135.962666,20.9666735 134.014019,22.7919885 130.24,25.086 L130.24,25.456 C130.24,26.2700041 130.665496,26.677 131.5165,26.677 C132.367504,26.677 133.286328,26.3933362 134.273,25.826 C136.19701,24.6913277 137.997658,23.3963406 139.675,21.941 L140.6,21.164 Z M134.199,19.721 C133.656331,19.721 132.959504,20.1773288 132.1085,21.09 C131.257496,22.0026712 130.684001,23.0386609 130.388,24.198 C131.572006,23.4826631 132.570996,22.7241707 133.385,21.9225 C134.199004,21.1208293 134.606,20.5535017 134.606,20.2205 C134.606,19.8874983 134.470335,19.721 134.199,19.721 Z M148.814,21.164 C148.986668,21.040666 149.146999,20.979 149.295,20.979 C149.443001,20.979 149.517,21.0653325 149.517,21.238 L149.517,21.312 C147.666991,22.7920074 145.841676,24.1794935 144.041,25.4745 C142.240324,26.7695065 140.920671,27.417 140.082,27.417 C139.46533,27.417 139.157,27.0840033 139.157,26.418 C139.157,25.7519967 139.452997,25.0860033 140.045,24.42 C140.637003,23.7539967 141.22283,23.1743358 141.8025,22.681 C142.38217,22.1876642 142.672,21.8608341 142.672,21.7005 C142.672,21.5401659 142.579501,21.3551677 142.3945,21.1455 C142.209499,20.9358323 142.055334,20.7940004 141.932,20.72 C141.512665,21.1393354 140.600007,21.9039944 139.194,23.014 L139.046,22.459 C140.600008,21.2256605 141.500332,20.3993354 141.747,19.98 L141.747,19.647 C141.747,19.0303302 141.808666,18.6110011 141.932,18.389 C142.055334,18.1669989 142.351331,17.8586686 142.82,17.464 C143.288669,17.0693314 143.609332,16.872 143.782,16.872 C143.954668,16.872 144.108833,16.933666 144.2445,17.057 C144.380167,17.1803339 144.448,17.3036661 144.448,17.427 C144.448,17.5503339 144.404834,17.6921659 144.3185,17.8525 C144.232166,18.0128341 144.145834,18.1484994 144.0595,18.2595 C143.973166,18.3705006 143.856001,18.5061659 143.708,18.6665 C143.559999,18.8268341 143.4675,18.937833 143.4305,18.9995 C143.3935,19.061167 143.3565,19.1659993 143.3195,19.314 C143.2825,19.4620007 143.202334,19.5853328 143.079,19.684 C142.955666,19.7826672 142.894,19.9059993 142.894,20.054 C142.894,20.2020007 142.992666,20.5288308 143.19,21.0345 C143.387334,21.5401692 143.486,21.9101655 143.486,22.1445 C143.486,22.3788345 143.029671,22.933829 142.117,23.8095 C141.204329,24.685171 140.748,25.3943306 140.748,25.937 C140.748,26.2330015 140.883665,26.381 141.155,26.381 C141.500335,26.381 142.141662,26.0726697 143.079,25.456 L143.523,25.16 C145.126341,24.0499944 146.630993,22.9276723 148.037,21.793 L148.814,21.164 Z" id="Simon-Weber"></path>
            </g>
            <path d="M277.5,66.5 L329.5,66.5" id="Line" stroke="#4990E2" stroke-width="3" stroke-linecap="square"></path>
        </g>
    </g>
</svg>