<?xml version="1.0" encoding="UTF-8"?>
<svg width="600px" height="401px" viewBox="0 0 600 401" version="1.1" xmlns="http://www.w3.org/2000/svg" xmlns:xlink="http://www.w3.org/1999/xlink">
    <!-- Generator: Sketch 44.1 (41455) - http://www.bohemiancoding.com/sketch -->
    <title>typo09</title>
    <desc>Created with Sketch.</desc>
    <defs></defs>
    <g id="Typo" stroke="none" stroke-width="1" fill="none" fill-rule="evenodd">
        <g id="09">
            <rect id="Rectangle-3" fill="#F8F8F8" x="0" y="0" width="600" height="401"></rect>
            <g id="Group-5" transform="translate(122.000000, 82.000000)">
                <path d="M3.576,15.996 C4.2293366,16.6866701 4.9993289,17.2419979 5.886,17.662 C6.7726711,18.0820021 7.69199524,18.292 8.644,18.292 C9.8573394,18.292 10.7999966,18.0166694 11.472,17.466 C12.1440034,16.9153306 12.48,16.1920045 12.48,15.296 C12.48,14.829331 12.4006675,14.4326683 12.242,14.106 C12.0833325,13.7793317 11.868668,13.4993345 11.598,13.266 C11.327332,13.0326655 11.0053352,12.8226676 10.632,12.636 C10.2586648,12.4493324 9.85733548,12.2533344 9.428,12.048 L6.796,10.9 C6.36666452,10.7133324 5.92800224,10.4893346 5.48,10.228 C5.03199776,9.96666536 4.63066844,9.6493352 4.276,9.276 C3.92133156,8.9026648 3.63200112,8.4593359 3.408,7.946 C3.18399888,7.4326641 3.072,6.84000336 3.072,6.168 C3.072,5.47732988 3.21666522,4.83333632 3.506,4.236 C3.79533478,3.63866368 4.1966641,3.12066886 4.71,2.682 C5.2233359,2.24333114 5.8299965,1.90266788 6.53,1.66 C7.2300035,1.41733212 7.9999958,1.296 8.84,1.296 C9.94133884,1.296 10.958662,1.5059979 11.892,1.926 C12.825338,2.3460021 13.6186634,2.89199664 14.272,3.564 L13.012,5.076 C12.4519972,4.53466396 11.8313367,4.11000154 11.15,3.802 C10.4686633,3.49399846 9.69867096,3.34 8.84,3.34 C7.8133282,3.34 6.98733646,3.57799762 6.362,4.054 C5.73666354,4.53000238 5.424,5.1879958 5.424,6.028 C5.424,6.47600224 5.51266578,6.85399846 5.69,7.162 C5.86733422,7.47000154 6.10533184,7.7406655 6.404,7.974 C6.70266816,8.2073345 7.02933156,8.41266578 7.384,8.59 C7.73866844,8.76733422 8.1026648,8.93066592 8.476,9.08 L11.08,10.2 C11.6026693,10.4240011 12.097331,10.6806652 12.564,10.97 C13.030669,11.2593348 13.4319983,11.5953314 13.768,11.978 C14.1040017,12.3606686 14.369999,12.8086641 14.566,13.322 C14.762001,13.8353359 14.86,14.4279966 14.86,15.1 C14.86,15.8280036 14.7153348,16.5093302 14.426,17.144 C14.1366652,17.7786698 13.721336,18.3339976 13.18,18.81 C12.638664,19.2860024 11.9853372,19.659332 11.22,19.93 C10.4546628,20.200668 9.58667152,20.336 8.616,20.336 C7.32799356,20.336 6.13333884,20.0933358 5.032,19.608 C3.93066116,19.1226642 2.97867068,18.4600042 2.176,17.62 L3.576,15.996 Z M18.248,6.392 L20.152,6.392 L20.348,8.352 L20.432,8.352 C21.0293363,7.6986634 21.6779965,7.15266886 22.378,6.714 C23.0780035,6.27533114 23.8386626,6.056 24.66,6.056 C25.7053386,6.056 26.5219971,6.28466438 27.11,6.742 C27.6980029,7.19933562 28.1319986,7.83866256 28.412,8.66 C29.1213369,7.87599608 29.8353297,7.24600238 30.554,6.77 C31.2726703,6.29399762 32.0519958,6.056 32.892,6.056 C34.292007,6.056 35.3326633,6.50399552 36.014,7.4 C36.6953367,8.29600448 37.036,9.62132456 37.036,11.376 L37.036,20 L34.74,20 L34.74,11.684 C34.74,10.3959936 34.5346687,9.46733618 34.124,8.898 C33.7133313,8.32866382 33.078671,8.044 32.22,8.044 C31.1933282,8.044 30.0546729,8.743993 28.804,10.144 L28.804,20 L26.508,20 L26.508,11.684 C26.508,10.3959936 26.3026687,9.46733618 25.892,8.898 C25.4813313,8.32866382 24.8373377,8.044 23.96,8.044 C22.9333282,8.044 21.7946729,8.743993 20.544,10.144 L20.544,20 L18.248,20 L18.248,6.392 Z M40.788,16.472 C40.788,14.9786592 41.4553267,13.8353373 42.79,13.042 C44.1246733,12.2486627 46.2479854,11.6933349 49.16,11.376 C49.16,10.9466645 49.1180004,10.5266687 49.034,10.116 C48.9499996,9.70533128 48.8006677,9.34133492 48.586,9.024 C48.3713323,8.70666508 48.0866684,8.45000098 47.732,8.254 C47.3773316,8.05799902 46.9200028,7.96 46.36,7.96 C45.5573293,7.96 44.8153367,8.10933184 44.134,8.408 C43.4526633,8.70666816 42.841336,9.0426648 42.3,9.416 L41.376,7.82 C42.0106698,7.40933128 42.7853288,7.01266858 43.7,6.63 C44.6146712,6.24733142 45.6226612,6.056 46.724,6.056 C48.3853416,6.056 49.5893296,6.56466158 50.336,7.582 C51.0826704,8.59933842 51.456,9.95732484 51.456,11.656 L51.456,20 L49.552,20 L49.356,18.376 L49.3,18.376 C48.6466634,18.917336 47.9420038,19.3793314 47.186,19.762 C46.4299962,20.1446686 45.6320042,20.336 44.792,20.336 C43.6346609,20.336 42.6780038,20.0000034 41.922,19.328 C41.1659962,18.6559966 40.788,17.7040062 40.788,16.472 Z M43.056,16.304 C43.056,17.0880039 43.2846644,17.6479983 43.742,17.984 C44.1993356,18.3200017 44.7639966,18.488 45.436,18.488 C46.0893366,18.488 46.7099971,18.3340015 47.298,18.026 C47.8860029,17.7179985 48.5066634,17.2653363 49.16,16.668 L49.16,12.888 C48.0213276,13.0373341 47.0600039,13.2146656 46.276,13.42 C45.4919961,13.6253344 44.8620024,13.8679986 44.386,14.148 C43.9099976,14.4280014 43.5693344,14.7499982 43.364,15.114 C43.1586656,15.4780018 43.056,15.8746645 43.056,16.304 Z M55.796,0.064 L58.092,0.064 L58.092,17.424 C58.092,17.7973352 58.1573327,18.0586659 58.288,18.208 C58.4186673,18.3573341 58.5679992,18.432 58.736,18.432 L58.946,18.432 C59.0113337,18.432 59.1093327,18.4133335 59.24,18.376 L59.548,20.112 C59.3986659,20.186667 59.2213344,20.2426665 59.016,20.28 C58.8106656,20.3173335 58.5493349,20.336 58.232,20.336 C57.3546623,20.336 56.7293352,20.0746693 56.356,19.552 C55.9826648,19.0293307 55.796,18.264005 55.796,17.256 L55.796,0.064 Z M62.936,0.064 L65.232,0.064 L65.232,17.424 C65.232,17.7973352 65.2973327,18.0586659 65.428,18.208 C65.5586673,18.3573341 65.7079992,18.432 65.876,18.432 L66.086,18.432 C66.1513337,18.432 66.2493327,18.4133335 66.38,18.376 L66.688,20.112 C66.5386659,20.186667 66.3613344,20.2426665 66.156,20.28 C65.9506656,20.3173335 65.6893349,20.336 65.372,20.336 C64.4946623,20.336 63.8693352,20.0746693 63.496,19.552 C63.1226648,19.0293307 62.936,18.264005 62.936,17.256 L62.936,0.064 Z M79.764,3.592 L74.22,3.592 L74.22,1.632 L87.66,1.632 L87.66,3.592 L82.116,3.592 L82.116,20 L79.764,20 L79.764,3.592 Z M89.732,13.224 C89.732,12.1039944 89.9046649,11.1006711 90.25,10.214 C90.5953351,9.3273289 91.0526638,8.57600308 91.622,7.96 C92.1913362,7.34399692 92.8399964,6.8726683 93.568,6.546 C94.2960036,6.2193317 95.0519961,6.056 95.836,6.056 C96.694671,6.056 97.4646633,6.20533184 98.146,6.504 C98.8273367,6.80266816 99.3966644,7.2319972 99.854,7.792 C100.311336,8.3520028 100.661332,9.02399608 100.904,9.808 C101.146668,10.5920039 101.268,11.4693285 101.268,12.44 C101.268,12.9440025 101.24,13.3639983 101.184,13.7 L92,13.7 C92.0933338,15.174674 92.5459959,16.341329 93.358,17.2 C94.1700041,18.058671 95.2293268,18.488 96.536,18.488 C97.1893366,18.488 97.7913306,18.390001 98.342,18.194 C98.8926694,17.997999 99.4199975,17.7413349 99.924,17.424 L100.736,18.936 C100.138664,19.3093352 99.4760036,19.6359986 98.748,19.916 C98.0199964,20.1960014 97.189338,20.336 96.256,20.336 C95.3413288,20.336 94.4873373,20.1726683 93.694,19.846 C92.9006627,19.5193317 92.2100029,19.0526697 91.622,18.446 C91.0339971,17.8393303 90.5720017,17.0973377 90.236,16.22 C89.8999983,15.3426623 89.732,14.3440056 89.732,13.224 Z M99.252,12.188 C99.252,10.787993 98.9580029,9.71933702 98.37,8.982 C97.7819971,8.24466298 96.9560053,7.876 95.892,7.876 C95.4066642,7.876 94.9446689,7.97399902 94.506,8.17 C94.0673311,8.36600098 93.6706684,8.64599818 93.316,9.01 C92.9613316,9.37400182 92.6673345,9.82199734 92.434,10.354 C92.2006655,10.8860027 92.046667,11.4973299 91.972,12.188 L99.252,12.188 Z M107.176,12.888 L103.06,6.392 L105.552,6.392 L107.372,9.388 C107.577334,9.7613352 107.791999,10.1393314 108.016,10.522 C108.240001,10.9046686 108.473332,11.2826648 108.716,11.656 L108.828,11.656 C109.033334,11.2826648 109.238666,10.9046686 109.444,10.522 C109.649334,10.1393314 109.854666,9.7613352 110.06,9.388 L111.712,6.392 L114.12,6.392 L110.004,13.14 L114.428,20 L111.936,20 L109.948,16.836 L109.22,15.604 C108.977332,15.1933313 108.725335,14.792002 108.464,14.4 L108.352,14.4 C108.109332,14.792002 107.876001,15.1886647 107.652,15.59 C107.427999,15.9913353 107.204001,16.4066645 106.98,16.836 L105.132,20 L102.724,20 L107.176,12.888 Z M117.508,8.268 L115.492,8.268 L115.492,6.532 L117.62,6.392 L117.9,2.584 L119.832,2.584 L119.832,6.392 L123.5,6.392 L123.5,8.268 L119.832,8.268 L119.832,15.828 C119.832,16.6680042 119.985998,17.3166644 120.294,17.774 C120.602002,18.2313356 121.147996,18.46 121.932,18.46 C122.174668,18.46 122.435999,18.422667 122.716,18.348 C122.996001,18.273333 123.247999,18.1893338 123.472,18.096 L123.92,19.832 C123.546665,19.9626673 123.140669,20.0793328 122.702,20.182 C122.263331,20.2846672 121.829335,20.336 121.4,20.336 C120.671996,20.336 120.060669,20.2240011 119.566,20 C119.071331,19.7759989 118.670002,19.468002 118.362,19.076 C118.053998,18.683998 117.834667,18.2080028 117.704,17.648 C117.573333,17.0879972 117.508,16.4720034 117.508,15.8 L117.508,8.268 Z M3.576,48.996 C4.2293366,49.6866701 4.9993289,50.2419979 5.886,50.662 C6.7726711,51.0820021 7.69199524,51.292 8.644,51.292 C9.8573394,51.292 10.7999966,51.0166694 11.472,50.466 C12.1440034,49.9153306 12.48,49.1920045 12.48,48.296 C12.48,47.829331 12.4006675,47.4326683 12.242,47.106 C12.0833325,46.7793317 11.868668,46.4993345 11.598,46.266 C11.327332,46.0326655 11.0053352,45.8226676 10.632,45.636 C10.2586648,45.4493324 9.85733548,45.2533344 9.428,45.048 L6.796,43.9 C6.36666452,43.7133324 5.92800224,43.4893346 5.48,43.228 C5.03199776,42.9666654 4.63066844,42.6493352 4.276,42.276 C3.92133156,41.9026648 3.63200112,41.4593359 3.408,40.946 C3.18399888,40.4326641 3.072,39.8400034 3.072,39.168 C3.072,38.4773299 3.21666522,37.8333363 3.506,37.236 C3.79533478,36.6386637 4.1966641,36.1206689 4.71,35.682 C5.2233359,35.2433311 5.8299965,34.9026679 6.53,34.66 C7.2300035,34.4173321 7.9999958,34.296 8.84,34.296 C9.94133884,34.296 10.958662,34.5059979 11.892,34.926 C12.825338,35.3460021 13.6186634,35.8919966 14.272,36.564 L13.012,38.076 C12.4519972,37.534664 11.8313367,37.1100015 11.15,36.802 C10.4686633,36.4939985 9.69867096,36.34 8.84,36.34 C7.8133282,36.34 6.98733646,36.5779976 6.362,37.054 C5.73666354,37.5300024 5.424,38.1879958 5.424,39.028 C5.424,39.4760022 5.51266578,39.8539985 5.69,40.162 C5.86733422,40.4700015 6.10533184,40.7406655 6.404,40.974 C6.70266816,41.2073345 7.02933156,41.4126658 7.384,41.59 C7.73866844,41.7673342 8.1026648,41.9306659 8.476,42.08 L11.08,43.2 C11.6026693,43.4240011 12.097331,43.6806652 12.564,43.97 C13.030669,44.2593348 13.4319983,44.5953314 13.768,44.978 C14.1040017,45.3606686 14.369999,45.8086641 14.566,46.322 C14.762001,46.8353359 14.86,47.4279966 14.86,48.1 C14.86,48.8280036 14.7153348,49.5093302 14.426,50.144 C14.1366652,50.7786698 13.721336,51.3339976 13.18,51.81 C12.638664,52.2860024 11.9853372,52.659332 11.22,52.93 C10.4546628,53.200668 9.58667152,53.336 8.616,53.336 C7.32799356,53.336 6.13333884,53.0933358 5.032,52.608 C3.93066116,52.1226642 2.97867068,51.4600042 2.176,50.62 L3.576,48.996 Z M17.24,46.224 C17.24,45.1039944 17.4126649,44.1006711 17.758,43.214 C18.1033351,42.3273289 18.5606638,41.5760031 19.13,40.96 C19.6993362,40.3439969 20.3479964,39.8726683 21.076,39.546 C21.8040036,39.2193317 22.5599961,39.056 23.344,39.056 C24.202671,39.056 24.9726633,39.2053318 25.654,39.504 C26.3353367,39.8026682 26.9046644,40.2319972 27.362,40.792 C27.8193356,41.3520028 28.1693321,42.0239961 28.412,42.808 C28.6546679,43.5920039 28.776,44.4693285 28.776,45.44 C28.776,45.9440025 28.7480003,46.3639983 28.692,46.7 L19.508,46.7 C19.6013338,48.174674 20.0539959,49.341329 20.866,50.2 C21.6780041,51.058671 22.7373268,51.488 24.044,51.488 C24.6973366,51.488 25.2993306,51.390001 25.85,51.194 C26.4006694,50.997999 26.9279975,50.7413349 27.432,50.424 L28.244,51.936 C27.6466637,52.3093352 26.9840036,52.6359986 26.256,52.916 C25.5279964,53.1960014 24.697338,53.336 23.764,53.336 C22.8493288,53.336 21.9953373,53.1726683 21.202,52.846 C20.4086627,52.5193317 19.7180029,52.0526697 19.13,51.446 C18.5419971,50.8393303 18.0800017,50.0973377 17.744,49.22 C17.4079983,48.3426623 17.24,47.3440056 17.24,46.224 Z M26.76,45.188 C26.76,43.787993 26.4660029,42.719337 25.878,41.982 C25.2899971,41.244663 24.4640053,40.876 23.4,40.876 C22.9146642,40.876 22.4526689,40.973999 22.014,41.17 C21.5753311,41.366001 21.1786684,41.6459982 20.824,42.01 C20.4693316,42.3740018 20.1753345,42.8219973 19.942,43.354 C19.7086655,43.8860027 19.554667,44.4973299 19.48,45.188 L26.76,45.188 Z M31.128,46.224 C31.128,45.0853276 31.3053316,44.0726711 31.66,43.186 C32.0146684,42.2993289 32.4906637,41.5480031 33.088,40.932 C33.6853363,40.3159969 34.3806627,39.8493349 35.174,39.532 C35.9673373,39.2146651 36.8026623,39.056 37.68,39.056 C38.5760045,39.056 39.3459968,39.2193317 39.99,39.546 C40.6340032,39.8726683 41.189331,40.2506645 41.656,40.68 L40.508,42.164 C40.0973313,41.8093316 39.6726689,41.5200011 39.234,41.296 C38.7953311,41.0719989 38.305336,40.96 37.764,40.96 C37.1479969,40.96 36.5786693,41.0859987 36.056,41.338 C35.5333307,41.5900013 35.0853352,41.949331 34.712,42.416 C34.3386648,42.882669 34.0446677,43.4379968 33.83,44.082 C33.6153323,44.7260032 33.508,45.4399961 33.508,46.224 C33.508,47.0080039 33.6106656,47.7173302 33.816,48.352 C34.0213344,48.9866698 34.3059982,49.5326644 34.67,49.99 C35.0340018,50.4473356 35.4773307,50.8019987 36,51.054 C36.5226693,51.3060013 37.0919969,51.432 37.708,51.432 C38.3613366,51.432 38.9539973,51.296668 39.486,51.026 C40.0180027,50.755332 40.4893313,50.4333352 40.9,50.06 L41.936,51.572 C41.3199969,52.113336 40.6340038,52.5426651 39.878,52.86 C39.1219962,53.1773349 38.3333374,53.336 37.512,53.336 C36.6159955,53.336 35.7760039,53.1773349 34.992,52.86 C34.2079961,52.5426651 33.5313362,52.0806697 32.962,51.474 C32.3926638,50.8673303 31.9446683,50.1206711 31.618,49.234 C31.2913317,48.3473289 31.128,47.3440056 31.128,46.224 Z M45.296,41.268 L43.28,41.268 L43.28,39.532 L45.408,39.392 L45.688,35.584 L47.62,35.584 L47.62,39.392 L51.288,39.392 L51.288,41.268 L47.62,41.268 L47.62,48.828 C47.62,49.6680042 47.7739985,50.3166644 48.082,50.774 C48.3900015,51.2313356 48.9359961,51.46 49.72,51.46 C49.9626679,51.46 50.2239986,51.422667 50.504,51.348 C50.7840014,51.273333 51.0359989,51.1893338 51.26,51.096 L51.708,52.832 C51.3346648,52.9626673 50.9286689,53.0793328 50.49,53.182 C50.0513311,53.2846672 49.6173355,53.336 49.188,53.336 C48.4599964,53.336 47.8486691,53.2240011 47.354,53 C46.8593309,52.7759989 46.4580015,52.468002 46.15,52.076 C45.8419985,51.683998 45.6226673,51.2080028 45.492,50.648 C45.3613327,50.0879972 45.296,49.4720034 45.296,48.8 L45.296,41.268 Z M55.544,36.592 C55.0959978,36.592 54.7180015,36.4520014 54.41,36.172 C54.1019985,35.8919986 53.948,35.5373355 53.948,35.108 C53.948,34.6599978 54.1019985,34.300668 54.41,34.03 C54.7180015,33.759332 55.0959978,33.624 55.544,33.624 C55.9920022,33.624 56.3699985,33.759332 56.678,34.03 C56.9860015,34.300668 57.14,34.6599978 57.14,35.108 C57.14,35.5373355 56.9860015,35.8919986 56.678,36.172 C56.3699985,36.4520014 55.9920022,36.592 55.544,36.592 Z M54.368,39.392 L56.664,39.392 L56.664,53 L54.368,53 L54.368,39.392 Z M60.248,46.224 C60.248,45.0853276 60.4206649,44.0726711 60.766,43.186 C61.1113351,42.2993289 61.5733304,41.5480031 62.152,40.932 C62.7306696,40.3159969 63.3979962,39.8493349 64.154,39.532 C64.9100038,39.2146651 65.7079958,39.056 66.548,39.056 C67.3880042,39.056 68.1859962,39.2146651 68.942,39.532 C69.6980038,39.8493349 70.3653304,40.3159969 70.944,40.932 C71.5226696,41.5480031 71.9846649,42.2993289 72.33,43.186 C72.6753351,44.0726711 72.848,45.0853276 72.848,46.224 C72.848,47.3440056 72.6753351,48.3473289 72.33,49.234 C71.9846649,50.1206711 71.5226696,50.8673303 70.944,51.474 C70.3653304,52.0806697 69.6980038,52.5426651 68.942,52.86 C68.1859962,53.1773349 67.3880042,53.336 66.548,53.336 C65.7079958,53.336 64.9100038,53.1773349 64.154,52.86 C63.3979962,52.5426651 62.7306696,52.0806697 62.152,51.474 C61.5733304,50.8673303 61.1113351,50.1206711 60.766,49.234 C60.4206649,48.3473289 60.248,47.3440056 60.248,46.224 Z M62.628,46.224 C62.628,47.0080039 62.7213324,47.7173302 62.908,48.352 C63.0946676,48.9866698 63.3606649,49.5326644 63.706,49.99 C64.0513351,50.4473356 64.4666642,50.8019987 64.952,51.054 C65.4373358,51.3060013 65.9693304,51.432 66.548,51.432 C67.1266696,51.432 67.6586642,51.3060013 68.144,51.054 C68.6293358,50.8019987 69.0446649,50.4473356 69.39,49.99 C69.7353351,49.5326644 70.0013324,48.9866698 70.188,48.352 C70.3746676,47.7173302 70.468,47.0080039 70.468,46.224 C70.468,45.4399961 70.3746676,44.7260032 70.188,44.082 C70.0013324,43.4379968 69.7353351,42.882669 69.39,42.416 C69.0446649,41.949331 68.6293358,41.5900013 68.144,41.338 C67.6586642,41.0859987 67.1266696,40.96 66.548,40.96 C65.9693304,40.96 65.4373358,41.0859987 64.952,41.338 C64.4666642,41.5900013 64.0513351,41.949331 63.706,42.416 C63.3606649,42.882669 63.0946676,43.4379968 62.908,44.082 C62.7213324,44.7260032 62.628,45.4399961 62.628,46.224 Z M76.432,39.392 L78.336,39.392 L78.532,41.352 L78.616,41.352 C79.2693366,40.6986634 79.9553297,40.1526689 80.674,39.714 C81.3926703,39.2753311 82.2279952,39.056 83.18,39.056 C84.6173405,39.056 85.66733,39.5039955 86.33,40.4 C86.99267,41.2960045 87.324,42.6213246 87.324,44.376 L87.324,53 L85.028,53 L85.028,44.684 C85.028,43.3959936 84.8226687,42.4673362 84.412,41.898 C84.0013313,41.3286638 83.3480045,41.044 82.452,41.044 C81.7426631,41.044 81.117336,41.2213316 80.576,41.576 C80.034664,41.9306684 79.4186701,42.4533299 78.728,43.144 L78.728,53 L76.432,53 L76.432,39.392 Z" id="Small-Text-Section" fill="#4990E2"></path>
                <path d="M1.5,96 L354.614712,96" id="Line" stroke="#979797" stroke-width="4" stroke-linecap="square"></path>
                <path d="M1.5,113.2 L354.614712,113.2" id="Line" stroke="#979797" stroke-width="4" stroke-linecap="square"></path>
                <path d="M1.5,130.4 L354.614712,130.4" id="Line" stroke="#979797" stroke-width="4" stroke-linecap="square"></path>
                <path d="M1.5,147.6 L354.614712,147.6" id="Line" stroke="#979797" stroke-width="4" stroke-linecap="square"></path>
                <path d="M1.5,164.8 L354.614712,164.8" id="Line" stroke="#979797" stroke-width="4" stroke-linecap="square"></path>
                <path d="M1.5,181 L181,181" id="Line" stroke="#979797" stroke-width="4" stroke-linecap="square"></path>
                <path d="M126,220.12 L126.83,220.12 L126.83,225.97 L129.7,225.97 L129.7,226.68 L126,226.68 L126,220.12 Z M130.86,220.12 L134.64,220.12 L134.64,220.82 L131.69,220.82 L131.69,222.88 L134.18,222.88 L134.18,223.59 L131.69,223.59 L131.69,225.97 L134.74,225.97 L134.74,226.68 L130.86,226.68 L130.86,220.12 Z M138.92,224.01 L138.61,223.01 C138.489999,222.643331 138.376667,222.278335 138.27,221.915 C138.163333,221.551665 138.056667,221.180002 137.95,220.8 L137.91,220.8 C137.81,221.180002 137.706667,221.551665 137.6,221.915 C137.493333,222.278335 137.380001,222.643331 137.26,223.01 L136.95,224.01 L138.92,224.01 Z M139.13,224.68 L136.74,224.68 L136.11,226.68 L135.26,226.68 L137.48,220.12 L138.42,220.12 L140.64,226.68 L139.75,226.68 L139.13,224.68 Z M142.4,223.23 L143.5,223.23 C144.013336,223.23 144.406665,223.125001 144.68,222.915 C144.953335,222.704999 145.09,222.386669 145.09,221.96 C145.09,221.526664 144.953335,221.223334 144.68,221.05 C144.406665,220.876666 144.013336,220.79 143.5,220.79 L142.4,220.79 L142.4,223.23 Z M145.17,226.68 L143.59,223.91 L142.4,223.91 L142.4,226.68 L141.57,226.68 L141.57,220.12 L143.62,220.12 C143.953335,220.12 144.261665,220.151666 144.545,220.215 C144.828335,220.278334 145.071666,220.383333 145.275,220.53 C145.478334,220.676667 145.636666,220.866665 145.75,221.1 C145.863334,221.333334 145.92,221.619998 145.92,221.96 C145.92,222.473336 145.786668,222.883332 145.52,223.19 C145.253332,223.496668 144.896669,223.706666 144.45,223.82 L146.11,226.68 L145.17,226.68 Z M147.38,220.12 L148.24,220.12 L150.61,224.24 L151.32,225.6 L151.36,225.6 C151.34,225.266665 151.318333,224.921668 151.295,224.565 C151.271667,224.208332 151.26,223.856668 151.26,223.51 L151.26,220.12 L152.05,220.12 L152.05,226.68 L151.19,226.68 L148.81,222.55 L148.1,221.2 L148.06,221.2 C148.086667,221.533335 148.111667,221.871665 148.135,222.215 C148.158333,222.558335 148.17,222.903332 148.17,223.25 L148.17,226.68 L147.38,226.68 L147.38,220.12 Z M155.87,220.12 L156.85,220.12 L158.12,223.64 L158.6,224.98 L158.64,224.98 L159.1,223.64 L160.36,220.12 L161.34,220.12 L161.34,226.68 L160.55,226.68 L160.55,223.07 C160.55,222.776665 160.561667,222.453335 160.585,222.1 C160.608333,221.746665 160.633333,221.423335 160.66,221.13 L160.62,221.13 L160.09,222.59 L158.83,226.02 L158.36,226.02 L157.09,222.59 L156.57,221.13 L156.53,221.13 C156.55,221.423335 156.573333,221.746665 156.6,222.1 C156.626667,222.453335 156.64,222.776665 156.64,223.07 L156.64,226.68 L155.87,226.68 L155.87,220.12 Z M165.56,226.8 C165.146665,226.8 164.768335,226.720001 164.425,226.56 C164.081665,226.399999 163.786668,226.171668 163.54,225.875 C163.293332,225.578332 163.101667,225.218335 162.965,224.795 C162.828333,224.371665 162.76,223.896669 162.76,223.37 C162.76,222.843331 162.828333,222.371669 162.965,221.955 C163.101667,221.538331 163.293332,221.185001 163.54,220.895 C163.786668,220.604999 164.081665,220.383334 164.425,220.23 C164.768335,220.076666 165.146665,220 165.56,220 C165.973335,220 166.351665,220.078333 166.695,220.235 C167.038335,220.391667 167.334999,220.614999 167.585,220.905 C167.835001,221.195001 168.028333,221.548331 168.165,221.965 C168.301667,222.381669 168.37,222.849997 168.37,223.37 C168.37,223.896669 168.301667,224.371665 168.165,224.795 C168.028333,225.218335 167.835001,225.578332 167.585,225.875 C167.334999,226.171668 167.038335,226.399999 166.695,226.56 C166.351665,226.720001 165.973335,226.8 165.56,226.8 Z M165.56,226.07 C165.853335,226.07 166.118332,226.006667 166.355,225.88 C166.591668,225.753333 166.794999,225.571668 166.965,225.335 C167.135001,225.098332 167.266666,224.815002 167.36,224.485 C167.453334,224.154998 167.5,223.783335 167.5,223.37 C167.5,222.963331 167.453334,222.596668 167.36,222.27 C167.266666,221.943332 167.135001,221.666668 166.965,221.44 C166.794999,221.213332 166.591668,221.038334 166.355,220.915 C166.118332,220.791666 165.853335,220.73 165.56,220.73 C165.266665,220.73 165.001668,220.791666 164.765,220.915 C164.528332,221.038334 164.325001,221.213332 164.155,221.44 C163.984999,221.666668 163.853334,221.943332 163.76,222.27 C163.666666,222.596668 163.62,222.963331 163.62,223.37 C163.62,223.783335 163.666666,224.154998 163.76,224.485 C163.853334,224.815002 163.984999,225.098332 164.155,225.335 C164.325001,225.571668 164.528332,225.753333 164.765,225.88 C165.001668,226.006667 165.266665,226.07 165.56,226.07 Z M170.61,223.23 L171.71,223.23 C172.223336,223.23 172.616665,223.125001 172.89,222.915 C173.163335,222.704999 173.3,222.386669 173.3,221.96 C173.3,221.526664 173.163335,221.223334 172.89,221.05 C172.616665,220.876666 172.223336,220.79 171.71,220.79 L170.61,220.79 L170.61,223.23 Z M173.38,226.68 L171.8,223.91 L170.61,223.91 L170.61,226.68 L169.78,226.68 L169.78,220.12 L171.83,220.12 C172.163335,220.12 172.471665,220.151666 172.755,220.215 C173.038335,220.278334 173.281666,220.383333 173.485,220.53 C173.688334,220.676667 173.846666,220.866665 173.96,221.1 C174.073334,221.333334 174.13,221.619998 174.13,221.96 C174.13,222.473336 173.996668,222.883332 173.73,223.19 C173.463332,223.496668 173.106669,223.706666 172.66,223.82 L174.32,226.68 L173.38,226.68 Z M175.59,220.12 L179.37,220.12 L179.37,220.82 L176.42,220.82 L176.42,222.88 L178.91,222.88 L178.91,223.59 L176.42,223.59 L176.42,225.97 L179.47,225.97 L179.47,226.68 L175.59,226.68 L175.59,220.12 Z" id="LEARN-MORE" fill="#4990E2"></path>
                <rect id="Rectangle-2" fill="#4990E2" x="0" y="209" width="99" height="28"></rect>
                <rect id="Rectangle-2" stroke="#4990E2" x="103.5" y="209.5" width="98" height="27"></rect>
                <path d="M23,223.4 C23,222.873331 23.0733326,222.400002 23.22,221.98 C23.3666674,221.559998 23.5699987,221.203335 23.83,220.91 C24.0900013,220.616665 24.3983316,220.391667 24.755,220.235 C25.1116685,220.078333 25.4999979,220 25.92,220 C26.320002,220 26.6699985,220.081666 26.97,220.245 C27.2700015,220.408334 27.5166657,220.596666 27.71,220.81 L27.24,221.34 C27.0666658,221.153332 26.8750011,221.005001 26.665,220.895 C26.454999,220.784999 26.2100014,220.73 25.93,220.73 C25.6166651,220.73 25.3333346,220.791666 25.08,220.915 C24.8266654,221.038334 24.6100009,221.214999 24.43,221.445 C24.2499991,221.675001 24.1100005,221.953332 24.01,222.28 C23.9099995,222.606668 23.86,222.973331 23.86,223.38 C23.86,223.793335 23.9083329,224.164998 24.005,224.495 C24.1016672,224.825002 24.2366658,225.106665 24.41,225.34 C24.5833342,225.573334 24.7949987,225.753333 25.045,225.88 C25.2950013,226.006667 25.5766651,226.07 25.89,226.07 C26.2100016,226.07 26.4883322,226.006667 26.725,225.88 C26.9616679,225.753333 27.1866656,225.573334 27.4,225.34 L27.87,225.85 C27.6099987,226.150001 27.3166683,226.383333 26.99,226.55 C26.6633317,226.716667 26.2900021,226.8 25.87,226.8 C25.4566646,226.8 25.0750018,226.723334 24.725,226.57 C24.3749983,226.416666 24.071668,226.195001 23.815,225.905 C23.558332,225.614999 23.358334,225.258335 23.215,224.835 C23.071666,224.411665 23,223.933336 23,223.4 Z M31.51,226.8 C31.0966646,226.8 30.7183351,226.720001 30.375,226.56 C30.0316649,226.399999 29.7366679,226.171668 29.49,225.875 C29.2433321,225.578332 29.0516674,225.218335 28.915,224.795 C28.7783327,224.371665 28.71,223.896669 28.71,223.37 C28.71,222.843331 28.7783327,222.371669 28.915,221.955 C29.0516674,221.538331 29.2433321,221.185001 29.49,220.895 C29.7366679,220.604999 30.0316649,220.383334 30.375,220.23 C30.7183351,220.076666 31.0966646,220 31.51,220 C31.9233354,220 32.301665,220.078333 32.645,220.235 C32.9883351,220.391667 33.2849987,220.614999 33.535,220.905 C33.7850012,221.195001 33.9783327,221.548331 34.115,221.965 C34.2516673,222.381669 34.32,222.849997 34.32,223.37 C34.32,223.896669 34.2516673,224.371665 34.115,224.795 C33.9783327,225.218335 33.7850012,225.578332 33.535,225.875 C33.2849987,226.171668 32.9883351,226.399999 32.645,226.56 C32.301665,226.720001 31.9233354,226.8 31.51,226.8 Z M31.51,226.07 C31.8033348,226.07 32.0683322,226.006667 32.305,225.88 C32.5416679,225.753333 32.7449992,225.571668 32.915,225.335 C33.0850009,225.098332 33.2166662,224.815002 33.31,224.485 C33.4033338,224.154998 33.45,223.783335 33.45,223.37 C33.45,222.963331 33.4033338,222.596668 33.31,222.27 C33.2166662,221.943332 33.0850009,221.666668 32.915,221.44 C32.7449992,221.213332 32.5416679,221.038334 32.305,220.915 C32.0683322,220.791666 31.8033348,220.73 31.51,220.73 C31.2166652,220.73 30.9516679,220.791666 30.715,220.915 C30.4783322,221.038334 30.2750009,221.213332 30.105,221.44 C29.9349992,221.666668 29.8033338,221.943332 29.71,222.27 C29.6166662,222.596668 29.57,222.963331 29.57,223.37 C29.57,223.783335 29.6166662,224.154998 29.71,224.485 C29.8033338,224.815002 29.9349992,225.098332 30.105,225.335 C30.2750009,225.571668 30.4783322,225.753333 30.715,225.88 C30.9516679,226.006667 31.2166652,226.07 31.51,226.07 Z M35.73,220.12 L36.59,220.12 L38.96,224.24 L39.67,225.6 L39.71,225.6 C39.6899999,225.266665 39.6683335,224.921668 39.645,224.565 C39.6216666,224.208332 39.61,223.856668 39.61,223.51 L39.61,220.12 L40.4,220.12 L40.4,226.68 L39.54,226.68 L37.16,222.55 L36.45,221.2 L36.41,221.2 C36.4366668,221.533335 36.4616666,221.871665 36.485,222.215 C36.5083335,222.558335 36.52,222.903332 36.52,223.25 L36.52,226.68 L35.73,226.68 L35.73,220.12 Z M43.56,220.82 L41.58,220.82 L41.58,220.12 L46.38,220.12 L46.38,220.82 L44.4,220.82 L44.4,226.68 L43.56,226.68 L43.56,220.82 Z M50.35,224.01 L50.04,223.01 C49.9199994,222.643331 49.8066672,222.278335 49.7,221.915 C49.5933328,221.551665 49.4866672,221.180002 49.38,220.8 L49.34,220.8 C49.2399995,221.180002 49.1366672,221.551665 49.03,221.915 C48.9233328,222.278335 48.8100006,222.643331 48.69,223.01 L48.38,224.01 L50.35,224.01 Z M50.56,224.68 L48.17,224.68 L47.54,226.68 L46.69,226.68 L48.91,220.12 L49.85,220.12 L52.07,226.68 L51.18,226.68 L50.56,224.68 Z M52.62,223.4 C52.62,222.873331 52.6933326,222.400002 52.84,221.98 C52.9866674,221.559998 53.1899987,221.203335 53.45,220.91 C53.7100013,220.616665 54.0183316,220.391667 54.375,220.235 C54.7316685,220.078333 55.1199979,220 55.54,220 C55.940002,220 56.2899985,220.081666 56.59,220.245 C56.8900015,220.408334 57.1366657,220.596666 57.33,220.81 L56.86,221.34 C56.6866658,221.153332 56.4950011,221.005001 56.285,220.895 C56.074999,220.784999 55.8300014,220.73 55.55,220.73 C55.2366651,220.73 54.9533346,220.791666 54.7,220.915 C54.4466654,221.038334 54.2300009,221.214999 54.05,221.445 C53.8699991,221.675001 53.7300005,221.953332 53.63,222.28 C53.5299995,222.606668 53.48,222.973331 53.48,223.38 C53.48,223.793335 53.5283329,224.164998 53.625,224.495 C53.7216672,224.825002 53.8566658,225.106665 54.03,225.34 C54.2033342,225.573334 54.4149987,225.753333 54.665,225.88 C54.9150013,226.006667 55.1966651,226.07 55.51,226.07 C55.8300016,226.07 56.1083322,226.006667 56.345,225.88 C56.5816679,225.753333 56.8066656,225.573334 57.02,225.34 L57.49,225.85 C57.2299987,226.150001 56.9366683,226.383333 56.61,226.55 C56.2833317,226.716667 55.9100021,226.8 55.49,226.8 C55.0766646,226.8 54.6950018,226.723334 54.345,226.57 C53.9949983,226.416666 53.691668,226.195001 53.435,225.905 C53.178332,225.614999 52.978334,225.258335 52.835,224.835 C52.691666,224.411665 52.62,223.933336 52.62,223.4 Z M60.07,220.82 L58.09,220.82 L58.09,220.12 L62.89,220.12 L62.89,220.82 L60.91,220.82 L60.91,226.68 L60.07,226.68 L60.07,220.82 Z M66.06,220.12 L66.89,220.12 L66.89,223.99 C66.89,224.383335 66.9299996,224.713332 67.01,224.98 C67.0900004,225.246668 67.1983326,225.459999 67.335,225.62 C67.4716674,225.780001 67.6333324,225.895 67.82,225.965 C68.0066676,226.035 68.2066656,226.07 68.42,226.07 C68.6400011,226.07 68.8433324,226.035 69.03,225.965 C69.2166676,225.895 69.3799993,225.780001 69.52,225.62 C69.6600007,225.459999 69.7699996,225.246668 69.85,224.98 C69.9300004,224.713332 69.97,224.383335 69.97,223.99 L69.97,220.12 L70.77,220.12 L70.77,223.97 C70.77,224.496669 70.7100006,224.939998 70.59,225.3 C70.4699994,225.660002 70.305001,225.951666 70.095,226.175 C69.884999,226.398334 69.6366681,226.558333 69.35,226.655 C69.0633319,226.751667 68.753335,226.8 68.42,226.8 C68.086665,226.8 67.7750014,226.751667 67.485,226.655 C67.1949986,226.558333 66.9450011,226.398334 66.735,226.175 C66.5249989,225.951666 66.3600006,225.660002 66.24,225.3 C66.1199994,224.939998 66.06,224.496669 66.06,223.97 L66.06,220.12 Z M72.56,225.25 C72.7933345,225.496668 73.0683318,225.694999 73.385,225.845 C73.7016683,225.995001 74.0299983,226.07 74.37,226.07 C74.8033355,226.07 75.1399988,225.971668 75.38,225.775 C75.6200012,225.578332 75.74,225.320002 75.74,225 C75.74,224.833332 75.7116669,224.691667 75.655,224.575 C75.5983331,224.458333 75.5216672,224.358334 75.425,224.275 C75.3283329,224.191666 75.213334,224.116667 75.08,224.05 C74.946666,223.983333 74.8033341,223.913334 74.65,223.84 L73.71,223.43 C73.5566659,223.363333 73.4000008,223.283334 73.24,223.19 C73.0799992,223.096666 72.9366673,222.983334 72.81,222.85 C72.6833327,222.716666 72.5800004,222.558334 72.5,222.375 C72.4199996,222.191666 72.38,221.980001 72.38,221.74 C72.38,221.493332 72.4316662,221.263334 72.535,221.05 C72.6383339,220.836666 72.7816658,220.651667 72.965,220.495 C73.1483343,220.338333 73.3649988,220.216667 73.615,220.13 C73.8650013,220.043333 74.1399985,220 74.44,220 C74.8333353,220 75.196665,220.074999 75.53,220.225 C75.863335,220.375001 76.1466655,220.569999 76.38,220.81 L75.93,221.35 C75.729999,221.156666 75.5083346,221.005001 75.265,220.895 C75.0216655,220.784999 74.7466682,220.73 74.44,220.73 C74.0733315,220.73 73.7783345,220.814999 73.555,220.985 C73.3316656,221.155001 73.22,221.389998 73.22,221.69 C73.22,221.850001 73.2516664,221.984999 73.315,222.095 C73.3783337,222.205001 73.4633328,222.301666 73.57,222.385 C73.6766672,222.468334 73.7933327,222.541666 73.92,222.605 C74.0466673,222.668334 74.176666,222.726666 74.31,222.78 L75.24,223.18 C75.4266676,223.26 75.6033325,223.351666 75.77,223.455 C75.9366675,223.558334 76.0799994,223.678333 76.2,223.815 C76.3200006,223.951667 76.4149997,224.111666 76.485,224.295 C76.5550004,224.478334 76.59,224.689999 76.59,224.93 C76.59,225.190001 76.5383339,225.433332 76.435,225.66 C76.3316662,225.886668 76.1833343,226.084999 75.99,226.255 C75.7966657,226.425001 75.5633347,226.558333 75.29,226.655 C75.0166653,226.751667 74.7066684,226.8 74.36,226.8 C73.8999977,226.8 73.4733353,226.713334 73.08,226.54 C72.6866647,226.366666 72.3466681,226.130001 72.06,225.83 L72.56,225.25 Z" id="CONTACT-US" fill="#FFFFFF"></path>
            </g>
        </g>
    </g>
</svg>