<svg xmlns="http://www.w3.org/2000/svg" viewBox="0 0 140 85"><path d="M42.386 35.264H46.4c.612 0 1.179.045 1.701.135.522.09.978.249 1.368.477.39.228.696.528.918.9.222.372.333.84.333 1.404 0 .264-.039.528-.117.792a2.47 2.47 0 01-.963 1.35c-.252.18-.546.312-.882.396v.072c.84.156 1.473.456 1.899.9.426.444.639 1.062.639 1.854 0 .6-.117 1.116-.351 1.548a3.022 3.022 0 01-.972 1.071 4.478 4.478 0 01-1.449.63 7.331 7.331 0 01-1.782.207h-4.356V35.264zm3.888 4.734c.648 0 1.119-.129 1.413-.387.294-.258.441-.609.441-1.053 0-.444-.15-.762-.45-.954-.3-.192-.762-.288-1.386-.288h-1.26v2.682h1.242zm.252 4.95c1.452 0 2.178-.534 2.178-1.602 0-.516-.18-.891-.54-1.125-.36-.234-.906-.351-1.638-.351h-1.494v3.078h1.494zm7.848-8.19c-.444 0-.81-.129-1.098-.387a1.28 1.28 0 01-.432-.999c0-.408.144-.738.432-.99.288-.252.654-.378 1.098-.378.456 0 .825.126 1.107.378.282.252.423.582.423.99 0 .408-.141.741-.423.999-.282.258-.651.387-1.107.387zm-1.314 1.314h2.646V47H53.06v-8.928zm6.588 10.044c0 .336.18.591.54.765.36.174.84.261 1.44.261s1.092-.105 1.476-.315c.384-.21.576-.471.576-.783 0-.276-.117-.462-.351-.558-.234-.096-.573-.144-1.017-.144h-.918a8.45 8.45 0 01-.756-.027 3.411 3.411 0 01-.504-.081c-.324.288-.486.582-.486.882zm-2.178.414c0-.72.426-1.32 1.278-1.8v-.072a2.002 2.002 0 01-.594-.594c-.156-.24-.234-.546-.234-.918 0-.324.096-.633.288-.927.192-.294.432-.543.72-.747V43.4c-.312-.216-.591-.525-.837-.927s-.369-.867-.369-1.395c0-.54.102-1.011.306-1.413a2.99 2.99 0 01.819-1.008c.342-.27.735-.471 1.179-.603a4.838 4.838 0 011.386-.198c.528 0 .99.072 1.386.216h3.258v1.926h-1.422c.084.132.153.3.207.504.054.204.081.426.081.666 0 .516-.09.963-.27 1.341-.18.378-.429.69-.747.936-.318.246-.69.429-1.116.549a5.06 5.06 0 01-1.377.18 3.51 3.51 0 01-1.08-.18.903.903 0 00-.252.288.849.849 0 00-.072.378c0 .228.099.396.297.504.198.108.549.162 1.053.162h1.44c1.104 0 1.947.177 2.529.531.582.354.873.933.873 1.737 0 .468-.117.897-.351 1.287-.234.39-.567.726-.999 1.008-.432.282-.954.504-1.566.666-.612.162-1.302.243-2.07.243a7.485 7.485 0 01-1.467-.135 4.389 4.389 0 01-1.188-.405 2.132 2.132 0 01-.801-.702c-.192-.288-.288-.63-.288-1.026zm3.942-5.958c.348 0 .639-.123.873-.369.234-.246.351-.621.351-1.125 0-.468-.117-.825-.351-1.071a1.156 1.156 0 00-.873-.369c-.348 0-.639.12-.873.36-.234.24-.351.6-.351 1.08 0 .504.117.879.351 1.125.234.246.525.369.873.369zm6.444-7.308h2.646v4.518h4.05v-4.518h2.664V47h-2.664v-4.896h-4.05V47h-2.646V35.264zm11.826 2.808h2.646v5.202c0 .648.09 1.092.27 1.332.18.24.462.36.846.36.336 0 .618-.078.846-.234.228-.156.474-.408.738-.756v-5.904h2.646V47h-2.16l-.198-1.242h-.054a4.835 4.835 0 01-1.233 1.071c-.438.258-.963.387-1.575.387-.972 0-1.677-.318-2.115-.954-.438-.636-.657-1.518-.657-2.646v-5.544zm10.314-3.69h2.646v3.096l-.072 1.368a4.152 4.152 0 011.125-.729 3.076 3.076 0 011.233-.261c.54 0 1.026.108 1.458.324a3.23 3.23 0 011.107.909c.306.39.54.864.702 1.422.162.558.243 1.179.243 1.863 0 .768-.105 1.452-.315 2.052-.21.6-.492 1.107-.846 1.521a3.677 3.677 0 01-1.206.945c-.45.216-.915.324-1.395.324a2.76 2.76 0 01-1.197-.288 3.651 3.651 0 01-1.125-.864h-.072l-.216.936h-2.07V34.382zm2.646 10.098c.24.216.48.366.72.45.24.084.474.126.702.126.456 0 .846-.207 1.17-.621.324-.414.486-1.083.486-2.007 0-1.608-.516-2.412-1.548-2.412-.528 0-1.038.27-1.53.81v3.654z" fill="#79797B" fill-rule="evenodd"/></svg>