<svg xmlns="http://www.w3.org/2000/svg" viewBox="0 0 140 85"><path d="M28.262 44.3c0-.25-.088-.442-.264-.577-.176-.136-.493-.272-.951-.41-.458-.139-.823-.292-1.094-.461-.518-.326-.777-.75-.777-1.274 0-.458.187-.836.56-1.133.374-.297.859-.445 1.455-.445.396 0 .75.073 1.059.219.31.146.553.353.73.623.178.27.266.568.266.896h-.984c0-.297-.093-.529-.28-.697-.186-.168-.452-.252-.798-.252-.323 0-.574.07-.752.207a.69.69 0 00-.268.578c0 .209.096.382.29.522.192.139.51.274.952.406.443.131.798.281 1.067.45.268.167.464.36.59.577.125.218.187.472.187.764 0 .474-.182.85-.545 1.13-.363.28-.856.42-1.478.42-.412 0-.79-.075-1.135-.228a1.906 1.906 0 01-.805-.63 1.572 1.572 0 01-.287-.938h.988c0 .323.107.573.32.75.214.177.52.266.919.266.343 0 .602-.07.775-.21a.674.674 0 00.26-.552zm14.565-4.222l1.64 4.36 1.637-4.36h1.278v5.688h-.985V43.89l.098-2.508-1.68 4.383h-.707l-1.676-4.38.098 2.505v1.875h-.984v-5.688h1.281zm21.69 2.992c0 .558-.096 1.047-.289 1.467-.192.42-.468.744-.826.969-.358.225-.77.338-1.236.338-.461 0-.872-.113-1.233-.338a2.22 2.22 0 01-.836-.963c-.196-.417-.296-.897-.298-1.441v-.32c0-.555.098-1.045.294-1.47.197-.424.474-.749.833-.974A2.265 2.265 0 0162.158 40c.463 0 .874.111 1.232.334.358.223.635.543.83.96.196.419.295.905.297 1.46v.316zm-.988-.297c0-.63-.12-1.113-.357-1.449-.239-.336-.577-.504-1.014-.504-.427 0-.761.168-1.002.502-.24.335-.364.808-.37 1.42v.328c0 .625.123 1.108.366 1.45.244.34.581.511 1.014.511.437 0 .774-.166 1.01-.5.235-.333.353-.82.353-1.46v-.298zm17.94.297c0 .558-.096 1.047-.289 1.467-.192.42-.468.744-.826.969-.358.225-.77.338-1.236.338-.461 0-.872-.113-1.233-.338a2.22 2.22 0 01-.836-.963c-.196-.417-.296-.897-.298-1.441v-.32c0-.555.098-1.045.294-1.47.197-.424.474-.749.833-.974A2.265 2.265 0 0179.11 40c.463 0 .874.111 1.232.334.358.223.635.543.83.96.196.419.295.905.297 1.46v.316zm-.988-.297c0-.63-.12-1.113-.357-1.449-.239-.336-.577-.504-1.014-.504-.427 0-.761.168-1.002.502-.24.335-.364.808-.37 1.42v.328c0 .625.123 1.108.366 1.45.244.34.581.511 1.014.511.437 0 .774-.166 1.01-.5.235-.333.353-.82.353-1.46v-.298zm17.179-1.898h-1.774v4.89h-.98v-4.89h-1.758v-.797h4.512v.797zm16.604 2.195c0 .558-.096 1.047-.29 1.467-.192.42-.467.744-.825.969-.358.225-.77.338-1.237.338-.46 0-.871-.113-1.232-.338a2.22 2.22 0 01-.836-.963c-.197-.417-.296-.897-.299-1.441v-.32c0-.555.099-1.045.295-1.47.197-.424.474-.749.832-.974a2.265 2.265 0 011.233-.338c.463 0 .874.111 1.232.334.358.223.635.543.83.96.195.419.294.905.297 1.46v.316zm-.988-.297c0-.63-.12-1.113-.358-1.449-.238-.336-.576-.504-1.013-.504-.428 0-.761.168-1.002.502-.241.335-.364.808-.37 1.42v.328c0 .625.122 1.108.366 1.45.243.34.581.511 1.013.511.438 0 .774-.166 1.01-.5.236-.333.354-.82.354-1.46v-.298z" fill="#79797B" fill-rule="evenodd"/></svg>