<?xml version="1.0" encoding="utf-8"?>
<!-- Generator: Adobe Illustrator 16.0.0, SVG Export Plug-In . SVG Version: 6.00 Build 0)  -->
<!DOCTYPE svg PUBLIC "-//W3C//DTD SVG 1.1//EN" "http://www.w3.org/Graphics/SVG/1.1/DTD/svg11.dtd">
<svg version="1.1" id="Ebene_1" xmlns="http://www.w3.org/2000/svg" xmlns:xlink="http://www.w3.org/1999/xlink" x="0px" y="0px"
	 width="110.5px" height="64.336px" viewBox="0 0 110.5 64.336" enable-background="new 0 0 110.5 64.336" xml:space="preserve">
<g>
	<rect x="79.605" y="55.646" width="5.943" height="1.188"/>
	<rect x="79.605" y="56.834" fill="#DB140C" width="5.943" height="1.188"/>
	<rect x="79.605" y="58.021" fill="#FCCC24" width="5.943" height="1.188"/>
</g>
<path fill="none" stroke="#9B9B9B" stroke-miterlimit="10" d="M110,62.418c0,0.783-0.635,1.418-1.418,1.418H1.917
	c-0.782,0-1.417-0.635-1.417-1.418v-60.5C0.5,1.135,1.135,0.5,1.917,0.5h106.665c0.783,0,1.418,0.635,1.418,1.418V62.418z"/>
<g>
	<circle fill="none" stroke="#6B6B6B" stroke-width="0.75" stroke-miterlimit="10" cx="103.825" cy="57.008" r="1.804"/>
	
		<line fill="none" stroke="#6B6B6B" stroke-width="0.75" stroke-miterlimit="10" x1="105.08" y1="58.568" x2="106.799" y2="60.289"/>
</g>
<line fill="none" stroke="#AAAAAA" stroke-miterlimit="10" x1="76.912" y1="63.919" x2="76.912" y2="0.583"/>
<g>
	<rect x="82.055" y="5.328" fill="#5B5B5B" width="20.359" height="11.501"/>
	<g>
		<path fill="#FFFFFF" d="M84.578,14.155V8.003h1.244v5.298h1.223v0.854H84.578z"/>
		<path fill="#FFFFFF" d="M87.537,12.132v-2.067c0-1.454,0.6-2.182,1.799-2.182c1.201,0,1.801,0.728,1.801,2.182v2.037
			c0,0.246-0.018,0.473-0.055,0.682c-0.037,0.208-0.098,0.406-0.186,0.593s-0.199,0.346-0.336,0.477
			c-0.135,0.132-0.307,0.234-0.514,0.31s-0.445,0.113-0.711,0.113c-0.264,0-0.5-0.037-0.707-0.111
			c-0.209-0.074-0.379-0.175-0.514-0.301c-0.135-0.127-0.246-0.281-0.334-0.465c-0.086-0.184-0.15-0.379-0.188-0.586
			C87.557,12.604,87.537,12.378,87.537,12.132z M89.893,12.412V9.753c0-0.606-0.186-0.909-0.557-0.909
			c-0.111,0-0.207,0.027-0.283,0.084c-0.078,0.056-0.135,0.132-0.172,0.229c-0.037,0.098-0.062,0.193-0.076,0.287
			c-0.016,0.095-0.023,0.197-0.023,0.31v2.659c0,0.604,0.186,0.906,0.555,0.906C89.707,13.318,89.893,13.016,89.893,12.412z"/>
		<path fill="#FFFFFF" d="M91.887,12.23v-2.166c0-1.454,0.605-2.182,1.814-2.182c0.256,0,0.482,0.034,0.682,0.102
			c0.199,0.066,0.367,0.16,0.502,0.278c0.133,0.118,0.244,0.265,0.33,0.438c0.088,0.173,0.15,0.361,0.189,0.563
			c0.037,0.203,0.057,0.427,0.057,0.67v0.363h-1.189V9.865c0-0.106-0.002-0.201-0.008-0.281c-0.006-0.081-0.02-0.171-0.043-0.271
			c-0.023-0.099-0.053-0.181-0.092-0.244s-0.096-0.117-0.168-0.161c-0.072-0.043-0.16-0.064-0.26-0.064
			c-0.381,0-0.57,0.303-0.57,0.909v2.655c0,0.604,0.189,0.906,0.57,0.906c0.379,0,0.568-0.313,0.568-0.939v-0.492h-0.705V10.99
			h1.949v3.165h-0.855l-0.156-0.431c-0.105,0.164-0.254,0.297-0.449,0.398c-0.193,0.102-0.393,0.152-0.598,0.152
			c-0.221,0-0.422-0.041-0.604-0.122s-0.33-0.188-0.447-0.321c-0.117-0.133-0.217-0.289-0.295-0.47
			c-0.08-0.181-0.137-0.364-0.172-0.552C91.904,12.622,91.887,12.43,91.887,12.23z"/>
		<path fill="#FFFFFF" d="M96.293,12.132v-2.067c0-1.454,0.6-2.182,1.797-2.182c1.201,0,1.803,0.728,1.803,2.182v2.037
			c0,0.246-0.02,0.473-0.055,0.682c-0.037,0.208-0.1,0.406-0.188,0.593s-0.199,0.346-0.334,0.477
			c-0.137,0.132-0.307,0.234-0.516,0.31c-0.207,0.075-0.443,0.113-0.711,0.113c-0.264,0-0.5-0.037-0.707-0.111
			s-0.379-0.175-0.512-0.301c-0.135-0.127-0.246-0.281-0.334-0.465s-0.15-0.379-0.188-0.586
			C96.311,12.604,96.293,12.378,96.293,12.132z M98.648,12.412V9.753c0-0.606-0.186-0.909-0.559-0.909
			c-0.111,0-0.205,0.027-0.283,0.084c-0.078,0.056-0.135,0.132-0.17,0.229C97.6,9.254,97.574,9.35,97.559,9.443
			c-0.014,0.095-0.021,0.197-0.021,0.31v2.659c0,0.604,0.184,0.906,0.553,0.906C98.463,13.318,98.648,13.016,98.648,12.412z"/>
	</g>
</g>
<line fill="none" stroke="#505050" stroke-width="2" stroke-miterlimit="10" x1="81.939" y1="25.002" x2="92.152" y2="25.002"/>
<line fill="none" stroke="#D1D1D1" stroke-miterlimit="10" x1="78.084" y1="28.002" x2="108.75" y2="28.002"/>
<line fill="none" stroke="#D1D1D1" stroke-miterlimit="10" x1="78.084" y1="22.002" x2="108.75" y2="22.002"/>
<line fill="none" stroke="#505050" stroke-width="2" stroke-miterlimit="10" x1="81.939" y1="30.668" x2="92.152" y2="30.668"/>
<line fill="none" stroke="#D1D1D1" stroke-miterlimit="10" x1="78.084" y1="33.668" x2="108.75" y2="33.668"/>
<line fill="none" stroke="#505050" stroke-width="2" stroke-miterlimit="10" x1="81.939" y1="36.668" x2="92.152" y2="36.668"/>
<line fill="none" stroke="#D1D1D1" stroke-miterlimit="10" x1="78.084" y1="39.668" x2="108.75" y2="39.668"/>
<line fill="none" stroke="#505050" stroke-width="2" stroke-miterlimit="10" x1="81.939" y1="42.334" x2="92.152" y2="42.334"/>
<line fill="none" stroke="#D1D1D1" stroke-miterlimit="10" x1="78.084" y1="45.334" x2="108.75" y2="45.334"/>
<line fill="none" stroke="#D1D1D1" stroke-miterlimit="10" x1="78.084" y1="28.002" x2="108.75" y2="28.002"/>
<line fill="none" stroke="#D1D1D1" stroke-miterlimit="10" x1="78.084" y1="22.002" x2="108.75" y2="22.002"/>
<line fill="none" stroke="#D1D1D1" stroke-miterlimit="10" x1="78.084" y1="33.668" x2="108.75" y2="33.668"/>
<line fill="none" stroke="#D1D1D1" stroke-miterlimit="10" x1="78.084" y1="39.668" x2="108.75" y2="39.668"/>
<line fill="none" stroke="#D1D1D1" stroke-miterlimit="10" x1="78.084" y1="45.334" x2="108.75" y2="45.334"/>
</svg>
