<?xml version="1.0" encoding="UTF-8" standalone="no"?>
<!-- Generator: Adobe Illustrator 16.0.0, SVG Export Plug-In . SVG Version: 6.00 Build 0)  -->

<svg
   version="1.1"
   id="Ebene_1"
   x="0px"
   y="0px"
   width="110.5px"
   height="37.667px"
   viewBox="0 0 110.5 37.667"
   enable-background="new 0 0 110.5 37.667"
   xml:space="preserve"
   sodipodi:docname="header_classic_v2.svg"
   inkscape:version="1.3.2 (091e20e, 2023-11-25)"
   xmlns:inkscape="http://www.inkscape.org/namespaces/inkscape"
   xmlns:sodipodi="http://sodipodi.sourceforge.net/DTD/sodipodi-0.dtd"
   xmlns="http://www.w3.org/2000/svg"
   xmlns:svg="http://www.w3.org/2000/svg"><defs
   id="defs15" /><sodipodi:namedview
   id="namedview15"
   pagecolor="#ffffff"
   bordercolor="#000000"
   borderopacity="0.25"
   inkscape:showpageshadow="2"
   inkscape:pageopacity="0.0"
   inkscape:pagecheckerboard="0"
   inkscape:deskcolor="#d1d1d1"
   inkscape:zoom="4.6968326"
   inkscape:cx="55.25"
   inkscape:cy="18.842486"
   inkscape:window-width="2048"
   inkscape:window-height="1256"
   inkscape:window-x="0"
   inkscape:window-y="25"
   inkscape:window-maximized="0"
   inkscape:current-layer="Ebene_1" />
<line
   fill="none"
   stroke="#D9D8D8"
   stroke-miterlimit="10"
   x1="7.697"
   y1="18.833"
   x2="102.803"
   y2="18.833"
   id="line1" />



<line
   fill="none"
   stroke="#505050"
   stroke-width="2"
   stroke-miterlimit="10"
   x1="7.697"
   y1="24.418"
   x2="15.803"
   y2="24.418"
   id="line5" />
<line
   fill="none"
   stroke="#505050"
   stroke-width="2"
   stroke-miterlimit="10"
   x1="17.122"
   y1="24.418"
   x2="25.228"
   y2="24.418"
   id="line6" />
<line
   fill="none"
   stroke="#505050"
   stroke-width="2"
   stroke-miterlimit="10"
   x1="26.545"
   y1="24.418"
   x2="34.651"
   y2="24.418"
   id="line7" />
<line
   fill="none"
   stroke="#505050"
   stroke-width="2"
   stroke-miterlimit="10"
   x1="35.97"
   y1="24.418"
   x2="44.076"
   y2="24.418"
   id="line8" />
<rect
   x="96.819"
   y="23.074"
   width="5.944"
   height="1.188"
   id="rect8" />
<rect
   x="96.819"
   y="24.262"
   fill="#DB140C"
   width="5.944"
   height="1.188"
   id="rect9" />
<rect
   x="96.819"
   y="25.449"
   fill="#FCCC24"
   width="5.944"
   height="1.188"
   id="rect10" />
<path
   fill="none"
   stroke="#9B9B9B"
   stroke-miterlimit="10"
   d="M110,35.75c0,0.782-0.635,1.417-1.417,1.417H1.917  c-0.783,0-1.417-0.635-1.417-1.417V1.917C0.5,1.135,1.135,0.5,1.917,0.5h106.665c0.782,0,1.417,0.635,1.417,1.417V35.75z"
   id="path10" />
<g
   id="g10">
	<circle
   fill="none"
   stroke="#6B6B6B"
   stroke-width="0.75"
   stroke-miterlimit="10"
   cx="90.743"
   cy="23.521"
   r="1.803"
   id="circle10" />
	<line
   fill="none"
   stroke="#6B6B6B"
   stroke-width="0.75"
   stroke-miterlimit="10"
   x1="91.998"
   y1="25.082"
   x2="93.716"
   y2="26.803"
   id="line10" />
</g>
<g
   id="g15">
	<rect
   x="7.697"
   y="4.329"
   fill="#5B5B5B"
   width="20.359"
   height="11.5"
   id="rect11" />
	<g
   id="g14">
		<path
   fill="#FFFFFF"
   d="M10.22,13.155V7.003h1.244v5.298h1.224v0.854H10.22z"
   id="path11" />
		<path
   fill="#FFFFFF"
   d="M13.18,11.132V9.064c0-1.454,0.6-2.181,1.798-2.181c1.201,0,1.802,0.727,1.802,2.181v2.037    c0,0.246-0.019,0.473-0.055,0.682c-0.037,0.208-0.099,0.406-0.187,0.593s-0.199,0.346-0.335,0.477    c-0.136,0.131-0.307,0.234-0.515,0.31c-0.207,0.075-0.444,0.113-0.711,0.113c-0.264,0-0.5-0.037-0.707-0.111    c-0.208-0.074-0.379-0.175-0.513-0.301c-0.135-0.127-0.246-0.282-0.334-0.465c-0.087-0.184-0.15-0.379-0.188-0.586    C13.198,11.604,13.18,11.378,13.18,11.132z M15.535,11.412V8.753c0-0.606-0.186-0.909-0.558-0.909    c-0.111,0-0.206,0.028-0.283,0.084c-0.078,0.056-0.135,0.132-0.171,0.229c-0.037,0.097-0.062,0.193-0.077,0.287    c-0.015,0.095-0.022,0.198-0.022,0.31v2.659c0,0.604,0.185,0.906,0.554,0.906C15.35,12.318,15.535,12.016,15.535,11.412z"
   id="path12" />
		<path
   fill="#FFFFFF"
   d="M17.528,11.231V9.064c0-1.454,0.605-2.181,1.815-2.181c0.255,0,0.482,0.034,0.682,0.101    c0.199,0.067,0.366,0.16,0.501,0.278c0.134,0.119,0.245,0.264,0.331,0.438c0.087,0.173,0.149,0.361,0.188,0.564    c0.038,0.203,0.058,0.426,0.058,0.67v0.362h-1.189V8.866c0-0.107-0.003-0.201-0.009-0.282c-0.005-0.081-0.02-0.171-0.042-0.271    c-0.023-0.099-0.054-0.18-0.093-0.244c-0.038-0.064-0.095-0.117-0.167-0.161c-0.073-0.043-0.16-0.065-0.26-0.065    c-0.381,0-0.571,0.303-0.571,0.909v2.656c0,0.604,0.19,0.906,0.571,0.906c0.378,0,0.567-0.313,0.567-0.94v-0.492h-0.704V9.99    h1.948v3.165h-0.854l-0.157-0.431c-0.105,0.164-0.254,0.297-0.448,0.398c-0.193,0.101-0.393,0.152-0.598,0.152    c-0.222,0-0.423-0.041-0.604-0.122c-0.182-0.081-0.33-0.188-0.448-0.321c-0.117-0.133-0.216-0.29-0.295-0.47    c-0.08-0.18-0.137-0.364-0.171-0.552C17.546,11.622,17.528,11.429,17.528,11.231z"
   id="path13" />
		<path
   fill="#FFFFFF"
   d="M21.935,11.132V9.064c0-1.454,0.6-2.181,1.798-2.181c1.201,0,1.802,0.727,1.802,2.181v2.037    c0,0.246-0.019,0.473-0.055,0.682c-0.037,0.208-0.099,0.406-0.187,0.593s-0.199,0.346-0.335,0.477    c-0.136,0.131-0.307,0.234-0.515,0.31c-0.207,0.075-0.444,0.113-0.711,0.113c-0.264,0-0.5-0.037-0.707-0.111    c-0.208-0.074-0.379-0.175-0.513-0.301c-0.135-0.127-0.246-0.282-0.334-0.465c-0.087-0.184-0.15-0.379-0.188-0.586    C21.953,11.604,21.935,11.378,21.935,11.132z M24.29,11.412V8.753c0-0.606-0.186-0.909-0.558-0.909    c-0.111,0-0.206,0.028-0.283,0.084c-0.078,0.056-0.135,0.132-0.171,0.229c-0.037,0.097-0.062,0.193-0.077,0.287    c-0.015,0.095-0.022,0.198-0.022,0.31v2.659c0,0.604,0.185,0.906,0.554,0.906C24.104,12.318,24.29,12.016,24.29,11.412z"
   id="path14" />
	</g>
</g>
</svg>
