<?xml version="1.0" encoding="UTF-8" standalone="no"?>
<!-- Generator: Adobe Illustrator 16.0.0, SVG Export Plug-In . SVG Version: 6.00 Build 0)  -->

<svg
   version="1.1"
   id="Ebene_1"
   x="0px"
   y="0px"
   width="110.5"
   height="37.667999"
   viewBox="0 0 110.5 37.668"
   enable-background="new 0 0 110.5 37.668"
   xml:space="preserve"
   xmlns="http://www.w3.org/2000/svg"
   xmlns:svg="http://www.w3.org/2000/svg"><defs
   id="defs13" />

<line
   fill="none"
   stroke="#505050"
   stroke-width="2"
   stroke-miterlimit="10"
   x1="44.763065"
   y1="17.480959"
   x2="52.869064"
   y2="17.480959"
   id="line1" />
<line
   fill="none"
   stroke="#505050"
   stroke-width="2"
   stroke-miterlimit="10"
   x1="54.187065"
   y1="17.480959"
   x2="62.293064"
   y2="17.480959"
   id="line2" />
<line
   fill="none"
   stroke="#505050"
   stroke-width="2"
   stroke-miterlimit="10"
   x1="63.611065"
   y1="17.480959"
   x2="71.717072"
   y2="17.480959"
   id="line3" />
<line
   fill="none"
   stroke="#505050"
   stroke-width="2"
   stroke-miterlimit="10"
   x1="73.035072"
   y1="17.480959"
   x2="81.141068"
   y2="17.480959"
   id="line4" />
<rect
   x="95.186066"
   y="15.698958"
   width="5.9450002"
   height="1.188"
   id="rect4" />
<rect
   x="95.186066"
   y="16.886959"
   fill="#db140c"
   width="5.9450002"
   height="1.188"
   id="rect5" />
<rect
   x="95.186066"
   y="18.073959"
   fill="#fccc24"
   width="5.9450002"
   height="1.188"
   id="rect6" />
<path
   fill="none"
   stroke="#9b9b9b"
   stroke-miterlimit="10"
   d="m 110,35.75 c 0,0.783 -0.635,1.418 -1.417,1.418 H 1.917 C 1.134,37.168 0.5,36.533 0.5,35.75 V 1.918 C 0.5,1.135 1.135,0.5 1.917,0.5 h 106.666 c 0.782,0 1.417,0.635 1.417,1.418 z"
   id="path6" />
<g
   id="g6"
   transform="translate(-0.25093382,1.4219583)">
	<circle
   fill="none"
   stroke="#6b6b6b"
   stroke-width="0.75"
   stroke-miterlimit="10"
   cx="89.361"
   cy="15.32"
   r="1.803"
   id="circle6" />
	<line
   fill="none"
   stroke="#6b6b6b"
   stroke-width="0.75"
   stroke-miterlimit="10"
   x1="90.614998"
   y1="16.879999"
   x2="92.334999"
   y2="18.601"
   id="line6" />
</g>
<g
   id="g11"
   transform="translate(3.3457843,1.1710245)">
	<rect
   x="7.5339999"
   y="10.895"
   fill="#5b5b5b"
   width="20.358999"
   height="11.5"
   id="rect7" />
	<g
   id="g10">
		<path
   fill="#ffffff"
   d="M 10.056,19.722 V 13.57 H 11.3 v 5.298 h 1.224 v 0.854 z"
   id="path7" />
		<path
   fill="#ffffff"
   d="M 13.016,17.698 V 15.63 c 0,-1.454 0.6,-2.181 1.798,-2.181 1.201,0 1.802,0.727 1.802,2.181 v 2.037 c 0,0.246 -0.019,0.473 -0.055,0.682 -0.037,0.208 -0.099,0.406 -0.187,0.593 -0.088,0.187 -0.199,0.346 -0.335,0.477 -0.136,0.131 -0.307,0.234 -0.515,0.31 -0.207,0.075 -0.444,0.112 -0.711,0.112 -0.264,0 -0.5,-0.037 -0.707,-0.11 -0.208,-0.074 -0.379,-0.175 -0.513,-0.301 -0.135,-0.127 -0.246,-0.282 -0.334,-0.465 -0.087,-0.184 -0.15,-0.379 -0.188,-0.586 -0.036,-0.208 -0.055,-0.435 -0.055,-0.681 z m 2.356,0.281 V 15.32 c 0,-0.606 -0.186,-0.909 -0.558,-0.909 -0.111,0 -0.206,0.028 -0.283,0.084 -0.078,0.056 -0.135,0.132 -0.171,0.229 -0.037,0.097 -0.062,0.193 -0.077,0.287 -0.015,0.095 -0.022,0.198 -0.022,0.31 v 2.659 c 0,0.604 0.185,0.906 0.554,0.906 0.371,-0.002 0.557,-0.303 0.557,-0.907 z"
   id="path8" />
		<path
   fill="#ffffff"
   d="M 17.365,17.797 V 15.63 c 0,-1.454 0.605,-2.181 1.815,-2.181 0.255,0 0.482,0.034 0.682,0.101 0.199,0.067 0.366,0.16 0.501,0.278 0.134,0.119 0.245,0.264 0.331,0.438 0.087,0.173 0.149,0.361 0.188,0.564 0.038,0.203 0.058,0.426 0.058,0.67 v 0.362 h -1.19 v -0.431 c 0,-0.107 -0.003,-0.201 -0.009,-0.282 -0.005,-0.081 -0.02,-0.171 -0.042,-0.271 -0.023,-0.099 -0.054,-0.18 -0.093,-0.244 -0.038,-0.064 -0.095,-0.117 -0.167,-0.161 -0.073,-0.043 -0.16,-0.065 -0.26,-0.065 -0.381,0 -0.571,0.303 -0.571,0.909 v 2.656 c 0,0.604 0.19,0.906 0.571,0.906 0.378,0 0.567,-0.313 0.567,-0.94 v -0.492 h -0.704 v -0.892 h 1.948 v 3.165 h -0.854 l -0.157,-0.431 c -0.105,0.164 -0.254,0.297 -0.448,0.398 -0.193,0.101 -0.393,0.151 -0.598,0.151 -0.222,0 -0.423,-0.04 -0.604,-0.121 -0.182,-0.08 -0.33,-0.188 -0.448,-0.321 -0.117,-0.133 -0.216,-0.29 -0.295,-0.47 -0.08,-0.18 -0.137,-0.364 -0.171,-0.552 -0.033,-0.186 -0.05,-0.378 -0.05,-0.577 z"
   id="path9" />
		<path
   fill="#ffffff"
   d="M 21.771,17.698 V 15.63 c 0,-1.454 0.6,-2.181 1.798,-2.181 1.201,0 1.802,0.727 1.802,2.181 v 2.037 c 0,0.246 -0.019,0.473 -0.055,0.682 -0.037,0.208 -0.099,0.406 -0.187,0.593 -0.088,0.187 -0.199,0.346 -0.335,0.477 -0.136,0.131 -0.307,0.234 -0.515,0.31 -0.207,0.075 -0.444,0.112 -0.711,0.112 -0.264,0 -0.5,-0.037 -0.707,-0.11 -0.208,-0.074 -0.379,-0.175 -0.513,-0.301 -0.135,-0.127 -0.246,-0.282 -0.334,-0.465 -0.087,-0.184 -0.15,-0.379 -0.188,-0.586 -0.036,-0.208 -0.055,-0.435 -0.055,-0.681 z m 2.355,0.281 V 15.32 c 0,-0.606 -0.186,-0.909 -0.558,-0.909 -0.111,0 -0.206,0.028 -0.283,0.084 -0.078,0.056 -0.135,0.132 -0.171,0.229 -0.037,0.097 -0.062,0.193 -0.077,0.287 -0.015,0.095 -0.022,0.198 -0.022,0.31 v 2.659 c 0,0.604 0.185,0.906 0.554,0.906 0.372,-0.002 0.557,-0.303 0.557,-0.907 z"
   id="path10" />
	</g>
</g>



<rect
   style="fill:none;stroke:#aaaaaa;stroke-width:1.11087;stroke-dasharray:none;stroke-opacity:1"
   id="rect13"
   width="100.17902"
   height="19.211029"
   x="4.5722466"
   y="8.2526073"
   ry="9.6055145" /></svg>
