<?xml version="1.0" encoding="UTF-8" standalone="no"?>
<!-- Generator: Adobe Illustrator 16.0.0, SVG Export Plug-In . SVG Version: 6.00 Build 0)  -->

<svg
   version="1.1"
   id="Ebene_1"
   x="0px"
   y="0px"
   width="110.499"
   height="37.667"
   viewBox="0 0 110.499 37.667"
   enable-background="new 0 0 110.499 37.667"
   xml:space="preserve"
   xmlns="http://www.w3.org/2000/svg"
   xmlns:svg="http://www.w3.org/2000/svg"><defs
   id="defs11" />
<rect
   x="5.1560001"
   y="22.581724"
   fill="#ffffff"
   stroke="#aaaaaa"
   stroke-miterlimit="10"
   width="100.188"
   height="11.333"
   id="rect1"
   ry="5.6665001" />
<g
   id="g4">
	<line
   fill="none"
   stroke="#505050"
   stroke-width="2"
   stroke-miterlimit="10"
   x1="37.062"
   y1="28.188999"
   x2="45.166"
   y2="28.188999"
   id="line1" />
	<line
   fill="none"
   stroke="#505050"
   stroke-width="2"
   stroke-miterlimit="10"
   x1="46.484001"
   y1="28.188999"
   x2="54.59"
   y2="28.188999"
   id="line2" />
	<line
   fill="none"
   stroke="#505050"
   stroke-width="2"
   stroke-miterlimit="10"
   x1="55.908001"
   y1="28.188999"
   x2="64.015999"
   y2="28.188999"
   id="line3" />
	<line
   fill="none"
   stroke="#505050"
   stroke-width="2"
   stroke-miterlimit="10"
   x1="65.334"
   y1="28.188999"
   x2="73.439003"
   y2="28.188999"
   id="line4" />
</g>
<path
   fill="none"
   stroke="#9b9b9b"
   stroke-miterlimit="10"
   d="m 109.999,35.75 c 0,0.783 -0.635,1.418 -1.417,1.418 H 1.917 C 1.135,37.168 0.5,36.533 0.5,35.75 V 1.918 C 0.5,1.135 1.135,0.5 1.917,0.5 h 106.665 c 0.782,0 1.417,0.635 1.417,1.418 z"
   id="path4" />
<g
   id="g6">
	<rect
   x="95.681999"
   y="26.408001"
   width="5.9439998"
   height="1.188"
   id="rect4" />
	<rect
   x="95.681999"
   y="27.594999"
   fill="#db140c"
   width="5.9439998"
   height="1.188"
   id="rect5" />
	<rect
   x="95.681999"
   y="28.783001"
   fill="#fccc24"
   width="5.9439998"
   height="1.188"
   id="rect6" />
</g>
<g
   id="g7">
	<circle
   fill="none"
   stroke="#6b6b6b"
   stroke-width="0.75"
   stroke-miterlimit="10"
   cx="10.517"
   cy="27.448999"
   r="1.803"
   id="circle6" />
	<line
   fill="none"
   stroke="#6b6b6b"
   stroke-width="0.75"
   stroke-miterlimit="10"
   x1="11.771"
   y1="29.009001"
   x2="13.49"
   y2="30.73"
   id="line6" />
</g>
<g
   id="g11">
	<rect
   x="45.07"
   y="5.243"
   fill="#5b5b5b"
   width="20.358999"
   height="11.5"
   id="rect7" />
	<g
   id="g10">
		<path
   fill="#ffffff"
   d="M 47.592,14.069 V 7.917 h 1.244 v 5.298 h 1.225 v 0.854 z"
   id="path7" />
		<path
   fill="#ffffff"
   d="M 50.553,12.046 V 9.978 c 0,-1.454 0.6,-2.181 1.797,-2.181 1.201,0 1.803,0.727 1.803,2.181 v 2.037 c 0,0.246 -0.02,0.473 -0.055,0.682 -0.037,0.208 -0.1,0.406 -0.188,0.593 -0.088,0.187 -0.199,0.346 -0.334,0.477 -0.137,0.131 -0.307,0.234 -0.516,0.31 -0.207,0.075 -0.443,0.113 -0.711,0.113 -0.264,0 -0.5,-0.037 -0.707,-0.111 -0.207,-0.074 -0.379,-0.175 -0.512,-0.301 -0.135,-0.127 -0.246,-0.282 -0.334,-0.465 -0.088,-0.184 -0.15,-0.379 -0.188,-0.586 -0.038,-0.208 -0.055,-0.435 -0.055,-0.681 z m 2.355,0.28 V 9.667 c 0,-0.606 -0.186,-0.909 -0.559,-0.909 -0.111,0 -0.205,0.028 -0.283,0.084 -0.078,0.056 -0.135,0.132 -0.17,0.229 -0.037,0.097 -0.062,0.193 -0.078,0.287 -0.014,0.095 -0.021,0.198 -0.021,0.31 v 2.659 c 0,0.604 0.184,0.906 0.553,0.906 0.373,-0.001 0.558,-0.303 0.558,-0.907 z"
   id="path8" />
		<path
   fill="#ffffff"
   d="M 54.9,12.145 V 9.978 c 0,-1.454 0.605,-2.181 1.816,-2.181 0.254,0 0.482,0.034 0.682,0.101 0.199,0.067 0.365,0.16 0.5,0.278 0.135,0.118 0.246,0.264 0.332,0.438 0.086,0.174 0.148,0.361 0.188,0.564 0.04,0.203 0.059,0.426 0.059,0.67 V 10.21 H 57.288 V 9.78 c 0,-0.107 -0.004,-0.201 -0.01,-0.282 C 57.274,9.417 57.258,9.327 57.237,9.227 57.214,9.128 57.182,9.047 57.143,8.983 57.106,8.919 57.049,8.866 56.977,8.822 56.903,8.779 56.817,8.757 56.717,8.757 c -0.381,0 -0.572,0.303 -0.572,0.909 v 2.656 c 0,0.604 0.191,0.906 0.572,0.906 0.377,0 0.566,-0.313 0.566,-0.94 V 11.796 H 56.58 v -0.892 h 1.947 v 3.165 h -0.854 l -0.158,-0.431 c -0.105,0.164 -0.254,0.297 -0.447,0.398 -0.193,0.101 -0.393,0.152 -0.598,0.152 -0.223,0 -0.424,-0.041 -0.604,-0.122 -0.182,-0.081 -0.33,-0.188 -0.449,-0.321 -0.117,-0.133 -0.215,-0.29 -0.295,-0.47 -0.08,-0.18 -0.137,-0.364 -0.17,-0.552 C 54.918,12.536 54.9,12.343 54.9,12.145 Z"
   id="path9" />
		<path
   fill="#ffffff"
   d="M 59.307,12.046 V 9.978 c 0,-1.454 0.6,-2.181 1.799,-2.181 1.201,0 1.801,0.727 1.801,2.181 v 2.037 c 0,0.246 -0.018,0.473 -0.055,0.682 -0.037,0.208 -0.098,0.406 -0.186,0.593 -0.088,0.187 -0.199,0.346 -0.336,0.477 -0.135,0.131 -0.307,0.234 -0.514,0.31 -0.207,0.076 -0.445,0.113 -0.711,0.113 -0.264,0 -0.5,-0.037 -0.707,-0.111 C 60.189,14.005 60.019,13.904 59.884,13.778 59.749,13.651 59.638,13.496 59.55,13.313 59.464,13.129 59.4,12.934 59.362,12.727 59.324,12.52 59.307,12.292 59.307,12.046 Z m 2.355,0.28 V 9.667 c 0,-0.606 -0.186,-0.909 -0.557,-0.909 -0.111,0 -0.207,0.028 -0.283,0.084 -0.078,0.056 -0.135,0.132 -0.172,0.229 -0.037,0.097 -0.062,0.193 -0.076,0.287 -0.016,0.095 -0.023,0.198 -0.023,0.31 v 2.659 c 0,0.604 0.186,0.906 0.555,0.906 0.371,-0.001 0.556,-0.303 0.556,-0.907 z"
   id="path10" />
	</g>
</g>
</svg>
