<?xml version="1.0" encoding="utf-8"?>
<!-- Generator: Adobe Illustrator 16.0.0, SVG Export Plug-In . SVG Version: 6.00 Build 0)  -->
<!DOCTYPE svg PUBLIC "-//W3C//DTD SVG 1.1//EN" "http://www.w3.org/Graphics/SVG/1.1/DTD/svg11.dtd">
<svg version="1.1" id="Ebene_1" xmlns="http://www.w3.org/2000/svg" xmlns:xlink="http://www.w3.org/1999/xlink" x="0px" y="0px"
	 width="110.5px" height="37.668px" viewBox="0 0 110.5 37.668" enable-background="new 0 0 110.5 37.668" xml:space="preserve">
<rect x="5.156" y="8.288" fill="#FFFFFF" stroke="#AAAAAA" stroke-miterlimit="10" width="100.188" height="17.083"/>
<line fill="none" stroke="#505050" stroke-width="2" stroke-miterlimit="10" x1="45.014" y1="16.059" x2="53.12" y2="16.059"/>
<line fill="none" stroke="#505050" stroke-width="2" stroke-miterlimit="10" x1="54.438" y1="16.059" x2="62.544" y2="16.059"/>
<line fill="none" stroke="#505050" stroke-width="2" stroke-miterlimit="10" x1="63.862" y1="16.059" x2="71.968" y2="16.059"/>
<line fill="none" stroke="#505050" stroke-width="2" stroke-miterlimit="10" x1="73.286" y1="16.059" x2="81.392" y2="16.059"/>
<rect x="95.437" y="14.277" width="5.945" height="1.188"/>
<rect x="95.437" y="15.465" fill="#DB140C" width="5.945" height="1.188"/>
<rect x="95.437" y="16.652" fill="#FCCC24" width="5.945" height="1.188"/>
<path fill="none" stroke="#9B9B9B" stroke-miterlimit="10" d="M110,35.75c0,0.783-0.635,1.418-1.417,1.418H1.917
	c-0.783,0-1.417-0.635-1.417-1.418V1.918C0.5,1.135,1.135,0.5,1.917,0.5h106.666c0.782,0,1.417,0.635,1.417,1.418V35.75z"/>
<g>
	<circle fill="none" stroke="#6B6B6B" stroke-width="0.75" stroke-miterlimit="10" cx="89.361" cy="15.32" r="1.803"/>
	<line fill="none" stroke="#6B6B6B" stroke-width="0.75" stroke-miterlimit="10" x1="90.615" y1="16.88" x2="92.335" y2="18.601"/>
</g>
<g>
	<rect x="7.534" y="10.895" fill="#5B5B5B" width="20.359" height="11.5"/>
	<g>
		<path fill="#FFFFFF" d="M10.056,19.722v-6.152H11.3v5.298h1.224v0.854H10.056z"/>
		<path fill="#FFFFFF" d="M13.016,17.698V15.63c0-1.454,0.6-2.181,1.798-2.181c1.201,0,1.802,0.727,1.802,2.181v2.037
			c0,0.246-0.019,0.473-0.055,0.682c-0.037,0.208-0.099,0.406-0.187,0.593s-0.199,0.346-0.335,0.477s-0.307,0.234-0.515,0.31
			c-0.207,0.075-0.444,0.112-0.711,0.112c-0.264,0-0.5-0.037-0.707-0.11c-0.208-0.074-0.379-0.175-0.513-0.301
			c-0.135-0.127-0.246-0.282-0.334-0.465c-0.087-0.184-0.15-0.379-0.188-0.586C13.035,18.171,13.016,17.944,13.016,17.698z
			 M15.372,17.979v-2.659c0-0.606-0.186-0.909-0.558-0.909c-0.111,0-0.206,0.028-0.283,0.084c-0.078,0.056-0.135,0.132-0.171,0.229
			c-0.037,0.097-0.062,0.193-0.077,0.287c-0.015,0.095-0.022,0.198-0.022,0.31v2.659c0,0.604,0.185,0.906,0.554,0.906
			C15.186,18.884,15.372,18.583,15.372,17.979z"/>
		<path fill="#FFFFFF" d="M17.365,17.797V15.63c0-1.454,0.605-2.181,1.815-2.181c0.255,0,0.482,0.034,0.682,0.101
			c0.199,0.067,0.366,0.16,0.501,0.278c0.134,0.119,0.245,0.264,0.331,0.438c0.087,0.173,0.149,0.361,0.188,0.564
			c0.038,0.203,0.058,0.426,0.058,0.67v0.362H19.75v-0.431c0-0.107-0.003-0.201-0.009-0.282c-0.005-0.081-0.02-0.171-0.042-0.271
			c-0.023-0.099-0.054-0.18-0.093-0.244c-0.038-0.064-0.095-0.117-0.167-0.161c-0.073-0.043-0.16-0.065-0.26-0.065
			c-0.381,0-0.571,0.303-0.571,0.909v2.656c0,0.604,0.19,0.906,0.571,0.906c0.378,0,0.567-0.313,0.567-0.94v-0.492h-0.704v-0.892
			h1.948v3.165h-0.854l-0.157-0.431c-0.105,0.164-0.254,0.297-0.448,0.398c-0.193,0.101-0.393,0.151-0.598,0.151
			c-0.222,0-0.423-0.04-0.604-0.121c-0.182-0.08-0.33-0.188-0.448-0.321c-0.117-0.133-0.216-0.29-0.295-0.47
			c-0.08-0.18-0.137-0.364-0.171-0.552C17.382,18.188,17.365,17.996,17.365,17.797z"/>
		<path fill="#FFFFFF" d="M21.771,17.698V15.63c0-1.454,0.6-2.181,1.798-2.181c1.201,0,1.802,0.727,1.802,2.181v2.037
			c0,0.246-0.019,0.473-0.055,0.682c-0.037,0.208-0.099,0.406-0.187,0.593s-0.199,0.346-0.335,0.477s-0.307,0.234-0.515,0.31
			c-0.207,0.075-0.444,0.112-0.711,0.112c-0.264,0-0.5-0.037-0.707-0.11c-0.208-0.074-0.379-0.175-0.513-0.301
			c-0.135-0.127-0.246-0.282-0.334-0.465c-0.087-0.184-0.15-0.379-0.188-0.586C21.79,18.171,21.771,17.944,21.771,17.698z
			 M24.126,17.979v-2.659c0-0.606-0.186-0.909-0.558-0.909c-0.111,0-0.206,0.028-0.283,0.084c-0.078,0.056-0.135,0.132-0.171,0.229
			c-0.037,0.097-0.062,0.193-0.077,0.287c-0.015,0.095-0.022,0.198-0.022,0.31v2.659c0,0.604,0.185,0.906,0.554,0.906
			C23.941,18.884,24.126,18.583,24.126,17.979z"/>
	</g>
</g>
<line fill="none" stroke="#A3A3A3" stroke-width="2" stroke-miterlimit="10" x1="4.691" y1="4.261" x2="14.149" y2="4.261"/>
<line fill="none" stroke="#A3A3A3" stroke-width="2" stroke-miterlimit="10" x1="16.698" y1="4.261" x2="26.157" y2="4.261"/>
<line fill="none" stroke="#A3A3A3" stroke-width="2" stroke-miterlimit="10" x1="96.415" y1="4.261" x2="105.873" y2="4.261"/>
</svg>
