<?xml version="1.0" encoding="utf-8"?>
<!-- Generator: Adobe Illustrator 16.0.0, SVG Export Plug-In . SVG Version: 6.00 Build 0)  -->
<!DOCTYPE svg PUBLIC "-//W3C//DTD SVG 1.1//EN" "http://www.w3.org/Graphics/SVG/1.1/DTD/svg11.dtd">
<svg version="1.1" id="Ebene_1" xmlns="http://www.w3.org/2000/svg" xmlns:xlink="http://www.w3.org/1999/xlink" x="0px" y="0px"
	 width="110.5px" height="37.667px" viewBox="0 0 110.5 37.667" enable-background="new 0 0 110.5 37.667" xml:space="preserve">
<line fill="none" stroke="#D9D8D8" stroke-miterlimit="10" x1="7.696" y1="18.834" x2="102.802" y2="18.834"/>
<line fill="none" stroke="#505050" stroke-width="2" stroke-miterlimit="10" x1="7.697" y1="24.418" x2="15.803" y2="24.418"/>
<line fill="none" stroke="#505050" stroke-width="2" stroke-miterlimit="10" x1="17.121" y1="24.418" x2="25.227" y2="24.418"/>
<line fill="none" stroke="#505050" stroke-width="2" stroke-miterlimit="10" x1="26.545" y1="24.418" x2="34.651" y2="24.418"/>
<line fill="none" stroke="#505050" stroke-width="2" stroke-miterlimit="10" x1="35.97" y1="24.418" x2="44.075" y2="24.418"/>
<rect x="96.818" y="23.074" width="5.945" height="1.188"/>
<rect x="96.818" y="24.262" fill="#DB140C" width="5.945" height="1.188"/>
<rect x="96.818" y="25.449" fill="#FCCC24" width="5.945" height="1.188"/>
<path fill="none" stroke="#9B9B9B" stroke-miterlimit="10" d="M110,35.75c0,0.782-0.635,1.417-1.418,1.417H1.917
	c-0.782,0-1.417-0.635-1.417-1.417V1.918C0.5,1.135,1.135,0.5,1.917,0.5h106.665c0.783,0,1.418,0.635,1.418,1.418V35.75z"/>
<g>
	<circle fill="none" stroke="#6B6B6B" stroke-width="0.75" stroke-miterlimit="10" cx="90.743" cy="23.521" r="1.804"/>
	<line fill="none" stroke="#6B6B6B" stroke-width="0.75" stroke-miterlimit="10" x1="91.998" y1="25.082" x2="93.716" y2="26.803"/>
</g>
<g>
	<rect x="45.069" y="4.329" fill="#5B5B5B" width="20.36" height="11.5"/>
	<g>
		<path fill="#FFFFFF" d="M47.593,13.155V7.003h1.244v5.298h1.223v0.854H47.593z"/>
		<path fill="#FFFFFF" d="M50.552,11.132V9.064c0-1.454,0.6-2.181,1.799-2.181c1.201,0,1.801,0.727,1.801,2.181v2.037
			c0,0.246-0.018,0.473-0.055,0.682c-0.037,0.208-0.098,0.406-0.186,0.593s-0.199,0.346-0.336,0.477
			c-0.135,0.131-0.307,0.234-0.514,0.31s-0.445,0.113-0.711,0.113c-0.264,0-0.5-0.037-0.707-0.111
			c-0.209-0.074-0.379-0.175-0.514-0.301c-0.135-0.127-0.246-0.282-0.334-0.465c-0.086-0.184-0.15-0.379-0.188-0.586
			S50.552,11.378,50.552,11.132z M52.907,11.412V8.753c0-0.606-0.186-0.909-0.557-0.909c-0.111,0-0.207,0.028-0.283,0.084
			c-0.078,0.056-0.135,0.132-0.172,0.229c-0.037,0.097-0.062,0.193-0.076,0.287c-0.016,0.095-0.023,0.198-0.023,0.31v2.659
			c0,0.604,0.186,0.906,0.555,0.906C52.722,12.318,52.907,12.016,52.907,11.412z"/>
		<path fill="#FFFFFF" d="M54.901,11.231V9.064c0-1.454,0.605-2.181,1.815-2.181c0.256,0,0.482,0.034,0.682,0.101
			c0.199,0.067,0.367,0.16,0.502,0.278c0.133,0.119,0.244,0.264,0.33,0.438c0.088,0.173,0.15,0.361,0.189,0.564
			c0.037,0.203,0.057,0.426,0.057,0.67v0.362h-1.189V8.866c0-0.107-0.002-0.201-0.008-0.282c-0.006-0.081-0.02-0.171-0.043-0.271
			c-0.023-0.099-0.053-0.18-0.092-0.244s-0.096-0.117-0.168-0.161s-0.16-0.065-0.26-0.065c-0.381,0-0.57,0.303-0.57,0.909v2.656
			c0,0.604,0.189,0.906,0.57,0.906c0.379,0,0.568-0.313,0.568-0.94v-0.492H56.58V9.99h1.949v3.165h-0.855l-0.156-0.431
			c-0.105,0.164-0.254,0.297-0.449,0.398c-0.193,0.101-0.393,0.152-0.598,0.152c-0.221,0-0.422-0.041-0.604-0.122
			c-0.182-0.081-0.331-0.188-0.448-0.321c-0.117-0.133-0.217-0.29-0.295-0.47c-0.08-0.18-0.137-0.364-0.172-0.552
			C54.919,11.622,54.901,11.429,54.901,11.231z"/>
		<path fill="#FFFFFF" d="M59.308,11.132V9.064c0-1.454,0.6-2.181,1.797-2.181c1.201,0,1.803,0.727,1.803,2.181v2.037
			c0,0.246-0.02,0.473-0.055,0.682c-0.037,0.208-0.1,0.406-0.188,0.593s-0.199,0.346-0.334,0.477
			c-0.137,0.131-0.307,0.234-0.516,0.31c-0.207,0.075-0.443,0.113-0.711,0.113c-0.264,0-0.5-0.037-0.707-0.111
			c-0.207-0.074-0.379-0.175-0.512-0.301c-0.135-0.127-0.246-0.282-0.334-0.465c-0.088-0.184-0.15-0.379-0.188-0.586
			C59.326,11.604,59.308,11.378,59.308,11.132z M61.664,11.412V8.753c0-0.606-0.186-0.909-0.559-0.909
			c-0.111,0-0.205,0.028-0.283,0.084c-0.078,0.056-0.135,0.132-0.17,0.229c-0.037,0.097-0.062,0.193-0.078,0.287
			c-0.014,0.095-0.021,0.198-0.021,0.31v2.659c0,0.604,0.184,0.906,0.553,0.906C61.478,12.318,61.664,12.016,61.664,11.412z"/>
	</g>
</g>
</svg>
