<?xml version="1.0" encoding="utf-8"?>
<!-- Generator: Adobe Illustrator 16.0.0, SVG Export Plug-In . SVG Version: 6.00 Build 0)  -->
<!DOCTYPE svg PUBLIC "-//W3C//DTD SVG 1.1//EN" "http://www.w3.org/Graphics/SVG/1.1/DTD/svg11.dtd">
<svg version="1.1" id="Ebene_1" xmlns="http://www.w3.org/2000/svg" xmlns:xlink="http://www.w3.org/1999/xlink" x="0px" y="0px"
	 width="110.5px" height="37.668px" viewBox="0 0 110.5 37.668" enable-background="new 0 0 110.5 37.668" xml:space="preserve">
<line fill="none" stroke="#505050" stroke-width="2" stroke-miterlimit="10" x1="46.395" y1="8.492" x2="54.501" y2="8.492"/>
<line fill="none" stroke="#505050" stroke-width="2" stroke-miterlimit="10" x1="55.82" y1="8.492" x2="63.926" y2="8.492"/>
<line fill="none" stroke="#505050" stroke-width="2" stroke-miterlimit="10" x1="65.244" y1="8.492" x2="73.35" y2="8.492"/>
<line fill="none" stroke="#505050" stroke-width="2" stroke-miterlimit="10" x1="74.668" y1="8.492" x2="82.774" y2="8.492"/>
<rect x="96.819" y="7.305" width="5.945" height="1.188"/>
<rect x="96.819" y="8.492" fill="#DB140C" width="5.945" height="1.188"/>
<rect x="96.819" y="9.68" fill="#FCCC24" width="5.945" height="1.188"/>
<path fill="none" stroke="#9B9B9B" stroke-miterlimit="10" d="M110,35.75c0,0.783-0.635,1.418-1.418,1.418H1.917
	c-0.783,0-1.417-0.635-1.417-1.418V1.918C0.5,1.135,1.135,0.5,1.917,0.5h106.665c0.783,0,1.418,0.635,1.418,1.418V35.75z"/>
<g>
	<circle fill="none" stroke="#6B6B6B" stroke-width="0.75" stroke-miterlimit="10" cx="90.743" cy="7.754" r="1.803"/>
	<line fill="none" stroke="#6B6B6B" stroke-width="0.75" stroke-miterlimit="10" x1="91.997" y1="9.314" x2="93.717" y2="11.035"/>
</g>
<line fill="none" stroke="#AAAAAA" stroke-miterlimit="10" x1="109.57" y1="16.803" x2="0.07" y2="16.803"/>
<polygon fill="#5B5B5B" points="26.428,14.523 15.963,18.523 6.068,14.523 6.068,1.023 26.428,1.023 "/>
<g>
	<path fill="#FFFFFF" d="M8.591,11.568V5.416h1.244v5.298h1.224v0.854H8.591z"/>
	<path fill="#FFFFFF" d="M11.551,9.545V7.477c0-1.453,0.6-2.18,1.798-2.18c1.201,0,1.802,0.727,1.802,2.18v2.037
		c0,0.246-0.019,0.474-0.055,0.683c-0.037,0.208-0.099,0.405-0.187,0.593s-0.199,0.346-0.335,0.477s-0.307,0.234-0.515,0.31
		c-0.207,0.075-0.444,0.112-0.711,0.112c-0.264,0-0.5-0.037-0.707-0.11c-0.208-0.074-0.379-0.175-0.513-0.301
		c-0.135-0.127-0.246-0.282-0.334-0.465c-0.087-0.184-0.15-0.379-0.188-0.587C11.569,10.018,11.551,9.791,11.551,9.545z
		 M13.906,9.825V7.166c0-0.605-0.186-0.909-0.558-0.909c-0.111,0-0.206,0.028-0.283,0.084c-0.078,0.056-0.135,0.132-0.171,0.229
		c-0.037,0.097-0.062,0.192-0.077,0.287s-0.022,0.198-0.022,0.31v2.659c0,0.604,0.185,0.905,0.554,0.905
		C13.721,10.73,13.906,10.43,13.906,9.825z"/>
	<path fill="#FFFFFF" d="M15.899,9.645V7.477c0-1.453,0.605-2.18,1.815-2.18c0.255,0,0.482,0.033,0.682,0.101
		s0.366,0.159,0.501,0.278c0.134,0.119,0.245,0.264,0.331,0.438c0.087,0.174,0.149,0.361,0.188,0.564
		c0.038,0.202,0.058,0.426,0.058,0.67v0.361h-1.189v-0.43c0-0.107-0.003-0.201-0.009-0.282c-0.005-0.081-0.02-0.171-0.042-0.271
		c-0.023-0.099-0.054-0.18-0.093-0.244c-0.038-0.064-0.095-0.117-0.167-0.16c-0.073-0.044-0.16-0.065-0.26-0.065
		c-0.381,0-0.571,0.304-0.571,0.909v2.656c0,0.604,0.19,0.905,0.571,0.905c0.378,0,0.567-0.313,0.567-0.94V9.295h-0.704V8.403h1.948
		v3.165h-0.854l-0.157-0.431c-0.105,0.164-0.254,0.297-0.448,0.398c-0.193,0.101-0.393,0.151-0.598,0.151
		c-0.222,0-0.423-0.04-0.604-0.121c-0.182-0.08-0.33-0.188-0.448-0.321c-0.117-0.133-0.216-0.29-0.295-0.47
		c-0.08-0.18-0.137-0.364-0.171-0.552C15.917,10.035,15.899,9.842,15.899,9.645z"/>
	<path fill="#FFFFFF" d="M20.306,9.545V7.477c0-1.453,0.6-2.18,1.798-2.18c1.201,0,1.802,0.727,1.802,2.18v2.037
		c0,0.246-0.019,0.474-0.055,0.683c-0.037,0.208-0.099,0.405-0.187,0.593s-0.199,0.346-0.335,0.477s-0.307,0.234-0.515,0.31
		c-0.207,0.075-0.444,0.112-0.711,0.112c-0.264,0-0.5-0.037-0.707-0.11c-0.208-0.074-0.379-0.175-0.513-0.301
		c-0.135-0.127-0.246-0.282-0.334-0.465c-0.087-0.184-0.15-0.379-0.188-0.587C20.324,10.018,20.306,9.791,20.306,9.545z
		 M22.661,9.825V7.166c0-0.605-0.186-0.909-0.558-0.909c-0.111,0-0.206,0.028-0.283,0.084c-0.078,0.056-0.135,0.132-0.171,0.229
		c-0.037,0.097-0.062,0.192-0.077,0.287s-0.022,0.198-0.022,0.31v2.659c0,0.604,0.185,0.905,0.554,0.905
		C22.476,10.73,22.661,10.43,22.661,9.825z"/>
</g>
</svg>
