<?xml version="1.0" encoding="utf-8"?>
<!-- Generator: Adobe Illustrator 16.0.0, SVG Export Plug-In . SVG Version: 6.00 Build 0)  -->
<!DOCTYPE svg PUBLIC "-//W3C//DTD SVG 1.1//EN" "http://www.w3.org/Graphics/SVG/1.1/DTD/svg11.dtd">
<svg version="1.1" id="Ebene_1" xmlns="http://www.w3.org/2000/svg" xmlns:xlink="http://www.w3.org/1999/xlink" x="0px" y="0px"
	 width="110.499px" height="37.667px" viewBox="0 0 110.499 37.667" enable-background="new 0 0 110.499 37.667"
	 xml:space="preserve">
<g>
	<line fill="none" stroke="#505050" stroke-width="2" stroke-miterlimit="10" x1="25.727" y1="31.441" x2="33.832" y2="31.441"/>
	<line fill="none" stroke="#505050" stroke-width="2" stroke-miterlimit="10" x1="42.707" y1="31.441" x2="50.812" y2="31.441"/>
	<line fill="none" stroke="#505050" stroke-width="2" stroke-miterlimit="10" x1="59.686" y1="31.441" x2="67.793" y2="31.441"/>
	<line fill="none" stroke="#505050" stroke-width="2" stroke-miterlimit="10" x1="76.666" y1="31.441" x2="84.771" y2="31.441"/>
</g>
<path fill="none" stroke="#9B9B9B" stroke-miterlimit="10" d="M109.999,35.75c0,0.782-0.635,1.417-1.417,1.417H1.917
	c-0.782,0-1.417-0.635-1.417-1.417V1.918C0.5,1.135,1.135,0.5,1.917,0.5h106.665c0.782,0,1.417,0.635,1.417,1.418V35.75z"/>
<g>
	<rect x="5.164" y="9.306" width="5.944" height="1.188"/>
	<rect x="5.164" y="10.493" fill="#DB140C" width="5.944" height="1.188"/>
	<rect x="5.164" y="11.681" fill="#FCCC24" width="5.944" height="1.188"/>
</g>
<g>
	<circle fill="none" stroke="#6B6B6B" stroke-width="0.75" stroke-miterlimit="10" cx="102.013" cy="9.16" r="1.803"/>
	
		<line fill="none" stroke="#6B6B6B" stroke-width="0.75" stroke-miterlimit="10" x1="103.268" y1="10.721" x2="104.986" y2="12.441"/>
</g>
<g>
	<rect x="45.07" y="4.743" fill="#5B5B5B" width="20.359" height="11.5"/>
	<g>
		<path fill="#FFFFFF" d="M47.592,13.569V7.417h1.244v5.298h1.225v0.854H47.592z"/>
		<path fill="#FFFFFF" d="M50.553,11.546V9.478c0-1.454,0.6-2.181,1.797-2.181c1.201,0,1.803,0.727,1.803,2.181v2.037
			c0,0.246-0.02,0.473-0.055,0.682c-0.037,0.208-0.1,0.406-0.188,0.593s-0.199,0.346-0.334,0.477
			c-0.137,0.131-0.307,0.234-0.516,0.31c-0.207,0.075-0.443,0.113-0.711,0.113c-0.264,0-0.5-0.037-0.707-0.111
			c-0.207-0.074-0.379-0.175-0.512-0.301c-0.135-0.127-0.246-0.282-0.334-0.465c-0.088-0.184-0.15-0.379-0.188-0.586
			C50.57,12.019,50.553,11.792,50.553,11.546z M52.908,11.826V9.167c0-0.606-0.186-0.909-0.559-0.909
			c-0.111,0-0.205,0.028-0.283,0.084c-0.078,0.056-0.135,0.132-0.17,0.229c-0.037,0.097-0.062,0.193-0.078,0.287
			c-0.014,0.095-0.021,0.198-0.021,0.31v2.659c0,0.604,0.184,0.906,0.553,0.906C52.723,12.732,52.908,12.43,52.908,11.826z"/>
		<path fill="#FFFFFF" d="M54.9,11.645V9.478c0-1.454,0.605-2.181,1.816-2.181c0.254,0,0.482,0.034,0.682,0.101
			c0.199,0.067,0.365,0.16,0.5,0.278s0.246,0.264,0.332,0.438s0.148,0.361,0.188,0.564s0.059,0.426,0.059,0.67V9.71h-1.189V9.28
			c0-0.107-0.004-0.201-0.01-0.282c-0.004-0.081-0.02-0.171-0.041-0.271c-0.023-0.099-0.055-0.18-0.094-0.244
			c-0.037-0.064-0.094-0.117-0.166-0.161c-0.074-0.043-0.16-0.065-0.26-0.065c-0.381,0-0.572,0.303-0.572,0.909v2.656
			c0,0.604,0.191,0.906,0.572,0.906c0.377,0,0.566-0.313,0.566-0.94v-0.492H56.58v-0.892h1.947v3.165h-0.854l-0.158-0.431
			c-0.105,0.164-0.254,0.297-0.447,0.398c-0.193,0.101-0.393,0.152-0.598,0.152c-0.223,0-0.424-0.041-0.604-0.122
			c-0.182-0.081-0.33-0.188-0.449-0.321c-0.117-0.133-0.215-0.29-0.295-0.47s-0.137-0.364-0.17-0.552
			C54.918,12.036,54.9,11.843,54.9,11.645z"/>
		<path fill="#FFFFFF" d="M59.307,11.546V9.478c0-1.454,0.6-2.181,1.799-2.181c1.201,0,1.801,0.727,1.801,2.181v2.037
			c0,0.246-0.018,0.473-0.055,0.682c-0.037,0.208-0.098,0.406-0.186,0.593s-0.199,0.346-0.336,0.477
			c-0.135,0.131-0.307,0.234-0.514,0.31s-0.445,0.113-0.711,0.113c-0.264,0-0.5-0.037-0.707-0.111
			c-0.209-0.074-0.379-0.175-0.514-0.301c-0.135-0.127-0.246-0.282-0.334-0.465c-0.086-0.184-0.15-0.379-0.188-0.586
			S59.307,11.792,59.307,11.546z M61.662,11.826V9.167c0-0.606-0.186-0.909-0.557-0.909c-0.111,0-0.207,0.028-0.283,0.084
			c-0.078,0.056-0.135,0.132-0.172,0.229c-0.037,0.097-0.062,0.193-0.076,0.287c-0.016,0.095-0.023,0.198-0.023,0.31v2.659
			c0,0.604,0.186,0.906,0.555,0.906C61.477,12.732,61.662,12.43,61.662,11.826z"/>
	</g>
</g>
<line fill="none" stroke="#D9D8D8" stroke-miterlimit="10" x1="1.006" y1="25.723" x2="109.443" y2="25.723"/>
<line fill="none" stroke="#D9D8D8" stroke-miterlimit="10" x1="72.053" y1="26.223" x2="72.053" y2="36.66"/>
<line fill="none" stroke="#D9D8D8" stroke-miterlimit="10" x1="55.162" y1="26.223" x2="55.162" y2="36.66"/>
<line fill="none" stroke="#D9D8D8" stroke-miterlimit="10" x1="38.271" y1="26.223" x2="38.271" y2="36.66"/>
<line fill="none" stroke="#D9D8D8" stroke-miterlimit="10" x1="21.381" y1="26.223" x2="21.381" y2="36.66"/>
<line fill="none" stroke="#D9D8D8" stroke-miterlimit="10" x1="88.943" y1="26.223" x2="88.943" y2="36.66"/>
</svg>
