<svg xmlns="http://www.w3.org/2000/svg" viewBox="0 0 25.699 32.768"><path fill="#FAB515" d="M24.753 28.125v1.189c0 .657-.893 1.191-1.984 1.191H2.929c-1.092 0-1.984-.534-1.984-1.191v-1.189h23.808zM4.12 25.347v-8.729a1.99 1.99 0 011.984-1.984h13.491c1.09 0 1.982.893 1.982 1.984v8.729a1.989 1.989 0 01-1.982 1.984H6.103a1.99 1.99 0 01-1.983-1.984zm1.587 0c0 .211.186.397.396.397h13.492a.41.41 0 00.396-.397v-8.729a.407.407 0 00-.396-.396H6.103a.406.406 0 00-.396.396v8.729zm8.334 3.769a.196.196 0 00-.197-.198h-1.986c-.11 0-.197.087-.197.198s.087.198.197.198h1.986a.195.195 0 00.197-.198z"/></svg>