<svg version="1.1" id="Ebene_1" xmlns="http://www.w3.org/2000/svg" xmlns:xlink="http://www.w3.org/1999/xlink" x="0px" y="0px"
	viewBox="0 0 99.429 99.429" enable-background="new 0 0 99.429 99.429" xml:space="preserve">
<g>
	<path fill="#FFFFFF" d="M39.799,74.552c0.806,0.806,1.861,1.208,2.916,1.208c1.056,0,2.111-0.402,2.917-1.207l21.922-21.922
		c0.773-0.773,1.208-1.822,1.208-2.917c0-1.094-0.435-2.143-1.208-2.916L45.632,24.876c-1.611-1.611-4.222-1.611-5.833,0
		c-1.611,1.61-1.611,4.222,0,5.833l19.006,19.006L39.799,68.719C38.188,70.331,38.188,72.942,39.799,74.552z"/>
	<path fill="#FFFFFF" d="M49.714,99.429c27.412,0,49.715-22.302,49.715-49.714S77.126,0,49.714,0S0,22.302,0,49.715
		S22.302,99.429,49.714,99.429z M49.714,8.249c22.863,0,41.466,18.601,41.466,41.466c0,22.864-18.603,41.465-41.466,41.465
		S8.249,72.579,8.249,49.715C8.249,26.85,26.851,8.249,49.714,8.249z"/>
</g>
</svg>
