<svg version="1.1" id="Ebene_1" xmlns="http://www.w3.org/2000/svg" xmlns:xlink="http://www.w3.org/1999/xlink" x="0px" y="0px"
	 viewBox="0 0 254.67 285.667" enable-background="new 0 0 254.67 285.667"
	 xml:space="preserve">
<path opacity="0.1" fill="#FFFFFF" d="M254.67,200.008c0,3.914-3.173,7.087-7.087,7.087h-39.398c-3.914,0-7.087-3.173-7.087-7.087
	V62.991c0-3.914,3.173-7.086,7.087-7.086h39.398c3.914,0,7.087,3.173,7.087,7.086V200.008z"/>
<path opacity="0.1" fill="#FFFFFF" d="M187.638,276.146c0,5.259-3.173,9.521-7.087,9.521h-39.398c-3.914,0-7.087-4.262-7.087-9.521
	V92.068c0-5.258,3.173-9.521,7.087-9.521h39.398c3.914,0,7.087,4.263,7.087,9.521V276.146z"/>
<path opacity="0.1" fill="#FFFFFF" d="M53.572,249.502c0,5.26-3.173,9.521-7.087,9.521H7.087c-3.914,0-7.087-4.262-7.087-9.521
	V65.425c0-5.258,3.173-9.521,7.087-9.521h39.398c3.914,0,7.087,4.263,7.087,9.521V249.502z"/>
<path opacity="0.1" fill="#FFFFFF" d="M120.604,193.598c0,5.26-3.172,9.521-7.086,9.521H74.12c-3.914,0-7.087-4.262-7.087-9.521
	V9.521C67.033,4.263,70.206,0,74.12,0h39.399c3.914,0,7.086,4.263,7.086,9.521V193.598z"/>
</svg>
