<?xml version="1.0" encoding="utf-8"?>
<!-- Generator: Adobe Illustrator 16.0.0, SVG Export Plug-In . SVG Version: 6.00 Build 0)  -->
<!DOCTYPE svg PUBLIC "-//W3C//DTD SVG 1.1//EN" "http://www.w3.org/Graphics/SVG/1.1/DTD/svg11.dtd">
<svg version="1.1" id="Ebene_1" xmlns="http://www.w3.org/2000/svg" xmlns:xlink="http://www.w3.org/1999/xlink" x="0px" y="0px"
	 width="29.904px" height="27.089px" viewBox="0 0 29.904 27.089" enable-background="new 0 0 29.904 27.089" xml:space="preserve">
<path d="M3.428,20.8V6.315c0-1.271,1.021-2.305,2.278-2.305h18.492c1.256,0,2.278,1.033,2.278,2.305V20.8
	c0,1.277-1,2.278-2.278,2.278H5.706C4.428,23.079,3.428,22.078,3.428,20.8z M25.587,6.315c0-0.779-0.623-1.414-1.389-1.414H5.706
	c-0.766,0-1.39,0.635-1.39,1.414V20.8c0,0.777,0.61,1.388,1.39,1.388h18.492c0.778,0,1.389-0.61,1.389-1.388V6.315z"/>
<path d="M7.385,20.696V6.42c0-0.246,0.209-0.445,0.469-0.445h16.373c0.259,0,0.47,0.199,0.47,0.445v14.274
	c0,0.246-0.211,0.445-0.47,0.445H7.854C7.594,21.141,7.385,20.941,7.385,20.696z M8.322,6.865V20.25h15.436V6.865H8.322z"/>
<circle cx="5.99" cy="13.545" r="0.875"/>
</svg>
