<?xml version="1.0" encoding="utf-8"?>
<!-- Generator: Adobe Illustrator 16.0.0, SVG Export Plug-In . SVG Version: 6.00 Build 0)  -->
<!DOCTYPE svg PUBLIC "-//W3C//DTD SVG 1.1//EN" "http://www.w3.org/Graphics/SVG/1.1/DTD/svg11.dtd">
<svg version="1.1" id="Ebene_1" xmlns="http://www.w3.org/2000/svg" xmlns:xlink="http://www.w3.org/1999/xlink" x="0px" y="0px"
	 width="20.334px" height="22px" viewBox="-3.605 -3.222 20.334 22" enable-background="new -3.605 -3.222 20.334 22"
	 xml:space="preserve">
<g>
	<path fill="#7D7E7E" d="M7.404,6.497c0,0.396-0.099,1.079-0.298,2.046c-0.198,0.969-0.297,1.601-0.297,1.896
		c0,0.3,0.033,0.447,0.099,0.447c0.043,0,0.214-0.09,0.508-0.271l0.132-0.085l0.188,0.495C7.67,11.105,7.582,11.2,7.471,11.312
		c-0.111,0.112-0.316,0.269-0.618,0.461c-0.302,0.193-0.581,0.291-0.839,0.291c-0.258,0-0.46-0.102-0.607-0.305
		c-0.147-0.203-0.221-0.478-0.221-0.821c0-0.346,0.093-0.958,0.277-1.842C5.646,8.213,5.738,7.64,5.738,7.375
		c0-0.396-0.096-0.77-0.288-1.119L5.352,6.087l0.011-0.185C5.752,5.761,6.386,5.69,7.262,5.69C7.358,5.833,7.404,6.101,7.404,6.497z
		 M6.146,4.139c-0.147-0.183-0.22-0.431-0.22-0.743c0-0.311,0.101-0.585,0.304-0.821C6.432,2.339,6.666,2.22,6.931,2.22
		c0.265,0,0.47,0.094,0.618,0.283c0.148,0.188,0.22,0.437,0.22,0.744c0,0.307-0.104,0.579-0.314,0.814
		c-0.21,0.236-0.444,0.354-0.702,0.354C6.495,4.416,6.293,4.323,6.146,4.139z"/>
</g>
<ellipse fill="none" stroke="#7D7E7E" stroke-miterlimit="10" cx="6.475" cy="7.667" rx="8.395" ry="8.778"/>
</svg>
