<?xml version="1.0" encoding="utf-8"?>
<!-- Generator: Adobe Illustrator 16.0.0, SVG Export Plug-In . SVG Version: 6.00 Build 0)  -->
<!DOCTYPE svg PUBLIC "-//W3C//DTD SVG 1.1//EN" "http://www.w3.org/Graphics/SVG/1.1/DTD/svg11.dtd">
<svg version="1.1" id="Ebene_1" xmlns="http://www.w3.org/2000/svg" xmlns:xlink="http://www.w3.org/1999/xlink" x="0px" y="0px"
	 width="108.152px" height="97.75px" viewBox="0 0 108.152 97.75" enable-background="new 0 0 108.152 97.75" xml:space="preserve">
<g>
	<path fill="#BEC1C2" d="M78.57,1.963c5.562,3.451,8.036,11.728,9.657,23.586c1.398,11.745,1.933,27.097-1.322,41.647
		C83.641,81.75,76.284,92.19,64.918,95.985c-11.146,3.934-26.3,1.229-40.218-7.432C10.79,79.907,1.659,67.5,0.257,55.76
		c-1.619-11.873,4.497-23.085,16.109-32.44C27.978,13.965,41.979,7.662,53.139,3.74C64.499-0.067,73.002-1.489,78.57,1.963z"/>
</g>
<g>
	<path fill="#B90F4B" stroke="#FFFFFF" stroke-width="2" stroke-miterlimit="10" d="M107.125,45.195
		c0.461,6.529-4.798,13.384-13.458,21.646c-8.699,8.012-20.829,17.438-34.528,23.326c-13.707,5.879-26.477,6.033-36.21-0.957
		C13.211,82.483,6.524,68.616,5.391,52.262c-1.141-16.34,3.565-31.008,12.257-39.02c8.676-8.268,21.345-9.879,35.729-5.949
		s27.694,11.586,37.412,18.333C100.526,32.602,106.663,38.662,107.125,45.195z"/>
</g>
</svg>
